<?xml version="1.0" encoding="UTF-8"?>
<svg xmlns="http://www.w3.org/2000/svg" width="120mm" height="70mm" viewBox="0 0 120 70">
<g fill="none" stroke="#FF0000" stroke-width="0.1">
<line x1="3" y1="0" x2="3" y2="20"/>
<line x1="1.25" y1="10" x2="4.75" y2="10"/>
<line x1="3" y1="22" x2="3" y2="42"/>
<line x1="1.25" y1="32" x2="4.75" y2="32"/>
<line x1="3" y1="44" x2="3" y2="64"/>
<line x1="1.25" y1="54" x2="4.75" y2="54"/>
<line x1="3" y1="66" x2="3" y2="70"/>
<line x1="9" y1="0" x2="9" y2="9"/>
<line x1="9" y1="11" x2="9" y2="31"/>
<line x1="7.25" y1="21" x2="10.75" y2="21"/>
<line x1="9" y1="33" x2="9" y2="53"/>
<line x1="7.25" y1="43" x2="10.75" y2="43"/>
<line x1="9" y1="55" x2="9" y2="70"/>
<line x1="7.25" y1="65" x2="10.75" y2="65"/>
<line x1="15" y1="0" x2="15" y2="20"/>
<line x1="13.25" y1="10" x2="16.75" y2="10"/>
<line x1="15" y1="22" x2="15" y2="42"/>
<line x1="13.25" y1="32" x2="16.75" y2="32"/>
<line x1="15" y1="44" x2="15" y2="64"/>
<line x1="13.25" y1="54" x2="16.75" y2="54"/>
<line x1="15" y1="66" x2="15" y2="70"/>
<line x1="21" y1="0" x2="21" y2="9"/>
<line x1="21" y1="11" x2="21" y2="31"/>
<line x1="19.25" y1="21" x2="22.75" y2="21"/>
<line x1="21" y1="33" x2="21" y2="53"/>
<line x1="19.25" y1="43" x2="22.75" y2="43"/>
<line x1="21" y1="55" x2="21" y2="70"/>
<line x1="19.25" y1="65" x2="22.75" y2="65"/>
<line x1="27" y1="0" x2="27" y2="20"/>
<line x1="25.25" y1="10" x2="28.75" y2="10"/>
<line x1="27" y1="22" x2="27" y2="42"/>
<line x1="25.25" y1="32" x2="28.75" y2="32"/>
<line x1="27" y1="44" x2="27" y2="64"/>
<line x1="25.25" y1="54" x2="28.75" y2="54"/>
<line x1="27" y1="66" x2="27" y2="70"/>
<line x1="33" y1="0" x2="33" y2="9"/>
<line x1="33" y1="11" x2="33" y2="31"/>
<line x1="31.25" y1="21" x2="34.75" y2="21"/>
<line x1="33" y1="33" x2="33" y2="53"/>
<line x1="31.25" y1="43" x2="34.75" y2="43"/>
<line x1="33" y1="55" x2="33" y2="70"/>
<line x1="31.25" y1="65" x2="34.75" y2="65"/>
<line x1="39" y1="0" x2="39" y2="20"/>
<line x1="37.25" y1="10" x2="40.75" y2="10"/>
<line x1="39" y1="22" x2="39" y2="42"/>
<line x1="37.25" y1="32" x2="40.75" y2="32"/>
<line x1="39" y1="44" x2="39" y2="64"/>
<line x1="37.25" y1="54" x2="40.75" y2="54"/>
<line x1="39" y1="66" x2="39" y2="70"/>
<line x1="45" y1="0" x2="45" y2="9"/>
<line x1="45" y1="11" x2="45" y2="31"/>
<line x1="43.25" y1="21" x2="46.75" y2="21"/>
<line x1="45" y1="33" x2="45" y2="53"/>
<line x1="43.25" y1="43" x2="46.75" y2="43"/>
<line x1="45" y1="55" x2="45" y2="70"/>
<line x1="43.25" y1="65" x2="46.75" y2="65"/>
<line x1="51" y1="0" x2="51" y2="20"/>
<line x1="49.25" y1="10" x2="52.75" y2="10"/>
<line x1="51" y1="22" x2="51" y2="42"/>
<line x1="49.25" y1="32" x2="52.75" y2="32"/>
<line x1="51" y1="44" x2="51" y2="64"/>
<line x1="49.25" y1="54" x2="52.75" y2="54"/>
<line x1="51" y1="66" x2="51" y2="70"/>
<line x1="57" y1="0" x2="57" y2="9"/>
<line x1="57" y1="11" x2="57" y2="31"/>
<line x1="55.25" y1="21" x2="58.75" y2="21"/>
<line x1="57" y1="33" x2="57" y2="53"/>
<line x1="55.25" y1="43" x2="58.75" y2="43"/>
<line x1="57" y1="55" x2="57" y2="70"/>
<line x1="55.25" y1="65" x2="58.75" y2="65"/>
<line x1="63" y1="0" x2="63" y2="20"/>
<line x1="61.25" y1="10" x2="64.75" y2="10"/>
<line x1="63" y1="22" x2="63" y2="42"/>
<line x1="61.25" y1="32" x2="64.75" y2="32"/>
<line x1="63" y1="44" x2="63" y2="64"/>
<line x1="61.25" y1="54" x2="64.75" y2="54"/>
<line x1="63" y1="66" x2="63" y2="70"/>
<line x1="69" y1="0" x2="69" y2="9"/>
<line x1="69" y1="11" x2="69" y2="31"/>
<line x1="67.25" y1="21" x2="70.75" y2="21"/>
<line x1="69" y1="33" x2="69" y2="53"/>
<line x1="67.25" y1="43" x2="70.75" y2="43"/>
<line x1="69" y1="55" x2="69" y2="70"/>
<line x1="67.25" y1="65" x2="70.75" y2="65"/>
<line x1="75" y1="0" x2="75" y2="20"/>
<line x1="73.25" y1="10" x2="76.75" y2="10"/>
<line x1="75" y1="22" x2="75" y2="42"/>
<line x1="73.25" y1="32" x2="76.75" y2="32"/>
<line x1="75" y1="44" x2="75" y2="64"/>
<line x1="73.25" y1="54" x2="76.75" y2="54"/>
<line x1="75" y1="66" x2="75" y2="70"/>
<line x1="81" y1="0" x2="81" y2="9"/>
<line x1="81" y1="11" x2="81" y2="31"/>
<line x1="79.25" y1="21" x2="82.75" y2="21"/>
<line x1="81" y1="33" x2="81" y2="53"/>
<line x1="79.25" y1="43" x2="82.75" y2="43"/>
<line x1="81" y1="55" x2="81" y2="70"/>
<line x1="79.25" y1="65" x2="82.75" y2="65"/>
<line x1="87" y1="0" x2="87" y2="20"/>
<line x1="85.25" y1="10" x2="88.75" y2="10"/>
<line x1="87" y1="22" x2="87" y2="42"/>
<line x1="85.25" y1="32" x2="88.75" y2="32"/>
<line x1="87" y1="44" x2="87" y2="64"/>
<line x1="85.25" y1="54" x2="88.75" y2="54"/>
<line x1="87" y1="66" x2="87" y2="70"/>
<line x1="93" y1="0" x2="93" y2="9"/>
<line x1="93" y1="11" x2="93" y2="31"/>
<line x1="91.25" y1="21" x2="94.75" y2="21"/>
<line x1="93" y1="33" x2="93" y2="53"/>
<line x1="91.25" y1="43" x2="94.75" y2="43"/>
<line x1="93" y1="55" x2="93" y2="70"/>
<line x1="91.25" y1="65" x2="94.75" y2="65"/>
<line x1="99" y1="0" x2="99" y2="20"/>
<line x1="97.25" y1="10" x2="100.75" y2="10"/>
<line x1="99" y1="22" x2="99" y2="42"/>
<line x1="97.25" y1="32" x2="100.75" y2="32"/>
<line x1="99" y1="44" x2="99" y2="64"/>
<line x1="97.25" y1="54" x2="100.75" y2="54"/>
<line x1="99" y1="66" x2="99" y2="70"/>
<line x1="105" y1="0" x2="105" y2="9"/>
<line x1="105" y1="11" x2="105" y2="31"/>
<line x1="103.25" y1="21" x2="106.75" y2="21"/>
<line x1="105" y1="33" x2="105" y2="53"/>
<line x1="103.25" y1="43" x2="106.75" y2="43"/>
<line x1="105" y1="55" x2="105" y2="70"/>
<line x1="103.25" y1="65" x2="106.75" y2="65"/>
<line x1="111" y1="0" x2="111" y2="20"/>
<line x1="109.25" y1="10" x2="112.75" y2="10"/>
<line x1="111" y1="22" x2="111" y2="42"/>
<line x1="109.25" y1="32" x2="112.75" y2="32"/>
<line x1="111" y1="44" x2="111" y2="64"/>
<line x1="109.25" y1="54" x2="112.75" y2="54"/>
<line x1="111" y1="66" x2="111" y2="70"/>
<line x1="117" y1="0" x2="117" y2="9"/>
<line x1="117" y1="11" x2="117" y2="31"/>
<line x1="115.25" y1="21" x2="118.75" y2="21"/>
<line x1="117" y1="33" x2="117" y2="53"/>
<line x1="115.25" y1="43" x2="118.75" y2="43"/>
<line x1="117" y1="55" x2="117" y2="70"/>
<line x1="115.25" y1="65" x2="118.75" y2="65"/>
<polyline points="0,0 120,0 120,70 0,70 0,0"/>
</g>
</svg>