0
SECTION
2
HEADER
9
$ACADVER
1
AC1009
9
$INSUNITS
70
4
0
ENDSEC
0
SECTION
2
TABLES
0
TABLE
2
LAYER
70
1
0
LAYER
2
CUT
70
0
62
1
6
CONTINUOUS
0
ENDTAB
0
ENDSEC
0
SECTION
2
ENTITIES
0
POLYLINE
8
CUT
66
1
70
0
0
VERTEX
8
CUT
10
3
20
70
0
VERTEX
8
CUT
10
3.3262
20
69.4118
0
VERTEX
8
CUT
10
3.9244
20
68.2353
0
VERTEX
8
CUT
10
4.3689
20
67.0588
0
VERTEX
8
CUT
10
4.5858
20
65.8824
0
VERTEX
8
CUT
10
4.5389
20
64.7059
0
VERTEX
8
CUT
10
4.2362
20
63.5294
0
VERTEX
8
CUT
10
3.7278
20
62.3529
0
VERTEX
8
CUT
10
3.0985
20
61.1765
0
VERTEX
8
CUT
10
2.4528
20
60
0
SEQEND
0
POLYLINE
8
CUT
66
1
70
0
0
VERTEX
8
CUT
10
1.6144
20
58
0
VERTEX
8
CUT
10
1.4102
20
56.8235
0
VERTEX
8
CUT
10
1.4704
20
55.6471
0
VERTEX
8
CUT
10
1.785
20
54.4706
0
VERTEX
8
CUT
10
2.3016
20
53.2941
0
VERTEX
8
CUT
10
2.9343
20
52.1176
0
VERTEX
8
CUT
10
3.578
20
50.9412
0
VERTEX
8
CUT
10
4.1255
20
49.7647
0
VERTEX
8
CUT
10
4.4859
20
48.5882
0
VERTEX
8
CUT
10
4.5992
20
47.4118
0
VERTEX
8
CUT
10
4.4466
20
46.2353
0
VERTEX
8
CUT
10
4.0534
20
45.0588
0
VERTEX
8
CUT
10
3.485
20
43.8824
0
VERTEX
8
CUT
10
2.836
20
42.7059
0
VERTEX
8
CUT
10
2.2143
20
41.5294
0
VERTEX
8
CUT
10
1.7232
20
40.3529
0
VERTEX
8
CUT
10
1.4444
20
39.1765
0
VERTEX
8
CUT
10
1.4243
20
38
0
SEQEND
0
POLYLINE
8
CUT
66
1
70
0
0
VERTEX
8
CUT
10
1.9715
20
36
0
VERTEX
8
CUT
10
2.5464
20
34.8235
0
VERTEX
8
CUT
10
3.1966
20
33.6471
0
VERTEX
8
CUT
10
3.8142
20
32.4706
0
VERTEX
8
CUT
10
4.2964
20
31.2941
0
VERTEX
8
CUT
10
4.563
20
30.1176
0
VERTEX
8
CUT
10
4.5697
20
28.9412
0
VERTEX
8
CUT
10
4.3153
20
27.7647
0
VERTEX
8
CUT
10
3.8423
20
26.5882
0
VERTEX
8
CUT
10
3.2292
20
25.4118
0
VERTEX
8
CUT
10
2.578
20
24.2353
0
VERTEX
8
CUT
10
1.9969
20
23.0588
0
VERTEX
8
CUT
10
1.5827
20
21.8824
0
VERTEX
8
CUT
10
1.4041
20
20.7059
0
VERTEX
8
CUT
10
1.491
20
19.5294
0
VERTEX
8
CUT
10
1.8287
20
18.3529
0
VERTEX
8
CUT
10
2.3612
20
17.1765
0
VERTEX
8
CUT
10
3
20
16
0
SEQEND
0
POLYLINE
8
CUT
66
1
70
0
0
VERTEX
8
CUT
10
4.0285
20
14
0
VERTEX
8
CUT
10
4.4323
20
12.8235
0
VERTEX
8
CUT
10
4.5979
20
11.6471
0
VERTEX
8
CUT
10
4.4978
20
10.4706
0
VERTEX
8
CUT
10
4.1487
20
9.2941
0
VERTEX
8
CUT
10
3.6085
20
8.1176
0
VERTEX
8
CUT
10
2.9671
20
6.9412
0
VERTEX
8
CUT
10
2.3313
20
5.7647
0
VERTEX
8
CUT
10
1.8066
20
4.5882
0
VERTEX
8
CUT
10
1.4804
20
3.4118
0
VERTEX
8
CUT
10
1.4068
20
2.2353
0
VERTEX
8
CUT
10
1.5982
20
1.0588
0
VERTEX
8
CUT
10
1.9803
20
0
0
SEQEND
0
POLYLINE
8
CUT
66
1
70
0
0
VERTEX
8
CUT
10
9.5472
20
69
0
VERTEX
8
CUT
10
10.102
20
67.8235
0
VERTEX
8
CUT
10
10.4734
20
66.6471
0
VERTEX
8
CUT
10
10.5999
20
65.4706
0
VERTEX
8
CUT
10
10.4603
20
64.2941
0
VERTEX
8
CUT
10
10.0779
20
63.1176
0
VERTEX
8
CUT
10
9.5162
20
61.9412
0
VERTEX
8
CUT
10
8.8687
20
60.7647
0
VERTEX
8
CUT
10
8.2431
20
59.5882
0
VERTEX
8
CUT
10
7.7432
20
58.4118
0
VERTEX
8
CUT
10
7.4524
20
57.2353
0
VERTEX
8
CUT
10
7.4189
20
56.0588
0
VERTEX
8
CUT
10
7.6484
20
54.8824
0
VERTEX
8
CUT
10
8.1026
20
53.7059
0
VERTEX
8
CUT
10
8.706
20
52.5294
0
VERTEX
8
CUT
10
9.3583
20
51.3529
0
VERTEX
8
CUT
10
9.9511
20
50.1765
0
VERTEX
8
CUT
10
10.3856
20
49
0
SEQEND
0
POLYLINE
8
CUT
66
1
70
0
0
VERTEX
8
CUT
10
10.5757
20
47
0
VERTEX
8
CUT
10
10.3338
20
45.8235
0
VERTEX
8
CUT
10
9.87
20
44.6471
0
VERTEX
8
CUT
10
9.2616
20
43.4706
0
VERTEX
8
CUT
10
8.6097
20
42.2941
0
VERTEX
8
CUT
10
8.0227
20
41.1176
0
VERTEX
8
CUT
10
7.5982
20
39.9412
0
VERTEX
8
CUT
10
7.4068
20
38.7647
0
VERTEX
8
CUT
10
7.4804
20
37.5882
0
VERTEX
8
CUT
10
7.8066
20
36.4118
0
VERTEX
8
CUT
10
8.3313
20
35.2353
0
VERTEX
8
CUT
10
8.9671
20
34.0588
0
VERTEX
8
CUT
10
9.6085
20
32.8824
0
VERTEX
8
CUT
10
10.1487
20
31.7059
0
VERTEX
8
CUT
10
10.4978
20
30.5294
0
VERTEX
8
CUT
10
10.5979
20
29.3529
0
VERTEX
8
CUT
10
10.4323
20
28.1765
0
VERTEX
8
CUT
10
10.0285
20
27
0
SEQEND
0
POLYLINE
8
CUT
66
1
70
0
0
VERTEX
8
CUT
10
9
20
25
0
VERTEX
8
CUT
10
8.3612
20
23.8235
0
VERTEX
8
CUT
10
7.8287
20
22.6471
0
VERTEX
8
CUT
10
7.491
20
21.4706
0
VERTEX
8
CUT
10
7.4041
20
20.2941
0
VERTEX
8
CUT
10
7.5827
20
19.1176
0
VERTEX
8
CUT
10
7.9969
20
17.9412
0
VERTEX
8
CUT
10
8.578
20
16.7647
0
VERTEX
8
CUT
10
9.2292
20
15.5882
0
VERTEX
8
CUT
10
9.8423
20
14.4118
0
VERTEX
8
CUT
10
10.3153
20
13.2353
0
VERTEX
8
CUT
10
10.5697
20
12.0588
0
VERTEX
8
CUT
10
10.563
20
10.8824
0
VERTEX
8
CUT
10
10.2964
20
9.7059
0
VERTEX
8
CUT
10
9.8142
20
8.5294
0
VERTEX
8
CUT
10
9.1966
20
7.3529
0
VERTEX
8
CUT
10
8.5464
20
6.1765
0
VERTEX
8
CUT
10
7.9715
20
5
0
SEQEND
0
POLYLINE
8
CUT
66
1
70
0
0
VERTEX
8
CUT
10
7.4243
20
3
0
VERTEX
8
CUT
10
7.4444
20
1.8235
0
VERTEX
8
CUT
10
7.7232
20
0.6471
0
VERTEX
8
CUT
10
7.9933
20
0
0
SEQEND
0
POLYLINE
8
CUT
66
1
70
0
0
VERTEX
8
CUT
10
15
20
70
0
VERTEX
8
CUT
10
15.3262
20
69.4118
0
VERTEX
8
CUT
10
15.9244
20
68.2353
0
VERTEX
8
CUT
10
16.3689
20
67.0588
0
VERTEX
8
CUT
10
16.5858
20
65.8824
0
VERTEX
8
CUT
10
16.5389
20
64.7059
0
VERTEX
8
CUT
10
16.2362
20
63.5294
0
VERTEX
8
CUT
10
15.7278
20
62.3529
0
VERTEX
8
CUT
10
15.0985
20
61.1765
0
VERTEX
8
CUT
10
14.4528
20
60
0
SEQEND
0
POLYLINE
8
CUT
66
1
70
0
0
VERTEX
8
CUT
10
13.6144
20
58
0
VERTEX
8
CUT
10
13.4102
20
56.8235
0
VERTEX
8
CUT
10
13.4704
20
55.6471
0
VERTEX
8
CUT
10
13.785
20
54.4706
0
VERTEX
8
CUT
10
14.3016
20
53.2941
0
VERTEX
8
CUT
10
14.9343
20
52.1176
0
VERTEX
8
CUT
10
15.578
20
50.9412
0
VERTEX
8
CUT
10
16.1255
20
49.7647
0
VERTEX
8
CUT
10
16.4859
20
48.5882
0
VERTEX
8
CUT
10
16.5992
20
47.4118
0
VERTEX
8
CUT
10
16.4466
20
46.2353
0
VERTEX
8
CUT
10
16.0534
20
45.0588
0
VERTEX
8
CUT
10
15.485
20
43.8824
0
VERTEX
8
CUT
10
14.836
20
42.7059
0
VERTEX
8
CUT
10
14.2143
20
41.5294
0
VERTEX
8
CUT
10
13.7232
20
40.3529
0
VERTEX
8
CUT
10
13.4444
20
39.1765
0
VERTEX
8
CUT
10
13.4243
20
38
0
SEQEND
0
POLYLINE
8
CUT
66
1
70
0
0
VERTEX
8
CUT
10
13.9715
20
36
0
VERTEX
8
CUT
10
14.5464
20
34.8235
0
VERTEX
8
CUT
10
15.1966
20
33.6471
0
VERTEX
8
CUT
10
15.8142
20
32.4706
0
VERTEX
8
CUT
10
16.2964
20
31.2941
0
VERTEX
8
CUT
10
16.563
20
30.1176
0
VERTEX
8
CUT
10
16.5697
20
28.9412
0
VERTEX
8
CUT
10
16.3153
20
27.7647
0
VERTEX
8
CUT
10
15.8423
20
26.5882
0
VERTEX
8
CUT
10
15.2292
20
25.4118
0
VERTEX
8
CUT
10
14.578
20
24.2353
0
VERTEX
8
CUT
10
13.9969
20
23.0588
0
VERTEX
8
CUT
10
13.5827
20
21.8824
0
VERTEX
8
CUT
10
13.4041
20
20.7059
0
VERTEX
8
CUT
10
13.491
20
19.5294
0
VERTEX
8
CUT
10
13.8287
20
18.3529
0
VERTEX
8
CUT
10
14.3612
20
17.1765
0
VERTEX
8
CUT
10
15
20
16
0
SEQEND
0
POLYLINE
8
CUT
66
1
70
0
0
VERTEX
8
CUT
10
16.0285
20
14
0
VERTEX
8
CUT
10
16.4323
20
12.8235
0
VERTEX
8
CUT
10
16.5979
20
11.6471
0
VERTEX
8
CUT
10
16.4978
20
10.4706
0
VERTEX
8
CUT
10
16.1487
20
9.2941
0
VERTEX
8
CUT
10
15.6085
20
8.1176
0
VERTEX
8
CUT
10
14.9671
20
6.9412
0
VERTEX
8
CUT
10
14.3313
20
5.7647
0
VERTEX
8
CUT
10
13.8066
20
4.5882
0
VERTEX
8
CUT
10
13.4804
20
3.4118
0
VERTEX
8
CUT
10
13.4068
20
2.2353
0
VERTEX
8
CUT
10
13.5982
20
1.0588
0
VERTEX
8
CUT
10
13.9803
20
0
0
SEQEND
0
POLYLINE
8
CUT
66
1
70
0
0
VERTEX
8
CUT
10
21.5472
20
69
0
VERTEX
8
CUT
10
22.102
20
67.8235
0
VERTEX
8
CUT
10
22.4734
20
66.6471
0
VERTEX
8
CUT
10
22.5999
20
65.4706
0
VERTEX
8
CUT
10
22.4603
20
64.2941
0
VERTEX
8
CUT
10
22.0779
20
63.1176
0
VERTEX
8
CUT
10
21.5162
20
61.9412
0
VERTEX
8
CUT
10
20.8687
20
60.7647
0
VERTEX
8
CUT
10
20.2431
20
59.5882
0
VERTEX
8
CUT
10
19.7432
20
58.4118
0
VERTEX
8
CUT
10
19.4524
20
57.2353
0
VERTEX
8
CUT
10
19.4189
20
56.0588
0
VERTEX
8
CUT
10
19.6484
20
54.8824
0
VERTEX
8
CUT
10
20.1026
20
53.7059
0
VERTEX
8
CUT
10
20.706
20
52.5294
0
VERTEX
8
CUT
10
21.3583
20
51.3529
0
VERTEX
8
CUT
10
21.9511
20
50.1765
0
VERTEX
8
CUT
10
22.3856
20
49
0
SEQEND
0
POLYLINE
8
CUT
66
1
70
0
0
VERTEX
8
CUT
10
22.5757
20
47
0
VERTEX
8
CUT
10
22.3338
20
45.8235
0
VERTEX
8
CUT
10
21.87
20
44.6471
0
VERTEX
8
CUT
10
21.2616
20
43.4706
0
VERTEX
8
CUT
10
20.6097
20
42.2941
0
VERTEX
8
CUT
10
20.0227
20
41.1176
0
VERTEX
8
CUT
10
19.5982
20
39.9412
0
VERTEX
8
CUT
10
19.4068
20
38.7647
0
VERTEX
8
CUT
10
19.4804
20
37.5882
0
VERTEX
8
CUT
10
19.8066
20
36.4118
0
VERTEX
8
CUT
10
20.3313
20
35.2353
0
VERTEX
8
CUT
10
20.9671
20
34.0588
0
VERTEX
8
CUT
10
21.6085
20
32.8824
0
VERTEX
8
CUT
10
22.1487
20
31.7059
0
VERTEX
8
CUT
10
22.4978
20
30.5294
0
VERTEX
8
CUT
10
22.5979
20
29.3529
0
VERTEX
8
CUT
10
22.4323
20
28.1765
0
VERTEX
8
CUT
10
22.0285
20
27
0
SEQEND
0
POLYLINE
8
CUT
66
1
70
0
0
VERTEX
8
CUT
10
21
20
25
0
VERTEX
8
CUT
10
20.3612
20
23.8235
0
VERTEX
8
CUT
10
19.8287
20
22.6471
0
VERTEX
8
CUT
10
19.491
20
21.4706
0
VERTEX
8
CUT
10
19.4041
20
20.2941
0
VERTEX
8
CUT
10
19.5827
20
19.1176
0
VERTEX
8
CUT
10
19.9969
20
17.9412
0
VERTEX
8
CUT
10
20.578
20
16.7647
0
VERTEX
8
CUT
10
21.2292
20
15.5882
0
VERTEX
8
CUT
10
21.8423
20
14.4118
0
VERTEX
8
CUT
10
22.3153
20
13.2353
0
VERTEX
8
CUT
10
22.5697
20
12.0588
0
VERTEX
8
CUT
10
22.563
20
10.8824
0
VERTEX
8
CUT
10
22.2964
20
9.7059
0
VERTEX
8
CUT
10
21.8142
20
8.5294
0
VERTEX
8
CUT
10
21.1966
20
7.3529
0
VERTEX
8
CUT
10
20.5464
20
6.1765
0
VERTEX
8
CUT
10
19.9715
20
5
0
SEQEND
0
POLYLINE
8
CUT
66
1
70
0
0
VERTEX
8
CUT
10
19.4243
20
3
0
VERTEX
8
CUT
10
19.4444
20
1.8235
0
VERTEX
8
CUT
10
19.7232
20
0.6471
0
VERTEX
8
CUT
10
19.9933
20
0
0
SEQEND
0
POLYLINE
8
CUT
66
1
70
0
0
VERTEX
8
CUT
10
27
20
70
0
VERTEX
8
CUT
10
27.3262
20
69.4118
0
VERTEX
8
CUT
10
27.9244
20
68.2353
0
VERTEX
8
CUT
10
28.3689
20
67.0588
0
VERTEX
8
CUT
10
28.5858
20
65.8824
0
VERTEX
8
CUT
10
28.5389
20
64.7059
0
VERTEX
8
CUT
10
28.2362
20
63.5294
0
VERTEX
8
CUT
10
27.7278
20
62.3529
0
VERTEX
8
CUT
10
27.0985
20
61.1765
0
VERTEX
8
CUT
10
26.4528
20
60
0
SEQEND
0
POLYLINE
8
CUT
66
1
70
0
0
VERTEX
8
CUT
10
25.6144
20
58
0
VERTEX
8
CUT
10
25.4102
20
56.8235
0
VERTEX
8
CUT
10
25.4704
20
55.6471
0
VERTEX
8
CUT
10
25.785
20
54.4706
0
VERTEX
8
CUT
10
26.3016
20
53.2941
0
VERTEX
8
CUT
10
26.9343
20
52.1176
0
VERTEX
8
CUT
10
27.578
20
50.9412
0
VERTEX
8
CUT
10
28.1255
20
49.7647
0
VERTEX
8
CUT
10
28.4859
20
48.5882
0
VERTEX
8
CUT
10
28.5992
20
47.4118
0
VERTEX
8
CUT
10
28.4466
20
46.2353
0
VERTEX
8
CUT
10
28.0534
20
45.0588
0
VERTEX
8
CUT
10
27.485
20
43.8824
0
VERTEX
8
CUT
10
26.836
20
42.7059
0
VERTEX
8
CUT
10
26.2143
20
41.5294
0
VERTEX
8
CUT
10
25.7232
20
40.3529
0
VERTEX
8
CUT
10
25.4444
20
39.1765
0
VERTEX
8
CUT
10
25.4243
20
38
0
SEQEND
0
POLYLINE
8
CUT
66
1
70
0
0
VERTEX
8
CUT
10
25.9715
20
36
0
VERTEX
8
CUT
10
26.5464
20
34.8235
0
VERTEX
8
CUT
10
27.1966
20
33.6471
0
VERTEX
8
CUT
10
27.8142
20
32.4706
0
VERTEX
8
CUT
10
28.2964
20
31.2941
0
VERTEX
8
CUT
10
28.563
20
30.1176
0
VERTEX
8
CUT
10
28.5697
20
28.9412
0
VERTEX
8
CUT
10
28.3153
20
27.7647
0
VERTEX
8
CUT
10
27.8423
20
26.5882
0
VERTEX
8
CUT
10
27.2292
20
25.4118
0
VERTEX
8
CUT
10
26.578
20
24.2353
0
VERTEX
8
CUT
10
25.9969
20
23.0588
0
VERTEX
8
CUT
10
25.5827
20
21.8824
0
VERTEX
8
CUT
10
25.4041
20
20.7059
0
VERTEX
8
CUT
10
25.491
20
19.5294
0
VERTEX
8
CUT
10
25.8287
20
18.3529
0
VERTEX
8
CUT
10
26.3612
20
17.1765
0
VERTEX
8
CUT
10
27
20
16
0
SEQEND
0
POLYLINE
8
CUT
66
1
70
0
0
VERTEX
8
CUT
10
28.0285
20
14
0
VERTEX
8
CUT
10
28.4323
20
12.8235
0
VERTEX
8
CUT
10
28.5979
20
11.6471
0
VERTEX
8
CUT
10
28.4978
20
10.4706
0
VERTEX
8
CUT
10
28.1487
20
9.2941
0
VERTEX
8
CUT
10
27.6085
20
8.1176
0
VERTEX
8
CUT
10
26.9671
20
6.9412
0
VERTEX
8
CUT
10
26.3313
20
5.7647
0
VERTEX
8
CUT
10
25.8066
20
4.5882
0
VERTEX
8
CUT
10
25.4804
20
3.4118
0
VERTEX
8
CUT
10
25.4068
20
2.2353
0
VERTEX
8
CUT
10
25.5982
20
1.0588
0
VERTEX
8
CUT
10
25.9803
20
0
0
SEQEND
0
POLYLINE
8
CUT
66
1
70
0
0
VERTEX
8
CUT
10
33.5472
20
69
0
VERTEX
8
CUT
10
34.102
20
67.8235
0
VERTEX
8
CUT
10
34.4734
20
66.6471
0
VERTEX
8
CUT
10
34.5999
20
65.4706
0
VERTEX
8
CUT
10
34.4603
20
64.2941
0
VERTEX
8
CUT
10
34.0779
20
63.1176
0
VERTEX
8
CUT
10
33.5162
20
61.9412
0
VERTEX
8
CUT
10
32.8687
20
60.7647
0
VERTEX
8
CUT
10
32.2431
20
59.5882
0
VERTEX
8
CUT
10
31.7432
20
58.4118
0
VERTEX
8
CUT
10
31.4524
20
57.2353
0
VERTEX
8
CUT
10
31.4189
20
56.0588
0
VERTEX
8
CUT
10
31.6484
20
54.8824
0
VERTEX
8
CUT
10
32.1026
20
53.7059
0
VERTEX
8
CUT
10
32.706
20
52.5294
0
VERTEX
8
CUT
10
33.3583
20
51.3529
0
VERTEX
8
CUT
10
33.9511
20
50.1765
0
VERTEX
8
CUT
10
34.3856
20
49
0
SEQEND
0
POLYLINE
8
CUT
66
1
70
0
0
VERTEX
8
CUT
10
34.5757
20
47
0
VERTEX
8
CUT
10
34.3338
20
45.8235
0
VERTEX
8
CUT
10
33.87
20
44.6471
0
VERTEX
8
CUT
10
33.2616
20
43.4706
0
VERTEX
8
CUT
10
32.6097
20
42.2941
0
VERTEX
8
CUT
10
32.0227
20
41.1176
0
VERTEX
8
CUT
10
31.5982
20
39.9412
0
VERTEX
8
CUT
10
31.4068
20
38.7647
0
VERTEX
8
CUT
10
31.4804
20
37.5882
0
VERTEX
8
CUT
10
31.8066
20
36.4118
0
VERTEX
8
CUT
10
32.3313
20
35.2353
0
VERTEX
8
CUT
10
32.9671
20
34.0588
0
VERTEX
8
CUT
10
33.6085
20
32.8824
0
VERTEX
8
CUT
10
34.1487
20
31.7059
0
VERTEX
8
CUT
10
34.4978
20
30.5294
0
VERTEX
8
CUT
10
34.5979
20
29.3529
0
VERTEX
8
CUT
10
34.4323
20
28.1765
0
VERTEX
8
CUT
10
34.0285
20
27
0
SEQEND
0
POLYLINE
8
CUT
66
1
70
0
0
VERTEX
8
CUT
10
33
20
25
0
VERTEX
8
CUT
10
32.3612
20
23.8235
0
VERTEX
8
CUT
10
31.8287
20
22.6471
0
VERTEX
8
CUT
10
31.491
20
21.4706
0
VERTEX
8
CUT
10
31.4041
20
20.2941
0
VERTEX
8
CUT
10
31.5827
20
19.1176
0
VERTEX
8
CUT
10
31.9969
20
17.9412
0
VERTEX
8
CUT
10
32.578
20
16.7647
0
VERTEX
8
CUT
10
33.2292
20
15.5882
0
VERTEX
8
CUT
10
33.8423
20
14.4118
0
VERTEX
8
CUT
10
34.3153
20
13.2353
0
VERTEX
8
CUT
10
34.5697
20
12.0588
0
VERTEX
8
CUT
10
34.563
20
10.8824
0
VERTEX
8
CUT
10
34.2964
20
9.7059
0
VERTEX
8
CUT
10
33.8142
20
8.5294
0
VERTEX
8
CUT
10
33.1966
20
7.3529
0
VERTEX
8
CUT
10
32.5464
20
6.1765
0
VERTEX
8
CUT
10
31.9715
20
5
0
SEQEND
0
POLYLINE
8
CUT
66
1
70
0
0
VERTEX
8
CUT
10
31.4243
20
3
0
VERTEX
8
CUT
10
31.4444
20
1.8235
0
VERTEX
8
CUT
10
31.7232
20
0.6471
0
VERTEX
8
CUT
10
31.9933
20
0
0
SEQEND
0
POLYLINE
8
CUT
66
1
70
0
0
VERTEX
8
CUT
10
39
20
70
0
VERTEX
8
CUT
10
39.3262
20
69.4118
0
VERTEX
8
CUT
10
39.9244
20
68.2353
0
VERTEX
8
CUT
10
40.3689
20
67.0588
0
VERTEX
8
CUT
10
40.5858
20
65.8824
0
VERTEX
8
CUT
10
40.5389
20
64.7059
0
VERTEX
8
CUT
10
40.2362
20
63.5294
0
VERTEX
8
CUT
10
39.7278
20
62.3529
0
VERTEX
8
CUT
10
39.0985
20
61.1765
0
VERTEX
8
CUT
10
38.4528
20
60
0
SEQEND
0
POLYLINE
8
CUT
66
1
70
0
0
VERTEX
8
CUT
10
37.6144
20
58
0
VERTEX
8
CUT
10
37.4102
20
56.8235
0
VERTEX
8
CUT
10
37.4704
20
55.6471
0
VERTEX
8
CUT
10
37.785
20
54.4706
0
VERTEX
8
CUT
10
38.3016
20
53.2941
0
VERTEX
8
CUT
10
38.9343
20
52.1176
0
VERTEX
8
CUT
10
39.578
20
50.9412
0
VERTEX
8
CUT
10
40.1255
20
49.7647
0
VERTEX
8
CUT
10
40.4859
20
48.5882
0
VERTEX
8
CUT
10
40.5992
20
47.4118
0
VERTEX
8
CUT
10
40.4466
20
46.2353
0
VERTEX
8
CUT
10
40.0534
20
45.0588
0
VERTEX
8
CUT
10
39.485
20
43.8824
0
VERTEX
8
CUT
10
38.836
20
42.7059
0
VERTEX
8
CUT
10
38.2143
20
41.5294
0
VERTEX
8
CUT
10
37.7232
20
40.3529
0
VERTEX
8
CUT
10
37.4444
20
39.1765
0
VERTEX
8
CUT
10
37.4243
20
38
0
SEQEND
0
POLYLINE
8
CUT
66
1
70
0
0
VERTEX
8
CUT
10
37.9715
20
36
0
VERTEX
8
CUT
10
38.5464
20
34.8235
0
VERTEX
8
CUT
10
39.1966
20
33.6471
0
VERTEX
8
CUT
10
39.8142
20
32.4706
0
VERTEX
8
CUT
10
40.2964
20
31.2941
0
VERTEX
8
CUT
10
40.563
20
30.1176
0
VERTEX
8
CUT
10
40.5697
20
28.9412
0
VERTEX
8
CUT
10
40.3153
20
27.7647
0
VERTEX
8
CUT
10
39.8423
20
26.5882
0
VERTEX
8
CUT
10
39.2292
20
25.4118
0
VERTEX
8
CUT
10
38.578
20
24.2353
0
VERTEX
8
CUT
10
37.9969
20
23.0588
0
VERTEX
8
CUT
10
37.5827
20
21.8824
0
VERTEX
8
CUT
10
37.4041
20
20.7059
0
VERTEX
8
CUT
10
37.491
20
19.5294
0
VERTEX
8
CUT
10
37.8287
20
18.3529
0
VERTEX
8
CUT
10
38.3612
20
17.1765
0
VERTEX
8
CUT
10
39
20
16
0
SEQEND
0
POLYLINE
8
CUT
66
1
70
0
0
VERTEX
8
CUT
10
40.0285
20
14
0
VERTEX
8
CUT
10
40.4323
20
12.8235
0
VERTEX
8
CUT
10
40.5979
20
11.6471
0
VERTEX
8
CUT
10
40.4978
20
10.4706
0
VERTEX
8
CUT
10
40.1487
20
9.2941
0
VERTEX
8
CUT
10
39.6085
20
8.1176
0
VERTEX
8
CUT
10
38.9671
20
6.9412
0
VERTEX
8
CUT
10
38.3313
20
5.7647
0
VERTEX
8
CUT
10
37.8066
20
4.5882
0
VERTEX
8
CUT
10
37.4804
20
3.4118
0
VERTEX
8
CUT
10
37.4068
20
2.2353
0
VERTEX
8
CUT
10
37.5982
20
1.0588
0
VERTEX
8
CUT
10
37.9803
20
0
0
SEQEND
0
POLYLINE
8
CUT
66
1
70
0
0
VERTEX
8
CUT
10
45.5472
20
69
0
VERTEX
8
CUT
10
46.102
20
67.8235
0
VERTEX
8
CUT
10
46.4734
20
66.6471
0
VERTEX
8
CUT
10
46.5999
20
65.4706
0
VERTEX
8
CUT
10
46.4603
20
64.2941
0
VERTEX
8
CUT
10
46.0779
20
63.1176
0
VERTEX
8
CUT
10
45.5162
20
61.9412
0
VERTEX
8
CUT
10
44.8687
20
60.7647
0
VERTEX
8
CUT
10
44.2431
20
59.5882
0
VERTEX
8
CUT
10
43.7432
20
58.4118
0
VERTEX
8
CUT
10
43.4524
20
57.2353
0
VERTEX
8
CUT
10
43.4189
20
56.0588
0
VERTEX
8
CUT
10
43.6484
20
54.8824
0
VERTEX
8
CUT
10
44.1026
20
53.7059
0
VERTEX
8
CUT
10
44.706
20
52.5294
0
VERTEX
8
CUT
10
45.3583
20
51.3529
0
VERTEX
8
CUT
10
45.9511
20
50.1765
0
VERTEX
8
CUT
10
46.3856
20
49
0
SEQEND
0
POLYLINE
8
CUT
66
1
70
0
0
VERTEX
8
CUT
10
46.5757
20
47
0
VERTEX
8
CUT
10
46.3338
20
45.8235
0
VERTEX
8
CUT
10
45.87
20
44.6471
0
VERTEX
8
CUT
10
45.2616
20
43.4706
0
VERTEX
8
CUT
10
44.6097
20
42.2941
0
VERTEX
8
CUT
10
44.0227
20
41.1176
0
VERTEX
8
CUT
10
43.5982
20
39.9412
0
VERTEX
8
CUT
10
43.4068
20
38.7647
0
VERTEX
8
CUT
10
43.4804
20
37.5882
0
VERTEX
8
CUT
10
43.8066
20
36.4118
0
VERTEX
8
CUT
10
44.3313
20
35.2353
0
VERTEX
8
CUT
10
44.9671
20
34.0588
0
VERTEX
8
CUT
10
45.6085
20
32.8824
0
VERTEX
8
CUT
10
46.1487
20
31.7059
0
VERTEX
8
CUT
10
46.4978
20
30.5294
0
VERTEX
8
CUT
10
46.5979
20
29.3529
0
VERTEX
8
CUT
10
46.4323
20
28.1765
0
VERTEX
8
CUT
10
46.0285
20
27
0
SEQEND
0
POLYLINE
8
CUT
66
1
70
0
0
VERTEX
8
CUT
10
45
20
25
0
VERTEX
8
CUT
10
44.3612
20
23.8235
0
VERTEX
8
CUT
10
43.8287
20
22.6471
0
VERTEX
8
CUT
10
43.491
20
21.4706
0
VERTEX
8
CUT
10
43.4041
20
20.2941
0
VERTEX
8
CUT
10
43.5827
20
19.1176
0
VERTEX
8
CUT
10
43.9969
20
17.9412
0
VERTEX
8
CUT
10
44.578
20
16.7647
0
VERTEX
8
CUT
10
45.2292
20
15.5882
0
VERTEX
8
CUT
10
45.8423
20
14.4118
0
VERTEX
8
CUT
10
46.3153
20
13.2353
0
VERTEX
8
CUT
10
46.5697
20
12.0588
0
VERTEX
8
CUT
10
46.563
20
10.8824
0
VERTEX
8
CUT
10
46.2964
20
9.7059
0
VERTEX
8
CUT
10
45.8142
20
8.5294
0
VERTEX
8
CUT
10
45.1966
20
7.3529
0
VERTEX
8
CUT
10
44.5464
20
6.1765
0
VERTEX
8
CUT
10
43.9715
20
5
0
SEQEND
0
POLYLINE
8
CUT
66
1
70
0
0
VERTEX
8
CUT
10
43.4243
20
3
0
VERTEX
8
CUT
10
43.4444
20
1.8235
0
VERTEX
8
CUT
10
43.7232
20
0.6471
0
VERTEX
8
CUT
10
43.9933
20
0
0
SEQEND
0
POLYLINE
8
CUT
66
1
70
0
0
VERTEX
8
CUT
10
51
20
70
0
VERTEX
8
CUT
10
51.3262
20
69.4118
0
VERTEX
8
CUT
10
51.9244
20
68.2353
0
VERTEX
8
CUT
10
52.3689
20
67.0588
0
VERTEX
8
CUT
10
52.5858
20
65.8824
0
VERTEX
8
CUT
10
52.5389
20
64.7059
0
VERTEX
8
CUT
10
52.2362
20
63.5294
0
VERTEX
8
CUT
10
51.7278
20
62.3529
0
VERTEX
8
CUT
10
51.0985
20
61.1765
0
VERTEX
8
CUT
10
50.4528
20
60
0
SEQEND
0
POLYLINE
8
CUT
66
1
70
0
0
VERTEX
8
CUT
10
49.6144
20
58
0
VERTEX
8
CUT
10
49.4102
20
56.8235
0
VERTEX
8
CUT
10
49.4704
20
55.6471
0
VERTEX
8
CUT
10
49.785
20
54.4706
0
VERTEX
8
CUT
10
50.3016
20
53.2941
0
VERTEX
8
CUT
10
50.9343
20
52.1176
0
VERTEX
8
CUT
10
51.578
20
50.9412
0
VERTEX
8
CUT
10
52.1255
20
49.7647
0
VERTEX
8
CUT
10
52.4859
20
48.5882
0
VERTEX
8
CUT
10
52.5992
20
47.4118
0
VERTEX
8
CUT
10
52.4466
20
46.2353
0
VERTEX
8
CUT
10
52.0534
20
45.0588
0
VERTEX
8
CUT
10
51.485
20
43.8824
0
VERTEX
8
CUT
10
50.836
20
42.7059
0
VERTEX
8
CUT
10
50.2143
20
41.5294
0
VERTEX
8
CUT
10
49.7232
20
40.3529
0
VERTEX
8
CUT
10
49.4444
20
39.1765
0
VERTEX
8
CUT
10
49.4243
20
38
0
SEQEND
0
POLYLINE
8
CUT
66
1
70
0
0
VERTEX
8
CUT
10
49.9715
20
36
0
VERTEX
8
CUT
10
50.5464
20
34.8235
0
VERTEX
8
CUT
10
51.1966
20
33.6471
0
VERTEX
8
CUT
10
51.8142
20
32.4706
0
VERTEX
8
CUT
10
52.2964
20
31.2941
0
VERTEX
8
CUT
10
52.563
20
30.1176
0
VERTEX
8
CUT
10
52.5697
20
28.9412
0
VERTEX
8
CUT
10
52.3153
20
27.7647
0
VERTEX
8
CUT
10
51.8423
20
26.5882
0
VERTEX
8
CUT
10
51.2292
20
25.4118
0
VERTEX
8
CUT
10
50.578
20
24.2353
0
VERTEX
8
CUT
10
49.9969
20
23.0588
0
VERTEX
8
CUT
10
49.5827
20
21.8824
0
VERTEX
8
CUT
10
49.4041
20
20.7059
0
VERTEX
8
CUT
10
49.491
20
19.5294
0
VERTEX
8
CUT
10
49.8287
20
18.3529
0
VERTEX
8
CUT
10
50.3612
20
17.1765
0
VERTEX
8
CUT
10
51
20
16
0
SEQEND
0
POLYLINE
8
CUT
66
1
70
0
0
VERTEX
8
CUT
10
52.0285
20
14
0
VERTEX
8
CUT
10
52.4323
20
12.8235
0
VERTEX
8
CUT
10
52.5979
20
11.6471
0
VERTEX
8
CUT
10
52.4978
20
10.4706
0
VERTEX
8
CUT
10
52.1487
20
9.2941
0
VERTEX
8
CUT
10
51.6085
20
8.1176
0
VERTEX
8
CUT
10
50.9671
20
6.9412
0
VERTEX
8
CUT
10
50.3313
20
5.7647
0
VERTEX
8
CUT
10
49.8066
20
4.5882
0
VERTEX
8
CUT
10
49.4804
20
3.4118
0
VERTEX
8
CUT
10
49.4068
20
2.2353
0
VERTEX
8
CUT
10
49.5982
20
1.0588
0
VERTEX
8
CUT
10
49.9803
20
0
0
SEQEND
0
POLYLINE
8
CUT
66
1
70
0
0
VERTEX
8
CUT
10
57.5472
20
69
0
VERTEX
8
CUT
10
58.102
20
67.8235
0
VERTEX
8
CUT
10
58.4734
20
66.6471
0
VERTEX
8
CUT
10
58.5999
20
65.4706
0
VERTEX
8
CUT
10
58.4603
20
64.2941
0
VERTEX
8
CUT
10
58.0779
20
63.1176
0
VERTEX
8
CUT
10
57.5162
20
61.9412
0
VERTEX
8
CUT
10
56.8687
20
60.7647
0
VERTEX
8
CUT
10
56.2431
20
59.5882
0
VERTEX
8
CUT
10
55.7432
20
58.4118
0
VERTEX
8
CUT
10
55.4524
20
57.2353
0
VERTEX
8
CUT
10
55.4189
20
56.0588
0
VERTEX
8
CUT
10
55.6484
20
54.8824
0
VERTEX
8
CUT
10
56.1026
20
53.7059
0
VERTEX
8
CUT
10
56.706
20
52.5294
0
VERTEX
8
CUT
10
57.3583
20
51.3529
0
VERTEX
8
CUT
10
57.9511
20
50.1765
0
VERTEX
8
CUT
10
58.3856
20
49
0
SEQEND
0
POLYLINE
8
CUT
66
1
70
0
0
VERTEX
8
CUT
10
58.5757
20
47
0
VERTEX
8
CUT
10
58.3338
20
45.8235
0
VERTEX
8
CUT
10
57.87
20
44.6471
0
VERTEX
8
CUT
10
57.2616
20
43.4706
0
VERTEX
8
CUT
10
56.6097
20
42.2941
0
VERTEX
8
CUT
10
56.0227
20
41.1176
0
VERTEX
8
CUT
10
55.5982
20
39.9412
0
VERTEX
8
CUT
10
55.4068
20
38.7647
0
VERTEX
8
CUT
10
55.4804
20
37.5882
0
VERTEX
8
CUT
10
55.8066
20
36.4118
0
VERTEX
8
CUT
10
56.3313
20
35.2353
0
VERTEX
8
CUT
10
56.9671
20
34.0588
0
VERTEX
8
CUT
10
57.6085
20
32.8824
0
VERTEX
8
CUT
10
58.1487
20
31.7059
0
VERTEX
8
CUT
10
58.4978
20
30.5294
0
VERTEX
8
CUT
10
58.5979
20
29.3529
0
VERTEX
8
CUT
10
58.4323
20
28.1765
0
VERTEX
8
CUT
10
58.0285
20
27
0
SEQEND
0
POLYLINE
8
CUT
66
1
70
0
0
VERTEX
8
CUT
10
57
20
25
0
VERTEX
8
CUT
10
56.3612
20
23.8235
0
VERTEX
8
CUT
10
55.8287
20
22.6471
0
VERTEX
8
CUT
10
55.491
20
21.4706
0
VERTEX
8
CUT
10
55.4041
20
20.2941
0
VERTEX
8
CUT
10
55.5827
20
19.1176
0
VERTEX
8
CUT
10
55.9969
20
17.9412
0
VERTEX
8
CUT
10
56.578
20
16.7647
0
VERTEX
8
CUT
10
57.2292
20
15.5882
0
VERTEX
8
CUT
10
57.8423
20
14.4118
0
VERTEX
8
CUT
10
58.3153
20
13.2353
0
VERTEX
8
CUT
10
58.5697
20
12.0588
0
VERTEX
8
CUT
10
58.563
20
10.8824
0
VERTEX
8
CUT
10
58.2964
20
9.7059
0
VERTEX
8
CUT
10
57.8142
20
8.5294
0
VERTEX
8
CUT
10
57.1966
20
7.3529
0
VERTEX
8
CUT
10
56.5464
20
6.1765
0
VERTEX
8
CUT
10
55.9715
20
5
0
SEQEND
0
POLYLINE
8
CUT
66
1
70
0
0
VERTEX
8
CUT
10
55.4243
20
3
0
VERTEX
8
CUT
10
55.4444
20
1.8235
0
VERTEX
8
CUT
10
55.7232
20
0.6471
0
VERTEX
8
CUT
10
55.9933
20
0
0
SEQEND
0
POLYLINE
8
CUT
66
1
70
0
0
VERTEX
8
CUT
10
63
20
70
0
VERTEX
8
CUT
10
63.3262
20
69.4118
0
VERTEX
8
CUT
10
63.9244
20
68.2353
0
VERTEX
8
CUT
10
64.3689
20
67.0588
0
VERTEX
8
CUT
10
64.5858
20
65.8824
0
VERTEX
8
CUT
10
64.5389
20
64.7059
0
VERTEX
8
CUT
10
64.2362
20
63.5294
0
VERTEX
8
CUT
10
63.7278
20
62.3529
0
VERTEX
8
CUT
10
63.0985
20
61.1765
0
VERTEX
8
CUT
10
62.4528
20
60
0
SEQEND
0
POLYLINE
8
CUT
66
1
70
0
0
VERTEX
8
CUT
10
61.6144
20
58
0
VERTEX
8
CUT
10
61.4102
20
56.8235
0
VERTEX
8
CUT
10
61.4704
20
55.6471
0
VERTEX
8
CUT
10
61.785
20
54.4706
0
VERTEX
8
CUT
10
62.3016
20
53.2941
0
VERTEX
8
CUT
10
62.9343
20
52.1176
0
VERTEX
8
CUT
10
63.578
20
50.9412
0
VERTEX
8
CUT
10
64.1255
20
49.7647
0
VERTEX
8
CUT
10
64.4859
20
48.5882
0
VERTEX
8
CUT
10
64.5992
20
47.4118
0
VERTEX
8
CUT
10
64.4466
20
46.2353
0
VERTEX
8
CUT
10
64.0534
20
45.0588
0
VERTEX
8
CUT
10
63.485
20
43.8824
0
VERTEX
8
CUT
10
62.836
20
42.7059
0
VERTEX
8
CUT
10
62.2143
20
41.5294
0
VERTEX
8
CUT
10
61.7232
20
40.3529
0
VERTEX
8
CUT
10
61.4444
20
39.1765
0
VERTEX
8
CUT
10
61.4243
20
38
0
SEQEND
0
POLYLINE
8
CUT
66
1
70
0
0
VERTEX
8
CUT
10
61.9715
20
36
0
VERTEX
8
CUT
10
62.5464
20
34.8235
0
VERTEX
8
CUT
10
63.1966
20
33.6471
0
VERTEX
8
CUT
10
63.8142
20
32.4706
0
VERTEX
8
CUT
10
64.2964
20
31.2941
0
VERTEX
8
CUT
10
64.563
20
30.1176
0
VERTEX
8
CUT
10
64.5697
20
28.9412
0
VERTEX
8
CUT
10
64.3153
20
27.7647
0
VERTEX
8
CUT
10
63.8423
20
26.5882
0
VERTEX
8
CUT
10
63.2292
20
25.4118
0
VERTEX
8
CUT
10
62.578
20
24.2353
0
VERTEX
8
CUT
10
61.9969
20
23.0588
0
VERTEX
8
CUT
10
61.5827
20
21.8824
0
VERTEX
8
CUT
10
61.4041
20
20.7059
0
VERTEX
8
CUT
10
61.491
20
19.5294
0
VERTEX
8
CUT
10
61.8287
20
18.3529
0
VERTEX
8
CUT
10
62.3612
20
17.1765
0
VERTEX
8
CUT
10
63
20
16
0
SEQEND
0
POLYLINE
8
CUT
66
1
70
0
0
VERTEX
8
CUT
10
64.0285
20
14
0
VERTEX
8
CUT
10
64.4323
20
12.8235
0
VERTEX
8
CUT
10
64.5979
20
11.6471
0
VERTEX
8
CUT
10
64.4978
20
10.4706
0
VERTEX
8
CUT
10
64.1487
20
9.2941
0
VERTEX
8
CUT
10
63.6085
20
8.1176
0
VERTEX
8
CUT
10
62.9671
20
6.9412
0
VERTEX
8
CUT
10
62.3313
20
5.7647
0
VERTEX
8
CUT
10
61.8066
20
4.5882
0
VERTEX
8
CUT
10
61.4804
20
3.4118
0
VERTEX
8
CUT
10
61.4068
20
2.2353
0
VERTEX
8
CUT
10
61.5982
20
1.0588
0
VERTEX
8
CUT
10
61.9803
20
0
0
SEQEND
0
POLYLINE
8
CUT
66
1
70
0
0
VERTEX
8
CUT
10
69.5472
20
69
0
VERTEX
8
CUT
10
70.102
20
67.8235
0
VERTEX
8
CUT
10
70.4734
20
66.6471
0
VERTEX
8
CUT
10
70.5999
20
65.4706
0
VERTEX
8
CUT
10
70.4603
20
64.2941
0
VERTEX
8
CUT
10
70.0779
20
63.1176
0
VERTEX
8
CUT
10
69.5162
20
61.9412
0
VERTEX
8
CUT
10
68.8687
20
60.7647
0
VERTEX
8
CUT
10
68.2431
20
59.5882
0
VERTEX
8
CUT
10
67.7432
20
58.4118
0
VERTEX
8
CUT
10
67.4524
20
57.2353
0
VERTEX
8
CUT
10
67.4189
20
56.0588
0
VERTEX
8
CUT
10
67.6484
20
54.8824
0
VERTEX
8
CUT
10
68.1026
20
53.7059
0
VERTEX
8
CUT
10
68.706
20
52.5294
0
VERTEX
8
CUT
10
69.3583
20
51.3529
0
VERTEX
8
CUT
10
69.9511
20
50.1765
0
VERTEX
8
CUT
10
70.3856
20
49
0
SEQEND
0
POLYLINE
8
CUT
66
1
70
0
0
VERTEX
8
CUT
10
70.5757
20
47
0
VERTEX
8
CUT
10
70.3338
20
45.8235
0
VERTEX
8
CUT
10
69.87
20
44.6471
0
VERTEX
8
CUT
10
69.2616
20
43.4706
0
VERTEX
8
CUT
10
68.6097
20
42.2941
0
VERTEX
8
CUT
10
68.0227
20
41.1176
0
VERTEX
8
CUT
10
67.5982
20
39.9412
0
VERTEX
8
CUT
10
67.4068
20
38.7647
0
VERTEX
8
CUT
10
67.4804
20
37.5882
0
VERTEX
8
CUT
10
67.8066
20
36.4118
0
VERTEX
8
CUT
10
68.3313
20
35.2353
0
VERTEX
8
CUT
10
68.9671
20
34.0588
0
VERTEX
8
CUT
10
69.6085
20
32.8824
0
VERTEX
8
CUT
10
70.1487
20
31.7059
0
VERTEX
8
CUT
10
70.4978
20
30.5294
0
VERTEX
8
CUT
10
70.5979
20
29.3529
0
VERTEX
8
CUT
10
70.4323
20
28.1765
0
VERTEX
8
CUT
10
70.0285
20
27
0
SEQEND
0
POLYLINE
8
CUT
66
1
70
0
0
VERTEX
8
CUT
10
69
20
25
0
VERTEX
8
CUT
10
68.3612
20
23.8235
0
VERTEX
8
CUT
10
67.8287
20
22.6471
0
VERTEX
8
CUT
10
67.491
20
21.4706
0
VERTEX
8
CUT
10
67.4041
20
20.2941
0
VERTEX
8
CUT
10
67.5827
20
19.1176
0
VERTEX
8
CUT
10
67.9969
20
17.9412
0
VERTEX
8
CUT
10
68.578
20
16.7647
0
VERTEX
8
CUT
10
69.2292
20
15.5882
0
VERTEX
8
CUT
10
69.8423
20
14.4118
0
VERTEX
8
CUT
10
70.3153
20
13.2353
0
VERTEX
8
CUT
10
70.5697
20
12.0588
0
VERTEX
8
CUT
10
70.563
20
10.8824
0
VERTEX
8
CUT
10
70.2964
20
9.7059
0
VERTEX
8
CUT
10
69.8142
20
8.5294
0
VERTEX
8
CUT
10
69.1966
20
7.3529
0
VERTEX
8
CUT
10
68.5464
20
6.1765
0
VERTEX
8
CUT
10
67.9715
20
5
0
SEQEND
0
POLYLINE
8
CUT
66
1
70
0
0
VERTEX
8
CUT
10
67.4243
20
3
0
VERTEX
8
CUT
10
67.4444
20
1.8235
0
VERTEX
8
CUT
10
67.7232
20
0.6471
0
VERTEX
8
CUT
10
67.9933
20
0
0
SEQEND
0
POLYLINE
8
CUT
66
1
70
0
0
VERTEX
8
CUT
10
75
20
70
0
VERTEX
8
CUT
10
75.3262
20
69.4118
0
VERTEX
8
CUT
10
75.9244
20
68.2353
0
VERTEX
8
CUT
10
76.3689
20
67.0588
0
VERTEX
8
CUT
10
76.5858
20
65.8824
0
VERTEX
8
CUT
10
76.5389
20
64.7059
0
VERTEX
8
CUT
10
76.2362
20
63.5294
0
VERTEX
8
CUT
10
75.7278
20
62.3529
0
VERTEX
8
CUT
10
75.0985
20
61.1765
0
VERTEX
8
CUT
10
74.4528
20
60
0
SEQEND
0
POLYLINE
8
CUT
66
1
70
0
0
VERTEX
8
CUT
10
73.6144
20
58
0
VERTEX
8
CUT
10
73.4102
20
56.8235
0
VERTEX
8
CUT
10
73.4704
20
55.6471
0
VERTEX
8
CUT
10
73.785
20
54.4706
0
VERTEX
8
CUT
10
74.3016
20
53.2941
0
VERTEX
8
CUT
10
74.9343
20
52.1176
0
VERTEX
8
CUT
10
75.578
20
50.9412
0
VERTEX
8
CUT
10
76.1255
20
49.7647
0
VERTEX
8
CUT
10
76.4859
20
48.5882
0
VERTEX
8
CUT
10
76.5992
20
47.4118
0
VERTEX
8
CUT
10
76.4466
20
46.2353
0
VERTEX
8
CUT
10
76.0534
20
45.0588
0
VERTEX
8
CUT
10
75.485
20
43.8824
0
VERTEX
8
CUT
10
74.836
20
42.7059
0
VERTEX
8
CUT
10
74.2143
20
41.5294
0
VERTEX
8
CUT
10
73.7232
20
40.3529
0
VERTEX
8
CUT
10
73.4444
20
39.1765
0
VERTEX
8
CUT
10
73.4243
20
38
0
SEQEND
0
POLYLINE
8
CUT
66
1
70
0
0
VERTEX
8
CUT
10
73.9715
20
36
0
VERTEX
8
CUT
10
74.5464
20
34.8235
0
VERTEX
8
CUT
10
75.1966
20
33.6471
0
VERTEX
8
CUT
10
75.8142
20
32.4706
0
VERTEX
8
CUT
10
76.2964
20
31.2941
0
VERTEX
8
CUT
10
76.563
20
30.1176
0
VERTEX
8
CUT
10
76.5697
20
28.9412
0
VERTEX
8
CUT
10
76.3153
20
27.7647
0
VERTEX
8
CUT
10
75.8423
20
26.5882
0
VERTEX
8
CUT
10
75.2292
20
25.4118
0
VERTEX
8
CUT
10
74.578
20
24.2353
0
VERTEX
8
CUT
10
73.9969
20
23.0588
0
VERTEX
8
CUT
10
73.5827
20
21.8824
0
VERTEX
8
CUT
10
73.4041
20
20.7059
0
VERTEX
8
CUT
10
73.491
20
19.5294
0
VERTEX
8
CUT
10
73.8287
20
18.3529
0
VERTEX
8
CUT
10
74.3612
20
17.1765
0
VERTEX
8
CUT
10
75
20
16
0
SEQEND
0
POLYLINE
8
CUT
66
1
70
0
0
VERTEX
8
CUT
10
76.0285
20
14
0
VERTEX
8
CUT
10
76.4323
20
12.8235
0
VERTEX
8
CUT
10
76.5979
20
11.6471
0
VERTEX
8
CUT
10
76.4978
20
10.4706
0
VERTEX
8
CUT
10
76.1487
20
9.2941
0
VERTEX
8
CUT
10
75.6085
20
8.1176
0
VERTEX
8
CUT
10
74.9671
20
6.9412
0
VERTEX
8
CUT
10
74.3313
20
5.7647
0
VERTEX
8
CUT
10
73.8066
20
4.5882
0
VERTEX
8
CUT
10
73.4804
20
3.4118
0
VERTEX
8
CUT
10
73.4068
20
2.2353
0
VERTEX
8
CUT
10
73.5982
20
1.0588
0
VERTEX
8
CUT
10
73.9803
20
0
0
SEQEND
0
POLYLINE
8
CUT
66
1
70
0
0
VERTEX
8
CUT
10
81.5472
20
69
0
VERTEX
8
CUT
10
82.102
20
67.8235
0
VERTEX
8
CUT
10
82.4734
20
66.6471
0
VERTEX
8
CUT
10
82.5999
20
65.4706
0
VERTEX
8
CUT
10
82.4603
20
64.2941
0
VERTEX
8
CUT
10
82.0779
20
63.1176
0
VERTEX
8
CUT
10
81.5162
20
61.9412
0
VERTEX
8
CUT
10
80.8687
20
60.7647
0
VERTEX
8
CUT
10
80.2431
20
59.5882
0
VERTEX
8
CUT
10
79.7432
20
58.4118
0
VERTEX
8
CUT
10
79.4524
20
57.2353
0
VERTEX
8
CUT
10
79.4189
20
56.0588
0
VERTEX
8
CUT
10
79.6484
20
54.8824
0
VERTEX
8
CUT
10
80.1026
20
53.7059
0
VERTEX
8
CUT
10
80.706
20
52.5294
0
VERTEX
8
CUT
10
81.3583
20
51.3529
0
VERTEX
8
CUT
10
81.9511
20
50.1765
0
VERTEX
8
CUT
10
82.3856
20
49
0
SEQEND
0
POLYLINE
8
CUT
66
1
70
0
0
VERTEX
8
CUT
10
82.5757
20
47
0
VERTEX
8
CUT
10
82.3338
20
45.8235
0
VERTEX
8
CUT
10
81.87
20
44.6471
0
VERTEX
8
CUT
10
81.2616
20
43.4706
0
VERTEX
8
CUT
10
80.6097
20
42.2941
0
VERTEX
8
CUT
10
80.0227
20
41.1176
0
VERTEX
8
CUT
10
79.5982
20
39.9412
0
VERTEX
8
CUT
10
79.4068
20
38.7647
0
VERTEX
8
CUT
10
79.4804
20
37.5882
0
VERTEX
8
CUT
10
79.8066
20
36.4118
0
VERTEX
8
CUT
10
80.3313
20
35.2353
0
VERTEX
8
CUT
10
80.9671
20
34.0588
0
VERTEX
8
CUT
10
81.6085
20
32.8824
0
VERTEX
8
CUT
10
82.1487
20
31.7059
0
VERTEX
8
CUT
10
82.4978
20
30.5294
0
VERTEX
8
CUT
10
82.5979
20
29.3529
0
VERTEX
8
CUT
10
82.4323
20
28.1765
0
VERTEX
8
CUT
10
82.0285
20
27
0
SEQEND
0
POLYLINE
8
CUT
66
1
70
0
0
VERTEX
8
CUT
10
81
20
25
0
VERTEX
8
CUT
10
80.3612
20
23.8235
0
VERTEX
8
CUT
10
79.8287
20
22.6471
0
VERTEX
8
CUT
10
79.491
20
21.4706
0
VERTEX
8
CUT
10
79.4041
20
20.2941
0
VERTEX
8
CUT
10
79.5827
20
19.1176
0
VERTEX
8
CUT
10
79.9969
20
17.9412
0
VERTEX
8
CUT
10
80.578
20
16.7647
0
VERTEX
8
CUT
10
81.2292
20
15.5882
0
VERTEX
8
CUT
10
81.8423
20
14.4118
0
VERTEX
8
CUT
10
82.3153
20
13.2353
0
VERTEX
8
CUT
10
82.5697
20
12.0588
0
VERTEX
8
CUT
10
82.563
20
10.8824
0
VERTEX
8
CUT
10
82.2964
20
9.7059
0
VERTEX
8
CUT
10
81.8142
20
8.5294
0
VERTEX
8
CUT
10
81.1966
20
7.3529
0
VERTEX
8
CUT
10
80.5464
20
6.1765
0
VERTEX
8
CUT
10
79.9715
20
5
0
SEQEND
0
POLYLINE
8
CUT
66
1
70
0
0
VERTEX
8
CUT
10
79.4243
20
3
0
VERTEX
8
CUT
10
79.4444
20
1.8235
0
VERTEX
8
CUT
10
79.7232
20
0.6471
0
VERTEX
8
CUT
10
79.9933
20
0
0
SEQEND
0
POLYLINE
8
CUT
66
1
70
0
0
VERTEX
8
CUT
10
87
20
70
0
VERTEX
8
CUT
10
87.3262
20
69.4118
0
VERTEX
8
CUT
10
87.9244
20
68.2353
0
VERTEX
8
CUT
10
88.3689
20
67.0588
0
VERTEX
8
CUT
10
88.5858
20
65.8824
0
VERTEX
8
CUT
10
88.5389
20
64.7059
0
VERTEX
8
CUT
10
88.2362
20
63.5294
0
VERTEX
8
CUT
10
87.7278
20
62.3529
0
VERTEX
8
CUT
10
87.0985
20
61.1765
0
VERTEX
8
CUT
10
86.4528
20
60
0
SEQEND
0
POLYLINE
8
CUT
66
1
70
0
0
VERTEX
8
CUT
10
85.6144
20
58
0
VERTEX
8
CUT
10
85.4102
20
56.8235
0
VERTEX
8
CUT
10
85.4704
20
55.6471
0
VERTEX
8
CUT
10
85.785
20
54.4706
0
VERTEX
8
CUT
10
86.3016
20
53.2941
0
VERTEX
8
CUT
10
86.9343
20
52.1176
0
VERTEX
8
CUT
10
87.578
20
50.9412
0
VERTEX
8
CUT
10
88.1255
20
49.7647
0
VERTEX
8
CUT
10
88.4859
20
48.5882
0
VERTEX
8
CUT
10
88.5992
20
47.4118
0
VERTEX
8
CUT
10
88.4466
20
46.2353
0
VERTEX
8
CUT
10
88.0534
20
45.0588
0
VERTEX
8
CUT
10
87.485
20
43.8824
0
VERTEX
8
CUT
10
86.836
20
42.7059
0
VERTEX
8
CUT
10
86.2143
20
41.5294
0
VERTEX
8
CUT
10
85.7232
20
40.3529
0
VERTEX
8
CUT
10
85.4444
20
39.1765
0
VERTEX
8
CUT
10
85.4243
20
38
0
SEQEND
0
POLYLINE
8
CUT
66
1
70
0
0
VERTEX
8
CUT
10
85.9715
20
36
0
VERTEX
8
CUT
10
86.5464
20
34.8235
0
VERTEX
8
CUT
10
87.1966
20
33.6471
0
VERTEX
8
CUT
10
87.8142
20
32.4706
0
VERTEX
8
CUT
10
88.2964
20
31.2941
0
VERTEX
8
CUT
10
88.563
20
30.1176
0
VERTEX
8
CUT
10
88.5697
20
28.9412
0
VERTEX
8
CUT
10
88.3153
20
27.7647
0
VERTEX
8
CUT
10
87.8423
20
26.5882
0
VERTEX
8
CUT
10
87.2292
20
25.4118
0
VERTEX
8
CUT
10
86.578
20
24.2353
0
VERTEX
8
CUT
10
85.9969
20
23.0588
0
VERTEX
8
CUT
10
85.5827
20
21.8824
0
VERTEX
8
CUT
10
85.4041
20
20.7059
0
VERTEX
8
CUT
10
85.491
20
19.5294
0
VERTEX
8
CUT
10
85.8287
20
18.3529
0
VERTEX
8
CUT
10
86.3612
20
17.1765
0
VERTEX
8
CUT
10
87
20
16
0
SEQEND
0
POLYLINE
8
CUT
66
1
70
0
0
VERTEX
8
CUT
10
88.0285
20
14
0
VERTEX
8
CUT
10
88.4323
20
12.8235
0
VERTEX
8
CUT
10
88.5979
20
11.6471
0
VERTEX
8
CUT
10
88.4978
20
10.4706
0
VERTEX
8
CUT
10
88.1487
20
9.2941
0
VERTEX
8
CUT
10
87.6085
20
8.1176
0
VERTEX
8
CUT
10
86.9671
20
6.9412
0
VERTEX
8
CUT
10
86.3313
20
5.7647
0
VERTEX
8
CUT
10
85.8066
20
4.5882
0
VERTEX
8
CUT
10
85.4804
20
3.4118
0
VERTEX
8
CUT
10
85.4068
20
2.2353
0
VERTEX
8
CUT
10
85.5982
20
1.0588
0
VERTEX
8
CUT
10
85.9803
20
0
0
SEQEND
0
POLYLINE
8
CUT
66
1
70
0
0
VERTEX
8
CUT
10
93.5472
20
69
0
VERTEX
8
CUT
10
94.102
20
67.8235
0
VERTEX
8
CUT
10
94.4734
20
66.6471
0
VERTEX
8
CUT
10
94.5999
20
65.4706
0
VERTEX
8
CUT
10
94.4603
20
64.2941
0
VERTEX
8
CUT
10
94.0779
20
63.1176
0
VERTEX
8
CUT
10
93.5162
20
61.9412
0
VERTEX
8
CUT
10
92.8687
20
60.7647
0
VERTEX
8
CUT
10
92.2431
20
59.5882
0
VERTEX
8
CUT
10
91.7432
20
58.4118
0
VERTEX
8
CUT
10
91.4524
20
57.2353
0
VERTEX
8
CUT
10
91.4189
20
56.0588
0
VERTEX
8
CUT
10
91.6484
20
54.8824
0
VERTEX
8
CUT
10
92.1026
20
53.7059
0
VERTEX
8
CUT
10
92.706
20
52.5294
0
VERTEX
8
CUT
10
93.3583
20
51.3529
0
VERTEX
8
CUT
10
93.9511
20
50.1765
0
VERTEX
8
CUT
10
94.3856
20
49
0
SEQEND
0
POLYLINE
8
CUT
66
1
70
0
0
VERTEX
8
CUT
10
94.5757
20
47
0
VERTEX
8
CUT
10
94.3338
20
45.8235
0
VERTEX
8
CUT
10
93.87
20
44.6471
0
VERTEX
8
CUT
10
93.2616
20
43.4706
0
VERTEX
8
CUT
10
92.6097
20
42.2941
0
VERTEX
8
CUT
10
92.0227
20
41.1176
0
VERTEX
8
CUT
10
91.5982
20
39.9412
0
VERTEX
8
CUT
10
91.4068
20
38.7647
0
VERTEX
8
CUT
10
91.4804
20
37.5882
0
VERTEX
8
CUT
10
91.8066
20
36.4118
0
VERTEX
8
CUT
10
92.3313
20
35.2353
0
VERTEX
8
CUT
10
92.9671
20
34.0588
0
VERTEX
8
CUT
10
93.6085
20
32.8824
0
VERTEX
8
CUT
10
94.1487
20
31.7059
0
VERTEX
8
CUT
10
94.4978
20
30.5294
0
VERTEX
8
CUT
10
94.5979
20
29.3529
0
VERTEX
8
CUT
10
94.4323
20
28.1765
0
VERTEX
8
CUT
10
94.0285
20
27
0
SEQEND
0
POLYLINE
8
CUT
66
1
70
0
0
VERTEX
8
CUT
10
93
20
25
0
VERTEX
8
CUT
10
92.3612
20
23.8235
0
VERTEX
8
CUT
10
91.8287
20
22.6471
0
VERTEX
8
CUT
10
91.491
20
21.4706
0
VERTEX
8
CUT
10
91.4041
20
20.2941
0
VERTEX
8
CUT
10
91.5827
20
19.1176
0
VERTEX
8
CUT
10
91.9969
20
17.9412
0
VERTEX
8
CUT
10
92.578
20
16.7647
0
VERTEX
8
CUT
10
93.2292
20
15.5882
0
VERTEX
8
CUT
10
93.8423
20
14.4118
0
VERTEX
8
CUT
10
94.3153
20
13.2353
0
VERTEX
8
CUT
10
94.5697
20
12.0588
0
VERTEX
8
CUT
10
94.563
20
10.8824
0
VERTEX
8
CUT
10
94.2964
20
9.7059
0
VERTEX
8
CUT
10
93.8142
20
8.5294
0
VERTEX
8
CUT
10
93.1966
20
7.3529
0
VERTEX
8
CUT
10
92.5464
20
6.1765
0
VERTEX
8
CUT
10
91.9715
20
5
0
SEQEND
0
POLYLINE
8
CUT
66
1
70
0
0
VERTEX
8
CUT
10
91.4243
20
3
0
VERTEX
8
CUT
10
91.4444
20
1.8235
0
VERTEX
8
CUT
10
91.7232
20
0.6471
0
VERTEX
8
CUT
10
91.9933
20
0
0
SEQEND
0
POLYLINE
8
CUT
66
1
70
0
0
VERTEX
8
CUT
10
99
20
70
0
VERTEX
8
CUT
10
99.3262
20
69.4118
0
VERTEX
8
CUT
10
99.9244
20
68.2353
0
VERTEX
8
CUT
10
100.3689
20
67.0588
0
VERTEX
8
CUT
10
100.5858
20
65.8824
0
VERTEX
8
CUT
10
100.5389
20
64.7059
0
VERTEX
8
CUT
10
100.2362
20
63.5294
0
VERTEX
8
CUT
10
99.7278
20
62.3529
0
VERTEX
8
CUT
10
99.0985
20
61.1765
0
VERTEX
8
CUT
10
98.4528
20
60
0
SEQEND
0
POLYLINE
8
CUT
66
1
70
0
0
VERTEX
8
CUT
10
97.6144
20
58
0
VERTEX
8
CUT
10
97.4102
20
56.8235
0
VERTEX
8
CUT
10
97.4704
20
55.6471
0
VERTEX
8
CUT
10
97.785
20
54.4706
0
VERTEX
8
CUT
10
98.3016
20
53.2941
0
VERTEX
8
CUT
10
98.9343
20
52.1176
0
VERTEX
8
CUT
10
99.578
20
50.9412
0
VERTEX
8
CUT
10
100.1255
20
49.7647
0
VERTEX
8
CUT
10
100.4859
20
48.5882
0
VERTEX
8
CUT
10
100.5992
20
47.4118
0
VERTEX
8
CUT
10
100.4466
20
46.2353
0
VERTEX
8
CUT
10
100.0534
20
45.0588
0
VERTEX
8
CUT
10
99.485
20
43.8824
0
VERTEX
8
CUT
10
98.836
20
42.7059
0
VERTEX
8
CUT
10
98.2143
20
41.5294
0
VERTEX
8
CUT
10
97.7232
20
40.3529
0
VERTEX
8
CUT
10
97.4444
20
39.1765
0
VERTEX
8
CUT
10
97.4243
20
38
0
SEQEND
0
POLYLINE
8
CUT
66
1
70
0
0
VERTEX
8
CUT
10
97.9715
20
36
0
VERTEX
8
CUT
10
98.5464
20
34.8235
0
VERTEX
8
CUT
10
99.1966
20
33.6471
0
VERTEX
8
CUT
10
99.8142
20
32.4706
0
VERTEX
8
CUT
10
100.2964
20
31.2941
0
VERTEX
8
CUT
10
100.563
20
30.1176
0
VERTEX
8
CUT
10
100.5697
20
28.9412
0
VERTEX
8
CUT
10
100.3153
20
27.7647
0
VERTEX
8
CUT
10
99.8423
20
26.5882
0
VERTEX
8
CUT
10
99.2292
20
25.4118
0
VERTEX
8
CUT
10
98.578
20
24.2353
0
VERTEX
8
CUT
10
97.9969
20
23.0588
0
VERTEX
8
CUT
10
97.5827
20
21.8824
0
VERTEX
8
CUT
10
97.4041
20
20.7059
0
VERTEX
8
CUT
10
97.491
20
19.5294
0
VERTEX
8
CUT
10
97.8287
20
18.3529
0
VERTEX
8
CUT
10
98.3612
20
17.1765
0
VERTEX
8
CUT
10
99
20
16
0
SEQEND
0
POLYLINE
8
CUT
66
1
70
0
0
VERTEX
8
CUT
10
100.0285
20
14
0
VERTEX
8
CUT
10
100.4323
20
12.8235
0
VERTEX
8
CUT
10
100.5979
20
11.6471
0
VERTEX
8
CUT
10
100.4978
20
10.4706
0
VERTEX
8
CUT
10
100.1487
20
9.2941
0
VERTEX
8
CUT
10
99.6085
20
8.1176
0
VERTEX
8
CUT
10
98.9671
20
6.9412
0
VERTEX
8
CUT
10
98.3313
20
5.7647
0
VERTEX
8
CUT
10
97.8066
20
4.5882
0
VERTEX
8
CUT
10
97.4804
20
3.4118
0
VERTEX
8
CUT
10
97.4068
20
2.2353
0
VERTEX
8
CUT
10
97.5982
20
1.0588
0
VERTEX
8
CUT
10
97.9803
20
0
0
SEQEND
0
POLYLINE
8
CUT
66
1
70
0
0
VERTEX
8
CUT
10
105.5472
20
69
0
VERTEX
8
CUT
10
106.102
20
67.8235
0
VERTEX
8
CUT
10
106.4734
20
66.6471
0
VERTEX
8
CUT
10
106.5999
20
65.4706
0
VERTEX
8
CUT
10
106.4603
20
64.2941
0
VERTEX
8
CUT
10
106.0779
20
63.1176
0
VERTEX
8
CUT
10
105.5162
20
61.9412
0
VERTEX
8
CUT
10
104.8687
20
60.7647
0
VERTEX
8
CUT
10
104.2431
20
59.5882
0
VERTEX
8
CUT
10
103.7432
20
58.4118
0
VERTEX
8
CUT
10
103.4524
20
57.2353
0
VERTEX
8
CUT
10
103.4189
20
56.0588
0
VERTEX
8
CUT
10
103.6484
20
54.8824
0
VERTEX
8
CUT
10
104.1026
20
53.7059
0
VERTEX
8
CUT
10
104.706
20
52.5294
0
VERTEX
8
CUT
10
105.3583
20
51.3529
0
VERTEX
8
CUT
10
105.9511
20
50.1765
0
VERTEX
8
CUT
10
106.3856
20
49
0
SEQEND
0
POLYLINE
8
CUT
66
1
70
0
0
VERTEX
8
CUT
10
106.5757
20
47
0
VERTEX
8
CUT
10
106.3338
20
45.8235
0
VERTEX
8
CUT
10
105.87
20
44.6471
0
VERTEX
8
CUT
10
105.2616
20
43.4706
0
VERTEX
8
CUT
10
104.6097
20
42.2941
0
VERTEX
8
CUT
10
104.0227
20
41.1176
0
VERTEX
8
CUT
10
103.5982
20
39.9412
0
VERTEX
8
CUT
10
103.4068
20
38.7647
0
VERTEX
8
CUT
10
103.4804
20
37.5882
0
VERTEX
8
CUT
10
103.8066
20
36.4118
0
VERTEX
8
CUT
10
104.3313
20
35.2353
0
VERTEX
8
CUT
10
104.9671
20
34.0588
0
VERTEX
8
CUT
10
105.6085
20
32.8824
0
VERTEX
8
CUT
10
106.1487
20
31.7059
0
VERTEX
8
CUT
10
106.4978
20
30.5294
0
VERTEX
8
CUT
10
106.5979
20
29.3529
0
VERTEX
8
CUT
10
106.4323
20
28.1765
0
VERTEX
8
CUT
10
106.0285
20
27
0
SEQEND
0
POLYLINE
8
CUT
66
1
70
0
0
VERTEX
8
CUT
10
105
20
25
0
VERTEX
8
CUT
10
104.3612
20
23.8235
0
VERTEX
8
CUT
10
103.8287
20
22.6471
0
VERTEX
8
CUT
10
103.491
20
21.4706
0
VERTEX
8
CUT
10
103.4041
20
20.2941
0
VERTEX
8
CUT
10
103.5827
20
19.1176
0
VERTEX
8
CUT
10
103.9969
20
17.9412
0
VERTEX
8
CUT
10
104.578
20
16.7647
0
VERTEX
8
CUT
10
105.2292
20
15.5882
0
VERTEX
8
CUT
10
105.8423
20
14.4118
0
VERTEX
8
CUT
10
106.3153
20
13.2353
0
VERTEX
8
CUT
10
106.5697
20
12.0588
0
VERTEX
8
CUT
10
106.563
20
10.8824
0
VERTEX
8
CUT
10
106.2964
20
9.7059
0
VERTEX
8
CUT
10
105.8142
20
8.5294
0
VERTEX
8
CUT
10
105.1966
20
7.3529
0
VERTEX
8
CUT
10
104.5464
20
6.1765
0
VERTEX
8
CUT
10
103.9715
20
5
0
SEQEND
0
POLYLINE
8
CUT
66
1
70
0
0
VERTEX
8
CUT
10
103.4243
20
3
0
VERTEX
8
CUT
10
103.4444
20
1.8235
0
VERTEX
8
CUT
10
103.7232
20
0.6471
0
VERTEX
8
CUT
10
103.9933
20
0
0
SEQEND
0
POLYLINE
8
CUT
66
1
70
0
0
VERTEX
8
CUT
10
111
20
70
0
VERTEX
8
CUT
10
111.3262
20
69.4118
0
VERTEX
8
CUT
10
111.9244
20
68.2353
0
VERTEX
8
CUT
10
112.3689
20
67.0588
0
VERTEX
8
CUT
10
112.5858
20
65.8824
0
VERTEX
8
CUT
10
112.5389
20
64.7059
0
VERTEX
8
CUT
10
112.2362
20
63.5294
0
VERTEX
8
CUT
10
111.7278
20
62.3529
0
VERTEX
8
CUT
10
111.0985
20
61.1765
0
VERTEX
8
CUT
10
110.4528
20
60
0
SEQEND
0
POLYLINE
8
CUT
66
1
70
0
0
VERTEX
8
CUT
10
109.6144
20
58
0
VERTEX
8
CUT
10
109.4102
20
56.8235
0
VERTEX
8
CUT
10
109.4704
20
55.6471
0
VERTEX
8
CUT
10
109.785
20
54.4706
0
VERTEX
8
CUT
10
110.3016
20
53.2941
0
VERTEX
8
CUT
10
110.9343
20
52.1176
0
VERTEX
8
CUT
10
111.578
20
50.9412
0
VERTEX
8
CUT
10
112.1255
20
49.7647
0
VERTEX
8
CUT
10
112.4859
20
48.5882
0
VERTEX
8
CUT
10
112.5992
20
47.4118
0
VERTEX
8
CUT
10
112.4466
20
46.2353
0
VERTEX
8
CUT
10
112.0534
20
45.0588
0
VERTEX
8
CUT
10
111.485
20
43.8824
0
VERTEX
8
CUT
10
110.836
20
42.7059
0
VERTEX
8
CUT
10
110.2143
20
41.5294
0
VERTEX
8
CUT
10
109.7232
20
40.3529
0
VERTEX
8
CUT
10
109.4444
20
39.1765
0
VERTEX
8
CUT
10
109.4243
20
38
0
SEQEND
0
POLYLINE
8
CUT
66
1
70
0
0
VERTEX
8
CUT
10
109.9715
20
36
0
VERTEX
8
CUT
10
110.5464
20
34.8235
0
VERTEX
8
CUT
10
111.1966
20
33.6471
0
VERTEX
8
CUT
10
111.8142
20
32.4706
0
VERTEX
8
CUT
10
112.2964
20
31.2941
0
VERTEX
8
CUT
10
112.563
20
30.1176
0
VERTEX
8
CUT
10
112.5697
20
28.9412
0
VERTEX
8
CUT
10
112.3153
20
27.7647
0
VERTEX
8
CUT
10
111.8423
20
26.5882
0
VERTEX
8
CUT
10
111.2292
20
25.4118
0
VERTEX
8
CUT
10
110.578
20
24.2353
0
VERTEX
8
CUT
10
109.9969
20
23.0588
0
VERTEX
8
CUT
10
109.5827
20
21.8824
0
VERTEX
8
CUT
10
109.4041
20
20.7059
0
VERTEX
8
CUT
10
109.491
20
19.5294
0
VERTEX
8
CUT
10
109.8287
20
18.3529
0
VERTEX
8
CUT
10
110.3612
20
17.1765
0
VERTEX
8
CUT
10
111
20
16
0
SEQEND
0
POLYLINE
8
CUT
66
1
70
0
0
VERTEX
8
CUT
10
112.0285
20
14
0
VERTEX
8
CUT
10
112.4323
20
12.8235
0
VERTEX
8
CUT
10
112.5979
20
11.6471
0
VERTEX
8
CUT
10
112.4978
20
10.4706
0
VERTEX
8
CUT
10
112.1487
20
9.2941
0
VERTEX
8
CUT
10
111.6085
20
8.1176
0
VERTEX
8
CUT
10
110.9671
20
6.9412
0
VERTEX
8
CUT
10
110.3313
20
5.7647
0
VERTEX
8
CUT
10
109.8066
20
4.5882
0
VERTEX
8
CUT
10
109.4804
20
3.4118
0
VERTEX
8
CUT
10
109.4068
20
2.2353
0
VERTEX
8
CUT
10
109.5982
20
1.0588
0
VERTEX
8
CUT
10
109.9803
20
0
0
SEQEND
0
POLYLINE
8
CUT
66
1
70
0
0
VERTEX
8
CUT
10
117.5472
20
69
0
VERTEX
8
CUT
10
118.102
20
67.8235
0
VERTEX
8
CUT
10
118.4734
20
66.6471
0
VERTEX
8
CUT
10
118.5999
20
65.4706
0
VERTEX
8
CUT
10
118.4603
20
64.2941
0
VERTEX
8
CUT
10
118.0779
20
63.1176
0
VERTEX
8
CUT
10
117.5162
20
61.9412
0
VERTEX
8
CUT
10
116.8687
20
60.7647
0
VERTEX
8
CUT
10
116.2431
20
59.5882
0
VERTEX
8
CUT
10
115.7432
20
58.4118
0
VERTEX
8
CUT
10
115.4524
20
57.2353
0
VERTEX
8
CUT
10
115.4189
20
56.0588
0
VERTEX
8
CUT
10
115.6484
20
54.8824
0
VERTEX
8
CUT
10
116.1026
20
53.7059
0
VERTEX
8
CUT
10
116.706
20
52.5294
0
VERTEX
8
CUT
10
117.3583
20
51.3529
0
VERTEX
8
CUT
10
117.9511
20
50.1765
0
VERTEX
8
CUT
10
118.3856
20
49
0
SEQEND
0
POLYLINE
8
CUT
66
1
70
0
0
VERTEX
8
CUT
10
118.5757
20
47
0
VERTEX
8
CUT
10
118.3338
20
45.8235
0
VERTEX
8
CUT
10
117.87
20
44.6471
0
VERTEX
8
CUT
10
117.2616
20
43.4706
0
VERTEX
8
CUT
10
116.6097
20
42.2941
0
VERTEX
8
CUT
10
116.0227
20
41.1176
0
VERTEX
8
CUT
10
115.5982
20
39.9412
0
VERTEX
8
CUT
10
115.4068
20
38.7647
0
VERTEX
8
CUT
10
115.4804
20
37.5882
0
VERTEX
8
CUT
10
115.8066
20
36.4118
0
VERTEX
8
CUT
10
116.3313
20
35.2353
0
VERTEX
8
CUT
10
116.9671
20
34.0588
0
VERTEX
8
CUT
10
117.6085
20
32.8824
0
VERTEX
8
CUT
10
118.1487
20
31.7059
0
VERTEX
8
CUT
10
118.4978
20
30.5294
0
VERTEX
8
CUT
10
118.5979
20
29.3529
0
VERTEX
8
CUT
10
118.4323
20
28.1765
0
VERTEX
8
CUT
10
118.0285
20
27
0
SEQEND
0
POLYLINE
8
CUT
66
1
70
0
0
VERTEX
8
CUT
10
117
20
25
0
VERTEX
8
CUT
10
116.3612
20
23.8235
0
VERTEX
8
CUT
10
115.8287
20
22.6471
0
VERTEX
8
CUT
10
115.491
20
21.4706
0
VERTEX
8
CUT
10
115.4041
20
20.2941
0
VERTEX
8
CUT
10
115.5827
20
19.1176
0
VERTEX
8
CUT
10
115.9969
20
17.9412
0
VERTEX
8
CUT
10
116.578
20
16.7647
0
VERTEX
8
CUT
10
117.2292
20
15.5882
0
VERTEX
8
CUT
10
117.8423
20
14.4118
0
VERTEX
8
CUT
10
118.3153
20
13.2353
0
VERTEX
8
CUT
10
118.5697
20
12.0588
0
VERTEX
8
CUT
10
118.563
20
10.8824
0
VERTEX
8
CUT
10
118.2964
20
9.7059
0
VERTEX
8
CUT
10
117.8142
20
8.5294
0
VERTEX
8
CUT
10
117.1966
20
7.3529
0
VERTEX
8
CUT
10
116.5464
20
6.1765
0
VERTEX
8
CUT
10
115.9715
20
5
0
SEQEND
0
POLYLINE
8
CUT
66
1
70
0
0
VERTEX
8
CUT
10
115.4243
20
3
0
VERTEX
8
CUT
10
115.4444
20
1.8235
0
VERTEX
8
CUT
10
115.7232
20
0.6471
0
VERTEX
8
CUT
10
115.9933
20
0
0
SEQEND
0
POLYLINE
8
CUT
66
1
70
0
0
VERTEX
8
CUT
10
0
20
70
0
VERTEX
8
CUT
10
120
20
70
0
VERTEX
8
CUT
10
120
20
0
0
VERTEX
8
CUT
10
0
20
0
0
VERTEX
8
CUT
10
0
20
70
0
SEQEND
0
ENDSEC
0
EOF
