<?xml version="1.0" encoding="UTF-8"?>
<svg xmlns="http://www.w3.org/2000/svg" width="120mm" height="70mm" viewBox="0 0 120 70">
<g fill="none" stroke="#FF0000" stroke-width="0.1">
<line x1="0" y1="3" x2="30" y2="3"/>
<line x1="15" y1="1.75" x2="15" y2="4.25"/>
<line x1="31.5" y1="3" x2="61.5" y2="3"/>
<line x1="46.5" y1="1.75" x2="46.5" y2="4.25"/>
<line x1="63" y1="3" x2="93" y2="3"/>
<line x1="78" y1="1.75" x2="78" y2="4.25"/>
<line x1="94.5" y1="3" x2="120" y2="3"/>
<line x1="109.5" y1="1.75" x2="109.5" y2="4.25"/>
<line x1="0" y1="7" x2="14.25" y2="7"/>
<line x1="15.75" y1="7" x2="45.75" y2="7"/>
<line x1="30.75" y1="5.75" x2="30.75" y2="8.25"/>
<line x1="47.25" y1="7" x2="77.25" y2="7"/>
<line x1="62.25" y1="5.75" x2="62.25" y2="8.25"/>
<line x1="78.75" y1="7" x2="108.75" y2="7"/>
<line x1="93.75" y1="5.75" x2="93.75" y2="8.25"/>
<line x1="110.25" y1="7" x2="120" y2="7"/>
<line x1="0" y1="11" x2="30" y2="11"/>
<line x1="15" y1="9.75" x2="15" y2="12.25"/>
<line x1="31.5" y1="11" x2="61.5" y2="11"/>
<line x1="46.5" y1="9.75" x2="46.5" y2="12.25"/>
<line x1="63" y1="11" x2="93" y2="11"/>
<line x1="78" y1="9.75" x2="78" y2="12.25"/>
<line x1="94.5" y1="11" x2="120" y2="11"/>
<line x1="109.5" y1="9.75" x2="109.5" y2="12.25"/>
<line x1="0" y1="15" x2="14.25" y2="15"/>
<line x1="15.75" y1="15" x2="45.75" y2="15"/>
<line x1="30.75" y1="13.75" x2="30.75" y2="16.25"/>
<line x1="47.25" y1="15" x2="77.25" y2="15"/>
<line x1="62.25" y1="13.75" x2="62.25" y2="16.25"/>
<line x1="78.75" y1="15" x2="108.75" y2="15"/>
<line x1="93.75" y1="13.75" x2="93.75" y2="16.25"/>
<line x1="110.25" y1="15" x2="120" y2="15"/>
<line x1="0" y1="19" x2="30" y2="19"/>
<line x1="15" y1="17.75" x2="15" y2="20.25"/>
<line x1="31.5" y1="19" x2="61.5" y2="19"/>
<line x1="46.5" y1="17.75" x2="46.5" y2="20.25"/>
<line x1="63" y1="19" x2="93" y2="19"/>
<line x1="78" y1="17.75" x2="78" y2="20.25"/>
<line x1="94.5" y1="19" x2="120" y2="19"/>
<line x1="109.5" y1="17.75" x2="109.5" y2="20.25"/>
<line x1="0" y1="23" x2="14.25" y2="23"/>
<line x1="15.75" y1="23" x2="45.75" y2="23"/>
<line x1="30.75" y1="21.75" x2="30.75" y2="24.25"/>
<line x1="47.25" y1="23" x2="77.25" y2="23"/>
<line x1="62.25" y1="21.75" x2="62.25" y2="24.25"/>
<line x1="78.75" y1="23" x2="108.75" y2="23"/>
<line x1="93.75" y1="21.75" x2="93.75" y2="24.25"/>
<line x1="110.25" y1="23" x2="120" y2="23"/>
<line x1="0" y1="27" x2="30" y2="27"/>
<line x1="15" y1="25.75" x2="15" y2="28.25"/>
<line x1="31.5" y1="27" x2="61.5" y2="27"/>
<line x1="46.5" y1="25.75" x2="46.5" y2="28.25"/>
<line x1="63" y1="27" x2="93" y2="27"/>
<line x1="78" y1="25.75" x2="78" y2="28.25"/>
<line x1="94.5" y1="27" x2="120" y2="27"/>
<line x1="109.5" y1="25.75" x2="109.5" y2="28.25"/>
<line x1="0" y1="31" x2="14.25" y2="31"/>
<line x1="15.75" y1="31" x2="45.75" y2="31"/>
<line x1="30.75" y1="29.75" x2="30.75" y2="32.25"/>
<line x1="47.25" y1="31" x2="77.25" y2="31"/>
<line x1="62.25" y1="29.75" x2="62.25" y2="32.25"/>
<line x1="78.75" y1="31" x2="108.75" y2="31"/>
<line x1="93.75" y1="29.75" x2="93.75" y2="32.25"/>
<line x1="110.25" y1="31" x2="120" y2="31"/>
<line x1="0" y1="35" x2="30" y2="35"/>
<line x1="15" y1="33.75" x2="15" y2="36.25"/>
<line x1="31.5" y1="35" x2="61.5" y2="35"/>
<line x1="46.5" y1="33.75" x2="46.5" y2="36.25"/>
<line x1="63" y1="35" x2="93" y2="35"/>
<line x1="78" y1="33.75" x2="78" y2="36.25"/>
<line x1="94.5" y1="35" x2="120" y2="35"/>
<line x1="109.5" y1="33.75" x2="109.5" y2="36.25"/>
<line x1="0" y1="39" x2="14.25" y2="39"/>
<line x1="15.75" y1="39" x2="45.75" y2="39"/>
<line x1="30.75" y1="37.75" x2="30.75" y2="40.25"/>
<line x1="47.25" y1="39" x2="77.25" y2="39"/>
<line x1="62.25" y1="37.75" x2="62.25" y2="40.25"/>
<line x1="78.75" y1="39" x2="108.75" y2="39"/>
<line x1="93.75" y1="37.75" x2="93.75" y2="40.25"/>
<line x1="110.25" y1="39" x2="120" y2="39"/>
<line x1="0" y1="43" x2="30" y2="43"/>
<line x1="15" y1="41.75" x2="15" y2="44.25"/>
<line x1="31.5" y1="43" x2="61.5" y2="43"/>
<line x1="46.5" y1="41.75" x2="46.5" y2="44.25"/>
<line x1="63" y1="43" x2="93" y2="43"/>
<line x1="78" y1="41.75" x2="78" y2="44.25"/>
<line x1="94.5" y1="43" x2="120" y2="43"/>
<line x1="109.5" y1="41.75" x2="109.5" y2="44.25"/>
<line x1="0" y1="47" x2="14.25" y2="47"/>
<line x1="15.75" y1="47" x2="45.75" y2="47"/>
<line x1="30.75" y1="45.75" x2="30.75" y2="48.25"/>
<line x1="47.25" y1="47" x2="77.25" y2="47"/>
<line x1="62.25" y1="45.75" x2="62.25" y2="48.25"/>
<line x1="78.75" y1="47" x2="108.75" y2="47"/>
<line x1="93.75" y1="45.75" x2="93.75" y2="48.25"/>
<line x1="110.25" y1="47" x2="120" y2="47"/>
<line x1="0" y1="51" x2="30" y2="51"/>
<line x1="15" y1="49.75" x2="15" y2="52.25"/>
<line x1="31.5" y1="51" x2="61.5" y2="51"/>
<line x1="46.5" y1="49.75" x2="46.5" y2="52.25"/>
<line x1="63" y1="51" x2="93" y2="51"/>
<line x1="78" y1="49.75" x2="78" y2="52.25"/>
<line x1="94.5" y1="51" x2="120" y2="51"/>
<line x1="109.5" y1="49.75" x2="109.5" y2="52.25"/>
<line x1="0" y1="55" x2="14.25" y2="55"/>
<line x1="15.75" y1="55" x2="45.75" y2="55"/>
<line x1="30.75" y1="53.75" x2="30.75" y2="56.25"/>
<line x1="47.25" y1="55" x2="77.25" y2="55"/>
<line x1="62.25" y1="53.75" x2="62.25" y2="56.25"/>
<line x1="78.75" y1="55" x2="108.75" y2="55"/>
<line x1="93.75" y1="53.75" x2="93.75" y2="56.25"/>
<line x1="110.25" y1="55" x2="120" y2="55"/>
<line x1="0" y1="59" x2="30" y2="59"/>
<line x1="15" y1="57.75" x2="15" y2="60.25"/>
<line x1="31.5" y1="59" x2="61.5" y2="59"/>
<line x1="46.5" y1="57.75" x2="46.5" y2="60.25"/>
<line x1="63" y1="59" x2="93" y2="59"/>
<line x1="78" y1="57.75" x2="78" y2="60.25"/>
<line x1="94.5" y1="59" x2="120" y2="59"/>
<line x1="109.5" y1="57.75" x2="109.5" y2="60.25"/>
<line x1="0" y1="63" x2="14.25" y2="63"/>
<line x1="15.75" y1="63" x2="45.75" y2="63"/>
<line x1="30.75" y1="61.75" x2="30.75" y2="64.25"/>
<line x1="47.25" y1="63" x2="77.25" y2="63"/>
<line x1="62.25" y1="61.75" x2="62.25" y2="64.25"/>
<line x1="78.75" y1="63" x2="108.75" y2="63"/>
<line x1="93.75" y1="61.75" x2="93.75" y2="64.25"/>
<line x1="110.25" y1="63" x2="120" y2="63"/>
<line x1="0" y1="67" x2="30" y2="67"/>
<line x1="15" y1="65.75" x2="15" y2="68.25"/>
<line x1="31.5" y1="67" x2="61.5" y2="67"/>
<line x1="46.5" y1="65.75" x2="46.5" y2="68.25"/>
<line x1="63" y1="67" x2="93" y2="67"/>
<line x1="78" y1="65.75" x2="78" y2="68.25"/>
<line x1="94.5" y1="67" x2="120" y2="67"/>
<line x1="109.5" y1="65.75" x2="109.5" y2="68.25"/>
<polyline points="0,0 120,0 120,70 0,70 0,0"/>
</g>
</svg>