0
SECTION
2
HEADER
9
$ACADVER
1
AC1009
9
$INSUNITS
70
4
0
ENDSEC
0
SECTION
2
TABLES
0
TABLE
2
LAYER
70
1
0
LAYER
2
CUT
70
0
62
1
6
CONTINUOUS
0
ENDTAB
0
ENDSEC
0
SECTION
2
ENTITIES
0
LINE
8
CUT
10
0
20
58.6756
11
4.8644
21
58.6756
0
LINE
8
CUT
10
5.2394
20
59.3252
11
0.375
21
67.7505
0
POLYLINE
8
CUT
66
1
70
0
0
VERTEX
8
CUT
10
0.75
20
59.4756
0
VERTEX
8
CUT
10
4.2287
20
59.4756
0
VERTEX
8
CUT
10
2.4894
20
62.4883
0
SEQEND
0
POLYLINE
8
CUT
66
1
70
0
0
VERTEX
8
CUT
10
1.7394
20
63.7873
0
VERTEX
8
CUT
10
0
20
66.8
0
VERTEX
8
CUT
10
0
20
66.8
0
SEQEND
0
LINE
8
CUT
10
0
20
60.2756
11
2.0931
21
60.2756
0
LINE
8
CUT
10
2.4681
20
60.9252
11
0.375
21
64.5505
0
POLYLINE
8
CUT
66
1
70
0
0
VERTEX
8
CUT
10
0.75
20
61.0756
0
VERTEX
8
CUT
10
1.4574
20
61.0756
0
VERTEX
8
CUT
10
1.1037
20
61.6883
0
SEQEND
0
POLYLINE
8
CUT
66
1
70
0
0
VERTEX
8
CUT
10
0.3537
20
62.9873
0
VERTEX
8
CUT
10
0
20
63.6
0
VERTEX
8
CUT
10
0
20
63.6
0
SEQEND
0
LINE
8
CUT
10
2.1356
20
69.2
11
11.8644
21
69.2
0
LINE
8
CUT
10
12.2394
20
68.5505
11
7.375
21
60.1252
0
LINE
8
CUT
10
6.625
20
60.1252
11
1.7606
21
68.5505
0
POLYLINE
8
CUT
66
1
70
0
0
VERTEX
8
CUT
10
4.5106
20
65.3873
0
VERTEX
8
CUT
10
2.7713
20
68.4
0
VERTEX
8
CUT
10
6.25
20
68.4
0
SEQEND
0
POLYLINE
8
CUT
66
1
70
0
0
VERTEX
8
CUT
10
7.75
20
68.4
0
VERTEX
8
CUT
10
11.2287
20
68.4
0
VERTEX
8
CUT
10
9.4894
20
65.3873
0
SEQEND
0
POLYLINE
8
CUT
66
1
70
0
0
VERTEX
8
CUT
10
8.7394
20
64.0883
0
VERTEX
8
CUT
10
7
20
61.0756
0
VERTEX
8
CUT
10
5.2606
20
64.0883
0
SEQEND
0
LINE
8
CUT
10
4.9069
20
67.6
11
9.0931
21
67.6
0
LINE
8
CUT
10
9.4681
20
66.9505
11
7.375
21
63.3252
0
LINE
8
CUT
10
6.625
20
63.3252
11
4.5319
21
66.9505
0
POLYLINE
8
CUT
66
1
70
0
0
VERTEX
8
CUT
10
5.8963
20
66.1873
0
VERTEX
8
CUT
10
5.5426
20
66.8
0
VERTEX
8
CUT
10
6.25
20
66.8
0
SEQEND
0
POLYLINE
8
CUT
66
1
70
0
0
VERTEX
8
CUT
10
7.75
20
66.8
0
VERTEX
8
CUT
10
8.4574
20
66.8
0
VERTEX
8
CUT
10
8.1037
20
66.1873
0
SEQEND
0
POLYLINE
8
CUT
66
1
70
0
0
VERTEX
8
CUT
10
7.3537
20
64.8883
0
VERTEX
8
CUT
10
7
20
64.2756
0
VERTEX
8
CUT
10
6.6463
20
64.8883
0
SEQEND
0
LINE
8
CUT
10
9.1356
20
58.6756
11
18.8644
21
58.6756
0
LINE
8
CUT
10
19.2394
20
59.3252
11
14.375
21
67.7505
0
LINE
8
CUT
10
13.625
20
67.7505
11
8.7606
21
59.3252
0
POLYLINE
8
CUT
66
1
70
0
0
VERTEX
8
CUT
10
11.5106
20
62.4883
0
VERTEX
8
CUT
10
9.7713
20
59.4756
0
VERTEX
8
CUT
10
13.25
20
59.4756
0
SEQEND
0
POLYLINE
8
CUT
66
1
70
0
0
VERTEX
8
CUT
10
14.75
20
59.4756
0
VERTEX
8
CUT
10
18.2287
20
59.4756
0
VERTEX
8
CUT
10
16.4894
20
62.4883
0
SEQEND
0
POLYLINE
8
CUT
66
1
70
0
0
VERTEX
8
CUT
10
15.7394
20
63.7873
0
VERTEX
8
CUT
10
14
20
66.8
0
VERTEX
8
CUT
10
12.2606
20
63.7873
0
SEQEND
0
LINE
8
CUT
10
11.9069
20
60.2756
11
16.0931
21
60.2756
0
LINE
8
CUT
10
16.4681
20
60.9252
11
14.375
21
64.5505
0
LINE
8
CUT
10
13.625
20
64.5505
11
11.5319
21
60.9252
0
POLYLINE
8
CUT
66
1
70
0
0
VERTEX
8
CUT
10
12.8963
20
61.6883
0
VERTEX
8
CUT
10
12.5426
20
61.0756
0
VERTEX
8
CUT
10
13.25
20
61.0756
0
SEQEND
0
POLYLINE
8
CUT
66
1
70
0
0
VERTEX
8
CUT
10
14.75
20
61.0756
0
VERTEX
8
CUT
10
15.4574
20
61.0756
0
VERTEX
8
CUT
10
15.1037
20
61.6883
0
SEQEND
0
POLYLINE
8
CUT
66
1
70
0
0
VERTEX
8
CUT
10
14.3537
20
62.9873
0
VERTEX
8
CUT
10
14
20
63.6
0
VERTEX
8
CUT
10
13.6463
20
62.9873
0
SEQEND
0
LINE
8
CUT
10
16.1356
20
69.2
11
25.8644
21
69.2
0
LINE
8
CUT
10
26.2394
20
68.5505
11
21.375
21
60.1252
0
LINE
8
CUT
10
20.625
20
60.1252
11
15.7606
21
68.5505
0
POLYLINE
8
CUT
66
1
70
0
0
VERTEX
8
CUT
10
18.5106
20
65.3873
0
VERTEX
8
CUT
10
16.7713
20
68.4
0
VERTEX
8
CUT
10
20.25
20
68.4
0
SEQEND
0
POLYLINE
8
CUT
66
1
70
0
0
VERTEX
8
CUT
10
21.75
20
68.4
0
VERTEX
8
CUT
10
25.2287
20
68.4
0
VERTEX
8
CUT
10
23.4894
20
65.3873
0
SEQEND
0
POLYLINE
8
CUT
66
1
70
0
0
VERTEX
8
CUT
10
22.7394
20
64.0883
0
VERTEX
8
CUT
10
21
20
61.0756
0
VERTEX
8
CUT
10
19.2606
20
64.0883
0
SEQEND
0
LINE
8
CUT
10
18.9069
20
67.6
11
23.0931
21
67.6
0
LINE
8
CUT
10
23.4681
20
66.9505
11
21.375
21
63.3252
0
LINE
8
CUT
10
20.625
20
63.3252
11
18.5319
21
66.9505
0
POLYLINE
8
CUT
66
1
70
0
0
VERTEX
8
CUT
10
19.8963
20
66.1873
0
VERTEX
8
CUT
10
19.5426
20
66.8
0
VERTEX
8
CUT
10
20.25
20
66.8
0
SEQEND
0
POLYLINE
8
CUT
66
1
70
0
0
VERTEX
8
CUT
10
21.75
20
66.8
0
VERTEX
8
CUT
10
22.4574
20
66.8
0
VERTEX
8
CUT
10
22.1037
20
66.1873
0
SEQEND
0
POLYLINE
8
CUT
66
1
70
0
0
VERTEX
8
CUT
10
21.3537
20
64.8883
0
VERTEX
8
CUT
10
21
20
64.2756
0
VERTEX
8
CUT
10
20.6463
20
64.8883
0
SEQEND
0
LINE
8
CUT
10
23.1356
20
58.6756
11
32.8644
21
58.6756
0
LINE
8
CUT
10
33.2394
20
59.3252
11
28.375
21
67.7505
0
LINE
8
CUT
10
27.625
20
67.7505
11
22.7606
21
59.3252
0
POLYLINE
8
CUT
66
1
70
0
0
VERTEX
8
CUT
10
25.5106
20
62.4883
0
VERTEX
8
CUT
10
23.7713
20
59.4756
0
VERTEX
8
CUT
10
27.25
20
59.4756
0
SEQEND
0
POLYLINE
8
CUT
66
1
70
0
0
VERTEX
8
CUT
10
28.75
20
59.4756
0
VERTEX
8
CUT
10
32.2287
20
59.4756
0
VERTEX
8
CUT
10
30.4894
20
62.4883
0
SEQEND
0
POLYLINE
8
CUT
66
1
70
0
0
VERTEX
8
CUT
10
29.7394
20
63.7873
0
VERTEX
8
CUT
10
28
20
66.8
0
VERTEX
8
CUT
10
26.2606
20
63.7873
0
SEQEND
0
LINE
8
CUT
10
25.9069
20
60.2756
11
30.0931
21
60.2756
0
LINE
8
CUT
10
30.4681
20
60.9252
11
28.375
21
64.5505
0
LINE
8
CUT
10
27.625
20
64.5505
11
25.5319
21
60.9252
0
POLYLINE
8
CUT
66
1
70
0
0
VERTEX
8
CUT
10
26.8963
20
61.6883
0
VERTEX
8
CUT
10
26.5426
20
61.0756
0
VERTEX
8
CUT
10
27.25
20
61.0756
0
SEQEND
0
POLYLINE
8
CUT
66
1
70
0
0
VERTEX
8
CUT
10
28.75
20
61.0756
0
VERTEX
8
CUT
10
29.4574
20
61.0756
0
VERTEX
8
CUT
10
29.1037
20
61.6883
0
SEQEND
0
POLYLINE
8
CUT
66
1
70
0
0
VERTEX
8
CUT
10
28.3537
20
62.9873
0
VERTEX
8
CUT
10
28
20
63.6
0
VERTEX
8
CUT
10
27.6463
20
62.9873
0
SEQEND
0
LINE
8
CUT
10
30.1356
20
69.2
11
39.8644
21
69.2
0
LINE
8
CUT
10
40.2394
20
68.5505
11
35.375
21
60.1252
0
LINE
8
CUT
10
34.625
20
60.1252
11
29.7606
21
68.5505
0
POLYLINE
8
CUT
66
1
70
0
0
VERTEX
8
CUT
10
32.5106
20
65.3873
0
VERTEX
8
CUT
10
30.7713
20
68.4
0
VERTEX
8
CUT
10
34.25
20
68.4
0
SEQEND
0
POLYLINE
8
CUT
66
1
70
0
0
VERTEX
8
CUT
10
35.75
20
68.4
0
VERTEX
8
CUT
10
39.2287
20
68.4
0
VERTEX
8
CUT
10
37.4894
20
65.3873
0
SEQEND
0
POLYLINE
8
CUT
66
1
70
0
0
VERTEX
8
CUT
10
36.7394
20
64.0883
0
VERTEX
8
CUT
10
35
20
61.0756
0
VERTEX
8
CUT
10
33.2606
20
64.0883
0
SEQEND
0
LINE
8
CUT
10
32.9069
20
67.6
11
37.0931
21
67.6
0
LINE
8
CUT
10
37.4681
20
66.9505
11
35.375
21
63.3252
0
LINE
8
CUT
10
34.625
20
63.3252
11
32.5319
21
66.9505
0
POLYLINE
8
CUT
66
1
70
0
0
VERTEX
8
CUT
10
33.8963
20
66.1873
0
VERTEX
8
CUT
10
33.5426
20
66.8
0
VERTEX
8
CUT
10
34.25
20
66.8
0
SEQEND
0
POLYLINE
8
CUT
66
1
70
0
0
VERTEX
8
CUT
10
35.75
20
66.8
0
VERTEX
8
CUT
10
36.4574
20
66.8
0
VERTEX
8
CUT
10
36.1037
20
66.1873
0
SEQEND
0
POLYLINE
8
CUT
66
1
70
0
0
VERTEX
8
CUT
10
35.3537
20
64.8883
0
VERTEX
8
CUT
10
35
20
64.2756
0
VERTEX
8
CUT
10
34.6463
20
64.8883
0
SEQEND
0
LINE
8
CUT
10
37.1356
20
58.6756
11
46.8644
21
58.6756
0
LINE
8
CUT
10
47.2394
20
59.3252
11
42.375
21
67.7505
0
LINE
8
CUT
10
41.625
20
67.7505
11
36.7606
21
59.3252
0
POLYLINE
8
CUT
66
1
70
0
0
VERTEX
8
CUT
10
39.5106
20
62.4883
0
VERTEX
8
CUT
10
37.7713
20
59.4756
0
VERTEX
8
CUT
10
41.25
20
59.4756
0
SEQEND
0
POLYLINE
8
CUT
66
1
70
0
0
VERTEX
8
CUT
10
42.75
20
59.4756
0
VERTEX
8
CUT
10
46.2287
20
59.4756
0
VERTEX
8
CUT
10
44.4894
20
62.4883
0
SEQEND
0
POLYLINE
8
CUT
66
1
70
0
0
VERTEX
8
CUT
10
43.7394
20
63.7873
0
VERTEX
8
CUT
10
42
20
66.8
0
VERTEX
8
CUT
10
40.2606
20
63.7873
0
SEQEND
0
LINE
8
CUT
10
39.9069
20
60.2756
11
44.0931
21
60.2756
0
LINE
8
CUT
10
44.4681
20
60.9252
11
42.375
21
64.5505
0
LINE
8
CUT
10
41.625
20
64.5505
11
39.5319
21
60.9252
0
POLYLINE
8
CUT
66
1
70
0
0
VERTEX
8
CUT
10
40.8963
20
61.6883
0
VERTEX
8
CUT
10
40.5426
20
61.0756
0
VERTEX
8
CUT
10
41.25
20
61.0756
0
SEQEND
0
POLYLINE
8
CUT
66
1
70
0
0
VERTEX
8
CUT
10
42.75
20
61.0756
0
VERTEX
8
CUT
10
43.4574
20
61.0756
0
VERTEX
8
CUT
10
43.1037
20
61.6883
0
SEQEND
0
POLYLINE
8
CUT
66
1
70
0
0
VERTEX
8
CUT
10
42.3537
20
62.9873
0
VERTEX
8
CUT
10
42
20
63.6
0
VERTEX
8
CUT
10
41.6463
20
62.9873
0
SEQEND
0
LINE
8
CUT
10
44.1356
20
69.2
11
53.8644
21
69.2
0
LINE
8
CUT
10
54.2394
20
68.5505
11
49.375
21
60.1252
0
LINE
8
CUT
10
48.625
20
60.1252
11
43.7606
21
68.5505
0
POLYLINE
8
CUT
66
1
70
0
0
VERTEX
8
CUT
10
46.5106
20
65.3873
0
VERTEX
8
CUT
10
44.7713
20
68.4
0
VERTEX
8
CUT
10
48.25
20
68.4
0
SEQEND
0
POLYLINE
8
CUT
66
1
70
0
0
VERTEX
8
CUT
10
49.75
20
68.4
0
VERTEX
8
CUT
10
53.2287
20
68.4
0
VERTEX
8
CUT
10
51.4894
20
65.3873
0
SEQEND
0
POLYLINE
8
CUT
66
1
70
0
0
VERTEX
8
CUT
10
50.7394
20
64.0883
0
VERTEX
8
CUT
10
49
20
61.0756
0
VERTEX
8
CUT
10
47.2606
20
64.0883
0
SEQEND
0
LINE
8
CUT
10
46.9069
20
67.6
11
51.0931
21
67.6
0
LINE
8
CUT
10
51.4681
20
66.9505
11
49.375
21
63.3252
0
LINE
8
CUT
10
48.625
20
63.3252
11
46.5319
21
66.9505
0
POLYLINE
8
CUT
66
1
70
0
0
VERTEX
8
CUT
10
47.8963
20
66.1873
0
VERTEX
8
CUT
10
47.5426
20
66.8
0
VERTEX
8
CUT
10
48.25
20
66.8
0
SEQEND
0
POLYLINE
8
CUT
66
1
70
0
0
VERTEX
8
CUT
10
49.75
20
66.8
0
VERTEX
8
CUT
10
50.4574
20
66.8
0
VERTEX
8
CUT
10
50.1037
20
66.1873
0
SEQEND
0
POLYLINE
8
CUT
66
1
70
0
0
VERTEX
8
CUT
10
49.3537
20
64.8883
0
VERTEX
8
CUT
10
49
20
64.2756
0
VERTEX
8
CUT
10
48.6463
20
64.8883
0
SEQEND
0
LINE
8
CUT
10
51.1356
20
58.6756
11
60.8644
21
58.6756
0
LINE
8
CUT
10
61.2394
20
59.3252
11
56.375
21
67.7505
0
LINE
8
CUT
10
55.625
20
67.7505
11
50.7606
21
59.3252
0
POLYLINE
8
CUT
66
1
70
0
0
VERTEX
8
CUT
10
53.5106
20
62.4883
0
VERTEX
8
CUT
10
51.7713
20
59.4756
0
VERTEX
8
CUT
10
55.25
20
59.4756
0
SEQEND
0
POLYLINE
8
CUT
66
1
70
0
0
VERTEX
8
CUT
10
56.75
20
59.4756
0
VERTEX
8
CUT
10
60.2287
20
59.4756
0
VERTEX
8
CUT
10
58.4894
20
62.4883
0
SEQEND
0
POLYLINE
8
CUT
66
1
70
0
0
VERTEX
8
CUT
10
57.7394
20
63.7873
0
VERTEX
8
CUT
10
56
20
66.8
0
VERTEX
8
CUT
10
54.2606
20
63.7873
0
SEQEND
0
LINE
8
CUT
10
53.9069
20
60.2756
11
58.0931
21
60.2756
0
LINE
8
CUT
10
58.4681
20
60.9252
11
56.375
21
64.5505
0
LINE
8
CUT
10
55.625
20
64.5505
11
53.5319
21
60.9252
0
POLYLINE
8
CUT
66
1
70
0
0
VERTEX
8
CUT
10
54.8963
20
61.6883
0
VERTEX
8
CUT
10
54.5426
20
61.0756
0
VERTEX
8
CUT
10
55.25
20
61.0756
0
SEQEND
0
POLYLINE
8
CUT
66
1
70
0
0
VERTEX
8
CUT
10
56.75
20
61.0756
0
VERTEX
8
CUT
10
57.4574
20
61.0756
0
VERTEX
8
CUT
10
57.1037
20
61.6883
0
SEQEND
0
POLYLINE
8
CUT
66
1
70
0
0
VERTEX
8
CUT
10
56.3537
20
62.9873
0
VERTEX
8
CUT
10
56
20
63.6
0
VERTEX
8
CUT
10
55.6463
20
62.9873
0
SEQEND
0
LINE
8
CUT
10
58.1356
20
69.2
11
67.8644
21
69.2
0
LINE
8
CUT
10
68.2394
20
68.5505
11
63.375
21
60.1252
0
LINE
8
CUT
10
62.625
20
60.1252
11
57.7606
21
68.5505
0
POLYLINE
8
CUT
66
1
70
0
0
VERTEX
8
CUT
10
60.5106
20
65.3873
0
VERTEX
8
CUT
10
58.7713
20
68.4
0
VERTEX
8
CUT
10
62.25
20
68.4
0
SEQEND
0
POLYLINE
8
CUT
66
1
70
0
0
VERTEX
8
CUT
10
63.75
20
68.4
0
VERTEX
8
CUT
10
67.2287
20
68.4
0
VERTEX
8
CUT
10
65.4894
20
65.3873
0
SEQEND
0
POLYLINE
8
CUT
66
1
70
0
0
VERTEX
8
CUT
10
64.7394
20
64.0883
0
VERTEX
8
CUT
10
63
20
61.0756
0
VERTEX
8
CUT
10
61.2606
20
64.0883
0
SEQEND
0
LINE
8
CUT
10
60.9069
20
67.6
11
65.0931
21
67.6
0
LINE
8
CUT
10
65.4681
20
66.9505
11
63.375
21
63.3252
0
LINE
8
CUT
10
62.625
20
63.3252
11
60.5319
21
66.9505
0
POLYLINE
8
CUT
66
1
70
0
0
VERTEX
8
CUT
10
61.8963
20
66.1873
0
VERTEX
8
CUT
10
61.5426
20
66.8
0
VERTEX
8
CUT
10
62.25
20
66.8
0
SEQEND
0
POLYLINE
8
CUT
66
1
70
0
0
VERTEX
8
CUT
10
63.75
20
66.8
0
VERTEX
8
CUT
10
64.4574
20
66.8
0
VERTEX
8
CUT
10
64.1037
20
66.1873
0
SEQEND
0
POLYLINE
8
CUT
66
1
70
0
0
VERTEX
8
CUT
10
63.3537
20
64.8883
0
VERTEX
8
CUT
10
63
20
64.2756
0
VERTEX
8
CUT
10
62.6463
20
64.8883
0
SEQEND
0
LINE
8
CUT
10
65.1356
20
58.6756
11
74.8644
21
58.6756
0
LINE
8
CUT
10
75.2394
20
59.3252
11
70.375
21
67.7505
0
LINE
8
CUT
10
69.625
20
67.7505
11
64.7606
21
59.3252
0
POLYLINE
8
CUT
66
1
70
0
0
VERTEX
8
CUT
10
67.5106
20
62.4883
0
VERTEX
8
CUT
10
65.7713
20
59.4756
0
VERTEX
8
CUT
10
69.25
20
59.4756
0
SEQEND
0
POLYLINE
8
CUT
66
1
70
0
0
VERTEX
8
CUT
10
70.75
20
59.4756
0
VERTEX
8
CUT
10
74.2287
20
59.4756
0
VERTEX
8
CUT
10
72.4894
20
62.4883
0
SEQEND
0
POLYLINE
8
CUT
66
1
70
0
0
VERTEX
8
CUT
10
71.7394
20
63.7873
0
VERTEX
8
CUT
10
70
20
66.8
0
VERTEX
8
CUT
10
68.2606
20
63.7873
0
SEQEND
0
LINE
8
CUT
10
67.9069
20
60.2756
11
72.0931
21
60.2756
0
LINE
8
CUT
10
72.4681
20
60.9252
11
70.375
21
64.5505
0
LINE
8
CUT
10
69.625
20
64.5505
11
67.5319
21
60.9252
0
POLYLINE
8
CUT
66
1
70
0
0
VERTEX
8
CUT
10
68.8963
20
61.6883
0
VERTEX
8
CUT
10
68.5426
20
61.0756
0
VERTEX
8
CUT
10
69.25
20
61.0756
0
SEQEND
0
POLYLINE
8
CUT
66
1
70
0
0
VERTEX
8
CUT
10
70.75
20
61.0756
0
VERTEX
8
CUT
10
71.4574
20
61.0756
0
VERTEX
8
CUT
10
71.1037
20
61.6883
0
SEQEND
0
POLYLINE
8
CUT
66
1
70
0
0
VERTEX
8
CUT
10
70.3537
20
62.9873
0
VERTEX
8
CUT
10
70
20
63.6
0
VERTEX
8
CUT
10
69.6463
20
62.9873
0
SEQEND
0
LINE
8
CUT
10
72.1356
20
69.2
11
81.8644
21
69.2
0
LINE
8
CUT
10
82.2394
20
68.5505
11
77.375
21
60.1252
0
LINE
8
CUT
10
76.625
20
60.1252
11
71.7606
21
68.5505
0
POLYLINE
8
CUT
66
1
70
0
0
VERTEX
8
CUT
10
74.5106
20
65.3873
0
VERTEX
8
CUT
10
72.7713
20
68.4
0
VERTEX
8
CUT
10
76.25
20
68.4
0
SEQEND
0
POLYLINE
8
CUT
66
1
70
0
0
VERTEX
8
CUT
10
77.75
20
68.4
0
VERTEX
8
CUT
10
81.2287
20
68.4
0
VERTEX
8
CUT
10
79.4894
20
65.3873
0
SEQEND
0
POLYLINE
8
CUT
66
1
70
0
0
VERTEX
8
CUT
10
78.7394
20
64.0883
0
VERTEX
8
CUT
10
77
20
61.0756
0
VERTEX
8
CUT
10
75.2606
20
64.0883
0
SEQEND
0
LINE
8
CUT
10
74.9069
20
67.6
11
79.0931
21
67.6
0
LINE
8
CUT
10
79.4681
20
66.9505
11
77.375
21
63.3252
0
LINE
8
CUT
10
76.625
20
63.3252
11
74.5319
21
66.9505
0
POLYLINE
8
CUT
66
1
70
0
0
VERTEX
8
CUT
10
75.8963
20
66.1873
0
VERTEX
8
CUT
10
75.5426
20
66.8
0
VERTEX
8
CUT
10
76.25
20
66.8
0
SEQEND
0
POLYLINE
8
CUT
66
1
70
0
0
VERTEX
8
CUT
10
77.75
20
66.8
0
VERTEX
8
CUT
10
78.4574
20
66.8
0
VERTEX
8
CUT
10
78.1037
20
66.1873
0
SEQEND
0
POLYLINE
8
CUT
66
1
70
0
0
VERTEX
8
CUT
10
77.3537
20
64.8883
0
VERTEX
8
CUT
10
77
20
64.2756
0
VERTEX
8
CUT
10
76.6463
20
64.8883
0
SEQEND
0
LINE
8
CUT
10
79.1356
20
58.6756
11
88.8644
21
58.6756
0
LINE
8
CUT
10
89.2394
20
59.3252
11
84.375
21
67.7505
0
LINE
8
CUT
10
83.625
20
67.7505
11
78.7606
21
59.3252
0
POLYLINE
8
CUT
66
1
70
0
0
VERTEX
8
CUT
10
81.5106
20
62.4883
0
VERTEX
8
CUT
10
79.7713
20
59.4756
0
VERTEX
8
CUT
10
83.25
20
59.4756
0
SEQEND
0
POLYLINE
8
CUT
66
1
70
0
0
VERTEX
8
CUT
10
84.75
20
59.4756
0
VERTEX
8
CUT
10
88.2287
20
59.4756
0
VERTEX
8
CUT
10
86.4894
20
62.4883
0
SEQEND
0
POLYLINE
8
CUT
66
1
70
0
0
VERTEX
8
CUT
10
85.7394
20
63.7873
0
VERTEX
8
CUT
10
84
20
66.8
0
VERTEX
8
CUT
10
82.2606
20
63.7873
0
SEQEND
0
LINE
8
CUT
10
81.9069
20
60.2756
11
86.0931
21
60.2756
0
LINE
8
CUT
10
86.4681
20
60.9252
11
84.375
21
64.5505
0
LINE
8
CUT
10
83.625
20
64.5505
11
81.5319
21
60.9252
0
POLYLINE
8
CUT
66
1
70
0
0
VERTEX
8
CUT
10
82.8963
20
61.6883
0
VERTEX
8
CUT
10
82.5426
20
61.0756
0
VERTEX
8
CUT
10
83.25
20
61.0756
0
SEQEND
0
POLYLINE
8
CUT
66
1
70
0
0
VERTEX
8
CUT
10
84.75
20
61.0756
0
VERTEX
8
CUT
10
85.4574
20
61.0756
0
VERTEX
8
CUT
10
85.1037
20
61.6883
0
SEQEND
0
POLYLINE
8
CUT
66
1
70
0
0
VERTEX
8
CUT
10
84.3537
20
62.9873
0
VERTEX
8
CUT
10
84
20
63.6
0
VERTEX
8
CUT
10
83.6463
20
62.9873
0
SEQEND
0
LINE
8
CUT
10
86.1356
20
69.2
11
95.8644
21
69.2
0
LINE
8
CUT
10
96.2394
20
68.5505
11
91.375
21
60.1252
0
LINE
8
CUT
10
90.625
20
60.1252
11
85.7606
21
68.5505
0
POLYLINE
8
CUT
66
1
70
0
0
VERTEX
8
CUT
10
88.5106
20
65.3873
0
VERTEX
8
CUT
10
86.7713
20
68.4
0
VERTEX
8
CUT
10
90.25
20
68.4
0
SEQEND
0
POLYLINE
8
CUT
66
1
70
0
0
VERTEX
8
CUT
10
91.75
20
68.4
0
VERTEX
8
CUT
10
95.2287
20
68.4
0
VERTEX
8
CUT
10
93.4894
20
65.3873
0
SEQEND
0
POLYLINE
8
CUT
66
1
70
0
0
VERTEX
8
CUT
10
92.7394
20
64.0883
0
VERTEX
8
CUT
10
91
20
61.0756
0
VERTEX
8
CUT
10
89.2606
20
64.0883
0
SEQEND
0
LINE
8
CUT
10
88.9069
20
67.6
11
93.0931
21
67.6
0
LINE
8
CUT
10
93.4681
20
66.9505
11
91.375
21
63.3252
0
LINE
8
CUT
10
90.625
20
63.3252
11
88.5319
21
66.9505
0
POLYLINE
8
CUT
66
1
70
0
0
VERTEX
8
CUT
10
89.8963
20
66.1873
0
VERTEX
8
CUT
10
89.5426
20
66.8
0
VERTEX
8
CUT
10
90.25
20
66.8
0
SEQEND
0
POLYLINE
8
CUT
66
1
70
0
0
VERTEX
8
CUT
10
91.75
20
66.8
0
VERTEX
8
CUT
10
92.4574
20
66.8
0
VERTEX
8
CUT
10
92.1037
20
66.1873
0
SEQEND
0
POLYLINE
8
CUT
66
1
70
0
0
VERTEX
8
CUT
10
91.3537
20
64.8883
0
VERTEX
8
CUT
10
91
20
64.2756
0
VERTEX
8
CUT
10
90.6463
20
64.8883
0
SEQEND
0
LINE
8
CUT
10
93.1356
20
58.6756
11
102.8644
21
58.6756
0
LINE
8
CUT
10
103.2394
20
59.3252
11
98.375
21
67.7505
0
LINE
8
CUT
10
97.625
20
67.7505
11
92.7606
21
59.3252
0
POLYLINE
8
CUT
66
1
70
0
0
VERTEX
8
CUT
10
95.5106
20
62.4883
0
VERTEX
8
CUT
10
93.7713
20
59.4756
0
VERTEX
8
CUT
10
97.25
20
59.4756
0
SEQEND
0
POLYLINE
8
CUT
66
1
70
0
0
VERTEX
8
CUT
10
98.75
20
59.4756
0
VERTEX
8
CUT
10
102.2287
20
59.4756
0
VERTEX
8
CUT
10
100.4894
20
62.4883
0
SEQEND
0
POLYLINE
8
CUT
66
1
70
0
0
VERTEX
8
CUT
10
99.7394
20
63.7873
0
VERTEX
8
CUT
10
98
20
66.8
0
VERTEX
8
CUT
10
96.2606
20
63.7873
0
SEQEND
0
LINE
8
CUT
10
95.9069
20
60.2756
11
100.0931
21
60.2756
0
LINE
8
CUT
10
100.4681
20
60.9252
11
98.375
21
64.5505
0
LINE
8
CUT
10
97.625
20
64.5505
11
95.5319
21
60.9252
0
POLYLINE
8
CUT
66
1
70
0
0
VERTEX
8
CUT
10
96.8963
20
61.6883
0
VERTEX
8
CUT
10
96.5426
20
61.0756
0
VERTEX
8
CUT
10
97.25
20
61.0756
0
SEQEND
0
POLYLINE
8
CUT
66
1
70
0
0
VERTEX
8
CUT
10
98.75
20
61.0756
0
VERTEX
8
CUT
10
99.4574
20
61.0756
0
VERTEX
8
CUT
10
99.1037
20
61.6883
0
SEQEND
0
POLYLINE
8
CUT
66
1
70
0
0
VERTEX
8
CUT
10
98.3537
20
62.9873
0
VERTEX
8
CUT
10
98
20
63.6
0
VERTEX
8
CUT
10
97.6463
20
62.9873
0
SEQEND
0
LINE
8
CUT
10
100.1356
20
69.2
11
109.8644
21
69.2
0
LINE
8
CUT
10
110.2394
20
68.5505
11
105.375
21
60.1252
0
LINE
8
CUT
10
104.625
20
60.1252
11
99.7606
21
68.5505
0
POLYLINE
8
CUT
66
1
70
0
0
VERTEX
8
CUT
10
102.5106
20
65.3873
0
VERTEX
8
CUT
10
100.7713
20
68.4
0
VERTEX
8
CUT
10
104.25
20
68.4
0
SEQEND
0
POLYLINE
8
CUT
66
1
70
0
0
VERTEX
8
CUT
10
105.75
20
68.4
0
VERTEX
8
CUT
10
109.2287
20
68.4
0
VERTEX
8
CUT
10
107.4894
20
65.3873
0
SEQEND
0
POLYLINE
8
CUT
66
1
70
0
0
VERTEX
8
CUT
10
106.7394
20
64.0883
0
VERTEX
8
CUT
10
105
20
61.0756
0
VERTEX
8
CUT
10
103.2606
20
64.0883
0
SEQEND
0
LINE
8
CUT
10
102.9069
20
67.6
11
107.0931
21
67.6
0
LINE
8
CUT
10
107.4681
20
66.9505
11
105.375
21
63.3252
0
LINE
8
CUT
10
104.625
20
63.3252
11
102.5319
21
66.9505
0
POLYLINE
8
CUT
66
1
70
0
0
VERTEX
8
CUT
10
103.8963
20
66.1873
0
VERTEX
8
CUT
10
103.5426
20
66.8
0
VERTEX
8
CUT
10
104.25
20
66.8
0
SEQEND
0
POLYLINE
8
CUT
66
1
70
0
0
VERTEX
8
CUT
10
105.75
20
66.8
0
VERTEX
8
CUT
10
106.4574
20
66.8
0
VERTEX
8
CUT
10
106.1037
20
66.1873
0
SEQEND
0
POLYLINE
8
CUT
66
1
70
0
0
VERTEX
8
CUT
10
105.3537
20
64.8883
0
VERTEX
8
CUT
10
105
20
64.2756
0
VERTEX
8
CUT
10
104.6463
20
64.8883
0
SEQEND
0
LINE
8
CUT
10
107.1356
20
58.6756
11
116.8644
21
58.6756
0
LINE
8
CUT
10
117.2394
20
59.3252
11
112.375
21
67.7505
0
LINE
8
CUT
10
111.625
20
67.7505
11
106.7606
21
59.3252
0
POLYLINE
8
CUT
66
1
70
0
0
VERTEX
8
CUT
10
109.5106
20
62.4883
0
VERTEX
8
CUT
10
107.7713
20
59.4756
0
VERTEX
8
CUT
10
111.25
20
59.4756
0
SEQEND
0
POLYLINE
8
CUT
66
1
70
0
0
VERTEX
8
CUT
10
112.75
20
59.4756
0
VERTEX
8
CUT
10
116.2287
20
59.4756
0
VERTEX
8
CUT
10
114.4894
20
62.4883
0
SEQEND
0
POLYLINE
8
CUT
66
1
70
0
0
VERTEX
8
CUT
10
113.7394
20
63.7873
0
VERTEX
8
CUT
10
112
20
66.8
0
VERTEX
8
CUT
10
110.2606
20
63.7873
0
SEQEND
0
LINE
8
CUT
10
109.9069
20
60.2756
11
114.0931
21
60.2756
0
LINE
8
CUT
10
114.4681
20
60.9252
11
112.375
21
64.5505
0
LINE
8
CUT
10
111.625
20
64.5505
11
109.5319
21
60.9252
0
POLYLINE
8
CUT
66
1
70
0
0
VERTEX
8
CUT
10
110.8963
20
61.6883
0
VERTEX
8
CUT
10
110.5426
20
61.0756
0
VERTEX
8
CUT
10
111.25
20
61.0756
0
SEQEND
0
POLYLINE
8
CUT
66
1
70
0
0
VERTEX
8
CUT
10
112.75
20
61.0756
0
VERTEX
8
CUT
10
113.4574
20
61.0756
0
VERTEX
8
CUT
10
113.1037
20
61.6883
0
SEQEND
0
POLYLINE
8
CUT
66
1
70
0
0
VERTEX
8
CUT
10
112.3537
20
62.9873
0
VERTEX
8
CUT
10
112
20
63.6
0
VERTEX
8
CUT
10
111.6463
20
62.9873
0
SEQEND
0
LINE
8
CUT
10
114.1356
20
69.2
11
120
21
69.2
0
LINE
8
CUT
10
120
20
61.2077
11
119.375
21
60.1252
0
LINE
8
CUT
10
118.625
20
60.1252
11
113.7606
21
68.5505
0
POLYLINE
8
CUT
66
1
70
0
0
VERTEX
8
CUT
10
116.5106
20
65.3873
0
VERTEX
8
CUT
10
114.7713
20
68.4
0
VERTEX
8
CUT
10
118.25
20
68.4
0
SEQEND
0
POLYLINE
8
CUT
66
1
70
0
0
VERTEX
8
CUT
10
120
20
62.8077
0
VERTEX
8
CUT
10
119
20
61.0756
0
VERTEX
8
CUT
10
117.2606
20
64.0883
0
SEQEND
0
LINE
8
CUT
10
116.9069
20
67.6
11
120
21
67.6
0
LINE
8
CUT
10
120
20
64.4077
11
119.375
21
63.3252
0
LINE
8
CUT
10
118.625
20
63.3252
11
116.5319
21
66.9505
0
POLYLINE
8
CUT
66
1
70
0
0
VERTEX
8
CUT
10
117.8963
20
66.1873
0
VERTEX
8
CUT
10
117.5426
20
66.8
0
VERTEX
8
CUT
10
118.25
20
66.8
0
SEQEND
0
POLYLINE
8
CUT
66
1
70
0
0
VERTEX
8
CUT
10
119.3537
20
64.8883
0
VERTEX
8
CUT
10
119
20
64.2756
0
VERTEX
8
CUT
10
118.6463
20
64.8883
0
SEQEND
0
LINE
8
CUT
10
0
20
57.0756
11
4.8644
21
57.0756
0
LINE
8
CUT
10
5.2394
20
56.4261
11
0.375
21
48.0008
0
POLYLINE
8
CUT
66
1
70
0
0
VERTEX
8
CUT
10
0.75
20
56.2756
0
VERTEX
8
CUT
10
4.2287
20
56.2756
0
VERTEX
8
CUT
10
2.4894
20
53.263
0
SEQEND
0
POLYLINE
8
CUT
66
1
70
0
0
VERTEX
8
CUT
10
1.7394
20
51.9639
0
VERTEX
8
CUT
10
0
20
48.9513
0
VERTEX
8
CUT
10
0
20
48.9513
0
SEQEND
0
LINE
8
CUT
10
0
20
55.4756
11
2.0931
21
55.4756
0
LINE
8
CUT
10
2.4681
20
54.8261
11
0.375
21
51.2008
0
POLYLINE
8
CUT
66
1
70
0
0
VERTEX
8
CUT
10
0.75
20
54.6756
0
VERTEX
8
CUT
10
1.4574
20
54.6756
0
VERTEX
8
CUT
10
1.1037
20
54.063
0
SEQEND
0
POLYLINE
8
CUT
66
1
70
0
0
VERTEX
8
CUT
10
0.3537
20
52.7639
0
VERTEX
8
CUT
10
0
20
52.1513
0
VERTEX
8
CUT
10
0
20
52.1513
0
SEQEND
0
LINE
8
CUT
10
2.1356
20
46.5513
11
11.8644
21
46.5513
0
LINE
8
CUT
10
12.2394
20
47.2008
11
7.375
21
55.6261
0
LINE
8
CUT
10
6.625
20
55.6261
11
1.7606
21
47.2008
0
POLYLINE
8
CUT
66
1
70
0
0
VERTEX
8
CUT
10
4.5106
20
50.3639
0
VERTEX
8
CUT
10
2.7713
20
47.3513
0
VERTEX
8
CUT
10
6.25
20
47.3513
0
SEQEND
0
POLYLINE
8
CUT
66
1
70
0
0
VERTEX
8
CUT
10
7.75
20
47.3513
0
VERTEX
8
CUT
10
11.2287
20
47.3513
0
VERTEX
8
CUT
10
9.4894
20
50.3639
0
SEQEND
0
POLYLINE
8
CUT
66
1
70
0
0
VERTEX
8
CUT
10
8.7394
20
51.663
0
VERTEX
8
CUT
10
7
20
54.6756
0
VERTEX
8
CUT
10
5.2606
20
51.663
0
SEQEND
0
LINE
8
CUT
10
4.9069
20
48.1513
11
9.0931
21
48.1513
0
LINE
8
CUT
10
9.4681
20
48.8008
11
7.375
21
52.4261
0
LINE
8
CUT
10
6.625
20
52.4261
11
4.5319
21
48.8008
0
POLYLINE
8
CUT
66
1
70
0
0
VERTEX
8
CUT
10
5.8963
20
49.5639
0
VERTEX
8
CUT
10
5.5426
20
48.9513
0
VERTEX
8
CUT
10
6.25
20
48.9513
0
SEQEND
0
POLYLINE
8
CUT
66
1
70
0
0
VERTEX
8
CUT
10
7.75
20
48.9513
0
VERTEX
8
CUT
10
8.4574
20
48.9513
0
VERTEX
8
CUT
10
8.1037
20
49.5639
0
SEQEND
0
POLYLINE
8
CUT
66
1
70
0
0
VERTEX
8
CUT
10
7.3537
20
50.863
0
VERTEX
8
CUT
10
7
20
51.4756
0
VERTEX
8
CUT
10
6.6463
20
50.863
0
SEQEND
0
LINE
8
CUT
10
9.1356
20
57.0756
11
18.8644
21
57.0756
0
LINE
8
CUT
10
19.2394
20
56.4261
11
14.375
21
48.0008
0
LINE
8
CUT
10
13.625
20
48.0008
11
8.7606
21
56.4261
0
POLYLINE
8
CUT
66
1
70
0
0
VERTEX
8
CUT
10
11.5106
20
53.263
0
VERTEX
8
CUT
10
9.7713
20
56.2756
0
VERTEX
8
CUT
10
13.25
20
56.2756
0
SEQEND
0
POLYLINE
8
CUT
66
1
70
0
0
VERTEX
8
CUT
10
14.75
20
56.2756
0
VERTEX
8
CUT
10
18.2287
20
56.2756
0
VERTEX
8
CUT
10
16.4894
20
53.263
0
SEQEND
0
POLYLINE
8
CUT
66
1
70
0
0
VERTEX
8
CUT
10
15.7394
20
51.9639
0
VERTEX
8
CUT
10
14
20
48.9513
0
VERTEX
8
CUT
10
12.2606
20
51.9639
0
SEQEND
0
LINE
8
CUT
10
11.9069
20
55.4756
11
16.0931
21
55.4756
0
LINE
8
CUT
10
16.4681
20
54.8261
11
14.375
21
51.2008
0
LINE
8
CUT
10
13.625
20
51.2008
11
11.5319
21
54.8261
0
POLYLINE
8
CUT
66
1
70
0
0
VERTEX
8
CUT
10
12.8963
20
54.063
0
VERTEX
8
CUT
10
12.5426
20
54.6756
0
VERTEX
8
CUT
10
13.25
20
54.6756
0
SEQEND
0
POLYLINE
8
CUT
66
1
70
0
0
VERTEX
8
CUT
10
14.75
20
54.6756
0
VERTEX
8
CUT
10
15.4574
20
54.6756
0
VERTEX
8
CUT
10
15.1037
20
54.063
0
SEQEND
0
POLYLINE
8
CUT
66
1
70
0
0
VERTEX
8
CUT
10
14.3537
20
52.7639
0
VERTEX
8
CUT
10
14
20
52.1513
0
VERTEX
8
CUT
10
13.6463
20
52.7639
0
SEQEND
0
LINE
8
CUT
10
16.1356
20
46.5513
11
25.8644
21
46.5513
0
LINE
8
CUT
10
26.2394
20
47.2008
11
21.375
21
55.6261
0
LINE
8
CUT
10
20.625
20
55.6261
11
15.7606
21
47.2008
0
POLYLINE
8
CUT
66
1
70
0
0
VERTEX
8
CUT
10
18.5106
20
50.3639
0
VERTEX
8
CUT
10
16.7713
20
47.3513
0
VERTEX
8
CUT
10
20.25
20
47.3513
0
SEQEND
0
POLYLINE
8
CUT
66
1
70
0
0
VERTEX
8
CUT
10
21.75
20
47.3513
0
VERTEX
8
CUT
10
25.2287
20
47.3513
0
VERTEX
8
CUT
10
23.4894
20
50.3639
0
SEQEND
0
POLYLINE
8
CUT
66
1
70
0
0
VERTEX
8
CUT
10
22.7394
20
51.663
0
VERTEX
8
CUT
10
21
20
54.6756
0
VERTEX
8
CUT
10
19.2606
20
51.663
0
SEQEND
0
LINE
8
CUT
10
18.9069
20
48.1513
11
23.0931
21
48.1513
0
LINE
8
CUT
10
23.4681
20
48.8008
11
21.375
21
52.4261
0
LINE
8
CUT
10
20.625
20
52.4261
11
18.5319
21
48.8008
0
POLYLINE
8
CUT
66
1
70
0
0
VERTEX
8
CUT
10
19.8963
20
49.5639
0
VERTEX
8
CUT
10
19.5426
20
48.9513
0
VERTEX
8
CUT
10
20.25
20
48.9513
0
SEQEND
0
POLYLINE
8
CUT
66
1
70
0
0
VERTEX
8
CUT
10
21.75
20
48.9513
0
VERTEX
8
CUT
10
22.4574
20
48.9513
0
VERTEX
8
CUT
10
22.1037
20
49.5639
0
SEQEND
0
POLYLINE
8
CUT
66
1
70
0
0
VERTEX
8
CUT
10
21.3537
20
50.863
0
VERTEX
8
CUT
10
21
20
51.4756
0
VERTEX
8
CUT
10
20.6463
20
50.863
0
SEQEND
0
LINE
8
CUT
10
23.1356
20
57.0756
11
32.8644
21
57.0756
0
LINE
8
CUT
10
33.2394
20
56.4261
11
28.375
21
48.0008
0
LINE
8
CUT
10
27.625
20
48.0008
11
22.7606
21
56.4261
0
POLYLINE
8
CUT
66
1
70
0
0
VERTEX
8
CUT
10
25.5106
20
53.263
0
VERTEX
8
CUT
10
23.7713
20
56.2756
0
VERTEX
8
CUT
10
27.25
20
56.2756
0
SEQEND
0
POLYLINE
8
CUT
66
1
70
0
0
VERTEX
8
CUT
10
28.75
20
56.2756
0
VERTEX
8
CUT
10
32.2287
20
56.2756
0
VERTEX
8
CUT
10
30.4894
20
53.263
0
SEQEND
0
POLYLINE
8
CUT
66
1
70
0
0
VERTEX
8
CUT
10
29.7394
20
51.9639
0
VERTEX
8
CUT
10
28
20
48.9513
0
VERTEX
8
CUT
10
26.2606
20
51.9639
0
SEQEND
0
LINE
8
CUT
10
25.9069
20
55.4756
11
30.0931
21
55.4756
0
LINE
8
CUT
10
30.4681
20
54.8261
11
28.375
21
51.2008
0
LINE
8
CUT
10
27.625
20
51.2008
11
25.5319
21
54.8261
0
POLYLINE
8
CUT
66
1
70
0
0
VERTEX
8
CUT
10
26.8963
20
54.063
0
VERTEX
8
CUT
10
26.5426
20
54.6756
0
VERTEX
8
CUT
10
27.25
20
54.6756
0
SEQEND
0
POLYLINE
8
CUT
66
1
70
0
0
VERTEX
8
CUT
10
28.75
20
54.6756
0
VERTEX
8
CUT
10
29.4574
20
54.6756
0
VERTEX
8
CUT
10
29.1037
20
54.063
0
SEQEND
0
POLYLINE
8
CUT
66
1
70
0
0
VERTEX
8
CUT
10
28.3537
20
52.7639
0
VERTEX
8
CUT
10
28
20
52.1513
0
VERTEX
8
CUT
10
27.6463
20
52.7639
0
SEQEND
0
LINE
8
CUT
10
30.1356
20
46.5513
11
39.8644
21
46.5513
0
LINE
8
CUT
10
40.2394
20
47.2008
11
35.375
21
55.6261
0
LINE
8
CUT
10
34.625
20
55.6261
11
29.7606
21
47.2008
0
POLYLINE
8
CUT
66
1
70
0
0
VERTEX
8
CUT
10
32.5106
20
50.3639
0
VERTEX
8
CUT
10
30.7713
20
47.3513
0
VERTEX
8
CUT
10
34.25
20
47.3513
0
SEQEND
0
POLYLINE
8
CUT
66
1
70
0
0
VERTEX
8
CUT
10
35.75
20
47.3513
0
VERTEX
8
CUT
10
39.2287
20
47.3513
0
VERTEX
8
CUT
10
37.4894
20
50.3639
0
SEQEND
0
POLYLINE
8
CUT
66
1
70
0
0
VERTEX
8
CUT
10
36.7394
20
51.663
0
VERTEX
8
CUT
10
35
20
54.6756
0
VERTEX
8
CUT
10
33.2606
20
51.663
0
SEQEND
0
LINE
8
CUT
10
32.9069
20
48.1513
11
37.0931
21
48.1513
0
LINE
8
CUT
10
37.4681
20
48.8008
11
35.375
21
52.4261
0
LINE
8
CUT
10
34.625
20
52.4261
11
32.5319
21
48.8008
0
POLYLINE
8
CUT
66
1
70
0
0
VERTEX
8
CUT
10
33.8963
20
49.5639
0
VERTEX
8
CUT
10
33.5426
20
48.9513
0
VERTEX
8
CUT
10
34.25
20
48.9513
0
SEQEND
0
POLYLINE
8
CUT
66
1
70
0
0
VERTEX
8
CUT
10
35.75
20
48.9513
0
VERTEX
8
CUT
10
36.4574
20
48.9513
0
VERTEX
8
CUT
10
36.1037
20
49.5639
0
SEQEND
0
POLYLINE
8
CUT
66
1
70
0
0
VERTEX
8
CUT
10
35.3537
20
50.863
0
VERTEX
8
CUT
10
35
20
51.4756
0
VERTEX
8
CUT
10
34.6463
20
50.863
0
SEQEND
0
LINE
8
CUT
10
37.1356
20
57.0756
11
46.8644
21
57.0756
0
LINE
8
CUT
10
47.2394
20
56.4261
11
42.375
21
48.0008
0
LINE
8
CUT
10
41.625
20
48.0008
11
36.7606
21
56.4261
0
POLYLINE
8
CUT
66
1
70
0
0
VERTEX
8
CUT
10
39.5106
20
53.263
0
VERTEX
8
CUT
10
37.7713
20
56.2756
0
VERTEX
8
CUT
10
41.25
20
56.2756
0
SEQEND
0
POLYLINE
8
CUT
66
1
70
0
0
VERTEX
8
CUT
10
42.75
20
56.2756
0
VERTEX
8
CUT
10
46.2287
20
56.2756
0
VERTEX
8
CUT
10
44.4894
20
53.263
0
SEQEND
0
POLYLINE
8
CUT
66
1
70
0
0
VERTEX
8
CUT
10
43.7394
20
51.9639
0
VERTEX
8
CUT
10
42
20
48.9513
0
VERTEX
8
CUT
10
40.2606
20
51.9639
0
SEQEND
0
LINE
8
CUT
10
39.9069
20
55.4756
11
44.0931
21
55.4756
0
LINE
8
CUT
10
44.4681
20
54.8261
11
42.375
21
51.2008
0
LINE
8
CUT
10
41.625
20
51.2008
11
39.5319
21
54.8261
0
POLYLINE
8
CUT
66
1
70
0
0
VERTEX
8
CUT
10
40.8963
20
54.063
0
VERTEX
8
CUT
10
40.5426
20
54.6756
0
VERTEX
8
CUT
10
41.25
20
54.6756
0
SEQEND
0
POLYLINE
8
CUT
66
1
70
0
0
VERTEX
8
CUT
10
42.75
20
54.6756
0
VERTEX
8
CUT
10
43.4574
20
54.6756
0
VERTEX
8
CUT
10
43.1037
20
54.063
0
SEQEND
0
POLYLINE
8
CUT
66
1
70
0
0
VERTEX
8
CUT
10
42.3537
20
52.7639
0
VERTEX
8
CUT
10
42
20
52.1513
0
VERTEX
8
CUT
10
41.6463
20
52.7639
0
SEQEND
0
LINE
8
CUT
10
44.1356
20
46.5513
11
53.8644
21
46.5513
0
LINE
8
CUT
10
54.2394
20
47.2008
11
49.375
21
55.6261
0
LINE
8
CUT
10
48.625
20
55.6261
11
43.7606
21
47.2008
0
POLYLINE
8
CUT
66
1
70
0
0
VERTEX
8
CUT
10
46.5106
20
50.3639
0
VERTEX
8
CUT
10
44.7713
20
47.3513
0
VERTEX
8
CUT
10
48.25
20
47.3513
0
SEQEND
0
POLYLINE
8
CUT
66
1
70
0
0
VERTEX
8
CUT
10
49.75
20
47.3513
0
VERTEX
8
CUT
10
53.2287
20
47.3513
0
VERTEX
8
CUT
10
51.4894
20
50.3639
0
SEQEND
0
POLYLINE
8
CUT
66
1
70
0
0
VERTEX
8
CUT
10
50.7394
20
51.663
0
VERTEX
8
CUT
10
49
20
54.6756
0
VERTEX
8
CUT
10
47.2606
20
51.663
0
SEQEND
0
LINE
8
CUT
10
46.9069
20
48.1513
11
51.0931
21
48.1513
0
LINE
8
CUT
10
51.4681
20
48.8008
11
49.375
21
52.4261
0
LINE
8
CUT
10
48.625
20
52.4261
11
46.5319
21
48.8008
0
POLYLINE
8
CUT
66
1
70
0
0
VERTEX
8
CUT
10
47.8963
20
49.5639
0
VERTEX
8
CUT
10
47.5426
20
48.9513
0
VERTEX
8
CUT
10
48.25
20
48.9513
0
SEQEND
0
POLYLINE
8
CUT
66
1
70
0
0
VERTEX
8
CUT
10
49.75
20
48.9513
0
VERTEX
8
CUT
10
50.4574
20
48.9513
0
VERTEX
8
CUT
10
50.1037
20
49.5639
0
SEQEND
0
POLYLINE
8
CUT
66
1
70
0
0
VERTEX
8
CUT
10
49.3537
20
50.863
0
VERTEX
8
CUT
10
49
20
51.4756
0
VERTEX
8
CUT
10
48.6463
20
50.863
0
SEQEND
0
LINE
8
CUT
10
51.1356
20
57.0756
11
60.8644
21
57.0756
0
LINE
8
CUT
10
61.2394
20
56.4261
11
56.375
21
48.0008
0
LINE
8
CUT
10
55.625
20
48.0008
11
50.7606
21
56.4261
0
POLYLINE
8
CUT
66
1
70
0
0
VERTEX
8
CUT
10
53.5106
20
53.263
0
VERTEX
8
CUT
10
51.7713
20
56.2756
0
VERTEX
8
CUT
10
55.25
20
56.2756
0
SEQEND
0
POLYLINE
8
CUT
66
1
70
0
0
VERTEX
8
CUT
10
56.75
20
56.2756
0
VERTEX
8
CUT
10
60.2287
20
56.2756
0
VERTEX
8
CUT
10
58.4894
20
53.263
0
SEQEND
0
POLYLINE
8
CUT
66
1
70
0
0
VERTEX
8
CUT
10
57.7394
20
51.9639
0
VERTEX
8
CUT
10
56
20
48.9513
0
VERTEX
8
CUT
10
54.2606
20
51.9639
0
SEQEND
0
LINE
8
CUT
10
53.9069
20
55.4756
11
58.0931
21
55.4756
0
LINE
8
CUT
10
58.4681
20
54.8261
11
56.375
21
51.2008
0
LINE
8
CUT
10
55.625
20
51.2008
11
53.5319
21
54.8261
0
POLYLINE
8
CUT
66
1
70
0
0
VERTEX
8
CUT
10
54.8963
20
54.063
0
VERTEX
8
CUT
10
54.5426
20
54.6756
0
VERTEX
8
CUT
10
55.25
20
54.6756
0
SEQEND
0
POLYLINE
8
CUT
66
1
70
0
0
VERTEX
8
CUT
10
56.75
20
54.6756
0
VERTEX
8
CUT
10
57.4574
20
54.6756
0
VERTEX
8
CUT
10
57.1037
20
54.063
0
SEQEND
0
POLYLINE
8
CUT
66
1
70
0
0
VERTEX
8
CUT
10
56.3537
20
52.7639
0
VERTEX
8
CUT
10
56
20
52.1513
0
VERTEX
8
CUT
10
55.6463
20
52.7639
0
SEQEND
0
LINE
8
CUT
10
58.1356
20
46.5513
11
67.8644
21
46.5513
0
LINE
8
CUT
10
68.2394
20
47.2008
11
63.375
21
55.6261
0
LINE
8
CUT
10
62.625
20
55.6261
11
57.7606
21
47.2008
0
POLYLINE
8
CUT
66
1
70
0
0
VERTEX
8
CUT
10
60.5106
20
50.3639
0
VERTEX
8
CUT
10
58.7713
20
47.3513
0
VERTEX
8
CUT
10
62.25
20
47.3513
0
SEQEND
0
POLYLINE
8
CUT
66
1
70
0
0
VERTEX
8
CUT
10
63.75
20
47.3513
0
VERTEX
8
CUT
10
67.2287
20
47.3513
0
VERTEX
8
CUT
10
65.4894
20
50.3639
0
SEQEND
0
POLYLINE
8
CUT
66
1
70
0
0
VERTEX
8
CUT
10
64.7394
20
51.663
0
VERTEX
8
CUT
10
63
20
54.6756
0
VERTEX
8
CUT
10
61.2606
20
51.663
0
SEQEND
0
LINE
8
CUT
10
60.9069
20
48.1513
11
65.0931
21
48.1513
0
LINE
8
CUT
10
65.4681
20
48.8008
11
63.375
21
52.4261
0
LINE
8
CUT
10
62.625
20
52.4261
11
60.5319
21
48.8008
0
POLYLINE
8
CUT
66
1
70
0
0
VERTEX
8
CUT
10
61.8963
20
49.5639
0
VERTEX
8
CUT
10
61.5426
20
48.9513
0
VERTEX
8
CUT
10
62.25
20
48.9513
0
SEQEND
0
POLYLINE
8
CUT
66
1
70
0
0
VERTEX
8
CUT
10
63.75
20
48.9513
0
VERTEX
8
CUT
10
64.4574
20
48.9513
0
VERTEX
8
CUT
10
64.1037
20
49.5639
0
SEQEND
0
POLYLINE
8
CUT
66
1
70
0
0
VERTEX
8
CUT
10
63.3537
20
50.863
0
VERTEX
8
CUT
10
63
20
51.4756
0
VERTEX
8
CUT
10
62.6463
20
50.863
0
SEQEND
0
LINE
8
CUT
10
65.1356
20
57.0756
11
74.8644
21
57.0756
0
LINE
8
CUT
10
75.2394
20
56.4261
11
70.375
21
48.0008
0
LINE
8
CUT
10
69.625
20
48.0008
11
64.7606
21
56.4261
0
POLYLINE
8
CUT
66
1
70
0
0
VERTEX
8
CUT
10
67.5106
20
53.263
0
VERTEX
8
CUT
10
65.7713
20
56.2756
0
VERTEX
8
CUT
10
69.25
20
56.2756
0
SEQEND
0
POLYLINE
8
CUT
66
1
70
0
0
VERTEX
8
CUT
10
70.75
20
56.2756
0
VERTEX
8
CUT
10
74.2287
20
56.2756
0
VERTEX
8
CUT
10
72.4894
20
53.263
0
SEQEND
0
POLYLINE
8
CUT
66
1
70
0
0
VERTEX
8
CUT
10
71.7394
20
51.9639
0
VERTEX
8
CUT
10
70
20
48.9513
0
VERTEX
8
CUT
10
68.2606
20
51.9639
0
SEQEND
0
LINE
8
CUT
10
67.9069
20
55.4756
11
72.0931
21
55.4756
0
LINE
8
CUT
10
72.4681
20
54.8261
11
70.375
21
51.2008
0
LINE
8
CUT
10
69.625
20
51.2008
11
67.5319
21
54.8261
0
POLYLINE
8
CUT
66
1
70
0
0
VERTEX
8
CUT
10
68.8963
20
54.063
0
VERTEX
8
CUT
10
68.5426
20
54.6756
0
VERTEX
8
CUT
10
69.25
20
54.6756
0
SEQEND
0
POLYLINE
8
CUT
66
1
70
0
0
VERTEX
8
CUT
10
70.75
20
54.6756
0
VERTEX
8
CUT
10
71.4574
20
54.6756
0
VERTEX
8
CUT
10
71.1037
20
54.063
0
SEQEND
0
POLYLINE
8
CUT
66
1
70
0
0
VERTEX
8
CUT
10
70.3537
20
52.7639
0
VERTEX
8
CUT
10
70
20
52.1513
0
VERTEX
8
CUT
10
69.6463
20
52.7639
0
SEQEND
0
LINE
8
CUT
10
72.1356
20
46.5513
11
81.8644
21
46.5513
0
LINE
8
CUT
10
82.2394
20
47.2008
11
77.375
21
55.6261
0
LINE
8
CUT
10
76.625
20
55.6261
11
71.7606
21
47.2008
0
POLYLINE
8
CUT
66
1
70
0
0
VERTEX
8
CUT
10
74.5106
20
50.3639
0
VERTEX
8
CUT
10
72.7713
20
47.3513
0
VERTEX
8
CUT
10
76.25
20
47.3513
0
SEQEND
0
POLYLINE
8
CUT
66
1
70
0
0
VERTEX
8
CUT
10
77.75
20
47.3513
0
VERTEX
8
CUT
10
81.2287
20
47.3513
0
VERTEX
8
CUT
10
79.4894
20
50.3639
0
SEQEND
0
POLYLINE
8
CUT
66
1
70
0
0
VERTEX
8
CUT
10
78.7394
20
51.663
0
VERTEX
8
CUT
10
77
20
54.6756
0
VERTEX
8
CUT
10
75.2606
20
51.663
0
SEQEND
0
LINE
8
CUT
10
74.9069
20
48.1513
11
79.0931
21
48.1513
0
LINE
8
CUT
10
79.4681
20
48.8008
11
77.375
21
52.4261
0
LINE
8
CUT
10
76.625
20
52.4261
11
74.5319
21
48.8008
0
POLYLINE
8
CUT
66
1
70
0
0
VERTEX
8
CUT
10
75.8963
20
49.5639
0
VERTEX
8
CUT
10
75.5426
20
48.9513
0
VERTEX
8
CUT
10
76.25
20
48.9513
0
SEQEND
0
POLYLINE
8
CUT
66
1
70
0
0
VERTEX
8
CUT
10
77.75
20
48.9513
0
VERTEX
8
CUT
10
78.4574
20
48.9513
0
VERTEX
8
CUT
10
78.1037
20
49.5639
0
SEQEND
0
POLYLINE
8
CUT
66
1
70
0
0
VERTEX
8
CUT
10
77.3537
20
50.863
0
VERTEX
8
CUT
10
77
20
51.4756
0
VERTEX
8
CUT
10
76.6463
20
50.863
0
SEQEND
0
LINE
8
CUT
10
79.1356
20
57.0756
11
88.8644
21
57.0756
0
LINE
8
CUT
10
89.2394
20
56.4261
11
84.375
21
48.0008
0
LINE
8
CUT
10
83.625
20
48.0008
11
78.7606
21
56.4261
0
POLYLINE
8
CUT
66
1
70
0
0
VERTEX
8
CUT
10
81.5106
20
53.263
0
VERTEX
8
CUT
10
79.7713
20
56.2756
0
VERTEX
8
CUT
10
83.25
20
56.2756
0
SEQEND
0
POLYLINE
8
CUT
66
1
70
0
0
VERTEX
8
CUT
10
84.75
20
56.2756
0
VERTEX
8
CUT
10
88.2287
20
56.2756
0
VERTEX
8
CUT
10
86.4894
20
53.263
0
SEQEND
0
POLYLINE
8
CUT
66
1
70
0
0
VERTEX
8
CUT
10
85.7394
20
51.9639
0
VERTEX
8
CUT
10
84
20
48.9513
0
VERTEX
8
CUT
10
82.2606
20
51.9639
0
SEQEND
0
LINE
8
CUT
10
81.9069
20
55.4756
11
86.0931
21
55.4756
0
LINE
8
CUT
10
86.4681
20
54.8261
11
84.375
21
51.2008
0
LINE
8
CUT
10
83.625
20
51.2008
11
81.5319
21
54.8261
0
POLYLINE
8
CUT
66
1
70
0
0
VERTEX
8
CUT
10
82.8963
20
54.063
0
VERTEX
8
CUT
10
82.5426
20
54.6756
0
VERTEX
8
CUT
10
83.25
20
54.6756
0
SEQEND
0
POLYLINE
8
CUT
66
1
70
0
0
VERTEX
8
CUT
10
84.75
20
54.6756
0
VERTEX
8
CUT
10
85.4574
20
54.6756
0
VERTEX
8
CUT
10
85.1037
20
54.063
0
SEQEND
0
POLYLINE
8
CUT
66
1
70
0
0
VERTEX
8
CUT
10
84.3537
20
52.7639
0
VERTEX
8
CUT
10
84
20
52.1513
0
VERTEX
8
CUT
10
83.6463
20
52.7639
0
SEQEND
0
LINE
8
CUT
10
86.1356
20
46.5513
11
95.8644
21
46.5513
0
LINE
8
CUT
10
96.2394
20
47.2008
11
91.375
21
55.6261
0
LINE
8
CUT
10
90.625
20
55.6261
11
85.7606
21
47.2008
0
POLYLINE
8
CUT
66
1
70
0
0
VERTEX
8
CUT
10
88.5106
20
50.3639
0
VERTEX
8
CUT
10
86.7713
20
47.3513
0
VERTEX
8
CUT
10
90.25
20
47.3513
0
SEQEND
0
POLYLINE
8
CUT
66
1
70
0
0
VERTEX
8
CUT
10
91.75
20
47.3513
0
VERTEX
8
CUT
10
95.2287
20
47.3513
0
VERTEX
8
CUT
10
93.4894
20
50.3639
0
SEQEND
0
POLYLINE
8
CUT
66
1
70
0
0
VERTEX
8
CUT
10
92.7394
20
51.663
0
VERTEX
8
CUT
10
91
20
54.6756
0
VERTEX
8
CUT
10
89.2606
20
51.663
0
SEQEND
0
LINE
8
CUT
10
88.9069
20
48.1513
11
93.0931
21
48.1513
0
LINE
8
CUT
10
93.4681
20
48.8008
11
91.375
21
52.4261
0
LINE
8
CUT
10
90.625
20
52.4261
11
88.5319
21
48.8008
0
POLYLINE
8
CUT
66
1
70
0
0
VERTEX
8
CUT
10
89.8963
20
49.5639
0
VERTEX
8
CUT
10
89.5426
20
48.9513
0
VERTEX
8
CUT
10
90.25
20
48.9513
0
SEQEND
0
POLYLINE
8
CUT
66
1
70
0
0
VERTEX
8
CUT
10
91.75
20
48.9513
0
VERTEX
8
CUT
10
92.4574
20
48.9513
0
VERTEX
8
CUT
10
92.1037
20
49.5639
0
SEQEND
0
POLYLINE
8
CUT
66
1
70
0
0
VERTEX
8
CUT
10
91.3537
20
50.863
0
VERTEX
8
CUT
10
91
20
51.4756
0
VERTEX
8
CUT
10
90.6463
20
50.863
0
SEQEND
0
LINE
8
CUT
10
93.1356
20
57.0756
11
102.8644
21
57.0756
0
LINE
8
CUT
10
103.2394
20
56.4261
11
98.375
21
48.0008
0
LINE
8
CUT
10
97.625
20
48.0008
11
92.7606
21
56.4261
0
POLYLINE
8
CUT
66
1
70
0
0
VERTEX
8
CUT
10
95.5106
20
53.263
0
VERTEX
8
CUT
10
93.7713
20
56.2756
0
VERTEX
8
CUT
10
97.25
20
56.2756
0
SEQEND
0
POLYLINE
8
CUT
66
1
70
0
0
VERTEX
8
CUT
10
98.75
20
56.2756
0
VERTEX
8
CUT
10
102.2287
20
56.2756
0
VERTEX
8
CUT
10
100.4894
20
53.263
0
SEQEND
0
POLYLINE
8
CUT
66
1
70
0
0
VERTEX
8
CUT
10
99.7394
20
51.9639
0
VERTEX
8
CUT
10
98
20
48.9513
0
VERTEX
8
CUT
10
96.2606
20
51.9639
0
SEQEND
0
LINE
8
CUT
10
95.9069
20
55.4756
11
100.0931
21
55.4756
0
LINE
8
CUT
10
100.4681
20
54.8261
11
98.375
21
51.2008
0
LINE
8
CUT
10
97.625
20
51.2008
11
95.5319
21
54.8261
0
POLYLINE
8
CUT
66
1
70
0
0
VERTEX
8
CUT
10
96.8963
20
54.063
0
VERTEX
8
CUT
10
96.5426
20
54.6756
0
VERTEX
8
CUT
10
97.25
20
54.6756
0
SEQEND
0
POLYLINE
8
CUT
66
1
70
0
0
VERTEX
8
CUT
10
98.75
20
54.6756
0
VERTEX
8
CUT
10
99.4574
20
54.6756
0
VERTEX
8
CUT
10
99.1037
20
54.063
0
SEQEND
0
POLYLINE
8
CUT
66
1
70
0
0
VERTEX
8
CUT
10
98.3537
20
52.7639
0
VERTEX
8
CUT
10
98
20
52.1513
0
VERTEX
8
CUT
10
97.6463
20
52.7639
0
SEQEND
0
LINE
8
CUT
10
100.1356
20
46.5513
11
109.8644
21
46.5513
0
LINE
8
CUT
10
110.2394
20
47.2008
11
105.375
21
55.6261
0
LINE
8
CUT
10
104.625
20
55.6261
11
99.7606
21
47.2008
0
POLYLINE
8
CUT
66
1
70
0
0
VERTEX
8
CUT
10
102.5106
20
50.3639
0
VERTEX
8
CUT
10
100.7713
20
47.3513
0
VERTEX
8
CUT
10
104.25
20
47.3513
0
SEQEND
0
POLYLINE
8
CUT
66
1
70
0
0
VERTEX
8
CUT
10
105.75
20
47.3513
0
VERTEX
8
CUT
10
109.2287
20
47.3513
0
VERTEX
8
CUT
10
107.4894
20
50.3639
0
SEQEND
0
POLYLINE
8
CUT
66
1
70
0
0
VERTEX
8
CUT
10
106.7394
20
51.663
0
VERTEX
8
CUT
10
105
20
54.6756
0
VERTEX
8
CUT
10
103.2606
20
51.663
0
SEQEND
0
LINE
8
CUT
10
102.9069
20
48.1513
11
107.0931
21
48.1513
0
LINE
8
CUT
10
107.4681
20
48.8008
11
105.375
21
52.4261
0
LINE
8
CUT
10
104.625
20
52.4261
11
102.5319
21
48.8008
0
POLYLINE
8
CUT
66
1
70
0
0
VERTEX
8
CUT
10
103.8963
20
49.5639
0
VERTEX
8
CUT
10
103.5426
20
48.9513
0
VERTEX
8
CUT
10
104.25
20
48.9513
0
SEQEND
0
POLYLINE
8
CUT
66
1
70
0
0
VERTEX
8
CUT
10
105.75
20
48.9513
0
VERTEX
8
CUT
10
106.4574
20
48.9513
0
VERTEX
8
CUT
10
106.1037
20
49.5639
0
SEQEND
0
POLYLINE
8
CUT
66
1
70
0
0
VERTEX
8
CUT
10
105.3537
20
50.863
0
VERTEX
8
CUT
10
105
20
51.4756
0
VERTEX
8
CUT
10
104.6463
20
50.863
0
SEQEND
0
LINE
8
CUT
10
107.1356
20
57.0756
11
116.8644
21
57.0756
0
LINE
8
CUT
10
117.2394
20
56.4261
11
112.375
21
48.0008
0
LINE
8
CUT
10
111.625
20
48.0008
11
106.7606
21
56.4261
0
POLYLINE
8
CUT
66
1
70
0
0
VERTEX
8
CUT
10
109.5106
20
53.263
0
VERTEX
8
CUT
10
107.7713
20
56.2756
0
VERTEX
8
CUT
10
111.25
20
56.2756
0
SEQEND
0
POLYLINE
8
CUT
66
1
70
0
0
VERTEX
8
CUT
10
112.75
20
56.2756
0
VERTEX
8
CUT
10
116.2287
20
56.2756
0
VERTEX
8
CUT
10
114.4894
20
53.263
0
SEQEND
0
POLYLINE
8
CUT
66
1
70
0
0
VERTEX
8
CUT
10
113.7394
20
51.9639
0
VERTEX
8
CUT
10
112
20
48.9513
0
VERTEX
8
CUT
10
110.2606
20
51.9639
0
SEQEND
0
LINE
8
CUT
10
109.9069
20
55.4756
11
114.0931
21
55.4756
0
LINE
8
CUT
10
114.4681
20
54.8261
11
112.375
21
51.2008
0
LINE
8
CUT
10
111.625
20
51.2008
11
109.5319
21
54.8261
0
POLYLINE
8
CUT
66
1
70
0
0
VERTEX
8
CUT
10
110.8963
20
54.063
0
VERTEX
8
CUT
10
110.5426
20
54.6756
0
VERTEX
8
CUT
10
111.25
20
54.6756
0
SEQEND
0
POLYLINE
8
CUT
66
1
70
0
0
VERTEX
8
CUT
10
112.75
20
54.6756
0
VERTEX
8
CUT
10
113.4574
20
54.6756
0
VERTEX
8
CUT
10
113.1037
20
54.063
0
SEQEND
0
POLYLINE
8
CUT
66
1
70
0
0
VERTEX
8
CUT
10
112.3537
20
52.7639
0
VERTEX
8
CUT
10
112
20
52.1513
0
VERTEX
8
CUT
10
111.6463
20
52.7639
0
SEQEND
0
LINE
8
CUT
10
114.1356
20
46.5513
11
120
21
46.5513
0
LINE
8
CUT
10
120
20
54.5436
11
119.375
21
55.6261
0
LINE
8
CUT
10
118.625
20
55.6261
11
113.7606
21
47.2008
0
POLYLINE
8
CUT
66
1
70
0
0
VERTEX
8
CUT
10
116.5106
20
50.3639
0
VERTEX
8
CUT
10
114.7713
20
47.3513
0
VERTEX
8
CUT
10
118.25
20
47.3513
0
SEQEND
0
POLYLINE
8
CUT
66
1
70
0
0
VERTEX
8
CUT
10
120
20
52.9436
0
VERTEX
8
CUT
10
119
20
54.6756
0
VERTEX
8
CUT
10
117.2606
20
51.663
0
SEQEND
0
LINE
8
CUT
10
116.9069
20
48.1513
11
120
21
48.1513
0
LINE
8
CUT
10
120
20
51.3436
11
119.375
21
52.4261
0
LINE
8
CUT
10
118.625
20
52.4261
11
116.5319
21
48.8008
0
POLYLINE
8
CUT
66
1
70
0
0
VERTEX
8
CUT
10
117.8963
20
49.5639
0
VERTEX
8
CUT
10
117.5426
20
48.9513
0
VERTEX
8
CUT
10
118.25
20
48.9513
0
SEQEND
0
POLYLINE
8
CUT
66
1
70
0
0
VERTEX
8
CUT
10
119.3537
20
50.863
0
VERTEX
8
CUT
10
119
20
51.4756
0
VERTEX
8
CUT
10
118.6463
20
50.863
0
SEQEND
0
LINE
8
CUT
10
0
20
34.4269
11
4.8644
21
34.4269
0
LINE
8
CUT
10
5.2394
20
35.0765
11
0.375
21
43.5018
0
POLYLINE
8
CUT
66
1
70
0
0
VERTEX
8
CUT
10
0.75
20
35.2269
0
VERTEX
8
CUT
10
4.2287
20
35.2269
0
VERTEX
8
CUT
10
2.4894
20
38.2396
0
SEQEND
0
POLYLINE
8
CUT
66
1
70
0
0
VERTEX
8
CUT
10
1.7394
20
39.5386
0
VERTEX
8
CUT
10
0
20
42.5513
0
VERTEX
8
CUT
10
0
20
42.5513
0
SEQEND
0
LINE
8
CUT
10
0
20
36.0269
11
2.0931
21
36.0269
0
LINE
8
CUT
10
2.4681
20
36.6765
11
0.375
21
40.3018
0
POLYLINE
8
CUT
66
1
70
0
0
VERTEX
8
CUT
10
0.75
20
36.8269
0
VERTEX
8
CUT
10
1.4574
20
36.8269
0
VERTEX
8
CUT
10
1.1037
20
37.4396
0
SEQEND
0
POLYLINE
8
CUT
66
1
70
0
0
VERTEX
8
CUT
10
0.3537
20
38.7386
0
VERTEX
8
CUT
10
0
20
39.3513
0
VERTEX
8
CUT
10
0
20
39.3513
0
SEQEND
0
LINE
8
CUT
10
2.1356
20
44.9513
11
11.8644
21
44.9513
0
LINE
8
CUT
10
12.2394
20
44.3018
11
7.375
21
35.8765
0
LINE
8
CUT
10
6.625
20
35.8765
11
1.7606
21
44.3018
0
POLYLINE
8
CUT
66
1
70
0
0
VERTEX
8
CUT
10
4.5106
20
41.1386
0
VERTEX
8
CUT
10
2.7713
20
44.1513
0
VERTEX
8
CUT
10
6.25
20
44.1513
0
SEQEND
0
POLYLINE
8
CUT
66
1
70
0
0
VERTEX
8
CUT
10
7.75
20
44.1513
0
VERTEX
8
CUT
10
11.2287
20
44.1513
0
VERTEX
8
CUT
10
9.4894
20
41.1386
0
SEQEND
0
POLYLINE
8
CUT
66
1
70
0
0
VERTEX
8
CUT
10
8.7394
20
39.8396
0
VERTEX
8
CUT
10
7
20
36.8269
0
VERTEX
8
CUT
10
5.2606
20
39.8396
0
SEQEND
0
LINE
8
CUT
10
4.9069
20
43.3513
11
9.0931
21
43.3513
0
LINE
8
CUT
10
9.4681
20
42.7018
11
7.375
21
39.0765
0
LINE
8
CUT
10
6.625
20
39.0765
11
4.5319
21
42.7018
0
POLYLINE
8
CUT
66
1
70
0
0
VERTEX
8
CUT
10
5.8963
20
41.9386
0
VERTEX
8
CUT
10
5.5426
20
42.5513
0
VERTEX
8
CUT
10
6.25
20
42.5513
0
SEQEND
0
POLYLINE
8
CUT
66
1
70
0
0
VERTEX
8
CUT
10
7.75
20
42.5513
0
VERTEX
8
CUT
10
8.4574
20
42.5513
0
VERTEX
8
CUT
10
8.1037
20
41.9386
0
SEQEND
0
POLYLINE
8
CUT
66
1
70
0
0
VERTEX
8
CUT
10
7.3537
20
40.6396
0
VERTEX
8
CUT
10
7
20
40.0269
0
VERTEX
8
CUT
10
6.6463
20
40.6396
0
SEQEND
0
LINE
8
CUT
10
9.1356
20
34.4269
11
18.8644
21
34.4269
0
LINE
8
CUT
10
19.2394
20
35.0765
11
14.375
21
43.5018
0
LINE
8
CUT
10
13.625
20
43.5018
11
8.7606
21
35.0765
0
POLYLINE
8
CUT
66
1
70
0
0
VERTEX
8
CUT
10
11.5106
20
38.2396
0
VERTEX
8
CUT
10
9.7713
20
35.2269
0
VERTEX
8
CUT
10
13.25
20
35.2269
0
SEQEND
0
POLYLINE
8
CUT
66
1
70
0
0
VERTEX
8
CUT
10
14.75
20
35.2269
0
VERTEX
8
CUT
10
18.2287
20
35.2269
0
VERTEX
8
CUT
10
16.4894
20
38.2396
0
SEQEND
0
POLYLINE
8
CUT
66
1
70
0
0
VERTEX
8
CUT
10
15.7394
20
39.5386
0
VERTEX
8
CUT
10
14
20
42.5513
0
VERTEX
8
CUT
10
12.2606
20
39.5386
0
SEQEND
0
LINE
8
CUT
10
11.9069
20
36.0269
11
16.0931
21
36.0269
0
LINE
8
CUT
10
16.4681
20
36.6765
11
14.375
21
40.3018
0
LINE
8
CUT
10
13.625
20
40.3018
11
11.5319
21
36.6765
0
POLYLINE
8
CUT
66
1
70
0
0
VERTEX
8
CUT
10
12.8963
20
37.4396
0
VERTEX
8
CUT
10
12.5426
20
36.8269
0
VERTEX
8
CUT
10
13.25
20
36.8269
0
SEQEND
0
POLYLINE
8
CUT
66
1
70
0
0
VERTEX
8
CUT
10
14.75
20
36.8269
0
VERTEX
8
CUT
10
15.4574
20
36.8269
0
VERTEX
8
CUT
10
15.1037
20
37.4396
0
SEQEND
0
POLYLINE
8
CUT
66
1
70
0
0
VERTEX
8
CUT
10
14.3537
20
38.7386
0
VERTEX
8
CUT
10
14
20
39.3513
0
VERTEX
8
CUT
10
13.6463
20
38.7386
0
SEQEND
0
LINE
8
CUT
10
16.1356
20
44.9513
11
25.8644
21
44.9513
0
LINE
8
CUT
10
26.2394
20
44.3018
11
21.375
21
35.8765
0
LINE
8
CUT
10
20.625
20
35.8765
11
15.7606
21
44.3018
0
POLYLINE
8
CUT
66
1
70
0
0
VERTEX
8
CUT
10
18.5106
20
41.1386
0
VERTEX
8
CUT
10
16.7713
20
44.1513
0
VERTEX
8
CUT
10
20.25
20
44.1513
0
SEQEND
0
POLYLINE
8
CUT
66
1
70
0
0
VERTEX
8
CUT
10
21.75
20
44.1513
0
VERTEX
8
CUT
10
25.2287
20
44.1513
0
VERTEX
8
CUT
10
23.4894
20
41.1386
0
SEQEND
0
POLYLINE
8
CUT
66
1
70
0
0
VERTEX
8
CUT
10
22.7394
20
39.8396
0
VERTEX
8
CUT
10
21
20
36.8269
0
VERTEX
8
CUT
10
19.2606
20
39.8396
0
SEQEND
0
LINE
8
CUT
10
18.9069
20
43.3513
11
23.0931
21
43.3513
0
LINE
8
CUT
10
23.4681
20
42.7018
11
21.375
21
39.0765
0
LINE
8
CUT
10
20.625
20
39.0765
11
18.5319
21
42.7018
0
POLYLINE
8
CUT
66
1
70
0
0
VERTEX
8
CUT
10
19.8963
20
41.9386
0
VERTEX
8
CUT
10
19.5426
20
42.5513
0
VERTEX
8
CUT
10
20.25
20
42.5513
0
SEQEND
0
POLYLINE
8
CUT
66
1
70
0
0
VERTEX
8
CUT
10
21.75
20
42.5513
0
VERTEX
8
CUT
10
22.4574
20
42.5513
0
VERTEX
8
CUT
10
22.1037
20
41.9386
0
SEQEND
0
POLYLINE
8
CUT
66
1
70
0
0
VERTEX
8
CUT
10
21.3537
20
40.6396
0
VERTEX
8
CUT
10
21
20
40.0269
0
VERTEX
8
CUT
10
20.6463
20
40.6396
0
SEQEND
0
LINE
8
CUT
10
23.1356
20
34.4269
11
32.8644
21
34.4269
0
LINE
8
CUT
10
33.2394
20
35.0765
11
28.375
21
43.5018
0
LINE
8
CUT
10
27.625
20
43.5018
11
22.7606
21
35.0765
0
POLYLINE
8
CUT
66
1
70
0
0
VERTEX
8
CUT
10
25.5106
20
38.2396
0
VERTEX
8
CUT
10
23.7713
20
35.2269
0
VERTEX
8
CUT
10
27.25
20
35.2269
0
SEQEND
0
POLYLINE
8
CUT
66
1
70
0
0
VERTEX
8
CUT
10
28.75
20
35.2269
0
VERTEX
8
CUT
10
32.2287
20
35.2269
0
VERTEX
8
CUT
10
30.4894
20
38.2396
0
SEQEND
0
POLYLINE
8
CUT
66
1
70
0
0
VERTEX
8
CUT
10
29.7394
20
39.5386
0
VERTEX
8
CUT
10
28
20
42.5513
0
VERTEX
8
CUT
10
26.2606
20
39.5386
0
SEQEND
0
LINE
8
CUT
10
25.9069
20
36.0269
11
30.0931
21
36.0269
0
LINE
8
CUT
10
30.4681
20
36.6765
11
28.375
21
40.3018
0
LINE
8
CUT
10
27.625
20
40.3018
11
25.5319
21
36.6765
0
POLYLINE
8
CUT
66
1
70
0
0
VERTEX
8
CUT
10
26.8963
20
37.4396
0
VERTEX
8
CUT
10
26.5426
20
36.8269
0
VERTEX
8
CUT
10
27.25
20
36.8269
0
SEQEND
0
POLYLINE
8
CUT
66
1
70
0
0
VERTEX
8
CUT
10
28.75
20
36.8269
0
VERTEX
8
CUT
10
29.4574
20
36.8269
0
VERTEX
8
CUT
10
29.1037
20
37.4396
0
SEQEND
0
POLYLINE
8
CUT
66
1
70
0
0
VERTEX
8
CUT
10
28.3537
20
38.7386
0
VERTEX
8
CUT
10
28
20
39.3513
0
VERTEX
8
CUT
10
27.6463
20
38.7386
0
SEQEND
0
LINE
8
CUT
10
30.1356
20
44.9513
11
39.8644
21
44.9513
0
LINE
8
CUT
10
40.2394
20
44.3018
11
35.375
21
35.8765
0
LINE
8
CUT
10
34.625
20
35.8765
11
29.7606
21
44.3018
0
POLYLINE
8
CUT
66
1
70
0
0
VERTEX
8
CUT
10
32.5106
20
41.1386
0
VERTEX
8
CUT
10
30.7713
20
44.1513
0
VERTEX
8
CUT
10
34.25
20
44.1513
0
SEQEND
0
POLYLINE
8
CUT
66
1
70
0
0
VERTEX
8
CUT
10
35.75
20
44.1513
0
VERTEX
8
CUT
10
39.2287
20
44.1513
0
VERTEX
8
CUT
10
37.4894
20
41.1386
0
SEQEND
0
POLYLINE
8
CUT
66
1
70
0
0
VERTEX
8
CUT
10
36.7394
20
39.8396
0
VERTEX
8
CUT
10
35
20
36.8269
0
VERTEX
8
CUT
10
33.2606
20
39.8396
0
SEQEND
0
LINE
8
CUT
10
32.9069
20
43.3513
11
37.0931
21
43.3513
0
LINE
8
CUT
10
37.4681
20
42.7018
11
35.375
21
39.0765
0
LINE
8
CUT
10
34.625
20
39.0765
11
32.5319
21
42.7018
0
POLYLINE
8
CUT
66
1
70
0
0
VERTEX
8
CUT
10
33.8963
20
41.9386
0
VERTEX
8
CUT
10
33.5426
20
42.5513
0
VERTEX
8
CUT
10
34.25
20
42.5513
0
SEQEND
0
POLYLINE
8
CUT
66
1
70
0
0
VERTEX
8
CUT
10
35.75
20
42.5513
0
VERTEX
8
CUT
10
36.4574
20
42.5513
0
VERTEX
8
CUT
10
36.1037
20
41.9386
0
SEQEND
0
POLYLINE
8
CUT
66
1
70
0
0
VERTEX
8
CUT
10
35.3537
20
40.6396
0
VERTEX
8
CUT
10
35
20
40.0269
0
VERTEX
8
CUT
10
34.6463
20
40.6396
0
SEQEND
0
LINE
8
CUT
10
37.1356
20
34.4269
11
46.8644
21
34.4269
0
LINE
8
CUT
10
47.2394
20
35.0765
11
42.375
21
43.5018
0
LINE
8
CUT
10
41.625
20
43.5018
11
36.7606
21
35.0765
0
POLYLINE
8
CUT
66
1
70
0
0
VERTEX
8
CUT
10
39.5106
20
38.2396
0
VERTEX
8
CUT
10
37.7713
20
35.2269
0
VERTEX
8
CUT
10
41.25
20
35.2269
0
SEQEND
0
POLYLINE
8
CUT
66
1
70
0
0
VERTEX
8
CUT
10
42.75
20
35.2269
0
VERTEX
8
CUT
10
46.2287
20
35.2269
0
VERTEX
8
CUT
10
44.4894
20
38.2396
0
SEQEND
0
POLYLINE
8
CUT
66
1
70
0
0
VERTEX
8
CUT
10
43.7394
20
39.5386
0
VERTEX
8
CUT
10
42
20
42.5513
0
VERTEX
8
CUT
10
40.2606
20
39.5386
0
SEQEND
0
LINE
8
CUT
10
39.9069
20
36.0269
11
44.0931
21
36.0269
0
LINE
8
CUT
10
44.4681
20
36.6765
11
42.375
21
40.3018
0
LINE
8
CUT
10
41.625
20
40.3018
11
39.5319
21
36.6765
0
POLYLINE
8
CUT
66
1
70
0
0
VERTEX
8
CUT
10
40.8963
20
37.4396
0
VERTEX
8
CUT
10
40.5426
20
36.8269
0
VERTEX
8
CUT
10
41.25
20
36.8269
0
SEQEND
0
POLYLINE
8
CUT
66
1
70
0
0
VERTEX
8
CUT
10
42.75
20
36.8269
0
VERTEX
8
CUT
10
43.4574
20
36.8269
0
VERTEX
8
CUT
10
43.1037
20
37.4396
0
SEQEND
0
POLYLINE
8
CUT
66
1
70
0
0
VERTEX
8
CUT
10
42.3537
20
38.7386
0
VERTEX
8
CUT
10
42
20
39.3513
0
VERTEX
8
CUT
10
41.6463
20
38.7386
0
SEQEND
0
LINE
8
CUT
10
44.1356
20
44.9513
11
53.8644
21
44.9513
0
LINE
8
CUT
10
54.2394
20
44.3018
11
49.375
21
35.8765
0
LINE
8
CUT
10
48.625
20
35.8765
11
43.7606
21
44.3018
0
POLYLINE
8
CUT
66
1
70
0
0
VERTEX
8
CUT
10
46.5106
20
41.1386
0
VERTEX
8
CUT
10
44.7713
20
44.1513
0
VERTEX
8
CUT
10
48.25
20
44.1513
0
SEQEND
0
POLYLINE
8
CUT
66
1
70
0
0
VERTEX
8
CUT
10
49.75
20
44.1513
0
VERTEX
8
CUT
10
53.2287
20
44.1513
0
VERTEX
8
CUT
10
51.4894
20
41.1386
0
SEQEND
0
POLYLINE
8
CUT
66
1
70
0
0
VERTEX
8
CUT
10
50.7394
20
39.8396
0
VERTEX
8
CUT
10
49
20
36.8269
0
VERTEX
8
CUT
10
47.2606
20
39.8396
0
SEQEND
0
LINE
8
CUT
10
46.9069
20
43.3513
11
51.0931
21
43.3513
0
LINE
8
CUT
10
51.4681
20
42.7018
11
49.375
21
39.0765
0
LINE
8
CUT
10
48.625
20
39.0765
11
46.5319
21
42.7018
0
POLYLINE
8
CUT
66
1
70
0
0
VERTEX
8
CUT
10
47.8963
20
41.9386
0
VERTEX
8
CUT
10
47.5426
20
42.5513
0
VERTEX
8
CUT
10
48.25
20
42.5513
0
SEQEND
0
POLYLINE
8
CUT
66
1
70
0
0
VERTEX
8
CUT
10
49.75
20
42.5513
0
VERTEX
8
CUT
10
50.4574
20
42.5513
0
VERTEX
8
CUT
10
50.1037
20
41.9386
0
SEQEND
0
POLYLINE
8
CUT
66
1
70
0
0
VERTEX
8
CUT
10
49.3537
20
40.6396
0
VERTEX
8
CUT
10
49
20
40.0269
0
VERTEX
8
CUT
10
48.6463
20
40.6396
0
SEQEND
0
LINE
8
CUT
10
51.1356
20
34.4269
11
60.8644
21
34.4269
0
LINE
8
CUT
10
61.2394
20
35.0765
11
56.375
21
43.5018
0
LINE
8
CUT
10
55.625
20
43.5018
11
50.7606
21
35.0765
0
POLYLINE
8
CUT
66
1
70
0
0
VERTEX
8
CUT
10
53.5106
20
38.2396
0
VERTEX
8
CUT
10
51.7713
20
35.2269
0
VERTEX
8
CUT
10
55.25
20
35.2269
0
SEQEND
0
POLYLINE
8
CUT
66
1
70
0
0
VERTEX
8
CUT
10
56.75
20
35.2269
0
VERTEX
8
CUT
10
60.2287
20
35.2269
0
VERTEX
8
CUT
10
58.4894
20
38.2396
0
SEQEND
0
POLYLINE
8
CUT
66
1
70
0
0
VERTEX
8
CUT
10
57.7394
20
39.5386
0
VERTEX
8
CUT
10
56
20
42.5513
0
VERTEX
8
CUT
10
54.2606
20
39.5386
0
SEQEND
0
LINE
8
CUT
10
53.9069
20
36.0269
11
58.0931
21
36.0269
0
LINE
8
CUT
10
58.4681
20
36.6765
11
56.375
21
40.3018
0
LINE
8
CUT
10
55.625
20
40.3018
11
53.5319
21
36.6765
0
POLYLINE
8
CUT
66
1
70
0
0
VERTEX
8
CUT
10
54.8963
20
37.4396
0
VERTEX
8
CUT
10
54.5426
20
36.8269
0
VERTEX
8
CUT
10
55.25
20
36.8269
0
SEQEND
0
POLYLINE
8
CUT
66
1
70
0
0
VERTEX
8
CUT
10
56.75
20
36.8269
0
VERTEX
8
CUT
10
57.4574
20
36.8269
0
VERTEX
8
CUT
10
57.1037
20
37.4396
0
SEQEND
0
POLYLINE
8
CUT
66
1
70
0
0
VERTEX
8
CUT
10
56.3537
20
38.7386
0
VERTEX
8
CUT
10
56
20
39.3513
0
VERTEX
8
CUT
10
55.6463
20
38.7386
0
SEQEND
0
LINE
8
CUT
10
58.1356
20
44.9513
11
67.8644
21
44.9513
0
LINE
8
CUT
10
68.2394
20
44.3018
11
63.375
21
35.8765
0
LINE
8
CUT
10
62.625
20
35.8765
11
57.7606
21
44.3018
0
POLYLINE
8
CUT
66
1
70
0
0
VERTEX
8
CUT
10
60.5106
20
41.1386
0
VERTEX
8
CUT
10
58.7713
20
44.1513
0
VERTEX
8
CUT
10
62.25
20
44.1513
0
SEQEND
0
POLYLINE
8
CUT
66
1
70
0
0
VERTEX
8
CUT
10
63.75
20
44.1513
0
VERTEX
8
CUT
10
67.2287
20
44.1513
0
VERTEX
8
CUT
10
65.4894
20
41.1386
0
SEQEND
0
POLYLINE
8
CUT
66
1
70
0
0
VERTEX
8
CUT
10
64.7394
20
39.8396
0
VERTEX
8
CUT
10
63
20
36.8269
0
VERTEX
8
CUT
10
61.2606
20
39.8396
0
SEQEND
0
LINE
8
CUT
10
60.9069
20
43.3513
11
65.0931
21
43.3513
0
LINE
8
CUT
10
65.4681
20
42.7018
11
63.375
21
39.0765
0
LINE
8
CUT
10
62.625
20
39.0765
11
60.5319
21
42.7018
0
POLYLINE
8
CUT
66
1
70
0
0
VERTEX
8
CUT
10
61.8963
20
41.9386
0
VERTEX
8
CUT
10
61.5426
20
42.5513
0
VERTEX
8
CUT
10
62.25
20
42.5513
0
SEQEND
0
POLYLINE
8
CUT
66
1
70
0
0
VERTEX
8
CUT
10
63.75
20
42.5513
0
VERTEX
8
CUT
10
64.4574
20
42.5513
0
VERTEX
8
CUT
10
64.1037
20
41.9386
0
SEQEND
0
POLYLINE
8
CUT
66
1
70
0
0
VERTEX
8
CUT
10
63.3537
20
40.6396
0
VERTEX
8
CUT
10
63
20
40.0269
0
VERTEX
8
CUT
10
62.6463
20
40.6396
0
SEQEND
0
LINE
8
CUT
10
65.1356
20
34.4269
11
74.8644
21
34.4269
0
LINE
8
CUT
10
75.2394
20
35.0765
11
70.375
21
43.5018
0
LINE
8
CUT
10
69.625
20
43.5018
11
64.7606
21
35.0765
0
POLYLINE
8
CUT
66
1
70
0
0
VERTEX
8
CUT
10
67.5106
20
38.2396
0
VERTEX
8
CUT
10
65.7713
20
35.2269
0
VERTEX
8
CUT
10
69.25
20
35.2269
0
SEQEND
0
POLYLINE
8
CUT
66
1
70
0
0
VERTEX
8
CUT
10
70.75
20
35.2269
0
VERTEX
8
CUT
10
74.2287
20
35.2269
0
VERTEX
8
CUT
10
72.4894
20
38.2396
0
SEQEND
0
POLYLINE
8
CUT
66
1
70
0
0
VERTEX
8
CUT
10
71.7394
20
39.5386
0
VERTEX
8
CUT
10
70
20
42.5513
0
VERTEX
8
CUT
10
68.2606
20
39.5386
0
SEQEND
0
LINE
8
CUT
10
67.9069
20
36.0269
11
72.0931
21
36.0269
0
LINE
8
CUT
10
72.4681
20
36.6765
11
70.375
21
40.3018
0
LINE
8
CUT
10
69.625
20
40.3018
11
67.5319
21
36.6765
0
POLYLINE
8
CUT
66
1
70
0
0
VERTEX
8
CUT
10
68.8963
20
37.4396
0
VERTEX
8
CUT
10
68.5426
20
36.8269
0
VERTEX
8
CUT
10
69.25
20
36.8269
0
SEQEND
0
POLYLINE
8
CUT
66
1
70
0
0
VERTEX
8
CUT
10
70.75
20
36.8269
0
VERTEX
8
CUT
10
71.4574
20
36.8269
0
VERTEX
8
CUT
10
71.1037
20
37.4396
0
SEQEND
0
POLYLINE
8
CUT
66
1
70
0
0
VERTEX
8
CUT
10
70.3537
20
38.7386
0
VERTEX
8
CUT
10
70
20
39.3513
0
VERTEX
8
CUT
10
69.6463
20
38.7386
0
SEQEND
0
LINE
8
CUT
10
72.1356
20
44.9513
11
81.8644
21
44.9513
0
LINE
8
CUT
10
82.2394
20
44.3018
11
77.375
21
35.8765
0
LINE
8
CUT
10
76.625
20
35.8765
11
71.7606
21
44.3018
0
POLYLINE
8
CUT
66
1
70
0
0
VERTEX
8
CUT
10
74.5106
20
41.1386
0
VERTEX
8
CUT
10
72.7713
20
44.1513
0
VERTEX
8
CUT
10
76.25
20
44.1513
0
SEQEND
0
POLYLINE
8
CUT
66
1
70
0
0
VERTEX
8
CUT
10
77.75
20
44.1513
0
VERTEX
8
CUT
10
81.2287
20
44.1513
0
VERTEX
8
CUT
10
79.4894
20
41.1386
0
SEQEND
0
POLYLINE
8
CUT
66
1
70
0
0
VERTEX
8
CUT
10
78.7394
20
39.8396
0
VERTEX
8
CUT
10
77
20
36.8269
0
VERTEX
8
CUT
10
75.2606
20
39.8396
0
SEQEND
0
LINE
8
CUT
10
74.9069
20
43.3513
11
79.0931
21
43.3513
0
LINE
8
CUT
10
79.4681
20
42.7018
11
77.375
21
39.0765
0
LINE
8
CUT
10
76.625
20
39.0765
11
74.5319
21
42.7018
0
POLYLINE
8
CUT
66
1
70
0
0
VERTEX
8
CUT
10
75.8963
20
41.9386
0
VERTEX
8
CUT
10
75.5426
20
42.5513
0
VERTEX
8
CUT
10
76.25
20
42.5513
0
SEQEND
0
POLYLINE
8
CUT
66
1
70
0
0
VERTEX
8
CUT
10
77.75
20
42.5513
0
VERTEX
8
CUT
10
78.4574
20
42.5513
0
VERTEX
8
CUT
10
78.1037
20
41.9386
0
SEQEND
0
POLYLINE
8
CUT
66
1
70
0
0
VERTEX
8
CUT
10
77.3537
20
40.6396
0
VERTEX
8
CUT
10
77
20
40.0269
0
VERTEX
8
CUT
10
76.6463
20
40.6396
0
SEQEND
0
LINE
8
CUT
10
79.1356
20
34.4269
11
88.8644
21
34.4269
0
LINE
8
CUT
10
89.2394
20
35.0765
11
84.375
21
43.5018
0
LINE
8
CUT
10
83.625
20
43.5018
11
78.7606
21
35.0765
0
POLYLINE
8
CUT
66
1
70
0
0
VERTEX
8
CUT
10
81.5106
20
38.2396
0
VERTEX
8
CUT
10
79.7713
20
35.2269
0
VERTEX
8
CUT
10
83.25
20
35.2269
0
SEQEND
0
POLYLINE
8
CUT
66
1
70
0
0
VERTEX
8
CUT
10
84.75
20
35.2269
0
VERTEX
8
CUT
10
88.2287
20
35.2269
0
VERTEX
8
CUT
10
86.4894
20
38.2396
0
SEQEND
0
POLYLINE
8
CUT
66
1
70
0
0
VERTEX
8
CUT
10
85.7394
20
39.5386
0
VERTEX
8
CUT
10
84
20
42.5513
0
VERTEX
8
CUT
10
82.2606
20
39.5386
0
SEQEND
0
LINE
8
CUT
10
81.9069
20
36.0269
11
86.0931
21
36.0269
0
LINE
8
CUT
10
86.4681
20
36.6765
11
84.375
21
40.3018
0
LINE
8
CUT
10
83.625
20
40.3018
11
81.5319
21
36.6765
0
POLYLINE
8
CUT
66
1
70
0
0
VERTEX
8
CUT
10
82.8963
20
37.4396
0
VERTEX
8
CUT
10
82.5426
20
36.8269
0
VERTEX
8
CUT
10
83.25
20
36.8269
0
SEQEND
0
POLYLINE
8
CUT
66
1
70
0
0
VERTEX
8
CUT
10
84.75
20
36.8269
0
VERTEX
8
CUT
10
85.4574
20
36.8269
0
VERTEX
8
CUT
10
85.1037
20
37.4396
0
SEQEND
0
POLYLINE
8
CUT
66
1
70
0
0
VERTEX
8
CUT
10
84.3537
20
38.7386
0
VERTEX
8
CUT
10
84
20
39.3513
0
VERTEX
8
CUT
10
83.6463
20
38.7386
0
SEQEND
0
LINE
8
CUT
10
86.1356
20
44.9513
11
95.8644
21
44.9513
0
LINE
8
CUT
10
96.2394
20
44.3018
11
91.375
21
35.8765
0
LINE
8
CUT
10
90.625
20
35.8765
11
85.7606
21
44.3018
0
POLYLINE
8
CUT
66
1
70
0
0
VERTEX
8
CUT
10
88.5106
20
41.1386
0
VERTEX
8
CUT
10
86.7713
20
44.1513
0
VERTEX
8
CUT
10
90.25
20
44.1513
0
SEQEND
0
POLYLINE
8
CUT
66
1
70
0
0
VERTEX
8
CUT
10
91.75
20
44.1513
0
VERTEX
8
CUT
10
95.2287
20
44.1513
0
VERTEX
8
CUT
10
93.4894
20
41.1386
0
SEQEND
0
POLYLINE
8
CUT
66
1
70
0
0
VERTEX
8
CUT
10
92.7394
20
39.8396
0
VERTEX
8
CUT
10
91
20
36.8269
0
VERTEX
8
CUT
10
89.2606
20
39.8396
0
SEQEND
0
LINE
8
CUT
10
88.9069
20
43.3513
11
93.0931
21
43.3513
0
LINE
8
CUT
10
93.4681
20
42.7018
11
91.375
21
39.0765
0
LINE
8
CUT
10
90.625
20
39.0765
11
88.5319
21
42.7018
0
POLYLINE
8
CUT
66
1
70
0
0
VERTEX
8
CUT
10
89.8963
20
41.9386
0
VERTEX
8
CUT
10
89.5426
20
42.5513
0
VERTEX
8
CUT
10
90.25
20
42.5513
0
SEQEND
0
POLYLINE
8
CUT
66
1
70
0
0
VERTEX
8
CUT
10
91.75
20
42.5513
0
VERTEX
8
CUT
10
92.4574
20
42.5513
0
VERTEX
8
CUT
10
92.1037
20
41.9386
0
SEQEND
0
POLYLINE
8
CUT
66
1
70
0
0
VERTEX
8
CUT
10
91.3537
20
40.6396
0
VERTEX
8
CUT
10
91
20
40.0269
0
VERTEX
8
CUT
10
90.6463
20
40.6396
0
SEQEND
0
LINE
8
CUT
10
93.1356
20
34.4269
11
102.8644
21
34.4269
0
LINE
8
CUT
10
103.2394
20
35.0765
11
98.375
21
43.5018
0
LINE
8
CUT
10
97.625
20
43.5018
11
92.7606
21
35.0765
0
POLYLINE
8
CUT
66
1
70
0
0
VERTEX
8
CUT
10
95.5106
20
38.2396
0
VERTEX
8
CUT
10
93.7713
20
35.2269
0
VERTEX
8
CUT
10
97.25
20
35.2269
0
SEQEND
0
POLYLINE
8
CUT
66
1
70
0
0
VERTEX
8
CUT
10
98.75
20
35.2269
0
VERTEX
8
CUT
10
102.2287
20
35.2269
0
VERTEX
8
CUT
10
100.4894
20
38.2396
0
SEQEND
0
POLYLINE
8
CUT
66
1
70
0
0
VERTEX
8
CUT
10
99.7394
20
39.5386
0
VERTEX
8
CUT
10
98
20
42.5513
0
VERTEX
8
CUT
10
96.2606
20
39.5386
0
SEQEND
0
LINE
8
CUT
10
95.9069
20
36.0269
11
100.0931
21
36.0269
0
LINE
8
CUT
10
100.4681
20
36.6765
11
98.375
21
40.3018
0
LINE
8
CUT
10
97.625
20
40.3018
11
95.5319
21
36.6765
0
POLYLINE
8
CUT
66
1
70
0
0
VERTEX
8
CUT
10
96.8963
20
37.4396
0
VERTEX
8
CUT
10
96.5426
20
36.8269
0
VERTEX
8
CUT
10
97.25
20
36.8269
0
SEQEND
0
POLYLINE
8
CUT
66
1
70
0
0
VERTEX
8
CUT
10
98.75
20
36.8269
0
VERTEX
8
CUT
10
99.4574
20
36.8269
0
VERTEX
8
CUT
10
99.1037
20
37.4396
0
SEQEND
0
POLYLINE
8
CUT
66
1
70
0
0
VERTEX
8
CUT
10
98.3537
20
38.7386
0
VERTEX
8
CUT
10
98
20
39.3513
0
VERTEX
8
CUT
10
97.6463
20
38.7386
0
SEQEND
0
LINE
8
CUT
10
100.1356
20
44.9513
11
109.8644
21
44.9513
0
LINE
8
CUT
10
110.2394
20
44.3018
11
105.375
21
35.8765
0
LINE
8
CUT
10
104.625
20
35.8765
11
99.7606
21
44.3018
0
POLYLINE
8
CUT
66
1
70
0
0
VERTEX
8
CUT
10
102.5106
20
41.1386
0
VERTEX
8
CUT
10
100.7713
20
44.1513
0
VERTEX
8
CUT
10
104.25
20
44.1513
0
SEQEND
0
POLYLINE
8
CUT
66
1
70
0
0
VERTEX
8
CUT
10
105.75
20
44.1513
0
VERTEX
8
CUT
10
109.2287
20
44.1513
0
VERTEX
8
CUT
10
107.4894
20
41.1386
0
SEQEND
0
POLYLINE
8
CUT
66
1
70
0
0
VERTEX
8
CUT
10
106.7394
20
39.8396
0
VERTEX
8
CUT
10
105
20
36.8269
0
VERTEX
8
CUT
10
103.2606
20
39.8396
0
SEQEND
0
LINE
8
CUT
10
102.9069
20
43.3513
11
107.0931
21
43.3513
0
LINE
8
CUT
10
107.4681
20
42.7018
11
105.375
21
39.0765
0
LINE
8
CUT
10
104.625
20
39.0765
11
102.5319
21
42.7018
0
POLYLINE
8
CUT
66
1
70
0
0
VERTEX
8
CUT
10
103.8963
20
41.9386
0
VERTEX
8
CUT
10
103.5426
20
42.5513
0
VERTEX
8
CUT
10
104.25
20
42.5513
0
SEQEND
0
POLYLINE
8
CUT
66
1
70
0
0
VERTEX
8
CUT
10
105.75
20
42.5513
0
VERTEX
8
CUT
10
106.4574
20
42.5513
0
VERTEX
8
CUT
10
106.1037
20
41.9386
0
SEQEND
0
POLYLINE
8
CUT
66
1
70
0
0
VERTEX
8
CUT
10
105.3537
20
40.6396
0
VERTEX
8
CUT
10
105
20
40.0269
0
VERTEX
8
CUT
10
104.6463
20
40.6396
0
SEQEND
0
LINE
8
CUT
10
107.1356
20
34.4269
11
116.8644
21
34.4269
0
LINE
8
CUT
10
117.2394
20
35.0765
11
112.375
21
43.5018
0
LINE
8
CUT
10
111.625
20
43.5018
11
106.7606
21
35.0765
0
POLYLINE
8
CUT
66
1
70
0
0
VERTEX
8
CUT
10
109.5106
20
38.2396
0
VERTEX
8
CUT
10
107.7713
20
35.2269
0
VERTEX
8
CUT
10
111.25
20
35.2269
0
SEQEND
0
POLYLINE
8
CUT
66
1
70
0
0
VERTEX
8
CUT
10
112.75
20
35.2269
0
VERTEX
8
CUT
10
116.2287
20
35.2269
0
VERTEX
8
CUT
10
114.4894
20
38.2396
0
SEQEND
0
POLYLINE
8
CUT
66
1
70
0
0
VERTEX
8
CUT
10
113.7394
20
39.5386
0
VERTEX
8
CUT
10
112
20
42.5513
0
VERTEX
8
CUT
10
110.2606
20
39.5386
0
SEQEND
0
LINE
8
CUT
10
109.9069
20
36.0269
11
114.0931
21
36.0269
0
LINE
8
CUT
10
114.4681
20
36.6765
11
112.375
21
40.3018
0
LINE
8
CUT
10
111.625
20
40.3018
11
109.5319
21
36.6765
0
POLYLINE
8
CUT
66
1
70
0
0
VERTEX
8
CUT
10
110.8963
20
37.4396
0
VERTEX
8
CUT
10
110.5426
20
36.8269
0
VERTEX
8
CUT
10
111.25
20
36.8269
0
SEQEND
0
POLYLINE
8
CUT
66
1
70
0
0
VERTEX
8
CUT
10
112.75
20
36.8269
0
VERTEX
8
CUT
10
113.4574
20
36.8269
0
VERTEX
8
CUT
10
113.1037
20
37.4396
0
SEQEND
0
POLYLINE
8
CUT
66
1
70
0
0
VERTEX
8
CUT
10
112.3537
20
38.7386
0
VERTEX
8
CUT
10
112
20
39.3513
0
VERTEX
8
CUT
10
111.6463
20
38.7386
0
SEQEND
0
LINE
8
CUT
10
114.1356
20
44.9513
11
120
21
44.9513
0
LINE
8
CUT
10
120
20
36.959
11
119.375
21
35.8765
0
LINE
8
CUT
10
118.625
20
35.8765
11
113.7606
21
44.3018
0
POLYLINE
8
CUT
66
1
70
0
0
VERTEX
8
CUT
10
116.5106
20
41.1386
0
VERTEX
8
CUT
10
114.7713
20
44.1513
0
VERTEX
8
CUT
10
118.25
20
44.1513
0
SEQEND
0
POLYLINE
8
CUT
66
1
70
0
0
VERTEX
8
CUT
10
120
20
38.559
0
VERTEX
8
CUT
10
119
20
36.8269
0
VERTEX
8
CUT
10
117.2606
20
39.8396
0
SEQEND
0
LINE
8
CUT
10
116.9069
20
43.3513
11
120
21
43.3513
0
LINE
8
CUT
10
120
20
40.159
11
119.375
21
39.0765
0
LINE
8
CUT
10
118.625
20
39.0765
11
116.5319
21
42.7018
0
POLYLINE
8
CUT
66
1
70
0
0
VERTEX
8
CUT
10
117.8963
20
41.9386
0
VERTEX
8
CUT
10
117.5426
20
42.5513
0
VERTEX
8
CUT
10
118.25
20
42.5513
0
SEQEND
0
POLYLINE
8
CUT
66
1
70
0
0
VERTEX
8
CUT
10
119.3537
20
40.6396
0
VERTEX
8
CUT
10
119
20
40.0269
0
VERTEX
8
CUT
10
118.6463
20
40.6396
0
SEQEND
0
LINE
8
CUT
10
0
20
32.8269
11
4.8644
21
32.8269
0
LINE
8
CUT
10
5.2394
20
32.1774
11
0.375
21
23.7521
0
POLYLINE
8
CUT
66
1
70
0
0
VERTEX
8
CUT
10
0.75
20
32.0269
0
VERTEX
8
CUT
10
4.2287
20
32.0269
0
VERTEX
8
CUT
10
2.4894
20
29.0143
0
SEQEND
0
POLYLINE
8
CUT
66
1
70
0
0
VERTEX
8
CUT
10
1.7394
20
27.7152
0
VERTEX
8
CUT
10
0
20
24.7026
0
VERTEX
8
CUT
10
0
20
24.7026
0
SEQEND
0
LINE
8
CUT
10
0
20
31.2269
11
2.0931
21
31.2269
0
LINE
8
CUT
10
2.4681
20
30.5774
11
0.375
21
26.9521
0
POLYLINE
8
CUT
66
1
70
0
0
VERTEX
8
CUT
10
0.75
20
30.4269
0
VERTEX
8
CUT
10
1.4574
20
30.4269
0
VERTEX
8
CUT
10
1.1037
20
29.8143
0
SEQEND
0
POLYLINE
8
CUT
66
1
70
0
0
VERTEX
8
CUT
10
0.3537
20
28.5152
0
VERTEX
8
CUT
10
0
20
27.9026
0
VERTEX
8
CUT
10
0
20
27.9026
0
SEQEND
0
LINE
8
CUT
10
2.1356
20
22.3026
11
11.8644
21
22.3026
0
LINE
8
CUT
10
12.2394
20
22.9521
11
7.375
21
31.3774
0
LINE
8
CUT
10
6.625
20
31.3774
11
1.7606
21
22.9521
0
POLYLINE
8
CUT
66
1
70
0
0
VERTEX
8
CUT
10
4.5106
20
26.1152
0
VERTEX
8
CUT
10
2.7713
20
23.1026
0
VERTEX
8
CUT
10
6.25
20
23.1026
0
SEQEND
0
POLYLINE
8
CUT
66
1
70
0
0
VERTEX
8
CUT
10
7.75
20
23.1026
0
VERTEX
8
CUT
10
11.2287
20
23.1026
0
VERTEX
8
CUT
10
9.4894
20
26.1152
0
SEQEND
0
POLYLINE
8
CUT
66
1
70
0
0
VERTEX
8
CUT
10
8.7394
20
27.4143
0
VERTEX
8
CUT
10
7
20
30.4269
0
VERTEX
8
CUT
10
5.2606
20
27.4143
0
SEQEND
0
LINE
8
CUT
10
4.9069
20
23.9026
11
9.0931
21
23.9026
0
LINE
8
CUT
10
9.4681
20
24.5521
11
7.375
21
28.1774
0
LINE
8
CUT
10
6.625
20
28.1774
11
4.5319
21
24.5521
0
POLYLINE
8
CUT
66
1
70
0
0
VERTEX
8
CUT
10
5.8963
20
25.3152
0
VERTEX
8
CUT
10
5.5426
20
24.7026
0
VERTEX
8
CUT
10
6.25
20
24.7026
0
SEQEND
0
POLYLINE
8
CUT
66
1
70
0
0
VERTEX
8
CUT
10
7.75
20
24.7026
0
VERTEX
8
CUT
10
8.4574
20
24.7026
0
VERTEX
8
CUT
10
8.1037
20
25.3152
0
SEQEND
0
POLYLINE
8
CUT
66
1
70
0
0
VERTEX
8
CUT
10
7.3537
20
26.6143
0
VERTEX
8
CUT
10
7
20
27.2269
0
VERTEX
8
CUT
10
6.6463
20
26.6143
0
SEQEND
0
LINE
8
CUT
10
9.1356
20
32.8269
11
18.8644
21
32.8269
0
LINE
8
CUT
10
19.2394
20
32.1774
11
14.375
21
23.7521
0
LINE
8
CUT
10
13.625
20
23.7521
11
8.7606
21
32.1774
0
POLYLINE
8
CUT
66
1
70
0
0
VERTEX
8
CUT
10
11.5106
20
29.0143
0
VERTEX
8
CUT
10
9.7713
20
32.0269
0
VERTEX
8
CUT
10
13.25
20
32.0269
0
SEQEND
0
POLYLINE
8
CUT
66
1
70
0
0
VERTEX
8
CUT
10
14.75
20
32.0269
0
VERTEX
8
CUT
10
18.2287
20
32.0269
0
VERTEX
8
CUT
10
16.4894
20
29.0143
0
SEQEND
0
POLYLINE
8
CUT
66
1
70
0
0
VERTEX
8
CUT
10
15.7394
20
27.7152
0
VERTEX
8
CUT
10
14
20
24.7026
0
VERTEX
8
CUT
10
12.2606
20
27.7152
0
SEQEND
0
LINE
8
CUT
10
11.9069
20
31.2269
11
16.0931
21
31.2269
0
LINE
8
CUT
10
16.4681
20
30.5774
11
14.375
21
26.9521
0
LINE
8
CUT
10
13.625
20
26.9521
11
11.5319
21
30.5774
0
POLYLINE
8
CUT
66
1
70
0
0
VERTEX
8
CUT
10
12.8963
20
29.8143
0
VERTEX
8
CUT
10
12.5426
20
30.4269
0
VERTEX
8
CUT
10
13.25
20
30.4269
0
SEQEND
0
POLYLINE
8
CUT
66
1
70
0
0
VERTEX
8
CUT
10
14.75
20
30.4269
0
VERTEX
8
CUT
10
15.4574
20
30.4269
0
VERTEX
8
CUT
10
15.1037
20
29.8143
0
SEQEND
0
POLYLINE
8
CUT
66
1
70
0
0
VERTEX
8
CUT
10
14.3537
20
28.5152
0
VERTEX
8
CUT
10
14
20
27.9026
0
VERTEX
8
CUT
10
13.6463
20
28.5152
0
SEQEND
0
LINE
8
CUT
10
16.1356
20
22.3026
11
25.8644
21
22.3026
0
LINE
8
CUT
10
26.2394
20
22.9521
11
21.375
21
31.3774
0
LINE
8
CUT
10
20.625
20
31.3774
11
15.7606
21
22.9521
0
POLYLINE
8
CUT
66
1
70
0
0
VERTEX
8
CUT
10
18.5106
20
26.1152
0
VERTEX
8
CUT
10
16.7713
20
23.1026
0
VERTEX
8
CUT
10
20.25
20
23.1026
0
SEQEND
0
POLYLINE
8
CUT
66
1
70
0
0
VERTEX
8
CUT
10
21.75
20
23.1026
0
VERTEX
8
CUT
10
25.2287
20
23.1026
0
VERTEX
8
CUT
10
23.4894
20
26.1152
0
SEQEND
0
POLYLINE
8
CUT
66
1
70
0
0
VERTEX
8
CUT
10
22.7394
20
27.4143
0
VERTEX
8
CUT
10
21
20
30.4269
0
VERTEX
8
CUT
10
19.2606
20
27.4143
0
SEQEND
0
LINE
8
CUT
10
18.9069
20
23.9026
11
23.0931
21
23.9026
0
LINE
8
CUT
10
23.4681
20
24.5521
11
21.375
21
28.1774
0
LINE
8
CUT
10
20.625
20
28.1774
11
18.5319
21
24.5521
0
POLYLINE
8
CUT
66
1
70
0
0
VERTEX
8
CUT
10
19.8963
20
25.3152
0
VERTEX
8
CUT
10
19.5426
20
24.7026
0
VERTEX
8
CUT
10
20.25
20
24.7026
0
SEQEND
0
POLYLINE
8
CUT
66
1
70
0
0
VERTEX
8
CUT
10
21.75
20
24.7026
0
VERTEX
8
CUT
10
22.4574
20
24.7026
0
VERTEX
8
CUT
10
22.1037
20
25.3152
0
SEQEND
0
POLYLINE
8
CUT
66
1
70
0
0
VERTEX
8
CUT
10
21.3537
20
26.6143
0
VERTEX
8
CUT
10
21
20
27.2269
0
VERTEX
8
CUT
10
20.6463
20
26.6143
0
SEQEND
0
LINE
8
CUT
10
23.1356
20
32.8269
11
32.8644
21
32.8269
0
LINE
8
CUT
10
33.2394
20
32.1774
11
28.375
21
23.7521
0
LINE
8
CUT
10
27.625
20
23.7521
11
22.7606
21
32.1774
0
POLYLINE
8
CUT
66
1
70
0
0
VERTEX
8
CUT
10
25.5106
20
29.0143
0
VERTEX
8
CUT
10
23.7713
20
32.0269
0
VERTEX
8
CUT
10
27.25
20
32.0269
0
SEQEND
0
POLYLINE
8
CUT
66
1
70
0
0
VERTEX
8
CUT
10
28.75
20
32.0269
0
VERTEX
8
CUT
10
32.2287
20
32.0269
0
VERTEX
8
CUT
10
30.4894
20
29.0143
0
SEQEND
0
POLYLINE
8
CUT
66
1
70
0
0
VERTEX
8
CUT
10
29.7394
20
27.7152
0
VERTEX
8
CUT
10
28
20
24.7026
0
VERTEX
8
CUT
10
26.2606
20
27.7152
0
SEQEND
0
LINE
8
CUT
10
25.9069
20
31.2269
11
30.0931
21
31.2269
0
LINE
8
CUT
10
30.4681
20
30.5774
11
28.375
21
26.9521
0
LINE
8
CUT
10
27.625
20
26.9521
11
25.5319
21
30.5774
0
POLYLINE
8
CUT
66
1
70
0
0
VERTEX
8
CUT
10
26.8963
20
29.8143
0
VERTEX
8
CUT
10
26.5426
20
30.4269
0
VERTEX
8
CUT
10
27.25
20
30.4269
0
SEQEND
0
POLYLINE
8
CUT
66
1
70
0
0
VERTEX
8
CUT
10
28.75
20
30.4269
0
VERTEX
8
CUT
10
29.4574
20
30.4269
0
VERTEX
8
CUT
10
29.1037
20
29.8143
0
SEQEND
0
POLYLINE
8
CUT
66
1
70
0
0
VERTEX
8
CUT
10
28.3537
20
28.5152
0
VERTEX
8
CUT
10
28
20
27.9026
0
VERTEX
8
CUT
10
27.6463
20
28.5152
0
SEQEND
0
LINE
8
CUT
10
30.1356
20
22.3026
11
39.8644
21
22.3026
0
LINE
8
CUT
10
40.2394
20
22.9521
11
35.375
21
31.3774
0
LINE
8
CUT
10
34.625
20
31.3774
11
29.7606
21
22.9521
0
POLYLINE
8
CUT
66
1
70
0
0
VERTEX
8
CUT
10
32.5106
20
26.1152
0
VERTEX
8
CUT
10
30.7713
20
23.1026
0
VERTEX
8
CUT
10
34.25
20
23.1026
0
SEQEND
0
POLYLINE
8
CUT
66
1
70
0
0
VERTEX
8
CUT
10
35.75
20
23.1026
0
VERTEX
8
CUT
10
39.2287
20
23.1026
0
VERTEX
8
CUT
10
37.4894
20
26.1152
0
SEQEND
0
POLYLINE
8
CUT
66
1
70
0
0
VERTEX
8
CUT
10
36.7394
20
27.4143
0
VERTEX
8
CUT
10
35
20
30.4269
0
VERTEX
8
CUT
10
33.2606
20
27.4143
0
SEQEND
0
LINE
8
CUT
10
32.9069
20
23.9026
11
37.0931
21
23.9026
0
LINE
8
CUT
10
37.4681
20
24.5521
11
35.375
21
28.1774
0
LINE
8
CUT
10
34.625
20
28.1774
11
32.5319
21
24.5521
0
POLYLINE
8
CUT
66
1
70
0
0
VERTEX
8
CUT
10
33.8963
20
25.3152
0
VERTEX
8
CUT
10
33.5426
20
24.7026
0
VERTEX
8
CUT
10
34.25
20
24.7026
0
SEQEND
0
POLYLINE
8
CUT
66
1
70
0
0
VERTEX
8
CUT
10
35.75
20
24.7026
0
VERTEX
8
CUT
10
36.4574
20
24.7026
0
VERTEX
8
CUT
10
36.1037
20
25.3152
0
SEQEND
0
POLYLINE
8
CUT
66
1
70
0
0
VERTEX
8
CUT
10
35.3537
20
26.6143
0
VERTEX
8
CUT
10
35
20
27.2269
0
VERTEX
8
CUT
10
34.6463
20
26.6143
0
SEQEND
0
LINE
8
CUT
10
37.1356
20
32.8269
11
46.8644
21
32.8269
0
LINE
8
CUT
10
47.2394
20
32.1774
11
42.375
21
23.7521
0
LINE
8
CUT
10
41.625
20
23.7521
11
36.7606
21
32.1774
0
POLYLINE
8
CUT
66
1
70
0
0
VERTEX
8
CUT
10
39.5106
20
29.0143
0
VERTEX
8
CUT
10
37.7713
20
32.0269
0
VERTEX
8
CUT
10
41.25
20
32.0269
0
SEQEND
0
POLYLINE
8
CUT
66
1
70
0
0
VERTEX
8
CUT
10
42.75
20
32.0269
0
VERTEX
8
CUT
10
46.2287
20
32.0269
0
VERTEX
8
CUT
10
44.4894
20
29.0143
0
SEQEND
0
POLYLINE
8
CUT
66
1
70
0
0
VERTEX
8
CUT
10
43.7394
20
27.7152
0
VERTEX
8
CUT
10
42
20
24.7026
0
VERTEX
8
CUT
10
40.2606
20
27.7152
0
SEQEND
0
LINE
8
CUT
10
39.9069
20
31.2269
11
44.0931
21
31.2269
0
LINE
8
CUT
10
44.4681
20
30.5774
11
42.375
21
26.9521
0
LINE
8
CUT
10
41.625
20
26.9521
11
39.5319
21
30.5774
0
POLYLINE
8
CUT
66
1
70
0
0
VERTEX
8
CUT
10
40.8963
20
29.8143
0
VERTEX
8
CUT
10
40.5426
20
30.4269
0
VERTEX
8
CUT
10
41.25
20
30.4269
0
SEQEND
0
POLYLINE
8
CUT
66
1
70
0
0
VERTEX
8
CUT
10
42.75
20
30.4269
0
VERTEX
8
CUT
10
43.4574
20
30.4269
0
VERTEX
8
CUT
10
43.1037
20
29.8143
0
SEQEND
0
POLYLINE
8
CUT
66
1
70
0
0
VERTEX
8
CUT
10
42.3537
20
28.5152
0
VERTEX
8
CUT
10
42
20
27.9026
0
VERTEX
8
CUT
10
41.6463
20
28.5152
0
SEQEND
0
LINE
8
CUT
10
44.1356
20
22.3026
11
53.8644
21
22.3026
0
LINE
8
CUT
10
54.2394
20
22.9521
11
49.375
21
31.3774
0
LINE
8
CUT
10
48.625
20
31.3774
11
43.7606
21
22.9521
0
POLYLINE
8
CUT
66
1
70
0
0
VERTEX
8
CUT
10
46.5106
20
26.1152
0
VERTEX
8
CUT
10
44.7713
20
23.1026
0
VERTEX
8
CUT
10
48.25
20
23.1026
0
SEQEND
0
POLYLINE
8
CUT
66
1
70
0
0
VERTEX
8
CUT
10
49.75
20
23.1026
0
VERTEX
8
CUT
10
53.2287
20
23.1026
0
VERTEX
8
CUT
10
51.4894
20
26.1152
0
SEQEND
0
POLYLINE
8
CUT
66
1
70
0
0
VERTEX
8
CUT
10
50.7394
20
27.4143
0
VERTEX
8
CUT
10
49
20
30.4269
0
VERTEX
8
CUT
10
47.2606
20
27.4143
0
SEQEND
0
LINE
8
CUT
10
46.9069
20
23.9026
11
51.0931
21
23.9026
0
LINE
8
CUT
10
51.4681
20
24.5521
11
49.375
21
28.1774
0
LINE
8
CUT
10
48.625
20
28.1774
11
46.5319
21
24.5521
0
POLYLINE
8
CUT
66
1
70
0
0
VERTEX
8
CUT
10
47.8963
20
25.3152
0
VERTEX
8
CUT
10
47.5426
20
24.7026
0
VERTEX
8
CUT
10
48.25
20
24.7026
0
SEQEND
0
POLYLINE
8
CUT
66
1
70
0
0
VERTEX
8
CUT
10
49.75
20
24.7026
0
VERTEX
8
CUT
10
50.4574
20
24.7026
0
VERTEX
8
CUT
10
50.1037
20
25.3152
0
SEQEND
0
POLYLINE
8
CUT
66
1
70
0
0
VERTEX
8
CUT
10
49.3537
20
26.6143
0
VERTEX
8
CUT
10
49
20
27.2269
0
VERTEX
8
CUT
10
48.6463
20
26.6143
0
SEQEND
0
LINE
8
CUT
10
51.1356
20
32.8269
11
60.8644
21
32.8269
0
LINE
8
CUT
10
61.2394
20
32.1774
11
56.375
21
23.7521
0
LINE
8
CUT
10
55.625
20
23.7521
11
50.7606
21
32.1774
0
POLYLINE
8
CUT
66
1
70
0
0
VERTEX
8
CUT
10
53.5106
20
29.0143
0
VERTEX
8
CUT
10
51.7713
20
32.0269
0
VERTEX
8
CUT
10
55.25
20
32.0269
0
SEQEND
0
POLYLINE
8
CUT
66
1
70
0
0
VERTEX
8
CUT
10
56.75
20
32.0269
0
VERTEX
8
CUT
10
60.2287
20
32.0269
0
VERTEX
8
CUT
10
58.4894
20
29.0143
0
SEQEND
0
POLYLINE
8
CUT
66
1
70
0
0
VERTEX
8
CUT
10
57.7394
20
27.7152
0
VERTEX
8
CUT
10
56
20
24.7026
0
VERTEX
8
CUT
10
54.2606
20
27.7152
0
SEQEND
0
LINE
8
CUT
10
53.9069
20
31.2269
11
58.0931
21
31.2269
0
LINE
8
CUT
10
58.4681
20
30.5774
11
56.375
21
26.9521
0
LINE
8
CUT
10
55.625
20
26.9521
11
53.5319
21
30.5774
0
POLYLINE
8
CUT
66
1
70
0
0
VERTEX
8
CUT
10
54.8963
20
29.8143
0
VERTEX
8
CUT
10
54.5426
20
30.4269
0
VERTEX
8
CUT
10
55.25
20
30.4269
0
SEQEND
0
POLYLINE
8
CUT
66
1
70
0
0
VERTEX
8
CUT
10
56.75
20
30.4269
0
VERTEX
8
CUT
10
57.4574
20
30.4269
0
VERTEX
8
CUT
10
57.1037
20
29.8143
0
SEQEND
0
POLYLINE
8
CUT
66
1
70
0
0
VERTEX
8
CUT
10
56.3537
20
28.5152
0
VERTEX
8
CUT
10
56
20
27.9026
0
VERTEX
8
CUT
10
55.6463
20
28.5152
0
SEQEND
0
LINE
8
CUT
10
58.1356
20
22.3026
11
67.8644
21
22.3026
0
LINE
8
CUT
10
68.2394
20
22.9521
11
63.375
21
31.3774
0
LINE
8
CUT
10
62.625
20
31.3774
11
57.7606
21
22.9521
0
POLYLINE
8
CUT
66
1
70
0
0
VERTEX
8
CUT
10
60.5106
20
26.1152
0
VERTEX
8
CUT
10
58.7713
20
23.1026
0
VERTEX
8
CUT
10
62.25
20
23.1026
0
SEQEND
0
POLYLINE
8
CUT
66
1
70
0
0
VERTEX
8
CUT
10
63.75
20
23.1026
0
VERTEX
8
CUT
10
67.2287
20
23.1026
0
VERTEX
8
CUT
10
65.4894
20
26.1152
0
SEQEND
0
POLYLINE
8
CUT
66
1
70
0
0
VERTEX
8
CUT
10
64.7394
20
27.4143
0
VERTEX
8
CUT
10
63
20
30.4269
0
VERTEX
8
CUT
10
61.2606
20
27.4143
0
SEQEND
0
LINE
8
CUT
10
60.9069
20
23.9026
11
65.0931
21
23.9026
0
LINE
8
CUT
10
65.4681
20
24.5521
11
63.375
21
28.1774
0
LINE
8
CUT
10
62.625
20
28.1774
11
60.5319
21
24.5521
0
POLYLINE
8
CUT
66
1
70
0
0
VERTEX
8
CUT
10
61.8963
20
25.3152
0
VERTEX
8
CUT
10
61.5426
20
24.7026
0
VERTEX
8
CUT
10
62.25
20
24.7026
0
SEQEND
0
POLYLINE
8
CUT
66
1
70
0
0
VERTEX
8
CUT
10
63.75
20
24.7026
0
VERTEX
8
CUT
10
64.4574
20
24.7026
0
VERTEX
8
CUT
10
64.1037
20
25.3152
0
SEQEND
0
POLYLINE
8
CUT
66
1
70
0
0
VERTEX
8
CUT
10
63.3537
20
26.6143
0
VERTEX
8
CUT
10
63
20
27.2269
0
VERTEX
8
CUT
10
62.6463
20
26.6143
0
SEQEND
0
LINE
8
CUT
10
65.1356
20
32.8269
11
74.8644
21
32.8269
0
LINE
8
CUT
10
75.2394
20
32.1774
11
70.375
21
23.7521
0
LINE
8
CUT
10
69.625
20
23.7521
11
64.7606
21
32.1774
0
POLYLINE
8
CUT
66
1
70
0
0
VERTEX
8
CUT
10
67.5106
20
29.0143
0
VERTEX
8
CUT
10
65.7713
20
32.0269
0
VERTEX
8
CUT
10
69.25
20
32.0269
0
SEQEND
0
POLYLINE
8
CUT
66
1
70
0
0
VERTEX
8
CUT
10
70.75
20
32.0269
0
VERTEX
8
CUT
10
74.2287
20
32.0269
0
VERTEX
8
CUT
10
72.4894
20
29.0143
0
SEQEND
0
POLYLINE
8
CUT
66
1
70
0
0
VERTEX
8
CUT
10
71.7394
20
27.7152
0
VERTEX
8
CUT
10
70
20
24.7026
0
VERTEX
8
CUT
10
68.2606
20
27.7152
0
SEQEND
0
LINE
8
CUT
10
67.9069
20
31.2269
11
72.0931
21
31.2269
0
LINE
8
CUT
10
72.4681
20
30.5774
11
70.375
21
26.9521
0
LINE
8
CUT
10
69.625
20
26.9521
11
67.5319
21
30.5774
0
POLYLINE
8
CUT
66
1
70
0
0
VERTEX
8
CUT
10
68.8963
20
29.8143
0
VERTEX
8
CUT
10
68.5426
20
30.4269
0
VERTEX
8
CUT
10
69.25
20
30.4269
0
SEQEND
0
POLYLINE
8
CUT
66
1
70
0
0
VERTEX
8
CUT
10
70.75
20
30.4269
0
VERTEX
8
CUT
10
71.4574
20
30.4269
0
VERTEX
8
CUT
10
71.1037
20
29.8143
0
SEQEND
0
POLYLINE
8
CUT
66
1
70
0
0
VERTEX
8
CUT
10
70.3537
20
28.5152
0
VERTEX
8
CUT
10
70
20
27.9026
0
VERTEX
8
CUT
10
69.6463
20
28.5152
0
SEQEND
0
LINE
8
CUT
10
72.1356
20
22.3026
11
81.8644
21
22.3026
0
LINE
8
CUT
10
82.2394
20
22.9521
11
77.375
21
31.3774
0
LINE
8
CUT
10
76.625
20
31.3774
11
71.7606
21
22.9521
0
POLYLINE
8
CUT
66
1
70
0
0
VERTEX
8
CUT
10
74.5106
20
26.1152
0
VERTEX
8
CUT
10
72.7713
20
23.1026
0
VERTEX
8
CUT
10
76.25
20
23.1026
0
SEQEND
0
POLYLINE
8
CUT
66
1
70
0
0
VERTEX
8
CUT
10
77.75
20
23.1026
0
VERTEX
8
CUT
10
81.2287
20
23.1026
0
VERTEX
8
CUT
10
79.4894
20
26.1152
0
SEQEND
0
POLYLINE
8
CUT
66
1
70
0
0
VERTEX
8
CUT
10
78.7394
20
27.4143
0
VERTEX
8
CUT
10
77
20
30.4269
0
VERTEX
8
CUT
10
75.2606
20
27.4143
0
SEQEND
0
LINE
8
CUT
10
74.9069
20
23.9026
11
79.0931
21
23.9026
0
LINE
8
CUT
10
79.4681
20
24.5521
11
77.375
21
28.1774
0
LINE
8
CUT
10
76.625
20
28.1774
11
74.5319
21
24.5521
0
POLYLINE
8
CUT
66
1
70
0
0
VERTEX
8
CUT
10
75.8963
20
25.3152
0
VERTEX
8
CUT
10
75.5426
20
24.7026
0
VERTEX
8
CUT
10
76.25
20
24.7026
0
SEQEND
0
POLYLINE
8
CUT
66
1
70
0
0
VERTEX
8
CUT
10
77.75
20
24.7026
0
VERTEX
8
CUT
10
78.4574
20
24.7026
0
VERTEX
8
CUT
10
78.1037
20
25.3152
0
SEQEND
0
POLYLINE
8
CUT
66
1
70
0
0
VERTEX
8
CUT
10
77.3537
20
26.6143
0
VERTEX
8
CUT
10
77
20
27.2269
0
VERTEX
8
CUT
10
76.6463
20
26.6143
0
SEQEND
0
LINE
8
CUT
10
79.1356
20
32.8269
11
88.8644
21
32.8269
0
LINE
8
CUT
10
89.2394
20
32.1774
11
84.375
21
23.7521
0
LINE
8
CUT
10
83.625
20
23.7521
11
78.7606
21
32.1774
0
POLYLINE
8
CUT
66
1
70
0
0
VERTEX
8
CUT
10
81.5106
20
29.0143
0
VERTEX
8
CUT
10
79.7713
20
32.0269
0
VERTEX
8
CUT
10
83.25
20
32.0269
0
SEQEND
0
POLYLINE
8
CUT
66
1
70
0
0
VERTEX
8
CUT
10
84.75
20
32.0269
0
VERTEX
8
CUT
10
88.2287
20
32.0269
0
VERTEX
8
CUT
10
86.4894
20
29.0143
0
SEQEND
0
POLYLINE
8
CUT
66
1
70
0
0
VERTEX
8
CUT
10
85.7394
20
27.7152
0
VERTEX
8
CUT
10
84
20
24.7026
0
VERTEX
8
CUT
10
82.2606
20
27.7152
0
SEQEND
0
LINE
8
CUT
10
81.9069
20
31.2269
11
86.0931
21
31.2269
0
LINE
8
CUT
10
86.4681
20
30.5774
11
84.375
21
26.9521
0
LINE
8
CUT
10
83.625
20
26.9521
11
81.5319
21
30.5774
0
POLYLINE
8
CUT
66
1
70
0
0
VERTEX
8
CUT
10
82.8963
20
29.8143
0
VERTEX
8
CUT
10
82.5426
20
30.4269
0
VERTEX
8
CUT
10
83.25
20
30.4269
0
SEQEND
0
POLYLINE
8
CUT
66
1
70
0
0
VERTEX
8
CUT
10
84.75
20
30.4269
0
VERTEX
8
CUT
10
85.4574
20
30.4269
0
VERTEX
8
CUT
10
85.1037
20
29.8143
0
SEQEND
0
POLYLINE
8
CUT
66
1
70
0
0
VERTEX
8
CUT
10
84.3537
20
28.5152
0
VERTEX
8
CUT
10
84
20
27.9026
0
VERTEX
8
CUT
10
83.6463
20
28.5152
0
SEQEND
0
LINE
8
CUT
10
86.1356
20
22.3026
11
95.8644
21
22.3026
0
LINE
8
CUT
10
96.2394
20
22.9521
11
91.375
21
31.3774
0
LINE
8
CUT
10
90.625
20
31.3774
11
85.7606
21
22.9521
0
POLYLINE
8
CUT
66
1
70
0
0
VERTEX
8
CUT
10
88.5106
20
26.1152
0
VERTEX
8
CUT
10
86.7713
20
23.1026
0
VERTEX
8
CUT
10
90.25
20
23.1026
0
SEQEND
0
POLYLINE
8
CUT
66
1
70
0
0
VERTEX
8
CUT
10
91.75
20
23.1026
0
VERTEX
8
CUT
10
95.2287
20
23.1026
0
VERTEX
8
CUT
10
93.4894
20
26.1152
0
SEQEND
0
POLYLINE
8
CUT
66
1
70
0
0
VERTEX
8
CUT
10
92.7394
20
27.4143
0
VERTEX
8
CUT
10
91
20
30.4269
0
VERTEX
8
CUT
10
89.2606
20
27.4143
0
SEQEND
0
LINE
8
CUT
10
88.9069
20
23.9026
11
93.0931
21
23.9026
0
LINE
8
CUT
10
93.4681
20
24.5521
11
91.375
21
28.1774
0
LINE
8
CUT
10
90.625
20
28.1774
11
88.5319
21
24.5521
0
POLYLINE
8
CUT
66
1
70
0
0
VERTEX
8
CUT
10
89.8963
20
25.3152
0
VERTEX
8
CUT
10
89.5426
20
24.7026
0
VERTEX
8
CUT
10
90.25
20
24.7026
0
SEQEND
0
POLYLINE
8
CUT
66
1
70
0
0
VERTEX
8
CUT
10
91.75
20
24.7026
0
VERTEX
8
CUT
10
92.4574
20
24.7026
0
VERTEX
8
CUT
10
92.1037
20
25.3152
0
SEQEND
0
POLYLINE
8
CUT
66
1
70
0
0
VERTEX
8
CUT
10
91.3537
20
26.6143
0
VERTEX
8
CUT
10
91
20
27.2269
0
VERTEX
8
CUT
10
90.6463
20
26.6143
0
SEQEND
0
LINE
8
CUT
10
93.1356
20
32.8269
11
102.8644
21
32.8269
0
LINE
8
CUT
10
103.2394
20
32.1774
11
98.375
21
23.7521
0
LINE
8
CUT
10
97.625
20
23.7521
11
92.7606
21
32.1774
0
POLYLINE
8
CUT
66
1
70
0
0
VERTEX
8
CUT
10
95.5106
20
29.0143
0
VERTEX
8
CUT
10
93.7713
20
32.0269
0
VERTEX
8
CUT
10
97.25
20
32.0269
0
SEQEND
0
POLYLINE
8
CUT
66
1
70
0
0
VERTEX
8
CUT
10
98.75
20
32.0269
0
VERTEX
8
CUT
10
102.2287
20
32.0269
0
VERTEX
8
CUT
10
100.4894
20
29.0143
0
SEQEND
0
POLYLINE
8
CUT
66
1
70
0
0
VERTEX
8
CUT
10
99.7394
20
27.7152
0
VERTEX
8
CUT
10
98
20
24.7026
0
VERTEX
8
CUT
10
96.2606
20
27.7152
0
SEQEND
0
LINE
8
CUT
10
95.9069
20
31.2269
11
100.0931
21
31.2269
0
LINE
8
CUT
10
100.4681
20
30.5774
11
98.375
21
26.9521
0
LINE
8
CUT
10
97.625
20
26.9521
11
95.5319
21
30.5774
0
POLYLINE
8
CUT
66
1
70
0
0
VERTEX
8
CUT
10
96.8963
20
29.8143
0
VERTEX
8
CUT
10
96.5426
20
30.4269
0
VERTEX
8
CUT
10
97.25
20
30.4269
0
SEQEND
0
POLYLINE
8
CUT
66
1
70
0
0
VERTEX
8
CUT
10
98.75
20
30.4269
0
VERTEX
8
CUT
10
99.4574
20
30.4269
0
VERTEX
8
CUT
10
99.1037
20
29.8143
0
SEQEND
0
POLYLINE
8
CUT
66
1
70
0
0
VERTEX
8
CUT
10
98.3537
20
28.5152
0
VERTEX
8
CUT
10
98
20
27.9026
0
VERTEX
8
CUT
10
97.6463
20
28.5152
0
SEQEND
0
LINE
8
CUT
10
100.1356
20
22.3026
11
109.8644
21
22.3026
0
LINE
8
CUT
10
110.2394
20
22.9521
11
105.375
21
31.3774
0
LINE
8
CUT
10
104.625
20
31.3774
11
99.7606
21
22.9521
0
POLYLINE
8
CUT
66
1
70
0
0
VERTEX
8
CUT
10
102.5106
20
26.1152
0
VERTEX
8
CUT
10
100.7713
20
23.1026
0
VERTEX
8
CUT
10
104.25
20
23.1026
0
SEQEND
0
POLYLINE
8
CUT
66
1
70
0
0
VERTEX
8
CUT
10
105.75
20
23.1026
0
VERTEX
8
CUT
10
109.2287
20
23.1026
0
VERTEX
8
CUT
10
107.4894
20
26.1152
0
SEQEND
0
POLYLINE
8
CUT
66
1
70
0
0
VERTEX
8
CUT
10
106.7394
20
27.4143
0
VERTEX
8
CUT
10
105
20
30.4269
0
VERTEX
8
CUT
10
103.2606
20
27.4143
0
SEQEND
0
LINE
8
CUT
10
102.9069
20
23.9026
11
107.0931
21
23.9026
0
LINE
8
CUT
10
107.4681
20
24.5521
11
105.375
21
28.1774
0
LINE
8
CUT
10
104.625
20
28.1774
11
102.5319
21
24.5521
0
POLYLINE
8
CUT
66
1
70
0
0
VERTEX
8
CUT
10
103.8963
20
25.3152
0
VERTEX
8
CUT
10
103.5426
20
24.7026
0
VERTEX
8
CUT
10
104.25
20
24.7026
0
SEQEND
0
POLYLINE
8
CUT
66
1
70
0
0
VERTEX
8
CUT
10
105.75
20
24.7026
0
VERTEX
8
CUT
10
106.4574
20
24.7026
0
VERTEX
8
CUT
10
106.1037
20
25.3152
0
SEQEND
0
POLYLINE
8
CUT
66
1
70
0
0
VERTEX
8
CUT
10
105.3537
20
26.6143
0
VERTEX
8
CUT
10
105
20
27.2269
0
VERTEX
8
CUT
10
104.6463
20
26.6143
0
SEQEND
0
LINE
8
CUT
10
107.1356
20
32.8269
11
116.8644
21
32.8269
0
LINE
8
CUT
10
117.2394
20
32.1774
11
112.375
21
23.7521
0
LINE
8
CUT
10
111.625
20
23.7521
11
106.7606
21
32.1774
0
POLYLINE
8
CUT
66
1
70
0
0
VERTEX
8
CUT
10
109.5106
20
29.0143
0
VERTEX
8
CUT
10
107.7713
20
32.0269
0
VERTEX
8
CUT
10
111.25
20
32.0269
0
SEQEND
0
POLYLINE
8
CUT
66
1
70
0
0
VERTEX
8
CUT
10
112.75
20
32.0269
0
VERTEX
8
CUT
10
116.2287
20
32.0269
0
VERTEX
8
CUT
10
114.4894
20
29.0143
0
SEQEND
0
POLYLINE
8
CUT
66
1
70
0
0
VERTEX
8
CUT
10
113.7394
20
27.7152
0
VERTEX
8
CUT
10
112
20
24.7026
0
VERTEX
8
CUT
10
110.2606
20
27.7152
0
SEQEND
0
LINE
8
CUT
10
109.9069
20
31.2269
11
114.0931
21
31.2269
0
LINE
8
CUT
10
114.4681
20
30.5774
11
112.375
21
26.9521
0
LINE
8
CUT
10
111.625
20
26.9521
11
109.5319
21
30.5774
0
POLYLINE
8
CUT
66
1
70
0
0
VERTEX
8
CUT
10
110.8963
20
29.8143
0
VERTEX
8
CUT
10
110.5426
20
30.4269
0
VERTEX
8
CUT
10
111.25
20
30.4269
0
SEQEND
0
POLYLINE
8
CUT
66
1
70
0
0
VERTEX
8
CUT
10
112.75
20
30.4269
0
VERTEX
8
CUT
10
113.4574
20
30.4269
0
VERTEX
8
CUT
10
113.1037
20
29.8143
0
SEQEND
0
POLYLINE
8
CUT
66
1
70
0
0
VERTEX
8
CUT
10
112.3537
20
28.5152
0
VERTEX
8
CUT
10
112
20
27.9026
0
VERTEX
8
CUT
10
111.6463
20
28.5152
0
SEQEND
0
LINE
8
CUT
10
114.1356
20
22.3026
11
120
21
22.3026
0
LINE
8
CUT
10
120
20
30.2949
11
119.375
21
31.3774
0
LINE
8
CUT
10
118.625
20
31.3774
11
113.7606
21
22.9521
0
POLYLINE
8
CUT
66
1
70
0
0
VERTEX
8
CUT
10
116.5106
20
26.1152
0
VERTEX
8
CUT
10
114.7713
20
23.1026
0
VERTEX
8
CUT
10
118.25
20
23.1026
0
SEQEND
0
POLYLINE
8
CUT
66
1
70
0
0
VERTEX
8
CUT
10
120
20
28.6949
0
VERTEX
8
CUT
10
119
20
30.4269
0
VERTEX
8
CUT
10
117.2606
20
27.4143
0
SEQEND
0
LINE
8
CUT
10
116.9069
20
23.9026
11
120
21
23.9026
0
LINE
8
CUT
10
120
20
27.0949
11
119.375
21
28.1774
0
LINE
8
CUT
10
118.625
20
28.1774
11
116.5319
21
24.5521
0
POLYLINE
8
CUT
66
1
70
0
0
VERTEX
8
CUT
10
117.8963
20
25.3152
0
VERTEX
8
CUT
10
117.5426
20
24.7026
0
VERTEX
8
CUT
10
118.25
20
24.7026
0
SEQEND
0
POLYLINE
8
CUT
66
1
70
0
0
VERTEX
8
CUT
10
119.3537
20
26.6143
0
VERTEX
8
CUT
10
119
20
27.2269
0
VERTEX
8
CUT
10
118.6463
20
26.6143
0
SEQEND
0
LINE
8
CUT
10
0
20
10.1782
11
4.8644
21
10.1782
0
LINE
8
CUT
10
5.2394
20
10.8277
11
0.375
21
19.2531
0
POLYLINE
8
CUT
66
1
70
0
0
VERTEX
8
CUT
10
0.75
20
10.9782
0
VERTEX
8
CUT
10
4.2287
20
10.9782
0
VERTEX
8
CUT
10
2.4894
20
13.9909
0
SEQEND
0
POLYLINE
8
CUT
66
1
70
0
0
VERTEX
8
CUT
10
1.7394
20
15.2899
0
VERTEX
8
CUT
10
0
20
18.3026
0
VERTEX
8
CUT
10
0
20
18.3026
0
SEQEND
0
LINE
8
CUT
10
0
20
11.7782
11
2.0931
21
11.7782
0
LINE
8
CUT
10
2.4681
20
12.4277
11
0.375
21
16.0531
0
POLYLINE
8
CUT
66
1
70
0
0
VERTEX
8
CUT
10
0.75
20
12.5782
0
VERTEX
8
CUT
10
1.4574
20
12.5782
0
VERTEX
8
CUT
10
1.1037
20
13.1909
0
SEQEND
0
POLYLINE
8
CUT
66
1
70
0
0
VERTEX
8
CUT
10
0.3537
20
14.4899
0
VERTEX
8
CUT
10
0
20
15.1026
0
VERTEX
8
CUT
10
0
20
15.1026
0
SEQEND
0
LINE
8
CUT
10
2.1356
20
20.7026
11
11.8644
21
20.7026
0
LINE
8
CUT
10
12.2394
20
20.0531
11
7.375
21
11.6277
0
LINE
8
CUT
10
6.625
20
11.6277
11
1.7606
21
20.0531
0
POLYLINE
8
CUT
66
1
70
0
0
VERTEX
8
CUT
10
4.5106
20
16.8899
0
VERTEX
8
CUT
10
2.7713
20
19.9026
0
VERTEX
8
CUT
10
6.25
20
19.9026
0
SEQEND
0
POLYLINE
8
CUT
66
1
70
0
0
VERTEX
8
CUT
10
7.75
20
19.9026
0
VERTEX
8
CUT
10
11.2287
20
19.9026
0
VERTEX
8
CUT
10
9.4894
20
16.8899
0
SEQEND
0
POLYLINE
8
CUT
66
1
70
0
0
VERTEX
8
CUT
10
8.7394
20
15.5909
0
VERTEX
8
CUT
10
7
20
12.5782
0
VERTEX
8
CUT
10
5.2606
20
15.5909
0
SEQEND
0
LINE
8
CUT
10
4.9069
20
19.1026
11
9.0931
21
19.1026
0
LINE
8
CUT
10
9.4681
20
18.4531
11
7.375
21
14.8277
0
LINE
8
CUT
10
6.625
20
14.8277
11
4.5319
21
18.4531
0
POLYLINE
8
CUT
66
1
70
0
0
VERTEX
8
CUT
10
5.8963
20
17.6899
0
VERTEX
8
CUT
10
5.5426
20
18.3026
0
VERTEX
8
CUT
10
6.25
20
18.3026
0
SEQEND
0
POLYLINE
8
CUT
66
1
70
0
0
VERTEX
8
CUT
10
7.75
20
18.3026
0
VERTEX
8
CUT
10
8.4574
20
18.3026
0
VERTEX
8
CUT
10
8.1037
20
17.6899
0
SEQEND
0
POLYLINE
8
CUT
66
1
70
0
0
VERTEX
8
CUT
10
7.3537
20
16.3909
0
VERTEX
8
CUT
10
7
20
15.7782
0
VERTEX
8
CUT
10
6.6463
20
16.3909
0
SEQEND
0
LINE
8
CUT
10
9.1356
20
10.1782
11
18.8644
21
10.1782
0
LINE
8
CUT
10
19.2394
20
10.8277
11
14.375
21
19.2531
0
LINE
8
CUT
10
13.625
20
19.2531
11
8.7606
21
10.8277
0
POLYLINE
8
CUT
66
1
70
0
0
VERTEX
8
CUT
10
11.5106
20
13.9909
0
VERTEX
8
CUT
10
9.7713
20
10.9782
0
VERTEX
8
CUT
10
13.25
20
10.9782
0
SEQEND
0
POLYLINE
8
CUT
66
1
70
0
0
VERTEX
8
CUT
10
14.75
20
10.9782
0
VERTEX
8
CUT
10
18.2287
20
10.9782
0
VERTEX
8
CUT
10
16.4894
20
13.9909
0
SEQEND
0
POLYLINE
8
CUT
66
1
70
0
0
VERTEX
8
CUT
10
15.7394
20
15.2899
0
VERTEX
8
CUT
10
14
20
18.3026
0
VERTEX
8
CUT
10
12.2606
20
15.2899
0
SEQEND
0
LINE
8
CUT
10
11.9069
20
11.7782
11
16.0931
21
11.7782
0
LINE
8
CUT
10
16.4681
20
12.4277
11
14.375
21
16.0531
0
LINE
8
CUT
10
13.625
20
16.0531
11
11.5319
21
12.4277
0
POLYLINE
8
CUT
66
1
70
0
0
VERTEX
8
CUT
10
12.8963
20
13.1909
0
VERTEX
8
CUT
10
12.5426
20
12.5782
0
VERTEX
8
CUT
10
13.25
20
12.5782
0
SEQEND
0
POLYLINE
8
CUT
66
1
70
0
0
VERTEX
8
CUT
10
14.75
20
12.5782
0
VERTEX
8
CUT
10
15.4574
20
12.5782
0
VERTEX
8
CUT
10
15.1037
20
13.1909
0
SEQEND
0
POLYLINE
8
CUT
66
1
70
0
0
VERTEX
8
CUT
10
14.3537
20
14.4899
0
VERTEX
8
CUT
10
14
20
15.1026
0
VERTEX
8
CUT
10
13.6463
20
14.4899
0
SEQEND
0
LINE
8
CUT
10
16.1356
20
20.7026
11
25.8644
21
20.7026
0
LINE
8
CUT
10
26.2394
20
20.0531
11
21.375
21
11.6277
0
LINE
8
CUT
10
20.625
20
11.6277
11
15.7606
21
20.0531
0
POLYLINE
8
CUT
66
1
70
0
0
VERTEX
8
CUT
10
18.5106
20
16.8899
0
VERTEX
8
CUT
10
16.7713
20
19.9026
0
VERTEX
8
CUT
10
20.25
20
19.9026
0
SEQEND
0
POLYLINE
8
CUT
66
1
70
0
0
VERTEX
8
CUT
10
21.75
20
19.9026
0
VERTEX
8
CUT
10
25.2287
20
19.9026
0
VERTEX
8
CUT
10
23.4894
20
16.8899
0
SEQEND
0
POLYLINE
8
CUT
66
1
70
0
0
VERTEX
8
CUT
10
22.7394
20
15.5909
0
VERTEX
8
CUT
10
21
20
12.5782
0
VERTEX
8
CUT
10
19.2606
20
15.5909
0
SEQEND
0
LINE
8
CUT
10
18.9069
20
19.1026
11
23.0931
21
19.1026
0
LINE
8
CUT
10
23.4681
20
18.4531
11
21.375
21
14.8277
0
LINE
8
CUT
10
20.625
20
14.8277
11
18.5319
21
18.4531
0
POLYLINE
8
CUT
66
1
70
0
0
VERTEX
8
CUT
10
19.8963
20
17.6899
0
VERTEX
8
CUT
10
19.5426
20
18.3026
0
VERTEX
8
CUT
10
20.25
20
18.3026
0
SEQEND
0
POLYLINE
8
CUT
66
1
70
0
0
VERTEX
8
CUT
10
21.75
20
18.3026
0
VERTEX
8
CUT
10
22.4574
20
18.3026
0
VERTEX
8
CUT
10
22.1037
20
17.6899
0
SEQEND
0
POLYLINE
8
CUT
66
1
70
0
0
VERTEX
8
CUT
10
21.3537
20
16.3909
0
VERTEX
8
CUT
10
21
20
15.7782
0
VERTEX
8
CUT
10
20.6463
20
16.3909
0
SEQEND
0
LINE
8
CUT
10
23.1356
20
10.1782
11
32.8644
21
10.1782
0
LINE
8
CUT
10
33.2394
20
10.8277
11
28.375
21
19.2531
0
LINE
8
CUT
10
27.625
20
19.2531
11
22.7606
21
10.8277
0
POLYLINE
8
CUT
66
1
70
0
0
VERTEX
8
CUT
10
25.5106
20
13.9909
0
VERTEX
8
CUT
10
23.7713
20
10.9782
0
VERTEX
8
CUT
10
27.25
20
10.9782
0
SEQEND
0
POLYLINE
8
CUT
66
1
70
0
0
VERTEX
8
CUT
10
28.75
20
10.9782
0
VERTEX
8
CUT
10
32.2287
20
10.9782
0
VERTEX
8
CUT
10
30.4894
20
13.9909
0
SEQEND
0
POLYLINE
8
CUT
66
1
70
0
0
VERTEX
8
CUT
10
29.7394
20
15.2899
0
VERTEX
8
CUT
10
28
20
18.3026
0
VERTEX
8
CUT
10
26.2606
20
15.2899
0
SEQEND
0
LINE
8
CUT
10
25.9069
20
11.7782
11
30.0931
21
11.7782
0
LINE
8
CUT
10
30.4681
20
12.4277
11
28.375
21
16.0531
0
LINE
8
CUT
10
27.625
20
16.0531
11
25.5319
21
12.4277
0
POLYLINE
8
CUT
66
1
70
0
0
VERTEX
8
CUT
10
26.8963
20
13.1909
0
VERTEX
8
CUT
10
26.5426
20
12.5782
0
VERTEX
8
CUT
10
27.25
20
12.5782
0
SEQEND
0
POLYLINE
8
CUT
66
1
70
0
0
VERTEX
8
CUT
10
28.75
20
12.5782
0
VERTEX
8
CUT
10
29.4574
20
12.5782
0
VERTEX
8
CUT
10
29.1037
20
13.1909
0
SEQEND
0
POLYLINE
8
CUT
66
1
70
0
0
VERTEX
8
CUT
10
28.3537
20
14.4899
0
VERTEX
8
CUT
10
28
20
15.1026
0
VERTEX
8
CUT
10
27.6463
20
14.4899
0
SEQEND
0
LINE
8
CUT
10
30.1356
20
20.7026
11
39.8644
21
20.7026
0
LINE
8
CUT
10
40.2394
20
20.0531
11
35.375
21
11.6277
0
LINE
8
CUT
10
34.625
20
11.6277
11
29.7606
21
20.0531
0
POLYLINE
8
CUT
66
1
70
0
0
VERTEX
8
CUT
10
32.5106
20
16.8899
0
VERTEX
8
CUT
10
30.7713
20
19.9026
0
VERTEX
8
CUT
10
34.25
20
19.9026
0
SEQEND
0
POLYLINE
8
CUT
66
1
70
0
0
VERTEX
8
CUT
10
35.75
20
19.9026
0
VERTEX
8
CUT
10
39.2287
20
19.9026
0
VERTEX
8
CUT
10
37.4894
20
16.8899
0
SEQEND
0
POLYLINE
8
CUT
66
1
70
0
0
VERTEX
8
CUT
10
36.7394
20
15.5909
0
VERTEX
8
CUT
10
35
20
12.5782
0
VERTEX
8
CUT
10
33.2606
20
15.5909
0
SEQEND
0
LINE
8
CUT
10
32.9069
20
19.1026
11
37.0931
21
19.1026
0
LINE
8
CUT
10
37.4681
20
18.4531
11
35.375
21
14.8277
0
LINE
8
CUT
10
34.625
20
14.8277
11
32.5319
21
18.4531
0
POLYLINE
8
CUT
66
1
70
0
0
VERTEX
8
CUT
10
33.8963
20
17.6899
0
VERTEX
8
CUT
10
33.5426
20
18.3026
0
VERTEX
8
CUT
10
34.25
20
18.3026
0
SEQEND
0
POLYLINE
8
CUT
66
1
70
0
0
VERTEX
8
CUT
10
35.75
20
18.3026
0
VERTEX
8
CUT
10
36.4574
20
18.3026
0
VERTEX
8
CUT
10
36.1037
20
17.6899
0
SEQEND
0
POLYLINE
8
CUT
66
1
70
0
0
VERTEX
8
CUT
10
35.3537
20
16.3909
0
VERTEX
8
CUT
10
35
20
15.7782
0
VERTEX
8
CUT
10
34.6463
20
16.3909
0
SEQEND
0
LINE
8
CUT
10
37.1356
20
10.1782
11
46.8644
21
10.1782
0
LINE
8
CUT
10
47.2394
20
10.8277
11
42.375
21
19.2531
0
LINE
8
CUT
10
41.625
20
19.2531
11
36.7606
21
10.8277
0
POLYLINE
8
CUT
66
1
70
0
0
VERTEX
8
CUT
10
39.5106
20
13.9909
0
VERTEX
8
CUT
10
37.7713
20
10.9782
0
VERTEX
8
CUT
10
41.25
20
10.9782
0
SEQEND
0
POLYLINE
8
CUT
66
1
70
0
0
VERTEX
8
CUT
10
42.75
20
10.9782
0
VERTEX
8
CUT
10
46.2287
20
10.9782
0
VERTEX
8
CUT
10
44.4894
20
13.9909
0
SEQEND
0
POLYLINE
8
CUT
66
1
70
0
0
VERTEX
8
CUT
10
43.7394
20
15.2899
0
VERTEX
8
CUT
10
42
20
18.3026
0
VERTEX
8
CUT
10
40.2606
20
15.2899
0
SEQEND
0
LINE
8
CUT
10
39.9069
20
11.7782
11
44.0931
21
11.7782
0
LINE
8
CUT
10
44.4681
20
12.4277
11
42.375
21
16.0531
0
LINE
8
CUT
10
41.625
20
16.0531
11
39.5319
21
12.4277
0
POLYLINE
8
CUT
66
1
70
0
0
VERTEX
8
CUT
10
40.8963
20
13.1909
0
VERTEX
8
CUT
10
40.5426
20
12.5782
0
VERTEX
8
CUT
10
41.25
20
12.5782
0
SEQEND
0
POLYLINE
8
CUT
66
1
70
0
0
VERTEX
8
CUT
10
42.75
20
12.5782
0
VERTEX
8
CUT
10
43.4574
20
12.5782
0
VERTEX
8
CUT
10
43.1037
20
13.1909
0
SEQEND
0
POLYLINE
8
CUT
66
1
70
0
0
VERTEX
8
CUT
10
42.3537
20
14.4899
0
VERTEX
8
CUT
10
42
20
15.1026
0
VERTEX
8
CUT
10
41.6463
20
14.4899
0
SEQEND
0
LINE
8
CUT
10
44.1356
20
20.7026
11
53.8644
21
20.7026
0
LINE
8
CUT
10
54.2394
20
20.0531
11
49.375
21
11.6277
0
LINE
8
CUT
10
48.625
20
11.6277
11
43.7606
21
20.0531
0
POLYLINE
8
CUT
66
1
70
0
0
VERTEX
8
CUT
10
46.5106
20
16.8899
0
VERTEX
8
CUT
10
44.7713
20
19.9026
0
VERTEX
8
CUT
10
48.25
20
19.9026
0
SEQEND
0
POLYLINE
8
CUT
66
1
70
0
0
VERTEX
8
CUT
10
49.75
20
19.9026
0
VERTEX
8
CUT
10
53.2287
20
19.9026
0
VERTEX
8
CUT
10
51.4894
20
16.8899
0
SEQEND
0
POLYLINE
8
CUT
66
1
70
0
0
VERTEX
8
CUT
10
50.7394
20
15.5909
0
VERTEX
8
CUT
10
49
20
12.5782
0
VERTEX
8
CUT
10
47.2606
20
15.5909
0
SEQEND
0
LINE
8
CUT
10
46.9069
20
19.1026
11
51.0931
21
19.1026
0
LINE
8
CUT
10
51.4681
20
18.4531
11
49.375
21
14.8277
0
LINE
8
CUT
10
48.625
20
14.8277
11
46.5319
21
18.4531
0
POLYLINE
8
CUT
66
1
70
0
0
VERTEX
8
CUT
10
47.8963
20
17.6899
0
VERTEX
8
CUT
10
47.5426
20
18.3026
0
VERTEX
8
CUT
10
48.25
20
18.3026
0
SEQEND
0
POLYLINE
8
CUT
66
1
70
0
0
VERTEX
8
CUT
10
49.75
20
18.3026
0
VERTEX
8
CUT
10
50.4574
20
18.3026
0
VERTEX
8
CUT
10
50.1037
20
17.6899
0
SEQEND
0
POLYLINE
8
CUT
66
1
70
0
0
VERTEX
8
CUT
10
49.3537
20
16.3909
0
VERTEX
8
CUT
10
49
20
15.7782
0
VERTEX
8
CUT
10
48.6463
20
16.3909
0
SEQEND
0
LINE
8
CUT
10
51.1356
20
10.1782
11
60.8644
21
10.1782
0
LINE
8
CUT
10
61.2394
20
10.8277
11
56.375
21
19.2531
0
LINE
8
CUT
10
55.625
20
19.2531
11
50.7606
21
10.8277
0
POLYLINE
8
CUT
66
1
70
0
0
VERTEX
8
CUT
10
53.5106
20
13.9909
0
VERTEX
8
CUT
10
51.7713
20
10.9782
0
VERTEX
8
CUT
10
55.25
20
10.9782
0
SEQEND
0
POLYLINE
8
CUT
66
1
70
0
0
VERTEX
8
CUT
10
56.75
20
10.9782
0
VERTEX
8
CUT
10
60.2287
20
10.9782
0
VERTEX
8
CUT
10
58.4894
20
13.9909
0
SEQEND
0
POLYLINE
8
CUT
66
1
70
0
0
VERTEX
8
CUT
10
57.7394
20
15.2899
0
VERTEX
8
CUT
10
56
20
18.3026
0
VERTEX
8
CUT
10
54.2606
20
15.2899
0
SEQEND
0
LINE
8
CUT
10
53.9069
20
11.7782
11
58.0931
21
11.7782
0
LINE
8
CUT
10
58.4681
20
12.4277
11
56.375
21
16.0531
0
LINE
8
CUT
10
55.625
20
16.0531
11
53.5319
21
12.4277
0
POLYLINE
8
CUT
66
1
70
0
0
VERTEX
8
CUT
10
54.8963
20
13.1909
0
VERTEX
8
CUT
10
54.5426
20
12.5782
0
VERTEX
8
CUT
10
55.25
20
12.5782
0
SEQEND
0
POLYLINE
8
CUT
66
1
70
0
0
VERTEX
8
CUT
10
56.75
20
12.5782
0
VERTEX
8
CUT
10
57.4574
20
12.5782
0
VERTEX
8
CUT
10
57.1037
20
13.1909
0
SEQEND
0
POLYLINE
8
CUT
66
1
70
0
0
VERTEX
8
CUT
10
56.3537
20
14.4899
0
VERTEX
8
CUT
10
56
20
15.1026
0
VERTEX
8
CUT
10
55.6463
20
14.4899
0
SEQEND
0
LINE
8
CUT
10
58.1356
20
20.7026
11
67.8644
21
20.7026
0
LINE
8
CUT
10
68.2394
20
20.0531
11
63.375
21
11.6277
0
LINE
8
CUT
10
62.625
20
11.6277
11
57.7606
21
20.0531
0
POLYLINE
8
CUT
66
1
70
0
0
VERTEX
8
CUT
10
60.5106
20
16.8899
0
VERTEX
8
CUT
10
58.7713
20
19.9026
0
VERTEX
8
CUT
10
62.25
20
19.9026
0
SEQEND
0
POLYLINE
8
CUT
66
1
70
0
0
VERTEX
8
CUT
10
63.75
20
19.9026
0
VERTEX
8
CUT
10
67.2287
20
19.9026
0
VERTEX
8
CUT
10
65.4894
20
16.8899
0
SEQEND
0
POLYLINE
8
CUT
66
1
70
0
0
VERTEX
8
CUT
10
64.7394
20
15.5909
0
VERTEX
8
CUT
10
63
20
12.5782
0
VERTEX
8
CUT
10
61.2606
20
15.5909
0
SEQEND
0
LINE
8
CUT
10
60.9069
20
19.1026
11
65.0931
21
19.1026
0
LINE
8
CUT
10
65.4681
20
18.4531
11
63.375
21
14.8277
0
LINE
8
CUT
10
62.625
20
14.8277
11
60.5319
21
18.4531
0
POLYLINE
8
CUT
66
1
70
0
0
VERTEX
8
CUT
10
61.8963
20
17.6899
0
VERTEX
8
CUT
10
61.5426
20
18.3026
0
VERTEX
8
CUT
10
62.25
20
18.3026
0
SEQEND
0
POLYLINE
8
CUT
66
1
70
0
0
VERTEX
8
CUT
10
63.75
20
18.3026
0
VERTEX
8
CUT
10
64.4574
20
18.3026
0
VERTEX
8
CUT
10
64.1037
20
17.6899
0
SEQEND
0
POLYLINE
8
CUT
66
1
70
0
0
VERTEX
8
CUT
10
63.3537
20
16.3909
0
VERTEX
8
CUT
10
63
20
15.7782
0
VERTEX
8
CUT
10
62.6463
20
16.3909
0
SEQEND
0
LINE
8
CUT
10
65.1356
20
10.1782
11
74.8644
21
10.1782
0
LINE
8
CUT
10
75.2394
20
10.8277
11
70.375
21
19.2531
0
LINE
8
CUT
10
69.625
20
19.2531
11
64.7606
21
10.8277
0
POLYLINE
8
CUT
66
1
70
0
0
VERTEX
8
CUT
10
67.5106
20
13.9909
0
VERTEX
8
CUT
10
65.7713
20
10.9782
0
VERTEX
8
CUT
10
69.25
20
10.9782
0
SEQEND
0
POLYLINE
8
CUT
66
1
70
0
0
VERTEX
8
CUT
10
70.75
20
10.9782
0
VERTEX
8
CUT
10
74.2287
20
10.9782
0
VERTEX
8
CUT
10
72.4894
20
13.9909
0
SEQEND
0
POLYLINE
8
CUT
66
1
70
0
0
VERTEX
8
CUT
10
71.7394
20
15.2899
0
VERTEX
8
CUT
10
70
20
18.3026
0
VERTEX
8
CUT
10
68.2606
20
15.2899
0
SEQEND
0
LINE
8
CUT
10
67.9069
20
11.7782
11
72.0931
21
11.7782
0
LINE
8
CUT
10
72.4681
20
12.4277
11
70.375
21
16.0531
0
LINE
8
CUT
10
69.625
20
16.0531
11
67.5319
21
12.4277
0
POLYLINE
8
CUT
66
1
70
0
0
VERTEX
8
CUT
10
68.8963
20
13.1909
0
VERTEX
8
CUT
10
68.5426
20
12.5782
0
VERTEX
8
CUT
10
69.25
20
12.5782
0
SEQEND
0
POLYLINE
8
CUT
66
1
70
0
0
VERTEX
8
CUT
10
70.75
20
12.5782
0
VERTEX
8
CUT
10
71.4574
20
12.5782
0
VERTEX
8
CUT
10
71.1037
20
13.1909
0
SEQEND
0
POLYLINE
8
CUT
66
1
70
0
0
VERTEX
8
CUT
10
70.3537
20
14.4899
0
VERTEX
8
CUT
10
70
20
15.1026
0
VERTEX
8
CUT
10
69.6463
20
14.4899
0
SEQEND
0
LINE
8
CUT
10
72.1356
20
20.7026
11
81.8644
21
20.7026
0
LINE
8
CUT
10
82.2394
20
20.0531
11
77.375
21
11.6277
0
LINE
8
CUT
10
76.625
20
11.6277
11
71.7606
21
20.0531
0
POLYLINE
8
CUT
66
1
70
0
0
VERTEX
8
CUT
10
74.5106
20
16.8899
0
VERTEX
8
CUT
10
72.7713
20
19.9026
0
VERTEX
8
CUT
10
76.25
20
19.9026
0
SEQEND
0
POLYLINE
8
CUT
66
1
70
0
0
VERTEX
8
CUT
10
77.75
20
19.9026
0
VERTEX
8
CUT
10
81.2287
20
19.9026
0
VERTEX
8
CUT
10
79.4894
20
16.8899
0
SEQEND
0
POLYLINE
8
CUT
66
1
70
0
0
VERTEX
8
CUT
10
78.7394
20
15.5909
0
VERTEX
8
CUT
10
77
20
12.5782
0
VERTEX
8
CUT
10
75.2606
20
15.5909
0
SEQEND
0
LINE
8
CUT
10
74.9069
20
19.1026
11
79.0931
21
19.1026
0
LINE
8
CUT
10
79.4681
20
18.4531
11
77.375
21
14.8277
0
LINE
8
CUT
10
76.625
20
14.8277
11
74.5319
21
18.4531
0
POLYLINE
8
CUT
66
1
70
0
0
VERTEX
8
CUT
10
75.8963
20
17.6899
0
VERTEX
8
CUT
10
75.5426
20
18.3026
0
VERTEX
8
CUT
10
76.25
20
18.3026
0
SEQEND
0
POLYLINE
8
CUT
66
1
70
0
0
VERTEX
8
CUT
10
77.75
20
18.3026
0
VERTEX
8
CUT
10
78.4574
20
18.3026
0
VERTEX
8
CUT
10
78.1037
20
17.6899
0
SEQEND
0
POLYLINE
8
CUT
66
1
70
0
0
VERTEX
8
CUT
10
77.3537
20
16.3909
0
VERTEX
8
CUT
10
77
20
15.7782
0
VERTEX
8
CUT
10
76.6463
20
16.3909
0
SEQEND
0
LINE
8
CUT
10
79.1356
20
10.1782
11
88.8644
21
10.1782
0
LINE
8
CUT
10
89.2394
20
10.8277
11
84.375
21
19.2531
0
LINE
8
CUT
10
83.625
20
19.2531
11
78.7606
21
10.8277
0
POLYLINE
8
CUT
66
1
70
0
0
VERTEX
8
CUT
10
81.5106
20
13.9909
0
VERTEX
8
CUT
10
79.7713
20
10.9782
0
VERTEX
8
CUT
10
83.25
20
10.9782
0
SEQEND
0
POLYLINE
8
CUT
66
1
70
0
0
VERTEX
8
CUT
10
84.75
20
10.9782
0
VERTEX
8
CUT
10
88.2287
20
10.9782
0
VERTEX
8
CUT
10
86.4894
20
13.9909
0
SEQEND
0
POLYLINE
8
CUT
66
1
70
0
0
VERTEX
8
CUT
10
85.7394
20
15.2899
0
VERTEX
8
CUT
10
84
20
18.3026
0
VERTEX
8
CUT
10
82.2606
20
15.2899
0
SEQEND
0
LINE
8
CUT
10
81.9069
20
11.7782
11
86.0931
21
11.7782
0
LINE
8
CUT
10
86.4681
20
12.4277
11
84.375
21
16.0531
0
LINE
8
CUT
10
83.625
20
16.0531
11
81.5319
21
12.4277
0
POLYLINE
8
CUT
66
1
70
0
0
VERTEX
8
CUT
10
82.8963
20
13.1909
0
VERTEX
8
CUT
10
82.5426
20
12.5782
0
VERTEX
8
CUT
10
83.25
20
12.5782
0
SEQEND
0
POLYLINE
8
CUT
66
1
70
0
0
VERTEX
8
CUT
10
84.75
20
12.5782
0
VERTEX
8
CUT
10
85.4574
20
12.5782
0
VERTEX
8
CUT
10
85.1037
20
13.1909
0
SEQEND
0
POLYLINE
8
CUT
66
1
70
0
0
VERTEX
8
CUT
10
84.3537
20
14.4899
0
VERTEX
8
CUT
10
84
20
15.1026
0
VERTEX
8
CUT
10
83.6463
20
14.4899
0
SEQEND
0
LINE
8
CUT
10
86.1356
20
20.7026
11
95.8644
21
20.7026
0
LINE
8
CUT
10
96.2394
20
20.0531
11
91.375
21
11.6277
0
LINE
8
CUT
10
90.625
20
11.6277
11
85.7606
21
20.0531
0
POLYLINE
8
CUT
66
1
70
0
0
VERTEX
8
CUT
10
88.5106
20
16.8899
0
VERTEX
8
CUT
10
86.7713
20
19.9026
0
VERTEX
8
CUT
10
90.25
20
19.9026
0
SEQEND
0
POLYLINE
8
CUT
66
1
70
0
0
VERTEX
8
CUT
10
91.75
20
19.9026
0
VERTEX
8
CUT
10
95.2287
20
19.9026
0
VERTEX
8
CUT
10
93.4894
20
16.8899
0
SEQEND
0
POLYLINE
8
CUT
66
1
70
0
0
VERTEX
8
CUT
10
92.7394
20
15.5909
0
VERTEX
8
CUT
10
91
20
12.5782
0
VERTEX
8
CUT
10
89.2606
20
15.5909
0
SEQEND
0
LINE
8
CUT
10
88.9069
20
19.1026
11
93.0931
21
19.1026
0
LINE
8
CUT
10
93.4681
20
18.4531
11
91.375
21
14.8277
0
LINE
8
CUT
10
90.625
20
14.8277
11
88.5319
21
18.4531
0
POLYLINE
8
CUT
66
1
70
0
0
VERTEX
8
CUT
10
89.8963
20
17.6899
0
VERTEX
8
CUT
10
89.5426
20
18.3026
0
VERTEX
8
CUT
10
90.25
20
18.3026
0
SEQEND
0
POLYLINE
8
CUT
66
1
70
0
0
VERTEX
8
CUT
10
91.75
20
18.3026
0
VERTEX
8
CUT
10
92.4574
20
18.3026
0
VERTEX
8
CUT
10
92.1037
20
17.6899
0
SEQEND
0
POLYLINE
8
CUT
66
1
70
0
0
VERTEX
8
CUT
10
91.3537
20
16.3909
0
VERTEX
8
CUT
10
91
20
15.7782
0
VERTEX
8
CUT
10
90.6463
20
16.3909
0
SEQEND
0
LINE
8
CUT
10
93.1356
20
10.1782
11
102.8644
21
10.1782
0
LINE
8
CUT
10
103.2394
20
10.8277
11
98.375
21
19.2531
0
LINE
8
CUT
10
97.625
20
19.2531
11
92.7606
21
10.8277
0
POLYLINE
8
CUT
66
1
70
0
0
VERTEX
8
CUT
10
95.5106
20
13.9909
0
VERTEX
8
CUT
10
93.7713
20
10.9782
0
VERTEX
8
CUT
10
97.25
20
10.9782
0
SEQEND
0
POLYLINE
8
CUT
66
1
70
0
0
VERTEX
8
CUT
10
98.75
20
10.9782
0
VERTEX
8
CUT
10
102.2287
20
10.9782
0
VERTEX
8
CUT
10
100.4894
20
13.9909
0
SEQEND
0
POLYLINE
8
CUT
66
1
70
0
0
VERTEX
8
CUT
10
99.7394
20
15.2899
0
VERTEX
8
CUT
10
98
20
18.3026
0
VERTEX
8
CUT
10
96.2606
20
15.2899
0
SEQEND
0
LINE
8
CUT
10
95.9069
20
11.7782
11
100.0931
21
11.7782
0
LINE
8
CUT
10
100.4681
20
12.4277
11
98.375
21
16.0531
0
LINE
8
CUT
10
97.625
20
16.0531
11
95.5319
21
12.4277
0
POLYLINE
8
CUT
66
1
70
0
0
VERTEX
8
CUT
10
96.8963
20
13.1909
0
VERTEX
8
CUT
10
96.5426
20
12.5782
0
VERTEX
8
CUT
10
97.25
20
12.5782
0
SEQEND
0
POLYLINE
8
CUT
66
1
70
0
0
VERTEX
8
CUT
10
98.75
20
12.5782
0
VERTEX
8
CUT
10
99.4574
20
12.5782
0
VERTEX
8
CUT
10
99.1037
20
13.1909
0
SEQEND
0
POLYLINE
8
CUT
66
1
70
0
0
VERTEX
8
CUT
10
98.3537
20
14.4899
0
VERTEX
8
CUT
10
98
20
15.1026
0
VERTEX
8
CUT
10
97.6463
20
14.4899
0
SEQEND
0
LINE
8
CUT
10
100.1356
20
20.7026
11
109.8644
21
20.7026
0
LINE
8
CUT
10
110.2394
20
20.0531
11
105.375
21
11.6277
0
LINE
8
CUT
10
104.625
20
11.6277
11
99.7606
21
20.0531
0
POLYLINE
8
CUT
66
1
70
0
0
VERTEX
8
CUT
10
102.5106
20
16.8899
0
VERTEX
8
CUT
10
100.7713
20
19.9026
0
VERTEX
8
CUT
10
104.25
20
19.9026
0
SEQEND
0
POLYLINE
8
CUT
66
1
70
0
0
VERTEX
8
CUT
10
105.75
20
19.9026
0
VERTEX
8
CUT
10
109.2287
20
19.9026
0
VERTEX
8
CUT
10
107.4894
20
16.8899
0
SEQEND
0
POLYLINE
8
CUT
66
1
70
0
0
VERTEX
8
CUT
10
106.7394
20
15.5909
0
VERTEX
8
CUT
10
105
20
12.5782
0
VERTEX
8
CUT
10
103.2606
20
15.5909
0
SEQEND
0
LINE
8
CUT
10
102.9069
20
19.1026
11
107.0931
21
19.1026
0
LINE
8
CUT
10
107.4681
20
18.4531
11
105.375
21
14.8277
0
LINE
8
CUT
10
104.625
20
14.8277
11
102.5319
21
18.4531
0
POLYLINE
8
CUT
66
1
70
0
0
VERTEX
8
CUT
10
103.8963
20
17.6899
0
VERTEX
8
CUT
10
103.5426
20
18.3026
0
VERTEX
8
CUT
10
104.25
20
18.3026
0
SEQEND
0
POLYLINE
8
CUT
66
1
70
0
0
VERTEX
8
CUT
10
105.75
20
18.3026
0
VERTEX
8
CUT
10
106.4574
20
18.3026
0
VERTEX
8
CUT
10
106.1037
20
17.6899
0
SEQEND
0
POLYLINE
8
CUT
66
1
70
0
0
VERTEX
8
CUT
10
105.3537
20
16.3909
0
VERTEX
8
CUT
10
105
20
15.7782
0
VERTEX
8
CUT
10
104.6463
20
16.3909
0
SEQEND
0
LINE
8
CUT
10
107.1356
20
10.1782
11
116.8644
21
10.1782
0
LINE
8
CUT
10
117.2394
20
10.8277
11
112.375
21
19.2531
0
LINE
8
CUT
10
111.625
20
19.2531
11
106.7606
21
10.8277
0
POLYLINE
8
CUT
66
1
70
0
0
VERTEX
8
CUT
10
109.5106
20
13.9909
0
VERTEX
8
CUT
10
107.7713
20
10.9782
0
VERTEX
8
CUT
10
111.25
20
10.9782
0
SEQEND
0
POLYLINE
8
CUT
66
1
70
0
0
VERTEX
8
CUT
10
112.75
20
10.9782
0
VERTEX
8
CUT
10
116.2287
20
10.9782
0
VERTEX
8
CUT
10
114.4894
20
13.9909
0
SEQEND
0
POLYLINE
8
CUT
66
1
70
0
0
VERTEX
8
CUT
10
113.7394
20
15.2899
0
VERTEX
8
CUT
10
112
20
18.3026
0
VERTEX
8
CUT
10
110.2606
20
15.2899
0
SEQEND
0
LINE
8
CUT
10
109.9069
20
11.7782
11
114.0931
21
11.7782
0
LINE
8
CUT
10
114.4681
20
12.4277
11
112.375
21
16.0531
0
LINE
8
CUT
10
111.625
20
16.0531
11
109.5319
21
12.4277
0
POLYLINE
8
CUT
66
1
70
0
0
VERTEX
8
CUT
10
110.8963
20
13.1909
0
VERTEX
8
CUT
10
110.5426
20
12.5782
0
VERTEX
8
CUT
10
111.25
20
12.5782
0
SEQEND
0
POLYLINE
8
CUT
66
1
70
0
0
VERTEX
8
CUT
10
112.75
20
12.5782
0
VERTEX
8
CUT
10
113.4574
20
12.5782
0
VERTEX
8
CUT
10
113.1037
20
13.1909
0
SEQEND
0
POLYLINE
8
CUT
66
1
70
0
0
VERTEX
8
CUT
10
112.3537
20
14.4899
0
VERTEX
8
CUT
10
112
20
15.1026
0
VERTEX
8
CUT
10
111.6463
20
14.4899
0
SEQEND
0
LINE
8
CUT
10
114.1356
20
20.7026
11
120
21
20.7026
0
LINE
8
CUT
10
120
20
12.7103
11
119.375
21
11.6277
0
LINE
8
CUT
10
118.625
20
11.6277
11
113.7606
21
20.0531
0
POLYLINE
8
CUT
66
1
70
0
0
VERTEX
8
CUT
10
116.5106
20
16.8899
0
VERTEX
8
CUT
10
114.7713
20
19.9026
0
VERTEX
8
CUT
10
118.25
20
19.9026
0
SEQEND
0
POLYLINE
8
CUT
66
1
70
0
0
VERTEX
8
CUT
10
120
20
14.3103
0
VERTEX
8
CUT
10
119
20
12.5782
0
VERTEX
8
CUT
10
117.2606
20
15.5909
0
SEQEND
0
LINE
8
CUT
10
116.9069
20
19.1026
11
120
21
19.1026
0
LINE
8
CUT
10
120
20
15.9103
11
119.375
21
14.8277
0
LINE
8
CUT
10
118.625
20
14.8277
11
116.5319
21
18.4531
0
POLYLINE
8
CUT
66
1
70
0
0
VERTEX
8
CUT
10
117.8963
20
17.6899
0
VERTEX
8
CUT
10
117.5426
20
18.3026
0
VERTEX
8
CUT
10
118.25
20
18.3026
0
SEQEND
0
POLYLINE
8
CUT
66
1
70
0
0
VERTEX
8
CUT
10
119.3537
20
16.3909
0
VERTEX
8
CUT
10
119
20
15.7782
0
VERTEX
8
CUT
10
118.6463
20
16.3909
0
SEQEND
0
LINE
8
CUT
10
0
20
8.5782
11
4.8644
21
8.5782
0
LINE
8
CUT
10
5.2394
20
7.9287
11
0.6617
21
0
0
POLYLINE
8
CUT
66
1
70
0
0
VERTEX
8
CUT
10
0.75
20
7.7782
0
VERTEX
8
CUT
10
4.2287
20
7.7782
0
VERTEX
8
CUT
10
2.4894
20
4.7656
0
SEQEND
0
POLYLINE
8
CUT
66
1
70
0
0
VERTEX
8
CUT
10
1.7394
20
3.4665
0
VERTEX
8
CUT
10
0
20
0.4539
0
VERTEX
8
CUT
10
0
20
0.4539
0
SEQEND
0
LINE
8
CUT
10
0
20
6.9782
11
2.0931
21
6.9782
0
LINE
8
CUT
10
2.4681
20
6.3287
11
0.375
21
2.7034
0
POLYLINE
8
CUT
66
1
70
0
0
VERTEX
8
CUT
10
0.75
20
6.1782
0
VERTEX
8
CUT
10
1.4574
20
6.1782
0
VERTEX
8
CUT
10
1.1037
20
5.5656
0
SEQEND
0
POLYLINE
8
CUT
66
1
70
0
0
VERTEX
8
CUT
10
0.3537
20
4.2665
0
VERTEX
8
CUT
10
0
20
3.6539
0
VERTEX
8
CUT
10
0
20
3.6539
0
SEQEND
0
LINE
8
CUT
10
11.4908
20
0
11
7.375
21
7.1287
0
LINE
8
CUT
10
6.625
20
7.1287
11
2.5092
21
0
0
LINE
8
CUT
10
4.5106
20
1.8665
11
3.433
21
0
0
LINE
8
CUT
10
10.567
20
0
11
9.4894
21
1.8665
0
POLYLINE
8
CUT
66
1
70
0
0
VERTEX
8
CUT
10
8.7394
20
3.1656
0
VERTEX
8
CUT
10
7
20
6.1782
0
VERTEX
8
CUT
10
5.2606
20
3.1656
0
SEQEND
0
LINE
8
CUT
10
9.4681
20
0.3034
11
7.375
21
3.9287
0
LINE
8
CUT
10
6.625
20
3.9287
11
4.5319
21
0.3034
0
POLYLINE
8
CUT
66
1
70
0
0
VERTEX
8
CUT
10
5.8963
20
1.0665
0
VERTEX
8
CUT
10
5.5426
20
0.4539
0
VERTEX
8
CUT
10
6.25
20
0.4539
0
SEQEND
0
POLYLINE
8
CUT
66
1
70
0
0
VERTEX
8
CUT
10
7.75
20
0.4539
0
VERTEX
8
CUT
10
8.4574
20
0.4539
0
VERTEX
8
CUT
10
8.1037
20
1.0665
0
SEQEND
0
POLYLINE
8
CUT
66
1
70
0
0
VERTEX
8
CUT
10
7.3537
20
2.3656
0
VERTEX
8
CUT
10
7
20
2.9782
0
VERTEX
8
CUT
10
6.6463
20
2.3656
0
SEQEND
0
LINE
8
CUT
10
9.1356
20
8.5782
11
18.8644
21
8.5782
0
LINE
8
CUT
10
19.2394
20
7.9287
11
14.6617
21
0
0
LINE
8
CUT
10
13.3383
20
0
11
8.7606
21
7.9287
0
POLYLINE
8
CUT
66
1
70
0
0
VERTEX
8
CUT
10
11.5106
20
4.7656
0
VERTEX
8
CUT
10
9.7713
20
7.7782
0
VERTEX
8
CUT
10
13.25
20
7.7782
0
SEQEND
0
POLYLINE
8
CUT
66
1
70
0
0
VERTEX
8
CUT
10
14.75
20
7.7782
0
VERTEX
8
CUT
10
18.2287
20
7.7782
0
VERTEX
8
CUT
10
16.4894
20
4.7656
0
SEQEND
0
POLYLINE
8
CUT
66
1
70
0
0
VERTEX
8
CUT
10
15.7394
20
3.4665
0
VERTEX
8
CUT
10
14
20
0.4539
0
VERTEX
8
CUT
10
12.2606
20
3.4665
0
SEQEND
0
LINE
8
CUT
10
11.9069
20
6.9782
11
16.0931
21
6.9782
0
LINE
8
CUT
10
16.4681
20
6.3287
11
14.375
21
2.7034
0
LINE
8
CUT
10
13.625
20
2.7034
11
11.5319
21
6.3287
0
POLYLINE
8
CUT
66
1
70
0
0
VERTEX
8
CUT
10
12.8963
20
5.5656
0
VERTEX
8
CUT
10
12.5426
20
6.1782
0
VERTEX
8
CUT
10
13.25
20
6.1782
0
SEQEND
0
POLYLINE
8
CUT
66
1
70
0
0
VERTEX
8
CUT
10
14.75
20
6.1782
0
VERTEX
8
CUT
10
15.4574
20
6.1782
0
VERTEX
8
CUT
10
15.1037
20
5.5656
0
SEQEND
0
POLYLINE
8
CUT
66
1
70
0
0
VERTEX
8
CUT
10
14.3537
20
4.2665
0
VERTEX
8
CUT
10
14
20
3.6539
0
VERTEX
8
CUT
10
13.6463
20
4.2665
0
SEQEND
0
LINE
8
CUT
10
25.4908
20
0
11
21.375
21
7.1287
0
LINE
8
CUT
10
20.625
20
7.1287
11
16.5092
21
0
0
LINE
8
CUT
10
18.5106
20
1.8665
11
17.433
21
0
0
LINE
8
CUT
10
24.567
20
0
11
23.4894
21
1.8665
0
POLYLINE
8
CUT
66
1
70
0
0
VERTEX
8
CUT
10
22.7394
20
3.1656
0
VERTEX
8
CUT
10
21
20
6.1782
0
VERTEX
8
CUT
10
19.2606
20
3.1656
0
SEQEND
0
LINE
8
CUT
10
23.4681
20
0.3034
11
21.375
21
3.9287
0
LINE
8
CUT
10
20.625
20
3.9287
11
18.5319
21
0.3034
0
POLYLINE
8
CUT
66
1
70
0
0
VERTEX
8
CUT
10
19.8963
20
1.0665
0
VERTEX
8
CUT
10
19.5426
20
0.4539
0
VERTEX
8
CUT
10
20.25
20
0.4539
0
SEQEND
0
POLYLINE
8
CUT
66
1
70
0
0
VERTEX
8
CUT
10
21.75
20
0.4539
0
VERTEX
8
CUT
10
22.4574
20
0.4539
0
VERTEX
8
CUT
10
22.1037
20
1.0665
0
SEQEND
0
POLYLINE
8
CUT
66
1
70
0
0
VERTEX
8
CUT
10
21.3537
20
2.3656
0
VERTEX
8
CUT
10
21
20
2.9782
0
VERTEX
8
CUT
10
20.6463
20
2.3656
0
SEQEND
0
LINE
8
CUT
10
23.1356
20
8.5782
11
32.8644
21
8.5782
0
LINE
8
CUT
10
33.2394
20
7.9287
11
28.6617
21
0
0
LINE
8
CUT
10
27.3383
20
0
11
22.7606
21
7.9287
0
POLYLINE
8
CUT
66
1
70
0
0
VERTEX
8
CUT
10
25.5106
20
4.7656
0
VERTEX
8
CUT
10
23.7713
20
7.7782
0
VERTEX
8
CUT
10
27.25
20
7.7782
0
SEQEND
0
POLYLINE
8
CUT
66
1
70
0
0
VERTEX
8
CUT
10
28.75
20
7.7782
0
VERTEX
8
CUT
10
32.2287
20
7.7782
0
VERTEX
8
CUT
10
30.4894
20
4.7656
0
SEQEND
0
POLYLINE
8
CUT
66
1
70
0
0
VERTEX
8
CUT
10
29.7394
20
3.4665
0
VERTEX
8
CUT
10
28
20
0.4539
0
VERTEX
8
CUT
10
26.2606
20
3.4665
0
SEQEND
0
LINE
8
CUT
10
25.9069
20
6.9782
11
30.0931
21
6.9782
0
LINE
8
CUT
10
30.4681
20
6.3287
11
28.375
21
2.7034
0
LINE
8
CUT
10
27.625
20
2.7034
11
25.5319
21
6.3287
0
POLYLINE
8
CUT
66
1
70
0
0
VERTEX
8
CUT
10
26.8963
20
5.5656
0
VERTEX
8
CUT
10
26.5426
20
6.1782
0
VERTEX
8
CUT
10
27.25
20
6.1782
0
SEQEND
0
POLYLINE
8
CUT
66
1
70
0
0
VERTEX
8
CUT
10
28.75
20
6.1782
0
VERTEX
8
CUT
10
29.4574
20
6.1782
0
VERTEX
8
CUT
10
29.1037
20
5.5656
0
SEQEND
0
POLYLINE
8
CUT
66
1
70
0
0
VERTEX
8
CUT
10
28.3537
20
4.2665
0
VERTEX
8
CUT
10
28
20
3.6539
0
VERTEX
8
CUT
10
27.6463
20
4.2665
0
SEQEND
0
LINE
8
CUT
10
39.4908
20
0
11
35.375
21
7.1287
0
LINE
8
CUT
10
34.625
20
7.1287
11
30.5092
21
0
0
LINE
8
CUT
10
32.5106
20
1.8665
11
31.433
21
0
0
LINE
8
CUT
10
38.567
20
0
11
37.4894
21
1.8665
0
POLYLINE
8
CUT
66
1
70
0
0
VERTEX
8
CUT
10
36.7394
20
3.1656
0
VERTEX
8
CUT
10
35
20
6.1782
0
VERTEX
8
CUT
10
33.2606
20
3.1656
0
SEQEND
0
LINE
8
CUT
10
37.4681
20
0.3034
11
35.375
21
3.9287
0
LINE
8
CUT
10
34.625
20
3.9287
11
32.5319
21
0.3034
0
POLYLINE
8
CUT
66
1
70
0
0
VERTEX
8
CUT
10
33.8963
20
1.0665
0
VERTEX
8
CUT
10
33.5426
20
0.4539
0
VERTEX
8
CUT
10
34.25
20
0.4539
0
SEQEND
0
POLYLINE
8
CUT
66
1
70
0
0
VERTEX
8
CUT
10
35.75
20
0.4539
0
VERTEX
8
CUT
10
36.4574
20
0.4539
0
VERTEX
8
CUT
10
36.1037
20
1.0665
0
SEQEND
0
POLYLINE
8
CUT
66
1
70
0
0
VERTEX
8
CUT
10
35.3537
20
2.3656
0
VERTEX
8
CUT
10
35
20
2.9782
0
VERTEX
8
CUT
10
34.6463
20
2.3656
0
SEQEND
0
LINE
8
CUT
10
37.1356
20
8.5782
11
46.8644
21
8.5782
0
LINE
8
CUT
10
47.2394
20
7.9287
11
42.6617
21
0
0
LINE
8
CUT
10
41.3383
20
0
11
36.7606
21
7.9287
0
POLYLINE
8
CUT
66
1
70
0
0
VERTEX
8
CUT
10
39.5106
20
4.7656
0
VERTEX
8
CUT
10
37.7713
20
7.7782
0
VERTEX
8
CUT
10
41.25
20
7.7782
0
SEQEND
0
POLYLINE
8
CUT
66
1
70
0
0
VERTEX
8
CUT
10
42.75
20
7.7782
0
VERTEX
8
CUT
10
46.2287
20
7.7782
0
VERTEX
8
CUT
10
44.4894
20
4.7656
0
SEQEND
0
POLYLINE
8
CUT
66
1
70
0
0
VERTEX
8
CUT
10
43.7394
20
3.4665
0
VERTEX
8
CUT
10
42
20
0.4539
0
VERTEX
8
CUT
10
40.2606
20
3.4665
0
SEQEND
0
LINE
8
CUT
10
39.9069
20
6.9782
11
44.0931
21
6.9782
0
LINE
8
CUT
10
44.4681
20
6.3287
11
42.375
21
2.7034
0
LINE
8
CUT
10
41.625
20
2.7034
11
39.5319
21
6.3287
0
POLYLINE
8
CUT
66
1
70
0
0
VERTEX
8
CUT
10
40.8963
20
5.5656
0
VERTEX
8
CUT
10
40.5426
20
6.1782
0
VERTEX
8
CUT
10
41.25
20
6.1782
0
SEQEND
0
POLYLINE
8
CUT
66
1
70
0
0
VERTEX
8
CUT
10
42.75
20
6.1782
0
VERTEX
8
CUT
10
43.4574
20
6.1782
0
VERTEX
8
CUT
10
43.1037
20
5.5656
0
SEQEND
0
POLYLINE
8
CUT
66
1
70
0
0
VERTEX
8
CUT
10
42.3537
20
4.2665
0
VERTEX
8
CUT
10
42
20
3.6539
0
VERTEX
8
CUT
10
41.6463
20
4.2665
0
SEQEND
0
LINE
8
CUT
10
53.4908
20
0
11
49.375
21
7.1287
0
LINE
8
CUT
10
48.625
20
7.1287
11
44.5092
21
0
0
LINE
8
CUT
10
46.5106
20
1.8665
11
45.433
21
0
0
LINE
8
CUT
10
52.567
20
0
11
51.4894
21
1.8665
0
POLYLINE
8
CUT
66
1
70
0
0
VERTEX
8
CUT
10
50.7394
20
3.1656
0
VERTEX
8
CUT
10
49
20
6.1782
0
VERTEX
8
CUT
10
47.2606
20
3.1656
0
SEQEND
0
LINE
8
CUT
10
51.4681
20
0.3034
11
49.375
21
3.9287
0
LINE
8
CUT
10
48.625
20
3.9287
11
46.5319
21
0.3034
0
POLYLINE
8
CUT
66
1
70
0
0
VERTEX
8
CUT
10
47.8963
20
1.0665
0
VERTEX
8
CUT
10
47.5426
20
0.4539
0
VERTEX
8
CUT
10
48.25
20
0.4539
0
SEQEND
0
POLYLINE
8
CUT
66
1
70
0
0
VERTEX
8
CUT
10
49.75
20
0.4539
0
VERTEX
8
CUT
10
50.4574
20
0.4539
0
VERTEX
8
CUT
10
50.1037
20
1.0665
0
SEQEND
0
POLYLINE
8
CUT
66
1
70
0
0
VERTEX
8
CUT
10
49.3537
20
2.3656
0
VERTEX
8
CUT
10
49
20
2.9782
0
VERTEX
8
CUT
10
48.6463
20
2.3656
0
SEQEND
0
LINE
8
CUT
10
51.1356
20
8.5782
11
60.8644
21
8.5782
0
LINE
8
CUT
10
61.2394
20
7.9287
11
56.6617
21
0
0
LINE
8
CUT
10
55.3383
20
0
11
50.7606
21
7.9287
0
POLYLINE
8
CUT
66
1
70
0
0
VERTEX
8
CUT
10
53.5106
20
4.7656
0
VERTEX
8
CUT
10
51.7713
20
7.7782
0
VERTEX
8
CUT
10
55.25
20
7.7782
0
SEQEND
0
POLYLINE
8
CUT
66
1
70
0
0
VERTEX
8
CUT
10
56.75
20
7.7782
0
VERTEX
8
CUT
10
60.2287
20
7.7782
0
VERTEX
8
CUT
10
58.4894
20
4.7656
0
SEQEND
0
POLYLINE
8
CUT
66
1
70
0
0
VERTEX
8
CUT
10
57.7394
20
3.4665
0
VERTEX
8
CUT
10
56
20
0.4539
0
VERTEX
8
CUT
10
54.2606
20
3.4665
0
SEQEND
0
LINE
8
CUT
10
53.9069
20
6.9782
11
58.0931
21
6.9782
0
LINE
8
CUT
10
58.4681
20
6.3287
11
56.375
21
2.7034
0
LINE
8
CUT
10
55.625
20
2.7034
11
53.5319
21
6.3287
0
POLYLINE
8
CUT
66
1
70
0
0
VERTEX
8
CUT
10
54.8963
20
5.5656
0
VERTEX
8
CUT
10
54.5426
20
6.1782
0
VERTEX
8
CUT
10
55.25
20
6.1782
0
SEQEND
0
POLYLINE
8
CUT
66
1
70
0
0
VERTEX
8
CUT
10
56.75
20
6.1782
0
VERTEX
8
CUT
10
57.4574
20
6.1782
0
VERTEX
8
CUT
10
57.1037
20
5.5656
0
SEQEND
0
POLYLINE
8
CUT
66
1
70
0
0
VERTEX
8
CUT
10
56.3537
20
4.2665
0
VERTEX
8
CUT
10
56
20
3.6539
0
VERTEX
8
CUT
10
55.6463
20
4.2665
0
SEQEND
0
LINE
8
CUT
10
67.4908
20
0
11
63.375
21
7.1287
0
LINE
8
CUT
10
62.625
20
7.1287
11
58.5092
21
0
0
LINE
8
CUT
10
60.5106
20
1.8665
11
59.433
21
0
0
LINE
8
CUT
10
66.567
20
0
11
65.4894
21
1.8665
0
POLYLINE
8
CUT
66
1
70
0
0
VERTEX
8
CUT
10
64.7394
20
3.1656
0
VERTEX
8
CUT
10
63
20
6.1782
0
VERTEX
8
CUT
10
61.2606
20
3.1656
0
SEQEND
0
LINE
8
CUT
10
65.4681
20
0.3034
11
63.375
21
3.9287
0
LINE
8
CUT
10
62.625
20
3.9287
11
60.5319
21
0.3034
0
POLYLINE
8
CUT
66
1
70
0
0
VERTEX
8
CUT
10
61.8963
20
1.0665
0
VERTEX
8
CUT
10
61.5426
20
0.4539
0
VERTEX
8
CUT
10
62.25
20
0.4539
0
SEQEND
0
POLYLINE
8
CUT
66
1
70
0
0
VERTEX
8
CUT
10
63.75
20
0.4539
0
VERTEX
8
CUT
10
64.4574
20
0.4539
0
VERTEX
8
CUT
10
64.1037
20
1.0665
0
SEQEND
0
POLYLINE
8
CUT
66
1
70
0
0
VERTEX
8
CUT
10
63.3537
20
2.3656
0
VERTEX
8
CUT
10
63
20
2.9782
0
VERTEX
8
CUT
10
62.6463
20
2.3656
0
SEQEND
0
LINE
8
CUT
10
65.1356
20
8.5782
11
74.8644
21
8.5782
0
LINE
8
CUT
10
75.2394
20
7.9287
11
70.6617
21
0
0
LINE
8
CUT
10
69.3383
20
0
11
64.7606
21
7.9287
0
POLYLINE
8
CUT
66
1
70
0
0
VERTEX
8
CUT
10
67.5106
20
4.7656
0
VERTEX
8
CUT
10
65.7713
20
7.7782
0
VERTEX
8
CUT
10
69.25
20
7.7782
0
SEQEND
0
POLYLINE
8
CUT
66
1
70
0
0
VERTEX
8
CUT
10
70.75
20
7.7782
0
VERTEX
8
CUT
10
74.2287
20
7.7782
0
VERTEX
8
CUT
10
72.4894
20
4.7656
0
SEQEND
0
POLYLINE
8
CUT
66
1
70
0
0
VERTEX
8
CUT
10
71.7394
20
3.4665
0
VERTEX
8
CUT
10
70
20
0.4539
0
VERTEX
8
CUT
10
68.2606
20
3.4665
0
SEQEND
0
LINE
8
CUT
10
67.9069
20
6.9782
11
72.0931
21
6.9782
0
LINE
8
CUT
10
72.4681
20
6.3287
11
70.375
21
2.7034
0
LINE
8
CUT
10
69.625
20
2.7034
11
67.5319
21
6.3287
0
POLYLINE
8
CUT
66
1
70
0
0
VERTEX
8
CUT
10
68.8963
20
5.5656
0
VERTEX
8
CUT
10
68.5426
20
6.1782
0
VERTEX
8
CUT
10
69.25
20
6.1782
0
SEQEND
0
POLYLINE
8
CUT
66
1
70
0
0
VERTEX
8
CUT
10
70.75
20
6.1782
0
VERTEX
8
CUT
10
71.4574
20
6.1782
0
VERTEX
8
CUT
10
71.1037
20
5.5656
0
SEQEND
0
POLYLINE
8
CUT
66
1
70
0
0
VERTEX
8
CUT
10
70.3537
20
4.2665
0
VERTEX
8
CUT
10
70
20
3.6539
0
VERTEX
8
CUT
10
69.6463
20
4.2665
0
SEQEND
0
LINE
8
CUT
10
81.4908
20
0
11
77.375
21
7.1287
0
LINE
8
CUT
10
76.625
20
7.1287
11
72.5092
21
0
0
LINE
8
CUT
10
74.5106
20
1.8665
11
73.433
21
0
0
LINE
8
CUT
10
80.567
20
0
11
79.4894
21
1.8665
0
POLYLINE
8
CUT
66
1
70
0
0
VERTEX
8
CUT
10
78.7394
20
3.1656
0
VERTEX
8
CUT
10
77
20
6.1782
0
VERTEX
8
CUT
10
75.2606
20
3.1656
0
SEQEND
0
LINE
8
CUT
10
79.4681
20
0.3034
11
77.375
21
3.9287
0
LINE
8
CUT
10
76.625
20
3.9287
11
74.5319
21
0.3034
0
POLYLINE
8
CUT
66
1
70
0
0
VERTEX
8
CUT
10
75.8963
20
1.0665
0
VERTEX
8
CUT
10
75.5426
20
0.4539
0
VERTEX
8
CUT
10
76.25
20
0.4539
0
SEQEND
0
POLYLINE
8
CUT
66
1
70
0
0
VERTEX
8
CUT
10
77.75
20
0.4539
0
VERTEX
8
CUT
10
78.4574
20
0.4539
0
VERTEX
8
CUT
10
78.1037
20
1.0665
0
SEQEND
0
POLYLINE
8
CUT
66
1
70
0
0
VERTEX
8
CUT
10
77.3537
20
2.3656
0
VERTEX
8
CUT
10
77
20
2.9782
0
VERTEX
8
CUT
10
76.6463
20
2.3656
0
SEQEND
0
LINE
8
CUT
10
79.1356
20
8.5782
11
88.8644
21
8.5782
0
LINE
8
CUT
10
89.2394
20
7.9287
11
84.6617
21
0
0
LINE
8
CUT
10
83.3383
20
0
11
78.7606
21
7.9287
0
POLYLINE
8
CUT
66
1
70
0
0
VERTEX
8
CUT
10
81.5106
20
4.7656
0
VERTEX
8
CUT
10
79.7713
20
7.7782
0
VERTEX
8
CUT
10
83.25
20
7.7782
0
SEQEND
0
POLYLINE
8
CUT
66
1
70
0
0
VERTEX
8
CUT
10
84.75
20
7.7782
0
VERTEX
8
CUT
10
88.2287
20
7.7782
0
VERTEX
8
CUT
10
86.4894
20
4.7656
0
SEQEND
0
POLYLINE
8
CUT
66
1
70
0
0
VERTEX
8
CUT
10
85.7394
20
3.4665
0
VERTEX
8
CUT
10
84
20
0.4539
0
VERTEX
8
CUT
10
82.2606
20
3.4665
0
SEQEND
0
LINE
8
CUT
10
81.9069
20
6.9782
11
86.0931
21
6.9782
0
LINE
8
CUT
10
86.4681
20
6.3287
11
84.375
21
2.7034
0
LINE
8
CUT
10
83.625
20
2.7034
11
81.5319
21
6.3287
0
POLYLINE
8
CUT
66
1
70
0
0
VERTEX
8
CUT
10
82.8963
20
5.5656
0
VERTEX
8
CUT
10
82.5426
20
6.1782
0
VERTEX
8
CUT
10
83.25
20
6.1782
0
SEQEND
0
POLYLINE
8
CUT
66
1
70
0
0
VERTEX
8
CUT
10
84.75
20
6.1782
0
VERTEX
8
CUT
10
85.4574
20
6.1782
0
VERTEX
8
CUT
10
85.1037
20
5.5656
0
SEQEND
0
POLYLINE
8
CUT
66
1
70
0
0
VERTEX
8
CUT
10
84.3537
20
4.2665
0
VERTEX
8
CUT
10
84
20
3.6539
0
VERTEX
8
CUT
10
83.6463
20
4.2665
0
SEQEND
0
LINE
8
CUT
10
95.4908
20
0
11
91.375
21
7.1287
0
LINE
8
CUT
10
90.625
20
7.1287
11
86.5092
21
0
0
LINE
8
CUT
10
88.5106
20
1.8665
11
87.433
21
0
0
LINE
8
CUT
10
94.567
20
0
11
93.4894
21
1.8665
0
POLYLINE
8
CUT
66
1
70
0
0
VERTEX
8
CUT
10
92.7394
20
3.1656
0
VERTEX
8
CUT
10
91
20
6.1782
0
VERTEX
8
CUT
10
89.2606
20
3.1656
0
SEQEND
0
LINE
8
CUT
10
93.4681
20
0.3034
11
91.375
21
3.9287
0
LINE
8
CUT
10
90.625
20
3.9287
11
88.5319
21
0.3034
0
POLYLINE
8
CUT
66
1
70
0
0
VERTEX
8
CUT
10
89.8963
20
1.0665
0
VERTEX
8
CUT
10
89.5426
20
0.4539
0
VERTEX
8
CUT
10
90.25
20
0.4539
0
SEQEND
0
POLYLINE
8
CUT
66
1
70
0
0
VERTEX
8
CUT
10
91.75
20
0.4539
0
VERTEX
8
CUT
10
92.4574
20
0.4539
0
VERTEX
8
CUT
10
92.1037
20
1.0665
0
SEQEND
0
POLYLINE
8
CUT
66
1
70
0
0
VERTEX
8
CUT
10
91.3537
20
2.3656
0
VERTEX
8
CUT
10
91
20
2.9782
0
VERTEX
8
CUT
10
90.6463
20
2.3656
0
SEQEND
0
LINE
8
CUT
10
93.1356
20
8.5782
11
102.8644
21
8.5782
0
LINE
8
CUT
10
103.2394
20
7.9287
11
98.6617
21
0
0
LINE
8
CUT
10
97.3383
20
0
11
92.7606
21
7.9287
0
POLYLINE
8
CUT
66
1
70
0
0
VERTEX
8
CUT
10
95.5106
20
4.7656
0
VERTEX
8
CUT
10
93.7713
20
7.7782
0
VERTEX
8
CUT
10
97.25
20
7.7782
0
SEQEND
0
POLYLINE
8
CUT
66
1
70
0
0
VERTEX
8
CUT
10
98.75
20
7.7782
0
VERTEX
8
CUT
10
102.2287
20
7.7782
0
VERTEX
8
CUT
10
100.4894
20
4.7656
0
SEQEND
0
POLYLINE
8
CUT
66
1
70
0
0
VERTEX
8
CUT
10
99.7394
20
3.4665
0
VERTEX
8
CUT
10
98
20
0.4539
0
VERTEX
8
CUT
10
96.2606
20
3.4665
0
SEQEND
0
LINE
8
CUT
10
95.9069
20
6.9782
11
100.0931
21
6.9782
0
LINE
8
CUT
10
100.4681
20
6.3287
11
98.375
21
2.7034
0
LINE
8
CUT
10
97.625
20
2.7034
11
95.5319
21
6.3287
0
POLYLINE
8
CUT
66
1
70
0
0
VERTEX
8
CUT
10
96.8963
20
5.5656
0
VERTEX
8
CUT
10
96.5426
20
6.1782
0
VERTEX
8
CUT
10
97.25
20
6.1782
0
SEQEND
0
POLYLINE
8
CUT
66
1
70
0
0
VERTEX
8
CUT
10
98.75
20
6.1782
0
VERTEX
8
CUT
10
99.4574
20
6.1782
0
VERTEX
8
CUT
10
99.1037
20
5.5656
0
SEQEND
0
POLYLINE
8
CUT
66
1
70
0
0
VERTEX
8
CUT
10
98.3537
20
4.2665
0
VERTEX
8
CUT
10
98
20
3.6539
0
VERTEX
8
CUT
10
97.6463
20
4.2665
0
SEQEND
0
LINE
8
CUT
10
109.4908
20
0
11
105.375
21
7.1287
0
LINE
8
CUT
10
104.625
20
7.1287
11
100.5092
21
0
0
LINE
8
CUT
10
102.5106
20
1.8665
11
101.433
21
0
0
LINE
8
CUT
10
108.567
20
0
11
107.4894
21
1.8665
0
POLYLINE
8
CUT
66
1
70
0
0
VERTEX
8
CUT
10
106.7394
20
3.1656
0
VERTEX
8
CUT
10
105
20
6.1782
0
VERTEX
8
CUT
10
103.2606
20
3.1656
0
SEQEND
0
LINE
8
CUT
10
107.4681
20
0.3034
11
105.375
21
3.9287
0
LINE
8
CUT
10
104.625
20
3.9287
11
102.5319
21
0.3034
0
POLYLINE
8
CUT
66
1
70
0
0
VERTEX
8
CUT
10
103.8963
20
1.0665
0
VERTEX
8
CUT
10
103.5426
20
0.4539
0
VERTEX
8
CUT
10
104.25
20
0.4539
0
SEQEND
0
POLYLINE
8
CUT
66
1
70
0
0
VERTEX
8
CUT
10
105.75
20
0.4539
0
VERTEX
8
CUT
10
106.4574
20
0.4539
0
VERTEX
8
CUT
10
106.1037
20
1.0665
0
SEQEND
0
POLYLINE
8
CUT
66
1
70
0
0
VERTEX
8
CUT
10
105.3537
20
2.3656
0
VERTEX
8
CUT
10
105
20
2.9782
0
VERTEX
8
CUT
10
104.6463
20
2.3656
0
SEQEND
0
LINE
8
CUT
10
107.1356
20
8.5782
11
116.8644
21
8.5782
0
LINE
8
CUT
10
117.2394
20
7.9287
11
112.6617
21
0
0
LINE
8
CUT
10
111.3383
20
0
11
106.7606
21
7.9287
0
POLYLINE
8
CUT
66
1
70
0
0
VERTEX
8
CUT
10
109.5106
20
4.7656
0
VERTEX
8
CUT
10
107.7713
20
7.7782
0
VERTEX
8
CUT
10
111.25
20
7.7782
0
SEQEND
0
POLYLINE
8
CUT
66
1
70
0
0
VERTEX
8
CUT
10
112.75
20
7.7782
0
VERTEX
8
CUT
10
116.2287
20
7.7782
0
VERTEX
8
CUT
10
114.4894
20
4.7656
0
SEQEND
0
POLYLINE
8
CUT
66
1
70
0
0
VERTEX
8
CUT
10
113.7394
20
3.4665
0
VERTEX
8
CUT
10
112
20
0.4539
0
VERTEX
8
CUT
10
110.2606
20
3.4665
0
SEQEND
0
LINE
8
CUT
10
109.9069
20
6.9782
11
114.0931
21
6.9782
0
LINE
8
CUT
10
114.4681
20
6.3287
11
112.375
21
2.7034
0
LINE
8
CUT
10
111.625
20
2.7034
11
109.5319
21
6.3287
0
POLYLINE
8
CUT
66
1
70
0
0
VERTEX
8
CUT
10
110.8963
20
5.5656
0
VERTEX
8
CUT
10
110.5426
20
6.1782
0
VERTEX
8
CUT
10
111.25
20
6.1782
0
SEQEND
0
POLYLINE
8
CUT
66
1
70
0
0
VERTEX
8
CUT
10
112.75
20
6.1782
0
VERTEX
8
CUT
10
113.4574
20
6.1782
0
VERTEX
8
CUT
10
113.1037
20
5.5656
0
SEQEND
0
POLYLINE
8
CUT
66
1
70
0
0
VERTEX
8
CUT
10
112.3537
20
4.2665
0
VERTEX
8
CUT
10
112
20
3.6539
0
VERTEX
8
CUT
10
111.6463
20
4.2665
0
SEQEND
0
LINE
8
CUT
10
120
20
6.0462
11
119.375
21
7.1287
0
LINE
8
CUT
10
118.625
20
7.1287
11
114.5092
21
0
0
LINE
8
CUT
10
116.5106
20
1.8665
11
115.433
21
0
0
POLYLINE
8
CUT
66
1
70
0
0
VERTEX
8
CUT
10
120
20
4.4462
0
VERTEX
8
CUT
10
119
20
6.1782
0
VERTEX
8
CUT
10
117.2606
20
3.1656
0
SEQEND
0
LINE
8
CUT
10
120
20
2.8462
11
119.375
21
3.9287
0
LINE
8
CUT
10
118.625
20
3.9287
11
116.5319
21
0.3034
0
POLYLINE
8
CUT
66
1
70
0
0
VERTEX
8
CUT
10
117.8963
20
1.0665
0
VERTEX
8
CUT
10
117.5426
20
0.4539
0
VERTEX
8
CUT
10
118.25
20
0.4539
0
SEQEND
0
POLYLINE
8
CUT
66
1
70
0
0
VERTEX
8
CUT
10
119.3537
20
2.3656
0
VERTEX
8
CUT
10
119
20
2.9782
0
VERTEX
8
CUT
10
118.6463
20
2.3656
0
SEQEND
0
POLYLINE
8
CUT
66
1
70
0
0
VERTEX
8
CUT
10
0
20
70
0
VERTEX
8
CUT
10
120
20
70
0
VERTEX
8
CUT
10
120
20
0
0
VERTEX
8
CUT
10
0
20
0
0
VERTEX
8
CUT
10
0
20
70
0
SEQEND
0
ENDSEC
0
EOF
