0
SECTION
2
HEADER
9
$ACADVER
1
AC1009
9
$INSUNITS
70
4
0
ENDSEC
0
SECTION
2
TABLES
0
TABLE
2
LAYER
70
1
0
LAYER
2
CUT
70
0
62
1
6
CONTINUOUS
0
ENDTAB
0
ENDSEC
0
SECTION
2
ENTITIES
0
LINE
8
CUT
10
0
20
69.5288
11
0.581
21
69.9372
0
LINE
8
CUT
10
0
20
65.9712
11
0.581
21
65.5628
0
LINE
8
CUT
10
0
20
63.4288
11
0.581
21
63.8372
0
LINE
8
CUT
10
0
20
59.8713
11
0.581
21
59.4628
0
LINE
8
CUT
10
0
20
57.3287
11
0.581
21
57.7372
0
LINE
8
CUT
10
0
20
53.7712
11
0.581
21
53.3628
0
LINE
8
CUT
10
0
20
51.2288
11
0.581
21
51.6372
0
LINE
8
CUT
10
0
20
47.6713
11
0.581
21
47.2628
0
LINE
8
CUT
10
0
20
45.1288
11
0.581
21
45.5372
0
LINE
8
CUT
10
0
20
41.5712
11
0.581
21
41.1628
0
LINE
8
CUT
10
0
20
39.0288
11
0.581
21
39.4372
0
LINE
8
CUT
10
0
20
35.4713
11
0.581
21
35.0628
0
LINE
8
CUT
10
0
20
32.9288
11
0.581
21
33.3372
0
LINE
8
CUT
10
0
20
29.3713
11
0.581
21
28.9628
0
LINE
8
CUT
10
0
20
26.8288
11
0.581
21
27.2372
0
LINE
8
CUT
10
0
20
23.2713
11
0.581
21
22.8628
0
LINE
8
CUT
10
0
20
20.7288
11
0.581
21
21.1372
0
LINE
8
CUT
10
0
20
17.1713
11
0.581
21
16.7628
0
LINE
8
CUT
10
0
20
14.6288
11
0.581
21
15.0372
0
LINE
8
CUT
10
0
20
11.0713
11
0.581
21
10.6628
0
LINE
8
CUT
10
0
20
8.5288
11
0.581
21
8.9372
0
LINE
8
CUT
10
0
20
4.9712
11
0.581
21
4.5628
0
LINE
8
CUT
10
0
20
2.4288
11
0.581
21
2.8372
0
POLYLINE
8
CUT
66
1
70
0
0
VERTEX
8
CUT
10
1.227
20
68.6128
0
VERTEX
8
CUT
10
3.2
20
70
0
VERTEX
8
CUT
10
12.8
20
70
0
VERTEX
8
CUT
10
14.773
20
68.6128
0
SEQEND
0
POLYLINE
8
CUT
66
1
70
0
0
VERTEX
8
CUT
10
1.227
20
66.8872
0
VERTEX
8
CUT
10
3.2
20
65.5
0
VERTEX
8
CUT
10
12.8
20
65.5
0
VERTEX
8
CUT
10
14.773
20
66.8872
0
SEQEND
0
POLYLINE
8
CUT
66
1
70
0
0
VERTEX
8
CUT
10
1.227
20
62.5128
0
VERTEX
8
CUT
10
3.2
20
63.9
0
VERTEX
8
CUT
10
12.8
20
63.9
0
VERTEX
8
CUT
10
14.773
20
62.5128
0
SEQEND
0
POLYLINE
8
CUT
66
1
70
0
0
VERTEX
8
CUT
10
1.227
20
60.7872
0
VERTEX
8
CUT
10
3.2
20
59.4
0
VERTEX
8
CUT
10
12.8
20
59.4
0
VERTEX
8
CUT
10
14.773
20
60.7872
0
SEQEND
0
POLYLINE
8
CUT
66
1
70
0
0
VERTEX
8
CUT
10
1.227
20
56.4128
0
VERTEX
8
CUT
10
3.2
20
57.8
0
VERTEX
8
CUT
10
12.8
20
57.8
0
VERTEX
8
CUT
10
14.773
20
56.4128
0
SEQEND
0
POLYLINE
8
CUT
66
1
70
0
0
VERTEX
8
CUT
10
1.227
20
54.6872
0
VERTEX
8
CUT
10
3.2
20
53.3
0
VERTEX
8
CUT
10
12.8
20
53.3
0
VERTEX
8
CUT
10
14.773
20
54.6872
0
SEQEND
0
POLYLINE
8
CUT
66
1
70
0
0
VERTEX
8
CUT
10
1.227
20
50.3128
0
VERTEX
8
CUT
10
3.2
20
51.7
0
VERTEX
8
CUT
10
12.8
20
51.7
0
VERTEX
8
CUT
10
14.773
20
50.3128
0
SEQEND
0
POLYLINE
8
CUT
66
1
70
0
0
VERTEX
8
CUT
10
1.227
20
48.5872
0
VERTEX
8
CUT
10
3.2
20
47.2
0
VERTEX
8
CUT
10
12.8
20
47.2
0
VERTEX
8
CUT
10
14.773
20
48.5872
0
SEQEND
0
POLYLINE
8
CUT
66
1
70
0
0
VERTEX
8
CUT
10
1.227
20
44.2128
0
VERTEX
8
CUT
10
3.2
20
45.6
0
VERTEX
8
CUT
10
12.8
20
45.6
0
VERTEX
8
CUT
10
14.773
20
44.2128
0
SEQEND
0
POLYLINE
8
CUT
66
1
70
0
0
VERTEX
8
CUT
10
1.227
20
42.4872
0
VERTEX
8
CUT
10
3.2
20
41.1
0
VERTEX
8
CUT
10
12.8
20
41.1
0
VERTEX
8
CUT
10
14.773
20
42.4872
0
SEQEND
0
POLYLINE
8
CUT
66
1
70
0
0
VERTEX
8
CUT
10
1.227
20
38.1128
0
VERTEX
8
CUT
10
3.2
20
39.5
0
VERTEX
8
CUT
10
12.8
20
39.5
0
VERTEX
8
CUT
10
14.773
20
38.1128
0
SEQEND
0
POLYLINE
8
CUT
66
1
70
0
0
VERTEX
8
CUT
10
1.227
20
36.3872
0
VERTEX
8
CUT
10
3.2
20
35
0
VERTEX
8
CUT
10
12.8
20
35
0
VERTEX
8
CUT
10
14.773
20
36.3872
0
SEQEND
0
POLYLINE
8
CUT
66
1
70
0
0
VERTEX
8
CUT
10
1.227
20
32.0128
0
VERTEX
8
CUT
10
3.2
20
33.4
0
VERTEX
8
CUT
10
12.8
20
33.4
0
VERTEX
8
CUT
10
14.773
20
32.0128
0
SEQEND
0
POLYLINE
8
CUT
66
1
70
0
0
VERTEX
8
CUT
10
1.227
20
30.2872
0
VERTEX
8
CUT
10
3.2
20
28.9
0
VERTEX
8
CUT
10
12.8
20
28.9
0
VERTEX
8
CUT
10
14.773
20
30.2872
0
SEQEND
0
POLYLINE
8
CUT
66
1
70
0
0
VERTEX
8
CUT
10
1.227
20
25.9128
0
VERTEX
8
CUT
10
3.2
20
27.3
0
VERTEX
8
CUT
10
12.8
20
27.3
0
VERTEX
8
CUT
10
14.773
20
25.9128
0
SEQEND
0
POLYLINE
8
CUT
66
1
70
0
0
VERTEX
8
CUT
10
1.227
20
24.1872
0
VERTEX
8
CUT
10
3.2
20
22.8
0
VERTEX
8
CUT
10
12.8
20
22.8
0
VERTEX
8
CUT
10
14.773
20
24.1872
0
SEQEND
0
POLYLINE
8
CUT
66
1
70
0
0
VERTEX
8
CUT
10
1.227
20
19.8128
0
VERTEX
8
CUT
10
3.2
20
21.2
0
VERTEX
8
CUT
10
12.8
20
21.2
0
VERTEX
8
CUT
10
14.773
20
19.8128
0
SEQEND
0
POLYLINE
8
CUT
66
1
70
0
0
VERTEX
8
CUT
10
1.227
20
18.0872
0
VERTEX
8
CUT
10
3.2
20
16.7
0
VERTEX
8
CUT
10
12.8
20
16.7
0
VERTEX
8
CUT
10
14.773
20
18.0872
0
SEQEND
0
POLYLINE
8
CUT
66
1
70
0
0
VERTEX
8
CUT
10
1.227
20
13.7128
0
VERTEX
8
CUT
10
3.2
20
15.1
0
VERTEX
8
CUT
10
12.8
20
15.1
0
VERTEX
8
CUT
10
14.773
20
13.7128
0
SEQEND
0
POLYLINE
8
CUT
66
1
70
0
0
VERTEX
8
CUT
10
1.227
20
11.9872
0
VERTEX
8
CUT
10
3.2
20
10.6
0
VERTEX
8
CUT
10
12.8
20
10.6
0
VERTEX
8
CUT
10
14.773
20
11.9872
0
SEQEND
0
POLYLINE
8
CUT
66
1
70
0
0
VERTEX
8
CUT
10
1.227
20
7.6128
0
VERTEX
8
CUT
10
3.2
20
9
0
VERTEX
8
CUT
10
12.8
20
9
0
VERTEX
8
CUT
10
14.773
20
7.6128
0
SEQEND
0
POLYLINE
8
CUT
66
1
70
0
0
VERTEX
8
CUT
10
1.227
20
5.8872
0
VERTEX
8
CUT
10
3.2
20
4.5
0
VERTEX
8
CUT
10
12.8
20
4.5
0
VERTEX
8
CUT
10
14.773
20
5.8872
0
SEQEND
0
POLYLINE
8
CUT
66
1
70
0
0
VERTEX
8
CUT
10
1.227
20
1.5128
0
VERTEX
8
CUT
10
3.2
20
2.9
0
VERTEX
8
CUT
10
12.8
20
2.9
0
VERTEX
8
CUT
10
14.773
20
1.5128
0
SEQEND
0
POLYLINE
8
CUT
66
1
70
0
0
VERTEX
8
CUT
10
15.419
20
69.9372
0
VERTEX
8
CUT
10
17.392
20
68.55
0
VERTEX
8
CUT
10
26.992
20
68.55
0
VERTEX
8
CUT
10
28.965
20
69.9372
0
SEQEND
0
POLYLINE
8
CUT
66
1
70
0
0
VERTEX
8
CUT
10
15.419
20
65.5628
0
VERTEX
8
CUT
10
17.392
20
66.95
0
VERTEX
8
CUT
10
26.992
20
66.95
0
VERTEX
8
CUT
10
28.965
20
65.5628
0
SEQEND
0
POLYLINE
8
CUT
66
1
70
0
0
VERTEX
8
CUT
10
15.419
20
63.8372
0
VERTEX
8
CUT
10
17.392
20
62.45
0
VERTEX
8
CUT
10
26.992
20
62.45
0
VERTEX
8
CUT
10
28.965
20
63.8372
0
SEQEND
0
POLYLINE
8
CUT
66
1
70
0
0
VERTEX
8
CUT
10
15.419
20
59.4628
0
VERTEX
8
CUT
10
17.392
20
60.85
0
VERTEX
8
CUT
10
26.992
20
60.85
0
VERTEX
8
CUT
10
28.965
20
59.4628
0
SEQEND
0
POLYLINE
8
CUT
66
1
70
0
0
VERTEX
8
CUT
10
15.419
20
57.7372
0
VERTEX
8
CUT
10
17.392
20
56.35
0
VERTEX
8
CUT
10
26.992
20
56.35
0
VERTEX
8
CUT
10
28.965
20
57.7372
0
SEQEND
0
POLYLINE
8
CUT
66
1
70
0
0
VERTEX
8
CUT
10
15.419
20
53.3628
0
VERTEX
8
CUT
10
17.392
20
54.75
0
VERTEX
8
CUT
10
26.992
20
54.75
0
VERTEX
8
CUT
10
28.965
20
53.3628
0
SEQEND
0
POLYLINE
8
CUT
66
1
70
0
0
VERTEX
8
CUT
10
15.419
20
51.6372
0
VERTEX
8
CUT
10
17.392
20
50.25
0
VERTEX
8
CUT
10
26.992
20
50.25
0
VERTEX
8
CUT
10
28.965
20
51.6372
0
SEQEND
0
POLYLINE
8
CUT
66
1
70
0
0
VERTEX
8
CUT
10
15.419
20
47.2628
0
VERTEX
8
CUT
10
17.392
20
48.65
0
VERTEX
8
CUT
10
26.992
20
48.65
0
VERTEX
8
CUT
10
28.965
20
47.2628
0
SEQEND
0
POLYLINE
8
CUT
66
1
70
0
0
VERTEX
8
CUT
10
15.419
20
45.5372
0
VERTEX
8
CUT
10
17.392
20
44.15
0
VERTEX
8
CUT
10
26.992
20
44.15
0
VERTEX
8
CUT
10
28.965
20
45.5372
0
SEQEND
0
POLYLINE
8
CUT
66
1
70
0
0
VERTEX
8
CUT
10
15.419
20
41.1628
0
VERTEX
8
CUT
10
17.392
20
42.55
0
VERTEX
8
CUT
10
26.992
20
42.55
0
VERTEX
8
CUT
10
28.965
20
41.1628
0
SEQEND
0
POLYLINE
8
CUT
66
1
70
0
0
VERTEX
8
CUT
10
15.419
20
39.4372
0
VERTEX
8
CUT
10
17.392
20
38.05
0
VERTEX
8
CUT
10
26.992
20
38.05
0
VERTEX
8
CUT
10
28.965
20
39.4372
0
SEQEND
0
POLYLINE
8
CUT
66
1
70
0
0
VERTEX
8
CUT
10
15.419
20
35.0628
0
VERTEX
8
CUT
10
17.392
20
36.45
0
VERTEX
8
CUT
10
26.992
20
36.45
0
VERTEX
8
CUT
10
28.965
20
35.0628
0
SEQEND
0
POLYLINE
8
CUT
66
1
70
0
0
VERTEX
8
CUT
10
15.419
20
33.3372
0
VERTEX
8
CUT
10
17.392
20
31.95
0
VERTEX
8
CUT
10
26.992
20
31.95
0
VERTEX
8
CUT
10
28.965
20
33.3372
0
SEQEND
0
POLYLINE
8
CUT
66
1
70
0
0
VERTEX
8
CUT
10
15.419
20
28.9628
0
VERTEX
8
CUT
10
17.392
20
30.35
0
VERTEX
8
CUT
10
26.992
20
30.35
0
VERTEX
8
CUT
10
28.965
20
28.9628
0
SEQEND
0
POLYLINE
8
CUT
66
1
70
0
0
VERTEX
8
CUT
10
15.419
20
27.2372
0
VERTEX
8
CUT
10
17.392
20
25.85
0
VERTEX
8
CUT
10
26.992
20
25.85
0
VERTEX
8
CUT
10
28.965
20
27.2372
0
SEQEND
0
POLYLINE
8
CUT
66
1
70
0
0
VERTEX
8
CUT
10
15.419
20
22.8628
0
VERTEX
8
CUT
10
17.392
20
24.25
0
VERTEX
8
CUT
10
26.992
20
24.25
0
VERTEX
8
CUT
10
28.965
20
22.8628
0
SEQEND
0
POLYLINE
8
CUT
66
1
70
0
0
VERTEX
8
CUT
10
15.419
20
21.1372
0
VERTEX
8
CUT
10
17.392
20
19.75
0
VERTEX
8
CUT
10
26.992
20
19.75
0
VERTEX
8
CUT
10
28.965
20
21.1372
0
SEQEND
0
POLYLINE
8
CUT
66
1
70
0
0
VERTEX
8
CUT
10
15.419
20
16.7628
0
VERTEX
8
CUT
10
17.392
20
18.15
0
VERTEX
8
CUT
10
26.992
20
18.15
0
VERTEX
8
CUT
10
28.965
20
16.7628
0
SEQEND
0
POLYLINE
8
CUT
66
1
70
0
0
VERTEX
8
CUT
10
15.419
20
15.0372
0
VERTEX
8
CUT
10
17.392
20
13.65
0
VERTEX
8
CUT
10
26.992
20
13.65
0
VERTEX
8
CUT
10
28.965
20
15.0372
0
SEQEND
0
POLYLINE
8
CUT
66
1
70
0
0
VERTEX
8
CUT
10
15.419
20
10.6628
0
VERTEX
8
CUT
10
17.392
20
12.05
0
VERTEX
8
CUT
10
26.992
20
12.05
0
VERTEX
8
CUT
10
28.965
20
10.6628
0
SEQEND
0
POLYLINE
8
CUT
66
1
70
0
0
VERTEX
8
CUT
10
15.419
20
8.9372
0
VERTEX
8
CUT
10
17.392
20
7.55
0
VERTEX
8
CUT
10
26.992
20
7.55
0
VERTEX
8
CUT
10
28.965
20
8.9372
0
SEQEND
0
POLYLINE
8
CUT
66
1
70
0
0
VERTEX
8
CUT
10
15.419
20
4.5628
0
VERTEX
8
CUT
10
17.392
20
5.95
0
VERTEX
8
CUT
10
26.992
20
5.95
0
VERTEX
8
CUT
10
28.965
20
4.5628
0
SEQEND
0
POLYLINE
8
CUT
66
1
70
0
0
VERTEX
8
CUT
10
15.419
20
2.8372
0
VERTEX
8
CUT
10
17.392
20
1.45
0
VERTEX
8
CUT
10
26.992
20
1.45
0
VERTEX
8
CUT
10
28.965
20
2.8372
0
SEQEND
0
POLYLINE
8
CUT
66
1
70
0
0
VERTEX
8
CUT
10
29.611
20
68.6128
0
VERTEX
8
CUT
10
31.584
20
70
0
VERTEX
8
CUT
10
41.184
20
70
0
VERTEX
8
CUT
10
43.157
20
68.6128
0
SEQEND
0
POLYLINE
8
CUT
66
1
70
0
0
VERTEX
8
CUT
10
29.611
20
66.8872
0
VERTEX
8
CUT
10
31.584
20
65.5
0
VERTEX
8
CUT
10
41.184
20
65.5
0
VERTEX
8
CUT
10
43.157
20
66.8872
0
SEQEND
0
POLYLINE
8
CUT
66
1
70
0
0
VERTEX
8
CUT
10
29.611
20
62.5128
0
VERTEX
8
CUT
10
31.584
20
63.9
0
VERTEX
8
CUT
10
41.184
20
63.9
0
VERTEX
8
CUT
10
43.157
20
62.5128
0
SEQEND
0
POLYLINE
8
CUT
66
1
70
0
0
VERTEX
8
CUT
10
29.611
20
60.7872
0
VERTEX
8
CUT
10
31.584
20
59.4
0
VERTEX
8
CUT
10
41.184
20
59.4
0
VERTEX
8
CUT
10
43.157
20
60.7872
0
SEQEND
0
POLYLINE
8
CUT
66
1
70
0
0
VERTEX
8
CUT
10
29.611
20
56.4128
0
VERTEX
8
CUT
10
31.584
20
57.8
0
VERTEX
8
CUT
10
41.184
20
57.8
0
VERTEX
8
CUT
10
43.157
20
56.4128
0
SEQEND
0
POLYLINE
8
CUT
66
1
70
0
0
VERTEX
8
CUT
10
29.611
20
54.6872
0
VERTEX
8
CUT
10
31.584
20
53.3
0
VERTEX
8
CUT
10
41.184
20
53.3
0
VERTEX
8
CUT
10
43.157
20
54.6872
0
SEQEND
0
POLYLINE
8
CUT
66
1
70
0
0
VERTEX
8
CUT
10
29.611
20
50.3128
0
VERTEX
8
CUT
10
31.584
20
51.7
0
VERTEX
8
CUT
10
41.184
20
51.7
0
VERTEX
8
CUT
10
43.157
20
50.3128
0
SEQEND
0
POLYLINE
8
CUT
66
1
70
0
0
VERTEX
8
CUT
10
29.611
20
48.5872
0
VERTEX
8
CUT
10
31.584
20
47.2
0
VERTEX
8
CUT
10
41.184
20
47.2
0
VERTEX
8
CUT
10
43.157
20
48.5872
0
SEQEND
0
POLYLINE
8
CUT
66
1
70
0
0
VERTEX
8
CUT
10
29.611
20
44.2128
0
VERTEX
8
CUT
10
31.584
20
45.6
0
VERTEX
8
CUT
10
41.184
20
45.6
0
VERTEX
8
CUT
10
43.157
20
44.2128
0
SEQEND
0
POLYLINE
8
CUT
66
1
70
0
0
VERTEX
8
CUT
10
29.611
20
42.4872
0
VERTEX
8
CUT
10
31.584
20
41.1
0
VERTEX
8
CUT
10
41.184
20
41.1
0
VERTEX
8
CUT
10
43.157
20
42.4872
0
SEQEND
0
POLYLINE
8
CUT
66
1
70
0
0
VERTEX
8
CUT
10
29.611
20
38.1128
0
VERTEX
8
CUT
10
31.584
20
39.5
0
VERTEX
8
CUT
10
41.184
20
39.5
0
VERTEX
8
CUT
10
43.157
20
38.1128
0
SEQEND
0
POLYLINE
8
CUT
66
1
70
0
0
VERTEX
8
CUT
10
29.611
20
36.3872
0
VERTEX
8
CUT
10
31.584
20
35
0
VERTEX
8
CUT
10
41.184
20
35
0
VERTEX
8
CUT
10
43.157
20
36.3872
0
SEQEND
0
POLYLINE
8
CUT
66
1
70
0
0
VERTEX
8
CUT
10
29.611
20
32.0128
0
VERTEX
8
CUT
10
31.584
20
33.4
0
VERTEX
8
CUT
10
41.184
20
33.4
0
VERTEX
8
CUT
10
43.157
20
32.0128
0
SEQEND
0
POLYLINE
8
CUT
66
1
70
0
0
VERTEX
8
CUT
10
29.611
20
30.2872
0
VERTEX
8
CUT
10
31.584
20
28.9
0
VERTEX
8
CUT
10
41.184
20
28.9
0
VERTEX
8
CUT
10
43.157
20
30.2872
0
SEQEND
0
POLYLINE
8
CUT
66
1
70
0
0
VERTEX
8
CUT
10
29.611
20
25.9128
0
VERTEX
8
CUT
10
31.584
20
27.3
0
VERTEX
8
CUT
10
41.184
20
27.3
0
VERTEX
8
CUT
10
43.157
20
25.9128
0
SEQEND
0
POLYLINE
8
CUT
66
1
70
0
0
VERTEX
8
CUT
10
29.611
20
24.1872
0
VERTEX
8
CUT
10
31.584
20
22.8
0
VERTEX
8
CUT
10
41.184
20
22.8
0
VERTEX
8
CUT
10
43.157
20
24.1872
0
SEQEND
0
POLYLINE
8
CUT
66
1
70
0
0
VERTEX
8
CUT
10
29.611
20
19.8128
0
VERTEX
8
CUT
10
31.584
20
21.2
0
VERTEX
8
CUT
10
41.184
20
21.2
0
VERTEX
8
CUT
10
43.157
20
19.8128
0
SEQEND
0
POLYLINE
8
CUT
66
1
70
0
0
VERTEX
8
CUT
10
29.611
20
18.0872
0
VERTEX
8
CUT
10
31.584
20
16.7
0
VERTEX
8
CUT
10
41.184
20
16.7
0
VERTEX
8
CUT
10
43.157
20
18.0872
0
SEQEND
0
POLYLINE
8
CUT
66
1
70
0
0
VERTEX
8
CUT
10
29.611
20
13.7128
0
VERTEX
8
CUT
10
31.584
20
15.1
0
VERTEX
8
CUT
10
41.184
20
15.1
0
VERTEX
8
CUT
10
43.157
20
13.7128
0
SEQEND
0
POLYLINE
8
CUT
66
1
70
0
0
VERTEX
8
CUT
10
29.611
20
11.9872
0
VERTEX
8
CUT
10
31.584
20
10.6
0
VERTEX
8
CUT
10
41.184
20
10.6
0
VERTEX
8
CUT
10
43.157
20
11.9872
0
SEQEND
0
POLYLINE
8
CUT
66
1
70
0
0
VERTEX
8
CUT
10
29.611
20
7.6128
0
VERTEX
8
CUT
10
31.584
20
9
0
VERTEX
8
CUT
10
41.184
20
9
0
VERTEX
8
CUT
10
43.157
20
7.6128
0
SEQEND
0
POLYLINE
8
CUT
66
1
70
0
0
VERTEX
8
CUT
10
29.611
20
5.8872
0
VERTEX
8
CUT
10
31.584
20
4.5
0
VERTEX
8
CUT
10
41.184
20
4.5
0
VERTEX
8
CUT
10
43.157
20
5.8872
0
SEQEND
0
POLYLINE
8
CUT
66
1
70
0
0
VERTEX
8
CUT
10
29.611
20
1.5128
0
VERTEX
8
CUT
10
31.584
20
2.9
0
VERTEX
8
CUT
10
41.184
20
2.9
0
VERTEX
8
CUT
10
43.157
20
1.5128
0
SEQEND
0
POLYLINE
8
CUT
66
1
70
0
0
VERTEX
8
CUT
10
43.803
20
69.9372
0
VERTEX
8
CUT
10
45.776
20
68.55
0
VERTEX
8
CUT
10
55.376
20
68.55
0
VERTEX
8
CUT
10
57.349
20
69.9372
0
SEQEND
0
POLYLINE
8
CUT
66
1
70
0
0
VERTEX
8
CUT
10
43.803
20
65.5628
0
VERTEX
8
CUT
10
45.776
20
66.95
0
VERTEX
8
CUT
10
55.376
20
66.95
0
VERTEX
8
CUT
10
57.349
20
65.5628
0
SEQEND
0
POLYLINE
8
CUT
66
1
70
0
0
VERTEX
8
CUT
10
43.803
20
63.8372
0
VERTEX
8
CUT
10
45.776
20
62.45
0
VERTEX
8
CUT
10
55.376
20
62.45
0
VERTEX
8
CUT
10
57.349
20
63.8372
0
SEQEND
0
POLYLINE
8
CUT
66
1
70
0
0
VERTEX
8
CUT
10
43.803
20
59.4628
0
VERTEX
8
CUT
10
45.776
20
60.85
0
VERTEX
8
CUT
10
55.376
20
60.85
0
VERTEX
8
CUT
10
57.349
20
59.4628
0
SEQEND
0
POLYLINE
8
CUT
66
1
70
0
0
VERTEX
8
CUT
10
43.803
20
57.7372
0
VERTEX
8
CUT
10
45.776
20
56.35
0
VERTEX
8
CUT
10
55.376
20
56.35
0
VERTEX
8
CUT
10
57.349
20
57.7372
0
SEQEND
0
POLYLINE
8
CUT
66
1
70
0
0
VERTEX
8
CUT
10
43.803
20
53.3628
0
VERTEX
8
CUT
10
45.776
20
54.75
0
VERTEX
8
CUT
10
55.376
20
54.75
0
VERTEX
8
CUT
10
57.349
20
53.3628
0
SEQEND
0
POLYLINE
8
CUT
66
1
70
0
0
VERTEX
8
CUT
10
43.803
20
51.6372
0
VERTEX
8
CUT
10
45.776
20
50.25
0
VERTEX
8
CUT
10
55.376
20
50.25
0
VERTEX
8
CUT
10
57.349
20
51.6372
0
SEQEND
0
POLYLINE
8
CUT
66
1
70
0
0
VERTEX
8
CUT
10
43.803
20
47.2628
0
VERTEX
8
CUT
10
45.776
20
48.65
0
VERTEX
8
CUT
10
55.376
20
48.65
0
VERTEX
8
CUT
10
57.349
20
47.2628
0
SEQEND
0
POLYLINE
8
CUT
66
1
70
0
0
VERTEX
8
CUT
10
43.803
20
45.5372
0
VERTEX
8
CUT
10
45.776
20
44.15
0
VERTEX
8
CUT
10
55.376
20
44.15
0
VERTEX
8
CUT
10
57.349
20
45.5372
0
SEQEND
0
POLYLINE
8
CUT
66
1
70
0
0
VERTEX
8
CUT
10
43.803
20
41.1628
0
VERTEX
8
CUT
10
45.776
20
42.55
0
VERTEX
8
CUT
10
55.376
20
42.55
0
VERTEX
8
CUT
10
57.349
20
41.1628
0
SEQEND
0
POLYLINE
8
CUT
66
1
70
0
0
VERTEX
8
CUT
10
43.803
20
39.4372
0
VERTEX
8
CUT
10
45.776
20
38.05
0
VERTEX
8
CUT
10
55.376
20
38.05
0
VERTEX
8
CUT
10
57.349
20
39.4372
0
SEQEND
0
POLYLINE
8
CUT
66
1
70
0
0
VERTEX
8
CUT
10
43.803
20
35.0628
0
VERTEX
8
CUT
10
45.776
20
36.45
0
VERTEX
8
CUT
10
55.376
20
36.45
0
VERTEX
8
CUT
10
57.349
20
35.0628
0
SEQEND
0
POLYLINE
8
CUT
66
1
70
0
0
VERTEX
8
CUT
10
43.803
20
33.3372
0
VERTEX
8
CUT
10
45.776
20
31.95
0
VERTEX
8
CUT
10
55.376
20
31.95
0
VERTEX
8
CUT
10
57.349
20
33.3372
0
SEQEND
0
POLYLINE
8
CUT
66
1
70
0
0
VERTEX
8
CUT
10
43.803
20
28.9628
0
VERTEX
8
CUT
10
45.776
20
30.35
0
VERTEX
8
CUT
10
55.376
20
30.35
0
VERTEX
8
CUT
10
57.349
20
28.9628
0
SEQEND
0
POLYLINE
8
CUT
66
1
70
0
0
VERTEX
8
CUT
10
43.803
20
27.2372
0
VERTEX
8
CUT
10
45.776
20
25.85
0
VERTEX
8
CUT
10
55.376
20
25.85
0
VERTEX
8
CUT
10
57.349
20
27.2372
0
SEQEND
0
POLYLINE
8
CUT
66
1
70
0
0
VERTEX
8
CUT
10
43.803
20
22.8628
0
VERTEX
8
CUT
10
45.776
20
24.25
0
VERTEX
8
CUT
10
55.376
20
24.25
0
VERTEX
8
CUT
10
57.349
20
22.8628
0
SEQEND
0
POLYLINE
8
CUT
66
1
70
0
0
VERTEX
8
CUT
10
43.803
20
21.1372
0
VERTEX
8
CUT
10
45.776
20
19.75
0
VERTEX
8
CUT
10
55.376
20
19.75
0
VERTEX
8
CUT
10
57.349
20
21.1372
0
SEQEND
0
POLYLINE
8
CUT
66
1
70
0
0
VERTEX
8
CUT
10
43.803
20
16.7628
0
VERTEX
8
CUT
10
45.776
20
18.15
0
VERTEX
8
CUT
10
55.376
20
18.15
0
VERTEX
8
CUT
10
57.349
20
16.7628
0
SEQEND
0
POLYLINE
8
CUT
66
1
70
0
0
VERTEX
8
CUT
10
43.803
20
15.0372
0
VERTEX
8
CUT
10
45.776
20
13.65
0
VERTEX
8
CUT
10
55.376
20
13.65
0
VERTEX
8
CUT
10
57.349
20
15.0372
0
SEQEND
0
POLYLINE
8
CUT
66
1
70
0
0
VERTEX
8
CUT
10
43.803
20
10.6628
0
VERTEX
8
CUT
10
45.776
20
12.05
0
VERTEX
8
CUT
10
55.376
20
12.05
0
VERTEX
8
CUT
10
57.349
20
10.6628
0
SEQEND
0
POLYLINE
8
CUT
66
1
70
0
0
VERTEX
8
CUT
10
43.803
20
8.9372
0
VERTEX
8
CUT
10
45.776
20
7.55
0
VERTEX
8
CUT
10
55.376
20
7.55
0
VERTEX
8
CUT
10
57.349
20
8.9372
0
SEQEND
0
POLYLINE
8
CUT
66
1
70
0
0
VERTEX
8
CUT
10
43.803
20
4.5628
0
VERTEX
8
CUT
10
45.776
20
5.95
0
VERTEX
8
CUT
10
55.376
20
5.95
0
VERTEX
8
CUT
10
57.349
20
4.5628
0
SEQEND
0
POLYLINE
8
CUT
66
1
70
0
0
VERTEX
8
CUT
10
43.803
20
2.8372
0
VERTEX
8
CUT
10
45.776
20
1.45
0
VERTEX
8
CUT
10
55.376
20
1.45
0
VERTEX
8
CUT
10
57.349
20
2.8372
0
SEQEND
0
POLYLINE
8
CUT
66
1
70
0
0
VERTEX
8
CUT
10
57.995
20
68.6128
0
VERTEX
8
CUT
10
59.968
20
70
0
VERTEX
8
CUT
10
69.568
20
70
0
VERTEX
8
CUT
10
71.541
20
68.6128
0
SEQEND
0
POLYLINE
8
CUT
66
1
70
0
0
VERTEX
8
CUT
10
57.995
20
66.8872
0
VERTEX
8
CUT
10
59.968
20
65.5
0
VERTEX
8
CUT
10
69.568
20
65.5
0
VERTEX
8
CUT
10
71.541
20
66.8872
0
SEQEND
0
POLYLINE
8
CUT
66
1
70
0
0
VERTEX
8
CUT
10
57.995
20
62.5128
0
VERTEX
8
CUT
10
59.968
20
63.9
0
VERTEX
8
CUT
10
69.568
20
63.9
0
VERTEX
8
CUT
10
71.541
20
62.5128
0
SEQEND
0
POLYLINE
8
CUT
66
1
70
0
0
VERTEX
8
CUT
10
57.995
20
60.7872
0
VERTEX
8
CUT
10
59.968
20
59.4
0
VERTEX
8
CUT
10
69.568
20
59.4
0
VERTEX
8
CUT
10
71.541
20
60.7872
0
SEQEND
0
POLYLINE
8
CUT
66
1
70
0
0
VERTEX
8
CUT
10
57.995
20
56.4128
0
VERTEX
8
CUT
10
59.968
20
57.8
0
VERTEX
8
CUT
10
69.568
20
57.8
0
VERTEX
8
CUT
10
71.541
20
56.4128
0
SEQEND
0
POLYLINE
8
CUT
66
1
70
0
0
VERTEX
8
CUT
10
57.995
20
54.6872
0
VERTEX
8
CUT
10
59.968
20
53.3
0
VERTEX
8
CUT
10
69.568
20
53.3
0
VERTEX
8
CUT
10
71.541
20
54.6872
0
SEQEND
0
POLYLINE
8
CUT
66
1
70
0
0
VERTEX
8
CUT
10
57.995
20
50.3128
0
VERTEX
8
CUT
10
59.968
20
51.7
0
VERTEX
8
CUT
10
69.568
20
51.7
0
VERTEX
8
CUT
10
71.541
20
50.3128
0
SEQEND
0
POLYLINE
8
CUT
66
1
70
0
0
VERTEX
8
CUT
10
57.995
20
48.5872
0
VERTEX
8
CUT
10
59.968
20
47.2
0
VERTEX
8
CUT
10
69.568
20
47.2
0
VERTEX
8
CUT
10
71.541
20
48.5872
0
SEQEND
0
POLYLINE
8
CUT
66
1
70
0
0
VERTEX
8
CUT
10
57.995
20
44.2128
0
VERTEX
8
CUT
10
59.968
20
45.6
0
VERTEX
8
CUT
10
69.568
20
45.6
0
VERTEX
8
CUT
10
71.541
20
44.2128
0
SEQEND
0
POLYLINE
8
CUT
66
1
70
0
0
VERTEX
8
CUT
10
57.995
20
42.4872
0
VERTEX
8
CUT
10
59.968
20
41.1
0
VERTEX
8
CUT
10
69.568
20
41.1
0
VERTEX
8
CUT
10
71.541
20
42.4872
0
SEQEND
0
POLYLINE
8
CUT
66
1
70
0
0
VERTEX
8
CUT
10
57.995
20
38.1128
0
VERTEX
8
CUT
10
59.968
20
39.5
0
VERTEX
8
CUT
10
69.568
20
39.5
0
VERTEX
8
CUT
10
71.541
20
38.1128
0
SEQEND
0
POLYLINE
8
CUT
66
1
70
0
0
VERTEX
8
CUT
10
57.995
20
36.3872
0
VERTEX
8
CUT
10
59.968
20
35
0
VERTEX
8
CUT
10
69.568
20
35
0
VERTEX
8
CUT
10
71.541
20
36.3872
0
SEQEND
0
POLYLINE
8
CUT
66
1
70
0
0
VERTEX
8
CUT
10
57.995
20
32.0128
0
VERTEX
8
CUT
10
59.968
20
33.4
0
VERTEX
8
CUT
10
69.568
20
33.4
0
VERTEX
8
CUT
10
71.541
20
32.0128
0
SEQEND
0
POLYLINE
8
CUT
66
1
70
0
0
VERTEX
8
CUT
10
57.995
20
30.2872
0
VERTEX
8
CUT
10
59.968
20
28.9
0
VERTEX
8
CUT
10
69.568
20
28.9
0
VERTEX
8
CUT
10
71.541
20
30.2872
0
SEQEND
0
POLYLINE
8
CUT
66
1
70
0
0
VERTEX
8
CUT
10
57.995
20
25.9128
0
VERTEX
8
CUT
10
59.968
20
27.3
0
VERTEX
8
CUT
10
69.568
20
27.3
0
VERTEX
8
CUT
10
71.541
20
25.9128
0
SEQEND
0
POLYLINE
8
CUT
66
1
70
0
0
VERTEX
8
CUT
10
57.995
20
24.1872
0
VERTEX
8
CUT
10
59.968
20
22.8
0
VERTEX
8
CUT
10
69.568
20
22.8
0
VERTEX
8
CUT
10
71.541
20
24.1872
0
SEQEND
0
POLYLINE
8
CUT
66
1
70
0
0
VERTEX
8
CUT
10
57.995
20
19.8128
0
VERTEX
8
CUT
10
59.968
20
21.2
0
VERTEX
8
CUT
10
69.568
20
21.2
0
VERTEX
8
CUT
10
71.541
20
19.8128
0
SEQEND
0
POLYLINE
8
CUT
66
1
70
0
0
VERTEX
8
CUT
10
57.995
20
18.0872
0
VERTEX
8
CUT
10
59.968
20
16.7
0
VERTEX
8
CUT
10
69.568
20
16.7
0
VERTEX
8
CUT
10
71.541
20
18.0872
0
SEQEND
0
POLYLINE
8
CUT
66
1
70
0
0
VERTEX
8
CUT
10
57.995
20
13.7128
0
VERTEX
8
CUT
10
59.968
20
15.1
0
VERTEX
8
CUT
10
69.568
20
15.1
0
VERTEX
8
CUT
10
71.541
20
13.7128
0
SEQEND
0
POLYLINE
8
CUT
66
1
70
0
0
VERTEX
8
CUT
10
57.995
20
11.9872
0
VERTEX
8
CUT
10
59.968
20
10.6
0
VERTEX
8
CUT
10
69.568
20
10.6
0
VERTEX
8
CUT
10
71.541
20
11.9872
0
SEQEND
0
POLYLINE
8
CUT
66
1
70
0
0
VERTEX
8
CUT
10
57.995
20
7.6128
0
VERTEX
8
CUT
10
59.968
20
9
0
VERTEX
8
CUT
10
69.568
20
9
0
VERTEX
8
CUT
10
71.541
20
7.6128
0
SEQEND
0
POLYLINE
8
CUT
66
1
70
0
0
VERTEX
8
CUT
10
57.995
20
5.8872
0
VERTEX
8
CUT
10
59.968
20
4.5
0
VERTEX
8
CUT
10
69.568
20
4.5
0
VERTEX
8
CUT
10
71.541
20
5.8872
0
SEQEND
0
POLYLINE
8
CUT
66
1
70
0
0
VERTEX
8
CUT
10
57.995
20
1.5128
0
VERTEX
8
CUT
10
59.968
20
2.9
0
VERTEX
8
CUT
10
69.568
20
2.9
0
VERTEX
8
CUT
10
71.541
20
1.5128
0
SEQEND
0
POLYLINE
8
CUT
66
1
70
0
0
VERTEX
8
CUT
10
72.187
20
69.9372
0
VERTEX
8
CUT
10
74.16
20
68.55
0
VERTEX
8
CUT
10
83.76
20
68.55
0
VERTEX
8
CUT
10
85.733
20
69.9372
0
SEQEND
0
POLYLINE
8
CUT
66
1
70
0
0
VERTEX
8
CUT
10
72.187
20
65.5628
0
VERTEX
8
CUT
10
74.16
20
66.95
0
VERTEX
8
CUT
10
83.76
20
66.95
0
VERTEX
8
CUT
10
85.733
20
65.5628
0
SEQEND
0
POLYLINE
8
CUT
66
1
70
0
0
VERTEX
8
CUT
10
72.187
20
63.8372
0
VERTEX
8
CUT
10
74.16
20
62.45
0
VERTEX
8
CUT
10
83.76
20
62.45
0
VERTEX
8
CUT
10
85.733
20
63.8372
0
SEQEND
0
POLYLINE
8
CUT
66
1
70
0
0
VERTEX
8
CUT
10
72.187
20
59.4628
0
VERTEX
8
CUT
10
74.16
20
60.85
0
VERTEX
8
CUT
10
83.76
20
60.85
0
VERTEX
8
CUT
10
85.733
20
59.4628
0
SEQEND
0
POLYLINE
8
CUT
66
1
70
0
0
VERTEX
8
CUT
10
72.187
20
57.7372
0
VERTEX
8
CUT
10
74.16
20
56.35
0
VERTEX
8
CUT
10
83.76
20
56.35
0
VERTEX
8
CUT
10
85.733
20
57.7372
0
SEQEND
0
POLYLINE
8
CUT
66
1
70
0
0
VERTEX
8
CUT
10
72.187
20
53.3628
0
VERTEX
8
CUT
10
74.16
20
54.75
0
VERTEX
8
CUT
10
83.76
20
54.75
0
VERTEX
8
CUT
10
85.733
20
53.3628
0
SEQEND
0
POLYLINE
8
CUT
66
1
70
0
0
VERTEX
8
CUT
10
72.187
20
51.6372
0
VERTEX
8
CUT
10
74.16
20
50.25
0
VERTEX
8
CUT
10
83.76
20
50.25
0
VERTEX
8
CUT
10
85.733
20
51.6372
0
SEQEND
0
POLYLINE
8
CUT
66
1
70
0
0
VERTEX
8
CUT
10
72.187
20
47.2628
0
VERTEX
8
CUT
10
74.16
20
48.65
0
VERTEX
8
CUT
10
83.76
20
48.65
0
VERTEX
8
CUT
10
85.733
20
47.2628
0
SEQEND
0
POLYLINE
8
CUT
66
1
70
0
0
VERTEX
8
CUT
10
72.187
20
45.5372
0
VERTEX
8
CUT
10
74.16
20
44.15
0
VERTEX
8
CUT
10
83.76
20
44.15
0
VERTEX
8
CUT
10
85.733
20
45.5372
0
SEQEND
0
POLYLINE
8
CUT
66
1
70
0
0
VERTEX
8
CUT
10
72.187
20
41.1628
0
VERTEX
8
CUT
10
74.16
20
42.55
0
VERTEX
8
CUT
10
83.76
20
42.55
0
VERTEX
8
CUT
10
85.733
20
41.1628
0
SEQEND
0
POLYLINE
8
CUT
66
1
70
0
0
VERTEX
8
CUT
10
72.187
20
39.4372
0
VERTEX
8
CUT
10
74.16
20
38.05
0
VERTEX
8
CUT
10
83.76
20
38.05
0
VERTEX
8
CUT
10
85.733
20
39.4372
0
SEQEND
0
POLYLINE
8
CUT
66
1
70
0
0
VERTEX
8
CUT
10
72.187
20
35.0628
0
VERTEX
8
CUT
10
74.16
20
36.45
0
VERTEX
8
CUT
10
83.76
20
36.45
0
VERTEX
8
CUT
10
85.733
20
35.0628
0
SEQEND
0
POLYLINE
8
CUT
66
1
70
0
0
VERTEX
8
CUT
10
72.187
20
33.3372
0
VERTEX
8
CUT
10
74.16
20
31.95
0
VERTEX
8
CUT
10
83.76
20
31.95
0
VERTEX
8
CUT
10
85.733
20
33.3372
0
SEQEND
0
POLYLINE
8
CUT
66
1
70
0
0
VERTEX
8
CUT
10
72.187
20
28.9628
0
VERTEX
8
CUT
10
74.16
20
30.35
0
VERTEX
8
CUT
10
83.76
20
30.35
0
VERTEX
8
CUT
10
85.733
20
28.9628
0
SEQEND
0
POLYLINE
8
CUT
66
1
70
0
0
VERTEX
8
CUT
10
72.187
20
27.2372
0
VERTEX
8
CUT
10
74.16
20
25.85
0
VERTEX
8
CUT
10
83.76
20
25.85
0
VERTEX
8
CUT
10
85.733
20
27.2372
0
SEQEND
0
POLYLINE
8
CUT
66
1
70
0
0
VERTEX
8
CUT
10
72.187
20
22.8628
0
VERTEX
8
CUT
10
74.16
20
24.25
0
VERTEX
8
CUT
10
83.76
20
24.25
0
VERTEX
8
CUT
10
85.733
20
22.8628
0
SEQEND
0
POLYLINE
8
CUT
66
1
70
0
0
VERTEX
8
CUT
10
72.187
20
21.1372
0
VERTEX
8
CUT
10
74.16
20
19.75
0
VERTEX
8
CUT
10
83.76
20
19.75
0
VERTEX
8
CUT
10
85.733
20
21.1372
0
SEQEND
0
POLYLINE
8
CUT
66
1
70
0
0
VERTEX
8
CUT
10
72.187
20
16.7628
0
VERTEX
8
CUT
10
74.16
20
18.15
0
VERTEX
8
CUT
10
83.76
20
18.15
0
VERTEX
8
CUT
10
85.733
20
16.7628
0
SEQEND
0
POLYLINE
8
CUT
66
1
70
0
0
VERTEX
8
CUT
10
72.187
20
15.0372
0
VERTEX
8
CUT
10
74.16
20
13.65
0
VERTEX
8
CUT
10
83.76
20
13.65
0
VERTEX
8
CUT
10
85.733
20
15.0372
0
SEQEND
0
POLYLINE
8
CUT
66
1
70
0
0
VERTEX
8
CUT
10
72.187
20
10.6628
0
VERTEX
8
CUT
10
74.16
20
12.05
0
VERTEX
8
CUT
10
83.76
20
12.05
0
VERTEX
8
CUT
10
85.733
20
10.6628
0
SEQEND
0
POLYLINE
8
CUT
66
1
70
0
0
VERTEX
8
CUT
10
72.187
20
8.9372
0
VERTEX
8
CUT
10
74.16
20
7.55
0
VERTEX
8
CUT
10
83.76
20
7.55
0
VERTEX
8
CUT
10
85.733
20
8.9372
0
SEQEND
0
POLYLINE
8
CUT
66
1
70
0
0
VERTEX
8
CUT
10
72.187
20
4.5628
0
VERTEX
8
CUT
10
74.16
20
5.95
0
VERTEX
8
CUT
10
83.76
20
5.95
0
VERTEX
8
CUT
10
85.733
20
4.5628
0
SEQEND
0
POLYLINE
8
CUT
66
1
70
0
0
VERTEX
8
CUT
10
72.187
20
2.8372
0
VERTEX
8
CUT
10
74.16
20
1.45
0
VERTEX
8
CUT
10
83.76
20
1.45
0
VERTEX
8
CUT
10
85.733
20
2.8372
0
SEQEND
0
POLYLINE
8
CUT
66
1
70
0
0
VERTEX
8
CUT
10
86.379
20
68.6128
0
VERTEX
8
CUT
10
88.352
20
70
0
VERTEX
8
CUT
10
97.952
20
70
0
VERTEX
8
CUT
10
99.925
20
68.6128
0
SEQEND
0
POLYLINE
8
CUT
66
1
70
0
0
VERTEX
8
CUT
10
86.379
20
66.8872
0
VERTEX
8
CUT
10
88.352
20
65.5
0
VERTEX
8
CUT
10
97.952
20
65.5
0
VERTEX
8
CUT
10
99.925
20
66.8872
0
SEQEND
0
POLYLINE
8
CUT
66
1
70
0
0
VERTEX
8
CUT
10
86.379
20
62.5128
0
VERTEX
8
CUT
10
88.352
20
63.9
0
VERTEX
8
CUT
10
97.952
20
63.9
0
VERTEX
8
CUT
10
99.925
20
62.5128
0
SEQEND
0
POLYLINE
8
CUT
66
1
70
0
0
VERTEX
8
CUT
10
86.379
20
60.7872
0
VERTEX
8
CUT
10
88.352
20
59.4
0
VERTEX
8
CUT
10
97.952
20
59.4
0
VERTEX
8
CUT
10
99.925
20
60.7872
0
SEQEND
0
POLYLINE
8
CUT
66
1
70
0
0
VERTEX
8
CUT
10
86.379
20
56.4128
0
VERTEX
8
CUT
10
88.352
20
57.8
0
VERTEX
8
CUT
10
97.952
20
57.8
0
VERTEX
8
CUT
10
99.925
20
56.4128
0
SEQEND
0
POLYLINE
8
CUT
66
1
70
0
0
VERTEX
8
CUT
10
86.379
20
54.6872
0
VERTEX
8
CUT
10
88.352
20
53.3
0
VERTEX
8
CUT
10
97.952
20
53.3
0
VERTEX
8
CUT
10
99.925
20
54.6872
0
SEQEND
0
POLYLINE
8
CUT
66
1
70
0
0
VERTEX
8
CUT
10
86.379
20
50.3128
0
VERTEX
8
CUT
10
88.352
20
51.7
0
VERTEX
8
CUT
10
97.952
20
51.7
0
VERTEX
8
CUT
10
99.925
20
50.3128
0
SEQEND
0
POLYLINE
8
CUT
66
1
70
0
0
VERTEX
8
CUT
10
86.379
20
48.5872
0
VERTEX
8
CUT
10
88.352
20
47.2
0
VERTEX
8
CUT
10
97.952
20
47.2
0
VERTEX
8
CUT
10
99.925
20
48.5872
0
SEQEND
0
POLYLINE
8
CUT
66
1
70
0
0
VERTEX
8
CUT
10
86.379
20
44.2128
0
VERTEX
8
CUT
10
88.352
20
45.6
0
VERTEX
8
CUT
10
97.952
20
45.6
0
VERTEX
8
CUT
10
99.925
20
44.2128
0
SEQEND
0
POLYLINE
8
CUT
66
1
70
0
0
VERTEX
8
CUT
10
86.379
20
42.4872
0
VERTEX
8
CUT
10
88.352
20
41.1
0
VERTEX
8
CUT
10
97.952
20
41.1
0
VERTEX
8
CUT
10
99.925
20
42.4872
0
SEQEND
0
POLYLINE
8
CUT
66
1
70
0
0
VERTEX
8
CUT
10
86.379
20
38.1128
0
VERTEX
8
CUT
10
88.352
20
39.5
0
VERTEX
8
CUT
10
97.952
20
39.5
0
VERTEX
8
CUT
10
99.925
20
38.1128
0
SEQEND
0
POLYLINE
8
CUT
66
1
70
0
0
VERTEX
8
CUT
10
86.379
20
36.3872
0
VERTEX
8
CUT
10
88.352
20
35
0
VERTEX
8
CUT
10
97.952
20
35
0
VERTEX
8
CUT
10
99.925
20
36.3872
0
SEQEND
0
POLYLINE
8
CUT
66
1
70
0
0
VERTEX
8
CUT
10
86.379
20
32.0128
0
VERTEX
8
CUT
10
88.352
20
33.4
0
VERTEX
8
CUT
10
97.952
20
33.4
0
VERTEX
8
CUT
10
99.925
20
32.0128
0
SEQEND
0
POLYLINE
8
CUT
66
1
70
0
0
VERTEX
8
CUT
10
86.379
20
30.2872
0
VERTEX
8
CUT
10
88.352
20
28.9
0
VERTEX
8
CUT
10
97.952
20
28.9
0
VERTEX
8
CUT
10
99.925
20
30.2872
0
SEQEND
0
POLYLINE
8
CUT
66
1
70
0
0
VERTEX
8
CUT
10
86.379
20
25.9128
0
VERTEX
8
CUT
10
88.352
20
27.3
0
VERTEX
8
CUT
10
97.952
20
27.3
0
VERTEX
8
CUT
10
99.925
20
25.9128
0
SEQEND
0
POLYLINE
8
CUT
66
1
70
0
0
VERTEX
8
CUT
10
86.379
20
24.1872
0
VERTEX
8
CUT
10
88.352
20
22.8
0
VERTEX
8
CUT
10
97.952
20
22.8
0
VERTEX
8
CUT
10
99.925
20
24.1872
0
SEQEND
0
POLYLINE
8
CUT
66
1
70
0
0
VERTEX
8
CUT
10
86.379
20
19.8128
0
VERTEX
8
CUT
10
88.352
20
21.2
0
VERTEX
8
CUT
10
97.952
20
21.2
0
VERTEX
8
CUT
10
99.925
20
19.8128
0
SEQEND
0
POLYLINE
8
CUT
66
1
70
0
0
VERTEX
8
CUT
10
86.379
20
18.0872
0
VERTEX
8
CUT
10
88.352
20
16.7
0
VERTEX
8
CUT
10
97.952
20
16.7
0
VERTEX
8
CUT
10
99.925
20
18.0872
0
SEQEND
0
POLYLINE
8
CUT
66
1
70
0
0
VERTEX
8
CUT
10
86.379
20
13.7128
0
VERTEX
8
CUT
10
88.352
20
15.1
0
VERTEX
8
CUT
10
97.952
20
15.1
0
VERTEX
8
CUT
10
99.925
20
13.7128
0
SEQEND
0
POLYLINE
8
CUT
66
1
70
0
0
VERTEX
8
CUT
10
86.379
20
11.9872
0
VERTEX
8
CUT
10
88.352
20
10.6
0
VERTEX
8
CUT
10
97.952
20
10.6
0
VERTEX
8
CUT
10
99.925
20
11.9872
0
SEQEND
0
POLYLINE
8
CUT
66
1
70
0
0
VERTEX
8
CUT
10
86.379
20
7.6128
0
VERTEX
8
CUT
10
88.352
20
9
0
VERTEX
8
CUT
10
97.952
20
9
0
VERTEX
8
CUT
10
99.925
20
7.6128
0
SEQEND
0
POLYLINE
8
CUT
66
1
70
0
0
VERTEX
8
CUT
10
86.379
20
5.8872
0
VERTEX
8
CUT
10
88.352
20
4.5
0
VERTEX
8
CUT
10
97.952
20
4.5
0
VERTEX
8
CUT
10
99.925
20
5.8872
0
SEQEND
0
POLYLINE
8
CUT
66
1
70
0
0
VERTEX
8
CUT
10
86.379
20
1.5128
0
VERTEX
8
CUT
10
88.352
20
2.9
0
VERTEX
8
CUT
10
97.952
20
2.9
0
VERTEX
8
CUT
10
99.925
20
1.5128
0
SEQEND
0
POLYLINE
8
CUT
66
1
70
0
0
VERTEX
8
CUT
10
100.571
20
69.9372
0
VERTEX
8
CUT
10
102.544
20
68.55
0
VERTEX
8
CUT
10
112.144
20
68.55
0
VERTEX
8
CUT
10
114.117
20
69.9372
0
SEQEND
0
POLYLINE
8
CUT
66
1
70
0
0
VERTEX
8
CUT
10
100.571
20
65.5628
0
VERTEX
8
CUT
10
102.544
20
66.95
0
VERTEX
8
CUT
10
112.144
20
66.95
0
VERTEX
8
CUT
10
114.117
20
65.5628
0
SEQEND
0
POLYLINE
8
CUT
66
1
70
0
0
VERTEX
8
CUT
10
100.571
20
63.8372
0
VERTEX
8
CUT
10
102.544
20
62.45
0
VERTEX
8
CUT
10
112.144
20
62.45
0
VERTEX
8
CUT
10
114.117
20
63.8372
0
SEQEND
0
POLYLINE
8
CUT
66
1
70
0
0
VERTEX
8
CUT
10
100.571
20
59.4628
0
VERTEX
8
CUT
10
102.544
20
60.85
0
VERTEX
8
CUT
10
112.144
20
60.85
0
VERTEX
8
CUT
10
114.117
20
59.4628
0
SEQEND
0
POLYLINE
8
CUT
66
1
70
0
0
VERTEX
8
CUT
10
100.571
20
57.7372
0
VERTEX
8
CUT
10
102.544
20
56.35
0
VERTEX
8
CUT
10
112.144
20
56.35
0
VERTEX
8
CUT
10
114.117
20
57.7372
0
SEQEND
0
POLYLINE
8
CUT
66
1
70
0
0
VERTEX
8
CUT
10
100.571
20
53.3628
0
VERTEX
8
CUT
10
102.544
20
54.75
0
VERTEX
8
CUT
10
112.144
20
54.75
0
VERTEX
8
CUT
10
114.117
20
53.3628
0
SEQEND
0
POLYLINE
8
CUT
66
1
70
0
0
VERTEX
8
CUT
10
100.571
20
51.6372
0
VERTEX
8
CUT
10
102.544
20
50.25
0
VERTEX
8
CUT
10
112.144
20
50.25
0
VERTEX
8
CUT
10
114.117
20
51.6372
0
SEQEND
0
POLYLINE
8
CUT
66
1
70
0
0
VERTEX
8
CUT
10
100.571
20
47.2628
0
VERTEX
8
CUT
10
102.544
20
48.65
0
VERTEX
8
CUT
10
112.144
20
48.65
0
VERTEX
8
CUT
10
114.117
20
47.2628
0
SEQEND
0
POLYLINE
8
CUT
66
1
70
0
0
VERTEX
8
CUT
10
100.571
20
45.5372
0
VERTEX
8
CUT
10
102.544
20
44.15
0
VERTEX
8
CUT
10
112.144
20
44.15
0
VERTEX
8
CUT
10
114.117
20
45.5372
0
SEQEND
0
POLYLINE
8
CUT
66
1
70
0
0
VERTEX
8
CUT
10
100.571
20
41.1628
0
VERTEX
8
CUT
10
102.544
20
42.55
0
VERTEX
8
CUT
10
112.144
20
42.55
0
VERTEX
8
CUT
10
114.117
20
41.1628
0
SEQEND
0
POLYLINE
8
CUT
66
1
70
0
0
VERTEX
8
CUT
10
100.571
20
39.4372
0
VERTEX
8
CUT
10
102.544
20
38.05
0
VERTEX
8
CUT
10
112.144
20
38.05
0
VERTEX
8
CUT
10
114.117
20
39.4372
0
SEQEND
0
POLYLINE
8
CUT
66
1
70
0
0
VERTEX
8
CUT
10
100.571
20
35.0628
0
VERTEX
8
CUT
10
102.544
20
36.45
0
VERTEX
8
CUT
10
112.144
20
36.45
0
VERTEX
8
CUT
10
114.117
20
35.0628
0
SEQEND
0
POLYLINE
8
CUT
66
1
70
0
0
VERTEX
8
CUT
10
100.571
20
33.3372
0
VERTEX
8
CUT
10
102.544
20
31.95
0
VERTEX
8
CUT
10
112.144
20
31.95
0
VERTEX
8
CUT
10
114.117
20
33.3372
0
SEQEND
0
POLYLINE
8
CUT
66
1
70
0
0
VERTEX
8
CUT
10
100.571
20
28.9628
0
VERTEX
8
CUT
10
102.544
20
30.35
0
VERTEX
8
CUT
10
112.144
20
30.35
0
VERTEX
8
CUT
10
114.117
20
28.9628
0
SEQEND
0
POLYLINE
8
CUT
66
1
70
0
0
VERTEX
8
CUT
10
100.571
20
27.2372
0
VERTEX
8
CUT
10
102.544
20
25.85
0
VERTEX
8
CUT
10
112.144
20
25.85
0
VERTEX
8
CUT
10
114.117
20
27.2372
0
SEQEND
0
POLYLINE
8
CUT
66
1
70
0
0
VERTEX
8
CUT
10
100.571
20
22.8628
0
VERTEX
8
CUT
10
102.544
20
24.25
0
VERTEX
8
CUT
10
112.144
20
24.25
0
VERTEX
8
CUT
10
114.117
20
22.8628
0
SEQEND
0
POLYLINE
8
CUT
66
1
70
0
0
VERTEX
8
CUT
10
100.571
20
21.1372
0
VERTEX
8
CUT
10
102.544
20
19.75
0
VERTEX
8
CUT
10
112.144
20
19.75
0
VERTEX
8
CUT
10
114.117
20
21.1372
0
SEQEND
0
POLYLINE
8
CUT
66
1
70
0
0
VERTEX
8
CUT
10
100.571
20
16.7628
0
VERTEX
8
CUT
10
102.544
20
18.15
0
VERTEX
8
CUT
10
112.144
20
18.15
0
VERTEX
8
CUT
10
114.117
20
16.7628
0
SEQEND
0
POLYLINE
8
CUT
66
1
70
0
0
VERTEX
8
CUT
10
100.571
20
15.0372
0
VERTEX
8
CUT
10
102.544
20
13.65
0
VERTEX
8
CUT
10
112.144
20
13.65
0
VERTEX
8
CUT
10
114.117
20
15.0372
0
SEQEND
0
POLYLINE
8
CUT
66
1
70
0
0
VERTEX
8
CUT
10
100.571
20
10.6628
0
VERTEX
8
CUT
10
102.544
20
12.05
0
VERTEX
8
CUT
10
112.144
20
12.05
0
VERTEX
8
CUT
10
114.117
20
10.6628
0
SEQEND
0
POLYLINE
8
CUT
66
1
70
0
0
VERTEX
8
CUT
10
100.571
20
8.9372
0
VERTEX
8
CUT
10
102.544
20
7.55
0
VERTEX
8
CUT
10
112.144
20
7.55
0
VERTEX
8
CUT
10
114.117
20
8.9372
0
SEQEND
0
POLYLINE
8
CUT
66
1
70
0
0
VERTEX
8
CUT
10
100.571
20
4.5628
0
VERTEX
8
CUT
10
102.544
20
5.95
0
VERTEX
8
CUT
10
112.144
20
5.95
0
VERTEX
8
CUT
10
114.117
20
4.5628
0
SEQEND
0
POLYLINE
8
CUT
66
1
70
0
0
VERTEX
8
CUT
10
100.571
20
2.8372
0
VERTEX
8
CUT
10
102.544
20
1.45
0
VERTEX
8
CUT
10
112.144
20
1.45
0
VERTEX
8
CUT
10
114.117
20
2.8372
0
SEQEND
0
POLYLINE
8
CUT
66
1
70
0
0
VERTEX
8
CUT
10
114.763
20
68.6128
0
VERTEX
8
CUT
10
116.736
20
70
0
VERTEX
8
CUT
10
120
20
70
0
SEQEND
0
POLYLINE
8
CUT
66
1
70
0
0
VERTEX
8
CUT
10
114.763
20
66.8872
0
VERTEX
8
CUT
10
116.736
20
65.5
0
VERTEX
8
CUT
10
120
20
65.5
0
SEQEND
0
POLYLINE
8
CUT
66
1
70
0
0
VERTEX
8
CUT
10
114.763
20
62.5128
0
VERTEX
8
CUT
10
116.736
20
63.9
0
VERTEX
8
CUT
10
120
20
63.9
0
SEQEND
0
POLYLINE
8
CUT
66
1
70
0
0
VERTEX
8
CUT
10
114.763
20
60.7872
0
VERTEX
8
CUT
10
116.736
20
59.4
0
VERTEX
8
CUT
10
120
20
59.4
0
SEQEND
0
POLYLINE
8
CUT
66
1
70
0
0
VERTEX
8
CUT
10
114.763
20
56.4128
0
VERTEX
8
CUT
10
116.736
20
57.8
0
VERTEX
8
CUT
10
120
20
57.8
0
SEQEND
0
POLYLINE
8
CUT
66
1
70
0
0
VERTEX
8
CUT
10
114.763
20
54.6872
0
VERTEX
8
CUT
10
116.736
20
53.3
0
VERTEX
8
CUT
10
120
20
53.3
0
SEQEND
0
POLYLINE
8
CUT
66
1
70
0
0
VERTEX
8
CUT
10
114.763
20
50.3128
0
VERTEX
8
CUT
10
116.736
20
51.7
0
VERTEX
8
CUT
10
120
20
51.7
0
SEQEND
0
POLYLINE
8
CUT
66
1
70
0
0
VERTEX
8
CUT
10
114.763
20
48.5872
0
VERTEX
8
CUT
10
116.736
20
47.2
0
VERTEX
8
CUT
10
120
20
47.2
0
SEQEND
0
POLYLINE
8
CUT
66
1
70
0
0
VERTEX
8
CUT
10
114.763
20
44.2128
0
VERTEX
8
CUT
10
116.736
20
45.6
0
VERTEX
8
CUT
10
120
20
45.6
0
SEQEND
0
POLYLINE
8
CUT
66
1
70
0
0
VERTEX
8
CUT
10
114.763
20
42.4872
0
VERTEX
8
CUT
10
116.736
20
41.1
0
VERTEX
8
CUT
10
120
20
41.1
0
SEQEND
0
POLYLINE
8
CUT
66
1
70
0
0
VERTEX
8
CUT
10
114.763
20
38.1128
0
VERTEX
8
CUT
10
116.736
20
39.5
0
VERTEX
8
CUT
10
120
20
39.5
0
SEQEND
0
POLYLINE
8
CUT
66
1
70
0
0
VERTEX
8
CUT
10
114.763
20
36.3872
0
VERTEX
8
CUT
10
116.736
20
35
0
VERTEX
8
CUT
10
120
20
35
0
SEQEND
0
POLYLINE
8
CUT
66
1
70
0
0
VERTEX
8
CUT
10
114.763
20
32.0128
0
VERTEX
8
CUT
10
116.736
20
33.4
0
VERTEX
8
CUT
10
120
20
33.4
0
SEQEND
0
POLYLINE
8
CUT
66
1
70
0
0
VERTEX
8
CUT
10
114.763
20
30.2872
0
VERTEX
8
CUT
10
116.736
20
28.9
0
VERTEX
8
CUT
10
120
20
28.9
0
SEQEND
0
POLYLINE
8
CUT
66
1
70
0
0
VERTEX
8
CUT
10
114.763
20
25.9128
0
VERTEX
8
CUT
10
116.736
20
27.3
0
VERTEX
8
CUT
10
120
20
27.3
0
SEQEND
0
POLYLINE
8
CUT
66
1
70
0
0
VERTEX
8
CUT
10
114.763
20
24.1872
0
VERTEX
8
CUT
10
116.736
20
22.8
0
VERTEX
8
CUT
10
120
20
22.8
0
SEQEND
0
POLYLINE
8
CUT
66
1
70
0
0
VERTEX
8
CUT
10
114.763
20
19.8128
0
VERTEX
8
CUT
10
116.736
20
21.2
0
VERTEX
8
CUT
10
120
20
21.2
0
SEQEND
0
POLYLINE
8
CUT
66
1
70
0
0
VERTEX
8
CUT
10
114.763
20
18.0872
0
VERTEX
8
CUT
10
116.736
20
16.7
0
VERTEX
8
CUT
10
120
20
16.7
0
SEQEND
0
POLYLINE
8
CUT
66
1
70
0
0
VERTEX
8
CUT
10
114.763
20
13.7128
0
VERTEX
8
CUT
10
116.736
20
15.1
0
VERTEX
8
CUT
10
120
20
15.1
0
SEQEND
0
POLYLINE
8
CUT
66
1
70
0
0
VERTEX
8
CUT
10
114.763
20
11.9872
0
VERTEX
8
CUT
10
116.736
20
10.6
0
VERTEX
8
CUT
10
120
20
10.6
0
SEQEND
0
POLYLINE
8
CUT
66
1
70
0
0
VERTEX
8
CUT
10
114.763
20
7.6128
0
VERTEX
8
CUT
10
116.736
20
9
0
VERTEX
8
CUT
10
120
20
9
0
SEQEND
0
POLYLINE
8
CUT
66
1
70
0
0
VERTEX
8
CUT
10
114.763
20
5.8872
0
VERTEX
8
CUT
10
116.736
20
4.5
0
VERTEX
8
CUT
10
120
20
4.5
0
SEQEND
0
POLYLINE
8
CUT
66
1
70
0
0
VERTEX
8
CUT
10
114.763
20
1.5128
0
VERTEX
8
CUT
10
116.736
20
2.9
0
VERTEX
8
CUT
10
120
20
2.9
0
SEQEND
0
POLYLINE
8
CUT
66
1
70
0
0
VERTEX
8
CUT
10
0
20
70
0
VERTEX
8
CUT
10
120
20
70
0
VERTEX
8
CUT
10
120
20
0
0
VERTEX
8
CUT
10
0
20
0
0
VERTEX
8
CUT
10
0
20
70
0
SEQEND
0
ENDSEC
0
EOF
