0
SECTION
2
HEADER
9
$ACADVER
1
AC1009
9
$INSUNITS
70
4
0
ENDSEC
0
SECTION
2
TABLES
0
TABLE
2
LAYER
70
1
0
LAYER
2
CUT
70
0
62
1
6
CONTINUOUS
0
ENDTAB
0
ENDSEC
0
SECTION
2
ENTITIES
0
POLYLINE
8
CUT
66
1
70
0
0
VERTEX
8
CUT
10
3
20
70
0
VERTEX
8
CUT
10
4
20
60
0
VERTEX
8
CUT
10
3
20
50
0
VERTEX
8
CUT
10
2
20
60
0
VERTEX
8
CUT
10
3
20
70
0
SEQEND
0
POLYLINE
8
CUT
66
1
70
0
0
VERTEX
8
CUT
10
3
20
48
0
VERTEX
8
CUT
10
4
20
38
0
VERTEX
8
CUT
10
3
20
28
0
VERTEX
8
CUT
10
2
20
38
0
VERTEX
8
CUT
10
3
20
48
0
SEQEND
0
POLYLINE
8
CUT
66
1
70
0
0
VERTEX
8
CUT
10
3
20
26
0
VERTEX
8
CUT
10
4
20
16
0
VERTEX
8
CUT
10
3
20
6
0
VERTEX
8
CUT
10
2
20
16
0
VERTEX
8
CUT
10
3
20
26
0
SEQEND
0
LINE
8
CUT
10
3
20
4
11
3.4
21
0
0
LINE
8
CUT
10
2.6
20
0
11
3
21
4
0
POLYLINE
8
CUT
66
1
70
0
0
VERTEX
8
CUT
10
9.9
20
70
0
VERTEX
8
CUT
10
9
20
61
0
VERTEX
8
CUT
10
8.1
20
70
0
SEQEND
0
POLYLINE
8
CUT
66
1
70
0
0
VERTEX
8
CUT
10
9
20
59
0
VERTEX
8
CUT
10
10
20
49
0
VERTEX
8
CUT
10
9
20
39
0
VERTEX
8
CUT
10
8
20
49
0
VERTEX
8
CUT
10
9
20
59
0
SEQEND
0
POLYLINE
8
CUT
66
1
70
0
0
VERTEX
8
CUT
10
9
20
37
0
VERTEX
8
CUT
10
10
20
27
0
VERTEX
8
CUT
10
9
20
17
0
VERTEX
8
CUT
10
8
20
27
0
VERTEX
8
CUT
10
9
20
37
0
SEQEND
0
POLYLINE
8
CUT
66
1
70
0
0
VERTEX
8
CUT
10
9
20
15
0
VERTEX
8
CUT
10
10
20
5
0
VERTEX
8
CUT
10
9.5
20
0
0
SEQEND
0
POLYLINE
8
CUT
66
1
70
0
0
VERTEX
8
CUT
10
8.5
20
0
0
VERTEX
8
CUT
10
8
20
5
0
VERTEX
8
CUT
10
9
20
15
0
SEQEND
0
POLYLINE
8
CUT
66
1
70
0
0
VERTEX
8
CUT
10
15
20
70
0
VERTEX
8
CUT
10
16
20
60
0
VERTEX
8
CUT
10
15
20
50
0
VERTEX
8
CUT
10
14
20
60
0
VERTEX
8
CUT
10
15
20
70
0
SEQEND
0
POLYLINE
8
CUT
66
1
70
0
0
VERTEX
8
CUT
10
15
20
48
0
VERTEX
8
CUT
10
16
20
38
0
VERTEX
8
CUT
10
15
20
28
0
VERTEX
8
CUT
10
14
20
38
0
VERTEX
8
CUT
10
15
20
48
0
SEQEND
0
POLYLINE
8
CUT
66
1
70
0
0
VERTEX
8
CUT
10
15
20
26
0
VERTEX
8
CUT
10
16
20
16
0
VERTEX
8
CUT
10
15
20
6
0
VERTEX
8
CUT
10
14
20
16
0
VERTEX
8
CUT
10
15
20
26
0
SEQEND
0
LINE
8
CUT
10
15
20
4
11
15.4
21
0
0
LINE
8
CUT
10
14.6
20
0
11
15
21
4
0
POLYLINE
8
CUT
66
1
70
0
0
VERTEX
8
CUT
10
21.9
20
70
0
VERTEX
8
CUT
10
21
20
61
0
VERTEX
8
CUT
10
20.1
20
70
0
SEQEND
0
POLYLINE
8
CUT
66
1
70
0
0
VERTEX
8
CUT
10
21
20
59
0
VERTEX
8
CUT
10
22
20
49
0
VERTEX
8
CUT
10
21
20
39
0
VERTEX
8
CUT
10
20
20
49
0
VERTEX
8
CUT
10
21
20
59
0
SEQEND
0
POLYLINE
8
CUT
66
1
70
0
0
VERTEX
8
CUT
10
21
20
37
0
VERTEX
8
CUT
10
22
20
27
0
VERTEX
8
CUT
10
21
20
17
0
VERTEX
8
CUT
10
20
20
27
0
VERTEX
8
CUT
10
21
20
37
0
SEQEND
0
POLYLINE
8
CUT
66
1
70
0
0
VERTEX
8
CUT
10
21
20
15
0
VERTEX
8
CUT
10
22
20
5
0
VERTEX
8
CUT
10
21.5
20
0
0
SEQEND
0
POLYLINE
8
CUT
66
1
70
0
0
VERTEX
8
CUT
10
20.5
20
0
0
VERTEX
8
CUT
10
20
20
5
0
VERTEX
8
CUT
10
21
20
15
0
SEQEND
0
POLYLINE
8
CUT
66
1
70
0
0
VERTEX
8
CUT
10
27
20
70
0
VERTEX
8
CUT
10
28
20
60
0
VERTEX
8
CUT
10
27
20
50
0
VERTEX
8
CUT
10
26
20
60
0
VERTEX
8
CUT
10
27
20
70
0
SEQEND
0
POLYLINE
8
CUT
66
1
70
0
0
VERTEX
8
CUT
10
27
20
48
0
VERTEX
8
CUT
10
28
20
38
0
VERTEX
8
CUT
10
27
20
28
0
VERTEX
8
CUT
10
26
20
38
0
VERTEX
8
CUT
10
27
20
48
0
SEQEND
0
POLYLINE
8
CUT
66
1
70
0
0
VERTEX
8
CUT
10
27
20
26
0
VERTEX
8
CUT
10
28
20
16
0
VERTEX
8
CUT
10
27
20
6
0
VERTEX
8
CUT
10
26
20
16
0
VERTEX
8
CUT
10
27
20
26
0
SEQEND
0
LINE
8
CUT
10
27
20
4
11
27.4
21
0
0
LINE
8
CUT
10
26.6
20
0
11
27
21
4
0
POLYLINE
8
CUT
66
1
70
0
0
VERTEX
8
CUT
10
33.9
20
70
0
VERTEX
8
CUT
10
33
20
61
0
VERTEX
8
CUT
10
32.1
20
70
0
SEQEND
0
POLYLINE
8
CUT
66
1
70
0
0
VERTEX
8
CUT
10
33
20
59
0
VERTEX
8
CUT
10
34
20
49
0
VERTEX
8
CUT
10
33
20
39
0
VERTEX
8
CUT
10
32
20
49
0
VERTEX
8
CUT
10
33
20
59
0
SEQEND
0
POLYLINE
8
CUT
66
1
70
0
0
VERTEX
8
CUT
10
33
20
37
0
VERTEX
8
CUT
10
34
20
27
0
VERTEX
8
CUT
10
33
20
17
0
VERTEX
8
CUT
10
32
20
27
0
VERTEX
8
CUT
10
33
20
37
0
SEQEND
0
POLYLINE
8
CUT
66
1
70
0
0
VERTEX
8
CUT
10
33
20
15
0
VERTEX
8
CUT
10
34
20
5
0
VERTEX
8
CUT
10
33.5
20
0
0
SEQEND
0
POLYLINE
8
CUT
66
1
70
0
0
VERTEX
8
CUT
10
32.5
20
0
0
VERTEX
8
CUT
10
32
20
5
0
VERTEX
8
CUT
10
33
20
15
0
SEQEND
0
POLYLINE
8
CUT
66
1
70
0
0
VERTEX
8
CUT
10
39
20
70
0
VERTEX
8
CUT
10
40
20
60
0
VERTEX
8
CUT
10
39
20
50
0
VERTEX
8
CUT
10
38
20
60
0
VERTEX
8
CUT
10
39
20
70
0
SEQEND
0
POLYLINE
8
CUT
66
1
70
0
0
VERTEX
8
CUT
10
39
20
48
0
VERTEX
8
CUT
10
40
20
38
0
VERTEX
8
CUT
10
39
20
28
0
VERTEX
8
CUT
10
38
20
38
0
VERTEX
8
CUT
10
39
20
48
0
SEQEND
0
POLYLINE
8
CUT
66
1
70
0
0
VERTEX
8
CUT
10
39
20
26
0
VERTEX
8
CUT
10
40
20
16
0
VERTEX
8
CUT
10
39
20
6
0
VERTEX
8
CUT
10
38
20
16
0
VERTEX
8
CUT
10
39
20
26
0
SEQEND
0
LINE
8
CUT
10
39
20
4
11
39.4
21
0
0
LINE
8
CUT
10
38.6
20
0
11
39
21
4
0
POLYLINE
8
CUT
66
1
70
0
0
VERTEX
8
CUT
10
45.9
20
70
0
VERTEX
8
CUT
10
45
20
61
0
VERTEX
8
CUT
10
44.1
20
70
0
SEQEND
0
POLYLINE
8
CUT
66
1
70
0
0
VERTEX
8
CUT
10
45
20
59
0
VERTEX
8
CUT
10
46
20
49
0
VERTEX
8
CUT
10
45
20
39
0
VERTEX
8
CUT
10
44
20
49
0
VERTEX
8
CUT
10
45
20
59
0
SEQEND
0
POLYLINE
8
CUT
66
1
70
0
0
VERTEX
8
CUT
10
45
20
37
0
VERTEX
8
CUT
10
46
20
27
0
VERTEX
8
CUT
10
45
20
17
0
VERTEX
8
CUT
10
44
20
27
0
VERTEX
8
CUT
10
45
20
37
0
SEQEND
0
POLYLINE
8
CUT
66
1
70
0
0
VERTEX
8
CUT
10
45
20
15
0
VERTEX
8
CUT
10
46
20
5
0
VERTEX
8
CUT
10
45.5
20
0
0
SEQEND
0
POLYLINE
8
CUT
66
1
70
0
0
VERTEX
8
CUT
10
44.5
20
0
0
VERTEX
8
CUT
10
44
20
5
0
VERTEX
8
CUT
10
45
20
15
0
SEQEND
0
POLYLINE
8
CUT
66
1
70
0
0
VERTEX
8
CUT
10
51
20
70
0
VERTEX
8
CUT
10
52
20
60
0
VERTEX
8
CUT
10
51
20
50
0
VERTEX
8
CUT
10
50
20
60
0
VERTEX
8
CUT
10
51
20
70
0
SEQEND
0
POLYLINE
8
CUT
66
1
70
0
0
VERTEX
8
CUT
10
51
20
48
0
VERTEX
8
CUT
10
52
20
38
0
VERTEX
8
CUT
10
51
20
28
0
VERTEX
8
CUT
10
50
20
38
0
VERTEX
8
CUT
10
51
20
48
0
SEQEND
0
POLYLINE
8
CUT
66
1
70
0
0
VERTEX
8
CUT
10
51
20
26
0
VERTEX
8
CUT
10
52
20
16
0
VERTEX
8
CUT
10
51
20
6
0
VERTEX
8
CUT
10
50
20
16
0
VERTEX
8
CUT
10
51
20
26
0
SEQEND
0
LINE
8
CUT
10
51
20
4
11
51.4
21
0
0
LINE
8
CUT
10
50.6
20
0
11
51
21
4
0
POLYLINE
8
CUT
66
1
70
0
0
VERTEX
8
CUT
10
57.9
20
70
0
VERTEX
8
CUT
10
57
20
61
0
VERTEX
8
CUT
10
56.1
20
70
0
SEQEND
0
POLYLINE
8
CUT
66
1
70
0
0
VERTEX
8
CUT
10
57
20
59
0
VERTEX
8
CUT
10
58
20
49
0
VERTEX
8
CUT
10
57
20
39
0
VERTEX
8
CUT
10
56
20
49
0
VERTEX
8
CUT
10
57
20
59
0
SEQEND
0
POLYLINE
8
CUT
66
1
70
0
0
VERTEX
8
CUT
10
57
20
37
0
VERTEX
8
CUT
10
58
20
27
0
VERTEX
8
CUT
10
57
20
17
0
VERTEX
8
CUT
10
56
20
27
0
VERTEX
8
CUT
10
57
20
37
0
SEQEND
0
POLYLINE
8
CUT
66
1
70
0
0
VERTEX
8
CUT
10
57
20
15
0
VERTEX
8
CUT
10
58
20
5
0
VERTEX
8
CUT
10
57.5
20
0
0
SEQEND
0
POLYLINE
8
CUT
66
1
70
0
0
VERTEX
8
CUT
10
56.5
20
0
0
VERTEX
8
CUT
10
56
20
5
0
VERTEX
8
CUT
10
57
20
15
0
SEQEND
0
POLYLINE
8
CUT
66
1
70
0
0
VERTEX
8
CUT
10
63
20
70
0
VERTEX
8
CUT
10
64
20
60
0
VERTEX
8
CUT
10
63
20
50
0
VERTEX
8
CUT
10
62
20
60
0
VERTEX
8
CUT
10
63
20
70
0
SEQEND
0
POLYLINE
8
CUT
66
1
70
0
0
VERTEX
8
CUT
10
63
20
48
0
VERTEX
8
CUT
10
64
20
38
0
VERTEX
8
CUT
10
63
20
28
0
VERTEX
8
CUT
10
62
20
38
0
VERTEX
8
CUT
10
63
20
48
0
SEQEND
0
POLYLINE
8
CUT
66
1
70
0
0
VERTEX
8
CUT
10
63
20
26
0
VERTEX
8
CUT
10
64
20
16
0
VERTEX
8
CUT
10
63
20
6
0
VERTEX
8
CUT
10
62
20
16
0
VERTEX
8
CUT
10
63
20
26
0
SEQEND
0
LINE
8
CUT
10
63
20
4
11
63.4
21
0
0
LINE
8
CUT
10
62.6
20
0
11
63
21
4
0
POLYLINE
8
CUT
66
1
70
0
0
VERTEX
8
CUT
10
69.9
20
70
0
VERTEX
8
CUT
10
69
20
61
0
VERTEX
8
CUT
10
68.1
20
70
0
SEQEND
0
POLYLINE
8
CUT
66
1
70
0
0
VERTEX
8
CUT
10
69
20
59
0
VERTEX
8
CUT
10
70
20
49
0
VERTEX
8
CUT
10
69
20
39
0
VERTEX
8
CUT
10
68
20
49
0
VERTEX
8
CUT
10
69
20
59
0
SEQEND
0
POLYLINE
8
CUT
66
1
70
0
0
VERTEX
8
CUT
10
69
20
37
0
VERTEX
8
CUT
10
70
20
27
0
VERTEX
8
CUT
10
69
20
17
0
VERTEX
8
CUT
10
68
20
27
0
VERTEX
8
CUT
10
69
20
37
0
SEQEND
0
POLYLINE
8
CUT
66
1
70
0
0
VERTEX
8
CUT
10
69
20
15
0
VERTEX
8
CUT
10
70
20
5
0
VERTEX
8
CUT
10
69.5
20
0
0
SEQEND
0
POLYLINE
8
CUT
66
1
70
0
0
VERTEX
8
CUT
10
68.5
20
0
0
VERTEX
8
CUT
10
68
20
5
0
VERTEX
8
CUT
10
69
20
15
0
SEQEND
0
POLYLINE
8
CUT
66
1
70
0
0
VERTEX
8
CUT
10
75
20
70
0
VERTEX
8
CUT
10
76
20
60
0
VERTEX
8
CUT
10
75
20
50
0
VERTEX
8
CUT
10
74
20
60
0
VERTEX
8
CUT
10
75
20
70
0
SEQEND
0
POLYLINE
8
CUT
66
1
70
0
0
VERTEX
8
CUT
10
75
20
48
0
VERTEX
8
CUT
10
76
20
38
0
VERTEX
8
CUT
10
75
20
28
0
VERTEX
8
CUT
10
74
20
38
0
VERTEX
8
CUT
10
75
20
48
0
SEQEND
0
POLYLINE
8
CUT
66
1
70
0
0
VERTEX
8
CUT
10
75
20
26
0
VERTEX
8
CUT
10
76
20
16
0
VERTEX
8
CUT
10
75
20
6
0
VERTEX
8
CUT
10
74
20
16
0
VERTEX
8
CUT
10
75
20
26
0
SEQEND
0
LINE
8
CUT
10
75
20
4
11
75.4
21
0
0
LINE
8
CUT
10
74.6
20
0
11
75
21
4
0
POLYLINE
8
CUT
66
1
70
0
0
VERTEX
8
CUT
10
81.9
20
70
0
VERTEX
8
CUT
10
81
20
61
0
VERTEX
8
CUT
10
80.1
20
70
0
SEQEND
0
POLYLINE
8
CUT
66
1
70
0
0
VERTEX
8
CUT
10
81
20
59
0
VERTEX
8
CUT
10
82
20
49
0
VERTEX
8
CUT
10
81
20
39
0
VERTEX
8
CUT
10
80
20
49
0
VERTEX
8
CUT
10
81
20
59
0
SEQEND
0
POLYLINE
8
CUT
66
1
70
0
0
VERTEX
8
CUT
10
81
20
37
0
VERTEX
8
CUT
10
82
20
27
0
VERTEX
8
CUT
10
81
20
17
0
VERTEX
8
CUT
10
80
20
27
0
VERTEX
8
CUT
10
81
20
37
0
SEQEND
0
POLYLINE
8
CUT
66
1
70
0
0
VERTEX
8
CUT
10
81
20
15
0
VERTEX
8
CUT
10
82
20
5
0
VERTEX
8
CUT
10
81.5
20
0
0
SEQEND
0
POLYLINE
8
CUT
66
1
70
0
0
VERTEX
8
CUT
10
80.5
20
0
0
VERTEX
8
CUT
10
80
20
5
0
VERTEX
8
CUT
10
81
20
15
0
SEQEND
0
POLYLINE
8
CUT
66
1
70
0
0
VERTEX
8
CUT
10
87
20
70
0
VERTEX
8
CUT
10
88
20
60
0
VERTEX
8
CUT
10
87
20
50
0
VERTEX
8
CUT
10
86
20
60
0
VERTEX
8
CUT
10
87
20
70
0
SEQEND
0
POLYLINE
8
CUT
66
1
70
0
0
VERTEX
8
CUT
10
87
20
48
0
VERTEX
8
CUT
10
88
20
38
0
VERTEX
8
CUT
10
87
20
28
0
VERTEX
8
CUT
10
86
20
38
0
VERTEX
8
CUT
10
87
20
48
0
SEQEND
0
POLYLINE
8
CUT
66
1
70
0
0
VERTEX
8
CUT
10
87
20
26
0
VERTEX
8
CUT
10
88
20
16
0
VERTEX
8
CUT
10
87
20
6
0
VERTEX
8
CUT
10
86
20
16
0
VERTEX
8
CUT
10
87
20
26
0
SEQEND
0
LINE
8
CUT
10
87
20
4
11
87.4
21
0
0
LINE
8
CUT
10
86.6
20
0
11
87
21
4
0
POLYLINE
8
CUT
66
1
70
0
0
VERTEX
8
CUT
10
93.9
20
70
0
VERTEX
8
CUT
10
93
20
61
0
VERTEX
8
CUT
10
92.1
20
70
0
SEQEND
0
POLYLINE
8
CUT
66
1
70
0
0
VERTEX
8
CUT
10
93
20
59
0
VERTEX
8
CUT
10
94
20
49
0
VERTEX
8
CUT
10
93
20
39
0
VERTEX
8
CUT
10
92
20
49
0
VERTEX
8
CUT
10
93
20
59
0
SEQEND
0
POLYLINE
8
CUT
66
1
70
0
0
VERTEX
8
CUT
10
93
20
37
0
VERTEX
8
CUT
10
94
20
27
0
VERTEX
8
CUT
10
93
20
17
0
VERTEX
8
CUT
10
92
20
27
0
VERTEX
8
CUT
10
93
20
37
0
SEQEND
0
POLYLINE
8
CUT
66
1
70
0
0
VERTEX
8
CUT
10
93
20
15
0
VERTEX
8
CUT
10
94
20
5
0
VERTEX
8
CUT
10
93.5
20
0
0
SEQEND
0
POLYLINE
8
CUT
66
1
70
0
0
VERTEX
8
CUT
10
92.5
20
0
0
VERTEX
8
CUT
10
92
20
5
0
VERTEX
8
CUT
10
93
20
15
0
SEQEND
0
POLYLINE
8
CUT
66
1
70
0
0
VERTEX
8
CUT
10
99
20
70
0
VERTEX
8
CUT
10
100
20
60
0
VERTEX
8
CUT
10
99
20
50
0
VERTEX
8
CUT
10
98
20
60
0
VERTEX
8
CUT
10
99
20
70
0
SEQEND
0
POLYLINE
8
CUT
66
1
70
0
0
VERTEX
8
CUT
10
99
20
48
0
VERTEX
8
CUT
10
100
20
38
0
VERTEX
8
CUT
10
99
20
28
0
VERTEX
8
CUT
10
98
20
38
0
VERTEX
8
CUT
10
99
20
48
0
SEQEND
0
POLYLINE
8
CUT
66
1
70
0
0
VERTEX
8
CUT
10
99
20
26
0
VERTEX
8
CUT
10
100
20
16
0
VERTEX
8
CUT
10
99
20
6
0
VERTEX
8
CUT
10
98
20
16
0
VERTEX
8
CUT
10
99
20
26
0
SEQEND
0
LINE
8
CUT
10
99
20
4
11
99.4
21
0
0
LINE
8
CUT
10
98.6
20
0
11
99
21
4
0
POLYLINE
8
CUT
66
1
70
0
0
VERTEX
8
CUT
10
105.9
20
70
0
VERTEX
8
CUT
10
105
20
61
0
VERTEX
8
CUT
10
104.1
20
70
0
SEQEND
0
POLYLINE
8
CUT
66
1
70
0
0
VERTEX
8
CUT
10
105
20
59
0
VERTEX
8
CUT
10
106
20
49
0
VERTEX
8
CUT
10
105
20
39
0
VERTEX
8
CUT
10
104
20
49
0
VERTEX
8
CUT
10
105
20
59
0
SEQEND
0
POLYLINE
8
CUT
66
1
70
0
0
VERTEX
8
CUT
10
105
20
37
0
VERTEX
8
CUT
10
106
20
27
0
VERTEX
8
CUT
10
105
20
17
0
VERTEX
8
CUT
10
104
20
27
0
VERTEX
8
CUT
10
105
20
37
0
SEQEND
0
POLYLINE
8
CUT
66
1
70
0
0
VERTEX
8
CUT
10
105
20
15
0
VERTEX
8
CUT
10
106
20
5
0
VERTEX
8
CUT
10
105.5
20
0
0
SEQEND
0
POLYLINE
8
CUT
66
1
70
0
0
VERTEX
8
CUT
10
104.5
20
0
0
VERTEX
8
CUT
10
104
20
5
0
VERTEX
8
CUT
10
105
20
15
0
SEQEND
0
POLYLINE
8
CUT
66
1
70
0
0
VERTEX
8
CUT
10
111
20
70
0
VERTEX
8
CUT
10
112
20
60
0
VERTEX
8
CUT
10
111
20
50
0
VERTEX
8
CUT
10
110
20
60
0
VERTEX
8
CUT
10
111
20
70
0
SEQEND
0
POLYLINE
8
CUT
66
1
70
0
0
VERTEX
8
CUT
10
111
20
48
0
VERTEX
8
CUT
10
112
20
38
0
VERTEX
8
CUT
10
111
20
28
0
VERTEX
8
CUT
10
110
20
38
0
VERTEX
8
CUT
10
111
20
48
0
SEQEND
0
POLYLINE
8
CUT
66
1
70
0
0
VERTEX
8
CUT
10
111
20
26
0
VERTEX
8
CUT
10
112
20
16
0
VERTEX
8
CUT
10
111
20
6
0
VERTEX
8
CUT
10
110
20
16
0
VERTEX
8
CUT
10
111
20
26
0
SEQEND
0
LINE
8
CUT
10
111
20
4
11
111.4
21
0
0
LINE
8
CUT
10
110.6
20
0
11
111
21
4
0
POLYLINE
8
CUT
66
1
70
0
0
VERTEX
8
CUT
10
117.9
20
70
0
VERTEX
8
CUT
10
117
20
61
0
VERTEX
8
CUT
10
116.1
20
70
0
SEQEND
0
POLYLINE
8
CUT
66
1
70
0
0
VERTEX
8
CUT
10
117
20
59
0
VERTEX
8
CUT
10
118
20
49
0
VERTEX
8
CUT
10
117
20
39
0
VERTEX
8
CUT
10
116
20
49
0
VERTEX
8
CUT
10
117
20
59
0
SEQEND
0
POLYLINE
8
CUT
66
1
70
0
0
VERTEX
8
CUT
10
117
20
37
0
VERTEX
8
CUT
10
118
20
27
0
VERTEX
8
CUT
10
117
20
17
0
VERTEX
8
CUT
10
116
20
27
0
VERTEX
8
CUT
10
117
20
37
0
SEQEND
0
POLYLINE
8
CUT
66
1
70
0
0
VERTEX
8
CUT
10
117
20
15
0
VERTEX
8
CUT
10
118
20
5
0
VERTEX
8
CUT
10
117.5
20
0
0
SEQEND
0
POLYLINE
8
CUT
66
1
70
0
0
VERTEX
8
CUT
10
116.5
20
0
0
VERTEX
8
CUT
10
116
20
5
0
VERTEX
8
CUT
10
117
20
15
0
SEQEND
0
POLYLINE
8
CUT
66
1
70
0
0
VERTEX
8
CUT
10
0
20
70
0
VERTEX
8
CUT
10
120
20
70
0
VERTEX
8
CUT
10
120
20
0
0
VERTEX
8
CUT
10
0
20
0
0
VERTEX
8
CUT
10
0
20
70
0
SEQEND
0
ENDSEC
0
EOF
