0
SECTION
2
HEADER
9
$ACADVER
1
AC1009
9
$INSUNITS
70
4
0
ENDSEC
0
SECTION
2
TABLES
0
TABLE
2
LAYER
70
1
0
LAYER
2
CUT
70
0
62
1
6
CONTINUOUS
0
ENDTAB
0
ENDSEC
0
SECTION
2
ENTITIES
0
POLYLINE
8
CUT
66
1
70
0
0
VERTEX
8
CUT
10
0
20
67
0
VERTEX
8
CUT
10
6.8571
20
67
0
VERTEX
8
CUT
10
6.8571
20
60.1429
0
VERTEX
8
CUT
10
2.2857
20
60.1429
0
VERTEX
8
CUT
10
2.2857
20
64.7143
0
VERTEX
8
CUT
10
4.5714
20
64.7143
0
VERTEX
8
CUT
10
4.5714
20
62.4286
0
SEQEND
0
POLYLINE
8
CUT
66
1
70
0
0
VERTEX
8
CUT
10
8
20
59
0
VERTEX
8
CUT
10
1.1429
20
59
0
VERTEX
8
CUT
10
1.1429
20
65.8571
0
VERTEX
8
CUT
10
5.7143
20
65.8571
0
VERTEX
8
CUT
10
5.7143
20
61.2857
0
VERTEX
8
CUT
10
3.4286
20
61.2857
0
VERTEX
8
CUT
10
3.4286
20
63.5714
0
SEQEND
0
POLYLINE
8
CUT
66
1
70
0
0
VERTEX
8
CUT
10
16
20
67
0
VERTEX
8
CUT
10
16
20
60.1429
0
VERTEX
8
CUT
10
9.1429
20
60.1429
0
VERTEX
8
CUT
10
9.1429
20
64.7143
0
VERTEX
8
CUT
10
13.7143
20
64.7143
0
VERTEX
8
CUT
10
13.7143
20
62.4286
0
VERTEX
8
CUT
10
11.4286
20
62.4286
0
SEQEND
0
POLYLINE
8
CUT
66
1
70
0
0
VERTEX
8
CUT
10
8
20
59
0
VERTEX
8
CUT
10
8
20
65.8571
0
VERTEX
8
CUT
10
14.8571
20
65.8571
0
VERTEX
8
CUT
10
14.8571
20
61.2857
0
VERTEX
8
CUT
10
10.2857
20
61.2857
0
VERTEX
8
CUT
10
10.2857
20
63.5714
0
VERTEX
8
CUT
10
12.5714
20
63.5714
0
SEQEND
0
POLYLINE
8
CUT
66
1
70
0
0
VERTEX
8
CUT
10
16
20
67
0
VERTEX
8
CUT
10
22.8571
20
67
0
VERTEX
8
CUT
10
22.8571
20
60.1429
0
VERTEX
8
CUT
10
18.2857
20
60.1429
0
VERTEX
8
CUT
10
18.2857
20
64.7143
0
VERTEX
8
CUT
10
20.5714
20
64.7143
0
VERTEX
8
CUT
10
20.5714
20
62.4286
0
SEQEND
0
POLYLINE
8
CUT
66
1
70
0
0
VERTEX
8
CUT
10
24
20
59
0
VERTEX
8
CUT
10
17.1429
20
59
0
VERTEX
8
CUT
10
17.1429
20
65.8571
0
VERTEX
8
CUT
10
21.7143
20
65.8571
0
VERTEX
8
CUT
10
21.7143
20
61.2857
0
VERTEX
8
CUT
10
19.4286
20
61.2857
0
VERTEX
8
CUT
10
19.4286
20
63.5714
0
SEQEND
0
POLYLINE
8
CUT
66
1
70
0
0
VERTEX
8
CUT
10
32
20
67
0
VERTEX
8
CUT
10
32
20
60.1429
0
VERTEX
8
CUT
10
25.1429
20
60.1429
0
VERTEX
8
CUT
10
25.1429
20
64.7143
0
VERTEX
8
CUT
10
29.7143
20
64.7143
0
VERTEX
8
CUT
10
29.7143
20
62.4286
0
VERTEX
8
CUT
10
27.4286
20
62.4286
0
SEQEND
0
POLYLINE
8
CUT
66
1
70
0
0
VERTEX
8
CUT
10
24
20
59
0
VERTEX
8
CUT
10
24
20
65.8571
0
VERTEX
8
CUT
10
30.8571
20
65.8571
0
VERTEX
8
CUT
10
30.8571
20
61.2857
0
VERTEX
8
CUT
10
26.2857
20
61.2857
0
VERTEX
8
CUT
10
26.2857
20
63.5714
0
VERTEX
8
CUT
10
28.5714
20
63.5714
0
SEQEND
0
POLYLINE
8
CUT
66
1
70
0
0
VERTEX
8
CUT
10
32
20
67
0
VERTEX
8
CUT
10
38.8571
20
67
0
VERTEX
8
CUT
10
38.8571
20
60.1429
0
VERTEX
8
CUT
10
34.2857
20
60.1429
0
VERTEX
8
CUT
10
34.2857
20
64.7143
0
VERTEX
8
CUT
10
36.5714
20
64.7143
0
VERTEX
8
CUT
10
36.5714
20
62.4286
0
SEQEND
0
POLYLINE
8
CUT
66
1
70
0
0
VERTEX
8
CUT
10
40
20
59
0
VERTEX
8
CUT
10
33.1429
20
59
0
VERTEX
8
CUT
10
33.1429
20
65.8571
0
VERTEX
8
CUT
10
37.7143
20
65.8571
0
VERTEX
8
CUT
10
37.7143
20
61.2857
0
VERTEX
8
CUT
10
35.4286
20
61.2857
0
VERTEX
8
CUT
10
35.4286
20
63.5714
0
SEQEND
0
POLYLINE
8
CUT
66
1
70
0
0
VERTEX
8
CUT
10
48
20
67
0
VERTEX
8
CUT
10
48
20
60.1429
0
VERTEX
8
CUT
10
41.1429
20
60.1429
0
VERTEX
8
CUT
10
41.1429
20
64.7143
0
VERTEX
8
CUT
10
45.7143
20
64.7143
0
VERTEX
8
CUT
10
45.7143
20
62.4286
0
VERTEX
8
CUT
10
43.4286
20
62.4286
0
SEQEND
0
POLYLINE
8
CUT
66
1
70
0
0
VERTEX
8
CUT
10
40
20
59
0
VERTEX
8
CUT
10
40
20
65.8571
0
VERTEX
8
CUT
10
46.8571
20
65.8571
0
VERTEX
8
CUT
10
46.8571
20
61.2857
0
VERTEX
8
CUT
10
42.2857
20
61.2857
0
VERTEX
8
CUT
10
42.2857
20
63.5714
0
VERTEX
8
CUT
10
44.5714
20
63.5714
0
SEQEND
0
POLYLINE
8
CUT
66
1
70
0
0
VERTEX
8
CUT
10
48
20
67
0
VERTEX
8
CUT
10
54.8571
20
67
0
VERTEX
8
CUT
10
54.8571
20
60.1429
0
VERTEX
8
CUT
10
50.2857
20
60.1429
0
VERTEX
8
CUT
10
50.2857
20
64.7143
0
VERTEX
8
CUT
10
52.5714
20
64.7143
0
VERTEX
8
CUT
10
52.5714
20
62.4286
0
SEQEND
0
POLYLINE
8
CUT
66
1
70
0
0
VERTEX
8
CUT
10
56
20
59
0
VERTEX
8
CUT
10
49.1429
20
59
0
VERTEX
8
CUT
10
49.1429
20
65.8571
0
VERTEX
8
CUT
10
53.7143
20
65.8571
0
VERTEX
8
CUT
10
53.7143
20
61.2857
0
VERTEX
8
CUT
10
51.4286
20
61.2857
0
VERTEX
8
CUT
10
51.4286
20
63.5714
0
SEQEND
0
POLYLINE
8
CUT
66
1
70
0
0
VERTEX
8
CUT
10
64
20
67
0
VERTEX
8
CUT
10
64
20
60.1429
0
VERTEX
8
CUT
10
57.1429
20
60.1429
0
VERTEX
8
CUT
10
57.1429
20
64.7143
0
VERTEX
8
CUT
10
61.7143
20
64.7143
0
VERTEX
8
CUT
10
61.7143
20
62.4286
0
VERTEX
8
CUT
10
59.4286
20
62.4286
0
SEQEND
0
POLYLINE
8
CUT
66
1
70
0
0
VERTEX
8
CUT
10
56
20
59
0
VERTEX
8
CUT
10
56
20
65.8571
0
VERTEX
8
CUT
10
62.8571
20
65.8571
0
VERTEX
8
CUT
10
62.8571
20
61.2857
0
VERTEX
8
CUT
10
58.2857
20
61.2857
0
VERTEX
8
CUT
10
58.2857
20
63.5714
0
VERTEX
8
CUT
10
60.5714
20
63.5714
0
SEQEND
0
POLYLINE
8
CUT
66
1
70
0
0
VERTEX
8
CUT
10
64
20
67
0
VERTEX
8
CUT
10
70.8571
20
67
0
VERTEX
8
CUT
10
70.8571
20
60.1429
0
VERTEX
8
CUT
10
66.2857
20
60.1429
0
VERTEX
8
CUT
10
66.2857
20
64.7143
0
VERTEX
8
CUT
10
68.5714
20
64.7143
0
VERTEX
8
CUT
10
68.5714
20
62.4286
0
SEQEND
0
POLYLINE
8
CUT
66
1
70
0
0
VERTEX
8
CUT
10
72
20
59
0
VERTEX
8
CUT
10
65.1429
20
59
0
VERTEX
8
CUT
10
65.1429
20
65.8571
0
VERTEX
8
CUT
10
69.7143
20
65.8571
0
VERTEX
8
CUT
10
69.7143
20
61.2857
0
VERTEX
8
CUT
10
67.4286
20
61.2857
0
VERTEX
8
CUT
10
67.4286
20
63.5714
0
SEQEND
0
POLYLINE
8
CUT
66
1
70
0
0
VERTEX
8
CUT
10
80
20
67
0
VERTEX
8
CUT
10
80
20
60.1429
0
VERTEX
8
CUT
10
73.1429
20
60.1429
0
VERTEX
8
CUT
10
73.1429
20
64.7143
0
VERTEX
8
CUT
10
77.7143
20
64.7143
0
VERTEX
8
CUT
10
77.7143
20
62.4286
0
VERTEX
8
CUT
10
75.4286
20
62.4286
0
SEQEND
0
POLYLINE
8
CUT
66
1
70
0
0
VERTEX
8
CUT
10
72
20
59
0
VERTEX
8
CUT
10
72
20
65.8571
0
VERTEX
8
CUT
10
78.8571
20
65.8571
0
VERTEX
8
CUT
10
78.8571
20
61.2857
0
VERTEX
8
CUT
10
74.2857
20
61.2857
0
VERTEX
8
CUT
10
74.2857
20
63.5714
0
VERTEX
8
CUT
10
76.5714
20
63.5714
0
SEQEND
0
POLYLINE
8
CUT
66
1
70
0
0
VERTEX
8
CUT
10
80
20
67
0
VERTEX
8
CUT
10
86.8571
20
67
0
VERTEX
8
CUT
10
86.8571
20
60.1429
0
VERTEX
8
CUT
10
82.2857
20
60.1429
0
VERTEX
8
CUT
10
82.2857
20
64.7143
0
VERTEX
8
CUT
10
84.5714
20
64.7143
0
VERTEX
8
CUT
10
84.5714
20
62.4286
0
SEQEND
0
POLYLINE
8
CUT
66
1
70
0
0
VERTEX
8
CUT
10
88
20
59
0
VERTEX
8
CUT
10
81.1429
20
59
0
VERTEX
8
CUT
10
81.1429
20
65.8571
0
VERTEX
8
CUT
10
85.7143
20
65.8571
0
VERTEX
8
CUT
10
85.7143
20
61.2857
0
VERTEX
8
CUT
10
83.4286
20
61.2857
0
VERTEX
8
CUT
10
83.4286
20
63.5714
0
SEQEND
0
POLYLINE
8
CUT
66
1
70
0
0
VERTEX
8
CUT
10
96
20
67
0
VERTEX
8
CUT
10
96
20
60.1429
0
VERTEX
8
CUT
10
89.1429
20
60.1429
0
VERTEX
8
CUT
10
89.1429
20
64.7143
0
VERTEX
8
CUT
10
93.7143
20
64.7143
0
VERTEX
8
CUT
10
93.7143
20
62.4286
0
VERTEX
8
CUT
10
91.4286
20
62.4286
0
SEQEND
0
POLYLINE
8
CUT
66
1
70
0
0
VERTEX
8
CUT
10
88
20
59
0
VERTEX
8
CUT
10
88
20
65.8571
0
VERTEX
8
CUT
10
94.8571
20
65.8571
0
VERTEX
8
CUT
10
94.8571
20
61.2857
0
VERTEX
8
CUT
10
90.2857
20
61.2857
0
VERTEX
8
CUT
10
90.2857
20
63.5714
0
VERTEX
8
CUT
10
92.5714
20
63.5714
0
SEQEND
0
POLYLINE
8
CUT
66
1
70
0
0
VERTEX
8
CUT
10
96
20
67
0
VERTEX
8
CUT
10
102.8571
20
67
0
VERTEX
8
CUT
10
102.8571
20
60.1429
0
VERTEX
8
CUT
10
98.2857
20
60.1429
0
VERTEX
8
CUT
10
98.2857
20
64.7143
0
VERTEX
8
CUT
10
100.5714
20
64.7143
0
VERTEX
8
CUT
10
100.5714
20
62.4286
0
SEQEND
0
POLYLINE
8
CUT
66
1
70
0
0
VERTEX
8
CUT
10
104
20
59
0
VERTEX
8
CUT
10
97.1429
20
59
0
VERTEX
8
CUT
10
97.1429
20
65.8571
0
VERTEX
8
CUT
10
101.7143
20
65.8571
0
VERTEX
8
CUT
10
101.7143
20
61.2857
0
VERTEX
8
CUT
10
99.4286
20
61.2857
0
VERTEX
8
CUT
10
99.4286
20
63.5714
0
SEQEND
0
POLYLINE
8
CUT
66
1
70
0
0
VERTEX
8
CUT
10
112
20
67
0
VERTEX
8
CUT
10
112
20
60.1429
0
VERTEX
8
CUT
10
105.1429
20
60.1429
0
VERTEX
8
CUT
10
105.1429
20
64.7143
0
VERTEX
8
CUT
10
109.7143
20
64.7143
0
VERTEX
8
CUT
10
109.7143
20
62.4286
0
VERTEX
8
CUT
10
107.4286
20
62.4286
0
SEQEND
0
POLYLINE
8
CUT
66
1
70
0
0
VERTEX
8
CUT
10
104
20
59
0
VERTEX
8
CUT
10
104
20
65.8571
0
VERTEX
8
CUT
10
110.8571
20
65.8571
0
VERTEX
8
CUT
10
110.8571
20
61.2857
0
VERTEX
8
CUT
10
106.2857
20
61.2857
0
VERTEX
8
CUT
10
106.2857
20
63.5714
0
VERTEX
8
CUT
10
108.5714
20
63.5714
0
SEQEND
0
POLYLINE
8
CUT
66
1
70
0
0
VERTEX
8
CUT
10
112
20
67
0
VERTEX
8
CUT
10
118.8571
20
67
0
VERTEX
8
CUT
10
118.8571
20
60.1429
0
VERTEX
8
CUT
10
114.2857
20
60.1429
0
VERTEX
8
CUT
10
114.2857
20
64.7143
0
VERTEX
8
CUT
10
116.5714
20
64.7143
0
VERTEX
8
CUT
10
116.5714
20
62.4286
0
SEQEND
0
POLYLINE
8
CUT
66
1
70
0
0
VERTEX
8
CUT
10
120
20
59
0
VERTEX
8
CUT
10
113.1429
20
59
0
VERTEX
8
CUT
10
113.1429
20
65.8571
0
VERTEX
8
CUT
10
117.7143
20
65.8571
0
VERTEX
8
CUT
10
117.7143
20
61.2857
0
VERTEX
8
CUT
10
115.4286
20
61.2857
0
VERTEX
8
CUT
10
115.4286
20
63.5714
0
SEQEND
0
POLYLINE
8
CUT
66
1
70
0
0
VERTEX
8
CUT
10
8
20
59
0
VERTEX
8
CUT
10
8
20
52.1429
0
VERTEX
8
CUT
10
1.1429
20
52.1429
0
VERTEX
8
CUT
10
1.1429
20
56.7143
0
VERTEX
8
CUT
10
5.7143
20
56.7143
0
VERTEX
8
CUT
10
5.7143
20
54.4286
0
VERTEX
8
CUT
10
3.4286
20
54.4286
0
SEQEND
0
POLYLINE
8
CUT
66
1
70
0
0
VERTEX
8
CUT
10
0
20
51
0
VERTEX
8
CUT
10
0
20
57.8571
0
VERTEX
8
CUT
10
6.8571
20
57.8571
0
VERTEX
8
CUT
10
6.8571
20
53.2857
0
VERTEX
8
CUT
10
2.2857
20
53.2857
0
VERTEX
8
CUT
10
2.2857
20
55.5714
0
VERTEX
8
CUT
10
4.5714
20
55.5714
0
SEQEND
0
POLYLINE
8
CUT
66
1
70
0
0
VERTEX
8
CUT
10
8
20
59
0
VERTEX
8
CUT
10
14.8571
20
59
0
VERTEX
8
CUT
10
14.8571
20
52.1429
0
VERTEX
8
CUT
10
10.2857
20
52.1429
0
VERTEX
8
CUT
10
10.2857
20
56.7143
0
VERTEX
8
CUT
10
12.5714
20
56.7143
0
VERTEX
8
CUT
10
12.5714
20
54.4286
0
SEQEND
0
POLYLINE
8
CUT
66
1
70
0
0
VERTEX
8
CUT
10
16
20
51
0
VERTEX
8
CUT
10
9.1429
20
51
0
VERTEX
8
CUT
10
9.1429
20
57.8571
0
VERTEX
8
CUT
10
13.7143
20
57.8571
0
VERTEX
8
CUT
10
13.7143
20
53.2857
0
VERTEX
8
CUT
10
11.4286
20
53.2857
0
VERTEX
8
CUT
10
11.4286
20
55.5714
0
SEQEND
0
POLYLINE
8
CUT
66
1
70
0
0
VERTEX
8
CUT
10
24
20
59
0
VERTEX
8
CUT
10
24
20
52.1429
0
VERTEX
8
CUT
10
17.1429
20
52.1429
0
VERTEX
8
CUT
10
17.1429
20
56.7143
0
VERTEX
8
CUT
10
21.7143
20
56.7143
0
VERTEX
8
CUT
10
21.7143
20
54.4286
0
VERTEX
8
CUT
10
19.4286
20
54.4286
0
SEQEND
0
POLYLINE
8
CUT
66
1
70
0
0
VERTEX
8
CUT
10
16
20
51
0
VERTEX
8
CUT
10
16
20
57.8571
0
VERTEX
8
CUT
10
22.8571
20
57.8571
0
VERTEX
8
CUT
10
22.8571
20
53.2857
0
VERTEX
8
CUT
10
18.2857
20
53.2857
0
VERTEX
8
CUT
10
18.2857
20
55.5714
0
VERTEX
8
CUT
10
20.5714
20
55.5714
0
SEQEND
0
POLYLINE
8
CUT
66
1
70
0
0
VERTEX
8
CUT
10
24
20
59
0
VERTEX
8
CUT
10
30.8571
20
59
0
VERTEX
8
CUT
10
30.8571
20
52.1429
0
VERTEX
8
CUT
10
26.2857
20
52.1429
0
VERTEX
8
CUT
10
26.2857
20
56.7143
0
VERTEX
8
CUT
10
28.5714
20
56.7143
0
VERTEX
8
CUT
10
28.5714
20
54.4286
0
SEQEND
0
POLYLINE
8
CUT
66
1
70
0
0
VERTEX
8
CUT
10
32
20
51
0
VERTEX
8
CUT
10
25.1429
20
51
0
VERTEX
8
CUT
10
25.1429
20
57.8571
0
VERTEX
8
CUT
10
29.7143
20
57.8571
0
VERTEX
8
CUT
10
29.7143
20
53.2857
0
VERTEX
8
CUT
10
27.4286
20
53.2857
0
VERTEX
8
CUT
10
27.4286
20
55.5714
0
SEQEND
0
POLYLINE
8
CUT
66
1
70
0
0
VERTEX
8
CUT
10
40
20
59
0
VERTEX
8
CUT
10
40
20
52.1429
0
VERTEX
8
CUT
10
33.1429
20
52.1429
0
VERTEX
8
CUT
10
33.1429
20
56.7143
0
VERTEX
8
CUT
10
37.7143
20
56.7143
0
VERTEX
8
CUT
10
37.7143
20
54.4286
0
VERTEX
8
CUT
10
35.4286
20
54.4286
0
SEQEND
0
POLYLINE
8
CUT
66
1
70
0
0
VERTEX
8
CUT
10
32
20
51
0
VERTEX
8
CUT
10
32
20
57.8571
0
VERTEX
8
CUT
10
38.8571
20
57.8571
0
VERTEX
8
CUT
10
38.8571
20
53.2857
0
VERTEX
8
CUT
10
34.2857
20
53.2857
0
VERTEX
8
CUT
10
34.2857
20
55.5714
0
VERTEX
8
CUT
10
36.5714
20
55.5714
0
SEQEND
0
POLYLINE
8
CUT
66
1
70
0
0
VERTEX
8
CUT
10
40
20
59
0
VERTEX
8
CUT
10
46.8571
20
59
0
VERTEX
8
CUT
10
46.8571
20
52.1429
0
VERTEX
8
CUT
10
42.2857
20
52.1429
0
VERTEX
8
CUT
10
42.2857
20
56.7143
0
VERTEX
8
CUT
10
44.5714
20
56.7143
0
VERTEX
8
CUT
10
44.5714
20
54.4286
0
SEQEND
0
POLYLINE
8
CUT
66
1
70
0
0
VERTEX
8
CUT
10
48
20
51
0
VERTEX
8
CUT
10
41.1429
20
51
0
VERTEX
8
CUT
10
41.1429
20
57.8571
0
VERTEX
8
CUT
10
45.7143
20
57.8571
0
VERTEX
8
CUT
10
45.7143
20
53.2857
0
VERTEX
8
CUT
10
43.4286
20
53.2857
0
VERTEX
8
CUT
10
43.4286
20
55.5714
0
SEQEND
0
POLYLINE
8
CUT
66
1
70
0
0
VERTEX
8
CUT
10
56
20
59
0
VERTEX
8
CUT
10
56
20
52.1429
0
VERTEX
8
CUT
10
49.1429
20
52.1429
0
VERTEX
8
CUT
10
49.1429
20
56.7143
0
VERTEX
8
CUT
10
53.7143
20
56.7143
0
VERTEX
8
CUT
10
53.7143
20
54.4286
0
VERTEX
8
CUT
10
51.4286
20
54.4286
0
SEQEND
0
POLYLINE
8
CUT
66
1
70
0
0
VERTEX
8
CUT
10
48
20
51
0
VERTEX
8
CUT
10
48
20
57.8571
0
VERTEX
8
CUT
10
54.8571
20
57.8571
0
VERTEX
8
CUT
10
54.8571
20
53.2857
0
VERTEX
8
CUT
10
50.2857
20
53.2857
0
VERTEX
8
CUT
10
50.2857
20
55.5714
0
VERTEX
8
CUT
10
52.5714
20
55.5714
0
SEQEND
0
POLYLINE
8
CUT
66
1
70
0
0
VERTEX
8
CUT
10
56
20
59
0
VERTEX
8
CUT
10
62.8571
20
59
0
VERTEX
8
CUT
10
62.8571
20
52.1429
0
VERTEX
8
CUT
10
58.2857
20
52.1429
0
VERTEX
8
CUT
10
58.2857
20
56.7143
0
VERTEX
8
CUT
10
60.5714
20
56.7143
0
VERTEX
8
CUT
10
60.5714
20
54.4286
0
SEQEND
0
POLYLINE
8
CUT
66
1
70
0
0
VERTEX
8
CUT
10
64
20
51
0
VERTEX
8
CUT
10
57.1429
20
51
0
VERTEX
8
CUT
10
57.1429
20
57.8571
0
VERTEX
8
CUT
10
61.7143
20
57.8571
0
VERTEX
8
CUT
10
61.7143
20
53.2857
0
VERTEX
8
CUT
10
59.4286
20
53.2857
0
VERTEX
8
CUT
10
59.4286
20
55.5714
0
SEQEND
0
POLYLINE
8
CUT
66
1
70
0
0
VERTEX
8
CUT
10
72
20
59
0
VERTEX
8
CUT
10
72
20
52.1429
0
VERTEX
8
CUT
10
65.1429
20
52.1429
0
VERTEX
8
CUT
10
65.1429
20
56.7143
0
VERTEX
8
CUT
10
69.7143
20
56.7143
0
VERTEX
8
CUT
10
69.7143
20
54.4286
0
VERTEX
8
CUT
10
67.4286
20
54.4286
0
SEQEND
0
POLYLINE
8
CUT
66
1
70
0
0
VERTEX
8
CUT
10
64
20
51
0
VERTEX
8
CUT
10
64
20
57.8571
0
VERTEX
8
CUT
10
70.8571
20
57.8571
0
VERTEX
8
CUT
10
70.8571
20
53.2857
0
VERTEX
8
CUT
10
66.2857
20
53.2857
0
VERTEX
8
CUT
10
66.2857
20
55.5714
0
VERTEX
8
CUT
10
68.5714
20
55.5714
0
SEQEND
0
POLYLINE
8
CUT
66
1
70
0
0
VERTEX
8
CUT
10
72
20
59
0
VERTEX
8
CUT
10
78.8571
20
59
0
VERTEX
8
CUT
10
78.8571
20
52.1429
0
VERTEX
8
CUT
10
74.2857
20
52.1429
0
VERTEX
8
CUT
10
74.2857
20
56.7143
0
VERTEX
8
CUT
10
76.5714
20
56.7143
0
VERTEX
8
CUT
10
76.5714
20
54.4286
0
SEQEND
0
POLYLINE
8
CUT
66
1
70
0
0
VERTEX
8
CUT
10
80
20
51
0
VERTEX
8
CUT
10
73.1429
20
51
0
VERTEX
8
CUT
10
73.1429
20
57.8571
0
VERTEX
8
CUT
10
77.7143
20
57.8571
0
VERTEX
8
CUT
10
77.7143
20
53.2857
0
VERTEX
8
CUT
10
75.4286
20
53.2857
0
VERTEX
8
CUT
10
75.4286
20
55.5714
0
SEQEND
0
POLYLINE
8
CUT
66
1
70
0
0
VERTEX
8
CUT
10
88
20
59
0
VERTEX
8
CUT
10
88
20
52.1429
0
VERTEX
8
CUT
10
81.1429
20
52.1429
0
VERTEX
8
CUT
10
81.1429
20
56.7143
0
VERTEX
8
CUT
10
85.7143
20
56.7143
0
VERTEX
8
CUT
10
85.7143
20
54.4286
0
VERTEX
8
CUT
10
83.4286
20
54.4286
0
SEQEND
0
POLYLINE
8
CUT
66
1
70
0
0
VERTEX
8
CUT
10
80
20
51
0
VERTEX
8
CUT
10
80
20
57.8571
0
VERTEX
8
CUT
10
86.8571
20
57.8571
0
VERTEX
8
CUT
10
86.8571
20
53.2857
0
VERTEX
8
CUT
10
82.2857
20
53.2857
0
VERTEX
8
CUT
10
82.2857
20
55.5714
0
VERTEX
8
CUT
10
84.5714
20
55.5714
0
SEQEND
0
POLYLINE
8
CUT
66
1
70
0
0
VERTEX
8
CUT
10
88
20
59
0
VERTEX
8
CUT
10
94.8571
20
59
0
VERTEX
8
CUT
10
94.8571
20
52.1429
0
VERTEX
8
CUT
10
90.2857
20
52.1429
0
VERTEX
8
CUT
10
90.2857
20
56.7143
0
VERTEX
8
CUT
10
92.5714
20
56.7143
0
VERTEX
8
CUT
10
92.5714
20
54.4286
0
SEQEND
0
POLYLINE
8
CUT
66
1
70
0
0
VERTEX
8
CUT
10
96
20
51
0
VERTEX
8
CUT
10
89.1429
20
51
0
VERTEX
8
CUT
10
89.1429
20
57.8571
0
VERTEX
8
CUT
10
93.7143
20
57.8571
0
VERTEX
8
CUT
10
93.7143
20
53.2857
0
VERTEX
8
CUT
10
91.4286
20
53.2857
0
VERTEX
8
CUT
10
91.4286
20
55.5714
0
SEQEND
0
POLYLINE
8
CUT
66
1
70
0
0
VERTEX
8
CUT
10
104
20
59
0
VERTEX
8
CUT
10
104
20
52.1429
0
VERTEX
8
CUT
10
97.1429
20
52.1429
0
VERTEX
8
CUT
10
97.1429
20
56.7143
0
VERTEX
8
CUT
10
101.7143
20
56.7143
0
VERTEX
8
CUT
10
101.7143
20
54.4286
0
VERTEX
8
CUT
10
99.4286
20
54.4286
0
SEQEND
0
POLYLINE
8
CUT
66
1
70
0
0
VERTEX
8
CUT
10
96
20
51
0
VERTEX
8
CUT
10
96
20
57.8571
0
VERTEX
8
CUT
10
102.8571
20
57.8571
0
VERTEX
8
CUT
10
102.8571
20
53.2857
0
VERTEX
8
CUT
10
98.2857
20
53.2857
0
VERTEX
8
CUT
10
98.2857
20
55.5714
0
VERTEX
8
CUT
10
100.5714
20
55.5714
0
SEQEND
0
POLYLINE
8
CUT
66
1
70
0
0
VERTEX
8
CUT
10
104
20
59
0
VERTEX
8
CUT
10
110.8571
20
59
0
VERTEX
8
CUT
10
110.8571
20
52.1429
0
VERTEX
8
CUT
10
106.2857
20
52.1429
0
VERTEX
8
CUT
10
106.2857
20
56.7143
0
VERTEX
8
CUT
10
108.5714
20
56.7143
0
VERTEX
8
CUT
10
108.5714
20
54.4286
0
SEQEND
0
POLYLINE
8
CUT
66
1
70
0
0
VERTEX
8
CUT
10
112
20
51
0
VERTEX
8
CUT
10
105.1429
20
51
0
VERTEX
8
CUT
10
105.1429
20
57.8571
0
VERTEX
8
CUT
10
109.7143
20
57.8571
0
VERTEX
8
CUT
10
109.7143
20
53.2857
0
VERTEX
8
CUT
10
107.4286
20
53.2857
0
VERTEX
8
CUT
10
107.4286
20
55.5714
0
SEQEND
0
POLYLINE
8
CUT
66
1
70
0
0
VERTEX
8
CUT
10
120
20
59
0
VERTEX
8
CUT
10
120
20
52.1429
0
VERTEX
8
CUT
10
113.1429
20
52.1429
0
VERTEX
8
CUT
10
113.1429
20
56.7143
0
VERTEX
8
CUT
10
117.7143
20
56.7143
0
VERTEX
8
CUT
10
117.7143
20
54.4286
0
VERTEX
8
CUT
10
115.4286
20
54.4286
0
SEQEND
0
POLYLINE
8
CUT
66
1
70
0
0
VERTEX
8
CUT
10
112
20
51
0
VERTEX
8
CUT
10
112
20
57.8571
0
VERTEX
8
CUT
10
118.8571
20
57.8571
0
VERTEX
8
CUT
10
118.8571
20
53.2857
0
VERTEX
8
CUT
10
114.2857
20
53.2857
0
VERTEX
8
CUT
10
114.2857
20
55.5714
0
VERTEX
8
CUT
10
116.5714
20
55.5714
0
SEQEND
0
POLYLINE
8
CUT
66
1
70
0
0
VERTEX
8
CUT
10
0
20
51
0
VERTEX
8
CUT
10
6.8571
20
51
0
VERTEX
8
CUT
10
6.8571
20
44.1429
0
VERTEX
8
CUT
10
2.2857
20
44.1429
0
VERTEX
8
CUT
10
2.2857
20
48.7143
0
VERTEX
8
CUT
10
4.5714
20
48.7143
0
VERTEX
8
CUT
10
4.5714
20
46.4286
0
SEQEND
0
POLYLINE
8
CUT
66
1
70
0
0
VERTEX
8
CUT
10
8
20
43
0
VERTEX
8
CUT
10
1.1429
20
43
0
VERTEX
8
CUT
10
1.1429
20
49.8571
0
VERTEX
8
CUT
10
5.7143
20
49.8571
0
VERTEX
8
CUT
10
5.7143
20
45.2857
0
VERTEX
8
CUT
10
3.4286
20
45.2857
0
VERTEX
8
CUT
10
3.4286
20
47.5714
0
SEQEND
0
POLYLINE
8
CUT
66
1
70
0
0
VERTEX
8
CUT
10
16
20
51
0
VERTEX
8
CUT
10
16
20
44.1429
0
VERTEX
8
CUT
10
9.1429
20
44.1429
0
VERTEX
8
CUT
10
9.1429
20
48.7143
0
VERTEX
8
CUT
10
13.7143
20
48.7143
0
VERTEX
8
CUT
10
13.7143
20
46.4286
0
VERTEX
8
CUT
10
11.4286
20
46.4286
0
SEQEND
0
POLYLINE
8
CUT
66
1
70
0
0
VERTEX
8
CUT
10
8
20
43
0
VERTEX
8
CUT
10
8
20
49.8571
0
VERTEX
8
CUT
10
14.8571
20
49.8571
0
VERTEX
8
CUT
10
14.8571
20
45.2857
0
VERTEX
8
CUT
10
10.2857
20
45.2857
0
VERTEX
8
CUT
10
10.2857
20
47.5714
0
VERTEX
8
CUT
10
12.5714
20
47.5714
0
SEQEND
0
POLYLINE
8
CUT
66
1
70
0
0
VERTEX
8
CUT
10
16
20
51
0
VERTEX
8
CUT
10
22.8571
20
51
0
VERTEX
8
CUT
10
22.8571
20
44.1429
0
VERTEX
8
CUT
10
18.2857
20
44.1429
0
VERTEX
8
CUT
10
18.2857
20
48.7143
0
VERTEX
8
CUT
10
20.5714
20
48.7143
0
VERTEX
8
CUT
10
20.5714
20
46.4286
0
SEQEND
0
POLYLINE
8
CUT
66
1
70
0
0
VERTEX
8
CUT
10
24
20
43
0
VERTEX
8
CUT
10
17.1429
20
43
0
VERTEX
8
CUT
10
17.1429
20
49.8571
0
VERTEX
8
CUT
10
21.7143
20
49.8571
0
VERTEX
8
CUT
10
21.7143
20
45.2857
0
VERTEX
8
CUT
10
19.4286
20
45.2857
0
VERTEX
8
CUT
10
19.4286
20
47.5714
0
SEQEND
0
POLYLINE
8
CUT
66
1
70
0
0
VERTEX
8
CUT
10
32
20
51
0
VERTEX
8
CUT
10
32
20
44.1429
0
VERTEX
8
CUT
10
25.1429
20
44.1429
0
VERTEX
8
CUT
10
25.1429
20
48.7143
0
VERTEX
8
CUT
10
29.7143
20
48.7143
0
VERTEX
8
CUT
10
29.7143
20
46.4286
0
VERTEX
8
CUT
10
27.4286
20
46.4286
0
SEQEND
0
POLYLINE
8
CUT
66
1
70
0
0
VERTEX
8
CUT
10
24
20
43
0
VERTEX
8
CUT
10
24
20
49.8571
0
VERTEX
8
CUT
10
30.8571
20
49.8571
0
VERTEX
8
CUT
10
30.8571
20
45.2857
0
VERTEX
8
CUT
10
26.2857
20
45.2857
0
VERTEX
8
CUT
10
26.2857
20
47.5714
0
VERTEX
8
CUT
10
28.5714
20
47.5714
0
SEQEND
0
POLYLINE
8
CUT
66
1
70
0
0
VERTEX
8
CUT
10
32
20
51
0
VERTEX
8
CUT
10
38.8571
20
51
0
VERTEX
8
CUT
10
38.8571
20
44.1429
0
VERTEX
8
CUT
10
34.2857
20
44.1429
0
VERTEX
8
CUT
10
34.2857
20
48.7143
0
VERTEX
8
CUT
10
36.5714
20
48.7143
0
VERTEX
8
CUT
10
36.5714
20
46.4286
0
SEQEND
0
POLYLINE
8
CUT
66
1
70
0
0
VERTEX
8
CUT
10
40
20
43
0
VERTEX
8
CUT
10
33.1429
20
43
0
VERTEX
8
CUT
10
33.1429
20
49.8571
0
VERTEX
8
CUT
10
37.7143
20
49.8571
0
VERTEX
8
CUT
10
37.7143
20
45.2857
0
VERTEX
8
CUT
10
35.4286
20
45.2857
0
VERTEX
8
CUT
10
35.4286
20
47.5714
0
SEQEND
0
POLYLINE
8
CUT
66
1
70
0
0
VERTEX
8
CUT
10
48
20
51
0
VERTEX
8
CUT
10
48
20
44.1429
0
VERTEX
8
CUT
10
41.1429
20
44.1429
0
VERTEX
8
CUT
10
41.1429
20
48.7143
0
VERTEX
8
CUT
10
45.7143
20
48.7143
0
VERTEX
8
CUT
10
45.7143
20
46.4286
0
VERTEX
8
CUT
10
43.4286
20
46.4286
0
SEQEND
0
POLYLINE
8
CUT
66
1
70
0
0
VERTEX
8
CUT
10
40
20
43
0
VERTEX
8
CUT
10
40
20
49.8571
0
VERTEX
8
CUT
10
46.8571
20
49.8571
0
VERTEX
8
CUT
10
46.8571
20
45.2857
0
VERTEX
8
CUT
10
42.2857
20
45.2857
0
VERTEX
8
CUT
10
42.2857
20
47.5714
0
VERTEX
8
CUT
10
44.5714
20
47.5714
0
SEQEND
0
POLYLINE
8
CUT
66
1
70
0
0
VERTEX
8
CUT
10
48
20
51
0
VERTEX
8
CUT
10
54.8571
20
51
0
VERTEX
8
CUT
10
54.8571
20
44.1429
0
VERTEX
8
CUT
10
50.2857
20
44.1429
0
VERTEX
8
CUT
10
50.2857
20
48.7143
0
VERTEX
8
CUT
10
52.5714
20
48.7143
0
VERTEX
8
CUT
10
52.5714
20
46.4286
0
SEQEND
0
POLYLINE
8
CUT
66
1
70
0
0
VERTEX
8
CUT
10
56
20
43
0
VERTEX
8
CUT
10
49.1429
20
43
0
VERTEX
8
CUT
10
49.1429
20
49.8571
0
VERTEX
8
CUT
10
53.7143
20
49.8571
0
VERTEX
8
CUT
10
53.7143
20
45.2857
0
VERTEX
8
CUT
10
51.4286
20
45.2857
0
VERTEX
8
CUT
10
51.4286
20
47.5714
0
SEQEND
0
POLYLINE
8
CUT
66
1
70
0
0
VERTEX
8
CUT
10
64
20
51
0
VERTEX
8
CUT
10
64
20
44.1429
0
VERTEX
8
CUT
10
57.1429
20
44.1429
0
VERTEX
8
CUT
10
57.1429
20
48.7143
0
VERTEX
8
CUT
10
61.7143
20
48.7143
0
VERTEX
8
CUT
10
61.7143
20
46.4286
0
VERTEX
8
CUT
10
59.4286
20
46.4286
0
SEQEND
0
POLYLINE
8
CUT
66
1
70
0
0
VERTEX
8
CUT
10
56
20
43
0
VERTEX
8
CUT
10
56
20
49.8571
0
VERTEX
8
CUT
10
62.8571
20
49.8571
0
VERTEX
8
CUT
10
62.8571
20
45.2857
0
VERTEX
8
CUT
10
58.2857
20
45.2857
0
VERTEX
8
CUT
10
58.2857
20
47.5714
0
VERTEX
8
CUT
10
60.5714
20
47.5714
0
SEQEND
0
POLYLINE
8
CUT
66
1
70
0
0
VERTEX
8
CUT
10
64
20
51
0
VERTEX
8
CUT
10
70.8571
20
51
0
VERTEX
8
CUT
10
70.8571
20
44.1429
0
VERTEX
8
CUT
10
66.2857
20
44.1429
0
VERTEX
8
CUT
10
66.2857
20
48.7143
0
VERTEX
8
CUT
10
68.5714
20
48.7143
0
VERTEX
8
CUT
10
68.5714
20
46.4286
0
SEQEND
0
POLYLINE
8
CUT
66
1
70
0
0
VERTEX
8
CUT
10
72
20
43
0
VERTEX
8
CUT
10
65.1429
20
43
0
VERTEX
8
CUT
10
65.1429
20
49.8571
0
VERTEX
8
CUT
10
69.7143
20
49.8571
0
VERTEX
8
CUT
10
69.7143
20
45.2857
0
VERTEX
8
CUT
10
67.4286
20
45.2857
0
VERTEX
8
CUT
10
67.4286
20
47.5714
0
SEQEND
0
POLYLINE
8
CUT
66
1
70
0
0
VERTEX
8
CUT
10
80
20
51
0
VERTEX
8
CUT
10
80
20
44.1429
0
VERTEX
8
CUT
10
73.1429
20
44.1429
0
VERTEX
8
CUT
10
73.1429
20
48.7143
0
VERTEX
8
CUT
10
77.7143
20
48.7143
0
VERTEX
8
CUT
10
77.7143
20
46.4286
0
VERTEX
8
CUT
10
75.4286
20
46.4286
0
SEQEND
0
POLYLINE
8
CUT
66
1
70
0
0
VERTEX
8
CUT
10
72
20
43
0
VERTEX
8
CUT
10
72
20
49.8571
0
VERTEX
8
CUT
10
78.8571
20
49.8571
0
VERTEX
8
CUT
10
78.8571
20
45.2857
0
VERTEX
8
CUT
10
74.2857
20
45.2857
0
VERTEX
8
CUT
10
74.2857
20
47.5714
0
VERTEX
8
CUT
10
76.5714
20
47.5714
0
SEQEND
0
POLYLINE
8
CUT
66
1
70
0
0
VERTEX
8
CUT
10
80
20
51
0
VERTEX
8
CUT
10
86.8571
20
51
0
VERTEX
8
CUT
10
86.8571
20
44.1429
0
VERTEX
8
CUT
10
82.2857
20
44.1429
0
VERTEX
8
CUT
10
82.2857
20
48.7143
0
VERTEX
8
CUT
10
84.5714
20
48.7143
0
VERTEX
8
CUT
10
84.5714
20
46.4286
0
SEQEND
0
POLYLINE
8
CUT
66
1
70
0
0
VERTEX
8
CUT
10
88
20
43
0
VERTEX
8
CUT
10
81.1429
20
43
0
VERTEX
8
CUT
10
81.1429
20
49.8571
0
VERTEX
8
CUT
10
85.7143
20
49.8571
0
VERTEX
8
CUT
10
85.7143
20
45.2857
0
VERTEX
8
CUT
10
83.4286
20
45.2857
0
VERTEX
8
CUT
10
83.4286
20
47.5714
0
SEQEND
0
POLYLINE
8
CUT
66
1
70
0
0
VERTEX
8
CUT
10
96
20
51
0
VERTEX
8
CUT
10
96
20
44.1429
0
VERTEX
8
CUT
10
89.1429
20
44.1429
0
VERTEX
8
CUT
10
89.1429
20
48.7143
0
VERTEX
8
CUT
10
93.7143
20
48.7143
0
VERTEX
8
CUT
10
93.7143
20
46.4286
0
VERTEX
8
CUT
10
91.4286
20
46.4286
0
SEQEND
0
POLYLINE
8
CUT
66
1
70
0
0
VERTEX
8
CUT
10
88
20
43
0
VERTEX
8
CUT
10
88
20
49.8571
0
VERTEX
8
CUT
10
94.8571
20
49.8571
0
VERTEX
8
CUT
10
94.8571
20
45.2857
0
VERTEX
8
CUT
10
90.2857
20
45.2857
0
VERTEX
8
CUT
10
90.2857
20
47.5714
0
VERTEX
8
CUT
10
92.5714
20
47.5714
0
SEQEND
0
POLYLINE
8
CUT
66
1
70
0
0
VERTEX
8
CUT
10
96
20
51
0
VERTEX
8
CUT
10
102.8571
20
51
0
VERTEX
8
CUT
10
102.8571
20
44.1429
0
VERTEX
8
CUT
10
98.2857
20
44.1429
0
VERTEX
8
CUT
10
98.2857
20
48.7143
0
VERTEX
8
CUT
10
100.5714
20
48.7143
0
VERTEX
8
CUT
10
100.5714
20
46.4286
0
SEQEND
0
POLYLINE
8
CUT
66
1
70
0
0
VERTEX
8
CUT
10
104
20
43
0
VERTEX
8
CUT
10
97.1429
20
43
0
VERTEX
8
CUT
10
97.1429
20
49.8571
0
VERTEX
8
CUT
10
101.7143
20
49.8571
0
VERTEX
8
CUT
10
101.7143
20
45.2857
0
VERTEX
8
CUT
10
99.4286
20
45.2857
0
VERTEX
8
CUT
10
99.4286
20
47.5714
0
SEQEND
0
POLYLINE
8
CUT
66
1
70
0
0
VERTEX
8
CUT
10
112
20
51
0
VERTEX
8
CUT
10
112
20
44.1429
0
VERTEX
8
CUT
10
105.1429
20
44.1429
0
VERTEX
8
CUT
10
105.1429
20
48.7143
0
VERTEX
8
CUT
10
109.7143
20
48.7143
0
VERTEX
8
CUT
10
109.7143
20
46.4286
0
VERTEX
8
CUT
10
107.4286
20
46.4286
0
SEQEND
0
POLYLINE
8
CUT
66
1
70
0
0
VERTEX
8
CUT
10
104
20
43
0
VERTEX
8
CUT
10
104
20
49.8571
0
VERTEX
8
CUT
10
110.8571
20
49.8571
0
VERTEX
8
CUT
10
110.8571
20
45.2857
0
VERTEX
8
CUT
10
106.2857
20
45.2857
0
VERTEX
8
CUT
10
106.2857
20
47.5714
0
VERTEX
8
CUT
10
108.5714
20
47.5714
0
SEQEND
0
POLYLINE
8
CUT
66
1
70
0
0
VERTEX
8
CUT
10
112
20
51
0
VERTEX
8
CUT
10
118.8571
20
51
0
VERTEX
8
CUT
10
118.8571
20
44.1429
0
VERTEX
8
CUT
10
114.2857
20
44.1429
0
VERTEX
8
CUT
10
114.2857
20
48.7143
0
VERTEX
8
CUT
10
116.5714
20
48.7143
0
VERTEX
8
CUT
10
116.5714
20
46.4286
0
SEQEND
0
POLYLINE
8
CUT
66
1
70
0
0
VERTEX
8
CUT
10
120
20
43
0
VERTEX
8
CUT
10
113.1429
20
43
0
VERTEX
8
CUT
10
113.1429
20
49.8571
0
VERTEX
8
CUT
10
117.7143
20
49.8571
0
VERTEX
8
CUT
10
117.7143
20
45.2857
0
VERTEX
8
CUT
10
115.4286
20
45.2857
0
VERTEX
8
CUT
10
115.4286
20
47.5714
0
SEQEND
0
POLYLINE
8
CUT
66
1
70
0
0
VERTEX
8
CUT
10
8
20
43
0
VERTEX
8
CUT
10
8
20
36.1429
0
VERTEX
8
CUT
10
1.1429
20
36.1429
0
VERTEX
8
CUT
10
1.1429
20
40.7143
0
VERTEX
8
CUT
10
5.7143
20
40.7143
0
VERTEX
8
CUT
10
5.7143
20
38.4286
0
VERTEX
8
CUT
10
3.4286
20
38.4286
0
SEQEND
0
POLYLINE
8
CUT
66
1
70
0
0
VERTEX
8
CUT
10
0
20
35
0
VERTEX
8
CUT
10
0
20
41.8571
0
VERTEX
8
CUT
10
6.8571
20
41.8571
0
VERTEX
8
CUT
10
6.8571
20
37.2857
0
VERTEX
8
CUT
10
2.2857
20
37.2857
0
VERTEX
8
CUT
10
2.2857
20
39.5714
0
VERTEX
8
CUT
10
4.5714
20
39.5714
0
SEQEND
0
POLYLINE
8
CUT
66
1
70
0
0
VERTEX
8
CUT
10
8
20
43
0
VERTEX
8
CUT
10
14.8571
20
43
0
VERTEX
8
CUT
10
14.8571
20
36.1429
0
VERTEX
8
CUT
10
10.2857
20
36.1429
0
VERTEX
8
CUT
10
10.2857
20
40.7143
0
VERTEX
8
CUT
10
12.5714
20
40.7143
0
VERTEX
8
CUT
10
12.5714
20
38.4286
0
SEQEND
0
POLYLINE
8
CUT
66
1
70
0
0
VERTEX
8
CUT
10
16
20
35
0
VERTEX
8
CUT
10
9.1429
20
35
0
VERTEX
8
CUT
10
9.1429
20
41.8571
0
VERTEX
8
CUT
10
13.7143
20
41.8571
0
VERTEX
8
CUT
10
13.7143
20
37.2857
0
VERTEX
8
CUT
10
11.4286
20
37.2857
0
VERTEX
8
CUT
10
11.4286
20
39.5714
0
SEQEND
0
POLYLINE
8
CUT
66
1
70
0
0
VERTEX
8
CUT
10
24
20
43
0
VERTEX
8
CUT
10
24
20
36.1429
0
VERTEX
8
CUT
10
17.1429
20
36.1429
0
VERTEX
8
CUT
10
17.1429
20
40.7143
0
VERTEX
8
CUT
10
21.7143
20
40.7143
0
VERTEX
8
CUT
10
21.7143
20
38.4286
0
VERTEX
8
CUT
10
19.4286
20
38.4286
0
SEQEND
0
POLYLINE
8
CUT
66
1
70
0
0
VERTEX
8
CUT
10
16
20
35
0
VERTEX
8
CUT
10
16
20
41.8571
0
VERTEX
8
CUT
10
22.8571
20
41.8571
0
VERTEX
8
CUT
10
22.8571
20
37.2857
0
VERTEX
8
CUT
10
18.2857
20
37.2857
0
VERTEX
8
CUT
10
18.2857
20
39.5714
0
VERTEX
8
CUT
10
20.5714
20
39.5714
0
SEQEND
0
POLYLINE
8
CUT
66
1
70
0
0
VERTEX
8
CUT
10
24
20
43
0
VERTEX
8
CUT
10
30.8571
20
43
0
VERTEX
8
CUT
10
30.8571
20
36.1429
0
VERTEX
8
CUT
10
26.2857
20
36.1429
0
VERTEX
8
CUT
10
26.2857
20
40.7143
0
VERTEX
8
CUT
10
28.5714
20
40.7143
0
VERTEX
8
CUT
10
28.5714
20
38.4286
0
SEQEND
0
POLYLINE
8
CUT
66
1
70
0
0
VERTEX
8
CUT
10
32
20
35
0
VERTEX
8
CUT
10
25.1429
20
35
0
VERTEX
8
CUT
10
25.1429
20
41.8571
0
VERTEX
8
CUT
10
29.7143
20
41.8571
0
VERTEX
8
CUT
10
29.7143
20
37.2857
0
VERTEX
8
CUT
10
27.4286
20
37.2857
0
VERTEX
8
CUT
10
27.4286
20
39.5714
0
SEQEND
0
POLYLINE
8
CUT
66
1
70
0
0
VERTEX
8
CUT
10
40
20
43
0
VERTEX
8
CUT
10
40
20
36.1429
0
VERTEX
8
CUT
10
33.1429
20
36.1429
0
VERTEX
8
CUT
10
33.1429
20
40.7143
0
VERTEX
8
CUT
10
37.7143
20
40.7143
0
VERTEX
8
CUT
10
37.7143
20
38.4286
0
VERTEX
8
CUT
10
35.4286
20
38.4286
0
SEQEND
0
POLYLINE
8
CUT
66
1
70
0
0
VERTEX
8
CUT
10
32
20
35
0
VERTEX
8
CUT
10
32
20
41.8571
0
VERTEX
8
CUT
10
38.8571
20
41.8571
0
VERTEX
8
CUT
10
38.8571
20
37.2857
0
VERTEX
8
CUT
10
34.2857
20
37.2857
0
VERTEX
8
CUT
10
34.2857
20
39.5714
0
VERTEX
8
CUT
10
36.5714
20
39.5714
0
SEQEND
0
POLYLINE
8
CUT
66
1
70
0
0
VERTEX
8
CUT
10
40
20
43
0
VERTEX
8
CUT
10
46.8571
20
43
0
VERTEX
8
CUT
10
46.8571
20
36.1429
0
VERTEX
8
CUT
10
42.2857
20
36.1429
0
VERTEX
8
CUT
10
42.2857
20
40.7143
0
VERTEX
8
CUT
10
44.5714
20
40.7143
0
VERTEX
8
CUT
10
44.5714
20
38.4286
0
SEQEND
0
POLYLINE
8
CUT
66
1
70
0
0
VERTEX
8
CUT
10
48
20
35
0
VERTEX
8
CUT
10
41.1429
20
35
0
VERTEX
8
CUT
10
41.1429
20
41.8571
0
VERTEX
8
CUT
10
45.7143
20
41.8571
0
VERTEX
8
CUT
10
45.7143
20
37.2857
0
VERTEX
8
CUT
10
43.4286
20
37.2857
0
VERTEX
8
CUT
10
43.4286
20
39.5714
0
SEQEND
0
POLYLINE
8
CUT
66
1
70
0
0
VERTEX
8
CUT
10
56
20
43
0
VERTEX
8
CUT
10
56
20
36.1429
0
VERTEX
8
CUT
10
49.1429
20
36.1429
0
VERTEX
8
CUT
10
49.1429
20
40.7143
0
VERTEX
8
CUT
10
53.7143
20
40.7143
0
VERTEX
8
CUT
10
53.7143
20
38.4286
0
VERTEX
8
CUT
10
51.4286
20
38.4286
0
SEQEND
0
POLYLINE
8
CUT
66
1
70
0
0
VERTEX
8
CUT
10
48
20
35
0
VERTEX
8
CUT
10
48
20
41.8571
0
VERTEX
8
CUT
10
54.8571
20
41.8571
0
VERTEX
8
CUT
10
54.8571
20
37.2857
0
VERTEX
8
CUT
10
50.2857
20
37.2857
0
VERTEX
8
CUT
10
50.2857
20
39.5714
0
VERTEX
8
CUT
10
52.5714
20
39.5714
0
SEQEND
0
POLYLINE
8
CUT
66
1
70
0
0
VERTEX
8
CUT
10
56
20
43
0
VERTEX
8
CUT
10
62.8571
20
43
0
VERTEX
8
CUT
10
62.8571
20
36.1429
0
VERTEX
8
CUT
10
58.2857
20
36.1429
0
VERTEX
8
CUT
10
58.2857
20
40.7143
0
VERTEX
8
CUT
10
60.5714
20
40.7143
0
VERTEX
8
CUT
10
60.5714
20
38.4286
0
SEQEND
0
POLYLINE
8
CUT
66
1
70
0
0
VERTEX
8
CUT
10
64
20
35
0
VERTEX
8
CUT
10
57.1429
20
35
0
VERTEX
8
CUT
10
57.1429
20
41.8571
0
VERTEX
8
CUT
10
61.7143
20
41.8571
0
VERTEX
8
CUT
10
61.7143
20
37.2857
0
VERTEX
8
CUT
10
59.4286
20
37.2857
0
VERTEX
8
CUT
10
59.4286
20
39.5714
0
SEQEND
0
POLYLINE
8
CUT
66
1
70
0
0
VERTEX
8
CUT
10
72
20
43
0
VERTEX
8
CUT
10
72
20
36.1429
0
VERTEX
8
CUT
10
65.1429
20
36.1429
0
VERTEX
8
CUT
10
65.1429
20
40.7143
0
VERTEX
8
CUT
10
69.7143
20
40.7143
0
VERTEX
8
CUT
10
69.7143
20
38.4286
0
VERTEX
8
CUT
10
67.4286
20
38.4286
0
SEQEND
0
POLYLINE
8
CUT
66
1
70
0
0
VERTEX
8
CUT
10
64
20
35
0
VERTEX
8
CUT
10
64
20
41.8571
0
VERTEX
8
CUT
10
70.8571
20
41.8571
0
VERTEX
8
CUT
10
70.8571
20
37.2857
0
VERTEX
8
CUT
10
66.2857
20
37.2857
0
VERTEX
8
CUT
10
66.2857
20
39.5714
0
VERTEX
8
CUT
10
68.5714
20
39.5714
0
SEQEND
0
POLYLINE
8
CUT
66
1
70
0
0
VERTEX
8
CUT
10
72
20
43
0
VERTEX
8
CUT
10
78.8571
20
43
0
VERTEX
8
CUT
10
78.8571
20
36.1429
0
VERTEX
8
CUT
10
74.2857
20
36.1429
0
VERTEX
8
CUT
10
74.2857
20
40.7143
0
VERTEX
8
CUT
10
76.5714
20
40.7143
0
VERTEX
8
CUT
10
76.5714
20
38.4286
0
SEQEND
0
POLYLINE
8
CUT
66
1
70
0
0
VERTEX
8
CUT
10
80
20
35
0
VERTEX
8
CUT
10
73.1429
20
35
0
VERTEX
8
CUT
10
73.1429
20
41.8571
0
VERTEX
8
CUT
10
77.7143
20
41.8571
0
VERTEX
8
CUT
10
77.7143
20
37.2857
0
VERTEX
8
CUT
10
75.4286
20
37.2857
0
VERTEX
8
CUT
10
75.4286
20
39.5714
0
SEQEND
0
POLYLINE
8
CUT
66
1
70
0
0
VERTEX
8
CUT
10
88
20
43
0
VERTEX
8
CUT
10
88
20
36.1429
0
VERTEX
8
CUT
10
81.1429
20
36.1429
0
VERTEX
8
CUT
10
81.1429
20
40.7143
0
VERTEX
8
CUT
10
85.7143
20
40.7143
0
VERTEX
8
CUT
10
85.7143
20
38.4286
0
VERTEX
8
CUT
10
83.4286
20
38.4286
0
SEQEND
0
POLYLINE
8
CUT
66
1
70
0
0
VERTEX
8
CUT
10
80
20
35
0
VERTEX
8
CUT
10
80
20
41.8571
0
VERTEX
8
CUT
10
86.8571
20
41.8571
0
VERTEX
8
CUT
10
86.8571
20
37.2857
0
VERTEX
8
CUT
10
82.2857
20
37.2857
0
VERTEX
8
CUT
10
82.2857
20
39.5714
0
VERTEX
8
CUT
10
84.5714
20
39.5714
0
SEQEND
0
POLYLINE
8
CUT
66
1
70
0
0
VERTEX
8
CUT
10
88
20
43
0
VERTEX
8
CUT
10
94.8571
20
43
0
VERTEX
8
CUT
10
94.8571
20
36.1429
0
VERTEX
8
CUT
10
90.2857
20
36.1429
0
VERTEX
8
CUT
10
90.2857
20
40.7143
0
VERTEX
8
CUT
10
92.5714
20
40.7143
0
VERTEX
8
CUT
10
92.5714
20
38.4286
0
SEQEND
0
POLYLINE
8
CUT
66
1
70
0
0
VERTEX
8
CUT
10
96
20
35
0
VERTEX
8
CUT
10
89.1429
20
35
0
VERTEX
8
CUT
10
89.1429
20
41.8571
0
VERTEX
8
CUT
10
93.7143
20
41.8571
0
VERTEX
8
CUT
10
93.7143
20
37.2857
0
VERTEX
8
CUT
10
91.4286
20
37.2857
0
VERTEX
8
CUT
10
91.4286
20
39.5714
0
SEQEND
0
POLYLINE
8
CUT
66
1
70
0
0
VERTEX
8
CUT
10
104
20
43
0
VERTEX
8
CUT
10
104
20
36.1429
0
VERTEX
8
CUT
10
97.1429
20
36.1429
0
VERTEX
8
CUT
10
97.1429
20
40.7143
0
VERTEX
8
CUT
10
101.7143
20
40.7143
0
VERTEX
8
CUT
10
101.7143
20
38.4286
0
VERTEX
8
CUT
10
99.4286
20
38.4286
0
SEQEND
0
POLYLINE
8
CUT
66
1
70
0
0
VERTEX
8
CUT
10
96
20
35
0
VERTEX
8
CUT
10
96
20
41.8571
0
VERTEX
8
CUT
10
102.8571
20
41.8571
0
VERTEX
8
CUT
10
102.8571
20
37.2857
0
VERTEX
8
CUT
10
98.2857
20
37.2857
0
VERTEX
8
CUT
10
98.2857
20
39.5714
0
VERTEX
8
CUT
10
100.5714
20
39.5714
0
SEQEND
0
POLYLINE
8
CUT
66
1
70
0
0
VERTEX
8
CUT
10
104
20
43
0
VERTEX
8
CUT
10
110.8571
20
43
0
VERTEX
8
CUT
10
110.8571
20
36.1429
0
VERTEX
8
CUT
10
106.2857
20
36.1429
0
VERTEX
8
CUT
10
106.2857
20
40.7143
0
VERTEX
8
CUT
10
108.5714
20
40.7143
0
VERTEX
8
CUT
10
108.5714
20
38.4286
0
SEQEND
0
POLYLINE
8
CUT
66
1
70
0
0
VERTEX
8
CUT
10
112
20
35
0
VERTEX
8
CUT
10
105.1429
20
35
0
VERTEX
8
CUT
10
105.1429
20
41.8571
0
VERTEX
8
CUT
10
109.7143
20
41.8571
0
VERTEX
8
CUT
10
109.7143
20
37.2857
0
VERTEX
8
CUT
10
107.4286
20
37.2857
0
VERTEX
8
CUT
10
107.4286
20
39.5714
0
SEQEND
0
POLYLINE
8
CUT
66
1
70
0
0
VERTEX
8
CUT
10
120
20
43
0
VERTEX
8
CUT
10
120
20
36.1429
0
VERTEX
8
CUT
10
113.1429
20
36.1429
0
VERTEX
8
CUT
10
113.1429
20
40.7143
0
VERTEX
8
CUT
10
117.7143
20
40.7143
0
VERTEX
8
CUT
10
117.7143
20
38.4286
0
VERTEX
8
CUT
10
115.4286
20
38.4286
0
SEQEND
0
POLYLINE
8
CUT
66
1
70
0
0
VERTEX
8
CUT
10
112
20
35
0
VERTEX
8
CUT
10
112
20
41.8571
0
VERTEX
8
CUT
10
118.8571
20
41.8571
0
VERTEX
8
CUT
10
118.8571
20
37.2857
0
VERTEX
8
CUT
10
114.2857
20
37.2857
0
VERTEX
8
CUT
10
114.2857
20
39.5714
0
VERTEX
8
CUT
10
116.5714
20
39.5714
0
SEQEND
0
POLYLINE
8
CUT
66
1
70
0
0
VERTEX
8
CUT
10
0
20
35
0
VERTEX
8
CUT
10
6.8571
20
35
0
VERTEX
8
CUT
10
6.8571
20
28.1429
0
VERTEX
8
CUT
10
2.2857
20
28.1429
0
VERTEX
8
CUT
10
2.2857
20
32.7143
0
VERTEX
8
CUT
10
4.5714
20
32.7143
0
VERTEX
8
CUT
10
4.5714
20
30.4286
0
SEQEND
0
POLYLINE
8
CUT
66
1
70
0
0
VERTEX
8
CUT
10
8
20
27
0
VERTEX
8
CUT
10
1.1429
20
27
0
VERTEX
8
CUT
10
1.1429
20
33.8571
0
VERTEX
8
CUT
10
5.7143
20
33.8571
0
VERTEX
8
CUT
10
5.7143
20
29.2857
0
VERTEX
8
CUT
10
3.4286
20
29.2857
0
VERTEX
8
CUT
10
3.4286
20
31.5714
0
SEQEND
0
POLYLINE
8
CUT
66
1
70
0
0
VERTEX
8
CUT
10
16
20
35
0
VERTEX
8
CUT
10
16
20
28.1429
0
VERTEX
8
CUT
10
9.1429
20
28.1429
0
VERTEX
8
CUT
10
9.1429
20
32.7143
0
VERTEX
8
CUT
10
13.7143
20
32.7143
0
VERTEX
8
CUT
10
13.7143
20
30.4286
0
VERTEX
8
CUT
10
11.4286
20
30.4286
0
SEQEND
0
POLYLINE
8
CUT
66
1
70
0
0
VERTEX
8
CUT
10
8
20
27
0
VERTEX
8
CUT
10
8
20
33.8571
0
VERTEX
8
CUT
10
14.8571
20
33.8571
0
VERTEX
8
CUT
10
14.8571
20
29.2857
0
VERTEX
8
CUT
10
10.2857
20
29.2857
0
VERTEX
8
CUT
10
10.2857
20
31.5714
0
VERTEX
8
CUT
10
12.5714
20
31.5714
0
SEQEND
0
POLYLINE
8
CUT
66
1
70
0
0
VERTEX
8
CUT
10
16
20
35
0
VERTEX
8
CUT
10
22.8571
20
35
0
VERTEX
8
CUT
10
22.8571
20
28.1429
0
VERTEX
8
CUT
10
18.2857
20
28.1429
0
VERTEX
8
CUT
10
18.2857
20
32.7143
0
VERTEX
8
CUT
10
20.5714
20
32.7143
0
VERTEX
8
CUT
10
20.5714
20
30.4286
0
SEQEND
0
POLYLINE
8
CUT
66
1
70
0
0
VERTEX
8
CUT
10
24
20
27
0
VERTEX
8
CUT
10
17.1429
20
27
0
VERTEX
8
CUT
10
17.1429
20
33.8571
0
VERTEX
8
CUT
10
21.7143
20
33.8571
0
VERTEX
8
CUT
10
21.7143
20
29.2857
0
VERTEX
8
CUT
10
19.4286
20
29.2857
0
VERTEX
8
CUT
10
19.4286
20
31.5714
0
SEQEND
0
POLYLINE
8
CUT
66
1
70
0
0
VERTEX
8
CUT
10
32
20
35
0
VERTEX
8
CUT
10
32
20
28.1429
0
VERTEX
8
CUT
10
25.1429
20
28.1429
0
VERTEX
8
CUT
10
25.1429
20
32.7143
0
VERTEX
8
CUT
10
29.7143
20
32.7143
0
VERTEX
8
CUT
10
29.7143
20
30.4286
0
VERTEX
8
CUT
10
27.4286
20
30.4286
0
SEQEND
0
POLYLINE
8
CUT
66
1
70
0
0
VERTEX
8
CUT
10
24
20
27
0
VERTEX
8
CUT
10
24
20
33.8571
0
VERTEX
8
CUT
10
30.8571
20
33.8571
0
VERTEX
8
CUT
10
30.8571
20
29.2857
0
VERTEX
8
CUT
10
26.2857
20
29.2857
0
VERTEX
8
CUT
10
26.2857
20
31.5714
0
VERTEX
8
CUT
10
28.5714
20
31.5714
0
SEQEND
0
POLYLINE
8
CUT
66
1
70
0
0
VERTEX
8
CUT
10
32
20
35
0
VERTEX
8
CUT
10
38.8571
20
35
0
VERTEX
8
CUT
10
38.8571
20
28.1429
0
VERTEX
8
CUT
10
34.2857
20
28.1429
0
VERTEX
8
CUT
10
34.2857
20
32.7143
0
VERTEX
8
CUT
10
36.5714
20
32.7143
0
VERTEX
8
CUT
10
36.5714
20
30.4286
0
SEQEND
0
POLYLINE
8
CUT
66
1
70
0
0
VERTEX
8
CUT
10
40
20
27
0
VERTEX
8
CUT
10
33.1429
20
27
0
VERTEX
8
CUT
10
33.1429
20
33.8571
0
VERTEX
8
CUT
10
37.7143
20
33.8571
0
VERTEX
8
CUT
10
37.7143
20
29.2857
0
VERTEX
8
CUT
10
35.4286
20
29.2857
0
VERTEX
8
CUT
10
35.4286
20
31.5714
0
SEQEND
0
POLYLINE
8
CUT
66
1
70
0
0
VERTEX
8
CUT
10
48
20
35
0
VERTEX
8
CUT
10
48
20
28.1429
0
VERTEX
8
CUT
10
41.1429
20
28.1429
0
VERTEX
8
CUT
10
41.1429
20
32.7143
0
VERTEX
8
CUT
10
45.7143
20
32.7143
0
VERTEX
8
CUT
10
45.7143
20
30.4286
0
VERTEX
8
CUT
10
43.4286
20
30.4286
0
SEQEND
0
POLYLINE
8
CUT
66
1
70
0
0
VERTEX
8
CUT
10
40
20
27
0
VERTEX
8
CUT
10
40
20
33.8571
0
VERTEX
8
CUT
10
46.8571
20
33.8571
0
VERTEX
8
CUT
10
46.8571
20
29.2857
0
VERTEX
8
CUT
10
42.2857
20
29.2857
0
VERTEX
8
CUT
10
42.2857
20
31.5714
0
VERTEX
8
CUT
10
44.5714
20
31.5714
0
SEQEND
0
POLYLINE
8
CUT
66
1
70
0
0
VERTEX
8
CUT
10
48
20
35
0
VERTEX
8
CUT
10
54.8571
20
35
0
VERTEX
8
CUT
10
54.8571
20
28.1429
0
VERTEX
8
CUT
10
50.2857
20
28.1429
0
VERTEX
8
CUT
10
50.2857
20
32.7143
0
VERTEX
8
CUT
10
52.5714
20
32.7143
0
VERTEX
8
CUT
10
52.5714
20
30.4286
0
SEQEND
0
POLYLINE
8
CUT
66
1
70
0
0
VERTEX
8
CUT
10
56
20
27
0
VERTEX
8
CUT
10
49.1429
20
27
0
VERTEX
8
CUT
10
49.1429
20
33.8571
0
VERTEX
8
CUT
10
53.7143
20
33.8571
0
VERTEX
8
CUT
10
53.7143
20
29.2857
0
VERTEX
8
CUT
10
51.4286
20
29.2857
0
VERTEX
8
CUT
10
51.4286
20
31.5714
0
SEQEND
0
POLYLINE
8
CUT
66
1
70
0
0
VERTEX
8
CUT
10
64
20
35
0
VERTEX
8
CUT
10
64
20
28.1429
0
VERTEX
8
CUT
10
57.1429
20
28.1429
0
VERTEX
8
CUT
10
57.1429
20
32.7143
0
VERTEX
8
CUT
10
61.7143
20
32.7143
0
VERTEX
8
CUT
10
61.7143
20
30.4286
0
VERTEX
8
CUT
10
59.4286
20
30.4286
0
SEQEND
0
POLYLINE
8
CUT
66
1
70
0
0
VERTEX
8
CUT
10
56
20
27
0
VERTEX
8
CUT
10
56
20
33.8571
0
VERTEX
8
CUT
10
62.8571
20
33.8571
0
VERTEX
8
CUT
10
62.8571
20
29.2857
0
VERTEX
8
CUT
10
58.2857
20
29.2857
0
VERTEX
8
CUT
10
58.2857
20
31.5714
0
VERTEX
8
CUT
10
60.5714
20
31.5714
0
SEQEND
0
POLYLINE
8
CUT
66
1
70
0
0
VERTEX
8
CUT
10
64
20
35
0
VERTEX
8
CUT
10
70.8571
20
35
0
VERTEX
8
CUT
10
70.8571
20
28.1429
0
VERTEX
8
CUT
10
66.2857
20
28.1429
0
VERTEX
8
CUT
10
66.2857
20
32.7143
0
VERTEX
8
CUT
10
68.5714
20
32.7143
0
VERTEX
8
CUT
10
68.5714
20
30.4286
0
SEQEND
0
POLYLINE
8
CUT
66
1
70
0
0
VERTEX
8
CUT
10
72
20
27
0
VERTEX
8
CUT
10
65.1429
20
27
0
VERTEX
8
CUT
10
65.1429
20
33.8571
0
VERTEX
8
CUT
10
69.7143
20
33.8571
0
VERTEX
8
CUT
10
69.7143
20
29.2857
0
VERTEX
8
CUT
10
67.4286
20
29.2857
0
VERTEX
8
CUT
10
67.4286
20
31.5714
0
SEQEND
0
POLYLINE
8
CUT
66
1
70
0
0
VERTEX
8
CUT
10
80
20
35
0
VERTEX
8
CUT
10
80
20
28.1429
0
VERTEX
8
CUT
10
73.1429
20
28.1429
0
VERTEX
8
CUT
10
73.1429
20
32.7143
0
VERTEX
8
CUT
10
77.7143
20
32.7143
0
VERTEX
8
CUT
10
77.7143
20
30.4286
0
VERTEX
8
CUT
10
75.4286
20
30.4286
0
SEQEND
0
POLYLINE
8
CUT
66
1
70
0
0
VERTEX
8
CUT
10
72
20
27
0
VERTEX
8
CUT
10
72
20
33.8571
0
VERTEX
8
CUT
10
78.8571
20
33.8571
0
VERTEX
8
CUT
10
78.8571
20
29.2857
0
VERTEX
8
CUT
10
74.2857
20
29.2857
0
VERTEX
8
CUT
10
74.2857
20
31.5714
0
VERTEX
8
CUT
10
76.5714
20
31.5714
0
SEQEND
0
POLYLINE
8
CUT
66
1
70
0
0
VERTEX
8
CUT
10
80
20
35
0
VERTEX
8
CUT
10
86.8571
20
35
0
VERTEX
8
CUT
10
86.8571
20
28.1429
0
VERTEX
8
CUT
10
82.2857
20
28.1429
0
VERTEX
8
CUT
10
82.2857
20
32.7143
0
VERTEX
8
CUT
10
84.5714
20
32.7143
0
VERTEX
8
CUT
10
84.5714
20
30.4286
0
SEQEND
0
POLYLINE
8
CUT
66
1
70
0
0
VERTEX
8
CUT
10
88
20
27
0
VERTEX
8
CUT
10
81.1429
20
27
0
VERTEX
8
CUT
10
81.1429
20
33.8571
0
VERTEX
8
CUT
10
85.7143
20
33.8571
0
VERTEX
8
CUT
10
85.7143
20
29.2857
0
VERTEX
8
CUT
10
83.4286
20
29.2857
0
VERTEX
8
CUT
10
83.4286
20
31.5714
0
SEQEND
0
POLYLINE
8
CUT
66
1
70
0
0
VERTEX
8
CUT
10
96
20
35
0
VERTEX
8
CUT
10
96
20
28.1429
0
VERTEX
8
CUT
10
89.1429
20
28.1429
0
VERTEX
8
CUT
10
89.1429
20
32.7143
0
VERTEX
8
CUT
10
93.7143
20
32.7143
0
VERTEX
8
CUT
10
93.7143
20
30.4286
0
VERTEX
8
CUT
10
91.4286
20
30.4286
0
SEQEND
0
POLYLINE
8
CUT
66
1
70
0
0
VERTEX
8
CUT
10
88
20
27
0
VERTEX
8
CUT
10
88
20
33.8571
0
VERTEX
8
CUT
10
94.8571
20
33.8571
0
VERTEX
8
CUT
10
94.8571
20
29.2857
0
VERTEX
8
CUT
10
90.2857
20
29.2857
0
VERTEX
8
CUT
10
90.2857
20
31.5714
0
VERTEX
8
CUT
10
92.5714
20
31.5714
0
SEQEND
0
POLYLINE
8
CUT
66
1
70
0
0
VERTEX
8
CUT
10
96
20
35
0
VERTEX
8
CUT
10
102.8571
20
35
0
VERTEX
8
CUT
10
102.8571
20
28.1429
0
VERTEX
8
CUT
10
98.2857
20
28.1429
0
VERTEX
8
CUT
10
98.2857
20
32.7143
0
VERTEX
8
CUT
10
100.5714
20
32.7143
0
VERTEX
8
CUT
10
100.5714
20
30.4286
0
SEQEND
0
POLYLINE
8
CUT
66
1
70
0
0
VERTEX
8
CUT
10
104
20
27
0
VERTEX
8
CUT
10
97.1429
20
27
0
VERTEX
8
CUT
10
97.1429
20
33.8571
0
VERTEX
8
CUT
10
101.7143
20
33.8571
0
VERTEX
8
CUT
10
101.7143
20
29.2857
0
VERTEX
8
CUT
10
99.4286
20
29.2857
0
VERTEX
8
CUT
10
99.4286
20
31.5714
0
SEQEND
0
POLYLINE
8
CUT
66
1
70
0
0
VERTEX
8
CUT
10
112
20
35
0
VERTEX
8
CUT
10
112
20
28.1429
0
VERTEX
8
CUT
10
105.1429
20
28.1429
0
VERTEX
8
CUT
10
105.1429
20
32.7143
0
VERTEX
8
CUT
10
109.7143
20
32.7143
0
VERTEX
8
CUT
10
109.7143
20
30.4286
0
VERTEX
8
CUT
10
107.4286
20
30.4286
0
SEQEND
0
POLYLINE
8
CUT
66
1
70
0
0
VERTEX
8
CUT
10
104
20
27
0
VERTEX
8
CUT
10
104
20
33.8571
0
VERTEX
8
CUT
10
110.8571
20
33.8571
0
VERTEX
8
CUT
10
110.8571
20
29.2857
0
VERTEX
8
CUT
10
106.2857
20
29.2857
0
VERTEX
8
CUT
10
106.2857
20
31.5714
0
VERTEX
8
CUT
10
108.5714
20
31.5714
0
SEQEND
0
POLYLINE
8
CUT
66
1
70
0
0
VERTEX
8
CUT
10
112
20
35
0
VERTEX
8
CUT
10
118.8571
20
35
0
VERTEX
8
CUT
10
118.8571
20
28.1429
0
VERTEX
8
CUT
10
114.2857
20
28.1429
0
VERTEX
8
CUT
10
114.2857
20
32.7143
0
VERTEX
8
CUT
10
116.5714
20
32.7143
0
VERTEX
8
CUT
10
116.5714
20
30.4286
0
SEQEND
0
POLYLINE
8
CUT
66
1
70
0
0
VERTEX
8
CUT
10
120
20
27
0
VERTEX
8
CUT
10
113.1429
20
27
0
VERTEX
8
CUT
10
113.1429
20
33.8571
0
VERTEX
8
CUT
10
117.7143
20
33.8571
0
VERTEX
8
CUT
10
117.7143
20
29.2857
0
VERTEX
8
CUT
10
115.4286
20
29.2857
0
VERTEX
8
CUT
10
115.4286
20
31.5714
0
SEQEND
0
POLYLINE
8
CUT
66
1
70
0
0
VERTEX
8
CUT
10
8
20
27
0
VERTEX
8
CUT
10
8
20
20.1429
0
VERTEX
8
CUT
10
1.1429
20
20.1429
0
VERTEX
8
CUT
10
1.1429
20
24.7143
0
VERTEX
8
CUT
10
5.7143
20
24.7143
0
VERTEX
8
CUT
10
5.7143
20
22.4286
0
VERTEX
8
CUT
10
3.4286
20
22.4286
0
SEQEND
0
POLYLINE
8
CUT
66
1
70
0
0
VERTEX
8
CUT
10
0
20
19
0
VERTEX
8
CUT
10
0
20
25.8571
0
VERTEX
8
CUT
10
6.8571
20
25.8571
0
VERTEX
8
CUT
10
6.8571
20
21.2857
0
VERTEX
8
CUT
10
2.2857
20
21.2857
0
VERTEX
8
CUT
10
2.2857
20
23.5714
0
VERTEX
8
CUT
10
4.5714
20
23.5714
0
SEQEND
0
POLYLINE
8
CUT
66
1
70
0
0
VERTEX
8
CUT
10
8
20
27
0
VERTEX
8
CUT
10
14.8571
20
27
0
VERTEX
8
CUT
10
14.8571
20
20.1429
0
VERTEX
8
CUT
10
10.2857
20
20.1429
0
VERTEX
8
CUT
10
10.2857
20
24.7143
0
VERTEX
8
CUT
10
12.5714
20
24.7143
0
VERTEX
8
CUT
10
12.5714
20
22.4286
0
SEQEND
0
POLYLINE
8
CUT
66
1
70
0
0
VERTEX
8
CUT
10
16
20
19
0
VERTEX
8
CUT
10
9.1429
20
19
0
VERTEX
8
CUT
10
9.1429
20
25.8571
0
VERTEX
8
CUT
10
13.7143
20
25.8571
0
VERTEX
8
CUT
10
13.7143
20
21.2857
0
VERTEX
8
CUT
10
11.4286
20
21.2857
0
VERTEX
8
CUT
10
11.4286
20
23.5714
0
SEQEND
0
POLYLINE
8
CUT
66
1
70
0
0
VERTEX
8
CUT
10
24
20
27
0
VERTEX
8
CUT
10
24
20
20.1429
0
VERTEX
8
CUT
10
17.1429
20
20.1429
0
VERTEX
8
CUT
10
17.1429
20
24.7143
0
VERTEX
8
CUT
10
21.7143
20
24.7143
0
VERTEX
8
CUT
10
21.7143
20
22.4286
0
VERTEX
8
CUT
10
19.4286
20
22.4286
0
SEQEND
0
POLYLINE
8
CUT
66
1
70
0
0
VERTEX
8
CUT
10
16
20
19
0
VERTEX
8
CUT
10
16
20
25.8571
0
VERTEX
8
CUT
10
22.8571
20
25.8571
0
VERTEX
8
CUT
10
22.8571
20
21.2857
0
VERTEX
8
CUT
10
18.2857
20
21.2857
0
VERTEX
8
CUT
10
18.2857
20
23.5714
0
VERTEX
8
CUT
10
20.5714
20
23.5714
0
SEQEND
0
POLYLINE
8
CUT
66
1
70
0
0
VERTEX
8
CUT
10
24
20
27
0
VERTEX
8
CUT
10
30.8571
20
27
0
VERTEX
8
CUT
10
30.8571
20
20.1429
0
VERTEX
8
CUT
10
26.2857
20
20.1429
0
VERTEX
8
CUT
10
26.2857
20
24.7143
0
VERTEX
8
CUT
10
28.5714
20
24.7143
0
VERTEX
8
CUT
10
28.5714
20
22.4286
0
SEQEND
0
POLYLINE
8
CUT
66
1
70
0
0
VERTEX
8
CUT
10
32
20
19
0
VERTEX
8
CUT
10
25.1429
20
19
0
VERTEX
8
CUT
10
25.1429
20
25.8571
0
VERTEX
8
CUT
10
29.7143
20
25.8571
0
VERTEX
8
CUT
10
29.7143
20
21.2857
0
VERTEX
8
CUT
10
27.4286
20
21.2857
0
VERTEX
8
CUT
10
27.4286
20
23.5714
0
SEQEND
0
POLYLINE
8
CUT
66
1
70
0
0
VERTEX
8
CUT
10
40
20
27
0
VERTEX
8
CUT
10
40
20
20.1429
0
VERTEX
8
CUT
10
33.1429
20
20.1429
0
VERTEX
8
CUT
10
33.1429
20
24.7143
0
VERTEX
8
CUT
10
37.7143
20
24.7143
0
VERTEX
8
CUT
10
37.7143
20
22.4286
0
VERTEX
8
CUT
10
35.4286
20
22.4286
0
SEQEND
0
POLYLINE
8
CUT
66
1
70
0
0
VERTEX
8
CUT
10
32
20
19
0
VERTEX
8
CUT
10
32
20
25.8571
0
VERTEX
8
CUT
10
38.8571
20
25.8571
0
VERTEX
8
CUT
10
38.8571
20
21.2857
0
VERTEX
8
CUT
10
34.2857
20
21.2857
0
VERTEX
8
CUT
10
34.2857
20
23.5714
0
VERTEX
8
CUT
10
36.5714
20
23.5714
0
SEQEND
0
POLYLINE
8
CUT
66
1
70
0
0
VERTEX
8
CUT
10
40
20
27
0
VERTEX
8
CUT
10
46.8571
20
27
0
VERTEX
8
CUT
10
46.8571
20
20.1429
0
VERTEX
8
CUT
10
42.2857
20
20.1429
0
VERTEX
8
CUT
10
42.2857
20
24.7143
0
VERTEX
8
CUT
10
44.5714
20
24.7143
0
VERTEX
8
CUT
10
44.5714
20
22.4286
0
SEQEND
0
POLYLINE
8
CUT
66
1
70
0
0
VERTEX
8
CUT
10
48
20
19
0
VERTEX
8
CUT
10
41.1429
20
19
0
VERTEX
8
CUT
10
41.1429
20
25.8571
0
VERTEX
8
CUT
10
45.7143
20
25.8571
0
VERTEX
8
CUT
10
45.7143
20
21.2857
0
VERTEX
8
CUT
10
43.4286
20
21.2857
0
VERTEX
8
CUT
10
43.4286
20
23.5714
0
SEQEND
0
POLYLINE
8
CUT
66
1
70
0
0
VERTEX
8
CUT
10
56
20
27
0
VERTEX
8
CUT
10
56
20
20.1429
0
VERTEX
8
CUT
10
49.1429
20
20.1429
0
VERTEX
8
CUT
10
49.1429
20
24.7143
0
VERTEX
8
CUT
10
53.7143
20
24.7143
0
VERTEX
8
CUT
10
53.7143
20
22.4286
0
VERTEX
8
CUT
10
51.4286
20
22.4286
0
SEQEND
0
POLYLINE
8
CUT
66
1
70
0
0
VERTEX
8
CUT
10
48
20
19
0
VERTEX
8
CUT
10
48
20
25.8571
0
VERTEX
8
CUT
10
54.8571
20
25.8571
0
VERTEX
8
CUT
10
54.8571
20
21.2857
0
VERTEX
8
CUT
10
50.2857
20
21.2857
0
VERTEX
8
CUT
10
50.2857
20
23.5714
0
VERTEX
8
CUT
10
52.5714
20
23.5714
0
SEQEND
0
POLYLINE
8
CUT
66
1
70
0
0
VERTEX
8
CUT
10
56
20
27
0
VERTEX
8
CUT
10
62.8571
20
27
0
VERTEX
8
CUT
10
62.8571
20
20.1429
0
VERTEX
8
CUT
10
58.2857
20
20.1429
0
VERTEX
8
CUT
10
58.2857
20
24.7143
0
VERTEX
8
CUT
10
60.5714
20
24.7143
0
VERTEX
8
CUT
10
60.5714
20
22.4286
0
SEQEND
0
POLYLINE
8
CUT
66
1
70
0
0
VERTEX
8
CUT
10
64
20
19
0
VERTEX
8
CUT
10
57.1429
20
19
0
VERTEX
8
CUT
10
57.1429
20
25.8571
0
VERTEX
8
CUT
10
61.7143
20
25.8571
0
VERTEX
8
CUT
10
61.7143
20
21.2857
0
VERTEX
8
CUT
10
59.4286
20
21.2857
0
VERTEX
8
CUT
10
59.4286
20
23.5714
0
SEQEND
0
POLYLINE
8
CUT
66
1
70
0
0
VERTEX
8
CUT
10
72
20
27
0
VERTEX
8
CUT
10
72
20
20.1429
0
VERTEX
8
CUT
10
65.1429
20
20.1429
0
VERTEX
8
CUT
10
65.1429
20
24.7143
0
VERTEX
8
CUT
10
69.7143
20
24.7143
0
VERTEX
8
CUT
10
69.7143
20
22.4286
0
VERTEX
8
CUT
10
67.4286
20
22.4286
0
SEQEND
0
POLYLINE
8
CUT
66
1
70
0
0
VERTEX
8
CUT
10
64
20
19
0
VERTEX
8
CUT
10
64
20
25.8571
0
VERTEX
8
CUT
10
70.8571
20
25.8571
0
VERTEX
8
CUT
10
70.8571
20
21.2857
0
VERTEX
8
CUT
10
66.2857
20
21.2857
0
VERTEX
8
CUT
10
66.2857
20
23.5714
0
VERTEX
8
CUT
10
68.5714
20
23.5714
0
SEQEND
0
POLYLINE
8
CUT
66
1
70
0
0
VERTEX
8
CUT
10
72
20
27
0
VERTEX
8
CUT
10
78.8571
20
27
0
VERTEX
8
CUT
10
78.8571
20
20.1429
0
VERTEX
8
CUT
10
74.2857
20
20.1429
0
VERTEX
8
CUT
10
74.2857
20
24.7143
0
VERTEX
8
CUT
10
76.5714
20
24.7143
0
VERTEX
8
CUT
10
76.5714
20
22.4286
0
SEQEND
0
POLYLINE
8
CUT
66
1
70
0
0
VERTEX
8
CUT
10
80
20
19
0
VERTEX
8
CUT
10
73.1429
20
19
0
VERTEX
8
CUT
10
73.1429
20
25.8571
0
VERTEX
8
CUT
10
77.7143
20
25.8571
0
VERTEX
8
CUT
10
77.7143
20
21.2857
0
VERTEX
8
CUT
10
75.4286
20
21.2857
0
VERTEX
8
CUT
10
75.4286
20
23.5714
0
SEQEND
0
POLYLINE
8
CUT
66
1
70
0
0
VERTEX
8
CUT
10
88
20
27
0
VERTEX
8
CUT
10
88
20
20.1429
0
VERTEX
8
CUT
10
81.1429
20
20.1429
0
VERTEX
8
CUT
10
81.1429
20
24.7143
0
VERTEX
8
CUT
10
85.7143
20
24.7143
0
VERTEX
8
CUT
10
85.7143
20
22.4286
0
VERTEX
8
CUT
10
83.4286
20
22.4286
0
SEQEND
0
POLYLINE
8
CUT
66
1
70
0
0
VERTEX
8
CUT
10
80
20
19
0
VERTEX
8
CUT
10
80
20
25.8571
0
VERTEX
8
CUT
10
86.8571
20
25.8571
0
VERTEX
8
CUT
10
86.8571
20
21.2857
0
VERTEX
8
CUT
10
82.2857
20
21.2857
0
VERTEX
8
CUT
10
82.2857
20
23.5714
0
VERTEX
8
CUT
10
84.5714
20
23.5714
0
SEQEND
0
POLYLINE
8
CUT
66
1
70
0
0
VERTEX
8
CUT
10
88
20
27
0
VERTEX
8
CUT
10
94.8571
20
27
0
VERTEX
8
CUT
10
94.8571
20
20.1429
0
VERTEX
8
CUT
10
90.2857
20
20.1429
0
VERTEX
8
CUT
10
90.2857
20
24.7143
0
VERTEX
8
CUT
10
92.5714
20
24.7143
0
VERTEX
8
CUT
10
92.5714
20
22.4286
0
SEQEND
0
POLYLINE
8
CUT
66
1
70
0
0
VERTEX
8
CUT
10
96
20
19
0
VERTEX
8
CUT
10
89.1429
20
19
0
VERTEX
8
CUT
10
89.1429
20
25.8571
0
VERTEX
8
CUT
10
93.7143
20
25.8571
0
VERTEX
8
CUT
10
93.7143
20
21.2857
0
VERTEX
8
CUT
10
91.4286
20
21.2857
0
VERTEX
8
CUT
10
91.4286
20
23.5714
0
SEQEND
0
POLYLINE
8
CUT
66
1
70
0
0
VERTEX
8
CUT
10
104
20
27
0
VERTEX
8
CUT
10
104
20
20.1429
0
VERTEX
8
CUT
10
97.1429
20
20.1429
0
VERTEX
8
CUT
10
97.1429
20
24.7143
0
VERTEX
8
CUT
10
101.7143
20
24.7143
0
VERTEX
8
CUT
10
101.7143
20
22.4286
0
VERTEX
8
CUT
10
99.4286
20
22.4286
0
SEQEND
0
POLYLINE
8
CUT
66
1
70
0
0
VERTEX
8
CUT
10
96
20
19
0
VERTEX
8
CUT
10
96
20
25.8571
0
VERTEX
8
CUT
10
102.8571
20
25.8571
0
VERTEX
8
CUT
10
102.8571
20
21.2857
0
VERTEX
8
CUT
10
98.2857
20
21.2857
0
VERTEX
8
CUT
10
98.2857
20
23.5714
0
VERTEX
8
CUT
10
100.5714
20
23.5714
0
SEQEND
0
POLYLINE
8
CUT
66
1
70
0
0
VERTEX
8
CUT
10
104
20
27
0
VERTEX
8
CUT
10
110.8571
20
27
0
VERTEX
8
CUT
10
110.8571
20
20.1429
0
VERTEX
8
CUT
10
106.2857
20
20.1429
0
VERTEX
8
CUT
10
106.2857
20
24.7143
0
VERTEX
8
CUT
10
108.5714
20
24.7143
0
VERTEX
8
CUT
10
108.5714
20
22.4286
0
SEQEND
0
POLYLINE
8
CUT
66
1
70
0
0
VERTEX
8
CUT
10
112
20
19
0
VERTEX
8
CUT
10
105.1429
20
19
0
VERTEX
8
CUT
10
105.1429
20
25.8571
0
VERTEX
8
CUT
10
109.7143
20
25.8571
0
VERTEX
8
CUT
10
109.7143
20
21.2857
0
VERTEX
8
CUT
10
107.4286
20
21.2857
0
VERTEX
8
CUT
10
107.4286
20
23.5714
0
SEQEND
0
POLYLINE
8
CUT
66
1
70
0
0
VERTEX
8
CUT
10
120
20
27
0
VERTEX
8
CUT
10
120
20
20.1429
0
VERTEX
8
CUT
10
113.1429
20
20.1429
0
VERTEX
8
CUT
10
113.1429
20
24.7143
0
VERTEX
8
CUT
10
117.7143
20
24.7143
0
VERTEX
8
CUT
10
117.7143
20
22.4286
0
VERTEX
8
CUT
10
115.4286
20
22.4286
0
SEQEND
0
POLYLINE
8
CUT
66
1
70
0
0
VERTEX
8
CUT
10
112
20
19
0
VERTEX
8
CUT
10
112
20
25.8571
0
VERTEX
8
CUT
10
118.8571
20
25.8571
0
VERTEX
8
CUT
10
118.8571
20
21.2857
0
VERTEX
8
CUT
10
114.2857
20
21.2857
0
VERTEX
8
CUT
10
114.2857
20
23.5714
0
VERTEX
8
CUT
10
116.5714
20
23.5714
0
SEQEND
0
POLYLINE
8
CUT
66
1
70
0
0
VERTEX
8
CUT
10
0
20
19
0
VERTEX
8
CUT
10
6.8571
20
19
0
VERTEX
8
CUT
10
6.8571
20
12.1429
0
VERTEX
8
CUT
10
2.2857
20
12.1429
0
VERTEX
8
CUT
10
2.2857
20
16.7143
0
VERTEX
8
CUT
10
4.5714
20
16.7143
0
VERTEX
8
CUT
10
4.5714
20
14.4286
0
SEQEND
0
POLYLINE
8
CUT
66
1
70
0
0
VERTEX
8
CUT
10
8
20
11
0
VERTEX
8
CUT
10
1.1429
20
11
0
VERTEX
8
CUT
10
1.1429
20
17.8571
0
VERTEX
8
CUT
10
5.7143
20
17.8571
0
VERTEX
8
CUT
10
5.7143
20
13.2857
0
VERTEX
8
CUT
10
3.4286
20
13.2857
0
VERTEX
8
CUT
10
3.4286
20
15.5714
0
SEQEND
0
POLYLINE
8
CUT
66
1
70
0
0
VERTEX
8
CUT
10
16
20
19
0
VERTEX
8
CUT
10
16
20
12.1429
0
VERTEX
8
CUT
10
9.1429
20
12.1429
0
VERTEX
8
CUT
10
9.1429
20
16.7143
0
VERTEX
8
CUT
10
13.7143
20
16.7143
0
VERTEX
8
CUT
10
13.7143
20
14.4286
0
VERTEX
8
CUT
10
11.4286
20
14.4286
0
SEQEND
0
POLYLINE
8
CUT
66
1
70
0
0
VERTEX
8
CUT
10
8
20
11
0
VERTEX
8
CUT
10
8
20
17.8571
0
VERTEX
8
CUT
10
14.8571
20
17.8571
0
VERTEX
8
CUT
10
14.8571
20
13.2857
0
VERTEX
8
CUT
10
10.2857
20
13.2857
0
VERTEX
8
CUT
10
10.2857
20
15.5714
0
VERTEX
8
CUT
10
12.5714
20
15.5714
0
SEQEND
0
POLYLINE
8
CUT
66
1
70
0
0
VERTEX
8
CUT
10
16
20
19
0
VERTEX
8
CUT
10
22.8571
20
19
0
VERTEX
8
CUT
10
22.8571
20
12.1429
0
VERTEX
8
CUT
10
18.2857
20
12.1429
0
VERTEX
8
CUT
10
18.2857
20
16.7143
0
VERTEX
8
CUT
10
20.5714
20
16.7143
0
VERTEX
8
CUT
10
20.5714
20
14.4286
0
SEQEND
0
POLYLINE
8
CUT
66
1
70
0
0
VERTEX
8
CUT
10
24
20
11
0
VERTEX
8
CUT
10
17.1429
20
11
0
VERTEX
8
CUT
10
17.1429
20
17.8571
0
VERTEX
8
CUT
10
21.7143
20
17.8571
0
VERTEX
8
CUT
10
21.7143
20
13.2857
0
VERTEX
8
CUT
10
19.4286
20
13.2857
0
VERTEX
8
CUT
10
19.4286
20
15.5714
0
SEQEND
0
POLYLINE
8
CUT
66
1
70
0
0
VERTEX
8
CUT
10
32
20
19
0
VERTEX
8
CUT
10
32
20
12.1429
0
VERTEX
8
CUT
10
25.1429
20
12.1429
0
VERTEX
8
CUT
10
25.1429
20
16.7143
0
VERTEX
8
CUT
10
29.7143
20
16.7143
0
VERTEX
8
CUT
10
29.7143
20
14.4286
0
VERTEX
8
CUT
10
27.4286
20
14.4286
0
SEQEND
0
POLYLINE
8
CUT
66
1
70
0
0
VERTEX
8
CUT
10
24
20
11
0
VERTEX
8
CUT
10
24
20
17.8571
0
VERTEX
8
CUT
10
30.8571
20
17.8571
0
VERTEX
8
CUT
10
30.8571
20
13.2857
0
VERTEX
8
CUT
10
26.2857
20
13.2857
0
VERTEX
8
CUT
10
26.2857
20
15.5714
0
VERTEX
8
CUT
10
28.5714
20
15.5714
0
SEQEND
0
POLYLINE
8
CUT
66
1
70
0
0
VERTEX
8
CUT
10
32
20
19
0
VERTEX
8
CUT
10
38.8571
20
19
0
VERTEX
8
CUT
10
38.8571
20
12.1429
0
VERTEX
8
CUT
10
34.2857
20
12.1429
0
VERTEX
8
CUT
10
34.2857
20
16.7143
0
VERTEX
8
CUT
10
36.5714
20
16.7143
0
VERTEX
8
CUT
10
36.5714
20
14.4286
0
SEQEND
0
POLYLINE
8
CUT
66
1
70
0
0
VERTEX
8
CUT
10
40
20
11
0
VERTEX
8
CUT
10
33.1429
20
11
0
VERTEX
8
CUT
10
33.1429
20
17.8571
0
VERTEX
8
CUT
10
37.7143
20
17.8571
0
VERTEX
8
CUT
10
37.7143
20
13.2857
0
VERTEX
8
CUT
10
35.4286
20
13.2857
0
VERTEX
8
CUT
10
35.4286
20
15.5714
0
SEQEND
0
POLYLINE
8
CUT
66
1
70
0
0
VERTEX
8
CUT
10
48
20
19
0
VERTEX
8
CUT
10
48
20
12.1429
0
VERTEX
8
CUT
10
41.1429
20
12.1429
0
VERTEX
8
CUT
10
41.1429
20
16.7143
0
VERTEX
8
CUT
10
45.7143
20
16.7143
0
VERTEX
8
CUT
10
45.7143
20
14.4286
0
VERTEX
8
CUT
10
43.4286
20
14.4286
0
SEQEND
0
POLYLINE
8
CUT
66
1
70
0
0
VERTEX
8
CUT
10
40
20
11
0
VERTEX
8
CUT
10
40
20
17.8571
0
VERTEX
8
CUT
10
46.8571
20
17.8571
0
VERTEX
8
CUT
10
46.8571
20
13.2857
0
VERTEX
8
CUT
10
42.2857
20
13.2857
0
VERTEX
8
CUT
10
42.2857
20
15.5714
0
VERTEX
8
CUT
10
44.5714
20
15.5714
0
SEQEND
0
POLYLINE
8
CUT
66
1
70
0
0
VERTEX
8
CUT
10
48
20
19
0
VERTEX
8
CUT
10
54.8571
20
19
0
VERTEX
8
CUT
10
54.8571
20
12.1429
0
VERTEX
8
CUT
10
50.2857
20
12.1429
0
VERTEX
8
CUT
10
50.2857
20
16.7143
0
VERTEX
8
CUT
10
52.5714
20
16.7143
0
VERTEX
8
CUT
10
52.5714
20
14.4286
0
SEQEND
0
POLYLINE
8
CUT
66
1
70
0
0
VERTEX
8
CUT
10
56
20
11
0
VERTEX
8
CUT
10
49.1429
20
11
0
VERTEX
8
CUT
10
49.1429
20
17.8571
0
VERTEX
8
CUT
10
53.7143
20
17.8571
0
VERTEX
8
CUT
10
53.7143
20
13.2857
0
VERTEX
8
CUT
10
51.4286
20
13.2857
0
VERTEX
8
CUT
10
51.4286
20
15.5714
0
SEQEND
0
POLYLINE
8
CUT
66
1
70
0
0
VERTEX
8
CUT
10
64
20
19
0
VERTEX
8
CUT
10
64
20
12.1429
0
VERTEX
8
CUT
10
57.1429
20
12.1429
0
VERTEX
8
CUT
10
57.1429
20
16.7143
0
VERTEX
8
CUT
10
61.7143
20
16.7143
0
VERTEX
8
CUT
10
61.7143
20
14.4286
0
VERTEX
8
CUT
10
59.4286
20
14.4286
0
SEQEND
0
POLYLINE
8
CUT
66
1
70
0
0
VERTEX
8
CUT
10
56
20
11
0
VERTEX
8
CUT
10
56
20
17.8571
0
VERTEX
8
CUT
10
62.8571
20
17.8571
0
VERTEX
8
CUT
10
62.8571
20
13.2857
0
VERTEX
8
CUT
10
58.2857
20
13.2857
0
VERTEX
8
CUT
10
58.2857
20
15.5714
0
VERTEX
8
CUT
10
60.5714
20
15.5714
0
SEQEND
0
POLYLINE
8
CUT
66
1
70
0
0
VERTEX
8
CUT
10
64
20
19
0
VERTEX
8
CUT
10
70.8571
20
19
0
VERTEX
8
CUT
10
70.8571
20
12.1429
0
VERTEX
8
CUT
10
66.2857
20
12.1429
0
VERTEX
8
CUT
10
66.2857
20
16.7143
0
VERTEX
8
CUT
10
68.5714
20
16.7143
0
VERTEX
8
CUT
10
68.5714
20
14.4286
0
SEQEND
0
POLYLINE
8
CUT
66
1
70
0
0
VERTEX
8
CUT
10
72
20
11
0
VERTEX
8
CUT
10
65.1429
20
11
0
VERTEX
8
CUT
10
65.1429
20
17.8571
0
VERTEX
8
CUT
10
69.7143
20
17.8571
0
VERTEX
8
CUT
10
69.7143
20
13.2857
0
VERTEX
8
CUT
10
67.4286
20
13.2857
0
VERTEX
8
CUT
10
67.4286
20
15.5714
0
SEQEND
0
POLYLINE
8
CUT
66
1
70
0
0
VERTEX
8
CUT
10
80
20
19
0
VERTEX
8
CUT
10
80
20
12.1429
0
VERTEX
8
CUT
10
73.1429
20
12.1429
0
VERTEX
8
CUT
10
73.1429
20
16.7143
0
VERTEX
8
CUT
10
77.7143
20
16.7143
0
VERTEX
8
CUT
10
77.7143
20
14.4286
0
VERTEX
8
CUT
10
75.4286
20
14.4286
0
SEQEND
0
POLYLINE
8
CUT
66
1
70
0
0
VERTEX
8
CUT
10
72
20
11
0
VERTEX
8
CUT
10
72
20
17.8571
0
VERTEX
8
CUT
10
78.8571
20
17.8571
0
VERTEX
8
CUT
10
78.8571
20
13.2857
0
VERTEX
8
CUT
10
74.2857
20
13.2857
0
VERTEX
8
CUT
10
74.2857
20
15.5714
0
VERTEX
8
CUT
10
76.5714
20
15.5714
0
SEQEND
0
POLYLINE
8
CUT
66
1
70
0
0
VERTEX
8
CUT
10
80
20
19
0
VERTEX
8
CUT
10
86.8571
20
19
0
VERTEX
8
CUT
10
86.8571
20
12.1429
0
VERTEX
8
CUT
10
82.2857
20
12.1429
0
VERTEX
8
CUT
10
82.2857
20
16.7143
0
VERTEX
8
CUT
10
84.5714
20
16.7143
0
VERTEX
8
CUT
10
84.5714
20
14.4286
0
SEQEND
0
POLYLINE
8
CUT
66
1
70
0
0
VERTEX
8
CUT
10
88
20
11
0
VERTEX
8
CUT
10
81.1429
20
11
0
VERTEX
8
CUT
10
81.1429
20
17.8571
0
VERTEX
8
CUT
10
85.7143
20
17.8571
0
VERTEX
8
CUT
10
85.7143
20
13.2857
0
VERTEX
8
CUT
10
83.4286
20
13.2857
0
VERTEX
8
CUT
10
83.4286
20
15.5714
0
SEQEND
0
POLYLINE
8
CUT
66
1
70
0
0
VERTEX
8
CUT
10
96
20
19
0
VERTEX
8
CUT
10
96
20
12.1429
0
VERTEX
8
CUT
10
89.1429
20
12.1429
0
VERTEX
8
CUT
10
89.1429
20
16.7143
0
VERTEX
8
CUT
10
93.7143
20
16.7143
0
VERTEX
8
CUT
10
93.7143
20
14.4286
0
VERTEX
8
CUT
10
91.4286
20
14.4286
0
SEQEND
0
POLYLINE
8
CUT
66
1
70
0
0
VERTEX
8
CUT
10
88
20
11
0
VERTEX
8
CUT
10
88
20
17.8571
0
VERTEX
8
CUT
10
94.8571
20
17.8571
0
VERTEX
8
CUT
10
94.8571
20
13.2857
0
VERTEX
8
CUT
10
90.2857
20
13.2857
0
VERTEX
8
CUT
10
90.2857
20
15.5714
0
VERTEX
8
CUT
10
92.5714
20
15.5714
0
SEQEND
0
POLYLINE
8
CUT
66
1
70
0
0
VERTEX
8
CUT
10
96
20
19
0
VERTEX
8
CUT
10
102.8571
20
19
0
VERTEX
8
CUT
10
102.8571
20
12.1429
0
VERTEX
8
CUT
10
98.2857
20
12.1429
0
VERTEX
8
CUT
10
98.2857
20
16.7143
0
VERTEX
8
CUT
10
100.5714
20
16.7143
0
VERTEX
8
CUT
10
100.5714
20
14.4286
0
SEQEND
0
POLYLINE
8
CUT
66
1
70
0
0
VERTEX
8
CUT
10
104
20
11
0
VERTEX
8
CUT
10
97.1429
20
11
0
VERTEX
8
CUT
10
97.1429
20
17.8571
0
VERTEX
8
CUT
10
101.7143
20
17.8571
0
VERTEX
8
CUT
10
101.7143
20
13.2857
0
VERTEX
8
CUT
10
99.4286
20
13.2857
0
VERTEX
8
CUT
10
99.4286
20
15.5714
0
SEQEND
0
POLYLINE
8
CUT
66
1
70
0
0
VERTEX
8
CUT
10
112
20
19
0
VERTEX
8
CUT
10
112
20
12.1429
0
VERTEX
8
CUT
10
105.1429
20
12.1429
0
VERTEX
8
CUT
10
105.1429
20
16.7143
0
VERTEX
8
CUT
10
109.7143
20
16.7143
0
VERTEX
8
CUT
10
109.7143
20
14.4286
0
VERTEX
8
CUT
10
107.4286
20
14.4286
0
SEQEND
0
POLYLINE
8
CUT
66
1
70
0
0
VERTEX
8
CUT
10
104
20
11
0
VERTEX
8
CUT
10
104
20
17.8571
0
VERTEX
8
CUT
10
110.8571
20
17.8571
0
VERTEX
8
CUT
10
110.8571
20
13.2857
0
VERTEX
8
CUT
10
106.2857
20
13.2857
0
VERTEX
8
CUT
10
106.2857
20
15.5714
0
VERTEX
8
CUT
10
108.5714
20
15.5714
0
SEQEND
0
POLYLINE
8
CUT
66
1
70
0
0
VERTEX
8
CUT
10
112
20
19
0
VERTEX
8
CUT
10
118.8571
20
19
0
VERTEX
8
CUT
10
118.8571
20
12.1429
0
VERTEX
8
CUT
10
114.2857
20
12.1429
0
VERTEX
8
CUT
10
114.2857
20
16.7143
0
VERTEX
8
CUT
10
116.5714
20
16.7143
0
VERTEX
8
CUT
10
116.5714
20
14.4286
0
SEQEND
0
POLYLINE
8
CUT
66
1
70
0
0
VERTEX
8
CUT
10
120
20
11
0
VERTEX
8
CUT
10
113.1429
20
11
0
VERTEX
8
CUT
10
113.1429
20
17.8571
0
VERTEX
8
CUT
10
117.7143
20
17.8571
0
VERTEX
8
CUT
10
117.7143
20
13.2857
0
VERTEX
8
CUT
10
115.4286
20
13.2857
0
VERTEX
8
CUT
10
115.4286
20
15.5714
0
SEQEND
0
POLYLINE
8
CUT
66
1
70
0
0
VERTEX
8
CUT
10
8
20
11
0
VERTEX
8
CUT
10
8
20
4.1429
0
VERTEX
8
CUT
10
1.1429
20
4.1429
0
VERTEX
8
CUT
10
1.1429
20
8.7143
0
VERTEX
8
CUT
10
5.7143
20
8.7143
0
VERTEX
8
CUT
10
5.7143
20
6.4286
0
VERTEX
8
CUT
10
3.4286
20
6.4286
0
SEQEND
0
POLYLINE
8
CUT
66
1
70
0
0
VERTEX
8
CUT
10
0
20
3
0
VERTEX
8
CUT
10
0
20
9.8571
0
VERTEX
8
CUT
10
6.8571
20
9.8571
0
VERTEX
8
CUT
10
6.8571
20
5.2857
0
VERTEX
8
CUT
10
2.2857
20
5.2857
0
VERTEX
8
CUT
10
2.2857
20
7.5714
0
VERTEX
8
CUT
10
4.5714
20
7.5714
0
SEQEND
0
POLYLINE
8
CUT
66
1
70
0
0
VERTEX
8
CUT
10
8
20
11
0
VERTEX
8
CUT
10
14.8571
20
11
0
VERTEX
8
CUT
10
14.8571
20
4.1429
0
VERTEX
8
CUT
10
10.2857
20
4.1429
0
VERTEX
8
CUT
10
10.2857
20
8.7143
0
VERTEX
8
CUT
10
12.5714
20
8.7143
0
VERTEX
8
CUT
10
12.5714
20
6.4286
0
SEQEND
0
POLYLINE
8
CUT
66
1
70
0
0
VERTEX
8
CUT
10
16
20
3
0
VERTEX
8
CUT
10
9.1429
20
3
0
VERTEX
8
CUT
10
9.1429
20
9.8571
0
VERTEX
8
CUT
10
13.7143
20
9.8571
0
VERTEX
8
CUT
10
13.7143
20
5.2857
0
VERTEX
8
CUT
10
11.4286
20
5.2857
0
VERTEX
8
CUT
10
11.4286
20
7.5714
0
SEQEND
0
POLYLINE
8
CUT
66
1
70
0
0
VERTEX
8
CUT
10
24
20
11
0
VERTEX
8
CUT
10
24
20
4.1429
0
VERTEX
8
CUT
10
17.1429
20
4.1429
0
VERTEX
8
CUT
10
17.1429
20
8.7143
0
VERTEX
8
CUT
10
21.7143
20
8.7143
0
VERTEX
8
CUT
10
21.7143
20
6.4286
0
VERTEX
8
CUT
10
19.4286
20
6.4286
0
SEQEND
0
POLYLINE
8
CUT
66
1
70
0
0
VERTEX
8
CUT
10
16
20
3
0
VERTEX
8
CUT
10
16
20
9.8571
0
VERTEX
8
CUT
10
22.8571
20
9.8571
0
VERTEX
8
CUT
10
22.8571
20
5.2857
0
VERTEX
8
CUT
10
18.2857
20
5.2857
0
VERTEX
8
CUT
10
18.2857
20
7.5714
0
VERTEX
8
CUT
10
20.5714
20
7.5714
0
SEQEND
0
POLYLINE
8
CUT
66
1
70
0
0
VERTEX
8
CUT
10
24
20
11
0
VERTEX
8
CUT
10
30.8571
20
11
0
VERTEX
8
CUT
10
30.8571
20
4.1429
0
VERTEX
8
CUT
10
26.2857
20
4.1429
0
VERTEX
8
CUT
10
26.2857
20
8.7143
0
VERTEX
8
CUT
10
28.5714
20
8.7143
0
VERTEX
8
CUT
10
28.5714
20
6.4286
0
SEQEND
0
POLYLINE
8
CUT
66
1
70
0
0
VERTEX
8
CUT
10
32
20
3
0
VERTEX
8
CUT
10
25.1429
20
3
0
VERTEX
8
CUT
10
25.1429
20
9.8571
0
VERTEX
8
CUT
10
29.7143
20
9.8571
0
VERTEX
8
CUT
10
29.7143
20
5.2857
0
VERTEX
8
CUT
10
27.4286
20
5.2857
0
VERTEX
8
CUT
10
27.4286
20
7.5714
0
SEQEND
0
POLYLINE
8
CUT
66
1
70
0
0
VERTEX
8
CUT
10
40
20
11
0
VERTEX
8
CUT
10
40
20
4.1429
0
VERTEX
8
CUT
10
33.1429
20
4.1429
0
VERTEX
8
CUT
10
33.1429
20
8.7143
0
VERTEX
8
CUT
10
37.7143
20
8.7143
0
VERTEX
8
CUT
10
37.7143
20
6.4286
0
VERTEX
8
CUT
10
35.4286
20
6.4286
0
SEQEND
0
POLYLINE
8
CUT
66
1
70
0
0
VERTEX
8
CUT
10
32
20
3
0
VERTEX
8
CUT
10
32
20
9.8571
0
VERTEX
8
CUT
10
38.8571
20
9.8571
0
VERTEX
8
CUT
10
38.8571
20
5.2857
0
VERTEX
8
CUT
10
34.2857
20
5.2857
0
VERTEX
8
CUT
10
34.2857
20
7.5714
0
VERTEX
8
CUT
10
36.5714
20
7.5714
0
SEQEND
0
POLYLINE
8
CUT
66
1
70
0
0
VERTEX
8
CUT
10
40
20
11
0
VERTEX
8
CUT
10
46.8571
20
11
0
VERTEX
8
CUT
10
46.8571
20
4.1429
0
VERTEX
8
CUT
10
42.2857
20
4.1429
0
VERTEX
8
CUT
10
42.2857
20
8.7143
0
VERTEX
8
CUT
10
44.5714
20
8.7143
0
VERTEX
8
CUT
10
44.5714
20
6.4286
0
SEQEND
0
POLYLINE
8
CUT
66
1
70
0
0
VERTEX
8
CUT
10
48
20
3
0
VERTEX
8
CUT
10
41.1429
20
3
0
VERTEX
8
CUT
10
41.1429
20
9.8571
0
VERTEX
8
CUT
10
45.7143
20
9.8571
0
VERTEX
8
CUT
10
45.7143
20
5.2857
0
VERTEX
8
CUT
10
43.4286
20
5.2857
0
VERTEX
8
CUT
10
43.4286
20
7.5714
0
SEQEND
0
POLYLINE
8
CUT
66
1
70
0
0
VERTEX
8
CUT
10
56
20
11
0
VERTEX
8
CUT
10
56
20
4.1429
0
VERTEX
8
CUT
10
49.1429
20
4.1429
0
VERTEX
8
CUT
10
49.1429
20
8.7143
0
VERTEX
8
CUT
10
53.7143
20
8.7143
0
VERTEX
8
CUT
10
53.7143
20
6.4286
0
VERTEX
8
CUT
10
51.4286
20
6.4286
0
SEQEND
0
POLYLINE
8
CUT
66
1
70
0
0
VERTEX
8
CUT
10
48
20
3
0
VERTEX
8
CUT
10
48
20
9.8571
0
VERTEX
8
CUT
10
54.8571
20
9.8571
0
VERTEX
8
CUT
10
54.8571
20
5.2857
0
VERTEX
8
CUT
10
50.2857
20
5.2857
0
VERTEX
8
CUT
10
50.2857
20
7.5714
0
VERTEX
8
CUT
10
52.5714
20
7.5714
0
SEQEND
0
POLYLINE
8
CUT
66
1
70
0
0
VERTEX
8
CUT
10
56
20
11
0
VERTEX
8
CUT
10
62.8571
20
11
0
VERTEX
8
CUT
10
62.8571
20
4.1429
0
VERTEX
8
CUT
10
58.2857
20
4.1429
0
VERTEX
8
CUT
10
58.2857
20
8.7143
0
VERTEX
8
CUT
10
60.5714
20
8.7143
0
VERTEX
8
CUT
10
60.5714
20
6.4286
0
SEQEND
0
POLYLINE
8
CUT
66
1
70
0
0
VERTEX
8
CUT
10
64
20
3
0
VERTEX
8
CUT
10
57.1429
20
3
0
VERTEX
8
CUT
10
57.1429
20
9.8571
0
VERTEX
8
CUT
10
61.7143
20
9.8571
0
VERTEX
8
CUT
10
61.7143
20
5.2857
0
VERTEX
8
CUT
10
59.4286
20
5.2857
0
VERTEX
8
CUT
10
59.4286
20
7.5714
0
SEQEND
0
POLYLINE
8
CUT
66
1
70
0
0
VERTEX
8
CUT
10
72
20
11
0
VERTEX
8
CUT
10
72
20
4.1429
0
VERTEX
8
CUT
10
65.1429
20
4.1429
0
VERTEX
8
CUT
10
65.1429
20
8.7143
0
VERTEX
8
CUT
10
69.7143
20
8.7143
0
VERTEX
8
CUT
10
69.7143
20
6.4286
0
VERTEX
8
CUT
10
67.4286
20
6.4286
0
SEQEND
0
POLYLINE
8
CUT
66
1
70
0
0
VERTEX
8
CUT
10
64
20
3
0
VERTEX
8
CUT
10
64
20
9.8571
0
VERTEX
8
CUT
10
70.8571
20
9.8571
0
VERTEX
8
CUT
10
70.8571
20
5.2857
0
VERTEX
8
CUT
10
66.2857
20
5.2857
0
VERTEX
8
CUT
10
66.2857
20
7.5714
0
VERTEX
8
CUT
10
68.5714
20
7.5714
0
SEQEND
0
POLYLINE
8
CUT
66
1
70
0
0
VERTEX
8
CUT
10
72
20
11
0
VERTEX
8
CUT
10
78.8571
20
11
0
VERTEX
8
CUT
10
78.8571
20
4.1429
0
VERTEX
8
CUT
10
74.2857
20
4.1429
0
VERTEX
8
CUT
10
74.2857
20
8.7143
0
VERTEX
8
CUT
10
76.5714
20
8.7143
0
VERTEX
8
CUT
10
76.5714
20
6.4286
0
SEQEND
0
POLYLINE
8
CUT
66
1
70
0
0
VERTEX
8
CUT
10
80
20
3
0
VERTEX
8
CUT
10
73.1429
20
3
0
VERTEX
8
CUT
10
73.1429
20
9.8571
0
VERTEX
8
CUT
10
77.7143
20
9.8571
0
VERTEX
8
CUT
10
77.7143
20
5.2857
0
VERTEX
8
CUT
10
75.4286
20
5.2857
0
VERTEX
8
CUT
10
75.4286
20
7.5714
0
SEQEND
0
POLYLINE
8
CUT
66
1
70
0
0
VERTEX
8
CUT
10
88
20
11
0
VERTEX
8
CUT
10
88
20
4.1429
0
VERTEX
8
CUT
10
81.1429
20
4.1429
0
VERTEX
8
CUT
10
81.1429
20
8.7143
0
VERTEX
8
CUT
10
85.7143
20
8.7143
0
VERTEX
8
CUT
10
85.7143
20
6.4286
0
VERTEX
8
CUT
10
83.4286
20
6.4286
0
SEQEND
0
POLYLINE
8
CUT
66
1
70
0
0
VERTEX
8
CUT
10
80
20
3
0
VERTEX
8
CUT
10
80
20
9.8571
0
VERTEX
8
CUT
10
86.8571
20
9.8571
0
VERTEX
8
CUT
10
86.8571
20
5.2857
0
VERTEX
8
CUT
10
82.2857
20
5.2857
0
VERTEX
8
CUT
10
82.2857
20
7.5714
0
VERTEX
8
CUT
10
84.5714
20
7.5714
0
SEQEND
0
POLYLINE
8
CUT
66
1
70
0
0
VERTEX
8
CUT
10
88
20
11
0
VERTEX
8
CUT
10
94.8571
20
11
0
VERTEX
8
CUT
10
94.8571
20
4.1429
0
VERTEX
8
CUT
10
90.2857
20
4.1429
0
VERTEX
8
CUT
10
90.2857
20
8.7143
0
VERTEX
8
CUT
10
92.5714
20
8.7143
0
VERTEX
8
CUT
10
92.5714
20
6.4286
0
SEQEND
0
POLYLINE
8
CUT
66
1
70
0
0
VERTEX
8
CUT
10
96
20
3
0
VERTEX
8
CUT
10
89.1429
20
3
0
VERTEX
8
CUT
10
89.1429
20
9.8571
0
VERTEX
8
CUT
10
93.7143
20
9.8571
0
VERTEX
8
CUT
10
93.7143
20
5.2857
0
VERTEX
8
CUT
10
91.4286
20
5.2857
0
VERTEX
8
CUT
10
91.4286
20
7.5714
0
SEQEND
0
POLYLINE
8
CUT
66
1
70
0
0
VERTEX
8
CUT
10
104
20
11
0
VERTEX
8
CUT
10
104
20
4.1429
0
VERTEX
8
CUT
10
97.1429
20
4.1429
0
VERTEX
8
CUT
10
97.1429
20
8.7143
0
VERTEX
8
CUT
10
101.7143
20
8.7143
0
VERTEX
8
CUT
10
101.7143
20
6.4286
0
VERTEX
8
CUT
10
99.4286
20
6.4286
0
SEQEND
0
POLYLINE
8
CUT
66
1
70
0
0
VERTEX
8
CUT
10
96
20
3
0
VERTEX
8
CUT
10
96
20
9.8571
0
VERTEX
8
CUT
10
102.8571
20
9.8571
0
VERTEX
8
CUT
10
102.8571
20
5.2857
0
VERTEX
8
CUT
10
98.2857
20
5.2857
0
VERTEX
8
CUT
10
98.2857
20
7.5714
0
VERTEX
8
CUT
10
100.5714
20
7.5714
0
SEQEND
0
POLYLINE
8
CUT
66
1
70
0
0
VERTEX
8
CUT
10
104
20
11
0
VERTEX
8
CUT
10
110.8571
20
11
0
VERTEX
8
CUT
10
110.8571
20
4.1429
0
VERTEX
8
CUT
10
106.2857
20
4.1429
0
VERTEX
8
CUT
10
106.2857
20
8.7143
0
VERTEX
8
CUT
10
108.5714
20
8.7143
0
VERTEX
8
CUT
10
108.5714
20
6.4286
0
SEQEND
0
POLYLINE
8
CUT
66
1
70
0
0
VERTEX
8
CUT
10
112
20
3
0
VERTEX
8
CUT
10
105.1429
20
3
0
VERTEX
8
CUT
10
105.1429
20
9.8571
0
VERTEX
8
CUT
10
109.7143
20
9.8571
0
VERTEX
8
CUT
10
109.7143
20
5.2857
0
VERTEX
8
CUT
10
107.4286
20
5.2857
0
VERTEX
8
CUT
10
107.4286
20
7.5714
0
SEQEND
0
POLYLINE
8
CUT
66
1
70
0
0
VERTEX
8
CUT
10
120
20
11
0
VERTEX
8
CUT
10
120
20
4.1429
0
VERTEX
8
CUT
10
113.1429
20
4.1429
0
VERTEX
8
CUT
10
113.1429
20
8.7143
0
VERTEX
8
CUT
10
117.7143
20
8.7143
0
VERTEX
8
CUT
10
117.7143
20
6.4286
0
VERTEX
8
CUT
10
115.4286
20
6.4286
0
SEQEND
0
POLYLINE
8
CUT
66
1
70
0
0
VERTEX
8
CUT
10
112
20
3
0
VERTEX
8
CUT
10
112
20
9.8571
0
VERTEX
8
CUT
10
118.8571
20
9.8571
0
VERTEX
8
CUT
10
118.8571
20
5.2857
0
VERTEX
8
CUT
10
114.2857
20
5.2857
0
VERTEX
8
CUT
10
114.2857
20
7.5714
0
VERTEX
8
CUT
10
116.5714
20
7.5714
0
SEQEND
0
POLYLINE
8
CUT
66
1
70
0
0
VERTEX
8
CUT
10
0
20
70
0
VERTEX
8
CUT
10
120
20
70
0
VERTEX
8
CUT
10
120
20
0
0
VERTEX
8
CUT
10
0
20
0
0
VERTEX
8
CUT
10
0
20
70
0
SEQEND
0
ENDSEC
0
EOF
