0
SECTION
2
HEADER
9
$ACADVER
1
AC1009
9
$INSUNITS
70
4
0
ENDSEC
0
SECTION
2
TABLES
0
TABLE
2
LAYER
70
1
0
LAYER
2
CUT
70
0
62
1
6
CONTINUOUS
0
ENDTAB
0
ENDSEC
0
SECTION
2
ENTITIES
0
POLYLINE
8
CUT
66
1
70
0
0
VERTEX
8
CUT
10
0.8409
20
69.3416
0
VERTEX
8
CUT
10
0
20
67.8
0
VERTEX
8
CUT
10
0
20
61.2
0
VERTEX
8
CUT
10
0.8409
20
59.6584
0
SEQEND
0
POLYLINE
8
CUT
66
1
70
0
0
VERTEX
8
CUT
10
1.5591
20
69.3416
0
VERTEX
8
CUT
10
2.4
20
67.8
0
VERTEX
8
CUT
10
2.4
20
61.2
0
VERTEX
8
CUT
10
1.5591
20
59.6584
0
SEQEND
0
POLYLINE
8
CUT
66
1
70
0
0
VERTEX
8
CUT
10
0.8409
20
58.3416
0
VERTEX
8
CUT
10
0
20
56.8
0
VERTEX
8
CUT
10
0
20
50.2
0
VERTEX
8
CUT
10
0.8409
20
48.6584
0
SEQEND
0
POLYLINE
8
CUT
66
1
70
0
0
VERTEX
8
CUT
10
1.5591
20
58.3416
0
VERTEX
8
CUT
10
2.4
20
56.8
0
VERTEX
8
CUT
10
2.4
20
50.2
0
VERTEX
8
CUT
10
1.5591
20
48.6584
0
SEQEND
0
POLYLINE
8
CUT
66
1
70
0
0
VERTEX
8
CUT
10
0.8409
20
47.3416
0
VERTEX
8
CUT
10
0
20
45.8
0
VERTEX
8
CUT
10
0
20
39.2
0
VERTEX
8
CUT
10
0.8409
20
37.6584
0
SEQEND
0
POLYLINE
8
CUT
66
1
70
0
0
VERTEX
8
CUT
10
1.5591
20
47.3416
0
VERTEX
8
CUT
10
2.4
20
45.8
0
VERTEX
8
CUT
10
2.4
20
39.2
0
VERTEX
8
CUT
10
1.5591
20
37.6584
0
SEQEND
0
POLYLINE
8
CUT
66
1
70
0
0
VERTEX
8
CUT
10
0.8409
20
36.3416
0
VERTEX
8
CUT
10
0
20
34.8
0
VERTEX
8
CUT
10
0
20
28.2
0
VERTEX
8
CUT
10
0.8409
20
26.6584
0
SEQEND
0
POLYLINE
8
CUT
66
1
70
0
0
VERTEX
8
CUT
10
1.5591
20
36.3416
0
VERTEX
8
CUT
10
2.4
20
34.8
0
VERTEX
8
CUT
10
2.4
20
28.2
0
VERTEX
8
CUT
10
1.5591
20
26.6584
0
SEQEND
0
POLYLINE
8
CUT
66
1
70
0
0
VERTEX
8
CUT
10
0.8409
20
25.3416
0
VERTEX
8
CUT
10
0
20
23.8
0
VERTEX
8
CUT
10
0
20
17.2
0
VERTEX
8
CUT
10
0.8409
20
15.6584
0
SEQEND
0
POLYLINE
8
CUT
66
1
70
0
0
VERTEX
8
CUT
10
1.5591
20
25.3416
0
VERTEX
8
CUT
10
2.4
20
23.8
0
VERTEX
8
CUT
10
2.4
20
17.2
0
VERTEX
8
CUT
10
1.5591
20
15.6584
0
SEQEND
0
POLYLINE
8
CUT
66
1
70
0
0
VERTEX
8
CUT
10
0.8409
20
14.3416
0
VERTEX
8
CUT
10
0
20
12.8
0
VERTEX
8
CUT
10
0
20
6.2
0
VERTEX
8
CUT
10
0.8409
20
4.6584
0
SEQEND
0
POLYLINE
8
CUT
66
1
70
0
0
VERTEX
8
CUT
10
1.5591
20
14.3416
0
VERTEX
8
CUT
10
2.4
20
12.8
0
VERTEX
8
CUT
10
2.4
20
6.2
0
VERTEX
8
CUT
10
1.5591
20
4.6584
0
SEQEND
0
POLYLINE
8
CUT
66
1
70
0
0
VERTEX
8
CUT
10
0.8409
20
3.3416
0
VERTEX
8
CUT
10
0
20
1.8
0
VERTEX
8
CUT
10
0
20
0
0
SEQEND
0
POLYLINE
8
CUT
66
1
70
0
0
VERTEX
8
CUT
10
1.5591
20
3.3416
0
VERTEX
8
CUT
10
2.4
20
1.8
0
VERTEX
8
CUT
10
2.4
20
0
0
SEQEND
0
POLYLINE
8
CUT
66
1
70
0
0
VERTEX
8
CUT
10
3.3
20
70
0
VERTEX
8
CUT
10
3.3
20
66.7
0
VERTEX
8
CUT
10
4.1409
20
65.1584
0
SEQEND
0
POLYLINE
8
CUT
66
1
70
0
0
VERTEX
8
CUT
10
5.7
20
70
0
VERTEX
8
CUT
10
5.7
20
66.7
0
VERTEX
8
CUT
10
4.8591
20
65.1584
0
SEQEND
0
POLYLINE
8
CUT
66
1
70
0
0
VERTEX
8
CUT
10
4.1409
20
63.8416
0
VERTEX
8
CUT
10
3.3
20
62.3
0
VERTEX
8
CUT
10
3.3
20
55.7
0
VERTEX
8
CUT
10
4.1409
20
54.1584
0
SEQEND
0
POLYLINE
8
CUT
66
1
70
0
0
VERTEX
8
CUT
10
4.8591
20
63.8416
0
VERTEX
8
CUT
10
5.7
20
62.3
0
VERTEX
8
CUT
10
5.7
20
55.7
0
VERTEX
8
CUT
10
4.8591
20
54.1584
0
SEQEND
0
POLYLINE
8
CUT
66
1
70
0
0
VERTEX
8
CUT
10
4.1409
20
52.8416
0
VERTEX
8
CUT
10
3.3
20
51.3
0
VERTEX
8
CUT
10
3.3
20
44.7
0
VERTEX
8
CUT
10
4.1409
20
43.1584
0
SEQEND
0
POLYLINE
8
CUT
66
1
70
0
0
VERTEX
8
CUT
10
4.8591
20
52.8416
0
VERTEX
8
CUT
10
5.7
20
51.3
0
VERTEX
8
CUT
10
5.7
20
44.7
0
VERTEX
8
CUT
10
4.8591
20
43.1584
0
SEQEND
0
POLYLINE
8
CUT
66
1
70
0
0
VERTEX
8
CUT
10
4.1409
20
41.8416
0
VERTEX
8
CUT
10
3.3
20
40.3
0
VERTEX
8
CUT
10
3.3
20
33.7
0
VERTEX
8
CUT
10
4.1409
20
32.1584
0
SEQEND
0
POLYLINE
8
CUT
66
1
70
0
0
VERTEX
8
CUT
10
4.8591
20
41.8416
0
VERTEX
8
CUT
10
5.7
20
40.3
0
VERTEX
8
CUT
10
5.7
20
33.7
0
VERTEX
8
CUT
10
4.8591
20
32.1584
0
SEQEND
0
POLYLINE
8
CUT
66
1
70
0
0
VERTEX
8
CUT
10
4.1409
20
30.8416
0
VERTEX
8
CUT
10
3.3
20
29.3
0
VERTEX
8
CUT
10
3.3
20
22.7
0
VERTEX
8
CUT
10
4.1409
20
21.1584
0
SEQEND
0
POLYLINE
8
CUT
66
1
70
0
0
VERTEX
8
CUT
10
4.8591
20
30.8416
0
VERTEX
8
CUT
10
5.7
20
29.3
0
VERTEX
8
CUT
10
5.7
20
22.7
0
VERTEX
8
CUT
10
4.8591
20
21.1584
0
SEQEND
0
POLYLINE
8
CUT
66
1
70
0
0
VERTEX
8
CUT
10
4.1409
20
19.8416
0
VERTEX
8
CUT
10
3.3
20
18.3
0
VERTEX
8
CUT
10
3.3
20
11.7
0
VERTEX
8
CUT
10
4.1409
20
10.1584
0
SEQEND
0
POLYLINE
8
CUT
66
1
70
0
0
VERTEX
8
CUT
10
4.8591
20
19.8416
0
VERTEX
8
CUT
10
5.7
20
18.3
0
VERTEX
8
CUT
10
5.7
20
11.7
0
VERTEX
8
CUT
10
4.8591
20
10.1584
0
SEQEND
0
POLYLINE
8
CUT
66
1
70
0
0
VERTEX
8
CUT
10
4.1409
20
8.8416
0
VERTEX
8
CUT
10
3.3
20
7.3
0
VERTEX
8
CUT
10
3.3
20
0.7
0
VERTEX
8
CUT
10
3.6818
20
0
0
SEQEND
0
POLYLINE
8
CUT
66
1
70
0
0
VERTEX
8
CUT
10
4.8591
20
8.8416
0
VERTEX
8
CUT
10
5.7
20
7.3
0
VERTEX
8
CUT
10
5.7
20
0.7
0
VERTEX
8
CUT
10
5.3182
20
0
0
SEQEND
0
POLYLINE
8
CUT
66
1
70
0
0
VERTEX
8
CUT
10
7.4409
20
69.3416
0
VERTEX
8
CUT
10
6.6
20
67.8
0
VERTEX
8
CUT
10
6.6
20
61.2
0
VERTEX
8
CUT
10
7.4409
20
59.6584
0
SEQEND
0
POLYLINE
8
CUT
66
1
70
0
0
VERTEX
8
CUT
10
8.1591
20
69.3416
0
VERTEX
8
CUT
10
9
20
67.8
0
VERTEX
8
CUT
10
9
20
61.2
0
VERTEX
8
CUT
10
8.1591
20
59.6584
0
SEQEND
0
POLYLINE
8
CUT
66
1
70
0
0
VERTEX
8
CUT
10
7.4409
20
58.3416
0
VERTEX
8
CUT
10
6.6
20
56.8
0
VERTEX
8
CUT
10
6.6
20
50.2
0
VERTEX
8
CUT
10
7.4409
20
48.6584
0
SEQEND
0
POLYLINE
8
CUT
66
1
70
0
0
VERTEX
8
CUT
10
8.1591
20
58.3416
0
VERTEX
8
CUT
10
9
20
56.8
0
VERTEX
8
CUT
10
9
20
50.2
0
VERTEX
8
CUT
10
8.1591
20
48.6584
0
SEQEND
0
POLYLINE
8
CUT
66
1
70
0
0
VERTEX
8
CUT
10
7.4409
20
47.3416
0
VERTEX
8
CUT
10
6.6
20
45.8
0
VERTEX
8
CUT
10
6.6
20
39.2
0
VERTEX
8
CUT
10
7.4409
20
37.6584
0
SEQEND
0
POLYLINE
8
CUT
66
1
70
0
0
VERTEX
8
CUT
10
8.1591
20
47.3416
0
VERTEX
8
CUT
10
9
20
45.8
0
VERTEX
8
CUT
10
9
20
39.2
0
VERTEX
8
CUT
10
8.1591
20
37.6584
0
SEQEND
0
POLYLINE
8
CUT
66
1
70
0
0
VERTEX
8
CUT
10
7.4409
20
36.3416
0
VERTEX
8
CUT
10
6.6
20
34.8
0
VERTEX
8
CUT
10
6.6
20
28.2
0
VERTEX
8
CUT
10
7.4409
20
26.6584
0
SEQEND
0
POLYLINE
8
CUT
66
1
70
0
0
VERTEX
8
CUT
10
8.1591
20
36.3416
0
VERTEX
8
CUT
10
9
20
34.8
0
VERTEX
8
CUT
10
9
20
28.2
0
VERTEX
8
CUT
10
8.1591
20
26.6584
0
SEQEND
0
POLYLINE
8
CUT
66
1
70
0
0
VERTEX
8
CUT
10
7.4409
20
25.3416
0
VERTEX
8
CUT
10
6.6
20
23.8
0
VERTEX
8
CUT
10
6.6
20
17.2
0
VERTEX
8
CUT
10
7.4409
20
15.6584
0
SEQEND
0
POLYLINE
8
CUT
66
1
70
0
0
VERTEX
8
CUT
10
8.1591
20
25.3416
0
VERTEX
8
CUT
10
9
20
23.8
0
VERTEX
8
CUT
10
9
20
17.2
0
VERTEX
8
CUT
10
8.1591
20
15.6584
0
SEQEND
0
POLYLINE
8
CUT
66
1
70
0
0
VERTEX
8
CUT
10
7.4409
20
14.3416
0
VERTEX
8
CUT
10
6.6
20
12.8
0
VERTEX
8
CUT
10
6.6
20
6.2
0
VERTEX
8
CUT
10
7.4409
20
4.6584
0
SEQEND
0
POLYLINE
8
CUT
66
1
70
0
0
VERTEX
8
CUT
10
8.1591
20
14.3416
0
VERTEX
8
CUT
10
9
20
12.8
0
VERTEX
8
CUT
10
9
20
6.2
0
VERTEX
8
CUT
10
8.1591
20
4.6584
0
SEQEND
0
POLYLINE
8
CUT
66
1
70
0
0
VERTEX
8
CUT
10
7.4409
20
3.3416
0
VERTEX
8
CUT
10
6.6
20
1.8
0
VERTEX
8
CUT
10
6.6
20
0
0
SEQEND
0
POLYLINE
8
CUT
66
1
70
0
0
VERTEX
8
CUT
10
8.1591
20
3.3416
0
VERTEX
8
CUT
10
9
20
1.8
0
VERTEX
8
CUT
10
9
20
0
0
SEQEND
0
POLYLINE
8
CUT
66
1
70
0
0
VERTEX
8
CUT
10
9.9
20
70
0
VERTEX
8
CUT
10
9.9
20
66.7
0
VERTEX
8
CUT
10
10.7409
20
65.1584
0
SEQEND
0
POLYLINE
8
CUT
66
1
70
0
0
VERTEX
8
CUT
10
12.3
20
70
0
VERTEX
8
CUT
10
12.3
20
66.7
0
VERTEX
8
CUT
10
11.4591
20
65.1584
0
SEQEND
0
POLYLINE
8
CUT
66
1
70
0
0
VERTEX
8
CUT
10
10.7409
20
63.8416
0
VERTEX
8
CUT
10
9.9
20
62.3
0
VERTEX
8
CUT
10
9.9
20
55.7
0
VERTEX
8
CUT
10
10.7409
20
54.1584
0
SEQEND
0
POLYLINE
8
CUT
66
1
70
0
0
VERTEX
8
CUT
10
11.4591
20
63.8416
0
VERTEX
8
CUT
10
12.3
20
62.3
0
VERTEX
8
CUT
10
12.3
20
55.7
0
VERTEX
8
CUT
10
11.4591
20
54.1584
0
SEQEND
0
POLYLINE
8
CUT
66
1
70
0
0
VERTEX
8
CUT
10
10.7409
20
52.8416
0
VERTEX
8
CUT
10
9.9
20
51.3
0
VERTEX
8
CUT
10
9.9
20
44.7
0
VERTEX
8
CUT
10
10.7409
20
43.1584
0
SEQEND
0
POLYLINE
8
CUT
66
1
70
0
0
VERTEX
8
CUT
10
11.4591
20
52.8416
0
VERTEX
8
CUT
10
12.3
20
51.3
0
VERTEX
8
CUT
10
12.3
20
44.7
0
VERTEX
8
CUT
10
11.4591
20
43.1584
0
SEQEND
0
POLYLINE
8
CUT
66
1
70
0
0
VERTEX
8
CUT
10
10.7409
20
41.8416
0
VERTEX
8
CUT
10
9.9
20
40.3
0
VERTEX
8
CUT
10
9.9
20
33.7
0
VERTEX
8
CUT
10
10.7409
20
32.1584
0
SEQEND
0
POLYLINE
8
CUT
66
1
70
0
0
VERTEX
8
CUT
10
11.4591
20
41.8416
0
VERTEX
8
CUT
10
12.3
20
40.3
0
VERTEX
8
CUT
10
12.3
20
33.7
0
VERTEX
8
CUT
10
11.4591
20
32.1584
0
SEQEND
0
POLYLINE
8
CUT
66
1
70
0
0
VERTEX
8
CUT
10
10.7409
20
30.8416
0
VERTEX
8
CUT
10
9.9
20
29.3
0
VERTEX
8
CUT
10
9.9
20
22.7
0
VERTEX
8
CUT
10
10.7409
20
21.1584
0
SEQEND
0
POLYLINE
8
CUT
66
1
70
0
0
VERTEX
8
CUT
10
11.4591
20
30.8416
0
VERTEX
8
CUT
10
12.3
20
29.3
0
VERTEX
8
CUT
10
12.3
20
22.7
0
VERTEX
8
CUT
10
11.4591
20
21.1584
0
SEQEND
0
POLYLINE
8
CUT
66
1
70
0
0
VERTEX
8
CUT
10
10.7409
20
19.8416
0
VERTEX
8
CUT
10
9.9
20
18.3
0
VERTEX
8
CUT
10
9.9
20
11.7
0
VERTEX
8
CUT
10
10.7409
20
10.1584
0
SEQEND
0
POLYLINE
8
CUT
66
1
70
0
0
VERTEX
8
CUT
10
11.4591
20
19.8416
0
VERTEX
8
CUT
10
12.3
20
18.3
0
VERTEX
8
CUT
10
12.3
20
11.7
0
VERTEX
8
CUT
10
11.4591
20
10.1584
0
SEQEND
0
POLYLINE
8
CUT
66
1
70
0
0
VERTEX
8
CUT
10
10.7409
20
8.8416
0
VERTEX
8
CUT
10
9.9
20
7.3
0
VERTEX
8
CUT
10
9.9
20
0.7
0
VERTEX
8
CUT
10
10.2818
20
0
0
SEQEND
0
POLYLINE
8
CUT
66
1
70
0
0
VERTEX
8
CUT
10
11.4591
20
8.8416
0
VERTEX
8
CUT
10
12.3
20
7.3
0
VERTEX
8
CUT
10
12.3
20
0.7
0
VERTEX
8
CUT
10
11.9182
20
0
0
SEQEND
0
POLYLINE
8
CUT
66
1
70
0
0
VERTEX
8
CUT
10
14.0409
20
69.3416
0
VERTEX
8
CUT
10
13.2
20
67.8
0
VERTEX
8
CUT
10
13.2
20
61.2
0
VERTEX
8
CUT
10
14.0409
20
59.6584
0
SEQEND
0
POLYLINE
8
CUT
66
1
70
0
0
VERTEX
8
CUT
10
14.7591
20
69.3416
0
VERTEX
8
CUT
10
15.6
20
67.8
0
VERTEX
8
CUT
10
15.6
20
61.2
0
VERTEX
8
CUT
10
14.7591
20
59.6584
0
SEQEND
0
POLYLINE
8
CUT
66
1
70
0
0
VERTEX
8
CUT
10
14.0409
20
58.3416
0
VERTEX
8
CUT
10
13.2
20
56.8
0
VERTEX
8
CUT
10
13.2
20
50.2
0
VERTEX
8
CUT
10
14.0409
20
48.6584
0
SEQEND
0
POLYLINE
8
CUT
66
1
70
0
0
VERTEX
8
CUT
10
14.7591
20
58.3416
0
VERTEX
8
CUT
10
15.6
20
56.8
0
VERTEX
8
CUT
10
15.6
20
50.2
0
VERTEX
8
CUT
10
14.7591
20
48.6584
0
SEQEND
0
POLYLINE
8
CUT
66
1
70
0
0
VERTEX
8
CUT
10
14.0409
20
47.3416
0
VERTEX
8
CUT
10
13.2
20
45.8
0
VERTEX
8
CUT
10
13.2
20
39.2
0
VERTEX
8
CUT
10
14.0409
20
37.6584
0
SEQEND
0
POLYLINE
8
CUT
66
1
70
0
0
VERTEX
8
CUT
10
14.7591
20
47.3416
0
VERTEX
8
CUT
10
15.6
20
45.8
0
VERTEX
8
CUT
10
15.6
20
39.2
0
VERTEX
8
CUT
10
14.7591
20
37.6584
0
SEQEND
0
POLYLINE
8
CUT
66
1
70
0
0
VERTEX
8
CUT
10
14.0409
20
36.3416
0
VERTEX
8
CUT
10
13.2
20
34.8
0
VERTEX
8
CUT
10
13.2
20
28.2
0
VERTEX
8
CUT
10
14.0409
20
26.6584
0
SEQEND
0
POLYLINE
8
CUT
66
1
70
0
0
VERTEX
8
CUT
10
14.7591
20
36.3416
0
VERTEX
8
CUT
10
15.6
20
34.8
0
VERTEX
8
CUT
10
15.6
20
28.2
0
VERTEX
8
CUT
10
14.7591
20
26.6584
0
SEQEND
0
POLYLINE
8
CUT
66
1
70
0
0
VERTEX
8
CUT
10
14.0409
20
25.3416
0
VERTEX
8
CUT
10
13.2
20
23.8
0
VERTEX
8
CUT
10
13.2
20
17.2
0
VERTEX
8
CUT
10
14.0409
20
15.6584
0
SEQEND
0
POLYLINE
8
CUT
66
1
70
0
0
VERTEX
8
CUT
10
14.7591
20
25.3416
0
VERTEX
8
CUT
10
15.6
20
23.8
0
VERTEX
8
CUT
10
15.6
20
17.2
0
VERTEX
8
CUT
10
14.7591
20
15.6584
0
SEQEND
0
POLYLINE
8
CUT
66
1
70
0
0
VERTEX
8
CUT
10
14.0409
20
14.3416
0
VERTEX
8
CUT
10
13.2
20
12.8
0
VERTEX
8
CUT
10
13.2
20
6.2
0
VERTEX
8
CUT
10
14.0409
20
4.6584
0
SEQEND
0
POLYLINE
8
CUT
66
1
70
0
0
VERTEX
8
CUT
10
14.7591
20
14.3416
0
VERTEX
8
CUT
10
15.6
20
12.8
0
VERTEX
8
CUT
10
15.6
20
6.2
0
VERTEX
8
CUT
10
14.7591
20
4.6584
0
SEQEND
0
POLYLINE
8
CUT
66
1
70
0
0
VERTEX
8
CUT
10
14.0409
20
3.3416
0
VERTEX
8
CUT
10
13.2
20
1.8
0
VERTEX
8
CUT
10
13.2
20
0
0
SEQEND
0
POLYLINE
8
CUT
66
1
70
0
0
VERTEX
8
CUT
10
14.7591
20
3.3416
0
VERTEX
8
CUT
10
15.6
20
1.8
0
VERTEX
8
CUT
10
15.6
20
0
0
SEQEND
0
POLYLINE
8
CUT
66
1
70
0
0
VERTEX
8
CUT
10
16.5
20
70
0
VERTEX
8
CUT
10
16.5
20
66.7
0
VERTEX
8
CUT
10
17.3409
20
65.1584
0
SEQEND
0
POLYLINE
8
CUT
66
1
70
0
0
VERTEX
8
CUT
10
18.9
20
70
0
VERTEX
8
CUT
10
18.9
20
66.7
0
VERTEX
8
CUT
10
18.0591
20
65.1584
0
SEQEND
0
POLYLINE
8
CUT
66
1
70
0
0
VERTEX
8
CUT
10
17.3409
20
63.8416
0
VERTEX
8
CUT
10
16.5
20
62.3
0
VERTEX
8
CUT
10
16.5
20
55.7
0
VERTEX
8
CUT
10
17.3409
20
54.1584
0
SEQEND
0
POLYLINE
8
CUT
66
1
70
0
0
VERTEX
8
CUT
10
18.0591
20
63.8416
0
VERTEX
8
CUT
10
18.9
20
62.3
0
VERTEX
8
CUT
10
18.9
20
55.7
0
VERTEX
8
CUT
10
18.0591
20
54.1584
0
SEQEND
0
POLYLINE
8
CUT
66
1
70
0
0
VERTEX
8
CUT
10
17.3409
20
52.8416
0
VERTEX
8
CUT
10
16.5
20
51.3
0
VERTEX
8
CUT
10
16.5
20
44.7
0
VERTEX
8
CUT
10
17.3409
20
43.1584
0
SEQEND
0
POLYLINE
8
CUT
66
1
70
0
0
VERTEX
8
CUT
10
18.0591
20
52.8416
0
VERTEX
8
CUT
10
18.9
20
51.3
0
VERTEX
8
CUT
10
18.9
20
44.7
0
VERTEX
8
CUT
10
18.0591
20
43.1584
0
SEQEND
0
POLYLINE
8
CUT
66
1
70
0
0
VERTEX
8
CUT
10
17.3409
20
41.8416
0
VERTEX
8
CUT
10
16.5
20
40.3
0
VERTEX
8
CUT
10
16.5
20
33.7
0
VERTEX
8
CUT
10
17.3409
20
32.1584
0
SEQEND
0
POLYLINE
8
CUT
66
1
70
0
0
VERTEX
8
CUT
10
18.0591
20
41.8416
0
VERTEX
8
CUT
10
18.9
20
40.3
0
VERTEX
8
CUT
10
18.9
20
33.7
0
VERTEX
8
CUT
10
18.0591
20
32.1584
0
SEQEND
0
POLYLINE
8
CUT
66
1
70
0
0
VERTEX
8
CUT
10
17.3409
20
30.8416
0
VERTEX
8
CUT
10
16.5
20
29.3
0
VERTEX
8
CUT
10
16.5
20
22.7
0
VERTEX
8
CUT
10
17.3409
20
21.1584
0
SEQEND
0
POLYLINE
8
CUT
66
1
70
0
0
VERTEX
8
CUT
10
18.0591
20
30.8416
0
VERTEX
8
CUT
10
18.9
20
29.3
0
VERTEX
8
CUT
10
18.9
20
22.7
0
VERTEX
8
CUT
10
18.0591
20
21.1584
0
SEQEND
0
POLYLINE
8
CUT
66
1
70
0
0
VERTEX
8
CUT
10
17.3409
20
19.8416
0
VERTEX
8
CUT
10
16.5
20
18.3
0
VERTEX
8
CUT
10
16.5
20
11.7
0
VERTEX
8
CUT
10
17.3409
20
10.1584
0
SEQEND
0
POLYLINE
8
CUT
66
1
70
0
0
VERTEX
8
CUT
10
18.0591
20
19.8416
0
VERTEX
8
CUT
10
18.9
20
18.3
0
VERTEX
8
CUT
10
18.9
20
11.7
0
VERTEX
8
CUT
10
18.0591
20
10.1584
0
SEQEND
0
POLYLINE
8
CUT
66
1
70
0
0
VERTEX
8
CUT
10
17.3409
20
8.8416
0
VERTEX
8
CUT
10
16.5
20
7.3
0
VERTEX
8
CUT
10
16.5
20
0.7
0
VERTEX
8
CUT
10
16.8818
20
0
0
SEQEND
0
POLYLINE
8
CUT
66
1
70
0
0
VERTEX
8
CUT
10
18.0591
20
8.8416
0
VERTEX
8
CUT
10
18.9
20
7.3
0
VERTEX
8
CUT
10
18.9
20
0.7
0
VERTEX
8
CUT
10
18.5182
20
0
0
SEQEND
0
POLYLINE
8
CUT
66
1
70
0
0
VERTEX
8
CUT
10
20.6409
20
69.3416
0
VERTEX
8
CUT
10
19.8
20
67.8
0
VERTEX
8
CUT
10
19.8
20
61.2
0
VERTEX
8
CUT
10
20.6409
20
59.6584
0
SEQEND
0
POLYLINE
8
CUT
66
1
70
0
0
VERTEX
8
CUT
10
21.3591
20
69.3416
0
VERTEX
8
CUT
10
22.2
20
67.8
0
VERTEX
8
CUT
10
22.2
20
61.2
0
VERTEX
8
CUT
10
21.3591
20
59.6584
0
SEQEND
0
POLYLINE
8
CUT
66
1
70
0
0
VERTEX
8
CUT
10
20.6409
20
58.3416
0
VERTEX
8
CUT
10
19.8
20
56.8
0
VERTEX
8
CUT
10
19.8
20
50.2
0
VERTEX
8
CUT
10
20.6409
20
48.6584
0
SEQEND
0
POLYLINE
8
CUT
66
1
70
0
0
VERTEX
8
CUT
10
21.3591
20
58.3416
0
VERTEX
8
CUT
10
22.2
20
56.8
0
VERTEX
8
CUT
10
22.2
20
50.2
0
VERTEX
8
CUT
10
21.3591
20
48.6584
0
SEQEND
0
POLYLINE
8
CUT
66
1
70
0
0
VERTEX
8
CUT
10
20.6409
20
47.3416
0
VERTEX
8
CUT
10
19.8
20
45.8
0
VERTEX
8
CUT
10
19.8
20
39.2
0
VERTEX
8
CUT
10
20.6409
20
37.6584
0
SEQEND
0
POLYLINE
8
CUT
66
1
70
0
0
VERTEX
8
CUT
10
21.3591
20
47.3416
0
VERTEX
8
CUT
10
22.2
20
45.8
0
VERTEX
8
CUT
10
22.2
20
39.2
0
VERTEX
8
CUT
10
21.3591
20
37.6584
0
SEQEND
0
POLYLINE
8
CUT
66
1
70
0
0
VERTEX
8
CUT
10
20.6409
20
36.3416
0
VERTEX
8
CUT
10
19.8
20
34.8
0
VERTEX
8
CUT
10
19.8
20
28.2
0
VERTEX
8
CUT
10
20.6409
20
26.6584
0
SEQEND
0
POLYLINE
8
CUT
66
1
70
0
0
VERTEX
8
CUT
10
21.3591
20
36.3416
0
VERTEX
8
CUT
10
22.2
20
34.8
0
VERTEX
8
CUT
10
22.2
20
28.2
0
VERTEX
8
CUT
10
21.3591
20
26.6584
0
SEQEND
0
POLYLINE
8
CUT
66
1
70
0
0
VERTEX
8
CUT
10
20.6409
20
25.3416
0
VERTEX
8
CUT
10
19.8
20
23.8
0
VERTEX
8
CUT
10
19.8
20
17.2
0
VERTEX
8
CUT
10
20.6409
20
15.6584
0
SEQEND
0
POLYLINE
8
CUT
66
1
70
0
0
VERTEX
8
CUT
10
21.3591
20
25.3416
0
VERTEX
8
CUT
10
22.2
20
23.8
0
VERTEX
8
CUT
10
22.2
20
17.2
0
VERTEX
8
CUT
10
21.3591
20
15.6584
0
SEQEND
0
POLYLINE
8
CUT
66
1
70
0
0
VERTEX
8
CUT
10
20.6409
20
14.3416
0
VERTEX
8
CUT
10
19.8
20
12.8
0
VERTEX
8
CUT
10
19.8
20
6.2
0
VERTEX
8
CUT
10
20.6409
20
4.6584
0
SEQEND
0
POLYLINE
8
CUT
66
1
70
0
0
VERTEX
8
CUT
10
21.3591
20
14.3416
0
VERTEX
8
CUT
10
22.2
20
12.8
0
VERTEX
8
CUT
10
22.2
20
6.2
0
VERTEX
8
CUT
10
21.3591
20
4.6584
0
SEQEND
0
POLYLINE
8
CUT
66
1
70
0
0
VERTEX
8
CUT
10
20.6409
20
3.3416
0
VERTEX
8
CUT
10
19.8
20
1.8
0
VERTEX
8
CUT
10
19.8
20
0
0
SEQEND
0
POLYLINE
8
CUT
66
1
70
0
0
VERTEX
8
CUT
10
21.3591
20
3.3416
0
VERTEX
8
CUT
10
22.2
20
1.8
0
VERTEX
8
CUT
10
22.2
20
0
0
SEQEND
0
POLYLINE
8
CUT
66
1
70
0
0
VERTEX
8
CUT
10
23.1
20
70
0
VERTEX
8
CUT
10
23.1
20
66.7
0
VERTEX
8
CUT
10
23.9409
20
65.1584
0
SEQEND
0
POLYLINE
8
CUT
66
1
70
0
0
VERTEX
8
CUT
10
25.5
20
70
0
VERTEX
8
CUT
10
25.5
20
66.7
0
VERTEX
8
CUT
10
24.6591
20
65.1584
0
SEQEND
0
POLYLINE
8
CUT
66
1
70
0
0
VERTEX
8
CUT
10
23.9409
20
63.8416
0
VERTEX
8
CUT
10
23.1
20
62.3
0
VERTEX
8
CUT
10
23.1
20
55.7
0
VERTEX
8
CUT
10
23.9409
20
54.1584
0
SEQEND
0
POLYLINE
8
CUT
66
1
70
0
0
VERTEX
8
CUT
10
24.6591
20
63.8416
0
VERTEX
8
CUT
10
25.5
20
62.3
0
VERTEX
8
CUT
10
25.5
20
55.7
0
VERTEX
8
CUT
10
24.6591
20
54.1584
0
SEQEND
0
POLYLINE
8
CUT
66
1
70
0
0
VERTEX
8
CUT
10
23.9409
20
52.8416
0
VERTEX
8
CUT
10
23.1
20
51.3
0
VERTEX
8
CUT
10
23.1
20
44.7
0
VERTEX
8
CUT
10
23.9409
20
43.1584
0
SEQEND
0
POLYLINE
8
CUT
66
1
70
0
0
VERTEX
8
CUT
10
24.6591
20
52.8416
0
VERTEX
8
CUT
10
25.5
20
51.3
0
VERTEX
8
CUT
10
25.5
20
44.7
0
VERTEX
8
CUT
10
24.6591
20
43.1584
0
SEQEND
0
POLYLINE
8
CUT
66
1
70
0
0
VERTEX
8
CUT
10
23.9409
20
41.8416
0
VERTEX
8
CUT
10
23.1
20
40.3
0
VERTEX
8
CUT
10
23.1
20
33.7
0
VERTEX
8
CUT
10
23.9409
20
32.1584
0
SEQEND
0
POLYLINE
8
CUT
66
1
70
0
0
VERTEX
8
CUT
10
24.6591
20
41.8416
0
VERTEX
8
CUT
10
25.5
20
40.3
0
VERTEX
8
CUT
10
25.5
20
33.7
0
VERTEX
8
CUT
10
24.6591
20
32.1584
0
SEQEND
0
POLYLINE
8
CUT
66
1
70
0
0
VERTEX
8
CUT
10
23.9409
20
30.8416
0
VERTEX
8
CUT
10
23.1
20
29.3
0
VERTEX
8
CUT
10
23.1
20
22.7
0
VERTEX
8
CUT
10
23.9409
20
21.1584
0
SEQEND
0
POLYLINE
8
CUT
66
1
70
0
0
VERTEX
8
CUT
10
24.6591
20
30.8416
0
VERTEX
8
CUT
10
25.5
20
29.3
0
VERTEX
8
CUT
10
25.5
20
22.7
0
VERTEX
8
CUT
10
24.6591
20
21.1584
0
SEQEND
0
POLYLINE
8
CUT
66
1
70
0
0
VERTEX
8
CUT
10
23.9409
20
19.8416
0
VERTEX
8
CUT
10
23.1
20
18.3
0
VERTEX
8
CUT
10
23.1
20
11.7
0
VERTEX
8
CUT
10
23.9409
20
10.1584
0
SEQEND
0
POLYLINE
8
CUT
66
1
70
0
0
VERTEX
8
CUT
10
24.6591
20
19.8416
0
VERTEX
8
CUT
10
25.5
20
18.3
0
VERTEX
8
CUT
10
25.5
20
11.7
0
VERTEX
8
CUT
10
24.6591
20
10.1584
0
SEQEND
0
POLYLINE
8
CUT
66
1
70
0
0
VERTEX
8
CUT
10
23.9409
20
8.8416
0
VERTEX
8
CUT
10
23.1
20
7.3
0
VERTEX
8
CUT
10
23.1
20
0.7
0
VERTEX
8
CUT
10
23.4818
20
0
0
SEQEND
0
POLYLINE
8
CUT
66
1
70
0
0
VERTEX
8
CUT
10
24.6591
20
8.8416
0
VERTEX
8
CUT
10
25.5
20
7.3
0
VERTEX
8
CUT
10
25.5
20
0.7
0
VERTEX
8
CUT
10
25.1182
20
0
0
SEQEND
0
POLYLINE
8
CUT
66
1
70
0
0
VERTEX
8
CUT
10
27.2409
20
69.3416
0
VERTEX
8
CUT
10
26.4
20
67.8
0
VERTEX
8
CUT
10
26.4
20
61.2
0
VERTEX
8
CUT
10
27.2409
20
59.6584
0
SEQEND
0
POLYLINE
8
CUT
66
1
70
0
0
VERTEX
8
CUT
10
27.9591
20
69.3416
0
VERTEX
8
CUT
10
28.8
20
67.8
0
VERTEX
8
CUT
10
28.8
20
61.2
0
VERTEX
8
CUT
10
27.9591
20
59.6584
0
SEQEND
0
POLYLINE
8
CUT
66
1
70
0
0
VERTEX
8
CUT
10
27.2409
20
58.3416
0
VERTEX
8
CUT
10
26.4
20
56.8
0
VERTEX
8
CUT
10
26.4
20
50.2
0
VERTEX
8
CUT
10
27.2409
20
48.6584
0
SEQEND
0
POLYLINE
8
CUT
66
1
70
0
0
VERTEX
8
CUT
10
27.9591
20
58.3416
0
VERTEX
8
CUT
10
28.8
20
56.8
0
VERTEX
8
CUT
10
28.8
20
50.2
0
VERTEX
8
CUT
10
27.9591
20
48.6584
0
SEQEND
0
POLYLINE
8
CUT
66
1
70
0
0
VERTEX
8
CUT
10
27.2409
20
47.3416
0
VERTEX
8
CUT
10
26.4
20
45.8
0
VERTEX
8
CUT
10
26.4
20
39.2
0
VERTEX
8
CUT
10
27.2409
20
37.6584
0
SEQEND
0
POLYLINE
8
CUT
66
1
70
0
0
VERTEX
8
CUT
10
27.9591
20
47.3416
0
VERTEX
8
CUT
10
28.8
20
45.8
0
VERTEX
8
CUT
10
28.8
20
39.2
0
VERTEX
8
CUT
10
27.9591
20
37.6584
0
SEQEND
0
POLYLINE
8
CUT
66
1
70
0
0
VERTEX
8
CUT
10
27.2409
20
36.3416
0
VERTEX
8
CUT
10
26.4
20
34.8
0
VERTEX
8
CUT
10
26.4
20
28.2
0
VERTEX
8
CUT
10
27.2409
20
26.6584
0
SEQEND
0
POLYLINE
8
CUT
66
1
70
0
0
VERTEX
8
CUT
10
27.9591
20
36.3416
0
VERTEX
8
CUT
10
28.8
20
34.8
0
VERTEX
8
CUT
10
28.8
20
28.2
0
VERTEX
8
CUT
10
27.9591
20
26.6584
0
SEQEND
0
POLYLINE
8
CUT
66
1
70
0
0
VERTEX
8
CUT
10
27.2409
20
25.3416
0
VERTEX
8
CUT
10
26.4
20
23.8
0
VERTEX
8
CUT
10
26.4
20
17.2
0
VERTEX
8
CUT
10
27.2409
20
15.6584
0
SEQEND
0
POLYLINE
8
CUT
66
1
70
0
0
VERTEX
8
CUT
10
27.9591
20
25.3416
0
VERTEX
8
CUT
10
28.8
20
23.8
0
VERTEX
8
CUT
10
28.8
20
17.2
0
VERTEX
8
CUT
10
27.9591
20
15.6584
0
SEQEND
0
POLYLINE
8
CUT
66
1
70
0
0
VERTEX
8
CUT
10
27.2409
20
14.3416
0
VERTEX
8
CUT
10
26.4
20
12.8
0
VERTEX
8
CUT
10
26.4
20
6.2
0
VERTEX
8
CUT
10
27.2409
20
4.6584
0
SEQEND
0
POLYLINE
8
CUT
66
1
70
0
0
VERTEX
8
CUT
10
27.9591
20
14.3416
0
VERTEX
8
CUT
10
28.8
20
12.8
0
VERTEX
8
CUT
10
28.8
20
6.2
0
VERTEX
8
CUT
10
27.9591
20
4.6584
0
SEQEND
0
POLYLINE
8
CUT
66
1
70
0
0
VERTEX
8
CUT
10
27.2409
20
3.3416
0
VERTEX
8
CUT
10
26.4
20
1.8
0
VERTEX
8
CUT
10
26.4
20
0
0
SEQEND
0
POLYLINE
8
CUT
66
1
70
0
0
VERTEX
8
CUT
10
27.9591
20
3.3416
0
VERTEX
8
CUT
10
28.8
20
1.8
0
VERTEX
8
CUT
10
28.8
20
0
0
SEQEND
0
POLYLINE
8
CUT
66
1
70
0
0
VERTEX
8
CUT
10
29.7
20
70
0
VERTEX
8
CUT
10
29.7
20
66.7
0
VERTEX
8
CUT
10
30.5409
20
65.1584
0
SEQEND
0
POLYLINE
8
CUT
66
1
70
0
0
VERTEX
8
CUT
10
32.1
20
70
0
VERTEX
8
CUT
10
32.1
20
66.7
0
VERTEX
8
CUT
10
31.2591
20
65.1584
0
SEQEND
0
POLYLINE
8
CUT
66
1
70
0
0
VERTEX
8
CUT
10
30.5409
20
63.8416
0
VERTEX
8
CUT
10
29.7
20
62.3
0
VERTEX
8
CUT
10
29.7
20
55.7
0
VERTEX
8
CUT
10
30.5409
20
54.1584
0
SEQEND
0
POLYLINE
8
CUT
66
1
70
0
0
VERTEX
8
CUT
10
31.2591
20
63.8416
0
VERTEX
8
CUT
10
32.1
20
62.3
0
VERTEX
8
CUT
10
32.1
20
55.7
0
VERTEX
8
CUT
10
31.2591
20
54.1584
0
SEQEND
0
POLYLINE
8
CUT
66
1
70
0
0
VERTEX
8
CUT
10
30.5409
20
52.8416
0
VERTEX
8
CUT
10
29.7
20
51.3
0
VERTEX
8
CUT
10
29.7
20
44.7
0
VERTEX
8
CUT
10
30.5409
20
43.1584
0
SEQEND
0
POLYLINE
8
CUT
66
1
70
0
0
VERTEX
8
CUT
10
31.2591
20
52.8416
0
VERTEX
8
CUT
10
32.1
20
51.3
0
VERTEX
8
CUT
10
32.1
20
44.7
0
VERTEX
8
CUT
10
31.2591
20
43.1584
0
SEQEND
0
POLYLINE
8
CUT
66
1
70
0
0
VERTEX
8
CUT
10
30.5409
20
41.8416
0
VERTEX
8
CUT
10
29.7
20
40.3
0
VERTEX
8
CUT
10
29.7
20
33.7
0
VERTEX
8
CUT
10
30.5409
20
32.1584
0
SEQEND
0
POLYLINE
8
CUT
66
1
70
0
0
VERTEX
8
CUT
10
31.2591
20
41.8416
0
VERTEX
8
CUT
10
32.1
20
40.3
0
VERTEX
8
CUT
10
32.1
20
33.7
0
VERTEX
8
CUT
10
31.2591
20
32.1584
0
SEQEND
0
POLYLINE
8
CUT
66
1
70
0
0
VERTEX
8
CUT
10
30.5409
20
30.8416
0
VERTEX
8
CUT
10
29.7
20
29.3
0
VERTEX
8
CUT
10
29.7
20
22.7
0
VERTEX
8
CUT
10
30.5409
20
21.1584
0
SEQEND
0
POLYLINE
8
CUT
66
1
70
0
0
VERTEX
8
CUT
10
31.2591
20
30.8416
0
VERTEX
8
CUT
10
32.1
20
29.3
0
VERTEX
8
CUT
10
32.1
20
22.7
0
VERTEX
8
CUT
10
31.2591
20
21.1584
0
SEQEND
0
POLYLINE
8
CUT
66
1
70
0
0
VERTEX
8
CUT
10
30.5409
20
19.8416
0
VERTEX
8
CUT
10
29.7
20
18.3
0
VERTEX
8
CUT
10
29.7
20
11.7
0
VERTEX
8
CUT
10
30.5409
20
10.1584
0
SEQEND
0
POLYLINE
8
CUT
66
1
70
0
0
VERTEX
8
CUT
10
31.2591
20
19.8416
0
VERTEX
8
CUT
10
32.1
20
18.3
0
VERTEX
8
CUT
10
32.1
20
11.7
0
VERTEX
8
CUT
10
31.2591
20
10.1584
0
SEQEND
0
POLYLINE
8
CUT
66
1
70
0
0
VERTEX
8
CUT
10
30.5409
20
8.8416
0
VERTEX
8
CUT
10
29.7
20
7.3
0
VERTEX
8
CUT
10
29.7
20
0.7
0
VERTEX
8
CUT
10
30.0818
20
0
0
SEQEND
0
POLYLINE
8
CUT
66
1
70
0
0
VERTEX
8
CUT
10
31.2591
20
8.8416
0
VERTEX
8
CUT
10
32.1
20
7.3
0
VERTEX
8
CUT
10
32.1
20
0.7
0
VERTEX
8
CUT
10
31.7182
20
0
0
SEQEND
0
POLYLINE
8
CUT
66
1
70
0
0
VERTEX
8
CUT
10
33.8409
20
69.3416
0
VERTEX
8
CUT
10
33
20
67.8
0
VERTEX
8
CUT
10
33
20
61.2
0
VERTEX
8
CUT
10
33.8409
20
59.6584
0
SEQEND
0
POLYLINE
8
CUT
66
1
70
0
0
VERTEX
8
CUT
10
34.5591
20
69.3416
0
VERTEX
8
CUT
10
35.4
20
67.8
0
VERTEX
8
CUT
10
35.4
20
61.2
0
VERTEX
8
CUT
10
34.5591
20
59.6584
0
SEQEND
0
POLYLINE
8
CUT
66
1
70
0
0
VERTEX
8
CUT
10
33.8409
20
58.3416
0
VERTEX
8
CUT
10
33
20
56.8
0
VERTEX
8
CUT
10
33
20
50.2
0
VERTEX
8
CUT
10
33.8409
20
48.6584
0
SEQEND
0
POLYLINE
8
CUT
66
1
70
0
0
VERTEX
8
CUT
10
34.5591
20
58.3416
0
VERTEX
8
CUT
10
35.4
20
56.8
0
VERTEX
8
CUT
10
35.4
20
50.2
0
VERTEX
8
CUT
10
34.5591
20
48.6584
0
SEQEND
0
POLYLINE
8
CUT
66
1
70
0
0
VERTEX
8
CUT
10
33.8409
20
47.3416
0
VERTEX
8
CUT
10
33
20
45.8
0
VERTEX
8
CUT
10
33
20
39.2
0
VERTEX
8
CUT
10
33.8409
20
37.6584
0
SEQEND
0
POLYLINE
8
CUT
66
1
70
0
0
VERTEX
8
CUT
10
34.5591
20
47.3416
0
VERTEX
8
CUT
10
35.4
20
45.8
0
VERTEX
8
CUT
10
35.4
20
39.2
0
VERTEX
8
CUT
10
34.5591
20
37.6584
0
SEQEND
0
POLYLINE
8
CUT
66
1
70
0
0
VERTEX
8
CUT
10
33.8409
20
36.3416
0
VERTEX
8
CUT
10
33
20
34.8
0
VERTEX
8
CUT
10
33
20
28.2
0
VERTEX
8
CUT
10
33.8409
20
26.6584
0
SEQEND
0
POLYLINE
8
CUT
66
1
70
0
0
VERTEX
8
CUT
10
34.5591
20
36.3416
0
VERTEX
8
CUT
10
35.4
20
34.8
0
VERTEX
8
CUT
10
35.4
20
28.2
0
VERTEX
8
CUT
10
34.5591
20
26.6584
0
SEQEND
0
POLYLINE
8
CUT
66
1
70
0
0
VERTEX
8
CUT
10
33.8409
20
25.3416
0
VERTEX
8
CUT
10
33
20
23.8
0
VERTEX
8
CUT
10
33
20
17.2
0
VERTEX
8
CUT
10
33.8409
20
15.6584
0
SEQEND
0
POLYLINE
8
CUT
66
1
70
0
0
VERTEX
8
CUT
10
34.5591
20
25.3416
0
VERTEX
8
CUT
10
35.4
20
23.8
0
VERTEX
8
CUT
10
35.4
20
17.2
0
VERTEX
8
CUT
10
34.5591
20
15.6584
0
SEQEND
0
POLYLINE
8
CUT
66
1
70
0
0
VERTEX
8
CUT
10
33.8409
20
14.3416
0
VERTEX
8
CUT
10
33
20
12.8
0
VERTEX
8
CUT
10
33
20
6.2
0
VERTEX
8
CUT
10
33.8409
20
4.6584
0
SEQEND
0
POLYLINE
8
CUT
66
1
70
0
0
VERTEX
8
CUT
10
34.5591
20
14.3416
0
VERTEX
8
CUT
10
35.4
20
12.8
0
VERTEX
8
CUT
10
35.4
20
6.2
0
VERTEX
8
CUT
10
34.5591
20
4.6584
0
SEQEND
0
POLYLINE
8
CUT
66
1
70
0
0
VERTEX
8
CUT
10
33.8409
20
3.3416
0
VERTEX
8
CUT
10
33
20
1.8
0
VERTEX
8
CUT
10
33
20
0
0
SEQEND
0
POLYLINE
8
CUT
66
1
70
0
0
VERTEX
8
CUT
10
34.5591
20
3.3416
0
VERTEX
8
CUT
10
35.4
20
1.8
0
VERTEX
8
CUT
10
35.4
20
0
0
SEQEND
0
POLYLINE
8
CUT
66
1
70
0
0
VERTEX
8
CUT
10
36.3
20
70
0
VERTEX
8
CUT
10
36.3
20
66.7
0
VERTEX
8
CUT
10
37.1409
20
65.1584
0
SEQEND
0
POLYLINE
8
CUT
66
1
70
0
0
VERTEX
8
CUT
10
38.7
20
70
0
VERTEX
8
CUT
10
38.7
20
66.7
0
VERTEX
8
CUT
10
37.8591
20
65.1584
0
SEQEND
0
POLYLINE
8
CUT
66
1
70
0
0
VERTEX
8
CUT
10
37.1409
20
63.8416
0
VERTEX
8
CUT
10
36.3
20
62.3
0
VERTEX
8
CUT
10
36.3
20
55.7
0
VERTEX
8
CUT
10
37.1409
20
54.1584
0
SEQEND
0
POLYLINE
8
CUT
66
1
70
0
0
VERTEX
8
CUT
10
37.8591
20
63.8416
0
VERTEX
8
CUT
10
38.7
20
62.3
0
VERTEX
8
CUT
10
38.7
20
55.7
0
VERTEX
8
CUT
10
37.8591
20
54.1584
0
SEQEND
0
POLYLINE
8
CUT
66
1
70
0
0
VERTEX
8
CUT
10
37.1409
20
52.8416
0
VERTEX
8
CUT
10
36.3
20
51.3
0
VERTEX
8
CUT
10
36.3
20
44.7
0
VERTEX
8
CUT
10
37.1409
20
43.1584
0
SEQEND
0
POLYLINE
8
CUT
66
1
70
0
0
VERTEX
8
CUT
10
37.8591
20
52.8416
0
VERTEX
8
CUT
10
38.7
20
51.3
0
VERTEX
8
CUT
10
38.7
20
44.7
0
VERTEX
8
CUT
10
37.8591
20
43.1584
0
SEQEND
0
POLYLINE
8
CUT
66
1
70
0
0
VERTEX
8
CUT
10
37.1409
20
41.8416
0
VERTEX
8
CUT
10
36.3
20
40.3
0
VERTEX
8
CUT
10
36.3
20
33.7
0
VERTEX
8
CUT
10
37.1409
20
32.1584
0
SEQEND
0
POLYLINE
8
CUT
66
1
70
0
0
VERTEX
8
CUT
10
37.8591
20
41.8416
0
VERTEX
8
CUT
10
38.7
20
40.3
0
VERTEX
8
CUT
10
38.7
20
33.7
0
VERTEX
8
CUT
10
37.8591
20
32.1584
0
SEQEND
0
POLYLINE
8
CUT
66
1
70
0
0
VERTEX
8
CUT
10
37.1409
20
30.8416
0
VERTEX
8
CUT
10
36.3
20
29.3
0
VERTEX
8
CUT
10
36.3
20
22.7
0
VERTEX
8
CUT
10
37.1409
20
21.1584
0
SEQEND
0
POLYLINE
8
CUT
66
1
70
0
0
VERTEX
8
CUT
10
37.8591
20
30.8416
0
VERTEX
8
CUT
10
38.7
20
29.3
0
VERTEX
8
CUT
10
38.7
20
22.7
0
VERTEX
8
CUT
10
37.8591
20
21.1584
0
SEQEND
0
POLYLINE
8
CUT
66
1
70
0
0
VERTEX
8
CUT
10
37.1409
20
19.8416
0
VERTEX
8
CUT
10
36.3
20
18.3
0
VERTEX
8
CUT
10
36.3
20
11.7
0
VERTEX
8
CUT
10
37.1409
20
10.1584
0
SEQEND
0
POLYLINE
8
CUT
66
1
70
0
0
VERTEX
8
CUT
10
37.8591
20
19.8416
0
VERTEX
8
CUT
10
38.7
20
18.3
0
VERTEX
8
CUT
10
38.7
20
11.7
0
VERTEX
8
CUT
10
37.8591
20
10.1584
0
SEQEND
0
POLYLINE
8
CUT
66
1
70
0
0
VERTEX
8
CUT
10
37.1409
20
8.8416
0
VERTEX
8
CUT
10
36.3
20
7.3
0
VERTEX
8
CUT
10
36.3
20
0.7
0
VERTEX
8
CUT
10
36.6818
20
0
0
SEQEND
0
POLYLINE
8
CUT
66
1
70
0
0
VERTEX
8
CUT
10
37.8591
20
8.8416
0
VERTEX
8
CUT
10
38.7
20
7.3
0
VERTEX
8
CUT
10
38.7
20
0.7
0
VERTEX
8
CUT
10
38.3182
20
0
0
SEQEND
0
POLYLINE
8
CUT
66
1
70
0
0
VERTEX
8
CUT
10
40.4409
20
69.3416
0
VERTEX
8
CUT
10
39.6
20
67.8
0
VERTEX
8
CUT
10
39.6
20
61.2
0
VERTEX
8
CUT
10
40.4409
20
59.6584
0
SEQEND
0
POLYLINE
8
CUT
66
1
70
0
0
VERTEX
8
CUT
10
41.1591
20
69.3416
0
VERTEX
8
CUT
10
42
20
67.8
0
VERTEX
8
CUT
10
42
20
61.2
0
VERTEX
8
CUT
10
41.1591
20
59.6584
0
SEQEND
0
POLYLINE
8
CUT
66
1
70
0
0
VERTEX
8
CUT
10
40.4409
20
58.3416
0
VERTEX
8
CUT
10
39.6
20
56.8
0
VERTEX
8
CUT
10
39.6
20
50.2
0
VERTEX
8
CUT
10
40.4409
20
48.6584
0
SEQEND
0
POLYLINE
8
CUT
66
1
70
0
0
VERTEX
8
CUT
10
41.1591
20
58.3416
0
VERTEX
8
CUT
10
42
20
56.8
0
VERTEX
8
CUT
10
42
20
50.2
0
VERTEX
8
CUT
10
41.1591
20
48.6584
0
SEQEND
0
POLYLINE
8
CUT
66
1
70
0
0
VERTEX
8
CUT
10
40.4409
20
47.3416
0
VERTEX
8
CUT
10
39.6
20
45.8
0
VERTEX
8
CUT
10
39.6
20
39.2
0
VERTEX
8
CUT
10
40.4409
20
37.6584
0
SEQEND
0
POLYLINE
8
CUT
66
1
70
0
0
VERTEX
8
CUT
10
41.1591
20
47.3416
0
VERTEX
8
CUT
10
42
20
45.8
0
VERTEX
8
CUT
10
42
20
39.2
0
VERTEX
8
CUT
10
41.1591
20
37.6584
0
SEQEND
0
POLYLINE
8
CUT
66
1
70
0
0
VERTEX
8
CUT
10
40.4409
20
36.3416
0
VERTEX
8
CUT
10
39.6
20
34.8
0
VERTEX
8
CUT
10
39.6
20
28.2
0
VERTEX
8
CUT
10
40.4409
20
26.6584
0
SEQEND
0
POLYLINE
8
CUT
66
1
70
0
0
VERTEX
8
CUT
10
41.1591
20
36.3416
0
VERTEX
8
CUT
10
42
20
34.8
0
VERTEX
8
CUT
10
42
20
28.2
0
VERTEX
8
CUT
10
41.1591
20
26.6584
0
SEQEND
0
POLYLINE
8
CUT
66
1
70
0
0
VERTEX
8
CUT
10
40.4409
20
25.3416
0
VERTEX
8
CUT
10
39.6
20
23.8
0
VERTEX
8
CUT
10
39.6
20
17.2
0
VERTEX
8
CUT
10
40.4409
20
15.6584
0
SEQEND
0
POLYLINE
8
CUT
66
1
70
0
0
VERTEX
8
CUT
10
41.1591
20
25.3416
0
VERTEX
8
CUT
10
42
20
23.8
0
VERTEX
8
CUT
10
42
20
17.2
0
VERTEX
8
CUT
10
41.1591
20
15.6584
0
SEQEND
0
POLYLINE
8
CUT
66
1
70
0
0
VERTEX
8
CUT
10
40.4409
20
14.3416
0
VERTEX
8
CUT
10
39.6
20
12.8
0
VERTEX
8
CUT
10
39.6
20
6.2
0
VERTEX
8
CUT
10
40.4409
20
4.6584
0
SEQEND
0
POLYLINE
8
CUT
66
1
70
0
0
VERTEX
8
CUT
10
41.1591
20
14.3416
0
VERTEX
8
CUT
10
42
20
12.8
0
VERTEX
8
CUT
10
42
20
6.2
0
VERTEX
8
CUT
10
41.1591
20
4.6584
0
SEQEND
0
POLYLINE
8
CUT
66
1
70
0
0
VERTEX
8
CUT
10
40.4409
20
3.3416
0
VERTEX
8
CUT
10
39.6
20
1.8
0
VERTEX
8
CUT
10
39.6
20
0
0
SEQEND
0
POLYLINE
8
CUT
66
1
70
0
0
VERTEX
8
CUT
10
41.1591
20
3.3416
0
VERTEX
8
CUT
10
42
20
1.8
0
VERTEX
8
CUT
10
42
20
0
0
SEQEND
0
POLYLINE
8
CUT
66
1
70
0
0
VERTEX
8
CUT
10
42.9
20
70
0
VERTEX
8
CUT
10
42.9
20
66.7
0
VERTEX
8
CUT
10
43.7409
20
65.1584
0
SEQEND
0
POLYLINE
8
CUT
66
1
70
0
0
VERTEX
8
CUT
10
45.3
20
70
0
VERTEX
8
CUT
10
45.3
20
66.7
0
VERTEX
8
CUT
10
44.4591
20
65.1584
0
SEQEND
0
POLYLINE
8
CUT
66
1
70
0
0
VERTEX
8
CUT
10
43.7409
20
63.8416
0
VERTEX
8
CUT
10
42.9
20
62.3
0
VERTEX
8
CUT
10
42.9
20
55.7
0
VERTEX
8
CUT
10
43.7409
20
54.1584
0
SEQEND
0
POLYLINE
8
CUT
66
1
70
0
0
VERTEX
8
CUT
10
44.4591
20
63.8416
0
VERTEX
8
CUT
10
45.3
20
62.3
0
VERTEX
8
CUT
10
45.3
20
55.7
0
VERTEX
8
CUT
10
44.4591
20
54.1584
0
SEQEND
0
POLYLINE
8
CUT
66
1
70
0
0
VERTEX
8
CUT
10
43.7409
20
52.8416
0
VERTEX
8
CUT
10
42.9
20
51.3
0
VERTEX
8
CUT
10
42.9
20
44.7
0
VERTEX
8
CUT
10
43.7409
20
43.1584
0
SEQEND
0
POLYLINE
8
CUT
66
1
70
0
0
VERTEX
8
CUT
10
44.4591
20
52.8416
0
VERTEX
8
CUT
10
45.3
20
51.3
0
VERTEX
8
CUT
10
45.3
20
44.7
0
VERTEX
8
CUT
10
44.4591
20
43.1584
0
SEQEND
0
POLYLINE
8
CUT
66
1
70
0
0
VERTEX
8
CUT
10
43.7409
20
41.8416
0
VERTEX
8
CUT
10
42.9
20
40.3
0
VERTEX
8
CUT
10
42.9
20
33.7
0
VERTEX
8
CUT
10
43.7409
20
32.1584
0
SEQEND
0
POLYLINE
8
CUT
66
1
70
0
0
VERTEX
8
CUT
10
44.4591
20
41.8416
0
VERTEX
8
CUT
10
45.3
20
40.3
0
VERTEX
8
CUT
10
45.3
20
33.7
0
VERTEX
8
CUT
10
44.4591
20
32.1584
0
SEQEND
0
POLYLINE
8
CUT
66
1
70
0
0
VERTEX
8
CUT
10
43.7409
20
30.8416
0
VERTEX
8
CUT
10
42.9
20
29.3
0
VERTEX
8
CUT
10
42.9
20
22.7
0
VERTEX
8
CUT
10
43.7409
20
21.1584
0
SEQEND
0
POLYLINE
8
CUT
66
1
70
0
0
VERTEX
8
CUT
10
44.4591
20
30.8416
0
VERTEX
8
CUT
10
45.3
20
29.3
0
VERTEX
8
CUT
10
45.3
20
22.7
0
VERTEX
8
CUT
10
44.4591
20
21.1584
0
SEQEND
0
POLYLINE
8
CUT
66
1
70
0
0
VERTEX
8
CUT
10
43.7409
20
19.8416
0
VERTEX
8
CUT
10
42.9
20
18.3
0
VERTEX
8
CUT
10
42.9
20
11.7
0
VERTEX
8
CUT
10
43.7409
20
10.1584
0
SEQEND
0
POLYLINE
8
CUT
66
1
70
0
0
VERTEX
8
CUT
10
44.4591
20
19.8416
0
VERTEX
8
CUT
10
45.3
20
18.3
0
VERTEX
8
CUT
10
45.3
20
11.7
0
VERTEX
8
CUT
10
44.4591
20
10.1584
0
SEQEND
0
POLYLINE
8
CUT
66
1
70
0
0
VERTEX
8
CUT
10
43.7409
20
8.8416
0
VERTEX
8
CUT
10
42.9
20
7.3
0
VERTEX
8
CUT
10
42.9
20
0.7
0
VERTEX
8
CUT
10
43.2818
20
0
0
SEQEND
0
POLYLINE
8
CUT
66
1
70
0
0
VERTEX
8
CUT
10
44.4591
20
8.8416
0
VERTEX
8
CUT
10
45.3
20
7.3
0
VERTEX
8
CUT
10
45.3
20
0.7
0
VERTEX
8
CUT
10
44.9182
20
0
0
SEQEND
0
POLYLINE
8
CUT
66
1
70
0
0
VERTEX
8
CUT
10
47.0409
20
69.3416
0
VERTEX
8
CUT
10
46.2
20
67.8
0
VERTEX
8
CUT
10
46.2
20
61.2
0
VERTEX
8
CUT
10
47.0409
20
59.6584
0
SEQEND
0
POLYLINE
8
CUT
66
1
70
0
0
VERTEX
8
CUT
10
47.7591
20
69.3416
0
VERTEX
8
CUT
10
48.6
20
67.8
0
VERTEX
8
CUT
10
48.6
20
61.2
0
VERTEX
8
CUT
10
47.7591
20
59.6584
0
SEQEND
0
POLYLINE
8
CUT
66
1
70
0
0
VERTEX
8
CUT
10
47.0409
20
58.3416
0
VERTEX
8
CUT
10
46.2
20
56.8
0
VERTEX
8
CUT
10
46.2
20
50.2
0
VERTEX
8
CUT
10
47.0409
20
48.6584
0
SEQEND
0
POLYLINE
8
CUT
66
1
70
0
0
VERTEX
8
CUT
10
47.7591
20
58.3416
0
VERTEX
8
CUT
10
48.6
20
56.8
0
VERTEX
8
CUT
10
48.6
20
50.2
0
VERTEX
8
CUT
10
47.7591
20
48.6584
0
SEQEND
0
POLYLINE
8
CUT
66
1
70
0
0
VERTEX
8
CUT
10
47.0409
20
47.3416
0
VERTEX
8
CUT
10
46.2
20
45.8
0
VERTEX
8
CUT
10
46.2
20
39.2
0
VERTEX
8
CUT
10
47.0409
20
37.6584
0
SEQEND
0
POLYLINE
8
CUT
66
1
70
0
0
VERTEX
8
CUT
10
47.7591
20
47.3416
0
VERTEX
8
CUT
10
48.6
20
45.8
0
VERTEX
8
CUT
10
48.6
20
39.2
0
VERTEX
8
CUT
10
47.7591
20
37.6584
0
SEQEND
0
POLYLINE
8
CUT
66
1
70
0
0
VERTEX
8
CUT
10
47.0409
20
36.3416
0
VERTEX
8
CUT
10
46.2
20
34.8
0
VERTEX
8
CUT
10
46.2
20
28.2
0
VERTEX
8
CUT
10
47.0409
20
26.6584
0
SEQEND
0
POLYLINE
8
CUT
66
1
70
0
0
VERTEX
8
CUT
10
47.7591
20
36.3416
0
VERTEX
8
CUT
10
48.6
20
34.8
0
VERTEX
8
CUT
10
48.6
20
28.2
0
VERTEX
8
CUT
10
47.7591
20
26.6584
0
SEQEND
0
POLYLINE
8
CUT
66
1
70
0
0
VERTEX
8
CUT
10
47.0409
20
25.3416
0
VERTEX
8
CUT
10
46.2
20
23.8
0
VERTEX
8
CUT
10
46.2
20
17.2
0
VERTEX
8
CUT
10
47.0409
20
15.6584
0
SEQEND
0
POLYLINE
8
CUT
66
1
70
0
0
VERTEX
8
CUT
10
47.7591
20
25.3416
0
VERTEX
8
CUT
10
48.6
20
23.8
0
VERTEX
8
CUT
10
48.6
20
17.2
0
VERTEX
8
CUT
10
47.7591
20
15.6584
0
SEQEND
0
POLYLINE
8
CUT
66
1
70
0
0
VERTEX
8
CUT
10
47.0409
20
14.3416
0
VERTEX
8
CUT
10
46.2
20
12.8
0
VERTEX
8
CUT
10
46.2
20
6.2
0
VERTEX
8
CUT
10
47.0409
20
4.6584
0
SEQEND
0
POLYLINE
8
CUT
66
1
70
0
0
VERTEX
8
CUT
10
47.7591
20
14.3416
0
VERTEX
8
CUT
10
48.6
20
12.8
0
VERTEX
8
CUT
10
48.6
20
6.2
0
VERTEX
8
CUT
10
47.7591
20
4.6584
0
SEQEND
0
POLYLINE
8
CUT
66
1
70
0
0
VERTEX
8
CUT
10
47.0409
20
3.3416
0
VERTEX
8
CUT
10
46.2
20
1.8
0
VERTEX
8
CUT
10
46.2
20
0
0
SEQEND
0
POLYLINE
8
CUT
66
1
70
0
0
VERTEX
8
CUT
10
47.7591
20
3.3416
0
VERTEX
8
CUT
10
48.6
20
1.8
0
VERTEX
8
CUT
10
48.6
20
0
0
SEQEND
0
POLYLINE
8
CUT
66
1
70
0
0
VERTEX
8
CUT
10
49.5
20
70
0
VERTEX
8
CUT
10
49.5
20
66.7
0
VERTEX
8
CUT
10
50.3409
20
65.1584
0
SEQEND
0
POLYLINE
8
CUT
66
1
70
0
0
VERTEX
8
CUT
10
51.9
20
70
0
VERTEX
8
CUT
10
51.9
20
66.7
0
VERTEX
8
CUT
10
51.0591
20
65.1584
0
SEQEND
0
POLYLINE
8
CUT
66
1
70
0
0
VERTEX
8
CUT
10
50.3409
20
63.8416
0
VERTEX
8
CUT
10
49.5
20
62.3
0
VERTEX
8
CUT
10
49.5
20
55.7
0
VERTEX
8
CUT
10
50.3409
20
54.1584
0
SEQEND
0
POLYLINE
8
CUT
66
1
70
0
0
VERTEX
8
CUT
10
51.0591
20
63.8416
0
VERTEX
8
CUT
10
51.9
20
62.3
0
VERTEX
8
CUT
10
51.9
20
55.7
0
VERTEX
8
CUT
10
51.0591
20
54.1584
0
SEQEND
0
POLYLINE
8
CUT
66
1
70
0
0
VERTEX
8
CUT
10
50.3409
20
52.8416
0
VERTEX
8
CUT
10
49.5
20
51.3
0
VERTEX
8
CUT
10
49.5
20
44.7
0
VERTEX
8
CUT
10
50.3409
20
43.1584
0
SEQEND
0
POLYLINE
8
CUT
66
1
70
0
0
VERTEX
8
CUT
10
51.0591
20
52.8416
0
VERTEX
8
CUT
10
51.9
20
51.3
0
VERTEX
8
CUT
10
51.9
20
44.7
0
VERTEX
8
CUT
10
51.0591
20
43.1584
0
SEQEND
0
POLYLINE
8
CUT
66
1
70
0
0
VERTEX
8
CUT
10
50.3409
20
41.8416
0
VERTEX
8
CUT
10
49.5
20
40.3
0
VERTEX
8
CUT
10
49.5
20
33.7
0
VERTEX
8
CUT
10
50.3409
20
32.1584
0
SEQEND
0
POLYLINE
8
CUT
66
1
70
0
0
VERTEX
8
CUT
10
51.0591
20
41.8416
0
VERTEX
8
CUT
10
51.9
20
40.3
0
VERTEX
8
CUT
10
51.9
20
33.7
0
VERTEX
8
CUT
10
51.0591
20
32.1584
0
SEQEND
0
POLYLINE
8
CUT
66
1
70
0
0
VERTEX
8
CUT
10
50.3409
20
30.8416
0
VERTEX
8
CUT
10
49.5
20
29.3
0
VERTEX
8
CUT
10
49.5
20
22.7
0
VERTEX
8
CUT
10
50.3409
20
21.1584
0
SEQEND
0
POLYLINE
8
CUT
66
1
70
0
0
VERTEX
8
CUT
10
51.0591
20
30.8416
0
VERTEX
8
CUT
10
51.9
20
29.3
0
VERTEX
8
CUT
10
51.9
20
22.7
0
VERTEX
8
CUT
10
51.0591
20
21.1584
0
SEQEND
0
POLYLINE
8
CUT
66
1
70
0
0
VERTEX
8
CUT
10
50.3409
20
19.8416
0
VERTEX
8
CUT
10
49.5
20
18.3
0
VERTEX
8
CUT
10
49.5
20
11.7
0
VERTEX
8
CUT
10
50.3409
20
10.1584
0
SEQEND
0
POLYLINE
8
CUT
66
1
70
0
0
VERTEX
8
CUT
10
51.0591
20
19.8416
0
VERTEX
8
CUT
10
51.9
20
18.3
0
VERTEX
8
CUT
10
51.9
20
11.7
0
VERTEX
8
CUT
10
51.0591
20
10.1584
0
SEQEND
0
POLYLINE
8
CUT
66
1
70
0
0
VERTEX
8
CUT
10
50.3409
20
8.8416
0
VERTEX
8
CUT
10
49.5
20
7.3
0
VERTEX
8
CUT
10
49.5
20
0.7
0
VERTEX
8
CUT
10
49.8818
20
0
0
SEQEND
0
POLYLINE
8
CUT
66
1
70
0
0
VERTEX
8
CUT
10
51.0591
20
8.8416
0
VERTEX
8
CUT
10
51.9
20
7.3
0
VERTEX
8
CUT
10
51.9
20
0.7
0
VERTEX
8
CUT
10
51.5182
20
0
0
SEQEND
0
POLYLINE
8
CUT
66
1
70
0
0
VERTEX
8
CUT
10
53.6409
20
69.3416
0
VERTEX
8
CUT
10
52.8
20
67.8
0
VERTEX
8
CUT
10
52.8
20
61.2
0
VERTEX
8
CUT
10
53.6409
20
59.6584
0
SEQEND
0
POLYLINE
8
CUT
66
1
70
0
0
VERTEX
8
CUT
10
54.3591
20
69.3416
0
VERTEX
8
CUT
10
55.2
20
67.8
0
VERTEX
8
CUT
10
55.2
20
61.2
0
VERTEX
8
CUT
10
54.3591
20
59.6584
0
SEQEND
0
POLYLINE
8
CUT
66
1
70
0
0
VERTEX
8
CUT
10
53.6409
20
58.3416
0
VERTEX
8
CUT
10
52.8
20
56.8
0
VERTEX
8
CUT
10
52.8
20
50.2
0
VERTEX
8
CUT
10
53.6409
20
48.6584
0
SEQEND
0
POLYLINE
8
CUT
66
1
70
0
0
VERTEX
8
CUT
10
54.3591
20
58.3416
0
VERTEX
8
CUT
10
55.2
20
56.8
0
VERTEX
8
CUT
10
55.2
20
50.2
0
VERTEX
8
CUT
10
54.3591
20
48.6584
0
SEQEND
0
POLYLINE
8
CUT
66
1
70
0
0
VERTEX
8
CUT
10
53.6409
20
47.3416
0
VERTEX
8
CUT
10
52.8
20
45.8
0
VERTEX
8
CUT
10
52.8
20
39.2
0
VERTEX
8
CUT
10
53.6409
20
37.6584
0
SEQEND
0
POLYLINE
8
CUT
66
1
70
0
0
VERTEX
8
CUT
10
54.3591
20
47.3416
0
VERTEX
8
CUT
10
55.2
20
45.8
0
VERTEX
8
CUT
10
55.2
20
39.2
0
VERTEX
8
CUT
10
54.3591
20
37.6584
0
SEQEND
0
POLYLINE
8
CUT
66
1
70
0
0
VERTEX
8
CUT
10
53.6409
20
36.3416
0
VERTEX
8
CUT
10
52.8
20
34.8
0
VERTEX
8
CUT
10
52.8
20
28.2
0
VERTEX
8
CUT
10
53.6409
20
26.6584
0
SEQEND
0
POLYLINE
8
CUT
66
1
70
0
0
VERTEX
8
CUT
10
54.3591
20
36.3416
0
VERTEX
8
CUT
10
55.2
20
34.8
0
VERTEX
8
CUT
10
55.2
20
28.2
0
VERTEX
8
CUT
10
54.3591
20
26.6584
0
SEQEND
0
POLYLINE
8
CUT
66
1
70
0
0
VERTEX
8
CUT
10
53.6409
20
25.3416
0
VERTEX
8
CUT
10
52.8
20
23.8
0
VERTEX
8
CUT
10
52.8
20
17.2
0
VERTEX
8
CUT
10
53.6409
20
15.6584
0
SEQEND
0
POLYLINE
8
CUT
66
1
70
0
0
VERTEX
8
CUT
10
54.3591
20
25.3416
0
VERTEX
8
CUT
10
55.2
20
23.8
0
VERTEX
8
CUT
10
55.2
20
17.2
0
VERTEX
8
CUT
10
54.3591
20
15.6584
0
SEQEND
0
POLYLINE
8
CUT
66
1
70
0
0
VERTEX
8
CUT
10
53.6409
20
14.3416
0
VERTEX
8
CUT
10
52.8
20
12.8
0
VERTEX
8
CUT
10
52.8
20
6.2
0
VERTEX
8
CUT
10
53.6409
20
4.6584
0
SEQEND
0
POLYLINE
8
CUT
66
1
70
0
0
VERTEX
8
CUT
10
54.3591
20
14.3416
0
VERTEX
8
CUT
10
55.2
20
12.8
0
VERTEX
8
CUT
10
55.2
20
6.2
0
VERTEX
8
CUT
10
54.3591
20
4.6584
0
SEQEND
0
POLYLINE
8
CUT
66
1
70
0
0
VERTEX
8
CUT
10
53.6409
20
3.3416
0
VERTEX
8
CUT
10
52.8
20
1.8
0
VERTEX
8
CUT
10
52.8
20
0
0
SEQEND
0
POLYLINE
8
CUT
66
1
70
0
0
VERTEX
8
CUT
10
54.3591
20
3.3416
0
VERTEX
8
CUT
10
55.2
20
1.8
0
VERTEX
8
CUT
10
55.2
20
0
0
SEQEND
0
POLYLINE
8
CUT
66
1
70
0
0
VERTEX
8
CUT
10
56.1
20
70
0
VERTEX
8
CUT
10
56.1
20
66.7
0
VERTEX
8
CUT
10
56.9409
20
65.1584
0
SEQEND
0
POLYLINE
8
CUT
66
1
70
0
0
VERTEX
8
CUT
10
58.5
20
70
0
VERTEX
8
CUT
10
58.5
20
66.7
0
VERTEX
8
CUT
10
57.6591
20
65.1584
0
SEQEND
0
POLYLINE
8
CUT
66
1
70
0
0
VERTEX
8
CUT
10
56.9409
20
63.8416
0
VERTEX
8
CUT
10
56.1
20
62.3
0
VERTEX
8
CUT
10
56.1
20
55.7
0
VERTEX
8
CUT
10
56.9409
20
54.1584
0
SEQEND
0
POLYLINE
8
CUT
66
1
70
0
0
VERTEX
8
CUT
10
57.6591
20
63.8416
0
VERTEX
8
CUT
10
58.5
20
62.3
0
VERTEX
8
CUT
10
58.5
20
55.7
0
VERTEX
8
CUT
10
57.6591
20
54.1584
0
SEQEND
0
POLYLINE
8
CUT
66
1
70
0
0
VERTEX
8
CUT
10
56.9409
20
52.8416
0
VERTEX
8
CUT
10
56.1
20
51.3
0
VERTEX
8
CUT
10
56.1
20
44.7
0
VERTEX
8
CUT
10
56.9409
20
43.1584
0
SEQEND
0
POLYLINE
8
CUT
66
1
70
0
0
VERTEX
8
CUT
10
57.6591
20
52.8416
0
VERTEX
8
CUT
10
58.5
20
51.3
0
VERTEX
8
CUT
10
58.5
20
44.7
0
VERTEX
8
CUT
10
57.6591
20
43.1584
0
SEQEND
0
POLYLINE
8
CUT
66
1
70
0
0
VERTEX
8
CUT
10
56.9409
20
41.8416
0
VERTEX
8
CUT
10
56.1
20
40.3
0
VERTEX
8
CUT
10
56.1
20
33.7
0
VERTEX
8
CUT
10
56.9409
20
32.1584
0
SEQEND
0
POLYLINE
8
CUT
66
1
70
0
0
VERTEX
8
CUT
10
57.6591
20
41.8416
0
VERTEX
8
CUT
10
58.5
20
40.3
0
VERTEX
8
CUT
10
58.5
20
33.7
0
VERTEX
8
CUT
10
57.6591
20
32.1584
0
SEQEND
0
POLYLINE
8
CUT
66
1
70
0
0
VERTEX
8
CUT
10
56.9409
20
30.8416
0
VERTEX
8
CUT
10
56.1
20
29.3
0
VERTEX
8
CUT
10
56.1
20
22.7
0
VERTEX
8
CUT
10
56.9409
20
21.1584
0
SEQEND
0
POLYLINE
8
CUT
66
1
70
0
0
VERTEX
8
CUT
10
57.6591
20
30.8416
0
VERTEX
8
CUT
10
58.5
20
29.3
0
VERTEX
8
CUT
10
58.5
20
22.7
0
VERTEX
8
CUT
10
57.6591
20
21.1584
0
SEQEND
0
POLYLINE
8
CUT
66
1
70
0
0
VERTEX
8
CUT
10
56.9409
20
19.8416
0
VERTEX
8
CUT
10
56.1
20
18.3
0
VERTEX
8
CUT
10
56.1
20
11.7
0
VERTEX
8
CUT
10
56.9409
20
10.1584
0
SEQEND
0
POLYLINE
8
CUT
66
1
70
0
0
VERTEX
8
CUT
10
57.6591
20
19.8416
0
VERTEX
8
CUT
10
58.5
20
18.3
0
VERTEX
8
CUT
10
58.5
20
11.7
0
VERTEX
8
CUT
10
57.6591
20
10.1584
0
SEQEND
0
POLYLINE
8
CUT
66
1
70
0
0
VERTEX
8
CUT
10
56.9409
20
8.8416
0
VERTEX
8
CUT
10
56.1
20
7.3
0
VERTEX
8
CUT
10
56.1
20
0.7
0
VERTEX
8
CUT
10
56.4818
20
0
0
SEQEND
0
POLYLINE
8
CUT
66
1
70
0
0
VERTEX
8
CUT
10
57.6591
20
8.8416
0
VERTEX
8
CUT
10
58.5
20
7.3
0
VERTEX
8
CUT
10
58.5
20
0.7
0
VERTEX
8
CUT
10
58.1182
20
0
0
SEQEND
0
POLYLINE
8
CUT
66
1
70
0
0
VERTEX
8
CUT
10
60.2409
20
69.3416
0
VERTEX
8
CUT
10
59.4
20
67.8
0
VERTEX
8
CUT
10
59.4
20
61.2
0
VERTEX
8
CUT
10
60.2409
20
59.6584
0
SEQEND
0
POLYLINE
8
CUT
66
1
70
0
0
VERTEX
8
CUT
10
60.9591
20
69.3416
0
VERTEX
8
CUT
10
61.8
20
67.8
0
VERTEX
8
CUT
10
61.8
20
61.2
0
VERTEX
8
CUT
10
60.9591
20
59.6584
0
SEQEND
0
POLYLINE
8
CUT
66
1
70
0
0
VERTEX
8
CUT
10
60.2409
20
58.3416
0
VERTEX
8
CUT
10
59.4
20
56.8
0
VERTEX
8
CUT
10
59.4
20
50.2
0
VERTEX
8
CUT
10
60.2409
20
48.6584
0
SEQEND
0
POLYLINE
8
CUT
66
1
70
0
0
VERTEX
8
CUT
10
60.9591
20
58.3416
0
VERTEX
8
CUT
10
61.8
20
56.8
0
VERTEX
8
CUT
10
61.8
20
50.2
0
VERTEX
8
CUT
10
60.9591
20
48.6584
0
SEQEND
0
POLYLINE
8
CUT
66
1
70
0
0
VERTEX
8
CUT
10
60.2409
20
47.3416
0
VERTEX
8
CUT
10
59.4
20
45.8
0
VERTEX
8
CUT
10
59.4
20
39.2
0
VERTEX
8
CUT
10
60.2409
20
37.6584
0
SEQEND
0
POLYLINE
8
CUT
66
1
70
0
0
VERTEX
8
CUT
10
60.9591
20
47.3416
0
VERTEX
8
CUT
10
61.8
20
45.8
0
VERTEX
8
CUT
10
61.8
20
39.2
0
VERTEX
8
CUT
10
60.9591
20
37.6584
0
SEQEND
0
POLYLINE
8
CUT
66
1
70
0
0
VERTEX
8
CUT
10
60.2409
20
36.3416
0
VERTEX
8
CUT
10
59.4
20
34.8
0
VERTEX
8
CUT
10
59.4
20
28.2
0
VERTEX
8
CUT
10
60.2409
20
26.6584
0
SEQEND
0
POLYLINE
8
CUT
66
1
70
0
0
VERTEX
8
CUT
10
60.9591
20
36.3416
0
VERTEX
8
CUT
10
61.8
20
34.8
0
VERTEX
8
CUT
10
61.8
20
28.2
0
VERTEX
8
CUT
10
60.9591
20
26.6584
0
SEQEND
0
POLYLINE
8
CUT
66
1
70
0
0
VERTEX
8
CUT
10
60.2409
20
25.3416
0
VERTEX
8
CUT
10
59.4
20
23.8
0
VERTEX
8
CUT
10
59.4
20
17.2
0
VERTEX
8
CUT
10
60.2409
20
15.6584
0
SEQEND
0
POLYLINE
8
CUT
66
1
70
0
0
VERTEX
8
CUT
10
60.9591
20
25.3416
0
VERTEX
8
CUT
10
61.8
20
23.8
0
VERTEX
8
CUT
10
61.8
20
17.2
0
VERTEX
8
CUT
10
60.9591
20
15.6584
0
SEQEND
0
POLYLINE
8
CUT
66
1
70
0
0
VERTEX
8
CUT
10
60.2409
20
14.3416
0
VERTEX
8
CUT
10
59.4
20
12.8
0
VERTEX
8
CUT
10
59.4
20
6.2
0
VERTEX
8
CUT
10
60.2409
20
4.6584
0
SEQEND
0
POLYLINE
8
CUT
66
1
70
0
0
VERTEX
8
CUT
10
60.9591
20
14.3416
0
VERTEX
8
CUT
10
61.8
20
12.8
0
VERTEX
8
CUT
10
61.8
20
6.2
0
VERTEX
8
CUT
10
60.9591
20
4.6584
0
SEQEND
0
POLYLINE
8
CUT
66
1
70
0
0
VERTEX
8
CUT
10
60.2409
20
3.3416
0
VERTEX
8
CUT
10
59.4
20
1.8
0
VERTEX
8
CUT
10
59.4
20
0
0
SEQEND
0
POLYLINE
8
CUT
66
1
70
0
0
VERTEX
8
CUT
10
60.9591
20
3.3416
0
VERTEX
8
CUT
10
61.8
20
1.8
0
VERTEX
8
CUT
10
61.8
20
0
0
SEQEND
0
POLYLINE
8
CUT
66
1
70
0
0
VERTEX
8
CUT
10
62.7
20
70
0
VERTEX
8
CUT
10
62.7
20
66.7
0
VERTEX
8
CUT
10
63.5409
20
65.1584
0
SEQEND
0
POLYLINE
8
CUT
66
1
70
0
0
VERTEX
8
CUT
10
65.1
20
70
0
VERTEX
8
CUT
10
65.1
20
66.7
0
VERTEX
8
CUT
10
64.2591
20
65.1584
0
SEQEND
0
POLYLINE
8
CUT
66
1
70
0
0
VERTEX
8
CUT
10
63.5409
20
63.8416
0
VERTEX
8
CUT
10
62.7
20
62.3
0
VERTEX
8
CUT
10
62.7
20
55.7
0
VERTEX
8
CUT
10
63.5409
20
54.1584
0
SEQEND
0
POLYLINE
8
CUT
66
1
70
0
0
VERTEX
8
CUT
10
64.2591
20
63.8416
0
VERTEX
8
CUT
10
65.1
20
62.3
0
VERTEX
8
CUT
10
65.1
20
55.7
0
VERTEX
8
CUT
10
64.2591
20
54.1584
0
SEQEND
0
POLYLINE
8
CUT
66
1
70
0
0
VERTEX
8
CUT
10
63.5409
20
52.8416
0
VERTEX
8
CUT
10
62.7
20
51.3
0
VERTEX
8
CUT
10
62.7
20
44.7
0
VERTEX
8
CUT
10
63.5409
20
43.1584
0
SEQEND
0
POLYLINE
8
CUT
66
1
70
0
0
VERTEX
8
CUT
10
64.2591
20
52.8416
0
VERTEX
8
CUT
10
65.1
20
51.3
0
VERTEX
8
CUT
10
65.1
20
44.7
0
VERTEX
8
CUT
10
64.2591
20
43.1584
0
SEQEND
0
POLYLINE
8
CUT
66
1
70
0
0
VERTEX
8
CUT
10
63.5409
20
41.8416
0
VERTEX
8
CUT
10
62.7
20
40.3
0
VERTEX
8
CUT
10
62.7
20
33.7
0
VERTEX
8
CUT
10
63.5409
20
32.1584
0
SEQEND
0
POLYLINE
8
CUT
66
1
70
0
0
VERTEX
8
CUT
10
64.2591
20
41.8416
0
VERTEX
8
CUT
10
65.1
20
40.3
0
VERTEX
8
CUT
10
65.1
20
33.7
0
VERTEX
8
CUT
10
64.2591
20
32.1584
0
SEQEND
0
POLYLINE
8
CUT
66
1
70
0
0
VERTEX
8
CUT
10
63.5409
20
30.8416
0
VERTEX
8
CUT
10
62.7
20
29.3
0
VERTEX
8
CUT
10
62.7
20
22.7
0
VERTEX
8
CUT
10
63.5409
20
21.1584
0
SEQEND
0
POLYLINE
8
CUT
66
1
70
0
0
VERTEX
8
CUT
10
64.2591
20
30.8416
0
VERTEX
8
CUT
10
65.1
20
29.3
0
VERTEX
8
CUT
10
65.1
20
22.7
0
VERTEX
8
CUT
10
64.2591
20
21.1584
0
SEQEND
0
POLYLINE
8
CUT
66
1
70
0
0
VERTEX
8
CUT
10
63.5409
20
19.8416
0
VERTEX
8
CUT
10
62.7
20
18.3
0
VERTEX
8
CUT
10
62.7
20
11.7
0
VERTEX
8
CUT
10
63.5409
20
10.1584
0
SEQEND
0
POLYLINE
8
CUT
66
1
70
0
0
VERTEX
8
CUT
10
64.2591
20
19.8416
0
VERTEX
8
CUT
10
65.1
20
18.3
0
VERTEX
8
CUT
10
65.1
20
11.7
0
VERTEX
8
CUT
10
64.2591
20
10.1584
0
SEQEND
0
POLYLINE
8
CUT
66
1
70
0
0
VERTEX
8
CUT
10
63.5409
20
8.8416
0
VERTEX
8
CUT
10
62.7
20
7.3
0
VERTEX
8
CUT
10
62.7
20
0.7
0
VERTEX
8
CUT
10
63.0818
20
0
0
SEQEND
0
POLYLINE
8
CUT
66
1
70
0
0
VERTEX
8
CUT
10
64.2591
20
8.8416
0
VERTEX
8
CUT
10
65.1
20
7.3
0
VERTEX
8
CUT
10
65.1
20
0.7
0
VERTEX
8
CUT
10
64.7182
20
0
0
SEQEND
0
POLYLINE
8
CUT
66
1
70
0
0
VERTEX
8
CUT
10
66.8409
20
69.3416
0
VERTEX
8
CUT
10
66
20
67.8
0
VERTEX
8
CUT
10
66
20
61.2
0
VERTEX
8
CUT
10
66.8409
20
59.6584
0
SEQEND
0
POLYLINE
8
CUT
66
1
70
0
0
VERTEX
8
CUT
10
67.5591
20
69.3416
0
VERTEX
8
CUT
10
68.4
20
67.8
0
VERTEX
8
CUT
10
68.4
20
61.2
0
VERTEX
8
CUT
10
67.5591
20
59.6584
0
SEQEND
0
POLYLINE
8
CUT
66
1
70
0
0
VERTEX
8
CUT
10
66.8409
20
58.3416
0
VERTEX
8
CUT
10
66
20
56.8
0
VERTEX
8
CUT
10
66
20
50.2
0
VERTEX
8
CUT
10
66.8409
20
48.6584
0
SEQEND
0
POLYLINE
8
CUT
66
1
70
0
0
VERTEX
8
CUT
10
67.5591
20
58.3416
0
VERTEX
8
CUT
10
68.4
20
56.8
0
VERTEX
8
CUT
10
68.4
20
50.2
0
VERTEX
8
CUT
10
67.5591
20
48.6584
0
SEQEND
0
POLYLINE
8
CUT
66
1
70
0
0
VERTEX
8
CUT
10
66.8409
20
47.3416
0
VERTEX
8
CUT
10
66
20
45.8
0
VERTEX
8
CUT
10
66
20
39.2
0
VERTEX
8
CUT
10
66.8409
20
37.6584
0
SEQEND
0
POLYLINE
8
CUT
66
1
70
0
0
VERTEX
8
CUT
10
67.5591
20
47.3416
0
VERTEX
8
CUT
10
68.4
20
45.8
0
VERTEX
8
CUT
10
68.4
20
39.2
0
VERTEX
8
CUT
10
67.5591
20
37.6584
0
SEQEND
0
POLYLINE
8
CUT
66
1
70
0
0
VERTEX
8
CUT
10
66.8409
20
36.3416
0
VERTEX
8
CUT
10
66
20
34.8
0
VERTEX
8
CUT
10
66
20
28.2
0
VERTEX
8
CUT
10
66.8409
20
26.6584
0
SEQEND
0
POLYLINE
8
CUT
66
1
70
0
0
VERTEX
8
CUT
10
67.5591
20
36.3416
0
VERTEX
8
CUT
10
68.4
20
34.8
0
VERTEX
8
CUT
10
68.4
20
28.2
0
VERTEX
8
CUT
10
67.5591
20
26.6584
0
SEQEND
0
POLYLINE
8
CUT
66
1
70
0
0
VERTEX
8
CUT
10
66.8409
20
25.3416
0
VERTEX
8
CUT
10
66
20
23.8
0
VERTEX
8
CUT
10
66
20
17.2
0
VERTEX
8
CUT
10
66.8409
20
15.6584
0
SEQEND
0
POLYLINE
8
CUT
66
1
70
0
0
VERTEX
8
CUT
10
67.5591
20
25.3416
0
VERTEX
8
CUT
10
68.4
20
23.8
0
VERTEX
8
CUT
10
68.4
20
17.2
0
VERTEX
8
CUT
10
67.5591
20
15.6584
0
SEQEND
0
POLYLINE
8
CUT
66
1
70
0
0
VERTEX
8
CUT
10
66.8409
20
14.3416
0
VERTEX
8
CUT
10
66
20
12.8
0
VERTEX
8
CUT
10
66
20
6.2
0
VERTEX
8
CUT
10
66.8409
20
4.6584
0
SEQEND
0
POLYLINE
8
CUT
66
1
70
0
0
VERTEX
8
CUT
10
67.5591
20
14.3416
0
VERTEX
8
CUT
10
68.4
20
12.8
0
VERTEX
8
CUT
10
68.4
20
6.2
0
VERTEX
8
CUT
10
67.5591
20
4.6584
0
SEQEND
0
POLYLINE
8
CUT
66
1
70
0
0
VERTEX
8
CUT
10
66.8409
20
3.3416
0
VERTEX
8
CUT
10
66
20
1.8
0
VERTEX
8
CUT
10
66
20
0
0
SEQEND
0
POLYLINE
8
CUT
66
1
70
0
0
VERTEX
8
CUT
10
67.5591
20
3.3416
0
VERTEX
8
CUT
10
68.4
20
1.8
0
VERTEX
8
CUT
10
68.4
20
0
0
SEQEND
0
POLYLINE
8
CUT
66
1
70
0
0
VERTEX
8
CUT
10
69.3
20
70
0
VERTEX
8
CUT
10
69.3
20
66.7
0
VERTEX
8
CUT
10
70.1409
20
65.1584
0
SEQEND
0
POLYLINE
8
CUT
66
1
70
0
0
VERTEX
8
CUT
10
71.7
20
70
0
VERTEX
8
CUT
10
71.7
20
66.7
0
VERTEX
8
CUT
10
70.8591
20
65.1584
0
SEQEND
0
POLYLINE
8
CUT
66
1
70
0
0
VERTEX
8
CUT
10
70.1409
20
63.8416
0
VERTEX
8
CUT
10
69.3
20
62.3
0
VERTEX
8
CUT
10
69.3
20
55.7
0
VERTEX
8
CUT
10
70.1409
20
54.1584
0
SEQEND
0
POLYLINE
8
CUT
66
1
70
0
0
VERTEX
8
CUT
10
70.8591
20
63.8416
0
VERTEX
8
CUT
10
71.7
20
62.3
0
VERTEX
8
CUT
10
71.7
20
55.7
0
VERTEX
8
CUT
10
70.8591
20
54.1584
0
SEQEND
0
POLYLINE
8
CUT
66
1
70
0
0
VERTEX
8
CUT
10
70.1409
20
52.8416
0
VERTEX
8
CUT
10
69.3
20
51.3
0
VERTEX
8
CUT
10
69.3
20
44.7
0
VERTEX
8
CUT
10
70.1409
20
43.1584
0
SEQEND
0
POLYLINE
8
CUT
66
1
70
0
0
VERTEX
8
CUT
10
70.8591
20
52.8416
0
VERTEX
8
CUT
10
71.7
20
51.3
0
VERTEX
8
CUT
10
71.7
20
44.7
0
VERTEX
8
CUT
10
70.8591
20
43.1584
0
SEQEND
0
POLYLINE
8
CUT
66
1
70
0
0
VERTEX
8
CUT
10
70.1409
20
41.8416
0
VERTEX
8
CUT
10
69.3
20
40.3
0
VERTEX
8
CUT
10
69.3
20
33.7
0
VERTEX
8
CUT
10
70.1409
20
32.1584
0
SEQEND
0
POLYLINE
8
CUT
66
1
70
0
0
VERTEX
8
CUT
10
70.8591
20
41.8416
0
VERTEX
8
CUT
10
71.7
20
40.3
0
VERTEX
8
CUT
10
71.7
20
33.7
0
VERTEX
8
CUT
10
70.8591
20
32.1584
0
SEQEND
0
POLYLINE
8
CUT
66
1
70
0
0
VERTEX
8
CUT
10
70.1409
20
30.8416
0
VERTEX
8
CUT
10
69.3
20
29.3
0
VERTEX
8
CUT
10
69.3
20
22.7
0
VERTEX
8
CUT
10
70.1409
20
21.1584
0
SEQEND
0
POLYLINE
8
CUT
66
1
70
0
0
VERTEX
8
CUT
10
70.8591
20
30.8416
0
VERTEX
8
CUT
10
71.7
20
29.3
0
VERTEX
8
CUT
10
71.7
20
22.7
0
VERTEX
8
CUT
10
70.8591
20
21.1584
0
SEQEND
0
POLYLINE
8
CUT
66
1
70
0
0
VERTEX
8
CUT
10
70.1409
20
19.8416
0
VERTEX
8
CUT
10
69.3
20
18.3
0
VERTEX
8
CUT
10
69.3
20
11.7
0
VERTEX
8
CUT
10
70.1409
20
10.1584
0
SEQEND
0
POLYLINE
8
CUT
66
1
70
0
0
VERTEX
8
CUT
10
70.8591
20
19.8416
0
VERTEX
8
CUT
10
71.7
20
18.3
0
VERTEX
8
CUT
10
71.7
20
11.7
0
VERTEX
8
CUT
10
70.8591
20
10.1584
0
SEQEND
0
POLYLINE
8
CUT
66
1
70
0
0
VERTEX
8
CUT
10
70.1409
20
8.8416
0
VERTEX
8
CUT
10
69.3
20
7.3
0
VERTEX
8
CUT
10
69.3
20
0.7
0
VERTEX
8
CUT
10
69.6818
20
0
0
SEQEND
0
POLYLINE
8
CUT
66
1
70
0
0
VERTEX
8
CUT
10
70.8591
20
8.8416
0
VERTEX
8
CUT
10
71.7
20
7.3
0
VERTEX
8
CUT
10
71.7
20
0.7
0
VERTEX
8
CUT
10
71.3182
20
0
0
SEQEND
0
POLYLINE
8
CUT
66
1
70
0
0
VERTEX
8
CUT
10
73.4409
20
69.3416
0
VERTEX
8
CUT
10
72.6
20
67.8
0
VERTEX
8
CUT
10
72.6
20
61.2
0
VERTEX
8
CUT
10
73.4409
20
59.6584
0
SEQEND
0
POLYLINE
8
CUT
66
1
70
0
0
VERTEX
8
CUT
10
74.1591
20
69.3416
0
VERTEX
8
CUT
10
75
20
67.8
0
VERTEX
8
CUT
10
75
20
61.2
0
VERTEX
8
CUT
10
74.1591
20
59.6584
0
SEQEND
0
POLYLINE
8
CUT
66
1
70
0
0
VERTEX
8
CUT
10
73.4409
20
58.3416
0
VERTEX
8
CUT
10
72.6
20
56.8
0
VERTEX
8
CUT
10
72.6
20
50.2
0
VERTEX
8
CUT
10
73.4409
20
48.6584
0
SEQEND
0
POLYLINE
8
CUT
66
1
70
0
0
VERTEX
8
CUT
10
74.1591
20
58.3416
0
VERTEX
8
CUT
10
75
20
56.8
0
VERTEX
8
CUT
10
75
20
50.2
0
VERTEX
8
CUT
10
74.1591
20
48.6584
0
SEQEND
0
POLYLINE
8
CUT
66
1
70
0
0
VERTEX
8
CUT
10
73.4409
20
47.3416
0
VERTEX
8
CUT
10
72.6
20
45.8
0
VERTEX
8
CUT
10
72.6
20
39.2
0
VERTEX
8
CUT
10
73.4409
20
37.6584
0
SEQEND
0
POLYLINE
8
CUT
66
1
70
0
0
VERTEX
8
CUT
10
74.1591
20
47.3416
0
VERTEX
8
CUT
10
75
20
45.8
0
VERTEX
8
CUT
10
75
20
39.2
0
VERTEX
8
CUT
10
74.1591
20
37.6584
0
SEQEND
0
POLYLINE
8
CUT
66
1
70
0
0
VERTEX
8
CUT
10
73.4409
20
36.3416
0
VERTEX
8
CUT
10
72.6
20
34.8
0
VERTEX
8
CUT
10
72.6
20
28.2
0
VERTEX
8
CUT
10
73.4409
20
26.6584
0
SEQEND
0
POLYLINE
8
CUT
66
1
70
0
0
VERTEX
8
CUT
10
74.1591
20
36.3416
0
VERTEX
8
CUT
10
75
20
34.8
0
VERTEX
8
CUT
10
75
20
28.2
0
VERTEX
8
CUT
10
74.1591
20
26.6584
0
SEQEND
0
POLYLINE
8
CUT
66
1
70
0
0
VERTEX
8
CUT
10
73.4409
20
25.3416
0
VERTEX
8
CUT
10
72.6
20
23.8
0
VERTEX
8
CUT
10
72.6
20
17.2
0
VERTEX
8
CUT
10
73.4409
20
15.6584
0
SEQEND
0
POLYLINE
8
CUT
66
1
70
0
0
VERTEX
8
CUT
10
74.1591
20
25.3416
0
VERTEX
8
CUT
10
75
20
23.8
0
VERTEX
8
CUT
10
75
20
17.2
0
VERTEX
8
CUT
10
74.1591
20
15.6584
0
SEQEND
0
POLYLINE
8
CUT
66
1
70
0
0
VERTEX
8
CUT
10
73.4409
20
14.3416
0
VERTEX
8
CUT
10
72.6
20
12.8
0
VERTEX
8
CUT
10
72.6
20
6.2
0
VERTEX
8
CUT
10
73.4409
20
4.6584
0
SEQEND
0
POLYLINE
8
CUT
66
1
70
0
0
VERTEX
8
CUT
10
74.1591
20
14.3416
0
VERTEX
8
CUT
10
75
20
12.8
0
VERTEX
8
CUT
10
75
20
6.2
0
VERTEX
8
CUT
10
74.1591
20
4.6584
0
SEQEND
0
POLYLINE
8
CUT
66
1
70
0
0
VERTEX
8
CUT
10
73.4409
20
3.3416
0
VERTEX
8
CUT
10
72.6
20
1.8
0
VERTEX
8
CUT
10
72.6
20
0
0
SEQEND
0
POLYLINE
8
CUT
66
1
70
0
0
VERTEX
8
CUT
10
74.1591
20
3.3416
0
VERTEX
8
CUT
10
75
20
1.8
0
VERTEX
8
CUT
10
75
20
0
0
SEQEND
0
POLYLINE
8
CUT
66
1
70
0
0
VERTEX
8
CUT
10
75.9
20
70
0
VERTEX
8
CUT
10
75.9
20
66.7
0
VERTEX
8
CUT
10
76.7409
20
65.1584
0
SEQEND
0
POLYLINE
8
CUT
66
1
70
0
0
VERTEX
8
CUT
10
78.3
20
70
0
VERTEX
8
CUT
10
78.3
20
66.7
0
VERTEX
8
CUT
10
77.4591
20
65.1584
0
SEQEND
0
POLYLINE
8
CUT
66
1
70
0
0
VERTEX
8
CUT
10
76.7409
20
63.8416
0
VERTEX
8
CUT
10
75.9
20
62.3
0
VERTEX
8
CUT
10
75.9
20
55.7
0
VERTEX
8
CUT
10
76.7409
20
54.1584
0
SEQEND
0
POLYLINE
8
CUT
66
1
70
0
0
VERTEX
8
CUT
10
77.4591
20
63.8416
0
VERTEX
8
CUT
10
78.3
20
62.3
0
VERTEX
8
CUT
10
78.3
20
55.7
0
VERTEX
8
CUT
10
77.4591
20
54.1584
0
SEQEND
0
POLYLINE
8
CUT
66
1
70
0
0
VERTEX
8
CUT
10
76.7409
20
52.8416
0
VERTEX
8
CUT
10
75.9
20
51.3
0
VERTEX
8
CUT
10
75.9
20
44.7
0
VERTEX
8
CUT
10
76.7409
20
43.1584
0
SEQEND
0
POLYLINE
8
CUT
66
1
70
0
0
VERTEX
8
CUT
10
77.4591
20
52.8416
0
VERTEX
8
CUT
10
78.3
20
51.3
0
VERTEX
8
CUT
10
78.3
20
44.7
0
VERTEX
8
CUT
10
77.4591
20
43.1584
0
SEQEND
0
POLYLINE
8
CUT
66
1
70
0
0
VERTEX
8
CUT
10
76.7409
20
41.8416
0
VERTEX
8
CUT
10
75.9
20
40.3
0
VERTEX
8
CUT
10
75.9
20
33.7
0
VERTEX
8
CUT
10
76.7409
20
32.1584
0
SEQEND
0
POLYLINE
8
CUT
66
1
70
0
0
VERTEX
8
CUT
10
77.4591
20
41.8416
0
VERTEX
8
CUT
10
78.3
20
40.3
0
VERTEX
8
CUT
10
78.3
20
33.7
0
VERTEX
8
CUT
10
77.4591
20
32.1584
0
SEQEND
0
POLYLINE
8
CUT
66
1
70
0
0
VERTEX
8
CUT
10
76.7409
20
30.8416
0
VERTEX
8
CUT
10
75.9
20
29.3
0
VERTEX
8
CUT
10
75.9
20
22.7
0
VERTEX
8
CUT
10
76.7409
20
21.1584
0
SEQEND
0
POLYLINE
8
CUT
66
1
70
0
0
VERTEX
8
CUT
10
77.4591
20
30.8416
0
VERTEX
8
CUT
10
78.3
20
29.3
0
VERTEX
8
CUT
10
78.3
20
22.7
0
VERTEX
8
CUT
10
77.4591
20
21.1584
0
SEQEND
0
POLYLINE
8
CUT
66
1
70
0
0
VERTEX
8
CUT
10
76.7409
20
19.8416
0
VERTEX
8
CUT
10
75.9
20
18.3
0
VERTEX
8
CUT
10
75.9
20
11.7
0
VERTEX
8
CUT
10
76.7409
20
10.1584
0
SEQEND
0
POLYLINE
8
CUT
66
1
70
0
0
VERTEX
8
CUT
10
77.4591
20
19.8416
0
VERTEX
8
CUT
10
78.3
20
18.3
0
VERTEX
8
CUT
10
78.3
20
11.7
0
VERTEX
8
CUT
10
77.4591
20
10.1584
0
SEQEND
0
POLYLINE
8
CUT
66
1
70
0
0
VERTEX
8
CUT
10
76.7409
20
8.8416
0
VERTEX
8
CUT
10
75.9
20
7.3
0
VERTEX
8
CUT
10
75.9
20
0.7
0
VERTEX
8
CUT
10
76.2818
20
0
0
SEQEND
0
POLYLINE
8
CUT
66
1
70
0
0
VERTEX
8
CUT
10
77.4591
20
8.8416
0
VERTEX
8
CUT
10
78.3
20
7.3
0
VERTEX
8
CUT
10
78.3
20
0.7
0
VERTEX
8
CUT
10
77.9182
20
0
0
SEQEND
0
POLYLINE
8
CUT
66
1
70
0
0
VERTEX
8
CUT
10
80.0409
20
69.3416
0
VERTEX
8
CUT
10
79.2
20
67.8
0
VERTEX
8
CUT
10
79.2
20
61.2
0
VERTEX
8
CUT
10
80.0409
20
59.6584
0
SEQEND
0
POLYLINE
8
CUT
66
1
70
0
0
VERTEX
8
CUT
10
80.7591
20
69.3416
0
VERTEX
8
CUT
10
81.6
20
67.8
0
VERTEX
8
CUT
10
81.6
20
61.2
0
VERTEX
8
CUT
10
80.7591
20
59.6584
0
SEQEND
0
POLYLINE
8
CUT
66
1
70
0
0
VERTEX
8
CUT
10
80.0409
20
58.3416
0
VERTEX
8
CUT
10
79.2
20
56.8
0
VERTEX
8
CUT
10
79.2
20
50.2
0
VERTEX
8
CUT
10
80.0409
20
48.6584
0
SEQEND
0
POLYLINE
8
CUT
66
1
70
0
0
VERTEX
8
CUT
10
80.7591
20
58.3416
0
VERTEX
8
CUT
10
81.6
20
56.8
0
VERTEX
8
CUT
10
81.6
20
50.2
0
VERTEX
8
CUT
10
80.7591
20
48.6584
0
SEQEND
0
POLYLINE
8
CUT
66
1
70
0
0
VERTEX
8
CUT
10
80.0409
20
47.3416
0
VERTEX
8
CUT
10
79.2
20
45.8
0
VERTEX
8
CUT
10
79.2
20
39.2
0
VERTEX
8
CUT
10
80.0409
20
37.6584
0
SEQEND
0
POLYLINE
8
CUT
66
1
70
0
0
VERTEX
8
CUT
10
80.7591
20
47.3416
0
VERTEX
8
CUT
10
81.6
20
45.8
0
VERTEX
8
CUT
10
81.6
20
39.2
0
VERTEX
8
CUT
10
80.7591
20
37.6584
0
SEQEND
0
POLYLINE
8
CUT
66
1
70
0
0
VERTEX
8
CUT
10
80.0409
20
36.3416
0
VERTEX
8
CUT
10
79.2
20
34.8
0
VERTEX
8
CUT
10
79.2
20
28.2
0
VERTEX
8
CUT
10
80.0409
20
26.6584
0
SEQEND
0
POLYLINE
8
CUT
66
1
70
0
0
VERTEX
8
CUT
10
80.7591
20
36.3416
0
VERTEX
8
CUT
10
81.6
20
34.8
0
VERTEX
8
CUT
10
81.6
20
28.2
0
VERTEX
8
CUT
10
80.7591
20
26.6584
0
SEQEND
0
POLYLINE
8
CUT
66
1
70
0
0
VERTEX
8
CUT
10
80.0409
20
25.3416
0
VERTEX
8
CUT
10
79.2
20
23.8
0
VERTEX
8
CUT
10
79.2
20
17.2
0
VERTEX
8
CUT
10
80.0409
20
15.6584
0
SEQEND
0
POLYLINE
8
CUT
66
1
70
0
0
VERTEX
8
CUT
10
80.7591
20
25.3416
0
VERTEX
8
CUT
10
81.6
20
23.8
0
VERTEX
8
CUT
10
81.6
20
17.2
0
VERTEX
8
CUT
10
80.7591
20
15.6584
0
SEQEND
0
POLYLINE
8
CUT
66
1
70
0
0
VERTEX
8
CUT
10
80.0409
20
14.3416
0
VERTEX
8
CUT
10
79.2
20
12.8
0
VERTEX
8
CUT
10
79.2
20
6.2
0
VERTEX
8
CUT
10
80.0409
20
4.6584
0
SEQEND
0
POLYLINE
8
CUT
66
1
70
0
0
VERTEX
8
CUT
10
80.7591
20
14.3416
0
VERTEX
8
CUT
10
81.6
20
12.8
0
VERTEX
8
CUT
10
81.6
20
6.2
0
VERTEX
8
CUT
10
80.7591
20
4.6584
0
SEQEND
0
POLYLINE
8
CUT
66
1
70
0
0
VERTEX
8
CUT
10
80.0409
20
3.3416
0
VERTEX
8
CUT
10
79.2
20
1.8
0
VERTEX
8
CUT
10
79.2
20
0
0
SEQEND
0
POLYLINE
8
CUT
66
1
70
0
0
VERTEX
8
CUT
10
80.7591
20
3.3416
0
VERTEX
8
CUT
10
81.6
20
1.8
0
VERTEX
8
CUT
10
81.6
20
0
0
SEQEND
0
POLYLINE
8
CUT
66
1
70
0
0
VERTEX
8
CUT
10
82.5
20
70
0
VERTEX
8
CUT
10
82.5
20
66.7
0
VERTEX
8
CUT
10
83.3409
20
65.1584
0
SEQEND
0
POLYLINE
8
CUT
66
1
70
0
0
VERTEX
8
CUT
10
84.9
20
70
0
VERTEX
8
CUT
10
84.9
20
66.7
0
VERTEX
8
CUT
10
84.0591
20
65.1584
0
SEQEND
0
POLYLINE
8
CUT
66
1
70
0
0
VERTEX
8
CUT
10
83.3409
20
63.8416
0
VERTEX
8
CUT
10
82.5
20
62.3
0
VERTEX
8
CUT
10
82.5
20
55.7
0
VERTEX
8
CUT
10
83.3409
20
54.1584
0
SEQEND
0
POLYLINE
8
CUT
66
1
70
0
0
VERTEX
8
CUT
10
84.0591
20
63.8416
0
VERTEX
8
CUT
10
84.9
20
62.3
0
VERTEX
8
CUT
10
84.9
20
55.7
0
VERTEX
8
CUT
10
84.0591
20
54.1584
0
SEQEND
0
POLYLINE
8
CUT
66
1
70
0
0
VERTEX
8
CUT
10
83.3409
20
52.8416
0
VERTEX
8
CUT
10
82.5
20
51.3
0
VERTEX
8
CUT
10
82.5
20
44.7
0
VERTEX
8
CUT
10
83.3409
20
43.1584
0
SEQEND
0
POLYLINE
8
CUT
66
1
70
0
0
VERTEX
8
CUT
10
84.0591
20
52.8416
0
VERTEX
8
CUT
10
84.9
20
51.3
0
VERTEX
8
CUT
10
84.9
20
44.7
0
VERTEX
8
CUT
10
84.0591
20
43.1584
0
SEQEND
0
POLYLINE
8
CUT
66
1
70
0
0
VERTEX
8
CUT
10
83.3409
20
41.8416
0
VERTEX
8
CUT
10
82.5
20
40.3
0
VERTEX
8
CUT
10
82.5
20
33.7
0
VERTEX
8
CUT
10
83.3409
20
32.1584
0
SEQEND
0
POLYLINE
8
CUT
66
1
70
0
0
VERTEX
8
CUT
10
84.0591
20
41.8416
0
VERTEX
8
CUT
10
84.9
20
40.3
0
VERTEX
8
CUT
10
84.9
20
33.7
0
VERTEX
8
CUT
10
84.0591
20
32.1584
0
SEQEND
0
POLYLINE
8
CUT
66
1
70
0
0
VERTEX
8
CUT
10
83.3409
20
30.8416
0
VERTEX
8
CUT
10
82.5
20
29.3
0
VERTEX
8
CUT
10
82.5
20
22.7
0
VERTEX
8
CUT
10
83.3409
20
21.1584
0
SEQEND
0
POLYLINE
8
CUT
66
1
70
0
0
VERTEX
8
CUT
10
84.0591
20
30.8416
0
VERTEX
8
CUT
10
84.9
20
29.3
0
VERTEX
8
CUT
10
84.9
20
22.7
0
VERTEX
8
CUT
10
84.0591
20
21.1584
0
SEQEND
0
POLYLINE
8
CUT
66
1
70
0
0
VERTEX
8
CUT
10
83.3409
20
19.8416
0
VERTEX
8
CUT
10
82.5
20
18.3
0
VERTEX
8
CUT
10
82.5
20
11.7
0
VERTEX
8
CUT
10
83.3409
20
10.1584
0
SEQEND
0
POLYLINE
8
CUT
66
1
70
0
0
VERTEX
8
CUT
10
84.0591
20
19.8416
0
VERTEX
8
CUT
10
84.9
20
18.3
0
VERTEX
8
CUT
10
84.9
20
11.7
0
VERTEX
8
CUT
10
84.0591
20
10.1584
0
SEQEND
0
POLYLINE
8
CUT
66
1
70
0
0
VERTEX
8
CUT
10
83.3409
20
8.8416
0
VERTEX
8
CUT
10
82.5
20
7.3
0
VERTEX
8
CUT
10
82.5
20
0.7
0
VERTEX
8
CUT
10
82.8818
20
0
0
SEQEND
0
POLYLINE
8
CUT
66
1
70
0
0
VERTEX
8
CUT
10
84.0591
20
8.8416
0
VERTEX
8
CUT
10
84.9
20
7.3
0
VERTEX
8
CUT
10
84.9
20
0.7
0
VERTEX
8
CUT
10
84.5182
20
0
0
SEQEND
0
POLYLINE
8
CUT
66
1
70
0
0
VERTEX
8
CUT
10
86.6409
20
69.3416
0
VERTEX
8
CUT
10
85.8
20
67.8
0
VERTEX
8
CUT
10
85.8
20
61.2
0
VERTEX
8
CUT
10
86.6409
20
59.6584
0
SEQEND
0
POLYLINE
8
CUT
66
1
70
0
0
VERTEX
8
CUT
10
87.3591
20
69.3416
0
VERTEX
8
CUT
10
88.2
20
67.8
0
VERTEX
8
CUT
10
88.2
20
61.2
0
VERTEX
8
CUT
10
87.3591
20
59.6584
0
SEQEND
0
POLYLINE
8
CUT
66
1
70
0
0
VERTEX
8
CUT
10
86.6409
20
58.3416
0
VERTEX
8
CUT
10
85.8
20
56.8
0
VERTEX
8
CUT
10
85.8
20
50.2
0
VERTEX
8
CUT
10
86.6409
20
48.6584
0
SEQEND
0
POLYLINE
8
CUT
66
1
70
0
0
VERTEX
8
CUT
10
87.3591
20
58.3416
0
VERTEX
8
CUT
10
88.2
20
56.8
0
VERTEX
8
CUT
10
88.2
20
50.2
0
VERTEX
8
CUT
10
87.3591
20
48.6584
0
SEQEND
0
POLYLINE
8
CUT
66
1
70
0
0
VERTEX
8
CUT
10
86.6409
20
47.3416
0
VERTEX
8
CUT
10
85.8
20
45.8
0
VERTEX
8
CUT
10
85.8
20
39.2
0
VERTEX
8
CUT
10
86.6409
20
37.6584
0
SEQEND
0
POLYLINE
8
CUT
66
1
70
0
0
VERTEX
8
CUT
10
87.3591
20
47.3416
0
VERTEX
8
CUT
10
88.2
20
45.8
0
VERTEX
8
CUT
10
88.2
20
39.2
0
VERTEX
8
CUT
10
87.3591
20
37.6584
0
SEQEND
0
POLYLINE
8
CUT
66
1
70
0
0
VERTEX
8
CUT
10
86.6409
20
36.3416
0
VERTEX
8
CUT
10
85.8
20
34.8
0
VERTEX
8
CUT
10
85.8
20
28.2
0
VERTEX
8
CUT
10
86.6409
20
26.6584
0
SEQEND
0
POLYLINE
8
CUT
66
1
70
0
0
VERTEX
8
CUT
10
87.3591
20
36.3416
0
VERTEX
8
CUT
10
88.2
20
34.8
0
VERTEX
8
CUT
10
88.2
20
28.2
0
VERTEX
8
CUT
10
87.3591
20
26.6584
0
SEQEND
0
POLYLINE
8
CUT
66
1
70
0
0
VERTEX
8
CUT
10
86.6409
20
25.3416
0
VERTEX
8
CUT
10
85.8
20
23.8
0
VERTEX
8
CUT
10
85.8
20
17.2
0
VERTEX
8
CUT
10
86.6409
20
15.6584
0
SEQEND
0
POLYLINE
8
CUT
66
1
70
0
0
VERTEX
8
CUT
10
87.3591
20
25.3416
0
VERTEX
8
CUT
10
88.2
20
23.8
0
VERTEX
8
CUT
10
88.2
20
17.2
0
VERTEX
8
CUT
10
87.3591
20
15.6584
0
SEQEND
0
POLYLINE
8
CUT
66
1
70
0
0
VERTEX
8
CUT
10
86.6409
20
14.3416
0
VERTEX
8
CUT
10
85.8
20
12.8
0
VERTEX
8
CUT
10
85.8
20
6.2
0
VERTEX
8
CUT
10
86.6409
20
4.6584
0
SEQEND
0
POLYLINE
8
CUT
66
1
70
0
0
VERTEX
8
CUT
10
87.3591
20
14.3416
0
VERTEX
8
CUT
10
88.2
20
12.8
0
VERTEX
8
CUT
10
88.2
20
6.2
0
VERTEX
8
CUT
10
87.3591
20
4.6584
0
SEQEND
0
POLYLINE
8
CUT
66
1
70
0
0
VERTEX
8
CUT
10
86.6409
20
3.3416
0
VERTEX
8
CUT
10
85.8
20
1.8
0
VERTEX
8
CUT
10
85.8
20
0
0
SEQEND
0
POLYLINE
8
CUT
66
1
70
0
0
VERTEX
8
CUT
10
87.3591
20
3.3416
0
VERTEX
8
CUT
10
88.2
20
1.8
0
VERTEX
8
CUT
10
88.2
20
0
0
SEQEND
0
POLYLINE
8
CUT
66
1
70
0
0
VERTEX
8
CUT
10
89.1
20
70
0
VERTEX
8
CUT
10
89.1
20
66.7
0
VERTEX
8
CUT
10
89.9409
20
65.1584
0
SEQEND
0
POLYLINE
8
CUT
66
1
70
0
0
VERTEX
8
CUT
10
91.5
20
70
0
VERTEX
8
CUT
10
91.5
20
66.7
0
VERTEX
8
CUT
10
90.6591
20
65.1584
0
SEQEND
0
POLYLINE
8
CUT
66
1
70
0
0
VERTEX
8
CUT
10
89.9409
20
63.8416
0
VERTEX
8
CUT
10
89.1
20
62.3
0
VERTEX
8
CUT
10
89.1
20
55.7
0
VERTEX
8
CUT
10
89.9409
20
54.1584
0
SEQEND
0
POLYLINE
8
CUT
66
1
70
0
0
VERTEX
8
CUT
10
90.6591
20
63.8416
0
VERTEX
8
CUT
10
91.5
20
62.3
0
VERTEX
8
CUT
10
91.5
20
55.7
0
VERTEX
8
CUT
10
90.6591
20
54.1584
0
SEQEND
0
POLYLINE
8
CUT
66
1
70
0
0
VERTEX
8
CUT
10
89.9409
20
52.8416
0
VERTEX
8
CUT
10
89.1
20
51.3
0
VERTEX
8
CUT
10
89.1
20
44.7
0
VERTEX
8
CUT
10
89.9409
20
43.1584
0
SEQEND
0
POLYLINE
8
CUT
66
1
70
0
0
VERTEX
8
CUT
10
90.6591
20
52.8416
0
VERTEX
8
CUT
10
91.5
20
51.3
0
VERTEX
8
CUT
10
91.5
20
44.7
0
VERTEX
8
CUT
10
90.6591
20
43.1584
0
SEQEND
0
POLYLINE
8
CUT
66
1
70
0
0
VERTEX
8
CUT
10
89.9409
20
41.8416
0
VERTEX
8
CUT
10
89.1
20
40.3
0
VERTEX
8
CUT
10
89.1
20
33.7
0
VERTEX
8
CUT
10
89.9409
20
32.1584
0
SEQEND
0
POLYLINE
8
CUT
66
1
70
0
0
VERTEX
8
CUT
10
90.6591
20
41.8416
0
VERTEX
8
CUT
10
91.5
20
40.3
0
VERTEX
8
CUT
10
91.5
20
33.7
0
VERTEX
8
CUT
10
90.6591
20
32.1584
0
SEQEND
0
POLYLINE
8
CUT
66
1
70
0
0
VERTEX
8
CUT
10
89.9409
20
30.8416
0
VERTEX
8
CUT
10
89.1
20
29.3
0
VERTEX
8
CUT
10
89.1
20
22.7
0
VERTEX
8
CUT
10
89.9409
20
21.1584
0
SEQEND
0
POLYLINE
8
CUT
66
1
70
0
0
VERTEX
8
CUT
10
90.6591
20
30.8416
0
VERTEX
8
CUT
10
91.5
20
29.3
0
VERTEX
8
CUT
10
91.5
20
22.7
0
VERTEX
8
CUT
10
90.6591
20
21.1584
0
SEQEND
0
POLYLINE
8
CUT
66
1
70
0
0
VERTEX
8
CUT
10
89.9409
20
19.8416
0
VERTEX
8
CUT
10
89.1
20
18.3
0
VERTEX
8
CUT
10
89.1
20
11.7
0
VERTEX
8
CUT
10
89.9409
20
10.1584
0
SEQEND
0
POLYLINE
8
CUT
66
1
70
0
0
VERTEX
8
CUT
10
90.6591
20
19.8416
0
VERTEX
8
CUT
10
91.5
20
18.3
0
VERTEX
8
CUT
10
91.5
20
11.7
0
VERTEX
8
CUT
10
90.6591
20
10.1584
0
SEQEND
0
POLYLINE
8
CUT
66
1
70
0
0
VERTEX
8
CUT
10
89.9409
20
8.8416
0
VERTEX
8
CUT
10
89.1
20
7.3
0
VERTEX
8
CUT
10
89.1
20
0.7
0
VERTEX
8
CUT
10
89.4818
20
0
0
SEQEND
0
POLYLINE
8
CUT
66
1
70
0
0
VERTEX
8
CUT
10
90.6591
20
8.8416
0
VERTEX
8
CUT
10
91.5
20
7.3
0
VERTEX
8
CUT
10
91.5
20
0.7
0
VERTEX
8
CUT
10
91.1182
20
0
0
SEQEND
0
POLYLINE
8
CUT
66
1
70
0
0
VERTEX
8
CUT
10
93.2409
20
69.3416
0
VERTEX
8
CUT
10
92.4
20
67.8
0
VERTEX
8
CUT
10
92.4
20
61.2
0
VERTEX
8
CUT
10
93.2409
20
59.6584
0
SEQEND
0
POLYLINE
8
CUT
66
1
70
0
0
VERTEX
8
CUT
10
93.9591
20
69.3416
0
VERTEX
8
CUT
10
94.8
20
67.8
0
VERTEX
8
CUT
10
94.8
20
61.2
0
VERTEX
8
CUT
10
93.9591
20
59.6584
0
SEQEND
0
POLYLINE
8
CUT
66
1
70
0
0
VERTEX
8
CUT
10
93.2409
20
58.3416
0
VERTEX
8
CUT
10
92.4
20
56.8
0
VERTEX
8
CUT
10
92.4
20
50.2
0
VERTEX
8
CUT
10
93.2409
20
48.6584
0
SEQEND
0
POLYLINE
8
CUT
66
1
70
0
0
VERTEX
8
CUT
10
93.9591
20
58.3416
0
VERTEX
8
CUT
10
94.8
20
56.8
0
VERTEX
8
CUT
10
94.8
20
50.2
0
VERTEX
8
CUT
10
93.9591
20
48.6584
0
SEQEND
0
POLYLINE
8
CUT
66
1
70
0
0
VERTEX
8
CUT
10
93.2409
20
47.3416
0
VERTEX
8
CUT
10
92.4
20
45.8
0
VERTEX
8
CUT
10
92.4
20
39.2
0
VERTEX
8
CUT
10
93.2409
20
37.6584
0
SEQEND
0
POLYLINE
8
CUT
66
1
70
0
0
VERTEX
8
CUT
10
93.9591
20
47.3416
0
VERTEX
8
CUT
10
94.8
20
45.8
0
VERTEX
8
CUT
10
94.8
20
39.2
0
VERTEX
8
CUT
10
93.9591
20
37.6584
0
SEQEND
0
POLYLINE
8
CUT
66
1
70
0
0
VERTEX
8
CUT
10
93.2409
20
36.3416
0
VERTEX
8
CUT
10
92.4
20
34.8
0
VERTEX
8
CUT
10
92.4
20
28.2
0
VERTEX
8
CUT
10
93.2409
20
26.6584
0
SEQEND
0
POLYLINE
8
CUT
66
1
70
0
0
VERTEX
8
CUT
10
93.9591
20
36.3416
0
VERTEX
8
CUT
10
94.8
20
34.8
0
VERTEX
8
CUT
10
94.8
20
28.2
0
VERTEX
8
CUT
10
93.9591
20
26.6584
0
SEQEND
0
POLYLINE
8
CUT
66
1
70
0
0
VERTEX
8
CUT
10
93.2409
20
25.3416
0
VERTEX
8
CUT
10
92.4
20
23.8
0
VERTEX
8
CUT
10
92.4
20
17.2
0
VERTEX
8
CUT
10
93.2409
20
15.6584
0
SEQEND
0
POLYLINE
8
CUT
66
1
70
0
0
VERTEX
8
CUT
10
93.9591
20
25.3416
0
VERTEX
8
CUT
10
94.8
20
23.8
0
VERTEX
8
CUT
10
94.8
20
17.2
0
VERTEX
8
CUT
10
93.9591
20
15.6584
0
SEQEND
0
POLYLINE
8
CUT
66
1
70
0
0
VERTEX
8
CUT
10
93.2409
20
14.3416
0
VERTEX
8
CUT
10
92.4
20
12.8
0
VERTEX
8
CUT
10
92.4
20
6.2
0
VERTEX
8
CUT
10
93.2409
20
4.6584
0
SEQEND
0
POLYLINE
8
CUT
66
1
70
0
0
VERTEX
8
CUT
10
93.9591
20
14.3416
0
VERTEX
8
CUT
10
94.8
20
12.8
0
VERTEX
8
CUT
10
94.8
20
6.2
0
VERTEX
8
CUT
10
93.9591
20
4.6584
0
SEQEND
0
POLYLINE
8
CUT
66
1
70
0
0
VERTEX
8
CUT
10
93.2409
20
3.3416
0
VERTEX
8
CUT
10
92.4
20
1.8
0
VERTEX
8
CUT
10
92.4
20
0
0
SEQEND
0
POLYLINE
8
CUT
66
1
70
0
0
VERTEX
8
CUT
10
93.9591
20
3.3416
0
VERTEX
8
CUT
10
94.8
20
1.8
0
VERTEX
8
CUT
10
94.8
20
0
0
SEQEND
0
POLYLINE
8
CUT
66
1
70
0
0
VERTEX
8
CUT
10
95.7
20
70
0
VERTEX
8
CUT
10
95.7
20
66.7
0
VERTEX
8
CUT
10
96.5409
20
65.1584
0
SEQEND
0
POLYLINE
8
CUT
66
1
70
0
0
VERTEX
8
CUT
10
98.1
20
70
0
VERTEX
8
CUT
10
98.1
20
66.7
0
VERTEX
8
CUT
10
97.2591
20
65.1584
0
SEQEND
0
POLYLINE
8
CUT
66
1
70
0
0
VERTEX
8
CUT
10
96.5409
20
63.8416
0
VERTEX
8
CUT
10
95.7
20
62.3
0
VERTEX
8
CUT
10
95.7
20
55.7
0
VERTEX
8
CUT
10
96.5409
20
54.1584
0
SEQEND
0
POLYLINE
8
CUT
66
1
70
0
0
VERTEX
8
CUT
10
97.2591
20
63.8416
0
VERTEX
8
CUT
10
98.1
20
62.3
0
VERTEX
8
CUT
10
98.1
20
55.7
0
VERTEX
8
CUT
10
97.2591
20
54.1584
0
SEQEND
0
POLYLINE
8
CUT
66
1
70
0
0
VERTEX
8
CUT
10
96.5409
20
52.8416
0
VERTEX
8
CUT
10
95.7
20
51.3
0
VERTEX
8
CUT
10
95.7
20
44.7
0
VERTEX
8
CUT
10
96.5409
20
43.1584
0
SEQEND
0
POLYLINE
8
CUT
66
1
70
0
0
VERTEX
8
CUT
10
97.2591
20
52.8416
0
VERTEX
8
CUT
10
98.1
20
51.3
0
VERTEX
8
CUT
10
98.1
20
44.7
0
VERTEX
8
CUT
10
97.2591
20
43.1584
0
SEQEND
0
POLYLINE
8
CUT
66
1
70
0
0
VERTEX
8
CUT
10
96.5409
20
41.8416
0
VERTEX
8
CUT
10
95.7
20
40.3
0
VERTEX
8
CUT
10
95.7
20
33.7
0
VERTEX
8
CUT
10
96.5409
20
32.1584
0
SEQEND
0
POLYLINE
8
CUT
66
1
70
0
0
VERTEX
8
CUT
10
97.2591
20
41.8416
0
VERTEX
8
CUT
10
98.1
20
40.3
0
VERTEX
8
CUT
10
98.1
20
33.7
0
VERTEX
8
CUT
10
97.2591
20
32.1584
0
SEQEND
0
POLYLINE
8
CUT
66
1
70
0
0
VERTEX
8
CUT
10
96.5409
20
30.8416
0
VERTEX
8
CUT
10
95.7
20
29.3
0
VERTEX
8
CUT
10
95.7
20
22.7
0
VERTEX
8
CUT
10
96.5409
20
21.1584
0
SEQEND
0
POLYLINE
8
CUT
66
1
70
0
0
VERTEX
8
CUT
10
97.2591
20
30.8416
0
VERTEX
8
CUT
10
98.1
20
29.3
0
VERTEX
8
CUT
10
98.1
20
22.7
0
VERTEX
8
CUT
10
97.2591
20
21.1584
0
SEQEND
0
POLYLINE
8
CUT
66
1
70
0
0
VERTEX
8
CUT
10
96.5409
20
19.8416
0
VERTEX
8
CUT
10
95.7
20
18.3
0
VERTEX
8
CUT
10
95.7
20
11.7
0
VERTEX
8
CUT
10
96.5409
20
10.1584
0
SEQEND
0
POLYLINE
8
CUT
66
1
70
0
0
VERTEX
8
CUT
10
97.2591
20
19.8416
0
VERTEX
8
CUT
10
98.1
20
18.3
0
VERTEX
8
CUT
10
98.1
20
11.7
0
VERTEX
8
CUT
10
97.2591
20
10.1584
0
SEQEND
0
POLYLINE
8
CUT
66
1
70
0
0
VERTEX
8
CUT
10
96.5409
20
8.8416
0
VERTEX
8
CUT
10
95.7
20
7.3
0
VERTEX
8
CUT
10
95.7
20
0.7
0
VERTEX
8
CUT
10
96.0818
20
0
0
SEQEND
0
POLYLINE
8
CUT
66
1
70
0
0
VERTEX
8
CUT
10
97.2591
20
8.8416
0
VERTEX
8
CUT
10
98.1
20
7.3
0
VERTEX
8
CUT
10
98.1
20
0.7
0
VERTEX
8
CUT
10
97.7182
20
0
0
SEQEND
0
POLYLINE
8
CUT
66
1
70
0
0
VERTEX
8
CUT
10
99.8409
20
69.3416
0
VERTEX
8
CUT
10
99
20
67.8
0
VERTEX
8
CUT
10
99
20
61.2
0
VERTEX
8
CUT
10
99.8409
20
59.6584
0
SEQEND
0
POLYLINE
8
CUT
66
1
70
0
0
VERTEX
8
CUT
10
100.5591
20
69.3416
0
VERTEX
8
CUT
10
101.4
20
67.8
0
VERTEX
8
CUT
10
101.4
20
61.2
0
VERTEX
8
CUT
10
100.5591
20
59.6584
0
SEQEND
0
POLYLINE
8
CUT
66
1
70
0
0
VERTEX
8
CUT
10
99.8409
20
58.3416
0
VERTEX
8
CUT
10
99
20
56.8
0
VERTEX
8
CUT
10
99
20
50.2
0
VERTEX
8
CUT
10
99.8409
20
48.6584
0
SEQEND
0
POLYLINE
8
CUT
66
1
70
0
0
VERTEX
8
CUT
10
100.5591
20
58.3416
0
VERTEX
8
CUT
10
101.4
20
56.8
0
VERTEX
8
CUT
10
101.4
20
50.2
0
VERTEX
8
CUT
10
100.5591
20
48.6584
0
SEQEND
0
POLYLINE
8
CUT
66
1
70
0
0
VERTEX
8
CUT
10
99.8409
20
47.3416
0
VERTEX
8
CUT
10
99
20
45.8
0
VERTEX
8
CUT
10
99
20
39.2
0
VERTEX
8
CUT
10
99.8409
20
37.6584
0
SEQEND
0
POLYLINE
8
CUT
66
1
70
0
0
VERTEX
8
CUT
10
100.5591
20
47.3416
0
VERTEX
8
CUT
10
101.4
20
45.8
0
VERTEX
8
CUT
10
101.4
20
39.2
0
VERTEX
8
CUT
10
100.5591
20
37.6584
0
SEQEND
0
POLYLINE
8
CUT
66
1
70
0
0
VERTEX
8
CUT
10
99.8409
20
36.3416
0
VERTEX
8
CUT
10
99
20
34.8
0
VERTEX
8
CUT
10
99
20
28.2
0
VERTEX
8
CUT
10
99.8409
20
26.6584
0
SEQEND
0
POLYLINE
8
CUT
66
1
70
0
0
VERTEX
8
CUT
10
100.5591
20
36.3416
0
VERTEX
8
CUT
10
101.4
20
34.8
0
VERTEX
8
CUT
10
101.4
20
28.2
0
VERTEX
8
CUT
10
100.5591
20
26.6584
0
SEQEND
0
POLYLINE
8
CUT
66
1
70
0
0
VERTEX
8
CUT
10
99.8409
20
25.3416
0
VERTEX
8
CUT
10
99
20
23.8
0
VERTEX
8
CUT
10
99
20
17.2
0
VERTEX
8
CUT
10
99.8409
20
15.6584
0
SEQEND
0
POLYLINE
8
CUT
66
1
70
0
0
VERTEX
8
CUT
10
100.5591
20
25.3416
0
VERTEX
8
CUT
10
101.4
20
23.8
0
VERTEX
8
CUT
10
101.4
20
17.2
0
VERTEX
8
CUT
10
100.5591
20
15.6584
0
SEQEND
0
POLYLINE
8
CUT
66
1
70
0
0
VERTEX
8
CUT
10
99.8409
20
14.3416
0
VERTEX
8
CUT
10
99
20
12.8
0
VERTEX
8
CUT
10
99
20
6.2
0
VERTEX
8
CUT
10
99.8409
20
4.6584
0
SEQEND
0
POLYLINE
8
CUT
66
1
70
0
0
VERTEX
8
CUT
10
100.5591
20
14.3416
0
VERTEX
8
CUT
10
101.4
20
12.8
0
VERTEX
8
CUT
10
101.4
20
6.2
0
VERTEX
8
CUT
10
100.5591
20
4.6584
0
SEQEND
0
POLYLINE
8
CUT
66
1
70
0
0
VERTEX
8
CUT
10
99.8409
20
3.3416
0
VERTEX
8
CUT
10
99
20
1.8
0
VERTEX
8
CUT
10
99
20
0
0
SEQEND
0
POLYLINE
8
CUT
66
1
70
0
0
VERTEX
8
CUT
10
100.5591
20
3.3416
0
VERTEX
8
CUT
10
101.4
20
1.8
0
VERTEX
8
CUT
10
101.4
20
0
0
SEQEND
0
POLYLINE
8
CUT
66
1
70
0
0
VERTEX
8
CUT
10
102.3
20
70
0
VERTEX
8
CUT
10
102.3
20
66.7
0
VERTEX
8
CUT
10
103.1409
20
65.1584
0
SEQEND
0
POLYLINE
8
CUT
66
1
70
0
0
VERTEX
8
CUT
10
104.7
20
70
0
VERTEX
8
CUT
10
104.7
20
66.7
0
VERTEX
8
CUT
10
103.8591
20
65.1584
0
SEQEND
0
POLYLINE
8
CUT
66
1
70
0
0
VERTEX
8
CUT
10
103.1409
20
63.8416
0
VERTEX
8
CUT
10
102.3
20
62.3
0
VERTEX
8
CUT
10
102.3
20
55.7
0
VERTEX
8
CUT
10
103.1409
20
54.1584
0
SEQEND
0
POLYLINE
8
CUT
66
1
70
0
0
VERTEX
8
CUT
10
103.8591
20
63.8416
0
VERTEX
8
CUT
10
104.7
20
62.3
0
VERTEX
8
CUT
10
104.7
20
55.7
0
VERTEX
8
CUT
10
103.8591
20
54.1584
0
SEQEND
0
POLYLINE
8
CUT
66
1
70
0
0
VERTEX
8
CUT
10
103.1409
20
52.8416
0
VERTEX
8
CUT
10
102.3
20
51.3
0
VERTEX
8
CUT
10
102.3
20
44.7
0
VERTEX
8
CUT
10
103.1409
20
43.1584
0
SEQEND
0
POLYLINE
8
CUT
66
1
70
0
0
VERTEX
8
CUT
10
103.8591
20
52.8416
0
VERTEX
8
CUT
10
104.7
20
51.3
0
VERTEX
8
CUT
10
104.7
20
44.7
0
VERTEX
8
CUT
10
103.8591
20
43.1584
0
SEQEND
0
POLYLINE
8
CUT
66
1
70
0
0
VERTEX
8
CUT
10
103.1409
20
41.8416
0
VERTEX
8
CUT
10
102.3
20
40.3
0
VERTEX
8
CUT
10
102.3
20
33.7
0
VERTEX
8
CUT
10
103.1409
20
32.1584
0
SEQEND
0
POLYLINE
8
CUT
66
1
70
0
0
VERTEX
8
CUT
10
103.8591
20
41.8416
0
VERTEX
8
CUT
10
104.7
20
40.3
0
VERTEX
8
CUT
10
104.7
20
33.7
0
VERTEX
8
CUT
10
103.8591
20
32.1584
0
SEQEND
0
POLYLINE
8
CUT
66
1
70
0
0
VERTEX
8
CUT
10
103.1409
20
30.8416
0
VERTEX
8
CUT
10
102.3
20
29.3
0
VERTEX
8
CUT
10
102.3
20
22.7
0
VERTEX
8
CUT
10
103.1409
20
21.1584
0
SEQEND
0
POLYLINE
8
CUT
66
1
70
0
0
VERTEX
8
CUT
10
103.8591
20
30.8416
0
VERTEX
8
CUT
10
104.7
20
29.3
0
VERTEX
8
CUT
10
104.7
20
22.7
0
VERTEX
8
CUT
10
103.8591
20
21.1584
0
SEQEND
0
POLYLINE
8
CUT
66
1
70
0
0
VERTEX
8
CUT
10
103.1409
20
19.8416
0
VERTEX
8
CUT
10
102.3
20
18.3
0
VERTEX
8
CUT
10
102.3
20
11.7
0
VERTEX
8
CUT
10
103.1409
20
10.1584
0
SEQEND
0
POLYLINE
8
CUT
66
1
70
0
0
VERTEX
8
CUT
10
103.8591
20
19.8416
0
VERTEX
8
CUT
10
104.7
20
18.3
0
VERTEX
8
CUT
10
104.7
20
11.7
0
VERTEX
8
CUT
10
103.8591
20
10.1584
0
SEQEND
0
POLYLINE
8
CUT
66
1
70
0
0
VERTEX
8
CUT
10
103.1409
20
8.8416
0
VERTEX
8
CUT
10
102.3
20
7.3
0
VERTEX
8
CUT
10
102.3
20
0.7
0
VERTEX
8
CUT
10
102.6818
20
0
0
SEQEND
0
POLYLINE
8
CUT
66
1
70
0
0
VERTEX
8
CUT
10
103.8591
20
8.8416
0
VERTEX
8
CUT
10
104.7
20
7.3
0
VERTEX
8
CUT
10
104.7
20
0.7
0
VERTEX
8
CUT
10
104.3182
20
0
0
SEQEND
0
POLYLINE
8
CUT
66
1
70
0
0
VERTEX
8
CUT
10
106.4409
20
69.3416
0
VERTEX
8
CUT
10
105.6
20
67.8
0
VERTEX
8
CUT
10
105.6
20
61.2
0
VERTEX
8
CUT
10
106.4409
20
59.6584
0
SEQEND
0
POLYLINE
8
CUT
66
1
70
0
0
VERTEX
8
CUT
10
107.1591
20
69.3416
0
VERTEX
8
CUT
10
108
20
67.8
0
VERTEX
8
CUT
10
108
20
61.2
0
VERTEX
8
CUT
10
107.1591
20
59.6584
0
SEQEND
0
POLYLINE
8
CUT
66
1
70
0
0
VERTEX
8
CUT
10
106.4409
20
58.3416
0
VERTEX
8
CUT
10
105.6
20
56.8
0
VERTEX
8
CUT
10
105.6
20
50.2
0
VERTEX
8
CUT
10
106.4409
20
48.6584
0
SEQEND
0
POLYLINE
8
CUT
66
1
70
0
0
VERTEX
8
CUT
10
107.1591
20
58.3416
0
VERTEX
8
CUT
10
108
20
56.8
0
VERTEX
8
CUT
10
108
20
50.2
0
VERTEX
8
CUT
10
107.1591
20
48.6584
0
SEQEND
0
POLYLINE
8
CUT
66
1
70
0
0
VERTEX
8
CUT
10
106.4409
20
47.3416
0
VERTEX
8
CUT
10
105.6
20
45.8
0
VERTEX
8
CUT
10
105.6
20
39.2
0
VERTEX
8
CUT
10
106.4409
20
37.6584
0
SEQEND
0
POLYLINE
8
CUT
66
1
70
0
0
VERTEX
8
CUT
10
107.1591
20
47.3416
0
VERTEX
8
CUT
10
108
20
45.8
0
VERTEX
8
CUT
10
108
20
39.2
0
VERTEX
8
CUT
10
107.1591
20
37.6584
0
SEQEND
0
POLYLINE
8
CUT
66
1
70
0
0
VERTEX
8
CUT
10
106.4409
20
36.3416
0
VERTEX
8
CUT
10
105.6
20
34.8
0
VERTEX
8
CUT
10
105.6
20
28.2
0
VERTEX
8
CUT
10
106.4409
20
26.6584
0
SEQEND
0
POLYLINE
8
CUT
66
1
70
0
0
VERTEX
8
CUT
10
107.1591
20
36.3416
0
VERTEX
8
CUT
10
108
20
34.8
0
VERTEX
8
CUT
10
108
20
28.2
0
VERTEX
8
CUT
10
107.1591
20
26.6584
0
SEQEND
0
POLYLINE
8
CUT
66
1
70
0
0
VERTEX
8
CUT
10
106.4409
20
25.3416
0
VERTEX
8
CUT
10
105.6
20
23.8
0
VERTEX
8
CUT
10
105.6
20
17.2
0
VERTEX
8
CUT
10
106.4409
20
15.6584
0
SEQEND
0
POLYLINE
8
CUT
66
1
70
0
0
VERTEX
8
CUT
10
107.1591
20
25.3416
0
VERTEX
8
CUT
10
108
20
23.8
0
VERTEX
8
CUT
10
108
20
17.2
0
VERTEX
8
CUT
10
107.1591
20
15.6584
0
SEQEND
0
POLYLINE
8
CUT
66
1
70
0
0
VERTEX
8
CUT
10
106.4409
20
14.3416
0
VERTEX
8
CUT
10
105.6
20
12.8
0
VERTEX
8
CUT
10
105.6
20
6.2
0
VERTEX
8
CUT
10
106.4409
20
4.6584
0
SEQEND
0
POLYLINE
8
CUT
66
1
70
0
0
VERTEX
8
CUT
10
107.1591
20
14.3416
0
VERTEX
8
CUT
10
108
20
12.8
0
VERTEX
8
CUT
10
108
20
6.2
0
VERTEX
8
CUT
10
107.1591
20
4.6584
0
SEQEND
0
POLYLINE
8
CUT
66
1
70
0
0
VERTEX
8
CUT
10
106.4409
20
3.3416
0
VERTEX
8
CUT
10
105.6
20
1.8
0
VERTEX
8
CUT
10
105.6
20
0
0
SEQEND
0
POLYLINE
8
CUT
66
1
70
0
0
VERTEX
8
CUT
10
107.1591
20
3.3416
0
VERTEX
8
CUT
10
108
20
1.8
0
VERTEX
8
CUT
10
108
20
0
0
SEQEND
0
POLYLINE
8
CUT
66
1
70
0
0
VERTEX
8
CUT
10
108.9
20
70
0
VERTEX
8
CUT
10
108.9
20
66.7
0
VERTEX
8
CUT
10
109.7409
20
65.1584
0
SEQEND
0
POLYLINE
8
CUT
66
1
70
0
0
VERTEX
8
CUT
10
111.3
20
70
0
VERTEX
8
CUT
10
111.3
20
66.7
0
VERTEX
8
CUT
10
110.4591
20
65.1584
0
SEQEND
0
POLYLINE
8
CUT
66
1
70
0
0
VERTEX
8
CUT
10
109.7409
20
63.8416
0
VERTEX
8
CUT
10
108.9
20
62.3
0
VERTEX
8
CUT
10
108.9
20
55.7
0
VERTEX
8
CUT
10
109.7409
20
54.1584
0
SEQEND
0
POLYLINE
8
CUT
66
1
70
0
0
VERTEX
8
CUT
10
110.4591
20
63.8416
0
VERTEX
8
CUT
10
111.3
20
62.3
0
VERTEX
8
CUT
10
111.3
20
55.7
0
VERTEX
8
CUT
10
110.4591
20
54.1584
0
SEQEND
0
POLYLINE
8
CUT
66
1
70
0
0
VERTEX
8
CUT
10
109.7409
20
52.8416
0
VERTEX
8
CUT
10
108.9
20
51.3
0
VERTEX
8
CUT
10
108.9
20
44.7
0
VERTEX
8
CUT
10
109.7409
20
43.1584
0
SEQEND
0
POLYLINE
8
CUT
66
1
70
0
0
VERTEX
8
CUT
10
110.4591
20
52.8416
0
VERTEX
8
CUT
10
111.3
20
51.3
0
VERTEX
8
CUT
10
111.3
20
44.7
0
VERTEX
8
CUT
10
110.4591
20
43.1584
0
SEQEND
0
POLYLINE
8
CUT
66
1
70
0
0
VERTEX
8
CUT
10
109.7409
20
41.8416
0
VERTEX
8
CUT
10
108.9
20
40.3
0
VERTEX
8
CUT
10
108.9
20
33.7
0
VERTEX
8
CUT
10
109.7409
20
32.1584
0
SEQEND
0
POLYLINE
8
CUT
66
1
70
0
0
VERTEX
8
CUT
10
110.4591
20
41.8416
0
VERTEX
8
CUT
10
111.3
20
40.3
0
VERTEX
8
CUT
10
111.3
20
33.7
0
VERTEX
8
CUT
10
110.4591
20
32.1584
0
SEQEND
0
POLYLINE
8
CUT
66
1
70
0
0
VERTEX
8
CUT
10
109.7409
20
30.8416
0
VERTEX
8
CUT
10
108.9
20
29.3
0
VERTEX
8
CUT
10
108.9
20
22.7
0
VERTEX
8
CUT
10
109.7409
20
21.1584
0
SEQEND
0
POLYLINE
8
CUT
66
1
70
0
0
VERTEX
8
CUT
10
110.4591
20
30.8416
0
VERTEX
8
CUT
10
111.3
20
29.3
0
VERTEX
8
CUT
10
111.3
20
22.7
0
VERTEX
8
CUT
10
110.4591
20
21.1584
0
SEQEND
0
POLYLINE
8
CUT
66
1
70
0
0
VERTEX
8
CUT
10
109.7409
20
19.8416
0
VERTEX
8
CUT
10
108.9
20
18.3
0
VERTEX
8
CUT
10
108.9
20
11.7
0
VERTEX
8
CUT
10
109.7409
20
10.1584
0
SEQEND
0
POLYLINE
8
CUT
66
1
70
0
0
VERTEX
8
CUT
10
110.4591
20
19.8416
0
VERTEX
8
CUT
10
111.3
20
18.3
0
VERTEX
8
CUT
10
111.3
20
11.7
0
VERTEX
8
CUT
10
110.4591
20
10.1584
0
SEQEND
0
POLYLINE
8
CUT
66
1
70
0
0
VERTEX
8
CUT
10
109.7409
20
8.8416
0
VERTEX
8
CUT
10
108.9
20
7.3
0
VERTEX
8
CUT
10
108.9
20
0.7
0
VERTEX
8
CUT
10
109.2818
20
0
0
SEQEND
0
POLYLINE
8
CUT
66
1
70
0
0
VERTEX
8
CUT
10
110.4591
20
8.8416
0
VERTEX
8
CUT
10
111.3
20
7.3
0
VERTEX
8
CUT
10
111.3
20
0.7
0
VERTEX
8
CUT
10
110.9182
20
0
0
SEQEND
0
POLYLINE
8
CUT
66
1
70
0
0
VERTEX
8
CUT
10
113.0409
20
69.3416
0
VERTEX
8
CUT
10
112.2
20
67.8
0
VERTEX
8
CUT
10
112.2
20
61.2
0
VERTEX
8
CUT
10
113.0409
20
59.6584
0
SEQEND
0
POLYLINE
8
CUT
66
1
70
0
0
VERTEX
8
CUT
10
113.7591
20
69.3416
0
VERTEX
8
CUT
10
114.6
20
67.8
0
VERTEX
8
CUT
10
114.6
20
61.2
0
VERTEX
8
CUT
10
113.7591
20
59.6584
0
SEQEND
0
POLYLINE
8
CUT
66
1
70
0
0
VERTEX
8
CUT
10
113.0409
20
58.3416
0
VERTEX
8
CUT
10
112.2
20
56.8
0
VERTEX
8
CUT
10
112.2
20
50.2
0
VERTEX
8
CUT
10
113.0409
20
48.6584
0
SEQEND
0
POLYLINE
8
CUT
66
1
70
0
0
VERTEX
8
CUT
10
113.7591
20
58.3416
0
VERTEX
8
CUT
10
114.6
20
56.8
0
VERTEX
8
CUT
10
114.6
20
50.2
0
VERTEX
8
CUT
10
113.7591
20
48.6584
0
SEQEND
0
POLYLINE
8
CUT
66
1
70
0
0
VERTEX
8
CUT
10
113.0409
20
47.3416
0
VERTEX
8
CUT
10
112.2
20
45.8
0
VERTEX
8
CUT
10
112.2
20
39.2
0
VERTEX
8
CUT
10
113.0409
20
37.6584
0
SEQEND
0
POLYLINE
8
CUT
66
1
70
0
0
VERTEX
8
CUT
10
113.7591
20
47.3416
0
VERTEX
8
CUT
10
114.6
20
45.8
0
VERTEX
8
CUT
10
114.6
20
39.2
0
VERTEX
8
CUT
10
113.7591
20
37.6584
0
SEQEND
0
POLYLINE
8
CUT
66
1
70
0
0
VERTEX
8
CUT
10
113.0409
20
36.3416
0
VERTEX
8
CUT
10
112.2
20
34.8
0
VERTEX
8
CUT
10
112.2
20
28.2
0
VERTEX
8
CUT
10
113.0409
20
26.6584
0
SEQEND
0
POLYLINE
8
CUT
66
1
70
0
0
VERTEX
8
CUT
10
113.7591
20
36.3416
0
VERTEX
8
CUT
10
114.6
20
34.8
0
VERTEX
8
CUT
10
114.6
20
28.2
0
VERTEX
8
CUT
10
113.7591
20
26.6584
0
SEQEND
0
POLYLINE
8
CUT
66
1
70
0
0
VERTEX
8
CUT
10
113.0409
20
25.3416
0
VERTEX
8
CUT
10
112.2
20
23.8
0
VERTEX
8
CUT
10
112.2
20
17.2
0
VERTEX
8
CUT
10
113.0409
20
15.6584
0
SEQEND
0
POLYLINE
8
CUT
66
1
70
0
0
VERTEX
8
CUT
10
113.7591
20
25.3416
0
VERTEX
8
CUT
10
114.6
20
23.8
0
VERTEX
8
CUT
10
114.6
20
17.2
0
VERTEX
8
CUT
10
113.7591
20
15.6584
0
SEQEND
0
POLYLINE
8
CUT
66
1
70
0
0
VERTEX
8
CUT
10
113.0409
20
14.3416
0
VERTEX
8
CUT
10
112.2
20
12.8
0
VERTEX
8
CUT
10
112.2
20
6.2
0
VERTEX
8
CUT
10
113.0409
20
4.6584
0
SEQEND
0
POLYLINE
8
CUT
66
1
70
0
0
VERTEX
8
CUT
10
113.7591
20
14.3416
0
VERTEX
8
CUT
10
114.6
20
12.8
0
VERTEX
8
CUT
10
114.6
20
6.2
0
VERTEX
8
CUT
10
113.7591
20
4.6584
0
SEQEND
0
POLYLINE
8
CUT
66
1
70
0
0
VERTEX
8
CUT
10
113.0409
20
3.3416
0
VERTEX
8
CUT
10
112.2
20
1.8
0
VERTEX
8
CUT
10
112.2
20
0
0
SEQEND
0
POLYLINE
8
CUT
66
1
70
0
0
VERTEX
8
CUT
10
113.7591
20
3.3416
0
VERTEX
8
CUT
10
114.6
20
1.8
0
VERTEX
8
CUT
10
114.6
20
0
0
SEQEND
0
POLYLINE
8
CUT
66
1
70
0
0
VERTEX
8
CUT
10
115.5
20
70
0
VERTEX
8
CUT
10
115.5
20
66.7
0
VERTEX
8
CUT
10
116.3409
20
65.1584
0
SEQEND
0
POLYLINE
8
CUT
66
1
70
0
0
VERTEX
8
CUT
10
117.9
20
70
0
VERTEX
8
CUT
10
117.9
20
66.7
0
VERTEX
8
CUT
10
117.0591
20
65.1584
0
SEQEND
0
POLYLINE
8
CUT
66
1
70
0
0
VERTEX
8
CUT
10
116.3409
20
63.8416
0
VERTEX
8
CUT
10
115.5
20
62.3
0
VERTEX
8
CUT
10
115.5
20
55.7
0
VERTEX
8
CUT
10
116.3409
20
54.1584
0
SEQEND
0
POLYLINE
8
CUT
66
1
70
0
0
VERTEX
8
CUT
10
117.0591
20
63.8416
0
VERTEX
8
CUT
10
117.9
20
62.3
0
VERTEX
8
CUT
10
117.9
20
55.7
0
VERTEX
8
CUT
10
117.0591
20
54.1584
0
SEQEND
0
POLYLINE
8
CUT
66
1
70
0
0
VERTEX
8
CUT
10
116.3409
20
52.8416
0
VERTEX
8
CUT
10
115.5
20
51.3
0
VERTEX
8
CUT
10
115.5
20
44.7
0
VERTEX
8
CUT
10
116.3409
20
43.1584
0
SEQEND
0
POLYLINE
8
CUT
66
1
70
0
0
VERTEX
8
CUT
10
117.0591
20
52.8416
0
VERTEX
8
CUT
10
117.9
20
51.3
0
VERTEX
8
CUT
10
117.9
20
44.7
0
VERTEX
8
CUT
10
117.0591
20
43.1584
0
SEQEND
0
POLYLINE
8
CUT
66
1
70
0
0
VERTEX
8
CUT
10
116.3409
20
41.8416
0
VERTEX
8
CUT
10
115.5
20
40.3
0
VERTEX
8
CUT
10
115.5
20
33.7
0
VERTEX
8
CUT
10
116.3409
20
32.1584
0
SEQEND
0
POLYLINE
8
CUT
66
1
70
0
0
VERTEX
8
CUT
10
117.0591
20
41.8416
0
VERTEX
8
CUT
10
117.9
20
40.3
0
VERTEX
8
CUT
10
117.9
20
33.7
0
VERTEX
8
CUT
10
117.0591
20
32.1584
0
SEQEND
0
POLYLINE
8
CUT
66
1
70
0
0
VERTEX
8
CUT
10
116.3409
20
30.8416
0
VERTEX
8
CUT
10
115.5
20
29.3
0
VERTEX
8
CUT
10
115.5
20
22.7
0
VERTEX
8
CUT
10
116.3409
20
21.1584
0
SEQEND
0
POLYLINE
8
CUT
66
1
70
0
0
VERTEX
8
CUT
10
117.0591
20
30.8416
0
VERTEX
8
CUT
10
117.9
20
29.3
0
VERTEX
8
CUT
10
117.9
20
22.7
0
VERTEX
8
CUT
10
117.0591
20
21.1584
0
SEQEND
0
POLYLINE
8
CUT
66
1
70
0
0
VERTEX
8
CUT
10
116.3409
20
19.8416
0
VERTEX
8
CUT
10
115.5
20
18.3
0
VERTEX
8
CUT
10
115.5
20
11.7
0
VERTEX
8
CUT
10
116.3409
20
10.1584
0
SEQEND
0
POLYLINE
8
CUT
66
1
70
0
0
VERTEX
8
CUT
10
117.0591
20
19.8416
0
VERTEX
8
CUT
10
117.9
20
18.3
0
VERTEX
8
CUT
10
117.9
20
11.7
0
VERTEX
8
CUT
10
117.0591
20
10.1584
0
SEQEND
0
POLYLINE
8
CUT
66
1
70
0
0
VERTEX
8
CUT
10
116.3409
20
8.8416
0
VERTEX
8
CUT
10
115.5
20
7.3
0
VERTEX
8
CUT
10
115.5
20
0.7
0
VERTEX
8
CUT
10
115.8818
20
0
0
SEQEND
0
POLYLINE
8
CUT
66
1
70
0
0
VERTEX
8
CUT
10
117.0591
20
8.8416
0
VERTEX
8
CUT
10
117.9
20
7.3
0
VERTEX
8
CUT
10
117.9
20
0.7
0
VERTEX
8
CUT
10
117.5182
20
0
0
SEQEND
0
POLYLINE
8
CUT
66
1
70
0
0
VERTEX
8
CUT
10
119.6409
20
69.3416
0
VERTEX
8
CUT
10
118.8
20
67.8
0
VERTEX
8
CUT
10
118.8
20
61.2
0
VERTEX
8
CUT
10
119.6409
20
59.6584
0
SEQEND
0
POLYLINE
8
CUT
66
1
70
0
0
VERTEX
8
CUT
10
119.6409
20
58.3416
0
VERTEX
8
CUT
10
118.8
20
56.8
0
VERTEX
8
CUT
10
118.8
20
50.2
0
VERTEX
8
CUT
10
119.6409
20
48.6584
0
SEQEND
0
POLYLINE
8
CUT
66
1
70
0
0
VERTEX
8
CUT
10
119.6409
20
47.3416
0
VERTEX
8
CUT
10
118.8
20
45.8
0
VERTEX
8
CUT
10
118.8
20
39.2
0
VERTEX
8
CUT
10
119.6409
20
37.6584
0
SEQEND
0
POLYLINE
8
CUT
66
1
70
0
0
VERTEX
8
CUT
10
119.6409
20
36.3416
0
VERTEX
8
CUT
10
118.8
20
34.8
0
VERTEX
8
CUT
10
118.8
20
28.2
0
VERTEX
8
CUT
10
119.6409
20
26.6584
0
SEQEND
0
POLYLINE
8
CUT
66
1
70
0
0
VERTEX
8
CUT
10
119.6409
20
25.3416
0
VERTEX
8
CUT
10
118.8
20
23.8
0
VERTEX
8
CUT
10
118.8
20
17.2
0
VERTEX
8
CUT
10
119.6409
20
15.6584
0
SEQEND
0
POLYLINE
8
CUT
66
1
70
0
0
VERTEX
8
CUT
10
119.6409
20
14.3416
0
VERTEX
8
CUT
10
118.8
20
12.8
0
VERTEX
8
CUT
10
118.8
20
6.2
0
VERTEX
8
CUT
10
119.6409
20
4.6584
0
SEQEND
0
POLYLINE
8
CUT
66
1
70
0
0
VERTEX
8
CUT
10
119.6409
20
3.3416
0
VERTEX
8
CUT
10
118.8
20
1.8
0
VERTEX
8
CUT
10
118.8
20
0
0
SEQEND
0
POLYLINE
8
CUT
66
1
70
0
0
VERTEX
8
CUT
10
0
20
70
0
VERTEX
8
CUT
10
120
20
70
0
VERTEX
8
CUT
10
120
20
0
0
VERTEX
8
CUT
10
0
20
0
0
VERTEX
8
CUT
10
0
20
70
0
SEQEND
0
ENDSEC
0
EOF
