0
SECTION
2
HEADER
9
$ACADVER
1
AC1009
9
$INSUNITS
70
4
0
ENDSEC
0
SECTION
2
TABLES
0
TABLE
2
LAYER
70
1
0
LAYER
2
CUT
70
0
62
1
6
CONTINUOUS
0
ENDTAB
0
ENDSEC
0
SECTION
2
ENTITIES
0
LINE
8
CUT
10
0
20
69.5438
11
0.682
21
69.97
0
LINE
8
CUT
10
0
20
67.4562
11
0.682
21
67.03
0
LINE
8
CUT
10
0
20
65.5438
11
0.682
21
65.97
0
LINE
8
CUT
10
0
20
63.4562
11
0.682
21
63.03
0
LINE
8
CUT
10
0
20
61.5438
11
0.682
21
61.97
0
LINE
8
CUT
10
0
20
59.4562
11
0.682
21
59.03
0
LINE
8
CUT
10
0
20
57.5438
11
0.682
21
57.97
0
LINE
8
CUT
10
0
20
55.4562
11
0.682
21
55.03
0
LINE
8
CUT
10
0
20
53.5438
11
0.682
21
53.97
0
LINE
8
CUT
10
0
20
51.4562
11
0.682
21
51.03
0
LINE
8
CUT
10
0
20
49.5438
11
0.682
21
49.97
0
LINE
8
CUT
10
0
20
47.4562
11
0.682
21
47.03
0
LINE
8
CUT
10
0
20
45.5438
11
0.682
21
45.97
0
LINE
8
CUT
10
0
20
43.4562
11
0.682
21
43.03
0
LINE
8
CUT
10
0
20
41.5438
11
0.682
21
41.97
0
LINE
8
CUT
10
0
20
39.4562
11
0.682
21
39.03
0
LINE
8
CUT
10
0
20
37.5438
11
0.682
21
37.97
0
LINE
8
CUT
10
0
20
35.4562
11
0.682
21
35.03
0
LINE
8
CUT
10
0
20
33.5438
11
0.682
21
33.97
0
LINE
8
CUT
10
0
20
31.4562
11
0.682
21
31.03
0
LINE
8
CUT
10
0
20
29.5438
11
0.682
21
29.97
0
LINE
8
CUT
10
0
20
27.4562
11
0.682
21
27.03
0
LINE
8
CUT
10
0
20
25.5438
11
0.682
21
25.97
0
LINE
8
CUT
10
0
20
23.4562
11
0.682
21
23.03
0
LINE
8
CUT
10
0
20
21.5438
11
0.682
21
21.97
0
LINE
8
CUT
10
0
20
19.4562
11
0.682
21
19.03
0
LINE
8
CUT
10
0
20
17.5438
11
0.682
21
17.97
0
LINE
8
CUT
10
0
20
15.4562
11
0.682
21
15.03
0
LINE
8
CUT
10
0
20
13.5438
11
0.682
21
13.97
0
LINE
8
CUT
10
0
20
11.4562
11
0.682
21
11.03
0
LINE
8
CUT
10
0
20
9.5438
11
0.682
21
9.97
0
LINE
8
CUT
10
0
20
7.4562
11
0.682
21
7.03
0
LINE
8
CUT
10
0
20
5.5438
11
0.682
21
5.97
0
LINE
8
CUT
10
0
20
3.4562
11
0.682
21
3.03
0
LINE
8
CUT
10
0
20
1.5438
11
0.682
21
1.97
0
POLYLINE
8
CUT
66
1
70
0
0
VERTEX
8
CUT
10
0.848
20
69.03
0
VERTEX
8
CUT
10
2.4
20
70
0
VERTEX
8
CUT
10
9.6
20
70
0
VERTEX
8
CUT
10
11.152
20
69.03
0
SEQEND
0
POLYLINE
8
CUT
66
1
70
0
0
VERTEX
8
CUT
10
0.848
20
67.97
0
VERTEX
8
CUT
10
2.4
20
67
0
VERTEX
8
CUT
10
9.6
20
67
0
VERTEX
8
CUT
10
11.152
20
67.97
0
SEQEND
0
POLYLINE
8
CUT
66
1
70
0
0
VERTEX
8
CUT
10
0.848
20
65.03
0
VERTEX
8
CUT
10
2.4
20
66
0
VERTEX
8
CUT
10
9.6
20
66
0
VERTEX
8
CUT
10
11.152
20
65.03
0
SEQEND
0
POLYLINE
8
CUT
66
1
70
0
0
VERTEX
8
CUT
10
0.848
20
63.97
0
VERTEX
8
CUT
10
2.4
20
63
0
VERTEX
8
CUT
10
9.6
20
63
0
VERTEX
8
CUT
10
11.152
20
63.97
0
SEQEND
0
POLYLINE
8
CUT
66
1
70
0
0
VERTEX
8
CUT
10
0.848
20
61.03
0
VERTEX
8
CUT
10
2.4
20
62
0
VERTEX
8
CUT
10
9.6
20
62
0
VERTEX
8
CUT
10
11.152
20
61.03
0
SEQEND
0
POLYLINE
8
CUT
66
1
70
0
0
VERTEX
8
CUT
10
0.848
20
59.97
0
VERTEX
8
CUT
10
2.4
20
59
0
VERTEX
8
CUT
10
9.6
20
59
0
VERTEX
8
CUT
10
11.152
20
59.97
0
SEQEND
0
POLYLINE
8
CUT
66
1
70
0
0
VERTEX
8
CUT
10
0.848
20
57.03
0
VERTEX
8
CUT
10
2.4
20
58
0
VERTEX
8
CUT
10
9.6
20
58
0
VERTEX
8
CUT
10
11.152
20
57.03
0
SEQEND
0
POLYLINE
8
CUT
66
1
70
0
0
VERTEX
8
CUT
10
0.848
20
55.97
0
VERTEX
8
CUT
10
2.4
20
55
0
VERTEX
8
CUT
10
9.6
20
55
0
VERTEX
8
CUT
10
11.152
20
55.97
0
SEQEND
0
POLYLINE
8
CUT
66
1
70
0
0
VERTEX
8
CUT
10
0.848
20
53.03
0
VERTEX
8
CUT
10
2.4
20
54
0
VERTEX
8
CUT
10
9.6
20
54
0
VERTEX
8
CUT
10
11.152
20
53.03
0
SEQEND
0
POLYLINE
8
CUT
66
1
70
0
0
VERTEX
8
CUT
10
0.848
20
51.97
0
VERTEX
8
CUT
10
2.4
20
51
0
VERTEX
8
CUT
10
9.6
20
51
0
VERTEX
8
CUT
10
11.152
20
51.97
0
SEQEND
0
POLYLINE
8
CUT
66
1
70
0
0
VERTEX
8
CUT
10
0.848
20
49.03
0
VERTEX
8
CUT
10
2.4
20
50
0
VERTEX
8
CUT
10
9.6
20
50
0
VERTEX
8
CUT
10
11.152
20
49.03
0
SEQEND
0
POLYLINE
8
CUT
66
1
70
0
0
VERTEX
8
CUT
10
0.848
20
47.97
0
VERTEX
8
CUT
10
2.4
20
47
0
VERTEX
8
CUT
10
9.6
20
47
0
VERTEX
8
CUT
10
11.152
20
47.97
0
SEQEND
0
POLYLINE
8
CUT
66
1
70
0
0
VERTEX
8
CUT
10
0.848
20
45.03
0
VERTEX
8
CUT
10
2.4
20
46
0
VERTEX
8
CUT
10
9.6
20
46
0
VERTEX
8
CUT
10
11.152
20
45.03
0
SEQEND
0
POLYLINE
8
CUT
66
1
70
0
0
VERTEX
8
CUT
10
0.848
20
43.97
0
VERTEX
8
CUT
10
2.4
20
43
0
VERTEX
8
CUT
10
9.6
20
43
0
VERTEX
8
CUT
10
11.152
20
43.97
0
SEQEND
0
POLYLINE
8
CUT
66
1
70
0
0
VERTEX
8
CUT
10
0.848
20
41.03
0
VERTEX
8
CUT
10
2.4
20
42
0
VERTEX
8
CUT
10
9.6
20
42
0
VERTEX
8
CUT
10
11.152
20
41.03
0
SEQEND
0
POLYLINE
8
CUT
66
1
70
0
0
VERTEX
8
CUT
10
0.848
20
39.97
0
VERTEX
8
CUT
10
2.4
20
39
0
VERTEX
8
CUT
10
9.6
20
39
0
VERTEX
8
CUT
10
11.152
20
39.97
0
SEQEND
0
POLYLINE
8
CUT
66
1
70
0
0
VERTEX
8
CUT
10
0.848
20
37.03
0
VERTEX
8
CUT
10
2.4
20
38
0
VERTEX
8
CUT
10
9.6
20
38
0
VERTEX
8
CUT
10
11.152
20
37.03
0
SEQEND
0
POLYLINE
8
CUT
66
1
70
0
0
VERTEX
8
CUT
10
0.848
20
35.97
0
VERTEX
8
CUT
10
2.4
20
35
0
VERTEX
8
CUT
10
9.6
20
35
0
VERTEX
8
CUT
10
11.152
20
35.97
0
SEQEND
0
POLYLINE
8
CUT
66
1
70
0
0
VERTEX
8
CUT
10
0.848
20
33.03
0
VERTEX
8
CUT
10
2.4
20
34
0
VERTEX
8
CUT
10
9.6
20
34
0
VERTEX
8
CUT
10
11.152
20
33.03
0
SEQEND
0
POLYLINE
8
CUT
66
1
70
0
0
VERTEX
8
CUT
10
0.848
20
31.97
0
VERTEX
8
CUT
10
2.4
20
31
0
VERTEX
8
CUT
10
9.6
20
31
0
VERTEX
8
CUT
10
11.152
20
31.97
0
SEQEND
0
POLYLINE
8
CUT
66
1
70
0
0
VERTEX
8
CUT
10
0.848
20
29.03
0
VERTEX
8
CUT
10
2.4
20
30
0
VERTEX
8
CUT
10
9.6
20
30
0
VERTEX
8
CUT
10
11.152
20
29.03
0
SEQEND
0
POLYLINE
8
CUT
66
1
70
0
0
VERTEX
8
CUT
10
0.848
20
27.97
0
VERTEX
8
CUT
10
2.4
20
27
0
VERTEX
8
CUT
10
9.6
20
27
0
VERTEX
8
CUT
10
11.152
20
27.97
0
SEQEND
0
POLYLINE
8
CUT
66
1
70
0
0
VERTEX
8
CUT
10
0.848
20
25.03
0
VERTEX
8
CUT
10
2.4
20
26
0
VERTEX
8
CUT
10
9.6
20
26
0
VERTEX
8
CUT
10
11.152
20
25.03
0
SEQEND
0
POLYLINE
8
CUT
66
1
70
0
0
VERTEX
8
CUT
10
0.848
20
23.97
0
VERTEX
8
CUT
10
2.4
20
23
0
VERTEX
8
CUT
10
9.6
20
23
0
VERTEX
8
CUT
10
11.152
20
23.97
0
SEQEND
0
POLYLINE
8
CUT
66
1
70
0
0
VERTEX
8
CUT
10
0.848
20
21.03
0
VERTEX
8
CUT
10
2.4
20
22
0
VERTEX
8
CUT
10
9.6
20
22
0
VERTEX
8
CUT
10
11.152
20
21.03
0
SEQEND
0
POLYLINE
8
CUT
66
1
70
0
0
VERTEX
8
CUT
10
0.848
20
19.97
0
VERTEX
8
CUT
10
2.4
20
19
0
VERTEX
8
CUT
10
9.6
20
19
0
VERTEX
8
CUT
10
11.152
20
19.97
0
SEQEND
0
POLYLINE
8
CUT
66
1
70
0
0
VERTEX
8
CUT
10
0.848
20
17.03
0
VERTEX
8
CUT
10
2.4
20
18
0
VERTEX
8
CUT
10
9.6
20
18
0
VERTEX
8
CUT
10
11.152
20
17.03
0
SEQEND
0
POLYLINE
8
CUT
66
1
70
0
0
VERTEX
8
CUT
10
0.848
20
15.97
0
VERTEX
8
CUT
10
2.4
20
15
0
VERTEX
8
CUT
10
9.6
20
15
0
VERTEX
8
CUT
10
11.152
20
15.97
0
SEQEND
0
POLYLINE
8
CUT
66
1
70
0
0
VERTEX
8
CUT
10
0.848
20
13.03
0
VERTEX
8
CUT
10
2.4
20
14
0
VERTEX
8
CUT
10
9.6
20
14
0
VERTEX
8
CUT
10
11.152
20
13.03
0
SEQEND
0
POLYLINE
8
CUT
66
1
70
0
0
VERTEX
8
CUT
10
0.848
20
11.97
0
VERTEX
8
CUT
10
2.4
20
11
0
VERTEX
8
CUT
10
9.6
20
11
0
VERTEX
8
CUT
10
11.152
20
11.97
0
SEQEND
0
POLYLINE
8
CUT
66
1
70
0
0
VERTEX
8
CUT
10
0.848
20
9.03
0
VERTEX
8
CUT
10
2.4
20
10
0
VERTEX
8
CUT
10
9.6
20
10
0
VERTEX
8
CUT
10
11.152
20
9.03
0
SEQEND
0
POLYLINE
8
CUT
66
1
70
0
0
VERTEX
8
CUT
10
0.848
20
7.97
0
VERTEX
8
CUT
10
2.4
20
7
0
VERTEX
8
CUT
10
9.6
20
7
0
VERTEX
8
CUT
10
11.152
20
7.97
0
SEQEND
0
POLYLINE
8
CUT
66
1
70
0
0
VERTEX
8
CUT
10
0.848
20
5.03
0
VERTEX
8
CUT
10
2.4
20
6
0
VERTEX
8
CUT
10
9.6
20
6
0
VERTEX
8
CUT
10
11.152
20
5.03
0
SEQEND
0
POLYLINE
8
CUT
66
1
70
0
0
VERTEX
8
CUT
10
0.848
20
3.97
0
VERTEX
8
CUT
10
2.4
20
3
0
VERTEX
8
CUT
10
9.6
20
3
0
VERTEX
8
CUT
10
11.152
20
3.97
0
SEQEND
0
POLYLINE
8
CUT
66
1
70
0
0
VERTEX
8
CUT
10
0.848
20
1.03
0
VERTEX
8
CUT
10
2.4
20
2
0
VERTEX
8
CUT
10
9.6
20
2
0
VERTEX
8
CUT
10
11.152
20
1.03
0
SEQEND
0
POLYLINE
8
CUT
66
1
70
0
0
VERTEX
8
CUT
10
11.318
20
69.97
0
VERTEX
8
CUT
10
12.87
20
69
0
VERTEX
8
CUT
10
20.07
20
69
0
VERTEX
8
CUT
10
21.622
20
69.97
0
SEQEND
0
POLYLINE
8
CUT
66
1
70
0
0
VERTEX
8
CUT
10
11.318
20
67.03
0
VERTEX
8
CUT
10
12.87
20
68
0
VERTEX
8
CUT
10
20.07
20
68
0
VERTEX
8
CUT
10
21.622
20
67.03
0
SEQEND
0
POLYLINE
8
CUT
66
1
70
0
0
VERTEX
8
CUT
10
11.318
20
65.97
0
VERTEX
8
CUT
10
12.87
20
65
0
VERTEX
8
CUT
10
20.07
20
65
0
VERTEX
8
CUT
10
21.622
20
65.97
0
SEQEND
0
POLYLINE
8
CUT
66
1
70
0
0
VERTEX
8
CUT
10
11.318
20
63.03
0
VERTEX
8
CUT
10
12.87
20
64
0
VERTEX
8
CUT
10
20.07
20
64
0
VERTEX
8
CUT
10
21.622
20
63.03
0
SEQEND
0
POLYLINE
8
CUT
66
1
70
0
0
VERTEX
8
CUT
10
11.318
20
61.97
0
VERTEX
8
CUT
10
12.87
20
61
0
VERTEX
8
CUT
10
20.07
20
61
0
VERTEX
8
CUT
10
21.622
20
61.97
0
SEQEND
0
POLYLINE
8
CUT
66
1
70
0
0
VERTEX
8
CUT
10
11.318
20
59.03
0
VERTEX
8
CUT
10
12.87
20
60
0
VERTEX
8
CUT
10
20.07
20
60
0
VERTEX
8
CUT
10
21.622
20
59.03
0
SEQEND
0
POLYLINE
8
CUT
66
1
70
0
0
VERTEX
8
CUT
10
11.318
20
57.97
0
VERTEX
8
CUT
10
12.87
20
57
0
VERTEX
8
CUT
10
20.07
20
57
0
VERTEX
8
CUT
10
21.622
20
57.97
0
SEQEND
0
POLYLINE
8
CUT
66
1
70
0
0
VERTEX
8
CUT
10
11.318
20
55.03
0
VERTEX
8
CUT
10
12.87
20
56
0
VERTEX
8
CUT
10
20.07
20
56
0
VERTEX
8
CUT
10
21.622
20
55.03
0
SEQEND
0
POLYLINE
8
CUT
66
1
70
0
0
VERTEX
8
CUT
10
11.318
20
53.97
0
VERTEX
8
CUT
10
12.87
20
53
0
VERTEX
8
CUT
10
20.07
20
53
0
VERTEX
8
CUT
10
21.622
20
53.97
0
SEQEND
0
POLYLINE
8
CUT
66
1
70
0
0
VERTEX
8
CUT
10
11.318
20
51.03
0
VERTEX
8
CUT
10
12.87
20
52
0
VERTEX
8
CUT
10
20.07
20
52
0
VERTEX
8
CUT
10
21.622
20
51.03
0
SEQEND
0
POLYLINE
8
CUT
66
1
70
0
0
VERTEX
8
CUT
10
11.318
20
49.97
0
VERTEX
8
CUT
10
12.87
20
49
0
VERTEX
8
CUT
10
20.07
20
49
0
VERTEX
8
CUT
10
21.622
20
49.97
0
SEQEND
0
POLYLINE
8
CUT
66
1
70
0
0
VERTEX
8
CUT
10
11.318
20
47.03
0
VERTEX
8
CUT
10
12.87
20
48
0
VERTEX
8
CUT
10
20.07
20
48
0
VERTEX
8
CUT
10
21.622
20
47.03
0
SEQEND
0
POLYLINE
8
CUT
66
1
70
0
0
VERTEX
8
CUT
10
11.318
20
45.97
0
VERTEX
8
CUT
10
12.87
20
45
0
VERTEX
8
CUT
10
20.07
20
45
0
VERTEX
8
CUT
10
21.622
20
45.97
0
SEQEND
0
POLYLINE
8
CUT
66
1
70
0
0
VERTEX
8
CUT
10
11.318
20
43.03
0
VERTEX
8
CUT
10
12.87
20
44
0
VERTEX
8
CUT
10
20.07
20
44
0
VERTEX
8
CUT
10
21.622
20
43.03
0
SEQEND
0
POLYLINE
8
CUT
66
1
70
0
0
VERTEX
8
CUT
10
11.318
20
41.97
0
VERTEX
8
CUT
10
12.87
20
41
0
VERTEX
8
CUT
10
20.07
20
41
0
VERTEX
8
CUT
10
21.622
20
41.97
0
SEQEND
0
POLYLINE
8
CUT
66
1
70
0
0
VERTEX
8
CUT
10
11.318
20
39.03
0
VERTEX
8
CUT
10
12.87
20
40
0
VERTEX
8
CUT
10
20.07
20
40
0
VERTEX
8
CUT
10
21.622
20
39.03
0
SEQEND
0
POLYLINE
8
CUT
66
1
70
0
0
VERTEX
8
CUT
10
11.318
20
37.97
0
VERTEX
8
CUT
10
12.87
20
37
0
VERTEX
8
CUT
10
20.07
20
37
0
VERTEX
8
CUT
10
21.622
20
37.97
0
SEQEND
0
POLYLINE
8
CUT
66
1
70
0
0
VERTEX
8
CUT
10
11.318
20
35.03
0
VERTEX
8
CUT
10
12.87
20
36
0
VERTEX
8
CUT
10
20.07
20
36
0
VERTEX
8
CUT
10
21.622
20
35.03
0
SEQEND
0
POLYLINE
8
CUT
66
1
70
0
0
VERTEX
8
CUT
10
11.318
20
33.97
0
VERTEX
8
CUT
10
12.87
20
33
0
VERTEX
8
CUT
10
20.07
20
33
0
VERTEX
8
CUT
10
21.622
20
33.97
0
SEQEND
0
POLYLINE
8
CUT
66
1
70
0
0
VERTEX
8
CUT
10
11.318
20
31.03
0
VERTEX
8
CUT
10
12.87
20
32
0
VERTEX
8
CUT
10
20.07
20
32
0
VERTEX
8
CUT
10
21.622
20
31.03
0
SEQEND
0
POLYLINE
8
CUT
66
1
70
0
0
VERTEX
8
CUT
10
11.318
20
29.97
0
VERTEX
8
CUT
10
12.87
20
29
0
VERTEX
8
CUT
10
20.07
20
29
0
VERTEX
8
CUT
10
21.622
20
29.97
0
SEQEND
0
POLYLINE
8
CUT
66
1
70
0
0
VERTEX
8
CUT
10
11.318
20
27.03
0
VERTEX
8
CUT
10
12.87
20
28
0
VERTEX
8
CUT
10
20.07
20
28
0
VERTEX
8
CUT
10
21.622
20
27.03
0
SEQEND
0
POLYLINE
8
CUT
66
1
70
0
0
VERTEX
8
CUT
10
11.318
20
25.97
0
VERTEX
8
CUT
10
12.87
20
25
0
VERTEX
8
CUT
10
20.07
20
25
0
VERTEX
8
CUT
10
21.622
20
25.97
0
SEQEND
0
POLYLINE
8
CUT
66
1
70
0
0
VERTEX
8
CUT
10
11.318
20
23.03
0
VERTEX
8
CUT
10
12.87
20
24
0
VERTEX
8
CUT
10
20.07
20
24
0
VERTEX
8
CUT
10
21.622
20
23.03
0
SEQEND
0
POLYLINE
8
CUT
66
1
70
0
0
VERTEX
8
CUT
10
11.318
20
21.97
0
VERTEX
8
CUT
10
12.87
20
21
0
VERTEX
8
CUT
10
20.07
20
21
0
VERTEX
8
CUT
10
21.622
20
21.97
0
SEQEND
0
POLYLINE
8
CUT
66
1
70
0
0
VERTEX
8
CUT
10
11.318
20
19.03
0
VERTEX
8
CUT
10
12.87
20
20
0
VERTEX
8
CUT
10
20.07
20
20
0
VERTEX
8
CUT
10
21.622
20
19.03
0
SEQEND
0
POLYLINE
8
CUT
66
1
70
0
0
VERTEX
8
CUT
10
11.318
20
17.97
0
VERTEX
8
CUT
10
12.87
20
17
0
VERTEX
8
CUT
10
20.07
20
17
0
VERTEX
8
CUT
10
21.622
20
17.97
0
SEQEND
0
POLYLINE
8
CUT
66
1
70
0
0
VERTEX
8
CUT
10
11.318
20
15.03
0
VERTEX
8
CUT
10
12.87
20
16
0
VERTEX
8
CUT
10
20.07
20
16
0
VERTEX
8
CUT
10
21.622
20
15.03
0
SEQEND
0
POLYLINE
8
CUT
66
1
70
0
0
VERTEX
8
CUT
10
11.318
20
13.97
0
VERTEX
8
CUT
10
12.87
20
13
0
VERTEX
8
CUT
10
20.07
20
13
0
VERTEX
8
CUT
10
21.622
20
13.97
0
SEQEND
0
POLYLINE
8
CUT
66
1
70
0
0
VERTEX
8
CUT
10
11.318
20
11.03
0
VERTEX
8
CUT
10
12.87
20
12
0
VERTEX
8
CUT
10
20.07
20
12
0
VERTEX
8
CUT
10
21.622
20
11.03
0
SEQEND
0
POLYLINE
8
CUT
66
1
70
0
0
VERTEX
8
CUT
10
11.318
20
9.97
0
VERTEX
8
CUT
10
12.87
20
9
0
VERTEX
8
CUT
10
20.07
20
9
0
VERTEX
8
CUT
10
21.622
20
9.97
0
SEQEND
0
POLYLINE
8
CUT
66
1
70
0
0
VERTEX
8
CUT
10
11.318
20
7.03
0
VERTEX
8
CUT
10
12.87
20
8
0
VERTEX
8
CUT
10
20.07
20
8
0
VERTEX
8
CUT
10
21.622
20
7.03
0
SEQEND
0
POLYLINE
8
CUT
66
1
70
0
0
VERTEX
8
CUT
10
11.318
20
5.97
0
VERTEX
8
CUT
10
12.87
20
5
0
VERTEX
8
CUT
10
20.07
20
5
0
VERTEX
8
CUT
10
21.622
20
5.97
0
SEQEND
0
POLYLINE
8
CUT
66
1
70
0
0
VERTEX
8
CUT
10
11.318
20
3.03
0
VERTEX
8
CUT
10
12.87
20
4
0
VERTEX
8
CUT
10
20.07
20
4
0
VERTEX
8
CUT
10
21.622
20
3.03
0
SEQEND
0
POLYLINE
8
CUT
66
1
70
0
0
VERTEX
8
CUT
10
11.318
20
1.97
0
VERTEX
8
CUT
10
12.87
20
1
0
VERTEX
8
CUT
10
20.07
20
1
0
VERTEX
8
CUT
10
21.622
20
1.97
0
SEQEND
0
POLYLINE
8
CUT
66
1
70
0
0
VERTEX
8
CUT
10
12.87
20
0
0
VERTEX
8
CUT
10
12.87
20
0
0
VERTEX
8
CUT
10
20.07
20
0
0
VERTEX
8
CUT
10
20.07
20
0
0
SEQEND
0
POLYLINE
8
CUT
66
1
70
0
0
VERTEX
8
CUT
10
21.788
20
69.03
0
VERTEX
8
CUT
10
23.34
20
70
0
VERTEX
8
CUT
10
30.54
20
70
0
VERTEX
8
CUT
10
32.092
20
69.03
0
SEQEND
0
POLYLINE
8
CUT
66
1
70
0
0
VERTEX
8
CUT
10
21.788
20
67.97
0
VERTEX
8
CUT
10
23.34
20
67
0
VERTEX
8
CUT
10
30.54
20
67
0
VERTEX
8
CUT
10
32.092
20
67.97
0
SEQEND
0
POLYLINE
8
CUT
66
1
70
0
0
VERTEX
8
CUT
10
21.788
20
65.03
0
VERTEX
8
CUT
10
23.34
20
66
0
VERTEX
8
CUT
10
30.54
20
66
0
VERTEX
8
CUT
10
32.092
20
65.03
0
SEQEND
0
POLYLINE
8
CUT
66
1
70
0
0
VERTEX
8
CUT
10
21.788
20
63.97
0
VERTEX
8
CUT
10
23.34
20
63
0
VERTEX
8
CUT
10
30.54
20
63
0
VERTEX
8
CUT
10
32.092
20
63.97
0
SEQEND
0
POLYLINE
8
CUT
66
1
70
0
0
VERTEX
8
CUT
10
21.788
20
61.03
0
VERTEX
8
CUT
10
23.34
20
62
0
VERTEX
8
CUT
10
30.54
20
62
0
VERTEX
8
CUT
10
32.092
20
61.03
0
SEQEND
0
POLYLINE
8
CUT
66
1
70
0
0
VERTEX
8
CUT
10
21.788
20
59.97
0
VERTEX
8
CUT
10
23.34
20
59
0
VERTEX
8
CUT
10
30.54
20
59
0
VERTEX
8
CUT
10
32.092
20
59.97
0
SEQEND
0
POLYLINE
8
CUT
66
1
70
0
0
VERTEX
8
CUT
10
21.788
20
57.03
0
VERTEX
8
CUT
10
23.34
20
58
0
VERTEX
8
CUT
10
30.54
20
58
0
VERTEX
8
CUT
10
32.092
20
57.03
0
SEQEND
0
POLYLINE
8
CUT
66
1
70
0
0
VERTEX
8
CUT
10
21.788
20
55.97
0
VERTEX
8
CUT
10
23.34
20
55
0
VERTEX
8
CUT
10
30.54
20
55
0
VERTEX
8
CUT
10
32.092
20
55.97
0
SEQEND
0
POLYLINE
8
CUT
66
1
70
0
0
VERTEX
8
CUT
10
21.788
20
53.03
0
VERTEX
8
CUT
10
23.34
20
54
0
VERTEX
8
CUT
10
30.54
20
54
0
VERTEX
8
CUT
10
32.092
20
53.03
0
SEQEND
0
POLYLINE
8
CUT
66
1
70
0
0
VERTEX
8
CUT
10
21.788
20
51.97
0
VERTEX
8
CUT
10
23.34
20
51
0
VERTEX
8
CUT
10
30.54
20
51
0
VERTEX
8
CUT
10
32.092
20
51.97
0
SEQEND
0
POLYLINE
8
CUT
66
1
70
0
0
VERTEX
8
CUT
10
21.788
20
49.03
0
VERTEX
8
CUT
10
23.34
20
50
0
VERTEX
8
CUT
10
30.54
20
50
0
VERTEX
8
CUT
10
32.092
20
49.03
0
SEQEND
0
POLYLINE
8
CUT
66
1
70
0
0
VERTEX
8
CUT
10
21.788
20
47.97
0
VERTEX
8
CUT
10
23.34
20
47
0
VERTEX
8
CUT
10
30.54
20
47
0
VERTEX
8
CUT
10
32.092
20
47.97
0
SEQEND
0
POLYLINE
8
CUT
66
1
70
0
0
VERTEX
8
CUT
10
21.788
20
45.03
0
VERTEX
8
CUT
10
23.34
20
46
0
VERTEX
8
CUT
10
30.54
20
46
0
VERTEX
8
CUT
10
32.092
20
45.03
0
SEQEND
0
POLYLINE
8
CUT
66
1
70
0
0
VERTEX
8
CUT
10
21.788
20
43.97
0
VERTEX
8
CUT
10
23.34
20
43
0
VERTEX
8
CUT
10
30.54
20
43
0
VERTEX
8
CUT
10
32.092
20
43.97
0
SEQEND
0
POLYLINE
8
CUT
66
1
70
0
0
VERTEX
8
CUT
10
21.788
20
41.03
0
VERTEX
8
CUT
10
23.34
20
42
0
VERTEX
8
CUT
10
30.54
20
42
0
VERTEX
8
CUT
10
32.092
20
41.03
0
SEQEND
0
POLYLINE
8
CUT
66
1
70
0
0
VERTEX
8
CUT
10
21.788
20
39.97
0
VERTEX
8
CUT
10
23.34
20
39
0
VERTEX
8
CUT
10
30.54
20
39
0
VERTEX
8
CUT
10
32.092
20
39.97
0
SEQEND
0
POLYLINE
8
CUT
66
1
70
0
0
VERTEX
8
CUT
10
21.788
20
37.03
0
VERTEX
8
CUT
10
23.34
20
38
0
VERTEX
8
CUT
10
30.54
20
38
0
VERTEX
8
CUT
10
32.092
20
37.03
0
SEQEND
0
POLYLINE
8
CUT
66
1
70
0
0
VERTEX
8
CUT
10
21.788
20
35.97
0
VERTEX
8
CUT
10
23.34
20
35
0
VERTEX
8
CUT
10
30.54
20
35
0
VERTEX
8
CUT
10
32.092
20
35.97
0
SEQEND
0
POLYLINE
8
CUT
66
1
70
0
0
VERTEX
8
CUT
10
21.788
20
33.03
0
VERTEX
8
CUT
10
23.34
20
34
0
VERTEX
8
CUT
10
30.54
20
34
0
VERTEX
8
CUT
10
32.092
20
33.03
0
SEQEND
0
POLYLINE
8
CUT
66
1
70
0
0
VERTEX
8
CUT
10
21.788
20
31.97
0
VERTEX
8
CUT
10
23.34
20
31
0
VERTEX
8
CUT
10
30.54
20
31
0
VERTEX
8
CUT
10
32.092
20
31.97
0
SEQEND
0
POLYLINE
8
CUT
66
1
70
0
0
VERTEX
8
CUT
10
21.788
20
29.03
0
VERTEX
8
CUT
10
23.34
20
30
0
VERTEX
8
CUT
10
30.54
20
30
0
VERTEX
8
CUT
10
32.092
20
29.03
0
SEQEND
0
POLYLINE
8
CUT
66
1
70
0
0
VERTEX
8
CUT
10
21.788
20
27.97
0
VERTEX
8
CUT
10
23.34
20
27
0
VERTEX
8
CUT
10
30.54
20
27
0
VERTEX
8
CUT
10
32.092
20
27.97
0
SEQEND
0
POLYLINE
8
CUT
66
1
70
0
0
VERTEX
8
CUT
10
21.788
20
25.03
0
VERTEX
8
CUT
10
23.34
20
26
0
VERTEX
8
CUT
10
30.54
20
26
0
VERTEX
8
CUT
10
32.092
20
25.03
0
SEQEND
0
POLYLINE
8
CUT
66
1
70
0
0
VERTEX
8
CUT
10
21.788
20
23.97
0
VERTEX
8
CUT
10
23.34
20
23
0
VERTEX
8
CUT
10
30.54
20
23
0
VERTEX
8
CUT
10
32.092
20
23.97
0
SEQEND
0
POLYLINE
8
CUT
66
1
70
0
0
VERTEX
8
CUT
10
21.788
20
21.03
0
VERTEX
8
CUT
10
23.34
20
22
0
VERTEX
8
CUT
10
30.54
20
22
0
VERTEX
8
CUT
10
32.092
20
21.03
0
SEQEND
0
POLYLINE
8
CUT
66
1
70
0
0
VERTEX
8
CUT
10
21.788
20
19.97
0
VERTEX
8
CUT
10
23.34
20
19
0
VERTEX
8
CUT
10
30.54
20
19
0
VERTEX
8
CUT
10
32.092
20
19.97
0
SEQEND
0
POLYLINE
8
CUT
66
1
70
0
0
VERTEX
8
CUT
10
21.788
20
17.03
0
VERTEX
8
CUT
10
23.34
20
18
0
VERTEX
8
CUT
10
30.54
20
18
0
VERTEX
8
CUT
10
32.092
20
17.03
0
SEQEND
0
POLYLINE
8
CUT
66
1
70
0
0
VERTEX
8
CUT
10
21.788
20
15.97
0
VERTEX
8
CUT
10
23.34
20
15
0
VERTEX
8
CUT
10
30.54
20
15
0
VERTEX
8
CUT
10
32.092
20
15.97
0
SEQEND
0
POLYLINE
8
CUT
66
1
70
0
0
VERTEX
8
CUT
10
21.788
20
13.03
0
VERTEX
8
CUT
10
23.34
20
14
0
VERTEX
8
CUT
10
30.54
20
14
0
VERTEX
8
CUT
10
32.092
20
13.03
0
SEQEND
0
POLYLINE
8
CUT
66
1
70
0
0
VERTEX
8
CUT
10
21.788
20
11.97
0
VERTEX
8
CUT
10
23.34
20
11
0
VERTEX
8
CUT
10
30.54
20
11
0
VERTEX
8
CUT
10
32.092
20
11.97
0
SEQEND
0
POLYLINE
8
CUT
66
1
70
0
0
VERTEX
8
CUT
10
21.788
20
9.03
0
VERTEX
8
CUT
10
23.34
20
10
0
VERTEX
8
CUT
10
30.54
20
10
0
VERTEX
8
CUT
10
32.092
20
9.03
0
SEQEND
0
POLYLINE
8
CUT
66
1
70
0
0
VERTEX
8
CUT
10
21.788
20
7.97
0
VERTEX
8
CUT
10
23.34
20
7
0
VERTEX
8
CUT
10
30.54
20
7
0
VERTEX
8
CUT
10
32.092
20
7.97
0
SEQEND
0
POLYLINE
8
CUT
66
1
70
0
0
VERTEX
8
CUT
10
21.788
20
5.03
0
VERTEX
8
CUT
10
23.34
20
6
0
VERTEX
8
CUT
10
30.54
20
6
0
VERTEX
8
CUT
10
32.092
20
5.03
0
SEQEND
0
POLYLINE
8
CUT
66
1
70
0
0
VERTEX
8
CUT
10
21.788
20
3.97
0
VERTEX
8
CUT
10
23.34
20
3
0
VERTEX
8
CUT
10
30.54
20
3
0
VERTEX
8
CUT
10
32.092
20
3.97
0
SEQEND
0
POLYLINE
8
CUT
66
1
70
0
0
VERTEX
8
CUT
10
21.788
20
1.03
0
VERTEX
8
CUT
10
23.34
20
2
0
VERTEX
8
CUT
10
30.54
20
2
0
VERTEX
8
CUT
10
32.092
20
1.03
0
SEQEND
0
POLYLINE
8
CUT
66
1
70
0
0
VERTEX
8
CUT
10
32.258
20
69.97
0
VERTEX
8
CUT
10
33.81
20
69
0
VERTEX
8
CUT
10
41.01
20
69
0
VERTEX
8
CUT
10
42.562
20
69.97
0
SEQEND
0
POLYLINE
8
CUT
66
1
70
0
0
VERTEX
8
CUT
10
32.258
20
67.03
0
VERTEX
8
CUT
10
33.81
20
68
0
VERTEX
8
CUT
10
41.01
20
68
0
VERTEX
8
CUT
10
42.562
20
67.03
0
SEQEND
0
POLYLINE
8
CUT
66
1
70
0
0
VERTEX
8
CUT
10
32.258
20
65.97
0
VERTEX
8
CUT
10
33.81
20
65
0
VERTEX
8
CUT
10
41.01
20
65
0
VERTEX
8
CUT
10
42.562
20
65.97
0
SEQEND
0
POLYLINE
8
CUT
66
1
70
0
0
VERTEX
8
CUT
10
32.258
20
63.03
0
VERTEX
8
CUT
10
33.81
20
64
0
VERTEX
8
CUT
10
41.01
20
64
0
VERTEX
8
CUT
10
42.562
20
63.03
0
SEQEND
0
POLYLINE
8
CUT
66
1
70
0
0
VERTEX
8
CUT
10
32.258
20
61.97
0
VERTEX
8
CUT
10
33.81
20
61
0
VERTEX
8
CUT
10
41.01
20
61
0
VERTEX
8
CUT
10
42.562
20
61.97
0
SEQEND
0
POLYLINE
8
CUT
66
1
70
0
0
VERTEX
8
CUT
10
32.258
20
59.03
0
VERTEX
8
CUT
10
33.81
20
60
0
VERTEX
8
CUT
10
41.01
20
60
0
VERTEX
8
CUT
10
42.562
20
59.03
0
SEQEND
0
POLYLINE
8
CUT
66
1
70
0
0
VERTEX
8
CUT
10
32.258
20
57.97
0
VERTEX
8
CUT
10
33.81
20
57
0
VERTEX
8
CUT
10
41.01
20
57
0
VERTEX
8
CUT
10
42.562
20
57.97
0
SEQEND
0
POLYLINE
8
CUT
66
1
70
0
0
VERTEX
8
CUT
10
32.258
20
55.03
0
VERTEX
8
CUT
10
33.81
20
56
0
VERTEX
8
CUT
10
41.01
20
56
0
VERTEX
8
CUT
10
42.562
20
55.03
0
SEQEND
0
POLYLINE
8
CUT
66
1
70
0
0
VERTEX
8
CUT
10
32.258
20
53.97
0
VERTEX
8
CUT
10
33.81
20
53
0
VERTEX
8
CUT
10
41.01
20
53
0
VERTEX
8
CUT
10
42.562
20
53.97
0
SEQEND
0
POLYLINE
8
CUT
66
1
70
0
0
VERTEX
8
CUT
10
32.258
20
51.03
0
VERTEX
8
CUT
10
33.81
20
52
0
VERTEX
8
CUT
10
41.01
20
52
0
VERTEX
8
CUT
10
42.562
20
51.03
0
SEQEND
0
POLYLINE
8
CUT
66
1
70
0
0
VERTEX
8
CUT
10
32.258
20
49.97
0
VERTEX
8
CUT
10
33.81
20
49
0
VERTEX
8
CUT
10
41.01
20
49
0
VERTEX
8
CUT
10
42.562
20
49.97
0
SEQEND
0
POLYLINE
8
CUT
66
1
70
0
0
VERTEX
8
CUT
10
32.258
20
47.03
0
VERTEX
8
CUT
10
33.81
20
48
0
VERTEX
8
CUT
10
41.01
20
48
0
VERTEX
8
CUT
10
42.562
20
47.03
0
SEQEND
0
POLYLINE
8
CUT
66
1
70
0
0
VERTEX
8
CUT
10
32.258
20
45.97
0
VERTEX
8
CUT
10
33.81
20
45
0
VERTEX
8
CUT
10
41.01
20
45
0
VERTEX
8
CUT
10
42.562
20
45.97
0
SEQEND
0
POLYLINE
8
CUT
66
1
70
0
0
VERTEX
8
CUT
10
32.258
20
43.03
0
VERTEX
8
CUT
10
33.81
20
44
0
VERTEX
8
CUT
10
41.01
20
44
0
VERTEX
8
CUT
10
42.562
20
43.03
0
SEQEND
0
POLYLINE
8
CUT
66
1
70
0
0
VERTEX
8
CUT
10
32.258
20
41.97
0
VERTEX
8
CUT
10
33.81
20
41
0
VERTEX
8
CUT
10
41.01
20
41
0
VERTEX
8
CUT
10
42.562
20
41.97
0
SEQEND
0
POLYLINE
8
CUT
66
1
70
0
0
VERTEX
8
CUT
10
32.258
20
39.03
0
VERTEX
8
CUT
10
33.81
20
40
0
VERTEX
8
CUT
10
41.01
20
40
0
VERTEX
8
CUT
10
42.562
20
39.03
0
SEQEND
0
POLYLINE
8
CUT
66
1
70
0
0
VERTEX
8
CUT
10
32.258
20
37.97
0
VERTEX
8
CUT
10
33.81
20
37
0
VERTEX
8
CUT
10
41.01
20
37
0
VERTEX
8
CUT
10
42.562
20
37.97
0
SEQEND
0
POLYLINE
8
CUT
66
1
70
0
0
VERTEX
8
CUT
10
32.258
20
35.03
0
VERTEX
8
CUT
10
33.81
20
36
0
VERTEX
8
CUT
10
41.01
20
36
0
VERTEX
8
CUT
10
42.562
20
35.03
0
SEQEND
0
POLYLINE
8
CUT
66
1
70
0
0
VERTEX
8
CUT
10
32.258
20
33.97
0
VERTEX
8
CUT
10
33.81
20
33
0
VERTEX
8
CUT
10
41.01
20
33
0
VERTEX
8
CUT
10
42.562
20
33.97
0
SEQEND
0
POLYLINE
8
CUT
66
1
70
0
0
VERTEX
8
CUT
10
32.258
20
31.03
0
VERTEX
8
CUT
10
33.81
20
32
0
VERTEX
8
CUT
10
41.01
20
32
0
VERTEX
8
CUT
10
42.562
20
31.03
0
SEQEND
0
POLYLINE
8
CUT
66
1
70
0
0
VERTEX
8
CUT
10
32.258
20
29.97
0
VERTEX
8
CUT
10
33.81
20
29
0
VERTEX
8
CUT
10
41.01
20
29
0
VERTEX
8
CUT
10
42.562
20
29.97
0
SEQEND
0
POLYLINE
8
CUT
66
1
70
0
0
VERTEX
8
CUT
10
32.258
20
27.03
0
VERTEX
8
CUT
10
33.81
20
28
0
VERTEX
8
CUT
10
41.01
20
28
0
VERTEX
8
CUT
10
42.562
20
27.03
0
SEQEND
0
POLYLINE
8
CUT
66
1
70
0
0
VERTEX
8
CUT
10
32.258
20
25.97
0
VERTEX
8
CUT
10
33.81
20
25
0
VERTEX
8
CUT
10
41.01
20
25
0
VERTEX
8
CUT
10
42.562
20
25.97
0
SEQEND
0
POLYLINE
8
CUT
66
1
70
0
0
VERTEX
8
CUT
10
32.258
20
23.03
0
VERTEX
8
CUT
10
33.81
20
24
0
VERTEX
8
CUT
10
41.01
20
24
0
VERTEX
8
CUT
10
42.562
20
23.03
0
SEQEND
0
POLYLINE
8
CUT
66
1
70
0
0
VERTEX
8
CUT
10
32.258
20
21.97
0
VERTEX
8
CUT
10
33.81
20
21
0
VERTEX
8
CUT
10
41.01
20
21
0
VERTEX
8
CUT
10
42.562
20
21.97
0
SEQEND
0
POLYLINE
8
CUT
66
1
70
0
0
VERTEX
8
CUT
10
32.258
20
19.03
0
VERTEX
8
CUT
10
33.81
20
20
0
VERTEX
8
CUT
10
41.01
20
20
0
VERTEX
8
CUT
10
42.562
20
19.03
0
SEQEND
0
POLYLINE
8
CUT
66
1
70
0
0
VERTEX
8
CUT
10
32.258
20
17.97
0
VERTEX
8
CUT
10
33.81
20
17
0
VERTEX
8
CUT
10
41.01
20
17
0
VERTEX
8
CUT
10
42.562
20
17.97
0
SEQEND
0
POLYLINE
8
CUT
66
1
70
0
0
VERTEX
8
CUT
10
32.258
20
15.03
0
VERTEX
8
CUT
10
33.81
20
16
0
VERTEX
8
CUT
10
41.01
20
16
0
VERTEX
8
CUT
10
42.562
20
15.03
0
SEQEND
0
POLYLINE
8
CUT
66
1
70
0
0
VERTEX
8
CUT
10
32.258
20
13.97
0
VERTEX
8
CUT
10
33.81
20
13
0
VERTEX
8
CUT
10
41.01
20
13
0
VERTEX
8
CUT
10
42.562
20
13.97
0
SEQEND
0
POLYLINE
8
CUT
66
1
70
0
0
VERTEX
8
CUT
10
32.258
20
11.03
0
VERTEX
8
CUT
10
33.81
20
12
0
VERTEX
8
CUT
10
41.01
20
12
0
VERTEX
8
CUT
10
42.562
20
11.03
0
SEQEND
0
POLYLINE
8
CUT
66
1
70
0
0
VERTEX
8
CUT
10
32.258
20
9.97
0
VERTEX
8
CUT
10
33.81
20
9
0
VERTEX
8
CUT
10
41.01
20
9
0
VERTEX
8
CUT
10
42.562
20
9.97
0
SEQEND
0
POLYLINE
8
CUT
66
1
70
0
0
VERTEX
8
CUT
10
32.258
20
7.03
0
VERTEX
8
CUT
10
33.81
20
8
0
VERTEX
8
CUT
10
41.01
20
8
0
VERTEX
8
CUT
10
42.562
20
7.03
0
SEQEND
0
POLYLINE
8
CUT
66
1
70
0
0
VERTEX
8
CUT
10
32.258
20
5.97
0
VERTEX
8
CUT
10
33.81
20
5
0
VERTEX
8
CUT
10
41.01
20
5
0
VERTEX
8
CUT
10
42.562
20
5.97
0
SEQEND
0
POLYLINE
8
CUT
66
1
70
0
0
VERTEX
8
CUT
10
32.258
20
3.03
0
VERTEX
8
CUT
10
33.81
20
4
0
VERTEX
8
CUT
10
41.01
20
4
0
VERTEX
8
CUT
10
42.562
20
3.03
0
SEQEND
0
POLYLINE
8
CUT
66
1
70
0
0
VERTEX
8
CUT
10
32.258
20
1.97
0
VERTEX
8
CUT
10
33.81
20
1
0
VERTEX
8
CUT
10
41.01
20
1
0
VERTEX
8
CUT
10
42.562
20
1.97
0
SEQEND
0
POLYLINE
8
CUT
66
1
70
0
0
VERTEX
8
CUT
10
33.81
20
0
0
VERTEX
8
CUT
10
33.81
20
0
0
VERTEX
8
CUT
10
41.01
20
0
0
VERTEX
8
CUT
10
41.01
20
0
0
SEQEND
0
POLYLINE
8
CUT
66
1
70
0
0
VERTEX
8
CUT
10
42.728
20
69.03
0
VERTEX
8
CUT
10
44.28
20
70
0
VERTEX
8
CUT
10
51.48
20
70
0
VERTEX
8
CUT
10
53.032
20
69.03
0
SEQEND
0
POLYLINE
8
CUT
66
1
70
0
0
VERTEX
8
CUT
10
42.728
20
67.97
0
VERTEX
8
CUT
10
44.28
20
67
0
VERTEX
8
CUT
10
51.48
20
67
0
VERTEX
8
CUT
10
53.032
20
67.97
0
SEQEND
0
POLYLINE
8
CUT
66
1
70
0
0
VERTEX
8
CUT
10
42.728
20
65.03
0
VERTEX
8
CUT
10
44.28
20
66
0
VERTEX
8
CUT
10
51.48
20
66
0
VERTEX
8
CUT
10
53.032
20
65.03
0
SEQEND
0
POLYLINE
8
CUT
66
1
70
0
0
VERTEX
8
CUT
10
42.728
20
63.97
0
VERTEX
8
CUT
10
44.28
20
63
0
VERTEX
8
CUT
10
51.48
20
63
0
VERTEX
8
CUT
10
53.032
20
63.97
0
SEQEND
0
POLYLINE
8
CUT
66
1
70
0
0
VERTEX
8
CUT
10
42.728
20
61.03
0
VERTEX
8
CUT
10
44.28
20
62
0
VERTEX
8
CUT
10
51.48
20
62
0
VERTEX
8
CUT
10
53.032
20
61.03
0
SEQEND
0
POLYLINE
8
CUT
66
1
70
0
0
VERTEX
8
CUT
10
42.728
20
59.97
0
VERTEX
8
CUT
10
44.28
20
59
0
VERTEX
8
CUT
10
51.48
20
59
0
VERTEX
8
CUT
10
53.032
20
59.97
0
SEQEND
0
POLYLINE
8
CUT
66
1
70
0
0
VERTEX
8
CUT
10
42.728
20
57.03
0
VERTEX
8
CUT
10
44.28
20
58
0
VERTEX
8
CUT
10
51.48
20
58
0
VERTEX
8
CUT
10
53.032
20
57.03
0
SEQEND
0
POLYLINE
8
CUT
66
1
70
0
0
VERTEX
8
CUT
10
42.728
20
55.97
0
VERTEX
8
CUT
10
44.28
20
55
0
VERTEX
8
CUT
10
51.48
20
55
0
VERTEX
8
CUT
10
53.032
20
55.97
0
SEQEND
0
POLYLINE
8
CUT
66
1
70
0
0
VERTEX
8
CUT
10
42.728
20
53.03
0
VERTEX
8
CUT
10
44.28
20
54
0
VERTEX
8
CUT
10
51.48
20
54
0
VERTEX
8
CUT
10
53.032
20
53.03
0
SEQEND
0
POLYLINE
8
CUT
66
1
70
0
0
VERTEX
8
CUT
10
42.728
20
51.97
0
VERTEX
8
CUT
10
44.28
20
51
0
VERTEX
8
CUT
10
51.48
20
51
0
VERTEX
8
CUT
10
53.032
20
51.97
0
SEQEND
0
POLYLINE
8
CUT
66
1
70
0
0
VERTEX
8
CUT
10
42.728
20
49.03
0
VERTEX
8
CUT
10
44.28
20
50
0
VERTEX
8
CUT
10
51.48
20
50
0
VERTEX
8
CUT
10
53.032
20
49.03
0
SEQEND
0
POLYLINE
8
CUT
66
1
70
0
0
VERTEX
8
CUT
10
42.728
20
47.97
0
VERTEX
8
CUT
10
44.28
20
47
0
VERTEX
8
CUT
10
51.48
20
47
0
VERTEX
8
CUT
10
53.032
20
47.97
0
SEQEND
0
POLYLINE
8
CUT
66
1
70
0
0
VERTEX
8
CUT
10
42.728
20
45.03
0
VERTEX
8
CUT
10
44.28
20
46
0
VERTEX
8
CUT
10
51.48
20
46
0
VERTEX
8
CUT
10
53.032
20
45.03
0
SEQEND
0
POLYLINE
8
CUT
66
1
70
0
0
VERTEX
8
CUT
10
42.728
20
43.97
0
VERTEX
8
CUT
10
44.28
20
43
0
VERTEX
8
CUT
10
51.48
20
43
0
VERTEX
8
CUT
10
53.032
20
43.97
0
SEQEND
0
POLYLINE
8
CUT
66
1
70
0
0
VERTEX
8
CUT
10
42.728
20
41.03
0
VERTEX
8
CUT
10
44.28
20
42
0
VERTEX
8
CUT
10
51.48
20
42
0
VERTEX
8
CUT
10
53.032
20
41.03
0
SEQEND
0
POLYLINE
8
CUT
66
1
70
0
0
VERTEX
8
CUT
10
42.728
20
39.97
0
VERTEX
8
CUT
10
44.28
20
39
0
VERTEX
8
CUT
10
51.48
20
39
0
VERTEX
8
CUT
10
53.032
20
39.97
0
SEQEND
0
POLYLINE
8
CUT
66
1
70
0
0
VERTEX
8
CUT
10
42.728
20
37.03
0
VERTEX
8
CUT
10
44.28
20
38
0
VERTEX
8
CUT
10
51.48
20
38
0
VERTEX
8
CUT
10
53.032
20
37.03
0
SEQEND
0
POLYLINE
8
CUT
66
1
70
0
0
VERTEX
8
CUT
10
42.728
20
35.97
0
VERTEX
8
CUT
10
44.28
20
35
0
VERTEX
8
CUT
10
51.48
20
35
0
VERTEX
8
CUT
10
53.032
20
35.97
0
SEQEND
0
POLYLINE
8
CUT
66
1
70
0
0
VERTEX
8
CUT
10
42.728
20
33.03
0
VERTEX
8
CUT
10
44.28
20
34
0
VERTEX
8
CUT
10
51.48
20
34
0
VERTEX
8
CUT
10
53.032
20
33.03
0
SEQEND
0
POLYLINE
8
CUT
66
1
70
0
0
VERTEX
8
CUT
10
42.728
20
31.97
0
VERTEX
8
CUT
10
44.28
20
31
0
VERTEX
8
CUT
10
51.48
20
31
0
VERTEX
8
CUT
10
53.032
20
31.97
0
SEQEND
0
POLYLINE
8
CUT
66
1
70
0
0
VERTEX
8
CUT
10
42.728
20
29.03
0
VERTEX
8
CUT
10
44.28
20
30
0
VERTEX
8
CUT
10
51.48
20
30
0
VERTEX
8
CUT
10
53.032
20
29.03
0
SEQEND
0
POLYLINE
8
CUT
66
1
70
0
0
VERTEX
8
CUT
10
42.728
20
27.97
0
VERTEX
8
CUT
10
44.28
20
27
0
VERTEX
8
CUT
10
51.48
20
27
0
VERTEX
8
CUT
10
53.032
20
27.97
0
SEQEND
0
POLYLINE
8
CUT
66
1
70
0
0
VERTEX
8
CUT
10
42.728
20
25.03
0
VERTEX
8
CUT
10
44.28
20
26
0
VERTEX
8
CUT
10
51.48
20
26
0
VERTEX
8
CUT
10
53.032
20
25.03
0
SEQEND
0
POLYLINE
8
CUT
66
1
70
0
0
VERTEX
8
CUT
10
42.728
20
23.97
0
VERTEX
8
CUT
10
44.28
20
23
0
VERTEX
8
CUT
10
51.48
20
23
0
VERTEX
8
CUT
10
53.032
20
23.97
0
SEQEND
0
POLYLINE
8
CUT
66
1
70
0
0
VERTEX
8
CUT
10
42.728
20
21.03
0
VERTEX
8
CUT
10
44.28
20
22
0
VERTEX
8
CUT
10
51.48
20
22
0
VERTEX
8
CUT
10
53.032
20
21.03
0
SEQEND
0
POLYLINE
8
CUT
66
1
70
0
0
VERTEX
8
CUT
10
42.728
20
19.97
0
VERTEX
8
CUT
10
44.28
20
19
0
VERTEX
8
CUT
10
51.48
20
19
0
VERTEX
8
CUT
10
53.032
20
19.97
0
SEQEND
0
POLYLINE
8
CUT
66
1
70
0
0
VERTEX
8
CUT
10
42.728
20
17.03
0
VERTEX
8
CUT
10
44.28
20
18
0
VERTEX
8
CUT
10
51.48
20
18
0
VERTEX
8
CUT
10
53.032
20
17.03
0
SEQEND
0
POLYLINE
8
CUT
66
1
70
0
0
VERTEX
8
CUT
10
42.728
20
15.97
0
VERTEX
8
CUT
10
44.28
20
15
0
VERTEX
8
CUT
10
51.48
20
15
0
VERTEX
8
CUT
10
53.032
20
15.97
0
SEQEND
0
POLYLINE
8
CUT
66
1
70
0
0
VERTEX
8
CUT
10
42.728
20
13.03
0
VERTEX
8
CUT
10
44.28
20
14
0
VERTEX
8
CUT
10
51.48
20
14
0
VERTEX
8
CUT
10
53.032
20
13.03
0
SEQEND
0
POLYLINE
8
CUT
66
1
70
0
0
VERTEX
8
CUT
10
42.728
20
11.97
0
VERTEX
8
CUT
10
44.28
20
11
0
VERTEX
8
CUT
10
51.48
20
11
0
VERTEX
8
CUT
10
53.032
20
11.97
0
SEQEND
0
POLYLINE
8
CUT
66
1
70
0
0
VERTEX
8
CUT
10
42.728
20
9.03
0
VERTEX
8
CUT
10
44.28
20
10
0
VERTEX
8
CUT
10
51.48
20
10
0
VERTEX
8
CUT
10
53.032
20
9.03
0
SEQEND
0
POLYLINE
8
CUT
66
1
70
0
0
VERTEX
8
CUT
10
42.728
20
7.97
0
VERTEX
8
CUT
10
44.28
20
7
0
VERTEX
8
CUT
10
51.48
20
7
0
VERTEX
8
CUT
10
53.032
20
7.97
0
SEQEND
0
POLYLINE
8
CUT
66
1
70
0
0
VERTEX
8
CUT
10
42.728
20
5.03
0
VERTEX
8
CUT
10
44.28
20
6
0
VERTEX
8
CUT
10
51.48
20
6
0
VERTEX
8
CUT
10
53.032
20
5.03
0
SEQEND
0
POLYLINE
8
CUT
66
1
70
0
0
VERTEX
8
CUT
10
42.728
20
3.97
0
VERTEX
8
CUT
10
44.28
20
3
0
VERTEX
8
CUT
10
51.48
20
3
0
VERTEX
8
CUT
10
53.032
20
3.97
0
SEQEND
0
POLYLINE
8
CUT
66
1
70
0
0
VERTEX
8
CUT
10
42.728
20
1.03
0
VERTEX
8
CUT
10
44.28
20
2
0
VERTEX
8
CUT
10
51.48
20
2
0
VERTEX
8
CUT
10
53.032
20
1.03
0
SEQEND
0
POLYLINE
8
CUT
66
1
70
0
0
VERTEX
8
CUT
10
53.198
20
69.97
0
VERTEX
8
CUT
10
54.75
20
69
0
VERTEX
8
CUT
10
61.95
20
69
0
VERTEX
8
CUT
10
63.502
20
69.97
0
SEQEND
0
POLYLINE
8
CUT
66
1
70
0
0
VERTEX
8
CUT
10
53.198
20
67.03
0
VERTEX
8
CUT
10
54.75
20
68
0
VERTEX
8
CUT
10
61.95
20
68
0
VERTEX
8
CUT
10
63.502
20
67.03
0
SEQEND
0
POLYLINE
8
CUT
66
1
70
0
0
VERTEX
8
CUT
10
53.198
20
65.97
0
VERTEX
8
CUT
10
54.75
20
65
0
VERTEX
8
CUT
10
61.95
20
65
0
VERTEX
8
CUT
10
63.502
20
65.97
0
SEQEND
0
POLYLINE
8
CUT
66
1
70
0
0
VERTEX
8
CUT
10
53.198
20
63.03
0
VERTEX
8
CUT
10
54.75
20
64
0
VERTEX
8
CUT
10
61.95
20
64
0
VERTEX
8
CUT
10
63.502
20
63.03
0
SEQEND
0
POLYLINE
8
CUT
66
1
70
0
0
VERTEX
8
CUT
10
53.198
20
61.97
0
VERTEX
8
CUT
10
54.75
20
61
0
VERTEX
8
CUT
10
61.95
20
61
0
VERTEX
8
CUT
10
63.502
20
61.97
0
SEQEND
0
POLYLINE
8
CUT
66
1
70
0
0
VERTEX
8
CUT
10
53.198
20
59.03
0
VERTEX
8
CUT
10
54.75
20
60
0
VERTEX
8
CUT
10
61.95
20
60
0
VERTEX
8
CUT
10
63.502
20
59.03
0
SEQEND
0
POLYLINE
8
CUT
66
1
70
0
0
VERTEX
8
CUT
10
53.198
20
57.97
0
VERTEX
8
CUT
10
54.75
20
57
0
VERTEX
8
CUT
10
61.95
20
57
0
VERTEX
8
CUT
10
63.502
20
57.97
0
SEQEND
0
POLYLINE
8
CUT
66
1
70
0
0
VERTEX
8
CUT
10
53.198
20
55.03
0
VERTEX
8
CUT
10
54.75
20
56
0
VERTEX
8
CUT
10
61.95
20
56
0
VERTEX
8
CUT
10
63.502
20
55.03
0
SEQEND
0
POLYLINE
8
CUT
66
1
70
0
0
VERTEX
8
CUT
10
53.198
20
53.97
0
VERTEX
8
CUT
10
54.75
20
53
0
VERTEX
8
CUT
10
61.95
20
53
0
VERTEX
8
CUT
10
63.502
20
53.97
0
SEQEND
0
POLYLINE
8
CUT
66
1
70
0
0
VERTEX
8
CUT
10
53.198
20
51.03
0
VERTEX
8
CUT
10
54.75
20
52
0
VERTEX
8
CUT
10
61.95
20
52
0
VERTEX
8
CUT
10
63.502
20
51.03
0
SEQEND
0
POLYLINE
8
CUT
66
1
70
0
0
VERTEX
8
CUT
10
53.198
20
49.97
0
VERTEX
8
CUT
10
54.75
20
49
0
VERTEX
8
CUT
10
61.95
20
49
0
VERTEX
8
CUT
10
63.502
20
49.97
0
SEQEND
0
POLYLINE
8
CUT
66
1
70
0
0
VERTEX
8
CUT
10
53.198
20
47.03
0
VERTEX
8
CUT
10
54.75
20
48
0
VERTEX
8
CUT
10
61.95
20
48
0
VERTEX
8
CUT
10
63.502
20
47.03
0
SEQEND
0
POLYLINE
8
CUT
66
1
70
0
0
VERTEX
8
CUT
10
53.198
20
45.97
0
VERTEX
8
CUT
10
54.75
20
45
0
VERTEX
8
CUT
10
61.95
20
45
0
VERTEX
8
CUT
10
63.502
20
45.97
0
SEQEND
0
POLYLINE
8
CUT
66
1
70
0
0
VERTEX
8
CUT
10
53.198
20
43.03
0
VERTEX
8
CUT
10
54.75
20
44
0
VERTEX
8
CUT
10
61.95
20
44
0
VERTEX
8
CUT
10
63.502
20
43.03
0
SEQEND
0
POLYLINE
8
CUT
66
1
70
0
0
VERTEX
8
CUT
10
53.198
20
41.97
0
VERTEX
8
CUT
10
54.75
20
41
0
VERTEX
8
CUT
10
61.95
20
41
0
VERTEX
8
CUT
10
63.502
20
41.97
0
SEQEND
0
POLYLINE
8
CUT
66
1
70
0
0
VERTEX
8
CUT
10
53.198
20
39.03
0
VERTEX
8
CUT
10
54.75
20
40
0
VERTEX
8
CUT
10
61.95
20
40
0
VERTEX
8
CUT
10
63.502
20
39.03
0
SEQEND
0
POLYLINE
8
CUT
66
1
70
0
0
VERTEX
8
CUT
10
53.198
20
37.97
0
VERTEX
8
CUT
10
54.75
20
37
0
VERTEX
8
CUT
10
61.95
20
37
0
VERTEX
8
CUT
10
63.502
20
37.97
0
SEQEND
0
POLYLINE
8
CUT
66
1
70
0
0
VERTEX
8
CUT
10
53.198
20
35.03
0
VERTEX
8
CUT
10
54.75
20
36
0
VERTEX
8
CUT
10
61.95
20
36
0
VERTEX
8
CUT
10
63.502
20
35.03
0
SEQEND
0
POLYLINE
8
CUT
66
1
70
0
0
VERTEX
8
CUT
10
53.198
20
33.97
0
VERTEX
8
CUT
10
54.75
20
33
0
VERTEX
8
CUT
10
61.95
20
33
0
VERTEX
8
CUT
10
63.502
20
33.97
0
SEQEND
0
POLYLINE
8
CUT
66
1
70
0
0
VERTEX
8
CUT
10
53.198
20
31.03
0
VERTEX
8
CUT
10
54.75
20
32
0
VERTEX
8
CUT
10
61.95
20
32
0
VERTEX
8
CUT
10
63.502
20
31.03
0
SEQEND
0
POLYLINE
8
CUT
66
1
70
0
0
VERTEX
8
CUT
10
53.198
20
29.97
0
VERTEX
8
CUT
10
54.75
20
29
0
VERTEX
8
CUT
10
61.95
20
29
0
VERTEX
8
CUT
10
63.502
20
29.97
0
SEQEND
0
POLYLINE
8
CUT
66
1
70
0
0
VERTEX
8
CUT
10
53.198
20
27.03
0
VERTEX
8
CUT
10
54.75
20
28
0
VERTEX
8
CUT
10
61.95
20
28
0
VERTEX
8
CUT
10
63.502
20
27.03
0
SEQEND
0
POLYLINE
8
CUT
66
1
70
0
0
VERTEX
8
CUT
10
53.198
20
25.97
0
VERTEX
8
CUT
10
54.75
20
25
0
VERTEX
8
CUT
10
61.95
20
25
0
VERTEX
8
CUT
10
63.502
20
25.97
0
SEQEND
0
POLYLINE
8
CUT
66
1
70
0
0
VERTEX
8
CUT
10
53.198
20
23.03
0
VERTEX
8
CUT
10
54.75
20
24
0
VERTEX
8
CUT
10
61.95
20
24
0
VERTEX
8
CUT
10
63.502
20
23.03
0
SEQEND
0
POLYLINE
8
CUT
66
1
70
0
0
VERTEX
8
CUT
10
53.198
20
21.97
0
VERTEX
8
CUT
10
54.75
20
21
0
VERTEX
8
CUT
10
61.95
20
21
0
VERTEX
8
CUT
10
63.502
20
21.97
0
SEQEND
0
POLYLINE
8
CUT
66
1
70
0
0
VERTEX
8
CUT
10
53.198
20
19.03
0
VERTEX
8
CUT
10
54.75
20
20
0
VERTEX
8
CUT
10
61.95
20
20
0
VERTEX
8
CUT
10
63.502
20
19.03
0
SEQEND
0
POLYLINE
8
CUT
66
1
70
0
0
VERTEX
8
CUT
10
53.198
20
17.97
0
VERTEX
8
CUT
10
54.75
20
17
0
VERTEX
8
CUT
10
61.95
20
17
0
VERTEX
8
CUT
10
63.502
20
17.97
0
SEQEND
0
POLYLINE
8
CUT
66
1
70
0
0
VERTEX
8
CUT
10
53.198
20
15.03
0
VERTEX
8
CUT
10
54.75
20
16
0
VERTEX
8
CUT
10
61.95
20
16
0
VERTEX
8
CUT
10
63.502
20
15.03
0
SEQEND
0
POLYLINE
8
CUT
66
1
70
0
0
VERTEX
8
CUT
10
53.198
20
13.97
0
VERTEX
8
CUT
10
54.75
20
13
0
VERTEX
8
CUT
10
61.95
20
13
0
VERTEX
8
CUT
10
63.502
20
13.97
0
SEQEND
0
POLYLINE
8
CUT
66
1
70
0
0
VERTEX
8
CUT
10
53.198
20
11.03
0
VERTEX
8
CUT
10
54.75
20
12
0
VERTEX
8
CUT
10
61.95
20
12
0
VERTEX
8
CUT
10
63.502
20
11.03
0
SEQEND
0
POLYLINE
8
CUT
66
1
70
0
0
VERTEX
8
CUT
10
53.198
20
9.97
0
VERTEX
8
CUT
10
54.75
20
9
0
VERTEX
8
CUT
10
61.95
20
9
0
VERTEX
8
CUT
10
63.502
20
9.97
0
SEQEND
0
POLYLINE
8
CUT
66
1
70
0
0
VERTEX
8
CUT
10
53.198
20
7.03
0
VERTEX
8
CUT
10
54.75
20
8
0
VERTEX
8
CUT
10
61.95
20
8
0
VERTEX
8
CUT
10
63.502
20
7.03
0
SEQEND
0
POLYLINE
8
CUT
66
1
70
0
0
VERTEX
8
CUT
10
53.198
20
5.97
0
VERTEX
8
CUT
10
54.75
20
5
0
VERTEX
8
CUT
10
61.95
20
5
0
VERTEX
8
CUT
10
63.502
20
5.97
0
SEQEND
0
POLYLINE
8
CUT
66
1
70
0
0
VERTEX
8
CUT
10
53.198
20
3.03
0
VERTEX
8
CUT
10
54.75
20
4
0
VERTEX
8
CUT
10
61.95
20
4
0
VERTEX
8
CUT
10
63.502
20
3.03
0
SEQEND
0
POLYLINE
8
CUT
66
1
70
0
0
VERTEX
8
CUT
10
53.198
20
1.97
0
VERTEX
8
CUT
10
54.75
20
1
0
VERTEX
8
CUT
10
61.95
20
1
0
VERTEX
8
CUT
10
63.502
20
1.97
0
SEQEND
0
POLYLINE
8
CUT
66
1
70
0
0
VERTEX
8
CUT
10
54.75
20
0
0
VERTEX
8
CUT
10
54.75
20
0
0
VERTEX
8
CUT
10
61.95
20
0
0
VERTEX
8
CUT
10
61.95
20
0
0
SEQEND
0
POLYLINE
8
CUT
66
1
70
0
0
VERTEX
8
CUT
10
63.668
20
69.03
0
VERTEX
8
CUT
10
65.22
20
70
0
VERTEX
8
CUT
10
72.42
20
70
0
VERTEX
8
CUT
10
73.972
20
69.03
0
SEQEND
0
POLYLINE
8
CUT
66
1
70
0
0
VERTEX
8
CUT
10
63.668
20
67.97
0
VERTEX
8
CUT
10
65.22
20
67
0
VERTEX
8
CUT
10
72.42
20
67
0
VERTEX
8
CUT
10
73.972
20
67.97
0
SEQEND
0
POLYLINE
8
CUT
66
1
70
0
0
VERTEX
8
CUT
10
63.668
20
65.03
0
VERTEX
8
CUT
10
65.22
20
66
0
VERTEX
8
CUT
10
72.42
20
66
0
VERTEX
8
CUT
10
73.972
20
65.03
0
SEQEND
0
POLYLINE
8
CUT
66
1
70
0
0
VERTEX
8
CUT
10
63.668
20
63.97
0
VERTEX
8
CUT
10
65.22
20
63
0
VERTEX
8
CUT
10
72.42
20
63
0
VERTEX
8
CUT
10
73.972
20
63.97
0
SEQEND
0
POLYLINE
8
CUT
66
1
70
0
0
VERTEX
8
CUT
10
63.668
20
61.03
0
VERTEX
8
CUT
10
65.22
20
62
0
VERTEX
8
CUT
10
72.42
20
62
0
VERTEX
8
CUT
10
73.972
20
61.03
0
SEQEND
0
POLYLINE
8
CUT
66
1
70
0
0
VERTEX
8
CUT
10
63.668
20
59.97
0
VERTEX
8
CUT
10
65.22
20
59
0
VERTEX
8
CUT
10
72.42
20
59
0
VERTEX
8
CUT
10
73.972
20
59.97
0
SEQEND
0
POLYLINE
8
CUT
66
1
70
0
0
VERTEX
8
CUT
10
63.668
20
57.03
0
VERTEX
8
CUT
10
65.22
20
58
0
VERTEX
8
CUT
10
72.42
20
58
0
VERTEX
8
CUT
10
73.972
20
57.03
0
SEQEND
0
POLYLINE
8
CUT
66
1
70
0
0
VERTEX
8
CUT
10
63.668
20
55.97
0
VERTEX
8
CUT
10
65.22
20
55
0
VERTEX
8
CUT
10
72.42
20
55
0
VERTEX
8
CUT
10
73.972
20
55.97
0
SEQEND
0
POLYLINE
8
CUT
66
1
70
0
0
VERTEX
8
CUT
10
63.668
20
53.03
0
VERTEX
8
CUT
10
65.22
20
54
0
VERTEX
8
CUT
10
72.42
20
54
0
VERTEX
8
CUT
10
73.972
20
53.03
0
SEQEND
0
POLYLINE
8
CUT
66
1
70
0
0
VERTEX
8
CUT
10
63.668
20
51.97
0
VERTEX
8
CUT
10
65.22
20
51
0
VERTEX
8
CUT
10
72.42
20
51
0
VERTEX
8
CUT
10
73.972
20
51.97
0
SEQEND
0
POLYLINE
8
CUT
66
1
70
0
0
VERTEX
8
CUT
10
63.668
20
49.03
0
VERTEX
8
CUT
10
65.22
20
50
0
VERTEX
8
CUT
10
72.42
20
50
0
VERTEX
8
CUT
10
73.972
20
49.03
0
SEQEND
0
POLYLINE
8
CUT
66
1
70
0
0
VERTEX
8
CUT
10
63.668
20
47.97
0
VERTEX
8
CUT
10
65.22
20
47
0
VERTEX
8
CUT
10
72.42
20
47
0
VERTEX
8
CUT
10
73.972
20
47.97
0
SEQEND
0
POLYLINE
8
CUT
66
1
70
0
0
VERTEX
8
CUT
10
63.668
20
45.03
0
VERTEX
8
CUT
10
65.22
20
46
0
VERTEX
8
CUT
10
72.42
20
46
0
VERTEX
8
CUT
10
73.972
20
45.03
0
SEQEND
0
POLYLINE
8
CUT
66
1
70
0
0
VERTEX
8
CUT
10
63.668
20
43.97
0
VERTEX
8
CUT
10
65.22
20
43
0
VERTEX
8
CUT
10
72.42
20
43
0
VERTEX
8
CUT
10
73.972
20
43.97
0
SEQEND
0
POLYLINE
8
CUT
66
1
70
0
0
VERTEX
8
CUT
10
63.668
20
41.03
0
VERTEX
8
CUT
10
65.22
20
42
0
VERTEX
8
CUT
10
72.42
20
42
0
VERTEX
8
CUT
10
73.972
20
41.03
0
SEQEND
0
POLYLINE
8
CUT
66
1
70
0
0
VERTEX
8
CUT
10
63.668
20
39.97
0
VERTEX
8
CUT
10
65.22
20
39
0
VERTEX
8
CUT
10
72.42
20
39
0
VERTEX
8
CUT
10
73.972
20
39.97
0
SEQEND
0
POLYLINE
8
CUT
66
1
70
0
0
VERTEX
8
CUT
10
63.668
20
37.03
0
VERTEX
8
CUT
10
65.22
20
38
0
VERTEX
8
CUT
10
72.42
20
38
0
VERTEX
8
CUT
10
73.972
20
37.03
0
SEQEND
0
POLYLINE
8
CUT
66
1
70
0
0
VERTEX
8
CUT
10
63.668
20
35.97
0
VERTEX
8
CUT
10
65.22
20
35
0
VERTEX
8
CUT
10
72.42
20
35
0
VERTEX
8
CUT
10
73.972
20
35.97
0
SEQEND
0
POLYLINE
8
CUT
66
1
70
0
0
VERTEX
8
CUT
10
63.668
20
33.03
0
VERTEX
8
CUT
10
65.22
20
34
0
VERTEX
8
CUT
10
72.42
20
34
0
VERTEX
8
CUT
10
73.972
20
33.03
0
SEQEND
0
POLYLINE
8
CUT
66
1
70
0
0
VERTEX
8
CUT
10
63.668
20
31.97
0
VERTEX
8
CUT
10
65.22
20
31
0
VERTEX
8
CUT
10
72.42
20
31
0
VERTEX
8
CUT
10
73.972
20
31.97
0
SEQEND
0
POLYLINE
8
CUT
66
1
70
0
0
VERTEX
8
CUT
10
63.668
20
29.03
0
VERTEX
8
CUT
10
65.22
20
30
0
VERTEX
8
CUT
10
72.42
20
30
0
VERTEX
8
CUT
10
73.972
20
29.03
0
SEQEND
0
POLYLINE
8
CUT
66
1
70
0
0
VERTEX
8
CUT
10
63.668
20
27.97
0
VERTEX
8
CUT
10
65.22
20
27
0
VERTEX
8
CUT
10
72.42
20
27
0
VERTEX
8
CUT
10
73.972
20
27.97
0
SEQEND
0
POLYLINE
8
CUT
66
1
70
0
0
VERTEX
8
CUT
10
63.668
20
25.03
0
VERTEX
8
CUT
10
65.22
20
26
0
VERTEX
8
CUT
10
72.42
20
26
0
VERTEX
8
CUT
10
73.972
20
25.03
0
SEQEND
0
POLYLINE
8
CUT
66
1
70
0
0
VERTEX
8
CUT
10
63.668
20
23.97
0
VERTEX
8
CUT
10
65.22
20
23
0
VERTEX
8
CUT
10
72.42
20
23
0
VERTEX
8
CUT
10
73.972
20
23.97
0
SEQEND
0
POLYLINE
8
CUT
66
1
70
0
0
VERTEX
8
CUT
10
63.668
20
21.03
0
VERTEX
8
CUT
10
65.22
20
22
0
VERTEX
8
CUT
10
72.42
20
22
0
VERTEX
8
CUT
10
73.972
20
21.03
0
SEQEND
0
POLYLINE
8
CUT
66
1
70
0
0
VERTEX
8
CUT
10
63.668
20
19.97
0
VERTEX
8
CUT
10
65.22
20
19
0
VERTEX
8
CUT
10
72.42
20
19
0
VERTEX
8
CUT
10
73.972
20
19.97
0
SEQEND
0
POLYLINE
8
CUT
66
1
70
0
0
VERTEX
8
CUT
10
63.668
20
17.03
0
VERTEX
8
CUT
10
65.22
20
18
0
VERTEX
8
CUT
10
72.42
20
18
0
VERTEX
8
CUT
10
73.972
20
17.03
0
SEQEND
0
POLYLINE
8
CUT
66
1
70
0
0
VERTEX
8
CUT
10
63.668
20
15.97
0
VERTEX
8
CUT
10
65.22
20
15
0
VERTEX
8
CUT
10
72.42
20
15
0
VERTEX
8
CUT
10
73.972
20
15.97
0
SEQEND
0
POLYLINE
8
CUT
66
1
70
0
0
VERTEX
8
CUT
10
63.668
20
13.03
0
VERTEX
8
CUT
10
65.22
20
14
0
VERTEX
8
CUT
10
72.42
20
14
0
VERTEX
8
CUT
10
73.972
20
13.03
0
SEQEND
0
POLYLINE
8
CUT
66
1
70
0
0
VERTEX
8
CUT
10
63.668
20
11.97
0
VERTEX
8
CUT
10
65.22
20
11
0
VERTEX
8
CUT
10
72.42
20
11
0
VERTEX
8
CUT
10
73.972
20
11.97
0
SEQEND
0
POLYLINE
8
CUT
66
1
70
0
0
VERTEX
8
CUT
10
63.668
20
9.03
0
VERTEX
8
CUT
10
65.22
20
10
0
VERTEX
8
CUT
10
72.42
20
10
0
VERTEX
8
CUT
10
73.972
20
9.03
0
SEQEND
0
POLYLINE
8
CUT
66
1
70
0
0
VERTEX
8
CUT
10
63.668
20
7.97
0
VERTEX
8
CUT
10
65.22
20
7
0
VERTEX
8
CUT
10
72.42
20
7
0
VERTEX
8
CUT
10
73.972
20
7.97
0
SEQEND
0
POLYLINE
8
CUT
66
1
70
0
0
VERTEX
8
CUT
10
63.668
20
5.03
0
VERTEX
8
CUT
10
65.22
20
6
0
VERTEX
8
CUT
10
72.42
20
6
0
VERTEX
8
CUT
10
73.972
20
5.03
0
SEQEND
0
POLYLINE
8
CUT
66
1
70
0
0
VERTEX
8
CUT
10
63.668
20
3.97
0
VERTEX
8
CUT
10
65.22
20
3
0
VERTEX
8
CUT
10
72.42
20
3
0
VERTEX
8
CUT
10
73.972
20
3.97
0
SEQEND
0
POLYLINE
8
CUT
66
1
70
0
0
VERTEX
8
CUT
10
63.668
20
1.03
0
VERTEX
8
CUT
10
65.22
20
2
0
VERTEX
8
CUT
10
72.42
20
2
0
VERTEX
8
CUT
10
73.972
20
1.03
0
SEQEND
0
POLYLINE
8
CUT
66
1
70
0
0
VERTEX
8
CUT
10
74.138
20
69.97
0
VERTEX
8
CUT
10
75.69
20
69
0
VERTEX
8
CUT
10
82.89
20
69
0
VERTEX
8
CUT
10
84.442
20
69.97
0
SEQEND
0
POLYLINE
8
CUT
66
1
70
0
0
VERTEX
8
CUT
10
74.138
20
67.03
0
VERTEX
8
CUT
10
75.69
20
68
0
VERTEX
8
CUT
10
82.89
20
68
0
VERTEX
8
CUT
10
84.442
20
67.03
0
SEQEND
0
POLYLINE
8
CUT
66
1
70
0
0
VERTEX
8
CUT
10
74.138
20
65.97
0
VERTEX
8
CUT
10
75.69
20
65
0
VERTEX
8
CUT
10
82.89
20
65
0
VERTEX
8
CUT
10
84.442
20
65.97
0
SEQEND
0
POLYLINE
8
CUT
66
1
70
0
0
VERTEX
8
CUT
10
74.138
20
63.03
0
VERTEX
8
CUT
10
75.69
20
64
0
VERTEX
8
CUT
10
82.89
20
64
0
VERTEX
8
CUT
10
84.442
20
63.03
0
SEQEND
0
POLYLINE
8
CUT
66
1
70
0
0
VERTEX
8
CUT
10
74.138
20
61.97
0
VERTEX
8
CUT
10
75.69
20
61
0
VERTEX
8
CUT
10
82.89
20
61
0
VERTEX
8
CUT
10
84.442
20
61.97
0
SEQEND
0
POLYLINE
8
CUT
66
1
70
0
0
VERTEX
8
CUT
10
74.138
20
59.03
0
VERTEX
8
CUT
10
75.69
20
60
0
VERTEX
8
CUT
10
82.89
20
60
0
VERTEX
8
CUT
10
84.442
20
59.03
0
SEQEND
0
POLYLINE
8
CUT
66
1
70
0
0
VERTEX
8
CUT
10
74.138
20
57.97
0
VERTEX
8
CUT
10
75.69
20
57
0
VERTEX
8
CUT
10
82.89
20
57
0
VERTEX
8
CUT
10
84.442
20
57.97
0
SEQEND
0
POLYLINE
8
CUT
66
1
70
0
0
VERTEX
8
CUT
10
74.138
20
55.03
0
VERTEX
8
CUT
10
75.69
20
56
0
VERTEX
8
CUT
10
82.89
20
56
0
VERTEX
8
CUT
10
84.442
20
55.03
0
SEQEND
0
POLYLINE
8
CUT
66
1
70
0
0
VERTEX
8
CUT
10
74.138
20
53.97
0
VERTEX
8
CUT
10
75.69
20
53
0
VERTEX
8
CUT
10
82.89
20
53
0
VERTEX
8
CUT
10
84.442
20
53.97
0
SEQEND
0
POLYLINE
8
CUT
66
1
70
0
0
VERTEX
8
CUT
10
74.138
20
51.03
0
VERTEX
8
CUT
10
75.69
20
52
0
VERTEX
8
CUT
10
82.89
20
52
0
VERTEX
8
CUT
10
84.442
20
51.03
0
SEQEND
0
POLYLINE
8
CUT
66
1
70
0
0
VERTEX
8
CUT
10
74.138
20
49.97
0
VERTEX
8
CUT
10
75.69
20
49
0
VERTEX
8
CUT
10
82.89
20
49
0
VERTEX
8
CUT
10
84.442
20
49.97
0
SEQEND
0
POLYLINE
8
CUT
66
1
70
0
0
VERTEX
8
CUT
10
74.138
20
47.03
0
VERTEX
8
CUT
10
75.69
20
48
0
VERTEX
8
CUT
10
82.89
20
48
0
VERTEX
8
CUT
10
84.442
20
47.03
0
SEQEND
0
POLYLINE
8
CUT
66
1
70
0
0
VERTEX
8
CUT
10
74.138
20
45.97
0
VERTEX
8
CUT
10
75.69
20
45
0
VERTEX
8
CUT
10
82.89
20
45
0
VERTEX
8
CUT
10
84.442
20
45.97
0
SEQEND
0
POLYLINE
8
CUT
66
1
70
0
0
VERTEX
8
CUT
10
74.138
20
43.03
0
VERTEX
8
CUT
10
75.69
20
44
0
VERTEX
8
CUT
10
82.89
20
44
0
VERTEX
8
CUT
10
84.442
20
43.03
0
SEQEND
0
POLYLINE
8
CUT
66
1
70
0
0
VERTEX
8
CUT
10
74.138
20
41.97
0
VERTEX
8
CUT
10
75.69
20
41
0
VERTEX
8
CUT
10
82.89
20
41
0
VERTEX
8
CUT
10
84.442
20
41.97
0
SEQEND
0
POLYLINE
8
CUT
66
1
70
0
0
VERTEX
8
CUT
10
74.138
20
39.03
0
VERTEX
8
CUT
10
75.69
20
40
0
VERTEX
8
CUT
10
82.89
20
40
0
VERTEX
8
CUT
10
84.442
20
39.03
0
SEQEND
0
POLYLINE
8
CUT
66
1
70
0
0
VERTEX
8
CUT
10
74.138
20
37.97
0
VERTEX
8
CUT
10
75.69
20
37
0
VERTEX
8
CUT
10
82.89
20
37
0
VERTEX
8
CUT
10
84.442
20
37.97
0
SEQEND
0
POLYLINE
8
CUT
66
1
70
0
0
VERTEX
8
CUT
10
74.138
20
35.03
0
VERTEX
8
CUT
10
75.69
20
36
0
VERTEX
8
CUT
10
82.89
20
36
0
VERTEX
8
CUT
10
84.442
20
35.03
0
SEQEND
0
POLYLINE
8
CUT
66
1
70
0
0
VERTEX
8
CUT
10
74.138
20
33.97
0
VERTEX
8
CUT
10
75.69
20
33
0
VERTEX
8
CUT
10
82.89
20
33
0
VERTEX
8
CUT
10
84.442
20
33.97
0
SEQEND
0
POLYLINE
8
CUT
66
1
70
0
0
VERTEX
8
CUT
10
74.138
20
31.03
0
VERTEX
8
CUT
10
75.69
20
32
0
VERTEX
8
CUT
10
82.89
20
32
0
VERTEX
8
CUT
10
84.442
20
31.03
0
SEQEND
0
POLYLINE
8
CUT
66
1
70
0
0
VERTEX
8
CUT
10
74.138
20
29.97
0
VERTEX
8
CUT
10
75.69
20
29
0
VERTEX
8
CUT
10
82.89
20
29
0
VERTEX
8
CUT
10
84.442
20
29.97
0
SEQEND
0
POLYLINE
8
CUT
66
1
70
0
0
VERTEX
8
CUT
10
74.138
20
27.03
0
VERTEX
8
CUT
10
75.69
20
28
0
VERTEX
8
CUT
10
82.89
20
28
0
VERTEX
8
CUT
10
84.442
20
27.03
0
SEQEND
0
POLYLINE
8
CUT
66
1
70
0
0
VERTEX
8
CUT
10
74.138
20
25.97
0
VERTEX
8
CUT
10
75.69
20
25
0
VERTEX
8
CUT
10
82.89
20
25
0
VERTEX
8
CUT
10
84.442
20
25.97
0
SEQEND
0
POLYLINE
8
CUT
66
1
70
0
0
VERTEX
8
CUT
10
74.138
20
23.03
0
VERTEX
8
CUT
10
75.69
20
24
0
VERTEX
8
CUT
10
82.89
20
24
0
VERTEX
8
CUT
10
84.442
20
23.03
0
SEQEND
0
POLYLINE
8
CUT
66
1
70
0
0
VERTEX
8
CUT
10
74.138
20
21.97
0
VERTEX
8
CUT
10
75.69
20
21
0
VERTEX
8
CUT
10
82.89
20
21
0
VERTEX
8
CUT
10
84.442
20
21.97
0
SEQEND
0
POLYLINE
8
CUT
66
1
70
0
0
VERTEX
8
CUT
10
74.138
20
19.03
0
VERTEX
8
CUT
10
75.69
20
20
0
VERTEX
8
CUT
10
82.89
20
20
0
VERTEX
8
CUT
10
84.442
20
19.03
0
SEQEND
0
POLYLINE
8
CUT
66
1
70
0
0
VERTEX
8
CUT
10
74.138
20
17.97
0
VERTEX
8
CUT
10
75.69
20
17
0
VERTEX
8
CUT
10
82.89
20
17
0
VERTEX
8
CUT
10
84.442
20
17.97
0
SEQEND
0
POLYLINE
8
CUT
66
1
70
0
0
VERTEX
8
CUT
10
74.138
20
15.03
0
VERTEX
8
CUT
10
75.69
20
16
0
VERTEX
8
CUT
10
82.89
20
16
0
VERTEX
8
CUT
10
84.442
20
15.03
0
SEQEND
0
POLYLINE
8
CUT
66
1
70
0
0
VERTEX
8
CUT
10
74.138
20
13.97
0
VERTEX
8
CUT
10
75.69
20
13
0
VERTEX
8
CUT
10
82.89
20
13
0
VERTEX
8
CUT
10
84.442
20
13.97
0
SEQEND
0
POLYLINE
8
CUT
66
1
70
0
0
VERTEX
8
CUT
10
74.138
20
11.03
0
VERTEX
8
CUT
10
75.69
20
12
0
VERTEX
8
CUT
10
82.89
20
12
0
VERTEX
8
CUT
10
84.442
20
11.03
0
SEQEND
0
POLYLINE
8
CUT
66
1
70
0
0
VERTEX
8
CUT
10
74.138
20
9.97
0
VERTEX
8
CUT
10
75.69
20
9
0
VERTEX
8
CUT
10
82.89
20
9
0
VERTEX
8
CUT
10
84.442
20
9.97
0
SEQEND
0
POLYLINE
8
CUT
66
1
70
0
0
VERTEX
8
CUT
10
74.138
20
7.03
0
VERTEX
8
CUT
10
75.69
20
8
0
VERTEX
8
CUT
10
82.89
20
8
0
VERTEX
8
CUT
10
84.442
20
7.03
0
SEQEND
0
POLYLINE
8
CUT
66
1
70
0
0
VERTEX
8
CUT
10
74.138
20
5.97
0
VERTEX
8
CUT
10
75.69
20
5
0
VERTEX
8
CUT
10
82.89
20
5
0
VERTEX
8
CUT
10
84.442
20
5.97
0
SEQEND
0
POLYLINE
8
CUT
66
1
70
0
0
VERTEX
8
CUT
10
74.138
20
3.03
0
VERTEX
8
CUT
10
75.69
20
4
0
VERTEX
8
CUT
10
82.89
20
4
0
VERTEX
8
CUT
10
84.442
20
3.03
0
SEQEND
0
POLYLINE
8
CUT
66
1
70
0
0
VERTEX
8
CUT
10
74.138
20
1.97
0
VERTEX
8
CUT
10
75.69
20
1
0
VERTEX
8
CUT
10
82.89
20
1
0
VERTEX
8
CUT
10
84.442
20
1.97
0
SEQEND
0
POLYLINE
8
CUT
66
1
70
0
0
VERTEX
8
CUT
10
75.69
20
0
0
VERTEX
8
CUT
10
75.69
20
0
0
VERTEX
8
CUT
10
82.89
20
0
0
VERTEX
8
CUT
10
82.89
20
0
0
SEQEND
0
POLYLINE
8
CUT
66
1
70
0
0
VERTEX
8
CUT
10
84.608
20
69.03
0
VERTEX
8
CUT
10
86.16
20
70
0
VERTEX
8
CUT
10
93.36
20
70
0
VERTEX
8
CUT
10
94.912
20
69.03
0
SEQEND
0
POLYLINE
8
CUT
66
1
70
0
0
VERTEX
8
CUT
10
84.608
20
67.97
0
VERTEX
8
CUT
10
86.16
20
67
0
VERTEX
8
CUT
10
93.36
20
67
0
VERTEX
8
CUT
10
94.912
20
67.97
0
SEQEND
0
POLYLINE
8
CUT
66
1
70
0
0
VERTEX
8
CUT
10
84.608
20
65.03
0
VERTEX
8
CUT
10
86.16
20
66
0
VERTEX
8
CUT
10
93.36
20
66
0
VERTEX
8
CUT
10
94.912
20
65.03
0
SEQEND
0
POLYLINE
8
CUT
66
1
70
0
0
VERTEX
8
CUT
10
84.608
20
63.97
0
VERTEX
8
CUT
10
86.16
20
63
0
VERTEX
8
CUT
10
93.36
20
63
0
VERTEX
8
CUT
10
94.912
20
63.97
0
SEQEND
0
POLYLINE
8
CUT
66
1
70
0
0
VERTEX
8
CUT
10
84.608
20
61.03
0
VERTEX
8
CUT
10
86.16
20
62
0
VERTEX
8
CUT
10
93.36
20
62
0
VERTEX
8
CUT
10
94.912
20
61.03
0
SEQEND
0
POLYLINE
8
CUT
66
1
70
0
0
VERTEX
8
CUT
10
84.608
20
59.97
0
VERTEX
8
CUT
10
86.16
20
59
0
VERTEX
8
CUT
10
93.36
20
59
0
VERTEX
8
CUT
10
94.912
20
59.97
0
SEQEND
0
POLYLINE
8
CUT
66
1
70
0
0
VERTEX
8
CUT
10
84.608
20
57.03
0
VERTEX
8
CUT
10
86.16
20
58
0
VERTEX
8
CUT
10
93.36
20
58
0
VERTEX
8
CUT
10
94.912
20
57.03
0
SEQEND
0
POLYLINE
8
CUT
66
1
70
0
0
VERTEX
8
CUT
10
84.608
20
55.97
0
VERTEX
8
CUT
10
86.16
20
55
0
VERTEX
8
CUT
10
93.36
20
55
0
VERTEX
8
CUT
10
94.912
20
55.97
0
SEQEND
0
POLYLINE
8
CUT
66
1
70
0
0
VERTEX
8
CUT
10
84.608
20
53.03
0
VERTEX
8
CUT
10
86.16
20
54
0
VERTEX
8
CUT
10
93.36
20
54
0
VERTEX
8
CUT
10
94.912
20
53.03
0
SEQEND
0
POLYLINE
8
CUT
66
1
70
0
0
VERTEX
8
CUT
10
84.608
20
51.97
0
VERTEX
8
CUT
10
86.16
20
51
0
VERTEX
8
CUT
10
93.36
20
51
0
VERTEX
8
CUT
10
94.912
20
51.97
0
SEQEND
0
POLYLINE
8
CUT
66
1
70
0
0
VERTEX
8
CUT
10
84.608
20
49.03
0
VERTEX
8
CUT
10
86.16
20
50
0
VERTEX
8
CUT
10
93.36
20
50
0
VERTEX
8
CUT
10
94.912
20
49.03
0
SEQEND
0
POLYLINE
8
CUT
66
1
70
0
0
VERTEX
8
CUT
10
84.608
20
47.97
0
VERTEX
8
CUT
10
86.16
20
47
0
VERTEX
8
CUT
10
93.36
20
47
0
VERTEX
8
CUT
10
94.912
20
47.97
0
SEQEND
0
POLYLINE
8
CUT
66
1
70
0
0
VERTEX
8
CUT
10
84.608
20
45.03
0
VERTEX
8
CUT
10
86.16
20
46
0
VERTEX
8
CUT
10
93.36
20
46
0
VERTEX
8
CUT
10
94.912
20
45.03
0
SEQEND
0
POLYLINE
8
CUT
66
1
70
0
0
VERTEX
8
CUT
10
84.608
20
43.97
0
VERTEX
8
CUT
10
86.16
20
43
0
VERTEX
8
CUT
10
93.36
20
43
0
VERTEX
8
CUT
10
94.912
20
43.97
0
SEQEND
0
POLYLINE
8
CUT
66
1
70
0
0
VERTEX
8
CUT
10
84.608
20
41.03
0
VERTEX
8
CUT
10
86.16
20
42
0
VERTEX
8
CUT
10
93.36
20
42
0
VERTEX
8
CUT
10
94.912
20
41.03
0
SEQEND
0
POLYLINE
8
CUT
66
1
70
0
0
VERTEX
8
CUT
10
84.608
20
39.97
0
VERTEX
8
CUT
10
86.16
20
39
0
VERTEX
8
CUT
10
93.36
20
39
0
VERTEX
8
CUT
10
94.912
20
39.97
0
SEQEND
0
POLYLINE
8
CUT
66
1
70
0
0
VERTEX
8
CUT
10
84.608
20
37.03
0
VERTEX
8
CUT
10
86.16
20
38
0
VERTEX
8
CUT
10
93.36
20
38
0
VERTEX
8
CUT
10
94.912
20
37.03
0
SEQEND
0
POLYLINE
8
CUT
66
1
70
0
0
VERTEX
8
CUT
10
84.608
20
35.97
0
VERTEX
8
CUT
10
86.16
20
35
0
VERTEX
8
CUT
10
93.36
20
35
0
VERTEX
8
CUT
10
94.912
20
35.97
0
SEQEND
0
POLYLINE
8
CUT
66
1
70
0
0
VERTEX
8
CUT
10
84.608
20
33.03
0
VERTEX
8
CUT
10
86.16
20
34
0
VERTEX
8
CUT
10
93.36
20
34
0
VERTEX
8
CUT
10
94.912
20
33.03
0
SEQEND
0
POLYLINE
8
CUT
66
1
70
0
0
VERTEX
8
CUT
10
84.608
20
31.97
0
VERTEX
8
CUT
10
86.16
20
31
0
VERTEX
8
CUT
10
93.36
20
31
0
VERTEX
8
CUT
10
94.912
20
31.97
0
SEQEND
0
POLYLINE
8
CUT
66
1
70
0
0
VERTEX
8
CUT
10
84.608
20
29.03
0
VERTEX
8
CUT
10
86.16
20
30
0
VERTEX
8
CUT
10
93.36
20
30
0
VERTEX
8
CUT
10
94.912
20
29.03
0
SEQEND
0
POLYLINE
8
CUT
66
1
70
0
0
VERTEX
8
CUT
10
84.608
20
27.97
0
VERTEX
8
CUT
10
86.16
20
27
0
VERTEX
8
CUT
10
93.36
20
27
0
VERTEX
8
CUT
10
94.912
20
27.97
0
SEQEND
0
POLYLINE
8
CUT
66
1
70
0
0
VERTEX
8
CUT
10
84.608
20
25.03
0
VERTEX
8
CUT
10
86.16
20
26
0
VERTEX
8
CUT
10
93.36
20
26
0
VERTEX
8
CUT
10
94.912
20
25.03
0
SEQEND
0
POLYLINE
8
CUT
66
1
70
0
0
VERTEX
8
CUT
10
84.608
20
23.97
0
VERTEX
8
CUT
10
86.16
20
23
0
VERTEX
8
CUT
10
93.36
20
23
0
VERTEX
8
CUT
10
94.912
20
23.97
0
SEQEND
0
POLYLINE
8
CUT
66
1
70
0
0
VERTEX
8
CUT
10
84.608
20
21.03
0
VERTEX
8
CUT
10
86.16
20
22
0
VERTEX
8
CUT
10
93.36
20
22
0
VERTEX
8
CUT
10
94.912
20
21.03
0
SEQEND
0
POLYLINE
8
CUT
66
1
70
0
0
VERTEX
8
CUT
10
84.608
20
19.97
0
VERTEX
8
CUT
10
86.16
20
19
0
VERTEX
8
CUT
10
93.36
20
19
0
VERTEX
8
CUT
10
94.912
20
19.97
0
SEQEND
0
POLYLINE
8
CUT
66
1
70
0
0
VERTEX
8
CUT
10
84.608
20
17.03
0
VERTEX
8
CUT
10
86.16
20
18
0
VERTEX
8
CUT
10
93.36
20
18
0
VERTEX
8
CUT
10
94.912
20
17.03
0
SEQEND
0
POLYLINE
8
CUT
66
1
70
0
0
VERTEX
8
CUT
10
84.608
20
15.97
0
VERTEX
8
CUT
10
86.16
20
15
0
VERTEX
8
CUT
10
93.36
20
15
0
VERTEX
8
CUT
10
94.912
20
15.97
0
SEQEND
0
POLYLINE
8
CUT
66
1
70
0
0
VERTEX
8
CUT
10
84.608
20
13.03
0
VERTEX
8
CUT
10
86.16
20
14
0
VERTEX
8
CUT
10
93.36
20
14
0
VERTEX
8
CUT
10
94.912
20
13.03
0
SEQEND
0
POLYLINE
8
CUT
66
1
70
0
0
VERTEX
8
CUT
10
84.608
20
11.97
0
VERTEX
8
CUT
10
86.16
20
11
0
VERTEX
8
CUT
10
93.36
20
11
0
VERTEX
8
CUT
10
94.912
20
11.97
0
SEQEND
0
POLYLINE
8
CUT
66
1
70
0
0
VERTEX
8
CUT
10
84.608
20
9.03
0
VERTEX
8
CUT
10
86.16
20
10
0
VERTEX
8
CUT
10
93.36
20
10
0
VERTEX
8
CUT
10
94.912
20
9.03
0
SEQEND
0
POLYLINE
8
CUT
66
1
70
0
0
VERTEX
8
CUT
10
84.608
20
7.97
0
VERTEX
8
CUT
10
86.16
20
7
0
VERTEX
8
CUT
10
93.36
20
7
0
VERTEX
8
CUT
10
94.912
20
7.97
0
SEQEND
0
POLYLINE
8
CUT
66
1
70
0
0
VERTEX
8
CUT
10
84.608
20
5.03
0
VERTEX
8
CUT
10
86.16
20
6
0
VERTEX
8
CUT
10
93.36
20
6
0
VERTEX
8
CUT
10
94.912
20
5.03
0
SEQEND
0
POLYLINE
8
CUT
66
1
70
0
0
VERTEX
8
CUT
10
84.608
20
3.97
0
VERTEX
8
CUT
10
86.16
20
3
0
VERTEX
8
CUT
10
93.36
20
3
0
VERTEX
8
CUT
10
94.912
20
3.97
0
SEQEND
0
POLYLINE
8
CUT
66
1
70
0
0
VERTEX
8
CUT
10
84.608
20
1.03
0
VERTEX
8
CUT
10
86.16
20
2
0
VERTEX
8
CUT
10
93.36
20
2
0
VERTEX
8
CUT
10
94.912
20
1.03
0
SEQEND
0
POLYLINE
8
CUT
66
1
70
0
0
VERTEX
8
CUT
10
95.078
20
69.97
0
VERTEX
8
CUT
10
96.63
20
69
0
VERTEX
8
CUT
10
103.83
20
69
0
VERTEX
8
CUT
10
105.382
20
69.97
0
SEQEND
0
POLYLINE
8
CUT
66
1
70
0
0
VERTEX
8
CUT
10
95.078
20
67.03
0
VERTEX
8
CUT
10
96.63
20
68
0
VERTEX
8
CUT
10
103.83
20
68
0
VERTEX
8
CUT
10
105.382
20
67.03
0
SEQEND
0
POLYLINE
8
CUT
66
1
70
0
0
VERTEX
8
CUT
10
95.078
20
65.97
0
VERTEX
8
CUT
10
96.63
20
65
0
VERTEX
8
CUT
10
103.83
20
65
0
VERTEX
8
CUT
10
105.382
20
65.97
0
SEQEND
0
POLYLINE
8
CUT
66
1
70
0
0
VERTEX
8
CUT
10
95.078
20
63.03
0
VERTEX
8
CUT
10
96.63
20
64
0
VERTEX
8
CUT
10
103.83
20
64
0
VERTEX
8
CUT
10
105.382
20
63.03
0
SEQEND
0
POLYLINE
8
CUT
66
1
70
0
0
VERTEX
8
CUT
10
95.078
20
61.97
0
VERTEX
8
CUT
10
96.63
20
61
0
VERTEX
8
CUT
10
103.83
20
61
0
VERTEX
8
CUT
10
105.382
20
61.97
0
SEQEND
0
POLYLINE
8
CUT
66
1
70
0
0
VERTEX
8
CUT
10
95.078
20
59.03
0
VERTEX
8
CUT
10
96.63
20
60
0
VERTEX
8
CUT
10
103.83
20
60
0
VERTEX
8
CUT
10
105.382
20
59.03
0
SEQEND
0
POLYLINE
8
CUT
66
1
70
0
0
VERTEX
8
CUT
10
95.078
20
57.97
0
VERTEX
8
CUT
10
96.63
20
57
0
VERTEX
8
CUT
10
103.83
20
57
0
VERTEX
8
CUT
10
105.382
20
57.97
0
SEQEND
0
POLYLINE
8
CUT
66
1
70
0
0
VERTEX
8
CUT
10
95.078
20
55.03
0
VERTEX
8
CUT
10
96.63
20
56
0
VERTEX
8
CUT
10
103.83
20
56
0
VERTEX
8
CUT
10
105.382
20
55.03
0
SEQEND
0
POLYLINE
8
CUT
66
1
70
0
0
VERTEX
8
CUT
10
95.078
20
53.97
0
VERTEX
8
CUT
10
96.63
20
53
0
VERTEX
8
CUT
10
103.83
20
53
0
VERTEX
8
CUT
10
105.382
20
53.97
0
SEQEND
0
POLYLINE
8
CUT
66
1
70
0
0
VERTEX
8
CUT
10
95.078
20
51.03
0
VERTEX
8
CUT
10
96.63
20
52
0
VERTEX
8
CUT
10
103.83
20
52
0
VERTEX
8
CUT
10
105.382
20
51.03
0
SEQEND
0
POLYLINE
8
CUT
66
1
70
0
0
VERTEX
8
CUT
10
95.078
20
49.97
0
VERTEX
8
CUT
10
96.63
20
49
0
VERTEX
8
CUT
10
103.83
20
49
0
VERTEX
8
CUT
10
105.382
20
49.97
0
SEQEND
0
POLYLINE
8
CUT
66
1
70
0
0
VERTEX
8
CUT
10
95.078
20
47.03
0
VERTEX
8
CUT
10
96.63
20
48
0
VERTEX
8
CUT
10
103.83
20
48
0
VERTEX
8
CUT
10
105.382
20
47.03
0
SEQEND
0
POLYLINE
8
CUT
66
1
70
0
0
VERTEX
8
CUT
10
95.078
20
45.97
0
VERTEX
8
CUT
10
96.63
20
45
0
VERTEX
8
CUT
10
103.83
20
45
0
VERTEX
8
CUT
10
105.382
20
45.97
0
SEQEND
0
POLYLINE
8
CUT
66
1
70
0
0
VERTEX
8
CUT
10
95.078
20
43.03
0
VERTEX
8
CUT
10
96.63
20
44
0
VERTEX
8
CUT
10
103.83
20
44
0
VERTEX
8
CUT
10
105.382
20
43.03
0
SEQEND
0
POLYLINE
8
CUT
66
1
70
0
0
VERTEX
8
CUT
10
95.078
20
41.97
0
VERTEX
8
CUT
10
96.63
20
41
0
VERTEX
8
CUT
10
103.83
20
41
0
VERTEX
8
CUT
10
105.382
20
41.97
0
SEQEND
0
POLYLINE
8
CUT
66
1
70
0
0
VERTEX
8
CUT
10
95.078
20
39.03
0
VERTEX
8
CUT
10
96.63
20
40
0
VERTEX
8
CUT
10
103.83
20
40
0
VERTEX
8
CUT
10
105.382
20
39.03
0
SEQEND
0
POLYLINE
8
CUT
66
1
70
0
0
VERTEX
8
CUT
10
95.078
20
37.97
0
VERTEX
8
CUT
10
96.63
20
37
0
VERTEX
8
CUT
10
103.83
20
37
0
VERTEX
8
CUT
10
105.382
20
37.97
0
SEQEND
0
POLYLINE
8
CUT
66
1
70
0
0
VERTEX
8
CUT
10
95.078
20
35.03
0
VERTEX
8
CUT
10
96.63
20
36
0
VERTEX
8
CUT
10
103.83
20
36
0
VERTEX
8
CUT
10
105.382
20
35.03
0
SEQEND
0
POLYLINE
8
CUT
66
1
70
0
0
VERTEX
8
CUT
10
95.078
20
33.97
0
VERTEX
8
CUT
10
96.63
20
33
0
VERTEX
8
CUT
10
103.83
20
33
0
VERTEX
8
CUT
10
105.382
20
33.97
0
SEQEND
0
POLYLINE
8
CUT
66
1
70
0
0
VERTEX
8
CUT
10
95.078
20
31.03
0
VERTEX
8
CUT
10
96.63
20
32
0
VERTEX
8
CUT
10
103.83
20
32
0
VERTEX
8
CUT
10
105.382
20
31.03
0
SEQEND
0
POLYLINE
8
CUT
66
1
70
0
0
VERTEX
8
CUT
10
95.078
20
29.97
0
VERTEX
8
CUT
10
96.63
20
29
0
VERTEX
8
CUT
10
103.83
20
29
0
VERTEX
8
CUT
10
105.382
20
29.97
0
SEQEND
0
POLYLINE
8
CUT
66
1
70
0
0
VERTEX
8
CUT
10
95.078
20
27.03
0
VERTEX
8
CUT
10
96.63
20
28
0
VERTEX
8
CUT
10
103.83
20
28
0
VERTEX
8
CUT
10
105.382
20
27.03
0
SEQEND
0
POLYLINE
8
CUT
66
1
70
0
0
VERTEX
8
CUT
10
95.078
20
25.97
0
VERTEX
8
CUT
10
96.63
20
25
0
VERTEX
8
CUT
10
103.83
20
25
0
VERTEX
8
CUT
10
105.382
20
25.97
0
SEQEND
0
POLYLINE
8
CUT
66
1
70
0
0
VERTEX
8
CUT
10
95.078
20
23.03
0
VERTEX
8
CUT
10
96.63
20
24
0
VERTEX
8
CUT
10
103.83
20
24
0
VERTEX
8
CUT
10
105.382
20
23.03
0
SEQEND
0
POLYLINE
8
CUT
66
1
70
0
0
VERTEX
8
CUT
10
95.078
20
21.97
0
VERTEX
8
CUT
10
96.63
20
21
0
VERTEX
8
CUT
10
103.83
20
21
0
VERTEX
8
CUT
10
105.382
20
21.97
0
SEQEND
0
POLYLINE
8
CUT
66
1
70
0
0
VERTEX
8
CUT
10
95.078
20
19.03
0
VERTEX
8
CUT
10
96.63
20
20
0
VERTEX
8
CUT
10
103.83
20
20
0
VERTEX
8
CUT
10
105.382
20
19.03
0
SEQEND
0
POLYLINE
8
CUT
66
1
70
0
0
VERTEX
8
CUT
10
95.078
20
17.97
0
VERTEX
8
CUT
10
96.63
20
17
0
VERTEX
8
CUT
10
103.83
20
17
0
VERTEX
8
CUT
10
105.382
20
17.97
0
SEQEND
0
POLYLINE
8
CUT
66
1
70
0
0
VERTEX
8
CUT
10
95.078
20
15.03
0
VERTEX
8
CUT
10
96.63
20
16
0
VERTEX
8
CUT
10
103.83
20
16
0
VERTEX
8
CUT
10
105.382
20
15.03
0
SEQEND
0
POLYLINE
8
CUT
66
1
70
0
0
VERTEX
8
CUT
10
95.078
20
13.97
0
VERTEX
8
CUT
10
96.63
20
13
0
VERTEX
8
CUT
10
103.83
20
13
0
VERTEX
8
CUT
10
105.382
20
13.97
0
SEQEND
0
POLYLINE
8
CUT
66
1
70
0
0
VERTEX
8
CUT
10
95.078
20
11.03
0
VERTEX
8
CUT
10
96.63
20
12
0
VERTEX
8
CUT
10
103.83
20
12
0
VERTEX
8
CUT
10
105.382
20
11.03
0
SEQEND
0
POLYLINE
8
CUT
66
1
70
0
0
VERTEX
8
CUT
10
95.078
20
9.97
0
VERTEX
8
CUT
10
96.63
20
9
0
VERTEX
8
CUT
10
103.83
20
9
0
VERTEX
8
CUT
10
105.382
20
9.97
0
SEQEND
0
POLYLINE
8
CUT
66
1
70
0
0
VERTEX
8
CUT
10
95.078
20
7.03
0
VERTEX
8
CUT
10
96.63
20
8
0
VERTEX
8
CUT
10
103.83
20
8
0
VERTEX
8
CUT
10
105.382
20
7.03
0
SEQEND
0
POLYLINE
8
CUT
66
1
70
0
0
VERTEX
8
CUT
10
95.078
20
5.97
0
VERTEX
8
CUT
10
96.63
20
5
0
VERTEX
8
CUT
10
103.83
20
5
0
VERTEX
8
CUT
10
105.382
20
5.97
0
SEQEND
0
POLYLINE
8
CUT
66
1
70
0
0
VERTEX
8
CUT
10
95.078
20
3.03
0
VERTEX
8
CUT
10
96.63
20
4
0
VERTEX
8
CUT
10
103.83
20
4
0
VERTEX
8
CUT
10
105.382
20
3.03
0
SEQEND
0
POLYLINE
8
CUT
66
1
70
0
0
VERTEX
8
CUT
10
95.078
20
1.97
0
VERTEX
8
CUT
10
96.63
20
1
0
VERTEX
8
CUT
10
103.83
20
1
0
VERTEX
8
CUT
10
105.382
20
1.97
0
SEQEND
0
POLYLINE
8
CUT
66
1
70
0
0
VERTEX
8
CUT
10
96.63
20
0
0
VERTEX
8
CUT
10
96.63
20
0
0
VERTEX
8
CUT
10
103.83
20
0
0
VERTEX
8
CUT
10
103.83
20
0
0
SEQEND
0
POLYLINE
8
CUT
66
1
70
0
0
VERTEX
8
CUT
10
105.548
20
69.03
0
VERTEX
8
CUT
10
107.1
20
70
0
VERTEX
8
CUT
10
114.3
20
70
0
VERTEX
8
CUT
10
115.852
20
69.03
0
SEQEND
0
POLYLINE
8
CUT
66
1
70
0
0
VERTEX
8
CUT
10
105.548
20
67.97
0
VERTEX
8
CUT
10
107.1
20
67
0
VERTEX
8
CUT
10
114.3
20
67
0
VERTEX
8
CUT
10
115.852
20
67.97
0
SEQEND
0
POLYLINE
8
CUT
66
1
70
0
0
VERTEX
8
CUT
10
105.548
20
65.03
0
VERTEX
8
CUT
10
107.1
20
66
0
VERTEX
8
CUT
10
114.3
20
66
0
VERTEX
8
CUT
10
115.852
20
65.03
0
SEQEND
0
POLYLINE
8
CUT
66
1
70
0
0
VERTEX
8
CUT
10
105.548
20
63.97
0
VERTEX
8
CUT
10
107.1
20
63
0
VERTEX
8
CUT
10
114.3
20
63
0
VERTEX
8
CUT
10
115.852
20
63.97
0
SEQEND
0
POLYLINE
8
CUT
66
1
70
0
0
VERTEX
8
CUT
10
105.548
20
61.03
0
VERTEX
8
CUT
10
107.1
20
62
0
VERTEX
8
CUT
10
114.3
20
62
0
VERTEX
8
CUT
10
115.852
20
61.03
0
SEQEND
0
POLYLINE
8
CUT
66
1
70
0
0
VERTEX
8
CUT
10
105.548
20
59.97
0
VERTEX
8
CUT
10
107.1
20
59
0
VERTEX
8
CUT
10
114.3
20
59
0
VERTEX
8
CUT
10
115.852
20
59.97
0
SEQEND
0
POLYLINE
8
CUT
66
1
70
0
0
VERTEX
8
CUT
10
105.548
20
57.03
0
VERTEX
8
CUT
10
107.1
20
58
0
VERTEX
8
CUT
10
114.3
20
58
0
VERTEX
8
CUT
10
115.852
20
57.03
0
SEQEND
0
POLYLINE
8
CUT
66
1
70
0
0
VERTEX
8
CUT
10
105.548
20
55.97
0
VERTEX
8
CUT
10
107.1
20
55
0
VERTEX
8
CUT
10
114.3
20
55
0
VERTEX
8
CUT
10
115.852
20
55.97
0
SEQEND
0
POLYLINE
8
CUT
66
1
70
0
0
VERTEX
8
CUT
10
105.548
20
53.03
0
VERTEX
8
CUT
10
107.1
20
54
0
VERTEX
8
CUT
10
114.3
20
54
0
VERTEX
8
CUT
10
115.852
20
53.03
0
SEQEND
0
POLYLINE
8
CUT
66
1
70
0
0
VERTEX
8
CUT
10
105.548
20
51.97
0
VERTEX
8
CUT
10
107.1
20
51
0
VERTEX
8
CUT
10
114.3
20
51
0
VERTEX
8
CUT
10
115.852
20
51.97
0
SEQEND
0
POLYLINE
8
CUT
66
1
70
0
0
VERTEX
8
CUT
10
105.548
20
49.03
0
VERTEX
8
CUT
10
107.1
20
50
0
VERTEX
8
CUT
10
114.3
20
50
0
VERTEX
8
CUT
10
115.852
20
49.03
0
SEQEND
0
POLYLINE
8
CUT
66
1
70
0
0
VERTEX
8
CUT
10
105.548
20
47.97
0
VERTEX
8
CUT
10
107.1
20
47
0
VERTEX
8
CUT
10
114.3
20
47
0
VERTEX
8
CUT
10
115.852
20
47.97
0
SEQEND
0
POLYLINE
8
CUT
66
1
70
0
0
VERTEX
8
CUT
10
105.548
20
45.03
0
VERTEX
8
CUT
10
107.1
20
46
0
VERTEX
8
CUT
10
114.3
20
46
0
VERTEX
8
CUT
10
115.852
20
45.03
0
SEQEND
0
POLYLINE
8
CUT
66
1
70
0
0
VERTEX
8
CUT
10
105.548
20
43.97
0
VERTEX
8
CUT
10
107.1
20
43
0
VERTEX
8
CUT
10
114.3
20
43
0
VERTEX
8
CUT
10
115.852
20
43.97
0
SEQEND
0
POLYLINE
8
CUT
66
1
70
0
0
VERTEX
8
CUT
10
105.548
20
41.03
0
VERTEX
8
CUT
10
107.1
20
42
0
VERTEX
8
CUT
10
114.3
20
42
0
VERTEX
8
CUT
10
115.852
20
41.03
0
SEQEND
0
POLYLINE
8
CUT
66
1
70
0
0
VERTEX
8
CUT
10
105.548
20
39.97
0
VERTEX
8
CUT
10
107.1
20
39
0
VERTEX
8
CUT
10
114.3
20
39
0
VERTEX
8
CUT
10
115.852
20
39.97
0
SEQEND
0
POLYLINE
8
CUT
66
1
70
0
0
VERTEX
8
CUT
10
105.548
20
37.03
0
VERTEX
8
CUT
10
107.1
20
38
0
VERTEX
8
CUT
10
114.3
20
38
0
VERTEX
8
CUT
10
115.852
20
37.03
0
SEQEND
0
POLYLINE
8
CUT
66
1
70
0
0
VERTEX
8
CUT
10
105.548
20
35.97
0
VERTEX
8
CUT
10
107.1
20
35
0
VERTEX
8
CUT
10
114.3
20
35
0
VERTEX
8
CUT
10
115.852
20
35.97
0
SEQEND
0
POLYLINE
8
CUT
66
1
70
0
0
VERTEX
8
CUT
10
105.548
20
33.03
0
VERTEX
8
CUT
10
107.1
20
34
0
VERTEX
8
CUT
10
114.3
20
34
0
VERTEX
8
CUT
10
115.852
20
33.03
0
SEQEND
0
POLYLINE
8
CUT
66
1
70
0
0
VERTEX
8
CUT
10
105.548
20
31.97
0
VERTEX
8
CUT
10
107.1
20
31
0
VERTEX
8
CUT
10
114.3
20
31
0
VERTEX
8
CUT
10
115.852
20
31.97
0
SEQEND
0
POLYLINE
8
CUT
66
1
70
0
0
VERTEX
8
CUT
10
105.548
20
29.03
0
VERTEX
8
CUT
10
107.1
20
30
0
VERTEX
8
CUT
10
114.3
20
30
0
VERTEX
8
CUT
10
115.852
20
29.03
0
SEQEND
0
POLYLINE
8
CUT
66
1
70
0
0
VERTEX
8
CUT
10
105.548
20
27.97
0
VERTEX
8
CUT
10
107.1
20
27
0
VERTEX
8
CUT
10
114.3
20
27
0
VERTEX
8
CUT
10
115.852
20
27.97
0
SEQEND
0
POLYLINE
8
CUT
66
1
70
0
0
VERTEX
8
CUT
10
105.548
20
25.03
0
VERTEX
8
CUT
10
107.1
20
26
0
VERTEX
8
CUT
10
114.3
20
26
0
VERTEX
8
CUT
10
115.852
20
25.03
0
SEQEND
0
POLYLINE
8
CUT
66
1
70
0
0
VERTEX
8
CUT
10
105.548
20
23.97
0
VERTEX
8
CUT
10
107.1
20
23
0
VERTEX
8
CUT
10
114.3
20
23
0
VERTEX
8
CUT
10
115.852
20
23.97
0
SEQEND
0
POLYLINE
8
CUT
66
1
70
0
0
VERTEX
8
CUT
10
105.548
20
21.03
0
VERTEX
8
CUT
10
107.1
20
22
0
VERTEX
8
CUT
10
114.3
20
22
0
VERTEX
8
CUT
10
115.852
20
21.03
0
SEQEND
0
POLYLINE
8
CUT
66
1
70
0
0
VERTEX
8
CUT
10
105.548
20
19.97
0
VERTEX
8
CUT
10
107.1
20
19
0
VERTEX
8
CUT
10
114.3
20
19
0
VERTEX
8
CUT
10
115.852
20
19.97
0
SEQEND
0
POLYLINE
8
CUT
66
1
70
0
0
VERTEX
8
CUT
10
105.548
20
17.03
0
VERTEX
8
CUT
10
107.1
20
18
0
VERTEX
8
CUT
10
114.3
20
18
0
VERTEX
8
CUT
10
115.852
20
17.03
0
SEQEND
0
POLYLINE
8
CUT
66
1
70
0
0
VERTEX
8
CUT
10
105.548
20
15.97
0
VERTEX
8
CUT
10
107.1
20
15
0
VERTEX
8
CUT
10
114.3
20
15
0
VERTEX
8
CUT
10
115.852
20
15.97
0
SEQEND
0
POLYLINE
8
CUT
66
1
70
0
0
VERTEX
8
CUT
10
105.548
20
13.03
0
VERTEX
8
CUT
10
107.1
20
14
0
VERTEX
8
CUT
10
114.3
20
14
0
VERTEX
8
CUT
10
115.852
20
13.03
0
SEQEND
0
POLYLINE
8
CUT
66
1
70
0
0
VERTEX
8
CUT
10
105.548
20
11.97
0
VERTEX
8
CUT
10
107.1
20
11
0
VERTEX
8
CUT
10
114.3
20
11
0
VERTEX
8
CUT
10
115.852
20
11.97
0
SEQEND
0
POLYLINE
8
CUT
66
1
70
0
0
VERTEX
8
CUT
10
105.548
20
9.03
0
VERTEX
8
CUT
10
107.1
20
10
0
VERTEX
8
CUT
10
114.3
20
10
0
VERTEX
8
CUT
10
115.852
20
9.03
0
SEQEND
0
POLYLINE
8
CUT
66
1
70
0
0
VERTEX
8
CUT
10
105.548
20
7.97
0
VERTEX
8
CUT
10
107.1
20
7
0
VERTEX
8
CUT
10
114.3
20
7
0
VERTEX
8
CUT
10
115.852
20
7.97
0
SEQEND
0
POLYLINE
8
CUT
66
1
70
0
0
VERTEX
8
CUT
10
105.548
20
5.03
0
VERTEX
8
CUT
10
107.1
20
6
0
VERTEX
8
CUT
10
114.3
20
6
0
VERTEX
8
CUT
10
115.852
20
5.03
0
SEQEND
0
POLYLINE
8
CUT
66
1
70
0
0
VERTEX
8
CUT
10
105.548
20
3.97
0
VERTEX
8
CUT
10
107.1
20
3
0
VERTEX
8
CUT
10
114.3
20
3
0
VERTEX
8
CUT
10
115.852
20
3.97
0
SEQEND
0
POLYLINE
8
CUT
66
1
70
0
0
VERTEX
8
CUT
10
105.548
20
1.03
0
VERTEX
8
CUT
10
107.1
20
2
0
VERTEX
8
CUT
10
114.3
20
2
0
VERTEX
8
CUT
10
115.852
20
1.03
0
SEQEND
0
POLYLINE
8
CUT
66
1
70
0
0
VERTEX
8
CUT
10
116.018
20
69.97
0
VERTEX
8
CUT
10
117.57
20
69
0
VERTEX
8
CUT
10
120
20
69
0
SEQEND
0
POLYLINE
8
CUT
66
1
70
0
0
VERTEX
8
CUT
10
116.018
20
67.03
0
VERTEX
8
CUT
10
117.57
20
68
0
VERTEX
8
CUT
10
120
20
68
0
SEQEND
0
POLYLINE
8
CUT
66
1
70
0
0
VERTEX
8
CUT
10
116.018
20
65.97
0
VERTEX
8
CUT
10
117.57
20
65
0
VERTEX
8
CUT
10
120
20
65
0
SEQEND
0
POLYLINE
8
CUT
66
1
70
0
0
VERTEX
8
CUT
10
116.018
20
63.03
0
VERTEX
8
CUT
10
117.57
20
64
0
VERTEX
8
CUT
10
120
20
64
0
SEQEND
0
POLYLINE
8
CUT
66
1
70
0
0
VERTEX
8
CUT
10
116.018
20
61.97
0
VERTEX
8
CUT
10
117.57
20
61
0
VERTEX
8
CUT
10
120
20
61
0
SEQEND
0
POLYLINE
8
CUT
66
1
70
0
0
VERTEX
8
CUT
10
116.018
20
59.03
0
VERTEX
8
CUT
10
117.57
20
60
0
VERTEX
8
CUT
10
120
20
60
0
SEQEND
0
POLYLINE
8
CUT
66
1
70
0
0
VERTEX
8
CUT
10
116.018
20
57.97
0
VERTEX
8
CUT
10
117.57
20
57
0
VERTEX
8
CUT
10
120
20
57
0
SEQEND
0
POLYLINE
8
CUT
66
1
70
0
0
VERTEX
8
CUT
10
116.018
20
55.03
0
VERTEX
8
CUT
10
117.57
20
56
0
VERTEX
8
CUT
10
120
20
56
0
SEQEND
0
POLYLINE
8
CUT
66
1
70
0
0
VERTEX
8
CUT
10
116.018
20
53.97
0
VERTEX
8
CUT
10
117.57
20
53
0
VERTEX
8
CUT
10
120
20
53
0
SEQEND
0
POLYLINE
8
CUT
66
1
70
0
0
VERTEX
8
CUT
10
116.018
20
51.03
0
VERTEX
8
CUT
10
117.57
20
52
0
VERTEX
8
CUT
10
120
20
52
0
SEQEND
0
POLYLINE
8
CUT
66
1
70
0
0
VERTEX
8
CUT
10
116.018
20
49.97
0
VERTEX
8
CUT
10
117.57
20
49
0
VERTEX
8
CUT
10
120
20
49
0
SEQEND
0
POLYLINE
8
CUT
66
1
70
0
0
VERTEX
8
CUT
10
116.018
20
47.03
0
VERTEX
8
CUT
10
117.57
20
48
0
VERTEX
8
CUT
10
120
20
48
0
SEQEND
0
POLYLINE
8
CUT
66
1
70
0
0
VERTEX
8
CUT
10
116.018
20
45.97
0
VERTEX
8
CUT
10
117.57
20
45
0
VERTEX
8
CUT
10
120
20
45
0
SEQEND
0
POLYLINE
8
CUT
66
1
70
0
0
VERTEX
8
CUT
10
116.018
20
43.03
0
VERTEX
8
CUT
10
117.57
20
44
0
VERTEX
8
CUT
10
120
20
44
0
SEQEND
0
POLYLINE
8
CUT
66
1
70
0
0
VERTEX
8
CUT
10
116.018
20
41.97
0
VERTEX
8
CUT
10
117.57
20
41
0
VERTEX
8
CUT
10
120
20
41
0
SEQEND
0
POLYLINE
8
CUT
66
1
70
0
0
VERTEX
8
CUT
10
116.018
20
39.03
0
VERTEX
8
CUT
10
117.57
20
40
0
VERTEX
8
CUT
10
120
20
40
0
SEQEND
0
POLYLINE
8
CUT
66
1
70
0
0
VERTEX
8
CUT
10
116.018
20
37.97
0
VERTEX
8
CUT
10
117.57
20
37
0
VERTEX
8
CUT
10
120
20
37
0
SEQEND
0
POLYLINE
8
CUT
66
1
70
0
0
VERTEX
8
CUT
10
116.018
20
35.03
0
VERTEX
8
CUT
10
117.57
20
36
0
VERTEX
8
CUT
10
120
20
36
0
SEQEND
0
POLYLINE
8
CUT
66
1
70
0
0
VERTEX
8
CUT
10
116.018
20
33.97
0
VERTEX
8
CUT
10
117.57
20
33
0
VERTEX
8
CUT
10
120
20
33
0
SEQEND
0
POLYLINE
8
CUT
66
1
70
0
0
VERTEX
8
CUT
10
116.018
20
31.03
0
VERTEX
8
CUT
10
117.57
20
32
0
VERTEX
8
CUT
10
120
20
32
0
SEQEND
0
POLYLINE
8
CUT
66
1
70
0
0
VERTEX
8
CUT
10
116.018
20
29.97
0
VERTEX
8
CUT
10
117.57
20
29
0
VERTEX
8
CUT
10
120
20
29
0
SEQEND
0
POLYLINE
8
CUT
66
1
70
0
0
VERTEX
8
CUT
10
116.018
20
27.03
0
VERTEX
8
CUT
10
117.57
20
28
0
VERTEX
8
CUT
10
120
20
28
0
SEQEND
0
POLYLINE
8
CUT
66
1
70
0
0
VERTEX
8
CUT
10
116.018
20
25.97
0
VERTEX
8
CUT
10
117.57
20
25
0
VERTEX
8
CUT
10
120
20
25
0
SEQEND
0
POLYLINE
8
CUT
66
1
70
0
0
VERTEX
8
CUT
10
116.018
20
23.03
0
VERTEX
8
CUT
10
117.57
20
24
0
VERTEX
8
CUT
10
120
20
24
0
SEQEND
0
POLYLINE
8
CUT
66
1
70
0
0
VERTEX
8
CUT
10
116.018
20
21.97
0
VERTEX
8
CUT
10
117.57
20
21
0
VERTEX
8
CUT
10
120
20
21
0
SEQEND
0
POLYLINE
8
CUT
66
1
70
0
0
VERTEX
8
CUT
10
116.018
20
19.03
0
VERTEX
8
CUT
10
117.57
20
20
0
VERTEX
8
CUT
10
120
20
20
0
SEQEND
0
POLYLINE
8
CUT
66
1
70
0
0
VERTEX
8
CUT
10
116.018
20
17.97
0
VERTEX
8
CUT
10
117.57
20
17
0
VERTEX
8
CUT
10
120
20
17
0
SEQEND
0
POLYLINE
8
CUT
66
1
70
0
0
VERTEX
8
CUT
10
116.018
20
15.03
0
VERTEX
8
CUT
10
117.57
20
16
0
VERTEX
8
CUT
10
120
20
16
0
SEQEND
0
POLYLINE
8
CUT
66
1
70
0
0
VERTEX
8
CUT
10
116.018
20
13.97
0
VERTEX
8
CUT
10
117.57
20
13
0
VERTEX
8
CUT
10
120
20
13
0
SEQEND
0
POLYLINE
8
CUT
66
1
70
0
0
VERTEX
8
CUT
10
116.018
20
11.03
0
VERTEX
8
CUT
10
117.57
20
12
0
VERTEX
8
CUT
10
120
20
12
0
SEQEND
0
POLYLINE
8
CUT
66
1
70
0
0
VERTEX
8
CUT
10
116.018
20
9.97
0
VERTEX
8
CUT
10
117.57
20
9
0
VERTEX
8
CUT
10
120
20
9
0
SEQEND
0
POLYLINE
8
CUT
66
1
70
0
0
VERTEX
8
CUT
10
116.018
20
7.03
0
VERTEX
8
CUT
10
117.57
20
8
0
VERTEX
8
CUT
10
120
20
8
0
SEQEND
0
POLYLINE
8
CUT
66
1
70
0
0
VERTEX
8
CUT
10
116.018
20
5.97
0
VERTEX
8
CUT
10
117.57
20
5
0
VERTEX
8
CUT
10
120
20
5
0
SEQEND
0
POLYLINE
8
CUT
66
1
70
0
0
VERTEX
8
CUT
10
116.018
20
3.03
0
VERTEX
8
CUT
10
117.57
20
4
0
VERTEX
8
CUT
10
120
20
4
0
SEQEND
0
POLYLINE
8
CUT
66
1
70
0
0
VERTEX
8
CUT
10
116.018
20
1.97
0
VERTEX
8
CUT
10
117.57
20
1
0
VERTEX
8
CUT
10
120
20
1
0
SEQEND
0
POLYLINE
8
CUT
66
1
70
0
0
VERTEX
8
CUT
10
117.57
20
0
0
VERTEX
8
CUT
10
117.57
20
0
0
VERTEX
8
CUT
10
120
20
0
0
SEQEND
0
POLYLINE
8
CUT
66
1
70
0
0
VERTEX
8
CUT
10
0
20
70
0
VERTEX
8
CUT
10
120
20
70
0
VERTEX
8
CUT
10
120
20
0
0
VERTEX
8
CUT
10
0
20
0
0
VERTEX
8
CUT
10
0
20
70
0
SEQEND
0
ENDSEC
0
EOF
