0
SECTION
2
HEADER
9
$ACADVER
1
AC1009
9
$INSUNITS
70
4
0
ENDSEC
0
SECTION
2
TABLES
0
TABLE
2
LAYER
70
1
0
LAYER
2
CUT
70
0
62
1
6
CONTINUOUS
0
ENDTAB
0
ENDSEC
0
SECTION
2
ENTITIES
0
LINE
8
CUT
10
2
20
70
11
2
21
40
0
LINE
8
CUT
10
0.4
20
55
11
3.6
21
55
0
LINE
8
CUT
10
2
20
38.5
11
2
21
8.5
0
LINE
8
CUT
10
0.4
20
23.5
11
3.6
21
23.5
0
LINE
8
CUT
10
2
20
7
11
2
21
0
0
LINE
8
CUT
10
6
20
70
11
6
21
55.75
0
LINE
8
CUT
10
6
20
54.25
11
6
21
24.25
0
LINE
8
CUT
10
4.4
20
39.25
11
7.6
21
39.25
0
LINE
8
CUT
10
6
20
22.75
11
6
21
0
0
LINE
8
CUT
10
4.4
20
7.75
11
7.6
21
7.75
0
LINE
8
CUT
10
10
20
70
11
10
21
40
0
LINE
8
CUT
10
8.4
20
55
11
11.6
21
55
0
LINE
8
CUT
10
10
20
38.5
11
10
21
8.5
0
LINE
8
CUT
10
8.4
20
23.5
11
11.6
21
23.5
0
LINE
8
CUT
10
10
20
7
11
10
21
0
0
LINE
8
CUT
10
14
20
70
11
14
21
55.75
0
LINE
8
CUT
10
14
20
54.25
11
14
21
24.25
0
LINE
8
CUT
10
12.4
20
39.25
11
15.6
21
39.25
0
LINE
8
CUT
10
14
20
22.75
11
14
21
0
0
LINE
8
CUT
10
12.4
20
7.75
11
15.6
21
7.75
0
LINE
8
CUT
10
18
20
70
11
18
21
40
0
LINE
8
CUT
10
16.4
20
55
11
19.6
21
55
0
LINE
8
CUT
10
18
20
38.5
11
18
21
8.5
0
LINE
8
CUT
10
16.4
20
23.5
11
19.6
21
23.5
0
LINE
8
CUT
10
18
20
7
11
18
21
0
0
LINE
8
CUT
10
22
20
70
11
22
21
55.75
0
LINE
8
CUT
10
22
20
54.25
11
22
21
24.25
0
LINE
8
CUT
10
20.4
20
39.25
11
23.6
21
39.25
0
LINE
8
CUT
10
22
20
22.75
11
22
21
0
0
LINE
8
CUT
10
20.4
20
7.75
11
23.6
21
7.75
0
LINE
8
CUT
10
26
20
70
11
26
21
40
0
LINE
8
CUT
10
24.4
20
55
11
27.6
21
55
0
LINE
8
CUT
10
26
20
38.5
11
26
21
8.5
0
LINE
8
CUT
10
24.4
20
23.5
11
27.6
21
23.5
0
LINE
8
CUT
10
26
20
7
11
26
21
0
0
LINE
8
CUT
10
30
20
70
11
30
21
55.75
0
LINE
8
CUT
10
30
20
54.25
11
30
21
24.25
0
LINE
8
CUT
10
28.4
20
39.25
11
31.6
21
39.25
0
LINE
8
CUT
10
30
20
22.75
11
30
21
0
0
LINE
8
CUT
10
28.4
20
7.75
11
31.6
21
7.75
0
LINE
8
CUT
10
34
20
70
11
34
21
40
0
LINE
8
CUT
10
32.4
20
55
11
35.6
21
55
0
LINE
8
CUT
10
34
20
38.5
11
34
21
8.5
0
LINE
8
CUT
10
32.4
20
23.5
11
35.6
21
23.5
0
LINE
8
CUT
10
34
20
7
11
34
21
0
0
LINE
8
CUT
10
38
20
70
11
38
21
55.75
0
LINE
8
CUT
10
38
20
54.25
11
38
21
24.25
0
LINE
8
CUT
10
36.4
20
39.25
11
39.6
21
39.25
0
LINE
8
CUT
10
38
20
22.75
11
38
21
0
0
LINE
8
CUT
10
36.4
20
7.75
11
39.6
21
7.75
0
LINE
8
CUT
10
42
20
70
11
42
21
40
0
LINE
8
CUT
10
40.4
20
55
11
43.6
21
55
0
LINE
8
CUT
10
42
20
38.5
11
42
21
8.5
0
LINE
8
CUT
10
40.4
20
23.5
11
43.6
21
23.5
0
LINE
8
CUT
10
42
20
7
11
42
21
0
0
LINE
8
CUT
10
46
20
70
11
46
21
55.75
0
LINE
8
CUT
10
46
20
54.25
11
46
21
24.25
0
LINE
8
CUT
10
44.4
20
39.25
11
47.6
21
39.25
0
LINE
8
CUT
10
46
20
22.75
11
46
21
0
0
LINE
8
CUT
10
44.4
20
7.75
11
47.6
21
7.75
0
LINE
8
CUT
10
50
20
70
11
50
21
40
0
LINE
8
CUT
10
48.4
20
55
11
51.6
21
55
0
LINE
8
CUT
10
50
20
38.5
11
50
21
8.5
0
LINE
8
CUT
10
48.4
20
23.5
11
51.6
21
23.5
0
LINE
8
CUT
10
50
20
7
11
50
21
0
0
LINE
8
CUT
10
54
20
70
11
54
21
55.75
0
LINE
8
CUT
10
54
20
54.25
11
54
21
24.25
0
LINE
8
CUT
10
52.4
20
39.25
11
55.6
21
39.25
0
LINE
8
CUT
10
54
20
22.75
11
54
21
0
0
LINE
8
CUT
10
52.4
20
7.75
11
55.6
21
7.75
0
LINE
8
CUT
10
58
20
70
11
58
21
40
0
LINE
8
CUT
10
56.4
20
55
11
59.6
21
55
0
LINE
8
CUT
10
58
20
38.5
11
58
21
8.5
0
LINE
8
CUT
10
56.4
20
23.5
11
59.6
21
23.5
0
LINE
8
CUT
10
58
20
7
11
58
21
0
0
LINE
8
CUT
10
62
20
70
11
62
21
55.75
0
LINE
8
CUT
10
62
20
54.25
11
62
21
24.25
0
LINE
8
CUT
10
60.4
20
39.25
11
63.6
21
39.25
0
LINE
8
CUT
10
62
20
22.75
11
62
21
0
0
LINE
8
CUT
10
60.4
20
7.75
11
63.6
21
7.75
0
LINE
8
CUT
10
66
20
70
11
66
21
40
0
LINE
8
CUT
10
64.4
20
55
11
67.6
21
55
0
LINE
8
CUT
10
66
20
38.5
11
66
21
8.5
0
LINE
8
CUT
10
64.4
20
23.5
11
67.6
21
23.5
0
LINE
8
CUT
10
66
20
7
11
66
21
0
0
LINE
8
CUT
10
70
20
70
11
70
21
55.75
0
LINE
8
CUT
10
70
20
54.25
11
70
21
24.25
0
LINE
8
CUT
10
68.4
20
39.25
11
71.6
21
39.25
0
LINE
8
CUT
10
70
20
22.75
11
70
21
0
0
LINE
8
CUT
10
68.4
20
7.75
11
71.6
21
7.75
0
LINE
8
CUT
10
74
20
70
11
74
21
40
0
LINE
8
CUT
10
72.4
20
55
11
75.6
21
55
0
LINE
8
CUT
10
74
20
38.5
11
74
21
8.5
0
LINE
8
CUT
10
72.4
20
23.5
11
75.6
21
23.5
0
LINE
8
CUT
10
74
20
7
11
74
21
0
0
LINE
8
CUT
10
78
20
70
11
78
21
55.75
0
LINE
8
CUT
10
78
20
54.25
11
78
21
24.25
0
LINE
8
CUT
10
76.4
20
39.25
11
79.6
21
39.25
0
LINE
8
CUT
10
78
20
22.75
11
78
21
0
0
LINE
8
CUT
10
76.4
20
7.75
11
79.6
21
7.75
0
LINE
8
CUT
10
82
20
70
11
82
21
40
0
LINE
8
CUT
10
80.4
20
55
11
83.6
21
55
0
LINE
8
CUT
10
82
20
38.5
11
82
21
8.5
0
LINE
8
CUT
10
80.4
20
23.5
11
83.6
21
23.5
0
LINE
8
CUT
10
82
20
7
11
82
21
0
0
LINE
8
CUT
10
86
20
70
11
86
21
55.75
0
LINE
8
CUT
10
86
20
54.25
11
86
21
24.25
0
LINE
8
CUT
10
84.4
20
39.25
11
87.6
21
39.25
0
LINE
8
CUT
10
86
20
22.75
11
86
21
0
0
LINE
8
CUT
10
84.4
20
7.75
11
87.6
21
7.75
0
LINE
8
CUT
10
90
20
70
11
90
21
40
0
LINE
8
CUT
10
88.4
20
55
11
91.6
21
55
0
LINE
8
CUT
10
90
20
38.5
11
90
21
8.5
0
LINE
8
CUT
10
88.4
20
23.5
11
91.6
21
23.5
0
LINE
8
CUT
10
90
20
7
11
90
21
0
0
LINE
8
CUT
10
94
20
70
11
94
21
55.75
0
LINE
8
CUT
10
94
20
54.25
11
94
21
24.25
0
LINE
8
CUT
10
92.4
20
39.25
11
95.6
21
39.25
0
LINE
8
CUT
10
94
20
22.75
11
94
21
0
0
LINE
8
CUT
10
92.4
20
7.75
11
95.6
21
7.75
0
LINE
8
CUT
10
98
20
70
11
98
21
40
0
LINE
8
CUT
10
96.4
20
55
11
99.6
21
55
0
LINE
8
CUT
10
98
20
38.5
11
98
21
8.5
0
LINE
8
CUT
10
96.4
20
23.5
11
99.6
21
23.5
0
LINE
8
CUT
10
98
20
7
11
98
21
0
0
LINE
8
CUT
10
102
20
70
11
102
21
55.75
0
LINE
8
CUT
10
102
20
54.25
11
102
21
24.25
0
LINE
8
CUT
10
100.4
20
39.25
11
103.6
21
39.25
0
LINE
8
CUT
10
102
20
22.75
11
102
21
0
0
LINE
8
CUT
10
100.4
20
7.75
11
103.6
21
7.75
0
LINE
8
CUT
10
106
20
70
11
106
21
40
0
LINE
8
CUT
10
104.4
20
55
11
107.6
21
55
0
LINE
8
CUT
10
106
20
38.5
11
106
21
8.5
0
LINE
8
CUT
10
104.4
20
23.5
11
107.6
21
23.5
0
LINE
8
CUT
10
106
20
7
11
106
21
0
0
LINE
8
CUT
10
110
20
70
11
110
21
55.75
0
LINE
8
CUT
10
110
20
54.25
11
110
21
24.25
0
LINE
8
CUT
10
108.4
20
39.25
11
111.6
21
39.25
0
LINE
8
CUT
10
110
20
22.75
11
110
21
0
0
LINE
8
CUT
10
108.4
20
7.75
11
111.6
21
7.75
0
LINE
8
CUT
10
114
20
70
11
114
21
40
0
LINE
8
CUT
10
112.4
20
55
11
115.6
21
55
0
LINE
8
CUT
10
114
20
38.5
11
114
21
8.5
0
LINE
8
CUT
10
112.4
20
23.5
11
115.6
21
23.5
0
LINE
8
CUT
10
114
20
7
11
114
21
0
0
LINE
8
CUT
10
118
20
70
11
118
21
55.75
0
LINE
8
CUT
10
118
20
54.25
11
118
21
24.25
0
LINE
8
CUT
10
116.4
20
39.25
11
119.6
21
39.25
0
LINE
8
CUT
10
118
20
22.75
11
118
21
0
0
LINE
8
CUT
10
116.4
20
7.75
11
119.6
21
7.75
0
POLYLINE
8
CUT
66
1
70
0
0
VERTEX
8
CUT
10
0
20
70
0
VERTEX
8
CUT
10
120
20
70
0
VERTEX
8
CUT
10
120
20
0
0
VERTEX
8
CUT
10
0
20
0
0
VERTEX
8
CUT
10
0
20
70
0
SEQEND
0
ENDSEC
0
EOF
