0
SECTION
2
HEADER
9
$ACADVER
1
AC1009
9
$INSUNITS
70
4
0
ENDSEC
0
SECTION
2
TABLES
0
TABLE
2
LAYER
70
1
0
LAYER
2
CUT
70
0
62
1
6
CONTINUOUS
0
ENDTAB
0
ENDSEC
0
SECTION
2
ENTITIES
0
LINE
8
CUT
10
0
20
65
11
20
21
65
0
LINE
8
CUT
10
10
20
66.75
11
10
21
63.25
0
LINE
8
CUT
10
22
20
65
11
42
21
65
0
LINE
8
CUT
10
32
20
66.75
11
32
21
63.25
0
LINE
8
CUT
10
44
20
65
11
64
21
65
0
LINE
8
CUT
10
54
20
66.75
11
54
21
63.25
0
LINE
8
CUT
10
66
20
65
11
86
21
65
0
LINE
8
CUT
10
76
20
66.75
11
76
21
63.25
0
LINE
8
CUT
10
88
20
65
11
108
21
65
0
LINE
8
CUT
10
98
20
66.75
11
98
21
63.25
0
LINE
8
CUT
10
110
20
65
11
120
21
65
0
LINE
8
CUT
10
120
20
66.75
11
120
21
63.25
0
LINE
8
CUT
10
0
20
59
11
9
21
59
0
LINE
8
CUT
10
11
20
59
11
31
21
59
0
LINE
8
CUT
10
21
20
60.75
11
21
21
57.25
0
LINE
8
CUT
10
33
20
59
11
53
21
59
0
LINE
8
CUT
10
43
20
60.75
11
43
21
57.25
0
LINE
8
CUT
10
55
20
59
11
75
21
59
0
LINE
8
CUT
10
65
20
60.75
11
65
21
57.25
0
LINE
8
CUT
10
77
20
59
11
97
21
59
0
LINE
8
CUT
10
87
20
60.75
11
87
21
57.25
0
LINE
8
CUT
10
99
20
59
11
119
21
59
0
LINE
8
CUT
10
109
20
60.75
11
109
21
57.25
0
LINE
8
CUT
10
0
20
53
11
20
21
53
0
LINE
8
CUT
10
10
20
54.75
11
10
21
51.25
0
LINE
8
CUT
10
22
20
53
11
42
21
53
0
LINE
8
CUT
10
32
20
54.75
11
32
21
51.25
0
LINE
8
CUT
10
44
20
53
11
64
21
53
0
LINE
8
CUT
10
54
20
54.75
11
54
21
51.25
0
LINE
8
CUT
10
66
20
53
11
86
21
53
0
LINE
8
CUT
10
76
20
54.75
11
76
21
51.25
0
LINE
8
CUT
10
88
20
53
11
108
21
53
0
LINE
8
CUT
10
98
20
54.75
11
98
21
51.25
0
LINE
8
CUT
10
110
20
53
11
120
21
53
0
LINE
8
CUT
10
120
20
54.75
11
120
21
51.25
0
LINE
8
CUT
10
0
20
47
11
9
21
47
0
LINE
8
CUT
10
11
20
47
11
31
21
47
0
LINE
8
CUT
10
21
20
48.75
11
21
21
45.25
0
LINE
8
CUT
10
33
20
47
11
53
21
47
0
LINE
8
CUT
10
43
20
48.75
11
43
21
45.25
0
LINE
8
CUT
10
55
20
47
11
75
21
47
0
LINE
8
CUT
10
65
20
48.75
11
65
21
45.25
0
LINE
8
CUT
10
77
20
47
11
97
21
47
0
LINE
8
CUT
10
87
20
48.75
11
87
21
45.25
0
LINE
8
CUT
10
99
20
47
11
119
21
47
0
LINE
8
CUT
10
109
20
48.75
11
109
21
45.25
0
LINE
8
CUT
10
0
20
41
11
20
21
41
0
LINE
8
CUT
10
10
20
42.75
11
10
21
39.25
0
LINE
8
CUT
10
22
20
41
11
42
21
41
0
LINE
8
CUT
10
32
20
42.75
11
32
21
39.25
0
LINE
8
CUT
10
44
20
41
11
64
21
41
0
LINE
8
CUT
10
54
20
42.75
11
54
21
39.25
0
LINE
8
CUT
10
66
20
41
11
86
21
41
0
LINE
8
CUT
10
76
20
42.75
11
76
21
39.25
0
LINE
8
CUT
10
88
20
41
11
108
21
41
0
LINE
8
CUT
10
98
20
42.75
11
98
21
39.25
0
LINE
8
CUT
10
110
20
41
11
120
21
41
0
LINE
8
CUT
10
120
20
42.75
11
120
21
39.25
0
LINE
8
CUT
10
0
20
35
11
9
21
35
0
LINE
8
CUT
10
11
20
35
11
31
21
35
0
LINE
8
CUT
10
21
20
36.75
11
21
21
33.25
0
LINE
8
CUT
10
33
20
35
11
53
21
35
0
LINE
8
CUT
10
43
20
36.75
11
43
21
33.25
0
LINE
8
CUT
10
55
20
35
11
75
21
35
0
LINE
8
CUT
10
65
20
36.75
11
65
21
33.25
0
LINE
8
CUT
10
77
20
35
11
97
21
35
0
LINE
8
CUT
10
87
20
36.75
11
87
21
33.25
0
LINE
8
CUT
10
99
20
35
11
119
21
35
0
LINE
8
CUT
10
109
20
36.75
11
109
21
33.25
0
LINE
8
CUT
10
0
20
29
11
20
21
29
0
LINE
8
CUT
10
10
20
30.75
11
10
21
27.25
0
LINE
8
CUT
10
22
20
29
11
42
21
29
0
LINE
8
CUT
10
32
20
30.75
11
32
21
27.25
0
LINE
8
CUT
10
44
20
29
11
64
21
29
0
LINE
8
CUT
10
54
20
30.75
11
54
21
27.25
0
LINE
8
CUT
10
66
20
29
11
86
21
29
0
LINE
8
CUT
10
76
20
30.75
11
76
21
27.25
0
LINE
8
CUT
10
88
20
29
11
108
21
29
0
LINE
8
CUT
10
98
20
30.75
11
98
21
27.25
0
LINE
8
CUT
10
110
20
29
11
120
21
29
0
LINE
8
CUT
10
120
20
30.75
11
120
21
27.25
0
LINE
8
CUT
10
0
20
23
11
9
21
23
0
LINE
8
CUT
10
11
20
23
11
31
21
23
0
LINE
8
CUT
10
21
20
24.75
11
21
21
21.25
0
LINE
8
CUT
10
33
20
23
11
53
21
23
0
LINE
8
CUT
10
43
20
24.75
11
43
21
21.25
0
LINE
8
CUT
10
55
20
23
11
75
21
23
0
LINE
8
CUT
10
65
20
24.75
11
65
21
21.25
0
LINE
8
CUT
10
77
20
23
11
97
21
23
0
LINE
8
CUT
10
87
20
24.75
11
87
21
21.25
0
LINE
8
CUT
10
99
20
23
11
119
21
23
0
LINE
8
CUT
10
109
20
24.75
11
109
21
21.25
0
LINE
8
CUT
10
0
20
17
11
20
21
17
0
LINE
8
CUT
10
10
20
18.75
11
10
21
15.25
0
LINE
8
CUT
10
22
20
17
11
42
21
17
0
LINE
8
CUT
10
32
20
18.75
11
32
21
15.25
0
LINE
8
CUT
10
44
20
17
11
64
21
17
0
LINE
8
CUT
10
54
20
18.75
11
54
21
15.25
0
LINE
8
CUT
10
66
20
17
11
86
21
17
0
LINE
8
CUT
10
76
20
18.75
11
76
21
15.25
0
LINE
8
CUT
10
88
20
17
11
108
21
17
0
LINE
8
CUT
10
98
20
18.75
11
98
21
15.25
0
LINE
8
CUT
10
110
20
17
11
120
21
17
0
LINE
8
CUT
10
120
20
18.75
11
120
21
15.25
0
LINE
8
CUT
10
0
20
11
11
9
21
11
0
LINE
8
CUT
10
11
20
11
11
31
21
11
0
LINE
8
CUT
10
21
20
12.75
11
21
21
9.25
0
LINE
8
CUT
10
33
20
11
11
53
21
11
0
LINE
8
CUT
10
43
20
12.75
11
43
21
9.25
0
LINE
8
CUT
10
55
20
11
11
75
21
11
0
LINE
8
CUT
10
65
20
12.75
11
65
21
9.25
0
LINE
8
CUT
10
77
20
11
11
97
21
11
0
LINE
8
CUT
10
87
20
12.75
11
87
21
9.25
0
LINE
8
CUT
10
99
20
11
11
119
21
11
0
LINE
8
CUT
10
109
20
12.75
11
109
21
9.25
0
LINE
8
CUT
10
0
20
5
11
20
21
5
0
LINE
8
CUT
10
10
20
6.75
11
10
21
3.25
0
LINE
8
CUT
10
22
20
5
11
42
21
5
0
LINE
8
CUT
10
32
20
6.75
11
32
21
3.25
0
LINE
8
CUT
10
44
20
5
11
64
21
5
0
LINE
8
CUT
10
54
20
6.75
11
54
21
3.25
0
LINE
8
CUT
10
66
20
5
11
86
21
5
0
LINE
8
CUT
10
76
20
6.75
11
76
21
3.25
0
LINE
8
CUT
10
88
20
5
11
108
21
5
0
LINE
8
CUT
10
98
20
6.75
11
98
21
3.25
0
LINE
8
CUT
10
110
20
5
11
120
21
5
0
LINE
8
CUT
10
120
20
6.75
11
120
21
3.25
0
POLYLINE
8
CUT
66
1
70
0
0
VERTEX
8
CUT
10
0
20
70
0
VERTEX
8
CUT
10
120
20
70
0
VERTEX
8
CUT
10
120
20
0
0
VERTEX
8
CUT
10
0
20
0
0
VERTEX
8
CUT
10
0
20
70
0
SEQEND
0
ENDSEC
0
EOF
