0
SECTION
2
HEADER
9
$ACADVER
1
AC1009
9
$INSUNITS
70
4
0
ENDSEC
0
SECTION
2
TABLES
0
TABLE
2
LAYER
70
1
0
LAYER
2
CUT
70
0
62
1
6
CONTINUOUS
0
ENDTAB
0
ENDSEC
0
SECTION
2
ENTITIES
0
POLYLINE
8
CUT
66
1
70
0
0
VERTEX
8
CUT
10
0
20
65
0
VERTEX
8
CUT
10
10
20
64
0
VERTEX
8
CUT
10
20
20
65
0
VERTEX
8
CUT
10
10
20
66
0
VERTEX
8
CUT
10
0
20
65
0
SEQEND
0
POLYLINE
8
CUT
66
1
70
0
0
VERTEX
8
CUT
10
22
20
65
0
VERTEX
8
CUT
10
32
20
64
0
VERTEX
8
CUT
10
42
20
65
0
VERTEX
8
CUT
10
32
20
66
0
VERTEX
8
CUT
10
22
20
65
0
SEQEND
0
POLYLINE
8
CUT
66
1
70
0
0
VERTEX
8
CUT
10
44
20
65
0
VERTEX
8
CUT
10
54
20
64
0
VERTEX
8
CUT
10
64
20
65
0
VERTEX
8
CUT
10
54
20
66
0
VERTEX
8
CUT
10
44
20
65
0
SEQEND
0
POLYLINE
8
CUT
66
1
70
0
0
VERTEX
8
CUT
10
66
20
65
0
VERTEX
8
CUT
10
76
20
64
0
VERTEX
8
CUT
10
86
20
65
0
VERTEX
8
CUT
10
76
20
66
0
VERTEX
8
CUT
10
66
20
65
0
SEQEND
0
POLYLINE
8
CUT
66
1
70
0
0
VERTEX
8
CUT
10
88
20
65
0
VERTEX
8
CUT
10
98
20
64
0
VERTEX
8
CUT
10
108
20
65
0
VERTEX
8
CUT
10
98
20
66
0
VERTEX
8
CUT
10
88
20
65
0
SEQEND
0
POLYLINE
8
CUT
66
1
70
0
0
VERTEX
8
CUT
10
110
20
65
0
VERTEX
8
CUT
10
120
20
64
0
VERTEX
8
CUT
10
120
20
64
0
SEQEND
0
POLYLINE
8
CUT
66
1
70
0
0
VERTEX
8
CUT
10
120
20
66
0
VERTEX
8
CUT
10
120
20
66
0
VERTEX
8
CUT
10
110
20
65
0
SEQEND
0
POLYLINE
8
CUT
66
1
70
0
0
VERTEX
8
CUT
10
0
20
58.1
0
VERTEX
8
CUT
10
9
20
59
0
VERTEX
8
CUT
10
0
20
59.9
0
SEQEND
0
POLYLINE
8
CUT
66
1
70
0
0
VERTEX
8
CUT
10
11
20
59
0
VERTEX
8
CUT
10
21
20
58
0
VERTEX
8
CUT
10
31
20
59
0
VERTEX
8
CUT
10
21
20
60
0
VERTEX
8
CUT
10
11
20
59
0
SEQEND
0
POLYLINE
8
CUT
66
1
70
0
0
VERTEX
8
CUT
10
33
20
59
0
VERTEX
8
CUT
10
43
20
58
0
VERTEX
8
CUT
10
53
20
59
0
VERTEX
8
CUT
10
43
20
60
0
VERTEX
8
CUT
10
33
20
59
0
SEQEND
0
POLYLINE
8
CUT
66
1
70
0
0
VERTEX
8
CUT
10
55
20
59
0
VERTEX
8
CUT
10
65
20
58
0
VERTEX
8
CUT
10
75
20
59
0
VERTEX
8
CUT
10
65
20
60
0
VERTEX
8
CUT
10
55
20
59
0
SEQEND
0
POLYLINE
8
CUT
66
1
70
0
0
VERTEX
8
CUT
10
77
20
59
0
VERTEX
8
CUT
10
87
20
58
0
VERTEX
8
CUT
10
97
20
59
0
VERTEX
8
CUT
10
87
20
60
0
VERTEX
8
CUT
10
77
20
59
0
SEQEND
0
POLYLINE
8
CUT
66
1
70
0
0
VERTEX
8
CUT
10
99
20
59
0
VERTEX
8
CUT
10
109
20
58
0
VERTEX
8
CUT
10
119
20
59
0
VERTEX
8
CUT
10
109
20
60
0
VERTEX
8
CUT
10
99
20
59
0
SEQEND
0
POLYLINE
8
CUT
66
1
70
0
0
VERTEX
8
CUT
10
0
20
53
0
VERTEX
8
CUT
10
10
20
52
0
VERTEX
8
CUT
10
20
20
53
0
VERTEX
8
CUT
10
10
20
54
0
VERTEX
8
CUT
10
0
20
53
0
SEQEND
0
POLYLINE
8
CUT
66
1
70
0
0
VERTEX
8
CUT
10
22
20
53
0
VERTEX
8
CUT
10
32
20
52
0
VERTEX
8
CUT
10
42
20
53
0
VERTEX
8
CUT
10
32
20
54
0
VERTEX
8
CUT
10
22
20
53
0
SEQEND
0
POLYLINE
8
CUT
66
1
70
0
0
VERTEX
8
CUT
10
44
20
53
0
VERTEX
8
CUT
10
54
20
52
0
VERTEX
8
CUT
10
64
20
53
0
VERTEX
8
CUT
10
54
20
54
0
VERTEX
8
CUT
10
44
20
53
0
SEQEND
0
POLYLINE
8
CUT
66
1
70
0
0
VERTEX
8
CUT
10
66
20
53
0
VERTEX
8
CUT
10
76
20
52
0
VERTEX
8
CUT
10
86
20
53
0
VERTEX
8
CUT
10
76
20
54
0
VERTEX
8
CUT
10
66
20
53
0
SEQEND
0
POLYLINE
8
CUT
66
1
70
0
0
VERTEX
8
CUT
10
88
20
53
0
VERTEX
8
CUT
10
98
20
52
0
VERTEX
8
CUT
10
108
20
53
0
VERTEX
8
CUT
10
98
20
54
0
VERTEX
8
CUT
10
88
20
53
0
SEQEND
0
POLYLINE
8
CUT
66
1
70
0
0
VERTEX
8
CUT
10
110
20
53
0
VERTEX
8
CUT
10
120
20
52
0
VERTEX
8
CUT
10
120
20
52
0
SEQEND
0
POLYLINE
8
CUT
66
1
70
0
0
VERTEX
8
CUT
10
120
20
54
0
VERTEX
8
CUT
10
120
20
54
0
VERTEX
8
CUT
10
110
20
53
0
SEQEND
0
POLYLINE
8
CUT
66
1
70
0
0
VERTEX
8
CUT
10
0
20
46.1
0
VERTEX
8
CUT
10
9
20
47
0
VERTEX
8
CUT
10
0
20
47.9
0
SEQEND
0
POLYLINE
8
CUT
66
1
70
0
0
VERTEX
8
CUT
10
11
20
47
0
VERTEX
8
CUT
10
21
20
46
0
VERTEX
8
CUT
10
31
20
47
0
VERTEX
8
CUT
10
21
20
48
0
VERTEX
8
CUT
10
11
20
47
0
SEQEND
0
POLYLINE
8
CUT
66
1
70
0
0
VERTEX
8
CUT
10
33
20
47
0
VERTEX
8
CUT
10
43
20
46
0
VERTEX
8
CUT
10
53
20
47
0
VERTEX
8
CUT
10
43
20
48
0
VERTEX
8
CUT
10
33
20
47
0
SEQEND
0
POLYLINE
8
CUT
66
1
70
0
0
VERTEX
8
CUT
10
55
20
47
0
VERTEX
8
CUT
10
65
20
46
0
VERTEX
8
CUT
10
75
20
47
0
VERTEX
8
CUT
10
65
20
48
0
VERTEX
8
CUT
10
55
20
47
0
SEQEND
0
POLYLINE
8
CUT
66
1
70
0
0
VERTEX
8
CUT
10
77
20
47
0
VERTEX
8
CUT
10
87
20
46
0
VERTEX
8
CUT
10
97
20
47
0
VERTEX
8
CUT
10
87
20
48
0
VERTEX
8
CUT
10
77
20
47
0
SEQEND
0
POLYLINE
8
CUT
66
1
70
0
0
VERTEX
8
CUT
10
99
20
47
0
VERTEX
8
CUT
10
109
20
46
0
VERTEX
8
CUT
10
119
20
47
0
VERTEX
8
CUT
10
109
20
48
0
VERTEX
8
CUT
10
99
20
47
0
SEQEND
0
POLYLINE
8
CUT
66
1
70
0
0
VERTEX
8
CUT
10
0
20
41
0
VERTEX
8
CUT
10
10
20
40
0
VERTEX
8
CUT
10
20
20
41
0
VERTEX
8
CUT
10
10
20
42
0
VERTEX
8
CUT
10
0
20
41
0
SEQEND
0
POLYLINE
8
CUT
66
1
70
0
0
VERTEX
8
CUT
10
22
20
41
0
VERTEX
8
CUT
10
32
20
40
0
VERTEX
8
CUT
10
42
20
41
0
VERTEX
8
CUT
10
32
20
42
0
VERTEX
8
CUT
10
22
20
41
0
SEQEND
0
POLYLINE
8
CUT
66
1
70
0
0
VERTEX
8
CUT
10
44
20
41
0
VERTEX
8
CUT
10
54
20
40
0
VERTEX
8
CUT
10
64
20
41
0
VERTEX
8
CUT
10
54
20
42
0
VERTEX
8
CUT
10
44
20
41
0
SEQEND
0
POLYLINE
8
CUT
66
1
70
0
0
VERTEX
8
CUT
10
66
20
41
0
VERTEX
8
CUT
10
76
20
40
0
VERTEX
8
CUT
10
86
20
41
0
VERTEX
8
CUT
10
76
20
42
0
VERTEX
8
CUT
10
66
20
41
0
SEQEND
0
POLYLINE
8
CUT
66
1
70
0
0
VERTEX
8
CUT
10
88
20
41
0
VERTEX
8
CUT
10
98
20
40
0
VERTEX
8
CUT
10
108
20
41
0
VERTEX
8
CUT
10
98
20
42
0
VERTEX
8
CUT
10
88
20
41
0
SEQEND
0
POLYLINE
8
CUT
66
1
70
0
0
VERTEX
8
CUT
10
110
20
41
0
VERTEX
8
CUT
10
120
20
40
0
VERTEX
8
CUT
10
120
20
40
0
SEQEND
0
POLYLINE
8
CUT
66
1
70
0
0
VERTEX
8
CUT
10
120
20
42
0
VERTEX
8
CUT
10
120
20
42
0
VERTEX
8
CUT
10
110
20
41
0
SEQEND
0
POLYLINE
8
CUT
66
1
70
0
0
VERTEX
8
CUT
10
0
20
34.1
0
VERTEX
8
CUT
10
9
20
35
0
VERTEX
8
CUT
10
0
20
35.9
0
SEQEND
0
POLYLINE
8
CUT
66
1
70
0
0
VERTEX
8
CUT
10
11
20
35
0
VERTEX
8
CUT
10
21
20
34
0
VERTEX
8
CUT
10
31
20
35
0
VERTEX
8
CUT
10
21
20
36
0
VERTEX
8
CUT
10
11
20
35
0
SEQEND
0
POLYLINE
8
CUT
66
1
70
0
0
VERTEX
8
CUT
10
33
20
35
0
VERTEX
8
CUT
10
43
20
34
0
VERTEX
8
CUT
10
53
20
35
0
VERTEX
8
CUT
10
43
20
36
0
VERTEX
8
CUT
10
33
20
35
0
SEQEND
0
POLYLINE
8
CUT
66
1
70
0
0
VERTEX
8
CUT
10
55
20
35
0
VERTEX
8
CUT
10
65
20
34
0
VERTEX
8
CUT
10
75
20
35
0
VERTEX
8
CUT
10
65
20
36
0
VERTEX
8
CUT
10
55
20
35
0
SEQEND
0
POLYLINE
8
CUT
66
1
70
0
0
VERTEX
8
CUT
10
77
20
35
0
VERTEX
8
CUT
10
87
20
34
0
VERTEX
8
CUT
10
97
20
35
0
VERTEX
8
CUT
10
87
20
36
0
VERTEX
8
CUT
10
77
20
35
0
SEQEND
0
POLYLINE
8
CUT
66
1
70
0
0
VERTEX
8
CUT
10
99
20
35
0
VERTEX
8
CUT
10
109
20
34
0
VERTEX
8
CUT
10
119
20
35
0
VERTEX
8
CUT
10
109
20
36
0
VERTEX
8
CUT
10
99
20
35
0
SEQEND
0
POLYLINE
8
CUT
66
1
70
0
0
VERTEX
8
CUT
10
0
20
29
0
VERTEX
8
CUT
10
10
20
28
0
VERTEX
8
CUT
10
20
20
29
0
VERTEX
8
CUT
10
10
20
30
0
VERTEX
8
CUT
10
0
20
29
0
SEQEND
0
POLYLINE
8
CUT
66
1
70
0
0
VERTEX
8
CUT
10
22
20
29
0
VERTEX
8
CUT
10
32
20
28
0
VERTEX
8
CUT
10
42
20
29
0
VERTEX
8
CUT
10
32
20
30
0
VERTEX
8
CUT
10
22
20
29
0
SEQEND
0
POLYLINE
8
CUT
66
1
70
0
0
VERTEX
8
CUT
10
44
20
29
0
VERTEX
8
CUT
10
54
20
28
0
VERTEX
8
CUT
10
64
20
29
0
VERTEX
8
CUT
10
54
20
30
0
VERTEX
8
CUT
10
44
20
29
0
SEQEND
0
POLYLINE
8
CUT
66
1
70
0
0
VERTEX
8
CUT
10
66
20
29
0
VERTEX
8
CUT
10
76
20
28
0
VERTEX
8
CUT
10
86
20
29
0
VERTEX
8
CUT
10
76
20
30
0
VERTEX
8
CUT
10
66
20
29
0
SEQEND
0
POLYLINE
8
CUT
66
1
70
0
0
VERTEX
8
CUT
10
88
20
29
0
VERTEX
8
CUT
10
98
20
28
0
VERTEX
8
CUT
10
108
20
29
0
VERTEX
8
CUT
10
98
20
30
0
VERTEX
8
CUT
10
88
20
29
0
SEQEND
0
POLYLINE
8
CUT
66
1
70
0
0
VERTEX
8
CUT
10
110
20
29
0
VERTEX
8
CUT
10
120
20
28
0
VERTEX
8
CUT
10
120
20
28
0
SEQEND
0
POLYLINE
8
CUT
66
1
70
0
0
VERTEX
8
CUT
10
120
20
30
0
VERTEX
8
CUT
10
120
20
30
0
VERTEX
8
CUT
10
110
20
29
0
SEQEND
0
POLYLINE
8
CUT
66
1
70
0
0
VERTEX
8
CUT
10
0
20
22.1
0
VERTEX
8
CUT
10
9
20
23
0
VERTEX
8
CUT
10
0
20
23.9
0
SEQEND
0
POLYLINE
8
CUT
66
1
70
0
0
VERTEX
8
CUT
10
11
20
23
0
VERTEX
8
CUT
10
21
20
22
0
VERTEX
8
CUT
10
31
20
23
0
VERTEX
8
CUT
10
21
20
24
0
VERTEX
8
CUT
10
11
20
23
0
SEQEND
0
POLYLINE
8
CUT
66
1
70
0
0
VERTEX
8
CUT
10
33
20
23
0
VERTEX
8
CUT
10
43
20
22
0
VERTEX
8
CUT
10
53
20
23
0
VERTEX
8
CUT
10
43
20
24
0
VERTEX
8
CUT
10
33
20
23
0
SEQEND
0
POLYLINE
8
CUT
66
1
70
0
0
VERTEX
8
CUT
10
55
20
23
0
VERTEX
8
CUT
10
65
20
22
0
VERTEX
8
CUT
10
75
20
23
0
VERTEX
8
CUT
10
65
20
24
0
VERTEX
8
CUT
10
55
20
23
0
SEQEND
0
POLYLINE
8
CUT
66
1
70
0
0
VERTEX
8
CUT
10
77
20
23
0
VERTEX
8
CUT
10
87
20
22
0
VERTEX
8
CUT
10
97
20
23
0
VERTEX
8
CUT
10
87
20
24
0
VERTEX
8
CUT
10
77
20
23
0
SEQEND
0
POLYLINE
8
CUT
66
1
70
0
0
VERTEX
8
CUT
10
99
20
23
0
VERTEX
8
CUT
10
109
20
22
0
VERTEX
8
CUT
10
119
20
23
0
VERTEX
8
CUT
10
109
20
24
0
VERTEX
8
CUT
10
99
20
23
0
SEQEND
0
POLYLINE
8
CUT
66
1
70
0
0
VERTEX
8
CUT
10
0
20
17
0
VERTEX
8
CUT
10
10
20
16
0
VERTEX
8
CUT
10
20
20
17
0
VERTEX
8
CUT
10
10
20
18
0
VERTEX
8
CUT
10
0
20
17
0
SEQEND
0
POLYLINE
8
CUT
66
1
70
0
0
VERTEX
8
CUT
10
22
20
17
0
VERTEX
8
CUT
10
32
20
16
0
VERTEX
8
CUT
10
42
20
17
0
VERTEX
8
CUT
10
32
20
18
0
VERTEX
8
CUT
10
22
20
17
0
SEQEND
0
POLYLINE
8
CUT
66
1
70
0
0
VERTEX
8
CUT
10
44
20
17
0
VERTEX
8
CUT
10
54
20
16
0
VERTEX
8
CUT
10
64
20
17
0
VERTEX
8
CUT
10
54
20
18
0
VERTEX
8
CUT
10
44
20
17
0
SEQEND
0
POLYLINE
8
CUT
66
1
70
0
0
VERTEX
8
CUT
10
66
20
17
0
VERTEX
8
CUT
10
76
20
16
0
VERTEX
8
CUT
10
86
20
17
0
VERTEX
8
CUT
10
76
20
18
0
VERTEX
8
CUT
10
66
20
17
0
SEQEND
0
POLYLINE
8
CUT
66
1
70
0
0
VERTEX
8
CUT
10
88
20
17
0
VERTEX
8
CUT
10
98
20
16
0
VERTEX
8
CUT
10
108
20
17
0
VERTEX
8
CUT
10
98
20
18
0
VERTEX
8
CUT
10
88
20
17
0
SEQEND
0
POLYLINE
8
CUT
66
1
70
0
0
VERTEX
8
CUT
10
110
20
17
0
VERTEX
8
CUT
10
120
20
16
0
VERTEX
8
CUT
10
120
20
16
0
SEQEND
0
POLYLINE
8
CUT
66
1
70
0
0
VERTEX
8
CUT
10
120
20
18
0
VERTEX
8
CUT
10
120
20
18
0
VERTEX
8
CUT
10
110
20
17
0
SEQEND
0
POLYLINE
8
CUT
66
1
70
0
0
VERTEX
8
CUT
10
0
20
10.1
0
VERTEX
8
CUT
10
9
20
11
0
VERTEX
8
CUT
10
0
20
11.9
0
SEQEND
0
POLYLINE
8
CUT
66
1
70
0
0
VERTEX
8
CUT
10
11
20
11
0
VERTEX
8
CUT
10
21
20
10
0
VERTEX
8
CUT
10
31
20
11
0
VERTEX
8
CUT
10
21
20
12
0
VERTEX
8
CUT
10
11
20
11
0
SEQEND
0
POLYLINE
8
CUT
66
1
70
0
0
VERTEX
8
CUT
10
33
20
11
0
VERTEX
8
CUT
10
43
20
10
0
VERTEX
8
CUT
10
53
20
11
0
VERTEX
8
CUT
10
43
20
12
0
VERTEX
8
CUT
10
33
20
11
0
SEQEND
0
POLYLINE
8
CUT
66
1
70
0
0
VERTEX
8
CUT
10
55
20
11
0
VERTEX
8
CUT
10
65
20
10
0
VERTEX
8
CUT
10
75
20
11
0
VERTEX
8
CUT
10
65
20
12
0
VERTEX
8
CUT
10
55
20
11
0
SEQEND
0
POLYLINE
8
CUT
66
1
70
0
0
VERTEX
8
CUT
10
77
20
11
0
VERTEX
8
CUT
10
87
20
10
0
VERTEX
8
CUT
10
97
20
11
0
VERTEX
8
CUT
10
87
20
12
0
VERTEX
8
CUT
10
77
20
11
0
SEQEND
0
POLYLINE
8
CUT
66
1
70
0
0
VERTEX
8
CUT
10
99
20
11
0
VERTEX
8
CUT
10
109
20
10
0
VERTEX
8
CUT
10
119
20
11
0
VERTEX
8
CUT
10
109
20
12
0
VERTEX
8
CUT
10
99
20
11
0
SEQEND
0
POLYLINE
8
CUT
66
1
70
0
0
VERTEX
8
CUT
10
0
20
5
0
VERTEX
8
CUT
10
10
20
4
0
VERTEX
8
CUT
10
20
20
5
0
VERTEX
8
CUT
10
10
20
6
0
VERTEX
8
CUT
10
0
20
5
0
SEQEND
0
POLYLINE
8
CUT
66
1
70
0
0
VERTEX
8
CUT
10
22
20
5
0
VERTEX
8
CUT
10
32
20
4
0
VERTEX
8
CUT
10
42
20
5
0
VERTEX
8
CUT
10
32
20
6
0
VERTEX
8
CUT
10
22
20
5
0
SEQEND
0
POLYLINE
8
CUT
66
1
70
0
0
VERTEX
8
CUT
10
44
20
5
0
VERTEX
8
CUT
10
54
20
4
0
VERTEX
8
CUT
10
64
20
5
0
VERTEX
8
CUT
10
54
20
6
0
VERTEX
8
CUT
10
44
20
5
0
SEQEND
0
POLYLINE
8
CUT
66
1
70
0
0
VERTEX
8
CUT
10
66
20
5
0
VERTEX
8
CUT
10
76
20
4
0
VERTEX
8
CUT
10
86
20
5
0
VERTEX
8
CUT
10
76
20
6
0
VERTEX
8
CUT
10
66
20
5
0
SEQEND
0
POLYLINE
8
CUT
66
1
70
0
0
VERTEX
8
CUT
10
88
20
5
0
VERTEX
8
CUT
10
98
20
4
0
VERTEX
8
CUT
10
108
20
5
0
VERTEX
8
CUT
10
98
20
6
0
VERTEX
8
CUT
10
88
20
5
0
SEQEND
0
POLYLINE
8
CUT
66
1
70
0
0
VERTEX
8
CUT
10
110
20
5
0
VERTEX
8
CUT
10
120
20
4
0
VERTEX
8
CUT
10
120
20
4
0
SEQEND
0
POLYLINE
8
CUT
66
1
70
0
0
VERTEX
8
CUT
10
120
20
6
0
VERTEX
8
CUT
10
120
20
6
0
VERTEX
8
CUT
10
110
20
5
0
SEQEND
0
POLYLINE
8
CUT
66
1
70
0
0
VERTEX
8
CUT
10
0
20
70
0
VERTEX
8
CUT
10
120
20
70
0
VERTEX
8
CUT
10
120
20
0
0
VERTEX
8
CUT
10
0
20
0
0
VERTEX
8
CUT
10
0
20
70
0
SEQEND
0
ENDSEC
0
EOF
