0
SECTION
2
HEADER
9
$ACADVER
1
AC1009
9
$INSUNITS
70
4
0
ENDSEC
0
SECTION
2
TABLES
0
TABLE
2
LAYER
70
1
0
LAYER
2
CUT
70
0
62
1
6
CONTINUOUS
0
ENDTAB
0
ENDSEC
0
SECTION
2
ENTITIES
0
LINE
8
CUT
10
0
20
67.7795
11
0.782
21
69.134
0
LINE
8
CUT
10
0
20
57.7193
11
0.782
21
59.0737
0
LINE
8
CUT
10
0
20
62.1602
11
0.782
21
60.8058
0
LINE
8
CUT
10
0
20
47.659
11
0.782
21
49.0135
0
LINE
8
CUT
10
0
20
52.1
11
0.782
21
50.7455
0
LINE
8
CUT
10
0
20
37.5987
11
0.782
21
38.9532
0
LINE
8
CUT
10
0
20
42.0397
11
0.782
21
40.6853
0
LINE
8
CUT
10
0
20
27.5385
11
0.782
21
28.893
0
LINE
8
CUT
10
0
20
31.9795
11
0.782
21
30.625
0
LINE
8
CUT
10
0
20
17.4782
11
0.782
21
18.8327
0
LINE
8
CUT
10
0
20
21.9192
11
0.782
21
20.5648
0
LINE
8
CUT
10
0
20
7.418
11
0.782
21
8.7725
0
LINE
8
CUT
10
0
20
11.859
11
0.782
21
10.5045
0
LINE
8
CUT
10
0
20
1.7987
11
0.782
21
0.4442
0
POLYLINE
8
CUT
66
1
70
0
0
VERTEX
8
CUT
10
0.5
20
64.1038
0
VERTEX
8
CUT
10
2.5
20
60.6397
0
VERTEX
8
CUT
10
7.5
20
60.6397
0
VERTEX
8
CUT
10
9.5
20
64.1038
0
SEQEND
0
POLYLINE
8
CUT
66
1
70
0
0
VERTEX
8
CUT
10
0.5
20
65.8359
0
VERTEX
8
CUT
10
2.5
20
69.3
0
VERTEX
8
CUT
10
7.5
20
69.3
0
VERTEX
8
CUT
10
9.5
20
65.8359
0
SEQEND
0
POLYLINE
8
CUT
66
1
70
0
0
VERTEX
8
CUT
10
0.5
20
54.0436
0
VERTEX
8
CUT
10
2.5
20
50.5795
0
VERTEX
8
CUT
10
7.5
20
50.5795
0
VERTEX
8
CUT
10
9.5
20
54.0436
0
SEQEND
0
POLYLINE
8
CUT
66
1
70
0
0
VERTEX
8
CUT
10
0.5
20
55.7756
0
VERTEX
8
CUT
10
2.5
20
59.2397
0
VERTEX
8
CUT
10
7.5
20
59.2397
0
VERTEX
8
CUT
10
9.5
20
55.7756
0
SEQEND
0
POLYLINE
8
CUT
66
1
70
0
0
VERTEX
8
CUT
10
0.5
20
43.9833
0
VERTEX
8
CUT
10
2.5
20
40.5192
0
VERTEX
8
CUT
10
7.5
20
40.5192
0
VERTEX
8
CUT
10
9.5
20
43.9833
0
SEQEND
0
POLYLINE
8
CUT
66
1
70
0
0
VERTEX
8
CUT
10
0.5
20
45.7154
0
VERTEX
8
CUT
10
2.5
20
49.1795
0
VERTEX
8
CUT
10
7.5
20
49.1795
0
VERTEX
8
CUT
10
9.5
20
45.7154
0
SEQEND
0
POLYLINE
8
CUT
66
1
70
0
0
VERTEX
8
CUT
10
0.5
20
33.9231
0
VERTEX
8
CUT
10
2.5
20
30.459
0
VERTEX
8
CUT
10
7.5
20
30.459
0
VERTEX
8
CUT
10
9.5
20
33.9231
0
SEQEND
0
POLYLINE
8
CUT
66
1
70
0
0
VERTEX
8
CUT
10
0.5
20
35.6551
0
VERTEX
8
CUT
10
2.5
20
39.1192
0
VERTEX
8
CUT
10
7.5
20
39.1192
0
VERTEX
8
CUT
10
9.5
20
35.6551
0
SEQEND
0
POLYLINE
8
CUT
66
1
70
0
0
VERTEX
8
CUT
10
0.5
20
23.8628
0
VERTEX
8
CUT
10
2.5
20
20.3987
0
VERTEX
8
CUT
10
7.5
20
20.3987
0
VERTEX
8
CUT
10
9.5
20
23.8628
0
SEQEND
0
POLYLINE
8
CUT
66
1
70
0
0
VERTEX
8
CUT
10
0.5
20
25.5949
0
VERTEX
8
CUT
10
2.5
20
29.059
0
VERTEX
8
CUT
10
7.5
20
29.059
0
VERTEX
8
CUT
10
9.5
20
25.5949
0
SEQEND
0
POLYLINE
8
CUT
66
1
70
0
0
VERTEX
8
CUT
10
0.5
20
13.8026
0
VERTEX
8
CUT
10
2.5
20
10.3385
0
VERTEX
8
CUT
10
7.5
20
10.3385
0
VERTEX
8
CUT
10
9.5
20
13.8026
0
SEQEND
0
POLYLINE
8
CUT
66
1
70
0
0
VERTEX
8
CUT
10
0.5
20
15.5346
0
VERTEX
8
CUT
10
2.5
20
18.9987
0
VERTEX
8
CUT
10
7.5
20
18.9987
0
VERTEX
8
CUT
10
9.5
20
15.5346
0
SEQEND
0
POLYLINE
8
CUT
66
1
70
0
0
VERTEX
8
CUT
10
0.5
20
3.7423
0
VERTEX
8
CUT
10
2.5
20
0.2782
0
VERTEX
8
CUT
10
7.5
20
0.2782
0
VERTEX
8
CUT
10
9.5
20
3.7423
0
SEQEND
0
POLYLINE
8
CUT
66
1
70
0
0
VERTEX
8
CUT
10
0.5
20
5.4744
0
VERTEX
8
CUT
10
2.5
20
8.9385
0
VERTEX
8
CUT
10
7.5
20
8.9385
0
VERTEX
8
CUT
10
9.5
20
5.4744
0
SEQEND
0
POLYLINE
8
CUT
66
1
70
0
0
VERTEX
8
CUT
10
9.218
20
69.134
0
VERTEX
8
CUT
10
11.218
20
65.6699
0
VERTEX
8
CUT
10
16.218
20
65.6699
0
VERTEX
8
CUT
10
18.218
20
69.134
0
SEQEND
0
POLYLINE
8
CUT
66
1
70
0
0
VERTEX
8
CUT
10
9.218
20
59.0737
0
VERTEX
8
CUT
10
11.218
20
55.6096
0
VERTEX
8
CUT
10
16.218
20
55.6096
0
VERTEX
8
CUT
10
18.218
20
59.0737
0
SEQEND
0
POLYLINE
8
CUT
66
1
70
0
0
VERTEX
8
CUT
10
9.218
20
60.8058
0
VERTEX
8
CUT
10
11.218
20
64.2699
0
VERTEX
8
CUT
10
16.218
20
64.2699
0
VERTEX
8
CUT
10
18.218
20
60.8058
0
SEQEND
0
POLYLINE
8
CUT
66
1
70
0
0
VERTEX
8
CUT
10
9.218
20
49.0135
0
VERTEX
8
CUT
10
11.218
20
45.5494
0
VERTEX
8
CUT
10
16.218
20
45.5494
0
VERTEX
8
CUT
10
18.218
20
49.0135
0
SEQEND
0
POLYLINE
8
CUT
66
1
70
0
0
VERTEX
8
CUT
10
9.218
20
50.7455
0
VERTEX
8
CUT
10
11.218
20
54.2096
0
VERTEX
8
CUT
10
16.218
20
54.2096
0
VERTEX
8
CUT
10
18.218
20
50.7455
0
SEQEND
0
POLYLINE
8
CUT
66
1
70
0
0
VERTEX
8
CUT
10
9.218
20
38.9532
0
VERTEX
8
CUT
10
11.218
20
35.4891
0
VERTEX
8
CUT
10
16.218
20
35.4891
0
VERTEX
8
CUT
10
18.218
20
38.9532
0
SEQEND
0
POLYLINE
8
CUT
66
1
70
0
0
VERTEX
8
CUT
10
9.218
20
40.6853
0
VERTEX
8
CUT
10
11.218
20
44.1494
0
VERTEX
8
CUT
10
16.218
20
44.1494
0
VERTEX
8
CUT
10
18.218
20
40.6853
0
SEQEND
0
POLYLINE
8
CUT
66
1
70
0
0
VERTEX
8
CUT
10
9.218
20
28.893
0
VERTEX
8
CUT
10
11.218
20
25.4289
0
VERTEX
8
CUT
10
16.218
20
25.4289
0
VERTEX
8
CUT
10
18.218
20
28.893
0
SEQEND
0
POLYLINE
8
CUT
66
1
70
0
0
VERTEX
8
CUT
10
9.218
20
30.625
0
VERTEX
8
CUT
10
11.218
20
34.0891
0
VERTEX
8
CUT
10
16.218
20
34.0891
0
VERTEX
8
CUT
10
18.218
20
30.625
0
SEQEND
0
POLYLINE
8
CUT
66
1
70
0
0
VERTEX
8
CUT
10
9.218
20
18.8327
0
VERTEX
8
CUT
10
11.218
20
15.3686
0
VERTEX
8
CUT
10
16.218
20
15.3686
0
VERTEX
8
CUT
10
18.218
20
18.8327
0
SEQEND
0
POLYLINE
8
CUT
66
1
70
0
0
VERTEX
8
CUT
10
9.218
20
20.5648
0
VERTEX
8
CUT
10
11.218
20
24.0289
0
VERTEX
8
CUT
10
16.218
20
24.0289
0
VERTEX
8
CUT
10
18.218
20
20.5648
0
SEQEND
0
POLYLINE
8
CUT
66
1
70
0
0
VERTEX
8
CUT
10
9.218
20
8.7725
0
VERTEX
8
CUT
10
11.218
20
5.3083
0
VERTEX
8
CUT
10
16.218
20
5.3083
0
VERTEX
8
CUT
10
18.218
20
8.7725
0
SEQEND
0
POLYLINE
8
CUT
66
1
70
0
0
VERTEX
8
CUT
10
9.218
20
10.5045
0
VERTEX
8
CUT
10
11.218
20
13.9686
0
VERTEX
8
CUT
10
16.218
20
13.9686
0
VERTEX
8
CUT
10
18.218
20
10.5045
0
SEQEND
0
POLYLINE
8
CUT
66
1
70
0
0
VERTEX
8
CUT
10
9.218
20
0.4442
0
VERTEX
8
CUT
10
11.218
20
3.9083
0
VERTEX
8
CUT
10
16.218
20
3.9083
0
VERTEX
8
CUT
10
18.218
20
0.4442
0
SEQEND
0
POLYLINE
8
CUT
66
1
70
0
0
VERTEX
8
CUT
10
17.936
20
64.1038
0
VERTEX
8
CUT
10
19.936
20
60.6397
0
VERTEX
8
CUT
10
24.936
20
60.6397
0
VERTEX
8
CUT
10
26.936
20
64.1038
0
SEQEND
0
POLYLINE
8
CUT
66
1
70
0
0
VERTEX
8
CUT
10
17.936
20
65.8359
0
VERTEX
8
CUT
10
19.936
20
69.3
0
VERTEX
8
CUT
10
24.936
20
69.3
0
VERTEX
8
CUT
10
26.936
20
65.8359
0
SEQEND
0
POLYLINE
8
CUT
66
1
70
0
0
VERTEX
8
CUT
10
17.936
20
54.0436
0
VERTEX
8
CUT
10
19.936
20
50.5795
0
VERTEX
8
CUT
10
24.936
20
50.5795
0
VERTEX
8
CUT
10
26.936
20
54.0436
0
SEQEND
0
POLYLINE
8
CUT
66
1
70
0
0
VERTEX
8
CUT
10
17.936
20
55.7756
0
VERTEX
8
CUT
10
19.936
20
59.2397
0
VERTEX
8
CUT
10
24.936
20
59.2397
0
VERTEX
8
CUT
10
26.936
20
55.7756
0
SEQEND
0
POLYLINE
8
CUT
66
1
70
0
0
VERTEX
8
CUT
10
17.936
20
43.9833
0
VERTEX
8
CUT
10
19.936
20
40.5192
0
VERTEX
8
CUT
10
24.936
20
40.5192
0
VERTEX
8
CUT
10
26.936
20
43.9833
0
SEQEND
0
POLYLINE
8
CUT
66
1
70
0
0
VERTEX
8
CUT
10
17.936
20
45.7154
0
VERTEX
8
CUT
10
19.936
20
49.1795
0
VERTEX
8
CUT
10
24.936
20
49.1795
0
VERTEX
8
CUT
10
26.936
20
45.7154
0
SEQEND
0
POLYLINE
8
CUT
66
1
70
0
0
VERTEX
8
CUT
10
17.936
20
33.9231
0
VERTEX
8
CUT
10
19.936
20
30.459
0
VERTEX
8
CUT
10
24.936
20
30.459
0
VERTEX
8
CUT
10
26.936
20
33.9231
0
SEQEND
0
POLYLINE
8
CUT
66
1
70
0
0
VERTEX
8
CUT
10
17.936
20
35.6551
0
VERTEX
8
CUT
10
19.936
20
39.1192
0
VERTEX
8
CUT
10
24.936
20
39.1192
0
VERTEX
8
CUT
10
26.936
20
35.6551
0
SEQEND
0
POLYLINE
8
CUT
66
1
70
0
0
VERTEX
8
CUT
10
17.936
20
23.8628
0
VERTEX
8
CUT
10
19.936
20
20.3987
0
VERTEX
8
CUT
10
24.936
20
20.3987
0
VERTEX
8
CUT
10
26.936
20
23.8628
0
SEQEND
0
POLYLINE
8
CUT
66
1
70
0
0
VERTEX
8
CUT
10
17.936
20
25.5949
0
VERTEX
8
CUT
10
19.936
20
29.059
0
VERTEX
8
CUT
10
24.936
20
29.059
0
VERTEX
8
CUT
10
26.936
20
25.5949
0
SEQEND
0
POLYLINE
8
CUT
66
1
70
0
0
VERTEX
8
CUT
10
17.936
20
13.8026
0
VERTEX
8
CUT
10
19.936
20
10.3385
0
VERTEX
8
CUT
10
24.936
20
10.3385
0
VERTEX
8
CUT
10
26.936
20
13.8026
0
SEQEND
0
POLYLINE
8
CUT
66
1
70
0
0
VERTEX
8
CUT
10
17.936
20
15.5346
0
VERTEX
8
CUT
10
19.936
20
18.9987
0
VERTEX
8
CUT
10
24.936
20
18.9987
0
VERTEX
8
CUT
10
26.936
20
15.5346
0
SEQEND
0
POLYLINE
8
CUT
66
1
70
0
0
VERTEX
8
CUT
10
17.936
20
3.7423
0
VERTEX
8
CUT
10
19.936
20
0.2782
0
VERTEX
8
CUT
10
24.936
20
0.2782
0
VERTEX
8
CUT
10
26.936
20
3.7423
0
SEQEND
0
POLYLINE
8
CUT
66
1
70
0
0
VERTEX
8
CUT
10
17.936
20
5.4744
0
VERTEX
8
CUT
10
19.936
20
8.9385
0
VERTEX
8
CUT
10
24.936
20
8.9385
0
VERTEX
8
CUT
10
26.936
20
5.4744
0
SEQEND
0
POLYLINE
8
CUT
66
1
70
0
0
VERTEX
8
CUT
10
26.654
20
69.134
0
VERTEX
8
CUT
10
28.654
20
65.6699
0
VERTEX
8
CUT
10
33.654
20
65.6699
0
VERTEX
8
CUT
10
35.654
20
69.134
0
SEQEND
0
POLYLINE
8
CUT
66
1
70
0
0
VERTEX
8
CUT
10
26.654
20
59.0737
0
VERTEX
8
CUT
10
28.654
20
55.6096
0
VERTEX
8
CUT
10
33.654
20
55.6096
0
VERTEX
8
CUT
10
35.654
20
59.0737
0
SEQEND
0
POLYLINE
8
CUT
66
1
70
0
0
VERTEX
8
CUT
10
26.654
20
60.8058
0
VERTEX
8
CUT
10
28.654
20
64.2699
0
VERTEX
8
CUT
10
33.654
20
64.2699
0
VERTEX
8
CUT
10
35.654
20
60.8058
0
SEQEND
0
POLYLINE
8
CUT
66
1
70
0
0
VERTEX
8
CUT
10
26.654
20
49.0135
0
VERTEX
8
CUT
10
28.654
20
45.5494
0
VERTEX
8
CUT
10
33.654
20
45.5494
0
VERTEX
8
CUT
10
35.654
20
49.0135
0
SEQEND
0
POLYLINE
8
CUT
66
1
70
0
0
VERTEX
8
CUT
10
26.654
20
50.7455
0
VERTEX
8
CUT
10
28.654
20
54.2096
0
VERTEX
8
CUT
10
33.654
20
54.2096
0
VERTEX
8
CUT
10
35.654
20
50.7455
0
SEQEND
0
POLYLINE
8
CUT
66
1
70
0
0
VERTEX
8
CUT
10
26.654
20
38.9532
0
VERTEX
8
CUT
10
28.654
20
35.4891
0
VERTEX
8
CUT
10
33.654
20
35.4891
0
VERTEX
8
CUT
10
35.654
20
38.9532
0
SEQEND
0
POLYLINE
8
CUT
66
1
70
0
0
VERTEX
8
CUT
10
26.654
20
40.6853
0
VERTEX
8
CUT
10
28.654
20
44.1494
0
VERTEX
8
CUT
10
33.654
20
44.1494
0
VERTEX
8
CUT
10
35.654
20
40.6853
0
SEQEND
0
POLYLINE
8
CUT
66
1
70
0
0
VERTEX
8
CUT
10
26.654
20
28.893
0
VERTEX
8
CUT
10
28.654
20
25.4289
0
VERTEX
8
CUT
10
33.654
20
25.4289
0
VERTEX
8
CUT
10
35.654
20
28.893
0
SEQEND
0
POLYLINE
8
CUT
66
1
70
0
0
VERTEX
8
CUT
10
26.654
20
30.625
0
VERTEX
8
CUT
10
28.654
20
34.0891
0
VERTEX
8
CUT
10
33.654
20
34.0891
0
VERTEX
8
CUT
10
35.654
20
30.625
0
SEQEND
0
POLYLINE
8
CUT
66
1
70
0
0
VERTEX
8
CUT
10
26.654
20
18.8327
0
VERTEX
8
CUT
10
28.654
20
15.3686
0
VERTEX
8
CUT
10
33.654
20
15.3686
0
VERTEX
8
CUT
10
35.654
20
18.8327
0
SEQEND
0
POLYLINE
8
CUT
66
1
70
0
0
VERTEX
8
CUT
10
26.654
20
20.5648
0
VERTEX
8
CUT
10
28.654
20
24.0289
0
VERTEX
8
CUT
10
33.654
20
24.0289
0
VERTEX
8
CUT
10
35.654
20
20.5648
0
SEQEND
0
POLYLINE
8
CUT
66
1
70
0
0
VERTEX
8
CUT
10
26.654
20
8.7725
0
VERTEX
8
CUT
10
28.654
20
5.3083
0
VERTEX
8
CUT
10
33.654
20
5.3083
0
VERTEX
8
CUT
10
35.654
20
8.7725
0
SEQEND
0
POLYLINE
8
CUT
66
1
70
0
0
VERTEX
8
CUT
10
26.654
20
10.5045
0
VERTEX
8
CUT
10
28.654
20
13.9686
0
VERTEX
8
CUT
10
33.654
20
13.9686
0
VERTEX
8
CUT
10
35.654
20
10.5045
0
SEQEND
0
POLYLINE
8
CUT
66
1
70
0
0
VERTEX
8
CUT
10
26.654
20
0.4442
0
VERTEX
8
CUT
10
28.654
20
3.9083
0
VERTEX
8
CUT
10
33.654
20
3.9083
0
VERTEX
8
CUT
10
35.654
20
0.4442
0
SEQEND
0
POLYLINE
8
CUT
66
1
70
0
0
VERTEX
8
CUT
10
35.372
20
64.1038
0
VERTEX
8
CUT
10
37.372
20
60.6397
0
VERTEX
8
CUT
10
42.372
20
60.6397
0
VERTEX
8
CUT
10
44.372
20
64.1038
0
SEQEND
0
POLYLINE
8
CUT
66
1
70
0
0
VERTEX
8
CUT
10
35.372
20
65.8359
0
VERTEX
8
CUT
10
37.372
20
69.3
0
VERTEX
8
CUT
10
42.372
20
69.3
0
VERTEX
8
CUT
10
44.372
20
65.8359
0
SEQEND
0
POLYLINE
8
CUT
66
1
70
0
0
VERTEX
8
CUT
10
35.372
20
54.0436
0
VERTEX
8
CUT
10
37.372
20
50.5795
0
VERTEX
8
CUT
10
42.372
20
50.5795
0
VERTEX
8
CUT
10
44.372
20
54.0436
0
SEQEND
0
POLYLINE
8
CUT
66
1
70
0
0
VERTEX
8
CUT
10
35.372
20
55.7756
0
VERTEX
8
CUT
10
37.372
20
59.2397
0
VERTEX
8
CUT
10
42.372
20
59.2397
0
VERTEX
8
CUT
10
44.372
20
55.7756
0
SEQEND
0
POLYLINE
8
CUT
66
1
70
0
0
VERTEX
8
CUT
10
35.372
20
43.9833
0
VERTEX
8
CUT
10
37.372
20
40.5192
0
VERTEX
8
CUT
10
42.372
20
40.5192
0
VERTEX
8
CUT
10
44.372
20
43.9833
0
SEQEND
0
POLYLINE
8
CUT
66
1
70
0
0
VERTEX
8
CUT
10
35.372
20
45.7154
0
VERTEX
8
CUT
10
37.372
20
49.1795
0
VERTEX
8
CUT
10
42.372
20
49.1795
0
VERTEX
8
CUT
10
44.372
20
45.7154
0
SEQEND
0
POLYLINE
8
CUT
66
1
70
0
0
VERTEX
8
CUT
10
35.372
20
33.9231
0
VERTEX
8
CUT
10
37.372
20
30.459
0
VERTEX
8
CUT
10
42.372
20
30.459
0
VERTEX
8
CUT
10
44.372
20
33.9231
0
SEQEND
0
POLYLINE
8
CUT
66
1
70
0
0
VERTEX
8
CUT
10
35.372
20
35.6551
0
VERTEX
8
CUT
10
37.372
20
39.1192
0
VERTEX
8
CUT
10
42.372
20
39.1192
0
VERTEX
8
CUT
10
44.372
20
35.6551
0
SEQEND
0
POLYLINE
8
CUT
66
1
70
0
0
VERTEX
8
CUT
10
35.372
20
23.8628
0
VERTEX
8
CUT
10
37.372
20
20.3987
0
VERTEX
8
CUT
10
42.372
20
20.3987
0
VERTEX
8
CUT
10
44.372
20
23.8628
0
SEQEND
0
POLYLINE
8
CUT
66
1
70
0
0
VERTEX
8
CUT
10
35.372
20
25.5949
0
VERTEX
8
CUT
10
37.372
20
29.059
0
VERTEX
8
CUT
10
42.372
20
29.059
0
VERTEX
8
CUT
10
44.372
20
25.5949
0
SEQEND
0
POLYLINE
8
CUT
66
1
70
0
0
VERTEX
8
CUT
10
35.372
20
13.8026
0
VERTEX
8
CUT
10
37.372
20
10.3385
0
VERTEX
8
CUT
10
42.372
20
10.3385
0
VERTEX
8
CUT
10
44.372
20
13.8026
0
SEQEND
0
POLYLINE
8
CUT
66
1
70
0
0
VERTEX
8
CUT
10
35.372
20
15.5346
0
VERTEX
8
CUT
10
37.372
20
18.9987
0
VERTEX
8
CUT
10
42.372
20
18.9987
0
VERTEX
8
CUT
10
44.372
20
15.5346
0
SEQEND
0
POLYLINE
8
CUT
66
1
70
0
0
VERTEX
8
CUT
10
35.372
20
3.7423
0
VERTEX
8
CUT
10
37.372
20
0.2782
0
VERTEX
8
CUT
10
42.372
20
0.2782
0
VERTEX
8
CUT
10
44.372
20
3.7423
0
SEQEND
0
POLYLINE
8
CUT
66
1
70
0
0
VERTEX
8
CUT
10
35.372
20
5.4744
0
VERTEX
8
CUT
10
37.372
20
8.9385
0
VERTEX
8
CUT
10
42.372
20
8.9385
0
VERTEX
8
CUT
10
44.372
20
5.4744
0
SEQEND
0
POLYLINE
8
CUT
66
1
70
0
0
VERTEX
8
CUT
10
44.09
20
69.134
0
VERTEX
8
CUT
10
46.09
20
65.6699
0
VERTEX
8
CUT
10
51.09
20
65.6699
0
VERTEX
8
CUT
10
53.09
20
69.134
0
SEQEND
0
POLYLINE
8
CUT
66
1
70
0
0
VERTEX
8
CUT
10
44.09
20
59.0737
0
VERTEX
8
CUT
10
46.09
20
55.6096
0
VERTEX
8
CUT
10
51.09
20
55.6096
0
VERTEX
8
CUT
10
53.09
20
59.0737
0
SEQEND
0
POLYLINE
8
CUT
66
1
70
0
0
VERTEX
8
CUT
10
44.09
20
60.8058
0
VERTEX
8
CUT
10
46.09
20
64.2699
0
VERTEX
8
CUT
10
51.09
20
64.2699
0
VERTEX
8
CUT
10
53.09
20
60.8058
0
SEQEND
0
POLYLINE
8
CUT
66
1
70
0
0
VERTEX
8
CUT
10
44.09
20
49.0135
0
VERTEX
8
CUT
10
46.09
20
45.5494
0
VERTEX
8
CUT
10
51.09
20
45.5494
0
VERTEX
8
CUT
10
53.09
20
49.0135
0
SEQEND
0
POLYLINE
8
CUT
66
1
70
0
0
VERTEX
8
CUT
10
44.09
20
50.7455
0
VERTEX
8
CUT
10
46.09
20
54.2096
0
VERTEX
8
CUT
10
51.09
20
54.2096
0
VERTEX
8
CUT
10
53.09
20
50.7455
0
SEQEND
0
POLYLINE
8
CUT
66
1
70
0
0
VERTEX
8
CUT
10
44.09
20
38.9532
0
VERTEX
8
CUT
10
46.09
20
35.4891
0
VERTEX
8
CUT
10
51.09
20
35.4891
0
VERTEX
8
CUT
10
53.09
20
38.9532
0
SEQEND
0
POLYLINE
8
CUT
66
1
70
0
0
VERTEX
8
CUT
10
44.09
20
40.6853
0
VERTEX
8
CUT
10
46.09
20
44.1494
0
VERTEX
8
CUT
10
51.09
20
44.1494
0
VERTEX
8
CUT
10
53.09
20
40.6853
0
SEQEND
0
POLYLINE
8
CUT
66
1
70
0
0
VERTEX
8
CUT
10
44.09
20
28.893
0
VERTEX
8
CUT
10
46.09
20
25.4289
0
VERTEX
8
CUT
10
51.09
20
25.4289
0
VERTEX
8
CUT
10
53.09
20
28.893
0
SEQEND
0
POLYLINE
8
CUT
66
1
70
0
0
VERTEX
8
CUT
10
44.09
20
30.625
0
VERTEX
8
CUT
10
46.09
20
34.0891
0
VERTEX
8
CUT
10
51.09
20
34.0891
0
VERTEX
8
CUT
10
53.09
20
30.625
0
SEQEND
0
POLYLINE
8
CUT
66
1
70
0
0
VERTEX
8
CUT
10
44.09
20
18.8327
0
VERTEX
8
CUT
10
46.09
20
15.3686
0
VERTEX
8
CUT
10
51.09
20
15.3686
0
VERTEX
8
CUT
10
53.09
20
18.8327
0
SEQEND
0
POLYLINE
8
CUT
66
1
70
0
0
VERTEX
8
CUT
10
44.09
20
20.5648
0
VERTEX
8
CUT
10
46.09
20
24.0289
0
VERTEX
8
CUT
10
51.09
20
24.0289
0
VERTEX
8
CUT
10
53.09
20
20.5648
0
SEQEND
0
POLYLINE
8
CUT
66
1
70
0
0
VERTEX
8
CUT
10
44.09
20
8.7725
0
VERTEX
8
CUT
10
46.09
20
5.3083
0
VERTEX
8
CUT
10
51.09
20
5.3083
0
VERTEX
8
CUT
10
53.09
20
8.7725
0
SEQEND
0
POLYLINE
8
CUT
66
1
70
0
0
VERTEX
8
CUT
10
44.09
20
10.5045
0
VERTEX
8
CUT
10
46.09
20
13.9686
0
VERTEX
8
CUT
10
51.09
20
13.9686
0
VERTEX
8
CUT
10
53.09
20
10.5045
0
SEQEND
0
POLYLINE
8
CUT
66
1
70
0
0
VERTEX
8
CUT
10
44.09
20
0.4442
0
VERTEX
8
CUT
10
46.09
20
3.9083
0
VERTEX
8
CUT
10
51.09
20
3.9083
0
VERTEX
8
CUT
10
53.09
20
0.4442
0
SEQEND
0
POLYLINE
8
CUT
66
1
70
0
0
VERTEX
8
CUT
10
52.808
20
64.1038
0
VERTEX
8
CUT
10
54.808
20
60.6397
0
VERTEX
8
CUT
10
59.808
20
60.6397
0
VERTEX
8
CUT
10
61.808
20
64.1038
0
SEQEND
0
POLYLINE
8
CUT
66
1
70
0
0
VERTEX
8
CUT
10
52.808
20
65.8359
0
VERTEX
8
CUT
10
54.808
20
69.3
0
VERTEX
8
CUT
10
59.808
20
69.3
0
VERTEX
8
CUT
10
61.808
20
65.8359
0
SEQEND
0
POLYLINE
8
CUT
66
1
70
0
0
VERTEX
8
CUT
10
52.808
20
54.0436
0
VERTEX
8
CUT
10
54.808
20
50.5795
0
VERTEX
8
CUT
10
59.808
20
50.5795
0
VERTEX
8
CUT
10
61.808
20
54.0436
0
SEQEND
0
POLYLINE
8
CUT
66
1
70
0
0
VERTEX
8
CUT
10
52.808
20
55.7756
0
VERTEX
8
CUT
10
54.808
20
59.2397
0
VERTEX
8
CUT
10
59.808
20
59.2397
0
VERTEX
8
CUT
10
61.808
20
55.7756
0
SEQEND
0
POLYLINE
8
CUT
66
1
70
0
0
VERTEX
8
CUT
10
52.808
20
43.9833
0
VERTEX
8
CUT
10
54.808
20
40.5192
0
VERTEX
8
CUT
10
59.808
20
40.5192
0
VERTEX
8
CUT
10
61.808
20
43.9833
0
SEQEND
0
POLYLINE
8
CUT
66
1
70
0
0
VERTEX
8
CUT
10
52.808
20
45.7154
0
VERTEX
8
CUT
10
54.808
20
49.1795
0
VERTEX
8
CUT
10
59.808
20
49.1795
0
VERTEX
8
CUT
10
61.808
20
45.7154
0
SEQEND
0
POLYLINE
8
CUT
66
1
70
0
0
VERTEX
8
CUT
10
52.808
20
33.9231
0
VERTEX
8
CUT
10
54.808
20
30.459
0
VERTEX
8
CUT
10
59.808
20
30.459
0
VERTEX
8
CUT
10
61.808
20
33.9231
0
SEQEND
0
POLYLINE
8
CUT
66
1
70
0
0
VERTEX
8
CUT
10
52.808
20
35.6551
0
VERTEX
8
CUT
10
54.808
20
39.1192
0
VERTEX
8
CUT
10
59.808
20
39.1192
0
VERTEX
8
CUT
10
61.808
20
35.6551
0
SEQEND
0
POLYLINE
8
CUT
66
1
70
0
0
VERTEX
8
CUT
10
52.808
20
23.8628
0
VERTEX
8
CUT
10
54.808
20
20.3987
0
VERTEX
8
CUT
10
59.808
20
20.3987
0
VERTEX
8
CUT
10
61.808
20
23.8628
0
SEQEND
0
POLYLINE
8
CUT
66
1
70
0
0
VERTEX
8
CUT
10
52.808
20
25.5949
0
VERTEX
8
CUT
10
54.808
20
29.059
0
VERTEX
8
CUT
10
59.808
20
29.059
0
VERTEX
8
CUT
10
61.808
20
25.5949
0
SEQEND
0
POLYLINE
8
CUT
66
1
70
0
0
VERTEX
8
CUT
10
52.808
20
13.8026
0
VERTEX
8
CUT
10
54.808
20
10.3385
0
VERTEX
8
CUT
10
59.808
20
10.3385
0
VERTEX
8
CUT
10
61.808
20
13.8026
0
SEQEND
0
POLYLINE
8
CUT
66
1
70
0
0
VERTEX
8
CUT
10
52.808
20
15.5346
0
VERTEX
8
CUT
10
54.808
20
18.9987
0
VERTEX
8
CUT
10
59.808
20
18.9987
0
VERTEX
8
CUT
10
61.808
20
15.5346
0
SEQEND
0
POLYLINE
8
CUT
66
1
70
0
0
VERTEX
8
CUT
10
52.808
20
3.7423
0
VERTEX
8
CUT
10
54.808
20
0.2782
0
VERTEX
8
CUT
10
59.808
20
0.2782
0
VERTEX
8
CUT
10
61.808
20
3.7423
0
SEQEND
0
POLYLINE
8
CUT
66
1
70
0
0
VERTEX
8
CUT
10
52.808
20
5.4744
0
VERTEX
8
CUT
10
54.808
20
8.9385
0
VERTEX
8
CUT
10
59.808
20
8.9385
0
VERTEX
8
CUT
10
61.808
20
5.4744
0
SEQEND
0
POLYLINE
8
CUT
66
1
70
0
0
VERTEX
8
CUT
10
61.526
20
69.134
0
VERTEX
8
CUT
10
63.526
20
65.6699
0
VERTEX
8
CUT
10
68.526
20
65.6699
0
VERTEX
8
CUT
10
70.526
20
69.134
0
SEQEND
0
POLYLINE
8
CUT
66
1
70
0
0
VERTEX
8
CUT
10
61.526
20
59.0737
0
VERTEX
8
CUT
10
63.526
20
55.6096
0
VERTEX
8
CUT
10
68.526
20
55.6096
0
VERTEX
8
CUT
10
70.526
20
59.0737
0
SEQEND
0
POLYLINE
8
CUT
66
1
70
0
0
VERTEX
8
CUT
10
61.526
20
60.8058
0
VERTEX
8
CUT
10
63.526
20
64.2699
0
VERTEX
8
CUT
10
68.526
20
64.2699
0
VERTEX
8
CUT
10
70.526
20
60.8058
0
SEQEND
0
POLYLINE
8
CUT
66
1
70
0
0
VERTEX
8
CUT
10
61.526
20
49.0135
0
VERTEX
8
CUT
10
63.526
20
45.5494
0
VERTEX
8
CUT
10
68.526
20
45.5494
0
VERTEX
8
CUT
10
70.526
20
49.0135
0
SEQEND
0
POLYLINE
8
CUT
66
1
70
0
0
VERTEX
8
CUT
10
61.526
20
50.7455
0
VERTEX
8
CUT
10
63.526
20
54.2096
0
VERTEX
8
CUT
10
68.526
20
54.2096
0
VERTEX
8
CUT
10
70.526
20
50.7455
0
SEQEND
0
POLYLINE
8
CUT
66
1
70
0
0
VERTEX
8
CUT
10
61.526
20
38.9532
0
VERTEX
8
CUT
10
63.526
20
35.4891
0
VERTEX
8
CUT
10
68.526
20
35.4891
0
VERTEX
8
CUT
10
70.526
20
38.9532
0
SEQEND
0
POLYLINE
8
CUT
66
1
70
0
0
VERTEX
8
CUT
10
61.526
20
40.6853
0
VERTEX
8
CUT
10
63.526
20
44.1494
0
VERTEX
8
CUT
10
68.526
20
44.1494
0
VERTEX
8
CUT
10
70.526
20
40.6853
0
SEQEND
0
POLYLINE
8
CUT
66
1
70
0
0
VERTEX
8
CUT
10
61.526
20
28.893
0
VERTEX
8
CUT
10
63.526
20
25.4289
0
VERTEX
8
CUT
10
68.526
20
25.4289
0
VERTEX
8
CUT
10
70.526
20
28.893
0
SEQEND
0
POLYLINE
8
CUT
66
1
70
0
0
VERTEX
8
CUT
10
61.526
20
30.625
0
VERTEX
8
CUT
10
63.526
20
34.0891
0
VERTEX
8
CUT
10
68.526
20
34.0891
0
VERTEX
8
CUT
10
70.526
20
30.625
0
SEQEND
0
POLYLINE
8
CUT
66
1
70
0
0
VERTEX
8
CUT
10
61.526
20
18.8327
0
VERTEX
8
CUT
10
63.526
20
15.3686
0
VERTEX
8
CUT
10
68.526
20
15.3686
0
VERTEX
8
CUT
10
70.526
20
18.8327
0
SEQEND
0
POLYLINE
8
CUT
66
1
70
0
0
VERTEX
8
CUT
10
61.526
20
20.5648
0
VERTEX
8
CUT
10
63.526
20
24.0289
0
VERTEX
8
CUT
10
68.526
20
24.0289
0
VERTEX
8
CUT
10
70.526
20
20.5648
0
SEQEND
0
POLYLINE
8
CUT
66
1
70
0
0
VERTEX
8
CUT
10
61.526
20
8.7725
0
VERTEX
8
CUT
10
63.526
20
5.3083
0
VERTEX
8
CUT
10
68.526
20
5.3083
0
VERTEX
8
CUT
10
70.526
20
8.7725
0
SEQEND
0
POLYLINE
8
CUT
66
1
70
0
0
VERTEX
8
CUT
10
61.526
20
10.5045
0
VERTEX
8
CUT
10
63.526
20
13.9686
0
VERTEX
8
CUT
10
68.526
20
13.9686
0
VERTEX
8
CUT
10
70.526
20
10.5045
0
SEQEND
0
POLYLINE
8
CUT
66
1
70
0
0
VERTEX
8
CUT
10
61.526
20
0.4442
0
VERTEX
8
CUT
10
63.526
20
3.9083
0
VERTEX
8
CUT
10
68.526
20
3.9083
0
VERTEX
8
CUT
10
70.526
20
0.4442
0
SEQEND
0
POLYLINE
8
CUT
66
1
70
0
0
VERTEX
8
CUT
10
70.244
20
64.1038
0
VERTEX
8
CUT
10
72.244
20
60.6397
0
VERTEX
8
CUT
10
77.244
20
60.6397
0
VERTEX
8
CUT
10
79.244
20
64.1038
0
SEQEND
0
POLYLINE
8
CUT
66
1
70
0
0
VERTEX
8
CUT
10
70.244
20
65.8359
0
VERTEX
8
CUT
10
72.244
20
69.3
0
VERTEX
8
CUT
10
77.244
20
69.3
0
VERTEX
8
CUT
10
79.244
20
65.8359
0
SEQEND
0
POLYLINE
8
CUT
66
1
70
0
0
VERTEX
8
CUT
10
70.244
20
54.0436
0
VERTEX
8
CUT
10
72.244
20
50.5795
0
VERTEX
8
CUT
10
77.244
20
50.5795
0
VERTEX
8
CUT
10
79.244
20
54.0436
0
SEQEND
0
POLYLINE
8
CUT
66
1
70
0
0
VERTEX
8
CUT
10
70.244
20
55.7756
0
VERTEX
8
CUT
10
72.244
20
59.2397
0
VERTEX
8
CUT
10
77.244
20
59.2397
0
VERTEX
8
CUT
10
79.244
20
55.7756
0
SEQEND
0
POLYLINE
8
CUT
66
1
70
0
0
VERTEX
8
CUT
10
70.244
20
43.9833
0
VERTEX
8
CUT
10
72.244
20
40.5192
0
VERTEX
8
CUT
10
77.244
20
40.5192
0
VERTEX
8
CUT
10
79.244
20
43.9833
0
SEQEND
0
POLYLINE
8
CUT
66
1
70
0
0
VERTEX
8
CUT
10
70.244
20
45.7154
0
VERTEX
8
CUT
10
72.244
20
49.1795
0
VERTEX
8
CUT
10
77.244
20
49.1795
0
VERTEX
8
CUT
10
79.244
20
45.7154
0
SEQEND
0
POLYLINE
8
CUT
66
1
70
0
0
VERTEX
8
CUT
10
70.244
20
33.9231
0
VERTEX
8
CUT
10
72.244
20
30.459
0
VERTEX
8
CUT
10
77.244
20
30.459
0
VERTEX
8
CUT
10
79.244
20
33.9231
0
SEQEND
0
POLYLINE
8
CUT
66
1
70
0
0
VERTEX
8
CUT
10
70.244
20
35.6551
0
VERTEX
8
CUT
10
72.244
20
39.1192
0
VERTEX
8
CUT
10
77.244
20
39.1192
0
VERTEX
8
CUT
10
79.244
20
35.6551
0
SEQEND
0
POLYLINE
8
CUT
66
1
70
0
0
VERTEX
8
CUT
10
70.244
20
23.8628
0
VERTEX
8
CUT
10
72.244
20
20.3987
0
VERTEX
8
CUT
10
77.244
20
20.3987
0
VERTEX
8
CUT
10
79.244
20
23.8628
0
SEQEND
0
POLYLINE
8
CUT
66
1
70
0
0
VERTEX
8
CUT
10
70.244
20
25.5949
0
VERTEX
8
CUT
10
72.244
20
29.059
0
VERTEX
8
CUT
10
77.244
20
29.059
0
VERTEX
8
CUT
10
79.244
20
25.5949
0
SEQEND
0
POLYLINE
8
CUT
66
1
70
0
0
VERTEX
8
CUT
10
70.244
20
13.8026
0
VERTEX
8
CUT
10
72.244
20
10.3385
0
VERTEX
8
CUT
10
77.244
20
10.3385
0
VERTEX
8
CUT
10
79.244
20
13.8026
0
SEQEND
0
POLYLINE
8
CUT
66
1
70
0
0
VERTEX
8
CUT
10
70.244
20
15.5346
0
VERTEX
8
CUT
10
72.244
20
18.9987
0
VERTEX
8
CUT
10
77.244
20
18.9987
0
VERTEX
8
CUT
10
79.244
20
15.5346
0
SEQEND
0
POLYLINE
8
CUT
66
1
70
0
0
VERTEX
8
CUT
10
70.244
20
3.7423
0
VERTEX
8
CUT
10
72.244
20
0.2782
0
VERTEX
8
CUT
10
77.244
20
0.2782
0
VERTEX
8
CUT
10
79.244
20
3.7423
0
SEQEND
0
POLYLINE
8
CUT
66
1
70
0
0
VERTEX
8
CUT
10
70.244
20
5.4744
0
VERTEX
8
CUT
10
72.244
20
8.9385
0
VERTEX
8
CUT
10
77.244
20
8.9385
0
VERTEX
8
CUT
10
79.244
20
5.4744
0
SEQEND
0
POLYLINE
8
CUT
66
1
70
0
0
VERTEX
8
CUT
10
78.962
20
69.134
0
VERTEX
8
CUT
10
80.962
20
65.6699
0
VERTEX
8
CUT
10
85.962
20
65.6699
0
VERTEX
8
CUT
10
87.962
20
69.134
0
SEQEND
0
POLYLINE
8
CUT
66
1
70
0
0
VERTEX
8
CUT
10
78.962
20
59.0737
0
VERTEX
8
CUT
10
80.962
20
55.6096
0
VERTEX
8
CUT
10
85.962
20
55.6096
0
VERTEX
8
CUT
10
87.962
20
59.0737
0
SEQEND
0
POLYLINE
8
CUT
66
1
70
0
0
VERTEX
8
CUT
10
78.962
20
60.8058
0
VERTEX
8
CUT
10
80.962
20
64.2699
0
VERTEX
8
CUT
10
85.962
20
64.2699
0
VERTEX
8
CUT
10
87.962
20
60.8058
0
SEQEND
0
POLYLINE
8
CUT
66
1
70
0
0
VERTEX
8
CUT
10
78.962
20
49.0135
0
VERTEX
8
CUT
10
80.962
20
45.5494
0
VERTEX
8
CUT
10
85.962
20
45.5494
0
VERTEX
8
CUT
10
87.962
20
49.0135
0
SEQEND
0
POLYLINE
8
CUT
66
1
70
0
0
VERTEX
8
CUT
10
78.962
20
50.7455
0
VERTEX
8
CUT
10
80.962
20
54.2096
0
VERTEX
8
CUT
10
85.962
20
54.2096
0
VERTEX
8
CUT
10
87.962
20
50.7455
0
SEQEND
0
POLYLINE
8
CUT
66
1
70
0
0
VERTEX
8
CUT
10
78.962
20
38.9532
0
VERTEX
8
CUT
10
80.962
20
35.4891
0
VERTEX
8
CUT
10
85.962
20
35.4891
0
VERTEX
8
CUT
10
87.962
20
38.9532
0
SEQEND
0
POLYLINE
8
CUT
66
1
70
0
0
VERTEX
8
CUT
10
78.962
20
40.6853
0
VERTEX
8
CUT
10
80.962
20
44.1494
0
VERTEX
8
CUT
10
85.962
20
44.1494
0
VERTEX
8
CUT
10
87.962
20
40.6853
0
SEQEND
0
POLYLINE
8
CUT
66
1
70
0
0
VERTEX
8
CUT
10
78.962
20
28.893
0
VERTEX
8
CUT
10
80.962
20
25.4289
0
VERTEX
8
CUT
10
85.962
20
25.4289
0
VERTEX
8
CUT
10
87.962
20
28.893
0
SEQEND
0
POLYLINE
8
CUT
66
1
70
0
0
VERTEX
8
CUT
10
78.962
20
30.625
0
VERTEX
8
CUT
10
80.962
20
34.0891
0
VERTEX
8
CUT
10
85.962
20
34.0891
0
VERTEX
8
CUT
10
87.962
20
30.625
0
SEQEND
0
POLYLINE
8
CUT
66
1
70
0
0
VERTEX
8
CUT
10
78.962
20
18.8327
0
VERTEX
8
CUT
10
80.962
20
15.3686
0
VERTEX
8
CUT
10
85.962
20
15.3686
0
VERTEX
8
CUT
10
87.962
20
18.8327
0
SEQEND
0
POLYLINE
8
CUT
66
1
70
0
0
VERTEX
8
CUT
10
78.962
20
20.5648
0
VERTEX
8
CUT
10
80.962
20
24.0289
0
VERTEX
8
CUT
10
85.962
20
24.0289
0
VERTEX
8
CUT
10
87.962
20
20.5648
0
SEQEND
0
POLYLINE
8
CUT
66
1
70
0
0
VERTEX
8
CUT
10
78.962
20
8.7725
0
VERTEX
8
CUT
10
80.962
20
5.3083
0
VERTEX
8
CUT
10
85.962
20
5.3083
0
VERTEX
8
CUT
10
87.962
20
8.7725
0
SEQEND
0
POLYLINE
8
CUT
66
1
70
0
0
VERTEX
8
CUT
10
78.962
20
10.5045
0
VERTEX
8
CUT
10
80.962
20
13.9686
0
VERTEX
8
CUT
10
85.962
20
13.9686
0
VERTEX
8
CUT
10
87.962
20
10.5045
0
SEQEND
0
POLYLINE
8
CUT
66
1
70
0
0
VERTEX
8
CUT
10
78.962
20
0.4442
0
VERTEX
8
CUT
10
80.962
20
3.9083
0
VERTEX
8
CUT
10
85.962
20
3.9083
0
VERTEX
8
CUT
10
87.962
20
0.4442
0
SEQEND
0
POLYLINE
8
CUT
66
1
70
0
0
VERTEX
8
CUT
10
87.68
20
64.1038
0
VERTEX
8
CUT
10
89.68
20
60.6397
0
VERTEX
8
CUT
10
94.68
20
60.6397
0
VERTEX
8
CUT
10
96.68
20
64.1038
0
SEQEND
0
POLYLINE
8
CUT
66
1
70
0
0
VERTEX
8
CUT
10
87.68
20
65.8359
0
VERTEX
8
CUT
10
89.68
20
69.3
0
VERTEX
8
CUT
10
94.68
20
69.3
0
VERTEX
8
CUT
10
96.68
20
65.8359
0
SEQEND
0
POLYLINE
8
CUT
66
1
70
0
0
VERTEX
8
CUT
10
87.68
20
54.0436
0
VERTEX
8
CUT
10
89.68
20
50.5795
0
VERTEX
8
CUT
10
94.68
20
50.5795
0
VERTEX
8
CUT
10
96.68
20
54.0436
0
SEQEND
0
POLYLINE
8
CUT
66
1
70
0
0
VERTEX
8
CUT
10
87.68
20
55.7756
0
VERTEX
8
CUT
10
89.68
20
59.2397
0
VERTEX
8
CUT
10
94.68
20
59.2397
0
VERTEX
8
CUT
10
96.68
20
55.7756
0
SEQEND
0
POLYLINE
8
CUT
66
1
70
0
0
VERTEX
8
CUT
10
87.68
20
43.9833
0
VERTEX
8
CUT
10
89.68
20
40.5192
0
VERTEX
8
CUT
10
94.68
20
40.5192
0
VERTEX
8
CUT
10
96.68
20
43.9833
0
SEQEND
0
POLYLINE
8
CUT
66
1
70
0
0
VERTEX
8
CUT
10
87.68
20
45.7154
0
VERTEX
8
CUT
10
89.68
20
49.1795
0
VERTEX
8
CUT
10
94.68
20
49.1795
0
VERTEX
8
CUT
10
96.68
20
45.7154
0
SEQEND
0
POLYLINE
8
CUT
66
1
70
0
0
VERTEX
8
CUT
10
87.68
20
33.9231
0
VERTEX
8
CUT
10
89.68
20
30.459
0
VERTEX
8
CUT
10
94.68
20
30.459
0
VERTEX
8
CUT
10
96.68
20
33.9231
0
SEQEND
0
POLYLINE
8
CUT
66
1
70
0
0
VERTEX
8
CUT
10
87.68
20
35.6551
0
VERTEX
8
CUT
10
89.68
20
39.1192
0
VERTEX
8
CUT
10
94.68
20
39.1192
0
VERTEX
8
CUT
10
96.68
20
35.6551
0
SEQEND
0
POLYLINE
8
CUT
66
1
70
0
0
VERTEX
8
CUT
10
87.68
20
23.8628
0
VERTEX
8
CUT
10
89.68
20
20.3987
0
VERTEX
8
CUT
10
94.68
20
20.3987
0
VERTEX
8
CUT
10
96.68
20
23.8628
0
SEQEND
0
POLYLINE
8
CUT
66
1
70
0
0
VERTEX
8
CUT
10
87.68
20
25.5949
0
VERTEX
8
CUT
10
89.68
20
29.059
0
VERTEX
8
CUT
10
94.68
20
29.059
0
VERTEX
8
CUT
10
96.68
20
25.5949
0
SEQEND
0
POLYLINE
8
CUT
66
1
70
0
0
VERTEX
8
CUT
10
87.68
20
13.8026
0
VERTEX
8
CUT
10
89.68
20
10.3385
0
VERTEX
8
CUT
10
94.68
20
10.3385
0
VERTEX
8
CUT
10
96.68
20
13.8026
0
SEQEND
0
POLYLINE
8
CUT
66
1
70
0
0
VERTEX
8
CUT
10
87.68
20
15.5346
0
VERTEX
8
CUT
10
89.68
20
18.9987
0
VERTEX
8
CUT
10
94.68
20
18.9987
0
VERTEX
8
CUT
10
96.68
20
15.5346
0
SEQEND
0
POLYLINE
8
CUT
66
1
70
0
0
VERTEX
8
CUT
10
87.68
20
3.7423
0
VERTEX
8
CUT
10
89.68
20
0.2782
0
VERTEX
8
CUT
10
94.68
20
0.2782
0
VERTEX
8
CUT
10
96.68
20
3.7423
0
SEQEND
0
POLYLINE
8
CUT
66
1
70
0
0
VERTEX
8
CUT
10
87.68
20
5.4744
0
VERTEX
8
CUT
10
89.68
20
8.9385
0
VERTEX
8
CUT
10
94.68
20
8.9385
0
VERTEX
8
CUT
10
96.68
20
5.4744
0
SEQEND
0
POLYLINE
8
CUT
66
1
70
0
0
VERTEX
8
CUT
10
96.398
20
69.134
0
VERTEX
8
CUT
10
98.398
20
65.6699
0
VERTEX
8
CUT
10
103.398
20
65.6699
0
VERTEX
8
CUT
10
105.398
20
69.134
0
SEQEND
0
POLYLINE
8
CUT
66
1
70
0
0
VERTEX
8
CUT
10
96.398
20
59.0737
0
VERTEX
8
CUT
10
98.398
20
55.6096
0
VERTEX
8
CUT
10
103.398
20
55.6096
0
VERTEX
8
CUT
10
105.398
20
59.0737
0
SEQEND
0
POLYLINE
8
CUT
66
1
70
0
0
VERTEX
8
CUT
10
96.398
20
60.8058
0
VERTEX
8
CUT
10
98.398
20
64.2699
0
VERTEX
8
CUT
10
103.398
20
64.2699
0
VERTEX
8
CUT
10
105.398
20
60.8058
0
SEQEND
0
POLYLINE
8
CUT
66
1
70
0
0
VERTEX
8
CUT
10
96.398
20
49.0135
0
VERTEX
8
CUT
10
98.398
20
45.5494
0
VERTEX
8
CUT
10
103.398
20
45.5494
0
VERTEX
8
CUT
10
105.398
20
49.0135
0
SEQEND
0
POLYLINE
8
CUT
66
1
70
0
0
VERTEX
8
CUT
10
96.398
20
50.7455
0
VERTEX
8
CUT
10
98.398
20
54.2096
0
VERTEX
8
CUT
10
103.398
20
54.2096
0
VERTEX
8
CUT
10
105.398
20
50.7455
0
SEQEND
0
POLYLINE
8
CUT
66
1
70
0
0
VERTEX
8
CUT
10
96.398
20
38.9532
0
VERTEX
8
CUT
10
98.398
20
35.4891
0
VERTEX
8
CUT
10
103.398
20
35.4891
0
VERTEX
8
CUT
10
105.398
20
38.9532
0
SEQEND
0
POLYLINE
8
CUT
66
1
70
0
0
VERTEX
8
CUT
10
96.398
20
40.6853
0
VERTEX
8
CUT
10
98.398
20
44.1494
0
VERTEX
8
CUT
10
103.398
20
44.1494
0
VERTEX
8
CUT
10
105.398
20
40.6853
0
SEQEND
0
POLYLINE
8
CUT
66
1
70
0
0
VERTEX
8
CUT
10
96.398
20
28.893
0
VERTEX
8
CUT
10
98.398
20
25.4289
0
VERTEX
8
CUT
10
103.398
20
25.4289
0
VERTEX
8
CUT
10
105.398
20
28.893
0
SEQEND
0
POLYLINE
8
CUT
66
1
70
0
0
VERTEX
8
CUT
10
96.398
20
30.625
0
VERTEX
8
CUT
10
98.398
20
34.0891
0
VERTEX
8
CUT
10
103.398
20
34.0891
0
VERTEX
8
CUT
10
105.398
20
30.625
0
SEQEND
0
POLYLINE
8
CUT
66
1
70
0
0
VERTEX
8
CUT
10
96.398
20
18.8327
0
VERTEX
8
CUT
10
98.398
20
15.3686
0
VERTEX
8
CUT
10
103.398
20
15.3686
0
VERTEX
8
CUT
10
105.398
20
18.8327
0
SEQEND
0
POLYLINE
8
CUT
66
1
70
0
0
VERTEX
8
CUT
10
96.398
20
20.5648
0
VERTEX
8
CUT
10
98.398
20
24.0289
0
VERTEX
8
CUT
10
103.398
20
24.0289
0
VERTEX
8
CUT
10
105.398
20
20.5648
0
SEQEND
0
POLYLINE
8
CUT
66
1
70
0
0
VERTEX
8
CUT
10
96.398
20
8.7725
0
VERTEX
8
CUT
10
98.398
20
5.3083
0
VERTEX
8
CUT
10
103.398
20
5.3083
0
VERTEX
8
CUT
10
105.398
20
8.7725
0
SEQEND
0
POLYLINE
8
CUT
66
1
70
0
0
VERTEX
8
CUT
10
96.398
20
10.5045
0
VERTEX
8
CUT
10
98.398
20
13.9686
0
VERTEX
8
CUT
10
103.398
20
13.9686
0
VERTEX
8
CUT
10
105.398
20
10.5045
0
SEQEND
0
POLYLINE
8
CUT
66
1
70
0
0
VERTEX
8
CUT
10
96.398
20
0.4442
0
VERTEX
8
CUT
10
98.398
20
3.9083
0
VERTEX
8
CUT
10
103.398
20
3.9083
0
VERTEX
8
CUT
10
105.398
20
0.4442
0
SEQEND
0
POLYLINE
8
CUT
66
1
70
0
0
VERTEX
8
CUT
10
105.116
20
64.1038
0
VERTEX
8
CUT
10
107.116
20
60.6397
0
VERTEX
8
CUT
10
112.116
20
60.6397
0
VERTEX
8
CUT
10
114.116
20
64.1038
0
SEQEND
0
POLYLINE
8
CUT
66
1
70
0
0
VERTEX
8
CUT
10
105.116
20
65.8359
0
VERTEX
8
CUT
10
107.116
20
69.3
0
VERTEX
8
CUT
10
112.116
20
69.3
0
VERTEX
8
CUT
10
114.116
20
65.8359
0
SEQEND
0
POLYLINE
8
CUT
66
1
70
0
0
VERTEX
8
CUT
10
105.116
20
54.0436
0
VERTEX
8
CUT
10
107.116
20
50.5795
0
VERTEX
8
CUT
10
112.116
20
50.5795
0
VERTEX
8
CUT
10
114.116
20
54.0436
0
SEQEND
0
POLYLINE
8
CUT
66
1
70
0
0
VERTEX
8
CUT
10
105.116
20
55.7756
0
VERTEX
8
CUT
10
107.116
20
59.2397
0
VERTEX
8
CUT
10
112.116
20
59.2397
0
VERTEX
8
CUT
10
114.116
20
55.7756
0
SEQEND
0
POLYLINE
8
CUT
66
1
70
0
0
VERTEX
8
CUT
10
105.116
20
43.9833
0
VERTEX
8
CUT
10
107.116
20
40.5192
0
VERTEX
8
CUT
10
112.116
20
40.5192
0
VERTEX
8
CUT
10
114.116
20
43.9833
0
SEQEND
0
POLYLINE
8
CUT
66
1
70
0
0
VERTEX
8
CUT
10
105.116
20
45.7154
0
VERTEX
8
CUT
10
107.116
20
49.1795
0
VERTEX
8
CUT
10
112.116
20
49.1795
0
VERTEX
8
CUT
10
114.116
20
45.7154
0
SEQEND
0
POLYLINE
8
CUT
66
1
70
0
0
VERTEX
8
CUT
10
105.116
20
33.9231
0
VERTEX
8
CUT
10
107.116
20
30.459
0
VERTEX
8
CUT
10
112.116
20
30.459
0
VERTEX
8
CUT
10
114.116
20
33.9231
0
SEQEND
0
POLYLINE
8
CUT
66
1
70
0
0
VERTEX
8
CUT
10
105.116
20
35.6551
0
VERTEX
8
CUT
10
107.116
20
39.1192
0
VERTEX
8
CUT
10
112.116
20
39.1192
0
VERTEX
8
CUT
10
114.116
20
35.6551
0
SEQEND
0
POLYLINE
8
CUT
66
1
70
0
0
VERTEX
8
CUT
10
105.116
20
23.8628
0
VERTEX
8
CUT
10
107.116
20
20.3987
0
VERTEX
8
CUT
10
112.116
20
20.3987
0
VERTEX
8
CUT
10
114.116
20
23.8628
0
SEQEND
0
POLYLINE
8
CUT
66
1
70
0
0
VERTEX
8
CUT
10
105.116
20
25.5949
0
VERTEX
8
CUT
10
107.116
20
29.059
0
VERTEX
8
CUT
10
112.116
20
29.059
0
VERTEX
8
CUT
10
114.116
20
25.5949
0
SEQEND
0
POLYLINE
8
CUT
66
1
70
0
0
VERTEX
8
CUT
10
105.116
20
13.8026
0
VERTEX
8
CUT
10
107.116
20
10.3385
0
VERTEX
8
CUT
10
112.116
20
10.3385
0
VERTEX
8
CUT
10
114.116
20
13.8026
0
SEQEND
0
POLYLINE
8
CUT
66
1
70
0
0
VERTEX
8
CUT
10
105.116
20
15.5346
0
VERTEX
8
CUT
10
107.116
20
18.9987
0
VERTEX
8
CUT
10
112.116
20
18.9987
0
VERTEX
8
CUT
10
114.116
20
15.5346
0
SEQEND
0
POLYLINE
8
CUT
66
1
70
0
0
VERTEX
8
CUT
10
105.116
20
3.7423
0
VERTEX
8
CUT
10
107.116
20
0.2782
0
VERTEX
8
CUT
10
112.116
20
0.2782
0
VERTEX
8
CUT
10
114.116
20
3.7423
0
SEQEND
0
POLYLINE
8
CUT
66
1
70
0
0
VERTEX
8
CUT
10
105.116
20
5.4744
0
VERTEX
8
CUT
10
107.116
20
8.9385
0
VERTEX
8
CUT
10
112.116
20
8.9385
0
VERTEX
8
CUT
10
114.116
20
5.4744
0
SEQEND
0
POLYLINE
8
CUT
66
1
70
0
0
VERTEX
8
CUT
10
113.834
20
69.134
0
VERTEX
8
CUT
10
115.834
20
65.6699
0
VERTEX
8
CUT
10
120
20
65.6699
0
SEQEND
0
POLYLINE
8
CUT
66
1
70
0
0
VERTEX
8
CUT
10
113.834
20
59.0737
0
VERTEX
8
CUT
10
115.834
20
55.6096
0
VERTEX
8
CUT
10
120
20
55.6096
0
SEQEND
0
POLYLINE
8
CUT
66
1
70
0
0
VERTEX
8
CUT
10
113.834
20
60.8058
0
VERTEX
8
CUT
10
115.834
20
64.2699
0
VERTEX
8
CUT
10
120
20
64.2699
0
SEQEND
0
POLYLINE
8
CUT
66
1
70
0
0
VERTEX
8
CUT
10
113.834
20
49.0135
0
VERTEX
8
CUT
10
115.834
20
45.5494
0
VERTEX
8
CUT
10
120
20
45.5494
0
SEQEND
0
POLYLINE
8
CUT
66
1
70
0
0
VERTEX
8
CUT
10
113.834
20
50.7455
0
VERTEX
8
CUT
10
115.834
20
54.2096
0
VERTEX
8
CUT
10
120
20
54.2096
0
SEQEND
0
POLYLINE
8
CUT
66
1
70
0
0
VERTEX
8
CUT
10
113.834
20
38.9532
0
VERTEX
8
CUT
10
115.834
20
35.4891
0
VERTEX
8
CUT
10
120
20
35.4891
0
SEQEND
0
POLYLINE
8
CUT
66
1
70
0
0
VERTEX
8
CUT
10
113.834
20
40.6853
0
VERTEX
8
CUT
10
115.834
20
44.1494
0
VERTEX
8
CUT
10
120
20
44.1494
0
SEQEND
0
POLYLINE
8
CUT
66
1
70
0
0
VERTEX
8
CUT
10
113.834
20
28.893
0
VERTEX
8
CUT
10
115.834
20
25.4289
0
VERTEX
8
CUT
10
120
20
25.4289
0
SEQEND
0
POLYLINE
8
CUT
66
1
70
0
0
VERTEX
8
CUT
10
113.834
20
30.625
0
VERTEX
8
CUT
10
115.834
20
34.0891
0
VERTEX
8
CUT
10
120
20
34.0891
0
SEQEND
0
POLYLINE
8
CUT
66
1
70
0
0
VERTEX
8
CUT
10
113.834
20
18.8327
0
VERTEX
8
CUT
10
115.834
20
15.3686
0
VERTEX
8
CUT
10
120
20
15.3686
0
SEQEND
0
POLYLINE
8
CUT
66
1
70
0
0
VERTEX
8
CUT
10
113.834
20
20.5648
0
VERTEX
8
CUT
10
115.834
20
24.0289
0
VERTEX
8
CUT
10
120
20
24.0289
0
SEQEND
0
POLYLINE
8
CUT
66
1
70
0
0
VERTEX
8
CUT
10
113.834
20
8.7725
0
VERTEX
8
CUT
10
115.834
20
5.3083
0
VERTEX
8
CUT
10
120
20
5.3083
0
SEQEND
0
POLYLINE
8
CUT
66
1
70
0
0
VERTEX
8
CUT
10
113.834
20
10.5045
0
VERTEX
8
CUT
10
115.834
20
13.9686
0
VERTEX
8
CUT
10
120
20
13.9686
0
SEQEND
0
POLYLINE
8
CUT
66
1
70
0
0
VERTEX
8
CUT
10
113.834
20
0.4442
0
VERTEX
8
CUT
10
115.834
20
3.9083
0
VERTEX
8
CUT
10
120
20
3.9083
0
SEQEND
0
POLYLINE
8
CUT
66
1
70
0
0
VERTEX
8
CUT
10
0
20
70
0
VERTEX
8
CUT
10
120
20
70
0
VERTEX
8
CUT
10
120
20
0
0
VERTEX
8
CUT
10
0
20
0
0
VERTEX
8
CUT
10
0
20
70
0
SEQEND
0
ENDSEC
0
EOF
