0
SECTION
2
HEADER
9
$ACADVER
1
AC1009
9
$INSUNITS
70
4
0
ENDSEC
0
SECTION
2
TABLES
0
TABLE
2
LAYER
70
1
0
LAYER
2
CUT
70
0
62
1
6
CONTINUOUS
0
ENDTAB
0
ENDSEC
0
SECTION
2
ENTITIES
0
LINE
8
CUT
10
14.5885
20
70
11
14.5885
21
63.7321
0
LINE
8
CUT
10
13.7224
20
63.2321
11
2.866
21
69.5
0
POLYLINE
8
CUT
66
1
70
0
0
VERTEX
8
CUT
10
13.5885
20
69
0
VERTEX
8
CUT
10
13.5885
20
64.4641
0
VERTEX
8
CUT
10
9.6603
20
66.7321
0
SEQEND
0
POLYLINE
8
CUT
66
1
70
0
0
VERTEX
8
CUT
10
7.9282
20
67.7321
0
VERTEX
8
CUT
10
4
20
70
0
VERTEX
8
CUT
10
4
20
70
0
SEQEND
0
LINE
8
CUT
10
12.5885
20
70
11
12.5885
21
67.1962
0
LINE
8
CUT
10
11.7224
20
66.6962
11
6.866
21
69.5
0
POLYLINE
8
CUT
66
1
70
0
0
VERTEX
8
CUT
10
11.5885
20
69
0
VERTEX
8
CUT
10
11.5885
20
67.9282
0
VERTEX
8
CUT
10
10.6603
20
68.4641
0
SEQEND
0
POLYLINE
8
CUT
66
1
70
0
0
VERTEX
8
CUT
10
8.9282
20
69.4641
0
VERTEX
8
CUT
10
8
20
70
0
VERTEX
8
CUT
10
8
20
70
0
SEQEND
0
LINE
8
CUT
10
1
20
67.2679
11
1
21
54.7321
0
LINE
8
CUT
10
1.866
20
54.2321
11
12.7224
21
60.5
0
LINE
8
CUT
10
12.7224
20
61.5
11
1.866
21
67.7679
0
POLYLINE
8
CUT
66
1
70
0
0
VERTEX
8
CUT
10
5.9282
20
64.2679
0
VERTEX
8
CUT
10
2
20
66.5359
0
VERTEX
8
CUT
10
2
20
62
0
SEQEND
0
POLYLINE
8
CUT
66
1
70
0
0
VERTEX
8
CUT
10
2
20
60
0
VERTEX
8
CUT
10
2
20
55.4641
0
VERTEX
8
CUT
10
5.9282
20
57.7321
0
SEQEND
0
POLYLINE
8
CUT
66
1
70
0
0
VERTEX
8
CUT
10
7.6603
20
58.7321
0
VERTEX
8
CUT
10
11.5885
20
61
0
VERTEX
8
CUT
10
7.6603
20
63.2679
0
SEQEND
0
LINE
8
CUT
10
3
20
63.8038
11
3
21
58.1962
0
LINE
8
CUT
10
3.866
20
57.6962
11
8.7224
21
60.5
0
LINE
8
CUT
10
8.7224
20
61.5
11
3.866
21
64.3038
0
POLYLINE
8
CUT
66
1
70
0
0
VERTEX
8
CUT
10
4.9282
20
62.5359
0
VERTEX
8
CUT
10
4
20
63.0718
0
VERTEX
8
CUT
10
4
20
62
0
SEQEND
0
POLYLINE
8
CUT
66
1
70
0
0
VERTEX
8
CUT
10
4
20
60
0
VERTEX
8
CUT
10
4
20
58.9282
0
VERTEX
8
CUT
10
4.9282
20
59.4641
0
SEQEND
0
POLYLINE
8
CUT
66
1
70
0
0
VERTEX
8
CUT
10
6.6603
20
60.4641
0
VERTEX
8
CUT
10
7.5885
20
61
0
VERTEX
8
CUT
10
6.6603
20
61.5359
0
SEQEND
0
LINE
8
CUT
10
14.5885
20
58.2679
11
14.5885
21
45.7321
0
LINE
8
CUT
10
13.7224
20
45.2321
11
2.866
21
51.5
0
LINE
8
CUT
10
2.866
20
52.5
11
13.7224
21
58.7679
0
POLYLINE
8
CUT
66
1
70
0
0
VERTEX
8
CUT
10
9.6603
20
55.2679
0
VERTEX
8
CUT
10
13.5885
20
57.5359
0
VERTEX
8
CUT
10
13.5885
20
53
0
SEQEND
0
POLYLINE
8
CUT
66
1
70
0
0
VERTEX
8
CUT
10
13.5885
20
51
0
VERTEX
8
CUT
10
13.5885
20
46.4641
0
VERTEX
8
CUT
10
9.6603
20
48.7321
0
SEQEND
0
POLYLINE
8
CUT
66
1
70
0
0
VERTEX
8
CUT
10
7.9282
20
49.7321
0
VERTEX
8
CUT
10
4
20
52
0
VERTEX
8
CUT
10
7.9282
20
54.2679
0
SEQEND
0
LINE
8
CUT
10
12.5885
20
54.8038
11
12.5885
21
49.1962
0
LINE
8
CUT
10
11.7224
20
48.6962
11
6.866
21
51.5
0
LINE
8
CUT
10
6.866
20
52.5
11
11.7224
21
55.3038
0
POLYLINE
8
CUT
66
1
70
0
0
VERTEX
8
CUT
10
10.6603
20
53.5359
0
VERTEX
8
CUT
10
11.5885
20
54.0718
0
VERTEX
8
CUT
10
11.5885
20
53
0
SEQEND
0
POLYLINE
8
CUT
66
1
70
0
0
VERTEX
8
CUT
10
11.5885
20
51
0
VERTEX
8
CUT
10
11.5885
20
49.9282
0
VERTEX
8
CUT
10
10.6603
20
50.4641
0
SEQEND
0
POLYLINE
8
CUT
66
1
70
0
0
VERTEX
8
CUT
10
8.9282
20
51.4641
0
VERTEX
8
CUT
10
8
20
52
0
VERTEX
8
CUT
10
8.9282
20
52.5359
0
SEQEND
0
LINE
8
CUT
10
1
20
49.2679
11
1
21
36.7321
0
LINE
8
CUT
10
1.866
20
36.2321
11
12.7224
21
42.5
0
LINE
8
CUT
10
12.7224
20
43.5
11
1.866
21
49.7679
0
POLYLINE
8
CUT
66
1
70
0
0
VERTEX
8
CUT
10
5.9282
20
46.2679
0
VERTEX
8
CUT
10
2
20
48.5359
0
VERTEX
8
CUT
10
2
20
44
0
SEQEND
0
POLYLINE
8
CUT
66
1
70
0
0
VERTEX
8
CUT
10
2
20
42
0
VERTEX
8
CUT
10
2
20
37.4641
0
VERTEX
8
CUT
10
5.9282
20
39.7321
0
SEQEND
0
POLYLINE
8
CUT
66
1
70
0
0
VERTEX
8
CUT
10
7.6603
20
40.7321
0
VERTEX
8
CUT
10
11.5885
20
43
0
VERTEX
8
CUT
10
7.6603
20
45.2679
0
SEQEND
0
LINE
8
CUT
10
3
20
45.8038
11
3
21
40.1962
0
LINE
8
CUT
10
3.866
20
39.6962
11
8.7224
21
42.5
0
LINE
8
CUT
10
8.7224
20
43.5
11
3.866
21
46.3038
0
POLYLINE
8
CUT
66
1
70
0
0
VERTEX
8
CUT
10
4.9282
20
44.5359
0
VERTEX
8
CUT
10
4
20
45.0718
0
VERTEX
8
CUT
10
4
20
44
0
SEQEND
0
POLYLINE
8
CUT
66
1
70
0
0
VERTEX
8
CUT
10
4
20
42
0
VERTEX
8
CUT
10
4
20
40.9282
0
VERTEX
8
CUT
10
4.9282
20
41.4641
0
SEQEND
0
POLYLINE
8
CUT
66
1
70
0
0
VERTEX
8
CUT
10
6.6603
20
42.4641
0
VERTEX
8
CUT
10
7.5885
20
43
0
VERTEX
8
CUT
10
6.6603
20
43.5359
0
SEQEND
0
LINE
8
CUT
10
14.5885
20
40.2679
11
14.5885
21
27.7321
0
LINE
8
CUT
10
13.7224
20
27.2321
11
2.866
21
33.5
0
LINE
8
CUT
10
2.866
20
34.5
11
13.7224
21
40.7679
0
POLYLINE
8
CUT
66
1
70
0
0
VERTEX
8
CUT
10
9.6603
20
37.2679
0
VERTEX
8
CUT
10
13.5885
20
39.5359
0
VERTEX
8
CUT
10
13.5885
20
35
0
SEQEND
0
POLYLINE
8
CUT
66
1
70
0
0
VERTEX
8
CUT
10
13.5885
20
33
0
VERTEX
8
CUT
10
13.5885
20
28.4641
0
VERTEX
8
CUT
10
9.6603
20
30.7321
0
SEQEND
0
POLYLINE
8
CUT
66
1
70
0
0
VERTEX
8
CUT
10
7.9282
20
31.7321
0
VERTEX
8
CUT
10
4
20
34
0
VERTEX
8
CUT
10
7.9282
20
36.2679
0
SEQEND
0
LINE
8
CUT
10
12.5885
20
36.8038
11
12.5885
21
31.1962
0
LINE
8
CUT
10
11.7224
20
30.6962
11
6.866
21
33.5
0
LINE
8
CUT
10
6.866
20
34.5
11
11.7224
21
37.3038
0
POLYLINE
8
CUT
66
1
70
0
0
VERTEX
8
CUT
10
10.6603
20
35.5359
0
VERTEX
8
CUT
10
11.5885
20
36.0718
0
VERTEX
8
CUT
10
11.5885
20
35
0
SEQEND
0
POLYLINE
8
CUT
66
1
70
0
0
VERTEX
8
CUT
10
11.5885
20
33
0
VERTEX
8
CUT
10
11.5885
20
31.9282
0
VERTEX
8
CUT
10
10.6603
20
32.4641
0
SEQEND
0
POLYLINE
8
CUT
66
1
70
0
0
VERTEX
8
CUT
10
8.9282
20
33.4641
0
VERTEX
8
CUT
10
8
20
34
0
VERTEX
8
CUT
10
8.9282
20
34.5359
0
SEQEND
0
LINE
8
CUT
10
1
20
31.2679
11
1
21
18.7321
0
LINE
8
CUT
10
1.866
20
18.2321
11
12.7224
21
24.5
0
LINE
8
CUT
10
12.7224
20
25.5
11
1.866
21
31.7679
0
POLYLINE
8
CUT
66
1
70
0
0
VERTEX
8
CUT
10
5.9282
20
28.2679
0
VERTEX
8
CUT
10
2
20
30.5359
0
VERTEX
8
CUT
10
2
20
26
0
SEQEND
0
POLYLINE
8
CUT
66
1
70
0
0
VERTEX
8
CUT
10
2
20
24
0
VERTEX
8
CUT
10
2
20
19.4641
0
VERTEX
8
CUT
10
5.9282
20
21.7321
0
SEQEND
0
POLYLINE
8
CUT
66
1
70
0
0
VERTEX
8
CUT
10
7.6603
20
22.7321
0
VERTEX
8
CUT
10
11.5885
20
25
0
VERTEX
8
CUT
10
7.6603
20
27.2679
0
SEQEND
0
LINE
8
CUT
10
3
20
27.8038
11
3
21
22.1962
0
LINE
8
CUT
10
3.866
20
21.6962
11
8.7224
21
24.5
0
LINE
8
CUT
10
8.7224
20
25.5
11
3.866
21
28.3038
0
POLYLINE
8
CUT
66
1
70
0
0
VERTEX
8
CUT
10
4.9282
20
26.5359
0
VERTEX
8
CUT
10
4
20
27.0718
0
VERTEX
8
CUT
10
4
20
26
0
SEQEND
0
POLYLINE
8
CUT
66
1
70
0
0
VERTEX
8
CUT
10
4
20
24
0
VERTEX
8
CUT
10
4
20
22.9282
0
VERTEX
8
CUT
10
4.9282
20
23.4641
0
SEQEND
0
POLYLINE
8
CUT
66
1
70
0
0
VERTEX
8
CUT
10
6.6603
20
24.4641
0
VERTEX
8
CUT
10
7.5885
20
25
0
VERTEX
8
CUT
10
6.6603
20
25.5359
0
SEQEND
0
LINE
8
CUT
10
14.5885
20
22.2679
11
14.5885
21
9.7321
0
LINE
8
CUT
10
13.7224
20
9.2321
11
2.866
21
15.5
0
LINE
8
CUT
10
2.866
20
16.5
11
13.7224
21
22.7679
0
POLYLINE
8
CUT
66
1
70
0
0
VERTEX
8
CUT
10
9.6603
20
19.2679
0
VERTEX
8
CUT
10
13.5885
20
21.5359
0
VERTEX
8
CUT
10
13.5885
20
17
0
SEQEND
0
POLYLINE
8
CUT
66
1
70
0
0
VERTEX
8
CUT
10
13.5885
20
15
0
VERTEX
8
CUT
10
13.5885
20
10.4641
0
VERTEX
8
CUT
10
9.6603
20
12.7321
0
SEQEND
0
POLYLINE
8
CUT
66
1
70
0
0
VERTEX
8
CUT
10
7.9282
20
13.7321
0
VERTEX
8
CUT
10
4
20
16
0
VERTEX
8
CUT
10
7.9282
20
18.2679
0
SEQEND
0
LINE
8
CUT
10
12.5885
20
18.8038
11
12.5885
21
13.1962
0
LINE
8
CUT
10
11.7224
20
12.6962
11
6.866
21
15.5
0
LINE
8
CUT
10
6.866
20
16.5
11
11.7224
21
19.3038
0
POLYLINE
8
CUT
66
1
70
0
0
VERTEX
8
CUT
10
10.6603
20
17.5359
0
VERTEX
8
CUT
10
11.5885
20
18.0718
0
VERTEX
8
CUT
10
11.5885
20
17
0
SEQEND
0
POLYLINE
8
CUT
66
1
70
0
0
VERTEX
8
CUT
10
11.5885
20
15
0
VERTEX
8
CUT
10
11.5885
20
13.9282
0
VERTEX
8
CUT
10
10.6603
20
14.4641
0
SEQEND
0
POLYLINE
8
CUT
66
1
70
0
0
VERTEX
8
CUT
10
8.9282
20
15.4641
0
VERTEX
8
CUT
10
8
20
16
0
VERTEX
8
CUT
10
8.9282
20
16.5359
0
SEQEND
0
LINE
8
CUT
10
1
20
13.2679
11
1
21
0.7321
0
LINE
8
CUT
10
1.866
20
0.2321
11
12.7224
21
6.5
0
LINE
8
CUT
10
12.7224
20
7.5
11
1.866
21
13.7679
0
POLYLINE
8
CUT
66
1
70
0
0
VERTEX
8
CUT
10
5.9282
20
10.2679
0
VERTEX
8
CUT
10
2
20
12.5359
0
VERTEX
8
CUT
10
2
20
8
0
SEQEND
0
POLYLINE
8
CUT
66
1
70
0
0
VERTEX
8
CUT
10
2
20
6
0
VERTEX
8
CUT
10
2
20
1.4641
0
VERTEX
8
CUT
10
5.9282
20
3.7321
0
SEQEND
0
POLYLINE
8
CUT
66
1
70
0
0
VERTEX
8
CUT
10
7.6603
20
4.7321
0
VERTEX
8
CUT
10
11.5885
20
7
0
VERTEX
8
CUT
10
7.6603
20
9.2679
0
SEQEND
0
LINE
8
CUT
10
3
20
9.8038
11
3
21
4.1962
0
LINE
8
CUT
10
3.866
20
3.6962
11
8.7224
21
6.5
0
LINE
8
CUT
10
8.7224
20
7.5
11
3.866
21
10.3038
0
POLYLINE
8
CUT
66
1
70
0
0
VERTEX
8
CUT
10
4.9282
20
8.5359
0
VERTEX
8
CUT
10
4
20
9.0718
0
VERTEX
8
CUT
10
4
20
8
0
SEQEND
0
POLYLINE
8
CUT
66
1
70
0
0
VERTEX
8
CUT
10
4
20
6
0
VERTEX
8
CUT
10
4
20
4.9282
0
VERTEX
8
CUT
10
4.9282
20
5.4641
0
SEQEND
0
POLYLINE
8
CUT
66
1
70
0
0
VERTEX
8
CUT
10
6.6603
20
6.4641
0
VERTEX
8
CUT
10
7.5885
20
7
0
VERTEX
8
CUT
10
6.6603
20
7.5359
0
SEQEND
0
LINE
8
CUT
10
14.5885
20
4.2679
11
14.5885
21
0
0
LINE
8
CUT
10
5.4641
20
0
11
13.7224
21
4.7679
0
POLYLINE
8
CUT
66
1
70
0
0
VERTEX
8
CUT
10
9.6603
20
1.2679
0
VERTEX
8
CUT
10
13.5885
20
3.5359
0
VERTEX
8
CUT
10
13.5885
20
0
0
SEQEND
0
LINE
8
CUT
10
7.4641
20
0
11
7.9282
21
0.2679
0
LINE
8
CUT
10
12.5885
20
0.8038
11
12.5885
21
0
0
LINE
8
CUT
10
9.4641
20
0
11
11.7224
21
1.3038
0
LINE
8
CUT
10
16.5885
20
70
11
16.5885
21
63.7321
0
LINE
8
CUT
10
17.4545
20
63.2321
11
28.3109
21
69.5
0
POLYLINE
8
CUT
66
1
70
0
0
VERTEX
8
CUT
10
17.5885
20
69
0
VERTEX
8
CUT
10
17.5885
20
64.4641
0
VERTEX
8
CUT
10
21.5167
20
66.7321
0
SEQEND
0
POLYLINE
8
CUT
66
1
70
0
0
VERTEX
8
CUT
10
23.2487
20
67.7321
0
VERTEX
8
CUT
10
27.1769
20
70
0
VERTEX
8
CUT
10
27.1769
20
70
0
SEQEND
0
LINE
8
CUT
10
18.5885
20
70
11
18.5885
21
67.1962
0
LINE
8
CUT
10
19.4545
20
66.6962
11
24.3109
21
69.5
0
POLYLINE
8
CUT
66
1
70
0
0
VERTEX
8
CUT
10
19.5885
20
69
0
VERTEX
8
CUT
10
19.5885
20
67.9282
0
VERTEX
8
CUT
10
20.5167
20
68.4641
0
SEQEND
0
POLYLINE
8
CUT
66
1
70
0
0
VERTEX
8
CUT
10
22.2487
20
69.4641
0
VERTEX
8
CUT
10
23.1769
20
70
0
VERTEX
8
CUT
10
23.1769
20
70
0
SEQEND
0
LINE
8
CUT
10
30.1769
20
67.2679
11
30.1769
21
54.7321
0
LINE
8
CUT
10
29.3109
20
54.2321
11
18.4545
21
60.5
0
LINE
8
CUT
10
18.4545
20
61.5
11
29.3109
21
67.7679
0
POLYLINE
8
CUT
66
1
70
0
0
VERTEX
8
CUT
10
25.2487
20
64.2679
0
VERTEX
8
CUT
10
29.1769
20
66.5359
0
VERTEX
8
CUT
10
29.1769
20
62
0
SEQEND
0
POLYLINE
8
CUT
66
1
70
0
0
VERTEX
8
CUT
10
29.1769
20
60
0
VERTEX
8
CUT
10
29.1769
20
55.4641
0
VERTEX
8
CUT
10
25.2487
20
57.7321
0
SEQEND
0
POLYLINE
8
CUT
66
1
70
0
0
VERTEX
8
CUT
10
23.5167
20
58.7321
0
VERTEX
8
CUT
10
19.5885
20
61
0
VERTEX
8
CUT
10
23.5167
20
63.2679
0
SEQEND
0
LINE
8
CUT
10
28.1769
20
63.8038
11
28.1769
21
58.1962
0
LINE
8
CUT
10
27.3109
20
57.6962
11
22.4545
21
60.5
0
LINE
8
CUT
10
22.4545
20
61.5
11
27.3109
21
64.3038
0
POLYLINE
8
CUT
66
1
70
0
0
VERTEX
8
CUT
10
26.2487
20
62.5359
0
VERTEX
8
CUT
10
27.1769
20
63.0718
0
VERTEX
8
CUT
10
27.1769
20
62
0
SEQEND
0
POLYLINE
8
CUT
66
1
70
0
0
VERTEX
8
CUT
10
27.1769
20
60
0
VERTEX
8
CUT
10
27.1769
20
58.9282
0
VERTEX
8
CUT
10
26.2487
20
59.4641
0
SEQEND
0
POLYLINE
8
CUT
66
1
70
0
0
VERTEX
8
CUT
10
24.5167
20
60.4641
0
VERTEX
8
CUT
10
23.5885
20
61
0
VERTEX
8
CUT
10
24.5167
20
61.5359
0
SEQEND
0
LINE
8
CUT
10
16.5885
20
58.2679
11
16.5885
21
45.7321
0
LINE
8
CUT
10
17.4545
20
45.2321
11
28.3109
21
51.5
0
LINE
8
CUT
10
28.3109
20
52.5
11
17.4545
21
58.7679
0
POLYLINE
8
CUT
66
1
70
0
0
VERTEX
8
CUT
10
21.5167
20
55.2679
0
VERTEX
8
CUT
10
17.5885
20
57.5359
0
VERTEX
8
CUT
10
17.5885
20
53
0
SEQEND
0
POLYLINE
8
CUT
66
1
70
0
0
VERTEX
8
CUT
10
17.5885
20
51
0
VERTEX
8
CUT
10
17.5885
20
46.4641
0
VERTEX
8
CUT
10
21.5167
20
48.7321
0
SEQEND
0
POLYLINE
8
CUT
66
1
70
0
0
VERTEX
8
CUT
10
23.2487
20
49.7321
0
VERTEX
8
CUT
10
27.1769
20
52
0
VERTEX
8
CUT
10
23.2487
20
54.2679
0
SEQEND
0
LINE
8
CUT
10
18.5885
20
54.8038
11
18.5885
21
49.1962
0
LINE
8
CUT
10
19.4545
20
48.6962
11
24.3109
21
51.5
0
LINE
8
CUT
10
24.3109
20
52.5
11
19.4545
21
55.3038
0
POLYLINE
8
CUT
66
1
70
0
0
VERTEX
8
CUT
10
20.5167
20
53.5359
0
VERTEX
8
CUT
10
19.5885
20
54.0718
0
VERTEX
8
CUT
10
19.5885
20
53
0
SEQEND
0
POLYLINE
8
CUT
66
1
70
0
0
VERTEX
8
CUT
10
19.5885
20
51
0
VERTEX
8
CUT
10
19.5885
20
49.9282
0
VERTEX
8
CUT
10
20.5167
20
50.4641
0
SEQEND
0
POLYLINE
8
CUT
66
1
70
0
0
VERTEX
8
CUT
10
22.2487
20
51.4641
0
VERTEX
8
CUT
10
23.1769
20
52
0
VERTEX
8
CUT
10
22.2487
20
52.5359
0
SEQEND
0
LINE
8
CUT
10
30.1769
20
49.2679
11
30.1769
21
36.7321
0
LINE
8
CUT
10
29.3109
20
36.2321
11
18.4545
21
42.5
0
LINE
8
CUT
10
18.4545
20
43.5
11
29.3109
21
49.7679
0
POLYLINE
8
CUT
66
1
70
0
0
VERTEX
8
CUT
10
25.2487
20
46.2679
0
VERTEX
8
CUT
10
29.1769
20
48.5359
0
VERTEX
8
CUT
10
29.1769
20
44
0
SEQEND
0
POLYLINE
8
CUT
66
1
70
0
0
VERTEX
8
CUT
10
29.1769
20
42
0
VERTEX
8
CUT
10
29.1769
20
37.4641
0
VERTEX
8
CUT
10
25.2487
20
39.7321
0
SEQEND
0
POLYLINE
8
CUT
66
1
70
0
0
VERTEX
8
CUT
10
23.5167
20
40.7321
0
VERTEX
8
CUT
10
19.5885
20
43
0
VERTEX
8
CUT
10
23.5167
20
45.2679
0
SEQEND
0
LINE
8
CUT
10
28.1769
20
45.8038
11
28.1769
21
40.1962
0
LINE
8
CUT
10
27.3109
20
39.6962
11
22.4545
21
42.5
0
LINE
8
CUT
10
22.4545
20
43.5
11
27.3109
21
46.3038
0
POLYLINE
8
CUT
66
1
70
0
0
VERTEX
8
CUT
10
26.2487
20
44.5359
0
VERTEX
8
CUT
10
27.1769
20
45.0718
0
VERTEX
8
CUT
10
27.1769
20
44
0
SEQEND
0
POLYLINE
8
CUT
66
1
70
0
0
VERTEX
8
CUT
10
27.1769
20
42
0
VERTEX
8
CUT
10
27.1769
20
40.9282
0
VERTEX
8
CUT
10
26.2487
20
41.4641
0
SEQEND
0
POLYLINE
8
CUT
66
1
70
0
0
VERTEX
8
CUT
10
24.5167
20
42.4641
0
VERTEX
8
CUT
10
23.5885
20
43
0
VERTEX
8
CUT
10
24.5167
20
43.5359
0
SEQEND
0
LINE
8
CUT
10
16.5885
20
40.2679
11
16.5885
21
27.7321
0
LINE
8
CUT
10
17.4545
20
27.2321
11
28.3109
21
33.5
0
LINE
8
CUT
10
28.3109
20
34.5
11
17.4545
21
40.7679
0
POLYLINE
8
CUT
66
1
70
0
0
VERTEX
8
CUT
10
21.5167
20
37.2679
0
VERTEX
8
CUT
10
17.5885
20
39.5359
0
VERTEX
8
CUT
10
17.5885
20
35
0
SEQEND
0
POLYLINE
8
CUT
66
1
70
0
0
VERTEX
8
CUT
10
17.5885
20
33
0
VERTEX
8
CUT
10
17.5885
20
28.4641
0
VERTEX
8
CUT
10
21.5167
20
30.7321
0
SEQEND
0
POLYLINE
8
CUT
66
1
70
0
0
VERTEX
8
CUT
10
23.2487
20
31.7321
0
VERTEX
8
CUT
10
27.1769
20
34
0
VERTEX
8
CUT
10
23.2487
20
36.2679
0
SEQEND
0
LINE
8
CUT
10
18.5885
20
36.8038
11
18.5885
21
31.1962
0
LINE
8
CUT
10
19.4545
20
30.6962
11
24.3109
21
33.5
0
LINE
8
CUT
10
24.3109
20
34.5
11
19.4545
21
37.3038
0
POLYLINE
8
CUT
66
1
70
0
0
VERTEX
8
CUT
10
20.5167
20
35.5359
0
VERTEX
8
CUT
10
19.5885
20
36.0718
0
VERTEX
8
CUT
10
19.5885
20
35
0
SEQEND
0
POLYLINE
8
CUT
66
1
70
0
0
VERTEX
8
CUT
10
19.5885
20
33
0
VERTEX
8
CUT
10
19.5885
20
31.9282
0
VERTEX
8
CUT
10
20.5167
20
32.4641
0
SEQEND
0
POLYLINE
8
CUT
66
1
70
0
0
VERTEX
8
CUT
10
22.2487
20
33.4641
0
VERTEX
8
CUT
10
23.1769
20
34
0
VERTEX
8
CUT
10
22.2487
20
34.5359
0
SEQEND
0
LINE
8
CUT
10
30.1769
20
31.2679
11
30.1769
21
18.7321
0
LINE
8
CUT
10
29.3109
20
18.2321
11
18.4545
21
24.5
0
LINE
8
CUT
10
18.4545
20
25.5
11
29.3109
21
31.7679
0
POLYLINE
8
CUT
66
1
70
0
0
VERTEX
8
CUT
10
25.2487
20
28.2679
0
VERTEX
8
CUT
10
29.1769
20
30.5359
0
VERTEX
8
CUT
10
29.1769
20
26
0
SEQEND
0
POLYLINE
8
CUT
66
1
70
0
0
VERTEX
8
CUT
10
29.1769
20
24
0
VERTEX
8
CUT
10
29.1769
20
19.4641
0
VERTEX
8
CUT
10
25.2487
20
21.7321
0
SEQEND
0
POLYLINE
8
CUT
66
1
70
0
0
VERTEX
8
CUT
10
23.5167
20
22.7321
0
VERTEX
8
CUT
10
19.5885
20
25
0
VERTEX
8
CUT
10
23.5167
20
27.2679
0
SEQEND
0
LINE
8
CUT
10
28.1769
20
27.8038
11
28.1769
21
22.1962
0
LINE
8
CUT
10
27.3109
20
21.6962
11
22.4545
21
24.5
0
LINE
8
CUT
10
22.4545
20
25.5
11
27.3109
21
28.3038
0
POLYLINE
8
CUT
66
1
70
0
0
VERTEX
8
CUT
10
26.2487
20
26.5359
0
VERTEX
8
CUT
10
27.1769
20
27.0718
0
VERTEX
8
CUT
10
27.1769
20
26
0
SEQEND
0
POLYLINE
8
CUT
66
1
70
0
0
VERTEX
8
CUT
10
27.1769
20
24
0
VERTEX
8
CUT
10
27.1769
20
22.9282
0
VERTEX
8
CUT
10
26.2487
20
23.4641
0
SEQEND
0
POLYLINE
8
CUT
66
1
70
0
0
VERTEX
8
CUT
10
24.5167
20
24.4641
0
VERTEX
8
CUT
10
23.5885
20
25
0
VERTEX
8
CUT
10
24.5167
20
25.5359
0
SEQEND
0
LINE
8
CUT
10
16.5885
20
22.2679
11
16.5885
21
9.7321
0
LINE
8
CUT
10
17.4545
20
9.2321
11
28.3109
21
15.5
0
LINE
8
CUT
10
28.3109
20
16.5
11
17.4545
21
22.7679
0
POLYLINE
8
CUT
66
1
70
0
0
VERTEX
8
CUT
10
21.5167
20
19.2679
0
VERTEX
8
CUT
10
17.5885
20
21.5359
0
VERTEX
8
CUT
10
17.5885
20
17
0
SEQEND
0
POLYLINE
8
CUT
66
1
70
0
0
VERTEX
8
CUT
10
17.5885
20
15
0
VERTEX
8
CUT
10
17.5885
20
10.4641
0
VERTEX
8
CUT
10
21.5167
20
12.7321
0
SEQEND
0
POLYLINE
8
CUT
66
1
70
0
0
VERTEX
8
CUT
10
23.2487
20
13.7321
0
VERTEX
8
CUT
10
27.1769
20
16
0
VERTEX
8
CUT
10
23.2487
20
18.2679
0
SEQEND
0
LINE
8
CUT
10
18.5885
20
18.8038
11
18.5885
21
13.1962
0
LINE
8
CUT
10
19.4545
20
12.6962
11
24.3109
21
15.5
0
LINE
8
CUT
10
24.3109
20
16.5
11
19.4545
21
19.3038
0
POLYLINE
8
CUT
66
1
70
0
0
VERTEX
8
CUT
10
20.5167
20
17.5359
0
VERTEX
8
CUT
10
19.5885
20
18.0718
0
VERTEX
8
CUT
10
19.5885
20
17
0
SEQEND
0
POLYLINE
8
CUT
66
1
70
0
0
VERTEX
8
CUT
10
19.5885
20
15
0
VERTEX
8
CUT
10
19.5885
20
13.9282
0
VERTEX
8
CUT
10
20.5167
20
14.4641
0
SEQEND
0
POLYLINE
8
CUT
66
1
70
0
0
VERTEX
8
CUT
10
22.2487
20
15.4641
0
VERTEX
8
CUT
10
23.1769
20
16
0
VERTEX
8
CUT
10
22.2487
20
16.5359
0
SEQEND
0
LINE
8
CUT
10
30.1769
20
13.2679
11
30.1769
21
0.7321
0
LINE
8
CUT
10
29.3109
20
0.2321
11
18.4545
21
6.5
0
LINE
8
CUT
10
18.4545
20
7.5
11
29.3109
21
13.7679
0
POLYLINE
8
CUT
66
1
70
0
0
VERTEX
8
CUT
10
25.2487
20
10.2679
0
VERTEX
8
CUT
10
29.1769
20
12.5359
0
VERTEX
8
CUT
10
29.1769
20
8
0
SEQEND
0
POLYLINE
8
CUT
66
1
70
0
0
VERTEX
8
CUT
10
29.1769
20
6
0
VERTEX
8
CUT
10
29.1769
20
1.4641
0
VERTEX
8
CUT
10
25.2487
20
3.7321
0
SEQEND
0
POLYLINE
8
CUT
66
1
70
0
0
VERTEX
8
CUT
10
23.5167
20
4.7321
0
VERTEX
8
CUT
10
19.5885
20
7
0
VERTEX
8
CUT
10
23.5167
20
9.2679
0
SEQEND
0
LINE
8
CUT
10
28.1769
20
9.8038
11
28.1769
21
4.1962
0
LINE
8
CUT
10
27.3109
20
3.6962
11
22.4545
21
6.5
0
LINE
8
CUT
10
22.4545
20
7.5
11
27.3109
21
10.3038
0
POLYLINE
8
CUT
66
1
70
0
0
VERTEX
8
CUT
10
26.2487
20
8.5359
0
VERTEX
8
CUT
10
27.1769
20
9.0718
0
VERTEX
8
CUT
10
27.1769
20
8
0
SEQEND
0
POLYLINE
8
CUT
66
1
70
0
0
VERTEX
8
CUT
10
27.1769
20
6
0
VERTEX
8
CUT
10
27.1769
20
4.9282
0
VERTEX
8
CUT
10
26.2487
20
5.4641
0
SEQEND
0
POLYLINE
8
CUT
66
1
70
0
0
VERTEX
8
CUT
10
24.5167
20
6.4641
0
VERTEX
8
CUT
10
23.5885
20
7
0
VERTEX
8
CUT
10
24.5167
20
7.5359
0
SEQEND
0
LINE
8
CUT
10
16.5885
20
4.2679
11
16.5885
21
0
0
LINE
8
CUT
10
25.7128
20
0
11
17.4545
21
4.7679
0
POLYLINE
8
CUT
66
1
70
0
0
VERTEX
8
CUT
10
21.5167
20
1.2679
0
VERTEX
8
CUT
10
17.5885
20
3.5359
0
VERTEX
8
CUT
10
17.5885
20
0
0
SEQEND
0
LINE
8
CUT
10
23.7128
20
0
11
23.2487
21
0.2679
0
LINE
8
CUT
10
18.5885
20
0.8038
11
18.5885
21
0
0
LINE
8
CUT
10
21.7128
20
0
11
19.4545
21
1.3038
0
LINE
8
CUT
10
45.7654
20
70
11
45.7654
21
63.7321
0
LINE
8
CUT
10
44.8993
20
63.2321
11
34.0429
21
69.5
0
POLYLINE
8
CUT
66
1
70
0
0
VERTEX
8
CUT
10
44.7654
20
69
0
VERTEX
8
CUT
10
44.7654
20
64.4641
0
VERTEX
8
CUT
10
40.8372
20
66.7321
0
SEQEND
0
POLYLINE
8
CUT
66
1
70
0
0
VERTEX
8
CUT
10
39.1051
20
67.7321
0
VERTEX
8
CUT
10
35.1769
20
70
0
VERTEX
8
CUT
10
35.1769
20
70
0
SEQEND
0
LINE
8
CUT
10
43.7654
20
70
11
43.7654
21
67.1962
0
LINE
8
CUT
10
42.8993
20
66.6962
11
38.0429
21
69.5
0
POLYLINE
8
CUT
66
1
70
0
0
VERTEX
8
CUT
10
42.7654
20
69
0
VERTEX
8
CUT
10
42.7654
20
67.9282
0
VERTEX
8
CUT
10
41.8372
20
68.4641
0
SEQEND
0
POLYLINE
8
CUT
66
1
70
0
0
VERTEX
8
CUT
10
40.1051
20
69.4641
0
VERTEX
8
CUT
10
39.1769
20
70
0
VERTEX
8
CUT
10
39.1769
20
70
0
SEQEND
0
LINE
8
CUT
10
32.1769
20
67.2679
11
32.1769
21
54.7321
0
LINE
8
CUT
10
33.0429
20
54.2321
11
43.8993
21
60.5
0
LINE
8
CUT
10
43.8993
20
61.5
11
33.0429
21
67.7679
0
POLYLINE
8
CUT
66
1
70
0
0
VERTEX
8
CUT
10
37.1051
20
64.2679
0
VERTEX
8
CUT
10
33.1769
20
66.5359
0
VERTEX
8
CUT
10
33.1769
20
62
0
SEQEND
0
POLYLINE
8
CUT
66
1
70
0
0
VERTEX
8
CUT
10
33.1769
20
60
0
VERTEX
8
CUT
10
33.1769
20
55.4641
0
VERTEX
8
CUT
10
37.1051
20
57.7321
0
SEQEND
0
POLYLINE
8
CUT
66
1
70
0
0
VERTEX
8
CUT
10
38.8372
20
58.7321
0
VERTEX
8
CUT
10
42.7654
20
61
0
VERTEX
8
CUT
10
38.8372
20
63.2679
0
SEQEND
0
LINE
8
CUT
10
34.1769
20
63.8038
11
34.1769
21
58.1962
0
LINE
8
CUT
10
35.0429
20
57.6962
11
39.8993
21
60.5
0
LINE
8
CUT
10
39.8993
20
61.5
11
35.0429
21
64.3038
0
POLYLINE
8
CUT
66
1
70
0
0
VERTEX
8
CUT
10
36.1051
20
62.5359
0
VERTEX
8
CUT
10
35.1769
20
63.0718
0
VERTEX
8
CUT
10
35.1769
20
62
0
SEQEND
0
POLYLINE
8
CUT
66
1
70
0
0
VERTEX
8
CUT
10
35.1769
20
60
0
VERTEX
8
CUT
10
35.1769
20
58.9282
0
VERTEX
8
CUT
10
36.1051
20
59.4641
0
SEQEND
0
POLYLINE
8
CUT
66
1
70
0
0
VERTEX
8
CUT
10
37.8372
20
60.4641
0
VERTEX
8
CUT
10
38.7654
20
61
0
VERTEX
8
CUT
10
37.8372
20
61.5359
0
SEQEND
0
LINE
8
CUT
10
45.7654
20
58.2679
11
45.7654
21
45.7321
0
LINE
8
CUT
10
44.8993
20
45.2321
11
34.0429
21
51.5
0
LINE
8
CUT
10
34.0429
20
52.5
11
44.8993
21
58.7679
0
POLYLINE
8
CUT
66
1
70
0
0
VERTEX
8
CUT
10
40.8372
20
55.2679
0
VERTEX
8
CUT
10
44.7654
20
57.5359
0
VERTEX
8
CUT
10
44.7654
20
53
0
SEQEND
0
POLYLINE
8
CUT
66
1
70
0
0
VERTEX
8
CUT
10
44.7654
20
51
0
VERTEX
8
CUT
10
44.7654
20
46.4641
0
VERTEX
8
CUT
10
40.8372
20
48.7321
0
SEQEND
0
POLYLINE
8
CUT
66
1
70
0
0
VERTEX
8
CUT
10
39.1051
20
49.7321
0
VERTEX
8
CUT
10
35.1769
20
52
0
VERTEX
8
CUT
10
39.1051
20
54.2679
0
SEQEND
0
LINE
8
CUT
10
43.7654
20
54.8038
11
43.7654
21
49.1962
0
LINE
8
CUT
10
42.8993
20
48.6962
11
38.0429
21
51.5
0
LINE
8
CUT
10
38.0429
20
52.5
11
42.8993
21
55.3038
0
POLYLINE
8
CUT
66
1
70
0
0
VERTEX
8
CUT
10
41.8372
20
53.5359
0
VERTEX
8
CUT
10
42.7654
20
54.0718
0
VERTEX
8
CUT
10
42.7654
20
53
0
SEQEND
0
POLYLINE
8
CUT
66
1
70
0
0
VERTEX
8
CUT
10
42.7654
20
51
0
VERTEX
8
CUT
10
42.7654
20
49.9282
0
VERTEX
8
CUT
10
41.8372
20
50.4641
0
SEQEND
0
POLYLINE
8
CUT
66
1
70
0
0
VERTEX
8
CUT
10
40.1051
20
51.4641
0
VERTEX
8
CUT
10
39.1769
20
52
0
VERTEX
8
CUT
10
40.1051
20
52.5359
0
SEQEND
0
LINE
8
CUT
10
32.1769
20
49.2679
11
32.1769
21
36.7321
0
LINE
8
CUT
10
33.0429
20
36.2321
11
43.8993
21
42.5
0
LINE
8
CUT
10
43.8993
20
43.5
11
33.0429
21
49.7679
0
POLYLINE
8
CUT
66
1
70
0
0
VERTEX
8
CUT
10
37.1051
20
46.2679
0
VERTEX
8
CUT
10
33.1769
20
48.5359
0
VERTEX
8
CUT
10
33.1769
20
44
0
SEQEND
0
POLYLINE
8
CUT
66
1
70
0
0
VERTEX
8
CUT
10
33.1769
20
42
0
VERTEX
8
CUT
10
33.1769
20
37.4641
0
VERTEX
8
CUT
10
37.1051
20
39.7321
0
SEQEND
0
POLYLINE
8
CUT
66
1
70
0
0
VERTEX
8
CUT
10
38.8372
20
40.7321
0
VERTEX
8
CUT
10
42.7654
20
43
0
VERTEX
8
CUT
10
38.8372
20
45.2679
0
SEQEND
0
LINE
8
CUT
10
34.1769
20
45.8038
11
34.1769
21
40.1962
0
LINE
8
CUT
10
35.0429
20
39.6962
11
39.8993
21
42.5
0
LINE
8
CUT
10
39.8993
20
43.5
11
35.0429
21
46.3038
0
POLYLINE
8
CUT
66
1
70
0
0
VERTEX
8
CUT
10
36.1051
20
44.5359
0
VERTEX
8
CUT
10
35.1769
20
45.0718
0
VERTEX
8
CUT
10
35.1769
20
44
0
SEQEND
0
POLYLINE
8
CUT
66
1
70
0
0
VERTEX
8
CUT
10
35.1769
20
42
0
VERTEX
8
CUT
10
35.1769
20
40.9282
0
VERTEX
8
CUT
10
36.1051
20
41.4641
0
SEQEND
0
POLYLINE
8
CUT
66
1
70
0
0
VERTEX
8
CUT
10
37.8372
20
42.4641
0
VERTEX
8
CUT
10
38.7654
20
43
0
VERTEX
8
CUT
10
37.8372
20
43.5359
0
SEQEND
0
LINE
8
CUT
10
45.7654
20
40.2679
11
45.7654
21
27.7321
0
LINE
8
CUT
10
44.8993
20
27.2321
11
34.0429
21
33.5
0
LINE
8
CUT
10
34.0429
20
34.5
11
44.8993
21
40.7679
0
POLYLINE
8
CUT
66
1
70
0
0
VERTEX
8
CUT
10
40.8372
20
37.2679
0
VERTEX
8
CUT
10
44.7654
20
39.5359
0
VERTEX
8
CUT
10
44.7654
20
35
0
SEQEND
0
POLYLINE
8
CUT
66
1
70
0
0
VERTEX
8
CUT
10
44.7654
20
33
0
VERTEX
8
CUT
10
44.7654
20
28.4641
0
VERTEX
8
CUT
10
40.8372
20
30.7321
0
SEQEND
0
POLYLINE
8
CUT
66
1
70
0
0
VERTEX
8
CUT
10
39.1051
20
31.7321
0
VERTEX
8
CUT
10
35.1769
20
34
0
VERTEX
8
CUT
10
39.1051
20
36.2679
0
SEQEND
0
LINE
8
CUT
10
43.7654
20
36.8038
11
43.7654
21
31.1962
0
LINE
8
CUT
10
42.8993
20
30.6962
11
38.0429
21
33.5
0
LINE
8
CUT
10
38.0429
20
34.5
11
42.8993
21
37.3038
0
POLYLINE
8
CUT
66
1
70
0
0
VERTEX
8
CUT
10
41.8372
20
35.5359
0
VERTEX
8
CUT
10
42.7654
20
36.0718
0
VERTEX
8
CUT
10
42.7654
20
35
0
SEQEND
0
POLYLINE
8
CUT
66
1
70
0
0
VERTEX
8
CUT
10
42.7654
20
33
0
VERTEX
8
CUT
10
42.7654
20
31.9282
0
VERTEX
8
CUT
10
41.8372
20
32.4641
0
SEQEND
0
POLYLINE
8
CUT
66
1
70
0
0
VERTEX
8
CUT
10
40.1051
20
33.4641
0
VERTEX
8
CUT
10
39.1769
20
34
0
VERTEX
8
CUT
10
40.1051
20
34.5359
0
SEQEND
0
LINE
8
CUT
10
32.1769
20
31.2679
11
32.1769
21
18.7321
0
LINE
8
CUT
10
33.0429
20
18.2321
11
43.8993
21
24.5
0
LINE
8
CUT
10
43.8993
20
25.5
11
33.0429
21
31.7679
0
POLYLINE
8
CUT
66
1
70
0
0
VERTEX
8
CUT
10
37.1051
20
28.2679
0
VERTEX
8
CUT
10
33.1769
20
30.5359
0
VERTEX
8
CUT
10
33.1769
20
26
0
SEQEND
0
POLYLINE
8
CUT
66
1
70
0
0
VERTEX
8
CUT
10
33.1769
20
24
0
VERTEX
8
CUT
10
33.1769
20
19.4641
0
VERTEX
8
CUT
10
37.1051
20
21.7321
0
SEQEND
0
POLYLINE
8
CUT
66
1
70
0
0
VERTEX
8
CUT
10
38.8372
20
22.7321
0
VERTEX
8
CUT
10
42.7654
20
25
0
VERTEX
8
CUT
10
38.8372
20
27.2679
0
SEQEND
0
LINE
8
CUT
10
34.1769
20
27.8038
11
34.1769
21
22.1962
0
LINE
8
CUT
10
35.0429
20
21.6962
11
39.8993
21
24.5
0
LINE
8
CUT
10
39.8993
20
25.5
11
35.0429
21
28.3038
0
POLYLINE
8
CUT
66
1
70
0
0
VERTEX
8
CUT
10
36.1051
20
26.5359
0
VERTEX
8
CUT
10
35.1769
20
27.0718
0
VERTEX
8
CUT
10
35.1769
20
26
0
SEQEND
0
POLYLINE
8
CUT
66
1
70
0
0
VERTEX
8
CUT
10
35.1769
20
24
0
VERTEX
8
CUT
10
35.1769
20
22.9282
0
VERTEX
8
CUT
10
36.1051
20
23.4641
0
SEQEND
0
POLYLINE
8
CUT
66
1
70
0
0
VERTEX
8
CUT
10
37.8372
20
24.4641
0
VERTEX
8
CUT
10
38.7654
20
25
0
VERTEX
8
CUT
10
37.8372
20
25.5359
0
SEQEND
0
LINE
8
CUT
10
45.7654
20
22.2679
11
45.7654
21
9.7321
0
LINE
8
CUT
10
44.8993
20
9.2321
11
34.0429
21
15.5
0
LINE
8
CUT
10
34.0429
20
16.5
11
44.8993
21
22.7679
0
POLYLINE
8
CUT
66
1
70
0
0
VERTEX
8
CUT
10
40.8372
20
19.2679
0
VERTEX
8
CUT
10
44.7654
20
21.5359
0
VERTEX
8
CUT
10
44.7654
20
17
0
SEQEND
0
POLYLINE
8
CUT
66
1
70
0
0
VERTEX
8
CUT
10
44.7654
20
15
0
VERTEX
8
CUT
10
44.7654
20
10.4641
0
VERTEX
8
CUT
10
40.8372
20
12.7321
0
SEQEND
0
POLYLINE
8
CUT
66
1
70
0
0
VERTEX
8
CUT
10
39.1051
20
13.7321
0
VERTEX
8
CUT
10
35.1769
20
16
0
VERTEX
8
CUT
10
39.1051
20
18.2679
0
SEQEND
0
LINE
8
CUT
10
43.7654
20
18.8038
11
43.7654
21
13.1962
0
LINE
8
CUT
10
42.8993
20
12.6962
11
38.0429
21
15.5
0
LINE
8
CUT
10
38.0429
20
16.5
11
42.8993
21
19.3038
0
POLYLINE
8
CUT
66
1
70
0
0
VERTEX
8
CUT
10
41.8372
20
17.5359
0
VERTEX
8
CUT
10
42.7654
20
18.0718
0
VERTEX
8
CUT
10
42.7654
20
17
0
SEQEND
0
POLYLINE
8
CUT
66
1
70
0
0
VERTEX
8
CUT
10
42.7654
20
15
0
VERTEX
8
CUT
10
42.7654
20
13.9282
0
VERTEX
8
CUT
10
41.8372
20
14.4641
0
SEQEND
0
POLYLINE
8
CUT
66
1
70
0
0
VERTEX
8
CUT
10
40.1051
20
15.4641
0
VERTEX
8
CUT
10
39.1769
20
16
0
VERTEX
8
CUT
10
40.1051
20
16.5359
0
SEQEND
0
LINE
8
CUT
10
32.1769
20
13.2679
11
32.1769
21
0.7321
0
LINE
8
CUT
10
33.0429
20
0.2321
11
43.8993
21
6.5
0
LINE
8
CUT
10
43.8993
20
7.5
11
33.0429
21
13.7679
0
POLYLINE
8
CUT
66
1
70
0
0
VERTEX
8
CUT
10
37.1051
20
10.2679
0
VERTEX
8
CUT
10
33.1769
20
12.5359
0
VERTEX
8
CUT
10
33.1769
20
8
0
SEQEND
0
POLYLINE
8
CUT
66
1
70
0
0
VERTEX
8
CUT
10
33.1769
20
6
0
VERTEX
8
CUT
10
33.1769
20
1.4641
0
VERTEX
8
CUT
10
37.1051
20
3.7321
0
SEQEND
0
POLYLINE
8
CUT
66
1
70
0
0
VERTEX
8
CUT
10
38.8372
20
4.7321
0
VERTEX
8
CUT
10
42.7654
20
7
0
VERTEX
8
CUT
10
38.8372
20
9.2679
0
SEQEND
0
LINE
8
CUT
10
34.1769
20
9.8038
11
34.1769
21
4.1962
0
LINE
8
CUT
10
35.0429
20
3.6962
11
39.8993
21
6.5
0
LINE
8
CUT
10
39.8993
20
7.5
11
35.0429
21
10.3038
0
POLYLINE
8
CUT
66
1
70
0
0
VERTEX
8
CUT
10
36.1051
20
8.5359
0
VERTEX
8
CUT
10
35.1769
20
9.0718
0
VERTEX
8
CUT
10
35.1769
20
8
0
SEQEND
0
POLYLINE
8
CUT
66
1
70
0
0
VERTEX
8
CUT
10
35.1769
20
6
0
VERTEX
8
CUT
10
35.1769
20
4.9282
0
VERTEX
8
CUT
10
36.1051
20
5.4641
0
SEQEND
0
POLYLINE
8
CUT
66
1
70
0
0
VERTEX
8
CUT
10
37.8372
20
6.4641
0
VERTEX
8
CUT
10
38.7654
20
7
0
VERTEX
8
CUT
10
37.8372
20
7.5359
0
SEQEND
0
LINE
8
CUT
10
45.7654
20
4.2679
11
45.7654
21
0
0
LINE
8
CUT
10
36.641
20
0
11
44.8993
21
4.7679
0
POLYLINE
8
CUT
66
1
70
0
0
VERTEX
8
CUT
10
40.8372
20
1.2679
0
VERTEX
8
CUT
10
44.7654
20
3.5359
0
VERTEX
8
CUT
10
44.7654
20
0
0
SEQEND
0
LINE
8
CUT
10
38.641
20
0
11
39.1051
21
0.2679
0
LINE
8
CUT
10
43.7654
20
0.8038
11
43.7654
21
0
0
LINE
8
CUT
10
40.641
20
0
11
42.8993
21
1.3038
0
LINE
8
CUT
10
47.7654
20
70
11
47.7654
21
63.7321
0
LINE
8
CUT
10
48.6314
20
63.2321
11
59.4878
21
69.5
0
POLYLINE
8
CUT
66
1
70
0
0
VERTEX
8
CUT
10
48.7654
20
69
0
VERTEX
8
CUT
10
48.7654
20
64.4641
0
VERTEX
8
CUT
10
52.6936
20
66.7321
0
SEQEND
0
POLYLINE
8
CUT
66
1
70
0
0
VERTEX
8
CUT
10
54.4256
20
67.7321
0
VERTEX
8
CUT
10
58.3538
20
70
0
VERTEX
8
CUT
10
58.3538
20
70
0
SEQEND
0
LINE
8
CUT
10
49.7654
20
70
11
49.7654
21
67.1962
0
LINE
8
CUT
10
50.6314
20
66.6962
11
55.4878
21
69.5
0
POLYLINE
8
CUT
66
1
70
0
0
VERTEX
8
CUT
10
50.7654
20
69
0
VERTEX
8
CUT
10
50.7654
20
67.9282
0
VERTEX
8
CUT
10
51.6936
20
68.4641
0
SEQEND
0
POLYLINE
8
CUT
66
1
70
0
0
VERTEX
8
CUT
10
53.4256
20
69.4641
0
VERTEX
8
CUT
10
54.3538
20
70
0
VERTEX
8
CUT
10
54.3538
20
70
0
SEQEND
0
LINE
8
CUT
10
61.3538
20
67.2679
11
61.3538
21
54.7321
0
LINE
8
CUT
10
60.4878
20
54.2321
11
49.6314
21
60.5
0
LINE
8
CUT
10
49.6314
20
61.5
11
60.4878
21
67.7679
0
POLYLINE
8
CUT
66
1
70
0
0
VERTEX
8
CUT
10
56.4256
20
64.2679
0
VERTEX
8
CUT
10
60.3538
20
66.5359
0
VERTEX
8
CUT
10
60.3538
20
62
0
SEQEND
0
POLYLINE
8
CUT
66
1
70
0
0
VERTEX
8
CUT
10
60.3538
20
60
0
VERTEX
8
CUT
10
60.3538
20
55.4641
0
VERTEX
8
CUT
10
56.4256
20
57.7321
0
SEQEND
0
POLYLINE
8
CUT
66
1
70
0
0
VERTEX
8
CUT
10
54.6936
20
58.7321
0
VERTEX
8
CUT
10
50.7654
20
61
0
VERTEX
8
CUT
10
54.6936
20
63.2679
0
SEQEND
0
LINE
8
CUT
10
59.3538
20
63.8038
11
59.3538
21
58.1962
0
LINE
8
CUT
10
58.4878
20
57.6962
11
53.6314
21
60.5
0
LINE
8
CUT
10
53.6314
20
61.5
11
58.4878
21
64.3038
0
POLYLINE
8
CUT
66
1
70
0
0
VERTEX
8
CUT
10
57.4256
20
62.5359
0
VERTEX
8
CUT
10
58.3538
20
63.0718
0
VERTEX
8
CUT
10
58.3538
20
62
0
SEQEND
0
POLYLINE
8
CUT
66
1
70
0
0
VERTEX
8
CUT
10
58.3538
20
60
0
VERTEX
8
CUT
10
58.3538
20
58.9282
0
VERTEX
8
CUT
10
57.4256
20
59.4641
0
SEQEND
0
POLYLINE
8
CUT
66
1
70
0
0
VERTEX
8
CUT
10
55.6936
20
60.4641
0
VERTEX
8
CUT
10
54.7654
20
61
0
VERTEX
8
CUT
10
55.6936
20
61.5359
0
SEQEND
0
LINE
8
CUT
10
47.7654
20
58.2679
11
47.7654
21
45.7321
0
LINE
8
CUT
10
48.6314
20
45.2321
11
59.4878
21
51.5
0
LINE
8
CUT
10
59.4878
20
52.5
11
48.6314
21
58.7679
0
POLYLINE
8
CUT
66
1
70
0
0
VERTEX
8
CUT
10
52.6936
20
55.2679
0
VERTEX
8
CUT
10
48.7654
20
57.5359
0
VERTEX
8
CUT
10
48.7654
20
53
0
SEQEND
0
POLYLINE
8
CUT
66
1
70
0
0
VERTEX
8
CUT
10
48.7654
20
51
0
VERTEX
8
CUT
10
48.7654
20
46.4641
0
VERTEX
8
CUT
10
52.6936
20
48.7321
0
SEQEND
0
POLYLINE
8
CUT
66
1
70
0
0
VERTEX
8
CUT
10
54.4256
20
49.7321
0
VERTEX
8
CUT
10
58.3538
20
52
0
VERTEX
8
CUT
10
54.4256
20
54.2679
0
SEQEND
0
LINE
8
CUT
10
49.7654
20
54.8038
11
49.7654
21
49.1962
0
LINE
8
CUT
10
50.6314
20
48.6962
11
55.4878
21
51.5
0
LINE
8
CUT
10
55.4878
20
52.5
11
50.6314
21
55.3038
0
POLYLINE
8
CUT
66
1
70
0
0
VERTEX
8
CUT
10
51.6936
20
53.5359
0
VERTEX
8
CUT
10
50.7654
20
54.0718
0
VERTEX
8
CUT
10
50.7654
20
53
0
SEQEND
0
POLYLINE
8
CUT
66
1
70
0
0
VERTEX
8
CUT
10
50.7654
20
51
0
VERTEX
8
CUT
10
50.7654
20
49.9282
0
VERTEX
8
CUT
10
51.6936
20
50.4641
0
SEQEND
0
POLYLINE
8
CUT
66
1
70
0
0
VERTEX
8
CUT
10
53.4256
20
51.4641
0
VERTEX
8
CUT
10
54.3538
20
52
0
VERTEX
8
CUT
10
53.4256
20
52.5359
0
SEQEND
0
LINE
8
CUT
10
61.3538
20
49.2679
11
61.3538
21
36.7321
0
LINE
8
CUT
10
60.4878
20
36.2321
11
49.6314
21
42.5
0
LINE
8
CUT
10
49.6314
20
43.5
11
60.4878
21
49.7679
0
POLYLINE
8
CUT
66
1
70
0
0
VERTEX
8
CUT
10
56.4256
20
46.2679
0
VERTEX
8
CUT
10
60.3538
20
48.5359
0
VERTEX
8
CUT
10
60.3538
20
44
0
SEQEND
0
POLYLINE
8
CUT
66
1
70
0
0
VERTEX
8
CUT
10
60.3538
20
42
0
VERTEX
8
CUT
10
60.3538
20
37.4641
0
VERTEX
8
CUT
10
56.4256
20
39.7321
0
SEQEND
0
POLYLINE
8
CUT
66
1
70
0
0
VERTEX
8
CUT
10
54.6936
20
40.7321
0
VERTEX
8
CUT
10
50.7654
20
43
0
VERTEX
8
CUT
10
54.6936
20
45.2679
0
SEQEND
0
LINE
8
CUT
10
59.3538
20
45.8038
11
59.3538
21
40.1962
0
LINE
8
CUT
10
58.4878
20
39.6962
11
53.6314
21
42.5
0
LINE
8
CUT
10
53.6314
20
43.5
11
58.4878
21
46.3038
0
POLYLINE
8
CUT
66
1
70
0
0
VERTEX
8
CUT
10
57.4256
20
44.5359
0
VERTEX
8
CUT
10
58.3538
20
45.0718
0
VERTEX
8
CUT
10
58.3538
20
44
0
SEQEND
0
POLYLINE
8
CUT
66
1
70
0
0
VERTEX
8
CUT
10
58.3538
20
42
0
VERTEX
8
CUT
10
58.3538
20
40.9282
0
VERTEX
8
CUT
10
57.4256
20
41.4641
0
SEQEND
0
POLYLINE
8
CUT
66
1
70
0
0
VERTEX
8
CUT
10
55.6936
20
42.4641
0
VERTEX
8
CUT
10
54.7654
20
43
0
VERTEX
8
CUT
10
55.6936
20
43.5359
0
SEQEND
0
LINE
8
CUT
10
47.7654
20
40.2679
11
47.7654
21
27.7321
0
LINE
8
CUT
10
48.6314
20
27.2321
11
59.4878
21
33.5
0
LINE
8
CUT
10
59.4878
20
34.5
11
48.6314
21
40.7679
0
POLYLINE
8
CUT
66
1
70
0
0
VERTEX
8
CUT
10
52.6936
20
37.2679
0
VERTEX
8
CUT
10
48.7654
20
39.5359
0
VERTEX
8
CUT
10
48.7654
20
35
0
SEQEND
0
POLYLINE
8
CUT
66
1
70
0
0
VERTEX
8
CUT
10
48.7654
20
33
0
VERTEX
8
CUT
10
48.7654
20
28.4641
0
VERTEX
8
CUT
10
52.6936
20
30.7321
0
SEQEND
0
POLYLINE
8
CUT
66
1
70
0
0
VERTEX
8
CUT
10
54.4256
20
31.7321
0
VERTEX
8
CUT
10
58.3538
20
34
0
VERTEX
8
CUT
10
54.4256
20
36.2679
0
SEQEND
0
LINE
8
CUT
10
49.7654
20
36.8038
11
49.7654
21
31.1962
0
LINE
8
CUT
10
50.6314
20
30.6962
11
55.4878
21
33.5
0
LINE
8
CUT
10
55.4878
20
34.5
11
50.6314
21
37.3038
0
POLYLINE
8
CUT
66
1
70
0
0
VERTEX
8
CUT
10
51.6936
20
35.5359
0
VERTEX
8
CUT
10
50.7654
20
36.0718
0
VERTEX
8
CUT
10
50.7654
20
35
0
SEQEND
0
POLYLINE
8
CUT
66
1
70
0
0
VERTEX
8
CUT
10
50.7654
20
33
0
VERTEX
8
CUT
10
50.7654
20
31.9282
0
VERTEX
8
CUT
10
51.6936
20
32.4641
0
SEQEND
0
POLYLINE
8
CUT
66
1
70
0
0
VERTEX
8
CUT
10
53.4256
20
33.4641
0
VERTEX
8
CUT
10
54.3538
20
34
0
VERTEX
8
CUT
10
53.4256
20
34.5359
0
SEQEND
0
LINE
8
CUT
10
61.3538
20
31.2679
11
61.3538
21
18.7321
0
LINE
8
CUT
10
60.4878
20
18.2321
11
49.6314
21
24.5
0
LINE
8
CUT
10
49.6314
20
25.5
11
60.4878
21
31.7679
0
POLYLINE
8
CUT
66
1
70
0
0
VERTEX
8
CUT
10
56.4256
20
28.2679
0
VERTEX
8
CUT
10
60.3538
20
30.5359
0
VERTEX
8
CUT
10
60.3538
20
26
0
SEQEND
0
POLYLINE
8
CUT
66
1
70
0
0
VERTEX
8
CUT
10
60.3538
20
24
0
VERTEX
8
CUT
10
60.3538
20
19.4641
0
VERTEX
8
CUT
10
56.4256
20
21.7321
0
SEQEND
0
POLYLINE
8
CUT
66
1
70
0
0
VERTEX
8
CUT
10
54.6936
20
22.7321
0
VERTEX
8
CUT
10
50.7654
20
25
0
VERTEX
8
CUT
10
54.6936
20
27.2679
0
SEQEND
0
LINE
8
CUT
10
59.3538
20
27.8038
11
59.3538
21
22.1962
0
LINE
8
CUT
10
58.4878
20
21.6962
11
53.6314
21
24.5
0
LINE
8
CUT
10
53.6314
20
25.5
11
58.4878
21
28.3038
0
POLYLINE
8
CUT
66
1
70
0
0
VERTEX
8
CUT
10
57.4256
20
26.5359
0
VERTEX
8
CUT
10
58.3538
20
27.0718
0
VERTEX
8
CUT
10
58.3538
20
26
0
SEQEND
0
POLYLINE
8
CUT
66
1
70
0
0
VERTEX
8
CUT
10
58.3538
20
24
0
VERTEX
8
CUT
10
58.3538
20
22.9282
0
VERTEX
8
CUT
10
57.4256
20
23.4641
0
SEQEND
0
POLYLINE
8
CUT
66
1
70
0
0
VERTEX
8
CUT
10
55.6936
20
24.4641
0
VERTEX
8
CUT
10
54.7654
20
25
0
VERTEX
8
CUT
10
55.6936
20
25.5359
0
SEQEND
0
LINE
8
CUT
10
47.7654
20
22.2679
11
47.7654
21
9.7321
0
LINE
8
CUT
10
48.6314
20
9.2321
11
59.4878
21
15.5
0
LINE
8
CUT
10
59.4878
20
16.5
11
48.6314
21
22.7679
0
POLYLINE
8
CUT
66
1
70
0
0
VERTEX
8
CUT
10
52.6936
20
19.2679
0
VERTEX
8
CUT
10
48.7654
20
21.5359
0
VERTEX
8
CUT
10
48.7654
20
17
0
SEQEND
0
POLYLINE
8
CUT
66
1
70
0
0
VERTEX
8
CUT
10
48.7654
20
15
0
VERTEX
8
CUT
10
48.7654
20
10.4641
0
VERTEX
8
CUT
10
52.6936
20
12.7321
0
SEQEND
0
POLYLINE
8
CUT
66
1
70
0
0
VERTEX
8
CUT
10
54.4256
20
13.7321
0
VERTEX
8
CUT
10
58.3538
20
16
0
VERTEX
8
CUT
10
54.4256
20
18.2679
0
SEQEND
0
LINE
8
CUT
10
49.7654
20
18.8038
11
49.7654
21
13.1962
0
LINE
8
CUT
10
50.6314
20
12.6962
11
55.4878
21
15.5
0
LINE
8
CUT
10
55.4878
20
16.5
11
50.6314
21
19.3038
0
POLYLINE
8
CUT
66
1
70
0
0
VERTEX
8
CUT
10
51.6936
20
17.5359
0
VERTEX
8
CUT
10
50.7654
20
18.0718
0
VERTEX
8
CUT
10
50.7654
20
17
0
SEQEND
0
POLYLINE
8
CUT
66
1
70
0
0
VERTEX
8
CUT
10
50.7654
20
15
0
VERTEX
8
CUT
10
50.7654
20
13.9282
0
VERTEX
8
CUT
10
51.6936
20
14.4641
0
SEQEND
0
POLYLINE
8
CUT
66
1
70
0
0
VERTEX
8
CUT
10
53.4256
20
15.4641
0
VERTEX
8
CUT
10
54.3538
20
16
0
VERTEX
8
CUT
10
53.4256
20
16.5359
0
SEQEND
0
LINE
8
CUT
10
61.3538
20
13.2679
11
61.3538
21
0.7321
0
LINE
8
CUT
10
60.4878
20
0.2321
11
49.6314
21
6.5
0
LINE
8
CUT
10
49.6314
20
7.5
11
60.4878
21
13.7679
0
POLYLINE
8
CUT
66
1
70
0
0
VERTEX
8
CUT
10
56.4256
20
10.2679
0
VERTEX
8
CUT
10
60.3538
20
12.5359
0
VERTEX
8
CUT
10
60.3538
20
8
0
SEQEND
0
POLYLINE
8
CUT
66
1
70
0
0
VERTEX
8
CUT
10
60.3538
20
6
0
VERTEX
8
CUT
10
60.3538
20
1.4641
0
VERTEX
8
CUT
10
56.4256
20
3.7321
0
SEQEND
0
POLYLINE
8
CUT
66
1
70
0
0
VERTEX
8
CUT
10
54.6936
20
4.7321
0
VERTEX
8
CUT
10
50.7654
20
7
0
VERTEX
8
CUT
10
54.6936
20
9.2679
0
SEQEND
0
LINE
8
CUT
10
59.3538
20
9.8038
11
59.3538
21
4.1962
0
LINE
8
CUT
10
58.4878
20
3.6962
11
53.6314
21
6.5
0
LINE
8
CUT
10
53.6314
20
7.5
11
58.4878
21
10.3038
0
POLYLINE
8
CUT
66
1
70
0
0
VERTEX
8
CUT
10
57.4256
20
8.5359
0
VERTEX
8
CUT
10
58.3538
20
9.0718
0
VERTEX
8
CUT
10
58.3538
20
8
0
SEQEND
0
POLYLINE
8
CUT
66
1
70
0
0
VERTEX
8
CUT
10
58.3538
20
6
0
VERTEX
8
CUT
10
58.3538
20
4.9282
0
VERTEX
8
CUT
10
57.4256
20
5.4641
0
SEQEND
0
POLYLINE
8
CUT
66
1
70
0
0
VERTEX
8
CUT
10
55.6936
20
6.4641
0
VERTEX
8
CUT
10
54.7654
20
7
0
VERTEX
8
CUT
10
55.6936
20
7.5359
0
SEQEND
0
LINE
8
CUT
10
47.7654
20
4.2679
11
47.7654
21
0
0
LINE
8
CUT
10
56.8897
20
0
11
48.6314
21
4.7679
0
POLYLINE
8
CUT
66
1
70
0
0
VERTEX
8
CUT
10
52.6936
20
1.2679
0
VERTEX
8
CUT
10
48.7654
20
3.5359
0
VERTEX
8
CUT
10
48.7654
20
0
0
SEQEND
0
LINE
8
CUT
10
54.8897
20
0
11
54.4256
21
0.2679
0
LINE
8
CUT
10
49.7654
20
0.8038
11
49.7654
21
0
0
LINE
8
CUT
10
52.8897
20
0
11
50.6314
21
1.3038
0
LINE
8
CUT
10
76.9423
20
70
11
76.9423
21
63.7321
0
LINE
8
CUT
10
76.0763
20
63.2321
11
65.2199
21
69.5
0
POLYLINE
8
CUT
66
1
70
0
0
VERTEX
8
CUT
10
75.9423
20
69
0
VERTEX
8
CUT
10
75.9423
20
64.4641
0
VERTEX
8
CUT
10
72.0141
20
66.7321
0
SEQEND
0
POLYLINE
8
CUT
66
1
70
0
0
VERTEX
8
CUT
10
70.282
20
67.7321
0
VERTEX
8
CUT
10
66.3538
20
70
0
VERTEX
8
CUT
10
66.3538
20
70
0
SEQEND
0
LINE
8
CUT
10
74.9423
20
70
11
74.9423
21
67.1962
0
LINE
8
CUT
10
74.0763
20
66.6962
11
69.2199
21
69.5
0
POLYLINE
8
CUT
66
1
70
0
0
VERTEX
8
CUT
10
73.9423
20
69
0
VERTEX
8
CUT
10
73.9423
20
67.9282
0
VERTEX
8
CUT
10
73.0141
20
68.4641
0
SEQEND
0
POLYLINE
8
CUT
66
1
70
0
0
VERTEX
8
CUT
10
71.282
20
69.4641
0
VERTEX
8
CUT
10
70.3538
20
70
0
VERTEX
8
CUT
10
70.3538
20
70
0
SEQEND
0
LINE
8
CUT
10
63.3538
20
67.2679
11
63.3538
21
54.7321
0
LINE
8
CUT
10
64.2199
20
54.2321
11
75.0763
21
60.5
0
LINE
8
CUT
10
75.0763
20
61.5
11
64.2199
21
67.7679
0
POLYLINE
8
CUT
66
1
70
0
0
VERTEX
8
CUT
10
68.282
20
64.2679
0
VERTEX
8
CUT
10
64.3538
20
66.5359
0
VERTEX
8
CUT
10
64.3538
20
62
0
SEQEND
0
POLYLINE
8
CUT
66
1
70
0
0
VERTEX
8
CUT
10
64.3538
20
60
0
VERTEX
8
CUT
10
64.3538
20
55.4641
0
VERTEX
8
CUT
10
68.282
20
57.7321
0
SEQEND
0
POLYLINE
8
CUT
66
1
70
0
0
VERTEX
8
CUT
10
70.0141
20
58.7321
0
VERTEX
8
CUT
10
73.9423
20
61
0
VERTEX
8
CUT
10
70.0141
20
63.2679
0
SEQEND
0
LINE
8
CUT
10
65.3538
20
63.8038
11
65.3538
21
58.1962
0
LINE
8
CUT
10
66.2199
20
57.6962
11
71.0763
21
60.5
0
LINE
8
CUT
10
71.0763
20
61.5
11
66.2199
21
64.3038
0
POLYLINE
8
CUT
66
1
70
0
0
VERTEX
8
CUT
10
67.282
20
62.5359
0
VERTEX
8
CUT
10
66.3538
20
63.0718
0
VERTEX
8
CUT
10
66.3538
20
62
0
SEQEND
0
POLYLINE
8
CUT
66
1
70
0
0
VERTEX
8
CUT
10
66.3538
20
60
0
VERTEX
8
CUT
10
66.3538
20
58.9282
0
VERTEX
8
CUT
10
67.282
20
59.4641
0
SEQEND
0
POLYLINE
8
CUT
66
1
70
0
0
VERTEX
8
CUT
10
69.0141
20
60.4641
0
VERTEX
8
CUT
10
69.9423
20
61
0
VERTEX
8
CUT
10
69.0141
20
61.5359
0
SEQEND
0
LINE
8
CUT
10
76.9423
20
58.2679
11
76.9423
21
45.7321
0
LINE
8
CUT
10
76.0763
20
45.2321
11
65.2199
21
51.5
0
LINE
8
CUT
10
65.2199
20
52.5
11
76.0763
21
58.7679
0
POLYLINE
8
CUT
66
1
70
0
0
VERTEX
8
CUT
10
72.0141
20
55.2679
0
VERTEX
8
CUT
10
75.9423
20
57.5359
0
VERTEX
8
CUT
10
75.9423
20
53
0
SEQEND
0
POLYLINE
8
CUT
66
1
70
0
0
VERTEX
8
CUT
10
75.9423
20
51
0
VERTEX
8
CUT
10
75.9423
20
46.4641
0
VERTEX
8
CUT
10
72.0141
20
48.7321
0
SEQEND
0
POLYLINE
8
CUT
66
1
70
0
0
VERTEX
8
CUT
10
70.282
20
49.7321
0
VERTEX
8
CUT
10
66.3538
20
52
0
VERTEX
8
CUT
10
70.282
20
54.2679
0
SEQEND
0
LINE
8
CUT
10
74.9423
20
54.8038
11
74.9423
21
49.1962
0
LINE
8
CUT
10
74.0763
20
48.6962
11
69.2199
21
51.5
0
LINE
8
CUT
10
69.2199
20
52.5
11
74.0763
21
55.3038
0
POLYLINE
8
CUT
66
1
70
0
0
VERTEX
8
CUT
10
73.0141
20
53.5359
0
VERTEX
8
CUT
10
73.9423
20
54.0718
0
VERTEX
8
CUT
10
73.9423
20
53
0
SEQEND
0
POLYLINE
8
CUT
66
1
70
0
0
VERTEX
8
CUT
10
73.9423
20
51
0
VERTEX
8
CUT
10
73.9423
20
49.9282
0
VERTEX
8
CUT
10
73.0141
20
50.4641
0
SEQEND
0
POLYLINE
8
CUT
66
1
70
0
0
VERTEX
8
CUT
10
71.282
20
51.4641
0
VERTEX
8
CUT
10
70.3538
20
52
0
VERTEX
8
CUT
10
71.282
20
52.5359
0
SEQEND
0
LINE
8
CUT
10
63.3538
20
49.2679
11
63.3538
21
36.7321
0
LINE
8
CUT
10
64.2199
20
36.2321
11
75.0763
21
42.5
0
LINE
8
CUT
10
75.0763
20
43.5
11
64.2199
21
49.7679
0
POLYLINE
8
CUT
66
1
70
0
0
VERTEX
8
CUT
10
68.282
20
46.2679
0
VERTEX
8
CUT
10
64.3538
20
48.5359
0
VERTEX
8
CUT
10
64.3538
20
44
0
SEQEND
0
POLYLINE
8
CUT
66
1
70
0
0
VERTEX
8
CUT
10
64.3538
20
42
0
VERTEX
8
CUT
10
64.3538
20
37.4641
0
VERTEX
8
CUT
10
68.282
20
39.7321
0
SEQEND
0
POLYLINE
8
CUT
66
1
70
0
0
VERTEX
8
CUT
10
70.0141
20
40.7321
0
VERTEX
8
CUT
10
73.9423
20
43
0
VERTEX
8
CUT
10
70.0141
20
45.2679
0
SEQEND
0
LINE
8
CUT
10
65.3538
20
45.8038
11
65.3538
21
40.1962
0
LINE
8
CUT
10
66.2199
20
39.6962
11
71.0763
21
42.5
0
LINE
8
CUT
10
71.0763
20
43.5
11
66.2199
21
46.3038
0
POLYLINE
8
CUT
66
1
70
0
0
VERTEX
8
CUT
10
67.282
20
44.5359
0
VERTEX
8
CUT
10
66.3538
20
45.0718
0
VERTEX
8
CUT
10
66.3538
20
44
0
SEQEND
0
POLYLINE
8
CUT
66
1
70
0
0
VERTEX
8
CUT
10
66.3538
20
42
0
VERTEX
8
CUT
10
66.3538
20
40.9282
0
VERTEX
8
CUT
10
67.282
20
41.4641
0
SEQEND
0
POLYLINE
8
CUT
66
1
70
0
0
VERTEX
8
CUT
10
69.0141
20
42.4641
0
VERTEX
8
CUT
10
69.9423
20
43
0
VERTEX
8
CUT
10
69.0141
20
43.5359
0
SEQEND
0
LINE
8
CUT
10
76.9423
20
40.2679
11
76.9423
21
27.7321
0
LINE
8
CUT
10
76.0763
20
27.2321
11
65.2199
21
33.5
0
LINE
8
CUT
10
65.2199
20
34.5
11
76.0763
21
40.7679
0
POLYLINE
8
CUT
66
1
70
0
0
VERTEX
8
CUT
10
72.0141
20
37.2679
0
VERTEX
8
CUT
10
75.9423
20
39.5359
0
VERTEX
8
CUT
10
75.9423
20
35
0
SEQEND
0
POLYLINE
8
CUT
66
1
70
0
0
VERTEX
8
CUT
10
75.9423
20
33
0
VERTEX
8
CUT
10
75.9423
20
28.4641
0
VERTEX
8
CUT
10
72.0141
20
30.7321
0
SEQEND
0
POLYLINE
8
CUT
66
1
70
0
0
VERTEX
8
CUT
10
70.282
20
31.7321
0
VERTEX
8
CUT
10
66.3538
20
34
0
VERTEX
8
CUT
10
70.282
20
36.2679
0
SEQEND
0
LINE
8
CUT
10
74.9423
20
36.8038
11
74.9423
21
31.1962
0
LINE
8
CUT
10
74.0763
20
30.6962
11
69.2199
21
33.5
0
LINE
8
CUT
10
69.2199
20
34.5
11
74.0763
21
37.3038
0
POLYLINE
8
CUT
66
1
70
0
0
VERTEX
8
CUT
10
73.0141
20
35.5359
0
VERTEX
8
CUT
10
73.9423
20
36.0718
0
VERTEX
8
CUT
10
73.9423
20
35
0
SEQEND
0
POLYLINE
8
CUT
66
1
70
0
0
VERTEX
8
CUT
10
73.9423
20
33
0
VERTEX
8
CUT
10
73.9423
20
31.9282
0
VERTEX
8
CUT
10
73.0141
20
32.4641
0
SEQEND
0
POLYLINE
8
CUT
66
1
70
0
0
VERTEX
8
CUT
10
71.282
20
33.4641
0
VERTEX
8
CUT
10
70.3538
20
34
0
VERTEX
8
CUT
10
71.282
20
34.5359
0
SEQEND
0
LINE
8
CUT
10
63.3538
20
31.2679
11
63.3538
21
18.7321
0
LINE
8
CUT
10
64.2199
20
18.2321
11
75.0763
21
24.5
0
LINE
8
CUT
10
75.0763
20
25.5
11
64.2199
21
31.7679
0
POLYLINE
8
CUT
66
1
70
0
0
VERTEX
8
CUT
10
68.282
20
28.2679
0
VERTEX
8
CUT
10
64.3538
20
30.5359
0
VERTEX
8
CUT
10
64.3538
20
26
0
SEQEND
0
POLYLINE
8
CUT
66
1
70
0
0
VERTEX
8
CUT
10
64.3538
20
24
0
VERTEX
8
CUT
10
64.3538
20
19.4641
0
VERTEX
8
CUT
10
68.282
20
21.7321
0
SEQEND
0
POLYLINE
8
CUT
66
1
70
0
0
VERTEX
8
CUT
10
70.0141
20
22.7321
0
VERTEX
8
CUT
10
73.9423
20
25
0
VERTEX
8
CUT
10
70.0141
20
27.2679
0
SEQEND
0
LINE
8
CUT
10
65.3538
20
27.8038
11
65.3538
21
22.1962
0
LINE
8
CUT
10
66.2199
20
21.6962
11
71.0763
21
24.5
0
LINE
8
CUT
10
71.0763
20
25.5
11
66.2199
21
28.3038
0
POLYLINE
8
CUT
66
1
70
0
0
VERTEX
8
CUT
10
67.282
20
26.5359
0
VERTEX
8
CUT
10
66.3538
20
27.0718
0
VERTEX
8
CUT
10
66.3538
20
26
0
SEQEND
0
POLYLINE
8
CUT
66
1
70
0
0
VERTEX
8
CUT
10
66.3538
20
24
0
VERTEX
8
CUT
10
66.3538
20
22.9282
0
VERTEX
8
CUT
10
67.282
20
23.4641
0
SEQEND
0
POLYLINE
8
CUT
66
1
70
0
0
VERTEX
8
CUT
10
69.0141
20
24.4641
0
VERTEX
8
CUT
10
69.9423
20
25
0
VERTEX
8
CUT
10
69.0141
20
25.5359
0
SEQEND
0
LINE
8
CUT
10
76.9423
20
22.2679
11
76.9423
21
9.7321
0
LINE
8
CUT
10
76.0763
20
9.2321
11
65.2199
21
15.5
0
LINE
8
CUT
10
65.2199
20
16.5
11
76.0763
21
22.7679
0
POLYLINE
8
CUT
66
1
70
0
0
VERTEX
8
CUT
10
72.0141
20
19.2679
0
VERTEX
8
CUT
10
75.9423
20
21.5359
0
VERTEX
8
CUT
10
75.9423
20
17
0
SEQEND
0
POLYLINE
8
CUT
66
1
70
0
0
VERTEX
8
CUT
10
75.9423
20
15
0
VERTEX
8
CUT
10
75.9423
20
10.4641
0
VERTEX
8
CUT
10
72.0141
20
12.7321
0
SEQEND
0
POLYLINE
8
CUT
66
1
70
0
0
VERTEX
8
CUT
10
70.282
20
13.7321
0
VERTEX
8
CUT
10
66.3538
20
16
0
VERTEX
8
CUT
10
70.282
20
18.2679
0
SEQEND
0
LINE
8
CUT
10
74.9423
20
18.8038
11
74.9423
21
13.1962
0
LINE
8
CUT
10
74.0763
20
12.6962
11
69.2199
21
15.5
0
LINE
8
CUT
10
69.2199
20
16.5
11
74.0763
21
19.3038
0
POLYLINE
8
CUT
66
1
70
0
0
VERTEX
8
CUT
10
73.0141
20
17.5359
0
VERTEX
8
CUT
10
73.9423
20
18.0718
0
VERTEX
8
CUT
10
73.9423
20
17
0
SEQEND
0
POLYLINE
8
CUT
66
1
70
0
0
VERTEX
8
CUT
10
73.9423
20
15
0
VERTEX
8
CUT
10
73.9423
20
13.9282
0
VERTEX
8
CUT
10
73.0141
20
14.4641
0
SEQEND
0
POLYLINE
8
CUT
66
1
70
0
0
VERTEX
8
CUT
10
71.282
20
15.4641
0
VERTEX
8
CUT
10
70.3538
20
16
0
VERTEX
8
CUT
10
71.282
20
16.5359
0
SEQEND
0
LINE
8
CUT
10
63.3538
20
13.2679
11
63.3538
21
0.7321
0
LINE
8
CUT
10
64.2199
20
0.2321
11
75.0763
21
6.5
0
LINE
8
CUT
10
75.0763
20
7.5
11
64.2199
21
13.7679
0
POLYLINE
8
CUT
66
1
70
0
0
VERTEX
8
CUT
10
68.282
20
10.2679
0
VERTEX
8
CUT
10
64.3538
20
12.5359
0
VERTEX
8
CUT
10
64.3538
20
8
0
SEQEND
0
POLYLINE
8
CUT
66
1
70
0
0
VERTEX
8
CUT
10
64.3538
20
6
0
VERTEX
8
CUT
10
64.3538
20
1.4641
0
VERTEX
8
CUT
10
68.282
20
3.7321
0
SEQEND
0
POLYLINE
8
CUT
66
1
70
0
0
VERTEX
8
CUT
10
70.0141
20
4.7321
0
VERTEX
8
CUT
10
73.9423
20
7
0
VERTEX
8
CUT
10
70.0141
20
9.2679
0
SEQEND
0
LINE
8
CUT
10
65.3538
20
9.8038
11
65.3538
21
4.1962
0
LINE
8
CUT
10
66.2199
20
3.6962
11
71.0763
21
6.5
0
LINE
8
CUT
10
71.0763
20
7.5
11
66.2199
21
10.3038
0
POLYLINE
8
CUT
66
1
70
0
0
VERTEX
8
CUT
10
67.282
20
8.5359
0
VERTEX
8
CUT
10
66.3538
20
9.0718
0
VERTEX
8
CUT
10
66.3538
20
8
0
SEQEND
0
POLYLINE
8
CUT
66
1
70
0
0
VERTEX
8
CUT
10
66.3538
20
6
0
VERTEX
8
CUT
10
66.3538
20
4.9282
0
VERTEX
8
CUT
10
67.282
20
5.4641
0
SEQEND
0
POLYLINE
8
CUT
66
1
70
0
0
VERTEX
8
CUT
10
69.0141
20
6.4641
0
VERTEX
8
CUT
10
69.9423
20
7
0
VERTEX
8
CUT
10
69.0141
20
7.5359
0
SEQEND
0
LINE
8
CUT
10
76.9423
20
4.2679
11
76.9423
21
0
0
LINE
8
CUT
10
67.8179
20
0
11
76.0763
21
4.7679
0
POLYLINE
8
CUT
66
1
70
0
0
VERTEX
8
CUT
10
72.0141
20
1.2679
0
VERTEX
8
CUT
10
75.9423
20
3.5359
0
VERTEX
8
CUT
10
75.9423
20
0
0
SEQEND
0
LINE
8
CUT
10
69.8179
20
0
11
70.282
21
0.2679
0
LINE
8
CUT
10
74.9423
20
0.8038
11
74.9423
21
0
0
LINE
8
CUT
10
71.8179
20
0
11
74.0763
21
1.3038
0
LINE
8
CUT
10
78.9423
20
70
11
78.9423
21
63.7321
0
LINE
8
CUT
10
79.8083
20
63.2321
11
90.6647
21
69.5
0
POLYLINE
8
CUT
66
1
70
0
0
VERTEX
8
CUT
10
79.9423
20
69
0
VERTEX
8
CUT
10
79.9423
20
64.4641
0
VERTEX
8
CUT
10
83.8705
20
66.7321
0
SEQEND
0
POLYLINE
8
CUT
66
1
70
0
0
VERTEX
8
CUT
10
85.6025
20
67.7321
0
VERTEX
8
CUT
10
89.5307
20
70
0
VERTEX
8
CUT
10
89.5307
20
70
0
SEQEND
0
LINE
8
CUT
10
80.9423
20
70
11
80.9423
21
67.1962
0
LINE
8
CUT
10
81.8083
20
66.6962
11
86.6647
21
69.5
0
POLYLINE
8
CUT
66
1
70
0
0
VERTEX
8
CUT
10
81.9423
20
69
0
VERTEX
8
CUT
10
81.9423
20
67.9282
0
VERTEX
8
CUT
10
82.8705
20
68.4641
0
SEQEND
0
POLYLINE
8
CUT
66
1
70
0
0
VERTEX
8
CUT
10
84.6025
20
69.4641
0
VERTEX
8
CUT
10
85.5307
20
70
0
VERTEX
8
CUT
10
85.5307
20
70
0
SEQEND
0
LINE
8
CUT
10
92.5307
20
67.2679
11
92.5307
21
54.7321
0
LINE
8
CUT
10
91.6647
20
54.2321
11
80.8083
21
60.5
0
LINE
8
CUT
10
80.8083
20
61.5
11
91.6647
21
67.7679
0
POLYLINE
8
CUT
66
1
70
0
0
VERTEX
8
CUT
10
87.6025
20
64.2679
0
VERTEX
8
CUT
10
91.5307
20
66.5359
0
VERTEX
8
CUT
10
91.5307
20
62
0
SEQEND
0
POLYLINE
8
CUT
66
1
70
0
0
VERTEX
8
CUT
10
91.5307
20
60
0
VERTEX
8
CUT
10
91.5307
20
55.4641
0
VERTEX
8
CUT
10
87.6025
20
57.7321
0
SEQEND
0
POLYLINE
8
CUT
66
1
70
0
0
VERTEX
8
CUT
10
85.8705
20
58.7321
0
VERTEX
8
CUT
10
81.9423
20
61
0
VERTEX
8
CUT
10
85.8705
20
63.2679
0
SEQEND
0
LINE
8
CUT
10
90.5307
20
63.8038
11
90.5307
21
58.1962
0
LINE
8
CUT
10
89.6647
20
57.6962
11
84.8083
21
60.5
0
LINE
8
CUT
10
84.8083
20
61.5
11
89.6647
21
64.3038
0
POLYLINE
8
CUT
66
1
70
0
0
VERTEX
8
CUT
10
88.6025
20
62.5359
0
VERTEX
8
CUT
10
89.5307
20
63.0718
0
VERTEX
8
CUT
10
89.5307
20
62
0
SEQEND
0
POLYLINE
8
CUT
66
1
70
0
0
VERTEX
8
CUT
10
89.5307
20
60
0
VERTEX
8
CUT
10
89.5307
20
58.9282
0
VERTEX
8
CUT
10
88.6025
20
59.4641
0
SEQEND
0
POLYLINE
8
CUT
66
1
70
0
0
VERTEX
8
CUT
10
86.8705
20
60.4641
0
VERTEX
8
CUT
10
85.9423
20
61
0
VERTEX
8
CUT
10
86.8705
20
61.5359
0
SEQEND
0
LINE
8
CUT
10
78.9423
20
58.2679
11
78.9423
21
45.7321
0
LINE
8
CUT
10
79.8083
20
45.2321
11
90.6647
21
51.5
0
LINE
8
CUT
10
90.6647
20
52.5
11
79.8083
21
58.7679
0
POLYLINE
8
CUT
66
1
70
0
0
VERTEX
8
CUT
10
83.8705
20
55.2679
0
VERTEX
8
CUT
10
79.9423
20
57.5359
0
VERTEX
8
CUT
10
79.9423
20
53
0
SEQEND
0
POLYLINE
8
CUT
66
1
70
0
0
VERTEX
8
CUT
10
79.9423
20
51
0
VERTEX
8
CUT
10
79.9423
20
46.4641
0
VERTEX
8
CUT
10
83.8705
20
48.7321
0
SEQEND
0
POLYLINE
8
CUT
66
1
70
0
0
VERTEX
8
CUT
10
85.6025
20
49.7321
0
VERTEX
8
CUT
10
89.5307
20
52
0
VERTEX
8
CUT
10
85.6025
20
54.2679
0
SEQEND
0
LINE
8
CUT
10
80.9423
20
54.8038
11
80.9423
21
49.1962
0
LINE
8
CUT
10
81.8083
20
48.6962
11
86.6647
21
51.5
0
LINE
8
CUT
10
86.6647
20
52.5
11
81.8083
21
55.3038
0
POLYLINE
8
CUT
66
1
70
0
0
VERTEX
8
CUT
10
82.8705
20
53.5359
0
VERTEX
8
CUT
10
81.9423
20
54.0718
0
VERTEX
8
CUT
10
81.9423
20
53
0
SEQEND
0
POLYLINE
8
CUT
66
1
70
0
0
VERTEX
8
CUT
10
81.9423
20
51
0
VERTEX
8
CUT
10
81.9423
20
49.9282
0
VERTEX
8
CUT
10
82.8705
20
50.4641
0
SEQEND
0
POLYLINE
8
CUT
66
1
70
0
0
VERTEX
8
CUT
10
84.6025
20
51.4641
0
VERTEX
8
CUT
10
85.5307
20
52
0
VERTEX
8
CUT
10
84.6025
20
52.5359
0
SEQEND
0
LINE
8
CUT
10
92.5307
20
49.2679
11
92.5307
21
36.7321
0
LINE
8
CUT
10
91.6647
20
36.2321
11
80.8083
21
42.5
0
LINE
8
CUT
10
80.8083
20
43.5
11
91.6647
21
49.7679
0
POLYLINE
8
CUT
66
1
70
0
0
VERTEX
8
CUT
10
87.6025
20
46.2679
0
VERTEX
8
CUT
10
91.5307
20
48.5359
0
VERTEX
8
CUT
10
91.5307
20
44
0
SEQEND
0
POLYLINE
8
CUT
66
1
70
0
0
VERTEX
8
CUT
10
91.5307
20
42
0
VERTEX
8
CUT
10
91.5307
20
37.4641
0
VERTEX
8
CUT
10
87.6025
20
39.7321
0
SEQEND
0
POLYLINE
8
CUT
66
1
70
0
0
VERTEX
8
CUT
10
85.8705
20
40.7321
0
VERTEX
8
CUT
10
81.9423
20
43
0
VERTEX
8
CUT
10
85.8705
20
45.2679
0
SEQEND
0
LINE
8
CUT
10
90.5307
20
45.8038
11
90.5307
21
40.1962
0
LINE
8
CUT
10
89.6647
20
39.6962
11
84.8083
21
42.5
0
LINE
8
CUT
10
84.8083
20
43.5
11
89.6647
21
46.3038
0
POLYLINE
8
CUT
66
1
70
0
0
VERTEX
8
CUT
10
88.6025
20
44.5359
0
VERTEX
8
CUT
10
89.5307
20
45.0718
0
VERTEX
8
CUT
10
89.5307
20
44
0
SEQEND
0
POLYLINE
8
CUT
66
1
70
0
0
VERTEX
8
CUT
10
89.5307
20
42
0
VERTEX
8
CUT
10
89.5307
20
40.9282
0
VERTEX
8
CUT
10
88.6025
20
41.4641
0
SEQEND
0
POLYLINE
8
CUT
66
1
70
0
0
VERTEX
8
CUT
10
86.8705
20
42.4641
0
VERTEX
8
CUT
10
85.9423
20
43
0
VERTEX
8
CUT
10
86.8705
20
43.5359
0
SEQEND
0
LINE
8
CUT
10
78.9423
20
40.2679
11
78.9423
21
27.7321
0
LINE
8
CUT
10
79.8083
20
27.2321
11
90.6647
21
33.5
0
LINE
8
CUT
10
90.6647
20
34.5
11
79.8083
21
40.7679
0
POLYLINE
8
CUT
66
1
70
0
0
VERTEX
8
CUT
10
83.8705
20
37.2679
0
VERTEX
8
CUT
10
79.9423
20
39.5359
0
VERTEX
8
CUT
10
79.9423
20
35
0
SEQEND
0
POLYLINE
8
CUT
66
1
70
0
0
VERTEX
8
CUT
10
79.9423
20
33
0
VERTEX
8
CUT
10
79.9423
20
28.4641
0
VERTEX
8
CUT
10
83.8705
20
30.7321
0
SEQEND
0
POLYLINE
8
CUT
66
1
70
0
0
VERTEX
8
CUT
10
85.6025
20
31.7321
0
VERTEX
8
CUT
10
89.5307
20
34
0
VERTEX
8
CUT
10
85.6025
20
36.2679
0
SEQEND
0
LINE
8
CUT
10
80.9423
20
36.8038
11
80.9423
21
31.1962
0
LINE
8
CUT
10
81.8083
20
30.6962
11
86.6647
21
33.5
0
LINE
8
CUT
10
86.6647
20
34.5
11
81.8083
21
37.3038
0
POLYLINE
8
CUT
66
1
70
0
0
VERTEX
8
CUT
10
82.8705
20
35.5359
0
VERTEX
8
CUT
10
81.9423
20
36.0718
0
VERTEX
8
CUT
10
81.9423
20
35
0
SEQEND
0
POLYLINE
8
CUT
66
1
70
0
0
VERTEX
8
CUT
10
81.9423
20
33
0
VERTEX
8
CUT
10
81.9423
20
31.9282
0
VERTEX
8
CUT
10
82.8705
20
32.4641
0
SEQEND
0
POLYLINE
8
CUT
66
1
70
0
0
VERTEX
8
CUT
10
84.6025
20
33.4641
0
VERTEX
8
CUT
10
85.5307
20
34
0
VERTEX
8
CUT
10
84.6025
20
34.5359
0
SEQEND
0
LINE
8
CUT
10
92.5307
20
31.2679
11
92.5307
21
18.7321
0
LINE
8
CUT
10
91.6647
20
18.2321
11
80.8083
21
24.5
0
LINE
8
CUT
10
80.8083
20
25.5
11
91.6647
21
31.7679
0
POLYLINE
8
CUT
66
1
70
0
0
VERTEX
8
CUT
10
87.6025
20
28.2679
0
VERTEX
8
CUT
10
91.5307
20
30.5359
0
VERTEX
8
CUT
10
91.5307
20
26
0
SEQEND
0
POLYLINE
8
CUT
66
1
70
0
0
VERTEX
8
CUT
10
91.5307
20
24
0
VERTEX
8
CUT
10
91.5307
20
19.4641
0
VERTEX
8
CUT
10
87.6025
20
21.7321
0
SEQEND
0
POLYLINE
8
CUT
66
1
70
0
0
VERTEX
8
CUT
10
85.8705
20
22.7321
0
VERTEX
8
CUT
10
81.9423
20
25
0
VERTEX
8
CUT
10
85.8705
20
27.2679
0
SEQEND
0
LINE
8
CUT
10
90.5307
20
27.8038
11
90.5307
21
22.1962
0
LINE
8
CUT
10
89.6647
20
21.6962
11
84.8083
21
24.5
0
LINE
8
CUT
10
84.8083
20
25.5
11
89.6647
21
28.3038
0
POLYLINE
8
CUT
66
1
70
0
0
VERTEX
8
CUT
10
88.6025
20
26.5359
0
VERTEX
8
CUT
10
89.5307
20
27.0718
0
VERTEX
8
CUT
10
89.5307
20
26
0
SEQEND
0
POLYLINE
8
CUT
66
1
70
0
0
VERTEX
8
CUT
10
89.5307
20
24
0
VERTEX
8
CUT
10
89.5307
20
22.9282
0
VERTEX
8
CUT
10
88.6025
20
23.4641
0
SEQEND
0
POLYLINE
8
CUT
66
1
70
0
0
VERTEX
8
CUT
10
86.8705
20
24.4641
0
VERTEX
8
CUT
10
85.9423
20
25
0
VERTEX
8
CUT
10
86.8705
20
25.5359
0
SEQEND
0
LINE
8
CUT
10
78.9423
20
22.2679
11
78.9423
21
9.7321
0
LINE
8
CUT
10
79.8083
20
9.2321
11
90.6647
21
15.5
0
LINE
8
CUT
10
90.6647
20
16.5
11
79.8083
21
22.7679
0
POLYLINE
8
CUT
66
1
70
0
0
VERTEX
8
CUT
10
83.8705
20
19.2679
0
VERTEX
8
CUT
10
79.9423
20
21.5359
0
VERTEX
8
CUT
10
79.9423
20
17
0
SEQEND
0
POLYLINE
8
CUT
66
1
70
0
0
VERTEX
8
CUT
10
79.9423
20
15
0
VERTEX
8
CUT
10
79.9423
20
10.4641
0
VERTEX
8
CUT
10
83.8705
20
12.7321
0
SEQEND
0
POLYLINE
8
CUT
66
1
70
0
0
VERTEX
8
CUT
10
85.6025
20
13.7321
0
VERTEX
8
CUT
10
89.5307
20
16
0
VERTEX
8
CUT
10
85.6025
20
18.2679
0
SEQEND
0
LINE
8
CUT
10
80.9423
20
18.8038
11
80.9423
21
13.1962
0
LINE
8
CUT
10
81.8083
20
12.6962
11
86.6647
21
15.5
0
LINE
8
CUT
10
86.6647
20
16.5
11
81.8083
21
19.3038
0
POLYLINE
8
CUT
66
1
70
0
0
VERTEX
8
CUT
10
82.8705
20
17.5359
0
VERTEX
8
CUT
10
81.9423
20
18.0718
0
VERTEX
8
CUT
10
81.9423
20
17
0
SEQEND
0
POLYLINE
8
CUT
66
1
70
0
0
VERTEX
8
CUT
10
81.9423
20
15
0
VERTEX
8
CUT
10
81.9423
20
13.9282
0
VERTEX
8
CUT
10
82.8705
20
14.4641
0
SEQEND
0
POLYLINE
8
CUT
66
1
70
0
0
VERTEX
8
CUT
10
84.6025
20
15.4641
0
VERTEX
8
CUT
10
85.5307
20
16
0
VERTEX
8
CUT
10
84.6025
20
16.5359
0
SEQEND
0
LINE
8
CUT
10
92.5307
20
13.2679
11
92.5307
21
0.7321
0
LINE
8
CUT
10
91.6647
20
0.2321
11
80.8083
21
6.5
0
LINE
8
CUT
10
80.8083
20
7.5
11
91.6647
21
13.7679
0
POLYLINE
8
CUT
66
1
70
0
0
VERTEX
8
CUT
10
87.6025
20
10.2679
0
VERTEX
8
CUT
10
91.5307
20
12.5359
0
VERTEX
8
CUT
10
91.5307
20
8
0
SEQEND
0
POLYLINE
8
CUT
66
1
70
0
0
VERTEX
8
CUT
10
91.5307
20
6
0
VERTEX
8
CUT
10
91.5307
20
1.4641
0
VERTEX
8
CUT
10
87.6025
20
3.7321
0
SEQEND
0
POLYLINE
8
CUT
66
1
70
0
0
VERTEX
8
CUT
10
85.8705
20
4.7321
0
VERTEX
8
CUT
10
81.9423
20
7
0
VERTEX
8
CUT
10
85.8705
20
9.2679
0
SEQEND
0
LINE
8
CUT
10
90.5307
20
9.8038
11
90.5307
21
4.1962
0
LINE
8
CUT
10
89.6647
20
3.6962
11
84.8083
21
6.5
0
LINE
8
CUT
10
84.8083
20
7.5
11
89.6647
21
10.3038
0
POLYLINE
8
CUT
66
1
70
0
0
VERTEX
8
CUT
10
88.6025
20
8.5359
0
VERTEX
8
CUT
10
89.5307
20
9.0718
0
VERTEX
8
CUT
10
89.5307
20
8
0
SEQEND
0
POLYLINE
8
CUT
66
1
70
0
0
VERTEX
8
CUT
10
89.5307
20
6
0
VERTEX
8
CUT
10
89.5307
20
4.9282
0
VERTEX
8
CUT
10
88.6025
20
5.4641
0
SEQEND
0
POLYLINE
8
CUT
66
1
70
0
0
VERTEX
8
CUT
10
86.8705
20
6.4641
0
VERTEX
8
CUT
10
85.9423
20
7
0
VERTEX
8
CUT
10
86.8705
20
7.5359
0
SEQEND
0
LINE
8
CUT
10
78.9423
20
4.2679
11
78.9423
21
0
0
LINE
8
CUT
10
88.0666
20
0
11
79.8083
21
4.7679
0
POLYLINE
8
CUT
66
1
70
0
0
VERTEX
8
CUT
10
83.8705
20
1.2679
0
VERTEX
8
CUT
10
79.9423
20
3.5359
0
VERTEX
8
CUT
10
79.9423
20
0
0
SEQEND
0
LINE
8
CUT
10
86.0666
20
0
11
85.6025
21
0.2679
0
LINE
8
CUT
10
80.9423
20
0.8038
11
80.9423
21
0
0
LINE
8
CUT
10
84.0666
20
0
11
81.8083
21
1.3038
0
LINE
8
CUT
10
108.1192
20
70
11
108.1192
21
63.7321
0
LINE
8
CUT
10
107.2532
20
63.2321
11
96.3968
21
69.5
0
POLYLINE
8
CUT
66
1
70
0
0
VERTEX
8
CUT
10
107.1192
20
69
0
VERTEX
8
CUT
10
107.1192
20
64.4641
0
VERTEX
8
CUT
10
103.191
20
66.7321
0
SEQEND
0
POLYLINE
8
CUT
66
1
70
0
0
VERTEX
8
CUT
10
101.4589
20
67.7321
0
VERTEX
8
CUT
10
97.5307
20
70
0
VERTEX
8
CUT
10
97.5307
20
70
0
SEQEND
0
LINE
8
CUT
10
106.1192
20
70
11
106.1192
21
67.1962
0
LINE
8
CUT
10
105.2532
20
66.6962
11
100.3968
21
69.5
0
POLYLINE
8
CUT
66
1
70
0
0
VERTEX
8
CUT
10
105.1192
20
69
0
VERTEX
8
CUT
10
105.1192
20
67.9282
0
VERTEX
8
CUT
10
104.191
20
68.4641
0
SEQEND
0
POLYLINE
8
CUT
66
1
70
0
0
VERTEX
8
CUT
10
102.4589
20
69.4641
0
VERTEX
8
CUT
10
101.5307
20
70
0
VERTEX
8
CUT
10
101.5307
20
70
0
SEQEND
0
LINE
8
CUT
10
94.5307
20
67.2679
11
94.5307
21
54.7321
0
LINE
8
CUT
10
95.3968
20
54.2321
11
106.2532
21
60.5
0
LINE
8
CUT
10
106.2532
20
61.5
11
95.3968
21
67.7679
0
POLYLINE
8
CUT
66
1
70
0
0
VERTEX
8
CUT
10
99.4589
20
64.2679
0
VERTEX
8
CUT
10
95.5307
20
66.5359
0
VERTEX
8
CUT
10
95.5307
20
62
0
SEQEND
0
POLYLINE
8
CUT
66
1
70
0
0
VERTEX
8
CUT
10
95.5307
20
60
0
VERTEX
8
CUT
10
95.5307
20
55.4641
0
VERTEX
8
CUT
10
99.4589
20
57.7321
0
SEQEND
0
POLYLINE
8
CUT
66
1
70
0
0
VERTEX
8
CUT
10
101.191
20
58.7321
0
VERTEX
8
CUT
10
105.1192
20
61
0
VERTEX
8
CUT
10
101.191
20
63.2679
0
SEQEND
0
LINE
8
CUT
10
96.5307
20
63.8038
11
96.5307
21
58.1962
0
LINE
8
CUT
10
97.3968
20
57.6962
11
102.2532
21
60.5
0
LINE
8
CUT
10
102.2532
20
61.5
11
97.3968
21
64.3038
0
POLYLINE
8
CUT
66
1
70
0
0
VERTEX
8
CUT
10
98.4589
20
62.5359
0
VERTEX
8
CUT
10
97.5307
20
63.0718
0
VERTEX
8
CUT
10
97.5307
20
62
0
SEQEND
0
POLYLINE
8
CUT
66
1
70
0
0
VERTEX
8
CUT
10
97.5307
20
60
0
VERTEX
8
CUT
10
97.5307
20
58.9282
0
VERTEX
8
CUT
10
98.4589
20
59.4641
0
SEQEND
0
POLYLINE
8
CUT
66
1
70
0
0
VERTEX
8
CUT
10
100.191
20
60.4641
0
VERTEX
8
CUT
10
101.1192
20
61
0
VERTEX
8
CUT
10
100.191
20
61.5359
0
SEQEND
0
LINE
8
CUT
10
108.1192
20
58.2679
11
108.1192
21
45.7321
0
LINE
8
CUT
10
107.2532
20
45.2321
11
96.3968
21
51.5
0
LINE
8
CUT
10
96.3968
20
52.5
11
107.2532
21
58.7679
0
POLYLINE
8
CUT
66
1
70
0
0
VERTEX
8
CUT
10
103.191
20
55.2679
0
VERTEX
8
CUT
10
107.1192
20
57.5359
0
VERTEX
8
CUT
10
107.1192
20
53
0
SEQEND
0
POLYLINE
8
CUT
66
1
70
0
0
VERTEX
8
CUT
10
107.1192
20
51
0
VERTEX
8
CUT
10
107.1192
20
46.4641
0
VERTEX
8
CUT
10
103.191
20
48.7321
0
SEQEND
0
POLYLINE
8
CUT
66
1
70
0
0
VERTEX
8
CUT
10
101.4589
20
49.7321
0
VERTEX
8
CUT
10
97.5307
20
52
0
VERTEX
8
CUT
10
101.4589
20
54.2679
0
SEQEND
0
LINE
8
CUT
10
106.1192
20
54.8038
11
106.1192
21
49.1962
0
LINE
8
CUT
10
105.2532
20
48.6962
11
100.3968
21
51.5
0
LINE
8
CUT
10
100.3968
20
52.5
11
105.2532
21
55.3038
0
POLYLINE
8
CUT
66
1
70
0
0
VERTEX
8
CUT
10
104.191
20
53.5359
0
VERTEX
8
CUT
10
105.1192
20
54.0718
0
VERTEX
8
CUT
10
105.1192
20
53
0
SEQEND
0
POLYLINE
8
CUT
66
1
70
0
0
VERTEX
8
CUT
10
105.1192
20
51
0
VERTEX
8
CUT
10
105.1192
20
49.9282
0
VERTEX
8
CUT
10
104.191
20
50.4641
0
SEQEND
0
POLYLINE
8
CUT
66
1
70
0
0
VERTEX
8
CUT
10
102.4589
20
51.4641
0
VERTEX
8
CUT
10
101.5307
20
52
0
VERTEX
8
CUT
10
102.4589
20
52.5359
0
SEQEND
0
LINE
8
CUT
10
94.5307
20
49.2679
11
94.5307
21
36.7321
0
LINE
8
CUT
10
95.3968
20
36.2321
11
106.2532
21
42.5
0
LINE
8
CUT
10
106.2532
20
43.5
11
95.3968
21
49.7679
0
POLYLINE
8
CUT
66
1
70
0
0
VERTEX
8
CUT
10
99.4589
20
46.2679
0
VERTEX
8
CUT
10
95.5307
20
48.5359
0
VERTEX
8
CUT
10
95.5307
20
44
0
SEQEND
0
POLYLINE
8
CUT
66
1
70
0
0
VERTEX
8
CUT
10
95.5307
20
42
0
VERTEX
8
CUT
10
95.5307
20
37.4641
0
VERTEX
8
CUT
10
99.4589
20
39.7321
0
SEQEND
0
POLYLINE
8
CUT
66
1
70
0
0
VERTEX
8
CUT
10
101.191
20
40.7321
0
VERTEX
8
CUT
10
105.1192
20
43
0
VERTEX
8
CUT
10
101.191
20
45.2679
0
SEQEND
0
LINE
8
CUT
10
96.5307
20
45.8038
11
96.5307
21
40.1962
0
LINE
8
CUT
10
97.3968
20
39.6962
11
102.2532
21
42.5
0
LINE
8
CUT
10
102.2532
20
43.5
11
97.3968
21
46.3038
0
POLYLINE
8
CUT
66
1
70
0
0
VERTEX
8
CUT
10
98.4589
20
44.5359
0
VERTEX
8
CUT
10
97.5307
20
45.0718
0
VERTEX
8
CUT
10
97.5307
20
44
0
SEQEND
0
POLYLINE
8
CUT
66
1
70
0
0
VERTEX
8
CUT
10
97.5307
20
42
0
VERTEX
8
CUT
10
97.5307
20
40.9282
0
VERTEX
8
CUT
10
98.4589
20
41.4641
0
SEQEND
0
POLYLINE
8
CUT
66
1
70
0
0
VERTEX
8
CUT
10
100.191
20
42.4641
0
VERTEX
8
CUT
10
101.1192
20
43
0
VERTEX
8
CUT
10
100.191
20
43.5359
0
SEQEND
0
LINE
8
CUT
10
108.1192
20
40.2679
11
108.1192
21
27.7321
0
LINE
8
CUT
10
107.2532
20
27.2321
11
96.3968
21
33.5
0
LINE
8
CUT
10
96.3968
20
34.5
11
107.2532
21
40.7679
0
POLYLINE
8
CUT
66
1
70
0
0
VERTEX
8
CUT
10
103.191
20
37.2679
0
VERTEX
8
CUT
10
107.1192
20
39.5359
0
VERTEX
8
CUT
10
107.1192
20
35
0
SEQEND
0
POLYLINE
8
CUT
66
1
70
0
0
VERTEX
8
CUT
10
107.1192
20
33
0
VERTEX
8
CUT
10
107.1192
20
28.4641
0
VERTEX
8
CUT
10
103.191
20
30.7321
0
SEQEND
0
POLYLINE
8
CUT
66
1
70
0
0
VERTEX
8
CUT
10
101.4589
20
31.7321
0
VERTEX
8
CUT
10
97.5307
20
34
0
VERTEX
8
CUT
10
101.4589
20
36.2679
0
SEQEND
0
LINE
8
CUT
10
106.1192
20
36.8038
11
106.1192
21
31.1962
0
LINE
8
CUT
10
105.2532
20
30.6962
11
100.3968
21
33.5
0
LINE
8
CUT
10
100.3968
20
34.5
11
105.2532
21
37.3038
0
POLYLINE
8
CUT
66
1
70
0
0
VERTEX
8
CUT
10
104.191
20
35.5359
0
VERTEX
8
CUT
10
105.1192
20
36.0718
0
VERTEX
8
CUT
10
105.1192
20
35
0
SEQEND
0
POLYLINE
8
CUT
66
1
70
0
0
VERTEX
8
CUT
10
105.1192
20
33
0
VERTEX
8
CUT
10
105.1192
20
31.9282
0
VERTEX
8
CUT
10
104.191
20
32.4641
0
SEQEND
0
POLYLINE
8
CUT
66
1
70
0
0
VERTEX
8
CUT
10
102.4589
20
33.4641
0
VERTEX
8
CUT
10
101.5307
20
34
0
VERTEX
8
CUT
10
102.4589
20
34.5359
0
SEQEND
0
LINE
8
CUT
10
94.5307
20
31.2679
11
94.5307
21
18.7321
0
LINE
8
CUT
10
95.3968
20
18.2321
11
106.2532
21
24.5
0
LINE
8
CUT
10
106.2532
20
25.5
11
95.3968
21
31.7679
0
POLYLINE
8
CUT
66
1
70
0
0
VERTEX
8
CUT
10
99.4589
20
28.2679
0
VERTEX
8
CUT
10
95.5307
20
30.5359
0
VERTEX
8
CUT
10
95.5307
20
26
0
SEQEND
0
POLYLINE
8
CUT
66
1
70
0
0
VERTEX
8
CUT
10
95.5307
20
24
0
VERTEX
8
CUT
10
95.5307
20
19.4641
0
VERTEX
8
CUT
10
99.4589
20
21.7321
0
SEQEND
0
POLYLINE
8
CUT
66
1
70
0
0
VERTEX
8
CUT
10
101.191
20
22.7321
0
VERTEX
8
CUT
10
105.1192
20
25
0
VERTEX
8
CUT
10
101.191
20
27.2679
0
SEQEND
0
LINE
8
CUT
10
96.5307
20
27.8038
11
96.5307
21
22.1962
0
LINE
8
CUT
10
97.3968
20
21.6962
11
102.2532
21
24.5
0
LINE
8
CUT
10
102.2532
20
25.5
11
97.3968
21
28.3038
0
POLYLINE
8
CUT
66
1
70
0
0
VERTEX
8
CUT
10
98.4589
20
26.5359
0
VERTEX
8
CUT
10
97.5307
20
27.0718
0
VERTEX
8
CUT
10
97.5307
20
26
0
SEQEND
0
POLYLINE
8
CUT
66
1
70
0
0
VERTEX
8
CUT
10
97.5307
20
24
0
VERTEX
8
CUT
10
97.5307
20
22.9282
0
VERTEX
8
CUT
10
98.4589
20
23.4641
0
SEQEND
0
POLYLINE
8
CUT
66
1
70
0
0
VERTEX
8
CUT
10
100.191
20
24.4641
0
VERTEX
8
CUT
10
101.1192
20
25
0
VERTEX
8
CUT
10
100.191
20
25.5359
0
SEQEND
0
LINE
8
CUT
10
108.1192
20
22.2679
11
108.1192
21
9.7321
0
LINE
8
CUT
10
107.2532
20
9.2321
11
96.3968
21
15.5
0
LINE
8
CUT
10
96.3968
20
16.5
11
107.2532
21
22.7679
0
POLYLINE
8
CUT
66
1
70
0
0
VERTEX
8
CUT
10
103.191
20
19.2679
0
VERTEX
8
CUT
10
107.1192
20
21.5359
0
VERTEX
8
CUT
10
107.1192
20
17
0
SEQEND
0
POLYLINE
8
CUT
66
1
70
0
0
VERTEX
8
CUT
10
107.1192
20
15
0
VERTEX
8
CUT
10
107.1192
20
10.4641
0
VERTEX
8
CUT
10
103.191
20
12.7321
0
SEQEND
0
POLYLINE
8
CUT
66
1
70
0
0
VERTEX
8
CUT
10
101.4589
20
13.7321
0
VERTEX
8
CUT
10
97.5307
20
16
0
VERTEX
8
CUT
10
101.4589
20
18.2679
0
SEQEND
0
LINE
8
CUT
10
106.1192
20
18.8038
11
106.1192
21
13.1962
0
LINE
8
CUT
10
105.2532
20
12.6962
11
100.3968
21
15.5
0
LINE
8
CUT
10
100.3968
20
16.5
11
105.2532
21
19.3038
0
POLYLINE
8
CUT
66
1
70
0
0
VERTEX
8
CUT
10
104.191
20
17.5359
0
VERTEX
8
CUT
10
105.1192
20
18.0718
0
VERTEX
8
CUT
10
105.1192
20
17
0
SEQEND
0
POLYLINE
8
CUT
66
1
70
0
0
VERTEX
8
CUT
10
105.1192
20
15
0
VERTEX
8
CUT
10
105.1192
20
13.9282
0
VERTEX
8
CUT
10
104.191
20
14.4641
0
SEQEND
0
POLYLINE
8
CUT
66
1
70
0
0
VERTEX
8
CUT
10
102.4589
20
15.4641
0
VERTEX
8
CUT
10
101.5307
20
16
0
VERTEX
8
CUT
10
102.4589
20
16.5359
0
SEQEND
0
LINE
8
CUT
10
94.5307
20
13.2679
11
94.5307
21
0.7321
0
LINE
8
CUT
10
95.3968
20
0.2321
11
106.2532
21
6.5
0
LINE
8
CUT
10
106.2532
20
7.5
11
95.3968
21
13.7679
0
POLYLINE
8
CUT
66
1
70
0
0
VERTEX
8
CUT
10
99.4589
20
10.2679
0
VERTEX
8
CUT
10
95.5307
20
12.5359
0
VERTEX
8
CUT
10
95.5307
20
8
0
SEQEND
0
POLYLINE
8
CUT
66
1
70
0
0
VERTEX
8
CUT
10
95.5307
20
6
0
VERTEX
8
CUT
10
95.5307
20
1.4641
0
VERTEX
8
CUT
10
99.4589
20
3.7321
0
SEQEND
0
POLYLINE
8
CUT
66
1
70
0
0
VERTEX
8
CUT
10
101.191
20
4.7321
0
VERTEX
8
CUT
10
105.1192
20
7
0
VERTEX
8
CUT
10
101.191
20
9.2679
0
SEQEND
0
LINE
8
CUT
10
96.5307
20
9.8038
11
96.5307
21
4.1962
0
LINE
8
CUT
10
97.3968
20
3.6962
11
102.2532
21
6.5
0
LINE
8
CUT
10
102.2532
20
7.5
11
97.3968
21
10.3038
0
POLYLINE
8
CUT
66
1
70
0
0
VERTEX
8
CUT
10
98.4589
20
8.5359
0
VERTEX
8
CUT
10
97.5307
20
9.0718
0
VERTEX
8
CUT
10
97.5307
20
8
0
SEQEND
0
POLYLINE
8
CUT
66
1
70
0
0
VERTEX
8
CUT
10
97.5307
20
6
0
VERTEX
8
CUT
10
97.5307
20
4.9282
0
VERTEX
8
CUT
10
98.4589
20
5.4641
0
SEQEND
0
POLYLINE
8
CUT
66
1
70
0
0
VERTEX
8
CUT
10
100.191
20
6.4641
0
VERTEX
8
CUT
10
101.1192
20
7
0
VERTEX
8
CUT
10
100.191
20
7.5359
0
SEQEND
0
LINE
8
CUT
10
108.1192
20
4.2679
11
108.1192
21
0
0
LINE
8
CUT
10
98.9948
20
0
11
107.2532
21
4.7679
0
POLYLINE
8
CUT
66
1
70
0
0
VERTEX
8
CUT
10
103.191
20
1.2679
0
VERTEX
8
CUT
10
107.1192
20
3.5359
0
VERTEX
8
CUT
10
107.1192
20
0
0
SEQEND
0
LINE
8
CUT
10
100.9948
20
0
11
101.4589
21
0.2679
0
LINE
8
CUT
10
106.1192
20
0.8038
11
106.1192
21
0
0
LINE
8
CUT
10
102.9948
20
0
11
105.2532
21
1.3038
0
LINE
8
CUT
10
110.1192
20
70
11
110.1192
21
63.7321
0
LINE
8
CUT
10
110.9852
20
63.2321
11
120
21
68.4367
0
POLYLINE
8
CUT
66
1
70
0
0
VERTEX
8
CUT
10
111.1192
20
69
0
VERTEX
8
CUT
10
111.1192
20
64.4641
0
VERTEX
8
CUT
10
115.0474
20
66.7321
0
SEQEND
0
LINE
8
CUT
10
116.7795
20
67.7321
11
120
21
69.5914
0
LINE
8
CUT
10
112.1192
20
70
11
112.1192
21
67.1962
0
LINE
8
CUT
10
112.9852
20
66.6962
11
117.8416
21
69.5
0
POLYLINE
8
CUT
66
1
70
0
0
VERTEX
8
CUT
10
113.1192
20
69
0
VERTEX
8
CUT
10
113.1192
20
67.9282
0
VERTEX
8
CUT
10
114.0474
20
68.4641
0
SEQEND
0
POLYLINE
8
CUT
66
1
70
0
0
VERTEX
8
CUT
10
115.7795
20
69.4641
0
VERTEX
8
CUT
10
116.7077
20
70
0
VERTEX
8
CUT
10
116.7077
20
70
0
SEQEND
0
LINE
8
CUT
10
120
20
55.8727
11
111.9852
21
60.5
0
LINE
8
CUT
10
111.9852
20
61.5
11
120
21
66.1273
0
LINE
8
CUT
10
118.7795
20
64.2679
11
120
21
64.9726
0
LINE
8
CUT
10
120
20
57.0274
11
118.7795
21
57.7321
0
POLYLINE
8
CUT
66
1
70
0
0
VERTEX
8
CUT
10
117.0474
20
58.7321
0
VERTEX
8
CUT
10
113.1192
20
61
0
VERTEX
8
CUT
10
117.0474
20
63.2679
0
SEQEND
0
LINE
8
CUT
10
120
20
58.1821
11
115.9852
21
60.5
0
LINE
8
CUT
10
115.9852
20
61.5
11
120
21
63.8179
0
POLYLINE
8
CUT
66
1
70
0
0
VERTEX
8
CUT
10
118.0474
20
60.4641
0
VERTEX
8
CUT
10
117.1192
20
61
0
VERTEX
8
CUT
10
118.0474
20
61.5359
0
SEQEND
0
LINE
8
CUT
10
110.1192
20
58.2679
11
110.1192
21
45.7321
0
LINE
8
CUT
10
110.9852
20
45.2321
11
120
21
50.4367
0
LINE
8
CUT
10
120
20
53.5633
11
110.9852
21
58.7679
0
POLYLINE
8
CUT
66
1
70
0
0
VERTEX
8
CUT
10
115.0474
20
55.2679
0
VERTEX
8
CUT
10
111.1192
20
57.5359
0
VERTEX
8
CUT
10
111.1192
20
53
0
SEQEND
0
POLYLINE
8
CUT
66
1
70
0
0
VERTEX
8
CUT
10
111.1192
20
51
0
VERTEX
8
CUT
10
111.1192
20
46.4641
0
VERTEX
8
CUT
10
115.0474
20
48.7321
0
SEQEND
0
LINE
8
CUT
10
116.7795
20
49.7321
11
120
21
51.5914
0
LINE
8
CUT
10
120
20
52.4086
11
116.7795
21
54.2679
0
LINE
8
CUT
10
112.1192
20
54.8038
11
112.1192
21
49.1962
0
LINE
8
CUT
10
112.9852
20
48.6962
11
117.8416
21
51.5
0
LINE
8
CUT
10
117.8416
20
52.5
11
112.9852
21
55.3038
0
POLYLINE
8
CUT
66
1
70
0
0
VERTEX
8
CUT
10
114.0474
20
53.5359
0
VERTEX
8
CUT
10
113.1192
20
54.0718
0
VERTEX
8
CUT
10
113.1192
20
53
0
SEQEND
0
POLYLINE
8
CUT
66
1
70
0
0
VERTEX
8
CUT
10
113.1192
20
51
0
VERTEX
8
CUT
10
113.1192
20
49.9282
0
VERTEX
8
CUT
10
114.0474
20
50.4641
0
SEQEND
0
POLYLINE
8
CUT
66
1
70
0
0
VERTEX
8
CUT
10
115.7795
20
51.4641
0
VERTEX
8
CUT
10
116.7077
20
52
0
VERTEX
8
CUT
10
115.7795
20
52.5359
0
SEQEND
0
LINE
8
CUT
10
120
20
37.8727
11
111.9852
21
42.5
0
LINE
8
CUT
10
111.9852
20
43.5
11
120
21
48.1273
0
LINE
8
CUT
10
118.7795
20
46.2679
11
120
21
46.9726
0
LINE
8
CUT
10
120
20
39.0274
11
118.7795
21
39.7321
0
POLYLINE
8
CUT
66
1
70
0
0
VERTEX
8
CUT
10
117.0474
20
40.7321
0
VERTEX
8
CUT
10
113.1192
20
43
0
VERTEX
8
CUT
10
117.0474
20
45.2679
0
SEQEND
0
LINE
8
CUT
10
120
20
40.1821
11
115.9852
21
42.5
0
LINE
8
CUT
10
115.9852
20
43.5
11
120
21
45.8179
0
POLYLINE
8
CUT
66
1
70
0
0
VERTEX
8
CUT
10
118.0474
20
42.4641
0
VERTEX
8
CUT
10
117.1192
20
43
0
VERTEX
8
CUT
10
118.0474
20
43.5359
0
SEQEND
0
LINE
8
CUT
10
110.1192
20
40.2679
11
110.1192
21
27.7321
0
LINE
8
CUT
10
110.9852
20
27.2321
11
120
21
32.4367
0
LINE
8
CUT
10
120
20
35.5633
11
110.9852
21
40.7679
0
POLYLINE
8
CUT
66
1
70
0
0
VERTEX
8
CUT
10
115.0474
20
37.2679
0
VERTEX
8
CUT
10
111.1192
20
39.5359
0
VERTEX
8
CUT
10
111.1192
20
35
0
SEQEND
0
POLYLINE
8
CUT
66
1
70
0
0
VERTEX
8
CUT
10
111.1192
20
33
0
VERTEX
8
CUT
10
111.1192
20
28.4641
0
VERTEX
8
CUT
10
115.0474
20
30.7321
0
SEQEND
0
LINE
8
CUT
10
116.7795
20
31.7321
11
120
21
33.5914
0
LINE
8
CUT
10
120
20
34.4086
11
116.7795
21
36.2679
0
LINE
8
CUT
10
112.1192
20
36.8038
11
112.1192
21
31.1962
0
LINE
8
CUT
10
112.9852
20
30.6962
11
117.8416
21
33.5
0
LINE
8
CUT
10
117.8416
20
34.5
11
112.9852
21
37.3038
0
POLYLINE
8
CUT
66
1
70
0
0
VERTEX
8
CUT
10
114.0474
20
35.5359
0
VERTEX
8
CUT
10
113.1192
20
36.0718
0
VERTEX
8
CUT
10
113.1192
20
35
0
SEQEND
0
POLYLINE
8
CUT
66
1
70
0
0
VERTEX
8
CUT
10
113.1192
20
33
0
VERTEX
8
CUT
10
113.1192
20
31.9282
0
VERTEX
8
CUT
10
114.0474
20
32.4641
0
SEQEND
0
POLYLINE
8
CUT
66
1
70
0
0
VERTEX
8
CUT
10
115.7795
20
33.4641
0
VERTEX
8
CUT
10
116.7077
20
34
0
VERTEX
8
CUT
10
115.7795
20
34.5359
0
SEQEND
0
LINE
8
CUT
10
120
20
19.8727
11
111.9852
21
24.5
0
LINE
8
CUT
10
111.9852
20
25.5
11
120
21
30.1273
0
LINE
8
CUT
10
118.7795
20
28.2679
11
120
21
28.9726
0
LINE
8
CUT
10
120
20
21.0274
11
118.7795
21
21.7321
0
POLYLINE
8
CUT
66
1
70
0
0
VERTEX
8
CUT
10
117.0474
20
22.7321
0
VERTEX
8
CUT
10
113.1192
20
25
0
VERTEX
8
CUT
10
117.0474
20
27.2679
0
SEQEND
0
LINE
8
CUT
10
120
20
22.1821
11
115.9852
21
24.5
0
LINE
8
CUT
10
115.9852
20
25.5
11
120
21
27.8179
0
POLYLINE
8
CUT
66
1
70
0
0
VERTEX
8
CUT
10
118.0474
20
24.4641
0
VERTEX
8
CUT
10
117.1192
20
25
0
VERTEX
8
CUT
10
118.0474
20
25.5359
0
SEQEND
0
LINE
8
CUT
10
110.1192
20
22.2679
11
110.1192
21
9.7321
0
LINE
8
CUT
10
110.9852
20
9.2321
11
120
21
14.4367
0
LINE
8
CUT
10
120
20
17.5633
11
110.9852
21
22.7679
0
POLYLINE
8
CUT
66
1
70
0
0
VERTEX
8
CUT
10
115.0474
20
19.2679
0
VERTEX
8
CUT
10
111.1192
20
21.5359
0
VERTEX
8
CUT
10
111.1192
20
17
0
SEQEND
0
POLYLINE
8
CUT
66
1
70
0
0
VERTEX
8
CUT
10
111.1192
20
15
0
VERTEX
8
CUT
10
111.1192
20
10.4641
0
VERTEX
8
CUT
10
115.0474
20
12.7321
0
SEQEND
0
LINE
8
CUT
10
116.7795
20
13.7321
11
120
21
15.5914
0
LINE
8
CUT
10
120
20
16.4086
11
116.7795
21
18.2679
0
LINE
8
CUT
10
112.1192
20
18.8038
11
112.1192
21
13.1962
0
LINE
8
CUT
10
112.9852
20
12.6962
11
117.8416
21
15.5
0
LINE
8
CUT
10
117.8416
20
16.5
11
112.9852
21
19.3038
0
POLYLINE
8
CUT
66
1
70
0
0
VERTEX
8
CUT
10
114.0474
20
17.5359
0
VERTEX
8
CUT
10
113.1192
20
18.0718
0
VERTEX
8
CUT
10
113.1192
20
17
0
SEQEND
0
POLYLINE
8
CUT
66
1
70
0
0
VERTEX
8
CUT
10
113.1192
20
15
0
VERTEX
8
CUT
10
113.1192
20
13.9282
0
VERTEX
8
CUT
10
114.0474
20
14.4641
0
SEQEND
0
POLYLINE
8
CUT
66
1
70
0
0
VERTEX
8
CUT
10
115.7795
20
15.4641
0
VERTEX
8
CUT
10
116.7077
20
16
0
VERTEX
8
CUT
10
115.7795
20
16.5359
0
SEQEND
0
LINE
8
CUT
10
120
20
1.8727
11
111.9852
21
6.5
0
LINE
8
CUT
10
111.9852
20
7.5
11
120
21
12.1273
0
LINE
8
CUT
10
118.7795
20
10.2679
11
120
21
10.9726
0
LINE
8
CUT
10
120
20
3.0274
11
118.7795
21
3.7321
0
POLYLINE
8
CUT
66
1
70
0
0
VERTEX
8
CUT
10
117.0474
20
4.7321
0
VERTEX
8
CUT
10
113.1192
20
7
0
VERTEX
8
CUT
10
117.0474
20
9.2679
0
SEQEND
0
LINE
8
CUT
10
120
20
4.1821
11
115.9852
21
6.5
0
LINE
8
CUT
10
115.9852
20
7.5
11
120
21
9.8179
0
POLYLINE
8
CUT
66
1
70
0
0
VERTEX
8
CUT
10
118.0474
20
6.4641
0
VERTEX
8
CUT
10
117.1192
20
7
0
VERTEX
8
CUT
10
118.0474
20
7.5359
0
SEQEND
0
LINE
8
CUT
10
110.1192
20
4.2679
11
110.1192
21
0
0
LINE
8
CUT
10
119.2436
20
0
11
110.9852
21
4.7679
0
POLYLINE
8
CUT
66
1
70
0
0
VERTEX
8
CUT
10
115.0474
20
1.2679
0
VERTEX
8
CUT
10
111.1192
20
3.5359
0
VERTEX
8
CUT
10
111.1192
20
0
0
SEQEND
0
LINE
8
CUT
10
117.2436
20
0
11
116.7795
21
0.2679
0
LINE
8
CUT
10
112.1192
20
0.8038
11
112.1192
21
0
0
LINE
8
CUT
10
115.2436
20
0
11
112.9852
21
1.3038
0
POLYLINE
8
CUT
66
1
70
0
0
VERTEX
8
CUT
10
0
20
70
0
VERTEX
8
CUT
10
120
20
70
0
VERTEX
8
CUT
10
120
20
0
0
VERTEX
8
CUT
10
0
20
0
0
VERTEX
8
CUT
10
0
20
70
0
SEQEND
0
ENDSEC
0
EOF
