0
SECTION
2
HEADER
9
$ACADVER
1
AC1009
9
$INSUNITS
70
4
0
ENDSEC
0
SECTION
2
TABLES
0
TABLE
2
LAYER
70
1
0
LAYER
2
CUT
70
0
62
1
6
CONTINUOUS
0
ENDTAB
0
ENDSEC
0
SECTION
2
ENTITIES
0
LINE
8
CUT
10
0
20
65
11
10
21
65
0
LINE
8
CUT
10
12
20
65
11
32
21
65
0
LINE
8
CUT
10
34
20
65
11
54
21
65
0
LINE
8
CUT
10
56
20
65
11
76
21
65
0
LINE
8
CUT
10
78
20
65
11
98
21
65
0
LINE
8
CUT
10
100
20
65
11
120
21
65
0
LINE
8
CUT
10
1
20
59
11
21
21
59
0
LINE
8
CUT
10
23
20
59
11
43
21
59
0
LINE
8
CUT
10
45
20
59
11
65
21
59
0
LINE
8
CUT
10
67
20
59
11
87
21
59
0
LINE
8
CUT
10
89
20
59
11
109
21
59
0
LINE
8
CUT
10
111
20
59
11
120
21
59
0
LINE
8
CUT
10
0
20
53
11
10
21
53
0
LINE
8
CUT
10
12
20
53
11
32
21
53
0
LINE
8
CUT
10
34
20
53
11
54
21
53
0
LINE
8
CUT
10
56
20
53
11
76
21
53
0
LINE
8
CUT
10
78
20
53
11
98
21
53
0
LINE
8
CUT
10
100
20
53
11
120
21
53
0
LINE
8
CUT
10
1
20
47
11
21
21
47
0
LINE
8
CUT
10
23
20
47
11
43
21
47
0
LINE
8
CUT
10
45
20
47
11
65
21
47
0
LINE
8
CUT
10
67
20
47
11
87
21
47
0
LINE
8
CUT
10
89
20
47
11
109
21
47
0
LINE
8
CUT
10
111
20
47
11
120
21
47
0
LINE
8
CUT
10
0
20
41
11
10
21
41
0
LINE
8
CUT
10
12
20
41
11
32
21
41
0
LINE
8
CUT
10
34
20
41
11
54
21
41
0
LINE
8
CUT
10
56
20
41
11
76
21
41
0
LINE
8
CUT
10
78
20
41
11
98
21
41
0
LINE
8
CUT
10
100
20
41
11
120
21
41
0
LINE
8
CUT
10
1
20
35
11
21
21
35
0
LINE
8
CUT
10
23
20
35
11
43
21
35
0
LINE
8
CUT
10
45
20
35
11
65
21
35
0
LINE
8
CUT
10
67
20
35
11
87
21
35
0
LINE
8
CUT
10
89
20
35
11
109
21
35
0
LINE
8
CUT
10
111
20
35
11
120
21
35
0
LINE
8
CUT
10
0
20
29
11
10
21
29
0
LINE
8
CUT
10
12
20
29
11
32
21
29
0
LINE
8
CUT
10
34
20
29
11
54
21
29
0
LINE
8
CUT
10
56
20
29
11
76
21
29
0
LINE
8
CUT
10
78
20
29
11
98
21
29
0
LINE
8
CUT
10
100
20
29
11
120
21
29
0
LINE
8
CUT
10
1
20
23
11
21
21
23
0
LINE
8
CUT
10
23
20
23
11
43
21
23
0
LINE
8
CUT
10
45
20
23
11
65
21
23
0
LINE
8
CUT
10
67
20
23
11
87
21
23
0
LINE
8
CUT
10
89
20
23
11
109
21
23
0
LINE
8
CUT
10
111
20
23
11
120
21
23
0
LINE
8
CUT
10
0
20
17
11
10
21
17
0
LINE
8
CUT
10
12
20
17
11
32
21
17
0
LINE
8
CUT
10
34
20
17
11
54
21
17
0
LINE
8
CUT
10
56
20
17
11
76
21
17
0
LINE
8
CUT
10
78
20
17
11
98
21
17
0
LINE
8
CUT
10
100
20
17
11
120
21
17
0
LINE
8
CUT
10
1
20
11
11
21
21
11
0
LINE
8
CUT
10
23
20
11
11
43
21
11
0
LINE
8
CUT
10
45
20
11
11
65
21
11
0
LINE
8
CUT
10
67
20
11
11
87
21
11
0
LINE
8
CUT
10
89
20
11
11
109
21
11
0
LINE
8
CUT
10
111
20
11
11
120
21
11
0
LINE
8
CUT
10
0
20
5
11
10
21
5
0
LINE
8
CUT
10
12
20
5
11
32
21
5
0
LINE
8
CUT
10
34
20
5
11
54
21
5
0
LINE
8
CUT
10
56
20
5
11
76
21
5
0
LINE
8
CUT
10
78
20
5
11
98
21
5
0
LINE
8
CUT
10
100
20
5
11
120
21
5
0
POLYLINE
8
CUT
66
1
70
0
0
VERTEX
8
CUT
10
0
20
70
0
VERTEX
8
CUT
10
120
20
70
0
VERTEX
8
CUT
10
120
20
0
0
VERTEX
8
CUT
10
0
20
0
0
VERTEX
8
CUT
10
0
20
70
0
SEQEND
0
ENDSEC
0
EOF
