0
SECTION
2
HEADER
9
$ACADVER
1
AC1009
9
$INSUNITS
70
4
0
ENDSEC
0
SECTION
2
TABLES
0
TABLE
2
LAYER
70
1
0
LAYER
2
CUT
70
0
62
1
6
CONTINUOUS
0
ENDTAB
0
ENDSEC
0
SECTION
2
ENTITIES
0
LINE
8
CUT
10
1.9572
20
70
11
0.6495
21
69.245
0
LINE
8
CUT
10
9.8854
20
70
11
8.5777
21
69.245
0
LINE
8
CUT
10
5.971
20
70
11
7.2787
21
69.245
0
LINE
8
CUT
10
17.8136
20
70
11
16.5059
21
69.245
0
LINE
8
CUT
10
13.8992
20
70
11
15.2069
21
69.245
0
LINE
8
CUT
10
25.7418
20
70
11
24.4341
21
69.245
0
LINE
8
CUT
10
21.8274
20
70
11
23.1351
21
69.245
0
LINE
8
CUT
10
33.67
20
70
11
32.3623
21
69.245
0
LINE
8
CUT
10
29.7556
20
70
11
31.0633
21
69.245
0
LINE
8
CUT
10
41.5982
20
70
11
40.2905
21
69.245
0
LINE
8
CUT
10
37.6838
20
70
11
38.9915
21
69.245
0
LINE
8
CUT
10
49.5264
20
70
11
48.2187
21
69.245
0
LINE
8
CUT
10
45.612
20
70
11
46.9197
21
69.245
0
LINE
8
CUT
10
57.4546
20
70
11
56.1469
21
69.245
0
LINE
8
CUT
10
53.5402
20
70
11
54.8479
21
69.245
0
LINE
8
CUT
10
65.3828
20
70
11
64.0751
21
69.245
0
LINE
8
CUT
10
61.4684
20
70
11
62.7761
21
69.245
0
LINE
8
CUT
10
73.311
20
70
11
72.0033
21
69.245
0
LINE
8
CUT
10
69.3966
20
70
11
70.7043
21
69.245
0
LINE
8
CUT
10
81.2392
20
70
11
79.9316
21
69.245
0
LINE
8
CUT
10
77.3248
20
70
11
78.6325
21
69.245
0
LINE
8
CUT
10
89.1675
20
70
11
87.8598
21
69.245
0
LINE
8
CUT
10
85.253
20
70
11
86.5607
21
69.245
0
LINE
8
CUT
10
97.0957
20
70
11
95.788
21
69.245
0
LINE
8
CUT
10
93.1812
20
70
11
94.4889
21
69.245
0
LINE
8
CUT
10
105.0239
20
70
11
103.7162
21
69.245
0
LINE
8
CUT
10
101.1094
20
70
11
102.4171
21
69.245
0
LINE
8
CUT
10
112.9521
20
70
11
111.6444
21
69.245
0
LINE
8
CUT
10
109.0376
20
70
11
110.3453
21
69.245
0
LINE
8
CUT
10
120
20
69.4918
11
119.5726
21
69.245
0
LINE
8
CUT
10
116.9658
20
70
11
118.2735
21
69.245
0
POLYLINE
8
CUT
66
1
70
0
0
VERTEX
8
CUT
10
4.6136
20
69.625
0
VERTEX
8
CUT
10
7.4282
20
68
0
VERTEX
8
CUT
10
7.4282
20
64
0
VERTEX
8
CUT
10
4.6136
20
62.375
0
SEQEND
0
POLYLINE
8
CUT
66
1
70
0
0
VERTEX
8
CUT
10
3.3146
20
69.625
0
VERTEX
8
CUT
10
0.5
20
68
0
VERTEX
8
CUT
10
0.5
20
64
0
VERTEX
8
CUT
10
3.3146
20
62.375
0
SEQEND
0
POLYLINE
8
CUT
66
1
70
0
0
VERTEX
8
CUT
10
12.5418
20
69.625
0
VERTEX
8
CUT
10
15.3564
20
68
0
VERTEX
8
CUT
10
15.3564
20
64
0
VERTEX
8
CUT
10
12.5418
20
62.375
0
SEQEND
0
POLYLINE
8
CUT
66
1
70
0
0
VERTEX
8
CUT
10
11.2428
20
69.625
0
VERTEX
8
CUT
10
8.4282
20
68
0
VERTEX
8
CUT
10
8.4282
20
64
0
VERTEX
8
CUT
10
11.2428
20
62.375
0
SEQEND
0
POLYLINE
8
CUT
66
1
70
0
0
VERTEX
8
CUT
10
20.47
20
69.625
0
VERTEX
8
CUT
10
23.2846
20
68
0
VERTEX
8
CUT
10
23.2846
20
64
0
VERTEX
8
CUT
10
20.47
20
62.375
0
SEQEND
0
POLYLINE
8
CUT
66
1
70
0
0
VERTEX
8
CUT
10
19.171
20
69.625
0
VERTEX
8
CUT
10
16.3564
20
68
0
VERTEX
8
CUT
10
16.3564
20
64
0
VERTEX
8
CUT
10
19.171
20
62.375
0
SEQEND
0
POLYLINE
8
CUT
66
1
70
0
0
VERTEX
8
CUT
10
28.3982
20
69.625
0
VERTEX
8
CUT
10
31.2128
20
68
0
VERTEX
8
CUT
10
31.2128
20
64
0
VERTEX
8
CUT
10
28.3982
20
62.375
0
SEQEND
0
POLYLINE
8
CUT
66
1
70
0
0
VERTEX
8
CUT
10
27.0992
20
69.625
0
VERTEX
8
CUT
10
24.2846
20
68
0
VERTEX
8
CUT
10
24.2846
20
64
0
VERTEX
8
CUT
10
27.0992
20
62.375
0
SEQEND
0
POLYLINE
8
CUT
66
1
70
0
0
VERTEX
8
CUT
10
36.3264
20
69.625
0
VERTEX
8
CUT
10
39.141
20
68
0
VERTEX
8
CUT
10
39.141
20
64
0
VERTEX
8
CUT
10
36.3264
20
62.375
0
SEQEND
0
POLYLINE
8
CUT
66
1
70
0
0
VERTEX
8
CUT
10
35.0274
20
69.625
0
VERTEX
8
CUT
10
32.2128
20
68
0
VERTEX
8
CUT
10
32.2128
20
64
0
VERTEX
8
CUT
10
35.0274
20
62.375
0
SEQEND
0
POLYLINE
8
CUT
66
1
70
0
0
VERTEX
8
CUT
10
44.2546
20
69.625
0
VERTEX
8
CUT
10
47.0692
20
68
0
VERTEX
8
CUT
10
47.0692
20
64
0
VERTEX
8
CUT
10
44.2546
20
62.375
0
SEQEND
0
POLYLINE
8
CUT
66
1
70
0
0
VERTEX
8
CUT
10
42.9556
20
69.625
0
VERTEX
8
CUT
10
40.141
20
68
0
VERTEX
8
CUT
10
40.141
20
64
0
VERTEX
8
CUT
10
42.9556
20
62.375
0
SEQEND
0
POLYLINE
8
CUT
66
1
70
0
0
VERTEX
8
CUT
10
52.1828
20
69.625
0
VERTEX
8
CUT
10
54.9974
20
68
0
VERTEX
8
CUT
10
54.9974
20
64
0
VERTEX
8
CUT
10
52.1828
20
62.375
0
SEQEND
0
POLYLINE
8
CUT
66
1
70
0
0
VERTEX
8
CUT
10
50.8838
20
69.625
0
VERTEX
8
CUT
10
48.0692
20
68
0
VERTEX
8
CUT
10
48.0692
20
64
0
VERTEX
8
CUT
10
50.8838
20
62.375
0
SEQEND
0
POLYLINE
8
CUT
66
1
70
0
0
VERTEX
8
CUT
10
60.111
20
69.625
0
VERTEX
8
CUT
10
62.9256
20
68
0
VERTEX
8
CUT
10
62.9256
20
64
0
VERTEX
8
CUT
10
60.111
20
62.375
0
SEQEND
0
POLYLINE
8
CUT
66
1
70
0
0
VERTEX
8
CUT
10
58.812
20
69.625
0
VERTEX
8
CUT
10
55.9974
20
68
0
VERTEX
8
CUT
10
55.9974
20
64
0
VERTEX
8
CUT
10
58.812
20
62.375
0
SEQEND
0
POLYLINE
8
CUT
66
1
70
0
0
VERTEX
8
CUT
10
68.0392
20
69.625
0
VERTEX
8
CUT
10
70.8538
20
68
0
VERTEX
8
CUT
10
70.8538
20
64
0
VERTEX
8
CUT
10
68.0392
20
62.375
0
SEQEND
0
POLYLINE
8
CUT
66
1
70
0
0
VERTEX
8
CUT
10
66.7402
20
69.625
0
VERTEX
8
CUT
10
63.9256
20
68
0
VERTEX
8
CUT
10
63.9256
20
64
0
VERTEX
8
CUT
10
66.7402
20
62.375
0
SEQEND
0
POLYLINE
8
CUT
66
1
70
0
0
VERTEX
8
CUT
10
75.9674
20
69.625
0
VERTEX
8
CUT
10
78.782
20
68
0
VERTEX
8
CUT
10
78.782
20
64
0
VERTEX
8
CUT
10
75.9674
20
62.375
0
SEQEND
0
POLYLINE
8
CUT
66
1
70
0
0
VERTEX
8
CUT
10
74.6684
20
69.625
0
VERTEX
8
CUT
10
71.8538
20
68
0
VERTEX
8
CUT
10
71.8538
20
64
0
VERTEX
8
CUT
10
74.6684
20
62.375
0
SEQEND
0
POLYLINE
8
CUT
66
1
70
0
0
VERTEX
8
CUT
10
83.8957
20
69.625
0
VERTEX
8
CUT
10
86.7102
20
68
0
VERTEX
8
CUT
10
86.7102
20
64
0
VERTEX
8
CUT
10
83.8957
20
62.375
0
SEQEND
0
POLYLINE
8
CUT
66
1
70
0
0
VERTEX
8
CUT
10
82.5966
20
69.625
0
VERTEX
8
CUT
10
79.782
20
68
0
VERTEX
8
CUT
10
79.782
20
64
0
VERTEX
8
CUT
10
82.5966
20
62.375
0
SEQEND
0
POLYLINE
8
CUT
66
1
70
0
0
VERTEX
8
CUT
10
91.8239
20
69.625
0
VERTEX
8
CUT
10
94.6384
20
68
0
VERTEX
8
CUT
10
94.6384
20
64
0
VERTEX
8
CUT
10
91.8239
20
62.375
0
SEQEND
0
POLYLINE
8
CUT
66
1
70
0
0
VERTEX
8
CUT
10
90.5248
20
69.625
0
VERTEX
8
CUT
10
87.7102
20
68
0
VERTEX
8
CUT
10
87.7102
20
64
0
VERTEX
8
CUT
10
90.5248
20
62.375
0
SEQEND
0
POLYLINE
8
CUT
66
1
70
0
0
VERTEX
8
CUT
10
99.7521
20
69.625
0
VERTEX
8
CUT
10
102.5666
20
68
0
VERTEX
8
CUT
10
102.5666
20
64
0
VERTEX
8
CUT
10
99.7521
20
62.375
0
SEQEND
0
POLYLINE
8
CUT
66
1
70
0
0
VERTEX
8
CUT
10
98.453
20
69.625
0
VERTEX
8
CUT
10
95.6384
20
68
0
VERTEX
8
CUT
10
95.6384
20
64
0
VERTEX
8
CUT
10
98.453
20
62.375
0
SEQEND
0
POLYLINE
8
CUT
66
1
70
0
0
VERTEX
8
CUT
10
107.6803
20
69.625
0
VERTEX
8
CUT
10
110.4948
20
68
0
VERTEX
8
CUT
10
110.4948
20
64
0
VERTEX
8
CUT
10
107.6803
20
62.375
0
SEQEND
0
POLYLINE
8
CUT
66
1
70
0
0
VERTEX
8
CUT
10
106.3812
20
69.625
0
VERTEX
8
CUT
10
103.5666
20
68
0
VERTEX
8
CUT
10
103.5666
20
64
0
VERTEX
8
CUT
10
106.3812
20
62.375
0
SEQEND
0
POLYLINE
8
CUT
66
1
70
0
0
VERTEX
8
CUT
10
115.6085
20
69.625
0
VERTEX
8
CUT
10
118.423
20
68
0
VERTEX
8
CUT
10
118.423
20
64
0
VERTEX
8
CUT
10
115.6085
20
62.375
0
SEQEND
0
POLYLINE
8
CUT
66
1
70
0
0
VERTEX
8
CUT
10
114.3094
20
69.625
0
VERTEX
8
CUT
10
111.4948
20
68
0
VERTEX
8
CUT
10
111.4948
20
64
0
VERTEX
8
CUT
10
114.3094
20
62.375
0
SEQEND
0
POLYLINE
8
CUT
66
1
70
0
0
VERTEX
8
CUT
10
120
20
68.3331
0
VERTEX
8
CUT
10
119.423
20
68
0
VERTEX
8
CUT
10
119.423
20
64
0
VERTEX
8
CUT
10
120
20
63.6669
0
SEQEND
0
POLYLINE
8
CUT
66
1
70
0
0
VERTEX
8
CUT
10
0.6495
20
62.755
0
VERTEX
8
CUT
10
3.4641
20
61.13
0
VERTEX
8
CUT
10
3.4641
20
57.13
0
VERTEX
8
CUT
10
0.6495
20
55.505
0
SEQEND
0
POLYLINE
8
CUT
66
1
70
0
0
VERTEX
8
CUT
10
8.5777
20
62.755
0
VERTEX
8
CUT
10
11.3923
20
61.13
0
VERTEX
8
CUT
10
11.3923
20
57.13
0
VERTEX
8
CUT
10
8.5777
20
55.505
0
SEQEND
0
POLYLINE
8
CUT
66
1
70
0
0
VERTEX
8
CUT
10
7.2787
20
62.755
0
VERTEX
8
CUT
10
4.4641
20
61.13
0
VERTEX
8
CUT
10
4.4641
20
57.13
0
VERTEX
8
CUT
10
7.2787
20
55.505
0
SEQEND
0
POLYLINE
8
CUT
66
1
70
0
0
VERTEX
8
CUT
10
16.5059
20
62.755
0
VERTEX
8
CUT
10
19.3205
20
61.13
0
VERTEX
8
CUT
10
19.3205
20
57.13
0
VERTEX
8
CUT
10
16.5059
20
55.505
0
SEQEND
0
POLYLINE
8
CUT
66
1
70
0
0
VERTEX
8
CUT
10
15.2069
20
62.755
0
VERTEX
8
CUT
10
12.3923
20
61.13
0
VERTEX
8
CUT
10
12.3923
20
57.13
0
VERTEX
8
CUT
10
15.2069
20
55.505
0
SEQEND
0
POLYLINE
8
CUT
66
1
70
0
0
VERTEX
8
CUT
10
24.4341
20
62.755
0
VERTEX
8
CUT
10
27.2487
20
61.13
0
VERTEX
8
CUT
10
27.2487
20
57.13
0
VERTEX
8
CUT
10
24.4341
20
55.505
0
SEQEND
0
POLYLINE
8
CUT
66
1
70
0
0
VERTEX
8
CUT
10
23.1351
20
62.755
0
VERTEX
8
CUT
10
20.3205
20
61.13
0
VERTEX
8
CUT
10
20.3205
20
57.13
0
VERTEX
8
CUT
10
23.1351
20
55.505
0
SEQEND
0
POLYLINE
8
CUT
66
1
70
0
0
VERTEX
8
CUT
10
32.3623
20
62.755
0
VERTEX
8
CUT
10
35.1769
20
61.13
0
VERTEX
8
CUT
10
35.1769
20
57.13
0
VERTEX
8
CUT
10
32.3623
20
55.505
0
SEQEND
0
POLYLINE
8
CUT
66
1
70
0
0
VERTEX
8
CUT
10
31.0633
20
62.755
0
VERTEX
8
CUT
10
28.2487
20
61.13
0
VERTEX
8
CUT
10
28.2487
20
57.13
0
VERTEX
8
CUT
10
31.0633
20
55.505
0
SEQEND
0
POLYLINE
8
CUT
66
1
70
0
0
VERTEX
8
CUT
10
40.2905
20
62.755
0
VERTEX
8
CUT
10
43.1051
20
61.13
0
VERTEX
8
CUT
10
43.1051
20
57.13
0
VERTEX
8
CUT
10
40.2905
20
55.505
0
SEQEND
0
POLYLINE
8
CUT
66
1
70
0
0
VERTEX
8
CUT
10
38.9915
20
62.755
0
VERTEX
8
CUT
10
36.1769
20
61.13
0
VERTEX
8
CUT
10
36.1769
20
57.13
0
VERTEX
8
CUT
10
38.9915
20
55.505
0
SEQEND
0
POLYLINE
8
CUT
66
1
70
0
0
VERTEX
8
CUT
10
48.2187
20
62.755
0
VERTEX
8
CUT
10
51.0333
20
61.13
0
VERTEX
8
CUT
10
51.0333
20
57.13
0
VERTEX
8
CUT
10
48.2187
20
55.505
0
SEQEND
0
POLYLINE
8
CUT
66
1
70
0
0
VERTEX
8
CUT
10
46.9197
20
62.755
0
VERTEX
8
CUT
10
44.1051
20
61.13
0
VERTEX
8
CUT
10
44.1051
20
57.13
0
VERTEX
8
CUT
10
46.9197
20
55.505
0
SEQEND
0
POLYLINE
8
CUT
66
1
70
0
0
VERTEX
8
CUT
10
56.1469
20
62.755
0
VERTEX
8
CUT
10
58.9615
20
61.13
0
VERTEX
8
CUT
10
58.9615
20
57.13
0
VERTEX
8
CUT
10
56.1469
20
55.505
0
SEQEND
0
POLYLINE
8
CUT
66
1
70
0
0
VERTEX
8
CUT
10
54.8479
20
62.755
0
VERTEX
8
CUT
10
52.0333
20
61.13
0
VERTEX
8
CUT
10
52.0333
20
57.13
0
VERTEX
8
CUT
10
54.8479
20
55.505
0
SEQEND
0
POLYLINE
8
CUT
66
1
70
0
0
VERTEX
8
CUT
10
64.0751
20
62.755
0
VERTEX
8
CUT
10
66.8897
20
61.13
0
VERTEX
8
CUT
10
66.8897
20
57.13
0
VERTEX
8
CUT
10
64.0751
20
55.505
0
SEQEND
0
POLYLINE
8
CUT
66
1
70
0
0
VERTEX
8
CUT
10
62.7761
20
62.755
0
VERTEX
8
CUT
10
59.9615
20
61.13
0
VERTEX
8
CUT
10
59.9615
20
57.13
0
VERTEX
8
CUT
10
62.7761
20
55.505
0
SEQEND
0
POLYLINE
8
CUT
66
1
70
0
0
VERTEX
8
CUT
10
72.0033
20
62.755
0
VERTEX
8
CUT
10
74.8179
20
61.13
0
VERTEX
8
CUT
10
74.8179
20
57.13
0
VERTEX
8
CUT
10
72.0033
20
55.505
0
SEQEND
0
POLYLINE
8
CUT
66
1
70
0
0
VERTEX
8
CUT
10
70.7043
20
62.755
0
VERTEX
8
CUT
10
67.8897
20
61.13
0
VERTEX
8
CUT
10
67.8897
20
57.13
0
VERTEX
8
CUT
10
70.7043
20
55.505
0
SEQEND
0
POLYLINE
8
CUT
66
1
70
0
0
VERTEX
8
CUT
10
79.9316
20
62.755
0
VERTEX
8
CUT
10
82.7461
20
61.13
0
VERTEX
8
CUT
10
82.7461
20
57.13
0
VERTEX
8
CUT
10
79.9316
20
55.505
0
SEQEND
0
POLYLINE
8
CUT
66
1
70
0
0
VERTEX
8
CUT
10
78.6325
20
62.755
0
VERTEX
8
CUT
10
75.8179
20
61.13
0
VERTEX
8
CUT
10
75.8179
20
57.13
0
VERTEX
8
CUT
10
78.6325
20
55.505
0
SEQEND
0
POLYLINE
8
CUT
66
1
70
0
0
VERTEX
8
CUT
10
87.8598
20
62.755
0
VERTEX
8
CUT
10
90.6743
20
61.13
0
VERTEX
8
CUT
10
90.6743
20
57.13
0
VERTEX
8
CUT
10
87.8598
20
55.505
0
SEQEND
0
POLYLINE
8
CUT
66
1
70
0
0
VERTEX
8
CUT
10
86.5607
20
62.755
0
VERTEX
8
CUT
10
83.7461
20
61.13
0
VERTEX
8
CUT
10
83.7461
20
57.13
0
VERTEX
8
CUT
10
86.5607
20
55.505
0
SEQEND
0
POLYLINE
8
CUT
66
1
70
0
0
VERTEX
8
CUT
10
95.788
20
62.755
0
VERTEX
8
CUT
10
98.6025
20
61.13
0
VERTEX
8
CUT
10
98.6025
20
57.13
0
VERTEX
8
CUT
10
95.788
20
55.505
0
SEQEND
0
POLYLINE
8
CUT
66
1
70
0
0
VERTEX
8
CUT
10
94.4889
20
62.755
0
VERTEX
8
CUT
10
91.6743
20
61.13
0
VERTEX
8
CUT
10
91.6743
20
57.13
0
VERTEX
8
CUT
10
94.4889
20
55.505
0
SEQEND
0
POLYLINE
8
CUT
66
1
70
0
0
VERTEX
8
CUT
10
103.7162
20
62.755
0
VERTEX
8
CUT
10
106.5307
20
61.13
0
VERTEX
8
CUT
10
106.5307
20
57.13
0
VERTEX
8
CUT
10
103.7162
20
55.505
0
SEQEND
0
POLYLINE
8
CUT
66
1
70
0
0
VERTEX
8
CUT
10
102.4171
20
62.755
0
VERTEX
8
CUT
10
99.6025
20
61.13
0
VERTEX
8
CUT
10
99.6025
20
57.13
0
VERTEX
8
CUT
10
102.4171
20
55.505
0
SEQEND
0
POLYLINE
8
CUT
66
1
70
0
0
VERTEX
8
CUT
10
111.6444
20
62.755
0
VERTEX
8
CUT
10
114.4589
20
61.13
0
VERTEX
8
CUT
10
114.4589
20
57.13
0
VERTEX
8
CUT
10
111.6444
20
55.505
0
SEQEND
0
POLYLINE
8
CUT
66
1
70
0
0
VERTEX
8
CUT
10
110.3453
20
62.755
0
VERTEX
8
CUT
10
107.5307
20
61.13
0
VERTEX
8
CUT
10
107.5307
20
57.13
0
VERTEX
8
CUT
10
110.3453
20
55.505
0
SEQEND
0
LINE
8
CUT
10
119.5726
20
62.755
11
120
21
62.5082
0
LINE
8
CUT
10
120
20
55.7518
11
119.5726
21
55.505
0
POLYLINE
8
CUT
66
1
70
0
0
VERTEX
8
CUT
10
118.2735
20
62.755
0
VERTEX
8
CUT
10
115.4589
20
61.13
0
VERTEX
8
CUT
10
115.4589
20
57.13
0
VERTEX
8
CUT
10
118.2735
20
55.505
0
SEQEND
0
POLYLINE
8
CUT
66
1
70
0
0
VERTEX
8
CUT
10
4.6136
20
55.885
0
VERTEX
8
CUT
10
7.4282
20
54.26
0
VERTEX
8
CUT
10
7.4282
20
50.26
0
VERTEX
8
CUT
10
4.6136
20
48.635
0
SEQEND
0
POLYLINE
8
CUT
66
1
70
0
0
VERTEX
8
CUT
10
3.3146
20
55.885
0
VERTEX
8
CUT
10
0.5
20
54.26
0
VERTEX
8
CUT
10
0.5
20
50.26
0
VERTEX
8
CUT
10
3.3146
20
48.635
0
SEQEND
0
POLYLINE
8
CUT
66
1
70
0
0
VERTEX
8
CUT
10
12.5418
20
55.885
0
VERTEX
8
CUT
10
15.3564
20
54.26
0
VERTEX
8
CUT
10
15.3564
20
50.26
0
VERTEX
8
CUT
10
12.5418
20
48.635
0
SEQEND
0
POLYLINE
8
CUT
66
1
70
0
0
VERTEX
8
CUT
10
11.2428
20
55.885
0
VERTEX
8
CUT
10
8.4282
20
54.26
0
VERTEX
8
CUT
10
8.4282
20
50.26
0
VERTEX
8
CUT
10
11.2428
20
48.635
0
SEQEND
0
POLYLINE
8
CUT
66
1
70
0
0
VERTEX
8
CUT
10
20.47
20
55.885
0
VERTEX
8
CUT
10
23.2846
20
54.26
0
VERTEX
8
CUT
10
23.2846
20
50.26
0
VERTEX
8
CUT
10
20.47
20
48.635
0
SEQEND
0
POLYLINE
8
CUT
66
1
70
0
0
VERTEX
8
CUT
10
19.171
20
55.885
0
VERTEX
8
CUT
10
16.3564
20
54.26
0
VERTEX
8
CUT
10
16.3564
20
50.26
0
VERTEX
8
CUT
10
19.171
20
48.635
0
SEQEND
0
POLYLINE
8
CUT
66
1
70
0
0
VERTEX
8
CUT
10
28.3982
20
55.885
0
VERTEX
8
CUT
10
31.2128
20
54.26
0
VERTEX
8
CUT
10
31.2128
20
50.26
0
VERTEX
8
CUT
10
28.3982
20
48.635
0
SEQEND
0
POLYLINE
8
CUT
66
1
70
0
0
VERTEX
8
CUT
10
27.0992
20
55.885
0
VERTEX
8
CUT
10
24.2846
20
54.26
0
VERTEX
8
CUT
10
24.2846
20
50.26
0
VERTEX
8
CUT
10
27.0992
20
48.635
0
SEQEND
0
POLYLINE
8
CUT
66
1
70
0
0
VERTEX
8
CUT
10
36.3264
20
55.885
0
VERTEX
8
CUT
10
39.141
20
54.26
0
VERTEX
8
CUT
10
39.141
20
50.26
0
VERTEX
8
CUT
10
36.3264
20
48.635
0
SEQEND
0
POLYLINE
8
CUT
66
1
70
0
0
VERTEX
8
CUT
10
35.0274
20
55.885
0
VERTEX
8
CUT
10
32.2128
20
54.26
0
VERTEX
8
CUT
10
32.2128
20
50.26
0
VERTEX
8
CUT
10
35.0274
20
48.635
0
SEQEND
0
POLYLINE
8
CUT
66
1
70
0
0
VERTEX
8
CUT
10
44.2546
20
55.885
0
VERTEX
8
CUT
10
47.0692
20
54.26
0
VERTEX
8
CUT
10
47.0692
20
50.26
0
VERTEX
8
CUT
10
44.2546
20
48.635
0
SEQEND
0
POLYLINE
8
CUT
66
1
70
0
0
VERTEX
8
CUT
10
42.9556
20
55.885
0
VERTEX
8
CUT
10
40.141
20
54.26
0
VERTEX
8
CUT
10
40.141
20
50.26
0
VERTEX
8
CUT
10
42.9556
20
48.635
0
SEQEND
0
POLYLINE
8
CUT
66
1
70
0
0
VERTEX
8
CUT
10
52.1828
20
55.885
0
VERTEX
8
CUT
10
54.9974
20
54.26
0
VERTEX
8
CUT
10
54.9974
20
50.26
0
VERTEX
8
CUT
10
52.1828
20
48.635
0
SEQEND
0
POLYLINE
8
CUT
66
1
70
0
0
VERTEX
8
CUT
10
50.8838
20
55.885
0
VERTEX
8
CUT
10
48.0692
20
54.26
0
VERTEX
8
CUT
10
48.0692
20
50.26
0
VERTEX
8
CUT
10
50.8838
20
48.635
0
SEQEND
0
POLYLINE
8
CUT
66
1
70
0
0
VERTEX
8
CUT
10
60.111
20
55.885
0
VERTEX
8
CUT
10
62.9256
20
54.26
0
VERTEX
8
CUT
10
62.9256
20
50.26
0
VERTEX
8
CUT
10
60.111
20
48.635
0
SEQEND
0
POLYLINE
8
CUT
66
1
70
0
0
VERTEX
8
CUT
10
58.812
20
55.885
0
VERTEX
8
CUT
10
55.9974
20
54.26
0
VERTEX
8
CUT
10
55.9974
20
50.26
0
VERTEX
8
CUT
10
58.812
20
48.635
0
SEQEND
0
POLYLINE
8
CUT
66
1
70
0
0
VERTEX
8
CUT
10
68.0392
20
55.885
0
VERTEX
8
CUT
10
70.8538
20
54.26
0
VERTEX
8
CUT
10
70.8538
20
50.26
0
VERTEX
8
CUT
10
68.0392
20
48.635
0
SEQEND
0
POLYLINE
8
CUT
66
1
70
0
0
VERTEX
8
CUT
10
66.7402
20
55.885
0
VERTEX
8
CUT
10
63.9256
20
54.26
0
VERTEX
8
CUT
10
63.9256
20
50.26
0
VERTEX
8
CUT
10
66.7402
20
48.635
0
SEQEND
0
POLYLINE
8
CUT
66
1
70
0
0
VERTEX
8
CUT
10
75.9674
20
55.885
0
VERTEX
8
CUT
10
78.782
20
54.26
0
VERTEX
8
CUT
10
78.782
20
50.26
0
VERTEX
8
CUT
10
75.9674
20
48.635
0
SEQEND
0
POLYLINE
8
CUT
66
1
70
0
0
VERTEX
8
CUT
10
74.6684
20
55.885
0
VERTEX
8
CUT
10
71.8538
20
54.26
0
VERTEX
8
CUT
10
71.8538
20
50.26
0
VERTEX
8
CUT
10
74.6684
20
48.635
0
SEQEND
0
POLYLINE
8
CUT
66
1
70
0
0
VERTEX
8
CUT
10
83.8957
20
55.885
0
VERTEX
8
CUT
10
86.7102
20
54.26
0
VERTEX
8
CUT
10
86.7102
20
50.26
0
VERTEX
8
CUT
10
83.8957
20
48.635
0
SEQEND
0
POLYLINE
8
CUT
66
1
70
0
0
VERTEX
8
CUT
10
82.5966
20
55.885
0
VERTEX
8
CUT
10
79.782
20
54.26
0
VERTEX
8
CUT
10
79.782
20
50.26
0
VERTEX
8
CUT
10
82.5966
20
48.635
0
SEQEND
0
POLYLINE
8
CUT
66
1
70
0
0
VERTEX
8
CUT
10
91.8239
20
55.885
0
VERTEX
8
CUT
10
94.6384
20
54.26
0
VERTEX
8
CUT
10
94.6384
20
50.26
0
VERTEX
8
CUT
10
91.8239
20
48.635
0
SEQEND
0
POLYLINE
8
CUT
66
1
70
0
0
VERTEX
8
CUT
10
90.5248
20
55.885
0
VERTEX
8
CUT
10
87.7102
20
54.26
0
VERTEX
8
CUT
10
87.7102
20
50.26
0
VERTEX
8
CUT
10
90.5248
20
48.635
0
SEQEND
0
POLYLINE
8
CUT
66
1
70
0
0
VERTEX
8
CUT
10
99.7521
20
55.885
0
VERTEX
8
CUT
10
102.5666
20
54.26
0
VERTEX
8
CUT
10
102.5666
20
50.26
0
VERTEX
8
CUT
10
99.7521
20
48.635
0
SEQEND
0
POLYLINE
8
CUT
66
1
70
0
0
VERTEX
8
CUT
10
98.453
20
55.885
0
VERTEX
8
CUT
10
95.6384
20
54.26
0
VERTEX
8
CUT
10
95.6384
20
50.26
0
VERTEX
8
CUT
10
98.453
20
48.635
0
SEQEND
0
POLYLINE
8
CUT
66
1
70
0
0
VERTEX
8
CUT
10
107.6803
20
55.885
0
VERTEX
8
CUT
10
110.4948
20
54.26
0
VERTEX
8
CUT
10
110.4948
20
50.26
0
VERTEX
8
CUT
10
107.6803
20
48.635
0
SEQEND
0
POLYLINE
8
CUT
66
1
70
0
0
VERTEX
8
CUT
10
106.3812
20
55.885
0
VERTEX
8
CUT
10
103.5666
20
54.26
0
VERTEX
8
CUT
10
103.5666
20
50.26
0
VERTEX
8
CUT
10
106.3812
20
48.635
0
SEQEND
0
POLYLINE
8
CUT
66
1
70
0
0
VERTEX
8
CUT
10
115.6085
20
55.885
0
VERTEX
8
CUT
10
118.423
20
54.26
0
VERTEX
8
CUT
10
118.423
20
50.26
0
VERTEX
8
CUT
10
115.6085
20
48.635
0
SEQEND
0
POLYLINE
8
CUT
66
1
70
0
0
VERTEX
8
CUT
10
114.3094
20
55.885
0
VERTEX
8
CUT
10
111.4948
20
54.26
0
VERTEX
8
CUT
10
111.4948
20
50.26
0
VERTEX
8
CUT
10
114.3094
20
48.635
0
SEQEND
0
POLYLINE
8
CUT
66
1
70
0
0
VERTEX
8
CUT
10
120
20
54.5931
0
VERTEX
8
CUT
10
119.423
20
54.26
0
VERTEX
8
CUT
10
119.423
20
50.26
0
VERTEX
8
CUT
10
120
20
49.9269
0
SEQEND
0
POLYLINE
8
CUT
66
1
70
0
0
VERTEX
8
CUT
10
0.6495
20
49.015
0
VERTEX
8
CUT
10
3.4641
20
47.39
0
VERTEX
8
CUT
10
3.4641
20
43.39
0
VERTEX
8
CUT
10
0.6495
20
41.765
0
SEQEND
0
POLYLINE
8
CUT
66
1
70
0
0
VERTEX
8
CUT
10
8.5777
20
49.015
0
VERTEX
8
CUT
10
11.3923
20
47.39
0
VERTEX
8
CUT
10
11.3923
20
43.39
0
VERTEX
8
CUT
10
8.5777
20
41.765
0
SEQEND
0
POLYLINE
8
CUT
66
1
70
0
0
VERTEX
8
CUT
10
7.2787
20
49.015
0
VERTEX
8
CUT
10
4.4641
20
47.39
0
VERTEX
8
CUT
10
4.4641
20
43.39
0
VERTEX
8
CUT
10
7.2787
20
41.765
0
SEQEND
0
POLYLINE
8
CUT
66
1
70
0
0
VERTEX
8
CUT
10
16.5059
20
49.015
0
VERTEX
8
CUT
10
19.3205
20
47.39
0
VERTEX
8
CUT
10
19.3205
20
43.39
0
VERTEX
8
CUT
10
16.5059
20
41.765
0
SEQEND
0
POLYLINE
8
CUT
66
1
70
0
0
VERTEX
8
CUT
10
15.2069
20
49.015
0
VERTEX
8
CUT
10
12.3923
20
47.39
0
VERTEX
8
CUT
10
12.3923
20
43.39
0
VERTEX
8
CUT
10
15.2069
20
41.765
0
SEQEND
0
POLYLINE
8
CUT
66
1
70
0
0
VERTEX
8
CUT
10
24.4341
20
49.015
0
VERTEX
8
CUT
10
27.2487
20
47.39
0
VERTEX
8
CUT
10
27.2487
20
43.39
0
VERTEX
8
CUT
10
24.4341
20
41.765
0
SEQEND
0
POLYLINE
8
CUT
66
1
70
0
0
VERTEX
8
CUT
10
23.1351
20
49.015
0
VERTEX
8
CUT
10
20.3205
20
47.39
0
VERTEX
8
CUT
10
20.3205
20
43.39
0
VERTEX
8
CUT
10
23.1351
20
41.765
0
SEQEND
0
POLYLINE
8
CUT
66
1
70
0
0
VERTEX
8
CUT
10
32.3623
20
49.015
0
VERTEX
8
CUT
10
35.1769
20
47.39
0
VERTEX
8
CUT
10
35.1769
20
43.39
0
VERTEX
8
CUT
10
32.3623
20
41.765
0
SEQEND
0
POLYLINE
8
CUT
66
1
70
0
0
VERTEX
8
CUT
10
31.0633
20
49.015
0
VERTEX
8
CUT
10
28.2487
20
47.39
0
VERTEX
8
CUT
10
28.2487
20
43.39
0
VERTEX
8
CUT
10
31.0633
20
41.765
0
SEQEND
0
POLYLINE
8
CUT
66
1
70
0
0
VERTEX
8
CUT
10
40.2905
20
49.015
0
VERTEX
8
CUT
10
43.1051
20
47.39
0
VERTEX
8
CUT
10
43.1051
20
43.39
0
VERTEX
8
CUT
10
40.2905
20
41.765
0
SEQEND
0
POLYLINE
8
CUT
66
1
70
0
0
VERTEX
8
CUT
10
38.9915
20
49.015
0
VERTEX
8
CUT
10
36.1769
20
47.39
0
VERTEX
8
CUT
10
36.1769
20
43.39
0
VERTEX
8
CUT
10
38.9915
20
41.765
0
SEQEND
0
POLYLINE
8
CUT
66
1
70
0
0
VERTEX
8
CUT
10
48.2187
20
49.015
0
VERTEX
8
CUT
10
51.0333
20
47.39
0
VERTEX
8
CUT
10
51.0333
20
43.39
0
VERTEX
8
CUT
10
48.2187
20
41.765
0
SEQEND
0
POLYLINE
8
CUT
66
1
70
0
0
VERTEX
8
CUT
10
46.9197
20
49.015
0
VERTEX
8
CUT
10
44.1051
20
47.39
0
VERTEX
8
CUT
10
44.1051
20
43.39
0
VERTEX
8
CUT
10
46.9197
20
41.765
0
SEQEND
0
POLYLINE
8
CUT
66
1
70
0
0
VERTEX
8
CUT
10
56.1469
20
49.015
0
VERTEX
8
CUT
10
58.9615
20
47.39
0
VERTEX
8
CUT
10
58.9615
20
43.39
0
VERTEX
8
CUT
10
56.1469
20
41.765
0
SEQEND
0
POLYLINE
8
CUT
66
1
70
0
0
VERTEX
8
CUT
10
54.8479
20
49.015
0
VERTEX
8
CUT
10
52.0333
20
47.39
0
VERTEX
8
CUT
10
52.0333
20
43.39
0
VERTEX
8
CUT
10
54.8479
20
41.765
0
SEQEND
0
POLYLINE
8
CUT
66
1
70
0
0
VERTEX
8
CUT
10
64.0751
20
49.015
0
VERTEX
8
CUT
10
66.8897
20
47.39
0
VERTEX
8
CUT
10
66.8897
20
43.39
0
VERTEX
8
CUT
10
64.0751
20
41.765
0
SEQEND
0
POLYLINE
8
CUT
66
1
70
0
0
VERTEX
8
CUT
10
62.7761
20
49.015
0
VERTEX
8
CUT
10
59.9615
20
47.39
0
VERTEX
8
CUT
10
59.9615
20
43.39
0
VERTEX
8
CUT
10
62.7761
20
41.765
0
SEQEND
0
POLYLINE
8
CUT
66
1
70
0
0
VERTEX
8
CUT
10
72.0033
20
49.015
0
VERTEX
8
CUT
10
74.8179
20
47.39
0
VERTEX
8
CUT
10
74.8179
20
43.39
0
VERTEX
8
CUT
10
72.0033
20
41.765
0
SEQEND
0
POLYLINE
8
CUT
66
1
70
0
0
VERTEX
8
CUT
10
70.7043
20
49.015
0
VERTEX
8
CUT
10
67.8897
20
47.39
0
VERTEX
8
CUT
10
67.8897
20
43.39
0
VERTEX
8
CUT
10
70.7043
20
41.765
0
SEQEND
0
POLYLINE
8
CUT
66
1
70
0
0
VERTEX
8
CUT
10
79.9316
20
49.015
0
VERTEX
8
CUT
10
82.7461
20
47.39
0
VERTEX
8
CUT
10
82.7461
20
43.39
0
VERTEX
8
CUT
10
79.9316
20
41.765
0
SEQEND
0
POLYLINE
8
CUT
66
1
70
0
0
VERTEX
8
CUT
10
78.6325
20
49.015
0
VERTEX
8
CUT
10
75.8179
20
47.39
0
VERTEX
8
CUT
10
75.8179
20
43.39
0
VERTEX
8
CUT
10
78.6325
20
41.765
0
SEQEND
0
POLYLINE
8
CUT
66
1
70
0
0
VERTEX
8
CUT
10
87.8598
20
49.015
0
VERTEX
8
CUT
10
90.6743
20
47.39
0
VERTEX
8
CUT
10
90.6743
20
43.39
0
VERTEX
8
CUT
10
87.8598
20
41.765
0
SEQEND
0
POLYLINE
8
CUT
66
1
70
0
0
VERTEX
8
CUT
10
86.5607
20
49.015
0
VERTEX
8
CUT
10
83.7461
20
47.39
0
VERTEX
8
CUT
10
83.7461
20
43.39
0
VERTEX
8
CUT
10
86.5607
20
41.765
0
SEQEND
0
POLYLINE
8
CUT
66
1
70
0
0
VERTEX
8
CUT
10
95.788
20
49.015
0
VERTEX
8
CUT
10
98.6025
20
47.39
0
VERTEX
8
CUT
10
98.6025
20
43.39
0
VERTEX
8
CUT
10
95.788
20
41.765
0
SEQEND
0
POLYLINE
8
CUT
66
1
70
0
0
VERTEX
8
CUT
10
94.4889
20
49.015
0
VERTEX
8
CUT
10
91.6743
20
47.39
0
VERTEX
8
CUT
10
91.6743
20
43.39
0
VERTEX
8
CUT
10
94.4889
20
41.765
0
SEQEND
0
POLYLINE
8
CUT
66
1
70
0
0
VERTEX
8
CUT
10
103.7162
20
49.015
0
VERTEX
8
CUT
10
106.5307
20
47.39
0
VERTEX
8
CUT
10
106.5307
20
43.39
0
VERTEX
8
CUT
10
103.7162
20
41.765
0
SEQEND
0
POLYLINE
8
CUT
66
1
70
0
0
VERTEX
8
CUT
10
102.4171
20
49.015
0
VERTEX
8
CUT
10
99.6025
20
47.39
0
VERTEX
8
CUT
10
99.6025
20
43.39
0
VERTEX
8
CUT
10
102.4171
20
41.765
0
SEQEND
0
POLYLINE
8
CUT
66
1
70
0
0
VERTEX
8
CUT
10
111.6444
20
49.015
0
VERTEX
8
CUT
10
114.4589
20
47.39
0
VERTEX
8
CUT
10
114.4589
20
43.39
0
VERTEX
8
CUT
10
111.6444
20
41.765
0
SEQEND
0
POLYLINE
8
CUT
66
1
70
0
0
VERTEX
8
CUT
10
110.3453
20
49.015
0
VERTEX
8
CUT
10
107.5307
20
47.39
0
VERTEX
8
CUT
10
107.5307
20
43.39
0
VERTEX
8
CUT
10
110.3453
20
41.765
0
SEQEND
0
LINE
8
CUT
10
119.5726
20
49.015
11
120
21
48.7682
0
LINE
8
CUT
10
120
20
42.0118
11
119.5726
21
41.765
0
POLYLINE
8
CUT
66
1
70
0
0
VERTEX
8
CUT
10
118.2735
20
49.015
0
VERTEX
8
CUT
10
115.4589
20
47.39
0
VERTEX
8
CUT
10
115.4589
20
43.39
0
VERTEX
8
CUT
10
118.2735
20
41.765
0
SEQEND
0
POLYLINE
8
CUT
66
1
70
0
0
VERTEX
8
CUT
10
4.6136
20
42.145
0
VERTEX
8
CUT
10
7.4282
20
40.52
0
VERTEX
8
CUT
10
7.4282
20
36.52
0
VERTEX
8
CUT
10
4.6136
20
34.895
0
SEQEND
0
POLYLINE
8
CUT
66
1
70
0
0
VERTEX
8
CUT
10
3.3146
20
42.145
0
VERTEX
8
CUT
10
0.5
20
40.52
0
VERTEX
8
CUT
10
0.5
20
36.52
0
VERTEX
8
CUT
10
3.3146
20
34.895
0
SEQEND
0
POLYLINE
8
CUT
66
1
70
0
0
VERTEX
8
CUT
10
12.5418
20
42.145
0
VERTEX
8
CUT
10
15.3564
20
40.52
0
VERTEX
8
CUT
10
15.3564
20
36.52
0
VERTEX
8
CUT
10
12.5418
20
34.895
0
SEQEND
0
POLYLINE
8
CUT
66
1
70
0
0
VERTEX
8
CUT
10
11.2428
20
42.145
0
VERTEX
8
CUT
10
8.4282
20
40.52
0
VERTEX
8
CUT
10
8.4282
20
36.52
0
VERTEX
8
CUT
10
11.2428
20
34.895
0
SEQEND
0
POLYLINE
8
CUT
66
1
70
0
0
VERTEX
8
CUT
10
20.47
20
42.145
0
VERTEX
8
CUT
10
23.2846
20
40.52
0
VERTEX
8
CUT
10
23.2846
20
36.52
0
VERTEX
8
CUT
10
20.47
20
34.895
0
SEQEND
0
POLYLINE
8
CUT
66
1
70
0
0
VERTEX
8
CUT
10
19.171
20
42.145
0
VERTEX
8
CUT
10
16.3564
20
40.52
0
VERTEX
8
CUT
10
16.3564
20
36.52
0
VERTEX
8
CUT
10
19.171
20
34.895
0
SEQEND
0
POLYLINE
8
CUT
66
1
70
0
0
VERTEX
8
CUT
10
28.3982
20
42.145
0
VERTEX
8
CUT
10
31.2128
20
40.52
0
VERTEX
8
CUT
10
31.2128
20
36.52
0
VERTEX
8
CUT
10
28.3982
20
34.895
0
SEQEND
0
POLYLINE
8
CUT
66
1
70
0
0
VERTEX
8
CUT
10
27.0992
20
42.145
0
VERTEX
8
CUT
10
24.2846
20
40.52
0
VERTEX
8
CUT
10
24.2846
20
36.52
0
VERTEX
8
CUT
10
27.0992
20
34.895
0
SEQEND
0
POLYLINE
8
CUT
66
1
70
0
0
VERTEX
8
CUT
10
36.3264
20
42.145
0
VERTEX
8
CUT
10
39.141
20
40.52
0
VERTEX
8
CUT
10
39.141
20
36.52
0
VERTEX
8
CUT
10
36.3264
20
34.895
0
SEQEND
0
POLYLINE
8
CUT
66
1
70
0
0
VERTEX
8
CUT
10
35.0274
20
42.145
0
VERTEX
8
CUT
10
32.2128
20
40.52
0
VERTEX
8
CUT
10
32.2128
20
36.52
0
VERTEX
8
CUT
10
35.0274
20
34.895
0
SEQEND
0
POLYLINE
8
CUT
66
1
70
0
0
VERTEX
8
CUT
10
44.2546
20
42.145
0
VERTEX
8
CUT
10
47.0692
20
40.52
0
VERTEX
8
CUT
10
47.0692
20
36.52
0
VERTEX
8
CUT
10
44.2546
20
34.895
0
SEQEND
0
POLYLINE
8
CUT
66
1
70
0
0
VERTEX
8
CUT
10
42.9556
20
42.145
0
VERTEX
8
CUT
10
40.141
20
40.52
0
VERTEX
8
CUT
10
40.141
20
36.52
0
VERTEX
8
CUT
10
42.9556
20
34.895
0
SEQEND
0
POLYLINE
8
CUT
66
1
70
0
0
VERTEX
8
CUT
10
52.1828
20
42.145
0
VERTEX
8
CUT
10
54.9974
20
40.52
0
VERTEX
8
CUT
10
54.9974
20
36.52
0
VERTEX
8
CUT
10
52.1828
20
34.895
0
SEQEND
0
POLYLINE
8
CUT
66
1
70
0
0
VERTEX
8
CUT
10
50.8838
20
42.145
0
VERTEX
8
CUT
10
48.0692
20
40.52
0
VERTEX
8
CUT
10
48.0692
20
36.52
0
VERTEX
8
CUT
10
50.8838
20
34.895
0
SEQEND
0
POLYLINE
8
CUT
66
1
70
0
0
VERTEX
8
CUT
10
60.111
20
42.145
0
VERTEX
8
CUT
10
62.9256
20
40.52
0
VERTEX
8
CUT
10
62.9256
20
36.52
0
VERTEX
8
CUT
10
60.111
20
34.895
0
SEQEND
0
POLYLINE
8
CUT
66
1
70
0
0
VERTEX
8
CUT
10
58.812
20
42.145
0
VERTEX
8
CUT
10
55.9974
20
40.52
0
VERTEX
8
CUT
10
55.9974
20
36.52
0
VERTEX
8
CUT
10
58.812
20
34.895
0
SEQEND
0
POLYLINE
8
CUT
66
1
70
0
0
VERTEX
8
CUT
10
68.0392
20
42.145
0
VERTEX
8
CUT
10
70.8538
20
40.52
0
VERTEX
8
CUT
10
70.8538
20
36.52
0
VERTEX
8
CUT
10
68.0392
20
34.895
0
SEQEND
0
POLYLINE
8
CUT
66
1
70
0
0
VERTEX
8
CUT
10
66.7402
20
42.145
0
VERTEX
8
CUT
10
63.9256
20
40.52
0
VERTEX
8
CUT
10
63.9256
20
36.52
0
VERTEX
8
CUT
10
66.7402
20
34.895
0
SEQEND
0
POLYLINE
8
CUT
66
1
70
0
0
VERTEX
8
CUT
10
75.9674
20
42.145
0
VERTEX
8
CUT
10
78.782
20
40.52
0
VERTEX
8
CUT
10
78.782
20
36.52
0
VERTEX
8
CUT
10
75.9674
20
34.895
0
SEQEND
0
POLYLINE
8
CUT
66
1
70
0
0
VERTEX
8
CUT
10
74.6684
20
42.145
0
VERTEX
8
CUT
10
71.8538
20
40.52
0
VERTEX
8
CUT
10
71.8538
20
36.52
0
VERTEX
8
CUT
10
74.6684
20
34.895
0
SEQEND
0
POLYLINE
8
CUT
66
1
70
0
0
VERTEX
8
CUT
10
83.8957
20
42.145
0
VERTEX
8
CUT
10
86.7102
20
40.52
0
VERTEX
8
CUT
10
86.7102
20
36.52
0
VERTEX
8
CUT
10
83.8957
20
34.895
0
SEQEND
0
POLYLINE
8
CUT
66
1
70
0
0
VERTEX
8
CUT
10
82.5966
20
42.145
0
VERTEX
8
CUT
10
79.782
20
40.52
0
VERTEX
8
CUT
10
79.782
20
36.52
0
VERTEX
8
CUT
10
82.5966
20
34.895
0
SEQEND
0
POLYLINE
8
CUT
66
1
70
0
0
VERTEX
8
CUT
10
91.8239
20
42.145
0
VERTEX
8
CUT
10
94.6384
20
40.52
0
VERTEX
8
CUT
10
94.6384
20
36.52
0
VERTEX
8
CUT
10
91.8239
20
34.895
0
SEQEND
0
POLYLINE
8
CUT
66
1
70
0
0
VERTEX
8
CUT
10
90.5248
20
42.145
0
VERTEX
8
CUT
10
87.7102
20
40.52
0
VERTEX
8
CUT
10
87.7102
20
36.52
0
VERTEX
8
CUT
10
90.5248
20
34.895
0
SEQEND
0
POLYLINE
8
CUT
66
1
70
0
0
VERTEX
8
CUT
10
99.7521
20
42.145
0
VERTEX
8
CUT
10
102.5666
20
40.52
0
VERTEX
8
CUT
10
102.5666
20
36.52
0
VERTEX
8
CUT
10
99.7521
20
34.895
0
SEQEND
0
POLYLINE
8
CUT
66
1
70
0
0
VERTEX
8
CUT
10
98.453
20
42.145
0
VERTEX
8
CUT
10
95.6384
20
40.52
0
VERTEX
8
CUT
10
95.6384
20
36.52
0
VERTEX
8
CUT
10
98.453
20
34.895
0
SEQEND
0
POLYLINE
8
CUT
66
1
70
0
0
VERTEX
8
CUT
10
107.6803
20
42.145
0
VERTEX
8
CUT
10
110.4948
20
40.52
0
VERTEX
8
CUT
10
110.4948
20
36.52
0
VERTEX
8
CUT
10
107.6803
20
34.895
0
SEQEND
0
POLYLINE
8
CUT
66
1
70
0
0
VERTEX
8
CUT
10
106.3812
20
42.145
0
VERTEX
8
CUT
10
103.5666
20
40.52
0
VERTEX
8
CUT
10
103.5666
20
36.52
0
VERTEX
8
CUT
10
106.3812
20
34.895
0
SEQEND
0
POLYLINE
8
CUT
66
1
70
0
0
VERTEX
8
CUT
10
115.6085
20
42.145
0
VERTEX
8
CUT
10
118.423
20
40.52
0
VERTEX
8
CUT
10
118.423
20
36.52
0
VERTEX
8
CUT
10
115.6085
20
34.895
0
SEQEND
0
POLYLINE
8
CUT
66
1
70
0
0
VERTEX
8
CUT
10
114.3094
20
42.145
0
VERTEX
8
CUT
10
111.4948
20
40.52
0
VERTEX
8
CUT
10
111.4948
20
36.52
0
VERTEX
8
CUT
10
114.3094
20
34.895
0
SEQEND
0
POLYLINE
8
CUT
66
1
70
0
0
VERTEX
8
CUT
10
120
20
40.8531
0
VERTEX
8
CUT
10
119.423
20
40.52
0
VERTEX
8
CUT
10
119.423
20
36.52
0
VERTEX
8
CUT
10
120
20
36.1869
0
SEQEND
0
POLYLINE
8
CUT
66
1
70
0
0
VERTEX
8
CUT
10
0.6495
20
35.275
0
VERTEX
8
CUT
10
3.4641
20
33.65
0
VERTEX
8
CUT
10
3.4641
20
29.65
0
VERTEX
8
CUT
10
0.6495
20
28.025
0
SEQEND
0
POLYLINE
8
CUT
66
1
70
0
0
VERTEX
8
CUT
10
8.5777
20
35.275
0
VERTEX
8
CUT
10
11.3923
20
33.65
0
VERTEX
8
CUT
10
11.3923
20
29.65
0
VERTEX
8
CUT
10
8.5777
20
28.025
0
SEQEND
0
POLYLINE
8
CUT
66
1
70
0
0
VERTEX
8
CUT
10
7.2787
20
35.275
0
VERTEX
8
CUT
10
4.4641
20
33.65
0
VERTEX
8
CUT
10
4.4641
20
29.65
0
VERTEX
8
CUT
10
7.2787
20
28.025
0
SEQEND
0
POLYLINE
8
CUT
66
1
70
0
0
VERTEX
8
CUT
10
16.5059
20
35.275
0
VERTEX
8
CUT
10
19.3205
20
33.65
0
VERTEX
8
CUT
10
19.3205
20
29.65
0
VERTEX
8
CUT
10
16.5059
20
28.025
0
SEQEND
0
POLYLINE
8
CUT
66
1
70
0
0
VERTEX
8
CUT
10
15.2069
20
35.275
0
VERTEX
8
CUT
10
12.3923
20
33.65
0
VERTEX
8
CUT
10
12.3923
20
29.65
0
VERTEX
8
CUT
10
15.2069
20
28.025
0
SEQEND
0
POLYLINE
8
CUT
66
1
70
0
0
VERTEX
8
CUT
10
24.4341
20
35.275
0
VERTEX
8
CUT
10
27.2487
20
33.65
0
VERTEX
8
CUT
10
27.2487
20
29.65
0
VERTEX
8
CUT
10
24.4341
20
28.025
0
SEQEND
0
POLYLINE
8
CUT
66
1
70
0
0
VERTEX
8
CUT
10
23.1351
20
35.275
0
VERTEX
8
CUT
10
20.3205
20
33.65
0
VERTEX
8
CUT
10
20.3205
20
29.65
0
VERTEX
8
CUT
10
23.1351
20
28.025
0
SEQEND
0
POLYLINE
8
CUT
66
1
70
0
0
VERTEX
8
CUT
10
32.3623
20
35.275
0
VERTEX
8
CUT
10
35.1769
20
33.65
0
VERTEX
8
CUT
10
35.1769
20
29.65
0
VERTEX
8
CUT
10
32.3623
20
28.025
0
SEQEND
0
POLYLINE
8
CUT
66
1
70
0
0
VERTEX
8
CUT
10
31.0633
20
35.275
0
VERTEX
8
CUT
10
28.2487
20
33.65
0
VERTEX
8
CUT
10
28.2487
20
29.65
0
VERTEX
8
CUT
10
31.0633
20
28.025
0
SEQEND
0
POLYLINE
8
CUT
66
1
70
0
0
VERTEX
8
CUT
10
40.2905
20
35.275
0
VERTEX
8
CUT
10
43.1051
20
33.65
0
VERTEX
8
CUT
10
43.1051
20
29.65
0
VERTEX
8
CUT
10
40.2905
20
28.025
0
SEQEND
0
POLYLINE
8
CUT
66
1
70
0
0
VERTEX
8
CUT
10
38.9915
20
35.275
0
VERTEX
8
CUT
10
36.1769
20
33.65
0
VERTEX
8
CUT
10
36.1769
20
29.65
0
VERTEX
8
CUT
10
38.9915
20
28.025
0
SEQEND
0
POLYLINE
8
CUT
66
1
70
0
0
VERTEX
8
CUT
10
48.2187
20
35.275
0
VERTEX
8
CUT
10
51.0333
20
33.65
0
VERTEX
8
CUT
10
51.0333
20
29.65
0
VERTEX
8
CUT
10
48.2187
20
28.025
0
SEQEND
0
POLYLINE
8
CUT
66
1
70
0
0
VERTEX
8
CUT
10
46.9197
20
35.275
0
VERTEX
8
CUT
10
44.1051
20
33.65
0
VERTEX
8
CUT
10
44.1051
20
29.65
0
VERTEX
8
CUT
10
46.9197
20
28.025
0
SEQEND
0
POLYLINE
8
CUT
66
1
70
0
0
VERTEX
8
CUT
10
56.1469
20
35.275
0
VERTEX
8
CUT
10
58.9615
20
33.65
0
VERTEX
8
CUT
10
58.9615
20
29.65
0
VERTEX
8
CUT
10
56.1469
20
28.025
0
SEQEND
0
POLYLINE
8
CUT
66
1
70
0
0
VERTEX
8
CUT
10
54.8479
20
35.275
0
VERTEX
8
CUT
10
52.0333
20
33.65
0
VERTEX
8
CUT
10
52.0333
20
29.65
0
VERTEX
8
CUT
10
54.8479
20
28.025
0
SEQEND
0
POLYLINE
8
CUT
66
1
70
0
0
VERTEX
8
CUT
10
64.0751
20
35.275
0
VERTEX
8
CUT
10
66.8897
20
33.65
0
VERTEX
8
CUT
10
66.8897
20
29.65
0
VERTEX
8
CUT
10
64.0751
20
28.025
0
SEQEND
0
POLYLINE
8
CUT
66
1
70
0
0
VERTEX
8
CUT
10
62.7761
20
35.275
0
VERTEX
8
CUT
10
59.9615
20
33.65
0
VERTEX
8
CUT
10
59.9615
20
29.65
0
VERTEX
8
CUT
10
62.7761
20
28.025
0
SEQEND
0
POLYLINE
8
CUT
66
1
70
0
0
VERTEX
8
CUT
10
72.0033
20
35.275
0
VERTEX
8
CUT
10
74.8179
20
33.65
0
VERTEX
8
CUT
10
74.8179
20
29.65
0
VERTEX
8
CUT
10
72.0033
20
28.025
0
SEQEND
0
POLYLINE
8
CUT
66
1
70
0
0
VERTEX
8
CUT
10
70.7043
20
35.275
0
VERTEX
8
CUT
10
67.8897
20
33.65
0
VERTEX
8
CUT
10
67.8897
20
29.65
0
VERTEX
8
CUT
10
70.7043
20
28.025
0
SEQEND
0
POLYLINE
8
CUT
66
1
70
0
0
VERTEX
8
CUT
10
79.9316
20
35.275
0
VERTEX
8
CUT
10
82.7461
20
33.65
0
VERTEX
8
CUT
10
82.7461
20
29.65
0
VERTEX
8
CUT
10
79.9316
20
28.025
0
SEQEND
0
POLYLINE
8
CUT
66
1
70
0
0
VERTEX
8
CUT
10
78.6325
20
35.275
0
VERTEX
8
CUT
10
75.8179
20
33.65
0
VERTEX
8
CUT
10
75.8179
20
29.65
0
VERTEX
8
CUT
10
78.6325
20
28.025
0
SEQEND
0
POLYLINE
8
CUT
66
1
70
0
0
VERTEX
8
CUT
10
87.8598
20
35.275
0
VERTEX
8
CUT
10
90.6743
20
33.65
0
VERTEX
8
CUT
10
90.6743
20
29.65
0
VERTEX
8
CUT
10
87.8598
20
28.025
0
SEQEND
0
POLYLINE
8
CUT
66
1
70
0
0
VERTEX
8
CUT
10
86.5607
20
35.275
0
VERTEX
8
CUT
10
83.7461
20
33.65
0
VERTEX
8
CUT
10
83.7461
20
29.65
0
VERTEX
8
CUT
10
86.5607
20
28.025
0
SEQEND
0
POLYLINE
8
CUT
66
1
70
0
0
VERTEX
8
CUT
10
95.788
20
35.275
0
VERTEX
8
CUT
10
98.6025
20
33.65
0
VERTEX
8
CUT
10
98.6025
20
29.65
0
VERTEX
8
CUT
10
95.788
20
28.025
0
SEQEND
0
POLYLINE
8
CUT
66
1
70
0
0
VERTEX
8
CUT
10
94.4889
20
35.275
0
VERTEX
8
CUT
10
91.6743
20
33.65
0
VERTEX
8
CUT
10
91.6743
20
29.65
0
VERTEX
8
CUT
10
94.4889
20
28.025
0
SEQEND
0
POLYLINE
8
CUT
66
1
70
0
0
VERTEX
8
CUT
10
103.7162
20
35.275
0
VERTEX
8
CUT
10
106.5307
20
33.65
0
VERTEX
8
CUT
10
106.5307
20
29.65
0
VERTEX
8
CUT
10
103.7162
20
28.025
0
SEQEND
0
POLYLINE
8
CUT
66
1
70
0
0
VERTEX
8
CUT
10
102.4171
20
35.275
0
VERTEX
8
CUT
10
99.6025
20
33.65
0
VERTEX
8
CUT
10
99.6025
20
29.65
0
VERTEX
8
CUT
10
102.4171
20
28.025
0
SEQEND
0
POLYLINE
8
CUT
66
1
70
0
0
VERTEX
8
CUT
10
111.6444
20
35.275
0
VERTEX
8
CUT
10
114.4589
20
33.65
0
VERTEX
8
CUT
10
114.4589
20
29.65
0
VERTEX
8
CUT
10
111.6444
20
28.025
0
SEQEND
0
POLYLINE
8
CUT
66
1
70
0
0
VERTEX
8
CUT
10
110.3453
20
35.275
0
VERTEX
8
CUT
10
107.5307
20
33.65
0
VERTEX
8
CUT
10
107.5307
20
29.65
0
VERTEX
8
CUT
10
110.3453
20
28.025
0
SEQEND
0
LINE
8
CUT
10
119.5726
20
35.275
11
120
21
35.0282
0
LINE
8
CUT
10
120
20
28.2718
11
119.5726
21
28.025
0
POLYLINE
8
CUT
66
1
70
0
0
VERTEX
8
CUT
10
118.2735
20
35.275
0
VERTEX
8
CUT
10
115.4589
20
33.65
0
VERTEX
8
CUT
10
115.4589
20
29.65
0
VERTEX
8
CUT
10
118.2735
20
28.025
0
SEQEND
0
POLYLINE
8
CUT
66
1
70
0
0
VERTEX
8
CUT
10
4.6136
20
28.405
0
VERTEX
8
CUT
10
7.4282
20
26.78
0
VERTEX
8
CUT
10
7.4282
20
22.78
0
VERTEX
8
CUT
10
4.6136
20
21.155
0
SEQEND
0
POLYLINE
8
CUT
66
1
70
0
0
VERTEX
8
CUT
10
3.3146
20
28.405
0
VERTEX
8
CUT
10
0.5
20
26.78
0
VERTEX
8
CUT
10
0.5
20
22.78
0
VERTEX
8
CUT
10
3.3146
20
21.155
0
SEQEND
0
POLYLINE
8
CUT
66
1
70
0
0
VERTEX
8
CUT
10
12.5418
20
28.405
0
VERTEX
8
CUT
10
15.3564
20
26.78
0
VERTEX
8
CUT
10
15.3564
20
22.78
0
VERTEX
8
CUT
10
12.5418
20
21.155
0
SEQEND
0
POLYLINE
8
CUT
66
1
70
0
0
VERTEX
8
CUT
10
11.2428
20
28.405
0
VERTEX
8
CUT
10
8.4282
20
26.78
0
VERTEX
8
CUT
10
8.4282
20
22.78
0
VERTEX
8
CUT
10
11.2428
20
21.155
0
SEQEND
0
POLYLINE
8
CUT
66
1
70
0
0
VERTEX
8
CUT
10
20.47
20
28.405
0
VERTEX
8
CUT
10
23.2846
20
26.78
0
VERTEX
8
CUT
10
23.2846
20
22.78
0
VERTEX
8
CUT
10
20.47
20
21.155
0
SEQEND
0
POLYLINE
8
CUT
66
1
70
0
0
VERTEX
8
CUT
10
19.171
20
28.405
0
VERTEX
8
CUT
10
16.3564
20
26.78
0
VERTEX
8
CUT
10
16.3564
20
22.78
0
VERTEX
8
CUT
10
19.171
20
21.155
0
SEQEND
0
POLYLINE
8
CUT
66
1
70
0
0
VERTEX
8
CUT
10
28.3982
20
28.405
0
VERTEX
8
CUT
10
31.2128
20
26.78
0
VERTEX
8
CUT
10
31.2128
20
22.78
0
VERTEX
8
CUT
10
28.3982
20
21.155
0
SEQEND
0
POLYLINE
8
CUT
66
1
70
0
0
VERTEX
8
CUT
10
27.0992
20
28.405
0
VERTEX
8
CUT
10
24.2846
20
26.78
0
VERTEX
8
CUT
10
24.2846
20
22.78
0
VERTEX
8
CUT
10
27.0992
20
21.155
0
SEQEND
0
POLYLINE
8
CUT
66
1
70
0
0
VERTEX
8
CUT
10
36.3264
20
28.405
0
VERTEX
8
CUT
10
39.141
20
26.78
0
VERTEX
8
CUT
10
39.141
20
22.78
0
VERTEX
8
CUT
10
36.3264
20
21.155
0
SEQEND
0
POLYLINE
8
CUT
66
1
70
0
0
VERTEX
8
CUT
10
35.0274
20
28.405
0
VERTEX
8
CUT
10
32.2128
20
26.78
0
VERTEX
8
CUT
10
32.2128
20
22.78
0
VERTEX
8
CUT
10
35.0274
20
21.155
0
SEQEND
0
POLYLINE
8
CUT
66
1
70
0
0
VERTEX
8
CUT
10
44.2546
20
28.405
0
VERTEX
8
CUT
10
47.0692
20
26.78
0
VERTEX
8
CUT
10
47.0692
20
22.78
0
VERTEX
8
CUT
10
44.2546
20
21.155
0
SEQEND
0
POLYLINE
8
CUT
66
1
70
0
0
VERTEX
8
CUT
10
42.9556
20
28.405
0
VERTEX
8
CUT
10
40.141
20
26.78
0
VERTEX
8
CUT
10
40.141
20
22.78
0
VERTEX
8
CUT
10
42.9556
20
21.155
0
SEQEND
0
POLYLINE
8
CUT
66
1
70
0
0
VERTEX
8
CUT
10
52.1828
20
28.405
0
VERTEX
8
CUT
10
54.9974
20
26.78
0
VERTEX
8
CUT
10
54.9974
20
22.78
0
VERTEX
8
CUT
10
52.1828
20
21.155
0
SEQEND
0
POLYLINE
8
CUT
66
1
70
0
0
VERTEX
8
CUT
10
50.8838
20
28.405
0
VERTEX
8
CUT
10
48.0692
20
26.78
0
VERTEX
8
CUT
10
48.0692
20
22.78
0
VERTEX
8
CUT
10
50.8838
20
21.155
0
SEQEND
0
POLYLINE
8
CUT
66
1
70
0
0
VERTEX
8
CUT
10
60.111
20
28.405
0
VERTEX
8
CUT
10
62.9256
20
26.78
0
VERTEX
8
CUT
10
62.9256
20
22.78
0
VERTEX
8
CUT
10
60.111
20
21.155
0
SEQEND
0
POLYLINE
8
CUT
66
1
70
0
0
VERTEX
8
CUT
10
58.812
20
28.405
0
VERTEX
8
CUT
10
55.9974
20
26.78
0
VERTEX
8
CUT
10
55.9974
20
22.78
0
VERTEX
8
CUT
10
58.812
20
21.155
0
SEQEND
0
POLYLINE
8
CUT
66
1
70
0
0
VERTEX
8
CUT
10
68.0392
20
28.405
0
VERTEX
8
CUT
10
70.8538
20
26.78
0
VERTEX
8
CUT
10
70.8538
20
22.78
0
VERTEX
8
CUT
10
68.0392
20
21.155
0
SEQEND
0
POLYLINE
8
CUT
66
1
70
0
0
VERTEX
8
CUT
10
66.7402
20
28.405
0
VERTEX
8
CUT
10
63.9256
20
26.78
0
VERTEX
8
CUT
10
63.9256
20
22.78
0
VERTEX
8
CUT
10
66.7402
20
21.155
0
SEQEND
0
POLYLINE
8
CUT
66
1
70
0
0
VERTEX
8
CUT
10
75.9674
20
28.405
0
VERTEX
8
CUT
10
78.782
20
26.78
0
VERTEX
8
CUT
10
78.782
20
22.78
0
VERTEX
8
CUT
10
75.9674
20
21.155
0
SEQEND
0
POLYLINE
8
CUT
66
1
70
0
0
VERTEX
8
CUT
10
74.6684
20
28.405
0
VERTEX
8
CUT
10
71.8538
20
26.78
0
VERTEX
8
CUT
10
71.8538
20
22.78
0
VERTEX
8
CUT
10
74.6684
20
21.155
0
SEQEND
0
POLYLINE
8
CUT
66
1
70
0
0
VERTEX
8
CUT
10
83.8957
20
28.405
0
VERTEX
8
CUT
10
86.7102
20
26.78
0
VERTEX
8
CUT
10
86.7102
20
22.78
0
VERTEX
8
CUT
10
83.8957
20
21.155
0
SEQEND
0
POLYLINE
8
CUT
66
1
70
0
0
VERTEX
8
CUT
10
82.5966
20
28.405
0
VERTEX
8
CUT
10
79.782
20
26.78
0
VERTEX
8
CUT
10
79.782
20
22.78
0
VERTEX
8
CUT
10
82.5966
20
21.155
0
SEQEND
0
POLYLINE
8
CUT
66
1
70
0
0
VERTEX
8
CUT
10
91.8239
20
28.405
0
VERTEX
8
CUT
10
94.6384
20
26.78
0
VERTEX
8
CUT
10
94.6384
20
22.78
0
VERTEX
8
CUT
10
91.8239
20
21.155
0
SEQEND
0
POLYLINE
8
CUT
66
1
70
0
0
VERTEX
8
CUT
10
90.5248
20
28.405
0
VERTEX
8
CUT
10
87.7102
20
26.78
0
VERTEX
8
CUT
10
87.7102
20
22.78
0
VERTEX
8
CUT
10
90.5248
20
21.155
0
SEQEND
0
POLYLINE
8
CUT
66
1
70
0
0
VERTEX
8
CUT
10
99.7521
20
28.405
0
VERTEX
8
CUT
10
102.5666
20
26.78
0
VERTEX
8
CUT
10
102.5666
20
22.78
0
VERTEX
8
CUT
10
99.7521
20
21.155
0
SEQEND
0
POLYLINE
8
CUT
66
1
70
0
0
VERTEX
8
CUT
10
98.453
20
28.405
0
VERTEX
8
CUT
10
95.6384
20
26.78
0
VERTEX
8
CUT
10
95.6384
20
22.78
0
VERTEX
8
CUT
10
98.453
20
21.155
0
SEQEND
0
POLYLINE
8
CUT
66
1
70
0
0
VERTEX
8
CUT
10
107.6803
20
28.405
0
VERTEX
8
CUT
10
110.4948
20
26.78
0
VERTEX
8
CUT
10
110.4948
20
22.78
0
VERTEX
8
CUT
10
107.6803
20
21.155
0
SEQEND
0
POLYLINE
8
CUT
66
1
70
0
0
VERTEX
8
CUT
10
106.3812
20
28.405
0
VERTEX
8
CUT
10
103.5666
20
26.78
0
VERTEX
8
CUT
10
103.5666
20
22.78
0
VERTEX
8
CUT
10
106.3812
20
21.155
0
SEQEND
0
POLYLINE
8
CUT
66
1
70
0
0
VERTEX
8
CUT
10
115.6085
20
28.405
0
VERTEX
8
CUT
10
118.423
20
26.78
0
VERTEX
8
CUT
10
118.423
20
22.78
0
VERTEX
8
CUT
10
115.6085
20
21.155
0
SEQEND
0
POLYLINE
8
CUT
66
1
70
0
0
VERTEX
8
CUT
10
114.3094
20
28.405
0
VERTEX
8
CUT
10
111.4948
20
26.78
0
VERTEX
8
CUT
10
111.4948
20
22.78
0
VERTEX
8
CUT
10
114.3094
20
21.155
0
SEQEND
0
POLYLINE
8
CUT
66
1
70
0
0
VERTEX
8
CUT
10
120
20
27.1131
0
VERTEX
8
CUT
10
119.423
20
26.78
0
VERTEX
8
CUT
10
119.423
20
22.78
0
VERTEX
8
CUT
10
120
20
22.4469
0
SEQEND
0
POLYLINE
8
CUT
66
1
70
0
0
VERTEX
8
CUT
10
0.6495
20
21.535
0
VERTEX
8
CUT
10
3.4641
20
19.91
0
VERTEX
8
CUT
10
3.4641
20
15.91
0
VERTEX
8
CUT
10
0.6495
20
14.285
0
SEQEND
0
POLYLINE
8
CUT
66
1
70
0
0
VERTEX
8
CUT
10
8.5777
20
21.535
0
VERTEX
8
CUT
10
11.3923
20
19.91
0
VERTEX
8
CUT
10
11.3923
20
15.91
0
VERTEX
8
CUT
10
8.5777
20
14.285
0
SEQEND
0
POLYLINE
8
CUT
66
1
70
0
0
VERTEX
8
CUT
10
7.2787
20
21.535
0
VERTEX
8
CUT
10
4.4641
20
19.91
0
VERTEX
8
CUT
10
4.4641
20
15.91
0
VERTEX
8
CUT
10
7.2787
20
14.285
0
SEQEND
0
POLYLINE
8
CUT
66
1
70
0
0
VERTEX
8
CUT
10
16.5059
20
21.535
0
VERTEX
8
CUT
10
19.3205
20
19.91
0
VERTEX
8
CUT
10
19.3205
20
15.91
0
VERTEX
8
CUT
10
16.5059
20
14.285
0
SEQEND
0
POLYLINE
8
CUT
66
1
70
0
0
VERTEX
8
CUT
10
15.2069
20
21.535
0
VERTEX
8
CUT
10
12.3923
20
19.91
0
VERTEX
8
CUT
10
12.3923
20
15.91
0
VERTEX
8
CUT
10
15.2069
20
14.285
0
SEQEND
0
POLYLINE
8
CUT
66
1
70
0
0
VERTEX
8
CUT
10
24.4341
20
21.535
0
VERTEX
8
CUT
10
27.2487
20
19.91
0
VERTEX
8
CUT
10
27.2487
20
15.91
0
VERTEX
8
CUT
10
24.4341
20
14.285
0
SEQEND
0
POLYLINE
8
CUT
66
1
70
0
0
VERTEX
8
CUT
10
23.1351
20
21.535
0
VERTEX
8
CUT
10
20.3205
20
19.91
0
VERTEX
8
CUT
10
20.3205
20
15.91
0
VERTEX
8
CUT
10
23.1351
20
14.285
0
SEQEND
0
POLYLINE
8
CUT
66
1
70
0
0
VERTEX
8
CUT
10
32.3623
20
21.535
0
VERTEX
8
CUT
10
35.1769
20
19.91
0
VERTEX
8
CUT
10
35.1769
20
15.91
0
VERTEX
8
CUT
10
32.3623
20
14.285
0
SEQEND
0
POLYLINE
8
CUT
66
1
70
0
0
VERTEX
8
CUT
10
31.0633
20
21.535
0
VERTEX
8
CUT
10
28.2487
20
19.91
0
VERTEX
8
CUT
10
28.2487
20
15.91
0
VERTEX
8
CUT
10
31.0633
20
14.285
0
SEQEND
0
POLYLINE
8
CUT
66
1
70
0
0
VERTEX
8
CUT
10
40.2905
20
21.535
0
VERTEX
8
CUT
10
43.1051
20
19.91
0
VERTEX
8
CUT
10
43.1051
20
15.91
0
VERTEX
8
CUT
10
40.2905
20
14.285
0
SEQEND
0
POLYLINE
8
CUT
66
1
70
0
0
VERTEX
8
CUT
10
38.9915
20
21.535
0
VERTEX
8
CUT
10
36.1769
20
19.91
0
VERTEX
8
CUT
10
36.1769
20
15.91
0
VERTEX
8
CUT
10
38.9915
20
14.285
0
SEQEND
0
POLYLINE
8
CUT
66
1
70
0
0
VERTEX
8
CUT
10
48.2187
20
21.535
0
VERTEX
8
CUT
10
51.0333
20
19.91
0
VERTEX
8
CUT
10
51.0333
20
15.91
0
VERTEX
8
CUT
10
48.2187
20
14.285
0
SEQEND
0
POLYLINE
8
CUT
66
1
70
0
0
VERTEX
8
CUT
10
46.9197
20
21.535
0
VERTEX
8
CUT
10
44.1051
20
19.91
0
VERTEX
8
CUT
10
44.1051
20
15.91
0
VERTEX
8
CUT
10
46.9197
20
14.285
0
SEQEND
0
POLYLINE
8
CUT
66
1
70
0
0
VERTEX
8
CUT
10
56.1469
20
21.535
0
VERTEX
8
CUT
10
58.9615
20
19.91
0
VERTEX
8
CUT
10
58.9615
20
15.91
0
VERTEX
8
CUT
10
56.1469
20
14.285
0
SEQEND
0
POLYLINE
8
CUT
66
1
70
0
0
VERTEX
8
CUT
10
54.8479
20
21.535
0
VERTEX
8
CUT
10
52.0333
20
19.91
0
VERTEX
8
CUT
10
52.0333
20
15.91
0
VERTEX
8
CUT
10
54.8479
20
14.285
0
SEQEND
0
POLYLINE
8
CUT
66
1
70
0
0
VERTEX
8
CUT
10
64.0751
20
21.535
0
VERTEX
8
CUT
10
66.8897
20
19.91
0
VERTEX
8
CUT
10
66.8897
20
15.91
0
VERTEX
8
CUT
10
64.0751
20
14.285
0
SEQEND
0
POLYLINE
8
CUT
66
1
70
0
0
VERTEX
8
CUT
10
62.7761
20
21.535
0
VERTEX
8
CUT
10
59.9615
20
19.91
0
VERTEX
8
CUT
10
59.9615
20
15.91
0
VERTEX
8
CUT
10
62.7761
20
14.285
0
SEQEND
0
POLYLINE
8
CUT
66
1
70
0
0
VERTEX
8
CUT
10
72.0033
20
21.535
0
VERTEX
8
CUT
10
74.8179
20
19.91
0
VERTEX
8
CUT
10
74.8179
20
15.91
0
VERTEX
8
CUT
10
72.0033
20
14.285
0
SEQEND
0
POLYLINE
8
CUT
66
1
70
0
0
VERTEX
8
CUT
10
70.7043
20
21.535
0
VERTEX
8
CUT
10
67.8897
20
19.91
0
VERTEX
8
CUT
10
67.8897
20
15.91
0
VERTEX
8
CUT
10
70.7043
20
14.285
0
SEQEND
0
POLYLINE
8
CUT
66
1
70
0
0
VERTEX
8
CUT
10
79.9316
20
21.535
0
VERTEX
8
CUT
10
82.7461
20
19.91
0
VERTEX
8
CUT
10
82.7461
20
15.91
0
VERTEX
8
CUT
10
79.9316
20
14.285
0
SEQEND
0
POLYLINE
8
CUT
66
1
70
0
0
VERTEX
8
CUT
10
78.6325
20
21.535
0
VERTEX
8
CUT
10
75.8179
20
19.91
0
VERTEX
8
CUT
10
75.8179
20
15.91
0
VERTEX
8
CUT
10
78.6325
20
14.285
0
SEQEND
0
POLYLINE
8
CUT
66
1
70
0
0
VERTEX
8
CUT
10
87.8598
20
21.535
0
VERTEX
8
CUT
10
90.6743
20
19.91
0
VERTEX
8
CUT
10
90.6743
20
15.91
0
VERTEX
8
CUT
10
87.8598
20
14.285
0
SEQEND
0
POLYLINE
8
CUT
66
1
70
0
0
VERTEX
8
CUT
10
86.5607
20
21.535
0
VERTEX
8
CUT
10
83.7461
20
19.91
0
VERTEX
8
CUT
10
83.7461
20
15.91
0
VERTEX
8
CUT
10
86.5607
20
14.285
0
SEQEND
0
POLYLINE
8
CUT
66
1
70
0
0
VERTEX
8
CUT
10
95.788
20
21.535
0
VERTEX
8
CUT
10
98.6025
20
19.91
0
VERTEX
8
CUT
10
98.6025
20
15.91
0
VERTEX
8
CUT
10
95.788
20
14.285
0
SEQEND
0
POLYLINE
8
CUT
66
1
70
0
0
VERTEX
8
CUT
10
94.4889
20
21.535
0
VERTEX
8
CUT
10
91.6743
20
19.91
0
VERTEX
8
CUT
10
91.6743
20
15.91
0
VERTEX
8
CUT
10
94.4889
20
14.285
0
SEQEND
0
POLYLINE
8
CUT
66
1
70
0
0
VERTEX
8
CUT
10
103.7162
20
21.535
0
VERTEX
8
CUT
10
106.5307
20
19.91
0
VERTEX
8
CUT
10
106.5307
20
15.91
0
VERTEX
8
CUT
10
103.7162
20
14.285
0
SEQEND
0
POLYLINE
8
CUT
66
1
70
0
0
VERTEX
8
CUT
10
102.4171
20
21.535
0
VERTEX
8
CUT
10
99.6025
20
19.91
0
VERTEX
8
CUT
10
99.6025
20
15.91
0
VERTEX
8
CUT
10
102.4171
20
14.285
0
SEQEND
0
POLYLINE
8
CUT
66
1
70
0
0
VERTEX
8
CUT
10
111.6444
20
21.535
0
VERTEX
8
CUT
10
114.4589
20
19.91
0
VERTEX
8
CUT
10
114.4589
20
15.91
0
VERTEX
8
CUT
10
111.6444
20
14.285
0
SEQEND
0
POLYLINE
8
CUT
66
1
70
0
0
VERTEX
8
CUT
10
110.3453
20
21.535
0
VERTEX
8
CUT
10
107.5307
20
19.91
0
VERTEX
8
CUT
10
107.5307
20
15.91
0
VERTEX
8
CUT
10
110.3453
20
14.285
0
SEQEND
0
LINE
8
CUT
10
119.5726
20
21.535
11
120
21
21.2882
0
LINE
8
CUT
10
120
20
14.5318
11
119.5726
21
14.285
0
POLYLINE
8
CUT
66
1
70
0
0
VERTEX
8
CUT
10
118.2735
20
21.535
0
VERTEX
8
CUT
10
115.4589
20
19.91
0
VERTEX
8
CUT
10
115.4589
20
15.91
0
VERTEX
8
CUT
10
118.2735
20
14.285
0
SEQEND
0
POLYLINE
8
CUT
66
1
70
0
0
VERTEX
8
CUT
10
4.6136
20
14.665
0
VERTEX
8
CUT
10
7.4282
20
13.04
0
VERTEX
8
CUT
10
7.4282
20
9.04
0
VERTEX
8
CUT
10
4.6136
20
7.415
0
SEQEND
0
POLYLINE
8
CUT
66
1
70
0
0
VERTEX
8
CUT
10
3.3146
20
14.665
0
VERTEX
8
CUT
10
0.5
20
13.04
0
VERTEX
8
CUT
10
0.5
20
9.04
0
VERTEX
8
CUT
10
3.3146
20
7.415
0
SEQEND
0
POLYLINE
8
CUT
66
1
70
0
0
VERTEX
8
CUT
10
12.5418
20
14.665
0
VERTEX
8
CUT
10
15.3564
20
13.04
0
VERTEX
8
CUT
10
15.3564
20
9.04
0
VERTEX
8
CUT
10
12.5418
20
7.415
0
SEQEND
0
POLYLINE
8
CUT
66
1
70
0
0
VERTEX
8
CUT
10
11.2428
20
14.665
0
VERTEX
8
CUT
10
8.4282
20
13.04
0
VERTEX
8
CUT
10
8.4282
20
9.04
0
VERTEX
8
CUT
10
11.2428
20
7.415
0
SEQEND
0
POLYLINE
8
CUT
66
1
70
0
0
VERTEX
8
CUT
10
20.47
20
14.665
0
VERTEX
8
CUT
10
23.2846
20
13.04
0
VERTEX
8
CUT
10
23.2846
20
9.04
0
VERTEX
8
CUT
10
20.47
20
7.415
0
SEQEND
0
POLYLINE
8
CUT
66
1
70
0
0
VERTEX
8
CUT
10
19.171
20
14.665
0
VERTEX
8
CUT
10
16.3564
20
13.04
0
VERTEX
8
CUT
10
16.3564
20
9.04
0
VERTEX
8
CUT
10
19.171
20
7.415
0
SEQEND
0
POLYLINE
8
CUT
66
1
70
0
0
VERTEX
8
CUT
10
28.3982
20
14.665
0
VERTEX
8
CUT
10
31.2128
20
13.04
0
VERTEX
8
CUT
10
31.2128
20
9.04
0
VERTEX
8
CUT
10
28.3982
20
7.415
0
SEQEND
0
POLYLINE
8
CUT
66
1
70
0
0
VERTEX
8
CUT
10
27.0992
20
14.665
0
VERTEX
8
CUT
10
24.2846
20
13.04
0
VERTEX
8
CUT
10
24.2846
20
9.04
0
VERTEX
8
CUT
10
27.0992
20
7.415
0
SEQEND
0
POLYLINE
8
CUT
66
1
70
0
0
VERTEX
8
CUT
10
36.3264
20
14.665
0
VERTEX
8
CUT
10
39.141
20
13.04
0
VERTEX
8
CUT
10
39.141
20
9.04
0
VERTEX
8
CUT
10
36.3264
20
7.415
0
SEQEND
0
POLYLINE
8
CUT
66
1
70
0
0
VERTEX
8
CUT
10
35.0274
20
14.665
0
VERTEX
8
CUT
10
32.2128
20
13.04
0
VERTEX
8
CUT
10
32.2128
20
9.04
0
VERTEX
8
CUT
10
35.0274
20
7.415
0
SEQEND
0
POLYLINE
8
CUT
66
1
70
0
0
VERTEX
8
CUT
10
44.2546
20
14.665
0
VERTEX
8
CUT
10
47.0692
20
13.04
0
VERTEX
8
CUT
10
47.0692
20
9.04
0
VERTEX
8
CUT
10
44.2546
20
7.415
0
SEQEND
0
POLYLINE
8
CUT
66
1
70
0
0
VERTEX
8
CUT
10
42.9556
20
14.665
0
VERTEX
8
CUT
10
40.141
20
13.04
0
VERTEX
8
CUT
10
40.141
20
9.04
0
VERTEX
8
CUT
10
42.9556
20
7.415
0
SEQEND
0
POLYLINE
8
CUT
66
1
70
0
0
VERTEX
8
CUT
10
52.1828
20
14.665
0
VERTEX
8
CUT
10
54.9974
20
13.04
0
VERTEX
8
CUT
10
54.9974
20
9.04
0
VERTEX
8
CUT
10
52.1828
20
7.415
0
SEQEND
0
POLYLINE
8
CUT
66
1
70
0
0
VERTEX
8
CUT
10
50.8838
20
14.665
0
VERTEX
8
CUT
10
48.0692
20
13.04
0
VERTEX
8
CUT
10
48.0692
20
9.04
0
VERTEX
8
CUT
10
50.8838
20
7.415
0
SEQEND
0
POLYLINE
8
CUT
66
1
70
0
0
VERTEX
8
CUT
10
60.111
20
14.665
0
VERTEX
8
CUT
10
62.9256
20
13.04
0
VERTEX
8
CUT
10
62.9256
20
9.04
0
VERTEX
8
CUT
10
60.111
20
7.415
0
SEQEND
0
POLYLINE
8
CUT
66
1
70
0
0
VERTEX
8
CUT
10
58.812
20
14.665
0
VERTEX
8
CUT
10
55.9974
20
13.04
0
VERTEX
8
CUT
10
55.9974
20
9.04
0
VERTEX
8
CUT
10
58.812
20
7.415
0
SEQEND
0
POLYLINE
8
CUT
66
1
70
0
0
VERTEX
8
CUT
10
68.0392
20
14.665
0
VERTEX
8
CUT
10
70.8538
20
13.04
0
VERTEX
8
CUT
10
70.8538
20
9.04
0
VERTEX
8
CUT
10
68.0392
20
7.415
0
SEQEND
0
POLYLINE
8
CUT
66
1
70
0
0
VERTEX
8
CUT
10
66.7402
20
14.665
0
VERTEX
8
CUT
10
63.9256
20
13.04
0
VERTEX
8
CUT
10
63.9256
20
9.04
0
VERTEX
8
CUT
10
66.7402
20
7.415
0
SEQEND
0
POLYLINE
8
CUT
66
1
70
0
0
VERTEX
8
CUT
10
75.9674
20
14.665
0
VERTEX
8
CUT
10
78.782
20
13.04
0
VERTEX
8
CUT
10
78.782
20
9.04
0
VERTEX
8
CUT
10
75.9674
20
7.415
0
SEQEND
0
POLYLINE
8
CUT
66
1
70
0
0
VERTEX
8
CUT
10
74.6684
20
14.665
0
VERTEX
8
CUT
10
71.8538
20
13.04
0
VERTEX
8
CUT
10
71.8538
20
9.04
0
VERTEX
8
CUT
10
74.6684
20
7.415
0
SEQEND
0
POLYLINE
8
CUT
66
1
70
0
0
VERTEX
8
CUT
10
83.8957
20
14.665
0
VERTEX
8
CUT
10
86.7102
20
13.04
0
VERTEX
8
CUT
10
86.7102
20
9.04
0
VERTEX
8
CUT
10
83.8957
20
7.415
0
SEQEND
0
POLYLINE
8
CUT
66
1
70
0
0
VERTEX
8
CUT
10
82.5966
20
14.665
0
VERTEX
8
CUT
10
79.782
20
13.04
0
VERTEX
8
CUT
10
79.782
20
9.04
0
VERTEX
8
CUT
10
82.5966
20
7.415
0
SEQEND
0
POLYLINE
8
CUT
66
1
70
0
0
VERTEX
8
CUT
10
91.8239
20
14.665
0
VERTEX
8
CUT
10
94.6384
20
13.04
0
VERTEX
8
CUT
10
94.6384
20
9.04
0
VERTEX
8
CUT
10
91.8239
20
7.415
0
SEQEND
0
POLYLINE
8
CUT
66
1
70
0
0
VERTEX
8
CUT
10
90.5248
20
14.665
0
VERTEX
8
CUT
10
87.7102
20
13.04
0
VERTEX
8
CUT
10
87.7102
20
9.04
0
VERTEX
8
CUT
10
90.5248
20
7.415
0
SEQEND
0
POLYLINE
8
CUT
66
1
70
0
0
VERTEX
8
CUT
10
99.7521
20
14.665
0
VERTEX
8
CUT
10
102.5666
20
13.04
0
VERTEX
8
CUT
10
102.5666
20
9.04
0
VERTEX
8
CUT
10
99.7521
20
7.415
0
SEQEND
0
POLYLINE
8
CUT
66
1
70
0
0
VERTEX
8
CUT
10
98.453
20
14.665
0
VERTEX
8
CUT
10
95.6384
20
13.04
0
VERTEX
8
CUT
10
95.6384
20
9.04
0
VERTEX
8
CUT
10
98.453
20
7.415
0
SEQEND
0
POLYLINE
8
CUT
66
1
70
0
0
VERTEX
8
CUT
10
107.6803
20
14.665
0
VERTEX
8
CUT
10
110.4948
20
13.04
0
VERTEX
8
CUT
10
110.4948
20
9.04
0
VERTEX
8
CUT
10
107.6803
20
7.415
0
SEQEND
0
POLYLINE
8
CUT
66
1
70
0
0
VERTEX
8
CUT
10
106.3812
20
14.665
0
VERTEX
8
CUT
10
103.5666
20
13.04
0
VERTEX
8
CUT
10
103.5666
20
9.04
0
VERTEX
8
CUT
10
106.3812
20
7.415
0
SEQEND
0
POLYLINE
8
CUT
66
1
70
0
0
VERTEX
8
CUT
10
115.6085
20
14.665
0
VERTEX
8
CUT
10
118.423
20
13.04
0
VERTEX
8
CUT
10
118.423
20
9.04
0
VERTEX
8
CUT
10
115.6085
20
7.415
0
SEQEND
0
POLYLINE
8
CUT
66
1
70
0
0
VERTEX
8
CUT
10
114.3094
20
14.665
0
VERTEX
8
CUT
10
111.4948
20
13.04
0
VERTEX
8
CUT
10
111.4948
20
9.04
0
VERTEX
8
CUT
10
114.3094
20
7.415
0
SEQEND
0
POLYLINE
8
CUT
66
1
70
0
0
VERTEX
8
CUT
10
120
20
13.3731
0
VERTEX
8
CUT
10
119.423
20
13.04
0
VERTEX
8
CUT
10
119.423
20
9.04
0
VERTEX
8
CUT
10
120
20
8.7069
0
SEQEND
0
POLYLINE
8
CUT
66
1
70
0
0
VERTEX
8
CUT
10
0.6495
20
7.795
0
VERTEX
8
CUT
10
3.4641
20
6.17
0
VERTEX
8
CUT
10
3.4641
20
2.17
0
VERTEX
8
CUT
10
0.6495
20
0.545
0
SEQEND
0
POLYLINE
8
CUT
66
1
70
0
0
VERTEX
8
CUT
10
8.5777
20
7.795
0
VERTEX
8
CUT
10
11.3923
20
6.17
0
VERTEX
8
CUT
10
11.3923
20
2.17
0
VERTEX
8
CUT
10
8.5777
20
0.545
0
SEQEND
0
POLYLINE
8
CUT
66
1
70
0
0
VERTEX
8
CUT
10
7.2787
20
7.795
0
VERTEX
8
CUT
10
4.4641
20
6.17
0
VERTEX
8
CUT
10
4.4641
20
2.17
0
VERTEX
8
CUT
10
7.2787
20
0.545
0
SEQEND
0
POLYLINE
8
CUT
66
1
70
0
0
VERTEX
8
CUT
10
16.5059
20
7.795
0
VERTEX
8
CUT
10
19.3205
20
6.17
0
VERTEX
8
CUT
10
19.3205
20
2.17
0
VERTEX
8
CUT
10
16.5059
20
0.545
0
SEQEND
0
POLYLINE
8
CUT
66
1
70
0
0
VERTEX
8
CUT
10
15.2069
20
7.795
0
VERTEX
8
CUT
10
12.3923
20
6.17
0
VERTEX
8
CUT
10
12.3923
20
2.17
0
VERTEX
8
CUT
10
15.2069
20
0.545
0
SEQEND
0
POLYLINE
8
CUT
66
1
70
0
0
VERTEX
8
CUT
10
24.4341
20
7.795
0
VERTEX
8
CUT
10
27.2487
20
6.17
0
VERTEX
8
CUT
10
27.2487
20
2.17
0
VERTEX
8
CUT
10
24.4341
20
0.545
0
SEQEND
0
POLYLINE
8
CUT
66
1
70
0
0
VERTEX
8
CUT
10
23.1351
20
7.795
0
VERTEX
8
CUT
10
20.3205
20
6.17
0
VERTEX
8
CUT
10
20.3205
20
2.17
0
VERTEX
8
CUT
10
23.1351
20
0.545
0
SEQEND
0
POLYLINE
8
CUT
66
1
70
0
0
VERTEX
8
CUT
10
32.3623
20
7.795
0
VERTEX
8
CUT
10
35.1769
20
6.17
0
VERTEX
8
CUT
10
35.1769
20
2.17
0
VERTEX
8
CUT
10
32.3623
20
0.545
0
SEQEND
0
POLYLINE
8
CUT
66
1
70
0
0
VERTEX
8
CUT
10
31.0633
20
7.795
0
VERTEX
8
CUT
10
28.2487
20
6.17
0
VERTEX
8
CUT
10
28.2487
20
2.17
0
VERTEX
8
CUT
10
31.0633
20
0.545
0
SEQEND
0
POLYLINE
8
CUT
66
1
70
0
0
VERTEX
8
CUT
10
40.2905
20
7.795
0
VERTEX
8
CUT
10
43.1051
20
6.17
0
VERTEX
8
CUT
10
43.1051
20
2.17
0
VERTEX
8
CUT
10
40.2905
20
0.545
0
SEQEND
0
POLYLINE
8
CUT
66
1
70
0
0
VERTEX
8
CUT
10
38.9915
20
7.795
0
VERTEX
8
CUT
10
36.1769
20
6.17
0
VERTEX
8
CUT
10
36.1769
20
2.17
0
VERTEX
8
CUT
10
38.9915
20
0.545
0
SEQEND
0
POLYLINE
8
CUT
66
1
70
0
0
VERTEX
8
CUT
10
48.2187
20
7.795
0
VERTEX
8
CUT
10
51.0333
20
6.17
0
VERTEX
8
CUT
10
51.0333
20
2.17
0
VERTEX
8
CUT
10
48.2187
20
0.545
0
SEQEND
0
POLYLINE
8
CUT
66
1
70
0
0
VERTEX
8
CUT
10
46.9197
20
7.795
0
VERTEX
8
CUT
10
44.1051
20
6.17
0
VERTEX
8
CUT
10
44.1051
20
2.17
0
VERTEX
8
CUT
10
46.9197
20
0.545
0
SEQEND
0
POLYLINE
8
CUT
66
1
70
0
0
VERTEX
8
CUT
10
56.1469
20
7.795
0
VERTEX
8
CUT
10
58.9615
20
6.17
0
VERTEX
8
CUT
10
58.9615
20
2.17
0
VERTEX
8
CUT
10
56.1469
20
0.545
0
SEQEND
0
POLYLINE
8
CUT
66
1
70
0
0
VERTEX
8
CUT
10
54.8479
20
7.795
0
VERTEX
8
CUT
10
52.0333
20
6.17
0
VERTEX
8
CUT
10
52.0333
20
2.17
0
VERTEX
8
CUT
10
54.8479
20
0.545
0
SEQEND
0
POLYLINE
8
CUT
66
1
70
0
0
VERTEX
8
CUT
10
64.0751
20
7.795
0
VERTEX
8
CUT
10
66.8897
20
6.17
0
VERTEX
8
CUT
10
66.8897
20
2.17
0
VERTEX
8
CUT
10
64.0751
20
0.545
0
SEQEND
0
POLYLINE
8
CUT
66
1
70
0
0
VERTEX
8
CUT
10
62.7761
20
7.795
0
VERTEX
8
CUT
10
59.9615
20
6.17
0
VERTEX
8
CUT
10
59.9615
20
2.17
0
VERTEX
8
CUT
10
62.7761
20
0.545
0
SEQEND
0
POLYLINE
8
CUT
66
1
70
0
0
VERTEX
8
CUT
10
72.0033
20
7.795
0
VERTEX
8
CUT
10
74.8179
20
6.17
0
VERTEX
8
CUT
10
74.8179
20
2.17
0
VERTEX
8
CUT
10
72.0033
20
0.545
0
SEQEND
0
POLYLINE
8
CUT
66
1
70
0
0
VERTEX
8
CUT
10
70.7043
20
7.795
0
VERTEX
8
CUT
10
67.8897
20
6.17
0
VERTEX
8
CUT
10
67.8897
20
2.17
0
VERTEX
8
CUT
10
70.7043
20
0.545
0
SEQEND
0
POLYLINE
8
CUT
66
1
70
0
0
VERTEX
8
CUT
10
79.9316
20
7.795
0
VERTEX
8
CUT
10
82.7461
20
6.17
0
VERTEX
8
CUT
10
82.7461
20
2.17
0
VERTEX
8
CUT
10
79.9316
20
0.545
0
SEQEND
0
POLYLINE
8
CUT
66
1
70
0
0
VERTEX
8
CUT
10
78.6325
20
7.795
0
VERTEX
8
CUT
10
75.8179
20
6.17
0
VERTEX
8
CUT
10
75.8179
20
2.17
0
VERTEX
8
CUT
10
78.6325
20
0.545
0
SEQEND
0
POLYLINE
8
CUT
66
1
70
0
0
VERTEX
8
CUT
10
87.8598
20
7.795
0
VERTEX
8
CUT
10
90.6743
20
6.17
0
VERTEX
8
CUT
10
90.6743
20
2.17
0
VERTEX
8
CUT
10
87.8598
20
0.545
0
SEQEND
0
POLYLINE
8
CUT
66
1
70
0
0
VERTEX
8
CUT
10
86.5607
20
7.795
0
VERTEX
8
CUT
10
83.7461
20
6.17
0
VERTEX
8
CUT
10
83.7461
20
2.17
0
VERTEX
8
CUT
10
86.5607
20
0.545
0
SEQEND
0
POLYLINE
8
CUT
66
1
70
0
0
VERTEX
8
CUT
10
95.788
20
7.795
0
VERTEX
8
CUT
10
98.6025
20
6.17
0
VERTEX
8
CUT
10
98.6025
20
2.17
0
VERTEX
8
CUT
10
95.788
20
0.545
0
SEQEND
0
POLYLINE
8
CUT
66
1
70
0
0
VERTEX
8
CUT
10
94.4889
20
7.795
0
VERTEX
8
CUT
10
91.6743
20
6.17
0
VERTEX
8
CUT
10
91.6743
20
2.17
0
VERTEX
8
CUT
10
94.4889
20
0.545
0
SEQEND
0
POLYLINE
8
CUT
66
1
70
0
0
VERTEX
8
CUT
10
103.7162
20
7.795
0
VERTEX
8
CUT
10
106.5307
20
6.17
0
VERTEX
8
CUT
10
106.5307
20
2.17
0
VERTEX
8
CUT
10
103.7162
20
0.545
0
SEQEND
0
POLYLINE
8
CUT
66
1
70
0
0
VERTEX
8
CUT
10
102.4171
20
7.795
0
VERTEX
8
CUT
10
99.6025
20
6.17
0
VERTEX
8
CUT
10
99.6025
20
2.17
0
VERTEX
8
CUT
10
102.4171
20
0.545
0
SEQEND
0
POLYLINE
8
CUT
66
1
70
0
0
VERTEX
8
CUT
10
111.6444
20
7.795
0
VERTEX
8
CUT
10
114.4589
20
6.17
0
VERTEX
8
CUT
10
114.4589
20
2.17
0
VERTEX
8
CUT
10
111.6444
20
0.545
0
SEQEND
0
POLYLINE
8
CUT
66
1
70
0
0
VERTEX
8
CUT
10
110.3453
20
7.795
0
VERTEX
8
CUT
10
107.5307
20
6.17
0
VERTEX
8
CUT
10
107.5307
20
2.17
0
VERTEX
8
CUT
10
110.3453
20
0.545
0
SEQEND
0
LINE
8
CUT
10
119.5726
20
7.795
11
120
21
7.5482
0
LINE
8
CUT
10
120
20
0.7918
11
119.5726
21
0.545
0
POLYLINE
8
CUT
66
1
70
0
0
VERTEX
8
CUT
10
118.2735
20
7.795
0
VERTEX
8
CUT
10
115.4589
20
6.17
0
VERTEX
8
CUT
10
115.4589
20
2.17
0
VERTEX
8
CUT
10
118.2735
20
0.545
0
SEQEND
0
LINE
8
CUT
10
4.6136
20
0.925
11
6.2158
21
0
0
LINE
8
CUT
10
3.3146
20
0.925
11
1.7124
21
0
0
LINE
8
CUT
10
12.5418
20
0.925
11
14.144
21
0
0
LINE
8
CUT
10
11.2428
20
0.925
11
9.6406
21
0
0
LINE
8
CUT
10
20.47
20
0.925
11
22.0722
21
0
0
LINE
8
CUT
10
19.171
20
0.925
11
17.5688
21
0
0
LINE
8
CUT
10
28.3982
20
0.925
11
30.0004
21
0
0
LINE
8
CUT
10
27.0992
20
0.925
11
25.497
21
0
0
LINE
8
CUT
10
36.3264
20
0.925
11
37.9286
21
0
0
LINE
8
CUT
10
35.0274
20
0.925
11
33.4252
21
0
0
LINE
8
CUT
10
44.2546
20
0.925
11
45.8568
21
0
0
LINE
8
CUT
10
42.9556
20
0.925
11
41.3535
21
0
0
LINE
8
CUT
10
52.1828
20
0.925
11
53.785
21
0
0
LINE
8
CUT
10
50.8838
20
0.925
11
49.2817
21
0
0
LINE
8
CUT
10
60.111
20
0.925
11
61.7132
21
0
0
LINE
8
CUT
10
58.812
20
0.925
11
57.2099
21
0
0
LINE
8
CUT
10
68.0392
20
0.925
11
69.6414
21
0
0
LINE
8
CUT
10
66.7402
20
0.925
11
65.1381
21
0
0
LINE
8
CUT
10
75.9674
20
0.925
11
77.5696
21
0
0
LINE
8
CUT
10
74.6684
20
0.925
11
73.0663
21
0
0
LINE
8
CUT
10
83.8957
20
0.925
11
85.4978
21
0
0
LINE
8
CUT
10
82.5966
20
0.925
11
80.9945
21
0
0
LINE
8
CUT
10
91.8239
20
0.925
11
93.426
21
0
0
LINE
8
CUT
10
90.5248
20
0.925
11
88.9227
21
0
0
LINE
8
CUT
10
99.7521
20
0.925
11
101.3542
21
0
0
LINE
8
CUT
10
98.453
20
0.925
11
96.8509
21
0
0
LINE
8
CUT
10
107.6803
20
0.925
11
109.2824
21
0
0
LINE
8
CUT
10
106.3812
20
0.925
11
104.7791
21
0
0
LINE
8
CUT
10
115.6085
20
0.925
11
117.2106
21
0
0
LINE
8
CUT
10
114.3094
20
0.925
11
112.7073
21
0
0
POLYLINE
8
CUT
66
1
70
0
0
VERTEX
8
CUT
10
0
20
70
0
VERTEX
8
CUT
10
120
20
70
0
VERTEX
8
CUT
10
120
20
0
0
VERTEX
8
CUT
10
0
20
0
0
VERTEX
8
CUT
10
0
20
70
0
SEQEND
0
ENDSEC
0
EOF
