0
SECTION
2
HEADER
9
$ACADVER
1
AC1009
9
$INSUNITS
70
4
0
ENDSEC
0
SECTION
2
TABLES
0
TABLE
2
LAYER
70
1
0
LAYER
2
CUT
70
0
62
1
6
CONTINUOUS
0
ENDTAB
0
ENDSEC
0
SECTION
2
ENTITIES
0
POLYLINE
8
CUT
66
1
70
0
0
VERTEX
8
CUT
10
0
20
62
0
VERTEX
8
CUT
10
0
20
62
0
VERTEX
8
CUT
10
1.1667
20
61.3323
0
VERTEX
8
CUT
10
2.3333
20
60.7173
0
VERTEX
8
CUT
10
3.5
20
60.2036
0
VERTEX
8
CUT
10
4.6667
20
59.8317
0
VERTEX
8
CUT
10
5.8333
20
59.6311
0
VERTEX
8
CUT
10
7
20
59.6175
0
SEQEND
0
POLYLINE
8
CUT
66
1
70
0
0
VERTEX
8
CUT
10
10
20
60.4085
0
VERTEX
8
CUT
10
11.1667
20
60.9711
0
VERTEX
8
CUT
10
12.3333
20
61.615
0
VERTEX
8
CUT
10
13.5
20
62.2893
0
VERTEX
8
CUT
10
14.6667
20
62.9407
0
VERTEX
8
CUT
10
15.8333
20
63.5179
0
VERTEX
8
CUT
10
17
20
63.9752
0
VERTEX
8
CUT
10
18.1667
20
64.2765
0
VERTEX
8
CUT
10
19.3333
20
64.3981
0
VERTEX
8
CUT
10
20.5
20
64.3303
0
VERTEX
8
CUT
10
21.6667
20
64.0785
0
VERTEX
8
CUT
10
22.8333
20
63.6625
0
VERTEX
8
CUT
10
24
20
63.1153
0
SEQEND
0
POLYLINE
8
CUT
66
1
70
0
0
VERTEX
8
CUT
10
27
20
61.4256
0
VERTEX
8
CUT
10
28.1667
20
60.8
0
VERTEX
8
CUT
10
29.3333
20
60.2691
0
VERTEX
8
CUT
10
30.5
20
59.8749
0
VERTEX
8
CUT
10
31.6667
20
59.6485
0
VERTEX
8
CUT
10
32.8333
20
59.6078
0
VERTEX
8
CUT
10
34
20
59.756
0
VERTEX
8
CUT
10
35.1667
20
60.0813
0
VERTEX
8
CUT
10
36.3333
20
60.5582
0
VERTEX
8
CUT
10
37.5
20
61.1489
0
VERTEX
8
CUT
10
38.6667
20
61.8069
0
VERTEX
8
CUT
10
39.8333
20
62.4801
0
VERTEX
8
CUT
10
41
20
63.1153
0
SEQEND
0
POLYLINE
8
CUT
66
1
70
0
0
VERTEX
8
CUT
10
44
20
64.244
0
VERTEX
8
CUT
10
45.1667
20
64.3922
0
VERTEX
8
CUT
10
46.3333
20
64.3515
0
VERTEX
8
CUT
10
47.5
20
64.1251
0
VERTEX
8
CUT
10
48.6667
20
63.7309
0
VERTEX
8
CUT
10
49.8333
20
63.2
0
VERTEX
8
CUT
10
51
20
62.5744
0
VERTEX
8
CUT
10
52.1667
20
61.9034
0
VERTEX
8
CUT
10
53.3333
20
61.24
0
VERTEX
8
CUT
10
54.5
20
60.6366
0
VERTEX
8
CUT
10
55.6667
20
60.1409
0
VERTEX
8
CUT
10
56.8333
20
59.792
0
VERTEX
8
CUT
10
58
20
59.6175
0
SEQEND
0
POLYLINE
8
CUT
66
1
70
0
0
VERTEX
8
CUT
10
61
20
60.0248
0
VERTEX
8
CUT
10
62.1667
20
60.4821
0
VERTEX
8
CUT
10
63.3333
20
61.0593
0
VERTEX
8
CUT
10
64.5
20
61.7107
0
VERTEX
8
CUT
10
65.6667
20
62.385
0
VERTEX
8
CUT
10
66.8333
20
63.0289
0
VERTEX
8
CUT
10
68
20
63.5915
0
VERTEX
8
CUT
10
69.1667
20
64.0285
0
VERTEX
8
CUT
10
70.3333
20
64.3052
0
VERTEX
8
CUT
10
71.5
20
64.4
0
VERTEX
8
CUT
10
72.6667
20
64.3052
0
VERTEX
8
CUT
10
73.8333
20
64.0285
0
VERTEX
8
CUT
10
75
20
63.5915
0
SEQEND
0
POLYLINE
8
CUT
66
1
70
0
0
VERTEX
8
CUT
10
78
20
62
0
VERTEX
8
CUT
10
79.1667
20
61.3323
0
VERTEX
8
CUT
10
80.3333
20
60.7173
0
VERTEX
8
CUT
10
81.5
20
60.2036
0
VERTEX
8
CUT
10
82.6667
20
59.8317
0
VERTEX
8
CUT
10
83.8333
20
59.6311
0
VERTEX
8
CUT
10
85
20
59.6175
0
VERTEX
8
CUT
10
86.1667
20
59.792
0
VERTEX
8
CUT
10
87.3333
20
60.1409
0
VERTEX
8
CUT
10
88.5
20
60.6366
0
VERTEX
8
CUT
10
89.6667
20
61.24
0
VERTEX
8
CUT
10
90.8333
20
61.9034
0
VERTEX
8
CUT
10
92
20
62.5744
0
SEQEND
0
POLYLINE
8
CUT
66
1
70
0
0
VERTEX
8
CUT
10
95
20
63.9752
0
VERTEX
8
CUT
10
96.1667
20
64.2765
0
VERTEX
8
CUT
10
97.3333
20
64.3981
0
VERTEX
8
CUT
10
98.5
20
64.3303
0
VERTEX
8
CUT
10
99.6667
20
64.0785
0
VERTEX
8
CUT
10
100.8333
20
63.6625
0
VERTEX
8
CUT
10
102
20
63.1153
0
VERTEX
8
CUT
10
103.1667
20
62.4801
0
VERTEX
8
CUT
10
104.3333
20
61.8069
0
VERTEX
8
CUT
10
105.5
20
61.1489
0
VERTEX
8
CUT
10
106.6667
20
60.5582
0
VERTEX
8
CUT
10
107.8333
20
60.0813
0
VERTEX
8
CUT
10
109
20
59.756
0
SEQEND
0
POLYLINE
8
CUT
66
1
70
0
0
VERTEX
8
CUT
10
112
20
59.756
0
VERTEX
8
CUT
10
113.1667
20
60.0813
0
VERTEX
8
CUT
10
114.3333
20
60.5582
0
VERTEX
8
CUT
10
115.5
20
61.1489
0
VERTEX
8
CUT
10
116.6667
20
61.8069
0
VERTEX
8
CUT
10
117.8333
20
62.4801
0
VERTEX
8
CUT
10
119
20
63.1153
0
VERTEX
8
CUT
10
120
20
63.5844
0
SEQEND
0
POLYLINE
8
CUT
66
1
70
0
0
VERTEX
8
CUT
10
1.5
20
52.1489
0
VERTEX
8
CUT
10
2.6667
20
51.5582
0
VERTEX
8
CUT
10
3.8333
20
51.0813
0
VERTEX
8
CUT
10
5
20
50.756
0
VERTEX
8
CUT
10
6.1667
20
50.6078
0
VERTEX
8
CUT
10
7.3333
20
50.6485
0
VERTEX
8
CUT
10
8.5
20
50.8749
0
VERTEX
8
CUT
10
9.6667
20
51.2691
0
VERTEX
8
CUT
10
10.8333
20
51.8
0
VERTEX
8
CUT
10
12
20
52.4256
0
VERTEX
8
CUT
10
13.1667
20
53.0966
0
VERTEX
8
CUT
10
14.3333
20
53.76
0
VERTEX
8
CUT
10
15.5
20
54.3634
0
SEQEND
0
POLYLINE
8
CUT
66
1
70
0
0
VERTEX
8
CUT
10
18.5
20
55.3303
0
VERTEX
8
CUT
10
19.6667
20
55.3981
0
VERTEX
8
CUT
10
20.8333
20
55.2765
0
VERTEX
8
CUT
10
22
20
54.9752
0
VERTEX
8
CUT
10
23.1667
20
54.5179
0
VERTEX
8
CUT
10
24.3333
20
53.9407
0
VERTEX
8
CUT
10
25.5
20
53.2893
0
VERTEX
8
CUT
10
26.6667
20
52.615
0
VERTEX
8
CUT
10
27.8333
20
51.9711
0
VERTEX
8
CUT
10
29
20
51.4085
0
VERTEX
8
CUT
10
30.1667
20
50.9715
0
VERTEX
8
CUT
10
31.3333
20
50.6948
0
VERTEX
8
CUT
10
32.5
20
50.6
0
SEQEND
0
POLYLINE
8
CUT
66
1
70
0
0
VERTEX
8
CUT
10
35.5
20
51.2036
0
VERTEX
8
CUT
10
36.6667
20
51.7173
0
VERTEX
8
CUT
10
37.8333
20
52.3323
0
VERTEX
8
CUT
10
39
20
53
0
VERTEX
8
CUT
10
40.1667
20
53.6677
0
VERTEX
8
CUT
10
41.3333
20
54.2827
0
VERTEX
8
CUT
10
42.5
20
54.7964
0
VERTEX
8
CUT
10
43.6667
20
55.1683
0
VERTEX
8
CUT
10
44.8333
20
55.3689
0
VERTEX
8
CUT
10
46
20
55.3825
0
VERTEX
8
CUT
10
47.1667
20
55.208
0
VERTEX
8
CUT
10
48.3333
20
54.8591
0
VERTEX
8
CUT
10
49.5
20
54.3634
0
SEQEND
0
POLYLINE
8
CUT
66
1
70
0
0
VERTEX
8
CUT
10
52.5
20
52.7107
0
VERTEX
8
CUT
10
53.6667
20
52.0593
0
VERTEX
8
CUT
10
54.8333
20
51.4821
0
VERTEX
8
CUT
10
56
20
51.0248
0
VERTEX
8
CUT
10
57.1667
20
50.7235
0
VERTEX
8
CUT
10
58.3333
20
50.6019
0
VERTEX
8
CUT
10
59.5
20
50.6697
0
VERTEX
8
CUT
10
60.6667
20
50.9215
0
VERTEX
8
CUT
10
61.8333
20
51.3375
0
VERTEX
8
CUT
10
63
20
51.8847
0
VERTEX
8
CUT
10
64.1667
20
52.5199
0
VERTEX
8
CUT
10
65.3333
20
53.1931
0
VERTEX
8
CUT
10
66.5
20
53.8511
0
SEQEND
0
POLYLINE
8
CUT
66
1
70
0
0
VERTEX
8
CUT
10
69.5
20
55.1251
0
VERTEX
8
CUT
10
70.6667
20
55.3515
0
VERTEX
8
CUT
10
71.8333
20
55.3922
0
VERTEX
8
CUT
10
73
20
55.244
0
VERTEX
8
CUT
10
74.1667
20
54.9187
0
VERTEX
8
CUT
10
75.3333
20
54.4418
0
VERTEX
8
CUT
10
76.5
20
53.8511
0
VERTEX
8
CUT
10
77.6667
20
53.1931
0
VERTEX
8
CUT
10
78.8333
20
52.5199
0
VERTEX
8
CUT
10
80
20
51.8847
0
VERTEX
8
CUT
10
81.1667
20
51.3375
0
VERTEX
8
CUT
10
82.3333
20
50.9215
0
VERTEX
8
CUT
10
83.5
20
50.6697
0
SEQEND
0
POLYLINE
8
CUT
66
1
70
0
0
VERTEX
8
CUT
10
86.5
20
50.8749
0
VERTEX
8
CUT
10
87.6667
20
51.2691
0
VERTEX
8
CUT
10
88.8333
20
51.8
0
VERTEX
8
CUT
10
90
20
52.4256
0
VERTEX
8
CUT
10
91.1667
20
53.0966
0
VERTEX
8
CUT
10
92.3333
20
53.76
0
VERTEX
8
CUT
10
93.5
20
54.3634
0
VERTEX
8
CUT
10
94.6667
20
54.8591
0
VERTEX
8
CUT
10
95.8333
20
55.208
0
VERTEX
8
CUT
10
97
20
55.3825
0
VERTEX
8
CUT
10
98.1667
20
55.3689
0
VERTEX
8
CUT
10
99.3333
20
55.1683
0
VERTEX
8
CUT
10
100.5
20
54.7964
0
SEQEND
0
POLYLINE
8
CUT
66
1
70
0
0
VERTEX
8
CUT
10
103.5
20
53.2893
0
VERTEX
8
CUT
10
104.6667
20
52.615
0
VERTEX
8
CUT
10
105.8333
20
51.9711
0
VERTEX
8
CUT
10
107
20
51.4085
0
VERTEX
8
CUT
10
108.1667
20
50.9715
0
VERTEX
8
CUT
10
109.3333
20
50.6948
0
VERTEX
8
CUT
10
110.5
20
50.6
0
VERTEX
8
CUT
10
111.6667
20
50.6948
0
VERTEX
8
CUT
10
112.8333
20
50.9715
0
VERTEX
8
CUT
10
114
20
51.4085
0
VERTEX
8
CUT
10
115.1667
20
51.9711
0
VERTEX
8
CUT
10
116.3333
20
52.615
0
VERTEX
8
CUT
10
117.5
20
53.2893
0
SEQEND
0
POLYLINE
8
CUT
66
1
70
0
0
VERTEX
8
CUT
10
0
20
44
0
VERTEX
8
CUT
10
0
20
44
0
VERTEX
8
CUT
10
1.1667
20
43.3323
0
VERTEX
8
CUT
10
2.3333
20
42.7173
0
VERTEX
8
CUT
10
3.5
20
42.2036
0
VERTEX
8
CUT
10
4.6667
20
41.8317
0
VERTEX
8
CUT
10
5.8333
20
41.6311
0
VERTEX
8
CUT
10
7
20
41.6175
0
SEQEND
0
POLYLINE
8
CUT
66
1
70
0
0
VERTEX
8
CUT
10
10
20
42.4085
0
VERTEX
8
CUT
10
11.1667
20
42.9711
0
VERTEX
8
CUT
10
12.3333
20
43.615
0
VERTEX
8
CUT
10
13.5
20
44.2893
0
VERTEX
8
CUT
10
14.6667
20
44.9407
0
VERTEX
8
CUT
10
15.8333
20
45.5179
0
VERTEX
8
CUT
10
17
20
45.9752
0
VERTEX
8
CUT
10
18.1667
20
46.2765
0
VERTEX
8
CUT
10
19.3333
20
46.3981
0
VERTEX
8
CUT
10
20.5
20
46.3303
0
VERTEX
8
CUT
10
21.6667
20
46.0785
0
VERTEX
8
CUT
10
22.8333
20
45.6625
0
VERTEX
8
CUT
10
24
20
45.1153
0
SEQEND
0
POLYLINE
8
CUT
66
1
70
0
0
VERTEX
8
CUT
10
27
20
43.4256
0
VERTEX
8
CUT
10
28.1667
20
42.8
0
VERTEX
8
CUT
10
29.3333
20
42.2691
0
VERTEX
8
CUT
10
30.5
20
41.8749
0
VERTEX
8
CUT
10
31.6667
20
41.6485
0
VERTEX
8
CUT
10
32.8333
20
41.6078
0
VERTEX
8
CUT
10
34
20
41.756
0
VERTEX
8
CUT
10
35.1667
20
42.0813
0
VERTEX
8
CUT
10
36.3333
20
42.5582
0
VERTEX
8
CUT
10
37.5
20
43.1489
0
VERTEX
8
CUT
10
38.6667
20
43.8069
0
VERTEX
8
CUT
10
39.8333
20
44.4801
0
VERTEX
8
CUT
10
41
20
45.1153
0
SEQEND
0
POLYLINE
8
CUT
66
1
70
0
0
VERTEX
8
CUT
10
44
20
46.244
0
VERTEX
8
CUT
10
45.1667
20
46.3922
0
VERTEX
8
CUT
10
46.3333
20
46.3515
0
VERTEX
8
CUT
10
47.5
20
46.1251
0
VERTEX
8
CUT
10
48.6667
20
45.7309
0
VERTEX
8
CUT
10
49.8333
20
45.2
0
VERTEX
8
CUT
10
51
20
44.5744
0
VERTEX
8
CUT
10
52.1667
20
43.9034
0
VERTEX
8
CUT
10
53.3333
20
43.24
0
VERTEX
8
CUT
10
54.5
20
42.6366
0
VERTEX
8
CUT
10
55.6667
20
42.1409
0
VERTEX
8
CUT
10
56.8333
20
41.792
0
VERTEX
8
CUT
10
58
20
41.6175
0
SEQEND
0
POLYLINE
8
CUT
66
1
70
0
0
VERTEX
8
CUT
10
61
20
42.0248
0
VERTEX
8
CUT
10
62.1667
20
42.4821
0
VERTEX
8
CUT
10
63.3333
20
43.0593
0
VERTEX
8
CUT
10
64.5
20
43.7107
0
VERTEX
8
CUT
10
65.6667
20
44.385
0
VERTEX
8
CUT
10
66.8333
20
45.0289
0
VERTEX
8
CUT
10
68
20
45.5915
0
VERTEX
8
CUT
10
69.1667
20
46.0285
0
VERTEX
8
CUT
10
70.3333
20
46.3052
0
VERTEX
8
CUT
10
71.5
20
46.4
0
VERTEX
8
CUT
10
72.6667
20
46.3052
0
VERTEX
8
CUT
10
73.8333
20
46.0285
0
VERTEX
8
CUT
10
75
20
45.5915
0
SEQEND
0
POLYLINE
8
CUT
66
1
70
0
0
VERTEX
8
CUT
10
78
20
44
0
VERTEX
8
CUT
10
79.1667
20
43.3323
0
VERTEX
8
CUT
10
80.3333
20
42.7173
0
VERTEX
8
CUT
10
81.5
20
42.2036
0
VERTEX
8
CUT
10
82.6667
20
41.8317
0
VERTEX
8
CUT
10
83.8333
20
41.6311
0
VERTEX
8
CUT
10
85
20
41.6175
0
VERTEX
8
CUT
10
86.1667
20
41.792
0
VERTEX
8
CUT
10
87.3333
20
42.1409
0
VERTEX
8
CUT
10
88.5
20
42.6366
0
VERTEX
8
CUT
10
89.6667
20
43.24
0
VERTEX
8
CUT
10
90.8333
20
43.9034
0
VERTEX
8
CUT
10
92
20
44.5744
0
SEQEND
0
POLYLINE
8
CUT
66
1
70
0
0
VERTEX
8
CUT
10
95
20
45.9752
0
VERTEX
8
CUT
10
96.1667
20
46.2765
0
VERTEX
8
CUT
10
97.3333
20
46.3981
0
VERTEX
8
CUT
10
98.5
20
46.3303
0
VERTEX
8
CUT
10
99.6667
20
46.0785
0
VERTEX
8
CUT
10
100.8333
20
45.6625
0
VERTEX
8
CUT
10
102
20
45.1153
0
VERTEX
8
CUT
10
103.1667
20
44.4801
0
VERTEX
8
CUT
10
104.3333
20
43.8069
0
VERTEX
8
CUT
10
105.5
20
43.1489
0
VERTEX
8
CUT
10
106.6667
20
42.5582
0
VERTEX
8
CUT
10
107.8333
20
42.0813
0
VERTEX
8
CUT
10
109
20
41.756
0
SEQEND
0
POLYLINE
8
CUT
66
1
70
0
0
VERTEX
8
CUT
10
112
20
41.756
0
VERTEX
8
CUT
10
113.1667
20
42.0813
0
VERTEX
8
CUT
10
114.3333
20
42.5582
0
VERTEX
8
CUT
10
115.5
20
43.1489
0
VERTEX
8
CUT
10
116.6667
20
43.8069
0
VERTEX
8
CUT
10
117.8333
20
44.4801
0
VERTEX
8
CUT
10
119
20
45.1153
0
VERTEX
8
CUT
10
120
20
45.5844
0
SEQEND
0
POLYLINE
8
CUT
66
1
70
0
0
VERTEX
8
CUT
10
1.5
20
34.1489
0
VERTEX
8
CUT
10
2.6667
20
33.5582
0
VERTEX
8
CUT
10
3.8333
20
33.0813
0
VERTEX
8
CUT
10
5
20
32.756
0
VERTEX
8
CUT
10
6.1667
20
32.6078
0
VERTEX
8
CUT
10
7.3333
20
32.6485
0
VERTEX
8
CUT
10
8.5
20
32.8749
0
VERTEX
8
CUT
10
9.6667
20
33.2691
0
VERTEX
8
CUT
10
10.8333
20
33.8
0
VERTEX
8
CUT
10
12
20
34.4256
0
VERTEX
8
CUT
10
13.1667
20
35.0966
0
VERTEX
8
CUT
10
14.3333
20
35.76
0
VERTEX
8
CUT
10
15.5
20
36.3634
0
SEQEND
0
POLYLINE
8
CUT
66
1
70
0
0
VERTEX
8
CUT
10
18.5
20
37.3303
0
VERTEX
8
CUT
10
19.6667
20
37.3981
0
VERTEX
8
CUT
10
20.8333
20
37.2765
0
VERTEX
8
CUT
10
22
20
36.9752
0
VERTEX
8
CUT
10
23.1667
20
36.5179
0
VERTEX
8
CUT
10
24.3333
20
35.9407
0
VERTEX
8
CUT
10
25.5
20
35.2893
0
VERTEX
8
CUT
10
26.6667
20
34.615
0
VERTEX
8
CUT
10
27.8333
20
33.9711
0
VERTEX
8
CUT
10
29
20
33.4085
0
VERTEX
8
CUT
10
30.1667
20
32.9715
0
VERTEX
8
CUT
10
31.3333
20
32.6948
0
VERTEX
8
CUT
10
32.5
20
32.6
0
SEQEND
0
POLYLINE
8
CUT
66
1
70
0
0
VERTEX
8
CUT
10
35.5
20
33.2036
0
VERTEX
8
CUT
10
36.6667
20
33.7173
0
VERTEX
8
CUT
10
37.8333
20
34.3323
0
VERTEX
8
CUT
10
39
20
35
0
VERTEX
8
CUT
10
40.1667
20
35.6677
0
VERTEX
8
CUT
10
41.3333
20
36.2827
0
VERTEX
8
CUT
10
42.5
20
36.7964
0
VERTEX
8
CUT
10
43.6667
20
37.1683
0
VERTEX
8
CUT
10
44.8333
20
37.3689
0
VERTEX
8
CUT
10
46
20
37.3825
0
VERTEX
8
CUT
10
47.1667
20
37.208
0
VERTEX
8
CUT
10
48.3333
20
36.8591
0
VERTEX
8
CUT
10
49.5
20
36.3634
0
SEQEND
0
POLYLINE
8
CUT
66
1
70
0
0
VERTEX
8
CUT
10
52.5
20
34.7107
0
VERTEX
8
CUT
10
53.6667
20
34.0593
0
VERTEX
8
CUT
10
54.8333
20
33.4821
0
VERTEX
8
CUT
10
56
20
33.0248
0
VERTEX
8
CUT
10
57.1667
20
32.7235
0
VERTEX
8
CUT
10
58.3333
20
32.6019
0
VERTEX
8
CUT
10
59.5
20
32.6697
0
VERTEX
8
CUT
10
60.6667
20
32.9215
0
VERTEX
8
CUT
10
61.8333
20
33.3375
0
VERTEX
8
CUT
10
63
20
33.8847
0
VERTEX
8
CUT
10
64.1667
20
34.5199
0
VERTEX
8
CUT
10
65.3333
20
35.1931
0
VERTEX
8
CUT
10
66.5
20
35.8511
0
SEQEND
0
POLYLINE
8
CUT
66
1
70
0
0
VERTEX
8
CUT
10
69.5
20
37.1251
0
VERTEX
8
CUT
10
70.6667
20
37.3515
0
VERTEX
8
CUT
10
71.8333
20
37.3922
0
VERTEX
8
CUT
10
73
20
37.244
0
VERTEX
8
CUT
10
74.1667
20
36.9187
0
VERTEX
8
CUT
10
75.3333
20
36.4418
0
VERTEX
8
CUT
10
76.5
20
35.8511
0
VERTEX
8
CUT
10
77.6667
20
35.1931
0
VERTEX
8
CUT
10
78.8333
20
34.5199
0
VERTEX
8
CUT
10
80
20
33.8847
0
VERTEX
8
CUT
10
81.1667
20
33.3375
0
VERTEX
8
CUT
10
82.3333
20
32.9215
0
VERTEX
8
CUT
10
83.5
20
32.6697
0
SEQEND
0
POLYLINE
8
CUT
66
1
70
0
0
VERTEX
8
CUT
10
86.5
20
32.8749
0
VERTEX
8
CUT
10
87.6667
20
33.2691
0
VERTEX
8
CUT
10
88.8333
20
33.8
0
VERTEX
8
CUT
10
90
20
34.4256
0
VERTEX
8
CUT
10
91.1667
20
35.0966
0
VERTEX
8
CUT
10
92.3333
20
35.76
0
VERTEX
8
CUT
10
93.5
20
36.3634
0
VERTEX
8
CUT
10
94.6667
20
36.8591
0
VERTEX
8
CUT
10
95.8333
20
37.208
0
VERTEX
8
CUT
10
97
20
37.3825
0
VERTEX
8
CUT
10
98.1667
20
37.3689
0
VERTEX
8
CUT
10
99.3333
20
37.1683
0
VERTEX
8
CUT
10
100.5
20
36.7964
0
SEQEND
0
POLYLINE
8
CUT
66
1
70
0
0
VERTEX
8
CUT
10
103.5
20
35.2893
0
VERTEX
8
CUT
10
104.6667
20
34.615
0
VERTEX
8
CUT
10
105.8333
20
33.9711
0
VERTEX
8
CUT
10
107
20
33.4085
0
VERTEX
8
CUT
10
108.1667
20
32.9715
0
VERTEX
8
CUT
10
109.3333
20
32.6948
0
VERTEX
8
CUT
10
110.5
20
32.6
0
VERTEX
8
CUT
10
111.6667
20
32.6948
0
VERTEX
8
CUT
10
112.8333
20
32.9715
0
VERTEX
8
CUT
10
114
20
33.4085
0
VERTEX
8
CUT
10
115.1667
20
33.9711
0
VERTEX
8
CUT
10
116.3333
20
34.615
0
VERTEX
8
CUT
10
117.5
20
35.2893
0
SEQEND
0
POLYLINE
8
CUT
66
1
70
0
0
VERTEX
8
CUT
10
0
20
26
0
VERTEX
8
CUT
10
0
20
26
0
VERTEX
8
CUT
10
1.1667
20
25.3323
0
VERTEX
8
CUT
10
2.3333
20
24.7173
0
VERTEX
8
CUT
10
3.5
20
24.2036
0
VERTEX
8
CUT
10
4.6667
20
23.8317
0
VERTEX
8
CUT
10
5.8333
20
23.6311
0
VERTEX
8
CUT
10
7
20
23.6175
0
SEQEND
0
POLYLINE
8
CUT
66
1
70
0
0
VERTEX
8
CUT
10
10
20
24.4085
0
VERTEX
8
CUT
10
11.1667
20
24.9711
0
VERTEX
8
CUT
10
12.3333
20
25.615
0
VERTEX
8
CUT
10
13.5
20
26.2893
0
VERTEX
8
CUT
10
14.6667
20
26.9407
0
VERTEX
8
CUT
10
15.8333
20
27.5179
0
VERTEX
8
CUT
10
17
20
27.9752
0
VERTEX
8
CUT
10
18.1667
20
28.2765
0
VERTEX
8
CUT
10
19.3333
20
28.3981
0
VERTEX
8
CUT
10
20.5
20
28.3303
0
VERTEX
8
CUT
10
21.6667
20
28.0785
0
VERTEX
8
CUT
10
22.8333
20
27.6625
0
VERTEX
8
CUT
10
24
20
27.1153
0
SEQEND
0
POLYLINE
8
CUT
66
1
70
0
0
VERTEX
8
CUT
10
27
20
25.4256
0
VERTEX
8
CUT
10
28.1667
20
24.8
0
VERTEX
8
CUT
10
29.3333
20
24.2691
0
VERTEX
8
CUT
10
30.5
20
23.8749
0
VERTEX
8
CUT
10
31.6667
20
23.6485
0
VERTEX
8
CUT
10
32.8333
20
23.6078
0
VERTEX
8
CUT
10
34
20
23.756
0
VERTEX
8
CUT
10
35.1667
20
24.0813
0
VERTEX
8
CUT
10
36.3333
20
24.5582
0
VERTEX
8
CUT
10
37.5
20
25.1489
0
VERTEX
8
CUT
10
38.6667
20
25.8069
0
VERTEX
8
CUT
10
39.8333
20
26.4801
0
VERTEX
8
CUT
10
41
20
27.1153
0
SEQEND
0
POLYLINE
8
CUT
66
1
70
0
0
VERTEX
8
CUT
10
44
20
28.244
0
VERTEX
8
CUT
10
45.1667
20
28.3922
0
VERTEX
8
CUT
10
46.3333
20
28.3515
0
VERTEX
8
CUT
10
47.5
20
28.1251
0
VERTEX
8
CUT
10
48.6667
20
27.7309
0
VERTEX
8
CUT
10
49.8333
20
27.2
0
VERTEX
8
CUT
10
51
20
26.5744
0
VERTEX
8
CUT
10
52.1667
20
25.9034
0
VERTEX
8
CUT
10
53.3333
20
25.24
0
VERTEX
8
CUT
10
54.5
20
24.6366
0
VERTEX
8
CUT
10
55.6667
20
24.1409
0
VERTEX
8
CUT
10
56.8333
20
23.792
0
VERTEX
8
CUT
10
58
20
23.6175
0
SEQEND
0
POLYLINE
8
CUT
66
1
70
0
0
VERTEX
8
CUT
10
61
20
24.0248
0
VERTEX
8
CUT
10
62.1667
20
24.4821
0
VERTEX
8
CUT
10
63.3333
20
25.0593
0
VERTEX
8
CUT
10
64.5
20
25.7107
0
VERTEX
8
CUT
10
65.6667
20
26.385
0
VERTEX
8
CUT
10
66.8333
20
27.0289
0
VERTEX
8
CUT
10
68
20
27.5915
0
VERTEX
8
CUT
10
69.1667
20
28.0285
0
VERTEX
8
CUT
10
70.3333
20
28.3052
0
VERTEX
8
CUT
10
71.5
20
28.4
0
VERTEX
8
CUT
10
72.6667
20
28.3052
0
VERTEX
8
CUT
10
73.8333
20
28.0285
0
VERTEX
8
CUT
10
75
20
27.5915
0
SEQEND
0
POLYLINE
8
CUT
66
1
70
0
0
VERTEX
8
CUT
10
78
20
26
0
VERTEX
8
CUT
10
79.1667
20
25.3323
0
VERTEX
8
CUT
10
80.3333
20
24.7173
0
VERTEX
8
CUT
10
81.5
20
24.2036
0
VERTEX
8
CUT
10
82.6667
20
23.8317
0
VERTEX
8
CUT
10
83.8333
20
23.6311
0
VERTEX
8
CUT
10
85
20
23.6175
0
VERTEX
8
CUT
10
86.1667
20
23.792
0
VERTEX
8
CUT
10
87.3333
20
24.1409
0
VERTEX
8
CUT
10
88.5
20
24.6366
0
VERTEX
8
CUT
10
89.6667
20
25.24
0
VERTEX
8
CUT
10
90.8333
20
25.9034
0
VERTEX
8
CUT
10
92
20
26.5744
0
SEQEND
0
POLYLINE
8
CUT
66
1
70
0
0
VERTEX
8
CUT
10
95
20
27.9752
0
VERTEX
8
CUT
10
96.1667
20
28.2765
0
VERTEX
8
CUT
10
97.3333
20
28.3981
0
VERTEX
8
CUT
10
98.5
20
28.3303
0
VERTEX
8
CUT
10
99.6667
20
28.0785
0
VERTEX
8
CUT
10
100.8333
20
27.6625
0
VERTEX
8
CUT
10
102
20
27.1153
0
VERTEX
8
CUT
10
103.1667
20
26.4801
0
VERTEX
8
CUT
10
104.3333
20
25.8069
0
VERTEX
8
CUT
10
105.5
20
25.1489
0
VERTEX
8
CUT
10
106.6667
20
24.5582
0
VERTEX
8
CUT
10
107.8333
20
24.0813
0
VERTEX
8
CUT
10
109
20
23.756
0
SEQEND
0
POLYLINE
8
CUT
66
1
70
0
0
VERTEX
8
CUT
10
112
20
23.756
0
VERTEX
8
CUT
10
113.1667
20
24.0813
0
VERTEX
8
CUT
10
114.3333
20
24.5582
0
VERTEX
8
CUT
10
115.5
20
25.1489
0
VERTEX
8
CUT
10
116.6667
20
25.8069
0
VERTEX
8
CUT
10
117.8333
20
26.4801
0
VERTEX
8
CUT
10
119
20
27.1153
0
VERTEX
8
CUT
10
120
20
27.5844
0
SEQEND
0
POLYLINE
8
CUT
66
1
70
0
0
VERTEX
8
CUT
10
1.5
20
16.1489
0
VERTEX
8
CUT
10
2.6667
20
15.5582
0
VERTEX
8
CUT
10
3.8333
20
15.0813
0
VERTEX
8
CUT
10
5
20
14.756
0
VERTEX
8
CUT
10
6.1667
20
14.6078
0
VERTEX
8
CUT
10
7.3333
20
14.6485
0
VERTEX
8
CUT
10
8.5
20
14.8749
0
VERTEX
8
CUT
10
9.6667
20
15.2691
0
VERTEX
8
CUT
10
10.8333
20
15.8
0
VERTEX
8
CUT
10
12
20
16.4256
0
VERTEX
8
CUT
10
13.1667
20
17.0966
0
VERTEX
8
CUT
10
14.3333
20
17.76
0
VERTEX
8
CUT
10
15.5
20
18.3634
0
SEQEND
0
POLYLINE
8
CUT
66
1
70
0
0
VERTEX
8
CUT
10
18.5
20
19.3303
0
VERTEX
8
CUT
10
19.6667
20
19.3981
0
VERTEX
8
CUT
10
20.8333
20
19.2765
0
VERTEX
8
CUT
10
22
20
18.9752
0
VERTEX
8
CUT
10
23.1667
20
18.5179
0
VERTEX
8
CUT
10
24.3333
20
17.9407
0
VERTEX
8
CUT
10
25.5
20
17.2893
0
VERTEX
8
CUT
10
26.6667
20
16.615
0
VERTEX
8
CUT
10
27.8333
20
15.9711
0
VERTEX
8
CUT
10
29
20
15.4085
0
VERTEX
8
CUT
10
30.1667
20
14.9715
0
VERTEX
8
CUT
10
31.3333
20
14.6948
0
VERTEX
8
CUT
10
32.5
20
14.6
0
SEQEND
0
POLYLINE
8
CUT
66
1
70
0
0
VERTEX
8
CUT
10
35.5
20
15.2036
0
VERTEX
8
CUT
10
36.6667
20
15.7173
0
VERTEX
8
CUT
10
37.8333
20
16.3323
0
VERTEX
8
CUT
10
39
20
17
0
VERTEX
8
CUT
10
40.1667
20
17.6677
0
VERTEX
8
CUT
10
41.3333
20
18.2827
0
VERTEX
8
CUT
10
42.5
20
18.7964
0
VERTEX
8
CUT
10
43.6667
20
19.1683
0
VERTEX
8
CUT
10
44.8333
20
19.3689
0
VERTEX
8
CUT
10
46
20
19.3825
0
VERTEX
8
CUT
10
47.1667
20
19.208
0
VERTEX
8
CUT
10
48.3333
20
18.8591
0
VERTEX
8
CUT
10
49.5
20
18.3634
0
SEQEND
0
POLYLINE
8
CUT
66
1
70
0
0
VERTEX
8
CUT
10
52.5
20
16.7107
0
VERTEX
8
CUT
10
53.6667
20
16.0593
0
VERTEX
8
CUT
10
54.8333
20
15.4821
0
VERTEX
8
CUT
10
56
20
15.0248
0
VERTEX
8
CUT
10
57.1667
20
14.7235
0
VERTEX
8
CUT
10
58.3333
20
14.6019
0
VERTEX
8
CUT
10
59.5
20
14.6697
0
VERTEX
8
CUT
10
60.6667
20
14.9215
0
VERTEX
8
CUT
10
61.8333
20
15.3375
0
VERTEX
8
CUT
10
63
20
15.8847
0
VERTEX
8
CUT
10
64.1667
20
16.5199
0
VERTEX
8
CUT
10
65.3333
20
17.1931
0
VERTEX
8
CUT
10
66.5
20
17.8511
0
SEQEND
0
POLYLINE
8
CUT
66
1
70
0
0
VERTEX
8
CUT
10
69.5
20
19.1251
0
VERTEX
8
CUT
10
70.6667
20
19.3515
0
VERTEX
8
CUT
10
71.8333
20
19.3922
0
VERTEX
8
CUT
10
73
20
19.244
0
VERTEX
8
CUT
10
74.1667
20
18.9187
0
VERTEX
8
CUT
10
75.3333
20
18.4418
0
VERTEX
8
CUT
10
76.5
20
17.8511
0
VERTEX
8
CUT
10
77.6667
20
17.1931
0
VERTEX
8
CUT
10
78.8333
20
16.5199
0
VERTEX
8
CUT
10
80
20
15.8847
0
VERTEX
8
CUT
10
81.1667
20
15.3375
0
VERTEX
8
CUT
10
82.3333
20
14.9215
0
VERTEX
8
CUT
10
83.5
20
14.6697
0
SEQEND
0
POLYLINE
8
CUT
66
1
70
0
0
VERTEX
8
CUT
10
86.5
20
14.8749
0
VERTEX
8
CUT
10
87.6667
20
15.2691
0
VERTEX
8
CUT
10
88.8333
20
15.8
0
VERTEX
8
CUT
10
90
20
16.4256
0
VERTEX
8
CUT
10
91.1667
20
17.0966
0
VERTEX
8
CUT
10
92.3333
20
17.76
0
VERTEX
8
CUT
10
93.5
20
18.3634
0
VERTEX
8
CUT
10
94.6667
20
18.8591
0
VERTEX
8
CUT
10
95.8333
20
19.208
0
VERTEX
8
CUT
10
97
20
19.3825
0
VERTEX
8
CUT
10
98.1667
20
19.3689
0
VERTEX
8
CUT
10
99.3333
20
19.1683
0
VERTEX
8
CUT
10
100.5
20
18.7964
0
SEQEND
0
POLYLINE
8
CUT
66
1
70
0
0
VERTEX
8
CUT
10
103.5
20
17.2893
0
VERTEX
8
CUT
10
104.6667
20
16.615
0
VERTEX
8
CUT
10
105.8333
20
15.9711
0
VERTEX
8
CUT
10
107
20
15.4085
0
VERTEX
8
CUT
10
108.1667
20
14.9715
0
VERTEX
8
CUT
10
109.3333
20
14.6948
0
VERTEX
8
CUT
10
110.5
20
14.6
0
VERTEX
8
CUT
10
111.6667
20
14.6948
0
VERTEX
8
CUT
10
112.8333
20
14.9715
0
VERTEX
8
CUT
10
114
20
15.4085
0
VERTEX
8
CUT
10
115.1667
20
15.9711
0
VERTEX
8
CUT
10
116.3333
20
16.615
0
VERTEX
8
CUT
10
117.5
20
17.2893
0
SEQEND
0
POLYLINE
8
CUT
66
1
70
0
0
VERTEX
8
CUT
10
0
20
8
0
VERTEX
8
CUT
10
0
20
8
0
VERTEX
8
CUT
10
1.1667
20
7.3323
0
VERTEX
8
CUT
10
2.3333
20
6.7173
0
VERTEX
8
CUT
10
3.5
20
6.2036
0
VERTEX
8
CUT
10
4.6667
20
5.8317
0
VERTEX
8
CUT
10
5.8333
20
5.6311
0
VERTEX
8
CUT
10
7
20
5.6175
0
SEQEND
0
POLYLINE
8
CUT
66
1
70
0
0
VERTEX
8
CUT
10
10
20
6.4085
0
VERTEX
8
CUT
10
11.1667
20
6.9711
0
VERTEX
8
CUT
10
12.3333
20
7.615
0
VERTEX
8
CUT
10
13.5
20
8.2893
0
VERTEX
8
CUT
10
14.6667
20
8.9407
0
VERTEX
8
CUT
10
15.8333
20
9.5179
0
VERTEX
8
CUT
10
17
20
9.9752
0
VERTEX
8
CUT
10
18.1667
20
10.2765
0
VERTEX
8
CUT
10
19.3333
20
10.3981
0
VERTEX
8
CUT
10
20.5
20
10.3303
0
VERTEX
8
CUT
10
21.6667
20
10.0785
0
VERTEX
8
CUT
10
22.8333
20
9.6625
0
VERTEX
8
CUT
10
24
20
9.1153
0
SEQEND
0
POLYLINE
8
CUT
66
1
70
0
0
VERTEX
8
CUT
10
27
20
7.4256
0
VERTEX
8
CUT
10
28.1667
20
6.8
0
VERTEX
8
CUT
10
29.3333
20
6.2691
0
VERTEX
8
CUT
10
30.5
20
5.8749
0
VERTEX
8
CUT
10
31.6667
20
5.6485
0
VERTEX
8
CUT
10
32.8333
20
5.6078
0
VERTEX
8
CUT
10
34
20
5.756
0
VERTEX
8
CUT
10
35.1667
20
6.0813
0
VERTEX
8
CUT
10
36.3333
20
6.5582
0
VERTEX
8
CUT
10
37.5
20
7.1489
0
VERTEX
8
CUT
10
38.6667
20
7.8069
0
VERTEX
8
CUT
10
39.8333
20
8.4801
0
VERTEX
8
CUT
10
41
20
9.1153
0
SEQEND
0
POLYLINE
8
CUT
66
1
70
0
0
VERTEX
8
CUT
10
44
20
10.244
0
VERTEX
8
CUT
10
45.1667
20
10.3922
0
VERTEX
8
CUT
10
46.3333
20
10.3515
0
VERTEX
8
CUT
10
47.5
20
10.1251
0
VERTEX
8
CUT
10
48.6667
20
9.7309
0
VERTEX
8
CUT
10
49.8333
20
9.2
0
VERTEX
8
CUT
10
51
20
8.5744
0
VERTEX
8
CUT
10
52.1667
20
7.9034
0
VERTEX
8
CUT
10
53.3333
20
7.24
0
VERTEX
8
CUT
10
54.5
20
6.6366
0
VERTEX
8
CUT
10
55.6667
20
6.1409
0
VERTEX
8
CUT
10
56.8333
20
5.792
0
VERTEX
8
CUT
10
58
20
5.6175
0
SEQEND
0
POLYLINE
8
CUT
66
1
70
0
0
VERTEX
8
CUT
10
61
20
6.0248
0
VERTEX
8
CUT
10
62.1667
20
6.4821
0
VERTEX
8
CUT
10
63.3333
20
7.0593
0
VERTEX
8
CUT
10
64.5
20
7.7107
0
VERTEX
8
CUT
10
65.6667
20
8.385
0
VERTEX
8
CUT
10
66.8333
20
9.0289
0
VERTEX
8
CUT
10
68
20
9.5915
0
VERTEX
8
CUT
10
69.1667
20
10.0285
0
VERTEX
8
CUT
10
70.3333
20
10.3052
0
VERTEX
8
CUT
10
71.5
20
10.4
0
VERTEX
8
CUT
10
72.6667
20
10.3052
0
VERTEX
8
CUT
10
73.8333
20
10.0285
0
VERTEX
8
CUT
10
75
20
9.5915
0
SEQEND
0
POLYLINE
8
CUT
66
1
70
0
0
VERTEX
8
CUT
10
78
20
8
0
VERTEX
8
CUT
10
79.1667
20
7.3323
0
VERTEX
8
CUT
10
80.3333
20
6.7173
0
VERTEX
8
CUT
10
81.5
20
6.2036
0
VERTEX
8
CUT
10
82.6667
20
5.8317
0
VERTEX
8
CUT
10
83.8333
20
5.6311
0
VERTEX
8
CUT
10
85
20
5.6175
0
VERTEX
8
CUT
10
86.1667
20
5.792
0
VERTEX
8
CUT
10
87.3333
20
6.1409
0
VERTEX
8
CUT
10
88.5
20
6.6366
0
VERTEX
8
CUT
10
89.6667
20
7.24
0
VERTEX
8
CUT
10
90.8333
20
7.9034
0
VERTEX
8
CUT
10
92
20
8.5744
0
SEQEND
0
POLYLINE
8
CUT
66
1
70
0
0
VERTEX
8
CUT
10
95
20
9.9752
0
VERTEX
8
CUT
10
96.1667
20
10.2765
0
VERTEX
8
CUT
10
97.3333
20
10.3981
0
VERTEX
8
CUT
10
98.5
20
10.3303
0
VERTEX
8
CUT
10
99.6667
20
10.0785
0
VERTEX
8
CUT
10
100.8333
20
9.6625
0
VERTEX
8
CUT
10
102
20
9.1153
0
VERTEX
8
CUT
10
103.1667
20
8.4801
0
VERTEX
8
CUT
10
104.3333
20
7.8069
0
VERTEX
8
CUT
10
105.5
20
7.1489
0
VERTEX
8
CUT
10
106.6667
20
6.5582
0
VERTEX
8
CUT
10
107.8333
20
6.0813
0
VERTEX
8
CUT
10
109
20
5.756
0
SEQEND
0
POLYLINE
8
CUT
66
1
70
0
0
VERTEX
8
CUT
10
112
20
5.756
0
VERTEX
8
CUT
10
113.1667
20
6.0813
0
VERTEX
8
CUT
10
114.3333
20
6.5582
0
VERTEX
8
CUT
10
115.5
20
7.1489
0
VERTEX
8
CUT
10
116.6667
20
7.8069
0
VERTEX
8
CUT
10
117.8333
20
8.4801
0
VERTEX
8
CUT
10
119
20
9.1153
0
VERTEX
8
CUT
10
120
20
9.5844
0
SEQEND
0
POLYLINE
8
CUT
66
1
70
0
0
VERTEX
8
CUT
10
0
20
70
0
VERTEX
8
CUT
10
120
20
70
0
VERTEX
8
CUT
10
120
20
0
0
VERTEX
8
CUT
10
0
20
0
0
VERTEX
8
CUT
10
0
20
70
0
SEQEND
0
ENDSEC
0
EOF
