0
SECTION
2
HEADER
9
$ACADVER
1
AC1009
9
$INSUNITS
70
4
0
ENDSEC
0
SECTION
2
TABLES
0
TABLE
2
LAYER
70
1
0
LAYER
2
CUT
70
0
62
1
6
CONTINUOUS
0
ENDTAB
0
ENDSEC
0
SECTION
2
ENTITIES
0
POLYLINE
8
CUT
66
1
70
0
0
VERTEX
8
CUT
10
8
20
70
0
VERTEX
8
CUT
10
8
20
70
0
VERTEX
8
CUT
10
7.9592
20
69
0
VERTEX
8
CUT
10
7.8367
20
68
0
VERTEX
8
CUT
10
7.6327
20
67
0
VERTEX
8
CUT
10
7.3469
20
66
0
VERTEX
8
CUT
10
6.9796
20
65
0
VERTEX
8
CUT
10
6.5306
20
64
0
VERTEX
8
CUT
10
6
20
63
0
SEQEND
0
POLYLINE
8
CUT
66
1
70
0
0
VERTEX
8
CUT
10
6
20
60
0
VERTEX
8
CUT
10
6.5306
20
59
0
VERTEX
8
CUT
10
6.9796
20
58
0
VERTEX
8
CUT
10
7.3469
20
57
0
VERTEX
8
CUT
10
7.6327
20
56
0
VERTEX
8
CUT
10
7.8367
20
55
0
VERTEX
8
CUT
10
7.9592
20
54
0
VERTEX
8
CUT
10
8
20
53
0
VERTEX
8
CUT
10
7.9592
20
52
0
VERTEX
8
CUT
10
7.8367
20
51
0
VERTEX
8
CUT
10
7.6327
20
50
0
VERTEX
8
CUT
10
7.3469
20
49
0
VERTEX
8
CUT
10
6.9796
20
48
0
VERTEX
8
CUT
10
6.5306
20
47
0
VERTEX
8
CUT
10
6
20
46
0
SEQEND
0
POLYLINE
8
CUT
66
1
70
0
0
VERTEX
8
CUT
10
6
20
43
0
VERTEX
8
CUT
10
6.5306
20
42
0
VERTEX
8
CUT
10
6.9796
20
41
0
VERTEX
8
CUT
10
7.3469
20
40
0
VERTEX
8
CUT
10
7.6327
20
39
0
VERTEX
8
CUT
10
7.8367
20
38
0
VERTEX
8
CUT
10
7.9592
20
37
0
VERTEX
8
CUT
10
8
20
36
0
VERTEX
8
CUT
10
7.9592
20
35
0
VERTEX
8
CUT
10
7.8367
20
34
0
VERTEX
8
CUT
10
7.6327
20
33
0
VERTEX
8
CUT
10
7.3469
20
32
0
VERTEX
8
CUT
10
6.9796
20
31
0
VERTEX
8
CUT
10
6.5306
20
30
0
VERTEX
8
CUT
10
6
20
29
0
SEQEND
0
POLYLINE
8
CUT
66
1
70
0
0
VERTEX
8
CUT
10
6
20
26
0
VERTEX
8
CUT
10
6.5306
20
25
0
VERTEX
8
CUT
10
6.9796
20
24
0
VERTEX
8
CUT
10
7.3469
20
23
0
VERTEX
8
CUT
10
7.6327
20
22
0
VERTEX
8
CUT
10
7.8367
20
21
0
VERTEX
8
CUT
10
7.9592
20
20
0
VERTEX
8
CUT
10
8
20
19
0
VERTEX
8
CUT
10
7.9592
20
18
0
VERTEX
8
CUT
10
7.8367
20
17
0
VERTEX
8
CUT
10
7.6327
20
16
0
VERTEX
8
CUT
10
7.3469
20
15
0
VERTEX
8
CUT
10
6.9796
20
14
0
VERTEX
8
CUT
10
6.5306
20
13
0
VERTEX
8
CUT
10
6
20
12
0
SEQEND
0
POLYLINE
8
CUT
66
1
70
0
0
VERTEX
8
CUT
10
6
20
9
0
VERTEX
8
CUT
10
6.5306
20
8
0
VERTEX
8
CUT
10
6.9796
20
7
0
VERTEX
8
CUT
10
7.3469
20
6
0
VERTEX
8
CUT
10
7.6327
20
5
0
VERTEX
8
CUT
10
7.8367
20
4
0
VERTEX
8
CUT
10
7.9592
20
3
0
VERTEX
8
CUT
10
8
20
2
0
VERTEX
8
CUT
10
7.9592
20
1
0
VERTEX
8
CUT
10
7.8367
20
0
0
VERTEX
8
CUT
10
7.8367
20
0
0
SEQEND
0
POLYLINE
8
CUT
66
1
70
0
0
VERTEX
8
CUT
10
15
20
68.5
0
VERTEX
8
CUT
10
14.4694
20
67.5
0
VERTEX
8
CUT
10
14.0204
20
66.5
0
VERTEX
8
CUT
10
13.6531
20
65.5
0
VERTEX
8
CUT
10
13.3673
20
64.5
0
VERTEX
8
CUT
10
13.1633
20
63.5
0
VERTEX
8
CUT
10
13.0408
20
62.5
0
VERTEX
8
CUT
10
13
20
61.5
0
VERTEX
8
CUT
10
13.0408
20
60.5
0
VERTEX
8
CUT
10
13.1633
20
59.5
0
VERTEX
8
CUT
10
13.3673
20
58.5
0
VERTEX
8
CUT
10
13.6531
20
57.5
0
VERTEX
8
CUT
10
14.0204
20
56.5
0
VERTEX
8
CUT
10
14.4694
20
55.5
0
VERTEX
8
CUT
10
15
20
54.5
0
SEQEND
0
POLYLINE
8
CUT
66
1
70
0
0
VERTEX
8
CUT
10
15
20
51.5
0
VERTEX
8
CUT
10
14.4694
20
50.5
0
VERTEX
8
CUT
10
14.0204
20
49.5
0
VERTEX
8
CUT
10
13.6531
20
48.5
0
VERTEX
8
CUT
10
13.3673
20
47.5
0
VERTEX
8
CUT
10
13.1633
20
46.5
0
VERTEX
8
CUT
10
13.0408
20
45.5
0
VERTEX
8
CUT
10
13
20
44.5
0
VERTEX
8
CUT
10
13.0408
20
43.5
0
VERTEX
8
CUT
10
13.1633
20
42.5
0
VERTEX
8
CUT
10
13.3673
20
41.5
0
VERTEX
8
CUT
10
13.6531
20
40.5
0
VERTEX
8
CUT
10
14.0204
20
39.5
0
VERTEX
8
CUT
10
14.4694
20
38.5
0
VERTEX
8
CUT
10
15
20
37.5
0
SEQEND
0
POLYLINE
8
CUT
66
1
70
0
0
VERTEX
8
CUT
10
15
20
34.5
0
VERTEX
8
CUT
10
14.4694
20
33.5
0
VERTEX
8
CUT
10
14.0204
20
32.5
0
VERTEX
8
CUT
10
13.6531
20
31.5
0
VERTEX
8
CUT
10
13.3673
20
30.5
0
VERTEX
8
CUT
10
13.1633
20
29.5
0
VERTEX
8
CUT
10
13.0408
20
28.5
0
VERTEX
8
CUT
10
13
20
27.5
0
VERTEX
8
CUT
10
13.0408
20
26.5
0
VERTEX
8
CUT
10
13.1633
20
25.5
0
VERTEX
8
CUT
10
13.3673
20
24.5
0
VERTEX
8
CUT
10
13.6531
20
23.5
0
VERTEX
8
CUT
10
14.0204
20
22.5
0
VERTEX
8
CUT
10
14.4694
20
21.5
0
VERTEX
8
CUT
10
15
20
20.5
0
SEQEND
0
POLYLINE
8
CUT
66
1
70
0
0
VERTEX
8
CUT
10
15
20
17.5
0
VERTEX
8
CUT
10
14.4694
20
16.5
0
VERTEX
8
CUT
10
14.0204
20
15.5
0
VERTEX
8
CUT
10
13.6531
20
14.5
0
VERTEX
8
CUT
10
13.3673
20
13.5
0
VERTEX
8
CUT
10
13.1633
20
12.5
0
VERTEX
8
CUT
10
13.0408
20
11.5
0
VERTEX
8
CUT
10
13
20
10.5
0
VERTEX
8
CUT
10
13.0408
20
9.5
0
VERTEX
8
CUT
10
13.1633
20
8.5
0
VERTEX
8
CUT
10
13.3673
20
7.5
0
VERTEX
8
CUT
10
13.6531
20
6.5
0
VERTEX
8
CUT
10
14.0204
20
5.5
0
VERTEX
8
CUT
10
14.4694
20
4.5
0
VERTEX
8
CUT
10
15
20
3.5
0
SEQEND
0
LINE
8
CUT
10
15
20
0.5
11
14.7347
21
0
0
POLYLINE
8
CUT
66
1
70
0
0
VERTEX
8
CUT
10
26
20
70
0
VERTEX
8
CUT
10
26
20
70
0
VERTEX
8
CUT
10
25.9592
20
69
0
VERTEX
8
CUT
10
25.8367
20
68
0
VERTEX
8
CUT
10
25.6327
20
67
0
VERTEX
8
CUT
10
25.3469
20
66
0
VERTEX
8
CUT
10
24.9796
20
65
0
VERTEX
8
CUT
10
24.5306
20
64
0
VERTEX
8
CUT
10
24
20
63
0
SEQEND
0
POLYLINE
8
CUT
66
1
70
0
0
VERTEX
8
CUT
10
24
20
60
0
VERTEX
8
CUT
10
24.5306
20
59
0
VERTEX
8
CUT
10
24.9796
20
58
0
VERTEX
8
CUT
10
25.3469
20
57
0
VERTEX
8
CUT
10
25.6327
20
56
0
VERTEX
8
CUT
10
25.8367
20
55
0
VERTEX
8
CUT
10
25.9592
20
54
0
VERTEX
8
CUT
10
26
20
53
0
VERTEX
8
CUT
10
25.9592
20
52
0
VERTEX
8
CUT
10
25.8367
20
51
0
VERTEX
8
CUT
10
25.6327
20
50
0
VERTEX
8
CUT
10
25.3469
20
49
0
VERTEX
8
CUT
10
24.9796
20
48
0
VERTEX
8
CUT
10
24.5306
20
47
0
VERTEX
8
CUT
10
24
20
46
0
SEQEND
0
POLYLINE
8
CUT
66
1
70
0
0
VERTEX
8
CUT
10
24
20
43
0
VERTEX
8
CUT
10
24.5306
20
42
0
VERTEX
8
CUT
10
24.9796
20
41
0
VERTEX
8
CUT
10
25.3469
20
40
0
VERTEX
8
CUT
10
25.6327
20
39
0
VERTEX
8
CUT
10
25.8367
20
38
0
VERTEX
8
CUT
10
25.9592
20
37
0
VERTEX
8
CUT
10
26
20
36
0
VERTEX
8
CUT
10
25.9592
20
35
0
VERTEX
8
CUT
10
25.8367
20
34
0
VERTEX
8
CUT
10
25.6327
20
33
0
VERTEX
8
CUT
10
25.3469
20
32
0
VERTEX
8
CUT
10
24.9796
20
31
0
VERTEX
8
CUT
10
24.5306
20
30
0
VERTEX
8
CUT
10
24
20
29
0
SEQEND
0
POLYLINE
8
CUT
66
1
70
0
0
VERTEX
8
CUT
10
24
20
26
0
VERTEX
8
CUT
10
24.5306
20
25
0
VERTEX
8
CUT
10
24.9796
20
24
0
VERTEX
8
CUT
10
25.3469
20
23
0
VERTEX
8
CUT
10
25.6327
20
22
0
VERTEX
8
CUT
10
25.8367
20
21
0
VERTEX
8
CUT
10
25.9592
20
20
0
VERTEX
8
CUT
10
26
20
19
0
VERTEX
8
CUT
10
25.9592
20
18
0
VERTEX
8
CUT
10
25.8367
20
17
0
VERTEX
8
CUT
10
25.6327
20
16
0
VERTEX
8
CUT
10
25.3469
20
15
0
VERTEX
8
CUT
10
24.9796
20
14
0
VERTEX
8
CUT
10
24.5306
20
13
0
VERTEX
8
CUT
10
24
20
12
0
SEQEND
0
POLYLINE
8
CUT
66
1
70
0
0
VERTEX
8
CUT
10
24
20
9
0
VERTEX
8
CUT
10
24.5306
20
8
0
VERTEX
8
CUT
10
24.9796
20
7
0
VERTEX
8
CUT
10
25.3469
20
6
0
VERTEX
8
CUT
10
25.6327
20
5
0
VERTEX
8
CUT
10
25.8367
20
4
0
VERTEX
8
CUT
10
25.9592
20
3
0
VERTEX
8
CUT
10
26
20
2
0
VERTEX
8
CUT
10
25.9592
20
1
0
VERTEX
8
CUT
10
25.8367
20
0
0
VERTEX
8
CUT
10
25.8367
20
0
0
SEQEND
0
POLYLINE
8
CUT
66
1
70
0
0
VERTEX
8
CUT
10
33
20
68.5
0
VERTEX
8
CUT
10
32.4694
20
67.5
0
VERTEX
8
CUT
10
32.0204
20
66.5
0
VERTEX
8
CUT
10
31.6531
20
65.5
0
VERTEX
8
CUT
10
31.3673
20
64.5
0
VERTEX
8
CUT
10
31.1633
20
63.5
0
VERTEX
8
CUT
10
31.0408
20
62.5
0
VERTEX
8
CUT
10
31
20
61.5
0
VERTEX
8
CUT
10
31.0408
20
60.5
0
VERTEX
8
CUT
10
31.1633
20
59.5
0
VERTEX
8
CUT
10
31.3673
20
58.5
0
VERTEX
8
CUT
10
31.6531
20
57.5
0
VERTEX
8
CUT
10
32.0204
20
56.5
0
VERTEX
8
CUT
10
32.4694
20
55.5
0
VERTEX
8
CUT
10
33
20
54.5
0
SEQEND
0
POLYLINE
8
CUT
66
1
70
0
0
VERTEX
8
CUT
10
33
20
51.5
0
VERTEX
8
CUT
10
32.4694
20
50.5
0
VERTEX
8
CUT
10
32.0204
20
49.5
0
VERTEX
8
CUT
10
31.6531
20
48.5
0
VERTEX
8
CUT
10
31.3673
20
47.5
0
VERTEX
8
CUT
10
31.1633
20
46.5
0
VERTEX
8
CUT
10
31.0408
20
45.5
0
VERTEX
8
CUT
10
31
20
44.5
0
VERTEX
8
CUT
10
31.0408
20
43.5
0
VERTEX
8
CUT
10
31.1633
20
42.5
0
VERTEX
8
CUT
10
31.3673
20
41.5
0
VERTEX
8
CUT
10
31.6531
20
40.5
0
VERTEX
8
CUT
10
32.0204
20
39.5
0
VERTEX
8
CUT
10
32.4694
20
38.5
0
VERTEX
8
CUT
10
33
20
37.5
0
SEQEND
0
POLYLINE
8
CUT
66
1
70
0
0
VERTEX
8
CUT
10
33
20
34.5
0
VERTEX
8
CUT
10
32.4694
20
33.5
0
VERTEX
8
CUT
10
32.0204
20
32.5
0
VERTEX
8
CUT
10
31.6531
20
31.5
0
VERTEX
8
CUT
10
31.3673
20
30.5
0
VERTEX
8
CUT
10
31.1633
20
29.5
0
VERTEX
8
CUT
10
31.0408
20
28.5
0
VERTEX
8
CUT
10
31
20
27.5
0
VERTEX
8
CUT
10
31.0408
20
26.5
0
VERTEX
8
CUT
10
31.1633
20
25.5
0
VERTEX
8
CUT
10
31.3673
20
24.5
0
VERTEX
8
CUT
10
31.6531
20
23.5
0
VERTEX
8
CUT
10
32.0204
20
22.5
0
VERTEX
8
CUT
10
32.4694
20
21.5
0
VERTEX
8
CUT
10
33
20
20.5
0
SEQEND
0
POLYLINE
8
CUT
66
1
70
0
0
VERTEX
8
CUT
10
33
20
17.5
0
VERTEX
8
CUT
10
32.4694
20
16.5
0
VERTEX
8
CUT
10
32.0204
20
15.5
0
VERTEX
8
CUT
10
31.6531
20
14.5
0
VERTEX
8
CUT
10
31.3673
20
13.5
0
VERTEX
8
CUT
10
31.1633
20
12.5
0
VERTEX
8
CUT
10
31.0408
20
11.5
0
VERTEX
8
CUT
10
31
20
10.5
0
VERTEX
8
CUT
10
31.0408
20
9.5
0
VERTEX
8
CUT
10
31.1633
20
8.5
0
VERTEX
8
CUT
10
31.3673
20
7.5
0
VERTEX
8
CUT
10
31.6531
20
6.5
0
VERTEX
8
CUT
10
32.0204
20
5.5
0
VERTEX
8
CUT
10
32.4694
20
4.5
0
VERTEX
8
CUT
10
33
20
3.5
0
SEQEND
0
LINE
8
CUT
10
33
20
0.5
11
32.7347
21
0
0
POLYLINE
8
CUT
66
1
70
0
0
VERTEX
8
CUT
10
44
20
70
0
VERTEX
8
CUT
10
44
20
70
0
VERTEX
8
CUT
10
43.9592
20
69
0
VERTEX
8
CUT
10
43.8367
20
68
0
VERTEX
8
CUT
10
43.6327
20
67
0
VERTEX
8
CUT
10
43.3469
20
66
0
VERTEX
8
CUT
10
42.9796
20
65
0
VERTEX
8
CUT
10
42.5306
20
64
0
VERTEX
8
CUT
10
42
20
63
0
SEQEND
0
POLYLINE
8
CUT
66
1
70
0
0
VERTEX
8
CUT
10
42
20
60
0
VERTEX
8
CUT
10
42.5306
20
59
0
VERTEX
8
CUT
10
42.9796
20
58
0
VERTEX
8
CUT
10
43.3469
20
57
0
VERTEX
8
CUT
10
43.6327
20
56
0
VERTEX
8
CUT
10
43.8367
20
55
0
VERTEX
8
CUT
10
43.9592
20
54
0
VERTEX
8
CUT
10
44
20
53
0
VERTEX
8
CUT
10
43.9592
20
52
0
VERTEX
8
CUT
10
43.8367
20
51
0
VERTEX
8
CUT
10
43.6327
20
50
0
VERTEX
8
CUT
10
43.3469
20
49
0
VERTEX
8
CUT
10
42.9796
20
48
0
VERTEX
8
CUT
10
42.5306
20
47
0
VERTEX
8
CUT
10
42
20
46
0
SEQEND
0
POLYLINE
8
CUT
66
1
70
0
0
VERTEX
8
CUT
10
42
20
43
0
VERTEX
8
CUT
10
42.5306
20
42
0
VERTEX
8
CUT
10
42.9796
20
41
0
VERTEX
8
CUT
10
43.3469
20
40
0
VERTEX
8
CUT
10
43.6327
20
39
0
VERTEX
8
CUT
10
43.8367
20
38
0
VERTEX
8
CUT
10
43.9592
20
37
0
VERTEX
8
CUT
10
44
20
36
0
VERTEX
8
CUT
10
43.9592
20
35
0
VERTEX
8
CUT
10
43.8367
20
34
0
VERTEX
8
CUT
10
43.6327
20
33
0
VERTEX
8
CUT
10
43.3469
20
32
0
VERTEX
8
CUT
10
42.9796
20
31
0
VERTEX
8
CUT
10
42.5306
20
30
0
VERTEX
8
CUT
10
42
20
29
0
SEQEND
0
POLYLINE
8
CUT
66
1
70
0
0
VERTEX
8
CUT
10
42
20
26
0
VERTEX
8
CUT
10
42.5306
20
25
0
VERTEX
8
CUT
10
42.9796
20
24
0
VERTEX
8
CUT
10
43.3469
20
23
0
VERTEX
8
CUT
10
43.6327
20
22
0
VERTEX
8
CUT
10
43.8367
20
21
0
VERTEX
8
CUT
10
43.9592
20
20
0
VERTEX
8
CUT
10
44
20
19
0
VERTEX
8
CUT
10
43.9592
20
18
0
VERTEX
8
CUT
10
43.8367
20
17
0
VERTEX
8
CUT
10
43.6327
20
16
0
VERTEX
8
CUT
10
43.3469
20
15
0
VERTEX
8
CUT
10
42.9796
20
14
0
VERTEX
8
CUT
10
42.5306
20
13
0
VERTEX
8
CUT
10
42
20
12
0
SEQEND
0
POLYLINE
8
CUT
66
1
70
0
0
VERTEX
8
CUT
10
42
20
9
0
VERTEX
8
CUT
10
42.5306
20
8
0
VERTEX
8
CUT
10
42.9796
20
7
0
VERTEX
8
CUT
10
43.3469
20
6
0
VERTEX
8
CUT
10
43.6327
20
5
0
VERTEX
8
CUT
10
43.8367
20
4
0
VERTEX
8
CUT
10
43.9592
20
3
0
VERTEX
8
CUT
10
44
20
2
0
VERTEX
8
CUT
10
43.9592
20
1
0
VERTEX
8
CUT
10
43.8367
20
0
0
VERTEX
8
CUT
10
43.8367
20
0
0
SEQEND
0
POLYLINE
8
CUT
66
1
70
0
0
VERTEX
8
CUT
10
51
20
68.5
0
VERTEX
8
CUT
10
50.4694
20
67.5
0
VERTEX
8
CUT
10
50.0204
20
66.5
0
VERTEX
8
CUT
10
49.6531
20
65.5
0
VERTEX
8
CUT
10
49.3673
20
64.5
0
VERTEX
8
CUT
10
49.1633
20
63.5
0
VERTEX
8
CUT
10
49.0408
20
62.5
0
VERTEX
8
CUT
10
49
20
61.5
0
VERTEX
8
CUT
10
49.0408
20
60.5
0
VERTEX
8
CUT
10
49.1633
20
59.5
0
VERTEX
8
CUT
10
49.3673
20
58.5
0
VERTEX
8
CUT
10
49.6531
20
57.5
0
VERTEX
8
CUT
10
50.0204
20
56.5
0
VERTEX
8
CUT
10
50.4694
20
55.5
0
VERTEX
8
CUT
10
51
20
54.5
0
SEQEND
0
POLYLINE
8
CUT
66
1
70
0
0
VERTEX
8
CUT
10
51
20
51.5
0
VERTEX
8
CUT
10
50.4694
20
50.5
0
VERTEX
8
CUT
10
50.0204
20
49.5
0
VERTEX
8
CUT
10
49.6531
20
48.5
0
VERTEX
8
CUT
10
49.3673
20
47.5
0
VERTEX
8
CUT
10
49.1633
20
46.5
0
VERTEX
8
CUT
10
49.0408
20
45.5
0
VERTEX
8
CUT
10
49
20
44.5
0
VERTEX
8
CUT
10
49.0408
20
43.5
0
VERTEX
8
CUT
10
49.1633
20
42.5
0
VERTEX
8
CUT
10
49.3673
20
41.5
0
VERTEX
8
CUT
10
49.6531
20
40.5
0
VERTEX
8
CUT
10
50.0204
20
39.5
0
VERTEX
8
CUT
10
50.4694
20
38.5
0
VERTEX
8
CUT
10
51
20
37.5
0
SEQEND
0
POLYLINE
8
CUT
66
1
70
0
0
VERTEX
8
CUT
10
51
20
34.5
0
VERTEX
8
CUT
10
50.4694
20
33.5
0
VERTEX
8
CUT
10
50.0204
20
32.5
0
VERTEX
8
CUT
10
49.6531
20
31.5
0
VERTEX
8
CUT
10
49.3673
20
30.5
0
VERTEX
8
CUT
10
49.1633
20
29.5
0
VERTEX
8
CUT
10
49.0408
20
28.5
0
VERTEX
8
CUT
10
49
20
27.5
0
VERTEX
8
CUT
10
49.0408
20
26.5
0
VERTEX
8
CUT
10
49.1633
20
25.5
0
VERTEX
8
CUT
10
49.3673
20
24.5
0
VERTEX
8
CUT
10
49.6531
20
23.5
0
VERTEX
8
CUT
10
50.0204
20
22.5
0
VERTEX
8
CUT
10
50.4694
20
21.5
0
VERTEX
8
CUT
10
51
20
20.5
0
SEQEND
0
POLYLINE
8
CUT
66
1
70
0
0
VERTEX
8
CUT
10
51
20
17.5
0
VERTEX
8
CUT
10
50.4694
20
16.5
0
VERTEX
8
CUT
10
50.0204
20
15.5
0
VERTEX
8
CUT
10
49.6531
20
14.5
0
VERTEX
8
CUT
10
49.3673
20
13.5
0
VERTEX
8
CUT
10
49.1633
20
12.5
0
VERTEX
8
CUT
10
49.0408
20
11.5
0
VERTEX
8
CUT
10
49
20
10.5
0
VERTEX
8
CUT
10
49.0408
20
9.5
0
VERTEX
8
CUT
10
49.1633
20
8.5
0
VERTEX
8
CUT
10
49.3673
20
7.5
0
VERTEX
8
CUT
10
49.6531
20
6.5
0
VERTEX
8
CUT
10
50.0204
20
5.5
0
VERTEX
8
CUT
10
50.4694
20
4.5
0
VERTEX
8
CUT
10
51
20
3.5
0
SEQEND
0
LINE
8
CUT
10
51
20
0.5
11
50.7347
21
0
0
POLYLINE
8
CUT
66
1
70
0
0
VERTEX
8
CUT
10
62
20
70
0
VERTEX
8
CUT
10
62
20
70
0
VERTEX
8
CUT
10
61.9592
20
69
0
VERTEX
8
CUT
10
61.8367
20
68
0
VERTEX
8
CUT
10
61.6327
20
67
0
VERTEX
8
CUT
10
61.3469
20
66
0
VERTEX
8
CUT
10
60.9796
20
65
0
VERTEX
8
CUT
10
60.5306
20
64
0
VERTEX
8
CUT
10
60
20
63
0
SEQEND
0
POLYLINE
8
CUT
66
1
70
0
0
VERTEX
8
CUT
10
60
20
60
0
VERTEX
8
CUT
10
60.5306
20
59
0
VERTEX
8
CUT
10
60.9796
20
58
0
VERTEX
8
CUT
10
61.3469
20
57
0
VERTEX
8
CUT
10
61.6327
20
56
0
VERTEX
8
CUT
10
61.8367
20
55
0
VERTEX
8
CUT
10
61.9592
20
54
0
VERTEX
8
CUT
10
62
20
53
0
VERTEX
8
CUT
10
61.9592
20
52
0
VERTEX
8
CUT
10
61.8367
20
51
0
VERTEX
8
CUT
10
61.6327
20
50
0
VERTEX
8
CUT
10
61.3469
20
49
0
VERTEX
8
CUT
10
60.9796
20
48
0
VERTEX
8
CUT
10
60.5306
20
47
0
VERTEX
8
CUT
10
60
20
46
0
SEQEND
0
POLYLINE
8
CUT
66
1
70
0
0
VERTEX
8
CUT
10
60
20
43
0
VERTEX
8
CUT
10
60.5306
20
42
0
VERTEX
8
CUT
10
60.9796
20
41
0
VERTEX
8
CUT
10
61.3469
20
40
0
VERTEX
8
CUT
10
61.6327
20
39
0
VERTEX
8
CUT
10
61.8367
20
38
0
VERTEX
8
CUT
10
61.9592
20
37
0
VERTEX
8
CUT
10
62
20
36
0
VERTEX
8
CUT
10
61.9592
20
35
0
VERTEX
8
CUT
10
61.8367
20
34
0
VERTEX
8
CUT
10
61.6327
20
33
0
VERTEX
8
CUT
10
61.3469
20
32
0
VERTEX
8
CUT
10
60.9796
20
31
0
VERTEX
8
CUT
10
60.5306
20
30
0
VERTEX
8
CUT
10
60
20
29
0
SEQEND
0
POLYLINE
8
CUT
66
1
70
0
0
VERTEX
8
CUT
10
60
20
26
0
VERTEX
8
CUT
10
60.5306
20
25
0
VERTEX
8
CUT
10
60.9796
20
24
0
VERTEX
8
CUT
10
61.3469
20
23
0
VERTEX
8
CUT
10
61.6327
20
22
0
VERTEX
8
CUT
10
61.8367
20
21
0
VERTEX
8
CUT
10
61.9592
20
20
0
VERTEX
8
CUT
10
62
20
19
0
VERTEX
8
CUT
10
61.9592
20
18
0
VERTEX
8
CUT
10
61.8367
20
17
0
VERTEX
8
CUT
10
61.6327
20
16
0
VERTEX
8
CUT
10
61.3469
20
15
0
VERTEX
8
CUT
10
60.9796
20
14
0
VERTEX
8
CUT
10
60.5306
20
13
0
VERTEX
8
CUT
10
60
20
12
0
SEQEND
0
POLYLINE
8
CUT
66
1
70
0
0
VERTEX
8
CUT
10
60
20
9
0
VERTEX
8
CUT
10
60.5306
20
8
0
VERTEX
8
CUT
10
60.9796
20
7
0
VERTEX
8
CUT
10
61.3469
20
6
0
VERTEX
8
CUT
10
61.6327
20
5
0
VERTEX
8
CUT
10
61.8367
20
4
0
VERTEX
8
CUT
10
61.9592
20
3
0
VERTEX
8
CUT
10
62
20
2
0
VERTEX
8
CUT
10
61.9592
20
1
0
VERTEX
8
CUT
10
61.8367
20
0
0
VERTEX
8
CUT
10
61.8367
20
0
0
SEQEND
0
POLYLINE
8
CUT
66
1
70
0
0
VERTEX
8
CUT
10
69
20
68.5
0
VERTEX
8
CUT
10
68.4694
20
67.5
0
VERTEX
8
CUT
10
68.0204
20
66.5
0
VERTEX
8
CUT
10
67.6531
20
65.5
0
VERTEX
8
CUT
10
67.3673
20
64.5
0
VERTEX
8
CUT
10
67.1633
20
63.5
0
VERTEX
8
CUT
10
67.0408
20
62.5
0
VERTEX
8
CUT
10
67
20
61.5
0
VERTEX
8
CUT
10
67.0408
20
60.5
0
VERTEX
8
CUT
10
67.1633
20
59.5
0
VERTEX
8
CUT
10
67.3673
20
58.5
0
VERTEX
8
CUT
10
67.6531
20
57.5
0
VERTEX
8
CUT
10
68.0204
20
56.5
0
VERTEX
8
CUT
10
68.4694
20
55.5
0
VERTEX
8
CUT
10
69
20
54.5
0
SEQEND
0
POLYLINE
8
CUT
66
1
70
0
0
VERTEX
8
CUT
10
69
20
51.5
0
VERTEX
8
CUT
10
68.4694
20
50.5
0
VERTEX
8
CUT
10
68.0204
20
49.5
0
VERTEX
8
CUT
10
67.6531
20
48.5
0
VERTEX
8
CUT
10
67.3673
20
47.5
0
VERTEX
8
CUT
10
67.1633
20
46.5
0
VERTEX
8
CUT
10
67.0408
20
45.5
0
VERTEX
8
CUT
10
67
20
44.5
0
VERTEX
8
CUT
10
67.0408
20
43.5
0
VERTEX
8
CUT
10
67.1633
20
42.5
0
VERTEX
8
CUT
10
67.3673
20
41.5
0
VERTEX
8
CUT
10
67.6531
20
40.5
0
VERTEX
8
CUT
10
68.0204
20
39.5
0
VERTEX
8
CUT
10
68.4694
20
38.5
0
VERTEX
8
CUT
10
69
20
37.5
0
SEQEND
0
POLYLINE
8
CUT
66
1
70
0
0
VERTEX
8
CUT
10
69
20
34.5
0
VERTEX
8
CUT
10
68.4694
20
33.5
0
VERTEX
8
CUT
10
68.0204
20
32.5
0
VERTEX
8
CUT
10
67.6531
20
31.5
0
VERTEX
8
CUT
10
67.3673
20
30.5
0
VERTEX
8
CUT
10
67.1633
20
29.5
0
VERTEX
8
CUT
10
67.0408
20
28.5
0
VERTEX
8
CUT
10
67
20
27.5
0
VERTEX
8
CUT
10
67.0408
20
26.5
0
VERTEX
8
CUT
10
67.1633
20
25.5
0
VERTEX
8
CUT
10
67.3673
20
24.5
0
VERTEX
8
CUT
10
67.6531
20
23.5
0
VERTEX
8
CUT
10
68.0204
20
22.5
0
VERTEX
8
CUT
10
68.4694
20
21.5
0
VERTEX
8
CUT
10
69
20
20.5
0
SEQEND
0
POLYLINE
8
CUT
66
1
70
0
0
VERTEX
8
CUT
10
69
20
17.5
0
VERTEX
8
CUT
10
68.4694
20
16.5
0
VERTEX
8
CUT
10
68.0204
20
15.5
0
VERTEX
8
CUT
10
67.6531
20
14.5
0
VERTEX
8
CUT
10
67.3673
20
13.5
0
VERTEX
8
CUT
10
67.1633
20
12.5
0
VERTEX
8
CUT
10
67.0408
20
11.5
0
VERTEX
8
CUT
10
67
20
10.5
0
VERTEX
8
CUT
10
67.0408
20
9.5
0
VERTEX
8
CUT
10
67.1633
20
8.5
0
VERTEX
8
CUT
10
67.3673
20
7.5
0
VERTEX
8
CUT
10
67.6531
20
6.5
0
VERTEX
8
CUT
10
68.0204
20
5.5
0
VERTEX
8
CUT
10
68.4694
20
4.5
0
VERTEX
8
CUT
10
69
20
3.5
0
SEQEND
0
LINE
8
CUT
10
69
20
0.5
11
68.7347
21
0
0
POLYLINE
8
CUT
66
1
70
0
0
VERTEX
8
CUT
10
80
20
70
0
VERTEX
8
CUT
10
80
20
70
0
VERTEX
8
CUT
10
79.9592
20
69
0
VERTEX
8
CUT
10
79.8367
20
68
0
VERTEX
8
CUT
10
79.6327
20
67
0
VERTEX
8
CUT
10
79.3469
20
66
0
VERTEX
8
CUT
10
78.9796
20
65
0
VERTEX
8
CUT
10
78.5306
20
64
0
VERTEX
8
CUT
10
78
20
63
0
SEQEND
0
POLYLINE
8
CUT
66
1
70
0
0
VERTEX
8
CUT
10
78
20
60
0
VERTEX
8
CUT
10
78.5306
20
59
0
VERTEX
8
CUT
10
78.9796
20
58
0
VERTEX
8
CUT
10
79.3469
20
57
0
VERTEX
8
CUT
10
79.6327
20
56
0
VERTEX
8
CUT
10
79.8367
20
55
0
VERTEX
8
CUT
10
79.9592
20
54
0
VERTEX
8
CUT
10
80
20
53
0
VERTEX
8
CUT
10
79.9592
20
52
0
VERTEX
8
CUT
10
79.8367
20
51
0
VERTEX
8
CUT
10
79.6327
20
50
0
VERTEX
8
CUT
10
79.3469
20
49
0
VERTEX
8
CUT
10
78.9796
20
48
0
VERTEX
8
CUT
10
78.5306
20
47
0
VERTEX
8
CUT
10
78
20
46
0
SEQEND
0
POLYLINE
8
CUT
66
1
70
0
0
VERTEX
8
CUT
10
78
20
43
0
VERTEX
8
CUT
10
78.5306
20
42
0
VERTEX
8
CUT
10
78.9796
20
41
0
VERTEX
8
CUT
10
79.3469
20
40
0
VERTEX
8
CUT
10
79.6327
20
39
0
VERTEX
8
CUT
10
79.8367
20
38
0
VERTEX
8
CUT
10
79.9592
20
37
0
VERTEX
8
CUT
10
80
20
36
0
VERTEX
8
CUT
10
79.9592
20
35
0
VERTEX
8
CUT
10
79.8367
20
34
0
VERTEX
8
CUT
10
79.6327
20
33
0
VERTEX
8
CUT
10
79.3469
20
32
0
VERTEX
8
CUT
10
78.9796
20
31
0
VERTEX
8
CUT
10
78.5306
20
30
0
VERTEX
8
CUT
10
78
20
29
0
SEQEND
0
POLYLINE
8
CUT
66
1
70
0
0
VERTEX
8
CUT
10
78
20
26
0
VERTEX
8
CUT
10
78.5306
20
25
0
VERTEX
8
CUT
10
78.9796
20
24
0
VERTEX
8
CUT
10
79.3469
20
23
0
VERTEX
8
CUT
10
79.6327
20
22
0
VERTEX
8
CUT
10
79.8367
20
21
0
VERTEX
8
CUT
10
79.9592
20
20
0
VERTEX
8
CUT
10
80
20
19
0
VERTEX
8
CUT
10
79.9592
20
18
0
VERTEX
8
CUT
10
79.8367
20
17
0
VERTEX
8
CUT
10
79.6327
20
16
0
VERTEX
8
CUT
10
79.3469
20
15
0
VERTEX
8
CUT
10
78.9796
20
14
0
VERTEX
8
CUT
10
78.5306
20
13
0
VERTEX
8
CUT
10
78
20
12
0
SEQEND
0
POLYLINE
8
CUT
66
1
70
0
0
VERTEX
8
CUT
10
78
20
9
0
VERTEX
8
CUT
10
78.5306
20
8
0
VERTEX
8
CUT
10
78.9796
20
7
0
VERTEX
8
CUT
10
79.3469
20
6
0
VERTEX
8
CUT
10
79.6327
20
5
0
VERTEX
8
CUT
10
79.8367
20
4
0
VERTEX
8
CUT
10
79.9592
20
3
0
VERTEX
8
CUT
10
80
20
2
0
VERTEX
8
CUT
10
79.9592
20
1
0
VERTEX
8
CUT
10
79.8367
20
0
0
VERTEX
8
CUT
10
79.8367
20
0
0
SEQEND
0
POLYLINE
8
CUT
66
1
70
0
0
VERTEX
8
CUT
10
87
20
68.5
0
VERTEX
8
CUT
10
86.4694
20
67.5
0
VERTEX
8
CUT
10
86.0204
20
66.5
0
VERTEX
8
CUT
10
85.6531
20
65.5
0
VERTEX
8
CUT
10
85.3673
20
64.5
0
VERTEX
8
CUT
10
85.1633
20
63.5
0
VERTEX
8
CUT
10
85.0408
20
62.5
0
VERTEX
8
CUT
10
85
20
61.5
0
VERTEX
8
CUT
10
85.0408
20
60.5
0
VERTEX
8
CUT
10
85.1633
20
59.5
0
VERTEX
8
CUT
10
85.3673
20
58.5
0
VERTEX
8
CUT
10
85.6531
20
57.5
0
VERTEX
8
CUT
10
86.0204
20
56.5
0
VERTEX
8
CUT
10
86.4694
20
55.5
0
VERTEX
8
CUT
10
87
20
54.5
0
SEQEND
0
POLYLINE
8
CUT
66
1
70
0
0
VERTEX
8
CUT
10
87
20
51.5
0
VERTEX
8
CUT
10
86.4694
20
50.5
0
VERTEX
8
CUT
10
86.0204
20
49.5
0
VERTEX
8
CUT
10
85.6531
20
48.5
0
VERTEX
8
CUT
10
85.3673
20
47.5
0
VERTEX
8
CUT
10
85.1633
20
46.5
0
VERTEX
8
CUT
10
85.0408
20
45.5
0
VERTEX
8
CUT
10
85
20
44.5
0
VERTEX
8
CUT
10
85.0408
20
43.5
0
VERTEX
8
CUT
10
85.1633
20
42.5
0
VERTEX
8
CUT
10
85.3673
20
41.5
0
VERTEX
8
CUT
10
85.6531
20
40.5
0
VERTEX
8
CUT
10
86.0204
20
39.5
0
VERTEX
8
CUT
10
86.4694
20
38.5
0
VERTEX
8
CUT
10
87
20
37.5
0
SEQEND
0
POLYLINE
8
CUT
66
1
70
0
0
VERTEX
8
CUT
10
87
20
34.5
0
VERTEX
8
CUT
10
86.4694
20
33.5
0
VERTEX
8
CUT
10
86.0204
20
32.5
0
VERTEX
8
CUT
10
85.6531
20
31.5
0
VERTEX
8
CUT
10
85.3673
20
30.5
0
VERTEX
8
CUT
10
85.1633
20
29.5
0
VERTEX
8
CUT
10
85.0408
20
28.5
0
VERTEX
8
CUT
10
85
20
27.5
0
VERTEX
8
CUT
10
85.0408
20
26.5
0
VERTEX
8
CUT
10
85.1633
20
25.5
0
VERTEX
8
CUT
10
85.3673
20
24.5
0
VERTEX
8
CUT
10
85.6531
20
23.5
0
VERTEX
8
CUT
10
86.0204
20
22.5
0
VERTEX
8
CUT
10
86.4694
20
21.5
0
VERTEX
8
CUT
10
87
20
20.5
0
SEQEND
0
POLYLINE
8
CUT
66
1
70
0
0
VERTEX
8
CUT
10
87
20
17.5
0
VERTEX
8
CUT
10
86.4694
20
16.5
0
VERTEX
8
CUT
10
86.0204
20
15.5
0
VERTEX
8
CUT
10
85.6531
20
14.5
0
VERTEX
8
CUT
10
85.3673
20
13.5
0
VERTEX
8
CUT
10
85.1633
20
12.5
0
VERTEX
8
CUT
10
85.0408
20
11.5
0
VERTEX
8
CUT
10
85
20
10.5
0
VERTEX
8
CUT
10
85.0408
20
9.5
0
VERTEX
8
CUT
10
85.1633
20
8.5
0
VERTEX
8
CUT
10
85.3673
20
7.5
0
VERTEX
8
CUT
10
85.6531
20
6.5
0
VERTEX
8
CUT
10
86.0204
20
5.5
0
VERTEX
8
CUT
10
86.4694
20
4.5
0
VERTEX
8
CUT
10
87
20
3.5
0
SEQEND
0
LINE
8
CUT
10
87
20
0.5
11
86.7347
21
0
0
POLYLINE
8
CUT
66
1
70
0
0
VERTEX
8
CUT
10
98
20
70
0
VERTEX
8
CUT
10
98
20
70
0
VERTEX
8
CUT
10
97.9592
20
69
0
VERTEX
8
CUT
10
97.8367
20
68
0
VERTEX
8
CUT
10
97.6327
20
67
0
VERTEX
8
CUT
10
97.3469
20
66
0
VERTEX
8
CUT
10
96.9796
20
65
0
VERTEX
8
CUT
10
96.5306
20
64
0
VERTEX
8
CUT
10
96
20
63
0
SEQEND
0
POLYLINE
8
CUT
66
1
70
0
0
VERTEX
8
CUT
10
96
20
60
0
VERTEX
8
CUT
10
96.5306
20
59
0
VERTEX
8
CUT
10
96.9796
20
58
0
VERTEX
8
CUT
10
97.3469
20
57
0
VERTEX
8
CUT
10
97.6327
20
56
0
VERTEX
8
CUT
10
97.8367
20
55
0
VERTEX
8
CUT
10
97.9592
20
54
0
VERTEX
8
CUT
10
98
20
53
0
VERTEX
8
CUT
10
97.9592
20
52
0
VERTEX
8
CUT
10
97.8367
20
51
0
VERTEX
8
CUT
10
97.6327
20
50
0
VERTEX
8
CUT
10
97.3469
20
49
0
VERTEX
8
CUT
10
96.9796
20
48
0
VERTEX
8
CUT
10
96.5306
20
47
0
VERTEX
8
CUT
10
96
20
46
0
SEQEND
0
POLYLINE
8
CUT
66
1
70
0
0
VERTEX
8
CUT
10
96
20
43
0
VERTEX
8
CUT
10
96.5306
20
42
0
VERTEX
8
CUT
10
96.9796
20
41
0
VERTEX
8
CUT
10
97.3469
20
40
0
VERTEX
8
CUT
10
97.6327
20
39
0
VERTEX
8
CUT
10
97.8367
20
38
0
VERTEX
8
CUT
10
97.9592
20
37
0
VERTEX
8
CUT
10
98
20
36
0
VERTEX
8
CUT
10
97.9592
20
35
0
VERTEX
8
CUT
10
97.8367
20
34
0
VERTEX
8
CUT
10
97.6327
20
33
0
VERTEX
8
CUT
10
97.3469
20
32
0
VERTEX
8
CUT
10
96.9796
20
31
0
VERTEX
8
CUT
10
96.5306
20
30
0
VERTEX
8
CUT
10
96
20
29
0
SEQEND
0
POLYLINE
8
CUT
66
1
70
0
0
VERTEX
8
CUT
10
96
20
26
0
VERTEX
8
CUT
10
96.5306
20
25
0
VERTEX
8
CUT
10
96.9796
20
24
0
VERTEX
8
CUT
10
97.3469
20
23
0
VERTEX
8
CUT
10
97.6327
20
22
0
VERTEX
8
CUT
10
97.8367
20
21
0
VERTEX
8
CUT
10
97.9592
20
20
0
VERTEX
8
CUT
10
98
20
19
0
VERTEX
8
CUT
10
97.9592
20
18
0
VERTEX
8
CUT
10
97.8367
20
17
0
VERTEX
8
CUT
10
97.6327
20
16
0
VERTEX
8
CUT
10
97.3469
20
15
0
VERTEX
8
CUT
10
96.9796
20
14
0
VERTEX
8
CUT
10
96.5306
20
13
0
VERTEX
8
CUT
10
96
20
12
0
SEQEND
0
POLYLINE
8
CUT
66
1
70
0
0
VERTEX
8
CUT
10
96
20
9
0
VERTEX
8
CUT
10
96.5306
20
8
0
VERTEX
8
CUT
10
96.9796
20
7
0
VERTEX
8
CUT
10
97.3469
20
6
0
VERTEX
8
CUT
10
97.6327
20
5
0
VERTEX
8
CUT
10
97.8367
20
4
0
VERTEX
8
CUT
10
97.9592
20
3
0
VERTEX
8
CUT
10
98
20
2
0
VERTEX
8
CUT
10
97.9592
20
1
0
VERTEX
8
CUT
10
97.8367
20
0
0
VERTEX
8
CUT
10
97.8367
20
0
0
SEQEND
0
POLYLINE
8
CUT
66
1
70
0
0
VERTEX
8
CUT
10
105
20
68.5
0
VERTEX
8
CUT
10
104.4694
20
67.5
0
VERTEX
8
CUT
10
104.0204
20
66.5
0
VERTEX
8
CUT
10
103.6531
20
65.5
0
VERTEX
8
CUT
10
103.3673
20
64.5
0
VERTEX
8
CUT
10
103.1633
20
63.5
0
VERTEX
8
CUT
10
103.0408
20
62.5
0
VERTEX
8
CUT
10
103
20
61.5
0
VERTEX
8
CUT
10
103.0408
20
60.5
0
VERTEX
8
CUT
10
103.1633
20
59.5
0
VERTEX
8
CUT
10
103.3673
20
58.5
0
VERTEX
8
CUT
10
103.6531
20
57.5
0
VERTEX
8
CUT
10
104.0204
20
56.5
0
VERTEX
8
CUT
10
104.4694
20
55.5
0
VERTEX
8
CUT
10
105
20
54.5
0
SEQEND
0
POLYLINE
8
CUT
66
1
70
0
0
VERTEX
8
CUT
10
105
20
51.5
0
VERTEX
8
CUT
10
104.4694
20
50.5
0
VERTEX
8
CUT
10
104.0204
20
49.5
0
VERTEX
8
CUT
10
103.6531
20
48.5
0
VERTEX
8
CUT
10
103.3673
20
47.5
0
VERTEX
8
CUT
10
103.1633
20
46.5
0
VERTEX
8
CUT
10
103.0408
20
45.5
0
VERTEX
8
CUT
10
103
20
44.5
0
VERTEX
8
CUT
10
103.0408
20
43.5
0
VERTEX
8
CUT
10
103.1633
20
42.5
0
VERTEX
8
CUT
10
103.3673
20
41.5
0
VERTEX
8
CUT
10
103.6531
20
40.5
0
VERTEX
8
CUT
10
104.0204
20
39.5
0
VERTEX
8
CUT
10
104.4694
20
38.5
0
VERTEX
8
CUT
10
105
20
37.5
0
SEQEND
0
POLYLINE
8
CUT
66
1
70
0
0
VERTEX
8
CUT
10
105
20
34.5
0
VERTEX
8
CUT
10
104.4694
20
33.5
0
VERTEX
8
CUT
10
104.0204
20
32.5
0
VERTEX
8
CUT
10
103.6531
20
31.5
0
VERTEX
8
CUT
10
103.3673
20
30.5
0
VERTEX
8
CUT
10
103.1633
20
29.5
0
VERTEX
8
CUT
10
103.0408
20
28.5
0
VERTEX
8
CUT
10
103
20
27.5
0
VERTEX
8
CUT
10
103.0408
20
26.5
0
VERTEX
8
CUT
10
103.1633
20
25.5
0
VERTEX
8
CUT
10
103.3673
20
24.5
0
VERTEX
8
CUT
10
103.6531
20
23.5
0
VERTEX
8
CUT
10
104.0204
20
22.5
0
VERTEX
8
CUT
10
104.4694
20
21.5
0
VERTEX
8
CUT
10
105
20
20.5
0
SEQEND
0
POLYLINE
8
CUT
66
1
70
0
0
VERTEX
8
CUT
10
105
20
17.5
0
VERTEX
8
CUT
10
104.4694
20
16.5
0
VERTEX
8
CUT
10
104.0204
20
15.5
0
VERTEX
8
CUT
10
103.6531
20
14.5
0
VERTEX
8
CUT
10
103.3673
20
13.5
0
VERTEX
8
CUT
10
103.1633
20
12.5
0
VERTEX
8
CUT
10
103.0408
20
11.5
0
VERTEX
8
CUT
10
103
20
10.5
0
VERTEX
8
CUT
10
103.0408
20
9.5
0
VERTEX
8
CUT
10
103.1633
20
8.5
0
VERTEX
8
CUT
10
103.3673
20
7.5
0
VERTEX
8
CUT
10
103.6531
20
6.5
0
VERTEX
8
CUT
10
104.0204
20
5.5
0
VERTEX
8
CUT
10
104.4694
20
4.5
0
VERTEX
8
CUT
10
105
20
3.5
0
SEQEND
0
LINE
8
CUT
10
105
20
0.5
11
104.7347
21
0
0
POLYLINE
8
CUT
66
1
70
0
0
VERTEX
8
CUT
10
116
20
70
0
VERTEX
8
CUT
10
116
20
70
0
VERTEX
8
CUT
10
115.9592
20
69
0
VERTEX
8
CUT
10
115.8367
20
68
0
VERTEX
8
CUT
10
115.6327
20
67
0
VERTEX
8
CUT
10
115.3469
20
66
0
VERTEX
8
CUT
10
114.9796
20
65
0
VERTEX
8
CUT
10
114.5306
20
64
0
VERTEX
8
CUT
10
114
20
63
0
SEQEND
0
POLYLINE
8
CUT
66
1
70
0
0
VERTEX
8
CUT
10
114
20
60
0
VERTEX
8
CUT
10
114.5306
20
59
0
VERTEX
8
CUT
10
114.9796
20
58
0
VERTEX
8
CUT
10
115.3469
20
57
0
VERTEX
8
CUT
10
115.6327
20
56
0
VERTEX
8
CUT
10
115.8367
20
55
0
VERTEX
8
CUT
10
115.9592
20
54
0
VERTEX
8
CUT
10
116
20
53
0
VERTEX
8
CUT
10
115.9592
20
52
0
VERTEX
8
CUT
10
115.8367
20
51
0
VERTEX
8
CUT
10
115.6327
20
50
0
VERTEX
8
CUT
10
115.3469
20
49
0
VERTEX
8
CUT
10
114.9796
20
48
0
VERTEX
8
CUT
10
114.5306
20
47
0
VERTEX
8
CUT
10
114
20
46
0
SEQEND
0
POLYLINE
8
CUT
66
1
70
0
0
VERTEX
8
CUT
10
114
20
43
0
VERTEX
8
CUT
10
114.5306
20
42
0
VERTEX
8
CUT
10
114.9796
20
41
0
VERTEX
8
CUT
10
115.3469
20
40
0
VERTEX
8
CUT
10
115.6327
20
39
0
VERTEX
8
CUT
10
115.8367
20
38
0
VERTEX
8
CUT
10
115.9592
20
37
0
VERTEX
8
CUT
10
116
20
36
0
VERTEX
8
CUT
10
115.9592
20
35
0
VERTEX
8
CUT
10
115.8367
20
34
0
VERTEX
8
CUT
10
115.6327
20
33
0
VERTEX
8
CUT
10
115.3469
20
32
0
VERTEX
8
CUT
10
114.9796
20
31
0
VERTEX
8
CUT
10
114.5306
20
30
0
VERTEX
8
CUT
10
114
20
29
0
SEQEND
0
POLYLINE
8
CUT
66
1
70
0
0
VERTEX
8
CUT
10
114
20
26
0
VERTEX
8
CUT
10
114.5306
20
25
0
VERTEX
8
CUT
10
114.9796
20
24
0
VERTEX
8
CUT
10
115.3469
20
23
0
VERTEX
8
CUT
10
115.6327
20
22
0
VERTEX
8
CUT
10
115.8367
20
21
0
VERTEX
8
CUT
10
115.9592
20
20
0
VERTEX
8
CUT
10
116
20
19
0
VERTEX
8
CUT
10
115.9592
20
18
0
VERTEX
8
CUT
10
115.8367
20
17
0
VERTEX
8
CUT
10
115.6327
20
16
0
VERTEX
8
CUT
10
115.3469
20
15
0
VERTEX
8
CUT
10
114.9796
20
14
0
VERTEX
8
CUT
10
114.5306
20
13
0
VERTEX
8
CUT
10
114
20
12
0
SEQEND
0
POLYLINE
8
CUT
66
1
70
0
0
VERTEX
8
CUT
10
114
20
9
0
VERTEX
8
CUT
10
114.5306
20
8
0
VERTEX
8
CUT
10
114.9796
20
7
0
VERTEX
8
CUT
10
115.3469
20
6
0
VERTEX
8
CUT
10
115.6327
20
5
0
VERTEX
8
CUT
10
115.8367
20
4
0
VERTEX
8
CUT
10
115.9592
20
3
0
VERTEX
8
CUT
10
116
20
2
0
VERTEX
8
CUT
10
115.9592
20
1
0
VERTEX
8
CUT
10
115.8367
20
0
0
VERTEX
8
CUT
10
115.8367
20
0
0
SEQEND
0
POLYLINE
8
CUT
66
1
70
0
0
VERTEX
8
CUT
10
0
20
70
0
VERTEX
8
CUT
10
120
20
70
0
VERTEX
8
CUT
10
120
20
0
0
VERTEX
8
CUT
10
0
20
0
0
VERTEX
8
CUT
10
0
20
70
0
SEQEND
0
ENDSEC
0
EOF
