0
SECTION
2
HEADER
9
$ACADVER
1
AC1009
9
$INSUNITS
70
4
0
ENDSEC
0
SECTION
2
TABLES
0
TABLE
2
LAYER
70
1
0
LAYER
2
CUT
70
0
62
1
6
CONTINUOUS
0
ENDTAB
0
ENDSEC
0
SECTION
2
ENTITIES
0
LINE
8
CUT
10
0.7082
20
69.1334
11
0
21
68.1521
0
LINE
8
CUT
10
0.7082
20
57.2339
11
0
21
56.2526
0
LINE
8
CUT
10
0
20
60.6479
11
0.836
21
59.4895
0
LINE
8
CUT
10
0.7082
20
45.3344
11
0
21
44.3531
0
LINE
8
CUT
10
0
20
48.7484
11
0.836
21
47.59
0
LINE
8
CUT
10
0.7082
20
33.435
11
0
21
32.4537
0
LINE
8
CUT
10
0
20
36.8489
11
0.836
21
35.6905
0
LINE
8
CUT
10
0.7082
20
21.5355
11
0
21
20.5542
0
LINE
8
CUT
10
0
20
24.9494
11
0.836
21
23.791
0
LINE
8
CUT
10
0.7082
20
9.636
11
0
21
8.6547
0
LINE
8
CUT
10
0
20
13.0499
11
0.836
21
11.8916
0
LINE
8
CUT
10
0
20
1.1505
11
0.8303
21
0
0
POLYLINE
8
CUT
66
1
70
0
0
VERTEX
8
CUT
10
12.2
20
64.4
0
VERTEX
8
CUT
10
9.6
20
60.7973
0
VERTEX
8
CUT
10
4.4
20
60.7973
0
VERTEX
8
CUT
10
1.8
20
64.4
0
VERTEX
8
CUT
10
4.4
20
68.0027
0
VERTEX
8
CUT
10
9.6
20
68.0027
0
VERTEX
8
CUT
10
12.2
20
64.4
0
SEQEND
0
POLYLINE
8
CUT
66
1
70
0
0
VERTEX
8
CUT
10
13.1222
20
63.1837
0
VERTEX
8
CUT
10
10.5
20
59.5503
0
VERTEX
8
CUT
10
5.2556
20
59.5503
0
SEQEND
0
POLYLINE
8
CUT
66
1
70
0
0
VERTEX
8
CUT
10
2.6222
20
60.7666
0
VERTEX
8
CUT
10
0
20
64.4
0
VERTEX
8
CUT
10
2.6222
20
68.0334
0
SEQEND
0
POLYLINE
8
CUT
66
1
70
0
0
VERTEX
8
CUT
10
5
20
69.2497
0
VERTEX
8
CUT
10
10.5
20
69.2497
0
VERTEX
8
CUT
10
13.25
20
65.4392
0
SEQEND
0
POLYLINE
8
CUT
66
1
70
0
0
VERTEX
8
CUT
10
12.2
20
52.5005
0
VERTEX
8
CUT
10
9.6
20
48.8978
0
VERTEX
8
CUT
10
4.4
20
48.8978
0
VERTEX
8
CUT
10
1.8
20
52.5005
0
VERTEX
8
CUT
10
4.4
20
56.1032
0
VERTEX
8
CUT
10
9.6
20
56.1032
0
VERTEX
8
CUT
10
12.2
20
52.5005
0
SEQEND
0
POLYLINE
8
CUT
66
1
70
0
0
VERTEX
8
CUT
10
13.1222
20
51.2842
0
VERTEX
8
CUT
10
10.5
20
47.6508
0
VERTEX
8
CUT
10
5.2556
20
47.6508
0
SEQEND
0
POLYLINE
8
CUT
66
1
70
0
0
VERTEX
8
CUT
10
2.6222
20
48.8671
0
VERTEX
8
CUT
10
0
20
52.5005
0
VERTEX
8
CUT
10
2.6222
20
56.1339
0
SEQEND
0
POLYLINE
8
CUT
66
1
70
0
0
VERTEX
8
CUT
10
5
20
57.3503
0
VERTEX
8
CUT
10
10.5
20
57.3503
0
VERTEX
8
CUT
10
13.25
20
53.5397
0
SEQEND
0
POLYLINE
8
CUT
66
1
70
0
0
VERTEX
8
CUT
10
12.2
20
40.601
0
VERTEX
8
CUT
10
9.6
20
36.9984
0
VERTEX
8
CUT
10
4.4
20
36.9984
0
VERTEX
8
CUT
10
1.8
20
40.601
0
VERTEX
8
CUT
10
4.4
20
44.2037
0
VERTEX
8
CUT
10
9.6
20
44.2037
0
VERTEX
8
CUT
10
12.2
20
40.601
0
SEQEND
0
POLYLINE
8
CUT
66
1
70
0
0
VERTEX
8
CUT
10
13.1222
20
39.3847
0
VERTEX
8
CUT
10
10.5
20
35.7513
0
VERTEX
8
CUT
10
5.2556
20
35.7513
0
SEQEND
0
POLYLINE
8
CUT
66
1
70
0
0
VERTEX
8
CUT
10
2.6222
20
36.9676
0
VERTEX
8
CUT
10
0
20
40.601
0
VERTEX
8
CUT
10
2.6222
20
44.2344
0
SEQEND
0
POLYLINE
8
CUT
66
1
70
0
0
VERTEX
8
CUT
10
5
20
45.4508
0
VERTEX
8
CUT
10
10.5
20
45.4508
0
VERTEX
8
CUT
10
13.25
20
41.6403
0
SEQEND
0
POLYLINE
8
CUT
66
1
70
0
0
VERTEX
8
CUT
10
12.2
20
28.7015
0
VERTEX
8
CUT
10
9.6
20
25.0989
0
VERTEX
8
CUT
10
4.4
20
25.0989
0
VERTEX
8
CUT
10
1.8
20
28.7015
0
VERTEX
8
CUT
10
4.4
20
32.3042
0
VERTEX
8
CUT
10
9.6
20
32.3042
0
VERTEX
8
CUT
10
12.2
20
28.7015
0
SEQEND
0
POLYLINE
8
CUT
66
1
70
0
0
VERTEX
8
CUT
10
13.1222
20
27.4852
0
VERTEX
8
CUT
10
10.5
20
23.8518
0
VERTEX
8
CUT
10
5.2556
20
23.8518
0
SEQEND
0
POLYLINE
8
CUT
66
1
70
0
0
VERTEX
8
CUT
10
2.6222
20
25.0681
0
VERTEX
8
CUT
10
0
20
28.7015
0
VERTEX
8
CUT
10
2.6222
20
32.335
0
SEQEND
0
POLYLINE
8
CUT
66
1
70
0
0
VERTEX
8
CUT
10
5
20
33.5513
0
VERTEX
8
CUT
10
10.5
20
33.5513
0
VERTEX
8
CUT
10
13.25
20
29.7408
0
SEQEND
0
POLYLINE
8
CUT
66
1
70
0
0
VERTEX
8
CUT
10
12.2
20
16.8021
0
VERTEX
8
CUT
10
9.6
20
13.1994
0
VERTEX
8
CUT
10
4.4
20
13.1994
0
VERTEX
8
CUT
10
1.8
20
16.8021
0
VERTEX
8
CUT
10
4.4
20
20.4047
0
VERTEX
8
CUT
10
9.6
20
20.4047
0
VERTEX
8
CUT
10
12.2
20
16.8021
0
SEQEND
0
POLYLINE
8
CUT
66
1
70
0
0
VERTEX
8
CUT
10
13.1222
20
15.5857
0
VERTEX
8
CUT
10
10.5
20
11.9523
0
VERTEX
8
CUT
10
5.2556
20
11.9523
0
SEQEND
0
POLYLINE
8
CUT
66
1
70
0
0
VERTEX
8
CUT
10
2.6222
20
13.1686
0
VERTEX
8
CUT
10
0
20
16.8021
0
VERTEX
8
CUT
10
2.6222
20
20.4355
0
SEQEND
0
POLYLINE
8
CUT
66
1
70
0
0
VERTEX
8
CUT
10
5
20
21.6518
0
VERTEX
8
CUT
10
10.5
20
21.6518
0
VERTEX
8
CUT
10
13.25
20
17.8413
0
SEQEND
0
POLYLINE
8
CUT
66
1
70
0
0
VERTEX
8
CUT
10
12.2
20
4.9026
0
VERTEX
8
CUT
10
9.6
20
1.2999
0
VERTEX
8
CUT
10
4.4
20
1.2999
0
VERTEX
8
CUT
10
1.8
20
4.9026
0
VERTEX
8
CUT
10
4.4
20
8.5052
0
VERTEX
8
CUT
10
9.6
20
8.5052
0
VERTEX
8
CUT
10
12.2
20
4.9026
0
SEQEND
0
POLYLINE
8
CUT
66
1
70
0
0
VERTEX
8
CUT
10
13.1222
20
3.6863
0
VERTEX
8
CUT
10
10.5
20
0.0528
0
VERTEX
8
CUT
10
5.2556
20
0.0528
0
SEQEND
0
POLYLINE
8
CUT
66
1
70
0
0
VERTEX
8
CUT
10
2.6222
20
1.2692
0
VERTEX
8
CUT
10
0
20
4.9026
0
VERTEX
8
CUT
10
2.6222
20
8.536
0
SEQEND
0
POLYLINE
8
CUT
66
1
70
0
0
VERTEX
8
CUT
10
5
20
9.7523
0
VERTEX
8
CUT
10
10.5
20
9.7523
0
VERTEX
8
CUT
10
13.25
20
5.9418
0
SEQEND
0
POLYLINE
8
CUT
66
1
70
0
0
VERTEX
8
CUT
10
24.3616
20
70
0
VERTEX
8
CUT
10
22.014
20
66.7471
0
VERTEX
8
CUT
10
16.814
20
66.7471
0
VERTEX
8
CUT
10
14.4664
20
70
0
SEQEND
0
POLYLINE
8
CUT
66
1
70
0
0
VERTEX
8
CUT
10
25.5362
20
69.1334
0
VERTEX
8
CUT
10
22.914
20
65.5
0
VERTEX
8
CUT
10
17.6696
20
65.5
0
SEQEND
0
LINE
8
CUT
10
15.0362
20
66.7163
11
12.6664
21
70
0
POLYLINE
8
CUT
66
1
70
0
0
VERTEX
8
CUT
10
24.614
20
58.4503
0
VERTEX
8
CUT
10
22.014
20
54.8476
0
VERTEX
8
CUT
10
16.814
20
54.8476
0
VERTEX
8
CUT
10
14.214
20
58.4503
0
VERTEX
8
CUT
10
16.814
20
62.0529
0
VERTEX
8
CUT
10
22.014
20
62.0529
0
VERTEX
8
CUT
10
24.614
20
58.4503
0
SEQEND
0
POLYLINE
8
CUT
66
1
70
0
0
VERTEX
8
CUT
10
25.5362
20
57.2339
0
VERTEX
8
CUT
10
22.914
20
53.6005
0
VERTEX
8
CUT
10
17.6696
20
53.6005
0
SEQEND
0
POLYLINE
8
CUT
66
1
70
0
0
VERTEX
8
CUT
10
15.0362
20
54.8168
0
VERTEX
8
CUT
10
12.414
20
58.4503
0
VERTEX
8
CUT
10
15.0362
20
62.0837
0
SEQEND
0
POLYLINE
8
CUT
66
1
70
0
0
VERTEX
8
CUT
10
17.414
20
63.3
0
VERTEX
8
CUT
10
22.914
20
63.3
0
VERTEX
8
CUT
10
25.664
20
59.4895
0
SEQEND
0
POLYLINE
8
CUT
66
1
70
0
0
VERTEX
8
CUT
10
24.614
20
46.5508
0
VERTEX
8
CUT
10
22.014
20
42.9481
0
VERTEX
8
CUT
10
16.814
20
42.9481
0
VERTEX
8
CUT
10
14.214
20
46.5508
0
VERTEX
8
CUT
10
16.814
20
50.1534
0
VERTEX
8
CUT
10
22.014
20
50.1534
0
VERTEX
8
CUT
10
24.614
20
46.5508
0
SEQEND
0
POLYLINE
8
CUT
66
1
70
0
0
VERTEX
8
CUT
10
25.5362
20
45.3344
0
VERTEX
8
CUT
10
22.914
20
41.701
0
VERTEX
8
CUT
10
17.6696
20
41.701
0
SEQEND
0
POLYLINE
8
CUT
66
1
70
0
0
VERTEX
8
CUT
10
15.0362
20
42.9174
0
VERTEX
8
CUT
10
12.414
20
46.5508
0
VERTEX
8
CUT
10
15.0362
20
50.1842
0
SEQEND
0
POLYLINE
8
CUT
66
1
70
0
0
VERTEX
8
CUT
10
17.414
20
51.4005
0
VERTEX
8
CUT
10
22.914
20
51.4005
0
VERTEX
8
CUT
10
25.664
20
47.59
0
SEQEND
0
POLYLINE
8
CUT
66
1
70
0
0
VERTEX
8
CUT
10
24.614
20
34.6513
0
VERTEX
8
CUT
10
22.014
20
31.0486
0
VERTEX
8
CUT
10
16.814
20
31.0486
0
VERTEX
8
CUT
10
14.214
20
34.6513
0
VERTEX
8
CUT
10
16.814
20
38.254
0
VERTEX
8
CUT
10
22.014
20
38.254
0
VERTEX
8
CUT
10
24.614
20
34.6513
0
SEQEND
0
POLYLINE
8
CUT
66
1
70
0
0
VERTEX
8
CUT
10
25.5362
20
33.435
0
VERTEX
8
CUT
10
22.914
20
29.8015
0
VERTEX
8
CUT
10
17.6696
20
29.8015
0
SEQEND
0
POLYLINE
8
CUT
66
1
70
0
0
VERTEX
8
CUT
10
15.0362
20
31.0179
0
VERTEX
8
CUT
10
12.414
20
34.6513
0
VERTEX
8
CUT
10
15.0362
20
38.2847
0
SEQEND
0
POLYLINE
8
CUT
66
1
70
0
0
VERTEX
8
CUT
10
17.414
20
39.501
0
VERTEX
8
CUT
10
22.914
20
39.501
0
VERTEX
8
CUT
10
25.664
20
35.6905
0
SEQEND
0
POLYLINE
8
CUT
66
1
70
0
0
VERTEX
8
CUT
10
24.614
20
22.7518
0
VERTEX
8
CUT
10
22.014
20
19.1491
0
VERTEX
8
CUT
10
16.814
20
19.1491
0
VERTEX
8
CUT
10
14.214
20
22.7518
0
VERTEX
8
CUT
10
16.814
20
26.3545
0
VERTEX
8
CUT
10
22.014
20
26.3545
0
VERTEX
8
CUT
10
24.614
20
22.7518
0
SEQEND
0
POLYLINE
8
CUT
66
1
70
0
0
VERTEX
8
CUT
10
25.5362
20
21.5355
0
VERTEX
8
CUT
10
22.914
20
17.9021
0
VERTEX
8
CUT
10
17.6696
20
17.9021
0
SEQEND
0
POLYLINE
8
CUT
66
1
70
0
0
VERTEX
8
CUT
10
15.0362
20
19.1184
0
VERTEX
8
CUT
10
12.414
20
22.7518
0
VERTEX
8
CUT
10
15.0362
20
26.3852
0
SEQEND
0
POLYLINE
8
CUT
66
1
70
0
0
VERTEX
8
CUT
10
17.414
20
27.6015
0
VERTEX
8
CUT
10
22.914
20
27.6015
0
VERTEX
8
CUT
10
25.664
20
23.791
0
SEQEND
0
POLYLINE
8
CUT
66
1
70
0
0
VERTEX
8
CUT
10
24.614
20
10.8523
0
VERTEX
8
CUT
10
22.014
20
7.2497
0
VERTEX
8
CUT
10
16.814
20
7.2497
0
VERTEX
8
CUT
10
14.214
20
10.8523
0
VERTEX
8
CUT
10
16.814
20
14.455
0
VERTEX
8
CUT
10
22.014
20
14.455
0
VERTEX
8
CUT
10
24.614
20
10.8523
0
SEQEND
0
POLYLINE
8
CUT
66
1
70
0
0
VERTEX
8
CUT
10
25.5362
20
9.636
0
VERTEX
8
CUT
10
22.914
20
6.0026
0
VERTEX
8
CUT
10
17.6696
20
6.0026
0
SEQEND
0
POLYLINE
8
CUT
66
1
70
0
0
VERTEX
8
CUT
10
15.0362
20
7.2189
0
VERTEX
8
CUT
10
12.414
20
10.8523
0
VERTEX
8
CUT
10
15.0362
20
14.4857
0
SEQEND
0
POLYLINE
8
CUT
66
1
70
0
0
VERTEX
8
CUT
10
17.414
20
15.7021
0
VERTEX
8
CUT
10
22.914
20
15.7021
0
VERTEX
8
CUT
10
25.664
20
11.8916
0
SEQEND
0
POLYLINE
8
CUT
66
1
70
0
0
VERTEX
8
CUT
10
14.9697
20
0
0
VERTEX
8
CUT
10
16.814
20
2.5555
0
VERTEX
8
CUT
10
22.014
20
2.5555
0
VERTEX
8
CUT
10
23.8583
20
0
0
SEQEND
0
LINE
8
CUT
10
13.1697
20
0
11
15.0362
21
2.5863
0
POLYLINE
8
CUT
66
1
70
0
0
VERTEX
8
CUT
10
17.414
20
3.8026
0
VERTEX
8
CUT
10
22.914
20
3.8026
0
VERTEX
8
CUT
10
25.6583
20
0
0
SEQEND
0
POLYLINE
8
CUT
66
1
70
0
0
VERTEX
8
CUT
10
37.028
20
64.4
0
VERTEX
8
CUT
10
34.428
20
60.7973
0
VERTEX
8
CUT
10
29.228
20
60.7973
0
VERTEX
8
CUT
10
26.628
20
64.4
0
VERTEX
8
CUT
10
29.228
20
68.0027
0
VERTEX
8
CUT
10
34.428
20
68.0027
0
VERTEX
8
CUT
10
37.028
20
64.4
0
SEQEND
0
POLYLINE
8
CUT
66
1
70
0
0
VERTEX
8
CUT
10
37.9502
20
63.1837
0
VERTEX
8
CUT
10
35.328
20
59.5503
0
VERTEX
8
CUT
10
30.0836
20
59.5503
0
SEQEND
0
POLYLINE
8
CUT
66
1
70
0
0
VERTEX
8
CUT
10
27.4502
20
60.7666
0
VERTEX
8
CUT
10
24.828
20
64.4
0
VERTEX
8
CUT
10
27.4502
20
68.0334
0
SEQEND
0
POLYLINE
8
CUT
66
1
70
0
0
VERTEX
8
CUT
10
29.828
20
69.2497
0
VERTEX
8
CUT
10
35.328
20
69.2497
0
VERTEX
8
CUT
10
38.078
20
65.4392
0
SEQEND
0
POLYLINE
8
CUT
66
1
70
0
0
VERTEX
8
CUT
10
37.028
20
52.5005
0
VERTEX
8
CUT
10
34.428
20
48.8978
0
VERTEX
8
CUT
10
29.228
20
48.8978
0
VERTEX
8
CUT
10
26.628
20
52.5005
0
VERTEX
8
CUT
10
29.228
20
56.1032
0
VERTEX
8
CUT
10
34.428
20
56.1032
0
VERTEX
8
CUT
10
37.028
20
52.5005
0
SEQEND
0
POLYLINE
8
CUT
66
1
70
0
0
VERTEX
8
CUT
10
37.9502
20
51.2842
0
VERTEX
8
CUT
10
35.328
20
47.6508
0
VERTEX
8
CUT
10
30.0836
20
47.6508
0
SEQEND
0
POLYLINE
8
CUT
66
1
70
0
0
VERTEX
8
CUT
10
27.4502
20
48.8671
0
VERTEX
8
CUT
10
24.828
20
52.5005
0
VERTEX
8
CUT
10
27.4502
20
56.1339
0
SEQEND
0
POLYLINE
8
CUT
66
1
70
0
0
VERTEX
8
CUT
10
29.828
20
57.3503
0
VERTEX
8
CUT
10
35.328
20
57.3503
0
VERTEX
8
CUT
10
38.078
20
53.5397
0
SEQEND
0
POLYLINE
8
CUT
66
1
70
0
0
VERTEX
8
CUT
10
37.028
20
40.601
0
VERTEX
8
CUT
10
34.428
20
36.9984
0
VERTEX
8
CUT
10
29.228
20
36.9984
0
VERTEX
8
CUT
10
26.628
20
40.601
0
VERTEX
8
CUT
10
29.228
20
44.2037
0
VERTEX
8
CUT
10
34.428
20
44.2037
0
VERTEX
8
CUT
10
37.028
20
40.601
0
SEQEND
0
POLYLINE
8
CUT
66
1
70
0
0
VERTEX
8
CUT
10
37.9502
20
39.3847
0
VERTEX
8
CUT
10
35.328
20
35.7513
0
VERTEX
8
CUT
10
30.0836
20
35.7513
0
SEQEND
0
POLYLINE
8
CUT
66
1
70
0
0
VERTEX
8
CUT
10
27.4502
20
36.9676
0
VERTEX
8
CUT
10
24.828
20
40.601
0
VERTEX
8
CUT
10
27.4502
20
44.2344
0
SEQEND
0
POLYLINE
8
CUT
66
1
70
0
0
VERTEX
8
CUT
10
29.828
20
45.4508
0
VERTEX
8
CUT
10
35.328
20
45.4508
0
VERTEX
8
CUT
10
38.078
20
41.6403
0
SEQEND
0
POLYLINE
8
CUT
66
1
70
0
0
VERTEX
8
CUT
10
37.028
20
28.7015
0
VERTEX
8
CUT
10
34.428
20
25.0989
0
VERTEX
8
CUT
10
29.228
20
25.0989
0
VERTEX
8
CUT
10
26.628
20
28.7015
0
VERTEX
8
CUT
10
29.228
20
32.3042
0
VERTEX
8
CUT
10
34.428
20
32.3042
0
VERTEX
8
CUT
10
37.028
20
28.7015
0
SEQEND
0
POLYLINE
8
CUT
66
1
70
0
0
VERTEX
8
CUT
10
37.9502
20
27.4852
0
VERTEX
8
CUT
10
35.328
20
23.8518
0
VERTEX
8
CUT
10
30.0836
20
23.8518
0
SEQEND
0
POLYLINE
8
CUT
66
1
70
0
0
VERTEX
8
CUT
10
27.4502
20
25.0681
0
VERTEX
8
CUT
10
24.828
20
28.7015
0
VERTEX
8
CUT
10
27.4502
20
32.335
0
SEQEND
0
POLYLINE
8
CUT
66
1
70
0
0
VERTEX
8
CUT
10
29.828
20
33.5513
0
VERTEX
8
CUT
10
35.328
20
33.5513
0
VERTEX
8
CUT
10
38.078
20
29.7408
0
SEQEND
0
POLYLINE
8
CUT
66
1
70
0
0
VERTEX
8
CUT
10
37.028
20
16.8021
0
VERTEX
8
CUT
10
34.428
20
13.1994
0
VERTEX
8
CUT
10
29.228
20
13.1994
0
VERTEX
8
CUT
10
26.628
20
16.8021
0
VERTEX
8
CUT
10
29.228
20
20.4047
0
VERTEX
8
CUT
10
34.428
20
20.4047
0
VERTEX
8
CUT
10
37.028
20
16.8021
0
SEQEND
0
POLYLINE
8
CUT
66
1
70
0
0
VERTEX
8
CUT
10
37.9502
20
15.5857
0
VERTEX
8
CUT
10
35.328
20
11.9523
0
VERTEX
8
CUT
10
30.0836
20
11.9523
0
SEQEND
0
POLYLINE
8
CUT
66
1
70
0
0
VERTEX
8
CUT
10
27.4502
20
13.1686
0
VERTEX
8
CUT
10
24.828
20
16.8021
0
VERTEX
8
CUT
10
27.4502
20
20.4355
0
SEQEND
0
POLYLINE
8
CUT
66
1
70
0
0
VERTEX
8
CUT
10
29.828
20
21.6518
0
VERTEX
8
CUT
10
35.328
20
21.6518
0
VERTEX
8
CUT
10
38.078
20
17.8413
0
SEQEND
0
POLYLINE
8
CUT
66
1
70
0
0
VERTEX
8
CUT
10
37.028
20
4.9026
0
VERTEX
8
CUT
10
34.428
20
1.2999
0
VERTEX
8
CUT
10
29.228
20
1.2999
0
VERTEX
8
CUT
10
26.628
20
4.9026
0
VERTEX
8
CUT
10
29.228
20
8.5052
0
VERTEX
8
CUT
10
34.428
20
8.5052
0
VERTEX
8
CUT
10
37.028
20
4.9026
0
SEQEND
0
POLYLINE
8
CUT
66
1
70
0
0
VERTEX
8
CUT
10
37.9502
20
3.6863
0
VERTEX
8
CUT
10
35.328
20
0.0528
0
VERTEX
8
CUT
10
30.0836
20
0.0528
0
SEQEND
0
POLYLINE
8
CUT
66
1
70
0
0
VERTEX
8
CUT
10
27.4502
20
1.2692
0
VERTEX
8
CUT
10
24.828
20
4.9026
0
VERTEX
8
CUT
10
27.4502
20
8.536
0
SEQEND
0
POLYLINE
8
CUT
66
1
70
0
0
VERTEX
8
CUT
10
29.828
20
9.7523
0
VERTEX
8
CUT
10
35.328
20
9.7523
0
VERTEX
8
CUT
10
38.078
20
5.9418
0
SEQEND
0
POLYLINE
8
CUT
66
1
70
0
0
VERTEX
8
CUT
10
49.1896
20
70
0
VERTEX
8
CUT
10
46.842
20
66.7471
0
VERTEX
8
CUT
10
41.642
20
66.7471
0
VERTEX
8
CUT
10
39.2944
20
70
0
SEQEND
0
POLYLINE
8
CUT
66
1
70
0
0
VERTEX
8
CUT
10
50.3642
20
69.1334
0
VERTEX
8
CUT
10
47.742
20
65.5
0
VERTEX
8
CUT
10
42.4976
20
65.5
0
SEQEND
0
LINE
8
CUT
10
39.8642
20
66.7163
11
37.4944
21
70
0
POLYLINE
8
CUT
66
1
70
0
0
VERTEX
8
CUT
10
49.442
20
58.4503
0
VERTEX
8
CUT
10
46.842
20
54.8476
0
VERTEX
8
CUT
10
41.642
20
54.8476
0
VERTEX
8
CUT
10
39.042
20
58.4503
0
VERTEX
8
CUT
10
41.642
20
62.0529
0
VERTEX
8
CUT
10
46.842
20
62.0529
0
VERTEX
8
CUT
10
49.442
20
58.4503
0
SEQEND
0
POLYLINE
8
CUT
66
1
70
0
0
VERTEX
8
CUT
10
50.3642
20
57.2339
0
VERTEX
8
CUT
10
47.742
20
53.6005
0
VERTEX
8
CUT
10
42.4976
20
53.6005
0
SEQEND
0
POLYLINE
8
CUT
66
1
70
0
0
VERTEX
8
CUT
10
39.8642
20
54.8168
0
VERTEX
8
CUT
10
37.242
20
58.4503
0
VERTEX
8
CUT
10
39.8642
20
62.0837
0
SEQEND
0
POLYLINE
8
CUT
66
1
70
0
0
VERTEX
8
CUT
10
42.242
20
63.3
0
VERTEX
8
CUT
10
47.742
20
63.3
0
VERTEX
8
CUT
10
50.492
20
59.4895
0
SEQEND
0
POLYLINE
8
CUT
66
1
70
0
0
VERTEX
8
CUT
10
49.442
20
46.5508
0
VERTEX
8
CUT
10
46.842
20
42.9481
0
VERTEX
8
CUT
10
41.642
20
42.9481
0
VERTEX
8
CUT
10
39.042
20
46.5508
0
VERTEX
8
CUT
10
41.642
20
50.1534
0
VERTEX
8
CUT
10
46.842
20
50.1534
0
VERTEX
8
CUT
10
49.442
20
46.5508
0
SEQEND
0
POLYLINE
8
CUT
66
1
70
0
0
VERTEX
8
CUT
10
50.3642
20
45.3344
0
VERTEX
8
CUT
10
47.742
20
41.701
0
VERTEX
8
CUT
10
42.4976
20
41.701
0
SEQEND
0
POLYLINE
8
CUT
66
1
70
0
0
VERTEX
8
CUT
10
39.8642
20
42.9174
0
VERTEX
8
CUT
10
37.242
20
46.5508
0
VERTEX
8
CUT
10
39.8642
20
50.1842
0
SEQEND
0
POLYLINE
8
CUT
66
1
70
0
0
VERTEX
8
CUT
10
42.242
20
51.4005
0
VERTEX
8
CUT
10
47.742
20
51.4005
0
VERTEX
8
CUT
10
50.492
20
47.59
0
SEQEND
0
POLYLINE
8
CUT
66
1
70
0
0
VERTEX
8
CUT
10
49.442
20
34.6513
0
VERTEX
8
CUT
10
46.842
20
31.0486
0
VERTEX
8
CUT
10
41.642
20
31.0486
0
VERTEX
8
CUT
10
39.042
20
34.6513
0
VERTEX
8
CUT
10
41.642
20
38.254
0
VERTEX
8
CUT
10
46.842
20
38.254
0
VERTEX
8
CUT
10
49.442
20
34.6513
0
SEQEND
0
POLYLINE
8
CUT
66
1
70
0
0
VERTEX
8
CUT
10
50.3642
20
33.435
0
VERTEX
8
CUT
10
47.742
20
29.8015
0
VERTEX
8
CUT
10
42.4976
20
29.8015
0
SEQEND
0
POLYLINE
8
CUT
66
1
70
0
0
VERTEX
8
CUT
10
39.8642
20
31.0179
0
VERTEX
8
CUT
10
37.242
20
34.6513
0
VERTEX
8
CUT
10
39.8642
20
38.2847
0
SEQEND
0
POLYLINE
8
CUT
66
1
70
0
0
VERTEX
8
CUT
10
42.242
20
39.501
0
VERTEX
8
CUT
10
47.742
20
39.501
0
VERTEX
8
CUT
10
50.492
20
35.6905
0
SEQEND
0
POLYLINE
8
CUT
66
1
70
0
0
VERTEX
8
CUT
10
49.442
20
22.7518
0
VERTEX
8
CUT
10
46.842
20
19.1491
0
VERTEX
8
CUT
10
41.642
20
19.1491
0
VERTEX
8
CUT
10
39.042
20
22.7518
0
VERTEX
8
CUT
10
41.642
20
26.3545
0
VERTEX
8
CUT
10
46.842
20
26.3545
0
VERTEX
8
CUT
10
49.442
20
22.7518
0
SEQEND
0
POLYLINE
8
CUT
66
1
70
0
0
VERTEX
8
CUT
10
50.3642
20
21.5355
0
VERTEX
8
CUT
10
47.742
20
17.9021
0
VERTEX
8
CUT
10
42.4976
20
17.9021
0
SEQEND
0
POLYLINE
8
CUT
66
1
70
0
0
VERTEX
8
CUT
10
39.8642
20
19.1184
0
VERTEX
8
CUT
10
37.242
20
22.7518
0
VERTEX
8
CUT
10
39.8642
20
26.3852
0
SEQEND
0
POLYLINE
8
CUT
66
1
70
0
0
VERTEX
8
CUT
10
42.242
20
27.6015
0
VERTEX
8
CUT
10
47.742
20
27.6015
0
VERTEX
8
CUT
10
50.492
20
23.791
0
SEQEND
0
POLYLINE
8
CUT
66
1
70
0
0
VERTEX
8
CUT
10
49.442
20
10.8523
0
VERTEX
8
CUT
10
46.842
20
7.2497
0
VERTEX
8
CUT
10
41.642
20
7.2497
0
VERTEX
8
CUT
10
39.042
20
10.8523
0
VERTEX
8
CUT
10
41.642
20
14.455
0
VERTEX
8
CUT
10
46.842
20
14.455
0
VERTEX
8
CUT
10
49.442
20
10.8523
0
SEQEND
0
POLYLINE
8
CUT
66
1
70
0
0
VERTEX
8
CUT
10
50.3642
20
9.636
0
VERTEX
8
CUT
10
47.742
20
6.0026
0
VERTEX
8
CUT
10
42.4976
20
6.0026
0
SEQEND
0
POLYLINE
8
CUT
66
1
70
0
0
VERTEX
8
CUT
10
39.8642
20
7.2189
0
VERTEX
8
CUT
10
37.242
20
10.8523
0
VERTEX
8
CUT
10
39.8642
20
14.4857
0
SEQEND
0
POLYLINE
8
CUT
66
1
70
0
0
VERTEX
8
CUT
10
42.242
20
15.7021
0
VERTEX
8
CUT
10
47.742
20
15.7021
0
VERTEX
8
CUT
10
50.492
20
11.8916
0
SEQEND
0
POLYLINE
8
CUT
66
1
70
0
0
VERTEX
8
CUT
10
39.7977
20
0
0
VERTEX
8
CUT
10
41.642
20
2.5555
0
VERTEX
8
CUT
10
46.842
20
2.5555
0
VERTEX
8
CUT
10
48.6863
20
0
0
SEQEND
0
LINE
8
CUT
10
37.9977
20
0
11
39.8642
21
2.5863
0
POLYLINE
8
CUT
66
1
70
0
0
VERTEX
8
CUT
10
42.242
20
3.8026
0
VERTEX
8
CUT
10
47.742
20
3.8026
0
VERTEX
8
CUT
10
50.4863
20
0
0
SEQEND
0
POLYLINE
8
CUT
66
1
70
0
0
VERTEX
8
CUT
10
61.856
20
64.4
0
VERTEX
8
CUT
10
59.256
20
60.7973
0
VERTEX
8
CUT
10
54.056
20
60.7973
0
VERTEX
8
CUT
10
51.456
20
64.4
0
VERTEX
8
CUT
10
54.056
20
68.0027
0
VERTEX
8
CUT
10
59.256
20
68.0027
0
VERTEX
8
CUT
10
61.856
20
64.4
0
SEQEND
0
POLYLINE
8
CUT
66
1
70
0
0
VERTEX
8
CUT
10
62.7782
20
63.1837
0
VERTEX
8
CUT
10
60.156
20
59.5503
0
VERTEX
8
CUT
10
54.9116
20
59.5503
0
SEQEND
0
POLYLINE
8
CUT
66
1
70
0
0
VERTEX
8
CUT
10
52.2782
20
60.7666
0
VERTEX
8
CUT
10
49.656
20
64.4
0
VERTEX
8
CUT
10
52.2782
20
68.0334
0
SEQEND
0
POLYLINE
8
CUT
66
1
70
0
0
VERTEX
8
CUT
10
54.656
20
69.2497
0
VERTEX
8
CUT
10
60.156
20
69.2497
0
VERTEX
8
CUT
10
62.906
20
65.4392
0
SEQEND
0
POLYLINE
8
CUT
66
1
70
0
0
VERTEX
8
CUT
10
61.856
20
52.5005
0
VERTEX
8
CUT
10
59.256
20
48.8978
0
VERTEX
8
CUT
10
54.056
20
48.8978
0
VERTEX
8
CUT
10
51.456
20
52.5005
0
VERTEX
8
CUT
10
54.056
20
56.1032
0
VERTEX
8
CUT
10
59.256
20
56.1032
0
VERTEX
8
CUT
10
61.856
20
52.5005
0
SEQEND
0
POLYLINE
8
CUT
66
1
70
0
0
VERTEX
8
CUT
10
62.7782
20
51.2842
0
VERTEX
8
CUT
10
60.156
20
47.6508
0
VERTEX
8
CUT
10
54.9116
20
47.6508
0
SEQEND
0
POLYLINE
8
CUT
66
1
70
0
0
VERTEX
8
CUT
10
52.2782
20
48.8671
0
VERTEX
8
CUT
10
49.656
20
52.5005
0
VERTEX
8
CUT
10
52.2782
20
56.1339
0
SEQEND
0
POLYLINE
8
CUT
66
1
70
0
0
VERTEX
8
CUT
10
54.656
20
57.3503
0
VERTEX
8
CUT
10
60.156
20
57.3503
0
VERTEX
8
CUT
10
62.906
20
53.5397
0
SEQEND
0
POLYLINE
8
CUT
66
1
70
0
0
VERTEX
8
CUT
10
61.856
20
40.601
0
VERTEX
8
CUT
10
59.256
20
36.9984
0
VERTEX
8
CUT
10
54.056
20
36.9984
0
VERTEX
8
CUT
10
51.456
20
40.601
0
VERTEX
8
CUT
10
54.056
20
44.2037
0
VERTEX
8
CUT
10
59.256
20
44.2037
0
VERTEX
8
CUT
10
61.856
20
40.601
0
SEQEND
0
POLYLINE
8
CUT
66
1
70
0
0
VERTEX
8
CUT
10
62.7782
20
39.3847
0
VERTEX
8
CUT
10
60.156
20
35.7513
0
VERTEX
8
CUT
10
54.9116
20
35.7513
0
SEQEND
0
POLYLINE
8
CUT
66
1
70
0
0
VERTEX
8
CUT
10
52.2782
20
36.9676
0
VERTEX
8
CUT
10
49.656
20
40.601
0
VERTEX
8
CUT
10
52.2782
20
44.2344
0
SEQEND
0
POLYLINE
8
CUT
66
1
70
0
0
VERTEX
8
CUT
10
54.656
20
45.4508
0
VERTEX
8
CUT
10
60.156
20
45.4508
0
VERTEX
8
CUT
10
62.906
20
41.6403
0
SEQEND
0
POLYLINE
8
CUT
66
1
70
0
0
VERTEX
8
CUT
10
61.856
20
28.7015
0
VERTEX
8
CUT
10
59.256
20
25.0989
0
VERTEX
8
CUT
10
54.056
20
25.0989
0
VERTEX
8
CUT
10
51.456
20
28.7015
0
VERTEX
8
CUT
10
54.056
20
32.3042
0
VERTEX
8
CUT
10
59.256
20
32.3042
0
VERTEX
8
CUT
10
61.856
20
28.7015
0
SEQEND
0
POLYLINE
8
CUT
66
1
70
0
0
VERTEX
8
CUT
10
62.7782
20
27.4852
0
VERTEX
8
CUT
10
60.156
20
23.8518
0
VERTEX
8
CUT
10
54.9116
20
23.8518
0
SEQEND
0
POLYLINE
8
CUT
66
1
70
0
0
VERTEX
8
CUT
10
52.2782
20
25.0681
0
VERTEX
8
CUT
10
49.656
20
28.7015
0
VERTEX
8
CUT
10
52.2782
20
32.335
0
SEQEND
0
POLYLINE
8
CUT
66
1
70
0
0
VERTEX
8
CUT
10
54.656
20
33.5513
0
VERTEX
8
CUT
10
60.156
20
33.5513
0
VERTEX
8
CUT
10
62.906
20
29.7408
0
SEQEND
0
POLYLINE
8
CUT
66
1
70
0
0
VERTEX
8
CUT
10
61.856
20
16.8021
0
VERTEX
8
CUT
10
59.256
20
13.1994
0
VERTEX
8
CUT
10
54.056
20
13.1994
0
VERTEX
8
CUT
10
51.456
20
16.8021
0
VERTEX
8
CUT
10
54.056
20
20.4047
0
VERTEX
8
CUT
10
59.256
20
20.4047
0
VERTEX
8
CUT
10
61.856
20
16.8021
0
SEQEND
0
POLYLINE
8
CUT
66
1
70
0
0
VERTEX
8
CUT
10
62.7782
20
15.5857
0
VERTEX
8
CUT
10
60.156
20
11.9523
0
VERTEX
8
CUT
10
54.9116
20
11.9523
0
SEQEND
0
POLYLINE
8
CUT
66
1
70
0
0
VERTEX
8
CUT
10
52.2782
20
13.1686
0
VERTEX
8
CUT
10
49.656
20
16.8021
0
VERTEX
8
CUT
10
52.2782
20
20.4355
0
SEQEND
0
POLYLINE
8
CUT
66
1
70
0
0
VERTEX
8
CUT
10
54.656
20
21.6518
0
VERTEX
8
CUT
10
60.156
20
21.6518
0
VERTEX
8
CUT
10
62.906
20
17.8413
0
SEQEND
0
POLYLINE
8
CUT
66
1
70
0
0
VERTEX
8
CUT
10
61.856
20
4.9026
0
VERTEX
8
CUT
10
59.256
20
1.2999
0
VERTEX
8
CUT
10
54.056
20
1.2999
0
VERTEX
8
CUT
10
51.456
20
4.9026
0
VERTEX
8
CUT
10
54.056
20
8.5052
0
VERTEX
8
CUT
10
59.256
20
8.5052
0
VERTEX
8
CUT
10
61.856
20
4.9026
0
SEQEND
0
POLYLINE
8
CUT
66
1
70
0
0
VERTEX
8
CUT
10
62.7782
20
3.6863
0
VERTEX
8
CUT
10
60.156
20
0.0528
0
VERTEX
8
CUT
10
54.9116
20
0.0528
0
SEQEND
0
POLYLINE
8
CUT
66
1
70
0
0
VERTEX
8
CUT
10
52.2782
20
1.2692
0
VERTEX
8
CUT
10
49.656
20
4.9026
0
VERTEX
8
CUT
10
52.2782
20
8.536
0
SEQEND
0
POLYLINE
8
CUT
66
1
70
0
0
VERTEX
8
CUT
10
54.656
20
9.7523
0
VERTEX
8
CUT
10
60.156
20
9.7523
0
VERTEX
8
CUT
10
62.906
20
5.9418
0
SEQEND
0
POLYLINE
8
CUT
66
1
70
0
0
VERTEX
8
CUT
10
74.0176
20
70
0
VERTEX
8
CUT
10
71.67
20
66.7471
0
VERTEX
8
CUT
10
66.47
20
66.7471
0
VERTEX
8
CUT
10
64.1224
20
70
0
SEQEND
0
POLYLINE
8
CUT
66
1
70
0
0
VERTEX
8
CUT
10
75.1922
20
69.1334
0
VERTEX
8
CUT
10
72.57
20
65.5
0
VERTEX
8
CUT
10
67.3256
20
65.5
0
SEQEND
0
LINE
8
CUT
10
64.6922
20
66.7163
11
62.3224
21
70
0
POLYLINE
8
CUT
66
1
70
0
0
VERTEX
8
CUT
10
74.27
20
58.4503
0
VERTEX
8
CUT
10
71.67
20
54.8476
0
VERTEX
8
CUT
10
66.47
20
54.8476
0
VERTEX
8
CUT
10
63.87
20
58.4503
0
VERTEX
8
CUT
10
66.47
20
62.0529
0
VERTEX
8
CUT
10
71.67
20
62.0529
0
VERTEX
8
CUT
10
74.27
20
58.4503
0
SEQEND
0
POLYLINE
8
CUT
66
1
70
0
0
VERTEX
8
CUT
10
75.1922
20
57.2339
0
VERTEX
8
CUT
10
72.57
20
53.6005
0
VERTEX
8
CUT
10
67.3256
20
53.6005
0
SEQEND
0
POLYLINE
8
CUT
66
1
70
0
0
VERTEX
8
CUT
10
64.6922
20
54.8168
0
VERTEX
8
CUT
10
62.07
20
58.4503
0
VERTEX
8
CUT
10
64.6922
20
62.0837
0
SEQEND
0
POLYLINE
8
CUT
66
1
70
0
0
VERTEX
8
CUT
10
67.07
20
63.3
0
VERTEX
8
CUT
10
72.57
20
63.3
0
VERTEX
8
CUT
10
75.32
20
59.4895
0
SEQEND
0
POLYLINE
8
CUT
66
1
70
0
0
VERTEX
8
CUT
10
74.27
20
46.5508
0
VERTEX
8
CUT
10
71.67
20
42.9481
0
VERTEX
8
CUT
10
66.47
20
42.9481
0
VERTEX
8
CUT
10
63.87
20
46.5508
0
VERTEX
8
CUT
10
66.47
20
50.1534
0
VERTEX
8
CUT
10
71.67
20
50.1534
0
VERTEX
8
CUT
10
74.27
20
46.5508
0
SEQEND
0
POLYLINE
8
CUT
66
1
70
0
0
VERTEX
8
CUT
10
75.1922
20
45.3344
0
VERTEX
8
CUT
10
72.57
20
41.701
0
VERTEX
8
CUT
10
67.3256
20
41.701
0
SEQEND
0
POLYLINE
8
CUT
66
1
70
0
0
VERTEX
8
CUT
10
64.6922
20
42.9174
0
VERTEX
8
CUT
10
62.07
20
46.5508
0
VERTEX
8
CUT
10
64.6922
20
50.1842
0
SEQEND
0
POLYLINE
8
CUT
66
1
70
0
0
VERTEX
8
CUT
10
67.07
20
51.4005
0
VERTEX
8
CUT
10
72.57
20
51.4005
0
VERTEX
8
CUT
10
75.32
20
47.59
0
SEQEND
0
POLYLINE
8
CUT
66
1
70
0
0
VERTEX
8
CUT
10
74.27
20
34.6513
0
VERTEX
8
CUT
10
71.67
20
31.0486
0
VERTEX
8
CUT
10
66.47
20
31.0486
0
VERTEX
8
CUT
10
63.87
20
34.6513
0
VERTEX
8
CUT
10
66.47
20
38.254
0
VERTEX
8
CUT
10
71.67
20
38.254
0
VERTEX
8
CUT
10
74.27
20
34.6513
0
SEQEND
0
POLYLINE
8
CUT
66
1
70
0
0
VERTEX
8
CUT
10
75.1922
20
33.435
0
VERTEX
8
CUT
10
72.57
20
29.8015
0
VERTEX
8
CUT
10
67.3256
20
29.8015
0
SEQEND
0
POLYLINE
8
CUT
66
1
70
0
0
VERTEX
8
CUT
10
64.6922
20
31.0179
0
VERTEX
8
CUT
10
62.07
20
34.6513
0
VERTEX
8
CUT
10
64.6922
20
38.2847
0
SEQEND
0
POLYLINE
8
CUT
66
1
70
0
0
VERTEX
8
CUT
10
67.07
20
39.501
0
VERTEX
8
CUT
10
72.57
20
39.501
0
VERTEX
8
CUT
10
75.32
20
35.6905
0
SEQEND
0
POLYLINE
8
CUT
66
1
70
0
0
VERTEX
8
CUT
10
74.27
20
22.7518
0
VERTEX
8
CUT
10
71.67
20
19.1491
0
VERTEX
8
CUT
10
66.47
20
19.1491
0
VERTEX
8
CUT
10
63.87
20
22.7518
0
VERTEX
8
CUT
10
66.47
20
26.3545
0
VERTEX
8
CUT
10
71.67
20
26.3545
0
VERTEX
8
CUT
10
74.27
20
22.7518
0
SEQEND
0
POLYLINE
8
CUT
66
1
70
0
0
VERTEX
8
CUT
10
75.1922
20
21.5355
0
VERTEX
8
CUT
10
72.57
20
17.9021
0
VERTEX
8
CUT
10
67.3256
20
17.9021
0
SEQEND
0
POLYLINE
8
CUT
66
1
70
0
0
VERTEX
8
CUT
10
64.6922
20
19.1184
0
VERTEX
8
CUT
10
62.07
20
22.7518
0
VERTEX
8
CUT
10
64.6922
20
26.3852
0
SEQEND
0
POLYLINE
8
CUT
66
1
70
0
0
VERTEX
8
CUT
10
67.07
20
27.6015
0
VERTEX
8
CUT
10
72.57
20
27.6015
0
VERTEX
8
CUT
10
75.32
20
23.791
0
SEQEND
0
POLYLINE
8
CUT
66
1
70
0
0
VERTEX
8
CUT
10
74.27
20
10.8523
0
VERTEX
8
CUT
10
71.67
20
7.2497
0
VERTEX
8
CUT
10
66.47
20
7.2497
0
VERTEX
8
CUT
10
63.87
20
10.8523
0
VERTEX
8
CUT
10
66.47
20
14.455
0
VERTEX
8
CUT
10
71.67
20
14.455
0
VERTEX
8
CUT
10
74.27
20
10.8523
0
SEQEND
0
POLYLINE
8
CUT
66
1
70
0
0
VERTEX
8
CUT
10
75.1922
20
9.636
0
VERTEX
8
CUT
10
72.57
20
6.0026
0
VERTEX
8
CUT
10
67.3256
20
6.0026
0
SEQEND
0
POLYLINE
8
CUT
66
1
70
0
0
VERTEX
8
CUT
10
64.6922
20
7.2189
0
VERTEX
8
CUT
10
62.07
20
10.8523
0
VERTEX
8
CUT
10
64.6922
20
14.4857
0
SEQEND
0
POLYLINE
8
CUT
66
1
70
0
0
VERTEX
8
CUT
10
67.07
20
15.7021
0
VERTEX
8
CUT
10
72.57
20
15.7021
0
VERTEX
8
CUT
10
75.32
20
11.8916
0
SEQEND
0
POLYLINE
8
CUT
66
1
70
0
0
VERTEX
8
CUT
10
64.6257
20
0
0
VERTEX
8
CUT
10
66.47
20
2.5555
0
VERTEX
8
CUT
10
71.67
20
2.5555
0
VERTEX
8
CUT
10
73.5143
20
0
0
SEQEND
0
LINE
8
CUT
10
62.8257
20
0
11
64.6922
21
2.5863
0
POLYLINE
8
CUT
66
1
70
0
0
VERTEX
8
CUT
10
67.07
20
3.8026
0
VERTEX
8
CUT
10
72.57
20
3.8026
0
VERTEX
8
CUT
10
75.3143
20
0
0
SEQEND
0
POLYLINE
8
CUT
66
1
70
0
0
VERTEX
8
CUT
10
86.684
20
64.4
0
VERTEX
8
CUT
10
84.084
20
60.7973
0
VERTEX
8
CUT
10
78.884
20
60.7973
0
VERTEX
8
CUT
10
76.284
20
64.4
0
VERTEX
8
CUT
10
78.884
20
68.0027
0
VERTEX
8
CUT
10
84.084
20
68.0027
0
VERTEX
8
CUT
10
86.684
20
64.4
0
SEQEND
0
POLYLINE
8
CUT
66
1
70
0
0
VERTEX
8
CUT
10
87.6062
20
63.1837
0
VERTEX
8
CUT
10
84.984
20
59.5503
0
VERTEX
8
CUT
10
79.7396
20
59.5503
0
SEQEND
0
POLYLINE
8
CUT
66
1
70
0
0
VERTEX
8
CUT
10
77.1062
20
60.7666
0
VERTEX
8
CUT
10
74.484
20
64.4
0
VERTEX
8
CUT
10
77.1062
20
68.0334
0
SEQEND
0
POLYLINE
8
CUT
66
1
70
0
0
VERTEX
8
CUT
10
79.484
20
69.2497
0
VERTEX
8
CUT
10
84.984
20
69.2497
0
VERTEX
8
CUT
10
87.734
20
65.4392
0
SEQEND
0
POLYLINE
8
CUT
66
1
70
0
0
VERTEX
8
CUT
10
86.684
20
52.5005
0
VERTEX
8
CUT
10
84.084
20
48.8978
0
VERTEX
8
CUT
10
78.884
20
48.8978
0
VERTEX
8
CUT
10
76.284
20
52.5005
0
VERTEX
8
CUT
10
78.884
20
56.1032
0
VERTEX
8
CUT
10
84.084
20
56.1032
0
VERTEX
8
CUT
10
86.684
20
52.5005
0
SEQEND
0
POLYLINE
8
CUT
66
1
70
0
0
VERTEX
8
CUT
10
87.6062
20
51.2842
0
VERTEX
8
CUT
10
84.984
20
47.6508
0
VERTEX
8
CUT
10
79.7396
20
47.6508
0
SEQEND
0
POLYLINE
8
CUT
66
1
70
0
0
VERTEX
8
CUT
10
77.1062
20
48.8671
0
VERTEX
8
CUT
10
74.484
20
52.5005
0
VERTEX
8
CUT
10
77.1062
20
56.1339
0
SEQEND
0
POLYLINE
8
CUT
66
1
70
0
0
VERTEX
8
CUT
10
79.484
20
57.3503
0
VERTEX
8
CUT
10
84.984
20
57.3503
0
VERTEX
8
CUT
10
87.734
20
53.5397
0
SEQEND
0
POLYLINE
8
CUT
66
1
70
0
0
VERTEX
8
CUT
10
86.684
20
40.601
0
VERTEX
8
CUT
10
84.084
20
36.9984
0
VERTEX
8
CUT
10
78.884
20
36.9984
0
VERTEX
8
CUT
10
76.284
20
40.601
0
VERTEX
8
CUT
10
78.884
20
44.2037
0
VERTEX
8
CUT
10
84.084
20
44.2037
0
VERTEX
8
CUT
10
86.684
20
40.601
0
SEQEND
0
POLYLINE
8
CUT
66
1
70
0
0
VERTEX
8
CUT
10
87.6062
20
39.3847
0
VERTEX
8
CUT
10
84.984
20
35.7513
0
VERTEX
8
CUT
10
79.7396
20
35.7513
0
SEQEND
0
POLYLINE
8
CUT
66
1
70
0
0
VERTEX
8
CUT
10
77.1062
20
36.9676
0
VERTEX
8
CUT
10
74.484
20
40.601
0
VERTEX
8
CUT
10
77.1062
20
44.2344
0
SEQEND
0
POLYLINE
8
CUT
66
1
70
0
0
VERTEX
8
CUT
10
79.484
20
45.4508
0
VERTEX
8
CUT
10
84.984
20
45.4508
0
VERTEX
8
CUT
10
87.734
20
41.6403
0
SEQEND
0
POLYLINE
8
CUT
66
1
70
0
0
VERTEX
8
CUT
10
86.684
20
28.7015
0
VERTEX
8
CUT
10
84.084
20
25.0989
0
VERTEX
8
CUT
10
78.884
20
25.0989
0
VERTEX
8
CUT
10
76.284
20
28.7015
0
VERTEX
8
CUT
10
78.884
20
32.3042
0
VERTEX
8
CUT
10
84.084
20
32.3042
0
VERTEX
8
CUT
10
86.684
20
28.7015
0
SEQEND
0
POLYLINE
8
CUT
66
1
70
0
0
VERTEX
8
CUT
10
87.6062
20
27.4852
0
VERTEX
8
CUT
10
84.984
20
23.8518
0
VERTEX
8
CUT
10
79.7396
20
23.8518
0
SEQEND
0
POLYLINE
8
CUT
66
1
70
0
0
VERTEX
8
CUT
10
77.1062
20
25.0681
0
VERTEX
8
CUT
10
74.484
20
28.7015
0
VERTEX
8
CUT
10
77.1062
20
32.335
0
SEQEND
0
POLYLINE
8
CUT
66
1
70
0
0
VERTEX
8
CUT
10
79.484
20
33.5513
0
VERTEX
8
CUT
10
84.984
20
33.5513
0
VERTEX
8
CUT
10
87.734
20
29.7408
0
SEQEND
0
POLYLINE
8
CUT
66
1
70
0
0
VERTEX
8
CUT
10
86.684
20
16.8021
0
VERTEX
8
CUT
10
84.084
20
13.1994
0
VERTEX
8
CUT
10
78.884
20
13.1994
0
VERTEX
8
CUT
10
76.284
20
16.8021
0
VERTEX
8
CUT
10
78.884
20
20.4047
0
VERTEX
8
CUT
10
84.084
20
20.4047
0
VERTEX
8
CUT
10
86.684
20
16.8021
0
SEQEND
0
POLYLINE
8
CUT
66
1
70
0
0
VERTEX
8
CUT
10
87.6062
20
15.5857
0
VERTEX
8
CUT
10
84.984
20
11.9523
0
VERTEX
8
CUT
10
79.7396
20
11.9523
0
SEQEND
0
POLYLINE
8
CUT
66
1
70
0
0
VERTEX
8
CUT
10
77.1062
20
13.1686
0
VERTEX
8
CUT
10
74.484
20
16.8021
0
VERTEX
8
CUT
10
77.1062
20
20.4355
0
SEQEND
0
POLYLINE
8
CUT
66
1
70
0
0
VERTEX
8
CUT
10
79.484
20
21.6518
0
VERTEX
8
CUT
10
84.984
20
21.6518
0
VERTEX
8
CUT
10
87.734
20
17.8413
0
SEQEND
0
POLYLINE
8
CUT
66
1
70
0
0
VERTEX
8
CUT
10
86.684
20
4.9026
0
VERTEX
8
CUT
10
84.084
20
1.2999
0
VERTEX
8
CUT
10
78.884
20
1.2999
0
VERTEX
8
CUT
10
76.284
20
4.9026
0
VERTEX
8
CUT
10
78.884
20
8.5052
0
VERTEX
8
CUT
10
84.084
20
8.5052
0
VERTEX
8
CUT
10
86.684
20
4.9026
0
SEQEND
0
POLYLINE
8
CUT
66
1
70
0
0
VERTEX
8
CUT
10
87.6062
20
3.6863
0
VERTEX
8
CUT
10
84.984
20
0.0528
0
VERTEX
8
CUT
10
79.7396
20
0.0528
0
SEQEND
0
POLYLINE
8
CUT
66
1
70
0
0
VERTEX
8
CUT
10
77.1062
20
1.2692
0
VERTEX
8
CUT
10
74.484
20
4.9026
0
VERTEX
8
CUT
10
77.1062
20
8.536
0
SEQEND
0
POLYLINE
8
CUT
66
1
70
0
0
VERTEX
8
CUT
10
79.484
20
9.7523
0
VERTEX
8
CUT
10
84.984
20
9.7523
0
VERTEX
8
CUT
10
87.734
20
5.9418
0
SEQEND
0
POLYLINE
8
CUT
66
1
70
0
0
VERTEX
8
CUT
10
98.8456
20
70
0
VERTEX
8
CUT
10
96.498
20
66.7471
0
VERTEX
8
CUT
10
91.298
20
66.7471
0
VERTEX
8
CUT
10
88.9504
20
70
0
SEQEND
0
POLYLINE
8
CUT
66
1
70
0
0
VERTEX
8
CUT
10
100.0202
20
69.1334
0
VERTEX
8
CUT
10
97.398
20
65.5
0
VERTEX
8
CUT
10
92.1536
20
65.5
0
SEQEND
0
LINE
8
CUT
10
89.5202
20
66.7163
11
87.1504
21
70
0
POLYLINE
8
CUT
66
1
70
0
0
VERTEX
8
CUT
10
99.098
20
58.4503
0
VERTEX
8
CUT
10
96.498
20
54.8476
0
VERTEX
8
CUT
10
91.298
20
54.8476
0
VERTEX
8
CUT
10
88.698
20
58.4503
0
VERTEX
8
CUT
10
91.298
20
62.0529
0
VERTEX
8
CUT
10
96.498
20
62.0529
0
VERTEX
8
CUT
10
99.098
20
58.4503
0
SEQEND
0
POLYLINE
8
CUT
66
1
70
0
0
VERTEX
8
CUT
10
100.0202
20
57.2339
0
VERTEX
8
CUT
10
97.398
20
53.6005
0
VERTEX
8
CUT
10
92.1536
20
53.6005
0
SEQEND
0
POLYLINE
8
CUT
66
1
70
0
0
VERTEX
8
CUT
10
89.5202
20
54.8168
0
VERTEX
8
CUT
10
86.898
20
58.4503
0
VERTEX
8
CUT
10
89.5202
20
62.0837
0
SEQEND
0
POLYLINE
8
CUT
66
1
70
0
0
VERTEX
8
CUT
10
91.898
20
63.3
0
VERTEX
8
CUT
10
97.398
20
63.3
0
VERTEX
8
CUT
10
100.148
20
59.4895
0
SEQEND
0
POLYLINE
8
CUT
66
1
70
0
0
VERTEX
8
CUT
10
99.098
20
46.5508
0
VERTEX
8
CUT
10
96.498
20
42.9481
0
VERTEX
8
CUT
10
91.298
20
42.9481
0
VERTEX
8
CUT
10
88.698
20
46.5508
0
VERTEX
8
CUT
10
91.298
20
50.1534
0
VERTEX
8
CUT
10
96.498
20
50.1534
0
VERTEX
8
CUT
10
99.098
20
46.5508
0
SEQEND
0
POLYLINE
8
CUT
66
1
70
0
0
VERTEX
8
CUT
10
100.0202
20
45.3344
0
VERTEX
8
CUT
10
97.398
20
41.701
0
VERTEX
8
CUT
10
92.1536
20
41.701
0
SEQEND
0
POLYLINE
8
CUT
66
1
70
0
0
VERTEX
8
CUT
10
89.5202
20
42.9174
0
VERTEX
8
CUT
10
86.898
20
46.5508
0
VERTEX
8
CUT
10
89.5202
20
50.1842
0
SEQEND
0
POLYLINE
8
CUT
66
1
70
0
0
VERTEX
8
CUT
10
91.898
20
51.4005
0
VERTEX
8
CUT
10
97.398
20
51.4005
0
VERTEX
8
CUT
10
100.148
20
47.59
0
SEQEND
0
POLYLINE
8
CUT
66
1
70
0
0
VERTEX
8
CUT
10
99.098
20
34.6513
0
VERTEX
8
CUT
10
96.498
20
31.0486
0
VERTEX
8
CUT
10
91.298
20
31.0486
0
VERTEX
8
CUT
10
88.698
20
34.6513
0
VERTEX
8
CUT
10
91.298
20
38.254
0
VERTEX
8
CUT
10
96.498
20
38.254
0
VERTEX
8
CUT
10
99.098
20
34.6513
0
SEQEND
0
POLYLINE
8
CUT
66
1
70
0
0
VERTEX
8
CUT
10
100.0202
20
33.435
0
VERTEX
8
CUT
10
97.398
20
29.8015
0
VERTEX
8
CUT
10
92.1536
20
29.8015
0
SEQEND
0
POLYLINE
8
CUT
66
1
70
0
0
VERTEX
8
CUT
10
89.5202
20
31.0179
0
VERTEX
8
CUT
10
86.898
20
34.6513
0
VERTEX
8
CUT
10
89.5202
20
38.2847
0
SEQEND
0
POLYLINE
8
CUT
66
1
70
0
0
VERTEX
8
CUT
10
91.898
20
39.501
0
VERTEX
8
CUT
10
97.398
20
39.501
0
VERTEX
8
CUT
10
100.148
20
35.6905
0
SEQEND
0
POLYLINE
8
CUT
66
1
70
0
0
VERTEX
8
CUT
10
99.098
20
22.7518
0
VERTEX
8
CUT
10
96.498
20
19.1491
0
VERTEX
8
CUT
10
91.298
20
19.1491
0
VERTEX
8
CUT
10
88.698
20
22.7518
0
VERTEX
8
CUT
10
91.298
20
26.3545
0
VERTEX
8
CUT
10
96.498
20
26.3545
0
VERTEX
8
CUT
10
99.098
20
22.7518
0
SEQEND
0
POLYLINE
8
CUT
66
1
70
0
0
VERTEX
8
CUT
10
100.0202
20
21.5355
0
VERTEX
8
CUT
10
97.398
20
17.9021
0
VERTEX
8
CUT
10
92.1536
20
17.9021
0
SEQEND
0
POLYLINE
8
CUT
66
1
70
0
0
VERTEX
8
CUT
10
89.5202
20
19.1184
0
VERTEX
8
CUT
10
86.898
20
22.7518
0
VERTEX
8
CUT
10
89.5202
20
26.3852
0
SEQEND
0
POLYLINE
8
CUT
66
1
70
0
0
VERTEX
8
CUT
10
91.898
20
27.6015
0
VERTEX
8
CUT
10
97.398
20
27.6015
0
VERTEX
8
CUT
10
100.148
20
23.791
0
SEQEND
0
POLYLINE
8
CUT
66
1
70
0
0
VERTEX
8
CUT
10
99.098
20
10.8523
0
VERTEX
8
CUT
10
96.498
20
7.2497
0
VERTEX
8
CUT
10
91.298
20
7.2497
0
VERTEX
8
CUT
10
88.698
20
10.8523
0
VERTEX
8
CUT
10
91.298
20
14.455
0
VERTEX
8
CUT
10
96.498
20
14.455
0
VERTEX
8
CUT
10
99.098
20
10.8523
0
SEQEND
0
POLYLINE
8
CUT
66
1
70
0
0
VERTEX
8
CUT
10
100.0202
20
9.636
0
VERTEX
8
CUT
10
97.398
20
6.0026
0
VERTEX
8
CUT
10
92.1536
20
6.0026
0
SEQEND
0
POLYLINE
8
CUT
66
1
70
0
0
VERTEX
8
CUT
10
89.5202
20
7.2189
0
VERTEX
8
CUT
10
86.898
20
10.8523
0
VERTEX
8
CUT
10
89.5202
20
14.4857
0
SEQEND
0
POLYLINE
8
CUT
66
1
70
0
0
VERTEX
8
CUT
10
91.898
20
15.7021
0
VERTEX
8
CUT
10
97.398
20
15.7021
0
VERTEX
8
CUT
10
100.148
20
11.8916
0
SEQEND
0
POLYLINE
8
CUT
66
1
70
0
0
VERTEX
8
CUT
10
89.4537
20
0
0
VERTEX
8
CUT
10
91.298
20
2.5555
0
VERTEX
8
CUT
10
96.498
20
2.5555
0
VERTEX
8
CUT
10
98.3423
20
0
0
SEQEND
0
LINE
8
CUT
10
87.6537
20
0
11
89.5202
21
2.5863
0
POLYLINE
8
CUT
66
1
70
0
0
VERTEX
8
CUT
10
91.898
20
3.8026
0
VERTEX
8
CUT
10
97.398
20
3.8026
0
VERTEX
8
CUT
10
100.1423
20
0
0
SEQEND
0
POLYLINE
8
CUT
66
1
70
0
0
VERTEX
8
CUT
10
111.512
20
64.4
0
VERTEX
8
CUT
10
108.912
20
60.7973
0
VERTEX
8
CUT
10
103.712
20
60.7973
0
VERTEX
8
CUT
10
101.112
20
64.4
0
VERTEX
8
CUT
10
103.712
20
68.0027
0
VERTEX
8
CUT
10
108.912
20
68.0027
0
VERTEX
8
CUT
10
111.512
20
64.4
0
SEQEND
0
POLYLINE
8
CUT
66
1
70
0
0
VERTEX
8
CUT
10
112.4342
20
63.1837
0
VERTEX
8
CUT
10
109.812
20
59.5503
0
VERTEX
8
CUT
10
104.5676
20
59.5503
0
SEQEND
0
POLYLINE
8
CUT
66
1
70
0
0
VERTEX
8
CUT
10
101.9342
20
60.7666
0
VERTEX
8
CUT
10
99.312
20
64.4
0
VERTEX
8
CUT
10
101.9342
20
68.0334
0
SEQEND
0
POLYLINE
8
CUT
66
1
70
0
0
VERTEX
8
CUT
10
104.312
20
69.2497
0
VERTEX
8
CUT
10
109.812
20
69.2497
0
VERTEX
8
CUT
10
112.562
20
65.4392
0
SEQEND
0
POLYLINE
8
CUT
66
1
70
0
0
VERTEX
8
CUT
10
111.512
20
52.5005
0
VERTEX
8
CUT
10
108.912
20
48.8978
0
VERTEX
8
CUT
10
103.712
20
48.8978
0
VERTEX
8
CUT
10
101.112
20
52.5005
0
VERTEX
8
CUT
10
103.712
20
56.1032
0
VERTEX
8
CUT
10
108.912
20
56.1032
0
VERTEX
8
CUT
10
111.512
20
52.5005
0
SEQEND
0
POLYLINE
8
CUT
66
1
70
0
0
VERTEX
8
CUT
10
112.4342
20
51.2842
0
VERTEX
8
CUT
10
109.812
20
47.6508
0
VERTEX
8
CUT
10
104.5676
20
47.6508
0
SEQEND
0
POLYLINE
8
CUT
66
1
70
0
0
VERTEX
8
CUT
10
101.9342
20
48.8671
0
VERTEX
8
CUT
10
99.312
20
52.5005
0
VERTEX
8
CUT
10
101.9342
20
56.1339
0
SEQEND
0
POLYLINE
8
CUT
66
1
70
0
0
VERTEX
8
CUT
10
104.312
20
57.3503
0
VERTEX
8
CUT
10
109.812
20
57.3503
0
VERTEX
8
CUT
10
112.562
20
53.5397
0
SEQEND
0
POLYLINE
8
CUT
66
1
70
0
0
VERTEX
8
CUT
10
111.512
20
40.601
0
VERTEX
8
CUT
10
108.912
20
36.9984
0
VERTEX
8
CUT
10
103.712
20
36.9984
0
VERTEX
8
CUT
10
101.112
20
40.601
0
VERTEX
8
CUT
10
103.712
20
44.2037
0
VERTEX
8
CUT
10
108.912
20
44.2037
0
VERTEX
8
CUT
10
111.512
20
40.601
0
SEQEND
0
POLYLINE
8
CUT
66
1
70
0
0
VERTEX
8
CUT
10
112.4342
20
39.3847
0
VERTEX
8
CUT
10
109.812
20
35.7513
0
VERTEX
8
CUT
10
104.5676
20
35.7513
0
SEQEND
0
POLYLINE
8
CUT
66
1
70
0
0
VERTEX
8
CUT
10
101.9342
20
36.9676
0
VERTEX
8
CUT
10
99.312
20
40.601
0
VERTEX
8
CUT
10
101.9342
20
44.2344
0
SEQEND
0
POLYLINE
8
CUT
66
1
70
0
0
VERTEX
8
CUT
10
104.312
20
45.4508
0
VERTEX
8
CUT
10
109.812
20
45.4508
0
VERTEX
8
CUT
10
112.562
20
41.6403
0
SEQEND
0
POLYLINE
8
CUT
66
1
70
0
0
VERTEX
8
CUT
10
111.512
20
28.7015
0
VERTEX
8
CUT
10
108.912
20
25.0989
0
VERTEX
8
CUT
10
103.712
20
25.0989
0
VERTEX
8
CUT
10
101.112
20
28.7015
0
VERTEX
8
CUT
10
103.712
20
32.3042
0
VERTEX
8
CUT
10
108.912
20
32.3042
0
VERTEX
8
CUT
10
111.512
20
28.7015
0
SEQEND
0
POLYLINE
8
CUT
66
1
70
0
0
VERTEX
8
CUT
10
112.4342
20
27.4852
0
VERTEX
8
CUT
10
109.812
20
23.8518
0
VERTEX
8
CUT
10
104.5676
20
23.8518
0
SEQEND
0
POLYLINE
8
CUT
66
1
70
0
0
VERTEX
8
CUT
10
101.9342
20
25.0681
0
VERTEX
8
CUT
10
99.312
20
28.7015
0
VERTEX
8
CUT
10
101.9342
20
32.335
0
SEQEND
0
POLYLINE
8
CUT
66
1
70
0
0
VERTEX
8
CUT
10
104.312
20
33.5513
0
VERTEX
8
CUT
10
109.812
20
33.5513
0
VERTEX
8
CUT
10
112.562
20
29.7408
0
SEQEND
0
POLYLINE
8
CUT
66
1
70
0
0
VERTEX
8
CUT
10
111.512
20
16.8021
0
VERTEX
8
CUT
10
108.912
20
13.1994
0
VERTEX
8
CUT
10
103.712
20
13.1994
0
VERTEX
8
CUT
10
101.112
20
16.8021
0
VERTEX
8
CUT
10
103.712
20
20.4047
0
VERTEX
8
CUT
10
108.912
20
20.4047
0
VERTEX
8
CUT
10
111.512
20
16.8021
0
SEQEND
0
POLYLINE
8
CUT
66
1
70
0
0
VERTEX
8
CUT
10
112.4342
20
15.5857
0
VERTEX
8
CUT
10
109.812
20
11.9523
0
VERTEX
8
CUT
10
104.5676
20
11.9523
0
SEQEND
0
POLYLINE
8
CUT
66
1
70
0
0
VERTEX
8
CUT
10
101.9342
20
13.1686
0
VERTEX
8
CUT
10
99.312
20
16.8021
0
VERTEX
8
CUT
10
101.9342
20
20.4355
0
SEQEND
0
POLYLINE
8
CUT
66
1
70
0
0
VERTEX
8
CUT
10
104.312
20
21.6518
0
VERTEX
8
CUT
10
109.812
20
21.6518
0
VERTEX
8
CUT
10
112.562
20
17.8413
0
SEQEND
0
POLYLINE
8
CUT
66
1
70
0
0
VERTEX
8
CUT
10
111.512
20
4.9026
0
VERTEX
8
CUT
10
108.912
20
1.2999
0
VERTEX
8
CUT
10
103.712
20
1.2999
0
VERTEX
8
CUT
10
101.112
20
4.9026
0
VERTEX
8
CUT
10
103.712
20
8.5052
0
VERTEX
8
CUT
10
108.912
20
8.5052
0
VERTEX
8
CUT
10
111.512
20
4.9026
0
SEQEND
0
POLYLINE
8
CUT
66
1
70
0
0
VERTEX
8
CUT
10
112.4342
20
3.6863
0
VERTEX
8
CUT
10
109.812
20
0.0528
0
VERTEX
8
CUT
10
104.5676
20
0.0528
0
SEQEND
0
POLYLINE
8
CUT
66
1
70
0
0
VERTEX
8
CUT
10
101.9342
20
1.2692
0
VERTEX
8
CUT
10
99.312
20
4.9026
0
VERTEX
8
CUT
10
101.9342
20
8.536
0
SEQEND
0
POLYLINE
8
CUT
66
1
70
0
0
VERTEX
8
CUT
10
104.312
20
9.7523
0
VERTEX
8
CUT
10
109.812
20
9.7523
0
VERTEX
8
CUT
10
112.562
20
5.9418
0
SEQEND
0
POLYLINE
8
CUT
66
1
70
0
0
VERTEX
8
CUT
10
120
20
66.7471
0
VERTEX
8
CUT
10
116.126
20
66.7471
0
VERTEX
8
CUT
10
113.7784
20
70
0
SEQEND
0
LINE
8
CUT
10
120
20
65.5
11
116.9816
21
65.5
0
LINE
8
CUT
10
114.3482
20
66.7163
11
111.9784
21
70
0
POLYLINE
8
CUT
66
1
70
0
0
VERTEX
8
CUT
10
120
20
54.8476
0
VERTEX
8
CUT
10
116.126
20
54.8476
0
VERTEX
8
CUT
10
113.526
20
58.4503
0
VERTEX
8
CUT
10
116.126
20
62.0529
0
VERTEX
8
CUT
10
120
20
62.0529
0
SEQEND
0
LINE
8
CUT
10
120
20
53.6005
11
116.9816
21
53.6005
0
POLYLINE
8
CUT
66
1
70
0
0
VERTEX
8
CUT
10
114.3482
20
54.8168
0
VERTEX
8
CUT
10
111.726
20
58.4503
0
VERTEX
8
CUT
10
114.3482
20
62.0837
0
SEQEND
0
LINE
8
CUT
10
116.726
20
63.3
11
120
21
63.3
0
POLYLINE
8
CUT
66
1
70
0
0
VERTEX
8
CUT
10
120
20
42.9481
0
VERTEX
8
CUT
10
116.126
20
42.9481
0
VERTEX
8
CUT
10
113.526
20
46.5508
0
VERTEX
8
CUT
10
116.126
20
50.1534
0
VERTEX
8
CUT
10
120
20
50.1534
0
SEQEND
0
LINE
8
CUT
10
120
20
41.701
11
116.9816
21
41.701
0
POLYLINE
8
CUT
66
1
70
0
0
VERTEX
8
CUT
10
114.3482
20
42.9174
0
VERTEX
8
CUT
10
111.726
20
46.5508
0
VERTEX
8
CUT
10
114.3482
20
50.1842
0
SEQEND
0
LINE
8
CUT
10
116.726
20
51.4005
11
120
21
51.4005
0
POLYLINE
8
CUT
66
1
70
0
0
VERTEX
8
CUT
10
120
20
31.0486
0
VERTEX
8
CUT
10
116.126
20
31.0486
0
VERTEX
8
CUT
10
113.526
20
34.6513
0
VERTEX
8
CUT
10
116.126
20
38.254
0
VERTEX
8
CUT
10
120
20
38.254
0
SEQEND
0
LINE
8
CUT
10
120
20
29.8015
11
116.9816
21
29.8015
0
POLYLINE
8
CUT
66
1
70
0
0
VERTEX
8
CUT
10
114.3482
20
31.0179
0
VERTEX
8
CUT
10
111.726
20
34.6513
0
VERTEX
8
CUT
10
114.3482
20
38.2847
0
SEQEND
0
LINE
8
CUT
10
116.726
20
39.501
11
120
21
39.501
0
POLYLINE
8
CUT
66
1
70
0
0
VERTEX
8
CUT
10
120
20
19.1491
0
VERTEX
8
CUT
10
116.126
20
19.1491
0
VERTEX
8
CUT
10
113.526
20
22.7518
0
VERTEX
8
CUT
10
116.126
20
26.3545
0
VERTEX
8
CUT
10
120
20
26.3545
0
SEQEND
0
LINE
8
CUT
10
120
20
17.9021
11
116.9816
21
17.9021
0
POLYLINE
8
CUT
66
1
70
0
0
VERTEX
8
CUT
10
114.3482
20
19.1184
0
VERTEX
8
CUT
10
111.726
20
22.7518
0
VERTEX
8
CUT
10
114.3482
20
26.3852
0
SEQEND
0
LINE
8
CUT
10
116.726
20
27.6015
11
120
21
27.6015
0
POLYLINE
8
CUT
66
1
70
0
0
VERTEX
8
CUT
10
120
20
7.2497
0
VERTEX
8
CUT
10
116.126
20
7.2497
0
VERTEX
8
CUT
10
113.526
20
10.8523
0
VERTEX
8
CUT
10
116.126
20
14.455
0
VERTEX
8
CUT
10
120
20
14.455
0
SEQEND
0
LINE
8
CUT
10
120
20
6.0026
11
116.9816
21
6.0026
0
POLYLINE
8
CUT
66
1
70
0
0
VERTEX
8
CUT
10
114.3482
20
7.2189
0
VERTEX
8
CUT
10
111.726
20
10.8523
0
VERTEX
8
CUT
10
114.3482
20
14.4857
0
SEQEND
0
LINE
8
CUT
10
116.726
20
15.7021
11
120
21
15.7021
0
POLYLINE
8
CUT
66
1
70
0
0
VERTEX
8
CUT
10
114.2817
20
0
0
VERTEX
8
CUT
10
116.126
20
2.5555
0
VERTEX
8
CUT
10
120
20
2.5555
0
SEQEND
0
LINE
8
CUT
10
112.4817
20
0
11
114.3482
21
2.5863
0
LINE
8
CUT
10
116.726
20
3.8026
11
120
21
3.8026
0
POLYLINE
8
CUT
66
1
70
0
0
VERTEX
8
CUT
10
0
20
70
0
VERTEX
8
CUT
10
120
20
70
0
VERTEX
8
CUT
10
120
20
0
0
VERTEX
8
CUT
10
0
20
0
0
VERTEX
8
CUT
10
0
20
70
0
SEQEND
0
ENDSEC
0
EOF
