0
SECTION
2
HEADER
9
$ACADVER
1
AC1009
9
$INSUNITS
70
4
0
ENDSEC
0
SECTION
2
TABLES
0
TABLE
2
LAYER
70
1
0
LAYER
2
CUT
70
0
62
1
6
CONTINUOUS
0
ENDTAB
0
ENDSEC
0
SECTION
2
ENTITIES
0
POLYLINE
8
CUT
66
1
70
0
0
VERTEX
8
CUT
10
9
20
70
0
VERTEX
8
CUT
10
9
20
70
0
VERTEX
8
CUT
10
8.9388
20
69
0
VERTEX
8
CUT
10
8.7551
20
68
0
VERTEX
8
CUT
10
8.449
20
67
0
VERTEX
8
CUT
10
8.0204
20
66
0
VERTEX
8
CUT
10
7.4694
20
65
0
VERTEX
8
CUT
10
6.7959
20
64
0
VERTEX
8
CUT
10
6
20
63
0
SEQEND
0
POLYLINE
8
CUT
66
1
70
0
0
VERTEX
8
CUT
10
6
20
60
0
VERTEX
8
CUT
10
6.7959
20
59
0
VERTEX
8
CUT
10
7.4694
20
58
0
VERTEX
8
CUT
10
8.0204
20
57
0
VERTEX
8
CUT
10
8.449
20
56
0
VERTEX
8
CUT
10
8.7551
20
55
0
VERTEX
8
CUT
10
8.9388
20
54
0
VERTEX
8
CUT
10
9
20
53
0
VERTEX
8
CUT
10
8.9388
20
52
0
VERTEX
8
CUT
10
8.7551
20
51
0
VERTEX
8
CUT
10
8.449
20
50
0
VERTEX
8
CUT
10
8.0204
20
49
0
VERTEX
8
CUT
10
7.4694
20
48
0
VERTEX
8
CUT
10
6.7959
20
47
0
VERTEX
8
CUT
10
6
20
46
0
SEQEND
0
POLYLINE
8
CUT
66
1
70
0
0
VERTEX
8
CUT
10
6
20
43
0
VERTEX
8
CUT
10
6.7959
20
42
0
VERTEX
8
CUT
10
7.4694
20
41
0
VERTEX
8
CUT
10
8.0204
20
40
0
VERTEX
8
CUT
10
8.449
20
39
0
VERTEX
8
CUT
10
8.7551
20
38
0
VERTEX
8
CUT
10
8.9388
20
37
0
VERTEX
8
CUT
10
9
20
36
0
VERTEX
8
CUT
10
8.9388
20
35
0
VERTEX
8
CUT
10
8.7551
20
34
0
VERTEX
8
CUT
10
8.449
20
33
0
VERTEX
8
CUT
10
8.0204
20
32
0
VERTEX
8
CUT
10
7.4694
20
31
0
VERTEX
8
CUT
10
6.7959
20
30
0
VERTEX
8
CUT
10
6
20
29
0
SEQEND
0
POLYLINE
8
CUT
66
1
70
0
0
VERTEX
8
CUT
10
6
20
26
0
VERTEX
8
CUT
10
6.7959
20
25
0
VERTEX
8
CUT
10
7.4694
20
24
0
VERTEX
8
CUT
10
8.0204
20
23
0
VERTEX
8
CUT
10
8.449
20
22
0
VERTEX
8
CUT
10
8.7551
20
21
0
VERTEX
8
CUT
10
8.9388
20
20
0
VERTEX
8
CUT
10
9
20
19
0
VERTEX
8
CUT
10
8.9388
20
18
0
VERTEX
8
CUT
10
8.7551
20
17
0
VERTEX
8
CUT
10
8.449
20
16
0
VERTEX
8
CUT
10
8.0204
20
15
0
VERTEX
8
CUT
10
7.4694
20
14
0
VERTEX
8
CUT
10
6.7959
20
13
0
VERTEX
8
CUT
10
6
20
12
0
SEQEND
0
POLYLINE
8
CUT
66
1
70
0
0
VERTEX
8
CUT
10
6
20
9
0
VERTEX
8
CUT
10
6.7959
20
8
0
VERTEX
8
CUT
10
7.4694
20
7
0
VERTEX
8
CUT
10
8.0204
20
6
0
VERTEX
8
CUT
10
8.449
20
5
0
VERTEX
8
CUT
10
8.7551
20
4
0
VERTEX
8
CUT
10
8.9388
20
3
0
VERTEX
8
CUT
10
9
20
2
0
VERTEX
8
CUT
10
8.9388
20
1
0
VERTEX
8
CUT
10
8.7551
20
0
0
VERTEX
8
CUT
10
8.7551
20
0
0
SEQEND
0
POLYLINE
8
CUT
66
1
70
0
0
VERTEX
8
CUT
10
15
20
68.5
0
VERTEX
8
CUT
10
14.2041
20
67.5
0
VERTEX
8
CUT
10
13.5306
20
66.5
0
VERTEX
8
CUT
10
12.9796
20
65.5
0
VERTEX
8
CUT
10
12.551
20
64.5
0
VERTEX
8
CUT
10
12.2449
20
63.5
0
VERTEX
8
CUT
10
12.0612
20
62.5
0
VERTEX
8
CUT
10
12
20
61.5
0
VERTEX
8
CUT
10
12.0612
20
60.5
0
VERTEX
8
CUT
10
12.2449
20
59.5
0
VERTEX
8
CUT
10
12.551
20
58.5
0
VERTEX
8
CUT
10
12.9796
20
57.5
0
VERTEX
8
CUT
10
13.5306
20
56.5
0
VERTEX
8
CUT
10
14.2041
20
55.5
0
VERTEX
8
CUT
10
15
20
54.5
0
SEQEND
0
POLYLINE
8
CUT
66
1
70
0
0
VERTEX
8
CUT
10
15
20
51.5
0
VERTEX
8
CUT
10
14.2041
20
50.5
0
VERTEX
8
CUT
10
13.5306
20
49.5
0
VERTEX
8
CUT
10
12.9796
20
48.5
0
VERTEX
8
CUT
10
12.551
20
47.5
0
VERTEX
8
CUT
10
12.2449
20
46.5
0
VERTEX
8
CUT
10
12.0612
20
45.5
0
VERTEX
8
CUT
10
12
20
44.5
0
VERTEX
8
CUT
10
12.0612
20
43.5
0
VERTEX
8
CUT
10
12.2449
20
42.5
0
VERTEX
8
CUT
10
12.551
20
41.5
0
VERTEX
8
CUT
10
12.9796
20
40.5
0
VERTEX
8
CUT
10
13.5306
20
39.5
0
VERTEX
8
CUT
10
14.2041
20
38.5
0
VERTEX
8
CUT
10
15
20
37.5
0
SEQEND
0
POLYLINE
8
CUT
66
1
70
0
0
VERTEX
8
CUT
10
15
20
34.5
0
VERTEX
8
CUT
10
14.2041
20
33.5
0
VERTEX
8
CUT
10
13.5306
20
32.5
0
VERTEX
8
CUT
10
12.9796
20
31.5
0
VERTEX
8
CUT
10
12.551
20
30.5
0
VERTEX
8
CUT
10
12.2449
20
29.5
0
VERTEX
8
CUT
10
12.0612
20
28.5
0
VERTEX
8
CUT
10
12
20
27.5
0
VERTEX
8
CUT
10
12.0612
20
26.5
0
VERTEX
8
CUT
10
12.2449
20
25.5
0
VERTEX
8
CUT
10
12.551
20
24.5
0
VERTEX
8
CUT
10
12.9796
20
23.5
0
VERTEX
8
CUT
10
13.5306
20
22.5
0
VERTEX
8
CUT
10
14.2041
20
21.5
0
VERTEX
8
CUT
10
15
20
20.5
0
SEQEND
0
POLYLINE
8
CUT
66
1
70
0
0
VERTEX
8
CUT
10
15
20
17.5
0
VERTEX
8
CUT
10
14.2041
20
16.5
0
VERTEX
8
CUT
10
13.5306
20
15.5
0
VERTEX
8
CUT
10
12.9796
20
14.5
0
VERTEX
8
CUT
10
12.551
20
13.5
0
VERTEX
8
CUT
10
12.2449
20
12.5
0
VERTEX
8
CUT
10
12.0612
20
11.5
0
VERTEX
8
CUT
10
12
20
10.5
0
VERTEX
8
CUT
10
12.0612
20
9.5
0
VERTEX
8
CUT
10
12.2449
20
8.5
0
VERTEX
8
CUT
10
12.551
20
7.5
0
VERTEX
8
CUT
10
12.9796
20
6.5
0
VERTEX
8
CUT
10
13.5306
20
5.5
0
VERTEX
8
CUT
10
14.2041
20
4.5
0
VERTEX
8
CUT
10
15
20
3.5
0
SEQEND
0
LINE
8
CUT
10
15
20
0.5
11
14.602
21
0
0
POLYLINE
8
CUT
66
1
70
0
0
VERTEX
8
CUT
10
27
20
70
0
VERTEX
8
CUT
10
27
20
70
0
VERTEX
8
CUT
10
26.9388
20
69
0
VERTEX
8
CUT
10
26.7551
20
68
0
VERTEX
8
CUT
10
26.449
20
67
0
VERTEX
8
CUT
10
26.0204
20
66
0
VERTEX
8
CUT
10
25.4694
20
65
0
VERTEX
8
CUT
10
24.7959
20
64
0
VERTEX
8
CUT
10
24
20
63
0
SEQEND
0
POLYLINE
8
CUT
66
1
70
0
0
VERTEX
8
CUT
10
24
20
60
0
VERTEX
8
CUT
10
24.7959
20
59
0
VERTEX
8
CUT
10
25.4694
20
58
0
VERTEX
8
CUT
10
26.0204
20
57
0
VERTEX
8
CUT
10
26.449
20
56
0
VERTEX
8
CUT
10
26.7551
20
55
0
VERTEX
8
CUT
10
26.9388
20
54
0
VERTEX
8
CUT
10
27
20
53
0
VERTEX
8
CUT
10
26.9388
20
52
0
VERTEX
8
CUT
10
26.7551
20
51
0
VERTEX
8
CUT
10
26.449
20
50
0
VERTEX
8
CUT
10
26.0204
20
49
0
VERTEX
8
CUT
10
25.4694
20
48
0
VERTEX
8
CUT
10
24.7959
20
47
0
VERTEX
8
CUT
10
24
20
46
0
SEQEND
0
POLYLINE
8
CUT
66
1
70
0
0
VERTEX
8
CUT
10
24
20
43
0
VERTEX
8
CUT
10
24.7959
20
42
0
VERTEX
8
CUT
10
25.4694
20
41
0
VERTEX
8
CUT
10
26.0204
20
40
0
VERTEX
8
CUT
10
26.449
20
39
0
VERTEX
8
CUT
10
26.7551
20
38
0
VERTEX
8
CUT
10
26.9388
20
37
0
VERTEX
8
CUT
10
27
20
36
0
VERTEX
8
CUT
10
26.9388
20
35
0
VERTEX
8
CUT
10
26.7551
20
34
0
VERTEX
8
CUT
10
26.449
20
33
0
VERTEX
8
CUT
10
26.0204
20
32
0
VERTEX
8
CUT
10
25.4694
20
31
0
VERTEX
8
CUT
10
24.7959
20
30
0
VERTEX
8
CUT
10
24
20
29
0
SEQEND
0
POLYLINE
8
CUT
66
1
70
0
0
VERTEX
8
CUT
10
24
20
26
0
VERTEX
8
CUT
10
24.7959
20
25
0
VERTEX
8
CUT
10
25.4694
20
24
0
VERTEX
8
CUT
10
26.0204
20
23
0
VERTEX
8
CUT
10
26.449
20
22
0
VERTEX
8
CUT
10
26.7551
20
21
0
VERTEX
8
CUT
10
26.9388
20
20
0
VERTEX
8
CUT
10
27
20
19
0
VERTEX
8
CUT
10
26.9388
20
18
0
VERTEX
8
CUT
10
26.7551
20
17
0
VERTEX
8
CUT
10
26.449
20
16
0
VERTEX
8
CUT
10
26.0204
20
15
0
VERTEX
8
CUT
10
25.4694
20
14
0
VERTEX
8
CUT
10
24.7959
20
13
0
VERTEX
8
CUT
10
24
20
12
0
SEQEND
0
POLYLINE
8
CUT
66
1
70
0
0
VERTEX
8
CUT
10
24
20
9
0
VERTEX
8
CUT
10
24.7959
20
8
0
VERTEX
8
CUT
10
25.4694
20
7
0
VERTEX
8
CUT
10
26.0204
20
6
0
VERTEX
8
CUT
10
26.449
20
5
0
VERTEX
8
CUT
10
26.7551
20
4
0
VERTEX
8
CUT
10
26.9388
20
3
0
VERTEX
8
CUT
10
27
20
2
0
VERTEX
8
CUT
10
26.9388
20
1
0
VERTEX
8
CUT
10
26.7551
20
0
0
VERTEX
8
CUT
10
26.7551
20
0
0
SEQEND
0
POLYLINE
8
CUT
66
1
70
0
0
VERTEX
8
CUT
10
33
20
68.5
0
VERTEX
8
CUT
10
32.2041
20
67.5
0
VERTEX
8
CUT
10
31.5306
20
66.5
0
VERTEX
8
CUT
10
30.9796
20
65.5
0
VERTEX
8
CUT
10
30.551
20
64.5
0
VERTEX
8
CUT
10
30.2449
20
63.5
0
VERTEX
8
CUT
10
30.0612
20
62.5
0
VERTEX
8
CUT
10
30
20
61.5
0
VERTEX
8
CUT
10
30.0612
20
60.5
0
VERTEX
8
CUT
10
30.2449
20
59.5
0
VERTEX
8
CUT
10
30.551
20
58.5
0
VERTEX
8
CUT
10
30.9796
20
57.5
0
VERTEX
8
CUT
10
31.5306
20
56.5
0
VERTEX
8
CUT
10
32.2041
20
55.5
0
VERTEX
8
CUT
10
33
20
54.5
0
SEQEND
0
POLYLINE
8
CUT
66
1
70
0
0
VERTEX
8
CUT
10
33
20
51.5
0
VERTEX
8
CUT
10
32.2041
20
50.5
0
VERTEX
8
CUT
10
31.5306
20
49.5
0
VERTEX
8
CUT
10
30.9796
20
48.5
0
VERTEX
8
CUT
10
30.551
20
47.5
0
VERTEX
8
CUT
10
30.2449
20
46.5
0
VERTEX
8
CUT
10
30.0612
20
45.5
0
VERTEX
8
CUT
10
30
20
44.5
0
VERTEX
8
CUT
10
30.0612
20
43.5
0
VERTEX
8
CUT
10
30.2449
20
42.5
0
VERTEX
8
CUT
10
30.551
20
41.5
0
VERTEX
8
CUT
10
30.9796
20
40.5
0
VERTEX
8
CUT
10
31.5306
20
39.5
0
VERTEX
8
CUT
10
32.2041
20
38.5
0
VERTEX
8
CUT
10
33
20
37.5
0
SEQEND
0
POLYLINE
8
CUT
66
1
70
0
0
VERTEX
8
CUT
10
33
20
34.5
0
VERTEX
8
CUT
10
32.2041
20
33.5
0
VERTEX
8
CUT
10
31.5306
20
32.5
0
VERTEX
8
CUT
10
30.9796
20
31.5
0
VERTEX
8
CUT
10
30.551
20
30.5
0
VERTEX
8
CUT
10
30.2449
20
29.5
0
VERTEX
8
CUT
10
30.0612
20
28.5
0
VERTEX
8
CUT
10
30
20
27.5
0
VERTEX
8
CUT
10
30.0612
20
26.5
0
VERTEX
8
CUT
10
30.2449
20
25.5
0
VERTEX
8
CUT
10
30.551
20
24.5
0
VERTEX
8
CUT
10
30.9796
20
23.5
0
VERTEX
8
CUT
10
31.5306
20
22.5
0
VERTEX
8
CUT
10
32.2041
20
21.5
0
VERTEX
8
CUT
10
33
20
20.5
0
SEQEND
0
POLYLINE
8
CUT
66
1
70
0
0
VERTEX
8
CUT
10
33
20
17.5
0
VERTEX
8
CUT
10
32.2041
20
16.5
0
VERTEX
8
CUT
10
31.5306
20
15.5
0
VERTEX
8
CUT
10
30.9796
20
14.5
0
VERTEX
8
CUT
10
30.551
20
13.5
0
VERTEX
8
CUT
10
30.2449
20
12.5
0
VERTEX
8
CUT
10
30.0612
20
11.5
0
VERTEX
8
CUT
10
30
20
10.5
0
VERTEX
8
CUT
10
30.0612
20
9.5
0
VERTEX
8
CUT
10
30.2449
20
8.5
0
VERTEX
8
CUT
10
30.551
20
7.5
0
VERTEX
8
CUT
10
30.9796
20
6.5
0
VERTEX
8
CUT
10
31.5306
20
5.5
0
VERTEX
8
CUT
10
32.2041
20
4.5
0
VERTEX
8
CUT
10
33
20
3.5
0
SEQEND
0
LINE
8
CUT
10
33
20
0.5
11
32.602
21
0
0
POLYLINE
8
CUT
66
1
70
0
0
VERTEX
8
CUT
10
45
20
70
0
VERTEX
8
CUT
10
45
20
70
0
VERTEX
8
CUT
10
44.9388
20
69
0
VERTEX
8
CUT
10
44.7551
20
68
0
VERTEX
8
CUT
10
44.449
20
67
0
VERTEX
8
CUT
10
44.0204
20
66
0
VERTEX
8
CUT
10
43.4694
20
65
0
VERTEX
8
CUT
10
42.7959
20
64
0
VERTEX
8
CUT
10
42
20
63
0
SEQEND
0
POLYLINE
8
CUT
66
1
70
0
0
VERTEX
8
CUT
10
42
20
60
0
VERTEX
8
CUT
10
42.7959
20
59
0
VERTEX
8
CUT
10
43.4694
20
58
0
VERTEX
8
CUT
10
44.0204
20
57
0
VERTEX
8
CUT
10
44.449
20
56
0
VERTEX
8
CUT
10
44.7551
20
55
0
VERTEX
8
CUT
10
44.9388
20
54
0
VERTEX
8
CUT
10
45
20
53
0
VERTEX
8
CUT
10
44.9388
20
52
0
VERTEX
8
CUT
10
44.7551
20
51
0
VERTEX
8
CUT
10
44.449
20
50
0
VERTEX
8
CUT
10
44.0204
20
49
0
VERTEX
8
CUT
10
43.4694
20
48
0
VERTEX
8
CUT
10
42.7959
20
47
0
VERTEX
8
CUT
10
42
20
46
0
SEQEND
0
POLYLINE
8
CUT
66
1
70
0
0
VERTEX
8
CUT
10
42
20
43
0
VERTEX
8
CUT
10
42.7959
20
42
0
VERTEX
8
CUT
10
43.4694
20
41
0
VERTEX
8
CUT
10
44.0204
20
40
0
VERTEX
8
CUT
10
44.449
20
39
0
VERTEX
8
CUT
10
44.7551
20
38
0
VERTEX
8
CUT
10
44.9388
20
37
0
VERTEX
8
CUT
10
45
20
36
0
VERTEX
8
CUT
10
44.9388
20
35
0
VERTEX
8
CUT
10
44.7551
20
34
0
VERTEX
8
CUT
10
44.449
20
33
0
VERTEX
8
CUT
10
44.0204
20
32
0
VERTEX
8
CUT
10
43.4694
20
31
0
VERTEX
8
CUT
10
42.7959
20
30
0
VERTEX
8
CUT
10
42
20
29
0
SEQEND
0
POLYLINE
8
CUT
66
1
70
0
0
VERTEX
8
CUT
10
42
20
26
0
VERTEX
8
CUT
10
42.7959
20
25
0
VERTEX
8
CUT
10
43.4694
20
24
0
VERTEX
8
CUT
10
44.0204
20
23
0
VERTEX
8
CUT
10
44.449
20
22
0
VERTEX
8
CUT
10
44.7551
20
21
0
VERTEX
8
CUT
10
44.9388
20
20
0
VERTEX
8
CUT
10
45
20
19
0
VERTEX
8
CUT
10
44.9388
20
18
0
VERTEX
8
CUT
10
44.7551
20
17
0
VERTEX
8
CUT
10
44.449
20
16
0
VERTEX
8
CUT
10
44.0204
20
15
0
VERTEX
8
CUT
10
43.4694
20
14
0
VERTEX
8
CUT
10
42.7959
20
13
0
VERTEX
8
CUT
10
42
20
12
0
SEQEND
0
POLYLINE
8
CUT
66
1
70
0
0
VERTEX
8
CUT
10
42
20
9
0
VERTEX
8
CUT
10
42.7959
20
8
0
VERTEX
8
CUT
10
43.4694
20
7
0
VERTEX
8
CUT
10
44.0204
20
6
0
VERTEX
8
CUT
10
44.449
20
5
0
VERTEX
8
CUT
10
44.7551
20
4
0
VERTEX
8
CUT
10
44.9388
20
3
0
VERTEX
8
CUT
10
45
20
2
0
VERTEX
8
CUT
10
44.9388
20
1
0
VERTEX
8
CUT
10
44.7551
20
0
0
VERTEX
8
CUT
10
44.7551
20
0
0
SEQEND
0
POLYLINE
8
CUT
66
1
70
0
0
VERTEX
8
CUT
10
51
20
68.5
0
VERTEX
8
CUT
10
50.2041
20
67.5
0
VERTEX
8
CUT
10
49.5306
20
66.5
0
VERTEX
8
CUT
10
48.9796
20
65.5
0
VERTEX
8
CUT
10
48.551
20
64.5
0
VERTEX
8
CUT
10
48.2449
20
63.5
0
VERTEX
8
CUT
10
48.0612
20
62.5
0
VERTEX
8
CUT
10
48
20
61.5
0
VERTEX
8
CUT
10
48.0612
20
60.5
0
VERTEX
8
CUT
10
48.2449
20
59.5
0
VERTEX
8
CUT
10
48.551
20
58.5
0
VERTEX
8
CUT
10
48.9796
20
57.5
0
VERTEX
8
CUT
10
49.5306
20
56.5
0
VERTEX
8
CUT
10
50.2041
20
55.5
0
VERTEX
8
CUT
10
51
20
54.5
0
SEQEND
0
POLYLINE
8
CUT
66
1
70
0
0
VERTEX
8
CUT
10
51
20
51.5
0
VERTEX
8
CUT
10
50.2041
20
50.5
0
VERTEX
8
CUT
10
49.5306
20
49.5
0
VERTEX
8
CUT
10
48.9796
20
48.5
0
VERTEX
8
CUT
10
48.551
20
47.5
0
VERTEX
8
CUT
10
48.2449
20
46.5
0
VERTEX
8
CUT
10
48.0612
20
45.5
0
VERTEX
8
CUT
10
48
20
44.5
0
VERTEX
8
CUT
10
48.0612
20
43.5
0
VERTEX
8
CUT
10
48.2449
20
42.5
0
VERTEX
8
CUT
10
48.551
20
41.5
0
VERTEX
8
CUT
10
48.9796
20
40.5
0
VERTEX
8
CUT
10
49.5306
20
39.5
0
VERTEX
8
CUT
10
50.2041
20
38.5
0
VERTEX
8
CUT
10
51
20
37.5
0
SEQEND
0
POLYLINE
8
CUT
66
1
70
0
0
VERTEX
8
CUT
10
51
20
34.5
0
VERTEX
8
CUT
10
50.2041
20
33.5
0
VERTEX
8
CUT
10
49.5306
20
32.5
0
VERTEX
8
CUT
10
48.9796
20
31.5
0
VERTEX
8
CUT
10
48.551
20
30.5
0
VERTEX
8
CUT
10
48.2449
20
29.5
0
VERTEX
8
CUT
10
48.0612
20
28.5
0
VERTEX
8
CUT
10
48
20
27.5
0
VERTEX
8
CUT
10
48.0612
20
26.5
0
VERTEX
8
CUT
10
48.2449
20
25.5
0
VERTEX
8
CUT
10
48.551
20
24.5
0
VERTEX
8
CUT
10
48.9796
20
23.5
0
VERTEX
8
CUT
10
49.5306
20
22.5
0
VERTEX
8
CUT
10
50.2041
20
21.5
0
VERTEX
8
CUT
10
51
20
20.5
0
SEQEND
0
POLYLINE
8
CUT
66
1
70
0
0
VERTEX
8
CUT
10
51
20
17.5
0
VERTEX
8
CUT
10
50.2041
20
16.5
0
VERTEX
8
CUT
10
49.5306
20
15.5
0
VERTEX
8
CUT
10
48.9796
20
14.5
0
VERTEX
8
CUT
10
48.551
20
13.5
0
VERTEX
8
CUT
10
48.2449
20
12.5
0
VERTEX
8
CUT
10
48.0612
20
11.5
0
VERTEX
8
CUT
10
48
20
10.5
0
VERTEX
8
CUT
10
48.0612
20
9.5
0
VERTEX
8
CUT
10
48.2449
20
8.5
0
VERTEX
8
CUT
10
48.551
20
7.5
0
VERTEX
8
CUT
10
48.9796
20
6.5
0
VERTEX
8
CUT
10
49.5306
20
5.5
0
VERTEX
8
CUT
10
50.2041
20
4.5
0
VERTEX
8
CUT
10
51
20
3.5
0
SEQEND
0
LINE
8
CUT
10
51
20
0.5
11
50.602
21
0
0
POLYLINE
8
CUT
66
1
70
0
0
VERTEX
8
CUT
10
63
20
70
0
VERTEX
8
CUT
10
63
20
70
0
VERTEX
8
CUT
10
62.9388
20
69
0
VERTEX
8
CUT
10
62.7551
20
68
0
VERTEX
8
CUT
10
62.449
20
67
0
VERTEX
8
CUT
10
62.0204
20
66
0
VERTEX
8
CUT
10
61.4694
20
65
0
VERTEX
8
CUT
10
60.7959
20
64
0
VERTEX
8
CUT
10
60
20
63
0
SEQEND
0
POLYLINE
8
CUT
66
1
70
0
0
VERTEX
8
CUT
10
60
20
60
0
VERTEX
8
CUT
10
60.7959
20
59
0
VERTEX
8
CUT
10
61.4694
20
58
0
VERTEX
8
CUT
10
62.0204
20
57
0
VERTEX
8
CUT
10
62.449
20
56
0
VERTEX
8
CUT
10
62.7551
20
55
0
VERTEX
8
CUT
10
62.9388
20
54
0
VERTEX
8
CUT
10
63
20
53
0
VERTEX
8
CUT
10
62.9388
20
52
0
VERTEX
8
CUT
10
62.7551
20
51
0
VERTEX
8
CUT
10
62.449
20
50
0
VERTEX
8
CUT
10
62.0204
20
49
0
VERTEX
8
CUT
10
61.4694
20
48
0
VERTEX
8
CUT
10
60.7959
20
47
0
VERTEX
8
CUT
10
60
20
46
0
SEQEND
0
POLYLINE
8
CUT
66
1
70
0
0
VERTEX
8
CUT
10
60
20
43
0
VERTEX
8
CUT
10
60.7959
20
42
0
VERTEX
8
CUT
10
61.4694
20
41
0
VERTEX
8
CUT
10
62.0204
20
40
0
VERTEX
8
CUT
10
62.449
20
39
0
VERTEX
8
CUT
10
62.7551
20
38
0
VERTEX
8
CUT
10
62.9388
20
37
0
VERTEX
8
CUT
10
63
20
36
0
VERTEX
8
CUT
10
62.9388
20
35
0
VERTEX
8
CUT
10
62.7551
20
34
0
VERTEX
8
CUT
10
62.449
20
33
0
VERTEX
8
CUT
10
62.0204
20
32
0
VERTEX
8
CUT
10
61.4694
20
31
0
VERTEX
8
CUT
10
60.7959
20
30
0
VERTEX
8
CUT
10
60
20
29
0
SEQEND
0
POLYLINE
8
CUT
66
1
70
0
0
VERTEX
8
CUT
10
60
20
26
0
VERTEX
8
CUT
10
60.7959
20
25
0
VERTEX
8
CUT
10
61.4694
20
24
0
VERTEX
8
CUT
10
62.0204
20
23
0
VERTEX
8
CUT
10
62.449
20
22
0
VERTEX
8
CUT
10
62.7551
20
21
0
VERTEX
8
CUT
10
62.9388
20
20
0
VERTEX
8
CUT
10
63
20
19
0
VERTEX
8
CUT
10
62.9388
20
18
0
VERTEX
8
CUT
10
62.7551
20
17
0
VERTEX
8
CUT
10
62.449
20
16
0
VERTEX
8
CUT
10
62.0204
20
15
0
VERTEX
8
CUT
10
61.4694
20
14
0
VERTEX
8
CUT
10
60.7959
20
13
0
VERTEX
8
CUT
10
60
20
12
0
SEQEND
0
POLYLINE
8
CUT
66
1
70
0
0
VERTEX
8
CUT
10
60
20
9
0
VERTEX
8
CUT
10
60.7959
20
8
0
VERTEX
8
CUT
10
61.4694
20
7
0
VERTEX
8
CUT
10
62.0204
20
6
0
VERTEX
8
CUT
10
62.449
20
5
0
VERTEX
8
CUT
10
62.7551
20
4
0
VERTEX
8
CUT
10
62.9388
20
3
0
VERTEX
8
CUT
10
63
20
2
0
VERTEX
8
CUT
10
62.9388
20
1
0
VERTEX
8
CUT
10
62.7551
20
0
0
VERTEX
8
CUT
10
62.7551
20
0
0
SEQEND
0
POLYLINE
8
CUT
66
1
70
0
0
VERTEX
8
CUT
10
69
20
68.5
0
VERTEX
8
CUT
10
68.2041
20
67.5
0
VERTEX
8
CUT
10
67.5306
20
66.5
0
VERTEX
8
CUT
10
66.9796
20
65.5
0
VERTEX
8
CUT
10
66.551
20
64.5
0
VERTEX
8
CUT
10
66.2449
20
63.5
0
VERTEX
8
CUT
10
66.0612
20
62.5
0
VERTEX
8
CUT
10
66
20
61.5
0
VERTEX
8
CUT
10
66.0612
20
60.5
0
VERTEX
8
CUT
10
66.2449
20
59.5
0
VERTEX
8
CUT
10
66.551
20
58.5
0
VERTEX
8
CUT
10
66.9796
20
57.5
0
VERTEX
8
CUT
10
67.5306
20
56.5
0
VERTEX
8
CUT
10
68.2041
20
55.5
0
VERTEX
8
CUT
10
69
20
54.5
0
SEQEND
0
POLYLINE
8
CUT
66
1
70
0
0
VERTEX
8
CUT
10
69
20
51.5
0
VERTEX
8
CUT
10
68.2041
20
50.5
0
VERTEX
8
CUT
10
67.5306
20
49.5
0
VERTEX
8
CUT
10
66.9796
20
48.5
0
VERTEX
8
CUT
10
66.551
20
47.5
0
VERTEX
8
CUT
10
66.2449
20
46.5
0
VERTEX
8
CUT
10
66.0612
20
45.5
0
VERTEX
8
CUT
10
66
20
44.5
0
VERTEX
8
CUT
10
66.0612
20
43.5
0
VERTEX
8
CUT
10
66.2449
20
42.5
0
VERTEX
8
CUT
10
66.551
20
41.5
0
VERTEX
8
CUT
10
66.9796
20
40.5
0
VERTEX
8
CUT
10
67.5306
20
39.5
0
VERTEX
8
CUT
10
68.2041
20
38.5
0
VERTEX
8
CUT
10
69
20
37.5
0
SEQEND
0
POLYLINE
8
CUT
66
1
70
0
0
VERTEX
8
CUT
10
69
20
34.5
0
VERTEX
8
CUT
10
68.2041
20
33.5
0
VERTEX
8
CUT
10
67.5306
20
32.5
0
VERTEX
8
CUT
10
66.9796
20
31.5
0
VERTEX
8
CUT
10
66.551
20
30.5
0
VERTEX
8
CUT
10
66.2449
20
29.5
0
VERTEX
8
CUT
10
66.0612
20
28.5
0
VERTEX
8
CUT
10
66
20
27.5
0
VERTEX
8
CUT
10
66.0612
20
26.5
0
VERTEX
8
CUT
10
66.2449
20
25.5
0
VERTEX
8
CUT
10
66.551
20
24.5
0
VERTEX
8
CUT
10
66.9796
20
23.5
0
VERTEX
8
CUT
10
67.5306
20
22.5
0
VERTEX
8
CUT
10
68.2041
20
21.5
0
VERTEX
8
CUT
10
69
20
20.5
0
SEQEND
0
POLYLINE
8
CUT
66
1
70
0
0
VERTEX
8
CUT
10
69
20
17.5
0
VERTEX
8
CUT
10
68.2041
20
16.5
0
VERTEX
8
CUT
10
67.5306
20
15.5
0
VERTEX
8
CUT
10
66.9796
20
14.5
0
VERTEX
8
CUT
10
66.551
20
13.5
0
VERTEX
8
CUT
10
66.2449
20
12.5
0
VERTEX
8
CUT
10
66.0612
20
11.5
0
VERTEX
8
CUT
10
66
20
10.5
0
VERTEX
8
CUT
10
66.0612
20
9.5
0
VERTEX
8
CUT
10
66.2449
20
8.5
0
VERTEX
8
CUT
10
66.551
20
7.5
0
VERTEX
8
CUT
10
66.9796
20
6.5
0
VERTEX
8
CUT
10
67.5306
20
5.5
0
VERTEX
8
CUT
10
68.2041
20
4.5
0
VERTEX
8
CUT
10
69
20
3.5
0
SEQEND
0
LINE
8
CUT
10
69
20
0.5
11
68.602
21
0
0
POLYLINE
8
CUT
66
1
70
0
0
VERTEX
8
CUT
10
81
20
70
0
VERTEX
8
CUT
10
81
20
70
0
VERTEX
8
CUT
10
80.9388
20
69
0
VERTEX
8
CUT
10
80.7551
20
68
0
VERTEX
8
CUT
10
80.449
20
67
0
VERTEX
8
CUT
10
80.0204
20
66
0
VERTEX
8
CUT
10
79.4694
20
65
0
VERTEX
8
CUT
10
78.7959
20
64
0
VERTEX
8
CUT
10
78
20
63
0
SEQEND
0
POLYLINE
8
CUT
66
1
70
0
0
VERTEX
8
CUT
10
78
20
60
0
VERTEX
8
CUT
10
78.7959
20
59
0
VERTEX
8
CUT
10
79.4694
20
58
0
VERTEX
8
CUT
10
80.0204
20
57
0
VERTEX
8
CUT
10
80.449
20
56
0
VERTEX
8
CUT
10
80.7551
20
55
0
VERTEX
8
CUT
10
80.9388
20
54
0
VERTEX
8
CUT
10
81
20
53
0
VERTEX
8
CUT
10
80.9388
20
52
0
VERTEX
8
CUT
10
80.7551
20
51
0
VERTEX
8
CUT
10
80.449
20
50
0
VERTEX
8
CUT
10
80.0204
20
49
0
VERTEX
8
CUT
10
79.4694
20
48
0
VERTEX
8
CUT
10
78.7959
20
47
0
VERTEX
8
CUT
10
78
20
46
0
SEQEND
0
POLYLINE
8
CUT
66
1
70
0
0
VERTEX
8
CUT
10
78
20
43
0
VERTEX
8
CUT
10
78.7959
20
42
0
VERTEX
8
CUT
10
79.4694
20
41
0
VERTEX
8
CUT
10
80.0204
20
40
0
VERTEX
8
CUT
10
80.449
20
39
0
VERTEX
8
CUT
10
80.7551
20
38
0
VERTEX
8
CUT
10
80.9388
20
37
0
VERTEX
8
CUT
10
81
20
36
0
VERTEX
8
CUT
10
80.9388
20
35
0
VERTEX
8
CUT
10
80.7551
20
34
0
VERTEX
8
CUT
10
80.449
20
33
0
VERTEX
8
CUT
10
80.0204
20
32
0
VERTEX
8
CUT
10
79.4694
20
31
0
VERTEX
8
CUT
10
78.7959
20
30
0
VERTEX
8
CUT
10
78
20
29
0
SEQEND
0
POLYLINE
8
CUT
66
1
70
0
0
VERTEX
8
CUT
10
78
20
26
0
VERTEX
8
CUT
10
78.7959
20
25
0
VERTEX
8
CUT
10
79.4694
20
24
0
VERTEX
8
CUT
10
80.0204
20
23
0
VERTEX
8
CUT
10
80.449
20
22
0
VERTEX
8
CUT
10
80.7551
20
21
0
VERTEX
8
CUT
10
80.9388
20
20
0
VERTEX
8
CUT
10
81
20
19
0
VERTEX
8
CUT
10
80.9388
20
18
0
VERTEX
8
CUT
10
80.7551
20
17
0
VERTEX
8
CUT
10
80.449
20
16
0
VERTEX
8
CUT
10
80.0204
20
15
0
VERTEX
8
CUT
10
79.4694
20
14
0
VERTEX
8
CUT
10
78.7959
20
13
0
VERTEX
8
CUT
10
78
20
12
0
SEQEND
0
POLYLINE
8
CUT
66
1
70
0
0
VERTEX
8
CUT
10
78
20
9
0
VERTEX
8
CUT
10
78.7959
20
8
0
VERTEX
8
CUT
10
79.4694
20
7
0
VERTEX
8
CUT
10
80.0204
20
6
0
VERTEX
8
CUT
10
80.449
20
5
0
VERTEX
8
CUT
10
80.7551
20
4
0
VERTEX
8
CUT
10
80.9388
20
3
0
VERTEX
8
CUT
10
81
20
2
0
VERTEX
8
CUT
10
80.9388
20
1
0
VERTEX
8
CUT
10
80.7551
20
0
0
VERTEX
8
CUT
10
80.7551
20
0
0
SEQEND
0
POLYLINE
8
CUT
66
1
70
0
0
VERTEX
8
CUT
10
87
20
68.5
0
VERTEX
8
CUT
10
86.2041
20
67.5
0
VERTEX
8
CUT
10
85.5306
20
66.5
0
VERTEX
8
CUT
10
84.9796
20
65.5
0
VERTEX
8
CUT
10
84.551
20
64.5
0
VERTEX
8
CUT
10
84.2449
20
63.5
0
VERTEX
8
CUT
10
84.0612
20
62.5
0
VERTEX
8
CUT
10
84
20
61.5
0
VERTEX
8
CUT
10
84.0612
20
60.5
0
VERTEX
8
CUT
10
84.2449
20
59.5
0
VERTEX
8
CUT
10
84.551
20
58.5
0
VERTEX
8
CUT
10
84.9796
20
57.5
0
VERTEX
8
CUT
10
85.5306
20
56.5
0
VERTEX
8
CUT
10
86.2041
20
55.5
0
VERTEX
8
CUT
10
87
20
54.5
0
SEQEND
0
POLYLINE
8
CUT
66
1
70
0
0
VERTEX
8
CUT
10
87
20
51.5
0
VERTEX
8
CUT
10
86.2041
20
50.5
0
VERTEX
8
CUT
10
85.5306
20
49.5
0
VERTEX
8
CUT
10
84.9796
20
48.5
0
VERTEX
8
CUT
10
84.551
20
47.5
0
VERTEX
8
CUT
10
84.2449
20
46.5
0
VERTEX
8
CUT
10
84.0612
20
45.5
0
VERTEX
8
CUT
10
84
20
44.5
0
VERTEX
8
CUT
10
84.0612
20
43.5
0
VERTEX
8
CUT
10
84.2449
20
42.5
0
VERTEX
8
CUT
10
84.551
20
41.5
0
VERTEX
8
CUT
10
84.9796
20
40.5
0
VERTEX
8
CUT
10
85.5306
20
39.5
0
VERTEX
8
CUT
10
86.2041
20
38.5
0
VERTEX
8
CUT
10
87
20
37.5
0
SEQEND
0
POLYLINE
8
CUT
66
1
70
0
0
VERTEX
8
CUT
10
87
20
34.5
0
VERTEX
8
CUT
10
86.2041
20
33.5
0
VERTEX
8
CUT
10
85.5306
20
32.5
0
VERTEX
8
CUT
10
84.9796
20
31.5
0
VERTEX
8
CUT
10
84.551
20
30.5
0
VERTEX
8
CUT
10
84.2449
20
29.5
0
VERTEX
8
CUT
10
84.0612
20
28.5
0
VERTEX
8
CUT
10
84
20
27.5
0
VERTEX
8
CUT
10
84.0612
20
26.5
0
VERTEX
8
CUT
10
84.2449
20
25.5
0
VERTEX
8
CUT
10
84.551
20
24.5
0
VERTEX
8
CUT
10
84.9796
20
23.5
0
VERTEX
8
CUT
10
85.5306
20
22.5
0
VERTEX
8
CUT
10
86.2041
20
21.5
0
VERTEX
8
CUT
10
87
20
20.5
0
SEQEND
0
POLYLINE
8
CUT
66
1
70
0
0
VERTEX
8
CUT
10
87
20
17.5
0
VERTEX
8
CUT
10
86.2041
20
16.5
0
VERTEX
8
CUT
10
85.5306
20
15.5
0
VERTEX
8
CUT
10
84.9796
20
14.5
0
VERTEX
8
CUT
10
84.551
20
13.5
0
VERTEX
8
CUT
10
84.2449
20
12.5
0
VERTEX
8
CUT
10
84.0612
20
11.5
0
VERTEX
8
CUT
10
84
20
10.5
0
VERTEX
8
CUT
10
84.0612
20
9.5
0
VERTEX
8
CUT
10
84.2449
20
8.5
0
VERTEX
8
CUT
10
84.551
20
7.5
0
VERTEX
8
CUT
10
84.9796
20
6.5
0
VERTEX
8
CUT
10
85.5306
20
5.5
0
VERTEX
8
CUT
10
86.2041
20
4.5
0
VERTEX
8
CUT
10
87
20
3.5
0
SEQEND
0
LINE
8
CUT
10
87
20
0.5
11
86.602
21
0
0
POLYLINE
8
CUT
66
1
70
0
0
VERTEX
8
CUT
10
99
20
70
0
VERTEX
8
CUT
10
99
20
70
0
VERTEX
8
CUT
10
98.9388
20
69
0
VERTEX
8
CUT
10
98.7551
20
68
0
VERTEX
8
CUT
10
98.449
20
67
0
VERTEX
8
CUT
10
98.0204
20
66
0
VERTEX
8
CUT
10
97.4694
20
65
0
VERTEX
8
CUT
10
96.7959
20
64
0
VERTEX
8
CUT
10
96
20
63
0
SEQEND
0
POLYLINE
8
CUT
66
1
70
0
0
VERTEX
8
CUT
10
96
20
60
0
VERTEX
8
CUT
10
96.7959
20
59
0
VERTEX
8
CUT
10
97.4694
20
58
0
VERTEX
8
CUT
10
98.0204
20
57
0
VERTEX
8
CUT
10
98.449
20
56
0
VERTEX
8
CUT
10
98.7551
20
55
0
VERTEX
8
CUT
10
98.9388
20
54
0
VERTEX
8
CUT
10
99
20
53
0
VERTEX
8
CUT
10
98.9388
20
52
0
VERTEX
8
CUT
10
98.7551
20
51
0
VERTEX
8
CUT
10
98.449
20
50
0
VERTEX
8
CUT
10
98.0204
20
49
0
VERTEX
8
CUT
10
97.4694
20
48
0
VERTEX
8
CUT
10
96.7959
20
47
0
VERTEX
8
CUT
10
96
20
46
0
SEQEND
0
POLYLINE
8
CUT
66
1
70
0
0
VERTEX
8
CUT
10
96
20
43
0
VERTEX
8
CUT
10
96.7959
20
42
0
VERTEX
8
CUT
10
97.4694
20
41
0
VERTEX
8
CUT
10
98.0204
20
40
0
VERTEX
8
CUT
10
98.449
20
39
0
VERTEX
8
CUT
10
98.7551
20
38
0
VERTEX
8
CUT
10
98.9388
20
37
0
VERTEX
8
CUT
10
99
20
36
0
VERTEX
8
CUT
10
98.9388
20
35
0
VERTEX
8
CUT
10
98.7551
20
34
0
VERTEX
8
CUT
10
98.449
20
33
0
VERTEX
8
CUT
10
98.0204
20
32
0
VERTEX
8
CUT
10
97.4694
20
31
0
VERTEX
8
CUT
10
96.7959
20
30
0
VERTEX
8
CUT
10
96
20
29
0
SEQEND
0
POLYLINE
8
CUT
66
1
70
0
0
VERTEX
8
CUT
10
96
20
26
0
VERTEX
8
CUT
10
96.7959
20
25
0
VERTEX
8
CUT
10
97.4694
20
24
0
VERTEX
8
CUT
10
98.0204
20
23
0
VERTEX
8
CUT
10
98.449
20
22
0
VERTEX
8
CUT
10
98.7551
20
21
0
VERTEX
8
CUT
10
98.9388
20
20
0
VERTEX
8
CUT
10
99
20
19
0
VERTEX
8
CUT
10
98.9388
20
18
0
VERTEX
8
CUT
10
98.7551
20
17
0
VERTEX
8
CUT
10
98.449
20
16
0
VERTEX
8
CUT
10
98.0204
20
15
0
VERTEX
8
CUT
10
97.4694
20
14
0
VERTEX
8
CUT
10
96.7959
20
13
0
VERTEX
8
CUT
10
96
20
12
0
SEQEND
0
POLYLINE
8
CUT
66
1
70
0
0
VERTEX
8
CUT
10
96
20
9
0
VERTEX
8
CUT
10
96.7959
20
8
0
VERTEX
8
CUT
10
97.4694
20
7
0
VERTEX
8
CUT
10
98.0204
20
6
0
VERTEX
8
CUT
10
98.449
20
5
0
VERTEX
8
CUT
10
98.7551
20
4
0
VERTEX
8
CUT
10
98.9388
20
3
0
VERTEX
8
CUT
10
99
20
2
0
VERTEX
8
CUT
10
98.9388
20
1
0
VERTEX
8
CUT
10
98.7551
20
0
0
VERTEX
8
CUT
10
98.7551
20
0
0
SEQEND
0
POLYLINE
8
CUT
66
1
70
0
0
VERTEX
8
CUT
10
105
20
68.5
0
VERTEX
8
CUT
10
104.2041
20
67.5
0
VERTEX
8
CUT
10
103.5306
20
66.5
0
VERTEX
8
CUT
10
102.9796
20
65.5
0
VERTEX
8
CUT
10
102.551
20
64.5
0
VERTEX
8
CUT
10
102.2449
20
63.5
0
VERTEX
8
CUT
10
102.0612
20
62.5
0
VERTEX
8
CUT
10
102
20
61.5
0
VERTEX
8
CUT
10
102.0612
20
60.5
0
VERTEX
8
CUT
10
102.2449
20
59.5
0
VERTEX
8
CUT
10
102.551
20
58.5
0
VERTEX
8
CUT
10
102.9796
20
57.5
0
VERTEX
8
CUT
10
103.5306
20
56.5
0
VERTEX
8
CUT
10
104.2041
20
55.5
0
VERTEX
8
CUT
10
105
20
54.5
0
SEQEND
0
POLYLINE
8
CUT
66
1
70
0
0
VERTEX
8
CUT
10
105
20
51.5
0
VERTEX
8
CUT
10
104.2041
20
50.5
0
VERTEX
8
CUT
10
103.5306
20
49.5
0
VERTEX
8
CUT
10
102.9796
20
48.5
0
VERTEX
8
CUT
10
102.551
20
47.5
0
VERTEX
8
CUT
10
102.2449
20
46.5
0
VERTEX
8
CUT
10
102.0612
20
45.5
0
VERTEX
8
CUT
10
102
20
44.5
0
VERTEX
8
CUT
10
102.0612
20
43.5
0
VERTEX
8
CUT
10
102.2449
20
42.5
0
VERTEX
8
CUT
10
102.551
20
41.5
0
VERTEX
8
CUT
10
102.9796
20
40.5
0
VERTEX
8
CUT
10
103.5306
20
39.5
0
VERTEX
8
CUT
10
104.2041
20
38.5
0
VERTEX
8
CUT
10
105
20
37.5
0
SEQEND
0
POLYLINE
8
CUT
66
1
70
0
0
VERTEX
8
CUT
10
105
20
34.5
0
VERTEX
8
CUT
10
104.2041
20
33.5
0
VERTEX
8
CUT
10
103.5306
20
32.5
0
VERTEX
8
CUT
10
102.9796
20
31.5
0
VERTEX
8
CUT
10
102.551
20
30.5
0
VERTEX
8
CUT
10
102.2449
20
29.5
0
VERTEX
8
CUT
10
102.0612
20
28.5
0
VERTEX
8
CUT
10
102
20
27.5
0
VERTEX
8
CUT
10
102.0612
20
26.5
0
VERTEX
8
CUT
10
102.2449
20
25.5
0
VERTEX
8
CUT
10
102.551
20
24.5
0
VERTEX
8
CUT
10
102.9796
20
23.5
0
VERTEX
8
CUT
10
103.5306
20
22.5
0
VERTEX
8
CUT
10
104.2041
20
21.5
0
VERTEX
8
CUT
10
105
20
20.5
0
SEQEND
0
POLYLINE
8
CUT
66
1
70
0
0
VERTEX
8
CUT
10
105
20
17.5
0
VERTEX
8
CUT
10
104.2041
20
16.5
0
VERTEX
8
CUT
10
103.5306
20
15.5
0
VERTEX
8
CUT
10
102.9796
20
14.5
0
VERTEX
8
CUT
10
102.551
20
13.5
0
VERTEX
8
CUT
10
102.2449
20
12.5
0
VERTEX
8
CUT
10
102.0612
20
11.5
0
VERTEX
8
CUT
10
102
20
10.5
0
VERTEX
8
CUT
10
102.0612
20
9.5
0
VERTEX
8
CUT
10
102.2449
20
8.5
0
VERTEX
8
CUT
10
102.551
20
7.5
0
VERTEX
8
CUT
10
102.9796
20
6.5
0
VERTEX
8
CUT
10
103.5306
20
5.5
0
VERTEX
8
CUT
10
104.2041
20
4.5
0
VERTEX
8
CUT
10
105
20
3.5
0
SEQEND
0
LINE
8
CUT
10
105
20
0.5
11
104.602
21
0
0
POLYLINE
8
CUT
66
1
70
0
0
VERTEX
8
CUT
10
117
20
70
0
VERTEX
8
CUT
10
117
20
70
0
VERTEX
8
CUT
10
116.9388
20
69
0
VERTEX
8
CUT
10
116.7551
20
68
0
VERTEX
8
CUT
10
116.449
20
67
0
VERTEX
8
CUT
10
116.0204
20
66
0
VERTEX
8
CUT
10
115.4694
20
65
0
VERTEX
8
CUT
10
114.7959
20
64
0
VERTEX
8
CUT
10
114
20
63
0
SEQEND
0
POLYLINE
8
CUT
66
1
70
0
0
VERTEX
8
CUT
10
114
20
60
0
VERTEX
8
CUT
10
114.7959
20
59
0
VERTEX
8
CUT
10
115.4694
20
58
0
VERTEX
8
CUT
10
116.0204
20
57
0
VERTEX
8
CUT
10
116.449
20
56
0
VERTEX
8
CUT
10
116.7551
20
55
0
VERTEX
8
CUT
10
116.9388
20
54
0
VERTEX
8
CUT
10
117
20
53
0
VERTEX
8
CUT
10
116.9388
20
52
0
VERTEX
8
CUT
10
116.7551
20
51
0
VERTEX
8
CUT
10
116.449
20
50
0
VERTEX
8
CUT
10
116.0204
20
49
0
VERTEX
8
CUT
10
115.4694
20
48
0
VERTEX
8
CUT
10
114.7959
20
47
0
VERTEX
8
CUT
10
114
20
46
0
SEQEND
0
POLYLINE
8
CUT
66
1
70
0
0
VERTEX
8
CUT
10
114
20
43
0
VERTEX
8
CUT
10
114.7959
20
42
0
VERTEX
8
CUT
10
115.4694
20
41
0
VERTEX
8
CUT
10
116.0204
20
40
0
VERTEX
8
CUT
10
116.449
20
39
0
VERTEX
8
CUT
10
116.7551
20
38
0
VERTEX
8
CUT
10
116.9388
20
37
0
VERTEX
8
CUT
10
117
20
36
0
VERTEX
8
CUT
10
116.9388
20
35
0
VERTEX
8
CUT
10
116.7551
20
34
0
VERTEX
8
CUT
10
116.449
20
33
0
VERTEX
8
CUT
10
116.0204
20
32
0
VERTEX
8
CUT
10
115.4694
20
31
0
VERTEX
8
CUT
10
114.7959
20
30
0
VERTEX
8
CUT
10
114
20
29
0
SEQEND
0
POLYLINE
8
CUT
66
1
70
0
0
VERTEX
8
CUT
10
114
20
26
0
VERTEX
8
CUT
10
114.7959
20
25
0
VERTEX
8
CUT
10
115.4694
20
24
0
VERTEX
8
CUT
10
116.0204
20
23
0
VERTEX
8
CUT
10
116.449
20
22
0
VERTEX
8
CUT
10
116.7551
20
21
0
VERTEX
8
CUT
10
116.9388
20
20
0
VERTEX
8
CUT
10
117
20
19
0
VERTEX
8
CUT
10
116.9388
20
18
0
VERTEX
8
CUT
10
116.7551
20
17
0
VERTEX
8
CUT
10
116.449
20
16
0
VERTEX
8
CUT
10
116.0204
20
15
0
VERTEX
8
CUT
10
115.4694
20
14
0
VERTEX
8
CUT
10
114.7959
20
13
0
VERTEX
8
CUT
10
114
20
12
0
SEQEND
0
POLYLINE
8
CUT
66
1
70
0
0
VERTEX
8
CUT
10
114
20
9
0
VERTEX
8
CUT
10
114.7959
20
8
0
VERTEX
8
CUT
10
115.4694
20
7
0
VERTEX
8
CUT
10
116.0204
20
6
0
VERTEX
8
CUT
10
116.449
20
5
0
VERTEX
8
CUT
10
116.7551
20
4
0
VERTEX
8
CUT
10
116.9388
20
3
0
VERTEX
8
CUT
10
117
20
2
0
VERTEX
8
CUT
10
116.9388
20
1
0
VERTEX
8
CUT
10
116.7551
20
0
0
VERTEX
8
CUT
10
116.7551
20
0
0
SEQEND
0
POLYLINE
8
CUT
66
1
70
0
0
VERTEX
8
CUT
10
0
20
70
0
VERTEX
8
CUT
10
120
20
70
0
VERTEX
8
CUT
10
120
20
0
0
VERTEX
8
CUT
10
0
20
0
0
VERTEX
8
CUT
10
0
20
70
0
SEQEND
0
ENDSEC
0
EOF
