0
SECTION
2
HEADER
9
$ACADVER
1
AC1009
9
$INSUNITS
70
4
0
ENDSEC
0
SECTION
2
TABLES
0
TABLE
2
LAYER
70
1
0
LAYER
2
CUT
70
0
62
1
6
CONTINUOUS
0
ENDTAB
0
ENDSEC
0
SECTION
2
ENTITIES
0
POLYLINE
8
CUT
66
1
70
0
0
VERTEX
8
CUT
10
0
20
62
0
VERTEX
8
CUT
10
7
20
60.5
0
VERTEX
8
CUT
10
14
20
62
0
VERTEX
8
CUT
10
7
20
63.5
0
VERTEX
8
CUT
10
0
20
62
0
SEQEND
0
POLYLINE
8
CUT
66
1
70
0
0
VERTEX
8
CUT
10
17
20
62
0
VERTEX
8
CUT
10
24
20
60.5
0
VERTEX
8
CUT
10
31
20
62
0
VERTEX
8
CUT
10
24
20
63.5
0
VERTEX
8
CUT
10
17
20
62
0
SEQEND
0
POLYLINE
8
CUT
66
1
70
0
0
VERTEX
8
CUT
10
34
20
62
0
VERTEX
8
CUT
10
41
20
60.5
0
VERTEX
8
CUT
10
48
20
62
0
VERTEX
8
CUT
10
41
20
63.5
0
VERTEX
8
CUT
10
34
20
62
0
SEQEND
0
POLYLINE
8
CUT
66
1
70
0
0
VERTEX
8
CUT
10
51
20
62
0
VERTEX
8
CUT
10
58
20
60.5
0
VERTEX
8
CUT
10
65
20
62
0
VERTEX
8
CUT
10
58
20
63.5
0
VERTEX
8
CUT
10
51
20
62
0
SEQEND
0
POLYLINE
8
CUT
66
1
70
0
0
VERTEX
8
CUT
10
68
20
62
0
VERTEX
8
CUT
10
75
20
60.5
0
VERTEX
8
CUT
10
82
20
62
0
VERTEX
8
CUT
10
75
20
63.5
0
VERTEX
8
CUT
10
68
20
62
0
SEQEND
0
POLYLINE
8
CUT
66
1
70
0
0
VERTEX
8
CUT
10
85
20
62
0
VERTEX
8
CUT
10
92
20
60.5
0
VERTEX
8
CUT
10
99
20
62
0
VERTEX
8
CUT
10
92
20
63.5
0
VERTEX
8
CUT
10
85
20
62
0
SEQEND
0
POLYLINE
8
CUT
66
1
70
0
0
VERTEX
8
CUT
10
102
20
62
0
VERTEX
8
CUT
10
109
20
60.5
0
VERTEX
8
CUT
10
116
20
62
0
VERTEX
8
CUT
10
109
20
63.5
0
VERTEX
8
CUT
10
102
20
62
0
SEQEND
0
LINE
8
CUT
10
119
20
62
11
120
21
61.7857
0
LINE
8
CUT
10
120
20
62.2143
11
119
21
62
0
POLYLINE
8
CUT
66
1
70
0
0
VERTEX
8
CUT
10
0
20
51.8214
0
VERTEX
8
CUT
10
5.5
20
53
0
VERTEX
8
CUT
10
0
20
54.1786
0
SEQEND
0
POLYLINE
8
CUT
66
1
70
0
0
VERTEX
8
CUT
10
8.5
20
53
0
VERTEX
8
CUT
10
15.5
20
51.5
0
VERTEX
8
CUT
10
22.5
20
53
0
VERTEX
8
CUT
10
15.5
20
54.5
0
VERTEX
8
CUT
10
8.5
20
53
0
SEQEND
0
POLYLINE
8
CUT
66
1
70
0
0
VERTEX
8
CUT
10
25.5
20
53
0
VERTEX
8
CUT
10
32.5
20
51.5
0
VERTEX
8
CUT
10
39.5
20
53
0
VERTEX
8
CUT
10
32.5
20
54.5
0
VERTEX
8
CUT
10
25.5
20
53
0
SEQEND
0
POLYLINE
8
CUT
66
1
70
0
0
VERTEX
8
CUT
10
42.5
20
53
0
VERTEX
8
CUT
10
49.5
20
51.5
0
VERTEX
8
CUT
10
56.5
20
53
0
VERTEX
8
CUT
10
49.5
20
54.5
0
VERTEX
8
CUT
10
42.5
20
53
0
SEQEND
0
POLYLINE
8
CUT
66
1
70
0
0
VERTEX
8
CUT
10
59.5
20
53
0
VERTEX
8
CUT
10
66.5
20
51.5
0
VERTEX
8
CUT
10
73.5
20
53
0
VERTEX
8
CUT
10
66.5
20
54.5
0
VERTEX
8
CUT
10
59.5
20
53
0
SEQEND
0
POLYLINE
8
CUT
66
1
70
0
0
VERTEX
8
CUT
10
76.5
20
53
0
VERTEX
8
CUT
10
83.5
20
51.5
0
VERTEX
8
CUT
10
90.5
20
53
0
VERTEX
8
CUT
10
83.5
20
54.5
0
VERTEX
8
CUT
10
76.5
20
53
0
SEQEND
0
POLYLINE
8
CUT
66
1
70
0
0
VERTEX
8
CUT
10
93.5
20
53
0
VERTEX
8
CUT
10
100.5
20
51.5
0
VERTEX
8
CUT
10
107.5
20
53
0
VERTEX
8
CUT
10
100.5
20
54.5
0
VERTEX
8
CUT
10
93.5
20
53
0
SEQEND
0
POLYLINE
8
CUT
66
1
70
0
0
VERTEX
8
CUT
10
110.5
20
53
0
VERTEX
8
CUT
10
117.5
20
51.5
0
VERTEX
8
CUT
10
120
20
52.0357
0
SEQEND
0
POLYLINE
8
CUT
66
1
70
0
0
VERTEX
8
CUT
10
120
20
53.9643
0
VERTEX
8
CUT
10
117.5
20
54.5
0
VERTEX
8
CUT
10
110.5
20
53
0
SEQEND
0
POLYLINE
8
CUT
66
1
70
0
0
VERTEX
8
CUT
10
0
20
44
0
VERTEX
8
CUT
10
7
20
42.5
0
VERTEX
8
CUT
10
14
20
44
0
VERTEX
8
CUT
10
7
20
45.5
0
VERTEX
8
CUT
10
0
20
44
0
SEQEND
0
POLYLINE
8
CUT
66
1
70
0
0
VERTEX
8
CUT
10
17
20
44
0
VERTEX
8
CUT
10
24
20
42.5
0
VERTEX
8
CUT
10
31
20
44
0
VERTEX
8
CUT
10
24
20
45.5
0
VERTEX
8
CUT
10
17
20
44
0
SEQEND
0
POLYLINE
8
CUT
66
1
70
0
0
VERTEX
8
CUT
10
34
20
44
0
VERTEX
8
CUT
10
41
20
42.5
0
VERTEX
8
CUT
10
48
20
44
0
VERTEX
8
CUT
10
41
20
45.5
0
VERTEX
8
CUT
10
34
20
44
0
SEQEND
0
POLYLINE
8
CUT
66
1
70
0
0
VERTEX
8
CUT
10
51
20
44
0
VERTEX
8
CUT
10
58
20
42.5
0
VERTEX
8
CUT
10
65
20
44
0
VERTEX
8
CUT
10
58
20
45.5
0
VERTEX
8
CUT
10
51
20
44
0
SEQEND
0
POLYLINE
8
CUT
66
1
70
0
0
VERTEX
8
CUT
10
68
20
44
0
VERTEX
8
CUT
10
75
20
42.5
0
VERTEX
8
CUT
10
82
20
44
0
VERTEX
8
CUT
10
75
20
45.5
0
VERTEX
8
CUT
10
68
20
44
0
SEQEND
0
POLYLINE
8
CUT
66
1
70
0
0
VERTEX
8
CUT
10
85
20
44
0
VERTEX
8
CUT
10
92
20
42.5
0
VERTEX
8
CUT
10
99
20
44
0
VERTEX
8
CUT
10
92
20
45.5
0
VERTEX
8
CUT
10
85
20
44
0
SEQEND
0
POLYLINE
8
CUT
66
1
70
0
0
VERTEX
8
CUT
10
102
20
44
0
VERTEX
8
CUT
10
109
20
42.5
0
VERTEX
8
CUT
10
116
20
44
0
VERTEX
8
CUT
10
109
20
45.5
0
VERTEX
8
CUT
10
102
20
44
0
SEQEND
0
LINE
8
CUT
10
119
20
44
11
120
21
43.7857
0
LINE
8
CUT
10
120
20
44.2143
11
119
21
44
0
POLYLINE
8
CUT
66
1
70
0
0
VERTEX
8
CUT
10
0
20
33.8214
0
VERTEX
8
CUT
10
5.5
20
35
0
VERTEX
8
CUT
10
0
20
36.1786
0
SEQEND
0
POLYLINE
8
CUT
66
1
70
0
0
VERTEX
8
CUT
10
8.5
20
35
0
VERTEX
8
CUT
10
15.5
20
33.5
0
VERTEX
8
CUT
10
22.5
20
35
0
VERTEX
8
CUT
10
15.5
20
36.5
0
VERTEX
8
CUT
10
8.5
20
35
0
SEQEND
0
POLYLINE
8
CUT
66
1
70
0
0
VERTEX
8
CUT
10
25.5
20
35
0
VERTEX
8
CUT
10
32.5
20
33.5
0
VERTEX
8
CUT
10
39.5
20
35
0
VERTEX
8
CUT
10
32.5
20
36.5
0
VERTEX
8
CUT
10
25.5
20
35
0
SEQEND
0
POLYLINE
8
CUT
66
1
70
0
0
VERTEX
8
CUT
10
42.5
20
35
0
VERTEX
8
CUT
10
49.5
20
33.5
0
VERTEX
8
CUT
10
56.5
20
35
0
VERTEX
8
CUT
10
49.5
20
36.5
0
VERTEX
8
CUT
10
42.5
20
35
0
SEQEND
0
POLYLINE
8
CUT
66
1
70
0
0
VERTEX
8
CUT
10
59.5
20
35
0
VERTEX
8
CUT
10
66.5
20
33.5
0
VERTEX
8
CUT
10
73.5
20
35
0
VERTEX
8
CUT
10
66.5
20
36.5
0
VERTEX
8
CUT
10
59.5
20
35
0
SEQEND
0
POLYLINE
8
CUT
66
1
70
0
0
VERTEX
8
CUT
10
76.5
20
35
0
VERTEX
8
CUT
10
83.5
20
33.5
0
VERTEX
8
CUT
10
90.5
20
35
0
VERTEX
8
CUT
10
83.5
20
36.5
0
VERTEX
8
CUT
10
76.5
20
35
0
SEQEND
0
POLYLINE
8
CUT
66
1
70
0
0
VERTEX
8
CUT
10
93.5
20
35
0
VERTEX
8
CUT
10
100.5
20
33.5
0
VERTEX
8
CUT
10
107.5
20
35
0
VERTEX
8
CUT
10
100.5
20
36.5
0
VERTEX
8
CUT
10
93.5
20
35
0
SEQEND
0
POLYLINE
8
CUT
66
1
70
0
0
VERTEX
8
CUT
10
110.5
20
35
0
VERTEX
8
CUT
10
117.5
20
33.5
0
VERTEX
8
CUT
10
120
20
34.0357
0
SEQEND
0
POLYLINE
8
CUT
66
1
70
0
0
VERTEX
8
CUT
10
120
20
35.9643
0
VERTEX
8
CUT
10
117.5
20
36.5
0
VERTEX
8
CUT
10
110.5
20
35
0
SEQEND
0
POLYLINE
8
CUT
66
1
70
0
0
VERTEX
8
CUT
10
0
20
26
0
VERTEX
8
CUT
10
7
20
24.5
0
VERTEX
8
CUT
10
14
20
26
0
VERTEX
8
CUT
10
7
20
27.5
0
VERTEX
8
CUT
10
0
20
26
0
SEQEND
0
POLYLINE
8
CUT
66
1
70
0
0
VERTEX
8
CUT
10
17
20
26
0
VERTEX
8
CUT
10
24
20
24.5
0
VERTEX
8
CUT
10
31
20
26
0
VERTEX
8
CUT
10
24
20
27.5
0
VERTEX
8
CUT
10
17
20
26
0
SEQEND
0
POLYLINE
8
CUT
66
1
70
0
0
VERTEX
8
CUT
10
34
20
26
0
VERTEX
8
CUT
10
41
20
24.5
0
VERTEX
8
CUT
10
48
20
26
0
VERTEX
8
CUT
10
41
20
27.5
0
VERTEX
8
CUT
10
34
20
26
0
SEQEND
0
POLYLINE
8
CUT
66
1
70
0
0
VERTEX
8
CUT
10
51
20
26
0
VERTEX
8
CUT
10
58
20
24.5
0
VERTEX
8
CUT
10
65
20
26
0
VERTEX
8
CUT
10
58
20
27.5
0
VERTEX
8
CUT
10
51
20
26
0
SEQEND
0
POLYLINE
8
CUT
66
1
70
0
0
VERTEX
8
CUT
10
68
20
26
0
VERTEX
8
CUT
10
75
20
24.5
0
VERTEX
8
CUT
10
82
20
26
0
VERTEX
8
CUT
10
75
20
27.5
0
VERTEX
8
CUT
10
68
20
26
0
SEQEND
0
POLYLINE
8
CUT
66
1
70
0
0
VERTEX
8
CUT
10
85
20
26
0
VERTEX
8
CUT
10
92
20
24.5
0
VERTEX
8
CUT
10
99
20
26
0
VERTEX
8
CUT
10
92
20
27.5
0
VERTEX
8
CUT
10
85
20
26
0
SEQEND
0
POLYLINE
8
CUT
66
1
70
0
0
VERTEX
8
CUT
10
102
20
26
0
VERTEX
8
CUT
10
109
20
24.5
0
VERTEX
8
CUT
10
116
20
26
0
VERTEX
8
CUT
10
109
20
27.5
0
VERTEX
8
CUT
10
102
20
26
0
SEQEND
0
LINE
8
CUT
10
119
20
26
11
120
21
25.7857
0
LINE
8
CUT
10
120
20
26.2143
11
119
21
26
0
POLYLINE
8
CUT
66
1
70
0
0
VERTEX
8
CUT
10
0
20
15.8214
0
VERTEX
8
CUT
10
5.5
20
17
0
VERTEX
8
CUT
10
0
20
18.1786
0
SEQEND
0
POLYLINE
8
CUT
66
1
70
0
0
VERTEX
8
CUT
10
8.5
20
17
0
VERTEX
8
CUT
10
15.5
20
15.5
0
VERTEX
8
CUT
10
22.5
20
17
0
VERTEX
8
CUT
10
15.5
20
18.5
0
VERTEX
8
CUT
10
8.5
20
17
0
SEQEND
0
POLYLINE
8
CUT
66
1
70
0
0
VERTEX
8
CUT
10
25.5
20
17
0
VERTEX
8
CUT
10
32.5
20
15.5
0
VERTEX
8
CUT
10
39.5
20
17
0
VERTEX
8
CUT
10
32.5
20
18.5
0
VERTEX
8
CUT
10
25.5
20
17
0
SEQEND
0
POLYLINE
8
CUT
66
1
70
0
0
VERTEX
8
CUT
10
42.5
20
17
0
VERTEX
8
CUT
10
49.5
20
15.5
0
VERTEX
8
CUT
10
56.5
20
17
0
VERTEX
8
CUT
10
49.5
20
18.5
0
VERTEX
8
CUT
10
42.5
20
17
0
SEQEND
0
POLYLINE
8
CUT
66
1
70
0
0
VERTEX
8
CUT
10
59.5
20
17
0
VERTEX
8
CUT
10
66.5
20
15.5
0
VERTEX
8
CUT
10
73.5
20
17
0
VERTEX
8
CUT
10
66.5
20
18.5
0
VERTEX
8
CUT
10
59.5
20
17
0
SEQEND
0
POLYLINE
8
CUT
66
1
70
0
0
VERTEX
8
CUT
10
76.5
20
17
0
VERTEX
8
CUT
10
83.5
20
15.5
0
VERTEX
8
CUT
10
90.5
20
17
0
VERTEX
8
CUT
10
83.5
20
18.5
0
VERTEX
8
CUT
10
76.5
20
17
0
SEQEND
0
POLYLINE
8
CUT
66
1
70
0
0
VERTEX
8
CUT
10
93.5
20
17
0
VERTEX
8
CUT
10
100.5
20
15.5
0
VERTEX
8
CUT
10
107.5
20
17
0
VERTEX
8
CUT
10
100.5
20
18.5
0
VERTEX
8
CUT
10
93.5
20
17
0
SEQEND
0
POLYLINE
8
CUT
66
1
70
0
0
VERTEX
8
CUT
10
110.5
20
17
0
VERTEX
8
CUT
10
117.5
20
15.5
0
VERTEX
8
CUT
10
120
20
16.0357
0
SEQEND
0
POLYLINE
8
CUT
66
1
70
0
0
VERTEX
8
CUT
10
120
20
17.9643
0
VERTEX
8
CUT
10
117.5
20
18.5
0
VERTEX
8
CUT
10
110.5
20
17
0
SEQEND
0
POLYLINE
8
CUT
66
1
70
0
0
VERTEX
8
CUT
10
0
20
8
0
VERTEX
8
CUT
10
7
20
6.5
0
VERTEX
8
CUT
10
14
20
8
0
VERTEX
8
CUT
10
7
20
9.5
0
VERTEX
8
CUT
10
0
20
8
0
SEQEND
0
POLYLINE
8
CUT
66
1
70
0
0
VERTEX
8
CUT
10
17
20
8
0
VERTEX
8
CUT
10
24
20
6.5
0
VERTEX
8
CUT
10
31
20
8
0
VERTEX
8
CUT
10
24
20
9.5
0
VERTEX
8
CUT
10
17
20
8
0
SEQEND
0
POLYLINE
8
CUT
66
1
70
0
0
VERTEX
8
CUT
10
34
20
8
0
VERTEX
8
CUT
10
41
20
6.5
0
VERTEX
8
CUT
10
48
20
8
0
VERTEX
8
CUT
10
41
20
9.5
0
VERTEX
8
CUT
10
34
20
8
0
SEQEND
0
POLYLINE
8
CUT
66
1
70
0
0
VERTEX
8
CUT
10
51
20
8
0
VERTEX
8
CUT
10
58
20
6.5
0
VERTEX
8
CUT
10
65
20
8
0
VERTEX
8
CUT
10
58
20
9.5
0
VERTEX
8
CUT
10
51
20
8
0
SEQEND
0
POLYLINE
8
CUT
66
1
70
0
0
VERTEX
8
CUT
10
68
20
8
0
VERTEX
8
CUT
10
75
20
6.5
0
VERTEX
8
CUT
10
82
20
8
0
VERTEX
8
CUT
10
75
20
9.5
0
VERTEX
8
CUT
10
68
20
8
0
SEQEND
0
POLYLINE
8
CUT
66
1
70
0
0
VERTEX
8
CUT
10
85
20
8
0
VERTEX
8
CUT
10
92
20
6.5
0
VERTEX
8
CUT
10
99
20
8
0
VERTEX
8
CUT
10
92
20
9.5
0
VERTEX
8
CUT
10
85
20
8
0
SEQEND
0
POLYLINE
8
CUT
66
1
70
0
0
VERTEX
8
CUT
10
102
20
8
0
VERTEX
8
CUT
10
109
20
6.5
0
VERTEX
8
CUT
10
116
20
8
0
VERTEX
8
CUT
10
109
20
9.5
0
VERTEX
8
CUT
10
102
20
8
0
SEQEND
0
LINE
8
CUT
10
119
20
8
11
120
21
7.7857
0
LINE
8
CUT
10
120
20
8.2143
11
119
21
8
0
POLYLINE
8
CUT
66
1
70
0
0
VERTEX
8
CUT
10
0
20
70
0
VERTEX
8
CUT
10
120
20
70
0
VERTEX
8
CUT
10
120
20
0
0
VERTEX
8
CUT
10
0
20
0
0
VERTEX
8
CUT
10
0
20
70
0
SEQEND
0
ENDSEC
0
EOF
