0
SECTION
2
HEADER
9
$ACADVER
1
AC1009
9
$INSUNITS
70
4
0
ENDSEC
0
SECTION
2
TABLES
0
TABLE
2
LAYER
70
1
0
LAYER
2
CUT
70
0
62
1
6
CONTINUOUS
0
ENDTAB
0
ENDSEC
0
SECTION
2
ENTITIES
0
LINE
8
CUT
10
0
20
69.6222
11
0.551
21
69.9589
0
LINE
8
CUT
10
0
20
68.1778
11
0.551
21
67.8411
0
LINE
8
CUT
10
0
20
66.7222
11
0.551
21
67.0589
0
LINE
8
CUT
10
0
20
65.2778
11
0.551
21
64.9411
0
LINE
8
CUT
10
0
20
63.8222
11
0.551
21
64.1589
0
LINE
8
CUT
10
0
20
62.3778
11
0.551
21
62.0411
0
LINE
8
CUT
10
0
20
60.9222
11
0.551
21
61.2589
0
LINE
8
CUT
10
0
20
59.4778
11
0.551
21
59.1411
0
LINE
8
CUT
10
0
20
58.0222
11
0.551
21
58.3589
0
LINE
8
CUT
10
0
20
56.5778
11
0.551
21
56.2411
0
LINE
8
CUT
10
0
20
55.1222
11
0.551
21
55.4589
0
LINE
8
CUT
10
0
20
53.6778
11
0.551
21
53.3411
0
LINE
8
CUT
10
0
20
52.2222
11
0.551
21
52.5589
0
LINE
8
CUT
10
0
20
50.7778
11
0.551
21
50.4411
0
LINE
8
CUT
10
0
20
49.3222
11
0.551
21
49.6589
0
LINE
8
CUT
10
0
20
47.8778
11
0.551
21
47.5411
0
LINE
8
CUT
10
0
20
46.4222
11
0.551
21
46.7589
0
LINE
8
CUT
10
0
20
44.9778
11
0.551
21
44.6411
0
LINE
8
CUT
10
0
20
43.5222
11
0.551
21
43.8589
0
LINE
8
CUT
10
0
20
42.0778
11
0.551
21
41.7411
0
LINE
8
CUT
10
0
20
40.6222
11
0.551
21
40.9589
0
LINE
8
CUT
10
0
20
39.1778
11
0.551
21
38.8411
0
LINE
8
CUT
10
0
20
37.7222
11
0.551
21
38.0589
0
LINE
8
CUT
10
0
20
36.2778
11
0.551
21
35.9411
0
LINE
8
CUT
10
0
20
34.8222
11
0.551
21
35.1589
0
LINE
8
CUT
10
0
20
33.3778
11
0.551
21
33.0411
0
LINE
8
CUT
10
0
20
31.9222
11
0.551
21
32.2589
0
LINE
8
CUT
10
0
20
30.4778
11
0.551
21
30.1411
0
LINE
8
CUT
10
0
20
29.0222
11
0.551
21
29.3589
0
LINE
8
CUT
10
0
20
27.5778
11
0.551
21
27.2411
0
LINE
8
CUT
10
0
20
26.1222
11
0.551
21
26.4589
0
LINE
8
CUT
10
0
20
24.6778
11
0.551
21
24.3411
0
LINE
8
CUT
10
0
20
23.2222
11
0.551
21
23.5589
0
LINE
8
CUT
10
0
20
21.7778
11
0.551
21
21.4411
0
LINE
8
CUT
10
0
20
20.3222
11
0.551
21
20.6589
0
LINE
8
CUT
10
0
20
18.8778
11
0.551
21
18.5411
0
LINE
8
CUT
10
0
20
17.4222
11
0.551
21
17.7589
0
LINE
8
CUT
10
0
20
15.9778
11
0.551
21
15.6411
0
LINE
8
CUT
10
0
20
14.5222
11
0.551
21
14.8589
0
LINE
8
CUT
10
0
20
13.0778
11
0.551
21
12.7411
0
LINE
8
CUT
10
0
20
11.6222
11
0.551
21
11.9589
0
LINE
8
CUT
10
0
20
10.1778
11
0.551
21
9.8411
0
LINE
8
CUT
10
0
20
8.7222
11
0.551
21
9.0589
0
LINE
8
CUT
10
0
20
7.2778
11
0.551
21
6.9411
0
LINE
8
CUT
10
0
20
5.8222
11
0.551
21
6.1589
0
LINE
8
CUT
10
0
20
4.3778
11
0.551
21
4.0411
0
LINE
8
CUT
10
0
20
2.9222
11
0.551
21
3.2589
0
LINE
8
CUT
10
0
20
1.4778
11
0.551
21
1.1411
0
LINE
8
CUT
10
0
20
0.0222
11
0.551
21
0.3589
0
POLYLINE
8
CUT
66
1
70
0
0
VERTEX
8
CUT
10
0.64
20
69.2911
0
VERTEX
8
CUT
10
1.8
20
70
0
VERTEX
8
CUT
10
7.2
20
70
0
VERTEX
8
CUT
10
8.36
20
69.2911
0
SEQEND
0
POLYLINE
8
CUT
66
1
70
0
0
VERTEX
8
CUT
10
0.64
20
68.5089
0
VERTEX
8
CUT
10
1.8
20
67.8
0
VERTEX
8
CUT
10
7.2
20
67.8
0
VERTEX
8
CUT
10
8.36
20
68.5089
0
SEQEND
0
POLYLINE
8
CUT
66
1
70
0
0
VERTEX
8
CUT
10
0.64
20
66.3911
0
VERTEX
8
CUT
10
1.8
20
67.1
0
VERTEX
8
CUT
10
7.2
20
67.1
0
VERTEX
8
CUT
10
8.36
20
66.3911
0
SEQEND
0
POLYLINE
8
CUT
66
1
70
0
0
VERTEX
8
CUT
10
0.64
20
65.6089
0
VERTEX
8
CUT
10
1.8
20
64.9
0
VERTEX
8
CUT
10
7.2
20
64.9
0
VERTEX
8
CUT
10
8.36
20
65.6089
0
SEQEND
0
POLYLINE
8
CUT
66
1
70
0
0
VERTEX
8
CUT
10
0.64
20
63.4911
0
VERTEX
8
CUT
10
1.8
20
64.2
0
VERTEX
8
CUT
10
7.2
20
64.2
0
VERTEX
8
CUT
10
8.36
20
63.4911
0
SEQEND
0
POLYLINE
8
CUT
66
1
70
0
0
VERTEX
8
CUT
10
0.64
20
62.7089
0
VERTEX
8
CUT
10
1.8
20
62
0
VERTEX
8
CUT
10
7.2
20
62
0
VERTEX
8
CUT
10
8.36
20
62.7089
0
SEQEND
0
POLYLINE
8
CUT
66
1
70
0
0
VERTEX
8
CUT
10
0.64
20
60.5911
0
VERTEX
8
CUT
10
1.8
20
61.3
0
VERTEX
8
CUT
10
7.2
20
61.3
0
VERTEX
8
CUT
10
8.36
20
60.5911
0
SEQEND
0
POLYLINE
8
CUT
66
1
70
0
0
VERTEX
8
CUT
10
0.64
20
59.8089
0
VERTEX
8
CUT
10
1.8
20
59.1
0
VERTEX
8
CUT
10
7.2
20
59.1
0
VERTEX
8
CUT
10
8.36
20
59.8089
0
SEQEND
0
POLYLINE
8
CUT
66
1
70
0
0
VERTEX
8
CUT
10
0.64
20
57.6911
0
VERTEX
8
CUT
10
1.8
20
58.4
0
VERTEX
8
CUT
10
7.2
20
58.4
0
VERTEX
8
CUT
10
8.36
20
57.6911
0
SEQEND
0
POLYLINE
8
CUT
66
1
70
0
0
VERTEX
8
CUT
10
0.64
20
56.9089
0
VERTEX
8
CUT
10
1.8
20
56.2
0
VERTEX
8
CUT
10
7.2
20
56.2
0
VERTEX
8
CUT
10
8.36
20
56.9089
0
SEQEND
0
POLYLINE
8
CUT
66
1
70
0
0
VERTEX
8
CUT
10
0.64
20
54.7911
0
VERTEX
8
CUT
10
1.8
20
55.5
0
VERTEX
8
CUT
10
7.2
20
55.5
0
VERTEX
8
CUT
10
8.36
20
54.7911
0
SEQEND
0
POLYLINE
8
CUT
66
1
70
0
0
VERTEX
8
CUT
10
0.64
20
54.0089
0
VERTEX
8
CUT
10
1.8
20
53.3
0
VERTEX
8
CUT
10
7.2
20
53.3
0
VERTEX
8
CUT
10
8.36
20
54.0089
0
SEQEND
0
POLYLINE
8
CUT
66
1
70
0
0
VERTEX
8
CUT
10
0.64
20
51.8911
0
VERTEX
8
CUT
10
1.8
20
52.6
0
VERTEX
8
CUT
10
7.2
20
52.6
0
VERTEX
8
CUT
10
8.36
20
51.8911
0
SEQEND
0
POLYLINE
8
CUT
66
1
70
0
0
VERTEX
8
CUT
10
0.64
20
51.1089
0
VERTEX
8
CUT
10
1.8
20
50.4
0
VERTEX
8
CUT
10
7.2
20
50.4
0
VERTEX
8
CUT
10
8.36
20
51.1089
0
SEQEND
0
POLYLINE
8
CUT
66
1
70
0
0
VERTEX
8
CUT
10
0.64
20
48.9911
0
VERTEX
8
CUT
10
1.8
20
49.7
0
VERTEX
8
CUT
10
7.2
20
49.7
0
VERTEX
8
CUT
10
8.36
20
48.9911
0
SEQEND
0
POLYLINE
8
CUT
66
1
70
0
0
VERTEX
8
CUT
10
0.64
20
48.2089
0
VERTEX
8
CUT
10
1.8
20
47.5
0
VERTEX
8
CUT
10
7.2
20
47.5
0
VERTEX
8
CUT
10
8.36
20
48.2089
0
SEQEND
0
POLYLINE
8
CUT
66
1
70
0
0
VERTEX
8
CUT
10
0.64
20
46.0911
0
VERTEX
8
CUT
10
1.8
20
46.8
0
VERTEX
8
CUT
10
7.2
20
46.8
0
VERTEX
8
CUT
10
8.36
20
46.0911
0
SEQEND
0
POLYLINE
8
CUT
66
1
70
0
0
VERTEX
8
CUT
10
0.64
20
45.3089
0
VERTEX
8
CUT
10
1.8
20
44.6
0
VERTEX
8
CUT
10
7.2
20
44.6
0
VERTEX
8
CUT
10
8.36
20
45.3089
0
SEQEND
0
POLYLINE
8
CUT
66
1
70
0
0
VERTEX
8
CUT
10
0.64
20
43.1911
0
VERTEX
8
CUT
10
1.8
20
43.9
0
VERTEX
8
CUT
10
7.2
20
43.9
0
VERTEX
8
CUT
10
8.36
20
43.1911
0
SEQEND
0
POLYLINE
8
CUT
66
1
70
0
0
VERTEX
8
CUT
10
0.64
20
42.4089
0
VERTEX
8
CUT
10
1.8
20
41.7
0
VERTEX
8
CUT
10
7.2
20
41.7
0
VERTEX
8
CUT
10
8.36
20
42.4089
0
SEQEND
0
POLYLINE
8
CUT
66
1
70
0
0
VERTEX
8
CUT
10
0.64
20
40.2911
0
VERTEX
8
CUT
10
1.8
20
41
0
VERTEX
8
CUT
10
7.2
20
41
0
VERTEX
8
CUT
10
8.36
20
40.2911
0
SEQEND
0
POLYLINE
8
CUT
66
1
70
0
0
VERTEX
8
CUT
10
0.64
20
39.5089
0
VERTEX
8
CUT
10
1.8
20
38.8
0
VERTEX
8
CUT
10
7.2
20
38.8
0
VERTEX
8
CUT
10
8.36
20
39.5089
0
SEQEND
0
POLYLINE
8
CUT
66
1
70
0
0
VERTEX
8
CUT
10
0.64
20
37.3911
0
VERTEX
8
CUT
10
1.8
20
38.1
0
VERTEX
8
CUT
10
7.2
20
38.1
0
VERTEX
8
CUT
10
8.36
20
37.3911
0
SEQEND
0
POLYLINE
8
CUT
66
1
70
0
0
VERTEX
8
CUT
10
0.64
20
36.6089
0
VERTEX
8
CUT
10
1.8
20
35.9
0
VERTEX
8
CUT
10
7.2
20
35.9
0
VERTEX
8
CUT
10
8.36
20
36.6089
0
SEQEND
0
POLYLINE
8
CUT
66
1
70
0
0
VERTEX
8
CUT
10
0.64
20
34.4911
0
VERTEX
8
CUT
10
1.8
20
35.2
0
VERTEX
8
CUT
10
7.2
20
35.2
0
VERTEX
8
CUT
10
8.36
20
34.4911
0
SEQEND
0
POLYLINE
8
CUT
66
1
70
0
0
VERTEX
8
CUT
10
0.64
20
33.7089
0
VERTEX
8
CUT
10
1.8
20
33
0
VERTEX
8
CUT
10
7.2
20
33
0
VERTEX
8
CUT
10
8.36
20
33.7089
0
SEQEND
0
POLYLINE
8
CUT
66
1
70
0
0
VERTEX
8
CUT
10
0.64
20
31.5911
0
VERTEX
8
CUT
10
1.8
20
32.3
0
VERTEX
8
CUT
10
7.2
20
32.3
0
VERTEX
8
CUT
10
8.36
20
31.5911
0
SEQEND
0
POLYLINE
8
CUT
66
1
70
0
0
VERTEX
8
CUT
10
0.64
20
30.8089
0
VERTEX
8
CUT
10
1.8
20
30.1
0
VERTEX
8
CUT
10
7.2
20
30.1
0
VERTEX
8
CUT
10
8.36
20
30.8089
0
SEQEND
0
POLYLINE
8
CUT
66
1
70
0
0
VERTEX
8
CUT
10
0.64
20
28.6911
0
VERTEX
8
CUT
10
1.8
20
29.4
0
VERTEX
8
CUT
10
7.2
20
29.4
0
VERTEX
8
CUT
10
8.36
20
28.6911
0
SEQEND
0
POLYLINE
8
CUT
66
1
70
0
0
VERTEX
8
CUT
10
0.64
20
27.9089
0
VERTEX
8
CUT
10
1.8
20
27.2
0
VERTEX
8
CUT
10
7.2
20
27.2
0
VERTEX
8
CUT
10
8.36
20
27.9089
0
SEQEND
0
POLYLINE
8
CUT
66
1
70
0
0
VERTEX
8
CUT
10
0.64
20
25.7911
0
VERTEX
8
CUT
10
1.8
20
26.5
0
VERTEX
8
CUT
10
7.2
20
26.5
0
VERTEX
8
CUT
10
8.36
20
25.7911
0
SEQEND
0
POLYLINE
8
CUT
66
1
70
0
0
VERTEX
8
CUT
10
0.64
20
25.0089
0
VERTEX
8
CUT
10
1.8
20
24.3
0
VERTEX
8
CUT
10
7.2
20
24.3
0
VERTEX
8
CUT
10
8.36
20
25.0089
0
SEQEND
0
POLYLINE
8
CUT
66
1
70
0
0
VERTEX
8
CUT
10
0.64
20
22.8911
0
VERTEX
8
CUT
10
1.8
20
23.6
0
VERTEX
8
CUT
10
7.2
20
23.6
0
VERTEX
8
CUT
10
8.36
20
22.8911
0
SEQEND
0
POLYLINE
8
CUT
66
1
70
0
0
VERTEX
8
CUT
10
0.64
20
22.1089
0
VERTEX
8
CUT
10
1.8
20
21.4
0
VERTEX
8
CUT
10
7.2
20
21.4
0
VERTEX
8
CUT
10
8.36
20
22.1089
0
SEQEND
0
POLYLINE
8
CUT
66
1
70
0
0
VERTEX
8
CUT
10
0.64
20
19.9911
0
VERTEX
8
CUT
10
1.8
20
20.7
0
VERTEX
8
CUT
10
7.2
20
20.7
0
VERTEX
8
CUT
10
8.36
20
19.9911
0
SEQEND
0
POLYLINE
8
CUT
66
1
70
0
0
VERTEX
8
CUT
10
0.64
20
19.2089
0
VERTEX
8
CUT
10
1.8
20
18.5
0
VERTEX
8
CUT
10
7.2
20
18.5
0
VERTEX
8
CUT
10
8.36
20
19.2089
0
SEQEND
0
POLYLINE
8
CUT
66
1
70
0
0
VERTEX
8
CUT
10
0.64
20
17.0911
0
VERTEX
8
CUT
10
1.8
20
17.8
0
VERTEX
8
CUT
10
7.2
20
17.8
0
VERTEX
8
CUT
10
8.36
20
17.0911
0
SEQEND
0
POLYLINE
8
CUT
66
1
70
0
0
VERTEX
8
CUT
10
0.64
20
16.3089
0
VERTEX
8
CUT
10
1.8
20
15.6
0
VERTEX
8
CUT
10
7.2
20
15.6
0
VERTEX
8
CUT
10
8.36
20
16.3089
0
SEQEND
0
POLYLINE
8
CUT
66
1
70
0
0
VERTEX
8
CUT
10
0.64
20
14.1911
0
VERTEX
8
CUT
10
1.8
20
14.9
0
VERTEX
8
CUT
10
7.2
20
14.9
0
VERTEX
8
CUT
10
8.36
20
14.1911
0
SEQEND
0
POLYLINE
8
CUT
66
1
70
0
0
VERTEX
8
CUT
10
0.64
20
13.4089
0
VERTEX
8
CUT
10
1.8
20
12.7
0
VERTEX
8
CUT
10
7.2
20
12.7
0
VERTEX
8
CUT
10
8.36
20
13.4089
0
SEQEND
0
POLYLINE
8
CUT
66
1
70
0
0
VERTEX
8
CUT
10
0.64
20
11.2911
0
VERTEX
8
CUT
10
1.8
20
12
0
VERTEX
8
CUT
10
7.2
20
12
0
VERTEX
8
CUT
10
8.36
20
11.2911
0
SEQEND
0
POLYLINE
8
CUT
66
1
70
0
0
VERTEX
8
CUT
10
0.64
20
10.5089
0
VERTEX
8
CUT
10
1.8
20
9.8
0
VERTEX
8
CUT
10
7.2
20
9.8
0
VERTEX
8
CUT
10
8.36
20
10.5089
0
SEQEND
0
POLYLINE
8
CUT
66
1
70
0
0
VERTEX
8
CUT
10
0.64
20
8.3911
0
VERTEX
8
CUT
10
1.8
20
9.1
0
VERTEX
8
CUT
10
7.2
20
9.1
0
VERTEX
8
CUT
10
8.36
20
8.3911
0
SEQEND
0
POLYLINE
8
CUT
66
1
70
0
0
VERTEX
8
CUT
10
0.64
20
7.6089
0
VERTEX
8
CUT
10
1.8
20
6.9
0
VERTEX
8
CUT
10
7.2
20
6.9
0
VERTEX
8
CUT
10
8.36
20
7.6089
0
SEQEND
0
POLYLINE
8
CUT
66
1
70
0
0
VERTEX
8
CUT
10
0.64
20
5.4911
0
VERTEX
8
CUT
10
1.8
20
6.2
0
VERTEX
8
CUT
10
7.2
20
6.2
0
VERTEX
8
CUT
10
8.36
20
5.4911
0
SEQEND
0
POLYLINE
8
CUT
66
1
70
0
0
VERTEX
8
CUT
10
0.64
20
4.7089
0
VERTEX
8
CUT
10
1.8
20
4
0
VERTEX
8
CUT
10
7.2
20
4
0
VERTEX
8
CUT
10
8.36
20
4.7089
0
SEQEND
0
POLYLINE
8
CUT
66
1
70
0
0
VERTEX
8
CUT
10
0.64
20
2.5911
0
VERTEX
8
CUT
10
1.8
20
3.3
0
VERTEX
8
CUT
10
7.2
20
3.3
0
VERTEX
8
CUT
10
8.36
20
2.5911
0
SEQEND
0
POLYLINE
8
CUT
66
1
70
0
0
VERTEX
8
CUT
10
0.64
20
1.8089
0
VERTEX
8
CUT
10
1.8
20
1.1
0
VERTEX
8
CUT
10
7.2
20
1.1
0
VERTEX
8
CUT
10
8.36
20
1.8089
0
SEQEND
0
POLYLINE
8
CUT
66
1
70
0
0
VERTEX
8
CUT
10
1.1455
20
0
0
VERTEX
8
CUT
10
1.8
20
0.4
0
VERTEX
8
CUT
10
7.2
20
0.4
0
VERTEX
8
CUT
10
7.8545
20
0
0
SEQEND
0
POLYLINE
8
CUT
66
1
70
0
0
VERTEX
8
CUT
10
8.449
20
69.9589
0
VERTEX
8
CUT
10
9.609
20
69.25
0
VERTEX
8
CUT
10
15.009
20
69.25
0
VERTEX
8
CUT
10
16.169
20
69.9589
0
SEQEND
0
POLYLINE
8
CUT
66
1
70
0
0
VERTEX
8
CUT
10
8.449
20
67.8411
0
VERTEX
8
CUT
10
9.609
20
68.55
0
VERTEX
8
CUT
10
15.009
20
68.55
0
VERTEX
8
CUT
10
16.169
20
67.8411
0
SEQEND
0
POLYLINE
8
CUT
66
1
70
0
0
VERTEX
8
CUT
10
8.449
20
67.0589
0
VERTEX
8
CUT
10
9.609
20
66.35
0
VERTEX
8
CUT
10
15.009
20
66.35
0
VERTEX
8
CUT
10
16.169
20
67.0589
0
SEQEND
0
POLYLINE
8
CUT
66
1
70
0
0
VERTEX
8
CUT
10
8.449
20
64.9411
0
VERTEX
8
CUT
10
9.609
20
65.65
0
VERTEX
8
CUT
10
15.009
20
65.65
0
VERTEX
8
CUT
10
16.169
20
64.9411
0
SEQEND
0
POLYLINE
8
CUT
66
1
70
0
0
VERTEX
8
CUT
10
8.449
20
64.1589
0
VERTEX
8
CUT
10
9.609
20
63.45
0
VERTEX
8
CUT
10
15.009
20
63.45
0
VERTEX
8
CUT
10
16.169
20
64.1589
0
SEQEND
0
POLYLINE
8
CUT
66
1
70
0
0
VERTEX
8
CUT
10
8.449
20
62.0411
0
VERTEX
8
CUT
10
9.609
20
62.75
0
VERTEX
8
CUT
10
15.009
20
62.75
0
VERTEX
8
CUT
10
16.169
20
62.0411
0
SEQEND
0
POLYLINE
8
CUT
66
1
70
0
0
VERTEX
8
CUT
10
8.449
20
61.2589
0
VERTEX
8
CUT
10
9.609
20
60.55
0
VERTEX
8
CUT
10
15.009
20
60.55
0
VERTEX
8
CUT
10
16.169
20
61.2589
0
SEQEND
0
POLYLINE
8
CUT
66
1
70
0
0
VERTEX
8
CUT
10
8.449
20
59.1411
0
VERTEX
8
CUT
10
9.609
20
59.85
0
VERTEX
8
CUT
10
15.009
20
59.85
0
VERTEX
8
CUT
10
16.169
20
59.1411
0
SEQEND
0
POLYLINE
8
CUT
66
1
70
0
0
VERTEX
8
CUT
10
8.449
20
58.3589
0
VERTEX
8
CUT
10
9.609
20
57.65
0
VERTEX
8
CUT
10
15.009
20
57.65
0
VERTEX
8
CUT
10
16.169
20
58.3589
0
SEQEND
0
POLYLINE
8
CUT
66
1
70
0
0
VERTEX
8
CUT
10
8.449
20
56.2411
0
VERTEX
8
CUT
10
9.609
20
56.95
0
VERTEX
8
CUT
10
15.009
20
56.95
0
VERTEX
8
CUT
10
16.169
20
56.2411
0
SEQEND
0
POLYLINE
8
CUT
66
1
70
0
0
VERTEX
8
CUT
10
8.449
20
55.4589
0
VERTEX
8
CUT
10
9.609
20
54.75
0
VERTEX
8
CUT
10
15.009
20
54.75
0
VERTEX
8
CUT
10
16.169
20
55.4589
0
SEQEND
0
POLYLINE
8
CUT
66
1
70
0
0
VERTEX
8
CUT
10
8.449
20
53.3411
0
VERTEX
8
CUT
10
9.609
20
54.05
0
VERTEX
8
CUT
10
15.009
20
54.05
0
VERTEX
8
CUT
10
16.169
20
53.3411
0
SEQEND
0
POLYLINE
8
CUT
66
1
70
0
0
VERTEX
8
CUT
10
8.449
20
52.5589
0
VERTEX
8
CUT
10
9.609
20
51.85
0
VERTEX
8
CUT
10
15.009
20
51.85
0
VERTEX
8
CUT
10
16.169
20
52.5589
0
SEQEND
0
POLYLINE
8
CUT
66
1
70
0
0
VERTEX
8
CUT
10
8.449
20
50.4411
0
VERTEX
8
CUT
10
9.609
20
51.15
0
VERTEX
8
CUT
10
15.009
20
51.15
0
VERTEX
8
CUT
10
16.169
20
50.4411
0
SEQEND
0
POLYLINE
8
CUT
66
1
70
0
0
VERTEX
8
CUT
10
8.449
20
49.6589
0
VERTEX
8
CUT
10
9.609
20
48.95
0
VERTEX
8
CUT
10
15.009
20
48.95
0
VERTEX
8
CUT
10
16.169
20
49.6589
0
SEQEND
0
POLYLINE
8
CUT
66
1
70
0
0
VERTEX
8
CUT
10
8.449
20
47.5411
0
VERTEX
8
CUT
10
9.609
20
48.25
0
VERTEX
8
CUT
10
15.009
20
48.25
0
VERTEX
8
CUT
10
16.169
20
47.5411
0
SEQEND
0
POLYLINE
8
CUT
66
1
70
0
0
VERTEX
8
CUT
10
8.449
20
46.7589
0
VERTEX
8
CUT
10
9.609
20
46.05
0
VERTEX
8
CUT
10
15.009
20
46.05
0
VERTEX
8
CUT
10
16.169
20
46.7589
0
SEQEND
0
POLYLINE
8
CUT
66
1
70
0
0
VERTEX
8
CUT
10
8.449
20
44.6411
0
VERTEX
8
CUT
10
9.609
20
45.35
0
VERTEX
8
CUT
10
15.009
20
45.35
0
VERTEX
8
CUT
10
16.169
20
44.6411
0
SEQEND
0
POLYLINE
8
CUT
66
1
70
0
0
VERTEX
8
CUT
10
8.449
20
43.8589
0
VERTEX
8
CUT
10
9.609
20
43.15
0
VERTEX
8
CUT
10
15.009
20
43.15
0
VERTEX
8
CUT
10
16.169
20
43.8589
0
SEQEND
0
POLYLINE
8
CUT
66
1
70
0
0
VERTEX
8
CUT
10
8.449
20
41.7411
0
VERTEX
8
CUT
10
9.609
20
42.45
0
VERTEX
8
CUT
10
15.009
20
42.45
0
VERTEX
8
CUT
10
16.169
20
41.7411
0
SEQEND
0
POLYLINE
8
CUT
66
1
70
0
0
VERTEX
8
CUT
10
8.449
20
40.9589
0
VERTEX
8
CUT
10
9.609
20
40.25
0
VERTEX
8
CUT
10
15.009
20
40.25
0
VERTEX
8
CUT
10
16.169
20
40.9589
0
SEQEND
0
POLYLINE
8
CUT
66
1
70
0
0
VERTEX
8
CUT
10
8.449
20
38.8411
0
VERTEX
8
CUT
10
9.609
20
39.55
0
VERTEX
8
CUT
10
15.009
20
39.55
0
VERTEX
8
CUT
10
16.169
20
38.8411
0
SEQEND
0
POLYLINE
8
CUT
66
1
70
0
0
VERTEX
8
CUT
10
8.449
20
38.0589
0
VERTEX
8
CUT
10
9.609
20
37.35
0
VERTEX
8
CUT
10
15.009
20
37.35
0
VERTEX
8
CUT
10
16.169
20
38.0589
0
SEQEND
0
POLYLINE
8
CUT
66
1
70
0
0
VERTEX
8
CUT
10
8.449
20
35.9411
0
VERTEX
8
CUT
10
9.609
20
36.65
0
VERTEX
8
CUT
10
15.009
20
36.65
0
VERTEX
8
CUT
10
16.169
20
35.9411
0
SEQEND
0
POLYLINE
8
CUT
66
1
70
0
0
VERTEX
8
CUT
10
8.449
20
35.1589
0
VERTEX
8
CUT
10
9.609
20
34.45
0
VERTEX
8
CUT
10
15.009
20
34.45
0
VERTEX
8
CUT
10
16.169
20
35.1589
0
SEQEND
0
POLYLINE
8
CUT
66
1
70
0
0
VERTEX
8
CUT
10
8.449
20
33.0411
0
VERTEX
8
CUT
10
9.609
20
33.75
0
VERTEX
8
CUT
10
15.009
20
33.75
0
VERTEX
8
CUT
10
16.169
20
33.0411
0
SEQEND
0
POLYLINE
8
CUT
66
1
70
0
0
VERTEX
8
CUT
10
8.449
20
32.2589
0
VERTEX
8
CUT
10
9.609
20
31.55
0
VERTEX
8
CUT
10
15.009
20
31.55
0
VERTEX
8
CUT
10
16.169
20
32.2589
0
SEQEND
0
POLYLINE
8
CUT
66
1
70
0
0
VERTEX
8
CUT
10
8.449
20
30.1411
0
VERTEX
8
CUT
10
9.609
20
30.85
0
VERTEX
8
CUT
10
15.009
20
30.85
0
VERTEX
8
CUT
10
16.169
20
30.1411
0
SEQEND
0
POLYLINE
8
CUT
66
1
70
0
0
VERTEX
8
CUT
10
8.449
20
29.3589
0
VERTEX
8
CUT
10
9.609
20
28.65
0
VERTEX
8
CUT
10
15.009
20
28.65
0
VERTEX
8
CUT
10
16.169
20
29.3589
0
SEQEND
0
POLYLINE
8
CUT
66
1
70
0
0
VERTEX
8
CUT
10
8.449
20
27.2411
0
VERTEX
8
CUT
10
9.609
20
27.95
0
VERTEX
8
CUT
10
15.009
20
27.95
0
VERTEX
8
CUT
10
16.169
20
27.2411
0
SEQEND
0
POLYLINE
8
CUT
66
1
70
0
0
VERTEX
8
CUT
10
8.449
20
26.4589
0
VERTEX
8
CUT
10
9.609
20
25.75
0
VERTEX
8
CUT
10
15.009
20
25.75
0
VERTEX
8
CUT
10
16.169
20
26.4589
0
SEQEND
0
POLYLINE
8
CUT
66
1
70
0
0
VERTEX
8
CUT
10
8.449
20
24.3411
0
VERTEX
8
CUT
10
9.609
20
25.05
0
VERTEX
8
CUT
10
15.009
20
25.05
0
VERTEX
8
CUT
10
16.169
20
24.3411
0
SEQEND
0
POLYLINE
8
CUT
66
1
70
0
0
VERTEX
8
CUT
10
8.449
20
23.5589
0
VERTEX
8
CUT
10
9.609
20
22.85
0
VERTEX
8
CUT
10
15.009
20
22.85
0
VERTEX
8
CUT
10
16.169
20
23.5589
0
SEQEND
0
POLYLINE
8
CUT
66
1
70
0
0
VERTEX
8
CUT
10
8.449
20
21.4411
0
VERTEX
8
CUT
10
9.609
20
22.15
0
VERTEX
8
CUT
10
15.009
20
22.15
0
VERTEX
8
CUT
10
16.169
20
21.4411
0
SEQEND
0
POLYLINE
8
CUT
66
1
70
0
0
VERTEX
8
CUT
10
8.449
20
20.6589
0
VERTEX
8
CUT
10
9.609
20
19.95
0
VERTEX
8
CUT
10
15.009
20
19.95
0
VERTEX
8
CUT
10
16.169
20
20.6589
0
SEQEND
0
POLYLINE
8
CUT
66
1
70
0
0
VERTEX
8
CUT
10
8.449
20
18.5411
0
VERTEX
8
CUT
10
9.609
20
19.25
0
VERTEX
8
CUT
10
15.009
20
19.25
0
VERTEX
8
CUT
10
16.169
20
18.5411
0
SEQEND
0
POLYLINE
8
CUT
66
1
70
0
0
VERTEX
8
CUT
10
8.449
20
17.7589
0
VERTEX
8
CUT
10
9.609
20
17.05
0
VERTEX
8
CUT
10
15.009
20
17.05
0
VERTEX
8
CUT
10
16.169
20
17.7589
0
SEQEND
0
POLYLINE
8
CUT
66
1
70
0
0
VERTEX
8
CUT
10
8.449
20
15.6411
0
VERTEX
8
CUT
10
9.609
20
16.35
0
VERTEX
8
CUT
10
15.009
20
16.35
0
VERTEX
8
CUT
10
16.169
20
15.6411
0
SEQEND
0
POLYLINE
8
CUT
66
1
70
0
0
VERTEX
8
CUT
10
8.449
20
14.8589
0
VERTEX
8
CUT
10
9.609
20
14.15
0
VERTEX
8
CUT
10
15.009
20
14.15
0
VERTEX
8
CUT
10
16.169
20
14.8589
0
SEQEND
0
POLYLINE
8
CUT
66
1
70
0
0
VERTEX
8
CUT
10
8.449
20
12.7411
0
VERTEX
8
CUT
10
9.609
20
13.45
0
VERTEX
8
CUT
10
15.009
20
13.45
0
VERTEX
8
CUT
10
16.169
20
12.7411
0
SEQEND
0
POLYLINE
8
CUT
66
1
70
0
0
VERTEX
8
CUT
10
8.449
20
11.9589
0
VERTEX
8
CUT
10
9.609
20
11.25
0
VERTEX
8
CUT
10
15.009
20
11.25
0
VERTEX
8
CUT
10
16.169
20
11.9589
0
SEQEND
0
POLYLINE
8
CUT
66
1
70
0
0
VERTEX
8
CUT
10
8.449
20
9.8411
0
VERTEX
8
CUT
10
9.609
20
10.55
0
VERTEX
8
CUT
10
15.009
20
10.55
0
VERTEX
8
CUT
10
16.169
20
9.8411
0
SEQEND
0
POLYLINE
8
CUT
66
1
70
0
0
VERTEX
8
CUT
10
8.449
20
9.0589
0
VERTEX
8
CUT
10
9.609
20
8.35
0
VERTEX
8
CUT
10
15.009
20
8.35
0
VERTEX
8
CUT
10
16.169
20
9.0589
0
SEQEND
0
POLYLINE
8
CUT
66
1
70
0
0
VERTEX
8
CUT
10
8.449
20
6.9411
0
VERTEX
8
CUT
10
9.609
20
7.65
0
VERTEX
8
CUT
10
15.009
20
7.65
0
VERTEX
8
CUT
10
16.169
20
6.9411
0
SEQEND
0
POLYLINE
8
CUT
66
1
70
0
0
VERTEX
8
CUT
10
8.449
20
6.1589
0
VERTEX
8
CUT
10
9.609
20
5.45
0
VERTEX
8
CUT
10
15.009
20
5.45
0
VERTEX
8
CUT
10
16.169
20
6.1589
0
SEQEND
0
POLYLINE
8
CUT
66
1
70
0
0
VERTEX
8
CUT
10
8.449
20
4.0411
0
VERTEX
8
CUT
10
9.609
20
4.75
0
VERTEX
8
CUT
10
15.009
20
4.75
0
VERTEX
8
CUT
10
16.169
20
4.0411
0
SEQEND
0
POLYLINE
8
CUT
66
1
70
0
0
VERTEX
8
CUT
10
8.449
20
3.2589
0
VERTEX
8
CUT
10
9.609
20
2.55
0
VERTEX
8
CUT
10
15.009
20
2.55
0
VERTEX
8
CUT
10
16.169
20
3.2589
0
SEQEND
0
POLYLINE
8
CUT
66
1
70
0
0
VERTEX
8
CUT
10
8.449
20
1.1411
0
VERTEX
8
CUT
10
9.609
20
1.85
0
VERTEX
8
CUT
10
15.009
20
1.85
0
VERTEX
8
CUT
10
16.169
20
1.1411
0
SEQEND
0
LINE
8
CUT
10
8.449
20
0.3589
11
9.0363
21
0
0
LINE
8
CUT
10
15.5817
20
0
11
16.169
21
0.3589
0
POLYLINE
8
CUT
66
1
70
0
0
VERTEX
8
CUT
10
16.258
20
69.2911
0
VERTEX
8
CUT
10
17.418
20
70
0
VERTEX
8
CUT
10
22.818
20
70
0
VERTEX
8
CUT
10
23.978
20
69.2911
0
SEQEND
0
POLYLINE
8
CUT
66
1
70
0
0
VERTEX
8
CUT
10
16.258
20
68.5089
0
VERTEX
8
CUT
10
17.418
20
67.8
0
VERTEX
8
CUT
10
22.818
20
67.8
0
VERTEX
8
CUT
10
23.978
20
68.5089
0
SEQEND
0
POLYLINE
8
CUT
66
1
70
0
0
VERTEX
8
CUT
10
16.258
20
66.3911
0
VERTEX
8
CUT
10
17.418
20
67.1
0
VERTEX
8
CUT
10
22.818
20
67.1
0
VERTEX
8
CUT
10
23.978
20
66.3911
0
SEQEND
0
POLYLINE
8
CUT
66
1
70
0
0
VERTEX
8
CUT
10
16.258
20
65.6089
0
VERTEX
8
CUT
10
17.418
20
64.9
0
VERTEX
8
CUT
10
22.818
20
64.9
0
VERTEX
8
CUT
10
23.978
20
65.6089
0
SEQEND
0
POLYLINE
8
CUT
66
1
70
0
0
VERTEX
8
CUT
10
16.258
20
63.4911
0
VERTEX
8
CUT
10
17.418
20
64.2
0
VERTEX
8
CUT
10
22.818
20
64.2
0
VERTEX
8
CUT
10
23.978
20
63.4911
0
SEQEND
0
POLYLINE
8
CUT
66
1
70
0
0
VERTEX
8
CUT
10
16.258
20
62.7089
0
VERTEX
8
CUT
10
17.418
20
62
0
VERTEX
8
CUT
10
22.818
20
62
0
VERTEX
8
CUT
10
23.978
20
62.7089
0
SEQEND
0
POLYLINE
8
CUT
66
1
70
0
0
VERTEX
8
CUT
10
16.258
20
60.5911
0
VERTEX
8
CUT
10
17.418
20
61.3
0
VERTEX
8
CUT
10
22.818
20
61.3
0
VERTEX
8
CUT
10
23.978
20
60.5911
0
SEQEND
0
POLYLINE
8
CUT
66
1
70
0
0
VERTEX
8
CUT
10
16.258
20
59.8089
0
VERTEX
8
CUT
10
17.418
20
59.1
0
VERTEX
8
CUT
10
22.818
20
59.1
0
VERTEX
8
CUT
10
23.978
20
59.8089
0
SEQEND
0
POLYLINE
8
CUT
66
1
70
0
0
VERTEX
8
CUT
10
16.258
20
57.6911
0
VERTEX
8
CUT
10
17.418
20
58.4
0
VERTEX
8
CUT
10
22.818
20
58.4
0
VERTEX
8
CUT
10
23.978
20
57.6911
0
SEQEND
0
POLYLINE
8
CUT
66
1
70
0
0
VERTEX
8
CUT
10
16.258
20
56.9089
0
VERTEX
8
CUT
10
17.418
20
56.2
0
VERTEX
8
CUT
10
22.818
20
56.2
0
VERTEX
8
CUT
10
23.978
20
56.9089
0
SEQEND
0
POLYLINE
8
CUT
66
1
70
0
0
VERTEX
8
CUT
10
16.258
20
54.7911
0
VERTEX
8
CUT
10
17.418
20
55.5
0
VERTEX
8
CUT
10
22.818
20
55.5
0
VERTEX
8
CUT
10
23.978
20
54.7911
0
SEQEND
0
POLYLINE
8
CUT
66
1
70
0
0
VERTEX
8
CUT
10
16.258
20
54.0089
0
VERTEX
8
CUT
10
17.418
20
53.3
0
VERTEX
8
CUT
10
22.818
20
53.3
0
VERTEX
8
CUT
10
23.978
20
54.0089
0
SEQEND
0
POLYLINE
8
CUT
66
1
70
0
0
VERTEX
8
CUT
10
16.258
20
51.8911
0
VERTEX
8
CUT
10
17.418
20
52.6
0
VERTEX
8
CUT
10
22.818
20
52.6
0
VERTEX
8
CUT
10
23.978
20
51.8911
0
SEQEND
0
POLYLINE
8
CUT
66
1
70
0
0
VERTEX
8
CUT
10
16.258
20
51.1089
0
VERTEX
8
CUT
10
17.418
20
50.4
0
VERTEX
8
CUT
10
22.818
20
50.4
0
VERTEX
8
CUT
10
23.978
20
51.1089
0
SEQEND
0
POLYLINE
8
CUT
66
1
70
0
0
VERTEX
8
CUT
10
16.258
20
48.9911
0
VERTEX
8
CUT
10
17.418
20
49.7
0
VERTEX
8
CUT
10
22.818
20
49.7
0
VERTEX
8
CUT
10
23.978
20
48.9911
0
SEQEND
0
POLYLINE
8
CUT
66
1
70
0
0
VERTEX
8
CUT
10
16.258
20
48.2089
0
VERTEX
8
CUT
10
17.418
20
47.5
0
VERTEX
8
CUT
10
22.818
20
47.5
0
VERTEX
8
CUT
10
23.978
20
48.2089
0
SEQEND
0
POLYLINE
8
CUT
66
1
70
0
0
VERTEX
8
CUT
10
16.258
20
46.0911
0
VERTEX
8
CUT
10
17.418
20
46.8
0
VERTEX
8
CUT
10
22.818
20
46.8
0
VERTEX
8
CUT
10
23.978
20
46.0911
0
SEQEND
0
POLYLINE
8
CUT
66
1
70
0
0
VERTEX
8
CUT
10
16.258
20
45.3089
0
VERTEX
8
CUT
10
17.418
20
44.6
0
VERTEX
8
CUT
10
22.818
20
44.6
0
VERTEX
8
CUT
10
23.978
20
45.3089
0
SEQEND
0
POLYLINE
8
CUT
66
1
70
0
0
VERTEX
8
CUT
10
16.258
20
43.1911
0
VERTEX
8
CUT
10
17.418
20
43.9
0
VERTEX
8
CUT
10
22.818
20
43.9
0
VERTEX
8
CUT
10
23.978
20
43.1911
0
SEQEND
0
POLYLINE
8
CUT
66
1
70
0
0
VERTEX
8
CUT
10
16.258
20
42.4089
0
VERTEX
8
CUT
10
17.418
20
41.7
0
VERTEX
8
CUT
10
22.818
20
41.7
0
VERTEX
8
CUT
10
23.978
20
42.4089
0
SEQEND
0
POLYLINE
8
CUT
66
1
70
0
0
VERTEX
8
CUT
10
16.258
20
40.2911
0
VERTEX
8
CUT
10
17.418
20
41
0
VERTEX
8
CUT
10
22.818
20
41
0
VERTEX
8
CUT
10
23.978
20
40.2911
0
SEQEND
0
POLYLINE
8
CUT
66
1
70
0
0
VERTEX
8
CUT
10
16.258
20
39.5089
0
VERTEX
8
CUT
10
17.418
20
38.8
0
VERTEX
8
CUT
10
22.818
20
38.8
0
VERTEX
8
CUT
10
23.978
20
39.5089
0
SEQEND
0
POLYLINE
8
CUT
66
1
70
0
0
VERTEX
8
CUT
10
16.258
20
37.3911
0
VERTEX
8
CUT
10
17.418
20
38.1
0
VERTEX
8
CUT
10
22.818
20
38.1
0
VERTEX
8
CUT
10
23.978
20
37.3911
0
SEQEND
0
POLYLINE
8
CUT
66
1
70
0
0
VERTEX
8
CUT
10
16.258
20
36.6089
0
VERTEX
8
CUT
10
17.418
20
35.9
0
VERTEX
8
CUT
10
22.818
20
35.9
0
VERTEX
8
CUT
10
23.978
20
36.6089
0
SEQEND
0
POLYLINE
8
CUT
66
1
70
0
0
VERTEX
8
CUT
10
16.258
20
34.4911
0
VERTEX
8
CUT
10
17.418
20
35.2
0
VERTEX
8
CUT
10
22.818
20
35.2
0
VERTEX
8
CUT
10
23.978
20
34.4911
0
SEQEND
0
POLYLINE
8
CUT
66
1
70
0
0
VERTEX
8
CUT
10
16.258
20
33.7089
0
VERTEX
8
CUT
10
17.418
20
33
0
VERTEX
8
CUT
10
22.818
20
33
0
VERTEX
8
CUT
10
23.978
20
33.7089
0
SEQEND
0
POLYLINE
8
CUT
66
1
70
0
0
VERTEX
8
CUT
10
16.258
20
31.5911
0
VERTEX
8
CUT
10
17.418
20
32.3
0
VERTEX
8
CUT
10
22.818
20
32.3
0
VERTEX
8
CUT
10
23.978
20
31.5911
0
SEQEND
0
POLYLINE
8
CUT
66
1
70
0
0
VERTEX
8
CUT
10
16.258
20
30.8089
0
VERTEX
8
CUT
10
17.418
20
30.1
0
VERTEX
8
CUT
10
22.818
20
30.1
0
VERTEX
8
CUT
10
23.978
20
30.8089
0
SEQEND
0
POLYLINE
8
CUT
66
1
70
0
0
VERTEX
8
CUT
10
16.258
20
28.6911
0
VERTEX
8
CUT
10
17.418
20
29.4
0
VERTEX
8
CUT
10
22.818
20
29.4
0
VERTEX
8
CUT
10
23.978
20
28.6911
0
SEQEND
0
POLYLINE
8
CUT
66
1
70
0
0
VERTEX
8
CUT
10
16.258
20
27.9089
0
VERTEX
8
CUT
10
17.418
20
27.2
0
VERTEX
8
CUT
10
22.818
20
27.2
0
VERTEX
8
CUT
10
23.978
20
27.9089
0
SEQEND
0
POLYLINE
8
CUT
66
1
70
0
0
VERTEX
8
CUT
10
16.258
20
25.7911
0
VERTEX
8
CUT
10
17.418
20
26.5
0
VERTEX
8
CUT
10
22.818
20
26.5
0
VERTEX
8
CUT
10
23.978
20
25.7911
0
SEQEND
0
POLYLINE
8
CUT
66
1
70
0
0
VERTEX
8
CUT
10
16.258
20
25.0089
0
VERTEX
8
CUT
10
17.418
20
24.3
0
VERTEX
8
CUT
10
22.818
20
24.3
0
VERTEX
8
CUT
10
23.978
20
25.0089
0
SEQEND
0
POLYLINE
8
CUT
66
1
70
0
0
VERTEX
8
CUT
10
16.258
20
22.8911
0
VERTEX
8
CUT
10
17.418
20
23.6
0
VERTEX
8
CUT
10
22.818
20
23.6
0
VERTEX
8
CUT
10
23.978
20
22.8911
0
SEQEND
0
POLYLINE
8
CUT
66
1
70
0
0
VERTEX
8
CUT
10
16.258
20
22.1089
0
VERTEX
8
CUT
10
17.418
20
21.4
0
VERTEX
8
CUT
10
22.818
20
21.4
0
VERTEX
8
CUT
10
23.978
20
22.1089
0
SEQEND
0
POLYLINE
8
CUT
66
1
70
0
0
VERTEX
8
CUT
10
16.258
20
19.9911
0
VERTEX
8
CUT
10
17.418
20
20.7
0
VERTEX
8
CUT
10
22.818
20
20.7
0
VERTEX
8
CUT
10
23.978
20
19.9911
0
SEQEND
0
POLYLINE
8
CUT
66
1
70
0
0
VERTEX
8
CUT
10
16.258
20
19.2089
0
VERTEX
8
CUT
10
17.418
20
18.5
0
VERTEX
8
CUT
10
22.818
20
18.5
0
VERTEX
8
CUT
10
23.978
20
19.2089
0
SEQEND
0
POLYLINE
8
CUT
66
1
70
0
0
VERTEX
8
CUT
10
16.258
20
17.0911
0
VERTEX
8
CUT
10
17.418
20
17.8
0
VERTEX
8
CUT
10
22.818
20
17.8
0
VERTEX
8
CUT
10
23.978
20
17.0911
0
SEQEND
0
POLYLINE
8
CUT
66
1
70
0
0
VERTEX
8
CUT
10
16.258
20
16.3089
0
VERTEX
8
CUT
10
17.418
20
15.6
0
VERTEX
8
CUT
10
22.818
20
15.6
0
VERTEX
8
CUT
10
23.978
20
16.3089
0
SEQEND
0
POLYLINE
8
CUT
66
1
70
0
0
VERTEX
8
CUT
10
16.258
20
14.1911
0
VERTEX
8
CUT
10
17.418
20
14.9
0
VERTEX
8
CUT
10
22.818
20
14.9
0
VERTEX
8
CUT
10
23.978
20
14.1911
0
SEQEND
0
POLYLINE
8
CUT
66
1
70
0
0
VERTEX
8
CUT
10
16.258
20
13.4089
0
VERTEX
8
CUT
10
17.418
20
12.7
0
VERTEX
8
CUT
10
22.818
20
12.7
0
VERTEX
8
CUT
10
23.978
20
13.4089
0
SEQEND
0
POLYLINE
8
CUT
66
1
70
0
0
VERTEX
8
CUT
10
16.258
20
11.2911
0
VERTEX
8
CUT
10
17.418
20
12
0
VERTEX
8
CUT
10
22.818
20
12
0
VERTEX
8
CUT
10
23.978
20
11.2911
0
SEQEND
0
POLYLINE
8
CUT
66
1
70
0
0
VERTEX
8
CUT
10
16.258
20
10.5089
0
VERTEX
8
CUT
10
17.418
20
9.8
0
VERTEX
8
CUT
10
22.818
20
9.8
0
VERTEX
8
CUT
10
23.978
20
10.5089
0
SEQEND
0
POLYLINE
8
CUT
66
1
70
0
0
VERTEX
8
CUT
10
16.258
20
8.3911
0
VERTEX
8
CUT
10
17.418
20
9.1
0
VERTEX
8
CUT
10
22.818
20
9.1
0
VERTEX
8
CUT
10
23.978
20
8.3911
0
SEQEND
0
POLYLINE
8
CUT
66
1
70
0
0
VERTEX
8
CUT
10
16.258
20
7.6089
0
VERTEX
8
CUT
10
17.418
20
6.9
0
VERTEX
8
CUT
10
22.818
20
6.9
0
VERTEX
8
CUT
10
23.978
20
7.6089
0
SEQEND
0
POLYLINE
8
CUT
66
1
70
0
0
VERTEX
8
CUT
10
16.258
20
5.4911
0
VERTEX
8
CUT
10
17.418
20
6.2
0
VERTEX
8
CUT
10
22.818
20
6.2
0
VERTEX
8
CUT
10
23.978
20
5.4911
0
SEQEND
0
POLYLINE
8
CUT
66
1
70
0
0
VERTEX
8
CUT
10
16.258
20
4.7089
0
VERTEX
8
CUT
10
17.418
20
4
0
VERTEX
8
CUT
10
22.818
20
4
0
VERTEX
8
CUT
10
23.978
20
4.7089
0
SEQEND
0
POLYLINE
8
CUT
66
1
70
0
0
VERTEX
8
CUT
10
16.258
20
2.5911
0
VERTEX
8
CUT
10
17.418
20
3.3
0
VERTEX
8
CUT
10
22.818
20
3.3
0
VERTEX
8
CUT
10
23.978
20
2.5911
0
SEQEND
0
POLYLINE
8
CUT
66
1
70
0
0
VERTEX
8
CUT
10
16.258
20
1.8089
0
VERTEX
8
CUT
10
17.418
20
1.1
0
VERTEX
8
CUT
10
22.818
20
1.1
0
VERTEX
8
CUT
10
23.978
20
1.8089
0
SEQEND
0
POLYLINE
8
CUT
66
1
70
0
0
VERTEX
8
CUT
10
16.7635
20
0
0
VERTEX
8
CUT
10
17.418
20
0.4
0
VERTEX
8
CUT
10
22.818
20
0.4
0
VERTEX
8
CUT
10
23.4725
20
0
0
SEQEND
0
POLYLINE
8
CUT
66
1
70
0
0
VERTEX
8
CUT
10
24.067
20
69.9589
0
VERTEX
8
CUT
10
25.227
20
69.25
0
VERTEX
8
CUT
10
30.627
20
69.25
0
VERTEX
8
CUT
10
31.787
20
69.9589
0
SEQEND
0
POLYLINE
8
CUT
66
1
70
0
0
VERTEX
8
CUT
10
24.067
20
67.8411
0
VERTEX
8
CUT
10
25.227
20
68.55
0
VERTEX
8
CUT
10
30.627
20
68.55
0
VERTEX
8
CUT
10
31.787
20
67.8411
0
SEQEND
0
POLYLINE
8
CUT
66
1
70
0
0
VERTEX
8
CUT
10
24.067
20
67.0589
0
VERTEX
8
CUT
10
25.227
20
66.35
0
VERTEX
8
CUT
10
30.627
20
66.35
0
VERTEX
8
CUT
10
31.787
20
67.0589
0
SEQEND
0
POLYLINE
8
CUT
66
1
70
0
0
VERTEX
8
CUT
10
24.067
20
64.9411
0
VERTEX
8
CUT
10
25.227
20
65.65
0
VERTEX
8
CUT
10
30.627
20
65.65
0
VERTEX
8
CUT
10
31.787
20
64.9411
0
SEQEND
0
POLYLINE
8
CUT
66
1
70
0
0
VERTEX
8
CUT
10
24.067
20
64.1589
0
VERTEX
8
CUT
10
25.227
20
63.45
0
VERTEX
8
CUT
10
30.627
20
63.45
0
VERTEX
8
CUT
10
31.787
20
64.1589
0
SEQEND
0
POLYLINE
8
CUT
66
1
70
0
0
VERTEX
8
CUT
10
24.067
20
62.0411
0
VERTEX
8
CUT
10
25.227
20
62.75
0
VERTEX
8
CUT
10
30.627
20
62.75
0
VERTEX
8
CUT
10
31.787
20
62.0411
0
SEQEND
0
POLYLINE
8
CUT
66
1
70
0
0
VERTEX
8
CUT
10
24.067
20
61.2589
0
VERTEX
8
CUT
10
25.227
20
60.55
0
VERTEX
8
CUT
10
30.627
20
60.55
0
VERTEX
8
CUT
10
31.787
20
61.2589
0
SEQEND
0
POLYLINE
8
CUT
66
1
70
0
0
VERTEX
8
CUT
10
24.067
20
59.1411
0
VERTEX
8
CUT
10
25.227
20
59.85
0
VERTEX
8
CUT
10
30.627
20
59.85
0
VERTEX
8
CUT
10
31.787
20
59.1411
0
SEQEND
0
POLYLINE
8
CUT
66
1
70
0
0
VERTEX
8
CUT
10
24.067
20
58.3589
0
VERTEX
8
CUT
10
25.227
20
57.65
0
VERTEX
8
CUT
10
30.627
20
57.65
0
VERTEX
8
CUT
10
31.787
20
58.3589
0
SEQEND
0
POLYLINE
8
CUT
66
1
70
0
0
VERTEX
8
CUT
10
24.067
20
56.2411
0
VERTEX
8
CUT
10
25.227
20
56.95
0
VERTEX
8
CUT
10
30.627
20
56.95
0
VERTEX
8
CUT
10
31.787
20
56.2411
0
SEQEND
0
POLYLINE
8
CUT
66
1
70
0
0
VERTEX
8
CUT
10
24.067
20
55.4589
0
VERTEX
8
CUT
10
25.227
20
54.75
0
VERTEX
8
CUT
10
30.627
20
54.75
0
VERTEX
8
CUT
10
31.787
20
55.4589
0
SEQEND
0
POLYLINE
8
CUT
66
1
70
0
0
VERTEX
8
CUT
10
24.067
20
53.3411
0
VERTEX
8
CUT
10
25.227
20
54.05
0
VERTEX
8
CUT
10
30.627
20
54.05
0
VERTEX
8
CUT
10
31.787
20
53.3411
0
SEQEND
0
POLYLINE
8
CUT
66
1
70
0
0
VERTEX
8
CUT
10
24.067
20
52.5589
0
VERTEX
8
CUT
10
25.227
20
51.85
0
VERTEX
8
CUT
10
30.627
20
51.85
0
VERTEX
8
CUT
10
31.787
20
52.5589
0
SEQEND
0
POLYLINE
8
CUT
66
1
70
0
0
VERTEX
8
CUT
10
24.067
20
50.4411
0
VERTEX
8
CUT
10
25.227
20
51.15
0
VERTEX
8
CUT
10
30.627
20
51.15
0
VERTEX
8
CUT
10
31.787
20
50.4411
0
SEQEND
0
POLYLINE
8
CUT
66
1
70
0
0
VERTEX
8
CUT
10
24.067
20
49.6589
0
VERTEX
8
CUT
10
25.227
20
48.95
0
VERTEX
8
CUT
10
30.627
20
48.95
0
VERTEX
8
CUT
10
31.787
20
49.6589
0
SEQEND
0
POLYLINE
8
CUT
66
1
70
0
0
VERTEX
8
CUT
10
24.067
20
47.5411
0
VERTEX
8
CUT
10
25.227
20
48.25
0
VERTEX
8
CUT
10
30.627
20
48.25
0
VERTEX
8
CUT
10
31.787
20
47.5411
0
SEQEND
0
POLYLINE
8
CUT
66
1
70
0
0
VERTEX
8
CUT
10
24.067
20
46.7589
0
VERTEX
8
CUT
10
25.227
20
46.05
0
VERTEX
8
CUT
10
30.627
20
46.05
0
VERTEX
8
CUT
10
31.787
20
46.7589
0
SEQEND
0
POLYLINE
8
CUT
66
1
70
0
0
VERTEX
8
CUT
10
24.067
20
44.6411
0
VERTEX
8
CUT
10
25.227
20
45.35
0
VERTEX
8
CUT
10
30.627
20
45.35
0
VERTEX
8
CUT
10
31.787
20
44.6411
0
SEQEND
0
POLYLINE
8
CUT
66
1
70
0
0
VERTEX
8
CUT
10
24.067
20
43.8589
0
VERTEX
8
CUT
10
25.227
20
43.15
0
VERTEX
8
CUT
10
30.627
20
43.15
0
VERTEX
8
CUT
10
31.787
20
43.8589
0
SEQEND
0
POLYLINE
8
CUT
66
1
70
0
0
VERTEX
8
CUT
10
24.067
20
41.7411
0
VERTEX
8
CUT
10
25.227
20
42.45
0
VERTEX
8
CUT
10
30.627
20
42.45
0
VERTEX
8
CUT
10
31.787
20
41.7411
0
SEQEND
0
POLYLINE
8
CUT
66
1
70
0
0
VERTEX
8
CUT
10
24.067
20
40.9589
0
VERTEX
8
CUT
10
25.227
20
40.25
0
VERTEX
8
CUT
10
30.627
20
40.25
0
VERTEX
8
CUT
10
31.787
20
40.9589
0
SEQEND
0
POLYLINE
8
CUT
66
1
70
0
0
VERTEX
8
CUT
10
24.067
20
38.8411
0
VERTEX
8
CUT
10
25.227
20
39.55
0
VERTEX
8
CUT
10
30.627
20
39.55
0
VERTEX
8
CUT
10
31.787
20
38.8411
0
SEQEND
0
POLYLINE
8
CUT
66
1
70
0
0
VERTEX
8
CUT
10
24.067
20
38.0589
0
VERTEX
8
CUT
10
25.227
20
37.35
0
VERTEX
8
CUT
10
30.627
20
37.35
0
VERTEX
8
CUT
10
31.787
20
38.0589
0
SEQEND
0
POLYLINE
8
CUT
66
1
70
0
0
VERTEX
8
CUT
10
24.067
20
35.9411
0
VERTEX
8
CUT
10
25.227
20
36.65
0
VERTEX
8
CUT
10
30.627
20
36.65
0
VERTEX
8
CUT
10
31.787
20
35.9411
0
SEQEND
0
POLYLINE
8
CUT
66
1
70
0
0
VERTEX
8
CUT
10
24.067
20
35.1589
0
VERTEX
8
CUT
10
25.227
20
34.45
0
VERTEX
8
CUT
10
30.627
20
34.45
0
VERTEX
8
CUT
10
31.787
20
35.1589
0
SEQEND
0
POLYLINE
8
CUT
66
1
70
0
0
VERTEX
8
CUT
10
24.067
20
33.0411
0
VERTEX
8
CUT
10
25.227
20
33.75
0
VERTEX
8
CUT
10
30.627
20
33.75
0
VERTEX
8
CUT
10
31.787
20
33.0411
0
SEQEND
0
POLYLINE
8
CUT
66
1
70
0
0
VERTEX
8
CUT
10
24.067
20
32.2589
0
VERTEX
8
CUT
10
25.227
20
31.55
0
VERTEX
8
CUT
10
30.627
20
31.55
0
VERTEX
8
CUT
10
31.787
20
32.2589
0
SEQEND
0
POLYLINE
8
CUT
66
1
70
0
0
VERTEX
8
CUT
10
24.067
20
30.1411
0
VERTEX
8
CUT
10
25.227
20
30.85
0
VERTEX
8
CUT
10
30.627
20
30.85
0
VERTEX
8
CUT
10
31.787
20
30.1411
0
SEQEND
0
POLYLINE
8
CUT
66
1
70
0
0
VERTEX
8
CUT
10
24.067
20
29.3589
0
VERTEX
8
CUT
10
25.227
20
28.65
0
VERTEX
8
CUT
10
30.627
20
28.65
0
VERTEX
8
CUT
10
31.787
20
29.3589
0
SEQEND
0
POLYLINE
8
CUT
66
1
70
0
0
VERTEX
8
CUT
10
24.067
20
27.2411
0
VERTEX
8
CUT
10
25.227
20
27.95
0
VERTEX
8
CUT
10
30.627
20
27.95
0
VERTEX
8
CUT
10
31.787
20
27.2411
0
SEQEND
0
POLYLINE
8
CUT
66
1
70
0
0
VERTEX
8
CUT
10
24.067
20
26.4589
0
VERTEX
8
CUT
10
25.227
20
25.75
0
VERTEX
8
CUT
10
30.627
20
25.75
0
VERTEX
8
CUT
10
31.787
20
26.4589
0
SEQEND
0
POLYLINE
8
CUT
66
1
70
0
0
VERTEX
8
CUT
10
24.067
20
24.3411
0
VERTEX
8
CUT
10
25.227
20
25.05
0
VERTEX
8
CUT
10
30.627
20
25.05
0
VERTEX
8
CUT
10
31.787
20
24.3411
0
SEQEND
0
POLYLINE
8
CUT
66
1
70
0
0
VERTEX
8
CUT
10
24.067
20
23.5589
0
VERTEX
8
CUT
10
25.227
20
22.85
0
VERTEX
8
CUT
10
30.627
20
22.85
0
VERTEX
8
CUT
10
31.787
20
23.5589
0
SEQEND
0
POLYLINE
8
CUT
66
1
70
0
0
VERTEX
8
CUT
10
24.067
20
21.4411
0
VERTEX
8
CUT
10
25.227
20
22.15
0
VERTEX
8
CUT
10
30.627
20
22.15
0
VERTEX
8
CUT
10
31.787
20
21.4411
0
SEQEND
0
POLYLINE
8
CUT
66
1
70
0
0
VERTEX
8
CUT
10
24.067
20
20.6589
0
VERTEX
8
CUT
10
25.227
20
19.95
0
VERTEX
8
CUT
10
30.627
20
19.95
0
VERTEX
8
CUT
10
31.787
20
20.6589
0
SEQEND
0
POLYLINE
8
CUT
66
1
70
0
0
VERTEX
8
CUT
10
24.067
20
18.5411
0
VERTEX
8
CUT
10
25.227
20
19.25
0
VERTEX
8
CUT
10
30.627
20
19.25
0
VERTEX
8
CUT
10
31.787
20
18.5411
0
SEQEND
0
POLYLINE
8
CUT
66
1
70
0
0
VERTEX
8
CUT
10
24.067
20
17.7589
0
VERTEX
8
CUT
10
25.227
20
17.05
0
VERTEX
8
CUT
10
30.627
20
17.05
0
VERTEX
8
CUT
10
31.787
20
17.7589
0
SEQEND
0
POLYLINE
8
CUT
66
1
70
0
0
VERTEX
8
CUT
10
24.067
20
15.6411
0
VERTEX
8
CUT
10
25.227
20
16.35
0
VERTEX
8
CUT
10
30.627
20
16.35
0
VERTEX
8
CUT
10
31.787
20
15.6411
0
SEQEND
0
POLYLINE
8
CUT
66
1
70
0
0
VERTEX
8
CUT
10
24.067
20
14.8589
0
VERTEX
8
CUT
10
25.227
20
14.15
0
VERTEX
8
CUT
10
30.627
20
14.15
0
VERTEX
8
CUT
10
31.787
20
14.8589
0
SEQEND
0
POLYLINE
8
CUT
66
1
70
0
0
VERTEX
8
CUT
10
24.067
20
12.7411
0
VERTEX
8
CUT
10
25.227
20
13.45
0
VERTEX
8
CUT
10
30.627
20
13.45
0
VERTEX
8
CUT
10
31.787
20
12.7411
0
SEQEND
0
POLYLINE
8
CUT
66
1
70
0
0
VERTEX
8
CUT
10
24.067
20
11.9589
0
VERTEX
8
CUT
10
25.227
20
11.25
0
VERTEX
8
CUT
10
30.627
20
11.25
0
VERTEX
8
CUT
10
31.787
20
11.9589
0
SEQEND
0
POLYLINE
8
CUT
66
1
70
0
0
VERTEX
8
CUT
10
24.067
20
9.8411
0
VERTEX
8
CUT
10
25.227
20
10.55
0
VERTEX
8
CUT
10
30.627
20
10.55
0
VERTEX
8
CUT
10
31.787
20
9.8411
0
SEQEND
0
POLYLINE
8
CUT
66
1
70
0
0
VERTEX
8
CUT
10
24.067
20
9.0589
0
VERTEX
8
CUT
10
25.227
20
8.35
0
VERTEX
8
CUT
10
30.627
20
8.35
0
VERTEX
8
CUT
10
31.787
20
9.0589
0
SEQEND
0
POLYLINE
8
CUT
66
1
70
0
0
VERTEX
8
CUT
10
24.067
20
6.9411
0
VERTEX
8
CUT
10
25.227
20
7.65
0
VERTEX
8
CUT
10
30.627
20
7.65
0
VERTEX
8
CUT
10
31.787
20
6.9411
0
SEQEND
0
POLYLINE
8
CUT
66
1
70
0
0
VERTEX
8
CUT
10
24.067
20
6.1589
0
VERTEX
8
CUT
10
25.227
20
5.45
0
VERTEX
8
CUT
10
30.627
20
5.45
0
VERTEX
8
CUT
10
31.787
20
6.1589
0
SEQEND
0
POLYLINE
8
CUT
66
1
70
0
0
VERTEX
8
CUT
10
24.067
20
4.0411
0
VERTEX
8
CUT
10
25.227
20
4.75
0
VERTEX
8
CUT
10
30.627
20
4.75
0
VERTEX
8
CUT
10
31.787
20
4.0411
0
SEQEND
0
POLYLINE
8
CUT
66
1
70
0
0
VERTEX
8
CUT
10
24.067
20
3.2589
0
VERTEX
8
CUT
10
25.227
20
2.55
0
VERTEX
8
CUT
10
30.627
20
2.55
0
VERTEX
8
CUT
10
31.787
20
3.2589
0
SEQEND
0
POLYLINE
8
CUT
66
1
70
0
0
VERTEX
8
CUT
10
24.067
20
1.1411
0
VERTEX
8
CUT
10
25.227
20
1.85
0
VERTEX
8
CUT
10
30.627
20
1.85
0
VERTEX
8
CUT
10
31.787
20
1.1411
0
SEQEND
0
LINE
8
CUT
10
24.067
20
0.3589
11
24.6543
21
0
0
LINE
8
CUT
10
31.1997
20
0
11
31.787
21
0.3589
0
POLYLINE
8
CUT
66
1
70
0
0
VERTEX
8
CUT
10
31.876
20
69.2911
0
VERTEX
8
CUT
10
33.036
20
70
0
VERTEX
8
CUT
10
38.436
20
70
0
VERTEX
8
CUT
10
39.596
20
69.2911
0
SEQEND
0
POLYLINE
8
CUT
66
1
70
0
0
VERTEX
8
CUT
10
31.876
20
68.5089
0
VERTEX
8
CUT
10
33.036
20
67.8
0
VERTEX
8
CUT
10
38.436
20
67.8
0
VERTEX
8
CUT
10
39.596
20
68.5089
0
SEQEND
0
POLYLINE
8
CUT
66
1
70
0
0
VERTEX
8
CUT
10
31.876
20
66.3911
0
VERTEX
8
CUT
10
33.036
20
67.1
0
VERTEX
8
CUT
10
38.436
20
67.1
0
VERTEX
8
CUT
10
39.596
20
66.3911
0
SEQEND
0
POLYLINE
8
CUT
66
1
70
0
0
VERTEX
8
CUT
10
31.876
20
65.6089
0
VERTEX
8
CUT
10
33.036
20
64.9
0
VERTEX
8
CUT
10
38.436
20
64.9
0
VERTEX
8
CUT
10
39.596
20
65.6089
0
SEQEND
0
POLYLINE
8
CUT
66
1
70
0
0
VERTEX
8
CUT
10
31.876
20
63.4911
0
VERTEX
8
CUT
10
33.036
20
64.2
0
VERTEX
8
CUT
10
38.436
20
64.2
0
VERTEX
8
CUT
10
39.596
20
63.4911
0
SEQEND
0
POLYLINE
8
CUT
66
1
70
0
0
VERTEX
8
CUT
10
31.876
20
62.7089
0
VERTEX
8
CUT
10
33.036
20
62
0
VERTEX
8
CUT
10
38.436
20
62
0
VERTEX
8
CUT
10
39.596
20
62.7089
0
SEQEND
0
POLYLINE
8
CUT
66
1
70
0
0
VERTEX
8
CUT
10
31.876
20
60.5911
0
VERTEX
8
CUT
10
33.036
20
61.3
0
VERTEX
8
CUT
10
38.436
20
61.3
0
VERTEX
8
CUT
10
39.596
20
60.5911
0
SEQEND
0
POLYLINE
8
CUT
66
1
70
0
0
VERTEX
8
CUT
10
31.876
20
59.8089
0
VERTEX
8
CUT
10
33.036
20
59.1
0
VERTEX
8
CUT
10
38.436
20
59.1
0
VERTEX
8
CUT
10
39.596
20
59.8089
0
SEQEND
0
POLYLINE
8
CUT
66
1
70
0
0
VERTEX
8
CUT
10
31.876
20
57.6911
0
VERTEX
8
CUT
10
33.036
20
58.4
0
VERTEX
8
CUT
10
38.436
20
58.4
0
VERTEX
8
CUT
10
39.596
20
57.6911
0
SEQEND
0
POLYLINE
8
CUT
66
1
70
0
0
VERTEX
8
CUT
10
31.876
20
56.9089
0
VERTEX
8
CUT
10
33.036
20
56.2
0
VERTEX
8
CUT
10
38.436
20
56.2
0
VERTEX
8
CUT
10
39.596
20
56.9089
0
SEQEND
0
POLYLINE
8
CUT
66
1
70
0
0
VERTEX
8
CUT
10
31.876
20
54.7911
0
VERTEX
8
CUT
10
33.036
20
55.5
0
VERTEX
8
CUT
10
38.436
20
55.5
0
VERTEX
8
CUT
10
39.596
20
54.7911
0
SEQEND
0
POLYLINE
8
CUT
66
1
70
0
0
VERTEX
8
CUT
10
31.876
20
54.0089
0
VERTEX
8
CUT
10
33.036
20
53.3
0
VERTEX
8
CUT
10
38.436
20
53.3
0
VERTEX
8
CUT
10
39.596
20
54.0089
0
SEQEND
0
POLYLINE
8
CUT
66
1
70
0
0
VERTEX
8
CUT
10
31.876
20
51.8911
0
VERTEX
8
CUT
10
33.036
20
52.6
0
VERTEX
8
CUT
10
38.436
20
52.6
0
VERTEX
8
CUT
10
39.596
20
51.8911
0
SEQEND
0
POLYLINE
8
CUT
66
1
70
0
0
VERTEX
8
CUT
10
31.876
20
51.1089
0
VERTEX
8
CUT
10
33.036
20
50.4
0
VERTEX
8
CUT
10
38.436
20
50.4
0
VERTEX
8
CUT
10
39.596
20
51.1089
0
SEQEND
0
POLYLINE
8
CUT
66
1
70
0
0
VERTEX
8
CUT
10
31.876
20
48.9911
0
VERTEX
8
CUT
10
33.036
20
49.7
0
VERTEX
8
CUT
10
38.436
20
49.7
0
VERTEX
8
CUT
10
39.596
20
48.9911
0
SEQEND
0
POLYLINE
8
CUT
66
1
70
0
0
VERTEX
8
CUT
10
31.876
20
48.2089
0
VERTEX
8
CUT
10
33.036
20
47.5
0
VERTEX
8
CUT
10
38.436
20
47.5
0
VERTEX
8
CUT
10
39.596
20
48.2089
0
SEQEND
0
POLYLINE
8
CUT
66
1
70
0
0
VERTEX
8
CUT
10
31.876
20
46.0911
0
VERTEX
8
CUT
10
33.036
20
46.8
0
VERTEX
8
CUT
10
38.436
20
46.8
0
VERTEX
8
CUT
10
39.596
20
46.0911
0
SEQEND
0
POLYLINE
8
CUT
66
1
70
0
0
VERTEX
8
CUT
10
31.876
20
45.3089
0
VERTEX
8
CUT
10
33.036
20
44.6
0
VERTEX
8
CUT
10
38.436
20
44.6
0
VERTEX
8
CUT
10
39.596
20
45.3089
0
SEQEND
0
POLYLINE
8
CUT
66
1
70
0
0
VERTEX
8
CUT
10
31.876
20
43.1911
0
VERTEX
8
CUT
10
33.036
20
43.9
0
VERTEX
8
CUT
10
38.436
20
43.9
0
VERTEX
8
CUT
10
39.596
20
43.1911
0
SEQEND
0
POLYLINE
8
CUT
66
1
70
0
0
VERTEX
8
CUT
10
31.876
20
42.4089
0
VERTEX
8
CUT
10
33.036
20
41.7
0
VERTEX
8
CUT
10
38.436
20
41.7
0
VERTEX
8
CUT
10
39.596
20
42.4089
0
SEQEND
0
POLYLINE
8
CUT
66
1
70
0
0
VERTEX
8
CUT
10
31.876
20
40.2911
0
VERTEX
8
CUT
10
33.036
20
41
0
VERTEX
8
CUT
10
38.436
20
41
0
VERTEX
8
CUT
10
39.596
20
40.2911
0
SEQEND
0
POLYLINE
8
CUT
66
1
70
0
0
VERTEX
8
CUT
10
31.876
20
39.5089
0
VERTEX
8
CUT
10
33.036
20
38.8
0
VERTEX
8
CUT
10
38.436
20
38.8
0
VERTEX
8
CUT
10
39.596
20
39.5089
0
SEQEND
0
POLYLINE
8
CUT
66
1
70
0
0
VERTEX
8
CUT
10
31.876
20
37.3911
0
VERTEX
8
CUT
10
33.036
20
38.1
0
VERTEX
8
CUT
10
38.436
20
38.1
0
VERTEX
8
CUT
10
39.596
20
37.3911
0
SEQEND
0
POLYLINE
8
CUT
66
1
70
0
0
VERTEX
8
CUT
10
31.876
20
36.6089
0
VERTEX
8
CUT
10
33.036
20
35.9
0
VERTEX
8
CUT
10
38.436
20
35.9
0
VERTEX
8
CUT
10
39.596
20
36.6089
0
SEQEND
0
POLYLINE
8
CUT
66
1
70
0
0
VERTEX
8
CUT
10
31.876
20
34.4911
0
VERTEX
8
CUT
10
33.036
20
35.2
0
VERTEX
8
CUT
10
38.436
20
35.2
0
VERTEX
8
CUT
10
39.596
20
34.4911
0
SEQEND
0
POLYLINE
8
CUT
66
1
70
0
0
VERTEX
8
CUT
10
31.876
20
33.7089
0
VERTEX
8
CUT
10
33.036
20
33
0
VERTEX
8
CUT
10
38.436
20
33
0
VERTEX
8
CUT
10
39.596
20
33.7089
0
SEQEND
0
POLYLINE
8
CUT
66
1
70
0
0
VERTEX
8
CUT
10
31.876
20
31.5911
0
VERTEX
8
CUT
10
33.036
20
32.3
0
VERTEX
8
CUT
10
38.436
20
32.3
0
VERTEX
8
CUT
10
39.596
20
31.5911
0
SEQEND
0
POLYLINE
8
CUT
66
1
70
0
0
VERTEX
8
CUT
10
31.876
20
30.8089
0
VERTEX
8
CUT
10
33.036
20
30.1
0
VERTEX
8
CUT
10
38.436
20
30.1
0
VERTEX
8
CUT
10
39.596
20
30.8089
0
SEQEND
0
POLYLINE
8
CUT
66
1
70
0
0
VERTEX
8
CUT
10
31.876
20
28.6911
0
VERTEX
8
CUT
10
33.036
20
29.4
0
VERTEX
8
CUT
10
38.436
20
29.4
0
VERTEX
8
CUT
10
39.596
20
28.6911
0
SEQEND
0
POLYLINE
8
CUT
66
1
70
0
0
VERTEX
8
CUT
10
31.876
20
27.9089
0
VERTEX
8
CUT
10
33.036
20
27.2
0
VERTEX
8
CUT
10
38.436
20
27.2
0
VERTEX
8
CUT
10
39.596
20
27.9089
0
SEQEND
0
POLYLINE
8
CUT
66
1
70
0
0
VERTEX
8
CUT
10
31.876
20
25.7911
0
VERTEX
8
CUT
10
33.036
20
26.5
0
VERTEX
8
CUT
10
38.436
20
26.5
0
VERTEX
8
CUT
10
39.596
20
25.7911
0
SEQEND
0
POLYLINE
8
CUT
66
1
70
0
0
VERTEX
8
CUT
10
31.876
20
25.0089
0
VERTEX
8
CUT
10
33.036
20
24.3
0
VERTEX
8
CUT
10
38.436
20
24.3
0
VERTEX
8
CUT
10
39.596
20
25.0089
0
SEQEND
0
POLYLINE
8
CUT
66
1
70
0
0
VERTEX
8
CUT
10
31.876
20
22.8911
0
VERTEX
8
CUT
10
33.036
20
23.6
0
VERTEX
8
CUT
10
38.436
20
23.6
0
VERTEX
8
CUT
10
39.596
20
22.8911
0
SEQEND
0
POLYLINE
8
CUT
66
1
70
0
0
VERTEX
8
CUT
10
31.876
20
22.1089
0
VERTEX
8
CUT
10
33.036
20
21.4
0
VERTEX
8
CUT
10
38.436
20
21.4
0
VERTEX
8
CUT
10
39.596
20
22.1089
0
SEQEND
0
POLYLINE
8
CUT
66
1
70
0
0
VERTEX
8
CUT
10
31.876
20
19.9911
0
VERTEX
8
CUT
10
33.036
20
20.7
0
VERTEX
8
CUT
10
38.436
20
20.7
0
VERTEX
8
CUT
10
39.596
20
19.9911
0
SEQEND
0
POLYLINE
8
CUT
66
1
70
0
0
VERTEX
8
CUT
10
31.876
20
19.2089
0
VERTEX
8
CUT
10
33.036
20
18.5
0
VERTEX
8
CUT
10
38.436
20
18.5
0
VERTEX
8
CUT
10
39.596
20
19.2089
0
SEQEND
0
POLYLINE
8
CUT
66
1
70
0
0
VERTEX
8
CUT
10
31.876
20
17.0911
0
VERTEX
8
CUT
10
33.036
20
17.8
0
VERTEX
8
CUT
10
38.436
20
17.8
0
VERTEX
8
CUT
10
39.596
20
17.0911
0
SEQEND
0
POLYLINE
8
CUT
66
1
70
0
0
VERTEX
8
CUT
10
31.876
20
16.3089
0
VERTEX
8
CUT
10
33.036
20
15.6
0
VERTEX
8
CUT
10
38.436
20
15.6
0
VERTEX
8
CUT
10
39.596
20
16.3089
0
SEQEND
0
POLYLINE
8
CUT
66
1
70
0
0
VERTEX
8
CUT
10
31.876
20
14.1911
0
VERTEX
8
CUT
10
33.036
20
14.9
0
VERTEX
8
CUT
10
38.436
20
14.9
0
VERTEX
8
CUT
10
39.596
20
14.1911
0
SEQEND
0
POLYLINE
8
CUT
66
1
70
0
0
VERTEX
8
CUT
10
31.876
20
13.4089
0
VERTEX
8
CUT
10
33.036
20
12.7
0
VERTEX
8
CUT
10
38.436
20
12.7
0
VERTEX
8
CUT
10
39.596
20
13.4089
0
SEQEND
0
POLYLINE
8
CUT
66
1
70
0
0
VERTEX
8
CUT
10
31.876
20
11.2911
0
VERTEX
8
CUT
10
33.036
20
12
0
VERTEX
8
CUT
10
38.436
20
12
0
VERTEX
8
CUT
10
39.596
20
11.2911
0
SEQEND
0
POLYLINE
8
CUT
66
1
70
0
0
VERTEX
8
CUT
10
31.876
20
10.5089
0
VERTEX
8
CUT
10
33.036
20
9.8
0
VERTEX
8
CUT
10
38.436
20
9.8
0
VERTEX
8
CUT
10
39.596
20
10.5089
0
SEQEND
0
POLYLINE
8
CUT
66
1
70
0
0
VERTEX
8
CUT
10
31.876
20
8.3911
0
VERTEX
8
CUT
10
33.036
20
9.1
0
VERTEX
8
CUT
10
38.436
20
9.1
0
VERTEX
8
CUT
10
39.596
20
8.3911
0
SEQEND
0
POLYLINE
8
CUT
66
1
70
0
0
VERTEX
8
CUT
10
31.876
20
7.6089
0
VERTEX
8
CUT
10
33.036
20
6.9
0
VERTEX
8
CUT
10
38.436
20
6.9
0
VERTEX
8
CUT
10
39.596
20
7.6089
0
SEQEND
0
POLYLINE
8
CUT
66
1
70
0
0
VERTEX
8
CUT
10
31.876
20
5.4911
0
VERTEX
8
CUT
10
33.036
20
6.2
0
VERTEX
8
CUT
10
38.436
20
6.2
0
VERTEX
8
CUT
10
39.596
20
5.4911
0
SEQEND
0
POLYLINE
8
CUT
66
1
70
0
0
VERTEX
8
CUT
10
31.876
20
4.7089
0
VERTEX
8
CUT
10
33.036
20
4
0
VERTEX
8
CUT
10
38.436
20
4
0
VERTEX
8
CUT
10
39.596
20
4.7089
0
SEQEND
0
POLYLINE
8
CUT
66
1
70
0
0
VERTEX
8
CUT
10
31.876
20
2.5911
0
VERTEX
8
CUT
10
33.036
20
3.3
0
VERTEX
8
CUT
10
38.436
20
3.3
0
VERTEX
8
CUT
10
39.596
20
2.5911
0
SEQEND
0
POLYLINE
8
CUT
66
1
70
0
0
VERTEX
8
CUT
10
31.876
20
1.8089
0
VERTEX
8
CUT
10
33.036
20
1.1
0
VERTEX
8
CUT
10
38.436
20
1.1
0
VERTEX
8
CUT
10
39.596
20
1.8089
0
SEQEND
0
POLYLINE
8
CUT
66
1
70
0
0
VERTEX
8
CUT
10
32.3815
20
0
0
VERTEX
8
CUT
10
33.036
20
0.4
0
VERTEX
8
CUT
10
38.436
20
0.4
0
VERTEX
8
CUT
10
39.0905
20
0
0
SEQEND
0
POLYLINE
8
CUT
66
1
70
0
0
VERTEX
8
CUT
10
39.685
20
69.9589
0
VERTEX
8
CUT
10
40.845
20
69.25
0
VERTEX
8
CUT
10
46.245
20
69.25
0
VERTEX
8
CUT
10
47.405
20
69.9589
0
SEQEND
0
POLYLINE
8
CUT
66
1
70
0
0
VERTEX
8
CUT
10
39.685
20
67.8411
0
VERTEX
8
CUT
10
40.845
20
68.55
0
VERTEX
8
CUT
10
46.245
20
68.55
0
VERTEX
8
CUT
10
47.405
20
67.8411
0
SEQEND
0
POLYLINE
8
CUT
66
1
70
0
0
VERTEX
8
CUT
10
39.685
20
67.0589
0
VERTEX
8
CUT
10
40.845
20
66.35
0
VERTEX
8
CUT
10
46.245
20
66.35
0
VERTEX
8
CUT
10
47.405
20
67.0589
0
SEQEND
0
POLYLINE
8
CUT
66
1
70
0
0
VERTEX
8
CUT
10
39.685
20
64.9411
0
VERTEX
8
CUT
10
40.845
20
65.65
0
VERTEX
8
CUT
10
46.245
20
65.65
0
VERTEX
8
CUT
10
47.405
20
64.9411
0
SEQEND
0
POLYLINE
8
CUT
66
1
70
0
0
VERTEX
8
CUT
10
39.685
20
64.1589
0
VERTEX
8
CUT
10
40.845
20
63.45
0
VERTEX
8
CUT
10
46.245
20
63.45
0
VERTEX
8
CUT
10
47.405
20
64.1589
0
SEQEND
0
POLYLINE
8
CUT
66
1
70
0
0
VERTEX
8
CUT
10
39.685
20
62.0411
0
VERTEX
8
CUT
10
40.845
20
62.75
0
VERTEX
8
CUT
10
46.245
20
62.75
0
VERTEX
8
CUT
10
47.405
20
62.0411
0
SEQEND
0
POLYLINE
8
CUT
66
1
70
0
0
VERTEX
8
CUT
10
39.685
20
61.2589
0
VERTEX
8
CUT
10
40.845
20
60.55
0
VERTEX
8
CUT
10
46.245
20
60.55
0
VERTEX
8
CUT
10
47.405
20
61.2589
0
SEQEND
0
POLYLINE
8
CUT
66
1
70
0
0
VERTEX
8
CUT
10
39.685
20
59.1411
0
VERTEX
8
CUT
10
40.845
20
59.85
0
VERTEX
8
CUT
10
46.245
20
59.85
0
VERTEX
8
CUT
10
47.405
20
59.1411
0
SEQEND
0
POLYLINE
8
CUT
66
1
70
0
0
VERTEX
8
CUT
10
39.685
20
58.3589
0
VERTEX
8
CUT
10
40.845
20
57.65
0
VERTEX
8
CUT
10
46.245
20
57.65
0
VERTEX
8
CUT
10
47.405
20
58.3589
0
SEQEND
0
POLYLINE
8
CUT
66
1
70
0
0
VERTEX
8
CUT
10
39.685
20
56.2411
0
VERTEX
8
CUT
10
40.845
20
56.95
0
VERTEX
8
CUT
10
46.245
20
56.95
0
VERTEX
8
CUT
10
47.405
20
56.2411
0
SEQEND
0
POLYLINE
8
CUT
66
1
70
0
0
VERTEX
8
CUT
10
39.685
20
55.4589
0
VERTEX
8
CUT
10
40.845
20
54.75
0
VERTEX
8
CUT
10
46.245
20
54.75
0
VERTEX
8
CUT
10
47.405
20
55.4589
0
SEQEND
0
POLYLINE
8
CUT
66
1
70
0
0
VERTEX
8
CUT
10
39.685
20
53.3411
0
VERTEX
8
CUT
10
40.845
20
54.05
0
VERTEX
8
CUT
10
46.245
20
54.05
0
VERTEX
8
CUT
10
47.405
20
53.3411
0
SEQEND
0
POLYLINE
8
CUT
66
1
70
0
0
VERTEX
8
CUT
10
39.685
20
52.5589
0
VERTEX
8
CUT
10
40.845
20
51.85
0
VERTEX
8
CUT
10
46.245
20
51.85
0
VERTEX
8
CUT
10
47.405
20
52.5589
0
SEQEND
0
POLYLINE
8
CUT
66
1
70
0
0
VERTEX
8
CUT
10
39.685
20
50.4411
0
VERTEX
8
CUT
10
40.845
20
51.15
0
VERTEX
8
CUT
10
46.245
20
51.15
0
VERTEX
8
CUT
10
47.405
20
50.4411
0
SEQEND
0
POLYLINE
8
CUT
66
1
70
0
0
VERTEX
8
CUT
10
39.685
20
49.6589
0
VERTEX
8
CUT
10
40.845
20
48.95
0
VERTEX
8
CUT
10
46.245
20
48.95
0
VERTEX
8
CUT
10
47.405
20
49.6589
0
SEQEND
0
POLYLINE
8
CUT
66
1
70
0
0
VERTEX
8
CUT
10
39.685
20
47.5411
0
VERTEX
8
CUT
10
40.845
20
48.25
0
VERTEX
8
CUT
10
46.245
20
48.25
0
VERTEX
8
CUT
10
47.405
20
47.5411
0
SEQEND
0
POLYLINE
8
CUT
66
1
70
0
0
VERTEX
8
CUT
10
39.685
20
46.7589
0
VERTEX
8
CUT
10
40.845
20
46.05
0
VERTEX
8
CUT
10
46.245
20
46.05
0
VERTEX
8
CUT
10
47.405
20
46.7589
0
SEQEND
0
POLYLINE
8
CUT
66
1
70
0
0
VERTEX
8
CUT
10
39.685
20
44.6411
0
VERTEX
8
CUT
10
40.845
20
45.35
0
VERTEX
8
CUT
10
46.245
20
45.35
0
VERTEX
8
CUT
10
47.405
20
44.6411
0
SEQEND
0
POLYLINE
8
CUT
66
1
70
0
0
VERTEX
8
CUT
10
39.685
20
43.8589
0
VERTEX
8
CUT
10
40.845
20
43.15
0
VERTEX
8
CUT
10
46.245
20
43.15
0
VERTEX
8
CUT
10
47.405
20
43.8589
0
SEQEND
0
POLYLINE
8
CUT
66
1
70
0
0
VERTEX
8
CUT
10
39.685
20
41.7411
0
VERTEX
8
CUT
10
40.845
20
42.45
0
VERTEX
8
CUT
10
46.245
20
42.45
0
VERTEX
8
CUT
10
47.405
20
41.7411
0
SEQEND
0
POLYLINE
8
CUT
66
1
70
0
0
VERTEX
8
CUT
10
39.685
20
40.9589
0
VERTEX
8
CUT
10
40.845
20
40.25
0
VERTEX
8
CUT
10
46.245
20
40.25
0
VERTEX
8
CUT
10
47.405
20
40.9589
0
SEQEND
0
POLYLINE
8
CUT
66
1
70
0
0
VERTEX
8
CUT
10
39.685
20
38.8411
0
VERTEX
8
CUT
10
40.845
20
39.55
0
VERTEX
8
CUT
10
46.245
20
39.55
0
VERTEX
8
CUT
10
47.405
20
38.8411
0
SEQEND
0
POLYLINE
8
CUT
66
1
70
0
0
VERTEX
8
CUT
10
39.685
20
38.0589
0
VERTEX
8
CUT
10
40.845
20
37.35
0
VERTEX
8
CUT
10
46.245
20
37.35
0
VERTEX
8
CUT
10
47.405
20
38.0589
0
SEQEND
0
POLYLINE
8
CUT
66
1
70
0
0
VERTEX
8
CUT
10
39.685
20
35.9411
0
VERTEX
8
CUT
10
40.845
20
36.65
0
VERTEX
8
CUT
10
46.245
20
36.65
0
VERTEX
8
CUT
10
47.405
20
35.9411
0
SEQEND
0
POLYLINE
8
CUT
66
1
70
0
0
VERTEX
8
CUT
10
39.685
20
35.1589
0
VERTEX
8
CUT
10
40.845
20
34.45
0
VERTEX
8
CUT
10
46.245
20
34.45
0
VERTEX
8
CUT
10
47.405
20
35.1589
0
SEQEND
0
POLYLINE
8
CUT
66
1
70
0
0
VERTEX
8
CUT
10
39.685
20
33.0411
0
VERTEX
8
CUT
10
40.845
20
33.75
0
VERTEX
8
CUT
10
46.245
20
33.75
0
VERTEX
8
CUT
10
47.405
20
33.0411
0
SEQEND
0
POLYLINE
8
CUT
66
1
70
0
0
VERTEX
8
CUT
10
39.685
20
32.2589
0
VERTEX
8
CUT
10
40.845
20
31.55
0
VERTEX
8
CUT
10
46.245
20
31.55
0
VERTEX
8
CUT
10
47.405
20
32.2589
0
SEQEND
0
POLYLINE
8
CUT
66
1
70
0
0
VERTEX
8
CUT
10
39.685
20
30.1411
0
VERTEX
8
CUT
10
40.845
20
30.85
0
VERTEX
8
CUT
10
46.245
20
30.85
0
VERTEX
8
CUT
10
47.405
20
30.1411
0
SEQEND
0
POLYLINE
8
CUT
66
1
70
0
0
VERTEX
8
CUT
10
39.685
20
29.3589
0
VERTEX
8
CUT
10
40.845
20
28.65
0
VERTEX
8
CUT
10
46.245
20
28.65
0
VERTEX
8
CUT
10
47.405
20
29.3589
0
SEQEND
0
POLYLINE
8
CUT
66
1
70
0
0
VERTEX
8
CUT
10
39.685
20
27.2411
0
VERTEX
8
CUT
10
40.845
20
27.95
0
VERTEX
8
CUT
10
46.245
20
27.95
0
VERTEX
8
CUT
10
47.405
20
27.2411
0
SEQEND
0
POLYLINE
8
CUT
66
1
70
0
0
VERTEX
8
CUT
10
39.685
20
26.4589
0
VERTEX
8
CUT
10
40.845
20
25.75
0
VERTEX
8
CUT
10
46.245
20
25.75
0
VERTEX
8
CUT
10
47.405
20
26.4589
0
SEQEND
0
POLYLINE
8
CUT
66
1
70
0
0
VERTEX
8
CUT
10
39.685
20
24.3411
0
VERTEX
8
CUT
10
40.845
20
25.05
0
VERTEX
8
CUT
10
46.245
20
25.05
0
VERTEX
8
CUT
10
47.405
20
24.3411
0
SEQEND
0
POLYLINE
8
CUT
66
1
70
0
0
VERTEX
8
CUT
10
39.685
20
23.5589
0
VERTEX
8
CUT
10
40.845
20
22.85
0
VERTEX
8
CUT
10
46.245
20
22.85
0
VERTEX
8
CUT
10
47.405
20
23.5589
0
SEQEND
0
POLYLINE
8
CUT
66
1
70
0
0
VERTEX
8
CUT
10
39.685
20
21.4411
0
VERTEX
8
CUT
10
40.845
20
22.15
0
VERTEX
8
CUT
10
46.245
20
22.15
0
VERTEX
8
CUT
10
47.405
20
21.4411
0
SEQEND
0
POLYLINE
8
CUT
66
1
70
0
0
VERTEX
8
CUT
10
39.685
20
20.6589
0
VERTEX
8
CUT
10
40.845
20
19.95
0
VERTEX
8
CUT
10
46.245
20
19.95
0
VERTEX
8
CUT
10
47.405
20
20.6589
0
SEQEND
0
POLYLINE
8
CUT
66
1
70
0
0
VERTEX
8
CUT
10
39.685
20
18.5411
0
VERTEX
8
CUT
10
40.845
20
19.25
0
VERTEX
8
CUT
10
46.245
20
19.25
0
VERTEX
8
CUT
10
47.405
20
18.5411
0
SEQEND
0
POLYLINE
8
CUT
66
1
70
0
0
VERTEX
8
CUT
10
39.685
20
17.7589
0
VERTEX
8
CUT
10
40.845
20
17.05
0
VERTEX
8
CUT
10
46.245
20
17.05
0
VERTEX
8
CUT
10
47.405
20
17.7589
0
SEQEND
0
POLYLINE
8
CUT
66
1
70
0
0
VERTEX
8
CUT
10
39.685
20
15.6411
0
VERTEX
8
CUT
10
40.845
20
16.35
0
VERTEX
8
CUT
10
46.245
20
16.35
0
VERTEX
8
CUT
10
47.405
20
15.6411
0
SEQEND
0
POLYLINE
8
CUT
66
1
70
0
0
VERTEX
8
CUT
10
39.685
20
14.8589
0
VERTEX
8
CUT
10
40.845
20
14.15
0
VERTEX
8
CUT
10
46.245
20
14.15
0
VERTEX
8
CUT
10
47.405
20
14.8589
0
SEQEND
0
POLYLINE
8
CUT
66
1
70
0
0
VERTEX
8
CUT
10
39.685
20
12.7411
0
VERTEX
8
CUT
10
40.845
20
13.45
0
VERTEX
8
CUT
10
46.245
20
13.45
0
VERTEX
8
CUT
10
47.405
20
12.7411
0
SEQEND
0
POLYLINE
8
CUT
66
1
70
0
0
VERTEX
8
CUT
10
39.685
20
11.9589
0
VERTEX
8
CUT
10
40.845
20
11.25
0
VERTEX
8
CUT
10
46.245
20
11.25
0
VERTEX
8
CUT
10
47.405
20
11.9589
0
SEQEND
0
POLYLINE
8
CUT
66
1
70
0
0
VERTEX
8
CUT
10
39.685
20
9.8411
0
VERTEX
8
CUT
10
40.845
20
10.55
0
VERTEX
8
CUT
10
46.245
20
10.55
0
VERTEX
8
CUT
10
47.405
20
9.8411
0
SEQEND
0
POLYLINE
8
CUT
66
1
70
0
0
VERTEX
8
CUT
10
39.685
20
9.0589
0
VERTEX
8
CUT
10
40.845
20
8.35
0
VERTEX
8
CUT
10
46.245
20
8.35
0
VERTEX
8
CUT
10
47.405
20
9.0589
0
SEQEND
0
POLYLINE
8
CUT
66
1
70
0
0
VERTEX
8
CUT
10
39.685
20
6.9411
0
VERTEX
8
CUT
10
40.845
20
7.65
0
VERTEX
8
CUT
10
46.245
20
7.65
0
VERTEX
8
CUT
10
47.405
20
6.9411
0
SEQEND
0
POLYLINE
8
CUT
66
1
70
0
0
VERTEX
8
CUT
10
39.685
20
6.1589
0
VERTEX
8
CUT
10
40.845
20
5.45
0
VERTEX
8
CUT
10
46.245
20
5.45
0
VERTEX
8
CUT
10
47.405
20
6.1589
0
SEQEND
0
POLYLINE
8
CUT
66
1
70
0
0
VERTEX
8
CUT
10
39.685
20
4.0411
0
VERTEX
8
CUT
10
40.845
20
4.75
0
VERTEX
8
CUT
10
46.245
20
4.75
0
VERTEX
8
CUT
10
47.405
20
4.0411
0
SEQEND
0
POLYLINE
8
CUT
66
1
70
0
0
VERTEX
8
CUT
10
39.685
20
3.2589
0
VERTEX
8
CUT
10
40.845
20
2.55
0
VERTEX
8
CUT
10
46.245
20
2.55
0
VERTEX
8
CUT
10
47.405
20
3.2589
0
SEQEND
0
POLYLINE
8
CUT
66
1
70
0
0
VERTEX
8
CUT
10
39.685
20
1.1411
0
VERTEX
8
CUT
10
40.845
20
1.85
0
VERTEX
8
CUT
10
46.245
20
1.85
0
VERTEX
8
CUT
10
47.405
20
1.1411
0
SEQEND
0
LINE
8
CUT
10
39.685
20
0.3589
11
40.2723
21
0
0
LINE
8
CUT
10
46.8177
20
0
11
47.405
21
0.3589
0
POLYLINE
8
CUT
66
1
70
0
0
VERTEX
8
CUT
10
47.494
20
69.2911
0
VERTEX
8
CUT
10
48.654
20
70
0
VERTEX
8
CUT
10
54.054
20
70
0
VERTEX
8
CUT
10
55.214
20
69.2911
0
SEQEND
0
POLYLINE
8
CUT
66
1
70
0
0
VERTEX
8
CUT
10
47.494
20
68.5089
0
VERTEX
8
CUT
10
48.654
20
67.8
0
VERTEX
8
CUT
10
54.054
20
67.8
0
VERTEX
8
CUT
10
55.214
20
68.5089
0
SEQEND
0
POLYLINE
8
CUT
66
1
70
0
0
VERTEX
8
CUT
10
47.494
20
66.3911
0
VERTEX
8
CUT
10
48.654
20
67.1
0
VERTEX
8
CUT
10
54.054
20
67.1
0
VERTEX
8
CUT
10
55.214
20
66.3911
0
SEQEND
0
POLYLINE
8
CUT
66
1
70
0
0
VERTEX
8
CUT
10
47.494
20
65.6089
0
VERTEX
8
CUT
10
48.654
20
64.9
0
VERTEX
8
CUT
10
54.054
20
64.9
0
VERTEX
8
CUT
10
55.214
20
65.6089
0
SEQEND
0
POLYLINE
8
CUT
66
1
70
0
0
VERTEX
8
CUT
10
47.494
20
63.4911
0
VERTEX
8
CUT
10
48.654
20
64.2
0
VERTEX
8
CUT
10
54.054
20
64.2
0
VERTEX
8
CUT
10
55.214
20
63.4911
0
SEQEND
0
POLYLINE
8
CUT
66
1
70
0
0
VERTEX
8
CUT
10
47.494
20
62.7089
0
VERTEX
8
CUT
10
48.654
20
62
0
VERTEX
8
CUT
10
54.054
20
62
0
VERTEX
8
CUT
10
55.214
20
62.7089
0
SEQEND
0
POLYLINE
8
CUT
66
1
70
0
0
VERTEX
8
CUT
10
47.494
20
60.5911
0
VERTEX
8
CUT
10
48.654
20
61.3
0
VERTEX
8
CUT
10
54.054
20
61.3
0
VERTEX
8
CUT
10
55.214
20
60.5911
0
SEQEND
0
POLYLINE
8
CUT
66
1
70
0
0
VERTEX
8
CUT
10
47.494
20
59.8089
0
VERTEX
8
CUT
10
48.654
20
59.1
0
VERTEX
8
CUT
10
54.054
20
59.1
0
VERTEX
8
CUT
10
55.214
20
59.8089
0
SEQEND
0
POLYLINE
8
CUT
66
1
70
0
0
VERTEX
8
CUT
10
47.494
20
57.6911
0
VERTEX
8
CUT
10
48.654
20
58.4
0
VERTEX
8
CUT
10
54.054
20
58.4
0
VERTEX
8
CUT
10
55.214
20
57.6911
0
SEQEND
0
POLYLINE
8
CUT
66
1
70
0
0
VERTEX
8
CUT
10
47.494
20
56.9089
0
VERTEX
8
CUT
10
48.654
20
56.2
0
VERTEX
8
CUT
10
54.054
20
56.2
0
VERTEX
8
CUT
10
55.214
20
56.9089
0
SEQEND
0
POLYLINE
8
CUT
66
1
70
0
0
VERTEX
8
CUT
10
47.494
20
54.7911
0
VERTEX
8
CUT
10
48.654
20
55.5
0
VERTEX
8
CUT
10
54.054
20
55.5
0
VERTEX
8
CUT
10
55.214
20
54.7911
0
SEQEND
0
POLYLINE
8
CUT
66
1
70
0
0
VERTEX
8
CUT
10
47.494
20
54.0089
0
VERTEX
8
CUT
10
48.654
20
53.3
0
VERTEX
8
CUT
10
54.054
20
53.3
0
VERTEX
8
CUT
10
55.214
20
54.0089
0
SEQEND
0
POLYLINE
8
CUT
66
1
70
0
0
VERTEX
8
CUT
10
47.494
20
51.8911
0
VERTEX
8
CUT
10
48.654
20
52.6
0
VERTEX
8
CUT
10
54.054
20
52.6
0
VERTEX
8
CUT
10
55.214
20
51.8911
0
SEQEND
0
POLYLINE
8
CUT
66
1
70
0
0
VERTEX
8
CUT
10
47.494
20
51.1089
0
VERTEX
8
CUT
10
48.654
20
50.4
0
VERTEX
8
CUT
10
54.054
20
50.4
0
VERTEX
8
CUT
10
55.214
20
51.1089
0
SEQEND
0
POLYLINE
8
CUT
66
1
70
0
0
VERTEX
8
CUT
10
47.494
20
48.9911
0
VERTEX
8
CUT
10
48.654
20
49.7
0
VERTEX
8
CUT
10
54.054
20
49.7
0
VERTEX
8
CUT
10
55.214
20
48.9911
0
SEQEND
0
POLYLINE
8
CUT
66
1
70
0
0
VERTEX
8
CUT
10
47.494
20
48.2089
0
VERTEX
8
CUT
10
48.654
20
47.5
0
VERTEX
8
CUT
10
54.054
20
47.5
0
VERTEX
8
CUT
10
55.214
20
48.2089
0
SEQEND
0
POLYLINE
8
CUT
66
1
70
0
0
VERTEX
8
CUT
10
47.494
20
46.0911
0
VERTEX
8
CUT
10
48.654
20
46.8
0
VERTEX
8
CUT
10
54.054
20
46.8
0
VERTEX
8
CUT
10
55.214
20
46.0911
0
SEQEND
0
POLYLINE
8
CUT
66
1
70
0
0
VERTEX
8
CUT
10
47.494
20
45.3089
0
VERTEX
8
CUT
10
48.654
20
44.6
0
VERTEX
8
CUT
10
54.054
20
44.6
0
VERTEX
8
CUT
10
55.214
20
45.3089
0
SEQEND
0
POLYLINE
8
CUT
66
1
70
0
0
VERTEX
8
CUT
10
47.494
20
43.1911
0
VERTEX
8
CUT
10
48.654
20
43.9
0
VERTEX
8
CUT
10
54.054
20
43.9
0
VERTEX
8
CUT
10
55.214
20
43.1911
0
SEQEND
0
POLYLINE
8
CUT
66
1
70
0
0
VERTEX
8
CUT
10
47.494
20
42.4089
0
VERTEX
8
CUT
10
48.654
20
41.7
0
VERTEX
8
CUT
10
54.054
20
41.7
0
VERTEX
8
CUT
10
55.214
20
42.4089
0
SEQEND
0
POLYLINE
8
CUT
66
1
70
0
0
VERTEX
8
CUT
10
47.494
20
40.2911
0
VERTEX
8
CUT
10
48.654
20
41
0
VERTEX
8
CUT
10
54.054
20
41
0
VERTEX
8
CUT
10
55.214
20
40.2911
0
SEQEND
0
POLYLINE
8
CUT
66
1
70
0
0
VERTEX
8
CUT
10
47.494
20
39.5089
0
VERTEX
8
CUT
10
48.654
20
38.8
0
VERTEX
8
CUT
10
54.054
20
38.8
0
VERTEX
8
CUT
10
55.214
20
39.5089
0
SEQEND
0
POLYLINE
8
CUT
66
1
70
0
0
VERTEX
8
CUT
10
47.494
20
37.3911
0
VERTEX
8
CUT
10
48.654
20
38.1
0
VERTEX
8
CUT
10
54.054
20
38.1
0
VERTEX
8
CUT
10
55.214
20
37.3911
0
SEQEND
0
POLYLINE
8
CUT
66
1
70
0
0
VERTEX
8
CUT
10
47.494
20
36.6089
0
VERTEX
8
CUT
10
48.654
20
35.9
0
VERTEX
8
CUT
10
54.054
20
35.9
0
VERTEX
8
CUT
10
55.214
20
36.6089
0
SEQEND
0
POLYLINE
8
CUT
66
1
70
0
0
VERTEX
8
CUT
10
47.494
20
34.4911
0
VERTEX
8
CUT
10
48.654
20
35.2
0
VERTEX
8
CUT
10
54.054
20
35.2
0
VERTEX
8
CUT
10
55.214
20
34.4911
0
SEQEND
0
POLYLINE
8
CUT
66
1
70
0
0
VERTEX
8
CUT
10
47.494
20
33.7089
0
VERTEX
8
CUT
10
48.654
20
33
0
VERTEX
8
CUT
10
54.054
20
33
0
VERTEX
8
CUT
10
55.214
20
33.7089
0
SEQEND
0
POLYLINE
8
CUT
66
1
70
0
0
VERTEX
8
CUT
10
47.494
20
31.5911
0
VERTEX
8
CUT
10
48.654
20
32.3
0
VERTEX
8
CUT
10
54.054
20
32.3
0
VERTEX
8
CUT
10
55.214
20
31.5911
0
SEQEND
0
POLYLINE
8
CUT
66
1
70
0
0
VERTEX
8
CUT
10
47.494
20
30.8089
0
VERTEX
8
CUT
10
48.654
20
30.1
0
VERTEX
8
CUT
10
54.054
20
30.1
0
VERTEX
8
CUT
10
55.214
20
30.8089
0
SEQEND
0
POLYLINE
8
CUT
66
1
70
0
0
VERTEX
8
CUT
10
47.494
20
28.6911
0
VERTEX
8
CUT
10
48.654
20
29.4
0
VERTEX
8
CUT
10
54.054
20
29.4
0
VERTEX
8
CUT
10
55.214
20
28.6911
0
SEQEND
0
POLYLINE
8
CUT
66
1
70
0
0
VERTEX
8
CUT
10
47.494
20
27.9089
0
VERTEX
8
CUT
10
48.654
20
27.2
0
VERTEX
8
CUT
10
54.054
20
27.2
0
VERTEX
8
CUT
10
55.214
20
27.9089
0
SEQEND
0
POLYLINE
8
CUT
66
1
70
0
0
VERTEX
8
CUT
10
47.494
20
25.7911
0
VERTEX
8
CUT
10
48.654
20
26.5
0
VERTEX
8
CUT
10
54.054
20
26.5
0
VERTEX
8
CUT
10
55.214
20
25.7911
0
SEQEND
0
POLYLINE
8
CUT
66
1
70
0
0
VERTEX
8
CUT
10
47.494
20
25.0089
0
VERTEX
8
CUT
10
48.654
20
24.3
0
VERTEX
8
CUT
10
54.054
20
24.3
0
VERTEX
8
CUT
10
55.214
20
25.0089
0
SEQEND
0
POLYLINE
8
CUT
66
1
70
0
0
VERTEX
8
CUT
10
47.494
20
22.8911
0
VERTEX
8
CUT
10
48.654
20
23.6
0
VERTEX
8
CUT
10
54.054
20
23.6
0
VERTEX
8
CUT
10
55.214
20
22.8911
0
SEQEND
0
POLYLINE
8
CUT
66
1
70
0
0
VERTEX
8
CUT
10
47.494
20
22.1089
0
VERTEX
8
CUT
10
48.654
20
21.4
0
VERTEX
8
CUT
10
54.054
20
21.4
0
VERTEX
8
CUT
10
55.214
20
22.1089
0
SEQEND
0
POLYLINE
8
CUT
66
1
70
0
0
VERTEX
8
CUT
10
47.494
20
19.9911
0
VERTEX
8
CUT
10
48.654
20
20.7
0
VERTEX
8
CUT
10
54.054
20
20.7
0
VERTEX
8
CUT
10
55.214
20
19.9911
0
SEQEND
0
POLYLINE
8
CUT
66
1
70
0
0
VERTEX
8
CUT
10
47.494
20
19.2089
0
VERTEX
8
CUT
10
48.654
20
18.5
0
VERTEX
8
CUT
10
54.054
20
18.5
0
VERTEX
8
CUT
10
55.214
20
19.2089
0
SEQEND
0
POLYLINE
8
CUT
66
1
70
0
0
VERTEX
8
CUT
10
47.494
20
17.0911
0
VERTEX
8
CUT
10
48.654
20
17.8
0
VERTEX
8
CUT
10
54.054
20
17.8
0
VERTEX
8
CUT
10
55.214
20
17.0911
0
SEQEND
0
POLYLINE
8
CUT
66
1
70
0
0
VERTEX
8
CUT
10
47.494
20
16.3089
0
VERTEX
8
CUT
10
48.654
20
15.6
0
VERTEX
8
CUT
10
54.054
20
15.6
0
VERTEX
8
CUT
10
55.214
20
16.3089
0
SEQEND
0
POLYLINE
8
CUT
66
1
70
0
0
VERTEX
8
CUT
10
47.494
20
14.1911
0
VERTEX
8
CUT
10
48.654
20
14.9
0
VERTEX
8
CUT
10
54.054
20
14.9
0
VERTEX
8
CUT
10
55.214
20
14.1911
0
SEQEND
0
POLYLINE
8
CUT
66
1
70
0
0
VERTEX
8
CUT
10
47.494
20
13.4089
0
VERTEX
8
CUT
10
48.654
20
12.7
0
VERTEX
8
CUT
10
54.054
20
12.7
0
VERTEX
8
CUT
10
55.214
20
13.4089
0
SEQEND
0
POLYLINE
8
CUT
66
1
70
0
0
VERTEX
8
CUT
10
47.494
20
11.2911
0
VERTEX
8
CUT
10
48.654
20
12
0
VERTEX
8
CUT
10
54.054
20
12
0
VERTEX
8
CUT
10
55.214
20
11.2911
0
SEQEND
0
POLYLINE
8
CUT
66
1
70
0
0
VERTEX
8
CUT
10
47.494
20
10.5089
0
VERTEX
8
CUT
10
48.654
20
9.8
0
VERTEX
8
CUT
10
54.054
20
9.8
0
VERTEX
8
CUT
10
55.214
20
10.5089
0
SEQEND
0
POLYLINE
8
CUT
66
1
70
0
0
VERTEX
8
CUT
10
47.494
20
8.3911
0
VERTEX
8
CUT
10
48.654
20
9.1
0
VERTEX
8
CUT
10
54.054
20
9.1
0
VERTEX
8
CUT
10
55.214
20
8.3911
0
SEQEND
0
POLYLINE
8
CUT
66
1
70
0
0
VERTEX
8
CUT
10
47.494
20
7.6089
0
VERTEX
8
CUT
10
48.654
20
6.9
0
VERTEX
8
CUT
10
54.054
20
6.9
0
VERTEX
8
CUT
10
55.214
20
7.6089
0
SEQEND
0
POLYLINE
8
CUT
66
1
70
0
0
VERTEX
8
CUT
10
47.494
20
5.4911
0
VERTEX
8
CUT
10
48.654
20
6.2
0
VERTEX
8
CUT
10
54.054
20
6.2
0
VERTEX
8
CUT
10
55.214
20
5.4911
0
SEQEND
0
POLYLINE
8
CUT
66
1
70
0
0
VERTEX
8
CUT
10
47.494
20
4.7089
0
VERTEX
8
CUT
10
48.654
20
4
0
VERTEX
8
CUT
10
54.054
20
4
0
VERTEX
8
CUT
10
55.214
20
4.7089
0
SEQEND
0
POLYLINE
8
CUT
66
1
70
0
0
VERTEX
8
CUT
10
47.494
20
2.5911
0
VERTEX
8
CUT
10
48.654
20
3.3
0
VERTEX
8
CUT
10
54.054
20
3.3
0
VERTEX
8
CUT
10
55.214
20
2.5911
0
SEQEND
0
POLYLINE
8
CUT
66
1
70
0
0
VERTEX
8
CUT
10
47.494
20
1.8089
0
VERTEX
8
CUT
10
48.654
20
1.1
0
VERTEX
8
CUT
10
54.054
20
1.1
0
VERTEX
8
CUT
10
55.214
20
1.8089
0
SEQEND
0
POLYLINE
8
CUT
66
1
70
0
0
VERTEX
8
CUT
10
47.9995
20
0
0
VERTEX
8
CUT
10
48.654
20
0.4
0
VERTEX
8
CUT
10
54.054
20
0.4
0
VERTEX
8
CUT
10
54.7085
20
0
0
SEQEND
0
POLYLINE
8
CUT
66
1
70
0
0
VERTEX
8
CUT
10
55.303
20
69.9589
0
VERTEX
8
CUT
10
56.463
20
69.25
0
VERTEX
8
CUT
10
61.863
20
69.25
0
VERTEX
8
CUT
10
63.023
20
69.9589
0
SEQEND
0
POLYLINE
8
CUT
66
1
70
0
0
VERTEX
8
CUT
10
55.303
20
67.8411
0
VERTEX
8
CUT
10
56.463
20
68.55
0
VERTEX
8
CUT
10
61.863
20
68.55
0
VERTEX
8
CUT
10
63.023
20
67.8411
0
SEQEND
0
POLYLINE
8
CUT
66
1
70
0
0
VERTEX
8
CUT
10
55.303
20
67.0589
0
VERTEX
8
CUT
10
56.463
20
66.35
0
VERTEX
8
CUT
10
61.863
20
66.35
0
VERTEX
8
CUT
10
63.023
20
67.0589
0
SEQEND
0
POLYLINE
8
CUT
66
1
70
0
0
VERTEX
8
CUT
10
55.303
20
64.9411
0
VERTEX
8
CUT
10
56.463
20
65.65
0
VERTEX
8
CUT
10
61.863
20
65.65
0
VERTEX
8
CUT
10
63.023
20
64.9411
0
SEQEND
0
POLYLINE
8
CUT
66
1
70
0
0
VERTEX
8
CUT
10
55.303
20
64.1589
0
VERTEX
8
CUT
10
56.463
20
63.45
0
VERTEX
8
CUT
10
61.863
20
63.45
0
VERTEX
8
CUT
10
63.023
20
64.1589
0
SEQEND
0
POLYLINE
8
CUT
66
1
70
0
0
VERTEX
8
CUT
10
55.303
20
62.0411
0
VERTEX
8
CUT
10
56.463
20
62.75
0
VERTEX
8
CUT
10
61.863
20
62.75
0
VERTEX
8
CUT
10
63.023
20
62.0411
0
SEQEND
0
POLYLINE
8
CUT
66
1
70
0
0
VERTEX
8
CUT
10
55.303
20
61.2589
0
VERTEX
8
CUT
10
56.463
20
60.55
0
VERTEX
8
CUT
10
61.863
20
60.55
0
VERTEX
8
CUT
10
63.023
20
61.2589
0
SEQEND
0
POLYLINE
8
CUT
66
1
70
0
0
VERTEX
8
CUT
10
55.303
20
59.1411
0
VERTEX
8
CUT
10
56.463
20
59.85
0
VERTEX
8
CUT
10
61.863
20
59.85
0
VERTEX
8
CUT
10
63.023
20
59.1411
0
SEQEND
0
POLYLINE
8
CUT
66
1
70
0
0
VERTEX
8
CUT
10
55.303
20
58.3589
0
VERTEX
8
CUT
10
56.463
20
57.65
0
VERTEX
8
CUT
10
61.863
20
57.65
0
VERTEX
8
CUT
10
63.023
20
58.3589
0
SEQEND
0
POLYLINE
8
CUT
66
1
70
0
0
VERTEX
8
CUT
10
55.303
20
56.2411
0
VERTEX
8
CUT
10
56.463
20
56.95
0
VERTEX
8
CUT
10
61.863
20
56.95
0
VERTEX
8
CUT
10
63.023
20
56.2411
0
SEQEND
0
POLYLINE
8
CUT
66
1
70
0
0
VERTEX
8
CUT
10
55.303
20
55.4589
0
VERTEX
8
CUT
10
56.463
20
54.75
0
VERTEX
8
CUT
10
61.863
20
54.75
0
VERTEX
8
CUT
10
63.023
20
55.4589
0
SEQEND
0
POLYLINE
8
CUT
66
1
70
0
0
VERTEX
8
CUT
10
55.303
20
53.3411
0
VERTEX
8
CUT
10
56.463
20
54.05
0
VERTEX
8
CUT
10
61.863
20
54.05
0
VERTEX
8
CUT
10
63.023
20
53.3411
0
SEQEND
0
POLYLINE
8
CUT
66
1
70
0
0
VERTEX
8
CUT
10
55.303
20
52.5589
0
VERTEX
8
CUT
10
56.463
20
51.85
0
VERTEX
8
CUT
10
61.863
20
51.85
0
VERTEX
8
CUT
10
63.023
20
52.5589
0
SEQEND
0
POLYLINE
8
CUT
66
1
70
0
0
VERTEX
8
CUT
10
55.303
20
50.4411
0
VERTEX
8
CUT
10
56.463
20
51.15
0
VERTEX
8
CUT
10
61.863
20
51.15
0
VERTEX
8
CUT
10
63.023
20
50.4411
0
SEQEND
0
POLYLINE
8
CUT
66
1
70
0
0
VERTEX
8
CUT
10
55.303
20
49.6589
0
VERTEX
8
CUT
10
56.463
20
48.95
0
VERTEX
8
CUT
10
61.863
20
48.95
0
VERTEX
8
CUT
10
63.023
20
49.6589
0
SEQEND
0
POLYLINE
8
CUT
66
1
70
0
0
VERTEX
8
CUT
10
55.303
20
47.5411
0
VERTEX
8
CUT
10
56.463
20
48.25
0
VERTEX
8
CUT
10
61.863
20
48.25
0
VERTEX
8
CUT
10
63.023
20
47.5411
0
SEQEND
0
POLYLINE
8
CUT
66
1
70
0
0
VERTEX
8
CUT
10
55.303
20
46.7589
0
VERTEX
8
CUT
10
56.463
20
46.05
0
VERTEX
8
CUT
10
61.863
20
46.05
0
VERTEX
8
CUT
10
63.023
20
46.7589
0
SEQEND
0
POLYLINE
8
CUT
66
1
70
0
0
VERTEX
8
CUT
10
55.303
20
44.6411
0
VERTEX
8
CUT
10
56.463
20
45.35
0
VERTEX
8
CUT
10
61.863
20
45.35
0
VERTEX
8
CUT
10
63.023
20
44.6411
0
SEQEND
0
POLYLINE
8
CUT
66
1
70
0
0
VERTEX
8
CUT
10
55.303
20
43.8589
0
VERTEX
8
CUT
10
56.463
20
43.15
0
VERTEX
8
CUT
10
61.863
20
43.15
0
VERTEX
8
CUT
10
63.023
20
43.8589
0
SEQEND
0
POLYLINE
8
CUT
66
1
70
0
0
VERTEX
8
CUT
10
55.303
20
41.7411
0
VERTEX
8
CUT
10
56.463
20
42.45
0
VERTEX
8
CUT
10
61.863
20
42.45
0
VERTEX
8
CUT
10
63.023
20
41.7411
0
SEQEND
0
POLYLINE
8
CUT
66
1
70
0
0
VERTEX
8
CUT
10
55.303
20
40.9589
0
VERTEX
8
CUT
10
56.463
20
40.25
0
VERTEX
8
CUT
10
61.863
20
40.25
0
VERTEX
8
CUT
10
63.023
20
40.9589
0
SEQEND
0
POLYLINE
8
CUT
66
1
70
0
0
VERTEX
8
CUT
10
55.303
20
38.8411
0
VERTEX
8
CUT
10
56.463
20
39.55
0
VERTEX
8
CUT
10
61.863
20
39.55
0
VERTEX
8
CUT
10
63.023
20
38.8411
0
SEQEND
0
POLYLINE
8
CUT
66
1
70
0
0
VERTEX
8
CUT
10
55.303
20
38.0589
0
VERTEX
8
CUT
10
56.463
20
37.35
0
VERTEX
8
CUT
10
61.863
20
37.35
0
VERTEX
8
CUT
10
63.023
20
38.0589
0
SEQEND
0
POLYLINE
8
CUT
66
1
70
0
0
VERTEX
8
CUT
10
55.303
20
35.9411
0
VERTEX
8
CUT
10
56.463
20
36.65
0
VERTEX
8
CUT
10
61.863
20
36.65
0
VERTEX
8
CUT
10
63.023
20
35.9411
0
SEQEND
0
POLYLINE
8
CUT
66
1
70
0
0
VERTEX
8
CUT
10
55.303
20
35.1589
0
VERTEX
8
CUT
10
56.463
20
34.45
0
VERTEX
8
CUT
10
61.863
20
34.45
0
VERTEX
8
CUT
10
63.023
20
35.1589
0
SEQEND
0
POLYLINE
8
CUT
66
1
70
0
0
VERTEX
8
CUT
10
55.303
20
33.0411
0
VERTEX
8
CUT
10
56.463
20
33.75
0
VERTEX
8
CUT
10
61.863
20
33.75
0
VERTEX
8
CUT
10
63.023
20
33.0411
0
SEQEND
0
POLYLINE
8
CUT
66
1
70
0
0
VERTEX
8
CUT
10
55.303
20
32.2589
0
VERTEX
8
CUT
10
56.463
20
31.55
0
VERTEX
8
CUT
10
61.863
20
31.55
0
VERTEX
8
CUT
10
63.023
20
32.2589
0
SEQEND
0
POLYLINE
8
CUT
66
1
70
0
0
VERTEX
8
CUT
10
55.303
20
30.1411
0
VERTEX
8
CUT
10
56.463
20
30.85
0
VERTEX
8
CUT
10
61.863
20
30.85
0
VERTEX
8
CUT
10
63.023
20
30.1411
0
SEQEND
0
POLYLINE
8
CUT
66
1
70
0
0
VERTEX
8
CUT
10
55.303
20
29.3589
0
VERTEX
8
CUT
10
56.463
20
28.65
0
VERTEX
8
CUT
10
61.863
20
28.65
0
VERTEX
8
CUT
10
63.023
20
29.3589
0
SEQEND
0
POLYLINE
8
CUT
66
1
70
0
0
VERTEX
8
CUT
10
55.303
20
27.2411
0
VERTEX
8
CUT
10
56.463
20
27.95
0
VERTEX
8
CUT
10
61.863
20
27.95
0
VERTEX
8
CUT
10
63.023
20
27.2411
0
SEQEND
0
POLYLINE
8
CUT
66
1
70
0
0
VERTEX
8
CUT
10
55.303
20
26.4589
0
VERTEX
8
CUT
10
56.463
20
25.75
0
VERTEX
8
CUT
10
61.863
20
25.75
0
VERTEX
8
CUT
10
63.023
20
26.4589
0
SEQEND
0
POLYLINE
8
CUT
66
1
70
0
0
VERTEX
8
CUT
10
55.303
20
24.3411
0
VERTEX
8
CUT
10
56.463
20
25.05
0
VERTEX
8
CUT
10
61.863
20
25.05
0
VERTEX
8
CUT
10
63.023
20
24.3411
0
SEQEND
0
POLYLINE
8
CUT
66
1
70
0
0
VERTEX
8
CUT
10
55.303
20
23.5589
0
VERTEX
8
CUT
10
56.463
20
22.85
0
VERTEX
8
CUT
10
61.863
20
22.85
0
VERTEX
8
CUT
10
63.023
20
23.5589
0
SEQEND
0
POLYLINE
8
CUT
66
1
70
0
0
VERTEX
8
CUT
10
55.303
20
21.4411
0
VERTEX
8
CUT
10
56.463
20
22.15
0
VERTEX
8
CUT
10
61.863
20
22.15
0
VERTEX
8
CUT
10
63.023
20
21.4411
0
SEQEND
0
POLYLINE
8
CUT
66
1
70
0
0
VERTEX
8
CUT
10
55.303
20
20.6589
0
VERTEX
8
CUT
10
56.463
20
19.95
0
VERTEX
8
CUT
10
61.863
20
19.95
0
VERTEX
8
CUT
10
63.023
20
20.6589
0
SEQEND
0
POLYLINE
8
CUT
66
1
70
0
0
VERTEX
8
CUT
10
55.303
20
18.5411
0
VERTEX
8
CUT
10
56.463
20
19.25
0
VERTEX
8
CUT
10
61.863
20
19.25
0
VERTEX
8
CUT
10
63.023
20
18.5411
0
SEQEND
0
POLYLINE
8
CUT
66
1
70
0
0
VERTEX
8
CUT
10
55.303
20
17.7589
0
VERTEX
8
CUT
10
56.463
20
17.05
0
VERTEX
8
CUT
10
61.863
20
17.05
0
VERTEX
8
CUT
10
63.023
20
17.7589
0
SEQEND
0
POLYLINE
8
CUT
66
1
70
0
0
VERTEX
8
CUT
10
55.303
20
15.6411
0
VERTEX
8
CUT
10
56.463
20
16.35
0
VERTEX
8
CUT
10
61.863
20
16.35
0
VERTEX
8
CUT
10
63.023
20
15.6411
0
SEQEND
0
POLYLINE
8
CUT
66
1
70
0
0
VERTEX
8
CUT
10
55.303
20
14.8589
0
VERTEX
8
CUT
10
56.463
20
14.15
0
VERTEX
8
CUT
10
61.863
20
14.15
0
VERTEX
8
CUT
10
63.023
20
14.8589
0
SEQEND
0
POLYLINE
8
CUT
66
1
70
0
0
VERTEX
8
CUT
10
55.303
20
12.7411
0
VERTEX
8
CUT
10
56.463
20
13.45
0
VERTEX
8
CUT
10
61.863
20
13.45
0
VERTEX
8
CUT
10
63.023
20
12.7411
0
SEQEND
0
POLYLINE
8
CUT
66
1
70
0
0
VERTEX
8
CUT
10
55.303
20
11.9589
0
VERTEX
8
CUT
10
56.463
20
11.25
0
VERTEX
8
CUT
10
61.863
20
11.25
0
VERTEX
8
CUT
10
63.023
20
11.9589
0
SEQEND
0
POLYLINE
8
CUT
66
1
70
0
0
VERTEX
8
CUT
10
55.303
20
9.8411
0
VERTEX
8
CUT
10
56.463
20
10.55
0
VERTEX
8
CUT
10
61.863
20
10.55
0
VERTEX
8
CUT
10
63.023
20
9.8411
0
SEQEND
0
POLYLINE
8
CUT
66
1
70
0
0
VERTEX
8
CUT
10
55.303
20
9.0589
0
VERTEX
8
CUT
10
56.463
20
8.35
0
VERTEX
8
CUT
10
61.863
20
8.35
0
VERTEX
8
CUT
10
63.023
20
9.0589
0
SEQEND
0
POLYLINE
8
CUT
66
1
70
0
0
VERTEX
8
CUT
10
55.303
20
6.9411
0
VERTEX
8
CUT
10
56.463
20
7.65
0
VERTEX
8
CUT
10
61.863
20
7.65
0
VERTEX
8
CUT
10
63.023
20
6.9411
0
SEQEND
0
POLYLINE
8
CUT
66
1
70
0
0
VERTEX
8
CUT
10
55.303
20
6.1589
0
VERTEX
8
CUT
10
56.463
20
5.45
0
VERTEX
8
CUT
10
61.863
20
5.45
0
VERTEX
8
CUT
10
63.023
20
6.1589
0
SEQEND
0
POLYLINE
8
CUT
66
1
70
0
0
VERTEX
8
CUT
10
55.303
20
4.0411
0
VERTEX
8
CUT
10
56.463
20
4.75
0
VERTEX
8
CUT
10
61.863
20
4.75
0
VERTEX
8
CUT
10
63.023
20
4.0411
0
SEQEND
0
POLYLINE
8
CUT
66
1
70
0
0
VERTEX
8
CUT
10
55.303
20
3.2589
0
VERTEX
8
CUT
10
56.463
20
2.55
0
VERTEX
8
CUT
10
61.863
20
2.55
0
VERTEX
8
CUT
10
63.023
20
3.2589
0
SEQEND
0
POLYLINE
8
CUT
66
1
70
0
0
VERTEX
8
CUT
10
55.303
20
1.1411
0
VERTEX
8
CUT
10
56.463
20
1.85
0
VERTEX
8
CUT
10
61.863
20
1.85
0
VERTEX
8
CUT
10
63.023
20
1.1411
0
SEQEND
0
LINE
8
CUT
10
55.303
20
0.3589
11
55.8903
21
0
0
LINE
8
CUT
10
62.4357
20
0
11
63.023
21
0.3589
0
POLYLINE
8
CUT
66
1
70
0
0
VERTEX
8
CUT
10
63.112
20
69.2911
0
VERTEX
8
CUT
10
64.272
20
70
0
VERTEX
8
CUT
10
69.672
20
70
0
VERTEX
8
CUT
10
70.832
20
69.2911
0
SEQEND
0
POLYLINE
8
CUT
66
1
70
0
0
VERTEX
8
CUT
10
63.112
20
68.5089
0
VERTEX
8
CUT
10
64.272
20
67.8
0
VERTEX
8
CUT
10
69.672
20
67.8
0
VERTEX
8
CUT
10
70.832
20
68.5089
0
SEQEND
0
POLYLINE
8
CUT
66
1
70
0
0
VERTEX
8
CUT
10
63.112
20
66.3911
0
VERTEX
8
CUT
10
64.272
20
67.1
0
VERTEX
8
CUT
10
69.672
20
67.1
0
VERTEX
8
CUT
10
70.832
20
66.3911
0
SEQEND
0
POLYLINE
8
CUT
66
1
70
0
0
VERTEX
8
CUT
10
63.112
20
65.6089
0
VERTEX
8
CUT
10
64.272
20
64.9
0
VERTEX
8
CUT
10
69.672
20
64.9
0
VERTEX
8
CUT
10
70.832
20
65.6089
0
SEQEND
0
POLYLINE
8
CUT
66
1
70
0
0
VERTEX
8
CUT
10
63.112
20
63.4911
0
VERTEX
8
CUT
10
64.272
20
64.2
0
VERTEX
8
CUT
10
69.672
20
64.2
0
VERTEX
8
CUT
10
70.832
20
63.4911
0
SEQEND
0
POLYLINE
8
CUT
66
1
70
0
0
VERTEX
8
CUT
10
63.112
20
62.7089
0
VERTEX
8
CUT
10
64.272
20
62
0
VERTEX
8
CUT
10
69.672
20
62
0
VERTEX
8
CUT
10
70.832
20
62.7089
0
SEQEND
0
POLYLINE
8
CUT
66
1
70
0
0
VERTEX
8
CUT
10
63.112
20
60.5911
0
VERTEX
8
CUT
10
64.272
20
61.3
0
VERTEX
8
CUT
10
69.672
20
61.3
0
VERTEX
8
CUT
10
70.832
20
60.5911
0
SEQEND
0
POLYLINE
8
CUT
66
1
70
0
0
VERTEX
8
CUT
10
63.112
20
59.8089
0
VERTEX
8
CUT
10
64.272
20
59.1
0
VERTEX
8
CUT
10
69.672
20
59.1
0
VERTEX
8
CUT
10
70.832
20
59.8089
0
SEQEND
0
POLYLINE
8
CUT
66
1
70
0
0
VERTEX
8
CUT
10
63.112
20
57.6911
0
VERTEX
8
CUT
10
64.272
20
58.4
0
VERTEX
8
CUT
10
69.672
20
58.4
0
VERTEX
8
CUT
10
70.832
20
57.6911
0
SEQEND
0
POLYLINE
8
CUT
66
1
70
0
0
VERTEX
8
CUT
10
63.112
20
56.9089
0
VERTEX
8
CUT
10
64.272
20
56.2
0
VERTEX
8
CUT
10
69.672
20
56.2
0
VERTEX
8
CUT
10
70.832
20
56.9089
0
SEQEND
0
POLYLINE
8
CUT
66
1
70
0
0
VERTEX
8
CUT
10
63.112
20
54.7911
0
VERTEX
8
CUT
10
64.272
20
55.5
0
VERTEX
8
CUT
10
69.672
20
55.5
0
VERTEX
8
CUT
10
70.832
20
54.7911
0
SEQEND
0
POLYLINE
8
CUT
66
1
70
0
0
VERTEX
8
CUT
10
63.112
20
54.0089
0
VERTEX
8
CUT
10
64.272
20
53.3
0
VERTEX
8
CUT
10
69.672
20
53.3
0
VERTEX
8
CUT
10
70.832
20
54.0089
0
SEQEND
0
POLYLINE
8
CUT
66
1
70
0
0
VERTEX
8
CUT
10
63.112
20
51.8911
0
VERTEX
8
CUT
10
64.272
20
52.6
0
VERTEX
8
CUT
10
69.672
20
52.6
0
VERTEX
8
CUT
10
70.832
20
51.8911
0
SEQEND
0
POLYLINE
8
CUT
66
1
70
0
0
VERTEX
8
CUT
10
63.112
20
51.1089
0
VERTEX
8
CUT
10
64.272
20
50.4
0
VERTEX
8
CUT
10
69.672
20
50.4
0
VERTEX
8
CUT
10
70.832
20
51.1089
0
SEQEND
0
POLYLINE
8
CUT
66
1
70
0
0
VERTEX
8
CUT
10
63.112
20
48.9911
0
VERTEX
8
CUT
10
64.272
20
49.7
0
VERTEX
8
CUT
10
69.672
20
49.7
0
VERTEX
8
CUT
10
70.832
20
48.9911
0
SEQEND
0
POLYLINE
8
CUT
66
1
70
0
0
VERTEX
8
CUT
10
63.112
20
48.2089
0
VERTEX
8
CUT
10
64.272
20
47.5
0
VERTEX
8
CUT
10
69.672
20
47.5
0
VERTEX
8
CUT
10
70.832
20
48.2089
0
SEQEND
0
POLYLINE
8
CUT
66
1
70
0
0
VERTEX
8
CUT
10
63.112
20
46.0911
0
VERTEX
8
CUT
10
64.272
20
46.8
0
VERTEX
8
CUT
10
69.672
20
46.8
0
VERTEX
8
CUT
10
70.832
20
46.0911
0
SEQEND
0
POLYLINE
8
CUT
66
1
70
0
0
VERTEX
8
CUT
10
63.112
20
45.3089
0
VERTEX
8
CUT
10
64.272
20
44.6
0
VERTEX
8
CUT
10
69.672
20
44.6
0
VERTEX
8
CUT
10
70.832
20
45.3089
0
SEQEND
0
POLYLINE
8
CUT
66
1
70
0
0
VERTEX
8
CUT
10
63.112
20
43.1911
0
VERTEX
8
CUT
10
64.272
20
43.9
0
VERTEX
8
CUT
10
69.672
20
43.9
0
VERTEX
8
CUT
10
70.832
20
43.1911
0
SEQEND
0
POLYLINE
8
CUT
66
1
70
0
0
VERTEX
8
CUT
10
63.112
20
42.4089
0
VERTEX
8
CUT
10
64.272
20
41.7
0
VERTEX
8
CUT
10
69.672
20
41.7
0
VERTEX
8
CUT
10
70.832
20
42.4089
0
SEQEND
0
POLYLINE
8
CUT
66
1
70
0
0
VERTEX
8
CUT
10
63.112
20
40.2911
0
VERTEX
8
CUT
10
64.272
20
41
0
VERTEX
8
CUT
10
69.672
20
41
0
VERTEX
8
CUT
10
70.832
20
40.2911
0
SEQEND
0
POLYLINE
8
CUT
66
1
70
0
0
VERTEX
8
CUT
10
63.112
20
39.5089
0
VERTEX
8
CUT
10
64.272
20
38.8
0
VERTEX
8
CUT
10
69.672
20
38.8
0
VERTEX
8
CUT
10
70.832
20
39.5089
0
SEQEND
0
POLYLINE
8
CUT
66
1
70
0
0
VERTEX
8
CUT
10
63.112
20
37.3911
0
VERTEX
8
CUT
10
64.272
20
38.1
0
VERTEX
8
CUT
10
69.672
20
38.1
0
VERTEX
8
CUT
10
70.832
20
37.3911
0
SEQEND
0
POLYLINE
8
CUT
66
1
70
0
0
VERTEX
8
CUT
10
63.112
20
36.6089
0
VERTEX
8
CUT
10
64.272
20
35.9
0
VERTEX
8
CUT
10
69.672
20
35.9
0
VERTEX
8
CUT
10
70.832
20
36.6089
0
SEQEND
0
POLYLINE
8
CUT
66
1
70
0
0
VERTEX
8
CUT
10
63.112
20
34.4911
0
VERTEX
8
CUT
10
64.272
20
35.2
0
VERTEX
8
CUT
10
69.672
20
35.2
0
VERTEX
8
CUT
10
70.832
20
34.4911
0
SEQEND
0
POLYLINE
8
CUT
66
1
70
0
0
VERTEX
8
CUT
10
63.112
20
33.7089
0
VERTEX
8
CUT
10
64.272
20
33
0
VERTEX
8
CUT
10
69.672
20
33
0
VERTEX
8
CUT
10
70.832
20
33.7089
0
SEQEND
0
POLYLINE
8
CUT
66
1
70
0
0
VERTEX
8
CUT
10
63.112
20
31.5911
0
VERTEX
8
CUT
10
64.272
20
32.3
0
VERTEX
8
CUT
10
69.672
20
32.3
0
VERTEX
8
CUT
10
70.832
20
31.5911
0
SEQEND
0
POLYLINE
8
CUT
66
1
70
0
0
VERTEX
8
CUT
10
63.112
20
30.8089
0
VERTEX
8
CUT
10
64.272
20
30.1
0
VERTEX
8
CUT
10
69.672
20
30.1
0
VERTEX
8
CUT
10
70.832
20
30.8089
0
SEQEND
0
POLYLINE
8
CUT
66
1
70
0
0
VERTEX
8
CUT
10
63.112
20
28.6911
0
VERTEX
8
CUT
10
64.272
20
29.4
0
VERTEX
8
CUT
10
69.672
20
29.4
0
VERTEX
8
CUT
10
70.832
20
28.6911
0
SEQEND
0
POLYLINE
8
CUT
66
1
70
0
0
VERTEX
8
CUT
10
63.112
20
27.9089
0
VERTEX
8
CUT
10
64.272
20
27.2
0
VERTEX
8
CUT
10
69.672
20
27.2
0
VERTEX
8
CUT
10
70.832
20
27.9089
0
SEQEND
0
POLYLINE
8
CUT
66
1
70
0
0
VERTEX
8
CUT
10
63.112
20
25.7911
0
VERTEX
8
CUT
10
64.272
20
26.5
0
VERTEX
8
CUT
10
69.672
20
26.5
0
VERTEX
8
CUT
10
70.832
20
25.7911
0
SEQEND
0
POLYLINE
8
CUT
66
1
70
0
0
VERTEX
8
CUT
10
63.112
20
25.0089
0
VERTEX
8
CUT
10
64.272
20
24.3
0
VERTEX
8
CUT
10
69.672
20
24.3
0
VERTEX
8
CUT
10
70.832
20
25.0089
0
SEQEND
0
POLYLINE
8
CUT
66
1
70
0
0
VERTEX
8
CUT
10
63.112
20
22.8911
0
VERTEX
8
CUT
10
64.272
20
23.6
0
VERTEX
8
CUT
10
69.672
20
23.6
0
VERTEX
8
CUT
10
70.832
20
22.8911
0
SEQEND
0
POLYLINE
8
CUT
66
1
70
0
0
VERTEX
8
CUT
10
63.112
20
22.1089
0
VERTEX
8
CUT
10
64.272
20
21.4
0
VERTEX
8
CUT
10
69.672
20
21.4
0
VERTEX
8
CUT
10
70.832
20
22.1089
0
SEQEND
0
POLYLINE
8
CUT
66
1
70
0
0
VERTEX
8
CUT
10
63.112
20
19.9911
0
VERTEX
8
CUT
10
64.272
20
20.7
0
VERTEX
8
CUT
10
69.672
20
20.7
0
VERTEX
8
CUT
10
70.832
20
19.9911
0
SEQEND
0
POLYLINE
8
CUT
66
1
70
0
0
VERTEX
8
CUT
10
63.112
20
19.2089
0
VERTEX
8
CUT
10
64.272
20
18.5
0
VERTEX
8
CUT
10
69.672
20
18.5
0
VERTEX
8
CUT
10
70.832
20
19.2089
0
SEQEND
0
POLYLINE
8
CUT
66
1
70
0
0
VERTEX
8
CUT
10
63.112
20
17.0911
0
VERTEX
8
CUT
10
64.272
20
17.8
0
VERTEX
8
CUT
10
69.672
20
17.8
0
VERTEX
8
CUT
10
70.832
20
17.0911
0
SEQEND
0
POLYLINE
8
CUT
66
1
70
0
0
VERTEX
8
CUT
10
63.112
20
16.3089
0
VERTEX
8
CUT
10
64.272
20
15.6
0
VERTEX
8
CUT
10
69.672
20
15.6
0
VERTEX
8
CUT
10
70.832
20
16.3089
0
SEQEND
0
POLYLINE
8
CUT
66
1
70
0
0
VERTEX
8
CUT
10
63.112
20
14.1911
0
VERTEX
8
CUT
10
64.272
20
14.9
0
VERTEX
8
CUT
10
69.672
20
14.9
0
VERTEX
8
CUT
10
70.832
20
14.1911
0
SEQEND
0
POLYLINE
8
CUT
66
1
70
0
0
VERTEX
8
CUT
10
63.112
20
13.4089
0
VERTEX
8
CUT
10
64.272
20
12.7
0
VERTEX
8
CUT
10
69.672
20
12.7
0
VERTEX
8
CUT
10
70.832
20
13.4089
0
SEQEND
0
POLYLINE
8
CUT
66
1
70
0
0
VERTEX
8
CUT
10
63.112
20
11.2911
0
VERTEX
8
CUT
10
64.272
20
12
0
VERTEX
8
CUT
10
69.672
20
12
0
VERTEX
8
CUT
10
70.832
20
11.2911
0
SEQEND
0
POLYLINE
8
CUT
66
1
70
0
0
VERTEX
8
CUT
10
63.112
20
10.5089
0
VERTEX
8
CUT
10
64.272
20
9.8
0
VERTEX
8
CUT
10
69.672
20
9.8
0
VERTEX
8
CUT
10
70.832
20
10.5089
0
SEQEND
0
POLYLINE
8
CUT
66
1
70
0
0
VERTEX
8
CUT
10
63.112
20
8.3911
0
VERTEX
8
CUT
10
64.272
20
9.1
0
VERTEX
8
CUT
10
69.672
20
9.1
0
VERTEX
8
CUT
10
70.832
20
8.3911
0
SEQEND
0
POLYLINE
8
CUT
66
1
70
0
0
VERTEX
8
CUT
10
63.112
20
7.6089
0
VERTEX
8
CUT
10
64.272
20
6.9
0
VERTEX
8
CUT
10
69.672
20
6.9
0
VERTEX
8
CUT
10
70.832
20
7.6089
0
SEQEND
0
POLYLINE
8
CUT
66
1
70
0
0
VERTEX
8
CUT
10
63.112
20
5.4911
0
VERTEX
8
CUT
10
64.272
20
6.2
0
VERTEX
8
CUT
10
69.672
20
6.2
0
VERTEX
8
CUT
10
70.832
20
5.4911
0
SEQEND
0
POLYLINE
8
CUT
66
1
70
0
0
VERTEX
8
CUT
10
63.112
20
4.7089
0
VERTEX
8
CUT
10
64.272
20
4
0
VERTEX
8
CUT
10
69.672
20
4
0
VERTEX
8
CUT
10
70.832
20
4.7089
0
SEQEND
0
POLYLINE
8
CUT
66
1
70
0
0
VERTEX
8
CUT
10
63.112
20
2.5911
0
VERTEX
8
CUT
10
64.272
20
3.3
0
VERTEX
8
CUT
10
69.672
20
3.3
0
VERTEX
8
CUT
10
70.832
20
2.5911
0
SEQEND
0
POLYLINE
8
CUT
66
1
70
0
0
VERTEX
8
CUT
10
63.112
20
1.8089
0
VERTEX
8
CUT
10
64.272
20
1.1
0
VERTEX
8
CUT
10
69.672
20
1.1
0
VERTEX
8
CUT
10
70.832
20
1.8089
0
SEQEND
0
POLYLINE
8
CUT
66
1
70
0
0
VERTEX
8
CUT
10
63.6175
20
0
0
VERTEX
8
CUT
10
64.272
20
0.4
0
VERTEX
8
CUT
10
69.672
20
0.4
0
VERTEX
8
CUT
10
70.3265
20
0
0
SEQEND
0
POLYLINE
8
CUT
66
1
70
0
0
VERTEX
8
CUT
10
70.921
20
69.9589
0
VERTEX
8
CUT
10
72.081
20
69.25
0
VERTEX
8
CUT
10
77.481
20
69.25
0
VERTEX
8
CUT
10
78.641
20
69.9589
0
SEQEND
0
POLYLINE
8
CUT
66
1
70
0
0
VERTEX
8
CUT
10
70.921
20
67.8411
0
VERTEX
8
CUT
10
72.081
20
68.55
0
VERTEX
8
CUT
10
77.481
20
68.55
0
VERTEX
8
CUT
10
78.641
20
67.8411
0
SEQEND
0
POLYLINE
8
CUT
66
1
70
0
0
VERTEX
8
CUT
10
70.921
20
67.0589
0
VERTEX
8
CUT
10
72.081
20
66.35
0
VERTEX
8
CUT
10
77.481
20
66.35
0
VERTEX
8
CUT
10
78.641
20
67.0589
0
SEQEND
0
POLYLINE
8
CUT
66
1
70
0
0
VERTEX
8
CUT
10
70.921
20
64.9411
0
VERTEX
8
CUT
10
72.081
20
65.65
0
VERTEX
8
CUT
10
77.481
20
65.65
0
VERTEX
8
CUT
10
78.641
20
64.9411
0
SEQEND
0
POLYLINE
8
CUT
66
1
70
0
0
VERTEX
8
CUT
10
70.921
20
64.1589
0
VERTEX
8
CUT
10
72.081
20
63.45
0
VERTEX
8
CUT
10
77.481
20
63.45
0
VERTEX
8
CUT
10
78.641
20
64.1589
0
SEQEND
0
POLYLINE
8
CUT
66
1
70
0
0
VERTEX
8
CUT
10
70.921
20
62.0411
0
VERTEX
8
CUT
10
72.081
20
62.75
0
VERTEX
8
CUT
10
77.481
20
62.75
0
VERTEX
8
CUT
10
78.641
20
62.0411
0
SEQEND
0
POLYLINE
8
CUT
66
1
70
0
0
VERTEX
8
CUT
10
70.921
20
61.2589
0
VERTEX
8
CUT
10
72.081
20
60.55
0
VERTEX
8
CUT
10
77.481
20
60.55
0
VERTEX
8
CUT
10
78.641
20
61.2589
0
SEQEND
0
POLYLINE
8
CUT
66
1
70
0
0
VERTEX
8
CUT
10
70.921
20
59.1411
0
VERTEX
8
CUT
10
72.081
20
59.85
0
VERTEX
8
CUT
10
77.481
20
59.85
0
VERTEX
8
CUT
10
78.641
20
59.1411
0
SEQEND
0
POLYLINE
8
CUT
66
1
70
0
0
VERTEX
8
CUT
10
70.921
20
58.3589
0
VERTEX
8
CUT
10
72.081
20
57.65
0
VERTEX
8
CUT
10
77.481
20
57.65
0
VERTEX
8
CUT
10
78.641
20
58.3589
0
SEQEND
0
POLYLINE
8
CUT
66
1
70
0
0
VERTEX
8
CUT
10
70.921
20
56.2411
0
VERTEX
8
CUT
10
72.081
20
56.95
0
VERTEX
8
CUT
10
77.481
20
56.95
0
VERTEX
8
CUT
10
78.641
20
56.2411
0
SEQEND
0
POLYLINE
8
CUT
66
1
70
0
0
VERTEX
8
CUT
10
70.921
20
55.4589
0
VERTEX
8
CUT
10
72.081
20
54.75
0
VERTEX
8
CUT
10
77.481
20
54.75
0
VERTEX
8
CUT
10
78.641
20
55.4589
0
SEQEND
0
POLYLINE
8
CUT
66
1
70
0
0
VERTEX
8
CUT
10
70.921
20
53.3411
0
VERTEX
8
CUT
10
72.081
20
54.05
0
VERTEX
8
CUT
10
77.481
20
54.05
0
VERTEX
8
CUT
10
78.641
20
53.3411
0
SEQEND
0
POLYLINE
8
CUT
66
1
70
0
0
VERTEX
8
CUT
10
70.921
20
52.5589
0
VERTEX
8
CUT
10
72.081
20
51.85
0
VERTEX
8
CUT
10
77.481
20
51.85
0
VERTEX
8
CUT
10
78.641
20
52.5589
0
SEQEND
0
POLYLINE
8
CUT
66
1
70
0
0
VERTEX
8
CUT
10
70.921
20
50.4411
0
VERTEX
8
CUT
10
72.081
20
51.15
0
VERTEX
8
CUT
10
77.481
20
51.15
0
VERTEX
8
CUT
10
78.641
20
50.4411
0
SEQEND
0
POLYLINE
8
CUT
66
1
70
0
0
VERTEX
8
CUT
10
70.921
20
49.6589
0
VERTEX
8
CUT
10
72.081
20
48.95
0
VERTEX
8
CUT
10
77.481
20
48.95
0
VERTEX
8
CUT
10
78.641
20
49.6589
0
SEQEND
0
POLYLINE
8
CUT
66
1
70
0
0
VERTEX
8
CUT
10
70.921
20
47.5411
0
VERTEX
8
CUT
10
72.081
20
48.25
0
VERTEX
8
CUT
10
77.481
20
48.25
0
VERTEX
8
CUT
10
78.641
20
47.5411
0
SEQEND
0
POLYLINE
8
CUT
66
1
70
0
0
VERTEX
8
CUT
10
70.921
20
46.7589
0
VERTEX
8
CUT
10
72.081
20
46.05
0
VERTEX
8
CUT
10
77.481
20
46.05
0
VERTEX
8
CUT
10
78.641
20
46.7589
0
SEQEND
0
POLYLINE
8
CUT
66
1
70
0
0
VERTEX
8
CUT
10
70.921
20
44.6411
0
VERTEX
8
CUT
10
72.081
20
45.35
0
VERTEX
8
CUT
10
77.481
20
45.35
0
VERTEX
8
CUT
10
78.641
20
44.6411
0
SEQEND
0
POLYLINE
8
CUT
66
1
70
0
0
VERTEX
8
CUT
10
70.921
20
43.8589
0
VERTEX
8
CUT
10
72.081
20
43.15
0
VERTEX
8
CUT
10
77.481
20
43.15
0
VERTEX
8
CUT
10
78.641
20
43.8589
0
SEQEND
0
POLYLINE
8
CUT
66
1
70
0
0
VERTEX
8
CUT
10
70.921
20
41.7411
0
VERTEX
8
CUT
10
72.081
20
42.45
0
VERTEX
8
CUT
10
77.481
20
42.45
0
VERTEX
8
CUT
10
78.641
20
41.7411
0
SEQEND
0
POLYLINE
8
CUT
66
1
70
0
0
VERTEX
8
CUT
10
70.921
20
40.9589
0
VERTEX
8
CUT
10
72.081
20
40.25
0
VERTEX
8
CUT
10
77.481
20
40.25
0
VERTEX
8
CUT
10
78.641
20
40.9589
0
SEQEND
0
POLYLINE
8
CUT
66
1
70
0
0
VERTEX
8
CUT
10
70.921
20
38.8411
0
VERTEX
8
CUT
10
72.081
20
39.55
0
VERTEX
8
CUT
10
77.481
20
39.55
0
VERTEX
8
CUT
10
78.641
20
38.8411
0
SEQEND
0
POLYLINE
8
CUT
66
1
70
0
0
VERTEX
8
CUT
10
70.921
20
38.0589
0
VERTEX
8
CUT
10
72.081
20
37.35
0
VERTEX
8
CUT
10
77.481
20
37.35
0
VERTEX
8
CUT
10
78.641
20
38.0589
0
SEQEND
0
POLYLINE
8
CUT
66
1
70
0
0
VERTEX
8
CUT
10
70.921
20
35.9411
0
VERTEX
8
CUT
10
72.081
20
36.65
0
VERTEX
8
CUT
10
77.481
20
36.65
0
VERTEX
8
CUT
10
78.641
20
35.9411
0
SEQEND
0
POLYLINE
8
CUT
66
1
70
0
0
VERTEX
8
CUT
10
70.921
20
35.1589
0
VERTEX
8
CUT
10
72.081
20
34.45
0
VERTEX
8
CUT
10
77.481
20
34.45
0
VERTEX
8
CUT
10
78.641
20
35.1589
0
SEQEND
0
POLYLINE
8
CUT
66
1
70
0
0
VERTEX
8
CUT
10
70.921
20
33.0411
0
VERTEX
8
CUT
10
72.081
20
33.75
0
VERTEX
8
CUT
10
77.481
20
33.75
0
VERTEX
8
CUT
10
78.641
20
33.0411
0
SEQEND
0
POLYLINE
8
CUT
66
1
70
0
0
VERTEX
8
CUT
10
70.921
20
32.2589
0
VERTEX
8
CUT
10
72.081
20
31.55
0
VERTEX
8
CUT
10
77.481
20
31.55
0
VERTEX
8
CUT
10
78.641
20
32.2589
0
SEQEND
0
POLYLINE
8
CUT
66
1
70
0
0
VERTEX
8
CUT
10
70.921
20
30.1411
0
VERTEX
8
CUT
10
72.081
20
30.85
0
VERTEX
8
CUT
10
77.481
20
30.85
0
VERTEX
8
CUT
10
78.641
20
30.1411
0
SEQEND
0
POLYLINE
8
CUT
66
1
70
0
0
VERTEX
8
CUT
10
70.921
20
29.3589
0
VERTEX
8
CUT
10
72.081
20
28.65
0
VERTEX
8
CUT
10
77.481
20
28.65
0
VERTEX
8
CUT
10
78.641
20
29.3589
0
SEQEND
0
POLYLINE
8
CUT
66
1
70
0
0
VERTEX
8
CUT
10
70.921
20
27.2411
0
VERTEX
8
CUT
10
72.081
20
27.95
0
VERTEX
8
CUT
10
77.481
20
27.95
0
VERTEX
8
CUT
10
78.641
20
27.2411
0
SEQEND
0
POLYLINE
8
CUT
66
1
70
0
0
VERTEX
8
CUT
10
70.921
20
26.4589
0
VERTEX
8
CUT
10
72.081
20
25.75
0
VERTEX
8
CUT
10
77.481
20
25.75
0
VERTEX
8
CUT
10
78.641
20
26.4589
0
SEQEND
0
POLYLINE
8
CUT
66
1
70
0
0
VERTEX
8
CUT
10
70.921
20
24.3411
0
VERTEX
8
CUT
10
72.081
20
25.05
0
VERTEX
8
CUT
10
77.481
20
25.05
0
VERTEX
8
CUT
10
78.641
20
24.3411
0
SEQEND
0
POLYLINE
8
CUT
66
1
70
0
0
VERTEX
8
CUT
10
70.921
20
23.5589
0
VERTEX
8
CUT
10
72.081
20
22.85
0
VERTEX
8
CUT
10
77.481
20
22.85
0
VERTEX
8
CUT
10
78.641
20
23.5589
0
SEQEND
0
POLYLINE
8
CUT
66
1
70
0
0
VERTEX
8
CUT
10
70.921
20
21.4411
0
VERTEX
8
CUT
10
72.081
20
22.15
0
VERTEX
8
CUT
10
77.481
20
22.15
0
VERTEX
8
CUT
10
78.641
20
21.4411
0
SEQEND
0
POLYLINE
8
CUT
66
1
70
0
0
VERTEX
8
CUT
10
70.921
20
20.6589
0
VERTEX
8
CUT
10
72.081
20
19.95
0
VERTEX
8
CUT
10
77.481
20
19.95
0
VERTEX
8
CUT
10
78.641
20
20.6589
0
SEQEND
0
POLYLINE
8
CUT
66
1
70
0
0
VERTEX
8
CUT
10
70.921
20
18.5411
0
VERTEX
8
CUT
10
72.081
20
19.25
0
VERTEX
8
CUT
10
77.481
20
19.25
0
VERTEX
8
CUT
10
78.641
20
18.5411
0
SEQEND
0
POLYLINE
8
CUT
66
1
70
0
0
VERTEX
8
CUT
10
70.921
20
17.7589
0
VERTEX
8
CUT
10
72.081
20
17.05
0
VERTEX
8
CUT
10
77.481
20
17.05
0
VERTEX
8
CUT
10
78.641
20
17.7589
0
SEQEND
0
POLYLINE
8
CUT
66
1
70
0
0
VERTEX
8
CUT
10
70.921
20
15.6411
0
VERTEX
8
CUT
10
72.081
20
16.35
0
VERTEX
8
CUT
10
77.481
20
16.35
0
VERTEX
8
CUT
10
78.641
20
15.6411
0
SEQEND
0
POLYLINE
8
CUT
66
1
70
0
0
VERTEX
8
CUT
10
70.921
20
14.8589
0
VERTEX
8
CUT
10
72.081
20
14.15
0
VERTEX
8
CUT
10
77.481
20
14.15
0
VERTEX
8
CUT
10
78.641
20
14.8589
0
SEQEND
0
POLYLINE
8
CUT
66
1
70
0
0
VERTEX
8
CUT
10
70.921
20
12.7411
0
VERTEX
8
CUT
10
72.081
20
13.45
0
VERTEX
8
CUT
10
77.481
20
13.45
0
VERTEX
8
CUT
10
78.641
20
12.7411
0
SEQEND
0
POLYLINE
8
CUT
66
1
70
0
0
VERTEX
8
CUT
10
70.921
20
11.9589
0
VERTEX
8
CUT
10
72.081
20
11.25
0
VERTEX
8
CUT
10
77.481
20
11.25
0
VERTEX
8
CUT
10
78.641
20
11.9589
0
SEQEND
0
POLYLINE
8
CUT
66
1
70
0
0
VERTEX
8
CUT
10
70.921
20
9.8411
0
VERTEX
8
CUT
10
72.081
20
10.55
0
VERTEX
8
CUT
10
77.481
20
10.55
0
VERTEX
8
CUT
10
78.641
20
9.8411
0
SEQEND
0
POLYLINE
8
CUT
66
1
70
0
0
VERTEX
8
CUT
10
70.921
20
9.0589
0
VERTEX
8
CUT
10
72.081
20
8.35
0
VERTEX
8
CUT
10
77.481
20
8.35
0
VERTEX
8
CUT
10
78.641
20
9.0589
0
SEQEND
0
POLYLINE
8
CUT
66
1
70
0
0
VERTEX
8
CUT
10
70.921
20
6.9411
0
VERTEX
8
CUT
10
72.081
20
7.65
0
VERTEX
8
CUT
10
77.481
20
7.65
0
VERTEX
8
CUT
10
78.641
20
6.9411
0
SEQEND
0
POLYLINE
8
CUT
66
1
70
0
0
VERTEX
8
CUT
10
70.921
20
6.1589
0
VERTEX
8
CUT
10
72.081
20
5.45
0
VERTEX
8
CUT
10
77.481
20
5.45
0
VERTEX
8
CUT
10
78.641
20
6.1589
0
SEQEND
0
POLYLINE
8
CUT
66
1
70
0
0
VERTEX
8
CUT
10
70.921
20
4.0411
0
VERTEX
8
CUT
10
72.081
20
4.75
0
VERTEX
8
CUT
10
77.481
20
4.75
0
VERTEX
8
CUT
10
78.641
20
4.0411
0
SEQEND
0
POLYLINE
8
CUT
66
1
70
0
0
VERTEX
8
CUT
10
70.921
20
3.2589
0
VERTEX
8
CUT
10
72.081
20
2.55
0
VERTEX
8
CUT
10
77.481
20
2.55
0
VERTEX
8
CUT
10
78.641
20
3.2589
0
SEQEND
0
POLYLINE
8
CUT
66
1
70
0
0
VERTEX
8
CUT
10
70.921
20
1.1411
0
VERTEX
8
CUT
10
72.081
20
1.85
0
VERTEX
8
CUT
10
77.481
20
1.85
0
VERTEX
8
CUT
10
78.641
20
1.1411
0
SEQEND
0
LINE
8
CUT
10
70.921
20
0.3589
11
71.5083
21
0
0
LINE
8
CUT
10
78.0537
20
0
11
78.641
21
0.3589
0
POLYLINE
8
CUT
66
1
70
0
0
VERTEX
8
CUT
10
78.73
20
69.2911
0
VERTEX
8
CUT
10
79.89
20
70
0
VERTEX
8
CUT
10
85.29
20
70
0
VERTEX
8
CUT
10
86.45
20
69.2911
0
SEQEND
0
POLYLINE
8
CUT
66
1
70
0
0
VERTEX
8
CUT
10
78.73
20
68.5089
0
VERTEX
8
CUT
10
79.89
20
67.8
0
VERTEX
8
CUT
10
85.29
20
67.8
0
VERTEX
8
CUT
10
86.45
20
68.5089
0
SEQEND
0
POLYLINE
8
CUT
66
1
70
0
0
VERTEX
8
CUT
10
78.73
20
66.3911
0
VERTEX
8
CUT
10
79.89
20
67.1
0
VERTEX
8
CUT
10
85.29
20
67.1
0
VERTEX
8
CUT
10
86.45
20
66.3911
0
SEQEND
0
POLYLINE
8
CUT
66
1
70
0
0
VERTEX
8
CUT
10
78.73
20
65.6089
0
VERTEX
8
CUT
10
79.89
20
64.9
0
VERTEX
8
CUT
10
85.29
20
64.9
0
VERTEX
8
CUT
10
86.45
20
65.6089
0
SEQEND
0
POLYLINE
8
CUT
66
1
70
0
0
VERTEX
8
CUT
10
78.73
20
63.4911
0
VERTEX
8
CUT
10
79.89
20
64.2
0
VERTEX
8
CUT
10
85.29
20
64.2
0
VERTEX
8
CUT
10
86.45
20
63.4911
0
SEQEND
0
POLYLINE
8
CUT
66
1
70
0
0
VERTEX
8
CUT
10
78.73
20
62.7089
0
VERTEX
8
CUT
10
79.89
20
62
0
VERTEX
8
CUT
10
85.29
20
62
0
VERTEX
8
CUT
10
86.45
20
62.7089
0
SEQEND
0
POLYLINE
8
CUT
66
1
70
0
0
VERTEX
8
CUT
10
78.73
20
60.5911
0
VERTEX
8
CUT
10
79.89
20
61.3
0
VERTEX
8
CUT
10
85.29
20
61.3
0
VERTEX
8
CUT
10
86.45
20
60.5911
0
SEQEND
0
POLYLINE
8
CUT
66
1
70
0
0
VERTEX
8
CUT
10
78.73
20
59.8089
0
VERTEX
8
CUT
10
79.89
20
59.1
0
VERTEX
8
CUT
10
85.29
20
59.1
0
VERTEX
8
CUT
10
86.45
20
59.8089
0
SEQEND
0
POLYLINE
8
CUT
66
1
70
0
0
VERTEX
8
CUT
10
78.73
20
57.6911
0
VERTEX
8
CUT
10
79.89
20
58.4
0
VERTEX
8
CUT
10
85.29
20
58.4
0
VERTEX
8
CUT
10
86.45
20
57.6911
0
SEQEND
0
POLYLINE
8
CUT
66
1
70
0
0
VERTEX
8
CUT
10
78.73
20
56.9089
0
VERTEX
8
CUT
10
79.89
20
56.2
0
VERTEX
8
CUT
10
85.29
20
56.2
0
VERTEX
8
CUT
10
86.45
20
56.9089
0
SEQEND
0
POLYLINE
8
CUT
66
1
70
0
0
VERTEX
8
CUT
10
78.73
20
54.7911
0
VERTEX
8
CUT
10
79.89
20
55.5
0
VERTEX
8
CUT
10
85.29
20
55.5
0
VERTEX
8
CUT
10
86.45
20
54.7911
0
SEQEND
0
POLYLINE
8
CUT
66
1
70
0
0
VERTEX
8
CUT
10
78.73
20
54.0089
0
VERTEX
8
CUT
10
79.89
20
53.3
0
VERTEX
8
CUT
10
85.29
20
53.3
0
VERTEX
8
CUT
10
86.45
20
54.0089
0
SEQEND
0
POLYLINE
8
CUT
66
1
70
0
0
VERTEX
8
CUT
10
78.73
20
51.8911
0
VERTEX
8
CUT
10
79.89
20
52.6
0
VERTEX
8
CUT
10
85.29
20
52.6
0
VERTEX
8
CUT
10
86.45
20
51.8911
0
SEQEND
0
POLYLINE
8
CUT
66
1
70
0
0
VERTEX
8
CUT
10
78.73
20
51.1089
0
VERTEX
8
CUT
10
79.89
20
50.4
0
VERTEX
8
CUT
10
85.29
20
50.4
0
VERTEX
8
CUT
10
86.45
20
51.1089
0
SEQEND
0
POLYLINE
8
CUT
66
1
70
0
0
VERTEX
8
CUT
10
78.73
20
48.9911
0
VERTEX
8
CUT
10
79.89
20
49.7
0
VERTEX
8
CUT
10
85.29
20
49.7
0
VERTEX
8
CUT
10
86.45
20
48.9911
0
SEQEND
0
POLYLINE
8
CUT
66
1
70
0
0
VERTEX
8
CUT
10
78.73
20
48.2089
0
VERTEX
8
CUT
10
79.89
20
47.5
0
VERTEX
8
CUT
10
85.29
20
47.5
0
VERTEX
8
CUT
10
86.45
20
48.2089
0
SEQEND
0
POLYLINE
8
CUT
66
1
70
0
0
VERTEX
8
CUT
10
78.73
20
46.0911
0
VERTEX
8
CUT
10
79.89
20
46.8
0
VERTEX
8
CUT
10
85.29
20
46.8
0
VERTEX
8
CUT
10
86.45
20
46.0911
0
SEQEND
0
POLYLINE
8
CUT
66
1
70
0
0
VERTEX
8
CUT
10
78.73
20
45.3089
0
VERTEX
8
CUT
10
79.89
20
44.6
0
VERTEX
8
CUT
10
85.29
20
44.6
0
VERTEX
8
CUT
10
86.45
20
45.3089
0
SEQEND
0
POLYLINE
8
CUT
66
1
70
0
0
VERTEX
8
CUT
10
78.73
20
43.1911
0
VERTEX
8
CUT
10
79.89
20
43.9
0
VERTEX
8
CUT
10
85.29
20
43.9
0
VERTEX
8
CUT
10
86.45
20
43.1911
0
SEQEND
0
POLYLINE
8
CUT
66
1
70
0
0
VERTEX
8
CUT
10
78.73
20
42.4089
0
VERTEX
8
CUT
10
79.89
20
41.7
0
VERTEX
8
CUT
10
85.29
20
41.7
0
VERTEX
8
CUT
10
86.45
20
42.4089
0
SEQEND
0
POLYLINE
8
CUT
66
1
70
0
0
VERTEX
8
CUT
10
78.73
20
40.2911
0
VERTEX
8
CUT
10
79.89
20
41
0
VERTEX
8
CUT
10
85.29
20
41
0
VERTEX
8
CUT
10
86.45
20
40.2911
0
SEQEND
0
POLYLINE
8
CUT
66
1
70
0
0
VERTEX
8
CUT
10
78.73
20
39.5089
0
VERTEX
8
CUT
10
79.89
20
38.8
0
VERTEX
8
CUT
10
85.29
20
38.8
0
VERTEX
8
CUT
10
86.45
20
39.5089
0
SEQEND
0
POLYLINE
8
CUT
66
1
70
0
0
VERTEX
8
CUT
10
78.73
20
37.3911
0
VERTEX
8
CUT
10
79.89
20
38.1
0
VERTEX
8
CUT
10
85.29
20
38.1
0
VERTEX
8
CUT
10
86.45
20
37.3911
0
SEQEND
0
POLYLINE
8
CUT
66
1
70
0
0
VERTEX
8
CUT
10
78.73
20
36.6089
0
VERTEX
8
CUT
10
79.89
20
35.9
0
VERTEX
8
CUT
10
85.29
20
35.9
0
VERTEX
8
CUT
10
86.45
20
36.6089
0
SEQEND
0
POLYLINE
8
CUT
66
1
70
0
0
VERTEX
8
CUT
10
78.73
20
34.4911
0
VERTEX
8
CUT
10
79.89
20
35.2
0
VERTEX
8
CUT
10
85.29
20
35.2
0
VERTEX
8
CUT
10
86.45
20
34.4911
0
SEQEND
0
POLYLINE
8
CUT
66
1
70
0
0
VERTEX
8
CUT
10
78.73
20
33.7089
0
VERTEX
8
CUT
10
79.89
20
33
0
VERTEX
8
CUT
10
85.29
20
33
0
VERTEX
8
CUT
10
86.45
20
33.7089
0
SEQEND
0
POLYLINE
8
CUT
66
1
70
0
0
VERTEX
8
CUT
10
78.73
20
31.5911
0
VERTEX
8
CUT
10
79.89
20
32.3
0
VERTEX
8
CUT
10
85.29
20
32.3
0
VERTEX
8
CUT
10
86.45
20
31.5911
0
SEQEND
0
POLYLINE
8
CUT
66
1
70
0
0
VERTEX
8
CUT
10
78.73
20
30.8089
0
VERTEX
8
CUT
10
79.89
20
30.1
0
VERTEX
8
CUT
10
85.29
20
30.1
0
VERTEX
8
CUT
10
86.45
20
30.8089
0
SEQEND
0
POLYLINE
8
CUT
66
1
70
0
0
VERTEX
8
CUT
10
78.73
20
28.6911
0
VERTEX
8
CUT
10
79.89
20
29.4
0
VERTEX
8
CUT
10
85.29
20
29.4
0
VERTEX
8
CUT
10
86.45
20
28.6911
0
SEQEND
0
POLYLINE
8
CUT
66
1
70
0
0
VERTEX
8
CUT
10
78.73
20
27.9089
0
VERTEX
8
CUT
10
79.89
20
27.2
0
VERTEX
8
CUT
10
85.29
20
27.2
0
VERTEX
8
CUT
10
86.45
20
27.9089
0
SEQEND
0
POLYLINE
8
CUT
66
1
70
0
0
VERTEX
8
CUT
10
78.73
20
25.7911
0
VERTEX
8
CUT
10
79.89
20
26.5
0
VERTEX
8
CUT
10
85.29
20
26.5
0
VERTEX
8
CUT
10
86.45
20
25.7911
0
SEQEND
0
POLYLINE
8
CUT
66
1
70
0
0
VERTEX
8
CUT
10
78.73
20
25.0089
0
VERTEX
8
CUT
10
79.89
20
24.3
0
VERTEX
8
CUT
10
85.29
20
24.3
0
VERTEX
8
CUT
10
86.45
20
25.0089
0
SEQEND
0
POLYLINE
8
CUT
66
1
70
0
0
VERTEX
8
CUT
10
78.73
20
22.8911
0
VERTEX
8
CUT
10
79.89
20
23.6
0
VERTEX
8
CUT
10
85.29
20
23.6
0
VERTEX
8
CUT
10
86.45
20
22.8911
0
SEQEND
0
POLYLINE
8
CUT
66
1
70
0
0
VERTEX
8
CUT
10
78.73
20
22.1089
0
VERTEX
8
CUT
10
79.89
20
21.4
0
VERTEX
8
CUT
10
85.29
20
21.4
0
VERTEX
8
CUT
10
86.45
20
22.1089
0
SEQEND
0
POLYLINE
8
CUT
66
1
70
0
0
VERTEX
8
CUT
10
78.73
20
19.9911
0
VERTEX
8
CUT
10
79.89
20
20.7
0
VERTEX
8
CUT
10
85.29
20
20.7
0
VERTEX
8
CUT
10
86.45
20
19.9911
0
SEQEND
0
POLYLINE
8
CUT
66
1
70
0
0
VERTEX
8
CUT
10
78.73
20
19.2089
0
VERTEX
8
CUT
10
79.89
20
18.5
0
VERTEX
8
CUT
10
85.29
20
18.5
0
VERTEX
8
CUT
10
86.45
20
19.2089
0
SEQEND
0
POLYLINE
8
CUT
66
1
70
0
0
VERTEX
8
CUT
10
78.73
20
17.0911
0
VERTEX
8
CUT
10
79.89
20
17.8
0
VERTEX
8
CUT
10
85.29
20
17.8
0
VERTEX
8
CUT
10
86.45
20
17.0911
0
SEQEND
0
POLYLINE
8
CUT
66
1
70
0
0
VERTEX
8
CUT
10
78.73
20
16.3089
0
VERTEX
8
CUT
10
79.89
20
15.6
0
VERTEX
8
CUT
10
85.29
20
15.6
0
VERTEX
8
CUT
10
86.45
20
16.3089
0
SEQEND
0
POLYLINE
8
CUT
66
1
70
0
0
VERTEX
8
CUT
10
78.73
20
14.1911
0
VERTEX
8
CUT
10
79.89
20
14.9
0
VERTEX
8
CUT
10
85.29
20
14.9
0
VERTEX
8
CUT
10
86.45
20
14.1911
0
SEQEND
0
POLYLINE
8
CUT
66
1
70
0
0
VERTEX
8
CUT
10
78.73
20
13.4089
0
VERTEX
8
CUT
10
79.89
20
12.7
0
VERTEX
8
CUT
10
85.29
20
12.7
0
VERTEX
8
CUT
10
86.45
20
13.4089
0
SEQEND
0
POLYLINE
8
CUT
66
1
70
0
0
VERTEX
8
CUT
10
78.73
20
11.2911
0
VERTEX
8
CUT
10
79.89
20
12
0
VERTEX
8
CUT
10
85.29
20
12
0
VERTEX
8
CUT
10
86.45
20
11.2911
0
SEQEND
0
POLYLINE
8
CUT
66
1
70
0
0
VERTEX
8
CUT
10
78.73
20
10.5089
0
VERTEX
8
CUT
10
79.89
20
9.8
0
VERTEX
8
CUT
10
85.29
20
9.8
0
VERTEX
8
CUT
10
86.45
20
10.5089
0
SEQEND
0
POLYLINE
8
CUT
66
1
70
0
0
VERTEX
8
CUT
10
78.73
20
8.3911
0
VERTEX
8
CUT
10
79.89
20
9.1
0
VERTEX
8
CUT
10
85.29
20
9.1
0
VERTEX
8
CUT
10
86.45
20
8.3911
0
SEQEND
0
POLYLINE
8
CUT
66
1
70
0
0
VERTEX
8
CUT
10
78.73
20
7.6089
0
VERTEX
8
CUT
10
79.89
20
6.9
0
VERTEX
8
CUT
10
85.29
20
6.9
0
VERTEX
8
CUT
10
86.45
20
7.6089
0
SEQEND
0
POLYLINE
8
CUT
66
1
70
0
0
VERTEX
8
CUT
10
78.73
20
5.4911
0
VERTEX
8
CUT
10
79.89
20
6.2
0
VERTEX
8
CUT
10
85.29
20
6.2
0
VERTEX
8
CUT
10
86.45
20
5.4911
0
SEQEND
0
POLYLINE
8
CUT
66
1
70
0
0
VERTEX
8
CUT
10
78.73
20
4.7089
0
VERTEX
8
CUT
10
79.89
20
4
0
VERTEX
8
CUT
10
85.29
20
4
0
VERTEX
8
CUT
10
86.45
20
4.7089
0
SEQEND
0
POLYLINE
8
CUT
66
1
70
0
0
VERTEX
8
CUT
10
78.73
20
2.5911
0
VERTEX
8
CUT
10
79.89
20
3.3
0
VERTEX
8
CUT
10
85.29
20
3.3
0
VERTEX
8
CUT
10
86.45
20
2.5911
0
SEQEND
0
POLYLINE
8
CUT
66
1
70
0
0
VERTEX
8
CUT
10
78.73
20
1.8089
0
VERTEX
8
CUT
10
79.89
20
1.1
0
VERTEX
8
CUT
10
85.29
20
1.1
0
VERTEX
8
CUT
10
86.45
20
1.8089
0
SEQEND
0
POLYLINE
8
CUT
66
1
70
0
0
VERTEX
8
CUT
10
79.2355
20
0
0
VERTEX
8
CUT
10
79.89
20
0.4
0
VERTEX
8
CUT
10
85.29
20
0.4
0
VERTEX
8
CUT
10
85.9445
20
0
0
SEQEND
0
POLYLINE
8
CUT
66
1
70
0
0
VERTEX
8
CUT
10
86.539
20
69.9589
0
VERTEX
8
CUT
10
87.699
20
69.25
0
VERTEX
8
CUT
10
93.099
20
69.25
0
VERTEX
8
CUT
10
94.259
20
69.9589
0
SEQEND
0
POLYLINE
8
CUT
66
1
70
0
0
VERTEX
8
CUT
10
86.539
20
67.8411
0
VERTEX
8
CUT
10
87.699
20
68.55
0
VERTEX
8
CUT
10
93.099
20
68.55
0
VERTEX
8
CUT
10
94.259
20
67.8411
0
SEQEND
0
POLYLINE
8
CUT
66
1
70
0
0
VERTEX
8
CUT
10
86.539
20
67.0589
0
VERTEX
8
CUT
10
87.699
20
66.35
0
VERTEX
8
CUT
10
93.099
20
66.35
0
VERTEX
8
CUT
10
94.259
20
67.0589
0
SEQEND
0
POLYLINE
8
CUT
66
1
70
0
0
VERTEX
8
CUT
10
86.539
20
64.9411
0
VERTEX
8
CUT
10
87.699
20
65.65
0
VERTEX
8
CUT
10
93.099
20
65.65
0
VERTEX
8
CUT
10
94.259
20
64.9411
0
SEQEND
0
POLYLINE
8
CUT
66
1
70
0
0
VERTEX
8
CUT
10
86.539
20
64.1589
0
VERTEX
8
CUT
10
87.699
20
63.45
0
VERTEX
8
CUT
10
93.099
20
63.45
0
VERTEX
8
CUT
10
94.259
20
64.1589
0
SEQEND
0
POLYLINE
8
CUT
66
1
70
0
0
VERTEX
8
CUT
10
86.539
20
62.0411
0
VERTEX
8
CUT
10
87.699
20
62.75
0
VERTEX
8
CUT
10
93.099
20
62.75
0
VERTEX
8
CUT
10
94.259
20
62.0411
0
SEQEND
0
POLYLINE
8
CUT
66
1
70
0
0
VERTEX
8
CUT
10
86.539
20
61.2589
0
VERTEX
8
CUT
10
87.699
20
60.55
0
VERTEX
8
CUT
10
93.099
20
60.55
0
VERTEX
8
CUT
10
94.259
20
61.2589
0
SEQEND
0
POLYLINE
8
CUT
66
1
70
0
0
VERTEX
8
CUT
10
86.539
20
59.1411
0
VERTEX
8
CUT
10
87.699
20
59.85
0
VERTEX
8
CUT
10
93.099
20
59.85
0
VERTEX
8
CUT
10
94.259
20
59.1411
0
SEQEND
0
POLYLINE
8
CUT
66
1
70
0
0
VERTEX
8
CUT
10
86.539
20
58.3589
0
VERTEX
8
CUT
10
87.699
20
57.65
0
VERTEX
8
CUT
10
93.099
20
57.65
0
VERTEX
8
CUT
10
94.259
20
58.3589
0
SEQEND
0
POLYLINE
8
CUT
66
1
70
0
0
VERTEX
8
CUT
10
86.539
20
56.2411
0
VERTEX
8
CUT
10
87.699
20
56.95
0
VERTEX
8
CUT
10
93.099
20
56.95
0
VERTEX
8
CUT
10
94.259
20
56.2411
0
SEQEND
0
POLYLINE
8
CUT
66
1
70
0
0
VERTEX
8
CUT
10
86.539
20
55.4589
0
VERTEX
8
CUT
10
87.699
20
54.75
0
VERTEX
8
CUT
10
93.099
20
54.75
0
VERTEX
8
CUT
10
94.259
20
55.4589
0
SEQEND
0
POLYLINE
8
CUT
66
1
70
0
0
VERTEX
8
CUT
10
86.539
20
53.3411
0
VERTEX
8
CUT
10
87.699
20
54.05
0
VERTEX
8
CUT
10
93.099
20
54.05
0
VERTEX
8
CUT
10
94.259
20
53.3411
0
SEQEND
0
POLYLINE
8
CUT
66
1
70
0
0
VERTEX
8
CUT
10
86.539
20
52.5589
0
VERTEX
8
CUT
10
87.699
20
51.85
0
VERTEX
8
CUT
10
93.099
20
51.85
0
VERTEX
8
CUT
10
94.259
20
52.5589
0
SEQEND
0
POLYLINE
8
CUT
66
1
70
0
0
VERTEX
8
CUT
10
86.539
20
50.4411
0
VERTEX
8
CUT
10
87.699
20
51.15
0
VERTEX
8
CUT
10
93.099
20
51.15
0
VERTEX
8
CUT
10
94.259
20
50.4411
0
SEQEND
0
POLYLINE
8
CUT
66
1
70
0
0
VERTEX
8
CUT
10
86.539
20
49.6589
0
VERTEX
8
CUT
10
87.699
20
48.95
0
VERTEX
8
CUT
10
93.099
20
48.95
0
VERTEX
8
CUT
10
94.259
20
49.6589
0
SEQEND
0
POLYLINE
8
CUT
66
1
70
0
0
VERTEX
8
CUT
10
86.539
20
47.5411
0
VERTEX
8
CUT
10
87.699
20
48.25
0
VERTEX
8
CUT
10
93.099
20
48.25
0
VERTEX
8
CUT
10
94.259
20
47.5411
0
SEQEND
0
POLYLINE
8
CUT
66
1
70
0
0
VERTEX
8
CUT
10
86.539
20
46.7589
0
VERTEX
8
CUT
10
87.699
20
46.05
0
VERTEX
8
CUT
10
93.099
20
46.05
0
VERTEX
8
CUT
10
94.259
20
46.7589
0
SEQEND
0
POLYLINE
8
CUT
66
1
70
0
0
VERTEX
8
CUT
10
86.539
20
44.6411
0
VERTEX
8
CUT
10
87.699
20
45.35
0
VERTEX
8
CUT
10
93.099
20
45.35
0
VERTEX
8
CUT
10
94.259
20
44.6411
0
SEQEND
0
POLYLINE
8
CUT
66
1
70
0
0
VERTEX
8
CUT
10
86.539
20
43.8589
0
VERTEX
8
CUT
10
87.699
20
43.15
0
VERTEX
8
CUT
10
93.099
20
43.15
0
VERTEX
8
CUT
10
94.259
20
43.8589
0
SEQEND
0
POLYLINE
8
CUT
66
1
70
0
0
VERTEX
8
CUT
10
86.539
20
41.7411
0
VERTEX
8
CUT
10
87.699
20
42.45
0
VERTEX
8
CUT
10
93.099
20
42.45
0
VERTEX
8
CUT
10
94.259
20
41.7411
0
SEQEND
0
POLYLINE
8
CUT
66
1
70
0
0
VERTEX
8
CUT
10
86.539
20
40.9589
0
VERTEX
8
CUT
10
87.699
20
40.25
0
VERTEX
8
CUT
10
93.099
20
40.25
0
VERTEX
8
CUT
10
94.259
20
40.9589
0
SEQEND
0
POLYLINE
8
CUT
66
1
70
0
0
VERTEX
8
CUT
10
86.539
20
38.8411
0
VERTEX
8
CUT
10
87.699
20
39.55
0
VERTEX
8
CUT
10
93.099
20
39.55
0
VERTEX
8
CUT
10
94.259
20
38.8411
0
SEQEND
0
POLYLINE
8
CUT
66
1
70
0
0
VERTEX
8
CUT
10
86.539
20
38.0589
0
VERTEX
8
CUT
10
87.699
20
37.35
0
VERTEX
8
CUT
10
93.099
20
37.35
0
VERTEX
8
CUT
10
94.259
20
38.0589
0
SEQEND
0
POLYLINE
8
CUT
66
1
70
0
0
VERTEX
8
CUT
10
86.539
20
35.9411
0
VERTEX
8
CUT
10
87.699
20
36.65
0
VERTEX
8
CUT
10
93.099
20
36.65
0
VERTEX
8
CUT
10
94.259
20
35.9411
0
SEQEND
0
POLYLINE
8
CUT
66
1
70
0
0
VERTEX
8
CUT
10
86.539
20
35.1589
0
VERTEX
8
CUT
10
87.699
20
34.45
0
VERTEX
8
CUT
10
93.099
20
34.45
0
VERTEX
8
CUT
10
94.259
20
35.1589
0
SEQEND
0
POLYLINE
8
CUT
66
1
70
0
0
VERTEX
8
CUT
10
86.539
20
33.0411
0
VERTEX
8
CUT
10
87.699
20
33.75
0
VERTEX
8
CUT
10
93.099
20
33.75
0
VERTEX
8
CUT
10
94.259
20
33.0411
0
SEQEND
0
POLYLINE
8
CUT
66
1
70
0
0
VERTEX
8
CUT
10
86.539
20
32.2589
0
VERTEX
8
CUT
10
87.699
20
31.55
0
VERTEX
8
CUT
10
93.099
20
31.55
0
VERTEX
8
CUT
10
94.259
20
32.2589
0
SEQEND
0
POLYLINE
8
CUT
66
1
70
0
0
VERTEX
8
CUT
10
86.539
20
30.1411
0
VERTEX
8
CUT
10
87.699
20
30.85
0
VERTEX
8
CUT
10
93.099
20
30.85
0
VERTEX
8
CUT
10
94.259
20
30.1411
0
SEQEND
0
POLYLINE
8
CUT
66
1
70
0
0
VERTEX
8
CUT
10
86.539
20
29.3589
0
VERTEX
8
CUT
10
87.699
20
28.65
0
VERTEX
8
CUT
10
93.099
20
28.65
0
VERTEX
8
CUT
10
94.259
20
29.3589
0
SEQEND
0
POLYLINE
8
CUT
66
1
70
0
0
VERTEX
8
CUT
10
86.539
20
27.2411
0
VERTEX
8
CUT
10
87.699
20
27.95
0
VERTEX
8
CUT
10
93.099
20
27.95
0
VERTEX
8
CUT
10
94.259
20
27.2411
0
SEQEND
0
POLYLINE
8
CUT
66
1
70
0
0
VERTEX
8
CUT
10
86.539
20
26.4589
0
VERTEX
8
CUT
10
87.699
20
25.75
0
VERTEX
8
CUT
10
93.099
20
25.75
0
VERTEX
8
CUT
10
94.259
20
26.4589
0
SEQEND
0
POLYLINE
8
CUT
66
1
70
0
0
VERTEX
8
CUT
10
86.539
20
24.3411
0
VERTEX
8
CUT
10
87.699
20
25.05
0
VERTEX
8
CUT
10
93.099
20
25.05
0
VERTEX
8
CUT
10
94.259
20
24.3411
0
SEQEND
0
POLYLINE
8
CUT
66
1
70
0
0
VERTEX
8
CUT
10
86.539
20
23.5589
0
VERTEX
8
CUT
10
87.699
20
22.85
0
VERTEX
8
CUT
10
93.099
20
22.85
0
VERTEX
8
CUT
10
94.259
20
23.5589
0
SEQEND
0
POLYLINE
8
CUT
66
1
70
0
0
VERTEX
8
CUT
10
86.539
20
21.4411
0
VERTEX
8
CUT
10
87.699
20
22.15
0
VERTEX
8
CUT
10
93.099
20
22.15
0
VERTEX
8
CUT
10
94.259
20
21.4411
0
SEQEND
0
POLYLINE
8
CUT
66
1
70
0
0
VERTEX
8
CUT
10
86.539
20
20.6589
0
VERTEX
8
CUT
10
87.699
20
19.95
0
VERTEX
8
CUT
10
93.099
20
19.95
0
VERTEX
8
CUT
10
94.259
20
20.6589
0
SEQEND
0
POLYLINE
8
CUT
66
1
70
0
0
VERTEX
8
CUT
10
86.539
20
18.5411
0
VERTEX
8
CUT
10
87.699
20
19.25
0
VERTEX
8
CUT
10
93.099
20
19.25
0
VERTEX
8
CUT
10
94.259
20
18.5411
0
SEQEND
0
POLYLINE
8
CUT
66
1
70
0
0
VERTEX
8
CUT
10
86.539
20
17.7589
0
VERTEX
8
CUT
10
87.699
20
17.05
0
VERTEX
8
CUT
10
93.099
20
17.05
0
VERTEX
8
CUT
10
94.259
20
17.7589
0
SEQEND
0
POLYLINE
8
CUT
66
1
70
0
0
VERTEX
8
CUT
10
86.539
20
15.6411
0
VERTEX
8
CUT
10
87.699
20
16.35
0
VERTEX
8
CUT
10
93.099
20
16.35
0
VERTEX
8
CUT
10
94.259
20
15.6411
0
SEQEND
0
POLYLINE
8
CUT
66
1
70
0
0
VERTEX
8
CUT
10
86.539
20
14.8589
0
VERTEX
8
CUT
10
87.699
20
14.15
0
VERTEX
8
CUT
10
93.099
20
14.15
0
VERTEX
8
CUT
10
94.259
20
14.8589
0
SEQEND
0
POLYLINE
8
CUT
66
1
70
0
0
VERTEX
8
CUT
10
86.539
20
12.7411
0
VERTEX
8
CUT
10
87.699
20
13.45
0
VERTEX
8
CUT
10
93.099
20
13.45
0
VERTEX
8
CUT
10
94.259
20
12.7411
0
SEQEND
0
POLYLINE
8
CUT
66
1
70
0
0
VERTEX
8
CUT
10
86.539
20
11.9589
0
VERTEX
8
CUT
10
87.699
20
11.25
0
VERTEX
8
CUT
10
93.099
20
11.25
0
VERTEX
8
CUT
10
94.259
20
11.9589
0
SEQEND
0
POLYLINE
8
CUT
66
1
70
0
0
VERTEX
8
CUT
10
86.539
20
9.8411
0
VERTEX
8
CUT
10
87.699
20
10.55
0
VERTEX
8
CUT
10
93.099
20
10.55
0
VERTEX
8
CUT
10
94.259
20
9.8411
0
SEQEND
0
POLYLINE
8
CUT
66
1
70
0
0
VERTEX
8
CUT
10
86.539
20
9.0589
0
VERTEX
8
CUT
10
87.699
20
8.35
0
VERTEX
8
CUT
10
93.099
20
8.35
0
VERTEX
8
CUT
10
94.259
20
9.0589
0
SEQEND
0
POLYLINE
8
CUT
66
1
70
0
0
VERTEX
8
CUT
10
86.539
20
6.9411
0
VERTEX
8
CUT
10
87.699
20
7.65
0
VERTEX
8
CUT
10
93.099
20
7.65
0
VERTEX
8
CUT
10
94.259
20
6.9411
0
SEQEND
0
POLYLINE
8
CUT
66
1
70
0
0
VERTEX
8
CUT
10
86.539
20
6.1589
0
VERTEX
8
CUT
10
87.699
20
5.45
0
VERTEX
8
CUT
10
93.099
20
5.45
0
VERTEX
8
CUT
10
94.259
20
6.1589
0
SEQEND
0
POLYLINE
8
CUT
66
1
70
0
0
VERTEX
8
CUT
10
86.539
20
4.0411
0
VERTEX
8
CUT
10
87.699
20
4.75
0
VERTEX
8
CUT
10
93.099
20
4.75
0
VERTEX
8
CUT
10
94.259
20
4.0411
0
SEQEND
0
POLYLINE
8
CUT
66
1
70
0
0
VERTEX
8
CUT
10
86.539
20
3.2589
0
VERTEX
8
CUT
10
87.699
20
2.55
0
VERTEX
8
CUT
10
93.099
20
2.55
0
VERTEX
8
CUT
10
94.259
20
3.2589
0
SEQEND
0
POLYLINE
8
CUT
66
1
70
0
0
VERTEX
8
CUT
10
86.539
20
1.1411
0
VERTEX
8
CUT
10
87.699
20
1.85
0
VERTEX
8
CUT
10
93.099
20
1.85
0
VERTEX
8
CUT
10
94.259
20
1.1411
0
SEQEND
0
LINE
8
CUT
10
86.539
20
0.3589
11
87.1263
21
0
0
LINE
8
CUT
10
93.6717
20
0
11
94.259
21
0.3589
0
POLYLINE
8
CUT
66
1
70
0
0
VERTEX
8
CUT
10
94.348
20
69.2911
0
VERTEX
8
CUT
10
95.508
20
70
0
VERTEX
8
CUT
10
100.908
20
70
0
VERTEX
8
CUT
10
102.068
20
69.2911
0
SEQEND
0
POLYLINE
8
CUT
66
1
70
0
0
VERTEX
8
CUT
10
94.348
20
68.5089
0
VERTEX
8
CUT
10
95.508
20
67.8
0
VERTEX
8
CUT
10
100.908
20
67.8
0
VERTEX
8
CUT
10
102.068
20
68.5089
0
SEQEND
0
POLYLINE
8
CUT
66
1
70
0
0
VERTEX
8
CUT
10
94.348
20
66.3911
0
VERTEX
8
CUT
10
95.508
20
67.1
0
VERTEX
8
CUT
10
100.908
20
67.1
0
VERTEX
8
CUT
10
102.068
20
66.3911
0
SEQEND
0
POLYLINE
8
CUT
66
1
70
0
0
VERTEX
8
CUT
10
94.348
20
65.6089
0
VERTEX
8
CUT
10
95.508
20
64.9
0
VERTEX
8
CUT
10
100.908
20
64.9
0
VERTEX
8
CUT
10
102.068
20
65.6089
0
SEQEND
0
POLYLINE
8
CUT
66
1
70
0
0
VERTEX
8
CUT
10
94.348
20
63.4911
0
VERTEX
8
CUT
10
95.508
20
64.2
0
VERTEX
8
CUT
10
100.908
20
64.2
0
VERTEX
8
CUT
10
102.068
20
63.4911
0
SEQEND
0
POLYLINE
8
CUT
66
1
70
0
0
VERTEX
8
CUT
10
94.348
20
62.7089
0
VERTEX
8
CUT
10
95.508
20
62
0
VERTEX
8
CUT
10
100.908
20
62
0
VERTEX
8
CUT
10
102.068
20
62.7089
0
SEQEND
0
POLYLINE
8
CUT
66
1
70
0
0
VERTEX
8
CUT
10
94.348
20
60.5911
0
VERTEX
8
CUT
10
95.508
20
61.3
0
VERTEX
8
CUT
10
100.908
20
61.3
0
VERTEX
8
CUT
10
102.068
20
60.5911
0
SEQEND
0
POLYLINE
8
CUT
66
1
70
0
0
VERTEX
8
CUT
10
94.348
20
59.8089
0
VERTEX
8
CUT
10
95.508
20
59.1
0
VERTEX
8
CUT
10
100.908
20
59.1
0
VERTEX
8
CUT
10
102.068
20
59.8089
0
SEQEND
0
POLYLINE
8
CUT
66
1
70
0
0
VERTEX
8
CUT
10
94.348
20
57.6911
0
VERTEX
8
CUT
10
95.508
20
58.4
0
VERTEX
8
CUT
10
100.908
20
58.4
0
VERTEX
8
CUT
10
102.068
20
57.6911
0
SEQEND
0
POLYLINE
8
CUT
66
1
70
0
0
VERTEX
8
CUT
10
94.348
20
56.9089
0
VERTEX
8
CUT
10
95.508
20
56.2
0
VERTEX
8
CUT
10
100.908
20
56.2
0
VERTEX
8
CUT
10
102.068
20
56.9089
0
SEQEND
0
POLYLINE
8
CUT
66
1
70
0
0
VERTEX
8
CUT
10
94.348
20
54.7911
0
VERTEX
8
CUT
10
95.508
20
55.5
0
VERTEX
8
CUT
10
100.908
20
55.5
0
VERTEX
8
CUT
10
102.068
20
54.7911
0
SEQEND
0
POLYLINE
8
CUT
66
1
70
0
0
VERTEX
8
CUT
10
94.348
20
54.0089
0
VERTEX
8
CUT
10
95.508
20
53.3
0
VERTEX
8
CUT
10
100.908
20
53.3
0
VERTEX
8
CUT
10
102.068
20
54.0089
0
SEQEND
0
POLYLINE
8
CUT
66
1
70
0
0
VERTEX
8
CUT
10
94.348
20
51.8911
0
VERTEX
8
CUT
10
95.508
20
52.6
0
VERTEX
8
CUT
10
100.908
20
52.6
0
VERTEX
8
CUT
10
102.068
20
51.8911
0
SEQEND
0
POLYLINE
8
CUT
66
1
70
0
0
VERTEX
8
CUT
10
94.348
20
51.1089
0
VERTEX
8
CUT
10
95.508
20
50.4
0
VERTEX
8
CUT
10
100.908
20
50.4
0
VERTEX
8
CUT
10
102.068
20
51.1089
0
SEQEND
0
POLYLINE
8
CUT
66
1
70
0
0
VERTEX
8
CUT
10
94.348
20
48.9911
0
VERTEX
8
CUT
10
95.508
20
49.7
0
VERTEX
8
CUT
10
100.908
20
49.7
0
VERTEX
8
CUT
10
102.068
20
48.9911
0
SEQEND
0
POLYLINE
8
CUT
66
1
70
0
0
VERTEX
8
CUT
10
94.348
20
48.2089
0
VERTEX
8
CUT
10
95.508
20
47.5
0
VERTEX
8
CUT
10
100.908
20
47.5
0
VERTEX
8
CUT
10
102.068
20
48.2089
0
SEQEND
0
POLYLINE
8
CUT
66
1
70
0
0
VERTEX
8
CUT
10
94.348
20
46.0911
0
VERTEX
8
CUT
10
95.508
20
46.8
0
VERTEX
8
CUT
10
100.908
20
46.8
0
VERTEX
8
CUT
10
102.068
20
46.0911
0
SEQEND
0
POLYLINE
8
CUT
66
1
70
0
0
VERTEX
8
CUT
10
94.348
20
45.3089
0
VERTEX
8
CUT
10
95.508
20
44.6
0
VERTEX
8
CUT
10
100.908
20
44.6
0
VERTEX
8
CUT
10
102.068
20
45.3089
0
SEQEND
0
POLYLINE
8
CUT
66
1
70
0
0
VERTEX
8
CUT
10
94.348
20
43.1911
0
VERTEX
8
CUT
10
95.508
20
43.9
0
VERTEX
8
CUT
10
100.908
20
43.9
0
VERTEX
8
CUT
10
102.068
20
43.1911
0
SEQEND
0
POLYLINE
8
CUT
66
1
70
0
0
VERTEX
8
CUT
10
94.348
20
42.4089
0
VERTEX
8
CUT
10
95.508
20
41.7
0
VERTEX
8
CUT
10
100.908
20
41.7
0
VERTEX
8
CUT
10
102.068
20
42.4089
0
SEQEND
0
POLYLINE
8
CUT
66
1
70
0
0
VERTEX
8
CUT
10
94.348
20
40.2911
0
VERTEX
8
CUT
10
95.508
20
41
0
VERTEX
8
CUT
10
100.908
20
41
0
VERTEX
8
CUT
10
102.068
20
40.2911
0
SEQEND
0
POLYLINE
8
CUT
66
1
70
0
0
VERTEX
8
CUT
10
94.348
20
39.5089
0
VERTEX
8
CUT
10
95.508
20
38.8
0
VERTEX
8
CUT
10
100.908
20
38.8
0
VERTEX
8
CUT
10
102.068
20
39.5089
0
SEQEND
0
POLYLINE
8
CUT
66
1
70
0
0
VERTEX
8
CUT
10
94.348
20
37.3911
0
VERTEX
8
CUT
10
95.508
20
38.1
0
VERTEX
8
CUT
10
100.908
20
38.1
0
VERTEX
8
CUT
10
102.068
20
37.3911
0
SEQEND
0
POLYLINE
8
CUT
66
1
70
0
0
VERTEX
8
CUT
10
94.348
20
36.6089
0
VERTEX
8
CUT
10
95.508
20
35.9
0
VERTEX
8
CUT
10
100.908
20
35.9
0
VERTEX
8
CUT
10
102.068
20
36.6089
0
SEQEND
0
POLYLINE
8
CUT
66
1
70
0
0
VERTEX
8
CUT
10
94.348
20
34.4911
0
VERTEX
8
CUT
10
95.508
20
35.2
0
VERTEX
8
CUT
10
100.908
20
35.2
0
VERTEX
8
CUT
10
102.068
20
34.4911
0
SEQEND
0
POLYLINE
8
CUT
66
1
70
0
0
VERTEX
8
CUT
10
94.348
20
33.7089
0
VERTEX
8
CUT
10
95.508
20
33
0
VERTEX
8
CUT
10
100.908
20
33
0
VERTEX
8
CUT
10
102.068
20
33.7089
0
SEQEND
0
POLYLINE
8
CUT
66
1
70
0
0
VERTEX
8
CUT
10
94.348
20
31.5911
0
VERTEX
8
CUT
10
95.508
20
32.3
0
VERTEX
8
CUT
10
100.908
20
32.3
0
VERTEX
8
CUT
10
102.068
20
31.5911
0
SEQEND
0
POLYLINE
8
CUT
66
1
70
0
0
VERTEX
8
CUT
10
94.348
20
30.8089
0
VERTEX
8
CUT
10
95.508
20
30.1
0
VERTEX
8
CUT
10
100.908
20
30.1
0
VERTEX
8
CUT
10
102.068
20
30.8089
0
SEQEND
0
POLYLINE
8
CUT
66
1
70
0
0
VERTEX
8
CUT
10
94.348
20
28.6911
0
VERTEX
8
CUT
10
95.508
20
29.4
0
VERTEX
8
CUT
10
100.908
20
29.4
0
VERTEX
8
CUT
10
102.068
20
28.6911
0
SEQEND
0
POLYLINE
8
CUT
66
1
70
0
0
VERTEX
8
CUT
10
94.348
20
27.9089
0
VERTEX
8
CUT
10
95.508
20
27.2
0
VERTEX
8
CUT
10
100.908
20
27.2
0
VERTEX
8
CUT
10
102.068
20
27.9089
0
SEQEND
0
POLYLINE
8
CUT
66
1
70
0
0
VERTEX
8
CUT
10
94.348
20
25.7911
0
VERTEX
8
CUT
10
95.508
20
26.5
0
VERTEX
8
CUT
10
100.908
20
26.5
0
VERTEX
8
CUT
10
102.068
20
25.7911
0
SEQEND
0
POLYLINE
8
CUT
66
1
70
0
0
VERTEX
8
CUT
10
94.348
20
25.0089
0
VERTEX
8
CUT
10
95.508
20
24.3
0
VERTEX
8
CUT
10
100.908
20
24.3
0
VERTEX
8
CUT
10
102.068
20
25.0089
0
SEQEND
0
POLYLINE
8
CUT
66
1
70
0
0
VERTEX
8
CUT
10
94.348
20
22.8911
0
VERTEX
8
CUT
10
95.508
20
23.6
0
VERTEX
8
CUT
10
100.908
20
23.6
0
VERTEX
8
CUT
10
102.068
20
22.8911
0
SEQEND
0
POLYLINE
8
CUT
66
1
70
0
0
VERTEX
8
CUT
10
94.348
20
22.1089
0
VERTEX
8
CUT
10
95.508
20
21.4
0
VERTEX
8
CUT
10
100.908
20
21.4
0
VERTEX
8
CUT
10
102.068
20
22.1089
0
SEQEND
0
POLYLINE
8
CUT
66
1
70
0
0
VERTEX
8
CUT
10
94.348
20
19.9911
0
VERTEX
8
CUT
10
95.508
20
20.7
0
VERTEX
8
CUT
10
100.908
20
20.7
0
VERTEX
8
CUT
10
102.068
20
19.9911
0
SEQEND
0
POLYLINE
8
CUT
66
1
70
0
0
VERTEX
8
CUT
10
94.348
20
19.2089
0
VERTEX
8
CUT
10
95.508
20
18.5
0
VERTEX
8
CUT
10
100.908
20
18.5
0
VERTEX
8
CUT
10
102.068
20
19.2089
0
SEQEND
0
POLYLINE
8
CUT
66
1
70
0
0
VERTEX
8
CUT
10
94.348
20
17.0911
0
VERTEX
8
CUT
10
95.508
20
17.8
0
VERTEX
8
CUT
10
100.908
20
17.8
0
VERTEX
8
CUT
10
102.068
20
17.0911
0
SEQEND
0
POLYLINE
8
CUT
66
1
70
0
0
VERTEX
8
CUT
10
94.348
20
16.3089
0
VERTEX
8
CUT
10
95.508
20
15.6
0
VERTEX
8
CUT
10
100.908
20
15.6
0
VERTEX
8
CUT
10
102.068
20
16.3089
0
SEQEND
0
POLYLINE
8
CUT
66
1
70
0
0
VERTEX
8
CUT
10
94.348
20
14.1911
0
VERTEX
8
CUT
10
95.508
20
14.9
0
VERTEX
8
CUT
10
100.908
20
14.9
0
VERTEX
8
CUT
10
102.068
20
14.1911
0
SEQEND
0
POLYLINE
8
CUT
66
1
70
0
0
VERTEX
8
CUT
10
94.348
20
13.4089
0
VERTEX
8
CUT
10
95.508
20
12.7
0
VERTEX
8
CUT
10
100.908
20
12.7
0
VERTEX
8
CUT
10
102.068
20
13.4089
0
SEQEND
0
POLYLINE
8
CUT
66
1
70
0
0
VERTEX
8
CUT
10
94.348
20
11.2911
0
VERTEX
8
CUT
10
95.508
20
12
0
VERTEX
8
CUT
10
100.908
20
12
0
VERTEX
8
CUT
10
102.068
20
11.2911
0
SEQEND
0
POLYLINE
8
CUT
66
1
70
0
0
VERTEX
8
CUT
10
94.348
20
10.5089
0
VERTEX
8
CUT
10
95.508
20
9.8
0
VERTEX
8
CUT
10
100.908
20
9.8
0
VERTEX
8
CUT
10
102.068
20
10.5089
0
SEQEND
0
POLYLINE
8
CUT
66
1
70
0
0
VERTEX
8
CUT
10
94.348
20
8.3911
0
VERTEX
8
CUT
10
95.508
20
9.1
0
VERTEX
8
CUT
10
100.908
20
9.1
0
VERTEX
8
CUT
10
102.068
20
8.3911
0
SEQEND
0
POLYLINE
8
CUT
66
1
70
0
0
VERTEX
8
CUT
10
94.348
20
7.6089
0
VERTEX
8
CUT
10
95.508
20
6.9
0
VERTEX
8
CUT
10
100.908
20
6.9
0
VERTEX
8
CUT
10
102.068
20
7.6089
0
SEQEND
0
POLYLINE
8
CUT
66
1
70
0
0
VERTEX
8
CUT
10
94.348
20
5.4911
0
VERTEX
8
CUT
10
95.508
20
6.2
0
VERTEX
8
CUT
10
100.908
20
6.2
0
VERTEX
8
CUT
10
102.068
20
5.4911
0
SEQEND
0
POLYLINE
8
CUT
66
1
70
0
0
VERTEX
8
CUT
10
94.348
20
4.7089
0
VERTEX
8
CUT
10
95.508
20
4
0
VERTEX
8
CUT
10
100.908
20
4
0
VERTEX
8
CUT
10
102.068
20
4.7089
0
SEQEND
0
POLYLINE
8
CUT
66
1
70
0
0
VERTEX
8
CUT
10
94.348
20
2.5911
0
VERTEX
8
CUT
10
95.508
20
3.3
0
VERTEX
8
CUT
10
100.908
20
3.3
0
VERTEX
8
CUT
10
102.068
20
2.5911
0
SEQEND
0
POLYLINE
8
CUT
66
1
70
0
0
VERTEX
8
CUT
10
94.348
20
1.8089
0
VERTEX
8
CUT
10
95.508
20
1.1
0
VERTEX
8
CUT
10
100.908
20
1.1
0
VERTEX
8
CUT
10
102.068
20
1.8089
0
SEQEND
0
POLYLINE
8
CUT
66
1
70
0
0
VERTEX
8
CUT
10
94.8535
20
0
0
VERTEX
8
CUT
10
95.508
20
0.4
0
VERTEX
8
CUT
10
100.908
20
0.4
0
VERTEX
8
CUT
10
101.5625
20
0
0
SEQEND
0
POLYLINE
8
CUT
66
1
70
0
0
VERTEX
8
CUT
10
102.157
20
69.9589
0
VERTEX
8
CUT
10
103.317
20
69.25
0
VERTEX
8
CUT
10
108.717
20
69.25
0
VERTEX
8
CUT
10
109.877
20
69.9589
0
SEQEND
0
POLYLINE
8
CUT
66
1
70
0
0
VERTEX
8
CUT
10
102.157
20
67.8411
0
VERTEX
8
CUT
10
103.317
20
68.55
0
VERTEX
8
CUT
10
108.717
20
68.55
0
VERTEX
8
CUT
10
109.877
20
67.8411
0
SEQEND
0
POLYLINE
8
CUT
66
1
70
0
0
VERTEX
8
CUT
10
102.157
20
67.0589
0
VERTEX
8
CUT
10
103.317
20
66.35
0
VERTEX
8
CUT
10
108.717
20
66.35
0
VERTEX
8
CUT
10
109.877
20
67.0589
0
SEQEND
0
POLYLINE
8
CUT
66
1
70
0
0
VERTEX
8
CUT
10
102.157
20
64.9411
0
VERTEX
8
CUT
10
103.317
20
65.65
0
VERTEX
8
CUT
10
108.717
20
65.65
0
VERTEX
8
CUT
10
109.877
20
64.9411
0
SEQEND
0
POLYLINE
8
CUT
66
1
70
0
0
VERTEX
8
CUT
10
102.157
20
64.1589
0
VERTEX
8
CUT
10
103.317
20
63.45
0
VERTEX
8
CUT
10
108.717
20
63.45
0
VERTEX
8
CUT
10
109.877
20
64.1589
0
SEQEND
0
POLYLINE
8
CUT
66
1
70
0
0
VERTEX
8
CUT
10
102.157
20
62.0411
0
VERTEX
8
CUT
10
103.317
20
62.75
0
VERTEX
8
CUT
10
108.717
20
62.75
0
VERTEX
8
CUT
10
109.877
20
62.0411
0
SEQEND
0
POLYLINE
8
CUT
66
1
70
0
0
VERTEX
8
CUT
10
102.157
20
61.2589
0
VERTEX
8
CUT
10
103.317
20
60.55
0
VERTEX
8
CUT
10
108.717
20
60.55
0
VERTEX
8
CUT
10
109.877
20
61.2589
0
SEQEND
0
POLYLINE
8
CUT
66
1
70
0
0
VERTEX
8
CUT
10
102.157
20
59.1411
0
VERTEX
8
CUT
10
103.317
20
59.85
0
VERTEX
8
CUT
10
108.717
20
59.85
0
VERTEX
8
CUT
10
109.877
20
59.1411
0
SEQEND
0
POLYLINE
8
CUT
66
1
70
0
0
VERTEX
8
CUT
10
102.157
20
58.3589
0
VERTEX
8
CUT
10
103.317
20
57.65
0
VERTEX
8
CUT
10
108.717
20
57.65
0
VERTEX
8
CUT
10
109.877
20
58.3589
0
SEQEND
0
POLYLINE
8
CUT
66
1
70
0
0
VERTEX
8
CUT
10
102.157
20
56.2411
0
VERTEX
8
CUT
10
103.317
20
56.95
0
VERTEX
8
CUT
10
108.717
20
56.95
0
VERTEX
8
CUT
10
109.877
20
56.2411
0
SEQEND
0
POLYLINE
8
CUT
66
1
70
0
0
VERTEX
8
CUT
10
102.157
20
55.4589
0
VERTEX
8
CUT
10
103.317
20
54.75
0
VERTEX
8
CUT
10
108.717
20
54.75
0
VERTEX
8
CUT
10
109.877
20
55.4589
0
SEQEND
0
POLYLINE
8
CUT
66
1
70
0
0
VERTEX
8
CUT
10
102.157
20
53.3411
0
VERTEX
8
CUT
10
103.317
20
54.05
0
VERTEX
8
CUT
10
108.717
20
54.05
0
VERTEX
8
CUT
10
109.877
20
53.3411
0
SEQEND
0
POLYLINE
8
CUT
66
1
70
0
0
VERTEX
8
CUT
10
102.157
20
52.5589
0
VERTEX
8
CUT
10
103.317
20
51.85
0
VERTEX
8
CUT
10
108.717
20
51.85
0
VERTEX
8
CUT
10
109.877
20
52.5589
0
SEQEND
0
POLYLINE
8
CUT
66
1
70
0
0
VERTEX
8
CUT
10
102.157
20
50.4411
0
VERTEX
8
CUT
10
103.317
20
51.15
0
VERTEX
8
CUT
10
108.717
20
51.15
0
VERTEX
8
CUT
10
109.877
20
50.4411
0
SEQEND
0
POLYLINE
8
CUT
66
1
70
0
0
VERTEX
8
CUT
10
102.157
20
49.6589
0
VERTEX
8
CUT
10
103.317
20
48.95
0
VERTEX
8
CUT
10
108.717
20
48.95
0
VERTEX
8
CUT
10
109.877
20
49.6589
0
SEQEND
0
POLYLINE
8
CUT
66
1
70
0
0
VERTEX
8
CUT
10
102.157
20
47.5411
0
VERTEX
8
CUT
10
103.317
20
48.25
0
VERTEX
8
CUT
10
108.717
20
48.25
0
VERTEX
8
CUT
10
109.877
20
47.5411
0
SEQEND
0
POLYLINE
8
CUT
66
1
70
0
0
VERTEX
8
CUT
10
102.157
20
46.7589
0
VERTEX
8
CUT
10
103.317
20
46.05
0
VERTEX
8
CUT
10
108.717
20
46.05
0
VERTEX
8
CUT
10
109.877
20
46.7589
0
SEQEND
0
POLYLINE
8
CUT
66
1
70
0
0
VERTEX
8
CUT
10
102.157
20
44.6411
0
VERTEX
8
CUT
10
103.317
20
45.35
0
VERTEX
8
CUT
10
108.717
20
45.35
0
VERTEX
8
CUT
10
109.877
20
44.6411
0
SEQEND
0
POLYLINE
8
CUT
66
1
70
0
0
VERTEX
8
CUT
10
102.157
20
43.8589
0
VERTEX
8
CUT
10
103.317
20
43.15
0
VERTEX
8
CUT
10
108.717
20
43.15
0
VERTEX
8
CUT
10
109.877
20
43.8589
0
SEQEND
0
POLYLINE
8
CUT
66
1
70
0
0
VERTEX
8
CUT
10
102.157
20
41.7411
0
VERTEX
8
CUT
10
103.317
20
42.45
0
VERTEX
8
CUT
10
108.717
20
42.45
0
VERTEX
8
CUT
10
109.877
20
41.7411
0
SEQEND
0
POLYLINE
8
CUT
66
1
70
0
0
VERTEX
8
CUT
10
102.157
20
40.9589
0
VERTEX
8
CUT
10
103.317
20
40.25
0
VERTEX
8
CUT
10
108.717
20
40.25
0
VERTEX
8
CUT
10
109.877
20
40.9589
0
SEQEND
0
POLYLINE
8
CUT
66
1
70
0
0
VERTEX
8
CUT
10
102.157
20
38.8411
0
VERTEX
8
CUT
10
103.317
20
39.55
0
VERTEX
8
CUT
10
108.717
20
39.55
0
VERTEX
8
CUT
10
109.877
20
38.8411
0
SEQEND
0
POLYLINE
8
CUT
66
1
70
0
0
VERTEX
8
CUT
10
102.157
20
38.0589
0
VERTEX
8
CUT
10
103.317
20
37.35
0
VERTEX
8
CUT
10
108.717
20
37.35
0
VERTEX
8
CUT
10
109.877
20
38.0589
0
SEQEND
0
POLYLINE
8
CUT
66
1
70
0
0
VERTEX
8
CUT
10
102.157
20
35.9411
0
VERTEX
8
CUT
10
103.317
20
36.65
0
VERTEX
8
CUT
10
108.717
20
36.65
0
VERTEX
8
CUT
10
109.877
20
35.9411
0
SEQEND
0
POLYLINE
8
CUT
66
1
70
0
0
VERTEX
8
CUT
10
102.157
20
35.1589
0
VERTEX
8
CUT
10
103.317
20
34.45
0
VERTEX
8
CUT
10
108.717
20
34.45
0
VERTEX
8
CUT
10
109.877
20
35.1589
0
SEQEND
0
POLYLINE
8
CUT
66
1
70
0
0
VERTEX
8
CUT
10
102.157
20
33.0411
0
VERTEX
8
CUT
10
103.317
20
33.75
0
VERTEX
8
CUT
10
108.717
20
33.75
0
VERTEX
8
CUT
10
109.877
20
33.0411
0
SEQEND
0
POLYLINE
8
CUT
66
1
70
0
0
VERTEX
8
CUT
10
102.157
20
32.2589
0
VERTEX
8
CUT
10
103.317
20
31.55
0
VERTEX
8
CUT
10
108.717
20
31.55
0
VERTEX
8
CUT
10
109.877
20
32.2589
0
SEQEND
0
POLYLINE
8
CUT
66
1
70
0
0
VERTEX
8
CUT
10
102.157
20
30.1411
0
VERTEX
8
CUT
10
103.317
20
30.85
0
VERTEX
8
CUT
10
108.717
20
30.85
0
VERTEX
8
CUT
10
109.877
20
30.1411
0
SEQEND
0
POLYLINE
8
CUT
66
1
70
0
0
VERTEX
8
CUT
10
102.157
20
29.3589
0
VERTEX
8
CUT
10
103.317
20
28.65
0
VERTEX
8
CUT
10
108.717
20
28.65
0
VERTEX
8
CUT
10
109.877
20
29.3589
0
SEQEND
0
POLYLINE
8
CUT
66
1
70
0
0
VERTEX
8
CUT
10
102.157
20
27.2411
0
VERTEX
8
CUT
10
103.317
20
27.95
0
VERTEX
8
CUT
10
108.717
20
27.95
0
VERTEX
8
CUT
10
109.877
20
27.2411
0
SEQEND
0
POLYLINE
8
CUT
66
1
70
0
0
VERTEX
8
CUT
10
102.157
20
26.4589
0
VERTEX
8
CUT
10
103.317
20
25.75
0
VERTEX
8
CUT
10
108.717
20
25.75
0
VERTEX
8
CUT
10
109.877
20
26.4589
0
SEQEND
0
POLYLINE
8
CUT
66
1
70
0
0
VERTEX
8
CUT
10
102.157
20
24.3411
0
VERTEX
8
CUT
10
103.317
20
25.05
0
VERTEX
8
CUT
10
108.717
20
25.05
0
VERTEX
8
CUT
10
109.877
20
24.3411
0
SEQEND
0
POLYLINE
8
CUT
66
1
70
0
0
VERTEX
8
CUT
10
102.157
20
23.5589
0
VERTEX
8
CUT
10
103.317
20
22.85
0
VERTEX
8
CUT
10
108.717
20
22.85
0
VERTEX
8
CUT
10
109.877
20
23.5589
0
SEQEND
0
POLYLINE
8
CUT
66
1
70
0
0
VERTEX
8
CUT
10
102.157
20
21.4411
0
VERTEX
8
CUT
10
103.317
20
22.15
0
VERTEX
8
CUT
10
108.717
20
22.15
0
VERTEX
8
CUT
10
109.877
20
21.4411
0
SEQEND
0
POLYLINE
8
CUT
66
1
70
0
0
VERTEX
8
CUT
10
102.157
20
20.6589
0
VERTEX
8
CUT
10
103.317
20
19.95
0
VERTEX
8
CUT
10
108.717
20
19.95
0
VERTEX
8
CUT
10
109.877
20
20.6589
0
SEQEND
0
POLYLINE
8
CUT
66
1
70
0
0
VERTEX
8
CUT
10
102.157
20
18.5411
0
VERTEX
8
CUT
10
103.317
20
19.25
0
VERTEX
8
CUT
10
108.717
20
19.25
0
VERTEX
8
CUT
10
109.877
20
18.5411
0
SEQEND
0
POLYLINE
8
CUT
66
1
70
0
0
VERTEX
8
CUT
10
102.157
20
17.7589
0
VERTEX
8
CUT
10
103.317
20
17.05
0
VERTEX
8
CUT
10
108.717
20
17.05
0
VERTEX
8
CUT
10
109.877
20
17.7589
0
SEQEND
0
POLYLINE
8
CUT
66
1
70
0
0
VERTEX
8
CUT
10
102.157
20
15.6411
0
VERTEX
8
CUT
10
103.317
20
16.35
0
VERTEX
8
CUT
10
108.717
20
16.35
0
VERTEX
8
CUT
10
109.877
20
15.6411
0
SEQEND
0
POLYLINE
8
CUT
66
1
70
0
0
VERTEX
8
CUT
10
102.157
20
14.8589
0
VERTEX
8
CUT
10
103.317
20
14.15
0
VERTEX
8
CUT
10
108.717
20
14.15
0
VERTEX
8
CUT
10
109.877
20
14.8589
0
SEQEND
0
POLYLINE
8
CUT
66
1
70
0
0
VERTEX
8
CUT
10
102.157
20
12.7411
0
VERTEX
8
CUT
10
103.317
20
13.45
0
VERTEX
8
CUT
10
108.717
20
13.45
0
VERTEX
8
CUT
10
109.877
20
12.7411
0
SEQEND
0
POLYLINE
8
CUT
66
1
70
0
0
VERTEX
8
CUT
10
102.157
20
11.9589
0
VERTEX
8
CUT
10
103.317
20
11.25
0
VERTEX
8
CUT
10
108.717
20
11.25
0
VERTEX
8
CUT
10
109.877
20
11.9589
0
SEQEND
0
POLYLINE
8
CUT
66
1
70
0
0
VERTEX
8
CUT
10
102.157
20
9.8411
0
VERTEX
8
CUT
10
103.317
20
10.55
0
VERTEX
8
CUT
10
108.717
20
10.55
0
VERTEX
8
CUT
10
109.877
20
9.8411
0
SEQEND
0
POLYLINE
8
CUT
66
1
70
0
0
VERTEX
8
CUT
10
102.157
20
9.0589
0
VERTEX
8
CUT
10
103.317
20
8.35
0
VERTEX
8
CUT
10
108.717
20
8.35
0
VERTEX
8
CUT
10
109.877
20
9.0589
0
SEQEND
0
POLYLINE
8
CUT
66
1
70
0
0
VERTEX
8
CUT
10
102.157
20
6.9411
0
VERTEX
8
CUT
10
103.317
20
7.65
0
VERTEX
8
CUT
10
108.717
20
7.65
0
VERTEX
8
CUT
10
109.877
20
6.9411
0
SEQEND
0
POLYLINE
8
CUT
66
1
70
0
0
VERTEX
8
CUT
10
102.157
20
6.1589
0
VERTEX
8
CUT
10
103.317
20
5.45
0
VERTEX
8
CUT
10
108.717
20
5.45
0
VERTEX
8
CUT
10
109.877
20
6.1589
0
SEQEND
0
POLYLINE
8
CUT
66
1
70
0
0
VERTEX
8
CUT
10
102.157
20
4.0411
0
VERTEX
8
CUT
10
103.317
20
4.75
0
VERTEX
8
CUT
10
108.717
20
4.75
0
VERTEX
8
CUT
10
109.877
20
4.0411
0
SEQEND
0
POLYLINE
8
CUT
66
1
70
0
0
VERTEX
8
CUT
10
102.157
20
3.2589
0
VERTEX
8
CUT
10
103.317
20
2.55
0
VERTEX
8
CUT
10
108.717
20
2.55
0
VERTEX
8
CUT
10
109.877
20
3.2589
0
SEQEND
0
POLYLINE
8
CUT
66
1
70
0
0
VERTEX
8
CUT
10
102.157
20
1.1411
0
VERTEX
8
CUT
10
103.317
20
1.85
0
VERTEX
8
CUT
10
108.717
20
1.85
0
VERTEX
8
CUT
10
109.877
20
1.1411
0
SEQEND
0
LINE
8
CUT
10
102.157
20
0.3589
11
102.7443
21
0
0
LINE
8
CUT
10
109.2897
20
0
11
109.877
21
0.3589
0
POLYLINE
8
CUT
66
1
70
0
0
VERTEX
8
CUT
10
109.966
20
69.2911
0
VERTEX
8
CUT
10
111.126
20
70
0
VERTEX
8
CUT
10
116.526
20
70
0
VERTEX
8
CUT
10
117.686
20
69.2911
0
SEQEND
0
POLYLINE
8
CUT
66
1
70
0
0
VERTEX
8
CUT
10
109.966
20
68.5089
0
VERTEX
8
CUT
10
111.126
20
67.8
0
VERTEX
8
CUT
10
116.526
20
67.8
0
VERTEX
8
CUT
10
117.686
20
68.5089
0
SEQEND
0
POLYLINE
8
CUT
66
1
70
0
0
VERTEX
8
CUT
10
109.966
20
66.3911
0
VERTEX
8
CUT
10
111.126
20
67.1
0
VERTEX
8
CUT
10
116.526
20
67.1
0
VERTEX
8
CUT
10
117.686
20
66.3911
0
SEQEND
0
POLYLINE
8
CUT
66
1
70
0
0
VERTEX
8
CUT
10
109.966
20
65.6089
0
VERTEX
8
CUT
10
111.126
20
64.9
0
VERTEX
8
CUT
10
116.526
20
64.9
0
VERTEX
8
CUT
10
117.686
20
65.6089
0
SEQEND
0
POLYLINE
8
CUT
66
1
70
0
0
VERTEX
8
CUT
10
109.966
20
63.4911
0
VERTEX
8
CUT
10
111.126
20
64.2
0
VERTEX
8
CUT
10
116.526
20
64.2
0
VERTEX
8
CUT
10
117.686
20
63.4911
0
SEQEND
0
POLYLINE
8
CUT
66
1
70
0
0
VERTEX
8
CUT
10
109.966
20
62.7089
0
VERTEX
8
CUT
10
111.126
20
62
0
VERTEX
8
CUT
10
116.526
20
62
0
VERTEX
8
CUT
10
117.686
20
62.7089
0
SEQEND
0
POLYLINE
8
CUT
66
1
70
0
0
VERTEX
8
CUT
10
109.966
20
60.5911
0
VERTEX
8
CUT
10
111.126
20
61.3
0
VERTEX
8
CUT
10
116.526
20
61.3
0
VERTEX
8
CUT
10
117.686
20
60.5911
0
SEQEND
0
POLYLINE
8
CUT
66
1
70
0
0
VERTEX
8
CUT
10
109.966
20
59.8089
0
VERTEX
8
CUT
10
111.126
20
59.1
0
VERTEX
8
CUT
10
116.526
20
59.1
0
VERTEX
8
CUT
10
117.686
20
59.8089
0
SEQEND
0
POLYLINE
8
CUT
66
1
70
0
0
VERTEX
8
CUT
10
109.966
20
57.6911
0
VERTEX
8
CUT
10
111.126
20
58.4
0
VERTEX
8
CUT
10
116.526
20
58.4
0
VERTEX
8
CUT
10
117.686
20
57.6911
0
SEQEND
0
POLYLINE
8
CUT
66
1
70
0
0
VERTEX
8
CUT
10
109.966
20
56.9089
0
VERTEX
8
CUT
10
111.126
20
56.2
0
VERTEX
8
CUT
10
116.526
20
56.2
0
VERTEX
8
CUT
10
117.686
20
56.9089
0
SEQEND
0
POLYLINE
8
CUT
66
1
70
0
0
VERTEX
8
CUT
10
109.966
20
54.7911
0
VERTEX
8
CUT
10
111.126
20
55.5
0
VERTEX
8
CUT
10
116.526
20
55.5
0
VERTEX
8
CUT
10
117.686
20
54.7911
0
SEQEND
0
POLYLINE
8
CUT
66
1
70
0
0
VERTEX
8
CUT
10
109.966
20
54.0089
0
VERTEX
8
CUT
10
111.126
20
53.3
0
VERTEX
8
CUT
10
116.526
20
53.3
0
VERTEX
8
CUT
10
117.686
20
54.0089
0
SEQEND
0
POLYLINE
8
CUT
66
1
70
0
0
VERTEX
8
CUT
10
109.966
20
51.8911
0
VERTEX
8
CUT
10
111.126
20
52.6
0
VERTEX
8
CUT
10
116.526
20
52.6
0
VERTEX
8
CUT
10
117.686
20
51.8911
0
SEQEND
0
POLYLINE
8
CUT
66
1
70
0
0
VERTEX
8
CUT
10
109.966
20
51.1089
0
VERTEX
8
CUT
10
111.126
20
50.4
0
VERTEX
8
CUT
10
116.526
20
50.4
0
VERTEX
8
CUT
10
117.686
20
51.1089
0
SEQEND
0
POLYLINE
8
CUT
66
1
70
0
0
VERTEX
8
CUT
10
109.966
20
48.9911
0
VERTEX
8
CUT
10
111.126
20
49.7
0
VERTEX
8
CUT
10
116.526
20
49.7
0
VERTEX
8
CUT
10
117.686
20
48.9911
0
SEQEND
0
POLYLINE
8
CUT
66
1
70
0
0
VERTEX
8
CUT
10
109.966
20
48.2089
0
VERTEX
8
CUT
10
111.126
20
47.5
0
VERTEX
8
CUT
10
116.526
20
47.5
0
VERTEX
8
CUT
10
117.686
20
48.2089
0
SEQEND
0
POLYLINE
8
CUT
66
1
70
0
0
VERTEX
8
CUT
10
109.966
20
46.0911
0
VERTEX
8
CUT
10
111.126
20
46.8
0
VERTEX
8
CUT
10
116.526
20
46.8
0
VERTEX
8
CUT
10
117.686
20
46.0911
0
SEQEND
0
POLYLINE
8
CUT
66
1
70
0
0
VERTEX
8
CUT
10
109.966
20
45.3089
0
VERTEX
8
CUT
10
111.126
20
44.6
0
VERTEX
8
CUT
10
116.526
20
44.6
0
VERTEX
8
CUT
10
117.686
20
45.3089
0
SEQEND
0
POLYLINE
8
CUT
66
1
70
0
0
VERTEX
8
CUT
10
109.966
20
43.1911
0
VERTEX
8
CUT
10
111.126
20
43.9
0
VERTEX
8
CUT
10
116.526
20
43.9
0
VERTEX
8
CUT
10
117.686
20
43.1911
0
SEQEND
0
POLYLINE
8
CUT
66
1
70
0
0
VERTEX
8
CUT
10
109.966
20
42.4089
0
VERTEX
8
CUT
10
111.126
20
41.7
0
VERTEX
8
CUT
10
116.526
20
41.7
0
VERTEX
8
CUT
10
117.686
20
42.4089
0
SEQEND
0
POLYLINE
8
CUT
66
1
70
0
0
VERTEX
8
CUT
10
109.966
20
40.2911
0
VERTEX
8
CUT
10
111.126
20
41
0
VERTEX
8
CUT
10
116.526
20
41
0
VERTEX
8
CUT
10
117.686
20
40.2911
0
SEQEND
0
POLYLINE
8
CUT
66
1
70
0
0
VERTEX
8
CUT
10
109.966
20
39.5089
0
VERTEX
8
CUT
10
111.126
20
38.8
0
VERTEX
8
CUT
10
116.526
20
38.8
0
VERTEX
8
CUT
10
117.686
20
39.5089
0
SEQEND
0
POLYLINE
8
CUT
66
1
70
0
0
VERTEX
8
CUT
10
109.966
20
37.3911
0
VERTEX
8
CUT
10
111.126
20
38.1
0
VERTEX
8
CUT
10
116.526
20
38.1
0
VERTEX
8
CUT
10
117.686
20
37.3911
0
SEQEND
0
POLYLINE
8
CUT
66
1
70
0
0
VERTEX
8
CUT
10
109.966
20
36.6089
0
VERTEX
8
CUT
10
111.126
20
35.9
0
VERTEX
8
CUT
10
116.526
20
35.9
0
VERTEX
8
CUT
10
117.686
20
36.6089
0
SEQEND
0
POLYLINE
8
CUT
66
1
70
0
0
VERTEX
8
CUT
10
109.966
20
34.4911
0
VERTEX
8
CUT
10
111.126
20
35.2
0
VERTEX
8
CUT
10
116.526
20
35.2
0
VERTEX
8
CUT
10
117.686
20
34.4911
0
SEQEND
0
POLYLINE
8
CUT
66
1
70
0
0
VERTEX
8
CUT
10
109.966
20
33.7089
0
VERTEX
8
CUT
10
111.126
20
33
0
VERTEX
8
CUT
10
116.526
20
33
0
VERTEX
8
CUT
10
117.686
20
33.7089
0
SEQEND
0
POLYLINE
8
CUT
66
1
70
0
0
VERTEX
8
CUT
10
109.966
20
31.5911
0
VERTEX
8
CUT
10
111.126
20
32.3
0
VERTEX
8
CUT
10
116.526
20
32.3
0
VERTEX
8
CUT
10
117.686
20
31.5911
0
SEQEND
0
POLYLINE
8
CUT
66
1
70
0
0
VERTEX
8
CUT
10
109.966
20
30.8089
0
VERTEX
8
CUT
10
111.126
20
30.1
0
VERTEX
8
CUT
10
116.526
20
30.1
0
VERTEX
8
CUT
10
117.686
20
30.8089
0
SEQEND
0
POLYLINE
8
CUT
66
1
70
0
0
VERTEX
8
CUT
10
109.966
20
28.6911
0
VERTEX
8
CUT
10
111.126
20
29.4
0
VERTEX
8
CUT
10
116.526
20
29.4
0
VERTEX
8
CUT
10
117.686
20
28.6911
0
SEQEND
0
POLYLINE
8
CUT
66
1
70
0
0
VERTEX
8
CUT
10
109.966
20
27.9089
0
VERTEX
8
CUT
10
111.126
20
27.2
0
VERTEX
8
CUT
10
116.526
20
27.2
0
VERTEX
8
CUT
10
117.686
20
27.9089
0
SEQEND
0
POLYLINE
8
CUT
66
1
70
0
0
VERTEX
8
CUT
10
109.966
20
25.7911
0
VERTEX
8
CUT
10
111.126
20
26.5
0
VERTEX
8
CUT
10
116.526
20
26.5
0
VERTEX
8
CUT
10
117.686
20
25.7911
0
SEQEND
0
POLYLINE
8
CUT
66
1
70
0
0
VERTEX
8
CUT
10
109.966
20
25.0089
0
VERTEX
8
CUT
10
111.126
20
24.3
0
VERTEX
8
CUT
10
116.526
20
24.3
0
VERTEX
8
CUT
10
117.686
20
25.0089
0
SEQEND
0
POLYLINE
8
CUT
66
1
70
0
0
VERTEX
8
CUT
10
109.966
20
22.8911
0
VERTEX
8
CUT
10
111.126
20
23.6
0
VERTEX
8
CUT
10
116.526
20
23.6
0
VERTEX
8
CUT
10
117.686
20
22.8911
0
SEQEND
0
POLYLINE
8
CUT
66
1
70
0
0
VERTEX
8
CUT
10
109.966
20
22.1089
0
VERTEX
8
CUT
10
111.126
20
21.4
0
VERTEX
8
CUT
10
116.526
20
21.4
0
VERTEX
8
CUT
10
117.686
20
22.1089
0
SEQEND
0
POLYLINE
8
CUT
66
1
70
0
0
VERTEX
8
CUT
10
109.966
20
19.9911
0
VERTEX
8
CUT
10
111.126
20
20.7
0
VERTEX
8
CUT
10
116.526
20
20.7
0
VERTEX
8
CUT
10
117.686
20
19.9911
0
SEQEND
0
POLYLINE
8
CUT
66
1
70
0
0
VERTEX
8
CUT
10
109.966
20
19.2089
0
VERTEX
8
CUT
10
111.126
20
18.5
0
VERTEX
8
CUT
10
116.526
20
18.5
0
VERTEX
8
CUT
10
117.686
20
19.2089
0
SEQEND
0
POLYLINE
8
CUT
66
1
70
0
0
VERTEX
8
CUT
10
109.966
20
17.0911
0
VERTEX
8
CUT
10
111.126
20
17.8
0
VERTEX
8
CUT
10
116.526
20
17.8
0
VERTEX
8
CUT
10
117.686
20
17.0911
0
SEQEND
0
POLYLINE
8
CUT
66
1
70
0
0
VERTEX
8
CUT
10
109.966
20
16.3089
0
VERTEX
8
CUT
10
111.126
20
15.6
0
VERTEX
8
CUT
10
116.526
20
15.6
0
VERTEX
8
CUT
10
117.686
20
16.3089
0
SEQEND
0
POLYLINE
8
CUT
66
1
70
0
0
VERTEX
8
CUT
10
109.966
20
14.1911
0
VERTEX
8
CUT
10
111.126
20
14.9
0
VERTEX
8
CUT
10
116.526
20
14.9
0
VERTEX
8
CUT
10
117.686
20
14.1911
0
SEQEND
0
POLYLINE
8
CUT
66
1
70
0
0
VERTEX
8
CUT
10
109.966
20
13.4089
0
VERTEX
8
CUT
10
111.126
20
12.7
0
VERTEX
8
CUT
10
116.526
20
12.7
0
VERTEX
8
CUT
10
117.686
20
13.4089
0
SEQEND
0
POLYLINE
8
CUT
66
1
70
0
0
VERTEX
8
CUT
10
109.966
20
11.2911
0
VERTEX
8
CUT
10
111.126
20
12
0
VERTEX
8
CUT
10
116.526
20
12
0
VERTEX
8
CUT
10
117.686
20
11.2911
0
SEQEND
0
POLYLINE
8
CUT
66
1
70
0
0
VERTEX
8
CUT
10
109.966
20
10.5089
0
VERTEX
8
CUT
10
111.126
20
9.8
0
VERTEX
8
CUT
10
116.526
20
9.8
0
VERTEX
8
CUT
10
117.686
20
10.5089
0
SEQEND
0
POLYLINE
8
CUT
66
1
70
0
0
VERTEX
8
CUT
10
109.966
20
8.3911
0
VERTEX
8
CUT
10
111.126
20
9.1
0
VERTEX
8
CUT
10
116.526
20
9.1
0
VERTEX
8
CUT
10
117.686
20
8.3911
0
SEQEND
0
POLYLINE
8
CUT
66
1
70
0
0
VERTEX
8
CUT
10
109.966
20
7.6089
0
VERTEX
8
CUT
10
111.126
20
6.9
0
VERTEX
8
CUT
10
116.526
20
6.9
0
VERTEX
8
CUT
10
117.686
20
7.6089
0
SEQEND
0
POLYLINE
8
CUT
66
1
70
0
0
VERTEX
8
CUT
10
109.966
20
5.4911
0
VERTEX
8
CUT
10
111.126
20
6.2
0
VERTEX
8
CUT
10
116.526
20
6.2
0
VERTEX
8
CUT
10
117.686
20
5.4911
0
SEQEND
0
POLYLINE
8
CUT
66
1
70
0
0
VERTEX
8
CUT
10
109.966
20
4.7089
0
VERTEX
8
CUT
10
111.126
20
4
0
VERTEX
8
CUT
10
116.526
20
4
0
VERTEX
8
CUT
10
117.686
20
4.7089
0
SEQEND
0
POLYLINE
8
CUT
66
1
70
0
0
VERTEX
8
CUT
10
109.966
20
2.5911
0
VERTEX
8
CUT
10
111.126
20
3.3
0
VERTEX
8
CUT
10
116.526
20
3.3
0
VERTEX
8
CUT
10
117.686
20
2.5911
0
SEQEND
0
POLYLINE
8
CUT
66
1
70
0
0
VERTEX
8
CUT
10
109.966
20
1.8089
0
VERTEX
8
CUT
10
111.126
20
1.1
0
VERTEX
8
CUT
10
116.526
20
1.1
0
VERTEX
8
CUT
10
117.686
20
1.8089
0
SEQEND
0
POLYLINE
8
CUT
66
1
70
0
0
VERTEX
8
CUT
10
110.4715
20
0
0
VERTEX
8
CUT
10
111.126
20
0.4
0
VERTEX
8
CUT
10
116.526
20
0.4
0
VERTEX
8
CUT
10
117.1805
20
0
0
SEQEND
0
POLYLINE
8
CUT
66
1
70
0
0
VERTEX
8
CUT
10
117.775
20
69.9589
0
VERTEX
8
CUT
10
118.935
20
69.25
0
VERTEX
8
CUT
10
120
20
69.25
0
SEQEND
0
POLYLINE
8
CUT
66
1
70
0
0
VERTEX
8
CUT
10
117.775
20
67.8411
0
VERTEX
8
CUT
10
118.935
20
68.55
0
VERTEX
8
CUT
10
120
20
68.55
0
SEQEND
0
POLYLINE
8
CUT
66
1
70
0
0
VERTEX
8
CUT
10
117.775
20
67.0589
0
VERTEX
8
CUT
10
118.935
20
66.35
0
VERTEX
8
CUT
10
120
20
66.35
0
SEQEND
0
POLYLINE
8
CUT
66
1
70
0
0
VERTEX
8
CUT
10
117.775
20
64.9411
0
VERTEX
8
CUT
10
118.935
20
65.65
0
VERTEX
8
CUT
10
120
20
65.65
0
SEQEND
0
POLYLINE
8
CUT
66
1
70
0
0
VERTEX
8
CUT
10
117.775
20
64.1589
0
VERTEX
8
CUT
10
118.935
20
63.45
0
VERTEX
8
CUT
10
120
20
63.45
0
SEQEND
0
POLYLINE
8
CUT
66
1
70
0
0
VERTEX
8
CUT
10
117.775
20
62.0411
0
VERTEX
8
CUT
10
118.935
20
62.75
0
VERTEX
8
CUT
10
120
20
62.75
0
SEQEND
0
POLYLINE
8
CUT
66
1
70
0
0
VERTEX
8
CUT
10
117.775
20
61.2589
0
VERTEX
8
CUT
10
118.935
20
60.55
0
VERTEX
8
CUT
10
120
20
60.55
0
SEQEND
0
POLYLINE
8
CUT
66
1
70
0
0
VERTEX
8
CUT
10
117.775
20
59.1411
0
VERTEX
8
CUT
10
118.935
20
59.85
0
VERTEX
8
CUT
10
120
20
59.85
0
SEQEND
0
POLYLINE
8
CUT
66
1
70
0
0
VERTEX
8
CUT
10
117.775
20
58.3589
0
VERTEX
8
CUT
10
118.935
20
57.65
0
VERTEX
8
CUT
10
120
20
57.65
0
SEQEND
0
POLYLINE
8
CUT
66
1
70
0
0
VERTEX
8
CUT
10
117.775
20
56.2411
0
VERTEX
8
CUT
10
118.935
20
56.95
0
VERTEX
8
CUT
10
120
20
56.95
0
SEQEND
0
POLYLINE
8
CUT
66
1
70
0
0
VERTEX
8
CUT
10
117.775
20
55.4589
0
VERTEX
8
CUT
10
118.935
20
54.75
0
VERTEX
8
CUT
10
120
20
54.75
0
SEQEND
0
POLYLINE
8
CUT
66
1
70
0
0
VERTEX
8
CUT
10
117.775
20
53.3411
0
VERTEX
8
CUT
10
118.935
20
54.05
0
VERTEX
8
CUT
10
120
20
54.05
0
SEQEND
0
POLYLINE
8
CUT
66
1
70
0
0
VERTEX
8
CUT
10
117.775
20
52.5589
0
VERTEX
8
CUT
10
118.935
20
51.85
0
VERTEX
8
CUT
10
120
20
51.85
0
SEQEND
0
POLYLINE
8
CUT
66
1
70
0
0
VERTEX
8
CUT
10
117.775
20
50.4411
0
VERTEX
8
CUT
10
118.935
20
51.15
0
VERTEX
8
CUT
10
120
20
51.15
0
SEQEND
0
POLYLINE
8
CUT
66
1
70
0
0
VERTEX
8
CUT
10
117.775
20
49.6589
0
VERTEX
8
CUT
10
118.935
20
48.95
0
VERTEX
8
CUT
10
120
20
48.95
0
SEQEND
0
POLYLINE
8
CUT
66
1
70
0
0
VERTEX
8
CUT
10
117.775
20
47.5411
0
VERTEX
8
CUT
10
118.935
20
48.25
0
VERTEX
8
CUT
10
120
20
48.25
0
SEQEND
0
POLYLINE
8
CUT
66
1
70
0
0
VERTEX
8
CUT
10
117.775
20
46.7589
0
VERTEX
8
CUT
10
118.935
20
46.05
0
VERTEX
8
CUT
10
120
20
46.05
0
SEQEND
0
POLYLINE
8
CUT
66
1
70
0
0
VERTEX
8
CUT
10
117.775
20
44.6411
0
VERTEX
8
CUT
10
118.935
20
45.35
0
VERTEX
8
CUT
10
120
20
45.35
0
SEQEND
0
POLYLINE
8
CUT
66
1
70
0
0
VERTEX
8
CUT
10
117.775
20
43.8589
0
VERTEX
8
CUT
10
118.935
20
43.15
0
VERTEX
8
CUT
10
120
20
43.15
0
SEQEND
0
POLYLINE
8
CUT
66
1
70
0
0
VERTEX
8
CUT
10
117.775
20
41.7411
0
VERTEX
8
CUT
10
118.935
20
42.45
0
VERTEX
8
CUT
10
120
20
42.45
0
SEQEND
0
POLYLINE
8
CUT
66
1
70
0
0
VERTEX
8
CUT
10
117.775
20
40.9589
0
VERTEX
8
CUT
10
118.935
20
40.25
0
VERTEX
8
CUT
10
120
20
40.25
0
SEQEND
0
POLYLINE
8
CUT
66
1
70
0
0
VERTEX
8
CUT
10
117.775
20
38.8411
0
VERTEX
8
CUT
10
118.935
20
39.55
0
VERTEX
8
CUT
10
120
20
39.55
0
SEQEND
0
POLYLINE
8
CUT
66
1
70
0
0
VERTEX
8
CUT
10
117.775
20
38.0589
0
VERTEX
8
CUT
10
118.935
20
37.35
0
VERTEX
8
CUT
10
120
20
37.35
0
SEQEND
0
POLYLINE
8
CUT
66
1
70
0
0
VERTEX
8
CUT
10
117.775
20
35.9411
0
VERTEX
8
CUT
10
118.935
20
36.65
0
VERTEX
8
CUT
10
120
20
36.65
0
SEQEND
0
POLYLINE
8
CUT
66
1
70
0
0
VERTEX
8
CUT
10
117.775
20
35.1589
0
VERTEX
8
CUT
10
118.935
20
34.45
0
VERTEX
8
CUT
10
120
20
34.45
0
SEQEND
0
POLYLINE
8
CUT
66
1
70
0
0
VERTEX
8
CUT
10
117.775
20
33.0411
0
VERTEX
8
CUT
10
118.935
20
33.75
0
VERTEX
8
CUT
10
120
20
33.75
0
SEQEND
0
POLYLINE
8
CUT
66
1
70
0
0
VERTEX
8
CUT
10
117.775
20
32.2589
0
VERTEX
8
CUT
10
118.935
20
31.55
0
VERTEX
8
CUT
10
120
20
31.55
0
SEQEND
0
POLYLINE
8
CUT
66
1
70
0
0
VERTEX
8
CUT
10
117.775
20
30.1411
0
VERTEX
8
CUT
10
118.935
20
30.85
0
VERTEX
8
CUT
10
120
20
30.85
0
SEQEND
0
POLYLINE
8
CUT
66
1
70
0
0
VERTEX
8
CUT
10
117.775
20
29.3589
0
VERTEX
8
CUT
10
118.935
20
28.65
0
VERTEX
8
CUT
10
120
20
28.65
0
SEQEND
0
POLYLINE
8
CUT
66
1
70
0
0
VERTEX
8
CUT
10
117.775
20
27.2411
0
VERTEX
8
CUT
10
118.935
20
27.95
0
VERTEX
8
CUT
10
120
20
27.95
0
SEQEND
0
POLYLINE
8
CUT
66
1
70
0
0
VERTEX
8
CUT
10
117.775
20
26.4589
0
VERTEX
8
CUT
10
118.935
20
25.75
0
VERTEX
8
CUT
10
120
20
25.75
0
SEQEND
0
POLYLINE
8
CUT
66
1
70
0
0
VERTEX
8
CUT
10
117.775
20
24.3411
0
VERTEX
8
CUT
10
118.935
20
25.05
0
VERTEX
8
CUT
10
120
20
25.05
0
SEQEND
0
POLYLINE
8
CUT
66
1
70
0
0
VERTEX
8
CUT
10
117.775
20
23.5589
0
VERTEX
8
CUT
10
118.935
20
22.85
0
VERTEX
8
CUT
10
120
20
22.85
0
SEQEND
0
POLYLINE
8
CUT
66
1
70
0
0
VERTEX
8
CUT
10
117.775
20
21.4411
0
VERTEX
8
CUT
10
118.935
20
22.15
0
VERTEX
8
CUT
10
120
20
22.15
0
SEQEND
0
POLYLINE
8
CUT
66
1
70
0
0
VERTEX
8
CUT
10
117.775
20
20.6589
0
VERTEX
8
CUT
10
118.935
20
19.95
0
VERTEX
8
CUT
10
120
20
19.95
0
SEQEND
0
POLYLINE
8
CUT
66
1
70
0
0
VERTEX
8
CUT
10
117.775
20
18.5411
0
VERTEX
8
CUT
10
118.935
20
19.25
0
VERTEX
8
CUT
10
120
20
19.25
0
SEQEND
0
POLYLINE
8
CUT
66
1
70
0
0
VERTEX
8
CUT
10
117.775
20
17.7589
0
VERTEX
8
CUT
10
118.935
20
17.05
0
VERTEX
8
CUT
10
120
20
17.05
0
SEQEND
0
POLYLINE
8
CUT
66
1
70
0
0
VERTEX
8
CUT
10
117.775
20
15.6411
0
VERTEX
8
CUT
10
118.935
20
16.35
0
VERTEX
8
CUT
10
120
20
16.35
0
SEQEND
0
POLYLINE
8
CUT
66
1
70
0
0
VERTEX
8
CUT
10
117.775
20
14.8589
0
VERTEX
8
CUT
10
118.935
20
14.15
0
VERTEX
8
CUT
10
120
20
14.15
0
SEQEND
0
POLYLINE
8
CUT
66
1
70
0
0
VERTEX
8
CUT
10
117.775
20
12.7411
0
VERTEX
8
CUT
10
118.935
20
13.45
0
VERTEX
8
CUT
10
120
20
13.45
0
SEQEND
0
POLYLINE
8
CUT
66
1
70
0
0
VERTEX
8
CUT
10
117.775
20
11.9589
0
VERTEX
8
CUT
10
118.935
20
11.25
0
VERTEX
8
CUT
10
120
20
11.25
0
SEQEND
0
POLYLINE
8
CUT
66
1
70
0
0
VERTEX
8
CUT
10
117.775
20
9.8411
0
VERTEX
8
CUT
10
118.935
20
10.55
0
VERTEX
8
CUT
10
120
20
10.55
0
SEQEND
0
POLYLINE
8
CUT
66
1
70
0
0
VERTEX
8
CUT
10
117.775
20
9.0589
0
VERTEX
8
CUT
10
118.935
20
8.35
0
VERTEX
8
CUT
10
120
20
8.35
0
SEQEND
0
POLYLINE
8
CUT
66
1
70
0
0
VERTEX
8
CUT
10
117.775
20
6.9411
0
VERTEX
8
CUT
10
118.935
20
7.65
0
VERTEX
8
CUT
10
120
20
7.65
0
SEQEND
0
POLYLINE
8
CUT
66
1
70
0
0
VERTEX
8
CUT
10
117.775
20
6.1589
0
VERTEX
8
CUT
10
118.935
20
5.45
0
VERTEX
8
CUT
10
120
20
5.45
0
SEQEND
0
POLYLINE
8
CUT
66
1
70
0
0
VERTEX
8
CUT
10
117.775
20
4.0411
0
VERTEX
8
CUT
10
118.935
20
4.75
0
VERTEX
8
CUT
10
120
20
4.75
0
SEQEND
0
POLYLINE
8
CUT
66
1
70
0
0
VERTEX
8
CUT
10
117.775
20
3.2589
0
VERTEX
8
CUT
10
118.935
20
2.55
0
VERTEX
8
CUT
10
120
20
2.55
0
SEQEND
0
POLYLINE
8
CUT
66
1
70
0
0
VERTEX
8
CUT
10
117.775
20
1.1411
0
VERTEX
8
CUT
10
118.935
20
1.85
0
VERTEX
8
CUT
10
120
20
1.85
0
SEQEND
0
LINE
8
CUT
10
117.775
20
0.3589
11
118.3623
21
0
0
POLYLINE
8
CUT
66
1
70
0
0
VERTEX
8
CUT
10
0
20
70
0
VERTEX
8
CUT
10
120
20
70
0
VERTEX
8
CUT
10
120
20
0
0
VERTEX
8
CUT
10
0
20
0
0
VERTEX
8
CUT
10
0
20
70
0
SEQEND
0
ENDSEC
0
EOF
