0
SECTION
2
HEADER
9
$ACADVER
1
AC1009
9
$INSUNITS
70
4
0
ENDSEC
0
SECTION
2
TABLES
0
TABLE
2
LAYER
70
1
0
LAYER
2
CUT
70
0
62
1
6
CONTINUOUS
0
ENDTAB
0
ENDSEC
0
SECTION
2
ENTITIES
0
POLYLINE
8
CUT
66
1
70
0
0
VERTEX
8
CUT
10
14.5885
20
70
0
VERTEX
8
CUT
10
14.5885
20
62.7321
0
VERTEX
8
CUT
10
2
20
70
0
VERTEX
8
CUT
10
2
20
70
0
SEQEND
0
POLYLINE
8
CUT
66
1
70
0
0
VERTEX
8
CUT
10
12.7224
20
64.9641
0
VERTEX
8
CUT
10
4
20
70
0
VERTEX
8
CUT
10
4
20
70
0
SEQEND
0
LINE
8
CUT
10
13.5885
20
70
11
13.5885
21
65.4641
0
POLYLINE
8
CUT
66
1
70
0
0
VERTEX
8
CUT
10
12.5885
20
70
0
VERTEX
8
CUT
10
12.5885
20
66.1962
0
VERTEX
8
CUT
10
6.866
20
69.5
0
SEQEND
0
POLYLINE
8
CUT
66
1
70
0
0
VERTEX
8
CUT
10
11.5885
20
70
0
VERTEX
8
CUT
10
11.5885
20
67.9282
0
VERTEX
8
CUT
10
8
20
70
0
VERTEX
8
CUT
10
8
20
70
0
SEQEND
0
LINE
8
CUT
10
0
20
69
11
0
21
53
0
LINE
8
CUT
10
0.866
20
69.5
11
14.7224
21
61.5
0
LINE
8
CUT
10
0.866
20
52.5
11
14.7224
21
60.5
0
POLYLINE
8
CUT
66
1
70
0
0
VERTEX
8
CUT
10
1
20
67.2679
0
VERTEX
8
CUT
10
1
20
53.7321
0
VERTEX
8
CUT
10
13.5885
20
61
0
VERTEX
8
CUT
10
1.866
20
67.7679
0
SEQEND
0
POLYLINE
8
CUT
66
1
70
0
0
VERTEX
8
CUT
10
2.866
20
55.9641
0
VERTEX
8
CUT
10
11.5885
20
61
0
VERTEX
8
CUT
10
2
20
66.5359
0
VERTEX
8
CUT
10
2
20
56.4641
0
SEQEND
0
POLYLINE
8
CUT
66
1
70
0
0
VERTEX
8
CUT
10
8.7224
20
61.5
0
VERTEX
8
CUT
10
3
20
64.8038
0
VERTEX
8
CUT
10
3
20
57.1962
0
VERTEX
8
CUT
10
8.7224
20
60.5
0
SEQEND
0
POLYLINE
8
CUT
66
1
70
0
0
VERTEX
8
CUT
10
4
20
62.0718
0
VERTEX
8
CUT
10
4
20
58.9282
0
VERTEX
8
CUT
10
7.5885
20
61
0
VERTEX
8
CUT
10
4.866
20
62.5718
0
SEQEND
0
POLYLINE
8
CUT
66
1
70
0
0
VERTEX
8
CUT
10
14.5885
20
58.2679
0
VERTEX
8
CUT
10
14.5885
20
44.7321
0
VERTEX
8
CUT
10
2
20
52
0
VERTEX
8
CUT
10
13.7224
20
58.7679
0
SEQEND
0
POLYLINE
8
CUT
66
1
70
0
0
VERTEX
8
CUT
10
12.7224
20
46.9641
0
VERTEX
8
CUT
10
4
20
52
0
VERTEX
8
CUT
10
13.5885
20
57.5359
0
VERTEX
8
CUT
10
13.5885
20
47.4641
0
SEQEND
0
POLYLINE
8
CUT
66
1
70
0
0
VERTEX
8
CUT
10
6.866
20
52.5
0
VERTEX
8
CUT
10
12.5885
20
55.8038
0
VERTEX
8
CUT
10
12.5885
20
48.1962
0
VERTEX
8
CUT
10
6.866
20
51.5
0
SEQEND
0
POLYLINE
8
CUT
66
1
70
0
0
VERTEX
8
CUT
10
11.5885
20
53.0718
0
VERTEX
8
CUT
10
11.5885
20
49.9282
0
VERTEX
8
CUT
10
8
20
52
0
VERTEX
8
CUT
10
10.7224
20
53.5718
0
SEQEND
0
LINE
8
CUT
10
0
20
51
11
0
21
35
0
LINE
8
CUT
10
0.866
20
51.5
11
14.7224
21
43.5
0
LINE
8
CUT
10
0.866
20
34.5
11
14.7224
21
42.5
0
POLYLINE
8
CUT
66
1
70
0
0
VERTEX
8
CUT
10
1
20
49.2679
0
VERTEX
8
CUT
10
1
20
35.7321
0
VERTEX
8
CUT
10
13.5885
20
43
0
VERTEX
8
CUT
10
1.866
20
49.7679
0
SEQEND
0
POLYLINE
8
CUT
66
1
70
0
0
VERTEX
8
CUT
10
2.866
20
37.9641
0
VERTEX
8
CUT
10
11.5885
20
43
0
VERTEX
8
CUT
10
2
20
48.5359
0
VERTEX
8
CUT
10
2
20
38.4641
0
SEQEND
0
POLYLINE
8
CUT
66
1
70
0
0
VERTEX
8
CUT
10
8.7224
20
43.5
0
VERTEX
8
CUT
10
3
20
46.8038
0
VERTEX
8
CUT
10
3
20
39.1962
0
VERTEX
8
CUT
10
8.7224
20
42.5
0
SEQEND
0
POLYLINE
8
CUT
66
1
70
0
0
VERTEX
8
CUT
10
4
20
44.0718
0
VERTEX
8
CUT
10
4
20
40.9282
0
VERTEX
8
CUT
10
7.5885
20
43
0
VERTEX
8
CUT
10
4.866
20
44.5718
0
SEQEND
0
POLYLINE
8
CUT
66
1
70
0
0
VERTEX
8
CUT
10
14.5885
20
40.2679
0
VERTEX
8
CUT
10
14.5885
20
26.7321
0
VERTEX
8
CUT
10
2
20
34
0
VERTEX
8
CUT
10
13.7224
20
40.7679
0
SEQEND
0
POLYLINE
8
CUT
66
1
70
0
0
VERTEX
8
CUT
10
12.7224
20
28.9641
0
VERTEX
8
CUT
10
4
20
34
0
VERTEX
8
CUT
10
13.5885
20
39.5359
0
VERTEX
8
CUT
10
13.5885
20
29.4641
0
SEQEND
0
POLYLINE
8
CUT
66
1
70
0
0
VERTEX
8
CUT
10
6.866
20
34.5
0
VERTEX
8
CUT
10
12.5885
20
37.8038
0
VERTEX
8
CUT
10
12.5885
20
30.1962
0
VERTEX
8
CUT
10
6.866
20
33.5
0
SEQEND
0
POLYLINE
8
CUT
66
1
70
0
0
VERTEX
8
CUT
10
11.5885
20
35.0718
0
VERTEX
8
CUT
10
11.5885
20
31.9282
0
VERTEX
8
CUT
10
8
20
34
0
VERTEX
8
CUT
10
10.7224
20
35.5718
0
SEQEND
0
LINE
8
CUT
10
0
20
33
11
0
21
17
0
LINE
8
CUT
10
0.866
20
33.5
11
14.7224
21
25.5
0
LINE
8
CUT
10
0.866
20
16.5
11
14.7224
21
24.5
0
POLYLINE
8
CUT
66
1
70
0
0
VERTEX
8
CUT
10
1
20
31.2679
0
VERTEX
8
CUT
10
1
20
17.7321
0
VERTEX
8
CUT
10
13.5885
20
25
0
VERTEX
8
CUT
10
1.866
20
31.7679
0
SEQEND
0
POLYLINE
8
CUT
66
1
70
0
0
VERTEX
8
CUT
10
2.866
20
19.9641
0
VERTEX
8
CUT
10
11.5885
20
25
0
VERTEX
8
CUT
10
2
20
30.5359
0
VERTEX
8
CUT
10
2
20
20.4641
0
SEQEND
0
POLYLINE
8
CUT
66
1
70
0
0
VERTEX
8
CUT
10
8.7224
20
25.5
0
VERTEX
8
CUT
10
3
20
28.8038
0
VERTEX
8
CUT
10
3
20
21.1962
0
VERTEX
8
CUT
10
8.7224
20
24.5
0
SEQEND
0
POLYLINE
8
CUT
66
1
70
0
0
VERTEX
8
CUT
10
4
20
26.0718
0
VERTEX
8
CUT
10
4
20
22.9282
0
VERTEX
8
CUT
10
7.5885
20
25
0
VERTEX
8
CUT
10
4.866
20
26.5718
0
SEQEND
0
POLYLINE
8
CUT
66
1
70
0
0
VERTEX
8
CUT
10
14.5885
20
22.2679
0
VERTEX
8
CUT
10
14.5885
20
8.7321
0
VERTEX
8
CUT
10
2
20
16
0
VERTEX
8
CUT
10
13.7224
20
22.7679
0
SEQEND
0
POLYLINE
8
CUT
66
1
70
0
0
VERTEX
8
CUT
10
12.7224
20
10.9641
0
VERTEX
8
CUT
10
4
20
16
0
VERTEX
8
CUT
10
13.5885
20
21.5359
0
VERTEX
8
CUT
10
13.5885
20
11.4641
0
SEQEND
0
POLYLINE
8
CUT
66
1
70
0
0
VERTEX
8
CUT
10
6.866
20
16.5
0
VERTEX
8
CUT
10
12.5885
20
19.8038
0
VERTEX
8
CUT
10
12.5885
20
12.1962
0
VERTEX
8
CUT
10
6.866
20
15.5
0
SEQEND
0
POLYLINE
8
CUT
66
1
70
0
0
VERTEX
8
CUT
10
11.5885
20
17.0718
0
VERTEX
8
CUT
10
11.5885
20
13.9282
0
VERTEX
8
CUT
10
8
20
16
0
VERTEX
8
CUT
10
10.7224
20
17.5718
0
SEQEND
0
LINE
8
CUT
10
0
20
15
11
0
21
0
0
LINE
8
CUT
10
0.866
20
15.5
11
14.7224
21
7.5
0
LINE
8
CUT
10
3.4641
20
0
11
14.7224
21
6.5
0
LINE
8
CUT
10
1
20
13.2679
11
1
21
0
0
POLYLINE
8
CUT
66
1
70
0
0
VERTEX
8
CUT
10
1.4641
20
0
0
VERTEX
8
CUT
10
13.5885
20
7
0
VERTEX
8
CUT
10
1.866
20
13.7679
0
SEQEND
0
POLYLINE
8
CUT
66
1
70
0
0
VERTEX
8
CUT
10
2.866
20
1.9641
0
VERTEX
8
CUT
10
11.5885
20
7
0
VERTEX
8
CUT
10
2
20
12.5359
0
VERTEX
8
CUT
10
2
20
2.4641
0
SEQEND
0
POLYLINE
8
CUT
66
1
70
0
0
VERTEX
8
CUT
10
8.7224
20
7.5
0
VERTEX
8
CUT
10
3
20
10.8038
0
VERTEX
8
CUT
10
3
20
3.1962
0
VERTEX
8
CUT
10
8.7224
20
6.5
0
SEQEND
0
POLYLINE
8
CUT
66
1
70
0
0
VERTEX
8
CUT
10
4
20
8.0718
0
VERTEX
8
CUT
10
4
20
4.9282
0
VERTEX
8
CUT
10
7.5885
20
7
0
VERTEX
8
CUT
10
4.866
20
8.5718
0
SEQEND
0
LINE
8
CUT
10
14.5885
20
4.2679
11
14.5885
21
0
0
LINE
8
CUT
10
5.4641
20
0
11
13.7224
21
4.7679
0
POLYLINE
8
CUT
66
1
70
0
0
VERTEX
8
CUT
10
7.4641
20
0
0
VERTEX
8
CUT
10
13.5885
20
3.5359
0
VERTEX
8
CUT
10
13.5885
20
0
0
SEQEND
0
POLYLINE
8
CUT
66
1
70
0
0
VERTEX
8
CUT
10
9.4641
20
0
0
VERTEX
8
CUT
10
12.5885
20
1.8038
0
VERTEX
8
CUT
10
12.5885
20
0
0
SEQEND
0
LINE
8
CUT
10
15.5885
20
70
11
15.5885
21
62
0
LINE
8
CUT
10
16.4545
20
61.5
11
30.3109
21
69.5
0
POLYLINE
8
CUT
66
1
70
0
0
VERTEX
8
CUT
10
16.5885
20
70
0
VERTEX
8
CUT
10
16.5885
20
62.7321
0
VERTEX
8
CUT
10
29.1769
20
70
0
VERTEX
8
CUT
10
29.1769
20
70
0
SEQEND
0
POLYLINE
8
CUT
66
1
70
0
0
VERTEX
8
CUT
10
18.4545
20
64.9641
0
VERTEX
8
CUT
10
27.1769
20
70
0
VERTEX
8
CUT
10
27.1769
20
70
0
SEQEND
0
LINE
8
CUT
10
17.5885
20
70
11
17.5885
21
65.4641
0
POLYLINE
8
CUT
66
1
70
0
0
VERTEX
8
CUT
10
18.5885
20
70
0
VERTEX
8
CUT
10
18.5885
20
66.1962
0
VERTEX
8
CUT
10
24.3109
20
69.5
0
SEQEND
0
POLYLINE
8
CUT
66
1
70
0
0
VERTEX
8
CUT
10
19.5885
20
70
0
VERTEX
8
CUT
10
19.5885
20
67.9282
0
VERTEX
8
CUT
10
23.1769
20
70
0
VERTEX
8
CUT
10
23.1769
20
70
0
SEQEND
0
POLYLINE
8
CUT
66
1
70
0
0
VERTEX
8
CUT
10
30.1769
20
67.2679
0
VERTEX
8
CUT
10
30.1769
20
53.7321
0
VERTEX
8
CUT
10
17.5885
20
61
0
VERTEX
8
CUT
10
29.3109
20
67.7679
0
SEQEND
0
POLYLINE
8
CUT
66
1
70
0
0
VERTEX
8
CUT
10
28.3109
20
55.9641
0
VERTEX
8
CUT
10
19.5885
20
61
0
VERTEX
8
CUT
10
29.1769
20
66.5359
0
VERTEX
8
CUT
10
29.1769
20
56.4641
0
SEQEND
0
POLYLINE
8
CUT
66
1
70
0
0
VERTEX
8
CUT
10
22.4545
20
61.5
0
VERTEX
8
CUT
10
28.1769
20
64.8038
0
VERTEX
8
CUT
10
28.1769
20
57.1962
0
VERTEX
8
CUT
10
22.4545
20
60.5
0
SEQEND
0
POLYLINE
8
CUT
66
1
70
0
0
VERTEX
8
CUT
10
27.1769
20
62.0718
0
VERTEX
8
CUT
10
27.1769
20
58.9282
0
VERTEX
8
CUT
10
23.5885
20
61
0
VERTEX
8
CUT
10
26.3109
20
62.5718
0
SEQEND
0
LINE
8
CUT
10
15.5885
20
60
11
15.5885
21
44
0
LINE
8
CUT
10
16.4545
20
60.5
11
30.3109
21
52.5
0
LINE
8
CUT
10
16.4545
20
43.5
11
30.3109
21
51.5
0
POLYLINE
8
CUT
66
1
70
0
0
VERTEX
8
CUT
10
16.5885
20
58.2679
0
VERTEX
8
CUT
10
16.5885
20
44.7321
0
VERTEX
8
CUT
10
29.1769
20
52
0
VERTEX
8
CUT
10
17.4545
20
58.7679
0
SEQEND
0
POLYLINE
8
CUT
66
1
70
0
0
VERTEX
8
CUT
10
18.4545
20
46.9641
0
VERTEX
8
CUT
10
27.1769
20
52
0
VERTEX
8
CUT
10
17.5885
20
57.5359
0
VERTEX
8
CUT
10
17.5885
20
47.4641
0
SEQEND
0
POLYLINE
8
CUT
66
1
70
0
0
VERTEX
8
CUT
10
24.3109
20
52.5
0
VERTEX
8
CUT
10
18.5885
20
55.8038
0
VERTEX
8
CUT
10
18.5885
20
48.1962
0
VERTEX
8
CUT
10
24.3109
20
51.5
0
SEQEND
0
POLYLINE
8
CUT
66
1
70
0
0
VERTEX
8
CUT
10
19.5885
20
53.0718
0
VERTEX
8
CUT
10
19.5885
20
49.9282
0
VERTEX
8
CUT
10
23.1769
20
52
0
VERTEX
8
CUT
10
20.4545
20
53.5718
0
SEQEND
0
POLYLINE
8
CUT
66
1
70
0
0
VERTEX
8
CUT
10
30.1769
20
49.2679
0
VERTEX
8
CUT
10
30.1769
20
35.7321
0
VERTEX
8
CUT
10
17.5885
20
43
0
VERTEX
8
CUT
10
29.3109
20
49.7679
0
SEQEND
0
POLYLINE
8
CUT
66
1
70
0
0
VERTEX
8
CUT
10
28.3109
20
37.9641
0
VERTEX
8
CUT
10
19.5885
20
43
0
VERTEX
8
CUT
10
29.1769
20
48.5359
0
VERTEX
8
CUT
10
29.1769
20
38.4641
0
SEQEND
0
POLYLINE
8
CUT
66
1
70
0
0
VERTEX
8
CUT
10
22.4545
20
43.5
0
VERTEX
8
CUT
10
28.1769
20
46.8038
0
VERTEX
8
CUT
10
28.1769
20
39.1962
0
VERTEX
8
CUT
10
22.4545
20
42.5
0
SEQEND
0
POLYLINE
8
CUT
66
1
70
0
0
VERTEX
8
CUT
10
27.1769
20
44.0718
0
VERTEX
8
CUT
10
27.1769
20
40.9282
0
VERTEX
8
CUT
10
23.5885
20
43
0
VERTEX
8
CUT
10
26.3109
20
44.5718
0
SEQEND
0
LINE
8
CUT
10
15.5885
20
42
11
15.5885
21
26
0
LINE
8
CUT
10
16.4545
20
42.5
11
30.3109
21
34.5
0
LINE
8
CUT
10
16.4545
20
25.5
11
30.3109
21
33.5
0
POLYLINE
8
CUT
66
1
70
0
0
VERTEX
8
CUT
10
16.5885
20
40.2679
0
VERTEX
8
CUT
10
16.5885
20
26.7321
0
VERTEX
8
CUT
10
29.1769
20
34
0
VERTEX
8
CUT
10
17.4545
20
40.7679
0
SEQEND
0
POLYLINE
8
CUT
66
1
70
0
0
VERTEX
8
CUT
10
18.4545
20
28.9641
0
VERTEX
8
CUT
10
27.1769
20
34
0
VERTEX
8
CUT
10
17.5885
20
39.5359
0
VERTEX
8
CUT
10
17.5885
20
29.4641
0
SEQEND
0
POLYLINE
8
CUT
66
1
70
0
0
VERTEX
8
CUT
10
24.3109
20
34.5
0
VERTEX
8
CUT
10
18.5885
20
37.8038
0
VERTEX
8
CUT
10
18.5885
20
30.1962
0
VERTEX
8
CUT
10
24.3109
20
33.5
0
SEQEND
0
POLYLINE
8
CUT
66
1
70
0
0
VERTEX
8
CUT
10
19.5885
20
35.0718
0
VERTEX
8
CUT
10
19.5885
20
31.9282
0
VERTEX
8
CUT
10
23.1769
20
34
0
VERTEX
8
CUT
10
20.4545
20
35.5718
0
SEQEND
0
POLYLINE
8
CUT
66
1
70
0
0
VERTEX
8
CUT
10
30.1769
20
31.2679
0
VERTEX
8
CUT
10
30.1769
20
17.7321
0
VERTEX
8
CUT
10
17.5885
20
25
0
VERTEX
8
CUT
10
29.3109
20
31.7679
0
SEQEND
0
POLYLINE
8
CUT
66
1
70
0
0
VERTEX
8
CUT
10
28.3109
20
19.9641
0
VERTEX
8
CUT
10
19.5885
20
25
0
VERTEX
8
CUT
10
29.1769
20
30.5359
0
VERTEX
8
CUT
10
29.1769
20
20.4641
0
SEQEND
0
POLYLINE
8
CUT
66
1
70
0
0
VERTEX
8
CUT
10
22.4545
20
25.5
0
VERTEX
8
CUT
10
28.1769
20
28.8038
0
VERTEX
8
CUT
10
28.1769
20
21.1962
0
VERTEX
8
CUT
10
22.4545
20
24.5
0
SEQEND
0
POLYLINE
8
CUT
66
1
70
0
0
VERTEX
8
CUT
10
27.1769
20
26.0718
0
VERTEX
8
CUT
10
27.1769
20
22.9282
0
VERTEX
8
CUT
10
23.5885
20
25
0
VERTEX
8
CUT
10
26.3109
20
26.5718
0
SEQEND
0
LINE
8
CUT
10
15.5885
20
24
11
15.5885
21
8
0
LINE
8
CUT
10
16.4545
20
24.5
11
30.3109
21
16.5
0
LINE
8
CUT
10
16.4545
20
7.5
11
30.3109
21
15.5
0
POLYLINE
8
CUT
66
1
70
0
0
VERTEX
8
CUT
10
16.5885
20
22.2679
0
VERTEX
8
CUT
10
16.5885
20
8.7321
0
VERTEX
8
CUT
10
29.1769
20
16
0
VERTEX
8
CUT
10
17.4545
20
22.7679
0
SEQEND
0
POLYLINE
8
CUT
66
1
70
0
0
VERTEX
8
CUT
10
18.4545
20
10.9641
0
VERTEX
8
CUT
10
27.1769
20
16
0
VERTEX
8
CUT
10
17.5885
20
21.5359
0
VERTEX
8
CUT
10
17.5885
20
11.4641
0
SEQEND
0
POLYLINE
8
CUT
66
1
70
0
0
VERTEX
8
CUT
10
24.3109
20
16.5
0
VERTEX
8
CUT
10
18.5885
20
19.8038
0
VERTEX
8
CUT
10
18.5885
20
12.1962
0
VERTEX
8
CUT
10
24.3109
20
15.5
0
SEQEND
0
POLYLINE
8
CUT
66
1
70
0
0
VERTEX
8
CUT
10
19.5885
20
17.0718
0
VERTEX
8
CUT
10
19.5885
20
13.9282
0
VERTEX
8
CUT
10
23.1769
20
16
0
VERTEX
8
CUT
10
20.4545
20
17.5718
0
SEQEND
0
LINE
8
CUT
10
30.1769
20
13.2679
11
30.1769
21
0
0
POLYLINE
8
CUT
66
1
70
0
0
VERTEX
8
CUT
10
29.7128
20
0
0
VERTEX
8
CUT
10
17.5885
20
7
0
VERTEX
8
CUT
10
29.3109
20
13.7679
0
SEQEND
0
POLYLINE
8
CUT
66
1
70
0
0
VERTEX
8
CUT
10
28.3109
20
1.9641
0
VERTEX
8
CUT
10
19.5885
20
7
0
VERTEX
8
CUT
10
29.1769
20
12.5359
0
VERTEX
8
CUT
10
29.1769
20
2.4641
0
SEQEND
0
POLYLINE
8
CUT
66
1
70
0
0
VERTEX
8
CUT
10
22.4545
20
7.5
0
VERTEX
8
CUT
10
28.1769
20
10.8038
0
VERTEX
8
CUT
10
28.1769
20
3.1962
0
VERTEX
8
CUT
10
22.4545
20
6.5
0
SEQEND
0
POLYLINE
8
CUT
66
1
70
0
0
VERTEX
8
CUT
10
27.1769
20
8.0718
0
VERTEX
8
CUT
10
27.1769
20
4.9282
0
VERTEX
8
CUT
10
23.5885
20
7
0
VERTEX
8
CUT
10
26.3109
20
8.5718
0
SEQEND
0
LINE
8
CUT
10
15.5885
20
6
11
15.5885
21
0
0
LINE
8
CUT
10
16.4545
20
6.5
11
27.7128
21
0
0
LINE
8
CUT
10
16.5885
20
4.2679
11
16.5885
21
0
0
LINE
8
CUT
10
25.7128
20
0
11
17.4545
21
4.7679
0
POLYLINE
8
CUT
66
1
70
0
0
VERTEX
8
CUT
10
23.7128
20
0
0
VERTEX
8
CUT
10
17.5885
20
3.5359
0
VERTEX
8
CUT
10
17.5885
20
0
0
SEQEND
0
POLYLINE
8
CUT
66
1
70
0
0
VERTEX
8
CUT
10
21.7128
20
0
0
VERTEX
8
CUT
10
18.5885
20
1.8038
0
VERTEX
8
CUT
10
18.5885
20
0
0
SEQEND
0
POLYLINE
8
CUT
66
1
70
0
0
VERTEX
8
CUT
10
45.7654
20
70
0
VERTEX
8
CUT
10
45.7654
20
62.7321
0
VERTEX
8
CUT
10
33.1769
20
70
0
VERTEX
8
CUT
10
33.1769
20
70
0
SEQEND
0
POLYLINE
8
CUT
66
1
70
0
0
VERTEX
8
CUT
10
43.8993
20
64.9641
0
VERTEX
8
CUT
10
35.1769
20
70
0
VERTEX
8
CUT
10
35.1769
20
70
0
SEQEND
0
LINE
8
CUT
10
44.7654
20
70
11
44.7654
21
65.4641
0
POLYLINE
8
CUT
66
1
70
0
0
VERTEX
8
CUT
10
43.7654
20
70
0
VERTEX
8
CUT
10
43.7654
20
66.1962
0
VERTEX
8
CUT
10
38.0429
20
69.5
0
SEQEND
0
POLYLINE
8
CUT
66
1
70
0
0
VERTEX
8
CUT
10
42.7654
20
70
0
VERTEX
8
CUT
10
42.7654
20
67.9282
0
VERTEX
8
CUT
10
39.1769
20
70
0
VERTEX
8
CUT
10
39.1769
20
70
0
SEQEND
0
LINE
8
CUT
10
31.1769
20
69
11
31.1769
21
53
0
LINE
8
CUT
10
32.0429
20
69.5
11
45.8993
21
61.5
0
LINE
8
CUT
10
32.0429
20
52.5
11
45.8993
21
60.5
0
POLYLINE
8
CUT
66
1
70
0
0
VERTEX
8
CUT
10
32.1769
20
67.2679
0
VERTEX
8
CUT
10
32.1769
20
53.7321
0
VERTEX
8
CUT
10
44.7654
20
61
0
VERTEX
8
CUT
10
33.0429
20
67.7679
0
SEQEND
0
POLYLINE
8
CUT
66
1
70
0
0
VERTEX
8
CUT
10
34.0429
20
55.9641
0
VERTEX
8
CUT
10
42.7654
20
61
0
VERTEX
8
CUT
10
33.1769
20
66.5359
0
VERTEX
8
CUT
10
33.1769
20
56.4641
0
SEQEND
0
POLYLINE
8
CUT
66
1
70
0
0
VERTEX
8
CUT
10
39.8993
20
61.5
0
VERTEX
8
CUT
10
34.1769
20
64.8038
0
VERTEX
8
CUT
10
34.1769
20
57.1962
0
VERTEX
8
CUT
10
39.8993
20
60.5
0
SEQEND
0
POLYLINE
8
CUT
66
1
70
0
0
VERTEX
8
CUT
10
35.1769
20
62.0718
0
VERTEX
8
CUT
10
35.1769
20
58.9282
0
VERTEX
8
CUT
10
38.7654
20
61
0
VERTEX
8
CUT
10
36.0429
20
62.5718
0
SEQEND
0
POLYLINE
8
CUT
66
1
70
0
0
VERTEX
8
CUT
10
45.7654
20
58.2679
0
VERTEX
8
CUT
10
45.7654
20
44.7321
0
VERTEX
8
CUT
10
33.1769
20
52
0
VERTEX
8
CUT
10
44.8993
20
58.7679
0
SEQEND
0
POLYLINE
8
CUT
66
1
70
0
0
VERTEX
8
CUT
10
43.8993
20
46.9641
0
VERTEX
8
CUT
10
35.1769
20
52
0
VERTEX
8
CUT
10
44.7654
20
57.5359
0
VERTEX
8
CUT
10
44.7654
20
47.4641
0
SEQEND
0
POLYLINE
8
CUT
66
1
70
0
0
VERTEX
8
CUT
10
38.0429
20
52.5
0
VERTEX
8
CUT
10
43.7654
20
55.8038
0
VERTEX
8
CUT
10
43.7654
20
48.1962
0
VERTEX
8
CUT
10
38.0429
20
51.5
0
SEQEND
0
POLYLINE
8
CUT
66
1
70
0
0
VERTEX
8
CUT
10
42.7654
20
53.0718
0
VERTEX
8
CUT
10
42.7654
20
49.9282
0
VERTEX
8
CUT
10
39.1769
20
52
0
VERTEX
8
CUT
10
41.8993
20
53.5718
0
SEQEND
0
LINE
8
CUT
10
31.1769
20
51
11
31.1769
21
35
0
LINE
8
CUT
10
32.0429
20
51.5
11
45.8993
21
43.5
0
LINE
8
CUT
10
32.0429
20
34.5
11
45.8993
21
42.5
0
POLYLINE
8
CUT
66
1
70
0
0
VERTEX
8
CUT
10
32.1769
20
49.2679
0
VERTEX
8
CUT
10
32.1769
20
35.7321
0
VERTEX
8
CUT
10
44.7654
20
43
0
VERTEX
8
CUT
10
33.0429
20
49.7679
0
SEQEND
0
POLYLINE
8
CUT
66
1
70
0
0
VERTEX
8
CUT
10
34.0429
20
37.9641
0
VERTEX
8
CUT
10
42.7654
20
43
0
VERTEX
8
CUT
10
33.1769
20
48.5359
0
VERTEX
8
CUT
10
33.1769
20
38.4641
0
SEQEND
0
POLYLINE
8
CUT
66
1
70
0
0
VERTEX
8
CUT
10
39.8993
20
43.5
0
VERTEX
8
CUT
10
34.1769
20
46.8038
0
VERTEX
8
CUT
10
34.1769
20
39.1962
0
VERTEX
8
CUT
10
39.8993
20
42.5
0
SEQEND
0
POLYLINE
8
CUT
66
1
70
0
0
VERTEX
8
CUT
10
35.1769
20
44.0718
0
VERTEX
8
CUT
10
35.1769
20
40.9282
0
VERTEX
8
CUT
10
38.7654
20
43
0
VERTEX
8
CUT
10
36.0429
20
44.5718
0
SEQEND
0
POLYLINE
8
CUT
66
1
70
0
0
VERTEX
8
CUT
10
45.7654
20
40.2679
0
VERTEX
8
CUT
10
45.7654
20
26.7321
0
VERTEX
8
CUT
10
33.1769
20
34
0
VERTEX
8
CUT
10
44.8993
20
40.7679
0
SEQEND
0
POLYLINE
8
CUT
66
1
70
0
0
VERTEX
8
CUT
10
43.8993
20
28.9641
0
VERTEX
8
CUT
10
35.1769
20
34
0
VERTEX
8
CUT
10
44.7654
20
39.5359
0
VERTEX
8
CUT
10
44.7654
20
29.4641
0
SEQEND
0
POLYLINE
8
CUT
66
1
70
0
0
VERTEX
8
CUT
10
38.0429
20
34.5
0
VERTEX
8
CUT
10
43.7654
20
37.8038
0
VERTEX
8
CUT
10
43.7654
20
30.1962
0
VERTEX
8
CUT
10
38.0429
20
33.5
0
SEQEND
0
POLYLINE
8
CUT
66
1
70
0
0
VERTEX
8
CUT
10
42.7654
20
35.0718
0
VERTEX
8
CUT
10
42.7654
20
31.9282
0
VERTEX
8
CUT
10
39.1769
20
34
0
VERTEX
8
CUT
10
41.8993
20
35.5718
0
SEQEND
0
LINE
8
CUT
10
31.1769
20
33
11
31.1769
21
17
0
LINE
8
CUT
10
32.0429
20
33.5
11
45.8993
21
25.5
0
LINE
8
CUT
10
32.0429
20
16.5
11
45.8993
21
24.5
0
POLYLINE
8
CUT
66
1
70
0
0
VERTEX
8
CUT
10
32.1769
20
31.2679
0
VERTEX
8
CUT
10
32.1769
20
17.7321
0
VERTEX
8
CUT
10
44.7654
20
25
0
VERTEX
8
CUT
10
33.0429
20
31.7679
0
SEQEND
0
POLYLINE
8
CUT
66
1
70
0
0
VERTEX
8
CUT
10
34.0429
20
19.9641
0
VERTEX
8
CUT
10
42.7654
20
25
0
VERTEX
8
CUT
10
33.1769
20
30.5359
0
VERTEX
8
CUT
10
33.1769
20
20.4641
0
SEQEND
0
POLYLINE
8
CUT
66
1
70
0
0
VERTEX
8
CUT
10
39.8993
20
25.5
0
VERTEX
8
CUT
10
34.1769
20
28.8038
0
VERTEX
8
CUT
10
34.1769
20
21.1962
0
VERTEX
8
CUT
10
39.8993
20
24.5
0
SEQEND
0
POLYLINE
8
CUT
66
1
70
0
0
VERTEX
8
CUT
10
35.1769
20
26.0718
0
VERTEX
8
CUT
10
35.1769
20
22.9282
0
VERTEX
8
CUT
10
38.7654
20
25
0
VERTEX
8
CUT
10
36.0429
20
26.5718
0
SEQEND
0
POLYLINE
8
CUT
66
1
70
0
0
VERTEX
8
CUT
10
45.7654
20
22.2679
0
VERTEX
8
CUT
10
45.7654
20
8.7321
0
VERTEX
8
CUT
10
33.1769
20
16
0
VERTEX
8
CUT
10
44.8993
20
22.7679
0
SEQEND
0
POLYLINE
8
CUT
66
1
70
0
0
VERTEX
8
CUT
10
43.8993
20
10.9641
0
VERTEX
8
CUT
10
35.1769
20
16
0
VERTEX
8
CUT
10
44.7654
20
21.5359
0
VERTEX
8
CUT
10
44.7654
20
11.4641
0
SEQEND
0
POLYLINE
8
CUT
66
1
70
0
0
VERTEX
8
CUT
10
38.0429
20
16.5
0
VERTEX
8
CUT
10
43.7654
20
19.8038
0
VERTEX
8
CUT
10
43.7654
20
12.1962
0
VERTEX
8
CUT
10
38.0429
20
15.5
0
SEQEND
0
POLYLINE
8
CUT
66
1
70
0
0
VERTEX
8
CUT
10
42.7654
20
17.0718
0
VERTEX
8
CUT
10
42.7654
20
13.9282
0
VERTEX
8
CUT
10
39.1769
20
16
0
VERTEX
8
CUT
10
41.8993
20
17.5718
0
SEQEND
0
LINE
8
CUT
10
31.1769
20
15
11
31.1769
21
0
0
LINE
8
CUT
10
32.0429
20
15.5
11
45.8993
21
7.5
0
LINE
8
CUT
10
34.641
20
0
11
45.8993
21
6.5
0
LINE
8
CUT
10
32.1769
20
13.2679
11
32.1769
21
0
0
POLYLINE
8
CUT
66
1
70
0
0
VERTEX
8
CUT
10
32.641
20
0
0
VERTEX
8
CUT
10
44.7654
20
7
0
VERTEX
8
CUT
10
33.0429
20
13.7679
0
SEQEND
0
POLYLINE
8
CUT
66
1
70
0
0
VERTEX
8
CUT
10
34.0429
20
1.9641
0
VERTEX
8
CUT
10
42.7654
20
7
0
VERTEX
8
CUT
10
33.1769
20
12.5359
0
VERTEX
8
CUT
10
33.1769
20
2.4641
0
SEQEND
0
POLYLINE
8
CUT
66
1
70
0
0
VERTEX
8
CUT
10
39.8993
20
7.5
0
VERTEX
8
CUT
10
34.1769
20
10.8038
0
VERTEX
8
CUT
10
34.1769
20
3.1962
0
VERTEX
8
CUT
10
39.8993
20
6.5
0
SEQEND
0
POLYLINE
8
CUT
66
1
70
0
0
VERTEX
8
CUT
10
35.1769
20
8.0718
0
VERTEX
8
CUT
10
35.1769
20
4.9282
0
VERTEX
8
CUT
10
38.7654
20
7
0
VERTEX
8
CUT
10
36.0429
20
8.5718
0
SEQEND
0
LINE
8
CUT
10
45.7654
20
4.2679
11
45.7654
21
0
0
LINE
8
CUT
10
36.641
20
0
11
44.8993
21
4.7679
0
POLYLINE
8
CUT
66
1
70
0
0
VERTEX
8
CUT
10
38.641
20
0
0
VERTEX
8
CUT
10
44.7654
20
3.5359
0
VERTEX
8
CUT
10
44.7654
20
0
0
SEQEND
0
POLYLINE
8
CUT
66
1
70
0
0
VERTEX
8
CUT
10
40.641
20
0
0
VERTEX
8
CUT
10
43.7654
20
1.8038
0
VERTEX
8
CUT
10
43.7654
20
0
0
SEQEND
0
LINE
8
CUT
10
46.7654
20
70
11
46.7654
21
62
0
LINE
8
CUT
10
47.6314
20
61.5
11
61.4878
21
69.5
0
POLYLINE
8
CUT
66
1
70
0
0
VERTEX
8
CUT
10
47.7654
20
70
0
VERTEX
8
CUT
10
47.7654
20
62.7321
0
VERTEX
8
CUT
10
60.3538
20
70
0
VERTEX
8
CUT
10
60.3538
20
70
0
SEQEND
0
POLYLINE
8
CUT
66
1
70
0
0
VERTEX
8
CUT
10
49.6314
20
64.9641
0
VERTEX
8
CUT
10
58.3538
20
70
0
VERTEX
8
CUT
10
58.3538
20
70
0
SEQEND
0
LINE
8
CUT
10
48.7654
20
70
11
48.7654
21
65.4641
0
POLYLINE
8
CUT
66
1
70
0
0
VERTEX
8
CUT
10
49.7654
20
70
0
VERTEX
8
CUT
10
49.7654
20
66.1962
0
VERTEX
8
CUT
10
55.4878
20
69.5
0
SEQEND
0
POLYLINE
8
CUT
66
1
70
0
0
VERTEX
8
CUT
10
50.7654
20
70
0
VERTEX
8
CUT
10
50.7654
20
67.9282
0
VERTEX
8
CUT
10
54.3538
20
70
0
VERTEX
8
CUT
10
54.3538
20
70
0
SEQEND
0
POLYLINE
8
CUT
66
1
70
0
0
VERTEX
8
CUT
10
61.3538
20
67.2679
0
VERTEX
8
CUT
10
61.3538
20
53.7321
0
VERTEX
8
CUT
10
48.7654
20
61
0
VERTEX
8
CUT
10
60.4878
20
67.7679
0
SEQEND
0
POLYLINE
8
CUT
66
1
70
0
0
VERTEX
8
CUT
10
59.4878
20
55.9641
0
VERTEX
8
CUT
10
50.7654
20
61
0
VERTEX
8
CUT
10
60.3538
20
66.5359
0
VERTEX
8
CUT
10
60.3538
20
56.4641
0
SEQEND
0
POLYLINE
8
CUT
66
1
70
0
0
VERTEX
8
CUT
10
53.6314
20
61.5
0
VERTEX
8
CUT
10
59.3538
20
64.8038
0
VERTEX
8
CUT
10
59.3538
20
57.1962
0
VERTEX
8
CUT
10
53.6314
20
60.5
0
SEQEND
0
POLYLINE
8
CUT
66
1
70
0
0
VERTEX
8
CUT
10
58.3538
20
62.0718
0
VERTEX
8
CUT
10
58.3538
20
58.9282
0
VERTEX
8
CUT
10
54.7654
20
61
0
VERTEX
8
CUT
10
57.4878
20
62.5718
0
SEQEND
0
LINE
8
CUT
10
46.7654
20
60
11
46.7654
21
44
0
LINE
8
CUT
10
47.6314
20
60.5
11
61.4878
21
52.5
0
LINE
8
CUT
10
47.6314
20
43.5
11
61.4878
21
51.5
0
POLYLINE
8
CUT
66
1
70
0
0
VERTEX
8
CUT
10
47.7654
20
58.2679
0
VERTEX
8
CUT
10
47.7654
20
44.7321
0
VERTEX
8
CUT
10
60.3538
20
52
0
VERTEX
8
CUT
10
48.6314
20
58.7679
0
SEQEND
0
POLYLINE
8
CUT
66
1
70
0
0
VERTEX
8
CUT
10
49.6314
20
46.9641
0
VERTEX
8
CUT
10
58.3538
20
52
0
VERTEX
8
CUT
10
48.7654
20
57.5359
0
VERTEX
8
CUT
10
48.7654
20
47.4641
0
SEQEND
0
POLYLINE
8
CUT
66
1
70
0
0
VERTEX
8
CUT
10
55.4878
20
52.5
0
VERTEX
8
CUT
10
49.7654
20
55.8038
0
VERTEX
8
CUT
10
49.7654
20
48.1962
0
VERTEX
8
CUT
10
55.4878
20
51.5
0
SEQEND
0
POLYLINE
8
CUT
66
1
70
0
0
VERTEX
8
CUT
10
50.7654
20
53.0718
0
VERTEX
8
CUT
10
50.7654
20
49.9282
0
VERTEX
8
CUT
10
54.3538
20
52
0
VERTEX
8
CUT
10
51.6314
20
53.5718
0
SEQEND
0
POLYLINE
8
CUT
66
1
70
0
0
VERTEX
8
CUT
10
61.3538
20
49.2679
0
VERTEX
8
CUT
10
61.3538
20
35.7321
0
VERTEX
8
CUT
10
48.7654
20
43
0
VERTEX
8
CUT
10
60.4878
20
49.7679
0
SEQEND
0
POLYLINE
8
CUT
66
1
70
0
0
VERTEX
8
CUT
10
59.4878
20
37.9641
0
VERTEX
8
CUT
10
50.7654
20
43
0
VERTEX
8
CUT
10
60.3538
20
48.5359
0
VERTEX
8
CUT
10
60.3538
20
38.4641
0
SEQEND
0
POLYLINE
8
CUT
66
1
70
0
0
VERTEX
8
CUT
10
53.6314
20
43.5
0
VERTEX
8
CUT
10
59.3538
20
46.8038
0
VERTEX
8
CUT
10
59.3538
20
39.1962
0
VERTEX
8
CUT
10
53.6314
20
42.5
0
SEQEND
0
POLYLINE
8
CUT
66
1
70
0
0
VERTEX
8
CUT
10
58.3538
20
44.0718
0
VERTEX
8
CUT
10
58.3538
20
40.9282
0
VERTEX
8
CUT
10
54.7654
20
43
0
VERTEX
8
CUT
10
57.4878
20
44.5718
0
SEQEND
0
LINE
8
CUT
10
46.7654
20
42
11
46.7654
21
26
0
LINE
8
CUT
10
47.6314
20
42.5
11
61.4878
21
34.5
0
LINE
8
CUT
10
47.6314
20
25.5
11
61.4878
21
33.5
0
POLYLINE
8
CUT
66
1
70
0
0
VERTEX
8
CUT
10
47.7654
20
40.2679
0
VERTEX
8
CUT
10
47.7654
20
26.7321
0
VERTEX
8
CUT
10
60.3538
20
34
0
VERTEX
8
CUT
10
48.6314
20
40.7679
0
SEQEND
0
POLYLINE
8
CUT
66
1
70
0
0
VERTEX
8
CUT
10
49.6314
20
28.9641
0
VERTEX
8
CUT
10
58.3538
20
34
0
VERTEX
8
CUT
10
48.7654
20
39.5359
0
VERTEX
8
CUT
10
48.7654
20
29.4641
0
SEQEND
0
POLYLINE
8
CUT
66
1
70
0
0
VERTEX
8
CUT
10
55.4878
20
34.5
0
VERTEX
8
CUT
10
49.7654
20
37.8038
0
VERTEX
8
CUT
10
49.7654
20
30.1962
0
VERTEX
8
CUT
10
55.4878
20
33.5
0
SEQEND
0
POLYLINE
8
CUT
66
1
70
0
0
VERTEX
8
CUT
10
50.7654
20
35.0718
0
VERTEX
8
CUT
10
50.7654
20
31.9282
0
VERTEX
8
CUT
10
54.3538
20
34
0
VERTEX
8
CUT
10
51.6314
20
35.5718
0
SEQEND
0
POLYLINE
8
CUT
66
1
70
0
0
VERTEX
8
CUT
10
61.3538
20
31.2679
0
VERTEX
8
CUT
10
61.3538
20
17.7321
0
VERTEX
8
CUT
10
48.7654
20
25
0
VERTEX
8
CUT
10
60.4878
20
31.7679
0
SEQEND
0
POLYLINE
8
CUT
66
1
70
0
0
VERTEX
8
CUT
10
59.4878
20
19.9641
0
VERTEX
8
CUT
10
50.7654
20
25
0
VERTEX
8
CUT
10
60.3538
20
30.5359
0
VERTEX
8
CUT
10
60.3538
20
20.4641
0
SEQEND
0
POLYLINE
8
CUT
66
1
70
0
0
VERTEX
8
CUT
10
53.6314
20
25.5
0
VERTEX
8
CUT
10
59.3538
20
28.8038
0
VERTEX
8
CUT
10
59.3538
20
21.1962
0
VERTEX
8
CUT
10
53.6314
20
24.5
0
SEQEND
0
POLYLINE
8
CUT
66
1
70
0
0
VERTEX
8
CUT
10
58.3538
20
26.0718
0
VERTEX
8
CUT
10
58.3538
20
22.9282
0
VERTEX
8
CUT
10
54.7654
20
25
0
VERTEX
8
CUT
10
57.4878
20
26.5718
0
SEQEND
0
LINE
8
CUT
10
46.7654
20
24
11
46.7654
21
8
0
LINE
8
CUT
10
47.6314
20
24.5
11
61.4878
21
16.5
0
LINE
8
CUT
10
47.6314
20
7.5
11
61.4878
21
15.5
0
POLYLINE
8
CUT
66
1
70
0
0
VERTEX
8
CUT
10
47.7654
20
22.2679
0
VERTEX
8
CUT
10
47.7654
20
8.7321
0
VERTEX
8
CUT
10
60.3538
20
16
0
VERTEX
8
CUT
10
48.6314
20
22.7679
0
SEQEND
0
POLYLINE
8
CUT
66
1
70
0
0
VERTEX
8
CUT
10
49.6314
20
10.9641
0
VERTEX
8
CUT
10
58.3538
20
16
0
VERTEX
8
CUT
10
48.7654
20
21.5359
0
VERTEX
8
CUT
10
48.7654
20
11.4641
0
SEQEND
0
POLYLINE
8
CUT
66
1
70
0
0
VERTEX
8
CUT
10
55.4878
20
16.5
0
VERTEX
8
CUT
10
49.7654
20
19.8038
0
VERTEX
8
CUT
10
49.7654
20
12.1962
0
VERTEX
8
CUT
10
55.4878
20
15.5
0
SEQEND
0
POLYLINE
8
CUT
66
1
70
0
0
VERTEX
8
CUT
10
50.7654
20
17.0718
0
VERTEX
8
CUT
10
50.7654
20
13.9282
0
VERTEX
8
CUT
10
54.3538
20
16
0
VERTEX
8
CUT
10
51.6314
20
17.5718
0
SEQEND
0
LINE
8
CUT
10
61.3538
20
13.2679
11
61.3538
21
0
0
POLYLINE
8
CUT
66
1
70
0
0
VERTEX
8
CUT
10
60.8897
20
0
0
VERTEX
8
CUT
10
48.7654
20
7
0
VERTEX
8
CUT
10
60.4878
20
13.7679
0
SEQEND
0
POLYLINE
8
CUT
66
1
70
0
0
VERTEX
8
CUT
10
59.4878
20
1.9641
0
VERTEX
8
CUT
10
50.7654
20
7
0
VERTEX
8
CUT
10
60.3538
20
12.5359
0
VERTEX
8
CUT
10
60.3538
20
2.4641
0
SEQEND
0
POLYLINE
8
CUT
66
1
70
0
0
VERTEX
8
CUT
10
53.6314
20
7.5
0
VERTEX
8
CUT
10
59.3538
20
10.8038
0
VERTEX
8
CUT
10
59.3538
20
3.1962
0
VERTEX
8
CUT
10
53.6314
20
6.5
0
SEQEND
0
POLYLINE
8
CUT
66
1
70
0
0
VERTEX
8
CUT
10
58.3538
20
8.0718
0
VERTEX
8
CUT
10
58.3538
20
4.9282
0
VERTEX
8
CUT
10
54.7654
20
7
0
VERTEX
8
CUT
10
57.4878
20
8.5718
0
SEQEND
0
LINE
8
CUT
10
46.7654
20
6
11
46.7654
21
0
0
LINE
8
CUT
10
47.6314
20
6.5
11
58.8897
21
0
0
LINE
8
CUT
10
47.7654
20
4.2679
11
47.7654
21
0
0
LINE
8
CUT
10
56.8897
20
0
11
48.6314
21
4.7679
0
POLYLINE
8
CUT
66
1
70
0
0
VERTEX
8
CUT
10
54.8897
20
0
0
VERTEX
8
CUT
10
48.7654
20
3.5359
0
VERTEX
8
CUT
10
48.7654
20
0
0
SEQEND
0
POLYLINE
8
CUT
66
1
70
0
0
VERTEX
8
CUT
10
52.8897
20
0
0
VERTEX
8
CUT
10
49.7654
20
1.8038
0
VERTEX
8
CUT
10
49.7654
20
0
0
SEQEND
0
POLYLINE
8
CUT
66
1
70
0
0
VERTEX
8
CUT
10
76.9423
20
70
0
VERTEX
8
CUT
10
76.9423
20
62.7321
0
VERTEX
8
CUT
10
64.3538
20
70
0
VERTEX
8
CUT
10
64.3538
20
70
0
SEQEND
0
POLYLINE
8
CUT
66
1
70
0
0
VERTEX
8
CUT
10
75.0763
20
64.9641
0
VERTEX
8
CUT
10
66.3538
20
70
0
VERTEX
8
CUT
10
66.3538
20
70
0
SEQEND
0
LINE
8
CUT
10
75.9423
20
70
11
75.9423
21
65.4641
0
POLYLINE
8
CUT
66
1
70
0
0
VERTEX
8
CUT
10
74.9423
20
70
0
VERTEX
8
CUT
10
74.9423
20
66.1962
0
VERTEX
8
CUT
10
69.2199
20
69.5
0
SEQEND
0
POLYLINE
8
CUT
66
1
70
0
0
VERTEX
8
CUT
10
73.9423
20
70
0
VERTEX
8
CUT
10
73.9423
20
67.9282
0
VERTEX
8
CUT
10
70.3538
20
70
0
VERTEX
8
CUT
10
70.3538
20
70
0
SEQEND
0
LINE
8
CUT
10
62.3538
20
69
11
62.3538
21
53
0
LINE
8
CUT
10
63.2199
20
69.5
11
77.0763
21
61.5
0
LINE
8
CUT
10
63.2199
20
52.5
11
77.0763
21
60.5
0
POLYLINE
8
CUT
66
1
70
0
0
VERTEX
8
CUT
10
63.3538
20
67.2679
0
VERTEX
8
CUT
10
63.3538
20
53.7321
0
VERTEX
8
CUT
10
75.9423
20
61
0
VERTEX
8
CUT
10
64.2199
20
67.7679
0
SEQEND
0
POLYLINE
8
CUT
66
1
70
0
0
VERTEX
8
CUT
10
65.2199
20
55.9641
0
VERTEX
8
CUT
10
73.9423
20
61
0
VERTEX
8
CUT
10
64.3538
20
66.5359
0
VERTEX
8
CUT
10
64.3538
20
56.4641
0
SEQEND
0
POLYLINE
8
CUT
66
1
70
0
0
VERTEX
8
CUT
10
71.0763
20
61.5
0
VERTEX
8
CUT
10
65.3538
20
64.8038
0
VERTEX
8
CUT
10
65.3538
20
57.1962
0
VERTEX
8
CUT
10
71.0763
20
60.5
0
SEQEND
0
POLYLINE
8
CUT
66
1
70
0
0
VERTEX
8
CUT
10
66.3538
20
62.0718
0
VERTEX
8
CUT
10
66.3538
20
58.9282
0
VERTEX
8
CUT
10
69.9423
20
61
0
VERTEX
8
CUT
10
67.2199
20
62.5718
0
SEQEND
0
POLYLINE
8
CUT
66
1
70
0
0
VERTEX
8
CUT
10
76.9423
20
58.2679
0
VERTEX
8
CUT
10
76.9423
20
44.7321
0
VERTEX
8
CUT
10
64.3538
20
52
0
VERTEX
8
CUT
10
76.0763
20
58.7679
0
SEQEND
0
POLYLINE
8
CUT
66
1
70
0
0
VERTEX
8
CUT
10
75.0763
20
46.9641
0
VERTEX
8
CUT
10
66.3538
20
52
0
VERTEX
8
CUT
10
75.9423
20
57.5359
0
VERTEX
8
CUT
10
75.9423
20
47.4641
0
SEQEND
0
POLYLINE
8
CUT
66
1
70
0
0
VERTEX
8
CUT
10
69.2199
20
52.5
0
VERTEX
8
CUT
10
74.9423
20
55.8038
0
VERTEX
8
CUT
10
74.9423
20
48.1962
0
VERTEX
8
CUT
10
69.2199
20
51.5
0
SEQEND
0
POLYLINE
8
CUT
66
1
70
0
0
VERTEX
8
CUT
10
73.9423
20
53.0718
0
VERTEX
8
CUT
10
73.9423
20
49.9282
0
VERTEX
8
CUT
10
70.3538
20
52
0
VERTEX
8
CUT
10
73.0763
20
53.5718
0
SEQEND
0
LINE
8
CUT
10
62.3538
20
51
11
62.3538
21
35
0
LINE
8
CUT
10
63.2199
20
51.5
11
77.0763
21
43.5
0
LINE
8
CUT
10
63.2199
20
34.5
11
77.0763
21
42.5
0
POLYLINE
8
CUT
66
1
70
0
0
VERTEX
8
CUT
10
63.3538
20
49.2679
0
VERTEX
8
CUT
10
63.3538
20
35.7321
0
VERTEX
8
CUT
10
75.9423
20
43
0
VERTEX
8
CUT
10
64.2199
20
49.7679
0
SEQEND
0
POLYLINE
8
CUT
66
1
70
0
0
VERTEX
8
CUT
10
65.2199
20
37.9641
0
VERTEX
8
CUT
10
73.9423
20
43
0
VERTEX
8
CUT
10
64.3538
20
48.5359
0
VERTEX
8
CUT
10
64.3538
20
38.4641
0
SEQEND
0
POLYLINE
8
CUT
66
1
70
0
0
VERTEX
8
CUT
10
71.0763
20
43.5
0
VERTEX
8
CUT
10
65.3538
20
46.8038
0
VERTEX
8
CUT
10
65.3538
20
39.1962
0
VERTEX
8
CUT
10
71.0763
20
42.5
0
SEQEND
0
POLYLINE
8
CUT
66
1
70
0
0
VERTEX
8
CUT
10
66.3538
20
44.0718
0
VERTEX
8
CUT
10
66.3538
20
40.9282
0
VERTEX
8
CUT
10
69.9423
20
43
0
VERTEX
8
CUT
10
67.2199
20
44.5718
0
SEQEND
0
POLYLINE
8
CUT
66
1
70
0
0
VERTEX
8
CUT
10
76.9423
20
40.2679
0
VERTEX
8
CUT
10
76.9423
20
26.7321
0
VERTEX
8
CUT
10
64.3538
20
34
0
VERTEX
8
CUT
10
76.0763
20
40.7679
0
SEQEND
0
POLYLINE
8
CUT
66
1
70
0
0
VERTEX
8
CUT
10
75.0763
20
28.9641
0
VERTEX
8
CUT
10
66.3538
20
34
0
VERTEX
8
CUT
10
75.9423
20
39.5359
0
VERTEX
8
CUT
10
75.9423
20
29.4641
0
SEQEND
0
POLYLINE
8
CUT
66
1
70
0
0
VERTEX
8
CUT
10
69.2199
20
34.5
0
VERTEX
8
CUT
10
74.9423
20
37.8038
0
VERTEX
8
CUT
10
74.9423
20
30.1962
0
VERTEX
8
CUT
10
69.2199
20
33.5
0
SEQEND
0
POLYLINE
8
CUT
66
1
70
0
0
VERTEX
8
CUT
10
73.9423
20
35.0718
0
VERTEX
8
CUT
10
73.9423
20
31.9282
0
VERTEX
8
CUT
10
70.3538
20
34
0
VERTEX
8
CUT
10
73.0763
20
35.5718
0
SEQEND
0
LINE
8
CUT
10
62.3538
20
33
11
62.3538
21
17
0
LINE
8
CUT
10
63.2199
20
33.5
11
77.0763
21
25.5
0
LINE
8
CUT
10
63.2199
20
16.5
11
77.0763
21
24.5
0
POLYLINE
8
CUT
66
1
70
0
0
VERTEX
8
CUT
10
63.3538
20
31.2679
0
VERTEX
8
CUT
10
63.3538
20
17.7321
0
VERTEX
8
CUT
10
75.9423
20
25
0
VERTEX
8
CUT
10
64.2199
20
31.7679
0
SEQEND
0
POLYLINE
8
CUT
66
1
70
0
0
VERTEX
8
CUT
10
65.2199
20
19.9641
0
VERTEX
8
CUT
10
73.9423
20
25
0
VERTEX
8
CUT
10
64.3538
20
30.5359
0
VERTEX
8
CUT
10
64.3538
20
20.4641
0
SEQEND
0
POLYLINE
8
CUT
66
1
70
0
0
VERTEX
8
CUT
10
71.0763
20
25.5
0
VERTEX
8
CUT
10
65.3538
20
28.8038
0
VERTEX
8
CUT
10
65.3538
20
21.1962
0
VERTEX
8
CUT
10
71.0763
20
24.5
0
SEQEND
0
POLYLINE
8
CUT
66
1
70
0
0
VERTEX
8
CUT
10
66.3538
20
26.0718
0
VERTEX
8
CUT
10
66.3538
20
22.9282
0
VERTEX
8
CUT
10
69.9423
20
25
0
VERTEX
8
CUT
10
67.2199
20
26.5718
0
SEQEND
0
POLYLINE
8
CUT
66
1
70
0
0
VERTEX
8
CUT
10
76.9423
20
22.2679
0
VERTEX
8
CUT
10
76.9423
20
8.7321
0
VERTEX
8
CUT
10
64.3538
20
16
0
VERTEX
8
CUT
10
76.0763
20
22.7679
0
SEQEND
0
POLYLINE
8
CUT
66
1
70
0
0
VERTEX
8
CUT
10
75.0763
20
10.9641
0
VERTEX
8
CUT
10
66.3538
20
16
0
VERTEX
8
CUT
10
75.9423
20
21.5359
0
VERTEX
8
CUT
10
75.9423
20
11.4641
0
SEQEND
0
POLYLINE
8
CUT
66
1
70
0
0
VERTEX
8
CUT
10
69.2199
20
16.5
0
VERTEX
8
CUT
10
74.9423
20
19.8038
0
VERTEX
8
CUT
10
74.9423
20
12.1962
0
VERTEX
8
CUT
10
69.2199
20
15.5
0
SEQEND
0
POLYLINE
8
CUT
66
1
70
0
0
VERTEX
8
CUT
10
73.9423
20
17.0718
0
VERTEX
8
CUT
10
73.9423
20
13.9282
0
VERTEX
8
CUT
10
70.3538
20
16
0
VERTEX
8
CUT
10
73.0763
20
17.5718
0
SEQEND
0
LINE
8
CUT
10
62.3538
20
15
11
62.3538
21
0
0
LINE
8
CUT
10
63.2199
20
15.5
11
77.0763
21
7.5
0
LINE
8
CUT
10
65.8179
20
0
11
77.0763
21
6.5
0
LINE
8
CUT
10
63.3538
20
13.2679
11
63.3538
21
0
0
POLYLINE
8
CUT
66
1
70
0
0
VERTEX
8
CUT
10
63.8179
20
0
0
VERTEX
8
CUT
10
75.9423
20
7
0
VERTEX
8
CUT
10
64.2199
20
13.7679
0
SEQEND
0
POLYLINE
8
CUT
66
1
70
0
0
VERTEX
8
CUT
10
65.2199
20
1.9641
0
VERTEX
8
CUT
10
73.9423
20
7
0
VERTEX
8
CUT
10
64.3538
20
12.5359
0
VERTEX
8
CUT
10
64.3538
20
2.4641
0
SEQEND
0
POLYLINE
8
CUT
66
1
70
0
0
VERTEX
8
CUT
10
71.0763
20
7.5
0
VERTEX
8
CUT
10
65.3538
20
10.8038
0
VERTEX
8
CUT
10
65.3538
20
3.1962
0
VERTEX
8
CUT
10
71.0763
20
6.5
0
SEQEND
0
POLYLINE
8
CUT
66
1
70
0
0
VERTEX
8
CUT
10
66.3538
20
8.0718
0
VERTEX
8
CUT
10
66.3538
20
4.9282
0
VERTEX
8
CUT
10
69.9423
20
7
0
VERTEX
8
CUT
10
67.2199
20
8.5718
0
SEQEND
0
LINE
8
CUT
10
76.9423
20
4.2679
11
76.9423
21
0
0
LINE
8
CUT
10
67.8179
20
0
11
76.0763
21
4.7679
0
POLYLINE
8
CUT
66
1
70
0
0
VERTEX
8
CUT
10
69.8179
20
0
0
VERTEX
8
CUT
10
75.9423
20
3.5359
0
VERTEX
8
CUT
10
75.9423
20
0
0
SEQEND
0
POLYLINE
8
CUT
66
1
70
0
0
VERTEX
8
CUT
10
71.8179
20
0
0
VERTEX
8
CUT
10
74.9423
20
1.8038
0
VERTEX
8
CUT
10
74.9423
20
0
0
SEQEND
0
LINE
8
CUT
10
77.9423
20
70
11
77.9423
21
62
0
LINE
8
CUT
10
78.8083
20
61.5
11
92.6647
21
69.5
0
POLYLINE
8
CUT
66
1
70
0
0
VERTEX
8
CUT
10
78.9423
20
70
0
VERTEX
8
CUT
10
78.9423
20
62.7321
0
VERTEX
8
CUT
10
91.5307
20
70
0
VERTEX
8
CUT
10
91.5307
20
70
0
SEQEND
0
POLYLINE
8
CUT
66
1
70
0
0
VERTEX
8
CUT
10
80.8083
20
64.9641
0
VERTEX
8
CUT
10
89.5307
20
70
0
VERTEX
8
CUT
10
89.5307
20
70
0
SEQEND
0
LINE
8
CUT
10
79.9423
20
70
11
79.9423
21
65.4641
0
POLYLINE
8
CUT
66
1
70
0
0
VERTEX
8
CUT
10
80.9423
20
70
0
VERTEX
8
CUT
10
80.9423
20
66.1962
0
VERTEX
8
CUT
10
86.6647
20
69.5
0
SEQEND
0
POLYLINE
8
CUT
66
1
70
0
0
VERTEX
8
CUT
10
81.9423
20
70
0
VERTEX
8
CUT
10
81.9423
20
67.9282
0
VERTEX
8
CUT
10
85.5307
20
70
0
VERTEX
8
CUT
10
85.5307
20
70
0
SEQEND
0
POLYLINE
8
CUT
66
1
70
0
0
VERTEX
8
CUT
10
92.5307
20
67.2679
0
VERTEX
8
CUT
10
92.5307
20
53.7321
0
VERTEX
8
CUT
10
79.9423
20
61
0
VERTEX
8
CUT
10
91.6647
20
67.7679
0
SEQEND
0
POLYLINE
8
CUT
66
1
70
0
0
VERTEX
8
CUT
10
90.6647
20
55.9641
0
VERTEX
8
CUT
10
81.9423
20
61
0
VERTEX
8
CUT
10
91.5307
20
66.5359
0
VERTEX
8
CUT
10
91.5307
20
56.4641
0
SEQEND
0
POLYLINE
8
CUT
66
1
70
0
0
VERTEX
8
CUT
10
84.8083
20
61.5
0
VERTEX
8
CUT
10
90.5307
20
64.8038
0
VERTEX
8
CUT
10
90.5307
20
57.1962
0
VERTEX
8
CUT
10
84.8083
20
60.5
0
SEQEND
0
POLYLINE
8
CUT
66
1
70
0
0
VERTEX
8
CUT
10
89.5307
20
62.0718
0
VERTEX
8
CUT
10
89.5307
20
58.9282
0
VERTEX
8
CUT
10
85.9423
20
61
0
VERTEX
8
CUT
10
88.6647
20
62.5718
0
SEQEND
0
LINE
8
CUT
10
77.9423
20
60
11
77.9423
21
44
0
LINE
8
CUT
10
78.8083
20
60.5
11
92.6647
21
52.5
0
LINE
8
CUT
10
78.8083
20
43.5
11
92.6647
21
51.5
0
POLYLINE
8
CUT
66
1
70
0
0
VERTEX
8
CUT
10
78.9423
20
58.2679
0
VERTEX
8
CUT
10
78.9423
20
44.7321
0
VERTEX
8
CUT
10
91.5307
20
52
0
VERTEX
8
CUT
10
79.8083
20
58.7679
0
SEQEND
0
POLYLINE
8
CUT
66
1
70
0
0
VERTEX
8
CUT
10
80.8083
20
46.9641
0
VERTEX
8
CUT
10
89.5307
20
52
0
VERTEX
8
CUT
10
79.9423
20
57.5359
0
VERTEX
8
CUT
10
79.9423
20
47.4641
0
SEQEND
0
POLYLINE
8
CUT
66
1
70
0
0
VERTEX
8
CUT
10
86.6647
20
52.5
0
VERTEX
8
CUT
10
80.9423
20
55.8038
0
VERTEX
8
CUT
10
80.9423
20
48.1962
0
VERTEX
8
CUT
10
86.6647
20
51.5
0
SEQEND
0
POLYLINE
8
CUT
66
1
70
0
0
VERTEX
8
CUT
10
81.9423
20
53.0718
0
VERTEX
8
CUT
10
81.9423
20
49.9282
0
VERTEX
8
CUT
10
85.5307
20
52
0
VERTEX
8
CUT
10
82.8083
20
53.5718
0
SEQEND
0
POLYLINE
8
CUT
66
1
70
0
0
VERTEX
8
CUT
10
92.5307
20
49.2679
0
VERTEX
8
CUT
10
92.5307
20
35.7321
0
VERTEX
8
CUT
10
79.9423
20
43
0
VERTEX
8
CUT
10
91.6647
20
49.7679
0
SEQEND
0
POLYLINE
8
CUT
66
1
70
0
0
VERTEX
8
CUT
10
90.6647
20
37.9641
0
VERTEX
8
CUT
10
81.9423
20
43
0
VERTEX
8
CUT
10
91.5307
20
48.5359
0
VERTEX
8
CUT
10
91.5307
20
38.4641
0
SEQEND
0
POLYLINE
8
CUT
66
1
70
0
0
VERTEX
8
CUT
10
84.8083
20
43.5
0
VERTEX
8
CUT
10
90.5307
20
46.8038
0
VERTEX
8
CUT
10
90.5307
20
39.1962
0
VERTEX
8
CUT
10
84.8083
20
42.5
0
SEQEND
0
POLYLINE
8
CUT
66
1
70
0
0
VERTEX
8
CUT
10
89.5307
20
44.0718
0
VERTEX
8
CUT
10
89.5307
20
40.9282
0
VERTEX
8
CUT
10
85.9423
20
43
0
VERTEX
8
CUT
10
88.6647
20
44.5718
0
SEQEND
0
LINE
8
CUT
10
77.9423
20
42
11
77.9423
21
26
0
LINE
8
CUT
10
78.8083
20
42.5
11
92.6647
21
34.5
0
LINE
8
CUT
10
78.8083
20
25.5
11
92.6647
21
33.5
0
POLYLINE
8
CUT
66
1
70
0
0
VERTEX
8
CUT
10
78.9423
20
40.2679
0
VERTEX
8
CUT
10
78.9423
20
26.7321
0
VERTEX
8
CUT
10
91.5307
20
34
0
VERTEX
8
CUT
10
79.8083
20
40.7679
0
SEQEND
0
POLYLINE
8
CUT
66
1
70
0
0
VERTEX
8
CUT
10
80.8083
20
28.9641
0
VERTEX
8
CUT
10
89.5307
20
34
0
VERTEX
8
CUT
10
79.9423
20
39.5359
0
VERTEX
8
CUT
10
79.9423
20
29.4641
0
SEQEND
0
POLYLINE
8
CUT
66
1
70
0
0
VERTEX
8
CUT
10
86.6647
20
34.5
0
VERTEX
8
CUT
10
80.9423
20
37.8038
0
VERTEX
8
CUT
10
80.9423
20
30.1962
0
VERTEX
8
CUT
10
86.6647
20
33.5
0
SEQEND
0
POLYLINE
8
CUT
66
1
70
0
0
VERTEX
8
CUT
10
81.9423
20
35.0718
0
VERTEX
8
CUT
10
81.9423
20
31.9282
0
VERTEX
8
CUT
10
85.5307
20
34
0
VERTEX
8
CUT
10
82.8083
20
35.5718
0
SEQEND
0
POLYLINE
8
CUT
66
1
70
0
0
VERTEX
8
CUT
10
92.5307
20
31.2679
0
VERTEX
8
CUT
10
92.5307
20
17.7321
0
VERTEX
8
CUT
10
79.9423
20
25
0
VERTEX
8
CUT
10
91.6647
20
31.7679
0
SEQEND
0
POLYLINE
8
CUT
66
1
70
0
0
VERTEX
8
CUT
10
90.6647
20
19.9641
0
VERTEX
8
CUT
10
81.9423
20
25
0
VERTEX
8
CUT
10
91.5307
20
30.5359
0
VERTEX
8
CUT
10
91.5307
20
20.4641
0
SEQEND
0
POLYLINE
8
CUT
66
1
70
0
0
VERTEX
8
CUT
10
84.8083
20
25.5
0
VERTEX
8
CUT
10
90.5307
20
28.8038
0
VERTEX
8
CUT
10
90.5307
20
21.1962
0
VERTEX
8
CUT
10
84.8083
20
24.5
0
SEQEND
0
POLYLINE
8
CUT
66
1
70
0
0
VERTEX
8
CUT
10
89.5307
20
26.0718
0
VERTEX
8
CUT
10
89.5307
20
22.9282
0
VERTEX
8
CUT
10
85.9423
20
25
0
VERTEX
8
CUT
10
88.6647
20
26.5718
0
SEQEND
0
LINE
8
CUT
10
77.9423
20
24
11
77.9423
21
8
0
LINE
8
CUT
10
78.8083
20
24.5
11
92.6647
21
16.5
0
LINE
8
CUT
10
78.8083
20
7.5
11
92.6647
21
15.5
0
POLYLINE
8
CUT
66
1
70
0
0
VERTEX
8
CUT
10
78.9423
20
22.2679
0
VERTEX
8
CUT
10
78.9423
20
8.7321
0
VERTEX
8
CUT
10
91.5307
20
16
0
VERTEX
8
CUT
10
79.8083
20
22.7679
0
SEQEND
0
POLYLINE
8
CUT
66
1
70
0
0
VERTEX
8
CUT
10
80.8083
20
10.9641
0
VERTEX
8
CUT
10
89.5307
20
16
0
VERTEX
8
CUT
10
79.9423
20
21.5359
0
VERTEX
8
CUT
10
79.9423
20
11.4641
0
SEQEND
0
POLYLINE
8
CUT
66
1
70
0
0
VERTEX
8
CUT
10
86.6647
20
16.5
0
VERTEX
8
CUT
10
80.9423
20
19.8038
0
VERTEX
8
CUT
10
80.9423
20
12.1962
0
VERTEX
8
CUT
10
86.6647
20
15.5
0
SEQEND
0
POLYLINE
8
CUT
66
1
70
0
0
VERTEX
8
CUT
10
81.9423
20
17.0718
0
VERTEX
8
CUT
10
81.9423
20
13.9282
0
VERTEX
8
CUT
10
85.5307
20
16
0
VERTEX
8
CUT
10
82.8083
20
17.5718
0
SEQEND
0
LINE
8
CUT
10
92.5307
20
13.2679
11
92.5307
21
0
0
POLYLINE
8
CUT
66
1
70
0
0
VERTEX
8
CUT
10
92.0666
20
0
0
VERTEX
8
CUT
10
79.9423
20
7
0
VERTEX
8
CUT
10
91.6647
20
13.7679
0
SEQEND
0
POLYLINE
8
CUT
66
1
70
0
0
VERTEX
8
CUT
10
90.6647
20
1.9641
0
VERTEX
8
CUT
10
81.9423
20
7
0
VERTEX
8
CUT
10
91.5307
20
12.5359
0
VERTEX
8
CUT
10
91.5307
20
2.4641
0
SEQEND
0
POLYLINE
8
CUT
66
1
70
0
0
VERTEX
8
CUT
10
84.8083
20
7.5
0
VERTEX
8
CUT
10
90.5307
20
10.8038
0
VERTEX
8
CUT
10
90.5307
20
3.1962
0
VERTEX
8
CUT
10
84.8083
20
6.5
0
SEQEND
0
POLYLINE
8
CUT
66
1
70
0
0
VERTEX
8
CUT
10
89.5307
20
8.0718
0
VERTEX
8
CUT
10
89.5307
20
4.9282
0
VERTEX
8
CUT
10
85.9423
20
7
0
VERTEX
8
CUT
10
88.6647
20
8.5718
0
SEQEND
0
LINE
8
CUT
10
77.9423
20
6
11
77.9423
21
0
0
LINE
8
CUT
10
78.8083
20
6.5
11
90.0666
21
0
0
LINE
8
CUT
10
78.9423
20
4.2679
11
78.9423
21
0
0
LINE
8
CUT
10
88.0666
20
0
11
79.8083
21
4.7679
0
POLYLINE
8
CUT
66
1
70
0
0
VERTEX
8
CUT
10
86.0666
20
0
0
VERTEX
8
CUT
10
79.9423
20
3.5359
0
VERTEX
8
CUT
10
79.9423
20
0
0
SEQEND
0
POLYLINE
8
CUT
66
1
70
0
0
VERTEX
8
CUT
10
84.0666
20
0
0
VERTEX
8
CUT
10
80.9423
20
1.8038
0
VERTEX
8
CUT
10
80.9423
20
0
0
SEQEND
0
POLYLINE
8
CUT
66
1
70
0
0
VERTEX
8
CUT
10
108.1192
20
70
0
VERTEX
8
CUT
10
108.1192
20
62.7321
0
VERTEX
8
CUT
10
95.5307
20
70
0
VERTEX
8
CUT
10
95.5307
20
70
0
SEQEND
0
POLYLINE
8
CUT
66
1
70
0
0
VERTEX
8
CUT
10
106.2532
20
64.9641
0
VERTEX
8
CUT
10
97.5307
20
70
0
VERTEX
8
CUT
10
97.5307
20
70
0
SEQEND
0
LINE
8
CUT
10
107.1192
20
70
11
107.1192
21
65.4641
0
POLYLINE
8
CUT
66
1
70
0
0
VERTEX
8
CUT
10
106.1192
20
70
0
VERTEX
8
CUT
10
106.1192
20
66.1962
0
VERTEX
8
CUT
10
100.3968
20
69.5
0
SEQEND
0
POLYLINE
8
CUT
66
1
70
0
0
VERTEX
8
CUT
10
105.1192
20
70
0
VERTEX
8
CUT
10
105.1192
20
67.9282
0
VERTEX
8
CUT
10
101.5307
20
70
0
VERTEX
8
CUT
10
101.5307
20
70
0
SEQEND
0
LINE
8
CUT
10
93.5307
20
69
11
93.5307
21
53
0
LINE
8
CUT
10
94.3968
20
69.5
11
108.2532
21
61.5
0
LINE
8
CUT
10
94.3968
20
52.5
11
108.2532
21
60.5
0
POLYLINE
8
CUT
66
1
70
0
0
VERTEX
8
CUT
10
94.5307
20
67.2679
0
VERTEX
8
CUT
10
94.5307
20
53.7321
0
VERTEX
8
CUT
10
107.1192
20
61
0
VERTEX
8
CUT
10
95.3968
20
67.7679
0
SEQEND
0
POLYLINE
8
CUT
66
1
70
0
0
VERTEX
8
CUT
10
96.3968
20
55.9641
0
VERTEX
8
CUT
10
105.1192
20
61
0
VERTEX
8
CUT
10
95.5307
20
66.5359
0
VERTEX
8
CUT
10
95.5307
20
56.4641
0
SEQEND
0
POLYLINE
8
CUT
66
1
70
0
0
VERTEX
8
CUT
10
102.2532
20
61.5
0
VERTEX
8
CUT
10
96.5307
20
64.8038
0
VERTEX
8
CUT
10
96.5307
20
57.1962
0
VERTEX
8
CUT
10
102.2532
20
60.5
0
SEQEND
0
POLYLINE
8
CUT
66
1
70
0
0
VERTEX
8
CUT
10
97.5307
20
62.0718
0
VERTEX
8
CUT
10
97.5307
20
58.9282
0
VERTEX
8
CUT
10
101.1192
20
61
0
VERTEX
8
CUT
10
98.3968
20
62.5718
0
SEQEND
0
POLYLINE
8
CUT
66
1
70
0
0
VERTEX
8
CUT
10
108.1192
20
58.2679
0
VERTEX
8
CUT
10
108.1192
20
44.7321
0
VERTEX
8
CUT
10
95.5307
20
52
0
VERTEX
8
CUT
10
107.2532
20
58.7679
0
SEQEND
0
POLYLINE
8
CUT
66
1
70
0
0
VERTEX
8
CUT
10
106.2532
20
46.9641
0
VERTEX
8
CUT
10
97.5307
20
52
0
VERTEX
8
CUT
10
107.1192
20
57.5359
0
VERTEX
8
CUT
10
107.1192
20
47.4641
0
SEQEND
0
POLYLINE
8
CUT
66
1
70
0
0
VERTEX
8
CUT
10
100.3968
20
52.5
0
VERTEX
8
CUT
10
106.1192
20
55.8038
0
VERTEX
8
CUT
10
106.1192
20
48.1962
0
VERTEX
8
CUT
10
100.3968
20
51.5
0
SEQEND
0
POLYLINE
8
CUT
66
1
70
0
0
VERTEX
8
CUT
10
105.1192
20
53.0718
0
VERTEX
8
CUT
10
105.1192
20
49.9282
0
VERTEX
8
CUT
10
101.5307
20
52
0
VERTEX
8
CUT
10
104.2532
20
53.5718
0
SEQEND
0
LINE
8
CUT
10
93.5307
20
51
11
93.5307
21
35
0
LINE
8
CUT
10
94.3968
20
51.5
11
108.2532
21
43.5
0
LINE
8
CUT
10
94.3968
20
34.5
11
108.2532
21
42.5
0
POLYLINE
8
CUT
66
1
70
0
0
VERTEX
8
CUT
10
94.5307
20
49.2679
0
VERTEX
8
CUT
10
94.5307
20
35.7321
0
VERTEX
8
CUT
10
107.1192
20
43
0
VERTEX
8
CUT
10
95.3968
20
49.7679
0
SEQEND
0
POLYLINE
8
CUT
66
1
70
0
0
VERTEX
8
CUT
10
96.3968
20
37.9641
0
VERTEX
8
CUT
10
105.1192
20
43
0
VERTEX
8
CUT
10
95.5307
20
48.5359
0
VERTEX
8
CUT
10
95.5307
20
38.4641
0
SEQEND
0
POLYLINE
8
CUT
66
1
70
0
0
VERTEX
8
CUT
10
102.2532
20
43.5
0
VERTEX
8
CUT
10
96.5307
20
46.8038
0
VERTEX
8
CUT
10
96.5307
20
39.1962
0
VERTEX
8
CUT
10
102.2532
20
42.5
0
SEQEND
0
POLYLINE
8
CUT
66
1
70
0
0
VERTEX
8
CUT
10
97.5307
20
44.0718
0
VERTEX
8
CUT
10
97.5307
20
40.9282
0
VERTEX
8
CUT
10
101.1192
20
43
0
VERTEX
8
CUT
10
98.3968
20
44.5718
0
SEQEND
0
POLYLINE
8
CUT
66
1
70
0
0
VERTEX
8
CUT
10
108.1192
20
40.2679
0
VERTEX
8
CUT
10
108.1192
20
26.7321
0
VERTEX
8
CUT
10
95.5307
20
34
0
VERTEX
8
CUT
10
107.2532
20
40.7679
0
SEQEND
0
POLYLINE
8
CUT
66
1
70
0
0
VERTEX
8
CUT
10
106.2532
20
28.9641
0
VERTEX
8
CUT
10
97.5307
20
34
0
VERTEX
8
CUT
10
107.1192
20
39.5359
0
VERTEX
8
CUT
10
107.1192
20
29.4641
0
SEQEND
0
POLYLINE
8
CUT
66
1
70
0
0
VERTEX
8
CUT
10
100.3968
20
34.5
0
VERTEX
8
CUT
10
106.1192
20
37.8038
0
VERTEX
8
CUT
10
106.1192
20
30.1962
0
VERTEX
8
CUT
10
100.3968
20
33.5
0
SEQEND
0
POLYLINE
8
CUT
66
1
70
0
0
VERTEX
8
CUT
10
105.1192
20
35.0718
0
VERTEX
8
CUT
10
105.1192
20
31.9282
0
VERTEX
8
CUT
10
101.5307
20
34
0
VERTEX
8
CUT
10
104.2532
20
35.5718
0
SEQEND
0
LINE
8
CUT
10
93.5307
20
33
11
93.5307
21
17
0
LINE
8
CUT
10
94.3968
20
33.5
11
108.2532
21
25.5
0
LINE
8
CUT
10
94.3968
20
16.5
11
108.2532
21
24.5
0
POLYLINE
8
CUT
66
1
70
0
0
VERTEX
8
CUT
10
94.5307
20
31.2679
0
VERTEX
8
CUT
10
94.5307
20
17.7321
0
VERTEX
8
CUT
10
107.1192
20
25
0
VERTEX
8
CUT
10
95.3968
20
31.7679
0
SEQEND
0
POLYLINE
8
CUT
66
1
70
0
0
VERTEX
8
CUT
10
96.3968
20
19.9641
0
VERTEX
8
CUT
10
105.1192
20
25
0
VERTEX
8
CUT
10
95.5307
20
30.5359
0
VERTEX
8
CUT
10
95.5307
20
20.4641
0
SEQEND
0
POLYLINE
8
CUT
66
1
70
0
0
VERTEX
8
CUT
10
102.2532
20
25.5
0
VERTEX
8
CUT
10
96.5307
20
28.8038
0
VERTEX
8
CUT
10
96.5307
20
21.1962
0
VERTEX
8
CUT
10
102.2532
20
24.5
0
SEQEND
0
POLYLINE
8
CUT
66
1
70
0
0
VERTEX
8
CUT
10
97.5307
20
26.0718
0
VERTEX
8
CUT
10
97.5307
20
22.9282
0
VERTEX
8
CUT
10
101.1192
20
25
0
VERTEX
8
CUT
10
98.3968
20
26.5718
0
SEQEND
0
POLYLINE
8
CUT
66
1
70
0
0
VERTEX
8
CUT
10
108.1192
20
22.2679
0
VERTEX
8
CUT
10
108.1192
20
8.7321
0
VERTEX
8
CUT
10
95.5307
20
16
0
VERTEX
8
CUT
10
107.2532
20
22.7679
0
SEQEND
0
POLYLINE
8
CUT
66
1
70
0
0
VERTEX
8
CUT
10
106.2532
20
10.9641
0
VERTEX
8
CUT
10
97.5307
20
16
0
VERTEX
8
CUT
10
107.1192
20
21.5359
0
VERTEX
8
CUT
10
107.1192
20
11.4641
0
SEQEND
0
POLYLINE
8
CUT
66
1
70
0
0
VERTEX
8
CUT
10
100.3968
20
16.5
0
VERTEX
8
CUT
10
106.1192
20
19.8038
0
VERTEX
8
CUT
10
106.1192
20
12.1962
0
VERTEX
8
CUT
10
100.3968
20
15.5
0
SEQEND
0
POLYLINE
8
CUT
66
1
70
0
0
VERTEX
8
CUT
10
105.1192
20
17.0718
0
VERTEX
8
CUT
10
105.1192
20
13.9282
0
VERTEX
8
CUT
10
101.5307
20
16
0
VERTEX
8
CUT
10
104.2532
20
17.5718
0
SEQEND
0
LINE
8
CUT
10
93.5307
20
15
11
93.5307
21
0
0
LINE
8
CUT
10
94.3968
20
15.5
11
108.2532
21
7.5
0
LINE
8
CUT
10
96.9948
20
0
11
108.2532
21
6.5
0
LINE
8
CUT
10
94.5307
20
13.2679
11
94.5307
21
0
0
POLYLINE
8
CUT
66
1
70
0
0
VERTEX
8
CUT
10
94.9948
20
0
0
VERTEX
8
CUT
10
107.1192
20
7
0
VERTEX
8
CUT
10
95.3968
20
13.7679
0
SEQEND
0
POLYLINE
8
CUT
66
1
70
0
0
VERTEX
8
CUT
10
96.3968
20
1.9641
0
VERTEX
8
CUT
10
105.1192
20
7
0
VERTEX
8
CUT
10
95.5307
20
12.5359
0
VERTEX
8
CUT
10
95.5307
20
2.4641
0
SEQEND
0
POLYLINE
8
CUT
66
1
70
0
0
VERTEX
8
CUT
10
102.2532
20
7.5
0
VERTEX
8
CUT
10
96.5307
20
10.8038
0
VERTEX
8
CUT
10
96.5307
20
3.1962
0
VERTEX
8
CUT
10
102.2532
20
6.5
0
SEQEND
0
POLYLINE
8
CUT
66
1
70
0
0
VERTEX
8
CUT
10
97.5307
20
8.0718
0
VERTEX
8
CUT
10
97.5307
20
4.9282
0
VERTEX
8
CUT
10
101.1192
20
7
0
VERTEX
8
CUT
10
98.3968
20
8.5718
0
SEQEND
0
LINE
8
CUT
10
108.1192
20
4.2679
11
108.1192
21
0
0
LINE
8
CUT
10
98.9948
20
0
11
107.2532
21
4.7679
0
POLYLINE
8
CUT
66
1
70
0
0
VERTEX
8
CUT
10
100.9948
20
0
0
VERTEX
8
CUT
10
107.1192
20
3.5359
0
VERTEX
8
CUT
10
107.1192
20
0
0
SEQEND
0
POLYLINE
8
CUT
66
1
70
0
0
VERTEX
8
CUT
10
102.9948
20
0
0
VERTEX
8
CUT
10
106.1192
20
1.8038
0
VERTEX
8
CUT
10
106.1192
20
0
0
SEQEND
0
LINE
8
CUT
10
109.1192
20
70
11
109.1192
21
62
0
LINE
8
CUT
10
109.9852
20
61.5
11
120
21
67.282
0
POLYLINE
8
CUT
66
1
70
0
0
VERTEX
8
CUT
10
110.1192
20
70
0
VERTEX
8
CUT
10
110.1192
20
62.7321
0
VERTEX
8
CUT
10
120
20
68.4367
0
SEQEND
0
LINE
8
CUT
10
111.9852
20
64.9641
11
120
21
69.5914
0
LINE
8
CUT
10
111.1192
20
70
11
111.1192
21
65.4641
0
POLYLINE
8
CUT
66
1
70
0
0
VERTEX
8
CUT
10
112.1192
20
70
0
VERTEX
8
CUT
10
112.1192
20
66.1962
0
VERTEX
8
CUT
10
117.8416
20
69.5
0
SEQEND
0
POLYLINE
8
CUT
66
1
70
0
0
VERTEX
8
CUT
10
113.1192
20
70
0
VERTEX
8
CUT
10
113.1192
20
67.9282
0
VERTEX
8
CUT
10
116.7077
20
70
0
VERTEX
8
CUT
10
116.7077
20
70
0
SEQEND
0
POLYLINE
8
CUT
66
1
70
0
0
VERTEX
8
CUT
10
120
20
55.8727
0
VERTEX
8
CUT
10
111.1192
20
61
0
VERTEX
8
CUT
10
120
20
66.1273
0
SEQEND
0
POLYLINE
8
CUT
66
1
70
0
0
VERTEX
8
CUT
10
120
20
57.0274
0
VERTEX
8
CUT
10
113.1192
20
61
0
VERTEX
8
CUT
10
120
20
64.9726
0
SEQEND
0
LINE
8
CUT
10
115.9852
20
61.5
11
120
21
63.8179
0
LINE
8
CUT
10
120
20
58.1821
11
115.9852
21
60.5
0
POLYLINE
8
CUT
66
1
70
0
0
VERTEX
8
CUT
10
120
20
59.3368
0
VERTEX
8
CUT
10
117.1192
20
61
0
VERTEX
8
CUT
10
119.8416
20
62.5718
0
SEQEND
0
LINE
8
CUT
10
109.1192
20
60
11
109.1192
21
44
0
LINE
8
CUT
10
109.9852
20
60.5
11
120
21
54.718
0
LINE
8
CUT
10
109.9852
20
43.5
11
120
21
49.282
0
POLYLINE
8
CUT
66
1
70
0
0
VERTEX
8
CUT
10
110.1192
20
58.2679
0
VERTEX
8
CUT
10
110.1192
20
44.7321
0
VERTEX
8
CUT
10
120
20
50.4367
0
SEQEND
0
LINE
8
CUT
10
120
20
53.5633
11
110.9852
21
58.7679
0
LINE
8
CUT
10
111.9852
20
46.9641
11
120
21
51.5914
0
POLYLINE
8
CUT
66
1
70
0
0
VERTEX
8
CUT
10
120
20
52.4086
0
VERTEX
8
CUT
10
111.1192
20
57.5359
0
VERTEX
8
CUT
10
111.1192
20
47.4641
0
SEQEND
0
POLYLINE
8
CUT
66
1
70
0
0
VERTEX
8
CUT
10
117.8416
20
52.5
0
VERTEX
8
CUT
10
112.1192
20
55.8038
0
VERTEX
8
CUT
10
112.1192
20
48.1962
0
VERTEX
8
CUT
10
117.8416
20
51.5
0
SEQEND
0
POLYLINE
8
CUT
66
1
70
0
0
VERTEX
8
CUT
10
113.1192
20
53.0718
0
VERTEX
8
CUT
10
113.1192
20
49.9282
0
VERTEX
8
CUT
10
116.7077
20
52
0
VERTEX
8
CUT
10
113.9852
20
53.5718
0
SEQEND
0
POLYLINE
8
CUT
66
1
70
0
0
VERTEX
8
CUT
10
120
20
37.8727
0
VERTEX
8
CUT
10
111.1192
20
43
0
VERTEX
8
CUT
10
120
20
48.1273
0
SEQEND
0
POLYLINE
8
CUT
66
1
70
0
0
VERTEX
8
CUT
10
120
20
39.0274
0
VERTEX
8
CUT
10
113.1192
20
43
0
VERTEX
8
CUT
10
120
20
46.9726
0
SEQEND
0
LINE
8
CUT
10
115.9852
20
43.5
11
120
21
45.8179
0
LINE
8
CUT
10
120
20
40.1821
11
115.9852
21
42.5
0
POLYLINE
8
CUT
66
1
70
0
0
VERTEX
8
CUT
10
120
20
41.3368
0
VERTEX
8
CUT
10
117.1192
20
43
0
VERTEX
8
CUT
10
119.8416
20
44.5718
0
SEQEND
0
LINE
8
CUT
10
109.1192
20
42
11
109.1192
21
26
0
LINE
8
CUT
10
109.9852
20
42.5
11
120
21
36.718
0
LINE
8
CUT
10
109.9852
20
25.5
11
120
21
31.282
0
POLYLINE
8
CUT
66
1
70
0
0
VERTEX
8
CUT
10
110.1192
20
40.2679
0
VERTEX
8
CUT
10
110.1192
20
26.7321
0
VERTEX
8
CUT
10
120
20
32.4367
0
SEQEND
0
LINE
8
CUT
10
120
20
35.5633
11
110.9852
21
40.7679
0
LINE
8
CUT
10
111.9852
20
28.9641
11
120
21
33.5914
0
POLYLINE
8
CUT
66
1
70
0
0
VERTEX
8
CUT
10
120
20
34.4086
0
VERTEX
8
CUT
10
111.1192
20
39.5359
0
VERTEX
8
CUT
10
111.1192
20
29.4641
0
SEQEND
0
POLYLINE
8
CUT
66
1
70
0
0
VERTEX
8
CUT
10
117.8416
20
34.5
0
VERTEX
8
CUT
10
112.1192
20
37.8038
0
VERTEX
8
CUT
10
112.1192
20
30.1962
0
VERTEX
8
CUT
10
117.8416
20
33.5
0
SEQEND
0
POLYLINE
8
CUT
66
1
70
0
0
VERTEX
8
CUT
10
113.1192
20
35.0718
0
VERTEX
8
CUT
10
113.1192
20
31.9282
0
VERTEX
8
CUT
10
116.7077
20
34
0
VERTEX
8
CUT
10
113.9852
20
35.5718
0
SEQEND
0
POLYLINE
8
CUT
66
1
70
0
0
VERTEX
8
CUT
10
120
20
19.8727
0
VERTEX
8
CUT
10
111.1192
20
25
0
VERTEX
8
CUT
10
120
20
30.1273
0
SEQEND
0
POLYLINE
8
CUT
66
1
70
0
0
VERTEX
8
CUT
10
120
20
21.0274
0
VERTEX
8
CUT
10
113.1192
20
25
0
VERTEX
8
CUT
10
120
20
28.9726
0
SEQEND
0
LINE
8
CUT
10
115.9852
20
25.5
11
120
21
27.8179
0
LINE
8
CUT
10
120
20
22.1821
11
115.9852
21
24.5
0
POLYLINE
8
CUT
66
1
70
0
0
VERTEX
8
CUT
10
120
20
23.3368
0
VERTEX
8
CUT
10
117.1192
20
25
0
VERTEX
8
CUT
10
119.8416
20
26.5718
0
SEQEND
0
LINE
8
CUT
10
109.1192
20
24
11
109.1192
21
8
0
LINE
8
CUT
10
109.9852
20
24.5
11
120
21
18.718
0
LINE
8
CUT
10
109.9852
20
7.5
11
120
21
13.282
0
POLYLINE
8
CUT
66
1
70
0
0
VERTEX
8
CUT
10
110.1192
20
22.2679
0
VERTEX
8
CUT
10
110.1192
20
8.7321
0
VERTEX
8
CUT
10
120
20
14.4367
0
SEQEND
0
LINE
8
CUT
10
120
20
17.5633
11
110.9852
21
22.7679
0
LINE
8
CUT
10
111.9852
20
10.9641
11
120
21
15.5914
0
POLYLINE
8
CUT
66
1
70
0
0
VERTEX
8
CUT
10
120
20
16.4086
0
VERTEX
8
CUT
10
111.1192
20
21.5359
0
VERTEX
8
CUT
10
111.1192
20
11.4641
0
SEQEND
0
POLYLINE
8
CUT
66
1
70
0
0
VERTEX
8
CUT
10
117.8416
20
16.5
0
VERTEX
8
CUT
10
112.1192
20
19.8038
0
VERTEX
8
CUT
10
112.1192
20
12.1962
0
VERTEX
8
CUT
10
117.8416
20
15.5
0
SEQEND
0
POLYLINE
8
CUT
66
1
70
0
0
VERTEX
8
CUT
10
113.1192
20
17.0718
0
VERTEX
8
CUT
10
113.1192
20
13.9282
0
VERTEX
8
CUT
10
116.7077
20
16
0
VERTEX
8
CUT
10
113.9852
20
17.5718
0
SEQEND
0
POLYLINE
8
CUT
66
1
70
0
0
VERTEX
8
CUT
10
120
20
1.8727
0
VERTEX
8
CUT
10
111.1192
20
7
0
VERTEX
8
CUT
10
120
20
12.1273
0
SEQEND
0
POLYLINE
8
CUT
66
1
70
0
0
VERTEX
8
CUT
10
120
20
3.0274
0
VERTEX
8
CUT
10
113.1192
20
7
0
VERTEX
8
CUT
10
120
20
10.9726
0
SEQEND
0
LINE
8
CUT
10
115.9852
20
7.5
11
120
21
9.8179
0
LINE
8
CUT
10
120
20
4.1821
11
115.9852
21
6.5
0
POLYLINE
8
CUT
66
1
70
0
0
VERTEX
8
CUT
10
120
20
5.3368
0
VERTEX
8
CUT
10
117.1192
20
7
0
VERTEX
8
CUT
10
119.8416
20
8.5718
0
SEQEND
0
LINE
8
CUT
10
109.1192
20
6
11
109.1192
21
0
0
LINE
8
CUT
10
109.9852
20
6.5
11
120
21
0.718
0
LINE
8
CUT
10
110.1192
20
4.2679
11
110.1192
21
0
0
LINE
8
CUT
10
119.2436
20
0
11
110.9852
21
4.7679
0
POLYLINE
8
CUT
66
1
70
0
0
VERTEX
8
CUT
10
117.2436
20
0
0
VERTEX
8
CUT
10
111.1192
20
3.5359
0
VERTEX
8
CUT
10
111.1192
20
0
0
SEQEND
0
POLYLINE
8
CUT
66
1
70
0
0
VERTEX
8
CUT
10
115.2436
20
0
0
VERTEX
8
CUT
10
112.1192
20
1.8038
0
VERTEX
8
CUT
10
112.1192
20
0
0
SEQEND
0
POLYLINE
8
CUT
66
1
70
0
0
VERTEX
8
CUT
10
0
20
70
0
VERTEX
8
CUT
10
120
20
70
0
VERTEX
8
CUT
10
120
20
0
0
VERTEX
8
CUT
10
0
20
0
0
VERTEX
8
CUT
10
0
20
70
0
SEQEND
0
ENDSEC
0
EOF
