0
SECTION
2
HEADER
9
$ACADVER
1
AC1009
9
$INSUNITS
70
4
0
ENDSEC
0
SECTION
2
TABLES
0
TABLE
2
LAYER
70
1
0
LAYER
2
CUT
70
0
62
1
6
CONTINUOUS
0
ENDTAB
0
ENDSEC
0
SECTION
2
ENTITIES
0
POLYLINE
8
CUT
66
1
70
0
0
VERTEX
8
CUT
10
19.2846
20
70
0
VERTEX
8
CUT
10
19.2846
20
60.5981
0
VERTEX
8
CUT
10
3
20
70
0
VERTEX
8
CUT
10
3
20
70
0
SEQEND
0
POLYLINE
8
CUT
66
1
70
0
0
VERTEX
8
CUT
10
16.4856
20
63.9462
0
VERTEX
8
CUT
10
6
20
70
0
VERTEX
8
CUT
10
6
20
70
0
SEQEND
0
LINE
8
CUT
10
17.7846
20
70
11
17.7846
21
64.6962
0
POLYLINE
8
CUT
66
1
70
0
0
VERTEX
8
CUT
10
16.2846
20
70
0
VERTEX
8
CUT
10
16.2846
20
65.7942
0
VERTEX
8
CUT
10
10.299
20
69.25
0
SEQEND
0
LINE
8
CUT
10
0
20
68.5
11
0
21
47.5
0
LINE
8
CUT
10
1.299
20
69.25
11
19.4856
21
58.75
0
LINE
8
CUT
10
1.299
20
46.75
11
19.4856
21
57.25
0
POLYLINE
8
CUT
66
1
70
0
0
VERTEX
8
CUT
10
1.5
20
65.9019
0
VERTEX
8
CUT
10
1.5
20
48.5981
0
VERTEX
8
CUT
10
17.7846
20
58
0
VERTEX
8
CUT
10
2.799
20
66.6519
0
SEQEND
0
POLYLINE
8
CUT
66
1
70
0
0
VERTEX
8
CUT
10
4.299
20
51.9462
0
VERTEX
8
CUT
10
14.7846
20
58
0
VERTEX
8
CUT
10
3
20
64.8038
0
VERTEX
8
CUT
10
3
20
52.6962
0
SEQEND
0
POLYLINE
8
CUT
66
1
70
0
0
VERTEX
8
CUT
10
10.4856
20
58.75
0
VERTEX
8
CUT
10
4.5
20
62.2058
0
VERTEX
8
CUT
10
4.5
20
53.7942
0
VERTEX
8
CUT
10
10.4856
20
57.25
0
SEQEND
0
POLYLINE
8
CUT
66
1
70
0
0
VERTEX
8
CUT
10
19.2846
20
53.9019
0
VERTEX
8
CUT
10
19.2846
20
36.5981
0
VERTEX
8
CUT
10
3
20
46
0
VERTEX
8
CUT
10
17.9856
20
54.6519
0
SEQEND
0
POLYLINE
8
CUT
66
1
70
0
0
VERTEX
8
CUT
10
16.4856
20
39.9462
0
VERTEX
8
CUT
10
6
20
46
0
VERTEX
8
CUT
10
17.7846
20
52.8038
0
VERTEX
8
CUT
10
17.7846
20
40.6962
0
SEQEND
0
POLYLINE
8
CUT
66
1
70
0
0
VERTEX
8
CUT
10
10.299
20
46.75
0
VERTEX
8
CUT
10
16.2846
20
50.2058
0
VERTEX
8
CUT
10
16.2846
20
41.7942
0
VERTEX
8
CUT
10
10.299
20
45.25
0
SEQEND
0
LINE
8
CUT
10
0
20
44.5
11
0
21
23.5
0
LINE
8
CUT
10
1.299
20
45.25
11
19.4856
21
34.75
0
LINE
8
CUT
10
1.299
20
22.75
11
19.4856
21
33.25
0
POLYLINE
8
CUT
66
1
70
0
0
VERTEX
8
CUT
10
1.5
20
41.9019
0
VERTEX
8
CUT
10
1.5
20
24.5981
0
VERTEX
8
CUT
10
17.7846
20
34
0
VERTEX
8
CUT
10
2.799
20
42.6519
0
SEQEND
0
POLYLINE
8
CUT
66
1
70
0
0
VERTEX
8
CUT
10
4.299
20
27.9462
0
VERTEX
8
CUT
10
14.7846
20
34
0
VERTEX
8
CUT
10
3
20
40.8038
0
VERTEX
8
CUT
10
3
20
28.6962
0
SEQEND
0
POLYLINE
8
CUT
66
1
70
0
0
VERTEX
8
CUT
10
10.4856
20
34.75
0
VERTEX
8
CUT
10
4.5
20
38.2058
0
VERTEX
8
CUT
10
4.5
20
29.7942
0
VERTEX
8
CUT
10
10.4856
20
33.25
0
SEQEND
0
POLYLINE
8
CUT
66
1
70
0
0
VERTEX
8
CUT
10
19.2846
20
29.9019
0
VERTEX
8
CUT
10
19.2846
20
12.5981
0
VERTEX
8
CUT
10
3
20
22
0
VERTEX
8
CUT
10
17.9856
20
30.6519
0
SEQEND
0
POLYLINE
8
CUT
66
1
70
0
0
VERTEX
8
CUT
10
16.4856
20
15.9462
0
VERTEX
8
CUT
10
6
20
22
0
VERTEX
8
CUT
10
17.7846
20
28.8038
0
VERTEX
8
CUT
10
17.7846
20
16.6962
0
SEQEND
0
POLYLINE
8
CUT
66
1
70
0
0
VERTEX
8
CUT
10
10.299
20
22.75
0
VERTEX
8
CUT
10
16.2846
20
26.2058
0
VERTEX
8
CUT
10
16.2846
20
17.7942
0
VERTEX
8
CUT
10
10.299
20
21.25
0
SEQEND
0
LINE
8
CUT
10
0
20
20.5
11
0
21
0
0
LINE
8
CUT
10
1.299
20
21.25
11
19.4856
21
10.75
0
LINE
8
CUT
10
3.4641
20
0
11
19.4856
21
9.25
0
POLYLINE
8
CUT
66
1
70
0
0
VERTEX
8
CUT
10
1.5
20
17.9019
0
VERTEX
8
CUT
10
1.5
20
0.5981
0
VERTEX
8
CUT
10
17.7846
20
10
0
VERTEX
8
CUT
10
2.799
20
18.6519
0
SEQEND
0
POLYLINE
8
CUT
66
1
70
0
0
VERTEX
8
CUT
10
4.299
20
3.9462
0
VERTEX
8
CUT
10
14.7846
20
10
0
VERTEX
8
CUT
10
3
20
16.8038
0
VERTEX
8
CUT
10
3
20
4.6962
0
SEQEND
0
POLYLINE
8
CUT
66
1
70
0
0
VERTEX
8
CUT
10
10.4856
20
10.75
0
VERTEX
8
CUT
10
4.5
20
14.2058
0
VERTEX
8
CUT
10
4.5
20
5.7942
0
VERTEX
8
CUT
10
10.4856
20
9.25
0
SEQEND
0
LINE
8
CUT
10
19.2846
20
5.9019
11
19.2846
21
0
0
LINE
8
CUT
10
6.4641
20
0
11
17.9856
21
6.6519
0
POLYLINE
8
CUT
66
1
70
0
0
VERTEX
8
CUT
10
9.4641
20
0
0
VERTEX
8
CUT
10
17.7846
20
4.8038
0
VERTEX
8
CUT
10
17.7846
20
0
0
SEQEND
0
POLYLINE
8
CUT
66
1
70
0
0
VERTEX
8
CUT
10
12.4641
20
0
0
VERTEX
8
CUT
10
16.2846
20
2.2058
0
VERTEX
8
CUT
10
16.2846
20
0
0
SEQEND
0
LINE
8
CUT
10
20.7846
20
70
11
20.7846
21
59.5
0
LINE
8
CUT
10
22.0836
20
58.75
11
40.2702
21
69.25
0
POLYLINE
8
CUT
66
1
70
0
0
VERTEX
8
CUT
10
22.2846
20
70
0
VERTEX
8
CUT
10
22.2846
20
60.5981
0
VERTEX
8
CUT
10
38.5692
20
70
0
VERTEX
8
CUT
10
38.5692
20
70
0
SEQEND
0
POLYLINE
8
CUT
66
1
70
0
0
VERTEX
8
CUT
10
25.0836
20
63.9462
0
VERTEX
8
CUT
10
35.5692
20
70
0
VERTEX
8
CUT
10
35.5692
20
70
0
SEQEND
0
LINE
8
CUT
10
23.7846
20
70
11
23.7846
21
64.6962
0
POLYLINE
8
CUT
66
1
70
0
0
VERTEX
8
CUT
10
25.2846
20
70
0
VERTEX
8
CUT
10
25.2846
20
65.7942
0
VERTEX
8
CUT
10
31.2702
20
69.25
0
SEQEND
0
POLYLINE
8
CUT
66
1
70
0
0
VERTEX
8
CUT
10
40.0692
20
65.9019
0
VERTEX
8
CUT
10
40.0692
20
48.5981
0
VERTEX
8
CUT
10
23.7846
20
58
0
VERTEX
8
CUT
10
38.7702
20
66.6519
0
SEQEND
0
POLYLINE
8
CUT
66
1
70
0
0
VERTEX
8
CUT
10
37.2702
20
51.9462
0
VERTEX
8
CUT
10
26.7846
20
58
0
VERTEX
8
CUT
10
38.5692
20
64.8038
0
VERTEX
8
CUT
10
38.5692
20
52.6962
0
SEQEND
0
POLYLINE
8
CUT
66
1
70
0
0
VERTEX
8
CUT
10
31.0836
20
58.75
0
VERTEX
8
CUT
10
37.0692
20
62.2058
0
VERTEX
8
CUT
10
37.0692
20
53.7942
0
VERTEX
8
CUT
10
31.0836
20
57.25
0
SEQEND
0
LINE
8
CUT
10
20.7846
20
56.5
11
20.7846
21
35.5
0
LINE
8
CUT
10
22.0836
20
57.25
11
40.2702
21
46.75
0
LINE
8
CUT
10
22.0836
20
34.75
11
40.2702
21
45.25
0
POLYLINE
8
CUT
66
1
70
0
0
VERTEX
8
CUT
10
22.2846
20
53.9019
0
VERTEX
8
CUT
10
22.2846
20
36.5981
0
VERTEX
8
CUT
10
38.5692
20
46
0
VERTEX
8
CUT
10
23.5836
20
54.6519
0
SEQEND
0
POLYLINE
8
CUT
66
1
70
0
0
VERTEX
8
CUT
10
25.0836
20
39.9462
0
VERTEX
8
CUT
10
35.5692
20
46
0
VERTEX
8
CUT
10
23.7846
20
52.8038
0
VERTEX
8
CUT
10
23.7846
20
40.6962
0
SEQEND
0
POLYLINE
8
CUT
66
1
70
0
0
VERTEX
8
CUT
10
31.2702
20
46.75
0
VERTEX
8
CUT
10
25.2846
20
50.2058
0
VERTEX
8
CUT
10
25.2846
20
41.7942
0
VERTEX
8
CUT
10
31.2702
20
45.25
0
SEQEND
0
POLYLINE
8
CUT
66
1
70
0
0
VERTEX
8
CUT
10
40.0692
20
41.9019
0
VERTEX
8
CUT
10
40.0692
20
24.5981
0
VERTEX
8
CUT
10
23.7846
20
34
0
VERTEX
8
CUT
10
38.7702
20
42.6519
0
SEQEND
0
POLYLINE
8
CUT
66
1
70
0
0
VERTEX
8
CUT
10
37.2702
20
27.9462
0
VERTEX
8
CUT
10
26.7846
20
34
0
VERTEX
8
CUT
10
38.5692
20
40.8038
0
VERTEX
8
CUT
10
38.5692
20
28.6962
0
SEQEND
0
POLYLINE
8
CUT
66
1
70
0
0
VERTEX
8
CUT
10
31.0836
20
34.75
0
VERTEX
8
CUT
10
37.0692
20
38.2058
0
VERTEX
8
CUT
10
37.0692
20
29.7942
0
VERTEX
8
CUT
10
31.0836
20
33.25
0
SEQEND
0
LINE
8
CUT
10
20.7846
20
32.5
11
20.7846
21
11.5
0
LINE
8
CUT
10
22.0836
20
33.25
11
40.2702
21
22.75
0
LINE
8
CUT
10
22.0836
20
10.75
11
40.2702
21
21.25
0
POLYLINE
8
CUT
66
1
70
0
0
VERTEX
8
CUT
10
22.2846
20
29.9019
0
VERTEX
8
CUT
10
22.2846
20
12.5981
0
VERTEX
8
CUT
10
38.5692
20
22
0
VERTEX
8
CUT
10
23.5836
20
30.6519
0
SEQEND
0
POLYLINE
8
CUT
66
1
70
0
0
VERTEX
8
CUT
10
25.0836
20
15.9462
0
VERTEX
8
CUT
10
35.5692
20
22
0
VERTEX
8
CUT
10
23.7846
20
28.8038
0
VERTEX
8
CUT
10
23.7846
20
16.6962
0
SEQEND
0
POLYLINE
8
CUT
66
1
70
0
0
VERTEX
8
CUT
10
31.2702
20
22.75
0
VERTEX
8
CUT
10
25.2846
20
26.2058
0
VERTEX
8
CUT
10
25.2846
20
17.7942
0
VERTEX
8
CUT
10
31.2702
20
21.25
0
SEQEND
0
POLYLINE
8
CUT
66
1
70
0
0
VERTEX
8
CUT
10
40.0692
20
17.9019
0
VERTEX
8
CUT
10
40.0692
20
0.5981
0
VERTEX
8
CUT
10
23.7846
20
10
0
VERTEX
8
CUT
10
38.7702
20
18.6519
0
SEQEND
0
POLYLINE
8
CUT
66
1
70
0
0
VERTEX
8
CUT
10
37.2702
20
3.9462
0
VERTEX
8
CUT
10
26.7846
20
10
0
VERTEX
8
CUT
10
38.5692
20
16.8038
0
VERTEX
8
CUT
10
38.5692
20
4.6962
0
SEQEND
0
POLYLINE
8
CUT
66
1
70
0
0
VERTEX
8
CUT
10
31.0836
20
10.75
0
VERTEX
8
CUT
10
37.0692
20
14.2058
0
VERTEX
8
CUT
10
37.0692
20
5.7942
0
VERTEX
8
CUT
10
31.0836
20
9.25
0
SEQEND
0
LINE
8
CUT
10
20.7846
20
8.5
11
20.7846
21
0
0
LINE
8
CUT
10
22.0836
20
9.25
11
38.1051
21
0
0
LINE
8
CUT
10
22.2846
20
5.9019
11
22.2846
21
0
0
LINE
8
CUT
10
35.1051
20
0
11
23.5836
21
6.6519
0
POLYLINE
8
CUT
66
1
70
0
0
VERTEX
8
CUT
10
32.1051
20
0
0
VERTEX
8
CUT
10
23.7846
20
4.8038
0
VERTEX
8
CUT
10
23.7846
20
0
0
SEQEND
0
POLYLINE
8
CUT
66
1
70
0
0
VERTEX
8
CUT
10
29.1051
20
0
0
VERTEX
8
CUT
10
25.2846
20
2.2058
0
VERTEX
8
CUT
10
25.2846
20
0
0
SEQEND
0
POLYLINE
8
CUT
66
1
70
0
0
VERTEX
8
CUT
10
60.8538
20
70
0
VERTEX
8
CUT
10
60.8538
20
60.5981
0
VERTEX
8
CUT
10
44.5692
20
70
0
VERTEX
8
CUT
10
44.5692
20
70
0
SEQEND
0
POLYLINE
8
CUT
66
1
70
0
0
VERTEX
8
CUT
10
58.0548
20
63.9462
0
VERTEX
8
CUT
10
47.5692
20
70
0
VERTEX
8
CUT
10
47.5692
20
70
0
SEQEND
0
LINE
8
CUT
10
59.3538
20
70
11
59.3538
21
64.6962
0
POLYLINE
8
CUT
66
1
70
0
0
VERTEX
8
CUT
10
57.8538
20
70
0
VERTEX
8
CUT
10
57.8538
20
65.7942
0
VERTEX
8
CUT
10
51.8683
20
69.25
0
SEQEND
0
LINE
8
CUT
10
41.5692
20
68.5
11
41.5692
21
47.5
0
LINE
8
CUT
10
42.8683
20
69.25
11
61.0548
21
58.75
0
LINE
8
CUT
10
42.8683
20
46.75
11
61.0548
21
57.25
0
POLYLINE
8
CUT
66
1
70
0
0
VERTEX
8
CUT
10
43.0692
20
65.9019
0
VERTEX
8
CUT
10
43.0692
20
48.5981
0
VERTEX
8
CUT
10
59.3538
20
58
0
VERTEX
8
CUT
10
44.3683
20
66.6519
0
SEQEND
0
POLYLINE
8
CUT
66
1
70
0
0
VERTEX
8
CUT
10
45.8683
20
51.9462
0
VERTEX
8
CUT
10
56.3538
20
58
0
VERTEX
8
CUT
10
44.5692
20
64.8038
0
VERTEX
8
CUT
10
44.5692
20
52.6962
0
SEQEND
0
POLYLINE
8
CUT
66
1
70
0
0
VERTEX
8
CUT
10
52.0548
20
58.75
0
VERTEX
8
CUT
10
46.0692
20
62.2058
0
VERTEX
8
CUT
10
46.0692
20
53.7942
0
VERTEX
8
CUT
10
52.0548
20
57.25
0
SEQEND
0
POLYLINE
8
CUT
66
1
70
0
0
VERTEX
8
CUT
10
60.8538
20
53.9019
0
VERTEX
8
CUT
10
60.8538
20
36.5981
0
VERTEX
8
CUT
10
44.5692
20
46
0
VERTEX
8
CUT
10
59.5548
20
54.6519
0
SEQEND
0
POLYLINE
8
CUT
66
1
70
0
0
VERTEX
8
CUT
10
58.0548
20
39.9462
0
VERTEX
8
CUT
10
47.5692
20
46
0
VERTEX
8
CUT
10
59.3538
20
52.8038
0
VERTEX
8
CUT
10
59.3538
20
40.6962
0
SEQEND
0
POLYLINE
8
CUT
66
1
70
0
0
VERTEX
8
CUT
10
51.8683
20
46.75
0
VERTEX
8
CUT
10
57.8538
20
50.2058
0
VERTEX
8
CUT
10
57.8538
20
41.7942
0
VERTEX
8
CUT
10
51.8683
20
45.25
0
SEQEND
0
LINE
8
CUT
10
41.5692
20
44.5
11
41.5692
21
23.5
0
LINE
8
CUT
10
42.8683
20
45.25
11
61.0548
21
34.75
0
LINE
8
CUT
10
42.8683
20
22.75
11
61.0548
21
33.25
0
POLYLINE
8
CUT
66
1
70
0
0
VERTEX
8
CUT
10
43.0692
20
41.9019
0
VERTEX
8
CUT
10
43.0692
20
24.5981
0
VERTEX
8
CUT
10
59.3538
20
34
0
VERTEX
8
CUT
10
44.3683
20
42.6519
0
SEQEND
0
POLYLINE
8
CUT
66
1
70
0
0
VERTEX
8
CUT
10
45.8683
20
27.9462
0
VERTEX
8
CUT
10
56.3538
20
34
0
VERTEX
8
CUT
10
44.5692
20
40.8038
0
VERTEX
8
CUT
10
44.5692
20
28.6962
0
SEQEND
0
POLYLINE
8
CUT
66
1
70
0
0
VERTEX
8
CUT
10
52.0548
20
34.75
0
VERTEX
8
CUT
10
46.0692
20
38.2058
0
VERTEX
8
CUT
10
46.0692
20
29.7942
0
VERTEX
8
CUT
10
52.0548
20
33.25
0
SEQEND
0
POLYLINE
8
CUT
66
1
70
0
0
VERTEX
8
CUT
10
60.8538
20
29.9019
0
VERTEX
8
CUT
10
60.8538
20
12.5981
0
VERTEX
8
CUT
10
44.5692
20
22
0
VERTEX
8
CUT
10
59.5548
20
30.6519
0
SEQEND
0
POLYLINE
8
CUT
66
1
70
0
0
VERTEX
8
CUT
10
58.0548
20
15.9462
0
VERTEX
8
CUT
10
47.5692
20
22
0
VERTEX
8
CUT
10
59.3538
20
28.8038
0
VERTEX
8
CUT
10
59.3538
20
16.6962
0
SEQEND
0
POLYLINE
8
CUT
66
1
70
0
0
VERTEX
8
CUT
10
51.8683
20
22.75
0
VERTEX
8
CUT
10
57.8538
20
26.2058
0
VERTEX
8
CUT
10
57.8538
20
17.7942
0
VERTEX
8
CUT
10
51.8683
20
21.25
0
SEQEND
0
LINE
8
CUT
10
41.5692
20
20.5
11
41.5692
21
0
0
LINE
8
CUT
10
42.8683
20
21.25
11
61.0548
21
10.75
0
LINE
8
CUT
10
45.0333
20
0
11
61.0548
21
9.25
0
POLYLINE
8
CUT
66
1
70
0
0
VERTEX
8
CUT
10
43.0692
20
17.9019
0
VERTEX
8
CUT
10
43.0692
20
0.5981
0
VERTEX
8
CUT
10
59.3538
20
10
0
VERTEX
8
CUT
10
44.3683
20
18.6519
0
SEQEND
0
POLYLINE
8
CUT
66
1
70
0
0
VERTEX
8
CUT
10
45.8683
20
3.9462
0
VERTEX
8
CUT
10
56.3538
20
10
0
VERTEX
8
CUT
10
44.5692
20
16.8038
0
VERTEX
8
CUT
10
44.5692
20
4.6962
0
SEQEND
0
POLYLINE
8
CUT
66
1
70
0
0
VERTEX
8
CUT
10
52.0548
20
10.75
0
VERTEX
8
CUT
10
46.0692
20
14.2058
0
VERTEX
8
CUT
10
46.0692
20
5.7942
0
VERTEX
8
CUT
10
52.0548
20
9.25
0
SEQEND
0
LINE
8
CUT
10
60.8538
20
5.9019
11
60.8538
21
0
0
LINE
8
CUT
10
48.0333
20
0
11
59.5548
21
6.6519
0
POLYLINE
8
CUT
66
1
70
0
0
VERTEX
8
CUT
10
51.0333
20
0
0
VERTEX
8
CUT
10
59.3538
20
4.8038
0
VERTEX
8
CUT
10
59.3538
20
0
0
SEQEND
0
POLYLINE
8
CUT
66
1
70
0
0
VERTEX
8
CUT
10
54.0333
20
0
0
VERTEX
8
CUT
10
57.8538
20
2.2058
0
VERTEX
8
CUT
10
57.8538
20
0
0
SEQEND
0
LINE
8
CUT
10
62.3538
20
70
11
62.3538
21
59.5
0
LINE
8
CUT
10
63.6529
20
58.75
11
81.8394
21
69.25
0
POLYLINE
8
CUT
66
1
70
0
0
VERTEX
8
CUT
10
63.8538
20
70
0
VERTEX
8
CUT
10
63.8538
20
60.5981
0
VERTEX
8
CUT
10
80.1384
20
70
0
VERTEX
8
CUT
10
80.1384
20
70
0
SEQEND
0
POLYLINE
8
CUT
66
1
70
0
0
VERTEX
8
CUT
10
66.6529
20
63.9462
0
VERTEX
8
CUT
10
77.1384
20
70
0
VERTEX
8
CUT
10
77.1384
20
70
0
SEQEND
0
LINE
8
CUT
10
65.3538
20
70
11
65.3538
21
64.6962
0
POLYLINE
8
CUT
66
1
70
0
0
VERTEX
8
CUT
10
66.8538
20
70
0
VERTEX
8
CUT
10
66.8538
20
65.7942
0
VERTEX
8
CUT
10
72.8394
20
69.25
0
SEQEND
0
POLYLINE
8
CUT
66
1
70
0
0
VERTEX
8
CUT
10
81.6384
20
65.9019
0
VERTEX
8
CUT
10
81.6384
20
48.5981
0
VERTEX
8
CUT
10
65.3538
20
58
0
VERTEX
8
CUT
10
80.3394
20
66.6519
0
SEQEND
0
POLYLINE
8
CUT
66
1
70
0
0
VERTEX
8
CUT
10
78.8394
20
51.9462
0
VERTEX
8
CUT
10
68.3538
20
58
0
VERTEX
8
CUT
10
80.1384
20
64.8038
0
VERTEX
8
CUT
10
80.1384
20
52.6962
0
SEQEND
0
POLYLINE
8
CUT
66
1
70
0
0
VERTEX
8
CUT
10
72.6529
20
58.75
0
VERTEX
8
CUT
10
78.6384
20
62.2058
0
VERTEX
8
CUT
10
78.6384
20
53.7942
0
VERTEX
8
CUT
10
72.6529
20
57.25
0
SEQEND
0
LINE
8
CUT
10
62.3538
20
56.5
11
62.3538
21
35.5
0
LINE
8
CUT
10
63.6529
20
57.25
11
81.8394
21
46.75
0
LINE
8
CUT
10
63.6529
20
34.75
11
81.8394
21
45.25
0
POLYLINE
8
CUT
66
1
70
0
0
VERTEX
8
CUT
10
63.8538
20
53.9019
0
VERTEX
8
CUT
10
63.8538
20
36.5981
0
VERTEX
8
CUT
10
80.1384
20
46
0
VERTEX
8
CUT
10
65.1529
20
54.6519
0
SEQEND
0
POLYLINE
8
CUT
66
1
70
0
0
VERTEX
8
CUT
10
66.6529
20
39.9462
0
VERTEX
8
CUT
10
77.1384
20
46
0
VERTEX
8
CUT
10
65.3538
20
52.8038
0
VERTEX
8
CUT
10
65.3538
20
40.6962
0
SEQEND
0
POLYLINE
8
CUT
66
1
70
0
0
VERTEX
8
CUT
10
72.8394
20
46.75
0
VERTEX
8
CUT
10
66.8538
20
50.2058
0
VERTEX
8
CUT
10
66.8538
20
41.7942
0
VERTEX
8
CUT
10
72.8394
20
45.25
0
SEQEND
0
POLYLINE
8
CUT
66
1
70
0
0
VERTEX
8
CUT
10
81.6384
20
41.9019
0
VERTEX
8
CUT
10
81.6384
20
24.5981
0
VERTEX
8
CUT
10
65.3538
20
34
0
VERTEX
8
CUT
10
80.3394
20
42.6519
0
SEQEND
0
POLYLINE
8
CUT
66
1
70
0
0
VERTEX
8
CUT
10
78.8394
20
27.9462
0
VERTEX
8
CUT
10
68.3538
20
34
0
VERTEX
8
CUT
10
80.1384
20
40.8038
0
VERTEX
8
CUT
10
80.1384
20
28.6962
0
SEQEND
0
POLYLINE
8
CUT
66
1
70
0
0
VERTEX
8
CUT
10
72.6529
20
34.75
0
VERTEX
8
CUT
10
78.6384
20
38.2058
0
VERTEX
8
CUT
10
78.6384
20
29.7942
0
VERTEX
8
CUT
10
72.6529
20
33.25
0
SEQEND
0
LINE
8
CUT
10
62.3538
20
32.5
11
62.3538
21
11.5
0
LINE
8
CUT
10
63.6529
20
33.25
11
81.8394
21
22.75
0
LINE
8
CUT
10
63.6529
20
10.75
11
81.8394
21
21.25
0
POLYLINE
8
CUT
66
1
70
0
0
VERTEX
8
CUT
10
63.8538
20
29.9019
0
VERTEX
8
CUT
10
63.8538
20
12.5981
0
VERTEX
8
CUT
10
80.1384
20
22
0
VERTEX
8
CUT
10
65.1529
20
30.6519
0
SEQEND
0
POLYLINE
8
CUT
66
1
70
0
0
VERTEX
8
CUT
10
66.6529
20
15.9462
0
VERTEX
8
CUT
10
77.1384
20
22
0
VERTEX
8
CUT
10
65.3538
20
28.8038
0
VERTEX
8
CUT
10
65.3538
20
16.6962
0
SEQEND
0
POLYLINE
8
CUT
66
1
70
0
0
VERTEX
8
CUT
10
72.8394
20
22.75
0
VERTEX
8
CUT
10
66.8538
20
26.2058
0
VERTEX
8
CUT
10
66.8538
20
17.7942
0
VERTEX
8
CUT
10
72.8394
20
21.25
0
SEQEND
0
POLYLINE
8
CUT
66
1
70
0
0
VERTEX
8
CUT
10
81.6384
20
17.9019
0
VERTEX
8
CUT
10
81.6384
20
0.5981
0
VERTEX
8
CUT
10
65.3538
20
10
0
VERTEX
8
CUT
10
80.3394
20
18.6519
0
SEQEND
0
POLYLINE
8
CUT
66
1
70
0
0
VERTEX
8
CUT
10
78.8394
20
3.9462
0
VERTEX
8
CUT
10
68.3538
20
10
0
VERTEX
8
CUT
10
80.1384
20
16.8038
0
VERTEX
8
CUT
10
80.1384
20
4.6962
0
SEQEND
0
POLYLINE
8
CUT
66
1
70
0
0
VERTEX
8
CUT
10
72.6529
20
10.75
0
VERTEX
8
CUT
10
78.6384
20
14.2058
0
VERTEX
8
CUT
10
78.6384
20
5.7942
0
VERTEX
8
CUT
10
72.6529
20
9.25
0
SEQEND
0
LINE
8
CUT
10
62.3538
20
8.5
11
62.3538
21
0
0
LINE
8
CUT
10
63.6529
20
9.25
11
79.6743
21
0
0
LINE
8
CUT
10
63.8538
20
5.9019
11
63.8538
21
0
0
LINE
8
CUT
10
76.6743
20
0
11
65.1529
21
6.6519
0
POLYLINE
8
CUT
66
1
70
0
0
VERTEX
8
CUT
10
73.6743
20
0
0
VERTEX
8
CUT
10
65.3538
20
4.8038
0
VERTEX
8
CUT
10
65.3538
20
0
0
SEQEND
0
POLYLINE
8
CUT
66
1
70
0
0
VERTEX
8
CUT
10
70.6743
20
0
0
VERTEX
8
CUT
10
66.8538
20
2.2058
0
VERTEX
8
CUT
10
66.8538
20
0
0
SEQEND
0
POLYLINE
8
CUT
66
1
70
0
0
VERTEX
8
CUT
10
102.423
20
70
0
VERTEX
8
CUT
10
102.423
20
60.5981
0
VERTEX
8
CUT
10
86.1384
20
70
0
VERTEX
8
CUT
10
86.1384
20
70
0
SEQEND
0
POLYLINE
8
CUT
66
1
70
0
0
VERTEX
8
CUT
10
99.624
20
63.9462
0
VERTEX
8
CUT
10
89.1384
20
70
0
VERTEX
8
CUT
10
89.1384
20
70
0
SEQEND
0
LINE
8
CUT
10
100.923
20
70
11
100.923
21
64.6962
0
POLYLINE
8
CUT
66
1
70
0
0
VERTEX
8
CUT
10
99.423
20
70
0
VERTEX
8
CUT
10
99.423
20
65.7942
0
VERTEX
8
CUT
10
93.4375
20
69.25
0
SEQEND
0
LINE
8
CUT
10
83.1384
20
68.5
11
83.1384
21
47.5
0
LINE
8
CUT
10
84.4375
20
69.25
11
102.624
21
58.75
0
LINE
8
CUT
10
84.4375
20
46.75
11
102.624
21
57.25
0
POLYLINE
8
CUT
66
1
70
0
0
VERTEX
8
CUT
10
84.6384
20
65.9019
0
VERTEX
8
CUT
10
84.6384
20
48.5981
0
VERTEX
8
CUT
10
100.923
20
58
0
VERTEX
8
CUT
10
85.9375
20
66.6519
0
SEQEND
0
POLYLINE
8
CUT
66
1
70
0
0
VERTEX
8
CUT
10
87.4375
20
51.9462
0
VERTEX
8
CUT
10
97.923
20
58
0
VERTEX
8
CUT
10
86.1384
20
64.8038
0
VERTEX
8
CUT
10
86.1384
20
52.6962
0
SEQEND
0
POLYLINE
8
CUT
66
1
70
0
0
VERTEX
8
CUT
10
93.624
20
58.75
0
VERTEX
8
CUT
10
87.6384
20
62.2058
0
VERTEX
8
CUT
10
87.6384
20
53.7942
0
VERTEX
8
CUT
10
93.624
20
57.25
0
SEQEND
0
POLYLINE
8
CUT
66
1
70
0
0
VERTEX
8
CUT
10
102.423
20
53.9019
0
VERTEX
8
CUT
10
102.423
20
36.5981
0
VERTEX
8
CUT
10
86.1384
20
46
0
VERTEX
8
CUT
10
101.124
20
54.6519
0
SEQEND
0
POLYLINE
8
CUT
66
1
70
0
0
VERTEX
8
CUT
10
99.624
20
39.9462
0
VERTEX
8
CUT
10
89.1384
20
46
0
VERTEX
8
CUT
10
100.923
20
52.8038
0
VERTEX
8
CUT
10
100.923
20
40.6962
0
SEQEND
0
POLYLINE
8
CUT
66
1
70
0
0
VERTEX
8
CUT
10
93.4375
20
46.75
0
VERTEX
8
CUT
10
99.423
20
50.2058
0
VERTEX
8
CUT
10
99.423
20
41.7942
0
VERTEX
8
CUT
10
93.4375
20
45.25
0
SEQEND
0
LINE
8
CUT
10
83.1384
20
44.5
11
83.1384
21
23.5
0
LINE
8
CUT
10
84.4375
20
45.25
11
102.624
21
34.75
0
LINE
8
CUT
10
84.4375
20
22.75
11
102.624
21
33.25
0
POLYLINE
8
CUT
66
1
70
0
0
VERTEX
8
CUT
10
84.6384
20
41.9019
0
VERTEX
8
CUT
10
84.6384
20
24.5981
0
VERTEX
8
CUT
10
100.923
20
34
0
VERTEX
8
CUT
10
85.9375
20
42.6519
0
SEQEND
0
POLYLINE
8
CUT
66
1
70
0
0
VERTEX
8
CUT
10
87.4375
20
27.9462
0
VERTEX
8
CUT
10
97.923
20
34
0
VERTEX
8
CUT
10
86.1384
20
40.8038
0
VERTEX
8
CUT
10
86.1384
20
28.6962
0
SEQEND
0
POLYLINE
8
CUT
66
1
70
0
0
VERTEX
8
CUT
10
93.624
20
34.75
0
VERTEX
8
CUT
10
87.6384
20
38.2058
0
VERTEX
8
CUT
10
87.6384
20
29.7942
0
VERTEX
8
CUT
10
93.624
20
33.25
0
SEQEND
0
POLYLINE
8
CUT
66
1
70
0
0
VERTEX
8
CUT
10
102.423
20
29.9019
0
VERTEX
8
CUT
10
102.423
20
12.5981
0
VERTEX
8
CUT
10
86.1384
20
22
0
VERTEX
8
CUT
10
101.124
20
30.6519
0
SEQEND
0
POLYLINE
8
CUT
66
1
70
0
0
VERTEX
8
CUT
10
99.624
20
15.9462
0
VERTEX
8
CUT
10
89.1384
20
22
0
VERTEX
8
CUT
10
100.923
20
28.8038
0
VERTEX
8
CUT
10
100.923
20
16.6962
0
SEQEND
0
POLYLINE
8
CUT
66
1
70
0
0
VERTEX
8
CUT
10
93.4375
20
22.75
0
VERTEX
8
CUT
10
99.423
20
26.2058
0
VERTEX
8
CUT
10
99.423
20
17.7942
0
VERTEX
8
CUT
10
93.4375
20
21.25
0
SEQEND
0
LINE
8
CUT
10
83.1384
20
20.5
11
83.1384
21
0
0
LINE
8
CUT
10
84.4375
20
21.25
11
102.624
21
10.75
0
LINE
8
CUT
10
86.6025
20
0
11
102.624
21
9.25
0
POLYLINE
8
CUT
66
1
70
0
0
VERTEX
8
CUT
10
84.6384
20
17.9019
0
VERTEX
8
CUT
10
84.6384
20
0.5981
0
VERTEX
8
CUT
10
100.923
20
10
0
VERTEX
8
CUT
10
85.9375
20
18.6519
0
SEQEND
0
POLYLINE
8
CUT
66
1
70
0
0
VERTEX
8
CUT
10
87.4375
20
3.9462
0
VERTEX
8
CUT
10
97.923
20
10
0
VERTEX
8
CUT
10
86.1384
20
16.8038
0
VERTEX
8
CUT
10
86.1384
20
4.6962
0
SEQEND
0
POLYLINE
8
CUT
66
1
70
0
0
VERTEX
8
CUT
10
93.624
20
10.75
0
VERTEX
8
CUT
10
87.6384
20
14.2058
0
VERTEX
8
CUT
10
87.6384
20
5.7942
0
VERTEX
8
CUT
10
93.624
20
9.25
0
SEQEND
0
LINE
8
CUT
10
102.423
20
5.9019
11
102.423
21
0
0
LINE
8
CUT
10
89.6025
20
0
11
101.124
21
6.6519
0
POLYLINE
8
CUT
66
1
70
0
0
VERTEX
8
CUT
10
92.6025
20
0
0
VERTEX
8
CUT
10
100.923
20
4.8038
0
VERTEX
8
CUT
10
100.923
20
0
0
SEQEND
0
POLYLINE
8
CUT
66
1
70
0
0
VERTEX
8
CUT
10
95.6025
20
0
0
VERTEX
8
CUT
10
99.423
20
2.2058
0
VERTEX
8
CUT
10
99.423
20
0
0
SEQEND
0
LINE
8
CUT
10
103.923
20
70
11
103.923
21
59.5
0
LINE
8
CUT
10
105.2221
20
58.75
11
120
21
67.282
0
POLYLINE
8
CUT
66
1
70
0
0
VERTEX
8
CUT
10
105.423
20
70
0
VERTEX
8
CUT
10
105.423
20
60.5981
0
VERTEX
8
CUT
10
120
20
69.0141
0
SEQEND
0
POLYLINE
8
CUT
66
1
70
0
0
VERTEX
8
CUT
10
108.2221
20
63.9462
0
VERTEX
8
CUT
10
118.7077
20
70
0
VERTEX
8
CUT
10
118.7077
20
70
0
SEQEND
0
LINE
8
CUT
10
106.923
20
70
11
106.923
21
64.6962
0
POLYLINE
8
CUT
66
1
70
0
0
VERTEX
8
CUT
10
108.423
20
70
0
VERTEX
8
CUT
10
108.423
20
65.7942
0
VERTEX
8
CUT
10
114.4086
20
69.25
0
SEQEND
0
POLYLINE
8
CUT
66
1
70
0
0
VERTEX
8
CUT
10
120
20
50.45
0
VERTEX
8
CUT
10
106.923
20
58
0
VERTEX
8
CUT
10
120
20
65.55
0
SEQEND
0
POLYLINE
8
CUT
66
1
70
0
0
VERTEX
8
CUT
10
120
20
52.1821
0
VERTEX
8
CUT
10
109.923
20
58
0
VERTEX
8
CUT
10
120
20
63.8179
0
SEQEND
0
LINE
8
CUT
10
114.2221
20
58.75
11
120
21
62.0859
0
LINE
8
CUT
10
120
20
53.9141
11
114.2221
21
57.25
0
LINE
8
CUT
10
103.923
20
56.5
11
103.923
21
35.5
0
LINE
8
CUT
10
105.2221
20
57.25
11
120
21
48.718
0
LINE
8
CUT
10
105.2221
20
34.75
11
120
21
43.282
0
POLYLINE
8
CUT
66
1
70
0
0
VERTEX
8
CUT
10
105.423
20
53.9019
0
VERTEX
8
CUT
10
105.423
20
36.5981
0
VERTEX
8
CUT
10
120
20
45.0141
0
SEQEND
0
LINE
8
CUT
10
120
20
46.9859
11
106.7221
21
54.6519
0
POLYLINE
8
CUT
66
1
70
0
0
VERTEX
8
CUT
10
108.2221
20
39.9462
0
VERTEX
8
CUT
10
118.7077
20
46
0
VERTEX
8
CUT
10
106.923
20
52.8038
0
VERTEX
8
CUT
10
106.923
20
40.6962
0
SEQEND
0
POLYLINE
8
CUT
66
1
70
0
0
VERTEX
8
CUT
10
114.4086
20
46.75
0
VERTEX
8
CUT
10
108.423
20
50.2058
0
VERTEX
8
CUT
10
108.423
20
41.7942
0
VERTEX
8
CUT
10
114.4086
20
45.25
0
SEQEND
0
POLYLINE
8
CUT
66
1
70
0
0
VERTEX
8
CUT
10
120
20
26.45
0
VERTEX
8
CUT
10
106.923
20
34
0
VERTEX
8
CUT
10
120
20
41.55
0
SEQEND
0
POLYLINE
8
CUT
66
1
70
0
0
VERTEX
8
CUT
10
120
20
28.1821
0
VERTEX
8
CUT
10
109.923
20
34
0
VERTEX
8
CUT
10
120
20
39.8179
0
SEQEND
0
LINE
8
CUT
10
114.2221
20
34.75
11
120
21
38.0859
0
LINE
8
CUT
10
120
20
29.9141
11
114.2221
21
33.25
0
LINE
8
CUT
10
103.923
20
32.5
11
103.923
21
11.5
0
LINE
8
CUT
10
105.2221
20
33.25
11
120
21
24.718
0
LINE
8
CUT
10
105.2221
20
10.75
11
120
21
19.282
0
POLYLINE
8
CUT
66
1
70
0
0
VERTEX
8
CUT
10
105.423
20
29.9019
0
VERTEX
8
CUT
10
105.423
20
12.5981
0
VERTEX
8
CUT
10
120
20
21.0141
0
SEQEND
0
LINE
8
CUT
10
120
20
22.9859
11
106.7221
21
30.6519
0
POLYLINE
8
CUT
66
1
70
0
0
VERTEX
8
CUT
10
108.2221
20
15.9462
0
VERTEX
8
CUT
10
118.7077
20
22
0
VERTEX
8
CUT
10
106.923
20
28.8038
0
VERTEX
8
CUT
10
106.923
20
16.6962
0
SEQEND
0
POLYLINE
8
CUT
66
1
70
0
0
VERTEX
8
CUT
10
114.4086
20
22.75
0
VERTEX
8
CUT
10
108.423
20
26.2058
0
VERTEX
8
CUT
10
108.423
20
17.7942
0
VERTEX
8
CUT
10
114.4086
20
21.25
0
SEQEND
0
POLYLINE
8
CUT
66
1
70
0
0
VERTEX
8
CUT
10
120
20
2.45
0
VERTEX
8
CUT
10
106.923
20
10
0
VERTEX
8
CUT
10
120
20
17.55
0
SEQEND
0
POLYLINE
8
CUT
66
1
70
0
0
VERTEX
8
CUT
10
120
20
4.1821
0
VERTEX
8
CUT
10
109.923
20
10
0
VERTEX
8
CUT
10
120
20
15.8179
0
SEQEND
0
LINE
8
CUT
10
114.2221
20
10.75
11
120
21
14.0859
0
LINE
8
CUT
10
120
20
5.9141
11
114.2221
21
9.25
0
LINE
8
CUT
10
103.923
20
8.5
11
103.923
21
0
0
LINE
8
CUT
10
105.2221
20
9.25
11
120
21
0.718
0
LINE
8
CUT
10
105.423
20
5.9019
11
105.423
21
0
0
LINE
8
CUT
10
118.2436
20
0
11
106.7221
21
6.6519
0
POLYLINE
8
CUT
66
1
70
0
0
VERTEX
8
CUT
10
115.2436
20
0
0
VERTEX
8
CUT
10
106.923
20
4.8038
0
VERTEX
8
CUT
10
106.923
20
0
0
SEQEND
0
POLYLINE
8
CUT
66
1
70
0
0
VERTEX
8
CUT
10
112.2436
20
0
0
VERTEX
8
CUT
10
108.423
20
2.2058
0
VERTEX
8
CUT
10
108.423
20
0
0
SEQEND
0
POLYLINE
8
CUT
66
1
70
0
0
VERTEX
8
CUT
10
0
20
70
0
VERTEX
8
CUT
10
120
20
70
0
VERTEX
8
CUT
10
120
20
0
0
VERTEX
8
CUT
10
0
20
0
0
VERTEX
8
CUT
10
0
20
70
0
SEQEND
0
ENDSEC
0
EOF
