0
SECTION
2
HEADER
9
$ACADVER
1
AC1009
9
$INSUNITS
70
4
0
ENDSEC
0
SECTION
2
TABLES
0
TABLE
2
LAYER
70
1
0
LAYER
2
CUT
70
0
62
1
6
CONTINUOUS
0
ENDTAB
0
ENDSEC
0
SECTION
2
ENTITIES
0
LINE
8
CUT
10
0
20
67
11
30
21
67
0
LINE
8
CUT
10
15
20
68.25
11
15
21
65.75
0
LINE
8
CUT
10
31.5
20
67
11
61.5
21
67
0
LINE
8
CUT
10
46.5
20
68.25
11
46.5
21
65.75
0
LINE
8
CUT
10
63
20
67
11
93
21
67
0
LINE
8
CUT
10
78
20
68.25
11
78
21
65.75
0
LINE
8
CUT
10
94.5
20
67
11
120
21
67
0
LINE
8
CUT
10
109.5
20
68.25
11
109.5
21
65.75
0
LINE
8
CUT
10
0
20
63
11
14.25
21
63
0
LINE
8
CUT
10
15.75
20
63
11
45.75
21
63
0
LINE
8
CUT
10
30.75
20
64.25
11
30.75
21
61.75
0
LINE
8
CUT
10
47.25
20
63
11
77.25
21
63
0
LINE
8
CUT
10
62.25
20
64.25
11
62.25
21
61.75
0
LINE
8
CUT
10
78.75
20
63
11
108.75
21
63
0
LINE
8
CUT
10
93.75
20
64.25
11
93.75
21
61.75
0
LINE
8
CUT
10
110.25
20
63
11
120
21
63
0
LINE
8
CUT
10
0
20
59
11
30
21
59
0
LINE
8
CUT
10
15
20
60.25
11
15
21
57.75
0
LINE
8
CUT
10
31.5
20
59
11
61.5
21
59
0
LINE
8
CUT
10
46.5
20
60.25
11
46.5
21
57.75
0
LINE
8
CUT
10
63
20
59
11
93
21
59
0
LINE
8
CUT
10
78
20
60.25
11
78
21
57.75
0
LINE
8
CUT
10
94.5
20
59
11
120
21
59
0
LINE
8
CUT
10
109.5
20
60.25
11
109.5
21
57.75
0
LINE
8
CUT
10
0
20
55
11
14.25
21
55
0
LINE
8
CUT
10
15.75
20
55
11
45.75
21
55
0
LINE
8
CUT
10
30.75
20
56.25
11
30.75
21
53.75
0
LINE
8
CUT
10
47.25
20
55
11
77.25
21
55
0
LINE
8
CUT
10
62.25
20
56.25
11
62.25
21
53.75
0
LINE
8
CUT
10
78.75
20
55
11
108.75
21
55
0
LINE
8
CUT
10
93.75
20
56.25
11
93.75
21
53.75
0
LINE
8
CUT
10
110.25
20
55
11
120
21
55
0
LINE
8
CUT
10
0
20
51
11
30
21
51
0
LINE
8
CUT
10
15
20
52.25
11
15
21
49.75
0
LINE
8
CUT
10
31.5
20
51
11
61.5
21
51
0
LINE
8
CUT
10
46.5
20
52.25
11
46.5
21
49.75
0
LINE
8
CUT
10
63
20
51
11
93
21
51
0
LINE
8
CUT
10
78
20
52.25
11
78
21
49.75
0
LINE
8
CUT
10
94.5
20
51
11
120
21
51
0
LINE
8
CUT
10
109.5
20
52.25
11
109.5
21
49.75
0
LINE
8
CUT
10
0
20
47
11
14.25
21
47
0
LINE
8
CUT
10
15.75
20
47
11
45.75
21
47
0
LINE
8
CUT
10
30.75
20
48.25
11
30.75
21
45.75
0
LINE
8
CUT
10
47.25
20
47
11
77.25
21
47
0
LINE
8
CUT
10
62.25
20
48.25
11
62.25
21
45.75
0
LINE
8
CUT
10
78.75
20
47
11
108.75
21
47
0
LINE
8
CUT
10
93.75
20
48.25
11
93.75
21
45.75
0
LINE
8
CUT
10
110.25
20
47
11
120
21
47
0
LINE
8
CUT
10
0
20
43
11
30
21
43
0
LINE
8
CUT
10
15
20
44.25
11
15
21
41.75
0
LINE
8
CUT
10
31.5
20
43
11
61.5
21
43
0
LINE
8
CUT
10
46.5
20
44.25
11
46.5
21
41.75
0
LINE
8
CUT
10
63
20
43
11
93
21
43
0
LINE
8
CUT
10
78
20
44.25
11
78
21
41.75
0
LINE
8
CUT
10
94.5
20
43
11
120
21
43
0
LINE
8
CUT
10
109.5
20
44.25
11
109.5
21
41.75
0
LINE
8
CUT
10
0
20
39
11
14.25
21
39
0
LINE
8
CUT
10
15.75
20
39
11
45.75
21
39
0
LINE
8
CUT
10
30.75
20
40.25
11
30.75
21
37.75
0
LINE
8
CUT
10
47.25
20
39
11
77.25
21
39
0
LINE
8
CUT
10
62.25
20
40.25
11
62.25
21
37.75
0
LINE
8
CUT
10
78.75
20
39
11
108.75
21
39
0
LINE
8
CUT
10
93.75
20
40.25
11
93.75
21
37.75
0
LINE
8
CUT
10
110.25
20
39
11
120
21
39
0
LINE
8
CUT
10
0
20
35
11
30
21
35
0
LINE
8
CUT
10
15
20
36.25
11
15
21
33.75
0
LINE
8
CUT
10
31.5
20
35
11
61.5
21
35
0
LINE
8
CUT
10
46.5
20
36.25
11
46.5
21
33.75
0
LINE
8
CUT
10
63
20
35
11
93
21
35
0
LINE
8
CUT
10
78
20
36.25
11
78
21
33.75
0
LINE
8
CUT
10
94.5
20
35
11
120
21
35
0
LINE
8
CUT
10
109.5
20
36.25
11
109.5
21
33.75
0
LINE
8
CUT
10
0
20
31
11
14.25
21
31
0
LINE
8
CUT
10
15.75
20
31
11
45.75
21
31
0
LINE
8
CUT
10
30.75
20
32.25
11
30.75
21
29.75
0
LINE
8
CUT
10
47.25
20
31
11
77.25
21
31
0
LINE
8
CUT
10
62.25
20
32.25
11
62.25
21
29.75
0
LINE
8
CUT
10
78.75
20
31
11
108.75
21
31
0
LINE
8
CUT
10
93.75
20
32.25
11
93.75
21
29.75
0
LINE
8
CUT
10
110.25
20
31
11
120
21
31
0
LINE
8
CUT
10
0
20
27
11
30
21
27
0
LINE
8
CUT
10
15
20
28.25
11
15
21
25.75
0
LINE
8
CUT
10
31.5
20
27
11
61.5
21
27
0
LINE
8
CUT
10
46.5
20
28.25
11
46.5
21
25.75
0
LINE
8
CUT
10
63
20
27
11
93
21
27
0
LINE
8
CUT
10
78
20
28.25
11
78
21
25.75
0
LINE
8
CUT
10
94.5
20
27
11
120
21
27
0
LINE
8
CUT
10
109.5
20
28.25
11
109.5
21
25.75
0
LINE
8
CUT
10
0
20
23
11
14.25
21
23
0
LINE
8
CUT
10
15.75
20
23
11
45.75
21
23
0
LINE
8
CUT
10
30.75
20
24.25
11
30.75
21
21.75
0
LINE
8
CUT
10
47.25
20
23
11
77.25
21
23
0
LINE
8
CUT
10
62.25
20
24.25
11
62.25
21
21.75
0
LINE
8
CUT
10
78.75
20
23
11
108.75
21
23
0
LINE
8
CUT
10
93.75
20
24.25
11
93.75
21
21.75
0
LINE
8
CUT
10
110.25
20
23
11
120
21
23
0
LINE
8
CUT
10
0
20
19
11
30
21
19
0
LINE
8
CUT
10
15
20
20.25
11
15
21
17.75
0
LINE
8
CUT
10
31.5
20
19
11
61.5
21
19
0
LINE
8
CUT
10
46.5
20
20.25
11
46.5
21
17.75
0
LINE
8
CUT
10
63
20
19
11
93
21
19
0
LINE
8
CUT
10
78
20
20.25
11
78
21
17.75
0
LINE
8
CUT
10
94.5
20
19
11
120
21
19
0
LINE
8
CUT
10
109.5
20
20.25
11
109.5
21
17.75
0
LINE
8
CUT
10
0
20
15
11
14.25
21
15
0
LINE
8
CUT
10
15.75
20
15
11
45.75
21
15
0
LINE
8
CUT
10
30.75
20
16.25
11
30.75
21
13.75
0
LINE
8
CUT
10
47.25
20
15
11
77.25
21
15
0
LINE
8
CUT
10
62.25
20
16.25
11
62.25
21
13.75
0
LINE
8
CUT
10
78.75
20
15
11
108.75
21
15
0
LINE
8
CUT
10
93.75
20
16.25
11
93.75
21
13.75
0
LINE
8
CUT
10
110.25
20
15
11
120
21
15
0
LINE
8
CUT
10
0
20
11
11
30
21
11
0
LINE
8
CUT
10
15
20
12.25
11
15
21
9.75
0
LINE
8
CUT
10
31.5
20
11
11
61.5
21
11
0
LINE
8
CUT
10
46.5
20
12.25
11
46.5
21
9.75
0
LINE
8
CUT
10
63
20
11
11
93
21
11
0
LINE
8
CUT
10
78
20
12.25
11
78
21
9.75
0
LINE
8
CUT
10
94.5
20
11
11
120
21
11
0
LINE
8
CUT
10
109.5
20
12.25
11
109.5
21
9.75
0
LINE
8
CUT
10
0
20
7
11
14.25
21
7
0
LINE
8
CUT
10
15.75
20
7
11
45.75
21
7
0
LINE
8
CUT
10
30.75
20
8.25
11
30.75
21
5.75
0
LINE
8
CUT
10
47.25
20
7
11
77.25
21
7
0
LINE
8
CUT
10
62.25
20
8.25
11
62.25
21
5.75
0
LINE
8
CUT
10
78.75
20
7
11
108.75
21
7
0
LINE
8
CUT
10
93.75
20
8.25
11
93.75
21
5.75
0
LINE
8
CUT
10
110.25
20
7
11
120
21
7
0
LINE
8
CUT
10
0
20
3
11
30
21
3
0
LINE
8
CUT
10
15
20
4.25
11
15
21
1.75
0
LINE
8
CUT
10
31.5
20
3
11
61.5
21
3
0
LINE
8
CUT
10
46.5
20
4.25
11
46.5
21
1.75
0
LINE
8
CUT
10
63
20
3
11
93
21
3
0
LINE
8
CUT
10
78
20
4.25
11
78
21
1.75
0
LINE
8
CUT
10
94.5
20
3
11
120
21
3
0
LINE
8
CUT
10
109.5
20
4.25
11
109.5
21
1.75
0
POLYLINE
8
CUT
66
1
70
0
0
VERTEX
8
CUT
10
0
20
70
0
VERTEX
8
CUT
10
120
20
70
0
VERTEX
8
CUT
10
120
20
0
0
VERTEX
8
CUT
10
0
20
0
0
VERTEX
8
CUT
10
0
20
70
0
SEQEND
0
ENDSEC
0
EOF
