0
SECTION
2
HEADER
9
$ACADVER
1
AC1009
9
$INSUNITS
70
4
0
ENDSEC
0
SECTION
2
TABLES
0
TABLE
2
LAYER
70
1
0
LAYER
2
CUT
70
0
62
1
6
CONTINUOUS
0
ENDTAB
0
ENDSEC
0
SECTION
2
ENTITIES
0
LINE
8
CUT
10
11.3244
20
70
11
11.3244
21
65.1356
0
LINE
8
CUT
10
10.6748
20
64.7606
11
2.2495
21
69.625
0
POLYLINE
8
CUT
66
1
70
0
0
VERTEX
8
CUT
10
10.5244
20
69.25
0
VERTEX
8
CUT
10
10.5244
20
65.7713
0
VERTEX
8
CUT
10
7.5117
20
67.5106
0
SEQEND
0
POLYLINE
8
CUT
66
1
70
0
0
VERTEX
8
CUT
10
6.2127
20
68.2606
0
VERTEX
8
CUT
10
3.2
20
70
0
VERTEX
8
CUT
10
3.2
20
70
0
SEQEND
0
LINE
8
CUT
10
9.7244
20
70
11
9.7244
21
67.9069
0
LINE
8
CUT
10
9.0748
20
67.5319
11
5.4495
21
69.625
0
POLYLINE
8
CUT
66
1
70
0
0
VERTEX
8
CUT
10
8.9244
20
69.25
0
VERTEX
8
CUT
10
8.9244
20
68.5426
0
VERTEX
8
CUT
10
8.3117
20
68.8963
0
SEQEND
0
POLYLINE
8
CUT
66
1
70
0
0
VERTEX
8
CUT
10
7.0127
20
69.6463
0
VERTEX
8
CUT
10
6.4
20
70
0
VERTEX
8
CUT
10
6.4
20
70
0
SEQEND
0
LINE
8
CUT
10
0.8
20
67.8644
11
0.8
21
58.1356
0
LINE
8
CUT
10
1.4495
20
57.7606
11
9.8748
21
62.625
0
LINE
8
CUT
10
9.8748
20
63.375
11
1.4495
21
68.2394
0
POLYLINE
8
CUT
66
1
70
0
0
VERTEX
8
CUT
10
4.6127
20
65.4894
0
VERTEX
8
CUT
10
1.6
20
67.2287
0
VERTEX
8
CUT
10
1.6
20
63.75
0
SEQEND
0
POLYLINE
8
CUT
66
1
70
0
0
VERTEX
8
CUT
10
1.6
20
62.25
0
VERTEX
8
CUT
10
1.6
20
58.7713
0
VERTEX
8
CUT
10
4.6127
20
60.5106
0
SEQEND
0
POLYLINE
8
CUT
66
1
70
0
0
VERTEX
8
CUT
10
5.9117
20
61.2606
0
VERTEX
8
CUT
10
8.9244
20
63
0
VERTEX
8
CUT
10
5.9117
20
64.7394
0
SEQEND
0
LINE
8
CUT
10
2.4
20
65.0931
11
2.4
21
60.9069
0
LINE
8
CUT
10
3.0495
20
60.5319
11
6.6748
21
62.625
0
LINE
8
CUT
10
6.6748
20
63.375
11
3.0495
21
65.4681
0
POLYLINE
8
CUT
66
1
70
0
0
VERTEX
8
CUT
10
3.8127
20
64.1037
0
VERTEX
8
CUT
10
3.2
20
64.4574
0
VERTEX
8
CUT
10
3.2
20
63.75
0
SEQEND
0
POLYLINE
8
CUT
66
1
70
0
0
VERTEX
8
CUT
10
3.2
20
62.25
0
VERTEX
8
CUT
10
3.2
20
61.5426
0
VERTEX
8
CUT
10
3.8127
20
61.8963
0
SEQEND
0
POLYLINE
8
CUT
66
1
70
0
0
VERTEX
8
CUT
10
5.1117
20
62.6463
0
VERTEX
8
CUT
10
5.7244
20
63
0
VERTEX
8
CUT
10
5.1117
20
63.3537
0
SEQEND
0
LINE
8
CUT
10
11.3244
20
60.8644
11
11.3244
21
51.1356
0
LINE
8
CUT
10
10.6748
20
50.7606
11
2.2495
21
55.625
0
LINE
8
CUT
10
2.2495
20
56.375
11
10.6748
21
61.2394
0
POLYLINE
8
CUT
66
1
70
0
0
VERTEX
8
CUT
10
7.5117
20
58.4894
0
VERTEX
8
CUT
10
10.5244
20
60.2287
0
VERTEX
8
CUT
10
10.5244
20
56.75
0
SEQEND
0
POLYLINE
8
CUT
66
1
70
0
0
VERTEX
8
CUT
10
10.5244
20
55.25
0
VERTEX
8
CUT
10
10.5244
20
51.7713
0
VERTEX
8
CUT
10
7.5117
20
53.5106
0
SEQEND
0
POLYLINE
8
CUT
66
1
70
0
0
VERTEX
8
CUT
10
6.2127
20
54.2606
0
VERTEX
8
CUT
10
3.2
20
56
0
VERTEX
8
CUT
10
6.2127
20
57.7394
0
SEQEND
0
LINE
8
CUT
10
9.7244
20
58.0931
11
9.7244
21
53.9069
0
LINE
8
CUT
10
9.0748
20
53.5319
11
5.4495
21
55.625
0
LINE
8
CUT
10
5.4495
20
56.375
11
9.0748
21
58.4681
0
POLYLINE
8
CUT
66
1
70
0
0
VERTEX
8
CUT
10
8.3117
20
57.1037
0
VERTEX
8
CUT
10
8.9244
20
57.4574
0
VERTEX
8
CUT
10
8.9244
20
56.75
0
SEQEND
0
POLYLINE
8
CUT
66
1
70
0
0
VERTEX
8
CUT
10
8.9244
20
55.25
0
VERTEX
8
CUT
10
8.9244
20
54.5426
0
VERTEX
8
CUT
10
8.3117
20
54.8963
0
SEQEND
0
POLYLINE
8
CUT
66
1
70
0
0
VERTEX
8
CUT
10
7.0127
20
55.6463
0
VERTEX
8
CUT
10
6.4
20
56
0
VERTEX
8
CUT
10
7.0127
20
56.3537
0
SEQEND
0
LINE
8
CUT
10
0.8
20
53.8644
11
0.8
21
44.1356
0
LINE
8
CUT
10
1.4495
20
43.7606
11
9.8748
21
48.625
0
LINE
8
CUT
10
9.8748
20
49.375
11
1.4495
21
54.2394
0
POLYLINE
8
CUT
66
1
70
0
0
VERTEX
8
CUT
10
4.6127
20
51.4894
0
VERTEX
8
CUT
10
1.6
20
53.2287
0
VERTEX
8
CUT
10
1.6
20
49.75
0
SEQEND
0
POLYLINE
8
CUT
66
1
70
0
0
VERTEX
8
CUT
10
1.6
20
48.25
0
VERTEX
8
CUT
10
1.6
20
44.7713
0
VERTEX
8
CUT
10
4.6127
20
46.5106
0
SEQEND
0
POLYLINE
8
CUT
66
1
70
0
0
VERTEX
8
CUT
10
5.9117
20
47.2606
0
VERTEX
8
CUT
10
8.9244
20
49
0
VERTEX
8
CUT
10
5.9117
20
50.7394
0
SEQEND
0
LINE
8
CUT
10
2.4
20
51.0931
11
2.4
21
46.9069
0
LINE
8
CUT
10
3.0495
20
46.5319
11
6.6748
21
48.625
0
LINE
8
CUT
10
6.6748
20
49.375
11
3.0495
21
51.4681
0
POLYLINE
8
CUT
66
1
70
0
0
VERTEX
8
CUT
10
3.8127
20
50.1037
0
VERTEX
8
CUT
10
3.2
20
50.4574
0
VERTEX
8
CUT
10
3.2
20
49.75
0
SEQEND
0
POLYLINE
8
CUT
66
1
70
0
0
VERTEX
8
CUT
10
3.2
20
48.25
0
VERTEX
8
CUT
10
3.2
20
47.5426
0
VERTEX
8
CUT
10
3.8127
20
47.8963
0
SEQEND
0
POLYLINE
8
CUT
66
1
70
0
0
VERTEX
8
CUT
10
5.1117
20
48.6463
0
VERTEX
8
CUT
10
5.7244
20
49
0
VERTEX
8
CUT
10
5.1117
20
49.3537
0
SEQEND
0
LINE
8
CUT
10
11.3244
20
46.8644
11
11.3244
21
37.1356
0
LINE
8
CUT
10
10.6748
20
36.7606
11
2.2495
21
41.625
0
LINE
8
CUT
10
2.2495
20
42.375
11
10.6748
21
47.2394
0
POLYLINE
8
CUT
66
1
70
0
0
VERTEX
8
CUT
10
7.5117
20
44.4894
0
VERTEX
8
CUT
10
10.5244
20
46.2287
0
VERTEX
8
CUT
10
10.5244
20
42.75
0
SEQEND
0
POLYLINE
8
CUT
66
1
70
0
0
VERTEX
8
CUT
10
10.5244
20
41.25
0
VERTEX
8
CUT
10
10.5244
20
37.7713
0
VERTEX
8
CUT
10
7.5117
20
39.5106
0
SEQEND
0
POLYLINE
8
CUT
66
1
70
0
0
VERTEX
8
CUT
10
6.2127
20
40.2606
0
VERTEX
8
CUT
10
3.2
20
42
0
VERTEX
8
CUT
10
6.2127
20
43.7394
0
SEQEND
0
LINE
8
CUT
10
9.7244
20
44.0931
11
9.7244
21
39.9069
0
LINE
8
CUT
10
9.0748
20
39.5319
11
5.4495
21
41.625
0
LINE
8
CUT
10
5.4495
20
42.375
11
9.0748
21
44.4681
0
POLYLINE
8
CUT
66
1
70
0
0
VERTEX
8
CUT
10
8.3117
20
43.1037
0
VERTEX
8
CUT
10
8.9244
20
43.4574
0
VERTEX
8
CUT
10
8.9244
20
42.75
0
SEQEND
0
POLYLINE
8
CUT
66
1
70
0
0
VERTEX
8
CUT
10
8.9244
20
41.25
0
VERTEX
8
CUT
10
8.9244
20
40.5426
0
VERTEX
8
CUT
10
8.3117
20
40.8963
0
SEQEND
0
POLYLINE
8
CUT
66
1
70
0
0
VERTEX
8
CUT
10
7.0127
20
41.6463
0
VERTEX
8
CUT
10
6.4
20
42
0
VERTEX
8
CUT
10
7.0127
20
42.3537
0
SEQEND
0
LINE
8
CUT
10
0.8
20
39.8644
11
0.8
21
30.1356
0
LINE
8
CUT
10
1.4495
20
29.7606
11
9.8748
21
34.625
0
LINE
8
CUT
10
9.8748
20
35.375
11
1.4495
21
40.2394
0
POLYLINE
8
CUT
66
1
70
0
0
VERTEX
8
CUT
10
4.6127
20
37.4894
0
VERTEX
8
CUT
10
1.6
20
39.2287
0
VERTEX
8
CUT
10
1.6
20
35.75
0
SEQEND
0
POLYLINE
8
CUT
66
1
70
0
0
VERTEX
8
CUT
10
1.6
20
34.25
0
VERTEX
8
CUT
10
1.6
20
30.7713
0
VERTEX
8
CUT
10
4.6127
20
32.5106
0
SEQEND
0
POLYLINE
8
CUT
66
1
70
0
0
VERTEX
8
CUT
10
5.9117
20
33.2606
0
VERTEX
8
CUT
10
8.9244
20
35
0
VERTEX
8
CUT
10
5.9117
20
36.7394
0
SEQEND
0
LINE
8
CUT
10
2.4
20
37.0931
11
2.4
21
32.9069
0
LINE
8
CUT
10
3.0495
20
32.5319
11
6.6748
21
34.625
0
LINE
8
CUT
10
6.6748
20
35.375
11
3.0495
21
37.4681
0
POLYLINE
8
CUT
66
1
70
0
0
VERTEX
8
CUT
10
3.8127
20
36.1037
0
VERTEX
8
CUT
10
3.2
20
36.4574
0
VERTEX
8
CUT
10
3.2
20
35.75
0
SEQEND
0
POLYLINE
8
CUT
66
1
70
0
0
VERTEX
8
CUT
10
3.2
20
34.25
0
VERTEX
8
CUT
10
3.2
20
33.5426
0
VERTEX
8
CUT
10
3.8127
20
33.8963
0
SEQEND
0
POLYLINE
8
CUT
66
1
70
0
0
VERTEX
8
CUT
10
5.1117
20
34.6463
0
VERTEX
8
CUT
10
5.7244
20
35
0
VERTEX
8
CUT
10
5.1117
20
35.3537
0
SEQEND
0
LINE
8
CUT
10
11.3244
20
32.8644
11
11.3244
21
23.1356
0
LINE
8
CUT
10
10.6748
20
22.7606
11
2.2495
21
27.625
0
LINE
8
CUT
10
2.2495
20
28.375
11
10.6748
21
33.2394
0
POLYLINE
8
CUT
66
1
70
0
0
VERTEX
8
CUT
10
7.5117
20
30.4894
0
VERTEX
8
CUT
10
10.5244
20
32.2287
0
VERTEX
8
CUT
10
10.5244
20
28.75
0
SEQEND
0
POLYLINE
8
CUT
66
1
70
0
0
VERTEX
8
CUT
10
10.5244
20
27.25
0
VERTEX
8
CUT
10
10.5244
20
23.7713
0
VERTEX
8
CUT
10
7.5117
20
25.5106
0
SEQEND
0
POLYLINE
8
CUT
66
1
70
0
0
VERTEX
8
CUT
10
6.2127
20
26.2606
0
VERTEX
8
CUT
10
3.2
20
28
0
VERTEX
8
CUT
10
6.2127
20
29.7394
0
SEQEND
0
LINE
8
CUT
10
9.7244
20
30.0931
11
9.7244
21
25.9069
0
LINE
8
CUT
10
9.0748
20
25.5319
11
5.4495
21
27.625
0
LINE
8
CUT
10
5.4495
20
28.375
11
9.0748
21
30.4681
0
POLYLINE
8
CUT
66
1
70
0
0
VERTEX
8
CUT
10
8.3117
20
29.1037
0
VERTEX
8
CUT
10
8.9244
20
29.4574
0
VERTEX
8
CUT
10
8.9244
20
28.75
0
SEQEND
0
POLYLINE
8
CUT
66
1
70
0
0
VERTEX
8
CUT
10
8.9244
20
27.25
0
VERTEX
8
CUT
10
8.9244
20
26.5426
0
VERTEX
8
CUT
10
8.3117
20
26.8963
0
SEQEND
0
POLYLINE
8
CUT
66
1
70
0
0
VERTEX
8
CUT
10
7.0127
20
27.6463
0
VERTEX
8
CUT
10
6.4
20
28
0
VERTEX
8
CUT
10
7.0127
20
28.3537
0
SEQEND
0
LINE
8
CUT
10
0.8
20
25.8644
11
0.8
21
16.1356
0
LINE
8
CUT
10
1.4495
20
15.7606
11
9.8748
21
20.625
0
LINE
8
CUT
10
9.8748
20
21.375
11
1.4495
21
26.2394
0
POLYLINE
8
CUT
66
1
70
0
0
VERTEX
8
CUT
10
4.6127
20
23.4894
0
VERTEX
8
CUT
10
1.6
20
25.2287
0
VERTEX
8
CUT
10
1.6
20
21.75
0
SEQEND
0
POLYLINE
8
CUT
66
1
70
0
0
VERTEX
8
CUT
10
1.6
20
20.25
0
VERTEX
8
CUT
10
1.6
20
16.7713
0
VERTEX
8
CUT
10
4.6127
20
18.5106
0
SEQEND
0
POLYLINE
8
CUT
66
1
70
0
0
VERTEX
8
CUT
10
5.9117
20
19.2606
0
VERTEX
8
CUT
10
8.9244
20
21
0
VERTEX
8
CUT
10
5.9117
20
22.7394
0
SEQEND
0
LINE
8
CUT
10
2.4
20
23.0931
11
2.4
21
18.9069
0
LINE
8
CUT
10
3.0495
20
18.5319
11
6.6748
21
20.625
0
LINE
8
CUT
10
6.6748
20
21.375
11
3.0495
21
23.4681
0
POLYLINE
8
CUT
66
1
70
0
0
VERTEX
8
CUT
10
3.8127
20
22.1037
0
VERTEX
8
CUT
10
3.2
20
22.4574
0
VERTEX
8
CUT
10
3.2
20
21.75
0
SEQEND
0
POLYLINE
8
CUT
66
1
70
0
0
VERTEX
8
CUT
10
3.2
20
20.25
0
VERTEX
8
CUT
10
3.2
20
19.5426
0
VERTEX
8
CUT
10
3.8127
20
19.8963
0
SEQEND
0
POLYLINE
8
CUT
66
1
70
0
0
VERTEX
8
CUT
10
5.1117
20
20.6463
0
VERTEX
8
CUT
10
5.7244
20
21
0
VERTEX
8
CUT
10
5.1117
20
21.3537
0
SEQEND
0
LINE
8
CUT
10
11.3244
20
18.8644
11
11.3244
21
9.1356
0
LINE
8
CUT
10
10.6748
20
8.7606
11
2.2495
21
13.625
0
LINE
8
CUT
10
2.2495
20
14.375
11
10.6748
21
19.2394
0
POLYLINE
8
CUT
66
1
70
0
0
VERTEX
8
CUT
10
7.5117
20
16.4894
0
VERTEX
8
CUT
10
10.5244
20
18.2287
0
VERTEX
8
CUT
10
10.5244
20
14.75
0
SEQEND
0
POLYLINE
8
CUT
66
1
70
0
0
VERTEX
8
CUT
10
10.5244
20
13.25
0
VERTEX
8
CUT
10
10.5244
20
9.7713
0
VERTEX
8
CUT
10
7.5117
20
11.5106
0
SEQEND
0
POLYLINE
8
CUT
66
1
70
0
0
VERTEX
8
CUT
10
6.2127
20
12.2606
0
VERTEX
8
CUT
10
3.2
20
14
0
VERTEX
8
CUT
10
6.2127
20
15.7394
0
SEQEND
0
LINE
8
CUT
10
9.7244
20
16.0931
11
9.7244
21
11.9069
0
LINE
8
CUT
10
9.0748
20
11.5319
11
5.4495
21
13.625
0
LINE
8
CUT
10
5.4495
20
14.375
11
9.0748
21
16.4681
0
POLYLINE
8
CUT
66
1
70
0
0
VERTEX
8
CUT
10
8.3117
20
15.1037
0
VERTEX
8
CUT
10
8.9244
20
15.4574
0
VERTEX
8
CUT
10
8.9244
20
14.75
0
SEQEND
0
POLYLINE
8
CUT
66
1
70
0
0
VERTEX
8
CUT
10
8.9244
20
13.25
0
VERTEX
8
CUT
10
8.9244
20
12.5426
0
VERTEX
8
CUT
10
8.3117
20
12.8963
0
SEQEND
0
POLYLINE
8
CUT
66
1
70
0
0
VERTEX
8
CUT
10
7.0127
20
13.6463
0
VERTEX
8
CUT
10
6.4
20
14
0
VERTEX
8
CUT
10
7.0127
20
14.3537
0
SEQEND
0
LINE
8
CUT
10
0.8
20
11.8644
11
0.8
21
2.1356
0
LINE
8
CUT
10
1.4495
20
1.7606
11
9.8748
21
6.625
0
LINE
8
CUT
10
9.8748
20
7.375
11
1.4495
21
12.2394
0
POLYLINE
8
CUT
66
1
70
0
0
VERTEX
8
CUT
10
4.6127
20
9.4894
0
VERTEX
8
CUT
10
1.6
20
11.2287
0
VERTEX
8
CUT
10
1.6
20
7.75
0
SEQEND
0
POLYLINE
8
CUT
66
1
70
0
0
VERTEX
8
CUT
10
1.6
20
6.25
0
VERTEX
8
CUT
10
1.6
20
2.7713
0
VERTEX
8
CUT
10
4.6127
20
4.5106
0
SEQEND
0
POLYLINE
8
CUT
66
1
70
0
0
VERTEX
8
CUT
10
5.9117
20
5.2606
0
VERTEX
8
CUT
10
8.9244
20
7
0
VERTEX
8
CUT
10
5.9117
20
8.7394
0
SEQEND
0
LINE
8
CUT
10
2.4
20
9.0931
11
2.4
21
4.9069
0
LINE
8
CUT
10
3.0495
20
4.5319
11
6.6748
21
6.625
0
LINE
8
CUT
10
6.6748
20
7.375
11
3.0495
21
9.4681
0
POLYLINE
8
CUT
66
1
70
0
0
VERTEX
8
CUT
10
3.8127
20
8.1037
0
VERTEX
8
CUT
10
3.2
20
8.4574
0
VERTEX
8
CUT
10
3.2
20
7.75
0
SEQEND
0
POLYLINE
8
CUT
66
1
70
0
0
VERTEX
8
CUT
10
3.2
20
6.25
0
VERTEX
8
CUT
10
3.2
20
5.5426
0
VERTEX
8
CUT
10
3.8127
20
5.8963
0
SEQEND
0
POLYLINE
8
CUT
66
1
70
0
0
VERTEX
8
CUT
10
5.1117
20
6.6463
0
VERTEX
8
CUT
10
5.7244
20
7
0
VERTEX
8
CUT
10
5.1117
20
7.3537
0
SEQEND
0
LINE
8
CUT
10
11.3244
20
4.8644
11
11.3244
21
0
0
LINE
8
CUT
10
2.2495
20
0.375
11
10.6748
21
5.2394
0
POLYLINE
8
CUT
66
1
70
0
0
VERTEX
8
CUT
10
7.5117
20
2.4894
0
VERTEX
8
CUT
10
10.5244
20
4.2287
0
VERTEX
8
CUT
10
10.5244
20
0.75
0
SEQEND
0
POLYLINE
8
CUT
66
1
70
0
0
VERTEX
8
CUT
10
3.2
20
0
0
VERTEX
8
CUT
10
3.2
20
0
0
VERTEX
8
CUT
10
6.2127
20
1.7394
0
SEQEND
0
LINE
8
CUT
10
9.7244
20
2.0931
11
9.7244
21
0
0
LINE
8
CUT
10
5.4495
20
0.375
11
9.0748
21
2.4681
0
POLYLINE
8
CUT
66
1
70
0
0
VERTEX
8
CUT
10
8.3117
20
1.1037
0
VERTEX
8
CUT
10
8.9244
20
1.4574
0
VERTEX
8
CUT
10
8.9244
20
0.75
0
SEQEND
0
POLYLINE
8
CUT
66
1
70
0
0
VERTEX
8
CUT
10
6.4
20
0
0
VERTEX
8
CUT
10
6.4
20
0
0
VERTEX
8
CUT
10
7.0127
20
0.3537
0
SEQEND
0
LINE
8
CUT
10
12.9244
20
70
11
12.9244
21
65.1356
0
LINE
8
CUT
10
13.5739
20
64.7606
11
21.9992
21
69.625
0
POLYLINE
8
CUT
66
1
70
0
0
VERTEX
8
CUT
10
13.7244
20
69.25
0
VERTEX
8
CUT
10
13.7244
20
65.7713
0
VERTEX
8
CUT
10
16.737
20
67.5106
0
SEQEND
0
POLYLINE
8
CUT
66
1
70
0
0
VERTEX
8
CUT
10
18.0361
20
68.2606
0
VERTEX
8
CUT
10
21.0487
20
70
0
VERTEX
8
CUT
10
21.0487
20
70
0
SEQEND
0
LINE
8
CUT
10
14.5244
20
70
11
14.5244
21
67.9069
0
LINE
8
CUT
10
15.1739
20
67.5319
11
18.7992
21
69.625
0
POLYLINE
8
CUT
66
1
70
0
0
VERTEX
8
CUT
10
15.3244
20
69.25
0
VERTEX
8
CUT
10
15.3244
20
68.5426
0
VERTEX
8
CUT
10
15.937
20
68.8963
0
SEQEND
0
POLYLINE
8
CUT
66
1
70
0
0
VERTEX
8
CUT
10
17.2361
20
69.6463
0
VERTEX
8
CUT
10
17.8487
20
70
0
VERTEX
8
CUT
10
17.8487
20
70
0
SEQEND
0
LINE
8
CUT
10
23.4487
20
67.8644
11
23.4487
21
58.1356
0
LINE
8
CUT
10
22.7992
20
57.7606
11
14.3739
21
62.625
0
LINE
8
CUT
10
14.3739
20
63.375
11
22.7992
21
68.2394
0
POLYLINE
8
CUT
66
1
70
0
0
VERTEX
8
CUT
10
19.6361
20
65.4894
0
VERTEX
8
CUT
10
22.6487
20
67.2287
0
VERTEX
8
CUT
10
22.6487
20
63.75
0
SEQEND
0
POLYLINE
8
CUT
66
1
70
0
0
VERTEX
8
CUT
10
22.6487
20
62.25
0
VERTEX
8
CUT
10
22.6487
20
58.7713
0
VERTEX
8
CUT
10
19.6361
20
60.5106
0
SEQEND
0
POLYLINE
8
CUT
66
1
70
0
0
VERTEX
8
CUT
10
18.337
20
61.2606
0
VERTEX
8
CUT
10
15.3244
20
63
0
VERTEX
8
CUT
10
18.337
20
64.7394
0
SEQEND
0
LINE
8
CUT
10
21.8487
20
65.0931
11
21.8487
21
60.9069
0
LINE
8
CUT
10
21.1992
20
60.5319
11
17.5739
21
62.625
0
LINE
8
CUT
10
17.5739
20
63.375
11
21.1992
21
65.4681
0
POLYLINE
8
CUT
66
1
70
0
0
VERTEX
8
CUT
10
20.4361
20
64.1037
0
VERTEX
8
CUT
10
21.0487
20
64.4574
0
VERTEX
8
CUT
10
21.0487
20
63.75
0
SEQEND
0
POLYLINE
8
CUT
66
1
70
0
0
VERTEX
8
CUT
10
21.0487
20
62.25
0
VERTEX
8
CUT
10
21.0487
20
61.5426
0
VERTEX
8
CUT
10
20.4361
20
61.8963
0
SEQEND
0
POLYLINE
8
CUT
66
1
70
0
0
VERTEX
8
CUT
10
19.137
20
62.6463
0
VERTEX
8
CUT
10
18.5244
20
63
0
VERTEX
8
CUT
10
19.137
20
63.3537
0
SEQEND
0
LINE
8
CUT
10
12.9244
20
60.8644
11
12.9244
21
51.1356
0
LINE
8
CUT
10
13.5739
20
50.7606
11
21.9992
21
55.625
0
LINE
8
CUT
10
21.9992
20
56.375
11
13.5739
21
61.2394
0
POLYLINE
8
CUT
66
1
70
0
0
VERTEX
8
CUT
10
16.737
20
58.4894
0
VERTEX
8
CUT
10
13.7244
20
60.2287
0
VERTEX
8
CUT
10
13.7244
20
56.75
0
SEQEND
0
POLYLINE
8
CUT
66
1
70
0
0
VERTEX
8
CUT
10
13.7244
20
55.25
0
VERTEX
8
CUT
10
13.7244
20
51.7713
0
VERTEX
8
CUT
10
16.737
20
53.5106
0
SEQEND
0
POLYLINE
8
CUT
66
1
70
0
0
VERTEX
8
CUT
10
18.0361
20
54.2606
0
VERTEX
8
CUT
10
21.0487
20
56
0
VERTEX
8
CUT
10
18.0361
20
57.7394
0
SEQEND
0
LINE
8
CUT
10
14.5244
20
58.0931
11
14.5244
21
53.9069
0
LINE
8
CUT
10
15.1739
20
53.5319
11
18.7992
21
55.625
0
LINE
8
CUT
10
18.7992
20
56.375
11
15.1739
21
58.4681
0
POLYLINE
8
CUT
66
1
70
0
0
VERTEX
8
CUT
10
15.937
20
57.1037
0
VERTEX
8
CUT
10
15.3244
20
57.4574
0
VERTEX
8
CUT
10
15.3244
20
56.75
0
SEQEND
0
POLYLINE
8
CUT
66
1
70
0
0
VERTEX
8
CUT
10
15.3244
20
55.25
0
VERTEX
8
CUT
10
15.3244
20
54.5426
0
VERTEX
8
CUT
10
15.937
20
54.8963
0
SEQEND
0
POLYLINE
8
CUT
66
1
70
0
0
VERTEX
8
CUT
10
17.2361
20
55.6463
0
VERTEX
8
CUT
10
17.8487
20
56
0
VERTEX
8
CUT
10
17.2361
20
56.3537
0
SEQEND
0
LINE
8
CUT
10
23.4487
20
53.8644
11
23.4487
21
44.1356
0
LINE
8
CUT
10
22.7992
20
43.7606
11
14.3739
21
48.625
0
LINE
8
CUT
10
14.3739
20
49.375
11
22.7992
21
54.2394
0
POLYLINE
8
CUT
66
1
70
0
0
VERTEX
8
CUT
10
19.6361
20
51.4894
0
VERTEX
8
CUT
10
22.6487
20
53.2287
0
VERTEX
8
CUT
10
22.6487
20
49.75
0
SEQEND
0
POLYLINE
8
CUT
66
1
70
0
0
VERTEX
8
CUT
10
22.6487
20
48.25
0
VERTEX
8
CUT
10
22.6487
20
44.7713
0
VERTEX
8
CUT
10
19.6361
20
46.5106
0
SEQEND
0
POLYLINE
8
CUT
66
1
70
0
0
VERTEX
8
CUT
10
18.337
20
47.2606
0
VERTEX
8
CUT
10
15.3244
20
49
0
VERTEX
8
CUT
10
18.337
20
50.7394
0
SEQEND
0
LINE
8
CUT
10
21.8487
20
51.0931
11
21.8487
21
46.9069
0
LINE
8
CUT
10
21.1992
20
46.5319
11
17.5739
21
48.625
0
LINE
8
CUT
10
17.5739
20
49.375
11
21.1992
21
51.4681
0
POLYLINE
8
CUT
66
1
70
0
0
VERTEX
8
CUT
10
20.4361
20
50.1037
0
VERTEX
8
CUT
10
21.0487
20
50.4574
0
VERTEX
8
CUT
10
21.0487
20
49.75
0
SEQEND
0
POLYLINE
8
CUT
66
1
70
0
0
VERTEX
8
CUT
10
21.0487
20
48.25
0
VERTEX
8
CUT
10
21.0487
20
47.5426
0
VERTEX
8
CUT
10
20.4361
20
47.8963
0
SEQEND
0
POLYLINE
8
CUT
66
1
70
0
0
VERTEX
8
CUT
10
19.137
20
48.6463
0
VERTEX
8
CUT
10
18.5244
20
49
0
VERTEX
8
CUT
10
19.137
20
49.3537
0
SEQEND
0
LINE
8
CUT
10
12.9244
20
46.8644
11
12.9244
21
37.1356
0
LINE
8
CUT
10
13.5739
20
36.7606
11
21.9992
21
41.625
0
LINE
8
CUT
10
21.9992
20
42.375
11
13.5739
21
47.2394
0
POLYLINE
8
CUT
66
1
70
0
0
VERTEX
8
CUT
10
16.737
20
44.4894
0
VERTEX
8
CUT
10
13.7244
20
46.2287
0
VERTEX
8
CUT
10
13.7244
20
42.75
0
SEQEND
0
POLYLINE
8
CUT
66
1
70
0
0
VERTEX
8
CUT
10
13.7244
20
41.25
0
VERTEX
8
CUT
10
13.7244
20
37.7713
0
VERTEX
8
CUT
10
16.737
20
39.5106
0
SEQEND
0
POLYLINE
8
CUT
66
1
70
0
0
VERTEX
8
CUT
10
18.0361
20
40.2606
0
VERTEX
8
CUT
10
21.0487
20
42
0
VERTEX
8
CUT
10
18.0361
20
43.7394
0
SEQEND
0
LINE
8
CUT
10
14.5244
20
44.0931
11
14.5244
21
39.9069
0
LINE
8
CUT
10
15.1739
20
39.5319
11
18.7992
21
41.625
0
LINE
8
CUT
10
18.7992
20
42.375
11
15.1739
21
44.4681
0
POLYLINE
8
CUT
66
1
70
0
0
VERTEX
8
CUT
10
15.937
20
43.1037
0
VERTEX
8
CUT
10
15.3244
20
43.4574
0
VERTEX
8
CUT
10
15.3244
20
42.75
0
SEQEND
0
POLYLINE
8
CUT
66
1
70
0
0
VERTEX
8
CUT
10
15.3244
20
41.25
0
VERTEX
8
CUT
10
15.3244
20
40.5426
0
VERTEX
8
CUT
10
15.937
20
40.8963
0
SEQEND
0
POLYLINE
8
CUT
66
1
70
0
0
VERTEX
8
CUT
10
17.2361
20
41.6463
0
VERTEX
8
CUT
10
17.8487
20
42
0
VERTEX
8
CUT
10
17.2361
20
42.3537
0
SEQEND
0
LINE
8
CUT
10
23.4487
20
39.8644
11
23.4487
21
30.1356
0
LINE
8
CUT
10
22.7992
20
29.7606
11
14.3739
21
34.625
0
LINE
8
CUT
10
14.3739
20
35.375
11
22.7992
21
40.2394
0
POLYLINE
8
CUT
66
1
70
0
0
VERTEX
8
CUT
10
19.6361
20
37.4894
0
VERTEX
8
CUT
10
22.6487
20
39.2287
0
VERTEX
8
CUT
10
22.6487
20
35.75
0
SEQEND
0
POLYLINE
8
CUT
66
1
70
0
0
VERTEX
8
CUT
10
22.6487
20
34.25
0
VERTEX
8
CUT
10
22.6487
20
30.7713
0
VERTEX
8
CUT
10
19.6361
20
32.5106
0
SEQEND
0
POLYLINE
8
CUT
66
1
70
0
0
VERTEX
8
CUT
10
18.337
20
33.2606
0
VERTEX
8
CUT
10
15.3244
20
35
0
VERTEX
8
CUT
10
18.337
20
36.7394
0
SEQEND
0
LINE
8
CUT
10
21.8487
20
37.0931
11
21.8487
21
32.9069
0
LINE
8
CUT
10
21.1992
20
32.5319
11
17.5739
21
34.625
0
LINE
8
CUT
10
17.5739
20
35.375
11
21.1992
21
37.4681
0
POLYLINE
8
CUT
66
1
70
0
0
VERTEX
8
CUT
10
20.4361
20
36.1037
0
VERTEX
8
CUT
10
21.0487
20
36.4574
0
VERTEX
8
CUT
10
21.0487
20
35.75
0
SEQEND
0
POLYLINE
8
CUT
66
1
70
0
0
VERTEX
8
CUT
10
21.0487
20
34.25
0
VERTEX
8
CUT
10
21.0487
20
33.5426
0
VERTEX
8
CUT
10
20.4361
20
33.8963
0
SEQEND
0
POLYLINE
8
CUT
66
1
70
0
0
VERTEX
8
CUT
10
19.137
20
34.6463
0
VERTEX
8
CUT
10
18.5244
20
35
0
VERTEX
8
CUT
10
19.137
20
35.3537
0
SEQEND
0
LINE
8
CUT
10
12.9244
20
32.8644
11
12.9244
21
23.1356
0
LINE
8
CUT
10
13.5739
20
22.7606
11
21.9992
21
27.625
0
LINE
8
CUT
10
21.9992
20
28.375
11
13.5739
21
33.2394
0
POLYLINE
8
CUT
66
1
70
0
0
VERTEX
8
CUT
10
16.737
20
30.4894
0
VERTEX
8
CUT
10
13.7244
20
32.2287
0
VERTEX
8
CUT
10
13.7244
20
28.75
0
SEQEND
0
POLYLINE
8
CUT
66
1
70
0
0
VERTEX
8
CUT
10
13.7244
20
27.25
0
VERTEX
8
CUT
10
13.7244
20
23.7713
0
VERTEX
8
CUT
10
16.737
20
25.5106
0
SEQEND
0
POLYLINE
8
CUT
66
1
70
0
0
VERTEX
8
CUT
10
18.0361
20
26.2606
0
VERTEX
8
CUT
10
21.0487
20
28
0
VERTEX
8
CUT
10
18.0361
20
29.7394
0
SEQEND
0
LINE
8
CUT
10
14.5244
20
30.0931
11
14.5244
21
25.9069
0
LINE
8
CUT
10
15.1739
20
25.5319
11
18.7992
21
27.625
0
LINE
8
CUT
10
18.7992
20
28.375
11
15.1739
21
30.4681
0
POLYLINE
8
CUT
66
1
70
0
0
VERTEX
8
CUT
10
15.937
20
29.1037
0
VERTEX
8
CUT
10
15.3244
20
29.4574
0
VERTEX
8
CUT
10
15.3244
20
28.75
0
SEQEND
0
POLYLINE
8
CUT
66
1
70
0
0
VERTEX
8
CUT
10
15.3244
20
27.25
0
VERTEX
8
CUT
10
15.3244
20
26.5426
0
VERTEX
8
CUT
10
15.937
20
26.8963
0
SEQEND
0
POLYLINE
8
CUT
66
1
70
0
0
VERTEX
8
CUT
10
17.2361
20
27.6463
0
VERTEX
8
CUT
10
17.8487
20
28
0
VERTEX
8
CUT
10
17.2361
20
28.3537
0
SEQEND
0
LINE
8
CUT
10
23.4487
20
25.8644
11
23.4487
21
16.1356
0
LINE
8
CUT
10
22.7992
20
15.7606
11
14.3739
21
20.625
0
LINE
8
CUT
10
14.3739
20
21.375
11
22.7992
21
26.2394
0
POLYLINE
8
CUT
66
1
70
0
0
VERTEX
8
CUT
10
19.6361
20
23.4894
0
VERTEX
8
CUT
10
22.6487
20
25.2287
0
VERTEX
8
CUT
10
22.6487
20
21.75
0
SEQEND
0
POLYLINE
8
CUT
66
1
70
0
0
VERTEX
8
CUT
10
22.6487
20
20.25
0
VERTEX
8
CUT
10
22.6487
20
16.7713
0
VERTEX
8
CUT
10
19.6361
20
18.5106
0
SEQEND
0
POLYLINE
8
CUT
66
1
70
0
0
VERTEX
8
CUT
10
18.337
20
19.2606
0
VERTEX
8
CUT
10
15.3244
20
21
0
VERTEX
8
CUT
10
18.337
20
22.7394
0
SEQEND
0
LINE
8
CUT
10
21.8487
20
23.0931
11
21.8487
21
18.9069
0
LINE
8
CUT
10
21.1992
20
18.5319
11
17.5739
21
20.625
0
LINE
8
CUT
10
17.5739
20
21.375
11
21.1992
21
23.4681
0
POLYLINE
8
CUT
66
1
70
0
0
VERTEX
8
CUT
10
20.4361
20
22.1037
0
VERTEX
8
CUT
10
21.0487
20
22.4574
0
VERTEX
8
CUT
10
21.0487
20
21.75
0
SEQEND
0
POLYLINE
8
CUT
66
1
70
0
0
VERTEX
8
CUT
10
21.0487
20
20.25
0
VERTEX
8
CUT
10
21.0487
20
19.5426
0
VERTEX
8
CUT
10
20.4361
20
19.8963
0
SEQEND
0
POLYLINE
8
CUT
66
1
70
0
0
VERTEX
8
CUT
10
19.137
20
20.6463
0
VERTEX
8
CUT
10
18.5244
20
21
0
VERTEX
8
CUT
10
19.137
20
21.3537
0
SEQEND
0
LINE
8
CUT
10
12.9244
20
18.8644
11
12.9244
21
9.1356
0
LINE
8
CUT
10
13.5739
20
8.7606
11
21.9992
21
13.625
0
LINE
8
CUT
10
21.9992
20
14.375
11
13.5739
21
19.2394
0
POLYLINE
8
CUT
66
1
70
0
0
VERTEX
8
CUT
10
16.737
20
16.4894
0
VERTEX
8
CUT
10
13.7244
20
18.2287
0
VERTEX
8
CUT
10
13.7244
20
14.75
0
SEQEND
0
POLYLINE
8
CUT
66
1
70
0
0
VERTEX
8
CUT
10
13.7244
20
13.25
0
VERTEX
8
CUT
10
13.7244
20
9.7713
0
VERTEX
8
CUT
10
16.737
20
11.5106
0
SEQEND
0
POLYLINE
8
CUT
66
1
70
0
0
VERTEX
8
CUT
10
18.0361
20
12.2606
0
VERTEX
8
CUT
10
21.0487
20
14
0
VERTEX
8
CUT
10
18.0361
20
15.7394
0
SEQEND
0
LINE
8
CUT
10
14.5244
20
16.0931
11
14.5244
21
11.9069
0
LINE
8
CUT
10
15.1739
20
11.5319
11
18.7992
21
13.625
0
LINE
8
CUT
10
18.7992
20
14.375
11
15.1739
21
16.4681
0
POLYLINE
8
CUT
66
1
70
0
0
VERTEX
8
CUT
10
15.937
20
15.1037
0
VERTEX
8
CUT
10
15.3244
20
15.4574
0
VERTEX
8
CUT
10
15.3244
20
14.75
0
SEQEND
0
POLYLINE
8
CUT
66
1
70
0
0
VERTEX
8
CUT
10
15.3244
20
13.25
0
VERTEX
8
CUT
10
15.3244
20
12.5426
0
VERTEX
8
CUT
10
15.937
20
12.8963
0
SEQEND
0
POLYLINE
8
CUT
66
1
70
0
0
VERTEX
8
CUT
10
17.2361
20
13.6463
0
VERTEX
8
CUT
10
17.8487
20
14
0
VERTEX
8
CUT
10
17.2361
20
14.3537
0
SEQEND
0
LINE
8
CUT
10
23.4487
20
11.8644
11
23.4487
21
2.1356
0
LINE
8
CUT
10
22.7992
20
1.7606
11
14.3739
21
6.625
0
LINE
8
CUT
10
14.3739
20
7.375
11
22.7992
21
12.2394
0
POLYLINE
8
CUT
66
1
70
0
0
VERTEX
8
CUT
10
19.6361
20
9.4894
0
VERTEX
8
CUT
10
22.6487
20
11.2287
0
VERTEX
8
CUT
10
22.6487
20
7.75
0
SEQEND
0
POLYLINE
8
CUT
66
1
70
0
0
VERTEX
8
CUT
10
22.6487
20
6.25
0
VERTEX
8
CUT
10
22.6487
20
2.7713
0
VERTEX
8
CUT
10
19.6361
20
4.5106
0
SEQEND
0
POLYLINE
8
CUT
66
1
70
0
0
VERTEX
8
CUT
10
18.337
20
5.2606
0
VERTEX
8
CUT
10
15.3244
20
7
0
VERTEX
8
CUT
10
18.337
20
8.7394
0
SEQEND
0
LINE
8
CUT
10
21.8487
20
9.0931
11
21.8487
21
4.9069
0
LINE
8
CUT
10
21.1992
20
4.5319
11
17.5739
21
6.625
0
LINE
8
CUT
10
17.5739
20
7.375
11
21.1992
21
9.4681
0
POLYLINE
8
CUT
66
1
70
0
0
VERTEX
8
CUT
10
20.4361
20
8.1037
0
VERTEX
8
CUT
10
21.0487
20
8.4574
0
VERTEX
8
CUT
10
21.0487
20
7.75
0
SEQEND
0
POLYLINE
8
CUT
66
1
70
0
0
VERTEX
8
CUT
10
21.0487
20
6.25
0
VERTEX
8
CUT
10
21.0487
20
5.5426
0
VERTEX
8
CUT
10
20.4361
20
5.8963
0
SEQEND
0
POLYLINE
8
CUT
66
1
70
0
0
VERTEX
8
CUT
10
19.137
20
6.6463
0
VERTEX
8
CUT
10
18.5244
20
7
0
VERTEX
8
CUT
10
19.137
20
7.3537
0
SEQEND
0
LINE
8
CUT
10
12.9244
20
4.8644
11
12.9244
21
0
0
LINE
8
CUT
10
21.9992
20
0.375
11
13.5739
21
5.2394
0
POLYLINE
8
CUT
66
1
70
0
0
VERTEX
8
CUT
10
16.737
20
2.4894
0
VERTEX
8
CUT
10
13.7244
20
4.2287
0
VERTEX
8
CUT
10
13.7244
20
0.75
0
SEQEND
0
POLYLINE
8
CUT
66
1
70
0
0
VERTEX
8
CUT
10
21.0487
20
0
0
VERTEX
8
CUT
10
21.0487
20
0
0
VERTEX
8
CUT
10
18.0361
20
1.7394
0
SEQEND
0
LINE
8
CUT
10
14.5244
20
2.0931
11
14.5244
21
0
0
LINE
8
CUT
10
18.7992
20
0.375
11
15.1739
21
2.4681
0
POLYLINE
8
CUT
66
1
70
0
0
VERTEX
8
CUT
10
15.937
20
1.1037
0
VERTEX
8
CUT
10
15.3244
20
1.4574
0
VERTEX
8
CUT
10
15.3244
20
0.75
0
SEQEND
0
POLYLINE
8
CUT
66
1
70
0
0
VERTEX
8
CUT
10
17.8487
20
0
0
VERTEX
8
CUT
10
17.8487
20
0
0
VERTEX
8
CUT
10
17.2361
20
0.3537
0
SEQEND
0
LINE
8
CUT
10
35.5731
20
70
11
35.5731
21
65.1356
0
LINE
8
CUT
10
34.9235
20
64.7606
11
26.4982
21
69.625
0
POLYLINE
8
CUT
66
1
70
0
0
VERTEX
8
CUT
10
34.7731
20
69.25
0
VERTEX
8
CUT
10
34.7731
20
65.7713
0
VERTEX
8
CUT
10
31.7604
20
67.5106
0
SEQEND
0
POLYLINE
8
CUT
66
1
70
0
0
VERTEX
8
CUT
10
30.4614
20
68.2606
0
VERTEX
8
CUT
10
27.4487
20
70
0
VERTEX
8
CUT
10
27.4487
20
70
0
SEQEND
0
LINE
8
CUT
10
33.9731
20
70
11
33.9731
21
67.9069
0
LINE
8
CUT
10
33.3235
20
67.5319
11
29.6982
21
69.625
0
POLYLINE
8
CUT
66
1
70
0
0
VERTEX
8
CUT
10
33.1731
20
69.25
0
VERTEX
8
CUT
10
33.1731
20
68.5426
0
VERTEX
8
CUT
10
32.5604
20
68.8963
0
SEQEND
0
POLYLINE
8
CUT
66
1
70
0
0
VERTEX
8
CUT
10
31.2614
20
69.6463
0
VERTEX
8
CUT
10
30.6487
20
70
0
VERTEX
8
CUT
10
30.6487
20
70
0
SEQEND
0
LINE
8
CUT
10
25.0487
20
67.8644
11
25.0487
21
58.1356
0
LINE
8
CUT
10
25.6982
20
57.7606
11
34.1235
21
62.625
0
LINE
8
CUT
10
34.1235
20
63.375
11
25.6982
21
68.2394
0
POLYLINE
8
CUT
66
1
70
0
0
VERTEX
8
CUT
10
28.8614
20
65.4894
0
VERTEX
8
CUT
10
25.8487
20
67.2287
0
VERTEX
8
CUT
10
25.8487
20
63.75
0
SEQEND
0
POLYLINE
8
CUT
66
1
70
0
0
VERTEX
8
CUT
10
25.8487
20
62.25
0
VERTEX
8
CUT
10
25.8487
20
58.7713
0
VERTEX
8
CUT
10
28.8614
20
60.5106
0
SEQEND
0
POLYLINE
8
CUT
66
1
70
0
0
VERTEX
8
CUT
10
30.1604
20
61.2606
0
VERTEX
8
CUT
10
33.1731
20
63
0
VERTEX
8
CUT
10
30.1604
20
64.7394
0
SEQEND
0
LINE
8
CUT
10
26.6487
20
65.0931
11
26.6487
21
60.9069
0
LINE
8
CUT
10
27.2982
20
60.5319
11
30.9235
21
62.625
0
LINE
8
CUT
10
30.9235
20
63.375
11
27.2982
21
65.4681
0
POLYLINE
8
CUT
66
1
70
0
0
VERTEX
8
CUT
10
28.0614
20
64.1037
0
VERTEX
8
CUT
10
27.4487
20
64.4574
0
VERTEX
8
CUT
10
27.4487
20
63.75
0
SEQEND
0
POLYLINE
8
CUT
66
1
70
0
0
VERTEX
8
CUT
10
27.4487
20
62.25
0
VERTEX
8
CUT
10
27.4487
20
61.5426
0
VERTEX
8
CUT
10
28.0614
20
61.8963
0
SEQEND
0
POLYLINE
8
CUT
66
1
70
0
0
VERTEX
8
CUT
10
29.3604
20
62.6463
0
VERTEX
8
CUT
10
29.9731
20
63
0
VERTEX
8
CUT
10
29.3604
20
63.3537
0
SEQEND
0
LINE
8
CUT
10
35.5731
20
60.8644
11
35.5731
21
51.1356
0
LINE
8
CUT
10
34.9235
20
50.7606
11
26.4982
21
55.625
0
LINE
8
CUT
10
26.4982
20
56.375
11
34.9235
21
61.2394
0
POLYLINE
8
CUT
66
1
70
0
0
VERTEX
8
CUT
10
31.7604
20
58.4894
0
VERTEX
8
CUT
10
34.7731
20
60.2287
0
VERTEX
8
CUT
10
34.7731
20
56.75
0
SEQEND
0
POLYLINE
8
CUT
66
1
70
0
0
VERTEX
8
CUT
10
34.7731
20
55.25
0
VERTEX
8
CUT
10
34.7731
20
51.7713
0
VERTEX
8
CUT
10
31.7604
20
53.5106
0
SEQEND
0
POLYLINE
8
CUT
66
1
70
0
0
VERTEX
8
CUT
10
30.4614
20
54.2606
0
VERTEX
8
CUT
10
27.4487
20
56
0
VERTEX
8
CUT
10
30.4614
20
57.7394
0
SEQEND
0
LINE
8
CUT
10
33.9731
20
58.0931
11
33.9731
21
53.9069
0
LINE
8
CUT
10
33.3235
20
53.5319
11
29.6982
21
55.625
0
LINE
8
CUT
10
29.6982
20
56.375
11
33.3235
21
58.4681
0
POLYLINE
8
CUT
66
1
70
0
0
VERTEX
8
CUT
10
32.5604
20
57.1037
0
VERTEX
8
CUT
10
33.1731
20
57.4574
0
VERTEX
8
CUT
10
33.1731
20
56.75
0
SEQEND
0
POLYLINE
8
CUT
66
1
70
0
0
VERTEX
8
CUT
10
33.1731
20
55.25
0
VERTEX
8
CUT
10
33.1731
20
54.5426
0
VERTEX
8
CUT
10
32.5604
20
54.8963
0
SEQEND
0
POLYLINE
8
CUT
66
1
70
0
0
VERTEX
8
CUT
10
31.2614
20
55.6463
0
VERTEX
8
CUT
10
30.6487
20
56
0
VERTEX
8
CUT
10
31.2614
20
56.3537
0
SEQEND
0
LINE
8
CUT
10
25.0487
20
53.8644
11
25.0487
21
44.1356
0
LINE
8
CUT
10
25.6982
20
43.7606
11
34.1235
21
48.625
0
LINE
8
CUT
10
34.1235
20
49.375
11
25.6982
21
54.2394
0
POLYLINE
8
CUT
66
1
70
0
0
VERTEX
8
CUT
10
28.8614
20
51.4894
0
VERTEX
8
CUT
10
25.8487
20
53.2287
0
VERTEX
8
CUT
10
25.8487
20
49.75
0
SEQEND
0
POLYLINE
8
CUT
66
1
70
0
0
VERTEX
8
CUT
10
25.8487
20
48.25
0
VERTEX
8
CUT
10
25.8487
20
44.7713
0
VERTEX
8
CUT
10
28.8614
20
46.5106
0
SEQEND
0
POLYLINE
8
CUT
66
1
70
0
0
VERTEX
8
CUT
10
30.1604
20
47.2606
0
VERTEX
8
CUT
10
33.1731
20
49
0
VERTEX
8
CUT
10
30.1604
20
50.7394
0
SEQEND
0
LINE
8
CUT
10
26.6487
20
51.0931
11
26.6487
21
46.9069
0
LINE
8
CUT
10
27.2982
20
46.5319
11
30.9235
21
48.625
0
LINE
8
CUT
10
30.9235
20
49.375
11
27.2982
21
51.4681
0
POLYLINE
8
CUT
66
1
70
0
0
VERTEX
8
CUT
10
28.0614
20
50.1037
0
VERTEX
8
CUT
10
27.4487
20
50.4574
0
VERTEX
8
CUT
10
27.4487
20
49.75
0
SEQEND
0
POLYLINE
8
CUT
66
1
70
0
0
VERTEX
8
CUT
10
27.4487
20
48.25
0
VERTEX
8
CUT
10
27.4487
20
47.5426
0
VERTEX
8
CUT
10
28.0614
20
47.8963
0
SEQEND
0
POLYLINE
8
CUT
66
1
70
0
0
VERTEX
8
CUT
10
29.3604
20
48.6463
0
VERTEX
8
CUT
10
29.9731
20
49
0
VERTEX
8
CUT
10
29.3604
20
49.3537
0
SEQEND
0
LINE
8
CUT
10
35.5731
20
46.8644
11
35.5731
21
37.1356
0
LINE
8
CUT
10
34.9235
20
36.7606
11
26.4982
21
41.625
0
LINE
8
CUT
10
26.4982
20
42.375
11
34.9235
21
47.2394
0
POLYLINE
8
CUT
66
1
70
0
0
VERTEX
8
CUT
10
31.7604
20
44.4894
0
VERTEX
8
CUT
10
34.7731
20
46.2287
0
VERTEX
8
CUT
10
34.7731
20
42.75
0
SEQEND
0
POLYLINE
8
CUT
66
1
70
0
0
VERTEX
8
CUT
10
34.7731
20
41.25
0
VERTEX
8
CUT
10
34.7731
20
37.7713
0
VERTEX
8
CUT
10
31.7604
20
39.5106
0
SEQEND
0
POLYLINE
8
CUT
66
1
70
0
0
VERTEX
8
CUT
10
30.4614
20
40.2606
0
VERTEX
8
CUT
10
27.4487
20
42
0
VERTEX
8
CUT
10
30.4614
20
43.7394
0
SEQEND
0
LINE
8
CUT
10
33.9731
20
44.0931
11
33.9731
21
39.9069
0
LINE
8
CUT
10
33.3235
20
39.5319
11
29.6982
21
41.625
0
LINE
8
CUT
10
29.6982
20
42.375
11
33.3235
21
44.4681
0
POLYLINE
8
CUT
66
1
70
0
0
VERTEX
8
CUT
10
32.5604
20
43.1037
0
VERTEX
8
CUT
10
33.1731
20
43.4574
0
VERTEX
8
CUT
10
33.1731
20
42.75
0
SEQEND
0
POLYLINE
8
CUT
66
1
70
0
0
VERTEX
8
CUT
10
33.1731
20
41.25
0
VERTEX
8
CUT
10
33.1731
20
40.5426
0
VERTEX
8
CUT
10
32.5604
20
40.8963
0
SEQEND
0
POLYLINE
8
CUT
66
1
70
0
0
VERTEX
8
CUT
10
31.2614
20
41.6463
0
VERTEX
8
CUT
10
30.6487
20
42
0
VERTEX
8
CUT
10
31.2614
20
42.3537
0
SEQEND
0
LINE
8
CUT
10
25.0487
20
39.8644
11
25.0487
21
30.1356
0
LINE
8
CUT
10
25.6982
20
29.7606
11
34.1235
21
34.625
0
LINE
8
CUT
10
34.1235
20
35.375
11
25.6982
21
40.2394
0
POLYLINE
8
CUT
66
1
70
0
0
VERTEX
8
CUT
10
28.8614
20
37.4894
0
VERTEX
8
CUT
10
25.8487
20
39.2287
0
VERTEX
8
CUT
10
25.8487
20
35.75
0
SEQEND
0
POLYLINE
8
CUT
66
1
70
0
0
VERTEX
8
CUT
10
25.8487
20
34.25
0
VERTEX
8
CUT
10
25.8487
20
30.7713
0
VERTEX
8
CUT
10
28.8614
20
32.5106
0
SEQEND
0
POLYLINE
8
CUT
66
1
70
0
0
VERTEX
8
CUT
10
30.1604
20
33.2606
0
VERTEX
8
CUT
10
33.1731
20
35
0
VERTEX
8
CUT
10
30.1604
20
36.7394
0
SEQEND
0
LINE
8
CUT
10
26.6487
20
37.0931
11
26.6487
21
32.9069
0
LINE
8
CUT
10
27.2982
20
32.5319
11
30.9235
21
34.625
0
LINE
8
CUT
10
30.9235
20
35.375
11
27.2982
21
37.4681
0
POLYLINE
8
CUT
66
1
70
0
0
VERTEX
8
CUT
10
28.0614
20
36.1037
0
VERTEX
8
CUT
10
27.4487
20
36.4574
0
VERTEX
8
CUT
10
27.4487
20
35.75
0
SEQEND
0
POLYLINE
8
CUT
66
1
70
0
0
VERTEX
8
CUT
10
27.4487
20
34.25
0
VERTEX
8
CUT
10
27.4487
20
33.5426
0
VERTEX
8
CUT
10
28.0614
20
33.8963
0
SEQEND
0
POLYLINE
8
CUT
66
1
70
0
0
VERTEX
8
CUT
10
29.3604
20
34.6463
0
VERTEX
8
CUT
10
29.9731
20
35
0
VERTEX
8
CUT
10
29.3604
20
35.3537
0
SEQEND
0
LINE
8
CUT
10
35.5731
20
32.8644
11
35.5731
21
23.1356
0
LINE
8
CUT
10
34.9235
20
22.7606
11
26.4982
21
27.625
0
LINE
8
CUT
10
26.4982
20
28.375
11
34.9235
21
33.2394
0
POLYLINE
8
CUT
66
1
70
0
0
VERTEX
8
CUT
10
31.7604
20
30.4894
0
VERTEX
8
CUT
10
34.7731
20
32.2287
0
VERTEX
8
CUT
10
34.7731
20
28.75
0
SEQEND
0
POLYLINE
8
CUT
66
1
70
0
0
VERTEX
8
CUT
10
34.7731
20
27.25
0
VERTEX
8
CUT
10
34.7731
20
23.7713
0
VERTEX
8
CUT
10
31.7604
20
25.5106
0
SEQEND
0
POLYLINE
8
CUT
66
1
70
0
0
VERTEX
8
CUT
10
30.4614
20
26.2606
0
VERTEX
8
CUT
10
27.4487
20
28
0
VERTEX
8
CUT
10
30.4614
20
29.7394
0
SEQEND
0
LINE
8
CUT
10
33.9731
20
30.0931
11
33.9731
21
25.9069
0
LINE
8
CUT
10
33.3235
20
25.5319
11
29.6982
21
27.625
0
LINE
8
CUT
10
29.6982
20
28.375
11
33.3235
21
30.4681
0
POLYLINE
8
CUT
66
1
70
0
0
VERTEX
8
CUT
10
32.5604
20
29.1037
0
VERTEX
8
CUT
10
33.1731
20
29.4574
0
VERTEX
8
CUT
10
33.1731
20
28.75
0
SEQEND
0
POLYLINE
8
CUT
66
1
70
0
0
VERTEX
8
CUT
10
33.1731
20
27.25
0
VERTEX
8
CUT
10
33.1731
20
26.5426
0
VERTEX
8
CUT
10
32.5604
20
26.8963
0
SEQEND
0
POLYLINE
8
CUT
66
1
70
0
0
VERTEX
8
CUT
10
31.2614
20
27.6463
0
VERTEX
8
CUT
10
30.6487
20
28
0
VERTEX
8
CUT
10
31.2614
20
28.3537
0
SEQEND
0
LINE
8
CUT
10
25.0487
20
25.8644
11
25.0487
21
16.1356
0
LINE
8
CUT
10
25.6982
20
15.7606
11
34.1235
21
20.625
0
LINE
8
CUT
10
34.1235
20
21.375
11
25.6982
21
26.2394
0
POLYLINE
8
CUT
66
1
70
0
0
VERTEX
8
CUT
10
28.8614
20
23.4894
0
VERTEX
8
CUT
10
25.8487
20
25.2287
0
VERTEX
8
CUT
10
25.8487
20
21.75
0
SEQEND
0
POLYLINE
8
CUT
66
1
70
0
0
VERTEX
8
CUT
10
25.8487
20
20.25
0
VERTEX
8
CUT
10
25.8487
20
16.7713
0
VERTEX
8
CUT
10
28.8614
20
18.5106
0
SEQEND
0
POLYLINE
8
CUT
66
1
70
0
0
VERTEX
8
CUT
10
30.1604
20
19.2606
0
VERTEX
8
CUT
10
33.1731
20
21
0
VERTEX
8
CUT
10
30.1604
20
22.7394
0
SEQEND
0
LINE
8
CUT
10
26.6487
20
23.0931
11
26.6487
21
18.9069
0
LINE
8
CUT
10
27.2982
20
18.5319
11
30.9235
21
20.625
0
LINE
8
CUT
10
30.9235
20
21.375
11
27.2982
21
23.4681
0
POLYLINE
8
CUT
66
1
70
0
0
VERTEX
8
CUT
10
28.0614
20
22.1037
0
VERTEX
8
CUT
10
27.4487
20
22.4574
0
VERTEX
8
CUT
10
27.4487
20
21.75
0
SEQEND
0
POLYLINE
8
CUT
66
1
70
0
0
VERTEX
8
CUT
10
27.4487
20
20.25
0
VERTEX
8
CUT
10
27.4487
20
19.5426
0
VERTEX
8
CUT
10
28.0614
20
19.8963
0
SEQEND
0
POLYLINE
8
CUT
66
1
70
0
0
VERTEX
8
CUT
10
29.3604
20
20.6463
0
VERTEX
8
CUT
10
29.9731
20
21
0
VERTEX
8
CUT
10
29.3604
20
21.3537
0
SEQEND
0
LINE
8
CUT
10
35.5731
20
18.8644
11
35.5731
21
9.1356
0
LINE
8
CUT
10
34.9235
20
8.7606
11
26.4982
21
13.625
0
LINE
8
CUT
10
26.4982
20
14.375
11
34.9235
21
19.2394
0
POLYLINE
8
CUT
66
1
70
0
0
VERTEX
8
CUT
10
31.7604
20
16.4894
0
VERTEX
8
CUT
10
34.7731
20
18.2287
0
VERTEX
8
CUT
10
34.7731
20
14.75
0
SEQEND
0
POLYLINE
8
CUT
66
1
70
0
0
VERTEX
8
CUT
10
34.7731
20
13.25
0
VERTEX
8
CUT
10
34.7731
20
9.7713
0
VERTEX
8
CUT
10
31.7604
20
11.5106
0
SEQEND
0
POLYLINE
8
CUT
66
1
70
0
0
VERTEX
8
CUT
10
30.4614
20
12.2606
0
VERTEX
8
CUT
10
27.4487
20
14
0
VERTEX
8
CUT
10
30.4614
20
15.7394
0
SEQEND
0
LINE
8
CUT
10
33.9731
20
16.0931
11
33.9731
21
11.9069
0
LINE
8
CUT
10
33.3235
20
11.5319
11
29.6982
21
13.625
0
LINE
8
CUT
10
29.6982
20
14.375
11
33.3235
21
16.4681
0
POLYLINE
8
CUT
66
1
70
0
0
VERTEX
8
CUT
10
32.5604
20
15.1037
0
VERTEX
8
CUT
10
33.1731
20
15.4574
0
VERTEX
8
CUT
10
33.1731
20
14.75
0
SEQEND
0
POLYLINE
8
CUT
66
1
70
0
0
VERTEX
8
CUT
10
33.1731
20
13.25
0
VERTEX
8
CUT
10
33.1731
20
12.5426
0
VERTEX
8
CUT
10
32.5604
20
12.8963
0
SEQEND
0
POLYLINE
8
CUT
66
1
70
0
0
VERTEX
8
CUT
10
31.2614
20
13.6463
0
VERTEX
8
CUT
10
30.6487
20
14
0
VERTEX
8
CUT
10
31.2614
20
14.3537
0
SEQEND
0
LINE
8
CUT
10
25.0487
20
11.8644
11
25.0487
21
2.1356
0
LINE
8
CUT
10
25.6982
20
1.7606
11
34.1235
21
6.625
0
LINE
8
CUT
10
34.1235
20
7.375
11
25.6982
21
12.2394
0
POLYLINE
8
CUT
66
1
70
0
0
VERTEX
8
CUT
10
28.8614
20
9.4894
0
VERTEX
8
CUT
10
25.8487
20
11.2287
0
VERTEX
8
CUT
10
25.8487
20
7.75
0
SEQEND
0
POLYLINE
8
CUT
66
1
70
0
0
VERTEX
8
CUT
10
25.8487
20
6.25
0
VERTEX
8
CUT
10
25.8487
20
2.7713
0
VERTEX
8
CUT
10
28.8614
20
4.5106
0
SEQEND
0
POLYLINE
8
CUT
66
1
70
0
0
VERTEX
8
CUT
10
30.1604
20
5.2606
0
VERTEX
8
CUT
10
33.1731
20
7
0
VERTEX
8
CUT
10
30.1604
20
8.7394
0
SEQEND
0
LINE
8
CUT
10
26.6487
20
9.0931
11
26.6487
21
4.9069
0
LINE
8
CUT
10
27.2982
20
4.5319
11
30.9235
21
6.625
0
LINE
8
CUT
10
30.9235
20
7.375
11
27.2982
21
9.4681
0
POLYLINE
8
CUT
66
1
70
0
0
VERTEX
8
CUT
10
28.0614
20
8.1037
0
VERTEX
8
CUT
10
27.4487
20
8.4574
0
VERTEX
8
CUT
10
27.4487
20
7.75
0
SEQEND
0
POLYLINE
8
CUT
66
1
70
0
0
VERTEX
8
CUT
10
27.4487
20
6.25
0
VERTEX
8
CUT
10
27.4487
20
5.5426
0
VERTEX
8
CUT
10
28.0614
20
5.8963
0
SEQEND
0
POLYLINE
8
CUT
66
1
70
0
0
VERTEX
8
CUT
10
29.3604
20
6.6463
0
VERTEX
8
CUT
10
29.9731
20
7
0
VERTEX
8
CUT
10
29.3604
20
7.3537
0
SEQEND
0
LINE
8
CUT
10
35.5731
20
4.8644
11
35.5731
21
0
0
LINE
8
CUT
10
26.4982
20
0.375
11
34.9235
21
5.2394
0
POLYLINE
8
CUT
66
1
70
0
0
VERTEX
8
CUT
10
31.7604
20
2.4894
0
VERTEX
8
CUT
10
34.7731
20
4.2287
0
VERTEX
8
CUT
10
34.7731
20
0.75
0
SEQEND
0
POLYLINE
8
CUT
66
1
70
0
0
VERTEX
8
CUT
10
27.4487
20
0
0
VERTEX
8
CUT
10
27.4487
20
0
0
VERTEX
8
CUT
10
30.4614
20
1.7394
0
SEQEND
0
LINE
8
CUT
10
33.9731
20
2.0931
11
33.9731
21
0
0
LINE
8
CUT
10
29.6982
20
0.375
11
33.3235
21
2.4681
0
POLYLINE
8
CUT
66
1
70
0
0
VERTEX
8
CUT
10
32.5604
20
1.1037
0
VERTEX
8
CUT
10
33.1731
20
1.4574
0
VERTEX
8
CUT
10
33.1731
20
0.75
0
SEQEND
0
POLYLINE
8
CUT
66
1
70
0
0
VERTEX
8
CUT
10
30.6487
20
0
0
VERTEX
8
CUT
10
30.6487
20
0
0
VERTEX
8
CUT
10
31.2614
20
0.3537
0
SEQEND
0
LINE
8
CUT
10
37.1731
20
70
11
37.1731
21
65.1356
0
LINE
8
CUT
10
37.8226
20
64.7606
11
46.2479
21
69.625
0
POLYLINE
8
CUT
66
1
70
0
0
VERTEX
8
CUT
10
37.9731
20
69.25
0
VERTEX
8
CUT
10
37.9731
20
65.7713
0
VERTEX
8
CUT
10
40.9857
20
67.5106
0
SEQEND
0
POLYLINE
8
CUT
66
1
70
0
0
VERTEX
8
CUT
10
42.2848
20
68.2606
0
VERTEX
8
CUT
10
45.2974
20
70
0
VERTEX
8
CUT
10
45.2974
20
70
0
SEQEND
0
LINE
8
CUT
10
38.7731
20
70
11
38.7731
21
67.9069
0
LINE
8
CUT
10
39.4226
20
67.5319
11
43.0479
21
69.625
0
POLYLINE
8
CUT
66
1
70
0
0
VERTEX
8
CUT
10
39.5731
20
69.25
0
VERTEX
8
CUT
10
39.5731
20
68.5426
0
VERTEX
8
CUT
10
40.1857
20
68.8963
0
SEQEND
0
POLYLINE
8
CUT
66
1
70
0
0
VERTEX
8
CUT
10
41.4848
20
69.6463
0
VERTEX
8
CUT
10
42.0974
20
70
0
VERTEX
8
CUT
10
42.0974
20
70
0
SEQEND
0
LINE
8
CUT
10
47.6974
20
67.8644
11
47.6974
21
58.1356
0
LINE
8
CUT
10
47.0479
20
57.7606
11
38.6226
21
62.625
0
LINE
8
CUT
10
38.6226
20
63.375
11
47.0479
21
68.2394
0
POLYLINE
8
CUT
66
1
70
0
0
VERTEX
8
CUT
10
43.8848
20
65.4894
0
VERTEX
8
CUT
10
46.8974
20
67.2287
0
VERTEX
8
CUT
10
46.8974
20
63.75
0
SEQEND
0
POLYLINE
8
CUT
66
1
70
0
0
VERTEX
8
CUT
10
46.8974
20
62.25
0
VERTEX
8
CUT
10
46.8974
20
58.7713
0
VERTEX
8
CUT
10
43.8848
20
60.5106
0
SEQEND
0
POLYLINE
8
CUT
66
1
70
0
0
VERTEX
8
CUT
10
42.5857
20
61.2606
0
VERTEX
8
CUT
10
39.5731
20
63
0
VERTEX
8
CUT
10
42.5857
20
64.7394
0
SEQEND
0
LINE
8
CUT
10
46.0974
20
65.0931
11
46.0974
21
60.9069
0
LINE
8
CUT
10
45.4479
20
60.5319
11
41.8226
21
62.625
0
LINE
8
CUT
10
41.8226
20
63.375
11
45.4479
21
65.4681
0
POLYLINE
8
CUT
66
1
70
0
0
VERTEX
8
CUT
10
44.6848
20
64.1037
0
VERTEX
8
CUT
10
45.2974
20
64.4574
0
VERTEX
8
CUT
10
45.2974
20
63.75
0
SEQEND
0
POLYLINE
8
CUT
66
1
70
0
0
VERTEX
8
CUT
10
45.2974
20
62.25
0
VERTEX
8
CUT
10
45.2974
20
61.5426
0
VERTEX
8
CUT
10
44.6848
20
61.8963
0
SEQEND
0
POLYLINE
8
CUT
66
1
70
0
0
VERTEX
8
CUT
10
43.3857
20
62.6463
0
VERTEX
8
CUT
10
42.7731
20
63
0
VERTEX
8
CUT
10
43.3857
20
63.3537
0
SEQEND
0
LINE
8
CUT
10
37.1731
20
60.8644
11
37.1731
21
51.1356
0
LINE
8
CUT
10
37.8226
20
50.7606
11
46.2479
21
55.625
0
LINE
8
CUT
10
46.2479
20
56.375
11
37.8226
21
61.2394
0
POLYLINE
8
CUT
66
1
70
0
0
VERTEX
8
CUT
10
40.9857
20
58.4894
0
VERTEX
8
CUT
10
37.9731
20
60.2287
0
VERTEX
8
CUT
10
37.9731
20
56.75
0
SEQEND
0
POLYLINE
8
CUT
66
1
70
0
0
VERTEX
8
CUT
10
37.9731
20
55.25
0
VERTEX
8
CUT
10
37.9731
20
51.7713
0
VERTEX
8
CUT
10
40.9857
20
53.5106
0
SEQEND
0
POLYLINE
8
CUT
66
1
70
0
0
VERTEX
8
CUT
10
42.2848
20
54.2606
0
VERTEX
8
CUT
10
45.2974
20
56
0
VERTEX
8
CUT
10
42.2848
20
57.7394
0
SEQEND
0
LINE
8
CUT
10
38.7731
20
58.0931
11
38.7731
21
53.9069
0
LINE
8
CUT
10
39.4226
20
53.5319
11
43.0479
21
55.625
0
LINE
8
CUT
10
43.0479
20
56.375
11
39.4226
21
58.4681
0
POLYLINE
8
CUT
66
1
70
0
0
VERTEX
8
CUT
10
40.1857
20
57.1037
0
VERTEX
8
CUT
10
39.5731
20
57.4574
0
VERTEX
8
CUT
10
39.5731
20
56.75
0
SEQEND
0
POLYLINE
8
CUT
66
1
70
0
0
VERTEX
8
CUT
10
39.5731
20
55.25
0
VERTEX
8
CUT
10
39.5731
20
54.5426
0
VERTEX
8
CUT
10
40.1857
20
54.8963
0
SEQEND
0
POLYLINE
8
CUT
66
1
70
0
0
VERTEX
8
CUT
10
41.4848
20
55.6463
0
VERTEX
8
CUT
10
42.0974
20
56
0
VERTEX
8
CUT
10
41.4848
20
56.3537
0
SEQEND
0
LINE
8
CUT
10
47.6974
20
53.8644
11
47.6974
21
44.1356
0
LINE
8
CUT
10
47.0479
20
43.7606
11
38.6226
21
48.625
0
LINE
8
CUT
10
38.6226
20
49.375
11
47.0479
21
54.2394
0
POLYLINE
8
CUT
66
1
70
0
0
VERTEX
8
CUT
10
43.8848
20
51.4894
0
VERTEX
8
CUT
10
46.8974
20
53.2287
0
VERTEX
8
CUT
10
46.8974
20
49.75
0
SEQEND
0
POLYLINE
8
CUT
66
1
70
0
0
VERTEX
8
CUT
10
46.8974
20
48.25
0
VERTEX
8
CUT
10
46.8974
20
44.7713
0
VERTEX
8
CUT
10
43.8848
20
46.5106
0
SEQEND
0
POLYLINE
8
CUT
66
1
70
0
0
VERTEX
8
CUT
10
42.5857
20
47.2606
0
VERTEX
8
CUT
10
39.5731
20
49
0
VERTEX
8
CUT
10
42.5857
20
50.7394
0
SEQEND
0
LINE
8
CUT
10
46.0974
20
51.0931
11
46.0974
21
46.9069
0
LINE
8
CUT
10
45.4479
20
46.5319
11
41.8226
21
48.625
0
LINE
8
CUT
10
41.8226
20
49.375
11
45.4479
21
51.4681
0
POLYLINE
8
CUT
66
1
70
0
0
VERTEX
8
CUT
10
44.6848
20
50.1037
0
VERTEX
8
CUT
10
45.2974
20
50.4574
0
VERTEX
8
CUT
10
45.2974
20
49.75
0
SEQEND
0
POLYLINE
8
CUT
66
1
70
0
0
VERTEX
8
CUT
10
45.2974
20
48.25
0
VERTEX
8
CUT
10
45.2974
20
47.5426
0
VERTEX
8
CUT
10
44.6848
20
47.8963
0
SEQEND
0
POLYLINE
8
CUT
66
1
70
0
0
VERTEX
8
CUT
10
43.3857
20
48.6463
0
VERTEX
8
CUT
10
42.7731
20
49
0
VERTEX
8
CUT
10
43.3857
20
49.3537
0
SEQEND
0
LINE
8
CUT
10
37.1731
20
46.8644
11
37.1731
21
37.1356
0
LINE
8
CUT
10
37.8226
20
36.7606
11
46.2479
21
41.625
0
LINE
8
CUT
10
46.2479
20
42.375
11
37.8226
21
47.2394
0
POLYLINE
8
CUT
66
1
70
0
0
VERTEX
8
CUT
10
40.9857
20
44.4894
0
VERTEX
8
CUT
10
37.9731
20
46.2287
0
VERTEX
8
CUT
10
37.9731
20
42.75
0
SEQEND
0
POLYLINE
8
CUT
66
1
70
0
0
VERTEX
8
CUT
10
37.9731
20
41.25
0
VERTEX
8
CUT
10
37.9731
20
37.7713
0
VERTEX
8
CUT
10
40.9857
20
39.5106
0
SEQEND
0
POLYLINE
8
CUT
66
1
70
0
0
VERTEX
8
CUT
10
42.2848
20
40.2606
0
VERTEX
8
CUT
10
45.2974
20
42
0
VERTEX
8
CUT
10
42.2848
20
43.7394
0
SEQEND
0
LINE
8
CUT
10
38.7731
20
44.0931
11
38.7731
21
39.9069
0
LINE
8
CUT
10
39.4226
20
39.5319
11
43.0479
21
41.625
0
LINE
8
CUT
10
43.0479
20
42.375
11
39.4226
21
44.4681
0
POLYLINE
8
CUT
66
1
70
0
0
VERTEX
8
CUT
10
40.1857
20
43.1037
0
VERTEX
8
CUT
10
39.5731
20
43.4574
0
VERTEX
8
CUT
10
39.5731
20
42.75
0
SEQEND
0
POLYLINE
8
CUT
66
1
70
0
0
VERTEX
8
CUT
10
39.5731
20
41.25
0
VERTEX
8
CUT
10
39.5731
20
40.5426
0
VERTEX
8
CUT
10
40.1857
20
40.8963
0
SEQEND
0
POLYLINE
8
CUT
66
1
70
0
0
VERTEX
8
CUT
10
41.4848
20
41.6463
0
VERTEX
8
CUT
10
42.0974
20
42
0
VERTEX
8
CUT
10
41.4848
20
42.3537
0
SEQEND
0
LINE
8
CUT
10
47.6974
20
39.8644
11
47.6974
21
30.1356
0
LINE
8
CUT
10
47.0479
20
29.7606
11
38.6226
21
34.625
0
LINE
8
CUT
10
38.6226
20
35.375
11
47.0479
21
40.2394
0
POLYLINE
8
CUT
66
1
70
0
0
VERTEX
8
CUT
10
43.8848
20
37.4894
0
VERTEX
8
CUT
10
46.8974
20
39.2287
0
VERTEX
8
CUT
10
46.8974
20
35.75
0
SEQEND
0
POLYLINE
8
CUT
66
1
70
0
0
VERTEX
8
CUT
10
46.8974
20
34.25
0
VERTEX
8
CUT
10
46.8974
20
30.7713
0
VERTEX
8
CUT
10
43.8848
20
32.5106
0
SEQEND
0
POLYLINE
8
CUT
66
1
70
0
0
VERTEX
8
CUT
10
42.5857
20
33.2606
0
VERTEX
8
CUT
10
39.5731
20
35
0
VERTEX
8
CUT
10
42.5857
20
36.7394
0
SEQEND
0
LINE
8
CUT
10
46.0974
20
37.0931
11
46.0974
21
32.9069
0
LINE
8
CUT
10
45.4479
20
32.5319
11
41.8226
21
34.625
0
LINE
8
CUT
10
41.8226
20
35.375
11
45.4479
21
37.4681
0
POLYLINE
8
CUT
66
1
70
0
0
VERTEX
8
CUT
10
44.6848
20
36.1037
0
VERTEX
8
CUT
10
45.2974
20
36.4574
0
VERTEX
8
CUT
10
45.2974
20
35.75
0
SEQEND
0
POLYLINE
8
CUT
66
1
70
0
0
VERTEX
8
CUT
10
45.2974
20
34.25
0
VERTEX
8
CUT
10
45.2974
20
33.5426
0
VERTEX
8
CUT
10
44.6848
20
33.8963
0
SEQEND
0
POLYLINE
8
CUT
66
1
70
0
0
VERTEX
8
CUT
10
43.3857
20
34.6463
0
VERTEX
8
CUT
10
42.7731
20
35
0
VERTEX
8
CUT
10
43.3857
20
35.3537
0
SEQEND
0
LINE
8
CUT
10
37.1731
20
32.8644
11
37.1731
21
23.1356
0
LINE
8
CUT
10
37.8226
20
22.7606
11
46.2479
21
27.625
0
LINE
8
CUT
10
46.2479
20
28.375
11
37.8226
21
33.2394
0
POLYLINE
8
CUT
66
1
70
0
0
VERTEX
8
CUT
10
40.9857
20
30.4894
0
VERTEX
8
CUT
10
37.9731
20
32.2287
0
VERTEX
8
CUT
10
37.9731
20
28.75
0
SEQEND
0
POLYLINE
8
CUT
66
1
70
0
0
VERTEX
8
CUT
10
37.9731
20
27.25
0
VERTEX
8
CUT
10
37.9731
20
23.7713
0
VERTEX
8
CUT
10
40.9857
20
25.5106
0
SEQEND
0
POLYLINE
8
CUT
66
1
70
0
0
VERTEX
8
CUT
10
42.2848
20
26.2606
0
VERTEX
8
CUT
10
45.2974
20
28
0
VERTEX
8
CUT
10
42.2848
20
29.7394
0
SEQEND
0
LINE
8
CUT
10
38.7731
20
30.0931
11
38.7731
21
25.9069
0
LINE
8
CUT
10
39.4226
20
25.5319
11
43.0479
21
27.625
0
LINE
8
CUT
10
43.0479
20
28.375
11
39.4226
21
30.4681
0
POLYLINE
8
CUT
66
1
70
0
0
VERTEX
8
CUT
10
40.1857
20
29.1037
0
VERTEX
8
CUT
10
39.5731
20
29.4574
0
VERTEX
8
CUT
10
39.5731
20
28.75
0
SEQEND
0
POLYLINE
8
CUT
66
1
70
0
0
VERTEX
8
CUT
10
39.5731
20
27.25
0
VERTEX
8
CUT
10
39.5731
20
26.5426
0
VERTEX
8
CUT
10
40.1857
20
26.8963
0
SEQEND
0
POLYLINE
8
CUT
66
1
70
0
0
VERTEX
8
CUT
10
41.4848
20
27.6463
0
VERTEX
8
CUT
10
42.0974
20
28
0
VERTEX
8
CUT
10
41.4848
20
28.3537
0
SEQEND
0
LINE
8
CUT
10
47.6974
20
25.8644
11
47.6974
21
16.1356
0
LINE
8
CUT
10
47.0479
20
15.7606
11
38.6226
21
20.625
0
LINE
8
CUT
10
38.6226
20
21.375
11
47.0479
21
26.2394
0
POLYLINE
8
CUT
66
1
70
0
0
VERTEX
8
CUT
10
43.8848
20
23.4894
0
VERTEX
8
CUT
10
46.8974
20
25.2287
0
VERTEX
8
CUT
10
46.8974
20
21.75
0
SEQEND
0
POLYLINE
8
CUT
66
1
70
0
0
VERTEX
8
CUT
10
46.8974
20
20.25
0
VERTEX
8
CUT
10
46.8974
20
16.7713
0
VERTEX
8
CUT
10
43.8848
20
18.5106
0
SEQEND
0
POLYLINE
8
CUT
66
1
70
0
0
VERTEX
8
CUT
10
42.5857
20
19.2606
0
VERTEX
8
CUT
10
39.5731
20
21
0
VERTEX
8
CUT
10
42.5857
20
22.7394
0
SEQEND
0
LINE
8
CUT
10
46.0974
20
23.0931
11
46.0974
21
18.9069
0
LINE
8
CUT
10
45.4479
20
18.5319
11
41.8226
21
20.625
0
LINE
8
CUT
10
41.8226
20
21.375
11
45.4479
21
23.4681
0
POLYLINE
8
CUT
66
1
70
0
0
VERTEX
8
CUT
10
44.6848
20
22.1037
0
VERTEX
8
CUT
10
45.2974
20
22.4574
0
VERTEX
8
CUT
10
45.2974
20
21.75
0
SEQEND
0
POLYLINE
8
CUT
66
1
70
0
0
VERTEX
8
CUT
10
45.2974
20
20.25
0
VERTEX
8
CUT
10
45.2974
20
19.5426
0
VERTEX
8
CUT
10
44.6848
20
19.8963
0
SEQEND
0
POLYLINE
8
CUT
66
1
70
0
0
VERTEX
8
CUT
10
43.3857
20
20.6463
0
VERTEX
8
CUT
10
42.7731
20
21
0
VERTEX
8
CUT
10
43.3857
20
21.3537
0
SEQEND
0
LINE
8
CUT
10
37.1731
20
18.8644
11
37.1731
21
9.1356
0
LINE
8
CUT
10
37.8226
20
8.7606
11
46.2479
21
13.625
0
LINE
8
CUT
10
46.2479
20
14.375
11
37.8226
21
19.2394
0
POLYLINE
8
CUT
66
1
70
0
0
VERTEX
8
CUT
10
40.9857
20
16.4894
0
VERTEX
8
CUT
10
37.9731
20
18.2287
0
VERTEX
8
CUT
10
37.9731
20
14.75
0
SEQEND
0
POLYLINE
8
CUT
66
1
70
0
0
VERTEX
8
CUT
10
37.9731
20
13.25
0
VERTEX
8
CUT
10
37.9731
20
9.7713
0
VERTEX
8
CUT
10
40.9857
20
11.5106
0
SEQEND
0
POLYLINE
8
CUT
66
1
70
0
0
VERTEX
8
CUT
10
42.2848
20
12.2606
0
VERTEX
8
CUT
10
45.2974
20
14
0
VERTEX
8
CUT
10
42.2848
20
15.7394
0
SEQEND
0
LINE
8
CUT
10
38.7731
20
16.0931
11
38.7731
21
11.9069
0
LINE
8
CUT
10
39.4226
20
11.5319
11
43.0479
21
13.625
0
LINE
8
CUT
10
43.0479
20
14.375
11
39.4226
21
16.4681
0
POLYLINE
8
CUT
66
1
70
0
0
VERTEX
8
CUT
10
40.1857
20
15.1037
0
VERTEX
8
CUT
10
39.5731
20
15.4574
0
VERTEX
8
CUT
10
39.5731
20
14.75
0
SEQEND
0
POLYLINE
8
CUT
66
1
70
0
0
VERTEX
8
CUT
10
39.5731
20
13.25
0
VERTEX
8
CUT
10
39.5731
20
12.5426
0
VERTEX
8
CUT
10
40.1857
20
12.8963
0
SEQEND
0
POLYLINE
8
CUT
66
1
70
0
0
VERTEX
8
CUT
10
41.4848
20
13.6463
0
VERTEX
8
CUT
10
42.0974
20
14
0
VERTEX
8
CUT
10
41.4848
20
14.3537
0
SEQEND
0
LINE
8
CUT
10
47.6974
20
11.8644
11
47.6974
21
2.1356
0
LINE
8
CUT
10
47.0479
20
1.7606
11
38.6226
21
6.625
0
LINE
8
CUT
10
38.6226
20
7.375
11
47.0479
21
12.2394
0
POLYLINE
8
CUT
66
1
70
0
0
VERTEX
8
CUT
10
43.8848
20
9.4894
0
VERTEX
8
CUT
10
46.8974
20
11.2287
0
VERTEX
8
CUT
10
46.8974
20
7.75
0
SEQEND
0
POLYLINE
8
CUT
66
1
70
0
0
VERTEX
8
CUT
10
46.8974
20
6.25
0
VERTEX
8
CUT
10
46.8974
20
2.7713
0
VERTEX
8
CUT
10
43.8848
20
4.5106
0
SEQEND
0
POLYLINE
8
CUT
66
1
70
0
0
VERTEX
8
CUT
10
42.5857
20
5.2606
0
VERTEX
8
CUT
10
39.5731
20
7
0
VERTEX
8
CUT
10
42.5857
20
8.7394
0
SEQEND
0
LINE
8
CUT
10
46.0974
20
9.0931
11
46.0974
21
4.9069
0
LINE
8
CUT
10
45.4479
20
4.5319
11
41.8226
21
6.625
0
LINE
8
CUT
10
41.8226
20
7.375
11
45.4479
21
9.4681
0
POLYLINE
8
CUT
66
1
70
0
0
VERTEX
8
CUT
10
44.6848
20
8.1037
0
VERTEX
8
CUT
10
45.2974
20
8.4574
0
VERTEX
8
CUT
10
45.2974
20
7.75
0
SEQEND
0
POLYLINE
8
CUT
66
1
70
0
0
VERTEX
8
CUT
10
45.2974
20
6.25
0
VERTEX
8
CUT
10
45.2974
20
5.5426
0
VERTEX
8
CUT
10
44.6848
20
5.8963
0
SEQEND
0
POLYLINE
8
CUT
66
1
70
0
0
VERTEX
8
CUT
10
43.3857
20
6.6463
0
VERTEX
8
CUT
10
42.7731
20
7
0
VERTEX
8
CUT
10
43.3857
20
7.3537
0
SEQEND
0
LINE
8
CUT
10
37.1731
20
4.8644
11
37.1731
21
0
0
LINE
8
CUT
10
46.2479
20
0.375
11
37.8226
21
5.2394
0
POLYLINE
8
CUT
66
1
70
0
0
VERTEX
8
CUT
10
40.9857
20
2.4894
0
VERTEX
8
CUT
10
37.9731
20
4.2287
0
VERTEX
8
CUT
10
37.9731
20
0.75
0
SEQEND
0
POLYLINE
8
CUT
66
1
70
0
0
VERTEX
8
CUT
10
45.2974
20
0
0
VERTEX
8
CUT
10
45.2974
20
0
0
VERTEX
8
CUT
10
42.2848
20
1.7394
0
SEQEND
0
LINE
8
CUT
10
38.7731
20
2.0931
11
38.7731
21
0
0
LINE
8
CUT
10
43.0479
20
0.375
11
39.4226
21
2.4681
0
POLYLINE
8
CUT
66
1
70
0
0
VERTEX
8
CUT
10
40.1857
20
1.1037
0
VERTEX
8
CUT
10
39.5731
20
1.4574
0
VERTEX
8
CUT
10
39.5731
20
0.75
0
SEQEND
0
POLYLINE
8
CUT
66
1
70
0
0
VERTEX
8
CUT
10
42.0974
20
0
0
VERTEX
8
CUT
10
42.0974
20
0
0
VERTEX
8
CUT
10
41.4848
20
0.3537
0
SEQEND
0
LINE
8
CUT
10
59.8218
20
70
11
59.8218
21
65.1356
0
LINE
8
CUT
10
59.1723
20
64.7606
11
50.7469
21
69.625
0
POLYLINE
8
CUT
66
1
70
0
0
VERTEX
8
CUT
10
59.0218
20
69.25
0
VERTEX
8
CUT
10
59.0218
20
65.7713
0
VERTEX
8
CUT
10
56.0091
20
67.5106
0
SEQEND
0
POLYLINE
8
CUT
66
1
70
0
0
VERTEX
8
CUT
10
54.7101
20
68.2606
0
VERTEX
8
CUT
10
51.6974
20
70
0
VERTEX
8
CUT
10
51.6974
20
70
0
SEQEND
0
LINE
8
CUT
10
58.2218
20
70
11
58.2218
21
67.9069
0
LINE
8
CUT
10
57.5723
20
67.5319
11
53.9469
21
69.625
0
POLYLINE
8
CUT
66
1
70
0
0
VERTEX
8
CUT
10
57.4218
20
69.25
0
VERTEX
8
CUT
10
57.4218
20
68.5426
0
VERTEX
8
CUT
10
56.8091
20
68.8963
0
SEQEND
0
POLYLINE
8
CUT
66
1
70
0
0
VERTEX
8
CUT
10
55.5101
20
69.6463
0
VERTEX
8
CUT
10
54.8974
20
70
0
VERTEX
8
CUT
10
54.8974
20
70
0
SEQEND
0
LINE
8
CUT
10
49.2974
20
67.8644
11
49.2974
21
58.1356
0
LINE
8
CUT
10
49.9469
20
57.7606
11
58.3723
21
62.625
0
LINE
8
CUT
10
58.3723
20
63.375
11
49.9469
21
68.2394
0
POLYLINE
8
CUT
66
1
70
0
0
VERTEX
8
CUT
10
53.1101
20
65.4894
0
VERTEX
8
CUT
10
50.0974
20
67.2287
0
VERTEX
8
CUT
10
50.0974
20
63.75
0
SEQEND
0
POLYLINE
8
CUT
66
1
70
0
0
VERTEX
8
CUT
10
50.0974
20
62.25
0
VERTEX
8
CUT
10
50.0974
20
58.7713
0
VERTEX
8
CUT
10
53.1101
20
60.5106
0
SEQEND
0
POLYLINE
8
CUT
66
1
70
0
0
VERTEX
8
CUT
10
54.4091
20
61.2606
0
VERTEX
8
CUT
10
57.4218
20
63
0
VERTEX
8
CUT
10
54.4091
20
64.7394
0
SEQEND
0
LINE
8
CUT
10
50.8974
20
65.0931
11
50.8974
21
60.9069
0
LINE
8
CUT
10
51.5469
20
60.5319
11
55.1723
21
62.625
0
LINE
8
CUT
10
55.1723
20
63.375
11
51.5469
21
65.4681
0
POLYLINE
8
CUT
66
1
70
0
0
VERTEX
8
CUT
10
52.3101
20
64.1037
0
VERTEX
8
CUT
10
51.6974
20
64.4574
0
VERTEX
8
CUT
10
51.6974
20
63.75
0
SEQEND
0
POLYLINE
8
CUT
66
1
70
0
0
VERTEX
8
CUT
10
51.6974
20
62.25
0
VERTEX
8
CUT
10
51.6974
20
61.5426
0
VERTEX
8
CUT
10
52.3101
20
61.8963
0
SEQEND
0
POLYLINE
8
CUT
66
1
70
0
0
VERTEX
8
CUT
10
53.6091
20
62.6463
0
VERTEX
8
CUT
10
54.2218
20
63
0
VERTEX
8
CUT
10
53.6091
20
63.3537
0
SEQEND
0
LINE
8
CUT
10
59.8218
20
60.8644
11
59.8218
21
51.1356
0
LINE
8
CUT
10
59.1723
20
50.7606
11
50.7469
21
55.625
0
LINE
8
CUT
10
50.7469
20
56.375
11
59.1723
21
61.2394
0
POLYLINE
8
CUT
66
1
70
0
0
VERTEX
8
CUT
10
56.0091
20
58.4894
0
VERTEX
8
CUT
10
59.0218
20
60.2287
0
VERTEX
8
CUT
10
59.0218
20
56.75
0
SEQEND
0
POLYLINE
8
CUT
66
1
70
0
0
VERTEX
8
CUT
10
59.0218
20
55.25
0
VERTEX
8
CUT
10
59.0218
20
51.7713
0
VERTEX
8
CUT
10
56.0091
20
53.5106
0
SEQEND
0
POLYLINE
8
CUT
66
1
70
0
0
VERTEX
8
CUT
10
54.7101
20
54.2606
0
VERTEX
8
CUT
10
51.6974
20
56
0
VERTEX
8
CUT
10
54.7101
20
57.7394
0
SEQEND
0
LINE
8
CUT
10
58.2218
20
58.0931
11
58.2218
21
53.9069
0
LINE
8
CUT
10
57.5723
20
53.5319
11
53.9469
21
55.625
0
LINE
8
CUT
10
53.9469
20
56.375
11
57.5723
21
58.4681
0
POLYLINE
8
CUT
66
1
70
0
0
VERTEX
8
CUT
10
56.8091
20
57.1037
0
VERTEX
8
CUT
10
57.4218
20
57.4574
0
VERTEX
8
CUT
10
57.4218
20
56.75
0
SEQEND
0
POLYLINE
8
CUT
66
1
70
0
0
VERTEX
8
CUT
10
57.4218
20
55.25
0
VERTEX
8
CUT
10
57.4218
20
54.5426
0
VERTEX
8
CUT
10
56.8091
20
54.8963
0
SEQEND
0
POLYLINE
8
CUT
66
1
70
0
0
VERTEX
8
CUT
10
55.5101
20
55.6463
0
VERTEX
8
CUT
10
54.8974
20
56
0
VERTEX
8
CUT
10
55.5101
20
56.3537
0
SEQEND
0
LINE
8
CUT
10
49.2974
20
53.8644
11
49.2974
21
44.1356
0
LINE
8
CUT
10
49.9469
20
43.7606
11
58.3723
21
48.625
0
LINE
8
CUT
10
58.3723
20
49.375
11
49.9469
21
54.2394
0
POLYLINE
8
CUT
66
1
70
0
0
VERTEX
8
CUT
10
53.1101
20
51.4894
0
VERTEX
8
CUT
10
50.0974
20
53.2287
0
VERTEX
8
CUT
10
50.0974
20
49.75
0
SEQEND
0
POLYLINE
8
CUT
66
1
70
0
0
VERTEX
8
CUT
10
50.0974
20
48.25
0
VERTEX
8
CUT
10
50.0974
20
44.7713
0
VERTEX
8
CUT
10
53.1101
20
46.5106
0
SEQEND
0
POLYLINE
8
CUT
66
1
70
0
0
VERTEX
8
CUT
10
54.4091
20
47.2606
0
VERTEX
8
CUT
10
57.4218
20
49
0
VERTEX
8
CUT
10
54.4091
20
50.7394
0
SEQEND
0
LINE
8
CUT
10
50.8974
20
51.0931
11
50.8974
21
46.9069
0
LINE
8
CUT
10
51.5469
20
46.5319
11
55.1723
21
48.625
0
LINE
8
CUT
10
55.1723
20
49.375
11
51.5469
21
51.4681
0
POLYLINE
8
CUT
66
1
70
0
0
VERTEX
8
CUT
10
52.3101
20
50.1037
0
VERTEX
8
CUT
10
51.6974
20
50.4574
0
VERTEX
8
CUT
10
51.6974
20
49.75
0
SEQEND
0
POLYLINE
8
CUT
66
1
70
0
0
VERTEX
8
CUT
10
51.6974
20
48.25
0
VERTEX
8
CUT
10
51.6974
20
47.5426
0
VERTEX
8
CUT
10
52.3101
20
47.8963
0
SEQEND
0
POLYLINE
8
CUT
66
1
70
0
0
VERTEX
8
CUT
10
53.6091
20
48.6463
0
VERTEX
8
CUT
10
54.2218
20
49
0
VERTEX
8
CUT
10
53.6091
20
49.3537
0
SEQEND
0
LINE
8
CUT
10
59.8218
20
46.8644
11
59.8218
21
37.1356
0
LINE
8
CUT
10
59.1723
20
36.7606
11
50.7469
21
41.625
0
LINE
8
CUT
10
50.7469
20
42.375
11
59.1723
21
47.2394
0
POLYLINE
8
CUT
66
1
70
0
0
VERTEX
8
CUT
10
56.0091
20
44.4894
0
VERTEX
8
CUT
10
59.0218
20
46.2287
0
VERTEX
8
CUT
10
59.0218
20
42.75
0
SEQEND
0
POLYLINE
8
CUT
66
1
70
0
0
VERTEX
8
CUT
10
59.0218
20
41.25
0
VERTEX
8
CUT
10
59.0218
20
37.7713
0
VERTEX
8
CUT
10
56.0091
20
39.5106
0
SEQEND
0
POLYLINE
8
CUT
66
1
70
0
0
VERTEX
8
CUT
10
54.7101
20
40.2606
0
VERTEX
8
CUT
10
51.6974
20
42
0
VERTEX
8
CUT
10
54.7101
20
43.7394
0
SEQEND
0
LINE
8
CUT
10
58.2218
20
44.0931
11
58.2218
21
39.9069
0
LINE
8
CUT
10
57.5723
20
39.5319
11
53.9469
21
41.625
0
LINE
8
CUT
10
53.9469
20
42.375
11
57.5723
21
44.4681
0
POLYLINE
8
CUT
66
1
70
0
0
VERTEX
8
CUT
10
56.8091
20
43.1037
0
VERTEX
8
CUT
10
57.4218
20
43.4574
0
VERTEX
8
CUT
10
57.4218
20
42.75
0
SEQEND
0
POLYLINE
8
CUT
66
1
70
0
0
VERTEX
8
CUT
10
57.4218
20
41.25
0
VERTEX
8
CUT
10
57.4218
20
40.5426
0
VERTEX
8
CUT
10
56.8091
20
40.8963
0
SEQEND
0
POLYLINE
8
CUT
66
1
70
0
0
VERTEX
8
CUT
10
55.5101
20
41.6463
0
VERTEX
8
CUT
10
54.8974
20
42
0
VERTEX
8
CUT
10
55.5101
20
42.3537
0
SEQEND
0
LINE
8
CUT
10
49.2974
20
39.8644
11
49.2974
21
30.1356
0
LINE
8
CUT
10
49.9469
20
29.7606
11
58.3723
21
34.625
0
LINE
8
CUT
10
58.3723
20
35.375
11
49.9469
21
40.2394
0
POLYLINE
8
CUT
66
1
70
0
0
VERTEX
8
CUT
10
53.1101
20
37.4894
0
VERTEX
8
CUT
10
50.0974
20
39.2287
0
VERTEX
8
CUT
10
50.0974
20
35.75
0
SEQEND
0
POLYLINE
8
CUT
66
1
70
0
0
VERTEX
8
CUT
10
50.0974
20
34.25
0
VERTEX
8
CUT
10
50.0974
20
30.7713
0
VERTEX
8
CUT
10
53.1101
20
32.5106
0
SEQEND
0
POLYLINE
8
CUT
66
1
70
0
0
VERTEX
8
CUT
10
54.4091
20
33.2606
0
VERTEX
8
CUT
10
57.4218
20
35
0
VERTEX
8
CUT
10
54.4091
20
36.7394
0
SEQEND
0
LINE
8
CUT
10
50.8974
20
37.0931
11
50.8974
21
32.9069
0
LINE
8
CUT
10
51.5469
20
32.5319
11
55.1723
21
34.625
0
LINE
8
CUT
10
55.1723
20
35.375
11
51.5469
21
37.4681
0
POLYLINE
8
CUT
66
1
70
0
0
VERTEX
8
CUT
10
52.3101
20
36.1037
0
VERTEX
8
CUT
10
51.6974
20
36.4574
0
VERTEX
8
CUT
10
51.6974
20
35.75
0
SEQEND
0
POLYLINE
8
CUT
66
1
70
0
0
VERTEX
8
CUT
10
51.6974
20
34.25
0
VERTEX
8
CUT
10
51.6974
20
33.5426
0
VERTEX
8
CUT
10
52.3101
20
33.8963
0
SEQEND
0
POLYLINE
8
CUT
66
1
70
0
0
VERTEX
8
CUT
10
53.6091
20
34.6463
0
VERTEX
8
CUT
10
54.2218
20
35
0
VERTEX
8
CUT
10
53.6091
20
35.3537
0
SEQEND
0
LINE
8
CUT
10
59.8218
20
32.8644
11
59.8218
21
23.1356
0
LINE
8
CUT
10
59.1723
20
22.7606
11
50.7469
21
27.625
0
LINE
8
CUT
10
50.7469
20
28.375
11
59.1723
21
33.2394
0
POLYLINE
8
CUT
66
1
70
0
0
VERTEX
8
CUT
10
56.0091
20
30.4894
0
VERTEX
8
CUT
10
59.0218
20
32.2287
0
VERTEX
8
CUT
10
59.0218
20
28.75
0
SEQEND
0
POLYLINE
8
CUT
66
1
70
0
0
VERTEX
8
CUT
10
59.0218
20
27.25
0
VERTEX
8
CUT
10
59.0218
20
23.7713
0
VERTEX
8
CUT
10
56.0091
20
25.5106
0
SEQEND
0
POLYLINE
8
CUT
66
1
70
0
0
VERTEX
8
CUT
10
54.7101
20
26.2606
0
VERTEX
8
CUT
10
51.6974
20
28
0
VERTEX
8
CUT
10
54.7101
20
29.7394
0
SEQEND
0
LINE
8
CUT
10
58.2218
20
30.0931
11
58.2218
21
25.9069
0
LINE
8
CUT
10
57.5723
20
25.5319
11
53.9469
21
27.625
0
LINE
8
CUT
10
53.9469
20
28.375
11
57.5723
21
30.4681
0
POLYLINE
8
CUT
66
1
70
0
0
VERTEX
8
CUT
10
56.8091
20
29.1037
0
VERTEX
8
CUT
10
57.4218
20
29.4574
0
VERTEX
8
CUT
10
57.4218
20
28.75
0
SEQEND
0
POLYLINE
8
CUT
66
1
70
0
0
VERTEX
8
CUT
10
57.4218
20
27.25
0
VERTEX
8
CUT
10
57.4218
20
26.5426
0
VERTEX
8
CUT
10
56.8091
20
26.8963
0
SEQEND
0
POLYLINE
8
CUT
66
1
70
0
0
VERTEX
8
CUT
10
55.5101
20
27.6463
0
VERTEX
8
CUT
10
54.8974
20
28
0
VERTEX
8
CUT
10
55.5101
20
28.3537
0
SEQEND
0
LINE
8
CUT
10
49.2974
20
25.8644
11
49.2974
21
16.1356
0
LINE
8
CUT
10
49.9469
20
15.7606
11
58.3723
21
20.625
0
LINE
8
CUT
10
58.3723
20
21.375
11
49.9469
21
26.2394
0
POLYLINE
8
CUT
66
1
70
0
0
VERTEX
8
CUT
10
53.1101
20
23.4894
0
VERTEX
8
CUT
10
50.0974
20
25.2287
0
VERTEX
8
CUT
10
50.0974
20
21.75
0
SEQEND
0
POLYLINE
8
CUT
66
1
70
0
0
VERTEX
8
CUT
10
50.0974
20
20.25
0
VERTEX
8
CUT
10
50.0974
20
16.7713
0
VERTEX
8
CUT
10
53.1101
20
18.5106
0
SEQEND
0
POLYLINE
8
CUT
66
1
70
0
0
VERTEX
8
CUT
10
54.4091
20
19.2606
0
VERTEX
8
CUT
10
57.4218
20
21
0
VERTEX
8
CUT
10
54.4091
20
22.7394
0
SEQEND
0
LINE
8
CUT
10
50.8974
20
23.0931
11
50.8974
21
18.9069
0
LINE
8
CUT
10
51.5469
20
18.5319
11
55.1723
21
20.625
0
LINE
8
CUT
10
55.1723
20
21.375
11
51.5469
21
23.4681
0
POLYLINE
8
CUT
66
1
70
0
0
VERTEX
8
CUT
10
52.3101
20
22.1037
0
VERTEX
8
CUT
10
51.6974
20
22.4574
0
VERTEX
8
CUT
10
51.6974
20
21.75
0
SEQEND
0
POLYLINE
8
CUT
66
1
70
0
0
VERTEX
8
CUT
10
51.6974
20
20.25
0
VERTEX
8
CUT
10
51.6974
20
19.5426
0
VERTEX
8
CUT
10
52.3101
20
19.8963
0
SEQEND
0
POLYLINE
8
CUT
66
1
70
0
0
VERTEX
8
CUT
10
53.6091
20
20.6463
0
VERTEX
8
CUT
10
54.2218
20
21
0
VERTEX
8
CUT
10
53.6091
20
21.3537
0
SEQEND
0
LINE
8
CUT
10
59.8218
20
18.8644
11
59.8218
21
9.1356
0
LINE
8
CUT
10
59.1723
20
8.7606
11
50.7469
21
13.625
0
LINE
8
CUT
10
50.7469
20
14.375
11
59.1723
21
19.2394
0
POLYLINE
8
CUT
66
1
70
0
0
VERTEX
8
CUT
10
56.0091
20
16.4894
0
VERTEX
8
CUT
10
59.0218
20
18.2287
0
VERTEX
8
CUT
10
59.0218
20
14.75
0
SEQEND
0
POLYLINE
8
CUT
66
1
70
0
0
VERTEX
8
CUT
10
59.0218
20
13.25
0
VERTEX
8
CUT
10
59.0218
20
9.7713
0
VERTEX
8
CUT
10
56.0091
20
11.5106
0
SEQEND
0
POLYLINE
8
CUT
66
1
70
0
0
VERTEX
8
CUT
10
54.7101
20
12.2606
0
VERTEX
8
CUT
10
51.6974
20
14
0
VERTEX
8
CUT
10
54.7101
20
15.7394
0
SEQEND
0
LINE
8
CUT
10
58.2218
20
16.0931
11
58.2218
21
11.9069
0
LINE
8
CUT
10
57.5723
20
11.5319
11
53.9469
21
13.625
0
LINE
8
CUT
10
53.9469
20
14.375
11
57.5723
21
16.4681
0
POLYLINE
8
CUT
66
1
70
0
0
VERTEX
8
CUT
10
56.8091
20
15.1037
0
VERTEX
8
CUT
10
57.4218
20
15.4574
0
VERTEX
8
CUT
10
57.4218
20
14.75
0
SEQEND
0
POLYLINE
8
CUT
66
1
70
0
0
VERTEX
8
CUT
10
57.4218
20
13.25
0
VERTEX
8
CUT
10
57.4218
20
12.5426
0
VERTEX
8
CUT
10
56.8091
20
12.8963
0
SEQEND
0
POLYLINE
8
CUT
66
1
70
0
0
VERTEX
8
CUT
10
55.5101
20
13.6463
0
VERTEX
8
CUT
10
54.8974
20
14
0
VERTEX
8
CUT
10
55.5101
20
14.3537
0
SEQEND
0
LINE
8
CUT
10
49.2974
20
11.8644
11
49.2974
21
2.1356
0
LINE
8
CUT
10
49.9469
20
1.7606
11
58.3723
21
6.625
0
LINE
8
CUT
10
58.3723
20
7.375
11
49.9469
21
12.2394
0
POLYLINE
8
CUT
66
1
70
0
0
VERTEX
8
CUT
10
53.1101
20
9.4894
0
VERTEX
8
CUT
10
50.0974
20
11.2287
0
VERTEX
8
CUT
10
50.0974
20
7.75
0
SEQEND
0
POLYLINE
8
CUT
66
1
70
0
0
VERTEX
8
CUT
10
50.0974
20
6.25
0
VERTEX
8
CUT
10
50.0974
20
2.7713
0
VERTEX
8
CUT
10
53.1101
20
4.5106
0
SEQEND
0
POLYLINE
8
CUT
66
1
70
0
0
VERTEX
8
CUT
10
54.4091
20
5.2606
0
VERTEX
8
CUT
10
57.4218
20
7
0
VERTEX
8
CUT
10
54.4091
20
8.7394
0
SEQEND
0
LINE
8
CUT
10
50.8974
20
9.0931
11
50.8974
21
4.9069
0
LINE
8
CUT
10
51.5469
20
4.5319
11
55.1723
21
6.625
0
LINE
8
CUT
10
55.1723
20
7.375
11
51.5469
21
9.4681
0
POLYLINE
8
CUT
66
1
70
0
0
VERTEX
8
CUT
10
52.3101
20
8.1037
0
VERTEX
8
CUT
10
51.6974
20
8.4574
0
VERTEX
8
CUT
10
51.6974
20
7.75
0
SEQEND
0
POLYLINE
8
CUT
66
1
70
0
0
VERTEX
8
CUT
10
51.6974
20
6.25
0
VERTEX
8
CUT
10
51.6974
20
5.5426
0
VERTEX
8
CUT
10
52.3101
20
5.8963
0
SEQEND
0
POLYLINE
8
CUT
66
1
70
0
0
VERTEX
8
CUT
10
53.6091
20
6.6463
0
VERTEX
8
CUT
10
54.2218
20
7
0
VERTEX
8
CUT
10
53.6091
20
7.3537
0
SEQEND
0
LINE
8
CUT
10
59.8218
20
4.8644
11
59.8218
21
0
0
LINE
8
CUT
10
50.7469
20
0.375
11
59.1723
21
5.2394
0
POLYLINE
8
CUT
66
1
70
0
0
VERTEX
8
CUT
10
56.0091
20
2.4894
0
VERTEX
8
CUT
10
59.0218
20
4.2287
0
VERTEX
8
CUT
10
59.0218
20
0.75
0
SEQEND
0
POLYLINE
8
CUT
66
1
70
0
0
VERTEX
8
CUT
10
51.6974
20
0
0
VERTEX
8
CUT
10
51.6974
20
0
0
VERTEX
8
CUT
10
54.7101
20
1.7394
0
SEQEND
0
LINE
8
CUT
10
58.2218
20
2.0931
11
58.2218
21
0
0
LINE
8
CUT
10
53.9469
20
0.375
11
57.5723
21
2.4681
0
POLYLINE
8
CUT
66
1
70
0
0
VERTEX
8
CUT
10
56.8091
20
1.1037
0
VERTEX
8
CUT
10
57.4218
20
1.4574
0
VERTEX
8
CUT
10
57.4218
20
0.75
0
SEQEND
0
POLYLINE
8
CUT
66
1
70
0
0
VERTEX
8
CUT
10
54.8974
20
0
0
VERTEX
8
CUT
10
54.8974
20
0
0
VERTEX
8
CUT
10
55.5101
20
0.3537
0
SEQEND
0
LINE
8
CUT
10
61.4218
20
70
11
61.4218
21
65.1356
0
LINE
8
CUT
10
62.0713
20
64.7606
11
70.4966
21
69.625
0
POLYLINE
8
CUT
66
1
70
0
0
VERTEX
8
CUT
10
62.2218
20
69.25
0
VERTEX
8
CUT
10
62.2218
20
65.7713
0
VERTEX
8
CUT
10
65.2344
20
67.5106
0
SEQEND
0
POLYLINE
8
CUT
66
1
70
0
0
VERTEX
8
CUT
10
66.5335
20
68.2606
0
VERTEX
8
CUT
10
69.5461
20
70
0
VERTEX
8
CUT
10
69.5461
20
70
0
SEQEND
0
LINE
8
CUT
10
63.0218
20
70
11
63.0218
21
67.9069
0
LINE
8
CUT
10
63.6713
20
67.5319
11
67.2966
21
69.625
0
POLYLINE
8
CUT
66
1
70
0
0
VERTEX
8
CUT
10
63.8218
20
69.25
0
VERTEX
8
CUT
10
63.8218
20
68.5426
0
VERTEX
8
CUT
10
64.4344
20
68.8963
0
SEQEND
0
POLYLINE
8
CUT
66
1
70
0
0
VERTEX
8
CUT
10
65.7335
20
69.6463
0
VERTEX
8
CUT
10
66.3461
20
70
0
VERTEX
8
CUT
10
66.3461
20
70
0
SEQEND
0
LINE
8
CUT
10
71.9461
20
67.8644
11
71.9461
21
58.1356
0
LINE
8
CUT
10
71.2966
20
57.7606
11
62.8713
21
62.625
0
LINE
8
CUT
10
62.8713
20
63.375
11
71.2966
21
68.2394
0
POLYLINE
8
CUT
66
1
70
0
0
VERTEX
8
CUT
10
68.1335
20
65.4894
0
VERTEX
8
CUT
10
71.1461
20
67.2287
0
VERTEX
8
CUT
10
71.1461
20
63.75
0
SEQEND
0
POLYLINE
8
CUT
66
1
70
0
0
VERTEX
8
CUT
10
71.1461
20
62.25
0
VERTEX
8
CUT
10
71.1461
20
58.7713
0
VERTEX
8
CUT
10
68.1335
20
60.5106
0
SEQEND
0
POLYLINE
8
CUT
66
1
70
0
0
VERTEX
8
CUT
10
66.8344
20
61.2606
0
VERTEX
8
CUT
10
63.8218
20
63
0
VERTEX
8
CUT
10
66.8344
20
64.7394
0
SEQEND
0
LINE
8
CUT
10
70.3461
20
65.0931
11
70.3461
21
60.9069
0
LINE
8
CUT
10
69.6966
20
60.5319
11
66.0713
21
62.625
0
LINE
8
CUT
10
66.0713
20
63.375
11
69.6966
21
65.4681
0
POLYLINE
8
CUT
66
1
70
0
0
VERTEX
8
CUT
10
68.9335
20
64.1037
0
VERTEX
8
CUT
10
69.5461
20
64.4574
0
VERTEX
8
CUT
10
69.5461
20
63.75
0
SEQEND
0
POLYLINE
8
CUT
66
1
70
0
0
VERTEX
8
CUT
10
69.5461
20
62.25
0
VERTEX
8
CUT
10
69.5461
20
61.5426
0
VERTEX
8
CUT
10
68.9335
20
61.8963
0
SEQEND
0
POLYLINE
8
CUT
66
1
70
0
0
VERTEX
8
CUT
10
67.6344
20
62.6463
0
VERTEX
8
CUT
10
67.0218
20
63
0
VERTEX
8
CUT
10
67.6344
20
63.3537
0
SEQEND
0
LINE
8
CUT
10
61.4218
20
60.8644
11
61.4218
21
51.1356
0
LINE
8
CUT
10
62.0713
20
50.7606
11
70.4966
21
55.625
0
LINE
8
CUT
10
70.4966
20
56.375
11
62.0713
21
61.2394
0
POLYLINE
8
CUT
66
1
70
0
0
VERTEX
8
CUT
10
65.2344
20
58.4894
0
VERTEX
8
CUT
10
62.2218
20
60.2287
0
VERTEX
8
CUT
10
62.2218
20
56.75
0
SEQEND
0
POLYLINE
8
CUT
66
1
70
0
0
VERTEX
8
CUT
10
62.2218
20
55.25
0
VERTEX
8
CUT
10
62.2218
20
51.7713
0
VERTEX
8
CUT
10
65.2344
20
53.5106
0
SEQEND
0
POLYLINE
8
CUT
66
1
70
0
0
VERTEX
8
CUT
10
66.5335
20
54.2606
0
VERTEX
8
CUT
10
69.5461
20
56
0
VERTEX
8
CUT
10
66.5335
20
57.7394
0
SEQEND
0
LINE
8
CUT
10
63.0218
20
58.0931
11
63.0218
21
53.9069
0
LINE
8
CUT
10
63.6713
20
53.5319
11
67.2966
21
55.625
0
LINE
8
CUT
10
67.2966
20
56.375
11
63.6713
21
58.4681
0
POLYLINE
8
CUT
66
1
70
0
0
VERTEX
8
CUT
10
64.4344
20
57.1037
0
VERTEX
8
CUT
10
63.8218
20
57.4574
0
VERTEX
8
CUT
10
63.8218
20
56.75
0
SEQEND
0
POLYLINE
8
CUT
66
1
70
0
0
VERTEX
8
CUT
10
63.8218
20
55.25
0
VERTEX
8
CUT
10
63.8218
20
54.5426
0
VERTEX
8
CUT
10
64.4344
20
54.8963
0
SEQEND
0
POLYLINE
8
CUT
66
1
70
0
0
VERTEX
8
CUT
10
65.7335
20
55.6463
0
VERTEX
8
CUT
10
66.3461
20
56
0
VERTEX
8
CUT
10
65.7335
20
56.3537
0
SEQEND
0
LINE
8
CUT
10
71.9461
20
53.8644
11
71.9461
21
44.1356
0
LINE
8
CUT
10
71.2966
20
43.7606
11
62.8713
21
48.625
0
LINE
8
CUT
10
62.8713
20
49.375
11
71.2966
21
54.2394
0
POLYLINE
8
CUT
66
1
70
0
0
VERTEX
8
CUT
10
68.1335
20
51.4894
0
VERTEX
8
CUT
10
71.1461
20
53.2287
0
VERTEX
8
CUT
10
71.1461
20
49.75
0
SEQEND
0
POLYLINE
8
CUT
66
1
70
0
0
VERTEX
8
CUT
10
71.1461
20
48.25
0
VERTEX
8
CUT
10
71.1461
20
44.7713
0
VERTEX
8
CUT
10
68.1335
20
46.5106
0
SEQEND
0
POLYLINE
8
CUT
66
1
70
0
0
VERTEX
8
CUT
10
66.8344
20
47.2606
0
VERTEX
8
CUT
10
63.8218
20
49
0
VERTEX
8
CUT
10
66.8344
20
50.7394
0
SEQEND
0
LINE
8
CUT
10
70.3461
20
51.0931
11
70.3461
21
46.9069
0
LINE
8
CUT
10
69.6966
20
46.5319
11
66.0713
21
48.625
0
LINE
8
CUT
10
66.0713
20
49.375
11
69.6966
21
51.4681
0
POLYLINE
8
CUT
66
1
70
0
0
VERTEX
8
CUT
10
68.9335
20
50.1037
0
VERTEX
8
CUT
10
69.5461
20
50.4574
0
VERTEX
8
CUT
10
69.5461
20
49.75
0
SEQEND
0
POLYLINE
8
CUT
66
1
70
0
0
VERTEX
8
CUT
10
69.5461
20
48.25
0
VERTEX
8
CUT
10
69.5461
20
47.5426
0
VERTEX
8
CUT
10
68.9335
20
47.8963
0
SEQEND
0
POLYLINE
8
CUT
66
1
70
0
0
VERTEX
8
CUT
10
67.6344
20
48.6463
0
VERTEX
8
CUT
10
67.0218
20
49
0
VERTEX
8
CUT
10
67.6344
20
49.3537
0
SEQEND
0
LINE
8
CUT
10
61.4218
20
46.8644
11
61.4218
21
37.1356
0
LINE
8
CUT
10
62.0713
20
36.7606
11
70.4966
21
41.625
0
LINE
8
CUT
10
70.4966
20
42.375
11
62.0713
21
47.2394
0
POLYLINE
8
CUT
66
1
70
0
0
VERTEX
8
CUT
10
65.2344
20
44.4894
0
VERTEX
8
CUT
10
62.2218
20
46.2287
0
VERTEX
8
CUT
10
62.2218
20
42.75
0
SEQEND
0
POLYLINE
8
CUT
66
1
70
0
0
VERTEX
8
CUT
10
62.2218
20
41.25
0
VERTEX
8
CUT
10
62.2218
20
37.7713
0
VERTEX
8
CUT
10
65.2344
20
39.5106
0
SEQEND
0
POLYLINE
8
CUT
66
1
70
0
0
VERTEX
8
CUT
10
66.5335
20
40.2606
0
VERTEX
8
CUT
10
69.5461
20
42
0
VERTEX
8
CUT
10
66.5335
20
43.7394
0
SEQEND
0
LINE
8
CUT
10
63.0218
20
44.0931
11
63.0218
21
39.9069
0
LINE
8
CUT
10
63.6713
20
39.5319
11
67.2966
21
41.625
0
LINE
8
CUT
10
67.2966
20
42.375
11
63.6713
21
44.4681
0
POLYLINE
8
CUT
66
1
70
0
0
VERTEX
8
CUT
10
64.4344
20
43.1037
0
VERTEX
8
CUT
10
63.8218
20
43.4574
0
VERTEX
8
CUT
10
63.8218
20
42.75
0
SEQEND
0
POLYLINE
8
CUT
66
1
70
0
0
VERTEX
8
CUT
10
63.8218
20
41.25
0
VERTEX
8
CUT
10
63.8218
20
40.5426
0
VERTEX
8
CUT
10
64.4344
20
40.8963
0
SEQEND
0
POLYLINE
8
CUT
66
1
70
0
0
VERTEX
8
CUT
10
65.7335
20
41.6463
0
VERTEX
8
CUT
10
66.3461
20
42
0
VERTEX
8
CUT
10
65.7335
20
42.3537
0
SEQEND
0
LINE
8
CUT
10
71.9461
20
39.8644
11
71.9461
21
30.1356
0
LINE
8
CUT
10
71.2966
20
29.7606
11
62.8713
21
34.625
0
LINE
8
CUT
10
62.8713
20
35.375
11
71.2966
21
40.2394
0
POLYLINE
8
CUT
66
1
70
0
0
VERTEX
8
CUT
10
68.1335
20
37.4894
0
VERTEX
8
CUT
10
71.1461
20
39.2287
0
VERTEX
8
CUT
10
71.1461
20
35.75
0
SEQEND
0
POLYLINE
8
CUT
66
1
70
0
0
VERTEX
8
CUT
10
71.1461
20
34.25
0
VERTEX
8
CUT
10
71.1461
20
30.7713
0
VERTEX
8
CUT
10
68.1335
20
32.5106
0
SEQEND
0
POLYLINE
8
CUT
66
1
70
0
0
VERTEX
8
CUT
10
66.8344
20
33.2606
0
VERTEX
8
CUT
10
63.8218
20
35
0
VERTEX
8
CUT
10
66.8344
20
36.7394
0
SEQEND
0
LINE
8
CUT
10
70.3461
20
37.0931
11
70.3461
21
32.9069
0
LINE
8
CUT
10
69.6966
20
32.5319
11
66.0713
21
34.625
0
LINE
8
CUT
10
66.0713
20
35.375
11
69.6966
21
37.4681
0
POLYLINE
8
CUT
66
1
70
0
0
VERTEX
8
CUT
10
68.9335
20
36.1037
0
VERTEX
8
CUT
10
69.5461
20
36.4574
0
VERTEX
8
CUT
10
69.5461
20
35.75
0
SEQEND
0
POLYLINE
8
CUT
66
1
70
0
0
VERTEX
8
CUT
10
69.5461
20
34.25
0
VERTEX
8
CUT
10
69.5461
20
33.5426
0
VERTEX
8
CUT
10
68.9335
20
33.8963
0
SEQEND
0
POLYLINE
8
CUT
66
1
70
0
0
VERTEX
8
CUT
10
67.6344
20
34.6463
0
VERTEX
8
CUT
10
67.0218
20
35
0
VERTEX
8
CUT
10
67.6344
20
35.3537
0
SEQEND
0
LINE
8
CUT
10
61.4218
20
32.8644
11
61.4218
21
23.1356
0
LINE
8
CUT
10
62.0713
20
22.7606
11
70.4966
21
27.625
0
LINE
8
CUT
10
70.4966
20
28.375
11
62.0713
21
33.2394
0
POLYLINE
8
CUT
66
1
70
0
0
VERTEX
8
CUT
10
65.2344
20
30.4894
0
VERTEX
8
CUT
10
62.2218
20
32.2287
0
VERTEX
8
CUT
10
62.2218
20
28.75
0
SEQEND
0
POLYLINE
8
CUT
66
1
70
0
0
VERTEX
8
CUT
10
62.2218
20
27.25
0
VERTEX
8
CUT
10
62.2218
20
23.7713
0
VERTEX
8
CUT
10
65.2344
20
25.5106
0
SEQEND
0
POLYLINE
8
CUT
66
1
70
0
0
VERTEX
8
CUT
10
66.5335
20
26.2606
0
VERTEX
8
CUT
10
69.5461
20
28
0
VERTEX
8
CUT
10
66.5335
20
29.7394
0
SEQEND
0
LINE
8
CUT
10
63.0218
20
30.0931
11
63.0218
21
25.9069
0
LINE
8
CUT
10
63.6713
20
25.5319
11
67.2966
21
27.625
0
LINE
8
CUT
10
67.2966
20
28.375
11
63.6713
21
30.4681
0
POLYLINE
8
CUT
66
1
70
0
0
VERTEX
8
CUT
10
64.4344
20
29.1037
0
VERTEX
8
CUT
10
63.8218
20
29.4574
0
VERTEX
8
CUT
10
63.8218
20
28.75
0
SEQEND
0
POLYLINE
8
CUT
66
1
70
0
0
VERTEX
8
CUT
10
63.8218
20
27.25
0
VERTEX
8
CUT
10
63.8218
20
26.5426
0
VERTEX
8
CUT
10
64.4344
20
26.8963
0
SEQEND
0
POLYLINE
8
CUT
66
1
70
0
0
VERTEX
8
CUT
10
65.7335
20
27.6463
0
VERTEX
8
CUT
10
66.3461
20
28
0
VERTEX
8
CUT
10
65.7335
20
28.3537
0
SEQEND
0
LINE
8
CUT
10
71.9461
20
25.8644
11
71.9461
21
16.1356
0
LINE
8
CUT
10
71.2966
20
15.7606
11
62.8713
21
20.625
0
LINE
8
CUT
10
62.8713
20
21.375
11
71.2966
21
26.2394
0
POLYLINE
8
CUT
66
1
70
0
0
VERTEX
8
CUT
10
68.1335
20
23.4894
0
VERTEX
8
CUT
10
71.1461
20
25.2287
0
VERTEX
8
CUT
10
71.1461
20
21.75
0
SEQEND
0
POLYLINE
8
CUT
66
1
70
0
0
VERTEX
8
CUT
10
71.1461
20
20.25
0
VERTEX
8
CUT
10
71.1461
20
16.7713
0
VERTEX
8
CUT
10
68.1335
20
18.5106
0
SEQEND
0
POLYLINE
8
CUT
66
1
70
0
0
VERTEX
8
CUT
10
66.8344
20
19.2606
0
VERTEX
8
CUT
10
63.8218
20
21
0
VERTEX
8
CUT
10
66.8344
20
22.7394
0
SEQEND
0
LINE
8
CUT
10
70.3461
20
23.0931
11
70.3461
21
18.9069
0
LINE
8
CUT
10
69.6966
20
18.5319
11
66.0713
21
20.625
0
LINE
8
CUT
10
66.0713
20
21.375
11
69.6966
21
23.4681
0
POLYLINE
8
CUT
66
1
70
0
0
VERTEX
8
CUT
10
68.9335
20
22.1037
0
VERTEX
8
CUT
10
69.5461
20
22.4574
0
VERTEX
8
CUT
10
69.5461
20
21.75
0
SEQEND
0
POLYLINE
8
CUT
66
1
70
0
0
VERTEX
8
CUT
10
69.5461
20
20.25
0
VERTEX
8
CUT
10
69.5461
20
19.5426
0
VERTEX
8
CUT
10
68.9335
20
19.8963
0
SEQEND
0
POLYLINE
8
CUT
66
1
70
0
0
VERTEX
8
CUT
10
67.6344
20
20.6463
0
VERTEX
8
CUT
10
67.0218
20
21
0
VERTEX
8
CUT
10
67.6344
20
21.3537
0
SEQEND
0
LINE
8
CUT
10
61.4218
20
18.8644
11
61.4218
21
9.1356
0
LINE
8
CUT
10
62.0713
20
8.7606
11
70.4966
21
13.625
0
LINE
8
CUT
10
70.4966
20
14.375
11
62.0713
21
19.2394
0
POLYLINE
8
CUT
66
1
70
0
0
VERTEX
8
CUT
10
65.2344
20
16.4894
0
VERTEX
8
CUT
10
62.2218
20
18.2287
0
VERTEX
8
CUT
10
62.2218
20
14.75
0
SEQEND
0
POLYLINE
8
CUT
66
1
70
0
0
VERTEX
8
CUT
10
62.2218
20
13.25
0
VERTEX
8
CUT
10
62.2218
20
9.7713
0
VERTEX
8
CUT
10
65.2344
20
11.5106
0
SEQEND
0
POLYLINE
8
CUT
66
1
70
0
0
VERTEX
8
CUT
10
66.5335
20
12.2606
0
VERTEX
8
CUT
10
69.5461
20
14
0
VERTEX
8
CUT
10
66.5335
20
15.7394
0
SEQEND
0
LINE
8
CUT
10
63.0218
20
16.0931
11
63.0218
21
11.9069
0
LINE
8
CUT
10
63.6713
20
11.5319
11
67.2966
21
13.625
0
LINE
8
CUT
10
67.2966
20
14.375
11
63.6713
21
16.4681
0
POLYLINE
8
CUT
66
1
70
0
0
VERTEX
8
CUT
10
64.4344
20
15.1037
0
VERTEX
8
CUT
10
63.8218
20
15.4574
0
VERTEX
8
CUT
10
63.8218
20
14.75
0
SEQEND
0
POLYLINE
8
CUT
66
1
70
0
0
VERTEX
8
CUT
10
63.8218
20
13.25
0
VERTEX
8
CUT
10
63.8218
20
12.5426
0
VERTEX
8
CUT
10
64.4344
20
12.8963
0
SEQEND
0
POLYLINE
8
CUT
66
1
70
0
0
VERTEX
8
CUT
10
65.7335
20
13.6463
0
VERTEX
8
CUT
10
66.3461
20
14
0
VERTEX
8
CUT
10
65.7335
20
14.3537
0
SEQEND
0
LINE
8
CUT
10
71.9461
20
11.8644
11
71.9461
21
2.1356
0
LINE
8
CUT
10
71.2966
20
1.7606
11
62.8713
21
6.625
0
LINE
8
CUT
10
62.8713
20
7.375
11
71.2966
21
12.2394
0
POLYLINE
8
CUT
66
1
70
0
0
VERTEX
8
CUT
10
68.1335
20
9.4894
0
VERTEX
8
CUT
10
71.1461
20
11.2287
0
VERTEX
8
CUT
10
71.1461
20
7.75
0
SEQEND
0
POLYLINE
8
CUT
66
1
70
0
0
VERTEX
8
CUT
10
71.1461
20
6.25
0
VERTEX
8
CUT
10
71.1461
20
2.7713
0
VERTEX
8
CUT
10
68.1335
20
4.5106
0
SEQEND
0
POLYLINE
8
CUT
66
1
70
0
0
VERTEX
8
CUT
10
66.8344
20
5.2606
0
VERTEX
8
CUT
10
63.8218
20
7
0
VERTEX
8
CUT
10
66.8344
20
8.7394
0
SEQEND
0
LINE
8
CUT
10
70.3461
20
9.0931
11
70.3461
21
4.9069
0
LINE
8
CUT
10
69.6966
20
4.5319
11
66.0713
21
6.625
0
LINE
8
CUT
10
66.0713
20
7.375
11
69.6966
21
9.4681
0
POLYLINE
8
CUT
66
1
70
0
0
VERTEX
8
CUT
10
68.9335
20
8.1037
0
VERTEX
8
CUT
10
69.5461
20
8.4574
0
VERTEX
8
CUT
10
69.5461
20
7.75
0
SEQEND
0
POLYLINE
8
CUT
66
1
70
0
0
VERTEX
8
CUT
10
69.5461
20
6.25
0
VERTEX
8
CUT
10
69.5461
20
5.5426
0
VERTEX
8
CUT
10
68.9335
20
5.8963
0
SEQEND
0
POLYLINE
8
CUT
66
1
70
0
0
VERTEX
8
CUT
10
67.6344
20
6.6463
0
VERTEX
8
CUT
10
67.0218
20
7
0
VERTEX
8
CUT
10
67.6344
20
7.3537
0
SEQEND
0
LINE
8
CUT
10
61.4218
20
4.8644
11
61.4218
21
0
0
LINE
8
CUT
10
70.4966
20
0.375
11
62.0713
21
5.2394
0
POLYLINE
8
CUT
66
1
70
0
0
VERTEX
8
CUT
10
65.2344
20
2.4894
0
VERTEX
8
CUT
10
62.2218
20
4.2287
0
VERTEX
8
CUT
10
62.2218
20
0.75
0
SEQEND
0
POLYLINE
8
CUT
66
1
70
0
0
VERTEX
8
CUT
10
69.5461
20
0
0
VERTEX
8
CUT
10
69.5461
20
0
0
VERTEX
8
CUT
10
66.5335
20
1.7394
0
SEQEND
0
LINE
8
CUT
10
63.0218
20
2.0931
11
63.0218
21
0
0
LINE
8
CUT
10
67.2966
20
0.375
11
63.6713
21
2.4681
0
POLYLINE
8
CUT
66
1
70
0
0
VERTEX
8
CUT
10
64.4344
20
1.1037
0
VERTEX
8
CUT
10
63.8218
20
1.4574
0
VERTEX
8
CUT
10
63.8218
20
0.75
0
SEQEND
0
POLYLINE
8
CUT
66
1
70
0
0
VERTEX
8
CUT
10
66.3461
20
0
0
VERTEX
8
CUT
10
66.3461
20
0
0
VERTEX
8
CUT
10
65.7335
20
0.3537
0
SEQEND
0
LINE
8
CUT
10
84.0705
20
70
11
84.0705
21
65.1356
0
LINE
8
CUT
10
83.421
20
64.7606
11
74.9957
21
69.625
0
POLYLINE
8
CUT
66
1
70
0
0
VERTEX
8
CUT
10
83.2705
20
69.25
0
VERTEX
8
CUT
10
83.2705
20
65.7713
0
VERTEX
8
CUT
10
80.2578
20
67.5106
0
SEQEND
0
POLYLINE
8
CUT
66
1
70
0
0
VERTEX
8
CUT
10
78.9588
20
68.2606
0
VERTEX
8
CUT
10
75.9461
20
70
0
VERTEX
8
CUT
10
75.9461
20
70
0
SEQEND
0
LINE
8
CUT
10
82.4705
20
70
11
82.4705
21
67.9069
0
LINE
8
CUT
10
81.821
20
67.5319
11
78.1957
21
69.625
0
POLYLINE
8
CUT
66
1
70
0
0
VERTEX
8
CUT
10
81.6705
20
69.25
0
VERTEX
8
CUT
10
81.6705
20
68.5426
0
VERTEX
8
CUT
10
81.0578
20
68.8963
0
SEQEND
0
POLYLINE
8
CUT
66
1
70
0
0
VERTEX
8
CUT
10
79.7588
20
69.6463
0
VERTEX
8
CUT
10
79.1461
20
70
0
VERTEX
8
CUT
10
79.1461
20
70
0
SEQEND
0
LINE
8
CUT
10
73.5461
20
67.8644
11
73.5461
21
58.1356
0
LINE
8
CUT
10
74.1957
20
57.7606
11
82.621
21
62.625
0
LINE
8
CUT
10
82.621
20
63.375
11
74.1957
21
68.2394
0
POLYLINE
8
CUT
66
1
70
0
0
VERTEX
8
CUT
10
77.3588
20
65.4894
0
VERTEX
8
CUT
10
74.3461
20
67.2287
0
VERTEX
8
CUT
10
74.3461
20
63.75
0
SEQEND
0
POLYLINE
8
CUT
66
1
70
0
0
VERTEX
8
CUT
10
74.3461
20
62.25
0
VERTEX
8
CUT
10
74.3461
20
58.7713
0
VERTEX
8
CUT
10
77.3588
20
60.5106
0
SEQEND
0
POLYLINE
8
CUT
66
1
70
0
0
VERTEX
8
CUT
10
78.6578
20
61.2606
0
VERTEX
8
CUT
10
81.6705
20
63
0
VERTEX
8
CUT
10
78.6578
20
64.7394
0
SEQEND
0
LINE
8
CUT
10
75.1461
20
65.0931
11
75.1461
21
60.9069
0
LINE
8
CUT
10
75.7957
20
60.5319
11
79.421
21
62.625
0
LINE
8
CUT
10
79.421
20
63.375
11
75.7957
21
65.4681
0
POLYLINE
8
CUT
66
1
70
0
0
VERTEX
8
CUT
10
76.5588
20
64.1037
0
VERTEX
8
CUT
10
75.9461
20
64.4574
0
VERTEX
8
CUT
10
75.9461
20
63.75
0
SEQEND
0
POLYLINE
8
CUT
66
1
70
0
0
VERTEX
8
CUT
10
75.9461
20
62.25
0
VERTEX
8
CUT
10
75.9461
20
61.5426
0
VERTEX
8
CUT
10
76.5588
20
61.8963
0
SEQEND
0
POLYLINE
8
CUT
66
1
70
0
0
VERTEX
8
CUT
10
77.8578
20
62.6463
0
VERTEX
8
CUT
10
78.4705
20
63
0
VERTEX
8
CUT
10
77.8578
20
63.3537
0
SEQEND
0
LINE
8
CUT
10
84.0705
20
60.8644
11
84.0705
21
51.1356
0
LINE
8
CUT
10
83.421
20
50.7606
11
74.9957
21
55.625
0
LINE
8
CUT
10
74.9957
20
56.375
11
83.421
21
61.2394
0
POLYLINE
8
CUT
66
1
70
0
0
VERTEX
8
CUT
10
80.2578
20
58.4894
0
VERTEX
8
CUT
10
83.2705
20
60.2287
0
VERTEX
8
CUT
10
83.2705
20
56.75
0
SEQEND
0
POLYLINE
8
CUT
66
1
70
0
0
VERTEX
8
CUT
10
83.2705
20
55.25
0
VERTEX
8
CUT
10
83.2705
20
51.7713
0
VERTEX
8
CUT
10
80.2578
20
53.5106
0
SEQEND
0
POLYLINE
8
CUT
66
1
70
0
0
VERTEX
8
CUT
10
78.9588
20
54.2606
0
VERTEX
8
CUT
10
75.9461
20
56
0
VERTEX
8
CUT
10
78.9588
20
57.7394
0
SEQEND
0
LINE
8
CUT
10
82.4705
20
58.0931
11
82.4705
21
53.9069
0
LINE
8
CUT
10
81.821
20
53.5319
11
78.1957
21
55.625
0
LINE
8
CUT
10
78.1957
20
56.375
11
81.821
21
58.4681
0
POLYLINE
8
CUT
66
1
70
0
0
VERTEX
8
CUT
10
81.0578
20
57.1037
0
VERTEX
8
CUT
10
81.6705
20
57.4574
0
VERTEX
8
CUT
10
81.6705
20
56.75
0
SEQEND
0
POLYLINE
8
CUT
66
1
70
0
0
VERTEX
8
CUT
10
81.6705
20
55.25
0
VERTEX
8
CUT
10
81.6705
20
54.5426
0
VERTEX
8
CUT
10
81.0578
20
54.8963
0
SEQEND
0
POLYLINE
8
CUT
66
1
70
0
0
VERTEX
8
CUT
10
79.7588
20
55.6463
0
VERTEX
8
CUT
10
79.1461
20
56
0
VERTEX
8
CUT
10
79.7588
20
56.3537
0
SEQEND
0
LINE
8
CUT
10
73.5461
20
53.8644
11
73.5461
21
44.1356
0
LINE
8
CUT
10
74.1957
20
43.7606
11
82.621
21
48.625
0
LINE
8
CUT
10
82.621
20
49.375
11
74.1957
21
54.2394
0
POLYLINE
8
CUT
66
1
70
0
0
VERTEX
8
CUT
10
77.3588
20
51.4894
0
VERTEX
8
CUT
10
74.3461
20
53.2287
0
VERTEX
8
CUT
10
74.3461
20
49.75
0
SEQEND
0
POLYLINE
8
CUT
66
1
70
0
0
VERTEX
8
CUT
10
74.3461
20
48.25
0
VERTEX
8
CUT
10
74.3461
20
44.7713
0
VERTEX
8
CUT
10
77.3588
20
46.5106
0
SEQEND
0
POLYLINE
8
CUT
66
1
70
0
0
VERTEX
8
CUT
10
78.6578
20
47.2606
0
VERTEX
8
CUT
10
81.6705
20
49
0
VERTEX
8
CUT
10
78.6578
20
50.7394
0
SEQEND
0
LINE
8
CUT
10
75.1461
20
51.0931
11
75.1461
21
46.9069
0
LINE
8
CUT
10
75.7957
20
46.5319
11
79.421
21
48.625
0
LINE
8
CUT
10
79.421
20
49.375
11
75.7957
21
51.4681
0
POLYLINE
8
CUT
66
1
70
0
0
VERTEX
8
CUT
10
76.5588
20
50.1037
0
VERTEX
8
CUT
10
75.9461
20
50.4574
0
VERTEX
8
CUT
10
75.9461
20
49.75
0
SEQEND
0
POLYLINE
8
CUT
66
1
70
0
0
VERTEX
8
CUT
10
75.9461
20
48.25
0
VERTEX
8
CUT
10
75.9461
20
47.5426
0
VERTEX
8
CUT
10
76.5588
20
47.8963
0
SEQEND
0
POLYLINE
8
CUT
66
1
70
0
0
VERTEX
8
CUT
10
77.8578
20
48.6463
0
VERTEX
8
CUT
10
78.4705
20
49
0
VERTEX
8
CUT
10
77.8578
20
49.3537
0
SEQEND
0
LINE
8
CUT
10
84.0705
20
46.8644
11
84.0705
21
37.1356
0
LINE
8
CUT
10
83.421
20
36.7606
11
74.9957
21
41.625
0
LINE
8
CUT
10
74.9957
20
42.375
11
83.421
21
47.2394
0
POLYLINE
8
CUT
66
1
70
0
0
VERTEX
8
CUT
10
80.2578
20
44.4894
0
VERTEX
8
CUT
10
83.2705
20
46.2287
0
VERTEX
8
CUT
10
83.2705
20
42.75
0
SEQEND
0
POLYLINE
8
CUT
66
1
70
0
0
VERTEX
8
CUT
10
83.2705
20
41.25
0
VERTEX
8
CUT
10
83.2705
20
37.7713
0
VERTEX
8
CUT
10
80.2578
20
39.5106
0
SEQEND
0
POLYLINE
8
CUT
66
1
70
0
0
VERTEX
8
CUT
10
78.9588
20
40.2606
0
VERTEX
8
CUT
10
75.9461
20
42
0
VERTEX
8
CUT
10
78.9588
20
43.7394
0
SEQEND
0
LINE
8
CUT
10
82.4705
20
44.0931
11
82.4705
21
39.9069
0
LINE
8
CUT
10
81.821
20
39.5319
11
78.1957
21
41.625
0
LINE
8
CUT
10
78.1957
20
42.375
11
81.821
21
44.4681
0
POLYLINE
8
CUT
66
1
70
0
0
VERTEX
8
CUT
10
81.0578
20
43.1037
0
VERTEX
8
CUT
10
81.6705
20
43.4574
0
VERTEX
8
CUT
10
81.6705
20
42.75
0
SEQEND
0
POLYLINE
8
CUT
66
1
70
0
0
VERTEX
8
CUT
10
81.6705
20
41.25
0
VERTEX
8
CUT
10
81.6705
20
40.5426
0
VERTEX
8
CUT
10
81.0578
20
40.8963
0
SEQEND
0
POLYLINE
8
CUT
66
1
70
0
0
VERTEX
8
CUT
10
79.7588
20
41.6463
0
VERTEX
8
CUT
10
79.1461
20
42
0
VERTEX
8
CUT
10
79.7588
20
42.3537
0
SEQEND
0
LINE
8
CUT
10
73.5461
20
39.8644
11
73.5461
21
30.1356
0
LINE
8
CUT
10
74.1957
20
29.7606
11
82.621
21
34.625
0
LINE
8
CUT
10
82.621
20
35.375
11
74.1957
21
40.2394
0
POLYLINE
8
CUT
66
1
70
0
0
VERTEX
8
CUT
10
77.3588
20
37.4894
0
VERTEX
8
CUT
10
74.3461
20
39.2287
0
VERTEX
8
CUT
10
74.3461
20
35.75
0
SEQEND
0
POLYLINE
8
CUT
66
1
70
0
0
VERTEX
8
CUT
10
74.3461
20
34.25
0
VERTEX
8
CUT
10
74.3461
20
30.7713
0
VERTEX
8
CUT
10
77.3588
20
32.5106
0
SEQEND
0
POLYLINE
8
CUT
66
1
70
0
0
VERTEX
8
CUT
10
78.6578
20
33.2606
0
VERTEX
8
CUT
10
81.6705
20
35
0
VERTEX
8
CUT
10
78.6578
20
36.7394
0
SEQEND
0
LINE
8
CUT
10
75.1461
20
37.0931
11
75.1461
21
32.9069
0
LINE
8
CUT
10
75.7957
20
32.5319
11
79.421
21
34.625
0
LINE
8
CUT
10
79.421
20
35.375
11
75.7957
21
37.4681
0
POLYLINE
8
CUT
66
1
70
0
0
VERTEX
8
CUT
10
76.5588
20
36.1037
0
VERTEX
8
CUT
10
75.9461
20
36.4574
0
VERTEX
8
CUT
10
75.9461
20
35.75
0
SEQEND
0
POLYLINE
8
CUT
66
1
70
0
0
VERTEX
8
CUT
10
75.9461
20
34.25
0
VERTEX
8
CUT
10
75.9461
20
33.5426
0
VERTEX
8
CUT
10
76.5588
20
33.8963
0
SEQEND
0
POLYLINE
8
CUT
66
1
70
0
0
VERTEX
8
CUT
10
77.8578
20
34.6463
0
VERTEX
8
CUT
10
78.4705
20
35
0
VERTEX
8
CUT
10
77.8578
20
35.3537
0
SEQEND
0
LINE
8
CUT
10
84.0705
20
32.8644
11
84.0705
21
23.1356
0
LINE
8
CUT
10
83.421
20
22.7606
11
74.9957
21
27.625
0
LINE
8
CUT
10
74.9957
20
28.375
11
83.421
21
33.2394
0
POLYLINE
8
CUT
66
1
70
0
0
VERTEX
8
CUT
10
80.2578
20
30.4894
0
VERTEX
8
CUT
10
83.2705
20
32.2287
0
VERTEX
8
CUT
10
83.2705
20
28.75
0
SEQEND
0
POLYLINE
8
CUT
66
1
70
0
0
VERTEX
8
CUT
10
83.2705
20
27.25
0
VERTEX
8
CUT
10
83.2705
20
23.7713
0
VERTEX
8
CUT
10
80.2578
20
25.5106
0
SEQEND
0
POLYLINE
8
CUT
66
1
70
0
0
VERTEX
8
CUT
10
78.9588
20
26.2606
0
VERTEX
8
CUT
10
75.9461
20
28
0
VERTEX
8
CUT
10
78.9588
20
29.7394
0
SEQEND
0
LINE
8
CUT
10
82.4705
20
30.0931
11
82.4705
21
25.9069
0
LINE
8
CUT
10
81.821
20
25.5319
11
78.1957
21
27.625
0
LINE
8
CUT
10
78.1957
20
28.375
11
81.821
21
30.4681
0
POLYLINE
8
CUT
66
1
70
0
0
VERTEX
8
CUT
10
81.0578
20
29.1037
0
VERTEX
8
CUT
10
81.6705
20
29.4574
0
VERTEX
8
CUT
10
81.6705
20
28.75
0
SEQEND
0
POLYLINE
8
CUT
66
1
70
0
0
VERTEX
8
CUT
10
81.6705
20
27.25
0
VERTEX
8
CUT
10
81.6705
20
26.5426
0
VERTEX
8
CUT
10
81.0578
20
26.8963
0
SEQEND
0
POLYLINE
8
CUT
66
1
70
0
0
VERTEX
8
CUT
10
79.7588
20
27.6463
0
VERTEX
8
CUT
10
79.1461
20
28
0
VERTEX
8
CUT
10
79.7588
20
28.3537
0
SEQEND
0
LINE
8
CUT
10
73.5461
20
25.8644
11
73.5461
21
16.1356
0
LINE
8
CUT
10
74.1957
20
15.7606
11
82.621
21
20.625
0
LINE
8
CUT
10
82.621
20
21.375
11
74.1957
21
26.2394
0
POLYLINE
8
CUT
66
1
70
0
0
VERTEX
8
CUT
10
77.3588
20
23.4894
0
VERTEX
8
CUT
10
74.3461
20
25.2287
0
VERTEX
8
CUT
10
74.3461
20
21.75
0
SEQEND
0
POLYLINE
8
CUT
66
1
70
0
0
VERTEX
8
CUT
10
74.3461
20
20.25
0
VERTEX
8
CUT
10
74.3461
20
16.7713
0
VERTEX
8
CUT
10
77.3588
20
18.5106
0
SEQEND
0
POLYLINE
8
CUT
66
1
70
0
0
VERTEX
8
CUT
10
78.6578
20
19.2606
0
VERTEX
8
CUT
10
81.6705
20
21
0
VERTEX
8
CUT
10
78.6578
20
22.7394
0
SEQEND
0
LINE
8
CUT
10
75.1461
20
23.0931
11
75.1461
21
18.9069
0
LINE
8
CUT
10
75.7957
20
18.5319
11
79.421
21
20.625
0
LINE
8
CUT
10
79.421
20
21.375
11
75.7957
21
23.4681
0
POLYLINE
8
CUT
66
1
70
0
0
VERTEX
8
CUT
10
76.5588
20
22.1037
0
VERTEX
8
CUT
10
75.9461
20
22.4574
0
VERTEX
8
CUT
10
75.9461
20
21.75
0
SEQEND
0
POLYLINE
8
CUT
66
1
70
0
0
VERTEX
8
CUT
10
75.9461
20
20.25
0
VERTEX
8
CUT
10
75.9461
20
19.5426
0
VERTEX
8
CUT
10
76.5588
20
19.8963
0
SEQEND
0
POLYLINE
8
CUT
66
1
70
0
0
VERTEX
8
CUT
10
77.8578
20
20.6463
0
VERTEX
8
CUT
10
78.4705
20
21
0
VERTEX
8
CUT
10
77.8578
20
21.3537
0
SEQEND
0
LINE
8
CUT
10
84.0705
20
18.8644
11
84.0705
21
9.1356
0
LINE
8
CUT
10
83.421
20
8.7606
11
74.9957
21
13.625
0
LINE
8
CUT
10
74.9957
20
14.375
11
83.421
21
19.2394
0
POLYLINE
8
CUT
66
1
70
0
0
VERTEX
8
CUT
10
80.2578
20
16.4894
0
VERTEX
8
CUT
10
83.2705
20
18.2287
0
VERTEX
8
CUT
10
83.2705
20
14.75
0
SEQEND
0
POLYLINE
8
CUT
66
1
70
0
0
VERTEX
8
CUT
10
83.2705
20
13.25
0
VERTEX
8
CUT
10
83.2705
20
9.7713
0
VERTEX
8
CUT
10
80.2578
20
11.5106
0
SEQEND
0
POLYLINE
8
CUT
66
1
70
0
0
VERTEX
8
CUT
10
78.9588
20
12.2606
0
VERTEX
8
CUT
10
75.9461
20
14
0
VERTEX
8
CUT
10
78.9588
20
15.7394
0
SEQEND
0
LINE
8
CUT
10
82.4705
20
16.0931
11
82.4705
21
11.9069
0
LINE
8
CUT
10
81.821
20
11.5319
11
78.1957
21
13.625
0
LINE
8
CUT
10
78.1957
20
14.375
11
81.821
21
16.4681
0
POLYLINE
8
CUT
66
1
70
0
0
VERTEX
8
CUT
10
81.0578
20
15.1037
0
VERTEX
8
CUT
10
81.6705
20
15.4574
0
VERTEX
8
CUT
10
81.6705
20
14.75
0
SEQEND
0
POLYLINE
8
CUT
66
1
70
0
0
VERTEX
8
CUT
10
81.6705
20
13.25
0
VERTEX
8
CUT
10
81.6705
20
12.5426
0
VERTEX
8
CUT
10
81.0578
20
12.8963
0
SEQEND
0
POLYLINE
8
CUT
66
1
70
0
0
VERTEX
8
CUT
10
79.7588
20
13.6463
0
VERTEX
8
CUT
10
79.1461
20
14
0
VERTEX
8
CUT
10
79.7588
20
14.3537
0
SEQEND
0
LINE
8
CUT
10
73.5461
20
11.8644
11
73.5461
21
2.1356
0
LINE
8
CUT
10
74.1957
20
1.7606
11
82.621
21
6.625
0
LINE
8
CUT
10
82.621
20
7.375
11
74.1957
21
12.2394
0
POLYLINE
8
CUT
66
1
70
0
0
VERTEX
8
CUT
10
77.3588
20
9.4894
0
VERTEX
8
CUT
10
74.3461
20
11.2287
0
VERTEX
8
CUT
10
74.3461
20
7.75
0
SEQEND
0
POLYLINE
8
CUT
66
1
70
0
0
VERTEX
8
CUT
10
74.3461
20
6.25
0
VERTEX
8
CUT
10
74.3461
20
2.7713
0
VERTEX
8
CUT
10
77.3588
20
4.5106
0
SEQEND
0
POLYLINE
8
CUT
66
1
70
0
0
VERTEX
8
CUT
10
78.6578
20
5.2606
0
VERTEX
8
CUT
10
81.6705
20
7
0
VERTEX
8
CUT
10
78.6578
20
8.7394
0
SEQEND
0
LINE
8
CUT
10
75.1461
20
9.0931
11
75.1461
21
4.9069
0
LINE
8
CUT
10
75.7957
20
4.5319
11
79.421
21
6.625
0
LINE
8
CUT
10
79.421
20
7.375
11
75.7957
21
9.4681
0
POLYLINE
8
CUT
66
1
70
0
0
VERTEX
8
CUT
10
76.5588
20
8.1037
0
VERTEX
8
CUT
10
75.9461
20
8.4574
0
VERTEX
8
CUT
10
75.9461
20
7.75
0
SEQEND
0
POLYLINE
8
CUT
66
1
70
0
0
VERTEX
8
CUT
10
75.9461
20
6.25
0
VERTEX
8
CUT
10
75.9461
20
5.5426
0
VERTEX
8
CUT
10
76.5588
20
5.8963
0
SEQEND
0
POLYLINE
8
CUT
66
1
70
0
0
VERTEX
8
CUT
10
77.8578
20
6.6463
0
VERTEX
8
CUT
10
78.4705
20
7
0
VERTEX
8
CUT
10
77.8578
20
7.3537
0
SEQEND
0
LINE
8
CUT
10
84.0705
20
4.8644
11
84.0705
21
0
0
LINE
8
CUT
10
74.9957
20
0.375
11
83.421
21
5.2394
0
POLYLINE
8
CUT
66
1
70
0
0
VERTEX
8
CUT
10
80.2578
20
2.4894
0
VERTEX
8
CUT
10
83.2705
20
4.2287
0
VERTEX
8
CUT
10
83.2705
20
0.75
0
SEQEND
0
POLYLINE
8
CUT
66
1
70
0
0
VERTEX
8
CUT
10
75.9461
20
0
0
VERTEX
8
CUT
10
75.9461
20
0
0
VERTEX
8
CUT
10
78.9588
20
1.7394
0
SEQEND
0
LINE
8
CUT
10
82.4705
20
2.0931
11
82.4705
21
0
0
LINE
8
CUT
10
78.1957
20
0.375
11
81.821
21
2.4681
0
POLYLINE
8
CUT
66
1
70
0
0
VERTEX
8
CUT
10
81.0578
20
1.1037
0
VERTEX
8
CUT
10
81.6705
20
1.4574
0
VERTEX
8
CUT
10
81.6705
20
0.75
0
SEQEND
0
POLYLINE
8
CUT
66
1
70
0
0
VERTEX
8
CUT
10
79.1461
20
0
0
VERTEX
8
CUT
10
79.1461
20
0
0
VERTEX
8
CUT
10
79.7588
20
0.3537
0
SEQEND
0
LINE
8
CUT
10
85.6705
20
70
11
85.6705
21
65.1356
0
LINE
8
CUT
10
86.32
20
64.7606
11
94.7453
21
69.625
0
POLYLINE
8
CUT
66
1
70
0
0
VERTEX
8
CUT
10
86.4705
20
69.25
0
VERTEX
8
CUT
10
86.4705
20
65.7713
0
VERTEX
8
CUT
10
89.4831
20
67.5106
0
SEQEND
0
POLYLINE
8
CUT
66
1
70
0
0
VERTEX
8
CUT
10
90.7822
20
68.2606
0
VERTEX
8
CUT
10
93.7948
20
70
0
VERTEX
8
CUT
10
93.7948
20
70
0
SEQEND
0
LINE
8
CUT
10
87.2705
20
70
11
87.2705
21
67.9069
0
LINE
8
CUT
10
87.92
20
67.5319
11
91.5453
21
69.625
0
POLYLINE
8
CUT
66
1
70
0
0
VERTEX
8
CUT
10
88.0705
20
69.25
0
VERTEX
8
CUT
10
88.0705
20
68.5426
0
VERTEX
8
CUT
10
88.6831
20
68.8963
0
SEQEND
0
POLYLINE
8
CUT
66
1
70
0
0
VERTEX
8
CUT
10
89.9822
20
69.6463
0
VERTEX
8
CUT
10
90.5948
20
70
0
VERTEX
8
CUT
10
90.5948
20
70
0
SEQEND
0
LINE
8
CUT
10
96.1948
20
67.8644
11
96.1948
21
58.1356
0
LINE
8
CUT
10
95.5453
20
57.7606
11
87.12
21
62.625
0
LINE
8
CUT
10
87.12
20
63.375
11
95.5453
21
68.2394
0
POLYLINE
8
CUT
66
1
70
0
0
VERTEX
8
CUT
10
92.3822
20
65.4894
0
VERTEX
8
CUT
10
95.3948
20
67.2287
0
VERTEX
8
CUT
10
95.3948
20
63.75
0
SEQEND
0
POLYLINE
8
CUT
66
1
70
0
0
VERTEX
8
CUT
10
95.3948
20
62.25
0
VERTEX
8
CUT
10
95.3948
20
58.7713
0
VERTEX
8
CUT
10
92.3822
20
60.5106
0
SEQEND
0
POLYLINE
8
CUT
66
1
70
0
0
VERTEX
8
CUT
10
91.0831
20
61.2606
0
VERTEX
8
CUT
10
88.0705
20
63
0
VERTEX
8
CUT
10
91.0831
20
64.7394
0
SEQEND
0
LINE
8
CUT
10
94.5948
20
65.0931
11
94.5948
21
60.9069
0
LINE
8
CUT
10
93.9453
20
60.5319
11
90.32
21
62.625
0
LINE
8
CUT
10
90.32
20
63.375
11
93.9453
21
65.4681
0
POLYLINE
8
CUT
66
1
70
0
0
VERTEX
8
CUT
10
93.1822
20
64.1037
0
VERTEX
8
CUT
10
93.7948
20
64.4574
0
VERTEX
8
CUT
10
93.7948
20
63.75
0
SEQEND
0
POLYLINE
8
CUT
66
1
70
0
0
VERTEX
8
CUT
10
93.7948
20
62.25
0
VERTEX
8
CUT
10
93.7948
20
61.5426
0
VERTEX
8
CUT
10
93.1822
20
61.8963
0
SEQEND
0
POLYLINE
8
CUT
66
1
70
0
0
VERTEX
8
CUT
10
91.8831
20
62.6463
0
VERTEX
8
CUT
10
91.2705
20
63
0
VERTEX
8
CUT
10
91.8831
20
63.3537
0
SEQEND
0
LINE
8
CUT
10
85.6705
20
60.8644
11
85.6705
21
51.1356
0
LINE
8
CUT
10
86.32
20
50.7606
11
94.7453
21
55.625
0
LINE
8
CUT
10
94.7453
20
56.375
11
86.32
21
61.2394
0
POLYLINE
8
CUT
66
1
70
0
0
VERTEX
8
CUT
10
89.4831
20
58.4894
0
VERTEX
8
CUT
10
86.4705
20
60.2287
0
VERTEX
8
CUT
10
86.4705
20
56.75
0
SEQEND
0
POLYLINE
8
CUT
66
1
70
0
0
VERTEX
8
CUT
10
86.4705
20
55.25
0
VERTEX
8
CUT
10
86.4705
20
51.7713
0
VERTEX
8
CUT
10
89.4831
20
53.5106
0
SEQEND
0
POLYLINE
8
CUT
66
1
70
0
0
VERTEX
8
CUT
10
90.7822
20
54.2606
0
VERTEX
8
CUT
10
93.7948
20
56
0
VERTEX
8
CUT
10
90.7822
20
57.7394
0
SEQEND
0
LINE
8
CUT
10
87.2705
20
58.0931
11
87.2705
21
53.9069
0
LINE
8
CUT
10
87.92
20
53.5319
11
91.5453
21
55.625
0
LINE
8
CUT
10
91.5453
20
56.375
11
87.92
21
58.4681
0
POLYLINE
8
CUT
66
1
70
0
0
VERTEX
8
CUT
10
88.6831
20
57.1037
0
VERTEX
8
CUT
10
88.0705
20
57.4574
0
VERTEX
8
CUT
10
88.0705
20
56.75
0
SEQEND
0
POLYLINE
8
CUT
66
1
70
0
0
VERTEX
8
CUT
10
88.0705
20
55.25
0
VERTEX
8
CUT
10
88.0705
20
54.5426
0
VERTEX
8
CUT
10
88.6831
20
54.8963
0
SEQEND
0
POLYLINE
8
CUT
66
1
70
0
0
VERTEX
8
CUT
10
89.9822
20
55.6463
0
VERTEX
8
CUT
10
90.5948
20
56
0
VERTEX
8
CUT
10
89.9822
20
56.3537
0
SEQEND
0
LINE
8
CUT
10
96.1948
20
53.8644
11
96.1948
21
44.1356
0
LINE
8
CUT
10
95.5453
20
43.7606
11
87.12
21
48.625
0
LINE
8
CUT
10
87.12
20
49.375
11
95.5453
21
54.2394
0
POLYLINE
8
CUT
66
1
70
0
0
VERTEX
8
CUT
10
92.3822
20
51.4894
0
VERTEX
8
CUT
10
95.3948
20
53.2287
0
VERTEX
8
CUT
10
95.3948
20
49.75
0
SEQEND
0
POLYLINE
8
CUT
66
1
70
0
0
VERTEX
8
CUT
10
95.3948
20
48.25
0
VERTEX
8
CUT
10
95.3948
20
44.7713
0
VERTEX
8
CUT
10
92.3822
20
46.5106
0
SEQEND
0
POLYLINE
8
CUT
66
1
70
0
0
VERTEX
8
CUT
10
91.0831
20
47.2606
0
VERTEX
8
CUT
10
88.0705
20
49
0
VERTEX
8
CUT
10
91.0831
20
50.7394
0
SEQEND
0
LINE
8
CUT
10
94.5948
20
51.0931
11
94.5948
21
46.9069
0
LINE
8
CUT
10
93.9453
20
46.5319
11
90.32
21
48.625
0
LINE
8
CUT
10
90.32
20
49.375
11
93.9453
21
51.4681
0
POLYLINE
8
CUT
66
1
70
0
0
VERTEX
8
CUT
10
93.1822
20
50.1037
0
VERTEX
8
CUT
10
93.7948
20
50.4574
0
VERTEX
8
CUT
10
93.7948
20
49.75
0
SEQEND
0
POLYLINE
8
CUT
66
1
70
0
0
VERTEX
8
CUT
10
93.7948
20
48.25
0
VERTEX
8
CUT
10
93.7948
20
47.5426
0
VERTEX
8
CUT
10
93.1822
20
47.8963
0
SEQEND
0
POLYLINE
8
CUT
66
1
70
0
0
VERTEX
8
CUT
10
91.8831
20
48.6463
0
VERTEX
8
CUT
10
91.2705
20
49
0
VERTEX
8
CUT
10
91.8831
20
49.3537
0
SEQEND
0
LINE
8
CUT
10
85.6705
20
46.8644
11
85.6705
21
37.1356
0
LINE
8
CUT
10
86.32
20
36.7606
11
94.7453
21
41.625
0
LINE
8
CUT
10
94.7453
20
42.375
11
86.32
21
47.2394
0
POLYLINE
8
CUT
66
1
70
0
0
VERTEX
8
CUT
10
89.4831
20
44.4894
0
VERTEX
8
CUT
10
86.4705
20
46.2287
0
VERTEX
8
CUT
10
86.4705
20
42.75
0
SEQEND
0
POLYLINE
8
CUT
66
1
70
0
0
VERTEX
8
CUT
10
86.4705
20
41.25
0
VERTEX
8
CUT
10
86.4705
20
37.7713
0
VERTEX
8
CUT
10
89.4831
20
39.5106
0
SEQEND
0
POLYLINE
8
CUT
66
1
70
0
0
VERTEX
8
CUT
10
90.7822
20
40.2606
0
VERTEX
8
CUT
10
93.7948
20
42
0
VERTEX
8
CUT
10
90.7822
20
43.7394
0
SEQEND
0
LINE
8
CUT
10
87.2705
20
44.0931
11
87.2705
21
39.9069
0
LINE
8
CUT
10
87.92
20
39.5319
11
91.5453
21
41.625
0
LINE
8
CUT
10
91.5453
20
42.375
11
87.92
21
44.4681
0
POLYLINE
8
CUT
66
1
70
0
0
VERTEX
8
CUT
10
88.6831
20
43.1037
0
VERTEX
8
CUT
10
88.0705
20
43.4574
0
VERTEX
8
CUT
10
88.0705
20
42.75
0
SEQEND
0
POLYLINE
8
CUT
66
1
70
0
0
VERTEX
8
CUT
10
88.0705
20
41.25
0
VERTEX
8
CUT
10
88.0705
20
40.5426
0
VERTEX
8
CUT
10
88.6831
20
40.8963
0
SEQEND
0
POLYLINE
8
CUT
66
1
70
0
0
VERTEX
8
CUT
10
89.9822
20
41.6463
0
VERTEX
8
CUT
10
90.5948
20
42
0
VERTEX
8
CUT
10
89.9822
20
42.3537
0
SEQEND
0
LINE
8
CUT
10
96.1948
20
39.8644
11
96.1948
21
30.1356
0
LINE
8
CUT
10
95.5453
20
29.7606
11
87.12
21
34.625
0
LINE
8
CUT
10
87.12
20
35.375
11
95.5453
21
40.2394
0
POLYLINE
8
CUT
66
1
70
0
0
VERTEX
8
CUT
10
92.3822
20
37.4894
0
VERTEX
8
CUT
10
95.3948
20
39.2287
0
VERTEX
8
CUT
10
95.3948
20
35.75
0
SEQEND
0
POLYLINE
8
CUT
66
1
70
0
0
VERTEX
8
CUT
10
95.3948
20
34.25
0
VERTEX
8
CUT
10
95.3948
20
30.7713
0
VERTEX
8
CUT
10
92.3822
20
32.5106
0
SEQEND
0
POLYLINE
8
CUT
66
1
70
0
0
VERTEX
8
CUT
10
91.0831
20
33.2606
0
VERTEX
8
CUT
10
88.0705
20
35
0
VERTEX
8
CUT
10
91.0831
20
36.7394
0
SEQEND
0
LINE
8
CUT
10
94.5948
20
37.0931
11
94.5948
21
32.9069
0
LINE
8
CUT
10
93.9453
20
32.5319
11
90.32
21
34.625
0
LINE
8
CUT
10
90.32
20
35.375
11
93.9453
21
37.4681
0
POLYLINE
8
CUT
66
1
70
0
0
VERTEX
8
CUT
10
93.1822
20
36.1037
0
VERTEX
8
CUT
10
93.7948
20
36.4574
0
VERTEX
8
CUT
10
93.7948
20
35.75
0
SEQEND
0
POLYLINE
8
CUT
66
1
70
0
0
VERTEX
8
CUT
10
93.7948
20
34.25
0
VERTEX
8
CUT
10
93.7948
20
33.5426
0
VERTEX
8
CUT
10
93.1822
20
33.8963
0
SEQEND
0
POLYLINE
8
CUT
66
1
70
0
0
VERTEX
8
CUT
10
91.8831
20
34.6463
0
VERTEX
8
CUT
10
91.2705
20
35
0
VERTEX
8
CUT
10
91.8831
20
35.3537
0
SEQEND
0
LINE
8
CUT
10
85.6705
20
32.8644
11
85.6705
21
23.1356
0
LINE
8
CUT
10
86.32
20
22.7606
11
94.7453
21
27.625
0
LINE
8
CUT
10
94.7453
20
28.375
11
86.32
21
33.2394
0
POLYLINE
8
CUT
66
1
70
0
0
VERTEX
8
CUT
10
89.4831
20
30.4894
0
VERTEX
8
CUT
10
86.4705
20
32.2287
0
VERTEX
8
CUT
10
86.4705
20
28.75
0
SEQEND
0
POLYLINE
8
CUT
66
1
70
0
0
VERTEX
8
CUT
10
86.4705
20
27.25
0
VERTEX
8
CUT
10
86.4705
20
23.7713
0
VERTEX
8
CUT
10
89.4831
20
25.5106
0
SEQEND
0
POLYLINE
8
CUT
66
1
70
0
0
VERTEX
8
CUT
10
90.7822
20
26.2606
0
VERTEX
8
CUT
10
93.7948
20
28
0
VERTEX
8
CUT
10
90.7822
20
29.7394
0
SEQEND
0
LINE
8
CUT
10
87.2705
20
30.0931
11
87.2705
21
25.9069
0
LINE
8
CUT
10
87.92
20
25.5319
11
91.5453
21
27.625
0
LINE
8
CUT
10
91.5453
20
28.375
11
87.92
21
30.4681
0
POLYLINE
8
CUT
66
1
70
0
0
VERTEX
8
CUT
10
88.6831
20
29.1037
0
VERTEX
8
CUT
10
88.0705
20
29.4574
0
VERTEX
8
CUT
10
88.0705
20
28.75
0
SEQEND
0
POLYLINE
8
CUT
66
1
70
0
0
VERTEX
8
CUT
10
88.0705
20
27.25
0
VERTEX
8
CUT
10
88.0705
20
26.5426
0
VERTEX
8
CUT
10
88.6831
20
26.8963
0
SEQEND
0
POLYLINE
8
CUT
66
1
70
0
0
VERTEX
8
CUT
10
89.9822
20
27.6463
0
VERTEX
8
CUT
10
90.5948
20
28
0
VERTEX
8
CUT
10
89.9822
20
28.3537
0
SEQEND
0
LINE
8
CUT
10
96.1948
20
25.8644
11
96.1948
21
16.1356
0
LINE
8
CUT
10
95.5453
20
15.7606
11
87.12
21
20.625
0
LINE
8
CUT
10
87.12
20
21.375
11
95.5453
21
26.2394
0
POLYLINE
8
CUT
66
1
70
0
0
VERTEX
8
CUT
10
92.3822
20
23.4894
0
VERTEX
8
CUT
10
95.3948
20
25.2287
0
VERTEX
8
CUT
10
95.3948
20
21.75
0
SEQEND
0
POLYLINE
8
CUT
66
1
70
0
0
VERTEX
8
CUT
10
95.3948
20
20.25
0
VERTEX
8
CUT
10
95.3948
20
16.7713
0
VERTEX
8
CUT
10
92.3822
20
18.5106
0
SEQEND
0
POLYLINE
8
CUT
66
1
70
0
0
VERTEX
8
CUT
10
91.0831
20
19.2606
0
VERTEX
8
CUT
10
88.0705
20
21
0
VERTEX
8
CUT
10
91.0831
20
22.7394
0
SEQEND
0
LINE
8
CUT
10
94.5948
20
23.0931
11
94.5948
21
18.9069
0
LINE
8
CUT
10
93.9453
20
18.5319
11
90.32
21
20.625
0
LINE
8
CUT
10
90.32
20
21.375
11
93.9453
21
23.4681
0
POLYLINE
8
CUT
66
1
70
0
0
VERTEX
8
CUT
10
93.1822
20
22.1037
0
VERTEX
8
CUT
10
93.7948
20
22.4574
0
VERTEX
8
CUT
10
93.7948
20
21.75
0
SEQEND
0
POLYLINE
8
CUT
66
1
70
0
0
VERTEX
8
CUT
10
93.7948
20
20.25
0
VERTEX
8
CUT
10
93.7948
20
19.5426
0
VERTEX
8
CUT
10
93.1822
20
19.8963
0
SEQEND
0
POLYLINE
8
CUT
66
1
70
0
0
VERTEX
8
CUT
10
91.8831
20
20.6463
0
VERTEX
8
CUT
10
91.2705
20
21
0
VERTEX
8
CUT
10
91.8831
20
21.3537
0
SEQEND
0
LINE
8
CUT
10
85.6705
20
18.8644
11
85.6705
21
9.1356
0
LINE
8
CUT
10
86.32
20
8.7606
11
94.7453
21
13.625
0
LINE
8
CUT
10
94.7453
20
14.375
11
86.32
21
19.2394
0
POLYLINE
8
CUT
66
1
70
0
0
VERTEX
8
CUT
10
89.4831
20
16.4894
0
VERTEX
8
CUT
10
86.4705
20
18.2287
0
VERTEX
8
CUT
10
86.4705
20
14.75
0
SEQEND
0
POLYLINE
8
CUT
66
1
70
0
0
VERTEX
8
CUT
10
86.4705
20
13.25
0
VERTEX
8
CUT
10
86.4705
20
9.7713
0
VERTEX
8
CUT
10
89.4831
20
11.5106
0
SEQEND
0
POLYLINE
8
CUT
66
1
70
0
0
VERTEX
8
CUT
10
90.7822
20
12.2606
0
VERTEX
8
CUT
10
93.7948
20
14
0
VERTEX
8
CUT
10
90.7822
20
15.7394
0
SEQEND
0
LINE
8
CUT
10
87.2705
20
16.0931
11
87.2705
21
11.9069
0
LINE
8
CUT
10
87.92
20
11.5319
11
91.5453
21
13.625
0
LINE
8
CUT
10
91.5453
20
14.375
11
87.92
21
16.4681
0
POLYLINE
8
CUT
66
1
70
0
0
VERTEX
8
CUT
10
88.6831
20
15.1037
0
VERTEX
8
CUT
10
88.0705
20
15.4574
0
VERTEX
8
CUT
10
88.0705
20
14.75
0
SEQEND
0
POLYLINE
8
CUT
66
1
70
0
0
VERTEX
8
CUT
10
88.0705
20
13.25
0
VERTEX
8
CUT
10
88.0705
20
12.5426
0
VERTEX
8
CUT
10
88.6831
20
12.8963
0
SEQEND
0
POLYLINE
8
CUT
66
1
70
0
0
VERTEX
8
CUT
10
89.9822
20
13.6463
0
VERTEX
8
CUT
10
90.5948
20
14
0
VERTEX
8
CUT
10
89.9822
20
14.3537
0
SEQEND
0
LINE
8
CUT
10
96.1948
20
11.8644
11
96.1948
21
2.1356
0
LINE
8
CUT
10
95.5453
20
1.7606
11
87.12
21
6.625
0
LINE
8
CUT
10
87.12
20
7.375
11
95.5453
21
12.2394
0
POLYLINE
8
CUT
66
1
70
0
0
VERTEX
8
CUT
10
92.3822
20
9.4894
0
VERTEX
8
CUT
10
95.3948
20
11.2287
0
VERTEX
8
CUT
10
95.3948
20
7.75
0
SEQEND
0
POLYLINE
8
CUT
66
1
70
0
0
VERTEX
8
CUT
10
95.3948
20
6.25
0
VERTEX
8
CUT
10
95.3948
20
2.7713
0
VERTEX
8
CUT
10
92.3822
20
4.5106
0
SEQEND
0
POLYLINE
8
CUT
66
1
70
0
0
VERTEX
8
CUT
10
91.0831
20
5.2606
0
VERTEX
8
CUT
10
88.0705
20
7
0
VERTEX
8
CUT
10
91.0831
20
8.7394
0
SEQEND
0
LINE
8
CUT
10
94.5948
20
9.0931
11
94.5948
21
4.9069
0
LINE
8
CUT
10
93.9453
20
4.5319
11
90.32
21
6.625
0
LINE
8
CUT
10
90.32
20
7.375
11
93.9453
21
9.4681
0
POLYLINE
8
CUT
66
1
70
0
0
VERTEX
8
CUT
10
93.1822
20
8.1037
0
VERTEX
8
CUT
10
93.7948
20
8.4574
0
VERTEX
8
CUT
10
93.7948
20
7.75
0
SEQEND
0
POLYLINE
8
CUT
66
1
70
0
0
VERTEX
8
CUT
10
93.7948
20
6.25
0
VERTEX
8
CUT
10
93.7948
20
5.5426
0
VERTEX
8
CUT
10
93.1822
20
5.8963
0
SEQEND
0
POLYLINE
8
CUT
66
1
70
0
0
VERTEX
8
CUT
10
91.8831
20
6.6463
0
VERTEX
8
CUT
10
91.2705
20
7
0
VERTEX
8
CUT
10
91.8831
20
7.3537
0
SEQEND
0
LINE
8
CUT
10
85.6705
20
4.8644
11
85.6705
21
0
0
LINE
8
CUT
10
94.7453
20
0.375
11
86.32
21
5.2394
0
POLYLINE
8
CUT
66
1
70
0
0
VERTEX
8
CUT
10
89.4831
20
2.4894
0
VERTEX
8
CUT
10
86.4705
20
4.2287
0
VERTEX
8
CUT
10
86.4705
20
0.75
0
SEQEND
0
POLYLINE
8
CUT
66
1
70
0
0
VERTEX
8
CUT
10
93.7948
20
0
0
VERTEX
8
CUT
10
93.7948
20
0
0
VERTEX
8
CUT
10
90.7822
20
1.7394
0
SEQEND
0
LINE
8
CUT
10
87.2705
20
2.0931
11
87.2705
21
0
0
LINE
8
CUT
10
91.5453
20
0.375
11
87.92
21
2.4681
0
POLYLINE
8
CUT
66
1
70
0
0
VERTEX
8
CUT
10
88.6831
20
1.1037
0
VERTEX
8
CUT
10
88.0705
20
1.4574
0
VERTEX
8
CUT
10
88.0705
20
0.75
0
SEQEND
0
POLYLINE
8
CUT
66
1
70
0
0
VERTEX
8
CUT
10
90.5948
20
0
0
VERTEX
8
CUT
10
90.5948
20
0
0
VERTEX
8
CUT
10
89.9822
20
0.3537
0
SEQEND
0
LINE
8
CUT
10
108.3192
20
70
11
108.3192
21
65.1356
0
LINE
8
CUT
10
107.6697
20
64.7606
11
99.2444
21
69.625
0
POLYLINE
8
CUT
66
1
70
0
0
VERTEX
8
CUT
10
107.5192
20
69.25
0
VERTEX
8
CUT
10
107.5192
20
65.7713
0
VERTEX
8
CUT
10
104.5065
20
67.5106
0
SEQEND
0
POLYLINE
8
CUT
66
1
70
0
0
VERTEX
8
CUT
10
103.2075
20
68.2606
0
VERTEX
8
CUT
10
100.1948
20
70
0
VERTEX
8
CUT
10
100.1948
20
70
0
SEQEND
0
LINE
8
CUT
10
106.7192
20
70
11
106.7192
21
67.9069
0
LINE
8
CUT
10
106.0697
20
67.5319
11
102.4444
21
69.625
0
POLYLINE
8
CUT
66
1
70
0
0
VERTEX
8
CUT
10
105.9192
20
69.25
0
VERTEX
8
CUT
10
105.9192
20
68.5426
0
VERTEX
8
CUT
10
105.3065
20
68.8963
0
SEQEND
0
POLYLINE
8
CUT
66
1
70
0
0
VERTEX
8
CUT
10
104.0075
20
69.6463
0
VERTEX
8
CUT
10
103.3948
20
70
0
VERTEX
8
CUT
10
103.3948
20
70
0
SEQEND
0
LINE
8
CUT
10
97.7948
20
67.8644
11
97.7948
21
58.1356
0
LINE
8
CUT
10
98.4444
20
57.7606
11
106.8697
21
62.625
0
LINE
8
CUT
10
106.8697
20
63.375
11
98.4444
21
68.2394
0
POLYLINE
8
CUT
66
1
70
0
0
VERTEX
8
CUT
10
101.6075
20
65.4894
0
VERTEX
8
CUT
10
98.5948
20
67.2287
0
VERTEX
8
CUT
10
98.5948
20
63.75
0
SEQEND
0
POLYLINE
8
CUT
66
1
70
0
0
VERTEX
8
CUT
10
98.5948
20
62.25
0
VERTEX
8
CUT
10
98.5948
20
58.7713
0
VERTEX
8
CUT
10
101.6075
20
60.5106
0
SEQEND
0
POLYLINE
8
CUT
66
1
70
0
0
VERTEX
8
CUT
10
102.9065
20
61.2606
0
VERTEX
8
CUT
10
105.9192
20
63
0
VERTEX
8
CUT
10
102.9065
20
64.7394
0
SEQEND
0
LINE
8
CUT
10
99.3948
20
65.0931
11
99.3948
21
60.9069
0
LINE
8
CUT
10
100.0444
20
60.5319
11
103.6697
21
62.625
0
LINE
8
CUT
10
103.6697
20
63.375
11
100.0444
21
65.4681
0
POLYLINE
8
CUT
66
1
70
0
0
VERTEX
8
CUT
10
100.8075
20
64.1037
0
VERTEX
8
CUT
10
100.1948
20
64.4574
0
VERTEX
8
CUT
10
100.1948
20
63.75
0
SEQEND
0
POLYLINE
8
CUT
66
1
70
0
0
VERTEX
8
CUT
10
100.1948
20
62.25
0
VERTEX
8
CUT
10
100.1948
20
61.5426
0
VERTEX
8
CUT
10
100.8075
20
61.8963
0
SEQEND
0
POLYLINE
8
CUT
66
1
70
0
0
VERTEX
8
CUT
10
102.1065
20
62.6463
0
VERTEX
8
CUT
10
102.7192
20
63
0
VERTEX
8
CUT
10
102.1065
20
63.3537
0
SEQEND
0
LINE
8
CUT
10
108.3192
20
60.8644
11
108.3192
21
51.1356
0
LINE
8
CUT
10
107.6697
20
50.7606
11
99.2444
21
55.625
0
LINE
8
CUT
10
99.2444
20
56.375
11
107.6697
21
61.2394
0
POLYLINE
8
CUT
66
1
70
0
0
VERTEX
8
CUT
10
104.5065
20
58.4894
0
VERTEX
8
CUT
10
107.5192
20
60.2287
0
VERTEX
8
CUT
10
107.5192
20
56.75
0
SEQEND
0
POLYLINE
8
CUT
66
1
70
0
0
VERTEX
8
CUT
10
107.5192
20
55.25
0
VERTEX
8
CUT
10
107.5192
20
51.7713
0
VERTEX
8
CUT
10
104.5065
20
53.5106
0
SEQEND
0
POLYLINE
8
CUT
66
1
70
0
0
VERTEX
8
CUT
10
103.2075
20
54.2606
0
VERTEX
8
CUT
10
100.1948
20
56
0
VERTEX
8
CUT
10
103.2075
20
57.7394
0
SEQEND
0
LINE
8
CUT
10
106.7192
20
58.0931
11
106.7192
21
53.9069
0
LINE
8
CUT
10
106.0697
20
53.5319
11
102.4444
21
55.625
0
LINE
8
CUT
10
102.4444
20
56.375
11
106.0697
21
58.4681
0
POLYLINE
8
CUT
66
1
70
0
0
VERTEX
8
CUT
10
105.3065
20
57.1037
0
VERTEX
8
CUT
10
105.9192
20
57.4574
0
VERTEX
8
CUT
10
105.9192
20
56.75
0
SEQEND
0
POLYLINE
8
CUT
66
1
70
0
0
VERTEX
8
CUT
10
105.9192
20
55.25
0
VERTEX
8
CUT
10
105.9192
20
54.5426
0
VERTEX
8
CUT
10
105.3065
20
54.8963
0
SEQEND
0
POLYLINE
8
CUT
66
1
70
0
0
VERTEX
8
CUT
10
104.0075
20
55.6463
0
VERTEX
8
CUT
10
103.3948
20
56
0
VERTEX
8
CUT
10
104.0075
20
56.3537
0
SEQEND
0
LINE
8
CUT
10
97.7948
20
53.8644
11
97.7948
21
44.1356
0
LINE
8
CUT
10
98.4444
20
43.7606
11
106.8697
21
48.625
0
LINE
8
CUT
10
106.8697
20
49.375
11
98.4444
21
54.2394
0
POLYLINE
8
CUT
66
1
70
0
0
VERTEX
8
CUT
10
101.6075
20
51.4894
0
VERTEX
8
CUT
10
98.5948
20
53.2287
0
VERTEX
8
CUT
10
98.5948
20
49.75
0
SEQEND
0
POLYLINE
8
CUT
66
1
70
0
0
VERTEX
8
CUT
10
98.5948
20
48.25
0
VERTEX
8
CUT
10
98.5948
20
44.7713
0
VERTEX
8
CUT
10
101.6075
20
46.5106
0
SEQEND
0
POLYLINE
8
CUT
66
1
70
0
0
VERTEX
8
CUT
10
102.9065
20
47.2606
0
VERTEX
8
CUT
10
105.9192
20
49
0
VERTEX
8
CUT
10
102.9065
20
50.7394
0
SEQEND
0
LINE
8
CUT
10
99.3948
20
51.0931
11
99.3948
21
46.9069
0
LINE
8
CUT
10
100.0444
20
46.5319
11
103.6697
21
48.625
0
LINE
8
CUT
10
103.6697
20
49.375
11
100.0444
21
51.4681
0
POLYLINE
8
CUT
66
1
70
0
0
VERTEX
8
CUT
10
100.8075
20
50.1037
0
VERTEX
8
CUT
10
100.1948
20
50.4574
0
VERTEX
8
CUT
10
100.1948
20
49.75
0
SEQEND
0
POLYLINE
8
CUT
66
1
70
0
0
VERTEX
8
CUT
10
100.1948
20
48.25
0
VERTEX
8
CUT
10
100.1948
20
47.5426
0
VERTEX
8
CUT
10
100.8075
20
47.8963
0
SEQEND
0
POLYLINE
8
CUT
66
1
70
0
0
VERTEX
8
CUT
10
102.1065
20
48.6463
0
VERTEX
8
CUT
10
102.7192
20
49
0
VERTEX
8
CUT
10
102.1065
20
49.3537
0
SEQEND
0
LINE
8
CUT
10
108.3192
20
46.8644
11
108.3192
21
37.1356
0
LINE
8
CUT
10
107.6697
20
36.7606
11
99.2444
21
41.625
0
LINE
8
CUT
10
99.2444
20
42.375
11
107.6697
21
47.2394
0
POLYLINE
8
CUT
66
1
70
0
0
VERTEX
8
CUT
10
104.5065
20
44.4894
0
VERTEX
8
CUT
10
107.5192
20
46.2287
0
VERTEX
8
CUT
10
107.5192
20
42.75
0
SEQEND
0
POLYLINE
8
CUT
66
1
70
0
0
VERTEX
8
CUT
10
107.5192
20
41.25
0
VERTEX
8
CUT
10
107.5192
20
37.7713
0
VERTEX
8
CUT
10
104.5065
20
39.5106
0
SEQEND
0
POLYLINE
8
CUT
66
1
70
0
0
VERTEX
8
CUT
10
103.2075
20
40.2606
0
VERTEX
8
CUT
10
100.1948
20
42
0
VERTEX
8
CUT
10
103.2075
20
43.7394
0
SEQEND
0
LINE
8
CUT
10
106.7192
20
44.0931
11
106.7192
21
39.9069
0
LINE
8
CUT
10
106.0697
20
39.5319
11
102.4444
21
41.625
0
LINE
8
CUT
10
102.4444
20
42.375
11
106.0697
21
44.4681
0
POLYLINE
8
CUT
66
1
70
0
0
VERTEX
8
CUT
10
105.3065
20
43.1037
0
VERTEX
8
CUT
10
105.9192
20
43.4574
0
VERTEX
8
CUT
10
105.9192
20
42.75
0
SEQEND
0
POLYLINE
8
CUT
66
1
70
0
0
VERTEX
8
CUT
10
105.9192
20
41.25
0
VERTEX
8
CUT
10
105.9192
20
40.5426
0
VERTEX
8
CUT
10
105.3065
20
40.8963
0
SEQEND
0
POLYLINE
8
CUT
66
1
70
0
0
VERTEX
8
CUT
10
104.0075
20
41.6463
0
VERTEX
8
CUT
10
103.3948
20
42
0
VERTEX
8
CUT
10
104.0075
20
42.3537
0
SEQEND
0
LINE
8
CUT
10
97.7948
20
39.8644
11
97.7948
21
30.1356
0
LINE
8
CUT
10
98.4444
20
29.7606
11
106.8697
21
34.625
0
LINE
8
CUT
10
106.8697
20
35.375
11
98.4444
21
40.2394
0
POLYLINE
8
CUT
66
1
70
0
0
VERTEX
8
CUT
10
101.6075
20
37.4894
0
VERTEX
8
CUT
10
98.5948
20
39.2287
0
VERTEX
8
CUT
10
98.5948
20
35.75
0
SEQEND
0
POLYLINE
8
CUT
66
1
70
0
0
VERTEX
8
CUT
10
98.5948
20
34.25
0
VERTEX
8
CUT
10
98.5948
20
30.7713
0
VERTEX
8
CUT
10
101.6075
20
32.5106
0
SEQEND
0
POLYLINE
8
CUT
66
1
70
0
0
VERTEX
8
CUT
10
102.9065
20
33.2606
0
VERTEX
8
CUT
10
105.9192
20
35
0
VERTEX
8
CUT
10
102.9065
20
36.7394
0
SEQEND
0
LINE
8
CUT
10
99.3948
20
37.0931
11
99.3948
21
32.9069
0
LINE
8
CUT
10
100.0444
20
32.5319
11
103.6697
21
34.625
0
LINE
8
CUT
10
103.6697
20
35.375
11
100.0444
21
37.4681
0
POLYLINE
8
CUT
66
1
70
0
0
VERTEX
8
CUT
10
100.8075
20
36.1037
0
VERTEX
8
CUT
10
100.1948
20
36.4574
0
VERTEX
8
CUT
10
100.1948
20
35.75
0
SEQEND
0
POLYLINE
8
CUT
66
1
70
0
0
VERTEX
8
CUT
10
100.1948
20
34.25
0
VERTEX
8
CUT
10
100.1948
20
33.5426
0
VERTEX
8
CUT
10
100.8075
20
33.8963
0
SEQEND
0
POLYLINE
8
CUT
66
1
70
0
0
VERTEX
8
CUT
10
102.1065
20
34.6463
0
VERTEX
8
CUT
10
102.7192
20
35
0
VERTEX
8
CUT
10
102.1065
20
35.3537
0
SEQEND
0
LINE
8
CUT
10
108.3192
20
32.8644
11
108.3192
21
23.1356
0
LINE
8
CUT
10
107.6697
20
22.7606
11
99.2444
21
27.625
0
LINE
8
CUT
10
99.2444
20
28.375
11
107.6697
21
33.2394
0
POLYLINE
8
CUT
66
1
70
0
0
VERTEX
8
CUT
10
104.5065
20
30.4894
0
VERTEX
8
CUT
10
107.5192
20
32.2287
0
VERTEX
8
CUT
10
107.5192
20
28.75
0
SEQEND
0
POLYLINE
8
CUT
66
1
70
0
0
VERTEX
8
CUT
10
107.5192
20
27.25
0
VERTEX
8
CUT
10
107.5192
20
23.7713
0
VERTEX
8
CUT
10
104.5065
20
25.5106
0
SEQEND
0
POLYLINE
8
CUT
66
1
70
0
0
VERTEX
8
CUT
10
103.2075
20
26.2606
0
VERTEX
8
CUT
10
100.1948
20
28
0
VERTEX
8
CUT
10
103.2075
20
29.7394
0
SEQEND
0
LINE
8
CUT
10
106.7192
20
30.0931
11
106.7192
21
25.9069
0
LINE
8
CUT
10
106.0697
20
25.5319
11
102.4444
21
27.625
0
LINE
8
CUT
10
102.4444
20
28.375
11
106.0697
21
30.4681
0
POLYLINE
8
CUT
66
1
70
0
0
VERTEX
8
CUT
10
105.3065
20
29.1037
0
VERTEX
8
CUT
10
105.9192
20
29.4574
0
VERTEX
8
CUT
10
105.9192
20
28.75
0
SEQEND
0
POLYLINE
8
CUT
66
1
70
0
0
VERTEX
8
CUT
10
105.9192
20
27.25
0
VERTEX
8
CUT
10
105.9192
20
26.5426
0
VERTEX
8
CUT
10
105.3065
20
26.8963
0
SEQEND
0
POLYLINE
8
CUT
66
1
70
0
0
VERTEX
8
CUT
10
104.0075
20
27.6463
0
VERTEX
8
CUT
10
103.3948
20
28
0
VERTEX
8
CUT
10
104.0075
20
28.3537
0
SEQEND
0
LINE
8
CUT
10
97.7948
20
25.8644
11
97.7948
21
16.1356
0
LINE
8
CUT
10
98.4444
20
15.7606
11
106.8697
21
20.625
0
LINE
8
CUT
10
106.8697
20
21.375
11
98.4444
21
26.2394
0
POLYLINE
8
CUT
66
1
70
0
0
VERTEX
8
CUT
10
101.6075
20
23.4894
0
VERTEX
8
CUT
10
98.5948
20
25.2287
0
VERTEX
8
CUT
10
98.5948
20
21.75
0
SEQEND
0
POLYLINE
8
CUT
66
1
70
0
0
VERTEX
8
CUT
10
98.5948
20
20.25
0
VERTEX
8
CUT
10
98.5948
20
16.7713
0
VERTEX
8
CUT
10
101.6075
20
18.5106
0
SEQEND
0
POLYLINE
8
CUT
66
1
70
0
0
VERTEX
8
CUT
10
102.9065
20
19.2606
0
VERTEX
8
CUT
10
105.9192
20
21
0
VERTEX
8
CUT
10
102.9065
20
22.7394
0
SEQEND
0
LINE
8
CUT
10
99.3948
20
23.0931
11
99.3948
21
18.9069
0
LINE
8
CUT
10
100.0444
20
18.5319
11
103.6697
21
20.625
0
LINE
8
CUT
10
103.6697
20
21.375
11
100.0444
21
23.4681
0
POLYLINE
8
CUT
66
1
70
0
0
VERTEX
8
CUT
10
100.8075
20
22.1037
0
VERTEX
8
CUT
10
100.1948
20
22.4574
0
VERTEX
8
CUT
10
100.1948
20
21.75
0
SEQEND
0
POLYLINE
8
CUT
66
1
70
0
0
VERTEX
8
CUT
10
100.1948
20
20.25
0
VERTEX
8
CUT
10
100.1948
20
19.5426
0
VERTEX
8
CUT
10
100.8075
20
19.8963
0
SEQEND
0
POLYLINE
8
CUT
66
1
70
0
0
VERTEX
8
CUT
10
102.1065
20
20.6463
0
VERTEX
8
CUT
10
102.7192
20
21
0
VERTEX
8
CUT
10
102.1065
20
21.3537
0
SEQEND
0
LINE
8
CUT
10
108.3192
20
18.8644
11
108.3192
21
9.1356
0
LINE
8
CUT
10
107.6697
20
8.7606
11
99.2444
21
13.625
0
LINE
8
CUT
10
99.2444
20
14.375
11
107.6697
21
19.2394
0
POLYLINE
8
CUT
66
1
70
0
0
VERTEX
8
CUT
10
104.5065
20
16.4894
0
VERTEX
8
CUT
10
107.5192
20
18.2287
0
VERTEX
8
CUT
10
107.5192
20
14.75
0
SEQEND
0
POLYLINE
8
CUT
66
1
70
0
0
VERTEX
8
CUT
10
107.5192
20
13.25
0
VERTEX
8
CUT
10
107.5192
20
9.7713
0
VERTEX
8
CUT
10
104.5065
20
11.5106
0
SEQEND
0
POLYLINE
8
CUT
66
1
70
0
0
VERTEX
8
CUT
10
103.2075
20
12.2606
0
VERTEX
8
CUT
10
100.1948
20
14
0
VERTEX
8
CUT
10
103.2075
20
15.7394
0
SEQEND
0
LINE
8
CUT
10
106.7192
20
16.0931
11
106.7192
21
11.9069
0
LINE
8
CUT
10
106.0697
20
11.5319
11
102.4444
21
13.625
0
LINE
8
CUT
10
102.4444
20
14.375
11
106.0697
21
16.4681
0
POLYLINE
8
CUT
66
1
70
0
0
VERTEX
8
CUT
10
105.3065
20
15.1037
0
VERTEX
8
CUT
10
105.9192
20
15.4574
0
VERTEX
8
CUT
10
105.9192
20
14.75
0
SEQEND
0
POLYLINE
8
CUT
66
1
70
0
0
VERTEX
8
CUT
10
105.9192
20
13.25
0
VERTEX
8
CUT
10
105.9192
20
12.5426
0
VERTEX
8
CUT
10
105.3065
20
12.8963
0
SEQEND
0
POLYLINE
8
CUT
66
1
70
0
0
VERTEX
8
CUT
10
104.0075
20
13.6463
0
VERTEX
8
CUT
10
103.3948
20
14
0
VERTEX
8
CUT
10
104.0075
20
14.3537
0
SEQEND
0
LINE
8
CUT
10
97.7948
20
11.8644
11
97.7948
21
2.1356
0
LINE
8
CUT
10
98.4444
20
1.7606
11
106.8697
21
6.625
0
LINE
8
CUT
10
106.8697
20
7.375
11
98.4444
21
12.2394
0
POLYLINE
8
CUT
66
1
70
0
0
VERTEX
8
CUT
10
101.6075
20
9.4894
0
VERTEX
8
CUT
10
98.5948
20
11.2287
0
VERTEX
8
CUT
10
98.5948
20
7.75
0
SEQEND
0
POLYLINE
8
CUT
66
1
70
0
0
VERTEX
8
CUT
10
98.5948
20
6.25
0
VERTEX
8
CUT
10
98.5948
20
2.7713
0
VERTEX
8
CUT
10
101.6075
20
4.5106
0
SEQEND
0
POLYLINE
8
CUT
66
1
70
0
0
VERTEX
8
CUT
10
102.9065
20
5.2606
0
VERTEX
8
CUT
10
105.9192
20
7
0
VERTEX
8
CUT
10
102.9065
20
8.7394
0
SEQEND
0
LINE
8
CUT
10
99.3948
20
9.0931
11
99.3948
21
4.9069
0
LINE
8
CUT
10
100.0444
20
4.5319
11
103.6697
21
6.625
0
LINE
8
CUT
10
103.6697
20
7.375
11
100.0444
21
9.4681
0
POLYLINE
8
CUT
66
1
70
0
0
VERTEX
8
CUT
10
100.8075
20
8.1037
0
VERTEX
8
CUT
10
100.1948
20
8.4574
0
VERTEX
8
CUT
10
100.1948
20
7.75
0
SEQEND
0
POLYLINE
8
CUT
66
1
70
0
0
VERTEX
8
CUT
10
100.1948
20
6.25
0
VERTEX
8
CUT
10
100.1948
20
5.5426
0
VERTEX
8
CUT
10
100.8075
20
5.8963
0
SEQEND
0
POLYLINE
8
CUT
66
1
70
0
0
VERTEX
8
CUT
10
102.1065
20
6.6463
0
VERTEX
8
CUT
10
102.7192
20
7
0
VERTEX
8
CUT
10
102.1065
20
7.3537
0
SEQEND
0
LINE
8
CUT
10
108.3192
20
4.8644
11
108.3192
21
0
0
LINE
8
CUT
10
99.2444
20
0.375
11
107.6697
21
5.2394
0
POLYLINE
8
CUT
66
1
70
0
0
VERTEX
8
CUT
10
104.5065
20
2.4894
0
VERTEX
8
CUT
10
107.5192
20
4.2287
0
VERTEX
8
CUT
10
107.5192
20
0.75
0
SEQEND
0
POLYLINE
8
CUT
66
1
70
0
0
VERTEX
8
CUT
10
100.1948
20
0
0
VERTEX
8
CUT
10
100.1948
20
0
0
VERTEX
8
CUT
10
103.2075
20
1.7394
0
SEQEND
0
LINE
8
CUT
10
106.7192
20
2.0931
11
106.7192
21
0
0
LINE
8
CUT
10
102.4444
20
0.375
11
106.0697
21
2.4681
0
POLYLINE
8
CUT
66
1
70
0
0
VERTEX
8
CUT
10
105.3065
20
1.1037
0
VERTEX
8
CUT
10
105.9192
20
1.4574
0
VERTEX
8
CUT
10
105.9192
20
0.75
0
SEQEND
0
POLYLINE
8
CUT
66
1
70
0
0
VERTEX
8
CUT
10
103.3948
20
0
0
VERTEX
8
CUT
10
103.3948
20
0
0
VERTEX
8
CUT
10
104.0075
20
0.3537
0
SEQEND
0
LINE
8
CUT
10
109.9192
20
70
11
109.9192
21
65.1356
0
LINE
8
CUT
10
110.5687
20
64.7606
11
118.994
21
69.625
0
POLYLINE
8
CUT
66
1
70
0
0
VERTEX
8
CUT
10
110.7192
20
69.25
0
VERTEX
8
CUT
10
110.7192
20
65.7713
0
VERTEX
8
CUT
10
113.7319
20
67.5106
0
SEQEND
0
POLYLINE
8
CUT
66
1
70
0
0
VERTEX
8
CUT
10
115.0309
20
68.2606
0
VERTEX
8
CUT
10
118.0436
20
70
0
VERTEX
8
CUT
10
118.0436
20
70
0
SEQEND
0
LINE
8
CUT
10
111.5192
20
70
11
111.5192
21
67.9069
0
LINE
8
CUT
10
112.1687
20
67.5319
11
115.794
21
69.625
0
POLYLINE
8
CUT
66
1
70
0
0
VERTEX
8
CUT
10
112.3192
20
69.25
0
VERTEX
8
CUT
10
112.3192
20
68.5426
0
VERTEX
8
CUT
10
112.9319
20
68.8963
0
SEQEND
0
POLYLINE
8
CUT
66
1
70
0
0
VERTEX
8
CUT
10
114.2309
20
69.6463
0
VERTEX
8
CUT
10
114.8436
20
70
0
VERTEX
8
CUT
10
114.8436
20
70
0
SEQEND
0
LINE
8
CUT
10
119.794
20
57.7606
11
111.3687
21
62.625
0
LINE
8
CUT
10
111.3687
20
63.375
11
119.794
21
68.2394
0
POLYLINE
8
CUT
66
1
70
0
0
VERTEX
8
CUT
10
116.6309
20
65.4894
0
VERTEX
8
CUT
10
119.6436
20
67.2287
0
VERTEX
8
CUT
10
119.6436
20
63.75
0
SEQEND
0
POLYLINE
8
CUT
66
1
70
0
0
VERTEX
8
CUT
10
119.6436
20
62.25
0
VERTEX
8
CUT
10
119.6436
20
58.7713
0
VERTEX
8
CUT
10
116.6309
20
60.5106
0
SEQEND
0
POLYLINE
8
CUT
66
1
70
0
0
VERTEX
8
CUT
10
115.3319
20
61.2606
0
VERTEX
8
CUT
10
112.3192
20
63
0
VERTEX
8
CUT
10
115.3319
20
64.7394
0
SEQEND
0
LINE
8
CUT
10
118.8436
20
65.0931
11
118.8436
21
60.9069
0
LINE
8
CUT
10
118.194
20
60.5319
11
114.5687
21
62.625
0
LINE
8
CUT
10
114.5687
20
63.375
11
118.194
21
65.4681
0
POLYLINE
8
CUT
66
1
70
0
0
VERTEX
8
CUT
10
117.4309
20
64.1037
0
VERTEX
8
CUT
10
118.0436
20
64.4574
0
VERTEX
8
CUT
10
118.0436
20
63.75
0
SEQEND
0
POLYLINE
8
CUT
66
1
70
0
0
VERTEX
8
CUT
10
118.0436
20
62.25
0
VERTEX
8
CUT
10
118.0436
20
61.5426
0
VERTEX
8
CUT
10
117.4309
20
61.8963
0
SEQEND
0
POLYLINE
8
CUT
66
1
70
0
0
VERTEX
8
CUT
10
116.1319
20
62.6463
0
VERTEX
8
CUT
10
115.5192
20
63
0
VERTEX
8
CUT
10
116.1319
20
63.3537
0
SEQEND
0
LINE
8
CUT
10
109.9192
20
60.8644
11
109.9192
21
51.1356
0
LINE
8
CUT
10
110.5687
20
50.7606
11
118.994
21
55.625
0
LINE
8
CUT
10
118.994
20
56.375
11
110.5687
21
61.2394
0
POLYLINE
8
CUT
66
1
70
0
0
VERTEX
8
CUT
10
113.7319
20
58.4894
0
VERTEX
8
CUT
10
110.7192
20
60.2287
0
VERTEX
8
CUT
10
110.7192
20
56.75
0
SEQEND
0
POLYLINE
8
CUT
66
1
70
0
0
VERTEX
8
CUT
10
110.7192
20
55.25
0
VERTEX
8
CUT
10
110.7192
20
51.7713
0
VERTEX
8
CUT
10
113.7319
20
53.5106
0
SEQEND
0
POLYLINE
8
CUT
66
1
70
0
0
VERTEX
8
CUT
10
115.0309
20
54.2606
0
VERTEX
8
CUT
10
118.0436
20
56
0
VERTEX
8
CUT
10
115.0309
20
57.7394
0
SEQEND
0
LINE
8
CUT
10
111.5192
20
58.0931
11
111.5192
21
53.9069
0
LINE
8
CUT
10
112.1687
20
53.5319
11
115.794
21
55.625
0
LINE
8
CUT
10
115.794
20
56.375
11
112.1687
21
58.4681
0
POLYLINE
8
CUT
66
1
70
0
0
VERTEX
8
CUT
10
112.9319
20
57.1037
0
VERTEX
8
CUT
10
112.3192
20
57.4574
0
VERTEX
8
CUT
10
112.3192
20
56.75
0
SEQEND
0
POLYLINE
8
CUT
66
1
70
0
0
VERTEX
8
CUT
10
112.3192
20
55.25
0
VERTEX
8
CUT
10
112.3192
20
54.5426
0
VERTEX
8
CUT
10
112.9319
20
54.8963
0
SEQEND
0
POLYLINE
8
CUT
66
1
70
0
0
VERTEX
8
CUT
10
114.2309
20
55.6463
0
VERTEX
8
CUT
10
114.8436
20
56
0
VERTEX
8
CUT
10
114.2309
20
56.3537
0
SEQEND
0
LINE
8
CUT
10
119.794
20
43.7606
11
111.3687
21
48.625
0
LINE
8
CUT
10
111.3687
20
49.375
11
119.794
21
54.2394
0
POLYLINE
8
CUT
66
1
70
0
0
VERTEX
8
CUT
10
116.6309
20
51.4894
0
VERTEX
8
CUT
10
119.6436
20
53.2287
0
VERTEX
8
CUT
10
119.6436
20
49.75
0
SEQEND
0
POLYLINE
8
CUT
66
1
70
0
0
VERTEX
8
CUT
10
119.6436
20
48.25
0
VERTEX
8
CUT
10
119.6436
20
44.7713
0
VERTEX
8
CUT
10
116.6309
20
46.5106
0
SEQEND
0
POLYLINE
8
CUT
66
1
70
0
0
VERTEX
8
CUT
10
115.3319
20
47.2606
0
VERTEX
8
CUT
10
112.3192
20
49
0
VERTEX
8
CUT
10
115.3319
20
50.7394
0
SEQEND
0
LINE
8
CUT
10
118.8436
20
51.0931
11
118.8436
21
46.9069
0
LINE
8
CUT
10
118.194
20
46.5319
11
114.5687
21
48.625
0
LINE
8
CUT
10
114.5687
20
49.375
11
118.194
21
51.4681
0
POLYLINE
8
CUT
66
1
70
0
0
VERTEX
8
CUT
10
117.4309
20
50.1037
0
VERTEX
8
CUT
10
118.0436
20
50.4574
0
VERTEX
8
CUT
10
118.0436
20
49.75
0
SEQEND
0
POLYLINE
8
CUT
66
1
70
0
0
VERTEX
8
CUT
10
118.0436
20
48.25
0
VERTEX
8
CUT
10
118.0436
20
47.5426
0
VERTEX
8
CUT
10
117.4309
20
47.8963
0
SEQEND
0
POLYLINE
8
CUT
66
1
70
0
0
VERTEX
8
CUT
10
116.1319
20
48.6463
0
VERTEX
8
CUT
10
115.5192
20
49
0
VERTEX
8
CUT
10
116.1319
20
49.3537
0
SEQEND
0
LINE
8
CUT
10
109.9192
20
46.8644
11
109.9192
21
37.1356
0
LINE
8
CUT
10
110.5687
20
36.7606
11
118.994
21
41.625
0
LINE
8
CUT
10
118.994
20
42.375
11
110.5687
21
47.2394
0
POLYLINE
8
CUT
66
1
70
0
0
VERTEX
8
CUT
10
113.7319
20
44.4894
0
VERTEX
8
CUT
10
110.7192
20
46.2287
0
VERTEX
8
CUT
10
110.7192
20
42.75
0
SEQEND
0
POLYLINE
8
CUT
66
1
70
0
0
VERTEX
8
CUT
10
110.7192
20
41.25
0
VERTEX
8
CUT
10
110.7192
20
37.7713
0
VERTEX
8
CUT
10
113.7319
20
39.5106
0
SEQEND
0
POLYLINE
8
CUT
66
1
70
0
0
VERTEX
8
CUT
10
115.0309
20
40.2606
0
VERTEX
8
CUT
10
118.0436
20
42
0
VERTEX
8
CUT
10
115.0309
20
43.7394
0
SEQEND
0
LINE
8
CUT
10
111.5192
20
44.0931
11
111.5192
21
39.9069
0
LINE
8
CUT
10
112.1687
20
39.5319
11
115.794
21
41.625
0
LINE
8
CUT
10
115.794
20
42.375
11
112.1687
21
44.4681
0
POLYLINE
8
CUT
66
1
70
0
0
VERTEX
8
CUT
10
112.9319
20
43.1037
0
VERTEX
8
CUT
10
112.3192
20
43.4574
0
VERTEX
8
CUT
10
112.3192
20
42.75
0
SEQEND
0
POLYLINE
8
CUT
66
1
70
0
0
VERTEX
8
CUT
10
112.3192
20
41.25
0
VERTEX
8
CUT
10
112.3192
20
40.5426
0
VERTEX
8
CUT
10
112.9319
20
40.8963
0
SEQEND
0
POLYLINE
8
CUT
66
1
70
0
0
VERTEX
8
CUT
10
114.2309
20
41.6463
0
VERTEX
8
CUT
10
114.8436
20
42
0
VERTEX
8
CUT
10
114.2309
20
42.3537
0
SEQEND
0
LINE
8
CUT
10
119.794
20
29.7606
11
111.3687
21
34.625
0
LINE
8
CUT
10
111.3687
20
35.375
11
119.794
21
40.2394
0
POLYLINE
8
CUT
66
1
70
0
0
VERTEX
8
CUT
10
116.6309
20
37.4894
0
VERTEX
8
CUT
10
119.6436
20
39.2287
0
VERTEX
8
CUT
10
119.6436
20
35.75
0
SEQEND
0
POLYLINE
8
CUT
66
1
70
0
0
VERTEX
8
CUT
10
119.6436
20
34.25
0
VERTEX
8
CUT
10
119.6436
20
30.7713
0
VERTEX
8
CUT
10
116.6309
20
32.5106
0
SEQEND
0
POLYLINE
8
CUT
66
1
70
0
0
VERTEX
8
CUT
10
115.3319
20
33.2606
0
VERTEX
8
CUT
10
112.3192
20
35
0
VERTEX
8
CUT
10
115.3319
20
36.7394
0
SEQEND
0
LINE
8
CUT
10
118.8436
20
37.0931
11
118.8436
21
32.9069
0
LINE
8
CUT
10
118.194
20
32.5319
11
114.5687
21
34.625
0
LINE
8
CUT
10
114.5687
20
35.375
11
118.194
21
37.4681
0
POLYLINE
8
CUT
66
1
70
0
0
VERTEX
8
CUT
10
117.4309
20
36.1037
0
VERTEX
8
CUT
10
118.0436
20
36.4574
0
VERTEX
8
CUT
10
118.0436
20
35.75
0
SEQEND
0
POLYLINE
8
CUT
66
1
70
0
0
VERTEX
8
CUT
10
118.0436
20
34.25
0
VERTEX
8
CUT
10
118.0436
20
33.5426
0
VERTEX
8
CUT
10
117.4309
20
33.8963
0
SEQEND
0
POLYLINE
8
CUT
66
1
70
0
0
VERTEX
8
CUT
10
116.1319
20
34.6463
0
VERTEX
8
CUT
10
115.5192
20
35
0
VERTEX
8
CUT
10
116.1319
20
35.3537
0
SEQEND
0
LINE
8
CUT
10
109.9192
20
32.8644
11
109.9192
21
23.1356
0
LINE
8
CUT
10
110.5687
20
22.7606
11
118.994
21
27.625
0
LINE
8
CUT
10
118.994
20
28.375
11
110.5687
21
33.2394
0
POLYLINE
8
CUT
66
1
70
0
0
VERTEX
8
CUT
10
113.7319
20
30.4894
0
VERTEX
8
CUT
10
110.7192
20
32.2287
0
VERTEX
8
CUT
10
110.7192
20
28.75
0
SEQEND
0
POLYLINE
8
CUT
66
1
70
0
0
VERTEX
8
CUT
10
110.7192
20
27.25
0
VERTEX
8
CUT
10
110.7192
20
23.7713
0
VERTEX
8
CUT
10
113.7319
20
25.5106
0
SEQEND
0
POLYLINE
8
CUT
66
1
70
0
0
VERTEX
8
CUT
10
115.0309
20
26.2606
0
VERTEX
8
CUT
10
118.0436
20
28
0
VERTEX
8
CUT
10
115.0309
20
29.7394
0
SEQEND
0
LINE
8
CUT
10
111.5192
20
30.0931
11
111.5192
21
25.9069
0
LINE
8
CUT
10
112.1687
20
25.5319
11
115.794
21
27.625
0
LINE
8
CUT
10
115.794
20
28.375
11
112.1687
21
30.4681
0
POLYLINE
8
CUT
66
1
70
0
0
VERTEX
8
CUT
10
112.9319
20
29.1037
0
VERTEX
8
CUT
10
112.3192
20
29.4574
0
VERTEX
8
CUT
10
112.3192
20
28.75
0
SEQEND
0
POLYLINE
8
CUT
66
1
70
0
0
VERTEX
8
CUT
10
112.3192
20
27.25
0
VERTEX
8
CUT
10
112.3192
20
26.5426
0
VERTEX
8
CUT
10
112.9319
20
26.8963
0
SEQEND
0
POLYLINE
8
CUT
66
1
70
0
0
VERTEX
8
CUT
10
114.2309
20
27.6463
0
VERTEX
8
CUT
10
114.8436
20
28
0
VERTEX
8
CUT
10
114.2309
20
28.3537
0
SEQEND
0
LINE
8
CUT
10
119.794
20
15.7606
11
111.3687
21
20.625
0
LINE
8
CUT
10
111.3687
20
21.375
11
119.794
21
26.2394
0
POLYLINE
8
CUT
66
1
70
0
0
VERTEX
8
CUT
10
116.6309
20
23.4894
0
VERTEX
8
CUT
10
119.6436
20
25.2287
0
VERTEX
8
CUT
10
119.6436
20
21.75
0
SEQEND
0
POLYLINE
8
CUT
66
1
70
0
0
VERTEX
8
CUT
10
119.6436
20
20.25
0
VERTEX
8
CUT
10
119.6436
20
16.7713
0
VERTEX
8
CUT
10
116.6309
20
18.5106
0
SEQEND
0
POLYLINE
8
CUT
66
1
70
0
0
VERTEX
8
CUT
10
115.3319
20
19.2606
0
VERTEX
8
CUT
10
112.3192
20
21
0
VERTEX
8
CUT
10
115.3319
20
22.7394
0
SEQEND
0
LINE
8
CUT
10
118.8436
20
23.0931
11
118.8436
21
18.9069
0
LINE
8
CUT
10
118.194
20
18.5319
11
114.5687
21
20.625
0
LINE
8
CUT
10
114.5687
20
21.375
11
118.194
21
23.4681
0
POLYLINE
8
CUT
66
1
70
0
0
VERTEX
8
CUT
10
117.4309
20
22.1037
0
VERTEX
8
CUT
10
118.0436
20
22.4574
0
VERTEX
8
CUT
10
118.0436
20
21.75
0
SEQEND
0
POLYLINE
8
CUT
66
1
70
0
0
VERTEX
8
CUT
10
118.0436
20
20.25
0
VERTEX
8
CUT
10
118.0436
20
19.5426
0
VERTEX
8
CUT
10
117.4309
20
19.8963
0
SEQEND
0
POLYLINE
8
CUT
66
1
70
0
0
VERTEX
8
CUT
10
116.1319
20
20.6463
0
VERTEX
8
CUT
10
115.5192
20
21
0
VERTEX
8
CUT
10
116.1319
20
21.3537
0
SEQEND
0
LINE
8
CUT
10
109.9192
20
18.8644
11
109.9192
21
9.1356
0
LINE
8
CUT
10
110.5687
20
8.7606
11
118.994
21
13.625
0
LINE
8
CUT
10
118.994
20
14.375
11
110.5687
21
19.2394
0
POLYLINE
8
CUT
66
1
70
0
0
VERTEX
8
CUT
10
113.7319
20
16.4894
0
VERTEX
8
CUT
10
110.7192
20
18.2287
0
VERTEX
8
CUT
10
110.7192
20
14.75
0
SEQEND
0
POLYLINE
8
CUT
66
1
70
0
0
VERTEX
8
CUT
10
110.7192
20
13.25
0
VERTEX
8
CUT
10
110.7192
20
9.7713
0
VERTEX
8
CUT
10
113.7319
20
11.5106
0
SEQEND
0
POLYLINE
8
CUT
66
1
70
0
0
VERTEX
8
CUT
10
115.0309
20
12.2606
0
VERTEX
8
CUT
10
118.0436
20
14
0
VERTEX
8
CUT
10
115.0309
20
15.7394
0
SEQEND
0
LINE
8
CUT
10
111.5192
20
16.0931
11
111.5192
21
11.9069
0
LINE
8
CUT
10
112.1687
20
11.5319
11
115.794
21
13.625
0
LINE
8
CUT
10
115.794
20
14.375
11
112.1687
21
16.4681
0
POLYLINE
8
CUT
66
1
70
0
0
VERTEX
8
CUT
10
112.9319
20
15.1037
0
VERTEX
8
CUT
10
112.3192
20
15.4574
0
VERTEX
8
CUT
10
112.3192
20
14.75
0
SEQEND
0
POLYLINE
8
CUT
66
1
70
0
0
VERTEX
8
CUT
10
112.3192
20
13.25
0
VERTEX
8
CUT
10
112.3192
20
12.5426
0
VERTEX
8
CUT
10
112.9319
20
12.8963
0
SEQEND
0
POLYLINE
8
CUT
66
1
70
0
0
VERTEX
8
CUT
10
114.2309
20
13.6463
0
VERTEX
8
CUT
10
114.8436
20
14
0
VERTEX
8
CUT
10
114.2309
20
14.3537
0
SEQEND
0
LINE
8
CUT
10
119.794
20
1.7606
11
111.3687
21
6.625
0
LINE
8
CUT
10
111.3687
20
7.375
11
119.794
21
12.2394
0
POLYLINE
8
CUT
66
1
70
0
0
VERTEX
8
CUT
10
116.6309
20
9.4894
0
VERTEX
8
CUT
10
119.6436
20
11.2287
0
VERTEX
8
CUT
10
119.6436
20
7.75
0
SEQEND
0
POLYLINE
8
CUT
66
1
70
0
0
VERTEX
8
CUT
10
119.6436
20
6.25
0
VERTEX
8
CUT
10
119.6436
20
2.7713
0
VERTEX
8
CUT
10
116.6309
20
4.5106
0
SEQEND
0
POLYLINE
8
CUT
66
1
70
0
0
VERTEX
8
CUT
10
115.3319
20
5.2606
0
VERTEX
8
CUT
10
112.3192
20
7
0
VERTEX
8
CUT
10
115.3319
20
8.7394
0
SEQEND
0
LINE
8
CUT
10
118.8436
20
9.0931
11
118.8436
21
4.9069
0
LINE
8
CUT
10
118.194
20
4.5319
11
114.5687
21
6.625
0
LINE
8
CUT
10
114.5687
20
7.375
11
118.194
21
9.4681
0
POLYLINE
8
CUT
66
1
70
0
0
VERTEX
8
CUT
10
117.4309
20
8.1037
0
VERTEX
8
CUT
10
118.0436
20
8.4574
0
VERTEX
8
CUT
10
118.0436
20
7.75
0
SEQEND
0
POLYLINE
8
CUT
66
1
70
0
0
VERTEX
8
CUT
10
118.0436
20
6.25
0
VERTEX
8
CUT
10
118.0436
20
5.5426
0
VERTEX
8
CUT
10
117.4309
20
5.8963
0
SEQEND
0
POLYLINE
8
CUT
66
1
70
0
0
VERTEX
8
CUT
10
116.1319
20
6.6463
0
VERTEX
8
CUT
10
115.5192
20
7
0
VERTEX
8
CUT
10
116.1319
20
7.3537
0
SEQEND
0
LINE
8
CUT
10
109.9192
20
4.8644
11
109.9192
21
0
0
LINE
8
CUT
10
118.994
20
0.375
11
110.5687
21
5.2394
0
POLYLINE
8
CUT
66
1
70
0
0
VERTEX
8
CUT
10
113.7319
20
2.4894
0
VERTEX
8
CUT
10
110.7192
20
4.2287
0
VERTEX
8
CUT
10
110.7192
20
0.75
0
SEQEND
0
POLYLINE
8
CUT
66
1
70
0
0
VERTEX
8
CUT
10
118.0436
20
0
0
VERTEX
8
CUT
10
118.0436
20
0
0
VERTEX
8
CUT
10
115.0309
20
1.7394
0
SEQEND
0
LINE
8
CUT
10
111.5192
20
2.0931
11
111.5192
21
0
0
LINE
8
CUT
10
115.794
20
0.375
11
112.1687
21
2.4681
0
POLYLINE
8
CUT
66
1
70
0
0
VERTEX
8
CUT
10
112.9319
20
1.1037
0
VERTEX
8
CUT
10
112.3192
20
1.4574
0
VERTEX
8
CUT
10
112.3192
20
0.75
0
SEQEND
0
POLYLINE
8
CUT
66
1
70
0
0
VERTEX
8
CUT
10
114.8436
20
0
0
VERTEX
8
CUT
10
114.8436
20
0
0
VERTEX
8
CUT
10
114.2309
20
0.3537
0
SEQEND
0
POLYLINE
8
CUT
66
1
70
0
0
VERTEX
8
CUT
10
0
20
70
0
VERTEX
8
CUT
10
120
20
70
0
VERTEX
8
CUT
10
120
20
0
0
VERTEX
8
CUT
10
0
20
0
0
VERTEX
8
CUT
10
0
20
70
0
SEQEND
0
ENDSEC
0
EOF
