0
SECTION
2
HEADER
9
$ACADVER
1
AC1009
9
$INSUNITS
70
4
0
ENDSEC
0
SECTION
2
TABLES
0
TABLE
2
LAYER
70
1
0
LAYER
2
CUT
70
0
62
1
6
CONTINUOUS
0
ENDTAB
0
ENDSEC
0
SECTION
2
ENTITIES
0
POLYLINE
8
CUT
66
1
70
0
0
VERTEX
8
CUT
10
2
20
70
0
VERTEX
8
CUT
10
3
20
55
0
VERTEX
8
CUT
10
2
20
40
0
VERTEX
8
CUT
10
1
20
55
0
VERTEX
8
CUT
10
2
20
70
0
SEQEND
0
POLYLINE
8
CUT
66
1
70
0
0
VERTEX
8
CUT
10
2
20
38.5
0
VERTEX
8
CUT
10
3
20
23.5
0
VERTEX
8
CUT
10
2
20
8.5
0
VERTEX
8
CUT
10
1
20
23.5
0
VERTEX
8
CUT
10
2
20
38.5
0
SEQEND
0
LINE
8
CUT
10
2
20
7
11
2.4667
21
0
0
LINE
8
CUT
10
1.5333
20
0
11
2
21
7
0
POLYLINE
8
CUT
66
1
70
0
0
VERTEX
8
CUT
10
6.95
20
70
0
VERTEX
8
CUT
10
6
20
55.75
0
VERTEX
8
CUT
10
5.05
20
70
0
SEQEND
0
POLYLINE
8
CUT
66
1
70
0
0
VERTEX
8
CUT
10
6
20
54.25
0
VERTEX
8
CUT
10
7
20
39.25
0
VERTEX
8
CUT
10
6
20
24.25
0
VERTEX
8
CUT
10
5
20
39.25
0
VERTEX
8
CUT
10
6
20
54.25
0
SEQEND
0
POLYLINE
8
CUT
66
1
70
0
0
VERTEX
8
CUT
10
6
20
22.75
0
VERTEX
8
CUT
10
7
20
7.75
0
VERTEX
8
CUT
10
6.4833
20
0
0
SEQEND
0
POLYLINE
8
CUT
66
1
70
0
0
VERTEX
8
CUT
10
5.5167
20
0
0
VERTEX
8
CUT
10
5
20
7.75
0
VERTEX
8
CUT
10
6
20
22.75
0
SEQEND
0
POLYLINE
8
CUT
66
1
70
0
0
VERTEX
8
CUT
10
10
20
70
0
VERTEX
8
CUT
10
11
20
55
0
VERTEX
8
CUT
10
10
20
40
0
VERTEX
8
CUT
10
9
20
55
0
VERTEX
8
CUT
10
10
20
70
0
SEQEND
0
POLYLINE
8
CUT
66
1
70
0
0
VERTEX
8
CUT
10
10
20
38.5
0
VERTEX
8
CUT
10
11
20
23.5
0
VERTEX
8
CUT
10
10
20
8.5
0
VERTEX
8
CUT
10
9
20
23.5
0
VERTEX
8
CUT
10
10
20
38.5
0
SEQEND
0
LINE
8
CUT
10
10
20
7
11
10.4667
21
0
0
LINE
8
CUT
10
9.5333
20
0
11
10
21
7
0
POLYLINE
8
CUT
66
1
70
0
0
VERTEX
8
CUT
10
14.95
20
70
0
VERTEX
8
CUT
10
14
20
55.75
0
VERTEX
8
CUT
10
13.05
20
70
0
SEQEND
0
POLYLINE
8
CUT
66
1
70
0
0
VERTEX
8
CUT
10
14
20
54.25
0
VERTEX
8
CUT
10
15
20
39.25
0
VERTEX
8
CUT
10
14
20
24.25
0
VERTEX
8
CUT
10
13
20
39.25
0
VERTEX
8
CUT
10
14
20
54.25
0
SEQEND
0
POLYLINE
8
CUT
66
1
70
0
0
VERTEX
8
CUT
10
14
20
22.75
0
VERTEX
8
CUT
10
15
20
7.75
0
VERTEX
8
CUT
10
14.4833
20
0
0
SEQEND
0
POLYLINE
8
CUT
66
1
70
0
0
VERTEX
8
CUT
10
13.5167
20
0
0
VERTEX
8
CUT
10
13
20
7.75
0
VERTEX
8
CUT
10
14
20
22.75
0
SEQEND
0
POLYLINE
8
CUT
66
1
70
0
0
VERTEX
8
CUT
10
18
20
70
0
VERTEX
8
CUT
10
19
20
55
0
VERTEX
8
CUT
10
18
20
40
0
VERTEX
8
CUT
10
17
20
55
0
VERTEX
8
CUT
10
18
20
70
0
SEQEND
0
POLYLINE
8
CUT
66
1
70
0
0
VERTEX
8
CUT
10
18
20
38.5
0
VERTEX
8
CUT
10
19
20
23.5
0
VERTEX
8
CUT
10
18
20
8.5
0
VERTEX
8
CUT
10
17
20
23.5
0
VERTEX
8
CUT
10
18
20
38.5
0
SEQEND
0
LINE
8
CUT
10
18
20
7
11
18.4667
21
0
0
LINE
8
CUT
10
17.5333
20
0
11
18
21
7
0
POLYLINE
8
CUT
66
1
70
0
0
VERTEX
8
CUT
10
22.95
20
70
0
VERTEX
8
CUT
10
22
20
55.75
0
VERTEX
8
CUT
10
21.05
20
70
0
SEQEND
0
POLYLINE
8
CUT
66
1
70
0
0
VERTEX
8
CUT
10
22
20
54.25
0
VERTEX
8
CUT
10
23
20
39.25
0
VERTEX
8
CUT
10
22
20
24.25
0
VERTEX
8
CUT
10
21
20
39.25
0
VERTEX
8
CUT
10
22
20
54.25
0
SEQEND
0
POLYLINE
8
CUT
66
1
70
0
0
VERTEX
8
CUT
10
22
20
22.75
0
VERTEX
8
CUT
10
23
20
7.75
0
VERTEX
8
CUT
10
22.4833
20
0
0
SEQEND
0
POLYLINE
8
CUT
66
1
70
0
0
VERTEX
8
CUT
10
21.5167
20
0
0
VERTEX
8
CUT
10
21
20
7.75
0
VERTEX
8
CUT
10
22
20
22.75
0
SEQEND
0
POLYLINE
8
CUT
66
1
70
0
0
VERTEX
8
CUT
10
26
20
70
0
VERTEX
8
CUT
10
27
20
55
0
VERTEX
8
CUT
10
26
20
40
0
VERTEX
8
CUT
10
25
20
55
0
VERTEX
8
CUT
10
26
20
70
0
SEQEND
0
POLYLINE
8
CUT
66
1
70
0
0
VERTEX
8
CUT
10
26
20
38.5
0
VERTEX
8
CUT
10
27
20
23.5
0
VERTEX
8
CUT
10
26
20
8.5
0
VERTEX
8
CUT
10
25
20
23.5
0
VERTEX
8
CUT
10
26
20
38.5
0
SEQEND
0
LINE
8
CUT
10
26
20
7
11
26.4667
21
0
0
LINE
8
CUT
10
25.5333
20
0
11
26
21
7
0
POLYLINE
8
CUT
66
1
70
0
0
VERTEX
8
CUT
10
30.95
20
70
0
VERTEX
8
CUT
10
30
20
55.75
0
VERTEX
8
CUT
10
29.05
20
70
0
SEQEND
0
POLYLINE
8
CUT
66
1
70
0
0
VERTEX
8
CUT
10
30
20
54.25
0
VERTEX
8
CUT
10
31
20
39.25
0
VERTEX
8
CUT
10
30
20
24.25
0
VERTEX
8
CUT
10
29
20
39.25
0
VERTEX
8
CUT
10
30
20
54.25
0
SEQEND
0
POLYLINE
8
CUT
66
1
70
0
0
VERTEX
8
CUT
10
30
20
22.75
0
VERTEX
8
CUT
10
31
20
7.75
0
VERTEX
8
CUT
10
30.4833
20
0
0
SEQEND
0
POLYLINE
8
CUT
66
1
70
0
0
VERTEX
8
CUT
10
29.5167
20
0
0
VERTEX
8
CUT
10
29
20
7.75
0
VERTEX
8
CUT
10
30
20
22.75
0
SEQEND
0
POLYLINE
8
CUT
66
1
70
0
0
VERTEX
8
CUT
10
34
20
70
0
VERTEX
8
CUT
10
35
20
55
0
VERTEX
8
CUT
10
34
20
40
0
VERTEX
8
CUT
10
33
20
55
0
VERTEX
8
CUT
10
34
20
70
0
SEQEND
0
POLYLINE
8
CUT
66
1
70
0
0
VERTEX
8
CUT
10
34
20
38.5
0
VERTEX
8
CUT
10
35
20
23.5
0
VERTEX
8
CUT
10
34
20
8.5
0
VERTEX
8
CUT
10
33
20
23.5
0
VERTEX
8
CUT
10
34
20
38.5
0
SEQEND
0
LINE
8
CUT
10
34
20
7
11
34.4667
21
0
0
LINE
8
CUT
10
33.5333
20
0
11
34
21
7
0
POLYLINE
8
CUT
66
1
70
0
0
VERTEX
8
CUT
10
38.95
20
70
0
VERTEX
8
CUT
10
38
20
55.75
0
VERTEX
8
CUT
10
37.05
20
70
0
SEQEND
0
POLYLINE
8
CUT
66
1
70
0
0
VERTEX
8
CUT
10
38
20
54.25
0
VERTEX
8
CUT
10
39
20
39.25
0
VERTEX
8
CUT
10
38
20
24.25
0
VERTEX
8
CUT
10
37
20
39.25
0
VERTEX
8
CUT
10
38
20
54.25
0
SEQEND
0
POLYLINE
8
CUT
66
1
70
0
0
VERTEX
8
CUT
10
38
20
22.75
0
VERTEX
8
CUT
10
39
20
7.75
0
VERTEX
8
CUT
10
38.4833
20
0
0
SEQEND
0
POLYLINE
8
CUT
66
1
70
0
0
VERTEX
8
CUT
10
37.5167
20
0
0
VERTEX
8
CUT
10
37
20
7.75
0
VERTEX
8
CUT
10
38
20
22.75
0
SEQEND
0
POLYLINE
8
CUT
66
1
70
0
0
VERTEX
8
CUT
10
42
20
70
0
VERTEX
8
CUT
10
43
20
55
0
VERTEX
8
CUT
10
42
20
40
0
VERTEX
8
CUT
10
41
20
55
0
VERTEX
8
CUT
10
42
20
70
0
SEQEND
0
POLYLINE
8
CUT
66
1
70
0
0
VERTEX
8
CUT
10
42
20
38.5
0
VERTEX
8
CUT
10
43
20
23.5
0
VERTEX
8
CUT
10
42
20
8.5
0
VERTEX
8
CUT
10
41
20
23.5
0
VERTEX
8
CUT
10
42
20
38.5
0
SEQEND
0
LINE
8
CUT
10
42
20
7
11
42.4667
21
0
0
LINE
8
CUT
10
41.5333
20
0
11
42
21
7
0
POLYLINE
8
CUT
66
1
70
0
0
VERTEX
8
CUT
10
46.95
20
70
0
VERTEX
8
CUT
10
46
20
55.75
0
VERTEX
8
CUT
10
45.05
20
70
0
SEQEND
0
POLYLINE
8
CUT
66
1
70
0
0
VERTEX
8
CUT
10
46
20
54.25
0
VERTEX
8
CUT
10
47
20
39.25
0
VERTEX
8
CUT
10
46
20
24.25
0
VERTEX
8
CUT
10
45
20
39.25
0
VERTEX
8
CUT
10
46
20
54.25
0
SEQEND
0
POLYLINE
8
CUT
66
1
70
0
0
VERTEX
8
CUT
10
46
20
22.75
0
VERTEX
8
CUT
10
47
20
7.75
0
VERTEX
8
CUT
10
46.4833
20
0
0
SEQEND
0
POLYLINE
8
CUT
66
1
70
0
0
VERTEX
8
CUT
10
45.5167
20
0
0
VERTEX
8
CUT
10
45
20
7.75
0
VERTEX
8
CUT
10
46
20
22.75
0
SEQEND
0
POLYLINE
8
CUT
66
1
70
0
0
VERTEX
8
CUT
10
50
20
70
0
VERTEX
8
CUT
10
51
20
55
0
VERTEX
8
CUT
10
50
20
40
0
VERTEX
8
CUT
10
49
20
55
0
VERTEX
8
CUT
10
50
20
70
0
SEQEND
0
POLYLINE
8
CUT
66
1
70
0
0
VERTEX
8
CUT
10
50
20
38.5
0
VERTEX
8
CUT
10
51
20
23.5
0
VERTEX
8
CUT
10
50
20
8.5
0
VERTEX
8
CUT
10
49
20
23.5
0
VERTEX
8
CUT
10
50
20
38.5
0
SEQEND
0
LINE
8
CUT
10
50
20
7
11
50.4667
21
0
0
LINE
8
CUT
10
49.5333
20
0
11
50
21
7
0
POLYLINE
8
CUT
66
1
70
0
0
VERTEX
8
CUT
10
54.95
20
70
0
VERTEX
8
CUT
10
54
20
55.75
0
VERTEX
8
CUT
10
53.05
20
70
0
SEQEND
0
POLYLINE
8
CUT
66
1
70
0
0
VERTEX
8
CUT
10
54
20
54.25
0
VERTEX
8
CUT
10
55
20
39.25
0
VERTEX
8
CUT
10
54
20
24.25
0
VERTEX
8
CUT
10
53
20
39.25
0
VERTEX
8
CUT
10
54
20
54.25
0
SEQEND
0
POLYLINE
8
CUT
66
1
70
0
0
VERTEX
8
CUT
10
54
20
22.75
0
VERTEX
8
CUT
10
55
20
7.75
0
VERTEX
8
CUT
10
54.4833
20
0
0
SEQEND
0
POLYLINE
8
CUT
66
1
70
0
0
VERTEX
8
CUT
10
53.5167
20
0
0
VERTEX
8
CUT
10
53
20
7.75
0
VERTEX
8
CUT
10
54
20
22.75
0
SEQEND
0
POLYLINE
8
CUT
66
1
70
0
0
VERTEX
8
CUT
10
58
20
70
0
VERTEX
8
CUT
10
59
20
55
0
VERTEX
8
CUT
10
58
20
40
0
VERTEX
8
CUT
10
57
20
55
0
VERTEX
8
CUT
10
58
20
70
0
SEQEND
0
POLYLINE
8
CUT
66
1
70
0
0
VERTEX
8
CUT
10
58
20
38.5
0
VERTEX
8
CUT
10
59
20
23.5
0
VERTEX
8
CUT
10
58
20
8.5
0
VERTEX
8
CUT
10
57
20
23.5
0
VERTEX
8
CUT
10
58
20
38.5
0
SEQEND
0
LINE
8
CUT
10
58
20
7
11
58.4667
21
0
0
LINE
8
CUT
10
57.5333
20
0
11
58
21
7
0
POLYLINE
8
CUT
66
1
70
0
0
VERTEX
8
CUT
10
62.95
20
70
0
VERTEX
8
CUT
10
62
20
55.75
0
VERTEX
8
CUT
10
61.05
20
70
0
SEQEND
0
POLYLINE
8
CUT
66
1
70
0
0
VERTEX
8
CUT
10
62
20
54.25
0
VERTEX
8
CUT
10
63
20
39.25
0
VERTEX
8
CUT
10
62
20
24.25
0
VERTEX
8
CUT
10
61
20
39.25
0
VERTEX
8
CUT
10
62
20
54.25
0
SEQEND
0
POLYLINE
8
CUT
66
1
70
0
0
VERTEX
8
CUT
10
62
20
22.75
0
VERTEX
8
CUT
10
63
20
7.75
0
VERTEX
8
CUT
10
62.4833
20
0
0
SEQEND
0
POLYLINE
8
CUT
66
1
70
0
0
VERTEX
8
CUT
10
61.5167
20
0
0
VERTEX
8
CUT
10
61
20
7.75
0
VERTEX
8
CUT
10
62
20
22.75
0
SEQEND
0
POLYLINE
8
CUT
66
1
70
0
0
VERTEX
8
CUT
10
66
20
70
0
VERTEX
8
CUT
10
67
20
55
0
VERTEX
8
CUT
10
66
20
40
0
VERTEX
8
CUT
10
65
20
55
0
VERTEX
8
CUT
10
66
20
70
0
SEQEND
0
POLYLINE
8
CUT
66
1
70
0
0
VERTEX
8
CUT
10
66
20
38.5
0
VERTEX
8
CUT
10
67
20
23.5
0
VERTEX
8
CUT
10
66
20
8.5
0
VERTEX
8
CUT
10
65
20
23.5
0
VERTEX
8
CUT
10
66
20
38.5
0
SEQEND
0
LINE
8
CUT
10
66
20
7
11
66.4667
21
0
0
LINE
8
CUT
10
65.5333
20
0
11
66
21
7
0
POLYLINE
8
CUT
66
1
70
0
0
VERTEX
8
CUT
10
70.95
20
70
0
VERTEX
8
CUT
10
70
20
55.75
0
VERTEX
8
CUT
10
69.05
20
70
0
SEQEND
0
POLYLINE
8
CUT
66
1
70
0
0
VERTEX
8
CUT
10
70
20
54.25
0
VERTEX
8
CUT
10
71
20
39.25
0
VERTEX
8
CUT
10
70
20
24.25
0
VERTEX
8
CUT
10
69
20
39.25
0
VERTEX
8
CUT
10
70
20
54.25
0
SEQEND
0
POLYLINE
8
CUT
66
1
70
0
0
VERTEX
8
CUT
10
70
20
22.75
0
VERTEX
8
CUT
10
71
20
7.75
0
VERTEX
8
CUT
10
70.4833
20
0
0
SEQEND
0
POLYLINE
8
CUT
66
1
70
0
0
VERTEX
8
CUT
10
69.5167
20
0
0
VERTEX
8
CUT
10
69
20
7.75
0
VERTEX
8
CUT
10
70
20
22.75
0
SEQEND
0
POLYLINE
8
CUT
66
1
70
0
0
VERTEX
8
CUT
10
74
20
70
0
VERTEX
8
CUT
10
75
20
55
0
VERTEX
8
CUT
10
74
20
40
0
VERTEX
8
CUT
10
73
20
55
0
VERTEX
8
CUT
10
74
20
70
0
SEQEND
0
POLYLINE
8
CUT
66
1
70
0
0
VERTEX
8
CUT
10
74
20
38.5
0
VERTEX
8
CUT
10
75
20
23.5
0
VERTEX
8
CUT
10
74
20
8.5
0
VERTEX
8
CUT
10
73
20
23.5
0
VERTEX
8
CUT
10
74
20
38.5
0
SEQEND
0
LINE
8
CUT
10
74
20
7
11
74.4667
21
0
0
LINE
8
CUT
10
73.5333
20
0
11
74
21
7
0
POLYLINE
8
CUT
66
1
70
0
0
VERTEX
8
CUT
10
78.95
20
70
0
VERTEX
8
CUT
10
78
20
55.75
0
VERTEX
8
CUT
10
77.05
20
70
0
SEQEND
0
POLYLINE
8
CUT
66
1
70
0
0
VERTEX
8
CUT
10
78
20
54.25
0
VERTEX
8
CUT
10
79
20
39.25
0
VERTEX
8
CUT
10
78
20
24.25
0
VERTEX
8
CUT
10
77
20
39.25
0
VERTEX
8
CUT
10
78
20
54.25
0
SEQEND
0
POLYLINE
8
CUT
66
1
70
0
0
VERTEX
8
CUT
10
78
20
22.75
0
VERTEX
8
CUT
10
79
20
7.75
0
VERTEX
8
CUT
10
78.4833
20
0
0
SEQEND
0
POLYLINE
8
CUT
66
1
70
0
0
VERTEX
8
CUT
10
77.5167
20
0
0
VERTEX
8
CUT
10
77
20
7.75
0
VERTEX
8
CUT
10
78
20
22.75
0
SEQEND
0
POLYLINE
8
CUT
66
1
70
0
0
VERTEX
8
CUT
10
82
20
70
0
VERTEX
8
CUT
10
83
20
55
0
VERTEX
8
CUT
10
82
20
40
0
VERTEX
8
CUT
10
81
20
55
0
VERTEX
8
CUT
10
82
20
70
0
SEQEND
0
POLYLINE
8
CUT
66
1
70
0
0
VERTEX
8
CUT
10
82
20
38.5
0
VERTEX
8
CUT
10
83
20
23.5
0
VERTEX
8
CUT
10
82
20
8.5
0
VERTEX
8
CUT
10
81
20
23.5
0
VERTEX
8
CUT
10
82
20
38.5
0
SEQEND
0
LINE
8
CUT
10
82
20
7
11
82.4667
21
0
0
LINE
8
CUT
10
81.5333
20
0
11
82
21
7
0
POLYLINE
8
CUT
66
1
70
0
0
VERTEX
8
CUT
10
86.95
20
70
0
VERTEX
8
CUT
10
86
20
55.75
0
VERTEX
8
CUT
10
85.05
20
70
0
SEQEND
0
POLYLINE
8
CUT
66
1
70
0
0
VERTEX
8
CUT
10
86
20
54.25
0
VERTEX
8
CUT
10
87
20
39.25
0
VERTEX
8
CUT
10
86
20
24.25
0
VERTEX
8
CUT
10
85
20
39.25
0
VERTEX
8
CUT
10
86
20
54.25
0
SEQEND
0
POLYLINE
8
CUT
66
1
70
0
0
VERTEX
8
CUT
10
86
20
22.75
0
VERTEX
8
CUT
10
87
20
7.75
0
VERTEX
8
CUT
10
86.4833
20
0
0
SEQEND
0
POLYLINE
8
CUT
66
1
70
0
0
VERTEX
8
CUT
10
85.5167
20
0
0
VERTEX
8
CUT
10
85
20
7.75
0
VERTEX
8
CUT
10
86
20
22.75
0
SEQEND
0
POLYLINE
8
CUT
66
1
70
0
0
VERTEX
8
CUT
10
90
20
70
0
VERTEX
8
CUT
10
91
20
55
0
VERTEX
8
CUT
10
90
20
40
0
VERTEX
8
CUT
10
89
20
55
0
VERTEX
8
CUT
10
90
20
70
0
SEQEND
0
POLYLINE
8
CUT
66
1
70
0
0
VERTEX
8
CUT
10
90
20
38.5
0
VERTEX
8
CUT
10
91
20
23.5
0
VERTEX
8
CUT
10
90
20
8.5
0
VERTEX
8
CUT
10
89
20
23.5
0
VERTEX
8
CUT
10
90
20
38.5
0
SEQEND
0
LINE
8
CUT
10
90
20
7
11
90.4667
21
0
0
LINE
8
CUT
10
89.5333
20
0
11
90
21
7
0
POLYLINE
8
CUT
66
1
70
0
0
VERTEX
8
CUT
10
94.95
20
70
0
VERTEX
8
CUT
10
94
20
55.75
0
VERTEX
8
CUT
10
93.05
20
70
0
SEQEND
0
POLYLINE
8
CUT
66
1
70
0
0
VERTEX
8
CUT
10
94
20
54.25
0
VERTEX
8
CUT
10
95
20
39.25
0
VERTEX
8
CUT
10
94
20
24.25
0
VERTEX
8
CUT
10
93
20
39.25
0
VERTEX
8
CUT
10
94
20
54.25
0
SEQEND
0
POLYLINE
8
CUT
66
1
70
0
0
VERTEX
8
CUT
10
94
20
22.75
0
VERTEX
8
CUT
10
95
20
7.75
0
VERTEX
8
CUT
10
94.4833
20
0
0
SEQEND
0
POLYLINE
8
CUT
66
1
70
0
0
VERTEX
8
CUT
10
93.5167
20
0
0
VERTEX
8
CUT
10
93
20
7.75
0
VERTEX
8
CUT
10
94
20
22.75
0
SEQEND
0
POLYLINE
8
CUT
66
1
70
0
0
VERTEX
8
CUT
10
98
20
70
0
VERTEX
8
CUT
10
99
20
55
0
VERTEX
8
CUT
10
98
20
40
0
VERTEX
8
CUT
10
97
20
55
0
VERTEX
8
CUT
10
98
20
70
0
SEQEND
0
POLYLINE
8
CUT
66
1
70
0
0
VERTEX
8
CUT
10
98
20
38.5
0
VERTEX
8
CUT
10
99
20
23.5
0
VERTEX
8
CUT
10
98
20
8.5
0
VERTEX
8
CUT
10
97
20
23.5
0
VERTEX
8
CUT
10
98
20
38.5
0
SEQEND
0
LINE
8
CUT
10
98
20
7
11
98.4667
21
0
0
LINE
8
CUT
10
97.5333
20
0
11
98
21
7
0
POLYLINE
8
CUT
66
1
70
0
0
VERTEX
8
CUT
10
102.95
20
70
0
VERTEX
8
CUT
10
102
20
55.75
0
VERTEX
8
CUT
10
101.05
20
70
0
SEQEND
0
POLYLINE
8
CUT
66
1
70
0
0
VERTEX
8
CUT
10
102
20
54.25
0
VERTEX
8
CUT
10
103
20
39.25
0
VERTEX
8
CUT
10
102
20
24.25
0
VERTEX
8
CUT
10
101
20
39.25
0
VERTEX
8
CUT
10
102
20
54.25
0
SEQEND
0
POLYLINE
8
CUT
66
1
70
0
0
VERTEX
8
CUT
10
102
20
22.75
0
VERTEX
8
CUT
10
103
20
7.75
0
VERTEX
8
CUT
10
102.4833
20
0
0
SEQEND
0
POLYLINE
8
CUT
66
1
70
0
0
VERTEX
8
CUT
10
101.5167
20
0
0
VERTEX
8
CUT
10
101
20
7.75
0
VERTEX
8
CUT
10
102
20
22.75
0
SEQEND
0
POLYLINE
8
CUT
66
1
70
0
0
VERTEX
8
CUT
10
106
20
70
0
VERTEX
8
CUT
10
107
20
55
0
VERTEX
8
CUT
10
106
20
40
0
VERTEX
8
CUT
10
105
20
55
0
VERTEX
8
CUT
10
106
20
70
0
SEQEND
0
POLYLINE
8
CUT
66
1
70
0
0
VERTEX
8
CUT
10
106
20
38.5
0
VERTEX
8
CUT
10
107
20
23.5
0
VERTEX
8
CUT
10
106
20
8.5
0
VERTEX
8
CUT
10
105
20
23.5
0
VERTEX
8
CUT
10
106
20
38.5
0
SEQEND
0
LINE
8
CUT
10
106
20
7
11
106.4667
21
0
0
LINE
8
CUT
10
105.5333
20
0
11
106
21
7
0
POLYLINE
8
CUT
66
1
70
0
0
VERTEX
8
CUT
10
110.95
20
70
0
VERTEX
8
CUT
10
110
20
55.75
0
VERTEX
8
CUT
10
109.05
20
70
0
SEQEND
0
POLYLINE
8
CUT
66
1
70
0
0
VERTEX
8
CUT
10
110
20
54.25
0
VERTEX
8
CUT
10
111
20
39.25
0
VERTEX
8
CUT
10
110
20
24.25
0
VERTEX
8
CUT
10
109
20
39.25
0
VERTEX
8
CUT
10
110
20
54.25
0
SEQEND
0
POLYLINE
8
CUT
66
1
70
0
0
VERTEX
8
CUT
10
110
20
22.75
0
VERTEX
8
CUT
10
111
20
7.75
0
VERTEX
8
CUT
10
110.4833
20
0
0
SEQEND
0
POLYLINE
8
CUT
66
1
70
0
0
VERTEX
8
CUT
10
109.5167
20
0
0
VERTEX
8
CUT
10
109
20
7.75
0
VERTEX
8
CUT
10
110
20
22.75
0
SEQEND
0
POLYLINE
8
CUT
66
1
70
0
0
VERTEX
8
CUT
10
114
20
70
0
VERTEX
8
CUT
10
115
20
55
0
VERTEX
8
CUT
10
114
20
40
0
VERTEX
8
CUT
10
113
20
55
0
VERTEX
8
CUT
10
114
20
70
0
SEQEND
0
POLYLINE
8
CUT
66
1
70
0
0
VERTEX
8
CUT
10
114
20
38.5
0
VERTEX
8
CUT
10
115
20
23.5
0
VERTEX
8
CUT
10
114
20
8.5
0
VERTEX
8
CUT
10
113
20
23.5
0
VERTEX
8
CUT
10
114
20
38.5
0
SEQEND
0
LINE
8
CUT
10
114
20
7
11
114.4667
21
0
0
LINE
8
CUT
10
113.5333
20
0
11
114
21
7
0
POLYLINE
8
CUT
66
1
70
0
0
VERTEX
8
CUT
10
118.95
20
70
0
VERTEX
8
CUT
10
118
20
55.75
0
VERTEX
8
CUT
10
117.05
20
70
0
SEQEND
0
POLYLINE
8
CUT
66
1
70
0
0
VERTEX
8
CUT
10
118
20
54.25
0
VERTEX
8
CUT
10
119
20
39.25
0
VERTEX
8
CUT
10
118
20
24.25
0
VERTEX
8
CUT
10
117
20
39.25
0
VERTEX
8
CUT
10
118
20
54.25
0
SEQEND
0
POLYLINE
8
CUT
66
1
70
0
0
VERTEX
8
CUT
10
118
20
22.75
0
VERTEX
8
CUT
10
119
20
7.75
0
VERTEX
8
CUT
10
118.4833
20
0
0
SEQEND
0
POLYLINE
8
CUT
66
1
70
0
0
VERTEX
8
CUT
10
117.5167
20
0
0
VERTEX
8
CUT
10
117
20
7.75
0
VERTEX
8
CUT
10
118
20
22.75
0
SEQEND
0
POLYLINE
8
CUT
66
1
70
0
0
VERTEX
8
CUT
10
0
20
70
0
VERTEX
8
CUT
10
120
20
70
0
VERTEX
8
CUT
10
120
20
0
0
VERTEX
8
CUT
10
0
20
0
0
VERTEX
8
CUT
10
0
20
70
0
SEQEND
0
ENDSEC
0
EOF
