<?xml version="1.0" encoding="UTF-8"?>
<svg xmlns="http://www.w3.org/2000/svg" width="120mm" height="70mm" viewBox="0 0 120 70">
<g fill="none" stroke="#FF0000" stroke-width="0.1">
<line x1="2" y1="0" x2="2" y2="30"/>
<line x1="0.4" y1="15" x2="3.6" y2="15"/>
<line x1="2" y1="31.5" x2="2" y2="61.5"/>
<line x1="0.4" y1="46.5" x2="3.6" y2="46.5"/>
<line x1="2" y1="63" x2="2" y2="70"/>
<line x1="6" y1="0" x2="6" y2="14.25"/>
<line x1="6" y1="15.75" x2="6" y2="45.75"/>
<line x1="4.4" y1="30.75" x2="7.6" y2="30.75"/>
<line x1="6" y1="47.25" x2="6" y2="70"/>
<line x1="4.4" y1="62.25" x2="7.6" y2="62.25"/>
<line x1="10" y1="0" x2="10" y2="30"/>
<line x1="8.4" y1="15" x2="11.6" y2="15"/>
<line x1="10" y1="31.5" x2="10" y2="61.5"/>
<line x1="8.4" y1="46.5" x2="11.6" y2="46.5"/>
<line x1="10" y1="63" x2="10" y2="70"/>
<line x1="14" y1="0" x2="14" y2="14.25"/>
<line x1="14" y1="15.75" x2="14" y2="45.75"/>
<line x1="12.4" y1="30.75" x2="15.6" y2="30.75"/>
<line x1="14" y1="47.25" x2="14" y2="70"/>
<line x1="12.4" y1="62.25" x2="15.6" y2="62.25"/>
<line x1="18" y1="0" x2="18" y2="30"/>
<line x1="16.4" y1="15" x2="19.6" y2="15"/>
<line x1="18" y1="31.5" x2="18" y2="61.5"/>
<line x1="16.4" y1="46.5" x2="19.6" y2="46.5"/>
<line x1="18" y1="63" x2="18" y2="70"/>
<line x1="22" y1="0" x2="22" y2="14.25"/>
<line x1="22" y1="15.75" x2="22" y2="45.75"/>
<line x1="20.4" y1="30.75" x2="23.6" y2="30.75"/>
<line x1="22" y1="47.25" x2="22" y2="70"/>
<line x1="20.4" y1="62.25" x2="23.6" y2="62.25"/>
<line x1="26" y1="0" x2="26" y2="30"/>
<line x1="24.4" y1="15" x2="27.6" y2="15"/>
<line x1="26" y1="31.5" x2="26" y2="61.5"/>
<line x1="24.4" y1="46.5" x2="27.6" y2="46.5"/>
<line x1="26" y1="63" x2="26" y2="70"/>
<line x1="30" y1="0" x2="30" y2="14.25"/>
<line x1="30" y1="15.75" x2="30" y2="45.75"/>
<line x1="28.4" y1="30.75" x2="31.6" y2="30.75"/>
<line x1="30" y1="47.25" x2="30" y2="70"/>
<line x1="28.4" y1="62.25" x2="31.6" y2="62.25"/>
<line x1="34" y1="0" x2="34" y2="30"/>
<line x1="32.4" y1="15" x2="35.6" y2="15"/>
<line x1="34" y1="31.5" x2="34" y2="61.5"/>
<line x1="32.4" y1="46.5" x2="35.6" y2="46.5"/>
<line x1="34" y1="63" x2="34" y2="70"/>
<line x1="38" y1="0" x2="38" y2="14.25"/>
<line x1="38" y1="15.75" x2="38" y2="45.75"/>
<line x1="36.4" y1="30.75" x2="39.6" y2="30.75"/>
<line x1="38" y1="47.25" x2="38" y2="70"/>
<line x1="36.4" y1="62.25" x2="39.6" y2="62.25"/>
<line x1="42" y1="0" x2="42" y2="30"/>
<line x1="40.4" y1="15" x2="43.6" y2="15"/>
<line x1="42" y1="31.5" x2="42" y2="61.5"/>
<line x1="40.4" y1="46.5" x2="43.6" y2="46.5"/>
<line x1="42" y1="63" x2="42" y2="70"/>
<line x1="46" y1="0" x2="46" y2="14.25"/>
<line x1="46" y1="15.75" x2="46" y2="45.75"/>
<line x1="44.4" y1="30.75" x2="47.6" y2="30.75"/>
<line x1="46" y1="47.25" x2="46" y2="70"/>
<line x1="44.4" y1="62.25" x2="47.6" y2="62.25"/>
<line x1="50" y1="0" x2="50" y2="30"/>
<line x1="48.4" y1="15" x2="51.6" y2="15"/>
<line x1="50" y1="31.5" x2="50" y2="61.5"/>
<line x1="48.4" y1="46.5" x2="51.6" y2="46.5"/>
<line x1="50" y1="63" x2="50" y2="70"/>
<line x1="54" y1="0" x2="54" y2="14.25"/>
<line x1="54" y1="15.75" x2="54" y2="45.75"/>
<line x1="52.4" y1="30.75" x2="55.6" y2="30.75"/>
<line x1="54" y1="47.25" x2="54" y2="70"/>
<line x1="52.4" y1="62.25" x2="55.6" y2="62.25"/>
<line x1="58" y1="0" x2="58" y2="30"/>
<line x1="56.4" y1="15" x2="59.6" y2="15"/>
<line x1="58" y1="31.5" x2="58" y2="61.5"/>
<line x1="56.4" y1="46.5" x2="59.6" y2="46.5"/>
<line x1="58" y1="63" x2="58" y2="70"/>
<line x1="62" y1="0" x2="62" y2="14.25"/>
<line x1="62" y1="15.75" x2="62" y2="45.75"/>
<line x1="60.4" y1="30.75" x2="63.6" y2="30.75"/>
<line x1="62" y1="47.25" x2="62" y2="70"/>
<line x1="60.4" y1="62.25" x2="63.6" y2="62.25"/>
<line x1="66" y1="0" x2="66" y2="30"/>
<line x1="64.4" y1="15" x2="67.6" y2="15"/>
<line x1="66" y1="31.5" x2="66" y2="61.5"/>
<line x1="64.4" y1="46.5" x2="67.6" y2="46.5"/>
<line x1="66" y1="63" x2="66" y2="70"/>
<line x1="70" y1="0" x2="70" y2="14.25"/>
<line x1="70" y1="15.75" x2="70" y2="45.75"/>
<line x1="68.4" y1="30.75" x2="71.6" y2="30.75"/>
<line x1="70" y1="47.25" x2="70" y2="70"/>
<line x1="68.4" y1="62.25" x2="71.6" y2="62.25"/>
<line x1="74" y1="0" x2="74" y2="30"/>
<line x1="72.4" y1="15" x2="75.6" y2="15"/>
<line x1="74" y1="31.5" x2="74" y2="61.5"/>
<line x1="72.4" y1="46.5" x2="75.6" y2="46.5"/>
<line x1="74" y1="63" x2="74" y2="70"/>
<line x1="78" y1="0" x2="78" y2="14.25"/>
<line x1="78" y1="15.75" x2="78" y2="45.75"/>
<line x1="76.4" y1="30.75" x2="79.6" y2="30.75"/>
<line x1="78" y1="47.25" x2="78" y2="70"/>
<line x1="76.4" y1="62.25" x2="79.6" y2="62.25"/>
<line x1="82" y1="0" x2="82" y2="30"/>
<line x1="80.4" y1="15" x2="83.6" y2="15"/>
<line x1="82" y1="31.5" x2="82" y2="61.5"/>
<line x1="80.4" y1="46.5" x2="83.6" y2="46.5"/>
<line x1="82" y1="63" x2="82" y2="70"/>
<line x1="86" y1="0" x2="86" y2="14.25"/>
<line x1="86" y1="15.75" x2="86" y2="45.75"/>
<line x1="84.4" y1="30.75" x2="87.6" y2="30.75"/>
<line x1="86" y1="47.25" x2="86" y2="70"/>
<line x1="84.4" y1="62.25" x2="87.6" y2="62.25"/>
<line x1="90" y1="0" x2="90" y2="30"/>
<line x1="88.4" y1="15" x2="91.6" y2="15"/>
<line x1="90" y1="31.5" x2="90" y2="61.5"/>
<line x1="88.4" y1="46.5" x2="91.6" y2="46.5"/>
<line x1="90" y1="63" x2="90" y2="70"/>
<line x1="94" y1="0" x2="94" y2="14.25"/>
<line x1="94" y1="15.75" x2="94" y2="45.75"/>
<line x1="92.4" y1="30.75" x2="95.6" y2="30.75"/>
<line x1="94" y1="47.25" x2="94" y2="70"/>
<line x1="92.4" y1="62.25" x2="95.6" y2="62.25"/>
<line x1="98" y1="0" x2="98" y2="30"/>
<line x1="96.4" y1="15" x2="99.6" y2="15"/>
<line x1="98" y1="31.5" x2="98" y2="61.5"/>
<line x1="96.4" y1="46.5" x2="99.6" y2="46.5"/>
<line x1="98" y1="63" x2="98" y2="70"/>
<line x1="102" y1="0" x2="102" y2="14.25"/>
<line x1="102" y1="15.75" x2="102" y2="45.75"/>
<line x1="100.4" y1="30.75" x2="103.6" y2="30.75"/>
<line x1="102" y1="47.25" x2="102" y2="70"/>
<line x1="100.4" y1="62.25" x2="103.6" y2="62.25"/>
<line x1="106" y1="0" x2="106" y2="30"/>
<line x1="104.4" y1="15" x2="107.6" y2="15"/>
<line x1="106" y1="31.5" x2="106" y2="61.5"/>
<line x1="104.4" y1="46.5" x2="107.6" y2="46.5"/>
<line x1="106" y1="63" x2="106" y2="70"/>
<line x1="110" y1="0" x2="110" y2="14.25"/>
<line x1="110" y1="15.75" x2="110" y2="45.75"/>
<line x1="108.4" y1="30.75" x2="111.6" y2="30.75"/>
<line x1="110" y1="47.25" x2="110" y2="70"/>
<line x1="108.4" y1="62.25" x2="111.6" y2="62.25"/>
<line x1="114" y1="0" x2="114" y2="30"/>
<line x1="112.4" y1="15" x2="115.6" y2="15"/>
<line x1="114" y1="31.5" x2="114" y2="61.5"/>
<line x1="112.4" y1="46.5" x2="115.6" y2="46.5"/>
<line x1="114" y1="63" x2="114" y2="70"/>
<line x1="118" y1="0" x2="118" y2="14.25"/>
<line x1="118" y1="15.75" x2="118" y2="45.75"/>
<line x1="116.4" y1="30.75" x2="119.6" y2="30.75"/>
<line x1="118" y1="47.25" x2="118" y2="70"/>
<line x1="116.4" y1="62.25" x2="119.6" y2="62.25"/>
<polyline points="0,0 120,0 120,70 0,70 0,0"/>
</g>
</svg>