0
SECTION
2
HEADER
9
$ACADVER
1
AC1009
9
$INSUNITS
70
4
0
ENDSEC
0
SECTION
2
TABLES
0
TABLE
2
LAYER
70
1
0
LAYER
2
CUT
70
0
62
1
6
CONTINUOUS
0
ENDTAB
0
ENDSEC
0
SECTION
2
ENTITIES
0
POLYLINE
8
CUT
66
1
70
0
0
VERTEX
8
CUT
10
11.3244
20
70
0
VERTEX
8
CUT
10
11.3244
20
64.3856
0
VERTEX
8
CUT
10
1.6
20
70
0
VERTEX
8
CUT
10
1.6
20
70
0
SEQEND
0
POLYLINE
8
CUT
66
1
70
0
0
VERTEX
8
CUT
10
9.8748
20
66.1463
0
VERTEX
8
CUT
10
3.2
20
70
0
VERTEX
8
CUT
10
3.2
20
70
0
SEQEND
0
LINE
8
CUT
10
10.5244
20
70
11
10.5244
21
66.5213
0
POLYLINE
8
CUT
66
1
70
0
0
VERTEX
8
CUT
10
9.7244
20
70
0
VERTEX
8
CUT
10
9.7244
20
67.1569
0
VERTEX
8
CUT
10
5.4495
20
69.625
0
SEQEND
0
POLYLINE
8
CUT
66
1
70
0
0
VERTEX
8
CUT
10
8.9244
20
70
0
VERTEX
8
CUT
10
8.9244
20
68.5426
0
VERTEX
8
CUT
10
6.4
20
70
0
VERTEX
8
CUT
10
6.4
20
70
0
SEQEND
0
LINE
8
CUT
10
0
20
69.25
11
0
21
56.75
0
LINE
8
CUT
10
0.6495
20
69.625
11
11.4748
21
63.375
0
LINE
8
CUT
10
0.6495
20
56.375
11
11.4748
21
62.625
0
POLYLINE
8
CUT
66
1
70
0
0
VERTEX
8
CUT
10
0.8
20
67.8644
0
VERTEX
8
CUT
10
0.8
20
57.3856
0
VERTEX
8
CUT
10
10.5244
20
63
0
VERTEX
8
CUT
10
1.4495
20
68.2394
0
SEQEND
0
POLYLINE
8
CUT
66
1
70
0
0
VERTEX
8
CUT
10
2.2495
20
59.1463
0
VERTEX
8
CUT
10
8.9244
20
63
0
VERTEX
8
CUT
10
1.6
20
67.2287
0
VERTEX
8
CUT
10
1.6
20
59.5213
0
SEQEND
0
POLYLINE
8
CUT
66
1
70
0
0
VERTEX
8
CUT
10
6.6748
20
63.375
0
VERTEX
8
CUT
10
2.4
20
65.8431
0
VERTEX
8
CUT
10
2.4
20
60.1569
0
VERTEX
8
CUT
10
6.6748
20
62.625
0
SEQEND
0
POLYLINE
8
CUT
66
1
70
0
0
VERTEX
8
CUT
10
3.2
20
63.7074
0
VERTEX
8
CUT
10
3.2
20
61.5426
0
VERTEX
8
CUT
10
5.7244
20
63
0
VERTEX
8
CUT
10
3.8495
20
64.0824
0
SEQEND
0
POLYLINE
8
CUT
66
1
70
0
0
VERTEX
8
CUT
10
11.3244
20
60.8644
0
VERTEX
8
CUT
10
11.3244
20
50.3856
0
VERTEX
8
CUT
10
1.6
20
56
0
VERTEX
8
CUT
10
10.6748
20
61.2394
0
SEQEND
0
POLYLINE
8
CUT
66
1
70
0
0
VERTEX
8
CUT
10
9.8748
20
52.1463
0
VERTEX
8
CUT
10
3.2
20
56
0
VERTEX
8
CUT
10
10.5244
20
60.2287
0
VERTEX
8
CUT
10
10.5244
20
52.5213
0
SEQEND
0
POLYLINE
8
CUT
66
1
70
0
0
VERTEX
8
CUT
10
5.4495
20
56.375
0
VERTEX
8
CUT
10
9.7244
20
58.8431
0
VERTEX
8
CUT
10
9.7244
20
53.1569
0
VERTEX
8
CUT
10
5.4495
20
55.625
0
SEQEND
0
POLYLINE
8
CUT
66
1
70
0
0
VERTEX
8
CUT
10
8.9244
20
56.7074
0
VERTEX
8
CUT
10
8.9244
20
54.5426
0
VERTEX
8
CUT
10
6.4
20
56
0
VERTEX
8
CUT
10
8.2748
20
57.0824
0
SEQEND
0
LINE
8
CUT
10
0
20
55.25
11
0
21
42.75
0
LINE
8
CUT
10
0.6495
20
55.625
11
11.4748
21
49.375
0
LINE
8
CUT
10
0.6495
20
42.375
11
11.4748
21
48.625
0
POLYLINE
8
CUT
66
1
70
0
0
VERTEX
8
CUT
10
0.8
20
53.8644
0
VERTEX
8
CUT
10
0.8
20
43.3856
0
VERTEX
8
CUT
10
10.5244
20
49
0
VERTEX
8
CUT
10
1.4495
20
54.2394
0
SEQEND
0
POLYLINE
8
CUT
66
1
70
0
0
VERTEX
8
CUT
10
2.2495
20
45.1463
0
VERTEX
8
CUT
10
8.9244
20
49
0
VERTEX
8
CUT
10
1.6
20
53.2287
0
VERTEX
8
CUT
10
1.6
20
45.5213
0
SEQEND
0
POLYLINE
8
CUT
66
1
70
0
0
VERTEX
8
CUT
10
6.6748
20
49.375
0
VERTEX
8
CUT
10
2.4
20
51.8431
0
VERTEX
8
CUT
10
2.4
20
46.1569
0
VERTEX
8
CUT
10
6.6748
20
48.625
0
SEQEND
0
POLYLINE
8
CUT
66
1
70
0
0
VERTEX
8
CUT
10
3.2
20
49.7074
0
VERTEX
8
CUT
10
3.2
20
47.5426
0
VERTEX
8
CUT
10
5.7244
20
49
0
VERTEX
8
CUT
10
3.8495
20
50.0824
0
SEQEND
0
POLYLINE
8
CUT
66
1
70
0
0
VERTEX
8
CUT
10
11.3244
20
46.8644
0
VERTEX
8
CUT
10
11.3244
20
36.3856
0
VERTEX
8
CUT
10
1.6
20
42
0
VERTEX
8
CUT
10
10.6748
20
47.2394
0
SEQEND
0
POLYLINE
8
CUT
66
1
70
0
0
VERTEX
8
CUT
10
9.8748
20
38.1463
0
VERTEX
8
CUT
10
3.2
20
42
0
VERTEX
8
CUT
10
10.5244
20
46.2287
0
VERTEX
8
CUT
10
10.5244
20
38.5213
0
SEQEND
0
POLYLINE
8
CUT
66
1
70
0
0
VERTEX
8
CUT
10
5.4495
20
42.375
0
VERTEX
8
CUT
10
9.7244
20
44.8431
0
VERTEX
8
CUT
10
9.7244
20
39.1569
0
VERTEX
8
CUT
10
5.4495
20
41.625
0
SEQEND
0
POLYLINE
8
CUT
66
1
70
0
0
VERTEX
8
CUT
10
8.9244
20
42.7074
0
VERTEX
8
CUT
10
8.9244
20
40.5426
0
VERTEX
8
CUT
10
6.4
20
42
0
VERTEX
8
CUT
10
8.2748
20
43.0824
0
SEQEND
0
LINE
8
CUT
10
0
20
41.25
11
0
21
28.75
0
LINE
8
CUT
10
0.6495
20
41.625
11
11.4748
21
35.375
0
LINE
8
CUT
10
0.6495
20
28.375
11
11.4748
21
34.625
0
POLYLINE
8
CUT
66
1
70
0
0
VERTEX
8
CUT
10
0.8
20
39.8644
0
VERTEX
8
CUT
10
0.8
20
29.3856
0
VERTEX
8
CUT
10
10.5244
20
35
0
VERTEX
8
CUT
10
1.4495
20
40.2394
0
SEQEND
0
POLYLINE
8
CUT
66
1
70
0
0
VERTEX
8
CUT
10
2.2495
20
31.1463
0
VERTEX
8
CUT
10
8.9244
20
35
0
VERTEX
8
CUT
10
1.6
20
39.2287
0
VERTEX
8
CUT
10
1.6
20
31.5213
0
SEQEND
0
POLYLINE
8
CUT
66
1
70
0
0
VERTEX
8
CUT
10
6.6748
20
35.375
0
VERTEX
8
CUT
10
2.4
20
37.8431
0
VERTEX
8
CUT
10
2.4
20
32.1569
0
VERTEX
8
CUT
10
6.6748
20
34.625
0
SEQEND
0
POLYLINE
8
CUT
66
1
70
0
0
VERTEX
8
CUT
10
3.2
20
35.7074
0
VERTEX
8
CUT
10
3.2
20
33.5426
0
VERTEX
8
CUT
10
5.7244
20
35
0
VERTEX
8
CUT
10
3.8495
20
36.0824
0
SEQEND
0
POLYLINE
8
CUT
66
1
70
0
0
VERTEX
8
CUT
10
11.3244
20
32.8644
0
VERTEX
8
CUT
10
11.3244
20
22.3856
0
VERTEX
8
CUT
10
1.6
20
28
0
VERTEX
8
CUT
10
10.6748
20
33.2394
0
SEQEND
0
POLYLINE
8
CUT
66
1
70
0
0
VERTEX
8
CUT
10
9.8748
20
24.1463
0
VERTEX
8
CUT
10
3.2
20
28
0
VERTEX
8
CUT
10
10.5244
20
32.2287
0
VERTEX
8
CUT
10
10.5244
20
24.5213
0
SEQEND
0
POLYLINE
8
CUT
66
1
70
0
0
VERTEX
8
CUT
10
5.4495
20
28.375
0
VERTEX
8
CUT
10
9.7244
20
30.8431
0
VERTEX
8
CUT
10
9.7244
20
25.1569
0
VERTEX
8
CUT
10
5.4495
20
27.625
0
SEQEND
0
POLYLINE
8
CUT
66
1
70
0
0
VERTEX
8
CUT
10
8.9244
20
28.7074
0
VERTEX
8
CUT
10
8.9244
20
26.5426
0
VERTEX
8
CUT
10
6.4
20
28
0
VERTEX
8
CUT
10
8.2748
20
29.0824
0
SEQEND
0
LINE
8
CUT
10
0
20
27.25
11
0
21
14.75
0
LINE
8
CUT
10
0.6495
20
27.625
11
11.4748
21
21.375
0
LINE
8
CUT
10
0.6495
20
14.375
11
11.4748
21
20.625
0
POLYLINE
8
CUT
66
1
70
0
0
VERTEX
8
CUT
10
0.8
20
25.8644
0
VERTEX
8
CUT
10
0.8
20
15.3856
0
VERTEX
8
CUT
10
10.5244
20
21
0
VERTEX
8
CUT
10
1.4495
20
26.2394
0
SEQEND
0
POLYLINE
8
CUT
66
1
70
0
0
VERTEX
8
CUT
10
2.2495
20
17.1463
0
VERTEX
8
CUT
10
8.9244
20
21
0
VERTEX
8
CUT
10
1.6
20
25.2287
0
VERTEX
8
CUT
10
1.6
20
17.5213
0
SEQEND
0
POLYLINE
8
CUT
66
1
70
0
0
VERTEX
8
CUT
10
6.6748
20
21.375
0
VERTEX
8
CUT
10
2.4
20
23.8431
0
VERTEX
8
CUT
10
2.4
20
18.1569
0
VERTEX
8
CUT
10
6.6748
20
20.625
0
SEQEND
0
POLYLINE
8
CUT
66
1
70
0
0
VERTEX
8
CUT
10
3.2
20
21.7074
0
VERTEX
8
CUT
10
3.2
20
19.5426
0
VERTEX
8
CUT
10
5.7244
20
21
0
VERTEX
8
CUT
10
3.8495
20
22.0824
0
SEQEND
0
POLYLINE
8
CUT
66
1
70
0
0
VERTEX
8
CUT
10
11.3244
20
18.8644
0
VERTEX
8
CUT
10
11.3244
20
8.3856
0
VERTEX
8
CUT
10
1.6
20
14
0
VERTEX
8
CUT
10
10.6748
20
19.2394
0
SEQEND
0
POLYLINE
8
CUT
66
1
70
0
0
VERTEX
8
CUT
10
9.8748
20
10.1463
0
VERTEX
8
CUT
10
3.2
20
14
0
VERTEX
8
CUT
10
10.5244
20
18.2287
0
VERTEX
8
CUT
10
10.5244
20
10.5213
0
SEQEND
0
POLYLINE
8
CUT
66
1
70
0
0
VERTEX
8
CUT
10
5.4495
20
14.375
0
VERTEX
8
CUT
10
9.7244
20
16.8431
0
VERTEX
8
CUT
10
9.7244
20
11.1569
0
VERTEX
8
CUT
10
5.4495
20
13.625
0
SEQEND
0
POLYLINE
8
CUT
66
1
70
0
0
VERTEX
8
CUT
10
8.9244
20
14.7074
0
VERTEX
8
CUT
10
8.9244
20
12.5426
0
VERTEX
8
CUT
10
6.4
20
14
0
VERTEX
8
CUT
10
8.2748
20
15.0824
0
SEQEND
0
LINE
8
CUT
10
0
20
13.25
11
0
21
0.75
0
LINE
8
CUT
10
0.6495
20
13.625
11
11.4748
21
7.375
0
LINE
8
CUT
10
0.6495
20
0.375
11
11.4748
21
6.625
0
POLYLINE
8
CUT
66
1
70
0
0
VERTEX
8
CUT
10
0.8
20
11.8644
0
VERTEX
8
CUT
10
0.8
20
1.3856
0
VERTEX
8
CUT
10
10.5244
20
7
0
VERTEX
8
CUT
10
1.4495
20
12.2394
0
SEQEND
0
POLYLINE
8
CUT
66
1
70
0
0
VERTEX
8
CUT
10
2.2495
20
3.1463
0
VERTEX
8
CUT
10
8.9244
20
7
0
VERTEX
8
CUT
10
1.6
20
11.2287
0
VERTEX
8
CUT
10
1.6
20
3.5213
0
SEQEND
0
POLYLINE
8
CUT
66
1
70
0
0
VERTEX
8
CUT
10
6.6748
20
7.375
0
VERTEX
8
CUT
10
2.4
20
9.8431
0
VERTEX
8
CUT
10
2.4
20
4.1569
0
VERTEX
8
CUT
10
6.6748
20
6.625
0
SEQEND
0
POLYLINE
8
CUT
66
1
70
0
0
VERTEX
8
CUT
10
3.2
20
7.7074
0
VERTEX
8
CUT
10
3.2
20
5.5426
0
VERTEX
8
CUT
10
5.7244
20
7
0
VERTEX
8
CUT
10
3.8495
20
8.0824
0
SEQEND
0
LINE
8
CUT
10
11.3244
20
4.8644
11
11.3244
21
0
0
POLYLINE
8
CUT
66
1
70
0
0
VERTEX
8
CUT
10
1.6
20
0
0
VERTEX
8
CUT
10
1.6
20
0
0
VERTEX
8
CUT
10
10.6748
20
5.2394
0
SEQEND
0
POLYLINE
8
CUT
66
1
70
0
0
VERTEX
8
CUT
10
3.2
20
0
0
VERTEX
8
CUT
10
3.2
20
0
0
VERTEX
8
CUT
10
10.5244
20
4.2287
0
VERTEX
8
CUT
10
10.5244
20
0
0
SEQEND
0
POLYLINE
8
CUT
66
1
70
0
0
VERTEX
8
CUT
10
5.4495
20
0.375
0
VERTEX
8
CUT
10
9.7244
20
2.8431
0
VERTEX
8
CUT
10
9.7244
20
0
0
SEQEND
0
LINE
8
CUT
10
8.9244
20
0.7074
11
8.9244
21
0
0
POLYLINE
8
CUT
66
1
70
0
0
VERTEX
8
CUT
10
6.4
20
0
0
VERTEX
8
CUT
10
6.4
20
0
0
VERTEX
8
CUT
10
8.2748
20
1.0824
0
SEQEND
0
LINE
8
CUT
10
12.1244
20
70
11
12.1244
21
63.75
0
LINE
8
CUT
10
12.7739
20
63.375
11
23.5992
21
69.625
0
POLYLINE
8
CUT
66
1
70
0
0
VERTEX
8
CUT
10
12.9244
20
70
0
VERTEX
8
CUT
10
12.9244
20
64.3856
0
VERTEX
8
CUT
10
22.6487
20
70
0
VERTEX
8
CUT
10
22.6487
20
70
0
SEQEND
0
POLYLINE
8
CUT
66
1
70
0
0
VERTEX
8
CUT
10
14.3739
20
66.1463
0
VERTEX
8
CUT
10
21.0487
20
70
0
VERTEX
8
CUT
10
21.0487
20
70
0
SEQEND
0
LINE
8
CUT
10
13.7244
20
70
11
13.7244
21
66.5213
0
POLYLINE
8
CUT
66
1
70
0
0
VERTEX
8
CUT
10
14.5244
20
70
0
VERTEX
8
CUT
10
14.5244
20
67.1569
0
VERTEX
8
CUT
10
18.7992
20
69.625
0
SEQEND
0
POLYLINE
8
CUT
66
1
70
0
0
VERTEX
8
CUT
10
15.3244
20
70
0
VERTEX
8
CUT
10
15.3244
20
68.5426
0
VERTEX
8
CUT
10
17.8487
20
70
0
VERTEX
8
CUT
10
17.8487
20
70
0
SEQEND
0
POLYLINE
8
CUT
66
1
70
0
0
VERTEX
8
CUT
10
23.4487
20
67.8644
0
VERTEX
8
CUT
10
23.4487
20
57.3856
0
VERTEX
8
CUT
10
13.7244
20
63
0
VERTEX
8
CUT
10
22.7992
20
68.2394
0
SEQEND
0
POLYLINE
8
CUT
66
1
70
0
0
VERTEX
8
CUT
10
21.9992
20
59.1463
0
VERTEX
8
CUT
10
15.3244
20
63
0
VERTEX
8
CUT
10
22.6487
20
67.2287
0
VERTEX
8
CUT
10
22.6487
20
59.5213
0
SEQEND
0
POLYLINE
8
CUT
66
1
70
0
0
VERTEX
8
CUT
10
17.5739
20
63.375
0
VERTEX
8
CUT
10
21.8487
20
65.8431
0
VERTEX
8
CUT
10
21.8487
20
60.1569
0
VERTEX
8
CUT
10
17.5739
20
62.625
0
SEQEND
0
POLYLINE
8
CUT
66
1
70
0
0
VERTEX
8
CUT
10
21.0487
20
63.7074
0
VERTEX
8
CUT
10
21.0487
20
61.5426
0
VERTEX
8
CUT
10
18.5244
20
63
0
VERTEX
8
CUT
10
20.3992
20
64.0824
0
SEQEND
0
LINE
8
CUT
10
12.1244
20
62.25
11
12.1244
21
49.75
0
LINE
8
CUT
10
12.7739
20
62.625
11
23.5992
21
56.375
0
LINE
8
CUT
10
12.7739
20
49.375
11
23.5992
21
55.625
0
POLYLINE
8
CUT
66
1
70
0
0
VERTEX
8
CUT
10
12.9244
20
60.8644
0
VERTEX
8
CUT
10
12.9244
20
50.3856
0
VERTEX
8
CUT
10
22.6487
20
56
0
VERTEX
8
CUT
10
13.5739
20
61.2394
0
SEQEND
0
POLYLINE
8
CUT
66
1
70
0
0
VERTEX
8
CUT
10
14.3739
20
52.1463
0
VERTEX
8
CUT
10
21.0487
20
56
0
VERTEX
8
CUT
10
13.7244
20
60.2287
0
VERTEX
8
CUT
10
13.7244
20
52.5213
0
SEQEND
0
POLYLINE
8
CUT
66
1
70
0
0
VERTEX
8
CUT
10
18.7992
20
56.375
0
VERTEX
8
CUT
10
14.5244
20
58.8431
0
VERTEX
8
CUT
10
14.5244
20
53.1569
0
VERTEX
8
CUT
10
18.7992
20
55.625
0
SEQEND
0
POLYLINE
8
CUT
66
1
70
0
0
VERTEX
8
CUT
10
15.3244
20
56.7074
0
VERTEX
8
CUT
10
15.3244
20
54.5426
0
VERTEX
8
CUT
10
17.8487
20
56
0
VERTEX
8
CUT
10
15.9739
20
57.0824
0
SEQEND
0
POLYLINE
8
CUT
66
1
70
0
0
VERTEX
8
CUT
10
23.4487
20
53.8644
0
VERTEX
8
CUT
10
23.4487
20
43.3856
0
VERTEX
8
CUT
10
13.7244
20
49
0
VERTEX
8
CUT
10
22.7992
20
54.2394
0
SEQEND
0
POLYLINE
8
CUT
66
1
70
0
0
VERTEX
8
CUT
10
21.9992
20
45.1463
0
VERTEX
8
CUT
10
15.3244
20
49
0
VERTEX
8
CUT
10
22.6487
20
53.2287
0
VERTEX
8
CUT
10
22.6487
20
45.5213
0
SEQEND
0
POLYLINE
8
CUT
66
1
70
0
0
VERTEX
8
CUT
10
17.5739
20
49.375
0
VERTEX
8
CUT
10
21.8487
20
51.8431
0
VERTEX
8
CUT
10
21.8487
20
46.1569
0
VERTEX
8
CUT
10
17.5739
20
48.625
0
SEQEND
0
POLYLINE
8
CUT
66
1
70
0
0
VERTEX
8
CUT
10
21.0487
20
49.7074
0
VERTEX
8
CUT
10
21.0487
20
47.5426
0
VERTEX
8
CUT
10
18.5244
20
49
0
VERTEX
8
CUT
10
20.3992
20
50.0824
0
SEQEND
0
LINE
8
CUT
10
12.1244
20
48.25
11
12.1244
21
35.75
0
LINE
8
CUT
10
12.7739
20
48.625
11
23.5992
21
42.375
0
LINE
8
CUT
10
12.7739
20
35.375
11
23.5992
21
41.625
0
POLYLINE
8
CUT
66
1
70
0
0
VERTEX
8
CUT
10
12.9244
20
46.8644
0
VERTEX
8
CUT
10
12.9244
20
36.3856
0
VERTEX
8
CUT
10
22.6487
20
42
0
VERTEX
8
CUT
10
13.5739
20
47.2394
0
SEQEND
0
POLYLINE
8
CUT
66
1
70
0
0
VERTEX
8
CUT
10
14.3739
20
38.1463
0
VERTEX
8
CUT
10
21.0487
20
42
0
VERTEX
8
CUT
10
13.7244
20
46.2287
0
VERTEX
8
CUT
10
13.7244
20
38.5213
0
SEQEND
0
POLYLINE
8
CUT
66
1
70
0
0
VERTEX
8
CUT
10
18.7992
20
42.375
0
VERTEX
8
CUT
10
14.5244
20
44.8431
0
VERTEX
8
CUT
10
14.5244
20
39.1569
0
VERTEX
8
CUT
10
18.7992
20
41.625
0
SEQEND
0
POLYLINE
8
CUT
66
1
70
0
0
VERTEX
8
CUT
10
15.3244
20
42.7074
0
VERTEX
8
CUT
10
15.3244
20
40.5426
0
VERTEX
8
CUT
10
17.8487
20
42
0
VERTEX
8
CUT
10
15.9739
20
43.0824
0
SEQEND
0
POLYLINE
8
CUT
66
1
70
0
0
VERTEX
8
CUT
10
23.4487
20
39.8644
0
VERTEX
8
CUT
10
23.4487
20
29.3856
0
VERTEX
8
CUT
10
13.7244
20
35
0
VERTEX
8
CUT
10
22.7992
20
40.2394
0
SEQEND
0
POLYLINE
8
CUT
66
1
70
0
0
VERTEX
8
CUT
10
21.9992
20
31.1463
0
VERTEX
8
CUT
10
15.3244
20
35
0
VERTEX
8
CUT
10
22.6487
20
39.2287
0
VERTEX
8
CUT
10
22.6487
20
31.5213
0
SEQEND
0
POLYLINE
8
CUT
66
1
70
0
0
VERTEX
8
CUT
10
17.5739
20
35.375
0
VERTEX
8
CUT
10
21.8487
20
37.8431
0
VERTEX
8
CUT
10
21.8487
20
32.1569
0
VERTEX
8
CUT
10
17.5739
20
34.625
0
SEQEND
0
POLYLINE
8
CUT
66
1
70
0
0
VERTEX
8
CUT
10
21.0487
20
35.7074
0
VERTEX
8
CUT
10
21.0487
20
33.5426
0
VERTEX
8
CUT
10
18.5244
20
35
0
VERTEX
8
CUT
10
20.3992
20
36.0824
0
SEQEND
0
LINE
8
CUT
10
12.1244
20
34.25
11
12.1244
21
21.75
0
LINE
8
CUT
10
12.7739
20
34.625
11
23.5992
21
28.375
0
LINE
8
CUT
10
12.7739
20
21.375
11
23.5992
21
27.625
0
POLYLINE
8
CUT
66
1
70
0
0
VERTEX
8
CUT
10
12.9244
20
32.8644
0
VERTEX
8
CUT
10
12.9244
20
22.3856
0
VERTEX
8
CUT
10
22.6487
20
28
0
VERTEX
8
CUT
10
13.5739
20
33.2394
0
SEQEND
0
POLYLINE
8
CUT
66
1
70
0
0
VERTEX
8
CUT
10
14.3739
20
24.1463
0
VERTEX
8
CUT
10
21.0487
20
28
0
VERTEX
8
CUT
10
13.7244
20
32.2287
0
VERTEX
8
CUT
10
13.7244
20
24.5213
0
SEQEND
0
POLYLINE
8
CUT
66
1
70
0
0
VERTEX
8
CUT
10
18.7992
20
28.375
0
VERTEX
8
CUT
10
14.5244
20
30.8431
0
VERTEX
8
CUT
10
14.5244
20
25.1569
0
VERTEX
8
CUT
10
18.7992
20
27.625
0
SEQEND
0
POLYLINE
8
CUT
66
1
70
0
0
VERTEX
8
CUT
10
15.3244
20
28.7074
0
VERTEX
8
CUT
10
15.3244
20
26.5426
0
VERTEX
8
CUT
10
17.8487
20
28
0
VERTEX
8
CUT
10
15.9739
20
29.0824
0
SEQEND
0
POLYLINE
8
CUT
66
1
70
0
0
VERTEX
8
CUT
10
23.4487
20
25.8644
0
VERTEX
8
CUT
10
23.4487
20
15.3856
0
VERTEX
8
CUT
10
13.7244
20
21
0
VERTEX
8
CUT
10
22.7992
20
26.2394
0
SEQEND
0
POLYLINE
8
CUT
66
1
70
0
0
VERTEX
8
CUT
10
21.9992
20
17.1463
0
VERTEX
8
CUT
10
15.3244
20
21
0
VERTEX
8
CUT
10
22.6487
20
25.2287
0
VERTEX
8
CUT
10
22.6487
20
17.5213
0
SEQEND
0
POLYLINE
8
CUT
66
1
70
0
0
VERTEX
8
CUT
10
17.5739
20
21.375
0
VERTEX
8
CUT
10
21.8487
20
23.8431
0
VERTEX
8
CUT
10
21.8487
20
18.1569
0
VERTEX
8
CUT
10
17.5739
20
20.625
0
SEQEND
0
POLYLINE
8
CUT
66
1
70
0
0
VERTEX
8
CUT
10
21.0487
20
21.7074
0
VERTEX
8
CUT
10
21.0487
20
19.5426
0
VERTEX
8
CUT
10
18.5244
20
21
0
VERTEX
8
CUT
10
20.3992
20
22.0824
0
SEQEND
0
LINE
8
CUT
10
12.1244
20
20.25
11
12.1244
21
7.75
0
LINE
8
CUT
10
12.7739
20
20.625
11
23.5992
21
14.375
0
LINE
8
CUT
10
12.7739
20
7.375
11
23.5992
21
13.625
0
POLYLINE
8
CUT
66
1
70
0
0
VERTEX
8
CUT
10
12.9244
20
18.8644
0
VERTEX
8
CUT
10
12.9244
20
8.3856
0
VERTEX
8
CUT
10
22.6487
20
14
0
VERTEX
8
CUT
10
13.5739
20
19.2394
0
SEQEND
0
POLYLINE
8
CUT
66
1
70
0
0
VERTEX
8
CUT
10
14.3739
20
10.1463
0
VERTEX
8
CUT
10
21.0487
20
14
0
VERTEX
8
CUT
10
13.7244
20
18.2287
0
VERTEX
8
CUT
10
13.7244
20
10.5213
0
SEQEND
0
POLYLINE
8
CUT
66
1
70
0
0
VERTEX
8
CUT
10
18.7992
20
14.375
0
VERTEX
8
CUT
10
14.5244
20
16.8431
0
VERTEX
8
CUT
10
14.5244
20
11.1569
0
VERTEX
8
CUT
10
18.7992
20
13.625
0
SEQEND
0
POLYLINE
8
CUT
66
1
70
0
0
VERTEX
8
CUT
10
15.3244
20
14.7074
0
VERTEX
8
CUT
10
15.3244
20
12.5426
0
VERTEX
8
CUT
10
17.8487
20
14
0
VERTEX
8
CUT
10
15.9739
20
15.0824
0
SEQEND
0
POLYLINE
8
CUT
66
1
70
0
0
VERTEX
8
CUT
10
23.4487
20
11.8644
0
VERTEX
8
CUT
10
23.4487
20
1.3856
0
VERTEX
8
CUT
10
13.7244
20
7
0
VERTEX
8
CUT
10
22.7992
20
12.2394
0
SEQEND
0
POLYLINE
8
CUT
66
1
70
0
0
VERTEX
8
CUT
10
21.9992
20
3.1463
0
VERTEX
8
CUT
10
15.3244
20
7
0
VERTEX
8
CUT
10
22.6487
20
11.2287
0
VERTEX
8
CUT
10
22.6487
20
3.5213
0
SEQEND
0
POLYLINE
8
CUT
66
1
70
0
0
VERTEX
8
CUT
10
17.5739
20
7.375
0
VERTEX
8
CUT
10
21.8487
20
9.8431
0
VERTEX
8
CUT
10
21.8487
20
4.1569
0
VERTEX
8
CUT
10
17.5739
20
6.625
0
SEQEND
0
POLYLINE
8
CUT
66
1
70
0
0
VERTEX
8
CUT
10
21.0487
20
7.7074
0
VERTEX
8
CUT
10
21.0487
20
5.5426
0
VERTEX
8
CUT
10
18.5244
20
7
0
VERTEX
8
CUT
10
20.3992
20
8.0824
0
SEQEND
0
LINE
8
CUT
10
12.1244
20
6.25
11
12.1244
21
0
0
LINE
8
CUT
10
12.7739
20
6.625
11
23.5992
21
0.375
0
LINE
8
CUT
10
12.9244
20
4.8644
11
12.9244
21
0
0
POLYLINE
8
CUT
66
1
70
0
0
VERTEX
8
CUT
10
22.6487
20
0
0
VERTEX
8
CUT
10
22.6487
20
0
0
VERTEX
8
CUT
10
13.5739
20
5.2394
0
SEQEND
0
POLYLINE
8
CUT
66
1
70
0
0
VERTEX
8
CUT
10
21.0487
20
0
0
VERTEX
8
CUT
10
21.0487
20
0
0
VERTEX
8
CUT
10
13.7244
20
4.2287
0
VERTEX
8
CUT
10
13.7244
20
0
0
SEQEND
0
POLYLINE
8
CUT
66
1
70
0
0
VERTEX
8
CUT
10
18.7992
20
0.375
0
VERTEX
8
CUT
10
14.5244
20
2.8431
0
VERTEX
8
CUT
10
14.5244
20
0
0
SEQEND
0
LINE
8
CUT
10
15.3244
20
0.7074
11
15.3244
21
0
0
POLYLINE
8
CUT
66
1
70
0
0
VERTEX
8
CUT
10
17.8487
20
0
0
VERTEX
8
CUT
10
17.8487
20
0
0
VERTEX
8
CUT
10
15.9739
20
1.0824
0
SEQEND
0
POLYLINE
8
CUT
66
1
70
0
0
VERTEX
8
CUT
10
35.5731
20
70
0
VERTEX
8
CUT
10
35.5731
20
64.3856
0
VERTEX
8
CUT
10
25.8487
20
70
0
VERTEX
8
CUT
10
25.8487
20
70
0
SEQEND
0
POLYLINE
8
CUT
66
1
70
0
0
VERTEX
8
CUT
10
34.1235
20
66.1463
0
VERTEX
8
CUT
10
27.4487
20
70
0
VERTEX
8
CUT
10
27.4487
20
70
0
SEQEND
0
LINE
8
CUT
10
34.7731
20
70
11
34.7731
21
66.5213
0
POLYLINE
8
CUT
66
1
70
0
0
VERTEX
8
CUT
10
33.9731
20
70
0
VERTEX
8
CUT
10
33.9731
20
67.1569
0
VERTEX
8
CUT
10
29.6982
20
69.625
0
SEQEND
0
POLYLINE
8
CUT
66
1
70
0
0
VERTEX
8
CUT
10
33.1731
20
70
0
VERTEX
8
CUT
10
33.1731
20
68.5426
0
VERTEX
8
CUT
10
30.6487
20
70
0
VERTEX
8
CUT
10
30.6487
20
70
0
SEQEND
0
LINE
8
CUT
10
24.2487
20
69.25
11
24.2487
21
56.75
0
LINE
8
CUT
10
24.8982
20
69.625
11
35.7235
21
63.375
0
LINE
8
CUT
10
24.8982
20
56.375
11
35.7235
21
62.625
0
POLYLINE
8
CUT
66
1
70
0
0
VERTEX
8
CUT
10
25.0487
20
67.8644
0
VERTEX
8
CUT
10
25.0487
20
57.3856
0
VERTEX
8
CUT
10
34.7731
20
63
0
VERTEX
8
CUT
10
25.6982
20
68.2394
0
SEQEND
0
POLYLINE
8
CUT
66
1
70
0
0
VERTEX
8
CUT
10
26.4982
20
59.1463
0
VERTEX
8
CUT
10
33.1731
20
63
0
VERTEX
8
CUT
10
25.8487
20
67.2287
0
VERTEX
8
CUT
10
25.8487
20
59.5213
0
SEQEND
0
POLYLINE
8
CUT
66
1
70
0
0
VERTEX
8
CUT
10
30.9235
20
63.375
0
VERTEX
8
CUT
10
26.6487
20
65.8431
0
VERTEX
8
CUT
10
26.6487
20
60.1569
0
VERTEX
8
CUT
10
30.9235
20
62.625
0
SEQEND
0
POLYLINE
8
CUT
66
1
70
0
0
VERTEX
8
CUT
10
27.4487
20
63.7074
0
VERTEX
8
CUT
10
27.4487
20
61.5426
0
VERTEX
8
CUT
10
29.9731
20
63
0
VERTEX
8
CUT
10
28.0982
20
64.0824
0
SEQEND
0
POLYLINE
8
CUT
66
1
70
0
0
VERTEX
8
CUT
10
35.5731
20
60.8644
0
VERTEX
8
CUT
10
35.5731
20
50.3856
0
VERTEX
8
CUT
10
25.8487
20
56
0
VERTEX
8
CUT
10
34.9235
20
61.2394
0
SEQEND
0
POLYLINE
8
CUT
66
1
70
0
0
VERTEX
8
CUT
10
34.1235
20
52.1463
0
VERTEX
8
CUT
10
27.4487
20
56
0
VERTEX
8
CUT
10
34.7731
20
60.2287
0
VERTEX
8
CUT
10
34.7731
20
52.5213
0
SEQEND
0
POLYLINE
8
CUT
66
1
70
0
0
VERTEX
8
CUT
10
29.6982
20
56.375
0
VERTEX
8
CUT
10
33.9731
20
58.8431
0
VERTEX
8
CUT
10
33.9731
20
53.1569
0
VERTEX
8
CUT
10
29.6982
20
55.625
0
SEQEND
0
POLYLINE
8
CUT
66
1
70
0
0
VERTEX
8
CUT
10
33.1731
20
56.7074
0
VERTEX
8
CUT
10
33.1731
20
54.5426
0
VERTEX
8
CUT
10
30.6487
20
56
0
VERTEX
8
CUT
10
32.5235
20
57.0824
0
SEQEND
0
LINE
8
CUT
10
24.2487
20
55.25
11
24.2487
21
42.75
0
LINE
8
CUT
10
24.8982
20
55.625
11
35.7235
21
49.375
0
LINE
8
CUT
10
24.8982
20
42.375
11
35.7235
21
48.625
0
POLYLINE
8
CUT
66
1
70
0
0
VERTEX
8
CUT
10
25.0487
20
53.8644
0
VERTEX
8
CUT
10
25.0487
20
43.3856
0
VERTEX
8
CUT
10
34.7731
20
49
0
VERTEX
8
CUT
10
25.6982
20
54.2394
0
SEQEND
0
POLYLINE
8
CUT
66
1
70
0
0
VERTEX
8
CUT
10
26.4982
20
45.1463
0
VERTEX
8
CUT
10
33.1731
20
49
0
VERTEX
8
CUT
10
25.8487
20
53.2287
0
VERTEX
8
CUT
10
25.8487
20
45.5213
0
SEQEND
0
POLYLINE
8
CUT
66
1
70
0
0
VERTEX
8
CUT
10
30.9235
20
49.375
0
VERTEX
8
CUT
10
26.6487
20
51.8431
0
VERTEX
8
CUT
10
26.6487
20
46.1569
0
VERTEX
8
CUT
10
30.9235
20
48.625
0
SEQEND
0
POLYLINE
8
CUT
66
1
70
0
0
VERTEX
8
CUT
10
27.4487
20
49.7074
0
VERTEX
8
CUT
10
27.4487
20
47.5426
0
VERTEX
8
CUT
10
29.9731
20
49
0
VERTEX
8
CUT
10
28.0982
20
50.0824
0
SEQEND
0
POLYLINE
8
CUT
66
1
70
0
0
VERTEX
8
CUT
10
35.5731
20
46.8644
0
VERTEX
8
CUT
10
35.5731
20
36.3856
0
VERTEX
8
CUT
10
25.8487
20
42
0
VERTEX
8
CUT
10
34.9235
20
47.2394
0
SEQEND
0
POLYLINE
8
CUT
66
1
70
0
0
VERTEX
8
CUT
10
34.1235
20
38.1463
0
VERTEX
8
CUT
10
27.4487
20
42
0
VERTEX
8
CUT
10
34.7731
20
46.2287
0
VERTEX
8
CUT
10
34.7731
20
38.5213
0
SEQEND
0
POLYLINE
8
CUT
66
1
70
0
0
VERTEX
8
CUT
10
29.6982
20
42.375
0
VERTEX
8
CUT
10
33.9731
20
44.8431
0
VERTEX
8
CUT
10
33.9731
20
39.1569
0
VERTEX
8
CUT
10
29.6982
20
41.625
0
SEQEND
0
POLYLINE
8
CUT
66
1
70
0
0
VERTEX
8
CUT
10
33.1731
20
42.7074
0
VERTEX
8
CUT
10
33.1731
20
40.5426
0
VERTEX
8
CUT
10
30.6487
20
42
0
VERTEX
8
CUT
10
32.5235
20
43.0824
0
SEQEND
0
LINE
8
CUT
10
24.2487
20
41.25
11
24.2487
21
28.75
0
LINE
8
CUT
10
24.8982
20
41.625
11
35.7235
21
35.375
0
LINE
8
CUT
10
24.8982
20
28.375
11
35.7235
21
34.625
0
POLYLINE
8
CUT
66
1
70
0
0
VERTEX
8
CUT
10
25.0487
20
39.8644
0
VERTEX
8
CUT
10
25.0487
20
29.3856
0
VERTEX
8
CUT
10
34.7731
20
35
0
VERTEX
8
CUT
10
25.6982
20
40.2394
0
SEQEND
0
POLYLINE
8
CUT
66
1
70
0
0
VERTEX
8
CUT
10
26.4982
20
31.1463
0
VERTEX
8
CUT
10
33.1731
20
35
0
VERTEX
8
CUT
10
25.8487
20
39.2287
0
VERTEX
8
CUT
10
25.8487
20
31.5213
0
SEQEND
0
POLYLINE
8
CUT
66
1
70
0
0
VERTEX
8
CUT
10
30.9235
20
35.375
0
VERTEX
8
CUT
10
26.6487
20
37.8431
0
VERTEX
8
CUT
10
26.6487
20
32.1569
0
VERTEX
8
CUT
10
30.9235
20
34.625
0
SEQEND
0
POLYLINE
8
CUT
66
1
70
0
0
VERTEX
8
CUT
10
27.4487
20
35.7074
0
VERTEX
8
CUT
10
27.4487
20
33.5426
0
VERTEX
8
CUT
10
29.9731
20
35
0
VERTEX
8
CUT
10
28.0982
20
36.0824
0
SEQEND
0
POLYLINE
8
CUT
66
1
70
0
0
VERTEX
8
CUT
10
35.5731
20
32.8644
0
VERTEX
8
CUT
10
35.5731
20
22.3856
0
VERTEX
8
CUT
10
25.8487
20
28
0
VERTEX
8
CUT
10
34.9235
20
33.2394
0
SEQEND
0
POLYLINE
8
CUT
66
1
70
0
0
VERTEX
8
CUT
10
34.1235
20
24.1463
0
VERTEX
8
CUT
10
27.4487
20
28
0
VERTEX
8
CUT
10
34.7731
20
32.2287
0
VERTEX
8
CUT
10
34.7731
20
24.5213
0
SEQEND
0
POLYLINE
8
CUT
66
1
70
0
0
VERTEX
8
CUT
10
29.6982
20
28.375
0
VERTEX
8
CUT
10
33.9731
20
30.8431
0
VERTEX
8
CUT
10
33.9731
20
25.1569
0
VERTEX
8
CUT
10
29.6982
20
27.625
0
SEQEND
0
POLYLINE
8
CUT
66
1
70
0
0
VERTEX
8
CUT
10
33.1731
20
28.7074
0
VERTEX
8
CUT
10
33.1731
20
26.5426
0
VERTEX
8
CUT
10
30.6487
20
28
0
VERTEX
8
CUT
10
32.5235
20
29.0824
0
SEQEND
0
LINE
8
CUT
10
24.2487
20
27.25
11
24.2487
21
14.75
0
LINE
8
CUT
10
24.8982
20
27.625
11
35.7235
21
21.375
0
LINE
8
CUT
10
24.8982
20
14.375
11
35.7235
21
20.625
0
POLYLINE
8
CUT
66
1
70
0
0
VERTEX
8
CUT
10
25.0487
20
25.8644
0
VERTEX
8
CUT
10
25.0487
20
15.3856
0
VERTEX
8
CUT
10
34.7731
20
21
0
VERTEX
8
CUT
10
25.6982
20
26.2394
0
SEQEND
0
POLYLINE
8
CUT
66
1
70
0
0
VERTEX
8
CUT
10
26.4982
20
17.1463
0
VERTEX
8
CUT
10
33.1731
20
21
0
VERTEX
8
CUT
10
25.8487
20
25.2287
0
VERTEX
8
CUT
10
25.8487
20
17.5213
0
SEQEND
0
POLYLINE
8
CUT
66
1
70
0
0
VERTEX
8
CUT
10
30.9235
20
21.375
0
VERTEX
8
CUT
10
26.6487
20
23.8431
0
VERTEX
8
CUT
10
26.6487
20
18.1569
0
VERTEX
8
CUT
10
30.9235
20
20.625
0
SEQEND
0
POLYLINE
8
CUT
66
1
70
0
0
VERTEX
8
CUT
10
27.4487
20
21.7074
0
VERTEX
8
CUT
10
27.4487
20
19.5426
0
VERTEX
8
CUT
10
29.9731
20
21
0
VERTEX
8
CUT
10
28.0982
20
22.0824
0
SEQEND
0
POLYLINE
8
CUT
66
1
70
0
0
VERTEX
8
CUT
10
35.5731
20
18.8644
0
VERTEX
8
CUT
10
35.5731
20
8.3856
0
VERTEX
8
CUT
10
25.8487
20
14
0
VERTEX
8
CUT
10
34.9235
20
19.2394
0
SEQEND
0
POLYLINE
8
CUT
66
1
70
0
0
VERTEX
8
CUT
10
34.1235
20
10.1463
0
VERTEX
8
CUT
10
27.4487
20
14
0
VERTEX
8
CUT
10
34.7731
20
18.2287
0
VERTEX
8
CUT
10
34.7731
20
10.5213
0
SEQEND
0
POLYLINE
8
CUT
66
1
70
0
0
VERTEX
8
CUT
10
29.6982
20
14.375
0
VERTEX
8
CUT
10
33.9731
20
16.8431
0
VERTEX
8
CUT
10
33.9731
20
11.1569
0
VERTEX
8
CUT
10
29.6982
20
13.625
0
SEQEND
0
POLYLINE
8
CUT
66
1
70
0
0
VERTEX
8
CUT
10
33.1731
20
14.7074
0
VERTEX
8
CUT
10
33.1731
20
12.5426
0
VERTEX
8
CUT
10
30.6487
20
14
0
VERTEX
8
CUT
10
32.5235
20
15.0824
0
SEQEND
0
LINE
8
CUT
10
24.2487
20
13.25
11
24.2487
21
0.75
0
LINE
8
CUT
10
24.8982
20
13.625
11
35.7235
21
7.375
0
LINE
8
CUT
10
24.8982
20
0.375
11
35.7235
21
6.625
0
POLYLINE
8
CUT
66
1
70
0
0
VERTEX
8
CUT
10
25.0487
20
11.8644
0
VERTEX
8
CUT
10
25.0487
20
1.3856
0
VERTEX
8
CUT
10
34.7731
20
7
0
VERTEX
8
CUT
10
25.6982
20
12.2394
0
SEQEND
0
POLYLINE
8
CUT
66
1
70
0
0
VERTEX
8
CUT
10
26.4982
20
3.1463
0
VERTEX
8
CUT
10
33.1731
20
7
0
VERTEX
8
CUT
10
25.8487
20
11.2287
0
VERTEX
8
CUT
10
25.8487
20
3.5213
0
SEQEND
0
POLYLINE
8
CUT
66
1
70
0
0
VERTEX
8
CUT
10
30.9235
20
7.375
0
VERTEX
8
CUT
10
26.6487
20
9.8431
0
VERTEX
8
CUT
10
26.6487
20
4.1569
0
VERTEX
8
CUT
10
30.9235
20
6.625
0
SEQEND
0
POLYLINE
8
CUT
66
1
70
0
0
VERTEX
8
CUT
10
27.4487
20
7.7074
0
VERTEX
8
CUT
10
27.4487
20
5.5426
0
VERTEX
8
CUT
10
29.9731
20
7
0
VERTEX
8
CUT
10
28.0982
20
8.0824
0
SEQEND
0
LINE
8
CUT
10
35.5731
20
4.8644
11
35.5731
21
0
0
POLYLINE
8
CUT
66
1
70
0
0
VERTEX
8
CUT
10
25.8487
20
0
0
VERTEX
8
CUT
10
25.8487
20
0
0
VERTEX
8
CUT
10
34.9235
20
5.2394
0
SEQEND
0
POLYLINE
8
CUT
66
1
70
0
0
VERTEX
8
CUT
10
27.4487
20
0
0
VERTEX
8
CUT
10
27.4487
20
0
0
VERTEX
8
CUT
10
34.7731
20
4.2287
0
VERTEX
8
CUT
10
34.7731
20
0
0
SEQEND
0
POLYLINE
8
CUT
66
1
70
0
0
VERTEX
8
CUT
10
29.6982
20
0.375
0
VERTEX
8
CUT
10
33.9731
20
2.8431
0
VERTEX
8
CUT
10
33.9731
20
0
0
SEQEND
0
LINE
8
CUT
10
33.1731
20
0.7074
11
33.1731
21
0
0
POLYLINE
8
CUT
66
1
70
0
0
VERTEX
8
CUT
10
30.6487
20
0
0
VERTEX
8
CUT
10
30.6487
20
0
0
VERTEX
8
CUT
10
32.5235
20
1.0824
0
SEQEND
0
LINE
8
CUT
10
36.3731
20
70
11
36.3731
21
63.75
0
LINE
8
CUT
10
37.0226
20
63.375
11
47.8479
21
69.625
0
POLYLINE
8
CUT
66
1
70
0
0
VERTEX
8
CUT
10
37.1731
20
70
0
VERTEX
8
CUT
10
37.1731
20
64.3856
0
VERTEX
8
CUT
10
46.8974
20
70
0
VERTEX
8
CUT
10
46.8974
20
70
0
SEQEND
0
POLYLINE
8
CUT
66
1
70
0
0
VERTEX
8
CUT
10
38.6226
20
66.1463
0
VERTEX
8
CUT
10
45.2974
20
70
0
VERTEX
8
CUT
10
45.2974
20
70
0
SEQEND
0
LINE
8
CUT
10
37.9731
20
70
11
37.9731
21
66.5213
0
POLYLINE
8
CUT
66
1
70
0
0
VERTEX
8
CUT
10
38.7731
20
70
0
VERTEX
8
CUT
10
38.7731
20
67.1569
0
VERTEX
8
CUT
10
43.0479
20
69.625
0
SEQEND
0
POLYLINE
8
CUT
66
1
70
0
0
VERTEX
8
CUT
10
39.5731
20
70
0
VERTEX
8
CUT
10
39.5731
20
68.5426
0
VERTEX
8
CUT
10
42.0974
20
70
0
VERTEX
8
CUT
10
42.0974
20
70
0
SEQEND
0
POLYLINE
8
CUT
66
1
70
0
0
VERTEX
8
CUT
10
47.6974
20
67.8644
0
VERTEX
8
CUT
10
47.6974
20
57.3856
0
VERTEX
8
CUT
10
37.9731
20
63
0
VERTEX
8
CUT
10
47.0479
20
68.2394
0
SEQEND
0
POLYLINE
8
CUT
66
1
70
0
0
VERTEX
8
CUT
10
46.2479
20
59.1463
0
VERTEX
8
CUT
10
39.5731
20
63
0
VERTEX
8
CUT
10
46.8974
20
67.2287
0
VERTEX
8
CUT
10
46.8974
20
59.5213
0
SEQEND
0
POLYLINE
8
CUT
66
1
70
0
0
VERTEX
8
CUT
10
41.8226
20
63.375
0
VERTEX
8
CUT
10
46.0974
20
65.8431
0
VERTEX
8
CUT
10
46.0974
20
60.1569
0
VERTEX
8
CUT
10
41.8226
20
62.625
0
SEQEND
0
POLYLINE
8
CUT
66
1
70
0
0
VERTEX
8
CUT
10
45.2974
20
63.7074
0
VERTEX
8
CUT
10
45.2974
20
61.5426
0
VERTEX
8
CUT
10
42.7731
20
63
0
VERTEX
8
CUT
10
44.6479
20
64.0824
0
SEQEND
0
LINE
8
CUT
10
36.3731
20
62.25
11
36.3731
21
49.75
0
LINE
8
CUT
10
37.0226
20
62.625
11
47.8479
21
56.375
0
LINE
8
CUT
10
37.0226
20
49.375
11
47.8479
21
55.625
0
POLYLINE
8
CUT
66
1
70
0
0
VERTEX
8
CUT
10
37.1731
20
60.8644
0
VERTEX
8
CUT
10
37.1731
20
50.3856
0
VERTEX
8
CUT
10
46.8974
20
56
0
VERTEX
8
CUT
10
37.8226
20
61.2394
0
SEQEND
0
POLYLINE
8
CUT
66
1
70
0
0
VERTEX
8
CUT
10
38.6226
20
52.1463
0
VERTEX
8
CUT
10
45.2974
20
56
0
VERTEX
8
CUT
10
37.9731
20
60.2287
0
VERTEX
8
CUT
10
37.9731
20
52.5213
0
SEQEND
0
POLYLINE
8
CUT
66
1
70
0
0
VERTEX
8
CUT
10
43.0479
20
56.375
0
VERTEX
8
CUT
10
38.7731
20
58.8431
0
VERTEX
8
CUT
10
38.7731
20
53.1569
0
VERTEX
8
CUT
10
43.0479
20
55.625
0
SEQEND
0
POLYLINE
8
CUT
66
1
70
0
0
VERTEX
8
CUT
10
39.5731
20
56.7074
0
VERTEX
8
CUT
10
39.5731
20
54.5426
0
VERTEX
8
CUT
10
42.0974
20
56
0
VERTEX
8
CUT
10
40.2226
20
57.0824
0
SEQEND
0
POLYLINE
8
CUT
66
1
70
0
0
VERTEX
8
CUT
10
47.6974
20
53.8644
0
VERTEX
8
CUT
10
47.6974
20
43.3856
0
VERTEX
8
CUT
10
37.9731
20
49
0
VERTEX
8
CUT
10
47.0479
20
54.2394
0
SEQEND
0
POLYLINE
8
CUT
66
1
70
0
0
VERTEX
8
CUT
10
46.2479
20
45.1463
0
VERTEX
8
CUT
10
39.5731
20
49
0
VERTEX
8
CUT
10
46.8974
20
53.2287
0
VERTEX
8
CUT
10
46.8974
20
45.5213
0
SEQEND
0
POLYLINE
8
CUT
66
1
70
0
0
VERTEX
8
CUT
10
41.8226
20
49.375
0
VERTEX
8
CUT
10
46.0974
20
51.8431
0
VERTEX
8
CUT
10
46.0974
20
46.1569
0
VERTEX
8
CUT
10
41.8226
20
48.625
0
SEQEND
0
POLYLINE
8
CUT
66
1
70
0
0
VERTEX
8
CUT
10
45.2974
20
49.7074
0
VERTEX
8
CUT
10
45.2974
20
47.5426
0
VERTEX
8
CUT
10
42.7731
20
49
0
VERTEX
8
CUT
10
44.6479
20
50.0824
0
SEQEND
0
LINE
8
CUT
10
36.3731
20
48.25
11
36.3731
21
35.75
0
LINE
8
CUT
10
37.0226
20
48.625
11
47.8479
21
42.375
0
LINE
8
CUT
10
37.0226
20
35.375
11
47.8479
21
41.625
0
POLYLINE
8
CUT
66
1
70
0
0
VERTEX
8
CUT
10
37.1731
20
46.8644
0
VERTEX
8
CUT
10
37.1731
20
36.3856
0
VERTEX
8
CUT
10
46.8974
20
42
0
VERTEX
8
CUT
10
37.8226
20
47.2394
0
SEQEND
0
POLYLINE
8
CUT
66
1
70
0
0
VERTEX
8
CUT
10
38.6226
20
38.1463
0
VERTEX
8
CUT
10
45.2974
20
42
0
VERTEX
8
CUT
10
37.9731
20
46.2287
0
VERTEX
8
CUT
10
37.9731
20
38.5213
0
SEQEND
0
POLYLINE
8
CUT
66
1
70
0
0
VERTEX
8
CUT
10
43.0479
20
42.375
0
VERTEX
8
CUT
10
38.7731
20
44.8431
0
VERTEX
8
CUT
10
38.7731
20
39.1569
0
VERTEX
8
CUT
10
43.0479
20
41.625
0
SEQEND
0
POLYLINE
8
CUT
66
1
70
0
0
VERTEX
8
CUT
10
39.5731
20
42.7074
0
VERTEX
8
CUT
10
39.5731
20
40.5426
0
VERTEX
8
CUT
10
42.0974
20
42
0
VERTEX
8
CUT
10
40.2226
20
43.0824
0
SEQEND
0
POLYLINE
8
CUT
66
1
70
0
0
VERTEX
8
CUT
10
47.6974
20
39.8644
0
VERTEX
8
CUT
10
47.6974
20
29.3856
0
VERTEX
8
CUT
10
37.9731
20
35
0
VERTEX
8
CUT
10
47.0479
20
40.2394
0
SEQEND
0
POLYLINE
8
CUT
66
1
70
0
0
VERTEX
8
CUT
10
46.2479
20
31.1463
0
VERTEX
8
CUT
10
39.5731
20
35
0
VERTEX
8
CUT
10
46.8974
20
39.2287
0
VERTEX
8
CUT
10
46.8974
20
31.5213
0
SEQEND
0
POLYLINE
8
CUT
66
1
70
0
0
VERTEX
8
CUT
10
41.8226
20
35.375
0
VERTEX
8
CUT
10
46.0974
20
37.8431
0
VERTEX
8
CUT
10
46.0974
20
32.1569
0
VERTEX
8
CUT
10
41.8226
20
34.625
0
SEQEND
0
POLYLINE
8
CUT
66
1
70
0
0
VERTEX
8
CUT
10
45.2974
20
35.7074
0
VERTEX
8
CUT
10
45.2974
20
33.5426
0
VERTEX
8
CUT
10
42.7731
20
35
0
VERTEX
8
CUT
10
44.6479
20
36.0824
0
SEQEND
0
LINE
8
CUT
10
36.3731
20
34.25
11
36.3731
21
21.75
0
LINE
8
CUT
10
37.0226
20
34.625
11
47.8479
21
28.375
0
LINE
8
CUT
10
37.0226
20
21.375
11
47.8479
21
27.625
0
POLYLINE
8
CUT
66
1
70
0
0
VERTEX
8
CUT
10
37.1731
20
32.8644
0
VERTEX
8
CUT
10
37.1731
20
22.3856
0
VERTEX
8
CUT
10
46.8974
20
28
0
VERTEX
8
CUT
10
37.8226
20
33.2394
0
SEQEND
0
POLYLINE
8
CUT
66
1
70
0
0
VERTEX
8
CUT
10
38.6226
20
24.1463
0
VERTEX
8
CUT
10
45.2974
20
28
0
VERTEX
8
CUT
10
37.9731
20
32.2287
0
VERTEX
8
CUT
10
37.9731
20
24.5213
0
SEQEND
0
POLYLINE
8
CUT
66
1
70
0
0
VERTEX
8
CUT
10
43.0479
20
28.375
0
VERTEX
8
CUT
10
38.7731
20
30.8431
0
VERTEX
8
CUT
10
38.7731
20
25.1569
0
VERTEX
8
CUT
10
43.0479
20
27.625
0
SEQEND
0
POLYLINE
8
CUT
66
1
70
0
0
VERTEX
8
CUT
10
39.5731
20
28.7074
0
VERTEX
8
CUT
10
39.5731
20
26.5426
0
VERTEX
8
CUT
10
42.0974
20
28
0
VERTEX
8
CUT
10
40.2226
20
29.0824
0
SEQEND
0
POLYLINE
8
CUT
66
1
70
0
0
VERTEX
8
CUT
10
47.6974
20
25.8644
0
VERTEX
8
CUT
10
47.6974
20
15.3856
0
VERTEX
8
CUT
10
37.9731
20
21
0
VERTEX
8
CUT
10
47.0479
20
26.2394
0
SEQEND
0
POLYLINE
8
CUT
66
1
70
0
0
VERTEX
8
CUT
10
46.2479
20
17.1463
0
VERTEX
8
CUT
10
39.5731
20
21
0
VERTEX
8
CUT
10
46.8974
20
25.2287
0
VERTEX
8
CUT
10
46.8974
20
17.5213
0
SEQEND
0
POLYLINE
8
CUT
66
1
70
0
0
VERTEX
8
CUT
10
41.8226
20
21.375
0
VERTEX
8
CUT
10
46.0974
20
23.8431
0
VERTEX
8
CUT
10
46.0974
20
18.1569
0
VERTEX
8
CUT
10
41.8226
20
20.625
0
SEQEND
0
POLYLINE
8
CUT
66
1
70
0
0
VERTEX
8
CUT
10
45.2974
20
21.7074
0
VERTEX
8
CUT
10
45.2974
20
19.5426
0
VERTEX
8
CUT
10
42.7731
20
21
0
VERTEX
8
CUT
10
44.6479
20
22.0824
0
SEQEND
0
LINE
8
CUT
10
36.3731
20
20.25
11
36.3731
21
7.75
0
LINE
8
CUT
10
37.0226
20
20.625
11
47.8479
21
14.375
0
LINE
8
CUT
10
37.0226
20
7.375
11
47.8479
21
13.625
0
POLYLINE
8
CUT
66
1
70
0
0
VERTEX
8
CUT
10
37.1731
20
18.8644
0
VERTEX
8
CUT
10
37.1731
20
8.3856
0
VERTEX
8
CUT
10
46.8974
20
14
0
VERTEX
8
CUT
10
37.8226
20
19.2394
0
SEQEND
0
POLYLINE
8
CUT
66
1
70
0
0
VERTEX
8
CUT
10
38.6226
20
10.1463
0
VERTEX
8
CUT
10
45.2974
20
14
0
VERTEX
8
CUT
10
37.9731
20
18.2287
0
VERTEX
8
CUT
10
37.9731
20
10.5213
0
SEQEND
0
POLYLINE
8
CUT
66
1
70
0
0
VERTEX
8
CUT
10
43.0479
20
14.375
0
VERTEX
8
CUT
10
38.7731
20
16.8431
0
VERTEX
8
CUT
10
38.7731
20
11.1569
0
VERTEX
8
CUT
10
43.0479
20
13.625
0
SEQEND
0
POLYLINE
8
CUT
66
1
70
0
0
VERTEX
8
CUT
10
39.5731
20
14.7074
0
VERTEX
8
CUT
10
39.5731
20
12.5426
0
VERTEX
8
CUT
10
42.0974
20
14
0
VERTEX
8
CUT
10
40.2226
20
15.0824
0
SEQEND
0
POLYLINE
8
CUT
66
1
70
0
0
VERTEX
8
CUT
10
47.6974
20
11.8644
0
VERTEX
8
CUT
10
47.6974
20
1.3856
0
VERTEX
8
CUT
10
37.9731
20
7
0
VERTEX
8
CUT
10
47.0479
20
12.2394
0
SEQEND
0
POLYLINE
8
CUT
66
1
70
0
0
VERTEX
8
CUT
10
46.2479
20
3.1463
0
VERTEX
8
CUT
10
39.5731
20
7
0
VERTEX
8
CUT
10
46.8974
20
11.2287
0
VERTEX
8
CUT
10
46.8974
20
3.5213
0
SEQEND
0
POLYLINE
8
CUT
66
1
70
0
0
VERTEX
8
CUT
10
41.8226
20
7.375
0
VERTEX
8
CUT
10
46.0974
20
9.8431
0
VERTEX
8
CUT
10
46.0974
20
4.1569
0
VERTEX
8
CUT
10
41.8226
20
6.625
0
SEQEND
0
POLYLINE
8
CUT
66
1
70
0
0
VERTEX
8
CUT
10
45.2974
20
7.7074
0
VERTEX
8
CUT
10
45.2974
20
5.5426
0
VERTEX
8
CUT
10
42.7731
20
7
0
VERTEX
8
CUT
10
44.6479
20
8.0824
0
SEQEND
0
LINE
8
CUT
10
36.3731
20
6.25
11
36.3731
21
0
0
LINE
8
CUT
10
37.0226
20
6.625
11
47.8479
21
0.375
0
LINE
8
CUT
10
37.1731
20
4.8644
11
37.1731
21
0
0
POLYLINE
8
CUT
66
1
70
0
0
VERTEX
8
CUT
10
46.8974
20
0
0
VERTEX
8
CUT
10
46.8974
20
0
0
VERTEX
8
CUT
10
37.8226
20
5.2394
0
SEQEND
0
POLYLINE
8
CUT
66
1
70
0
0
VERTEX
8
CUT
10
45.2974
20
0
0
VERTEX
8
CUT
10
45.2974
20
0
0
VERTEX
8
CUT
10
37.9731
20
4.2287
0
VERTEX
8
CUT
10
37.9731
20
0
0
SEQEND
0
POLYLINE
8
CUT
66
1
70
0
0
VERTEX
8
CUT
10
43.0479
20
0.375
0
VERTEX
8
CUT
10
38.7731
20
2.8431
0
VERTEX
8
CUT
10
38.7731
20
0
0
SEQEND
0
LINE
8
CUT
10
39.5731
20
0.7074
11
39.5731
21
0
0
POLYLINE
8
CUT
66
1
70
0
0
VERTEX
8
CUT
10
42.0974
20
0
0
VERTEX
8
CUT
10
42.0974
20
0
0
VERTEX
8
CUT
10
40.2226
20
1.0824
0
SEQEND
0
POLYLINE
8
CUT
66
1
70
0
0
VERTEX
8
CUT
10
59.8218
20
70
0
VERTEX
8
CUT
10
59.8218
20
64.3856
0
VERTEX
8
CUT
10
50.0974
20
70
0
VERTEX
8
CUT
10
50.0974
20
70
0
SEQEND
0
POLYLINE
8
CUT
66
1
70
0
0
VERTEX
8
CUT
10
58.3723
20
66.1463
0
VERTEX
8
CUT
10
51.6974
20
70
0
VERTEX
8
CUT
10
51.6974
20
70
0
SEQEND
0
LINE
8
CUT
10
59.0218
20
70
11
59.0218
21
66.5213
0
POLYLINE
8
CUT
66
1
70
0
0
VERTEX
8
CUT
10
58.2218
20
70
0
VERTEX
8
CUT
10
58.2218
20
67.1569
0
VERTEX
8
CUT
10
53.9469
20
69.625
0
SEQEND
0
POLYLINE
8
CUT
66
1
70
0
0
VERTEX
8
CUT
10
57.4218
20
70
0
VERTEX
8
CUT
10
57.4218
20
68.5426
0
VERTEX
8
CUT
10
54.8974
20
70
0
VERTEX
8
CUT
10
54.8974
20
70
0
SEQEND
0
LINE
8
CUT
10
48.4974
20
69.25
11
48.4974
21
56.75
0
LINE
8
CUT
10
49.1469
20
69.625
11
59.9723
21
63.375
0
LINE
8
CUT
10
49.1469
20
56.375
11
59.9723
21
62.625
0
POLYLINE
8
CUT
66
1
70
0
0
VERTEX
8
CUT
10
49.2974
20
67.8644
0
VERTEX
8
CUT
10
49.2974
20
57.3856
0
VERTEX
8
CUT
10
59.0218
20
63
0
VERTEX
8
CUT
10
49.9469
20
68.2394
0
SEQEND
0
POLYLINE
8
CUT
66
1
70
0
0
VERTEX
8
CUT
10
50.7469
20
59.1463
0
VERTEX
8
CUT
10
57.4218
20
63
0
VERTEX
8
CUT
10
50.0974
20
67.2287
0
VERTEX
8
CUT
10
50.0974
20
59.5213
0
SEQEND
0
POLYLINE
8
CUT
66
1
70
0
0
VERTEX
8
CUT
10
55.1723
20
63.375
0
VERTEX
8
CUT
10
50.8974
20
65.8431
0
VERTEX
8
CUT
10
50.8974
20
60.1569
0
VERTEX
8
CUT
10
55.1723
20
62.625
0
SEQEND
0
POLYLINE
8
CUT
66
1
70
0
0
VERTEX
8
CUT
10
51.6974
20
63.7074
0
VERTEX
8
CUT
10
51.6974
20
61.5426
0
VERTEX
8
CUT
10
54.2218
20
63
0
VERTEX
8
CUT
10
52.3469
20
64.0824
0
SEQEND
0
POLYLINE
8
CUT
66
1
70
0
0
VERTEX
8
CUT
10
59.8218
20
60.8644
0
VERTEX
8
CUT
10
59.8218
20
50.3856
0
VERTEX
8
CUT
10
50.0974
20
56
0
VERTEX
8
CUT
10
59.1723
20
61.2394
0
SEQEND
0
POLYLINE
8
CUT
66
1
70
0
0
VERTEX
8
CUT
10
58.3723
20
52.1463
0
VERTEX
8
CUT
10
51.6974
20
56
0
VERTEX
8
CUT
10
59.0218
20
60.2287
0
VERTEX
8
CUT
10
59.0218
20
52.5213
0
SEQEND
0
POLYLINE
8
CUT
66
1
70
0
0
VERTEX
8
CUT
10
53.9469
20
56.375
0
VERTEX
8
CUT
10
58.2218
20
58.8431
0
VERTEX
8
CUT
10
58.2218
20
53.1569
0
VERTEX
8
CUT
10
53.9469
20
55.625
0
SEQEND
0
POLYLINE
8
CUT
66
1
70
0
0
VERTEX
8
CUT
10
57.4218
20
56.7074
0
VERTEX
8
CUT
10
57.4218
20
54.5426
0
VERTEX
8
CUT
10
54.8974
20
56
0
VERTEX
8
CUT
10
56.7723
20
57.0824
0
SEQEND
0
LINE
8
CUT
10
48.4974
20
55.25
11
48.4974
21
42.75
0
LINE
8
CUT
10
49.1469
20
55.625
11
59.9723
21
49.375
0
LINE
8
CUT
10
49.1469
20
42.375
11
59.9723
21
48.625
0
POLYLINE
8
CUT
66
1
70
0
0
VERTEX
8
CUT
10
49.2974
20
53.8644
0
VERTEX
8
CUT
10
49.2974
20
43.3856
0
VERTEX
8
CUT
10
59.0218
20
49
0
VERTEX
8
CUT
10
49.9469
20
54.2394
0
SEQEND
0
POLYLINE
8
CUT
66
1
70
0
0
VERTEX
8
CUT
10
50.7469
20
45.1463
0
VERTEX
8
CUT
10
57.4218
20
49
0
VERTEX
8
CUT
10
50.0974
20
53.2287
0
VERTEX
8
CUT
10
50.0974
20
45.5213
0
SEQEND
0
POLYLINE
8
CUT
66
1
70
0
0
VERTEX
8
CUT
10
55.1723
20
49.375
0
VERTEX
8
CUT
10
50.8974
20
51.8431
0
VERTEX
8
CUT
10
50.8974
20
46.1569
0
VERTEX
8
CUT
10
55.1723
20
48.625
0
SEQEND
0
POLYLINE
8
CUT
66
1
70
0
0
VERTEX
8
CUT
10
51.6974
20
49.7074
0
VERTEX
8
CUT
10
51.6974
20
47.5426
0
VERTEX
8
CUT
10
54.2218
20
49
0
VERTEX
8
CUT
10
52.3469
20
50.0824
0
SEQEND
0
POLYLINE
8
CUT
66
1
70
0
0
VERTEX
8
CUT
10
59.8218
20
46.8644
0
VERTEX
8
CUT
10
59.8218
20
36.3856
0
VERTEX
8
CUT
10
50.0974
20
42
0
VERTEX
8
CUT
10
59.1723
20
47.2394
0
SEQEND
0
POLYLINE
8
CUT
66
1
70
0
0
VERTEX
8
CUT
10
58.3723
20
38.1463
0
VERTEX
8
CUT
10
51.6974
20
42
0
VERTEX
8
CUT
10
59.0218
20
46.2287
0
VERTEX
8
CUT
10
59.0218
20
38.5213
0
SEQEND
0
POLYLINE
8
CUT
66
1
70
0
0
VERTEX
8
CUT
10
53.9469
20
42.375
0
VERTEX
8
CUT
10
58.2218
20
44.8431
0
VERTEX
8
CUT
10
58.2218
20
39.1569
0
VERTEX
8
CUT
10
53.9469
20
41.625
0
SEQEND
0
POLYLINE
8
CUT
66
1
70
0
0
VERTEX
8
CUT
10
57.4218
20
42.7074
0
VERTEX
8
CUT
10
57.4218
20
40.5426
0
VERTEX
8
CUT
10
54.8974
20
42
0
VERTEX
8
CUT
10
56.7723
20
43.0824
0
SEQEND
0
LINE
8
CUT
10
48.4974
20
41.25
11
48.4974
21
28.75
0
LINE
8
CUT
10
49.1469
20
41.625
11
59.9723
21
35.375
0
LINE
8
CUT
10
49.1469
20
28.375
11
59.9723
21
34.625
0
POLYLINE
8
CUT
66
1
70
0
0
VERTEX
8
CUT
10
49.2974
20
39.8644
0
VERTEX
8
CUT
10
49.2974
20
29.3856
0
VERTEX
8
CUT
10
59.0218
20
35
0
VERTEX
8
CUT
10
49.9469
20
40.2394
0
SEQEND
0
POLYLINE
8
CUT
66
1
70
0
0
VERTEX
8
CUT
10
50.7469
20
31.1463
0
VERTEX
8
CUT
10
57.4218
20
35
0
VERTEX
8
CUT
10
50.0974
20
39.2287
0
VERTEX
8
CUT
10
50.0974
20
31.5213
0
SEQEND
0
POLYLINE
8
CUT
66
1
70
0
0
VERTEX
8
CUT
10
55.1723
20
35.375
0
VERTEX
8
CUT
10
50.8974
20
37.8431
0
VERTEX
8
CUT
10
50.8974
20
32.1569
0
VERTEX
8
CUT
10
55.1723
20
34.625
0
SEQEND
0
POLYLINE
8
CUT
66
1
70
0
0
VERTEX
8
CUT
10
51.6974
20
35.7074
0
VERTEX
8
CUT
10
51.6974
20
33.5426
0
VERTEX
8
CUT
10
54.2218
20
35
0
VERTEX
8
CUT
10
52.3469
20
36.0824
0
SEQEND
0
POLYLINE
8
CUT
66
1
70
0
0
VERTEX
8
CUT
10
59.8218
20
32.8644
0
VERTEX
8
CUT
10
59.8218
20
22.3856
0
VERTEX
8
CUT
10
50.0974
20
28
0
VERTEX
8
CUT
10
59.1723
20
33.2394
0
SEQEND
0
POLYLINE
8
CUT
66
1
70
0
0
VERTEX
8
CUT
10
58.3723
20
24.1463
0
VERTEX
8
CUT
10
51.6974
20
28
0
VERTEX
8
CUT
10
59.0218
20
32.2287
0
VERTEX
8
CUT
10
59.0218
20
24.5213
0
SEQEND
0
POLYLINE
8
CUT
66
1
70
0
0
VERTEX
8
CUT
10
53.9469
20
28.375
0
VERTEX
8
CUT
10
58.2218
20
30.8431
0
VERTEX
8
CUT
10
58.2218
20
25.1569
0
VERTEX
8
CUT
10
53.9469
20
27.625
0
SEQEND
0
POLYLINE
8
CUT
66
1
70
0
0
VERTEX
8
CUT
10
57.4218
20
28.7074
0
VERTEX
8
CUT
10
57.4218
20
26.5426
0
VERTEX
8
CUT
10
54.8974
20
28
0
VERTEX
8
CUT
10
56.7723
20
29.0824
0
SEQEND
0
LINE
8
CUT
10
48.4974
20
27.25
11
48.4974
21
14.75
0
LINE
8
CUT
10
49.1469
20
27.625
11
59.9723
21
21.375
0
LINE
8
CUT
10
49.1469
20
14.375
11
59.9723
21
20.625
0
POLYLINE
8
CUT
66
1
70
0
0
VERTEX
8
CUT
10
49.2974
20
25.8644
0
VERTEX
8
CUT
10
49.2974
20
15.3856
0
VERTEX
8
CUT
10
59.0218
20
21
0
VERTEX
8
CUT
10
49.9469
20
26.2394
0
SEQEND
0
POLYLINE
8
CUT
66
1
70
0
0
VERTEX
8
CUT
10
50.7469
20
17.1463
0
VERTEX
8
CUT
10
57.4218
20
21
0
VERTEX
8
CUT
10
50.0974
20
25.2287
0
VERTEX
8
CUT
10
50.0974
20
17.5213
0
SEQEND
0
POLYLINE
8
CUT
66
1
70
0
0
VERTEX
8
CUT
10
55.1723
20
21.375
0
VERTEX
8
CUT
10
50.8974
20
23.8431
0
VERTEX
8
CUT
10
50.8974
20
18.1569
0
VERTEX
8
CUT
10
55.1723
20
20.625
0
SEQEND
0
POLYLINE
8
CUT
66
1
70
0
0
VERTEX
8
CUT
10
51.6974
20
21.7074
0
VERTEX
8
CUT
10
51.6974
20
19.5426
0
VERTEX
8
CUT
10
54.2218
20
21
0
VERTEX
8
CUT
10
52.3469
20
22.0824
0
SEQEND
0
POLYLINE
8
CUT
66
1
70
0
0
VERTEX
8
CUT
10
59.8218
20
18.8644
0
VERTEX
8
CUT
10
59.8218
20
8.3856
0
VERTEX
8
CUT
10
50.0974
20
14
0
VERTEX
8
CUT
10
59.1723
20
19.2394
0
SEQEND
0
POLYLINE
8
CUT
66
1
70
0
0
VERTEX
8
CUT
10
58.3723
20
10.1463
0
VERTEX
8
CUT
10
51.6974
20
14
0
VERTEX
8
CUT
10
59.0218
20
18.2287
0
VERTEX
8
CUT
10
59.0218
20
10.5213
0
SEQEND
0
POLYLINE
8
CUT
66
1
70
0
0
VERTEX
8
CUT
10
53.9469
20
14.375
0
VERTEX
8
CUT
10
58.2218
20
16.8431
0
VERTEX
8
CUT
10
58.2218
20
11.1569
0
VERTEX
8
CUT
10
53.9469
20
13.625
0
SEQEND
0
POLYLINE
8
CUT
66
1
70
0
0
VERTEX
8
CUT
10
57.4218
20
14.7074
0
VERTEX
8
CUT
10
57.4218
20
12.5426
0
VERTEX
8
CUT
10
54.8974
20
14
0
VERTEX
8
CUT
10
56.7723
20
15.0824
0
SEQEND
0
LINE
8
CUT
10
48.4974
20
13.25
11
48.4974
21
0.75
0
LINE
8
CUT
10
49.1469
20
13.625
11
59.9723
21
7.375
0
LINE
8
CUT
10
49.1469
20
0.375
11
59.9723
21
6.625
0
POLYLINE
8
CUT
66
1
70
0
0
VERTEX
8
CUT
10
49.2974
20
11.8644
0
VERTEX
8
CUT
10
49.2974
20
1.3856
0
VERTEX
8
CUT
10
59.0218
20
7
0
VERTEX
8
CUT
10
49.9469
20
12.2394
0
SEQEND
0
POLYLINE
8
CUT
66
1
70
0
0
VERTEX
8
CUT
10
50.7469
20
3.1463
0
VERTEX
8
CUT
10
57.4218
20
7
0
VERTEX
8
CUT
10
50.0974
20
11.2287
0
VERTEX
8
CUT
10
50.0974
20
3.5213
0
SEQEND
0
POLYLINE
8
CUT
66
1
70
0
0
VERTEX
8
CUT
10
55.1723
20
7.375
0
VERTEX
8
CUT
10
50.8974
20
9.8431
0
VERTEX
8
CUT
10
50.8974
20
4.1569
0
VERTEX
8
CUT
10
55.1723
20
6.625
0
SEQEND
0
POLYLINE
8
CUT
66
1
70
0
0
VERTEX
8
CUT
10
51.6974
20
7.7074
0
VERTEX
8
CUT
10
51.6974
20
5.5426
0
VERTEX
8
CUT
10
54.2218
20
7
0
VERTEX
8
CUT
10
52.3469
20
8.0824
0
SEQEND
0
LINE
8
CUT
10
59.8218
20
4.8644
11
59.8218
21
0
0
POLYLINE
8
CUT
66
1
70
0
0
VERTEX
8
CUT
10
50.0974
20
0
0
VERTEX
8
CUT
10
50.0974
20
0
0
VERTEX
8
CUT
10
59.1723
20
5.2394
0
SEQEND
0
POLYLINE
8
CUT
66
1
70
0
0
VERTEX
8
CUT
10
51.6974
20
0
0
VERTEX
8
CUT
10
51.6974
20
0
0
VERTEX
8
CUT
10
59.0218
20
4.2287
0
VERTEX
8
CUT
10
59.0218
20
0
0
SEQEND
0
POLYLINE
8
CUT
66
1
70
0
0
VERTEX
8
CUT
10
53.9469
20
0.375
0
VERTEX
8
CUT
10
58.2218
20
2.8431
0
VERTEX
8
CUT
10
58.2218
20
0
0
SEQEND
0
LINE
8
CUT
10
57.4218
20
0.7074
11
57.4218
21
0
0
POLYLINE
8
CUT
66
1
70
0
0
VERTEX
8
CUT
10
54.8974
20
0
0
VERTEX
8
CUT
10
54.8974
20
0
0
VERTEX
8
CUT
10
56.7723
20
1.0824
0
SEQEND
0
LINE
8
CUT
10
60.6218
20
70
11
60.6218
21
63.75
0
LINE
8
CUT
10
61.2713
20
63.375
11
72.0966
21
69.625
0
POLYLINE
8
CUT
66
1
70
0
0
VERTEX
8
CUT
10
61.4218
20
70
0
VERTEX
8
CUT
10
61.4218
20
64.3856
0
VERTEX
8
CUT
10
71.1461
20
70
0
VERTEX
8
CUT
10
71.1461
20
70
0
SEQEND
0
POLYLINE
8
CUT
66
1
70
0
0
VERTEX
8
CUT
10
62.8713
20
66.1463
0
VERTEX
8
CUT
10
69.5461
20
70
0
VERTEX
8
CUT
10
69.5461
20
70
0
SEQEND
0
LINE
8
CUT
10
62.2218
20
70
11
62.2218
21
66.5213
0
POLYLINE
8
CUT
66
1
70
0
0
VERTEX
8
CUT
10
63.0218
20
70
0
VERTEX
8
CUT
10
63.0218
20
67.1569
0
VERTEX
8
CUT
10
67.2966
20
69.625
0
SEQEND
0
POLYLINE
8
CUT
66
1
70
0
0
VERTEX
8
CUT
10
63.8218
20
70
0
VERTEX
8
CUT
10
63.8218
20
68.5426
0
VERTEX
8
CUT
10
66.3461
20
70
0
VERTEX
8
CUT
10
66.3461
20
70
0
SEQEND
0
POLYLINE
8
CUT
66
1
70
0
0
VERTEX
8
CUT
10
71.9461
20
67.8644
0
VERTEX
8
CUT
10
71.9461
20
57.3856
0
VERTEX
8
CUT
10
62.2218
20
63
0
VERTEX
8
CUT
10
71.2966
20
68.2394
0
SEQEND
0
POLYLINE
8
CUT
66
1
70
0
0
VERTEX
8
CUT
10
70.4966
20
59.1463
0
VERTEX
8
CUT
10
63.8218
20
63
0
VERTEX
8
CUT
10
71.1461
20
67.2287
0
VERTEX
8
CUT
10
71.1461
20
59.5213
0
SEQEND
0
POLYLINE
8
CUT
66
1
70
0
0
VERTEX
8
CUT
10
66.0713
20
63.375
0
VERTEX
8
CUT
10
70.3461
20
65.8431
0
VERTEX
8
CUT
10
70.3461
20
60.1569
0
VERTEX
8
CUT
10
66.0713
20
62.625
0
SEQEND
0
POLYLINE
8
CUT
66
1
70
0
0
VERTEX
8
CUT
10
69.5461
20
63.7074
0
VERTEX
8
CUT
10
69.5461
20
61.5426
0
VERTEX
8
CUT
10
67.0218
20
63
0
VERTEX
8
CUT
10
68.8966
20
64.0824
0
SEQEND
0
LINE
8
CUT
10
60.6218
20
62.25
11
60.6218
21
49.75
0
LINE
8
CUT
10
61.2713
20
62.625
11
72.0966
21
56.375
0
LINE
8
CUT
10
61.2713
20
49.375
11
72.0966
21
55.625
0
POLYLINE
8
CUT
66
1
70
0
0
VERTEX
8
CUT
10
61.4218
20
60.8644
0
VERTEX
8
CUT
10
61.4218
20
50.3856
0
VERTEX
8
CUT
10
71.1461
20
56
0
VERTEX
8
CUT
10
62.0713
20
61.2394
0
SEQEND
0
POLYLINE
8
CUT
66
1
70
0
0
VERTEX
8
CUT
10
62.8713
20
52.1463
0
VERTEX
8
CUT
10
69.5461
20
56
0
VERTEX
8
CUT
10
62.2218
20
60.2287
0
VERTEX
8
CUT
10
62.2218
20
52.5213
0
SEQEND
0
POLYLINE
8
CUT
66
1
70
0
0
VERTEX
8
CUT
10
67.2966
20
56.375
0
VERTEX
8
CUT
10
63.0218
20
58.8431
0
VERTEX
8
CUT
10
63.0218
20
53.1569
0
VERTEX
8
CUT
10
67.2966
20
55.625
0
SEQEND
0
POLYLINE
8
CUT
66
1
70
0
0
VERTEX
8
CUT
10
63.8218
20
56.7074
0
VERTEX
8
CUT
10
63.8218
20
54.5426
0
VERTEX
8
CUT
10
66.3461
20
56
0
VERTEX
8
CUT
10
64.4713
20
57.0824
0
SEQEND
0
POLYLINE
8
CUT
66
1
70
0
0
VERTEX
8
CUT
10
71.9461
20
53.8644
0
VERTEX
8
CUT
10
71.9461
20
43.3856
0
VERTEX
8
CUT
10
62.2218
20
49
0
VERTEX
8
CUT
10
71.2966
20
54.2394
0
SEQEND
0
POLYLINE
8
CUT
66
1
70
0
0
VERTEX
8
CUT
10
70.4966
20
45.1463
0
VERTEX
8
CUT
10
63.8218
20
49
0
VERTEX
8
CUT
10
71.1461
20
53.2287
0
VERTEX
8
CUT
10
71.1461
20
45.5213
0
SEQEND
0
POLYLINE
8
CUT
66
1
70
0
0
VERTEX
8
CUT
10
66.0713
20
49.375
0
VERTEX
8
CUT
10
70.3461
20
51.8431
0
VERTEX
8
CUT
10
70.3461
20
46.1569
0
VERTEX
8
CUT
10
66.0713
20
48.625
0
SEQEND
0
POLYLINE
8
CUT
66
1
70
0
0
VERTEX
8
CUT
10
69.5461
20
49.7074
0
VERTEX
8
CUT
10
69.5461
20
47.5426
0
VERTEX
8
CUT
10
67.0218
20
49
0
VERTEX
8
CUT
10
68.8966
20
50.0824
0
SEQEND
0
LINE
8
CUT
10
60.6218
20
48.25
11
60.6218
21
35.75
0
LINE
8
CUT
10
61.2713
20
48.625
11
72.0966
21
42.375
0
LINE
8
CUT
10
61.2713
20
35.375
11
72.0966
21
41.625
0
POLYLINE
8
CUT
66
1
70
0
0
VERTEX
8
CUT
10
61.4218
20
46.8644
0
VERTEX
8
CUT
10
61.4218
20
36.3856
0
VERTEX
8
CUT
10
71.1461
20
42
0
VERTEX
8
CUT
10
62.0713
20
47.2394
0
SEQEND
0
POLYLINE
8
CUT
66
1
70
0
0
VERTEX
8
CUT
10
62.8713
20
38.1463
0
VERTEX
8
CUT
10
69.5461
20
42
0
VERTEX
8
CUT
10
62.2218
20
46.2287
0
VERTEX
8
CUT
10
62.2218
20
38.5213
0
SEQEND
0
POLYLINE
8
CUT
66
1
70
0
0
VERTEX
8
CUT
10
67.2966
20
42.375
0
VERTEX
8
CUT
10
63.0218
20
44.8431
0
VERTEX
8
CUT
10
63.0218
20
39.1569
0
VERTEX
8
CUT
10
67.2966
20
41.625
0
SEQEND
0
POLYLINE
8
CUT
66
1
70
0
0
VERTEX
8
CUT
10
63.8218
20
42.7074
0
VERTEX
8
CUT
10
63.8218
20
40.5426
0
VERTEX
8
CUT
10
66.3461
20
42
0
VERTEX
8
CUT
10
64.4713
20
43.0824
0
SEQEND
0
POLYLINE
8
CUT
66
1
70
0
0
VERTEX
8
CUT
10
71.9461
20
39.8644
0
VERTEX
8
CUT
10
71.9461
20
29.3856
0
VERTEX
8
CUT
10
62.2218
20
35
0
VERTEX
8
CUT
10
71.2966
20
40.2394
0
SEQEND
0
POLYLINE
8
CUT
66
1
70
0
0
VERTEX
8
CUT
10
70.4966
20
31.1463
0
VERTEX
8
CUT
10
63.8218
20
35
0
VERTEX
8
CUT
10
71.1461
20
39.2287
0
VERTEX
8
CUT
10
71.1461
20
31.5213
0
SEQEND
0
POLYLINE
8
CUT
66
1
70
0
0
VERTEX
8
CUT
10
66.0713
20
35.375
0
VERTEX
8
CUT
10
70.3461
20
37.8431
0
VERTEX
8
CUT
10
70.3461
20
32.1569
0
VERTEX
8
CUT
10
66.0713
20
34.625
0
SEQEND
0
POLYLINE
8
CUT
66
1
70
0
0
VERTEX
8
CUT
10
69.5461
20
35.7074
0
VERTEX
8
CUT
10
69.5461
20
33.5426
0
VERTEX
8
CUT
10
67.0218
20
35
0
VERTEX
8
CUT
10
68.8966
20
36.0824
0
SEQEND
0
LINE
8
CUT
10
60.6218
20
34.25
11
60.6218
21
21.75
0
LINE
8
CUT
10
61.2713
20
34.625
11
72.0966
21
28.375
0
LINE
8
CUT
10
61.2713
20
21.375
11
72.0966
21
27.625
0
POLYLINE
8
CUT
66
1
70
0
0
VERTEX
8
CUT
10
61.4218
20
32.8644
0
VERTEX
8
CUT
10
61.4218
20
22.3856
0
VERTEX
8
CUT
10
71.1461
20
28
0
VERTEX
8
CUT
10
62.0713
20
33.2394
0
SEQEND
0
POLYLINE
8
CUT
66
1
70
0
0
VERTEX
8
CUT
10
62.8713
20
24.1463
0
VERTEX
8
CUT
10
69.5461
20
28
0
VERTEX
8
CUT
10
62.2218
20
32.2287
0
VERTEX
8
CUT
10
62.2218
20
24.5213
0
SEQEND
0
POLYLINE
8
CUT
66
1
70
0
0
VERTEX
8
CUT
10
67.2966
20
28.375
0
VERTEX
8
CUT
10
63.0218
20
30.8431
0
VERTEX
8
CUT
10
63.0218
20
25.1569
0
VERTEX
8
CUT
10
67.2966
20
27.625
0
SEQEND
0
POLYLINE
8
CUT
66
1
70
0
0
VERTEX
8
CUT
10
63.8218
20
28.7074
0
VERTEX
8
CUT
10
63.8218
20
26.5426
0
VERTEX
8
CUT
10
66.3461
20
28
0
VERTEX
8
CUT
10
64.4713
20
29.0824
0
SEQEND
0
POLYLINE
8
CUT
66
1
70
0
0
VERTEX
8
CUT
10
71.9461
20
25.8644
0
VERTEX
8
CUT
10
71.9461
20
15.3856
0
VERTEX
8
CUT
10
62.2218
20
21
0
VERTEX
8
CUT
10
71.2966
20
26.2394
0
SEQEND
0
POLYLINE
8
CUT
66
1
70
0
0
VERTEX
8
CUT
10
70.4966
20
17.1463
0
VERTEX
8
CUT
10
63.8218
20
21
0
VERTEX
8
CUT
10
71.1461
20
25.2287
0
VERTEX
8
CUT
10
71.1461
20
17.5213
0
SEQEND
0
POLYLINE
8
CUT
66
1
70
0
0
VERTEX
8
CUT
10
66.0713
20
21.375
0
VERTEX
8
CUT
10
70.3461
20
23.8431
0
VERTEX
8
CUT
10
70.3461
20
18.1569
0
VERTEX
8
CUT
10
66.0713
20
20.625
0
SEQEND
0
POLYLINE
8
CUT
66
1
70
0
0
VERTEX
8
CUT
10
69.5461
20
21.7074
0
VERTEX
8
CUT
10
69.5461
20
19.5426
0
VERTEX
8
CUT
10
67.0218
20
21
0
VERTEX
8
CUT
10
68.8966
20
22.0824
0
SEQEND
0
LINE
8
CUT
10
60.6218
20
20.25
11
60.6218
21
7.75
0
LINE
8
CUT
10
61.2713
20
20.625
11
72.0966
21
14.375
0
LINE
8
CUT
10
61.2713
20
7.375
11
72.0966
21
13.625
0
POLYLINE
8
CUT
66
1
70
0
0
VERTEX
8
CUT
10
61.4218
20
18.8644
0
VERTEX
8
CUT
10
61.4218
20
8.3856
0
VERTEX
8
CUT
10
71.1461
20
14
0
VERTEX
8
CUT
10
62.0713
20
19.2394
0
SEQEND
0
POLYLINE
8
CUT
66
1
70
0
0
VERTEX
8
CUT
10
62.8713
20
10.1463
0
VERTEX
8
CUT
10
69.5461
20
14
0
VERTEX
8
CUT
10
62.2218
20
18.2287
0
VERTEX
8
CUT
10
62.2218
20
10.5213
0
SEQEND
0
POLYLINE
8
CUT
66
1
70
0
0
VERTEX
8
CUT
10
67.2966
20
14.375
0
VERTEX
8
CUT
10
63.0218
20
16.8431
0
VERTEX
8
CUT
10
63.0218
20
11.1569
0
VERTEX
8
CUT
10
67.2966
20
13.625
0
SEQEND
0
POLYLINE
8
CUT
66
1
70
0
0
VERTEX
8
CUT
10
63.8218
20
14.7074
0
VERTEX
8
CUT
10
63.8218
20
12.5426
0
VERTEX
8
CUT
10
66.3461
20
14
0
VERTEX
8
CUT
10
64.4713
20
15.0824
0
SEQEND
0
POLYLINE
8
CUT
66
1
70
0
0
VERTEX
8
CUT
10
71.9461
20
11.8644
0
VERTEX
8
CUT
10
71.9461
20
1.3856
0
VERTEX
8
CUT
10
62.2218
20
7
0
VERTEX
8
CUT
10
71.2966
20
12.2394
0
SEQEND
0
POLYLINE
8
CUT
66
1
70
0
0
VERTEX
8
CUT
10
70.4966
20
3.1463
0
VERTEX
8
CUT
10
63.8218
20
7
0
VERTEX
8
CUT
10
71.1461
20
11.2287
0
VERTEX
8
CUT
10
71.1461
20
3.5213
0
SEQEND
0
POLYLINE
8
CUT
66
1
70
0
0
VERTEX
8
CUT
10
66.0713
20
7.375
0
VERTEX
8
CUT
10
70.3461
20
9.8431
0
VERTEX
8
CUT
10
70.3461
20
4.1569
0
VERTEX
8
CUT
10
66.0713
20
6.625
0
SEQEND
0
POLYLINE
8
CUT
66
1
70
0
0
VERTEX
8
CUT
10
69.5461
20
7.7074
0
VERTEX
8
CUT
10
69.5461
20
5.5426
0
VERTEX
8
CUT
10
67.0218
20
7
0
VERTEX
8
CUT
10
68.8966
20
8.0824
0
SEQEND
0
LINE
8
CUT
10
60.6218
20
6.25
11
60.6218
21
0
0
LINE
8
CUT
10
61.2713
20
6.625
11
72.0966
21
0.375
0
LINE
8
CUT
10
61.4218
20
4.8644
11
61.4218
21
0
0
POLYLINE
8
CUT
66
1
70
0
0
VERTEX
8
CUT
10
71.1461
20
0
0
VERTEX
8
CUT
10
71.1461
20
0
0
VERTEX
8
CUT
10
62.0713
20
5.2394
0
SEQEND
0
POLYLINE
8
CUT
66
1
70
0
0
VERTEX
8
CUT
10
69.5461
20
0
0
VERTEX
8
CUT
10
69.5461
20
0
0
VERTEX
8
CUT
10
62.2218
20
4.2287
0
VERTEX
8
CUT
10
62.2218
20
0
0
SEQEND
0
POLYLINE
8
CUT
66
1
70
0
0
VERTEX
8
CUT
10
67.2966
20
0.375
0
VERTEX
8
CUT
10
63.0218
20
2.8431
0
VERTEX
8
CUT
10
63.0218
20
0
0
SEQEND
0
LINE
8
CUT
10
63.8218
20
0.7074
11
63.8218
21
0
0
POLYLINE
8
CUT
66
1
70
0
0
VERTEX
8
CUT
10
66.3461
20
0
0
VERTEX
8
CUT
10
66.3461
20
0
0
VERTEX
8
CUT
10
64.4713
20
1.0824
0
SEQEND
0
POLYLINE
8
CUT
66
1
70
0
0
VERTEX
8
CUT
10
84.0705
20
70
0
VERTEX
8
CUT
10
84.0705
20
64.3856
0
VERTEX
8
CUT
10
74.3461
20
70
0
VERTEX
8
CUT
10
74.3461
20
70
0
SEQEND
0
POLYLINE
8
CUT
66
1
70
0
0
VERTEX
8
CUT
10
82.621
20
66.1463
0
VERTEX
8
CUT
10
75.9461
20
70
0
VERTEX
8
CUT
10
75.9461
20
70
0
SEQEND
0
LINE
8
CUT
10
83.2705
20
70
11
83.2705
21
66.5213
0
POLYLINE
8
CUT
66
1
70
0
0
VERTEX
8
CUT
10
82.4705
20
70
0
VERTEX
8
CUT
10
82.4705
20
67.1569
0
VERTEX
8
CUT
10
78.1957
20
69.625
0
SEQEND
0
POLYLINE
8
CUT
66
1
70
0
0
VERTEX
8
CUT
10
81.6705
20
70
0
VERTEX
8
CUT
10
81.6705
20
68.5426
0
VERTEX
8
CUT
10
79.1461
20
70
0
VERTEX
8
CUT
10
79.1461
20
70
0
SEQEND
0
LINE
8
CUT
10
72.7461
20
69.25
11
72.7461
21
56.75
0
LINE
8
CUT
10
73.3957
20
69.625
11
84.221
21
63.375
0
LINE
8
CUT
10
73.3957
20
56.375
11
84.221
21
62.625
0
POLYLINE
8
CUT
66
1
70
0
0
VERTEX
8
CUT
10
73.5461
20
67.8644
0
VERTEX
8
CUT
10
73.5461
20
57.3856
0
VERTEX
8
CUT
10
83.2705
20
63
0
VERTEX
8
CUT
10
74.1957
20
68.2394
0
SEQEND
0
POLYLINE
8
CUT
66
1
70
0
0
VERTEX
8
CUT
10
74.9957
20
59.1463
0
VERTEX
8
CUT
10
81.6705
20
63
0
VERTEX
8
CUT
10
74.3461
20
67.2287
0
VERTEX
8
CUT
10
74.3461
20
59.5213
0
SEQEND
0
POLYLINE
8
CUT
66
1
70
0
0
VERTEX
8
CUT
10
79.421
20
63.375
0
VERTEX
8
CUT
10
75.1461
20
65.8431
0
VERTEX
8
CUT
10
75.1461
20
60.1569
0
VERTEX
8
CUT
10
79.421
20
62.625
0
SEQEND
0
POLYLINE
8
CUT
66
1
70
0
0
VERTEX
8
CUT
10
75.9461
20
63.7074
0
VERTEX
8
CUT
10
75.9461
20
61.5426
0
VERTEX
8
CUT
10
78.4705
20
63
0
VERTEX
8
CUT
10
76.5957
20
64.0824
0
SEQEND
0
POLYLINE
8
CUT
66
1
70
0
0
VERTEX
8
CUT
10
84.0705
20
60.8644
0
VERTEX
8
CUT
10
84.0705
20
50.3856
0
VERTEX
8
CUT
10
74.3461
20
56
0
VERTEX
8
CUT
10
83.421
20
61.2394
0
SEQEND
0
POLYLINE
8
CUT
66
1
70
0
0
VERTEX
8
CUT
10
82.621
20
52.1463
0
VERTEX
8
CUT
10
75.9461
20
56
0
VERTEX
8
CUT
10
83.2705
20
60.2287
0
VERTEX
8
CUT
10
83.2705
20
52.5213
0
SEQEND
0
POLYLINE
8
CUT
66
1
70
0
0
VERTEX
8
CUT
10
78.1957
20
56.375
0
VERTEX
8
CUT
10
82.4705
20
58.8431
0
VERTEX
8
CUT
10
82.4705
20
53.1569
0
VERTEX
8
CUT
10
78.1957
20
55.625
0
SEQEND
0
POLYLINE
8
CUT
66
1
70
0
0
VERTEX
8
CUT
10
81.6705
20
56.7074
0
VERTEX
8
CUT
10
81.6705
20
54.5426
0
VERTEX
8
CUT
10
79.1461
20
56
0
VERTEX
8
CUT
10
81.021
20
57.0824
0
SEQEND
0
LINE
8
CUT
10
72.7461
20
55.25
11
72.7461
21
42.75
0
LINE
8
CUT
10
73.3957
20
55.625
11
84.221
21
49.375
0
LINE
8
CUT
10
73.3957
20
42.375
11
84.221
21
48.625
0
POLYLINE
8
CUT
66
1
70
0
0
VERTEX
8
CUT
10
73.5461
20
53.8644
0
VERTEX
8
CUT
10
73.5461
20
43.3856
0
VERTEX
8
CUT
10
83.2705
20
49
0
VERTEX
8
CUT
10
74.1957
20
54.2394
0
SEQEND
0
POLYLINE
8
CUT
66
1
70
0
0
VERTEX
8
CUT
10
74.9957
20
45.1463
0
VERTEX
8
CUT
10
81.6705
20
49
0
VERTEX
8
CUT
10
74.3461
20
53.2287
0
VERTEX
8
CUT
10
74.3461
20
45.5213
0
SEQEND
0
POLYLINE
8
CUT
66
1
70
0
0
VERTEX
8
CUT
10
79.421
20
49.375
0
VERTEX
8
CUT
10
75.1461
20
51.8431
0
VERTEX
8
CUT
10
75.1461
20
46.1569
0
VERTEX
8
CUT
10
79.421
20
48.625
0
SEQEND
0
POLYLINE
8
CUT
66
1
70
0
0
VERTEX
8
CUT
10
75.9461
20
49.7074
0
VERTEX
8
CUT
10
75.9461
20
47.5426
0
VERTEX
8
CUT
10
78.4705
20
49
0
VERTEX
8
CUT
10
76.5957
20
50.0824
0
SEQEND
0
POLYLINE
8
CUT
66
1
70
0
0
VERTEX
8
CUT
10
84.0705
20
46.8644
0
VERTEX
8
CUT
10
84.0705
20
36.3856
0
VERTEX
8
CUT
10
74.3461
20
42
0
VERTEX
8
CUT
10
83.421
20
47.2394
0
SEQEND
0
POLYLINE
8
CUT
66
1
70
0
0
VERTEX
8
CUT
10
82.621
20
38.1463
0
VERTEX
8
CUT
10
75.9461
20
42
0
VERTEX
8
CUT
10
83.2705
20
46.2287
0
VERTEX
8
CUT
10
83.2705
20
38.5213
0
SEQEND
0
POLYLINE
8
CUT
66
1
70
0
0
VERTEX
8
CUT
10
78.1957
20
42.375
0
VERTEX
8
CUT
10
82.4705
20
44.8431
0
VERTEX
8
CUT
10
82.4705
20
39.1569
0
VERTEX
8
CUT
10
78.1957
20
41.625
0
SEQEND
0
POLYLINE
8
CUT
66
1
70
0
0
VERTEX
8
CUT
10
81.6705
20
42.7074
0
VERTEX
8
CUT
10
81.6705
20
40.5426
0
VERTEX
8
CUT
10
79.1461
20
42
0
VERTEX
8
CUT
10
81.021
20
43.0824
0
SEQEND
0
LINE
8
CUT
10
72.7461
20
41.25
11
72.7461
21
28.75
0
LINE
8
CUT
10
73.3957
20
41.625
11
84.221
21
35.375
0
LINE
8
CUT
10
73.3957
20
28.375
11
84.221
21
34.625
0
POLYLINE
8
CUT
66
1
70
0
0
VERTEX
8
CUT
10
73.5461
20
39.8644
0
VERTEX
8
CUT
10
73.5461
20
29.3856
0
VERTEX
8
CUT
10
83.2705
20
35
0
VERTEX
8
CUT
10
74.1957
20
40.2394
0
SEQEND
0
POLYLINE
8
CUT
66
1
70
0
0
VERTEX
8
CUT
10
74.9957
20
31.1463
0
VERTEX
8
CUT
10
81.6705
20
35
0
VERTEX
8
CUT
10
74.3461
20
39.2287
0
VERTEX
8
CUT
10
74.3461
20
31.5213
0
SEQEND
0
POLYLINE
8
CUT
66
1
70
0
0
VERTEX
8
CUT
10
79.421
20
35.375
0
VERTEX
8
CUT
10
75.1461
20
37.8431
0
VERTEX
8
CUT
10
75.1461
20
32.1569
0
VERTEX
8
CUT
10
79.421
20
34.625
0
SEQEND
0
POLYLINE
8
CUT
66
1
70
0
0
VERTEX
8
CUT
10
75.9461
20
35.7074
0
VERTEX
8
CUT
10
75.9461
20
33.5426
0
VERTEX
8
CUT
10
78.4705
20
35
0
VERTEX
8
CUT
10
76.5957
20
36.0824
0
SEQEND
0
POLYLINE
8
CUT
66
1
70
0
0
VERTEX
8
CUT
10
84.0705
20
32.8644
0
VERTEX
8
CUT
10
84.0705
20
22.3856
0
VERTEX
8
CUT
10
74.3461
20
28
0
VERTEX
8
CUT
10
83.421
20
33.2394
0
SEQEND
0
POLYLINE
8
CUT
66
1
70
0
0
VERTEX
8
CUT
10
82.621
20
24.1463
0
VERTEX
8
CUT
10
75.9461
20
28
0
VERTEX
8
CUT
10
83.2705
20
32.2287
0
VERTEX
8
CUT
10
83.2705
20
24.5213
0
SEQEND
0
POLYLINE
8
CUT
66
1
70
0
0
VERTEX
8
CUT
10
78.1957
20
28.375
0
VERTEX
8
CUT
10
82.4705
20
30.8431
0
VERTEX
8
CUT
10
82.4705
20
25.1569
0
VERTEX
8
CUT
10
78.1957
20
27.625
0
SEQEND
0
POLYLINE
8
CUT
66
1
70
0
0
VERTEX
8
CUT
10
81.6705
20
28.7074
0
VERTEX
8
CUT
10
81.6705
20
26.5426
0
VERTEX
8
CUT
10
79.1461
20
28
0
VERTEX
8
CUT
10
81.021
20
29.0824
0
SEQEND
0
LINE
8
CUT
10
72.7461
20
27.25
11
72.7461
21
14.75
0
LINE
8
CUT
10
73.3957
20
27.625
11
84.221
21
21.375
0
LINE
8
CUT
10
73.3957
20
14.375
11
84.221
21
20.625
0
POLYLINE
8
CUT
66
1
70
0
0
VERTEX
8
CUT
10
73.5461
20
25.8644
0
VERTEX
8
CUT
10
73.5461
20
15.3856
0
VERTEX
8
CUT
10
83.2705
20
21
0
VERTEX
8
CUT
10
74.1957
20
26.2394
0
SEQEND
0
POLYLINE
8
CUT
66
1
70
0
0
VERTEX
8
CUT
10
74.9957
20
17.1463
0
VERTEX
8
CUT
10
81.6705
20
21
0
VERTEX
8
CUT
10
74.3461
20
25.2287
0
VERTEX
8
CUT
10
74.3461
20
17.5213
0
SEQEND
0
POLYLINE
8
CUT
66
1
70
0
0
VERTEX
8
CUT
10
79.421
20
21.375
0
VERTEX
8
CUT
10
75.1461
20
23.8431
0
VERTEX
8
CUT
10
75.1461
20
18.1569
0
VERTEX
8
CUT
10
79.421
20
20.625
0
SEQEND
0
POLYLINE
8
CUT
66
1
70
0
0
VERTEX
8
CUT
10
75.9461
20
21.7074
0
VERTEX
8
CUT
10
75.9461
20
19.5426
0
VERTEX
8
CUT
10
78.4705
20
21
0
VERTEX
8
CUT
10
76.5957
20
22.0824
0
SEQEND
0
POLYLINE
8
CUT
66
1
70
0
0
VERTEX
8
CUT
10
84.0705
20
18.8644
0
VERTEX
8
CUT
10
84.0705
20
8.3856
0
VERTEX
8
CUT
10
74.3461
20
14
0
VERTEX
8
CUT
10
83.421
20
19.2394
0
SEQEND
0
POLYLINE
8
CUT
66
1
70
0
0
VERTEX
8
CUT
10
82.621
20
10.1463
0
VERTEX
8
CUT
10
75.9461
20
14
0
VERTEX
8
CUT
10
83.2705
20
18.2287
0
VERTEX
8
CUT
10
83.2705
20
10.5213
0
SEQEND
0
POLYLINE
8
CUT
66
1
70
0
0
VERTEX
8
CUT
10
78.1957
20
14.375
0
VERTEX
8
CUT
10
82.4705
20
16.8431
0
VERTEX
8
CUT
10
82.4705
20
11.1569
0
VERTEX
8
CUT
10
78.1957
20
13.625
0
SEQEND
0
POLYLINE
8
CUT
66
1
70
0
0
VERTEX
8
CUT
10
81.6705
20
14.7074
0
VERTEX
8
CUT
10
81.6705
20
12.5426
0
VERTEX
8
CUT
10
79.1461
20
14
0
VERTEX
8
CUT
10
81.021
20
15.0824
0
SEQEND
0
LINE
8
CUT
10
72.7461
20
13.25
11
72.7461
21
0.75
0
LINE
8
CUT
10
73.3957
20
13.625
11
84.221
21
7.375
0
LINE
8
CUT
10
73.3957
20
0.375
11
84.221
21
6.625
0
POLYLINE
8
CUT
66
1
70
0
0
VERTEX
8
CUT
10
73.5461
20
11.8644
0
VERTEX
8
CUT
10
73.5461
20
1.3856
0
VERTEX
8
CUT
10
83.2705
20
7
0
VERTEX
8
CUT
10
74.1957
20
12.2394
0
SEQEND
0
POLYLINE
8
CUT
66
1
70
0
0
VERTEX
8
CUT
10
74.9957
20
3.1463
0
VERTEX
8
CUT
10
81.6705
20
7
0
VERTEX
8
CUT
10
74.3461
20
11.2287
0
VERTEX
8
CUT
10
74.3461
20
3.5213
0
SEQEND
0
POLYLINE
8
CUT
66
1
70
0
0
VERTEX
8
CUT
10
79.421
20
7.375
0
VERTEX
8
CUT
10
75.1461
20
9.8431
0
VERTEX
8
CUT
10
75.1461
20
4.1569
0
VERTEX
8
CUT
10
79.421
20
6.625
0
SEQEND
0
POLYLINE
8
CUT
66
1
70
0
0
VERTEX
8
CUT
10
75.9461
20
7.7074
0
VERTEX
8
CUT
10
75.9461
20
5.5426
0
VERTEX
8
CUT
10
78.4705
20
7
0
VERTEX
8
CUT
10
76.5957
20
8.0824
0
SEQEND
0
LINE
8
CUT
10
84.0705
20
4.8644
11
84.0705
21
0
0
POLYLINE
8
CUT
66
1
70
0
0
VERTEX
8
CUT
10
74.3461
20
0
0
VERTEX
8
CUT
10
74.3461
20
0
0
VERTEX
8
CUT
10
83.421
20
5.2394
0
SEQEND
0
POLYLINE
8
CUT
66
1
70
0
0
VERTEX
8
CUT
10
75.9461
20
0
0
VERTEX
8
CUT
10
75.9461
20
0
0
VERTEX
8
CUT
10
83.2705
20
4.2287
0
VERTEX
8
CUT
10
83.2705
20
0
0
SEQEND
0
POLYLINE
8
CUT
66
1
70
0
0
VERTEX
8
CUT
10
78.1957
20
0.375
0
VERTEX
8
CUT
10
82.4705
20
2.8431
0
VERTEX
8
CUT
10
82.4705
20
0
0
SEQEND
0
LINE
8
CUT
10
81.6705
20
0.7074
11
81.6705
21
0
0
POLYLINE
8
CUT
66
1
70
0
0
VERTEX
8
CUT
10
79.1461
20
0
0
VERTEX
8
CUT
10
79.1461
20
0
0
VERTEX
8
CUT
10
81.021
20
1.0824
0
SEQEND
0
LINE
8
CUT
10
84.8705
20
70
11
84.8705
21
63.75
0
LINE
8
CUT
10
85.52
20
63.375
11
96.3453
21
69.625
0
POLYLINE
8
CUT
66
1
70
0
0
VERTEX
8
CUT
10
85.6705
20
70
0
VERTEX
8
CUT
10
85.6705
20
64.3856
0
VERTEX
8
CUT
10
95.3948
20
70
0
VERTEX
8
CUT
10
95.3948
20
70
0
SEQEND
0
POLYLINE
8
CUT
66
1
70
0
0
VERTEX
8
CUT
10
87.12
20
66.1463
0
VERTEX
8
CUT
10
93.7948
20
70
0
VERTEX
8
CUT
10
93.7948
20
70
0
SEQEND
0
LINE
8
CUT
10
86.4705
20
70
11
86.4705
21
66.5213
0
POLYLINE
8
CUT
66
1
70
0
0
VERTEX
8
CUT
10
87.2705
20
70
0
VERTEX
8
CUT
10
87.2705
20
67.1569
0
VERTEX
8
CUT
10
91.5453
20
69.625
0
SEQEND
0
POLYLINE
8
CUT
66
1
70
0
0
VERTEX
8
CUT
10
88.0705
20
70
0
VERTEX
8
CUT
10
88.0705
20
68.5426
0
VERTEX
8
CUT
10
90.5948
20
70
0
VERTEX
8
CUT
10
90.5948
20
70
0
SEQEND
0
POLYLINE
8
CUT
66
1
70
0
0
VERTEX
8
CUT
10
96.1948
20
67.8644
0
VERTEX
8
CUT
10
96.1948
20
57.3856
0
VERTEX
8
CUT
10
86.4705
20
63
0
VERTEX
8
CUT
10
95.5453
20
68.2394
0
SEQEND
0
POLYLINE
8
CUT
66
1
70
0
0
VERTEX
8
CUT
10
94.7453
20
59.1463
0
VERTEX
8
CUT
10
88.0705
20
63
0
VERTEX
8
CUT
10
95.3948
20
67.2287
0
VERTEX
8
CUT
10
95.3948
20
59.5213
0
SEQEND
0
POLYLINE
8
CUT
66
1
70
0
0
VERTEX
8
CUT
10
90.32
20
63.375
0
VERTEX
8
CUT
10
94.5948
20
65.8431
0
VERTEX
8
CUT
10
94.5948
20
60.1569
0
VERTEX
8
CUT
10
90.32
20
62.625
0
SEQEND
0
POLYLINE
8
CUT
66
1
70
0
0
VERTEX
8
CUT
10
93.7948
20
63.7074
0
VERTEX
8
CUT
10
93.7948
20
61.5426
0
VERTEX
8
CUT
10
91.2705
20
63
0
VERTEX
8
CUT
10
93.1453
20
64.0824
0
SEQEND
0
LINE
8
CUT
10
84.8705
20
62.25
11
84.8705
21
49.75
0
LINE
8
CUT
10
85.52
20
62.625
11
96.3453
21
56.375
0
LINE
8
CUT
10
85.52
20
49.375
11
96.3453
21
55.625
0
POLYLINE
8
CUT
66
1
70
0
0
VERTEX
8
CUT
10
85.6705
20
60.8644
0
VERTEX
8
CUT
10
85.6705
20
50.3856
0
VERTEX
8
CUT
10
95.3948
20
56
0
VERTEX
8
CUT
10
86.32
20
61.2394
0
SEQEND
0
POLYLINE
8
CUT
66
1
70
0
0
VERTEX
8
CUT
10
87.12
20
52.1463
0
VERTEX
8
CUT
10
93.7948
20
56
0
VERTEX
8
CUT
10
86.4705
20
60.2287
0
VERTEX
8
CUT
10
86.4705
20
52.5213
0
SEQEND
0
POLYLINE
8
CUT
66
1
70
0
0
VERTEX
8
CUT
10
91.5453
20
56.375
0
VERTEX
8
CUT
10
87.2705
20
58.8431
0
VERTEX
8
CUT
10
87.2705
20
53.1569
0
VERTEX
8
CUT
10
91.5453
20
55.625
0
SEQEND
0
POLYLINE
8
CUT
66
1
70
0
0
VERTEX
8
CUT
10
88.0705
20
56.7074
0
VERTEX
8
CUT
10
88.0705
20
54.5426
0
VERTEX
8
CUT
10
90.5948
20
56
0
VERTEX
8
CUT
10
88.72
20
57.0824
0
SEQEND
0
POLYLINE
8
CUT
66
1
70
0
0
VERTEX
8
CUT
10
96.1948
20
53.8644
0
VERTEX
8
CUT
10
96.1948
20
43.3856
0
VERTEX
8
CUT
10
86.4705
20
49
0
VERTEX
8
CUT
10
95.5453
20
54.2394
0
SEQEND
0
POLYLINE
8
CUT
66
1
70
0
0
VERTEX
8
CUT
10
94.7453
20
45.1463
0
VERTEX
8
CUT
10
88.0705
20
49
0
VERTEX
8
CUT
10
95.3948
20
53.2287
0
VERTEX
8
CUT
10
95.3948
20
45.5213
0
SEQEND
0
POLYLINE
8
CUT
66
1
70
0
0
VERTEX
8
CUT
10
90.32
20
49.375
0
VERTEX
8
CUT
10
94.5948
20
51.8431
0
VERTEX
8
CUT
10
94.5948
20
46.1569
0
VERTEX
8
CUT
10
90.32
20
48.625
0
SEQEND
0
POLYLINE
8
CUT
66
1
70
0
0
VERTEX
8
CUT
10
93.7948
20
49.7074
0
VERTEX
8
CUT
10
93.7948
20
47.5426
0
VERTEX
8
CUT
10
91.2705
20
49
0
VERTEX
8
CUT
10
93.1453
20
50.0824
0
SEQEND
0
LINE
8
CUT
10
84.8705
20
48.25
11
84.8705
21
35.75
0
LINE
8
CUT
10
85.52
20
48.625
11
96.3453
21
42.375
0
LINE
8
CUT
10
85.52
20
35.375
11
96.3453
21
41.625
0
POLYLINE
8
CUT
66
1
70
0
0
VERTEX
8
CUT
10
85.6705
20
46.8644
0
VERTEX
8
CUT
10
85.6705
20
36.3856
0
VERTEX
8
CUT
10
95.3948
20
42
0
VERTEX
8
CUT
10
86.32
20
47.2394
0
SEQEND
0
POLYLINE
8
CUT
66
1
70
0
0
VERTEX
8
CUT
10
87.12
20
38.1463
0
VERTEX
8
CUT
10
93.7948
20
42
0
VERTEX
8
CUT
10
86.4705
20
46.2287
0
VERTEX
8
CUT
10
86.4705
20
38.5213
0
SEQEND
0
POLYLINE
8
CUT
66
1
70
0
0
VERTEX
8
CUT
10
91.5453
20
42.375
0
VERTEX
8
CUT
10
87.2705
20
44.8431
0
VERTEX
8
CUT
10
87.2705
20
39.1569
0
VERTEX
8
CUT
10
91.5453
20
41.625
0
SEQEND
0
POLYLINE
8
CUT
66
1
70
0
0
VERTEX
8
CUT
10
88.0705
20
42.7074
0
VERTEX
8
CUT
10
88.0705
20
40.5426
0
VERTEX
8
CUT
10
90.5948
20
42
0
VERTEX
8
CUT
10
88.72
20
43.0824
0
SEQEND
0
POLYLINE
8
CUT
66
1
70
0
0
VERTEX
8
CUT
10
96.1948
20
39.8644
0
VERTEX
8
CUT
10
96.1948
20
29.3856
0
VERTEX
8
CUT
10
86.4705
20
35
0
VERTEX
8
CUT
10
95.5453
20
40.2394
0
SEQEND
0
POLYLINE
8
CUT
66
1
70
0
0
VERTEX
8
CUT
10
94.7453
20
31.1463
0
VERTEX
8
CUT
10
88.0705
20
35
0
VERTEX
8
CUT
10
95.3948
20
39.2287
0
VERTEX
8
CUT
10
95.3948
20
31.5213
0
SEQEND
0
POLYLINE
8
CUT
66
1
70
0
0
VERTEX
8
CUT
10
90.32
20
35.375
0
VERTEX
8
CUT
10
94.5948
20
37.8431
0
VERTEX
8
CUT
10
94.5948
20
32.1569
0
VERTEX
8
CUT
10
90.32
20
34.625
0
SEQEND
0
POLYLINE
8
CUT
66
1
70
0
0
VERTEX
8
CUT
10
93.7948
20
35.7074
0
VERTEX
8
CUT
10
93.7948
20
33.5426
0
VERTEX
8
CUT
10
91.2705
20
35
0
VERTEX
8
CUT
10
93.1453
20
36.0824
0
SEQEND
0
LINE
8
CUT
10
84.8705
20
34.25
11
84.8705
21
21.75
0
LINE
8
CUT
10
85.52
20
34.625
11
96.3453
21
28.375
0
LINE
8
CUT
10
85.52
20
21.375
11
96.3453
21
27.625
0
POLYLINE
8
CUT
66
1
70
0
0
VERTEX
8
CUT
10
85.6705
20
32.8644
0
VERTEX
8
CUT
10
85.6705
20
22.3856
0
VERTEX
8
CUT
10
95.3948
20
28
0
VERTEX
8
CUT
10
86.32
20
33.2394
0
SEQEND
0
POLYLINE
8
CUT
66
1
70
0
0
VERTEX
8
CUT
10
87.12
20
24.1463
0
VERTEX
8
CUT
10
93.7948
20
28
0
VERTEX
8
CUT
10
86.4705
20
32.2287
0
VERTEX
8
CUT
10
86.4705
20
24.5213
0
SEQEND
0
POLYLINE
8
CUT
66
1
70
0
0
VERTEX
8
CUT
10
91.5453
20
28.375
0
VERTEX
8
CUT
10
87.2705
20
30.8431
0
VERTEX
8
CUT
10
87.2705
20
25.1569
0
VERTEX
8
CUT
10
91.5453
20
27.625
0
SEQEND
0
POLYLINE
8
CUT
66
1
70
0
0
VERTEX
8
CUT
10
88.0705
20
28.7074
0
VERTEX
8
CUT
10
88.0705
20
26.5426
0
VERTEX
8
CUT
10
90.5948
20
28
0
VERTEX
8
CUT
10
88.72
20
29.0824
0
SEQEND
0
POLYLINE
8
CUT
66
1
70
0
0
VERTEX
8
CUT
10
96.1948
20
25.8644
0
VERTEX
8
CUT
10
96.1948
20
15.3856
0
VERTEX
8
CUT
10
86.4705
20
21
0
VERTEX
8
CUT
10
95.5453
20
26.2394
0
SEQEND
0
POLYLINE
8
CUT
66
1
70
0
0
VERTEX
8
CUT
10
94.7453
20
17.1463
0
VERTEX
8
CUT
10
88.0705
20
21
0
VERTEX
8
CUT
10
95.3948
20
25.2287
0
VERTEX
8
CUT
10
95.3948
20
17.5213
0
SEQEND
0
POLYLINE
8
CUT
66
1
70
0
0
VERTEX
8
CUT
10
90.32
20
21.375
0
VERTEX
8
CUT
10
94.5948
20
23.8431
0
VERTEX
8
CUT
10
94.5948
20
18.1569
0
VERTEX
8
CUT
10
90.32
20
20.625
0
SEQEND
0
POLYLINE
8
CUT
66
1
70
0
0
VERTEX
8
CUT
10
93.7948
20
21.7074
0
VERTEX
8
CUT
10
93.7948
20
19.5426
0
VERTEX
8
CUT
10
91.2705
20
21
0
VERTEX
8
CUT
10
93.1453
20
22.0824
0
SEQEND
0
LINE
8
CUT
10
84.8705
20
20.25
11
84.8705
21
7.75
0
LINE
8
CUT
10
85.52
20
20.625
11
96.3453
21
14.375
0
LINE
8
CUT
10
85.52
20
7.375
11
96.3453
21
13.625
0
POLYLINE
8
CUT
66
1
70
0
0
VERTEX
8
CUT
10
85.6705
20
18.8644
0
VERTEX
8
CUT
10
85.6705
20
8.3856
0
VERTEX
8
CUT
10
95.3948
20
14
0
VERTEX
8
CUT
10
86.32
20
19.2394
0
SEQEND
0
POLYLINE
8
CUT
66
1
70
0
0
VERTEX
8
CUT
10
87.12
20
10.1463
0
VERTEX
8
CUT
10
93.7948
20
14
0
VERTEX
8
CUT
10
86.4705
20
18.2287
0
VERTEX
8
CUT
10
86.4705
20
10.5213
0
SEQEND
0
POLYLINE
8
CUT
66
1
70
0
0
VERTEX
8
CUT
10
91.5453
20
14.375
0
VERTEX
8
CUT
10
87.2705
20
16.8431
0
VERTEX
8
CUT
10
87.2705
20
11.1569
0
VERTEX
8
CUT
10
91.5453
20
13.625
0
SEQEND
0
POLYLINE
8
CUT
66
1
70
0
0
VERTEX
8
CUT
10
88.0705
20
14.7074
0
VERTEX
8
CUT
10
88.0705
20
12.5426
0
VERTEX
8
CUT
10
90.5948
20
14
0
VERTEX
8
CUT
10
88.72
20
15.0824
0
SEQEND
0
POLYLINE
8
CUT
66
1
70
0
0
VERTEX
8
CUT
10
96.1948
20
11.8644
0
VERTEX
8
CUT
10
96.1948
20
1.3856
0
VERTEX
8
CUT
10
86.4705
20
7
0
VERTEX
8
CUT
10
95.5453
20
12.2394
0
SEQEND
0
POLYLINE
8
CUT
66
1
70
0
0
VERTEX
8
CUT
10
94.7453
20
3.1463
0
VERTEX
8
CUT
10
88.0705
20
7
0
VERTEX
8
CUT
10
95.3948
20
11.2287
0
VERTEX
8
CUT
10
95.3948
20
3.5213
0
SEQEND
0
POLYLINE
8
CUT
66
1
70
0
0
VERTEX
8
CUT
10
90.32
20
7.375
0
VERTEX
8
CUT
10
94.5948
20
9.8431
0
VERTEX
8
CUT
10
94.5948
20
4.1569
0
VERTEX
8
CUT
10
90.32
20
6.625
0
SEQEND
0
POLYLINE
8
CUT
66
1
70
0
0
VERTEX
8
CUT
10
93.7948
20
7.7074
0
VERTEX
8
CUT
10
93.7948
20
5.5426
0
VERTEX
8
CUT
10
91.2705
20
7
0
VERTEX
8
CUT
10
93.1453
20
8.0824
0
SEQEND
0
LINE
8
CUT
10
84.8705
20
6.25
11
84.8705
21
0
0
LINE
8
CUT
10
85.52
20
6.625
11
96.3453
21
0.375
0
LINE
8
CUT
10
85.6705
20
4.8644
11
85.6705
21
0
0
POLYLINE
8
CUT
66
1
70
0
0
VERTEX
8
CUT
10
95.3948
20
0
0
VERTEX
8
CUT
10
95.3948
20
0
0
VERTEX
8
CUT
10
86.32
20
5.2394
0
SEQEND
0
POLYLINE
8
CUT
66
1
70
0
0
VERTEX
8
CUT
10
93.7948
20
0
0
VERTEX
8
CUT
10
93.7948
20
0
0
VERTEX
8
CUT
10
86.4705
20
4.2287
0
VERTEX
8
CUT
10
86.4705
20
0
0
SEQEND
0
POLYLINE
8
CUT
66
1
70
0
0
VERTEX
8
CUT
10
91.5453
20
0.375
0
VERTEX
8
CUT
10
87.2705
20
2.8431
0
VERTEX
8
CUT
10
87.2705
20
0
0
SEQEND
0
LINE
8
CUT
10
88.0705
20
0.7074
11
88.0705
21
0
0
POLYLINE
8
CUT
66
1
70
0
0
VERTEX
8
CUT
10
90.5948
20
0
0
VERTEX
8
CUT
10
90.5948
20
0
0
VERTEX
8
CUT
10
88.72
20
1.0824
0
SEQEND
0
POLYLINE
8
CUT
66
1
70
0
0
VERTEX
8
CUT
10
108.3192
20
70
0
VERTEX
8
CUT
10
108.3192
20
64.3856
0
VERTEX
8
CUT
10
98.5948
20
70
0
VERTEX
8
CUT
10
98.5948
20
70
0
SEQEND
0
POLYLINE
8
CUT
66
1
70
0
0
VERTEX
8
CUT
10
106.8697
20
66.1463
0
VERTEX
8
CUT
10
100.1948
20
70
0
VERTEX
8
CUT
10
100.1948
20
70
0
SEQEND
0
LINE
8
CUT
10
107.5192
20
70
11
107.5192
21
66.5213
0
POLYLINE
8
CUT
66
1
70
0
0
VERTEX
8
CUT
10
106.7192
20
70
0
VERTEX
8
CUT
10
106.7192
20
67.1569
0
VERTEX
8
CUT
10
102.4444
20
69.625
0
SEQEND
0
POLYLINE
8
CUT
66
1
70
0
0
VERTEX
8
CUT
10
105.9192
20
70
0
VERTEX
8
CUT
10
105.9192
20
68.5426
0
VERTEX
8
CUT
10
103.3948
20
70
0
VERTEX
8
CUT
10
103.3948
20
70
0
SEQEND
0
LINE
8
CUT
10
96.9948
20
69.25
11
96.9948
21
56.75
0
LINE
8
CUT
10
97.6444
20
69.625
11
108.4697
21
63.375
0
LINE
8
CUT
10
97.6444
20
56.375
11
108.4697
21
62.625
0
POLYLINE
8
CUT
66
1
70
0
0
VERTEX
8
CUT
10
97.7948
20
67.8644
0
VERTEX
8
CUT
10
97.7948
20
57.3856
0
VERTEX
8
CUT
10
107.5192
20
63
0
VERTEX
8
CUT
10
98.4444
20
68.2394
0
SEQEND
0
POLYLINE
8
CUT
66
1
70
0
0
VERTEX
8
CUT
10
99.2444
20
59.1463
0
VERTEX
8
CUT
10
105.9192
20
63
0
VERTEX
8
CUT
10
98.5948
20
67.2287
0
VERTEX
8
CUT
10
98.5948
20
59.5213
0
SEQEND
0
POLYLINE
8
CUT
66
1
70
0
0
VERTEX
8
CUT
10
103.6697
20
63.375
0
VERTEX
8
CUT
10
99.3948
20
65.8431
0
VERTEX
8
CUT
10
99.3948
20
60.1569
0
VERTEX
8
CUT
10
103.6697
20
62.625
0
SEQEND
0
POLYLINE
8
CUT
66
1
70
0
0
VERTEX
8
CUT
10
100.1948
20
63.7074
0
VERTEX
8
CUT
10
100.1948
20
61.5426
0
VERTEX
8
CUT
10
102.7192
20
63
0
VERTEX
8
CUT
10
100.8444
20
64.0824
0
SEQEND
0
POLYLINE
8
CUT
66
1
70
0
0
VERTEX
8
CUT
10
108.3192
20
60.8644
0
VERTEX
8
CUT
10
108.3192
20
50.3856
0
VERTEX
8
CUT
10
98.5948
20
56
0
VERTEX
8
CUT
10
107.6697
20
61.2394
0
SEQEND
0
POLYLINE
8
CUT
66
1
70
0
0
VERTEX
8
CUT
10
106.8697
20
52.1463
0
VERTEX
8
CUT
10
100.1948
20
56
0
VERTEX
8
CUT
10
107.5192
20
60.2287
0
VERTEX
8
CUT
10
107.5192
20
52.5213
0
SEQEND
0
POLYLINE
8
CUT
66
1
70
0
0
VERTEX
8
CUT
10
102.4444
20
56.375
0
VERTEX
8
CUT
10
106.7192
20
58.8431
0
VERTEX
8
CUT
10
106.7192
20
53.1569
0
VERTEX
8
CUT
10
102.4444
20
55.625
0
SEQEND
0
POLYLINE
8
CUT
66
1
70
0
0
VERTEX
8
CUT
10
105.9192
20
56.7074
0
VERTEX
8
CUT
10
105.9192
20
54.5426
0
VERTEX
8
CUT
10
103.3948
20
56
0
VERTEX
8
CUT
10
105.2697
20
57.0824
0
SEQEND
0
LINE
8
CUT
10
96.9948
20
55.25
11
96.9948
21
42.75
0
LINE
8
CUT
10
97.6444
20
55.625
11
108.4697
21
49.375
0
LINE
8
CUT
10
97.6444
20
42.375
11
108.4697
21
48.625
0
POLYLINE
8
CUT
66
1
70
0
0
VERTEX
8
CUT
10
97.7948
20
53.8644
0
VERTEX
8
CUT
10
97.7948
20
43.3856
0
VERTEX
8
CUT
10
107.5192
20
49
0
VERTEX
8
CUT
10
98.4444
20
54.2394
0
SEQEND
0
POLYLINE
8
CUT
66
1
70
0
0
VERTEX
8
CUT
10
99.2444
20
45.1463
0
VERTEX
8
CUT
10
105.9192
20
49
0
VERTEX
8
CUT
10
98.5948
20
53.2287
0
VERTEX
8
CUT
10
98.5948
20
45.5213
0
SEQEND
0
POLYLINE
8
CUT
66
1
70
0
0
VERTEX
8
CUT
10
103.6697
20
49.375
0
VERTEX
8
CUT
10
99.3948
20
51.8431
0
VERTEX
8
CUT
10
99.3948
20
46.1569
0
VERTEX
8
CUT
10
103.6697
20
48.625
0
SEQEND
0
POLYLINE
8
CUT
66
1
70
0
0
VERTEX
8
CUT
10
100.1948
20
49.7074
0
VERTEX
8
CUT
10
100.1948
20
47.5426
0
VERTEX
8
CUT
10
102.7192
20
49
0
VERTEX
8
CUT
10
100.8444
20
50.0824
0
SEQEND
0
POLYLINE
8
CUT
66
1
70
0
0
VERTEX
8
CUT
10
108.3192
20
46.8644
0
VERTEX
8
CUT
10
108.3192
20
36.3856
0
VERTEX
8
CUT
10
98.5948
20
42
0
VERTEX
8
CUT
10
107.6697
20
47.2394
0
SEQEND
0
POLYLINE
8
CUT
66
1
70
0
0
VERTEX
8
CUT
10
106.8697
20
38.1463
0
VERTEX
8
CUT
10
100.1948
20
42
0
VERTEX
8
CUT
10
107.5192
20
46.2287
0
VERTEX
8
CUT
10
107.5192
20
38.5213
0
SEQEND
0
POLYLINE
8
CUT
66
1
70
0
0
VERTEX
8
CUT
10
102.4444
20
42.375
0
VERTEX
8
CUT
10
106.7192
20
44.8431
0
VERTEX
8
CUT
10
106.7192
20
39.1569
0
VERTEX
8
CUT
10
102.4444
20
41.625
0
SEQEND
0
POLYLINE
8
CUT
66
1
70
0
0
VERTEX
8
CUT
10
105.9192
20
42.7074
0
VERTEX
8
CUT
10
105.9192
20
40.5426
0
VERTEX
8
CUT
10
103.3948
20
42
0
VERTEX
8
CUT
10
105.2697
20
43.0824
0
SEQEND
0
LINE
8
CUT
10
96.9948
20
41.25
11
96.9948
21
28.75
0
LINE
8
CUT
10
97.6444
20
41.625
11
108.4697
21
35.375
0
LINE
8
CUT
10
97.6444
20
28.375
11
108.4697
21
34.625
0
POLYLINE
8
CUT
66
1
70
0
0
VERTEX
8
CUT
10
97.7948
20
39.8644
0
VERTEX
8
CUT
10
97.7948
20
29.3856
0
VERTEX
8
CUT
10
107.5192
20
35
0
VERTEX
8
CUT
10
98.4444
20
40.2394
0
SEQEND
0
POLYLINE
8
CUT
66
1
70
0
0
VERTEX
8
CUT
10
99.2444
20
31.1463
0
VERTEX
8
CUT
10
105.9192
20
35
0
VERTEX
8
CUT
10
98.5948
20
39.2287
0
VERTEX
8
CUT
10
98.5948
20
31.5213
0
SEQEND
0
POLYLINE
8
CUT
66
1
70
0
0
VERTEX
8
CUT
10
103.6697
20
35.375
0
VERTEX
8
CUT
10
99.3948
20
37.8431
0
VERTEX
8
CUT
10
99.3948
20
32.1569
0
VERTEX
8
CUT
10
103.6697
20
34.625
0
SEQEND
0
POLYLINE
8
CUT
66
1
70
0
0
VERTEX
8
CUT
10
100.1948
20
35.7074
0
VERTEX
8
CUT
10
100.1948
20
33.5426
0
VERTEX
8
CUT
10
102.7192
20
35
0
VERTEX
8
CUT
10
100.8444
20
36.0824
0
SEQEND
0
POLYLINE
8
CUT
66
1
70
0
0
VERTEX
8
CUT
10
108.3192
20
32.8644
0
VERTEX
8
CUT
10
108.3192
20
22.3856
0
VERTEX
8
CUT
10
98.5948
20
28
0
VERTEX
8
CUT
10
107.6697
20
33.2394
0
SEQEND
0
POLYLINE
8
CUT
66
1
70
0
0
VERTEX
8
CUT
10
106.8697
20
24.1463
0
VERTEX
8
CUT
10
100.1948
20
28
0
VERTEX
8
CUT
10
107.5192
20
32.2287
0
VERTEX
8
CUT
10
107.5192
20
24.5213
0
SEQEND
0
POLYLINE
8
CUT
66
1
70
0
0
VERTEX
8
CUT
10
102.4444
20
28.375
0
VERTEX
8
CUT
10
106.7192
20
30.8431
0
VERTEX
8
CUT
10
106.7192
20
25.1569
0
VERTEX
8
CUT
10
102.4444
20
27.625
0
SEQEND
0
POLYLINE
8
CUT
66
1
70
0
0
VERTEX
8
CUT
10
105.9192
20
28.7074
0
VERTEX
8
CUT
10
105.9192
20
26.5426
0
VERTEX
8
CUT
10
103.3948
20
28
0
VERTEX
8
CUT
10
105.2697
20
29.0824
0
SEQEND
0
LINE
8
CUT
10
96.9948
20
27.25
11
96.9948
21
14.75
0
LINE
8
CUT
10
97.6444
20
27.625
11
108.4697
21
21.375
0
LINE
8
CUT
10
97.6444
20
14.375
11
108.4697
21
20.625
0
POLYLINE
8
CUT
66
1
70
0
0
VERTEX
8
CUT
10
97.7948
20
25.8644
0
VERTEX
8
CUT
10
97.7948
20
15.3856
0
VERTEX
8
CUT
10
107.5192
20
21
0
VERTEX
8
CUT
10
98.4444
20
26.2394
0
SEQEND
0
POLYLINE
8
CUT
66
1
70
0
0
VERTEX
8
CUT
10
99.2444
20
17.1463
0
VERTEX
8
CUT
10
105.9192
20
21
0
VERTEX
8
CUT
10
98.5948
20
25.2287
0
VERTEX
8
CUT
10
98.5948
20
17.5213
0
SEQEND
0
POLYLINE
8
CUT
66
1
70
0
0
VERTEX
8
CUT
10
103.6697
20
21.375
0
VERTEX
8
CUT
10
99.3948
20
23.8431
0
VERTEX
8
CUT
10
99.3948
20
18.1569
0
VERTEX
8
CUT
10
103.6697
20
20.625
0
SEQEND
0
POLYLINE
8
CUT
66
1
70
0
0
VERTEX
8
CUT
10
100.1948
20
21.7074
0
VERTEX
8
CUT
10
100.1948
20
19.5426
0
VERTEX
8
CUT
10
102.7192
20
21
0
VERTEX
8
CUT
10
100.8444
20
22.0824
0
SEQEND
0
POLYLINE
8
CUT
66
1
70
0
0
VERTEX
8
CUT
10
108.3192
20
18.8644
0
VERTEX
8
CUT
10
108.3192
20
8.3856
0
VERTEX
8
CUT
10
98.5948
20
14
0
VERTEX
8
CUT
10
107.6697
20
19.2394
0
SEQEND
0
POLYLINE
8
CUT
66
1
70
0
0
VERTEX
8
CUT
10
106.8697
20
10.1463
0
VERTEX
8
CUT
10
100.1948
20
14
0
VERTEX
8
CUT
10
107.5192
20
18.2287
0
VERTEX
8
CUT
10
107.5192
20
10.5213
0
SEQEND
0
POLYLINE
8
CUT
66
1
70
0
0
VERTEX
8
CUT
10
102.4444
20
14.375
0
VERTEX
8
CUT
10
106.7192
20
16.8431
0
VERTEX
8
CUT
10
106.7192
20
11.1569
0
VERTEX
8
CUT
10
102.4444
20
13.625
0
SEQEND
0
POLYLINE
8
CUT
66
1
70
0
0
VERTEX
8
CUT
10
105.9192
20
14.7074
0
VERTEX
8
CUT
10
105.9192
20
12.5426
0
VERTEX
8
CUT
10
103.3948
20
14
0
VERTEX
8
CUT
10
105.2697
20
15.0824
0
SEQEND
0
LINE
8
CUT
10
96.9948
20
13.25
11
96.9948
21
0.75
0
LINE
8
CUT
10
97.6444
20
13.625
11
108.4697
21
7.375
0
LINE
8
CUT
10
97.6444
20
0.375
11
108.4697
21
6.625
0
POLYLINE
8
CUT
66
1
70
0
0
VERTEX
8
CUT
10
97.7948
20
11.8644
0
VERTEX
8
CUT
10
97.7948
20
1.3856
0
VERTEX
8
CUT
10
107.5192
20
7
0
VERTEX
8
CUT
10
98.4444
20
12.2394
0
SEQEND
0
POLYLINE
8
CUT
66
1
70
0
0
VERTEX
8
CUT
10
99.2444
20
3.1463
0
VERTEX
8
CUT
10
105.9192
20
7
0
VERTEX
8
CUT
10
98.5948
20
11.2287
0
VERTEX
8
CUT
10
98.5948
20
3.5213
0
SEQEND
0
POLYLINE
8
CUT
66
1
70
0
0
VERTEX
8
CUT
10
103.6697
20
7.375
0
VERTEX
8
CUT
10
99.3948
20
9.8431
0
VERTEX
8
CUT
10
99.3948
20
4.1569
0
VERTEX
8
CUT
10
103.6697
20
6.625
0
SEQEND
0
POLYLINE
8
CUT
66
1
70
0
0
VERTEX
8
CUT
10
100.1948
20
7.7074
0
VERTEX
8
CUT
10
100.1948
20
5.5426
0
VERTEX
8
CUT
10
102.7192
20
7
0
VERTEX
8
CUT
10
100.8444
20
8.0824
0
SEQEND
0
LINE
8
CUT
10
108.3192
20
4.8644
11
108.3192
21
0
0
POLYLINE
8
CUT
66
1
70
0
0
VERTEX
8
CUT
10
98.5948
20
0
0
VERTEX
8
CUT
10
98.5948
20
0
0
VERTEX
8
CUT
10
107.6697
20
5.2394
0
SEQEND
0
POLYLINE
8
CUT
66
1
70
0
0
VERTEX
8
CUT
10
100.1948
20
0
0
VERTEX
8
CUT
10
100.1948
20
0
0
VERTEX
8
CUT
10
107.5192
20
4.2287
0
VERTEX
8
CUT
10
107.5192
20
0
0
SEQEND
0
POLYLINE
8
CUT
66
1
70
0
0
VERTEX
8
CUT
10
102.4444
20
0.375
0
VERTEX
8
CUT
10
106.7192
20
2.8431
0
VERTEX
8
CUT
10
106.7192
20
0
0
SEQEND
0
LINE
8
CUT
10
105.9192
20
0.7074
11
105.9192
21
0
0
POLYLINE
8
CUT
66
1
70
0
0
VERTEX
8
CUT
10
103.3948
20
0
0
VERTEX
8
CUT
10
103.3948
20
0
0
VERTEX
8
CUT
10
105.2697
20
1.0824
0
SEQEND
0
LINE
8
CUT
10
109.1192
20
70
11
109.1192
21
63.75
0
LINE
8
CUT
10
109.7687
20
63.375
11
120
21
69.282
0
POLYLINE
8
CUT
66
1
70
0
0
VERTEX
8
CUT
10
109.9192
20
70
0
VERTEX
8
CUT
10
109.9192
20
64.3856
0
VERTEX
8
CUT
10
119.6436
20
70
0
VERTEX
8
CUT
10
119.6436
20
70
0
SEQEND
0
POLYLINE
8
CUT
66
1
70
0
0
VERTEX
8
CUT
10
111.3687
20
66.1463
0
VERTEX
8
CUT
10
118.0436
20
70
0
VERTEX
8
CUT
10
118.0436
20
70
0
SEQEND
0
LINE
8
CUT
10
110.7192
20
70
11
110.7192
21
66.5213
0
POLYLINE
8
CUT
66
1
70
0
0
VERTEX
8
CUT
10
111.5192
20
70
0
VERTEX
8
CUT
10
111.5192
20
67.1569
0
VERTEX
8
CUT
10
115.794
20
69.625
0
SEQEND
0
POLYLINE
8
CUT
66
1
70
0
0
VERTEX
8
CUT
10
112.3192
20
70
0
VERTEX
8
CUT
10
112.3192
20
68.5426
0
VERTEX
8
CUT
10
114.8436
20
70
0
VERTEX
8
CUT
10
114.8436
20
70
0
SEQEND
0
POLYLINE
8
CUT
66
1
70
0
0
VERTEX
8
CUT
10
120
20
57.6417
0
VERTEX
8
CUT
10
110.7192
20
63
0
VERTEX
8
CUT
10
119.794
20
68.2394
0
SEQEND
0
POLYLINE
8
CUT
66
1
70
0
0
VERTEX
8
CUT
10
118.994
20
59.1463
0
VERTEX
8
CUT
10
112.3192
20
63
0
VERTEX
8
CUT
10
119.6436
20
67.2287
0
VERTEX
8
CUT
10
119.6436
20
59.5213
0
SEQEND
0
POLYLINE
8
CUT
66
1
70
0
0
VERTEX
8
CUT
10
114.5687
20
63.375
0
VERTEX
8
CUT
10
118.8436
20
65.8431
0
VERTEX
8
CUT
10
118.8436
20
60.1569
0
VERTEX
8
CUT
10
114.5687
20
62.625
0
SEQEND
0
POLYLINE
8
CUT
66
1
70
0
0
VERTEX
8
CUT
10
118.0436
20
63.7074
0
VERTEX
8
CUT
10
118.0436
20
61.5426
0
VERTEX
8
CUT
10
115.5192
20
63
0
VERTEX
8
CUT
10
117.394
20
64.0824
0
SEQEND
0
LINE
8
CUT
10
109.1192
20
62.25
11
109.1192
21
49.75
0
LINE
8
CUT
10
109.7687
20
62.625
11
120
21
56.718
0
LINE
8
CUT
10
109.7687
20
49.375
11
120
21
55.282
0
POLYLINE
8
CUT
66
1
70
0
0
VERTEX
8
CUT
10
109.9192
20
60.8644
0
VERTEX
8
CUT
10
109.9192
20
50.3856
0
VERTEX
8
CUT
10
119.6436
20
56
0
VERTEX
8
CUT
10
110.5687
20
61.2394
0
SEQEND
0
POLYLINE
8
CUT
66
1
70
0
0
VERTEX
8
CUT
10
111.3687
20
52.1463
0
VERTEX
8
CUT
10
118.0436
20
56
0
VERTEX
8
CUT
10
110.7192
20
60.2287
0
VERTEX
8
CUT
10
110.7192
20
52.5213
0
SEQEND
0
POLYLINE
8
CUT
66
1
70
0
0
VERTEX
8
CUT
10
115.794
20
56.375
0
VERTEX
8
CUT
10
111.5192
20
58.8431
0
VERTEX
8
CUT
10
111.5192
20
53.1569
0
VERTEX
8
CUT
10
115.794
20
55.625
0
SEQEND
0
POLYLINE
8
CUT
66
1
70
0
0
VERTEX
8
CUT
10
112.3192
20
56.7074
0
VERTEX
8
CUT
10
112.3192
20
54.5426
0
VERTEX
8
CUT
10
114.8436
20
56
0
VERTEX
8
CUT
10
112.9687
20
57.0824
0
SEQEND
0
POLYLINE
8
CUT
66
1
70
0
0
VERTEX
8
CUT
10
120
20
43.6417
0
VERTEX
8
CUT
10
110.7192
20
49
0
VERTEX
8
CUT
10
119.794
20
54.2394
0
SEQEND
0
POLYLINE
8
CUT
66
1
70
0
0
VERTEX
8
CUT
10
118.994
20
45.1463
0
VERTEX
8
CUT
10
112.3192
20
49
0
VERTEX
8
CUT
10
119.6436
20
53.2287
0
VERTEX
8
CUT
10
119.6436
20
45.5213
0
SEQEND
0
POLYLINE
8
CUT
66
1
70
0
0
VERTEX
8
CUT
10
114.5687
20
49.375
0
VERTEX
8
CUT
10
118.8436
20
51.8431
0
VERTEX
8
CUT
10
118.8436
20
46.1569
0
VERTEX
8
CUT
10
114.5687
20
48.625
0
SEQEND
0
POLYLINE
8
CUT
66
1
70
0
0
VERTEX
8
CUT
10
118.0436
20
49.7074
0
VERTEX
8
CUT
10
118.0436
20
47.5426
0
VERTEX
8
CUT
10
115.5192
20
49
0
VERTEX
8
CUT
10
117.394
20
50.0824
0
SEQEND
0
LINE
8
CUT
10
109.1192
20
48.25
11
109.1192
21
35.75
0
LINE
8
CUT
10
109.7687
20
48.625
11
120
21
42.718
0
LINE
8
CUT
10
109.7687
20
35.375
11
120
21
41.282
0
POLYLINE
8
CUT
66
1
70
0
0
VERTEX
8
CUT
10
109.9192
20
46.8644
0
VERTEX
8
CUT
10
109.9192
20
36.3856
0
VERTEX
8
CUT
10
119.6436
20
42
0
VERTEX
8
CUT
10
110.5687
20
47.2394
0
SEQEND
0
POLYLINE
8
CUT
66
1
70
0
0
VERTEX
8
CUT
10
111.3687
20
38.1463
0
VERTEX
8
CUT
10
118.0436
20
42
0
VERTEX
8
CUT
10
110.7192
20
46.2287
0
VERTEX
8
CUT
10
110.7192
20
38.5213
0
SEQEND
0
POLYLINE
8
CUT
66
1
70
0
0
VERTEX
8
CUT
10
115.794
20
42.375
0
VERTEX
8
CUT
10
111.5192
20
44.8431
0
VERTEX
8
CUT
10
111.5192
20
39.1569
0
VERTEX
8
CUT
10
115.794
20
41.625
0
SEQEND
0
POLYLINE
8
CUT
66
1
70
0
0
VERTEX
8
CUT
10
112.3192
20
42.7074
0
VERTEX
8
CUT
10
112.3192
20
40.5426
0
VERTEX
8
CUT
10
114.8436
20
42
0
VERTEX
8
CUT
10
112.9687
20
43.0824
0
SEQEND
0
POLYLINE
8
CUT
66
1
70
0
0
VERTEX
8
CUT
10
120
20
29.6417
0
VERTEX
8
CUT
10
110.7192
20
35
0
VERTEX
8
CUT
10
119.794
20
40.2394
0
SEQEND
0
POLYLINE
8
CUT
66
1
70
0
0
VERTEX
8
CUT
10
118.994
20
31.1463
0
VERTEX
8
CUT
10
112.3192
20
35
0
VERTEX
8
CUT
10
119.6436
20
39.2287
0
VERTEX
8
CUT
10
119.6436
20
31.5213
0
SEQEND
0
POLYLINE
8
CUT
66
1
70
0
0
VERTEX
8
CUT
10
114.5687
20
35.375
0
VERTEX
8
CUT
10
118.8436
20
37.8431
0
VERTEX
8
CUT
10
118.8436
20
32.1569
0
VERTEX
8
CUT
10
114.5687
20
34.625
0
SEQEND
0
POLYLINE
8
CUT
66
1
70
0
0
VERTEX
8
CUT
10
118.0436
20
35.7074
0
VERTEX
8
CUT
10
118.0436
20
33.5426
0
VERTEX
8
CUT
10
115.5192
20
35
0
VERTEX
8
CUT
10
117.394
20
36.0824
0
SEQEND
0
LINE
8
CUT
10
109.1192
20
34.25
11
109.1192
21
21.75
0
LINE
8
CUT
10
109.7687
20
34.625
11
120
21
28.718
0
LINE
8
CUT
10
109.7687
20
21.375
11
120
21
27.282
0
POLYLINE
8
CUT
66
1
70
0
0
VERTEX
8
CUT
10
109.9192
20
32.8644
0
VERTEX
8
CUT
10
109.9192
20
22.3856
0
VERTEX
8
CUT
10
119.6436
20
28
0
VERTEX
8
CUT
10
110.5687
20
33.2394
0
SEQEND
0
POLYLINE
8
CUT
66
1
70
0
0
VERTEX
8
CUT
10
111.3687
20
24.1463
0
VERTEX
8
CUT
10
118.0436
20
28
0
VERTEX
8
CUT
10
110.7192
20
32.2287
0
VERTEX
8
CUT
10
110.7192
20
24.5213
0
SEQEND
0
POLYLINE
8
CUT
66
1
70
0
0
VERTEX
8
CUT
10
115.794
20
28.375
0
VERTEX
8
CUT
10
111.5192
20
30.8431
0
VERTEX
8
CUT
10
111.5192
20
25.1569
0
VERTEX
8
CUT
10
115.794
20
27.625
0
SEQEND
0
POLYLINE
8
CUT
66
1
70
0
0
VERTEX
8
CUT
10
112.3192
20
28.7074
0
VERTEX
8
CUT
10
112.3192
20
26.5426
0
VERTEX
8
CUT
10
114.8436
20
28
0
VERTEX
8
CUT
10
112.9687
20
29.0824
0
SEQEND
0
POLYLINE
8
CUT
66
1
70
0
0
VERTEX
8
CUT
10
120
20
15.6417
0
VERTEX
8
CUT
10
110.7192
20
21
0
VERTEX
8
CUT
10
119.794
20
26.2394
0
SEQEND
0
POLYLINE
8
CUT
66
1
70
0
0
VERTEX
8
CUT
10
118.994
20
17.1463
0
VERTEX
8
CUT
10
112.3192
20
21
0
VERTEX
8
CUT
10
119.6436
20
25.2287
0
VERTEX
8
CUT
10
119.6436
20
17.5213
0
SEQEND
0
POLYLINE
8
CUT
66
1
70
0
0
VERTEX
8
CUT
10
114.5687
20
21.375
0
VERTEX
8
CUT
10
118.8436
20
23.8431
0
VERTEX
8
CUT
10
118.8436
20
18.1569
0
VERTEX
8
CUT
10
114.5687
20
20.625
0
SEQEND
0
POLYLINE
8
CUT
66
1
70
0
0
VERTEX
8
CUT
10
118.0436
20
21.7074
0
VERTEX
8
CUT
10
118.0436
20
19.5426
0
VERTEX
8
CUT
10
115.5192
20
21
0
VERTEX
8
CUT
10
117.394
20
22.0824
0
SEQEND
0
LINE
8
CUT
10
109.1192
20
20.25
11
109.1192
21
7.75
0
LINE
8
CUT
10
109.7687
20
20.625
11
120
21
14.718
0
LINE
8
CUT
10
109.7687
20
7.375
11
120
21
13.282
0
POLYLINE
8
CUT
66
1
70
0
0
VERTEX
8
CUT
10
109.9192
20
18.8644
0
VERTEX
8
CUT
10
109.9192
20
8.3856
0
VERTEX
8
CUT
10
119.6436
20
14
0
VERTEX
8
CUT
10
110.5687
20
19.2394
0
SEQEND
0
POLYLINE
8
CUT
66
1
70
0
0
VERTEX
8
CUT
10
111.3687
20
10.1463
0
VERTEX
8
CUT
10
118.0436
20
14
0
VERTEX
8
CUT
10
110.7192
20
18.2287
0
VERTEX
8
CUT
10
110.7192
20
10.5213
0
SEQEND
0
POLYLINE
8
CUT
66
1
70
0
0
VERTEX
8
CUT
10
115.794
20
14.375
0
VERTEX
8
CUT
10
111.5192
20
16.8431
0
VERTEX
8
CUT
10
111.5192
20
11.1569
0
VERTEX
8
CUT
10
115.794
20
13.625
0
SEQEND
0
POLYLINE
8
CUT
66
1
70
0
0
VERTEX
8
CUT
10
112.3192
20
14.7074
0
VERTEX
8
CUT
10
112.3192
20
12.5426
0
VERTEX
8
CUT
10
114.8436
20
14
0
VERTEX
8
CUT
10
112.9687
20
15.0824
0
SEQEND
0
POLYLINE
8
CUT
66
1
70
0
0
VERTEX
8
CUT
10
120
20
1.6417
0
VERTEX
8
CUT
10
110.7192
20
7
0
VERTEX
8
CUT
10
119.794
20
12.2394
0
SEQEND
0
POLYLINE
8
CUT
66
1
70
0
0
VERTEX
8
CUT
10
118.994
20
3.1463
0
VERTEX
8
CUT
10
112.3192
20
7
0
VERTEX
8
CUT
10
119.6436
20
11.2287
0
VERTEX
8
CUT
10
119.6436
20
3.5213
0
SEQEND
0
POLYLINE
8
CUT
66
1
70
0
0
VERTEX
8
CUT
10
114.5687
20
7.375
0
VERTEX
8
CUT
10
118.8436
20
9.8431
0
VERTEX
8
CUT
10
118.8436
20
4.1569
0
VERTEX
8
CUT
10
114.5687
20
6.625
0
SEQEND
0
POLYLINE
8
CUT
66
1
70
0
0
VERTEX
8
CUT
10
118.0436
20
7.7074
0
VERTEX
8
CUT
10
118.0436
20
5.5426
0
VERTEX
8
CUT
10
115.5192
20
7
0
VERTEX
8
CUT
10
117.394
20
8.0824
0
SEQEND
0
LINE
8
CUT
10
109.1192
20
6.25
11
109.1192
21
0
0
LINE
8
CUT
10
109.7687
20
6.625
11
120
21
0.718
0
LINE
8
CUT
10
109.9192
20
4.8644
11
109.9192
21
0
0
POLYLINE
8
CUT
66
1
70
0
0
VERTEX
8
CUT
10
119.6436
20
0
0
VERTEX
8
CUT
10
119.6436
20
0
0
VERTEX
8
CUT
10
110.5687
20
5.2394
0
SEQEND
0
POLYLINE
8
CUT
66
1
70
0
0
VERTEX
8
CUT
10
118.0436
20
0
0
VERTEX
8
CUT
10
118.0436
20
0
0
VERTEX
8
CUT
10
110.7192
20
4.2287
0
VERTEX
8
CUT
10
110.7192
20
0
0
SEQEND
0
POLYLINE
8
CUT
66
1
70
0
0
VERTEX
8
CUT
10
115.794
20
0.375
0
VERTEX
8
CUT
10
111.5192
20
2.8431
0
VERTEX
8
CUT
10
111.5192
20
0
0
SEQEND
0
LINE
8
CUT
10
112.3192
20
0.7074
11
112.3192
21
0
0
POLYLINE
8
CUT
66
1
70
0
0
VERTEX
8
CUT
10
114.8436
20
0
0
VERTEX
8
CUT
10
114.8436
20
0
0
VERTEX
8
CUT
10
112.9687
20
1.0824
0
SEQEND
0
POLYLINE
8
CUT
66
1
70
0
0
VERTEX
8
CUT
10
0
20
70
0
VERTEX
8
CUT
10
120
20
70
0
VERTEX
8
CUT
10
120
20
0
0
VERTEX
8
CUT
10
0
20
0
0
VERTEX
8
CUT
10
0
20
70
0
SEQEND
0
ENDSEC
0
EOF
