0
SECTION
2
HEADER
9
$ACADVER
1
AC1009
9
$INSUNITS
70
4
0
ENDSEC
0
SECTION
2
TABLES
0
TABLE
2
LAYER
70
1
0
LAYER
2
CUT
70
0
62
1
6
CONTINUOUS
0
ENDTAB
0
ENDSEC
0
SECTION
2
ENTITIES
0
LINE
8
CUT
10
0
20
68.8364
11
1.6123
21
70
0
POLYLINE
8
CUT
66
1
70
0
0
VERTEX
8
CUT
10
6.3877
20
70
0
VERTEX
8
CUT
10
8.1641
20
68.718
0
VERTEX
8
CUT
10
9.9405
20
70
0
SEQEND
0
POLYLINE
8
CUT
66
1
70
0
0
VERTEX
8
CUT
10
14.7159
20
70
0
VERTEX
8
CUT
10
16.4923
20
68.718
0
VERTEX
8
CUT
10
18.2687
20
70
0
SEQEND
0
POLYLINE
8
CUT
66
1
70
0
0
VERTEX
8
CUT
10
23.0441
20
70
0
VERTEX
8
CUT
10
24.8205
20
68.718
0
VERTEX
8
CUT
10
26.5969
20
70
0
SEQEND
0
POLYLINE
8
CUT
66
1
70
0
0
VERTEX
8
CUT
10
31.3723
20
70
0
VERTEX
8
CUT
10
33.1487
20
68.718
0
VERTEX
8
CUT
10
34.9251
20
70
0
SEQEND
0
POLYLINE
8
CUT
66
1
70
0
0
VERTEX
8
CUT
10
39.7005
20
70
0
VERTEX
8
CUT
10
41.4769
20
68.718
0
VERTEX
8
CUT
10
43.2533
20
70
0
SEQEND
0
POLYLINE
8
CUT
66
1
70
0
0
VERTEX
8
CUT
10
48.0287
20
70
0
VERTEX
8
CUT
10
49.8051
20
68.718
0
VERTEX
8
CUT
10
51.5815
20
70
0
SEQEND
0
POLYLINE
8
CUT
66
1
70
0
0
VERTEX
8
CUT
10
56.3569
20
70
0
VERTEX
8
CUT
10
58.1333
20
68.718
0
VERTEX
8
CUT
10
59.9097
20
70
0
SEQEND
0
POLYLINE
8
CUT
66
1
70
0
0
VERTEX
8
CUT
10
64.6851
20
70
0
VERTEX
8
CUT
10
66.4615
20
68.718
0
VERTEX
8
CUT
10
68.2379
20
70
0
SEQEND
0
POLYLINE
8
CUT
66
1
70
0
0
VERTEX
8
CUT
10
73.0133
20
70
0
VERTEX
8
CUT
10
74.7897
20
68.718
0
VERTEX
8
CUT
10
76.5661
20
70
0
SEQEND
0
POLYLINE
8
CUT
66
1
70
0
0
VERTEX
8
CUT
10
81.3415
20
70
0
VERTEX
8
CUT
10
83.1179
20
68.718
0
VERTEX
8
CUT
10
84.8943
20
70
0
SEQEND
0
POLYLINE
8
CUT
66
1
70
0
0
VERTEX
8
CUT
10
89.6697
20
70
0
VERTEX
8
CUT
10
91.4461
20
68.718
0
VERTEX
8
CUT
10
93.2225
20
70
0
SEQEND
0
POLYLINE
8
CUT
66
1
70
0
0
VERTEX
8
CUT
10
97.9979
20
70
0
VERTEX
8
CUT
10
99.7743
20
68.718
0
VERTEX
8
CUT
10
101.5507
20
70
0
SEQEND
0
POLYLINE
8
CUT
66
1
70
0
0
VERTEX
8
CUT
10
106.3261
20
70
0
VERTEX
8
CUT
10
108.1025
20
68.718
0
VERTEX
8
CUT
10
109.8789
20
70
0
SEQEND
0
POLYLINE
8
CUT
66
1
70
0
0
VERTEX
8
CUT
10
114.6544
20
70
0
VERTEX
8
CUT
10
116.4307
20
68.718
0
VERTEX
8
CUT
10
118.2071
20
70
0
SEQEND
0
POLYLINE
8
CUT
66
1
70
0
0
VERTEX
8
CUT
10
4
20
61.2
0
VERTEX
8
CUT
10
6.6327
20
63.1
0
VERTEX
8
CUT
10
6.6327
20
66.9
0
VERTEX
8
CUT
10
4
20
68.8
0
VERTEX
8
CUT
10
1.3673
20
66.9
0
VERTEX
8
CUT
10
1.3673
20
63.1
0
VERTEX
8
CUT
10
4
20
61.2
0
SEQEND
0
POLYLINE
8
CUT
66
1
70
0
0
VERTEX
8
CUT
10
7.4641
20
66
0
VERTEX
8
CUT
10
7.4641
20
67.5
0
VERTEX
8
CUT
10
4
20
70
0
VERTEX
8
CUT
10
0.5359
20
67.5
0
VERTEX
8
CUT
10
0.5359
20
66
0
SEQEND
0
POLYLINE
8
CUT
66
1
70
0
0
VERTEX
8
CUT
10
0.5359
20
64
0
VERTEX
8
CUT
10
0.5359
20
62.5
0
VERTEX
8
CUT
10
4
20
60
0
VERTEX
8
CUT
10
7.4641
20
62.5
0
VERTEX
8
CUT
10
7.4641
20
64
0
SEQEND
0
POLYLINE
8
CUT
66
1
70
0
0
VERTEX
8
CUT
10
12.3282
20
61.2
0
VERTEX
8
CUT
10
14.9609
20
63.1
0
VERTEX
8
CUT
10
14.9609
20
66.9
0
VERTEX
8
CUT
10
12.3282
20
68.8
0
VERTEX
8
CUT
10
9.6955
20
66.9
0
VERTEX
8
CUT
10
9.6955
20
63.1
0
VERTEX
8
CUT
10
12.3282
20
61.2
0
SEQEND
0
POLYLINE
8
CUT
66
1
70
0
0
VERTEX
8
CUT
10
15.7923
20
66
0
VERTEX
8
CUT
10
15.7923
20
67.5
0
VERTEX
8
CUT
10
12.3282
20
70
0
VERTEX
8
CUT
10
8.8641
20
67.5
0
VERTEX
8
CUT
10
8.8641
20
66
0
SEQEND
0
POLYLINE
8
CUT
66
1
70
0
0
VERTEX
8
CUT
10
8.8641
20
64
0
VERTEX
8
CUT
10
8.8641
20
62.5
0
VERTEX
8
CUT
10
12.3282
20
60
0
VERTEX
8
CUT
10
15.7923
20
62.5
0
VERTEX
8
CUT
10
15.7923
20
64
0
SEQEND
0
POLYLINE
8
CUT
66
1
70
0
0
VERTEX
8
CUT
10
20.6564
20
61.2
0
VERTEX
8
CUT
10
23.2891
20
63.1
0
VERTEX
8
CUT
10
23.2891
20
66.9
0
VERTEX
8
CUT
10
20.6564
20
68.8
0
VERTEX
8
CUT
10
18.0237
20
66.9
0
VERTEX
8
CUT
10
18.0237
20
63.1
0
VERTEX
8
CUT
10
20.6564
20
61.2
0
SEQEND
0
POLYLINE
8
CUT
66
1
70
0
0
VERTEX
8
CUT
10
24.1205
20
66
0
VERTEX
8
CUT
10
24.1205
20
67.5
0
VERTEX
8
CUT
10
20.6564
20
70
0
VERTEX
8
CUT
10
17.1923
20
67.5
0
VERTEX
8
CUT
10
17.1923
20
66
0
SEQEND
0
POLYLINE
8
CUT
66
1
70
0
0
VERTEX
8
CUT
10
17.1923
20
64
0
VERTEX
8
CUT
10
17.1923
20
62.5
0
VERTEX
8
CUT
10
20.6564
20
60
0
VERTEX
8
CUT
10
24.1205
20
62.5
0
VERTEX
8
CUT
10
24.1205
20
64
0
SEQEND
0
POLYLINE
8
CUT
66
1
70
0
0
VERTEX
8
CUT
10
28.9846
20
61.2
0
VERTEX
8
CUT
10
31.6173
20
63.1
0
VERTEX
8
CUT
10
31.6173
20
66.9
0
VERTEX
8
CUT
10
28.9846
20
68.8
0
VERTEX
8
CUT
10
26.3519
20
66.9
0
VERTEX
8
CUT
10
26.3519
20
63.1
0
VERTEX
8
CUT
10
28.9846
20
61.2
0
SEQEND
0
POLYLINE
8
CUT
66
1
70
0
0
VERTEX
8
CUT
10
32.4487
20
66
0
VERTEX
8
CUT
10
32.4487
20
67.5
0
VERTEX
8
CUT
10
28.9846
20
70
0
VERTEX
8
CUT
10
25.5205
20
67.5
0
VERTEX
8
CUT
10
25.5205
20
66
0
SEQEND
0
POLYLINE
8
CUT
66
1
70
0
0
VERTEX
8
CUT
10
25.5205
20
64
0
VERTEX
8
CUT
10
25.5205
20
62.5
0
VERTEX
8
CUT
10
28.9846
20
60
0
VERTEX
8
CUT
10
32.4487
20
62.5
0
VERTEX
8
CUT
10
32.4487
20
64
0
SEQEND
0
POLYLINE
8
CUT
66
1
70
0
0
VERTEX
8
CUT
10
37.3128
20
61.2
0
VERTEX
8
CUT
10
39.9455
20
63.1
0
VERTEX
8
CUT
10
39.9455
20
66.9
0
VERTEX
8
CUT
10
37.3128
20
68.8
0
VERTEX
8
CUT
10
34.6801
20
66.9
0
VERTEX
8
CUT
10
34.6801
20
63.1
0
VERTEX
8
CUT
10
37.3128
20
61.2
0
SEQEND
0
POLYLINE
8
CUT
66
1
70
0
0
VERTEX
8
CUT
10
40.7769
20
66
0
VERTEX
8
CUT
10
40.7769
20
67.5
0
VERTEX
8
CUT
10
37.3128
20
70
0
VERTEX
8
CUT
10
33.8487
20
67.5
0
VERTEX
8
CUT
10
33.8487
20
66
0
SEQEND
0
POLYLINE
8
CUT
66
1
70
0
0
VERTEX
8
CUT
10
33.8487
20
64
0
VERTEX
8
CUT
10
33.8487
20
62.5
0
VERTEX
8
CUT
10
37.3128
20
60
0
VERTEX
8
CUT
10
40.7769
20
62.5
0
VERTEX
8
CUT
10
40.7769
20
64
0
SEQEND
0
POLYLINE
8
CUT
66
1
70
0
0
VERTEX
8
CUT
10
45.641
20
61.2
0
VERTEX
8
CUT
10
48.2737
20
63.1
0
VERTEX
8
CUT
10
48.2737
20
66.9
0
VERTEX
8
CUT
10
45.641
20
68.8
0
VERTEX
8
CUT
10
43.0083
20
66.9
0
VERTEX
8
CUT
10
43.0083
20
63.1
0
VERTEX
8
CUT
10
45.641
20
61.2
0
SEQEND
0
POLYLINE
8
CUT
66
1
70
0
0
VERTEX
8
CUT
10
49.1051
20
66
0
VERTEX
8
CUT
10
49.1051
20
67.5
0
VERTEX
8
CUT
10
45.641
20
70
0
VERTEX
8
CUT
10
42.1769
20
67.5
0
VERTEX
8
CUT
10
42.1769
20
66
0
SEQEND
0
POLYLINE
8
CUT
66
1
70
0
0
VERTEX
8
CUT
10
42.1769
20
64
0
VERTEX
8
CUT
10
42.1769
20
62.5
0
VERTEX
8
CUT
10
45.641
20
60
0
VERTEX
8
CUT
10
49.1051
20
62.5
0
VERTEX
8
CUT
10
49.1051
20
64
0
SEQEND
0
POLYLINE
8
CUT
66
1
70
0
0
VERTEX
8
CUT
10
53.9692
20
61.2
0
VERTEX
8
CUT
10
56.6019
20
63.1
0
VERTEX
8
CUT
10
56.6019
20
66.9
0
VERTEX
8
CUT
10
53.9692
20
68.8
0
VERTEX
8
CUT
10
51.3365
20
66.9
0
VERTEX
8
CUT
10
51.3365
20
63.1
0
VERTEX
8
CUT
10
53.9692
20
61.2
0
SEQEND
0
POLYLINE
8
CUT
66
1
70
0
0
VERTEX
8
CUT
10
57.4333
20
66
0
VERTEX
8
CUT
10
57.4333
20
67.5
0
VERTEX
8
CUT
10
53.9692
20
70
0
VERTEX
8
CUT
10
50.5051
20
67.5
0
VERTEX
8
CUT
10
50.5051
20
66
0
SEQEND
0
POLYLINE
8
CUT
66
1
70
0
0
VERTEX
8
CUT
10
50.5051
20
64
0
VERTEX
8
CUT
10
50.5051
20
62.5
0
VERTEX
8
CUT
10
53.9692
20
60
0
VERTEX
8
CUT
10
57.4333
20
62.5
0
VERTEX
8
CUT
10
57.4333
20
64
0
SEQEND
0
POLYLINE
8
CUT
66
1
70
0
0
VERTEX
8
CUT
10
62.2974
20
61.2
0
VERTEX
8
CUT
10
64.9301
20
63.1
0
VERTEX
8
CUT
10
64.9301
20
66.9
0
VERTEX
8
CUT
10
62.2974
20
68.8
0
VERTEX
8
CUT
10
59.6647
20
66.9
0
VERTEX
8
CUT
10
59.6647
20
63.1
0
VERTEX
8
CUT
10
62.2974
20
61.2
0
SEQEND
0
POLYLINE
8
CUT
66
1
70
0
0
VERTEX
8
CUT
10
65.7615
20
66
0
VERTEX
8
CUT
10
65.7615
20
67.5
0
VERTEX
8
CUT
10
62.2974
20
70
0
VERTEX
8
CUT
10
58.8333
20
67.5
0
VERTEX
8
CUT
10
58.8333
20
66
0
SEQEND
0
POLYLINE
8
CUT
66
1
70
0
0
VERTEX
8
CUT
10
58.8333
20
64
0
VERTEX
8
CUT
10
58.8333
20
62.5
0
VERTEX
8
CUT
10
62.2974
20
60
0
VERTEX
8
CUT
10
65.7615
20
62.5
0
VERTEX
8
CUT
10
65.7615
20
64
0
SEQEND
0
POLYLINE
8
CUT
66
1
70
0
0
VERTEX
8
CUT
10
70.6256
20
61.2
0
VERTEX
8
CUT
10
73.2583
20
63.1
0
VERTEX
8
CUT
10
73.2583
20
66.9
0
VERTEX
8
CUT
10
70.6256
20
68.8
0
VERTEX
8
CUT
10
67.9929
20
66.9
0
VERTEX
8
CUT
10
67.9929
20
63.1
0
VERTEX
8
CUT
10
70.6256
20
61.2
0
SEQEND
0
POLYLINE
8
CUT
66
1
70
0
0
VERTEX
8
CUT
10
74.0897
20
66
0
VERTEX
8
CUT
10
74.0897
20
67.5
0
VERTEX
8
CUT
10
70.6256
20
70
0
VERTEX
8
CUT
10
67.1615
20
67.5
0
VERTEX
8
CUT
10
67.1615
20
66
0
SEQEND
0
POLYLINE
8
CUT
66
1
70
0
0
VERTEX
8
CUT
10
67.1615
20
64
0
VERTEX
8
CUT
10
67.1615
20
62.5
0
VERTEX
8
CUT
10
70.6256
20
60
0
VERTEX
8
CUT
10
74.0897
20
62.5
0
VERTEX
8
CUT
10
74.0897
20
64
0
SEQEND
0
POLYLINE
8
CUT
66
1
70
0
0
VERTEX
8
CUT
10
78.9538
20
61.2
0
VERTEX
8
CUT
10
81.5865
20
63.1
0
VERTEX
8
CUT
10
81.5865
20
66.9
0
VERTEX
8
CUT
10
78.9538
20
68.8
0
VERTEX
8
CUT
10
76.3211
20
66.9
0
VERTEX
8
CUT
10
76.3211
20
63.1
0
VERTEX
8
CUT
10
78.9538
20
61.2
0
SEQEND
0
POLYLINE
8
CUT
66
1
70
0
0
VERTEX
8
CUT
10
82.4179
20
66
0
VERTEX
8
CUT
10
82.4179
20
67.5
0
VERTEX
8
CUT
10
78.9538
20
70
0
VERTEX
8
CUT
10
75.4897
20
67.5
0
VERTEX
8
CUT
10
75.4897
20
66
0
SEQEND
0
POLYLINE
8
CUT
66
1
70
0
0
VERTEX
8
CUT
10
75.4897
20
64
0
VERTEX
8
CUT
10
75.4897
20
62.5
0
VERTEX
8
CUT
10
78.9538
20
60
0
VERTEX
8
CUT
10
82.4179
20
62.5
0
VERTEX
8
CUT
10
82.4179
20
64
0
SEQEND
0
POLYLINE
8
CUT
66
1
70
0
0
VERTEX
8
CUT
10
87.282
20
61.2
0
VERTEX
8
CUT
10
89.9147
20
63.1
0
VERTEX
8
CUT
10
89.9147
20
66.9
0
VERTEX
8
CUT
10
87.282
20
68.8
0
VERTEX
8
CUT
10
84.6493
20
66.9
0
VERTEX
8
CUT
10
84.6493
20
63.1
0
VERTEX
8
CUT
10
87.282
20
61.2
0
SEQEND
0
POLYLINE
8
CUT
66
1
70
0
0
VERTEX
8
CUT
10
90.7461
20
66
0
VERTEX
8
CUT
10
90.7461
20
67.5
0
VERTEX
8
CUT
10
87.282
20
70
0
VERTEX
8
CUT
10
83.8179
20
67.5
0
VERTEX
8
CUT
10
83.8179
20
66
0
SEQEND
0
POLYLINE
8
CUT
66
1
70
0
0
VERTEX
8
CUT
10
83.8179
20
64
0
VERTEX
8
CUT
10
83.8179
20
62.5
0
VERTEX
8
CUT
10
87.282
20
60
0
VERTEX
8
CUT
10
90.7461
20
62.5
0
VERTEX
8
CUT
10
90.7461
20
64
0
SEQEND
0
POLYLINE
8
CUT
66
1
70
0
0
VERTEX
8
CUT
10
95.6102
20
61.2
0
VERTEX
8
CUT
10
98.243
20
63.1
0
VERTEX
8
CUT
10
98.243
20
66.9
0
VERTEX
8
CUT
10
95.6102
20
68.8
0
VERTEX
8
CUT
10
92.9775
20
66.9
0
VERTEX
8
CUT
10
92.9775
20
63.1
0
VERTEX
8
CUT
10
95.6102
20
61.2
0
SEQEND
0
POLYLINE
8
CUT
66
1
70
0
0
VERTEX
8
CUT
10
99.0743
20
66
0
VERTEX
8
CUT
10
99.0743
20
67.5
0
VERTEX
8
CUT
10
95.6102
20
70
0
VERTEX
8
CUT
10
92.1461
20
67.5
0
VERTEX
8
CUT
10
92.1461
20
66
0
SEQEND
0
POLYLINE
8
CUT
66
1
70
0
0
VERTEX
8
CUT
10
92.1461
20
64
0
VERTEX
8
CUT
10
92.1461
20
62.5
0
VERTEX
8
CUT
10
95.6102
20
60
0
VERTEX
8
CUT
10
99.0743
20
62.5
0
VERTEX
8
CUT
10
99.0743
20
64
0
SEQEND
0
POLYLINE
8
CUT
66
1
70
0
0
VERTEX
8
CUT
10
103.9384
20
61.2
0
VERTEX
8
CUT
10
106.5712
20
63.1
0
VERTEX
8
CUT
10
106.5712
20
66.9
0
VERTEX
8
CUT
10
103.9384
20
68.8
0
VERTEX
8
CUT
10
101.3057
20
66.9
0
VERTEX
8
CUT
10
101.3057
20
63.1
0
VERTEX
8
CUT
10
103.9384
20
61.2
0
SEQEND
0
POLYLINE
8
CUT
66
1
70
0
0
VERTEX
8
CUT
10
107.4025
20
66
0
VERTEX
8
CUT
10
107.4025
20
67.5
0
VERTEX
8
CUT
10
103.9384
20
70
0
VERTEX
8
CUT
10
100.4743
20
67.5
0
VERTEX
8
CUT
10
100.4743
20
66
0
SEQEND
0
POLYLINE
8
CUT
66
1
70
0
0
VERTEX
8
CUT
10
100.4743
20
64
0
VERTEX
8
CUT
10
100.4743
20
62.5
0
VERTEX
8
CUT
10
103.9384
20
60
0
VERTEX
8
CUT
10
107.4025
20
62.5
0
VERTEX
8
CUT
10
107.4025
20
64
0
SEQEND
0
POLYLINE
8
CUT
66
1
70
0
0
VERTEX
8
CUT
10
112.2666
20
61.2
0
VERTEX
8
CUT
10
114.8994
20
63.1
0
VERTEX
8
CUT
10
114.8994
20
66.9
0
VERTEX
8
CUT
10
112.2666
20
68.8
0
VERTEX
8
CUT
10
109.6339
20
66.9
0
VERTEX
8
CUT
10
109.6339
20
63.1
0
VERTEX
8
CUT
10
112.2666
20
61.2
0
SEQEND
0
POLYLINE
8
CUT
66
1
70
0
0
VERTEX
8
CUT
10
115.7307
20
66
0
VERTEX
8
CUT
10
115.7307
20
67.5
0
VERTEX
8
CUT
10
112.2666
20
70
0
VERTEX
8
CUT
10
108.8025
20
67.5
0
VERTEX
8
CUT
10
108.8025
20
66
0
SEQEND
0
POLYLINE
8
CUT
66
1
70
0
0
VERTEX
8
CUT
10
108.8025
20
64
0
VERTEX
8
CUT
10
108.8025
20
62.5
0
VERTEX
8
CUT
10
112.2666
20
60
0
VERTEX
8
CUT
10
115.7307
20
62.5
0
VERTEX
8
CUT
10
115.7307
20
64
0
SEQEND
0
POLYLINE
8
CUT
66
1
70
0
0
VERTEX
8
CUT
10
120
20
68.3707
0
VERTEX
8
CUT
10
117.9621
20
66.9
0
VERTEX
8
CUT
10
117.9621
20
63.1
0
VERTEX
8
CUT
10
120
20
61.6293
0
SEQEND
0
POLYLINE
8
CUT
66
1
70
0
0
VERTEX
8
CUT
10
120
20
69.5707
0
VERTEX
8
CUT
10
117.1307
20
67.5
0
VERTEX
8
CUT
10
117.1307
20
66
0
SEQEND
0
POLYLINE
8
CUT
66
1
70
0
0
VERTEX
8
CUT
10
117.1307
20
64
0
VERTEX
8
CUT
10
117.1307
20
62.5
0
VERTEX
8
CUT
10
120
20
60.4293
0
SEQEND
0
POLYLINE
8
CUT
66
1
70
0
0
VERTEX
8
CUT
10
0
20
52.6004
0
VERTEX
8
CUT
10
2.4686
20
54.382
0
VERTEX
8
CUT
10
2.4686
20
58.182
0
VERTEX
8
CUT
10
0
20
59.9636
0
SEQEND
0
POLYLINE
8
CUT
66
1
70
0
0
VERTEX
8
CUT
10
3.3
20
57.282
0
VERTEX
8
CUT
10
3.3
20
58.782
0
VERTEX
8
CUT
10
0
20
61.1636
0
SEQEND
0
POLYLINE
8
CUT
66
1
70
0
0
VERTEX
8
CUT
10
0
20
51.4004
0
VERTEX
8
CUT
10
3.3
20
53.782
0
VERTEX
8
CUT
10
3.3
20
55.282
0
SEQEND
0
POLYLINE
8
CUT
66
1
70
0
0
VERTEX
8
CUT
10
8.1641
20
52.482
0
VERTEX
8
CUT
10
10.7968
20
54.382
0
VERTEX
8
CUT
10
10.7968
20
58.182
0
VERTEX
8
CUT
10
8.1641
20
60.082
0
VERTEX
8
CUT
10
5.5314
20
58.182
0
VERTEX
8
CUT
10
5.5314
20
54.382
0
VERTEX
8
CUT
10
8.1641
20
52.482
0
SEQEND
0
POLYLINE
8
CUT
66
1
70
0
0
VERTEX
8
CUT
10
11.6282
20
57.282
0
VERTEX
8
CUT
10
11.6282
20
58.782
0
VERTEX
8
CUT
10
8.1641
20
61.282
0
VERTEX
8
CUT
10
4.7
20
58.782
0
VERTEX
8
CUT
10
4.7
20
57.282
0
SEQEND
0
POLYLINE
8
CUT
66
1
70
0
0
VERTEX
8
CUT
10
4.7
20
55.282
0
VERTEX
8
CUT
10
4.7
20
53.782
0
VERTEX
8
CUT
10
8.1641
20
51.282
0
VERTEX
8
CUT
10
11.6282
20
53.782
0
VERTEX
8
CUT
10
11.6282
20
55.282
0
SEQEND
0
POLYLINE
8
CUT
66
1
70
0
0
VERTEX
8
CUT
10
16.4923
20
52.482
0
VERTEX
8
CUT
10
19.125
20
54.382
0
VERTEX
8
CUT
10
19.125
20
58.182
0
VERTEX
8
CUT
10
16.4923
20
60.082
0
VERTEX
8
CUT
10
13.8596
20
58.182
0
VERTEX
8
CUT
10
13.8596
20
54.382
0
VERTEX
8
CUT
10
16.4923
20
52.482
0
SEQEND
0
POLYLINE
8
CUT
66
1
70
0
0
VERTEX
8
CUT
10
19.9564
20
57.282
0
VERTEX
8
CUT
10
19.9564
20
58.782
0
VERTEX
8
CUT
10
16.4923
20
61.282
0
VERTEX
8
CUT
10
13.0282
20
58.782
0
VERTEX
8
CUT
10
13.0282
20
57.282
0
SEQEND
0
POLYLINE
8
CUT
66
1
70
0
0
VERTEX
8
CUT
10
13.0282
20
55.282
0
VERTEX
8
CUT
10
13.0282
20
53.782
0
VERTEX
8
CUT
10
16.4923
20
51.282
0
VERTEX
8
CUT
10
19.9564
20
53.782
0
VERTEX
8
CUT
10
19.9564
20
55.282
0
SEQEND
0
POLYLINE
8
CUT
66
1
70
0
0
VERTEX
8
CUT
10
24.8205
20
52.482
0
VERTEX
8
CUT
10
27.4532
20
54.382
0
VERTEX
8
CUT
10
27.4532
20
58.182
0
VERTEX
8
CUT
10
24.8205
20
60.082
0
VERTEX
8
CUT
10
22.1878
20
58.182
0
VERTEX
8
CUT
10
22.1878
20
54.382
0
VERTEX
8
CUT
10
24.8205
20
52.482
0
SEQEND
0
POLYLINE
8
CUT
66
1
70
0
0
VERTEX
8
CUT
10
28.2846
20
57.282
0
VERTEX
8
CUT
10
28.2846
20
58.782
0
VERTEX
8
CUT
10
24.8205
20
61.282
0
VERTEX
8
CUT
10
21.3564
20
58.782
0
VERTEX
8
CUT
10
21.3564
20
57.282
0
SEQEND
0
POLYLINE
8
CUT
66
1
70
0
0
VERTEX
8
CUT
10
21.3564
20
55.282
0
VERTEX
8
CUT
10
21.3564
20
53.782
0
VERTEX
8
CUT
10
24.8205
20
51.282
0
VERTEX
8
CUT
10
28.2846
20
53.782
0
VERTEX
8
CUT
10
28.2846
20
55.282
0
SEQEND
0
POLYLINE
8
CUT
66
1
70
0
0
VERTEX
8
CUT
10
33.1487
20
52.482
0
VERTEX
8
CUT
10
35.7814
20
54.382
0
VERTEX
8
CUT
10
35.7814
20
58.182
0
VERTEX
8
CUT
10
33.1487
20
60.082
0
VERTEX
8
CUT
10
30.516
20
58.182
0
VERTEX
8
CUT
10
30.516
20
54.382
0
VERTEX
8
CUT
10
33.1487
20
52.482
0
SEQEND
0
POLYLINE
8
CUT
66
1
70
0
0
VERTEX
8
CUT
10
36.6128
20
57.282
0
VERTEX
8
CUT
10
36.6128
20
58.782
0
VERTEX
8
CUT
10
33.1487
20
61.282
0
VERTEX
8
CUT
10
29.6846
20
58.782
0
VERTEX
8
CUT
10
29.6846
20
57.282
0
SEQEND
0
POLYLINE
8
CUT
66
1
70
0
0
VERTEX
8
CUT
10
29.6846
20
55.282
0
VERTEX
8
CUT
10
29.6846
20
53.782
0
VERTEX
8
CUT
10
33.1487
20
51.282
0
VERTEX
8
CUT
10
36.6128
20
53.782
0
VERTEX
8
CUT
10
36.6128
20
55.282
0
SEQEND
0
POLYLINE
8
CUT
66
1
70
0
0
VERTEX
8
CUT
10
41.4769
20
52.482
0
VERTEX
8
CUT
10
44.1096
20
54.382
0
VERTEX
8
CUT
10
44.1096
20
58.182
0
VERTEX
8
CUT
10
41.4769
20
60.082
0
VERTEX
8
CUT
10
38.8442
20
58.182
0
VERTEX
8
CUT
10
38.8442
20
54.382
0
VERTEX
8
CUT
10
41.4769
20
52.482
0
SEQEND
0
POLYLINE
8
CUT
66
1
70
0
0
VERTEX
8
CUT
10
44.941
20
57.282
0
VERTEX
8
CUT
10
44.941
20
58.782
0
VERTEX
8
CUT
10
41.4769
20
61.282
0
VERTEX
8
CUT
10
38.0128
20
58.782
0
VERTEX
8
CUT
10
38.0128
20
57.282
0
SEQEND
0
POLYLINE
8
CUT
66
1
70
0
0
VERTEX
8
CUT
10
38.0128
20
55.282
0
VERTEX
8
CUT
10
38.0128
20
53.782
0
VERTEX
8
CUT
10
41.4769
20
51.282
0
VERTEX
8
CUT
10
44.941
20
53.782
0
VERTEX
8
CUT
10
44.941
20
55.282
0
SEQEND
0
POLYLINE
8
CUT
66
1
70
0
0
VERTEX
8
CUT
10
49.8051
20
52.482
0
VERTEX
8
CUT
10
52.4378
20
54.382
0
VERTEX
8
CUT
10
52.4378
20
58.182
0
VERTEX
8
CUT
10
49.8051
20
60.082
0
VERTEX
8
CUT
10
47.1724
20
58.182
0
VERTEX
8
CUT
10
47.1724
20
54.382
0
VERTEX
8
CUT
10
49.8051
20
52.482
0
SEQEND
0
POLYLINE
8
CUT
66
1
70
0
0
VERTEX
8
CUT
10
53.2692
20
57.282
0
VERTEX
8
CUT
10
53.2692
20
58.782
0
VERTEX
8
CUT
10
49.8051
20
61.282
0
VERTEX
8
CUT
10
46.341
20
58.782
0
VERTEX
8
CUT
10
46.341
20
57.282
0
SEQEND
0
POLYLINE
8
CUT
66
1
70
0
0
VERTEX
8
CUT
10
46.341
20
55.282
0
VERTEX
8
CUT
10
46.341
20
53.782
0
VERTEX
8
CUT
10
49.8051
20
51.282
0
VERTEX
8
CUT
10
53.2692
20
53.782
0
VERTEX
8
CUT
10
53.2692
20
55.282
0
SEQEND
0
POLYLINE
8
CUT
66
1
70
0
0
VERTEX
8
CUT
10
58.1333
20
52.482
0
VERTEX
8
CUT
10
60.766
20
54.382
0
VERTEX
8
CUT
10
60.766
20
58.182
0
VERTEX
8
CUT
10
58.1333
20
60.082
0
VERTEX
8
CUT
10
55.5006
20
58.182
0
VERTEX
8
CUT
10
55.5006
20
54.382
0
VERTEX
8
CUT
10
58.1333
20
52.482
0
SEQEND
0
POLYLINE
8
CUT
66
1
70
0
0
VERTEX
8
CUT
10
61.5974
20
57.282
0
VERTEX
8
CUT
10
61.5974
20
58.782
0
VERTEX
8
CUT
10
58.1333
20
61.282
0
VERTEX
8
CUT
10
54.6692
20
58.782
0
VERTEX
8
CUT
10
54.6692
20
57.282
0
SEQEND
0
POLYLINE
8
CUT
66
1
70
0
0
VERTEX
8
CUT
10
54.6692
20
55.282
0
VERTEX
8
CUT
10
54.6692
20
53.782
0
VERTEX
8
CUT
10
58.1333
20
51.282
0
VERTEX
8
CUT
10
61.5974
20
53.782
0
VERTEX
8
CUT
10
61.5974
20
55.282
0
SEQEND
0
POLYLINE
8
CUT
66
1
70
0
0
VERTEX
8
CUT
10
66.4615
20
52.482
0
VERTEX
8
CUT
10
69.0942
20
54.382
0
VERTEX
8
CUT
10
69.0942
20
58.182
0
VERTEX
8
CUT
10
66.4615
20
60.082
0
VERTEX
8
CUT
10
63.8288
20
58.182
0
VERTEX
8
CUT
10
63.8288
20
54.382
0
VERTEX
8
CUT
10
66.4615
20
52.482
0
SEQEND
0
POLYLINE
8
CUT
66
1
70
0
0
VERTEX
8
CUT
10
69.9256
20
57.282
0
VERTEX
8
CUT
10
69.9256
20
58.782
0
VERTEX
8
CUT
10
66.4615
20
61.282
0
VERTEX
8
CUT
10
62.9974
20
58.782
0
VERTEX
8
CUT
10
62.9974
20
57.282
0
SEQEND
0
POLYLINE
8
CUT
66
1
70
0
0
VERTEX
8
CUT
10
62.9974
20
55.282
0
VERTEX
8
CUT
10
62.9974
20
53.782
0
VERTEX
8
CUT
10
66.4615
20
51.282
0
VERTEX
8
CUT
10
69.9256
20
53.782
0
VERTEX
8
CUT
10
69.9256
20
55.282
0
SEQEND
0
POLYLINE
8
CUT
66
1
70
0
0
VERTEX
8
CUT
10
74.7897
20
52.482
0
VERTEX
8
CUT
10
77.4224
20
54.382
0
VERTEX
8
CUT
10
77.4224
20
58.182
0
VERTEX
8
CUT
10
74.7897
20
60.082
0
VERTEX
8
CUT
10
72.157
20
58.182
0
VERTEX
8
CUT
10
72.157
20
54.382
0
VERTEX
8
CUT
10
74.7897
20
52.482
0
SEQEND
0
POLYLINE
8
CUT
66
1
70
0
0
VERTEX
8
CUT
10
78.2538
20
57.282
0
VERTEX
8
CUT
10
78.2538
20
58.782
0
VERTEX
8
CUT
10
74.7897
20
61.282
0
VERTEX
8
CUT
10
71.3256
20
58.782
0
VERTEX
8
CUT
10
71.3256
20
57.282
0
SEQEND
0
POLYLINE
8
CUT
66
1
70
0
0
VERTEX
8
CUT
10
71.3256
20
55.282
0
VERTEX
8
CUT
10
71.3256
20
53.782
0
VERTEX
8
CUT
10
74.7897
20
51.282
0
VERTEX
8
CUT
10
78.2538
20
53.782
0
VERTEX
8
CUT
10
78.2538
20
55.282
0
SEQEND
0
POLYLINE
8
CUT
66
1
70
0
0
VERTEX
8
CUT
10
83.1179
20
52.482
0
VERTEX
8
CUT
10
85.7506
20
54.382
0
VERTEX
8
CUT
10
85.7506
20
58.182
0
VERTEX
8
CUT
10
83.1179
20
60.082
0
VERTEX
8
CUT
10
80.4852
20
58.182
0
VERTEX
8
CUT
10
80.4852
20
54.382
0
VERTEX
8
CUT
10
83.1179
20
52.482
0
SEQEND
0
POLYLINE
8
CUT
66
1
70
0
0
VERTEX
8
CUT
10
86.582
20
57.282
0
VERTEX
8
CUT
10
86.582
20
58.782
0
VERTEX
8
CUT
10
83.1179
20
61.282
0
VERTEX
8
CUT
10
79.6538
20
58.782
0
VERTEX
8
CUT
10
79.6538
20
57.282
0
SEQEND
0
POLYLINE
8
CUT
66
1
70
0
0
VERTEX
8
CUT
10
79.6538
20
55.282
0
VERTEX
8
CUT
10
79.6538
20
53.782
0
VERTEX
8
CUT
10
83.1179
20
51.282
0
VERTEX
8
CUT
10
86.582
20
53.782
0
VERTEX
8
CUT
10
86.582
20
55.282
0
SEQEND
0
POLYLINE
8
CUT
66
1
70
0
0
VERTEX
8
CUT
10
91.4461
20
52.482
0
VERTEX
8
CUT
10
94.0789
20
54.382
0
VERTEX
8
CUT
10
94.0789
20
58.182
0
VERTEX
8
CUT
10
91.4461
20
60.082
0
VERTEX
8
CUT
10
88.8134
20
58.182
0
VERTEX
8
CUT
10
88.8134
20
54.382
0
VERTEX
8
CUT
10
91.4461
20
52.482
0
SEQEND
0
POLYLINE
8
CUT
66
1
70
0
0
VERTEX
8
CUT
10
94.9102
20
57.282
0
VERTEX
8
CUT
10
94.9102
20
58.782
0
VERTEX
8
CUT
10
91.4461
20
61.282
0
VERTEX
8
CUT
10
87.982
20
58.782
0
VERTEX
8
CUT
10
87.982
20
57.282
0
SEQEND
0
POLYLINE
8
CUT
66
1
70
0
0
VERTEX
8
CUT
10
87.982
20
55.282
0
VERTEX
8
CUT
10
87.982
20
53.782
0
VERTEX
8
CUT
10
91.4461
20
51.282
0
VERTEX
8
CUT
10
94.9102
20
53.782
0
VERTEX
8
CUT
10
94.9102
20
55.282
0
SEQEND
0
POLYLINE
8
CUT
66
1
70
0
0
VERTEX
8
CUT
10
99.7743
20
52.482
0
VERTEX
8
CUT
10
102.4071
20
54.382
0
VERTEX
8
CUT
10
102.4071
20
58.182
0
VERTEX
8
CUT
10
99.7743
20
60.082
0
VERTEX
8
CUT
10
97.1416
20
58.182
0
VERTEX
8
CUT
10
97.1416
20
54.382
0
VERTEX
8
CUT
10
99.7743
20
52.482
0
SEQEND
0
POLYLINE
8
CUT
66
1
70
0
0
VERTEX
8
CUT
10
103.2384
20
57.282
0
VERTEX
8
CUT
10
103.2384
20
58.782
0
VERTEX
8
CUT
10
99.7743
20
61.282
0
VERTEX
8
CUT
10
96.3102
20
58.782
0
VERTEX
8
CUT
10
96.3102
20
57.282
0
SEQEND
0
POLYLINE
8
CUT
66
1
70
0
0
VERTEX
8
CUT
10
96.3102
20
55.282
0
VERTEX
8
CUT
10
96.3102
20
53.782
0
VERTEX
8
CUT
10
99.7743
20
51.282
0
VERTEX
8
CUT
10
103.2384
20
53.782
0
VERTEX
8
CUT
10
103.2384
20
55.282
0
SEQEND
0
POLYLINE
8
CUT
66
1
70
0
0
VERTEX
8
CUT
10
108.1025
20
52.482
0
VERTEX
8
CUT
10
110.7353
20
54.382
0
VERTEX
8
CUT
10
110.7353
20
58.182
0
VERTEX
8
CUT
10
108.1025
20
60.082
0
VERTEX
8
CUT
10
105.4698
20
58.182
0
VERTEX
8
CUT
10
105.4698
20
54.382
0
VERTEX
8
CUT
10
108.1025
20
52.482
0
SEQEND
0
POLYLINE
8
CUT
66
1
70
0
0
VERTEX
8
CUT
10
111.5666
20
57.282
0
VERTEX
8
CUT
10
111.5666
20
58.782
0
VERTEX
8
CUT
10
108.1025
20
61.282
0
VERTEX
8
CUT
10
104.6384
20
58.782
0
VERTEX
8
CUT
10
104.6384
20
57.282
0
SEQEND
0
POLYLINE
8
CUT
66
1
70
0
0
VERTEX
8
CUT
10
104.6384
20
55.282
0
VERTEX
8
CUT
10
104.6384
20
53.782
0
VERTEX
8
CUT
10
108.1025
20
51.282
0
VERTEX
8
CUT
10
111.5666
20
53.782
0
VERTEX
8
CUT
10
111.5666
20
55.282
0
SEQEND
0
POLYLINE
8
CUT
66
1
70
0
0
VERTEX
8
CUT
10
116.4307
20
52.482
0
VERTEX
8
CUT
10
119.0635
20
54.382
0
VERTEX
8
CUT
10
119.0635
20
58.182
0
VERTEX
8
CUT
10
116.4307
20
60.082
0
VERTEX
8
CUT
10
113.798
20
58.182
0
VERTEX
8
CUT
10
113.798
20
54.382
0
VERTEX
8
CUT
10
116.4307
20
52.482
0
SEQEND
0
POLYLINE
8
CUT
66
1
70
0
0
VERTEX
8
CUT
10
119.8948
20
57.282
0
VERTEX
8
CUT
10
119.8948
20
58.782
0
VERTEX
8
CUT
10
116.4307
20
61.282
0
VERTEX
8
CUT
10
112.9666
20
58.782
0
VERTEX
8
CUT
10
112.9666
20
57.282
0
SEQEND
0
POLYLINE
8
CUT
66
1
70
0
0
VERTEX
8
CUT
10
112.9666
20
55.282
0
VERTEX
8
CUT
10
112.9666
20
53.782
0
VERTEX
8
CUT
10
116.4307
20
51.282
0
VERTEX
8
CUT
10
119.8948
20
53.782
0
VERTEX
8
CUT
10
119.8948
20
55.282
0
SEQEND
0
POLYLINE
8
CUT
66
1
70
0
0
VERTEX
8
CUT
10
4
20
43.764
0
VERTEX
8
CUT
10
6.6327
20
45.664
0
VERTEX
8
CUT
10
6.6327
20
49.464
0
VERTEX
8
CUT
10
4
20
51.364
0
VERTEX
8
CUT
10
1.3673
20
49.464
0
VERTEX
8
CUT
10
1.3673
20
45.664
0
VERTEX
8
CUT
10
4
20
43.764
0
SEQEND
0
POLYLINE
8
CUT
66
1
70
0
0
VERTEX
8
CUT
10
7.4641
20
48.564
0
VERTEX
8
CUT
10
7.4641
20
50.064
0
VERTEX
8
CUT
10
4
20
52.564
0
VERTEX
8
CUT
10
0.5359
20
50.064
0
VERTEX
8
CUT
10
0.5359
20
48.564
0
SEQEND
0
POLYLINE
8
CUT
66
1
70
0
0
VERTEX
8
CUT
10
0.5359
20
46.564
0
VERTEX
8
CUT
10
0.5359
20
45.064
0
VERTEX
8
CUT
10
4
20
42.564
0
VERTEX
8
CUT
10
7.4641
20
45.064
0
VERTEX
8
CUT
10
7.4641
20
46.564
0
SEQEND
0
POLYLINE
8
CUT
66
1
70
0
0
VERTEX
8
CUT
10
12.3282
20
43.764
0
VERTEX
8
CUT
10
14.9609
20
45.664
0
VERTEX
8
CUT
10
14.9609
20
49.464
0
VERTEX
8
CUT
10
12.3282
20
51.364
0
VERTEX
8
CUT
10
9.6955
20
49.464
0
VERTEX
8
CUT
10
9.6955
20
45.664
0
VERTEX
8
CUT
10
12.3282
20
43.764
0
SEQEND
0
POLYLINE
8
CUT
66
1
70
0
0
VERTEX
8
CUT
10
15.7923
20
48.564
0
VERTEX
8
CUT
10
15.7923
20
50.064
0
VERTEX
8
CUT
10
12.3282
20
52.564
0
VERTEX
8
CUT
10
8.8641
20
50.064
0
VERTEX
8
CUT
10
8.8641
20
48.564
0
SEQEND
0
POLYLINE
8
CUT
66
1
70
0
0
VERTEX
8
CUT
10
8.8641
20
46.564
0
VERTEX
8
CUT
10
8.8641
20
45.064
0
VERTEX
8
CUT
10
12.3282
20
42.564
0
VERTEX
8
CUT
10
15.7923
20
45.064
0
VERTEX
8
CUT
10
15.7923
20
46.564
0
SEQEND
0
POLYLINE
8
CUT
66
1
70
0
0
VERTEX
8
CUT
10
20.6564
20
43.764
0
VERTEX
8
CUT
10
23.2891
20
45.664
0
VERTEX
8
CUT
10
23.2891
20
49.464
0
VERTEX
8
CUT
10
20.6564
20
51.364
0
VERTEX
8
CUT
10
18.0237
20
49.464
0
VERTEX
8
CUT
10
18.0237
20
45.664
0
VERTEX
8
CUT
10
20.6564
20
43.764
0
SEQEND
0
POLYLINE
8
CUT
66
1
70
0
0
VERTEX
8
CUT
10
24.1205
20
48.564
0
VERTEX
8
CUT
10
24.1205
20
50.064
0
VERTEX
8
CUT
10
20.6564
20
52.564
0
VERTEX
8
CUT
10
17.1923
20
50.064
0
VERTEX
8
CUT
10
17.1923
20
48.564
0
SEQEND
0
POLYLINE
8
CUT
66
1
70
0
0
VERTEX
8
CUT
10
17.1923
20
46.564
0
VERTEX
8
CUT
10
17.1923
20
45.064
0
VERTEX
8
CUT
10
20.6564
20
42.564
0
VERTEX
8
CUT
10
24.1205
20
45.064
0
VERTEX
8
CUT
10
24.1205
20
46.564
0
SEQEND
0
POLYLINE
8
CUT
66
1
70
0
0
VERTEX
8
CUT
10
28.9846
20
43.764
0
VERTEX
8
CUT
10
31.6173
20
45.664
0
VERTEX
8
CUT
10
31.6173
20
49.464
0
VERTEX
8
CUT
10
28.9846
20
51.364
0
VERTEX
8
CUT
10
26.3519
20
49.464
0
VERTEX
8
CUT
10
26.3519
20
45.664
0
VERTEX
8
CUT
10
28.9846
20
43.764
0
SEQEND
0
POLYLINE
8
CUT
66
1
70
0
0
VERTEX
8
CUT
10
32.4487
20
48.564
0
VERTEX
8
CUT
10
32.4487
20
50.064
0
VERTEX
8
CUT
10
28.9846
20
52.564
0
VERTEX
8
CUT
10
25.5205
20
50.064
0
VERTEX
8
CUT
10
25.5205
20
48.564
0
SEQEND
0
POLYLINE
8
CUT
66
1
70
0
0
VERTEX
8
CUT
10
25.5205
20
46.564
0
VERTEX
8
CUT
10
25.5205
20
45.064
0
VERTEX
8
CUT
10
28.9846
20
42.564
0
VERTEX
8
CUT
10
32.4487
20
45.064
0
VERTEX
8
CUT
10
32.4487
20
46.564
0
SEQEND
0
POLYLINE
8
CUT
66
1
70
0
0
VERTEX
8
CUT
10
37.3128
20
43.764
0
VERTEX
8
CUT
10
39.9455
20
45.664
0
VERTEX
8
CUT
10
39.9455
20
49.464
0
VERTEX
8
CUT
10
37.3128
20
51.364
0
VERTEX
8
CUT
10
34.6801
20
49.464
0
VERTEX
8
CUT
10
34.6801
20
45.664
0
VERTEX
8
CUT
10
37.3128
20
43.764
0
SEQEND
0
POLYLINE
8
CUT
66
1
70
0
0
VERTEX
8
CUT
10
40.7769
20
48.564
0
VERTEX
8
CUT
10
40.7769
20
50.064
0
VERTEX
8
CUT
10
37.3128
20
52.564
0
VERTEX
8
CUT
10
33.8487
20
50.064
0
VERTEX
8
CUT
10
33.8487
20
48.564
0
SEQEND
0
POLYLINE
8
CUT
66
1
70
0
0
VERTEX
8
CUT
10
33.8487
20
46.564
0
VERTEX
8
CUT
10
33.8487
20
45.064
0
VERTEX
8
CUT
10
37.3128
20
42.564
0
VERTEX
8
CUT
10
40.7769
20
45.064
0
VERTEX
8
CUT
10
40.7769
20
46.564
0
SEQEND
0
POLYLINE
8
CUT
66
1
70
0
0
VERTEX
8
CUT
10
45.641
20
43.764
0
VERTEX
8
CUT
10
48.2737
20
45.664
0
VERTEX
8
CUT
10
48.2737
20
49.464
0
VERTEX
8
CUT
10
45.641
20
51.364
0
VERTEX
8
CUT
10
43.0083
20
49.464
0
VERTEX
8
CUT
10
43.0083
20
45.664
0
VERTEX
8
CUT
10
45.641
20
43.764
0
SEQEND
0
POLYLINE
8
CUT
66
1
70
0
0
VERTEX
8
CUT
10
49.1051
20
48.564
0
VERTEX
8
CUT
10
49.1051
20
50.064
0
VERTEX
8
CUT
10
45.641
20
52.564
0
VERTEX
8
CUT
10
42.1769
20
50.064
0
VERTEX
8
CUT
10
42.1769
20
48.564
0
SEQEND
0
POLYLINE
8
CUT
66
1
70
0
0
VERTEX
8
CUT
10
42.1769
20
46.564
0
VERTEX
8
CUT
10
42.1769
20
45.064
0
VERTEX
8
CUT
10
45.641
20
42.564
0
VERTEX
8
CUT
10
49.1051
20
45.064
0
VERTEX
8
CUT
10
49.1051
20
46.564
0
SEQEND
0
POLYLINE
8
CUT
66
1
70
0
0
VERTEX
8
CUT
10
53.9692
20
43.764
0
VERTEX
8
CUT
10
56.6019
20
45.664
0
VERTEX
8
CUT
10
56.6019
20
49.464
0
VERTEX
8
CUT
10
53.9692
20
51.364
0
VERTEX
8
CUT
10
51.3365
20
49.464
0
VERTEX
8
CUT
10
51.3365
20
45.664
0
VERTEX
8
CUT
10
53.9692
20
43.764
0
SEQEND
0
POLYLINE
8
CUT
66
1
70
0
0
VERTEX
8
CUT
10
57.4333
20
48.564
0
VERTEX
8
CUT
10
57.4333
20
50.064
0
VERTEX
8
CUT
10
53.9692
20
52.564
0
VERTEX
8
CUT
10
50.5051
20
50.064
0
VERTEX
8
CUT
10
50.5051
20
48.564
0
SEQEND
0
POLYLINE
8
CUT
66
1
70
0
0
VERTEX
8
CUT
10
50.5051
20
46.564
0
VERTEX
8
CUT
10
50.5051
20
45.064
0
VERTEX
8
CUT
10
53.9692
20
42.564
0
VERTEX
8
CUT
10
57.4333
20
45.064
0
VERTEX
8
CUT
10
57.4333
20
46.564
0
SEQEND
0
POLYLINE
8
CUT
66
1
70
0
0
VERTEX
8
CUT
10
62.2974
20
43.764
0
VERTEX
8
CUT
10
64.9301
20
45.664
0
VERTEX
8
CUT
10
64.9301
20
49.464
0
VERTEX
8
CUT
10
62.2974
20
51.364
0
VERTEX
8
CUT
10
59.6647
20
49.464
0
VERTEX
8
CUT
10
59.6647
20
45.664
0
VERTEX
8
CUT
10
62.2974
20
43.764
0
SEQEND
0
POLYLINE
8
CUT
66
1
70
0
0
VERTEX
8
CUT
10
65.7615
20
48.564
0
VERTEX
8
CUT
10
65.7615
20
50.064
0
VERTEX
8
CUT
10
62.2974
20
52.564
0
VERTEX
8
CUT
10
58.8333
20
50.064
0
VERTEX
8
CUT
10
58.8333
20
48.564
0
SEQEND
0
POLYLINE
8
CUT
66
1
70
0
0
VERTEX
8
CUT
10
58.8333
20
46.564
0
VERTEX
8
CUT
10
58.8333
20
45.064
0
VERTEX
8
CUT
10
62.2974
20
42.564
0
VERTEX
8
CUT
10
65.7615
20
45.064
0
VERTEX
8
CUT
10
65.7615
20
46.564
0
SEQEND
0
POLYLINE
8
CUT
66
1
70
0
0
VERTEX
8
CUT
10
70.6256
20
43.764
0
VERTEX
8
CUT
10
73.2583
20
45.664
0
VERTEX
8
CUT
10
73.2583
20
49.464
0
VERTEX
8
CUT
10
70.6256
20
51.364
0
VERTEX
8
CUT
10
67.9929
20
49.464
0
VERTEX
8
CUT
10
67.9929
20
45.664
0
VERTEX
8
CUT
10
70.6256
20
43.764
0
SEQEND
0
POLYLINE
8
CUT
66
1
70
0
0
VERTEX
8
CUT
10
74.0897
20
48.564
0
VERTEX
8
CUT
10
74.0897
20
50.064
0
VERTEX
8
CUT
10
70.6256
20
52.564
0
VERTEX
8
CUT
10
67.1615
20
50.064
0
VERTEX
8
CUT
10
67.1615
20
48.564
0
SEQEND
0
POLYLINE
8
CUT
66
1
70
0
0
VERTEX
8
CUT
10
67.1615
20
46.564
0
VERTEX
8
CUT
10
67.1615
20
45.064
0
VERTEX
8
CUT
10
70.6256
20
42.564
0
VERTEX
8
CUT
10
74.0897
20
45.064
0
VERTEX
8
CUT
10
74.0897
20
46.564
0
SEQEND
0
POLYLINE
8
CUT
66
1
70
0
0
VERTEX
8
CUT
10
78.9538
20
43.764
0
VERTEX
8
CUT
10
81.5865
20
45.664
0
VERTEX
8
CUT
10
81.5865
20
49.464
0
VERTEX
8
CUT
10
78.9538
20
51.364
0
VERTEX
8
CUT
10
76.3211
20
49.464
0
VERTEX
8
CUT
10
76.3211
20
45.664
0
VERTEX
8
CUT
10
78.9538
20
43.764
0
SEQEND
0
POLYLINE
8
CUT
66
1
70
0
0
VERTEX
8
CUT
10
82.4179
20
48.564
0
VERTEX
8
CUT
10
82.4179
20
50.064
0
VERTEX
8
CUT
10
78.9538
20
52.564
0
VERTEX
8
CUT
10
75.4897
20
50.064
0
VERTEX
8
CUT
10
75.4897
20
48.564
0
SEQEND
0
POLYLINE
8
CUT
66
1
70
0
0
VERTEX
8
CUT
10
75.4897
20
46.564
0
VERTEX
8
CUT
10
75.4897
20
45.064
0
VERTEX
8
CUT
10
78.9538
20
42.564
0
VERTEX
8
CUT
10
82.4179
20
45.064
0
VERTEX
8
CUT
10
82.4179
20
46.564
0
SEQEND
0
POLYLINE
8
CUT
66
1
70
0
0
VERTEX
8
CUT
10
87.282
20
43.764
0
VERTEX
8
CUT
10
89.9147
20
45.664
0
VERTEX
8
CUT
10
89.9147
20
49.464
0
VERTEX
8
CUT
10
87.282
20
51.364
0
VERTEX
8
CUT
10
84.6493
20
49.464
0
VERTEX
8
CUT
10
84.6493
20
45.664
0
VERTEX
8
CUT
10
87.282
20
43.764
0
SEQEND
0
POLYLINE
8
CUT
66
1
70
0
0
VERTEX
8
CUT
10
90.7461
20
48.564
0
VERTEX
8
CUT
10
90.7461
20
50.064
0
VERTEX
8
CUT
10
87.282
20
52.564
0
VERTEX
8
CUT
10
83.8179
20
50.064
0
VERTEX
8
CUT
10
83.8179
20
48.564
0
SEQEND
0
POLYLINE
8
CUT
66
1
70
0
0
VERTEX
8
CUT
10
83.8179
20
46.564
0
VERTEX
8
CUT
10
83.8179
20
45.064
0
VERTEX
8
CUT
10
87.282
20
42.564
0
VERTEX
8
CUT
10
90.7461
20
45.064
0
VERTEX
8
CUT
10
90.7461
20
46.564
0
SEQEND
0
POLYLINE
8
CUT
66
1
70
0
0
VERTEX
8
CUT
10
95.6102
20
43.764
0
VERTEX
8
CUT
10
98.243
20
45.664
0
VERTEX
8
CUT
10
98.243
20
49.464
0
VERTEX
8
CUT
10
95.6102
20
51.364
0
VERTEX
8
CUT
10
92.9775
20
49.464
0
VERTEX
8
CUT
10
92.9775
20
45.664
0
VERTEX
8
CUT
10
95.6102
20
43.764
0
SEQEND
0
POLYLINE
8
CUT
66
1
70
0
0
VERTEX
8
CUT
10
99.0743
20
48.564
0
VERTEX
8
CUT
10
99.0743
20
50.064
0
VERTEX
8
CUT
10
95.6102
20
52.564
0
VERTEX
8
CUT
10
92.1461
20
50.064
0
VERTEX
8
CUT
10
92.1461
20
48.564
0
SEQEND
0
POLYLINE
8
CUT
66
1
70
0
0
VERTEX
8
CUT
10
92.1461
20
46.564
0
VERTEX
8
CUT
10
92.1461
20
45.064
0
VERTEX
8
CUT
10
95.6102
20
42.564
0
VERTEX
8
CUT
10
99.0743
20
45.064
0
VERTEX
8
CUT
10
99.0743
20
46.564
0
SEQEND
0
POLYLINE
8
CUT
66
1
70
0
0
VERTEX
8
CUT
10
103.9384
20
43.764
0
VERTEX
8
CUT
10
106.5712
20
45.664
0
VERTEX
8
CUT
10
106.5712
20
49.464
0
VERTEX
8
CUT
10
103.9384
20
51.364
0
VERTEX
8
CUT
10
101.3057
20
49.464
0
VERTEX
8
CUT
10
101.3057
20
45.664
0
VERTEX
8
CUT
10
103.9384
20
43.764
0
SEQEND
0
POLYLINE
8
CUT
66
1
70
0
0
VERTEX
8
CUT
10
107.4025
20
48.564
0
VERTEX
8
CUT
10
107.4025
20
50.064
0
VERTEX
8
CUT
10
103.9384
20
52.564
0
VERTEX
8
CUT
10
100.4743
20
50.064
0
VERTEX
8
CUT
10
100.4743
20
48.564
0
SEQEND
0
POLYLINE
8
CUT
66
1
70
0
0
VERTEX
8
CUT
10
100.4743
20
46.564
0
VERTEX
8
CUT
10
100.4743
20
45.064
0
VERTEX
8
CUT
10
103.9384
20
42.564
0
VERTEX
8
CUT
10
107.4025
20
45.064
0
VERTEX
8
CUT
10
107.4025
20
46.564
0
SEQEND
0
POLYLINE
8
CUT
66
1
70
0
0
VERTEX
8
CUT
10
112.2666
20
43.764
0
VERTEX
8
CUT
10
114.8994
20
45.664
0
VERTEX
8
CUT
10
114.8994
20
49.464
0
VERTEX
8
CUT
10
112.2666
20
51.364
0
VERTEX
8
CUT
10
109.6339
20
49.464
0
VERTEX
8
CUT
10
109.6339
20
45.664
0
VERTEX
8
CUT
10
112.2666
20
43.764
0
SEQEND
0
POLYLINE
8
CUT
66
1
70
0
0
VERTEX
8
CUT
10
115.7307
20
48.564
0
VERTEX
8
CUT
10
115.7307
20
50.064
0
VERTEX
8
CUT
10
112.2666
20
52.564
0
VERTEX
8
CUT
10
108.8025
20
50.064
0
VERTEX
8
CUT
10
108.8025
20
48.564
0
SEQEND
0
POLYLINE
8
CUT
66
1
70
0
0
VERTEX
8
CUT
10
108.8025
20
46.564
0
VERTEX
8
CUT
10
108.8025
20
45.064
0
VERTEX
8
CUT
10
112.2666
20
42.564
0
VERTEX
8
CUT
10
115.7307
20
45.064
0
VERTEX
8
CUT
10
115.7307
20
46.564
0
SEQEND
0
POLYLINE
8
CUT
66
1
70
0
0
VERTEX
8
CUT
10
120
20
50.9347
0
VERTEX
8
CUT
10
117.9621
20
49.464
0
VERTEX
8
CUT
10
117.9621
20
45.664
0
VERTEX
8
CUT
10
120
20
44.1933
0
SEQEND
0
POLYLINE
8
CUT
66
1
70
0
0
VERTEX
8
CUT
10
120
20
52.1347
0
VERTEX
8
CUT
10
117.1307
20
50.064
0
VERTEX
8
CUT
10
117.1307
20
48.564
0
SEQEND
0
POLYLINE
8
CUT
66
1
70
0
0
VERTEX
8
CUT
10
117.1307
20
46.564
0
VERTEX
8
CUT
10
117.1307
20
45.064
0
VERTEX
8
CUT
10
120
20
42.9933
0
SEQEND
0
POLYLINE
8
CUT
66
1
70
0
0
VERTEX
8
CUT
10
0
20
35.1644
0
VERTEX
8
CUT
10
2.4686
20
36.946
0
VERTEX
8
CUT
10
2.4686
20
40.746
0
VERTEX
8
CUT
10
0
20
42.5276
0
SEQEND
0
POLYLINE
8
CUT
66
1
70
0
0
VERTEX
8
CUT
10
3.3
20
39.846
0
VERTEX
8
CUT
10
3.3
20
41.346
0
VERTEX
8
CUT
10
0
20
43.7276
0
SEQEND
0
POLYLINE
8
CUT
66
1
70
0
0
VERTEX
8
CUT
10
0
20
33.9644
0
VERTEX
8
CUT
10
3.3
20
36.346
0
VERTEX
8
CUT
10
3.3
20
37.846
0
SEQEND
0
POLYLINE
8
CUT
66
1
70
0
0
VERTEX
8
CUT
10
8.1641
20
35.046
0
VERTEX
8
CUT
10
10.7968
20
36.946
0
VERTEX
8
CUT
10
10.7968
20
40.746
0
VERTEX
8
CUT
10
8.1641
20
42.646
0
VERTEX
8
CUT
10
5.5314
20
40.746
0
VERTEX
8
CUT
10
5.5314
20
36.946
0
VERTEX
8
CUT
10
8.1641
20
35.046
0
SEQEND
0
POLYLINE
8
CUT
66
1
70
0
0
VERTEX
8
CUT
10
11.6282
20
39.846
0
VERTEX
8
CUT
10
11.6282
20
41.346
0
VERTEX
8
CUT
10
8.1641
20
43.846
0
VERTEX
8
CUT
10
4.7
20
41.346
0
VERTEX
8
CUT
10
4.7
20
39.846
0
SEQEND
0
POLYLINE
8
CUT
66
1
70
0
0
VERTEX
8
CUT
10
4.7
20
37.846
0
VERTEX
8
CUT
10
4.7
20
36.346
0
VERTEX
8
CUT
10
8.1641
20
33.846
0
VERTEX
8
CUT
10
11.6282
20
36.346
0
VERTEX
8
CUT
10
11.6282
20
37.846
0
SEQEND
0
POLYLINE
8
CUT
66
1
70
0
0
VERTEX
8
CUT
10
16.4923
20
35.046
0
VERTEX
8
CUT
10
19.125
20
36.946
0
VERTEX
8
CUT
10
19.125
20
40.746
0
VERTEX
8
CUT
10
16.4923
20
42.646
0
VERTEX
8
CUT
10
13.8596
20
40.746
0
VERTEX
8
CUT
10
13.8596
20
36.946
0
VERTEX
8
CUT
10
16.4923
20
35.046
0
SEQEND
0
POLYLINE
8
CUT
66
1
70
0
0
VERTEX
8
CUT
10
19.9564
20
39.846
0
VERTEX
8
CUT
10
19.9564
20
41.346
0
VERTEX
8
CUT
10
16.4923
20
43.846
0
VERTEX
8
CUT
10
13.0282
20
41.346
0
VERTEX
8
CUT
10
13.0282
20
39.846
0
SEQEND
0
POLYLINE
8
CUT
66
1
70
0
0
VERTEX
8
CUT
10
13.0282
20
37.846
0
VERTEX
8
CUT
10
13.0282
20
36.346
0
VERTEX
8
CUT
10
16.4923
20
33.846
0
VERTEX
8
CUT
10
19.9564
20
36.346
0
VERTEX
8
CUT
10
19.9564
20
37.846
0
SEQEND
0
POLYLINE
8
CUT
66
1
70
0
0
VERTEX
8
CUT
10
24.8205
20
35.046
0
VERTEX
8
CUT
10
27.4532
20
36.946
0
VERTEX
8
CUT
10
27.4532
20
40.746
0
VERTEX
8
CUT
10
24.8205
20
42.646
0
VERTEX
8
CUT
10
22.1878
20
40.746
0
VERTEX
8
CUT
10
22.1878
20
36.946
0
VERTEX
8
CUT
10
24.8205
20
35.046
0
SEQEND
0
POLYLINE
8
CUT
66
1
70
0
0
VERTEX
8
CUT
10
28.2846
20
39.846
0
VERTEX
8
CUT
10
28.2846
20
41.346
0
VERTEX
8
CUT
10
24.8205
20
43.846
0
VERTEX
8
CUT
10
21.3564
20
41.346
0
VERTEX
8
CUT
10
21.3564
20
39.846
0
SEQEND
0
POLYLINE
8
CUT
66
1
70
0
0
VERTEX
8
CUT
10
21.3564
20
37.846
0
VERTEX
8
CUT
10
21.3564
20
36.346
0
VERTEX
8
CUT
10
24.8205
20
33.846
0
VERTEX
8
CUT
10
28.2846
20
36.346
0
VERTEX
8
CUT
10
28.2846
20
37.846
0
SEQEND
0
POLYLINE
8
CUT
66
1
70
0
0
VERTEX
8
CUT
10
33.1487
20
35.046
0
VERTEX
8
CUT
10
35.7814
20
36.946
0
VERTEX
8
CUT
10
35.7814
20
40.746
0
VERTEX
8
CUT
10
33.1487
20
42.646
0
VERTEX
8
CUT
10
30.516
20
40.746
0
VERTEX
8
CUT
10
30.516
20
36.946
0
VERTEX
8
CUT
10
33.1487
20
35.046
0
SEQEND
0
POLYLINE
8
CUT
66
1
70
0
0
VERTEX
8
CUT
10
36.6128
20
39.846
0
VERTEX
8
CUT
10
36.6128
20
41.346
0
VERTEX
8
CUT
10
33.1487
20
43.846
0
VERTEX
8
CUT
10
29.6846
20
41.346
0
VERTEX
8
CUT
10
29.6846
20
39.846
0
SEQEND
0
POLYLINE
8
CUT
66
1
70
0
0
VERTEX
8
CUT
10
29.6846
20
37.846
0
VERTEX
8
CUT
10
29.6846
20
36.346
0
VERTEX
8
CUT
10
33.1487
20
33.846
0
VERTEX
8
CUT
10
36.6128
20
36.346
0
VERTEX
8
CUT
10
36.6128
20
37.846
0
SEQEND
0
POLYLINE
8
CUT
66
1
70
0
0
VERTEX
8
CUT
10
41.4769
20
35.046
0
VERTEX
8
CUT
10
44.1096
20
36.946
0
VERTEX
8
CUT
10
44.1096
20
40.746
0
VERTEX
8
CUT
10
41.4769
20
42.646
0
VERTEX
8
CUT
10
38.8442
20
40.746
0
VERTEX
8
CUT
10
38.8442
20
36.946
0
VERTEX
8
CUT
10
41.4769
20
35.046
0
SEQEND
0
POLYLINE
8
CUT
66
1
70
0
0
VERTEX
8
CUT
10
44.941
20
39.846
0
VERTEX
8
CUT
10
44.941
20
41.346
0
VERTEX
8
CUT
10
41.4769
20
43.846
0
VERTEX
8
CUT
10
38.0128
20
41.346
0
VERTEX
8
CUT
10
38.0128
20
39.846
0
SEQEND
0
POLYLINE
8
CUT
66
1
70
0
0
VERTEX
8
CUT
10
38.0128
20
37.846
0
VERTEX
8
CUT
10
38.0128
20
36.346
0
VERTEX
8
CUT
10
41.4769
20
33.846
0
VERTEX
8
CUT
10
44.941
20
36.346
0
VERTEX
8
CUT
10
44.941
20
37.846
0
SEQEND
0
POLYLINE
8
CUT
66
1
70
0
0
VERTEX
8
CUT
10
49.8051
20
35.046
0
VERTEX
8
CUT
10
52.4378
20
36.946
0
VERTEX
8
CUT
10
52.4378
20
40.746
0
VERTEX
8
CUT
10
49.8051
20
42.646
0
VERTEX
8
CUT
10
47.1724
20
40.746
0
VERTEX
8
CUT
10
47.1724
20
36.946
0
VERTEX
8
CUT
10
49.8051
20
35.046
0
SEQEND
0
POLYLINE
8
CUT
66
1
70
0
0
VERTEX
8
CUT
10
53.2692
20
39.846
0
VERTEX
8
CUT
10
53.2692
20
41.346
0
VERTEX
8
CUT
10
49.8051
20
43.846
0
VERTEX
8
CUT
10
46.341
20
41.346
0
VERTEX
8
CUT
10
46.341
20
39.846
0
SEQEND
0
POLYLINE
8
CUT
66
1
70
0
0
VERTEX
8
CUT
10
46.341
20
37.846
0
VERTEX
8
CUT
10
46.341
20
36.346
0
VERTEX
8
CUT
10
49.8051
20
33.846
0
VERTEX
8
CUT
10
53.2692
20
36.346
0
VERTEX
8
CUT
10
53.2692
20
37.846
0
SEQEND
0
POLYLINE
8
CUT
66
1
70
0
0
VERTEX
8
CUT
10
58.1333
20
35.046
0
VERTEX
8
CUT
10
60.766
20
36.946
0
VERTEX
8
CUT
10
60.766
20
40.746
0
VERTEX
8
CUT
10
58.1333
20
42.646
0
VERTEX
8
CUT
10
55.5006
20
40.746
0
VERTEX
8
CUT
10
55.5006
20
36.946
0
VERTEX
8
CUT
10
58.1333
20
35.046
0
SEQEND
0
POLYLINE
8
CUT
66
1
70
0
0
VERTEX
8
CUT
10
61.5974
20
39.846
0
VERTEX
8
CUT
10
61.5974
20
41.346
0
VERTEX
8
CUT
10
58.1333
20
43.846
0
VERTEX
8
CUT
10
54.6692
20
41.346
0
VERTEX
8
CUT
10
54.6692
20
39.846
0
SEQEND
0
POLYLINE
8
CUT
66
1
70
0
0
VERTEX
8
CUT
10
54.6692
20
37.846
0
VERTEX
8
CUT
10
54.6692
20
36.346
0
VERTEX
8
CUT
10
58.1333
20
33.846
0
VERTEX
8
CUT
10
61.5974
20
36.346
0
VERTEX
8
CUT
10
61.5974
20
37.846
0
SEQEND
0
POLYLINE
8
CUT
66
1
70
0
0
VERTEX
8
CUT
10
66.4615
20
35.046
0
VERTEX
8
CUT
10
69.0942
20
36.946
0
VERTEX
8
CUT
10
69.0942
20
40.746
0
VERTEX
8
CUT
10
66.4615
20
42.646
0
VERTEX
8
CUT
10
63.8288
20
40.746
0
VERTEX
8
CUT
10
63.8288
20
36.946
0
VERTEX
8
CUT
10
66.4615
20
35.046
0
SEQEND
0
POLYLINE
8
CUT
66
1
70
0
0
VERTEX
8
CUT
10
69.9256
20
39.846
0
VERTEX
8
CUT
10
69.9256
20
41.346
0
VERTEX
8
CUT
10
66.4615
20
43.846
0
VERTEX
8
CUT
10
62.9974
20
41.346
0
VERTEX
8
CUT
10
62.9974
20
39.846
0
SEQEND
0
POLYLINE
8
CUT
66
1
70
0
0
VERTEX
8
CUT
10
62.9974
20
37.846
0
VERTEX
8
CUT
10
62.9974
20
36.346
0
VERTEX
8
CUT
10
66.4615
20
33.846
0
VERTEX
8
CUT
10
69.9256
20
36.346
0
VERTEX
8
CUT
10
69.9256
20
37.846
0
SEQEND
0
POLYLINE
8
CUT
66
1
70
0
0
VERTEX
8
CUT
10
74.7897
20
35.046
0
VERTEX
8
CUT
10
77.4224
20
36.946
0
VERTEX
8
CUT
10
77.4224
20
40.746
0
VERTEX
8
CUT
10
74.7897
20
42.646
0
VERTEX
8
CUT
10
72.157
20
40.746
0
VERTEX
8
CUT
10
72.157
20
36.946
0
VERTEX
8
CUT
10
74.7897
20
35.046
0
SEQEND
0
POLYLINE
8
CUT
66
1
70
0
0
VERTEX
8
CUT
10
78.2538
20
39.846
0
VERTEX
8
CUT
10
78.2538
20
41.346
0
VERTEX
8
CUT
10
74.7897
20
43.846
0
VERTEX
8
CUT
10
71.3256
20
41.346
0
VERTEX
8
CUT
10
71.3256
20
39.846
0
SEQEND
0
POLYLINE
8
CUT
66
1
70
0
0
VERTEX
8
CUT
10
71.3256
20
37.846
0
VERTEX
8
CUT
10
71.3256
20
36.346
0
VERTEX
8
CUT
10
74.7897
20
33.846
0
VERTEX
8
CUT
10
78.2538
20
36.346
0
VERTEX
8
CUT
10
78.2538
20
37.846
0
SEQEND
0
POLYLINE
8
CUT
66
1
70
0
0
VERTEX
8
CUT
10
83.1179
20
35.046
0
VERTEX
8
CUT
10
85.7506
20
36.946
0
VERTEX
8
CUT
10
85.7506
20
40.746
0
VERTEX
8
CUT
10
83.1179
20
42.646
0
VERTEX
8
CUT
10
80.4852
20
40.746
0
VERTEX
8
CUT
10
80.4852
20
36.946
0
VERTEX
8
CUT
10
83.1179
20
35.046
0
SEQEND
0
POLYLINE
8
CUT
66
1
70
0
0
VERTEX
8
CUT
10
86.582
20
39.846
0
VERTEX
8
CUT
10
86.582
20
41.346
0
VERTEX
8
CUT
10
83.1179
20
43.846
0
VERTEX
8
CUT
10
79.6538
20
41.346
0
VERTEX
8
CUT
10
79.6538
20
39.846
0
SEQEND
0
POLYLINE
8
CUT
66
1
70
0
0
VERTEX
8
CUT
10
79.6538
20
37.846
0
VERTEX
8
CUT
10
79.6538
20
36.346
0
VERTEX
8
CUT
10
83.1179
20
33.846
0
VERTEX
8
CUT
10
86.582
20
36.346
0
VERTEX
8
CUT
10
86.582
20
37.846
0
SEQEND
0
POLYLINE
8
CUT
66
1
70
0
0
VERTEX
8
CUT
10
91.4461
20
35.046
0
VERTEX
8
CUT
10
94.0789
20
36.946
0
VERTEX
8
CUT
10
94.0789
20
40.746
0
VERTEX
8
CUT
10
91.4461
20
42.646
0
VERTEX
8
CUT
10
88.8134
20
40.746
0
VERTEX
8
CUT
10
88.8134
20
36.946
0
VERTEX
8
CUT
10
91.4461
20
35.046
0
SEQEND
0
POLYLINE
8
CUT
66
1
70
0
0
VERTEX
8
CUT
10
94.9102
20
39.846
0
VERTEX
8
CUT
10
94.9102
20
41.346
0
VERTEX
8
CUT
10
91.4461
20
43.846
0
VERTEX
8
CUT
10
87.982
20
41.346
0
VERTEX
8
CUT
10
87.982
20
39.846
0
SEQEND
0
POLYLINE
8
CUT
66
1
70
0
0
VERTEX
8
CUT
10
87.982
20
37.846
0
VERTEX
8
CUT
10
87.982
20
36.346
0
VERTEX
8
CUT
10
91.4461
20
33.846
0
VERTEX
8
CUT
10
94.9102
20
36.346
0
VERTEX
8
CUT
10
94.9102
20
37.846
0
SEQEND
0
POLYLINE
8
CUT
66
1
70
0
0
VERTEX
8
CUT
10
99.7743
20
35.046
0
VERTEX
8
CUT
10
102.4071
20
36.946
0
VERTEX
8
CUT
10
102.4071
20
40.746
0
VERTEX
8
CUT
10
99.7743
20
42.646
0
VERTEX
8
CUT
10
97.1416
20
40.746
0
VERTEX
8
CUT
10
97.1416
20
36.946
0
VERTEX
8
CUT
10
99.7743
20
35.046
0
SEQEND
0
POLYLINE
8
CUT
66
1
70
0
0
VERTEX
8
CUT
10
103.2384
20
39.846
0
VERTEX
8
CUT
10
103.2384
20
41.346
0
VERTEX
8
CUT
10
99.7743
20
43.846
0
VERTEX
8
CUT
10
96.3102
20
41.346
0
VERTEX
8
CUT
10
96.3102
20
39.846
0
SEQEND
0
POLYLINE
8
CUT
66
1
70
0
0
VERTEX
8
CUT
10
96.3102
20
37.846
0
VERTEX
8
CUT
10
96.3102
20
36.346
0
VERTEX
8
CUT
10
99.7743
20
33.846
0
VERTEX
8
CUT
10
103.2384
20
36.346
0
VERTEX
8
CUT
10
103.2384
20
37.846
0
SEQEND
0
POLYLINE
8
CUT
66
1
70
0
0
VERTEX
8
CUT
10
108.1025
20
35.046
0
VERTEX
8
CUT
10
110.7353
20
36.946
0
VERTEX
8
CUT
10
110.7353
20
40.746
0
VERTEX
8
CUT
10
108.1025
20
42.646
0
VERTEX
8
CUT
10
105.4698
20
40.746
0
VERTEX
8
CUT
10
105.4698
20
36.946
0
VERTEX
8
CUT
10
108.1025
20
35.046
0
SEQEND
0
POLYLINE
8
CUT
66
1
70
0
0
VERTEX
8
CUT
10
111.5666
20
39.846
0
VERTEX
8
CUT
10
111.5666
20
41.346
0
VERTEX
8
CUT
10
108.1025
20
43.846
0
VERTEX
8
CUT
10
104.6384
20
41.346
0
VERTEX
8
CUT
10
104.6384
20
39.846
0
SEQEND
0
POLYLINE
8
CUT
66
1
70
0
0
VERTEX
8
CUT
10
104.6384
20
37.846
0
VERTEX
8
CUT
10
104.6384
20
36.346
0
VERTEX
8
CUT
10
108.1025
20
33.846
0
VERTEX
8
CUT
10
111.5666
20
36.346
0
VERTEX
8
CUT
10
111.5666
20
37.846
0
SEQEND
0
POLYLINE
8
CUT
66
1
70
0
0
VERTEX
8
CUT
10
116.4307
20
35.046
0
VERTEX
8
CUT
10
119.0635
20
36.946
0
VERTEX
8
CUT
10
119.0635
20
40.746
0
VERTEX
8
CUT
10
116.4307
20
42.646
0
VERTEX
8
CUT
10
113.798
20
40.746
0
VERTEX
8
CUT
10
113.798
20
36.946
0
VERTEX
8
CUT
10
116.4307
20
35.046
0
SEQEND
0
POLYLINE
8
CUT
66
1
70
0
0
VERTEX
8
CUT
10
119.8948
20
39.846
0
VERTEX
8
CUT
10
119.8948
20
41.346
0
VERTEX
8
CUT
10
116.4307
20
43.846
0
VERTEX
8
CUT
10
112.9666
20
41.346
0
VERTEX
8
CUT
10
112.9666
20
39.846
0
SEQEND
0
POLYLINE
8
CUT
66
1
70
0
0
VERTEX
8
CUT
10
112.9666
20
37.846
0
VERTEX
8
CUT
10
112.9666
20
36.346
0
VERTEX
8
CUT
10
116.4307
20
33.846
0
VERTEX
8
CUT
10
119.8948
20
36.346
0
VERTEX
8
CUT
10
119.8948
20
37.846
0
SEQEND
0
POLYLINE
8
CUT
66
1
70
0
0
VERTEX
8
CUT
10
4
20
26.328
0
VERTEX
8
CUT
10
6.6327
20
28.228
0
VERTEX
8
CUT
10
6.6327
20
32.028
0
VERTEX
8
CUT
10
4
20
33.928
0
VERTEX
8
CUT
10
1.3673
20
32.028
0
VERTEX
8
CUT
10
1.3673
20
28.228
0
VERTEX
8
CUT
10
4
20
26.328
0
SEQEND
0
POLYLINE
8
CUT
66
1
70
0
0
VERTEX
8
CUT
10
7.4641
20
31.128
0
VERTEX
8
CUT
10
7.4641
20
32.628
0
VERTEX
8
CUT
10
4
20
35.128
0
VERTEX
8
CUT
10
0.5359
20
32.628
0
VERTEX
8
CUT
10
0.5359
20
31.128
0
SEQEND
0
POLYLINE
8
CUT
66
1
70
0
0
VERTEX
8
CUT
10
0.5359
20
29.128
0
VERTEX
8
CUT
10
0.5359
20
27.628
0
VERTEX
8
CUT
10
4
20
25.128
0
VERTEX
8
CUT
10
7.4641
20
27.628
0
VERTEX
8
CUT
10
7.4641
20
29.128
0
SEQEND
0
POLYLINE
8
CUT
66
1
70
0
0
VERTEX
8
CUT
10
12.3282
20
26.328
0
VERTEX
8
CUT
10
14.9609
20
28.228
0
VERTEX
8
CUT
10
14.9609
20
32.028
0
VERTEX
8
CUT
10
12.3282
20
33.928
0
VERTEX
8
CUT
10
9.6955
20
32.028
0
VERTEX
8
CUT
10
9.6955
20
28.228
0
VERTEX
8
CUT
10
12.3282
20
26.328
0
SEQEND
0
POLYLINE
8
CUT
66
1
70
0
0
VERTEX
8
CUT
10
15.7923
20
31.128
0
VERTEX
8
CUT
10
15.7923
20
32.628
0
VERTEX
8
CUT
10
12.3282
20
35.128
0
VERTEX
8
CUT
10
8.8641
20
32.628
0
VERTEX
8
CUT
10
8.8641
20
31.128
0
SEQEND
0
POLYLINE
8
CUT
66
1
70
0
0
VERTEX
8
CUT
10
8.8641
20
29.128
0
VERTEX
8
CUT
10
8.8641
20
27.628
0
VERTEX
8
CUT
10
12.3282
20
25.128
0
VERTEX
8
CUT
10
15.7923
20
27.628
0
VERTEX
8
CUT
10
15.7923
20
29.128
0
SEQEND
0
POLYLINE
8
CUT
66
1
70
0
0
VERTEX
8
CUT
10
20.6564
20
26.328
0
VERTEX
8
CUT
10
23.2891
20
28.228
0
VERTEX
8
CUT
10
23.2891
20
32.028
0
VERTEX
8
CUT
10
20.6564
20
33.928
0
VERTEX
8
CUT
10
18.0237
20
32.028
0
VERTEX
8
CUT
10
18.0237
20
28.228
0
VERTEX
8
CUT
10
20.6564
20
26.328
0
SEQEND
0
POLYLINE
8
CUT
66
1
70
0
0
VERTEX
8
CUT
10
24.1205
20
31.128
0
VERTEX
8
CUT
10
24.1205
20
32.628
0
VERTEX
8
CUT
10
20.6564
20
35.128
0
VERTEX
8
CUT
10
17.1923
20
32.628
0
VERTEX
8
CUT
10
17.1923
20
31.128
0
SEQEND
0
POLYLINE
8
CUT
66
1
70
0
0
VERTEX
8
CUT
10
17.1923
20
29.128
0
VERTEX
8
CUT
10
17.1923
20
27.628
0
VERTEX
8
CUT
10
20.6564
20
25.128
0
VERTEX
8
CUT
10
24.1205
20
27.628
0
VERTEX
8
CUT
10
24.1205
20
29.128
0
SEQEND
0
POLYLINE
8
CUT
66
1
70
0
0
VERTEX
8
CUT
10
28.9846
20
26.328
0
VERTEX
8
CUT
10
31.6173
20
28.228
0
VERTEX
8
CUT
10
31.6173
20
32.028
0
VERTEX
8
CUT
10
28.9846
20
33.928
0
VERTEX
8
CUT
10
26.3519
20
32.028
0
VERTEX
8
CUT
10
26.3519
20
28.228
0
VERTEX
8
CUT
10
28.9846
20
26.328
0
SEQEND
0
POLYLINE
8
CUT
66
1
70
0
0
VERTEX
8
CUT
10
32.4487
20
31.128
0
VERTEX
8
CUT
10
32.4487
20
32.628
0
VERTEX
8
CUT
10
28.9846
20
35.128
0
VERTEX
8
CUT
10
25.5205
20
32.628
0
VERTEX
8
CUT
10
25.5205
20
31.128
0
SEQEND
0
POLYLINE
8
CUT
66
1
70
0
0
VERTEX
8
CUT
10
25.5205
20
29.128
0
VERTEX
8
CUT
10
25.5205
20
27.628
0
VERTEX
8
CUT
10
28.9846
20
25.128
0
VERTEX
8
CUT
10
32.4487
20
27.628
0
VERTEX
8
CUT
10
32.4487
20
29.128
0
SEQEND
0
POLYLINE
8
CUT
66
1
70
0
0
VERTEX
8
CUT
10
37.3128
20
26.328
0
VERTEX
8
CUT
10
39.9455
20
28.228
0
VERTEX
8
CUT
10
39.9455
20
32.028
0
VERTEX
8
CUT
10
37.3128
20
33.928
0
VERTEX
8
CUT
10
34.6801
20
32.028
0
VERTEX
8
CUT
10
34.6801
20
28.228
0
VERTEX
8
CUT
10
37.3128
20
26.328
0
SEQEND
0
POLYLINE
8
CUT
66
1
70
0
0
VERTEX
8
CUT
10
40.7769
20
31.128
0
VERTEX
8
CUT
10
40.7769
20
32.628
0
VERTEX
8
CUT
10
37.3128
20
35.128
0
VERTEX
8
CUT
10
33.8487
20
32.628
0
VERTEX
8
CUT
10
33.8487
20
31.128
0
SEQEND
0
POLYLINE
8
CUT
66
1
70
0
0
VERTEX
8
CUT
10
33.8487
20
29.128
0
VERTEX
8
CUT
10
33.8487
20
27.628
0
VERTEX
8
CUT
10
37.3128
20
25.128
0
VERTEX
8
CUT
10
40.7769
20
27.628
0
VERTEX
8
CUT
10
40.7769
20
29.128
0
SEQEND
0
POLYLINE
8
CUT
66
1
70
0
0
VERTEX
8
CUT
10
45.641
20
26.328
0
VERTEX
8
CUT
10
48.2737
20
28.228
0
VERTEX
8
CUT
10
48.2737
20
32.028
0
VERTEX
8
CUT
10
45.641
20
33.928
0
VERTEX
8
CUT
10
43.0083
20
32.028
0
VERTEX
8
CUT
10
43.0083
20
28.228
0
VERTEX
8
CUT
10
45.641
20
26.328
0
SEQEND
0
POLYLINE
8
CUT
66
1
70
0
0
VERTEX
8
CUT
10
49.1051
20
31.128
0
VERTEX
8
CUT
10
49.1051
20
32.628
0
VERTEX
8
CUT
10
45.641
20
35.128
0
VERTEX
8
CUT
10
42.1769
20
32.628
0
VERTEX
8
CUT
10
42.1769
20
31.128
0
SEQEND
0
POLYLINE
8
CUT
66
1
70
0
0
VERTEX
8
CUT
10
42.1769
20
29.128
0
VERTEX
8
CUT
10
42.1769
20
27.628
0
VERTEX
8
CUT
10
45.641
20
25.128
0
VERTEX
8
CUT
10
49.1051
20
27.628
0
VERTEX
8
CUT
10
49.1051
20
29.128
0
SEQEND
0
POLYLINE
8
CUT
66
1
70
0
0
VERTEX
8
CUT
10
53.9692
20
26.328
0
VERTEX
8
CUT
10
56.6019
20
28.228
0
VERTEX
8
CUT
10
56.6019
20
32.028
0
VERTEX
8
CUT
10
53.9692
20
33.928
0
VERTEX
8
CUT
10
51.3365
20
32.028
0
VERTEX
8
CUT
10
51.3365
20
28.228
0
VERTEX
8
CUT
10
53.9692
20
26.328
0
SEQEND
0
POLYLINE
8
CUT
66
1
70
0
0
VERTEX
8
CUT
10
57.4333
20
31.128
0
VERTEX
8
CUT
10
57.4333
20
32.628
0
VERTEX
8
CUT
10
53.9692
20
35.128
0
VERTEX
8
CUT
10
50.5051
20
32.628
0
VERTEX
8
CUT
10
50.5051
20
31.128
0
SEQEND
0
POLYLINE
8
CUT
66
1
70
0
0
VERTEX
8
CUT
10
50.5051
20
29.128
0
VERTEX
8
CUT
10
50.5051
20
27.628
0
VERTEX
8
CUT
10
53.9692
20
25.128
0
VERTEX
8
CUT
10
57.4333
20
27.628
0
VERTEX
8
CUT
10
57.4333
20
29.128
0
SEQEND
0
POLYLINE
8
CUT
66
1
70
0
0
VERTEX
8
CUT
10
62.2974
20
26.328
0
VERTEX
8
CUT
10
64.9301
20
28.228
0
VERTEX
8
CUT
10
64.9301
20
32.028
0
VERTEX
8
CUT
10
62.2974
20
33.928
0
VERTEX
8
CUT
10
59.6647
20
32.028
0
VERTEX
8
CUT
10
59.6647
20
28.228
0
VERTEX
8
CUT
10
62.2974
20
26.328
0
SEQEND
0
POLYLINE
8
CUT
66
1
70
0
0
VERTEX
8
CUT
10
65.7615
20
31.128
0
VERTEX
8
CUT
10
65.7615
20
32.628
0
VERTEX
8
CUT
10
62.2974
20
35.128
0
VERTEX
8
CUT
10
58.8333
20
32.628
0
VERTEX
8
CUT
10
58.8333
20
31.128
0
SEQEND
0
POLYLINE
8
CUT
66
1
70
0
0
VERTEX
8
CUT
10
58.8333
20
29.128
0
VERTEX
8
CUT
10
58.8333
20
27.628
0
VERTEX
8
CUT
10
62.2974
20
25.128
0
VERTEX
8
CUT
10
65.7615
20
27.628
0
VERTEX
8
CUT
10
65.7615
20
29.128
0
SEQEND
0
POLYLINE
8
CUT
66
1
70
0
0
VERTEX
8
CUT
10
70.6256
20
26.328
0
VERTEX
8
CUT
10
73.2583
20
28.228
0
VERTEX
8
CUT
10
73.2583
20
32.028
0
VERTEX
8
CUT
10
70.6256
20
33.928
0
VERTEX
8
CUT
10
67.9929
20
32.028
0
VERTEX
8
CUT
10
67.9929
20
28.228
0
VERTEX
8
CUT
10
70.6256
20
26.328
0
SEQEND
0
POLYLINE
8
CUT
66
1
70
0
0
VERTEX
8
CUT
10
74.0897
20
31.128
0
VERTEX
8
CUT
10
74.0897
20
32.628
0
VERTEX
8
CUT
10
70.6256
20
35.128
0
VERTEX
8
CUT
10
67.1615
20
32.628
0
VERTEX
8
CUT
10
67.1615
20
31.128
0
SEQEND
0
POLYLINE
8
CUT
66
1
70
0
0
VERTEX
8
CUT
10
67.1615
20
29.128
0
VERTEX
8
CUT
10
67.1615
20
27.628
0
VERTEX
8
CUT
10
70.6256
20
25.128
0
VERTEX
8
CUT
10
74.0897
20
27.628
0
VERTEX
8
CUT
10
74.0897
20
29.128
0
SEQEND
0
POLYLINE
8
CUT
66
1
70
0
0
VERTEX
8
CUT
10
78.9538
20
26.328
0
VERTEX
8
CUT
10
81.5865
20
28.228
0
VERTEX
8
CUT
10
81.5865
20
32.028
0
VERTEX
8
CUT
10
78.9538
20
33.928
0
VERTEX
8
CUT
10
76.3211
20
32.028
0
VERTEX
8
CUT
10
76.3211
20
28.228
0
VERTEX
8
CUT
10
78.9538
20
26.328
0
SEQEND
0
POLYLINE
8
CUT
66
1
70
0
0
VERTEX
8
CUT
10
82.4179
20
31.128
0
VERTEX
8
CUT
10
82.4179
20
32.628
0
VERTEX
8
CUT
10
78.9538
20
35.128
0
VERTEX
8
CUT
10
75.4897
20
32.628
0
VERTEX
8
CUT
10
75.4897
20
31.128
0
SEQEND
0
POLYLINE
8
CUT
66
1
70
0
0
VERTEX
8
CUT
10
75.4897
20
29.128
0
VERTEX
8
CUT
10
75.4897
20
27.628
0
VERTEX
8
CUT
10
78.9538
20
25.128
0
VERTEX
8
CUT
10
82.4179
20
27.628
0
VERTEX
8
CUT
10
82.4179
20
29.128
0
SEQEND
0
POLYLINE
8
CUT
66
1
70
0
0
VERTEX
8
CUT
10
87.282
20
26.328
0
VERTEX
8
CUT
10
89.9147
20
28.228
0
VERTEX
8
CUT
10
89.9147
20
32.028
0
VERTEX
8
CUT
10
87.282
20
33.928
0
VERTEX
8
CUT
10
84.6493
20
32.028
0
VERTEX
8
CUT
10
84.6493
20
28.228
0
VERTEX
8
CUT
10
87.282
20
26.328
0
SEQEND
0
POLYLINE
8
CUT
66
1
70
0
0
VERTEX
8
CUT
10
90.7461
20
31.128
0
VERTEX
8
CUT
10
90.7461
20
32.628
0
VERTEX
8
CUT
10
87.282
20
35.128
0
VERTEX
8
CUT
10
83.8179
20
32.628
0
VERTEX
8
CUT
10
83.8179
20
31.128
0
SEQEND
0
POLYLINE
8
CUT
66
1
70
0
0
VERTEX
8
CUT
10
83.8179
20
29.128
0
VERTEX
8
CUT
10
83.8179
20
27.628
0
VERTEX
8
CUT
10
87.282
20
25.128
0
VERTEX
8
CUT
10
90.7461
20
27.628
0
VERTEX
8
CUT
10
90.7461
20
29.128
0
SEQEND
0
POLYLINE
8
CUT
66
1
70
0
0
VERTEX
8
CUT
10
95.6102
20
26.328
0
VERTEX
8
CUT
10
98.243
20
28.228
0
VERTEX
8
CUT
10
98.243
20
32.028
0
VERTEX
8
CUT
10
95.6102
20
33.928
0
VERTEX
8
CUT
10
92.9775
20
32.028
0
VERTEX
8
CUT
10
92.9775
20
28.228
0
VERTEX
8
CUT
10
95.6102
20
26.328
0
SEQEND
0
POLYLINE
8
CUT
66
1
70
0
0
VERTEX
8
CUT
10
99.0743
20
31.128
0
VERTEX
8
CUT
10
99.0743
20
32.628
0
VERTEX
8
CUT
10
95.6102
20
35.128
0
VERTEX
8
CUT
10
92.1461
20
32.628
0
VERTEX
8
CUT
10
92.1461
20
31.128
0
SEQEND
0
POLYLINE
8
CUT
66
1
70
0
0
VERTEX
8
CUT
10
92.1461
20
29.128
0
VERTEX
8
CUT
10
92.1461
20
27.628
0
VERTEX
8
CUT
10
95.6102
20
25.128
0
VERTEX
8
CUT
10
99.0743
20
27.628
0
VERTEX
8
CUT
10
99.0743
20
29.128
0
SEQEND
0
POLYLINE
8
CUT
66
1
70
0
0
VERTEX
8
CUT
10
103.9384
20
26.328
0
VERTEX
8
CUT
10
106.5712
20
28.228
0
VERTEX
8
CUT
10
106.5712
20
32.028
0
VERTEX
8
CUT
10
103.9384
20
33.928
0
VERTEX
8
CUT
10
101.3057
20
32.028
0
VERTEX
8
CUT
10
101.3057
20
28.228
0
VERTEX
8
CUT
10
103.9384
20
26.328
0
SEQEND
0
POLYLINE
8
CUT
66
1
70
0
0
VERTEX
8
CUT
10
107.4025
20
31.128
0
VERTEX
8
CUT
10
107.4025
20
32.628
0
VERTEX
8
CUT
10
103.9384
20
35.128
0
VERTEX
8
CUT
10
100.4743
20
32.628
0
VERTEX
8
CUT
10
100.4743
20
31.128
0
SEQEND
0
POLYLINE
8
CUT
66
1
70
0
0
VERTEX
8
CUT
10
100.4743
20
29.128
0
VERTEX
8
CUT
10
100.4743
20
27.628
0
VERTEX
8
CUT
10
103.9384
20
25.128
0
VERTEX
8
CUT
10
107.4025
20
27.628
0
VERTEX
8
CUT
10
107.4025
20
29.128
0
SEQEND
0
POLYLINE
8
CUT
66
1
70
0
0
VERTEX
8
CUT
10
112.2666
20
26.328
0
VERTEX
8
CUT
10
114.8994
20
28.228
0
VERTEX
8
CUT
10
114.8994
20
32.028
0
VERTEX
8
CUT
10
112.2666
20
33.928
0
VERTEX
8
CUT
10
109.6339
20
32.028
0
VERTEX
8
CUT
10
109.6339
20
28.228
0
VERTEX
8
CUT
10
112.2666
20
26.328
0
SEQEND
0
POLYLINE
8
CUT
66
1
70
0
0
VERTEX
8
CUT
10
115.7307
20
31.128
0
VERTEX
8
CUT
10
115.7307
20
32.628
0
VERTEX
8
CUT
10
112.2666
20
35.128
0
VERTEX
8
CUT
10
108.8025
20
32.628
0
VERTEX
8
CUT
10
108.8025
20
31.128
0
SEQEND
0
POLYLINE
8
CUT
66
1
70
0
0
VERTEX
8
CUT
10
108.8025
20
29.128
0
VERTEX
8
CUT
10
108.8025
20
27.628
0
VERTEX
8
CUT
10
112.2666
20
25.128
0
VERTEX
8
CUT
10
115.7307
20
27.628
0
VERTEX
8
CUT
10
115.7307
20
29.128
0
SEQEND
0
POLYLINE
8
CUT
66
1
70
0
0
VERTEX
8
CUT
10
120
20
33.4987
0
VERTEX
8
CUT
10
117.9621
20
32.028
0
VERTEX
8
CUT
10
117.9621
20
28.228
0
VERTEX
8
CUT
10
120
20
26.7573
0
SEQEND
0
POLYLINE
8
CUT
66
1
70
0
0
VERTEX
8
CUT
10
120
20
34.6987
0
VERTEX
8
CUT
10
117.1307
20
32.628
0
VERTEX
8
CUT
10
117.1307
20
31.128
0
SEQEND
0
POLYLINE
8
CUT
66
1
70
0
0
VERTEX
8
CUT
10
117.1307
20
29.128
0
VERTEX
8
CUT
10
117.1307
20
27.628
0
VERTEX
8
CUT
10
120
20
25.5573
0
SEQEND
0
POLYLINE
8
CUT
66
1
70
0
0
VERTEX
8
CUT
10
0
20
17.7284
0
VERTEX
8
CUT
10
2.4686
20
19.51
0
VERTEX
8
CUT
10
2.4686
20
23.31
0
VERTEX
8
CUT
10
0
20
25.0916
0
SEQEND
0
POLYLINE
8
CUT
66
1
70
0
0
VERTEX
8
CUT
10
3.3
20
22.41
0
VERTEX
8
CUT
10
3.3
20
23.91
0
VERTEX
8
CUT
10
0
20
26.2916
0
SEQEND
0
POLYLINE
8
CUT
66
1
70
0
0
VERTEX
8
CUT
10
0
20
16.5284
0
VERTEX
8
CUT
10
3.3
20
18.91
0
VERTEX
8
CUT
10
3.3
20
20.41
0
SEQEND
0
POLYLINE
8
CUT
66
1
70
0
0
VERTEX
8
CUT
10
8.1641
20
17.61
0
VERTEX
8
CUT
10
10.7968
20
19.51
0
VERTEX
8
CUT
10
10.7968
20
23.31
0
VERTEX
8
CUT
10
8.1641
20
25.21
0
VERTEX
8
CUT
10
5.5314
20
23.31
0
VERTEX
8
CUT
10
5.5314
20
19.51
0
VERTEX
8
CUT
10
8.1641
20
17.61
0
SEQEND
0
POLYLINE
8
CUT
66
1
70
0
0
VERTEX
8
CUT
10
11.6282
20
22.41
0
VERTEX
8
CUT
10
11.6282
20
23.91
0
VERTEX
8
CUT
10
8.1641
20
26.41
0
VERTEX
8
CUT
10
4.7
20
23.91
0
VERTEX
8
CUT
10
4.7
20
22.41
0
SEQEND
0
POLYLINE
8
CUT
66
1
70
0
0
VERTEX
8
CUT
10
4.7
20
20.41
0
VERTEX
8
CUT
10
4.7
20
18.91
0
VERTEX
8
CUT
10
8.1641
20
16.41
0
VERTEX
8
CUT
10
11.6282
20
18.91
0
VERTEX
8
CUT
10
11.6282
20
20.41
0
SEQEND
0
POLYLINE
8
CUT
66
1
70
0
0
VERTEX
8
CUT
10
16.4923
20
17.61
0
VERTEX
8
CUT
10
19.125
20
19.51
0
VERTEX
8
CUT
10
19.125
20
23.31
0
VERTEX
8
CUT
10
16.4923
20
25.21
0
VERTEX
8
CUT
10
13.8596
20
23.31
0
VERTEX
8
CUT
10
13.8596
20
19.51
0
VERTEX
8
CUT
10
16.4923
20
17.61
0
SEQEND
0
POLYLINE
8
CUT
66
1
70
0
0
VERTEX
8
CUT
10
19.9564
20
22.41
0
VERTEX
8
CUT
10
19.9564
20
23.91
0
VERTEX
8
CUT
10
16.4923
20
26.41
0
VERTEX
8
CUT
10
13.0282
20
23.91
0
VERTEX
8
CUT
10
13.0282
20
22.41
0
SEQEND
0
POLYLINE
8
CUT
66
1
70
0
0
VERTEX
8
CUT
10
13.0282
20
20.41
0
VERTEX
8
CUT
10
13.0282
20
18.91
0
VERTEX
8
CUT
10
16.4923
20
16.41
0
VERTEX
8
CUT
10
19.9564
20
18.91
0
VERTEX
8
CUT
10
19.9564
20
20.41
0
SEQEND
0
POLYLINE
8
CUT
66
1
70
0
0
VERTEX
8
CUT
10
24.8205
20
17.61
0
VERTEX
8
CUT
10
27.4532
20
19.51
0
VERTEX
8
CUT
10
27.4532
20
23.31
0
VERTEX
8
CUT
10
24.8205
20
25.21
0
VERTEX
8
CUT
10
22.1878
20
23.31
0
VERTEX
8
CUT
10
22.1878
20
19.51
0
VERTEX
8
CUT
10
24.8205
20
17.61
0
SEQEND
0
POLYLINE
8
CUT
66
1
70
0
0
VERTEX
8
CUT
10
28.2846
20
22.41
0
VERTEX
8
CUT
10
28.2846
20
23.91
0
VERTEX
8
CUT
10
24.8205
20
26.41
0
VERTEX
8
CUT
10
21.3564
20
23.91
0
VERTEX
8
CUT
10
21.3564
20
22.41
0
SEQEND
0
POLYLINE
8
CUT
66
1
70
0
0
VERTEX
8
CUT
10
21.3564
20
20.41
0
VERTEX
8
CUT
10
21.3564
20
18.91
0
VERTEX
8
CUT
10
24.8205
20
16.41
0
VERTEX
8
CUT
10
28.2846
20
18.91
0
VERTEX
8
CUT
10
28.2846
20
20.41
0
SEQEND
0
POLYLINE
8
CUT
66
1
70
0
0
VERTEX
8
CUT
10
33.1487
20
17.61
0
VERTEX
8
CUT
10
35.7814
20
19.51
0
VERTEX
8
CUT
10
35.7814
20
23.31
0
VERTEX
8
CUT
10
33.1487
20
25.21
0
VERTEX
8
CUT
10
30.516
20
23.31
0
VERTEX
8
CUT
10
30.516
20
19.51
0
VERTEX
8
CUT
10
33.1487
20
17.61
0
SEQEND
0
POLYLINE
8
CUT
66
1
70
0
0
VERTEX
8
CUT
10
36.6128
20
22.41
0
VERTEX
8
CUT
10
36.6128
20
23.91
0
VERTEX
8
CUT
10
33.1487
20
26.41
0
VERTEX
8
CUT
10
29.6846
20
23.91
0
VERTEX
8
CUT
10
29.6846
20
22.41
0
SEQEND
0
POLYLINE
8
CUT
66
1
70
0
0
VERTEX
8
CUT
10
29.6846
20
20.41
0
VERTEX
8
CUT
10
29.6846
20
18.91
0
VERTEX
8
CUT
10
33.1487
20
16.41
0
VERTEX
8
CUT
10
36.6128
20
18.91
0
VERTEX
8
CUT
10
36.6128
20
20.41
0
SEQEND
0
POLYLINE
8
CUT
66
1
70
0
0
VERTEX
8
CUT
10
41.4769
20
17.61
0
VERTEX
8
CUT
10
44.1096
20
19.51
0
VERTEX
8
CUT
10
44.1096
20
23.31
0
VERTEX
8
CUT
10
41.4769
20
25.21
0
VERTEX
8
CUT
10
38.8442
20
23.31
0
VERTEX
8
CUT
10
38.8442
20
19.51
0
VERTEX
8
CUT
10
41.4769
20
17.61
0
SEQEND
0
POLYLINE
8
CUT
66
1
70
0
0
VERTEX
8
CUT
10
44.941
20
22.41
0
VERTEX
8
CUT
10
44.941
20
23.91
0
VERTEX
8
CUT
10
41.4769
20
26.41
0
VERTEX
8
CUT
10
38.0128
20
23.91
0
VERTEX
8
CUT
10
38.0128
20
22.41
0
SEQEND
0
POLYLINE
8
CUT
66
1
70
0
0
VERTEX
8
CUT
10
38.0128
20
20.41
0
VERTEX
8
CUT
10
38.0128
20
18.91
0
VERTEX
8
CUT
10
41.4769
20
16.41
0
VERTEX
8
CUT
10
44.941
20
18.91
0
VERTEX
8
CUT
10
44.941
20
20.41
0
SEQEND
0
POLYLINE
8
CUT
66
1
70
0
0
VERTEX
8
CUT
10
49.8051
20
17.61
0
VERTEX
8
CUT
10
52.4378
20
19.51
0
VERTEX
8
CUT
10
52.4378
20
23.31
0
VERTEX
8
CUT
10
49.8051
20
25.21
0
VERTEX
8
CUT
10
47.1724
20
23.31
0
VERTEX
8
CUT
10
47.1724
20
19.51
0
VERTEX
8
CUT
10
49.8051
20
17.61
0
SEQEND
0
POLYLINE
8
CUT
66
1
70
0
0
VERTEX
8
CUT
10
53.2692
20
22.41
0
VERTEX
8
CUT
10
53.2692
20
23.91
0
VERTEX
8
CUT
10
49.8051
20
26.41
0
VERTEX
8
CUT
10
46.341
20
23.91
0
VERTEX
8
CUT
10
46.341
20
22.41
0
SEQEND
0
POLYLINE
8
CUT
66
1
70
0
0
VERTEX
8
CUT
10
46.341
20
20.41
0
VERTEX
8
CUT
10
46.341
20
18.91
0
VERTEX
8
CUT
10
49.8051
20
16.41
0
VERTEX
8
CUT
10
53.2692
20
18.91
0
VERTEX
8
CUT
10
53.2692
20
20.41
0
SEQEND
0
POLYLINE
8
CUT
66
1
70
0
0
VERTEX
8
CUT
10
58.1333
20
17.61
0
VERTEX
8
CUT
10
60.766
20
19.51
0
VERTEX
8
CUT
10
60.766
20
23.31
0
VERTEX
8
CUT
10
58.1333
20
25.21
0
VERTEX
8
CUT
10
55.5006
20
23.31
0
VERTEX
8
CUT
10
55.5006
20
19.51
0
VERTEX
8
CUT
10
58.1333
20
17.61
0
SEQEND
0
POLYLINE
8
CUT
66
1
70
0
0
VERTEX
8
CUT
10
61.5974
20
22.41
0
VERTEX
8
CUT
10
61.5974
20
23.91
0
VERTEX
8
CUT
10
58.1333
20
26.41
0
VERTEX
8
CUT
10
54.6692
20
23.91
0
VERTEX
8
CUT
10
54.6692
20
22.41
0
SEQEND
0
POLYLINE
8
CUT
66
1
70
0
0
VERTEX
8
CUT
10
54.6692
20
20.41
0
VERTEX
8
CUT
10
54.6692
20
18.91
0
VERTEX
8
CUT
10
58.1333
20
16.41
0
VERTEX
8
CUT
10
61.5974
20
18.91
0
VERTEX
8
CUT
10
61.5974
20
20.41
0
SEQEND
0
POLYLINE
8
CUT
66
1
70
0
0
VERTEX
8
CUT
10
66.4615
20
17.61
0
VERTEX
8
CUT
10
69.0942
20
19.51
0
VERTEX
8
CUT
10
69.0942
20
23.31
0
VERTEX
8
CUT
10
66.4615
20
25.21
0
VERTEX
8
CUT
10
63.8288
20
23.31
0
VERTEX
8
CUT
10
63.8288
20
19.51
0
VERTEX
8
CUT
10
66.4615
20
17.61
0
SEQEND
0
POLYLINE
8
CUT
66
1
70
0
0
VERTEX
8
CUT
10
69.9256
20
22.41
0
VERTEX
8
CUT
10
69.9256
20
23.91
0
VERTEX
8
CUT
10
66.4615
20
26.41
0
VERTEX
8
CUT
10
62.9974
20
23.91
0
VERTEX
8
CUT
10
62.9974
20
22.41
0
SEQEND
0
POLYLINE
8
CUT
66
1
70
0
0
VERTEX
8
CUT
10
62.9974
20
20.41
0
VERTEX
8
CUT
10
62.9974
20
18.91
0
VERTEX
8
CUT
10
66.4615
20
16.41
0
VERTEX
8
CUT
10
69.9256
20
18.91
0
VERTEX
8
CUT
10
69.9256
20
20.41
0
SEQEND
0
POLYLINE
8
CUT
66
1
70
0
0
VERTEX
8
CUT
10
74.7897
20
17.61
0
VERTEX
8
CUT
10
77.4224
20
19.51
0
VERTEX
8
CUT
10
77.4224
20
23.31
0
VERTEX
8
CUT
10
74.7897
20
25.21
0
VERTEX
8
CUT
10
72.157
20
23.31
0
VERTEX
8
CUT
10
72.157
20
19.51
0
VERTEX
8
CUT
10
74.7897
20
17.61
0
SEQEND
0
POLYLINE
8
CUT
66
1
70
0
0
VERTEX
8
CUT
10
78.2538
20
22.41
0
VERTEX
8
CUT
10
78.2538
20
23.91
0
VERTEX
8
CUT
10
74.7897
20
26.41
0
VERTEX
8
CUT
10
71.3256
20
23.91
0
VERTEX
8
CUT
10
71.3256
20
22.41
0
SEQEND
0
POLYLINE
8
CUT
66
1
70
0
0
VERTEX
8
CUT
10
71.3256
20
20.41
0
VERTEX
8
CUT
10
71.3256
20
18.91
0
VERTEX
8
CUT
10
74.7897
20
16.41
0
VERTEX
8
CUT
10
78.2538
20
18.91
0
VERTEX
8
CUT
10
78.2538
20
20.41
0
SEQEND
0
POLYLINE
8
CUT
66
1
70
0
0
VERTEX
8
CUT
10
83.1179
20
17.61
0
VERTEX
8
CUT
10
85.7506
20
19.51
0
VERTEX
8
CUT
10
85.7506
20
23.31
0
VERTEX
8
CUT
10
83.1179
20
25.21
0
VERTEX
8
CUT
10
80.4852
20
23.31
0
VERTEX
8
CUT
10
80.4852
20
19.51
0
VERTEX
8
CUT
10
83.1179
20
17.61
0
SEQEND
0
POLYLINE
8
CUT
66
1
70
0
0
VERTEX
8
CUT
10
86.582
20
22.41
0
VERTEX
8
CUT
10
86.582
20
23.91
0
VERTEX
8
CUT
10
83.1179
20
26.41
0
VERTEX
8
CUT
10
79.6538
20
23.91
0
VERTEX
8
CUT
10
79.6538
20
22.41
0
SEQEND
0
POLYLINE
8
CUT
66
1
70
0
0
VERTEX
8
CUT
10
79.6538
20
20.41
0
VERTEX
8
CUT
10
79.6538
20
18.91
0
VERTEX
8
CUT
10
83.1179
20
16.41
0
VERTEX
8
CUT
10
86.582
20
18.91
0
VERTEX
8
CUT
10
86.582
20
20.41
0
SEQEND
0
POLYLINE
8
CUT
66
1
70
0
0
VERTEX
8
CUT
10
91.4461
20
17.61
0
VERTEX
8
CUT
10
94.0789
20
19.51
0
VERTEX
8
CUT
10
94.0789
20
23.31
0
VERTEX
8
CUT
10
91.4461
20
25.21
0
VERTEX
8
CUT
10
88.8134
20
23.31
0
VERTEX
8
CUT
10
88.8134
20
19.51
0
VERTEX
8
CUT
10
91.4461
20
17.61
0
SEQEND
0
POLYLINE
8
CUT
66
1
70
0
0
VERTEX
8
CUT
10
94.9102
20
22.41
0
VERTEX
8
CUT
10
94.9102
20
23.91
0
VERTEX
8
CUT
10
91.4461
20
26.41
0
VERTEX
8
CUT
10
87.982
20
23.91
0
VERTEX
8
CUT
10
87.982
20
22.41
0
SEQEND
0
POLYLINE
8
CUT
66
1
70
0
0
VERTEX
8
CUT
10
87.982
20
20.41
0
VERTEX
8
CUT
10
87.982
20
18.91
0
VERTEX
8
CUT
10
91.4461
20
16.41
0
VERTEX
8
CUT
10
94.9102
20
18.91
0
VERTEX
8
CUT
10
94.9102
20
20.41
0
SEQEND
0
POLYLINE
8
CUT
66
1
70
0
0
VERTEX
8
CUT
10
99.7743
20
17.61
0
VERTEX
8
CUT
10
102.4071
20
19.51
0
VERTEX
8
CUT
10
102.4071
20
23.31
0
VERTEX
8
CUT
10
99.7743
20
25.21
0
VERTEX
8
CUT
10
97.1416
20
23.31
0
VERTEX
8
CUT
10
97.1416
20
19.51
0
VERTEX
8
CUT
10
99.7743
20
17.61
0
SEQEND
0
POLYLINE
8
CUT
66
1
70
0
0
VERTEX
8
CUT
10
103.2384
20
22.41
0
VERTEX
8
CUT
10
103.2384
20
23.91
0
VERTEX
8
CUT
10
99.7743
20
26.41
0
VERTEX
8
CUT
10
96.3102
20
23.91
0
VERTEX
8
CUT
10
96.3102
20
22.41
0
SEQEND
0
POLYLINE
8
CUT
66
1
70
0
0
VERTEX
8
CUT
10
96.3102
20
20.41
0
VERTEX
8
CUT
10
96.3102
20
18.91
0
VERTEX
8
CUT
10
99.7743
20
16.41
0
VERTEX
8
CUT
10
103.2384
20
18.91
0
VERTEX
8
CUT
10
103.2384
20
20.41
0
SEQEND
0
POLYLINE
8
CUT
66
1
70
0
0
VERTEX
8
CUT
10
108.1025
20
17.61
0
VERTEX
8
CUT
10
110.7353
20
19.51
0
VERTEX
8
CUT
10
110.7353
20
23.31
0
VERTEX
8
CUT
10
108.1025
20
25.21
0
VERTEX
8
CUT
10
105.4698
20
23.31
0
VERTEX
8
CUT
10
105.4698
20
19.51
0
VERTEX
8
CUT
10
108.1025
20
17.61
0
SEQEND
0
POLYLINE
8
CUT
66
1
70
0
0
VERTEX
8
CUT
10
111.5666
20
22.41
0
VERTEX
8
CUT
10
111.5666
20
23.91
0
VERTEX
8
CUT
10
108.1025
20
26.41
0
VERTEX
8
CUT
10
104.6384
20
23.91
0
VERTEX
8
CUT
10
104.6384
20
22.41
0
SEQEND
0
POLYLINE
8
CUT
66
1
70
0
0
VERTEX
8
CUT
10
104.6384
20
20.41
0
VERTEX
8
CUT
10
104.6384
20
18.91
0
VERTEX
8
CUT
10
108.1025
20
16.41
0
VERTEX
8
CUT
10
111.5666
20
18.91
0
VERTEX
8
CUT
10
111.5666
20
20.41
0
SEQEND
0
POLYLINE
8
CUT
66
1
70
0
0
VERTEX
8
CUT
10
116.4307
20
17.61
0
VERTEX
8
CUT
10
119.0635
20
19.51
0
VERTEX
8
CUT
10
119.0635
20
23.31
0
VERTEX
8
CUT
10
116.4307
20
25.21
0
VERTEX
8
CUT
10
113.798
20
23.31
0
VERTEX
8
CUT
10
113.798
20
19.51
0
VERTEX
8
CUT
10
116.4307
20
17.61
0
SEQEND
0
POLYLINE
8
CUT
66
1
70
0
0
VERTEX
8
CUT
10
119.8948
20
22.41
0
VERTEX
8
CUT
10
119.8948
20
23.91
0
VERTEX
8
CUT
10
116.4307
20
26.41
0
VERTEX
8
CUT
10
112.9666
20
23.91
0
VERTEX
8
CUT
10
112.9666
20
22.41
0
SEQEND
0
POLYLINE
8
CUT
66
1
70
0
0
VERTEX
8
CUT
10
112.9666
20
20.41
0
VERTEX
8
CUT
10
112.9666
20
18.91
0
VERTEX
8
CUT
10
116.4307
20
16.41
0
VERTEX
8
CUT
10
119.8948
20
18.91
0
VERTEX
8
CUT
10
119.8948
20
20.41
0
SEQEND
0
POLYLINE
8
CUT
66
1
70
0
0
VERTEX
8
CUT
10
4
20
8.892
0
VERTEX
8
CUT
10
6.6327
20
10.792
0
VERTEX
8
CUT
10
6.6327
20
14.592
0
VERTEX
8
CUT
10
4
20
16.492
0
VERTEX
8
CUT
10
1.3673
20
14.592
0
VERTEX
8
CUT
10
1.3673
20
10.792
0
VERTEX
8
CUT
10
4
20
8.892
0
SEQEND
0
POLYLINE
8
CUT
66
1
70
0
0
VERTEX
8
CUT
10
7.4641
20
13.692
0
VERTEX
8
CUT
10
7.4641
20
15.192
0
VERTEX
8
CUT
10
4
20
17.692
0
VERTEX
8
CUT
10
0.5359
20
15.192
0
VERTEX
8
CUT
10
0.5359
20
13.692
0
SEQEND
0
POLYLINE
8
CUT
66
1
70
0
0
VERTEX
8
CUT
10
0.5359
20
11.692
0
VERTEX
8
CUT
10
0.5359
20
10.192
0
VERTEX
8
CUT
10
4
20
7.692
0
VERTEX
8
CUT
10
7.4641
20
10.192
0
VERTEX
8
CUT
10
7.4641
20
11.692
0
SEQEND
0
POLYLINE
8
CUT
66
1
70
0
0
VERTEX
8
CUT
10
12.3282
20
8.892
0
VERTEX
8
CUT
10
14.9609
20
10.792
0
VERTEX
8
CUT
10
14.9609
20
14.592
0
VERTEX
8
CUT
10
12.3282
20
16.492
0
VERTEX
8
CUT
10
9.6955
20
14.592
0
VERTEX
8
CUT
10
9.6955
20
10.792
0
VERTEX
8
CUT
10
12.3282
20
8.892
0
SEQEND
0
POLYLINE
8
CUT
66
1
70
0
0
VERTEX
8
CUT
10
15.7923
20
13.692
0
VERTEX
8
CUT
10
15.7923
20
15.192
0
VERTEX
8
CUT
10
12.3282
20
17.692
0
VERTEX
8
CUT
10
8.8641
20
15.192
0
VERTEX
8
CUT
10
8.8641
20
13.692
0
SEQEND
0
POLYLINE
8
CUT
66
1
70
0
0
VERTEX
8
CUT
10
8.8641
20
11.692
0
VERTEX
8
CUT
10
8.8641
20
10.192
0
VERTEX
8
CUT
10
12.3282
20
7.692
0
VERTEX
8
CUT
10
15.7923
20
10.192
0
VERTEX
8
CUT
10
15.7923
20
11.692
0
SEQEND
0
POLYLINE
8
CUT
66
1
70
0
0
VERTEX
8
CUT
10
20.6564
20
8.892
0
VERTEX
8
CUT
10
23.2891
20
10.792
0
VERTEX
8
CUT
10
23.2891
20
14.592
0
VERTEX
8
CUT
10
20.6564
20
16.492
0
VERTEX
8
CUT
10
18.0237
20
14.592
0
VERTEX
8
CUT
10
18.0237
20
10.792
0
VERTEX
8
CUT
10
20.6564
20
8.892
0
SEQEND
0
POLYLINE
8
CUT
66
1
70
0
0
VERTEX
8
CUT
10
24.1205
20
13.692
0
VERTEX
8
CUT
10
24.1205
20
15.192
0
VERTEX
8
CUT
10
20.6564
20
17.692
0
VERTEX
8
CUT
10
17.1923
20
15.192
0
VERTEX
8
CUT
10
17.1923
20
13.692
0
SEQEND
0
POLYLINE
8
CUT
66
1
70
0
0
VERTEX
8
CUT
10
17.1923
20
11.692
0
VERTEX
8
CUT
10
17.1923
20
10.192
0
VERTEX
8
CUT
10
20.6564
20
7.692
0
VERTEX
8
CUT
10
24.1205
20
10.192
0
VERTEX
8
CUT
10
24.1205
20
11.692
0
SEQEND
0
POLYLINE
8
CUT
66
1
70
0
0
VERTEX
8
CUT
10
28.9846
20
8.892
0
VERTEX
8
CUT
10
31.6173
20
10.792
0
VERTEX
8
CUT
10
31.6173
20
14.592
0
VERTEX
8
CUT
10
28.9846
20
16.492
0
VERTEX
8
CUT
10
26.3519
20
14.592
0
VERTEX
8
CUT
10
26.3519
20
10.792
0
VERTEX
8
CUT
10
28.9846
20
8.892
0
SEQEND
0
POLYLINE
8
CUT
66
1
70
0
0
VERTEX
8
CUT
10
32.4487
20
13.692
0
VERTEX
8
CUT
10
32.4487
20
15.192
0
VERTEX
8
CUT
10
28.9846
20
17.692
0
VERTEX
8
CUT
10
25.5205
20
15.192
0
VERTEX
8
CUT
10
25.5205
20
13.692
0
SEQEND
0
POLYLINE
8
CUT
66
1
70
0
0
VERTEX
8
CUT
10
25.5205
20
11.692
0
VERTEX
8
CUT
10
25.5205
20
10.192
0
VERTEX
8
CUT
10
28.9846
20
7.692
0
VERTEX
8
CUT
10
32.4487
20
10.192
0
VERTEX
8
CUT
10
32.4487
20
11.692
0
SEQEND
0
POLYLINE
8
CUT
66
1
70
0
0
VERTEX
8
CUT
10
37.3128
20
8.892
0
VERTEX
8
CUT
10
39.9455
20
10.792
0
VERTEX
8
CUT
10
39.9455
20
14.592
0
VERTEX
8
CUT
10
37.3128
20
16.492
0
VERTEX
8
CUT
10
34.6801
20
14.592
0
VERTEX
8
CUT
10
34.6801
20
10.792
0
VERTEX
8
CUT
10
37.3128
20
8.892
0
SEQEND
0
POLYLINE
8
CUT
66
1
70
0
0
VERTEX
8
CUT
10
40.7769
20
13.692
0
VERTEX
8
CUT
10
40.7769
20
15.192
0
VERTEX
8
CUT
10
37.3128
20
17.692
0
VERTEX
8
CUT
10
33.8487
20
15.192
0
VERTEX
8
CUT
10
33.8487
20
13.692
0
SEQEND
0
POLYLINE
8
CUT
66
1
70
0
0
VERTEX
8
CUT
10
33.8487
20
11.692
0
VERTEX
8
CUT
10
33.8487
20
10.192
0
VERTEX
8
CUT
10
37.3128
20
7.692
0
VERTEX
8
CUT
10
40.7769
20
10.192
0
VERTEX
8
CUT
10
40.7769
20
11.692
0
SEQEND
0
POLYLINE
8
CUT
66
1
70
0
0
VERTEX
8
CUT
10
45.641
20
8.892
0
VERTEX
8
CUT
10
48.2737
20
10.792
0
VERTEX
8
CUT
10
48.2737
20
14.592
0
VERTEX
8
CUT
10
45.641
20
16.492
0
VERTEX
8
CUT
10
43.0083
20
14.592
0
VERTEX
8
CUT
10
43.0083
20
10.792
0
VERTEX
8
CUT
10
45.641
20
8.892
0
SEQEND
0
POLYLINE
8
CUT
66
1
70
0
0
VERTEX
8
CUT
10
49.1051
20
13.692
0
VERTEX
8
CUT
10
49.1051
20
15.192
0
VERTEX
8
CUT
10
45.641
20
17.692
0
VERTEX
8
CUT
10
42.1769
20
15.192
0
VERTEX
8
CUT
10
42.1769
20
13.692
0
SEQEND
0
POLYLINE
8
CUT
66
1
70
0
0
VERTEX
8
CUT
10
42.1769
20
11.692
0
VERTEX
8
CUT
10
42.1769
20
10.192
0
VERTEX
8
CUT
10
45.641
20
7.692
0
VERTEX
8
CUT
10
49.1051
20
10.192
0
VERTEX
8
CUT
10
49.1051
20
11.692
0
SEQEND
0
POLYLINE
8
CUT
66
1
70
0
0
VERTEX
8
CUT
10
53.9692
20
8.892
0
VERTEX
8
CUT
10
56.6019
20
10.792
0
VERTEX
8
CUT
10
56.6019
20
14.592
0
VERTEX
8
CUT
10
53.9692
20
16.492
0
VERTEX
8
CUT
10
51.3365
20
14.592
0
VERTEX
8
CUT
10
51.3365
20
10.792
0
VERTEX
8
CUT
10
53.9692
20
8.892
0
SEQEND
0
POLYLINE
8
CUT
66
1
70
0
0
VERTEX
8
CUT
10
57.4333
20
13.692
0
VERTEX
8
CUT
10
57.4333
20
15.192
0
VERTEX
8
CUT
10
53.9692
20
17.692
0
VERTEX
8
CUT
10
50.5051
20
15.192
0
VERTEX
8
CUT
10
50.5051
20
13.692
0
SEQEND
0
POLYLINE
8
CUT
66
1
70
0
0
VERTEX
8
CUT
10
50.5051
20
11.692
0
VERTEX
8
CUT
10
50.5051
20
10.192
0
VERTEX
8
CUT
10
53.9692
20
7.692
0
VERTEX
8
CUT
10
57.4333
20
10.192
0
VERTEX
8
CUT
10
57.4333
20
11.692
0
SEQEND
0
POLYLINE
8
CUT
66
1
70
0
0
VERTEX
8
CUT
10
62.2974
20
8.892
0
VERTEX
8
CUT
10
64.9301
20
10.792
0
VERTEX
8
CUT
10
64.9301
20
14.592
0
VERTEX
8
CUT
10
62.2974
20
16.492
0
VERTEX
8
CUT
10
59.6647
20
14.592
0
VERTEX
8
CUT
10
59.6647
20
10.792
0
VERTEX
8
CUT
10
62.2974
20
8.892
0
SEQEND
0
POLYLINE
8
CUT
66
1
70
0
0
VERTEX
8
CUT
10
65.7615
20
13.692
0
VERTEX
8
CUT
10
65.7615
20
15.192
0
VERTEX
8
CUT
10
62.2974
20
17.692
0
VERTEX
8
CUT
10
58.8333
20
15.192
0
VERTEX
8
CUT
10
58.8333
20
13.692
0
SEQEND
0
POLYLINE
8
CUT
66
1
70
0
0
VERTEX
8
CUT
10
58.8333
20
11.692
0
VERTEX
8
CUT
10
58.8333
20
10.192
0
VERTEX
8
CUT
10
62.2974
20
7.692
0
VERTEX
8
CUT
10
65.7615
20
10.192
0
VERTEX
8
CUT
10
65.7615
20
11.692
0
SEQEND
0
POLYLINE
8
CUT
66
1
70
0
0
VERTEX
8
CUT
10
70.6256
20
8.892
0
VERTEX
8
CUT
10
73.2583
20
10.792
0
VERTEX
8
CUT
10
73.2583
20
14.592
0
VERTEX
8
CUT
10
70.6256
20
16.492
0
VERTEX
8
CUT
10
67.9929
20
14.592
0
VERTEX
8
CUT
10
67.9929
20
10.792
0
VERTEX
8
CUT
10
70.6256
20
8.892
0
SEQEND
0
POLYLINE
8
CUT
66
1
70
0
0
VERTEX
8
CUT
10
74.0897
20
13.692
0
VERTEX
8
CUT
10
74.0897
20
15.192
0
VERTEX
8
CUT
10
70.6256
20
17.692
0
VERTEX
8
CUT
10
67.1615
20
15.192
0
VERTEX
8
CUT
10
67.1615
20
13.692
0
SEQEND
0
POLYLINE
8
CUT
66
1
70
0
0
VERTEX
8
CUT
10
67.1615
20
11.692
0
VERTEX
8
CUT
10
67.1615
20
10.192
0
VERTEX
8
CUT
10
70.6256
20
7.692
0
VERTEX
8
CUT
10
74.0897
20
10.192
0
VERTEX
8
CUT
10
74.0897
20
11.692
0
SEQEND
0
POLYLINE
8
CUT
66
1
70
0
0
VERTEX
8
CUT
10
78.9538
20
8.892
0
VERTEX
8
CUT
10
81.5865
20
10.792
0
VERTEX
8
CUT
10
81.5865
20
14.592
0
VERTEX
8
CUT
10
78.9538
20
16.492
0
VERTEX
8
CUT
10
76.3211
20
14.592
0
VERTEX
8
CUT
10
76.3211
20
10.792
0
VERTEX
8
CUT
10
78.9538
20
8.892
0
SEQEND
0
POLYLINE
8
CUT
66
1
70
0
0
VERTEX
8
CUT
10
82.4179
20
13.692
0
VERTEX
8
CUT
10
82.4179
20
15.192
0
VERTEX
8
CUT
10
78.9538
20
17.692
0
VERTEX
8
CUT
10
75.4897
20
15.192
0
VERTEX
8
CUT
10
75.4897
20
13.692
0
SEQEND
0
POLYLINE
8
CUT
66
1
70
0
0
VERTEX
8
CUT
10
75.4897
20
11.692
0
VERTEX
8
CUT
10
75.4897
20
10.192
0
VERTEX
8
CUT
10
78.9538
20
7.692
0
VERTEX
8
CUT
10
82.4179
20
10.192
0
VERTEX
8
CUT
10
82.4179
20
11.692
0
SEQEND
0
POLYLINE
8
CUT
66
1
70
0
0
VERTEX
8
CUT
10
87.282
20
8.892
0
VERTEX
8
CUT
10
89.9147
20
10.792
0
VERTEX
8
CUT
10
89.9147
20
14.592
0
VERTEX
8
CUT
10
87.282
20
16.492
0
VERTEX
8
CUT
10
84.6493
20
14.592
0
VERTEX
8
CUT
10
84.6493
20
10.792
0
VERTEX
8
CUT
10
87.282
20
8.892
0
SEQEND
0
POLYLINE
8
CUT
66
1
70
0
0
VERTEX
8
CUT
10
90.7461
20
13.692
0
VERTEX
8
CUT
10
90.7461
20
15.192
0
VERTEX
8
CUT
10
87.282
20
17.692
0
VERTEX
8
CUT
10
83.8179
20
15.192
0
VERTEX
8
CUT
10
83.8179
20
13.692
0
SEQEND
0
POLYLINE
8
CUT
66
1
70
0
0
VERTEX
8
CUT
10
83.8179
20
11.692
0
VERTEX
8
CUT
10
83.8179
20
10.192
0
VERTEX
8
CUT
10
87.282
20
7.692
0
VERTEX
8
CUT
10
90.7461
20
10.192
0
VERTEX
8
CUT
10
90.7461
20
11.692
0
SEQEND
0
POLYLINE
8
CUT
66
1
70
0
0
VERTEX
8
CUT
10
95.6102
20
8.892
0
VERTEX
8
CUT
10
98.243
20
10.792
0
VERTEX
8
CUT
10
98.243
20
14.592
0
VERTEX
8
CUT
10
95.6102
20
16.492
0
VERTEX
8
CUT
10
92.9775
20
14.592
0
VERTEX
8
CUT
10
92.9775
20
10.792
0
VERTEX
8
CUT
10
95.6102
20
8.892
0
SEQEND
0
POLYLINE
8
CUT
66
1
70
0
0
VERTEX
8
CUT
10
99.0743
20
13.692
0
VERTEX
8
CUT
10
99.0743
20
15.192
0
VERTEX
8
CUT
10
95.6102
20
17.692
0
VERTEX
8
CUT
10
92.1461
20
15.192
0
VERTEX
8
CUT
10
92.1461
20
13.692
0
SEQEND
0
POLYLINE
8
CUT
66
1
70
0
0
VERTEX
8
CUT
10
92.1461
20
11.692
0
VERTEX
8
CUT
10
92.1461
20
10.192
0
VERTEX
8
CUT
10
95.6102
20
7.692
0
VERTEX
8
CUT
10
99.0743
20
10.192
0
VERTEX
8
CUT
10
99.0743
20
11.692
0
SEQEND
0
POLYLINE
8
CUT
66
1
70
0
0
VERTEX
8
CUT
10
103.9384
20
8.892
0
VERTEX
8
CUT
10
106.5712
20
10.792
0
VERTEX
8
CUT
10
106.5712
20
14.592
0
VERTEX
8
CUT
10
103.9384
20
16.492
0
VERTEX
8
CUT
10
101.3057
20
14.592
0
VERTEX
8
CUT
10
101.3057
20
10.792
0
VERTEX
8
CUT
10
103.9384
20
8.892
0
SEQEND
0
POLYLINE
8
CUT
66
1
70
0
0
VERTEX
8
CUT
10
107.4025
20
13.692
0
VERTEX
8
CUT
10
107.4025
20
15.192
0
VERTEX
8
CUT
10
103.9384
20
17.692
0
VERTEX
8
CUT
10
100.4743
20
15.192
0
VERTEX
8
CUT
10
100.4743
20
13.692
0
SEQEND
0
POLYLINE
8
CUT
66
1
70
0
0
VERTEX
8
CUT
10
100.4743
20
11.692
0
VERTEX
8
CUT
10
100.4743
20
10.192
0
VERTEX
8
CUT
10
103.9384
20
7.692
0
VERTEX
8
CUT
10
107.4025
20
10.192
0
VERTEX
8
CUT
10
107.4025
20
11.692
0
SEQEND
0
POLYLINE
8
CUT
66
1
70
0
0
VERTEX
8
CUT
10
112.2666
20
8.892
0
VERTEX
8
CUT
10
114.8994
20
10.792
0
VERTEX
8
CUT
10
114.8994
20
14.592
0
VERTEX
8
CUT
10
112.2666
20
16.492
0
VERTEX
8
CUT
10
109.6339
20
14.592
0
VERTEX
8
CUT
10
109.6339
20
10.792
0
VERTEX
8
CUT
10
112.2666
20
8.892
0
SEQEND
0
POLYLINE
8
CUT
66
1
70
0
0
VERTEX
8
CUT
10
115.7307
20
13.692
0
VERTEX
8
CUT
10
115.7307
20
15.192
0
VERTEX
8
CUT
10
112.2666
20
17.692
0
VERTEX
8
CUT
10
108.8025
20
15.192
0
VERTEX
8
CUT
10
108.8025
20
13.692
0
SEQEND
0
POLYLINE
8
CUT
66
1
70
0
0
VERTEX
8
CUT
10
108.8025
20
11.692
0
VERTEX
8
CUT
10
108.8025
20
10.192
0
VERTEX
8
CUT
10
112.2666
20
7.692
0
VERTEX
8
CUT
10
115.7307
20
10.192
0
VERTEX
8
CUT
10
115.7307
20
11.692
0
SEQEND
0
POLYLINE
8
CUT
66
1
70
0
0
VERTEX
8
CUT
10
120
20
16.0627
0
VERTEX
8
CUT
10
117.9621
20
14.592
0
VERTEX
8
CUT
10
117.9621
20
10.792
0
VERTEX
8
CUT
10
120
20
9.3213
0
SEQEND
0
POLYLINE
8
CUT
66
1
70
0
0
VERTEX
8
CUT
10
120
20
17.2627
0
VERTEX
8
CUT
10
117.1307
20
15.192
0
VERTEX
8
CUT
10
117.1307
20
13.692
0
SEQEND
0
POLYLINE
8
CUT
66
1
70
0
0
VERTEX
8
CUT
10
117.1307
20
11.692
0
VERTEX
8
CUT
10
117.1307
20
10.192
0
VERTEX
8
CUT
10
120
20
8.1213
0
SEQEND
0
POLYLINE
8
CUT
66
1
70
0
0
VERTEX
8
CUT
10
0
20
0.2924
0
VERTEX
8
CUT
10
2.4686
20
2.074
0
VERTEX
8
CUT
10
2.4686
20
5.874
0
VERTEX
8
CUT
10
0
20
7.6556
0
SEQEND
0
POLYLINE
8
CUT
66
1
70
0
0
VERTEX
8
CUT
10
3.3
20
4.974
0
VERTEX
8
CUT
10
3.3
20
6.474
0
VERTEX
8
CUT
10
0
20
8.8556
0
SEQEND
0
POLYLINE
8
CUT
66
1
70
0
0
VERTEX
8
CUT
10
1.2576
20
0
0
VERTEX
8
CUT
10
3.3
20
1.474
0
VERTEX
8
CUT
10
3.3
20
2.974
0
SEQEND
0
POLYLINE
8
CUT
66
1
70
0
0
VERTEX
8
CUT
10
8.1641
20
0.174
0
VERTEX
8
CUT
10
10.7968
20
2.074
0
VERTEX
8
CUT
10
10.7968
20
5.874
0
VERTEX
8
CUT
10
8.1641
20
7.774
0
VERTEX
8
CUT
10
5.5314
20
5.874
0
VERTEX
8
CUT
10
5.5314
20
2.074
0
VERTEX
8
CUT
10
8.1641
20
0.174
0
SEQEND
0
POLYLINE
8
CUT
66
1
70
0
0
VERTEX
8
CUT
10
11.6282
20
4.974
0
VERTEX
8
CUT
10
11.6282
20
6.474
0
VERTEX
8
CUT
10
8.1641
20
8.974
0
VERTEX
8
CUT
10
4.7
20
6.474
0
VERTEX
8
CUT
10
4.7
20
4.974
0
SEQEND
0
POLYLINE
8
CUT
66
1
70
0
0
VERTEX
8
CUT
10
4.7
20
2.974
0
VERTEX
8
CUT
10
4.7
20
1.474
0
VERTEX
8
CUT
10
6.7424
20
0
0
SEQEND
0
POLYLINE
8
CUT
66
1
70
0
0
VERTEX
8
CUT
10
9.5858
20
0
0
VERTEX
8
CUT
10
11.6282
20
1.474
0
VERTEX
8
CUT
10
11.6282
20
2.974
0
SEQEND
0
POLYLINE
8
CUT
66
1
70
0
0
VERTEX
8
CUT
10
16.4923
20
0.174
0
VERTEX
8
CUT
10
19.125
20
2.074
0
VERTEX
8
CUT
10
19.125
20
5.874
0
VERTEX
8
CUT
10
16.4923
20
7.774
0
VERTEX
8
CUT
10
13.8596
20
5.874
0
VERTEX
8
CUT
10
13.8596
20
2.074
0
VERTEX
8
CUT
10
16.4923
20
0.174
0
SEQEND
0
POLYLINE
8
CUT
66
1
70
0
0
VERTEX
8
CUT
10
19.9564
20
4.974
0
VERTEX
8
CUT
10
19.9564
20
6.474
0
VERTEX
8
CUT
10
16.4923
20
8.974
0
VERTEX
8
CUT
10
13.0282
20
6.474
0
VERTEX
8
CUT
10
13.0282
20
4.974
0
SEQEND
0
POLYLINE
8
CUT
66
1
70
0
0
VERTEX
8
CUT
10
13.0282
20
2.974
0
VERTEX
8
CUT
10
13.0282
20
1.474
0
VERTEX
8
CUT
10
15.0706
20
0
0
SEQEND
0
POLYLINE
8
CUT
66
1
70
0
0
VERTEX
8
CUT
10
17.914
20
0
0
VERTEX
8
CUT
10
19.9564
20
1.474
0
VERTEX
8
CUT
10
19.9564
20
2.974
0
SEQEND
0
POLYLINE
8
CUT
66
1
70
0
0
VERTEX
8
CUT
10
24.8205
20
0.174
0
VERTEX
8
CUT
10
27.4532
20
2.074
0
VERTEX
8
CUT
10
27.4532
20
5.874
0
VERTEX
8
CUT
10
24.8205
20
7.774
0
VERTEX
8
CUT
10
22.1878
20
5.874
0
VERTEX
8
CUT
10
22.1878
20
2.074
0
VERTEX
8
CUT
10
24.8205
20
0.174
0
SEQEND
0
POLYLINE
8
CUT
66
1
70
0
0
VERTEX
8
CUT
10
28.2846
20
4.974
0
VERTEX
8
CUT
10
28.2846
20
6.474
0
VERTEX
8
CUT
10
24.8205
20
8.974
0
VERTEX
8
CUT
10
21.3564
20
6.474
0
VERTEX
8
CUT
10
21.3564
20
4.974
0
SEQEND
0
POLYLINE
8
CUT
66
1
70
0
0
VERTEX
8
CUT
10
21.3564
20
2.974
0
VERTEX
8
CUT
10
21.3564
20
1.474
0
VERTEX
8
CUT
10
23.3988
20
0
0
SEQEND
0
POLYLINE
8
CUT
66
1
70
0
0
VERTEX
8
CUT
10
26.2422
20
0
0
VERTEX
8
CUT
10
28.2846
20
1.474
0
VERTEX
8
CUT
10
28.2846
20
2.974
0
SEQEND
0
POLYLINE
8
CUT
66
1
70
0
0
VERTEX
8
CUT
10
33.1487
20
0.174
0
VERTEX
8
CUT
10
35.7814
20
2.074
0
VERTEX
8
CUT
10
35.7814
20
5.874
0
VERTEX
8
CUT
10
33.1487
20
7.774
0
VERTEX
8
CUT
10
30.516
20
5.874
0
VERTEX
8
CUT
10
30.516
20
2.074
0
VERTEX
8
CUT
10
33.1487
20
0.174
0
SEQEND
0
POLYLINE
8
CUT
66
1
70
0
0
VERTEX
8
CUT
10
36.6128
20
4.974
0
VERTEX
8
CUT
10
36.6128
20
6.474
0
VERTEX
8
CUT
10
33.1487
20
8.974
0
VERTEX
8
CUT
10
29.6846
20
6.474
0
VERTEX
8
CUT
10
29.6846
20
4.974
0
SEQEND
0
POLYLINE
8
CUT
66
1
70
0
0
VERTEX
8
CUT
10
29.6846
20
2.974
0
VERTEX
8
CUT
10
29.6846
20
1.474
0
VERTEX
8
CUT
10
31.727
20
0
0
SEQEND
0
POLYLINE
8
CUT
66
1
70
0
0
VERTEX
8
CUT
10
34.5704
20
0
0
VERTEX
8
CUT
10
36.6128
20
1.474
0
VERTEX
8
CUT
10
36.6128
20
2.974
0
SEQEND
0
POLYLINE
8
CUT
66
1
70
0
0
VERTEX
8
CUT
10
41.4769
20
0.174
0
VERTEX
8
CUT
10
44.1096
20
2.074
0
VERTEX
8
CUT
10
44.1096
20
5.874
0
VERTEX
8
CUT
10
41.4769
20
7.774
0
VERTEX
8
CUT
10
38.8442
20
5.874
0
VERTEX
8
CUT
10
38.8442
20
2.074
0
VERTEX
8
CUT
10
41.4769
20
0.174
0
SEQEND
0
POLYLINE
8
CUT
66
1
70
0
0
VERTEX
8
CUT
10
44.941
20
4.974
0
VERTEX
8
CUT
10
44.941
20
6.474
0
VERTEX
8
CUT
10
41.4769
20
8.974
0
VERTEX
8
CUT
10
38.0128
20
6.474
0
VERTEX
8
CUT
10
38.0128
20
4.974
0
SEQEND
0
POLYLINE
8
CUT
66
1
70
0
0
VERTEX
8
CUT
10
38.0128
20
2.974
0
VERTEX
8
CUT
10
38.0128
20
1.474
0
VERTEX
8
CUT
10
40.0552
20
0
0
SEQEND
0
POLYLINE
8
CUT
66
1
70
0
0
VERTEX
8
CUT
10
42.8986
20
0
0
VERTEX
8
CUT
10
44.941
20
1.474
0
VERTEX
8
CUT
10
44.941
20
2.974
0
SEQEND
0
POLYLINE
8
CUT
66
1
70
0
0
VERTEX
8
CUT
10
49.8051
20
0.174
0
VERTEX
8
CUT
10
52.4378
20
2.074
0
VERTEX
8
CUT
10
52.4378
20
5.874
0
VERTEX
8
CUT
10
49.8051
20
7.774
0
VERTEX
8
CUT
10
47.1724
20
5.874
0
VERTEX
8
CUT
10
47.1724
20
2.074
0
VERTEX
8
CUT
10
49.8051
20
0.174
0
SEQEND
0
POLYLINE
8
CUT
66
1
70
0
0
VERTEX
8
CUT
10
53.2692
20
4.974
0
VERTEX
8
CUT
10
53.2692
20
6.474
0
VERTEX
8
CUT
10
49.8051
20
8.974
0
VERTEX
8
CUT
10
46.341
20
6.474
0
VERTEX
8
CUT
10
46.341
20
4.974
0
SEQEND
0
POLYLINE
8
CUT
66
1
70
0
0
VERTEX
8
CUT
10
46.341
20
2.974
0
VERTEX
8
CUT
10
46.341
20
1.474
0
VERTEX
8
CUT
10
48.3835
20
0
0
SEQEND
0
POLYLINE
8
CUT
66
1
70
0
0
VERTEX
8
CUT
10
51.2268
20
0
0
VERTEX
8
CUT
10
53.2692
20
1.474
0
VERTEX
8
CUT
10
53.2692
20
2.974
0
SEQEND
0
POLYLINE
8
CUT
66
1
70
0
0
VERTEX
8
CUT
10
58.1333
20
0.174
0
VERTEX
8
CUT
10
60.766
20
2.074
0
VERTEX
8
CUT
10
60.766
20
5.874
0
VERTEX
8
CUT
10
58.1333
20
7.774
0
VERTEX
8
CUT
10
55.5006
20
5.874
0
VERTEX
8
CUT
10
55.5006
20
2.074
0
VERTEX
8
CUT
10
58.1333
20
0.174
0
SEQEND
0
POLYLINE
8
CUT
66
1
70
0
0
VERTEX
8
CUT
10
61.5974
20
4.974
0
VERTEX
8
CUT
10
61.5974
20
6.474
0
VERTEX
8
CUT
10
58.1333
20
8.974
0
VERTEX
8
CUT
10
54.6692
20
6.474
0
VERTEX
8
CUT
10
54.6692
20
4.974
0
SEQEND
0
POLYLINE
8
CUT
66
1
70
0
0
VERTEX
8
CUT
10
54.6692
20
2.974
0
VERTEX
8
CUT
10
54.6692
20
1.474
0
VERTEX
8
CUT
10
56.7117
20
0
0
SEQEND
0
POLYLINE
8
CUT
66
1
70
0
0
VERTEX
8
CUT
10
59.555
20
0
0
VERTEX
8
CUT
10
61.5974
20
1.474
0
VERTEX
8
CUT
10
61.5974
20
2.974
0
SEQEND
0
POLYLINE
8
CUT
66
1
70
0
0
VERTEX
8
CUT
10
66.4615
20
0.174
0
VERTEX
8
CUT
10
69.0942
20
2.074
0
VERTEX
8
CUT
10
69.0942
20
5.874
0
VERTEX
8
CUT
10
66.4615
20
7.774
0
VERTEX
8
CUT
10
63.8288
20
5.874
0
VERTEX
8
CUT
10
63.8288
20
2.074
0
VERTEX
8
CUT
10
66.4615
20
0.174
0
SEQEND
0
POLYLINE
8
CUT
66
1
70
0
0
VERTEX
8
CUT
10
69.9256
20
4.974
0
VERTEX
8
CUT
10
69.9256
20
6.474
0
VERTEX
8
CUT
10
66.4615
20
8.974
0
VERTEX
8
CUT
10
62.9974
20
6.474
0
VERTEX
8
CUT
10
62.9974
20
4.974
0
SEQEND
0
POLYLINE
8
CUT
66
1
70
0
0
VERTEX
8
CUT
10
62.9974
20
2.974
0
VERTEX
8
CUT
10
62.9974
20
1.474
0
VERTEX
8
CUT
10
65.0399
20
0
0
SEQEND
0
POLYLINE
8
CUT
66
1
70
0
0
VERTEX
8
CUT
10
67.8832
20
0
0
VERTEX
8
CUT
10
69.9256
20
1.474
0
VERTEX
8
CUT
10
69.9256
20
2.974
0
SEQEND
0
POLYLINE
8
CUT
66
1
70
0
0
VERTEX
8
CUT
10
74.7897
20
0.174
0
VERTEX
8
CUT
10
77.4224
20
2.074
0
VERTEX
8
CUT
10
77.4224
20
5.874
0
VERTEX
8
CUT
10
74.7897
20
7.774
0
VERTEX
8
CUT
10
72.157
20
5.874
0
VERTEX
8
CUT
10
72.157
20
2.074
0
VERTEX
8
CUT
10
74.7897
20
0.174
0
SEQEND
0
POLYLINE
8
CUT
66
1
70
0
0
VERTEX
8
CUT
10
78.2538
20
4.974
0
VERTEX
8
CUT
10
78.2538
20
6.474
0
VERTEX
8
CUT
10
74.7897
20
8.974
0
VERTEX
8
CUT
10
71.3256
20
6.474
0
VERTEX
8
CUT
10
71.3256
20
4.974
0
SEQEND
0
POLYLINE
8
CUT
66
1
70
0
0
VERTEX
8
CUT
10
71.3256
20
2.974
0
VERTEX
8
CUT
10
71.3256
20
1.474
0
VERTEX
8
CUT
10
73.3681
20
0
0
SEQEND
0
POLYLINE
8
CUT
66
1
70
0
0
VERTEX
8
CUT
10
76.2114
20
0
0
VERTEX
8
CUT
10
78.2538
20
1.474
0
VERTEX
8
CUT
10
78.2538
20
2.974
0
SEQEND
0
POLYLINE
8
CUT
66
1
70
0
0
VERTEX
8
CUT
10
83.1179
20
0.174
0
VERTEX
8
CUT
10
85.7506
20
2.074
0
VERTEX
8
CUT
10
85.7506
20
5.874
0
VERTEX
8
CUT
10
83.1179
20
7.774
0
VERTEX
8
CUT
10
80.4852
20
5.874
0
VERTEX
8
CUT
10
80.4852
20
2.074
0
VERTEX
8
CUT
10
83.1179
20
0.174
0
SEQEND
0
POLYLINE
8
CUT
66
1
70
0
0
VERTEX
8
CUT
10
86.582
20
4.974
0
VERTEX
8
CUT
10
86.582
20
6.474
0
VERTEX
8
CUT
10
83.1179
20
8.974
0
VERTEX
8
CUT
10
79.6538
20
6.474
0
VERTEX
8
CUT
10
79.6538
20
4.974
0
SEQEND
0
POLYLINE
8
CUT
66
1
70
0
0
VERTEX
8
CUT
10
79.6538
20
2.974
0
VERTEX
8
CUT
10
79.6538
20
1.474
0
VERTEX
8
CUT
10
81.6963
20
0
0
SEQEND
0
POLYLINE
8
CUT
66
1
70
0
0
VERTEX
8
CUT
10
84.5396
20
0
0
VERTEX
8
CUT
10
86.582
20
1.474
0
VERTEX
8
CUT
10
86.582
20
2.974
0
SEQEND
0
POLYLINE
8
CUT
66
1
70
0
0
VERTEX
8
CUT
10
91.4461
20
0.174
0
VERTEX
8
CUT
10
94.0789
20
2.074
0
VERTEX
8
CUT
10
94.0789
20
5.874
0
VERTEX
8
CUT
10
91.4461
20
7.774
0
VERTEX
8
CUT
10
88.8134
20
5.874
0
VERTEX
8
CUT
10
88.8134
20
2.074
0
VERTEX
8
CUT
10
91.4461
20
0.174
0
SEQEND
0
POLYLINE
8
CUT
66
1
70
0
0
VERTEX
8
CUT
10
94.9102
20
4.974
0
VERTEX
8
CUT
10
94.9102
20
6.474
0
VERTEX
8
CUT
10
91.4461
20
8.974
0
VERTEX
8
CUT
10
87.982
20
6.474
0
VERTEX
8
CUT
10
87.982
20
4.974
0
SEQEND
0
POLYLINE
8
CUT
66
1
70
0
0
VERTEX
8
CUT
10
87.982
20
2.974
0
VERTEX
8
CUT
10
87.982
20
1.474
0
VERTEX
8
CUT
10
90.0245
20
0
0
SEQEND
0
POLYLINE
8
CUT
66
1
70
0
0
VERTEX
8
CUT
10
92.8678
20
0
0
VERTEX
8
CUT
10
94.9102
20
1.474
0
VERTEX
8
CUT
10
94.9102
20
2.974
0
SEQEND
0
POLYLINE
8
CUT
66
1
70
0
0
VERTEX
8
CUT
10
99.7743
20
0.174
0
VERTEX
8
CUT
10
102.4071
20
2.074
0
VERTEX
8
CUT
10
102.4071
20
5.874
0
VERTEX
8
CUT
10
99.7743
20
7.774
0
VERTEX
8
CUT
10
97.1416
20
5.874
0
VERTEX
8
CUT
10
97.1416
20
2.074
0
VERTEX
8
CUT
10
99.7743
20
0.174
0
SEQEND
0
POLYLINE
8
CUT
66
1
70
0
0
VERTEX
8
CUT
10
103.2384
20
4.974
0
VERTEX
8
CUT
10
103.2384
20
6.474
0
VERTEX
8
CUT
10
99.7743
20
8.974
0
VERTEX
8
CUT
10
96.3102
20
6.474
0
VERTEX
8
CUT
10
96.3102
20
4.974
0
SEQEND
0
POLYLINE
8
CUT
66
1
70
0
0
VERTEX
8
CUT
10
96.3102
20
2.974
0
VERTEX
8
CUT
10
96.3102
20
1.474
0
VERTEX
8
CUT
10
98.3527
20
0
0
SEQEND
0
POLYLINE
8
CUT
66
1
70
0
0
VERTEX
8
CUT
10
101.196
20
0
0
VERTEX
8
CUT
10
103.2384
20
1.474
0
VERTEX
8
CUT
10
103.2384
20
2.974
0
SEQEND
0
POLYLINE
8
CUT
66
1
70
0
0
VERTEX
8
CUT
10
108.1025
20
0.174
0
VERTEX
8
CUT
10
110.7353
20
2.074
0
VERTEX
8
CUT
10
110.7353
20
5.874
0
VERTEX
8
CUT
10
108.1025
20
7.774
0
VERTEX
8
CUT
10
105.4698
20
5.874
0
VERTEX
8
CUT
10
105.4698
20
2.074
0
VERTEX
8
CUT
10
108.1025
20
0.174
0
SEQEND
0
POLYLINE
8
CUT
66
1
70
0
0
VERTEX
8
CUT
10
111.5666
20
4.974
0
VERTEX
8
CUT
10
111.5666
20
6.474
0
VERTEX
8
CUT
10
108.1025
20
8.974
0
VERTEX
8
CUT
10
104.6384
20
6.474
0
VERTEX
8
CUT
10
104.6384
20
4.974
0
SEQEND
0
POLYLINE
8
CUT
66
1
70
0
0
VERTEX
8
CUT
10
104.6384
20
2.974
0
VERTEX
8
CUT
10
104.6384
20
1.474
0
VERTEX
8
CUT
10
106.6809
20
0
0
SEQEND
0
POLYLINE
8
CUT
66
1
70
0
0
VERTEX
8
CUT
10
109.5242
20
0
0
VERTEX
8
CUT
10
111.5666
20
1.474
0
VERTEX
8
CUT
10
111.5666
20
2.974
0
SEQEND
0
POLYLINE
8
CUT
66
1
70
0
0
VERTEX
8
CUT
10
116.4307
20
0.174
0
VERTEX
8
CUT
10
119.0635
20
2.074
0
VERTEX
8
CUT
10
119.0635
20
5.874
0
VERTEX
8
CUT
10
116.4307
20
7.774
0
VERTEX
8
CUT
10
113.798
20
5.874
0
VERTEX
8
CUT
10
113.798
20
2.074
0
VERTEX
8
CUT
10
116.4307
20
0.174
0
SEQEND
0
POLYLINE
8
CUT
66
1
70
0
0
VERTEX
8
CUT
10
119.8948
20
4.974
0
VERTEX
8
CUT
10
119.8948
20
6.474
0
VERTEX
8
CUT
10
116.4307
20
8.974
0
VERTEX
8
CUT
10
112.9666
20
6.474
0
VERTEX
8
CUT
10
112.9666
20
4.974
0
SEQEND
0
POLYLINE
8
CUT
66
1
70
0
0
VERTEX
8
CUT
10
112.9666
20
2.974
0
VERTEX
8
CUT
10
112.9666
20
1.474
0
VERTEX
8
CUT
10
115.0091
20
0
0
SEQEND
0
POLYLINE
8
CUT
66
1
70
0
0
VERTEX
8
CUT
10
117.8524
20
0
0
VERTEX
8
CUT
10
119.8948
20
1.474
0
VERTEX
8
CUT
10
119.8948
20
2.974
0
SEQEND
0
POLYLINE
8
CUT
66
1
70
0
0
VERTEX
8
CUT
10
4.3547
20
0
0
VERTEX
8
CUT
10
4
20
0.256
0
VERTEX
8
CUT
10
3.6453
20
0
0
SEQEND
0
POLYLINE
8
CUT
66
1
70
0
0
VERTEX
8
CUT
10
12.6829
20
0
0
VERTEX
8
CUT
10
12.3282
20
0.256
0
VERTEX
8
CUT
10
11.9735
20
0
0
SEQEND
0
POLYLINE
8
CUT
66
1
70
0
0
VERTEX
8
CUT
10
21.0111
20
0
0
VERTEX
8
CUT
10
20.6564
20
0.256
0
VERTEX
8
CUT
10
20.3017
20
0
0
SEQEND
0
POLYLINE
8
CUT
66
1
70
0
0
VERTEX
8
CUT
10
29.3393
20
0
0
VERTEX
8
CUT
10
28.9846
20
0.256
0
VERTEX
8
CUT
10
28.6299
20
0
0
SEQEND
0
POLYLINE
8
CUT
66
1
70
0
0
VERTEX
8
CUT
10
37.6675
20
0
0
VERTEX
8
CUT
10
37.3128
20
0.256
0
VERTEX
8
CUT
10
36.9581
20
0
0
SEQEND
0
POLYLINE
8
CUT
66
1
70
0
0
VERTEX
8
CUT
10
45.9957
20
0
0
VERTEX
8
CUT
10
45.641
20
0.256
0
VERTEX
8
CUT
10
45.2863
20
0
0
SEQEND
0
POLYLINE
8
CUT
66
1
70
0
0
VERTEX
8
CUT
10
54.3239
20
0
0
VERTEX
8
CUT
10
53.9692
20
0.256
0
VERTEX
8
CUT
10
53.6145
20
0
0
SEQEND
0
POLYLINE
8
CUT
66
1
70
0
0
VERTEX
8
CUT
10
62.6521
20
0
0
VERTEX
8
CUT
10
62.2974
20
0.256
0
VERTEX
8
CUT
10
61.9427
20
0
0
SEQEND
0
POLYLINE
8
CUT
66
1
70
0
0
VERTEX
8
CUT
10
70.9803
20
0
0
VERTEX
8
CUT
10
70.6256
20
0.256
0
VERTEX
8
CUT
10
70.2709
20
0
0
SEQEND
0
POLYLINE
8
CUT
66
1
70
0
0
VERTEX
8
CUT
10
79.3086
20
0
0
VERTEX
8
CUT
10
78.9538
20
0.256
0
VERTEX
8
CUT
10
78.5991
20
0
0
SEQEND
0
POLYLINE
8
CUT
66
1
70
0
0
VERTEX
8
CUT
10
87.6368
20
0
0
VERTEX
8
CUT
10
87.282
20
0.256
0
VERTEX
8
CUT
10
86.9273
20
0
0
SEQEND
0
POLYLINE
8
CUT
66
1
70
0
0
VERTEX
8
CUT
10
95.965
20
0
0
VERTEX
8
CUT
10
95.6102
20
0.256
0
VERTEX
8
CUT
10
95.2555
20
0
0
SEQEND
0
POLYLINE
8
CUT
66
1
70
0
0
VERTEX
8
CUT
10
104.2932
20
0
0
VERTEX
8
CUT
10
103.9384
20
0.256
0
VERTEX
8
CUT
10
103.5837
20
0
0
SEQEND
0
POLYLINE
8
CUT
66
1
70
0
0
VERTEX
8
CUT
10
112.6214
20
0
0
VERTEX
8
CUT
10
112.2666
20
0.256
0
VERTEX
8
CUT
10
111.9119
20
0
0
SEQEND
0
POLYLINE
8
CUT
66
1
70
0
0
VERTEX
8
CUT
10
0
20
70
0
VERTEX
8
CUT
10
120
20
70
0
VERTEX
8
CUT
10
120
20
0
0
VERTEX
8
CUT
10
0
20
0
0
VERTEX
8
CUT
10
0
20
70
0
SEQEND
0
ENDSEC
0
EOF
