0
SECTION
2
HEADER
9
$ACADVER
1
AC1009
9
$INSUNITS
70
4
0
ENDSEC
0
SECTION
2
TABLES
0
TABLE
2
LAYER
70
1
0
LAYER
2
CUT
70
0
62
1
6
CONTINUOUS
0
ENDTAB
0
ENDSEC
0
SECTION
2
ENTITIES
0
POLYLINE
8
CUT
66
1
70
0
0
VERTEX
8
CUT
10
0
20
67
0
VERTEX
8
CUT
10
15
20
66.35
0
VERTEX
8
CUT
10
30
20
67
0
VERTEX
8
CUT
10
15
20
67.65
0
VERTEX
8
CUT
10
0
20
67
0
SEQEND
0
POLYLINE
8
CUT
66
1
70
0
0
VERTEX
8
CUT
10
31.5
20
67
0
VERTEX
8
CUT
10
46.5
20
66.35
0
VERTEX
8
CUT
10
61.5
20
67
0
VERTEX
8
CUT
10
46.5
20
67.65
0
VERTEX
8
CUT
10
31.5
20
67
0
SEQEND
0
POLYLINE
8
CUT
66
1
70
0
0
VERTEX
8
CUT
10
63
20
67
0
VERTEX
8
CUT
10
78
20
66.35
0
VERTEX
8
CUT
10
93
20
67
0
VERTEX
8
CUT
10
78
20
67.65
0
VERTEX
8
CUT
10
63
20
67
0
SEQEND
0
POLYLINE
8
CUT
66
1
70
0
0
VERTEX
8
CUT
10
94.5
20
67
0
VERTEX
8
CUT
10
109.5
20
66.35
0
VERTEX
8
CUT
10
120
20
66.805
0
SEQEND
0
POLYLINE
8
CUT
66
1
70
0
0
VERTEX
8
CUT
10
120
20
67.195
0
VERTEX
8
CUT
10
109.5
20
67.65
0
VERTEX
8
CUT
10
94.5
20
67
0
SEQEND
0
POLYLINE
8
CUT
66
1
70
0
0
VERTEX
8
CUT
10
0
20
62.3825
0
VERTEX
8
CUT
10
14.25
20
63
0
VERTEX
8
CUT
10
0
20
63.6175
0
SEQEND
0
POLYLINE
8
CUT
66
1
70
0
0
VERTEX
8
CUT
10
15.75
20
63
0
VERTEX
8
CUT
10
30.75
20
62.35
0
VERTEX
8
CUT
10
45.75
20
63
0
VERTEX
8
CUT
10
30.75
20
63.65
0
VERTEX
8
CUT
10
15.75
20
63
0
SEQEND
0
POLYLINE
8
CUT
66
1
70
0
0
VERTEX
8
CUT
10
47.25
20
63
0
VERTEX
8
CUT
10
62.25
20
62.35
0
VERTEX
8
CUT
10
77.25
20
63
0
VERTEX
8
CUT
10
62.25
20
63.65
0
VERTEX
8
CUT
10
47.25
20
63
0
SEQEND
0
POLYLINE
8
CUT
66
1
70
0
0
VERTEX
8
CUT
10
78.75
20
63
0
VERTEX
8
CUT
10
93.75
20
62.35
0
VERTEX
8
CUT
10
108.75
20
63
0
VERTEX
8
CUT
10
93.75
20
63.65
0
VERTEX
8
CUT
10
78.75
20
63
0
SEQEND
0
LINE
8
CUT
10
110.25
20
63
11
120
21
62.5775
0
LINE
8
CUT
10
120
20
63.4225
11
110.25
21
63
0
POLYLINE
8
CUT
66
1
70
0
0
VERTEX
8
CUT
10
0
20
59
0
VERTEX
8
CUT
10
15
20
58.35
0
VERTEX
8
CUT
10
30
20
59
0
VERTEX
8
CUT
10
15
20
59.65
0
VERTEX
8
CUT
10
0
20
59
0
SEQEND
0
POLYLINE
8
CUT
66
1
70
0
0
VERTEX
8
CUT
10
31.5
20
59
0
VERTEX
8
CUT
10
46.5
20
58.35
0
VERTEX
8
CUT
10
61.5
20
59
0
VERTEX
8
CUT
10
46.5
20
59.65
0
VERTEX
8
CUT
10
31.5
20
59
0
SEQEND
0
POLYLINE
8
CUT
66
1
70
0
0
VERTEX
8
CUT
10
63
20
59
0
VERTEX
8
CUT
10
78
20
58.35
0
VERTEX
8
CUT
10
93
20
59
0
VERTEX
8
CUT
10
78
20
59.65
0
VERTEX
8
CUT
10
63
20
59
0
SEQEND
0
POLYLINE
8
CUT
66
1
70
0
0
VERTEX
8
CUT
10
94.5
20
59
0
VERTEX
8
CUT
10
109.5
20
58.35
0
VERTEX
8
CUT
10
120
20
58.805
0
SEQEND
0
POLYLINE
8
CUT
66
1
70
0
0
VERTEX
8
CUT
10
120
20
59.195
0
VERTEX
8
CUT
10
109.5
20
59.65
0
VERTEX
8
CUT
10
94.5
20
59
0
SEQEND
0
POLYLINE
8
CUT
66
1
70
0
0
VERTEX
8
CUT
10
0
20
54.3825
0
VERTEX
8
CUT
10
14.25
20
55
0
VERTEX
8
CUT
10
0
20
55.6175
0
SEQEND
0
POLYLINE
8
CUT
66
1
70
0
0
VERTEX
8
CUT
10
15.75
20
55
0
VERTEX
8
CUT
10
30.75
20
54.35
0
VERTEX
8
CUT
10
45.75
20
55
0
VERTEX
8
CUT
10
30.75
20
55.65
0
VERTEX
8
CUT
10
15.75
20
55
0
SEQEND
0
POLYLINE
8
CUT
66
1
70
0
0
VERTEX
8
CUT
10
47.25
20
55
0
VERTEX
8
CUT
10
62.25
20
54.35
0
VERTEX
8
CUT
10
77.25
20
55
0
VERTEX
8
CUT
10
62.25
20
55.65
0
VERTEX
8
CUT
10
47.25
20
55
0
SEQEND
0
POLYLINE
8
CUT
66
1
70
0
0
VERTEX
8
CUT
10
78.75
20
55
0
VERTEX
8
CUT
10
93.75
20
54.35
0
VERTEX
8
CUT
10
108.75
20
55
0
VERTEX
8
CUT
10
93.75
20
55.65
0
VERTEX
8
CUT
10
78.75
20
55
0
SEQEND
0
LINE
8
CUT
10
110.25
20
55
11
120
21
54.5775
0
LINE
8
CUT
10
120
20
55.4225
11
110.25
21
55
0
POLYLINE
8
CUT
66
1
70
0
0
VERTEX
8
CUT
10
0
20
51
0
VERTEX
8
CUT
10
15
20
50.35
0
VERTEX
8
CUT
10
30
20
51
0
VERTEX
8
CUT
10
15
20
51.65
0
VERTEX
8
CUT
10
0
20
51
0
SEQEND
0
POLYLINE
8
CUT
66
1
70
0
0
VERTEX
8
CUT
10
31.5
20
51
0
VERTEX
8
CUT
10
46.5
20
50.35
0
VERTEX
8
CUT
10
61.5
20
51
0
VERTEX
8
CUT
10
46.5
20
51.65
0
VERTEX
8
CUT
10
31.5
20
51
0
SEQEND
0
POLYLINE
8
CUT
66
1
70
0
0
VERTEX
8
CUT
10
63
20
51
0
VERTEX
8
CUT
10
78
20
50.35
0
VERTEX
8
CUT
10
93
20
51
0
VERTEX
8
CUT
10
78
20
51.65
0
VERTEX
8
CUT
10
63
20
51
0
SEQEND
0
POLYLINE
8
CUT
66
1
70
0
0
VERTEX
8
CUT
10
94.5
20
51
0
VERTEX
8
CUT
10
109.5
20
50.35
0
VERTEX
8
CUT
10
120
20
50.805
0
SEQEND
0
POLYLINE
8
CUT
66
1
70
0
0
VERTEX
8
CUT
10
120
20
51.195
0
VERTEX
8
CUT
10
109.5
20
51.65
0
VERTEX
8
CUT
10
94.5
20
51
0
SEQEND
0
POLYLINE
8
CUT
66
1
70
0
0
VERTEX
8
CUT
10
0
20
46.3825
0
VERTEX
8
CUT
10
14.25
20
47
0
VERTEX
8
CUT
10
0
20
47.6175
0
SEQEND
0
POLYLINE
8
CUT
66
1
70
0
0
VERTEX
8
CUT
10
15.75
20
47
0
VERTEX
8
CUT
10
30.75
20
46.35
0
VERTEX
8
CUT
10
45.75
20
47
0
VERTEX
8
CUT
10
30.75
20
47.65
0
VERTEX
8
CUT
10
15.75
20
47
0
SEQEND
0
POLYLINE
8
CUT
66
1
70
0
0
VERTEX
8
CUT
10
47.25
20
47
0
VERTEX
8
CUT
10
62.25
20
46.35
0
VERTEX
8
CUT
10
77.25
20
47
0
VERTEX
8
CUT
10
62.25
20
47.65
0
VERTEX
8
CUT
10
47.25
20
47
0
SEQEND
0
POLYLINE
8
CUT
66
1
70
0
0
VERTEX
8
CUT
10
78.75
20
47
0
VERTEX
8
CUT
10
93.75
20
46.35
0
VERTEX
8
CUT
10
108.75
20
47
0
VERTEX
8
CUT
10
93.75
20
47.65
0
VERTEX
8
CUT
10
78.75
20
47
0
SEQEND
0
LINE
8
CUT
10
110.25
20
47
11
120
21
46.5775
0
LINE
8
CUT
10
120
20
47.4225
11
110.25
21
47
0
POLYLINE
8
CUT
66
1
70
0
0
VERTEX
8
CUT
10
0
20
43
0
VERTEX
8
CUT
10
15
20
42.35
0
VERTEX
8
CUT
10
30
20
43
0
VERTEX
8
CUT
10
15
20
43.65
0
VERTEX
8
CUT
10
0
20
43
0
SEQEND
0
POLYLINE
8
CUT
66
1
70
0
0
VERTEX
8
CUT
10
31.5
20
43
0
VERTEX
8
CUT
10
46.5
20
42.35
0
VERTEX
8
CUT
10
61.5
20
43
0
VERTEX
8
CUT
10
46.5
20
43.65
0
VERTEX
8
CUT
10
31.5
20
43
0
SEQEND
0
POLYLINE
8
CUT
66
1
70
0
0
VERTEX
8
CUT
10
63
20
43
0
VERTEX
8
CUT
10
78
20
42.35
0
VERTEX
8
CUT
10
93
20
43
0
VERTEX
8
CUT
10
78
20
43.65
0
VERTEX
8
CUT
10
63
20
43
0
SEQEND
0
POLYLINE
8
CUT
66
1
70
0
0
VERTEX
8
CUT
10
94.5
20
43
0
VERTEX
8
CUT
10
109.5
20
42.35
0
VERTEX
8
CUT
10
120
20
42.805
0
SEQEND
0
POLYLINE
8
CUT
66
1
70
0
0
VERTEX
8
CUT
10
120
20
43.195
0
VERTEX
8
CUT
10
109.5
20
43.65
0
VERTEX
8
CUT
10
94.5
20
43
0
SEQEND
0
POLYLINE
8
CUT
66
1
70
0
0
VERTEX
8
CUT
10
0
20
38.3825
0
VERTEX
8
CUT
10
14.25
20
39
0
VERTEX
8
CUT
10
0
20
39.6175
0
SEQEND
0
POLYLINE
8
CUT
66
1
70
0
0
VERTEX
8
CUT
10
15.75
20
39
0
VERTEX
8
CUT
10
30.75
20
38.35
0
VERTEX
8
CUT
10
45.75
20
39
0
VERTEX
8
CUT
10
30.75
20
39.65
0
VERTEX
8
CUT
10
15.75
20
39
0
SEQEND
0
POLYLINE
8
CUT
66
1
70
0
0
VERTEX
8
CUT
10
47.25
20
39
0
VERTEX
8
CUT
10
62.25
20
38.35
0
VERTEX
8
CUT
10
77.25
20
39
0
VERTEX
8
CUT
10
62.25
20
39.65
0
VERTEX
8
CUT
10
47.25
20
39
0
SEQEND
0
POLYLINE
8
CUT
66
1
70
0
0
VERTEX
8
CUT
10
78.75
20
39
0
VERTEX
8
CUT
10
93.75
20
38.35
0
VERTEX
8
CUT
10
108.75
20
39
0
VERTEX
8
CUT
10
93.75
20
39.65
0
VERTEX
8
CUT
10
78.75
20
39
0
SEQEND
0
LINE
8
CUT
10
110.25
20
39
11
120
21
38.5775
0
LINE
8
CUT
10
120
20
39.4225
11
110.25
21
39
0
POLYLINE
8
CUT
66
1
70
0
0
VERTEX
8
CUT
10
0
20
35
0
VERTEX
8
CUT
10
15
20
34.35
0
VERTEX
8
CUT
10
30
20
35
0
VERTEX
8
CUT
10
15
20
35.65
0
VERTEX
8
CUT
10
0
20
35
0
SEQEND
0
POLYLINE
8
CUT
66
1
70
0
0
VERTEX
8
CUT
10
31.5
20
35
0
VERTEX
8
CUT
10
46.5
20
34.35
0
VERTEX
8
CUT
10
61.5
20
35
0
VERTEX
8
CUT
10
46.5
20
35.65
0
VERTEX
8
CUT
10
31.5
20
35
0
SEQEND
0
POLYLINE
8
CUT
66
1
70
0
0
VERTEX
8
CUT
10
63
20
35
0
VERTEX
8
CUT
10
78
20
34.35
0
VERTEX
8
CUT
10
93
20
35
0
VERTEX
8
CUT
10
78
20
35.65
0
VERTEX
8
CUT
10
63
20
35
0
SEQEND
0
POLYLINE
8
CUT
66
1
70
0
0
VERTEX
8
CUT
10
94.5
20
35
0
VERTEX
8
CUT
10
109.5
20
34.35
0
VERTEX
8
CUT
10
120
20
34.805
0
SEQEND
0
POLYLINE
8
CUT
66
1
70
0
0
VERTEX
8
CUT
10
120
20
35.195
0
VERTEX
8
CUT
10
109.5
20
35.65
0
VERTEX
8
CUT
10
94.5
20
35
0
SEQEND
0
POLYLINE
8
CUT
66
1
70
0
0
VERTEX
8
CUT
10
0
20
30.3825
0
VERTEX
8
CUT
10
14.25
20
31
0
VERTEX
8
CUT
10
0
20
31.6175
0
SEQEND
0
POLYLINE
8
CUT
66
1
70
0
0
VERTEX
8
CUT
10
15.75
20
31
0
VERTEX
8
CUT
10
30.75
20
30.35
0
VERTEX
8
CUT
10
45.75
20
31
0
VERTEX
8
CUT
10
30.75
20
31.65
0
VERTEX
8
CUT
10
15.75
20
31
0
SEQEND
0
POLYLINE
8
CUT
66
1
70
0
0
VERTEX
8
CUT
10
47.25
20
31
0
VERTEX
8
CUT
10
62.25
20
30.35
0
VERTEX
8
CUT
10
77.25
20
31
0
VERTEX
8
CUT
10
62.25
20
31.65
0
VERTEX
8
CUT
10
47.25
20
31
0
SEQEND
0
POLYLINE
8
CUT
66
1
70
0
0
VERTEX
8
CUT
10
78.75
20
31
0
VERTEX
8
CUT
10
93.75
20
30.35
0
VERTEX
8
CUT
10
108.75
20
31
0
VERTEX
8
CUT
10
93.75
20
31.65
0
VERTEX
8
CUT
10
78.75
20
31
0
SEQEND
0
LINE
8
CUT
10
110.25
20
31
11
120
21
30.5775
0
LINE
8
CUT
10
120
20
31.4225
11
110.25
21
31
0
POLYLINE
8
CUT
66
1
70
0
0
VERTEX
8
CUT
10
0
20
27
0
VERTEX
8
CUT
10
15
20
26.35
0
VERTEX
8
CUT
10
30
20
27
0
VERTEX
8
CUT
10
15
20
27.65
0
VERTEX
8
CUT
10
0
20
27
0
SEQEND
0
POLYLINE
8
CUT
66
1
70
0
0
VERTEX
8
CUT
10
31.5
20
27
0
VERTEX
8
CUT
10
46.5
20
26.35
0
VERTEX
8
CUT
10
61.5
20
27
0
VERTEX
8
CUT
10
46.5
20
27.65
0
VERTEX
8
CUT
10
31.5
20
27
0
SEQEND
0
POLYLINE
8
CUT
66
1
70
0
0
VERTEX
8
CUT
10
63
20
27
0
VERTEX
8
CUT
10
78
20
26.35
0
VERTEX
8
CUT
10
93
20
27
0
VERTEX
8
CUT
10
78
20
27.65
0
VERTEX
8
CUT
10
63
20
27
0
SEQEND
0
POLYLINE
8
CUT
66
1
70
0
0
VERTEX
8
CUT
10
94.5
20
27
0
VERTEX
8
CUT
10
109.5
20
26.35
0
VERTEX
8
CUT
10
120
20
26.805
0
SEQEND
0
POLYLINE
8
CUT
66
1
70
0
0
VERTEX
8
CUT
10
120
20
27.195
0
VERTEX
8
CUT
10
109.5
20
27.65
0
VERTEX
8
CUT
10
94.5
20
27
0
SEQEND
0
POLYLINE
8
CUT
66
1
70
0
0
VERTEX
8
CUT
10
0
20
22.3825
0
VERTEX
8
CUT
10
14.25
20
23
0
VERTEX
8
CUT
10
0
20
23.6175
0
SEQEND
0
POLYLINE
8
CUT
66
1
70
0
0
VERTEX
8
CUT
10
15.75
20
23
0
VERTEX
8
CUT
10
30.75
20
22.35
0
VERTEX
8
CUT
10
45.75
20
23
0
VERTEX
8
CUT
10
30.75
20
23.65
0
VERTEX
8
CUT
10
15.75
20
23
0
SEQEND
0
POLYLINE
8
CUT
66
1
70
0
0
VERTEX
8
CUT
10
47.25
20
23
0
VERTEX
8
CUT
10
62.25
20
22.35
0
VERTEX
8
CUT
10
77.25
20
23
0
VERTEX
8
CUT
10
62.25
20
23.65
0
VERTEX
8
CUT
10
47.25
20
23
0
SEQEND
0
POLYLINE
8
CUT
66
1
70
0
0
VERTEX
8
CUT
10
78.75
20
23
0
VERTEX
8
CUT
10
93.75
20
22.35
0
VERTEX
8
CUT
10
108.75
20
23
0
VERTEX
8
CUT
10
93.75
20
23.65
0
VERTEX
8
CUT
10
78.75
20
23
0
SEQEND
0
LINE
8
CUT
10
110.25
20
23
11
120
21
22.5775
0
LINE
8
CUT
10
120
20
23.4225
11
110.25
21
23
0
POLYLINE
8
CUT
66
1
70
0
0
VERTEX
8
CUT
10
0
20
19
0
VERTEX
8
CUT
10
15
20
18.35
0
VERTEX
8
CUT
10
30
20
19
0
VERTEX
8
CUT
10
15
20
19.65
0
VERTEX
8
CUT
10
0
20
19
0
SEQEND
0
POLYLINE
8
CUT
66
1
70
0
0
VERTEX
8
CUT
10
31.5
20
19
0
VERTEX
8
CUT
10
46.5
20
18.35
0
VERTEX
8
CUT
10
61.5
20
19
0
VERTEX
8
CUT
10
46.5
20
19.65
0
VERTEX
8
CUT
10
31.5
20
19
0
SEQEND
0
POLYLINE
8
CUT
66
1
70
0
0
VERTEX
8
CUT
10
63
20
19
0
VERTEX
8
CUT
10
78
20
18.35
0
VERTEX
8
CUT
10
93
20
19
0
VERTEX
8
CUT
10
78
20
19.65
0
VERTEX
8
CUT
10
63
20
19
0
SEQEND
0
POLYLINE
8
CUT
66
1
70
0
0
VERTEX
8
CUT
10
94.5
20
19
0
VERTEX
8
CUT
10
109.5
20
18.35
0
VERTEX
8
CUT
10
120
20
18.805
0
SEQEND
0
POLYLINE
8
CUT
66
1
70
0
0
VERTEX
8
CUT
10
120
20
19.195
0
VERTEX
8
CUT
10
109.5
20
19.65
0
VERTEX
8
CUT
10
94.5
20
19
0
SEQEND
0
POLYLINE
8
CUT
66
1
70
0
0
VERTEX
8
CUT
10
0
20
14.3825
0
VERTEX
8
CUT
10
14.25
20
15
0
VERTEX
8
CUT
10
0
20
15.6175
0
SEQEND
0
POLYLINE
8
CUT
66
1
70
0
0
VERTEX
8
CUT
10
15.75
20
15
0
VERTEX
8
CUT
10
30.75
20
14.35
0
VERTEX
8
CUT
10
45.75
20
15
0
VERTEX
8
CUT
10
30.75
20
15.65
0
VERTEX
8
CUT
10
15.75
20
15
0
SEQEND
0
POLYLINE
8
CUT
66
1
70
0
0
VERTEX
8
CUT
10
47.25
20
15
0
VERTEX
8
CUT
10
62.25
20
14.35
0
VERTEX
8
CUT
10
77.25
20
15
0
VERTEX
8
CUT
10
62.25
20
15.65
0
VERTEX
8
CUT
10
47.25
20
15
0
SEQEND
0
POLYLINE
8
CUT
66
1
70
0
0
VERTEX
8
CUT
10
78.75
20
15
0
VERTEX
8
CUT
10
93.75
20
14.35
0
VERTEX
8
CUT
10
108.75
20
15
0
VERTEX
8
CUT
10
93.75
20
15.65
0
VERTEX
8
CUT
10
78.75
20
15
0
SEQEND
0
LINE
8
CUT
10
110.25
20
15
11
120
21
14.5775
0
LINE
8
CUT
10
120
20
15.4225
11
110.25
21
15
0
POLYLINE
8
CUT
66
1
70
0
0
VERTEX
8
CUT
10
0
20
11
0
VERTEX
8
CUT
10
15
20
10.35
0
VERTEX
8
CUT
10
30
20
11
0
VERTEX
8
CUT
10
15
20
11.65
0
VERTEX
8
CUT
10
0
20
11
0
SEQEND
0
POLYLINE
8
CUT
66
1
70
0
0
VERTEX
8
CUT
10
31.5
20
11
0
VERTEX
8
CUT
10
46.5
20
10.35
0
VERTEX
8
CUT
10
61.5
20
11
0
VERTEX
8
CUT
10
46.5
20
11.65
0
VERTEX
8
CUT
10
31.5
20
11
0
SEQEND
0
POLYLINE
8
CUT
66
1
70
0
0
VERTEX
8
CUT
10
63
20
11
0
VERTEX
8
CUT
10
78
20
10.35
0
VERTEX
8
CUT
10
93
20
11
0
VERTEX
8
CUT
10
78
20
11.65
0
VERTEX
8
CUT
10
63
20
11
0
SEQEND
0
POLYLINE
8
CUT
66
1
70
0
0
VERTEX
8
CUT
10
94.5
20
11
0
VERTEX
8
CUT
10
109.5
20
10.35
0
VERTEX
8
CUT
10
120
20
10.805
0
SEQEND
0
POLYLINE
8
CUT
66
1
70
0
0
VERTEX
8
CUT
10
120
20
11.195
0
VERTEX
8
CUT
10
109.5
20
11.65
0
VERTEX
8
CUT
10
94.5
20
11
0
SEQEND
0
POLYLINE
8
CUT
66
1
70
0
0
VERTEX
8
CUT
10
0
20
6.3825
0
VERTEX
8
CUT
10
14.25
20
7
0
VERTEX
8
CUT
10
0
20
7.6175
0
SEQEND
0
POLYLINE
8
CUT
66
1
70
0
0
VERTEX
8
CUT
10
15.75
20
7
0
VERTEX
8
CUT
10
30.75
20
6.35
0
VERTEX
8
CUT
10
45.75
20
7
0
VERTEX
8
CUT
10
30.75
20
7.65
0
VERTEX
8
CUT
10
15.75
20
7
0
SEQEND
0
POLYLINE
8
CUT
66
1
70
0
0
VERTEX
8
CUT
10
47.25
20
7
0
VERTEX
8
CUT
10
62.25
20
6.35
0
VERTEX
8
CUT
10
77.25
20
7
0
VERTEX
8
CUT
10
62.25
20
7.65
0
VERTEX
8
CUT
10
47.25
20
7
0
SEQEND
0
POLYLINE
8
CUT
66
1
70
0
0
VERTEX
8
CUT
10
78.75
20
7
0
VERTEX
8
CUT
10
93.75
20
6.35
0
VERTEX
8
CUT
10
108.75
20
7
0
VERTEX
8
CUT
10
93.75
20
7.65
0
VERTEX
8
CUT
10
78.75
20
7
0
SEQEND
0
LINE
8
CUT
10
110.25
20
7
11
120
21
6.5775
0
LINE
8
CUT
10
120
20
7.4225
11
110.25
21
7
0
POLYLINE
8
CUT
66
1
70
0
0
VERTEX
8
CUT
10
0
20
3
0
VERTEX
8
CUT
10
15
20
2.35
0
VERTEX
8
CUT
10
30
20
3
0
VERTEX
8
CUT
10
15
20
3.65
0
VERTEX
8
CUT
10
0
20
3
0
SEQEND
0
POLYLINE
8
CUT
66
1
70
0
0
VERTEX
8
CUT
10
31.5
20
3
0
VERTEX
8
CUT
10
46.5
20
2.35
0
VERTEX
8
CUT
10
61.5
20
3
0
VERTEX
8
CUT
10
46.5
20
3.65
0
VERTEX
8
CUT
10
31.5
20
3
0
SEQEND
0
POLYLINE
8
CUT
66
1
70
0
0
VERTEX
8
CUT
10
63
20
3
0
VERTEX
8
CUT
10
78
20
2.35
0
VERTEX
8
CUT
10
93
20
3
0
VERTEX
8
CUT
10
78
20
3.65
0
VERTEX
8
CUT
10
63
20
3
0
SEQEND
0
POLYLINE
8
CUT
66
1
70
0
0
VERTEX
8
CUT
10
94.5
20
3
0
VERTEX
8
CUT
10
109.5
20
2.35
0
VERTEX
8
CUT
10
120
20
2.805
0
SEQEND
0
POLYLINE
8
CUT
66
1
70
0
0
VERTEX
8
CUT
10
120
20
3.195
0
VERTEX
8
CUT
10
109.5
20
3.65
0
VERTEX
8
CUT
10
94.5
20
3
0
SEQEND
0
POLYLINE
8
CUT
66
1
70
0
0
VERTEX
8
CUT
10
0
20
70
0
VERTEX
8
CUT
10
120
20
70
0
VERTEX
8
CUT
10
120
20
0
0
VERTEX
8
CUT
10
0
20
0
0
VERTEX
8
CUT
10
0
20
70
0
SEQEND
0
ENDSEC
0
EOF
