0
SECTION
2
HEADER
9
$ACADVER
1
AC1009
9
$INSUNITS
70
4
0
ENDSEC
0
SECTION
2
TABLES
0
TABLE
2
LAYER
70
1
0
LAYER
2
CUT
70
0
62
1
6
CONTINUOUS
0
ENDTAB
0
ENDSEC
0
SECTION
2
ENTITIES
0
POLYLINE
8
CUT
66
1
70
0
0
VERTEX
8
CUT
10
0
20
67
0
VERTEX
8
CUT
10
0.6
20
66.6673
0
VERTEX
8
CUT
10
1.8
20
66.0595
0
VERTEX
8
CUT
10
3
20
65.6144
0
VERTEX
8
CUT
10
4.2
20
65.4088
0
VERTEX
8
CUT
10
5.4
20
65.4783
0
VERTEX
8
CUT
10
6.6
20
65.811
0
VERTEX
8
CUT
10
7.8
20
66.3492
0
VERTEX
8
CUT
10
9
20
67
0
VERTEX
8
CUT
10
10.2
20
67.6508
0
VERTEX
8
CUT
10
11.4
20
68.189
0
VERTEX
8
CUT
10
12.6
20
68.5217
0
VERTEX
8
CUT
10
13.8
20
68.5912
0
VERTEX
8
CUT
10
15
20
68.3856
0
SEQEND
0
POLYLINE
8
CUT
66
1
70
0
0
VERTEX
8
CUT
10
16.5
20
67.8
0
VERTEX
8
CUT
10
17.7
20
67.1672
0
VERTEX
8
CUT
10
18.9
20
66.5056
0
VERTEX
8
CUT
10
20.1
20
65.9294
0
VERTEX
8
CUT
10
21.3
20
65.5383
0
VERTEX
8
CUT
10
22.5
20
65.4
0
VERTEX
8
CUT
10
23.7
20
65.5383
0
VERTEX
8
CUT
10
24.9
20
65.9294
0
VERTEX
8
CUT
10
26.1
20
66.5056
0
VERTEX
8
CUT
10
27.3
20
67.1672
0
VERTEX
8
CUT
10
28.5
20
67.8
0
VERTEX
8
CUT
10
29.7
20
68.2944
0
VERTEX
8
CUT
10
30.9
20
68.565
0
VERTEX
8
CUT
10
32.1
20
68.565
0
VERTEX
8
CUT
10
33.3
20
68.2944
0
VERTEX
8
CUT
10
34.5
20
67.8
0
VERTEX
8
CUT
10
35.7
20
67.1672
0
VERTEX
8
CUT
10
36.9
20
66.5056
0
VERTEX
8
CUT
10
38.1
20
65.9294
0
VERTEX
8
CUT
10
39.3
20
65.5383
0
VERTEX
8
CUT
10
40.5
20
65.4
0
VERTEX
8
CUT
10
41.7
20
65.5383
0
VERTEX
8
CUT
10
42.9
20
65.9294
0
VERTEX
8
CUT
10
44.1
20
66.5056
0
VERTEX
8
CUT
10
45.3
20
67.1672
0
VERTEX
8
CUT
10
46.5
20
67.8
0
SEQEND
0
POLYLINE
8
CUT
66
1
70
0
0
VERTEX
8
CUT
10
48
20
68.3856
0
VERTEX
8
CUT
10
49.2
20
68.5912
0
VERTEX
8
CUT
10
50.4
20
68.5217
0
VERTEX
8
CUT
10
51.6
20
68.189
0
VERTEX
8
CUT
10
52.8
20
67.6508
0
VERTEX
8
CUT
10
54
20
67
0
VERTEX
8
CUT
10
55.2
20
66.3492
0
VERTEX
8
CUT
10
56.4
20
65.811
0
VERTEX
8
CUT
10
57.6
20
65.4783
0
VERTEX
8
CUT
10
58.8
20
65.4088
0
VERTEX
8
CUT
10
60
20
65.6144
0
VERTEX
8
CUT
10
61.2
20
66.0595
0
VERTEX
8
CUT
10
62.4
20
66.6673
0
VERTEX
8
CUT
10
63.6
20
67.3327
0
VERTEX
8
CUT
10
64.8
20
67.9405
0
VERTEX
8
CUT
10
66
20
68.3856
0
VERTEX
8
CUT
10
67.2
20
68.5912
0
VERTEX
8
CUT
10
68.4
20
68.5217
0
VERTEX
8
CUT
10
69.6
20
68.189
0
VERTEX
8
CUT
10
70.8
20
67.6508
0
VERTEX
8
CUT
10
72
20
67
0
VERTEX
8
CUT
10
73.2
20
66.3492
0
VERTEX
8
CUT
10
74.4
20
65.811
0
VERTEX
8
CUT
10
75.6
20
65.4783
0
VERTEX
8
CUT
10
76.8
20
65.4088
0
VERTEX
8
CUT
10
78
20
65.6144
0
SEQEND
0
POLYLINE
8
CUT
66
1
70
0
0
VERTEX
8
CUT
10
79.5
20
66.2
0
VERTEX
8
CUT
10
80.7
20
66.8328
0
VERTEX
8
CUT
10
81.9
20
67.4944
0
VERTEX
8
CUT
10
83.1
20
68.0706
0
VERTEX
8
CUT
10
84.3
20
68.4617
0
VERTEX
8
CUT
10
85.5
20
68.6
0
VERTEX
8
CUT
10
86.7
20
68.4617
0
VERTEX
8
CUT
10
87.9
20
68.0706
0
VERTEX
8
CUT
10
89.1
20
67.4944
0
VERTEX
8
CUT
10
90.3
20
66.8328
0
VERTEX
8
CUT
10
91.5
20
66.2
0
VERTEX
8
CUT
10
92.7
20
65.7056
0
VERTEX
8
CUT
10
93.9
20
65.435
0
VERTEX
8
CUT
10
95.1
20
65.435
0
VERTEX
8
CUT
10
96.3
20
65.7056
0
VERTEX
8
CUT
10
97.5
20
66.2
0
VERTEX
8
CUT
10
98.7
20
66.8328
0
VERTEX
8
CUT
10
99.9
20
67.4944
0
VERTEX
8
CUT
10
101.1
20
68.0706
0
VERTEX
8
CUT
10
102.3
20
68.4617
0
VERTEX
8
CUT
10
103.5
20
68.6
0
VERTEX
8
CUT
10
104.7
20
68.4617
0
VERTEX
8
CUT
10
105.9
20
68.0706
0
VERTEX
8
CUT
10
107.1
20
67.4944
0
VERTEX
8
CUT
10
108.3
20
66.8328
0
VERTEX
8
CUT
10
109.5
20
66.2
0
SEQEND
0
POLYLINE
8
CUT
66
1
70
0
0
VERTEX
8
CUT
10
111
20
65.6144
0
VERTEX
8
CUT
10
112.2
20
65.4088
0
VERTEX
8
CUT
10
113.4
20
65.4783
0
VERTEX
8
CUT
10
114.6
20
65.811
0
VERTEX
8
CUT
10
115.8
20
66.3492
0
VERTEX
8
CUT
10
117
20
67
0
VERTEX
8
CUT
10
118.2
20
67.6508
0
VERTEX
8
CUT
10
119.4
20
68.189
0
VERTEX
8
CUT
10
120
20
68.3554
0
SEQEND
0
POLYLINE
8
CUT
66
1
70
0
0
VERTEX
8
CUT
10
0.75
20
62.5859
0
VERTEX
8
CUT
10
1.95
20
61.9931
0
VERTEX
8
CUT
10
3.15
20
61.5744
0
VERTEX
8
CUT
10
4.35
20
61.4022
0
VERTEX
8
CUT
10
5.55
20
61.5063
0
VERTEX
8
CUT
10
6.75
20
61.8686
0
VERTEX
8
CUT
10
7.95
20
62.4266
0
VERTEX
8
CUT
10
9.15
20
63.0837
0
VERTEX
8
CUT
10
10.35
20
63.7264
0
VERTEX
8
CUT
10
11.55
20
64.2434
0
VERTEX
8
CUT
10
12.75
20
64.5455
0
VERTEX
8
CUT
10
13.95
20
64.5803
0
VERTEX
8
CUT
10
15.15
20
64.3419
0
VERTEX
8
CUT
10
16.35
20
63.8714
0
VERTEX
8
CUT
10
17.55
20
63.2503
0
VERTEX
8
CUT
10
18.75
20
62.5859
0
VERTEX
8
CUT
10
19.95
20
61.9931
0
VERTEX
8
CUT
10
21.15
20
61.5744
0
VERTEX
8
CUT
10
22.35
20
61.4022
0
VERTEX
8
CUT
10
23.55
20
61.5063
0
VERTEX
8
CUT
10
24.75
20
61.8686
0
VERTEX
8
CUT
10
25.95
20
62.4266
0
VERTEX
8
CUT
10
27.15
20
63.0837
0
VERTEX
8
CUT
10
28.35
20
63.7264
0
VERTEX
8
CUT
10
29.55
20
64.2434
0
VERTEX
8
CUT
10
30.75
20
64.5455
0
SEQEND
0
POLYLINE
8
CUT
66
1
70
0
0
VERTEX
8
CUT
10
32.25
20
64.5455
0
VERTEX
8
CUT
10
33.45
20
64.2434
0
VERTEX
8
CUT
10
34.65
20
63.7264
0
VERTEX
8
CUT
10
35.85
20
63.0837
0
VERTEX
8
CUT
10
37.05
20
62.4266
0
VERTEX
8
CUT
10
38.25
20
61.8686
0
VERTEX
8
CUT
10
39.45
20
61.5063
0
VERTEX
8
CUT
10
40.65
20
61.4022
0
VERTEX
8
CUT
10
41.85
20
61.5744
0
VERTEX
8
CUT
10
43.05
20
61.9931
0
VERTEX
8
CUT
10
44.25
20
62.5859
0
VERTEX
8
CUT
10
45.45
20
63.2503
0
VERTEX
8
CUT
10
46.65
20
63.8714
0
VERTEX
8
CUT
10
47.85
20
64.3419
0
VERTEX
8
CUT
10
49.05
20
64.5803
0
VERTEX
8
CUT
10
50.25
20
64.5455
0
VERTEX
8
CUT
10
51.45
20
64.2434
0
VERTEX
8
CUT
10
52.65
20
63.7264
0
VERTEX
8
CUT
10
53.85
20
63.0837
0
VERTEX
8
CUT
10
55.05
20
62.4266
0
VERTEX
8
CUT
10
56.25
20
61.8686
0
VERTEX
8
CUT
10
57.45
20
61.5063
0
VERTEX
8
CUT
10
58.65
20
61.4022
0
VERTEX
8
CUT
10
59.85
20
61.5744
0
VERTEX
8
CUT
10
61.05
20
61.9931
0
VERTEX
8
CUT
10
62.25
20
62.5859
0
SEQEND
0
POLYLINE
8
CUT
66
1
70
0
0
VERTEX
8
CUT
10
63.75
20
63.4141
0
VERTEX
8
CUT
10
64.95
20
64.0069
0
VERTEX
8
CUT
10
66.15
20
64.4256
0
VERTEX
8
CUT
10
67.35
20
64.5978
0
VERTEX
8
CUT
10
68.55
20
64.4937
0
VERTEX
8
CUT
10
69.75
20
64.1314
0
VERTEX
8
CUT
10
70.95
20
63.5734
0
VERTEX
8
CUT
10
72.15
20
62.9163
0
VERTEX
8
CUT
10
73.35
20
62.2736
0
VERTEX
8
CUT
10
74.55
20
61.7566
0
VERTEX
8
CUT
10
75.75
20
61.4545
0
VERTEX
8
CUT
10
76.95
20
61.4197
0
VERTEX
8
CUT
10
78.15
20
61.6581
0
VERTEX
8
CUT
10
79.35
20
62.1286
0
VERTEX
8
CUT
10
80.55
20
62.7497
0
VERTEX
8
CUT
10
81.75
20
63.4141
0
VERTEX
8
CUT
10
82.95
20
64.0069
0
VERTEX
8
CUT
10
84.15
20
64.4256
0
VERTEX
8
CUT
10
85.35
20
64.5978
0
VERTEX
8
CUT
10
86.55
20
64.4937
0
VERTEX
8
CUT
10
87.75
20
64.1314
0
VERTEX
8
CUT
10
88.95
20
63.5734
0
VERTEX
8
CUT
10
90.15
20
62.9163
0
VERTEX
8
CUT
10
91.35
20
62.2736
0
VERTEX
8
CUT
10
92.55
20
61.7566
0
VERTEX
8
CUT
10
93.75
20
61.4545
0
SEQEND
0
POLYLINE
8
CUT
66
1
70
0
0
VERTEX
8
CUT
10
95.25
20
61.4545
0
VERTEX
8
CUT
10
96.45
20
61.7566
0
VERTEX
8
CUT
10
97.65
20
62.2736
0
VERTEX
8
CUT
10
98.85
20
62.9163
0
VERTEX
8
CUT
10
100.05
20
63.5734
0
VERTEX
8
CUT
10
101.25
20
64.1314
0
VERTEX
8
CUT
10
102.45
20
64.4937
0
VERTEX
8
CUT
10
103.65
20
64.5978
0
VERTEX
8
CUT
10
104.85
20
64.4256
0
VERTEX
8
CUT
10
106.05
20
64.0069
0
VERTEX
8
CUT
10
107.25
20
63.4141
0
VERTEX
8
CUT
10
108.45
20
62.7497
0
VERTEX
8
CUT
10
109.65
20
62.1286
0
VERTEX
8
CUT
10
110.85
20
61.6581
0
VERTEX
8
CUT
10
112.05
20
61.4197
0
VERTEX
8
CUT
10
113.25
20
61.4545
0
VERTEX
8
CUT
10
114.45
20
61.7566
0
VERTEX
8
CUT
10
115.65
20
62.2736
0
VERTEX
8
CUT
10
116.85
20
62.9163
0
VERTEX
8
CUT
10
118.05
20
63.5734
0
VERTEX
8
CUT
10
119.25
20
64.1314
0
VERTEX
8
CUT
10
120
20
64.3578
0
SEQEND
0
POLYLINE
8
CUT
66
1
70
0
0
VERTEX
8
CUT
10
0
20
59
0
VERTEX
8
CUT
10
0.6
20
58.6673
0
VERTEX
8
CUT
10
1.8
20
58.0595
0
VERTEX
8
CUT
10
3
20
57.6144
0
VERTEX
8
CUT
10
4.2
20
57.4088
0
VERTEX
8
CUT
10
5.4
20
57.4783
0
VERTEX
8
CUT
10
6.6
20
57.811
0
VERTEX
8
CUT
10
7.8
20
58.3492
0
VERTEX
8
CUT
10
9
20
59
0
VERTEX
8
CUT
10
10.2
20
59.6508
0
VERTEX
8
CUT
10
11.4
20
60.189
0
VERTEX
8
CUT
10
12.6
20
60.5217
0
VERTEX
8
CUT
10
13.8
20
60.5912
0
VERTEX
8
CUT
10
15
20
60.3856
0
SEQEND
0
POLYLINE
8
CUT
66
1
70
0
0
VERTEX
8
CUT
10
16.5
20
59.8
0
VERTEX
8
CUT
10
17.7
20
59.1672
0
VERTEX
8
CUT
10
18.9
20
58.5056
0
VERTEX
8
CUT
10
20.1
20
57.9294
0
VERTEX
8
CUT
10
21.3
20
57.5383
0
VERTEX
8
CUT
10
22.5
20
57.4
0
VERTEX
8
CUT
10
23.7
20
57.5383
0
VERTEX
8
CUT
10
24.9
20
57.9294
0
VERTEX
8
CUT
10
26.1
20
58.5056
0
VERTEX
8
CUT
10
27.3
20
59.1672
0
VERTEX
8
CUT
10
28.5
20
59.8
0
VERTEX
8
CUT
10
29.7
20
60.2944
0
VERTEX
8
CUT
10
30.9
20
60.565
0
VERTEX
8
CUT
10
32.1
20
60.565
0
VERTEX
8
CUT
10
33.3
20
60.2944
0
VERTEX
8
CUT
10
34.5
20
59.8
0
VERTEX
8
CUT
10
35.7
20
59.1672
0
VERTEX
8
CUT
10
36.9
20
58.5056
0
VERTEX
8
CUT
10
38.1
20
57.9294
0
VERTEX
8
CUT
10
39.3
20
57.5383
0
VERTEX
8
CUT
10
40.5
20
57.4
0
VERTEX
8
CUT
10
41.7
20
57.5383
0
VERTEX
8
CUT
10
42.9
20
57.9294
0
VERTEX
8
CUT
10
44.1
20
58.5056
0
VERTEX
8
CUT
10
45.3
20
59.1672
0
VERTEX
8
CUT
10
46.5
20
59.8
0
SEQEND
0
POLYLINE
8
CUT
66
1
70
0
0
VERTEX
8
CUT
10
48
20
60.3856
0
VERTEX
8
CUT
10
49.2
20
60.5912
0
VERTEX
8
CUT
10
50.4
20
60.5217
0
VERTEX
8
CUT
10
51.6
20
60.189
0
VERTEX
8
CUT
10
52.8
20
59.6508
0
VERTEX
8
CUT
10
54
20
59
0
VERTEX
8
CUT
10
55.2
20
58.3492
0
VERTEX
8
CUT
10
56.4
20
57.811
0
VERTEX
8
CUT
10
57.6
20
57.4783
0
VERTEX
8
CUT
10
58.8
20
57.4088
0
VERTEX
8
CUT
10
60
20
57.6144
0
VERTEX
8
CUT
10
61.2
20
58.0595
0
VERTEX
8
CUT
10
62.4
20
58.6673
0
VERTEX
8
CUT
10
63.6
20
59.3327
0
VERTEX
8
CUT
10
64.8
20
59.9405
0
VERTEX
8
CUT
10
66
20
60.3856
0
VERTEX
8
CUT
10
67.2
20
60.5912
0
VERTEX
8
CUT
10
68.4
20
60.5217
0
VERTEX
8
CUT
10
69.6
20
60.189
0
VERTEX
8
CUT
10
70.8
20
59.6508
0
VERTEX
8
CUT
10
72
20
59
0
VERTEX
8
CUT
10
73.2
20
58.3492
0
VERTEX
8
CUT
10
74.4
20
57.811
0
VERTEX
8
CUT
10
75.6
20
57.4783
0
VERTEX
8
CUT
10
76.8
20
57.4088
0
VERTEX
8
CUT
10
78
20
57.6144
0
SEQEND
0
POLYLINE
8
CUT
66
1
70
0
0
VERTEX
8
CUT
10
79.5
20
58.2
0
VERTEX
8
CUT
10
80.7
20
58.8328
0
VERTEX
8
CUT
10
81.9
20
59.4944
0
VERTEX
8
CUT
10
83.1
20
60.0706
0
VERTEX
8
CUT
10
84.3
20
60.4617
0
VERTEX
8
CUT
10
85.5
20
60.6
0
VERTEX
8
CUT
10
86.7
20
60.4617
0
VERTEX
8
CUT
10
87.9
20
60.0706
0
VERTEX
8
CUT
10
89.1
20
59.4944
0
VERTEX
8
CUT
10
90.3
20
58.8328
0
VERTEX
8
CUT
10
91.5
20
58.2
0
VERTEX
8
CUT
10
92.7
20
57.7056
0
VERTEX
8
CUT
10
93.9
20
57.435
0
VERTEX
8
CUT
10
95.1
20
57.435
0
VERTEX
8
CUT
10
96.3
20
57.7056
0
VERTEX
8
CUT
10
97.5
20
58.2
0
VERTEX
8
CUT
10
98.7
20
58.8328
0
VERTEX
8
CUT
10
99.9
20
59.4944
0
VERTEX
8
CUT
10
101.1
20
60.0706
0
VERTEX
8
CUT
10
102.3
20
60.4617
0
VERTEX
8
CUT
10
103.5
20
60.6
0
VERTEX
8
CUT
10
104.7
20
60.4617
0
VERTEX
8
CUT
10
105.9
20
60.0706
0
VERTEX
8
CUT
10
107.1
20
59.4944
0
VERTEX
8
CUT
10
108.3
20
58.8328
0
VERTEX
8
CUT
10
109.5
20
58.2
0
SEQEND
0
POLYLINE
8
CUT
66
1
70
0
0
VERTEX
8
CUT
10
111
20
57.6144
0
VERTEX
8
CUT
10
112.2
20
57.4088
0
VERTEX
8
CUT
10
113.4
20
57.4783
0
VERTEX
8
CUT
10
114.6
20
57.811
0
VERTEX
8
CUT
10
115.8
20
58.3492
0
VERTEX
8
CUT
10
117
20
59
0
VERTEX
8
CUT
10
118.2
20
59.6508
0
VERTEX
8
CUT
10
119.4
20
60.189
0
VERTEX
8
CUT
10
120
20
60.3554
0
SEQEND
0
POLYLINE
8
CUT
66
1
70
0
0
VERTEX
8
CUT
10
0.75
20
54.5859
0
VERTEX
8
CUT
10
1.95
20
53.9931
0
VERTEX
8
CUT
10
3.15
20
53.5744
0
VERTEX
8
CUT
10
4.35
20
53.4022
0
VERTEX
8
CUT
10
5.55
20
53.5063
0
VERTEX
8
CUT
10
6.75
20
53.8686
0
VERTEX
8
CUT
10
7.95
20
54.4266
0
VERTEX
8
CUT
10
9.15
20
55.0837
0
VERTEX
8
CUT
10
10.35
20
55.7264
0
VERTEX
8
CUT
10
11.55
20
56.2434
0
VERTEX
8
CUT
10
12.75
20
56.5455
0
VERTEX
8
CUT
10
13.95
20
56.5803
0
VERTEX
8
CUT
10
15.15
20
56.3419
0
VERTEX
8
CUT
10
16.35
20
55.8714
0
VERTEX
8
CUT
10
17.55
20
55.2503
0
VERTEX
8
CUT
10
18.75
20
54.5859
0
VERTEX
8
CUT
10
19.95
20
53.9931
0
VERTEX
8
CUT
10
21.15
20
53.5744
0
VERTEX
8
CUT
10
22.35
20
53.4022
0
VERTEX
8
CUT
10
23.55
20
53.5063
0
VERTEX
8
CUT
10
24.75
20
53.8686
0
VERTEX
8
CUT
10
25.95
20
54.4266
0
VERTEX
8
CUT
10
27.15
20
55.0837
0
VERTEX
8
CUT
10
28.35
20
55.7264
0
VERTEX
8
CUT
10
29.55
20
56.2434
0
VERTEX
8
CUT
10
30.75
20
56.5455
0
SEQEND
0
POLYLINE
8
CUT
66
1
70
0
0
VERTEX
8
CUT
10
32.25
20
56.5455
0
VERTEX
8
CUT
10
33.45
20
56.2434
0
VERTEX
8
CUT
10
34.65
20
55.7264
0
VERTEX
8
CUT
10
35.85
20
55.0837
0
VERTEX
8
CUT
10
37.05
20
54.4266
0
VERTEX
8
CUT
10
38.25
20
53.8686
0
VERTEX
8
CUT
10
39.45
20
53.5063
0
VERTEX
8
CUT
10
40.65
20
53.4022
0
VERTEX
8
CUT
10
41.85
20
53.5744
0
VERTEX
8
CUT
10
43.05
20
53.9931
0
VERTEX
8
CUT
10
44.25
20
54.5859
0
VERTEX
8
CUT
10
45.45
20
55.2503
0
VERTEX
8
CUT
10
46.65
20
55.8714
0
VERTEX
8
CUT
10
47.85
20
56.3419
0
VERTEX
8
CUT
10
49.05
20
56.5803
0
VERTEX
8
CUT
10
50.25
20
56.5455
0
VERTEX
8
CUT
10
51.45
20
56.2434
0
VERTEX
8
CUT
10
52.65
20
55.7264
0
VERTEX
8
CUT
10
53.85
20
55.0837
0
VERTEX
8
CUT
10
55.05
20
54.4266
0
VERTEX
8
CUT
10
56.25
20
53.8686
0
VERTEX
8
CUT
10
57.45
20
53.5063
0
VERTEX
8
CUT
10
58.65
20
53.4022
0
VERTEX
8
CUT
10
59.85
20
53.5744
0
VERTEX
8
CUT
10
61.05
20
53.9931
0
VERTEX
8
CUT
10
62.25
20
54.5859
0
SEQEND
0
POLYLINE
8
CUT
66
1
70
0
0
VERTEX
8
CUT
10
63.75
20
55.4141
0
VERTEX
8
CUT
10
64.95
20
56.0069
0
VERTEX
8
CUT
10
66.15
20
56.4256
0
VERTEX
8
CUT
10
67.35
20
56.5978
0
VERTEX
8
CUT
10
68.55
20
56.4937
0
VERTEX
8
CUT
10
69.75
20
56.1314
0
VERTEX
8
CUT
10
70.95
20
55.5734
0
VERTEX
8
CUT
10
72.15
20
54.9163
0
VERTEX
8
CUT
10
73.35
20
54.2736
0
VERTEX
8
CUT
10
74.55
20
53.7566
0
VERTEX
8
CUT
10
75.75
20
53.4545
0
VERTEX
8
CUT
10
76.95
20
53.4197
0
VERTEX
8
CUT
10
78.15
20
53.6581
0
VERTEX
8
CUT
10
79.35
20
54.1286
0
VERTEX
8
CUT
10
80.55
20
54.7497
0
VERTEX
8
CUT
10
81.75
20
55.4141
0
VERTEX
8
CUT
10
82.95
20
56.0069
0
VERTEX
8
CUT
10
84.15
20
56.4256
0
VERTEX
8
CUT
10
85.35
20
56.5978
0
VERTEX
8
CUT
10
86.55
20
56.4937
0
VERTEX
8
CUT
10
87.75
20
56.1314
0
VERTEX
8
CUT
10
88.95
20
55.5734
0
VERTEX
8
CUT
10
90.15
20
54.9163
0
VERTEX
8
CUT
10
91.35
20
54.2736
0
VERTEX
8
CUT
10
92.55
20
53.7566
0
VERTEX
8
CUT
10
93.75
20
53.4545
0
SEQEND
0
POLYLINE
8
CUT
66
1
70
0
0
VERTEX
8
CUT
10
95.25
20
53.4545
0
VERTEX
8
CUT
10
96.45
20
53.7566
0
VERTEX
8
CUT
10
97.65
20
54.2736
0
VERTEX
8
CUT
10
98.85
20
54.9163
0
VERTEX
8
CUT
10
100.05
20
55.5734
0
VERTEX
8
CUT
10
101.25
20
56.1314
0
VERTEX
8
CUT
10
102.45
20
56.4937
0
VERTEX
8
CUT
10
103.65
20
56.5978
0
VERTEX
8
CUT
10
104.85
20
56.4256
0
VERTEX
8
CUT
10
106.05
20
56.0069
0
VERTEX
8
CUT
10
107.25
20
55.4141
0
VERTEX
8
CUT
10
108.45
20
54.7497
0
VERTEX
8
CUT
10
109.65
20
54.1286
0
VERTEX
8
CUT
10
110.85
20
53.6581
0
VERTEX
8
CUT
10
112.05
20
53.4197
0
VERTEX
8
CUT
10
113.25
20
53.4545
0
VERTEX
8
CUT
10
114.45
20
53.7566
0
VERTEX
8
CUT
10
115.65
20
54.2736
0
VERTEX
8
CUT
10
116.85
20
54.9163
0
VERTEX
8
CUT
10
118.05
20
55.5734
0
VERTEX
8
CUT
10
119.25
20
56.1314
0
VERTEX
8
CUT
10
120
20
56.3578
0
SEQEND
0
POLYLINE
8
CUT
66
1
70
0
0
VERTEX
8
CUT
10
0
20
51
0
VERTEX
8
CUT
10
0.6
20
50.6673
0
VERTEX
8
CUT
10
1.8
20
50.0595
0
VERTEX
8
CUT
10
3
20
49.6144
0
VERTEX
8
CUT
10
4.2
20
49.4088
0
VERTEX
8
CUT
10
5.4
20
49.4783
0
VERTEX
8
CUT
10
6.6
20
49.811
0
VERTEX
8
CUT
10
7.8
20
50.3492
0
VERTEX
8
CUT
10
9
20
51
0
VERTEX
8
CUT
10
10.2
20
51.6508
0
VERTEX
8
CUT
10
11.4
20
52.189
0
VERTEX
8
CUT
10
12.6
20
52.5217
0
VERTEX
8
CUT
10
13.8
20
52.5912
0
VERTEX
8
CUT
10
15
20
52.3856
0
SEQEND
0
POLYLINE
8
CUT
66
1
70
0
0
VERTEX
8
CUT
10
16.5
20
51.8
0
VERTEX
8
CUT
10
17.7
20
51.1672
0
VERTEX
8
CUT
10
18.9
20
50.5056
0
VERTEX
8
CUT
10
20.1
20
49.9294
0
VERTEX
8
CUT
10
21.3
20
49.5383
0
VERTEX
8
CUT
10
22.5
20
49.4
0
VERTEX
8
CUT
10
23.7
20
49.5383
0
VERTEX
8
CUT
10
24.9
20
49.9294
0
VERTEX
8
CUT
10
26.1
20
50.5056
0
VERTEX
8
CUT
10
27.3
20
51.1672
0
VERTEX
8
CUT
10
28.5
20
51.8
0
VERTEX
8
CUT
10
29.7
20
52.2944
0
VERTEX
8
CUT
10
30.9
20
52.565
0
VERTEX
8
CUT
10
32.1
20
52.565
0
VERTEX
8
CUT
10
33.3
20
52.2944
0
VERTEX
8
CUT
10
34.5
20
51.8
0
VERTEX
8
CUT
10
35.7
20
51.1672
0
VERTEX
8
CUT
10
36.9
20
50.5056
0
VERTEX
8
CUT
10
38.1
20
49.9294
0
VERTEX
8
CUT
10
39.3
20
49.5383
0
VERTEX
8
CUT
10
40.5
20
49.4
0
VERTEX
8
CUT
10
41.7
20
49.5383
0
VERTEX
8
CUT
10
42.9
20
49.9294
0
VERTEX
8
CUT
10
44.1
20
50.5056
0
VERTEX
8
CUT
10
45.3
20
51.1672
0
VERTEX
8
CUT
10
46.5
20
51.8
0
SEQEND
0
POLYLINE
8
CUT
66
1
70
0
0
VERTEX
8
CUT
10
48
20
52.3856
0
VERTEX
8
CUT
10
49.2
20
52.5912
0
VERTEX
8
CUT
10
50.4
20
52.5217
0
VERTEX
8
CUT
10
51.6
20
52.189
0
VERTEX
8
CUT
10
52.8
20
51.6508
0
VERTEX
8
CUT
10
54
20
51
0
VERTEX
8
CUT
10
55.2
20
50.3492
0
VERTEX
8
CUT
10
56.4
20
49.811
0
VERTEX
8
CUT
10
57.6
20
49.4783
0
VERTEX
8
CUT
10
58.8
20
49.4088
0
VERTEX
8
CUT
10
60
20
49.6144
0
VERTEX
8
CUT
10
61.2
20
50.0595
0
VERTEX
8
CUT
10
62.4
20
50.6673
0
VERTEX
8
CUT
10
63.6
20
51.3327
0
VERTEX
8
CUT
10
64.8
20
51.9405
0
VERTEX
8
CUT
10
66
20
52.3856
0
VERTEX
8
CUT
10
67.2
20
52.5912
0
VERTEX
8
CUT
10
68.4
20
52.5217
0
VERTEX
8
CUT
10
69.6
20
52.189
0
VERTEX
8
CUT
10
70.8
20
51.6508
0
VERTEX
8
CUT
10
72
20
51
0
VERTEX
8
CUT
10
73.2
20
50.3492
0
VERTEX
8
CUT
10
74.4
20
49.811
0
VERTEX
8
CUT
10
75.6
20
49.4783
0
VERTEX
8
CUT
10
76.8
20
49.4088
0
VERTEX
8
CUT
10
78
20
49.6144
0
SEQEND
0
POLYLINE
8
CUT
66
1
70
0
0
VERTEX
8
CUT
10
79.5
20
50.2
0
VERTEX
8
CUT
10
80.7
20
50.8328
0
VERTEX
8
CUT
10
81.9
20
51.4944
0
VERTEX
8
CUT
10
83.1
20
52.0706
0
VERTEX
8
CUT
10
84.3
20
52.4617
0
VERTEX
8
CUT
10
85.5
20
52.6
0
VERTEX
8
CUT
10
86.7
20
52.4617
0
VERTEX
8
CUT
10
87.9
20
52.0706
0
VERTEX
8
CUT
10
89.1
20
51.4944
0
VERTEX
8
CUT
10
90.3
20
50.8328
0
VERTEX
8
CUT
10
91.5
20
50.2
0
VERTEX
8
CUT
10
92.7
20
49.7056
0
VERTEX
8
CUT
10
93.9
20
49.435
0
VERTEX
8
CUT
10
95.1
20
49.435
0
VERTEX
8
CUT
10
96.3
20
49.7056
0
VERTEX
8
CUT
10
97.5
20
50.2
0
VERTEX
8
CUT
10
98.7
20
50.8328
0
VERTEX
8
CUT
10
99.9
20
51.4944
0
VERTEX
8
CUT
10
101.1
20
52.0706
0
VERTEX
8
CUT
10
102.3
20
52.4617
0
VERTEX
8
CUT
10
103.5
20
52.6
0
VERTEX
8
CUT
10
104.7
20
52.4617
0
VERTEX
8
CUT
10
105.9
20
52.0706
0
VERTEX
8
CUT
10
107.1
20
51.4944
0
VERTEX
8
CUT
10
108.3
20
50.8328
0
VERTEX
8
CUT
10
109.5
20
50.2
0
SEQEND
0
POLYLINE
8
CUT
66
1
70
0
0
VERTEX
8
CUT
10
111
20
49.6144
0
VERTEX
8
CUT
10
112.2
20
49.4088
0
VERTEX
8
CUT
10
113.4
20
49.4783
0
VERTEX
8
CUT
10
114.6
20
49.811
0
VERTEX
8
CUT
10
115.8
20
50.3492
0
VERTEX
8
CUT
10
117
20
51
0
VERTEX
8
CUT
10
118.2
20
51.6508
0
VERTEX
8
CUT
10
119.4
20
52.189
0
VERTEX
8
CUT
10
120
20
52.3554
0
SEQEND
0
POLYLINE
8
CUT
66
1
70
0
0
VERTEX
8
CUT
10
0.75
20
46.5859
0
VERTEX
8
CUT
10
1.95
20
45.9931
0
VERTEX
8
CUT
10
3.15
20
45.5744
0
VERTEX
8
CUT
10
4.35
20
45.4022
0
VERTEX
8
CUT
10
5.55
20
45.5063
0
VERTEX
8
CUT
10
6.75
20
45.8686
0
VERTEX
8
CUT
10
7.95
20
46.4266
0
VERTEX
8
CUT
10
9.15
20
47.0837
0
VERTEX
8
CUT
10
10.35
20
47.7264
0
VERTEX
8
CUT
10
11.55
20
48.2434
0
VERTEX
8
CUT
10
12.75
20
48.5455
0
VERTEX
8
CUT
10
13.95
20
48.5803
0
VERTEX
8
CUT
10
15.15
20
48.3419
0
VERTEX
8
CUT
10
16.35
20
47.8714
0
VERTEX
8
CUT
10
17.55
20
47.2503
0
VERTEX
8
CUT
10
18.75
20
46.5859
0
VERTEX
8
CUT
10
19.95
20
45.9931
0
VERTEX
8
CUT
10
21.15
20
45.5744
0
VERTEX
8
CUT
10
22.35
20
45.4022
0
VERTEX
8
CUT
10
23.55
20
45.5063
0
VERTEX
8
CUT
10
24.75
20
45.8686
0
VERTEX
8
CUT
10
25.95
20
46.4266
0
VERTEX
8
CUT
10
27.15
20
47.0837
0
VERTEX
8
CUT
10
28.35
20
47.7264
0
VERTEX
8
CUT
10
29.55
20
48.2434
0
VERTEX
8
CUT
10
30.75
20
48.5455
0
SEQEND
0
POLYLINE
8
CUT
66
1
70
0
0
VERTEX
8
CUT
10
32.25
20
48.5455
0
VERTEX
8
CUT
10
33.45
20
48.2434
0
VERTEX
8
CUT
10
34.65
20
47.7264
0
VERTEX
8
CUT
10
35.85
20
47.0837
0
VERTEX
8
CUT
10
37.05
20
46.4266
0
VERTEX
8
CUT
10
38.25
20
45.8686
0
VERTEX
8
CUT
10
39.45
20
45.5063
0
VERTEX
8
CUT
10
40.65
20
45.4022
0
VERTEX
8
CUT
10
41.85
20
45.5744
0
VERTEX
8
CUT
10
43.05
20
45.9931
0
VERTEX
8
CUT
10
44.25
20
46.5859
0
VERTEX
8
CUT
10
45.45
20
47.2503
0
VERTEX
8
CUT
10
46.65
20
47.8714
0
VERTEX
8
CUT
10
47.85
20
48.3419
0
VERTEX
8
CUT
10
49.05
20
48.5803
0
VERTEX
8
CUT
10
50.25
20
48.5455
0
VERTEX
8
CUT
10
51.45
20
48.2434
0
VERTEX
8
CUT
10
52.65
20
47.7264
0
VERTEX
8
CUT
10
53.85
20
47.0837
0
VERTEX
8
CUT
10
55.05
20
46.4266
0
VERTEX
8
CUT
10
56.25
20
45.8686
0
VERTEX
8
CUT
10
57.45
20
45.5063
0
VERTEX
8
CUT
10
58.65
20
45.4022
0
VERTEX
8
CUT
10
59.85
20
45.5744
0
VERTEX
8
CUT
10
61.05
20
45.9931
0
VERTEX
8
CUT
10
62.25
20
46.5859
0
SEQEND
0
POLYLINE
8
CUT
66
1
70
0
0
VERTEX
8
CUT
10
63.75
20
47.4141
0
VERTEX
8
CUT
10
64.95
20
48.0069
0
VERTEX
8
CUT
10
66.15
20
48.4256
0
VERTEX
8
CUT
10
67.35
20
48.5978
0
VERTEX
8
CUT
10
68.55
20
48.4937
0
VERTEX
8
CUT
10
69.75
20
48.1314
0
VERTEX
8
CUT
10
70.95
20
47.5734
0
VERTEX
8
CUT
10
72.15
20
46.9163
0
VERTEX
8
CUT
10
73.35
20
46.2736
0
VERTEX
8
CUT
10
74.55
20
45.7566
0
VERTEX
8
CUT
10
75.75
20
45.4545
0
VERTEX
8
CUT
10
76.95
20
45.4197
0
VERTEX
8
CUT
10
78.15
20
45.6581
0
VERTEX
8
CUT
10
79.35
20
46.1286
0
VERTEX
8
CUT
10
80.55
20
46.7497
0
VERTEX
8
CUT
10
81.75
20
47.4141
0
VERTEX
8
CUT
10
82.95
20
48.0069
0
VERTEX
8
CUT
10
84.15
20
48.4256
0
VERTEX
8
CUT
10
85.35
20
48.5978
0
VERTEX
8
CUT
10
86.55
20
48.4937
0
VERTEX
8
CUT
10
87.75
20
48.1314
0
VERTEX
8
CUT
10
88.95
20
47.5734
0
VERTEX
8
CUT
10
90.15
20
46.9163
0
VERTEX
8
CUT
10
91.35
20
46.2736
0
VERTEX
8
CUT
10
92.55
20
45.7566
0
VERTEX
8
CUT
10
93.75
20
45.4545
0
SEQEND
0
POLYLINE
8
CUT
66
1
70
0
0
VERTEX
8
CUT
10
95.25
20
45.4545
0
VERTEX
8
CUT
10
96.45
20
45.7566
0
VERTEX
8
CUT
10
97.65
20
46.2736
0
VERTEX
8
CUT
10
98.85
20
46.9163
0
VERTEX
8
CUT
10
100.05
20
47.5734
0
VERTEX
8
CUT
10
101.25
20
48.1314
0
VERTEX
8
CUT
10
102.45
20
48.4937
0
VERTEX
8
CUT
10
103.65
20
48.5978
0
VERTEX
8
CUT
10
104.85
20
48.4256
0
VERTEX
8
CUT
10
106.05
20
48.0069
0
VERTEX
8
CUT
10
107.25
20
47.4141
0
VERTEX
8
CUT
10
108.45
20
46.7497
0
VERTEX
8
CUT
10
109.65
20
46.1286
0
VERTEX
8
CUT
10
110.85
20
45.6581
0
VERTEX
8
CUT
10
112.05
20
45.4197
0
VERTEX
8
CUT
10
113.25
20
45.4545
0
VERTEX
8
CUT
10
114.45
20
45.7566
0
VERTEX
8
CUT
10
115.65
20
46.2736
0
VERTEX
8
CUT
10
116.85
20
46.9163
0
VERTEX
8
CUT
10
118.05
20
47.5734
0
VERTEX
8
CUT
10
119.25
20
48.1314
0
VERTEX
8
CUT
10
120
20
48.3578
0
SEQEND
0
POLYLINE
8
CUT
66
1
70
0
0
VERTEX
8
CUT
10
0
20
43
0
VERTEX
8
CUT
10
0.6
20
42.6673
0
VERTEX
8
CUT
10
1.8
20
42.0595
0
VERTEX
8
CUT
10
3
20
41.6144
0
VERTEX
8
CUT
10
4.2
20
41.4088
0
VERTEX
8
CUT
10
5.4
20
41.4783
0
VERTEX
8
CUT
10
6.6
20
41.811
0
VERTEX
8
CUT
10
7.8
20
42.3492
0
VERTEX
8
CUT
10
9
20
43
0
VERTEX
8
CUT
10
10.2
20
43.6508
0
VERTEX
8
CUT
10
11.4
20
44.189
0
VERTEX
8
CUT
10
12.6
20
44.5217
0
VERTEX
8
CUT
10
13.8
20
44.5912
0
VERTEX
8
CUT
10
15
20
44.3856
0
SEQEND
0
POLYLINE
8
CUT
66
1
70
0
0
VERTEX
8
CUT
10
16.5
20
43.8
0
VERTEX
8
CUT
10
17.7
20
43.1672
0
VERTEX
8
CUT
10
18.9
20
42.5056
0
VERTEX
8
CUT
10
20.1
20
41.9294
0
VERTEX
8
CUT
10
21.3
20
41.5383
0
VERTEX
8
CUT
10
22.5
20
41.4
0
VERTEX
8
CUT
10
23.7
20
41.5383
0
VERTEX
8
CUT
10
24.9
20
41.9294
0
VERTEX
8
CUT
10
26.1
20
42.5056
0
VERTEX
8
CUT
10
27.3
20
43.1672
0
VERTEX
8
CUT
10
28.5
20
43.8
0
VERTEX
8
CUT
10
29.7
20
44.2944
0
VERTEX
8
CUT
10
30.9
20
44.565
0
VERTEX
8
CUT
10
32.1
20
44.565
0
VERTEX
8
CUT
10
33.3
20
44.2944
0
VERTEX
8
CUT
10
34.5
20
43.8
0
VERTEX
8
CUT
10
35.7
20
43.1672
0
VERTEX
8
CUT
10
36.9
20
42.5056
0
VERTEX
8
CUT
10
38.1
20
41.9294
0
VERTEX
8
CUT
10
39.3
20
41.5383
0
VERTEX
8
CUT
10
40.5
20
41.4
0
VERTEX
8
CUT
10
41.7
20
41.5383
0
VERTEX
8
CUT
10
42.9
20
41.9294
0
VERTEX
8
CUT
10
44.1
20
42.5056
0
VERTEX
8
CUT
10
45.3
20
43.1672
0
VERTEX
8
CUT
10
46.5
20
43.8
0
SEQEND
0
POLYLINE
8
CUT
66
1
70
0
0
VERTEX
8
CUT
10
48
20
44.3856
0
VERTEX
8
CUT
10
49.2
20
44.5912
0
VERTEX
8
CUT
10
50.4
20
44.5217
0
VERTEX
8
CUT
10
51.6
20
44.189
0
VERTEX
8
CUT
10
52.8
20
43.6508
0
VERTEX
8
CUT
10
54
20
43
0
VERTEX
8
CUT
10
55.2
20
42.3492
0
VERTEX
8
CUT
10
56.4
20
41.811
0
VERTEX
8
CUT
10
57.6
20
41.4783
0
VERTEX
8
CUT
10
58.8
20
41.4088
0
VERTEX
8
CUT
10
60
20
41.6144
0
VERTEX
8
CUT
10
61.2
20
42.0595
0
VERTEX
8
CUT
10
62.4
20
42.6673
0
VERTEX
8
CUT
10
63.6
20
43.3327
0
VERTEX
8
CUT
10
64.8
20
43.9405
0
VERTEX
8
CUT
10
66
20
44.3856
0
VERTEX
8
CUT
10
67.2
20
44.5912
0
VERTEX
8
CUT
10
68.4
20
44.5217
0
VERTEX
8
CUT
10
69.6
20
44.189
0
VERTEX
8
CUT
10
70.8
20
43.6508
0
VERTEX
8
CUT
10
72
20
43
0
VERTEX
8
CUT
10
73.2
20
42.3492
0
VERTEX
8
CUT
10
74.4
20
41.811
0
VERTEX
8
CUT
10
75.6
20
41.4783
0
VERTEX
8
CUT
10
76.8
20
41.4088
0
VERTEX
8
CUT
10
78
20
41.6144
0
SEQEND
0
POLYLINE
8
CUT
66
1
70
0
0
VERTEX
8
CUT
10
79.5
20
42.2
0
VERTEX
8
CUT
10
80.7
20
42.8328
0
VERTEX
8
CUT
10
81.9
20
43.4944
0
VERTEX
8
CUT
10
83.1
20
44.0706
0
VERTEX
8
CUT
10
84.3
20
44.4617
0
VERTEX
8
CUT
10
85.5
20
44.6
0
VERTEX
8
CUT
10
86.7
20
44.4617
0
VERTEX
8
CUT
10
87.9
20
44.0706
0
VERTEX
8
CUT
10
89.1
20
43.4944
0
VERTEX
8
CUT
10
90.3
20
42.8328
0
VERTEX
8
CUT
10
91.5
20
42.2
0
VERTEX
8
CUT
10
92.7
20
41.7056
0
VERTEX
8
CUT
10
93.9
20
41.435
0
VERTEX
8
CUT
10
95.1
20
41.435
0
VERTEX
8
CUT
10
96.3
20
41.7056
0
VERTEX
8
CUT
10
97.5
20
42.2
0
VERTEX
8
CUT
10
98.7
20
42.8328
0
VERTEX
8
CUT
10
99.9
20
43.4944
0
VERTEX
8
CUT
10
101.1
20
44.0706
0
VERTEX
8
CUT
10
102.3
20
44.4617
0
VERTEX
8
CUT
10
103.5
20
44.6
0
VERTEX
8
CUT
10
104.7
20
44.4617
0
VERTEX
8
CUT
10
105.9
20
44.0706
0
VERTEX
8
CUT
10
107.1
20
43.4944
0
VERTEX
8
CUT
10
108.3
20
42.8328
0
VERTEX
8
CUT
10
109.5
20
42.2
0
SEQEND
0
POLYLINE
8
CUT
66
1
70
0
0
VERTEX
8
CUT
10
111
20
41.6144
0
VERTEX
8
CUT
10
112.2
20
41.4088
0
VERTEX
8
CUT
10
113.4
20
41.4783
0
VERTEX
8
CUT
10
114.6
20
41.811
0
VERTEX
8
CUT
10
115.8
20
42.3492
0
VERTEX
8
CUT
10
117
20
43
0
VERTEX
8
CUT
10
118.2
20
43.6508
0
VERTEX
8
CUT
10
119.4
20
44.189
0
VERTEX
8
CUT
10
120
20
44.3554
0
SEQEND
0
POLYLINE
8
CUT
66
1
70
0
0
VERTEX
8
CUT
10
0.75
20
38.5859
0
VERTEX
8
CUT
10
1.95
20
37.9931
0
VERTEX
8
CUT
10
3.15
20
37.5744
0
VERTEX
8
CUT
10
4.35
20
37.4022
0
VERTEX
8
CUT
10
5.55
20
37.5063
0
VERTEX
8
CUT
10
6.75
20
37.8686
0
VERTEX
8
CUT
10
7.95
20
38.4266
0
VERTEX
8
CUT
10
9.15
20
39.0837
0
VERTEX
8
CUT
10
10.35
20
39.7264
0
VERTEX
8
CUT
10
11.55
20
40.2434
0
VERTEX
8
CUT
10
12.75
20
40.5455
0
VERTEX
8
CUT
10
13.95
20
40.5803
0
VERTEX
8
CUT
10
15.15
20
40.3419
0
VERTEX
8
CUT
10
16.35
20
39.8714
0
VERTEX
8
CUT
10
17.55
20
39.2503
0
VERTEX
8
CUT
10
18.75
20
38.5859
0
VERTEX
8
CUT
10
19.95
20
37.9931
0
VERTEX
8
CUT
10
21.15
20
37.5744
0
VERTEX
8
CUT
10
22.35
20
37.4022
0
VERTEX
8
CUT
10
23.55
20
37.5063
0
VERTEX
8
CUT
10
24.75
20
37.8686
0
VERTEX
8
CUT
10
25.95
20
38.4266
0
VERTEX
8
CUT
10
27.15
20
39.0837
0
VERTEX
8
CUT
10
28.35
20
39.7264
0
VERTEX
8
CUT
10
29.55
20
40.2434
0
VERTEX
8
CUT
10
30.75
20
40.5455
0
SEQEND
0
POLYLINE
8
CUT
66
1
70
0
0
VERTEX
8
CUT
10
32.25
20
40.5455
0
VERTEX
8
CUT
10
33.45
20
40.2434
0
VERTEX
8
CUT
10
34.65
20
39.7264
0
VERTEX
8
CUT
10
35.85
20
39.0837
0
VERTEX
8
CUT
10
37.05
20
38.4266
0
VERTEX
8
CUT
10
38.25
20
37.8686
0
VERTEX
8
CUT
10
39.45
20
37.5063
0
VERTEX
8
CUT
10
40.65
20
37.4022
0
VERTEX
8
CUT
10
41.85
20
37.5744
0
VERTEX
8
CUT
10
43.05
20
37.9931
0
VERTEX
8
CUT
10
44.25
20
38.5859
0
VERTEX
8
CUT
10
45.45
20
39.2503
0
VERTEX
8
CUT
10
46.65
20
39.8714
0
VERTEX
8
CUT
10
47.85
20
40.3419
0
VERTEX
8
CUT
10
49.05
20
40.5803
0
VERTEX
8
CUT
10
50.25
20
40.5455
0
VERTEX
8
CUT
10
51.45
20
40.2434
0
VERTEX
8
CUT
10
52.65
20
39.7264
0
VERTEX
8
CUT
10
53.85
20
39.0837
0
VERTEX
8
CUT
10
55.05
20
38.4266
0
VERTEX
8
CUT
10
56.25
20
37.8686
0
VERTEX
8
CUT
10
57.45
20
37.5063
0
VERTEX
8
CUT
10
58.65
20
37.4022
0
VERTEX
8
CUT
10
59.85
20
37.5744
0
VERTEX
8
CUT
10
61.05
20
37.9931
0
VERTEX
8
CUT
10
62.25
20
38.5859
0
SEQEND
0
POLYLINE
8
CUT
66
1
70
0
0
VERTEX
8
CUT
10
63.75
20
39.4141
0
VERTEX
8
CUT
10
64.95
20
40.0069
0
VERTEX
8
CUT
10
66.15
20
40.4256
0
VERTEX
8
CUT
10
67.35
20
40.5978
0
VERTEX
8
CUT
10
68.55
20
40.4937
0
VERTEX
8
CUT
10
69.75
20
40.1314
0
VERTEX
8
CUT
10
70.95
20
39.5734
0
VERTEX
8
CUT
10
72.15
20
38.9163
0
VERTEX
8
CUT
10
73.35
20
38.2736
0
VERTEX
8
CUT
10
74.55
20
37.7566
0
VERTEX
8
CUT
10
75.75
20
37.4545
0
VERTEX
8
CUT
10
76.95
20
37.4197
0
VERTEX
8
CUT
10
78.15
20
37.6581
0
VERTEX
8
CUT
10
79.35
20
38.1286
0
VERTEX
8
CUT
10
80.55
20
38.7497
0
VERTEX
8
CUT
10
81.75
20
39.4141
0
VERTEX
8
CUT
10
82.95
20
40.0069
0
VERTEX
8
CUT
10
84.15
20
40.4256
0
VERTEX
8
CUT
10
85.35
20
40.5978
0
VERTEX
8
CUT
10
86.55
20
40.4937
0
VERTEX
8
CUT
10
87.75
20
40.1314
0
VERTEX
8
CUT
10
88.95
20
39.5734
0
VERTEX
8
CUT
10
90.15
20
38.9163
0
VERTEX
8
CUT
10
91.35
20
38.2736
0
VERTEX
8
CUT
10
92.55
20
37.7566
0
VERTEX
8
CUT
10
93.75
20
37.4545
0
SEQEND
0
POLYLINE
8
CUT
66
1
70
0
0
VERTEX
8
CUT
10
95.25
20
37.4545
0
VERTEX
8
CUT
10
96.45
20
37.7566
0
VERTEX
8
CUT
10
97.65
20
38.2736
0
VERTEX
8
CUT
10
98.85
20
38.9163
0
VERTEX
8
CUT
10
100.05
20
39.5734
0
VERTEX
8
CUT
10
101.25
20
40.1314
0
VERTEX
8
CUT
10
102.45
20
40.4937
0
VERTEX
8
CUT
10
103.65
20
40.5978
0
VERTEX
8
CUT
10
104.85
20
40.4256
0
VERTEX
8
CUT
10
106.05
20
40.0069
0
VERTEX
8
CUT
10
107.25
20
39.4141
0
VERTEX
8
CUT
10
108.45
20
38.7497
0
VERTEX
8
CUT
10
109.65
20
38.1286
0
VERTEX
8
CUT
10
110.85
20
37.6581
0
VERTEX
8
CUT
10
112.05
20
37.4197
0
VERTEX
8
CUT
10
113.25
20
37.4545
0
VERTEX
8
CUT
10
114.45
20
37.7566
0
VERTEX
8
CUT
10
115.65
20
38.2736
0
VERTEX
8
CUT
10
116.85
20
38.9163
0
VERTEX
8
CUT
10
118.05
20
39.5734
0
VERTEX
8
CUT
10
119.25
20
40.1314
0
VERTEX
8
CUT
10
120
20
40.3578
0
SEQEND
0
POLYLINE
8
CUT
66
1
70
0
0
VERTEX
8
CUT
10
0
20
35
0
VERTEX
8
CUT
10
0.6
20
34.6673
0
VERTEX
8
CUT
10
1.8
20
34.0595
0
VERTEX
8
CUT
10
3
20
33.6144
0
VERTEX
8
CUT
10
4.2
20
33.4088
0
VERTEX
8
CUT
10
5.4
20
33.4783
0
VERTEX
8
CUT
10
6.6
20
33.811
0
VERTEX
8
CUT
10
7.8
20
34.3492
0
VERTEX
8
CUT
10
9
20
35
0
VERTEX
8
CUT
10
10.2
20
35.6508
0
VERTEX
8
CUT
10
11.4
20
36.189
0
VERTEX
8
CUT
10
12.6
20
36.5217
0
VERTEX
8
CUT
10
13.8
20
36.5912
0
VERTEX
8
CUT
10
15
20
36.3856
0
SEQEND
0
POLYLINE
8
CUT
66
1
70
0
0
VERTEX
8
CUT
10
16.5
20
35.8
0
VERTEX
8
CUT
10
17.7
20
35.1672
0
VERTEX
8
CUT
10
18.9
20
34.5056
0
VERTEX
8
CUT
10
20.1
20
33.9294
0
VERTEX
8
CUT
10
21.3
20
33.5383
0
VERTEX
8
CUT
10
22.5
20
33.4
0
VERTEX
8
CUT
10
23.7
20
33.5383
0
VERTEX
8
CUT
10
24.9
20
33.9294
0
VERTEX
8
CUT
10
26.1
20
34.5056
0
VERTEX
8
CUT
10
27.3
20
35.1672
0
VERTEX
8
CUT
10
28.5
20
35.8
0
VERTEX
8
CUT
10
29.7
20
36.2944
0
VERTEX
8
CUT
10
30.9
20
36.565
0
VERTEX
8
CUT
10
32.1
20
36.565
0
VERTEX
8
CUT
10
33.3
20
36.2944
0
VERTEX
8
CUT
10
34.5
20
35.8
0
VERTEX
8
CUT
10
35.7
20
35.1672
0
VERTEX
8
CUT
10
36.9
20
34.5056
0
VERTEX
8
CUT
10
38.1
20
33.9294
0
VERTEX
8
CUT
10
39.3
20
33.5383
0
VERTEX
8
CUT
10
40.5
20
33.4
0
VERTEX
8
CUT
10
41.7
20
33.5383
0
VERTEX
8
CUT
10
42.9
20
33.9294
0
VERTEX
8
CUT
10
44.1
20
34.5056
0
VERTEX
8
CUT
10
45.3
20
35.1672
0
VERTEX
8
CUT
10
46.5
20
35.8
0
SEQEND
0
POLYLINE
8
CUT
66
1
70
0
0
VERTEX
8
CUT
10
48
20
36.3856
0
VERTEX
8
CUT
10
49.2
20
36.5912
0
VERTEX
8
CUT
10
50.4
20
36.5217
0
VERTEX
8
CUT
10
51.6
20
36.189
0
VERTEX
8
CUT
10
52.8
20
35.6508
0
VERTEX
8
CUT
10
54
20
35
0
VERTEX
8
CUT
10
55.2
20
34.3492
0
VERTEX
8
CUT
10
56.4
20
33.811
0
VERTEX
8
CUT
10
57.6
20
33.4783
0
VERTEX
8
CUT
10
58.8
20
33.4088
0
VERTEX
8
CUT
10
60
20
33.6144
0
VERTEX
8
CUT
10
61.2
20
34.0595
0
VERTEX
8
CUT
10
62.4
20
34.6673
0
VERTEX
8
CUT
10
63.6
20
35.3327
0
VERTEX
8
CUT
10
64.8
20
35.9405
0
VERTEX
8
CUT
10
66
20
36.3856
0
VERTEX
8
CUT
10
67.2
20
36.5912
0
VERTEX
8
CUT
10
68.4
20
36.5217
0
VERTEX
8
CUT
10
69.6
20
36.189
0
VERTEX
8
CUT
10
70.8
20
35.6508
0
VERTEX
8
CUT
10
72
20
35
0
VERTEX
8
CUT
10
73.2
20
34.3492
0
VERTEX
8
CUT
10
74.4
20
33.811
0
VERTEX
8
CUT
10
75.6
20
33.4783
0
VERTEX
8
CUT
10
76.8
20
33.4088
0
VERTEX
8
CUT
10
78
20
33.6144
0
SEQEND
0
POLYLINE
8
CUT
66
1
70
0
0
VERTEX
8
CUT
10
79.5
20
34.2
0
VERTEX
8
CUT
10
80.7
20
34.8328
0
VERTEX
8
CUT
10
81.9
20
35.4944
0
VERTEX
8
CUT
10
83.1
20
36.0706
0
VERTEX
8
CUT
10
84.3
20
36.4617
0
VERTEX
8
CUT
10
85.5
20
36.6
0
VERTEX
8
CUT
10
86.7
20
36.4617
0
VERTEX
8
CUT
10
87.9
20
36.0706
0
VERTEX
8
CUT
10
89.1
20
35.4944
0
VERTEX
8
CUT
10
90.3
20
34.8328
0
VERTEX
8
CUT
10
91.5
20
34.2
0
VERTEX
8
CUT
10
92.7
20
33.7056
0
VERTEX
8
CUT
10
93.9
20
33.435
0
VERTEX
8
CUT
10
95.1
20
33.435
0
VERTEX
8
CUT
10
96.3
20
33.7056
0
VERTEX
8
CUT
10
97.5
20
34.2
0
VERTEX
8
CUT
10
98.7
20
34.8328
0
VERTEX
8
CUT
10
99.9
20
35.4944
0
VERTEX
8
CUT
10
101.1
20
36.0706
0
VERTEX
8
CUT
10
102.3
20
36.4617
0
VERTEX
8
CUT
10
103.5
20
36.6
0
VERTEX
8
CUT
10
104.7
20
36.4617
0
VERTEX
8
CUT
10
105.9
20
36.0706
0
VERTEX
8
CUT
10
107.1
20
35.4944
0
VERTEX
8
CUT
10
108.3
20
34.8328
0
VERTEX
8
CUT
10
109.5
20
34.2
0
SEQEND
0
POLYLINE
8
CUT
66
1
70
0
0
VERTEX
8
CUT
10
111
20
33.6144
0
VERTEX
8
CUT
10
112.2
20
33.4088
0
VERTEX
8
CUT
10
113.4
20
33.4783
0
VERTEX
8
CUT
10
114.6
20
33.811
0
VERTEX
8
CUT
10
115.8
20
34.3492
0
VERTEX
8
CUT
10
117
20
35
0
VERTEX
8
CUT
10
118.2
20
35.6508
0
VERTEX
8
CUT
10
119.4
20
36.189
0
VERTEX
8
CUT
10
120
20
36.3554
0
SEQEND
0
POLYLINE
8
CUT
66
1
70
0
0
VERTEX
8
CUT
10
0.75
20
30.5859
0
VERTEX
8
CUT
10
1.95
20
29.9931
0
VERTEX
8
CUT
10
3.15
20
29.5744
0
VERTEX
8
CUT
10
4.35
20
29.4022
0
VERTEX
8
CUT
10
5.55
20
29.5063
0
VERTEX
8
CUT
10
6.75
20
29.8686
0
VERTEX
8
CUT
10
7.95
20
30.4266
0
VERTEX
8
CUT
10
9.15
20
31.0837
0
VERTEX
8
CUT
10
10.35
20
31.7264
0
VERTEX
8
CUT
10
11.55
20
32.2434
0
VERTEX
8
CUT
10
12.75
20
32.5455
0
VERTEX
8
CUT
10
13.95
20
32.5803
0
VERTEX
8
CUT
10
15.15
20
32.3419
0
VERTEX
8
CUT
10
16.35
20
31.8714
0
VERTEX
8
CUT
10
17.55
20
31.2503
0
VERTEX
8
CUT
10
18.75
20
30.5859
0
VERTEX
8
CUT
10
19.95
20
29.9931
0
VERTEX
8
CUT
10
21.15
20
29.5744
0
VERTEX
8
CUT
10
22.35
20
29.4022
0
VERTEX
8
CUT
10
23.55
20
29.5063
0
VERTEX
8
CUT
10
24.75
20
29.8686
0
VERTEX
8
CUT
10
25.95
20
30.4266
0
VERTEX
8
CUT
10
27.15
20
31.0837
0
VERTEX
8
CUT
10
28.35
20
31.7264
0
VERTEX
8
CUT
10
29.55
20
32.2434
0
VERTEX
8
CUT
10
30.75
20
32.5455
0
SEQEND
0
POLYLINE
8
CUT
66
1
70
0
0
VERTEX
8
CUT
10
32.25
20
32.5455
0
VERTEX
8
CUT
10
33.45
20
32.2434
0
VERTEX
8
CUT
10
34.65
20
31.7264
0
VERTEX
8
CUT
10
35.85
20
31.0837
0
VERTEX
8
CUT
10
37.05
20
30.4266
0
VERTEX
8
CUT
10
38.25
20
29.8686
0
VERTEX
8
CUT
10
39.45
20
29.5063
0
VERTEX
8
CUT
10
40.65
20
29.4022
0
VERTEX
8
CUT
10
41.85
20
29.5744
0
VERTEX
8
CUT
10
43.05
20
29.9931
0
VERTEX
8
CUT
10
44.25
20
30.5859
0
VERTEX
8
CUT
10
45.45
20
31.2503
0
VERTEX
8
CUT
10
46.65
20
31.8714
0
VERTEX
8
CUT
10
47.85
20
32.3419
0
VERTEX
8
CUT
10
49.05
20
32.5803
0
VERTEX
8
CUT
10
50.25
20
32.5455
0
VERTEX
8
CUT
10
51.45
20
32.2434
0
VERTEX
8
CUT
10
52.65
20
31.7264
0
VERTEX
8
CUT
10
53.85
20
31.0837
0
VERTEX
8
CUT
10
55.05
20
30.4266
0
VERTEX
8
CUT
10
56.25
20
29.8686
0
VERTEX
8
CUT
10
57.45
20
29.5063
0
VERTEX
8
CUT
10
58.65
20
29.4022
0
VERTEX
8
CUT
10
59.85
20
29.5744
0
VERTEX
8
CUT
10
61.05
20
29.9931
0
VERTEX
8
CUT
10
62.25
20
30.5859
0
SEQEND
0
POLYLINE
8
CUT
66
1
70
0
0
VERTEX
8
CUT
10
63.75
20
31.4141
0
VERTEX
8
CUT
10
64.95
20
32.0069
0
VERTEX
8
CUT
10
66.15
20
32.4256
0
VERTEX
8
CUT
10
67.35
20
32.5978
0
VERTEX
8
CUT
10
68.55
20
32.4937
0
VERTEX
8
CUT
10
69.75
20
32.1314
0
VERTEX
8
CUT
10
70.95
20
31.5734
0
VERTEX
8
CUT
10
72.15
20
30.9163
0
VERTEX
8
CUT
10
73.35
20
30.2736
0
VERTEX
8
CUT
10
74.55
20
29.7566
0
VERTEX
8
CUT
10
75.75
20
29.4545
0
VERTEX
8
CUT
10
76.95
20
29.4197
0
VERTEX
8
CUT
10
78.15
20
29.6581
0
VERTEX
8
CUT
10
79.35
20
30.1286
0
VERTEX
8
CUT
10
80.55
20
30.7497
0
VERTEX
8
CUT
10
81.75
20
31.4141
0
VERTEX
8
CUT
10
82.95
20
32.0069
0
VERTEX
8
CUT
10
84.15
20
32.4256
0
VERTEX
8
CUT
10
85.35
20
32.5978
0
VERTEX
8
CUT
10
86.55
20
32.4937
0
VERTEX
8
CUT
10
87.75
20
32.1314
0
VERTEX
8
CUT
10
88.95
20
31.5734
0
VERTEX
8
CUT
10
90.15
20
30.9163
0
VERTEX
8
CUT
10
91.35
20
30.2736
0
VERTEX
8
CUT
10
92.55
20
29.7566
0
VERTEX
8
CUT
10
93.75
20
29.4545
0
SEQEND
0
POLYLINE
8
CUT
66
1
70
0
0
VERTEX
8
CUT
10
95.25
20
29.4545
0
VERTEX
8
CUT
10
96.45
20
29.7566
0
VERTEX
8
CUT
10
97.65
20
30.2736
0
VERTEX
8
CUT
10
98.85
20
30.9163
0
VERTEX
8
CUT
10
100.05
20
31.5734
0
VERTEX
8
CUT
10
101.25
20
32.1314
0
VERTEX
8
CUT
10
102.45
20
32.4937
0
VERTEX
8
CUT
10
103.65
20
32.5978
0
VERTEX
8
CUT
10
104.85
20
32.4256
0
VERTEX
8
CUT
10
106.05
20
32.0069
0
VERTEX
8
CUT
10
107.25
20
31.4141
0
VERTEX
8
CUT
10
108.45
20
30.7497
0
VERTEX
8
CUT
10
109.65
20
30.1286
0
VERTEX
8
CUT
10
110.85
20
29.6581
0
VERTEX
8
CUT
10
112.05
20
29.4197
0
VERTEX
8
CUT
10
113.25
20
29.4545
0
VERTEX
8
CUT
10
114.45
20
29.7566
0
VERTEX
8
CUT
10
115.65
20
30.2736
0
VERTEX
8
CUT
10
116.85
20
30.9163
0
VERTEX
8
CUT
10
118.05
20
31.5734
0
VERTEX
8
CUT
10
119.25
20
32.1314
0
VERTEX
8
CUT
10
120
20
32.3578
0
SEQEND
0
POLYLINE
8
CUT
66
1
70
0
0
VERTEX
8
CUT
10
0
20
27
0
VERTEX
8
CUT
10
0.6
20
26.6673
0
VERTEX
8
CUT
10
1.8
20
26.0595
0
VERTEX
8
CUT
10
3
20
25.6144
0
VERTEX
8
CUT
10
4.2
20
25.4088
0
VERTEX
8
CUT
10
5.4
20
25.4783
0
VERTEX
8
CUT
10
6.6
20
25.811
0
VERTEX
8
CUT
10
7.8
20
26.3492
0
VERTEX
8
CUT
10
9
20
27
0
VERTEX
8
CUT
10
10.2
20
27.6508
0
VERTEX
8
CUT
10
11.4
20
28.189
0
VERTEX
8
CUT
10
12.6
20
28.5217
0
VERTEX
8
CUT
10
13.8
20
28.5912
0
VERTEX
8
CUT
10
15
20
28.3856
0
SEQEND
0
POLYLINE
8
CUT
66
1
70
0
0
VERTEX
8
CUT
10
16.5
20
27.8
0
VERTEX
8
CUT
10
17.7
20
27.1672
0
VERTEX
8
CUT
10
18.9
20
26.5056
0
VERTEX
8
CUT
10
20.1
20
25.9294
0
VERTEX
8
CUT
10
21.3
20
25.5383
0
VERTEX
8
CUT
10
22.5
20
25.4
0
VERTEX
8
CUT
10
23.7
20
25.5383
0
VERTEX
8
CUT
10
24.9
20
25.9294
0
VERTEX
8
CUT
10
26.1
20
26.5056
0
VERTEX
8
CUT
10
27.3
20
27.1672
0
VERTEX
8
CUT
10
28.5
20
27.8
0
VERTEX
8
CUT
10
29.7
20
28.2944
0
VERTEX
8
CUT
10
30.9
20
28.565
0
VERTEX
8
CUT
10
32.1
20
28.565
0
VERTEX
8
CUT
10
33.3
20
28.2944
0
VERTEX
8
CUT
10
34.5
20
27.8
0
VERTEX
8
CUT
10
35.7
20
27.1672
0
VERTEX
8
CUT
10
36.9
20
26.5056
0
VERTEX
8
CUT
10
38.1
20
25.9294
0
VERTEX
8
CUT
10
39.3
20
25.5383
0
VERTEX
8
CUT
10
40.5
20
25.4
0
VERTEX
8
CUT
10
41.7
20
25.5383
0
VERTEX
8
CUT
10
42.9
20
25.9294
0
VERTEX
8
CUT
10
44.1
20
26.5056
0
VERTEX
8
CUT
10
45.3
20
27.1672
0
VERTEX
8
CUT
10
46.5
20
27.8
0
SEQEND
0
POLYLINE
8
CUT
66
1
70
0
0
VERTEX
8
CUT
10
48
20
28.3856
0
VERTEX
8
CUT
10
49.2
20
28.5912
0
VERTEX
8
CUT
10
50.4
20
28.5217
0
VERTEX
8
CUT
10
51.6
20
28.189
0
VERTEX
8
CUT
10
52.8
20
27.6508
0
VERTEX
8
CUT
10
54
20
27
0
VERTEX
8
CUT
10
55.2
20
26.3492
0
VERTEX
8
CUT
10
56.4
20
25.811
0
VERTEX
8
CUT
10
57.6
20
25.4783
0
VERTEX
8
CUT
10
58.8
20
25.4088
0
VERTEX
8
CUT
10
60
20
25.6144
0
VERTEX
8
CUT
10
61.2
20
26.0595
0
VERTEX
8
CUT
10
62.4
20
26.6673
0
VERTEX
8
CUT
10
63.6
20
27.3327
0
VERTEX
8
CUT
10
64.8
20
27.9405
0
VERTEX
8
CUT
10
66
20
28.3856
0
VERTEX
8
CUT
10
67.2
20
28.5912
0
VERTEX
8
CUT
10
68.4
20
28.5217
0
VERTEX
8
CUT
10
69.6
20
28.189
0
VERTEX
8
CUT
10
70.8
20
27.6508
0
VERTEX
8
CUT
10
72
20
27
0
VERTEX
8
CUT
10
73.2
20
26.3492
0
VERTEX
8
CUT
10
74.4
20
25.811
0
VERTEX
8
CUT
10
75.6
20
25.4783
0
VERTEX
8
CUT
10
76.8
20
25.4088
0
VERTEX
8
CUT
10
78
20
25.6144
0
SEQEND
0
POLYLINE
8
CUT
66
1
70
0
0
VERTEX
8
CUT
10
79.5
20
26.2
0
VERTEX
8
CUT
10
80.7
20
26.8328
0
VERTEX
8
CUT
10
81.9
20
27.4944
0
VERTEX
8
CUT
10
83.1
20
28.0706
0
VERTEX
8
CUT
10
84.3
20
28.4617
0
VERTEX
8
CUT
10
85.5
20
28.6
0
VERTEX
8
CUT
10
86.7
20
28.4617
0
VERTEX
8
CUT
10
87.9
20
28.0706
0
VERTEX
8
CUT
10
89.1
20
27.4944
0
VERTEX
8
CUT
10
90.3
20
26.8328
0
VERTEX
8
CUT
10
91.5
20
26.2
0
VERTEX
8
CUT
10
92.7
20
25.7056
0
VERTEX
8
CUT
10
93.9
20
25.435
0
VERTEX
8
CUT
10
95.1
20
25.435
0
VERTEX
8
CUT
10
96.3
20
25.7056
0
VERTEX
8
CUT
10
97.5
20
26.2
0
VERTEX
8
CUT
10
98.7
20
26.8328
0
VERTEX
8
CUT
10
99.9
20
27.4944
0
VERTEX
8
CUT
10
101.1
20
28.0706
0
VERTEX
8
CUT
10
102.3
20
28.4617
0
VERTEX
8
CUT
10
103.5
20
28.6
0
VERTEX
8
CUT
10
104.7
20
28.4617
0
VERTEX
8
CUT
10
105.9
20
28.0706
0
VERTEX
8
CUT
10
107.1
20
27.4944
0
VERTEX
8
CUT
10
108.3
20
26.8328
0
VERTEX
8
CUT
10
109.5
20
26.2
0
SEQEND
0
POLYLINE
8
CUT
66
1
70
0
0
VERTEX
8
CUT
10
111
20
25.6144
0
VERTEX
8
CUT
10
112.2
20
25.4088
0
VERTEX
8
CUT
10
113.4
20
25.4783
0
VERTEX
8
CUT
10
114.6
20
25.811
0
VERTEX
8
CUT
10
115.8
20
26.3492
0
VERTEX
8
CUT
10
117
20
27
0
VERTEX
8
CUT
10
118.2
20
27.6508
0
VERTEX
8
CUT
10
119.4
20
28.189
0
VERTEX
8
CUT
10
120
20
28.3554
0
SEQEND
0
POLYLINE
8
CUT
66
1
70
0
0
VERTEX
8
CUT
10
0.75
20
22.5859
0
VERTEX
8
CUT
10
1.95
20
21.9931
0
VERTEX
8
CUT
10
3.15
20
21.5744
0
VERTEX
8
CUT
10
4.35
20
21.4022
0
VERTEX
8
CUT
10
5.55
20
21.5063
0
VERTEX
8
CUT
10
6.75
20
21.8686
0
VERTEX
8
CUT
10
7.95
20
22.4266
0
VERTEX
8
CUT
10
9.15
20
23.0837
0
VERTEX
8
CUT
10
10.35
20
23.7264
0
VERTEX
8
CUT
10
11.55
20
24.2434
0
VERTEX
8
CUT
10
12.75
20
24.5455
0
VERTEX
8
CUT
10
13.95
20
24.5803
0
VERTEX
8
CUT
10
15.15
20
24.3419
0
VERTEX
8
CUT
10
16.35
20
23.8714
0
VERTEX
8
CUT
10
17.55
20
23.2503
0
VERTEX
8
CUT
10
18.75
20
22.5859
0
VERTEX
8
CUT
10
19.95
20
21.9931
0
VERTEX
8
CUT
10
21.15
20
21.5744
0
VERTEX
8
CUT
10
22.35
20
21.4022
0
VERTEX
8
CUT
10
23.55
20
21.5063
0
VERTEX
8
CUT
10
24.75
20
21.8686
0
VERTEX
8
CUT
10
25.95
20
22.4266
0
VERTEX
8
CUT
10
27.15
20
23.0837
0
VERTEX
8
CUT
10
28.35
20
23.7264
0
VERTEX
8
CUT
10
29.55
20
24.2434
0
VERTEX
8
CUT
10
30.75
20
24.5455
0
SEQEND
0
POLYLINE
8
CUT
66
1
70
0
0
VERTEX
8
CUT
10
32.25
20
24.5455
0
VERTEX
8
CUT
10
33.45
20
24.2434
0
VERTEX
8
CUT
10
34.65
20
23.7264
0
VERTEX
8
CUT
10
35.85
20
23.0837
0
VERTEX
8
CUT
10
37.05
20
22.4266
0
VERTEX
8
CUT
10
38.25
20
21.8686
0
VERTEX
8
CUT
10
39.45
20
21.5063
0
VERTEX
8
CUT
10
40.65
20
21.4022
0
VERTEX
8
CUT
10
41.85
20
21.5744
0
VERTEX
8
CUT
10
43.05
20
21.9931
0
VERTEX
8
CUT
10
44.25
20
22.5859
0
VERTEX
8
CUT
10
45.45
20
23.2503
0
VERTEX
8
CUT
10
46.65
20
23.8714
0
VERTEX
8
CUT
10
47.85
20
24.3419
0
VERTEX
8
CUT
10
49.05
20
24.5803
0
VERTEX
8
CUT
10
50.25
20
24.5455
0
VERTEX
8
CUT
10
51.45
20
24.2434
0
VERTEX
8
CUT
10
52.65
20
23.7264
0
VERTEX
8
CUT
10
53.85
20
23.0837
0
VERTEX
8
CUT
10
55.05
20
22.4266
0
VERTEX
8
CUT
10
56.25
20
21.8686
0
VERTEX
8
CUT
10
57.45
20
21.5063
0
VERTEX
8
CUT
10
58.65
20
21.4022
0
VERTEX
8
CUT
10
59.85
20
21.5744
0
VERTEX
8
CUT
10
61.05
20
21.9931
0
VERTEX
8
CUT
10
62.25
20
22.5859
0
SEQEND
0
POLYLINE
8
CUT
66
1
70
0
0
VERTEX
8
CUT
10
63.75
20
23.4141
0
VERTEX
8
CUT
10
64.95
20
24.0069
0
VERTEX
8
CUT
10
66.15
20
24.4256
0
VERTEX
8
CUT
10
67.35
20
24.5978
0
VERTEX
8
CUT
10
68.55
20
24.4937
0
VERTEX
8
CUT
10
69.75
20
24.1314
0
VERTEX
8
CUT
10
70.95
20
23.5734
0
VERTEX
8
CUT
10
72.15
20
22.9163
0
VERTEX
8
CUT
10
73.35
20
22.2736
0
VERTEX
8
CUT
10
74.55
20
21.7566
0
VERTEX
8
CUT
10
75.75
20
21.4545
0
VERTEX
8
CUT
10
76.95
20
21.4197
0
VERTEX
8
CUT
10
78.15
20
21.6581
0
VERTEX
8
CUT
10
79.35
20
22.1286
0
VERTEX
8
CUT
10
80.55
20
22.7497
0
VERTEX
8
CUT
10
81.75
20
23.4141
0
VERTEX
8
CUT
10
82.95
20
24.0069
0
VERTEX
8
CUT
10
84.15
20
24.4256
0
VERTEX
8
CUT
10
85.35
20
24.5978
0
VERTEX
8
CUT
10
86.55
20
24.4937
0
VERTEX
8
CUT
10
87.75
20
24.1314
0
VERTEX
8
CUT
10
88.95
20
23.5734
0
VERTEX
8
CUT
10
90.15
20
22.9163
0
VERTEX
8
CUT
10
91.35
20
22.2736
0
VERTEX
8
CUT
10
92.55
20
21.7566
0
VERTEX
8
CUT
10
93.75
20
21.4545
0
SEQEND
0
POLYLINE
8
CUT
66
1
70
0
0
VERTEX
8
CUT
10
95.25
20
21.4545
0
VERTEX
8
CUT
10
96.45
20
21.7566
0
VERTEX
8
CUT
10
97.65
20
22.2736
0
VERTEX
8
CUT
10
98.85
20
22.9163
0
VERTEX
8
CUT
10
100.05
20
23.5734
0
VERTEX
8
CUT
10
101.25
20
24.1314
0
VERTEX
8
CUT
10
102.45
20
24.4937
0
VERTEX
8
CUT
10
103.65
20
24.5978
0
VERTEX
8
CUT
10
104.85
20
24.4256
0
VERTEX
8
CUT
10
106.05
20
24.0069
0
VERTEX
8
CUT
10
107.25
20
23.4141
0
VERTEX
8
CUT
10
108.45
20
22.7497
0
VERTEX
8
CUT
10
109.65
20
22.1286
0
VERTEX
8
CUT
10
110.85
20
21.6581
0
VERTEX
8
CUT
10
112.05
20
21.4197
0
VERTEX
8
CUT
10
113.25
20
21.4545
0
VERTEX
8
CUT
10
114.45
20
21.7566
0
VERTEX
8
CUT
10
115.65
20
22.2736
0
VERTEX
8
CUT
10
116.85
20
22.9163
0
VERTEX
8
CUT
10
118.05
20
23.5734
0
VERTEX
8
CUT
10
119.25
20
24.1314
0
VERTEX
8
CUT
10
120
20
24.3578
0
SEQEND
0
POLYLINE
8
CUT
66
1
70
0
0
VERTEX
8
CUT
10
0
20
19
0
VERTEX
8
CUT
10
0.6
20
18.6673
0
VERTEX
8
CUT
10
1.8
20
18.0595
0
VERTEX
8
CUT
10
3
20
17.6144
0
VERTEX
8
CUT
10
4.2
20
17.4088
0
VERTEX
8
CUT
10
5.4
20
17.4783
0
VERTEX
8
CUT
10
6.6
20
17.811
0
VERTEX
8
CUT
10
7.8
20
18.3492
0
VERTEX
8
CUT
10
9
20
19
0
VERTEX
8
CUT
10
10.2
20
19.6508
0
VERTEX
8
CUT
10
11.4
20
20.189
0
VERTEX
8
CUT
10
12.6
20
20.5217
0
VERTEX
8
CUT
10
13.8
20
20.5912
0
VERTEX
8
CUT
10
15
20
20.3856
0
SEQEND
0
POLYLINE
8
CUT
66
1
70
0
0
VERTEX
8
CUT
10
16.5
20
19.8
0
VERTEX
8
CUT
10
17.7
20
19.1672
0
VERTEX
8
CUT
10
18.9
20
18.5056
0
VERTEX
8
CUT
10
20.1
20
17.9294
0
VERTEX
8
CUT
10
21.3
20
17.5383
0
VERTEX
8
CUT
10
22.5
20
17.4
0
VERTEX
8
CUT
10
23.7
20
17.5383
0
VERTEX
8
CUT
10
24.9
20
17.9294
0
VERTEX
8
CUT
10
26.1
20
18.5056
0
VERTEX
8
CUT
10
27.3
20
19.1672
0
VERTEX
8
CUT
10
28.5
20
19.8
0
VERTEX
8
CUT
10
29.7
20
20.2944
0
VERTEX
8
CUT
10
30.9
20
20.565
0
VERTEX
8
CUT
10
32.1
20
20.565
0
VERTEX
8
CUT
10
33.3
20
20.2944
0
VERTEX
8
CUT
10
34.5
20
19.8
0
VERTEX
8
CUT
10
35.7
20
19.1672
0
VERTEX
8
CUT
10
36.9
20
18.5056
0
VERTEX
8
CUT
10
38.1
20
17.9294
0
VERTEX
8
CUT
10
39.3
20
17.5383
0
VERTEX
8
CUT
10
40.5
20
17.4
0
VERTEX
8
CUT
10
41.7
20
17.5383
0
VERTEX
8
CUT
10
42.9
20
17.9294
0
VERTEX
8
CUT
10
44.1
20
18.5056
0
VERTEX
8
CUT
10
45.3
20
19.1672
0
VERTEX
8
CUT
10
46.5
20
19.8
0
SEQEND
0
POLYLINE
8
CUT
66
1
70
0
0
VERTEX
8
CUT
10
48
20
20.3856
0
VERTEX
8
CUT
10
49.2
20
20.5912
0
VERTEX
8
CUT
10
50.4
20
20.5217
0
VERTEX
8
CUT
10
51.6
20
20.189
0
VERTEX
8
CUT
10
52.8
20
19.6508
0
VERTEX
8
CUT
10
54
20
19
0
VERTEX
8
CUT
10
55.2
20
18.3492
0
VERTEX
8
CUT
10
56.4
20
17.811
0
VERTEX
8
CUT
10
57.6
20
17.4783
0
VERTEX
8
CUT
10
58.8
20
17.4088
0
VERTEX
8
CUT
10
60
20
17.6144
0
VERTEX
8
CUT
10
61.2
20
18.0595
0
VERTEX
8
CUT
10
62.4
20
18.6673
0
VERTEX
8
CUT
10
63.6
20
19.3327
0
VERTEX
8
CUT
10
64.8
20
19.9405
0
VERTEX
8
CUT
10
66
20
20.3856
0
VERTEX
8
CUT
10
67.2
20
20.5912
0
VERTEX
8
CUT
10
68.4
20
20.5217
0
VERTEX
8
CUT
10
69.6
20
20.189
0
VERTEX
8
CUT
10
70.8
20
19.6508
0
VERTEX
8
CUT
10
72
20
19
0
VERTEX
8
CUT
10
73.2
20
18.3492
0
VERTEX
8
CUT
10
74.4
20
17.811
0
VERTEX
8
CUT
10
75.6
20
17.4783
0
VERTEX
8
CUT
10
76.8
20
17.4088
0
VERTEX
8
CUT
10
78
20
17.6144
0
SEQEND
0
POLYLINE
8
CUT
66
1
70
0
0
VERTEX
8
CUT
10
79.5
20
18.2
0
VERTEX
8
CUT
10
80.7
20
18.8328
0
VERTEX
8
CUT
10
81.9
20
19.4944
0
VERTEX
8
CUT
10
83.1
20
20.0706
0
VERTEX
8
CUT
10
84.3
20
20.4617
0
VERTEX
8
CUT
10
85.5
20
20.6
0
VERTEX
8
CUT
10
86.7
20
20.4617
0
VERTEX
8
CUT
10
87.9
20
20.0706
0
VERTEX
8
CUT
10
89.1
20
19.4944
0
VERTEX
8
CUT
10
90.3
20
18.8328
0
VERTEX
8
CUT
10
91.5
20
18.2
0
VERTEX
8
CUT
10
92.7
20
17.7056
0
VERTEX
8
CUT
10
93.9
20
17.435
0
VERTEX
8
CUT
10
95.1
20
17.435
0
VERTEX
8
CUT
10
96.3
20
17.7056
0
VERTEX
8
CUT
10
97.5
20
18.2
0
VERTEX
8
CUT
10
98.7
20
18.8328
0
VERTEX
8
CUT
10
99.9
20
19.4944
0
VERTEX
8
CUT
10
101.1
20
20.0706
0
VERTEX
8
CUT
10
102.3
20
20.4617
0
VERTEX
8
CUT
10
103.5
20
20.6
0
VERTEX
8
CUT
10
104.7
20
20.4617
0
VERTEX
8
CUT
10
105.9
20
20.0706
0
VERTEX
8
CUT
10
107.1
20
19.4944
0
VERTEX
8
CUT
10
108.3
20
18.8328
0
VERTEX
8
CUT
10
109.5
20
18.2
0
SEQEND
0
POLYLINE
8
CUT
66
1
70
0
0
VERTEX
8
CUT
10
111
20
17.6144
0
VERTEX
8
CUT
10
112.2
20
17.4088
0
VERTEX
8
CUT
10
113.4
20
17.4783
0
VERTEX
8
CUT
10
114.6
20
17.811
0
VERTEX
8
CUT
10
115.8
20
18.3492
0
VERTEX
8
CUT
10
117
20
19
0
VERTEX
8
CUT
10
118.2
20
19.6508
0
VERTEX
8
CUT
10
119.4
20
20.189
0
VERTEX
8
CUT
10
120
20
20.3554
0
SEQEND
0
POLYLINE
8
CUT
66
1
70
0
0
VERTEX
8
CUT
10
0.75
20
14.5859
0
VERTEX
8
CUT
10
1.95
20
13.9931
0
VERTEX
8
CUT
10
3.15
20
13.5744
0
VERTEX
8
CUT
10
4.35
20
13.4022
0
VERTEX
8
CUT
10
5.55
20
13.5063
0
VERTEX
8
CUT
10
6.75
20
13.8686
0
VERTEX
8
CUT
10
7.95
20
14.4266
0
VERTEX
8
CUT
10
9.15
20
15.0837
0
VERTEX
8
CUT
10
10.35
20
15.7264
0
VERTEX
8
CUT
10
11.55
20
16.2434
0
VERTEX
8
CUT
10
12.75
20
16.5455
0
VERTEX
8
CUT
10
13.95
20
16.5803
0
VERTEX
8
CUT
10
15.15
20
16.3419
0
VERTEX
8
CUT
10
16.35
20
15.8714
0
VERTEX
8
CUT
10
17.55
20
15.2503
0
VERTEX
8
CUT
10
18.75
20
14.5859
0
VERTEX
8
CUT
10
19.95
20
13.9931
0
VERTEX
8
CUT
10
21.15
20
13.5744
0
VERTEX
8
CUT
10
22.35
20
13.4022
0
VERTEX
8
CUT
10
23.55
20
13.5063
0
VERTEX
8
CUT
10
24.75
20
13.8686
0
VERTEX
8
CUT
10
25.95
20
14.4266
0
VERTEX
8
CUT
10
27.15
20
15.0837
0
VERTEX
8
CUT
10
28.35
20
15.7264
0
VERTEX
8
CUT
10
29.55
20
16.2434
0
VERTEX
8
CUT
10
30.75
20
16.5455
0
SEQEND
0
POLYLINE
8
CUT
66
1
70
0
0
VERTEX
8
CUT
10
32.25
20
16.5455
0
VERTEX
8
CUT
10
33.45
20
16.2434
0
VERTEX
8
CUT
10
34.65
20
15.7264
0
VERTEX
8
CUT
10
35.85
20
15.0837
0
VERTEX
8
CUT
10
37.05
20
14.4266
0
VERTEX
8
CUT
10
38.25
20
13.8686
0
VERTEX
8
CUT
10
39.45
20
13.5063
0
VERTEX
8
CUT
10
40.65
20
13.4022
0
VERTEX
8
CUT
10
41.85
20
13.5744
0
VERTEX
8
CUT
10
43.05
20
13.9931
0
VERTEX
8
CUT
10
44.25
20
14.5859
0
VERTEX
8
CUT
10
45.45
20
15.2503
0
VERTEX
8
CUT
10
46.65
20
15.8714
0
VERTEX
8
CUT
10
47.85
20
16.3419
0
VERTEX
8
CUT
10
49.05
20
16.5803
0
VERTEX
8
CUT
10
50.25
20
16.5455
0
VERTEX
8
CUT
10
51.45
20
16.2434
0
VERTEX
8
CUT
10
52.65
20
15.7264
0
VERTEX
8
CUT
10
53.85
20
15.0837
0
VERTEX
8
CUT
10
55.05
20
14.4266
0
VERTEX
8
CUT
10
56.25
20
13.8686
0
VERTEX
8
CUT
10
57.45
20
13.5063
0
VERTEX
8
CUT
10
58.65
20
13.4022
0
VERTEX
8
CUT
10
59.85
20
13.5744
0
VERTEX
8
CUT
10
61.05
20
13.9931
0
VERTEX
8
CUT
10
62.25
20
14.5859
0
SEQEND
0
POLYLINE
8
CUT
66
1
70
0
0
VERTEX
8
CUT
10
63.75
20
15.4141
0
VERTEX
8
CUT
10
64.95
20
16.0069
0
VERTEX
8
CUT
10
66.15
20
16.4256
0
VERTEX
8
CUT
10
67.35
20
16.5978
0
VERTEX
8
CUT
10
68.55
20
16.4937
0
VERTEX
8
CUT
10
69.75
20
16.1314
0
VERTEX
8
CUT
10
70.95
20
15.5734
0
VERTEX
8
CUT
10
72.15
20
14.9163
0
VERTEX
8
CUT
10
73.35
20
14.2736
0
VERTEX
8
CUT
10
74.55
20
13.7566
0
VERTEX
8
CUT
10
75.75
20
13.4545
0
VERTEX
8
CUT
10
76.95
20
13.4197
0
VERTEX
8
CUT
10
78.15
20
13.6581
0
VERTEX
8
CUT
10
79.35
20
14.1286
0
VERTEX
8
CUT
10
80.55
20
14.7497
0
VERTEX
8
CUT
10
81.75
20
15.4141
0
VERTEX
8
CUT
10
82.95
20
16.0069
0
VERTEX
8
CUT
10
84.15
20
16.4256
0
VERTEX
8
CUT
10
85.35
20
16.5978
0
VERTEX
8
CUT
10
86.55
20
16.4937
0
VERTEX
8
CUT
10
87.75
20
16.1314
0
VERTEX
8
CUT
10
88.95
20
15.5734
0
VERTEX
8
CUT
10
90.15
20
14.9163
0
VERTEX
8
CUT
10
91.35
20
14.2736
0
VERTEX
8
CUT
10
92.55
20
13.7566
0
VERTEX
8
CUT
10
93.75
20
13.4545
0
SEQEND
0
POLYLINE
8
CUT
66
1
70
0
0
VERTEX
8
CUT
10
95.25
20
13.4545
0
VERTEX
8
CUT
10
96.45
20
13.7566
0
VERTEX
8
CUT
10
97.65
20
14.2736
0
VERTEX
8
CUT
10
98.85
20
14.9163
0
VERTEX
8
CUT
10
100.05
20
15.5734
0
VERTEX
8
CUT
10
101.25
20
16.1314
0
VERTEX
8
CUT
10
102.45
20
16.4937
0
VERTEX
8
CUT
10
103.65
20
16.5978
0
VERTEX
8
CUT
10
104.85
20
16.4256
0
VERTEX
8
CUT
10
106.05
20
16.0069
0
VERTEX
8
CUT
10
107.25
20
15.4141
0
VERTEX
8
CUT
10
108.45
20
14.7497
0
VERTEX
8
CUT
10
109.65
20
14.1286
0
VERTEX
8
CUT
10
110.85
20
13.6581
0
VERTEX
8
CUT
10
112.05
20
13.4197
0
VERTEX
8
CUT
10
113.25
20
13.4545
0
VERTEX
8
CUT
10
114.45
20
13.7566
0
VERTEX
8
CUT
10
115.65
20
14.2736
0
VERTEX
8
CUT
10
116.85
20
14.9163
0
VERTEX
8
CUT
10
118.05
20
15.5734
0
VERTEX
8
CUT
10
119.25
20
16.1314
0
VERTEX
8
CUT
10
120
20
16.3578
0
SEQEND
0
POLYLINE
8
CUT
66
1
70
0
0
VERTEX
8
CUT
10
0
20
11
0
VERTEX
8
CUT
10
0.6
20
10.6673
0
VERTEX
8
CUT
10
1.8
20
10.0595
0
VERTEX
8
CUT
10
3
20
9.6144
0
VERTEX
8
CUT
10
4.2
20
9.4088
0
VERTEX
8
CUT
10
5.4
20
9.4783
0
VERTEX
8
CUT
10
6.6
20
9.811
0
VERTEX
8
CUT
10
7.8
20
10.3492
0
VERTEX
8
CUT
10
9
20
11
0
VERTEX
8
CUT
10
10.2
20
11.6508
0
VERTEX
8
CUT
10
11.4
20
12.189
0
VERTEX
8
CUT
10
12.6
20
12.5217
0
VERTEX
8
CUT
10
13.8
20
12.5912
0
VERTEX
8
CUT
10
15
20
12.3856
0
SEQEND
0
POLYLINE
8
CUT
66
1
70
0
0
VERTEX
8
CUT
10
16.5
20
11.8
0
VERTEX
8
CUT
10
17.7
20
11.1672
0
VERTEX
8
CUT
10
18.9
20
10.5056
0
VERTEX
8
CUT
10
20.1
20
9.9294
0
VERTEX
8
CUT
10
21.3
20
9.5383
0
VERTEX
8
CUT
10
22.5
20
9.4
0
VERTEX
8
CUT
10
23.7
20
9.5383
0
VERTEX
8
CUT
10
24.9
20
9.9294
0
VERTEX
8
CUT
10
26.1
20
10.5056
0
VERTEX
8
CUT
10
27.3
20
11.1672
0
VERTEX
8
CUT
10
28.5
20
11.8
0
VERTEX
8
CUT
10
29.7
20
12.2944
0
VERTEX
8
CUT
10
30.9
20
12.565
0
VERTEX
8
CUT
10
32.1
20
12.565
0
VERTEX
8
CUT
10
33.3
20
12.2944
0
VERTEX
8
CUT
10
34.5
20
11.8
0
VERTEX
8
CUT
10
35.7
20
11.1672
0
VERTEX
8
CUT
10
36.9
20
10.5056
0
VERTEX
8
CUT
10
38.1
20
9.9294
0
VERTEX
8
CUT
10
39.3
20
9.5383
0
VERTEX
8
CUT
10
40.5
20
9.4
0
VERTEX
8
CUT
10
41.7
20
9.5383
0
VERTEX
8
CUT
10
42.9
20
9.9294
0
VERTEX
8
CUT
10
44.1
20
10.5056
0
VERTEX
8
CUT
10
45.3
20
11.1672
0
VERTEX
8
CUT
10
46.5
20
11.8
0
SEQEND
0
POLYLINE
8
CUT
66
1
70
0
0
VERTEX
8
CUT
10
48
20
12.3856
0
VERTEX
8
CUT
10
49.2
20
12.5912
0
VERTEX
8
CUT
10
50.4
20
12.5217
0
VERTEX
8
CUT
10
51.6
20
12.189
0
VERTEX
8
CUT
10
52.8
20
11.6508
0
VERTEX
8
CUT
10
54
20
11
0
VERTEX
8
CUT
10
55.2
20
10.3492
0
VERTEX
8
CUT
10
56.4
20
9.811
0
VERTEX
8
CUT
10
57.6
20
9.4783
0
VERTEX
8
CUT
10
58.8
20
9.4088
0
VERTEX
8
CUT
10
60
20
9.6144
0
VERTEX
8
CUT
10
61.2
20
10.0595
0
VERTEX
8
CUT
10
62.4
20
10.6673
0
VERTEX
8
CUT
10
63.6
20
11.3327
0
VERTEX
8
CUT
10
64.8
20
11.9405
0
VERTEX
8
CUT
10
66
20
12.3856
0
VERTEX
8
CUT
10
67.2
20
12.5912
0
VERTEX
8
CUT
10
68.4
20
12.5217
0
VERTEX
8
CUT
10
69.6
20
12.189
0
VERTEX
8
CUT
10
70.8
20
11.6508
0
VERTEX
8
CUT
10
72
20
11
0
VERTEX
8
CUT
10
73.2
20
10.3492
0
VERTEX
8
CUT
10
74.4
20
9.811
0
VERTEX
8
CUT
10
75.6
20
9.4783
0
VERTEX
8
CUT
10
76.8
20
9.4088
0
VERTEX
8
CUT
10
78
20
9.6144
0
SEQEND
0
POLYLINE
8
CUT
66
1
70
0
0
VERTEX
8
CUT
10
79.5
20
10.2
0
VERTEX
8
CUT
10
80.7
20
10.8328
0
VERTEX
8
CUT
10
81.9
20
11.4944
0
VERTEX
8
CUT
10
83.1
20
12.0706
0
VERTEX
8
CUT
10
84.3
20
12.4617
0
VERTEX
8
CUT
10
85.5
20
12.6
0
VERTEX
8
CUT
10
86.7
20
12.4617
0
VERTEX
8
CUT
10
87.9
20
12.0706
0
VERTEX
8
CUT
10
89.1
20
11.4944
0
VERTEX
8
CUT
10
90.3
20
10.8328
0
VERTEX
8
CUT
10
91.5
20
10.2
0
VERTEX
8
CUT
10
92.7
20
9.7056
0
VERTEX
8
CUT
10
93.9
20
9.435
0
VERTEX
8
CUT
10
95.1
20
9.435
0
VERTEX
8
CUT
10
96.3
20
9.7056
0
VERTEX
8
CUT
10
97.5
20
10.2
0
VERTEX
8
CUT
10
98.7
20
10.8328
0
VERTEX
8
CUT
10
99.9
20
11.4944
0
VERTEX
8
CUT
10
101.1
20
12.0706
0
VERTEX
8
CUT
10
102.3
20
12.4617
0
VERTEX
8
CUT
10
103.5
20
12.6
0
VERTEX
8
CUT
10
104.7
20
12.4617
0
VERTEX
8
CUT
10
105.9
20
12.0706
0
VERTEX
8
CUT
10
107.1
20
11.4944
0
VERTEX
8
CUT
10
108.3
20
10.8328
0
VERTEX
8
CUT
10
109.5
20
10.2
0
SEQEND
0
POLYLINE
8
CUT
66
1
70
0
0
VERTEX
8
CUT
10
111
20
9.6144
0
VERTEX
8
CUT
10
112.2
20
9.4088
0
VERTEX
8
CUT
10
113.4
20
9.4783
0
VERTEX
8
CUT
10
114.6
20
9.811
0
VERTEX
8
CUT
10
115.8
20
10.3492
0
VERTEX
8
CUT
10
117
20
11
0
VERTEX
8
CUT
10
118.2
20
11.6508
0
VERTEX
8
CUT
10
119.4
20
12.189
0
VERTEX
8
CUT
10
120
20
12.3554
0
SEQEND
0
POLYLINE
8
CUT
66
1
70
0
0
VERTEX
8
CUT
10
0.75
20
6.5859
0
VERTEX
8
CUT
10
1.95
20
5.9931
0
VERTEX
8
CUT
10
3.15
20
5.5744
0
VERTEX
8
CUT
10
4.35
20
5.4022
0
VERTEX
8
CUT
10
5.55
20
5.5063
0
VERTEX
8
CUT
10
6.75
20
5.8686
0
VERTEX
8
CUT
10
7.95
20
6.4266
0
VERTEX
8
CUT
10
9.15
20
7.0837
0
VERTEX
8
CUT
10
10.35
20
7.7264
0
VERTEX
8
CUT
10
11.55
20
8.2434
0
VERTEX
8
CUT
10
12.75
20
8.5455
0
VERTEX
8
CUT
10
13.95
20
8.5803
0
VERTEX
8
CUT
10
15.15
20
8.3419
0
VERTEX
8
CUT
10
16.35
20
7.8714
0
VERTEX
8
CUT
10
17.55
20
7.2503
0
VERTEX
8
CUT
10
18.75
20
6.5859
0
VERTEX
8
CUT
10
19.95
20
5.9931
0
VERTEX
8
CUT
10
21.15
20
5.5744
0
VERTEX
8
CUT
10
22.35
20
5.4022
0
VERTEX
8
CUT
10
23.55
20
5.5063
0
VERTEX
8
CUT
10
24.75
20
5.8686
0
VERTEX
8
CUT
10
25.95
20
6.4266
0
VERTEX
8
CUT
10
27.15
20
7.0837
0
VERTEX
8
CUT
10
28.35
20
7.7264
0
VERTEX
8
CUT
10
29.55
20
8.2434
0
VERTEX
8
CUT
10
30.75
20
8.5455
0
SEQEND
0
POLYLINE
8
CUT
66
1
70
0
0
VERTEX
8
CUT
10
32.25
20
8.5455
0
VERTEX
8
CUT
10
33.45
20
8.2434
0
VERTEX
8
CUT
10
34.65
20
7.7264
0
VERTEX
8
CUT
10
35.85
20
7.0837
0
VERTEX
8
CUT
10
37.05
20
6.4266
0
VERTEX
8
CUT
10
38.25
20
5.8686
0
VERTEX
8
CUT
10
39.45
20
5.5063
0
VERTEX
8
CUT
10
40.65
20
5.4022
0
VERTEX
8
CUT
10
41.85
20
5.5744
0
VERTEX
8
CUT
10
43.05
20
5.9931
0
VERTEX
8
CUT
10
44.25
20
6.5859
0
VERTEX
8
CUT
10
45.45
20
7.2503
0
VERTEX
8
CUT
10
46.65
20
7.8714
0
VERTEX
8
CUT
10
47.85
20
8.3419
0
VERTEX
8
CUT
10
49.05
20
8.5803
0
VERTEX
8
CUT
10
50.25
20
8.5455
0
VERTEX
8
CUT
10
51.45
20
8.2434
0
VERTEX
8
CUT
10
52.65
20
7.7264
0
VERTEX
8
CUT
10
53.85
20
7.0837
0
VERTEX
8
CUT
10
55.05
20
6.4266
0
VERTEX
8
CUT
10
56.25
20
5.8686
0
VERTEX
8
CUT
10
57.45
20
5.5063
0
VERTEX
8
CUT
10
58.65
20
5.4022
0
VERTEX
8
CUT
10
59.85
20
5.5744
0
VERTEX
8
CUT
10
61.05
20
5.9931
0
VERTEX
8
CUT
10
62.25
20
6.5859
0
SEQEND
0
POLYLINE
8
CUT
66
1
70
0
0
VERTEX
8
CUT
10
63.75
20
7.4141
0
VERTEX
8
CUT
10
64.95
20
8.0069
0
VERTEX
8
CUT
10
66.15
20
8.4256
0
VERTEX
8
CUT
10
67.35
20
8.5978
0
VERTEX
8
CUT
10
68.55
20
8.4937
0
VERTEX
8
CUT
10
69.75
20
8.1314
0
VERTEX
8
CUT
10
70.95
20
7.5734
0
VERTEX
8
CUT
10
72.15
20
6.9163
0
VERTEX
8
CUT
10
73.35
20
6.2736
0
VERTEX
8
CUT
10
74.55
20
5.7566
0
VERTEX
8
CUT
10
75.75
20
5.4545
0
VERTEX
8
CUT
10
76.95
20
5.4197
0
VERTEX
8
CUT
10
78.15
20
5.6581
0
VERTEX
8
CUT
10
79.35
20
6.1286
0
VERTEX
8
CUT
10
80.55
20
6.7497
0
VERTEX
8
CUT
10
81.75
20
7.4141
0
VERTEX
8
CUT
10
82.95
20
8.0069
0
VERTEX
8
CUT
10
84.15
20
8.4256
0
VERTEX
8
CUT
10
85.35
20
8.5978
0
VERTEX
8
CUT
10
86.55
20
8.4937
0
VERTEX
8
CUT
10
87.75
20
8.1314
0
VERTEX
8
CUT
10
88.95
20
7.5734
0
VERTEX
8
CUT
10
90.15
20
6.9163
0
VERTEX
8
CUT
10
91.35
20
6.2736
0
VERTEX
8
CUT
10
92.55
20
5.7566
0
VERTEX
8
CUT
10
93.75
20
5.4545
0
SEQEND
0
POLYLINE
8
CUT
66
1
70
0
0
VERTEX
8
CUT
10
95.25
20
5.4545
0
VERTEX
8
CUT
10
96.45
20
5.7566
0
VERTEX
8
CUT
10
97.65
20
6.2736
0
VERTEX
8
CUT
10
98.85
20
6.9163
0
VERTEX
8
CUT
10
100.05
20
7.5734
0
VERTEX
8
CUT
10
101.25
20
8.1314
0
VERTEX
8
CUT
10
102.45
20
8.4937
0
VERTEX
8
CUT
10
103.65
20
8.5978
0
VERTEX
8
CUT
10
104.85
20
8.4256
0
VERTEX
8
CUT
10
106.05
20
8.0069
0
VERTEX
8
CUT
10
107.25
20
7.4141
0
VERTEX
8
CUT
10
108.45
20
6.7497
0
VERTEX
8
CUT
10
109.65
20
6.1286
0
VERTEX
8
CUT
10
110.85
20
5.6581
0
VERTEX
8
CUT
10
112.05
20
5.4197
0
VERTEX
8
CUT
10
113.25
20
5.4545
0
VERTEX
8
CUT
10
114.45
20
5.7566
0
VERTEX
8
CUT
10
115.65
20
6.2736
0
VERTEX
8
CUT
10
116.85
20
6.9163
0
VERTEX
8
CUT
10
118.05
20
7.5734
0
VERTEX
8
CUT
10
119.25
20
8.1314
0
VERTEX
8
CUT
10
120
20
8.3578
0
SEQEND
0
POLYLINE
8
CUT
66
1
70
0
0
VERTEX
8
CUT
10
0
20
3
0
VERTEX
8
CUT
10
0.6
20
2.6673
0
VERTEX
8
CUT
10
1.8
20
2.0595
0
VERTEX
8
CUT
10
3
20
1.6144
0
VERTEX
8
CUT
10
4.2
20
1.4088
0
VERTEX
8
CUT
10
5.4
20
1.4783
0
VERTEX
8
CUT
10
6.6
20
1.811
0
VERTEX
8
CUT
10
7.8
20
2.3492
0
VERTEX
8
CUT
10
9
20
3
0
VERTEX
8
CUT
10
10.2
20
3.6508
0
VERTEX
8
CUT
10
11.4
20
4.189
0
VERTEX
8
CUT
10
12.6
20
4.5217
0
VERTEX
8
CUT
10
13.8
20
4.5912
0
VERTEX
8
CUT
10
15
20
4.3856
0
SEQEND
0
POLYLINE
8
CUT
66
1
70
0
0
VERTEX
8
CUT
10
16.5
20
3.8
0
VERTEX
8
CUT
10
17.7
20
3.1672
0
VERTEX
8
CUT
10
18.9
20
2.5056
0
VERTEX
8
CUT
10
20.1
20
1.9294
0
VERTEX
8
CUT
10
21.3
20
1.5383
0
VERTEX
8
CUT
10
22.5
20
1.4
0
VERTEX
8
CUT
10
23.7
20
1.5383
0
VERTEX
8
CUT
10
24.9
20
1.9294
0
VERTEX
8
CUT
10
26.1
20
2.5056
0
VERTEX
8
CUT
10
27.3
20
3.1672
0
VERTEX
8
CUT
10
28.5
20
3.8
0
VERTEX
8
CUT
10
29.7
20
4.2944
0
VERTEX
8
CUT
10
30.9
20
4.565
0
VERTEX
8
CUT
10
32.1
20
4.565
0
VERTEX
8
CUT
10
33.3
20
4.2944
0
VERTEX
8
CUT
10
34.5
20
3.8
0
VERTEX
8
CUT
10
35.7
20
3.1672
0
VERTEX
8
CUT
10
36.9
20
2.5056
0
VERTEX
8
CUT
10
38.1
20
1.9294
0
VERTEX
8
CUT
10
39.3
20
1.5383
0
VERTEX
8
CUT
10
40.5
20
1.4
0
VERTEX
8
CUT
10
41.7
20
1.5383
0
VERTEX
8
CUT
10
42.9
20
1.9294
0
VERTEX
8
CUT
10
44.1
20
2.5056
0
VERTEX
8
CUT
10
45.3
20
3.1672
0
VERTEX
8
CUT
10
46.5
20
3.8
0
SEQEND
0
POLYLINE
8
CUT
66
1
70
0
0
VERTEX
8
CUT
10
48
20
4.3856
0
VERTEX
8
CUT
10
49.2
20
4.5912
0
VERTEX
8
CUT
10
50.4
20
4.5217
0
VERTEX
8
CUT
10
51.6
20
4.189
0
VERTEX
8
CUT
10
52.8
20
3.6508
0
VERTEX
8
CUT
10
54
20
3
0
VERTEX
8
CUT
10
55.2
20
2.3492
0
VERTEX
8
CUT
10
56.4
20
1.811
0
VERTEX
8
CUT
10
57.6
20
1.4783
0
VERTEX
8
CUT
10
58.8
20
1.4088
0
VERTEX
8
CUT
10
60
20
1.6144
0
VERTEX
8
CUT
10
61.2
20
2.0595
0
VERTEX
8
CUT
10
62.4
20
2.6673
0
VERTEX
8
CUT
10
63.6
20
3.3327
0
VERTEX
8
CUT
10
64.8
20
3.9405
0
VERTEX
8
CUT
10
66
20
4.3856
0
VERTEX
8
CUT
10
67.2
20
4.5912
0
VERTEX
8
CUT
10
68.4
20
4.5217
0
VERTEX
8
CUT
10
69.6
20
4.189
0
VERTEX
8
CUT
10
70.8
20
3.6508
0
VERTEX
8
CUT
10
72
20
3
0
VERTEX
8
CUT
10
73.2
20
2.3492
0
VERTEX
8
CUT
10
74.4
20
1.811
0
VERTEX
8
CUT
10
75.6
20
1.4783
0
VERTEX
8
CUT
10
76.8
20
1.4088
0
VERTEX
8
CUT
10
78
20
1.6144
0
SEQEND
0
POLYLINE
8
CUT
66
1
70
0
0
VERTEX
8
CUT
10
79.5
20
2.2
0
VERTEX
8
CUT
10
80.7
20
2.8328
0
VERTEX
8
CUT
10
81.9
20
3.4944
0
VERTEX
8
CUT
10
83.1
20
4.0706
0
VERTEX
8
CUT
10
84.3
20
4.4617
0
VERTEX
8
CUT
10
85.5
20
4.6
0
VERTEX
8
CUT
10
86.7
20
4.4617
0
VERTEX
8
CUT
10
87.9
20
4.0706
0
VERTEX
8
CUT
10
89.1
20
3.4944
0
VERTEX
8
CUT
10
90.3
20
2.8328
0
VERTEX
8
CUT
10
91.5
20
2.2
0
VERTEX
8
CUT
10
92.7
20
1.7056
0
VERTEX
8
CUT
10
93.9
20
1.435
0
VERTEX
8
CUT
10
95.1
20
1.435
0
VERTEX
8
CUT
10
96.3
20
1.7056
0
VERTEX
8
CUT
10
97.5
20
2.2
0
VERTEX
8
CUT
10
98.7
20
2.8328
0
VERTEX
8
CUT
10
99.9
20
3.4944
0
VERTEX
8
CUT
10
101.1
20
4.0706
0
VERTEX
8
CUT
10
102.3
20
4.4617
0
VERTEX
8
CUT
10
103.5
20
4.6
0
VERTEX
8
CUT
10
104.7
20
4.4617
0
VERTEX
8
CUT
10
105.9
20
4.0706
0
VERTEX
8
CUT
10
107.1
20
3.4944
0
VERTEX
8
CUT
10
108.3
20
2.8328
0
VERTEX
8
CUT
10
109.5
20
2.2
0
SEQEND
0
POLYLINE
8
CUT
66
1
70
0
0
VERTEX
8
CUT
10
111
20
1.6144
0
VERTEX
8
CUT
10
112.2
20
1.4088
0
VERTEX
8
CUT
10
113.4
20
1.4783
0
VERTEX
8
CUT
10
114.6
20
1.811
0
VERTEX
8
CUT
10
115.8
20
2.3492
0
VERTEX
8
CUT
10
117
20
3
0
VERTEX
8
CUT
10
118.2
20
3.6508
0
VERTEX
8
CUT
10
119.4
20
4.189
0
VERTEX
8
CUT
10
120
20
4.3554
0
SEQEND
0
POLYLINE
8
CUT
66
1
70
0
0
VERTEX
8
CUT
10
0
20
70
0
VERTEX
8
CUT
10
120
20
70
0
VERTEX
8
CUT
10
120
20
0
0
VERTEX
8
CUT
10
0
20
0
0
VERTEX
8
CUT
10
0
20
70
0
SEQEND
0
ENDSEC
0
EOF
