0
SECTION
2
HEADER
9
$ACADVER
1
AC1009
9
$INSUNITS
70
4
0
ENDSEC
0
SECTION
2
TABLES
0
TABLE
2
LAYER
70
1
0
LAYER
2
CUT
70
0
62
1
6
CONTINUOUS
0
ENDTAB
0
ENDSEC
0
SECTION
2
ENTITIES
0
LINE
8
CUT
10
0.6968
20
69.3532
11
0
21
68.3877
0
LINE
8
CUT
10
0.6968
20
61.025
11
0
21
60.0595
0
LINE
8
CUT
10
0
20
63.6123
11
0.782
21
62.5287
0
LINE
8
CUT
10
0.6968
20
52.6968
11
0
21
51.7313
0
LINE
8
CUT
10
0
20
55.2841
11
0.782
21
54.2005
0
LINE
8
CUT
10
0.6968
20
44.3686
11
0
21
43.4031
0
LINE
8
CUT
10
0
20
46.9559
11
0.782
21
45.8723
0
LINE
8
CUT
10
0.6968
20
36.0404
11
0
21
35.0749
0
LINE
8
CUT
10
0
20
38.6277
11
0.782
21
37.5441
0
LINE
8
CUT
10
0.6968
20
27.7122
11
0
21
26.7467
0
LINE
8
CUT
10
0
20
30.2995
11
0.782
21
29.2159
0
LINE
8
CUT
10
0.6968
20
19.384
11
0
21
18.4185
0
LINE
8
CUT
10
0
20
21.9713
11
0.782
21
20.8877
0
LINE
8
CUT
10
0.6968
20
11.0558
11
0
21
10.0903
0
LINE
8
CUT
10
0
20
13.6431
11
0.782
21
12.5595
0
LINE
8
CUT
10
0.6968
20
2.7276
11
0
21
1.7621
0
LINE
8
CUT
10
0
20
5.3149
11
0.782
21
4.2313
0
POLYLINE
8
CUT
66
1
70
0
0
VERTEX
8
CUT
10
8.8
20
66
0
VERTEX
8
CUT
10
6.9
20
63.3673
0
VERTEX
8
CUT
10
3.1
20
63.3673
0
VERTEX
8
CUT
10
1.2
20
66
0
VERTEX
8
CUT
10
3.1
20
68.6327
0
VERTEX
8
CUT
10
6.9
20
68.6327
0
VERTEX
8
CUT
10
8.8
20
66
0
SEQEND
0
POLYLINE
8
CUT
66
1
70
0
0
VERTEX
8
CUT
10
9.4148
20
65.1891
0
VERTEX
8
CUT
10
7.5
20
62.5359
0
VERTEX
8
CUT
10
3.6704
20
62.5359
0
SEQEND
0
POLYLINE
8
CUT
66
1
70
0
0
VERTEX
8
CUT
10
1.9148
20
63.3468
0
VERTEX
8
CUT
10
0
20
66
0
VERTEX
8
CUT
10
1.9148
20
68.6532
0
SEQEND
0
POLYLINE
8
CUT
66
1
70
0
0
VERTEX
8
CUT
10
3.5
20
69.4641
0
VERTEX
8
CUT
10
7.5
20
69.4641
0
VERTEX
8
CUT
10
9.5
20
66.6928
0
SEQEND
0
POLYLINE
8
CUT
66
1
70
0
0
VERTEX
8
CUT
10
8.8
20
57.6718
0
VERTEX
8
CUT
10
6.9
20
55.0391
0
VERTEX
8
CUT
10
3.1
20
55.0391
0
VERTEX
8
CUT
10
1.2
20
57.6718
0
VERTEX
8
CUT
10
3.1
20
60.3045
0
VERTEX
8
CUT
10
6.9
20
60.3045
0
VERTEX
8
CUT
10
8.8
20
57.6718
0
SEQEND
0
POLYLINE
8
CUT
66
1
70
0
0
VERTEX
8
CUT
10
9.4148
20
56.8609
0
VERTEX
8
CUT
10
7.5
20
54.2077
0
VERTEX
8
CUT
10
3.6704
20
54.2077
0
SEQEND
0
POLYLINE
8
CUT
66
1
70
0
0
VERTEX
8
CUT
10
1.9148
20
55.0186
0
VERTEX
8
CUT
10
0
20
57.6718
0
VERTEX
8
CUT
10
1.9148
20
60.325
0
SEQEND
0
POLYLINE
8
CUT
66
1
70
0
0
VERTEX
8
CUT
10
3.5
20
61.1359
0
VERTEX
8
CUT
10
7.5
20
61.1359
0
VERTEX
8
CUT
10
9.5
20
58.3646
0
SEQEND
0
POLYLINE
8
CUT
66
1
70
0
0
VERTEX
8
CUT
10
8.8
20
49.3436
0
VERTEX
8
CUT
10
6.9
20
46.7109
0
VERTEX
8
CUT
10
3.1
20
46.7109
0
VERTEX
8
CUT
10
1.2
20
49.3436
0
VERTEX
8
CUT
10
3.1
20
51.9763
0
VERTEX
8
CUT
10
6.9
20
51.9763
0
VERTEX
8
CUT
10
8.8
20
49.3436
0
SEQEND
0
POLYLINE
8
CUT
66
1
70
0
0
VERTEX
8
CUT
10
9.4148
20
48.5327
0
VERTEX
8
CUT
10
7.5
20
45.8795
0
VERTEX
8
CUT
10
3.6704
20
45.8795
0
SEQEND
0
POLYLINE
8
CUT
66
1
70
0
0
VERTEX
8
CUT
10
1.9148
20
46.6904
0
VERTEX
8
CUT
10
0
20
49.3436
0
VERTEX
8
CUT
10
1.9148
20
51.9968
0
SEQEND
0
POLYLINE
8
CUT
66
1
70
0
0
VERTEX
8
CUT
10
3.5
20
52.8077
0
VERTEX
8
CUT
10
7.5
20
52.8077
0
VERTEX
8
CUT
10
9.5
20
50.0364
0
SEQEND
0
POLYLINE
8
CUT
66
1
70
0
0
VERTEX
8
CUT
10
8.8
20
41.0154
0
VERTEX
8
CUT
10
6.9
20
38.3827
0
VERTEX
8
CUT
10
3.1
20
38.3827
0
VERTEX
8
CUT
10
1.2
20
41.0154
0
VERTEX
8
CUT
10
3.1
20
43.6481
0
VERTEX
8
CUT
10
6.9
20
43.6481
0
VERTEX
8
CUT
10
8.8
20
41.0154
0
SEQEND
0
POLYLINE
8
CUT
66
1
70
0
0
VERTEX
8
CUT
10
9.4148
20
40.2045
0
VERTEX
8
CUT
10
7.5
20
37.5513
0
VERTEX
8
CUT
10
3.6704
20
37.5513
0
SEQEND
0
POLYLINE
8
CUT
66
1
70
0
0
VERTEX
8
CUT
10
1.9148
20
38.3622
0
VERTEX
8
CUT
10
0
20
41.0154
0
VERTEX
8
CUT
10
1.9148
20
43.6686
0
SEQEND
0
POLYLINE
8
CUT
66
1
70
0
0
VERTEX
8
CUT
10
3.5
20
44.4795
0
VERTEX
8
CUT
10
7.5
20
44.4795
0
VERTEX
8
CUT
10
9.5
20
41.7082
0
SEQEND
0
POLYLINE
8
CUT
66
1
70
0
0
VERTEX
8
CUT
10
8.8
20
32.6872
0
VERTEX
8
CUT
10
6.9
20
30.0545
0
VERTEX
8
CUT
10
3.1
20
30.0545
0
VERTEX
8
CUT
10
1.2
20
32.6872
0
VERTEX
8
CUT
10
3.1
20
35.3199
0
VERTEX
8
CUT
10
6.9
20
35.3199
0
VERTEX
8
CUT
10
8.8
20
32.6872
0
SEQEND
0
POLYLINE
8
CUT
66
1
70
0
0
VERTEX
8
CUT
10
9.4148
20
31.8763
0
VERTEX
8
CUT
10
7.5
20
29.2231
0
VERTEX
8
CUT
10
3.6704
20
29.2231
0
SEQEND
0
POLYLINE
8
CUT
66
1
70
0
0
VERTEX
8
CUT
10
1.9148
20
30.034
0
VERTEX
8
CUT
10
0
20
32.6872
0
VERTEX
8
CUT
10
1.9148
20
35.3404
0
SEQEND
0
POLYLINE
8
CUT
66
1
70
0
0
VERTEX
8
CUT
10
3.5
20
36.1513
0
VERTEX
8
CUT
10
7.5
20
36.1513
0
VERTEX
8
CUT
10
9.5
20
33.38
0
SEQEND
0
POLYLINE
8
CUT
66
1
70
0
0
VERTEX
8
CUT
10
8.8
20
24.359
0
VERTEX
8
CUT
10
6.9
20
21.7263
0
VERTEX
8
CUT
10
3.1
20
21.7263
0
VERTEX
8
CUT
10
1.2
20
24.359
0
VERTEX
8
CUT
10
3.1
20
26.9917
0
VERTEX
8
CUT
10
6.9
20
26.9917
0
VERTEX
8
CUT
10
8.8
20
24.359
0
SEQEND
0
POLYLINE
8
CUT
66
1
70
0
0
VERTEX
8
CUT
10
9.4148
20
23.5481
0
VERTEX
8
CUT
10
7.5
20
20.8949
0
VERTEX
8
CUT
10
3.6704
20
20.8949
0
SEQEND
0
POLYLINE
8
CUT
66
1
70
0
0
VERTEX
8
CUT
10
1.9148
20
21.7058
0
VERTEX
8
CUT
10
0
20
24.359
0
VERTEX
8
CUT
10
1.9148
20
27.0122
0
SEQEND
0
POLYLINE
8
CUT
66
1
70
0
0
VERTEX
8
CUT
10
3.5
20
27.8231
0
VERTEX
8
CUT
10
7.5
20
27.8231
0
VERTEX
8
CUT
10
9.5
20
25.0518
0
SEQEND
0
POLYLINE
8
CUT
66
1
70
0
0
VERTEX
8
CUT
10
8.8
20
16.0308
0
VERTEX
8
CUT
10
6.9
20
13.3981
0
VERTEX
8
CUT
10
3.1
20
13.3981
0
VERTEX
8
CUT
10
1.2
20
16.0308
0
VERTEX
8
CUT
10
3.1
20
18.6635
0
VERTEX
8
CUT
10
6.9
20
18.6635
0
VERTEX
8
CUT
10
8.8
20
16.0308
0
SEQEND
0
POLYLINE
8
CUT
66
1
70
0
0
VERTEX
8
CUT
10
9.4148
20
15.2199
0
VERTEX
8
CUT
10
7.5
20
12.5667
0
VERTEX
8
CUT
10
3.6704
20
12.5667
0
SEQEND
0
POLYLINE
8
CUT
66
1
70
0
0
VERTEX
8
CUT
10
1.9148
20
13.3776
0
VERTEX
8
CUT
10
0
20
16.0308
0
VERTEX
8
CUT
10
1.9148
20
18.684
0
SEQEND
0
POLYLINE
8
CUT
66
1
70
0
0
VERTEX
8
CUT
10
3.5
20
19.4949
0
VERTEX
8
CUT
10
7.5
20
19.4949
0
VERTEX
8
CUT
10
9.5
20
16.7236
0
SEQEND
0
POLYLINE
8
CUT
66
1
70
0
0
VERTEX
8
CUT
10
8.8
20
7.7026
0
VERTEX
8
CUT
10
6.9
20
5.0699
0
VERTEX
8
CUT
10
3.1
20
5.0699
0
VERTEX
8
CUT
10
1.2
20
7.7026
0
VERTEX
8
CUT
10
3.1
20
10.3353
0
VERTEX
8
CUT
10
6.9
20
10.3353
0
VERTEX
8
CUT
10
8.8
20
7.7026
0
SEQEND
0
POLYLINE
8
CUT
66
1
70
0
0
VERTEX
8
CUT
10
9.4148
20
6.8917
0
VERTEX
8
CUT
10
7.5
20
4.2385
0
VERTEX
8
CUT
10
3.6704
20
4.2385
0
SEQEND
0
POLYLINE
8
CUT
66
1
70
0
0
VERTEX
8
CUT
10
1.9148
20
5.0494
0
VERTEX
8
CUT
10
0
20
7.7026
0
VERTEX
8
CUT
10
1.9148
20
10.3558
0
SEQEND
0
POLYLINE
8
CUT
66
1
70
0
0
VERTEX
8
CUT
10
3.5
20
11.1667
0
VERTEX
8
CUT
10
7.5
20
11.1667
0
VERTEX
8
CUT
10
9.5
20
8.3954
0
SEQEND
0
POLYLINE
8
CUT
66
1
70
0
0
VERTEX
8
CUT
10
1.6515
20
0
0
VERTEX
8
CUT
10
3.1
20
2.0071
0
VERTEX
8
CUT
10
6.9
20
2.0071
0
VERTEX
8
CUT
10
8.3485
20
0
0
SEQEND
0
LINE
8
CUT
10
0.4515
20
0
11
1.9148
21
2.0276
0
POLYLINE
8
CUT
66
1
70
0
0
VERTEX
8
CUT
10
3.5
20
2.8385
0
VERTEX
8
CUT
10
7.5
20
2.8385
0
VERTEX
8
CUT
10
9.5
20
0.0672
0
SEQEND
0
POLYLINE
8
CUT
66
1
70
0
0
VERTEX
8
CUT
10
17.3996
20
70
0
VERTEX
8
CUT
10
15.618
20
67.5314
0
VERTEX
8
CUT
10
11.818
20
67.5314
0
VERTEX
8
CUT
10
10.0364
20
70
0
SEQEND
0
POLYLINE
8
CUT
66
1
70
0
0
VERTEX
8
CUT
10
18.1328
20
69.3532
0
VERTEX
8
CUT
10
16.218
20
66.7
0
VERTEX
8
CUT
10
12.3884
20
66.7
0
SEQEND
0
LINE
8
CUT
10
10.6328
20
67.5109
11
8.8364
21
70
0
POLYLINE
8
CUT
66
1
70
0
0
VERTEX
8
CUT
10
17.518
20
61.8359
0
VERTEX
8
CUT
10
15.618
20
59.2032
0
VERTEX
8
CUT
10
11.818
20
59.2032
0
VERTEX
8
CUT
10
9.918
20
61.8359
0
VERTEX
8
CUT
10
11.818
20
64.4686
0
VERTEX
8
CUT
10
15.618
20
64.4686
0
VERTEX
8
CUT
10
17.518
20
61.8359
0
SEQEND
0
POLYLINE
8
CUT
66
1
70
0
0
VERTEX
8
CUT
10
18.1328
20
61.025
0
VERTEX
8
CUT
10
16.218
20
58.3718
0
VERTEX
8
CUT
10
12.3884
20
58.3718
0
SEQEND
0
POLYLINE
8
CUT
66
1
70
0
0
VERTEX
8
CUT
10
10.6328
20
59.1827
0
VERTEX
8
CUT
10
8.718
20
61.8359
0
VERTEX
8
CUT
10
10.6328
20
64.4891
0
SEQEND
0
POLYLINE
8
CUT
66
1
70
0
0
VERTEX
8
CUT
10
12.218
20
65.3
0
VERTEX
8
CUT
10
16.218
20
65.3
0
VERTEX
8
CUT
10
18.218
20
62.5287
0
SEQEND
0
POLYLINE
8
CUT
66
1
70
0
0
VERTEX
8
CUT
10
17.518
20
53.5077
0
VERTEX
8
CUT
10
15.618
20
50.875
0
VERTEX
8
CUT
10
11.818
20
50.875
0
VERTEX
8
CUT
10
9.918
20
53.5077
0
VERTEX
8
CUT
10
11.818
20
56.1404
0
VERTEX
8
CUT
10
15.618
20
56.1404
0
VERTEX
8
CUT
10
17.518
20
53.5077
0
SEQEND
0
POLYLINE
8
CUT
66
1
70
0
0
VERTEX
8
CUT
10
18.1328
20
52.6968
0
VERTEX
8
CUT
10
16.218
20
50.0436
0
VERTEX
8
CUT
10
12.3884
20
50.0436
0
SEQEND
0
POLYLINE
8
CUT
66
1
70
0
0
VERTEX
8
CUT
10
10.6328
20
50.8545
0
VERTEX
8
CUT
10
8.718
20
53.5077
0
VERTEX
8
CUT
10
10.6328
20
56.1609
0
SEQEND
0
POLYLINE
8
CUT
66
1
70
0
0
VERTEX
8
CUT
10
12.218
20
56.9718
0
VERTEX
8
CUT
10
16.218
20
56.9718
0
VERTEX
8
CUT
10
18.218
20
54.2005
0
SEQEND
0
POLYLINE
8
CUT
66
1
70
0
0
VERTEX
8
CUT
10
17.518
20
45.1795
0
VERTEX
8
CUT
10
15.618
20
42.5468
0
VERTEX
8
CUT
10
11.818
20
42.5468
0
VERTEX
8
CUT
10
9.918
20
45.1795
0
VERTEX
8
CUT
10
11.818
20
47.8122
0
VERTEX
8
CUT
10
15.618
20
47.8122
0
VERTEX
8
CUT
10
17.518
20
45.1795
0
SEQEND
0
POLYLINE
8
CUT
66
1
70
0
0
VERTEX
8
CUT
10
18.1328
20
44.3686
0
VERTEX
8
CUT
10
16.218
20
41.7154
0
VERTEX
8
CUT
10
12.3884
20
41.7154
0
SEQEND
0
POLYLINE
8
CUT
66
1
70
0
0
VERTEX
8
CUT
10
10.6328
20
42.5263
0
VERTEX
8
CUT
10
8.718
20
45.1795
0
VERTEX
8
CUT
10
10.6328
20
47.8327
0
SEQEND
0
POLYLINE
8
CUT
66
1
70
0
0
VERTEX
8
CUT
10
12.218
20
48.6436
0
VERTEX
8
CUT
10
16.218
20
48.6436
0
VERTEX
8
CUT
10
18.218
20
45.8723
0
SEQEND
0
POLYLINE
8
CUT
66
1
70
0
0
VERTEX
8
CUT
10
17.518
20
36.8513
0
VERTEX
8
CUT
10
15.618
20
34.2186
0
VERTEX
8
CUT
10
11.818
20
34.2186
0
VERTEX
8
CUT
10
9.918
20
36.8513
0
VERTEX
8
CUT
10
11.818
20
39.484
0
VERTEX
8
CUT
10
15.618
20
39.484
0
VERTEX
8
CUT
10
17.518
20
36.8513
0
SEQEND
0
POLYLINE
8
CUT
66
1
70
0
0
VERTEX
8
CUT
10
18.1328
20
36.0404
0
VERTEX
8
CUT
10
16.218
20
33.3872
0
VERTEX
8
CUT
10
12.3884
20
33.3872
0
SEQEND
0
POLYLINE
8
CUT
66
1
70
0
0
VERTEX
8
CUT
10
10.6328
20
34.1981
0
VERTEX
8
CUT
10
8.718
20
36.8513
0
VERTEX
8
CUT
10
10.6328
20
39.5045
0
SEQEND
0
POLYLINE
8
CUT
66
1
70
0
0
VERTEX
8
CUT
10
12.218
20
40.3154
0
VERTEX
8
CUT
10
16.218
20
40.3154
0
VERTEX
8
CUT
10
18.218
20
37.5441
0
SEQEND
0
POLYLINE
8
CUT
66
1
70
0
0
VERTEX
8
CUT
10
17.518
20
28.5231
0
VERTEX
8
CUT
10
15.618
20
25.8904
0
VERTEX
8
CUT
10
11.818
20
25.8904
0
VERTEX
8
CUT
10
9.918
20
28.5231
0
VERTEX
8
CUT
10
11.818
20
31.1558
0
VERTEX
8
CUT
10
15.618
20
31.1558
0
VERTEX
8
CUT
10
17.518
20
28.5231
0
SEQEND
0
POLYLINE
8
CUT
66
1
70
0
0
VERTEX
8
CUT
10
18.1328
20
27.7122
0
VERTEX
8
CUT
10
16.218
20
25.059
0
VERTEX
8
CUT
10
12.3884
20
25.059
0
SEQEND
0
POLYLINE
8
CUT
66
1
70
0
0
VERTEX
8
CUT
10
10.6328
20
25.8699
0
VERTEX
8
CUT
10
8.718
20
28.5231
0
VERTEX
8
CUT
10
10.6328
20
31.1763
0
SEQEND
0
POLYLINE
8
CUT
66
1
70
0
0
VERTEX
8
CUT
10
12.218
20
31.9872
0
VERTEX
8
CUT
10
16.218
20
31.9872
0
VERTEX
8
CUT
10
18.218
20
29.2159
0
SEQEND
0
POLYLINE
8
CUT
66
1
70
0
0
VERTEX
8
CUT
10
17.518
20
20.1949
0
VERTEX
8
CUT
10
15.618
20
17.5622
0
VERTEX
8
CUT
10
11.818
20
17.5622
0
VERTEX
8
CUT
10
9.918
20
20.1949
0
VERTEX
8
CUT
10
11.818
20
22.8276
0
VERTEX
8
CUT
10
15.618
20
22.8276
0
VERTEX
8
CUT
10
17.518
20
20.1949
0
SEQEND
0
POLYLINE
8
CUT
66
1
70
0
0
VERTEX
8
CUT
10
18.1328
20
19.384
0
VERTEX
8
CUT
10
16.218
20
16.7308
0
VERTEX
8
CUT
10
12.3884
20
16.7308
0
SEQEND
0
POLYLINE
8
CUT
66
1
70
0
0
VERTEX
8
CUT
10
10.6328
20
17.5417
0
VERTEX
8
CUT
10
8.718
20
20.1949
0
VERTEX
8
CUT
10
10.6328
20
22.8481
0
SEQEND
0
POLYLINE
8
CUT
66
1
70
0
0
VERTEX
8
CUT
10
12.218
20
23.659
0
VERTEX
8
CUT
10
16.218
20
23.659
0
VERTEX
8
CUT
10
18.218
20
20.8877
0
SEQEND
0
POLYLINE
8
CUT
66
1
70
0
0
VERTEX
8
CUT
10
17.518
20
11.8667
0
VERTEX
8
CUT
10
15.618
20
9.234
0
VERTEX
8
CUT
10
11.818
20
9.234
0
VERTEX
8
CUT
10
9.918
20
11.8667
0
VERTEX
8
CUT
10
11.818
20
14.4994
0
VERTEX
8
CUT
10
15.618
20
14.4994
0
VERTEX
8
CUT
10
17.518
20
11.8667
0
SEQEND
0
POLYLINE
8
CUT
66
1
70
0
0
VERTEX
8
CUT
10
18.1328
20
11.0558
0
VERTEX
8
CUT
10
16.218
20
8.4026
0
VERTEX
8
CUT
10
12.3884
20
8.4026
0
SEQEND
0
POLYLINE
8
CUT
66
1
70
0
0
VERTEX
8
CUT
10
10.6328
20
9.2135
0
VERTEX
8
CUT
10
8.718
20
11.8667
0
VERTEX
8
CUT
10
10.6328
20
14.5199
0
SEQEND
0
POLYLINE
8
CUT
66
1
70
0
0
VERTEX
8
CUT
10
12.218
20
15.3308
0
VERTEX
8
CUT
10
16.218
20
15.3308
0
VERTEX
8
CUT
10
18.218
20
12.5595
0
SEQEND
0
POLYLINE
8
CUT
66
1
70
0
0
VERTEX
8
CUT
10
17.518
20
3.5385
0
VERTEX
8
CUT
10
15.618
20
0.9058
0
VERTEX
8
CUT
10
11.818
20
0.9058
0
VERTEX
8
CUT
10
9.918
20
3.5385
0
VERTEX
8
CUT
10
11.818
20
6.1712
0
VERTEX
8
CUT
10
15.618
20
6.1712
0
VERTEX
8
CUT
10
17.518
20
3.5385
0
SEQEND
0
POLYLINE
8
CUT
66
1
70
0
0
VERTEX
8
CUT
10
18.1328
20
2.7276
0
VERTEX
8
CUT
10
16.218
20
0.0744
0
VERTEX
8
CUT
10
12.3884
20
0.0744
0
SEQEND
0
POLYLINE
8
CUT
66
1
70
0
0
VERTEX
8
CUT
10
10.6328
20
0.8853
0
VERTEX
8
CUT
10
8.718
20
3.5385
0
VERTEX
8
CUT
10
10.6328
20
6.1917
0
SEQEND
0
POLYLINE
8
CUT
66
1
70
0
0
VERTEX
8
CUT
10
12.218
20
7.0026
0
VERTEX
8
CUT
10
16.218
20
7.0026
0
VERTEX
8
CUT
10
18.218
20
4.2313
0
SEQEND
0
POLYLINE
8
CUT
66
1
70
0
0
VERTEX
8
CUT
10
26.236
20
66
0
VERTEX
8
CUT
10
24.336
20
63.3673
0
VERTEX
8
CUT
10
20.536
20
63.3673
0
VERTEX
8
CUT
10
18.636
20
66
0
VERTEX
8
CUT
10
20.536
20
68.6327
0
VERTEX
8
CUT
10
24.336
20
68.6327
0
VERTEX
8
CUT
10
26.236
20
66
0
SEQEND
0
POLYLINE
8
CUT
66
1
70
0
0
VERTEX
8
CUT
10
26.8508
20
65.1891
0
VERTEX
8
CUT
10
24.936
20
62.5359
0
VERTEX
8
CUT
10
21.1064
20
62.5359
0
SEQEND
0
POLYLINE
8
CUT
66
1
70
0
0
VERTEX
8
CUT
10
19.3508
20
63.3468
0
VERTEX
8
CUT
10
17.436
20
66
0
VERTEX
8
CUT
10
19.3508
20
68.6532
0
SEQEND
0
POLYLINE
8
CUT
66
1
70
0
0
VERTEX
8
CUT
10
20.936
20
69.4641
0
VERTEX
8
CUT
10
24.936
20
69.4641
0
VERTEX
8
CUT
10
26.936
20
66.6928
0
SEQEND
0
POLYLINE
8
CUT
66
1
70
0
0
VERTEX
8
CUT
10
26.236
20
57.6718
0
VERTEX
8
CUT
10
24.336
20
55.0391
0
VERTEX
8
CUT
10
20.536
20
55.0391
0
VERTEX
8
CUT
10
18.636
20
57.6718
0
VERTEX
8
CUT
10
20.536
20
60.3045
0
VERTEX
8
CUT
10
24.336
20
60.3045
0
VERTEX
8
CUT
10
26.236
20
57.6718
0
SEQEND
0
POLYLINE
8
CUT
66
1
70
0
0
VERTEX
8
CUT
10
26.8508
20
56.8609
0
VERTEX
8
CUT
10
24.936
20
54.2077
0
VERTEX
8
CUT
10
21.1064
20
54.2077
0
SEQEND
0
POLYLINE
8
CUT
66
1
70
0
0
VERTEX
8
CUT
10
19.3508
20
55.0186
0
VERTEX
8
CUT
10
17.436
20
57.6718
0
VERTEX
8
CUT
10
19.3508
20
60.325
0
SEQEND
0
POLYLINE
8
CUT
66
1
70
0
0
VERTEX
8
CUT
10
20.936
20
61.1359
0
VERTEX
8
CUT
10
24.936
20
61.1359
0
VERTEX
8
CUT
10
26.936
20
58.3646
0
SEQEND
0
POLYLINE
8
CUT
66
1
70
0
0
VERTEX
8
CUT
10
26.236
20
49.3436
0
VERTEX
8
CUT
10
24.336
20
46.7109
0
VERTEX
8
CUT
10
20.536
20
46.7109
0
VERTEX
8
CUT
10
18.636
20
49.3436
0
VERTEX
8
CUT
10
20.536
20
51.9763
0
VERTEX
8
CUT
10
24.336
20
51.9763
0
VERTEX
8
CUT
10
26.236
20
49.3436
0
SEQEND
0
POLYLINE
8
CUT
66
1
70
0
0
VERTEX
8
CUT
10
26.8508
20
48.5327
0
VERTEX
8
CUT
10
24.936
20
45.8795
0
VERTEX
8
CUT
10
21.1064
20
45.8795
0
SEQEND
0
POLYLINE
8
CUT
66
1
70
0
0
VERTEX
8
CUT
10
19.3508
20
46.6904
0
VERTEX
8
CUT
10
17.436
20
49.3436
0
VERTEX
8
CUT
10
19.3508
20
51.9968
0
SEQEND
0
POLYLINE
8
CUT
66
1
70
0
0
VERTEX
8
CUT
10
20.936
20
52.8077
0
VERTEX
8
CUT
10
24.936
20
52.8077
0
VERTEX
8
CUT
10
26.936
20
50.0364
0
SEQEND
0
POLYLINE
8
CUT
66
1
70
0
0
VERTEX
8
CUT
10
26.236
20
41.0154
0
VERTEX
8
CUT
10
24.336
20
38.3827
0
VERTEX
8
CUT
10
20.536
20
38.3827
0
VERTEX
8
CUT
10
18.636
20
41.0154
0
VERTEX
8
CUT
10
20.536
20
43.6481
0
VERTEX
8
CUT
10
24.336
20
43.6481
0
VERTEX
8
CUT
10
26.236
20
41.0154
0
SEQEND
0
POLYLINE
8
CUT
66
1
70
0
0
VERTEX
8
CUT
10
26.8508
20
40.2045
0
VERTEX
8
CUT
10
24.936
20
37.5513
0
VERTEX
8
CUT
10
21.1064
20
37.5513
0
SEQEND
0
POLYLINE
8
CUT
66
1
70
0
0
VERTEX
8
CUT
10
19.3508
20
38.3622
0
VERTEX
8
CUT
10
17.436
20
41.0154
0
VERTEX
8
CUT
10
19.3508
20
43.6686
0
SEQEND
0
POLYLINE
8
CUT
66
1
70
0
0
VERTEX
8
CUT
10
20.936
20
44.4795
0
VERTEX
8
CUT
10
24.936
20
44.4795
0
VERTEX
8
CUT
10
26.936
20
41.7082
0
SEQEND
0
POLYLINE
8
CUT
66
1
70
0
0
VERTEX
8
CUT
10
26.236
20
32.6872
0
VERTEX
8
CUT
10
24.336
20
30.0545
0
VERTEX
8
CUT
10
20.536
20
30.0545
0
VERTEX
8
CUT
10
18.636
20
32.6872
0
VERTEX
8
CUT
10
20.536
20
35.3199
0
VERTEX
8
CUT
10
24.336
20
35.3199
0
VERTEX
8
CUT
10
26.236
20
32.6872
0
SEQEND
0
POLYLINE
8
CUT
66
1
70
0
0
VERTEX
8
CUT
10
26.8508
20
31.8763
0
VERTEX
8
CUT
10
24.936
20
29.2231
0
VERTEX
8
CUT
10
21.1064
20
29.2231
0
SEQEND
0
POLYLINE
8
CUT
66
1
70
0
0
VERTEX
8
CUT
10
19.3508
20
30.034
0
VERTEX
8
CUT
10
17.436
20
32.6872
0
VERTEX
8
CUT
10
19.3508
20
35.3404
0
SEQEND
0
POLYLINE
8
CUT
66
1
70
0
0
VERTEX
8
CUT
10
20.936
20
36.1513
0
VERTEX
8
CUT
10
24.936
20
36.1513
0
VERTEX
8
CUT
10
26.936
20
33.38
0
SEQEND
0
POLYLINE
8
CUT
66
1
70
0
0
VERTEX
8
CUT
10
26.236
20
24.359
0
VERTEX
8
CUT
10
24.336
20
21.7263
0
VERTEX
8
CUT
10
20.536
20
21.7263
0
VERTEX
8
CUT
10
18.636
20
24.359
0
VERTEX
8
CUT
10
20.536
20
26.9917
0
VERTEX
8
CUT
10
24.336
20
26.9917
0
VERTEX
8
CUT
10
26.236
20
24.359
0
SEQEND
0
POLYLINE
8
CUT
66
1
70
0
0
VERTEX
8
CUT
10
26.8508
20
23.5481
0
VERTEX
8
CUT
10
24.936
20
20.8949
0
VERTEX
8
CUT
10
21.1064
20
20.8949
0
SEQEND
0
POLYLINE
8
CUT
66
1
70
0
0
VERTEX
8
CUT
10
19.3508
20
21.7058
0
VERTEX
8
CUT
10
17.436
20
24.359
0
VERTEX
8
CUT
10
19.3508
20
27.0122
0
SEQEND
0
POLYLINE
8
CUT
66
1
70
0
0
VERTEX
8
CUT
10
20.936
20
27.8231
0
VERTEX
8
CUT
10
24.936
20
27.8231
0
VERTEX
8
CUT
10
26.936
20
25.0518
0
SEQEND
0
POLYLINE
8
CUT
66
1
70
0
0
VERTEX
8
CUT
10
26.236
20
16.0308
0
VERTEX
8
CUT
10
24.336
20
13.3981
0
VERTEX
8
CUT
10
20.536
20
13.3981
0
VERTEX
8
CUT
10
18.636
20
16.0308
0
VERTEX
8
CUT
10
20.536
20
18.6635
0
VERTEX
8
CUT
10
24.336
20
18.6635
0
VERTEX
8
CUT
10
26.236
20
16.0308
0
SEQEND
0
POLYLINE
8
CUT
66
1
70
0
0
VERTEX
8
CUT
10
26.8508
20
15.2199
0
VERTEX
8
CUT
10
24.936
20
12.5667
0
VERTEX
8
CUT
10
21.1064
20
12.5667
0
SEQEND
0
POLYLINE
8
CUT
66
1
70
0
0
VERTEX
8
CUT
10
19.3508
20
13.3776
0
VERTEX
8
CUT
10
17.436
20
16.0308
0
VERTEX
8
CUT
10
19.3508
20
18.684
0
SEQEND
0
POLYLINE
8
CUT
66
1
70
0
0
VERTEX
8
CUT
10
20.936
20
19.4949
0
VERTEX
8
CUT
10
24.936
20
19.4949
0
VERTEX
8
CUT
10
26.936
20
16.7236
0
SEQEND
0
POLYLINE
8
CUT
66
1
70
0
0
VERTEX
8
CUT
10
26.236
20
7.7026
0
VERTEX
8
CUT
10
24.336
20
5.0699
0
VERTEX
8
CUT
10
20.536
20
5.0699
0
VERTEX
8
CUT
10
18.636
20
7.7026
0
VERTEX
8
CUT
10
20.536
20
10.3353
0
VERTEX
8
CUT
10
24.336
20
10.3353
0
VERTEX
8
CUT
10
26.236
20
7.7026
0
SEQEND
0
POLYLINE
8
CUT
66
1
70
0
0
VERTEX
8
CUT
10
26.8508
20
6.8917
0
VERTEX
8
CUT
10
24.936
20
4.2385
0
VERTEX
8
CUT
10
21.1064
20
4.2385
0
SEQEND
0
POLYLINE
8
CUT
66
1
70
0
0
VERTEX
8
CUT
10
19.3508
20
5.0494
0
VERTEX
8
CUT
10
17.436
20
7.7026
0
VERTEX
8
CUT
10
19.3508
20
10.3558
0
SEQEND
0
POLYLINE
8
CUT
66
1
70
0
0
VERTEX
8
CUT
10
20.936
20
11.1667
0
VERTEX
8
CUT
10
24.936
20
11.1667
0
VERTEX
8
CUT
10
26.936
20
8.3954
0
SEQEND
0
POLYLINE
8
CUT
66
1
70
0
0
VERTEX
8
CUT
10
19.0875
20
0
0
VERTEX
8
CUT
10
20.536
20
2.0071
0
VERTEX
8
CUT
10
24.336
20
2.0071
0
VERTEX
8
CUT
10
25.7845
20
0
0
SEQEND
0
LINE
8
CUT
10
17.8875
20
0
11
19.3508
21
2.0276
0
POLYLINE
8
CUT
66
1
70
0
0
VERTEX
8
CUT
10
20.936
20
2.8385
0
VERTEX
8
CUT
10
24.936
20
2.8385
0
VERTEX
8
CUT
10
26.936
20
0.0672
0
SEQEND
0
POLYLINE
8
CUT
66
1
70
0
0
VERTEX
8
CUT
10
34.8356
20
70
0
VERTEX
8
CUT
10
33.054
20
67.5314
0
VERTEX
8
CUT
10
29.254
20
67.5314
0
VERTEX
8
CUT
10
27.4724
20
70
0
SEQEND
0
POLYLINE
8
CUT
66
1
70
0
0
VERTEX
8
CUT
10
35.5688
20
69.3532
0
VERTEX
8
CUT
10
33.654
20
66.7
0
VERTEX
8
CUT
10
29.8244
20
66.7
0
SEQEND
0
LINE
8
CUT
10
28.0688
20
67.5109
11
26.2724
21
70
0
POLYLINE
8
CUT
66
1
70
0
0
VERTEX
8
CUT
10
34.954
20
61.8359
0
VERTEX
8
CUT
10
33.054
20
59.2032
0
VERTEX
8
CUT
10
29.254
20
59.2032
0
VERTEX
8
CUT
10
27.354
20
61.8359
0
VERTEX
8
CUT
10
29.254
20
64.4686
0
VERTEX
8
CUT
10
33.054
20
64.4686
0
VERTEX
8
CUT
10
34.954
20
61.8359
0
SEQEND
0
POLYLINE
8
CUT
66
1
70
0
0
VERTEX
8
CUT
10
35.5688
20
61.025
0
VERTEX
8
CUT
10
33.654
20
58.3718
0
VERTEX
8
CUT
10
29.8244
20
58.3718
0
SEQEND
0
POLYLINE
8
CUT
66
1
70
0
0
VERTEX
8
CUT
10
28.0688
20
59.1827
0
VERTEX
8
CUT
10
26.154
20
61.8359
0
VERTEX
8
CUT
10
28.0688
20
64.4891
0
SEQEND
0
POLYLINE
8
CUT
66
1
70
0
0
VERTEX
8
CUT
10
29.654
20
65.3
0
VERTEX
8
CUT
10
33.654
20
65.3
0
VERTEX
8
CUT
10
35.654
20
62.5287
0
SEQEND
0
POLYLINE
8
CUT
66
1
70
0
0
VERTEX
8
CUT
10
34.954
20
53.5077
0
VERTEX
8
CUT
10
33.054
20
50.875
0
VERTEX
8
CUT
10
29.254
20
50.875
0
VERTEX
8
CUT
10
27.354
20
53.5077
0
VERTEX
8
CUT
10
29.254
20
56.1404
0
VERTEX
8
CUT
10
33.054
20
56.1404
0
VERTEX
8
CUT
10
34.954
20
53.5077
0
SEQEND
0
POLYLINE
8
CUT
66
1
70
0
0
VERTEX
8
CUT
10
35.5688
20
52.6968
0
VERTEX
8
CUT
10
33.654
20
50.0436
0
VERTEX
8
CUT
10
29.8244
20
50.0436
0
SEQEND
0
POLYLINE
8
CUT
66
1
70
0
0
VERTEX
8
CUT
10
28.0688
20
50.8545
0
VERTEX
8
CUT
10
26.154
20
53.5077
0
VERTEX
8
CUT
10
28.0688
20
56.1609
0
SEQEND
0
POLYLINE
8
CUT
66
1
70
0
0
VERTEX
8
CUT
10
29.654
20
56.9718
0
VERTEX
8
CUT
10
33.654
20
56.9718
0
VERTEX
8
CUT
10
35.654
20
54.2005
0
SEQEND
0
POLYLINE
8
CUT
66
1
70
0
0
VERTEX
8
CUT
10
34.954
20
45.1795
0
VERTEX
8
CUT
10
33.054
20
42.5468
0
VERTEX
8
CUT
10
29.254
20
42.5468
0
VERTEX
8
CUT
10
27.354
20
45.1795
0
VERTEX
8
CUT
10
29.254
20
47.8122
0
VERTEX
8
CUT
10
33.054
20
47.8122
0
VERTEX
8
CUT
10
34.954
20
45.1795
0
SEQEND
0
POLYLINE
8
CUT
66
1
70
0
0
VERTEX
8
CUT
10
35.5688
20
44.3686
0
VERTEX
8
CUT
10
33.654
20
41.7154
0
VERTEX
8
CUT
10
29.8244
20
41.7154
0
SEQEND
0
POLYLINE
8
CUT
66
1
70
0
0
VERTEX
8
CUT
10
28.0688
20
42.5263
0
VERTEX
8
CUT
10
26.154
20
45.1795
0
VERTEX
8
CUT
10
28.0688
20
47.8327
0
SEQEND
0
POLYLINE
8
CUT
66
1
70
0
0
VERTEX
8
CUT
10
29.654
20
48.6436
0
VERTEX
8
CUT
10
33.654
20
48.6436
0
VERTEX
8
CUT
10
35.654
20
45.8723
0
SEQEND
0
POLYLINE
8
CUT
66
1
70
0
0
VERTEX
8
CUT
10
34.954
20
36.8513
0
VERTEX
8
CUT
10
33.054
20
34.2186
0
VERTEX
8
CUT
10
29.254
20
34.2186
0
VERTEX
8
CUT
10
27.354
20
36.8513
0
VERTEX
8
CUT
10
29.254
20
39.484
0
VERTEX
8
CUT
10
33.054
20
39.484
0
VERTEX
8
CUT
10
34.954
20
36.8513
0
SEQEND
0
POLYLINE
8
CUT
66
1
70
0
0
VERTEX
8
CUT
10
35.5688
20
36.0404
0
VERTEX
8
CUT
10
33.654
20
33.3872
0
VERTEX
8
CUT
10
29.8244
20
33.3872
0
SEQEND
0
POLYLINE
8
CUT
66
1
70
0
0
VERTEX
8
CUT
10
28.0688
20
34.1981
0
VERTEX
8
CUT
10
26.154
20
36.8513
0
VERTEX
8
CUT
10
28.0688
20
39.5045
0
SEQEND
0
POLYLINE
8
CUT
66
1
70
0
0
VERTEX
8
CUT
10
29.654
20
40.3154
0
VERTEX
8
CUT
10
33.654
20
40.3154
0
VERTEX
8
CUT
10
35.654
20
37.5441
0
SEQEND
0
POLYLINE
8
CUT
66
1
70
0
0
VERTEX
8
CUT
10
34.954
20
28.5231
0
VERTEX
8
CUT
10
33.054
20
25.8904
0
VERTEX
8
CUT
10
29.254
20
25.8904
0
VERTEX
8
CUT
10
27.354
20
28.5231
0
VERTEX
8
CUT
10
29.254
20
31.1558
0
VERTEX
8
CUT
10
33.054
20
31.1558
0
VERTEX
8
CUT
10
34.954
20
28.5231
0
SEQEND
0
POLYLINE
8
CUT
66
1
70
0
0
VERTEX
8
CUT
10
35.5688
20
27.7122
0
VERTEX
8
CUT
10
33.654
20
25.059
0
VERTEX
8
CUT
10
29.8244
20
25.059
0
SEQEND
0
POLYLINE
8
CUT
66
1
70
0
0
VERTEX
8
CUT
10
28.0688
20
25.8699
0
VERTEX
8
CUT
10
26.154
20
28.5231
0
VERTEX
8
CUT
10
28.0688
20
31.1763
0
SEQEND
0
POLYLINE
8
CUT
66
1
70
0
0
VERTEX
8
CUT
10
29.654
20
31.9872
0
VERTEX
8
CUT
10
33.654
20
31.9872
0
VERTEX
8
CUT
10
35.654
20
29.2159
0
SEQEND
0
POLYLINE
8
CUT
66
1
70
0
0
VERTEX
8
CUT
10
34.954
20
20.1949
0
VERTEX
8
CUT
10
33.054
20
17.5622
0
VERTEX
8
CUT
10
29.254
20
17.5622
0
VERTEX
8
CUT
10
27.354
20
20.1949
0
VERTEX
8
CUT
10
29.254
20
22.8276
0
VERTEX
8
CUT
10
33.054
20
22.8276
0
VERTEX
8
CUT
10
34.954
20
20.1949
0
SEQEND
0
POLYLINE
8
CUT
66
1
70
0
0
VERTEX
8
CUT
10
35.5688
20
19.384
0
VERTEX
8
CUT
10
33.654
20
16.7308
0
VERTEX
8
CUT
10
29.8244
20
16.7308
0
SEQEND
0
POLYLINE
8
CUT
66
1
70
0
0
VERTEX
8
CUT
10
28.0688
20
17.5417
0
VERTEX
8
CUT
10
26.154
20
20.1949
0
VERTEX
8
CUT
10
28.0688
20
22.8481
0
SEQEND
0
POLYLINE
8
CUT
66
1
70
0
0
VERTEX
8
CUT
10
29.654
20
23.659
0
VERTEX
8
CUT
10
33.654
20
23.659
0
VERTEX
8
CUT
10
35.654
20
20.8877
0
SEQEND
0
POLYLINE
8
CUT
66
1
70
0
0
VERTEX
8
CUT
10
34.954
20
11.8667
0
VERTEX
8
CUT
10
33.054
20
9.234
0
VERTEX
8
CUT
10
29.254
20
9.234
0
VERTEX
8
CUT
10
27.354
20
11.8667
0
VERTEX
8
CUT
10
29.254
20
14.4994
0
VERTEX
8
CUT
10
33.054
20
14.4994
0
VERTEX
8
CUT
10
34.954
20
11.8667
0
SEQEND
0
POLYLINE
8
CUT
66
1
70
0
0
VERTEX
8
CUT
10
35.5688
20
11.0558
0
VERTEX
8
CUT
10
33.654
20
8.4026
0
VERTEX
8
CUT
10
29.8244
20
8.4026
0
SEQEND
0
POLYLINE
8
CUT
66
1
70
0
0
VERTEX
8
CUT
10
28.0688
20
9.2135
0
VERTEX
8
CUT
10
26.154
20
11.8667
0
VERTEX
8
CUT
10
28.0688
20
14.5199
0
SEQEND
0
POLYLINE
8
CUT
66
1
70
0
0
VERTEX
8
CUT
10
29.654
20
15.3308
0
VERTEX
8
CUT
10
33.654
20
15.3308
0
VERTEX
8
CUT
10
35.654
20
12.5595
0
SEQEND
0
POLYLINE
8
CUT
66
1
70
0
0
VERTEX
8
CUT
10
34.954
20
3.5385
0
VERTEX
8
CUT
10
33.054
20
0.9058
0
VERTEX
8
CUT
10
29.254
20
0.9058
0
VERTEX
8
CUT
10
27.354
20
3.5385
0
VERTEX
8
CUT
10
29.254
20
6.1712
0
VERTEX
8
CUT
10
33.054
20
6.1712
0
VERTEX
8
CUT
10
34.954
20
3.5385
0
SEQEND
0
POLYLINE
8
CUT
66
1
70
0
0
VERTEX
8
CUT
10
35.5688
20
2.7276
0
VERTEX
8
CUT
10
33.654
20
0.0744
0
VERTEX
8
CUT
10
29.8244
20
0.0744
0
SEQEND
0
POLYLINE
8
CUT
66
1
70
0
0
VERTEX
8
CUT
10
28.0688
20
0.8853
0
VERTEX
8
CUT
10
26.154
20
3.5385
0
VERTEX
8
CUT
10
28.0688
20
6.1917
0
SEQEND
0
POLYLINE
8
CUT
66
1
70
0
0
VERTEX
8
CUT
10
29.654
20
7.0026
0
VERTEX
8
CUT
10
33.654
20
7.0026
0
VERTEX
8
CUT
10
35.654
20
4.2313
0
SEQEND
0
POLYLINE
8
CUT
66
1
70
0
0
VERTEX
8
CUT
10
43.672
20
66
0
VERTEX
8
CUT
10
41.772
20
63.3673
0
VERTEX
8
CUT
10
37.972
20
63.3673
0
VERTEX
8
CUT
10
36.072
20
66
0
VERTEX
8
CUT
10
37.972
20
68.6327
0
VERTEX
8
CUT
10
41.772
20
68.6327
0
VERTEX
8
CUT
10
43.672
20
66
0
SEQEND
0
POLYLINE
8
CUT
66
1
70
0
0
VERTEX
8
CUT
10
44.2868
20
65.1891
0
VERTEX
8
CUT
10
42.372
20
62.5359
0
VERTEX
8
CUT
10
38.5424
20
62.5359
0
SEQEND
0
POLYLINE
8
CUT
66
1
70
0
0
VERTEX
8
CUT
10
36.7868
20
63.3468
0
VERTEX
8
CUT
10
34.872
20
66
0
VERTEX
8
CUT
10
36.7868
20
68.6532
0
SEQEND
0
POLYLINE
8
CUT
66
1
70
0
0
VERTEX
8
CUT
10
38.372
20
69.4641
0
VERTEX
8
CUT
10
42.372
20
69.4641
0
VERTEX
8
CUT
10
44.372
20
66.6928
0
SEQEND
0
POLYLINE
8
CUT
66
1
70
0
0
VERTEX
8
CUT
10
43.672
20
57.6718
0
VERTEX
8
CUT
10
41.772
20
55.0391
0
VERTEX
8
CUT
10
37.972
20
55.0391
0
VERTEX
8
CUT
10
36.072
20
57.6718
0
VERTEX
8
CUT
10
37.972
20
60.3045
0
VERTEX
8
CUT
10
41.772
20
60.3045
0
VERTEX
8
CUT
10
43.672
20
57.6718
0
SEQEND
0
POLYLINE
8
CUT
66
1
70
0
0
VERTEX
8
CUT
10
44.2868
20
56.8609
0
VERTEX
8
CUT
10
42.372
20
54.2077
0
VERTEX
8
CUT
10
38.5424
20
54.2077
0
SEQEND
0
POLYLINE
8
CUT
66
1
70
0
0
VERTEX
8
CUT
10
36.7868
20
55.0186
0
VERTEX
8
CUT
10
34.872
20
57.6718
0
VERTEX
8
CUT
10
36.7868
20
60.325
0
SEQEND
0
POLYLINE
8
CUT
66
1
70
0
0
VERTEX
8
CUT
10
38.372
20
61.1359
0
VERTEX
8
CUT
10
42.372
20
61.1359
0
VERTEX
8
CUT
10
44.372
20
58.3646
0
SEQEND
0
POLYLINE
8
CUT
66
1
70
0
0
VERTEX
8
CUT
10
43.672
20
49.3436
0
VERTEX
8
CUT
10
41.772
20
46.7109
0
VERTEX
8
CUT
10
37.972
20
46.7109
0
VERTEX
8
CUT
10
36.072
20
49.3436
0
VERTEX
8
CUT
10
37.972
20
51.9763
0
VERTEX
8
CUT
10
41.772
20
51.9763
0
VERTEX
8
CUT
10
43.672
20
49.3436
0
SEQEND
0
POLYLINE
8
CUT
66
1
70
0
0
VERTEX
8
CUT
10
44.2868
20
48.5327
0
VERTEX
8
CUT
10
42.372
20
45.8795
0
VERTEX
8
CUT
10
38.5424
20
45.8795
0
SEQEND
0
POLYLINE
8
CUT
66
1
70
0
0
VERTEX
8
CUT
10
36.7868
20
46.6904
0
VERTEX
8
CUT
10
34.872
20
49.3436
0
VERTEX
8
CUT
10
36.7868
20
51.9968
0
SEQEND
0
POLYLINE
8
CUT
66
1
70
0
0
VERTEX
8
CUT
10
38.372
20
52.8077
0
VERTEX
8
CUT
10
42.372
20
52.8077
0
VERTEX
8
CUT
10
44.372
20
50.0364
0
SEQEND
0
POLYLINE
8
CUT
66
1
70
0
0
VERTEX
8
CUT
10
43.672
20
41.0154
0
VERTEX
8
CUT
10
41.772
20
38.3827
0
VERTEX
8
CUT
10
37.972
20
38.3827
0
VERTEX
8
CUT
10
36.072
20
41.0154
0
VERTEX
8
CUT
10
37.972
20
43.6481
0
VERTEX
8
CUT
10
41.772
20
43.6481
0
VERTEX
8
CUT
10
43.672
20
41.0154
0
SEQEND
0
POLYLINE
8
CUT
66
1
70
0
0
VERTEX
8
CUT
10
44.2868
20
40.2045
0
VERTEX
8
CUT
10
42.372
20
37.5513
0
VERTEX
8
CUT
10
38.5424
20
37.5513
0
SEQEND
0
POLYLINE
8
CUT
66
1
70
0
0
VERTEX
8
CUT
10
36.7868
20
38.3622
0
VERTEX
8
CUT
10
34.872
20
41.0154
0
VERTEX
8
CUT
10
36.7868
20
43.6686
0
SEQEND
0
POLYLINE
8
CUT
66
1
70
0
0
VERTEX
8
CUT
10
38.372
20
44.4795
0
VERTEX
8
CUT
10
42.372
20
44.4795
0
VERTEX
8
CUT
10
44.372
20
41.7082
0
SEQEND
0
POLYLINE
8
CUT
66
1
70
0
0
VERTEX
8
CUT
10
43.672
20
32.6872
0
VERTEX
8
CUT
10
41.772
20
30.0545
0
VERTEX
8
CUT
10
37.972
20
30.0545
0
VERTEX
8
CUT
10
36.072
20
32.6872
0
VERTEX
8
CUT
10
37.972
20
35.3199
0
VERTEX
8
CUT
10
41.772
20
35.3199
0
VERTEX
8
CUT
10
43.672
20
32.6872
0
SEQEND
0
POLYLINE
8
CUT
66
1
70
0
0
VERTEX
8
CUT
10
44.2868
20
31.8763
0
VERTEX
8
CUT
10
42.372
20
29.2231
0
VERTEX
8
CUT
10
38.5424
20
29.2231
0
SEQEND
0
POLYLINE
8
CUT
66
1
70
0
0
VERTEX
8
CUT
10
36.7868
20
30.034
0
VERTEX
8
CUT
10
34.872
20
32.6872
0
VERTEX
8
CUT
10
36.7868
20
35.3404
0
SEQEND
0
POLYLINE
8
CUT
66
1
70
0
0
VERTEX
8
CUT
10
38.372
20
36.1513
0
VERTEX
8
CUT
10
42.372
20
36.1513
0
VERTEX
8
CUT
10
44.372
20
33.38
0
SEQEND
0
POLYLINE
8
CUT
66
1
70
0
0
VERTEX
8
CUT
10
43.672
20
24.359
0
VERTEX
8
CUT
10
41.772
20
21.7263
0
VERTEX
8
CUT
10
37.972
20
21.7263
0
VERTEX
8
CUT
10
36.072
20
24.359
0
VERTEX
8
CUT
10
37.972
20
26.9917
0
VERTEX
8
CUT
10
41.772
20
26.9917
0
VERTEX
8
CUT
10
43.672
20
24.359
0
SEQEND
0
POLYLINE
8
CUT
66
1
70
0
0
VERTEX
8
CUT
10
44.2868
20
23.5481
0
VERTEX
8
CUT
10
42.372
20
20.8949
0
VERTEX
8
CUT
10
38.5424
20
20.8949
0
SEQEND
0
POLYLINE
8
CUT
66
1
70
0
0
VERTEX
8
CUT
10
36.7868
20
21.7058
0
VERTEX
8
CUT
10
34.872
20
24.359
0
VERTEX
8
CUT
10
36.7868
20
27.0122
0
SEQEND
0
POLYLINE
8
CUT
66
1
70
0
0
VERTEX
8
CUT
10
38.372
20
27.8231
0
VERTEX
8
CUT
10
42.372
20
27.8231
0
VERTEX
8
CUT
10
44.372
20
25.0518
0
SEQEND
0
POLYLINE
8
CUT
66
1
70
0
0
VERTEX
8
CUT
10
43.672
20
16.0308
0
VERTEX
8
CUT
10
41.772
20
13.3981
0
VERTEX
8
CUT
10
37.972
20
13.3981
0
VERTEX
8
CUT
10
36.072
20
16.0308
0
VERTEX
8
CUT
10
37.972
20
18.6635
0
VERTEX
8
CUT
10
41.772
20
18.6635
0
VERTEX
8
CUT
10
43.672
20
16.0308
0
SEQEND
0
POLYLINE
8
CUT
66
1
70
0
0
VERTEX
8
CUT
10
44.2868
20
15.2199
0
VERTEX
8
CUT
10
42.372
20
12.5667
0
VERTEX
8
CUT
10
38.5424
20
12.5667
0
SEQEND
0
POLYLINE
8
CUT
66
1
70
0
0
VERTEX
8
CUT
10
36.7868
20
13.3776
0
VERTEX
8
CUT
10
34.872
20
16.0308
0
VERTEX
8
CUT
10
36.7868
20
18.684
0
SEQEND
0
POLYLINE
8
CUT
66
1
70
0
0
VERTEX
8
CUT
10
38.372
20
19.4949
0
VERTEX
8
CUT
10
42.372
20
19.4949
0
VERTEX
8
CUT
10
44.372
20
16.7236
0
SEQEND
0
POLYLINE
8
CUT
66
1
70
0
0
VERTEX
8
CUT
10
43.672
20
7.7026
0
VERTEX
8
CUT
10
41.772
20
5.0699
0
VERTEX
8
CUT
10
37.972
20
5.0699
0
VERTEX
8
CUT
10
36.072
20
7.7026
0
VERTEX
8
CUT
10
37.972
20
10.3353
0
VERTEX
8
CUT
10
41.772
20
10.3353
0
VERTEX
8
CUT
10
43.672
20
7.7026
0
SEQEND
0
POLYLINE
8
CUT
66
1
70
0
0
VERTEX
8
CUT
10
44.2868
20
6.8917
0
VERTEX
8
CUT
10
42.372
20
4.2385
0
VERTEX
8
CUT
10
38.5424
20
4.2385
0
SEQEND
0
POLYLINE
8
CUT
66
1
70
0
0
VERTEX
8
CUT
10
36.7868
20
5.0494
0
VERTEX
8
CUT
10
34.872
20
7.7026
0
VERTEX
8
CUT
10
36.7868
20
10.3558
0
SEQEND
0
POLYLINE
8
CUT
66
1
70
0
0
VERTEX
8
CUT
10
38.372
20
11.1667
0
VERTEX
8
CUT
10
42.372
20
11.1667
0
VERTEX
8
CUT
10
44.372
20
8.3954
0
SEQEND
0
POLYLINE
8
CUT
66
1
70
0
0
VERTEX
8
CUT
10
36.5235
20
0
0
VERTEX
8
CUT
10
37.972
20
2.0071
0
VERTEX
8
CUT
10
41.772
20
2.0071
0
VERTEX
8
CUT
10
43.2205
20
0
0
SEQEND
0
LINE
8
CUT
10
35.3235
20
0
11
36.7868
21
2.0276
0
POLYLINE
8
CUT
66
1
70
0
0
VERTEX
8
CUT
10
38.372
20
2.8385
0
VERTEX
8
CUT
10
42.372
20
2.8385
0
VERTEX
8
CUT
10
44.372
20
0.0672
0
SEQEND
0
POLYLINE
8
CUT
66
1
70
0
0
VERTEX
8
CUT
10
52.2716
20
70
0
VERTEX
8
CUT
10
50.49
20
67.5314
0
VERTEX
8
CUT
10
46.69
20
67.5314
0
VERTEX
8
CUT
10
44.9084
20
70
0
SEQEND
0
POLYLINE
8
CUT
66
1
70
0
0
VERTEX
8
CUT
10
53.0048
20
69.3532
0
VERTEX
8
CUT
10
51.09
20
66.7
0
VERTEX
8
CUT
10
47.2604
20
66.7
0
SEQEND
0
LINE
8
CUT
10
45.5048
20
67.5109
11
43.7084
21
70
0
POLYLINE
8
CUT
66
1
70
0
0
VERTEX
8
CUT
10
52.39
20
61.8359
0
VERTEX
8
CUT
10
50.49
20
59.2032
0
VERTEX
8
CUT
10
46.69
20
59.2032
0
VERTEX
8
CUT
10
44.79
20
61.8359
0
VERTEX
8
CUT
10
46.69
20
64.4686
0
VERTEX
8
CUT
10
50.49
20
64.4686
0
VERTEX
8
CUT
10
52.39
20
61.8359
0
SEQEND
0
POLYLINE
8
CUT
66
1
70
0
0
VERTEX
8
CUT
10
53.0048
20
61.025
0
VERTEX
8
CUT
10
51.09
20
58.3718
0
VERTEX
8
CUT
10
47.2604
20
58.3718
0
SEQEND
0
POLYLINE
8
CUT
66
1
70
0
0
VERTEX
8
CUT
10
45.5048
20
59.1827
0
VERTEX
8
CUT
10
43.59
20
61.8359
0
VERTEX
8
CUT
10
45.5048
20
64.4891
0
SEQEND
0
POLYLINE
8
CUT
66
1
70
0
0
VERTEX
8
CUT
10
47.09
20
65.3
0
VERTEX
8
CUT
10
51.09
20
65.3
0
VERTEX
8
CUT
10
53.09
20
62.5287
0
SEQEND
0
POLYLINE
8
CUT
66
1
70
0
0
VERTEX
8
CUT
10
52.39
20
53.5077
0
VERTEX
8
CUT
10
50.49
20
50.875
0
VERTEX
8
CUT
10
46.69
20
50.875
0
VERTEX
8
CUT
10
44.79
20
53.5077
0
VERTEX
8
CUT
10
46.69
20
56.1404
0
VERTEX
8
CUT
10
50.49
20
56.1404
0
VERTEX
8
CUT
10
52.39
20
53.5077
0
SEQEND
0
POLYLINE
8
CUT
66
1
70
0
0
VERTEX
8
CUT
10
53.0048
20
52.6968
0
VERTEX
8
CUT
10
51.09
20
50.0436
0
VERTEX
8
CUT
10
47.2604
20
50.0436
0
SEQEND
0
POLYLINE
8
CUT
66
1
70
0
0
VERTEX
8
CUT
10
45.5048
20
50.8545
0
VERTEX
8
CUT
10
43.59
20
53.5077
0
VERTEX
8
CUT
10
45.5048
20
56.1609
0
SEQEND
0
POLYLINE
8
CUT
66
1
70
0
0
VERTEX
8
CUT
10
47.09
20
56.9718
0
VERTEX
8
CUT
10
51.09
20
56.9718
0
VERTEX
8
CUT
10
53.09
20
54.2005
0
SEQEND
0
POLYLINE
8
CUT
66
1
70
0
0
VERTEX
8
CUT
10
52.39
20
45.1795
0
VERTEX
8
CUT
10
50.49
20
42.5468
0
VERTEX
8
CUT
10
46.69
20
42.5468
0
VERTEX
8
CUT
10
44.79
20
45.1795
0
VERTEX
8
CUT
10
46.69
20
47.8122
0
VERTEX
8
CUT
10
50.49
20
47.8122
0
VERTEX
8
CUT
10
52.39
20
45.1795
0
SEQEND
0
POLYLINE
8
CUT
66
1
70
0
0
VERTEX
8
CUT
10
53.0048
20
44.3686
0
VERTEX
8
CUT
10
51.09
20
41.7154
0
VERTEX
8
CUT
10
47.2604
20
41.7154
0
SEQEND
0
POLYLINE
8
CUT
66
1
70
0
0
VERTEX
8
CUT
10
45.5048
20
42.5263
0
VERTEX
8
CUT
10
43.59
20
45.1795
0
VERTEX
8
CUT
10
45.5048
20
47.8327
0
SEQEND
0
POLYLINE
8
CUT
66
1
70
0
0
VERTEX
8
CUT
10
47.09
20
48.6436
0
VERTEX
8
CUT
10
51.09
20
48.6436
0
VERTEX
8
CUT
10
53.09
20
45.8723
0
SEQEND
0
POLYLINE
8
CUT
66
1
70
0
0
VERTEX
8
CUT
10
52.39
20
36.8513
0
VERTEX
8
CUT
10
50.49
20
34.2186
0
VERTEX
8
CUT
10
46.69
20
34.2186
0
VERTEX
8
CUT
10
44.79
20
36.8513
0
VERTEX
8
CUT
10
46.69
20
39.484
0
VERTEX
8
CUT
10
50.49
20
39.484
0
VERTEX
8
CUT
10
52.39
20
36.8513
0
SEQEND
0
POLYLINE
8
CUT
66
1
70
0
0
VERTEX
8
CUT
10
53.0048
20
36.0404
0
VERTEX
8
CUT
10
51.09
20
33.3872
0
VERTEX
8
CUT
10
47.2604
20
33.3872
0
SEQEND
0
POLYLINE
8
CUT
66
1
70
0
0
VERTEX
8
CUT
10
45.5048
20
34.1981
0
VERTEX
8
CUT
10
43.59
20
36.8513
0
VERTEX
8
CUT
10
45.5048
20
39.5045
0
SEQEND
0
POLYLINE
8
CUT
66
1
70
0
0
VERTEX
8
CUT
10
47.09
20
40.3154
0
VERTEX
8
CUT
10
51.09
20
40.3154
0
VERTEX
8
CUT
10
53.09
20
37.5441
0
SEQEND
0
POLYLINE
8
CUT
66
1
70
0
0
VERTEX
8
CUT
10
52.39
20
28.5231
0
VERTEX
8
CUT
10
50.49
20
25.8904
0
VERTEX
8
CUT
10
46.69
20
25.8904
0
VERTEX
8
CUT
10
44.79
20
28.5231
0
VERTEX
8
CUT
10
46.69
20
31.1558
0
VERTEX
8
CUT
10
50.49
20
31.1558
0
VERTEX
8
CUT
10
52.39
20
28.5231
0
SEQEND
0
POLYLINE
8
CUT
66
1
70
0
0
VERTEX
8
CUT
10
53.0048
20
27.7122
0
VERTEX
8
CUT
10
51.09
20
25.059
0
VERTEX
8
CUT
10
47.2604
20
25.059
0
SEQEND
0
POLYLINE
8
CUT
66
1
70
0
0
VERTEX
8
CUT
10
45.5048
20
25.8699
0
VERTEX
8
CUT
10
43.59
20
28.5231
0
VERTEX
8
CUT
10
45.5048
20
31.1763
0
SEQEND
0
POLYLINE
8
CUT
66
1
70
0
0
VERTEX
8
CUT
10
47.09
20
31.9872
0
VERTEX
8
CUT
10
51.09
20
31.9872
0
VERTEX
8
CUT
10
53.09
20
29.2159
0
SEQEND
0
POLYLINE
8
CUT
66
1
70
0
0
VERTEX
8
CUT
10
52.39
20
20.1949
0
VERTEX
8
CUT
10
50.49
20
17.5622
0
VERTEX
8
CUT
10
46.69
20
17.5622
0
VERTEX
8
CUT
10
44.79
20
20.1949
0
VERTEX
8
CUT
10
46.69
20
22.8276
0
VERTEX
8
CUT
10
50.49
20
22.8276
0
VERTEX
8
CUT
10
52.39
20
20.1949
0
SEQEND
0
POLYLINE
8
CUT
66
1
70
0
0
VERTEX
8
CUT
10
53.0048
20
19.384
0
VERTEX
8
CUT
10
51.09
20
16.7308
0
VERTEX
8
CUT
10
47.2604
20
16.7308
0
SEQEND
0
POLYLINE
8
CUT
66
1
70
0
0
VERTEX
8
CUT
10
45.5048
20
17.5417
0
VERTEX
8
CUT
10
43.59
20
20.1949
0
VERTEX
8
CUT
10
45.5048
20
22.8481
0
SEQEND
0
POLYLINE
8
CUT
66
1
70
0
0
VERTEX
8
CUT
10
47.09
20
23.659
0
VERTEX
8
CUT
10
51.09
20
23.659
0
VERTEX
8
CUT
10
53.09
20
20.8877
0
SEQEND
0
POLYLINE
8
CUT
66
1
70
0
0
VERTEX
8
CUT
10
52.39
20
11.8667
0
VERTEX
8
CUT
10
50.49
20
9.234
0
VERTEX
8
CUT
10
46.69
20
9.234
0
VERTEX
8
CUT
10
44.79
20
11.8667
0
VERTEX
8
CUT
10
46.69
20
14.4994
0
VERTEX
8
CUT
10
50.49
20
14.4994
0
VERTEX
8
CUT
10
52.39
20
11.8667
0
SEQEND
0
POLYLINE
8
CUT
66
1
70
0
0
VERTEX
8
CUT
10
53.0048
20
11.0558
0
VERTEX
8
CUT
10
51.09
20
8.4026
0
VERTEX
8
CUT
10
47.2604
20
8.4026
0
SEQEND
0
POLYLINE
8
CUT
66
1
70
0
0
VERTEX
8
CUT
10
45.5048
20
9.2135
0
VERTEX
8
CUT
10
43.59
20
11.8667
0
VERTEX
8
CUT
10
45.5048
20
14.5199
0
SEQEND
0
POLYLINE
8
CUT
66
1
70
0
0
VERTEX
8
CUT
10
47.09
20
15.3308
0
VERTEX
8
CUT
10
51.09
20
15.3308
0
VERTEX
8
CUT
10
53.09
20
12.5595
0
SEQEND
0
POLYLINE
8
CUT
66
1
70
0
0
VERTEX
8
CUT
10
52.39
20
3.5385
0
VERTEX
8
CUT
10
50.49
20
0.9058
0
VERTEX
8
CUT
10
46.69
20
0.9058
0
VERTEX
8
CUT
10
44.79
20
3.5385
0
VERTEX
8
CUT
10
46.69
20
6.1712
0
VERTEX
8
CUT
10
50.49
20
6.1712
0
VERTEX
8
CUT
10
52.39
20
3.5385
0
SEQEND
0
POLYLINE
8
CUT
66
1
70
0
0
VERTEX
8
CUT
10
53.0048
20
2.7276
0
VERTEX
8
CUT
10
51.09
20
0.0744
0
VERTEX
8
CUT
10
47.2604
20
0.0744
0
SEQEND
0
POLYLINE
8
CUT
66
1
70
0
0
VERTEX
8
CUT
10
45.5048
20
0.8853
0
VERTEX
8
CUT
10
43.59
20
3.5385
0
VERTEX
8
CUT
10
45.5048
20
6.1917
0
SEQEND
0
POLYLINE
8
CUT
66
1
70
0
0
VERTEX
8
CUT
10
47.09
20
7.0026
0
VERTEX
8
CUT
10
51.09
20
7.0026
0
VERTEX
8
CUT
10
53.09
20
4.2313
0
SEQEND
0
POLYLINE
8
CUT
66
1
70
0
0
VERTEX
8
CUT
10
61.108
20
66
0
VERTEX
8
CUT
10
59.208
20
63.3673
0
VERTEX
8
CUT
10
55.408
20
63.3673
0
VERTEX
8
CUT
10
53.508
20
66
0
VERTEX
8
CUT
10
55.408
20
68.6327
0
VERTEX
8
CUT
10
59.208
20
68.6327
0
VERTEX
8
CUT
10
61.108
20
66
0
SEQEND
0
POLYLINE
8
CUT
66
1
70
0
0
VERTEX
8
CUT
10
61.7228
20
65.1891
0
VERTEX
8
CUT
10
59.808
20
62.5359
0
VERTEX
8
CUT
10
55.9784
20
62.5359
0
SEQEND
0
POLYLINE
8
CUT
66
1
70
0
0
VERTEX
8
CUT
10
54.2228
20
63.3468
0
VERTEX
8
CUT
10
52.308
20
66
0
VERTEX
8
CUT
10
54.2228
20
68.6532
0
SEQEND
0
POLYLINE
8
CUT
66
1
70
0
0
VERTEX
8
CUT
10
55.808
20
69.4641
0
VERTEX
8
CUT
10
59.808
20
69.4641
0
VERTEX
8
CUT
10
61.808
20
66.6928
0
SEQEND
0
POLYLINE
8
CUT
66
1
70
0
0
VERTEX
8
CUT
10
61.108
20
57.6718
0
VERTEX
8
CUT
10
59.208
20
55.0391
0
VERTEX
8
CUT
10
55.408
20
55.0391
0
VERTEX
8
CUT
10
53.508
20
57.6718
0
VERTEX
8
CUT
10
55.408
20
60.3045
0
VERTEX
8
CUT
10
59.208
20
60.3045
0
VERTEX
8
CUT
10
61.108
20
57.6718
0
SEQEND
0
POLYLINE
8
CUT
66
1
70
0
0
VERTEX
8
CUT
10
61.7228
20
56.8609
0
VERTEX
8
CUT
10
59.808
20
54.2077
0
VERTEX
8
CUT
10
55.9784
20
54.2077
0
SEQEND
0
POLYLINE
8
CUT
66
1
70
0
0
VERTEX
8
CUT
10
54.2228
20
55.0186
0
VERTEX
8
CUT
10
52.308
20
57.6718
0
VERTEX
8
CUT
10
54.2228
20
60.325
0
SEQEND
0
POLYLINE
8
CUT
66
1
70
0
0
VERTEX
8
CUT
10
55.808
20
61.1359
0
VERTEX
8
CUT
10
59.808
20
61.1359
0
VERTEX
8
CUT
10
61.808
20
58.3646
0
SEQEND
0
POLYLINE
8
CUT
66
1
70
0
0
VERTEX
8
CUT
10
61.108
20
49.3436
0
VERTEX
8
CUT
10
59.208
20
46.7109
0
VERTEX
8
CUT
10
55.408
20
46.7109
0
VERTEX
8
CUT
10
53.508
20
49.3436
0
VERTEX
8
CUT
10
55.408
20
51.9763
0
VERTEX
8
CUT
10
59.208
20
51.9763
0
VERTEX
8
CUT
10
61.108
20
49.3436
0
SEQEND
0
POLYLINE
8
CUT
66
1
70
0
0
VERTEX
8
CUT
10
61.7228
20
48.5327
0
VERTEX
8
CUT
10
59.808
20
45.8795
0
VERTEX
8
CUT
10
55.9784
20
45.8795
0
SEQEND
0
POLYLINE
8
CUT
66
1
70
0
0
VERTEX
8
CUT
10
54.2228
20
46.6904
0
VERTEX
8
CUT
10
52.308
20
49.3436
0
VERTEX
8
CUT
10
54.2228
20
51.9968
0
SEQEND
0
POLYLINE
8
CUT
66
1
70
0
0
VERTEX
8
CUT
10
55.808
20
52.8077
0
VERTEX
8
CUT
10
59.808
20
52.8077
0
VERTEX
8
CUT
10
61.808
20
50.0364
0
SEQEND
0
POLYLINE
8
CUT
66
1
70
0
0
VERTEX
8
CUT
10
61.108
20
41.0154
0
VERTEX
8
CUT
10
59.208
20
38.3827
0
VERTEX
8
CUT
10
55.408
20
38.3827
0
VERTEX
8
CUT
10
53.508
20
41.0154
0
VERTEX
8
CUT
10
55.408
20
43.6481
0
VERTEX
8
CUT
10
59.208
20
43.6481
0
VERTEX
8
CUT
10
61.108
20
41.0154
0
SEQEND
0
POLYLINE
8
CUT
66
1
70
0
0
VERTEX
8
CUT
10
61.7228
20
40.2045
0
VERTEX
8
CUT
10
59.808
20
37.5513
0
VERTEX
8
CUT
10
55.9784
20
37.5513
0
SEQEND
0
POLYLINE
8
CUT
66
1
70
0
0
VERTEX
8
CUT
10
54.2228
20
38.3622
0
VERTEX
8
CUT
10
52.308
20
41.0154
0
VERTEX
8
CUT
10
54.2228
20
43.6686
0
SEQEND
0
POLYLINE
8
CUT
66
1
70
0
0
VERTEX
8
CUT
10
55.808
20
44.4795
0
VERTEX
8
CUT
10
59.808
20
44.4795
0
VERTEX
8
CUT
10
61.808
20
41.7082
0
SEQEND
0
POLYLINE
8
CUT
66
1
70
0
0
VERTEX
8
CUT
10
61.108
20
32.6872
0
VERTEX
8
CUT
10
59.208
20
30.0545
0
VERTEX
8
CUT
10
55.408
20
30.0545
0
VERTEX
8
CUT
10
53.508
20
32.6872
0
VERTEX
8
CUT
10
55.408
20
35.3199
0
VERTEX
8
CUT
10
59.208
20
35.3199
0
VERTEX
8
CUT
10
61.108
20
32.6872
0
SEQEND
0
POLYLINE
8
CUT
66
1
70
0
0
VERTEX
8
CUT
10
61.7228
20
31.8763
0
VERTEX
8
CUT
10
59.808
20
29.2231
0
VERTEX
8
CUT
10
55.9784
20
29.2231
0
SEQEND
0
POLYLINE
8
CUT
66
1
70
0
0
VERTEX
8
CUT
10
54.2228
20
30.034
0
VERTEX
8
CUT
10
52.308
20
32.6872
0
VERTEX
8
CUT
10
54.2228
20
35.3404
0
SEQEND
0
POLYLINE
8
CUT
66
1
70
0
0
VERTEX
8
CUT
10
55.808
20
36.1513
0
VERTEX
8
CUT
10
59.808
20
36.1513
0
VERTEX
8
CUT
10
61.808
20
33.38
0
SEQEND
0
POLYLINE
8
CUT
66
1
70
0
0
VERTEX
8
CUT
10
61.108
20
24.359
0
VERTEX
8
CUT
10
59.208
20
21.7263
0
VERTEX
8
CUT
10
55.408
20
21.7263
0
VERTEX
8
CUT
10
53.508
20
24.359
0
VERTEX
8
CUT
10
55.408
20
26.9917
0
VERTEX
8
CUT
10
59.208
20
26.9917
0
VERTEX
8
CUT
10
61.108
20
24.359
0
SEQEND
0
POLYLINE
8
CUT
66
1
70
0
0
VERTEX
8
CUT
10
61.7228
20
23.5481
0
VERTEX
8
CUT
10
59.808
20
20.8949
0
VERTEX
8
CUT
10
55.9784
20
20.8949
0
SEQEND
0
POLYLINE
8
CUT
66
1
70
0
0
VERTEX
8
CUT
10
54.2228
20
21.7058
0
VERTEX
8
CUT
10
52.308
20
24.359
0
VERTEX
8
CUT
10
54.2228
20
27.0122
0
SEQEND
0
POLYLINE
8
CUT
66
1
70
0
0
VERTEX
8
CUT
10
55.808
20
27.8231
0
VERTEX
8
CUT
10
59.808
20
27.8231
0
VERTEX
8
CUT
10
61.808
20
25.0518
0
SEQEND
0
POLYLINE
8
CUT
66
1
70
0
0
VERTEX
8
CUT
10
61.108
20
16.0308
0
VERTEX
8
CUT
10
59.208
20
13.3981
0
VERTEX
8
CUT
10
55.408
20
13.3981
0
VERTEX
8
CUT
10
53.508
20
16.0308
0
VERTEX
8
CUT
10
55.408
20
18.6635
0
VERTEX
8
CUT
10
59.208
20
18.6635
0
VERTEX
8
CUT
10
61.108
20
16.0308
0
SEQEND
0
POLYLINE
8
CUT
66
1
70
0
0
VERTEX
8
CUT
10
61.7228
20
15.2199
0
VERTEX
8
CUT
10
59.808
20
12.5667
0
VERTEX
8
CUT
10
55.9784
20
12.5667
0
SEQEND
0
POLYLINE
8
CUT
66
1
70
0
0
VERTEX
8
CUT
10
54.2228
20
13.3776
0
VERTEX
8
CUT
10
52.308
20
16.0308
0
VERTEX
8
CUT
10
54.2228
20
18.684
0
SEQEND
0
POLYLINE
8
CUT
66
1
70
0
0
VERTEX
8
CUT
10
55.808
20
19.4949
0
VERTEX
8
CUT
10
59.808
20
19.4949
0
VERTEX
8
CUT
10
61.808
20
16.7236
0
SEQEND
0
POLYLINE
8
CUT
66
1
70
0
0
VERTEX
8
CUT
10
61.108
20
7.7026
0
VERTEX
8
CUT
10
59.208
20
5.0699
0
VERTEX
8
CUT
10
55.408
20
5.0699
0
VERTEX
8
CUT
10
53.508
20
7.7026
0
VERTEX
8
CUT
10
55.408
20
10.3353
0
VERTEX
8
CUT
10
59.208
20
10.3353
0
VERTEX
8
CUT
10
61.108
20
7.7026
0
SEQEND
0
POLYLINE
8
CUT
66
1
70
0
0
VERTEX
8
CUT
10
61.7228
20
6.8917
0
VERTEX
8
CUT
10
59.808
20
4.2385
0
VERTEX
8
CUT
10
55.9784
20
4.2385
0
SEQEND
0
POLYLINE
8
CUT
66
1
70
0
0
VERTEX
8
CUT
10
54.2228
20
5.0494
0
VERTEX
8
CUT
10
52.308
20
7.7026
0
VERTEX
8
CUT
10
54.2228
20
10.3558
0
SEQEND
0
POLYLINE
8
CUT
66
1
70
0
0
VERTEX
8
CUT
10
55.808
20
11.1667
0
VERTEX
8
CUT
10
59.808
20
11.1667
0
VERTEX
8
CUT
10
61.808
20
8.3954
0
SEQEND
0
POLYLINE
8
CUT
66
1
70
0
0
VERTEX
8
CUT
10
53.9595
20
0
0
VERTEX
8
CUT
10
55.408
20
2.0071
0
VERTEX
8
CUT
10
59.208
20
2.0071
0
VERTEX
8
CUT
10
60.6565
20
0
0
SEQEND
0
LINE
8
CUT
10
52.7595
20
0
11
54.2228
21
2.0276
0
POLYLINE
8
CUT
66
1
70
0
0
VERTEX
8
CUT
10
55.808
20
2.8385
0
VERTEX
8
CUT
10
59.808
20
2.8385
0
VERTEX
8
CUT
10
61.808
20
0.0672
0
SEQEND
0
POLYLINE
8
CUT
66
1
70
0
0
VERTEX
8
CUT
10
69.7076
20
70
0
VERTEX
8
CUT
10
67.926
20
67.5314
0
VERTEX
8
CUT
10
64.126
20
67.5314
0
VERTEX
8
CUT
10
62.3444
20
70
0
SEQEND
0
POLYLINE
8
CUT
66
1
70
0
0
VERTEX
8
CUT
10
70.4408
20
69.3532
0
VERTEX
8
CUT
10
68.526
20
66.7
0
VERTEX
8
CUT
10
64.6964
20
66.7
0
SEQEND
0
LINE
8
CUT
10
62.9408
20
67.5109
11
61.1444
21
70
0
POLYLINE
8
CUT
66
1
70
0
0
VERTEX
8
CUT
10
69.826
20
61.8359
0
VERTEX
8
CUT
10
67.926
20
59.2032
0
VERTEX
8
CUT
10
64.126
20
59.2032
0
VERTEX
8
CUT
10
62.226
20
61.8359
0
VERTEX
8
CUT
10
64.126
20
64.4686
0
VERTEX
8
CUT
10
67.926
20
64.4686
0
VERTEX
8
CUT
10
69.826
20
61.8359
0
SEQEND
0
POLYLINE
8
CUT
66
1
70
0
0
VERTEX
8
CUT
10
70.4408
20
61.025
0
VERTEX
8
CUT
10
68.526
20
58.3718
0
VERTEX
8
CUT
10
64.6964
20
58.3718
0
SEQEND
0
POLYLINE
8
CUT
66
1
70
0
0
VERTEX
8
CUT
10
62.9408
20
59.1827
0
VERTEX
8
CUT
10
61.026
20
61.8359
0
VERTEX
8
CUT
10
62.9408
20
64.4891
0
SEQEND
0
POLYLINE
8
CUT
66
1
70
0
0
VERTEX
8
CUT
10
64.526
20
65.3
0
VERTEX
8
CUT
10
68.526
20
65.3
0
VERTEX
8
CUT
10
70.526
20
62.5287
0
SEQEND
0
POLYLINE
8
CUT
66
1
70
0
0
VERTEX
8
CUT
10
69.826
20
53.5077
0
VERTEX
8
CUT
10
67.926
20
50.875
0
VERTEX
8
CUT
10
64.126
20
50.875
0
VERTEX
8
CUT
10
62.226
20
53.5077
0
VERTEX
8
CUT
10
64.126
20
56.1404
0
VERTEX
8
CUT
10
67.926
20
56.1404
0
VERTEX
8
CUT
10
69.826
20
53.5077
0
SEQEND
0
POLYLINE
8
CUT
66
1
70
0
0
VERTEX
8
CUT
10
70.4408
20
52.6968
0
VERTEX
8
CUT
10
68.526
20
50.0436
0
VERTEX
8
CUT
10
64.6964
20
50.0436
0
SEQEND
0
POLYLINE
8
CUT
66
1
70
0
0
VERTEX
8
CUT
10
62.9408
20
50.8545
0
VERTEX
8
CUT
10
61.026
20
53.5077
0
VERTEX
8
CUT
10
62.9408
20
56.1609
0
SEQEND
0
POLYLINE
8
CUT
66
1
70
0
0
VERTEX
8
CUT
10
64.526
20
56.9718
0
VERTEX
8
CUT
10
68.526
20
56.9718
0
VERTEX
8
CUT
10
70.526
20
54.2005
0
SEQEND
0
POLYLINE
8
CUT
66
1
70
0
0
VERTEX
8
CUT
10
69.826
20
45.1795
0
VERTEX
8
CUT
10
67.926
20
42.5468
0
VERTEX
8
CUT
10
64.126
20
42.5468
0
VERTEX
8
CUT
10
62.226
20
45.1795
0
VERTEX
8
CUT
10
64.126
20
47.8122
0
VERTEX
8
CUT
10
67.926
20
47.8122
0
VERTEX
8
CUT
10
69.826
20
45.1795
0
SEQEND
0
POLYLINE
8
CUT
66
1
70
0
0
VERTEX
8
CUT
10
70.4408
20
44.3686
0
VERTEX
8
CUT
10
68.526
20
41.7154
0
VERTEX
8
CUT
10
64.6964
20
41.7154
0
SEQEND
0
POLYLINE
8
CUT
66
1
70
0
0
VERTEX
8
CUT
10
62.9408
20
42.5263
0
VERTEX
8
CUT
10
61.026
20
45.1795
0
VERTEX
8
CUT
10
62.9408
20
47.8327
0
SEQEND
0
POLYLINE
8
CUT
66
1
70
0
0
VERTEX
8
CUT
10
64.526
20
48.6436
0
VERTEX
8
CUT
10
68.526
20
48.6436
0
VERTEX
8
CUT
10
70.526
20
45.8723
0
SEQEND
0
POLYLINE
8
CUT
66
1
70
0
0
VERTEX
8
CUT
10
69.826
20
36.8513
0
VERTEX
8
CUT
10
67.926
20
34.2186
0
VERTEX
8
CUT
10
64.126
20
34.2186
0
VERTEX
8
CUT
10
62.226
20
36.8513
0
VERTEX
8
CUT
10
64.126
20
39.484
0
VERTEX
8
CUT
10
67.926
20
39.484
0
VERTEX
8
CUT
10
69.826
20
36.8513
0
SEQEND
0
POLYLINE
8
CUT
66
1
70
0
0
VERTEX
8
CUT
10
70.4408
20
36.0404
0
VERTEX
8
CUT
10
68.526
20
33.3872
0
VERTEX
8
CUT
10
64.6964
20
33.3872
0
SEQEND
0
POLYLINE
8
CUT
66
1
70
0
0
VERTEX
8
CUT
10
62.9408
20
34.1981
0
VERTEX
8
CUT
10
61.026
20
36.8513
0
VERTEX
8
CUT
10
62.9408
20
39.5045
0
SEQEND
0
POLYLINE
8
CUT
66
1
70
0
0
VERTEX
8
CUT
10
64.526
20
40.3154
0
VERTEX
8
CUT
10
68.526
20
40.3154
0
VERTEX
8
CUT
10
70.526
20
37.5441
0
SEQEND
0
POLYLINE
8
CUT
66
1
70
0
0
VERTEX
8
CUT
10
69.826
20
28.5231
0
VERTEX
8
CUT
10
67.926
20
25.8904
0
VERTEX
8
CUT
10
64.126
20
25.8904
0
VERTEX
8
CUT
10
62.226
20
28.5231
0
VERTEX
8
CUT
10
64.126
20
31.1558
0
VERTEX
8
CUT
10
67.926
20
31.1558
0
VERTEX
8
CUT
10
69.826
20
28.5231
0
SEQEND
0
POLYLINE
8
CUT
66
1
70
0
0
VERTEX
8
CUT
10
70.4408
20
27.7122
0
VERTEX
8
CUT
10
68.526
20
25.059
0
VERTEX
8
CUT
10
64.6964
20
25.059
0
SEQEND
0
POLYLINE
8
CUT
66
1
70
0
0
VERTEX
8
CUT
10
62.9408
20
25.8699
0
VERTEX
8
CUT
10
61.026
20
28.5231
0
VERTEX
8
CUT
10
62.9408
20
31.1763
0
SEQEND
0
POLYLINE
8
CUT
66
1
70
0
0
VERTEX
8
CUT
10
64.526
20
31.9872
0
VERTEX
8
CUT
10
68.526
20
31.9872
0
VERTEX
8
CUT
10
70.526
20
29.2159
0
SEQEND
0
POLYLINE
8
CUT
66
1
70
0
0
VERTEX
8
CUT
10
69.826
20
20.1949
0
VERTEX
8
CUT
10
67.926
20
17.5622
0
VERTEX
8
CUT
10
64.126
20
17.5622
0
VERTEX
8
CUT
10
62.226
20
20.1949
0
VERTEX
8
CUT
10
64.126
20
22.8276
0
VERTEX
8
CUT
10
67.926
20
22.8276
0
VERTEX
8
CUT
10
69.826
20
20.1949
0
SEQEND
0
POLYLINE
8
CUT
66
1
70
0
0
VERTEX
8
CUT
10
70.4408
20
19.384
0
VERTEX
8
CUT
10
68.526
20
16.7308
0
VERTEX
8
CUT
10
64.6964
20
16.7308
0
SEQEND
0
POLYLINE
8
CUT
66
1
70
0
0
VERTEX
8
CUT
10
62.9408
20
17.5417
0
VERTEX
8
CUT
10
61.026
20
20.1949
0
VERTEX
8
CUT
10
62.9408
20
22.8481
0
SEQEND
0
POLYLINE
8
CUT
66
1
70
0
0
VERTEX
8
CUT
10
64.526
20
23.659
0
VERTEX
8
CUT
10
68.526
20
23.659
0
VERTEX
8
CUT
10
70.526
20
20.8877
0
SEQEND
0
POLYLINE
8
CUT
66
1
70
0
0
VERTEX
8
CUT
10
69.826
20
11.8667
0
VERTEX
8
CUT
10
67.926
20
9.234
0
VERTEX
8
CUT
10
64.126
20
9.234
0
VERTEX
8
CUT
10
62.226
20
11.8667
0
VERTEX
8
CUT
10
64.126
20
14.4994
0
VERTEX
8
CUT
10
67.926
20
14.4994
0
VERTEX
8
CUT
10
69.826
20
11.8667
0
SEQEND
0
POLYLINE
8
CUT
66
1
70
0
0
VERTEX
8
CUT
10
70.4408
20
11.0558
0
VERTEX
8
CUT
10
68.526
20
8.4026
0
VERTEX
8
CUT
10
64.6964
20
8.4026
0
SEQEND
0
POLYLINE
8
CUT
66
1
70
0
0
VERTEX
8
CUT
10
62.9408
20
9.2135
0
VERTEX
8
CUT
10
61.026
20
11.8667
0
VERTEX
8
CUT
10
62.9408
20
14.5199
0
SEQEND
0
POLYLINE
8
CUT
66
1
70
0
0
VERTEX
8
CUT
10
64.526
20
15.3308
0
VERTEX
8
CUT
10
68.526
20
15.3308
0
VERTEX
8
CUT
10
70.526
20
12.5595
0
SEQEND
0
POLYLINE
8
CUT
66
1
70
0
0
VERTEX
8
CUT
10
69.826
20
3.5385
0
VERTEX
8
CUT
10
67.926
20
0.9058
0
VERTEX
8
CUT
10
64.126
20
0.9058
0
VERTEX
8
CUT
10
62.226
20
3.5385
0
VERTEX
8
CUT
10
64.126
20
6.1712
0
VERTEX
8
CUT
10
67.926
20
6.1712
0
VERTEX
8
CUT
10
69.826
20
3.5385
0
SEQEND
0
POLYLINE
8
CUT
66
1
70
0
0
VERTEX
8
CUT
10
70.4408
20
2.7276
0
VERTEX
8
CUT
10
68.526
20
0.0744
0
VERTEX
8
CUT
10
64.6964
20
0.0744
0
SEQEND
0
POLYLINE
8
CUT
66
1
70
0
0
VERTEX
8
CUT
10
62.9408
20
0.8853
0
VERTEX
8
CUT
10
61.026
20
3.5385
0
VERTEX
8
CUT
10
62.9408
20
6.1917
0
SEQEND
0
POLYLINE
8
CUT
66
1
70
0
0
VERTEX
8
CUT
10
64.526
20
7.0026
0
VERTEX
8
CUT
10
68.526
20
7.0026
0
VERTEX
8
CUT
10
70.526
20
4.2313
0
SEQEND
0
POLYLINE
8
CUT
66
1
70
0
0
VERTEX
8
CUT
10
78.544
20
66
0
VERTEX
8
CUT
10
76.644
20
63.3673
0
VERTEX
8
CUT
10
72.844
20
63.3673
0
VERTEX
8
CUT
10
70.944
20
66
0
VERTEX
8
CUT
10
72.844
20
68.6327
0
VERTEX
8
CUT
10
76.644
20
68.6327
0
VERTEX
8
CUT
10
78.544
20
66
0
SEQEND
0
POLYLINE
8
CUT
66
1
70
0
0
VERTEX
8
CUT
10
79.1588
20
65.1891
0
VERTEX
8
CUT
10
77.244
20
62.5359
0
VERTEX
8
CUT
10
73.4144
20
62.5359
0
SEQEND
0
POLYLINE
8
CUT
66
1
70
0
0
VERTEX
8
CUT
10
71.6588
20
63.3468
0
VERTEX
8
CUT
10
69.744
20
66
0
VERTEX
8
CUT
10
71.6588
20
68.6532
0
SEQEND
0
POLYLINE
8
CUT
66
1
70
0
0
VERTEX
8
CUT
10
73.244
20
69.4641
0
VERTEX
8
CUT
10
77.244
20
69.4641
0
VERTEX
8
CUT
10
79.244
20
66.6928
0
SEQEND
0
POLYLINE
8
CUT
66
1
70
0
0
VERTEX
8
CUT
10
78.544
20
57.6718
0
VERTEX
8
CUT
10
76.644
20
55.0391
0
VERTEX
8
CUT
10
72.844
20
55.0391
0
VERTEX
8
CUT
10
70.944
20
57.6718
0
VERTEX
8
CUT
10
72.844
20
60.3045
0
VERTEX
8
CUT
10
76.644
20
60.3045
0
VERTEX
8
CUT
10
78.544
20
57.6718
0
SEQEND
0
POLYLINE
8
CUT
66
1
70
0
0
VERTEX
8
CUT
10
79.1588
20
56.8609
0
VERTEX
8
CUT
10
77.244
20
54.2077
0
VERTEX
8
CUT
10
73.4144
20
54.2077
0
SEQEND
0
POLYLINE
8
CUT
66
1
70
0
0
VERTEX
8
CUT
10
71.6588
20
55.0186
0
VERTEX
8
CUT
10
69.744
20
57.6718
0
VERTEX
8
CUT
10
71.6588
20
60.325
0
SEQEND
0
POLYLINE
8
CUT
66
1
70
0
0
VERTEX
8
CUT
10
73.244
20
61.1359
0
VERTEX
8
CUT
10
77.244
20
61.1359
0
VERTEX
8
CUT
10
79.244
20
58.3646
0
SEQEND
0
POLYLINE
8
CUT
66
1
70
0
0
VERTEX
8
CUT
10
78.544
20
49.3436
0
VERTEX
8
CUT
10
76.644
20
46.7109
0
VERTEX
8
CUT
10
72.844
20
46.7109
0
VERTEX
8
CUT
10
70.944
20
49.3436
0
VERTEX
8
CUT
10
72.844
20
51.9763
0
VERTEX
8
CUT
10
76.644
20
51.9763
0
VERTEX
8
CUT
10
78.544
20
49.3436
0
SEQEND
0
POLYLINE
8
CUT
66
1
70
0
0
VERTEX
8
CUT
10
79.1588
20
48.5327
0
VERTEX
8
CUT
10
77.244
20
45.8795
0
VERTEX
8
CUT
10
73.4144
20
45.8795
0
SEQEND
0
POLYLINE
8
CUT
66
1
70
0
0
VERTEX
8
CUT
10
71.6588
20
46.6904
0
VERTEX
8
CUT
10
69.744
20
49.3436
0
VERTEX
8
CUT
10
71.6588
20
51.9968
0
SEQEND
0
POLYLINE
8
CUT
66
1
70
0
0
VERTEX
8
CUT
10
73.244
20
52.8077
0
VERTEX
8
CUT
10
77.244
20
52.8077
0
VERTEX
8
CUT
10
79.244
20
50.0364
0
SEQEND
0
POLYLINE
8
CUT
66
1
70
0
0
VERTEX
8
CUT
10
78.544
20
41.0154
0
VERTEX
8
CUT
10
76.644
20
38.3827
0
VERTEX
8
CUT
10
72.844
20
38.3827
0
VERTEX
8
CUT
10
70.944
20
41.0154
0
VERTEX
8
CUT
10
72.844
20
43.6481
0
VERTEX
8
CUT
10
76.644
20
43.6481
0
VERTEX
8
CUT
10
78.544
20
41.0154
0
SEQEND
0
POLYLINE
8
CUT
66
1
70
0
0
VERTEX
8
CUT
10
79.1588
20
40.2045
0
VERTEX
8
CUT
10
77.244
20
37.5513
0
VERTEX
8
CUT
10
73.4144
20
37.5513
0
SEQEND
0
POLYLINE
8
CUT
66
1
70
0
0
VERTEX
8
CUT
10
71.6588
20
38.3622
0
VERTEX
8
CUT
10
69.744
20
41.0154
0
VERTEX
8
CUT
10
71.6588
20
43.6686
0
SEQEND
0
POLYLINE
8
CUT
66
1
70
0
0
VERTEX
8
CUT
10
73.244
20
44.4795
0
VERTEX
8
CUT
10
77.244
20
44.4795
0
VERTEX
8
CUT
10
79.244
20
41.7082
0
SEQEND
0
POLYLINE
8
CUT
66
1
70
0
0
VERTEX
8
CUT
10
78.544
20
32.6872
0
VERTEX
8
CUT
10
76.644
20
30.0545
0
VERTEX
8
CUT
10
72.844
20
30.0545
0
VERTEX
8
CUT
10
70.944
20
32.6872
0
VERTEX
8
CUT
10
72.844
20
35.3199
0
VERTEX
8
CUT
10
76.644
20
35.3199
0
VERTEX
8
CUT
10
78.544
20
32.6872
0
SEQEND
0
POLYLINE
8
CUT
66
1
70
0
0
VERTEX
8
CUT
10
79.1588
20
31.8763
0
VERTEX
8
CUT
10
77.244
20
29.2231
0
VERTEX
8
CUT
10
73.4144
20
29.2231
0
SEQEND
0
POLYLINE
8
CUT
66
1
70
0
0
VERTEX
8
CUT
10
71.6588
20
30.034
0
VERTEX
8
CUT
10
69.744
20
32.6872
0
VERTEX
8
CUT
10
71.6588
20
35.3404
0
SEQEND
0
POLYLINE
8
CUT
66
1
70
0
0
VERTEX
8
CUT
10
73.244
20
36.1513
0
VERTEX
8
CUT
10
77.244
20
36.1513
0
VERTEX
8
CUT
10
79.244
20
33.38
0
SEQEND
0
POLYLINE
8
CUT
66
1
70
0
0
VERTEX
8
CUT
10
78.544
20
24.359
0
VERTEX
8
CUT
10
76.644
20
21.7263
0
VERTEX
8
CUT
10
72.844
20
21.7263
0
VERTEX
8
CUT
10
70.944
20
24.359
0
VERTEX
8
CUT
10
72.844
20
26.9917
0
VERTEX
8
CUT
10
76.644
20
26.9917
0
VERTEX
8
CUT
10
78.544
20
24.359
0
SEQEND
0
POLYLINE
8
CUT
66
1
70
0
0
VERTEX
8
CUT
10
79.1588
20
23.5481
0
VERTEX
8
CUT
10
77.244
20
20.8949
0
VERTEX
8
CUT
10
73.4144
20
20.8949
0
SEQEND
0
POLYLINE
8
CUT
66
1
70
0
0
VERTEX
8
CUT
10
71.6588
20
21.7058
0
VERTEX
8
CUT
10
69.744
20
24.359
0
VERTEX
8
CUT
10
71.6588
20
27.0122
0
SEQEND
0
POLYLINE
8
CUT
66
1
70
0
0
VERTEX
8
CUT
10
73.244
20
27.8231
0
VERTEX
8
CUT
10
77.244
20
27.8231
0
VERTEX
8
CUT
10
79.244
20
25.0518
0
SEQEND
0
POLYLINE
8
CUT
66
1
70
0
0
VERTEX
8
CUT
10
78.544
20
16.0308
0
VERTEX
8
CUT
10
76.644
20
13.3981
0
VERTEX
8
CUT
10
72.844
20
13.3981
0
VERTEX
8
CUT
10
70.944
20
16.0308
0
VERTEX
8
CUT
10
72.844
20
18.6635
0
VERTEX
8
CUT
10
76.644
20
18.6635
0
VERTEX
8
CUT
10
78.544
20
16.0308
0
SEQEND
0
POLYLINE
8
CUT
66
1
70
0
0
VERTEX
8
CUT
10
79.1588
20
15.2199
0
VERTEX
8
CUT
10
77.244
20
12.5667
0
VERTEX
8
CUT
10
73.4144
20
12.5667
0
SEQEND
0
POLYLINE
8
CUT
66
1
70
0
0
VERTEX
8
CUT
10
71.6588
20
13.3776
0
VERTEX
8
CUT
10
69.744
20
16.0308
0
VERTEX
8
CUT
10
71.6588
20
18.684
0
SEQEND
0
POLYLINE
8
CUT
66
1
70
0
0
VERTEX
8
CUT
10
73.244
20
19.4949
0
VERTEX
8
CUT
10
77.244
20
19.4949
0
VERTEX
8
CUT
10
79.244
20
16.7236
0
SEQEND
0
POLYLINE
8
CUT
66
1
70
0
0
VERTEX
8
CUT
10
78.544
20
7.7026
0
VERTEX
8
CUT
10
76.644
20
5.0699
0
VERTEX
8
CUT
10
72.844
20
5.0699
0
VERTEX
8
CUT
10
70.944
20
7.7026
0
VERTEX
8
CUT
10
72.844
20
10.3353
0
VERTEX
8
CUT
10
76.644
20
10.3353
0
VERTEX
8
CUT
10
78.544
20
7.7026
0
SEQEND
0
POLYLINE
8
CUT
66
1
70
0
0
VERTEX
8
CUT
10
79.1588
20
6.8917
0
VERTEX
8
CUT
10
77.244
20
4.2385
0
VERTEX
8
CUT
10
73.4144
20
4.2385
0
SEQEND
0
POLYLINE
8
CUT
66
1
70
0
0
VERTEX
8
CUT
10
71.6588
20
5.0494
0
VERTEX
8
CUT
10
69.744
20
7.7026
0
VERTEX
8
CUT
10
71.6588
20
10.3558
0
SEQEND
0
POLYLINE
8
CUT
66
1
70
0
0
VERTEX
8
CUT
10
73.244
20
11.1667
0
VERTEX
8
CUT
10
77.244
20
11.1667
0
VERTEX
8
CUT
10
79.244
20
8.3954
0
SEQEND
0
POLYLINE
8
CUT
66
1
70
0
0
VERTEX
8
CUT
10
71.3955
20
0
0
VERTEX
8
CUT
10
72.844
20
2.0071
0
VERTEX
8
CUT
10
76.644
20
2.0071
0
VERTEX
8
CUT
10
78.0925
20
0
0
SEQEND
0
LINE
8
CUT
10
70.1955
20
0
11
71.6588
21
2.0276
0
POLYLINE
8
CUT
66
1
70
0
0
VERTEX
8
CUT
10
73.244
20
2.8385
0
VERTEX
8
CUT
10
77.244
20
2.8385
0
VERTEX
8
CUT
10
79.244
20
0.0672
0
SEQEND
0
POLYLINE
8
CUT
66
1
70
0
0
VERTEX
8
CUT
10
87.1436
20
70
0
VERTEX
8
CUT
10
85.362
20
67.5314
0
VERTEX
8
CUT
10
81.562
20
67.5314
0
VERTEX
8
CUT
10
79.7804
20
70
0
SEQEND
0
POLYLINE
8
CUT
66
1
70
0
0
VERTEX
8
CUT
10
87.8768
20
69.3532
0
VERTEX
8
CUT
10
85.962
20
66.7
0
VERTEX
8
CUT
10
82.1324
20
66.7
0
SEQEND
0
LINE
8
CUT
10
80.3768
20
67.5109
11
78.5804
21
70
0
POLYLINE
8
CUT
66
1
70
0
0
VERTEX
8
CUT
10
87.262
20
61.8359
0
VERTEX
8
CUT
10
85.362
20
59.2032
0
VERTEX
8
CUT
10
81.562
20
59.2032
0
VERTEX
8
CUT
10
79.662
20
61.8359
0
VERTEX
8
CUT
10
81.562
20
64.4686
0
VERTEX
8
CUT
10
85.362
20
64.4686
0
VERTEX
8
CUT
10
87.262
20
61.8359
0
SEQEND
0
POLYLINE
8
CUT
66
1
70
0
0
VERTEX
8
CUT
10
87.8768
20
61.025
0
VERTEX
8
CUT
10
85.962
20
58.3718
0
VERTEX
8
CUT
10
82.1324
20
58.3718
0
SEQEND
0
POLYLINE
8
CUT
66
1
70
0
0
VERTEX
8
CUT
10
80.3768
20
59.1827
0
VERTEX
8
CUT
10
78.462
20
61.8359
0
VERTEX
8
CUT
10
80.3768
20
64.4891
0
SEQEND
0
POLYLINE
8
CUT
66
1
70
0
0
VERTEX
8
CUT
10
81.962
20
65.3
0
VERTEX
8
CUT
10
85.962
20
65.3
0
VERTEX
8
CUT
10
87.962
20
62.5287
0
SEQEND
0
POLYLINE
8
CUT
66
1
70
0
0
VERTEX
8
CUT
10
87.262
20
53.5077
0
VERTEX
8
CUT
10
85.362
20
50.875
0
VERTEX
8
CUT
10
81.562
20
50.875
0
VERTEX
8
CUT
10
79.662
20
53.5077
0
VERTEX
8
CUT
10
81.562
20
56.1404
0
VERTEX
8
CUT
10
85.362
20
56.1404
0
VERTEX
8
CUT
10
87.262
20
53.5077
0
SEQEND
0
POLYLINE
8
CUT
66
1
70
0
0
VERTEX
8
CUT
10
87.8768
20
52.6968
0
VERTEX
8
CUT
10
85.962
20
50.0436
0
VERTEX
8
CUT
10
82.1324
20
50.0436
0
SEQEND
0
POLYLINE
8
CUT
66
1
70
0
0
VERTEX
8
CUT
10
80.3768
20
50.8545
0
VERTEX
8
CUT
10
78.462
20
53.5077
0
VERTEX
8
CUT
10
80.3768
20
56.1609
0
SEQEND
0
POLYLINE
8
CUT
66
1
70
0
0
VERTEX
8
CUT
10
81.962
20
56.9718
0
VERTEX
8
CUT
10
85.962
20
56.9718
0
VERTEX
8
CUT
10
87.962
20
54.2005
0
SEQEND
0
POLYLINE
8
CUT
66
1
70
0
0
VERTEX
8
CUT
10
87.262
20
45.1795
0
VERTEX
8
CUT
10
85.362
20
42.5468
0
VERTEX
8
CUT
10
81.562
20
42.5468
0
VERTEX
8
CUT
10
79.662
20
45.1795
0
VERTEX
8
CUT
10
81.562
20
47.8122
0
VERTEX
8
CUT
10
85.362
20
47.8122
0
VERTEX
8
CUT
10
87.262
20
45.1795
0
SEQEND
0
POLYLINE
8
CUT
66
1
70
0
0
VERTEX
8
CUT
10
87.8768
20
44.3686
0
VERTEX
8
CUT
10
85.962
20
41.7154
0
VERTEX
8
CUT
10
82.1324
20
41.7154
0
SEQEND
0
POLYLINE
8
CUT
66
1
70
0
0
VERTEX
8
CUT
10
80.3768
20
42.5263
0
VERTEX
8
CUT
10
78.462
20
45.1795
0
VERTEX
8
CUT
10
80.3768
20
47.8327
0
SEQEND
0
POLYLINE
8
CUT
66
1
70
0
0
VERTEX
8
CUT
10
81.962
20
48.6436
0
VERTEX
8
CUT
10
85.962
20
48.6436
0
VERTEX
8
CUT
10
87.962
20
45.8723
0
SEQEND
0
POLYLINE
8
CUT
66
1
70
0
0
VERTEX
8
CUT
10
87.262
20
36.8513
0
VERTEX
8
CUT
10
85.362
20
34.2186
0
VERTEX
8
CUT
10
81.562
20
34.2186
0
VERTEX
8
CUT
10
79.662
20
36.8513
0
VERTEX
8
CUT
10
81.562
20
39.484
0
VERTEX
8
CUT
10
85.362
20
39.484
0
VERTEX
8
CUT
10
87.262
20
36.8513
0
SEQEND
0
POLYLINE
8
CUT
66
1
70
0
0
VERTEX
8
CUT
10
87.8768
20
36.0404
0
VERTEX
8
CUT
10
85.962
20
33.3872
0
VERTEX
8
CUT
10
82.1324
20
33.3872
0
SEQEND
0
POLYLINE
8
CUT
66
1
70
0
0
VERTEX
8
CUT
10
80.3768
20
34.1981
0
VERTEX
8
CUT
10
78.462
20
36.8513
0
VERTEX
8
CUT
10
80.3768
20
39.5045
0
SEQEND
0
POLYLINE
8
CUT
66
1
70
0
0
VERTEX
8
CUT
10
81.962
20
40.3154
0
VERTEX
8
CUT
10
85.962
20
40.3154
0
VERTEX
8
CUT
10
87.962
20
37.5441
0
SEQEND
0
POLYLINE
8
CUT
66
1
70
0
0
VERTEX
8
CUT
10
87.262
20
28.5231
0
VERTEX
8
CUT
10
85.362
20
25.8904
0
VERTEX
8
CUT
10
81.562
20
25.8904
0
VERTEX
8
CUT
10
79.662
20
28.5231
0
VERTEX
8
CUT
10
81.562
20
31.1558
0
VERTEX
8
CUT
10
85.362
20
31.1558
0
VERTEX
8
CUT
10
87.262
20
28.5231
0
SEQEND
0
POLYLINE
8
CUT
66
1
70
0
0
VERTEX
8
CUT
10
87.8768
20
27.7122
0
VERTEX
8
CUT
10
85.962
20
25.059
0
VERTEX
8
CUT
10
82.1324
20
25.059
0
SEQEND
0
POLYLINE
8
CUT
66
1
70
0
0
VERTEX
8
CUT
10
80.3768
20
25.8699
0
VERTEX
8
CUT
10
78.462
20
28.5231
0
VERTEX
8
CUT
10
80.3768
20
31.1763
0
SEQEND
0
POLYLINE
8
CUT
66
1
70
0
0
VERTEX
8
CUT
10
81.962
20
31.9872
0
VERTEX
8
CUT
10
85.962
20
31.9872
0
VERTEX
8
CUT
10
87.962
20
29.2159
0
SEQEND
0
POLYLINE
8
CUT
66
1
70
0
0
VERTEX
8
CUT
10
87.262
20
20.1949
0
VERTEX
8
CUT
10
85.362
20
17.5622
0
VERTEX
8
CUT
10
81.562
20
17.5622
0
VERTEX
8
CUT
10
79.662
20
20.1949
0
VERTEX
8
CUT
10
81.562
20
22.8276
0
VERTEX
8
CUT
10
85.362
20
22.8276
0
VERTEX
8
CUT
10
87.262
20
20.1949
0
SEQEND
0
POLYLINE
8
CUT
66
1
70
0
0
VERTEX
8
CUT
10
87.8768
20
19.384
0
VERTEX
8
CUT
10
85.962
20
16.7308
0
VERTEX
8
CUT
10
82.1324
20
16.7308
0
SEQEND
0
POLYLINE
8
CUT
66
1
70
0
0
VERTEX
8
CUT
10
80.3768
20
17.5417
0
VERTEX
8
CUT
10
78.462
20
20.1949
0
VERTEX
8
CUT
10
80.3768
20
22.8481
0
SEQEND
0
POLYLINE
8
CUT
66
1
70
0
0
VERTEX
8
CUT
10
81.962
20
23.659
0
VERTEX
8
CUT
10
85.962
20
23.659
0
VERTEX
8
CUT
10
87.962
20
20.8877
0
SEQEND
0
POLYLINE
8
CUT
66
1
70
0
0
VERTEX
8
CUT
10
87.262
20
11.8667
0
VERTEX
8
CUT
10
85.362
20
9.234
0
VERTEX
8
CUT
10
81.562
20
9.234
0
VERTEX
8
CUT
10
79.662
20
11.8667
0
VERTEX
8
CUT
10
81.562
20
14.4994
0
VERTEX
8
CUT
10
85.362
20
14.4994
0
VERTEX
8
CUT
10
87.262
20
11.8667
0
SEQEND
0
POLYLINE
8
CUT
66
1
70
0
0
VERTEX
8
CUT
10
87.8768
20
11.0558
0
VERTEX
8
CUT
10
85.962
20
8.4026
0
VERTEX
8
CUT
10
82.1324
20
8.4026
0
SEQEND
0
POLYLINE
8
CUT
66
1
70
0
0
VERTEX
8
CUT
10
80.3768
20
9.2135
0
VERTEX
8
CUT
10
78.462
20
11.8667
0
VERTEX
8
CUT
10
80.3768
20
14.5199
0
SEQEND
0
POLYLINE
8
CUT
66
1
70
0
0
VERTEX
8
CUT
10
81.962
20
15.3308
0
VERTEX
8
CUT
10
85.962
20
15.3308
0
VERTEX
8
CUT
10
87.962
20
12.5595
0
SEQEND
0
POLYLINE
8
CUT
66
1
70
0
0
VERTEX
8
CUT
10
87.262
20
3.5385
0
VERTEX
8
CUT
10
85.362
20
0.9058
0
VERTEX
8
CUT
10
81.562
20
0.9058
0
VERTEX
8
CUT
10
79.662
20
3.5385
0
VERTEX
8
CUT
10
81.562
20
6.1712
0
VERTEX
8
CUT
10
85.362
20
6.1712
0
VERTEX
8
CUT
10
87.262
20
3.5385
0
SEQEND
0
POLYLINE
8
CUT
66
1
70
0
0
VERTEX
8
CUT
10
87.8768
20
2.7276
0
VERTEX
8
CUT
10
85.962
20
0.0744
0
VERTEX
8
CUT
10
82.1324
20
0.0744
0
SEQEND
0
POLYLINE
8
CUT
66
1
70
0
0
VERTEX
8
CUT
10
80.3768
20
0.8853
0
VERTEX
8
CUT
10
78.462
20
3.5385
0
VERTEX
8
CUT
10
80.3768
20
6.1917
0
SEQEND
0
POLYLINE
8
CUT
66
1
70
0
0
VERTEX
8
CUT
10
81.962
20
7.0026
0
VERTEX
8
CUT
10
85.962
20
7.0026
0
VERTEX
8
CUT
10
87.962
20
4.2313
0
SEQEND
0
POLYLINE
8
CUT
66
1
70
0
0
VERTEX
8
CUT
10
95.98
20
66
0
VERTEX
8
CUT
10
94.08
20
63.3673
0
VERTEX
8
CUT
10
90.28
20
63.3673
0
VERTEX
8
CUT
10
88.38
20
66
0
VERTEX
8
CUT
10
90.28
20
68.6327
0
VERTEX
8
CUT
10
94.08
20
68.6327
0
VERTEX
8
CUT
10
95.98
20
66
0
SEQEND
0
POLYLINE
8
CUT
66
1
70
0
0
VERTEX
8
CUT
10
96.5948
20
65.1891
0
VERTEX
8
CUT
10
94.68
20
62.5359
0
VERTEX
8
CUT
10
90.8504
20
62.5359
0
SEQEND
0
POLYLINE
8
CUT
66
1
70
0
0
VERTEX
8
CUT
10
89.0948
20
63.3468
0
VERTEX
8
CUT
10
87.18
20
66
0
VERTEX
8
CUT
10
89.0948
20
68.6532
0
SEQEND
0
POLYLINE
8
CUT
66
1
70
0
0
VERTEX
8
CUT
10
90.68
20
69.4641
0
VERTEX
8
CUT
10
94.68
20
69.4641
0
VERTEX
8
CUT
10
96.68
20
66.6928
0
SEQEND
0
POLYLINE
8
CUT
66
1
70
0
0
VERTEX
8
CUT
10
95.98
20
57.6718
0
VERTEX
8
CUT
10
94.08
20
55.0391
0
VERTEX
8
CUT
10
90.28
20
55.0391
0
VERTEX
8
CUT
10
88.38
20
57.6718
0
VERTEX
8
CUT
10
90.28
20
60.3045
0
VERTEX
8
CUT
10
94.08
20
60.3045
0
VERTEX
8
CUT
10
95.98
20
57.6718
0
SEQEND
0
POLYLINE
8
CUT
66
1
70
0
0
VERTEX
8
CUT
10
96.5948
20
56.8609
0
VERTEX
8
CUT
10
94.68
20
54.2077
0
VERTEX
8
CUT
10
90.8504
20
54.2077
0
SEQEND
0
POLYLINE
8
CUT
66
1
70
0
0
VERTEX
8
CUT
10
89.0948
20
55.0186
0
VERTEX
8
CUT
10
87.18
20
57.6718
0
VERTEX
8
CUT
10
89.0948
20
60.325
0
SEQEND
0
POLYLINE
8
CUT
66
1
70
0
0
VERTEX
8
CUT
10
90.68
20
61.1359
0
VERTEX
8
CUT
10
94.68
20
61.1359
0
VERTEX
8
CUT
10
96.68
20
58.3646
0
SEQEND
0
POLYLINE
8
CUT
66
1
70
0
0
VERTEX
8
CUT
10
95.98
20
49.3436
0
VERTEX
8
CUT
10
94.08
20
46.7109
0
VERTEX
8
CUT
10
90.28
20
46.7109
0
VERTEX
8
CUT
10
88.38
20
49.3436
0
VERTEX
8
CUT
10
90.28
20
51.9763
0
VERTEX
8
CUT
10
94.08
20
51.9763
0
VERTEX
8
CUT
10
95.98
20
49.3436
0
SEQEND
0
POLYLINE
8
CUT
66
1
70
0
0
VERTEX
8
CUT
10
96.5948
20
48.5327
0
VERTEX
8
CUT
10
94.68
20
45.8795
0
VERTEX
8
CUT
10
90.8504
20
45.8795
0
SEQEND
0
POLYLINE
8
CUT
66
1
70
0
0
VERTEX
8
CUT
10
89.0948
20
46.6904
0
VERTEX
8
CUT
10
87.18
20
49.3436
0
VERTEX
8
CUT
10
89.0948
20
51.9968
0
SEQEND
0
POLYLINE
8
CUT
66
1
70
0
0
VERTEX
8
CUT
10
90.68
20
52.8077
0
VERTEX
8
CUT
10
94.68
20
52.8077
0
VERTEX
8
CUT
10
96.68
20
50.0364
0
SEQEND
0
POLYLINE
8
CUT
66
1
70
0
0
VERTEX
8
CUT
10
95.98
20
41.0154
0
VERTEX
8
CUT
10
94.08
20
38.3827
0
VERTEX
8
CUT
10
90.28
20
38.3827
0
VERTEX
8
CUT
10
88.38
20
41.0154
0
VERTEX
8
CUT
10
90.28
20
43.6481
0
VERTEX
8
CUT
10
94.08
20
43.6481
0
VERTEX
8
CUT
10
95.98
20
41.0154
0
SEQEND
0
POLYLINE
8
CUT
66
1
70
0
0
VERTEX
8
CUT
10
96.5948
20
40.2045
0
VERTEX
8
CUT
10
94.68
20
37.5513
0
VERTEX
8
CUT
10
90.8504
20
37.5513
0
SEQEND
0
POLYLINE
8
CUT
66
1
70
0
0
VERTEX
8
CUT
10
89.0948
20
38.3622
0
VERTEX
8
CUT
10
87.18
20
41.0154
0
VERTEX
8
CUT
10
89.0948
20
43.6686
0
SEQEND
0
POLYLINE
8
CUT
66
1
70
0
0
VERTEX
8
CUT
10
90.68
20
44.4795
0
VERTEX
8
CUT
10
94.68
20
44.4795
0
VERTEX
8
CUT
10
96.68
20
41.7082
0
SEQEND
0
POLYLINE
8
CUT
66
1
70
0
0
VERTEX
8
CUT
10
95.98
20
32.6872
0
VERTEX
8
CUT
10
94.08
20
30.0545
0
VERTEX
8
CUT
10
90.28
20
30.0545
0
VERTEX
8
CUT
10
88.38
20
32.6872
0
VERTEX
8
CUT
10
90.28
20
35.3199
0
VERTEX
8
CUT
10
94.08
20
35.3199
0
VERTEX
8
CUT
10
95.98
20
32.6872
0
SEQEND
0
POLYLINE
8
CUT
66
1
70
0
0
VERTEX
8
CUT
10
96.5948
20
31.8763
0
VERTEX
8
CUT
10
94.68
20
29.2231
0
VERTEX
8
CUT
10
90.8504
20
29.2231
0
SEQEND
0
POLYLINE
8
CUT
66
1
70
0
0
VERTEX
8
CUT
10
89.0948
20
30.034
0
VERTEX
8
CUT
10
87.18
20
32.6872
0
VERTEX
8
CUT
10
89.0948
20
35.3404
0
SEQEND
0
POLYLINE
8
CUT
66
1
70
0
0
VERTEX
8
CUT
10
90.68
20
36.1513
0
VERTEX
8
CUT
10
94.68
20
36.1513
0
VERTEX
8
CUT
10
96.68
20
33.38
0
SEQEND
0
POLYLINE
8
CUT
66
1
70
0
0
VERTEX
8
CUT
10
95.98
20
24.359
0
VERTEX
8
CUT
10
94.08
20
21.7263
0
VERTEX
8
CUT
10
90.28
20
21.7263
0
VERTEX
8
CUT
10
88.38
20
24.359
0
VERTEX
8
CUT
10
90.28
20
26.9917
0
VERTEX
8
CUT
10
94.08
20
26.9917
0
VERTEX
8
CUT
10
95.98
20
24.359
0
SEQEND
0
POLYLINE
8
CUT
66
1
70
0
0
VERTEX
8
CUT
10
96.5948
20
23.5481
0
VERTEX
8
CUT
10
94.68
20
20.8949
0
VERTEX
8
CUT
10
90.8504
20
20.8949
0
SEQEND
0
POLYLINE
8
CUT
66
1
70
0
0
VERTEX
8
CUT
10
89.0948
20
21.7058
0
VERTEX
8
CUT
10
87.18
20
24.359
0
VERTEX
8
CUT
10
89.0948
20
27.0122
0
SEQEND
0
POLYLINE
8
CUT
66
1
70
0
0
VERTEX
8
CUT
10
90.68
20
27.8231
0
VERTEX
8
CUT
10
94.68
20
27.8231
0
VERTEX
8
CUT
10
96.68
20
25.0518
0
SEQEND
0
POLYLINE
8
CUT
66
1
70
0
0
VERTEX
8
CUT
10
95.98
20
16.0308
0
VERTEX
8
CUT
10
94.08
20
13.3981
0
VERTEX
8
CUT
10
90.28
20
13.3981
0
VERTEX
8
CUT
10
88.38
20
16.0308
0
VERTEX
8
CUT
10
90.28
20
18.6635
0
VERTEX
8
CUT
10
94.08
20
18.6635
0
VERTEX
8
CUT
10
95.98
20
16.0308
0
SEQEND
0
POLYLINE
8
CUT
66
1
70
0
0
VERTEX
8
CUT
10
96.5948
20
15.2199
0
VERTEX
8
CUT
10
94.68
20
12.5667
0
VERTEX
8
CUT
10
90.8504
20
12.5667
0
SEQEND
0
POLYLINE
8
CUT
66
1
70
0
0
VERTEX
8
CUT
10
89.0948
20
13.3776
0
VERTEX
8
CUT
10
87.18
20
16.0308
0
VERTEX
8
CUT
10
89.0948
20
18.684
0
SEQEND
0
POLYLINE
8
CUT
66
1
70
0
0
VERTEX
8
CUT
10
90.68
20
19.4949
0
VERTEX
8
CUT
10
94.68
20
19.4949
0
VERTEX
8
CUT
10
96.68
20
16.7236
0
SEQEND
0
POLYLINE
8
CUT
66
1
70
0
0
VERTEX
8
CUT
10
95.98
20
7.7026
0
VERTEX
8
CUT
10
94.08
20
5.0699
0
VERTEX
8
CUT
10
90.28
20
5.0699
0
VERTEX
8
CUT
10
88.38
20
7.7026
0
VERTEX
8
CUT
10
90.28
20
10.3353
0
VERTEX
8
CUT
10
94.08
20
10.3353
0
VERTEX
8
CUT
10
95.98
20
7.7026
0
SEQEND
0
POLYLINE
8
CUT
66
1
70
0
0
VERTEX
8
CUT
10
96.5948
20
6.8917
0
VERTEX
8
CUT
10
94.68
20
4.2385
0
VERTEX
8
CUT
10
90.8504
20
4.2385
0
SEQEND
0
POLYLINE
8
CUT
66
1
70
0
0
VERTEX
8
CUT
10
89.0948
20
5.0494
0
VERTEX
8
CUT
10
87.18
20
7.7026
0
VERTEX
8
CUT
10
89.0948
20
10.3558
0
SEQEND
0
POLYLINE
8
CUT
66
1
70
0
0
VERTEX
8
CUT
10
90.68
20
11.1667
0
VERTEX
8
CUT
10
94.68
20
11.1667
0
VERTEX
8
CUT
10
96.68
20
8.3954
0
SEQEND
0
POLYLINE
8
CUT
66
1
70
0
0
VERTEX
8
CUT
10
88.8315
20
0
0
VERTEX
8
CUT
10
90.28
20
2.0071
0
VERTEX
8
CUT
10
94.08
20
2.0071
0
VERTEX
8
CUT
10
95.5285
20
0
0
SEQEND
0
LINE
8
CUT
10
87.6315
20
0
11
89.0948
21
2.0276
0
POLYLINE
8
CUT
66
1
70
0
0
VERTEX
8
CUT
10
90.68
20
2.8385
0
VERTEX
8
CUT
10
94.68
20
2.8385
0
VERTEX
8
CUT
10
96.68
20
0.0672
0
SEQEND
0
POLYLINE
8
CUT
66
1
70
0
0
VERTEX
8
CUT
10
104.5796
20
70
0
VERTEX
8
CUT
10
102.798
20
67.5314
0
VERTEX
8
CUT
10
98.998
20
67.5314
0
VERTEX
8
CUT
10
97.2164
20
70
0
SEQEND
0
POLYLINE
8
CUT
66
1
70
0
0
VERTEX
8
CUT
10
105.3128
20
69.3532
0
VERTEX
8
CUT
10
103.398
20
66.7
0
VERTEX
8
CUT
10
99.5684
20
66.7
0
SEQEND
0
LINE
8
CUT
10
97.8128
20
67.5109
11
96.0164
21
70
0
POLYLINE
8
CUT
66
1
70
0
0
VERTEX
8
CUT
10
104.698
20
61.8359
0
VERTEX
8
CUT
10
102.798
20
59.2032
0
VERTEX
8
CUT
10
98.998
20
59.2032
0
VERTEX
8
CUT
10
97.098
20
61.8359
0
VERTEX
8
CUT
10
98.998
20
64.4686
0
VERTEX
8
CUT
10
102.798
20
64.4686
0
VERTEX
8
CUT
10
104.698
20
61.8359
0
SEQEND
0
POLYLINE
8
CUT
66
1
70
0
0
VERTEX
8
CUT
10
105.3128
20
61.025
0
VERTEX
8
CUT
10
103.398
20
58.3718
0
VERTEX
8
CUT
10
99.5684
20
58.3718
0
SEQEND
0
POLYLINE
8
CUT
66
1
70
0
0
VERTEX
8
CUT
10
97.8128
20
59.1827
0
VERTEX
8
CUT
10
95.898
20
61.8359
0
VERTEX
8
CUT
10
97.8128
20
64.4891
0
SEQEND
0
POLYLINE
8
CUT
66
1
70
0
0
VERTEX
8
CUT
10
99.398
20
65.3
0
VERTEX
8
CUT
10
103.398
20
65.3
0
VERTEX
8
CUT
10
105.398
20
62.5287
0
SEQEND
0
POLYLINE
8
CUT
66
1
70
0
0
VERTEX
8
CUT
10
104.698
20
53.5077
0
VERTEX
8
CUT
10
102.798
20
50.875
0
VERTEX
8
CUT
10
98.998
20
50.875
0
VERTEX
8
CUT
10
97.098
20
53.5077
0
VERTEX
8
CUT
10
98.998
20
56.1404
0
VERTEX
8
CUT
10
102.798
20
56.1404
0
VERTEX
8
CUT
10
104.698
20
53.5077
0
SEQEND
0
POLYLINE
8
CUT
66
1
70
0
0
VERTEX
8
CUT
10
105.3128
20
52.6968
0
VERTEX
8
CUT
10
103.398
20
50.0436
0
VERTEX
8
CUT
10
99.5684
20
50.0436
0
SEQEND
0
POLYLINE
8
CUT
66
1
70
0
0
VERTEX
8
CUT
10
97.8128
20
50.8545
0
VERTEX
8
CUT
10
95.898
20
53.5077
0
VERTEX
8
CUT
10
97.8128
20
56.1609
0
SEQEND
0
POLYLINE
8
CUT
66
1
70
0
0
VERTEX
8
CUT
10
99.398
20
56.9718
0
VERTEX
8
CUT
10
103.398
20
56.9718
0
VERTEX
8
CUT
10
105.398
20
54.2005
0
SEQEND
0
POLYLINE
8
CUT
66
1
70
0
0
VERTEX
8
CUT
10
104.698
20
45.1795
0
VERTEX
8
CUT
10
102.798
20
42.5468
0
VERTEX
8
CUT
10
98.998
20
42.5468
0
VERTEX
8
CUT
10
97.098
20
45.1795
0
VERTEX
8
CUT
10
98.998
20
47.8122
0
VERTEX
8
CUT
10
102.798
20
47.8122
0
VERTEX
8
CUT
10
104.698
20
45.1795
0
SEQEND
0
POLYLINE
8
CUT
66
1
70
0
0
VERTEX
8
CUT
10
105.3128
20
44.3686
0
VERTEX
8
CUT
10
103.398
20
41.7154
0
VERTEX
8
CUT
10
99.5684
20
41.7154
0
SEQEND
0
POLYLINE
8
CUT
66
1
70
0
0
VERTEX
8
CUT
10
97.8128
20
42.5263
0
VERTEX
8
CUT
10
95.898
20
45.1795
0
VERTEX
8
CUT
10
97.8128
20
47.8327
0
SEQEND
0
POLYLINE
8
CUT
66
1
70
0
0
VERTEX
8
CUT
10
99.398
20
48.6436
0
VERTEX
8
CUT
10
103.398
20
48.6436
0
VERTEX
8
CUT
10
105.398
20
45.8723
0
SEQEND
0
POLYLINE
8
CUT
66
1
70
0
0
VERTEX
8
CUT
10
104.698
20
36.8513
0
VERTEX
8
CUT
10
102.798
20
34.2186
0
VERTEX
8
CUT
10
98.998
20
34.2186
0
VERTEX
8
CUT
10
97.098
20
36.8513
0
VERTEX
8
CUT
10
98.998
20
39.484
0
VERTEX
8
CUT
10
102.798
20
39.484
0
VERTEX
8
CUT
10
104.698
20
36.8513
0
SEQEND
0
POLYLINE
8
CUT
66
1
70
0
0
VERTEX
8
CUT
10
105.3128
20
36.0404
0
VERTEX
8
CUT
10
103.398
20
33.3872
0
VERTEX
8
CUT
10
99.5684
20
33.3872
0
SEQEND
0
POLYLINE
8
CUT
66
1
70
0
0
VERTEX
8
CUT
10
97.8128
20
34.1981
0
VERTEX
8
CUT
10
95.898
20
36.8513
0
VERTEX
8
CUT
10
97.8128
20
39.5045
0
SEQEND
0
POLYLINE
8
CUT
66
1
70
0
0
VERTEX
8
CUT
10
99.398
20
40.3154
0
VERTEX
8
CUT
10
103.398
20
40.3154
0
VERTEX
8
CUT
10
105.398
20
37.5441
0
SEQEND
0
POLYLINE
8
CUT
66
1
70
0
0
VERTEX
8
CUT
10
104.698
20
28.5231
0
VERTEX
8
CUT
10
102.798
20
25.8904
0
VERTEX
8
CUT
10
98.998
20
25.8904
0
VERTEX
8
CUT
10
97.098
20
28.5231
0
VERTEX
8
CUT
10
98.998
20
31.1558
0
VERTEX
8
CUT
10
102.798
20
31.1558
0
VERTEX
8
CUT
10
104.698
20
28.5231
0
SEQEND
0
POLYLINE
8
CUT
66
1
70
0
0
VERTEX
8
CUT
10
105.3128
20
27.7122
0
VERTEX
8
CUT
10
103.398
20
25.059
0
VERTEX
8
CUT
10
99.5684
20
25.059
0
SEQEND
0
POLYLINE
8
CUT
66
1
70
0
0
VERTEX
8
CUT
10
97.8128
20
25.8699
0
VERTEX
8
CUT
10
95.898
20
28.5231
0
VERTEX
8
CUT
10
97.8128
20
31.1763
0
SEQEND
0
POLYLINE
8
CUT
66
1
70
0
0
VERTEX
8
CUT
10
99.398
20
31.9872
0
VERTEX
8
CUT
10
103.398
20
31.9872
0
VERTEX
8
CUT
10
105.398
20
29.2159
0
SEQEND
0
POLYLINE
8
CUT
66
1
70
0
0
VERTEX
8
CUT
10
104.698
20
20.1949
0
VERTEX
8
CUT
10
102.798
20
17.5622
0
VERTEX
8
CUT
10
98.998
20
17.5622
0
VERTEX
8
CUT
10
97.098
20
20.1949
0
VERTEX
8
CUT
10
98.998
20
22.8276
0
VERTEX
8
CUT
10
102.798
20
22.8276
0
VERTEX
8
CUT
10
104.698
20
20.1949
0
SEQEND
0
POLYLINE
8
CUT
66
1
70
0
0
VERTEX
8
CUT
10
105.3128
20
19.384
0
VERTEX
8
CUT
10
103.398
20
16.7308
0
VERTEX
8
CUT
10
99.5684
20
16.7308
0
SEQEND
0
POLYLINE
8
CUT
66
1
70
0
0
VERTEX
8
CUT
10
97.8128
20
17.5417
0
VERTEX
8
CUT
10
95.898
20
20.1949
0
VERTEX
8
CUT
10
97.8128
20
22.8481
0
SEQEND
0
POLYLINE
8
CUT
66
1
70
0
0
VERTEX
8
CUT
10
99.398
20
23.659
0
VERTEX
8
CUT
10
103.398
20
23.659
0
VERTEX
8
CUT
10
105.398
20
20.8877
0
SEQEND
0
POLYLINE
8
CUT
66
1
70
0
0
VERTEX
8
CUT
10
104.698
20
11.8667
0
VERTEX
8
CUT
10
102.798
20
9.234
0
VERTEX
8
CUT
10
98.998
20
9.234
0
VERTEX
8
CUT
10
97.098
20
11.8667
0
VERTEX
8
CUT
10
98.998
20
14.4994
0
VERTEX
8
CUT
10
102.798
20
14.4994
0
VERTEX
8
CUT
10
104.698
20
11.8667
0
SEQEND
0
POLYLINE
8
CUT
66
1
70
0
0
VERTEX
8
CUT
10
105.3128
20
11.0558
0
VERTEX
8
CUT
10
103.398
20
8.4026
0
VERTEX
8
CUT
10
99.5684
20
8.4026
0
SEQEND
0
POLYLINE
8
CUT
66
1
70
0
0
VERTEX
8
CUT
10
97.8128
20
9.2135
0
VERTEX
8
CUT
10
95.898
20
11.8667
0
VERTEX
8
CUT
10
97.8128
20
14.5199
0
SEQEND
0
POLYLINE
8
CUT
66
1
70
0
0
VERTEX
8
CUT
10
99.398
20
15.3308
0
VERTEX
8
CUT
10
103.398
20
15.3308
0
VERTEX
8
CUT
10
105.398
20
12.5595
0
SEQEND
0
POLYLINE
8
CUT
66
1
70
0
0
VERTEX
8
CUT
10
104.698
20
3.5385
0
VERTEX
8
CUT
10
102.798
20
0.9058
0
VERTEX
8
CUT
10
98.998
20
0.9058
0
VERTEX
8
CUT
10
97.098
20
3.5385
0
VERTEX
8
CUT
10
98.998
20
6.1712
0
VERTEX
8
CUT
10
102.798
20
6.1712
0
VERTEX
8
CUT
10
104.698
20
3.5385
0
SEQEND
0
POLYLINE
8
CUT
66
1
70
0
0
VERTEX
8
CUT
10
105.3128
20
2.7276
0
VERTEX
8
CUT
10
103.398
20
0.0744
0
VERTEX
8
CUT
10
99.5684
20
0.0744
0
SEQEND
0
POLYLINE
8
CUT
66
1
70
0
0
VERTEX
8
CUT
10
97.8128
20
0.8853
0
VERTEX
8
CUT
10
95.898
20
3.5385
0
VERTEX
8
CUT
10
97.8128
20
6.1917
0
SEQEND
0
POLYLINE
8
CUT
66
1
70
0
0
VERTEX
8
CUT
10
99.398
20
7.0026
0
VERTEX
8
CUT
10
103.398
20
7.0026
0
VERTEX
8
CUT
10
105.398
20
4.2313
0
SEQEND
0
POLYLINE
8
CUT
66
1
70
0
0
VERTEX
8
CUT
10
113.416
20
66
0
VERTEX
8
CUT
10
111.516
20
63.3673
0
VERTEX
8
CUT
10
107.716
20
63.3673
0
VERTEX
8
CUT
10
105.816
20
66
0
VERTEX
8
CUT
10
107.716
20
68.6327
0
VERTEX
8
CUT
10
111.516
20
68.6327
0
VERTEX
8
CUT
10
113.416
20
66
0
SEQEND
0
POLYLINE
8
CUT
66
1
70
0
0
VERTEX
8
CUT
10
114.0308
20
65.1891
0
VERTEX
8
CUT
10
112.116
20
62.5359
0
VERTEX
8
CUT
10
108.2864
20
62.5359
0
SEQEND
0
POLYLINE
8
CUT
66
1
70
0
0
VERTEX
8
CUT
10
106.5308
20
63.3468
0
VERTEX
8
CUT
10
104.616
20
66
0
VERTEX
8
CUT
10
106.5308
20
68.6532
0
SEQEND
0
POLYLINE
8
CUT
66
1
70
0
0
VERTEX
8
CUT
10
108.116
20
69.4641
0
VERTEX
8
CUT
10
112.116
20
69.4641
0
VERTEX
8
CUT
10
114.116
20
66.6928
0
SEQEND
0
POLYLINE
8
CUT
66
1
70
0
0
VERTEX
8
CUT
10
113.416
20
57.6718
0
VERTEX
8
CUT
10
111.516
20
55.0391
0
VERTEX
8
CUT
10
107.716
20
55.0391
0
VERTEX
8
CUT
10
105.816
20
57.6718
0
VERTEX
8
CUT
10
107.716
20
60.3045
0
VERTEX
8
CUT
10
111.516
20
60.3045
0
VERTEX
8
CUT
10
113.416
20
57.6718
0
SEQEND
0
POLYLINE
8
CUT
66
1
70
0
0
VERTEX
8
CUT
10
114.0308
20
56.8609
0
VERTEX
8
CUT
10
112.116
20
54.2077
0
VERTEX
8
CUT
10
108.2864
20
54.2077
0
SEQEND
0
POLYLINE
8
CUT
66
1
70
0
0
VERTEX
8
CUT
10
106.5308
20
55.0186
0
VERTEX
8
CUT
10
104.616
20
57.6718
0
VERTEX
8
CUT
10
106.5308
20
60.325
0
SEQEND
0
POLYLINE
8
CUT
66
1
70
0
0
VERTEX
8
CUT
10
108.116
20
61.1359
0
VERTEX
8
CUT
10
112.116
20
61.1359
0
VERTEX
8
CUT
10
114.116
20
58.3646
0
SEQEND
0
POLYLINE
8
CUT
66
1
70
0
0
VERTEX
8
CUT
10
113.416
20
49.3436
0
VERTEX
8
CUT
10
111.516
20
46.7109
0
VERTEX
8
CUT
10
107.716
20
46.7109
0
VERTEX
8
CUT
10
105.816
20
49.3436
0
VERTEX
8
CUT
10
107.716
20
51.9763
0
VERTEX
8
CUT
10
111.516
20
51.9763
0
VERTEX
8
CUT
10
113.416
20
49.3436
0
SEQEND
0
POLYLINE
8
CUT
66
1
70
0
0
VERTEX
8
CUT
10
114.0308
20
48.5327
0
VERTEX
8
CUT
10
112.116
20
45.8795
0
VERTEX
8
CUT
10
108.2864
20
45.8795
0
SEQEND
0
POLYLINE
8
CUT
66
1
70
0
0
VERTEX
8
CUT
10
106.5308
20
46.6904
0
VERTEX
8
CUT
10
104.616
20
49.3436
0
VERTEX
8
CUT
10
106.5308
20
51.9968
0
SEQEND
0
POLYLINE
8
CUT
66
1
70
0
0
VERTEX
8
CUT
10
108.116
20
52.8077
0
VERTEX
8
CUT
10
112.116
20
52.8077
0
VERTEX
8
CUT
10
114.116
20
50.0364
0
SEQEND
0
POLYLINE
8
CUT
66
1
70
0
0
VERTEX
8
CUT
10
113.416
20
41.0154
0
VERTEX
8
CUT
10
111.516
20
38.3827
0
VERTEX
8
CUT
10
107.716
20
38.3827
0
VERTEX
8
CUT
10
105.816
20
41.0154
0
VERTEX
8
CUT
10
107.716
20
43.6481
0
VERTEX
8
CUT
10
111.516
20
43.6481
0
VERTEX
8
CUT
10
113.416
20
41.0154
0
SEQEND
0
POLYLINE
8
CUT
66
1
70
0
0
VERTEX
8
CUT
10
114.0308
20
40.2045
0
VERTEX
8
CUT
10
112.116
20
37.5513
0
VERTEX
8
CUT
10
108.2864
20
37.5513
0
SEQEND
0
POLYLINE
8
CUT
66
1
70
0
0
VERTEX
8
CUT
10
106.5308
20
38.3622
0
VERTEX
8
CUT
10
104.616
20
41.0154
0
VERTEX
8
CUT
10
106.5308
20
43.6686
0
SEQEND
0
POLYLINE
8
CUT
66
1
70
0
0
VERTEX
8
CUT
10
108.116
20
44.4795
0
VERTEX
8
CUT
10
112.116
20
44.4795
0
VERTEX
8
CUT
10
114.116
20
41.7082
0
SEQEND
0
POLYLINE
8
CUT
66
1
70
0
0
VERTEX
8
CUT
10
113.416
20
32.6872
0
VERTEX
8
CUT
10
111.516
20
30.0545
0
VERTEX
8
CUT
10
107.716
20
30.0545
0
VERTEX
8
CUT
10
105.816
20
32.6872
0
VERTEX
8
CUT
10
107.716
20
35.3199
0
VERTEX
8
CUT
10
111.516
20
35.3199
0
VERTEX
8
CUT
10
113.416
20
32.6872
0
SEQEND
0
POLYLINE
8
CUT
66
1
70
0
0
VERTEX
8
CUT
10
114.0308
20
31.8763
0
VERTEX
8
CUT
10
112.116
20
29.2231
0
VERTEX
8
CUT
10
108.2864
20
29.2231
0
SEQEND
0
POLYLINE
8
CUT
66
1
70
0
0
VERTEX
8
CUT
10
106.5308
20
30.034
0
VERTEX
8
CUT
10
104.616
20
32.6872
0
VERTEX
8
CUT
10
106.5308
20
35.3404
0
SEQEND
0
POLYLINE
8
CUT
66
1
70
0
0
VERTEX
8
CUT
10
108.116
20
36.1513
0
VERTEX
8
CUT
10
112.116
20
36.1513
0
VERTEX
8
CUT
10
114.116
20
33.38
0
SEQEND
0
POLYLINE
8
CUT
66
1
70
0
0
VERTEX
8
CUT
10
113.416
20
24.359
0
VERTEX
8
CUT
10
111.516
20
21.7263
0
VERTEX
8
CUT
10
107.716
20
21.7263
0
VERTEX
8
CUT
10
105.816
20
24.359
0
VERTEX
8
CUT
10
107.716
20
26.9917
0
VERTEX
8
CUT
10
111.516
20
26.9917
0
VERTEX
8
CUT
10
113.416
20
24.359
0
SEQEND
0
POLYLINE
8
CUT
66
1
70
0
0
VERTEX
8
CUT
10
114.0308
20
23.5481
0
VERTEX
8
CUT
10
112.116
20
20.8949
0
VERTEX
8
CUT
10
108.2864
20
20.8949
0
SEQEND
0
POLYLINE
8
CUT
66
1
70
0
0
VERTEX
8
CUT
10
106.5308
20
21.7058
0
VERTEX
8
CUT
10
104.616
20
24.359
0
VERTEX
8
CUT
10
106.5308
20
27.0122
0
SEQEND
0
POLYLINE
8
CUT
66
1
70
0
0
VERTEX
8
CUT
10
108.116
20
27.8231
0
VERTEX
8
CUT
10
112.116
20
27.8231
0
VERTEX
8
CUT
10
114.116
20
25.0518
0
SEQEND
0
POLYLINE
8
CUT
66
1
70
0
0
VERTEX
8
CUT
10
113.416
20
16.0308
0
VERTEX
8
CUT
10
111.516
20
13.3981
0
VERTEX
8
CUT
10
107.716
20
13.3981
0
VERTEX
8
CUT
10
105.816
20
16.0308
0
VERTEX
8
CUT
10
107.716
20
18.6635
0
VERTEX
8
CUT
10
111.516
20
18.6635
0
VERTEX
8
CUT
10
113.416
20
16.0308
0
SEQEND
0
POLYLINE
8
CUT
66
1
70
0
0
VERTEX
8
CUT
10
114.0308
20
15.2199
0
VERTEX
8
CUT
10
112.116
20
12.5667
0
VERTEX
8
CUT
10
108.2864
20
12.5667
0
SEQEND
0
POLYLINE
8
CUT
66
1
70
0
0
VERTEX
8
CUT
10
106.5308
20
13.3776
0
VERTEX
8
CUT
10
104.616
20
16.0308
0
VERTEX
8
CUT
10
106.5308
20
18.684
0
SEQEND
0
POLYLINE
8
CUT
66
1
70
0
0
VERTEX
8
CUT
10
108.116
20
19.4949
0
VERTEX
8
CUT
10
112.116
20
19.4949
0
VERTEX
8
CUT
10
114.116
20
16.7236
0
SEQEND
0
POLYLINE
8
CUT
66
1
70
0
0
VERTEX
8
CUT
10
113.416
20
7.7026
0
VERTEX
8
CUT
10
111.516
20
5.0699
0
VERTEX
8
CUT
10
107.716
20
5.0699
0
VERTEX
8
CUT
10
105.816
20
7.7026
0
VERTEX
8
CUT
10
107.716
20
10.3353
0
VERTEX
8
CUT
10
111.516
20
10.3353
0
VERTEX
8
CUT
10
113.416
20
7.7026
0
SEQEND
0
POLYLINE
8
CUT
66
1
70
0
0
VERTEX
8
CUT
10
114.0308
20
6.8917
0
VERTEX
8
CUT
10
112.116
20
4.2385
0
VERTEX
8
CUT
10
108.2864
20
4.2385
0
SEQEND
0
POLYLINE
8
CUT
66
1
70
0
0
VERTEX
8
CUT
10
106.5308
20
5.0494
0
VERTEX
8
CUT
10
104.616
20
7.7026
0
VERTEX
8
CUT
10
106.5308
20
10.3558
0
SEQEND
0
POLYLINE
8
CUT
66
1
70
0
0
VERTEX
8
CUT
10
108.116
20
11.1667
0
VERTEX
8
CUT
10
112.116
20
11.1667
0
VERTEX
8
CUT
10
114.116
20
8.3954
0
SEQEND
0
POLYLINE
8
CUT
66
1
70
0
0
VERTEX
8
CUT
10
106.2675
20
0
0
VERTEX
8
CUT
10
107.716
20
2.0071
0
VERTEX
8
CUT
10
111.516
20
2.0071
0
VERTEX
8
CUT
10
112.9645
20
0
0
SEQEND
0
LINE
8
CUT
10
105.0675
20
0
11
106.5308
21
2.0276
0
POLYLINE
8
CUT
66
1
70
0
0
VERTEX
8
CUT
10
108.116
20
2.8385
0
VERTEX
8
CUT
10
112.116
20
2.8385
0
VERTEX
8
CUT
10
114.116
20
0.0672
0
SEQEND
0
POLYLINE
8
CUT
66
1
70
0
0
VERTEX
8
CUT
10
120
20
67.5314
0
VERTEX
8
CUT
10
116.434
20
67.5314
0
VERTEX
8
CUT
10
114.6524
20
70
0
SEQEND
0
LINE
8
CUT
10
120
20
66.7
11
117.0044
21
66.7
0
LINE
8
CUT
10
115.2488
20
67.5109
11
113.4524
21
70
0
POLYLINE
8
CUT
66
1
70
0
0
VERTEX
8
CUT
10
120
20
59.2032
0
VERTEX
8
CUT
10
116.434
20
59.2032
0
VERTEX
8
CUT
10
114.534
20
61.8359
0
VERTEX
8
CUT
10
116.434
20
64.4686
0
VERTEX
8
CUT
10
120
20
64.4686
0
SEQEND
0
LINE
8
CUT
10
120
20
58.3718
11
117.0044
21
58.3718
0
POLYLINE
8
CUT
66
1
70
0
0
VERTEX
8
CUT
10
115.2488
20
59.1827
0
VERTEX
8
CUT
10
113.334
20
61.8359
0
VERTEX
8
CUT
10
115.2488
20
64.4891
0
SEQEND
0
LINE
8
CUT
10
116.834
20
65.3
11
120
21
65.3
0
POLYLINE
8
CUT
66
1
70
0
0
VERTEX
8
CUT
10
120
20
50.875
0
VERTEX
8
CUT
10
116.434
20
50.875
0
VERTEX
8
CUT
10
114.534
20
53.5077
0
VERTEX
8
CUT
10
116.434
20
56.1404
0
VERTEX
8
CUT
10
120
20
56.1404
0
SEQEND
0
LINE
8
CUT
10
120
20
50.0436
11
117.0044
21
50.0436
0
POLYLINE
8
CUT
66
1
70
0
0
VERTEX
8
CUT
10
115.2488
20
50.8545
0
VERTEX
8
CUT
10
113.334
20
53.5077
0
VERTEX
8
CUT
10
115.2488
20
56.1609
0
SEQEND
0
LINE
8
CUT
10
116.834
20
56.9718
11
120
21
56.9718
0
POLYLINE
8
CUT
66
1
70
0
0
VERTEX
8
CUT
10
120
20
42.5468
0
VERTEX
8
CUT
10
116.434
20
42.5468
0
VERTEX
8
CUT
10
114.534
20
45.1795
0
VERTEX
8
CUT
10
116.434
20
47.8122
0
VERTEX
8
CUT
10
120
20
47.8122
0
SEQEND
0
LINE
8
CUT
10
120
20
41.7154
11
117.0044
21
41.7154
0
POLYLINE
8
CUT
66
1
70
0
0
VERTEX
8
CUT
10
115.2488
20
42.5263
0
VERTEX
8
CUT
10
113.334
20
45.1795
0
VERTEX
8
CUT
10
115.2488
20
47.8327
0
SEQEND
0
LINE
8
CUT
10
116.834
20
48.6436
11
120
21
48.6436
0
POLYLINE
8
CUT
66
1
70
0
0
VERTEX
8
CUT
10
120
20
34.2186
0
VERTEX
8
CUT
10
116.434
20
34.2186
0
VERTEX
8
CUT
10
114.534
20
36.8513
0
VERTEX
8
CUT
10
116.434
20
39.484
0
VERTEX
8
CUT
10
120
20
39.484
0
SEQEND
0
LINE
8
CUT
10
120
20
33.3872
11
117.0044
21
33.3872
0
POLYLINE
8
CUT
66
1
70
0
0
VERTEX
8
CUT
10
115.2488
20
34.1981
0
VERTEX
8
CUT
10
113.334
20
36.8513
0
VERTEX
8
CUT
10
115.2488
20
39.5045
0
SEQEND
0
LINE
8
CUT
10
116.834
20
40.3154
11
120
21
40.3154
0
POLYLINE
8
CUT
66
1
70
0
0
VERTEX
8
CUT
10
120
20
25.8904
0
VERTEX
8
CUT
10
116.434
20
25.8904
0
VERTEX
8
CUT
10
114.534
20
28.5231
0
VERTEX
8
CUT
10
116.434
20
31.1558
0
VERTEX
8
CUT
10
120
20
31.1558
0
SEQEND
0
LINE
8
CUT
10
120
20
25.059
11
117.0044
21
25.059
0
POLYLINE
8
CUT
66
1
70
0
0
VERTEX
8
CUT
10
115.2488
20
25.8699
0
VERTEX
8
CUT
10
113.334
20
28.5231
0
VERTEX
8
CUT
10
115.2488
20
31.1763
0
SEQEND
0
LINE
8
CUT
10
116.834
20
31.9872
11
120
21
31.9872
0
POLYLINE
8
CUT
66
1
70
0
0
VERTEX
8
CUT
10
120
20
17.5622
0
VERTEX
8
CUT
10
116.434
20
17.5622
0
VERTEX
8
CUT
10
114.534
20
20.1949
0
VERTEX
8
CUT
10
116.434
20
22.8276
0
VERTEX
8
CUT
10
120
20
22.8276
0
SEQEND
0
LINE
8
CUT
10
120
20
16.7308
11
117.0044
21
16.7308
0
POLYLINE
8
CUT
66
1
70
0
0
VERTEX
8
CUT
10
115.2488
20
17.5417
0
VERTEX
8
CUT
10
113.334
20
20.1949
0
VERTEX
8
CUT
10
115.2488
20
22.8481
0
SEQEND
0
LINE
8
CUT
10
116.834
20
23.659
11
120
21
23.659
0
POLYLINE
8
CUT
66
1
70
0
0
VERTEX
8
CUT
10
120
20
9.234
0
VERTEX
8
CUT
10
116.434
20
9.234
0
VERTEX
8
CUT
10
114.534
20
11.8667
0
VERTEX
8
CUT
10
116.434
20
14.4994
0
VERTEX
8
CUT
10
120
20
14.4994
0
SEQEND
0
LINE
8
CUT
10
120
20
8.4026
11
117.0044
21
8.4026
0
POLYLINE
8
CUT
66
1
70
0
0
VERTEX
8
CUT
10
115.2488
20
9.2135
0
VERTEX
8
CUT
10
113.334
20
11.8667
0
VERTEX
8
CUT
10
115.2488
20
14.5199
0
SEQEND
0
LINE
8
CUT
10
116.834
20
15.3308
11
120
21
15.3308
0
POLYLINE
8
CUT
66
1
70
0
0
VERTEX
8
CUT
10
120
20
0.9058
0
VERTEX
8
CUT
10
116.434
20
0.9058
0
VERTEX
8
CUT
10
114.534
20
3.5385
0
VERTEX
8
CUT
10
116.434
20
6.1712
0
VERTEX
8
CUT
10
120
20
6.1712
0
SEQEND
0
LINE
8
CUT
10
120
20
0.0744
11
117.0044
21
0.0744
0
POLYLINE
8
CUT
66
1
70
0
0
VERTEX
8
CUT
10
115.2488
20
0.8853
0
VERTEX
8
CUT
10
113.334
20
3.5385
0
VERTEX
8
CUT
10
115.2488
20
6.1917
0
SEQEND
0
LINE
8
CUT
10
116.834
20
7.0026
11
120
21
7.0026
0
POLYLINE
8
CUT
66
1
70
0
0
VERTEX
8
CUT
10
0
20
70
0
VERTEX
8
CUT
10
120
20
70
0
VERTEX
8
CUT
10
120
20
0
0
VERTEX
8
CUT
10
0
20
0
0
VERTEX
8
CUT
10
0
20
70
0
SEQEND
0
ENDSEC
0
EOF
