0
SECTION
2
HEADER
9
$ACADVER
1
AC1009
9
$INSUNITS
70
4
0
ENDSEC
0
SECTION
2
TABLES
0
TABLE
2
LAYER
70
1
0
LAYER
2
CUT
70
0
62
1
6
CONTINUOUS
0
ENDTAB
0
ENDSEC
0
SECTION
2
ENTITIES
0
POLYLINE
8
CUT
66
1
70
0
0
VERTEX
8
CUT
10
2
20
70
0
VERTEX
8
CUT
10
2.3145
20
69.4
0
VERTEX
8
CUT
10
2.8407
20
68.2
0
VERTEX
8
CUT
10
3.092
20
67
0
VERTEX
8
CUT
10
2.9861
20
65.8
0
VERTEX
8
CUT
10
2.5577
20
64.6
0
VERTEX
8
CUT
10
1.9469
20
63.4
0
VERTEX
8
CUT
10
1.3534
20
62.2
0
VERTEX
8
CUT
10
0.9715
20
61
0
VERTEX
8
CUT
10
0.9259
20
59.8
0
VERTEX
8
CUT
10
1.2316
20
58.6
0
VERTEX
8
CUT
10
1.7887
20
57.4
0
VERTEX
8
CUT
10
2.4148
20
56.2
0
VERTEX
8
CUT
10
2.9053
20
55
0
SEQEND
0
POLYLINE
8
CUT
66
1
70
0
0
VERTEX
8
CUT
10
3.092
20
53.5
0
VERTEX
8
CUT
10
2.8407
20
52.3
0
VERTEX
8
CUT
10
2.3145
20
51.1
0
VERTEX
8
CUT
10
1.6855
20
49.9
0
VERTEX
8
CUT
10
1.1593
20
48.7
0
VERTEX
8
CUT
10
0.908
20
47.5
0
VERTEX
8
CUT
10
1.0139
20
46.3
0
VERTEX
8
CUT
10
1.4423
20
45.1
0
VERTEX
8
CUT
10
2.0531
20
43.9
0
VERTEX
8
CUT
10
2.6466
20
42.7
0
VERTEX
8
CUT
10
3.0285
20
41.5
0
VERTEX
8
CUT
10
3.0741
20
40.3
0
VERTEX
8
CUT
10
2.7684
20
39.1
0
VERTEX
8
CUT
10
2.2113
20
37.9
0
VERTEX
8
CUT
10
1.5852
20
36.7
0
VERTEX
8
CUT
10
1.0947
20
35.5
0
VERTEX
8
CUT
10
0.9003
20
34.3
0
VERTEX
8
CUT
10
1.0656
20
33.1
0
VERTEX
8
CUT
10
1.5365
20
31.9
0
VERTEX
8
CUT
10
2.1589
20
30.7
0
VERTEX
8
CUT
10
2.7294
20
29.5
0
VERTEX
8
CUT
10
3.0614
20
28.3
0
VERTEX
8
CUT
10
3.0462
20
27.1
0
VERTEX
8
CUT
10
2.6888
20
25.9
0
VERTEX
8
CUT
10
2.1062
20
24.7
0
VERTEX
8
CUT
10
1.4888
20
23.5
0
SEQEND
0
POLYLINE
8
CUT
66
1
70
0
0
VERTEX
8
CUT
10
0.9715
20
22
0
VERTEX
8
CUT
10
0.9259
20
20.8
0
VERTEX
8
CUT
10
1.2316
20
19.6
0
VERTEX
8
CUT
10
1.7887
20
18.4
0
VERTEX
8
CUT
10
2.4148
20
17.2
0
VERTEX
8
CUT
10
2.9053
20
16
0
VERTEX
8
CUT
10
3.0997
20
14.8
0
VERTEX
8
CUT
10
2.9344
20
13.6
0
VERTEX
8
CUT
10
2.4635
20
12.4
0
VERTEX
8
CUT
10
1.8411
20
11.2
0
VERTEX
8
CUT
10
1.2706
20
10
0
VERTEX
8
CUT
10
0.9386
20
8.8
0
VERTEX
8
CUT
10
0.9538
20
7.6
0
VERTEX
8
CUT
10
1.3112
20
6.4
0
VERTEX
8
CUT
10
1.8938
20
5.2
0
VERTEX
8
CUT
10
2.5112
20
4
0
VERTEX
8
CUT
10
2.9614
20
2.8
0
VERTEX
8
CUT
10
3.0971
20
1.6
0
VERTEX
8
CUT
10
2.874
20
0.4
0
VERTEX
8
CUT
10
2.7044
20
0
0
SEQEND
0
POLYLINE
8
CUT
66
1
70
0
0
VERTEX
8
CUT
10
6.3901
20
69.25
0
VERTEX
8
CUT
10
6.8899
20
68.05
0
VERTEX
8
CUT
10
7.0987
20
66.85
0
VERTEX
8
CUT
10
6.9482
20
65.65
0
VERTEX
8
CUT
10
6.4875
20
64.45
0
VERTEX
8
CUT
10
5.8674
20
63.25
0
VERTEX
8
CUT
10
5.2907
20
62.05
0
VERTEX
8
CUT
10
4.9459
20
60.85
0
VERTEX
8
CUT
10
4.9459
20
59.65
0
VERTEX
8
CUT
10
5.2907
20
58.45
0
VERTEX
8
CUT
10
5.8674
20
57.25
0
VERTEX
8
CUT
10
6.4875
20
56.05
0
VERTEX
8
CUT
10
6.9482
20
54.85
0
VERTEX
8
CUT
10
7.0987
20
53.65
0
VERTEX
8
CUT
10
6.8899
20
52.45
0
VERTEX
8
CUT
10
6.3901
20
51.25
0
VERTEX
8
CUT
10
5.7626
20
50.05
0
VERTEX
8
CUT
10
5.2128
20
48.85
0
VERTEX
8
CUT
10
4.9205
20
47.65
0
VERTEX
8
CUT
10
4.9812
20
46.45
0
VERTEX
8
CUT
10
5.3751
20
45.25
0
VERTEX
8
CUT
10
5.9734
20
44.05
0
VERTEX
8
CUT
10
6.5804
20
42.85
0
VERTEX
8
CUT
10
6.9976
20
41.65
0
VERTEX
8
CUT
10
7.0885
20
40.45
0
VERTEX
8
CUT
10
6.8234
20
39.25
0
SEQEND
0
POLYLINE
8
CUT
66
1
70
0
0
VERTEX
8
CUT
10
6.1326
20
37.75
0
VERTEX
8
CUT
10
5.5125
20
36.55
0
VERTEX
8
CUT
10
5.0518
20
35.35
0
VERTEX
8
CUT
10
4.9013
20
34.15
0
VERTEX
8
CUT
10
5.1101
20
32.95
0
VERTEX
8
CUT
10
5.6099
20
31.75
0
VERTEX
8
CUT
10
6.2374
20
30.55
0
VERTEX
8
CUT
10
6.7872
20
29.35
0
VERTEX
8
CUT
10
7.0795
20
28.15
0
VERTEX
8
CUT
10
7.0188
20
26.95
0
VERTEX
8
CUT
10
6.6249
20
25.75
0
VERTEX
8
CUT
10
6.0266
20
24.55
0
VERTEX
8
CUT
10
5.4196
20
23.35
0
VERTEX
8
CUT
10
5.0024
20
22.15
0
VERTEX
8
CUT
10
4.9115
20
20.95
0
VERTEX
8
CUT
10
5.1766
20
19.75
0
VERTEX
8
CUT
10
5.711
20
18.55
0
VERTEX
8
CUT
10
6.3399
20
17.35
0
VERTEX
8
CUT
10
6.8576
20
16.15
0
VERTEX
8
CUT
10
7.0949
20
14.95
0
VERTEX
8
CUT
10
6.974
20
13.75
0
VERTEX
8
CUT
10
6.5346
20
12.55
0
VERTEX
8
CUT
10
5.9203
20
11.35
0
VERTEX
8
CUT
10
5.3321
20
10.15
0
VERTEX
8
CUT
10
4.9624
20
8.95
0
VERTEX
8
CUT
10
4.932
20
7.75
0
SEQEND
0
POLYLINE
8
CUT
66
1
70
0
0
VERTEX
8
CUT
10
5.3751
20
6.25
0
VERTEX
8
CUT
10
5.9734
20
5.05
0
VERTEX
8
CUT
10
6.5804
20
3.85
0
VERTEX
8
CUT
10
6.9976
20
2.65
0
VERTEX
8
CUT
10
7.0885
20
1.45
0
VERTEX
8
CUT
10
6.8234
20
0.25
0
VERTEX
8
CUT
10
6.712
20
0
0
SEQEND
0
POLYLINE
8
CUT
66
1
70
0
0
VERTEX
8
CUT
10
10
20
70
0
VERTEX
8
CUT
10
10.3145
20
69.4
0
VERTEX
8
CUT
10
10.8407
20
68.2
0
VERTEX
8
CUT
10
11.092
20
67
0
VERTEX
8
CUT
10
10.9861
20
65.8
0
VERTEX
8
CUT
10
10.5577
20
64.6
0
VERTEX
8
CUT
10
9.9469
20
63.4
0
VERTEX
8
CUT
10
9.3534
20
62.2
0
VERTEX
8
CUT
10
8.9715
20
61
0
VERTEX
8
CUT
10
8.9259
20
59.8
0
VERTEX
8
CUT
10
9.2316
20
58.6
0
VERTEX
8
CUT
10
9.7887
20
57.4
0
VERTEX
8
CUT
10
10.4148
20
56.2
0
VERTEX
8
CUT
10
10.9053
20
55
0
SEQEND
0
POLYLINE
8
CUT
66
1
70
0
0
VERTEX
8
CUT
10
11.092
20
53.5
0
VERTEX
8
CUT
10
10.8407
20
52.3
0
VERTEX
8
CUT
10
10.3145
20
51.1
0
VERTEX
8
CUT
10
9.6855
20
49.9
0
VERTEX
8
CUT
10
9.1593
20
48.7
0
VERTEX
8
CUT
10
8.908
20
47.5
0
VERTEX
8
CUT
10
9.0139
20
46.3
0
VERTEX
8
CUT
10
9.4423
20
45.1
0
VERTEX
8
CUT
10
10.0531
20
43.9
0
VERTEX
8
CUT
10
10.6466
20
42.7
0
VERTEX
8
CUT
10
11.0285
20
41.5
0
VERTEX
8
CUT
10
11.0741
20
40.3
0
VERTEX
8
CUT
10
10.7684
20
39.1
0
VERTEX
8
CUT
10
10.2113
20
37.9
0
VERTEX
8
CUT
10
9.5852
20
36.7
0
VERTEX
8
CUT
10
9.0947
20
35.5
0
VERTEX
8
CUT
10
8.9003
20
34.3
0
VERTEX
8
CUT
10
9.0656
20
33.1
0
VERTEX
8
CUT
10
9.5365
20
31.9
0
VERTEX
8
CUT
10
10.1589
20
30.7
0
VERTEX
8
CUT
10
10.7294
20
29.5
0
VERTEX
8
CUT
10
11.0614
20
28.3
0
VERTEX
8
CUT
10
11.0462
20
27.1
0
VERTEX
8
CUT
10
10.6888
20
25.9
0
VERTEX
8
CUT
10
10.1062
20
24.7
0
VERTEX
8
CUT
10
9.4888
20
23.5
0
SEQEND
0
POLYLINE
8
CUT
66
1
70
0
0
VERTEX
8
CUT
10
8.9715
20
22
0
VERTEX
8
CUT
10
8.9259
20
20.8
0
VERTEX
8
CUT
10
9.2316
20
19.6
0
VERTEX
8
CUT
10
9.7887
20
18.4
0
VERTEX
8
CUT
10
10.4148
20
17.2
0
VERTEX
8
CUT
10
10.9053
20
16
0
VERTEX
8
CUT
10
11.0997
20
14.8
0
VERTEX
8
CUT
10
10.9344
20
13.6
0
VERTEX
8
CUT
10
10.4635
20
12.4
0
VERTEX
8
CUT
10
9.8411
20
11.2
0
VERTEX
8
CUT
10
9.2706
20
10
0
VERTEX
8
CUT
10
8.9386
20
8.8
0
VERTEX
8
CUT
10
8.9538
20
7.6
0
VERTEX
8
CUT
10
9.3112
20
6.4
0
VERTEX
8
CUT
10
9.8938
20
5.2
0
VERTEX
8
CUT
10
10.5112
20
4
0
VERTEX
8
CUT
10
10.9614
20
2.8
0
VERTEX
8
CUT
10
11.0971
20
1.6
0
VERTEX
8
CUT
10
10.874
20
0.4
0
VERTEX
8
CUT
10
10.7044
20
0
0
SEQEND
0
POLYLINE
8
CUT
66
1
70
0
0
VERTEX
8
CUT
10
14.3901
20
69.25
0
VERTEX
8
CUT
10
14.8899
20
68.05
0
VERTEX
8
CUT
10
15.0987
20
66.85
0
VERTEX
8
CUT
10
14.9482
20
65.65
0
VERTEX
8
CUT
10
14.4875
20
64.45
0
VERTEX
8
CUT
10
13.8674
20
63.25
0
VERTEX
8
CUT
10
13.2907
20
62.05
0
VERTEX
8
CUT
10
12.9459
20
60.85
0
VERTEX
8
CUT
10
12.9459
20
59.65
0
VERTEX
8
CUT
10
13.2907
20
58.45
0
VERTEX
8
CUT
10
13.8674
20
57.25
0
VERTEX
8
CUT
10
14.4875
20
56.05
0
VERTEX
8
CUT
10
14.9482
20
54.85
0
VERTEX
8
CUT
10
15.0987
20
53.65
0
VERTEX
8
CUT
10
14.8899
20
52.45
0
VERTEX
8
CUT
10
14.3901
20
51.25
0
VERTEX
8
CUT
10
13.7626
20
50.05
0
VERTEX
8
CUT
10
13.2128
20
48.85
0
VERTEX
8
CUT
10
12.9205
20
47.65
0
VERTEX
8
CUT
10
12.9812
20
46.45
0
VERTEX
8
CUT
10
13.3751
20
45.25
0
VERTEX
8
CUT
10
13.9734
20
44.05
0
VERTEX
8
CUT
10
14.5804
20
42.85
0
VERTEX
8
CUT
10
14.9976
20
41.65
0
VERTEX
8
CUT
10
15.0885
20
40.45
0
VERTEX
8
CUT
10
14.8234
20
39.25
0
SEQEND
0
POLYLINE
8
CUT
66
1
70
0
0
VERTEX
8
CUT
10
14.1326
20
37.75
0
VERTEX
8
CUT
10
13.5125
20
36.55
0
VERTEX
8
CUT
10
13.0518
20
35.35
0
VERTEX
8
CUT
10
12.9013
20
34.15
0
VERTEX
8
CUT
10
13.1101
20
32.95
0
VERTEX
8
CUT
10
13.6099
20
31.75
0
VERTEX
8
CUT
10
14.2374
20
30.55
0
VERTEX
8
CUT
10
14.7872
20
29.35
0
VERTEX
8
CUT
10
15.0795
20
28.15
0
VERTEX
8
CUT
10
15.0188
20
26.95
0
VERTEX
8
CUT
10
14.6249
20
25.75
0
VERTEX
8
CUT
10
14.0266
20
24.55
0
VERTEX
8
CUT
10
13.4196
20
23.35
0
VERTEX
8
CUT
10
13.0024
20
22.15
0
VERTEX
8
CUT
10
12.9115
20
20.95
0
VERTEX
8
CUT
10
13.1766
20
19.75
0
VERTEX
8
CUT
10
13.711
20
18.55
0
VERTEX
8
CUT
10
14.3399
20
17.35
0
VERTEX
8
CUT
10
14.8576
20
16.15
0
VERTEX
8
CUT
10
15.0949
20
14.95
0
VERTEX
8
CUT
10
14.974
20
13.75
0
VERTEX
8
CUT
10
14.5346
20
12.55
0
VERTEX
8
CUT
10
13.9203
20
11.35
0
VERTEX
8
CUT
10
13.3321
20
10.15
0
VERTEX
8
CUT
10
12.9624
20
8.95
0
VERTEX
8
CUT
10
12.932
20
7.75
0
SEQEND
0
POLYLINE
8
CUT
66
1
70
0
0
VERTEX
8
CUT
10
13.3751
20
6.25
0
VERTEX
8
CUT
10
13.9734
20
5.05
0
VERTEX
8
CUT
10
14.5804
20
3.85
0
VERTEX
8
CUT
10
14.9976
20
2.65
0
VERTEX
8
CUT
10
15.0885
20
1.45
0
VERTEX
8
CUT
10
14.8234
20
0.25
0
VERTEX
8
CUT
10
14.712
20
0
0
SEQEND
0
POLYLINE
8
CUT
66
1
70
0
0
VERTEX
8
CUT
10
18
20
70
0
VERTEX
8
CUT
10
18.3145
20
69.4
0
VERTEX
8
CUT
10
18.8407
20
68.2
0
VERTEX
8
CUT
10
19.092
20
67
0
VERTEX
8
CUT
10
18.9861
20
65.8
0
VERTEX
8
CUT
10
18.5577
20
64.6
0
VERTEX
8
CUT
10
17.9469
20
63.4
0
VERTEX
8
CUT
10
17.3534
20
62.2
0
VERTEX
8
CUT
10
16.9715
20
61
0
VERTEX
8
CUT
10
16.9259
20
59.8
0
VERTEX
8
CUT
10
17.2316
20
58.6
0
VERTEX
8
CUT
10
17.7887
20
57.4
0
VERTEX
8
CUT
10
18.4148
20
56.2
0
VERTEX
8
CUT
10
18.9053
20
55
0
SEQEND
0
POLYLINE
8
CUT
66
1
70
0
0
VERTEX
8
CUT
10
19.092
20
53.5
0
VERTEX
8
CUT
10
18.8407
20
52.3
0
VERTEX
8
CUT
10
18.3145
20
51.1
0
VERTEX
8
CUT
10
17.6855
20
49.9
0
VERTEX
8
CUT
10
17.1593
20
48.7
0
VERTEX
8
CUT
10
16.908
20
47.5
0
VERTEX
8
CUT
10
17.0139
20
46.3
0
VERTEX
8
CUT
10
17.4423
20
45.1
0
VERTEX
8
CUT
10
18.0531
20
43.9
0
VERTEX
8
CUT
10
18.6466
20
42.7
0
VERTEX
8
CUT
10
19.0285
20
41.5
0
VERTEX
8
CUT
10
19.0741
20
40.3
0
VERTEX
8
CUT
10
18.7684
20
39.1
0
VERTEX
8
CUT
10
18.2113
20
37.9
0
VERTEX
8
CUT
10
17.5852
20
36.7
0
VERTEX
8
CUT
10
17.0947
20
35.5
0
VERTEX
8
CUT
10
16.9003
20
34.3
0
VERTEX
8
CUT
10
17.0656
20
33.1
0
VERTEX
8
CUT
10
17.5365
20
31.9
0
VERTEX
8
CUT
10
18.1589
20
30.7
0
VERTEX
8
CUT
10
18.7294
20
29.5
0
VERTEX
8
CUT
10
19.0614
20
28.3
0
VERTEX
8
CUT
10
19.0462
20
27.1
0
VERTEX
8
CUT
10
18.6888
20
25.9
0
VERTEX
8
CUT
10
18.1062
20
24.7
0
VERTEX
8
CUT
10
17.4888
20
23.5
0
SEQEND
0
POLYLINE
8
CUT
66
1
70
0
0
VERTEX
8
CUT
10
16.9715
20
22
0
VERTEX
8
CUT
10
16.9259
20
20.8
0
VERTEX
8
CUT
10
17.2316
20
19.6
0
VERTEX
8
CUT
10
17.7887
20
18.4
0
VERTEX
8
CUT
10
18.4148
20
17.2
0
VERTEX
8
CUT
10
18.9053
20
16
0
VERTEX
8
CUT
10
19.0997
20
14.8
0
VERTEX
8
CUT
10
18.9344
20
13.6
0
VERTEX
8
CUT
10
18.4635
20
12.4
0
VERTEX
8
CUT
10
17.8411
20
11.2
0
VERTEX
8
CUT
10
17.2706
20
10
0
VERTEX
8
CUT
10
16.9386
20
8.8
0
VERTEX
8
CUT
10
16.9538
20
7.6
0
VERTEX
8
CUT
10
17.3112
20
6.4
0
VERTEX
8
CUT
10
17.8938
20
5.2
0
VERTEX
8
CUT
10
18.5112
20
4
0
VERTEX
8
CUT
10
18.9614
20
2.8
0
VERTEX
8
CUT
10
19.0971
20
1.6
0
VERTEX
8
CUT
10
18.874
20
0.4
0
VERTEX
8
CUT
10
18.7044
20
0
0
SEQEND
0
POLYLINE
8
CUT
66
1
70
0
0
VERTEX
8
CUT
10
22.3901
20
69.25
0
VERTEX
8
CUT
10
22.8899
20
68.05
0
VERTEX
8
CUT
10
23.0987
20
66.85
0
VERTEX
8
CUT
10
22.9482
20
65.65
0
VERTEX
8
CUT
10
22.4875
20
64.45
0
VERTEX
8
CUT
10
21.8674
20
63.25
0
VERTEX
8
CUT
10
21.2907
20
62.05
0
VERTEX
8
CUT
10
20.9459
20
60.85
0
VERTEX
8
CUT
10
20.9459
20
59.65
0
VERTEX
8
CUT
10
21.2907
20
58.45
0
VERTEX
8
CUT
10
21.8674
20
57.25
0
VERTEX
8
CUT
10
22.4875
20
56.05
0
VERTEX
8
CUT
10
22.9482
20
54.85
0
VERTEX
8
CUT
10
23.0987
20
53.65
0
VERTEX
8
CUT
10
22.8899
20
52.45
0
VERTEX
8
CUT
10
22.3901
20
51.25
0
VERTEX
8
CUT
10
21.7626
20
50.05
0
VERTEX
8
CUT
10
21.2128
20
48.85
0
VERTEX
8
CUT
10
20.9205
20
47.65
0
VERTEX
8
CUT
10
20.9812
20
46.45
0
VERTEX
8
CUT
10
21.3751
20
45.25
0
VERTEX
8
CUT
10
21.9734
20
44.05
0
VERTEX
8
CUT
10
22.5804
20
42.85
0
VERTEX
8
CUT
10
22.9976
20
41.65
0
VERTEX
8
CUT
10
23.0885
20
40.45
0
VERTEX
8
CUT
10
22.8234
20
39.25
0
SEQEND
0
POLYLINE
8
CUT
66
1
70
0
0
VERTEX
8
CUT
10
22.1326
20
37.75
0
VERTEX
8
CUT
10
21.5125
20
36.55
0
VERTEX
8
CUT
10
21.0518
20
35.35
0
VERTEX
8
CUT
10
20.9013
20
34.15
0
VERTEX
8
CUT
10
21.1101
20
32.95
0
VERTEX
8
CUT
10
21.6099
20
31.75
0
VERTEX
8
CUT
10
22.2374
20
30.55
0
VERTEX
8
CUT
10
22.7872
20
29.35
0
VERTEX
8
CUT
10
23.0795
20
28.15
0
VERTEX
8
CUT
10
23.0188
20
26.95
0
VERTEX
8
CUT
10
22.6249
20
25.75
0
VERTEX
8
CUT
10
22.0266
20
24.55
0
VERTEX
8
CUT
10
21.4196
20
23.35
0
VERTEX
8
CUT
10
21.0024
20
22.15
0
VERTEX
8
CUT
10
20.9115
20
20.95
0
VERTEX
8
CUT
10
21.1766
20
19.75
0
VERTEX
8
CUT
10
21.711
20
18.55
0
VERTEX
8
CUT
10
22.3399
20
17.35
0
VERTEX
8
CUT
10
22.8576
20
16.15
0
VERTEX
8
CUT
10
23.0949
20
14.95
0
VERTEX
8
CUT
10
22.974
20
13.75
0
VERTEX
8
CUT
10
22.5346
20
12.55
0
VERTEX
8
CUT
10
21.9203
20
11.35
0
VERTEX
8
CUT
10
21.3321
20
10.15
0
VERTEX
8
CUT
10
20.9624
20
8.95
0
VERTEX
8
CUT
10
20.932
20
7.75
0
SEQEND
0
POLYLINE
8
CUT
66
1
70
0
0
VERTEX
8
CUT
10
21.3751
20
6.25
0
VERTEX
8
CUT
10
21.9734
20
5.05
0
VERTEX
8
CUT
10
22.5804
20
3.85
0
VERTEX
8
CUT
10
22.9976
20
2.65
0
VERTEX
8
CUT
10
23.0885
20
1.45
0
VERTEX
8
CUT
10
22.8234
20
0.25
0
VERTEX
8
CUT
10
22.712
20
0
0
SEQEND
0
POLYLINE
8
CUT
66
1
70
0
0
VERTEX
8
CUT
10
26
20
70
0
VERTEX
8
CUT
10
26.3145
20
69.4
0
VERTEX
8
CUT
10
26.8407
20
68.2
0
VERTEX
8
CUT
10
27.092
20
67
0
VERTEX
8
CUT
10
26.9861
20
65.8
0
VERTEX
8
CUT
10
26.5577
20
64.6
0
VERTEX
8
CUT
10
25.9469
20
63.4
0
VERTEX
8
CUT
10
25.3534
20
62.2
0
VERTEX
8
CUT
10
24.9715
20
61
0
VERTEX
8
CUT
10
24.9259
20
59.8
0
VERTEX
8
CUT
10
25.2316
20
58.6
0
VERTEX
8
CUT
10
25.7887
20
57.4
0
VERTEX
8
CUT
10
26.4148
20
56.2
0
VERTEX
8
CUT
10
26.9053
20
55
0
SEQEND
0
POLYLINE
8
CUT
66
1
70
0
0
VERTEX
8
CUT
10
27.092
20
53.5
0
VERTEX
8
CUT
10
26.8407
20
52.3
0
VERTEX
8
CUT
10
26.3145
20
51.1
0
VERTEX
8
CUT
10
25.6855
20
49.9
0
VERTEX
8
CUT
10
25.1593
20
48.7
0
VERTEX
8
CUT
10
24.908
20
47.5
0
VERTEX
8
CUT
10
25.0139
20
46.3
0
VERTEX
8
CUT
10
25.4423
20
45.1
0
VERTEX
8
CUT
10
26.0531
20
43.9
0
VERTEX
8
CUT
10
26.6466
20
42.7
0
VERTEX
8
CUT
10
27.0285
20
41.5
0
VERTEX
8
CUT
10
27.0741
20
40.3
0
VERTEX
8
CUT
10
26.7684
20
39.1
0
VERTEX
8
CUT
10
26.2113
20
37.9
0
VERTEX
8
CUT
10
25.5852
20
36.7
0
VERTEX
8
CUT
10
25.0947
20
35.5
0
VERTEX
8
CUT
10
24.9003
20
34.3
0
VERTEX
8
CUT
10
25.0656
20
33.1
0
VERTEX
8
CUT
10
25.5365
20
31.9
0
VERTEX
8
CUT
10
26.1589
20
30.7
0
VERTEX
8
CUT
10
26.7294
20
29.5
0
VERTEX
8
CUT
10
27.0614
20
28.3
0
VERTEX
8
CUT
10
27.0462
20
27.1
0
VERTEX
8
CUT
10
26.6888
20
25.9
0
VERTEX
8
CUT
10
26.1062
20
24.7
0
VERTEX
8
CUT
10
25.4888
20
23.5
0
SEQEND
0
POLYLINE
8
CUT
66
1
70
0
0
VERTEX
8
CUT
10
24.9715
20
22
0
VERTEX
8
CUT
10
24.9259
20
20.8
0
VERTEX
8
CUT
10
25.2316
20
19.6
0
VERTEX
8
CUT
10
25.7887
20
18.4
0
VERTEX
8
CUT
10
26.4148
20
17.2
0
VERTEX
8
CUT
10
26.9053
20
16
0
VERTEX
8
CUT
10
27.0997
20
14.8
0
VERTEX
8
CUT
10
26.9344
20
13.6
0
VERTEX
8
CUT
10
26.4635
20
12.4
0
VERTEX
8
CUT
10
25.8411
20
11.2
0
VERTEX
8
CUT
10
25.2706
20
10
0
VERTEX
8
CUT
10
24.9386
20
8.8
0
VERTEX
8
CUT
10
24.9538
20
7.6
0
VERTEX
8
CUT
10
25.3112
20
6.4
0
VERTEX
8
CUT
10
25.8938
20
5.2
0
VERTEX
8
CUT
10
26.5112
20
4
0
VERTEX
8
CUT
10
26.9614
20
2.8
0
VERTEX
8
CUT
10
27.0971
20
1.6
0
VERTEX
8
CUT
10
26.874
20
0.4
0
VERTEX
8
CUT
10
26.7044
20
0
0
SEQEND
0
POLYLINE
8
CUT
66
1
70
0
0
VERTEX
8
CUT
10
30.3901
20
69.25
0
VERTEX
8
CUT
10
30.8899
20
68.05
0
VERTEX
8
CUT
10
31.0987
20
66.85
0
VERTEX
8
CUT
10
30.9482
20
65.65
0
VERTEX
8
CUT
10
30.4875
20
64.45
0
VERTEX
8
CUT
10
29.8674
20
63.25
0
VERTEX
8
CUT
10
29.2907
20
62.05
0
VERTEX
8
CUT
10
28.9459
20
60.85
0
VERTEX
8
CUT
10
28.9459
20
59.65
0
VERTEX
8
CUT
10
29.2907
20
58.45
0
VERTEX
8
CUT
10
29.8674
20
57.25
0
VERTEX
8
CUT
10
30.4875
20
56.05
0
VERTEX
8
CUT
10
30.9482
20
54.85
0
VERTEX
8
CUT
10
31.0987
20
53.65
0
VERTEX
8
CUT
10
30.8899
20
52.45
0
VERTEX
8
CUT
10
30.3901
20
51.25
0
VERTEX
8
CUT
10
29.7626
20
50.05
0
VERTEX
8
CUT
10
29.2128
20
48.85
0
VERTEX
8
CUT
10
28.9205
20
47.65
0
VERTEX
8
CUT
10
28.9812
20
46.45
0
VERTEX
8
CUT
10
29.3751
20
45.25
0
VERTEX
8
CUT
10
29.9734
20
44.05
0
VERTEX
8
CUT
10
30.5804
20
42.85
0
VERTEX
8
CUT
10
30.9976
20
41.65
0
VERTEX
8
CUT
10
31.0885
20
40.45
0
VERTEX
8
CUT
10
30.8234
20
39.25
0
SEQEND
0
POLYLINE
8
CUT
66
1
70
0
0
VERTEX
8
CUT
10
30.1326
20
37.75
0
VERTEX
8
CUT
10
29.5125
20
36.55
0
VERTEX
8
CUT
10
29.0518
20
35.35
0
VERTEX
8
CUT
10
28.9013
20
34.15
0
VERTEX
8
CUT
10
29.1101
20
32.95
0
VERTEX
8
CUT
10
29.6099
20
31.75
0
VERTEX
8
CUT
10
30.2374
20
30.55
0
VERTEX
8
CUT
10
30.7872
20
29.35
0
VERTEX
8
CUT
10
31.0795
20
28.15
0
VERTEX
8
CUT
10
31.0188
20
26.95
0
VERTEX
8
CUT
10
30.6249
20
25.75
0
VERTEX
8
CUT
10
30.0266
20
24.55
0
VERTEX
8
CUT
10
29.4196
20
23.35
0
VERTEX
8
CUT
10
29.0024
20
22.15
0
VERTEX
8
CUT
10
28.9115
20
20.95
0
VERTEX
8
CUT
10
29.1766
20
19.75
0
VERTEX
8
CUT
10
29.711
20
18.55
0
VERTEX
8
CUT
10
30.3399
20
17.35
0
VERTEX
8
CUT
10
30.8576
20
16.15
0
VERTEX
8
CUT
10
31.0949
20
14.95
0
VERTEX
8
CUT
10
30.974
20
13.75
0
VERTEX
8
CUT
10
30.5346
20
12.55
0
VERTEX
8
CUT
10
29.9203
20
11.35
0
VERTEX
8
CUT
10
29.3321
20
10.15
0
VERTEX
8
CUT
10
28.9624
20
8.95
0
VERTEX
8
CUT
10
28.932
20
7.75
0
SEQEND
0
POLYLINE
8
CUT
66
1
70
0
0
VERTEX
8
CUT
10
29.3751
20
6.25
0
VERTEX
8
CUT
10
29.9734
20
5.05
0
VERTEX
8
CUT
10
30.5804
20
3.85
0
VERTEX
8
CUT
10
30.9976
20
2.65
0
VERTEX
8
CUT
10
31.0885
20
1.45
0
VERTEX
8
CUT
10
30.8234
20
0.25
0
VERTEX
8
CUT
10
30.712
20
0
0
SEQEND
0
POLYLINE
8
CUT
66
1
70
0
0
VERTEX
8
CUT
10
34
20
70
0
VERTEX
8
CUT
10
34.3145
20
69.4
0
VERTEX
8
CUT
10
34.8407
20
68.2
0
VERTEX
8
CUT
10
35.092
20
67
0
VERTEX
8
CUT
10
34.9861
20
65.8
0
VERTEX
8
CUT
10
34.5577
20
64.6
0
VERTEX
8
CUT
10
33.9469
20
63.4
0
VERTEX
8
CUT
10
33.3534
20
62.2
0
VERTEX
8
CUT
10
32.9715
20
61
0
VERTEX
8
CUT
10
32.9259
20
59.8
0
VERTEX
8
CUT
10
33.2316
20
58.6
0
VERTEX
8
CUT
10
33.7887
20
57.4
0
VERTEX
8
CUT
10
34.4148
20
56.2
0
VERTEX
8
CUT
10
34.9053
20
55
0
SEQEND
0
POLYLINE
8
CUT
66
1
70
0
0
VERTEX
8
CUT
10
35.092
20
53.5
0
VERTEX
8
CUT
10
34.8407
20
52.3
0
VERTEX
8
CUT
10
34.3145
20
51.1
0
VERTEX
8
CUT
10
33.6855
20
49.9
0
VERTEX
8
CUT
10
33.1593
20
48.7
0
VERTEX
8
CUT
10
32.908
20
47.5
0
VERTEX
8
CUT
10
33.0139
20
46.3
0
VERTEX
8
CUT
10
33.4423
20
45.1
0
VERTEX
8
CUT
10
34.0531
20
43.9
0
VERTEX
8
CUT
10
34.6466
20
42.7
0
VERTEX
8
CUT
10
35.0285
20
41.5
0
VERTEX
8
CUT
10
35.0741
20
40.3
0
VERTEX
8
CUT
10
34.7684
20
39.1
0
VERTEX
8
CUT
10
34.2113
20
37.9
0
VERTEX
8
CUT
10
33.5852
20
36.7
0
VERTEX
8
CUT
10
33.0947
20
35.5
0
VERTEX
8
CUT
10
32.9003
20
34.3
0
VERTEX
8
CUT
10
33.0656
20
33.1
0
VERTEX
8
CUT
10
33.5365
20
31.9
0
VERTEX
8
CUT
10
34.1589
20
30.7
0
VERTEX
8
CUT
10
34.7294
20
29.5
0
VERTEX
8
CUT
10
35.0614
20
28.3
0
VERTEX
8
CUT
10
35.0462
20
27.1
0
VERTEX
8
CUT
10
34.6888
20
25.9
0
VERTEX
8
CUT
10
34.1062
20
24.7
0
VERTEX
8
CUT
10
33.4888
20
23.5
0
SEQEND
0
POLYLINE
8
CUT
66
1
70
0
0
VERTEX
8
CUT
10
32.9715
20
22
0
VERTEX
8
CUT
10
32.9259
20
20.8
0
VERTEX
8
CUT
10
33.2316
20
19.6
0
VERTEX
8
CUT
10
33.7887
20
18.4
0
VERTEX
8
CUT
10
34.4148
20
17.2
0
VERTEX
8
CUT
10
34.9053
20
16
0
VERTEX
8
CUT
10
35.0997
20
14.8
0
VERTEX
8
CUT
10
34.9344
20
13.6
0
VERTEX
8
CUT
10
34.4635
20
12.4
0
VERTEX
8
CUT
10
33.8411
20
11.2
0
VERTEX
8
CUT
10
33.2706
20
10
0
VERTEX
8
CUT
10
32.9386
20
8.8
0
VERTEX
8
CUT
10
32.9538
20
7.6
0
VERTEX
8
CUT
10
33.3112
20
6.4
0
VERTEX
8
CUT
10
33.8938
20
5.2
0
VERTEX
8
CUT
10
34.5112
20
4
0
VERTEX
8
CUT
10
34.9614
20
2.8
0
VERTEX
8
CUT
10
35.0971
20
1.6
0
VERTEX
8
CUT
10
34.874
20
0.4
0
VERTEX
8
CUT
10
34.7044
20
0
0
SEQEND
0
POLYLINE
8
CUT
66
1
70
0
0
VERTEX
8
CUT
10
38.3901
20
69.25
0
VERTEX
8
CUT
10
38.8899
20
68.05
0
VERTEX
8
CUT
10
39.0987
20
66.85
0
VERTEX
8
CUT
10
38.9482
20
65.65
0
VERTEX
8
CUT
10
38.4875
20
64.45
0
VERTEX
8
CUT
10
37.8674
20
63.25
0
VERTEX
8
CUT
10
37.2907
20
62.05
0
VERTEX
8
CUT
10
36.9459
20
60.85
0
VERTEX
8
CUT
10
36.9459
20
59.65
0
VERTEX
8
CUT
10
37.2907
20
58.45
0
VERTEX
8
CUT
10
37.8674
20
57.25
0
VERTEX
8
CUT
10
38.4875
20
56.05
0
VERTEX
8
CUT
10
38.9482
20
54.85
0
VERTEX
8
CUT
10
39.0987
20
53.65
0
VERTEX
8
CUT
10
38.8899
20
52.45
0
VERTEX
8
CUT
10
38.3901
20
51.25
0
VERTEX
8
CUT
10
37.7626
20
50.05
0
VERTEX
8
CUT
10
37.2128
20
48.85
0
VERTEX
8
CUT
10
36.9205
20
47.65
0
VERTEX
8
CUT
10
36.9812
20
46.45
0
VERTEX
8
CUT
10
37.3751
20
45.25
0
VERTEX
8
CUT
10
37.9734
20
44.05
0
VERTEX
8
CUT
10
38.5804
20
42.85
0
VERTEX
8
CUT
10
38.9976
20
41.65
0
VERTEX
8
CUT
10
39.0885
20
40.45
0
VERTEX
8
CUT
10
38.8234
20
39.25
0
SEQEND
0
POLYLINE
8
CUT
66
1
70
0
0
VERTEX
8
CUT
10
38.1326
20
37.75
0
VERTEX
8
CUT
10
37.5125
20
36.55
0
VERTEX
8
CUT
10
37.0518
20
35.35
0
VERTEX
8
CUT
10
36.9013
20
34.15
0
VERTEX
8
CUT
10
37.1101
20
32.95
0
VERTEX
8
CUT
10
37.6099
20
31.75
0
VERTEX
8
CUT
10
38.2374
20
30.55
0
VERTEX
8
CUT
10
38.7872
20
29.35
0
VERTEX
8
CUT
10
39.0795
20
28.15
0
VERTEX
8
CUT
10
39.0188
20
26.95
0
VERTEX
8
CUT
10
38.6249
20
25.75
0
VERTEX
8
CUT
10
38.0266
20
24.55
0
VERTEX
8
CUT
10
37.4196
20
23.35
0
VERTEX
8
CUT
10
37.0024
20
22.15
0
VERTEX
8
CUT
10
36.9115
20
20.95
0
VERTEX
8
CUT
10
37.1766
20
19.75
0
VERTEX
8
CUT
10
37.711
20
18.55
0
VERTEX
8
CUT
10
38.3399
20
17.35
0
VERTEX
8
CUT
10
38.8576
20
16.15
0
VERTEX
8
CUT
10
39.0949
20
14.95
0
VERTEX
8
CUT
10
38.974
20
13.75
0
VERTEX
8
CUT
10
38.5346
20
12.55
0
VERTEX
8
CUT
10
37.9203
20
11.35
0
VERTEX
8
CUT
10
37.3321
20
10.15
0
VERTEX
8
CUT
10
36.9624
20
8.95
0
VERTEX
8
CUT
10
36.932
20
7.75
0
SEQEND
0
POLYLINE
8
CUT
66
1
70
0
0
VERTEX
8
CUT
10
37.3751
20
6.25
0
VERTEX
8
CUT
10
37.9734
20
5.05
0
VERTEX
8
CUT
10
38.5804
20
3.85
0
VERTEX
8
CUT
10
38.9976
20
2.65
0
VERTEX
8
CUT
10
39.0885
20
1.45
0
VERTEX
8
CUT
10
38.8234
20
0.25
0
VERTEX
8
CUT
10
38.712
20
0
0
SEQEND
0
POLYLINE
8
CUT
66
1
70
0
0
VERTEX
8
CUT
10
42
20
70
0
VERTEX
8
CUT
10
42.3145
20
69.4
0
VERTEX
8
CUT
10
42.8407
20
68.2
0
VERTEX
8
CUT
10
43.092
20
67
0
VERTEX
8
CUT
10
42.9861
20
65.8
0
VERTEX
8
CUT
10
42.5577
20
64.6
0
VERTEX
8
CUT
10
41.9469
20
63.4
0
VERTEX
8
CUT
10
41.3534
20
62.2
0
VERTEX
8
CUT
10
40.9715
20
61
0
VERTEX
8
CUT
10
40.9259
20
59.8
0
VERTEX
8
CUT
10
41.2316
20
58.6
0
VERTEX
8
CUT
10
41.7887
20
57.4
0
VERTEX
8
CUT
10
42.4148
20
56.2
0
VERTEX
8
CUT
10
42.9053
20
55
0
SEQEND
0
POLYLINE
8
CUT
66
1
70
0
0
VERTEX
8
CUT
10
43.092
20
53.5
0
VERTEX
8
CUT
10
42.8407
20
52.3
0
VERTEX
8
CUT
10
42.3145
20
51.1
0
VERTEX
8
CUT
10
41.6855
20
49.9
0
VERTEX
8
CUT
10
41.1593
20
48.7
0
VERTEX
8
CUT
10
40.908
20
47.5
0
VERTEX
8
CUT
10
41.0139
20
46.3
0
VERTEX
8
CUT
10
41.4423
20
45.1
0
VERTEX
8
CUT
10
42.0531
20
43.9
0
VERTEX
8
CUT
10
42.6466
20
42.7
0
VERTEX
8
CUT
10
43.0285
20
41.5
0
VERTEX
8
CUT
10
43.0741
20
40.3
0
VERTEX
8
CUT
10
42.7684
20
39.1
0
VERTEX
8
CUT
10
42.2113
20
37.9
0
VERTEX
8
CUT
10
41.5852
20
36.7
0
VERTEX
8
CUT
10
41.0947
20
35.5
0
VERTEX
8
CUT
10
40.9003
20
34.3
0
VERTEX
8
CUT
10
41.0656
20
33.1
0
VERTEX
8
CUT
10
41.5365
20
31.9
0
VERTEX
8
CUT
10
42.1589
20
30.7
0
VERTEX
8
CUT
10
42.7294
20
29.5
0
VERTEX
8
CUT
10
43.0614
20
28.3
0
VERTEX
8
CUT
10
43.0462
20
27.1
0
VERTEX
8
CUT
10
42.6888
20
25.9
0
VERTEX
8
CUT
10
42.1062
20
24.7
0
VERTEX
8
CUT
10
41.4888
20
23.5
0
SEQEND
0
POLYLINE
8
CUT
66
1
70
0
0
VERTEX
8
CUT
10
40.9715
20
22
0
VERTEX
8
CUT
10
40.9259
20
20.8
0
VERTEX
8
CUT
10
41.2316
20
19.6
0
VERTEX
8
CUT
10
41.7887
20
18.4
0
VERTEX
8
CUT
10
42.4148
20
17.2
0
VERTEX
8
CUT
10
42.9053
20
16
0
VERTEX
8
CUT
10
43.0997
20
14.8
0
VERTEX
8
CUT
10
42.9344
20
13.6
0
VERTEX
8
CUT
10
42.4635
20
12.4
0
VERTEX
8
CUT
10
41.8411
20
11.2
0
VERTEX
8
CUT
10
41.2706
20
10
0
VERTEX
8
CUT
10
40.9386
20
8.8
0
VERTEX
8
CUT
10
40.9538
20
7.6
0
VERTEX
8
CUT
10
41.3112
20
6.4
0
VERTEX
8
CUT
10
41.8938
20
5.2
0
VERTEX
8
CUT
10
42.5112
20
4
0
VERTEX
8
CUT
10
42.9614
20
2.8
0
VERTEX
8
CUT
10
43.0971
20
1.6
0
VERTEX
8
CUT
10
42.874
20
0.4
0
VERTEX
8
CUT
10
42.7044
20
0
0
SEQEND
0
POLYLINE
8
CUT
66
1
70
0
0
VERTEX
8
CUT
10
46.3901
20
69.25
0
VERTEX
8
CUT
10
46.8899
20
68.05
0
VERTEX
8
CUT
10
47.0987
20
66.85
0
VERTEX
8
CUT
10
46.9482
20
65.65
0
VERTEX
8
CUT
10
46.4875
20
64.45
0
VERTEX
8
CUT
10
45.8674
20
63.25
0
VERTEX
8
CUT
10
45.2907
20
62.05
0
VERTEX
8
CUT
10
44.9459
20
60.85
0
VERTEX
8
CUT
10
44.9459
20
59.65
0
VERTEX
8
CUT
10
45.2907
20
58.45
0
VERTEX
8
CUT
10
45.8674
20
57.25
0
VERTEX
8
CUT
10
46.4875
20
56.05
0
VERTEX
8
CUT
10
46.9482
20
54.85
0
VERTEX
8
CUT
10
47.0987
20
53.65
0
VERTEX
8
CUT
10
46.8899
20
52.45
0
VERTEX
8
CUT
10
46.3901
20
51.25
0
VERTEX
8
CUT
10
45.7626
20
50.05
0
VERTEX
8
CUT
10
45.2128
20
48.85
0
VERTEX
8
CUT
10
44.9205
20
47.65
0
VERTEX
8
CUT
10
44.9812
20
46.45
0
VERTEX
8
CUT
10
45.3751
20
45.25
0
VERTEX
8
CUT
10
45.9734
20
44.05
0
VERTEX
8
CUT
10
46.5804
20
42.85
0
VERTEX
8
CUT
10
46.9976
20
41.65
0
VERTEX
8
CUT
10
47.0885
20
40.45
0
VERTEX
8
CUT
10
46.8234
20
39.25
0
SEQEND
0
POLYLINE
8
CUT
66
1
70
0
0
VERTEX
8
CUT
10
46.1326
20
37.75
0
VERTEX
8
CUT
10
45.5125
20
36.55
0
VERTEX
8
CUT
10
45.0518
20
35.35
0
VERTEX
8
CUT
10
44.9013
20
34.15
0
VERTEX
8
CUT
10
45.1101
20
32.95
0
VERTEX
8
CUT
10
45.6099
20
31.75
0
VERTEX
8
CUT
10
46.2374
20
30.55
0
VERTEX
8
CUT
10
46.7872
20
29.35
0
VERTEX
8
CUT
10
47.0795
20
28.15
0
VERTEX
8
CUT
10
47.0188
20
26.95
0
VERTEX
8
CUT
10
46.6249
20
25.75
0
VERTEX
8
CUT
10
46.0266
20
24.55
0
VERTEX
8
CUT
10
45.4196
20
23.35
0
VERTEX
8
CUT
10
45.0024
20
22.15
0
VERTEX
8
CUT
10
44.9115
20
20.95
0
VERTEX
8
CUT
10
45.1766
20
19.75
0
VERTEX
8
CUT
10
45.711
20
18.55
0
VERTEX
8
CUT
10
46.3399
20
17.35
0
VERTEX
8
CUT
10
46.8576
20
16.15
0
VERTEX
8
CUT
10
47.0949
20
14.95
0
VERTEX
8
CUT
10
46.974
20
13.75
0
VERTEX
8
CUT
10
46.5346
20
12.55
0
VERTEX
8
CUT
10
45.9203
20
11.35
0
VERTEX
8
CUT
10
45.3321
20
10.15
0
VERTEX
8
CUT
10
44.9624
20
8.95
0
VERTEX
8
CUT
10
44.932
20
7.75
0
SEQEND
0
POLYLINE
8
CUT
66
1
70
0
0
VERTEX
8
CUT
10
45.3751
20
6.25
0
VERTEX
8
CUT
10
45.9734
20
5.05
0
VERTEX
8
CUT
10
46.5804
20
3.85
0
VERTEX
8
CUT
10
46.9976
20
2.65
0
VERTEX
8
CUT
10
47.0885
20
1.45
0
VERTEX
8
CUT
10
46.8234
20
0.25
0
VERTEX
8
CUT
10
46.712
20
0
0
SEQEND
0
POLYLINE
8
CUT
66
1
70
0
0
VERTEX
8
CUT
10
50
20
70
0
VERTEX
8
CUT
10
50.3145
20
69.4
0
VERTEX
8
CUT
10
50.8407
20
68.2
0
VERTEX
8
CUT
10
51.092
20
67
0
VERTEX
8
CUT
10
50.9861
20
65.8
0
VERTEX
8
CUT
10
50.5577
20
64.6
0
VERTEX
8
CUT
10
49.9469
20
63.4
0
VERTEX
8
CUT
10
49.3534
20
62.2
0
VERTEX
8
CUT
10
48.9715
20
61
0
VERTEX
8
CUT
10
48.9259
20
59.8
0
VERTEX
8
CUT
10
49.2316
20
58.6
0
VERTEX
8
CUT
10
49.7887
20
57.4
0
VERTEX
8
CUT
10
50.4148
20
56.2
0
VERTEX
8
CUT
10
50.9053
20
55
0
SEQEND
0
POLYLINE
8
CUT
66
1
70
0
0
VERTEX
8
CUT
10
51.092
20
53.5
0
VERTEX
8
CUT
10
50.8407
20
52.3
0
VERTEX
8
CUT
10
50.3145
20
51.1
0
VERTEX
8
CUT
10
49.6855
20
49.9
0
VERTEX
8
CUT
10
49.1593
20
48.7
0
VERTEX
8
CUT
10
48.908
20
47.5
0
VERTEX
8
CUT
10
49.0139
20
46.3
0
VERTEX
8
CUT
10
49.4423
20
45.1
0
VERTEX
8
CUT
10
50.0531
20
43.9
0
VERTEX
8
CUT
10
50.6466
20
42.7
0
VERTEX
8
CUT
10
51.0285
20
41.5
0
VERTEX
8
CUT
10
51.0741
20
40.3
0
VERTEX
8
CUT
10
50.7684
20
39.1
0
VERTEX
8
CUT
10
50.2113
20
37.9
0
VERTEX
8
CUT
10
49.5852
20
36.7
0
VERTEX
8
CUT
10
49.0947
20
35.5
0
VERTEX
8
CUT
10
48.9003
20
34.3
0
VERTEX
8
CUT
10
49.0656
20
33.1
0
VERTEX
8
CUT
10
49.5365
20
31.9
0
VERTEX
8
CUT
10
50.1589
20
30.7
0
VERTEX
8
CUT
10
50.7294
20
29.5
0
VERTEX
8
CUT
10
51.0614
20
28.3
0
VERTEX
8
CUT
10
51.0462
20
27.1
0
VERTEX
8
CUT
10
50.6888
20
25.9
0
VERTEX
8
CUT
10
50.1062
20
24.7
0
VERTEX
8
CUT
10
49.4888
20
23.5
0
SEQEND
0
POLYLINE
8
CUT
66
1
70
0
0
VERTEX
8
CUT
10
48.9715
20
22
0
VERTEX
8
CUT
10
48.9259
20
20.8
0
VERTEX
8
CUT
10
49.2316
20
19.6
0
VERTEX
8
CUT
10
49.7887
20
18.4
0
VERTEX
8
CUT
10
50.4148
20
17.2
0
VERTEX
8
CUT
10
50.9053
20
16
0
VERTEX
8
CUT
10
51.0997
20
14.8
0
VERTEX
8
CUT
10
50.9344
20
13.6
0
VERTEX
8
CUT
10
50.4635
20
12.4
0
VERTEX
8
CUT
10
49.8411
20
11.2
0
VERTEX
8
CUT
10
49.2706
20
10
0
VERTEX
8
CUT
10
48.9386
20
8.8
0
VERTEX
8
CUT
10
48.9538
20
7.6
0
VERTEX
8
CUT
10
49.3112
20
6.4
0
VERTEX
8
CUT
10
49.8938
20
5.2
0
VERTEX
8
CUT
10
50.5112
20
4
0
VERTEX
8
CUT
10
50.9614
20
2.8
0
VERTEX
8
CUT
10
51.0971
20
1.6
0
VERTEX
8
CUT
10
50.874
20
0.4
0
VERTEX
8
CUT
10
50.7044
20
0
0
SEQEND
0
POLYLINE
8
CUT
66
1
70
0
0
VERTEX
8
CUT
10
54.3901
20
69.25
0
VERTEX
8
CUT
10
54.8899
20
68.05
0
VERTEX
8
CUT
10
55.0987
20
66.85
0
VERTEX
8
CUT
10
54.9482
20
65.65
0
VERTEX
8
CUT
10
54.4875
20
64.45
0
VERTEX
8
CUT
10
53.8674
20
63.25
0
VERTEX
8
CUT
10
53.2907
20
62.05
0
VERTEX
8
CUT
10
52.9459
20
60.85
0
VERTEX
8
CUT
10
52.9459
20
59.65
0
VERTEX
8
CUT
10
53.2907
20
58.45
0
VERTEX
8
CUT
10
53.8674
20
57.25
0
VERTEX
8
CUT
10
54.4875
20
56.05
0
VERTEX
8
CUT
10
54.9482
20
54.85
0
VERTEX
8
CUT
10
55.0987
20
53.65
0
VERTEX
8
CUT
10
54.8899
20
52.45
0
VERTEX
8
CUT
10
54.3901
20
51.25
0
VERTEX
8
CUT
10
53.7626
20
50.05
0
VERTEX
8
CUT
10
53.2128
20
48.85
0
VERTEX
8
CUT
10
52.9205
20
47.65
0
VERTEX
8
CUT
10
52.9812
20
46.45
0
VERTEX
8
CUT
10
53.3751
20
45.25
0
VERTEX
8
CUT
10
53.9734
20
44.05
0
VERTEX
8
CUT
10
54.5804
20
42.85
0
VERTEX
8
CUT
10
54.9976
20
41.65
0
VERTEX
8
CUT
10
55.0885
20
40.45
0
VERTEX
8
CUT
10
54.8234
20
39.25
0
SEQEND
0
POLYLINE
8
CUT
66
1
70
0
0
VERTEX
8
CUT
10
54.1326
20
37.75
0
VERTEX
8
CUT
10
53.5125
20
36.55
0
VERTEX
8
CUT
10
53.0518
20
35.35
0
VERTEX
8
CUT
10
52.9013
20
34.15
0
VERTEX
8
CUT
10
53.1101
20
32.95
0
VERTEX
8
CUT
10
53.6099
20
31.75
0
VERTEX
8
CUT
10
54.2374
20
30.55
0
VERTEX
8
CUT
10
54.7872
20
29.35
0
VERTEX
8
CUT
10
55.0795
20
28.15
0
VERTEX
8
CUT
10
55.0188
20
26.95
0
VERTEX
8
CUT
10
54.6249
20
25.75
0
VERTEX
8
CUT
10
54.0266
20
24.55
0
VERTEX
8
CUT
10
53.4196
20
23.35
0
VERTEX
8
CUT
10
53.0024
20
22.15
0
VERTEX
8
CUT
10
52.9115
20
20.95
0
VERTEX
8
CUT
10
53.1766
20
19.75
0
VERTEX
8
CUT
10
53.711
20
18.55
0
VERTEX
8
CUT
10
54.3399
20
17.35
0
VERTEX
8
CUT
10
54.8576
20
16.15
0
VERTEX
8
CUT
10
55.0949
20
14.95
0
VERTEX
8
CUT
10
54.974
20
13.75
0
VERTEX
8
CUT
10
54.5346
20
12.55
0
VERTEX
8
CUT
10
53.9203
20
11.35
0
VERTEX
8
CUT
10
53.3321
20
10.15
0
VERTEX
8
CUT
10
52.9624
20
8.95
0
VERTEX
8
CUT
10
52.932
20
7.75
0
SEQEND
0
POLYLINE
8
CUT
66
1
70
0
0
VERTEX
8
CUT
10
53.3751
20
6.25
0
VERTEX
8
CUT
10
53.9734
20
5.05
0
VERTEX
8
CUT
10
54.5804
20
3.85
0
VERTEX
8
CUT
10
54.9976
20
2.65
0
VERTEX
8
CUT
10
55.0885
20
1.45
0
VERTEX
8
CUT
10
54.8234
20
0.25
0
VERTEX
8
CUT
10
54.712
20
0
0
SEQEND
0
POLYLINE
8
CUT
66
1
70
0
0
VERTEX
8
CUT
10
58
20
70
0
VERTEX
8
CUT
10
58.3145
20
69.4
0
VERTEX
8
CUT
10
58.8407
20
68.2
0
VERTEX
8
CUT
10
59.092
20
67
0
VERTEX
8
CUT
10
58.9861
20
65.8
0
VERTEX
8
CUT
10
58.5577
20
64.6
0
VERTEX
8
CUT
10
57.9469
20
63.4
0
VERTEX
8
CUT
10
57.3534
20
62.2
0
VERTEX
8
CUT
10
56.9715
20
61
0
VERTEX
8
CUT
10
56.9259
20
59.8
0
VERTEX
8
CUT
10
57.2316
20
58.6
0
VERTEX
8
CUT
10
57.7887
20
57.4
0
VERTEX
8
CUT
10
58.4148
20
56.2
0
VERTEX
8
CUT
10
58.9053
20
55
0
SEQEND
0
POLYLINE
8
CUT
66
1
70
0
0
VERTEX
8
CUT
10
59.092
20
53.5
0
VERTEX
8
CUT
10
58.8407
20
52.3
0
VERTEX
8
CUT
10
58.3145
20
51.1
0
VERTEX
8
CUT
10
57.6855
20
49.9
0
VERTEX
8
CUT
10
57.1593
20
48.7
0
VERTEX
8
CUT
10
56.908
20
47.5
0
VERTEX
8
CUT
10
57.0139
20
46.3
0
VERTEX
8
CUT
10
57.4423
20
45.1
0
VERTEX
8
CUT
10
58.0531
20
43.9
0
VERTEX
8
CUT
10
58.6466
20
42.7
0
VERTEX
8
CUT
10
59.0285
20
41.5
0
VERTEX
8
CUT
10
59.0741
20
40.3
0
VERTEX
8
CUT
10
58.7684
20
39.1
0
VERTEX
8
CUT
10
58.2113
20
37.9
0
VERTEX
8
CUT
10
57.5852
20
36.7
0
VERTEX
8
CUT
10
57.0947
20
35.5
0
VERTEX
8
CUT
10
56.9003
20
34.3
0
VERTEX
8
CUT
10
57.0656
20
33.1
0
VERTEX
8
CUT
10
57.5365
20
31.9
0
VERTEX
8
CUT
10
58.1589
20
30.7
0
VERTEX
8
CUT
10
58.7294
20
29.5
0
VERTEX
8
CUT
10
59.0614
20
28.3
0
VERTEX
8
CUT
10
59.0462
20
27.1
0
VERTEX
8
CUT
10
58.6888
20
25.9
0
VERTEX
8
CUT
10
58.1062
20
24.7
0
VERTEX
8
CUT
10
57.4888
20
23.5
0
SEQEND
0
POLYLINE
8
CUT
66
1
70
0
0
VERTEX
8
CUT
10
56.9715
20
22
0
VERTEX
8
CUT
10
56.9259
20
20.8
0
VERTEX
8
CUT
10
57.2316
20
19.6
0
VERTEX
8
CUT
10
57.7887
20
18.4
0
VERTEX
8
CUT
10
58.4148
20
17.2
0
VERTEX
8
CUT
10
58.9053
20
16
0
VERTEX
8
CUT
10
59.0997
20
14.8
0
VERTEX
8
CUT
10
58.9344
20
13.6
0
VERTEX
8
CUT
10
58.4635
20
12.4
0
VERTEX
8
CUT
10
57.8411
20
11.2
0
VERTEX
8
CUT
10
57.2706
20
10
0
VERTEX
8
CUT
10
56.9386
20
8.8
0
VERTEX
8
CUT
10
56.9538
20
7.6
0
VERTEX
8
CUT
10
57.3112
20
6.4
0
VERTEX
8
CUT
10
57.8938
20
5.2
0
VERTEX
8
CUT
10
58.5112
20
4
0
VERTEX
8
CUT
10
58.9614
20
2.8
0
VERTEX
8
CUT
10
59.0971
20
1.6
0
VERTEX
8
CUT
10
58.874
20
0.4
0
VERTEX
8
CUT
10
58.7044
20
0
0
SEQEND
0
POLYLINE
8
CUT
66
1
70
0
0
VERTEX
8
CUT
10
62.3901
20
69.25
0
VERTEX
8
CUT
10
62.8899
20
68.05
0
VERTEX
8
CUT
10
63.0987
20
66.85
0
VERTEX
8
CUT
10
62.9482
20
65.65
0
VERTEX
8
CUT
10
62.4875
20
64.45
0
VERTEX
8
CUT
10
61.8674
20
63.25
0
VERTEX
8
CUT
10
61.2907
20
62.05
0
VERTEX
8
CUT
10
60.9459
20
60.85
0
VERTEX
8
CUT
10
60.9459
20
59.65
0
VERTEX
8
CUT
10
61.2907
20
58.45
0
VERTEX
8
CUT
10
61.8674
20
57.25
0
VERTEX
8
CUT
10
62.4875
20
56.05
0
VERTEX
8
CUT
10
62.9482
20
54.85
0
VERTEX
8
CUT
10
63.0987
20
53.65
0
VERTEX
8
CUT
10
62.8899
20
52.45
0
VERTEX
8
CUT
10
62.3901
20
51.25
0
VERTEX
8
CUT
10
61.7626
20
50.05
0
VERTEX
8
CUT
10
61.2128
20
48.85
0
VERTEX
8
CUT
10
60.9205
20
47.65
0
VERTEX
8
CUT
10
60.9812
20
46.45
0
VERTEX
8
CUT
10
61.3751
20
45.25
0
VERTEX
8
CUT
10
61.9734
20
44.05
0
VERTEX
8
CUT
10
62.5804
20
42.85
0
VERTEX
8
CUT
10
62.9976
20
41.65
0
VERTEX
8
CUT
10
63.0885
20
40.45
0
VERTEX
8
CUT
10
62.8234
20
39.25
0
SEQEND
0
POLYLINE
8
CUT
66
1
70
0
0
VERTEX
8
CUT
10
62.1326
20
37.75
0
VERTEX
8
CUT
10
61.5125
20
36.55
0
VERTEX
8
CUT
10
61.0518
20
35.35
0
VERTEX
8
CUT
10
60.9013
20
34.15
0
VERTEX
8
CUT
10
61.1101
20
32.95
0
VERTEX
8
CUT
10
61.6099
20
31.75
0
VERTEX
8
CUT
10
62.2374
20
30.55
0
VERTEX
8
CUT
10
62.7872
20
29.35
0
VERTEX
8
CUT
10
63.0795
20
28.15
0
VERTEX
8
CUT
10
63.0188
20
26.95
0
VERTEX
8
CUT
10
62.6249
20
25.75
0
VERTEX
8
CUT
10
62.0266
20
24.55
0
VERTEX
8
CUT
10
61.4196
20
23.35
0
VERTEX
8
CUT
10
61.0024
20
22.15
0
VERTEX
8
CUT
10
60.9115
20
20.95
0
VERTEX
8
CUT
10
61.1766
20
19.75
0
VERTEX
8
CUT
10
61.711
20
18.55
0
VERTEX
8
CUT
10
62.3399
20
17.35
0
VERTEX
8
CUT
10
62.8576
20
16.15
0
VERTEX
8
CUT
10
63.0949
20
14.95
0
VERTEX
8
CUT
10
62.974
20
13.75
0
VERTEX
8
CUT
10
62.5346
20
12.55
0
VERTEX
8
CUT
10
61.9203
20
11.35
0
VERTEX
8
CUT
10
61.3321
20
10.15
0
VERTEX
8
CUT
10
60.9624
20
8.95
0
VERTEX
8
CUT
10
60.932
20
7.75
0
SEQEND
0
POLYLINE
8
CUT
66
1
70
0
0
VERTEX
8
CUT
10
61.3751
20
6.25
0
VERTEX
8
CUT
10
61.9734
20
5.05
0
VERTEX
8
CUT
10
62.5804
20
3.85
0
VERTEX
8
CUT
10
62.9976
20
2.65
0
VERTEX
8
CUT
10
63.0885
20
1.45
0
VERTEX
8
CUT
10
62.8234
20
0.25
0
VERTEX
8
CUT
10
62.712
20
0
0
SEQEND
0
POLYLINE
8
CUT
66
1
70
0
0
VERTEX
8
CUT
10
66
20
70
0
VERTEX
8
CUT
10
66.3145
20
69.4
0
VERTEX
8
CUT
10
66.8407
20
68.2
0
VERTEX
8
CUT
10
67.092
20
67
0
VERTEX
8
CUT
10
66.9861
20
65.8
0
VERTEX
8
CUT
10
66.5577
20
64.6
0
VERTEX
8
CUT
10
65.9469
20
63.4
0
VERTEX
8
CUT
10
65.3534
20
62.2
0
VERTEX
8
CUT
10
64.9715
20
61
0
VERTEX
8
CUT
10
64.9259
20
59.8
0
VERTEX
8
CUT
10
65.2316
20
58.6
0
VERTEX
8
CUT
10
65.7887
20
57.4
0
VERTEX
8
CUT
10
66.4148
20
56.2
0
VERTEX
8
CUT
10
66.9053
20
55
0
SEQEND
0
POLYLINE
8
CUT
66
1
70
0
0
VERTEX
8
CUT
10
67.092
20
53.5
0
VERTEX
8
CUT
10
66.8407
20
52.3
0
VERTEX
8
CUT
10
66.3145
20
51.1
0
VERTEX
8
CUT
10
65.6855
20
49.9
0
VERTEX
8
CUT
10
65.1593
20
48.7
0
VERTEX
8
CUT
10
64.908
20
47.5
0
VERTEX
8
CUT
10
65.0139
20
46.3
0
VERTEX
8
CUT
10
65.4423
20
45.1
0
VERTEX
8
CUT
10
66.0531
20
43.9
0
VERTEX
8
CUT
10
66.6466
20
42.7
0
VERTEX
8
CUT
10
67.0285
20
41.5
0
VERTEX
8
CUT
10
67.0741
20
40.3
0
VERTEX
8
CUT
10
66.7684
20
39.1
0
VERTEX
8
CUT
10
66.2113
20
37.9
0
VERTEX
8
CUT
10
65.5852
20
36.7
0
VERTEX
8
CUT
10
65.0947
20
35.5
0
VERTEX
8
CUT
10
64.9003
20
34.3
0
VERTEX
8
CUT
10
65.0656
20
33.1
0
VERTEX
8
CUT
10
65.5365
20
31.9
0
VERTEX
8
CUT
10
66.1589
20
30.7
0
VERTEX
8
CUT
10
66.7294
20
29.5
0
VERTEX
8
CUT
10
67.0614
20
28.3
0
VERTEX
8
CUT
10
67.0462
20
27.1
0
VERTEX
8
CUT
10
66.6888
20
25.9
0
VERTEX
8
CUT
10
66.1062
20
24.7
0
VERTEX
8
CUT
10
65.4888
20
23.5
0
SEQEND
0
POLYLINE
8
CUT
66
1
70
0
0
VERTEX
8
CUT
10
64.9715
20
22
0
VERTEX
8
CUT
10
64.9259
20
20.8
0
VERTEX
8
CUT
10
65.2316
20
19.6
0
VERTEX
8
CUT
10
65.7887
20
18.4
0
VERTEX
8
CUT
10
66.4148
20
17.2
0
VERTEX
8
CUT
10
66.9053
20
16
0
VERTEX
8
CUT
10
67.0997
20
14.8
0
VERTEX
8
CUT
10
66.9344
20
13.6
0
VERTEX
8
CUT
10
66.4635
20
12.4
0
VERTEX
8
CUT
10
65.8411
20
11.2
0
VERTEX
8
CUT
10
65.2706
20
10
0
VERTEX
8
CUT
10
64.9386
20
8.8
0
VERTEX
8
CUT
10
64.9538
20
7.6
0
VERTEX
8
CUT
10
65.3112
20
6.4
0
VERTEX
8
CUT
10
65.8938
20
5.2
0
VERTEX
8
CUT
10
66.5112
20
4
0
VERTEX
8
CUT
10
66.9614
20
2.8
0
VERTEX
8
CUT
10
67.0971
20
1.6
0
VERTEX
8
CUT
10
66.874
20
0.4
0
VERTEX
8
CUT
10
66.7044
20
0
0
SEQEND
0
POLYLINE
8
CUT
66
1
70
0
0
VERTEX
8
CUT
10
70.3901
20
69.25
0
VERTEX
8
CUT
10
70.8899
20
68.05
0
VERTEX
8
CUT
10
71.0987
20
66.85
0
VERTEX
8
CUT
10
70.9482
20
65.65
0
VERTEX
8
CUT
10
70.4875
20
64.45
0
VERTEX
8
CUT
10
69.8674
20
63.25
0
VERTEX
8
CUT
10
69.2907
20
62.05
0
VERTEX
8
CUT
10
68.9459
20
60.85
0
VERTEX
8
CUT
10
68.9459
20
59.65
0
VERTEX
8
CUT
10
69.2907
20
58.45
0
VERTEX
8
CUT
10
69.8674
20
57.25
0
VERTEX
8
CUT
10
70.4875
20
56.05
0
VERTEX
8
CUT
10
70.9482
20
54.85
0
VERTEX
8
CUT
10
71.0987
20
53.65
0
VERTEX
8
CUT
10
70.8899
20
52.45
0
VERTEX
8
CUT
10
70.3901
20
51.25
0
VERTEX
8
CUT
10
69.7626
20
50.05
0
VERTEX
8
CUT
10
69.2128
20
48.85
0
VERTEX
8
CUT
10
68.9205
20
47.65
0
VERTEX
8
CUT
10
68.9812
20
46.45
0
VERTEX
8
CUT
10
69.3751
20
45.25
0
VERTEX
8
CUT
10
69.9734
20
44.05
0
VERTEX
8
CUT
10
70.5804
20
42.85
0
VERTEX
8
CUT
10
70.9976
20
41.65
0
VERTEX
8
CUT
10
71.0885
20
40.45
0
VERTEX
8
CUT
10
70.8234
20
39.25
0
SEQEND
0
POLYLINE
8
CUT
66
1
70
0
0
VERTEX
8
CUT
10
70.1326
20
37.75
0
VERTEX
8
CUT
10
69.5125
20
36.55
0
VERTEX
8
CUT
10
69.0518
20
35.35
0
VERTEX
8
CUT
10
68.9013
20
34.15
0
VERTEX
8
CUT
10
69.1101
20
32.95
0
VERTEX
8
CUT
10
69.6099
20
31.75
0
VERTEX
8
CUT
10
70.2374
20
30.55
0
VERTEX
8
CUT
10
70.7872
20
29.35
0
VERTEX
8
CUT
10
71.0795
20
28.15
0
VERTEX
8
CUT
10
71.0188
20
26.95
0
VERTEX
8
CUT
10
70.6249
20
25.75
0
VERTEX
8
CUT
10
70.0266
20
24.55
0
VERTEX
8
CUT
10
69.4196
20
23.35
0
VERTEX
8
CUT
10
69.0024
20
22.15
0
VERTEX
8
CUT
10
68.9115
20
20.95
0
VERTEX
8
CUT
10
69.1766
20
19.75
0
VERTEX
8
CUT
10
69.711
20
18.55
0
VERTEX
8
CUT
10
70.3399
20
17.35
0
VERTEX
8
CUT
10
70.8576
20
16.15
0
VERTEX
8
CUT
10
71.0949
20
14.95
0
VERTEX
8
CUT
10
70.974
20
13.75
0
VERTEX
8
CUT
10
70.5346
20
12.55
0
VERTEX
8
CUT
10
69.9203
20
11.35
0
VERTEX
8
CUT
10
69.3321
20
10.15
0
VERTEX
8
CUT
10
68.9624
20
8.95
0
VERTEX
8
CUT
10
68.932
20
7.75
0
SEQEND
0
POLYLINE
8
CUT
66
1
70
0
0
VERTEX
8
CUT
10
69.3751
20
6.25
0
VERTEX
8
CUT
10
69.9734
20
5.05
0
VERTEX
8
CUT
10
70.5804
20
3.85
0
VERTEX
8
CUT
10
70.9976
20
2.65
0
VERTEX
8
CUT
10
71.0885
20
1.45
0
VERTEX
8
CUT
10
70.8234
20
0.25
0
VERTEX
8
CUT
10
70.712
20
0
0
SEQEND
0
POLYLINE
8
CUT
66
1
70
0
0
VERTEX
8
CUT
10
74
20
70
0
VERTEX
8
CUT
10
74.3145
20
69.4
0
VERTEX
8
CUT
10
74.8407
20
68.2
0
VERTEX
8
CUT
10
75.092
20
67
0
VERTEX
8
CUT
10
74.9861
20
65.8
0
VERTEX
8
CUT
10
74.5577
20
64.6
0
VERTEX
8
CUT
10
73.9469
20
63.4
0
VERTEX
8
CUT
10
73.3534
20
62.2
0
VERTEX
8
CUT
10
72.9715
20
61
0
VERTEX
8
CUT
10
72.9259
20
59.8
0
VERTEX
8
CUT
10
73.2316
20
58.6
0
VERTEX
8
CUT
10
73.7887
20
57.4
0
VERTEX
8
CUT
10
74.4148
20
56.2
0
VERTEX
8
CUT
10
74.9053
20
55
0
SEQEND
0
POLYLINE
8
CUT
66
1
70
0
0
VERTEX
8
CUT
10
75.092
20
53.5
0
VERTEX
8
CUT
10
74.8407
20
52.3
0
VERTEX
8
CUT
10
74.3145
20
51.1
0
VERTEX
8
CUT
10
73.6855
20
49.9
0
VERTEX
8
CUT
10
73.1593
20
48.7
0
VERTEX
8
CUT
10
72.908
20
47.5
0
VERTEX
8
CUT
10
73.0139
20
46.3
0
VERTEX
8
CUT
10
73.4423
20
45.1
0
VERTEX
8
CUT
10
74.0531
20
43.9
0
VERTEX
8
CUT
10
74.6466
20
42.7
0
VERTEX
8
CUT
10
75.0285
20
41.5
0
VERTEX
8
CUT
10
75.0741
20
40.3
0
VERTEX
8
CUT
10
74.7684
20
39.1
0
VERTEX
8
CUT
10
74.2113
20
37.9
0
VERTEX
8
CUT
10
73.5852
20
36.7
0
VERTEX
8
CUT
10
73.0947
20
35.5
0
VERTEX
8
CUT
10
72.9003
20
34.3
0
VERTEX
8
CUT
10
73.0656
20
33.1
0
VERTEX
8
CUT
10
73.5365
20
31.9
0
VERTEX
8
CUT
10
74.1589
20
30.7
0
VERTEX
8
CUT
10
74.7294
20
29.5
0
VERTEX
8
CUT
10
75.0614
20
28.3
0
VERTEX
8
CUT
10
75.0462
20
27.1
0
VERTEX
8
CUT
10
74.6888
20
25.9
0
VERTEX
8
CUT
10
74.1062
20
24.7
0
VERTEX
8
CUT
10
73.4888
20
23.5
0
SEQEND
0
POLYLINE
8
CUT
66
1
70
0
0
VERTEX
8
CUT
10
72.9715
20
22
0
VERTEX
8
CUT
10
72.9259
20
20.8
0
VERTEX
8
CUT
10
73.2316
20
19.6
0
VERTEX
8
CUT
10
73.7887
20
18.4
0
VERTEX
8
CUT
10
74.4148
20
17.2
0
VERTEX
8
CUT
10
74.9053
20
16
0
VERTEX
8
CUT
10
75.0997
20
14.8
0
VERTEX
8
CUT
10
74.9344
20
13.6
0
VERTEX
8
CUT
10
74.4635
20
12.4
0
VERTEX
8
CUT
10
73.8411
20
11.2
0
VERTEX
8
CUT
10
73.2706
20
10
0
VERTEX
8
CUT
10
72.9386
20
8.8
0
VERTEX
8
CUT
10
72.9538
20
7.6
0
VERTEX
8
CUT
10
73.3112
20
6.4
0
VERTEX
8
CUT
10
73.8938
20
5.2
0
VERTEX
8
CUT
10
74.5112
20
4
0
VERTEX
8
CUT
10
74.9614
20
2.8
0
VERTEX
8
CUT
10
75.0971
20
1.6
0
VERTEX
8
CUT
10
74.874
20
0.4
0
VERTEX
8
CUT
10
74.7044
20
0
0
SEQEND
0
POLYLINE
8
CUT
66
1
70
0
0
VERTEX
8
CUT
10
78.3901
20
69.25
0
VERTEX
8
CUT
10
78.8899
20
68.05
0
VERTEX
8
CUT
10
79.0987
20
66.85
0
VERTEX
8
CUT
10
78.9482
20
65.65
0
VERTEX
8
CUT
10
78.4875
20
64.45
0
VERTEX
8
CUT
10
77.8674
20
63.25
0
VERTEX
8
CUT
10
77.2907
20
62.05
0
VERTEX
8
CUT
10
76.9459
20
60.85
0
VERTEX
8
CUT
10
76.9459
20
59.65
0
VERTEX
8
CUT
10
77.2907
20
58.45
0
VERTEX
8
CUT
10
77.8674
20
57.25
0
VERTEX
8
CUT
10
78.4875
20
56.05
0
VERTEX
8
CUT
10
78.9482
20
54.85
0
VERTEX
8
CUT
10
79.0987
20
53.65
0
VERTEX
8
CUT
10
78.8899
20
52.45
0
VERTEX
8
CUT
10
78.3901
20
51.25
0
VERTEX
8
CUT
10
77.7626
20
50.05
0
VERTEX
8
CUT
10
77.2128
20
48.85
0
VERTEX
8
CUT
10
76.9205
20
47.65
0
VERTEX
8
CUT
10
76.9812
20
46.45
0
VERTEX
8
CUT
10
77.3751
20
45.25
0
VERTEX
8
CUT
10
77.9734
20
44.05
0
VERTEX
8
CUT
10
78.5804
20
42.85
0
VERTEX
8
CUT
10
78.9976
20
41.65
0
VERTEX
8
CUT
10
79.0885
20
40.45
0
VERTEX
8
CUT
10
78.8234
20
39.25
0
SEQEND
0
POLYLINE
8
CUT
66
1
70
0
0
VERTEX
8
CUT
10
78.1326
20
37.75
0
VERTEX
8
CUT
10
77.5125
20
36.55
0
VERTEX
8
CUT
10
77.0518
20
35.35
0
VERTEX
8
CUT
10
76.9013
20
34.15
0
VERTEX
8
CUT
10
77.1101
20
32.95
0
VERTEX
8
CUT
10
77.6099
20
31.75
0
VERTEX
8
CUT
10
78.2374
20
30.55
0
VERTEX
8
CUT
10
78.7872
20
29.35
0
VERTEX
8
CUT
10
79.0795
20
28.15
0
VERTEX
8
CUT
10
79.0188
20
26.95
0
VERTEX
8
CUT
10
78.6249
20
25.75
0
VERTEX
8
CUT
10
78.0266
20
24.55
0
VERTEX
8
CUT
10
77.4196
20
23.35
0
VERTEX
8
CUT
10
77.0024
20
22.15
0
VERTEX
8
CUT
10
76.9115
20
20.95
0
VERTEX
8
CUT
10
77.1766
20
19.75
0
VERTEX
8
CUT
10
77.711
20
18.55
0
VERTEX
8
CUT
10
78.3399
20
17.35
0
VERTEX
8
CUT
10
78.8576
20
16.15
0
VERTEX
8
CUT
10
79.0949
20
14.95
0
VERTEX
8
CUT
10
78.974
20
13.75
0
VERTEX
8
CUT
10
78.5346
20
12.55
0
VERTEX
8
CUT
10
77.9203
20
11.35
0
VERTEX
8
CUT
10
77.3321
20
10.15
0
VERTEX
8
CUT
10
76.9624
20
8.95
0
VERTEX
8
CUT
10
76.932
20
7.75
0
SEQEND
0
POLYLINE
8
CUT
66
1
70
0
0
VERTEX
8
CUT
10
77.3751
20
6.25
0
VERTEX
8
CUT
10
77.9734
20
5.05
0
VERTEX
8
CUT
10
78.5804
20
3.85
0
VERTEX
8
CUT
10
78.9976
20
2.65
0
VERTEX
8
CUT
10
79.0885
20
1.45
0
VERTEX
8
CUT
10
78.8234
20
0.25
0
VERTEX
8
CUT
10
78.712
20
0
0
SEQEND
0
POLYLINE
8
CUT
66
1
70
0
0
VERTEX
8
CUT
10
82
20
70
0
VERTEX
8
CUT
10
82.3145
20
69.4
0
VERTEX
8
CUT
10
82.8407
20
68.2
0
VERTEX
8
CUT
10
83.092
20
67
0
VERTEX
8
CUT
10
82.9861
20
65.8
0
VERTEX
8
CUT
10
82.5577
20
64.6
0
VERTEX
8
CUT
10
81.9469
20
63.4
0
VERTEX
8
CUT
10
81.3534
20
62.2
0
VERTEX
8
CUT
10
80.9715
20
61
0
VERTEX
8
CUT
10
80.9259
20
59.8
0
VERTEX
8
CUT
10
81.2316
20
58.6
0
VERTEX
8
CUT
10
81.7887
20
57.4
0
VERTEX
8
CUT
10
82.4148
20
56.2
0
VERTEX
8
CUT
10
82.9053
20
55
0
SEQEND
0
POLYLINE
8
CUT
66
1
70
0
0
VERTEX
8
CUT
10
83.092
20
53.5
0
VERTEX
8
CUT
10
82.8407
20
52.3
0
VERTEX
8
CUT
10
82.3145
20
51.1
0
VERTEX
8
CUT
10
81.6855
20
49.9
0
VERTEX
8
CUT
10
81.1593
20
48.7
0
VERTEX
8
CUT
10
80.908
20
47.5
0
VERTEX
8
CUT
10
81.0139
20
46.3
0
VERTEX
8
CUT
10
81.4423
20
45.1
0
VERTEX
8
CUT
10
82.0531
20
43.9
0
VERTEX
8
CUT
10
82.6466
20
42.7
0
VERTEX
8
CUT
10
83.0285
20
41.5
0
VERTEX
8
CUT
10
83.0741
20
40.3
0
VERTEX
8
CUT
10
82.7684
20
39.1
0
VERTEX
8
CUT
10
82.2113
20
37.9
0
VERTEX
8
CUT
10
81.5852
20
36.7
0
VERTEX
8
CUT
10
81.0947
20
35.5
0
VERTEX
8
CUT
10
80.9003
20
34.3
0
VERTEX
8
CUT
10
81.0656
20
33.1
0
VERTEX
8
CUT
10
81.5365
20
31.9
0
VERTEX
8
CUT
10
82.1589
20
30.7
0
VERTEX
8
CUT
10
82.7294
20
29.5
0
VERTEX
8
CUT
10
83.0614
20
28.3
0
VERTEX
8
CUT
10
83.0462
20
27.1
0
VERTEX
8
CUT
10
82.6888
20
25.9
0
VERTEX
8
CUT
10
82.1062
20
24.7
0
VERTEX
8
CUT
10
81.4888
20
23.5
0
SEQEND
0
POLYLINE
8
CUT
66
1
70
0
0
VERTEX
8
CUT
10
80.9715
20
22
0
VERTEX
8
CUT
10
80.9259
20
20.8
0
VERTEX
8
CUT
10
81.2316
20
19.6
0
VERTEX
8
CUT
10
81.7887
20
18.4
0
VERTEX
8
CUT
10
82.4148
20
17.2
0
VERTEX
8
CUT
10
82.9053
20
16
0
VERTEX
8
CUT
10
83.0997
20
14.8
0
VERTEX
8
CUT
10
82.9344
20
13.6
0
VERTEX
8
CUT
10
82.4635
20
12.4
0
VERTEX
8
CUT
10
81.8411
20
11.2
0
VERTEX
8
CUT
10
81.2706
20
10
0
VERTEX
8
CUT
10
80.9386
20
8.8
0
VERTEX
8
CUT
10
80.9538
20
7.6
0
VERTEX
8
CUT
10
81.3112
20
6.4
0
VERTEX
8
CUT
10
81.8938
20
5.2
0
VERTEX
8
CUT
10
82.5112
20
4
0
VERTEX
8
CUT
10
82.9614
20
2.8
0
VERTEX
8
CUT
10
83.0971
20
1.6
0
VERTEX
8
CUT
10
82.874
20
0.4
0
VERTEX
8
CUT
10
82.7044
20
0
0
SEQEND
0
POLYLINE
8
CUT
66
1
70
0
0
VERTEX
8
CUT
10
86.3901
20
69.25
0
VERTEX
8
CUT
10
86.8899
20
68.05
0
VERTEX
8
CUT
10
87.0987
20
66.85
0
VERTEX
8
CUT
10
86.9482
20
65.65
0
VERTEX
8
CUT
10
86.4875
20
64.45
0
VERTEX
8
CUT
10
85.8674
20
63.25
0
VERTEX
8
CUT
10
85.2907
20
62.05
0
VERTEX
8
CUT
10
84.9459
20
60.85
0
VERTEX
8
CUT
10
84.9459
20
59.65
0
VERTEX
8
CUT
10
85.2907
20
58.45
0
VERTEX
8
CUT
10
85.8674
20
57.25
0
VERTEX
8
CUT
10
86.4875
20
56.05
0
VERTEX
8
CUT
10
86.9482
20
54.85
0
VERTEX
8
CUT
10
87.0987
20
53.65
0
VERTEX
8
CUT
10
86.8899
20
52.45
0
VERTEX
8
CUT
10
86.3901
20
51.25
0
VERTEX
8
CUT
10
85.7626
20
50.05
0
VERTEX
8
CUT
10
85.2128
20
48.85
0
VERTEX
8
CUT
10
84.9205
20
47.65
0
VERTEX
8
CUT
10
84.9812
20
46.45
0
VERTEX
8
CUT
10
85.3751
20
45.25
0
VERTEX
8
CUT
10
85.9734
20
44.05
0
VERTEX
8
CUT
10
86.5804
20
42.85
0
VERTEX
8
CUT
10
86.9976
20
41.65
0
VERTEX
8
CUT
10
87.0885
20
40.45
0
VERTEX
8
CUT
10
86.8234
20
39.25
0
SEQEND
0
POLYLINE
8
CUT
66
1
70
0
0
VERTEX
8
CUT
10
86.1326
20
37.75
0
VERTEX
8
CUT
10
85.5125
20
36.55
0
VERTEX
8
CUT
10
85.0518
20
35.35
0
VERTEX
8
CUT
10
84.9013
20
34.15
0
VERTEX
8
CUT
10
85.1101
20
32.95
0
VERTEX
8
CUT
10
85.6099
20
31.75
0
VERTEX
8
CUT
10
86.2374
20
30.55
0
VERTEX
8
CUT
10
86.7872
20
29.35
0
VERTEX
8
CUT
10
87.0795
20
28.15
0
VERTEX
8
CUT
10
87.0188
20
26.95
0
VERTEX
8
CUT
10
86.6249
20
25.75
0
VERTEX
8
CUT
10
86.0266
20
24.55
0
VERTEX
8
CUT
10
85.4196
20
23.35
0
VERTEX
8
CUT
10
85.0024
20
22.15
0
VERTEX
8
CUT
10
84.9115
20
20.95
0
VERTEX
8
CUT
10
85.1766
20
19.75
0
VERTEX
8
CUT
10
85.711
20
18.55
0
VERTEX
8
CUT
10
86.3399
20
17.35
0
VERTEX
8
CUT
10
86.8576
20
16.15
0
VERTEX
8
CUT
10
87.0949
20
14.95
0
VERTEX
8
CUT
10
86.974
20
13.75
0
VERTEX
8
CUT
10
86.5346
20
12.55
0
VERTEX
8
CUT
10
85.9203
20
11.35
0
VERTEX
8
CUT
10
85.3321
20
10.15
0
VERTEX
8
CUT
10
84.9624
20
8.95
0
VERTEX
8
CUT
10
84.932
20
7.75
0
SEQEND
0
POLYLINE
8
CUT
66
1
70
0
0
VERTEX
8
CUT
10
85.3751
20
6.25
0
VERTEX
8
CUT
10
85.9734
20
5.05
0
VERTEX
8
CUT
10
86.5804
20
3.85
0
VERTEX
8
CUT
10
86.9976
20
2.65
0
VERTEX
8
CUT
10
87.0885
20
1.45
0
VERTEX
8
CUT
10
86.8234
20
0.25
0
VERTEX
8
CUT
10
86.712
20
0
0
SEQEND
0
POLYLINE
8
CUT
66
1
70
0
0
VERTEX
8
CUT
10
90
20
70
0
VERTEX
8
CUT
10
90.3145
20
69.4
0
VERTEX
8
CUT
10
90.8407
20
68.2
0
VERTEX
8
CUT
10
91.092
20
67
0
VERTEX
8
CUT
10
90.9861
20
65.8
0
VERTEX
8
CUT
10
90.5577
20
64.6
0
VERTEX
8
CUT
10
89.9469
20
63.4
0
VERTEX
8
CUT
10
89.3534
20
62.2
0
VERTEX
8
CUT
10
88.9715
20
61
0
VERTEX
8
CUT
10
88.9259
20
59.8
0
VERTEX
8
CUT
10
89.2316
20
58.6
0
VERTEX
8
CUT
10
89.7887
20
57.4
0
VERTEX
8
CUT
10
90.4148
20
56.2
0
VERTEX
8
CUT
10
90.9053
20
55
0
SEQEND
0
POLYLINE
8
CUT
66
1
70
0
0
VERTEX
8
CUT
10
91.092
20
53.5
0
VERTEX
8
CUT
10
90.8407
20
52.3
0
VERTEX
8
CUT
10
90.3145
20
51.1
0
VERTEX
8
CUT
10
89.6855
20
49.9
0
VERTEX
8
CUT
10
89.1593
20
48.7
0
VERTEX
8
CUT
10
88.908
20
47.5
0
VERTEX
8
CUT
10
89.0139
20
46.3
0
VERTEX
8
CUT
10
89.4423
20
45.1
0
VERTEX
8
CUT
10
90.0531
20
43.9
0
VERTEX
8
CUT
10
90.6466
20
42.7
0
VERTEX
8
CUT
10
91.0285
20
41.5
0
VERTEX
8
CUT
10
91.0741
20
40.3
0
VERTEX
8
CUT
10
90.7684
20
39.1
0
VERTEX
8
CUT
10
90.2113
20
37.9
0
VERTEX
8
CUT
10
89.5852
20
36.7
0
VERTEX
8
CUT
10
89.0947
20
35.5
0
VERTEX
8
CUT
10
88.9003
20
34.3
0
VERTEX
8
CUT
10
89.0656
20
33.1
0
VERTEX
8
CUT
10
89.5365
20
31.9
0
VERTEX
8
CUT
10
90.1589
20
30.7
0
VERTEX
8
CUT
10
90.7294
20
29.5
0
VERTEX
8
CUT
10
91.0614
20
28.3
0
VERTEX
8
CUT
10
91.0462
20
27.1
0
VERTEX
8
CUT
10
90.6888
20
25.9
0
VERTEX
8
CUT
10
90.1062
20
24.7
0
VERTEX
8
CUT
10
89.4888
20
23.5
0
SEQEND
0
POLYLINE
8
CUT
66
1
70
0
0
VERTEX
8
CUT
10
88.9715
20
22
0
VERTEX
8
CUT
10
88.9259
20
20.8
0
VERTEX
8
CUT
10
89.2316
20
19.6
0
VERTEX
8
CUT
10
89.7887
20
18.4
0
VERTEX
8
CUT
10
90.4148
20
17.2
0
VERTEX
8
CUT
10
90.9053
20
16
0
VERTEX
8
CUT
10
91.0997
20
14.8
0
VERTEX
8
CUT
10
90.9344
20
13.6
0
VERTEX
8
CUT
10
90.4635
20
12.4
0
VERTEX
8
CUT
10
89.8411
20
11.2
0
VERTEX
8
CUT
10
89.2706
20
10
0
VERTEX
8
CUT
10
88.9386
20
8.8
0
VERTEX
8
CUT
10
88.9538
20
7.6
0
VERTEX
8
CUT
10
89.3112
20
6.4
0
VERTEX
8
CUT
10
89.8938
20
5.2
0
VERTEX
8
CUT
10
90.5112
20
4
0
VERTEX
8
CUT
10
90.9614
20
2.8
0
VERTEX
8
CUT
10
91.0971
20
1.6
0
VERTEX
8
CUT
10
90.874
20
0.4
0
VERTEX
8
CUT
10
90.7044
20
0
0
SEQEND
0
POLYLINE
8
CUT
66
1
70
0
0
VERTEX
8
CUT
10
94.3901
20
69.25
0
VERTEX
8
CUT
10
94.8899
20
68.05
0
VERTEX
8
CUT
10
95.0987
20
66.85
0
VERTEX
8
CUT
10
94.9482
20
65.65
0
VERTEX
8
CUT
10
94.4875
20
64.45
0
VERTEX
8
CUT
10
93.8674
20
63.25
0
VERTEX
8
CUT
10
93.2907
20
62.05
0
VERTEX
8
CUT
10
92.9459
20
60.85
0
VERTEX
8
CUT
10
92.9459
20
59.65
0
VERTEX
8
CUT
10
93.2907
20
58.45
0
VERTEX
8
CUT
10
93.8674
20
57.25
0
VERTEX
8
CUT
10
94.4875
20
56.05
0
VERTEX
8
CUT
10
94.9482
20
54.85
0
VERTEX
8
CUT
10
95.0987
20
53.65
0
VERTEX
8
CUT
10
94.8899
20
52.45
0
VERTEX
8
CUT
10
94.3901
20
51.25
0
VERTEX
8
CUT
10
93.7626
20
50.05
0
VERTEX
8
CUT
10
93.2128
20
48.85
0
VERTEX
8
CUT
10
92.9205
20
47.65
0
VERTEX
8
CUT
10
92.9812
20
46.45
0
VERTEX
8
CUT
10
93.3751
20
45.25
0
VERTEX
8
CUT
10
93.9734
20
44.05
0
VERTEX
8
CUT
10
94.5804
20
42.85
0
VERTEX
8
CUT
10
94.9976
20
41.65
0
VERTEX
8
CUT
10
95.0885
20
40.45
0
VERTEX
8
CUT
10
94.8234
20
39.25
0
SEQEND
0
POLYLINE
8
CUT
66
1
70
0
0
VERTEX
8
CUT
10
94.1326
20
37.75
0
VERTEX
8
CUT
10
93.5125
20
36.55
0
VERTEX
8
CUT
10
93.0518
20
35.35
0
VERTEX
8
CUT
10
92.9013
20
34.15
0
VERTEX
8
CUT
10
93.1101
20
32.95
0
VERTEX
8
CUT
10
93.6099
20
31.75
0
VERTEX
8
CUT
10
94.2374
20
30.55
0
VERTEX
8
CUT
10
94.7872
20
29.35
0
VERTEX
8
CUT
10
95.0795
20
28.15
0
VERTEX
8
CUT
10
95.0188
20
26.95
0
VERTEX
8
CUT
10
94.6249
20
25.75
0
VERTEX
8
CUT
10
94.0266
20
24.55
0
VERTEX
8
CUT
10
93.4196
20
23.35
0
VERTEX
8
CUT
10
93.0024
20
22.15
0
VERTEX
8
CUT
10
92.9115
20
20.95
0
VERTEX
8
CUT
10
93.1766
20
19.75
0
VERTEX
8
CUT
10
93.711
20
18.55
0
VERTEX
8
CUT
10
94.3399
20
17.35
0
VERTEX
8
CUT
10
94.8576
20
16.15
0
VERTEX
8
CUT
10
95.0949
20
14.95
0
VERTEX
8
CUT
10
94.974
20
13.75
0
VERTEX
8
CUT
10
94.5346
20
12.55
0
VERTEX
8
CUT
10
93.9203
20
11.35
0
VERTEX
8
CUT
10
93.3321
20
10.15
0
VERTEX
8
CUT
10
92.9624
20
8.95
0
VERTEX
8
CUT
10
92.932
20
7.75
0
SEQEND
0
POLYLINE
8
CUT
66
1
70
0
0
VERTEX
8
CUT
10
93.3751
20
6.25
0
VERTEX
8
CUT
10
93.9734
20
5.05
0
VERTEX
8
CUT
10
94.5804
20
3.85
0
VERTEX
8
CUT
10
94.9976
20
2.65
0
VERTEX
8
CUT
10
95.0885
20
1.45
0
VERTEX
8
CUT
10
94.8234
20
0.25
0
VERTEX
8
CUT
10
94.712
20
0
0
SEQEND
0
POLYLINE
8
CUT
66
1
70
0
0
VERTEX
8
CUT
10
98
20
70
0
VERTEX
8
CUT
10
98.3145
20
69.4
0
VERTEX
8
CUT
10
98.8407
20
68.2
0
VERTEX
8
CUT
10
99.092
20
67
0
VERTEX
8
CUT
10
98.9861
20
65.8
0
VERTEX
8
CUT
10
98.5577
20
64.6
0
VERTEX
8
CUT
10
97.9469
20
63.4
0
VERTEX
8
CUT
10
97.3534
20
62.2
0
VERTEX
8
CUT
10
96.9715
20
61
0
VERTEX
8
CUT
10
96.9259
20
59.8
0
VERTEX
8
CUT
10
97.2316
20
58.6
0
VERTEX
8
CUT
10
97.7887
20
57.4
0
VERTEX
8
CUT
10
98.4148
20
56.2
0
VERTEX
8
CUT
10
98.9053
20
55
0
SEQEND
0
POLYLINE
8
CUT
66
1
70
0
0
VERTEX
8
CUT
10
99.092
20
53.5
0
VERTEX
8
CUT
10
98.8407
20
52.3
0
VERTEX
8
CUT
10
98.3145
20
51.1
0
VERTEX
8
CUT
10
97.6855
20
49.9
0
VERTEX
8
CUT
10
97.1593
20
48.7
0
VERTEX
8
CUT
10
96.908
20
47.5
0
VERTEX
8
CUT
10
97.0139
20
46.3
0
VERTEX
8
CUT
10
97.4423
20
45.1
0
VERTEX
8
CUT
10
98.0531
20
43.9
0
VERTEX
8
CUT
10
98.6466
20
42.7
0
VERTEX
8
CUT
10
99.0285
20
41.5
0
VERTEX
8
CUT
10
99.0741
20
40.3
0
VERTEX
8
CUT
10
98.7684
20
39.1
0
VERTEX
8
CUT
10
98.2113
20
37.9
0
VERTEX
8
CUT
10
97.5852
20
36.7
0
VERTEX
8
CUT
10
97.0947
20
35.5
0
VERTEX
8
CUT
10
96.9003
20
34.3
0
VERTEX
8
CUT
10
97.0656
20
33.1
0
VERTEX
8
CUT
10
97.5365
20
31.9
0
VERTEX
8
CUT
10
98.1589
20
30.7
0
VERTEX
8
CUT
10
98.7294
20
29.5
0
VERTEX
8
CUT
10
99.0614
20
28.3
0
VERTEX
8
CUT
10
99.0462
20
27.1
0
VERTEX
8
CUT
10
98.6888
20
25.9
0
VERTEX
8
CUT
10
98.1062
20
24.7
0
VERTEX
8
CUT
10
97.4888
20
23.5
0
SEQEND
0
POLYLINE
8
CUT
66
1
70
0
0
VERTEX
8
CUT
10
96.9715
20
22
0
VERTEX
8
CUT
10
96.9259
20
20.8
0
VERTEX
8
CUT
10
97.2316
20
19.6
0
VERTEX
8
CUT
10
97.7887
20
18.4
0
VERTEX
8
CUT
10
98.4148
20
17.2
0
VERTEX
8
CUT
10
98.9053
20
16
0
VERTEX
8
CUT
10
99.0997
20
14.8
0
VERTEX
8
CUT
10
98.9344
20
13.6
0
VERTEX
8
CUT
10
98.4635
20
12.4
0
VERTEX
8
CUT
10
97.8411
20
11.2
0
VERTEX
8
CUT
10
97.2706
20
10
0
VERTEX
8
CUT
10
96.9386
20
8.8
0
VERTEX
8
CUT
10
96.9538
20
7.6
0
VERTEX
8
CUT
10
97.3112
20
6.4
0
VERTEX
8
CUT
10
97.8938
20
5.2
0
VERTEX
8
CUT
10
98.5112
20
4
0
VERTEX
8
CUT
10
98.9614
20
2.8
0
VERTEX
8
CUT
10
99.0971
20
1.6
0
VERTEX
8
CUT
10
98.874
20
0.4
0
VERTEX
8
CUT
10
98.7044
20
0
0
SEQEND
0
POLYLINE
8
CUT
66
1
70
0
0
VERTEX
8
CUT
10
102.3901
20
69.25
0
VERTEX
8
CUT
10
102.8899
20
68.05
0
VERTEX
8
CUT
10
103.0987
20
66.85
0
VERTEX
8
CUT
10
102.9482
20
65.65
0
VERTEX
8
CUT
10
102.4875
20
64.45
0
VERTEX
8
CUT
10
101.8674
20
63.25
0
VERTEX
8
CUT
10
101.2907
20
62.05
0
VERTEX
8
CUT
10
100.9459
20
60.85
0
VERTEX
8
CUT
10
100.9459
20
59.65
0
VERTEX
8
CUT
10
101.2907
20
58.45
0
VERTEX
8
CUT
10
101.8674
20
57.25
0
VERTEX
8
CUT
10
102.4875
20
56.05
0
VERTEX
8
CUT
10
102.9482
20
54.85
0
VERTEX
8
CUT
10
103.0987
20
53.65
0
VERTEX
8
CUT
10
102.8899
20
52.45
0
VERTEX
8
CUT
10
102.3901
20
51.25
0
VERTEX
8
CUT
10
101.7626
20
50.05
0
VERTEX
8
CUT
10
101.2128
20
48.85
0
VERTEX
8
CUT
10
100.9205
20
47.65
0
VERTEX
8
CUT
10
100.9812
20
46.45
0
VERTEX
8
CUT
10
101.3751
20
45.25
0
VERTEX
8
CUT
10
101.9734
20
44.05
0
VERTEX
8
CUT
10
102.5804
20
42.85
0
VERTEX
8
CUT
10
102.9976
20
41.65
0
VERTEX
8
CUT
10
103.0885
20
40.45
0
VERTEX
8
CUT
10
102.8234
20
39.25
0
SEQEND
0
POLYLINE
8
CUT
66
1
70
0
0
VERTEX
8
CUT
10
102.1326
20
37.75
0
VERTEX
8
CUT
10
101.5125
20
36.55
0
VERTEX
8
CUT
10
101.0518
20
35.35
0
VERTEX
8
CUT
10
100.9013
20
34.15
0
VERTEX
8
CUT
10
101.1101
20
32.95
0
VERTEX
8
CUT
10
101.6099
20
31.75
0
VERTEX
8
CUT
10
102.2374
20
30.55
0
VERTEX
8
CUT
10
102.7872
20
29.35
0
VERTEX
8
CUT
10
103.0795
20
28.15
0
VERTEX
8
CUT
10
103.0188
20
26.95
0
VERTEX
8
CUT
10
102.6249
20
25.75
0
VERTEX
8
CUT
10
102.0266
20
24.55
0
VERTEX
8
CUT
10
101.4196
20
23.35
0
VERTEX
8
CUT
10
101.0024
20
22.15
0
VERTEX
8
CUT
10
100.9115
20
20.95
0
VERTEX
8
CUT
10
101.1766
20
19.75
0
VERTEX
8
CUT
10
101.711
20
18.55
0
VERTEX
8
CUT
10
102.3399
20
17.35
0
VERTEX
8
CUT
10
102.8576
20
16.15
0
VERTEX
8
CUT
10
103.0949
20
14.95
0
VERTEX
8
CUT
10
102.974
20
13.75
0
VERTEX
8
CUT
10
102.5346
20
12.55
0
VERTEX
8
CUT
10
101.9203
20
11.35
0
VERTEX
8
CUT
10
101.3321
20
10.15
0
VERTEX
8
CUT
10
100.9624
20
8.95
0
VERTEX
8
CUT
10
100.932
20
7.75
0
SEQEND
0
POLYLINE
8
CUT
66
1
70
0
0
VERTEX
8
CUT
10
101.3751
20
6.25
0
VERTEX
8
CUT
10
101.9734
20
5.05
0
VERTEX
8
CUT
10
102.5804
20
3.85
0
VERTEX
8
CUT
10
102.9976
20
2.65
0
VERTEX
8
CUT
10
103.0885
20
1.45
0
VERTEX
8
CUT
10
102.8234
20
0.25
0
VERTEX
8
CUT
10
102.712
20
0
0
SEQEND
0
POLYLINE
8
CUT
66
1
70
0
0
VERTEX
8
CUT
10
106
20
70
0
VERTEX
8
CUT
10
106.3145
20
69.4
0
VERTEX
8
CUT
10
106.8407
20
68.2
0
VERTEX
8
CUT
10
107.092
20
67
0
VERTEX
8
CUT
10
106.9861
20
65.8
0
VERTEX
8
CUT
10
106.5577
20
64.6
0
VERTEX
8
CUT
10
105.9469
20
63.4
0
VERTEX
8
CUT
10
105.3534
20
62.2
0
VERTEX
8
CUT
10
104.9715
20
61
0
VERTEX
8
CUT
10
104.9259
20
59.8
0
VERTEX
8
CUT
10
105.2316
20
58.6
0
VERTEX
8
CUT
10
105.7887
20
57.4
0
VERTEX
8
CUT
10
106.4148
20
56.2
0
VERTEX
8
CUT
10
106.9053
20
55
0
SEQEND
0
POLYLINE
8
CUT
66
1
70
0
0
VERTEX
8
CUT
10
107.092
20
53.5
0
VERTEX
8
CUT
10
106.8407
20
52.3
0
VERTEX
8
CUT
10
106.3145
20
51.1
0
VERTEX
8
CUT
10
105.6855
20
49.9
0
VERTEX
8
CUT
10
105.1593
20
48.7
0
VERTEX
8
CUT
10
104.908
20
47.5
0
VERTEX
8
CUT
10
105.0139
20
46.3
0
VERTEX
8
CUT
10
105.4423
20
45.1
0
VERTEX
8
CUT
10
106.0531
20
43.9
0
VERTEX
8
CUT
10
106.6466
20
42.7
0
VERTEX
8
CUT
10
107.0285
20
41.5
0
VERTEX
8
CUT
10
107.0741
20
40.3
0
VERTEX
8
CUT
10
106.7684
20
39.1
0
VERTEX
8
CUT
10
106.2113
20
37.9
0
VERTEX
8
CUT
10
105.5852
20
36.7
0
VERTEX
8
CUT
10
105.0947
20
35.5
0
VERTEX
8
CUT
10
104.9003
20
34.3
0
VERTEX
8
CUT
10
105.0656
20
33.1
0
VERTEX
8
CUT
10
105.5365
20
31.9
0
VERTEX
8
CUT
10
106.1589
20
30.7
0
VERTEX
8
CUT
10
106.7294
20
29.5
0
VERTEX
8
CUT
10
107.0614
20
28.3
0
VERTEX
8
CUT
10
107.0462
20
27.1
0
VERTEX
8
CUT
10
106.6888
20
25.9
0
VERTEX
8
CUT
10
106.1062
20
24.7
0
VERTEX
8
CUT
10
105.4888
20
23.5
0
SEQEND
0
POLYLINE
8
CUT
66
1
70
0
0
VERTEX
8
CUT
10
104.9715
20
22
0
VERTEX
8
CUT
10
104.9259
20
20.8
0
VERTEX
8
CUT
10
105.2316
20
19.6
0
VERTEX
8
CUT
10
105.7887
20
18.4
0
VERTEX
8
CUT
10
106.4148
20
17.2
0
VERTEX
8
CUT
10
106.9053
20
16
0
VERTEX
8
CUT
10
107.0997
20
14.8
0
VERTEX
8
CUT
10
106.9344
20
13.6
0
VERTEX
8
CUT
10
106.4635
20
12.4
0
VERTEX
8
CUT
10
105.8411
20
11.2
0
VERTEX
8
CUT
10
105.2706
20
10
0
VERTEX
8
CUT
10
104.9386
20
8.8
0
VERTEX
8
CUT
10
104.9538
20
7.6
0
VERTEX
8
CUT
10
105.3112
20
6.4
0
VERTEX
8
CUT
10
105.8938
20
5.2
0
VERTEX
8
CUT
10
106.5112
20
4
0
VERTEX
8
CUT
10
106.9614
20
2.8
0
VERTEX
8
CUT
10
107.0971
20
1.6
0
VERTEX
8
CUT
10
106.874
20
0.4
0
VERTEX
8
CUT
10
106.7044
20
0
0
SEQEND
0
POLYLINE
8
CUT
66
1
70
0
0
VERTEX
8
CUT
10
110.3901
20
69.25
0
VERTEX
8
CUT
10
110.8899
20
68.05
0
VERTEX
8
CUT
10
111.0987
20
66.85
0
VERTEX
8
CUT
10
110.9482
20
65.65
0
VERTEX
8
CUT
10
110.4875
20
64.45
0
VERTEX
8
CUT
10
109.8674
20
63.25
0
VERTEX
8
CUT
10
109.2907
20
62.05
0
VERTEX
8
CUT
10
108.9459
20
60.85
0
VERTEX
8
CUT
10
108.9459
20
59.65
0
VERTEX
8
CUT
10
109.2907
20
58.45
0
VERTEX
8
CUT
10
109.8674
20
57.25
0
VERTEX
8
CUT
10
110.4875
20
56.05
0
VERTEX
8
CUT
10
110.9482
20
54.85
0
VERTEX
8
CUT
10
111.0987
20
53.65
0
VERTEX
8
CUT
10
110.8899
20
52.45
0
VERTEX
8
CUT
10
110.3901
20
51.25
0
VERTEX
8
CUT
10
109.7626
20
50.05
0
VERTEX
8
CUT
10
109.2128
20
48.85
0
VERTEX
8
CUT
10
108.9205
20
47.65
0
VERTEX
8
CUT
10
108.9812
20
46.45
0
VERTEX
8
CUT
10
109.3751
20
45.25
0
VERTEX
8
CUT
10
109.9734
20
44.05
0
VERTEX
8
CUT
10
110.5804
20
42.85
0
VERTEX
8
CUT
10
110.9976
20
41.65
0
VERTEX
8
CUT
10
111.0885
20
40.45
0
VERTEX
8
CUT
10
110.8234
20
39.25
0
SEQEND
0
POLYLINE
8
CUT
66
1
70
0
0
VERTEX
8
CUT
10
110.1326
20
37.75
0
VERTEX
8
CUT
10
109.5125
20
36.55
0
VERTEX
8
CUT
10
109.0518
20
35.35
0
VERTEX
8
CUT
10
108.9013
20
34.15
0
VERTEX
8
CUT
10
109.1101
20
32.95
0
VERTEX
8
CUT
10
109.6099
20
31.75
0
VERTEX
8
CUT
10
110.2374
20
30.55
0
VERTEX
8
CUT
10
110.7872
20
29.35
0
VERTEX
8
CUT
10
111.0795
20
28.15
0
VERTEX
8
CUT
10
111.0188
20
26.95
0
VERTEX
8
CUT
10
110.6249
20
25.75
0
VERTEX
8
CUT
10
110.0266
20
24.55
0
VERTEX
8
CUT
10
109.4196
20
23.35
0
VERTEX
8
CUT
10
109.0024
20
22.15
0
VERTEX
8
CUT
10
108.9115
20
20.95
0
VERTEX
8
CUT
10
109.1766
20
19.75
0
VERTEX
8
CUT
10
109.711
20
18.55
0
VERTEX
8
CUT
10
110.3399
20
17.35
0
VERTEX
8
CUT
10
110.8576
20
16.15
0
VERTEX
8
CUT
10
111.0949
20
14.95
0
VERTEX
8
CUT
10
110.974
20
13.75
0
VERTEX
8
CUT
10
110.5346
20
12.55
0
VERTEX
8
CUT
10
109.9203
20
11.35
0
VERTEX
8
CUT
10
109.3321
20
10.15
0
VERTEX
8
CUT
10
108.9624
20
8.95
0
VERTEX
8
CUT
10
108.932
20
7.75
0
SEQEND
0
POLYLINE
8
CUT
66
1
70
0
0
VERTEX
8
CUT
10
109.3751
20
6.25
0
VERTEX
8
CUT
10
109.9734
20
5.05
0
VERTEX
8
CUT
10
110.5804
20
3.85
0
VERTEX
8
CUT
10
110.9976
20
2.65
0
VERTEX
8
CUT
10
111.0885
20
1.45
0
VERTEX
8
CUT
10
110.8234
20
0.25
0
VERTEX
8
CUT
10
110.712
20
0
0
SEQEND
0
POLYLINE
8
CUT
66
1
70
0
0
VERTEX
8
CUT
10
114
20
70
0
VERTEX
8
CUT
10
114.3145
20
69.4
0
VERTEX
8
CUT
10
114.8407
20
68.2
0
VERTEX
8
CUT
10
115.092
20
67
0
VERTEX
8
CUT
10
114.9861
20
65.8
0
VERTEX
8
CUT
10
114.5577
20
64.6
0
VERTEX
8
CUT
10
113.9469
20
63.4
0
VERTEX
8
CUT
10
113.3534
20
62.2
0
VERTEX
8
CUT
10
112.9715
20
61
0
VERTEX
8
CUT
10
112.9259
20
59.8
0
VERTEX
8
CUT
10
113.2316
20
58.6
0
VERTEX
8
CUT
10
113.7887
20
57.4
0
VERTEX
8
CUT
10
114.4148
20
56.2
0
VERTEX
8
CUT
10
114.9053
20
55
0
SEQEND
0
POLYLINE
8
CUT
66
1
70
0
0
VERTEX
8
CUT
10
115.092
20
53.5
0
VERTEX
8
CUT
10
114.8407
20
52.3
0
VERTEX
8
CUT
10
114.3145
20
51.1
0
VERTEX
8
CUT
10
113.6855
20
49.9
0
VERTEX
8
CUT
10
113.1593
20
48.7
0
VERTEX
8
CUT
10
112.908
20
47.5
0
VERTEX
8
CUT
10
113.0139
20
46.3
0
VERTEX
8
CUT
10
113.4423
20
45.1
0
VERTEX
8
CUT
10
114.0531
20
43.9
0
VERTEX
8
CUT
10
114.6466
20
42.7
0
VERTEX
8
CUT
10
115.0285
20
41.5
0
VERTEX
8
CUT
10
115.0741
20
40.3
0
VERTEX
8
CUT
10
114.7684
20
39.1
0
VERTEX
8
CUT
10
114.2113
20
37.9
0
VERTEX
8
CUT
10
113.5852
20
36.7
0
VERTEX
8
CUT
10
113.0947
20
35.5
0
VERTEX
8
CUT
10
112.9003
20
34.3
0
VERTEX
8
CUT
10
113.0656
20
33.1
0
VERTEX
8
CUT
10
113.5365
20
31.9
0
VERTEX
8
CUT
10
114.1589
20
30.7
0
VERTEX
8
CUT
10
114.7294
20
29.5
0
VERTEX
8
CUT
10
115.0614
20
28.3
0
VERTEX
8
CUT
10
115.0462
20
27.1
0
VERTEX
8
CUT
10
114.6888
20
25.9
0
VERTEX
8
CUT
10
114.1062
20
24.7
0
VERTEX
8
CUT
10
113.4888
20
23.5
0
SEQEND
0
POLYLINE
8
CUT
66
1
70
0
0
VERTEX
8
CUT
10
112.9715
20
22
0
VERTEX
8
CUT
10
112.9259
20
20.8
0
VERTEX
8
CUT
10
113.2316
20
19.6
0
VERTEX
8
CUT
10
113.7887
20
18.4
0
VERTEX
8
CUT
10
114.4148
20
17.2
0
VERTEX
8
CUT
10
114.9053
20
16
0
VERTEX
8
CUT
10
115.0997
20
14.8
0
VERTEX
8
CUT
10
114.9344
20
13.6
0
VERTEX
8
CUT
10
114.4635
20
12.4
0
VERTEX
8
CUT
10
113.8411
20
11.2
0
VERTEX
8
CUT
10
113.2706
20
10
0
VERTEX
8
CUT
10
112.9386
20
8.8
0
VERTEX
8
CUT
10
112.9538
20
7.6
0
VERTEX
8
CUT
10
113.3112
20
6.4
0
VERTEX
8
CUT
10
113.8938
20
5.2
0
VERTEX
8
CUT
10
114.5112
20
4
0
VERTEX
8
CUT
10
114.9614
20
2.8
0
VERTEX
8
CUT
10
115.0971
20
1.6
0
VERTEX
8
CUT
10
114.874
20
0.4
0
VERTEX
8
CUT
10
114.7044
20
0
0
SEQEND
0
POLYLINE
8
CUT
66
1
70
0
0
VERTEX
8
CUT
10
118.3901
20
69.25
0
VERTEX
8
CUT
10
118.8899
20
68.05
0
VERTEX
8
CUT
10
119.0987
20
66.85
0
VERTEX
8
CUT
10
118.9482
20
65.65
0
VERTEX
8
CUT
10
118.4875
20
64.45
0
VERTEX
8
CUT
10
117.8674
20
63.25
0
VERTEX
8
CUT
10
117.2907
20
62.05
0
VERTEX
8
CUT
10
116.9459
20
60.85
0
VERTEX
8
CUT
10
116.9459
20
59.65
0
VERTEX
8
CUT
10
117.2907
20
58.45
0
VERTEX
8
CUT
10
117.8674
20
57.25
0
VERTEX
8
CUT
10
118.4875
20
56.05
0
VERTEX
8
CUT
10
118.9482
20
54.85
0
VERTEX
8
CUT
10
119.0987
20
53.65
0
VERTEX
8
CUT
10
118.8899
20
52.45
0
VERTEX
8
CUT
10
118.3901
20
51.25
0
VERTEX
8
CUT
10
117.7626
20
50.05
0
VERTEX
8
CUT
10
117.2128
20
48.85
0
VERTEX
8
CUT
10
116.9205
20
47.65
0
VERTEX
8
CUT
10
116.9812
20
46.45
0
VERTEX
8
CUT
10
117.3751
20
45.25
0
VERTEX
8
CUT
10
117.9734
20
44.05
0
VERTEX
8
CUT
10
118.5804
20
42.85
0
VERTEX
8
CUT
10
118.9976
20
41.65
0
VERTEX
8
CUT
10
119.0885
20
40.45
0
VERTEX
8
CUT
10
118.8234
20
39.25
0
SEQEND
0
POLYLINE
8
CUT
66
1
70
0
0
VERTEX
8
CUT
10
118.1326
20
37.75
0
VERTEX
8
CUT
10
117.5125
20
36.55
0
VERTEX
8
CUT
10
117.0518
20
35.35
0
VERTEX
8
CUT
10
116.9013
20
34.15
0
VERTEX
8
CUT
10
117.1101
20
32.95
0
VERTEX
8
CUT
10
117.6099
20
31.75
0
VERTEX
8
CUT
10
118.2374
20
30.55
0
VERTEX
8
CUT
10
118.7872
20
29.35
0
VERTEX
8
CUT
10
119.0795
20
28.15
0
VERTEX
8
CUT
10
119.0188
20
26.95
0
VERTEX
8
CUT
10
118.6249
20
25.75
0
VERTEX
8
CUT
10
118.0266
20
24.55
0
VERTEX
8
CUT
10
117.4196
20
23.35
0
VERTEX
8
CUT
10
117.0024
20
22.15
0
VERTEX
8
CUT
10
116.9115
20
20.95
0
VERTEX
8
CUT
10
117.1766
20
19.75
0
VERTEX
8
CUT
10
117.711
20
18.55
0
VERTEX
8
CUT
10
118.3399
20
17.35
0
VERTEX
8
CUT
10
118.8576
20
16.15
0
VERTEX
8
CUT
10
119.0949
20
14.95
0
VERTEX
8
CUT
10
118.974
20
13.75
0
VERTEX
8
CUT
10
118.5346
20
12.55
0
VERTEX
8
CUT
10
117.9203
20
11.35
0
VERTEX
8
CUT
10
117.3321
20
10.15
0
VERTEX
8
CUT
10
116.9624
20
8.95
0
VERTEX
8
CUT
10
116.932
20
7.75
0
SEQEND
0
POLYLINE
8
CUT
66
1
70
0
0
VERTEX
8
CUT
10
117.3751
20
6.25
0
VERTEX
8
CUT
10
117.9734
20
5.05
0
VERTEX
8
CUT
10
118.5804
20
3.85
0
VERTEX
8
CUT
10
118.9976
20
2.65
0
VERTEX
8
CUT
10
119.0885
20
1.45
0
VERTEX
8
CUT
10
118.8234
20
0.25
0
VERTEX
8
CUT
10
118.712
20
0
0
SEQEND
0
POLYLINE
8
CUT
66
1
70
0
0
VERTEX
8
CUT
10
0
20
70
0
VERTEX
8
CUT
10
120
20
70
0
VERTEX
8
CUT
10
120
20
0
0
VERTEX
8
CUT
10
0
20
0
0
VERTEX
8
CUT
10
0
20
70
0
SEQEND
0
ENDSEC
0
EOF
