0
SECTION
2
HEADER
9
$ACADVER
1
AC1009
9
$INSUNITS
70
4
0
ENDSEC
0
SECTION
2
TABLES
0
TABLE
2
LAYER
70
1
0
LAYER
2
CUT
70
0
62
1
6
CONTINUOUS
0
ENDTAB
0
ENDSEC
0
SECTION
2
ENTITIES
0
LINE
8
CUT
10
2.2205
20
70
11
0.866
21
69.218
0
LINE
8
CUT
10
12.2807
20
70
11
10.9263
21
69.218
0
LINE
8
CUT
10
7.8398
20
70
11
9.1942
21
69.218
0
LINE
8
CUT
10
22.341
20
70
11
20.9865
21
69.218
0
LINE
8
CUT
10
17.9
20
70
11
19.2545
21
69.218
0
LINE
8
CUT
10
32.4013
20
70
11
31.0468
21
69.218
0
LINE
8
CUT
10
27.9603
20
70
11
29.3147
21
69.218
0
LINE
8
CUT
10
42.4615
20
70
11
41.107
21
69.218
0
LINE
8
CUT
10
38.0205
20
70
11
39.375
21
69.218
0
LINE
8
CUT
10
52.5218
20
70
11
51.1673
21
69.218
0
LINE
8
CUT
10
48.0808
20
70
11
49.4352
21
69.218
0
LINE
8
CUT
10
62.582
20
70
11
61.2275
21
69.218
0
LINE
8
CUT
10
58.141
20
70
11
59.4955
21
69.218
0
LINE
8
CUT
10
72.6423
20
70
11
71.2878
21
69.218
0
LINE
8
CUT
10
68.2013
20
70
11
69.5558
21
69.218
0
LINE
8
CUT
10
82.7025
20
70
11
81.3481
21
69.218
0
LINE
8
CUT
10
78.2615
20
70
11
79.616
21
69.218
0
LINE
8
CUT
10
92.7628
20
70
11
91.4083
21
69.218
0
LINE
8
CUT
10
88.3218
20
70
11
89.6763
21
69.218
0
LINE
8
CUT
10
102.823
20
70
11
101.4686
21
69.218
0
LINE
8
CUT
10
98.3821
20
70
11
99.7365
21
69.218
0
LINE
8
CUT
10
112.8833
20
70
11
111.5288
21
69.218
0
LINE
8
CUT
10
108.4423
20
70
11
109.7968
21
69.218
0
LINE
8
CUT
10
118.5026
20
70
11
119.857
21
69.218
0
POLYLINE
8
CUT
66
1
70
0
0
VERTEX
8
CUT
10
5.8962
20
69.5
0
VERTEX
8
CUT
10
9.3603
20
67.5
0
VERTEX
8
CUT
10
9.3603
20
62.5
0
VERTEX
8
CUT
10
5.8962
20
60.5
0
SEQEND
0
POLYLINE
8
CUT
66
1
70
0
0
VERTEX
8
CUT
10
4.1641
20
69.5
0
VERTEX
8
CUT
10
0.7
20
67.5
0
VERTEX
8
CUT
10
0.7
20
62.5
0
VERTEX
8
CUT
10
4.1641
20
60.5
0
SEQEND
0
POLYLINE
8
CUT
66
1
70
0
0
VERTEX
8
CUT
10
15.9564
20
69.5
0
VERTEX
8
CUT
10
19.4205
20
67.5
0
VERTEX
8
CUT
10
19.4205
20
62.5
0
VERTEX
8
CUT
10
15.9564
20
60.5
0
SEQEND
0
POLYLINE
8
CUT
66
1
70
0
0
VERTEX
8
CUT
10
14.2244
20
69.5
0
VERTEX
8
CUT
10
10.7603
20
67.5
0
VERTEX
8
CUT
10
10.7603
20
62.5
0
VERTEX
8
CUT
10
14.2244
20
60.5
0
SEQEND
0
POLYLINE
8
CUT
66
1
70
0
0
VERTEX
8
CUT
10
26.0167
20
69.5
0
VERTEX
8
CUT
10
29.4808
20
67.5
0
VERTEX
8
CUT
10
29.4808
20
62.5
0
VERTEX
8
CUT
10
26.0167
20
60.5
0
SEQEND
0
POLYLINE
8
CUT
66
1
70
0
0
VERTEX
8
CUT
10
24.2846
20
69.5
0
VERTEX
8
CUT
10
20.8205
20
67.5
0
VERTEX
8
CUT
10
20.8205
20
62.5
0
VERTEX
8
CUT
10
24.2846
20
60.5
0
SEQEND
0
POLYLINE
8
CUT
66
1
70
0
0
VERTEX
8
CUT
10
36.0769
20
69.5
0
VERTEX
8
CUT
10
39.541
20
67.5
0
VERTEX
8
CUT
10
39.541
20
62.5
0
VERTEX
8
CUT
10
36.0769
20
60.5
0
SEQEND
0
POLYLINE
8
CUT
66
1
70
0
0
VERTEX
8
CUT
10
34.3449
20
69.5
0
VERTEX
8
CUT
10
30.8808
20
67.5
0
VERTEX
8
CUT
10
30.8808
20
62.5
0
VERTEX
8
CUT
10
34.3449
20
60.5
0
SEQEND
0
POLYLINE
8
CUT
66
1
70
0
0
VERTEX
8
CUT
10
46.1372
20
69.5
0
VERTEX
8
CUT
10
49.6013
20
67.5
0
VERTEX
8
CUT
10
49.6013
20
62.5
0
VERTEX
8
CUT
10
46.1372
20
60.5
0
SEQEND
0
POLYLINE
8
CUT
66
1
70
0
0
VERTEX
8
CUT
10
44.4051
20
69.5
0
VERTEX
8
CUT
10
40.941
20
67.5
0
VERTEX
8
CUT
10
40.941
20
62.5
0
VERTEX
8
CUT
10
44.4051
20
60.5
0
SEQEND
0
POLYLINE
8
CUT
66
1
70
0
0
VERTEX
8
CUT
10
56.1974
20
69.5
0
VERTEX
8
CUT
10
59.6615
20
67.5
0
VERTEX
8
CUT
10
59.6615
20
62.5
0
VERTEX
8
CUT
10
56.1974
20
60.5
0
SEQEND
0
POLYLINE
8
CUT
66
1
70
0
0
VERTEX
8
CUT
10
54.4654
20
69.5
0
VERTEX
8
CUT
10
51.0013
20
67.5
0
VERTEX
8
CUT
10
51.0013
20
62.5
0
VERTEX
8
CUT
10
54.4654
20
60.5
0
SEQEND
0
POLYLINE
8
CUT
66
1
70
0
0
VERTEX
8
CUT
10
66.2577
20
69.5
0
VERTEX
8
CUT
10
69.7218
20
67.5
0
VERTEX
8
CUT
10
69.7218
20
62.5
0
VERTEX
8
CUT
10
66.2577
20
60.5
0
SEQEND
0
POLYLINE
8
CUT
66
1
70
0
0
VERTEX
8
CUT
10
64.5256
20
69.5
0
VERTEX
8
CUT
10
61.0615
20
67.5
0
VERTEX
8
CUT
10
61.0615
20
62.5
0
VERTEX
8
CUT
10
64.5256
20
60.5
0
SEQEND
0
POLYLINE
8
CUT
66
1
70
0
0
VERTEX
8
CUT
10
76.3179
20
69.5
0
VERTEX
8
CUT
10
79.782
20
67.5
0
VERTEX
8
CUT
10
79.782
20
62.5
0
VERTEX
8
CUT
10
76.3179
20
60.5
0
SEQEND
0
POLYLINE
8
CUT
66
1
70
0
0
VERTEX
8
CUT
10
74.5859
20
69.5
0
VERTEX
8
CUT
10
71.1218
20
67.5
0
VERTEX
8
CUT
10
71.1218
20
62.5
0
VERTEX
8
CUT
10
74.5859
20
60.5
0
SEQEND
0
POLYLINE
8
CUT
66
1
70
0
0
VERTEX
8
CUT
10
86.3782
20
69.5
0
VERTEX
8
CUT
10
89.8423
20
67.5
0
VERTEX
8
CUT
10
89.8423
20
62.5
0
VERTEX
8
CUT
10
86.3782
20
60.5
0
SEQEND
0
POLYLINE
8
CUT
66
1
70
0
0
VERTEX
8
CUT
10
84.6461
20
69.5
0
VERTEX
8
CUT
10
81.182
20
67.5
0
VERTEX
8
CUT
10
81.182
20
62.5
0
VERTEX
8
CUT
10
84.6461
20
60.5
0
SEQEND
0
POLYLINE
8
CUT
66
1
70
0
0
VERTEX
8
CUT
10
96.4384
20
69.5
0
VERTEX
8
CUT
10
99.9025
20
67.5
0
VERTEX
8
CUT
10
99.9025
20
62.5
0
VERTEX
8
CUT
10
96.4384
20
60.5
0
SEQEND
0
POLYLINE
8
CUT
66
1
70
0
0
VERTEX
8
CUT
10
94.7064
20
69.5
0
VERTEX
8
CUT
10
91.2423
20
67.5
0
VERTEX
8
CUT
10
91.2423
20
62.5
0
VERTEX
8
CUT
10
94.7064
20
60.5
0
SEQEND
0
POLYLINE
8
CUT
66
1
70
0
0
VERTEX
8
CUT
10
106.4987
20
69.5
0
VERTEX
8
CUT
10
109.9628
20
67.5
0
VERTEX
8
CUT
10
109.9628
20
62.5
0
VERTEX
8
CUT
10
106.4987
20
60.5
0
SEQEND
0
POLYLINE
8
CUT
66
1
70
0
0
VERTEX
8
CUT
10
104.7666
20
69.5
0
VERTEX
8
CUT
10
101.3025
20
67.5
0
VERTEX
8
CUT
10
101.3025
20
62.5
0
VERTEX
8
CUT
10
104.7666
20
60.5
0
SEQEND
0
LINE
8
CUT
10
116.5589
20
69.5
11
120
21
67.5133
0
LINE
8
CUT
10
120
20
62.4867
11
116.5589
21
60.5
0
POLYLINE
8
CUT
66
1
70
0
0
VERTEX
8
CUT
10
114.8269
20
69.5
0
VERTEX
8
CUT
10
111.3628
20
67.5
0
VERTEX
8
CUT
10
111.3628
20
62.5
0
VERTEX
8
CUT
10
114.8269
20
60.5
0
SEQEND
0
POLYLINE
8
CUT
66
1
70
0
0
VERTEX
8
CUT
10
0.866
20
60.782
0
VERTEX
8
CUT
10
4.3301
20
58.782
0
VERTEX
8
CUT
10
4.3301
20
53.782
0
VERTEX
8
CUT
10
0.866
20
51.782
0
SEQEND
0
POLYLINE
8
CUT
66
1
70
0
0
VERTEX
8
CUT
10
10.9263
20
60.782
0
VERTEX
8
CUT
10
14.3904
20
58.782
0
VERTEX
8
CUT
10
14.3904
20
53.782
0
VERTEX
8
CUT
10
10.9263
20
51.782
0
SEQEND
0
POLYLINE
8
CUT
66
1
70
0
0
VERTEX
8
CUT
10
9.1942
20
60.782
0
VERTEX
8
CUT
10
5.7301
20
58.782
0
VERTEX
8
CUT
10
5.7301
20
53.782
0
VERTEX
8
CUT
10
9.1942
20
51.782
0
SEQEND
0
POLYLINE
8
CUT
66
1
70
0
0
VERTEX
8
CUT
10
20.9865
20
60.782
0
VERTEX
8
CUT
10
24.4506
20
58.782
0
VERTEX
8
CUT
10
24.4506
20
53.782
0
VERTEX
8
CUT
10
20.9865
20
51.782
0
SEQEND
0
POLYLINE
8
CUT
66
1
70
0
0
VERTEX
8
CUT
10
19.2545
20
60.782
0
VERTEX
8
CUT
10
15.7904
20
58.782
0
VERTEX
8
CUT
10
15.7904
20
53.782
0
VERTEX
8
CUT
10
19.2545
20
51.782
0
SEQEND
0
POLYLINE
8
CUT
66
1
70
0
0
VERTEX
8
CUT
10
31.0468
20
60.782
0
VERTEX
8
CUT
10
34.5109
20
58.782
0
VERTEX
8
CUT
10
34.5109
20
53.782
0
VERTEX
8
CUT
10
31.0468
20
51.782
0
SEQEND
0
POLYLINE
8
CUT
66
1
70
0
0
VERTEX
8
CUT
10
29.3147
20
60.782
0
VERTEX
8
CUT
10
25.8506
20
58.782
0
VERTEX
8
CUT
10
25.8506
20
53.782
0
VERTEX
8
CUT
10
29.3147
20
51.782
0
SEQEND
0
POLYLINE
8
CUT
66
1
70
0
0
VERTEX
8
CUT
10
41.107
20
60.782
0
VERTEX
8
CUT
10
44.5711
20
58.782
0
VERTEX
8
CUT
10
44.5711
20
53.782
0
VERTEX
8
CUT
10
41.107
20
51.782
0
SEQEND
0
POLYLINE
8
CUT
66
1
70
0
0
VERTEX
8
CUT
10
39.375
20
60.782
0
VERTEX
8
CUT
10
35.9109
20
58.782
0
VERTEX
8
CUT
10
35.9109
20
53.782
0
VERTEX
8
CUT
10
39.375
20
51.782
0
SEQEND
0
POLYLINE
8
CUT
66
1
70
0
0
VERTEX
8
CUT
10
51.1673
20
60.782
0
VERTEX
8
CUT
10
54.6314
20
58.782
0
VERTEX
8
CUT
10
54.6314
20
53.782
0
VERTEX
8
CUT
10
51.1673
20
51.782
0
SEQEND
0
POLYLINE
8
CUT
66
1
70
0
0
VERTEX
8
CUT
10
49.4352
20
60.782
0
VERTEX
8
CUT
10
45.9711
20
58.782
0
VERTEX
8
CUT
10
45.9711
20
53.782
0
VERTEX
8
CUT
10
49.4352
20
51.782
0
SEQEND
0
POLYLINE
8
CUT
66
1
70
0
0
VERTEX
8
CUT
10
61.2275
20
60.782
0
VERTEX
8
CUT
10
64.6917
20
58.782
0
VERTEX
8
CUT
10
64.6917
20
53.782
0
VERTEX
8
CUT
10
61.2275
20
51.782
0
SEQEND
0
POLYLINE
8
CUT
66
1
70
0
0
VERTEX
8
CUT
10
59.4955
20
60.782
0
VERTEX
8
CUT
10
56.0314
20
58.782
0
VERTEX
8
CUT
10
56.0314
20
53.782
0
VERTEX
8
CUT
10
59.4955
20
51.782
0
SEQEND
0
POLYLINE
8
CUT
66
1
70
0
0
VERTEX
8
CUT
10
71.2878
20
60.782
0
VERTEX
8
CUT
10
74.7519
20
58.782
0
VERTEX
8
CUT
10
74.7519
20
53.782
0
VERTEX
8
CUT
10
71.2878
20
51.782
0
SEQEND
0
POLYLINE
8
CUT
66
1
70
0
0
VERTEX
8
CUT
10
69.5558
20
60.782
0
VERTEX
8
CUT
10
66.0917
20
58.782
0
VERTEX
8
CUT
10
66.0917
20
53.782
0
VERTEX
8
CUT
10
69.5558
20
51.782
0
SEQEND
0
POLYLINE
8
CUT
66
1
70
0
0
VERTEX
8
CUT
10
81.3481
20
60.782
0
VERTEX
8
CUT
10
84.8122
20
58.782
0
VERTEX
8
CUT
10
84.8122
20
53.782
0
VERTEX
8
CUT
10
81.3481
20
51.782
0
SEQEND
0
POLYLINE
8
CUT
66
1
70
0
0
VERTEX
8
CUT
10
79.616
20
60.782
0
VERTEX
8
CUT
10
76.1519
20
58.782
0
VERTEX
8
CUT
10
76.1519
20
53.782
0
VERTEX
8
CUT
10
79.616
20
51.782
0
SEQEND
0
POLYLINE
8
CUT
66
1
70
0
0
VERTEX
8
CUT
10
91.4083
20
60.782
0
VERTEX
8
CUT
10
94.8724
20
58.782
0
VERTEX
8
CUT
10
94.8724
20
53.782
0
VERTEX
8
CUT
10
91.4083
20
51.782
0
SEQEND
0
POLYLINE
8
CUT
66
1
70
0
0
VERTEX
8
CUT
10
89.6763
20
60.782
0
VERTEX
8
CUT
10
86.2122
20
58.782
0
VERTEX
8
CUT
10
86.2122
20
53.782
0
VERTEX
8
CUT
10
89.6763
20
51.782
0
SEQEND
0
POLYLINE
8
CUT
66
1
70
0
0
VERTEX
8
CUT
10
101.4686
20
60.782
0
VERTEX
8
CUT
10
104.9327
20
58.782
0
VERTEX
8
CUT
10
104.9327
20
53.782
0
VERTEX
8
CUT
10
101.4686
20
51.782
0
SEQEND
0
POLYLINE
8
CUT
66
1
70
0
0
VERTEX
8
CUT
10
99.7365
20
60.782
0
VERTEX
8
CUT
10
96.2724
20
58.782
0
VERTEX
8
CUT
10
96.2724
20
53.782
0
VERTEX
8
CUT
10
99.7365
20
51.782
0
SEQEND
0
POLYLINE
8
CUT
66
1
70
0
0
VERTEX
8
CUT
10
111.5288
20
60.782
0
VERTEX
8
CUT
10
114.9929
20
58.782
0
VERTEX
8
CUT
10
114.9929
20
53.782
0
VERTEX
8
CUT
10
111.5288
20
51.782
0
SEQEND
0
POLYLINE
8
CUT
66
1
70
0
0
VERTEX
8
CUT
10
109.7968
20
60.782
0
VERTEX
8
CUT
10
106.3327
20
58.782
0
VERTEX
8
CUT
10
106.3327
20
53.782
0
VERTEX
8
CUT
10
109.7968
20
51.782
0
SEQEND
0
POLYLINE
8
CUT
66
1
70
0
0
VERTEX
8
CUT
10
119.857
20
60.782
0
VERTEX
8
CUT
10
116.3929
20
58.782
0
VERTEX
8
CUT
10
116.3929
20
53.782
0
VERTEX
8
CUT
10
119.857
20
51.782
0
SEQEND
0
POLYLINE
8
CUT
66
1
70
0
0
VERTEX
8
CUT
10
5.8962
20
52.064
0
VERTEX
8
CUT
10
9.3603
20
50.064
0
VERTEX
8
CUT
10
9.3603
20
45.064
0
VERTEX
8
CUT
10
5.8962
20
43.064
0
SEQEND
0
POLYLINE
8
CUT
66
1
70
0
0
VERTEX
8
CUT
10
4.1641
20
52.064
0
VERTEX
8
CUT
10
0.7
20
50.064
0
VERTEX
8
CUT
10
0.7
20
45.064
0
VERTEX
8
CUT
10
4.1641
20
43.064
0
SEQEND
0
POLYLINE
8
CUT
66
1
70
0
0
VERTEX
8
CUT
10
15.9564
20
52.064
0
VERTEX
8
CUT
10
19.4205
20
50.064
0
VERTEX
8
CUT
10
19.4205
20
45.064
0
VERTEX
8
CUT
10
15.9564
20
43.064
0
SEQEND
0
POLYLINE
8
CUT
66
1
70
0
0
VERTEX
8
CUT
10
14.2244
20
52.064
0
VERTEX
8
CUT
10
10.7603
20
50.064
0
VERTEX
8
CUT
10
10.7603
20
45.064
0
VERTEX
8
CUT
10
14.2244
20
43.064
0
SEQEND
0
POLYLINE
8
CUT
66
1
70
0
0
VERTEX
8
CUT
10
26.0167
20
52.064
0
VERTEX
8
CUT
10
29.4808
20
50.064
0
VERTEX
8
CUT
10
29.4808
20
45.064
0
VERTEX
8
CUT
10
26.0167
20
43.064
0
SEQEND
0
POLYLINE
8
CUT
66
1
70
0
0
VERTEX
8
CUT
10
24.2846
20
52.064
0
VERTEX
8
CUT
10
20.8205
20
50.064
0
VERTEX
8
CUT
10
20.8205
20
45.064
0
VERTEX
8
CUT
10
24.2846
20
43.064
0
SEQEND
0
POLYLINE
8
CUT
66
1
70
0
0
VERTEX
8
CUT
10
36.0769
20
52.064
0
VERTEX
8
CUT
10
39.541
20
50.064
0
VERTEX
8
CUT
10
39.541
20
45.064
0
VERTEX
8
CUT
10
36.0769
20
43.064
0
SEQEND
0
POLYLINE
8
CUT
66
1
70
0
0
VERTEX
8
CUT
10
34.3449
20
52.064
0
VERTEX
8
CUT
10
30.8808
20
50.064
0
VERTEX
8
CUT
10
30.8808
20
45.064
0
VERTEX
8
CUT
10
34.3449
20
43.064
0
SEQEND
0
POLYLINE
8
CUT
66
1
70
0
0
VERTEX
8
CUT
10
46.1372
20
52.064
0
VERTEX
8
CUT
10
49.6013
20
50.064
0
VERTEX
8
CUT
10
49.6013
20
45.064
0
VERTEX
8
CUT
10
46.1372
20
43.064
0
SEQEND
0
POLYLINE
8
CUT
66
1
70
0
0
VERTEX
8
CUT
10
44.4051
20
52.064
0
VERTEX
8
CUT
10
40.941
20
50.064
0
VERTEX
8
CUT
10
40.941
20
45.064
0
VERTEX
8
CUT
10
44.4051
20
43.064
0
SEQEND
0
POLYLINE
8
CUT
66
1
70
0
0
VERTEX
8
CUT
10
56.1974
20
52.064
0
VERTEX
8
CUT
10
59.6615
20
50.064
0
VERTEX
8
CUT
10
59.6615
20
45.064
0
VERTEX
8
CUT
10
56.1974
20
43.064
0
SEQEND
0
POLYLINE
8
CUT
66
1
70
0
0
VERTEX
8
CUT
10
54.4654
20
52.064
0
VERTEX
8
CUT
10
51.0013
20
50.064
0
VERTEX
8
CUT
10
51.0013
20
45.064
0
VERTEX
8
CUT
10
54.4654
20
43.064
0
SEQEND
0
POLYLINE
8
CUT
66
1
70
0
0
VERTEX
8
CUT
10
66.2577
20
52.064
0
VERTEX
8
CUT
10
69.7218
20
50.064
0
VERTEX
8
CUT
10
69.7218
20
45.064
0
VERTEX
8
CUT
10
66.2577
20
43.064
0
SEQEND
0
POLYLINE
8
CUT
66
1
70
0
0
VERTEX
8
CUT
10
64.5256
20
52.064
0
VERTEX
8
CUT
10
61.0615
20
50.064
0
VERTEX
8
CUT
10
61.0615
20
45.064
0
VERTEX
8
CUT
10
64.5256
20
43.064
0
SEQEND
0
POLYLINE
8
CUT
66
1
70
0
0
VERTEX
8
CUT
10
76.3179
20
52.064
0
VERTEX
8
CUT
10
79.782
20
50.064
0
VERTEX
8
CUT
10
79.782
20
45.064
0
VERTEX
8
CUT
10
76.3179
20
43.064
0
SEQEND
0
POLYLINE
8
CUT
66
1
70
0
0
VERTEX
8
CUT
10
74.5859
20
52.064
0
VERTEX
8
CUT
10
71.1218
20
50.064
0
VERTEX
8
CUT
10
71.1218
20
45.064
0
VERTEX
8
CUT
10
74.5859
20
43.064
0
SEQEND
0
POLYLINE
8
CUT
66
1
70
0
0
VERTEX
8
CUT
10
86.3782
20
52.064
0
VERTEX
8
CUT
10
89.8423
20
50.064
0
VERTEX
8
CUT
10
89.8423
20
45.064
0
VERTEX
8
CUT
10
86.3782
20
43.064
0
SEQEND
0
POLYLINE
8
CUT
66
1
70
0
0
VERTEX
8
CUT
10
84.6461
20
52.064
0
VERTEX
8
CUT
10
81.182
20
50.064
0
VERTEX
8
CUT
10
81.182
20
45.064
0
VERTEX
8
CUT
10
84.6461
20
43.064
0
SEQEND
0
POLYLINE
8
CUT
66
1
70
0
0
VERTEX
8
CUT
10
96.4384
20
52.064
0
VERTEX
8
CUT
10
99.9025
20
50.064
0
VERTEX
8
CUT
10
99.9025
20
45.064
0
VERTEX
8
CUT
10
96.4384
20
43.064
0
SEQEND
0
POLYLINE
8
CUT
66
1
70
0
0
VERTEX
8
CUT
10
94.7064
20
52.064
0
VERTEX
8
CUT
10
91.2423
20
50.064
0
VERTEX
8
CUT
10
91.2423
20
45.064
0
VERTEX
8
CUT
10
94.7064
20
43.064
0
SEQEND
0
POLYLINE
8
CUT
66
1
70
0
0
VERTEX
8
CUT
10
106.4987
20
52.064
0
VERTEX
8
CUT
10
109.9628
20
50.064
0
VERTEX
8
CUT
10
109.9628
20
45.064
0
VERTEX
8
CUT
10
106.4987
20
43.064
0
SEQEND
0
POLYLINE
8
CUT
66
1
70
0
0
VERTEX
8
CUT
10
104.7666
20
52.064
0
VERTEX
8
CUT
10
101.3025
20
50.064
0
VERTEX
8
CUT
10
101.3025
20
45.064
0
VERTEX
8
CUT
10
104.7666
20
43.064
0
SEQEND
0
LINE
8
CUT
10
116.5589
20
52.064
11
120
21
50.0773
0
LINE
8
CUT
10
120
20
45.0507
11
116.5589
21
43.064
0
POLYLINE
8
CUT
66
1
70
0
0
VERTEX
8
CUT
10
114.8269
20
52.064
0
VERTEX
8
CUT
10
111.3628
20
50.064
0
VERTEX
8
CUT
10
111.3628
20
45.064
0
VERTEX
8
CUT
10
114.8269
20
43.064
0
SEQEND
0
POLYLINE
8
CUT
66
1
70
0
0
VERTEX
8
CUT
10
0.866
20
43.346
0
VERTEX
8
CUT
10
4.3301
20
41.346
0
VERTEX
8
CUT
10
4.3301
20
36.346
0
VERTEX
8
CUT
10
0.866
20
34.346
0
SEQEND
0
POLYLINE
8
CUT
66
1
70
0
0
VERTEX
8
CUT
10
10.9263
20
43.346
0
VERTEX
8
CUT
10
14.3904
20
41.346
0
VERTEX
8
CUT
10
14.3904
20
36.346
0
VERTEX
8
CUT
10
10.9263
20
34.346
0
SEQEND
0
POLYLINE
8
CUT
66
1
70
0
0
VERTEX
8
CUT
10
9.1942
20
43.346
0
VERTEX
8
CUT
10
5.7301
20
41.346
0
VERTEX
8
CUT
10
5.7301
20
36.346
0
VERTEX
8
CUT
10
9.1942
20
34.346
0
SEQEND
0
POLYLINE
8
CUT
66
1
70
0
0
VERTEX
8
CUT
10
20.9865
20
43.346
0
VERTEX
8
CUT
10
24.4506
20
41.346
0
VERTEX
8
CUT
10
24.4506
20
36.346
0
VERTEX
8
CUT
10
20.9865
20
34.346
0
SEQEND
0
POLYLINE
8
CUT
66
1
70
0
0
VERTEX
8
CUT
10
19.2545
20
43.346
0
VERTEX
8
CUT
10
15.7904
20
41.346
0
VERTEX
8
CUT
10
15.7904
20
36.346
0
VERTEX
8
CUT
10
19.2545
20
34.346
0
SEQEND
0
POLYLINE
8
CUT
66
1
70
0
0
VERTEX
8
CUT
10
31.0468
20
43.346
0
VERTEX
8
CUT
10
34.5109
20
41.346
0
VERTEX
8
CUT
10
34.5109
20
36.346
0
VERTEX
8
CUT
10
31.0468
20
34.346
0
SEQEND
0
POLYLINE
8
CUT
66
1
70
0
0
VERTEX
8
CUT
10
29.3147
20
43.346
0
VERTEX
8
CUT
10
25.8506
20
41.346
0
VERTEX
8
CUT
10
25.8506
20
36.346
0
VERTEX
8
CUT
10
29.3147
20
34.346
0
SEQEND
0
POLYLINE
8
CUT
66
1
70
0
0
VERTEX
8
CUT
10
41.107
20
43.346
0
VERTEX
8
CUT
10
44.5711
20
41.346
0
VERTEX
8
CUT
10
44.5711
20
36.346
0
VERTEX
8
CUT
10
41.107
20
34.346
0
SEQEND
0
POLYLINE
8
CUT
66
1
70
0
0
VERTEX
8
CUT
10
39.375
20
43.346
0
VERTEX
8
CUT
10
35.9109
20
41.346
0
VERTEX
8
CUT
10
35.9109
20
36.346
0
VERTEX
8
CUT
10
39.375
20
34.346
0
SEQEND
0
POLYLINE
8
CUT
66
1
70
0
0
VERTEX
8
CUT
10
51.1673
20
43.346
0
VERTEX
8
CUT
10
54.6314
20
41.346
0
VERTEX
8
CUT
10
54.6314
20
36.346
0
VERTEX
8
CUT
10
51.1673
20
34.346
0
SEQEND
0
POLYLINE
8
CUT
66
1
70
0
0
VERTEX
8
CUT
10
49.4352
20
43.346
0
VERTEX
8
CUT
10
45.9711
20
41.346
0
VERTEX
8
CUT
10
45.9711
20
36.346
0
VERTEX
8
CUT
10
49.4352
20
34.346
0
SEQEND
0
POLYLINE
8
CUT
66
1
70
0
0
VERTEX
8
CUT
10
61.2275
20
43.346
0
VERTEX
8
CUT
10
64.6917
20
41.346
0
VERTEX
8
CUT
10
64.6917
20
36.346
0
VERTEX
8
CUT
10
61.2275
20
34.346
0
SEQEND
0
POLYLINE
8
CUT
66
1
70
0
0
VERTEX
8
CUT
10
59.4955
20
43.346
0
VERTEX
8
CUT
10
56.0314
20
41.346
0
VERTEX
8
CUT
10
56.0314
20
36.346
0
VERTEX
8
CUT
10
59.4955
20
34.346
0
SEQEND
0
POLYLINE
8
CUT
66
1
70
0
0
VERTEX
8
CUT
10
71.2878
20
43.346
0
VERTEX
8
CUT
10
74.7519
20
41.346
0
VERTEX
8
CUT
10
74.7519
20
36.346
0
VERTEX
8
CUT
10
71.2878
20
34.346
0
SEQEND
0
POLYLINE
8
CUT
66
1
70
0
0
VERTEX
8
CUT
10
69.5558
20
43.346
0
VERTEX
8
CUT
10
66.0917
20
41.346
0
VERTEX
8
CUT
10
66.0917
20
36.346
0
VERTEX
8
CUT
10
69.5558
20
34.346
0
SEQEND
0
POLYLINE
8
CUT
66
1
70
0
0
VERTEX
8
CUT
10
81.3481
20
43.346
0
VERTEX
8
CUT
10
84.8122
20
41.346
0
VERTEX
8
CUT
10
84.8122
20
36.346
0
VERTEX
8
CUT
10
81.3481
20
34.346
0
SEQEND
0
POLYLINE
8
CUT
66
1
70
0
0
VERTEX
8
CUT
10
79.616
20
43.346
0
VERTEX
8
CUT
10
76.1519
20
41.346
0
VERTEX
8
CUT
10
76.1519
20
36.346
0
VERTEX
8
CUT
10
79.616
20
34.346
0
SEQEND
0
POLYLINE
8
CUT
66
1
70
0
0
VERTEX
8
CUT
10
91.4083
20
43.346
0
VERTEX
8
CUT
10
94.8724
20
41.346
0
VERTEX
8
CUT
10
94.8724
20
36.346
0
VERTEX
8
CUT
10
91.4083
20
34.346
0
SEQEND
0
POLYLINE
8
CUT
66
1
70
0
0
VERTEX
8
CUT
10
89.6763
20
43.346
0
VERTEX
8
CUT
10
86.2122
20
41.346
0
VERTEX
8
CUT
10
86.2122
20
36.346
0
VERTEX
8
CUT
10
89.6763
20
34.346
0
SEQEND
0
POLYLINE
8
CUT
66
1
70
0
0
VERTEX
8
CUT
10
101.4686
20
43.346
0
VERTEX
8
CUT
10
104.9327
20
41.346
0
VERTEX
8
CUT
10
104.9327
20
36.346
0
VERTEX
8
CUT
10
101.4686
20
34.346
0
SEQEND
0
POLYLINE
8
CUT
66
1
70
0
0
VERTEX
8
CUT
10
99.7365
20
43.346
0
VERTEX
8
CUT
10
96.2724
20
41.346
0
VERTEX
8
CUT
10
96.2724
20
36.346
0
VERTEX
8
CUT
10
99.7365
20
34.346
0
SEQEND
0
POLYLINE
8
CUT
66
1
70
0
0
VERTEX
8
CUT
10
111.5288
20
43.346
0
VERTEX
8
CUT
10
114.9929
20
41.346
0
VERTEX
8
CUT
10
114.9929
20
36.346
0
VERTEX
8
CUT
10
111.5288
20
34.346
0
SEQEND
0
POLYLINE
8
CUT
66
1
70
0
0
VERTEX
8
CUT
10
109.7968
20
43.346
0
VERTEX
8
CUT
10
106.3327
20
41.346
0
VERTEX
8
CUT
10
106.3327
20
36.346
0
VERTEX
8
CUT
10
109.7968
20
34.346
0
SEQEND
0
POLYLINE
8
CUT
66
1
70
0
0
VERTEX
8
CUT
10
119.857
20
43.346
0
VERTEX
8
CUT
10
116.3929
20
41.346
0
VERTEX
8
CUT
10
116.3929
20
36.346
0
VERTEX
8
CUT
10
119.857
20
34.346
0
SEQEND
0
POLYLINE
8
CUT
66
1
70
0
0
VERTEX
8
CUT
10
5.8962
20
34.628
0
VERTEX
8
CUT
10
9.3603
20
32.628
0
VERTEX
8
CUT
10
9.3603
20
27.628
0
VERTEX
8
CUT
10
5.8962
20
25.628
0
SEQEND
0
POLYLINE
8
CUT
66
1
70
0
0
VERTEX
8
CUT
10
4.1641
20
34.628
0
VERTEX
8
CUT
10
0.7
20
32.628
0
VERTEX
8
CUT
10
0.7
20
27.628
0
VERTEX
8
CUT
10
4.1641
20
25.628
0
SEQEND
0
POLYLINE
8
CUT
66
1
70
0
0
VERTEX
8
CUT
10
15.9564
20
34.628
0
VERTEX
8
CUT
10
19.4205
20
32.628
0
VERTEX
8
CUT
10
19.4205
20
27.628
0
VERTEX
8
CUT
10
15.9564
20
25.628
0
SEQEND
0
POLYLINE
8
CUT
66
1
70
0
0
VERTEX
8
CUT
10
14.2244
20
34.628
0
VERTEX
8
CUT
10
10.7603
20
32.628
0
VERTEX
8
CUT
10
10.7603
20
27.628
0
VERTEX
8
CUT
10
14.2244
20
25.628
0
SEQEND
0
POLYLINE
8
CUT
66
1
70
0
0
VERTEX
8
CUT
10
26.0167
20
34.628
0
VERTEX
8
CUT
10
29.4808
20
32.628
0
VERTEX
8
CUT
10
29.4808
20
27.628
0
VERTEX
8
CUT
10
26.0167
20
25.628
0
SEQEND
0
POLYLINE
8
CUT
66
1
70
0
0
VERTEX
8
CUT
10
24.2846
20
34.628
0
VERTEX
8
CUT
10
20.8205
20
32.628
0
VERTEX
8
CUT
10
20.8205
20
27.628
0
VERTEX
8
CUT
10
24.2846
20
25.628
0
SEQEND
0
POLYLINE
8
CUT
66
1
70
0
0
VERTEX
8
CUT
10
36.0769
20
34.628
0
VERTEX
8
CUT
10
39.541
20
32.628
0
VERTEX
8
CUT
10
39.541
20
27.628
0
VERTEX
8
CUT
10
36.0769
20
25.628
0
SEQEND
0
POLYLINE
8
CUT
66
1
70
0
0
VERTEX
8
CUT
10
34.3449
20
34.628
0
VERTEX
8
CUT
10
30.8808
20
32.628
0
VERTEX
8
CUT
10
30.8808
20
27.628
0
VERTEX
8
CUT
10
34.3449
20
25.628
0
SEQEND
0
POLYLINE
8
CUT
66
1
70
0
0
VERTEX
8
CUT
10
46.1372
20
34.628
0
VERTEX
8
CUT
10
49.6013
20
32.628
0
VERTEX
8
CUT
10
49.6013
20
27.628
0
VERTEX
8
CUT
10
46.1372
20
25.628
0
SEQEND
0
POLYLINE
8
CUT
66
1
70
0
0
VERTEX
8
CUT
10
44.4051
20
34.628
0
VERTEX
8
CUT
10
40.941
20
32.628
0
VERTEX
8
CUT
10
40.941
20
27.628
0
VERTEX
8
CUT
10
44.4051
20
25.628
0
SEQEND
0
POLYLINE
8
CUT
66
1
70
0
0
VERTEX
8
CUT
10
56.1974
20
34.628
0
VERTEX
8
CUT
10
59.6615
20
32.628
0
VERTEX
8
CUT
10
59.6615
20
27.628
0
VERTEX
8
CUT
10
56.1974
20
25.628
0
SEQEND
0
POLYLINE
8
CUT
66
1
70
0
0
VERTEX
8
CUT
10
54.4654
20
34.628
0
VERTEX
8
CUT
10
51.0013
20
32.628
0
VERTEX
8
CUT
10
51.0013
20
27.628
0
VERTEX
8
CUT
10
54.4654
20
25.628
0
SEQEND
0
POLYLINE
8
CUT
66
1
70
0
0
VERTEX
8
CUT
10
66.2577
20
34.628
0
VERTEX
8
CUT
10
69.7218
20
32.628
0
VERTEX
8
CUT
10
69.7218
20
27.628
0
VERTEX
8
CUT
10
66.2577
20
25.628
0
SEQEND
0
POLYLINE
8
CUT
66
1
70
0
0
VERTEX
8
CUT
10
64.5256
20
34.628
0
VERTEX
8
CUT
10
61.0615
20
32.628
0
VERTEX
8
CUT
10
61.0615
20
27.628
0
VERTEX
8
CUT
10
64.5256
20
25.628
0
SEQEND
0
POLYLINE
8
CUT
66
1
70
0
0
VERTEX
8
CUT
10
76.3179
20
34.628
0
VERTEX
8
CUT
10
79.782
20
32.628
0
VERTEX
8
CUT
10
79.782
20
27.628
0
VERTEX
8
CUT
10
76.3179
20
25.628
0
SEQEND
0
POLYLINE
8
CUT
66
1
70
0
0
VERTEX
8
CUT
10
74.5859
20
34.628
0
VERTEX
8
CUT
10
71.1218
20
32.628
0
VERTEX
8
CUT
10
71.1218
20
27.628
0
VERTEX
8
CUT
10
74.5859
20
25.628
0
SEQEND
0
POLYLINE
8
CUT
66
1
70
0
0
VERTEX
8
CUT
10
86.3782
20
34.628
0
VERTEX
8
CUT
10
89.8423
20
32.628
0
VERTEX
8
CUT
10
89.8423
20
27.628
0
VERTEX
8
CUT
10
86.3782
20
25.628
0
SEQEND
0
POLYLINE
8
CUT
66
1
70
0
0
VERTEX
8
CUT
10
84.6461
20
34.628
0
VERTEX
8
CUT
10
81.182
20
32.628
0
VERTEX
8
CUT
10
81.182
20
27.628
0
VERTEX
8
CUT
10
84.6461
20
25.628
0
SEQEND
0
POLYLINE
8
CUT
66
1
70
0
0
VERTEX
8
CUT
10
96.4384
20
34.628
0
VERTEX
8
CUT
10
99.9025
20
32.628
0
VERTEX
8
CUT
10
99.9025
20
27.628
0
VERTEX
8
CUT
10
96.4384
20
25.628
0
SEQEND
0
POLYLINE
8
CUT
66
1
70
0
0
VERTEX
8
CUT
10
94.7064
20
34.628
0
VERTEX
8
CUT
10
91.2423
20
32.628
0
VERTEX
8
CUT
10
91.2423
20
27.628
0
VERTEX
8
CUT
10
94.7064
20
25.628
0
SEQEND
0
POLYLINE
8
CUT
66
1
70
0
0
VERTEX
8
CUT
10
106.4987
20
34.628
0
VERTEX
8
CUT
10
109.9628
20
32.628
0
VERTEX
8
CUT
10
109.9628
20
27.628
0
VERTEX
8
CUT
10
106.4987
20
25.628
0
SEQEND
0
POLYLINE
8
CUT
66
1
70
0
0
VERTEX
8
CUT
10
104.7666
20
34.628
0
VERTEX
8
CUT
10
101.3025
20
32.628
0
VERTEX
8
CUT
10
101.3025
20
27.628
0
VERTEX
8
CUT
10
104.7666
20
25.628
0
SEQEND
0
LINE
8
CUT
10
116.5589
20
34.628
11
120
21
32.6413
0
LINE
8
CUT
10
120
20
27.6147
11
116.5589
21
25.628
0
POLYLINE
8
CUT
66
1
70
0
0
VERTEX
8
CUT
10
114.8269
20
34.628
0
VERTEX
8
CUT
10
111.3628
20
32.628
0
VERTEX
8
CUT
10
111.3628
20
27.628
0
VERTEX
8
CUT
10
114.8269
20
25.628
0
SEQEND
0
POLYLINE
8
CUT
66
1
70
0
0
VERTEX
8
CUT
10
0.866
20
25.91
0
VERTEX
8
CUT
10
4.3301
20
23.91
0
VERTEX
8
CUT
10
4.3301
20
18.91
0
VERTEX
8
CUT
10
0.866
20
16.91
0
SEQEND
0
POLYLINE
8
CUT
66
1
70
0
0
VERTEX
8
CUT
10
10.9263
20
25.91
0
VERTEX
8
CUT
10
14.3904
20
23.91
0
VERTEX
8
CUT
10
14.3904
20
18.91
0
VERTEX
8
CUT
10
10.9263
20
16.91
0
SEQEND
0
POLYLINE
8
CUT
66
1
70
0
0
VERTEX
8
CUT
10
9.1942
20
25.91
0
VERTEX
8
CUT
10
5.7301
20
23.91
0
VERTEX
8
CUT
10
5.7301
20
18.91
0
VERTEX
8
CUT
10
9.1942
20
16.91
0
SEQEND
0
POLYLINE
8
CUT
66
1
70
0
0
VERTEX
8
CUT
10
20.9865
20
25.91
0
VERTEX
8
CUT
10
24.4506
20
23.91
0
VERTEX
8
CUT
10
24.4506
20
18.91
0
VERTEX
8
CUT
10
20.9865
20
16.91
0
SEQEND
0
POLYLINE
8
CUT
66
1
70
0
0
VERTEX
8
CUT
10
19.2545
20
25.91
0
VERTEX
8
CUT
10
15.7904
20
23.91
0
VERTEX
8
CUT
10
15.7904
20
18.91
0
VERTEX
8
CUT
10
19.2545
20
16.91
0
SEQEND
0
POLYLINE
8
CUT
66
1
70
0
0
VERTEX
8
CUT
10
31.0468
20
25.91
0
VERTEX
8
CUT
10
34.5109
20
23.91
0
VERTEX
8
CUT
10
34.5109
20
18.91
0
VERTEX
8
CUT
10
31.0468
20
16.91
0
SEQEND
0
POLYLINE
8
CUT
66
1
70
0
0
VERTEX
8
CUT
10
29.3147
20
25.91
0
VERTEX
8
CUT
10
25.8506
20
23.91
0
VERTEX
8
CUT
10
25.8506
20
18.91
0
VERTEX
8
CUT
10
29.3147
20
16.91
0
SEQEND
0
POLYLINE
8
CUT
66
1
70
0
0
VERTEX
8
CUT
10
41.107
20
25.91
0
VERTEX
8
CUT
10
44.5711
20
23.91
0
VERTEX
8
CUT
10
44.5711
20
18.91
0
VERTEX
8
CUT
10
41.107
20
16.91
0
SEQEND
0
POLYLINE
8
CUT
66
1
70
0
0
VERTEX
8
CUT
10
39.375
20
25.91
0
VERTEX
8
CUT
10
35.9109
20
23.91
0
VERTEX
8
CUT
10
35.9109
20
18.91
0
VERTEX
8
CUT
10
39.375
20
16.91
0
SEQEND
0
POLYLINE
8
CUT
66
1
70
0
0
VERTEX
8
CUT
10
51.1673
20
25.91
0
VERTEX
8
CUT
10
54.6314
20
23.91
0
VERTEX
8
CUT
10
54.6314
20
18.91
0
VERTEX
8
CUT
10
51.1673
20
16.91
0
SEQEND
0
POLYLINE
8
CUT
66
1
70
0
0
VERTEX
8
CUT
10
49.4352
20
25.91
0
VERTEX
8
CUT
10
45.9711
20
23.91
0
VERTEX
8
CUT
10
45.9711
20
18.91
0
VERTEX
8
CUT
10
49.4352
20
16.91
0
SEQEND
0
POLYLINE
8
CUT
66
1
70
0
0
VERTEX
8
CUT
10
61.2275
20
25.91
0
VERTEX
8
CUT
10
64.6917
20
23.91
0
VERTEX
8
CUT
10
64.6917
20
18.91
0
VERTEX
8
CUT
10
61.2275
20
16.91
0
SEQEND
0
POLYLINE
8
CUT
66
1
70
0
0
VERTEX
8
CUT
10
59.4955
20
25.91
0
VERTEX
8
CUT
10
56.0314
20
23.91
0
VERTEX
8
CUT
10
56.0314
20
18.91
0
VERTEX
8
CUT
10
59.4955
20
16.91
0
SEQEND
0
POLYLINE
8
CUT
66
1
70
0
0
VERTEX
8
CUT
10
71.2878
20
25.91
0
VERTEX
8
CUT
10
74.7519
20
23.91
0
VERTEX
8
CUT
10
74.7519
20
18.91
0
VERTEX
8
CUT
10
71.2878
20
16.91
0
SEQEND
0
POLYLINE
8
CUT
66
1
70
0
0
VERTEX
8
CUT
10
69.5558
20
25.91
0
VERTEX
8
CUT
10
66.0917
20
23.91
0
VERTEX
8
CUT
10
66.0917
20
18.91
0
VERTEX
8
CUT
10
69.5558
20
16.91
0
SEQEND
0
POLYLINE
8
CUT
66
1
70
0
0
VERTEX
8
CUT
10
81.3481
20
25.91
0
VERTEX
8
CUT
10
84.8122
20
23.91
0
VERTEX
8
CUT
10
84.8122
20
18.91
0
VERTEX
8
CUT
10
81.3481
20
16.91
0
SEQEND
0
POLYLINE
8
CUT
66
1
70
0
0
VERTEX
8
CUT
10
79.616
20
25.91
0
VERTEX
8
CUT
10
76.1519
20
23.91
0
VERTEX
8
CUT
10
76.1519
20
18.91
0
VERTEX
8
CUT
10
79.616
20
16.91
0
SEQEND
0
POLYLINE
8
CUT
66
1
70
0
0
VERTEX
8
CUT
10
91.4083
20
25.91
0
VERTEX
8
CUT
10
94.8724
20
23.91
0
VERTEX
8
CUT
10
94.8724
20
18.91
0
VERTEX
8
CUT
10
91.4083
20
16.91
0
SEQEND
0
POLYLINE
8
CUT
66
1
70
0
0
VERTEX
8
CUT
10
89.6763
20
25.91
0
VERTEX
8
CUT
10
86.2122
20
23.91
0
VERTEX
8
CUT
10
86.2122
20
18.91
0
VERTEX
8
CUT
10
89.6763
20
16.91
0
SEQEND
0
POLYLINE
8
CUT
66
1
70
0
0
VERTEX
8
CUT
10
101.4686
20
25.91
0
VERTEX
8
CUT
10
104.9327
20
23.91
0
VERTEX
8
CUT
10
104.9327
20
18.91
0
VERTEX
8
CUT
10
101.4686
20
16.91
0
SEQEND
0
POLYLINE
8
CUT
66
1
70
0
0
VERTEX
8
CUT
10
99.7365
20
25.91
0
VERTEX
8
CUT
10
96.2724
20
23.91
0
VERTEX
8
CUT
10
96.2724
20
18.91
0
VERTEX
8
CUT
10
99.7365
20
16.91
0
SEQEND
0
POLYLINE
8
CUT
66
1
70
0
0
VERTEX
8
CUT
10
111.5288
20
25.91
0
VERTEX
8
CUT
10
114.9929
20
23.91
0
VERTEX
8
CUT
10
114.9929
20
18.91
0
VERTEX
8
CUT
10
111.5288
20
16.91
0
SEQEND
0
POLYLINE
8
CUT
66
1
70
0
0
VERTEX
8
CUT
10
109.7968
20
25.91
0
VERTEX
8
CUT
10
106.3327
20
23.91
0
VERTEX
8
CUT
10
106.3327
20
18.91
0
VERTEX
8
CUT
10
109.7968
20
16.91
0
SEQEND
0
POLYLINE
8
CUT
66
1
70
0
0
VERTEX
8
CUT
10
119.857
20
25.91
0
VERTEX
8
CUT
10
116.3929
20
23.91
0
VERTEX
8
CUT
10
116.3929
20
18.91
0
VERTEX
8
CUT
10
119.857
20
16.91
0
SEQEND
0
POLYLINE
8
CUT
66
1
70
0
0
VERTEX
8
CUT
10
5.8962
20
17.192
0
VERTEX
8
CUT
10
9.3603
20
15.192
0
VERTEX
8
CUT
10
9.3603
20
10.192
0
VERTEX
8
CUT
10
5.8962
20
8.192
0
SEQEND
0
POLYLINE
8
CUT
66
1
70
0
0
VERTEX
8
CUT
10
4.1641
20
17.192
0
VERTEX
8
CUT
10
0.7
20
15.192
0
VERTEX
8
CUT
10
0.7
20
10.192
0
VERTEX
8
CUT
10
4.1641
20
8.192
0
SEQEND
0
POLYLINE
8
CUT
66
1
70
0
0
VERTEX
8
CUT
10
15.9564
20
17.192
0
VERTEX
8
CUT
10
19.4205
20
15.192
0
VERTEX
8
CUT
10
19.4205
20
10.192
0
VERTEX
8
CUT
10
15.9564
20
8.192
0
SEQEND
0
POLYLINE
8
CUT
66
1
70
0
0
VERTEX
8
CUT
10
14.2244
20
17.192
0
VERTEX
8
CUT
10
10.7603
20
15.192
0
VERTEX
8
CUT
10
10.7603
20
10.192
0
VERTEX
8
CUT
10
14.2244
20
8.192
0
SEQEND
0
POLYLINE
8
CUT
66
1
70
0
0
VERTEX
8
CUT
10
26.0167
20
17.192
0
VERTEX
8
CUT
10
29.4808
20
15.192
0
VERTEX
8
CUT
10
29.4808
20
10.192
0
VERTEX
8
CUT
10
26.0167
20
8.192
0
SEQEND
0
POLYLINE
8
CUT
66
1
70
0
0
VERTEX
8
CUT
10
24.2846
20
17.192
0
VERTEX
8
CUT
10
20.8205
20
15.192
0
VERTEX
8
CUT
10
20.8205
20
10.192
0
VERTEX
8
CUT
10
24.2846
20
8.192
0
SEQEND
0
POLYLINE
8
CUT
66
1
70
0
0
VERTEX
8
CUT
10
36.0769
20
17.192
0
VERTEX
8
CUT
10
39.541
20
15.192
0
VERTEX
8
CUT
10
39.541
20
10.192
0
VERTEX
8
CUT
10
36.0769
20
8.192
0
SEQEND
0
POLYLINE
8
CUT
66
1
70
0
0
VERTEX
8
CUT
10
34.3449
20
17.192
0
VERTEX
8
CUT
10
30.8808
20
15.192
0
VERTEX
8
CUT
10
30.8808
20
10.192
0
VERTEX
8
CUT
10
34.3449
20
8.192
0
SEQEND
0
POLYLINE
8
CUT
66
1
70
0
0
VERTEX
8
CUT
10
46.1372
20
17.192
0
VERTEX
8
CUT
10
49.6013
20
15.192
0
VERTEX
8
CUT
10
49.6013
20
10.192
0
VERTEX
8
CUT
10
46.1372
20
8.192
0
SEQEND
0
POLYLINE
8
CUT
66
1
70
0
0
VERTEX
8
CUT
10
44.4051
20
17.192
0
VERTEX
8
CUT
10
40.941
20
15.192
0
VERTEX
8
CUT
10
40.941
20
10.192
0
VERTEX
8
CUT
10
44.4051
20
8.192
0
SEQEND
0
POLYLINE
8
CUT
66
1
70
0
0
VERTEX
8
CUT
10
56.1974
20
17.192
0
VERTEX
8
CUT
10
59.6615
20
15.192
0
VERTEX
8
CUT
10
59.6615
20
10.192
0
VERTEX
8
CUT
10
56.1974
20
8.192
0
SEQEND
0
POLYLINE
8
CUT
66
1
70
0
0
VERTEX
8
CUT
10
54.4654
20
17.192
0
VERTEX
8
CUT
10
51.0013
20
15.192
0
VERTEX
8
CUT
10
51.0013
20
10.192
0
VERTEX
8
CUT
10
54.4654
20
8.192
0
SEQEND
0
POLYLINE
8
CUT
66
1
70
0
0
VERTEX
8
CUT
10
66.2577
20
17.192
0
VERTEX
8
CUT
10
69.7218
20
15.192
0
VERTEX
8
CUT
10
69.7218
20
10.192
0
VERTEX
8
CUT
10
66.2577
20
8.192
0
SEQEND
0
POLYLINE
8
CUT
66
1
70
0
0
VERTEX
8
CUT
10
64.5256
20
17.192
0
VERTEX
8
CUT
10
61.0615
20
15.192
0
VERTEX
8
CUT
10
61.0615
20
10.192
0
VERTEX
8
CUT
10
64.5256
20
8.192
0
SEQEND
0
POLYLINE
8
CUT
66
1
70
0
0
VERTEX
8
CUT
10
76.3179
20
17.192
0
VERTEX
8
CUT
10
79.782
20
15.192
0
VERTEX
8
CUT
10
79.782
20
10.192
0
VERTEX
8
CUT
10
76.3179
20
8.192
0
SEQEND
0
POLYLINE
8
CUT
66
1
70
0
0
VERTEX
8
CUT
10
74.5859
20
17.192
0
VERTEX
8
CUT
10
71.1218
20
15.192
0
VERTEX
8
CUT
10
71.1218
20
10.192
0
VERTEX
8
CUT
10
74.5859
20
8.192
0
SEQEND
0
POLYLINE
8
CUT
66
1
70
0
0
VERTEX
8
CUT
10
86.3782
20
17.192
0
VERTEX
8
CUT
10
89.8423
20
15.192
0
VERTEX
8
CUT
10
89.8423
20
10.192
0
VERTEX
8
CUT
10
86.3782
20
8.192
0
SEQEND
0
POLYLINE
8
CUT
66
1
70
0
0
VERTEX
8
CUT
10
84.6461
20
17.192
0
VERTEX
8
CUT
10
81.182
20
15.192
0
VERTEX
8
CUT
10
81.182
20
10.192
0
VERTEX
8
CUT
10
84.6461
20
8.192
0
SEQEND
0
POLYLINE
8
CUT
66
1
70
0
0
VERTEX
8
CUT
10
96.4384
20
17.192
0
VERTEX
8
CUT
10
99.9025
20
15.192
0
VERTEX
8
CUT
10
99.9025
20
10.192
0
VERTEX
8
CUT
10
96.4384
20
8.192
0
SEQEND
0
POLYLINE
8
CUT
66
1
70
0
0
VERTEX
8
CUT
10
94.7064
20
17.192
0
VERTEX
8
CUT
10
91.2423
20
15.192
0
VERTEX
8
CUT
10
91.2423
20
10.192
0
VERTEX
8
CUT
10
94.7064
20
8.192
0
SEQEND
0
POLYLINE
8
CUT
66
1
70
0
0
VERTEX
8
CUT
10
106.4987
20
17.192
0
VERTEX
8
CUT
10
109.9628
20
15.192
0
VERTEX
8
CUT
10
109.9628
20
10.192
0
VERTEX
8
CUT
10
106.4987
20
8.192
0
SEQEND
0
POLYLINE
8
CUT
66
1
70
0
0
VERTEX
8
CUT
10
104.7666
20
17.192
0
VERTEX
8
CUT
10
101.3025
20
15.192
0
VERTEX
8
CUT
10
101.3025
20
10.192
0
VERTEX
8
CUT
10
104.7666
20
8.192
0
SEQEND
0
LINE
8
CUT
10
116.5589
20
17.192
11
120
21
15.2053
0
LINE
8
CUT
10
120
20
10.1787
11
116.5589
21
8.192
0
POLYLINE
8
CUT
66
1
70
0
0
VERTEX
8
CUT
10
114.8269
20
17.192
0
VERTEX
8
CUT
10
111.3628
20
15.192
0
VERTEX
8
CUT
10
111.3628
20
10.192
0
VERTEX
8
CUT
10
114.8269
20
8.192
0
SEQEND
0
POLYLINE
8
CUT
66
1
70
0
0
VERTEX
8
CUT
10
0.866
20
8.474
0
VERTEX
8
CUT
10
4.3301
20
6.474
0
VERTEX
8
CUT
10
4.3301
20
1.474
0
VERTEX
8
CUT
10
1.7771
20
0
0
SEQEND
0
POLYLINE
8
CUT
66
1
70
0
0
VERTEX
8
CUT
10
10.9263
20
8.474
0
VERTEX
8
CUT
10
14.3904
20
6.474
0
VERTEX
8
CUT
10
14.3904
20
1.474
0
VERTEX
8
CUT
10
11.8373
20
0
0
SEQEND
0
POLYLINE
8
CUT
66
1
70
0
0
VERTEX
8
CUT
10
9.1942
20
8.474
0
VERTEX
8
CUT
10
5.7301
20
6.474
0
VERTEX
8
CUT
10
5.7301
20
1.474
0
VERTEX
8
CUT
10
8.2832
20
0
0
SEQEND
0
POLYLINE
8
CUT
66
1
70
0
0
VERTEX
8
CUT
10
20.9865
20
8.474
0
VERTEX
8
CUT
10
24.4506
20
6.474
0
VERTEX
8
CUT
10
24.4506
20
1.474
0
VERTEX
8
CUT
10
21.8976
20
0
0
SEQEND
0
POLYLINE
8
CUT
66
1
70
0
0
VERTEX
8
CUT
10
19.2545
20
8.474
0
VERTEX
8
CUT
10
15.7904
20
6.474
0
VERTEX
8
CUT
10
15.7904
20
1.474
0
VERTEX
8
CUT
10
18.3434
20
0
0
SEQEND
0
POLYLINE
8
CUT
66
1
70
0
0
VERTEX
8
CUT
10
31.0468
20
8.474
0
VERTEX
8
CUT
10
34.5109
20
6.474
0
VERTEX
8
CUT
10
34.5109
20
1.474
0
VERTEX
8
CUT
10
31.9578
20
0
0
SEQEND
0
POLYLINE
8
CUT
66
1
70
0
0
VERTEX
8
CUT
10
29.3147
20
8.474
0
VERTEX
8
CUT
10
25.8506
20
6.474
0
VERTEX
8
CUT
10
25.8506
20
1.474
0
VERTEX
8
CUT
10
28.4037
20
0
0
SEQEND
0
POLYLINE
8
CUT
66
1
70
0
0
VERTEX
8
CUT
10
41.107
20
8.474
0
VERTEX
8
CUT
10
44.5711
20
6.474
0
VERTEX
8
CUT
10
44.5711
20
1.474
0
VERTEX
8
CUT
10
42.0181
20
0
0
SEQEND
0
POLYLINE
8
CUT
66
1
70
0
0
VERTEX
8
CUT
10
39.375
20
8.474
0
VERTEX
8
CUT
10
35.9109
20
6.474
0
VERTEX
8
CUT
10
35.9109
20
1.474
0
VERTEX
8
CUT
10
38.4639
20
0
0
SEQEND
0
POLYLINE
8
CUT
66
1
70
0
0
VERTEX
8
CUT
10
51.1673
20
8.474
0
VERTEX
8
CUT
10
54.6314
20
6.474
0
VERTEX
8
CUT
10
54.6314
20
1.474
0
VERTEX
8
CUT
10
52.0784
20
0
0
SEQEND
0
POLYLINE
8
CUT
66
1
70
0
0
VERTEX
8
CUT
10
49.4352
20
8.474
0
VERTEX
8
CUT
10
45.9711
20
6.474
0
VERTEX
8
CUT
10
45.9711
20
1.474
0
VERTEX
8
CUT
10
48.5242
20
0
0
SEQEND
0
POLYLINE
8
CUT
66
1
70
0
0
VERTEX
8
CUT
10
61.2275
20
8.474
0
VERTEX
8
CUT
10
64.6917
20
6.474
0
VERTEX
8
CUT
10
64.6917
20
1.474
0
VERTEX
8
CUT
10
62.1386
20
0
0
SEQEND
0
POLYLINE
8
CUT
66
1
70
0
0
VERTEX
8
CUT
10
59.4955
20
8.474
0
VERTEX
8
CUT
10
56.0314
20
6.474
0
VERTEX
8
CUT
10
56.0314
20
1.474
0
VERTEX
8
CUT
10
58.5844
20
0
0
SEQEND
0
POLYLINE
8
CUT
66
1
70
0
0
VERTEX
8
CUT
10
71.2878
20
8.474
0
VERTEX
8
CUT
10
74.7519
20
6.474
0
VERTEX
8
CUT
10
74.7519
20
1.474
0
VERTEX
8
CUT
10
72.1989
20
0
0
SEQEND
0
POLYLINE
8
CUT
66
1
70
0
0
VERTEX
8
CUT
10
69.5558
20
8.474
0
VERTEX
8
CUT
10
66.0917
20
6.474
0
VERTEX
8
CUT
10
66.0917
20
1.474
0
VERTEX
8
CUT
10
68.6447
20
0
0
SEQEND
0
POLYLINE
8
CUT
66
1
70
0
0
VERTEX
8
CUT
10
81.3481
20
8.474
0
VERTEX
8
CUT
10
84.8122
20
6.474
0
VERTEX
8
CUT
10
84.8122
20
1.474
0
VERTEX
8
CUT
10
82.2591
20
0
0
SEQEND
0
POLYLINE
8
CUT
66
1
70
0
0
VERTEX
8
CUT
10
79.616
20
8.474
0
VERTEX
8
CUT
10
76.1519
20
6.474
0
VERTEX
8
CUT
10
76.1519
20
1.474
0
VERTEX
8
CUT
10
78.7049
20
0
0
SEQEND
0
POLYLINE
8
CUT
66
1
70
0
0
VERTEX
8
CUT
10
91.4083
20
8.474
0
VERTEX
8
CUT
10
94.8724
20
6.474
0
VERTEX
8
CUT
10
94.8724
20
1.474
0
VERTEX
8
CUT
10
92.3194
20
0
0
SEQEND
0
POLYLINE
8
CUT
66
1
70
0
0
VERTEX
8
CUT
10
89.6763
20
8.474
0
VERTEX
8
CUT
10
86.2122
20
6.474
0
VERTEX
8
CUT
10
86.2122
20
1.474
0
VERTEX
8
CUT
10
88.7652
20
0
0
SEQEND
0
POLYLINE
8
CUT
66
1
70
0
0
VERTEX
8
CUT
10
101.4686
20
8.474
0
VERTEX
8
CUT
10
104.9327
20
6.474
0
VERTEX
8
CUT
10
104.9327
20
1.474
0
VERTEX
8
CUT
10
102.3796
20
0
0
SEQEND
0
POLYLINE
8
CUT
66
1
70
0
0
VERTEX
8
CUT
10
99.7365
20
8.474
0
VERTEX
8
CUT
10
96.2724
20
6.474
0
VERTEX
8
CUT
10
96.2724
20
1.474
0
VERTEX
8
CUT
10
98.8255
20
0
0
SEQEND
0
POLYLINE
8
CUT
66
1
70
0
0
VERTEX
8
CUT
10
111.5288
20
8.474
0
VERTEX
8
CUT
10
114.9929
20
6.474
0
VERTEX
8
CUT
10
114.9929
20
1.474
0
VERTEX
8
CUT
10
112.4399
20
0
0
SEQEND
0
POLYLINE
8
CUT
66
1
70
0
0
VERTEX
8
CUT
10
109.7968
20
8.474
0
VERTEX
8
CUT
10
106.3327
20
6.474
0
VERTEX
8
CUT
10
106.3327
20
1.474
0
VERTEX
8
CUT
10
108.8857
20
0
0
SEQEND
0
POLYLINE
8
CUT
66
1
70
0
0
VERTEX
8
CUT
10
119.857
20
8.474
0
VERTEX
8
CUT
10
116.3929
20
6.474
0
VERTEX
8
CUT
10
116.3929
20
1.474
0
VERTEX
8
CUT
10
118.946
20
0
0
SEQEND
0
POLYLINE
8
CUT
66
1
70
0
0
VERTEX
8
CUT
10
0
20
70
0
VERTEX
8
CUT
10
120
20
70
0
VERTEX
8
CUT
10
120
20
0
0
VERTEX
8
CUT
10
0
20
0
0
VERTEX
8
CUT
10
0
20
70
0
SEQEND
0
ENDSEC
0
EOF
