0
SECTION
2
HEADER
9
$ACADVER
1
AC1009
9
$INSUNITS
70
4
0
ENDSEC
0
SECTION
2
TABLES
0
TABLE
2
LAYER
70
1
0
LAYER
2
CUT
70
0
62
1
6
CONTINUOUS
0
ENDTAB
0
ENDSEC
0
SECTION
2
ENTITIES
0
POLYLINE
8
CUT
66
1
70
0
0
VERTEX
8
CUT
10
0.8682
20
68.8961
0
VERTEX
8
CUT
10
2.8
20
70
0
VERTEX
8
CUT
10
11.2
20
70
0
VERTEX
8
CUT
10
13.1318
20
68.8961
0
SEQEND
0
POLYLINE
8
CUT
66
1
70
0
0
VERTEX
8
CUT
10
0.8682
20
67.9039
0
VERTEX
8
CUT
10
2.8
20
66.8
0
VERTEX
8
CUT
10
11.2
20
66.8
0
VERTEX
8
CUT
10
13.1318
20
67.9039
0
SEQEND
0
POLYLINE
8
CUT
66
1
70
0
0
VERTEX
8
CUT
10
14.8682
20
68.8961
0
VERTEX
8
CUT
10
16.8
20
70
0
VERTEX
8
CUT
10
25.2
20
70
0
VERTEX
8
CUT
10
27.1318
20
68.8961
0
SEQEND
0
POLYLINE
8
CUT
66
1
70
0
0
VERTEX
8
CUT
10
14.8682
20
67.9039
0
VERTEX
8
CUT
10
16.8
20
66.8
0
VERTEX
8
CUT
10
25.2
20
66.8
0
VERTEX
8
CUT
10
27.1318
20
67.9039
0
SEQEND
0
POLYLINE
8
CUT
66
1
70
0
0
VERTEX
8
CUT
10
28.8682
20
68.8961
0
VERTEX
8
CUT
10
30.8
20
70
0
VERTEX
8
CUT
10
39.2
20
70
0
VERTEX
8
CUT
10
41.1318
20
68.8961
0
SEQEND
0
POLYLINE
8
CUT
66
1
70
0
0
VERTEX
8
CUT
10
28.8682
20
67.9039
0
VERTEX
8
CUT
10
30.8
20
66.8
0
VERTEX
8
CUT
10
39.2
20
66.8
0
VERTEX
8
CUT
10
41.1318
20
67.9039
0
SEQEND
0
POLYLINE
8
CUT
66
1
70
0
0
VERTEX
8
CUT
10
42.8682
20
68.8961
0
VERTEX
8
CUT
10
44.8
20
70
0
VERTEX
8
CUT
10
53.2
20
70
0
VERTEX
8
CUT
10
55.1318
20
68.8961
0
SEQEND
0
POLYLINE
8
CUT
66
1
70
0
0
VERTEX
8
CUT
10
42.8682
20
67.9039
0
VERTEX
8
CUT
10
44.8
20
66.8
0
VERTEX
8
CUT
10
53.2
20
66.8
0
VERTEX
8
CUT
10
55.1318
20
67.9039
0
SEQEND
0
POLYLINE
8
CUT
66
1
70
0
0
VERTEX
8
CUT
10
56.8682
20
68.8961
0
VERTEX
8
CUT
10
58.8
20
70
0
VERTEX
8
CUT
10
67.2
20
70
0
VERTEX
8
CUT
10
69.1318
20
68.8961
0
SEQEND
0
POLYLINE
8
CUT
66
1
70
0
0
VERTEX
8
CUT
10
56.8682
20
67.9039
0
VERTEX
8
CUT
10
58.8
20
66.8
0
VERTEX
8
CUT
10
67.2
20
66.8
0
VERTEX
8
CUT
10
69.1318
20
67.9039
0
SEQEND
0
POLYLINE
8
CUT
66
1
70
0
0
VERTEX
8
CUT
10
70.8682
20
68.8961
0
VERTEX
8
CUT
10
72.8
20
70
0
VERTEX
8
CUT
10
81.2
20
70
0
VERTEX
8
CUT
10
83.1318
20
68.8961
0
SEQEND
0
POLYLINE
8
CUT
66
1
70
0
0
VERTEX
8
CUT
10
70.8682
20
67.9039
0
VERTEX
8
CUT
10
72.8
20
66.8
0
VERTEX
8
CUT
10
81.2
20
66.8
0
VERTEX
8
CUT
10
83.1318
20
67.9039
0
SEQEND
0
POLYLINE
8
CUT
66
1
70
0
0
VERTEX
8
CUT
10
84.8682
20
68.8961
0
VERTEX
8
CUT
10
86.8
20
70
0
VERTEX
8
CUT
10
95.2
20
70
0
VERTEX
8
CUT
10
97.1318
20
68.8961
0
SEQEND
0
POLYLINE
8
CUT
66
1
70
0
0
VERTEX
8
CUT
10
84.8682
20
67.9039
0
VERTEX
8
CUT
10
86.8
20
66.8
0
VERTEX
8
CUT
10
95.2
20
66.8
0
VERTEX
8
CUT
10
97.1318
20
67.9039
0
SEQEND
0
POLYLINE
8
CUT
66
1
70
0
0
VERTEX
8
CUT
10
98.8682
20
68.8961
0
VERTEX
8
CUT
10
100.8
20
70
0
VERTEX
8
CUT
10
109.2
20
70
0
VERTEX
8
CUT
10
111.1318
20
68.8961
0
SEQEND
0
POLYLINE
8
CUT
66
1
70
0
0
VERTEX
8
CUT
10
98.8682
20
67.9039
0
VERTEX
8
CUT
10
100.8
20
66.8
0
VERTEX
8
CUT
10
109.2
20
66.8
0
VERTEX
8
CUT
10
111.1318
20
67.9039
0
SEQEND
0
POLYLINE
8
CUT
66
1
70
0
0
VERTEX
8
CUT
10
112.8682
20
68.8961
0
VERTEX
8
CUT
10
114.8
20
70
0
VERTEX
8
CUT
10
120
20
70
0
SEQEND
0
POLYLINE
8
CUT
66
1
70
0
0
VERTEX
8
CUT
10
112.8682
20
67.9039
0
VERTEX
8
CUT
10
114.8
20
66.8
0
VERTEX
8
CUT
10
120
20
66.8
0
SEQEND
0
POLYLINE
8
CUT
66
1
70
0
0
VERTEX
8
CUT
10
0
20
65.5
0
VERTEX
8
CUT
10
4.2
20
65.5
0
VERTEX
8
CUT
10
6.1318
20
64.3961
0
SEQEND
0
POLYLINE
8
CUT
66
1
70
0
0
VERTEX
8
CUT
10
0
20
62.3
0
VERTEX
8
CUT
10
4.2
20
62.3
0
VERTEX
8
CUT
10
6.1318
20
63.4039
0
SEQEND
0
POLYLINE
8
CUT
66
1
70
0
0
VERTEX
8
CUT
10
7.8682
20
64.3961
0
VERTEX
8
CUT
10
9.8
20
65.5
0
VERTEX
8
CUT
10
18.2
20
65.5
0
VERTEX
8
CUT
10
20.1318
20
64.3961
0
SEQEND
0
POLYLINE
8
CUT
66
1
70
0
0
VERTEX
8
CUT
10
7.8682
20
63.4039
0
VERTEX
8
CUT
10
9.8
20
62.3
0
VERTEX
8
CUT
10
18.2
20
62.3
0
VERTEX
8
CUT
10
20.1318
20
63.4039
0
SEQEND
0
POLYLINE
8
CUT
66
1
70
0
0
VERTEX
8
CUT
10
21.8682
20
64.3961
0
VERTEX
8
CUT
10
23.8
20
65.5
0
VERTEX
8
CUT
10
32.2
20
65.5
0
VERTEX
8
CUT
10
34.1318
20
64.3961
0
SEQEND
0
POLYLINE
8
CUT
66
1
70
0
0
VERTEX
8
CUT
10
21.8682
20
63.4039
0
VERTEX
8
CUT
10
23.8
20
62.3
0
VERTEX
8
CUT
10
32.2
20
62.3
0
VERTEX
8
CUT
10
34.1318
20
63.4039
0
SEQEND
0
POLYLINE
8
CUT
66
1
70
0
0
VERTEX
8
CUT
10
35.8682
20
64.3961
0
VERTEX
8
CUT
10
37.8
20
65.5
0
VERTEX
8
CUT
10
46.2
20
65.5
0
VERTEX
8
CUT
10
48.1318
20
64.3961
0
SEQEND
0
POLYLINE
8
CUT
66
1
70
0
0
VERTEX
8
CUT
10
35.8682
20
63.4039
0
VERTEX
8
CUT
10
37.8
20
62.3
0
VERTEX
8
CUT
10
46.2
20
62.3
0
VERTEX
8
CUT
10
48.1318
20
63.4039
0
SEQEND
0
POLYLINE
8
CUT
66
1
70
0
0
VERTEX
8
CUT
10
49.8682
20
64.3961
0
VERTEX
8
CUT
10
51.8
20
65.5
0
VERTEX
8
CUT
10
60.2
20
65.5
0
VERTEX
8
CUT
10
62.1318
20
64.3961
0
SEQEND
0
POLYLINE
8
CUT
66
1
70
0
0
VERTEX
8
CUT
10
49.8682
20
63.4039
0
VERTEX
8
CUT
10
51.8
20
62.3
0
VERTEX
8
CUT
10
60.2
20
62.3
0
VERTEX
8
CUT
10
62.1318
20
63.4039
0
SEQEND
0
POLYLINE
8
CUT
66
1
70
0
0
VERTEX
8
CUT
10
63.8682
20
64.3961
0
VERTEX
8
CUT
10
65.8
20
65.5
0
VERTEX
8
CUT
10
74.2
20
65.5
0
VERTEX
8
CUT
10
76.1318
20
64.3961
0
SEQEND
0
POLYLINE
8
CUT
66
1
70
0
0
VERTEX
8
CUT
10
63.8682
20
63.4039
0
VERTEX
8
CUT
10
65.8
20
62.3
0
VERTEX
8
CUT
10
74.2
20
62.3
0
VERTEX
8
CUT
10
76.1318
20
63.4039
0
SEQEND
0
POLYLINE
8
CUT
66
1
70
0
0
VERTEX
8
CUT
10
77.8682
20
64.3961
0
VERTEX
8
CUT
10
79.8
20
65.5
0
VERTEX
8
CUT
10
88.2
20
65.5
0
VERTEX
8
CUT
10
90.1318
20
64.3961
0
SEQEND
0
POLYLINE
8
CUT
66
1
70
0
0
VERTEX
8
CUT
10
77.8682
20
63.4039
0
VERTEX
8
CUT
10
79.8
20
62.3
0
VERTEX
8
CUT
10
88.2
20
62.3
0
VERTEX
8
CUT
10
90.1318
20
63.4039
0
SEQEND
0
POLYLINE
8
CUT
66
1
70
0
0
VERTEX
8
CUT
10
91.8682
20
64.3961
0
VERTEX
8
CUT
10
93.8
20
65.5
0
VERTEX
8
CUT
10
102.2
20
65.5
0
VERTEX
8
CUT
10
104.1318
20
64.3961
0
SEQEND
0
POLYLINE
8
CUT
66
1
70
0
0
VERTEX
8
CUT
10
91.8682
20
63.4039
0
VERTEX
8
CUT
10
93.8
20
62.3
0
VERTEX
8
CUT
10
102.2
20
62.3
0
VERTEX
8
CUT
10
104.1318
20
63.4039
0
SEQEND
0
POLYLINE
8
CUT
66
1
70
0
0
VERTEX
8
CUT
10
105.8682
20
64.3961
0
VERTEX
8
CUT
10
107.8
20
65.5
0
VERTEX
8
CUT
10
116.2
20
65.5
0
VERTEX
8
CUT
10
118.1318
20
64.3961
0
SEQEND
0
POLYLINE
8
CUT
66
1
70
0
0
VERTEX
8
CUT
10
105.8682
20
63.4039
0
VERTEX
8
CUT
10
107.8
20
62.3
0
VERTEX
8
CUT
10
116.2
20
62.3
0
VERTEX
8
CUT
10
118.1318
20
63.4039
0
SEQEND
0
POLYLINE
8
CUT
66
1
70
0
0
VERTEX
8
CUT
10
0.8682
20
59.8961
0
VERTEX
8
CUT
10
2.8
20
61
0
VERTEX
8
CUT
10
11.2
20
61
0
VERTEX
8
CUT
10
13.1318
20
59.8961
0
SEQEND
0
POLYLINE
8
CUT
66
1
70
0
0
VERTEX
8
CUT
10
0.8682
20
58.9039
0
VERTEX
8
CUT
10
2.8
20
57.8
0
VERTEX
8
CUT
10
11.2
20
57.8
0
VERTEX
8
CUT
10
13.1318
20
58.9039
0
SEQEND
0
POLYLINE
8
CUT
66
1
70
0
0
VERTEX
8
CUT
10
14.8682
20
59.8961
0
VERTEX
8
CUT
10
16.8
20
61
0
VERTEX
8
CUT
10
25.2
20
61
0
VERTEX
8
CUT
10
27.1318
20
59.8961
0
SEQEND
0
POLYLINE
8
CUT
66
1
70
0
0
VERTEX
8
CUT
10
14.8682
20
58.9039
0
VERTEX
8
CUT
10
16.8
20
57.8
0
VERTEX
8
CUT
10
25.2
20
57.8
0
VERTEX
8
CUT
10
27.1318
20
58.9039
0
SEQEND
0
POLYLINE
8
CUT
66
1
70
0
0
VERTEX
8
CUT
10
28.8682
20
59.8961
0
VERTEX
8
CUT
10
30.8
20
61
0
VERTEX
8
CUT
10
39.2
20
61
0
VERTEX
8
CUT
10
41.1318
20
59.8961
0
SEQEND
0
POLYLINE
8
CUT
66
1
70
0
0
VERTEX
8
CUT
10
28.8682
20
58.9039
0
VERTEX
8
CUT
10
30.8
20
57.8
0
VERTEX
8
CUT
10
39.2
20
57.8
0
VERTEX
8
CUT
10
41.1318
20
58.9039
0
SEQEND
0
POLYLINE
8
CUT
66
1
70
0
0
VERTEX
8
CUT
10
42.8682
20
59.8961
0
VERTEX
8
CUT
10
44.8
20
61
0
VERTEX
8
CUT
10
53.2
20
61
0
VERTEX
8
CUT
10
55.1318
20
59.8961
0
SEQEND
0
POLYLINE
8
CUT
66
1
70
0
0
VERTEX
8
CUT
10
42.8682
20
58.9039
0
VERTEX
8
CUT
10
44.8
20
57.8
0
VERTEX
8
CUT
10
53.2
20
57.8
0
VERTEX
8
CUT
10
55.1318
20
58.9039
0
SEQEND
0
POLYLINE
8
CUT
66
1
70
0
0
VERTEX
8
CUT
10
56.8682
20
59.8961
0
VERTEX
8
CUT
10
58.8
20
61
0
VERTEX
8
CUT
10
67.2
20
61
0
VERTEX
8
CUT
10
69.1318
20
59.8961
0
SEQEND
0
POLYLINE
8
CUT
66
1
70
0
0
VERTEX
8
CUT
10
56.8682
20
58.9039
0
VERTEX
8
CUT
10
58.8
20
57.8
0
VERTEX
8
CUT
10
67.2
20
57.8
0
VERTEX
8
CUT
10
69.1318
20
58.9039
0
SEQEND
0
POLYLINE
8
CUT
66
1
70
0
0
VERTEX
8
CUT
10
70.8682
20
59.8961
0
VERTEX
8
CUT
10
72.8
20
61
0
VERTEX
8
CUT
10
81.2
20
61
0
VERTEX
8
CUT
10
83.1318
20
59.8961
0
SEQEND
0
POLYLINE
8
CUT
66
1
70
0
0
VERTEX
8
CUT
10
70.8682
20
58.9039
0
VERTEX
8
CUT
10
72.8
20
57.8
0
VERTEX
8
CUT
10
81.2
20
57.8
0
VERTEX
8
CUT
10
83.1318
20
58.9039
0
SEQEND
0
POLYLINE
8
CUT
66
1
70
0
0
VERTEX
8
CUT
10
84.8682
20
59.8961
0
VERTEX
8
CUT
10
86.8
20
61
0
VERTEX
8
CUT
10
95.2
20
61
0
VERTEX
8
CUT
10
97.1318
20
59.8961
0
SEQEND
0
POLYLINE
8
CUT
66
1
70
0
0
VERTEX
8
CUT
10
84.8682
20
58.9039
0
VERTEX
8
CUT
10
86.8
20
57.8
0
VERTEX
8
CUT
10
95.2
20
57.8
0
VERTEX
8
CUT
10
97.1318
20
58.9039
0
SEQEND
0
POLYLINE
8
CUT
66
1
70
0
0
VERTEX
8
CUT
10
98.8682
20
59.8961
0
VERTEX
8
CUT
10
100.8
20
61
0
VERTEX
8
CUT
10
109.2
20
61
0
VERTEX
8
CUT
10
111.1318
20
59.8961
0
SEQEND
0
POLYLINE
8
CUT
66
1
70
0
0
VERTEX
8
CUT
10
98.8682
20
58.9039
0
VERTEX
8
CUT
10
100.8
20
57.8
0
VERTEX
8
CUT
10
109.2
20
57.8
0
VERTEX
8
CUT
10
111.1318
20
58.9039
0
SEQEND
0
POLYLINE
8
CUT
66
1
70
0
0
VERTEX
8
CUT
10
112.8682
20
59.8961
0
VERTEX
8
CUT
10
114.8
20
61
0
VERTEX
8
CUT
10
120
20
61
0
SEQEND
0
POLYLINE
8
CUT
66
1
70
0
0
VERTEX
8
CUT
10
112.8682
20
58.9039
0
VERTEX
8
CUT
10
114.8
20
57.8
0
VERTEX
8
CUT
10
120
20
57.8
0
SEQEND
0
POLYLINE
8
CUT
66
1
70
0
0
VERTEX
8
CUT
10
0
20
56.5
0
VERTEX
8
CUT
10
4.2
20
56.5
0
VERTEX
8
CUT
10
6.1318
20
55.3961
0
SEQEND
0
POLYLINE
8
CUT
66
1
70
0
0
VERTEX
8
CUT
10
0
20
53.3
0
VERTEX
8
CUT
10
4.2
20
53.3
0
VERTEX
8
CUT
10
6.1318
20
54.4039
0
SEQEND
0
POLYLINE
8
CUT
66
1
70
0
0
VERTEX
8
CUT
10
7.8682
20
55.3961
0
VERTEX
8
CUT
10
9.8
20
56.5
0
VERTEX
8
CUT
10
18.2
20
56.5
0
VERTEX
8
CUT
10
20.1318
20
55.3961
0
SEQEND
0
POLYLINE
8
CUT
66
1
70
0
0
VERTEX
8
CUT
10
7.8682
20
54.4039
0
VERTEX
8
CUT
10
9.8
20
53.3
0
VERTEX
8
CUT
10
18.2
20
53.3
0
VERTEX
8
CUT
10
20.1318
20
54.4039
0
SEQEND
0
POLYLINE
8
CUT
66
1
70
0
0
VERTEX
8
CUT
10
21.8682
20
55.3961
0
VERTEX
8
CUT
10
23.8
20
56.5
0
VERTEX
8
CUT
10
32.2
20
56.5
0
VERTEX
8
CUT
10
34.1318
20
55.3961
0
SEQEND
0
POLYLINE
8
CUT
66
1
70
0
0
VERTEX
8
CUT
10
21.8682
20
54.4039
0
VERTEX
8
CUT
10
23.8
20
53.3
0
VERTEX
8
CUT
10
32.2
20
53.3
0
VERTEX
8
CUT
10
34.1318
20
54.4039
0
SEQEND
0
POLYLINE
8
CUT
66
1
70
0
0
VERTEX
8
CUT
10
35.8682
20
55.3961
0
VERTEX
8
CUT
10
37.8
20
56.5
0
VERTEX
8
CUT
10
46.2
20
56.5
0
VERTEX
8
CUT
10
48.1318
20
55.3961
0
SEQEND
0
POLYLINE
8
CUT
66
1
70
0
0
VERTEX
8
CUT
10
35.8682
20
54.4039
0
VERTEX
8
CUT
10
37.8
20
53.3
0
VERTEX
8
CUT
10
46.2
20
53.3
0
VERTEX
8
CUT
10
48.1318
20
54.4039
0
SEQEND
0
POLYLINE
8
CUT
66
1
70
0
0
VERTEX
8
CUT
10
49.8682
20
55.3961
0
VERTEX
8
CUT
10
51.8
20
56.5
0
VERTEX
8
CUT
10
60.2
20
56.5
0
VERTEX
8
CUT
10
62.1318
20
55.3961
0
SEQEND
0
POLYLINE
8
CUT
66
1
70
0
0
VERTEX
8
CUT
10
49.8682
20
54.4039
0
VERTEX
8
CUT
10
51.8
20
53.3
0
VERTEX
8
CUT
10
60.2
20
53.3
0
VERTEX
8
CUT
10
62.1318
20
54.4039
0
SEQEND
0
POLYLINE
8
CUT
66
1
70
0
0
VERTEX
8
CUT
10
63.8682
20
55.3961
0
VERTEX
8
CUT
10
65.8
20
56.5
0
VERTEX
8
CUT
10
74.2
20
56.5
0
VERTEX
8
CUT
10
76.1318
20
55.3961
0
SEQEND
0
POLYLINE
8
CUT
66
1
70
0
0
VERTEX
8
CUT
10
63.8682
20
54.4039
0
VERTEX
8
CUT
10
65.8
20
53.3
0
VERTEX
8
CUT
10
74.2
20
53.3
0
VERTEX
8
CUT
10
76.1318
20
54.4039
0
SEQEND
0
POLYLINE
8
CUT
66
1
70
0
0
VERTEX
8
CUT
10
77.8682
20
55.3961
0
VERTEX
8
CUT
10
79.8
20
56.5
0
VERTEX
8
CUT
10
88.2
20
56.5
0
VERTEX
8
CUT
10
90.1318
20
55.3961
0
SEQEND
0
POLYLINE
8
CUT
66
1
70
0
0
VERTEX
8
CUT
10
77.8682
20
54.4039
0
VERTEX
8
CUT
10
79.8
20
53.3
0
VERTEX
8
CUT
10
88.2
20
53.3
0
VERTEX
8
CUT
10
90.1318
20
54.4039
0
SEQEND
0
POLYLINE
8
CUT
66
1
70
0
0
VERTEX
8
CUT
10
91.8682
20
55.3961
0
VERTEX
8
CUT
10
93.8
20
56.5
0
VERTEX
8
CUT
10
102.2
20
56.5
0
VERTEX
8
CUT
10
104.1318
20
55.3961
0
SEQEND
0
POLYLINE
8
CUT
66
1
70
0
0
VERTEX
8
CUT
10
91.8682
20
54.4039
0
VERTEX
8
CUT
10
93.8
20
53.3
0
VERTEX
8
CUT
10
102.2
20
53.3
0
VERTEX
8
CUT
10
104.1318
20
54.4039
0
SEQEND
0
POLYLINE
8
CUT
66
1
70
0
0
VERTEX
8
CUT
10
105.8682
20
55.3961
0
VERTEX
8
CUT
10
107.8
20
56.5
0
VERTEX
8
CUT
10
116.2
20
56.5
0
VERTEX
8
CUT
10
118.1318
20
55.3961
0
SEQEND
0
POLYLINE
8
CUT
66
1
70
0
0
VERTEX
8
CUT
10
105.8682
20
54.4039
0
VERTEX
8
CUT
10
107.8
20
53.3
0
VERTEX
8
CUT
10
116.2
20
53.3
0
VERTEX
8
CUT
10
118.1318
20
54.4039
0
SEQEND
0
POLYLINE
8
CUT
66
1
70
0
0
VERTEX
8
CUT
10
0.8682
20
50.8961
0
VERTEX
8
CUT
10
2.8
20
52
0
VERTEX
8
CUT
10
11.2
20
52
0
VERTEX
8
CUT
10
13.1318
20
50.8961
0
SEQEND
0
POLYLINE
8
CUT
66
1
70
0
0
VERTEX
8
CUT
10
0.8682
20
49.9039
0
VERTEX
8
CUT
10
2.8
20
48.8
0
VERTEX
8
CUT
10
11.2
20
48.8
0
VERTEX
8
CUT
10
13.1318
20
49.9039
0
SEQEND
0
POLYLINE
8
CUT
66
1
70
0
0
VERTEX
8
CUT
10
14.8682
20
50.8961
0
VERTEX
8
CUT
10
16.8
20
52
0
VERTEX
8
CUT
10
25.2
20
52
0
VERTEX
8
CUT
10
27.1318
20
50.8961
0
SEQEND
0
POLYLINE
8
CUT
66
1
70
0
0
VERTEX
8
CUT
10
14.8682
20
49.9039
0
VERTEX
8
CUT
10
16.8
20
48.8
0
VERTEX
8
CUT
10
25.2
20
48.8
0
VERTEX
8
CUT
10
27.1318
20
49.9039
0
SEQEND
0
POLYLINE
8
CUT
66
1
70
0
0
VERTEX
8
CUT
10
28.8682
20
50.8961
0
VERTEX
8
CUT
10
30.8
20
52
0
VERTEX
8
CUT
10
39.2
20
52
0
VERTEX
8
CUT
10
41.1318
20
50.8961
0
SEQEND
0
POLYLINE
8
CUT
66
1
70
0
0
VERTEX
8
CUT
10
28.8682
20
49.9039
0
VERTEX
8
CUT
10
30.8
20
48.8
0
VERTEX
8
CUT
10
39.2
20
48.8
0
VERTEX
8
CUT
10
41.1318
20
49.9039
0
SEQEND
0
POLYLINE
8
CUT
66
1
70
0
0
VERTEX
8
CUT
10
42.8682
20
50.8961
0
VERTEX
8
CUT
10
44.8
20
52
0
VERTEX
8
CUT
10
53.2
20
52
0
VERTEX
8
CUT
10
55.1318
20
50.8961
0
SEQEND
0
POLYLINE
8
CUT
66
1
70
0
0
VERTEX
8
CUT
10
42.8682
20
49.9039
0
VERTEX
8
CUT
10
44.8
20
48.8
0
VERTEX
8
CUT
10
53.2
20
48.8
0
VERTEX
8
CUT
10
55.1318
20
49.9039
0
SEQEND
0
POLYLINE
8
CUT
66
1
70
0
0
VERTEX
8
CUT
10
56.8682
20
50.8961
0
VERTEX
8
CUT
10
58.8
20
52
0
VERTEX
8
CUT
10
67.2
20
52
0
VERTEX
8
CUT
10
69.1318
20
50.8961
0
SEQEND
0
POLYLINE
8
CUT
66
1
70
0
0
VERTEX
8
CUT
10
56.8682
20
49.9039
0
VERTEX
8
CUT
10
58.8
20
48.8
0
VERTEX
8
CUT
10
67.2
20
48.8
0
VERTEX
8
CUT
10
69.1318
20
49.9039
0
SEQEND
0
POLYLINE
8
CUT
66
1
70
0
0
VERTEX
8
CUT
10
70.8682
20
50.8961
0
VERTEX
8
CUT
10
72.8
20
52
0
VERTEX
8
CUT
10
81.2
20
52
0
VERTEX
8
CUT
10
83.1318
20
50.8961
0
SEQEND
0
POLYLINE
8
CUT
66
1
70
0
0
VERTEX
8
CUT
10
70.8682
20
49.9039
0
VERTEX
8
CUT
10
72.8
20
48.8
0
VERTEX
8
CUT
10
81.2
20
48.8
0
VERTEX
8
CUT
10
83.1318
20
49.9039
0
SEQEND
0
POLYLINE
8
CUT
66
1
70
0
0
VERTEX
8
CUT
10
84.8682
20
50.8961
0
VERTEX
8
CUT
10
86.8
20
52
0
VERTEX
8
CUT
10
95.2
20
52
0
VERTEX
8
CUT
10
97.1318
20
50.8961
0
SEQEND
0
POLYLINE
8
CUT
66
1
70
0
0
VERTEX
8
CUT
10
84.8682
20
49.9039
0
VERTEX
8
CUT
10
86.8
20
48.8
0
VERTEX
8
CUT
10
95.2
20
48.8
0
VERTEX
8
CUT
10
97.1318
20
49.9039
0
SEQEND
0
POLYLINE
8
CUT
66
1
70
0
0
VERTEX
8
CUT
10
98.8682
20
50.8961
0
VERTEX
8
CUT
10
100.8
20
52
0
VERTEX
8
CUT
10
109.2
20
52
0
VERTEX
8
CUT
10
111.1318
20
50.8961
0
SEQEND
0
POLYLINE
8
CUT
66
1
70
0
0
VERTEX
8
CUT
10
98.8682
20
49.9039
0
VERTEX
8
CUT
10
100.8
20
48.8
0
VERTEX
8
CUT
10
109.2
20
48.8
0
VERTEX
8
CUT
10
111.1318
20
49.9039
0
SEQEND
0
POLYLINE
8
CUT
66
1
70
0
0
VERTEX
8
CUT
10
112.8682
20
50.8961
0
VERTEX
8
CUT
10
114.8
20
52
0
VERTEX
8
CUT
10
120
20
52
0
SEQEND
0
POLYLINE
8
CUT
66
1
70
0
0
VERTEX
8
CUT
10
112.8682
20
49.9039
0
VERTEX
8
CUT
10
114.8
20
48.8
0
VERTEX
8
CUT
10
120
20
48.8
0
SEQEND
0
POLYLINE
8
CUT
66
1
70
0
0
VERTEX
8
CUT
10
0
20
47.5
0
VERTEX
8
CUT
10
4.2
20
47.5
0
VERTEX
8
CUT
10
6.1318
20
46.3961
0
SEQEND
0
POLYLINE
8
CUT
66
1
70
0
0
VERTEX
8
CUT
10
0
20
44.3
0
VERTEX
8
CUT
10
4.2
20
44.3
0
VERTEX
8
CUT
10
6.1318
20
45.4039
0
SEQEND
0
POLYLINE
8
CUT
66
1
70
0
0
VERTEX
8
CUT
10
7.8682
20
46.3961
0
VERTEX
8
CUT
10
9.8
20
47.5
0
VERTEX
8
CUT
10
18.2
20
47.5
0
VERTEX
8
CUT
10
20.1318
20
46.3961
0
SEQEND
0
POLYLINE
8
CUT
66
1
70
0
0
VERTEX
8
CUT
10
7.8682
20
45.4039
0
VERTEX
8
CUT
10
9.8
20
44.3
0
VERTEX
8
CUT
10
18.2
20
44.3
0
VERTEX
8
CUT
10
20.1318
20
45.4039
0
SEQEND
0
POLYLINE
8
CUT
66
1
70
0
0
VERTEX
8
CUT
10
21.8682
20
46.3961
0
VERTEX
8
CUT
10
23.8
20
47.5
0
VERTEX
8
CUT
10
32.2
20
47.5
0
VERTEX
8
CUT
10
34.1318
20
46.3961
0
SEQEND
0
POLYLINE
8
CUT
66
1
70
0
0
VERTEX
8
CUT
10
21.8682
20
45.4039
0
VERTEX
8
CUT
10
23.8
20
44.3
0
VERTEX
8
CUT
10
32.2
20
44.3
0
VERTEX
8
CUT
10
34.1318
20
45.4039
0
SEQEND
0
POLYLINE
8
CUT
66
1
70
0
0
VERTEX
8
CUT
10
35.8682
20
46.3961
0
VERTEX
8
CUT
10
37.8
20
47.5
0
VERTEX
8
CUT
10
46.2
20
47.5
0
VERTEX
8
CUT
10
48.1318
20
46.3961
0
SEQEND
0
POLYLINE
8
CUT
66
1
70
0
0
VERTEX
8
CUT
10
35.8682
20
45.4039
0
VERTEX
8
CUT
10
37.8
20
44.3
0
VERTEX
8
CUT
10
46.2
20
44.3
0
VERTEX
8
CUT
10
48.1318
20
45.4039
0
SEQEND
0
POLYLINE
8
CUT
66
1
70
0
0
VERTEX
8
CUT
10
49.8682
20
46.3961
0
VERTEX
8
CUT
10
51.8
20
47.5
0
VERTEX
8
CUT
10
60.2
20
47.5
0
VERTEX
8
CUT
10
62.1318
20
46.3961
0
SEQEND
0
POLYLINE
8
CUT
66
1
70
0
0
VERTEX
8
CUT
10
49.8682
20
45.4039
0
VERTEX
8
CUT
10
51.8
20
44.3
0
VERTEX
8
CUT
10
60.2
20
44.3
0
VERTEX
8
CUT
10
62.1318
20
45.4039
0
SEQEND
0
POLYLINE
8
CUT
66
1
70
0
0
VERTEX
8
CUT
10
63.8682
20
46.3961
0
VERTEX
8
CUT
10
65.8
20
47.5
0
VERTEX
8
CUT
10
74.2
20
47.5
0
VERTEX
8
CUT
10
76.1318
20
46.3961
0
SEQEND
0
POLYLINE
8
CUT
66
1
70
0
0
VERTEX
8
CUT
10
63.8682
20
45.4039
0
VERTEX
8
CUT
10
65.8
20
44.3
0
VERTEX
8
CUT
10
74.2
20
44.3
0
VERTEX
8
CUT
10
76.1318
20
45.4039
0
SEQEND
0
POLYLINE
8
CUT
66
1
70
0
0
VERTEX
8
CUT
10
77.8682
20
46.3961
0
VERTEX
8
CUT
10
79.8
20
47.5
0
VERTEX
8
CUT
10
88.2
20
47.5
0
VERTEX
8
CUT
10
90.1318
20
46.3961
0
SEQEND
0
POLYLINE
8
CUT
66
1
70
0
0
VERTEX
8
CUT
10
77.8682
20
45.4039
0
VERTEX
8
CUT
10
79.8
20
44.3
0
VERTEX
8
CUT
10
88.2
20
44.3
0
VERTEX
8
CUT
10
90.1318
20
45.4039
0
SEQEND
0
POLYLINE
8
CUT
66
1
70
0
0
VERTEX
8
CUT
10
91.8682
20
46.3961
0
VERTEX
8
CUT
10
93.8
20
47.5
0
VERTEX
8
CUT
10
102.2
20
47.5
0
VERTEX
8
CUT
10
104.1318
20
46.3961
0
SEQEND
0
POLYLINE
8
CUT
66
1
70
0
0
VERTEX
8
CUT
10
91.8682
20
45.4039
0
VERTEX
8
CUT
10
93.8
20
44.3
0
VERTEX
8
CUT
10
102.2
20
44.3
0
VERTEX
8
CUT
10
104.1318
20
45.4039
0
SEQEND
0
POLYLINE
8
CUT
66
1
70
0
0
VERTEX
8
CUT
10
105.8682
20
46.3961
0
VERTEX
8
CUT
10
107.8
20
47.5
0
VERTEX
8
CUT
10
116.2
20
47.5
0
VERTEX
8
CUT
10
118.1318
20
46.3961
0
SEQEND
0
POLYLINE
8
CUT
66
1
70
0
0
VERTEX
8
CUT
10
105.8682
20
45.4039
0
VERTEX
8
CUT
10
107.8
20
44.3
0
VERTEX
8
CUT
10
116.2
20
44.3
0
VERTEX
8
CUT
10
118.1318
20
45.4039
0
SEQEND
0
POLYLINE
8
CUT
66
1
70
0
0
VERTEX
8
CUT
10
0.8682
20
41.8961
0
VERTEX
8
CUT
10
2.8
20
43
0
VERTEX
8
CUT
10
11.2
20
43
0
VERTEX
8
CUT
10
13.1318
20
41.8961
0
SEQEND
0
POLYLINE
8
CUT
66
1
70
0
0
VERTEX
8
CUT
10
0.8682
20
40.9039
0
VERTEX
8
CUT
10
2.8
20
39.8
0
VERTEX
8
CUT
10
11.2
20
39.8
0
VERTEX
8
CUT
10
13.1318
20
40.9039
0
SEQEND
0
POLYLINE
8
CUT
66
1
70
0
0
VERTEX
8
CUT
10
14.8682
20
41.8961
0
VERTEX
8
CUT
10
16.8
20
43
0
VERTEX
8
CUT
10
25.2
20
43
0
VERTEX
8
CUT
10
27.1318
20
41.8961
0
SEQEND
0
POLYLINE
8
CUT
66
1
70
0
0
VERTEX
8
CUT
10
14.8682
20
40.9039
0
VERTEX
8
CUT
10
16.8
20
39.8
0
VERTEX
8
CUT
10
25.2
20
39.8
0
VERTEX
8
CUT
10
27.1318
20
40.9039
0
SEQEND
0
POLYLINE
8
CUT
66
1
70
0
0
VERTEX
8
CUT
10
28.8682
20
41.8961
0
VERTEX
8
CUT
10
30.8
20
43
0
VERTEX
8
CUT
10
39.2
20
43
0
VERTEX
8
CUT
10
41.1318
20
41.8961
0
SEQEND
0
POLYLINE
8
CUT
66
1
70
0
0
VERTEX
8
CUT
10
28.8682
20
40.9039
0
VERTEX
8
CUT
10
30.8
20
39.8
0
VERTEX
8
CUT
10
39.2
20
39.8
0
VERTEX
8
CUT
10
41.1318
20
40.9039
0
SEQEND
0
POLYLINE
8
CUT
66
1
70
0
0
VERTEX
8
CUT
10
42.8682
20
41.8961
0
VERTEX
8
CUT
10
44.8
20
43
0
VERTEX
8
CUT
10
53.2
20
43
0
VERTEX
8
CUT
10
55.1318
20
41.8961
0
SEQEND
0
POLYLINE
8
CUT
66
1
70
0
0
VERTEX
8
CUT
10
42.8682
20
40.9039
0
VERTEX
8
CUT
10
44.8
20
39.8
0
VERTEX
8
CUT
10
53.2
20
39.8
0
VERTEX
8
CUT
10
55.1318
20
40.9039
0
SEQEND
0
POLYLINE
8
CUT
66
1
70
0
0
VERTEX
8
CUT
10
56.8682
20
41.8961
0
VERTEX
8
CUT
10
58.8
20
43
0
VERTEX
8
CUT
10
67.2
20
43
0
VERTEX
8
CUT
10
69.1318
20
41.8961
0
SEQEND
0
POLYLINE
8
CUT
66
1
70
0
0
VERTEX
8
CUT
10
56.8682
20
40.9039
0
VERTEX
8
CUT
10
58.8
20
39.8
0
VERTEX
8
CUT
10
67.2
20
39.8
0
VERTEX
8
CUT
10
69.1318
20
40.9039
0
SEQEND
0
POLYLINE
8
CUT
66
1
70
0
0
VERTEX
8
CUT
10
70.8682
20
41.8961
0
VERTEX
8
CUT
10
72.8
20
43
0
VERTEX
8
CUT
10
81.2
20
43
0
VERTEX
8
CUT
10
83.1318
20
41.8961
0
SEQEND
0
POLYLINE
8
CUT
66
1
70
0
0
VERTEX
8
CUT
10
70.8682
20
40.9039
0
VERTEX
8
CUT
10
72.8
20
39.8
0
VERTEX
8
CUT
10
81.2
20
39.8
0
VERTEX
8
CUT
10
83.1318
20
40.9039
0
SEQEND
0
POLYLINE
8
CUT
66
1
70
0
0
VERTEX
8
CUT
10
84.8682
20
41.8961
0
VERTEX
8
CUT
10
86.8
20
43
0
VERTEX
8
CUT
10
95.2
20
43
0
VERTEX
8
CUT
10
97.1318
20
41.8961
0
SEQEND
0
POLYLINE
8
CUT
66
1
70
0
0
VERTEX
8
CUT
10
84.8682
20
40.9039
0
VERTEX
8
CUT
10
86.8
20
39.8
0
VERTEX
8
CUT
10
95.2
20
39.8
0
VERTEX
8
CUT
10
97.1318
20
40.9039
0
SEQEND
0
POLYLINE
8
CUT
66
1
70
0
0
VERTEX
8
CUT
10
98.8682
20
41.8961
0
VERTEX
8
CUT
10
100.8
20
43
0
VERTEX
8
CUT
10
109.2
20
43
0
VERTEX
8
CUT
10
111.1318
20
41.8961
0
SEQEND
0
POLYLINE
8
CUT
66
1
70
0
0
VERTEX
8
CUT
10
98.8682
20
40.9039
0
VERTEX
8
CUT
10
100.8
20
39.8
0
VERTEX
8
CUT
10
109.2
20
39.8
0
VERTEX
8
CUT
10
111.1318
20
40.9039
0
SEQEND
0
POLYLINE
8
CUT
66
1
70
0
0
VERTEX
8
CUT
10
112.8682
20
41.8961
0
VERTEX
8
CUT
10
114.8
20
43
0
VERTEX
8
CUT
10
120
20
43
0
SEQEND
0
POLYLINE
8
CUT
66
1
70
0
0
VERTEX
8
CUT
10
112.8682
20
40.9039
0
VERTEX
8
CUT
10
114.8
20
39.8
0
VERTEX
8
CUT
10
120
20
39.8
0
SEQEND
0
POLYLINE
8
CUT
66
1
70
0
0
VERTEX
8
CUT
10
0
20
38.5
0
VERTEX
8
CUT
10
4.2
20
38.5
0
VERTEX
8
CUT
10
6.1318
20
37.3961
0
SEQEND
0
POLYLINE
8
CUT
66
1
70
0
0
VERTEX
8
CUT
10
0
20
35.3
0
VERTEX
8
CUT
10
4.2
20
35.3
0
VERTEX
8
CUT
10
6.1318
20
36.4039
0
SEQEND
0
POLYLINE
8
CUT
66
1
70
0
0
VERTEX
8
CUT
10
7.8682
20
37.3961
0
VERTEX
8
CUT
10
9.8
20
38.5
0
VERTEX
8
CUT
10
18.2
20
38.5
0
VERTEX
8
CUT
10
20.1318
20
37.3961
0
SEQEND
0
POLYLINE
8
CUT
66
1
70
0
0
VERTEX
8
CUT
10
7.8682
20
36.4039
0
VERTEX
8
CUT
10
9.8
20
35.3
0
VERTEX
8
CUT
10
18.2
20
35.3
0
VERTEX
8
CUT
10
20.1318
20
36.4039
0
SEQEND
0
POLYLINE
8
CUT
66
1
70
0
0
VERTEX
8
CUT
10
21.8682
20
37.3961
0
VERTEX
8
CUT
10
23.8
20
38.5
0
VERTEX
8
CUT
10
32.2
20
38.5
0
VERTEX
8
CUT
10
34.1318
20
37.3961
0
SEQEND
0
POLYLINE
8
CUT
66
1
70
0
0
VERTEX
8
CUT
10
21.8682
20
36.4039
0
VERTEX
8
CUT
10
23.8
20
35.3
0
VERTEX
8
CUT
10
32.2
20
35.3
0
VERTEX
8
CUT
10
34.1318
20
36.4039
0
SEQEND
0
POLYLINE
8
CUT
66
1
70
0
0
VERTEX
8
CUT
10
35.8682
20
37.3961
0
VERTEX
8
CUT
10
37.8
20
38.5
0
VERTEX
8
CUT
10
46.2
20
38.5
0
VERTEX
8
CUT
10
48.1318
20
37.3961
0
SEQEND
0
POLYLINE
8
CUT
66
1
70
0
0
VERTEX
8
CUT
10
35.8682
20
36.4039
0
VERTEX
8
CUT
10
37.8
20
35.3
0
VERTEX
8
CUT
10
46.2
20
35.3
0
VERTEX
8
CUT
10
48.1318
20
36.4039
0
SEQEND
0
POLYLINE
8
CUT
66
1
70
0
0
VERTEX
8
CUT
10
49.8682
20
37.3961
0
VERTEX
8
CUT
10
51.8
20
38.5
0
VERTEX
8
CUT
10
60.2
20
38.5
0
VERTEX
8
CUT
10
62.1318
20
37.3961
0
SEQEND
0
POLYLINE
8
CUT
66
1
70
0
0
VERTEX
8
CUT
10
49.8682
20
36.4039
0
VERTEX
8
CUT
10
51.8
20
35.3
0
VERTEX
8
CUT
10
60.2
20
35.3
0
VERTEX
8
CUT
10
62.1318
20
36.4039
0
SEQEND
0
POLYLINE
8
CUT
66
1
70
0
0
VERTEX
8
CUT
10
63.8682
20
37.3961
0
VERTEX
8
CUT
10
65.8
20
38.5
0
VERTEX
8
CUT
10
74.2
20
38.5
0
VERTEX
8
CUT
10
76.1318
20
37.3961
0
SEQEND
0
POLYLINE
8
CUT
66
1
70
0
0
VERTEX
8
CUT
10
63.8682
20
36.4039
0
VERTEX
8
CUT
10
65.8
20
35.3
0
VERTEX
8
CUT
10
74.2
20
35.3
0
VERTEX
8
CUT
10
76.1318
20
36.4039
0
SEQEND
0
POLYLINE
8
CUT
66
1
70
0
0
VERTEX
8
CUT
10
77.8682
20
37.3961
0
VERTEX
8
CUT
10
79.8
20
38.5
0
VERTEX
8
CUT
10
88.2
20
38.5
0
VERTEX
8
CUT
10
90.1318
20
37.3961
0
SEQEND
0
POLYLINE
8
CUT
66
1
70
0
0
VERTEX
8
CUT
10
77.8682
20
36.4039
0
VERTEX
8
CUT
10
79.8
20
35.3
0
VERTEX
8
CUT
10
88.2
20
35.3
0
VERTEX
8
CUT
10
90.1318
20
36.4039
0
SEQEND
0
POLYLINE
8
CUT
66
1
70
0
0
VERTEX
8
CUT
10
91.8682
20
37.3961
0
VERTEX
8
CUT
10
93.8
20
38.5
0
VERTEX
8
CUT
10
102.2
20
38.5
0
VERTEX
8
CUT
10
104.1318
20
37.3961
0
SEQEND
0
POLYLINE
8
CUT
66
1
70
0
0
VERTEX
8
CUT
10
91.8682
20
36.4039
0
VERTEX
8
CUT
10
93.8
20
35.3
0
VERTEX
8
CUT
10
102.2
20
35.3
0
VERTEX
8
CUT
10
104.1318
20
36.4039
0
SEQEND
0
POLYLINE
8
CUT
66
1
70
0
0
VERTEX
8
CUT
10
105.8682
20
37.3961
0
VERTEX
8
CUT
10
107.8
20
38.5
0
VERTEX
8
CUT
10
116.2
20
38.5
0
VERTEX
8
CUT
10
118.1318
20
37.3961
0
SEQEND
0
POLYLINE
8
CUT
66
1
70
0
0
VERTEX
8
CUT
10
105.8682
20
36.4039
0
VERTEX
8
CUT
10
107.8
20
35.3
0
VERTEX
8
CUT
10
116.2
20
35.3
0
VERTEX
8
CUT
10
118.1318
20
36.4039
0
SEQEND
0
POLYLINE
8
CUT
66
1
70
0
0
VERTEX
8
CUT
10
0.8682
20
32.8961
0
VERTEX
8
CUT
10
2.8
20
34
0
VERTEX
8
CUT
10
11.2
20
34
0
VERTEX
8
CUT
10
13.1318
20
32.8961
0
SEQEND
0
POLYLINE
8
CUT
66
1
70
0
0
VERTEX
8
CUT
10
0.8682
20
31.9039
0
VERTEX
8
CUT
10
2.8
20
30.8
0
VERTEX
8
CUT
10
11.2
20
30.8
0
VERTEX
8
CUT
10
13.1318
20
31.9039
0
SEQEND
0
POLYLINE
8
CUT
66
1
70
0
0
VERTEX
8
CUT
10
14.8682
20
32.8961
0
VERTEX
8
CUT
10
16.8
20
34
0
VERTEX
8
CUT
10
25.2
20
34
0
VERTEX
8
CUT
10
27.1318
20
32.8961
0
SEQEND
0
POLYLINE
8
CUT
66
1
70
0
0
VERTEX
8
CUT
10
14.8682
20
31.9039
0
VERTEX
8
CUT
10
16.8
20
30.8
0
VERTEX
8
CUT
10
25.2
20
30.8
0
VERTEX
8
CUT
10
27.1318
20
31.9039
0
SEQEND
0
POLYLINE
8
CUT
66
1
70
0
0
VERTEX
8
CUT
10
28.8682
20
32.8961
0
VERTEX
8
CUT
10
30.8
20
34
0
VERTEX
8
CUT
10
39.2
20
34
0
VERTEX
8
CUT
10
41.1318
20
32.8961
0
SEQEND
0
POLYLINE
8
CUT
66
1
70
0
0
VERTEX
8
CUT
10
28.8682
20
31.9039
0
VERTEX
8
CUT
10
30.8
20
30.8
0
VERTEX
8
CUT
10
39.2
20
30.8
0
VERTEX
8
CUT
10
41.1318
20
31.9039
0
SEQEND
0
POLYLINE
8
CUT
66
1
70
0
0
VERTEX
8
CUT
10
42.8682
20
32.8961
0
VERTEX
8
CUT
10
44.8
20
34
0
VERTEX
8
CUT
10
53.2
20
34
0
VERTEX
8
CUT
10
55.1318
20
32.8961
0
SEQEND
0
POLYLINE
8
CUT
66
1
70
0
0
VERTEX
8
CUT
10
42.8682
20
31.9039
0
VERTEX
8
CUT
10
44.8
20
30.8
0
VERTEX
8
CUT
10
53.2
20
30.8
0
VERTEX
8
CUT
10
55.1318
20
31.9039
0
SEQEND
0
POLYLINE
8
CUT
66
1
70
0
0
VERTEX
8
CUT
10
56.8682
20
32.8961
0
VERTEX
8
CUT
10
58.8
20
34
0
VERTEX
8
CUT
10
67.2
20
34
0
VERTEX
8
CUT
10
69.1318
20
32.8961
0
SEQEND
0
POLYLINE
8
CUT
66
1
70
0
0
VERTEX
8
CUT
10
56.8682
20
31.9039
0
VERTEX
8
CUT
10
58.8
20
30.8
0
VERTEX
8
CUT
10
67.2
20
30.8
0
VERTEX
8
CUT
10
69.1318
20
31.9039
0
SEQEND
0
POLYLINE
8
CUT
66
1
70
0
0
VERTEX
8
CUT
10
70.8682
20
32.8961
0
VERTEX
8
CUT
10
72.8
20
34
0
VERTEX
8
CUT
10
81.2
20
34
0
VERTEX
8
CUT
10
83.1318
20
32.8961
0
SEQEND
0
POLYLINE
8
CUT
66
1
70
0
0
VERTEX
8
CUT
10
70.8682
20
31.9039
0
VERTEX
8
CUT
10
72.8
20
30.8
0
VERTEX
8
CUT
10
81.2
20
30.8
0
VERTEX
8
CUT
10
83.1318
20
31.9039
0
SEQEND
0
POLYLINE
8
CUT
66
1
70
0
0
VERTEX
8
CUT
10
84.8682
20
32.8961
0
VERTEX
8
CUT
10
86.8
20
34
0
VERTEX
8
CUT
10
95.2
20
34
0
VERTEX
8
CUT
10
97.1318
20
32.8961
0
SEQEND
0
POLYLINE
8
CUT
66
1
70
0
0
VERTEX
8
CUT
10
84.8682
20
31.9039
0
VERTEX
8
CUT
10
86.8
20
30.8
0
VERTEX
8
CUT
10
95.2
20
30.8
0
VERTEX
8
CUT
10
97.1318
20
31.9039
0
SEQEND
0
POLYLINE
8
CUT
66
1
70
0
0
VERTEX
8
CUT
10
98.8682
20
32.8961
0
VERTEX
8
CUT
10
100.8
20
34
0
VERTEX
8
CUT
10
109.2
20
34
0
VERTEX
8
CUT
10
111.1318
20
32.8961
0
SEQEND
0
POLYLINE
8
CUT
66
1
70
0
0
VERTEX
8
CUT
10
98.8682
20
31.9039
0
VERTEX
8
CUT
10
100.8
20
30.8
0
VERTEX
8
CUT
10
109.2
20
30.8
0
VERTEX
8
CUT
10
111.1318
20
31.9039
0
SEQEND
0
POLYLINE
8
CUT
66
1
70
0
0
VERTEX
8
CUT
10
112.8682
20
32.8961
0
VERTEX
8
CUT
10
114.8
20
34
0
VERTEX
8
CUT
10
120
20
34
0
SEQEND
0
POLYLINE
8
CUT
66
1
70
0
0
VERTEX
8
CUT
10
112.8682
20
31.9039
0
VERTEX
8
CUT
10
114.8
20
30.8
0
VERTEX
8
CUT
10
120
20
30.8
0
SEQEND
0
POLYLINE
8
CUT
66
1
70
0
0
VERTEX
8
CUT
10
0
20
29.5
0
VERTEX
8
CUT
10
4.2
20
29.5
0
VERTEX
8
CUT
10
6.1318
20
28.3961
0
SEQEND
0
POLYLINE
8
CUT
66
1
70
0
0
VERTEX
8
CUT
10
0
20
26.3
0
VERTEX
8
CUT
10
4.2
20
26.3
0
VERTEX
8
CUT
10
6.1318
20
27.4039
0
SEQEND
0
POLYLINE
8
CUT
66
1
70
0
0
VERTEX
8
CUT
10
7.8682
20
28.3961
0
VERTEX
8
CUT
10
9.8
20
29.5
0
VERTEX
8
CUT
10
18.2
20
29.5
0
VERTEX
8
CUT
10
20.1318
20
28.3961
0
SEQEND
0
POLYLINE
8
CUT
66
1
70
0
0
VERTEX
8
CUT
10
7.8682
20
27.4039
0
VERTEX
8
CUT
10
9.8
20
26.3
0
VERTEX
8
CUT
10
18.2
20
26.3
0
VERTEX
8
CUT
10
20.1318
20
27.4039
0
SEQEND
0
POLYLINE
8
CUT
66
1
70
0
0
VERTEX
8
CUT
10
21.8682
20
28.3961
0
VERTEX
8
CUT
10
23.8
20
29.5
0
VERTEX
8
CUT
10
32.2
20
29.5
0
VERTEX
8
CUT
10
34.1318
20
28.3961
0
SEQEND
0
POLYLINE
8
CUT
66
1
70
0
0
VERTEX
8
CUT
10
21.8682
20
27.4039
0
VERTEX
8
CUT
10
23.8
20
26.3
0
VERTEX
8
CUT
10
32.2
20
26.3
0
VERTEX
8
CUT
10
34.1318
20
27.4039
0
SEQEND
0
POLYLINE
8
CUT
66
1
70
0
0
VERTEX
8
CUT
10
35.8682
20
28.3961
0
VERTEX
8
CUT
10
37.8
20
29.5
0
VERTEX
8
CUT
10
46.2
20
29.5
0
VERTEX
8
CUT
10
48.1318
20
28.3961
0
SEQEND
0
POLYLINE
8
CUT
66
1
70
0
0
VERTEX
8
CUT
10
35.8682
20
27.4039
0
VERTEX
8
CUT
10
37.8
20
26.3
0
VERTEX
8
CUT
10
46.2
20
26.3
0
VERTEX
8
CUT
10
48.1318
20
27.4039
0
SEQEND
0
POLYLINE
8
CUT
66
1
70
0
0
VERTEX
8
CUT
10
49.8682
20
28.3961
0
VERTEX
8
CUT
10
51.8
20
29.5
0
VERTEX
8
CUT
10
60.2
20
29.5
0
VERTEX
8
CUT
10
62.1318
20
28.3961
0
SEQEND
0
POLYLINE
8
CUT
66
1
70
0
0
VERTEX
8
CUT
10
49.8682
20
27.4039
0
VERTEX
8
CUT
10
51.8
20
26.3
0
VERTEX
8
CUT
10
60.2
20
26.3
0
VERTEX
8
CUT
10
62.1318
20
27.4039
0
SEQEND
0
POLYLINE
8
CUT
66
1
70
0
0
VERTEX
8
CUT
10
63.8682
20
28.3961
0
VERTEX
8
CUT
10
65.8
20
29.5
0
VERTEX
8
CUT
10
74.2
20
29.5
0
VERTEX
8
CUT
10
76.1318
20
28.3961
0
SEQEND
0
POLYLINE
8
CUT
66
1
70
0
0
VERTEX
8
CUT
10
63.8682
20
27.4039
0
VERTEX
8
CUT
10
65.8
20
26.3
0
VERTEX
8
CUT
10
74.2
20
26.3
0
VERTEX
8
CUT
10
76.1318
20
27.4039
0
SEQEND
0
POLYLINE
8
CUT
66
1
70
0
0
VERTEX
8
CUT
10
77.8682
20
28.3961
0
VERTEX
8
CUT
10
79.8
20
29.5
0
VERTEX
8
CUT
10
88.2
20
29.5
0
VERTEX
8
CUT
10
90.1318
20
28.3961
0
SEQEND
0
POLYLINE
8
CUT
66
1
70
0
0
VERTEX
8
CUT
10
77.8682
20
27.4039
0
VERTEX
8
CUT
10
79.8
20
26.3
0
VERTEX
8
CUT
10
88.2
20
26.3
0
VERTEX
8
CUT
10
90.1318
20
27.4039
0
SEQEND
0
POLYLINE
8
CUT
66
1
70
0
0
VERTEX
8
CUT
10
91.8682
20
28.3961
0
VERTEX
8
CUT
10
93.8
20
29.5
0
VERTEX
8
CUT
10
102.2
20
29.5
0
VERTEX
8
CUT
10
104.1318
20
28.3961
0
SEQEND
0
POLYLINE
8
CUT
66
1
70
0
0
VERTEX
8
CUT
10
91.8682
20
27.4039
0
VERTEX
8
CUT
10
93.8
20
26.3
0
VERTEX
8
CUT
10
102.2
20
26.3
0
VERTEX
8
CUT
10
104.1318
20
27.4039
0
SEQEND
0
POLYLINE
8
CUT
66
1
70
0
0
VERTEX
8
CUT
10
105.8682
20
28.3961
0
VERTEX
8
CUT
10
107.8
20
29.5
0
VERTEX
8
CUT
10
116.2
20
29.5
0
VERTEX
8
CUT
10
118.1318
20
28.3961
0
SEQEND
0
POLYLINE
8
CUT
66
1
70
0
0
VERTEX
8
CUT
10
105.8682
20
27.4039
0
VERTEX
8
CUT
10
107.8
20
26.3
0
VERTEX
8
CUT
10
116.2
20
26.3
0
VERTEX
8
CUT
10
118.1318
20
27.4039
0
SEQEND
0
POLYLINE
8
CUT
66
1
70
0
0
VERTEX
8
CUT
10
0.8682
20
23.8961
0
VERTEX
8
CUT
10
2.8
20
25
0
VERTEX
8
CUT
10
11.2
20
25
0
VERTEX
8
CUT
10
13.1318
20
23.8961
0
SEQEND
0
POLYLINE
8
CUT
66
1
70
0
0
VERTEX
8
CUT
10
0.8682
20
22.9039
0
VERTEX
8
CUT
10
2.8
20
21.8
0
VERTEX
8
CUT
10
11.2
20
21.8
0
VERTEX
8
CUT
10
13.1318
20
22.9039
0
SEQEND
0
POLYLINE
8
CUT
66
1
70
0
0
VERTEX
8
CUT
10
14.8682
20
23.8961
0
VERTEX
8
CUT
10
16.8
20
25
0
VERTEX
8
CUT
10
25.2
20
25
0
VERTEX
8
CUT
10
27.1318
20
23.8961
0
SEQEND
0
POLYLINE
8
CUT
66
1
70
0
0
VERTEX
8
CUT
10
14.8682
20
22.9039
0
VERTEX
8
CUT
10
16.8
20
21.8
0
VERTEX
8
CUT
10
25.2
20
21.8
0
VERTEX
8
CUT
10
27.1318
20
22.9039
0
SEQEND
0
POLYLINE
8
CUT
66
1
70
0
0
VERTEX
8
CUT
10
28.8682
20
23.8961
0
VERTEX
8
CUT
10
30.8
20
25
0
VERTEX
8
CUT
10
39.2
20
25
0
VERTEX
8
CUT
10
41.1318
20
23.8961
0
SEQEND
0
POLYLINE
8
CUT
66
1
70
0
0
VERTEX
8
CUT
10
28.8682
20
22.9039
0
VERTEX
8
CUT
10
30.8
20
21.8
0
VERTEX
8
CUT
10
39.2
20
21.8
0
VERTEX
8
CUT
10
41.1318
20
22.9039
0
SEQEND
0
POLYLINE
8
CUT
66
1
70
0
0
VERTEX
8
CUT
10
42.8682
20
23.8961
0
VERTEX
8
CUT
10
44.8
20
25
0
VERTEX
8
CUT
10
53.2
20
25
0
VERTEX
8
CUT
10
55.1318
20
23.8961
0
SEQEND
0
POLYLINE
8
CUT
66
1
70
0
0
VERTEX
8
CUT
10
42.8682
20
22.9039
0
VERTEX
8
CUT
10
44.8
20
21.8
0
VERTEX
8
CUT
10
53.2
20
21.8
0
VERTEX
8
CUT
10
55.1318
20
22.9039
0
SEQEND
0
POLYLINE
8
CUT
66
1
70
0
0
VERTEX
8
CUT
10
56.8682
20
23.8961
0
VERTEX
8
CUT
10
58.8
20
25
0
VERTEX
8
CUT
10
67.2
20
25
0
VERTEX
8
CUT
10
69.1318
20
23.8961
0
SEQEND
0
POLYLINE
8
CUT
66
1
70
0
0
VERTEX
8
CUT
10
56.8682
20
22.9039
0
VERTEX
8
CUT
10
58.8
20
21.8
0
VERTEX
8
CUT
10
67.2
20
21.8
0
VERTEX
8
CUT
10
69.1318
20
22.9039
0
SEQEND
0
POLYLINE
8
CUT
66
1
70
0
0
VERTEX
8
CUT
10
70.8682
20
23.8961
0
VERTEX
8
CUT
10
72.8
20
25
0
VERTEX
8
CUT
10
81.2
20
25
0
VERTEX
8
CUT
10
83.1318
20
23.8961
0
SEQEND
0
POLYLINE
8
CUT
66
1
70
0
0
VERTEX
8
CUT
10
70.8682
20
22.9039
0
VERTEX
8
CUT
10
72.8
20
21.8
0
VERTEX
8
CUT
10
81.2
20
21.8
0
VERTEX
8
CUT
10
83.1318
20
22.9039
0
SEQEND
0
POLYLINE
8
CUT
66
1
70
0
0
VERTEX
8
CUT
10
84.8682
20
23.8961
0
VERTEX
8
CUT
10
86.8
20
25
0
VERTEX
8
CUT
10
95.2
20
25
0
VERTEX
8
CUT
10
97.1318
20
23.8961
0
SEQEND
0
POLYLINE
8
CUT
66
1
70
0
0
VERTEX
8
CUT
10
84.8682
20
22.9039
0
VERTEX
8
CUT
10
86.8
20
21.8
0
VERTEX
8
CUT
10
95.2
20
21.8
0
VERTEX
8
CUT
10
97.1318
20
22.9039
0
SEQEND
0
POLYLINE
8
CUT
66
1
70
0
0
VERTEX
8
CUT
10
98.8682
20
23.8961
0
VERTEX
8
CUT
10
100.8
20
25
0
VERTEX
8
CUT
10
109.2
20
25
0
VERTEX
8
CUT
10
111.1318
20
23.8961
0
SEQEND
0
POLYLINE
8
CUT
66
1
70
0
0
VERTEX
8
CUT
10
98.8682
20
22.9039
0
VERTEX
8
CUT
10
100.8
20
21.8
0
VERTEX
8
CUT
10
109.2
20
21.8
0
VERTEX
8
CUT
10
111.1318
20
22.9039
0
SEQEND
0
POLYLINE
8
CUT
66
1
70
0
0
VERTEX
8
CUT
10
112.8682
20
23.8961
0
VERTEX
8
CUT
10
114.8
20
25
0
VERTEX
8
CUT
10
120
20
25
0
SEQEND
0
POLYLINE
8
CUT
66
1
70
0
0
VERTEX
8
CUT
10
112.8682
20
22.9039
0
VERTEX
8
CUT
10
114.8
20
21.8
0
VERTEX
8
CUT
10
120
20
21.8
0
SEQEND
0
POLYLINE
8
CUT
66
1
70
0
0
VERTEX
8
CUT
10
0
20
20.5
0
VERTEX
8
CUT
10
4.2
20
20.5
0
VERTEX
8
CUT
10
6.1318
20
19.3961
0
SEQEND
0
POLYLINE
8
CUT
66
1
70
0
0
VERTEX
8
CUT
10
0
20
17.3
0
VERTEX
8
CUT
10
4.2
20
17.3
0
VERTEX
8
CUT
10
6.1318
20
18.4039
0
SEQEND
0
POLYLINE
8
CUT
66
1
70
0
0
VERTEX
8
CUT
10
7.8682
20
19.3961
0
VERTEX
8
CUT
10
9.8
20
20.5
0
VERTEX
8
CUT
10
18.2
20
20.5
0
VERTEX
8
CUT
10
20.1318
20
19.3961
0
SEQEND
0
POLYLINE
8
CUT
66
1
70
0
0
VERTEX
8
CUT
10
7.8682
20
18.4039
0
VERTEX
8
CUT
10
9.8
20
17.3
0
VERTEX
8
CUT
10
18.2
20
17.3
0
VERTEX
8
CUT
10
20.1318
20
18.4039
0
SEQEND
0
POLYLINE
8
CUT
66
1
70
0
0
VERTEX
8
CUT
10
21.8682
20
19.3961
0
VERTEX
8
CUT
10
23.8
20
20.5
0
VERTEX
8
CUT
10
32.2
20
20.5
0
VERTEX
8
CUT
10
34.1318
20
19.3961
0
SEQEND
0
POLYLINE
8
CUT
66
1
70
0
0
VERTEX
8
CUT
10
21.8682
20
18.4039
0
VERTEX
8
CUT
10
23.8
20
17.3
0
VERTEX
8
CUT
10
32.2
20
17.3
0
VERTEX
8
CUT
10
34.1318
20
18.4039
0
SEQEND
0
POLYLINE
8
CUT
66
1
70
0
0
VERTEX
8
CUT
10
35.8682
20
19.3961
0
VERTEX
8
CUT
10
37.8
20
20.5
0
VERTEX
8
CUT
10
46.2
20
20.5
0
VERTEX
8
CUT
10
48.1318
20
19.3961
0
SEQEND
0
POLYLINE
8
CUT
66
1
70
0
0
VERTEX
8
CUT
10
35.8682
20
18.4039
0
VERTEX
8
CUT
10
37.8
20
17.3
0
VERTEX
8
CUT
10
46.2
20
17.3
0
VERTEX
8
CUT
10
48.1318
20
18.4039
0
SEQEND
0
POLYLINE
8
CUT
66
1
70
0
0
VERTEX
8
CUT
10
49.8682
20
19.3961
0
VERTEX
8
CUT
10
51.8
20
20.5
0
VERTEX
8
CUT
10
60.2
20
20.5
0
VERTEX
8
CUT
10
62.1318
20
19.3961
0
SEQEND
0
POLYLINE
8
CUT
66
1
70
0
0
VERTEX
8
CUT
10
49.8682
20
18.4039
0
VERTEX
8
CUT
10
51.8
20
17.3
0
VERTEX
8
CUT
10
60.2
20
17.3
0
VERTEX
8
CUT
10
62.1318
20
18.4039
0
SEQEND
0
POLYLINE
8
CUT
66
1
70
0
0
VERTEX
8
CUT
10
63.8682
20
19.3961
0
VERTEX
8
CUT
10
65.8
20
20.5
0
VERTEX
8
CUT
10
74.2
20
20.5
0
VERTEX
8
CUT
10
76.1318
20
19.3961
0
SEQEND
0
POLYLINE
8
CUT
66
1
70
0
0
VERTEX
8
CUT
10
63.8682
20
18.4039
0
VERTEX
8
CUT
10
65.8
20
17.3
0
VERTEX
8
CUT
10
74.2
20
17.3
0
VERTEX
8
CUT
10
76.1318
20
18.4039
0
SEQEND
0
POLYLINE
8
CUT
66
1
70
0
0
VERTEX
8
CUT
10
77.8682
20
19.3961
0
VERTEX
8
CUT
10
79.8
20
20.5
0
VERTEX
8
CUT
10
88.2
20
20.5
0
VERTEX
8
CUT
10
90.1318
20
19.3961
0
SEQEND
0
POLYLINE
8
CUT
66
1
70
0
0
VERTEX
8
CUT
10
77.8682
20
18.4039
0
VERTEX
8
CUT
10
79.8
20
17.3
0
VERTEX
8
CUT
10
88.2
20
17.3
0
VERTEX
8
CUT
10
90.1318
20
18.4039
0
SEQEND
0
POLYLINE
8
CUT
66
1
70
0
0
VERTEX
8
CUT
10
91.8682
20
19.3961
0
VERTEX
8
CUT
10
93.8
20
20.5
0
VERTEX
8
CUT
10
102.2
20
20.5
0
VERTEX
8
CUT
10
104.1318
20
19.3961
0
SEQEND
0
POLYLINE
8
CUT
66
1
70
0
0
VERTEX
8
CUT
10
91.8682
20
18.4039
0
VERTEX
8
CUT
10
93.8
20
17.3
0
VERTEX
8
CUT
10
102.2
20
17.3
0
VERTEX
8
CUT
10
104.1318
20
18.4039
0
SEQEND
0
POLYLINE
8
CUT
66
1
70
0
0
VERTEX
8
CUT
10
105.8682
20
19.3961
0
VERTEX
8
CUT
10
107.8
20
20.5
0
VERTEX
8
CUT
10
116.2
20
20.5
0
VERTEX
8
CUT
10
118.1318
20
19.3961
0
SEQEND
0
POLYLINE
8
CUT
66
1
70
0
0
VERTEX
8
CUT
10
105.8682
20
18.4039
0
VERTEX
8
CUT
10
107.8
20
17.3
0
VERTEX
8
CUT
10
116.2
20
17.3
0
VERTEX
8
CUT
10
118.1318
20
18.4039
0
SEQEND
0
POLYLINE
8
CUT
66
1
70
0
0
VERTEX
8
CUT
10
0.8682
20
14.8961
0
VERTEX
8
CUT
10
2.8
20
16
0
VERTEX
8
CUT
10
11.2
20
16
0
VERTEX
8
CUT
10
13.1318
20
14.8961
0
SEQEND
0
POLYLINE
8
CUT
66
1
70
0
0
VERTEX
8
CUT
10
0.8682
20
13.9039
0
VERTEX
8
CUT
10
2.8
20
12.8
0
VERTEX
8
CUT
10
11.2
20
12.8
0
VERTEX
8
CUT
10
13.1318
20
13.9039
0
SEQEND
0
POLYLINE
8
CUT
66
1
70
0
0
VERTEX
8
CUT
10
14.8682
20
14.8961
0
VERTEX
8
CUT
10
16.8
20
16
0
VERTEX
8
CUT
10
25.2
20
16
0
VERTEX
8
CUT
10
27.1318
20
14.8961
0
SEQEND
0
POLYLINE
8
CUT
66
1
70
0
0
VERTEX
8
CUT
10
14.8682
20
13.9039
0
VERTEX
8
CUT
10
16.8
20
12.8
0
VERTEX
8
CUT
10
25.2
20
12.8
0
VERTEX
8
CUT
10
27.1318
20
13.9039
0
SEQEND
0
POLYLINE
8
CUT
66
1
70
0
0
VERTEX
8
CUT
10
28.8682
20
14.8961
0
VERTEX
8
CUT
10
30.8
20
16
0
VERTEX
8
CUT
10
39.2
20
16
0
VERTEX
8
CUT
10
41.1318
20
14.8961
0
SEQEND
0
POLYLINE
8
CUT
66
1
70
0
0
VERTEX
8
CUT
10
28.8682
20
13.9039
0
VERTEX
8
CUT
10
30.8
20
12.8
0
VERTEX
8
CUT
10
39.2
20
12.8
0
VERTEX
8
CUT
10
41.1318
20
13.9039
0
SEQEND
0
POLYLINE
8
CUT
66
1
70
0
0
VERTEX
8
CUT
10
42.8682
20
14.8961
0
VERTEX
8
CUT
10
44.8
20
16
0
VERTEX
8
CUT
10
53.2
20
16
0
VERTEX
8
CUT
10
55.1318
20
14.8961
0
SEQEND
0
POLYLINE
8
CUT
66
1
70
0
0
VERTEX
8
CUT
10
42.8682
20
13.9039
0
VERTEX
8
CUT
10
44.8
20
12.8
0
VERTEX
8
CUT
10
53.2
20
12.8
0
VERTEX
8
CUT
10
55.1318
20
13.9039
0
SEQEND
0
POLYLINE
8
CUT
66
1
70
0
0
VERTEX
8
CUT
10
56.8682
20
14.8961
0
VERTEX
8
CUT
10
58.8
20
16
0
VERTEX
8
CUT
10
67.2
20
16
0
VERTEX
8
CUT
10
69.1318
20
14.8961
0
SEQEND
0
POLYLINE
8
CUT
66
1
70
0
0
VERTEX
8
CUT
10
56.8682
20
13.9039
0
VERTEX
8
CUT
10
58.8
20
12.8
0
VERTEX
8
CUT
10
67.2
20
12.8
0
VERTEX
8
CUT
10
69.1318
20
13.9039
0
SEQEND
0
POLYLINE
8
CUT
66
1
70
0
0
VERTEX
8
CUT
10
70.8682
20
14.8961
0
VERTEX
8
CUT
10
72.8
20
16
0
VERTEX
8
CUT
10
81.2
20
16
0
VERTEX
8
CUT
10
83.1318
20
14.8961
0
SEQEND
0
POLYLINE
8
CUT
66
1
70
0
0
VERTEX
8
CUT
10
70.8682
20
13.9039
0
VERTEX
8
CUT
10
72.8
20
12.8
0
VERTEX
8
CUT
10
81.2
20
12.8
0
VERTEX
8
CUT
10
83.1318
20
13.9039
0
SEQEND
0
POLYLINE
8
CUT
66
1
70
0
0
VERTEX
8
CUT
10
84.8682
20
14.8961
0
VERTEX
8
CUT
10
86.8
20
16
0
VERTEX
8
CUT
10
95.2
20
16
0
VERTEX
8
CUT
10
97.1318
20
14.8961
0
SEQEND
0
POLYLINE
8
CUT
66
1
70
0
0
VERTEX
8
CUT
10
84.8682
20
13.9039
0
VERTEX
8
CUT
10
86.8
20
12.8
0
VERTEX
8
CUT
10
95.2
20
12.8
0
VERTEX
8
CUT
10
97.1318
20
13.9039
0
SEQEND
0
POLYLINE
8
CUT
66
1
70
0
0
VERTEX
8
CUT
10
98.8682
20
14.8961
0
VERTEX
8
CUT
10
100.8
20
16
0
VERTEX
8
CUT
10
109.2
20
16
0
VERTEX
8
CUT
10
111.1318
20
14.8961
0
SEQEND
0
POLYLINE
8
CUT
66
1
70
0
0
VERTEX
8
CUT
10
98.8682
20
13.9039
0
VERTEX
8
CUT
10
100.8
20
12.8
0
VERTEX
8
CUT
10
109.2
20
12.8
0
VERTEX
8
CUT
10
111.1318
20
13.9039
0
SEQEND
0
POLYLINE
8
CUT
66
1
70
0
0
VERTEX
8
CUT
10
112.8682
20
14.8961
0
VERTEX
8
CUT
10
114.8
20
16
0
VERTEX
8
CUT
10
120
20
16
0
SEQEND
0
POLYLINE
8
CUT
66
1
70
0
0
VERTEX
8
CUT
10
112.8682
20
13.9039
0
VERTEX
8
CUT
10
114.8
20
12.8
0
VERTEX
8
CUT
10
120
20
12.8
0
SEQEND
0
POLYLINE
8
CUT
66
1
70
0
0
VERTEX
8
CUT
10
0
20
11.5
0
VERTEX
8
CUT
10
4.2
20
11.5
0
VERTEX
8
CUT
10
6.1318
20
10.3961
0
SEQEND
0
POLYLINE
8
CUT
66
1
70
0
0
VERTEX
8
CUT
10
0
20
8.3
0
VERTEX
8
CUT
10
4.2
20
8.3
0
VERTEX
8
CUT
10
6.1318
20
9.4039
0
SEQEND
0
POLYLINE
8
CUT
66
1
70
0
0
VERTEX
8
CUT
10
7.8682
20
10.3961
0
VERTEX
8
CUT
10
9.8
20
11.5
0
VERTEX
8
CUT
10
18.2
20
11.5
0
VERTEX
8
CUT
10
20.1318
20
10.3961
0
SEQEND
0
POLYLINE
8
CUT
66
1
70
0
0
VERTEX
8
CUT
10
7.8682
20
9.4039
0
VERTEX
8
CUT
10
9.8
20
8.3
0
VERTEX
8
CUT
10
18.2
20
8.3
0
VERTEX
8
CUT
10
20.1318
20
9.4039
0
SEQEND
0
POLYLINE
8
CUT
66
1
70
0
0
VERTEX
8
CUT
10
21.8682
20
10.3961
0
VERTEX
8
CUT
10
23.8
20
11.5
0
VERTEX
8
CUT
10
32.2
20
11.5
0
VERTEX
8
CUT
10
34.1318
20
10.3961
0
SEQEND
0
POLYLINE
8
CUT
66
1
70
0
0
VERTEX
8
CUT
10
21.8682
20
9.4039
0
VERTEX
8
CUT
10
23.8
20
8.3
0
VERTEX
8
CUT
10
32.2
20
8.3
0
VERTEX
8
CUT
10
34.1318
20
9.4039
0
SEQEND
0
POLYLINE
8
CUT
66
1
70
0
0
VERTEX
8
CUT
10
35.8682
20
10.3961
0
VERTEX
8
CUT
10
37.8
20
11.5
0
VERTEX
8
CUT
10
46.2
20
11.5
0
VERTEX
8
CUT
10
48.1318
20
10.3961
0
SEQEND
0
POLYLINE
8
CUT
66
1
70
0
0
VERTEX
8
CUT
10
35.8682
20
9.4039
0
VERTEX
8
CUT
10
37.8
20
8.3
0
VERTEX
8
CUT
10
46.2
20
8.3
0
VERTEX
8
CUT
10
48.1318
20
9.4039
0
SEQEND
0
POLYLINE
8
CUT
66
1
70
0
0
VERTEX
8
CUT
10
49.8682
20
10.3961
0
VERTEX
8
CUT
10
51.8
20
11.5
0
VERTEX
8
CUT
10
60.2
20
11.5
0
VERTEX
8
CUT
10
62.1318
20
10.3961
0
SEQEND
0
POLYLINE
8
CUT
66
1
70
0
0
VERTEX
8
CUT
10
49.8682
20
9.4039
0
VERTEX
8
CUT
10
51.8
20
8.3
0
VERTEX
8
CUT
10
60.2
20
8.3
0
VERTEX
8
CUT
10
62.1318
20
9.4039
0
SEQEND
0
POLYLINE
8
CUT
66
1
70
0
0
VERTEX
8
CUT
10
63.8682
20
10.3961
0
VERTEX
8
CUT
10
65.8
20
11.5
0
VERTEX
8
CUT
10
74.2
20
11.5
0
VERTEX
8
CUT
10
76.1318
20
10.3961
0
SEQEND
0
POLYLINE
8
CUT
66
1
70
0
0
VERTEX
8
CUT
10
63.8682
20
9.4039
0
VERTEX
8
CUT
10
65.8
20
8.3
0
VERTEX
8
CUT
10
74.2
20
8.3
0
VERTEX
8
CUT
10
76.1318
20
9.4039
0
SEQEND
0
POLYLINE
8
CUT
66
1
70
0
0
VERTEX
8
CUT
10
77.8682
20
10.3961
0
VERTEX
8
CUT
10
79.8
20
11.5
0
VERTEX
8
CUT
10
88.2
20
11.5
0
VERTEX
8
CUT
10
90.1318
20
10.3961
0
SEQEND
0
POLYLINE
8
CUT
66
1
70
0
0
VERTEX
8
CUT
10
77.8682
20
9.4039
0
VERTEX
8
CUT
10
79.8
20
8.3
0
VERTEX
8
CUT
10
88.2
20
8.3
0
VERTEX
8
CUT
10
90.1318
20
9.4039
0
SEQEND
0
POLYLINE
8
CUT
66
1
70
0
0
VERTEX
8
CUT
10
91.8682
20
10.3961
0
VERTEX
8
CUT
10
93.8
20
11.5
0
VERTEX
8
CUT
10
102.2
20
11.5
0
VERTEX
8
CUT
10
104.1318
20
10.3961
0
SEQEND
0
POLYLINE
8
CUT
66
1
70
0
0
VERTEX
8
CUT
10
91.8682
20
9.4039
0
VERTEX
8
CUT
10
93.8
20
8.3
0
VERTEX
8
CUT
10
102.2
20
8.3
0
VERTEX
8
CUT
10
104.1318
20
9.4039
0
SEQEND
0
POLYLINE
8
CUT
66
1
70
0
0
VERTEX
8
CUT
10
105.8682
20
10.3961
0
VERTEX
8
CUT
10
107.8
20
11.5
0
VERTEX
8
CUT
10
116.2
20
11.5
0
VERTEX
8
CUT
10
118.1318
20
10.3961
0
SEQEND
0
POLYLINE
8
CUT
66
1
70
0
0
VERTEX
8
CUT
10
105.8682
20
9.4039
0
VERTEX
8
CUT
10
107.8
20
8.3
0
VERTEX
8
CUT
10
116.2
20
8.3
0
VERTEX
8
CUT
10
118.1318
20
9.4039
0
SEQEND
0
POLYLINE
8
CUT
66
1
70
0
0
VERTEX
8
CUT
10
0.8682
20
5.8961
0
VERTEX
8
CUT
10
2.8
20
7
0
VERTEX
8
CUT
10
11.2
20
7
0
VERTEX
8
CUT
10
13.1318
20
5.8961
0
SEQEND
0
POLYLINE
8
CUT
66
1
70
0
0
VERTEX
8
CUT
10
0.8682
20
4.9039
0
VERTEX
8
CUT
10
2.8
20
3.8
0
VERTEX
8
CUT
10
11.2
20
3.8
0
VERTEX
8
CUT
10
13.1318
20
4.9039
0
SEQEND
0
POLYLINE
8
CUT
66
1
70
0
0
VERTEX
8
CUT
10
14.8682
20
5.8961
0
VERTEX
8
CUT
10
16.8
20
7
0
VERTEX
8
CUT
10
25.2
20
7
0
VERTEX
8
CUT
10
27.1318
20
5.8961
0
SEQEND
0
POLYLINE
8
CUT
66
1
70
0
0
VERTEX
8
CUT
10
14.8682
20
4.9039
0
VERTEX
8
CUT
10
16.8
20
3.8
0
VERTEX
8
CUT
10
25.2
20
3.8
0
VERTEX
8
CUT
10
27.1318
20
4.9039
0
SEQEND
0
POLYLINE
8
CUT
66
1
70
0
0
VERTEX
8
CUT
10
28.8682
20
5.8961
0
VERTEX
8
CUT
10
30.8
20
7
0
VERTEX
8
CUT
10
39.2
20
7
0
VERTEX
8
CUT
10
41.1318
20
5.8961
0
SEQEND
0
POLYLINE
8
CUT
66
1
70
0
0
VERTEX
8
CUT
10
28.8682
20
4.9039
0
VERTEX
8
CUT
10
30.8
20
3.8
0
VERTEX
8
CUT
10
39.2
20
3.8
0
VERTEX
8
CUT
10
41.1318
20
4.9039
0
SEQEND
0
POLYLINE
8
CUT
66
1
70
0
0
VERTEX
8
CUT
10
42.8682
20
5.8961
0
VERTEX
8
CUT
10
44.8
20
7
0
VERTEX
8
CUT
10
53.2
20
7
0
VERTEX
8
CUT
10
55.1318
20
5.8961
0
SEQEND
0
POLYLINE
8
CUT
66
1
70
0
0
VERTEX
8
CUT
10
42.8682
20
4.9039
0
VERTEX
8
CUT
10
44.8
20
3.8
0
VERTEX
8
CUT
10
53.2
20
3.8
0
VERTEX
8
CUT
10
55.1318
20
4.9039
0
SEQEND
0
POLYLINE
8
CUT
66
1
70
0
0
VERTEX
8
CUT
10
56.8682
20
5.8961
0
VERTEX
8
CUT
10
58.8
20
7
0
VERTEX
8
CUT
10
67.2
20
7
0
VERTEX
8
CUT
10
69.1318
20
5.8961
0
SEQEND
0
POLYLINE
8
CUT
66
1
70
0
0
VERTEX
8
CUT
10
56.8682
20
4.9039
0
VERTEX
8
CUT
10
58.8
20
3.8
0
VERTEX
8
CUT
10
67.2
20
3.8
0
VERTEX
8
CUT
10
69.1318
20
4.9039
0
SEQEND
0
POLYLINE
8
CUT
66
1
70
0
0
VERTEX
8
CUT
10
70.8682
20
5.8961
0
VERTEX
8
CUT
10
72.8
20
7
0
VERTEX
8
CUT
10
81.2
20
7
0
VERTEX
8
CUT
10
83.1318
20
5.8961
0
SEQEND
0
POLYLINE
8
CUT
66
1
70
0
0
VERTEX
8
CUT
10
70.8682
20
4.9039
0
VERTEX
8
CUT
10
72.8
20
3.8
0
VERTEX
8
CUT
10
81.2
20
3.8
0
VERTEX
8
CUT
10
83.1318
20
4.9039
0
SEQEND
0
POLYLINE
8
CUT
66
1
70
0
0
VERTEX
8
CUT
10
84.8682
20
5.8961
0
VERTEX
8
CUT
10
86.8
20
7
0
VERTEX
8
CUT
10
95.2
20
7
0
VERTEX
8
CUT
10
97.1318
20
5.8961
0
SEQEND
0
POLYLINE
8
CUT
66
1
70
0
0
VERTEX
8
CUT
10
84.8682
20
4.9039
0
VERTEX
8
CUT
10
86.8
20
3.8
0
VERTEX
8
CUT
10
95.2
20
3.8
0
VERTEX
8
CUT
10
97.1318
20
4.9039
0
SEQEND
0
POLYLINE
8
CUT
66
1
70
0
0
VERTEX
8
CUT
10
98.8682
20
5.8961
0
VERTEX
8
CUT
10
100.8
20
7
0
VERTEX
8
CUT
10
109.2
20
7
0
VERTEX
8
CUT
10
111.1318
20
5.8961
0
SEQEND
0
POLYLINE
8
CUT
66
1
70
0
0
VERTEX
8
CUT
10
98.8682
20
4.9039
0
VERTEX
8
CUT
10
100.8
20
3.8
0
VERTEX
8
CUT
10
109.2
20
3.8
0
VERTEX
8
CUT
10
111.1318
20
4.9039
0
SEQEND
0
POLYLINE
8
CUT
66
1
70
0
0
VERTEX
8
CUT
10
112.8682
20
5.8961
0
VERTEX
8
CUT
10
114.8
20
7
0
VERTEX
8
CUT
10
120
20
7
0
SEQEND
0
POLYLINE
8
CUT
66
1
70
0
0
VERTEX
8
CUT
10
112.8682
20
4.9039
0
VERTEX
8
CUT
10
114.8
20
3.8
0
VERTEX
8
CUT
10
120
20
3.8
0
SEQEND
0
POLYLINE
8
CUT
66
1
70
0
0
VERTEX
8
CUT
10
0
20
2.5
0
VERTEX
8
CUT
10
4.2
20
2.5
0
VERTEX
8
CUT
10
6.1318
20
1.3961
0
SEQEND
0
LINE
8
CUT
10
5.425
20
0
11
6.1318
21
0.4039
0
POLYLINE
8
CUT
66
1
70
0
0
VERTEX
8
CUT
10
7.8682
20
1.3961
0
VERTEX
8
CUT
10
9.8
20
2.5
0
VERTEX
8
CUT
10
18.2
20
2.5
0
VERTEX
8
CUT
10
20.1318
20
1.3961
0
SEQEND
0
LINE
8
CUT
10
7.8682
20
0.4039
11
8.575
21
0
0
LINE
8
CUT
10
19.425
20
0
11
20.1318
21
0.4039
0
POLYLINE
8
CUT
66
1
70
0
0
VERTEX
8
CUT
10
21.8682
20
1.3961
0
VERTEX
8
CUT
10
23.8
20
2.5
0
VERTEX
8
CUT
10
32.2
20
2.5
0
VERTEX
8
CUT
10
34.1318
20
1.3961
0
SEQEND
0
LINE
8
CUT
10
21.8682
20
0.4039
11
22.575
21
0
0
LINE
8
CUT
10
33.425
20
0
11
34.1318
21
0.4039
0
POLYLINE
8
CUT
66
1
70
0
0
VERTEX
8
CUT
10
35.8682
20
1.3961
0
VERTEX
8
CUT
10
37.8
20
2.5
0
VERTEX
8
CUT
10
46.2
20
2.5
0
VERTEX
8
CUT
10
48.1318
20
1.3961
0
SEQEND
0
LINE
8
CUT
10
35.8682
20
0.4039
11
36.575
21
0
0
LINE
8
CUT
10
47.425
20
0
11
48.1318
21
0.4039
0
POLYLINE
8
CUT
66
1
70
0
0
VERTEX
8
CUT
10
49.8682
20
1.3961
0
VERTEX
8
CUT
10
51.8
20
2.5
0
VERTEX
8
CUT
10
60.2
20
2.5
0
VERTEX
8
CUT
10
62.1318
20
1.3961
0
SEQEND
0
LINE
8
CUT
10
49.8682
20
0.4039
11
50.575
21
0
0
LINE
8
CUT
10
61.425
20
0
11
62.1318
21
0.4039
0
POLYLINE
8
CUT
66
1
70
0
0
VERTEX
8
CUT
10
63.8682
20
1.3961
0
VERTEX
8
CUT
10
65.8
20
2.5
0
VERTEX
8
CUT
10
74.2
20
2.5
0
VERTEX
8
CUT
10
76.1318
20
1.3961
0
SEQEND
0
LINE
8
CUT
10
63.8682
20
0.4039
11
64.575
21
0
0
LINE
8
CUT
10
75.425
20
0
11
76.1318
21
0.4039
0
POLYLINE
8
CUT
66
1
70
0
0
VERTEX
8
CUT
10
77.8682
20
1.3961
0
VERTEX
8
CUT
10
79.8
20
2.5
0
VERTEX
8
CUT
10
88.2
20
2.5
0
VERTEX
8
CUT
10
90.1318
20
1.3961
0
SEQEND
0
LINE
8
CUT
10
77.8682
20
0.4039
11
78.575
21
0
0
LINE
8
CUT
10
89.425
20
0
11
90.1318
21
0.4039
0
POLYLINE
8
CUT
66
1
70
0
0
VERTEX
8
CUT
10
91.8682
20
1.3961
0
VERTEX
8
CUT
10
93.8
20
2.5
0
VERTEX
8
CUT
10
102.2
20
2.5
0
VERTEX
8
CUT
10
104.1318
20
1.3961
0
SEQEND
0
LINE
8
CUT
10
91.8682
20
0.4039
11
92.575
21
0
0
LINE
8
CUT
10
103.425
20
0
11
104.1318
21
0.4039
0
POLYLINE
8
CUT
66
1
70
0
0
VERTEX
8
CUT
10
105.8682
20
1.3961
0
VERTEX
8
CUT
10
107.8
20
2.5
0
VERTEX
8
CUT
10
116.2
20
2.5
0
VERTEX
8
CUT
10
118.1318
20
1.3961
0
SEQEND
0
LINE
8
CUT
10
105.8682
20
0.4039
11
106.575
21
0
0
LINE
8
CUT
10
117.425
20
0
11
118.1318
21
0.4039
0
POLYLINE
8
CUT
66
1
70
0
0
VERTEX
8
CUT
10
0
20
70
0
VERTEX
8
CUT
10
120
20
70
0
VERTEX
8
CUT
10
120
20
0
0
VERTEX
8
CUT
10
0
20
0
0
VERTEX
8
CUT
10
0
20
70
0
SEQEND
0
ENDSEC
0
EOF
