<?xml version="1.0" encoding="UTF-8"?>
<svg xmlns="http://www.w3.org/2000/svg" width="120mm" height="70mm" viewBox="0 0 120 70">
<g fill="none" stroke="#FF0000" stroke-width="0.1">
<line x1="0" y1="1.9572" x2="0.755" y2="0.6495"/>
<line x1="0" y1="9.8854" x2="0.755" y2="8.5777"/>
<line x1="0" y1="5.971" x2="0.755" y2="7.2787"/>
<line x1="0" y1="17.8136" x2="0.755" y2="16.5059"/>
<line x1="0" y1="13.8992" x2="0.755" y2="15.2069"/>
<line x1="0" y1="25.7418" x2="0.755" y2="24.4341"/>
<line x1="0" y1="21.8274" x2="0.755" y2="23.1351"/>
<line x1="0" y1="33.67" x2="0.755" y2="32.3623"/>
<line x1="0" y1="29.7556" x2="0.755" y2="31.0633"/>
<line x1="0" y1="41.5982" x2="0.755" y2="40.2905"/>
<line x1="0" y1="37.6838" x2="0.755" y2="38.9915"/>
<line x1="0" y1="49.5264" x2="0.755" y2="48.2187"/>
<line x1="0" y1="45.612" x2="0.755" y2="46.9197"/>
<line x1="0" y1="57.4546" x2="0.755" y2="56.1469"/>
<line x1="0" y1="53.5402" x2="0.755" y2="54.8479"/>
<line x1="0" y1="65.3828" x2="0.755" y2="64.0751"/>
<line x1="0" y1="61.4684" x2="0.755" y2="62.7761"/>
<line x1="0" y1="69.3966" x2="0.3484" y2="70"/>
<polyline points="0.375,4.6136 2,7.4282 6,7.4282 7.625,4.6136"/>
<polyline points="0.375,3.3146 2,0.5 6,0.5 7.625,3.3146"/>
<polyline points="0.375,12.5418 2,15.3564 6,15.3564 7.625,12.5418"/>
<polyline points="0.375,11.2428 2,8.4282 6,8.4282 7.625,11.2428"/>
<polyline points="0.375,20.47 2,23.2846 6,23.2846 7.625,20.47"/>
<polyline points="0.375,19.171 2,16.3564 6,16.3564 7.625,19.171"/>
<polyline points="0.375,28.3982 2,31.2128 6,31.2128 7.625,28.3982"/>
<polyline points="0.375,27.0992 2,24.2846 6,24.2846 7.625,27.0992"/>
<polyline points="0.375,36.3264 2,39.141 6,39.141 7.625,36.3264"/>
<polyline points="0.375,35.0274 2,32.2128 6,32.2128 7.625,35.0274"/>
<polyline points="0.375,44.2546 2,47.0692 6,47.0692 7.625,44.2546"/>
<polyline points="0.375,42.9556 2,40.141 6,40.141 7.625,42.9556"/>
<polyline points="0.375,52.1828 2,54.9974 6,54.9974 7.625,52.1828"/>
<polyline points="0.375,50.8838 2,48.0692 6,48.0692 7.625,50.8838"/>
<polyline points="0.375,60.111 2,62.9256 6,62.9256 7.625,60.111"/>
<polyline points="0.375,58.812 2,55.9974 6,55.9974 7.625,58.812"/>
<line x1="0.375" y1="68.0392" x2="1.507" y2="70"/>
<line x1="6.493" y1="70" x2="7.625" y2="68.0392"/>
<polyline points="0.375,66.7402 2,63.9256 6,63.9256 7.625,66.7402"/>
<polyline points="7.245,0.6495 8.87,3.4641 12.87,3.4641 14.495,0.6495"/>
<polyline points="7.245,8.5777 8.87,11.3923 12.87,11.3923 14.495,8.5777"/>
<polyline points="7.245,7.2787 8.87,4.4641 12.87,4.4641 14.495,7.2787"/>
<polyline points="7.245,16.5059 8.87,19.3205 12.87,19.3205 14.495,16.5059"/>
<polyline points="7.245,15.2069 8.87,12.3923 12.87,12.3923 14.495,15.2069"/>
<polyline points="7.245,24.4341 8.87,27.2487 12.87,27.2487 14.495,24.4341"/>
<polyline points="7.245,23.1351 8.87,20.3205 12.87,20.3205 14.495,23.1351"/>
<polyline points="7.245,32.3623 8.87,35.1769 12.87,35.1769 14.495,32.3623"/>
<polyline points="7.245,31.0633 8.87,28.2487 12.87,28.2487 14.495,31.0633"/>
<polyline points="7.245,40.2905 8.87,43.1051 12.87,43.1051 14.495,40.2905"/>
<polyline points="7.245,38.9915 8.87,36.1769 12.87,36.1769 14.495,38.9915"/>
<polyline points="7.245,48.2187 8.87,51.0333 12.87,51.0333 14.495,48.2187"/>
<polyline points="7.245,46.9197 8.87,44.1051 12.87,44.1051 14.495,46.9197"/>
<polyline points="7.245,56.1469 8.87,58.9615 12.87,58.9615 14.495,56.1469"/>
<polyline points="7.245,54.8479 8.87,52.0333 12.87,52.0333 14.495,54.8479"/>
<polyline points="7.245,64.0751 8.87,66.8897 12.87,66.8897 14.495,64.0751"/>
<polyline points="7.245,62.7761 8.87,59.9615 12.87,59.9615 14.495,62.7761"/>
<polyline points="7.6516,70 8.87,67.8897 12.87,67.8897 14.0884,70"/>
<polyline points="14.115,4.6136 15.74,7.4282 19.74,7.4282 21.365,4.6136"/>
<polyline points="14.115,3.3146 15.74,0.5 19.74,0.5 21.365,3.3146"/>
<polyline points="14.115,12.5418 15.74,15.3564 19.74,15.3564 21.365,12.5418"/>
<polyline points="14.115,11.2428 15.74,8.4282 19.74,8.4282 21.365,11.2428"/>
<polyline points="14.115,20.47 15.74,23.2846 19.74,23.2846 21.365,20.47"/>
<polyline points="14.115,19.171 15.74,16.3564 19.74,16.3564 21.365,19.171"/>
<polyline points="14.115,28.3982 15.74,31.2128 19.74,31.2128 21.365,28.3982"/>
<polyline points="14.115,27.0992 15.74,24.2846 19.74,24.2846 21.365,27.0992"/>
<polyline points="14.115,36.3264 15.74,39.141 19.74,39.141 21.365,36.3264"/>
<polyline points="14.115,35.0274 15.74,32.2128 19.74,32.2128 21.365,35.0274"/>
<polyline points="14.115,44.2546 15.74,47.0692 19.74,47.0692 21.365,44.2546"/>
<polyline points="14.115,42.9556 15.74,40.141 19.74,40.141 21.365,42.9556"/>
<polyline points="14.115,52.1828 15.74,54.9974 19.74,54.9974 21.365,52.1828"/>
<polyline points="14.115,50.8838 15.74,48.0692 19.74,48.0692 21.365,50.8838"/>
<polyline points="14.115,60.111 15.74,62.9256 19.74,62.9256 21.365,60.111"/>
<polyline points="14.115,58.812 15.74,55.9974 19.74,55.9974 21.365,58.812"/>
<line x1="14.115" y1="68.0392" x2="15.247" y2="70"/>
<line x1="20.233" y1="70" x2="21.365" y2="68.0392"/>
<polyline points="14.115,66.7402 15.74,63.9256 19.74,63.9256 21.365,66.7402"/>
<polyline points="20.985,0.6495 22.61,3.4641 26.61,3.4641 28.235,0.6495"/>
<polyline points="20.985,8.5777 22.61,11.3923 26.61,11.3923 28.235,8.5777"/>
<polyline points="20.985,7.2787 22.61,4.4641 26.61,4.4641 28.235,7.2787"/>
<polyline points="20.985,16.5059 22.61,19.3205 26.61,19.3205 28.235,16.5059"/>
<polyline points="20.985,15.2069 22.61,12.3923 26.61,12.3923 28.235,15.2069"/>
<polyline points="20.985,24.4341 22.61,27.2487 26.61,27.2487 28.235,24.4341"/>
<polyline points="20.985,23.1351 22.61,20.3205 26.61,20.3205 28.235,23.1351"/>
<polyline points="20.985,32.3623 22.61,35.1769 26.61,35.1769 28.235,32.3623"/>
<polyline points="20.985,31.0633 22.61,28.2487 26.61,28.2487 28.235,31.0633"/>
<polyline points="20.985,40.2905 22.61,43.1051 26.61,43.1051 28.235,40.2905"/>
<polyline points="20.985,38.9915 22.61,36.1769 26.61,36.1769 28.235,38.9915"/>
<polyline points="20.985,48.2187 22.61,51.0333 26.61,51.0333 28.235,48.2187"/>
<polyline points="20.985,46.9197 22.61,44.1051 26.61,44.1051 28.235,46.9197"/>
<polyline points="20.985,56.1469 22.61,58.9615 26.61,58.9615 28.235,56.1469"/>
<polyline points="20.985,54.8479 22.61,52.0333 26.61,52.0333 28.235,54.8479"/>
<polyline points="20.985,64.0751 22.61,66.8897 26.61,66.8897 28.235,64.0751"/>
<polyline points="20.985,62.7761 22.61,59.9615 26.61,59.9615 28.235,62.7761"/>
<polyline points="21.3916,70 22.61,67.8897 26.61,67.8897 27.8284,70"/>
<polyline points="27.855,4.6136 29.48,7.4282 33.48,7.4282 35.105,4.6136"/>
<polyline points="27.855,3.3146 29.48,0.5 33.48,0.5 35.105,3.3146"/>
<polyline points="27.855,12.5418 29.48,15.3564 33.48,15.3564 35.105,12.5418"/>
<polyline points="27.855,11.2428 29.48,8.4282 33.48,8.4282 35.105,11.2428"/>
<polyline points="27.855,20.47 29.48,23.2846 33.48,23.2846 35.105,20.47"/>
<polyline points="27.855,19.171 29.48,16.3564 33.48,16.3564 35.105,19.171"/>
<polyline points="27.855,28.3982 29.48,31.2128 33.48,31.2128 35.105,28.3982"/>
<polyline points="27.855,27.0992 29.48,24.2846 33.48,24.2846 35.105,27.0992"/>
<polyline points="27.855,36.3264 29.48,39.141 33.48,39.141 35.105,36.3264"/>
<polyline points="27.855,35.0274 29.48,32.2128 33.48,32.2128 35.105,35.0274"/>
<polyline points="27.855,44.2546 29.48,47.0692 33.48,47.0692 35.105,44.2546"/>
<polyline points="27.855,42.9556 29.48,40.141 33.48,40.141 35.105,42.9556"/>
<polyline points="27.855,52.1828 29.48,54.9974 33.48,54.9974 35.105,52.1828"/>
<polyline points="27.855,50.8838 29.48,48.0692 33.48,48.0692 35.105,50.8838"/>
<polyline points="27.855,60.111 29.48,62.9256 33.48,62.9256 35.105,60.111"/>
<polyline points="27.855,58.812 29.48,55.9974 33.48,55.9974 35.105,58.812"/>
<line x1="27.855" y1="68.0392" x2="28.987" y2="70"/>
<line x1="33.973" y1="70" x2="35.105" y2="68.0392"/>
<polyline points="27.855,66.7402 29.48,63.9256 33.48,63.9256 35.105,66.7402"/>
<polyline points="34.725,0.6495 36.35,3.4641 40.35,3.4641 41.975,0.6495"/>
<polyline points="34.725,8.5777 36.35,11.3923 40.35,11.3923 41.975,8.5777"/>
<polyline points="34.725,7.2787 36.35,4.4641 40.35,4.4641 41.975,7.2787"/>
<polyline points="34.725,16.5059 36.35,19.3205 40.35,19.3205 41.975,16.5059"/>
<polyline points="34.725,15.2069 36.35,12.3923 40.35,12.3923 41.975,15.2069"/>
<polyline points="34.725,24.4341 36.35,27.2487 40.35,27.2487 41.975,24.4341"/>
<polyline points="34.725,23.1351 36.35,20.3205 40.35,20.3205 41.975,23.1351"/>
<polyline points="34.725,32.3623 36.35,35.1769 40.35,35.1769 41.975,32.3623"/>
<polyline points="34.725,31.0633 36.35,28.2487 40.35,28.2487 41.975,31.0633"/>
<polyline points="34.725,40.2905 36.35,43.1051 40.35,43.1051 41.975,40.2905"/>
<polyline points="34.725,38.9915 36.35,36.1769 40.35,36.1769 41.975,38.9915"/>
<polyline points="34.725,48.2187 36.35,51.0333 40.35,51.0333 41.975,48.2187"/>
<polyline points="34.725,46.9197 36.35,44.1051 40.35,44.1051 41.975,46.9197"/>
<polyline points="34.725,56.1469 36.35,58.9615 40.35,58.9615 41.975,56.1469"/>
<polyline points="34.725,54.8479 36.35,52.0333 40.35,52.0333 41.975,54.8479"/>
<polyline points="34.725,64.0751 36.35,66.8897 40.35,66.8897 41.975,64.0751"/>
<polyline points="34.725,62.7761 36.35,59.9615 40.35,59.9615 41.975,62.7761"/>
<polyline points="35.1316,70 36.35,67.8897 40.35,67.8897 41.5684,70"/>
<polyline points="41.595,4.6136 43.22,7.4282 47.22,7.4282 48.845,4.6136"/>
<polyline points="41.595,3.3146 43.22,0.5 47.22,0.5 48.845,3.3146"/>
<polyline points="41.595,12.5418 43.22,15.3564 47.22,15.3564 48.845,12.5418"/>
<polyline points="41.595,11.2428 43.22,8.4282 47.22,8.4282 48.845,11.2428"/>
<polyline points="41.595,20.47 43.22,23.2846 47.22,23.2846 48.845,20.47"/>
<polyline points="41.595,19.171 43.22,16.3564 47.22,16.3564 48.845,19.171"/>
<polyline points="41.595,28.3982 43.22,31.2128 47.22,31.2128 48.845,28.3982"/>
<polyline points="41.595,27.0992 43.22,24.2846 47.22,24.2846 48.845,27.0992"/>
<polyline points="41.595,36.3264 43.22,39.141 47.22,39.141 48.845,36.3264"/>
<polyline points="41.595,35.0274 43.22,32.2128 47.22,32.2128 48.845,35.0274"/>
<polyline points="41.595,44.2546 43.22,47.0692 47.22,47.0692 48.845,44.2546"/>
<polyline points="41.595,42.9556 43.22,40.141 47.22,40.141 48.845,42.9556"/>
<polyline points="41.595,52.1828 43.22,54.9974 47.22,54.9974 48.845,52.1828"/>
<polyline points="41.595,50.8838 43.22,48.0692 47.22,48.0692 48.845,50.8838"/>
<polyline points="41.595,60.111 43.22,62.9256 47.22,62.9256 48.845,60.111"/>
<polyline points="41.595,58.812 43.22,55.9974 47.22,55.9974 48.845,58.812"/>
<line x1="41.595" y1="68.0392" x2="42.727" y2="70"/>
<line x1="47.713" y1="70" x2="48.845" y2="68.0392"/>
<polyline points="41.595,66.7402 43.22,63.9256 47.22,63.9256 48.845,66.7402"/>
<polyline points="48.465,0.6495 50.09,3.4641 54.09,3.4641 55.715,0.6495"/>
<polyline points="48.465,8.5777 50.09,11.3923 54.09,11.3923 55.715,8.5777"/>
<polyline points="48.465,7.2787 50.09,4.4641 54.09,4.4641 55.715,7.2787"/>
<polyline points="48.465,16.5059 50.09,19.3205 54.09,19.3205 55.715,16.5059"/>
<polyline points="48.465,15.2069 50.09,12.3923 54.09,12.3923 55.715,15.2069"/>
<polyline points="48.465,24.4341 50.09,27.2487 54.09,27.2487 55.715,24.4341"/>
<polyline points="48.465,23.1351 50.09,20.3205 54.09,20.3205 55.715,23.1351"/>
<polyline points="48.465,32.3623 50.09,35.1769 54.09,35.1769 55.715,32.3623"/>
<polyline points="48.465,31.0633 50.09,28.2487 54.09,28.2487 55.715,31.0633"/>
<polyline points="48.465,40.2905 50.09,43.1051 54.09,43.1051 55.715,40.2905"/>
<polyline points="48.465,38.9915 50.09,36.1769 54.09,36.1769 55.715,38.9915"/>
<polyline points="48.465,48.2187 50.09,51.0333 54.09,51.0333 55.715,48.2187"/>
<polyline points="48.465,46.9197 50.09,44.1051 54.09,44.1051 55.715,46.9197"/>
<polyline points="48.465,56.1469 50.09,58.9615 54.09,58.9615 55.715,56.1469"/>
<polyline points="48.465,54.8479 50.09,52.0333 54.09,52.0333 55.715,54.8479"/>
<polyline points="48.465,64.0751 50.09,66.8897 54.09,66.8897 55.715,64.0751"/>
<polyline points="48.465,62.7761 50.09,59.9615 54.09,59.9615 55.715,62.7761"/>
<polyline points="48.8716,70 50.09,67.8897 54.09,67.8897 55.3084,70"/>
<polyline points="55.335,4.6136 56.96,7.4282 60.96,7.4282 62.585,4.6136"/>
<polyline points="55.335,3.3146 56.96,0.5 60.96,0.5 62.585,3.3146"/>
<polyline points="55.335,12.5418 56.96,15.3564 60.96,15.3564 62.585,12.5418"/>
<polyline points="55.335,11.2428 56.96,8.4282 60.96,8.4282 62.585,11.2428"/>
<polyline points="55.335,20.47 56.96,23.2846 60.96,23.2846 62.585,20.47"/>
<polyline points="55.335,19.171 56.96,16.3564 60.96,16.3564 62.585,19.171"/>
<polyline points="55.335,28.3982 56.96,31.2128 60.96,31.2128 62.585,28.3982"/>
<polyline points="55.335,27.0992 56.96,24.2846 60.96,24.2846 62.585,27.0992"/>
<polyline points="55.335,36.3264 56.96,39.141 60.96,39.141 62.585,36.3264"/>
<polyline points="55.335,35.0274 56.96,32.2128 60.96,32.2128 62.585,35.0274"/>
<polyline points="55.335,44.2546 56.96,47.0692 60.96,47.0692 62.585,44.2546"/>
<polyline points="55.335,42.9556 56.96,40.141 60.96,40.141 62.585,42.9556"/>
<polyline points="55.335,52.1828 56.96,54.9974 60.96,54.9974 62.585,52.1828"/>
<polyline points="55.335,50.8838 56.96,48.0692 60.96,48.0692 62.585,50.8838"/>
<polyline points="55.335,60.111 56.96,62.9256 60.96,62.9256 62.585,60.111"/>
<polyline points="55.335,58.812 56.96,55.9974 60.96,55.9974 62.585,58.812"/>
<line x1="55.335" y1="68.0392" x2="56.467" y2="70"/>
<line x1="61.453" y1="70" x2="62.585" y2="68.0392"/>
<polyline points="55.335,66.7402 56.96,63.9256 60.96,63.9256 62.585,66.7402"/>
<polyline points="62.205,0.6495 63.83,3.4641 67.83,3.4641 69.455,0.6495"/>
<polyline points="62.205,8.5777 63.83,11.3923 67.83,11.3923 69.455,8.5777"/>
<polyline points="62.205,7.2787 63.83,4.4641 67.83,4.4641 69.455,7.2787"/>
<polyline points="62.205,16.5059 63.83,19.3205 67.83,19.3205 69.455,16.5059"/>
<polyline points="62.205,15.2069 63.83,12.3923 67.83,12.3923 69.455,15.2069"/>
<polyline points="62.205,24.4341 63.83,27.2487 67.83,27.2487 69.455,24.4341"/>
<polyline points="62.205,23.1351 63.83,20.3205 67.83,20.3205 69.455,23.1351"/>
<polyline points="62.205,32.3623 63.83,35.1769 67.83,35.1769 69.455,32.3623"/>
<polyline points="62.205,31.0633 63.83,28.2487 67.83,28.2487 69.455,31.0633"/>
<polyline points="62.205,40.2905 63.83,43.1051 67.83,43.1051 69.455,40.2905"/>
<polyline points="62.205,38.9915 63.83,36.1769 67.83,36.1769 69.455,38.9915"/>
<polyline points="62.205,48.2187 63.83,51.0333 67.83,51.0333 69.455,48.2187"/>
<polyline points="62.205,46.9197 63.83,44.1051 67.83,44.1051 69.455,46.9197"/>
<polyline points="62.205,56.1469 63.83,58.9615 67.83,58.9615 69.455,56.1469"/>
<polyline points="62.205,54.8479 63.83,52.0333 67.83,52.0333 69.455,54.8479"/>
<polyline points="62.205,64.0751 63.83,66.8897 67.83,66.8897 69.455,64.0751"/>
<polyline points="62.205,62.7761 63.83,59.9615 67.83,59.9615 69.455,62.7761"/>
<polyline points="62.6116,70 63.83,67.8897 67.83,67.8897 69.0484,70"/>
<polyline points="69.075,4.6136 70.7,7.4282 74.7,7.4282 76.325,4.6136"/>
<polyline points="69.075,3.3146 70.7,0.5 74.7,0.5 76.325,3.3146"/>
<polyline points="69.075,12.5418 70.7,15.3564 74.7,15.3564 76.325,12.5418"/>
<polyline points="69.075,11.2428 70.7,8.4282 74.7,8.4282 76.325,11.2428"/>
<polyline points="69.075,20.47 70.7,23.2846 74.7,23.2846 76.325,20.47"/>
<polyline points="69.075,19.171 70.7,16.3564 74.7,16.3564 76.325,19.171"/>
<polyline points="69.075,28.3982 70.7,31.2128 74.7,31.2128 76.325,28.3982"/>
<polyline points="69.075,27.0992 70.7,24.2846 74.7,24.2846 76.325,27.0992"/>
<polyline points="69.075,36.3264 70.7,39.141 74.7,39.141 76.325,36.3264"/>
<polyline points="69.075,35.0274 70.7,32.2128 74.7,32.2128 76.325,35.0274"/>
<polyline points="69.075,44.2546 70.7,47.0692 74.7,47.0692 76.325,44.2546"/>
<polyline points="69.075,42.9556 70.7,40.141 74.7,40.141 76.325,42.9556"/>
<polyline points="69.075,52.1828 70.7,54.9974 74.7,54.9974 76.325,52.1828"/>
<polyline points="69.075,50.8838 70.7,48.0692 74.7,48.0692 76.325,50.8838"/>
<polyline points="69.075,60.111 70.7,62.9256 74.7,62.9256 76.325,60.111"/>
<polyline points="69.075,58.812 70.7,55.9974 74.7,55.9974 76.325,58.812"/>
<line x1="69.075" y1="68.0392" x2="70.207" y2="70"/>
<line x1="75.193" y1="70" x2="76.325" y2="68.0392"/>
<polyline points="69.075,66.7402 70.7,63.9256 74.7,63.9256 76.325,66.7402"/>
<polyline points="75.945,0.6495 77.57,3.4641 81.57,3.4641 83.195,0.6495"/>
<polyline points="75.945,8.5777 77.57,11.3923 81.57,11.3923 83.195,8.5777"/>
<polyline points="75.945,7.2787 77.57,4.4641 81.57,4.4641 83.195,7.2787"/>
<polyline points="75.945,16.5059 77.57,19.3205 81.57,19.3205 83.195,16.5059"/>
<polyline points="75.945,15.2069 77.57,12.3923 81.57,12.3923 83.195,15.2069"/>
<polyline points="75.945,24.4341 77.57,27.2487 81.57,27.2487 83.195,24.4341"/>
<polyline points="75.945,23.1351 77.57,20.3205 81.57,20.3205 83.195,23.1351"/>
<polyline points="75.945,32.3623 77.57,35.1769 81.57,35.1769 83.195,32.3623"/>
<polyline points="75.945,31.0633 77.57,28.2487 81.57,28.2487 83.195,31.0633"/>
<polyline points="75.945,40.2905 77.57,43.1051 81.57,43.1051 83.195,40.2905"/>
<polyline points="75.945,38.9915 77.57,36.1769 81.57,36.1769 83.195,38.9915"/>
<polyline points="75.945,48.2187 77.57,51.0333 81.57,51.0333 83.195,48.2187"/>
<polyline points="75.945,46.9197 77.57,44.1051 81.57,44.1051 83.195,46.9197"/>
<polyline points="75.945,56.1469 77.57,58.9615 81.57,58.9615 83.195,56.1469"/>
<polyline points="75.945,54.8479 77.57,52.0333 81.57,52.0333 83.195,54.8479"/>
<polyline points="75.945,64.0751 77.57,66.8897 81.57,66.8897 83.195,64.0751"/>
<polyline points="75.945,62.7761 77.57,59.9615 81.57,59.9615 83.195,62.7761"/>
<polyline points="76.3516,70 77.57,67.8897 81.57,67.8897 82.7884,70"/>
<polyline points="82.815,4.6136 84.44,7.4282 88.44,7.4282 90.065,4.6136"/>
<polyline points="82.815,3.3146 84.44,0.5 88.44,0.5 90.065,3.3146"/>
<polyline points="82.815,12.5418 84.44,15.3564 88.44,15.3564 90.065,12.5418"/>
<polyline points="82.815,11.2428 84.44,8.4282 88.44,8.4282 90.065,11.2428"/>
<polyline points="82.815,20.47 84.44,23.2846 88.44,23.2846 90.065,20.47"/>
<polyline points="82.815,19.171 84.44,16.3564 88.44,16.3564 90.065,19.171"/>
<polyline points="82.815,28.3982 84.44,31.2128 88.44,31.2128 90.065,28.3982"/>
<polyline points="82.815,27.0992 84.44,24.2846 88.44,24.2846 90.065,27.0992"/>
<polyline points="82.815,36.3264 84.44,39.141 88.44,39.141 90.065,36.3264"/>
<polyline points="82.815,35.0274 84.44,32.2128 88.44,32.2128 90.065,35.0274"/>
<polyline points="82.815,44.2546 84.44,47.0692 88.44,47.0692 90.065,44.2546"/>
<polyline points="82.815,42.9556 84.44,40.141 88.44,40.141 90.065,42.9556"/>
<polyline points="82.815,52.1828 84.44,54.9974 88.44,54.9974 90.065,52.1828"/>
<polyline points="82.815,50.8838 84.44,48.0692 88.44,48.0692 90.065,50.8838"/>
<polyline points="82.815,60.111 84.44,62.9256 88.44,62.9256 90.065,60.111"/>
<polyline points="82.815,58.812 84.44,55.9974 88.44,55.9974 90.065,58.812"/>
<line x1="82.815" y1="68.0392" x2="83.947" y2="70"/>
<line x1="88.933" y1="70" x2="90.065" y2="68.0392"/>
<polyline points="82.815,66.7402 84.44,63.9256 88.44,63.9256 90.065,66.7402"/>
<polyline points="89.685,0.6495 91.31,3.4641 95.31,3.4641 96.935,0.6495"/>
<polyline points="89.685,8.5777 91.31,11.3923 95.31,11.3923 96.935,8.5777"/>
<polyline points="89.685,7.2787 91.31,4.4641 95.31,4.4641 96.935,7.2787"/>
<polyline points="89.685,16.5059 91.31,19.3205 95.31,19.3205 96.935,16.5059"/>
<polyline points="89.685,15.2069 91.31,12.3923 95.31,12.3923 96.935,15.2069"/>
<polyline points="89.685,24.4341 91.31,27.2487 95.31,27.2487 96.935,24.4341"/>
<polyline points="89.685,23.1351 91.31,20.3205 95.31,20.3205 96.935,23.1351"/>
<polyline points="89.685,32.3623 91.31,35.1769 95.31,35.1769 96.935,32.3623"/>
<polyline points="89.685,31.0633 91.31,28.2487 95.31,28.2487 96.935,31.0633"/>
<polyline points="89.685,40.2905 91.31,43.1051 95.31,43.1051 96.935,40.2905"/>
<polyline points="89.685,38.9915 91.31,36.1769 95.31,36.1769 96.935,38.9915"/>
<polyline points="89.685,48.2187 91.31,51.0333 95.31,51.0333 96.935,48.2187"/>
<polyline points="89.685,46.9197 91.31,44.1051 95.31,44.1051 96.935,46.9197"/>
<polyline points="89.685,56.1469 91.31,58.9615 95.31,58.9615 96.935,56.1469"/>
<polyline points="89.685,54.8479 91.31,52.0333 95.31,52.0333 96.935,54.8479"/>
<polyline points="89.685,64.0751 91.31,66.8897 95.31,66.8897 96.935,64.0751"/>
<polyline points="89.685,62.7761 91.31,59.9615 95.31,59.9615 96.935,62.7761"/>
<polyline points="90.0916,70 91.31,67.8897 95.31,67.8897 96.5284,70"/>
<polyline points="96.555,4.6136 98.18,7.4282 102.18,7.4282 103.805,4.6136"/>
<polyline points="96.555,3.3146 98.18,0.5 102.18,0.5 103.805,3.3146"/>
<polyline points="96.555,12.5418 98.18,15.3564 102.18,15.3564 103.805,12.5418"/>
<polyline points="96.555,11.2428 98.18,8.4282 102.18,8.4282 103.805,11.2428"/>
<polyline points="96.555,20.47 98.18,23.2846 102.18,23.2846 103.805,20.47"/>
<polyline points="96.555,19.171 98.18,16.3564 102.18,16.3564 103.805,19.171"/>
<polyline points="96.555,28.3982 98.18,31.2128 102.18,31.2128 103.805,28.3982"/>
<polyline points="96.555,27.0992 98.18,24.2846 102.18,24.2846 103.805,27.0992"/>
<polyline points="96.555,36.3264 98.18,39.141 102.18,39.141 103.805,36.3264"/>
<polyline points="96.555,35.0274 98.18,32.2128 102.18,32.2128 103.805,35.0274"/>
<polyline points="96.555,44.2546 98.18,47.0692 102.18,47.0692 103.805,44.2546"/>
<polyline points="96.555,42.9556 98.18,40.141 102.18,40.141 103.805,42.9556"/>
<polyline points="96.555,52.1828 98.18,54.9974 102.18,54.9974 103.805,52.1828"/>
<polyline points="96.555,50.8838 98.18,48.0692 102.18,48.0692 103.805,50.8838"/>
<polyline points="96.555,60.111 98.18,62.9256 102.18,62.9256 103.805,60.111"/>
<polyline points="96.555,58.812 98.18,55.9974 102.18,55.9974 103.805,58.812"/>
<line x1="96.555" y1="68.0392" x2="97.687" y2="70"/>
<line x1="102.673" y1="70" x2="103.805" y2="68.0392"/>
<polyline points="96.555,66.7402 98.18,63.9256 102.18,63.9256 103.805,66.7402"/>
<polyline points="103.425,0.6495 105.05,3.4641 109.05,3.4641 110.675,0.6495"/>
<polyline points="103.425,8.5777 105.05,11.3923 109.05,11.3923 110.675,8.5777"/>
<polyline points="103.425,7.2787 105.05,4.4641 109.05,4.4641 110.675,7.2787"/>
<polyline points="103.425,16.5059 105.05,19.3205 109.05,19.3205 110.675,16.5059"/>
<polyline points="103.425,15.2069 105.05,12.3923 109.05,12.3923 110.675,15.2069"/>
<polyline points="103.425,24.4341 105.05,27.2487 109.05,27.2487 110.675,24.4341"/>
<polyline points="103.425,23.1351 105.05,20.3205 109.05,20.3205 110.675,23.1351"/>
<polyline points="103.425,32.3623 105.05,35.1769 109.05,35.1769 110.675,32.3623"/>
<polyline points="103.425,31.0633 105.05,28.2487 109.05,28.2487 110.675,31.0633"/>
<polyline points="103.425,40.2905 105.05,43.1051 109.05,43.1051 110.675,40.2905"/>
<polyline points="103.425,38.9915 105.05,36.1769 109.05,36.1769 110.675,38.9915"/>
<polyline points="103.425,48.2187 105.05,51.0333 109.05,51.0333 110.675,48.2187"/>
<polyline points="103.425,46.9197 105.05,44.1051 109.05,44.1051 110.675,46.9197"/>
<polyline points="103.425,56.1469 105.05,58.9615 109.05,58.9615 110.675,56.1469"/>
<polyline points="103.425,54.8479 105.05,52.0333 109.05,52.0333 110.675,54.8479"/>
<polyline points="103.425,64.0751 105.05,66.8897 109.05,66.8897 110.675,64.0751"/>
<polyline points="103.425,62.7761 105.05,59.9615 109.05,59.9615 110.675,62.7761"/>
<polyline points="103.8316,70 105.05,67.8897 109.05,67.8897 110.2684,70"/>
<polyline points="110.295,4.6136 111.92,7.4282 115.92,7.4282 117.545,4.6136"/>
<polyline points="110.295,3.3146 111.92,0.5 115.92,0.5 117.545,3.3146"/>
<polyline points="110.295,12.5418 111.92,15.3564 115.92,15.3564 117.545,12.5418"/>
<polyline points="110.295,11.2428 111.92,8.4282 115.92,8.4282 117.545,11.2428"/>
<polyline points="110.295,20.47 111.92,23.2846 115.92,23.2846 117.545,20.47"/>
<polyline points="110.295,19.171 111.92,16.3564 115.92,16.3564 117.545,19.171"/>
<polyline points="110.295,28.3982 111.92,31.2128 115.92,31.2128 117.545,28.3982"/>
<polyline points="110.295,27.0992 111.92,24.2846 115.92,24.2846 117.545,27.0992"/>
<polyline points="110.295,36.3264 111.92,39.141 115.92,39.141 117.545,36.3264"/>
<polyline points="110.295,35.0274 111.92,32.2128 115.92,32.2128 117.545,35.0274"/>
<polyline points="110.295,44.2546 111.92,47.0692 115.92,47.0692 117.545,44.2546"/>
<polyline points="110.295,42.9556 111.92,40.141 115.92,40.141 117.545,42.9556"/>
<polyline points="110.295,52.1828 111.92,54.9974 115.92,54.9974 117.545,52.1828"/>
<polyline points="110.295,50.8838 111.92,48.0692 115.92,48.0692 117.545,50.8838"/>
<polyline points="110.295,60.111 111.92,62.9256 115.92,62.9256 117.545,60.111"/>
<polyline points="110.295,58.812 111.92,55.9974 115.92,55.9974 117.545,58.812"/>
<line x1="110.295" y1="68.0392" x2="111.427" y2="70"/>
<line x1="116.413" y1="70" x2="117.545" y2="68.0392"/>
<polyline points="110.295,66.7402 111.92,63.9256 115.92,63.9256 117.545,66.7402"/>
<polyline points="117.165,0.6495 118.79,3.4641 120,3.4641"/>
<polyline points="117.165,8.5777 118.79,11.3923 120,11.3923"/>
<polyline points="117.165,7.2787 118.79,4.4641 120,4.4641"/>
<polyline points="117.165,16.5059 118.79,19.3205 120,19.3205"/>
<polyline points="117.165,15.2069 118.79,12.3923 120,12.3923"/>
<polyline points="117.165,24.4341 118.79,27.2487 120,27.2487"/>
<polyline points="117.165,23.1351 118.79,20.3205 120,20.3205"/>
<polyline points="117.165,32.3623 118.79,35.1769 120,35.1769"/>
<polyline points="117.165,31.0633 118.79,28.2487 120,28.2487"/>
<polyline points="117.165,40.2905 118.79,43.1051 120,43.1051"/>
<polyline points="117.165,38.9915 118.79,36.1769 120,36.1769"/>
<polyline points="117.165,48.2187 118.79,51.0333 120,51.0333"/>
<polyline points="117.165,46.9197 118.79,44.1051 120,44.1051"/>
<polyline points="117.165,56.1469 118.79,58.9615 120,58.9615"/>
<polyline points="117.165,54.8479 118.79,52.0333 120,52.0333"/>
<polyline points="117.165,64.0751 118.79,66.8897 120,66.8897"/>
<polyline points="117.165,62.7761 118.79,59.9615 120,59.9615"/>
<polyline points="117.5716,70 118.79,67.8897 120,67.8897"/>
<polyline points="0,0 120,0 120,70 0,70 0,0"/>
</g>
</svg>