0
SECTION
2
HEADER
9
$ACADVER
1
AC1009
9
$INSUNITS
70
4
0
ENDSEC
0
SECTION
2
TABLES
0
TABLE
2
LAYER
70
1
0
LAYER
2
CUT
70
0
62
1
6
CONTINUOUS
0
ENDTAB
0
ENDSEC
0
SECTION
2
ENTITIES
0
LINE
8
CUT
10
0
20
67.9
11
0.13
21
68.3333
0
LINE
8
CUT
10
0
20
56.9
11
0.13
21
57.3333
0
LINE
8
CUT
10
0
20
61.1
11
0.13
21
60.6667
0
LINE
8
CUT
10
0
20
45.9
11
0.13
21
46.3333
0
LINE
8
CUT
10
0
20
50.1
11
0.13
21
49.6667
0
LINE
8
CUT
10
0
20
34.9
11
0.13
21
35.3333
0
LINE
8
CUT
10
0
20
39.1
11
0.13
21
38.6667
0
LINE
8
CUT
10
0
20
23.9
11
0.13
21
24.3333
0
LINE
8
CUT
10
0
20
28.1
11
0.13
21
27.6667
0
LINE
8
CUT
10
0
20
12.9
11
0.13
21
13.3333
0
LINE
8
CUT
10
0
20
17.1
11
0.13
21
16.6667
0
LINE
8
CUT
10
0
20
1.9
11
0.13
21
2.3333
0
LINE
8
CUT
10
0
20
6.1
11
0.13
21
5.6667
0
POLYLINE
8
CUT
66
1
70
0
0
VERTEX
8
CUT
10
0.5
20
62.8333
0
VERTEX
8
CUT
10
1.5
20
59.5
0
VERTEX
8
CUT
10
4.5
20
59.5
0
VERTEX
8
CUT
10
5.5
20
62.8333
0
SEQEND
0
POLYLINE
8
CUT
66
1
70
0
0
VERTEX
8
CUT
10
0.5
20
66.1667
0
VERTEX
8
CUT
10
1.5
20
69.5
0
VERTEX
8
CUT
10
4.5
20
69.5
0
VERTEX
8
CUT
10
5.5
20
66.1667
0
SEQEND
0
POLYLINE
8
CUT
66
1
70
0
0
VERTEX
8
CUT
10
0.5
20
51.8333
0
VERTEX
8
CUT
10
1.5
20
48.5
0
VERTEX
8
CUT
10
4.5
20
48.5
0
VERTEX
8
CUT
10
5.5
20
51.8333
0
SEQEND
0
POLYLINE
8
CUT
66
1
70
0
0
VERTEX
8
CUT
10
0.5
20
55.1667
0
VERTEX
8
CUT
10
1.5
20
58.5
0
VERTEX
8
CUT
10
4.5
20
58.5
0
VERTEX
8
CUT
10
5.5
20
55.1667
0
SEQEND
0
POLYLINE
8
CUT
66
1
70
0
0
VERTEX
8
CUT
10
0.5
20
40.8333
0
VERTEX
8
CUT
10
1.5
20
37.5
0
VERTEX
8
CUT
10
4.5
20
37.5
0
VERTEX
8
CUT
10
5.5
20
40.8333
0
SEQEND
0
POLYLINE
8
CUT
66
1
70
0
0
VERTEX
8
CUT
10
0.5
20
44.1667
0
VERTEX
8
CUT
10
1.5
20
47.5
0
VERTEX
8
CUT
10
4.5
20
47.5
0
VERTEX
8
CUT
10
5.5
20
44.1667
0
SEQEND
0
POLYLINE
8
CUT
66
1
70
0
0
VERTEX
8
CUT
10
0.5
20
29.8333
0
VERTEX
8
CUT
10
1.5
20
26.5
0
VERTEX
8
CUT
10
4.5
20
26.5
0
VERTEX
8
CUT
10
5.5
20
29.8333
0
SEQEND
0
POLYLINE
8
CUT
66
1
70
0
0
VERTEX
8
CUT
10
0.5
20
33.1667
0
VERTEX
8
CUT
10
1.5
20
36.5
0
VERTEX
8
CUT
10
4.5
20
36.5
0
VERTEX
8
CUT
10
5.5
20
33.1667
0
SEQEND
0
POLYLINE
8
CUT
66
1
70
0
0
VERTEX
8
CUT
10
0.5
20
18.8333
0
VERTEX
8
CUT
10
1.5
20
15.5
0
VERTEX
8
CUT
10
4.5
20
15.5
0
VERTEX
8
CUT
10
5.5
20
18.8333
0
SEQEND
0
POLYLINE
8
CUT
66
1
70
0
0
VERTEX
8
CUT
10
0.5
20
22.1667
0
VERTEX
8
CUT
10
1.5
20
25.5
0
VERTEX
8
CUT
10
4.5
20
25.5
0
VERTEX
8
CUT
10
5.5
20
22.1667
0
SEQEND
0
POLYLINE
8
CUT
66
1
70
0
0
VERTEX
8
CUT
10
0.5
20
7.8333
0
VERTEX
8
CUT
10
1.5
20
4.5
0
VERTEX
8
CUT
10
4.5
20
4.5
0
VERTEX
8
CUT
10
5.5
20
7.8333
0
SEQEND
0
POLYLINE
8
CUT
66
1
70
0
0
VERTEX
8
CUT
10
0.5
20
11.1667
0
VERTEX
8
CUT
10
1.5
20
14.5
0
VERTEX
8
CUT
10
4.5
20
14.5
0
VERTEX
8
CUT
10
5.5
20
11.1667
0
SEQEND
0
POLYLINE
8
CUT
66
1
70
0
0
VERTEX
8
CUT
10
0.5
20
0.1667
0
VERTEX
8
CUT
10
1.5
20
3.5
0
VERTEX
8
CUT
10
4.5
20
3.5
0
VERTEX
8
CUT
10
5.5
20
0.1667
0
SEQEND
0
POLYLINE
8
CUT
66
1
70
0
0
VERTEX
8
CUT
10
5.87
20
68.3333
0
VERTEX
8
CUT
10
6.87
20
65
0
VERTEX
8
CUT
10
9.87
20
65
0
VERTEX
8
CUT
10
10.87
20
68.3333
0
SEQEND
0
POLYLINE
8
CUT
66
1
70
0
0
VERTEX
8
CUT
10
5.87
20
57.3333
0
VERTEX
8
CUT
10
6.87
20
54
0
VERTEX
8
CUT
10
9.87
20
54
0
VERTEX
8
CUT
10
10.87
20
57.3333
0
SEQEND
0
POLYLINE
8
CUT
66
1
70
0
0
VERTEX
8
CUT
10
5.87
20
60.6667
0
VERTEX
8
CUT
10
6.87
20
64
0
VERTEX
8
CUT
10
9.87
20
64
0
VERTEX
8
CUT
10
10.87
20
60.6667
0
SEQEND
0
POLYLINE
8
CUT
66
1
70
0
0
VERTEX
8
CUT
10
5.87
20
46.3333
0
VERTEX
8
CUT
10
6.87
20
43
0
VERTEX
8
CUT
10
9.87
20
43
0
VERTEX
8
CUT
10
10.87
20
46.3333
0
SEQEND
0
POLYLINE
8
CUT
66
1
70
0
0
VERTEX
8
CUT
10
5.87
20
49.6667
0
VERTEX
8
CUT
10
6.87
20
53
0
VERTEX
8
CUT
10
9.87
20
53
0
VERTEX
8
CUT
10
10.87
20
49.6667
0
SEQEND
0
POLYLINE
8
CUT
66
1
70
0
0
VERTEX
8
CUT
10
5.87
20
35.3333
0
VERTEX
8
CUT
10
6.87
20
32
0
VERTEX
8
CUT
10
9.87
20
32
0
VERTEX
8
CUT
10
10.87
20
35.3333
0
SEQEND
0
POLYLINE
8
CUT
66
1
70
0
0
VERTEX
8
CUT
10
5.87
20
38.6667
0
VERTEX
8
CUT
10
6.87
20
42
0
VERTEX
8
CUT
10
9.87
20
42
0
VERTEX
8
CUT
10
10.87
20
38.6667
0
SEQEND
0
POLYLINE
8
CUT
66
1
70
0
0
VERTEX
8
CUT
10
5.87
20
24.3333
0
VERTEX
8
CUT
10
6.87
20
21
0
VERTEX
8
CUT
10
9.87
20
21
0
VERTEX
8
CUT
10
10.87
20
24.3333
0
SEQEND
0
POLYLINE
8
CUT
66
1
70
0
0
VERTEX
8
CUT
10
5.87
20
27.6667
0
VERTEX
8
CUT
10
6.87
20
31
0
VERTEX
8
CUT
10
9.87
20
31
0
VERTEX
8
CUT
10
10.87
20
27.6667
0
SEQEND
0
POLYLINE
8
CUT
66
1
70
0
0
VERTEX
8
CUT
10
5.87
20
13.3333
0
VERTEX
8
CUT
10
6.87
20
10
0
VERTEX
8
CUT
10
9.87
20
10
0
VERTEX
8
CUT
10
10.87
20
13.3333
0
SEQEND
0
POLYLINE
8
CUT
66
1
70
0
0
VERTEX
8
CUT
10
5.87
20
16.6667
0
VERTEX
8
CUT
10
6.87
20
20
0
VERTEX
8
CUT
10
9.87
20
20
0
VERTEX
8
CUT
10
10.87
20
16.6667
0
SEQEND
0
LINE
8
CUT
10
5.87
20
2.3333
11
6.57
21
0
0
LINE
8
CUT
10
10.17
20
0
11
10.87
21
2.3333
0
POLYLINE
8
CUT
66
1
70
0
0
VERTEX
8
CUT
10
5.87
20
5.6667
0
VERTEX
8
CUT
10
6.87
20
9
0
VERTEX
8
CUT
10
9.87
20
9
0
VERTEX
8
CUT
10
10.87
20
5.6667
0
SEQEND
0
POLYLINE
8
CUT
66
1
70
0
0
VERTEX
8
CUT
10
11.24
20
62.8333
0
VERTEX
8
CUT
10
12.24
20
59.5
0
VERTEX
8
CUT
10
15.24
20
59.5
0
VERTEX
8
CUT
10
16.24
20
62.8333
0
SEQEND
0
POLYLINE
8
CUT
66
1
70
0
0
VERTEX
8
CUT
10
11.24
20
66.1667
0
VERTEX
8
CUT
10
12.24
20
69.5
0
VERTEX
8
CUT
10
15.24
20
69.5
0
VERTEX
8
CUT
10
16.24
20
66.1667
0
SEQEND
0
POLYLINE
8
CUT
66
1
70
0
0
VERTEX
8
CUT
10
11.24
20
51.8333
0
VERTEX
8
CUT
10
12.24
20
48.5
0
VERTEX
8
CUT
10
15.24
20
48.5
0
VERTEX
8
CUT
10
16.24
20
51.8333
0
SEQEND
0
POLYLINE
8
CUT
66
1
70
0
0
VERTEX
8
CUT
10
11.24
20
55.1667
0
VERTEX
8
CUT
10
12.24
20
58.5
0
VERTEX
8
CUT
10
15.24
20
58.5
0
VERTEX
8
CUT
10
16.24
20
55.1667
0
SEQEND
0
POLYLINE
8
CUT
66
1
70
0
0
VERTEX
8
CUT
10
11.24
20
40.8333
0
VERTEX
8
CUT
10
12.24
20
37.5
0
VERTEX
8
CUT
10
15.24
20
37.5
0
VERTEX
8
CUT
10
16.24
20
40.8333
0
SEQEND
0
POLYLINE
8
CUT
66
1
70
0
0
VERTEX
8
CUT
10
11.24
20
44.1667
0
VERTEX
8
CUT
10
12.24
20
47.5
0
VERTEX
8
CUT
10
15.24
20
47.5
0
VERTEX
8
CUT
10
16.24
20
44.1667
0
SEQEND
0
POLYLINE
8
CUT
66
1
70
0
0
VERTEX
8
CUT
10
11.24
20
29.8333
0
VERTEX
8
CUT
10
12.24
20
26.5
0
VERTEX
8
CUT
10
15.24
20
26.5
0
VERTEX
8
CUT
10
16.24
20
29.8333
0
SEQEND
0
POLYLINE
8
CUT
66
1
70
0
0
VERTEX
8
CUT
10
11.24
20
33.1667
0
VERTEX
8
CUT
10
12.24
20
36.5
0
VERTEX
8
CUT
10
15.24
20
36.5
0
VERTEX
8
CUT
10
16.24
20
33.1667
0
SEQEND
0
POLYLINE
8
CUT
66
1
70
0
0
VERTEX
8
CUT
10
11.24
20
18.8333
0
VERTEX
8
CUT
10
12.24
20
15.5
0
VERTEX
8
CUT
10
15.24
20
15.5
0
VERTEX
8
CUT
10
16.24
20
18.8333
0
SEQEND
0
POLYLINE
8
CUT
66
1
70
0
0
VERTEX
8
CUT
10
11.24
20
22.1667
0
VERTEX
8
CUT
10
12.24
20
25.5
0
VERTEX
8
CUT
10
15.24
20
25.5
0
VERTEX
8
CUT
10
16.24
20
22.1667
0
SEQEND
0
POLYLINE
8
CUT
66
1
70
0
0
VERTEX
8
CUT
10
11.24
20
7.8333
0
VERTEX
8
CUT
10
12.24
20
4.5
0
VERTEX
8
CUT
10
15.24
20
4.5
0
VERTEX
8
CUT
10
16.24
20
7.8333
0
SEQEND
0
POLYLINE
8
CUT
66
1
70
0
0
VERTEX
8
CUT
10
11.24
20
11.1667
0
VERTEX
8
CUT
10
12.24
20
14.5
0
VERTEX
8
CUT
10
15.24
20
14.5
0
VERTEX
8
CUT
10
16.24
20
11.1667
0
SEQEND
0
POLYLINE
8
CUT
66
1
70
0
0
VERTEX
8
CUT
10
11.24
20
0.1667
0
VERTEX
8
CUT
10
12.24
20
3.5
0
VERTEX
8
CUT
10
15.24
20
3.5
0
VERTEX
8
CUT
10
16.24
20
0.1667
0
SEQEND
0
POLYLINE
8
CUT
66
1
70
0
0
VERTEX
8
CUT
10
16.61
20
68.3333
0
VERTEX
8
CUT
10
17.61
20
65
0
VERTEX
8
CUT
10
20.61
20
65
0
VERTEX
8
CUT
10
21.61
20
68.3333
0
SEQEND
0
POLYLINE
8
CUT
66
1
70
0
0
VERTEX
8
CUT
10
16.61
20
57.3333
0
VERTEX
8
CUT
10
17.61
20
54
0
VERTEX
8
CUT
10
20.61
20
54
0
VERTEX
8
CUT
10
21.61
20
57.3333
0
SEQEND
0
POLYLINE
8
CUT
66
1
70
0
0
VERTEX
8
CUT
10
16.61
20
60.6667
0
VERTEX
8
CUT
10
17.61
20
64
0
VERTEX
8
CUT
10
20.61
20
64
0
VERTEX
8
CUT
10
21.61
20
60.6667
0
SEQEND
0
POLYLINE
8
CUT
66
1
70
0
0
VERTEX
8
CUT
10
16.61
20
46.3333
0
VERTEX
8
CUT
10
17.61
20
43
0
VERTEX
8
CUT
10
20.61
20
43
0
VERTEX
8
CUT
10
21.61
20
46.3333
0
SEQEND
0
POLYLINE
8
CUT
66
1
70
0
0
VERTEX
8
CUT
10
16.61
20
49.6667
0
VERTEX
8
CUT
10
17.61
20
53
0
VERTEX
8
CUT
10
20.61
20
53
0
VERTEX
8
CUT
10
21.61
20
49.6667
0
SEQEND
0
POLYLINE
8
CUT
66
1
70
0
0
VERTEX
8
CUT
10
16.61
20
35.3333
0
VERTEX
8
CUT
10
17.61
20
32
0
VERTEX
8
CUT
10
20.61
20
32
0
VERTEX
8
CUT
10
21.61
20
35.3333
0
SEQEND
0
POLYLINE
8
CUT
66
1
70
0
0
VERTEX
8
CUT
10
16.61
20
38.6667
0
VERTEX
8
CUT
10
17.61
20
42
0
VERTEX
8
CUT
10
20.61
20
42
0
VERTEX
8
CUT
10
21.61
20
38.6667
0
SEQEND
0
POLYLINE
8
CUT
66
1
70
0
0
VERTEX
8
CUT
10
16.61
20
24.3333
0
VERTEX
8
CUT
10
17.61
20
21
0
VERTEX
8
CUT
10
20.61
20
21
0
VERTEX
8
CUT
10
21.61
20
24.3333
0
SEQEND
0
POLYLINE
8
CUT
66
1
70
0
0
VERTEX
8
CUT
10
16.61
20
27.6667
0
VERTEX
8
CUT
10
17.61
20
31
0
VERTEX
8
CUT
10
20.61
20
31
0
VERTEX
8
CUT
10
21.61
20
27.6667
0
SEQEND
0
POLYLINE
8
CUT
66
1
70
0
0
VERTEX
8
CUT
10
16.61
20
13.3333
0
VERTEX
8
CUT
10
17.61
20
10
0
VERTEX
8
CUT
10
20.61
20
10
0
VERTEX
8
CUT
10
21.61
20
13.3333
0
SEQEND
0
POLYLINE
8
CUT
66
1
70
0
0
VERTEX
8
CUT
10
16.61
20
16.6667
0
VERTEX
8
CUT
10
17.61
20
20
0
VERTEX
8
CUT
10
20.61
20
20
0
VERTEX
8
CUT
10
21.61
20
16.6667
0
SEQEND
0
LINE
8
CUT
10
16.61
20
2.3333
11
17.31
21
0
0
LINE
8
CUT
10
20.91
20
0
11
21.61
21
2.3333
0
POLYLINE
8
CUT
66
1
70
0
0
VERTEX
8
CUT
10
16.61
20
5.6667
0
VERTEX
8
CUT
10
17.61
20
9
0
VERTEX
8
CUT
10
20.61
20
9
0
VERTEX
8
CUT
10
21.61
20
5.6667
0
SEQEND
0
POLYLINE
8
CUT
66
1
70
0
0
VERTEX
8
CUT
10
21.98
20
62.8333
0
VERTEX
8
CUT
10
22.98
20
59.5
0
VERTEX
8
CUT
10
25.98
20
59.5
0
VERTEX
8
CUT
10
26.98
20
62.8333
0
SEQEND
0
POLYLINE
8
CUT
66
1
70
0
0
VERTEX
8
CUT
10
21.98
20
66.1667
0
VERTEX
8
CUT
10
22.98
20
69.5
0
VERTEX
8
CUT
10
25.98
20
69.5
0
VERTEX
8
CUT
10
26.98
20
66.1667
0
SEQEND
0
POLYLINE
8
CUT
66
1
70
0
0
VERTEX
8
CUT
10
21.98
20
51.8333
0
VERTEX
8
CUT
10
22.98
20
48.5
0
VERTEX
8
CUT
10
25.98
20
48.5
0
VERTEX
8
CUT
10
26.98
20
51.8333
0
SEQEND
0
POLYLINE
8
CUT
66
1
70
0
0
VERTEX
8
CUT
10
21.98
20
55.1667
0
VERTEX
8
CUT
10
22.98
20
58.5
0
VERTEX
8
CUT
10
25.98
20
58.5
0
VERTEX
8
CUT
10
26.98
20
55.1667
0
SEQEND
0
POLYLINE
8
CUT
66
1
70
0
0
VERTEX
8
CUT
10
21.98
20
40.8333
0
VERTEX
8
CUT
10
22.98
20
37.5
0
VERTEX
8
CUT
10
25.98
20
37.5
0
VERTEX
8
CUT
10
26.98
20
40.8333
0
SEQEND
0
POLYLINE
8
CUT
66
1
70
0
0
VERTEX
8
CUT
10
21.98
20
44.1667
0
VERTEX
8
CUT
10
22.98
20
47.5
0
VERTEX
8
CUT
10
25.98
20
47.5
0
VERTEX
8
CUT
10
26.98
20
44.1667
0
SEQEND
0
POLYLINE
8
CUT
66
1
70
0
0
VERTEX
8
CUT
10
21.98
20
29.8333
0
VERTEX
8
CUT
10
22.98
20
26.5
0
VERTEX
8
CUT
10
25.98
20
26.5
0
VERTEX
8
CUT
10
26.98
20
29.8333
0
SEQEND
0
POLYLINE
8
CUT
66
1
70
0
0
VERTEX
8
CUT
10
21.98
20
33.1667
0
VERTEX
8
CUT
10
22.98
20
36.5
0
VERTEX
8
CUT
10
25.98
20
36.5
0
VERTEX
8
CUT
10
26.98
20
33.1667
0
SEQEND
0
POLYLINE
8
CUT
66
1
70
0
0
VERTEX
8
CUT
10
21.98
20
18.8333
0
VERTEX
8
CUT
10
22.98
20
15.5
0
VERTEX
8
CUT
10
25.98
20
15.5
0
VERTEX
8
CUT
10
26.98
20
18.8333
0
SEQEND
0
POLYLINE
8
CUT
66
1
70
0
0
VERTEX
8
CUT
10
21.98
20
22.1667
0
VERTEX
8
CUT
10
22.98
20
25.5
0
VERTEX
8
CUT
10
25.98
20
25.5
0
VERTEX
8
CUT
10
26.98
20
22.1667
0
SEQEND
0
POLYLINE
8
CUT
66
1
70
0
0
VERTEX
8
CUT
10
21.98
20
7.8333
0
VERTEX
8
CUT
10
22.98
20
4.5
0
VERTEX
8
CUT
10
25.98
20
4.5
0
VERTEX
8
CUT
10
26.98
20
7.8333
0
SEQEND
0
POLYLINE
8
CUT
66
1
70
0
0
VERTEX
8
CUT
10
21.98
20
11.1667
0
VERTEX
8
CUT
10
22.98
20
14.5
0
VERTEX
8
CUT
10
25.98
20
14.5
0
VERTEX
8
CUT
10
26.98
20
11.1667
0
SEQEND
0
POLYLINE
8
CUT
66
1
70
0
0
VERTEX
8
CUT
10
21.98
20
0.1667
0
VERTEX
8
CUT
10
22.98
20
3.5
0
VERTEX
8
CUT
10
25.98
20
3.5
0
VERTEX
8
CUT
10
26.98
20
0.1667
0
SEQEND
0
POLYLINE
8
CUT
66
1
70
0
0
VERTEX
8
CUT
10
27.35
20
68.3333
0
VERTEX
8
CUT
10
28.35
20
65
0
VERTEX
8
CUT
10
31.35
20
65
0
VERTEX
8
CUT
10
32.35
20
68.3333
0
SEQEND
0
POLYLINE
8
CUT
66
1
70
0
0
VERTEX
8
CUT
10
27.35
20
57.3333
0
VERTEX
8
CUT
10
28.35
20
54
0
VERTEX
8
CUT
10
31.35
20
54
0
VERTEX
8
CUT
10
32.35
20
57.3333
0
SEQEND
0
POLYLINE
8
CUT
66
1
70
0
0
VERTEX
8
CUT
10
27.35
20
60.6667
0
VERTEX
8
CUT
10
28.35
20
64
0
VERTEX
8
CUT
10
31.35
20
64
0
VERTEX
8
CUT
10
32.35
20
60.6667
0
SEQEND
0
POLYLINE
8
CUT
66
1
70
0
0
VERTEX
8
CUT
10
27.35
20
46.3333
0
VERTEX
8
CUT
10
28.35
20
43
0
VERTEX
8
CUT
10
31.35
20
43
0
VERTEX
8
CUT
10
32.35
20
46.3333
0
SEQEND
0
POLYLINE
8
CUT
66
1
70
0
0
VERTEX
8
CUT
10
27.35
20
49.6667
0
VERTEX
8
CUT
10
28.35
20
53
0
VERTEX
8
CUT
10
31.35
20
53
0
VERTEX
8
CUT
10
32.35
20
49.6667
0
SEQEND
0
POLYLINE
8
CUT
66
1
70
0
0
VERTEX
8
CUT
10
27.35
20
35.3333
0
VERTEX
8
CUT
10
28.35
20
32
0
VERTEX
8
CUT
10
31.35
20
32
0
VERTEX
8
CUT
10
32.35
20
35.3333
0
SEQEND
0
POLYLINE
8
CUT
66
1
70
0
0
VERTEX
8
CUT
10
27.35
20
38.6667
0
VERTEX
8
CUT
10
28.35
20
42
0
VERTEX
8
CUT
10
31.35
20
42
0
VERTEX
8
CUT
10
32.35
20
38.6667
0
SEQEND
0
POLYLINE
8
CUT
66
1
70
0
0
VERTEX
8
CUT
10
27.35
20
24.3333
0
VERTEX
8
CUT
10
28.35
20
21
0
VERTEX
8
CUT
10
31.35
20
21
0
VERTEX
8
CUT
10
32.35
20
24.3333
0
SEQEND
0
POLYLINE
8
CUT
66
1
70
0
0
VERTEX
8
CUT
10
27.35
20
27.6667
0
VERTEX
8
CUT
10
28.35
20
31
0
VERTEX
8
CUT
10
31.35
20
31
0
VERTEX
8
CUT
10
32.35
20
27.6667
0
SEQEND
0
POLYLINE
8
CUT
66
1
70
0
0
VERTEX
8
CUT
10
27.35
20
13.3333
0
VERTEX
8
CUT
10
28.35
20
10
0
VERTEX
8
CUT
10
31.35
20
10
0
VERTEX
8
CUT
10
32.35
20
13.3333
0
SEQEND
0
POLYLINE
8
CUT
66
1
70
0
0
VERTEX
8
CUT
10
27.35
20
16.6667
0
VERTEX
8
CUT
10
28.35
20
20
0
VERTEX
8
CUT
10
31.35
20
20
0
VERTEX
8
CUT
10
32.35
20
16.6667
0
SEQEND
0
LINE
8
CUT
10
27.35
20
2.3333
11
28.05
21
0
0
LINE
8
CUT
10
31.65
20
0
11
32.35
21
2.3333
0
POLYLINE
8
CUT
66
1
70
0
0
VERTEX
8
CUT
10
27.35
20
5.6667
0
VERTEX
8
CUT
10
28.35
20
9
0
VERTEX
8
CUT
10
31.35
20
9
0
VERTEX
8
CUT
10
32.35
20
5.6667
0
SEQEND
0
POLYLINE
8
CUT
66
1
70
0
0
VERTEX
8
CUT
10
32.72
20
62.8333
0
VERTEX
8
CUT
10
33.72
20
59.5
0
VERTEX
8
CUT
10
36.72
20
59.5
0
VERTEX
8
CUT
10
37.72
20
62.8333
0
SEQEND
0
POLYLINE
8
CUT
66
1
70
0
0
VERTEX
8
CUT
10
32.72
20
66.1667
0
VERTEX
8
CUT
10
33.72
20
69.5
0
VERTEX
8
CUT
10
36.72
20
69.5
0
VERTEX
8
CUT
10
37.72
20
66.1667
0
SEQEND
0
POLYLINE
8
CUT
66
1
70
0
0
VERTEX
8
CUT
10
32.72
20
51.8333
0
VERTEX
8
CUT
10
33.72
20
48.5
0
VERTEX
8
CUT
10
36.72
20
48.5
0
VERTEX
8
CUT
10
37.72
20
51.8333
0
SEQEND
0
POLYLINE
8
CUT
66
1
70
0
0
VERTEX
8
CUT
10
32.72
20
55.1667
0
VERTEX
8
CUT
10
33.72
20
58.5
0
VERTEX
8
CUT
10
36.72
20
58.5
0
VERTEX
8
CUT
10
37.72
20
55.1667
0
SEQEND
0
POLYLINE
8
CUT
66
1
70
0
0
VERTEX
8
CUT
10
32.72
20
40.8333
0
VERTEX
8
CUT
10
33.72
20
37.5
0
VERTEX
8
CUT
10
36.72
20
37.5
0
VERTEX
8
CUT
10
37.72
20
40.8333
0
SEQEND
0
POLYLINE
8
CUT
66
1
70
0
0
VERTEX
8
CUT
10
32.72
20
44.1667
0
VERTEX
8
CUT
10
33.72
20
47.5
0
VERTEX
8
CUT
10
36.72
20
47.5
0
VERTEX
8
CUT
10
37.72
20
44.1667
0
SEQEND
0
POLYLINE
8
CUT
66
1
70
0
0
VERTEX
8
CUT
10
32.72
20
29.8333
0
VERTEX
8
CUT
10
33.72
20
26.5
0
VERTEX
8
CUT
10
36.72
20
26.5
0
VERTEX
8
CUT
10
37.72
20
29.8333
0
SEQEND
0
POLYLINE
8
CUT
66
1
70
0
0
VERTEX
8
CUT
10
32.72
20
33.1667
0
VERTEX
8
CUT
10
33.72
20
36.5
0
VERTEX
8
CUT
10
36.72
20
36.5
0
VERTEX
8
CUT
10
37.72
20
33.1667
0
SEQEND
0
POLYLINE
8
CUT
66
1
70
0
0
VERTEX
8
CUT
10
32.72
20
18.8333
0
VERTEX
8
CUT
10
33.72
20
15.5
0
VERTEX
8
CUT
10
36.72
20
15.5
0
VERTEX
8
CUT
10
37.72
20
18.8333
0
SEQEND
0
POLYLINE
8
CUT
66
1
70
0
0
VERTEX
8
CUT
10
32.72
20
22.1667
0
VERTEX
8
CUT
10
33.72
20
25.5
0
VERTEX
8
CUT
10
36.72
20
25.5
0
VERTEX
8
CUT
10
37.72
20
22.1667
0
SEQEND
0
POLYLINE
8
CUT
66
1
70
0
0
VERTEX
8
CUT
10
32.72
20
7.8333
0
VERTEX
8
CUT
10
33.72
20
4.5
0
VERTEX
8
CUT
10
36.72
20
4.5
0
VERTEX
8
CUT
10
37.72
20
7.8333
0
SEQEND
0
POLYLINE
8
CUT
66
1
70
0
0
VERTEX
8
CUT
10
32.72
20
11.1667
0
VERTEX
8
CUT
10
33.72
20
14.5
0
VERTEX
8
CUT
10
36.72
20
14.5
0
VERTEX
8
CUT
10
37.72
20
11.1667
0
SEQEND
0
POLYLINE
8
CUT
66
1
70
0
0
VERTEX
8
CUT
10
32.72
20
0.1667
0
VERTEX
8
CUT
10
33.72
20
3.5
0
VERTEX
8
CUT
10
36.72
20
3.5
0
VERTEX
8
CUT
10
37.72
20
0.1667
0
SEQEND
0
POLYLINE
8
CUT
66
1
70
0
0
VERTEX
8
CUT
10
38.09
20
68.3333
0
VERTEX
8
CUT
10
39.09
20
65
0
VERTEX
8
CUT
10
42.09
20
65
0
VERTEX
8
CUT
10
43.09
20
68.3333
0
SEQEND
0
POLYLINE
8
CUT
66
1
70
0
0
VERTEX
8
CUT
10
38.09
20
57.3333
0
VERTEX
8
CUT
10
39.09
20
54
0
VERTEX
8
CUT
10
42.09
20
54
0
VERTEX
8
CUT
10
43.09
20
57.3333
0
SEQEND
0
POLYLINE
8
CUT
66
1
70
0
0
VERTEX
8
CUT
10
38.09
20
60.6667
0
VERTEX
8
CUT
10
39.09
20
64
0
VERTEX
8
CUT
10
42.09
20
64
0
VERTEX
8
CUT
10
43.09
20
60.6667
0
SEQEND
0
POLYLINE
8
CUT
66
1
70
0
0
VERTEX
8
CUT
10
38.09
20
46.3333
0
VERTEX
8
CUT
10
39.09
20
43
0
VERTEX
8
CUT
10
42.09
20
43
0
VERTEX
8
CUT
10
43.09
20
46.3333
0
SEQEND
0
POLYLINE
8
CUT
66
1
70
0
0
VERTEX
8
CUT
10
38.09
20
49.6667
0
VERTEX
8
CUT
10
39.09
20
53
0
VERTEX
8
CUT
10
42.09
20
53
0
VERTEX
8
CUT
10
43.09
20
49.6667
0
SEQEND
0
POLYLINE
8
CUT
66
1
70
0
0
VERTEX
8
CUT
10
38.09
20
35.3333
0
VERTEX
8
CUT
10
39.09
20
32
0
VERTEX
8
CUT
10
42.09
20
32
0
VERTEX
8
CUT
10
43.09
20
35.3333
0
SEQEND
0
POLYLINE
8
CUT
66
1
70
0
0
VERTEX
8
CUT
10
38.09
20
38.6667
0
VERTEX
8
CUT
10
39.09
20
42
0
VERTEX
8
CUT
10
42.09
20
42
0
VERTEX
8
CUT
10
43.09
20
38.6667
0
SEQEND
0
POLYLINE
8
CUT
66
1
70
0
0
VERTEX
8
CUT
10
38.09
20
24.3333
0
VERTEX
8
CUT
10
39.09
20
21
0
VERTEX
8
CUT
10
42.09
20
21
0
VERTEX
8
CUT
10
43.09
20
24.3333
0
SEQEND
0
POLYLINE
8
CUT
66
1
70
0
0
VERTEX
8
CUT
10
38.09
20
27.6667
0
VERTEX
8
CUT
10
39.09
20
31
0
VERTEX
8
CUT
10
42.09
20
31
0
VERTEX
8
CUT
10
43.09
20
27.6667
0
SEQEND
0
POLYLINE
8
CUT
66
1
70
0
0
VERTEX
8
CUT
10
38.09
20
13.3333
0
VERTEX
8
CUT
10
39.09
20
10
0
VERTEX
8
CUT
10
42.09
20
10
0
VERTEX
8
CUT
10
43.09
20
13.3333
0
SEQEND
0
POLYLINE
8
CUT
66
1
70
0
0
VERTEX
8
CUT
10
38.09
20
16.6667
0
VERTEX
8
CUT
10
39.09
20
20
0
VERTEX
8
CUT
10
42.09
20
20
0
VERTEX
8
CUT
10
43.09
20
16.6667
0
SEQEND
0
LINE
8
CUT
10
38.09
20
2.3333
11
38.79
21
0
0
LINE
8
CUT
10
42.39
20
0
11
43.09
21
2.3333
0
POLYLINE
8
CUT
66
1
70
0
0
VERTEX
8
CUT
10
38.09
20
5.6667
0
VERTEX
8
CUT
10
39.09
20
9
0
VERTEX
8
CUT
10
42.09
20
9
0
VERTEX
8
CUT
10
43.09
20
5.6667
0
SEQEND
0
POLYLINE
8
CUT
66
1
70
0
0
VERTEX
8
CUT
10
43.46
20
62.8333
0
VERTEX
8
CUT
10
44.46
20
59.5
0
VERTEX
8
CUT
10
47.46
20
59.5
0
VERTEX
8
CUT
10
48.46
20
62.8333
0
SEQEND
0
POLYLINE
8
CUT
66
1
70
0
0
VERTEX
8
CUT
10
43.46
20
66.1667
0
VERTEX
8
CUT
10
44.46
20
69.5
0
VERTEX
8
CUT
10
47.46
20
69.5
0
VERTEX
8
CUT
10
48.46
20
66.1667
0
SEQEND
0
POLYLINE
8
CUT
66
1
70
0
0
VERTEX
8
CUT
10
43.46
20
51.8333
0
VERTEX
8
CUT
10
44.46
20
48.5
0
VERTEX
8
CUT
10
47.46
20
48.5
0
VERTEX
8
CUT
10
48.46
20
51.8333
0
SEQEND
0
POLYLINE
8
CUT
66
1
70
0
0
VERTEX
8
CUT
10
43.46
20
55.1667
0
VERTEX
8
CUT
10
44.46
20
58.5
0
VERTEX
8
CUT
10
47.46
20
58.5
0
VERTEX
8
CUT
10
48.46
20
55.1667
0
SEQEND
0
POLYLINE
8
CUT
66
1
70
0
0
VERTEX
8
CUT
10
43.46
20
40.8333
0
VERTEX
8
CUT
10
44.46
20
37.5
0
VERTEX
8
CUT
10
47.46
20
37.5
0
VERTEX
8
CUT
10
48.46
20
40.8333
0
SEQEND
0
POLYLINE
8
CUT
66
1
70
0
0
VERTEX
8
CUT
10
43.46
20
44.1667
0
VERTEX
8
CUT
10
44.46
20
47.5
0
VERTEX
8
CUT
10
47.46
20
47.5
0
VERTEX
8
CUT
10
48.46
20
44.1667
0
SEQEND
0
POLYLINE
8
CUT
66
1
70
0
0
VERTEX
8
CUT
10
43.46
20
29.8333
0
VERTEX
8
CUT
10
44.46
20
26.5
0
VERTEX
8
CUT
10
47.46
20
26.5
0
VERTEX
8
CUT
10
48.46
20
29.8333
0
SEQEND
0
POLYLINE
8
CUT
66
1
70
0
0
VERTEX
8
CUT
10
43.46
20
33.1667
0
VERTEX
8
CUT
10
44.46
20
36.5
0
VERTEX
8
CUT
10
47.46
20
36.5
0
VERTEX
8
CUT
10
48.46
20
33.1667
0
SEQEND
0
POLYLINE
8
CUT
66
1
70
0
0
VERTEX
8
CUT
10
43.46
20
18.8333
0
VERTEX
8
CUT
10
44.46
20
15.5
0
VERTEX
8
CUT
10
47.46
20
15.5
0
VERTEX
8
CUT
10
48.46
20
18.8333
0
SEQEND
0
POLYLINE
8
CUT
66
1
70
0
0
VERTEX
8
CUT
10
43.46
20
22.1667
0
VERTEX
8
CUT
10
44.46
20
25.5
0
VERTEX
8
CUT
10
47.46
20
25.5
0
VERTEX
8
CUT
10
48.46
20
22.1667
0
SEQEND
0
POLYLINE
8
CUT
66
1
70
0
0
VERTEX
8
CUT
10
43.46
20
7.8333
0
VERTEX
8
CUT
10
44.46
20
4.5
0
VERTEX
8
CUT
10
47.46
20
4.5
0
VERTEX
8
CUT
10
48.46
20
7.8333
0
SEQEND
0
POLYLINE
8
CUT
66
1
70
0
0
VERTEX
8
CUT
10
43.46
20
11.1667
0
VERTEX
8
CUT
10
44.46
20
14.5
0
VERTEX
8
CUT
10
47.46
20
14.5
0
VERTEX
8
CUT
10
48.46
20
11.1667
0
SEQEND
0
POLYLINE
8
CUT
66
1
70
0
0
VERTEX
8
CUT
10
43.46
20
0.1667
0
VERTEX
8
CUT
10
44.46
20
3.5
0
VERTEX
8
CUT
10
47.46
20
3.5
0
VERTEX
8
CUT
10
48.46
20
0.1667
0
SEQEND
0
POLYLINE
8
CUT
66
1
70
0
0
VERTEX
8
CUT
10
48.83
20
68.3333
0
VERTEX
8
CUT
10
49.83
20
65
0
VERTEX
8
CUT
10
52.83
20
65
0
VERTEX
8
CUT
10
53.83
20
68.3333
0
SEQEND
0
POLYLINE
8
CUT
66
1
70
0
0
VERTEX
8
CUT
10
48.83
20
57.3333
0
VERTEX
8
CUT
10
49.83
20
54
0
VERTEX
8
CUT
10
52.83
20
54
0
VERTEX
8
CUT
10
53.83
20
57.3333
0
SEQEND
0
POLYLINE
8
CUT
66
1
70
0
0
VERTEX
8
CUT
10
48.83
20
60.6667
0
VERTEX
8
CUT
10
49.83
20
64
0
VERTEX
8
CUT
10
52.83
20
64
0
VERTEX
8
CUT
10
53.83
20
60.6667
0
SEQEND
0
POLYLINE
8
CUT
66
1
70
0
0
VERTEX
8
CUT
10
48.83
20
46.3333
0
VERTEX
8
CUT
10
49.83
20
43
0
VERTEX
8
CUT
10
52.83
20
43
0
VERTEX
8
CUT
10
53.83
20
46.3333
0
SEQEND
0
POLYLINE
8
CUT
66
1
70
0
0
VERTEX
8
CUT
10
48.83
20
49.6667
0
VERTEX
8
CUT
10
49.83
20
53
0
VERTEX
8
CUT
10
52.83
20
53
0
VERTEX
8
CUT
10
53.83
20
49.6667
0
SEQEND
0
POLYLINE
8
CUT
66
1
70
0
0
VERTEX
8
CUT
10
48.83
20
35.3333
0
VERTEX
8
CUT
10
49.83
20
32
0
VERTEX
8
CUT
10
52.83
20
32
0
VERTEX
8
CUT
10
53.83
20
35.3333
0
SEQEND
0
POLYLINE
8
CUT
66
1
70
0
0
VERTEX
8
CUT
10
48.83
20
38.6667
0
VERTEX
8
CUT
10
49.83
20
42
0
VERTEX
8
CUT
10
52.83
20
42
0
VERTEX
8
CUT
10
53.83
20
38.6667
0
SEQEND
0
POLYLINE
8
CUT
66
1
70
0
0
VERTEX
8
CUT
10
48.83
20
24.3333
0
VERTEX
8
CUT
10
49.83
20
21
0
VERTEX
8
CUT
10
52.83
20
21
0
VERTEX
8
CUT
10
53.83
20
24.3333
0
SEQEND
0
POLYLINE
8
CUT
66
1
70
0
0
VERTEX
8
CUT
10
48.83
20
27.6667
0
VERTEX
8
CUT
10
49.83
20
31
0
VERTEX
8
CUT
10
52.83
20
31
0
VERTEX
8
CUT
10
53.83
20
27.6667
0
SEQEND
0
POLYLINE
8
CUT
66
1
70
0
0
VERTEX
8
CUT
10
48.83
20
13.3333
0
VERTEX
8
CUT
10
49.83
20
10
0
VERTEX
8
CUT
10
52.83
20
10
0
VERTEX
8
CUT
10
53.83
20
13.3333
0
SEQEND
0
POLYLINE
8
CUT
66
1
70
0
0
VERTEX
8
CUT
10
48.83
20
16.6667
0
VERTEX
8
CUT
10
49.83
20
20
0
VERTEX
8
CUT
10
52.83
20
20
0
VERTEX
8
CUT
10
53.83
20
16.6667
0
SEQEND
0
LINE
8
CUT
10
48.83
20
2.3333
11
49.53
21
0
0
LINE
8
CUT
10
53.13
20
0
11
53.83
21
2.3333
0
POLYLINE
8
CUT
66
1
70
0
0
VERTEX
8
CUT
10
48.83
20
5.6667
0
VERTEX
8
CUT
10
49.83
20
9
0
VERTEX
8
CUT
10
52.83
20
9
0
VERTEX
8
CUT
10
53.83
20
5.6667
0
SEQEND
0
POLYLINE
8
CUT
66
1
70
0
0
VERTEX
8
CUT
10
54.2
20
62.8333
0
VERTEX
8
CUT
10
55.2
20
59.5
0
VERTEX
8
CUT
10
58.2
20
59.5
0
VERTEX
8
CUT
10
59.2
20
62.8333
0
SEQEND
0
POLYLINE
8
CUT
66
1
70
0
0
VERTEX
8
CUT
10
54.2
20
66.1667
0
VERTEX
8
CUT
10
55.2
20
69.5
0
VERTEX
8
CUT
10
58.2
20
69.5
0
VERTEX
8
CUT
10
59.2
20
66.1667
0
SEQEND
0
POLYLINE
8
CUT
66
1
70
0
0
VERTEX
8
CUT
10
54.2
20
51.8333
0
VERTEX
8
CUT
10
55.2
20
48.5
0
VERTEX
8
CUT
10
58.2
20
48.5
0
VERTEX
8
CUT
10
59.2
20
51.8333
0
SEQEND
0
POLYLINE
8
CUT
66
1
70
0
0
VERTEX
8
CUT
10
54.2
20
55.1667
0
VERTEX
8
CUT
10
55.2
20
58.5
0
VERTEX
8
CUT
10
58.2
20
58.5
0
VERTEX
8
CUT
10
59.2
20
55.1667
0
SEQEND
0
POLYLINE
8
CUT
66
1
70
0
0
VERTEX
8
CUT
10
54.2
20
40.8333
0
VERTEX
8
CUT
10
55.2
20
37.5
0
VERTEX
8
CUT
10
58.2
20
37.5
0
VERTEX
8
CUT
10
59.2
20
40.8333
0
SEQEND
0
POLYLINE
8
CUT
66
1
70
0
0
VERTEX
8
CUT
10
54.2
20
44.1667
0
VERTEX
8
CUT
10
55.2
20
47.5
0
VERTEX
8
CUT
10
58.2
20
47.5
0
VERTEX
8
CUT
10
59.2
20
44.1667
0
SEQEND
0
POLYLINE
8
CUT
66
1
70
0
0
VERTEX
8
CUT
10
54.2
20
29.8333
0
VERTEX
8
CUT
10
55.2
20
26.5
0
VERTEX
8
CUT
10
58.2
20
26.5
0
VERTEX
8
CUT
10
59.2
20
29.8333
0
SEQEND
0
POLYLINE
8
CUT
66
1
70
0
0
VERTEX
8
CUT
10
54.2
20
33.1667
0
VERTEX
8
CUT
10
55.2
20
36.5
0
VERTEX
8
CUT
10
58.2
20
36.5
0
VERTEX
8
CUT
10
59.2
20
33.1667
0
SEQEND
0
POLYLINE
8
CUT
66
1
70
0
0
VERTEX
8
CUT
10
54.2
20
18.8333
0
VERTEX
8
CUT
10
55.2
20
15.5
0
VERTEX
8
CUT
10
58.2
20
15.5
0
VERTEX
8
CUT
10
59.2
20
18.8333
0
SEQEND
0
POLYLINE
8
CUT
66
1
70
0
0
VERTEX
8
CUT
10
54.2
20
22.1667
0
VERTEX
8
CUT
10
55.2
20
25.5
0
VERTEX
8
CUT
10
58.2
20
25.5
0
VERTEX
8
CUT
10
59.2
20
22.1667
0
SEQEND
0
POLYLINE
8
CUT
66
1
70
0
0
VERTEX
8
CUT
10
54.2
20
7.8333
0
VERTEX
8
CUT
10
55.2
20
4.5
0
VERTEX
8
CUT
10
58.2
20
4.5
0
VERTEX
8
CUT
10
59.2
20
7.8333
0
SEQEND
0
POLYLINE
8
CUT
66
1
70
0
0
VERTEX
8
CUT
10
54.2
20
11.1667
0
VERTEX
8
CUT
10
55.2
20
14.5
0
VERTEX
8
CUT
10
58.2
20
14.5
0
VERTEX
8
CUT
10
59.2
20
11.1667
0
SEQEND
0
POLYLINE
8
CUT
66
1
70
0
0
VERTEX
8
CUT
10
54.2
20
0.1667
0
VERTEX
8
CUT
10
55.2
20
3.5
0
VERTEX
8
CUT
10
58.2
20
3.5
0
VERTEX
8
CUT
10
59.2
20
0.1667
0
SEQEND
0
POLYLINE
8
CUT
66
1
70
0
0
VERTEX
8
CUT
10
59.57
20
68.3333
0
VERTEX
8
CUT
10
60.57
20
65
0
VERTEX
8
CUT
10
63.57
20
65
0
VERTEX
8
CUT
10
64.57
20
68.3333
0
SEQEND
0
POLYLINE
8
CUT
66
1
70
0
0
VERTEX
8
CUT
10
59.57
20
57.3333
0
VERTEX
8
CUT
10
60.57
20
54
0
VERTEX
8
CUT
10
63.57
20
54
0
VERTEX
8
CUT
10
64.57
20
57.3333
0
SEQEND
0
POLYLINE
8
CUT
66
1
70
0
0
VERTEX
8
CUT
10
59.57
20
60.6667
0
VERTEX
8
CUT
10
60.57
20
64
0
VERTEX
8
CUT
10
63.57
20
64
0
VERTEX
8
CUT
10
64.57
20
60.6667
0
SEQEND
0
POLYLINE
8
CUT
66
1
70
0
0
VERTEX
8
CUT
10
59.57
20
46.3333
0
VERTEX
8
CUT
10
60.57
20
43
0
VERTEX
8
CUT
10
63.57
20
43
0
VERTEX
8
CUT
10
64.57
20
46.3333
0
SEQEND
0
POLYLINE
8
CUT
66
1
70
0
0
VERTEX
8
CUT
10
59.57
20
49.6667
0
VERTEX
8
CUT
10
60.57
20
53
0
VERTEX
8
CUT
10
63.57
20
53
0
VERTEX
8
CUT
10
64.57
20
49.6667
0
SEQEND
0
POLYLINE
8
CUT
66
1
70
0
0
VERTEX
8
CUT
10
59.57
20
35.3333
0
VERTEX
8
CUT
10
60.57
20
32
0
VERTEX
8
CUT
10
63.57
20
32
0
VERTEX
8
CUT
10
64.57
20
35.3333
0
SEQEND
0
POLYLINE
8
CUT
66
1
70
0
0
VERTEX
8
CUT
10
59.57
20
38.6667
0
VERTEX
8
CUT
10
60.57
20
42
0
VERTEX
8
CUT
10
63.57
20
42
0
VERTEX
8
CUT
10
64.57
20
38.6667
0
SEQEND
0
POLYLINE
8
CUT
66
1
70
0
0
VERTEX
8
CUT
10
59.57
20
24.3333
0
VERTEX
8
CUT
10
60.57
20
21
0
VERTEX
8
CUT
10
63.57
20
21
0
VERTEX
8
CUT
10
64.57
20
24.3333
0
SEQEND
0
POLYLINE
8
CUT
66
1
70
0
0
VERTEX
8
CUT
10
59.57
20
27.6667
0
VERTEX
8
CUT
10
60.57
20
31
0
VERTEX
8
CUT
10
63.57
20
31
0
VERTEX
8
CUT
10
64.57
20
27.6667
0
SEQEND
0
POLYLINE
8
CUT
66
1
70
0
0
VERTEX
8
CUT
10
59.57
20
13.3333
0
VERTEX
8
CUT
10
60.57
20
10
0
VERTEX
8
CUT
10
63.57
20
10
0
VERTEX
8
CUT
10
64.57
20
13.3333
0
SEQEND
0
POLYLINE
8
CUT
66
1
70
0
0
VERTEX
8
CUT
10
59.57
20
16.6667
0
VERTEX
8
CUT
10
60.57
20
20
0
VERTEX
8
CUT
10
63.57
20
20
0
VERTEX
8
CUT
10
64.57
20
16.6667
0
SEQEND
0
LINE
8
CUT
10
59.57
20
2.3333
11
60.27
21
0
0
LINE
8
CUT
10
63.87
20
0
11
64.57
21
2.3333
0
POLYLINE
8
CUT
66
1
70
0
0
VERTEX
8
CUT
10
59.57
20
5.6667
0
VERTEX
8
CUT
10
60.57
20
9
0
VERTEX
8
CUT
10
63.57
20
9
0
VERTEX
8
CUT
10
64.57
20
5.6667
0
SEQEND
0
POLYLINE
8
CUT
66
1
70
0
0
VERTEX
8
CUT
10
64.94
20
62.8333
0
VERTEX
8
CUT
10
65.94
20
59.5
0
VERTEX
8
CUT
10
68.94
20
59.5
0
VERTEX
8
CUT
10
69.94
20
62.8333
0
SEQEND
0
POLYLINE
8
CUT
66
1
70
0
0
VERTEX
8
CUT
10
64.94
20
66.1667
0
VERTEX
8
CUT
10
65.94
20
69.5
0
VERTEX
8
CUT
10
68.94
20
69.5
0
VERTEX
8
CUT
10
69.94
20
66.1667
0
SEQEND
0
POLYLINE
8
CUT
66
1
70
0
0
VERTEX
8
CUT
10
64.94
20
51.8333
0
VERTEX
8
CUT
10
65.94
20
48.5
0
VERTEX
8
CUT
10
68.94
20
48.5
0
VERTEX
8
CUT
10
69.94
20
51.8333
0
SEQEND
0
POLYLINE
8
CUT
66
1
70
0
0
VERTEX
8
CUT
10
64.94
20
55.1667
0
VERTEX
8
CUT
10
65.94
20
58.5
0
VERTEX
8
CUT
10
68.94
20
58.5
0
VERTEX
8
CUT
10
69.94
20
55.1667
0
SEQEND
0
POLYLINE
8
CUT
66
1
70
0
0
VERTEX
8
CUT
10
64.94
20
40.8333
0
VERTEX
8
CUT
10
65.94
20
37.5
0
VERTEX
8
CUT
10
68.94
20
37.5
0
VERTEX
8
CUT
10
69.94
20
40.8333
0
SEQEND
0
POLYLINE
8
CUT
66
1
70
0
0
VERTEX
8
CUT
10
64.94
20
44.1667
0
VERTEX
8
CUT
10
65.94
20
47.5
0
VERTEX
8
CUT
10
68.94
20
47.5
0
VERTEX
8
CUT
10
69.94
20
44.1667
0
SEQEND
0
POLYLINE
8
CUT
66
1
70
0
0
VERTEX
8
CUT
10
64.94
20
29.8333
0
VERTEX
8
CUT
10
65.94
20
26.5
0
VERTEX
8
CUT
10
68.94
20
26.5
0
VERTEX
8
CUT
10
69.94
20
29.8333
0
SEQEND
0
POLYLINE
8
CUT
66
1
70
0
0
VERTEX
8
CUT
10
64.94
20
33.1667
0
VERTEX
8
CUT
10
65.94
20
36.5
0
VERTEX
8
CUT
10
68.94
20
36.5
0
VERTEX
8
CUT
10
69.94
20
33.1667
0
SEQEND
0
POLYLINE
8
CUT
66
1
70
0
0
VERTEX
8
CUT
10
64.94
20
18.8333
0
VERTEX
8
CUT
10
65.94
20
15.5
0
VERTEX
8
CUT
10
68.94
20
15.5
0
VERTEX
8
CUT
10
69.94
20
18.8333
0
SEQEND
0
POLYLINE
8
CUT
66
1
70
0
0
VERTEX
8
CUT
10
64.94
20
22.1667
0
VERTEX
8
CUT
10
65.94
20
25.5
0
VERTEX
8
CUT
10
68.94
20
25.5
0
VERTEX
8
CUT
10
69.94
20
22.1667
0
SEQEND
0
POLYLINE
8
CUT
66
1
70
0
0
VERTEX
8
CUT
10
64.94
20
7.8333
0
VERTEX
8
CUT
10
65.94
20
4.5
0
VERTEX
8
CUT
10
68.94
20
4.5
0
VERTEX
8
CUT
10
69.94
20
7.8333
0
SEQEND
0
POLYLINE
8
CUT
66
1
70
0
0
VERTEX
8
CUT
10
64.94
20
11.1667
0
VERTEX
8
CUT
10
65.94
20
14.5
0
VERTEX
8
CUT
10
68.94
20
14.5
0
VERTEX
8
CUT
10
69.94
20
11.1667
0
SEQEND
0
POLYLINE
8
CUT
66
1
70
0
0
VERTEX
8
CUT
10
64.94
20
0.1667
0
VERTEX
8
CUT
10
65.94
20
3.5
0
VERTEX
8
CUT
10
68.94
20
3.5
0
VERTEX
8
CUT
10
69.94
20
0.1667
0
SEQEND
0
POLYLINE
8
CUT
66
1
70
0
0
VERTEX
8
CUT
10
70.31
20
68.3333
0
VERTEX
8
CUT
10
71.31
20
65
0
VERTEX
8
CUT
10
74.31
20
65
0
VERTEX
8
CUT
10
75.31
20
68.3333
0
SEQEND
0
POLYLINE
8
CUT
66
1
70
0
0
VERTEX
8
CUT
10
70.31
20
57.3333
0
VERTEX
8
CUT
10
71.31
20
54
0
VERTEX
8
CUT
10
74.31
20
54
0
VERTEX
8
CUT
10
75.31
20
57.3333
0
SEQEND
0
POLYLINE
8
CUT
66
1
70
0
0
VERTEX
8
CUT
10
70.31
20
60.6667
0
VERTEX
8
CUT
10
71.31
20
64
0
VERTEX
8
CUT
10
74.31
20
64
0
VERTEX
8
CUT
10
75.31
20
60.6667
0
SEQEND
0
POLYLINE
8
CUT
66
1
70
0
0
VERTEX
8
CUT
10
70.31
20
46.3333
0
VERTEX
8
CUT
10
71.31
20
43
0
VERTEX
8
CUT
10
74.31
20
43
0
VERTEX
8
CUT
10
75.31
20
46.3333
0
SEQEND
0
POLYLINE
8
CUT
66
1
70
0
0
VERTEX
8
CUT
10
70.31
20
49.6667
0
VERTEX
8
CUT
10
71.31
20
53
0
VERTEX
8
CUT
10
74.31
20
53
0
VERTEX
8
CUT
10
75.31
20
49.6667
0
SEQEND
0
POLYLINE
8
CUT
66
1
70
0
0
VERTEX
8
CUT
10
70.31
20
35.3333
0
VERTEX
8
CUT
10
71.31
20
32
0
VERTEX
8
CUT
10
74.31
20
32
0
VERTEX
8
CUT
10
75.31
20
35.3333
0
SEQEND
0
POLYLINE
8
CUT
66
1
70
0
0
VERTEX
8
CUT
10
70.31
20
38.6667
0
VERTEX
8
CUT
10
71.31
20
42
0
VERTEX
8
CUT
10
74.31
20
42
0
VERTEX
8
CUT
10
75.31
20
38.6667
0
SEQEND
0
POLYLINE
8
CUT
66
1
70
0
0
VERTEX
8
CUT
10
70.31
20
24.3333
0
VERTEX
8
CUT
10
71.31
20
21
0
VERTEX
8
CUT
10
74.31
20
21
0
VERTEX
8
CUT
10
75.31
20
24.3333
0
SEQEND
0
POLYLINE
8
CUT
66
1
70
0
0
VERTEX
8
CUT
10
70.31
20
27.6667
0
VERTEX
8
CUT
10
71.31
20
31
0
VERTEX
8
CUT
10
74.31
20
31
0
VERTEX
8
CUT
10
75.31
20
27.6667
0
SEQEND
0
POLYLINE
8
CUT
66
1
70
0
0
VERTEX
8
CUT
10
70.31
20
13.3333
0
VERTEX
8
CUT
10
71.31
20
10
0
VERTEX
8
CUT
10
74.31
20
10
0
VERTEX
8
CUT
10
75.31
20
13.3333
0
SEQEND
0
POLYLINE
8
CUT
66
1
70
0
0
VERTEX
8
CUT
10
70.31
20
16.6667
0
VERTEX
8
CUT
10
71.31
20
20
0
VERTEX
8
CUT
10
74.31
20
20
0
VERTEX
8
CUT
10
75.31
20
16.6667
0
SEQEND
0
LINE
8
CUT
10
70.31
20
2.3333
11
71.01
21
0
0
LINE
8
CUT
10
74.61
20
0
11
75.31
21
2.3333
0
POLYLINE
8
CUT
66
1
70
0
0
VERTEX
8
CUT
10
70.31
20
5.6667
0
VERTEX
8
CUT
10
71.31
20
9
0
VERTEX
8
CUT
10
74.31
20
9
0
VERTEX
8
CUT
10
75.31
20
5.6667
0
SEQEND
0
POLYLINE
8
CUT
66
1
70
0
0
VERTEX
8
CUT
10
75.68
20
62.8333
0
VERTEX
8
CUT
10
76.68
20
59.5
0
VERTEX
8
CUT
10
79.68
20
59.5
0
VERTEX
8
CUT
10
80.68
20
62.8333
0
SEQEND
0
POLYLINE
8
CUT
66
1
70
0
0
VERTEX
8
CUT
10
75.68
20
66.1667
0
VERTEX
8
CUT
10
76.68
20
69.5
0
VERTEX
8
CUT
10
79.68
20
69.5
0
VERTEX
8
CUT
10
80.68
20
66.1667
0
SEQEND
0
POLYLINE
8
CUT
66
1
70
0
0
VERTEX
8
CUT
10
75.68
20
51.8333
0
VERTEX
8
CUT
10
76.68
20
48.5
0
VERTEX
8
CUT
10
79.68
20
48.5
0
VERTEX
8
CUT
10
80.68
20
51.8333
0
SEQEND
0
POLYLINE
8
CUT
66
1
70
0
0
VERTEX
8
CUT
10
75.68
20
55.1667
0
VERTEX
8
CUT
10
76.68
20
58.5
0
VERTEX
8
CUT
10
79.68
20
58.5
0
VERTEX
8
CUT
10
80.68
20
55.1667
0
SEQEND
0
POLYLINE
8
CUT
66
1
70
0
0
VERTEX
8
CUT
10
75.68
20
40.8333
0
VERTEX
8
CUT
10
76.68
20
37.5
0
VERTEX
8
CUT
10
79.68
20
37.5
0
VERTEX
8
CUT
10
80.68
20
40.8333
0
SEQEND
0
POLYLINE
8
CUT
66
1
70
0
0
VERTEX
8
CUT
10
75.68
20
44.1667
0
VERTEX
8
CUT
10
76.68
20
47.5
0
VERTEX
8
CUT
10
79.68
20
47.5
0
VERTEX
8
CUT
10
80.68
20
44.1667
0
SEQEND
0
POLYLINE
8
CUT
66
1
70
0
0
VERTEX
8
CUT
10
75.68
20
29.8333
0
VERTEX
8
CUT
10
76.68
20
26.5
0
VERTEX
8
CUT
10
79.68
20
26.5
0
VERTEX
8
CUT
10
80.68
20
29.8333
0
SEQEND
0
POLYLINE
8
CUT
66
1
70
0
0
VERTEX
8
CUT
10
75.68
20
33.1667
0
VERTEX
8
CUT
10
76.68
20
36.5
0
VERTEX
8
CUT
10
79.68
20
36.5
0
VERTEX
8
CUT
10
80.68
20
33.1667
0
SEQEND
0
POLYLINE
8
CUT
66
1
70
0
0
VERTEX
8
CUT
10
75.68
20
18.8333
0
VERTEX
8
CUT
10
76.68
20
15.5
0
VERTEX
8
CUT
10
79.68
20
15.5
0
VERTEX
8
CUT
10
80.68
20
18.8333
0
SEQEND
0
POLYLINE
8
CUT
66
1
70
0
0
VERTEX
8
CUT
10
75.68
20
22.1667
0
VERTEX
8
CUT
10
76.68
20
25.5
0
VERTEX
8
CUT
10
79.68
20
25.5
0
VERTEX
8
CUT
10
80.68
20
22.1667
0
SEQEND
0
POLYLINE
8
CUT
66
1
70
0
0
VERTEX
8
CUT
10
75.68
20
7.8333
0
VERTEX
8
CUT
10
76.68
20
4.5
0
VERTEX
8
CUT
10
79.68
20
4.5
0
VERTEX
8
CUT
10
80.68
20
7.8333
0
SEQEND
0
POLYLINE
8
CUT
66
1
70
0
0
VERTEX
8
CUT
10
75.68
20
11.1667
0
VERTEX
8
CUT
10
76.68
20
14.5
0
VERTEX
8
CUT
10
79.68
20
14.5
0
VERTEX
8
CUT
10
80.68
20
11.1667
0
SEQEND
0
POLYLINE
8
CUT
66
1
70
0
0
VERTEX
8
CUT
10
75.68
20
0.1667
0
VERTEX
8
CUT
10
76.68
20
3.5
0
VERTEX
8
CUT
10
79.68
20
3.5
0
VERTEX
8
CUT
10
80.68
20
0.1667
0
SEQEND
0
POLYLINE
8
CUT
66
1
70
0
0
VERTEX
8
CUT
10
81.05
20
68.3333
0
VERTEX
8
CUT
10
82.05
20
65
0
VERTEX
8
CUT
10
85.05
20
65
0
VERTEX
8
CUT
10
86.05
20
68.3333
0
SEQEND
0
POLYLINE
8
CUT
66
1
70
0
0
VERTEX
8
CUT
10
81.05
20
57.3333
0
VERTEX
8
CUT
10
82.05
20
54
0
VERTEX
8
CUT
10
85.05
20
54
0
VERTEX
8
CUT
10
86.05
20
57.3333
0
SEQEND
0
POLYLINE
8
CUT
66
1
70
0
0
VERTEX
8
CUT
10
81.05
20
60.6667
0
VERTEX
8
CUT
10
82.05
20
64
0
VERTEX
8
CUT
10
85.05
20
64
0
VERTEX
8
CUT
10
86.05
20
60.6667
0
SEQEND
0
POLYLINE
8
CUT
66
1
70
0
0
VERTEX
8
CUT
10
81.05
20
46.3333
0
VERTEX
8
CUT
10
82.05
20
43
0
VERTEX
8
CUT
10
85.05
20
43
0
VERTEX
8
CUT
10
86.05
20
46.3333
0
SEQEND
0
POLYLINE
8
CUT
66
1
70
0
0
VERTEX
8
CUT
10
81.05
20
49.6667
0
VERTEX
8
CUT
10
82.05
20
53
0
VERTEX
8
CUT
10
85.05
20
53
0
VERTEX
8
CUT
10
86.05
20
49.6667
0
SEQEND
0
POLYLINE
8
CUT
66
1
70
0
0
VERTEX
8
CUT
10
81.05
20
35.3333
0
VERTEX
8
CUT
10
82.05
20
32
0
VERTEX
8
CUT
10
85.05
20
32
0
VERTEX
8
CUT
10
86.05
20
35.3333
0
SEQEND
0
POLYLINE
8
CUT
66
1
70
0
0
VERTEX
8
CUT
10
81.05
20
38.6667
0
VERTEX
8
CUT
10
82.05
20
42
0
VERTEX
8
CUT
10
85.05
20
42
0
VERTEX
8
CUT
10
86.05
20
38.6667
0
SEQEND
0
POLYLINE
8
CUT
66
1
70
0
0
VERTEX
8
CUT
10
81.05
20
24.3333
0
VERTEX
8
CUT
10
82.05
20
21
0
VERTEX
8
CUT
10
85.05
20
21
0
VERTEX
8
CUT
10
86.05
20
24.3333
0
SEQEND
0
POLYLINE
8
CUT
66
1
70
0
0
VERTEX
8
CUT
10
81.05
20
27.6667
0
VERTEX
8
CUT
10
82.05
20
31
0
VERTEX
8
CUT
10
85.05
20
31
0
VERTEX
8
CUT
10
86.05
20
27.6667
0
SEQEND
0
POLYLINE
8
CUT
66
1
70
0
0
VERTEX
8
CUT
10
81.05
20
13.3333
0
VERTEX
8
CUT
10
82.05
20
10
0
VERTEX
8
CUT
10
85.05
20
10
0
VERTEX
8
CUT
10
86.05
20
13.3333
0
SEQEND
0
POLYLINE
8
CUT
66
1
70
0
0
VERTEX
8
CUT
10
81.05
20
16.6667
0
VERTEX
8
CUT
10
82.05
20
20
0
VERTEX
8
CUT
10
85.05
20
20
0
VERTEX
8
CUT
10
86.05
20
16.6667
0
SEQEND
0
LINE
8
CUT
10
81.05
20
2.3333
11
81.75
21
0
0
LINE
8
CUT
10
85.35
20
0
11
86.05
21
2.3333
0
POLYLINE
8
CUT
66
1
70
0
0
VERTEX
8
CUT
10
81.05
20
5.6667
0
VERTEX
8
CUT
10
82.05
20
9
0
VERTEX
8
CUT
10
85.05
20
9
0
VERTEX
8
CUT
10
86.05
20
5.6667
0
SEQEND
0
POLYLINE
8
CUT
66
1
70
0
0
VERTEX
8
CUT
10
86.42
20
62.8333
0
VERTEX
8
CUT
10
87.42
20
59.5
0
VERTEX
8
CUT
10
90.42
20
59.5
0
VERTEX
8
CUT
10
91.42
20
62.8333
0
SEQEND
0
POLYLINE
8
CUT
66
1
70
0
0
VERTEX
8
CUT
10
86.42
20
66.1667
0
VERTEX
8
CUT
10
87.42
20
69.5
0
VERTEX
8
CUT
10
90.42
20
69.5
0
VERTEX
8
CUT
10
91.42
20
66.1667
0
SEQEND
0
POLYLINE
8
CUT
66
1
70
0
0
VERTEX
8
CUT
10
86.42
20
51.8333
0
VERTEX
8
CUT
10
87.42
20
48.5
0
VERTEX
8
CUT
10
90.42
20
48.5
0
VERTEX
8
CUT
10
91.42
20
51.8333
0
SEQEND
0
POLYLINE
8
CUT
66
1
70
0
0
VERTEX
8
CUT
10
86.42
20
55.1667
0
VERTEX
8
CUT
10
87.42
20
58.5
0
VERTEX
8
CUT
10
90.42
20
58.5
0
VERTEX
8
CUT
10
91.42
20
55.1667
0
SEQEND
0
POLYLINE
8
CUT
66
1
70
0
0
VERTEX
8
CUT
10
86.42
20
40.8333
0
VERTEX
8
CUT
10
87.42
20
37.5
0
VERTEX
8
CUT
10
90.42
20
37.5
0
VERTEX
8
CUT
10
91.42
20
40.8333
0
SEQEND
0
POLYLINE
8
CUT
66
1
70
0
0
VERTEX
8
CUT
10
86.42
20
44.1667
0
VERTEX
8
CUT
10
87.42
20
47.5
0
VERTEX
8
CUT
10
90.42
20
47.5
0
VERTEX
8
CUT
10
91.42
20
44.1667
0
SEQEND
0
POLYLINE
8
CUT
66
1
70
0
0
VERTEX
8
CUT
10
86.42
20
29.8333
0
VERTEX
8
CUT
10
87.42
20
26.5
0
VERTEX
8
CUT
10
90.42
20
26.5
0
VERTEX
8
CUT
10
91.42
20
29.8333
0
SEQEND
0
POLYLINE
8
CUT
66
1
70
0
0
VERTEX
8
CUT
10
86.42
20
33.1667
0
VERTEX
8
CUT
10
87.42
20
36.5
0
VERTEX
8
CUT
10
90.42
20
36.5
0
VERTEX
8
CUT
10
91.42
20
33.1667
0
SEQEND
0
POLYLINE
8
CUT
66
1
70
0
0
VERTEX
8
CUT
10
86.42
20
18.8333
0
VERTEX
8
CUT
10
87.42
20
15.5
0
VERTEX
8
CUT
10
90.42
20
15.5
0
VERTEX
8
CUT
10
91.42
20
18.8333
0
SEQEND
0
POLYLINE
8
CUT
66
1
70
0
0
VERTEX
8
CUT
10
86.42
20
22.1667
0
VERTEX
8
CUT
10
87.42
20
25.5
0
VERTEX
8
CUT
10
90.42
20
25.5
0
VERTEX
8
CUT
10
91.42
20
22.1667
0
SEQEND
0
POLYLINE
8
CUT
66
1
70
0
0
VERTEX
8
CUT
10
86.42
20
7.8333
0
VERTEX
8
CUT
10
87.42
20
4.5
0
VERTEX
8
CUT
10
90.42
20
4.5
0
VERTEX
8
CUT
10
91.42
20
7.8333
0
SEQEND
0
POLYLINE
8
CUT
66
1
70
0
0
VERTEX
8
CUT
10
86.42
20
11.1667
0
VERTEX
8
CUT
10
87.42
20
14.5
0
VERTEX
8
CUT
10
90.42
20
14.5
0
VERTEX
8
CUT
10
91.42
20
11.1667
0
SEQEND
0
POLYLINE
8
CUT
66
1
70
0
0
VERTEX
8
CUT
10
86.42
20
0.1667
0
VERTEX
8
CUT
10
87.42
20
3.5
0
VERTEX
8
CUT
10
90.42
20
3.5
0
VERTEX
8
CUT
10
91.42
20
0.1667
0
SEQEND
0
POLYLINE
8
CUT
66
1
70
0
0
VERTEX
8
CUT
10
91.79
20
68.3333
0
VERTEX
8
CUT
10
92.79
20
65
0
VERTEX
8
CUT
10
95.79
20
65
0
VERTEX
8
CUT
10
96.79
20
68.3333
0
SEQEND
0
POLYLINE
8
CUT
66
1
70
0
0
VERTEX
8
CUT
10
91.79
20
57.3333
0
VERTEX
8
CUT
10
92.79
20
54
0
VERTEX
8
CUT
10
95.79
20
54
0
VERTEX
8
CUT
10
96.79
20
57.3333
0
SEQEND
0
POLYLINE
8
CUT
66
1
70
0
0
VERTEX
8
CUT
10
91.79
20
60.6667
0
VERTEX
8
CUT
10
92.79
20
64
0
VERTEX
8
CUT
10
95.79
20
64
0
VERTEX
8
CUT
10
96.79
20
60.6667
0
SEQEND
0
POLYLINE
8
CUT
66
1
70
0
0
VERTEX
8
CUT
10
91.79
20
46.3333
0
VERTEX
8
CUT
10
92.79
20
43
0
VERTEX
8
CUT
10
95.79
20
43
0
VERTEX
8
CUT
10
96.79
20
46.3333
0
SEQEND
0
POLYLINE
8
CUT
66
1
70
0
0
VERTEX
8
CUT
10
91.79
20
49.6667
0
VERTEX
8
CUT
10
92.79
20
53
0
VERTEX
8
CUT
10
95.79
20
53
0
VERTEX
8
CUT
10
96.79
20
49.6667
0
SEQEND
0
POLYLINE
8
CUT
66
1
70
0
0
VERTEX
8
CUT
10
91.79
20
35.3333
0
VERTEX
8
CUT
10
92.79
20
32
0
VERTEX
8
CUT
10
95.79
20
32
0
VERTEX
8
CUT
10
96.79
20
35.3333
0
SEQEND
0
POLYLINE
8
CUT
66
1
70
0
0
VERTEX
8
CUT
10
91.79
20
38.6667
0
VERTEX
8
CUT
10
92.79
20
42
0
VERTEX
8
CUT
10
95.79
20
42
0
VERTEX
8
CUT
10
96.79
20
38.6667
0
SEQEND
0
POLYLINE
8
CUT
66
1
70
0
0
VERTEX
8
CUT
10
91.79
20
24.3333
0
VERTEX
8
CUT
10
92.79
20
21
0
VERTEX
8
CUT
10
95.79
20
21
0
VERTEX
8
CUT
10
96.79
20
24.3333
0
SEQEND
0
POLYLINE
8
CUT
66
1
70
0
0
VERTEX
8
CUT
10
91.79
20
27.6667
0
VERTEX
8
CUT
10
92.79
20
31
0
VERTEX
8
CUT
10
95.79
20
31
0
VERTEX
8
CUT
10
96.79
20
27.6667
0
SEQEND
0
POLYLINE
8
CUT
66
1
70
0
0
VERTEX
8
CUT
10
91.79
20
13.3333
0
VERTEX
8
CUT
10
92.79
20
10
0
VERTEX
8
CUT
10
95.79
20
10
0
VERTEX
8
CUT
10
96.79
20
13.3333
0
SEQEND
0
POLYLINE
8
CUT
66
1
70
0
0
VERTEX
8
CUT
10
91.79
20
16.6667
0
VERTEX
8
CUT
10
92.79
20
20
0
VERTEX
8
CUT
10
95.79
20
20
0
VERTEX
8
CUT
10
96.79
20
16.6667
0
SEQEND
0
LINE
8
CUT
10
91.79
20
2.3333
11
92.49
21
0
0
LINE
8
CUT
10
96.09
20
0
11
96.79
21
2.3333
0
POLYLINE
8
CUT
66
1
70
0
0
VERTEX
8
CUT
10
91.79
20
5.6667
0
VERTEX
8
CUT
10
92.79
20
9
0
VERTEX
8
CUT
10
95.79
20
9
0
VERTEX
8
CUT
10
96.79
20
5.6667
0
SEQEND
0
POLYLINE
8
CUT
66
1
70
0
0
VERTEX
8
CUT
10
97.16
20
62.8333
0
VERTEX
8
CUT
10
98.16
20
59.5
0
VERTEX
8
CUT
10
101.16
20
59.5
0
VERTEX
8
CUT
10
102.16
20
62.8333
0
SEQEND
0
POLYLINE
8
CUT
66
1
70
0
0
VERTEX
8
CUT
10
97.16
20
66.1667
0
VERTEX
8
CUT
10
98.16
20
69.5
0
VERTEX
8
CUT
10
101.16
20
69.5
0
VERTEX
8
CUT
10
102.16
20
66.1667
0
SEQEND
0
POLYLINE
8
CUT
66
1
70
0
0
VERTEX
8
CUT
10
97.16
20
51.8333
0
VERTEX
8
CUT
10
98.16
20
48.5
0
VERTEX
8
CUT
10
101.16
20
48.5
0
VERTEX
8
CUT
10
102.16
20
51.8333
0
SEQEND
0
POLYLINE
8
CUT
66
1
70
0
0
VERTEX
8
CUT
10
97.16
20
55.1667
0
VERTEX
8
CUT
10
98.16
20
58.5
0
VERTEX
8
CUT
10
101.16
20
58.5
0
VERTEX
8
CUT
10
102.16
20
55.1667
0
SEQEND
0
POLYLINE
8
CUT
66
1
70
0
0
VERTEX
8
CUT
10
97.16
20
40.8333
0
VERTEX
8
CUT
10
98.16
20
37.5
0
VERTEX
8
CUT
10
101.16
20
37.5
0
VERTEX
8
CUT
10
102.16
20
40.8333
0
SEQEND
0
POLYLINE
8
CUT
66
1
70
0
0
VERTEX
8
CUT
10
97.16
20
44.1667
0
VERTEX
8
CUT
10
98.16
20
47.5
0
VERTEX
8
CUT
10
101.16
20
47.5
0
VERTEX
8
CUT
10
102.16
20
44.1667
0
SEQEND
0
POLYLINE
8
CUT
66
1
70
0
0
VERTEX
8
CUT
10
97.16
20
29.8333
0
VERTEX
8
CUT
10
98.16
20
26.5
0
VERTEX
8
CUT
10
101.16
20
26.5
0
VERTEX
8
CUT
10
102.16
20
29.8333
0
SEQEND
0
POLYLINE
8
CUT
66
1
70
0
0
VERTEX
8
CUT
10
97.16
20
33.1667
0
VERTEX
8
CUT
10
98.16
20
36.5
0
VERTEX
8
CUT
10
101.16
20
36.5
0
VERTEX
8
CUT
10
102.16
20
33.1667
0
SEQEND
0
POLYLINE
8
CUT
66
1
70
0
0
VERTEX
8
CUT
10
97.16
20
18.8333
0
VERTEX
8
CUT
10
98.16
20
15.5
0
VERTEX
8
CUT
10
101.16
20
15.5
0
VERTEX
8
CUT
10
102.16
20
18.8333
0
SEQEND
0
POLYLINE
8
CUT
66
1
70
0
0
VERTEX
8
CUT
10
97.16
20
22.1667
0
VERTEX
8
CUT
10
98.16
20
25.5
0
VERTEX
8
CUT
10
101.16
20
25.5
0
VERTEX
8
CUT
10
102.16
20
22.1667
0
SEQEND
0
POLYLINE
8
CUT
66
1
70
0
0
VERTEX
8
CUT
10
97.16
20
7.8333
0
VERTEX
8
CUT
10
98.16
20
4.5
0
VERTEX
8
CUT
10
101.16
20
4.5
0
VERTEX
8
CUT
10
102.16
20
7.8333
0
SEQEND
0
POLYLINE
8
CUT
66
1
70
0
0
VERTEX
8
CUT
10
97.16
20
11.1667
0
VERTEX
8
CUT
10
98.16
20
14.5
0
VERTEX
8
CUT
10
101.16
20
14.5
0
VERTEX
8
CUT
10
102.16
20
11.1667
0
SEQEND
0
POLYLINE
8
CUT
66
1
70
0
0
VERTEX
8
CUT
10
97.16
20
0.1667
0
VERTEX
8
CUT
10
98.16
20
3.5
0
VERTEX
8
CUT
10
101.16
20
3.5
0
VERTEX
8
CUT
10
102.16
20
0.1667
0
SEQEND
0
POLYLINE
8
CUT
66
1
70
0
0
VERTEX
8
CUT
10
102.53
20
68.3333
0
VERTEX
8
CUT
10
103.53
20
65
0
VERTEX
8
CUT
10
106.53
20
65
0
VERTEX
8
CUT
10
107.53
20
68.3333
0
SEQEND
0
POLYLINE
8
CUT
66
1
70
0
0
VERTEX
8
CUT
10
102.53
20
57.3333
0
VERTEX
8
CUT
10
103.53
20
54
0
VERTEX
8
CUT
10
106.53
20
54
0
VERTEX
8
CUT
10
107.53
20
57.3333
0
SEQEND
0
POLYLINE
8
CUT
66
1
70
0
0
VERTEX
8
CUT
10
102.53
20
60.6667
0
VERTEX
8
CUT
10
103.53
20
64
0
VERTEX
8
CUT
10
106.53
20
64
0
VERTEX
8
CUT
10
107.53
20
60.6667
0
SEQEND
0
POLYLINE
8
CUT
66
1
70
0
0
VERTEX
8
CUT
10
102.53
20
46.3333
0
VERTEX
8
CUT
10
103.53
20
43
0
VERTEX
8
CUT
10
106.53
20
43
0
VERTEX
8
CUT
10
107.53
20
46.3333
0
SEQEND
0
POLYLINE
8
CUT
66
1
70
0
0
VERTEX
8
CUT
10
102.53
20
49.6667
0
VERTEX
8
CUT
10
103.53
20
53
0
VERTEX
8
CUT
10
106.53
20
53
0
VERTEX
8
CUT
10
107.53
20
49.6667
0
SEQEND
0
POLYLINE
8
CUT
66
1
70
0
0
VERTEX
8
CUT
10
102.53
20
35.3333
0
VERTEX
8
CUT
10
103.53
20
32
0
VERTEX
8
CUT
10
106.53
20
32
0
VERTEX
8
CUT
10
107.53
20
35.3333
0
SEQEND
0
POLYLINE
8
CUT
66
1
70
0
0
VERTEX
8
CUT
10
102.53
20
38.6667
0
VERTEX
8
CUT
10
103.53
20
42
0
VERTEX
8
CUT
10
106.53
20
42
0
VERTEX
8
CUT
10
107.53
20
38.6667
0
SEQEND
0
POLYLINE
8
CUT
66
1
70
0
0
VERTEX
8
CUT
10
102.53
20
24.3333
0
VERTEX
8
CUT
10
103.53
20
21
0
VERTEX
8
CUT
10
106.53
20
21
0
VERTEX
8
CUT
10
107.53
20
24.3333
0
SEQEND
0
POLYLINE
8
CUT
66
1
70
0
0
VERTEX
8
CUT
10
102.53
20
27.6667
0
VERTEX
8
CUT
10
103.53
20
31
0
VERTEX
8
CUT
10
106.53
20
31
0
VERTEX
8
CUT
10
107.53
20
27.6667
0
SEQEND
0
POLYLINE
8
CUT
66
1
70
0
0
VERTEX
8
CUT
10
102.53
20
13.3333
0
VERTEX
8
CUT
10
103.53
20
10
0
VERTEX
8
CUT
10
106.53
20
10
0
VERTEX
8
CUT
10
107.53
20
13.3333
0
SEQEND
0
POLYLINE
8
CUT
66
1
70
0
0
VERTEX
8
CUT
10
102.53
20
16.6667
0
VERTEX
8
CUT
10
103.53
20
20
0
VERTEX
8
CUT
10
106.53
20
20
0
VERTEX
8
CUT
10
107.53
20
16.6667
0
SEQEND
0
LINE
8
CUT
10
102.53
20
2.3333
11
103.23
21
0
0
LINE
8
CUT
10
106.83
20
0
11
107.53
21
2.3333
0
POLYLINE
8
CUT
66
1
70
0
0
VERTEX
8
CUT
10
102.53
20
5.6667
0
VERTEX
8
CUT
10
103.53
20
9
0
VERTEX
8
CUT
10
106.53
20
9
0
VERTEX
8
CUT
10
107.53
20
5.6667
0
SEQEND
0
POLYLINE
8
CUT
66
1
70
0
0
VERTEX
8
CUT
10
107.9
20
62.8333
0
VERTEX
8
CUT
10
108.9
20
59.5
0
VERTEX
8
CUT
10
111.9
20
59.5
0
VERTEX
8
CUT
10
112.9
20
62.8333
0
SEQEND
0
POLYLINE
8
CUT
66
1
70
0
0
VERTEX
8
CUT
10
107.9
20
66.1667
0
VERTEX
8
CUT
10
108.9
20
69.5
0
VERTEX
8
CUT
10
111.9
20
69.5
0
VERTEX
8
CUT
10
112.9
20
66.1667
0
SEQEND
0
POLYLINE
8
CUT
66
1
70
0
0
VERTEX
8
CUT
10
107.9
20
51.8333
0
VERTEX
8
CUT
10
108.9
20
48.5
0
VERTEX
8
CUT
10
111.9
20
48.5
0
VERTEX
8
CUT
10
112.9
20
51.8333
0
SEQEND
0
POLYLINE
8
CUT
66
1
70
0
0
VERTEX
8
CUT
10
107.9
20
55.1667
0
VERTEX
8
CUT
10
108.9
20
58.5
0
VERTEX
8
CUT
10
111.9
20
58.5
0
VERTEX
8
CUT
10
112.9
20
55.1667
0
SEQEND
0
POLYLINE
8
CUT
66
1
70
0
0
VERTEX
8
CUT
10
107.9
20
40.8333
0
VERTEX
8
CUT
10
108.9
20
37.5
0
VERTEX
8
CUT
10
111.9
20
37.5
0
VERTEX
8
CUT
10
112.9
20
40.8333
0
SEQEND
0
POLYLINE
8
CUT
66
1
70
0
0
VERTEX
8
CUT
10
107.9
20
44.1667
0
VERTEX
8
CUT
10
108.9
20
47.5
0
VERTEX
8
CUT
10
111.9
20
47.5
0
VERTEX
8
CUT
10
112.9
20
44.1667
0
SEQEND
0
POLYLINE
8
CUT
66
1
70
0
0
VERTEX
8
CUT
10
107.9
20
29.8333
0
VERTEX
8
CUT
10
108.9
20
26.5
0
VERTEX
8
CUT
10
111.9
20
26.5
0
VERTEX
8
CUT
10
112.9
20
29.8333
0
SEQEND
0
POLYLINE
8
CUT
66
1
70
0
0
VERTEX
8
CUT
10
107.9
20
33.1667
0
VERTEX
8
CUT
10
108.9
20
36.5
0
VERTEX
8
CUT
10
111.9
20
36.5
0
VERTEX
8
CUT
10
112.9
20
33.1667
0
SEQEND
0
POLYLINE
8
CUT
66
1
70
0
0
VERTEX
8
CUT
10
107.9
20
18.8333
0
VERTEX
8
CUT
10
108.9
20
15.5
0
VERTEX
8
CUT
10
111.9
20
15.5
0
VERTEX
8
CUT
10
112.9
20
18.8333
0
SEQEND
0
POLYLINE
8
CUT
66
1
70
0
0
VERTEX
8
CUT
10
107.9
20
22.1667
0
VERTEX
8
CUT
10
108.9
20
25.5
0
VERTEX
8
CUT
10
111.9
20
25.5
0
VERTEX
8
CUT
10
112.9
20
22.1667
0
SEQEND
0
POLYLINE
8
CUT
66
1
70
0
0
VERTEX
8
CUT
10
107.9
20
7.8333
0
VERTEX
8
CUT
10
108.9
20
4.5
0
VERTEX
8
CUT
10
111.9
20
4.5
0
VERTEX
8
CUT
10
112.9
20
7.8333
0
SEQEND
0
POLYLINE
8
CUT
66
1
70
0
0
VERTEX
8
CUT
10
107.9
20
11.1667
0
VERTEX
8
CUT
10
108.9
20
14.5
0
VERTEX
8
CUT
10
111.9
20
14.5
0
VERTEX
8
CUT
10
112.9
20
11.1667
0
SEQEND
0
POLYLINE
8
CUT
66
1
70
0
0
VERTEX
8
CUT
10
107.9
20
0.1667
0
VERTEX
8
CUT
10
108.9
20
3.5
0
VERTEX
8
CUT
10
111.9
20
3.5
0
VERTEX
8
CUT
10
112.9
20
0.1667
0
SEQEND
0
POLYLINE
8
CUT
66
1
70
0
0
VERTEX
8
CUT
10
113.27
20
68.3333
0
VERTEX
8
CUT
10
114.27
20
65
0
VERTEX
8
CUT
10
117.27
20
65
0
VERTEX
8
CUT
10
118.27
20
68.3333
0
SEQEND
0
POLYLINE
8
CUT
66
1
70
0
0
VERTEX
8
CUT
10
113.27
20
57.3333
0
VERTEX
8
CUT
10
114.27
20
54
0
VERTEX
8
CUT
10
117.27
20
54
0
VERTEX
8
CUT
10
118.27
20
57.3333
0
SEQEND
0
POLYLINE
8
CUT
66
1
70
0
0
VERTEX
8
CUT
10
113.27
20
60.6667
0
VERTEX
8
CUT
10
114.27
20
64
0
VERTEX
8
CUT
10
117.27
20
64
0
VERTEX
8
CUT
10
118.27
20
60.6667
0
SEQEND
0
POLYLINE
8
CUT
66
1
70
0
0
VERTEX
8
CUT
10
113.27
20
46.3333
0
VERTEX
8
CUT
10
114.27
20
43
0
VERTEX
8
CUT
10
117.27
20
43
0
VERTEX
8
CUT
10
118.27
20
46.3333
0
SEQEND
0
POLYLINE
8
CUT
66
1
70
0
0
VERTEX
8
CUT
10
113.27
20
49.6667
0
VERTEX
8
CUT
10
114.27
20
53
0
VERTEX
8
CUT
10
117.27
20
53
0
VERTEX
8
CUT
10
118.27
20
49.6667
0
SEQEND
0
POLYLINE
8
CUT
66
1
70
0
0
VERTEX
8
CUT
10
113.27
20
35.3333
0
VERTEX
8
CUT
10
114.27
20
32
0
VERTEX
8
CUT
10
117.27
20
32
0
VERTEX
8
CUT
10
118.27
20
35.3333
0
SEQEND
0
POLYLINE
8
CUT
66
1
70
0
0
VERTEX
8
CUT
10
113.27
20
38.6667
0
VERTEX
8
CUT
10
114.27
20
42
0
VERTEX
8
CUT
10
117.27
20
42
0
VERTEX
8
CUT
10
118.27
20
38.6667
0
SEQEND
0
POLYLINE
8
CUT
66
1
70
0
0
VERTEX
8
CUT
10
113.27
20
24.3333
0
VERTEX
8
CUT
10
114.27
20
21
0
VERTEX
8
CUT
10
117.27
20
21
0
VERTEX
8
CUT
10
118.27
20
24.3333
0
SEQEND
0
POLYLINE
8
CUT
66
1
70
0
0
VERTEX
8
CUT
10
113.27
20
27.6667
0
VERTEX
8
CUT
10
114.27
20
31
0
VERTEX
8
CUT
10
117.27
20
31
0
VERTEX
8
CUT
10
118.27
20
27.6667
0
SEQEND
0
POLYLINE
8
CUT
66
1
70
0
0
VERTEX
8
CUT
10
113.27
20
13.3333
0
VERTEX
8
CUT
10
114.27
20
10
0
VERTEX
8
CUT
10
117.27
20
10
0
VERTEX
8
CUT
10
118.27
20
13.3333
0
SEQEND
0
POLYLINE
8
CUT
66
1
70
0
0
VERTEX
8
CUT
10
113.27
20
16.6667
0
VERTEX
8
CUT
10
114.27
20
20
0
VERTEX
8
CUT
10
117.27
20
20
0
VERTEX
8
CUT
10
118.27
20
16.6667
0
SEQEND
0
LINE
8
CUT
10
113.27
20
2.3333
11
113.97
21
0
0
LINE
8
CUT
10
117.57
20
0
11
118.27
21
2.3333
0
POLYLINE
8
CUT
66
1
70
0
0
VERTEX
8
CUT
10
113.27
20
5.6667
0
VERTEX
8
CUT
10
114.27
20
9
0
VERTEX
8
CUT
10
117.27
20
9
0
VERTEX
8
CUT
10
118.27
20
5.6667
0
SEQEND
0
POLYLINE
8
CUT
66
1
70
0
0
VERTEX
8
CUT
10
118.64
20
62.8333
0
VERTEX
8
CUT
10
119.64
20
59.5
0
VERTEX
8
CUT
10
120
20
59.5
0
SEQEND
0
POLYLINE
8
CUT
66
1
70
0
0
VERTEX
8
CUT
10
118.64
20
66.1667
0
VERTEX
8
CUT
10
119.64
20
69.5
0
VERTEX
8
CUT
10
120
20
69.5
0
SEQEND
0
POLYLINE
8
CUT
66
1
70
0
0
VERTEX
8
CUT
10
118.64
20
51.8333
0
VERTEX
8
CUT
10
119.64
20
48.5
0
VERTEX
8
CUT
10
120
20
48.5
0
SEQEND
0
POLYLINE
8
CUT
66
1
70
0
0
VERTEX
8
CUT
10
118.64
20
55.1667
0
VERTEX
8
CUT
10
119.64
20
58.5
0
VERTEX
8
CUT
10
120
20
58.5
0
SEQEND
0
POLYLINE
8
CUT
66
1
70
0
0
VERTEX
8
CUT
10
118.64
20
40.8333
0
VERTEX
8
CUT
10
119.64
20
37.5
0
VERTEX
8
CUT
10
120
20
37.5
0
SEQEND
0
POLYLINE
8
CUT
66
1
70
0
0
VERTEX
8
CUT
10
118.64
20
44.1667
0
VERTEX
8
CUT
10
119.64
20
47.5
0
VERTEX
8
CUT
10
120
20
47.5
0
SEQEND
0
POLYLINE
8
CUT
66
1
70
0
0
VERTEX
8
CUT
10
118.64
20
29.8333
0
VERTEX
8
CUT
10
119.64
20
26.5
0
VERTEX
8
CUT
10
120
20
26.5
0
SEQEND
0
POLYLINE
8
CUT
66
1
70
0
0
VERTEX
8
CUT
10
118.64
20
33.1667
0
VERTEX
8
CUT
10
119.64
20
36.5
0
VERTEX
8
CUT
10
120
20
36.5
0
SEQEND
0
POLYLINE
8
CUT
66
1
70
0
0
VERTEX
8
CUT
10
118.64
20
18.8333
0
VERTEX
8
CUT
10
119.64
20
15.5
0
VERTEX
8
CUT
10
120
20
15.5
0
SEQEND
0
POLYLINE
8
CUT
66
1
70
0
0
VERTEX
8
CUT
10
118.64
20
22.1667
0
VERTEX
8
CUT
10
119.64
20
25.5
0
VERTEX
8
CUT
10
120
20
25.5
0
SEQEND
0
POLYLINE
8
CUT
66
1
70
0
0
VERTEX
8
CUT
10
118.64
20
7.8333
0
VERTEX
8
CUT
10
119.64
20
4.5
0
VERTEX
8
CUT
10
120
20
4.5
0
SEQEND
0
POLYLINE
8
CUT
66
1
70
0
0
VERTEX
8
CUT
10
118.64
20
11.1667
0
VERTEX
8
CUT
10
119.64
20
14.5
0
VERTEX
8
CUT
10
120
20
14.5
0
SEQEND
0
POLYLINE
8
CUT
66
1
70
0
0
VERTEX
8
CUT
10
118.64
20
0.1667
0
VERTEX
8
CUT
10
119.64
20
3.5
0
VERTEX
8
CUT
10
120
20
3.5
0
SEQEND
0
POLYLINE
8
CUT
66
1
70
0
0
VERTEX
8
CUT
10
0
20
70
0
VERTEX
8
CUT
10
120
20
70
0
VERTEX
8
CUT
10
120
20
0
0
VERTEX
8
CUT
10
0
20
0
0
VERTEX
8
CUT
10
0
20
70
0
SEQEND
0
ENDSEC
0
EOF
