0
SECTION
2
HEADER
9
$ACADVER
1
AC1009
9
$INSUNITS
70
4
0
ENDSEC
0
SECTION
2
TABLES
0
TABLE
2
LAYER
70
1
0
LAYER
2
CUT
70
0
62
1
6
CONTINUOUS
0
ENDTAB
0
ENDSEC
0
SECTION
2
ENTITIES
0
POLYLINE
8
CUT
66
1
70
0
0
VERTEX
8
CUT
10
0
20
65.7
0
VERTEX
8
CUT
10
0
20
65.7
0
VERTEX
8
CUT
10
2.1429
20
65.7265
0
VERTEX
8
CUT
10
4.2857
20
65.8061
0
VERTEX
8
CUT
10
6.4286
20
65.9388
0
VERTEX
8
CUT
10
8.5714
20
66.1245
0
VERTEX
8
CUT
10
10.7143
20
66.3633
0
VERTEX
8
CUT
10
12.8571
20
66.6551
0
VERTEX
8
CUT
10
15
20
67
0
SEQEND
0
POLYLINE
8
CUT
66
1
70
0
0
VERTEX
8
CUT
10
16.5
20
67
0
VERTEX
8
CUT
10
18.6429
20
66.6551
0
VERTEX
8
CUT
10
20.7857
20
66.3633
0
VERTEX
8
CUT
10
22.9286
20
66.1245
0
VERTEX
8
CUT
10
25.0714
20
65.9388
0
VERTEX
8
CUT
10
27.2143
20
65.8061
0
VERTEX
8
CUT
10
29.3571
20
65.7265
0
VERTEX
8
CUT
10
31.5
20
65.7
0
VERTEX
8
CUT
10
33.6429
20
65.7265
0
VERTEX
8
CUT
10
35.7857
20
65.8061
0
VERTEX
8
CUT
10
37.9286
20
65.9388
0
VERTEX
8
CUT
10
40.0714
20
66.1245
0
VERTEX
8
CUT
10
42.2143
20
66.3633
0
VERTEX
8
CUT
10
44.3571
20
66.6551
0
VERTEX
8
CUT
10
46.5
20
67
0
SEQEND
0
POLYLINE
8
CUT
66
1
70
0
0
VERTEX
8
CUT
10
48
20
67
0
VERTEX
8
CUT
10
50.1429
20
66.6551
0
VERTEX
8
CUT
10
52.2857
20
66.3633
0
VERTEX
8
CUT
10
54.4286
20
66.1245
0
VERTEX
8
CUT
10
56.5714
20
65.9388
0
VERTEX
8
CUT
10
58.7143
20
65.8061
0
VERTEX
8
CUT
10
60.8571
20
65.7265
0
VERTEX
8
CUT
10
63
20
65.7
0
VERTEX
8
CUT
10
65.1429
20
65.7265
0
VERTEX
8
CUT
10
67.2857
20
65.8061
0
VERTEX
8
CUT
10
69.4286
20
65.9388
0
VERTEX
8
CUT
10
71.5714
20
66.1245
0
VERTEX
8
CUT
10
73.7143
20
66.3633
0
VERTEX
8
CUT
10
75.8571
20
66.6551
0
VERTEX
8
CUT
10
78
20
67
0
SEQEND
0
POLYLINE
8
CUT
66
1
70
0
0
VERTEX
8
CUT
10
79.5
20
67
0
VERTEX
8
CUT
10
81.6429
20
66.6551
0
VERTEX
8
CUT
10
83.7857
20
66.3633
0
VERTEX
8
CUT
10
85.9286
20
66.1245
0
VERTEX
8
CUT
10
88.0714
20
65.9388
0
VERTEX
8
CUT
10
90.2143
20
65.8061
0
VERTEX
8
CUT
10
92.3571
20
65.7265
0
VERTEX
8
CUT
10
94.5
20
65.7
0
VERTEX
8
CUT
10
96.6429
20
65.7265
0
VERTEX
8
CUT
10
98.7857
20
65.8061
0
VERTEX
8
CUT
10
100.9286
20
65.9388
0
VERTEX
8
CUT
10
103.0714
20
66.1245
0
VERTEX
8
CUT
10
105.2143
20
66.3633
0
VERTEX
8
CUT
10
107.3571
20
66.6551
0
VERTEX
8
CUT
10
109.5
20
67
0
SEQEND
0
POLYLINE
8
CUT
66
1
70
0
0
VERTEX
8
CUT
10
111
20
67
0
VERTEX
8
CUT
10
113.1429
20
66.6551
0
VERTEX
8
CUT
10
115.2857
20
66.3633
0
VERTEX
8
CUT
10
117.4286
20
66.1245
0
VERTEX
8
CUT
10
119.5714
20
65.9388
0
VERTEX
8
CUT
10
120
20
65.9122
0
SEQEND
0
POLYLINE
8
CUT
66
1
70
0
0
VERTEX
8
CUT
10
0.75
20
63
0
VERTEX
8
CUT
10
2.8929
20
63.3449
0
VERTEX
8
CUT
10
5.0357
20
63.6367
0
VERTEX
8
CUT
10
7.1786
20
63.8755
0
VERTEX
8
CUT
10
9.3214
20
64.0612
0
VERTEX
8
CUT
10
11.4643
20
64.1939
0
VERTEX
8
CUT
10
13.6071
20
64.2735
0
VERTEX
8
CUT
10
15.75
20
64.3
0
VERTEX
8
CUT
10
17.8929
20
64.2735
0
VERTEX
8
CUT
10
20.0357
20
64.1939
0
VERTEX
8
CUT
10
22.1786
20
64.0612
0
VERTEX
8
CUT
10
24.3214
20
63.8755
0
VERTEX
8
CUT
10
26.4643
20
63.6367
0
VERTEX
8
CUT
10
28.6071
20
63.3449
0
VERTEX
8
CUT
10
30.75
20
63
0
SEQEND
0
POLYLINE
8
CUT
66
1
70
0
0
VERTEX
8
CUT
10
32.25
20
63
0
VERTEX
8
CUT
10
34.3929
20
63.3449
0
VERTEX
8
CUT
10
36.5357
20
63.6367
0
VERTEX
8
CUT
10
38.6786
20
63.8755
0
VERTEX
8
CUT
10
40.8214
20
64.0612
0
VERTEX
8
CUT
10
42.9643
20
64.1939
0
VERTEX
8
CUT
10
45.1071
20
64.2735
0
VERTEX
8
CUT
10
47.25
20
64.3
0
VERTEX
8
CUT
10
49.3929
20
64.2735
0
VERTEX
8
CUT
10
51.5357
20
64.1939
0
VERTEX
8
CUT
10
53.6786
20
64.0612
0
VERTEX
8
CUT
10
55.8214
20
63.8755
0
VERTEX
8
CUT
10
57.9643
20
63.6367
0
VERTEX
8
CUT
10
60.1071
20
63.3449
0
VERTEX
8
CUT
10
62.25
20
63
0
SEQEND
0
POLYLINE
8
CUT
66
1
70
0
0
VERTEX
8
CUT
10
63.75
20
63
0
VERTEX
8
CUT
10
65.8929
20
63.3449
0
VERTEX
8
CUT
10
68.0357
20
63.6367
0
VERTEX
8
CUT
10
70.1786
20
63.8755
0
VERTEX
8
CUT
10
72.3214
20
64.0612
0
VERTEX
8
CUT
10
74.4643
20
64.1939
0
VERTEX
8
CUT
10
76.6071
20
64.2735
0
VERTEX
8
CUT
10
78.75
20
64.3
0
VERTEX
8
CUT
10
80.8929
20
64.2735
0
VERTEX
8
CUT
10
83.0357
20
64.1939
0
VERTEX
8
CUT
10
85.1786
20
64.0612
0
VERTEX
8
CUT
10
87.3214
20
63.8755
0
VERTEX
8
CUT
10
89.4643
20
63.6367
0
VERTEX
8
CUT
10
91.6071
20
63.3449
0
VERTEX
8
CUT
10
93.75
20
63
0
SEQEND
0
POLYLINE
8
CUT
66
1
70
0
0
VERTEX
8
CUT
10
95.25
20
63
0
VERTEX
8
CUT
10
97.3929
20
63.3449
0
VERTEX
8
CUT
10
99.5357
20
63.6367
0
VERTEX
8
CUT
10
101.6786
20
63.8755
0
VERTEX
8
CUT
10
103.8214
20
64.0612
0
VERTEX
8
CUT
10
105.9643
20
64.1939
0
VERTEX
8
CUT
10
108.1071
20
64.2735
0
VERTEX
8
CUT
10
110.25
20
64.3
0
VERTEX
8
CUT
10
112.3929
20
64.2735
0
VERTEX
8
CUT
10
114.5357
20
64.1939
0
VERTEX
8
CUT
10
116.6786
20
64.0612
0
VERTEX
8
CUT
10
118.8214
20
63.8755
0
VERTEX
8
CUT
10
120
20
63.7442
0
SEQEND
0
POLYLINE
8
CUT
66
1
70
0
0
VERTEX
8
CUT
10
0
20
57.7
0
VERTEX
8
CUT
10
0
20
57.7
0
VERTEX
8
CUT
10
2.1429
20
57.7265
0
VERTEX
8
CUT
10
4.2857
20
57.8061
0
VERTEX
8
CUT
10
6.4286
20
57.9388
0
VERTEX
8
CUT
10
8.5714
20
58.1245
0
VERTEX
8
CUT
10
10.7143
20
58.3633
0
VERTEX
8
CUT
10
12.8571
20
58.6551
0
VERTEX
8
CUT
10
15
20
59
0
SEQEND
0
POLYLINE
8
CUT
66
1
70
0
0
VERTEX
8
CUT
10
16.5
20
59
0
VERTEX
8
CUT
10
18.6429
20
58.6551
0
VERTEX
8
CUT
10
20.7857
20
58.3633
0
VERTEX
8
CUT
10
22.9286
20
58.1245
0
VERTEX
8
CUT
10
25.0714
20
57.9388
0
VERTEX
8
CUT
10
27.2143
20
57.8061
0
VERTEX
8
CUT
10
29.3571
20
57.7265
0
VERTEX
8
CUT
10
31.5
20
57.7
0
VERTEX
8
CUT
10
33.6429
20
57.7265
0
VERTEX
8
CUT
10
35.7857
20
57.8061
0
VERTEX
8
CUT
10
37.9286
20
57.9388
0
VERTEX
8
CUT
10
40.0714
20
58.1245
0
VERTEX
8
CUT
10
42.2143
20
58.3633
0
VERTEX
8
CUT
10
44.3571
20
58.6551
0
VERTEX
8
CUT
10
46.5
20
59
0
SEQEND
0
POLYLINE
8
CUT
66
1
70
0
0
VERTEX
8
CUT
10
48
20
59
0
VERTEX
8
CUT
10
50.1429
20
58.6551
0
VERTEX
8
CUT
10
52.2857
20
58.3633
0
VERTEX
8
CUT
10
54.4286
20
58.1245
0
VERTEX
8
CUT
10
56.5714
20
57.9388
0
VERTEX
8
CUT
10
58.7143
20
57.8061
0
VERTEX
8
CUT
10
60.8571
20
57.7265
0
VERTEX
8
CUT
10
63
20
57.7
0
VERTEX
8
CUT
10
65.1429
20
57.7265
0
VERTEX
8
CUT
10
67.2857
20
57.8061
0
VERTEX
8
CUT
10
69.4286
20
57.9388
0
VERTEX
8
CUT
10
71.5714
20
58.1245
0
VERTEX
8
CUT
10
73.7143
20
58.3633
0
VERTEX
8
CUT
10
75.8571
20
58.6551
0
VERTEX
8
CUT
10
78
20
59
0
SEQEND
0
POLYLINE
8
CUT
66
1
70
0
0
VERTEX
8
CUT
10
79.5
20
59
0
VERTEX
8
CUT
10
81.6429
20
58.6551
0
VERTEX
8
CUT
10
83.7857
20
58.3633
0
VERTEX
8
CUT
10
85.9286
20
58.1245
0
VERTEX
8
CUT
10
88.0714
20
57.9388
0
VERTEX
8
CUT
10
90.2143
20
57.8061
0
VERTEX
8
CUT
10
92.3571
20
57.7265
0
VERTEX
8
CUT
10
94.5
20
57.7
0
VERTEX
8
CUT
10
96.6429
20
57.7265
0
VERTEX
8
CUT
10
98.7857
20
57.8061
0
VERTEX
8
CUT
10
100.9286
20
57.9388
0
VERTEX
8
CUT
10
103.0714
20
58.1245
0
VERTEX
8
CUT
10
105.2143
20
58.3633
0
VERTEX
8
CUT
10
107.3571
20
58.6551
0
VERTEX
8
CUT
10
109.5
20
59
0
SEQEND
0
POLYLINE
8
CUT
66
1
70
0
0
VERTEX
8
CUT
10
111
20
59
0
VERTEX
8
CUT
10
113.1429
20
58.6551
0
VERTEX
8
CUT
10
115.2857
20
58.3633
0
VERTEX
8
CUT
10
117.4286
20
58.1245
0
VERTEX
8
CUT
10
119.5714
20
57.9388
0
VERTEX
8
CUT
10
120
20
57.9122
0
SEQEND
0
POLYLINE
8
CUT
66
1
70
0
0
VERTEX
8
CUT
10
0.75
20
55
0
VERTEX
8
CUT
10
2.8929
20
55.3449
0
VERTEX
8
CUT
10
5.0357
20
55.6367
0
VERTEX
8
CUT
10
7.1786
20
55.8755
0
VERTEX
8
CUT
10
9.3214
20
56.0612
0
VERTEX
8
CUT
10
11.4643
20
56.1939
0
VERTEX
8
CUT
10
13.6071
20
56.2735
0
VERTEX
8
CUT
10
15.75
20
56.3
0
VERTEX
8
CUT
10
17.8929
20
56.2735
0
VERTEX
8
CUT
10
20.0357
20
56.1939
0
VERTEX
8
CUT
10
22.1786
20
56.0612
0
VERTEX
8
CUT
10
24.3214
20
55.8755
0
VERTEX
8
CUT
10
26.4643
20
55.6367
0
VERTEX
8
CUT
10
28.6071
20
55.3449
0
VERTEX
8
CUT
10
30.75
20
55
0
SEQEND
0
POLYLINE
8
CUT
66
1
70
0
0
VERTEX
8
CUT
10
32.25
20
55
0
VERTEX
8
CUT
10
34.3929
20
55.3449
0
VERTEX
8
CUT
10
36.5357
20
55.6367
0
VERTEX
8
CUT
10
38.6786
20
55.8755
0
VERTEX
8
CUT
10
40.8214
20
56.0612
0
VERTEX
8
CUT
10
42.9643
20
56.1939
0
VERTEX
8
CUT
10
45.1071
20
56.2735
0
VERTEX
8
CUT
10
47.25
20
56.3
0
VERTEX
8
CUT
10
49.3929
20
56.2735
0
VERTEX
8
CUT
10
51.5357
20
56.1939
0
VERTEX
8
CUT
10
53.6786
20
56.0612
0
VERTEX
8
CUT
10
55.8214
20
55.8755
0
VERTEX
8
CUT
10
57.9643
20
55.6367
0
VERTEX
8
CUT
10
60.1071
20
55.3449
0
VERTEX
8
CUT
10
62.25
20
55
0
SEQEND
0
POLYLINE
8
CUT
66
1
70
0
0
VERTEX
8
CUT
10
63.75
20
55
0
VERTEX
8
CUT
10
65.8929
20
55.3449
0
VERTEX
8
CUT
10
68.0357
20
55.6367
0
VERTEX
8
CUT
10
70.1786
20
55.8755
0
VERTEX
8
CUT
10
72.3214
20
56.0612
0
VERTEX
8
CUT
10
74.4643
20
56.1939
0
VERTEX
8
CUT
10
76.6071
20
56.2735
0
VERTEX
8
CUT
10
78.75
20
56.3
0
VERTEX
8
CUT
10
80.8929
20
56.2735
0
VERTEX
8
CUT
10
83.0357
20
56.1939
0
VERTEX
8
CUT
10
85.1786
20
56.0612
0
VERTEX
8
CUT
10
87.3214
20
55.8755
0
VERTEX
8
CUT
10
89.4643
20
55.6367
0
VERTEX
8
CUT
10
91.6071
20
55.3449
0
VERTEX
8
CUT
10
93.75
20
55
0
SEQEND
0
POLYLINE
8
CUT
66
1
70
0
0
VERTEX
8
CUT
10
95.25
20
55
0
VERTEX
8
CUT
10
97.3929
20
55.3449
0
VERTEX
8
CUT
10
99.5357
20
55.6367
0
VERTEX
8
CUT
10
101.6786
20
55.8755
0
VERTEX
8
CUT
10
103.8214
20
56.0612
0
VERTEX
8
CUT
10
105.9643
20
56.1939
0
VERTEX
8
CUT
10
108.1071
20
56.2735
0
VERTEX
8
CUT
10
110.25
20
56.3
0
VERTEX
8
CUT
10
112.3929
20
56.2735
0
VERTEX
8
CUT
10
114.5357
20
56.1939
0
VERTEX
8
CUT
10
116.6786
20
56.0612
0
VERTEX
8
CUT
10
118.8214
20
55.8755
0
VERTEX
8
CUT
10
120
20
55.7442
0
SEQEND
0
POLYLINE
8
CUT
66
1
70
0
0
VERTEX
8
CUT
10
0
20
49.7
0
VERTEX
8
CUT
10
0
20
49.7
0
VERTEX
8
CUT
10
2.1429
20
49.7265
0
VERTEX
8
CUT
10
4.2857
20
49.8061
0
VERTEX
8
CUT
10
6.4286
20
49.9388
0
VERTEX
8
CUT
10
8.5714
20
50.1245
0
VERTEX
8
CUT
10
10.7143
20
50.3633
0
VERTEX
8
CUT
10
12.8571
20
50.6551
0
VERTEX
8
CUT
10
15
20
51
0
SEQEND
0
POLYLINE
8
CUT
66
1
70
0
0
VERTEX
8
CUT
10
16.5
20
51
0
VERTEX
8
CUT
10
18.6429
20
50.6551
0
VERTEX
8
CUT
10
20.7857
20
50.3633
0
VERTEX
8
CUT
10
22.9286
20
50.1245
0
VERTEX
8
CUT
10
25.0714
20
49.9388
0
VERTEX
8
CUT
10
27.2143
20
49.8061
0
VERTEX
8
CUT
10
29.3571
20
49.7265
0
VERTEX
8
CUT
10
31.5
20
49.7
0
VERTEX
8
CUT
10
33.6429
20
49.7265
0
VERTEX
8
CUT
10
35.7857
20
49.8061
0
VERTEX
8
CUT
10
37.9286
20
49.9388
0
VERTEX
8
CUT
10
40.0714
20
50.1245
0
VERTEX
8
CUT
10
42.2143
20
50.3633
0
VERTEX
8
CUT
10
44.3571
20
50.6551
0
VERTEX
8
CUT
10
46.5
20
51
0
SEQEND
0
POLYLINE
8
CUT
66
1
70
0
0
VERTEX
8
CUT
10
48
20
51
0
VERTEX
8
CUT
10
50.1429
20
50.6551
0
VERTEX
8
CUT
10
52.2857
20
50.3633
0
VERTEX
8
CUT
10
54.4286
20
50.1245
0
VERTEX
8
CUT
10
56.5714
20
49.9388
0
VERTEX
8
CUT
10
58.7143
20
49.8061
0
VERTEX
8
CUT
10
60.8571
20
49.7265
0
VERTEX
8
CUT
10
63
20
49.7
0
VERTEX
8
CUT
10
65.1429
20
49.7265
0
VERTEX
8
CUT
10
67.2857
20
49.8061
0
VERTEX
8
CUT
10
69.4286
20
49.9388
0
VERTEX
8
CUT
10
71.5714
20
50.1245
0
VERTEX
8
CUT
10
73.7143
20
50.3633
0
VERTEX
8
CUT
10
75.8571
20
50.6551
0
VERTEX
8
CUT
10
78
20
51
0
SEQEND
0
POLYLINE
8
CUT
66
1
70
0
0
VERTEX
8
CUT
10
79.5
20
51
0
VERTEX
8
CUT
10
81.6429
20
50.6551
0
VERTEX
8
CUT
10
83.7857
20
50.3633
0
VERTEX
8
CUT
10
85.9286
20
50.1245
0
VERTEX
8
CUT
10
88.0714
20
49.9388
0
VERTEX
8
CUT
10
90.2143
20
49.8061
0
VERTEX
8
CUT
10
92.3571
20
49.7265
0
VERTEX
8
CUT
10
94.5
20
49.7
0
VERTEX
8
CUT
10
96.6429
20
49.7265
0
VERTEX
8
CUT
10
98.7857
20
49.8061
0
VERTEX
8
CUT
10
100.9286
20
49.9388
0
VERTEX
8
CUT
10
103.0714
20
50.1245
0
VERTEX
8
CUT
10
105.2143
20
50.3633
0
VERTEX
8
CUT
10
107.3571
20
50.6551
0
VERTEX
8
CUT
10
109.5
20
51
0
SEQEND
0
POLYLINE
8
CUT
66
1
70
0
0
VERTEX
8
CUT
10
111
20
51
0
VERTEX
8
CUT
10
113.1429
20
50.6551
0
VERTEX
8
CUT
10
115.2857
20
50.3633
0
VERTEX
8
CUT
10
117.4286
20
50.1245
0
VERTEX
8
CUT
10
119.5714
20
49.9388
0
VERTEX
8
CUT
10
120
20
49.9122
0
SEQEND
0
POLYLINE
8
CUT
66
1
70
0
0
VERTEX
8
CUT
10
0.75
20
47
0
VERTEX
8
CUT
10
2.8929
20
47.3449
0
VERTEX
8
CUT
10
5.0357
20
47.6367
0
VERTEX
8
CUT
10
7.1786
20
47.8755
0
VERTEX
8
CUT
10
9.3214
20
48.0612
0
VERTEX
8
CUT
10
11.4643
20
48.1939
0
VERTEX
8
CUT
10
13.6071
20
48.2735
0
VERTEX
8
CUT
10
15.75
20
48.3
0
VERTEX
8
CUT
10
17.8929
20
48.2735
0
VERTEX
8
CUT
10
20.0357
20
48.1939
0
VERTEX
8
CUT
10
22.1786
20
48.0612
0
VERTEX
8
CUT
10
24.3214
20
47.8755
0
VERTEX
8
CUT
10
26.4643
20
47.6367
0
VERTEX
8
CUT
10
28.6071
20
47.3449
0
VERTEX
8
CUT
10
30.75
20
47
0
SEQEND
0
POLYLINE
8
CUT
66
1
70
0
0
VERTEX
8
CUT
10
32.25
20
47
0
VERTEX
8
CUT
10
34.3929
20
47.3449
0
VERTEX
8
CUT
10
36.5357
20
47.6367
0
VERTEX
8
CUT
10
38.6786
20
47.8755
0
VERTEX
8
CUT
10
40.8214
20
48.0612
0
VERTEX
8
CUT
10
42.9643
20
48.1939
0
VERTEX
8
CUT
10
45.1071
20
48.2735
0
VERTEX
8
CUT
10
47.25
20
48.3
0
VERTEX
8
CUT
10
49.3929
20
48.2735
0
VERTEX
8
CUT
10
51.5357
20
48.1939
0
VERTEX
8
CUT
10
53.6786
20
48.0612
0
VERTEX
8
CUT
10
55.8214
20
47.8755
0
VERTEX
8
CUT
10
57.9643
20
47.6367
0
VERTEX
8
CUT
10
60.1071
20
47.3449
0
VERTEX
8
CUT
10
62.25
20
47
0
SEQEND
0
POLYLINE
8
CUT
66
1
70
0
0
VERTEX
8
CUT
10
63.75
20
47
0
VERTEX
8
CUT
10
65.8929
20
47.3449
0
VERTEX
8
CUT
10
68.0357
20
47.6367
0
VERTEX
8
CUT
10
70.1786
20
47.8755
0
VERTEX
8
CUT
10
72.3214
20
48.0612
0
VERTEX
8
CUT
10
74.4643
20
48.1939
0
VERTEX
8
CUT
10
76.6071
20
48.2735
0
VERTEX
8
CUT
10
78.75
20
48.3
0
VERTEX
8
CUT
10
80.8929
20
48.2735
0
VERTEX
8
CUT
10
83.0357
20
48.1939
0
VERTEX
8
CUT
10
85.1786
20
48.0612
0
VERTEX
8
CUT
10
87.3214
20
47.8755
0
VERTEX
8
CUT
10
89.4643
20
47.6367
0
VERTEX
8
CUT
10
91.6071
20
47.3449
0
VERTEX
8
CUT
10
93.75
20
47
0
SEQEND
0
POLYLINE
8
CUT
66
1
70
0
0
VERTEX
8
CUT
10
95.25
20
47
0
VERTEX
8
CUT
10
97.3929
20
47.3449
0
VERTEX
8
CUT
10
99.5357
20
47.6367
0
VERTEX
8
CUT
10
101.6786
20
47.8755
0
VERTEX
8
CUT
10
103.8214
20
48.0612
0
VERTEX
8
CUT
10
105.9643
20
48.1939
0
VERTEX
8
CUT
10
108.1071
20
48.2735
0
VERTEX
8
CUT
10
110.25
20
48.3
0
VERTEX
8
CUT
10
112.3929
20
48.2735
0
VERTEX
8
CUT
10
114.5357
20
48.1939
0
VERTEX
8
CUT
10
116.6786
20
48.0612
0
VERTEX
8
CUT
10
118.8214
20
47.8755
0
VERTEX
8
CUT
10
120
20
47.7442
0
SEQEND
0
POLYLINE
8
CUT
66
1
70
0
0
VERTEX
8
CUT
10
0
20
41.7
0
VERTEX
8
CUT
10
0
20
41.7
0
VERTEX
8
CUT
10
2.1429
20
41.7265
0
VERTEX
8
CUT
10
4.2857
20
41.8061
0
VERTEX
8
CUT
10
6.4286
20
41.9388
0
VERTEX
8
CUT
10
8.5714
20
42.1245
0
VERTEX
8
CUT
10
10.7143
20
42.3633
0
VERTEX
8
CUT
10
12.8571
20
42.6551
0
VERTEX
8
CUT
10
15
20
43
0
SEQEND
0
POLYLINE
8
CUT
66
1
70
0
0
VERTEX
8
CUT
10
16.5
20
43
0
VERTEX
8
CUT
10
18.6429
20
42.6551
0
VERTEX
8
CUT
10
20.7857
20
42.3633
0
VERTEX
8
CUT
10
22.9286
20
42.1245
0
VERTEX
8
CUT
10
25.0714
20
41.9388
0
VERTEX
8
CUT
10
27.2143
20
41.8061
0
VERTEX
8
CUT
10
29.3571
20
41.7265
0
VERTEX
8
CUT
10
31.5
20
41.7
0
VERTEX
8
CUT
10
33.6429
20
41.7265
0
VERTEX
8
CUT
10
35.7857
20
41.8061
0
VERTEX
8
CUT
10
37.9286
20
41.9388
0
VERTEX
8
CUT
10
40.0714
20
42.1245
0
VERTEX
8
CUT
10
42.2143
20
42.3633
0
VERTEX
8
CUT
10
44.3571
20
42.6551
0
VERTEX
8
CUT
10
46.5
20
43
0
SEQEND
0
POLYLINE
8
CUT
66
1
70
0
0
VERTEX
8
CUT
10
48
20
43
0
VERTEX
8
CUT
10
50.1429
20
42.6551
0
VERTEX
8
CUT
10
52.2857
20
42.3633
0
VERTEX
8
CUT
10
54.4286
20
42.1245
0
VERTEX
8
CUT
10
56.5714
20
41.9388
0
VERTEX
8
CUT
10
58.7143
20
41.8061
0
VERTEX
8
CUT
10
60.8571
20
41.7265
0
VERTEX
8
CUT
10
63
20
41.7
0
VERTEX
8
CUT
10
65.1429
20
41.7265
0
VERTEX
8
CUT
10
67.2857
20
41.8061
0
VERTEX
8
CUT
10
69.4286
20
41.9388
0
VERTEX
8
CUT
10
71.5714
20
42.1245
0
VERTEX
8
CUT
10
73.7143
20
42.3633
0
VERTEX
8
CUT
10
75.8571
20
42.6551
0
VERTEX
8
CUT
10
78
20
43
0
SEQEND
0
POLYLINE
8
CUT
66
1
70
0
0
VERTEX
8
CUT
10
79.5
20
43
0
VERTEX
8
CUT
10
81.6429
20
42.6551
0
VERTEX
8
CUT
10
83.7857
20
42.3633
0
VERTEX
8
CUT
10
85.9286
20
42.1245
0
VERTEX
8
CUT
10
88.0714
20
41.9388
0
VERTEX
8
CUT
10
90.2143
20
41.8061
0
VERTEX
8
CUT
10
92.3571
20
41.7265
0
VERTEX
8
CUT
10
94.5
20
41.7
0
VERTEX
8
CUT
10
96.6429
20
41.7265
0
VERTEX
8
CUT
10
98.7857
20
41.8061
0
VERTEX
8
CUT
10
100.9286
20
41.9388
0
VERTEX
8
CUT
10
103.0714
20
42.1245
0
VERTEX
8
CUT
10
105.2143
20
42.3633
0
VERTEX
8
CUT
10
107.3571
20
42.6551
0
VERTEX
8
CUT
10
109.5
20
43
0
SEQEND
0
POLYLINE
8
CUT
66
1
70
0
0
VERTEX
8
CUT
10
111
20
43
0
VERTEX
8
CUT
10
113.1429
20
42.6551
0
VERTEX
8
CUT
10
115.2857
20
42.3633
0
VERTEX
8
CUT
10
117.4286
20
42.1245
0
VERTEX
8
CUT
10
119.5714
20
41.9388
0
VERTEX
8
CUT
10
120
20
41.9122
0
SEQEND
0
POLYLINE
8
CUT
66
1
70
0
0
VERTEX
8
CUT
10
0.75
20
39
0
VERTEX
8
CUT
10
2.8929
20
39.3449
0
VERTEX
8
CUT
10
5.0357
20
39.6367
0
VERTEX
8
CUT
10
7.1786
20
39.8755
0
VERTEX
8
CUT
10
9.3214
20
40.0612
0
VERTEX
8
CUT
10
11.4643
20
40.1939
0
VERTEX
8
CUT
10
13.6071
20
40.2735
0
VERTEX
8
CUT
10
15.75
20
40.3
0
VERTEX
8
CUT
10
17.8929
20
40.2735
0
VERTEX
8
CUT
10
20.0357
20
40.1939
0
VERTEX
8
CUT
10
22.1786
20
40.0612
0
VERTEX
8
CUT
10
24.3214
20
39.8755
0
VERTEX
8
CUT
10
26.4643
20
39.6367
0
VERTEX
8
CUT
10
28.6071
20
39.3449
0
VERTEX
8
CUT
10
30.75
20
39
0
SEQEND
0
POLYLINE
8
CUT
66
1
70
0
0
VERTEX
8
CUT
10
32.25
20
39
0
VERTEX
8
CUT
10
34.3929
20
39.3449
0
VERTEX
8
CUT
10
36.5357
20
39.6367
0
VERTEX
8
CUT
10
38.6786
20
39.8755
0
VERTEX
8
CUT
10
40.8214
20
40.0612
0
VERTEX
8
CUT
10
42.9643
20
40.1939
0
VERTEX
8
CUT
10
45.1071
20
40.2735
0
VERTEX
8
CUT
10
47.25
20
40.3
0
VERTEX
8
CUT
10
49.3929
20
40.2735
0
VERTEX
8
CUT
10
51.5357
20
40.1939
0
VERTEX
8
CUT
10
53.6786
20
40.0612
0
VERTEX
8
CUT
10
55.8214
20
39.8755
0
VERTEX
8
CUT
10
57.9643
20
39.6367
0
VERTEX
8
CUT
10
60.1071
20
39.3449
0
VERTEX
8
CUT
10
62.25
20
39
0
SEQEND
0
POLYLINE
8
CUT
66
1
70
0
0
VERTEX
8
CUT
10
63.75
20
39
0
VERTEX
8
CUT
10
65.8929
20
39.3449
0
VERTEX
8
CUT
10
68.0357
20
39.6367
0
VERTEX
8
CUT
10
70.1786
20
39.8755
0
VERTEX
8
CUT
10
72.3214
20
40.0612
0
VERTEX
8
CUT
10
74.4643
20
40.1939
0
VERTEX
8
CUT
10
76.6071
20
40.2735
0
VERTEX
8
CUT
10
78.75
20
40.3
0
VERTEX
8
CUT
10
80.8929
20
40.2735
0
VERTEX
8
CUT
10
83.0357
20
40.1939
0
VERTEX
8
CUT
10
85.1786
20
40.0612
0
VERTEX
8
CUT
10
87.3214
20
39.8755
0
VERTEX
8
CUT
10
89.4643
20
39.6367
0
VERTEX
8
CUT
10
91.6071
20
39.3449
0
VERTEX
8
CUT
10
93.75
20
39
0
SEQEND
0
POLYLINE
8
CUT
66
1
70
0
0
VERTEX
8
CUT
10
95.25
20
39
0
VERTEX
8
CUT
10
97.3929
20
39.3449
0
VERTEX
8
CUT
10
99.5357
20
39.6367
0
VERTEX
8
CUT
10
101.6786
20
39.8755
0
VERTEX
8
CUT
10
103.8214
20
40.0612
0
VERTEX
8
CUT
10
105.9643
20
40.1939
0
VERTEX
8
CUT
10
108.1071
20
40.2735
0
VERTEX
8
CUT
10
110.25
20
40.3
0
VERTEX
8
CUT
10
112.3929
20
40.2735
0
VERTEX
8
CUT
10
114.5357
20
40.1939
0
VERTEX
8
CUT
10
116.6786
20
40.0612
0
VERTEX
8
CUT
10
118.8214
20
39.8755
0
VERTEX
8
CUT
10
120
20
39.7442
0
SEQEND
0
POLYLINE
8
CUT
66
1
70
0
0
VERTEX
8
CUT
10
0
20
33.7
0
VERTEX
8
CUT
10
0
20
33.7
0
VERTEX
8
CUT
10
2.1429
20
33.7265
0
VERTEX
8
CUT
10
4.2857
20
33.8061
0
VERTEX
8
CUT
10
6.4286
20
33.9388
0
VERTEX
8
CUT
10
8.5714
20
34.1245
0
VERTEX
8
CUT
10
10.7143
20
34.3633
0
VERTEX
8
CUT
10
12.8571
20
34.6551
0
VERTEX
8
CUT
10
15
20
35
0
SEQEND
0
POLYLINE
8
CUT
66
1
70
0
0
VERTEX
8
CUT
10
16.5
20
35
0
VERTEX
8
CUT
10
18.6429
20
34.6551
0
VERTEX
8
CUT
10
20.7857
20
34.3633
0
VERTEX
8
CUT
10
22.9286
20
34.1245
0
VERTEX
8
CUT
10
25.0714
20
33.9388
0
VERTEX
8
CUT
10
27.2143
20
33.8061
0
VERTEX
8
CUT
10
29.3571
20
33.7265
0
VERTEX
8
CUT
10
31.5
20
33.7
0
VERTEX
8
CUT
10
33.6429
20
33.7265
0
VERTEX
8
CUT
10
35.7857
20
33.8061
0
VERTEX
8
CUT
10
37.9286
20
33.9388
0
VERTEX
8
CUT
10
40.0714
20
34.1245
0
VERTEX
8
CUT
10
42.2143
20
34.3633
0
VERTEX
8
CUT
10
44.3571
20
34.6551
0
VERTEX
8
CUT
10
46.5
20
35
0
SEQEND
0
POLYLINE
8
CUT
66
1
70
0
0
VERTEX
8
CUT
10
48
20
35
0
VERTEX
8
CUT
10
50.1429
20
34.6551
0
VERTEX
8
CUT
10
52.2857
20
34.3633
0
VERTEX
8
CUT
10
54.4286
20
34.1245
0
VERTEX
8
CUT
10
56.5714
20
33.9388
0
VERTEX
8
CUT
10
58.7143
20
33.8061
0
VERTEX
8
CUT
10
60.8571
20
33.7265
0
VERTEX
8
CUT
10
63
20
33.7
0
VERTEX
8
CUT
10
65.1429
20
33.7265
0
VERTEX
8
CUT
10
67.2857
20
33.8061
0
VERTEX
8
CUT
10
69.4286
20
33.9388
0
VERTEX
8
CUT
10
71.5714
20
34.1245
0
VERTEX
8
CUT
10
73.7143
20
34.3633
0
VERTEX
8
CUT
10
75.8571
20
34.6551
0
VERTEX
8
CUT
10
78
20
35
0
SEQEND
0
POLYLINE
8
CUT
66
1
70
0
0
VERTEX
8
CUT
10
79.5
20
35
0
VERTEX
8
CUT
10
81.6429
20
34.6551
0
VERTEX
8
CUT
10
83.7857
20
34.3633
0
VERTEX
8
CUT
10
85.9286
20
34.1245
0
VERTEX
8
CUT
10
88.0714
20
33.9388
0
VERTEX
8
CUT
10
90.2143
20
33.8061
0
VERTEX
8
CUT
10
92.3571
20
33.7265
0
VERTEX
8
CUT
10
94.5
20
33.7
0
VERTEX
8
CUT
10
96.6429
20
33.7265
0
VERTEX
8
CUT
10
98.7857
20
33.8061
0
VERTEX
8
CUT
10
100.9286
20
33.9388
0
VERTEX
8
CUT
10
103.0714
20
34.1245
0
VERTEX
8
CUT
10
105.2143
20
34.3633
0
VERTEX
8
CUT
10
107.3571
20
34.6551
0
VERTEX
8
CUT
10
109.5
20
35
0
SEQEND
0
POLYLINE
8
CUT
66
1
70
0
0
VERTEX
8
CUT
10
111
20
35
0
VERTEX
8
CUT
10
113.1429
20
34.6551
0
VERTEX
8
CUT
10
115.2857
20
34.3633
0
VERTEX
8
CUT
10
117.4286
20
34.1245
0
VERTEX
8
CUT
10
119.5714
20
33.9388
0
VERTEX
8
CUT
10
120
20
33.9122
0
SEQEND
0
POLYLINE
8
CUT
66
1
70
0
0
VERTEX
8
CUT
10
0.75
20
31
0
VERTEX
8
CUT
10
2.8929
20
31.3449
0
VERTEX
8
CUT
10
5.0357
20
31.6367
0
VERTEX
8
CUT
10
7.1786
20
31.8755
0
VERTEX
8
CUT
10
9.3214
20
32.0612
0
VERTEX
8
CUT
10
11.4643
20
32.1939
0
VERTEX
8
CUT
10
13.6071
20
32.2735
0
VERTEX
8
CUT
10
15.75
20
32.3
0
VERTEX
8
CUT
10
17.8929
20
32.2735
0
VERTEX
8
CUT
10
20.0357
20
32.1939
0
VERTEX
8
CUT
10
22.1786
20
32.0612
0
VERTEX
8
CUT
10
24.3214
20
31.8755
0
VERTEX
8
CUT
10
26.4643
20
31.6367
0
VERTEX
8
CUT
10
28.6071
20
31.3449
0
VERTEX
8
CUT
10
30.75
20
31
0
SEQEND
0
POLYLINE
8
CUT
66
1
70
0
0
VERTEX
8
CUT
10
32.25
20
31
0
VERTEX
8
CUT
10
34.3929
20
31.3449
0
VERTEX
8
CUT
10
36.5357
20
31.6367
0
VERTEX
8
CUT
10
38.6786
20
31.8755
0
VERTEX
8
CUT
10
40.8214
20
32.0612
0
VERTEX
8
CUT
10
42.9643
20
32.1939
0
VERTEX
8
CUT
10
45.1071
20
32.2735
0
VERTEX
8
CUT
10
47.25
20
32.3
0
VERTEX
8
CUT
10
49.3929
20
32.2735
0
VERTEX
8
CUT
10
51.5357
20
32.1939
0
VERTEX
8
CUT
10
53.6786
20
32.0612
0
VERTEX
8
CUT
10
55.8214
20
31.8755
0
VERTEX
8
CUT
10
57.9643
20
31.6367
0
VERTEX
8
CUT
10
60.1071
20
31.3449
0
VERTEX
8
CUT
10
62.25
20
31
0
SEQEND
0
POLYLINE
8
CUT
66
1
70
0
0
VERTEX
8
CUT
10
63.75
20
31
0
VERTEX
8
CUT
10
65.8929
20
31.3449
0
VERTEX
8
CUT
10
68.0357
20
31.6367
0
VERTEX
8
CUT
10
70.1786
20
31.8755
0
VERTEX
8
CUT
10
72.3214
20
32.0612
0
VERTEX
8
CUT
10
74.4643
20
32.1939
0
VERTEX
8
CUT
10
76.6071
20
32.2735
0
VERTEX
8
CUT
10
78.75
20
32.3
0
VERTEX
8
CUT
10
80.8929
20
32.2735
0
VERTEX
8
CUT
10
83.0357
20
32.1939
0
VERTEX
8
CUT
10
85.1786
20
32.0612
0
VERTEX
8
CUT
10
87.3214
20
31.8755
0
VERTEX
8
CUT
10
89.4643
20
31.6367
0
VERTEX
8
CUT
10
91.6071
20
31.3449
0
VERTEX
8
CUT
10
93.75
20
31
0
SEQEND
0
POLYLINE
8
CUT
66
1
70
0
0
VERTEX
8
CUT
10
95.25
20
31
0
VERTEX
8
CUT
10
97.3929
20
31.3449
0
VERTEX
8
CUT
10
99.5357
20
31.6367
0
VERTEX
8
CUT
10
101.6786
20
31.8755
0
VERTEX
8
CUT
10
103.8214
20
32.0612
0
VERTEX
8
CUT
10
105.9643
20
32.1939
0
VERTEX
8
CUT
10
108.1071
20
32.2735
0
VERTEX
8
CUT
10
110.25
20
32.3
0
VERTEX
8
CUT
10
112.3929
20
32.2735
0
VERTEX
8
CUT
10
114.5357
20
32.1939
0
VERTEX
8
CUT
10
116.6786
20
32.0612
0
VERTEX
8
CUT
10
118.8214
20
31.8755
0
VERTEX
8
CUT
10
120
20
31.7442
0
SEQEND
0
POLYLINE
8
CUT
66
1
70
0
0
VERTEX
8
CUT
10
0
20
25.7
0
VERTEX
8
CUT
10
0
20
25.7
0
VERTEX
8
CUT
10
2.1429
20
25.7265
0
VERTEX
8
CUT
10
4.2857
20
25.8061
0
VERTEX
8
CUT
10
6.4286
20
25.9388
0
VERTEX
8
CUT
10
8.5714
20
26.1245
0
VERTEX
8
CUT
10
10.7143
20
26.3633
0
VERTEX
8
CUT
10
12.8571
20
26.6551
0
VERTEX
8
CUT
10
15
20
27
0
SEQEND
0
POLYLINE
8
CUT
66
1
70
0
0
VERTEX
8
CUT
10
16.5
20
27
0
VERTEX
8
CUT
10
18.6429
20
26.6551
0
VERTEX
8
CUT
10
20.7857
20
26.3633
0
VERTEX
8
CUT
10
22.9286
20
26.1245
0
VERTEX
8
CUT
10
25.0714
20
25.9388
0
VERTEX
8
CUT
10
27.2143
20
25.8061
0
VERTEX
8
CUT
10
29.3571
20
25.7265
0
VERTEX
8
CUT
10
31.5
20
25.7
0
VERTEX
8
CUT
10
33.6429
20
25.7265
0
VERTEX
8
CUT
10
35.7857
20
25.8061
0
VERTEX
8
CUT
10
37.9286
20
25.9388
0
VERTEX
8
CUT
10
40.0714
20
26.1245
0
VERTEX
8
CUT
10
42.2143
20
26.3633
0
VERTEX
8
CUT
10
44.3571
20
26.6551
0
VERTEX
8
CUT
10
46.5
20
27
0
SEQEND
0
POLYLINE
8
CUT
66
1
70
0
0
VERTEX
8
CUT
10
48
20
27
0
VERTEX
8
CUT
10
50.1429
20
26.6551
0
VERTEX
8
CUT
10
52.2857
20
26.3633
0
VERTEX
8
CUT
10
54.4286
20
26.1245
0
VERTEX
8
CUT
10
56.5714
20
25.9388
0
VERTEX
8
CUT
10
58.7143
20
25.8061
0
VERTEX
8
CUT
10
60.8571
20
25.7265
0
VERTEX
8
CUT
10
63
20
25.7
0
VERTEX
8
CUT
10
65.1429
20
25.7265
0
VERTEX
8
CUT
10
67.2857
20
25.8061
0
VERTEX
8
CUT
10
69.4286
20
25.9388
0
VERTEX
8
CUT
10
71.5714
20
26.1245
0
VERTEX
8
CUT
10
73.7143
20
26.3633
0
VERTEX
8
CUT
10
75.8571
20
26.6551
0
VERTEX
8
CUT
10
78
20
27
0
SEQEND
0
POLYLINE
8
CUT
66
1
70
0
0
VERTEX
8
CUT
10
79.5
20
27
0
VERTEX
8
CUT
10
81.6429
20
26.6551
0
VERTEX
8
CUT
10
83.7857
20
26.3633
0
VERTEX
8
CUT
10
85.9286
20
26.1245
0
VERTEX
8
CUT
10
88.0714
20
25.9388
0
VERTEX
8
CUT
10
90.2143
20
25.8061
0
VERTEX
8
CUT
10
92.3571
20
25.7265
0
VERTEX
8
CUT
10
94.5
20
25.7
0
VERTEX
8
CUT
10
96.6429
20
25.7265
0
VERTEX
8
CUT
10
98.7857
20
25.8061
0
VERTEX
8
CUT
10
100.9286
20
25.9388
0
VERTEX
8
CUT
10
103.0714
20
26.1245
0
VERTEX
8
CUT
10
105.2143
20
26.3633
0
VERTEX
8
CUT
10
107.3571
20
26.6551
0
VERTEX
8
CUT
10
109.5
20
27
0
SEQEND
0
POLYLINE
8
CUT
66
1
70
0
0
VERTEX
8
CUT
10
111
20
27
0
VERTEX
8
CUT
10
113.1429
20
26.6551
0
VERTEX
8
CUT
10
115.2857
20
26.3633
0
VERTEX
8
CUT
10
117.4286
20
26.1245
0
VERTEX
8
CUT
10
119.5714
20
25.9388
0
VERTEX
8
CUT
10
120
20
25.9122
0
SEQEND
0
POLYLINE
8
CUT
66
1
70
0
0
VERTEX
8
CUT
10
0.75
20
23
0
VERTEX
8
CUT
10
2.8929
20
23.3449
0
VERTEX
8
CUT
10
5.0357
20
23.6367
0
VERTEX
8
CUT
10
7.1786
20
23.8755
0
VERTEX
8
CUT
10
9.3214
20
24.0612
0
VERTEX
8
CUT
10
11.4643
20
24.1939
0
VERTEX
8
CUT
10
13.6071
20
24.2735
0
VERTEX
8
CUT
10
15.75
20
24.3
0
VERTEX
8
CUT
10
17.8929
20
24.2735
0
VERTEX
8
CUT
10
20.0357
20
24.1939
0
VERTEX
8
CUT
10
22.1786
20
24.0612
0
VERTEX
8
CUT
10
24.3214
20
23.8755
0
VERTEX
8
CUT
10
26.4643
20
23.6367
0
VERTEX
8
CUT
10
28.6071
20
23.3449
0
VERTEX
8
CUT
10
30.75
20
23
0
SEQEND
0
POLYLINE
8
CUT
66
1
70
0
0
VERTEX
8
CUT
10
32.25
20
23
0
VERTEX
8
CUT
10
34.3929
20
23.3449
0
VERTEX
8
CUT
10
36.5357
20
23.6367
0
VERTEX
8
CUT
10
38.6786
20
23.8755
0
VERTEX
8
CUT
10
40.8214
20
24.0612
0
VERTEX
8
CUT
10
42.9643
20
24.1939
0
VERTEX
8
CUT
10
45.1071
20
24.2735
0
VERTEX
8
CUT
10
47.25
20
24.3
0
VERTEX
8
CUT
10
49.3929
20
24.2735
0
VERTEX
8
CUT
10
51.5357
20
24.1939
0
VERTEX
8
CUT
10
53.6786
20
24.0612
0
VERTEX
8
CUT
10
55.8214
20
23.8755
0
VERTEX
8
CUT
10
57.9643
20
23.6367
0
VERTEX
8
CUT
10
60.1071
20
23.3449
0
VERTEX
8
CUT
10
62.25
20
23
0
SEQEND
0
POLYLINE
8
CUT
66
1
70
0
0
VERTEX
8
CUT
10
63.75
20
23
0
VERTEX
8
CUT
10
65.8929
20
23.3449
0
VERTEX
8
CUT
10
68.0357
20
23.6367
0
VERTEX
8
CUT
10
70.1786
20
23.8755
0
VERTEX
8
CUT
10
72.3214
20
24.0612
0
VERTEX
8
CUT
10
74.4643
20
24.1939
0
VERTEX
8
CUT
10
76.6071
20
24.2735
0
VERTEX
8
CUT
10
78.75
20
24.3
0
VERTEX
8
CUT
10
80.8929
20
24.2735
0
VERTEX
8
CUT
10
83.0357
20
24.1939
0
VERTEX
8
CUT
10
85.1786
20
24.0612
0
VERTEX
8
CUT
10
87.3214
20
23.8755
0
VERTEX
8
CUT
10
89.4643
20
23.6367
0
VERTEX
8
CUT
10
91.6071
20
23.3449
0
VERTEX
8
CUT
10
93.75
20
23
0
SEQEND
0
POLYLINE
8
CUT
66
1
70
0
0
VERTEX
8
CUT
10
95.25
20
23
0
VERTEX
8
CUT
10
97.3929
20
23.3449
0
VERTEX
8
CUT
10
99.5357
20
23.6367
0
VERTEX
8
CUT
10
101.6786
20
23.8755
0
VERTEX
8
CUT
10
103.8214
20
24.0612
0
VERTEX
8
CUT
10
105.9643
20
24.1939
0
VERTEX
8
CUT
10
108.1071
20
24.2735
0
VERTEX
8
CUT
10
110.25
20
24.3
0
VERTEX
8
CUT
10
112.3929
20
24.2735
0
VERTEX
8
CUT
10
114.5357
20
24.1939
0
VERTEX
8
CUT
10
116.6786
20
24.0612
0
VERTEX
8
CUT
10
118.8214
20
23.8755
0
VERTEX
8
CUT
10
120
20
23.7442
0
SEQEND
0
POLYLINE
8
CUT
66
1
70
0
0
VERTEX
8
CUT
10
0
20
17.7
0
VERTEX
8
CUT
10
0
20
17.7
0
VERTEX
8
CUT
10
2.1429
20
17.7265
0
VERTEX
8
CUT
10
4.2857
20
17.8061
0
VERTEX
8
CUT
10
6.4286
20
17.9388
0
VERTEX
8
CUT
10
8.5714
20
18.1245
0
VERTEX
8
CUT
10
10.7143
20
18.3633
0
VERTEX
8
CUT
10
12.8571
20
18.6551
0
VERTEX
8
CUT
10
15
20
19
0
SEQEND
0
POLYLINE
8
CUT
66
1
70
0
0
VERTEX
8
CUT
10
16.5
20
19
0
VERTEX
8
CUT
10
18.6429
20
18.6551
0
VERTEX
8
CUT
10
20.7857
20
18.3633
0
VERTEX
8
CUT
10
22.9286
20
18.1245
0
VERTEX
8
CUT
10
25.0714
20
17.9388
0
VERTEX
8
CUT
10
27.2143
20
17.8061
0
VERTEX
8
CUT
10
29.3571
20
17.7265
0
VERTEX
8
CUT
10
31.5
20
17.7
0
VERTEX
8
CUT
10
33.6429
20
17.7265
0
VERTEX
8
CUT
10
35.7857
20
17.8061
0
VERTEX
8
CUT
10
37.9286
20
17.9388
0
VERTEX
8
CUT
10
40.0714
20
18.1245
0
VERTEX
8
CUT
10
42.2143
20
18.3633
0
VERTEX
8
CUT
10
44.3571
20
18.6551
0
VERTEX
8
CUT
10
46.5
20
19
0
SEQEND
0
POLYLINE
8
CUT
66
1
70
0
0
VERTEX
8
CUT
10
48
20
19
0
VERTEX
8
CUT
10
50.1429
20
18.6551
0
VERTEX
8
CUT
10
52.2857
20
18.3633
0
VERTEX
8
CUT
10
54.4286
20
18.1245
0
VERTEX
8
CUT
10
56.5714
20
17.9388
0
VERTEX
8
CUT
10
58.7143
20
17.8061
0
VERTEX
8
CUT
10
60.8571
20
17.7265
0
VERTEX
8
CUT
10
63
20
17.7
0
VERTEX
8
CUT
10
65.1429
20
17.7265
0
VERTEX
8
CUT
10
67.2857
20
17.8061
0
VERTEX
8
CUT
10
69.4286
20
17.9388
0
VERTEX
8
CUT
10
71.5714
20
18.1245
0
VERTEX
8
CUT
10
73.7143
20
18.3633
0
VERTEX
8
CUT
10
75.8571
20
18.6551
0
VERTEX
8
CUT
10
78
20
19
0
SEQEND
0
POLYLINE
8
CUT
66
1
70
0
0
VERTEX
8
CUT
10
79.5
20
19
0
VERTEX
8
CUT
10
81.6429
20
18.6551
0
VERTEX
8
CUT
10
83.7857
20
18.3633
0
VERTEX
8
CUT
10
85.9286
20
18.1245
0
VERTEX
8
CUT
10
88.0714
20
17.9388
0
VERTEX
8
CUT
10
90.2143
20
17.8061
0
VERTEX
8
CUT
10
92.3571
20
17.7265
0
VERTEX
8
CUT
10
94.5
20
17.7
0
VERTEX
8
CUT
10
96.6429
20
17.7265
0
VERTEX
8
CUT
10
98.7857
20
17.8061
0
VERTEX
8
CUT
10
100.9286
20
17.9388
0
VERTEX
8
CUT
10
103.0714
20
18.1245
0
VERTEX
8
CUT
10
105.2143
20
18.3633
0
VERTEX
8
CUT
10
107.3571
20
18.6551
0
VERTEX
8
CUT
10
109.5
20
19
0
SEQEND
0
POLYLINE
8
CUT
66
1
70
0
0
VERTEX
8
CUT
10
111
20
19
0
VERTEX
8
CUT
10
113.1429
20
18.6551
0
VERTEX
8
CUT
10
115.2857
20
18.3633
0
VERTEX
8
CUT
10
117.4286
20
18.1245
0
VERTEX
8
CUT
10
119.5714
20
17.9388
0
VERTEX
8
CUT
10
120
20
17.9122
0
SEQEND
0
POLYLINE
8
CUT
66
1
70
0
0
VERTEX
8
CUT
10
0.75
20
15
0
VERTEX
8
CUT
10
2.8929
20
15.3449
0
VERTEX
8
CUT
10
5.0357
20
15.6367
0
VERTEX
8
CUT
10
7.1786
20
15.8755
0
VERTEX
8
CUT
10
9.3214
20
16.0612
0
VERTEX
8
CUT
10
11.4643
20
16.1939
0
VERTEX
8
CUT
10
13.6071
20
16.2735
0
VERTEX
8
CUT
10
15.75
20
16.3
0
VERTEX
8
CUT
10
17.8929
20
16.2735
0
VERTEX
8
CUT
10
20.0357
20
16.1939
0
VERTEX
8
CUT
10
22.1786
20
16.0612
0
VERTEX
8
CUT
10
24.3214
20
15.8755
0
VERTEX
8
CUT
10
26.4643
20
15.6367
0
VERTEX
8
CUT
10
28.6071
20
15.3449
0
VERTEX
8
CUT
10
30.75
20
15
0
SEQEND
0
POLYLINE
8
CUT
66
1
70
0
0
VERTEX
8
CUT
10
32.25
20
15
0
VERTEX
8
CUT
10
34.3929
20
15.3449
0
VERTEX
8
CUT
10
36.5357
20
15.6367
0
VERTEX
8
CUT
10
38.6786
20
15.8755
0
VERTEX
8
CUT
10
40.8214
20
16.0612
0
VERTEX
8
CUT
10
42.9643
20
16.1939
0
VERTEX
8
CUT
10
45.1071
20
16.2735
0
VERTEX
8
CUT
10
47.25
20
16.3
0
VERTEX
8
CUT
10
49.3929
20
16.2735
0
VERTEX
8
CUT
10
51.5357
20
16.1939
0
VERTEX
8
CUT
10
53.6786
20
16.0612
0
VERTEX
8
CUT
10
55.8214
20
15.8755
0
VERTEX
8
CUT
10
57.9643
20
15.6367
0
VERTEX
8
CUT
10
60.1071
20
15.3449
0
VERTEX
8
CUT
10
62.25
20
15
0
SEQEND
0
POLYLINE
8
CUT
66
1
70
0
0
VERTEX
8
CUT
10
63.75
20
15
0
VERTEX
8
CUT
10
65.8929
20
15.3449
0
VERTEX
8
CUT
10
68.0357
20
15.6367
0
VERTEX
8
CUT
10
70.1786
20
15.8755
0
VERTEX
8
CUT
10
72.3214
20
16.0612
0
VERTEX
8
CUT
10
74.4643
20
16.1939
0
VERTEX
8
CUT
10
76.6071
20
16.2735
0
VERTEX
8
CUT
10
78.75
20
16.3
0
VERTEX
8
CUT
10
80.8929
20
16.2735
0
VERTEX
8
CUT
10
83.0357
20
16.1939
0
VERTEX
8
CUT
10
85.1786
20
16.0612
0
VERTEX
8
CUT
10
87.3214
20
15.8755
0
VERTEX
8
CUT
10
89.4643
20
15.6367
0
VERTEX
8
CUT
10
91.6071
20
15.3449
0
VERTEX
8
CUT
10
93.75
20
15
0
SEQEND
0
POLYLINE
8
CUT
66
1
70
0
0
VERTEX
8
CUT
10
95.25
20
15
0
VERTEX
8
CUT
10
97.3929
20
15.3449
0
VERTEX
8
CUT
10
99.5357
20
15.6367
0
VERTEX
8
CUT
10
101.6786
20
15.8755
0
VERTEX
8
CUT
10
103.8214
20
16.0612
0
VERTEX
8
CUT
10
105.9643
20
16.1939
0
VERTEX
8
CUT
10
108.1071
20
16.2735
0
VERTEX
8
CUT
10
110.25
20
16.3
0
VERTEX
8
CUT
10
112.3929
20
16.2735
0
VERTEX
8
CUT
10
114.5357
20
16.1939
0
VERTEX
8
CUT
10
116.6786
20
16.0612
0
VERTEX
8
CUT
10
118.8214
20
15.8755
0
VERTEX
8
CUT
10
120
20
15.7442
0
SEQEND
0
POLYLINE
8
CUT
66
1
70
0
0
VERTEX
8
CUT
10
0
20
9.7
0
VERTEX
8
CUT
10
0
20
9.7
0
VERTEX
8
CUT
10
2.1429
20
9.7265
0
VERTEX
8
CUT
10
4.2857
20
9.8061
0
VERTEX
8
CUT
10
6.4286
20
9.9388
0
VERTEX
8
CUT
10
8.5714
20
10.1245
0
VERTEX
8
CUT
10
10.7143
20
10.3633
0
VERTEX
8
CUT
10
12.8571
20
10.6551
0
VERTEX
8
CUT
10
15
20
11
0
SEQEND
0
POLYLINE
8
CUT
66
1
70
0
0
VERTEX
8
CUT
10
16.5
20
11
0
VERTEX
8
CUT
10
18.6429
20
10.6551
0
VERTEX
8
CUT
10
20.7857
20
10.3633
0
VERTEX
8
CUT
10
22.9286
20
10.1245
0
VERTEX
8
CUT
10
25.0714
20
9.9388
0
VERTEX
8
CUT
10
27.2143
20
9.8061
0
VERTEX
8
CUT
10
29.3571
20
9.7265
0
VERTEX
8
CUT
10
31.5
20
9.7
0
VERTEX
8
CUT
10
33.6429
20
9.7265
0
VERTEX
8
CUT
10
35.7857
20
9.8061
0
VERTEX
8
CUT
10
37.9286
20
9.9388
0
VERTEX
8
CUT
10
40.0714
20
10.1245
0
VERTEX
8
CUT
10
42.2143
20
10.3633
0
VERTEX
8
CUT
10
44.3571
20
10.6551
0
VERTEX
8
CUT
10
46.5
20
11
0
SEQEND
0
POLYLINE
8
CUT
66
1
70
0
0
VERTEX
8
CUT
10
48
20
11
0
VERTEX
8
CUT
10
50.1429
20
10.6551
0
VERTEX
8
CUT
10
52.2857
20
10.3633
0
VERTEX
8
CUT
10
54.4286
20
10.1245
0
VERTEX
8
CUT
10
56.5714
20
9.9388
0
VERTEX
8
CUT
10
58.7143
20
9.8061
0
VERTEX
8
CUT
10
60.8571
20
9.7265
0
VERTEX
8
CUT
10
63
20
9.7
0
VERTEX
8
CUT
10
65.1429
20
9.7265
0
VERTEX
8
CUT
10
67.2857
20
9.8061
0
VERTEX
8
CUT
10
69.4286
20
9.9388
0
VERTEX
8
CUT
10
71.5714
20
10.1245
0
VERTEX
8
CUT
10
73.7143
20
10.3633
0
VERTEX
8
CUT
10
75.8571
20
10.6551
0
VERTEX
8
CUT
10
78
20
11
0
SEQEND
0
POLYLINE
8
CUT
66
1
70
0
0
VERTEX
8
CUT
10
79.5
20
11
0
VERTEX
8
CUT
10
81.6429
20
10.6551
0
VERTEX
8
CUT
10
83.7857
20
10.3633
0
VERTEX
8
CUT
10
85.9286
20
10.1245
0
VERTEX
8
CUT
10
88.0714
20
9.9388
0
VERTEX
8
CUT
10
90.2143
20
9.8061
0
VERTEX
8
CUT
10
92.3571
20
9.7265
0
VERTEX
8
CUT
10
94.5
20
9.7
0
VERTEX
8
CUT
10
96.6429
20
9.7265
0
VERTEX
8
CUT
10
98.7857
20
9.8061
0
VERTEX
8
CUT
10
100.9286
20
9.9388
0
VERTEX
8
CUT
10
103.0714
20
10.1245
0
VERTEX
8
CUT
10
105.2143
20
10.3633
0
VERTEX
8
CUT
10
107.3571
20
10.6551
0
VERTEX
8
CUT
10
109.5
20
11
0
SEQEND
0
POLYLINE
8
CUT
66
1
70
0
0
VERTEX
8
CUT
10
111
20
11
0
VERTEX
8
CUT
10
113.1429
20
10.6551
0
VERTEX
8
CUT
10
115.2857
20
10.3633
0
VERTEX
8
CUT
10
117.4286
20
10.1245
0
VERTEX
8
CUT
10
119.5714
20
9.9388
0
VERTEX
8
CUT
10
120
20
9.9122
0
SEQEND
0
POLYLINE
8
CUT
66
1
70
0
0
VERTEX
8
CUT
10
0.75
20
7
0
VERTEX
8
CUT
10
2.8929
20
7.3449
0
VERTEX
8
CUT
10
5.0357
20
7.6367
0
VERTEX
8
CUT
10
7.1786
20
7.8755
0
VERTEX
8
CUT
10
9.3214
20
8.0612
0
VERTEX
8
CUT
10
11.4643
20
8.1939
0
VERTEX
8
CUT
10
13.6071
20
8.2735
0
VERTEX
8
CUT
10
15.75
20
8.3
0
VERTEX
8
CUT
10
17.8929
20
8.2735
0
VERTEX
8
CUT
10
20.0357
20
8.1939
0
VERTEX
8
CUT
10
22.1786
20
8.0612
0
VERTEX
8
CUT
10
24.3214
20
7.8755
0
VERTEX
8
CUT
10
26.4643
20
7.6367
0
VERTEX
8
CUT
10
28.6071
20
7.3449
0
VERTEX
8
CUT
10
30.75
20
7
0
SEQEND
0
POLYLINE
8
CUT
66
1
70
0
0
VERTEX
8
CUT
10
32.25
20
7
0
VERTEX
8
CUT
10
34.3929
20
7.3449
0
VERTEX
8
CUT
10
36.5357
20
7.6367
0
VERTEX
8
CUT
10
38.6786
20
7.8755
0
VERTEX
8
CUT
10
40.8214
20
8.0612
0
VERTEX
8
CUT
10
42.9643
20
8.1939
0
VERTEX
8
CUT
10
45.1071
20
8.2735
0
VERTEX
8
CUT
10
47.25
20
8.3
0
VERTEX
8
CUT
10
49.3929
20
8.2735
0
VERTEX
8
CUT
10
51.5357
20
8.1939
0
VERTEX
8
CUT
10
53.6786
20
8.0612
0
VERTEX
8
CUT
10
55.8214
20
7.8755
0
VERTEX
8
CUT
10
57.9643
20
7.6367
0
VERTEX
8
CUT
10
60.1071
20
7.3449
0
VERTEX
8
CUT
10
62.25
20
7
0
SEQEND
0
POLYLINE
8
CUT
66
1
70
0
0
VERTEX
8
CUT
10
63.75
20
7
0
VERTEX
8
CUT
10
65.8929
20
7.3449
0
VERTEX
8
CUT
10
68.0357
20
7.6367
0
VERTEX
8
CUT
10
70.1786
20
7.8755
0
VERTEX
8
CUT
10
72.3214
20
8.0612
0
VERTEX
8
CUT
10
74.4643
20
8.1939
0
VERTEX
8
CUT
10
76.6071
20
8.2735
0
VERTEX
8
CUT
10
78.75
20
8.3
0
VERTEX
8
CUT
10
80.8929
20
8.2735
0
VERTEX
8
CUT
10
83.0357
20
8.1939
0
VERTEX
8
CUT
10
85.1786
20
8.0612
0
VERTEX
8
CUT
10
87.3214
20
7.8755
0
VERTEX
8
CUT
10
89.4643
20
7.6367
0
VERTEX
8
CUT
10
91.6071
20
7.3449
0
VERTEX
8
CUT
10
93.75
20
7
0
SEQEND
0
POLYLINE
8
CUT
66
1
70
0
0
VERTEX
8
CUT
10
95.25
20
7
0
VERTEX
8
CUT
10
97.3929
20
7.3449
0
VERTEX
8
CUT
10
99.5357
20
7.6367
0
VERTEX
8
CUT
10
101.6786
20
7.8755
0
VERTEX
8
CUT
10
103.8214
20
8.0612
0
VERTEX
8
CUT
10
105.9643
20
8.1939
0
VERTEX
8
CUT
10
108.1071
20
8.2735
0
VERTEX
8
CUT
10
110.25
20
8.3
0
VERTEX
8
CUT
10
112.3929
20
8.2735
0
VERTEX
8
CUT
10
114.5357
20
8.1939
0
VERTEX
8
CUT
10
116.6786
20
8.0612
0
VERTEX
8
CUT
10
118.8214
20
7.8755
0
VERTEX
8
CUT
10
120
20
7.7442
0
SEQEND
0
POLYLINE
8
CUT
66
1
70
0
0
VERTEX
8
CUT
10
0
20
1.7
0
VERTEX
8
CUT
10
0
20
1.7
0
VERTEX
8
CUT
10
2.1429
20
1.7265
0
VERTEX
8
CUT
10
4.2857
20
1.8061
0
VERTEX
8
CUT
10
6.4286
20
1.9388
0
VERTEX
8
CUT
10
8.5714
20
2.1245
0
VERTEX
8
CUT
10
10.7143
20
2.3633
0
VERTEX
8
CUT
10
12.8571
20
2.6551
0
VERTEX
8
CUT
10
15
20
3
0
SEQEND
0
POLYLINE
8
CUT
66
1
70
0
0
VERTEX
8
CUT
10
16.5
20
3
0
VERTEX
8
CUT
10
18.6429
20
2.6551
0
VERTEX
8
CUT
10
20.7857
20
2.3633
0
VERTEX
8
CUT
10
22.9286
20
2.1245
0
VERTEX
8
CUT
10
25.0714
20
1.9388
0
VERTEX
8
CUT
10
27.2143
20
1.8061
0
VERTEX
8
CUT
10
29.3571
20
1.7265
0
VERTEX
8
CUT
10
31.5
20
1.7
0
VERTEX
8
CUT
10
33.6429
20
1.7265
0
VERTEX
8
CUT
10
35.7857
20
1.8061
0
VERTEX
8
CUT
10
37.9286
20
1.9388
0
VERTEX
8
CUT
10
40.0714
20
2.1245
0
VERTEX
8
CUT
10
42.2143
20
2.3633
0
VERTEX
8
CUT
10
44.3571
20
2.6551
0
VERTEX
8
CUT
10
46.5
20
3
0
SEQEND
0
POLYLINE
8
CUT
66
1
70
0
0
VERTEX
8
CUT
10
48
20
3
0
VERTEX
8
CUT
10
50.1429
20
2.6551
0
VERTEX
8
CUT
10
52.2857
20
2.3633
0
VERTEX
8
CUT
10
54.4286
20
2.1245
0
VERTEX
8
CUT
10
56.5714
20
1.9388
0
VERTEX
8
CUT
10
58.7143
20
1.8061
0
VERTEX
8
CUT
10
60.8571
20
1.7265
0
VERTEX
8
CUT
10
63
20
1.7
0
VERTEX
8
CUT
10
65.1429
20
1.7265
0
VERTEX
8
CUT
10
67.2857
20
1.8061
0
VERTEX
8
CUT
10
69.4286
20
1.9388
0
VERTEX
8
CUT
10
71.5714
20
2.1245
0
VERTEX
8
CUT
10
73.7143
20
2.3633
0
VERTEX
8
CUT
10
75.8571
20
2.6551
0
VERTEX
8
CUT
10
78
20
3
0
SEQEND
0
POLYLINE
8
CUT
66
1
70
0
0
VERTEX
8
CUT
10
79.5
20
3
0
VERTEX
8
CUT
10
81.6429
20
2.6551
0
VERTEX
8
CUT
10
83.7857
20
2.3633
0
VERTEX
8
CUT
10
85.9286
20
2.1245
0
VERTEX
8
CUT
10
88.0714
20
1.9388
0
VERTEX
8
CUT
10
90.2143
20
1.8061
0
VERTEX
8
CUT
10
92.3571
20
1.7265
0
VERTEX
8
CUT
10
94.5
20
1.7
0
VERTEX
8
CUT
10
96.6429
20
1.7265
0
VERTEX
8
CUT
10
98.7857
20
1.8061
0
VERTEX
8
CUT
10
100.9286
20
1.9388
0
VERTEX
8
CUT
10
103.0714
20
2.1245
0
VERTEX
8
CUT
10
105.2143
20
2.3633
0
VERTEX
8
CUT
10
107.3571
20
2.6551
0
VERTEX
8
CUT
10
109.5
20
3
0
SEQEND
0
POLYLINE
8
CUT
66
1
70
0
0
VERTEX
8
CUT
10
111
20
3
0
VERTEX
8
CUT
10
113.1429
20
2.6551
0
VERTEX
8
CUT
10
115.2857
20
2.3633
0
VERTEX
8
CUT
10
117.4286
20
2.1245
0
VERTEX
8
CUT
10
119.5714
20
1.9388
0
VERTEX
8
CUT
10
120
20
1.9122
0
SEQEND
0
POLYLINE
8
CUT
66
1
70
0
0
VERTEX
8
CUT
10
0
20
70
0
VERTEX
8
CUT
10
120
20
70
0
VERTEX
8
CUT
10
120
20
0
0
VERTEX
8
CUT
10
0
20
0
0
VERTEX
8
CUT
10
0
20
70
0
SEQEND
0
ENDSEC
0
EOF
