0
SECTION
2
HEADER
9
$ACADVER
1
AC1009
9
$INSUNITS
70
4
0
ENDSEC
0
SECTION
2
TABLES
0
TABLE
2
LAYER
70
1
0
LAYER
2
CUT
70
0
62
1
6
CONTINUOUS
0
ENDTAB
0
ENDSEC
0
SECTION
2
ENTITIES
0
POLYLINE
8
CUT
66
1
70
0
0
VERTEX
8
CUT
10
0.6584
20
69.1591
0
VERTEX
8
CUT
10
2.2
20
70
0
VERTEX
8
CUT
10
8.8
20
70
0
VERTEX
8
CUT
10
10.3416
20
69.1591
0
SEQEND
0
POLYLINE
8
CUT
66
1
70
0
0
VERTEX
8
CUT
10
0.6584
20
68.4409
0
VERTEX
8
CUT
10
2.2
20
67.6
0
VERTEX
8
CUT
10
8.8
20
67.6
0
VERTEX
8
CUT
10
10.3416
20
68.4409
0
SEQEND
0
POLYLINE
8
CUT
66
1
70
0
0
VERTEX
8
CUT
10
11.6584
20
69.1591
0
VERTEX
8
CUT
10
13.2
20
70
0
VERTEX
8
CUT
10
19.8
20
70
0
VERTEX
8
CUT
10
21.3416
20
69.1591
0
SEQEND
0
POLYLINE
8
CUT
66
1
70
0
0
VERTEX
8
CUT
10
11.6584
20
68.4409
0
VERTEX
8
CUT
10
13.2
20
67.6
0
VERTEX
8
CUT
10
19.8
20
67.6
0
VERTEX
8
CUT
10
21.3416
20
68.4409
0
SEQEND
0
POLYLINE
8
CUT
66
1
70
0
0
VERTEX
8
CUT
10
22.6584
20
69.1591
0
VERTEX
8
CUT
10
24.2
20
70
0
VERTEX
8
CUT
10
30.8
20
70
0
VERTEX
8
CUT
10
32.3416
20
69.1591
0
SEQEND
0
POLYLINE
8
CUT
66
1
70
0
0
VERTEX
8
CUT
10
22.6584
20
68.4409
0
VERTEX
8
CUT
10
24.2
20
67.6
0
VERTEX
8
CUT
10
30.8
20
67.6
0
VERTEX
8
CUT
10
32.3416
20
68.4409
0
SEQEND
0
POLYLINE
8
CUT
66
1
70
0
0
VERTEX
8
CUT
10
33.6584
20
69.1591
0
VERTEX
8
CUT
10
35.2
20
70
0
VERTEX
8
CUT
10
41.8
20
70
0
VERTEX
8
CUT
10
43.3416
20
69.1591
0
SEQEND
0
POLYLINE
8
CUT
66
1
70
0
0
VERTEX
8
CUT
10
33.6584
20
68.4409
0
VERTEX
8
CUT
10
35.2
20
67.6
0
VERTEX
8
CUT
10
41.8
20
67.6
0
VERTEX
8
CUT
10
43.3416
20
68.4409
0
SEQEND
0
POLYLINE
8
CUT
66
1
70
0
0
VERTEX
8
CUT
10
44.6584
20
69.1591
0
VERTEX
8
CUT
10
46.2
20
70
0
VERTEX
8
CUT
10
52.8
20
70
0
VERTEX
8
CUT
10
54.3416
20
69.1591
0
SEQEND
0
POLYLINE
8
CUT
66
1
70
0
0
VERTEX
8
CUT
10
44.6584
20
68.4409
0
VERTEX
8
CUT
10
46.2
20
67.6
0
VERTEX
8
CUT
10
52.8
20
67.6
0
VERTEX
8
CUT
10
54.3416
20
68.4409
0
SEQEND
0
POLYLINE
8
CUT
66
1
70
0
0
VERTEX
8
CUT
10
55.6584
20
69.1591
0
VERTEX
8
CUT
10
57.2
20
70
0
VERTEX
8
CUT
10
63.8
20
70
0
VERTEX
8
CUT
10
65.3416
20
69.1591
0
SEQEND
0
POLYLINE
8
CUT
66
1
70
0
0
VERTEX
8
CUT
10
55.6584
20
68.4409
0
VERTEX
8
CUT
10
57.2
20
67.6
0
VERTEX
8
CUT
10
63.8
20
67.6
0
VERTEX
8
CUT
10
65.3416
20
68.4409
0
SEQEND
0
POLYLINE
8
CUT
66
1
70
0
0
VERTEX
8
CUT
10
66.6584
20
69.1591
0
VERTEX
8
CUT
10
68.2
20
70
0
VERTEX
8
CUT
10
74.8
20
70
0
VERTEX
8
CUT
10
76.3416
20
69.1591
0
SEQEND
0
POLYLINE
8
CUT
66
1
70
0
0
VERTEX
8
CUT
10
66.6584
20
68.4409
0
VERTEX
8
CUT
10
68.2
20
67.6
0
VERTEX
8
CUT
10
74.8
20
67.6
0
VERTEX
8
CUT
10
76.3416
20
68.4409
0
SEQEND
0
POLYLINE
8
CUT
66
1
70
0
0
VERTEX
8
CUT
10
77.6584
20
69.1591
0
VERTEX
8
CUT
10
79.2
20
70
0
VERTEX
8
CUT
10
85.8
20
70
0
VERTEX
8
CUT
10
87.3416
20
69.1591
0
SEQEND
0
POLYLINE
8
CUT
66
1
70
0
0
VERTEX
8
CUT
10
77.6584
20
68.4409
0
VERTEX
8
CUT
10
79.2
20
67.6
0
VERTEX
8
CUT
10
85.8
20
67.6
0
VERTEX
8
CUT
10
87.3416
20
68.4409
0
SEQEND
0
POLYLINE
8
CUT
66
1
70
0
0
VERTEX
8
CUT
10
88.6584
20
69.1591
0
VERTEX
8
CUT
10
90.2
20
70
0
VERTEX
8
CUT
10
96.8
20
70
0
VERTEX
8
CUT
10
98.3416
20
69.1591
0
SEQEND
0
POLYLINE
8
CUT
66
1
70
0
0
VERTEX
8
CUT
10
88.6584
20
68.4409
0
VERTEX
8
CUT
10
90.2
20
67.6
0
VERTEX
8
CUT
10
96.8
20
67.6
0
VERTEX
8
CUT
10
98.3416
20
68.4409
0
SEQEND
0
POLYLINE
8
CUT
66
1
70
0
0
VERTEX
8
CUT
10
99.6584
20
69.1591
0
VERTEX
8
CUT
10
101.2
20
70
0
VERTEX
8
CUT
10
107.8
20
70
0
VERTEX
8
CUT
10
109.3416
20
69.1591
0
SEQEND
0
POLYLINE
8
CUT
66
1
70
0
0
VERTEX
8
CUT
10
99.6584
20
68.4409
0
VERTEX
8
CUT
10
101.2
20
67.6
0
VERTEX
8
CUT
10
107.8
20
67.6
0
VERTEX
8
CUT
10
109.3416
20
68.4409
0
SEQEND
0
POLYLINE
8
CUT
66
1
70
0
0
VERTEX
8
CUT
10
110.6584
20
69.1591
0
VERTEX
8
CUT
10
112.2
20
70
0
VERTEX
8
CUT
10
118.8
20
70
0
VERTEX
8
CUT
10
120
20
69.3455
0
SEQEND
0
POLYLINE
8
CUT
66
1
70
0
0
VERTEX
8
CUT
10
110.6584
20
68.4409
0
VERTEX
8
CUT
10
112.2
20
67.6
0
VERTEX
8
CUT
10
118.8
20
67.6
0
VERTEX
8
CUT
10
120
20
68.2545
0
SEQEND
0
POLYLINE
8
CUT
66
1
70
0
0
VERTEX
8
CUT
10
0
20
66.7
0
VERTEX
8
CUT
10
3.3
20
66.7
0
VERTEX
8
CUT
10
4.8416
20
65.8591
0
SEQEND
0
POLYLINE
8
CUT
66
1
70
0
0
VERTEX
8
CUT
10
0
20
64.3
0
VERTEX
8
CUT
10
3.3
20
64.3
0
VERTEX
8
CUT
10
4.8416
20
65.1409
0
SEQEND
0
POLYLINE
8
CUT
66
1
70
0
0
VERTEX
8
CUT
10
6.1584
20
65.8591
0
VERTEX
8
CUT
10
7.7
20
66.7
0
VERTEX
8
CUT
10
14.3
20
66.7
0
VERTEX
8
CUT
10
15.8416
20
65.8591
0
SEQEND
0
POLYLINE
8
CUT
66
1
70
0
0
VERTEX
8
CUT
10
6.1584
20
65.1409
0
VERTEX
8
CUT
10
7.7
20
64.3
0
VERTEX
8
CUT
10
14.3
20
64.3
0
VERTEX
8
CUT
10
15.8416
20
65.1409
0
SEQEND
0
POLYLINE
8
CUT
66
1
70
0
0
VERTEX
8
CUT
10
17.1584
20
65.8591
0
VERTEX
8
CUT
10
18.7
20
66.7
0
VERTEX
8
CUT
10
25.3
20
66.7
0
VERTEX
8
CUT
10
26.8416
20
65.8591
0
SEQEND
0
POLYLINE
8
CUT
66
1
70
0
0
VERTEX
8
CUT
10
17.1584
20
65.1409
0
VERTEX
8
CUT
10
18.7
20
64.3
0
VERTEX
8
CUT
10
25.3
20
64.3
0
VERTEX
8
CUT
10
26.8416
20
65.1409
0
SEQEND
0
POLYLINE
8
CUT
66
1
70
0
0
VERTEX
8
CUT
10
28.1584
20
65.8591
0
VERTEX
8
CUT
10
29.7
20
66.7
0
VERTEX
8
CUT
10
36.3
20
66.7
0
VERTEX
8
CUT
10
37.8416
20
65.8591
0
SEQEND
0
POLYLINE
8
CUT
66
1
70
0
0
VERTEX
8
CUT
10
28.1584
20
65.1409
0
VERTEX
8
CUT
10
29.7
20
64.3
0
VERTEX
8
CUT
10
36.3
20
64.3
0
VERTEX
8
CUT
10
37.8416
20
65.1409
0
SEQEND
0
POLYLINE
8
CUT
66
1
70
0
0
VERTEX
8
CUT
10
39.1584
20
65.8591
0
VERTEX
8
CUT
10
40.7
20
66.7
0
VERTEX
8
CUT
10
47.3
20
66.7
0
VERTEX
8
CUT
10
48.8416
20
65.8591
0
SEQEND
0
POLYLINE
8
CUT
66
1
70
0
0
VERTEX
8
CUT
10
39.1584
20
65.1409
0
VERTEX
8
CUT
10
40.7
20
64.3
0
VERTEX
8
CUT
10
47.3
20
64.3
0
VERTEX
8
CUT
10
48.8416
20
65.1409
0
SEQEND
0
POLYLINE
8
CUT
66
1
70
0
0
VERTEX
8
CUT
10
50.1584
20
65.8591
0
VERTEX
8
CUT
10
51.7
20
66.7
0
VERTEX
8
CUT
10
58.3
20
66.7
0
VERTEX
8
CUT
10
59.8416
20
65.8591
0
SEQEND
0
POLYLINE
8
CUT
66
1
70
0
0
VERTEX
8
CUT
10
50.1584
20
65.1409
0
VERTEX
8
CUT
10
51.7
20
64.3
0
VERTEX
8
CUT
10
58.3
20
64.3
0
VERTEX
8
CUT
10
59.8416
20
65.1409
0
SEQEND
0
POLYLINE
8
CUT
66
1
70
0
0
VERTEX
8
CUT
10
61.1584
20
65.8591
0
VERTEX
8
CUT
10
62.7
20
66.7
0
VERTEX
8
CUT
10
69.3
20
66.7
0
VERTEX
8
CUT
10
70.8416
20
65.8591
0
SEQEND
0
POLYLINE
8
CUT
66
1
70
0
0
VERTEX
8
CUT
10
61.1584
20
65.1409
0
VERTEX
8
CUT
10
62.7
20
64.3
0
VERTEX
8
CUT
10
69.3
20
64.3
0
VERTEX
8
CUT
10
70.8416
20
65.1409
0
SEQEND
0
POLYLINE
8
CUT
66
1
70
0
0
VERTEX
8
CUT
10
72.1584
20
65.8591
0
VERTEX
8
CUT
10
73.7
20
66.7
0
VERTEX
8
CUT
10
80.3
20
66.7
0
VERTEX
8
CUT
10
81.8416
20
65.8591
0
SEQEND
0
POLYLINE
8
CUT
66
1
70
0
0
VERTEX
8
CUT
10
72.1584
20
65.1409
0
VERTEX
8
CUT
10
73.7
20
64.3
0
VERTEX
8
CUT
10
80.3
20
64.3
0
VERTEX
8
CUT
10
81.8416
20
65.1409
0
SEQEND
0
POLYLINE
8
CUT
66
1
70
0
0
VERTEX
8
CUT
10
83.1584
20
65.8591
0
VERTEX
8
CUT
10
84.7
20
66.7
0
VERTEX
8
CUT
10
91.3
20
66.7
0
VERTEX
8
CUT
10
92.8416
20
65.8591
0
SEQEND
0
POLYLINE
8
CUT
66
1
70
0
0
VERTEX
8
CUT
10
83.1584
20
65.1409
0
VERTEX
8
CUT
10
84.7
20
64.3
0
VERTEX
8
CUT
10
91.3
20
64.3
0
VERTEX
8
CUT
10
92.8416
20
65.1409
0
SEQEND
0
POLYLINE
8
CUT
66
1
70
0
0
VERTEX
8
CUT
10
94.1584
20
65.8591
0
VERTEX
8
CUT
10
95.7
20
66.7
0
VERTEX
8
CUT
10
102.3
20
66.7
0
VERTEX
8
CUT
10
103.8416
20
65.8591
0
SEQEND
0
POLYLINE
8
CUT
66
1
70
0
0
VERTEX
8
CUT
10
94.1584
20
65.1409
0
VERTEX
8
CUT
10
95.7
20
64.3
0
VERTEX
8
CUT
10
102.3
20
64.3
0
VERTEX
8
CUT
10
103.8416
20
65.1409
0
SEQEND
0
POLYLINE
8
CUT
66
1
70
0
0
VERTEX
8
CUT
10
105.1584
20
65.8591
0
VERTEX
8
CUT
10
106.7
20
66.7
0
VERTEX
8
CUT
10
113.3
20
66.7
0
VERTEX
8
CUT
10
114.8416
20
65.8591
0
SEQEND
0
POLYLINE
8
CUT
66
1
70
0
0
VERTEX
8
CUT
10
105.1584
20
65.1409
0
VERTEX
8
CUT
10
106.7
20
64.3
0
VERTEX
8
CUT
10
113.3
20
64.3
0
VERTEX
8
CUT
10
114.8416
20
65.1409
0
SEQEND
0
POLYLINE
8
CUT
66
1
70
0
0
VERTEX
8
CUT
10
116.1584
20
65.8591
0
VERTEX
8
CUT
10
117.7
20
66.7
0
VERTEX
8
CUT
10
120
20
66.7
0
SEQEND
0
POLYLINE
8
CUT
66
1
70
0
0
VERTEX
8
CUT
10
116.1584
20
65.1409
0
VERTEX
8
CUT
10
117.7
20
64.3
0
VERTEX
8
CUT
10
120
20
64.3
0
SEQEND
0
POLYLINE
8
CUT
66
1
70
0
0
VERTEX
8
CUT
10
0.6584
20
62.5591
0
VERTEX
8
CUT
10
2.2
20
63.4
0
VERTEX
8
CUT
10
8.8
20
63.4
0
VERTEX
8
CUT
10
10.3416
20
62.5591
0
SEQEND
0
POLYLINE
8
CUT
66
1
70
0
0
VERTEX
8
CUT
10
0.6584
20
61.8409
0
VERTEX
8
CUT
10
2.2
20
61
0
VERTEX
8
CUT
10
8.8
20
61
0
VERTEX
8
CUT
10
10.3416
20
61.8409
0
SEQEND
0
POLYLINE
8
CUT
66
1
70
0
0
VERTEX
8
CUT
10
11.6584
20
62.5591
0
VERTEX
8
CUT
10
13.2
20
63.4
0
VERTEX
8
CUT
10
19.8
20
63.4
0
VERTEX
8
CUT
10
21.3416
20
62.5591
0
SEQEND
0
POLYLINE
8
CUT
66
1
70
0
0
VERTEX
8
CUT
10
11.6584
20
61.8409
0
VERTEX
8
CUT
10
13.2
20
61
0
VERTEX
8
CUT
10
19.8
20
61
0
VERTEX
8
CUT
10
21.3416
20
61.8409
0
SEQEND
0
POLYLINE
8
CUT
66
1
70
0
0
VERTEX
8
CUT
10
22.6584
20
62.5591
0
VERTEX
8
CUT
10
24.2
20
63.4
0
VERTEX
8
CUT
10
30.8
20
63.4
0
VERTEX
8
CUT
10
32.3416
20
62.5591
0
SEQEND
0
POLYLINE
8
CUT
66
1
70
0
0
VERTEX
8
CUT
10
22.6584
20
61.8409
0
VERTEX
8
CUT
10
24.2
20
61
0
VERTEX
8
CUT
10
30.8
20
61
0
VERTEX
8
CUT
10
32.3416
20
61.8409
0
SEQEND
0
POLYLINE
8
CUT
66
1
70
0
0
VERTEX
8
CUT
10
33.6584
20
62.5591
0
VERTEX
8
CUT
10
35.2
20
63.4
0
VERTEX
8
CUT
10
41.8
20
63.4
0
VERTEX
8
CUT
10
43.3416
20
62.5591
0
SEQEND
0
POLYLINE
8
CUT
66
1
70
0
0
VERTEX
8
CUT
10
33.6584
20
61.8409
0
VERTEX
8
CUT
10
35.2
20
61
0
VERTEX
8
CUT
10
41.8
20
61
0
VERTEX
8
CUT
10
43.3416
20
61.8409
0
SEQEND
0
POLYLINE
8
CUT
66
1
70
0
0
VERTEX
8
CUT
10
44.6584
20
62.5591
0
VERTEX
8
CUT
10
46.2
20
63.4
0
VERTEX
8
CUT
10
52.8
20
63.4
0
VERTEX
8
CUT
10
54.3416
20
62.5591
0
SEQEND
0
POLYLINE
8
CUT
66
1
70
0
0
VERTEX
8
CUT
10
44.6584
20
61.8409
0
VERTEX
8
CUT
10
46.2
20
61
0
VERTEX
8
CUT
10
52.8
20
61
0
VERTEX
8
CUT
10
54.3416
20
61.8409
0
SEQEND
0
POLYLINE
8
CUT
66
1
70
0
0
VERTEX
8
CUT
10
55.6584
20
62.5591
0
VERTEX
8
CUT
10
57.2
20
63.4
0
VERTEX
8
CUT
10
63.8
20
63.4
0
VERTEX
8
CUT
10
65.3416
20
62.5591
0
SEQEND
0
POLYLINE
8
CUT
66
1
70
0
0
VERTEX
8
CUT
10
55.6584
20
61.8409
0
VERTEX
8
CUT
10
57.2
20
61
0
VERTEX
8
CUT
10
63.8
20
61
0
VERTEX
8
CUT
10
65.3416
20
61.8409
0
SEQEND
0
POLYLINE
8
CUT
66
1
70
0
0
VERTEX
8
CUT
10
66.6584
20
62.5591
0
VERTEX
8
CUT
10
68.2
20
63.4
0
VERTEX
8
CUT
10
74.8
20
63.4
0
VERTEX
8
CUT
10
76.3416
20
62.5591
0
SEQEND
0
POLYLINE
8
CUT
66
1
70
0
0
VERTEX
8
CUT
10
66.6584
20
61.8409
0
VERTEX
8
CUT
10
68.2
20
61
0
VERTEX
8
CUT
10
74.8
20
61
0
VERTEX
8
CUT
10
76.3416
20
61.8409
0
SEQEND
0
POLYLINE
8
CUT
66
1
70
0
0
VERTEX
8
CUT
10
77.6584
20
62.5591
0
VERTEX
8
CUT
10
79.2
20
63.4
0
VERTEX
8
CUT
10
85.8
20
63.4
0
VERTEX
8
CUT
10
87.3416
20
62.5591
0
SEQEND
0
POLYLINE
8
CUT
66
1
70
0
0
VERTEX
8
CUT
10
77.6584
20
61.8409
0
VERTEX
8
CUT
10
79.2
20
61
0
VERTEX
8
CUT
10
85.8
20
61
0
VERTEX
8
CUT
10
87.3416
20
61.8409
0
SEQEND
0
POLYLINE
8
CUT
66
1
70
0
0
VERTEX
8
CUT
10
88.6584
20
62.5591
0
VERTEX
8
CUT
10
90.2
20
63.4
0
VERTEX
8
CUT
10
96.8
20
63.4
0
VERTEX
8
CUT
10
98.3416
20
62.5591
0
SEQEND
0
POLYLINE
8
CUT
66
1
70
0
0
VERTEX
8
CUT
10
88.6584
20
61.8409
0
VERTEX
8
CUT
10
90.2
20
61
0
VERTEX
8
CUT
10
96.8
20
61
0
VERTEX
8
CUT
10
98.3416
20
61.8409
0
SEQEND
0
POLYLINE
8
CUT
66
1
70
0
0
VERTEX
8
CUT
10
99.6584
20
62.5591
0
VERTEX
8
CUT
10
101.2
20
63.4
0
VERTEX
8
CUT
10
107.8
20
63.4
0
VERTEX
8
CUT
10
109.3416
20
62.5591
0
SEQEND
0
POLYLINE
8
CUT
66
1
70
0
0
VERTEX
8
CUT
10
99.6584
20
61.8409
0
VERTEX
8
CUT
10
101.2
20
61
0
VERTEX
8
CUT
10
107.8
20
61
0
VERTEX
8
CUT
10
109.3416
20
61.8409
0
SEQEND
0
POLYLINE
8
CUT
66
1
70
0
0
VERTEX
8
CUT
10
110.6584
20
62.5591
0
VERTEX
8
CUT
10
112.2
20
63.4
0
VERTEX
8
CUT
10
118.8
20
63.4
0
VERTEX
8
CUT
10
120
20
62.7455
0
SEQEND
0
POLYLINE
8
CUT
66
1
70
0
0
VERTEX
8
CUT
10
110.6584
20
61.8409
0
VERTEX
8
CUT
10
112.2
20
61
0
VERTEX
8
CUT
10
118.8
20
61
0
VERTEX
8
CUT
10
120
20
61.6545
0
SEQEND
0
POLYLINE
8
CUT
66
1
70
0
0
VERTEX
8
CUT
10
0
20
60.1
0
VERTEX
8
CUT
10
3.3
20
60.1
0
VERTEX
8
CUT
10
4.8416
20
59.2591
0
SEQEND
0
POLYLINE
8
CUT
66
1
70
0
0
VERTEX
8
CUT
10
0
20
57.7
0
VERTEX
8
CUT
10
3.3
20
57.7
0
VERTEX
8
CUT
10
4.8416
20
58.5409
0
SEQEND
0
POLYLINE
8
CUT
66
1
70
0
0
VERTEX
8
CUT
10
6.1584
20
59.2591
0
VERTEX
8
CUT
10
7.7
20
60.1
0
VERTEX
8
CUT
10
14.3
20
60.1
0
VERTEX
8
CUT
10
15.8416
20
59.2591
0
SEQEND
0
POLYLINE
8
CUT
66
1
70
0
0
VERTEX
8
CUT
10
6.1584
20
58.5409
0
VERTEX
8
CUT
10
7.7
20
57.7
0
VERTEX
8
CUT
10
14.3
20
57.7
0
VERTEX
8
CUT
10
15.8416
20
58.5409
0
SEQEND
0
POLYLINE
8
CUT
66
1
70
0
0
VERTEX
8
CUT
10
17.1584
20
59.2591
0
VERTEX
8
CUT
10
18.7
20
60.1
0
VERTEX
8
CUT
10
25.3
20
60.1
0
VERTEX
8
CUT
10
26.8416
20
59.2591
0
SEQEND
0
POLYLINE
8
CUT
66
1
70
0
0
VERTEX
8
CUT
10
17.1584
20
58.5409
0
VERTEX
8
CUT
10
18.7
20
57.7
0
VERTEX
8
CUT
10
25.3
20
57.7
0
VERTEX
8
CUT
10
26.8416
20
58.5409
0
SEQEND
0
POLYLINE
8
CUT
66
1
70
0
0
VERTEX
8
CUT
10
28.1584
20
59.2591
0
VERTEX
8
CUT
10
29.7
20
60.1
0
VERTEX
8
CUT
10
36.3
20
60.1
0
VERTEX
8
CUT
10
37.8416
20
59.2591
0
SEQEND
0
POLYLINE
8
CUT
66
1
70
0
0
VERTEX
8
CUT
10
28.1584
20
58.5409
0
VERTEX
8
CUT
10
29.7
20
57.7
0
VERTEX
8
CUT
10
36.3
20
57.7
0
VERTEX
8
CUT
10
37.8416
20
58.5409
0
SEQEND
0
POLYLINE
8
CUT
66
1
70
0
0
VERTEX
8
CUT
10
39.1584
20
59.2591
0
VERTEX
8
CUT
10
40.7
20
60.1
0
VERTEX
8
CUT
10
47.3
20
60.1
0
VERTEX
8
CUT
10
48.8416
20
59.2591
0
SEQEND
0
POLYLINE
8
CUT
66
1
70
0
0
VERTEX
8
CUT
10
39.1584
20
58.5409
0
VERTEX
8
CUT
10
40.7
20
57.7
0
VERTEX
8
CUT
10
47.3
20
57.7
0
VERTEX
8
CUT
10
48.8416
20
58.5409
0
SEQEND
0
POLYLINE
8
CUT
66
1
70
0
0
VERTEX
8
CUT
10
50.1584
20
59.2591
0
VERTEX
8
CUT
10
51.7
20
60.1
0
VERTEX
8
CUT
10
58.3
20
60.1
0
VERTEX
8
CUT
10
59.8416
20
59.2591
0
SEQEND
0
POLYLINE
8
CUT
66
1
70
0
0
VERTEX
8
CUT
10
50.1584
20
58.5409
0
VERTEX
8
CUT
10
51.7
20
57.7
0
VERTEX
8
CUT
10
58.3
20
57.7
0
VERTEX
8
CUT
10
59.8416
20
58.5409
0
SEQEND
0
POLYLINE
8
CUT
66
1
70
0
0
VERTEX
8
CUT
10
61.1584
20
59.2591
0
VERTEX
8
CUT
10
62.7
20
60.1
0
VERTEX
8
CUT
10
69.3
20
60.1
0
VERTEX
8
CUT
10
70.8416
20
59.2591
0
SEQEND
0
POLYLINE
8
CUT
66
1
70
0
0
VERTEX
8
CUT
10
61.1584
20
58.5409
0
VERTEX
8
CUT
10
62.7
20
57.7
0
VERTEX
8
CUT
10
69.3
20
57.7
0
VERTEX
8
CUT
10
70.8416
20
58.5409
0
SEQEND
0
POLYLINE
8
CUT
66
1
70
0
0
VERTEX
8
CUT
10
72.1584
20
59.2591
0
VERTEX
8
CUT
10
73.7
20
60.1
0
VERTEX
8
CUT
10
80.3
20
60.1
0
VERTEX
8
CUT
10
81.8416
20
59.2591
0
SEQEND
0
POLYLINE
8
CUT
66
1
70
0
0
VERTEX
8
CUT
10
72.1584
20
58.5409
0
VERTEX
8
CUT
10
73.7
20
57.7
0
VERTEX
8
CUT
10
80.3
20
57.7
0
VERTEX
8
CUT
10
81.8416
20
58.5409
0
SEQEND
0
POLYLINE
8
CUT
66
1
70
0
0
VERTEX
8
CUT
10
83.1584
20
59.2591
0
VERTEX
8
CUT
10
84.7
20
60.1
0
VERTEX
8
CUT
10
91.3
20
60.1
0
VERTEX
8
CUT
10
92.8416
20
59.2591
0
SEQEND
0
POLYLINE
8
CUT
66
1
70
0
0
VERTEX
8
CUT
10
83.1584
20
58.5409
0
VERTEX
8
CUT
10
84.7
20
57.7
0
VERTEX
8
CUT
10
91.3
20
57.7
0
VERTEX
8
CUT
10
92.8416
20
58.5409
0
SEQEND
0
POLYLINE
8
CUT
66
1
70
0
0
VERTEX
8
CUT
10
94.1584
20
59.2591
0
VERTEX
8
CUT
10
95.7
20
60.1
0
VERTEX
8
CUT
10
102.3
20
60.1
0
VERTEX
8
CUT
10
103.8416
20
59.2591
0
SEQEND
0
POLYLINE
8
CUT
66
1
70
0
0
VERTEX
8
CUT
10
94.1584
20
58.5409
0
VERTEX
8
CUT
10
95.7
20
57.7
0
VERTEX
8
CUT
10
102.3
20
57.7
0
VERTEX
8
CUT
10
103.8416
20
58.5409
0
SEQEND
0
POLYLINE
8
CUT
66
1
70
0
0
VERTEX
8
CUT
10
105.1584
20
59.2591
0
VERTEX
8
CUT
10
106.7
20
60.1
0
VERTEX
8
CUT
10
113.3
20
60.1
0
VERTEX
8
CUT
10
114.8416
20
59.2591
0
SEQEND
0
POLYLINE
8
CUT
66
1
70
0
0
VERTEX
8
CUT
10
105.1584
20
58.5409
0
VERTEX
8
CUT
10
106.7
20
57.7
0
VERTEX
8
CUT
10
113.3
20
57.7
0
VERTEX
8
CUT
10
114.8416
20
58.5409
0
SEQEND
0
POLYLINE
8
CUT
66
1
70
0
0
VERTEX
8
CUT
10
116.1584
20
59.2591
0
VERTEX
8
CUT
10
117.7
20
60.1
0
VERTEX
8
CUT
10
120
20
60.1
0
SEQEND
0
POLYLINE
8
CUT
66
1
70
0
0
VERTEX
8
CUT
10
116.1584
20
58.5409
0
VERTEX
8
CUT
10
117.7
20
57.7
0
VERTEX
8
CUT
10
120
20
57.7
0
SEQEND
0
POLYLINE
8
CUT
66
1
70
0
0
VERTEX
8
CUT
10
0.6584
20
55.9591
0
VERTEX
8
CUT
10
2.2
20
56.8
0
VERTEX
8
CUT
10
8.8
20
56.8
0
VERTEX
8
CUT
10
10.3416
20
55.9591
0
SEQEND
0
POLYLINE
8
CUT
66
1
70
0
0
VERTEX
8
CUT
10
0.6584
20
55.2409
0
VERTEX
8
CUT
10
2.2
20
54.4
0
VERTEX
8
CUT
10
8.8
20
54.4
0
VERTEX
8
CUT
10
10.3416
20
55.2409
0
SEQEND
0
POLYLINE
8
CUT
66
1
70
0
0
VERTEX
8
CUT
10
11.6584
20
55.9591
0
VERTEX
8
CUT
10
13.2
20
56.8
0
VERTEX
8
CUT
10
19.8
20
56.8
0
VERTEX
8
CUT
10
21.3416
20
55.9591
0
SEQEND
0
POLYLINE
8
CUT
66
1
70
0
0
VERTEX
8
CUT
10
11.6584
20
55.2409
0
VERTEX
8
CUT
10
13.2
20
54.4
0
VERTEX
8
CUT
10
19.8
20
54.4
0
VERTEX
8
CUT
10
21.3416
20
55.2409
0
SEQEND
0
POLYLINE
8
CUT
66
1
70
0
0
VERTEX
8
CUT
10
22.6584
20
55.9591
0
VERTEX
8
CUT
10
24.2
20
56.8
0
VERTEX
8
CUT
10
30.8
20
56.8
0
VERTEX
8
CUT
10
32.3416
20
55.9591
0
SEQEND
0
POLYLINE
8
CUT
66
1
70
0
0
VERTEX
8
CUT
10
22.6584
20
55.2409
0
VERTEX
8
CUT
10
24.2
20
54.4
0
VERTEX
8
CUT
10
30.8
20
54.4
0
VERTEX
8
CUT
10
32.3416
20
55.2409
0
SEQEND
0
POLYLINE
8
CUT
66
1
70
0
0
VERTEX
8
CUT
10
33.6584
20
55.9591
0
VERTEX
8
CUT
10
35.2
20
56.8
0
VERTEX
8
CUT
10
41.8
20
56.8
0
VERTEX
8
CUT
10
43.3416
20
55.9591
0
SEQEND
0
POLYLINE
8
CUT
66
1
70
0
0
VERTEX
8
CUT
10
33.6584
20
55.2409
0
VERTEX
8
CUT
10
35.2
20
54.4
0
VERTEX
8
CUT
10
41.8
20
54.4
0
VERTEX
8
CUT
10
43.3416
20
55.2409
0
SEQEND
0
POLYLINE
8
CUT
66
1
70
0
0
VERTEX
8
CUT
10
44.6584
20
55.9591
0
VERTEX
8
CUT
10
46.2
20
56.8
0
VERTEX
8
CUT
10
52.8
20
56.8
0
VERTEX
8
CUT
10
54.3416
20
55.9591
0
SEQEND
0
POLYLINE
8
CUT
66
1
70
0
0
VERTEX
8
CUT
10
44.6584
20
55.2409
0
VERTEX
8
CUT
10
46.2
20
54.4
0
VERTEX
8
CUT
10
52.8
20
54.4
0
VERTEX
8
CUT
10
54.3416
20
55.2409
0
SEQEND
0
POLYLINE
8
CUT
66
1
70
0
0
VERTEX
8
CUT
10
55.6584
20
55.9591
0
VERTEX
8
CUT
10
57.2
20
56.8
0
VERTEX
8
CUT
10
63.8
20
56.8
0
VERTEX
8
CUT
10
65.3416
20
55.9591
0
SEQEND
0
POLYLINE
8
CUT
66
1
70
0
0
VERTEX
8
CUT
10
55.6584
20
55.2409
0
VERTEX
8
CUT
10
57.2
20
54.4
0
VERTEX
8
CUT
10
63.8
20
54.4
0
VERTEX
8
CUT
10
65.3416
20
55.2409
0
SEQEND
0
POLYLINE
8
CUT
66
1
70
0
0
VERTEX
8
CUT
10
66.6584
20
55.9591
0
VERTEX
8
CUT
10
68.2
20
56.8
0
VERTEX
8
CUT
10
74.8
20
56.8
0
VERTEX
8
CUT
10
76.3416
20
55.9591
0
SEQEND
0
POLYLINE
8
CUT
66
1
70
0
0
VERTEX
8
CUT
10
66.6584
20
55.2409
0
VERTEX
8
CUT
10
68.2
20
54.4
0
VERTEX
8
CUT
10
74.8
20
54.4
0
VERTEX
8
CUT
10
76.3416
20
55.2409
0
SEQEND
0
POLYLINE
8
CUT
66
1
70
0
0
VERTEX
8
CUT
10
77.6584
20
55.9591
0
VERTEX
8
CUT
10
79.2
20
56.8
0
VERTEX
8
CUT
10
85.8
20
56.8
0
VERTEX
8
CUT
10
87.3416
20
55.9591
0
SEQEND
0
POLYLINE
8
CUT
66
1
70
0
0
VERTEX
8
CUT
10
77.6584
20
55.2409
0
VERTEX
8
CUT
10
79.2
20
54.4
0
VERTEX
8
CUT
10
85.8
20
54.4
0
VERTEX
8
CUT
10
87.3416
20
55.2409
0
SEQEND
0
POLYLINE
8
CUT
66
1
70
0
0
VERTEX
8
CUT
10
88.6584
20
55.9591
0
VERTEX
8
CUT
10
90.2
20
56.8
0
VERTEX
8
CUT
10
96.8
20
56.8
0
VERTEX
8
CUT
10
98.3416
20
55.9591
0
SEQEND
0
POLYLINE
8
CUT
66
1
70
0
0
VERTEX
8
CUT
10
88.6584
20
55.2409
0
VERTEX
8
CUT
10
90.2
20
54.4
0
VERTEX
8
CUT
10
96.8
20
54.4
0
VERTEX
8
CUT
10
98.3416
20
55.2409
0
SEQEND
0
POLYLINE
8
CUT
66
1
70
0
0
VERTEX
8
CUT
10
99.6584
20
55.9591
0
VERTEX
8
CUT
10
101.2
20
56.8
0
VERTEX
8
CUT
10
107.8
20
56.8
0
VERTEX
8
CUT
10
109.3416
20
55.9591
0
SEQEND
0
POLYLINE
8
CUT
66
1
70
0
0
VERTEX
8
CUT
10
99.6584
20
55.2409
0
VERTEX
8
CUT
10
101.2
20
54.4
0
VERTEX
8
CUT
10
107.8
20
54.4
0
VERTEX
8
CUT
10
109.3416
20
55.2409
0
SEQEND
0
POLYLINE
8
CUT
66
1
70
0
0
VERTEX
8
CUT
10
110.6584
20
55.9591
0
VERTEX
8
CUT
10
112.2
20
56.8
0
VERTEX
8
CUT
10
118.8
20
56.8
0
VERTEX
8
CUT
10
120
20
56.1455
0
SEQEND
0
POLYLINE
8
CUT
66
1
70
0
0
VERTEX
8
CUT
10
110.6584
20
55.2409
0
VERTEX
8
CUT
10
112.2
20
54.4
0
VERTEX
8
CUT
10
118.8
20
54.4
0
VERTEX
8
CUT
10
120
20
55.0545
0
SEQEND
0
POLYLINE
8
CUT
66
1
70
0
0
VERTEX
8
CUT
10
0
20
53.5
0
VERTEX
8
CUT
10
3.3
20
53.5
0
VERTEX
8
CUT
10
4.8416
20
52.6591
0
SEQEND
0
POLYLINE
8
CUT
66
1
70
0
0
VERTEX
8
CUT
10
0
20
51.1
0
VERTEX
8
CUT
10
3.3
20
51.1
0
VERTEX
8
CUT
10
4.8416
20
51.9409
0
SEQEND
0
POLYLINE
8
CUT
66
1
70
0
0
VERTEX
8
CUT
10
6.1584
20
52.6591
0
VERTEX
8
CUT
10
7.7
20
53.5
0
VERTEX
8
CUT
10
14.3
20
53.5
0
VERTEX
8
CUT
10
15.8416
20
52.6591
0
SEQEND
0
POLYLINE
8
CUT
66
1
70
0
0
VERTEX
8
CUT
10
6.1584
20
51.9409
0
VERTEX
8
CUT
10
7.7
20
51.1
0
VERTEX
8
CUT
10
14.3
20
51.1
0
VERTEX
8
CUT
10
15.8416
20
51.9409
0
SEQEND
0
POLYLINE
8
CUT
66
1
70
0
0
VERTEX
8
CUT
10
17.1584
20
52.6591
0
VERTEX
8
CUT
10
18.7
20
53.5
0
VERTEX
8
CUT
10
25.3
20
53.5
0
VERTEX
8
CUT
10
26.8416
20
52.6591
0
SEQEND
0
POLYLINE
8
CUT
66
1
70
0
0
VERTEX
8
CUT
10
17.1584
20
51.9409
0
VERTEX
8
CUT
10
18.7
20
51.1
0
VERTEX
8
CUT
10
25.3
20
51.1
0
VERTEX
8
CUT
10
26.8416
20
51.9409
0
SEQEND
0
POLYLINE
8
CUT
66
1
70
0
0
VERTEX
8
CUT
10
28.1584
20
52.6591
0
VERTEX
8
CUT
10
29.7
20
53.5
0
VERTEX
8
CUT
10
36.3
20
53.5
0
VERTEX
8
CUT
10
37.8416
20
52.6591
0
SEQEND
0
POLYLINE
8
CUT
66
1
70
0
0
VERTEX
8
CUT
10
28.1584
20
51.9409
0
VERTEX
8
CUT
10
29.7
20
51.1
0
VERTEX
8
CUT
10
36.3
20
51.1
0
VERTEX
8
CUT
10
37.8416
20
51.9409
0
SEQEND
0
POLYLINE
8
CUT
66
1
70
0
0
VERTEX
8
CUT
10
39.1584
20
52.6591
0
VERTEX
8
CUT
10
40.7
20
53.5
0
VERTEX
8
CUT
10
47.3
20
53.5
0
VERTEX
8
CUT
10
48.8416
20
52.6591
0
SEQEND
0
POLYLINE
8
CUT
66
1
70
0
0
VERTEX
8
CUT
10
39.1584
20
51.9409
0
VERTEX
8
CUT
10
40.7
20
51.1
0
VERTEX
8
CUT
10
47.3
20
51.1
0
VERTEX
8
CUT
10
48.8416
20
51.9409
0
SEQEND
0
POLYLINE
8
CUT
66
1
70
0
0
VERTEX
8
CUT
10
50.1584
20
52.6591
0
VERTEX
8
CUT
10
51.7
20
53.5
0
VERTEX
8
CUT
10
58.3
20
53.5
0
VERTEX
8
CUT
10
59.8416
20
52.6591
0
SEQEND
0
POLYLINE
8
CUT
66
1
70
0
0
VERTEX
8
CUT
10
50.1584
20
51.9409
0
VERTEX
8
CUT
10
51.7
20
51.1
0
VERTEX
8
CUT
10
58.3
20
51.1
0
VERTEX
8
CUT
10
59.8416
20
51.9409
0
SEQEND
0
POLYLINE
8
CUT
66
1
70
0
0
VERTEX
8
CUT
10
61.1584
20
52.6591
0
VERTEX
8
CUT
10
62.7
20
53.5
0
VERTEX
8
CUT
10
69.3
20
53.5
0
VERTEX
8
CUT
10
70.8416
20
52.6591
0
SEQEND
0
POLYLINE
8
CUT
66
1
70
0
0
VERTEX
8
CUT
10
61.1584
20
51.9409
0
VERTEX
8
CUT
10
62.7
20
51.1
0
VERTEX
8
CUT
10
69.3
20
51.1
0
VERTEX
8
CUT
10
70.8416
20
51.9409
0
SEQEND
0
POLYLINE
8
CUT
66
1
70
0
0
VERTEX
8
CUT
10
72.1584
20
52.6591
0
VERTEX
8
CUT
10
73.7
20
53.5
0
VERTEX
8
CUT
10
80.3
20
53.5
0
VERTEX
8
CUT
10
81.8416
20
52.6591
0
SEQEND
0
POLYLINE
8
CUT
66
1
70
0
0
VERTEX
8
CUT
10
72.1584
20
51.9409
0
VERTEX
8
CUT
10
73.7
20
51.1
0
VERTEX
8
CUT
10
80.3
20
51.1
0
VERTEX
8
CUT
10
81.8416
20
51.9409
0
SEQEND
0
POLYLINE
8
CUT
66
1
70
0
0
VERTEX
8
CUT
10
83.1584
20
52.6591
0
VERTEX
8
CUT
10
84.7
20
53.5
0
VERTEX
8
CUT
10
91.3
20
53.5
0
VERTEX
8
CUT
10
92.8416
20
52.6591
0
SEQEND
0
POLYLINE
8
CUT
66
1
70
0
0
VERTEX
8
CUT
10
83.1584
20
51.9409
0
VERTEX
8
CUT
10
84.7
20
51.1
0
VERTEX
8
CUT
10
91.3
20
51.1
0
VERTEX
8
CUT
10
92.8416
20
51.9409
0
SEQEND
0
POLYLINE
8
CUT
66
1
70
0
0
VERTEX
8
CUT
10
94.1584
20
52.6591
0
VERTEX
8
CUT
10
95.7
20
53.5
0
VERTEX
8
CUT
10
102.3
20
53.5
0
VERTEX
8
CUT
10
103.8416
20
52.6591
0
SEQEND
0
POLYLINE
8
CUT
66
1
70
0
0
VERTEX
8
CUT
10
94.1584
20
51.9409
0
VERTEX
8
CUT
10
95.7
20
51.1
0
VERTEX
8
CUT
10
102.3
20
51.1
0
VERTEX
8
CUT
10
103.8416
20
51.9409
0
SEQEND
0
POLYLINE
8
CUT
66
1
70
0
0
VERTEX
8
CUT
10
105.1584
20
52.6591
0
VERTEX
8
CUT
10
106.7
20
53.5
0
VERTEX
8
CUT
10
113.3
20
53.5
0
VERTEX
8
CUT
10
114.8416
20
52.6591
0
SEQEND
0
POLYLINE
8
CUT
66
1
70
0
0
VERTEX
8
CUT
10
105.1584
20
51.9409
0
VERTEX
8
CUT
10
106.7
20
51.1
0
VERTEX
8
CUT
10
113.3
20
51.1
0
VERTEX
8
CUT
10
114.8416
20
51.9409
0
SEQEND
0
POLYLINE
8
CUT
66
1
70
0
0
VERTEX
8
CUT
10
116.1584
20
52.6591
0
VERTEX
8
CUT
10
117.7
20
53.5
0
VERTEX
8
CUT
10
120
20
53.5
0
SEQEND
0
POLYLINE
8
CUT
66
1
70
0
0
VERTEX
8
CUT
10
116.1584
20
51.9409
0
VERTEX
8
CUT
10
117.7
20
51.1
0
VERTEX
8
CUT
10
120
20
51.1
0
SEQEND
0
POLYLINE
8
CUT
66
1
70
0
0
VERTEX
8
CUT
10
0.6584
20
49.3591
0
VERTEX
8
CUT
10
2.2
20
50.2
0
VERTEX
8
CUT
10
8.8
20
50.2
0
VERTEX
8
CUT
10
10.3416
20
49.3591
0
SEQEND
0
POLYLINE
8
CUT
66
1
70
0
0
VERTEX
8
CUT
10
0.6584
20
48.6409
0
VERTEX
8
CUT
10
2.2
20
47.8
0
VERTEX
8
CUT
10
8.8
20
47.8
0
VERTEX
8
CUT
10
10.3416
20
48.6409
0
SEQEND
0
POLYLINE
8
CUT
66
1
70
0
0
VERTEX
8
CUT
10
11.6584
20
49.3591
0
VERTEX
8
CUT
10
13.2
20
50.2
0
VERTEX
8
CUT
10
19.8
20
50.2
0
VERTEX
8
CUT
10
21.3416
20
49.3591
0
SEQEND
0
POLYLINE
8
CUT
66
1
70
0
0
VERTEX
8
CUT
10
11.6584
20
48.6409
0
VERTEX
8
CUT
10
13.2
20
47.8
0
VERTEX
8
CUT
10
19.8
20
47.8
0
VERTEX
8
CUT
10
21.3416
20
48.6409
0
SEQEND
0
POLYLINE
8
CUT
66
1
70
0
0
VERTEX
8
CUT
10
22.6584
20
49.3591
0
VERTEX
8
CUT
10
24.2
20
50.2
0
VERTEX
8
CUT
10
30.8
20
50.2
0
VERTEX
8
CUT
10
32.3416
20
49.3591
0
SEQEND
0
POLYLINE
8
CUT
66
1
70
0
0
VERTEX
8
CUT
10
22.6584
20
48.6409
0
VERTEX
8
CUT
10
24.2
20
47.8
0
VERTEX
8
CUT
10
30.8
20
47.8
0
VERTEX
8
CUT
10
32.3416
20
48.6409
0
SEQEND
0
POLYLINE
8
CUT
66
1
70
0
0
VERTEX
8
CUT
10
33.6584
20
49.3591
0
VERTEX
8
CUT
10
35.2
20
50.2
0
VERTEX
8
CUT
10
41.8
20
50.2
0
VERTEX
8
CUT
10
43.3416
20
49.3591
0
SEQEND
0
POLYLINE
8
CUT
66
1
70
0
0
VERTEX
8
CUT
10
33.6584
20
48.6409
0
VERTEX
8
CUT
10
35.2
20
47.8
0
VERTEX
8
CUT
10
41.8
20
47.8
0
VERTEX
8
CUT
10
43.3416
20
48.6409
0
SEQEND
0
POLYLINE
8
CUT
66
1
70
0
0
VERTEX
8
CUT
10
44.6584
20
49.3591
0
VERTEX
8
CUT
10
46.2
20
50.2
0
VERTEX
8
CUT
10
52.8
20
50.2
0
VERTEX
8
CUT
10
54.3416
20
49.3591
0
SEQEND
0
POLYLINE
8
CUT
66
1
70
0
0
VERTEX
8
CUT
10
44.6584
20
48.6409
0
VERTEX
8
CUT
10
46.2
20
47.8
0
VERTEX
8
CUT
10
52.8
20
47.8
0
VERTEX
8
CUT
10
54.3416
20
48.6409
0
SEQEND
0
POLYLINE
8
CUT
66
1
70
0
0
VERTEX
8
CUT
10
55.6584
20
49.3591
0
VERTEX
8
CUT
10
57.2
20
50.2
0
VERTEX
8
CUT
10
63.8
20
50.2
0
VERTEX
8
CUT
10
65.3416
20
49.3591
0
SEQEND
0
POLYLINE
8
CUT
66
1
70
0
0
VERTEX
8
CUT
10
55.6584
20
48.6409
0
VERTEX
8
CUT
10
57.2
20
47.8
0
VERTEX
8
CUT
10
63.8
20
47.8
0
VERTEX
8
CUT
10
65.3416
20
48.6409
0
SEQEND
0
POLYLINE
8
CUT
66
1
70
0
0
VERTEX
8
CUT
10
66.6584
20
49.3591
0
VERTEX
8
CUT
10
68.2
20
50.2
0
VERTEX
8
CUT
10
74.8
20
50.2
0
VERTEX
8
CUT
10
76.3416
20
49.3591
0
SEQEND
0
POLYLINE
8
CUT
66
1
70
0
0
VERTEX
8
CUT
10
66.6584
20
48.6409
0
VERTEX
8
CUT
10
68.2
20
47.8
0
VERTEX
8
CUT
10
74.8
20
47.8
0
VERTEX
8
CUT
10
76.3416
20
48.6409
0
SEQEND
0
POLYLINE
8
CUT
66
1
70
0
0
VERTEX
8
CUT
10
77.6584
20
49.3591
0
VERTEX
8
CUT
10
79.2
20
50.2
0
VERTEX
8
CUT
10
85.8
20
50.2
0
VERTEX
8
CUT
10
87.3416
20
49.3591
0
SEQEND
0
POLYLINE
8
CUT
66
1
70
0
0
VERTEX
8
CUT
10
77.6584
20
48.6409
0
VERTEX
8
CUT
10
79.2
20
47.8
0
VERTEX
8
CUT
10
85.8
20
47.8
0
VERTEX
8
CUT
10
87.3416
20
48.6409
0
SEQEND
0
POLYLINE
8
CUT
66
1
70
0
0
VERTEX
8
CUT
10
88.6584
20
49.3591
0
VERTEX
8
CUT
10
90.2
20
50.2
0
VERTEX
8
CUT
10
96.8
20
50.2
0
VERTEX
8
CUT
10
98.3416
20
49.3591
0
SEQEND
0
POLYLINE
8
CUT
66
1
70
0
0
VERTEX
8
CUT
10
88.6584
20
48.6409
0
VERTEX
8
CUT
10
90.2
20
47.8
0
VERTEX
8
CUT
10
96.8
20
47.8
0
VERTEX
8
CUT
10
98.3416
20
48.6409
0
SEQEND
0
POLYLINE
8
CUT
66
1
70
0
0
VERTEX
8
CUT
10
99.6584
20
49.3591
0
VERTEX
8
CUT
10
101.2
20
50.2
0
VERTEX
8
CUT
10
107.8
20
50.2
0
VERTEX
8
CUT
10
109.3416
20
49.3591
0
SEQEND
0
POLYLINE
8
CUT
66
1
70
0
0
VERTEX
8
CUT
10
99.6584
20
48.6409
0
VERTEX
8
CUT
10
101.2
20
47.8
0
VERTEX
8
CUT
10
107.8
20
47.8
0
VERTEX
8
CUT
10
109.3416
20
48.6409
0
SEQEND
0
POLYLINE
8
CUT
66
1
70
0
0
VERTEX
8
CUT
10
110.6584
20
49.3591
0
VERTEX
8
CUT
10
112.2
20
50.2
0
VERTEX
8
CUT
10
118.8
20
50.2
0
VERTEX
8
CUT
10
120
20
49.5455
0
SEQEND
0
POLYLINE
8
CUT
66
1
70
0
0
VERTEX
8
CUT
10
110.6584
20
48.6409
0
VERTEX
8
CUT
10
112.2
20
47.8
0
VERTEX
8
CUT
10
118.8
20
47.8
0
VERTEX
8
CUT
10
120
20
48.4545
0
SEQEND
0
POLYLINE
8
CUT
66
1
70
0
0
VERTEX
8
CUT
10
0
20
46.9
0
VERTEX
8
CUT
10
3.3
20
46.9
0
VERTEX
8
CUT
10
4.8416
20
46.0591
0
SEQEND
0
POLYLINE
8
CUT
66
1
70
0
0
VERTEX
8
CUT
10
0
20
44.5
0
VERTEX
8
CUT
10
3.3
20
44.5
0
VERTEX
8
CUT
10
4.8416
20
45.3409
0
SEQEND
0
POLYLINE
8
CUT
66
1
70
0
0
VERTEX
8
CUT
10
6.1584
20
46.0591
0
VERTEX
8
CUT
10
7.7
20
46.9
0
VERTEX
8
CUT
10
14.3
20
46.9
0
VERTEX
8
CUT
10
15.8416
20
46.0591
0
SEQEND
0
POLYLINE
8
CUT
66
1
70
0
0
VERTEX
8
CUT
10
6.1584
20
45.3409
0
VERTEX
8
CUT
10
7.7
20
44.5
0
VERTEX
8
CUT
10
14.3
20
44.5
0
VERTEX
8
CUT
10
15.8416
20
45.3409
0
SEQEND
0
POLYLINE
8
CUT
66
1
70
0
0
VERTEX
8
CUT
10
17.1584
20
46.0591
0
VERTEX
8
CUT
10
18.7
20
46.9
0
VERTEX
8
CUT
10
25.3
20
46.9
0
VERTEX
8
CUT
10
26.8416
20
46.0591
0
SEQEND
0
POLYLINE
8
CUT
66
1
70
0
0
VERTEX
8
CUT
10
17.1584
20
45.3409
0
VERTEX
8
CUT
10
18.7
20
44.5
0
VERTEX
8
CUT
10
25.3
20
44.5
0
VERTEX
8
CUT
10
26.8416
20
45.3409
0
SEQEND
0
POLYLINE
8
CUT
66
1
70
0
0
VERTEX
8
CUT
10
28.1584
20
46.0591
0
VERTEX
8
CUT
10
29.7
20
46.9
0
VERTEX
8
CUT
10
36.3
20
46.9
0
VERTEX
8
CUT
10
37.8416
20
46.0591
0
SEQEND
0
POLYLINE
8
CUT
66
1
70
0
0
VERTEX
8
CUT
10
28.1584
20
45.3409
0
VERTEX
8
CUT
10
29.7
20
44.5
0
VERTEX
8
CUT
10
36.3
20
44.5
0
VERTEX
8
CUT
10
37.8416
20
45.3409
0
SEQEND
0
POLYLINE
8
CUT
66
1
70
0
0
VERTEX
8
CUT
10
39.1584
20
46.0591
0
VERTEX
8
CUT
10
40.7
20
46.9
0
VERTEX
8
CUT
10
47.3
20
46.9
0
VERTEX
8
CUT
10
48.8416
20
46.0591
0
SEQEND
0
POLYLINE
8
CUT
66
1
70
0
0
VERTEX
8
CUT
10
39.1584
20
45.3409
0
VERTEX
8
CUT
10
40.7
20
44.5
0
VERTEX
8
CUT
10
47.3
20
44.5
0
VERTEX
8
CUT
10
48.8416
20
45.3409
0
SEQEND
0
POLYLINE
8
CUT
66
1
70
0
0
VERTEX
8
CUT
10
50.1584
20
46.0591
0
VERTEX
8
CUT
10
51.7
20
46.9
0
VERTEX
8
CUT
10
58.3
20
46.9
0
VERTEX
8
CUT
10
59.8416
20
46.0591
0
SEQEND
0
POLYLINE
8
CUT
66
1
70
0
0
VERTEX
8
CUT
10
50.1584
20
45.3409
0
VERTEX
8
CUT
10
51.7
20
44.5
0
VERTEX
8
CUT
10
58.3
20
44.5
0
VERTEX
8
CUT
10
59.8416
20
45.3409
0
SEQEND
0
POLYLINE
8
CUT
66
1
70
0
0
VERTEX
8
CUT
10
61.1584
20
46.0591
0
VERTEX
8
CUT
10
62.7
20
46.9
0
VERTEX
8
CUT
10
69.3
20
46.9
0
VERTEX
8
CUT
10
70.8416
20
46.0591
0
SEQEND
0
POLYLINE
8
CUT
66
1
70
0
0
VERTEX
8
CUT
10
61.1584
20
45.3409
0
VERTEX
8
CUT
10
62.7
20
44.5
0
VERTEX
8
CUT
10
69.3
20
44.5
0
VERTEX
8
CUT
10
70.8416
20
45.3409
0
SEQEND
0
POLYLINE
8
CUT
66
1
70
0
0
VERTEX
8
CUT
10
72.1584
20
46.0591
0
VERTEX
8
CUT
10
73.7
20
46.9
0
VERTEX
8
CUT
10
80.3
20
46.9
0
VERTEX
8
CUT
10
81.8416
20
46.0591
0
SEQEND
0
POLYLINE
8
CUT
66
1
70
0
0
VERTEX
8
CUT
10
72.1584
20
45.3409
0
VERTEX
8
CUT
10
73.7
20
44.5
0
VERTEX
8
CUT
10
80.3
20
44.5
0
VERTEX
8
CUT
10
81.8416
20
45.3409
0
SEQEND
0
POLYLINE
8
CUT
66
1
70
0
0
VERTEX
8
CUT
10
83.1584
20
46.0591
0
VERTEX
8
CUT
10
84.7
20
46.9
0
VERTEX
8
CUT
10
91.3
20
46.9
0
VERTEX
8
CUT
10
92.8416
20
46.0591
0
SEQEND
0
POLYLINE
8
CUT
66
1
70
0
0
VERTEX
8
CUT
10
83.1584
20
45.3409
0
VERTEX
8
CUT
10
84.7
20
44.5
0
VERTEX
8
CUT
10
91.3
20
44.5
0
VERTEX
8
CUT
10
92.8416
20
45.3409
0
SEQEND
0
POLYLINE
8
CUT
66
1
70
0
0
VERTEX
8
CUT
10
94.1584
20
46.0591
0
VERTEX
8
CUT
10
95.7
20
46.9
0
VERTEX
8
CUT
10
102.3
20
46.9
0
VERTEX
8
CUT
10
103.8416
20
46.0591
0
SEQEND
0
POLYLINE
8
CUT
66
1
70
0
0
VERTEX
8
CUT
10
94.1584
20
45.3409
0
VERTEX
8
CUT
10
95.7
20
44.5
0
VERTEX
8
CUT
10
102.3
20
44.5
0
VERTEX
8
CUT
10
103.8416
20
45.3409
0
SEQEND
0
POLYLINE
8
CUT
66
1
70
0
0
VERTEX
8
CUT
10
105.1584
20
46.0591
0
VERTEX
8
CUT
10
106.7
20
46.9
0
VERTEX
8
CUT
10
113.3
20
46.9
0
VERTEX
8
CUT
10
114.8416
20
46.0591
0
SEQEND
0
POLYLINE
8
CUT
66
1
70
0
0
VERTEX
8
CUT
10
105.1584
20
45.3409
0
VERTEX
8
CUT
10
106.7
20
44.5
0
VERTEX
8
CUT
10
113.3
20
44.5
0
VERTEX
8
CUT
10
114.8416
20
45.3409
0
SEQEND
0
POLYLINE
8
CUT
66
1
70
0
0
VERTEX
8
CUT
10
116.1584
20
46.0591
0
VERTEX
8
CUT
10
117.7
20
46.9
0
VERTEX
8
CUT
10
120
20
46.9
0
SEQEND
0
POLYLINE
8
CUT
66
1
70
0
0
VERTEX
8
CUT
10
116.1584
20
45.3409
0
VERTEX
8
CUT
10
117.7
20
44.5
0
VERTEX
8
CUT
10
120
20
44.5
0
SEQEND
0
POLYLINE
8
CUT
66
1
70
0
0
VERTEX
8
CUT
10
0.6584
20
42.7591
0
VERTEX
8
CUT
10
2.2
20
43.6
0
VERTEX
8
CUT
10
8.8
20
43.6
0
VERTEX
8
CUT
10
10.3416
20
42.7591
0
SEQEND
0
POLYLINE
8
CUT
66
1
70
0
0
VERTEX
8
CUT
10
0.6584
20
42.0409
0
VERTEX
8
CUT
10
2.2
20
41.2
0
VERTEX
8
CUT
10
8.8
20
41.2
0
VERTEX
8
CUT
10
10.3416
20
42.0409
0
SEQEND
0
POLYLINE
8
CUT
66
1
70
0
0
VERTEX
8
CUT
10
11.6584
20
42.7591
0
VERTEX
8
CUT
10
13.2
20
43.6
0
VERTEX
8
CUT
10
19.8
20
43.6
0
VERTEX
8
CUT
10
21.3416
20
42.7591
0
SEQEND
0
POLYLINE
8
CUT
66
1
70
0
0
VERTEX
8
CUT
10
11.6584
20
42.0409
0
VERTEX
8
CUT
10
13.2
20
41.2
0
VERTEX
8
CUT
10
19.8
20
41.2
0
VERTEX
8
CUT
10
21.3416
20
42.0409
0
SEQEND
0
POLYLINE
8
CUT
66
1
70
0
0
VERTEX
8
CUT
10
22.6584
20
42.7591
0
VERTEX
8
CUT
10
24.2
20
43.6
0
VERTEX
8
CUT
10
30.8
20
43.6
0
VERTEX
8
CUT
10
32.3416
20
42.7591
0
SEQEND
0
POLYLINE
8
CUT
66
1
70
0
0
VERTEX
8
CUT
10
22.6584
20
42.0409
0
VERTEX
8
CUT
10
24.2
20
41.2
0
VERTEX
8
CUT
10
30.8
20
41.2
0
VERTEX
8
CUT
10
32.3416
20
42.0409
0
SEQEND
0
POLYLINE
8
CUT
66
1
70
0
0
VERTEX
8
CUT
10
33.6584
20
42.7591
0
VERTEX
8
CUT
10
35.2
20
43.6
0
VERTEX
8
CUT
10
41.8
20
43.6
0
VERTEX
8
CUT
10
43.3416
20
42.7591
0
SEQEND
0
POLYLINE
8
CUT
66
1
70
0
0
VERTEX
8
CUT
10
33.6584
20
42.0409
0
VERTEX
8
CUT
10
35.2
20
41.2
0
VERTEX
8
CUT
10
41.8
20
41.2
0
VERTEX
8
CUT
10
43.3416
20
42.0409
0
SEQEND
0
POLYLINE
8
CUT
66
1
70
0
0
VERTEX
8
CUT
10
44.6584
20
42.7591
0
VERTEX
8
CUT
10
46.2
20
43.6
0
VERTEX
8
CUT
10
52.8
20
43.6
0
VERTEX
8
CUT
10
54.3416
20
42.7591
0
SEQEND
0
POLYLINE
8
CUT
66
1
70
0
0
VERTEX
8
CUT
10
44.6584
20
42.0409
0
VERTEX
8
CUT
10
46.2
20
41.2
0
VERTEX
8
CUT
10
52.8
20
41.2
0
VERTEX
8
CUT
10
54.3416
20
42.0409
0
SEQEND
0
POLYLINE
8
CUT
66
1
70
0
0
VERTEX
8
CUT
10
55.6584
20
42.7591
0
VERTEX
8
CUT
10
57.2
20
43.6
0
VERTEX
8
CUT
10
63.8
20
43.6
0
VERTEX
8
CUT
10
65.3416
20
42.7591
0
SEQEND
0
POLYLINE
8
CUT
66
1
70
0
0
VERTEX
8
CUT
10
55.6584
20
42.0409
0
VERTEX
8
CUT
10
57.2
20
41.2
0
VERTEX
8
CUT
10
63.8
20
41.2
0
VERTEX
8
CUT
10
65.3416
20
42.0409
0
SEQEND
0
POLYLINE
8
CUT
66
1
70
0
0
VERTEX
8
CUT
10
66.6584
20
42.7591
0
VERTEX
8
CUT
10
68.2
20
43.6
0
VERTEX
8
CUT
10
74.8
20
43.6
0
VERTEX
8
CUT
10
76.3416
20
42.7591
0
SEQEND
0
POLYLINE
8
CUT
66
1
70
0
0
VERTEX
8
CUT
10
66.6584
20
42.0409
0
VERTEX
8
CUT
10
68.2
20
41.2
0
VERTEX
8
CUT
10
74.8
20
41.2
0
VERTEX
8
CUT
10
76.3416
20
42.0409
0
SEQEND
0
POLYLINE
8
CUT
66
1
70
0
0
VERTEX
8
CUT
10
77.6584
20
42.7591
0
VERTEX
8
CUT
10
79.2
20
43.6
0
VERTEX
8
CUT
10
85.8
20
43.6
0
VERTEX
8
CUT
10
87.3416
20
42.7591
0
SEQEND
0
POLYLINE
8
CUT
66
1
70
0
0
VERTEX
8
CUT
10
77.6584
20
42.0409
0
VERTEX
8
CUT
10
79.2
20
41.2
0
VERTEX
8
CUT
10
85.8
20
41.2
0
VERTEX
8
CUT
10
87.3416
20
42.0409
0
SEQEND
0
POLYLINE
8
CUT
66
1
70
0
0
VERTEX
8
CUT
10
88.6584
20
42.7591
0
VERTEX
8
CUT
10
90.2
20
43.6
0
VERTEX
8
CUT
10
96.8
20
43.6
0
VERTEX
8
CUT
10
98.3416
20
42.7591
0
SEQEND
0
POLYLINE
8
CUT
66
1
70
0
0
VERTEX
8
CUT
10
88.6584
20
42.0409
0
VERTEX
8
CUT
10
90.2
20
41.2
0
VERTEX
8
CUT
10
96.8
20
41.2
0
VERTEX
8
CUT
10
98.3416
20
42.0409
0
SEQEND
0
POLYLINE
8
CUT
66
1
70
0
0
VERTEX
8
CUT
10
99.6584
20
42.7591
0
VERTEX
8
CUT
10
101.2
20
43.6
0
VERTEX
8
CUT
10
107.8
20
43.6
0
VERTEX
8
CUT
10
109.3416
20
42.7591
0
SEQEND
0
POLYLINE
8
CUT
66
1
70
0
0
VERTEX
8
CUT
10
99.6584
20
42.0409
0
VERTEX
8
CUT
10
101.2
20
41.2
0
VERTEX
8
CUT
10
107.8
20
41.2
0
VERTEX
8
CUT
10
109.3416
20
42.0409
0
SEQEND
0
POLYLINE
8
CUT
66
1
70
0
0
VERTEX
8
CUT
10
110.6584
20
42.7591
0
VERTEX
8
CUT
10
112.2
20
43.6
0
VERTEX
8
CUT
10
118.8
20
43.6
0
VERTEX
8
CUT
10
120
20
42.9455
0
SEQEND
0
POLYLINE
8
CUT
66
1
70
0
0
VERTEX
8
CUT
10
110.6584
20
42.0409
0
VERTEX
8
CUT
10
112.2
20
41.2
0
VERTEX
8
CUT
10
118.8
20
41.2
0
VERTEX
8
CUT
10
120
20
41.8545
0
SEQEND
0
POLYLINE
8
CUT
66
1
70
0
0
VERTEX
8
CUT
10
0
20
40.3
0
VERTEX
8
CUT
10
3.3
20
40.3
0
VERTEX
8
CUT
10
4.8416
20
39.4591
0
SEQEND
0
POLYLINE
8
CUT
66
1
70
0
0
VERTEX
8
CUT
10
0
20
37.9
0
VERTEX
8
CUT
10
3.3
20
37.9
0
VERTEX
8
CUT
10
4.8416
20
38.7409
0
SEQEND
0
POLYLINE
8
CUT
66
1
70
0
0
VERTEX
8
CUT
10
6.1584
20
39.4591
0
VERTEX
8
CUT
10
7.7
20
40.3
0
VERTEX
8
CUT
10
14.3
20
40.3
0
VERTEX
8
CUT
10
15.8416
20
39.4591
0
SEQEND
0
POLYLINE
8
CUT
66
1
70
0
0
VERTEX
8
CUT
10
6.1584
20
38.7409
0
VERTEX
8
CUT
10
7.7
20
37.9
0
VERTEX
8
CUT
10
14.3
20
37.9
0
VERTEX
8
CUT
10
15.8416
20
38.7409
0
SEQEND
0
POLYLINE
8
CUT
66
1
70
0
0
VERTEX
8
CUT
10
17.1584
20
39.4591
0
VERTEX
8
CUT
10
18.7
20
40.3
0
VERTEX
8
CUT
10
25.3
20
40.3
0
VERTEX
8
CUT
10
26.8416
20
39.4591
0
SEQEND
0
POLYLINE
8
CUT
66
1
70
0
0
VERTEX
8
CUT
10
17.1584
20
38.7409
0
VERTEX
8
CUT
10
18.7
20
37.9
0
VERTEX
8
CUT
10
25.3
20
37.9
0
VERTEX
8
CUT
10
26.8416
20
38.7409
0
SEQEND
0
POLYLINE
8
CUT
66
1
70
0
0
VERTEX
8
CUT
10
28.1584
20
39.4591
0
VERTEX
8
CUT
10
29.7
20
40.3
0
VERTEX
8
CUT
10
36.3
20
40.3
0
VERTEX
8
CUT
10
37.8416
20
39.4591
0
SEQEND
0
POLYLINE
8
CUT
66
1
70
0
0
VERTEX
8
CUT
10
28.1584
20
38.7409
0
VERTEX
8
CUT
10
29.7
20
37.9
0
VERTEX
8
CUT
10
36.3
20
37.9
0
VERTEX
8
CUT
10
37.8416
20
38.7409
0
SEQEND
0
POLYLINE
8
CUT
66
1
70
0
0
VERTEX
8
CUT
10
39.1584
20
39.4591
0
VERTEX
8
CUT
10
40.7
20
40.3
0
VERTEX
8
CUT
10
47.3
20
40.3
0
VERTEX
8
CUT
10
48.8416
20
39.4591
0
SEQEND
0
POLYLINE
8
CUT
66
1
70
0
0
VERTEX
8
CUT
10
39.1584
20
38.7409
0
VERTEX
8
CUT
10
40.7
20
37.9
0
VERTEX
8
CUT
10
47.3
20
37.9
0
VERTEX
8
CUT
10
48.8416
20
38.7409
0
SEQEND
0
POLYLINE
8
CUT
66
1
70
0
0
VERTEX
8
CUT
10
50.1584
20
39.4591
0
VERTEX
8
CUT
10
51.7
20
40.3
0
VERTEX
8
CUT
10
58.3
20
40.3
0
VERTEX
8
CUT
10
59.8416
20
39.4591
0
SEQEND
0
POLYLINE
8
CUT
66
1
70
0
0
VERTEX
8
CUT
10
50.1584
20
38.7409
0
VERTEX
8
CUT
10
51.7
20
37.9
0
VERTEX
8
CUT
10
58.3
20
37.9
0
VERTEX
8
CUT
10
59.8416
20
38.7409
0
SEQEND
0
POLYLINE
8
CUT
66
1
70
0
0
VERTEX
8
CUT
10
61.1584
20
39.4591
0
VERTEX
8
CUT
10
62.7
20
40.3
0
VERTEX
8
CUT
10
69.3
20
40.3
0
VERTEX
8
CUT
10
70.8416
20
39.4591
0
SEQEND
0
POLYLINE
8
CUT
66
1
70
0
0
VERTEX
8
CUT
10
61.1584
20
38.7409
0
VERTEX
8
CUT
10
62.7
20
37.9
0
VERTEX
8
CUT
10
69.3
20
37.9
0
VERTEX
8
CUT
10
70.8416
20
38.7409
0
SEQEND
0
POLYLINE
8
CUT
66
1
70
0
0
VERTEX
8
CUT
10
72.1584
20
39.4591
0
VERTEX
8
CUT
10
73.7
20
40.3
0
VERTEX
8
CUT
10
80.3
20
40.3
0
VERTEX
8
CUT
10
81.8416
20
39.4591
0
SEQEND
0
POLYLINE
8
CUT
66
1
70
0
0
VERTEX
8
CUT
10
72.1584
20
38.7409
0
VERTEX
8
CUT
10
73.7
20
37.9
0
VERTEX
8
CUT
10
80.3
20
37.9
0
VERTEX
8
CUT
10
81.8416
20
38.7409
0
SEQEND
0
POLYLINE
8
CUT
66
1
70
0
0
VERTEX
8
CUT
10
83.1584
20
39.4591
0
VERTEX
8
CUT
10
84.7
20
40.3
0
VERTEX
8
CUT
10
91.3
20
40.3
0
VERTEX
8
CUT
10
92.8416
20
39.4591
0
SEQEND
0
POLYLINE
8
CUT
66
1
70
0
0
VERTEX
8
CUT
10
83.1584
20
38.7409
0
VERTEX
8
CUT
10
84.7
20
37.9
0
VERTEX
8
CUT
10
91.3
20
37.9
0
VERTEX
8
CUT
10
92.8416
20
38.7409
0
SEQEND
0
POLYLINE
8
CUT
66
1
70
0
0
VERTEX
8
CUT
10
94.1584
20
39.4591
0
VERTEX
8
CUT
10
95.7
20
40.3
0
VERTEX
8
CUT
10
102.3
20
40.3
0
VERTEX
8
CUT
10
103.8416
20
39.4591
0
SEQEND
0
POLYLINE
8
CUT
66
1
70
0
0
VERTEX
8
CUT
10
94.1584
20
38.7409
0
VERTEX
8
CUT
10
95.7
20
37.9
0
VERTEX
8
CUT
10
102.3
20
37.9
0
VERTEX
8
CUT
10
103.8416
20
38.7409
0
SEQEND
0
POLYLINE
8
CUT
66
1
70
0
0
VERTEX
8
CUT
10
105.1584
20
39.4591
0
VERTEX
8
CUT
10
106.7
20
40.3
0
VERTEX
8
CUT
10
113.3
20
40.3
0
VERTEX
8
CUT
10
114.8416
20
39.4591
0
SEQEND
0
POLYLINE
8
CUT
66
1
70
0
0
VERTEX
8
CUT
10
105.1584
20
38.7409
0
VERTEX
8
CUT
10
106.7
20
37.9
0
VERTEX
8
CUT
10
113.3
20
37.9
0
VERTEX
8
CUT
10
114.8416
20
38.7409
0
SEQEND
0
POLYLINE
8
CUT
66
1
70
0
0
VERTEX
8
CUT
10
116.1584
20
39.4591
0
VERTEX
8
CUT
10
117.7
20
40.3
0
VERTEX
8
CUT
10
120
20
40.3
0
SEQEND
0
POLYLINE
8
CUT
66
1
70
0
0
VERTEX
8
CUT
10
116.1584
20
38.7409
0
VERTEX
8
CUT
10
117.7
20
37.9
0
VERTEX
8
CUT
10
120
20
37.9
0
SEQEND
0
POLYLINE
8
CUT
66
1
70
0
0
VERTEX
8
CUT
10
0.6584
20
36.1591
0
VERTEX
8
CUT
10
2.2
20
37
0
VERTEX
8
CUT
10
8.8
20
37
0
VERTEX
8
CUT
10
10.3416
20
36.1591
0
SEQEND
0
POLYLINE
8
CUT
66
1
70
0
0
VERTEX
8
CUT
10
0.6584
20
35.4409
0
VERTEX
8
CUT
10
2.2
20
34.6
0
VERTEX
8
CUT
10
8.8
20
34.6
0
VERTEX
8
CUT
10
10.3416
20
35.4409
0
SEQEND
0
POLYLINE
8
CUT
66
1
70
0
0
VERTEX
8
CUT
10
11.6584
20
36.1591
0
VERTEX
8
CUT
10
13.2
20
37
0
VERTEX
8
CUT
10
19.8
20
37
0
VERTEX
8
CUT
10
21.3416
20
36.1591
0
SEQEND
0
POLYLINE
8
CUT
66
1
70
0
0
VERTEX
8
CUT
10
11.6584
20
35.4409
0
VERTEX
8
CUT
10
13.2
20
34.6
0
VERTEX
8
CUT
10
19.8
20
34.6
0
VERTEX
8
CUT
10
21.3416
20
35.4409
0
SEQEND
0
POLYLINE
8
CUT
66
1
70
0
0
VERTEX
8
CUT
10
22.6584
20
36.1591
0
VERTEX
8
CUT
10
24.2
20
37
0
VERTEX
8
CUT
10
30.8
20
37
0
VERTEX
8
CUT
10
32.3416
20
36.1591
0
SEQEND
0
POLYLINE
8
CUT
66
1
70
0
0
VERTEX
8
CUT
10
22.6584
20
35.4409
0
VERTEX
8
CUT
10
24.2
20
34.6
0
VERTEX
8
CUT
10
30.8
20
34.6
0
VERTEX
8
CUT
10
32.3416
20
35.4409
0
SEQEND
0
POLYLINE
8
CUT
66
1
70
0
0
VERTEX
8
CUT
10
33.6584
20
36.1591
0
VERTEX
8
CUT
10
35.2
20
37
0
VERTEX
8
CUT
10
41.8
20
37
0
VERTEX
8
CUT
10
43.3416
20
36.1591
0
SEQEND
0
POLYLINE
8
CUT
66
1
70
0
0
VERTEX
8
CUT
10
33.6584
20
35.4409
0
VERTEX
8
CUT
10
35.2
20
34.6
0
VERTEX
8
CUT
10
41.8
20
34.6
0
VERTEX
8
CUT
10
43.3416
20
35.4409
0
SEQEND
0
POLYLINE
8
CUT
66
1
70
0
0
VERTEX
8
CUT
10
44.6584
20
36.1591
0
VERTEX
8
CUT
10
46.2
20
37
0
VERTEX
8
CUT
10
52.8
20
37
0
VERTEX
8
CUT
10
54.3416
20
36.1591
0
SEQEND
0
POLYLINE
8
CUT
66
1
70
0
0
VERTEX
8
CUT
10
44.6584
20
35.4409
0
VERTEX
8
CUT
10
46.2
20
34.6
0
VERTEX
8
CUT
10
52.8
20
34.6
0
VERTEX
8
CUT
10
54.3416
20
35.4409
0
SEQEND
0
POLYLINE
8
CUT
66
1
70
0
0
VERTEX
8
CUT
10
55.6584
20
36.1591
0
VERTEX
8
CUT
10
57.2
20
37
0
VERTEX
8
CUT
10
63.8
20
37
0
VERTEX
8
CUT
10
65.3416
20
36.1591
0
SEQEND
0
POLYLINE
8
CUT
66
1
70
0
0
VERTEX
8
CUT
10
55.6584
20
35.4409
0
VERTEX
8
CUT
10
57.2
20
34.6
0
VERTEX
8
CUT
10
63.8
20
34.6
0
VERTEX
8
CUT
10
65.3416
20
35.4409
0
SEQEND
0
POLYLINE
8
CUT
66
1
70
0
0
VERTEX
8
CUT
10
66.6584
20
36.1591
0
VERTEX
8
CUT
10
68.2
20
37
0
VERTEX
8
CUT
10
74.8
20
37
0
VERTEX
8
CUT
10
76.3416
20
36.1591
0
SEQEND
0
POLYLINE
8
CUT
66
1
70
0
0
VERTEX
8
CUT
10
66.6584
20
35.4409
0
VERTEX
8
CUT
10
68.2
20
34.6
0
VERTEX
8
CUT
10
74.8
20
34.6
0
VERTEX
8
CUT
10
76.3416
20
35.4409
0
SEQEND
0
POLYLINE
8
CUT
66
1
70
0
0
VERTEX
8
CUT
10
77.6584
20
36.1591
0
VERTEX
8
CUT
10
79.2
20
37
0
VERTEX
8
CUT
10
85.8
20
37
0
VERTEX
8
CUT
10
87.3416
20
36.1591
0
SEQEND
0
POLYLINE
8
CUT
66
1
70
0
0
VERTEX
8
CUT
10
77.6584
20
35.4409
0
VERTEX
8
CUT
10
79.2
20
34.6
0
VERTEX
8
CUT
10
85.8
20
34.6
0
VERTEX
8
CUT
10
87.3416
20
35.4409
0
SEQEND
0
POLYLINE
8
CUT
66
1
70
0
0
VERTEX
8
CUT
10
88.6584
20
36.1591
0
VERTEX
8
CUT
10
90.2
20
37
0
VERTEX
8
CUT
10
96.8
20
37
0
VERTEX
8
CUT
10
98.3416
20
36.1591
0
SEQEND
0
POLYLINE
8
CUT
66
1
70
0
0
VERTEX
8
CUT
10
88.6584
20
35.4409
0
VERTEX
8
CUT
10
90.2
20
34.6
0
VERTEX
8
CUT
10
96.8
20
34.6
0
VERTEX
8
CUT
10
98.3416
20
35.4409
0
SEQEND
0
POLYLINE
8
CUT
66
1
70
0
0
VERTEX
8
CUT
10
99.6584
20
36.1591
0
VERTEX
8
CUT
10
101.2
20
37
0
VERTEX
8
CUT
10
107.8
20
37
0
VERTEX
8
CUT
10
109.3416
20
36.1591
0
SEQEND
0
POLYLINE
8
CUT
66
1
70
0
0
VERTEX
8
CUT
10
99.6584
20
35.4409
0
VERTEX
8
CUT
10
101.2
20
34.6
0
VERTEX
8
CUT
10
107.8
20
34.6
0
VERTEX
8
CUT
10
109.3416
20
35.4409
0
SEQEND
0
POLYLINE
8
CUT
66
1
70
0
0
VERTEX
8
CUT
10
110.6584
20
36.1591
0
VERTEX
8
CUT
10
112.2
20
37
0
VERTEX
8
CUT
10
118.8
20
37
0
VERTEX
8
CUT
10
120
20
36.3455
0
SEQEND
0
POLYLINE
8
CUT
66
1
70
0
0
VERTEX
8
CUT
10
110.6584
20
35.4409
0
VERTEX
8
CUT
10
112.2
20
34.6
0
VERTEX
8
CUT
10
118.8
20
34.6
0
VERTEX
8
CUT
10
120
20
35.2545
0
SEQEND
0
POLYLINE
8
CUT
66
1
70
0
0
VERTEX
8
CUT
10
0
20
33.7
0
VERTEX
8
CUT
10
3.3
20
33.7
0
VERTEX
8
CUT
10
4.8416
20
32.8591
0
SEQEND
0
POLYLINE
8
CUT
66
1
70
0
0
VERTEX
8
CUT
10
0
20
31.3
0
VERTEX
8
CUT
10
3.3
20
31.3
0
VERTEX
8
CUT
10
4.8416
20
32.1409
0
SEQEND
0
POLYLINE
8
CUT
66
1
70
0
0
VERTEX
8
CUT
10
6.1584
20
32.8591
0
VERTEX
8
CUT
10
7.7
20
33.7
0
VERTEX
8
CUT
10
14.3
20
33.7
0
VERTEX
8
CUT
10
15.8416
20
32.8591
0
SEQEND
0
POLYLINE
8
CUT
66
1
70
0
0
VERTEX
8
CUT
10
6.1584
20
32.1409
0
VERTEX
8
CUT
10
7.7
20
31.3
0
VERTEX
8
CUT
10
14.3
20
31.3
0
VERTEX
8
CUT
10
15.8416
20
32.1409
0
SEQEND
0
POLYLINE
8
CUT
66
1
70
0
0
VERTEX
8
CUT
10
17.1584
20
32.8591
0
VERTEX
8
CUT
10
18.7
20
33.7
0
VERTEX
8
CUT
10
25.3
20
33.7
0
VERTEX
8
CUT
10
26.8416
20
32.8591
0
SEQEND
0
POLYLINE
8
CUT
66
1
70
0
0
VERTEX
8
CUT
10
17.1584
20
32.1409
0
VERTEX
8
CUT
10
18.7
20
31.3
0
VERTEX
8
CUT
10
25.3
20
31.3
0
VERTEX
8
CUT
10
26.8416
20
32.1409
0
SEQEND
0
POLYLINE
8
CUT
66
1
70
0
0
VERTEX
8
CUT
10
28.1584
20
32.8591
0
VERTEX
8
CUT
10
29.7
20
33.7
0
VERTEX
8
CUT
10
36.3
20
33.7
0
VERTEX
8
CUT
10
37.8416
20
32.8591
0
SEQEND
0
POLYLINE
8
CUT
66
1
70
0
0
VERTEX
8
CUT
10
28.1584
20
32.1409
0
VERTEX
8
CUT
10
29.7
20
31.3
0
VERTEX
8
CUT
10
36.3
20
31.3
0
VERTEX
8
CUT
10
37.8416
20
32.1409
0
SEQEND
0
POLYLINE
8
CUT
66
1
70
0
0
VERTEX
8
CUT
10
39.1584
20
32.8591
0
VERTEX
8
CUT
10
40.7
20
33.7
0
VERTEX
8
CUT
10
47.3
20
33.7
0
VERTEX
8
CUT
10
48.8416
20
32.8591
0
SEQEND
0
POLYLINE
8
CUT
66
1
70
0
0
VERTEX
8
CUT
10
39.1584
20
32.1409
0
VERTEX
8
CUT
10
40.7
20
31.3
0
VERTEX
8
CUT
10
47.3
20
31.3
0
VERTEX
8
CUT
10
48.8416
20
32.1409
0
SEQEND
0
POLYLINE
8
CUT
66
1
70
0
0
VERTEX
8
CUT
10
50.1584
20
32.8591
0
VERTEX
8
CUT
10
51.7
20
33.7
0
VERTEX
8
CUT
10
58.3
20
33.7
0
VERTEX
8
CUT
10
59.8416
20
32.8591
0
SEQEND
0
POLYLINE
8
CUT
66
1
70
0
0
VERTEX
8
CUT
10
50.1584
20
32.1409
0
VERTEX
8
CUT
10
51.7
20
31.3
0
VERTEX
8
CUT
10
58.3
20
31.3
0
VERTEX
8
CUT
10
59.8416
20
32.1409
0
SEQEND
0
POLYLINE
8
CUT
66
1
70
0
0
VERTEX
8
CUT
10
61.1584
20
32.8591
0
VERTEX
8
CUT
10
62.7
20
33.7
0
VERTEX
8
CUT
10
69.3
20
33.7
0
VERTEX
8
CUT
10
70.8416
20
32.8591
0
SEQEND
0
POLYLINE
8
CUT
66
1
70
0
0
VERTEX
8
CUT
10
61.1584
20
32.1409
0
VERTEX
8
CUT
10
62.7
20
31.3
0
VERTEX
8
CUT
10
69.3
20
31.3
0
VERTEX
8
CUT
10
70.8416
20
32.1409
0
SEQEND
0
POLYLINE
8
CUT
66
1
70
0
0
VERTEX
8
CUT
10
72.1584
20
32.8591
0
VERTEX
8
CUT
10
73.7
20
33.7
0
VERTEX
8
CUT
10
80.3
20
33.7
0
VERTEX
8
CUT
10
81.8416
20
32.8591
0
SEQEND
0
POLYLINE
8
CUT
66
1
70
0
0
VERTEX
8
CUT
10
72.1584
20
32.1409
0
VERTEX
8
CUT
10
73.7
20
31.3
0
VERTEX
8
CUT
10
80.3
20
31.3
0
VERTEX
8
CUT
10
81.8416
20
32.1409
0
SEQEND
0
POLYLINE
8
CUT
66
1
70
0
0
VERTEX
8
CUT
10
83.1584
20
32.8591
0
VERTEX
8
CUT
10
84.7
20
33.7
0
VERTEX
8
CUT
10
91.3
20
33.7
0
VERTEX
8
CUT
10
92.8416
20
32.8591
0
SEQEND
0
POLYLINE
8
CUT
66
1
70
0
0
VERTEX
8
CUT
10
83.1584
20
32.1409
0
VERTEX
8
CUT
10
84.7
20
31.3
0
VERTEX
8
CUT
10
91.3
20
31.3
0
VERTEX
8
CUT
10
92.8416
20
32.1409
0
SEQEND
0
POLYLINE
8
CUT
66
1
70
0
0
VERTEX
8
CUT
10
94.1584
20
32.8591
0
VERTEX
8
CUT
10
95.7
20
33.7
0
VERTEX
8
CUT
10
102.3
20
33.7
0
VERTEX
8
CUT
10
103.8416
20
32.8591
0
SEQEND
0
POLYLINE
8
CUT
66
1
70
0
0
VERTEX
8
CUT
10
94.1584
20
32.1409
0
VERTEX
8
CUT
10
95.7
20
31.3
0
VERTEX
8
CUT
10
102.3
20
31.3
0
VERTEX
8
CUT
10
103.8416
20
32.1409
0
SEQEND
0
POLYLINE
8
CUT
66
1
70
0
0
VERTEX
8
CUT
10
105.1584
20
32.8591
0
VERTEX
8
CUT
10
106.7
20
33.7
0
VERTEX
8
CUT
10
113.3
20
33.7
0
VERTEX
8
CUT
10
114.8416
20
32.8591
0
SEQEND
0
POLYLINE
8
CUT
66
1
70
0
0
VERTEX
8
CUT
10
105.1584
20
32.1409
0
VERTEX
8
CUT
10
106.7
20
31.3
0
VERTEX
8
CUT
10
113.3
20
31.3
0
VERTEX
8
CUT
10
114.8416
20
32.1409
0
SEQEND
0
POLYLINE
8
CUT
66
1
70
0
0
VERTEX
8
CUT
10
116.1584
20
32.8591
0
VERTEX
8
CUT
10
117.7
20
33.7
0
VERTEX
8
CUT
10
120
20
33.7
0
SEQEND
0
POLYLINE
8
CUT
66
1
70
0
0
VERTEX
8
CUT
10
116.1584
20
32.1409
0
VERTEX
8
CUT
10
117.7
20
31.3
0
VERTEX
8
CUT
10
120
20
31.3
0
SEQEND
0
POLYLINE
8
CUT
66
1
70
0
0
VERTEX
8
CUT
10
0.6584
20
29.5591
0
VERTEX
8
CUT
10
2.2
20
30.4
0
VERTEX
8
CUT
10
8.8
20
30.4
0
VERTEX
8
CUT
10
10.3416
20
29.5591
0
SEQEND
0
POLYLINE
8
CUT
66
1
70
0
0
VERTEX
8
CUT
10
0.6584
20
28.8409
0
VERTEX
8
CUT
10
2.2
20
28
0
VERTEX
8
CUT
10
8.8
20
28
0
VERTEX
8
CUT
10
10.3416
20
28.8409
0
SEQEND
0
POLYLINE
8
CUT
66
1
70
0
0
VERTEX
8
CUT
10
11.6584
20
29.5591
0
VERTEX
8
CUT
10
13.2
20
30.4
0
VERTEX
8
CUT
10
19.8
20
30.4
0
VERTEX
8
CUT
10
21.3416
20
29.5591
0
SEQEND
0
POLYLINE
8
CUT
66
1
70
0
0
VERTEX
8
CUT
10
11.6584
20
28.8409
0
VERTEX
8
CUT
10
13.2
20
28
0
VERTEX
8
CUT
10
19.8
20
28
0
VERTEX
8
CUT
10
21.3416
20
28.8409
0
SEQEND
0
POLYLINE
8
CUT
66
1
70
0
0
VERTEX
8
CUT
10
22.6584
20
29.5591
0
VERTEX
8
CUT
10
24.2
20
30.4
0
VERTEX
8
CUT
10
30.8
20
30.4
0
VERTEX
8
CUT
10
32.3416
20
29.5591
0
SEQEND
0
POLYLINE
8
CUT
66
1
70
0
0
VERTEX
8
CUT
10
22.6584
20
28.8409
0
VERTEX
8
CUT
10
24.2
20
28
0
VERTEX
8
CUT
10
30.8
20
28
0
VERTEX
8
CUT
10
32.3416
20
28.8409
0
SEQEND
0
POLYLINE
8
CUT
66
1
70
0
0
VERTEX
8
CUT
10
33.6584
20
29.5591
0
VERTEX
8
CUT
10
35.2
20
30.4
0
VERTEX
8
CUT
10
41.8
20
30.4
0
VERTEX
8
CUT
10
43.3416
20
29.5591
0
SEQEND
0
POLYLINE
8
CUT
66
1
70
0
0
VERTEX
8
CUT
10
33.6584
20
28.8409
0
VERTEX
8
CUT
10
35.2
20
28
0
VERTEX
8
CUT
10
41.8
20
28
0
VERTEX
8
CUT
10
43.3416
20
28.8409
0
SEQEND
0
POLYLINE
8
CUT
66
1
70
0
0
VERTEX
8
CUT
10
44.6584
20
29.5591
0
VERTEX
8
CUT
10
46.2
20
30.4
0
VERTEX
8
CUT
10
52.8
20
30.4
0
VERTEX
8
CUT
10
54.3416
20
29.5591
0
SEQEND
0
POLYLINE
8
CUT
66
1
70
0
0
VERTEX
8
CUT
10
44.6584
20
28.8409
0
VERTEX
8
CUT
10
46.2
20
28
0
VERTEX
8
CUT
10
52.8
20
28
0
VERTEX
8
CUT
10
54.3416
20
28.8409
0
SEQEND
0
POLYLINE
8
CUT
66
1
70
0
0
VERTEX
8
CUT
10
55.6584
20
29.5591
0
VERTEX
8
CUT
10
57.2
20
30.4
0
VERTEX
8
CUT
10
63.8
20
30.4
0
VERTEX
8
CUT
10
65.3416
20
29.5591
0
SEQEND
0
POLYLINE
8
CUT
66
1
70
0
0
VERTEX
8
CUT
10
55.6584
20
28.8409
0
VERTEX
8
CUT
10
57.2
20
28
0
VERTEX
8
CUT
10
63.8
20
28
0
VERTEX
8
CUT
10
65.3416
20
28.8409
0
SEQEND
0
POLYLINE
8
CUT
66
1
70
0
0
VERTEX
8
CUT
10
66.6584
20
29.5591
0
VERTEX
8
CUT
10
68.2
20
30.4
0
VERTEX
8
CUT
10
74.8
20
30.4
0
VERTEX
8
CUT
10
76.3416
20
29.5591
0
SEQEND
0
POLYLINE
8
CUT
66
1
70
0
0
VERTEX
8
CUT
10
66.6584
20
28.8409
0
VERTEX
8
CUT
10
68.2
20
28
0
VERTEX
8
CUT
10
74.8
20
28
0
VERTEX
8
CUT
10
76.3416
20
28.8409
0
SEQEND
0
POLYLINE
8
CUT
66
1
70
0
0
VERTEX
8
CUT
10
77.6584
20
29.5591
0
VERTEX
8
CUT
10
79.2
20
30.4
0
VERTEX
8
CUT
10
85.8
20
30.4
0
VERTEX
8
CUT
10
87.3416
20
29.5591
0
SEQEND
0
POLYLINE
8
CUT
66
1
70
0
0
VERTEX
8
CUT
10
77.6584
20
28.8409
0
VERTEX
8
CUT
10
79.2
20
28
0
VERTEX
8
CUT
10
85.8
20
28
0
VERTEX
8
CUT
10
87.3416
20
28.8409
0
SEQEND
0
POLYLINE
8
CUT
66
1
70
0
0
VERTEX
8
CUT
10
88.6584
20
29.5591
0
VERTEX
8
CUT
10
90.2
20
30.4
0
VERTEX
8
CUT
10
96.8
20
30.4
0
VERTEX
8
CUT
10
98.3416
20
29.5591
0
SEQEND
0
POLYLINE
8
CUT
66
1
70
0
0
VERTEX
8
CUT
10
88.6584
20
28.8409
0
VERTEX
8
CUT
10
90.2
20
28
0
VERTEX
8
CUT
10
96.8
20
28
0
VERTEX
8
CUT
10
98.3416
20
28.8409
0
SEQEND
0
POLYLINE
8
CUT
66
1
70
0
0
VERTEX
8
CUT
10
99.6584
20
29.5591
0
VERTEX
8
CUT
10
101.2
20
30.4
0
VERTEX
8
CUT
10
107.8
20
30.4
0
VERTEX
8
CUT
10
109.3416
20
29.5591
0
SEQEND
0
POLYLINE
8
CUT
66
1
70
0
0
VERTEX
8
CUT
10
99.6584
20
28.8409
0
VERTEX
8
CUT
10
101.2
20
28
0
VERTEX
8
CUT
10
107.8
20
28
0
VERTEX
8
CUT
10
109.3416
20
28.8409
0
SEQEND
0
POLYLINE
8
CUT
66
1
70
0
0
VERTEX
8
CUT
10
110.6584
20
29.5591
0
VERTEX
8
CUT
10
112.2
20
30.4
0
VERTEX
8
CUT
10
118.8
20
30.4
0
VERTEX
8
CUT
10
120
20
29.7455
0
SEQEND
0
POLYLINE
8
CUT
66
1
70
0
0
VERTEX
8
CUT
10
110.6584
20
28.8409
0
VERTEX
8
CUT
10
112.2
20
28
0
VERTEX
8
CUT
10
118.8
20
28
0
VERTEX
8
CUT
10
120
20
28.6545
0
SEQEND
0
POLYLINE
8
CUT
66
1
70
0
0
VERTEX
8
CUT
10
0
20
27.1
0
VERTEX
8
CUT
10
3.3
20
27.1
0
VERTEX
8
CUT
10
4.8416
20
26.2591
0
SEQEND
0
POLYLINE
8
CUT
66
1
70
0
0
VERTEX
8
CUT
10
0
20
24.7
0
VERTEX
8
CUT
10
3.3
20
24.7
0
VERTEX
8
CUT
10
4.8416
20
25.5409
0
SEQEND
0
POLYLINE
8
CUT
66
1
70
0
0
VERTEX
8
CUT
10
6.1584
20
26.2591
0
VERTEX
8
CUT
10
7.7
20
27.1
0
VERTEX
8
CUT
10
14.3
20
27.1
0
VERTEX
8
CUT
10
15.8416
20
26.2591
0
SEQEND
0
POLYLINE
8
CUT
66
1
70
0
0
VERTEX
8
CUT
10
6.1584
20
25.5409
0
VERTEX
8
CUT
10
7.7
20
24.7
0
VERTEX
8
CUT
10
14.3
20
24.7
0
VERTEX
8
CUT
10
15.8416
20
25.5409
0
SEQEND
0
POLYLINE
8
CUT
66
1
70
0
0
VERTEX
8
CUT
10
17.1584
20
26.2591
0
VERTEX
8
CUT
10
18.7
20
27.1
0
VERTEX
8
CUT
10
25.3
20
27.1
0
VERTEX
8
CUT
10
26.8416
20
26.2591
0
SEQEND
0
POLYLINE
8
CUT
66
1
70
0
0
VERTEX
8
CUT
10
17.1584
20
25.5409
0
VERTEX
8
CUT
10
18.7
20
24.7
0
VERTEX
8
CUT
10
25.3
20
24.7
0
VERTEX
8
CUT
10
26.8416
20
25.5409
0
SEQEND
0
POLYLINE
8
CUT
66
1
70
0
0
VERTEX
8
CUT
10
28.1584
20
26.2591
0
VERTEX
8
CUT
10
29.7
20
27.1
0
VERTEX
8
CUT
10
36.3
20
27.1
0
VERTEX
8
CUT
10
37.8416
20
26.2591
0
SEQEND
0
POLYLINE
8
CUT
66
1
70
0
0
VERTEX
8
CUT
10
28.1584
20
25.5409
0
VERTEX
8
CUT
10
29.7
20
24.7
0
VERTEX
8
CUT
10
36.3
20
24.7
0
VERTEX
8
CUT
10
37.8416
20
25.5409
0
SEQEND
0
POLYLINE
8
CUT
66
1
70
0
0
VERTEX
8
CUT
10
39.1584
20
26.2591
0
VERTEX
8
CUT
10
40.7
20
27.1
0
VERTEX
8
CUT
10
47.3
20
27.1
0
VERTEX
8
CUT
10
48.8416
20
26.2591
0
SEQEND
0
POLYLINE
8
CUT
66
1
70
0
0
VERTEX
8
CUT
10
39.1584
20
25.5409
0
VERTEX
8
CUT
10
40.7
20
24.7
0
VERTEX
8
CUT
10
47.3
20
24.7
0
VERTEX
8
CUT
10
48.8416
20
25.5409
0
SEQEND
0
POLYLINE
8
CUT
66
1
70
0
0
VERTEX
8
CUT
10
50.1584
20
26.2591
0
VERTEX
8
CUT
10
51.7
20
27.1
0
VERTEX
8
CUT
10
58.3
20
27.1
0
VERTEX
8
CUT
10
59.8416
20
26.2591
0
SEQEND
0
POLYLINE
8
CUT
66
1
70
0
0
VERTEX
8
CUT
10
50.1584
20
25.5409
0
VERTEX
8
CUT
10
51.7
20
24.7
0
VERTEX
8
CUT
10
58.3
20
24.7
0
VERTEX
8
CUT
10
59.8416
20
25.5409
0
SEQEND
0
POLYLINE
8
CUT
66
1
70
0
0
VERTEX
8
CUT
10
61.1584
20
26.2591
0
VERTEX
8
CUT
10
62.7
20
27.1
0
VERTEX
8
CUT
10
69.3
20
27.1
0
VERTEX
8
CUT
10
70.8416
20
26.2591
0
SEQEND
0
POLYLINE
8
CUT
66
1
70
0
0
VERTEX
8
CUT
10
61.1584
20
25.5409
0
VERTEX
8
CUT
10
62.7
20
24.7
0
VERTEX
8
CUT
10
69.3
20
24.7
0
VERTEX
8
CUT
10
70.8416
20
25.5409
0
SEQEND
0
POLYLINE
8
CUT
66
1
70
0
0
VERTEX
8
CUT
10
72.1584
20
26.2591
0
VERTEX
8
CUT
10
73.7
20
27.1
0
VERTEX
8
CUT
10
80.3
20
27.1
0
VERTEX
8
CUT
10
81.8416
20
26.2591
0
SEQEND
0
POLYLINE
8
CUT
66
1
70
0
0
VERTEX
8
CUT
10
72.1584
20
25.5409
0
VERTEX
8
CUT
10
73.7
20
24.7
0
VERTEX
8
CUT
10
80.3
20
24.7
0
VERTEX
8
CUT
10
81.8416
20
25.5409
0
SEQEND
0
POLYLINE
8
CUT
66
1
70
0
0
VERTEX
8
CUT
10
83.1584
20
26.2591
0
VERTEX
8
CUT
10
84.7
20
27.1
0
VERTEX
8
CUT
10
91.3
20
27.1
0
VERTEX
8
CUT
10
92.8416
20
26.2591
0
SEQEND
0
POLYLINE
8
CUT
66
1
70
0
0
VERTEX
8
CUT
10
83.1584
20
25.5409
0
VERTEX
8
CUT
10
84.7
20
24.7
0
VERTEX
8
CUT
10
91.3
20
24.7
0
VERTEX
8
CUT
10
92.8416
20
25.5409
0
SEQEND
0
POLYLINE
8
CUT
66
1
70
0
0
VERTEX
8
CUT
10
94.1584
20
26.2591
0
VERTEX
8
CUT
10
95.7
20
27.1
0
VERTEX
8
CUT
10
102.3
20
27.1
0
VERTEX
8
CUT
10
103.8416
20
26.2591
0
SEQEND
0
POLYLINE
8
CUT
66
1
70
0
0
VERTEX
8
CUT
10
94.1584
20
25.5409
0
VERTEX
8
CUT
10
95.7
20
24.7
0
VERTEX
8
CUT
10
102.3
20
24.7
0
VERTEX
8
CUT
10
103.8416
20
25.5409
0
SEQEND
0
POLYLINE
8
CUT
66
1
70
0
0
VERTEX
8
CUT
10
105.1584
20
26.2591
0
VERTEX
8
CUT
10
106.7
20
27.1
0
VERTEX
8
CUT
10
113.3
20
27.1
0
VERTEX
8
CUT
10
114.8416
20
26.2591
0
SEQEND
0
POLYLINE
8
CUT
66
1
70
0
0
VERTEX
8
CUT
10
105.1584
20
25.5409
0
VERTEX
8
CUT
10
106.7
20
24.7
0
VERTEX
8
CUT
10
113.3
20
24.7
0
VERTEX
8
CUT
10
114.8416
20
25.5409
0
SEQEND
0
POLYLINE
8
CUT
66
1
70
0
0
VERTEX
8
CUT
10
116.1584
20
26.2591
0
VERTEX
8
CUT
10
117.7
20
27.1
0
VERTEX
8
CUT
10
120
20
27.1
0
SEQEND
0
POLYLINE
8
CUT
66
1
70
0
0
VERTEX
8
CUT
10
116.1584
20
25.5409
0
VERTEX
8
CUT
10
117.7
20
24.7
0
VERTEX
8
CUT
10
120
20
24.7
0
SEQEND
0
POLYLINE
8
CUT
66
1
70
0
0
VERTEX
8
CUT
10
0.6584
20
22.9591
0
VERTEX
8
CUT
10
2.2
20
23.8
0
VERTEX
8
CUT
10
8.8
20
23.8
0
VERTEX
8
CUT
10
10.3416
20
22.9591
0
SEQEND
0
POLYLINE
8
CUT
66
1
70
0
0
VERTEX
8
CUT
10
0.6584
20
22.2409
0
VERTEX
8
CUT
10
2.2
20
21.4
0
VERTEX
8
CUT
10
8.8
20
21.4
0
VERTEX
8
CUT
10
10.3416
20
22.2409
0
SEQEND
0
POLYLINE
8
CUT
66
1
70
0
0
VERTEX
8
CUT
10
11.6584
20
22.9591
0
VERTEX
8
CUT
10
13.2
20
23.8
0
VERTEX
8
CUT
10
19.8
20
23.8
0
VERTEX
8
CUT
10
21.3416
20
22.9591
0
SEQEND
0
POLYLINE
8
CUT
66
1
70
0
0
VERTEX
8
CUT
10
11.6584
20
22.2409
0
VERTEX
8
CUT
10
13.2
20
21.4
0
VERTEX
8
CUT
10
19.8
20
21.4
0
VERTEX
8
CUT
10
21.3416
20
22.2409
0
SEQEND
0
POLYLINE
8
CUT
66
1
70
0
0
VERTEX
8
CUT
10
22.6584
20
22.9591
0
VERTEX
8
CUT
10
24.2
20
23.8
0
VERTEX
8
CUT
10
30.8
20
23.8
0
VERTEX
8
CUT
10
32.3416
20
22.9591
0
SEQEND
0
POLYLINE
8
CUT
66
1
70
0
0
VERTEX
8
CUT
10
22.6584
20
22.2409
0
VERTEX
8
CUT
10
24.2
20
21.4
0
VERTEX
8
CUT
10
30.8
20
21.4
0
VERTEX
8
CUT
10
32.3416
20
22.2409
0
SEQEND
0
POLYLINE
8
CUT
66
1
70
0
0
VERTEX
8
CUT
10
33.6584
20
22.9591
0
VERTEX
8
CUT
10
35.2
20
23.8
0
VERTEX
8
CUT
10
41.8
20
23.8
0
VERTEX
8
CUT
10
43.3416
20
22.9591
0
SEQEND
0
POLYLINE
8
CUT
66
1
70
0
0
VERTEX
8
CUT
10
33.6584
20
22.2409
0
VERTEX
8
CUT
10
35.2
20
21.4
0
VERTEX
8
CUT
10
41.8
20
21.4
0
VERTEX
8
CUT
10
43.3416
20
22.2409
0
SEQEND
0
POLYLINE
8
CUT
66
1
70
0
0
VERTEX
8
CUT
10
44.6584
20
22.9591
0
VERTEX
8
CUT
10
46.2
20
23.8
0
VERTEX
8
CUT
10
52.8
20
23.8
0
VERTEX
8
CUT
10
54.3416
20
22.9591
0
SEQEND
0
POLYLINE
8
CUT
66
1
70
0
0
VERTEX
8
CUT
10
44.6584
20
22.2409
0
VERTEX
8
CUT
10
46.2
20
21.4
0
VERTEX
8
CUT
10
52.8
20
21.4
0
VERTEX
8
CUT
10
54.3416
20
22.2409
0
SEQEND
0
POLYLINE
8
CUT
66
1
70
0
0
VERTEX
8
CUT
10
55.6584
20
22.9591
0
VERTEX
8
CUT
10
57.2
20
23.8
0
VERTEX
8
CUT
10
63.8
20
23.8
0
VERTEX
8
CUT
10
65.3416
20
22.9591
0
SEQEND
0
POLYLINE
8
CUT
66
1
70
0
0
VERTEX
8
CUT
10
55.6584
20
22.2409
0
VERTEX
8
CUT
10
57.2
20
21.4
0
VERTEX
8
CUT
10
63.8
20
21.4
0
VERTEX
8
CUT
10
65.3416
20
22.2409
0
SEQEND
0
POLYLINE
8
CUT
66
1
70
0
0
VERTEX
8
CUT
10
66.6584
20
22.9591
0
VERTEX
8
CUT
10
68.2
20
23.8
0
VERTEX
8
CUT
10
74.8
20
23.8
0
VERTEX
8
CUT
10
76.3416
20
22.9591
0
SEQEND
0
POLYLINE
8
CUT
66
1
70
0
0
VERTEX
8
CUT
10
66.6584
20
22.2409
0
VERTEX
8
CUT
10
68.2
20
21.4
0
VERTEX
8
CUT
10
74.8
20
21.4
0
VERTEX
8
CUT
10
76.3416
20
22.2409
0
SEQEND
0
POLYLINE
8
CUT
66
1
70
0
0
VERTEX
8
CUT
10
77.6584
20
22.9591
0
VERTEX
8
CUT
10
79.2
20
23.8
0
VERTEX
8
CUT
10
85.8
20
23.8
0
VERTEX
8
CUT
10
87.3416
20
22.9591
0
SEQEND
0
POLYLINE
8
CUT
66
1
70
0
0
VERTEX
8
CUT
10
77.6584
20
22.2409
0
VERTEX
8
CUT
10
79.2
20
21.4
0
VERTEX
8
CUT
10
85.8
20
21.4
0
VERTEX
8
CUT
10
87.3416
20
22.2409
0
SEQEND
0
POLYLINE
8
CUT
66
1
70
0
0
VERTEX
8
CUT
10
88.6584
20
22.9591
0
VERTEX
8
CUT
10
90.2
20
23.8
0
VERTEX
8
CUT
10
96.8
20
23.8
0
VERTEX
8
CUT
10
98.3416
20
22.9591
0
SEQEND
0
POLYLINE
8
CUT
66
1
70
0
0
VERTEX
8
CUT
10
88.6584
20
22.2409
0
VERTEX
8
CUT
10
90.2
20
21.4
0
VERTEX
8
CUT
10
96.8
20
21.4
0
VERTEX
8
CUT
10
98.3416
20
22.2409
0
SEQEND
0
POLYLINE
8
CUT
66
1
70
0
0
VERTEX
8
CUT
10
99.6584
20
22.9591
0
VERTEX
8
CUT
10
101.2
20
23.8
0
VERTEX
8
CUT
10
107.8
20
23.8
0
VERTEX
8
CUT
10
109.3416
20
22.9591
0
SEQEND
0
POLYLINE
8
CUT
66
1
70
0
0
VERTEX
8
CUT
10
99.6584
20
22.2409
0
VERTEX
8
CUT
10
101.2
20
21.4
0
VERTEX
8
CUT
10
107.8
20
21.4
0
VERTEX
8
CUT
10
109.3416
20
22.2409
0
SEQEND
0
POLYLINE
8
CUT
66
1
70
0
0
VERTEX
8
CUT
10
110.6584
20
22.9591
0
VERTEX
8
CUT
10
112.2
20
23.8
0
VERTEX
8
CUT
10
118.8
20
23.8
0
VERTEX
8
CUT
10
120
20
23.1455
0
SEQEND
0
POLYLINE
8
CUT
66
1
70
0
0
VERTEX
8
CUT
10
110.6584
20
22.2409
0
VERTEX
8
CUT
10
112.2
20
21.4
0
VERTEX
8
CUT
10
118.8
20
21.4
0
VERTEX
8
CUT
10
120
20
22.0545
0
SEQEND
0
POLYLINE
8
CUT
66
1
70
0
0
VERTEX
8
CUT
10
0
20
20.5
0
VERTEX
8
CUT
10
3.3
20
20.5
0
VERTEX
8
CUT
10
4.8416
20
19.6591
0
SEQEND
0
POLYLINE
8
CUT
66
1
70
0
0
VERTEX
8
CUT
10
0
20
18.1
0
VERTEX
8
CUT
10
3.3
20
18.1
0
VERTEX
8
CUT
10
4.8416
20
18.9409
0
SEQEND
0
POLYLINE
8
CUT
66
1
70
0
0
VERTEX
8
CUT
10
6.1584
20
19.6591
0
VERTEX
8
CUT
10
7.7
20
20.5
0
VERTEX
8
CUT
10
14.3
20
20.5
0
VERTEX
8
CUT
10
15.8416
20
19.6591
0
SEQEND
0
POLYLINE
8
CUT
66
1
70
0
0
VERTEX
8
CUT
10
6.1584
20
18.9409
0
VERTEX
8
CUT
10
7.7
20
18.1
0
VERTEX
8
CUT
10
14.3
20
18.1
0
VERTEX
8
CUT
10
15.8416
20
18.9409
0
SEQEND
0
POLYLINE
8
CUT
66
1
70
0
0
VERTEX
8
CUT
10
17.1584
20
19.6591
0
VERTEX
8
CUT
10
18.7
20
20.5
0
VERTEX
8
CUT
10
25.3
20
20.5
0
VERTEX
8
CUT
10
26.8416
20
19.6591
0
SEQEND
0
POLYLINE
8
CUT
66
1
70
0
0
VERTEX
8
CUT
10
17.1584
20
18.9409
0
VERTEX
8
CUT
10
18.7
20
18.1
0
VERTEX
8
CUT
10
25.3
20
18.1
0
VERTEX
8
CUT
10
26.8416
20
18.9409
0
SEQEND
0
POLYLINE
8
CUT
66
1
70
0
0
VERTEX
8
CUT
10
28.1584
20
19.6591
0
VERTEX
8
CUT
10
29.7
20
20.5
0
VERTEX
8
CUT
10
36.3
20
20.5
0
VERTEX
8
CUT
10
37.8416
20
19.6591
0
SEQEND
0
POLYLINE
8
CUT
66
1
70
0
0
VERTEX
8
CUT
10
28.1584
20
18.9409
0
VERTEX
8
CUT
10
29.7
20
18.1
0
VERTEX
8
CUT
10
36.3
20
18.1
0
VERTEX
8
CUT
10
37.8416
20
18.9409
0
SEQEND
0
POLYLINE
8
CUT
66
1
70
0
0
VERTEX
8
CUT
10
39.1584
20
19.6591
0
VERTEX
8
CUT
10
40.7
20
20.5
0
VERTEX
8
CUT
10
47.3
20
20.5
0
VERTEX
8
CUT
10
48.8416
20
19.6591
0
SEQEND
0
POLYLINE
8
CUT
66
1
70
0
0
VERTEX
8
CUT
10
39.1584
20
18.9409
0
VERTEX
8
CUT
10
40.7
20
18.1
0
VERTEX
8
CUT
10
47.3
20
18.1
0
VERTEX
8
CUT
10
48.8416
20
18.9409
0
SEQEND
0
POLYLINE
8
CUT
66
1
70
0
0
VERTEX
8
CUT
10
50.1584
20
19.6591
0
VERTEX
8
CUT
10
51.7
20
20.5
0
VERTEX
8
CUT
10
58.3
20
20.5
0
VERTEX
8
CUT
10
59.8416
20
19.6591
0
SEQEND
0
POLYLINE
8
CUT
66
1
70
0
0
VERTEX
8
CUT
10
50.1584
20
18.9409
0
VERTEX
8
CUT
10
51.7
20
18.1
0
VERTEX
8
CUT
10
58.3
20
18.1
0
VERTEX
8
CUT
10
59.8416
20
18.9409
0
SEQEND
0
POLYLINE
8
CUT
66
1
70
0
0
VERTEX
8
CUT
10
61.1584
20
19.6591
0
VERTEX
8
CUT
10
62.7
20
20.5
0
VERTEX
8
CUT
10
69.3
20
20.5
0
VERTEX
8
CUT
10
70.8416
20
19.6591
0
SEQEND
0
POLYLINE
8
CUT
66
1
70
0
0
VERTEX
8
CUT
10
61.1584
20
18.9409
0
VERTEX
8
CUT
10
62.7
20
18.1
0
VERTEX
8
CUT
10
69.3
20
18.1
0
VERTEX
8
CUT
10
70.8416
20
18.9409
0
SEQEND
0
POLYLINE
8
CUT
66
1
70
0
0
VERTEX
8
CUT
10
72.1584
20
19.6591
0
VERTEX
8
CUT
10
73.7
20
20.5
0
VERTEX
8
CUT
10
80.3
20
20.5
0
VERTEX
8
CUT
10
81.8416
20
19.6591
0
SEQEND
0
POLYLINE
8
CUT
66
1
70
0
0
VERTEX
8
CUT
10
72.1584
20
18.9409
0
VERTEX
8
CUT
10
73.7
20
18.1
0
VERTEX
8
CUT
10
80.3
20
18.1
0
VERTEX
8
CUT
10
81.8416
20
18.9409
0
SEQEND
0
POLYLINE
8
CUT
66
1
70
0
0
VERTEX
8
CUT
10
83.1584
20
19.6591
0
VERTEX
8
CUT
10
84.7
20
20.5
0
VERTEX
8
CUT
10
91.3
20
20.5
0
VERTEX
8
CUT
10
92.8416
20
19.6591
0
SEQEND
0
POLYLINE
8
CUT
66
1
70
0
0
VERTEX
8
CUT
10
83.1584
20
18.9409
0
VERTEX
8
CUT
10
84.7
20
18.1
0
VERTEX
8
CUT
10
91.3
20
18.1
0
VERTEX
8
CUT
10
92.8416
20
18.9409
0
SEQEND
0
POLYLINE
8
CUT
66
1
70
0
0
VERTEX
8
CUT
10
94.1584
20
19.6591
0
VERTEX
8
CUT
10
95.7
20
20.5
0
VERTEX
8
CUT
10
102.3
20
20.5
0
VERTEX
8
CUT
10
103.8416
20
19.6591
0
SEQEND
0
POLYLINE
8
CUT
66
1
70
0
0
VERTEX
8
CUT
10
94.1584
20
18.9409
0
VERTEX
8
CUT
10
95.7
20
18.1
0
VERTEX
8
CUT
10
102.3
20
18.1
0
VERTEX
8
CUT
10
103.8416
20
18.9409
0
SEQEND
0
POLYLINE
8
CUT
66
1
70
0
0
VERTEX
8
CUT
10
105.1584
20
19.6591
0
VERTEX
8
CUT
10
106.7
20
20.5
0
VERTEX
8
CUT
10
113.3
20
20.5
0
VERTEX
8
CUT
10
114.8416
20
19.6591
0
SEQEND
0
POLYLINE
8
CUT
66
1
70
0
0
VERTEX
8
CUT
10
105.1584
20
18.9409
0
VERTEX
8
CUT
10
106.7
20
18.1
0
VERTEX
8
CUT
10
113.3
20
18.1
0
VERTEX
8
CUT
10
114.8416
20
18.9409
0
SEQEND
0
POLYLINE
8
CUT
66
1
70
0
0
VERTEX
8
CUT
10
116.1584
20
19.6591
0
VERTEX
8
CUT
10
117.7
20
20.5
0
VERTEX
8
CUT
10
120
20
20.5
0
SEQEND
0
POLYLINE
8
CUT
66
1
70
0
0
VERTEX
8
CUT
10
116.1584
20
18.9409
0
VERTEX
8
CUT
10
117.7
20
18.1
0
VERTEX
8
CUT
10
120
20
18.1
0
SEQEND
0
POLYLINE
8
CUT
66
1
70
0
0
VERTEX
8
CUT
10
0.6584
20
16.3591
0
VERTEX
8
CUT
10
2.2
20
17.2
0
VERTEX
8
CUT
10
8.8
20
17.2
0
VERTEX
8
CUT
10
10.3416
20
16.3591
0
SEQEND
0
POLYLINE
8
CUT
66
1
70
0
0
VERTEX
8
CUT
10
0.6584
20
15.6409
0
VERTEX
8
CUT
10
2.2
20
14.8
0
VERTEX
8
CUT
10
8.8
20
14.8
0
VERTEX
8
CUT
10
10.3416
20
15.6409
0
SEQEND
0
POLYLINE
8
CUT
66
1
70
0
0
VERTEX
8
CUT
10
11.6584
20
16.3591
0
VERTEX
8
CUT
10
13.2
20
17.2
0
VERTEX
8
CUT
10
19.8
20
17.2
0
VERTEX
8
CUT
10
21.3416
20
16.3591
0
SEQEND
0
POLYLINE
8
CUT
66
1
70
0
0
VERTEX
8
CUT
10
11.6584
20
15.6409
0
VERTEX
8
CUT
10
13.2
20
14.8
0
VERTEX
8
CUT
10
19.8
20
14.8
0
VERTEX
8
CUT
10
21.3416
20
15.6409
0
SEQEND
0
POLYLINE
8
CUT
66
1
70
0
0
VERTEX
8
CUT
10
22.6584
20
16.3591
0
VERTEX
8
CUT
10
24.2
20
17.2
0
VERTEX
8
CUT
10
30.8
20
17.2
0
VERTEX
8
CUT
10
32.3416
20
16.3591
0
SEQEND
0
POLYLINE
8
CUT
66
1
70
0
0
VERTEX
8
CUT
10
22.6584
20
15.6409
0
VERTEX
8
CUT
10
24.2
20
14.8
0
VERTEX
8
CUT
10
30.8
20
14.8
0
VERTEX
8
CUT
10
32.3416
20
15.6409
0
SEQEND
0
POLYLINE
8
CUT
66
1
70
0
0
VERTEX
8
CUT
10
33.6584
20
16.3591
0
VERTEX
8
CUT
10
35.2
20
17.2
0
VERTEX
8
CUT
10
41.8
20
17.2
0
VERTEX
8
CUT
10
43.3416
20
16.3591
0
SEQEND
0
POLYLINE
8
CUT
66
1
70
0
0
VERTEX
8
CUT
10
33.6584
20
15.6409
0
VERTEX
8
CUT
10
35.2
20
14.8
0
VERTEX
8
CUT
10
41.8
20
14.8
0
VERTEX
8
CUT
10
43.3416
20
15.6409
0
SEQEND
0
POLYLINE
8
CUT
66
1
70
0
0
VERTEX
8
CUT
10
44.6584
20
16.3591
0
VERTEX
8
CUT
10
46.2
20
17.2
0
VERTEX
8
CUT
10
52.8
20
17.2
0
VERTEX
8
CUT
10
54.3416
20
16.3591
0
SEQEND
0
POLYLINE
8
CUT
66
1
70
0
0
VERTEX
8
CUT
10
44.6584
20
15.6409
0
VERTEX
8
CUT
10
46.2
20
14.8
0
VERTEX
8
CUT
10
52.8
20
14.8
0
VERTEX
8
CUT
10
54.3416
20
15.6409
0
SEQEND
0
POLYLINE
8
CUT
66
1
70
0
0
VERTEX
8
CUT
10
55.6584
20
16.3591
0
VERTEX
8
CUT
10
57.2
20
17.2
0
VERTEX
8
CUT
10
63.8
20
17.2
0
VERTEX
8
CUT
10
65.3416
20
16.3591
0
SEQEND
0
POLYLINE
8
CUT
66
1
70
0
0
VERTEX
8
CUT
10
55.6584
20
15.6409
0
VERTEX
8
CUT
10
57.2
20
14.8
0
VERTEX
8
CUT
10
63.8
20
14.8
0
VERTEX
8
CUT
10
65.3416
20
15.6409
0
SEQEND
0
POLYLINE
8
CUT
66
1
70
0
0
VERTEX
8
CUT
10
66.6584
20
16.3591
0
VERTEX
8
CUT
10
68.2
20
17.2
0
VERTEX
8
CUT
10
74.8
20
17.2
0
VERTEX
8
CUT
10
76.3416
20
16.3591
0
SEQEND
0
POLYLINE
8
CUT
66
1
70
0
0
VERTEX
8
CUT
10
66.6584
20
15.6409
0
VERTEX
8
CUT
10
68.2
20
14.8
0
VERTEX
8
CUT
10
74.8
20
14.8
0
VERTEX
8
CUT
10
76.3416
20
15.6409
0
SEQEND
0
POLYLINE
8
CUT
66
1
70
0
0
VERTEX
8
CUT
10
77.6584
20
16.3591
0
VERTEX
8
CUT
10
79.2
20
17.2
0
VERTEX
8
CUT
10
85.8
20
17.2
0
VERTEX
8
CUT
10
87.3416
20
16.3591
0
SEQEND
0
POLYLINE
8
CUT
66
1
70
0
0
VERTEX
8
CUT
10
77.6584
20
15.6409
0
VERTEX
8
CUT
10
79.2
20
14.8
0
VERTEX
8
CUT
10
85.8
20
14.8
0
VERTEX
8
CUT
10
87.3416
20
15.6409
0
SEQEND
0
POLYLINE
8
CUT
66
1
70
0
0
VERTEX
8
CUT
10
88.6584
20
16.3591
0
VERTEX
8
CUT
10
90.2
20
17.2
0
VERTEX
8
CUT
10
96.8
20
17.2
0
VERTEX
8
CUT
10
98.3416
20
16.3591
0
SEQEND
0
POLYLINE
8
CUT
66
1
70
0
0
VERTEX
8
CUT
10
88.6584
20
15.6409
0
VERTEX
8
CUT
10
90.2
20
14.8
0
VERTEX
8
CUT
10
96.8
20
14.8
0
VERTEX
8
CUT
10
98.3416
20
15.6409
0
SEQEND
0
POLYLINE
8
CUT
66
1
70
0
0
VERTEX
8
CUT
10
99.6584
20
16.3591
0
VERTEX
8
CUT
10
101.2
20
17.2
0
VERTEX
8
CUT
10
107.8
20
17.2
0
VERTEX
8
CUT
10
109.3416
20
16.3591
0
SEQEND
0
POLYLINE
8
CUT
66
1
70
0
0
VERTEX
8
CUT
10
99.6584
20
15.6409
0
VERTEX
8
CUT
10
101.2
20
14.8
0
VERTEX
8
CUT
10
107.8
20
14.8
0
VERTEX
8
CUT
10
109.3416
20
15.6409
0
SEQEND
0
POLYLINE
8
CUT
66
1
70
0
0
VERTEX
8
CUT
10
110.6584
20
16.3591
0
VERTEX
8
CUT
10
112.2
20
17.2
0
VERTEX
8
CUT
10
118.8
20
17.2
0
VERTEX
8
CUT
10
120
20
16.5455
0
SEQEND
0
POLYLINE
8
CUT
66
1
70
0
0
VERTEX
8
CUT
10
110.6584
20
15.6409
0
VERTEX
8
CUT
10
112.2
20
14.8
0
VERTEX
8
CUT
10
118.8
20
14.8
0
VERTEX
8
CUT
10
120
20
15.4545
0
SEQEND
0
POLYLINE
8
CUT
66
1
70
0
0
VERTEX
8
CUT
10
0
20
13.9
0
VERTEX
8
CUT
10
3.3
20
13.9
0
VERTEX
8
CUT
10
4.8416
20
13.0591
0
SEQEND
0
POLYLINE
8
CUT
66
1
70
0
0
VERTEX
8
CUT
10
0
20
11.5
0
VERTEX
8
CUT
10
3.3
20
11.5
0
VERTEX
8
CUT
10
4.8416
20
12.3409
0
SEQEND
0
POLYLINE
8
CUT
66
1
70
0
0
VERTEX
8
CUT
10
6.1584
20
13.0591
0
VERTEX
8
CUT
10
7.7
20
13.9
0
VERTEX
8
CUT
10
14.3
20
13.9
0
VERTEX
8
CUT
10
15.8416
20
13.0591
0
SEQEND
0
POLYLINE
8
CUT
66
1
70
0
0
VERTEX
8
CUT
10
6.1584
20
12.3409
0
VERTEX
8
CUT
10
7.7
20
11.5
0
VERTEX
8
CUT
10
14.3
20
11.5
0
VERTEX
8
CUT
10
15.8416
20
12.3409
0
SEQEND
0
POLYLINE
8
CUT
66
1
70
0
0
VERTEX
8
CUT
10
17.1584
20
13.0591
0
VERTEX
8
CUT
10
18.7
20
13.9
0
VERTEX
8
CUT
10
25.3
20
13.9
0
VERTEX
8
CUT
10
26.8416
20
13.0591
0
SEQEND
0
POLYLINE
8
CUT
66
1
70
0
0
VERTEX
8
CUT
10
17.1584
20
12.3409
0
VERTEX
8
CUT
10
18.7
20
11.5
0
VERTEX
8
CUT
10
25.3
20
11.5
0
VERTEX
8
CUT
10
26.8416
20
12.3409
0
SEQEND
0
POLYLINE
8
CUT
66
1
70
0
0
VERTEX
8
CUT
10
28.1584
20
13.0591
0
VERTEX
8
CUT
10
29.7
20
13.9
0
VERTEX
8
CUT
10
36.3
20
13.9
0
VERTEX
8
CUT
10
37.8416
20
13.0591
0
SEQEND
0
POLYLINE
8
CUT
66
1
70
0
0
VERTEX
8
CUT
10
28.1584
20
12.3409
0
VERTEX
8
CUT
10
29.7
20
11.5
0
VERTEX
8
CUT
10
36.3
20
11.5
0
VERTEX
8
CUT
10
37.8416
20
12.3409
0
SEQEND
0
POLYLINE
8
CUT
66
1
70
0
0
VERTEX
8
CUT
10
39.1584
20
13.0591
0
VERTEX
8
CUT
10
40.7
20
13.9
0
VERTEX
8
CUT
10
47.3
20
13.9
0
VERTEX
8
CUT
10
48.8416
20
13.0591
0
SEQEND
0
POLYLINE
8
CUT
66
1
70
0
0
VERTEX
8
CUT
10
39.1584
20
12.3409
0
VERTEX
8
CUT
10
40.7
20
11.5
0
VERTEX
8
CUT
10
47.3
20
11.5
0
VERTEX
8
CUT
10
48.8416
20
12.3409
0
SEQEND
0
POLYLINE
8
CUT
66
1
70
0
0
VERTEX
8
CUT
10
50.1584
20
13.0591
0
VERTEX
8
CUT
10
51.7
20
13.9
0
VERTEX
8
CUT
10
58.3
20
13.9
0
VERTEX
8
CUT
10
59.8416
20
13.0591
0
SEQEND
0
POLYLINE
8
CUT
66
1
70
0
0
VERTEX
8
CUT
10
50.1584
20
12.3409
0
VERTEX
8
CUT
10
51.7
20
11.5
0
VERTEX
8
CUT
10
58.3
20
11.5
0
VERTEX
8
CUT
10
59.8416
20
12.3409
0
SEQEND
0
POLYLINE
8
CUT
66
1
70
0
0
VERTEX
8
CUT
10
61.1584
20
13.0591
0
VERTEX
8
CUT
10
62.7
20
13.9
0
VERTEX
8
CUT
10
69.3
20
13.9
0
VERTEX
8
CUT
10
70.8416
20
13.0591
0
SEQEND
0
POLYLINE
8
CUT
66
1
70
0
0
VERTEX
8
CUT
10
61.1584
20
12.3409
0
VERTEX
8
CUT
10
62.7
20
11.5
0
VERTEX
8
CUT
10
69.3
20
11.5
0
VERTEX
8
CUT
10
70.8416
20
12.3409
0
SEQEND
0
POLYLINE
8
CUT
66
1
70
0
0
VERTEX
8
CUT
10
72.1584
20
13.0591
0
VERTEX
8
CUT
10
73.7
20
13.9
0
VERTEX
8
CUT
10
80.3
20
13.9
0
VERTEX
8
CUT
10
81.8416
20
13.0591
0
SEQEND
0
POLYLINE
8
CUT
66
1
70
0
0
VERTEX
8
CUT
10
72.1584
20
12.3409
0
VERTEX
8
CUT
10
73.7
20
11.5
0
VERTEX
8
CUT
10
80.3
20
11.5
0
VERTEX
8
CUT
10
81.8416
20
12.3409
0
SEQEND
0
POLYLINE
8
CUT
66
1
70
0
0
VERTEX
8
CUT
10
83.1584
20
13.0591
0
VERTEX
8
CUT
10
84.7
20
13.9
0
VERTEX
8
CUT
10
91.3
20
13.9
0
VERTEX
8
CUT
10
92.8416
20
13.0591
0
SEQEND
0
POLYLINE
8
CUT
66
1
70
0
0
VERTEX
8
CUT
10
83.1584
20
12.3409
0
VERTEX
8
CUT
10
84.7
20
11.5
0
VERTEX
8
CUT
10
91.3
20
11.5
0
VERTEX
8
CUT
10
92.8416
20
12.3409
0
SEQEND
0
POLYLINE
8
CUT
66
1
70
0
0
VERTEX
8
CUT
10
94.1584
20
13.0591
0
VERTEX
8
CUT
10
95.7
20
13.9
0
VERTEX
8
CUT
10
102.3
20
13.9
0
VERTEX
8
CUT
10
103.8416
20
13.0591
0
SEQEND
0
POLYLINE
8
CUT
66
1
70
0
0
VERTEX
8
CUT
10
94.1584
20
12.3409
0
VERTEX
8
CUT
10
95.7
20
11.5
0
VERTEX
8
CUT
10
102.3
20
11.5
0
VERTEX
8
CUT
10
103.8416
20
12.3409
0
SEQEND
0
POLYLINE
8
CUT
66
1
70
0
0
VERTEX
8
CUT
10
105.1584
20
13.0591
0
VERTEX
8
CUT
10
106.7
20
13.9
0
VERTEX
8
CUT
10
113.3
20
13.9
0
VERTEX
8
CUT
10
114.8416
20
13.0591
0
SEQEND
0
POLYLINE
8
CUT
66
1
70
0
0
VERTEX
8
CUT
10
105.1584
20
12.3409
0
VERTEX
8
CUT
10
106.7
20
11.5
0
VERTEX
8
CUT
10
113.3
20
11.5
0
VERTEX
8
CUT
10
114.8416
20
12.3409
0
SEQEND
0
POLYLINE
8
CUT
66
1
70
0
0
VERTEX
8
CUT
10
116.1584
20
13.0591
0
VERTEX
8
CUT
10
117.7
20
13.9
0
VERTEX
8
CUT
10
120
20
13.9
0
SEQEND
0
POLYLINE
8
CUT
66
1
70
0
0
VERTEX
8
CUT
10
116.1584
20
12.3409
0
VERTEX
8
CUT
10
117.7
20
11.5
0
VERTEX
8
CUT
10
120
20
11.5
0
SEQEND
0
POLYLINE
8
CUT
66
1
70
0
0
VERTEX
8
CUT
10
0.6584
20
9.7591
0
VERTEX
8
CUT
10
2.2
20
10.6
0
VERTEX
8
CUT
10
8.8
20
10.6
0
VERTEX
8
CUT
10
10.3416
20
9.7591
0
SEQEND
0
POLYLINE
8
CUT
66
1
70
0
0
VERTEX
8
CUT
10
0.6584
20
9.0409
0
VERTEX
8
CUT
10
2.2
20
8.2
0
VERTEX
8
CUT
10
8.8
20
8.2
0
VERTEX
8
CUT
10
10.3416
20
9.0409
0
SEQEND
0
POLYLINE
8
CUT
66
1
70
0
0
VERTEX
8
CUT
10
11.6584
20
9.7591
0
VERTEX
8
CUT
10
13.2
20
10.6
0
VERTEX
8
CUT
10
19.8
20
10.6
0
VERTEX
8
CUT
10
21.3416
20
9.7591
0
SEQEND
0
POLYLINE
8
CUT
66
1
70
0
0
VERTEX
8
CUT
10
11.6584
20
9.0409
0
VERTEX
8
CUT
10
13.2
20
8.2
0
VERTEX
8
CUT
10
19.8
20
8.2
0
VERTEX
8
CUT
10
21.3416
20
9.0409
0
SEQEND
0
POLYLINE
8
CUT
66
1
70
0
0
VERTEX
8
CUT
10
22.6584
20
9.7591
0
VERTEX
8
CUT
10
24.2
20
10.6
0
VERTEX
8
CUT
10
30.8
20
10.6
0
VERTEX
8
CUT
10
32.3416
20
9.7591
0
SEQEND
0
POLYLINE
8
CUT
66
1
70
0
0
VERTEX
8
CUT
10
22.6584
20
9.0409
0
VERTEX
8
CUT
10
24.2
20
8.2
0
VERTEX
8
CUT
10
30.8
20
8.2
0
VERTEX
8
CUT
10
32.3416
20
9.0409
0
SEQEND
0
POLYLINE
8
CUT
66
1
70
0
0
VERTEX
8
CUT
10
33.6584
20
9.7591
0
VERTEX
8
CUT
10
35.2
20
10.6
0
VERTEX
8
CUT
10
41.8
20
10.6
0
VERTEX
8
CUT
10
43.3416
20
9.7591
0
SEQEND
0
POLYLINE
8
CUT
66
1
70
0
0
VERTEX
8
CUT
10
33.6584
20
9.0409
0
VERTEX
8
CUT
10
35.2
20
8.2
0
VERTEX
8
CUT
10
41.8
20
8.2
0
VERTEX
8
CUT
10
43.3416
20
9.0409
0
SEQEND
0
POLYLINE
8
CUT
66
1
70
0
0
VERTEX
8
CUT
10
44.6584
20
9.7591
0
VERTEX
8
CUT
10
46.2
20
10.6
0
VERTEX
8
CUT
10
52.8
20
10.6
0
VERTEX
8
CUT
10
54.3416
20
9.7591
0
SEQEND
0
POLYLINE
8
CUT
66
1
70
0
0
VERTEX
8
CUT
10
44.6584
20
9.0409
0
VERTEX
8
CUT
10
46.2
20
8.2
0
VERTEX
8
CUT
10
52.8
20
8.2
0
VERTEX
8
CUT
10
54.3416
20
9.0409
0
SEQEND
0
POLYLINE
8
CUT
66
1
70
0
0
VERTEX
8
CUT
10
55.6584
20
9.7591
0
VERTEX
8
CUT
10
57.2
20
10.6
0
VERTEX
8
CUT
10
63.8
20
10.6
0
VERTEX
8
CUT
10
65.3416
20
9.7591
0
SEQEND
0
POLYLINE
8
CUT
66
1
70
0
0
VERTEX
8
CUT
10
55.6584
20
9.0409
0
VERTEX
8
CUT
10
57.2
20
8.2
0
VERTEX
8
CUT
10
63.8
20
8.2
0
VERTEX
8
CUT
10
65.3416
20
9.0409
0
SEQEND
0
POLYLINE
8
CUT
66
1
70
0
0
VERTEX
8
CUT
10
66.6584
20
9.7591
0
VERTEX
8
CUT
10
68.2
20
10.6
0
VERTEX
8
CUT
10
74.8
20
10.6
0
VERTEX
8
CUT
10
76.3416
20
9.7591
0
SEQEND
0
POLYLINE
8
CUT
66
1
70
0
0
VERTEX
8
CUT
10
66.6584
20
9.0409
0
VERTEX
8
CUT
10
68.2
20
8.2
0
VERTEX
8
CUT
10
74.8
20
8.2
0
VERTEX
8
CUT
10
76.3416
20
9.0409
0
SEQEND
0
POLYLINE
8
CUT
66
1
70
0
0
VERTEX
8
CUT
10
77.6584
20
9.7591
0
VERTEX
8
CUT
10
79.2
20
10.6
0
VERTEX
8
CUT
10
85.8
20
10.6
0
VERTEX
8
CUT
10
87.3416
20
9.7591
0
SEQEND
0
POLYLINE
8
CUT
66
1
70
0
0
VERTEX
8
CUT
10
77.6584
20
9.0409
0
VERTEX
8
CUT
10
79.2
20
8.2
0
VERTEX
8
CUT
10
85.8
20
8.2
0
VERTEX
8
CUT
10
87.3416
20
9.0409
0
SEQEND
0
POLYLINE
8
CUT
66
1
70
0
0
VERTEX
8
CUT
10
88.6584
20
9.7591
0
VERTEX
8
CUT
10
90.2
20
10.6
0
VERTEX
8
CUT
10
96.8
20
10.6
0
VERTEX
8
CUT
10
98.3416
20
9.7591
0
SEQEND
0
POLYLINE
8
CUT
66
1
70
0
0
VERTEX
8
CUT
10
88.6584
20
9.0409
0
VERTEX
8
CUT
10
90.2
20
8.2
0
VERTEX
8
CUT
10
96.8
20
8.2
0
VERTEX
8
CUT
10
98.3416
20
9.0409
0
SEQEND
0
POLYLINE
8
CUT
66
1
70
0
0
VERTEX
8
CUT
10
99.6584
20
9.7591
0
VERTEX
8
CUT
10
101.2
20
10.6
0
VERTEX
8
CUT
10
107.8
20
10.6
0
VERTEX
8
CUT
10
109.3416
20
9.7591
0
SEQEND
0
POLYLINE
8
CUT
66
1
70
0
0
VERTEX
8
CUT
10
99.6584
20
9.0409
0
VERTEX
8
CUT
10
101.2
20
8.2
0
VERTEX
8
CUT
10
107.8
20
8.2
0
VERTEX
8
CUT
10
109.3416
20
9.0409
0
SEQEND
0
POLYLINE
8
CUT
66
1
70
0
0
VERTEX
8
CUT
10
110.6584
20
9.7591
0
VERTEX
8
CUT
10
112.2
20
10.6
0
VERTEX
8
CUT
10
118.8
20
10.6
0
VERTEX
8
CUT
10
120
20
9.9455
0
SEQEND
0
POLYLINE
8
CUT
66
1
70
0
0
VERTEX
8
CUT
10
110.6584
20
9.0409
0
VERTEX
8
CUT
10
112.2
20
8.2
0
VERTEX
8
CUT
10
118.8
20
8.2
0
VERTEX
8
CUT
10
120
20
8.8545
0
SEQEND
0
POLYLINE
8
CUT
66
1
70
0
0
VERTEX
8
CUT
10
0
20
7.3
0
VERTEX
8
CUT
10
3.3
20
7.3
0
VERTEX
8
CUT
10
4.8416
20
6.4591
0
SEQEND
0
POLYLINE
8
CUT
66
1
70
0
0
VERTEX
8
CUT
10
0
20
4.9
0
VERTEX
8
CUT
10
3.3
20
4.9
0
VERTEX
8
CUT
10
4.8416
20
5.7409
0
SEQEND
0
POLYLINE
8
CUT
66
1
70
0
0
VERTEX
8
CUT
10
6.1584
20
6.4591
0
VERTEX
8
CUT
10
7.7
20
7.3
0
VERTEX
8
CUT
10
14.3
20
7.3
0
VERTEX
8
CUT
10
15.8416
20
6.4591
0
SEQEND
0
POLYLINE
8
CUT
66
1
70
0
0
VERTEX
8
CUT
10
6.1584
20
5.7409
0
VERTEX
8
CUT
10
7.7
20
4.9
0
VERTEX
8
CUT
10
14.3
20
4.9
0
VERTEX
8
CUT
10
15.8416
20
5.7409
0
SEQEND
0
POLYLINE
8
CUT
66
1
70
0
0
VERTEX
8
CUT
10
17.1584
20
6.4591
0
VERTEX
8
CUT
10
18.7
20
7.3
0
VERTEX
8
CUT
10
25.3
20
7.3
0
VERTEX
8
CUT
10
26.8416
20
6.4591
0
SEQEND
0
POLYLINE
8
CUT
66
1
70
0
0
VERTEX
8
CUT
10
17.1584
20
5.7409
0
VERTEX
8
CUT
10
18.7
20
4.9
0
VERTEX
8
CUT
10
25.3
20
4.9
0
VERTEX
8
CUT
10
26.8416
20
5.7409
0
SEQEND
0
POLYLINE
8
CUT
66
1
70
0
0
VERTEX
8
CUT
10
28.1584
20
6.4591
0
VERTEX
8
CUT
10
29.7
20
7.3
0
VERTEX
8
CUT
10
36.3
20
7.3
0
VERTEX
8
CUT
10
37.8416
20
6.4591
0
SEQEND
0
POLYLINE
8
CUT
66
1
70
0
0
VERTEX
8
CUT
10
28.1584
20
5.7409
0
VERTEX
8
CUT
10
29.7
20
4.9
0
VERTEX
8
CUT
10
36.3
20
4.9
0
VERTEX
8
CUT
10
37.8416
20
5.7409
0
SEQEND
0
POLYLINE
8
CUT
66
1
70
0
0
VERTEX
8
CUT
10
39.1584
20
6.4591
0
VERTEX
8
CUT
10
40.7
20
7.3
0
VERTEX
8
CUT
10
47.3
20
7.3
0
VERTEX
8
CUT
10
48.8416
20
6.4591
0
SEQEND
0
POLYLINE
8
CUT
66
1
70
0
0
VERTEX
8
CUT
10
39.1584
20
5.7409
0
VERTEX
8
CUT
10
40.7
20
4.9
0
VERTEX
8
CUT
10
47.3
20
4.9
0
VERTEX
8
CUT
10
48.8416
20
5.7409
0
SEQEND
0
POLYLINE
8
CUT
66
1
70
0
0
VERTEX
8
CUT
10
50.1584
20
6.4591
0
VERTEX
8
CUT
10
51.7
20
7.3
0
VERTEX
8
CUT
10
58.3
20
7.3
0
VERTEX
8
CUT
10
59.8416
20
6.4591
0
SEQEND
0
POLYLINE
8
CUT
66
1
70
0
0
VERTEX
8
CUT
10
50.1584
20
5.7409
0
VERTEX
8
CUT
10
51.7
20
4.9
0
VERTEX
8
CUT
10
58.3
20
4.9
0
VERTEX
8
CUT
10
59.8416
20
5.7409
0
SEQEND
0
POLYLINE
8
CUT
66
1
70
0
0
VERTEX
8
CUT
10
61.1584
20
6.4591
0
VERTEX
8
CUT
10
62.7
20
7.3
0
VERTEX
8
CUT
10
69.3
20
7.3
0
VERTEX
8
CUT
10
70.8416
20
6.4591
0
SEQEND
0
POLYLINE
8
CUT
66
1
70
0
0
VERTEX
8
CUT
10
61.1584
20
5.7409
0
VERTEX
8
CUT
10
62.7
20
4.9
0
VERTEX
8
CUT
10
69.3
20
4.9
0
VERTEX
8
CUT
10
70.8416
20
5.7409
0
SEQEND
0
POLYLINE
8
CUT
66
1
70
0
0
VERTEX
8
CUT
10
72.1584
20
6.4591
0
VERTEX
8
CUT
10
73.7
20
7.3
0
VERTEX
8
CUT
10
80.3
20
7.3
0
VERTEX
8
CUT
10
81.8416
20
6.4591
0
SEQEND
0
POLYLINE
8
CUT
66
1
70
0
0
VERTEX
8
CUT
10
72.1584
20
5.7409
0
VERTEX
8
CUT
10
73.7
20
4.9
0
VERTEX
8
CUT
10
80.3
20
4.9
0
VERTEX
8
CUT
10
81.8416
20
5.7409
0
SEQEND
0
POLYLINE
8
CUT
66
1
70
0
0
VERTEX
8
CUT
10
83.1584
20
6.4591
0
VERTEX
8
CUT
10
84.7
20
7.3
0
VERTEX
8
CUT
10
91.3
20
7.3
0
VERTEX
8
CUT
10
92.8416
20
6.4591
0
SEQEND
0
POLYLINE
8
CUT
66
1
70
0
0
VERTEX
8
CUT
10
83.1584
20
5.7409
0
VERTEX
8
CUT
10
84.7
20
4.9
0
VERTEX
8
CUT
10
91.3
20
4.9
0
VERTEX
8
CUT
10
92.8416
20
5.7409
0
SEQEND
0
POLYLINE
8
CUT
66
1
70
0
0
VERTEX
8
CUT
10
94.1584
20
6.4591
0
VERTEX
8
CUT
10
95.7
20
7.3
0
VERTEX
8
CUT
10
102.3
20
7.3
0
VERTEX
8
CUT
10
103.8416
20
6.4591
0
SEQEND
0
POLYLINE
8
CUT
66
1
70
0
0
VERTEX
8
CUT
10
94.1584
20
5.7409
0
VERTEX
8
CUT
10
95.7
20
4.9
0
VERTEX
8
CUT
10
102.3
20
4.9
0
VERTEX
8
CUT
10
103.8416
20
5.7409
0
SEQEND
0
POLYLINE
8
CUT
66
1
70
0
0
VERTEX
8
CUT
10
105.1584
20
6.4591
0
VERTEX
8
CUT
10
106.7
20
7.3
0
VERTEX
8
CUT
10
113.3
20
7.3
0
VERTEX
8
CUT
10
114.8416
20
6.4591
0
SEQEND
0
POLYLINE
8
CUT
66
1
70
0
0
VERTEX
8
CUT
10
105.1584
20
5.7409
0
VERTEX
8
CUT
10
106.7
20
4.9
0
VERTEX
8
CUT
10
113.3
20
4.9
0
VERTEX
8
CUT
10
114.8416
20
5.7409
0
SEQEND
0
POLYLINE
8
CUT
66
1
70
0
0
VERTEX
8
CUT
10
116.1584
20
6.4591
0
VERTEX
8
CUT
10
117.7
20
7.3
0
VERTEX
8
CUT
10
120
20
7.3
0
SEQEND
0
POLYLINE
8
CUT
66
1
70
0
0
VERTEX
8
CUT
10
116.1584
20
5.7409
0
VERTEX
8
CUT
10
117.7
20
4.9
0
VERTEX
8
CUT
10
120
20
4.9
0
SEQEND
0
POLYLINE
8
CUT
66
1
70
0
0
VERTEX
8
CUT
10
0.6584
20
3.1591
0
VERTEX
8
CUT
10
2.2
20
4
0
VERTEX
8
CUT
10
8.8
20
4
0
VERTEX
8
CUT
10
10.3416
20
3.1591
0
SEQEND
0
POLYLINE
8
CUT
66
1
70
0
0
VERTEX
8
CUT
10
0.6584
20
2.4409
0
VERTEX
8
CUT
10
2.2
20
1.6
0
VERTEX
8
CUT
10
8.8
20
1.6
0
VERTEX
8
CUT
10
10.3416
20
2.4409
0
SEQEND
0
POLYLINE
8
CUT
66
1
70
0
0
VERTEX
8
CUT
10
11.6584
20
3.1591
0
VERTEX
8
CUT
10
13.2
20
4
0
VERTEX
8
CUT
10
19.8
20
4
0
VERTEX
8
CUT
10
21.3416
20
3.1591
0
SEQEND
0
POLYLINE
8
CUT
66
1
70
0
0
VERTEX
8
CUT
10
11.6584
20
2.4409
0
VERTEX
8
CUT
10
13.2
20
1.6
0
VERTEX
8
CUT
10
19.8
20
1.6
0
VERTEX
8
CUT
10
21.3416
20
2.4409
0
SEQEND
0
POLYLINE
8
CUT
66
1
70
0
0
VERTEX
8
CUT
10
22.6584
20
3.1591
0
VERTEX
8
CUT
10
24.2
20
4
0
VERTEX
8
CUT
10
30.8
20
4
0
VERTEX
8
CUT
10
32.3416
20
3.1591
0
SEQEND
0
POLYLINE
8
CUT
66
1
70
0
0
VERTEX
8
CUT
10
22.6584
20
2.4409
0
VERTEX
8
CUT
10
24.2
20
1.6
0
VERTEX
8
CUT
10
30.8
20
1.6
0
VERTEX
8
CUT
10
32.3416
20
2.4409
0
SEQEND
0
POLYLINE
8
CUT
66
1
70
0
0
VERTEX
8
CUT
10
33.6584
20
3.1591
0
VERTEX
8
CUT
10
35.2
20
4
0
VERTEX
8
CUT
10
41.8
20
4
0
VERTEX
8
CUT
10
43.3416
20
3.1591
0
SEQEND
0
POLYLINE
8
CUT
66
1
70
0
0
VERTEX
8
CUT
10
33.6584
20
2.4409
0
VERTEX
8
CUT
10
35.2
20
1.6
0
VERTEX
8
CUT
10
41.8
20
1.6
0
VERTEX
8
CUT
10
43.3416
20
2.4409
0
SEQEND
0
POLYLINE
8
CUT
66
1
70
0
0
VERTEX
8
CUT
10
44.6584
20
3.1591
0
VERTEX
8
CUT
10
46.2
20
4
0
VERTEX
8
CUT
10
52.8
20
4
0
VERTEX
8
CUT
10
54.3416
20
3.1591
0
SEQEND
0
POLYLINE
8
CUT
66
1
70
0
0
VERTEX
8
CUT
10
44.6584
20
2.4409
0
VERTEX
8
CUT
10
46.2
20
1.6
0
VERTEX
8
CUT
10
52.8
20
1.6
0
VERTEX
8
CUT
10
54.3416
20
2.4409
0
SEQEND
0
POLYLINE
8
CUT
66
1
70
0
0
VERTEX
8
CUT
10
55.6584
20
3.1591
0
VERTEX
8
CUT
10
57.2
20
4
0
VERTEX
8
CUT
10
63.8
20
4
0
VERTEX
8
CUT
10
65.3416
20
3.1591
0
SEQEND
0
POLYLINE
8
CUT
66
1
70
0
0
VERTEX
8
CUT
10
55.6584
20
2.4409
0
VERTEX
8
CUT
10
57.2
20
1.6
0
VERTEX
8
CUT
10
63.8
20
1.6
0
VERTEX
8
CUT
10
65.3416
20
2.4409
0
SEQEND
0
POLYLINE
8
CUT
66
1
70
0
0
VERTEX
8
CUT
10
66.6584
20
3.1591
0
VERTEX
8
CUT
10
68.2
20
4
0
VERTEX
8
CUT
10
74.8
20
4
0
VERTEX
8
CUT
10
76.3416
20
3.1591
0
SEQEND
0
POLYLINE
8
CUT
66
1
70
0
0
VERTEX
8
CUT
10
66.6584
20
2.4409
0
VERTEX
8
CUT
10
68.2
20
1.6
0
VERTEX
8
CUT
10
74.8
20
1.6
0
VERTEX
8
CUT
10
76.3416
20
2.4409
0
SEQEND
0
POLYLINE
8
CUT
66
1
70
0
0
VERTEX
8
CUT
10
77.6584
20
3.1591
0
VERTEX
8
CUT
10
79.2
20
4
0
VERTEX
8
CUT
10
85.8
20
4
0
VERTEX
8
CUT
10
87.3416
20
3.1591
0
SEQEND
0
POLYLINE
8
CUT
66
1
70
0
0
VERTEX
8
CUT
10
77.6584
20
2.4409
0
VERTEX
8
CUT
10
79.2
20
1.6
0
VERTEX
8
CUT
10
85.8
20
1.6
0
VERTEX
8
CUT
10
87.3416
20
2.4409
0
SEQEND
0
POLYLINE
8
CUT
66
1
70
0
0
VERTEX
8
CUT
10
88.6584
20
3.1591
0
VERTEX
8
CUT
10
90.2
20
4
0
VERTEX
8
CUT
10
96.8
20
4
0
VERTEX
8
CUT
10
98.3416
20
3.1591
0
SEQEND
0
POLYLINE
8
CUT
66
1
70
0
0
VERTEX
8
CUT
10
88.6584
20
2.4409
0
VERTEX
8
CUT
10
90.2
20
1.6
0
VERTEX
8
CUT
10
96.8
20
1.6
0
VERTEX
8
CUT
10
98.3416
20
2.4409
0
SEQEND
0
POLYLINE
8
CUT
66
1
70
0
0
VERTEX
8
CUT
10
99.6584
20
3.1591
0
VERTEX
8
CUT
10
101.2
20
4
0
VERTEX
8
CUT
10
107.8
20
4
0
VERTEX
8
CUT
10
109.3416
20
3.1591
0
SEQEND
0
POLYLINE
8
CUT
66
1
70
0
0
VERTEX
8
CUT
10
99.6584
20
2.4409
0
VERTEX
8
CUT
10
101.2
20
1.6
0
VERTEX
8
CUT
10
107.8
20
1.6
0
VERTEX
8
CUT
10
109.3416
20
2.4409
0
SEQEND
0
POLYLINE
8
CUT
66
1
70
0
0
VERTEX
8
CUT
10
110.6584
20
3.1591
0
VERTEX
8
CUT
10
112.2
20
4
0
VERTEX
8
CUT
10
118.8
20
4
0
VERTEX
8
CUT
10
120
20
3.3455
0
SEQEND
0
POLYLINE
8
CUT
66
1
70
0
0
VERTEX
8
CUT
10
110.6584
20
2.4409
0
VERTEX
8
CUT
10
112.2
20
1.6
0
VERTEX
8
CUT
10
118.8
20
1.6
0
VERTEX
8
CUT
10
120
20
2.2545
0
SEQEND
0
POLYLINE
8
CUT
66
1
70
0
0
VERTEX
8
CUT
10
0
20
0.7
0
VERTEX
8
CUT
10
3.3
20
0.7
0
VERTEX
8
CUT
10
4.5833
20
0
0
SEQEND
0
POLYLINE
8
CUT
66
1
70
0
0
VERTEX
8
CUT
10
6.4167
20
0
0
VERTEX
8
CUT
10
7.7
20
0.7
0
VERTEX
8
CUT
10
14.3
20
0.7
0
VERTEX
8
CUT
10
15.5833
20
0
0
SEQEND
0
POLYLINE
8
CUT
66
1
70
0
0
VERTEX
8
CUT
10
17.4167
20
0
0
VERTEX
8
CUT
10
18.7
20
0.7
0
VERTEX
8
CUT
10
25.3
20
0.7
0
VERTEX
8
CUT
10
26.5833
20
0
0
SEQEND
0
POLYLINE
8
CUT
66
1
70
0
0
VERTEX
8
CUT
10
28.4167
20
0
0
VERTEX
8
CUT
10
29.7
20
0.7
0
VERTEX
8
CUT
10
36.3
20
0.7
0
VERTEX
8
CUT
10
37.5833
20
0
0
SEQEND
0
POLYLINE
8
CUT
66
1
70
0
0
VERTEX
8
CUT
10
39.4167
20
0
0
VERTEX
8
CUT
10
40.7
20
0.7
0
VERTEX
8
CUT
10
47.3
20
0.7
0
VERTEX
8
CUT
10
48.5833
20
0
0
SEQEND
0
POLYLINE
8
CUT
66
1
70
0
0
VERTEX
8
CUT
10
50.4167
20
0
0
VERTEX
8
CUT
10
51.7
20
0.7
0
VERTEX
8
CUT
10
58.3
20
0.7
0
VERTEX
8
CUT
10
59.5833
20
0
0
SEQEND
0
POLYLINE
8
CUT
66
1
70
0
0
VERTEX
8
CUT
10
61.4167
20
0
0
VERTEX
8
CUT
10
62.7
20
0.7
0
VERTEX
8
CUT
10
69.3
20
0.7
0
VERTEX
8
CUT
10
70.5833
20
0
0
SEQEND
0
POLYLINE
8
CUT
66
1
70
0
0
VERTEX
8
CUT
10
72.4167
20
0
0
VERTEX
8
CUT
10
73.7
20
0.7
0
VERTEX
8
CUT
10
80.3
20
0.7
0
VERTEX
8
CUT
10
81.5833
20
0
0
SEQEND
0
POLYLINE
8
CUT
66
1
70
0
0
VERTEX
8
CUT
10
83.4167
20
0
0
VERTEX
8
CUT
10
84.7
20
0.7
0
VERTEX
8
CUT
10
91.3
20
0.7
0
VERTEX
8
CUT
10
92.5833
20
0
0
SEQEND
0
POLYLINE
8
CUT
66
1
70
0
0
VERTEX
8
CUT
10
94.4167
20
0
0
VERTEX
8
CUT
10
95.7
20
0.7
0
VERTEX
8
CUT
10
102.3
20
0.7
0
VERTEX
8
CUT
10
103.5833
20
0
0
SEQEND
0
POLYLINE
8
CUT
66
1
70
0
0
VERTEX
8
CUT
10
105.4167
20
0
0
VERTEX
8
CUT
10
106.7
20
0.7
0
VERTEX
8
CUT
10
113.3
20
0.7
0
VERTEX
8
CUT
10
114.5833
20
0
0
SEQEND
0
POLYLINE
8
CUT
66
1
70
0
0
VERTEX
8
CUT
10
116.4167
20
0
0
VERTEX
8
CUT
10
117.7
20
0.7
0
VERTEX
8
CUT
10
120
20
0.7
0
SEQEND
0
POLYLINE
8
CUT
66
1
70
0
0
VERTEX
8
CUT
10
0
20
70
0
VERTEX
8
CUT
10
120
20
70
0
VERTEX
8
CUT
10
120
20
0
0
VERTEX
8
CUT
10
0
20
0
0
VERTEX
8
CUT
10
0
20
70
0
SEQEND
0
ENDSEC
0
EOF
