0
SECTION
2
HEADER
9
$ACADVER
1
AC1009
9
$INSUNITS
70
4
0
ENDSEC
0
SECTION
2
TABLES
0
TABLE
2
LAYER
70
1
0
LAYER
2
CUT
70
0
62
1
6
CONTINUOUS
0
ENDTAB
0
ENDSEC
0
SECTION
2
ENTITIES
0
LINE
8
CUT
10
0
20
55.4115
11
6.2679
21
55.4115
0
LINE
8
CUT
10
6.7679
20
56.2776
11
0.5
21
67.134
0
POLYLINE
8
CUT
66
1
70
0
0
VERTEX
8
CUT
10
1
20
56.4115
0
VERTEX
8
CUT
10
5.5359
20
56.4115
0
VERTEX
8
CUT
10
3.2679
20
60.3397
0
SEQEND
0
POLYLINE
8
CUT
66
1
70
0
0
VERTEX
8
CUT
10
2.2679
20
62.0718
0
VERTEX
8
CUT
10
0
20
66
0
VERTEX
8
CUT
10
0
20
66
0
SEQEND
0
LINE
8
CUT
10
0
20
57.4115
11
2.8038
21
57.4115
0
LINE
8
CUT
10
3.3038
20
58.2776
11
0.5
21
63.134
0
POLYLINE
8
CUT
66
1
70
0
0
VERTEX
8
CUT
10
1
20
58.4115
0
VERTEX
8
CUT
10
2.0718
20
58.4115
0
VERTEX
8
CUT
10
1.5359
20
59.3397
0
SEQEND
0
POLYLINE
8
CUT
66
1
70
0
0
VERTEX
8
CUT
10
0.5359
20
61.0718
0
VERTEX
8
CUT
10
0
20
62
0
VERTEX
8
CUT
10
0
20
62
0
SEQEND
0
LINE
8
CUT
10
2.7321
20
69
11
15.2679
21
69
0
LINE
8
CUT
10
15.7679
20
68.134
11
9.5
21
57.2776
0
LINE
8
CUT
10
8.5
20
57.2776
11
2.2321
21
68.134
0
POLYLINE
8
CUT
66
1
70
0
0
VERTEX
8
CUT
10
5.7321
20
64.0718
0
VERTEX
8
CUT
10
3.4641
20
68
0
VERTEX
8
CUT
10
8
20
68
0
SEQEND
0
POLYLINE
8
CUT
66
1
70
0
0
VERTEX
8
CUT
10
10
20
68
0
VERTEX
8
CUT
10
14.5359
20
68
0
VERTEX
8
CUT
10
12.2679
20
64.0718
0
SEQEND
0
POLYLINE
8
CUT
66
1
70
0
0
VERTEX
8
CUT
10
11.2679
20
62.3397
0
VERTEX
8
CUT
10
9
20
58.4115
0
VERTEX
8
CUT
10
6.7321
20
62.3397
0
SEQEND
0
LINE
8
CUT
10
6.1962
20
67
11
11.8038
21
67
0
LINE
8
CUT
10
12.3038
20
66.134
11
9.5
21
61.2776
0
LINE
8
CUT
10
8.5
20
61.2776
11
5.6962
21
66.134
0
POLYLINE
8
CUT
66
1
70
0
0
VERTEX
8
CUT
10
7.4641
20
65.0718
0
VERTEX
8
CUT
10
6.9282
20
66
0
VERTEX
8
CUT
10
8
20
66
0
SEQEND
0
POLYLINE
8
CUT
66
1
70
0
0
VERTEX
8
CUT
10
10
20
66
0
VERTEX
8
CUT
10
11.0718
20
66
0
VERTEX
8
CUT
10
10.5359
20
65.0718
0
SEQEND
0
POLYLINE
8
CUT
66
1
70
0
0
VERTEX
8
CUT
10
9.5359
20
63.3397
0
VERTEX
8
CUT
10
9
20
62.4115
0
VERTEX
8
CUT
10
8.4641
20
63.3397
0
SEQEND
0
LINE
8
CUT
10
11.7321
20
55.4115
11
24.2679
21
55.4115
0
LINE
8
CUT
10
24.7679
20
56.2776
11
18.5
21
67.134
0
LINE
8
CUT
10
17.5
20
67.134
11
11.2321
21
56.2776
0
POLYLINE
8
CUT
66
1
70
0
0
VERTEX
8
CUT
10
14.7321
20
60.3397
0
VERTEX
8
CUT
10
12.4641
20
56.4115
0
VERTEX
8
CUT
10
17
20
56.4115
0
SEQEND
0
POLYLINE
8
CUT
66
1
70
0
0
VERTEX
8
CUT
10
19
20
56.4115
0
VERTEX
8
CUT
10
23.5359
20
56.4115
0
VERTEX
8
CUT
10
21.2679
20
60.3397
0
SEQEND
0
POLYLINE
8
CUT
66
1
70
0
0
VERTEX
8
CUT
10
20.2679
20
62.0718
0
VERTEX
8
CUT
10
18
20
66
0
VERTEX
8
CUT
10
15.7321
20
62.0718
0
SEQEND
0
LINE
8
CUT
10
15.1962
20
57.4115
11
20.8038
21
57.4115
0
LINE
8
CUT
10
21.3038
20
58.2776
11
18.5
21
63.134
0
LINE
8
CUT
10
17.5
20
63.134
11
14.6962
21
58.2776
0
POLYLINE
8
CUT
66
1
70
0
0
VERTEX
8
CUT
10
16.4641
20
59.3397
0
VERTEX
8
CUT
10
15.9282
20
58.4115
0
VERTEX
8
CUT
10
17
20
58.4115
0
SEQEND
0
POLYLINE
8
CUT
66
1
70
0
0
VERTEX
8
CUT
10
19
20
58.4115
0
VERTEX
8
CUT
10
20.0718
20
58.4115
0
VERTEX
8
CUT
10
19.5359
20
59.3397
0
SEQEND
0
POLYLINE
8
CUT
66
1
70
0
0
VERTEX
8
CUT
10
18.5359
20
61.0718
0
VERTEX
8
CUT
10
18
20
62
0
VERTEX
8
CUT
10
17.4641
20
61.0718
0
SEQEND
0
LINE
8
CUT
10
20.7321
20
69
11
33.2679
21
69
0
LINE
8
CUT
10
33.7679
20
68.134
11
27.5
21
57.2776
0
LINE
8
CUT
10
26.5
20
57.2776
11
20.2321
21
68.134
0
POLYLINE
8
CUT
66
1
70
0
0
VERTEX
8
CUT
10
23.7321
20
64.0718
0
VERTEX
8
CUT
10
21.4641
20
68
0
VERTEX
8
CUT
10
26
20
68
0
SEQEND
0
POLYLINE
8
CUT
66
1
70
0
0
VERTEX
8
CUT
10
28
20
68
0
VERTEX
8
CUT
10
32.5359
20
68
0
VERTEX
8
CUT
10
30.2679
20
64.0718
0
SEQEND
0
POLYLINE
8
CUT
66
1
70
0
0
VERTEX
8
CUT
10
29.2679
20
62.3397
0
VERTEX
8
CUT
10
27
20
58.4115
0
VERTEX
8
CUT
10
24.7321
20
62.3397
0
SEQEND
0
LINE
8
CUT
10
24.1962
20
67
11
29.8038
21
67
0
LINE
8
CUT
10
30.3038
20
66.134
11
27.5
21
61.2776
0
LINE
8
CUT
10
26.5
20
61.2776
11
23.6962
21
66.134
0
POLYLINE
8
CUT
66
1
70
0
0
VERTEX
8
CUT
10
25.4641
20
65.0718
0
VERTEX
8
CUT
10
24.9282
20
66
0
VERTEX
8
CUT
10
26
20
66
0
SEQEND
0
POLYLINE
8
CUT
66
1
70
0
0
VERTEX
8
CUT
10
28
20
66
0
VERTEX
8
CUT
10
29.0718
20
66
0
VERTEX
8
CUT
10
28.5359
20
65.0718
0
SEQEND
0
POLYLINE
8
CUT
66
1
70
0
0
VERTEX
8
CUT
10
27.5359
20
63.3397
0
VERTEX
8
CUT
10
27
20
62.4115
0
VERTEX
8
CUT
10
26.4641
20
63.3397
0
SEQEND
0
LINE
8
CUT
10
29.7321
20
55.4115
11
42.2679
21
55.4115
0
LINE
8
CUT
10
42.7679
20
56.2776
11
36.5
21
67.134
0
LINE
8
CUT
10
35.5
20
67.134
11
29.2321
21
56.2776
0
POLYLINE
8
CUT
66
1
70
0
0
VERTEX
8
CUT
10
32.7321
20
60.3397
0
VERTEX
8
CUT
10
30.4641
20
56.4115
0
VERTEX
8
CUT
10
35
20
56.4115
0
SEQEND
0
POLYLINE
8
CUT
66
1
70
0
0
VERTEX
8
CUT
10
37
20
56.4115
0
VERTEX
8
CUT
10
41.5359
20
56.4115
0
VERTEX
8
CUT
10
39.2679
20
60.3397
0
SEQEND
0
POLYLINE
8
CUT
66
1
70
0
0
VERTEX
8
CUT
10
38.2679
20
62.0718
0
VERTEX
8
CUT
10
36
20
66
0
VERTEX
8
CUT
10
33.7321
20
62.0718
0
SEQEND
0
LINE
8
CUT
10
33.1962
20
57.4115
11
38.8038
21
57.4115
0
LINE
8
CUT
10
39.3038
20
58.2776
11
36.5
21
63.134
0
LINE
8
CUT
10
35.5
20
63.134
11
32.6962
21
58.2776
0
POLYLINE
8
CUT
66
1
70
0
0
VERTEX
8
CUT
10
34.4641
20
59.3397
0
VERTEX
8
CUT
10
33.9282
20
58.4115
0
VERTEX
8
CUT
10
35
20
58.4115
0
SEQEND
0
POLYLINE
8
CUT
66
1
70
0
0
VERTEX
8
CUT
10
37
20
58.4115
0
VERTEX
8
CUT
10
38.0718
20
58.4115
0
VERTEX
8
CUT
10
37.5359
20
59.3397
0
SEQEND
0
POLYLINE
8
CUT
66
1
70
0
0
VERTEX
8
CUT
10
36.5359
20
61.0718
0
VERTEX
8
CUT
10
36
20
62
0
VERTEX
8
CUT
10
35.4641
20
61.0718
0
SEQEND
0
LINE
8
CUT
10
38.7321
20
69
11
51.2679
21
69
0
LINE
8
CUT
10
51.7679
20
68.134
11
45.5
21
57.2776
0
LINE
8
CUT
10
44.5
20
57.2776
11
38.2321
21
68.134
0
POLYLINE
8
CUT
66
1
70
0
0
VERTEX
8
CUT
10
41.7321
20
64.0718
0
VERTEX
8
CUT
10
39.4641
20
68
0
VERTEX
8
CUT
10
44
20
68
0
SEQEND
0
POLYLINE
8
CUT
66
1
70
0
0
VERTEX
8
CUT
10
46
20
68
0
VERTEX
8
CUT
10
50.5359
20
68
0
VERTEX
8
CUT
10
48.2679
20
64.0718
0
SEQEND
0
POLYLINE
8
CUT
66
1
70
0
0
VERTEX
8
CUT
10
47.2679
20
62.3397
0
VERTEX
8
CUT
10
45
20
58.4115
0
VERTEX
8
CUT
10
42.7321
20
62.3397
0
SEQEND
0
LINE
8
CUT
10
42.1962
20
67
11
47.8038
21
67
0
LINE
8
CUT
10
48.3038
20
66.134
11
45.5
21
61.2776
0
LINE
8
CUT
10
44.5
20
61.2776
11
41.6962
21
66.134
0
POLYLINE
8
CUT
66
1
70
0
0
VERTEX
8
CUT
10
43.4641
20
65.0718
0
VERTEX
8
CUT
10
42.9282
20
66
0
VERTEX
8
CUT
10
44
20
66
0
SEQEND
0
POLYLINE
8
CUT
66
1
70
0
0
VERTEX
8
CUT
10
46
20
66
0
VERTEX
8
CUT
10
47.0718
20
66
0
VERTEX
8
CUT
10
46.5359
20
65.0718
0
SEQEND
0
POLYLINE
8
CUT
66
1
70
0
0
VERTEX
8
CUT
10
45.5359
20
63.3397
0
VERTEX
8
CUT
10
45
20
62.4115
0
VERTEX
8
CUT
10
44.4641
20
63.3397
0
SEQEND
0
LINE
8
CUT
10
47.7321
20
55.4115
11
60.2679
21
55.4115
0
LINE
8
CUT
10
60.7679
20
56.2776
11
54.5
21
67.134
0
LINE
8
CUT
10
53.5
20
67.134
11
47.2321
21
56.2776
0
POLYLINE
8
CUT
66
1
70
0
0
VERTEX
8
CUT
10
50.7321
20
60.3397
0
VERTEX
8
CUT
10
48.4641
20
56.4115
0
VERTEX
8
CUT
10
53
20
56.4115
0
SEQEND
0
POLYLINE
8
CUT
66
1
70
0
0
VERTEX
8
CUT
10
55
20
56.4115
0
VERTEX
8
CUT
10
59.5359
20
56.4115
0
VERTEX
8
CUT
10
57.2679
20
60.3397
0
SEQEND
0
POLYLINE
8
CUT
66
1
70
0
0
VERTEX
8
CUT
10
56.2679
20
62.0718
0
VERTEX
8
CUT
10
54
20
66
0
VERTEX
8
CUT
10
51.7321
20
62.0718
0
SEQEND
0
LINE
8
CUT
10
51.1962
20
57.4115
11
56.8038
21
57.4115
0
LINE
8
CUT
10
57.3038
20
58.2776
11
54.5
21
63.134
0
LINE
8
CUT
10
53.5
20
63.134
11
50.6962
21
58.2776
0
POLYLINE
8
CUT
66
1
70
0
0
VERTEX
8
CUT
10
52.4641
20
59.3397
0
VERTEX
8
CUT
10
51.9282
20
58.4115
0
VERTEX
8
CUT
10
53
20
58.4115
0
SEQEND
0
POLYLINE
8
CUT
66
1
70
0
0
VERTEX
8
CUT
10
55
20
58.4115
0
VERTEX
8
CUT
10
56.0718
20
58.4115
0
VERTEX
8
CUT
10
55.5359
20
59.3397
0
SEQEND
0
POLYLINE
8
CUT
66
1
70
0
0
VERTEX
8
CUT
10
54.5359
20
61.0718
0
VERTEX
8
CUT
10
54
20
62
0
VERTEX
8
CUT
10
53.4641
20
61.0718
0
SEQEND
0
LINE
8
CUT
10
56.7321
20
69
11
69.2679
21
69
0
LINE
8
CUT
10
69.7679
20
68.134
11
63.5
21
57.2776
0
LINE
8
CUT
10
62.5
20
57.2776
11
56.2321
21
68.134
0
POLYLINE
8
CUT
66
1
70
0
0
VERTEX
8
CUT
10
59.7321
20
64.0718
0
VERTEX
8
CUT
10
57.4641
20
68
0
VERTEX
8
CUT
10
62
20
68
0
SEQEND
0
POLYLINE
8
CUT
66
1
70
0
0
VERTEX
8
CUT
10
64
20
68
0
VERTEX
8
CUT
10
68.5359
20
68
0
VERTEX
8
CUT
10
66.2679
20
64.0718
0
SEQEND
0
POLYLINE
8
CUT
66
1
70
0
0
VERTEX
8
CUT
10
65.2679
20
62.3397
0
VERTEX
8
CUT
10
63
20
58.4115
0
VERTEX
8
CUT
10
60.7321
20
62.3397
0
SEQEND
0
LINE
8
CUT
10
60.1962
20
67
11
65.8038
21
67
0
LINE
8
CUT
10
66.3038
20
66.134
11
63.5
21
61.2776
0
LINE
8
CUT
10
62.5
20
61.2776
11
59.6962
21
66.134
0
POLYLINE
8
CUT
66
1
70
0
0
VERTEX
8
CUT
10
61.4641
20
65.0718
0
VERTEX
8
CUT
10
60.9282
20
66
0
VERTEX
8
CUT
10
62
20
66
0
SEQEND
0
POLYLINE
8
CUT
66
1
70
0
0
VERTEX
8
CUT
10
64
20
66
0
VERTEX
8
CUT
10
65.0718
20
66
0
VERTEX
8
CUT
10
64.5359
20
65.0718
0
SEQEND
0
POLYLINE
8
CUT
66
1
70
0
0
VERTEX
8
CUT
10
63.5359
20
63.3397
0
VERTEX
8
CUT
10
63
20
62.4115
0
VERTEX
8
CUT
10
62.4641
20
63.3397
0
SEQEND
0
LINE
8
CUT
10
65.7321
20
55.4115
11
78.2679
21
55.4115
0
LINE
8
CUT
10
78.7679
20
56.2776
11
72.5
21
67.134
0
LINE
8
CUT
10
71.5
20
67.134
11
65.2321
21
56.2776
0
POLYLINE
8
CUT
66
1
70
0
0
VERTEX
8
CUT
10
68.7321
20
60.3397
0
VERTEX
8
CUT
10
66.4641
20
56.4115
0
VERTEX
8
CUT
10
71
20
56.4115
0
SEQEND
0
POLYLINE
8
CUT
66
1
70
0
0
VERTEX
8
CUT
10
73
20
56.4115
0
VERTEX
8
CUT
10
77.5359
20
56.4115
0
VERTEX
8
CUT
10
75.2679
20
60.3397
0
SEQEND
0
POLYLINE
8
CUT
66
1
70
0
0
VERTEX
8
CUT
10
74.2679
20
62.0718
0
VERTEX
8
CUT
10
72
20
66
0
VERTEX
8
CUT
10
69.7321
20
62.0718
0
SEQEND
0
LINE
8
CUT
10
69.1962
20
57.4115
11
74.8038
21
57.4115
0
LINE
8
CUT
10
75.3038
20
58.2776
11
72.5
21
63.134
0
LINE
8
CUT
10
71.5
20
63.134
11
68.6962
21
58.2776
0
POLYLINE
8
CUT
66
1
70
0
0
VERTEX
8
CUT
10
70.4641
20
59.3397
0
VERTEX
8
CUT
10
69.9282
20
58.4115
0
VERTEX
8
CUT
10
71
20
58.4115
0
SEQEND
0
POLYLINE
8
CUT
66
1
70
0
0
VERTEX
8
CUT
10
73
20
58.4115
0
VERTEX
8
CUT
10
74.0718
20
58.4115
0
VERTEX
8
CUT
10
73.5359
20
59.3397
0
SEQEND
0
POLYLINE
8
CUT
66
1
70
0
0
VERTEX
8
CUT
10
72.5359
20
61.0718
0
VERTEX
8
CUT
10
72
20
62
0
VERTEX
8
CUT
10
71.4641
20
61.0718
0
SEQEND
0
LINE
8
CUT
10
74.7321
20
69
11
87.2679
21
69
0
LINE
8
CUT
10
87.7679
20
68.134
11
81.5
21
57.2776
0
LINE
8
CUT
10
80.5
20
57.2776
11
74.2321
21
68.134
0
POLYLINE
8
CUT
66
1
70
0
0
VERTEX
8
CUT
10
77.7321
20
64.0718
0
VERTEX
8
CUT
10
75.4641
20
68
0
VERTEX
8
CUT
10
80
20
68
0
SEQEND
0
POLYLINE
8
CUT
66
1
70
0
0
VERTEX
8
CUT
10
82
20
68
0
VERTEX
8
CUT
10
86.5359
20
68
0
VERTEX
8
CUT
10
84.2679
20
64.0718
0
SEQEND
0
POLYLINE
8
CUT
66
1
70
0
0
VERTEX
8
CUT
10
83.2679
20
62.3397
0
VERTEX
8
CUT
10
81
20
58.4115
0
VERTEX
8
CUT
10
78.7321
20
62.3397
0
SEQEND
0
LINE
8
CUT
10
78.1962
20
67
11
83.8038
21
67
0
LINE
8
CUT
10
84.3038
20
66.134
11
81.5
21
61.2776
0
LINE
8
CUT
10
80.5
20
61.2776
11
77.6962
21
66.134
0
POLYLINE
8
CUT
66
1
70
0
0
VERTEX
8
CUT
10
79.4641
20
65.0718
0
VERTEX
8
CUT
10
78.9282
20
66
0
VERTEX
8
CUT
10
80
20
66
0
SEQEND
0
POLYLINE
8
CUT
66
1
70
0
0
VERTEX
8
CUT
10
82
20
66
0
VERTEX
8
CUT
10
83.0718
20
66
0
VERTEX
8
CUT
10
82.5359
20
65.0718
0
SEQEND
0
POLYLINE
8
CUT
66
1
70
0
0
VERTEX
8
CUT
10
81.5359
20
63.3397
0
VERTEX
8
CUT
10
81
20
62.4115
0
VERTEX
8
CUT
10
80.4641
20
63.3397
0
SEQEND
0
LINE
8
CUT
10
83.7321
20
55.4115
11
96.2679
21
55.4115
0
LINE
8
CUT
10
96.7679
20
56.2776
11
90.5
21
67.134
0
LINE
8
CUT
10
89.5
20
67.134
11
83.2321
21
56.2776
0
POLYLINE
8
CUT
66
1
70
0
0
VERTEX
8
CUT
10
86.7321
20
60.3397
0
VERTEX
8
CUT
10
84.4641
20
56.4115
0
VERTEX
8
CUT
10
89
20
56.4115
0
SEQEND
0
POLYLINE
8
CUT
66
1
70
0
0
VERTEX
8
CUT
10
91
20
56.4115
0
VERTEX
8
CUT
10
95.5359
20
56.4115
0
VERTEX
8
CUT
10
93.2679
20
60.3397
0
SEQEND
0
POLYLINE
8
CUT
66
1
70
0
0
VERTEX
8
CUT
10
92.2679
20
62.0718
0
VERTEX
8
CUT
10
90
20
66
0
VERTEX
8
CUT
10
87.7321
20
62.0718
0
SEQEND
0
LINE
8
CUT
10
87.1962
20
57.4115
11
92.8038
21
57.4115
0
LINE
8
CUT
10
93.3038
20
58.2776
11
90.5
21
63.134
0
LINE
8
CUT
10
89.5
20
63.134
11
86.6962
21
58.2776
0
POLYLINE
8
CUT
66
1
70
0
0
VERTEX
8
CUT
10
88.4641
20
59.3397
0
VERTEX
8
CUT
10
87.9282
20
58.4115
0
VERTEX
8
CUT
10
89
20
58.4115
0
SEQEND
0
POLYLINE
8
CUT
66
1
70
0
0
VERTEX
8
CUT
10
91
20
58.4115
0
VERTEX
8
CUT
10
92.0718
20
58.4115
0
VERTEX
8
CUT
10
91.5359
20
59.3397
0
SEQEND
0
POLYLINE
8
CUT
66
1
70
0
0
VERTEX
8
CUT
10
90.5359
20
61.0718
0
VERTEX
8
CUT
10
90
20
62
0
VERTEX
8
CUT
10
89.4641
20
61.0718
0
SEQEND
0
LINE
8
CUT
10
92.7321
20
69
11
105.2679
21
69
0
LINE
8
CUT
10
105.7679
20
68.134
11
99.5
21
57.2776
0
LINE
8
CUT
10
98.5
20
57.2776
11
92.2321
21
68.134
0
POLYLINE
8
CUT
66
1
70
0
0
VERTEX
8
CUT
10
95.7321
20
64.0718
0
VERTEX
8
CUT
10
93.4641
20
68
0
VERTEX
8
CUT
10
98
20
68
0
SEQEND
0
POLYLINE
8
CUT
66
1
70
0
0
VERTEX
8
CUT
10
100
20
68
0
VERTEX
8
CUT
10
104.5359
20
68
0
VERTEX
8
CUT
10
102.2679
20
64.0718
0
SEQEND
0
POLYLINE
8
CUT
66
1
70
0
0
VERTEX
8
CUT
10
101.2679
20
62.3397
0
VERTEX
8
CUT
10
99
20
58.4115
0
VERTEX
8
CUT
10
96.7321
20
62.3397
0
SEQEND
0
LINE
8
CUT
10
96.1962
20
67
11
101.8038
21
67
0
LINE
8
CUT
10
102.3038
20
66.134
11
99.5
21
61.2776
0
LINE
8
CUT
10
98.5
20
61.2776
11
95.6962
21
66.134
0
POLYLINE
8
CUT
66
1
70
0
0
VERTEX
8
CUT
10
97.4641
20
65.0718
0
VERTEX
8
CUT
10
96.9282
20
66
0
VERTEX
8
CUT
10
98
20
66
0
SEQEND
0
POLYLINE
8
CUT
66
1
70
0
0
VERTEX
8
CUT
10
100
20
66
0
VERTEX
8
CUT
10
101.0718
20
66
0
VERTEX
8
CUT
10
100.5359
20
65.0718
0
SEQEND
0
POLYLINE
8
CUT
66
1
70
0
0
VERTEX
8
CUT
10
99.5359
20
63.3397
0
VERTEX
8
CUT
10
99
20
62.4115
0
VERTEX
8
CUT
10
98.4641
20
63.3397
0
SEQEND
0
LINE
8
CUT
10
101.7321
20
55.4115
11
114.2679
21
55.4115
0
LINE
8
CUT
10
114.7679
20
56.2776
11
108.5
21
67.134
0
LINE
8
CUT
10
107.5
20
67.134
11
101.2321
21
56.2776
0
POLYLINE
8
CUT
66
1
70
0
0
VERTEX
8
CUT
10
104.7321
20
60.3397
0
VERTEX
8
CUT
10
102.4641
20
56.4115
0
VERTEX
8
CUT
10
107
20
56.4115
0
SEQEND
0
POLYLINE
8
CUT
66
1
70
0
0
VERTEX
8
CUT
10
109
20
56.4115
0
VERTEX
8
CUT
10
113.5359
20
56.4115
0
VERTEX
8
CUT
10
111.2679
20
60.3397
0
SEQEND
0
POLYLINE
8
CUT
66
1
70
0
0
VERTEX
8
CUT
10
110.2679
20
62.0718
0
VERTEX
8
CUT
10
108
20
66
0
VERTEX
8
CUT
10
105.7321
20
62.0718
0
SEQEND
0
LINE
8
CUT
10
105.1962
20
57.4115
11
110.8038
21
57.4115
0
LINE
8
CUT
10
111.3038
20
58.2776
11
108.5
21
63.134
0
LINE
8
CUT
10
107.5
20
63.134
11
104.6962
21
58.2776
0
POLYLINE
8
CUT
66
1
70
0
0
VERTEX
8
CUT
10
106.4641
20
59.3397
0
VERTEX
8
CUT
10
105.9282
20
58.4115
0
VERTEX
8
CUT
10
107
20
58.4115
0
SEQEND
0
POLYLINE
8
CUT
66
1
70
0
0
VERTEX
8
CUT
10
109
20
58.4115
0
VERTEX
8
CUT
10
110.0718
20
58.4115
0
VERTEX
8
CUT
10
109.5359
20
59.3397
0
SEQEND
0
POLYLINE
8
CUT
66
1
70
0
0
VERTEX
8
CUT
10
108.5359
20
61.0718
0
VERTEX
8
CUT
10
108
20
62
0
VERTEX
8
CUT
10
107.4641
20
61.0718
0
SEQEND
0
LINE
8
CUT
10
110.7321
20
69
11
120
21
69
0
LINE
8
CUT
10
120
20
61.6077
11
117.5
21
57.2776
0
LINE
8
CUT
10
116.5
20
57.2776
11
110.2321
21
68.134
0
POLYLINE
8
CUT
66
1
70
0
0
VERTEX
8
CUT
10
113.7321
20
64.0718
0
VERTEX
8
CUT
10
111.4641
20
68
0
VERTEX
8
CUT
10
116
20
68
0
SEQEND
0
LINE
8
CUT
10
118
20
68
11
120
21
68
0
POLYLINE
8
CUT
66
1
70
0
0
VERTEX
8
CUT
10
119.2679
20
62.3397
0
VERTEX
8
CUT
10
117
20
58.4115
0
VERTEX
8
CUT
10
114.7321
20
62.3397
0
SEQEND
0
LINE
8
CUT
10
114.1962
20
67
11
119.8038
21
67
0
LINE
8
CUT
10
120
20
65.6077
11
117.5
21
61.2776
0
LINE
8
CUT
10
116.5
20
61.2776
11
113.6962
21
66.134
0
POLYLINE
8
CUT
66
1
70
0
0
VERTEX
8
CUT
10
115.4641
20
65.0718
0
VERTEX
8
CUT
10
114.9282
20
66
0
VERTEX
8
CUT
10
116
20
66
0
SEQEND
0
POLYLINE
8
CUT
66
1
70
0
0
VERTEX
8
CUT
10
118
20
66
0
VERTEX
8
CUT
10
119.0718
20
66
0
VERTEX
8
CUT
10
118.5359
20
65.0718
0
SEQEND
0
POLYLINE
8
CUT
66
1
70
0
0
VERTEX
8
CUT
10
117.5359
20
63.3397
0
VERTEX
8
CUT
10
117
20
62.4115
0
VERTEX
8
CUT
10
116.4641
20
63.3397
0
SEQEND
0
LINE
8
CUT
10
120
20
57.6077
11
119.2321
21
56.2776
0
LINE
8
CUT
10
0
20
53.4115
11
6.2679
21
53.4115
0
LINE
8
CUT
10
6.7679
20
52.5455
11
0.5
21
41.6891
0
POLYLINE
8
CUT
66
1
70
0
0
VERTEX
8
CUT
10
1
20
52.4115
0
VERTEX
8
CUT
10
5.5359
20
52.4115
0
VERTEX
8
CUT
10
3.2679
20
48.4833
0
SEQEND
0
POLYLINE
8
CUT
66
1
70
0
0
VERTEX
8
CUT
10
2.2679
20
46.7513
0
VERTEX
8
CUT
10
0
20
42.8231
0
VERTEX
8
CUT
10
0
20
42.8231
0
SEQEND
0
LINE
8
CUT
10
0
20
51.4115
11
2.8038
21
51.4115
0
LINE
8
CUT
10
3.3038
20
50.5455
11
0.5
21
45.6891
0
POLYLINE
8
CUT
66
1
70
0
0
VERTEX
8
CUT
10
1
20
50.4115
0
VERTEX
8
CUT
10
2.0718
20
50.4115
0
VERTEX
8
CUT
10
1.5359
20
49.4833
0
SEQEND
0
POLYLINE
8
CUT
66
1
70
0
0
VERTEX
8
CUT
10
0.5359
20
47.7513
0
VERTEX
8
CUT
10
0
20
46.8231
0
VERTEX
8
CUT
10
0
20
46.8231
0
SEQEND
0
LINE
8
CUT
10
2.7321
20
39.8231
11
15.2679
21
39.8231
0
LINE
8
CUT
10
15.7679
20
40.6891
11
9.5
21
51.5455
0
LINE
8
CUT
10
8.5
20
51.5455
11
2.2321
21
40.6891
0
POLYLINE
8
CUT
66
1
70
0
0
VERTEX
8
CUT
10
5.7321
20
44.7513
0
VERTEX
8
CUT
10
3.4641
20
40.8231
0
VERTEX
8
CUT
10
8
20
40.8231
0
SEQEND
0
POLYLINE
8
CUT
66
1
70
0
0
VERTEX
8
CUT
10
10
20
40.8231
0
VERTEX
8
CUT
10
14.5359
20
40.8231
0
VERTEX
8
CUT
10
12.2679
20
44.7513
0
SEQEND
0
POLYLINE
8
CUT
66
1
70
0
0
VERTEX
8
CUT
10
11.2679
20
46.4833
0
VERTEX
8
CUT
10
9
20
50.4115
0
VERTEX
8
CUT
10
6.7321
20
46.4833
0
SEQEND
0
LINE
8
CUT
10
6.1962
20
41.8231
11
11.8038
21
41.8231
0
LINE
8
CUT
10
12.3038
20
42.6891
11
9.5
21
47.5455
0
LINE
8
CUT
10
8.5
20
47.5455
11
5.6962
21
42.6891
0
POLYLINE
8
CUT
66
1
70
0
0
VERTEX
8
CUT
10
7.4641
20
43.7513
0
VERTEX
8
CUT
10
6.9282
20
42.8231
0
VERTEX
8
CUT
10
8
20
42.8231
0
SEQEND
0
POLYLINE
8
CUT
66
1
70
0
0
VERTEX
8
CUT
10
10
20
42.8231
0
VERTEX
8
CUT
10
11.0718
20
42.8231
0
VERTEX
8
CUT
10
10.5359
20
43.7513
0
SEQEND
0
POLYLINE
8
CUT
66
1
70
0
0
VERTEX
8
CUT
10
9.5359
20
45.4833
0
VERTEX
8
CUT
10
9
20
46.4115
0
VERTEX
8
CUT
10
8.4641
20
45.4833
0
SEQEND
0
LINE
8
CUT
10
11.7321
20
53.4115
11
24.2679
21
53.4115
0
LINE
8
CUT
10
24.7679
20
52.5455
11
18.5
21
41.6891
0
LINE
8
CUT
10
17.5
20
41.6891
11
11.2321
21
52.5455
0
POLYLINE
8
CUT
66
1
70
0
0
VERTEX
8
CUT
10
14.7321
20
48.4833
0
VERTEX
8
CUT
10
12.4641
20
52.4115
0
VERTEX
8
CUT
10
17
20
52.4115
0
SEQEND
0
POLYLINE
8
CUT
66
1
70
0
0
VERTEX
8
CUT
10
19
20
52.4115
0
VERTEX
8
CUT
10
23.5359
20
52.4115
0
VERTEX
8
CUT
10
21.2679
20
48.4833
0
SEQEND
0
POLYLINE
8
CUT
66
1
70
0
0
VERTEX
8
CUT
10
20.2679
20
46.7513
0
VERTEX
8
CUT
10
18
20
42.8231
0
VERTEX
8
CUT
10
15.7321
20
46.7513
0
SEQEND
0
LINE
8
CUT
10
15.1962
20
51.4115
11
20.8038
21
51.4115
0
LINE
8
CUT
10
21.3038
20
50.5455
11
18.5
21
45.6891
0
LINE
8
CUT
10
17.5
20
45.6891
11
14.6962
21
50.5455
0
POLYLINE
8
CUT
66
1
70
0
0
VERTEX
8
CUT
10
16.4641
20
49.4833
0
VERTEX
8
CUT
10
15.9282
20
50.4115
0
VERTEX
8
CUT
10
17
20
50.4115
0
SEQEND
0
POLYLINE
8
CUT
66
1
70
0
0
VERTEX
8
CUT
10
19
20
50.4115
0
VERTEX
8
CUT
10
20.0718
20
50.4115
0
VERTEX
8
CUT
10
19.5359
20
49.4833
0
SEQEND
0
POLYLINE
8
CUT
66
1
70
0
0
VERTEX
8
CUT
10
18.5359
20
47.7513
0
VERTEX
8
CUT
10
18
20
46.8231
0
VERTEX
8
CUT
10
17.4641
20
47.7513
0
SEQEND
0
LINE
8
CUT
10
20.7321
20
39.8231
11
33.2679
21
39.8231
0
LINE
8
CUT
10
33.7679
20
40.6891
11
27.5
21
51.5455
0
LINE
8
CUT
10
26.5
20
51.5455
11
20.2321
21
40.6891
0
POLYLINE
8
CUT
66
1
70
0
0
VERTEX
8
CUT
10
23.7321
20
44.7513
0
VERTEX
8
CUT
10
21.4641
20
40.8231
0
VERTEX
8
CUT
10
26
20
40.8231
0
SEQEND
0
POLYLINE
8
CUT
66
1
70
0
0
VERTEX
8
CUT
10
28
20
40.8231
0
VERTEX
8
CUT
10
32.5359
20
40.8231
0
VERTEX
8
CUT
10
30.2679
20
44.7513
0
SEQEND
0
POLYLINE
8
CUT
66
1
70
0
0
VERTEX
8
CUT
10
29.2679
20
46.4833
0
VERTEX
8
CUT
10
27
20
50.4115
0
VERTEX
8
CUT
10
24.7321
20
46.4833
0
SEQEND
0
LINE
8
CUT
10
24.1962
20
41.8231
11
29.8038
21
41.8231
0
LINE
8
CUT
10
30.3038
20
42.6891
11
27.5
21
47.5455
0
LINE
8
CUT
10
26.5
20
47.5455
11
23.6962
21
42.6891
0
POLYLINE
8
CUT
66
1
70
0
0
VERTEX
8
CUT
10
25.4641
20
43.7513
0
VERTEX
8
CUT
10
24.9282
20
42.8231
0
VERTEX
8
CUT
10
26
20
42.8231
0
SEQEND
0
POLYLINE
8
CUT
66
1
70
0
0
VERTEX
8
CUT
10
28
20
42.8231
0
VERTEX
8
CUT
10
29.0718
20
42.8231
0
VERTEX
8
CUT
10
28.5359
20
43.7513
0
SEQEND
0
POLYLINE
8
CUT
66
1
70
0
0
VERTEX
8
CUT
10
27.5359
20
45.4833
0
VERTEX
8
CUT
10
27
20
46.4115
0
VERTEX
8
CUT
10
26.4641
20
45.4833
0
SEQEND
0
LINE
8
CUT
10
29.7321
20
53.4115
11
42.2679
21
53.4115
0
LINE
8
CUT
10
42.7679
20
52.5455
11
36.5
21
41.6891
0
LINE
8
CUT
10
35.5
20
41.6891
11
29.2321
21
52.5455
0
POLYLINE
8
CUT
66
1
70
0
0
VERTEX
8
CUT
10
32.7321
20
48.4833
0
VERTEX
8
CUT
10
30.4641
20
52.4115
0
VERTEX
8
CUT
10
35
20
52.4115
0
SEQEND
0
POLYLINE
8
CUT
66
1
70
0
0
VERTEX
8
CUT
10
37
20
52.4115
0
VERTEX
8
CUT
10
41.5359
20
52.4115
0
VERTEX
8
CUT
10
39.2679
20
48.4833
0
SEQEND
0
POLYLINE
8
CUT
66
1
70
0
0
VERTEX
8
CUT
10
38.2679
20
46.7513
0
VERTEX
8
CUT
10
36
20
42.8231
0
VERTEX
8
CUT
10
33.7321
20
46.7513
0
SEQEND
0
LINE
8
CUT
10
33.1962
20
51.4115
11
38.8038
21
51.4115
0
LINE
8
CUT
10
39.3038
20
50.5455
11
36.5
21
45.6891
0
LINE
8
CUT
10
35.5
20
45.6891
11
32.6962
21
50.5455
0
POLYLINE
8
CUT
66
1
70
0
0
VERTEX
8
CUT
10
34.4641
20
49.4833
0
VERTEX
8
CUT
10
33.9282
20
50.4115
0
VERTEX
8
CUT
10
35
20
50.4115
0
SEQEND
0
POLYLINE
8
CUT
66
1
70
0
0
VERTEX
8
CUT
10
37
20
50.4115
0
VERTEX
8
CUT
10
38.0718
20
50.4115
0
VERTEX
8
CUT
10
37.5359
20
49.4833
0
SEQEND
0
POLYLINE
8
CUT
66
1
70
0
0
VERTEX
8
CUT
10
36.5359
20
47.7513
0
VERTEX
8
CUT
10
36
20
46.8231
0
VERTEX
8
CUT
10
35.4641
20
47.7513
0
SEQEND
0
LINE
8
CUT
10
38.7321
20
39.8231
11
51.2679
21
39.8231
0
LINE
8
CUT
10
51.7679
20
40.6891
11
45.5
21
51.5455
0
LINE
8
CUT
10
44.5
20
51.5455
11
38.2321
21
40.6891
0
POLYLINE
8
CUT
66
1
70
0
0
VERTEX
8
CUT
10
41.7321
20
44.7513
0
VERTEX
8
CUT
10
39.4641
20
40.8231
0
VERTEX
8
CUT
10
44
20
40.8231
0
SEQEND
0
POLYLINE
8
CUT
66
1
70
0
0
VERTEX
8
CUT
10
46
20
40.8231
0
VERTEX
8
CUT
10
50.5359
20
40.8231
0
VERTEX
8
CUT
10
48.2679
20
44.7513
0
SEQEND
0
POLYLINE
8
CUT
66
1
70
0
0
VERTEX
8
CUT
10
47.2679
20
46.4833
0
VERTEX
8
CUT
10
45
20
50.4115
0
VERTEX
8
CUT
10
42.7321
20
46.4833
0
SEQEND
0
LINE
8
CUT
10
42.1962
20
41.8231
11
47.8038
21
41.8231
0
LINE
8
CUT
10
48.3038
20
42.6891
11
45.5
21
47.5455
0
LINE
8
CUT
10
44.5
20
47.5455
11
41.6962
21
42.6891
0
POLYLINE
8
CUT
66
1
70
0
0
VERTEX
8
CUT
10
43.4641
20
43.7513
0
VERTEX
8
CUT
10
42.9282
20
42.8231
0
VERTEX
8
CUT
10
44
20
42.8231
0
SEQEND
0
POLYLINE
8
CUT
66
1
70
0
0
VERTEX
8
CUT
10
46
20
42.8231
0
VERTEX
8
CUT
10
47.0718
20
42.8231
0
VERTEX
8
CUT
10
46.5359
20
43.7513
0
SEQEND
0
POLYLINE
8
CUT
66
1
70
0
0
VERTEX
8
CUT
10
45.5359
20
45.4833
0
VERTEX
8
CUT
10
45
20
46.4115
0
VERTEX
8
CUT
10
44.4641
20
45.4833
0
SEQEND
0
LINE
8
CUT
10
47.7321
20
53.4115
11
60.2679
21
53.4115
0
LINE
8
CUT
10
60.7679
20
52.5455
11
54.5
21
41.6891
0
LINE
8
CUT
10
53.5
20
41.6891
11
47.2321
21
52.5455
0
POLYLINE
8
CUT
66
1
70
0
0
VERTEX
8
CUT
10
50.7321
20
48.4833
0
VERTEX
8
CUT
10
48.4641
20
52.4115
0
VERTEX
8
CUT
10
53
20
52.4115
0
SEQEND
0
POLYLINE
8
CUT
66
1
70
0
0
VERTEX
8
CUT
10
55
20
52.4115
0
VERTEX
8
CUT
10
59.5359
20
52.4115
0
VERTEX
8
CUT
10
57.2679
20
48.4833
0
SEQEND
0
POLYLINE
8
CUT
66
1
70
0
0
VERTEX
8
CUT
10
56.2679
20
46.7513
0
VERTEX
8
CUT
10
54
20
42.8231
0
VERTEX
8
CUT
10
51.7321
20
46.7513
0
SEQEND
0
LINE
8
CUT
10
51.1962
20
51.4115
11
56.8038
21
51.4115
0
LINE
8
CUT
10
57.3038
20
50.5455
11
54.5
21
45.6891
0
LINE
8
CUT
10
53.5
20
45.6891
11
50.6962
21
50.5455
0
POLYLINE
8
CUT
66
1
70
0
0
VERTEX
8
CUT
10
52.4641
20
49.4833
0
VERTEX
8
CUT
10
51.9282
20
50.4115
0
VERTEX
8
CUT
10
53
20
50.4115
0
SEQEND
0
POLYLINE
8
CUT
66
1
70
0
0
VERTEX
8
CUT
10
55
20
50.4115
0
VERTEX
8
CUT
10
56.0718
20
50.4115
0
VERTEX
8
CUT
10
55.5359
20
49.4833
0
SEQEND
0
POLYLINE
8
CUT
66
1
70
0
0
VERTEX
8
CUT
10
54.5359
20
47.7513
0
VERTEX
8
CUT
10
54
20
46.8231
0
VERTEX
8
CUT
10
53.4641
20
47.7513
0
SEQEND
0
LINE
8
CUT
10
56.7321
20
39.8231
11
69.2679
21
39.8231
0
LINE
8
CUT
10
69.7679
20
40.6891
11
63.5
21
51.5455
0
LINE
8
CUT
10
62.5
20
51.5455
11
56.2321
21
40.6891
0
POLYLINE
8
CUT
66
1
70
0
0
VERTEX
8
CUT
10
59.7321
20
44.7513
0
VERTEX
8
CUT
10
57.4641
20
40.8231
0
VERTEX
8
CUT
10
62
20
40.8231
0
SEQEND
0
POLYLINE
8
CUT
66
1
70
0
0
VERTEX
8
CUT
10
64
20
40.8231
0
VERTEX
8
CUT
10
68.5359
20
40.8231
0
VERTEX
8
CUT
10
66.2679
20
44.7513
0
SEQEND
0
POLYLINE
8
CUT
66
1
70
0
0
VERTEX
8
CUT
10
65.2679
20
46.4833
0
VERTEX
8
CUT
10
63
20
50.4115
0
VERTEX
8
CUT
10
60.7321
20
46.4833
0
SEQEND
0
LINE
8
CUT
10
60.1962
20
41.8231
11
65.8038
21
41.8231
0
LINE
8
CUT
10
66.3038
20
42.6891
11
63.5
21
47.5455
0
LINE
8
CUT
10
62.5
20
47.5455
11
59.6962
21
42.6891
0
POLYLINE
8
CUT
66
1
70
0
0
VERTEX
8
CUT
10
61.4641
20
43.7513
0
VERTEX
8
CUT
10
60.9282
20
42.8231
0
VERTEX
8
CUT
10
62
20
42.8231
0
SEQEND
0
POLYLINE
8
CUT
66
1
70
0
0
VERTEX
8
CUT
10
64
20
42.8231
0
VERTEX
8
CUT
10
65.0718
20
42.8231
0
VERTEX
8
CUT
10
64.5359
20
43.7513
0
SEQEND
0
POLYLINE
8
CUT
66
1
70
0
0
VERTEX
8
CUT
10
63.5359
20
45.4833
0
VERTEX
8
CUT
10
63
20
46.4115
0
VERTEX
8
CUT
10
62.4641
20
45.4833
0
SEQEND
0
LINE
8
CUT
10
65.7321
20
53.4115
11
78.2679
21
53.4115
0
LINE
8
CUT
10
78.7679
20
52.5455
11
72.5
21
41.6891
0
LINE
8
CUT
10
71.5
20
41.6891
11
65.2321
21
52.5455
0
POLYLINE
8
CUT
66
1
70
0
0
VERTEX
8
CUT
10
68.7321
20
48.4833
0
VERTEX
8
CUT
10
66.4641
20
52.4115
0
VERTEX
8
CUT
10
71
20
52.4115
0
SEQEND
0
POLYLINE
8
CUT
66
1
70
0
0
VERTEX
8
CUT
10
73
20
52.4115
0
VERTEX
8
CUT
10
77.5359
20
52.4115
0
VERTEX
8
CUT
10
75.2679
20
48.4833
0
SEQEND
0
POLYLINE
8
CUT
66
1
70
0
0
VERTEX
8
CUT
10
74.2679
20
46.7513
0
VERTEX
8
CUT
10
72
20
42.8231
0
VERTEX
8
CUT
10
69.7321
20
46.7513
0
SEQEND
0
LINE
8
CUT
10
69.1962
20
51.4115
11
74.8038
21
51.4115
0
LINE
8
CUT
10
75.3038
20
50.5455
11
72.5
21
45.6891
0
LINE
8
CUT
10
71.5
20
45.6891
11
68.6962
21
50.5455
0
POLYLINE
8
CUT
66
1
70
0
0
VERTEX
8
CUT
10
70.4641
20
49.4833
0
VERTEX
8
CUT
10
69.9282
20
50.4115
0
VERTEX
8
CUT
10
71
20
50.4115
0
SEQEND
0
POLYLINE
8
CUT
66
1
70
0
0
VERTEX
8
CUT
10
73
20
50.4115
0
VERTEX
8
CUT
10
74.0718
20
50.4115
0
VERTEX
8
CUT
10
73.5359
20
49.4833
0
SEQEND
0
POLYLINE
8
CUT
66
1
70
0
0
VERTEX
8
CUT
10
72.5359
20
47.7513
0
VERTEX
8
CUT
10
72
20
46.8231
0
VERTEX
8
CUT
10
71.4641
20
47.7513
0
SEQEND
0
LINE
8
CUT
10
74.7321
20
39.8231
11
87.2679
21
39.8231
0
LINE
8
CUT
10
87.7679
20
40.6891
11
81.5
21
51.5455
0
LINE
8
CUT
10
80.5
20
51.5455
11
74.2321
21
40.6891
0
POLYLINE
8
CUT
66
1
70
0
0
VERTEX
8
CUT
10
77.7321
20
44.7513
0
VERTEX
8
CUT
10
75.4641
20
40.8231
0
VERTEX
8
CUT
10
80
20
40.8231
0
SEQEND
0
POLYLINE
8
CUT
66
1
70
0
0
VERTEX
8
CUT
10
82
20
40.8231
0
VERTEX
8
CUT
10
86.5359
20
40.8231
0
VERTEX
8
CUT
10
84.2679
20
44.7513
0
SEQEND
0
POLYLINE
8
CUT
66
1
70
0
0
VERTEX
8
CUT
10
83.2679
20
46.4833
0
VERTEX
8
CUT
10
81
20
50.4115
0
VERTEX
8
CUT
10
78.7321
20
46.4833
0
SEQEND
0
LINE
8
CUT
10
78.1962
20
41.8231
11
83.8038
21
41.8231
0
LINE
8
CUT
10
84.3038
20
42.6891
11
81.5
21
47.5455
0
LINE
8
CUT
10
80.5
20
47.5455
11
77.6962
21
42.6891
0
POLYLINE
8
CUT
66
1
70
0
0
VERTEX
8
CUT
10
79.4641
20
43.7513
0
VERTEX
8
CUT
10
78.9282
20
42.8231
0
VERTEX
8
CUT
10
80
20
42.8231
0
SEQEND
0
POLYLINE
8
CUT
66
1
70
0
0
VERTEX
8
CUT
10
82
20
42.8231
0
VERTEX
8
CUT
10
83.0718
20
42.8231
0
VERTEX
8
CUT
10
82.5359
20
43.7513
0
SEQEND
0
POLYLINE
8
CUT
66
1
70
0
0
VERTEX
8
CUT
10
81.5359
20
45.4833
0
VERTEX
8
CUT
10
81
20
46.4115
0
VERTEX
8
CUT
10
80.4641
20
45.4833
0
SEQEND
0
LINE
8
CUT
10
83.7321
20
53.4115
11
96.2679
21
53.4115
0
LINE
8
CUT
10
96.7679
20
52.5455
11
90.5
21
41.6891
0
LINE
8
CUT
10
89.5
20
41.6891
11
83.2321
21
52.5455
0
POLYLINE
8
CUT
66
1
70
0
0
VERTEX
8
CUT
10
86.7321
20
48.4833
0
VERTEX
8
CUT
10
84.4641
20
52.4115
0
VERTEX
8
CUT
10
89
20
52.4115
0
SEQEND
0
POLYLINE
8
CUT
66
1
70
0
0
VERTEX
8
CUT
10
91
20
52.4115
0
VERTEX
8
CUT
10
95.5359
20
52.4115
0
VERTEX
8
CUT
10
93.2679
20
48.4833
0
SEQEND
0
POLYLINE
8
CUT
66
1
70
0
0
VERTEX
8
CUT
10
92.2679
20
46.7513
0
VERTEX
8
CUT
10
90
20
42.8231
0
VERTEX
8
CUT
10
87.7321
20
46.7513
0
SEQEND
0
LINE
8
CUT
10
87.1962
20
51.4115
11
92.8038
21
51.4115
0
LINE
8
CUT
10
93.3038
20
50.5455
11
90.5
21
45.6891
0
LINE
8
CUT
10
89.5
20
45.6891
11
86.6962
21
50.5455
0
POLYLINE
8
CUT
66
1
70
0
0
VERTEX
8
CUT
10
88.4641
20
49.4833
0
VERTEX
8
CUT
10
87.9282
20
50.4115
0
VERTEX
8
CUT
10
89
20
50.4115
0
SEQEND
0
POLYLINE
8
CUT
66
1
70
0
0
VERTEX
8
CUT
10
91
20
50.4115
0
VERTEX
8
CUT
10
92.0718
20
50.4115
0
VERTEX
8
CUT
10
91.5359
20
49.4833
0
SEQEND
0
POLYLINE
8
CUT
66
1
70
0
0
VERTEX
8
CUT
10
90.5359
20
47.7513
0
VERTEX
8
CUT
10
90
20
46.8231
0
VERTEX
8
CUT
10
89.4641
20
47.7513
0
SEQEND
0
LINE
8
CUT
10
92.7321
20
39.8231
11
105.2679
21
39.8231
0
LINE
8
CUT
10
105.7679
20
40.6891
11
99.5
21
51.5455
0
LINE
8
CUT
10
98.5
20
51.5455
11
92.2321
21
40.6891
0
POLYLINE
8
CUT
66
1
70
0
0
VERTEX
8
CUT
10
95.7321
20
44.7513
0
VERTEX
8
CUT
10
93.4641
20
40.8231
0
VERTEX
8
CUT
10
98
20
40.8231
0
SEQEND
0
POLYLINE
8
CUT
66
1
70
0
0
VERTEX
8
CUT
10
100
20
40.8231
0
VERTEX
8
CUT
10
104.5359
20
40.8231
0
VERTEX
8
CUT
10
102.2679
20
44.7513
0
SEQEND
0
POLYLINE
8
CUT
66
1
70
0
0
VERTEX
8
CUT
10
101.2679
20
46.4833
0
VERTEX
8
CUT
10
99
20
50.4115
0
VERTEX
8
CUT
10
96.7321
20
46.4833
0
SEQEND
0
LINE
8
CUT
10
96.1962
20
41.8231
11
101.8038
21
41.8231
0
LINE
8
CUT
10
102.3038
20
42.6891
11
99.5
21
47.5455
0
LINE
8
CUT
10
98.5
20
47.5455
11
95.6962
21
42.6891
0
POLYLINE
8
CUT
66
1
70
0
0
VERTEX
8
CUT
10
97.4641
20
43.7513
0
VERTEX
8
CUT
10
96.9282
20
42.8231
0
VERTEX
8
CUT
10
98
20
42.8231
0
SEQEND
0
POLYLINE
8
CUT
66
1
70
0
0
VERTEX
8
CUT
10
100
20
42.8231
0
VERTEX
8
CUT
10
101.0718
20
42.8231
0
VERTEX
8
CUT
10
100.5359
20
43.7513
0
SEQEND
0
POLYLINE
8
CUT
66
1
70
0
0
VERTEX
8
CUT
10
99.5359
20
45.4833
0
VERTEX
8
CUT
10
99
20
46.4115
0
VERTEX
8
CUT
10
98.4641
20
45.4833
0
SEQEND
0
LINE
8
CUT
10
101.7321
20
53.4115
11
114.2679
21
53.4115
0
LINE
8
CUT
10
114.7679
20
52.5455
11
108.5
21
41.6891
0
LINE
8
CUT
10
107.5
20
41.6891
11
101.2321
21
52.5455
0
POLYLINE
8
CUT
66
1
70
0
0
VERTEX
8
CUT
10
104.7321
20
48.4833
0
VERTEX
8
CUT
10
102.4641
20
52.4115
0
VERTEX
8
CUT
10
107
20
52.4115
0
SEQEND
0
POLYLINE
8
CUT
66
1
70
0
0
VERTEX
8
CUT
10
109
20
52.4115
0
VERTEX
8
CUT
10
113.5359
20
52.4115
0
VERTEX
8
CUT
10
111.2679
20
48.4833
0
SEQEND
0
POLYLINE
8
CUT
66
1
70
0
0
VERTEX
8
CUT
10
110.2679
20
46.7513
0
VERTEX
8
CUT
10
108
20
42.8231
0
VERTEX
8
CUT
10
105.7321
20
46.7513
0
SEQEND
0
LINE
8
CUT
10
105.1962
20
51.4115
11
110.8038
21
51.4115
0
LINE
8
CUT
10
111.3038
20
50.5455
11
108.5
21
45.6891
0
LINE
8
CUT
10
107.5
20
45.6891
11
104.6962
21
50.5455
0
POLYLINE
8
CUT
66
1
70
0
0
VERTEX
8
CUT
10
106.4641
20
49.4833
0
VERTEX
8
CUT
10
105.9282
20
50.4115
0
VERTEX
8
CUT
10
107
20
50.4115
0
SEQEND
0
POLYLINE
8
CUT
66
1
70
0
0
VERTEX
8
CUT
10
109
20
50.4115
0
VERTEX
8
CUT
10
110.0718
20
50.4115
0
VERTEX
8
CUT
10
109.5359
20
49.4833
0
SEQEND
0
POLYLINE
8
CUT
66
1
70
0
0
VERTEX
8
CUT
10
108.5359
20
47.7513
0
VERTEX
8
CUT
10
108
20
46.8231
0
VERTEX
8
CUT
10
107.4641
20
47.7513
0
SEQEND
0
LINE
8
CUT
10
110.7321
20
39.8231
11
120
21
39.8231
0
LINE
8
CUT
10
120
20
47.2154
11
117.5
21
51.5455
0
LINE
8
CUT
10
116.5
20
51.5455
11
110.2321
21
40.6891
0
POLYLINE
8
CUT
66
1
70
0
0
VERTEX
8
CUT
10
113.7321
20
44.7513
0
VERTEX
8
CUT
10
111.4641
20
40.8231
0
VERTEX
8
CUT
10
116
20
40.8231
0
SEQEND
0
LINE
8
CUT
10
118
20
40.8231
11
120
21
40.8231
0
POLYLINE
8
CUT
66
1
70
0
0
VERTEX
8
CUT
10
119.2679
20
46.4833
0
VERTEX
8
CUT
10
117
20
50.4115
0
VERTEX
8
CUT
10
114.7321
20
46.4833
0
SEQEND
0
LINE
8
CUT
10
114.1962
20
41.8231
11
119.8038
21
41.8231
0
LINE
8
CUT
10
120
20
43.2154
11
117.5
21
47.5455
0
LINE
8
CUT
10
116.5
20
47.5455
11
113.6962
21
42.6891
0
POLYLINE
8
CUT
66
1
70
0
0
VERTEX
8
CUT
10
115.4641
20
43.7513
0
VERTEX
8
CUT
10
114.9282
20
42.8231
0
VERTEX
8
CUT
10
116
20
42.8231
0
SEQEND
0
POLYLINE
8
CUT
66
1
70
0
0
VERTEX
8
CUT
10
118
20
42.8231
0
VERTEX
8
CUT
10
119.0718
20
42.8231
0
VERTEX
8
CUT
10
118.5359
20
43.7513
0
SEQEND
0
POLYLINE
8
CUT
66
1
70
0
0
VERTEX
8
CUT
10
117.5359
20
45.4833
0
VERTEX
8
CUT
10
117
20
46.4115
0
VERTEX
8
CUT
10
116.4641
20
45.4833
0
SEQEND
0
LINE
8
CUT
10
120
20
51.2154
11
119.2321
21
52.5455
0
LINE
8
CUT
10
0
20
24.2346
11
6.2679
21
24.2346
0
LINE
8
CUT
10
6.7679
20
25.1007
11
0.5
21
35.9571
0
POLYLINE
8
CUT
66
1
70
0
0
VERTEX
8
CUT
10
1
20
25.2346
0
VERTEX
8
CUT
10
5.5359
20
25.2346
0
VERTEX
8
CUT
10
3.2679
20
29.1628
0
SEQEND
0
POLYLINE
8
CUT
66
1
70
0
0
VERTEX
8
CUT
10
2.2679
20
30.8949
0
VERTEX
8
CUT
10
0
20
34.8231
0
VERTEX
8
CUT
10
0
20
34.8231
0
SEQEND
0
LINE
8
CUT
10
0
20
26.2346
11
2.8038
21
26.2346
0
LINE
8
CUT
10
3.3038
20
27.1007
11
0.5
21
31.9571
0
POLYLINE
8
CUT
66
1
70
0
0
VERTEX
8
CUT
10
1
20
27.2346
0
VERTEX
8
CUT
10
2.0718
20
27.2346
0
VERTEX
8
CUT
10
1.5359
20
28.1628
0
SEQEND
0
POLYLINE
8
CUT
66
1
70
0
0
VERTEX
8
CUT
10
0.5359
20
29.8949
0
VERTEX
8
CUT
10
0
20
30.8231
0
VERTEX
8
CUT
10
0
20
30.8231
0
SEQEND
0
LINE
8
CUT
10
2.7321
20
37.8231
11
15.2679
21
37.8231
0
LINE
8
CUT
10
15.7679
20
36.9571
11
9.5
21
26.1007
0
LINE
8
CUT
10
8.5
20
26.1007
11
2.2321
21
36.9571
0
POLYLINE
8
CUT
66
1
70
0
0
VERTEX
8
CUT
10
5.7321
20
32.8949
0
VERTEX
8
CUT
10
3.4641
20
36.8231
0
VERTEX
8
CUT
10
8
20
36.8231
0
SEQEND
0
POLYLINE
8
CUT
66
1
70
0
0
VERTEX
8
CUT
10
10
20
36.8231
0
VERTEX
8
CUT
10
14.5359
20
36.8231
0
VERTEX
8
CUT
10
12.2679
20
32.8949
0
SEQEND
0
POLYLINE
8
CUT
66
1
70
0
0
VERTEX
8
CUT
10
11.2679
20
31.1628
0
VERTEX
8
CUT
10
9
20
27.2346
0
VERTEX
8
CUT
10
6.7321
20
31.1628
0
SEQEND
0
LINE
8
CUT
10
6.1962
20
35.8231
11
11.8038
21
35.8231
0
LINE
8
CUT
10
12.3038
20
34.9571
11
9.5
21
30.1007
0
LINE
8
CUT
10
8.5
20
30.1007
11
5.6962
21
34.9571
0
POLYLINE
8
CUT
66
1
70
0
0
VERTEX
8
CUT
10
7.4641
20
33.8949
0
VERTEX
8
CUT
10
6.9282
20
34.8231
0
VERTEX
8
CUT
10
8
20
34.8231
0
SEQEND
0
POLYLINE
8
CUT
66
1
70
0
0
VERTEX
8
CUT
10
10
20
34.8231
0
VERTEX
8
CUT
10
11.0718
20
34.8231
0
VERTEX
8
CUT
10
10.5359
20
33.8949
0
SEQEND
0
POLYLINE
8
CUT
66
1
70
0
0
VERTEX
8
CUT
10
9.5359
20
32.1628
0
VERTEX
8
CUT
10
9
20
31.2346
0
VERTEX
8
CUT
10
8.4641
20
32.1628
0
SEQEND
0
LINE
8
CUT
10
11.7321
20
24.2346
11
24.2679
21
24.2346
0
LINE
8
CUT
10
24.7679
20
25.1007
11
18.5
21
35.9571
0
LINE
8
CUT
10
17.5
20
35.9571
11
11.2321
21
25.1007
0
POLYLINE
8
CUT
66
1
70
0
0
VERTEX
8
CUT
10
14.7321
20
29.1628
0
VERTEX
8
CUT
10
12.4641
20
25.2346
0
VERTEX
8
CUT
10
17
20
25.2346
0
SEQEND
0
POLYLINE
8
CUT
66
1
70
0
0
VERTEX
8
CUT
10
19
20
25.2346
0
VERTEX
8
CUT
10
23.5359
20
25.2346
0
VERTEX
8
CUT
10
21.2679
20
29.1628
0
SEQEND
0
POLYLINE
8
CUT
66
1
70
0
0
VERTEX
8
CUT
10
20.2679
20
30.8949
0
VERTEX
8
CUT
10
18
20
34.8231
0
VERTEX
8
CUT
10
15.7321
20
30.8949
0
SEQEND
0
LINE
8
CUT
10
15.1962
20
26.2346
11
20.8038
21
26.2346
0
LINE
8
CUT
10
21.3038
20
27.1007
11
18.5
21
31.9571
0
LINE
8
CUT
10
17.5
20
31.9571
11
14.6962
21
27.1007
0
POLYLINE
8
CUT
66
1
70
0
0
VERTEX
8
CUT
10
16.4641
20
28.1628
0
VERTEX
8
CUT
10
15.9282
20
27.2346
0
VERTEX
8
CUT
10
17
20
27.2346
0
SEQEND
0
POLYLINE
8
CUT
66
1
70
0
0
VERTEX
8
CUT
10
19
20
27.2346
0
VERTEX
8
CUT
10
20.0718
20
27.2346
0
VERTEX
8
CUT
10
19.5359
20
28.1628
0
SEQEND
0
POLYLINE
8
CUT
66
1
70
0
0
VERTEX
8
CUT
10
18.5359
20
29.8949
0
VERTEX
8
CUT
10
18
20
30.8231
0
VERTEX
8
CUT
10
17.4641
20
29.8949
0
SEQEND
0
LINE
8
CUT
10
20.7321
20
37.8231
11
33.2679
21
37.8231
0
LINE
8
CUT
10
33.7679
20
36.9571
11
27.5
21
26.1007
0
LINE
8
CUT
10
26.5
20
26.1007
11
20.2321
21
36.9571
0
POLYLINE
8
CUT
66
1
70
0
0
VERTEX
8
CUT
10
23.7321
20
32.8949
0
VERTEX
8
CUT
10
21.4641
20
36.8231
0
VERTEX
8
CUT
10
26
20
36.8231
0
SEQEND
0
POLYLINE
8
CUT
66
1
70
0
0
VERTEX
8
CUT
10
28
20
36.8231
0
VERTEX
8
CUT
10
32.5359
20
36.8231
0
VERTEX
8
CUT
10
30.2679
20
32.8949
0
SEQEND
0
POLYLINE
8
CUT
66
1
70
0
0
VERTEX
8
CUT
10
29.2679
20
31.1628
0
VERTEX
8
CUT
10
27
20
27.2346
0
VERTEX
8
CUT
10
24.7321
20
31.1628
0
SEQEND
0
LINE
8
CUT
10
24.1962
20
35.8231
11
29.8038
21
35.8231
0
LINE
8
CUT
10
30.3038
20
34.9571
11
27.5
21
30.1007
0
LINE
8
CUT
10
26.5
20
30.1007
11
23.6962
21
34.9571
0
POLYLINE
8
CUT
66
1
70
0
0
VERTEX
8
CUT
10
25.4641
20
33.8949
0
VERTEX
8
CUT
10
24.9282
20
34.8231
0
VERTEX
8
CUT
10
26
20
34.8231
0
SEQEND
0
POLYLINE
8
CUT
66
1
70
0
0
VERTEX
8
CUT
10
28
20
34.8231
0
VERTEX
8
CUT
10
29.0718
20
34.8231
0
VERTEX
8
CUT
10
28.5359
20
33.8949
0
SEQEND
0
POLYLINE
8
CUT
66
1
70
0
0
VERTEX
8
CUT
10
27.5359
20
32.1628
0
VERTEX
8
CUT
10
27
20
31.2346
0
VERTEX
8
CUT
10
26.4641
20
32.1628
0
SEQEND
0
LINE
8
CUT
10
29.7321
20
24.2346
11
42.2679
21
24.2346
0
LINE
8
CUT
10
42.7679
20
25.1007
11
36.5
21
35.9571
0
LINE
8
CUT
10
35.5
20
35.9571
11
29.2321
21
25.1007
0
POLYLINE
8
CUT
66
1
70
0
0
VERTEX
8
CUT
10
32.7321
20
29.1628
0
VERTEX
8
CUT
10
30.4641
20
25.2346
0
VERTEX
8
CUT
10
35
20
25.2346
0
SEQEND
0
POLYLINE
8
CUT
66
1
70
0
0
VERTEX
8
CUT
10
37
20
25.2346
0
VERTEX
8
CUT
10
41.5359
20
25.2346
0
VERTEX
8
CUT
10
39.2679
20
29.1628
0
SEQEND
0
POLYLINE
8
CUT
66
1
70
0
0
VERTEX
8
CUT
10
38.2679
20
30.8949
0
VERTEX
8
CUT
10
36
20
34.8231
0
VERTEX
8
CUT
10
33.7321
20
30.8949
0
SEQEND
0
LINE
8
CUT
10
33.1962
20
26.2346
11
38.8038
21
26.2346
0
LINE
8
CUT
10
39.3038
20
27.1007
11
36.5
21
31.9571
0
LINE
8
CUT
10
35.5
20
31.9571
11
32.6962
21
27.1007
0
POLYLINE
8
CUT
66
1
70
0
0
VERTEX
8
CUT
10
34.4641
20
28.1628
0
VERTEX
8
CUT
10
33.9282
20
27.2346
0
VERTEX
8
CUT
10
35
20
27.2346
0
SEQEND
0
POLYLINE
8
CUT
66
1
70
0
0
VERTEX
8
CUT
10
37
20
27.2346
0
VERTEX
8
CUT
10
38.0718
20
27.2346
0
VERTEX
8
CUT
10
37.5359
20
28.1628
0
SEQEND
0
POLYLINE
8
CUT
66
1
70
0
0
VERTEX
8
CUT
10
36.5359
20
29.8949
0
VERTEX
8
CUT
10
36
20
30.8231
0
VERTEX
8
CUT
10
35.4641
20
29.8949
0
SEQEND
0
LINE
8
CUT
10
38.7321
20
37.8231
11
51.2679
21
37.8231
0
LINE
8
CUT
10
51.7679
20
36.9571
11
45.5
21
26.1007
0
LINE
8
CUT
10
44.5
20
26.1007
11
38.2321
21
36.9571
0
POLYLINE
8
CUT
66
1
70
0
0
VERTEX
8
CUT
10
41.7321
20
32.8949
0
VERTEX
8
CUT
10
39.4641
20
36.8231
0
VERTEX
8
CUT
10
44
20
36.8231
0
SEQEND
0
POLYLINE
8
CUT
66
1
70
0
0
VERTEX
8
CUT
10
46
20
36.8231
0
VERTEX
8
CUT
10
50.5359
20
36.8231
0
VERTEX
8
CUT
10
48.2679
20
32.8949
0
SEQEND
0
POLYLINE
8
CUT
66
1
70
0
0
VERTEX
8
CUT
10
47.2679
20
31.1628
0
VERTEX
8
CUT
10
45
20
27.2346
0
VERTEX
8
CUT
10
42.7321
20
31.1628
0
SEQEND
0
LINE
8
CUT
10
42.1962
20
35.8231
11
47.8038
21
35.8231
0
LINE
8
CUT
10
48.3038
20
34.9571
11
45.5
21
30.1007
0
LINE
8
CUT
10
44.5
20
30.1007
11
41.6962
21
34.9571
0
POLYLINE
8
CUT
66
1
70
0
0
VERTEX
8
CUT
10
43.4641
20
33.8949
0
VERTEX
8
CUT
10
42.9282
20
34.8231
0
VERTEX
8
CUT
10
44
20
34.8231
0
SEQEND
0
POLYLINE
8
CUT
66
1
70
0
0
VERTEX
8
CUT
10
46
20
34.8231
0
VERTEX
8
CUT
10
47.0718
20
34.8231
0
VERTEX
8
CUT
10
46.5359
20
33.8949
0
SEQEND
0
POLYLINE
8
CUT
66
1
70
0
0
VERTEX
8
CUT
10
45.5359
20
32.1628
0
VERTEX
8
CUT
10
45
20
31.2346
0
VERTEX
8
CUT
10
44.4641
20
32.1628
0
SEQEND
0
LINE
8
CUT
10
47.7321
20
24.2346
11
60.2679
21
24.2346
0
LINE
8
CUT
10
60.7679
20
25.1007
11
54.5
21
35.9571
0
LINE
8
CUT
10
53.5
20
35.9571
11
47.2321
21
25.1007
0
POLYLINE
8
CUT
66
1
70
0
0
VERTEX
8
CUT
10
50.7321
20
29.1628
0
VERTEX
8
CUT
10
48.4641
20
25.2346
0
VERTEX
8
CUT
10
53
20
25.2346
0
SEQEND
0
POLYLINE
8
CUT
66
1
70
0
0
VERTEX
8
CUT
10
55
20
25.2346
0
VERTEX
8
CUT
10
59.5359
20
25.2346
0
VERTEX
8
CUT
10
57.2679
20
29.1628
0
SEQEND
0
POLYLINE
8
CUT
66
1
70
0
0
VERTEX
8
CUT
10
56.2679
20
30.8949
0
VERTEX
8
CUT
10
54
20
34.8231
0
VERTEX
8
CUT
10
51.7321
20
30.8949
0
SEQEND
0
LINE
8
CUT
10
51.1962
20
26.2346
11
56.8038
21
26.2346
0
LINE
8
CUT
10
57.3038
20
27.1007
11
54.5
21
31.9571
0
LINE
8
CUT
10
53.5
20
31.9571
11
50.6962
21
27.1007
0
POLYLINE
8
CUT
66
1
70
0
0
VERTEX
8
CUT
10
52.4641
20
28.1628
0
VERTEX
8
CUT
10
51.9282
20
27.2346
0
VERTEX
8
CUT
10
53
20
27.2346
0
SEQEND
0
POLYLINE
8
CUT
66
1
70
0
0
VERTEX
8
CUT
10
55
20
27.2346
0
VERTEX
8
CUT
10
56.0718
20
27.2346
0
VERTEX
8
CUT
10
55.5359
20
28.1628
0
SEQEND
0
POLYLINE
8
CUT
66
1
70
0
0
VERTEX
8
CUT
10
54.5359
20
29.8949
0
VERTEX
8
CUT
10
54
20
30.8231
0
VERTEX
8
CUT
10
53.4641
20
29.8949
0
SEQEND
0
LINE
8
CUT
10
56.7321
20
37.8231
11
69.2679
21
37.8231
0
LINE
8
CUT
10
69.7679
20
36.9571
11
63.5
21
26.1007
0
LINE
8
CUT
10
62.5
20
26.1007
11
56.2321
21
36.9571
0
POLYLINE
8
CUT
66
1
70
0
0
VERTEX
8
CUT
10
59.7321
20
32.8949
0
VERTEX
8
CUT
10
57.4641
20
36.8231
0
VERTEX
8
CUT
10
62
20
36.8231
0
SEQEND
0
POLYLINE
8
CUT
66
1
70
0
0
VERTEX
8
CUT
10
64
20
36.8231
0
VERTEX
8
CUT
10
68.5359
20
36.8231
0
VERTEX
8
CUT
10
66.2679
20
32.8949
0
SEQEND
0
POLYLINE
8
CUT
66
1
70
0
0
VERTEX
8
CUT
10
65.2679
20
31.1628
0
VERTEX
8
CUT
10
63
20
27.2346
0
VERTEX
8
CUT
10
60.7321
20
31.1628
0
SEQEND
0
LINE
8
CUT
10
60.1962
20
35.8231
11
65.8038
21
35.8231
0
LINE
8
CUT
10
66.3038
20
34.9571
11
63.5
21
30.1007
0
LINE
8
CUT
10
62.5
20
30.1007
11
59.6962
21
34.9571
0
POLYLINE
8
CUT
66
1
70
0
0
VERTEX
8
CUT
10
61.4641
20
33.8949
0
VERTEX
8
CUT
10
60.9282
20
34.8231
0
VERTEX
8
CUT
10
62
20
34.8231
0
SEQEND
0
POLYLINE
8
CUT
66
1
70
0
0
VERTEX
8
CUT
10
64
20
34.8231
0
VERTEX
8
CUT
10
65.0718
20
34.8231
0
VERTEX
8
CUT
10
64.5359
20
33.8949
0
SEQEND
0
POLYLINE
8
CUT
66
1
70
0
0
VERTEX
8
CUT
10
63.5359
20
32.1628
0
VERTEX
8
CUT
10
63
20
31.2346
0
VERTEX
8
CUT
10
62.4641
20
32.1628
0
SEQEND
0
LINE
8
CUT
10
65.7321
20
24.2346
11
78.2679
21
24.2346
0
LINE
8
CUT
10
78.7679
20
25.1007
11
72.5
21
35.9571
0
LINE
8
CUT
10
71.5
20
35.9571
11
65.2321
21
25.1007
0
POLYLINE
8
CUT
66
1
70
0
0
VERTEX
8
CUT
10
68.7321
20
29.1628
0
VERTEX
8
CUT
10
66.4641
20
25.2346
0
VERTEX
8
CUT
10
71
20
25.2346
0
SEQEND
0
POLYLINE
8
CUT
66
1
70
0
0
VERTEX
8
CUT
10
73
20
25.2346
0
VERTEX
8
CUT
10
77.5359
20
25.2346
0
VERTEX
8
CUT
10
75.2679
20
29.1628
0
SEQEND
0
POLYLINE
8
CUT
66
1
70
0
0
VERTEX
8
CUT
10
74.2679
20
30.8949
0
VERTEX
8
CUT
10
72
20
34.8231
0
VERTEX
8
CUT
10
69.7321
20
30.8949
0
SEQEND
0
LINE
8
CUT
10
69.1962
20
26.2346
11
74.8038
21
26.2346
0
LINE
8
CUT
10
75.3038
20
27.1007
11
72.5
21
31.9571
0
LINE
8
CUT
10
71.5
20
31.9571
11
68.6962
21
27.1007
0
POLYLINE
8
CUT
66
1
70
0
0
VERTEX
8
CUT
10
70.4641
20
28.1628
0
VERTEX
8
CUT
10
69.9282
20
27.2346
0
VERTEX
8
CUT
10
71
20
27.2346
0
SEQEND
0
POLYLINE
8
CUT
66
1
70
0
0
VERTEX
8
CUT
10
73
20
27.2346
0
VERTEX
8
CUT
10
74.0718
20
27.2346
0
VERTEX
8
CUT
10
73.5359
20
28.1628
0
SEQEND
0
POLYLINE
8
CUT
66
1
70
0
0
VERTEX
8
CUT
10
72.5359
20
29.8949
0
VERTEX
8
CUT
10
72
20
30.8231
0
VERTEX
8
CUT
10
71.4641
20
29.8949
0
SEQEND
0
LINE
8
CUT
10
74.7321
20
37.8231
11
87.2679
21
37.8231
0
LINE
8
CUT
10
87.7679
20
36.9571
11
81.5
21
26.1007
0
LINE
8
CUT
10
80.5
20
26.1007
11
74.2321
21
36.9571
0
POLYLINE
8
CUT
66
1
70
0
0
VERTEX
8
CUT
10
77.7321
20
32.8949
0
VERTEX
8
CUT
10
75.4641
20
36.8231
0
VERTEX
8
CUT
10
80
20
36.8231
0
SEQEND
0
POLYLINE
8
CUT
66
1
70
0
0
VERTEX
8
CUT
10
82
20
36.8231
0
VERTEX
8
CUT
10
86.5359
20
36.8231
0
VERTEX
8
CUT
10
84.2679
20
32.8949
0
SEQEND
0
POLYLINE
8
CUT
66
1
70
0
0
VERTEX
8
CUT
10
83.2679
20
31.1628
0
VERTEX
8
CUT
10
81
20
27.2346
0
VERTEX
8
CUT
10
78.7321
20
31.1628
0
SEQEND
0
LINE
8
CUT
10
78.1962
20
35.8231
11
83.8038
21
35.8231
0
LINE
8
CUT
10
84.3038
20
34.9571
11
81.5
21
30.1007
0
LINE
8
CUT
10
80.5
20
30.1007
11
77.6962
21
34.9571
0
POLYLINE
8
CUT
66
1
70
0
0
VERTEX
8
CUT
10
79.4641
20
33.8949
0
VERTEX
8
CUT
10
78.9282
20
34.8231
0
VERTEX
8
CUT
10
80
20
34.8231
0
SEQEND
0
POLYLINE
8
CUT
66
1
70
0
0
VERTEX
8
CUT
10
82
20
34.8231
0
VERTEX
8
CUT
10
83.0718
20
34.8231
0
VERTEX
8
CUT
10
82.5359
20
33.8949
0
SEQEND
0
POLYLINE
8
CUT
66
1
70
0
0
VERTEX
8
CUT
10
81.5359
20
32.1628
0
VERTEX
8
CUT
10
81
20
31.2346
0
VERTEX
8
CUT
10
80.4641
20
32.1628
0
SEQEND
0
LINE
8
CUT
10
83.7321
20
24.2346
11
96.2679
21
24.2346
0
LINE
8
CUT
10
96.7679
20
25.1007
11
90.5
21
35.9571
0
LINE
8
CUT
10
89.5
20
35.9571
11
83.2321
21
25.1007
0
POLYLINE
8
CUT
66
1
70
0
0
VERTEX
8
CUT
10
86.7321
20
29.1628
0
VERTEX
8
CUT
10
84.4641
20
25.2346
0
VERTEX
8
CUT
10
89
20
25.2346
0
SEQEND
0
POLYLINE
8
CUT
66
1
70
0
0
VERTEX
8
CUT
10
91
20
25.2346
0
VERTEX
8
CUT
10
95.5359
20
25.2346
0
VERTEX
8
CUT
10
93.2679
20
29.1628
0
SEQEND
0
POLYLINE
8
CUT
66
1
70
0
0
VERTEX
8
CUT
10
92.2679
20
30.8949
0
VERTEX
8
CUT
10
90
20
34.8231
0
VERTEX
8
CUT
10
87.7321
20
30.8949
0
SEQEND
0
LINE
8
CUT
10
87.1962
20
26.2346
11
92.8038
21
26.2346
0
LINE
8
CUT
10
93.3038
20
27.1007
11
90.5
21
31.9571
0
LINE
8
CUT
10
89.5
20
31.9571
11
86.6962
21
27.1007
0
POLYLINE
8
CUT
66
1
70
0
0
VERTEX
8
CUT
10
88.4641
20
28.1628
0
VERTEX
8
CUT
10
87.9282
20
27.2346
0
VERTEX
8
CUT
10
89
20
27.2346
0
SEQEND
0
POLYLINE
8
CUT
66
1
70
0
0
VERTEX
8
CUT
10
91
20
27.2346
0
VERTEX
8
CUT
10
92.0718
20
27.2346
0
VERTEX
8
CUT
10
91.5359
20
28.1628
0
SEQEND
0
POLYLINE
8
CUT
66
1
70
0
0
VERTEX
8
CUT
10
90.5359
20
29.8949
0
VERTEX
8
CUT
10
90
20
30.8231
0
VERTEX
8
CUT
10
89.4641
20
29.8949
0
SEQEND
0
LINE
8
CUT
10
92.7321
20
37.8231
11
105.2679
21
37.8231
0
LINE
8
CUT
10
105.7679
20
36.9571
11
99.5
21
26.1007
0
LINE
8
CUT
10
98.5
20
26.1007
11
92.2321
21
36.9571
0
POLYLINE
8
CUT
66
1
70
0
0
VERTEX
8
CUT
10
95.7321
20
32.8949
0
VERTEX
8
CUT
10
93.4641
20
36.8231
0
VERTEX
8
CUT
10
98
20
36.8231
0
SEQEND
0
POLYLINE
8
CUT
66
1
70
0
0
VERTEX
8
CUT
10
100
20
36.8231
0
VERTEX
8
CUT
10
104.5359
20
36.8231
0
VERTEX
8
CUT
10
102.2679
20
32.8949
0
SEQEND
0
POLYLINE
8
CUT
66
1
70
0
0
VERTEX
8
CUT
10
101.2679
20
31.1628
0
VERTEX
8
CUT
10
99
20
27.2346
0
VERTEX
8
CUT
10
96.7321
20
31.1628
0
SEQEND
0
LINE
8
CUT
10
96.1962
20
35.8231
11
101.8038
21
35.8231
0
LINE
8
CUT
10
102.3038
20
34.9571
11
99.5
21
30.1007
0
LINE
8
CUT
10
98.5
20
30.1007
11
95.6962
21
34.9571
0
POLYLINE
8
CUT
66
1
70
0
0
VERTEX
8
CUT
10
97.4641
20
33.8949
0
VERTEX
8
CUT
10
96.9282
20
34.8231
0
VERTEX
8
CUT
10
98
20
34.8231
0
SEQEND
0
POLYLINE
8
CUT
66
1
70
0
0
VERTEX
8
CUT
10
100
20
34.8231
0
VERTEX
8
CUT
10
101.0718
20
34.8231
0
VERTEX
8
CUT
10
100.5359
20
33.8949
0
SEQEND
0
POLYLINE
8
CUT
66
1
70
0
0
VERTEX
8
CUT
10
99.5359
20
32.1628
0
VERTEX
8
CUT
10
99
20
31.2346
0
VERTEX
8
CUT
10
98.4641
20
32.1628
0
SEQEND
0
LINE
8
CUT
10
101.7321
20
24.2346
11
114.2679
21
24.2346
0
LINE
8
CUT
10
114.7679
20
25.1007
11
108.5
21
35.9571
0
LINE
8
CUT
10
107.5
20
35.9571
11
101.2321
21
25.1007
0
POLYLINE
8
CUT
66
1
70
0
0
VERTEX
8
CUT
10
104.7321
20
29.1628
0
VERTEX
8
CUT
10
102.4641
20
25.2346
0
VERTEX
8
CUT
10
107
20
25.2346
0
SEQEND
0
POLYLINE
8
CUT
66
1
70
0
0
VERTEX
8
CUT
10
109
20
25.2346
0
VERTEX
8
CUT
10
113.5359
20
25.2346
0
VERTEX
8
CUT
10
111.2679
20
29.1628
0
SEQEND
0
POLYLINE
8
CUT
66
1
70
0
0
VERTEX
8
CUT
10
110.2679
20
30.8949
0
VERTEX
8
CUT
10
108
20
34.8231
0
VERTEX
8
CUT
10
105.7321
20
30.8949
0
SEQEND
0
LINE
8
CUT
10
105.1962
20
26.2346
11
110.8038
21
26.2346
0
LINE
8
CUT
10
111.3038
20
27.1007
11
108.5
21
31.9571
0
LINE
8
CUT
10
107.5
20
31.9571
11
104.6962
21
27.1007
0
POLYLINE
8
CUT
66
1
70
0
0
VERTEX
8
CUT
10
106.4641
20
28.1628
0
VERTEX
8
CUT
10
105.9282
20
27.2346
0
VERTEX
8
CUT
10
107
20
27.2346
0
SEQEND
0
POLYLINE
8
CUT
66
1
70
0
0
VERTEX
8
CUT
10
109
20
27.2346
0
VERTEX
8
CUT
10
110.0718
20
27.2346
0
VERTEX
8
CUT
10
109.5359
20
28.1628
0
SEQEND
0
POLYLINE
8
CUT
66
1
70
0
0
VERTEX
8
CUT
10
108.5359
20
29.8949
0
VERTEX
8
CUT
10
108
20
30.8231
0
VERTEX
8
CUT
10
107.4641
20
29.8949
0
SEQEND
0
LINE
8
CUT
10
110.7321
20
37.8231
11
120
21
37.8231
0
LINE
8
CUT
10
120
20
30.4308
11
117.5
21
26.1007
0
LINE
8
CUT
10
116.5
20
26.1007
11
110.2321
21
36.9571
0
POLYLINE
8
CUT
66
1
70
0
0
VERTEX
8
CUT
10
113.7321
20
32.8949
0
VERTEX
8
CUT
10
111.4641
20
36.8231
0
VERTEX
8
CUT
10
116
20
36.8231
0
SEQEND
0
LINE
8
CUT
10
118
20
36.8231
11
120
21
36.8231
0
POLYLINE
8
CUT
66
1
70
0
0
VERTEX
8
CUT
10
119.2679
20
31.1628
0
VERTEX
8
CUT
10
117
20
27.2346
0
VERTEX
8
CUT
10
114.7321
20
31.1628
0
SEQEND
0
LINE
8
CUT
10
114.1962
20
35.8231
11
119.8038
21
35.8231
0
LINE
8
CUT
10
120
20
34.4308
11
117.5
21
30.1007
0
LINE
8
CUT
10
116.5
20
30.1007
11
113.6962
21
34.9571
0
POLYLINE
8
CUT
66
1
70
0
0
VERTEX
8
CUT
10
115.4641
20
33.8949
0
VERTEX
8
CUT
10
114.9282
20
34.8231
0
VERTEX
8
CUT
10
116
20
34.8231
0
SEQEND
0
POLYLINE
8
CUT
66
1
70
0
0
VERTEX
8
CUT
10
118
20
34.8231
0
VERTEX
8
CUT
10
119.0718
20
34.8231
0
VERTEX
8
CUT
10
118.5359
20
33.8949
0
SEQEND
0
POLYLINE
8
CUT
66
1
70
0
0
VERTEX
8
CUT
10
117.5359
20
32.1628
0
VERTEX
8
CUT
10
117
20
31.2346
0
VERTEX
8
CUT
10
116.4641
20
32.1628
0
SEQEND
0
LINE
8
CUT
10
120
20
26.4308
11
119.2321
21
25.1007
0
LINE
8
CUT
10
0
20
22.2346
11
6.2679
21
22.2346
0
LINE
8
CUT
10
6.7679
20
21.3686
11
0.5
21
10.5122
0
POLYLINE
8
CUT
66
1
70
0
0
VERTEX
8
CUT
10
1
20
21.2346
0
VERTEX
8
CUT
10
5.5359
20
21.2346
0
VERTEX
8
CUT
10
3.2679
20
17.3064
0
SEQEND
0
POLYLINE
8
CUT
66
1
70
0
0
VERTEX
8
CUT
10
2.2679
20
15.5744
0
VERTEX
8
CUT
10
0
20
11.6462
0
VERTEX
8
CUT
10
0
20
11.6462
0
SEQEND
0
LINE
8
CUT
10
0
20
20.2346
11
2.8038
21
20.2346
0
LINE
8
CUT
10
3.3038
20
19.3686
11
0.5
21
14.5122
0
POLYLINE
8
CUT
66
1
70
0
0
VERTEX
8
CUT
10
1
20
19.2346
0
VERTEX
8
CUT
10
2.0718
20
19.2346
0
VERTEX
8
CUT
10
1.5359
20
18.3064
0
SEQEND
0
POLYLINE
8
CUT
66
1
70
0
0
VERTEX
8
CUT
10
0.5359
20
16.5744
0
VERTEX
8
CUT
10
0
20
15.6462
0
VERTEX
8
CUT
10
0
20
15.6462
0
SEQEND
0
LINE
8
CUT
10
2.7321
20
8.6462
11
15.2679
21
8.6462
0
LINE
8
CUT
10
15.7679
20
9.5122
11
9.5
21
20.3686
0
LINE
8
CUT
10
8.5
20
20.3686
11
2.2321
21
9.5122
0
POLYLINE
8
CUT
66
1
70
0
0
VERTEX
8
CUT
10
5.7321
20
13.5744
0
VERTEX
8
CUT
10
3.4641
20
9.6462
0
VERTEX
8
CUT
10
8
20
9.6462
0
SEQEND
0
POLYLINE
8
CUT
66
1
70
0
0
VERTEX
8
CUT
10
10
20
9.6462
0
VERTEX
8
CUT
10
14.5359
20
9.6462
0
VERTEX
8
CUT
10
12.2679
20
13.5744
0
SEQEND
0
POLYLINE
8
CUT
66
1
70
0
0
VERTEX
8
CUT
10
11.2679
20
15.3064
0
VERTEX
8
CUT
10
9
20
19.2346
0
VERTEX
8
CUT
10
6.7321
20
15.3064
0
SEQEND
0
LINE
8
CUT
10
6.1962
20
10.6462
11
11.8038
21
10.6462
0
LINE
8
CUT
10
12.3038
20
11.5122
11
9.5
21
16.3686
0
LINE
8
CUT
10
8.5
20
16.3686
11
5.6962
21
11.5122
0
POLYLINE
8
CUT
66
1
70
0
0
VERTEX
8
CUT
10
7.4641
20
12.5744
0
VERTEX
8
CUT
10
6.9282
20
11.6462
0
VERTEX
8
CUT
10
8
20
11.6462
0
SEQEND
0
POLYLINE
8
CUT
66
1
70
0
0
VERTEX
8
CUT
10
10
20
11.6462
0
VERTEX
8
CUT
10
11.0718
20
11.6462
0
VERTEX
8
CUT
10
10.5359
20
12.5744
0
SEQEND
0
POLYLINE
8
CUT
66
1
70
0
0
VERTEX
8
CUT
10
9.5359
20
14.3064
0
VERTEX
8
CUT
10
9
20
15.2346
0
VERTEX
8
CUT
10
8.4641
20
14.3064
0
SEQEND
0
LINE
8
CUT
10
11.7321
20
22.2346
11
24.2679
21
22.2346
0
LINE
8
CUT
10
24.7679
20
21.3686
11
18.5
21
10.5122
0
LINE
8
CUT
10
17.5
20
10.5122
11
11.2321
21
21.3686
0
POLYLINE
8
CUT
66
1
70
0
0
VERTEX
8
CUT
10
14.7321
20
17.3064
0
VERTEX
8
CUT
10
12.4641
20
21.2346
0
VERTEX
8
CUT
10
17
20
21.2346
0
SEQEND
0
POLYLINE
8
CUT
66
1
70
0
0
VERTEX
8
CUT
10
19
20
21.2346
0
VERTEX
8
CUT
10
23.5359
20
21.2346
0
VERTEX
8
CUT
10
21.2679
20
17.3064
0
SEQEND
0
POLYLINE
8
CUT
66
1
70
0
0
VERTEX
8
CUT
10
20.2679
20
15.5744
0
VERTEX
8
CUT
10
18
20
11.6462
0
VERTEX
8
CUT
10
15.7321
20
15.5744
0
SEQEND
0
LINE
8
CUT
10
15.1962
20
20.2346
11
20.8038
21
20.2346
0
LINE
8
CUT
10
21.3038
20
19.3686
11
18.5
21
14.5122
0
LINE
8
CUT
10
17.5
20
14.5122
11
14.6962
21
19.3686
0
POLYLINE
8
CUT
66
1
70
0
0
VERTEX
8
CUT
10
16.4641
20
18.3064
0
VERTEX
8
CUT
10
15.9282
20
19.2346
0
VERTEX
8
CUT
10
17
20
19.2346
0
SEQEND
0
POLYLINE
8
CUT
66
1
70
0
0
VERTEX
8
CUT
10
19
20
19.2346
0
VERTEX
8
CUT
10
20.0718
20
19.2346
0
VERTEX
8
CUT
10
19.5359
20
18.3064
0
SEQEND
0
POLYLINE
8
CUT
66
1
70
0
0
VERTEX
8
CUT
10
18.5359
20
16.5744
0
VERTEX
8
CUT
10
18
20
15.6462
0
VERTEX
8
CUT
10
17.4641
20
16.5744
0
SEQEND
0
LINE
8
CUT
10
20.7321
20
8.6462
11
33.2679
21
8.6462
0
LINE
8
CUT
10
33.7679
20
9.5122
11
27.5
21
20.3686
0
LINE
8
CUT
10
26.5
20
20.3686
11
20.2321
21
9.5122
0
POLYLINE
8
CUT
66
1
70
0
0
VERTEX
8
CUT
10
23.7321
20
13.5744
0
VERTEX
8
CUT
10
21.4641
20
9.6462
0
VERTEX
8
CUT
10
26
20
9.6462
0
SEQEND
0
POLYLINE
8
CUT
66
1
70
0
0
VERTEX
8
CUT
10
28
20
9.6462
0
VERTEX
8
CUT
10
32.5359
20
9.6462
0
VERTEX
8
CUT
10
30.2679
20
13.5744
0
SEQEND
0
POLYLINE
8
CUT
66
1
70
0
0
VERTEX
8
CUT
10
29.2679
20
15.3064
0
VERTEX
8
CUT
10
27
20
19.2346
0
VERTEX
8
CUT
10
24.7321
20
15.3064
0
SEQEND
0
LINE
8
CUT
10
24.1962
20
10.6462
11
29.8038
21
10.6462
0
LINE
8
CUT
10
30.3038
20
11.5122
11
27.5
21
16.3686
0
LINE
8
CUT
10
26.5
20
16.3686
11
23.6962
21
11.5122
0
POLYLINE
8
CUT
66
1
70
0
0
VERTEX
8
CUT
10
25.4641
20
12.5744
0
VERTEX
8
CUT
10
24.9282
20
11.6462
0
VERTEX
8
CUT
10
26
20
11.6462
0
SEQEND
0
POLYLINE
8
CUT
66
1
70
0
0
VERTEX
8
CUT
10
28
20
11.6462
0
VERTEX
8
CUT
10
29.0718
20
11.6462
0
VERTEX
8
CUT
10
28.5359
20
12.5744
0
SEQEND
0
POLYLINE
8
CUT
66
1
70
0
0
VERTEX
8
CUT
10
27.5359
20
14.3064
0
VERTEX
8
CUT
10
27
20
15.2346
0
VERTEX
8
CUT
10
26.4641
20
14.3064
0
SEQEND
0
LINE
8
CUT
10
29.7321
20
22.2346
11
42.2679
21
22.2346
0
LINE
8
CUT
10
42.7679
20
21.3686
11
36.5
21
10.5122
0
LINE
8
CUT
10
35.5
20
10.5122
11
29.2321
21
21.3686
0
POLYLINE
8
CUT
66
1
70
0
0
VERTEX
8
CUT
10
32.7321
20
17.3064
0
VERTEX
8
CUT
10
30.4641
20
21.2346
0
VERTEX
8
CUT
10
35
20
21.2346
0
SEQEND
0
POLYLINE
8
CUT
66
1
70
0
0
VERTEX
8
CUT
10
37
20
21.2346
0
VERTEX
8
CUT
10
41.5359
20
21.2346
0
VERTEX
8
CUT
10
39.2679
20
17.3064
0
SEQEND
0
POLYLINE
8
CUT
66
1
70
0
0
VERTEX
8
CUT
10
38.2679
20
15.5744
0
VERTEX
8
CUT
10
36
20
11.6462
0
VERTEX
8
CUT
10
33.7321
20
15.5744
0
SEQEND
0
LINE
8
CUT
10
33.1962
20
20.2346
11
38.8038
21
20.2346
0
LINE
8
CUT
10
39.3038
20
19.3686
11
36.5
21
14.5122
0
LINE
8
CUT
10
35.5
20
14.5122
11
32.6962
21
19.3686
0
POLYLINE
8
CUT
66
1
70
0
0
VERTEX
8
CUT
10
34.4641
20
18.3064
0
VERTEX
8
CUT
10
33.9282
20
19.2346
0
VERTEX
8
CUT
10
35
20
19.2346
0
SEQEND
0
POLYLINE
8
CUT
66
1
70
0
0
VERTEX
8
CUT
10
37
20
19.2346
0
VERTEX
8
CUT
10
38.0718
20
19.2346
0
VERTEX
8
CUT
10
37.5359
20
18.3064
0
SEQEND
0
POLYLINE
8
CUT
66
1
70
0
0
VERTEX
8
CUT
10
36.5359
20
16.5744
0
VERTEX
8
CUT
10
36
20
15.6462
0
VERTEX
8
CUT
10
35.4641
20
16.5744
0
SEQEND
0
LINE
8
CUT
10
38.7321
20
8.6462
11
51.2679
21
8.6462
0
LINE
8
CUT
10
51.7679
20
9.5122
11
45.5
21
20.3686
0
LINE
8
CUT
10
44.5
20
20.3686
11
38.2321
21
9.5122
0
POLYLINE
8
CUT
66
1
70
0
0
VERTEX
8
CUT
10
41.7321
20
13.5744
0
VERTEX
8
CUT
10
39.4641
20
9.6462
0
VERTEX
8
CUT
10
44
20
9.6462
0
SEQEND
0
POLYLINE
8
CUT
66
1
70
0
0
VERTEX
8
CUT
10
46
20
9.6462
0
VERTEX
8
CUT
10
50.5359
20
9.6462
0
VERTEX
8
CUT
10
48.2679
20
13.5744
0
SEQEND
0
POLYLINE
8
CUT
66
1
70
0
0
VERTEX
8
CUT
10
47.2679
20
15.3064
0
VERTEX
8
CUT
10
45
20
19.2346
0
VERTEX
8
CUT
10
42.7321
20
15.3064
0
SEQEND
0
LINE
8
CUT
10
42.1962
20
10.6462
11
47.8038
21
10.6462
0
LINE
8
CUT
10
48.3038
20
11.5122
11
45.5
21
16.3686
0
LINE
8
CUT
10
44.5
20
16.3686
11
41.6962
21
11.5122
0
POLYLINE
8
CUT
66
1
70
0
0
VERTEX
8
CUT
10
43.4641
20
12.5744
0
VERTEX
8
CUT
10
42.9282
20
11.6462
0
VERTEX
8
CUT
10
44
20
11.6462
0
SEQEND
0
POLYLINE
8
CUT
66
1
70
0
0
VERTEX
8
CUT
10
46
20
11.6462
0
VERTEX
8
CUT
10
47.0718
20
11.6462
0
VERTEX
8
CUT
10
46.5359
20
12.5744
0
SEQEND
0
POLYLINE
8
CUT
66
1
70
0
0
VERTEX
8
CUT
10
45.5359
20
14.3064
0
VERTEX
8
CUT
10
45
20
15.2346
0
VERTEX
8
CUT
10
44.4641
20
14.3064
0
SEQEND
0
LINE
8
CUT
10
47.7321
20
22.2346
11
60.2679
21
22.2346
0
LINE
8
CUT
10
60.7679
20
21.3686
11
54.5
21
10.5122
0
LINE
8
CUT
10
53.5
20
10.5122
11
47.2321
21
21.3686
0
POLYLINE
8
CUT
66
1
70
0
0
VERTEX
8
CUT
10
50.7321
20
17.3064
0
VERTEX
8
CUT
10
48.4641
20
21.2346
0
VERTEX
8
CUT
10
53
20
21.2346
0
SEQEND
0
POLYLINE
8
CUT
66
1
70
0
0
VERTEX
8
CUT
10
55
20
21.2346
0
VERTEX
8
CUT
10
59.5359
20
21.2346
0
VERTEX
8
CUT
10
57.2679
20
17.3064
0
SEQEND
0
POLYLINE
8
CUT
66
1
70
0
0
VERTEX
8
CUT
10
56.2679
20
15.5744
0
VERTEX
8
CUT
10
54
20
11.6462
0
VERTEX
8
CUT
10
51.7321
20
15.5744
0
SEQEND
0
LINE
8
CUT
10
51.1962
20
20.2346
11
56.8038
21
20.2346
0
LINE
8
CUT
10
57.3038
20
19.3686
11
54.5
21
14.5122
0
LINE
8
CUT
10
53.5
20
14.5122
11
50.6962
21
19.3686
0
POLYLINE
8
CUT
66
1
70
0
0
VERTEX
8
CUT
10
52.4641
20
18.3064
0
VERTEX
8
CUT
10
51.9282
20
19.2346
0
VERTEX
8
CUT
10
53
20
19.2346
0
SEQEND
0
POLYLINE
8
CUT
66
1
70
0
0
VERTEX
8
CUT
10
55
20
19.2346
0
VERTEX
8
CUT
10
56.0718
20
19.2346
0
VERTEX
8
CUT
10
55.5359
20
18.3064
0
SEQEND
0
POLYLINE
8
CUT
66
1
70
0
0
VERTEX
8
CUT
10
54.5359
20
16.5744
0
VERTEX
8
CUT
10
54
20
15.6462
0
VERTEX
8
CUT
10
53.4641
20
16.5744
0
SEQEND
0
LINE
8
CUT
10
56.7321
20
8.6462
11
69.2679
21
8.6462
0
LINE
8
CUT
10
69.7679
20
9.5122
11
63.5
21
20.3686
0
LINE
8
CUT
10
62.5
20
20.3686
11
56.2321
21
9.5122
0
POLYLINE
8
CUT
66
1
70
0
0
VERTEX
8
CUT
10
59.7321
20
13.5744
0
VERTEX
8
CUT
10
57.4641
20
9.6462
0
VERTEX
8
CUT
10
62
20
9.6462
0
SEQEND
0
POLYLINE
8
CUT
66
1
70
0
0
VERTEX
8
CUT
10
64
20
9.6462
0
VERTEX
8
CUT
10
68.5359
20
9.6462
0
VERTEX
8
CUT
10
66.2679
20
13.5744
0
SEQEND
0
POLYLINE
8
CUT
66
1
70
0
0
VERTEX
8
CUT
10
65.2679
20
15.3064
0
VERTEX
8
CUT
10
63
20
19.2346
0
VERTEX
8
CUT
10
60.7321
20
15.3064
0
SEQEND
0
LINE
8
CUT
10
60.1962
20
10.6462
11
65.8038
21
10.6462
0
LINE
8
CUT
10
66.3038
20
11.5122
11
63.5
21
16.3686
0
LINE
8
CUT
10
62.5
20
16.3686
11
59.6962
21
11.5122
0
POLYLINE
8
CUT
66
1
70
0
0
VERTEX
8
CUT
10
61.4641
20
12.5744
0
VERTEX
8
CUT
10
60.9282
20
11.6462
0
VERTEX
8
CUT
10
62
20
11.6462
0
SEQEND
0
POLYLINE
8
CUT
66
1
70
0
0
VERTEX
8
CUT
10
64
20
11.6462
0
VERTEX
8
CUT
10
65.0718
20
11.6462
0
VERTEX
8
CUT
10
64.5359
20
12.5744
0
SEQEND
0
POLYLINE
8
CUT
66
1
70
0
0
VERTEX
8
CUT
10
63.5359
20
14.3064
0
VERTEX
8
CUT
10
63
20
15.2346
0
VERTEX
8
CUT
10
62.4641
20
14.3064
0
SEQEND
0
LINE
8
CUT
10
65.7321
20
22.2346
11
78.2679
21
22.2346
0
LINE
8
CUT
10
78.7679
20
21.3686
11
72.5
21
10.5122
0
LINE
8
CUT
10
71.5
20
10.5122
11
65.2321
21
21.3686
0
POLYLINE
8
CUT
66
1
70
0
0
VERTEX
8
CUT
10
68.7321
20
17.3064
0
VERTEX
8
CUT
10
66.4641
20
21.2346
0
VERTEX
8
CUT
10
71
20
21.2346
0
SEQEND
0
POLYLINE
8
CUT
66
1
70
0
0
VERTEX
8
CUT
10
73
20
21.2346
0
VERTEX
8
CUT
10
77.5359
20
21.2346
0
VERTEX
8
CUT
10
75.2679
20
17.3064
0
SEQEND
0
POLYLINE
8
CUT
66
1
70
0
0
VERTEX
8
CUT
10
74.2679
20
15.5744
0
VERTEX
8
CUT
10
72
20
11.6462
0
VERTEX
8
CUT
10
69.7321
20
15.5744
0
SEQEND
0
LINE
8
CUT
10
69.1962
20
20.2346
11
74.8038
21
20.2346
0
LINE
8
CUT
10
75.3038
20
19.3686
11
72.5
21
14.5122
0
LINE
8
CUT
10
71.5
20
14.5122
11
68.6962
21
19.3686
0
POLYLINE
8
CUT
66
1
70
0
0
VERTEX
8
CUT
10
70.4641
20
18.3064
0
VERTEX
8
CUT
10
69.9282
20
19.2346
0
VERTEX
8
CUT
10
71
20
19.2346
0
SEQEND
0
POLYLINE
8
CUT
66
1
70
0
0
VERTEX
8
CUT
10
73
20
19.2346
0
VERTEX
8
CUT
10
74.0718
20
19.2346
0
VERTEX
8
CUT
10
73.5359
20
18.3064
0
SEQEND
0
POLYLINE
8
CUT
66
1
70
0
0
VERTEX
8
CUT
10
72.5359
20
16.5744
0
VERTEX
8
CUT
10
72
20
15.6462
0
VERTEX
8
CUT
10
71.4641
20
16.5744
0
SEQEND
0
LINE
8
CUT
10
74.7321
20
8.6462
11
87.2679
21
8.6462
0
LINE
8
CUT
10
87.7679
20
9.5122
11
81.5
21
20.3686
0
LINE
8
CUT
10
80.5
20
20.3686
11
74.2321
21
9.5122
0
POLYLINE
8
CUT
66
1
70
0
0
VERTEX
8
CUT
10
77.7321
20
13.5744
0
VERTEX
8
CUT
10
75.4641
20
9.6462
0
VERTEX
8
CUT
10
80
20
9.6462
0
SEQEND
0
POLYLINE
8
CUT
66
1
70
0
0
VERTEX
8
CUT
10
82
20
9.6462
0
VERTEX
8
CUT
10
86.5359
20
9.6462
0
VERTEX
8
CUT
10
84.2679
20
13.5744
0
SEQEND
0
POLYLINE
8
CUT
66
1
70
0
0
VERTEX
8
CUT
10
83.2679
20
15.3064
0
VERTEX
8
CUT
10
81
20
19.2346
0
VERTEX
8
CUT
10
78.7321
20
15.3064
0
SEQEND
0
LINE
8
CUT
10
78.1962
20
10.6462
11
83.8038
21
10.6462
0
LINE
8
CUT
10
84.3038
20
11.5122
11
81.5
21
16.3686
0
LINE
8
CUT
10
80.5
20
16.3686
11
77.6962
21
11.5122
0
POLYLINE
8
CUT
66
1
70
0
0
VERTEX
8
CUT
10
79.4641
20
12.5744
0
VERTEX
8
CUT
10
78.9282
20
11.6462
0
VERTEX
8
CUT
10
80
20
11.6462
0
SEQEND
0
POLYLINE
8
CUT
66
1
70
0
0
VERTEX
8
CUT
10
82
20
11.6462
0
VERTEX
8
CUT
10
83.0718
20
11.6462
0
VERTEX
8
CUT
10
82.5359
20
12.5744
0
SEQEND
0
POLYLINE
8
CUT
66
1
70
0
0
VERTEX
8
CUT
10
81.5359
20
14.3064
0
VERTEX
8
CUT
10
81
20
15.2346
0
VERTEX
8
CUT
10
80.4641
20
14.3064
0
SEQEND
0
LINE
8
CUT
10
83.7321
20
22.2346
11
96.2679
21
22.2346
0
LINE
8
CUT
10
96.7679
20
21.3686
11
90.5
21
10.5122
0
LINE
8
CUT
10
89.5
20
10.5122
11
83.2321
21
21.3686
0
POLYLINE
8
CUT
66
1
70
0
0
VERTEX
8
CUT
10
86.7321
20
17.3064
0
VERTEX
8
CUT
10
84.4641
20
21.2346
0
VERTEX
8
CUT
10
89
20
21.2346
0
SEQEND
0
POLYLINE
8
CUT
66
1
70
0
0
VERTEX
8
CUT
10
91
20
21.2346
0
VERTEX
8
CUT
10
95.5359
20
21.2346
0
VERTEX
8
CUT
10
93.2679
20
17.3064
0
SEQEND
0
POLYLINE
8
CUT
66
1
70
0
0
VERTEX
8
CUT
10
92.2679
20
15.5744
0
VERTEX
8
CUT
10
90
20
11.6462
0
VERTEX
8
CUT
10
87.7321
20
15.5744
0
SEQEND
0
LINE
8
CUT
10
87.1962
20
20.2346
11
92.8038
21
20.2346
0
LINE
8
CUT
10
93.3038
20
19.3686
11
90.5
21
14.5122
0
LINE
8
CUT
10
89.5
20
14.5122
11
86.6962
21
19.3686
0
POLYLINE
8
CUT
66
1
70
0
0
VERTEX
8
CUT
10
88.4641
20
18.3064
0
VERTEX
8
CUT
10
87.9282
20
19.2346
0
VERTEX
8
CUT
10
89
20
19.2346
0
SEQEND
0
POLYLINE
8
CUT
66
1
70
0
0
VERTEX
8
CUT
10
91
20
19.2346
0
VERTEX
8
CUT
10
92.0718
20
19.2346
0
VERTEX
8
CUT
10
91.5359
20
18.3064
0
SEQEND
0
POLYLINE
8
CUT
66
1
70
0
0
VERTEX
8
CUT
10
90.5359
20
16.5744
0
VERTEX
8
CUT
10
90
20
15.6462
0
VERTEX
8
CUT
10
89.4641
20
16.5744
0
SEQEND
0
LINE
8
CUT
10
92.7321
20
8.6462
11
105.2679
21
8.6462
0
LINE
8
CUT
10
105.7679
20
9.5122
11
99.5
21
20.3686
0
LINE
8
CUT
10
98.5
20
20.3686
11
92.2321
21
9.5122
0
POLYLINE
8
CUT
66
1
70
0
0
VERTEX
8
CUT
10
95.7321
20
13.5744
0
VERTEX
8
CUT
10
93.4641
20
9.6462
0
VERTEX
8
CUT
10
98
20
9.6462
0
SEQEND
0
POLYLINE
8
CUT
66
1
70
0
0
VERTEX
8
CUT
10
100
20
9.6462
0
VERTEX
8
CUT
10
104.5359
20
9.6462
0
VERTEX
8
CUT
10
102.2679
20
13.5744
0
SEQEND
0
POLYLINE
8
CUT
66
1
70
0
0
VERTEX
8
CUT
10
101.2679
20
15.3064
0
VERTEX
8
CUT
10
99
20
19.2346
0
VERTEX
8
CUT
10
96.7321
20
15.3064
0
SEQEND
0
LINE
8
CUT
10
96.1962
20
10.6462
11
101.8038
21
10.6462
0
LINE
8
CUT
10
102.3038
20
11.5122
11
99.5
21
16.3686
0
LINE
8
CUT
10
98.5
20
16.3686
11
95.6962
21
11.5122
0
POLYLINE
8
CUT
66
1
70
0
0
VERTEX
8
CUT
10
97.4641
20
12.5744
0
VERTEX
8
CUT
10
96.9282
20
11.6462
0
VERTEX
8
CUT
10
98
20
11.6462
0
SEQEND
0
POLYLINE
8
CUT
66
1
70
0
0
VERTEX
8
CUT
10
100
20
11.6462
0
VERTEX
8
CUT
10
101.0718
20
11.6462
0
VERTEX
8
CUT
10
100.5359
20
12.5744
0
SEQEND
0
POLYLINE
8
CUT
66
1
70
0
0
VERTEX
8
CUT
10
99.5359
20
14.3064
0
VERTEX
8
CUT
10
99
20
15.2346
0
VERTEX
8
CUT
10
98.4641
20
14.3064
0
SEQEND
0
LINE
8
CUT
10
101.7321
20
22.2346
11
114.2679
21
22.2346
0
LINE
8
CUT
10
114.7679
20
21.3686
11
108.5
21
10.5122
0
LINE
8
CUT
10
107.5
20
10.5122
11
101.2321
21
21.3686
0
POLYLINE
8
CUT
66
1
70
0
0
VERTEX
8
CUT
10
104.7321
20
17.3064
0
VERTEX
8
CUT
10
102.4641
20
21.2346
0
VERTEX
8
CUT
10
107
20
21.2346
0
SEQEND
0
POLYLINE
8
CUT
66
1
70
0
0
VERTEX
8
CUT
10
109
20
21.2346
0
VERTEX
8
CUT
10
113.5359
20
21.2346
0
VERTEX
8
CUT
10
111.2679
20
17.3064
0
SEQEND
0
POLYLINE
8
CUT
66
1
70
0
0
VERTEX
8
CUT
10
110.2679
20
15.5744
0
VERTEX
8
CUT
10
108
20
11.6462
0
VERTEX
8
CUT
10
105.7321
20
15.5744
0
SEQEND
0
LINE
8
CUT
10
105.1962
20
20.2346
11
110.8038
21
20.2346
0
LINE
8
CUT
10
111.3038
20
19.3686
11
108.5
21
14.5122
0
LINE
8
CUT
10
107.5
20
14.5122
11
104.6962
21
19.3686
0
POLYLINE
8
CUT
66
1
70
0
0
VERTEX
8
CUT
10
106.4641
20
18.3064
0
VERTEX
8
CUT
10
105.9282
20
19.2346
0
VERTEX
8
CUT
10
107
20
19.2346
0
SEQEND
0
POLYLINE
8
CUT
66
1
70
0
0
VERTEX
8
CUT
10
109
20
19.2346
0
VERTEX
8
CUT
10
110.0718
20
19.2346
0
VERTEX
8
CUT
10
109.5359
20
18.3064
0
SEQEND
0
POLYLINE
8
CUT
66
1
70
0
0
VERTEX
8
CUT
10
108.5359
20
16.5744
0
VERTEX
8
CUT
10
108
20
15.6462
0
VERTEX
8
CUT
10
107.4641
20
16.5744
0
SEQEND
0
LINE
8
CUT
10
110.7321
20
8.6462
11
120
21
8.6462
0
LINE
8
CUT
10
120
20
16.0385
11
117.5
21
20.3686
0
LINE
8
CUT
10
116.5
20
20.3686
11
110.2321
21
9.5122
0
POLYLINE
8
CUT
66
1
70
0
0
VERTEX
8
CUT
10
113.7321
20
13.5744
0
VERTEX
8
CUT
10
111.4641
20
9.6462
0
VERTEX
8
CUT
10
116
20
9.6462
0
SEQEND
0
LINE
8
CUT
10
118
20
9.6462
11
120
21
9.6462
0
POLYLINE
8
CUT
66
1
70
0
0
VERTEX
8
CUT
10
119.2679
20
15.3064
0
VERTEX
8
CUT
10
117
20
19.2346
0
VERTEX
8
CUT
10
114.7321
20
15.3064
0
SEQEND
0
LINE
8
CUT
10
114.1962
20
10.6462
11
119.8038
21
10.6462
0
LINE
8
CUT
10
120
20
12.0385
11
117.5
21
16.3686
0
LINE
8
CUT
10
116.5
20
16.3686
11
113.6962
21
11.5122
0
POLYLINE
8
CUT
66
1
70
0
0
VERTEX
8
CUT
10
115.4641
20
12.5744
0
VERTEX
8
CUT
10
114.9282
20
11.6462
0
VERTEX
8
CUT
10
116
20
11.6462
0
SEQEND
0
POLYLINE
8
CUT
66
1
70
0
0
VERTEX
8
CUT
10
118
20
11.6462
0
VERTEX
8
CUT
10
119.0718
20
11.6462
0
VERTEX
8
CUT
10
118.5359
20
12.5744
0
SEQEND
0
POLYLINE
8
CUT
66
1
70
0
0
VERTEX
8
CUT
10
117.5359
20
14.3064
0
VERTEX
8
CUT
10
117
20
15.2346
0
VERTEX
8
CUT
10
116.4641
20
14.3064
0
SEQEND
0
LINE
8
CUT
10
120
20
20.0385
11
119.2321
21
21.3686
0
LINE
8
CUT
10
3.2598
20
0
11
0.5
21
4.7801
0
POLYLINE
8
CUT
66
1
70
0
0
VERTEX
8
CUT
10
2.1051
20
0
0
VERTEX
8
CUT
10
0
20
3.6462
0
VERTEX
8
CUT
10
0
20
3.6462
0
SEQEND
0
LINE
8
CUT
10
0.9504
20
0
11
0.5
21
0.7801
0
LINE
8
CUT
10
2.7321
20
6.6462
11
15.2679
21
6.6462
0
LINE
8
CUT
10
15.7679
20
5.7801
11
12.4308
21
0
0
LINE
8
CUT
10
5.5692
20
0
11
2.2321
21
5.7801
0
POLYLINE
8
CUT
66
1
70
0
0
VERTEX
8
CUT
10
5.7321
20
1.718
0
VERTEX
8
CUT
10
3.4641
20
5.6462
0
VERTEX
8
CUT
10
8
20
5.6462
0
SEQEND
0
POLYLINE
8
CUT
66
1
70
0
0
VERTEX
8
CUT
10
10
20
5.6462
0
VERTEX
8
CUT
10
14.5359
20
5.6462
0
VERTEX
8
CUT
10
12.2679
20
1.718
0
SEQEND
0
LINE
8
CUT
10
6.1962
20
4.6462
11
11.8038
21
4.6462
0
LINE
8
CUT
10
12.3038
20
3.7801
11
10.1214
21
0
0
LINE
8
CUT
10
7.8786
20
0
11
5.6962
21
3.7801
0
POLYLINE
8
CUT
66
1
70
0
0
VERTEX
8
CUT
10
7.4641
20
2.718
0
VERTEX
8
CUT
10
6.9282
20
3.6462
0
VERTEX
8
CUT
10
8
20
3.6462
0
SEQEND
0
POLYLINE
8
CUT
66
1
70
0
0
VERTEX
8
CUT
10
10
20
3.6462
0
VERTEX
8
CUT
10
11.0718
20
3.6462
0
VERTEX
8
CUT
10
10.5359
20
2.718
0
SEQEND
0
POLYLINE
8
CUT
66
1
70
0
0
VERTEX
8
CUT
10
9.5359
20
0.9859
0
VERTEX
8
CUT
10
9
20
0.0577
0
VERTEX
8
CUT
10
8.4641
20
0.9859
0
SEQEND
0
LINE
8
CUT
10
21.2598
20
0
11
18.5
21
4.7801
0
LINE
8
CUT
10
17.5
20
4.7801
11
14.7402
21
0
0
POLYLINE
8
CUT
66
1
70
0
0
VERTEX
8
CUT
10
20.1051
20
0
0
VERTEX
8
CUT
10
18
20
3.6462
0
VERTEX
8
CUT
10
15.8949
20
0
0
SEQEND
0
LINE
8
CUT
10
18.9504
20
0
11
18.5
21
0.7801
0
LINE
8
CUT
10
17.5
20
0.7801
11
17.0496
21
0
0
LINE
8
CUT
10
20.7321
20
6.6462
11
33.2679
21
6.6462
0
LINE
8
CUT
10
33.7679
20
5.7801
11
30.4308
21
0
0
LINE
8
CUT
10
23.5692
20
0
11
20.2321
21
5.7801
0
POLYLINE
8
CUT
66
1
70
0
0
VERTEX
8
CUT
10
23.7321
20
1.718
0
VERTEX
8
CUT
10
21.4641
20
5.6462
0
VERTEX
8
CUT
10
26
20
5.6462
0
SEQEND
0
POLYLINE
8
CUT
66
1
70
0
0
VERTEX
8
CUT
10
28
20
5.6462
0
VERTEX
8
CUT
10
32.5359
20
5.6462
0
VERTEX
8
CUT
10
30.2679
20
1.718
0
SEQEND
0
LINE
8
CUT
10
24.1962
20
4.6462
11
29.8038
21
4.6462
0
LINE
8
CUT
10
30.3038
20
3.7801
11
28.1214
21
0
0
LINE
8
CUT
10
25.8786
20
0
11
23.6962
21
3.7801
0
POLYLINE
8
CUT
66
1
70
0
0
VERTEX
8
CUT
10
25.4641
20
2.718
0
VERTEX
8
CUT
10
24.9282
20
3.6462
0
VERTEX
8
CUT
10
26
20
3.6462
0
SEQEND
0
POLYLINE
8
CUT
66
1
70
0
0
VERTEX
8
CUT
10
28
20
3.6462
0
VERTEX
8
CUT
10
29.0718
20
3.6462
0
VERTEX
8
CUT
10
28.5359
20
2.718
0
SEQEND
0
POLYLINE
8
CUT
66
1
70
0
0
VERTEX
8
CUT
10
27.5359
20
0.9859
0
VERTEX
8
CUT
10
27
20
0.0577
0
VERTEX
8
CUT
10
26.4641
20
0.9859
0
SEQEND
0
LINE
8
CUT
10
39.2598
20
0
11
36.5
21
4.7801
0
LINE
8
CUT
10
35.5
20
4.7801
11
32.7402
21
0
0
POLYLINE
8
CUT
66
1
70
0
0
VERTEX
8
CUT
10
38.1051
20
0
0
VERTEX
8
CUT
10
36
20
3.6462
0
VERTEX
8
CUT
10
33.8949
20
0
0
SEQEND
0
LINE
8
CUT
10
36.9504
20
0
11
36.5
21
0.7801
0
LINE
8
CUT
10
35.5
20
0.7801
11
35.0496
21
0
0
LINE
8
CUT
10
38.7321
20
6.6462
11
51.2679
21
6.6462
0
LINE
8
CUT
10
51.7679
20
5.7801
11
48.4308
21
0
0
LINE
8
CUT
10
41.5692
20
0
11
38.2321
21
5.7801
0
POLYLINE
8
CUT
66
1
70
0
0
VERTEX
8
CUT
10
41.7321
20
1.718
0
VERTEX
8
CUT
10
39.4641
20
5.6462
0
VERTEX
8
CUT
10
44
20
5.6462
0
SEQEND
0
POLYLINE
8
CUT
66
1
70
0
0
VERTEX
8
CUT
10
46
20
5.6462
0
VERTEX
8
CUT
10
50.5359
20
5.6462
0
VERTEX
8
CUT
10
48.2679
20
1.718
0
SEQEND
0
LINE
8
CUT
10
42.1962
20
4.6462
11
47.8038
21
4.6462
0
LINE
8
CUT
10
48.3038
20
3.7801
11
46.1214
21
0
0
LINE
8
CUT
10
43.8786
20
0
11
41.6962
21
3.7801
0
POLYLINE
8
CUT
66
1
70
0
0
VERTEX
8
CUT
10
43.4641
20
2.718
0
VERTEX
8
CUT
10
42.9282
20
3.6462
0
VERTEX
8
CUT
10
44
20
3.6462
0
SEQEND
0
POLYLINE
8
CUT
66
1
70
0
0
VERTEX
8
CUT
10
46
20
3.6462
0
VERTEX
8
CUT
10
47.0718
20
3.6462
0
VERTEX
8
CUT
10
46.5359
20
2.718
0
SEQEND
0
POLYLINE
8
CUT
66
1
70
0
0
VERTEX
8
CUT
10
45.5359
20
0.9859
0
VERTEX
8
CUT
10
45
20
0.0577
0
VERTEX
8
CUT
10
44.4641
20
0.9859
0
SEQEND
0
LINE
8
CUT
10
57.2598
20
0
11
54.5
21
4.7801
0
LINE
8
CUT
10
53.5
20
4.7801
11
50.7402
21
0
0
POLYLINE
8
CUT
66
1
70
0
0
VERTEX
8
CUT
10
56.1051
20
0
0
VERTEX
8
CUT
10
54
20
3.6462
0
VERTEX
8
CUT
10
51.8949
20
0
0
SEQEND
0
LINE
8
CUT
10
54.9504
20
0
11
54.5
21
0.7801
0
LINE
8
CUT
10
53.5
20
0.7801
11
53.0496
21
0
0
LINE
8
CUT
10
56.7321
20
6.6462
11
69.2679
21
6.6462
0
LINE
8
CUT
10
69.7679
20
5.7801
11
66.4308
21
0
0
LINE
8
CUT
10
59.5692
20
0
11
56.2321
21
5.7801
0
POLYLINE
8
CUT
66
1
70
0
0
VERTEX
8
CUT
10
59.7321
20
1.718
0
VERTEX
8
CUT
10
57.4641
20
5.6462
0
VERTEX
8
CUT
10
62
20
5.6462
0
SEQEND
0
POLYLINE
8
CUT
66
1
70
0
0
VERTEX
8
CUT
10
64
20
5.6462
0
VERTEX
8
CUT
10
68.5359
20
5.6462
0
VERTEX
8
CUT
10
66.2679
20
1.718
0
SEQEND
0
LINE
8
CUT
10
60.1962
20
4.6462
11
65.8038
21
4.6462
0
LINE
8
CUT
10
66.3038
20
3.7801
11
64.1214
21
0
0
LINE
8
CUT
10
61.8786
20
0
11
59.6962
21
3.7801
0
POLYLINE
8
CUT
66
1
70
0
0
VERTEX
8
CUT
10
61.4641
20
2.718
0
VERTEX
8
CUT
10
60.9282
20
3.6462
0
VERTEX
8
CUT
10
62
20
3.6462
0
SEQEND
0
POLYLINE
8
CUT
66
1
70
0
0
VERTEX
8
CUT
10
64
20
3.6462
0
VERTEX
8
CUT
10
65.0718
20
3.6462
0
VERTEX
8
CUT
10
64.5359
20
2.718
0
SEQEND
0
POLYLINE
8
CUT
66
1
70
0
0
VERTEX
8
CUT
10
63.5359
20
0.9859
0
VERTEX
8
CUT
10
63
20
0.0577
0
VERTEX
8
CUT
10
62.4641
20
0.9859
0
SEQEND
0
LINE
8
CUT
10
75.2598
20
0
11
72.5
21
4.7801
0
LINE
8
CUT
10
71.5
20
4.7801
11
68.7402
21
0
0
POLYLINE
8
CUT
66
1
70
0
0
VERTEX
8
CUT
10
74.1051
20
0
0
VERTEX
8
CUT
10
72
20
3.6462
0
VERTEX
8
CUT
10
69.8949
20
0
0
SEQEND
0
LINE
8
CUT
10
72.9504
20
0
11
72.5
21
0.7801
0
LINE
8
CUT
10
71.5
20
0.7801
11
71.0496
21
0
0
LINE
8
CUT
10
74.7321
20
6.6462
11
87.2679
21
6.6462
0
LINE
8
CUT
10
87.7679
20
5.7801
11
84.4308
21
0
0
LINE
8
CUT
10
77.5692
20
0
11
74.2321
21
5.7801
0
POLYLINE
8
CUT
66
1
70
0
0
VERTEX
8
CUT
10
77.7321
20
1.718
0
VERTEX
8
CUT
10
75.4641
20
5.6462
0
VERTEX
8
CUT
10
80
20
5.6462
0
SEQEND
0
POLYLINE
8
CUT
66
1
70
0
0
VERTEX
8
CUT
10
82
20
5.6462
0
VERTEX
8
CUT
10
86.5359
20
5.6462
0
VERTEX
8
CUT
10
84.2679
20
1.718
0
SEQEND
0
LINE
8
CUT
10
78.1962
20
4.6462
11
83.8038
21
4.6462
0
LINE
8
CUT
10
84.3038
20
3.7801
11
82.1214
21
0
0
LINE
8
CUT
10
79.8786
20
0
11
77.6962
21
3.7801
0
POLYLINE
8
CUT
66
1
70
0
0
VERTEX
8
CUT
10
79.4641
20
2.718
0
VERTEX
8
CUT
10
78.9282
20
3.6462
0
VERTEX
8
CUT
10
80
20
3.6462
0
SEQEND
0
POLYLINE
8
CUT
66
1
70
0
0
VERTEX
8
CUT
10
82
20
3.6462
0
VERTEX
8
CUT
10
83.0718
20
3.6462
0
VERTEX
8
CUT
10
82.5359
20
2.718
0
SEQEND
0
POLYLINE
8
CUT
66
1
70
0
0
VERTEX
8
CUT
10
81.5359
20
0.9859
0
VERTEX
8
CUT
10
81
20
0.0577
0
VERTEX
8
CUT
10
80.4641
20
0.9859
0
SEQEND
0
LINE
8
CUT
10
93.2598
20
0
11
90.5
21
4.7801
0
LINE
8
CUT
10
89.5
20
4.7801
11
86.7402
21
0
0
POLYLINE
8
CUT
66
1
70
0
0
VERTEX
8
CUT
10
92.1051
20
0
0
VERTEX
8
CUT
10
90
20
3.6462
0
VERTEX
8
CUT
10
87.8949
20
0
0
SEQEND
0
LINE
8
CUT
10
90.9504
20
0
11
90.5
21
0.7801
0
LINE
8
CUT
10
89.5
20
0.7801
11
89.0496
21
0
0
LINE
8
CUT
10
92.7321
20
6.6462
11
105.2679
21
6.6462
0
LINE
8
CUT
10
105.7679
20
5.7801
11
102.4308
21
0
0
LINE
8
CUT
10
95.5692
20
0
11
92.2321
21
5.7801
0
POLYLINE
8
CUT
66
1
70
0
0
VERTEX
8
CUT
10
95.7321
20
1.718
0
VERTEX
8
CUT
10
93.4641
20
5.6462
0
VERTEX
8
CUT
10
98
20
5.6462
0
SEQEND
0
POLYLINE
8
CUT
66
1
70
0
0
VERTEX
8
CUT
10
100
20
5.6462
0
VERTEX
8
CUT
10
104.5359
20
5.6462
0
VERTEX
8
CUT
10
102.2679
20
1.718
0
SEQEND
0
LINE
8
CUT
10
96.1962
20
4.6462
11
101.8038
21
4.6462
0
LINE
8
CUT
10
102.3038
20
3.7801
11
100.1214
21
0
0
LINE
8
CUT
10
97.8786
20
0
11
95.6962
21
3.7801
0
POLYLINE
8
CUT
66
1
70
0
0
VERTEX
8
CUT
10
97.4641
20
2.718
0
VERTEX
8
CUT
10
96.9282
20
3.6462
0
VERTEX
8
CUT
10
98
20
3.6462
0
SEQEND
0
POLYLINE
8
CUT
66
1
70
0
0
VERTEX
8
CUT
10
100
20
3.6462
0
VERTEX
8
CUT
10
101.0718
20
3.6462
0
VERTEX
8
CUT
10
100.5359
20
2.718
0
SEQEND
0
POLYLINE
8
CUT
66
1
70
0
0
VERTEX
8
CUT
10
99.5359
20
0.9859
0
VERTEX
8
CUT
10
99
20
0.0577
0
VERTEX
8
CUT
10
98.4641
20
0.9859
0
SEQEND
0
LINE
8
CUT
10
111.2598
20
0
11
108.5
21
4.7801
0
LINE
8
CUT
10
107.5
20
4.7801
11
104.7402
21
0
0
POLYLINE
8
CUT
66
1
70
0
0
VERTEX
8
CUT
10
110.1051
20
0
0
VERTEX
8
CUT
10
108
20
3.6462
0
VERTEX
8
CUT
10
105.8949
20
0
0
SEQEND
0
LINE
8
CUT
10
108.9504
20
0
11
108.5
21
0.7801
0
LINE
8
CUT
10
107.5
20
0.7801
11
107.0496
21
0
0
LINE
8
CUT
10
110.7321
20
6.6462
11
120
21
6.6462
0
LINE
8
CUT
10
113.5692
20
0
11
110.2321
21
5.7801
0
POLYLINE
8
CUT
66
1
70
0
0
VERTEX
8
CUT
10
113.7321
20
1.718
0
VERTEX
8
CUT
10
111.4641
20
5.6462
0
VERTEX
8
CUT
10
116
20
5.6462
0
SEQEND
0
LINE
8
CUT
10
118
20
5.6462
11
120
21
5.6462
0
LINE
8
CUT
10
114.1962
20
4.6462
11
119.8038
21
4.6462
0
LINE
8
CUT
10
120
20
3.2539
11
118.1214
21
0
0
LINE
8
CUT
10
115.8786
20
0
11
113.6962
21
3.7801
0
POLYLINE
8
CUT
66
1
70
0
0
VERTEX
8
CUT
10
115.4641
20
2.718
0
VERTEX
8
CUT
10
114.9282
20
3.6462
0
VERTEX
8
CUT
10
116
20
3.6462
0
SEQEND
0
POLYLINE
8
CUT
66
1
70
0
0
VERTEX
8
CUT
10
118
20
3.6462
0
VERTEX
8
CUT
10
119.0718
20
3.6462
0
VERTEX
8
CUT
10
118.5359
20
2.718
0
SEQEND
0
POLYLINE
8
CUT
66
1
70
0
0
VERTEX
8
CUT
10
117.5359
20
0.9859
0
VERTEX
8
CUT
10
117
20
0.0577
0
VERTEX
8
CUT
10
116.4641
20
0.9859
0
SEQEND
0
POLYLINE
8
CUT
66
1
70
0
0
VERTEX
8
CUT
10
0
20
70
0
VERTEX
8
CUT
10
120
20
70
0
VERTEX
8
CUT
10
120
20
0
0
VERTEX
8
CUT
10
0
20
0
0
VERTEX
8
CUT
10
0
20
70
0
SEQEND
0
ENDSEC
0
EOF
