0
SECTION
2
HEADER
9
$ACADVER
1
AC1009
9
$INSUNITS
70
4
0
ENDSEC
0
SECTION
2
TABLES
0
TABLE
2
LAYER
70
1
0
LAYER
2
CUT
70
0
62
1
6
CONTINUOUS
0
ENDTAB
0
ENDSEC
0
SECTION
2
ENTITIES
0
POLYLINE
8
CUT
66
1
70
0
0
VERTEX
8
CUT
10
1.1039
20
69.1318
0
VERTEX
8
CUT
10
0
20
67.2
0
VERTEX
8
CUT
10
0
20
58.8
0
VERTEX
8
CUT
10
1.1039
20
56.8682
0
SEQEND
0
POLYLINE
8
CUT
66
1
70
0
0
VERTEX
8
CUT
10
2.0961
20
69.1318
0
VERTEX
8
CUT
10
3.2
20
67.2
0
VERTEX
8
CUT
10
3.2
20
58.8
0
VERTEX
8
CUT
10
2.0961
20
56.8682
0
SEQEND
0
POLYLINE
8
CUT
66
1
70
0
0
VERTEX
8
CUT
10
1.1039
20
55.1318
0
VERTEX
8
CUT
10
0
20
53.2
0
VERTEX
8
CUT
10
0
20
44.8
0
VERTEX
8
CUT
10
1.1039
20
42.8682
0
SEQEND
0
POLYLINE
8
CUT
66
1
70
0
0
VERTEX
8
CUT
10
2.0961
20
55.1318
0
VERTEX
8
CUT
10
3.2
20
53.2
0
VERTEX
8
CUT
10
3.2
20
44.8
0
VERTEX
8
CUT
10
2.0961
20
42.8682
0
SEQEND
0
POLYLINE
8
CUT
66
1
70
0
0
VERTEX
8
CUT
10
1.1039
20
41.1318
0
VERTEX
8
CUT
10
0
20
39.2
0
VERTEX
8
CUT
10
0
20
30.8
0
VERTEX
8
CUT
10
1.1039
20
28.8682
0
SEQEND
0
POLYLINE
8
CUT
66
1
70
0
0
VERTEX
8
CUT
10
2.0961
20
41.1318
0
VERTEX
8
CUT
10
3.2
20
39.2
0
VERTEX
8
CUT
10
3.2
20
30.8
0
VERTEX
8
CUT
10
2.0961
20
28.8682
0
SEQEND
0
POLYLINE
8
CUT
66
1
70
0
0
VERTEX
8
CUT
10
1.1039
20
27.1318
0
VERTEX
8
CUT
10
0
20
25.2
0
VERTEX
8
CUT
10
0
20
16.8
0
VERTEX
8
CUT
10
1.1039
20
14.8682
0
SEQEND
0
POLYLINE
8
CUT
66
1
70
0
0
VERTEX
8
CUT
10
2.0961
20
27.1318
0
VERTEX
8
CUT
10
3.2
20
25.2
0
VERTEX
8
CUT
10
3.2
20
16.8
0
VERTEX
8
CUT
10
2.0961
20
14.8682
0
SEQEND
0
POLYLINE
8
CUT
66
1
70
0
0
VERTEX
8
CUT
10
1.1039
20
13.1318
0
VERTEX
8
CUT
10
0
20
11.2
0
VERTEX
8
CUT
10
0
20
2.8
0
VERTEX
8
CUT
10
1.1039
20
0.8682
0
SEQEND
0
POLYLINE
8
CUT
66
1
70
0
0
VERTEX
8
CUT
10
2.0961
20
13.1318
0
VERTEX
8
CUT
10
3.2
20
11.2
0
VERTEX
8
CUT
10
3.2
20
2.8
0
VERTEX
8
CUT
10
2.0961
20
0.8682
0
SEQEND
0
POLYLINE
8
CUT
66
1
70
0
0
VERTEX
8
CUT
10
4.5
20
70
0
VERTEX
8
CUT
10
4.5
20
65.8
0
VERTEX
8
CUT
10
5.6039
20
63.8682
0
SEQEND
0
POLYLINE
8
CUT
66
1
70
0
0
VERTEX
8
CUT
10
7.7
20
70
0
VERTEX
8
CUT
10
7.7
20
65.8
0
VERTEX
8
CUT
10
6.5961
20
63.8682
0
SEQEND
0
POLYLINE
8
CUT
66
1
70
0
0
VERTEX
8
CUT
10
5.6039
20
62.1318
0
VERTEX
8
CUT
10
4.5
20
60.2
0
VERTEX
8
CUT
10
4.5
20
51.8
0
VERTEX
8
CUT
10
5.6039
20
49.8682
0
SEQEND
0
POLYLINE
8
CUT
66
1
70
0
0
VERTEX
8
CUT
10
6.5961
20
62.1318
0
VERTEX
8
CUT
10
7.7
20
60.2
0
VERTEX
8
CUT
10
7.7
20
51.8
0
VERTEX
8
CUT
10
6.5961
20
49.8682
0
SEQEND
0
POLYLINE
8
CUT
66
1
70
0
0
VERTEX
8
CUT
10
5.6039
20
48.1318
0
VERTEX
8
CUT
10
4.5
20
46.2
0
VERTEX
8
CUT
10
4.5
20
37.8
0
VERTEX
8
CUT
10
5.6039
20
35.8682
0
SEQEND
0
POLYLINE
8
CUT
66
1
70
0
0
VERTEX
8
CUT
10
6.5961
20
48.1318
0
VERTEX
8
CUT
10
7.7
20
46.2
0
VERTEX
8
CUT
10
7.7
20
37.8
0
VERTEX
8
CUT
10
6.5961
20
35.8682
0
SEQEND
0
POLYLINE
8
CUT
66
1
70
0
0
VERTEX
8
CUT
10
5.6039
20
34.1318
0
VERTEX
8
CUT
10
4.5
20
32.2
0
VERTEX
8
CUT
10
4.5
20
23.8
0
VERTEX
8
CUT
10
5.6039
20
21.8682
0
SEQEND
0
POLYLINE
8
CUT
66
1
70
0
0
VERTEX
8
CUT
10
6.5961
20
34.1318
0
VERTEX
8
CUT
10
7.7
20
32.2
0
VERTEX
8
CUT
10
7.7
20
23.8
0
VERTEX
8
CUT
10
6.5961
20
21.8682
0
SEQEND
0
POLYLINE
8
CUT
66
1
70
0
0
VERTEX
8
CUT
10
5.6039
20
20.1318
0
VERTEX
8
CUT
10
4.5
20
18.2
0
VERTEX
8
CUT
10
4.5
20
9.8
0
VERTEX
8
CUT
10
5.6039
20
7.8682
0
SEQEND
0
POLYLINE
8
CUT
66
1
70
0
0
VERTEX
8
CUT
10
6.5961
20
20.1318
0
VERTEX
8
CUT
10
7.7
20
18.2
0
VERTEX
8
CUT
10
7.7
20
9.8
0
VERTEX
8
CUT
10
6.5961
20
7.8682
0
SEQEND
0
POLYLINE
8
CUT
66
1
70
0
0
VERTEX
8
CUT
10
5.6039
20
6.1318
0
VERTEX
8
CUT
10
4.5
20
4.2
0
VERTEX
8
CUT
10
4.5
20
0
0
SEQEND
0
POLYLINE
8
CUT
66
1
70
0
0
VERTEX
8
CUT
10
6.5961
20
6.1318
0
VERTEX
8
CUT
10
7.7
20
4.2
0
VERTEX
8
CUT
10
7.7
20
0
0
SEQEND
0
POLYLINE
8
CUT
66
1
70
0
0
VERTEX
8
CUT
10
10.1039
20
69.1318
0
VERTEX
8
CUT
10
9
20
67.2
0
VERTEX
8
CUT
10
9
20
58.8
0
VERTEX
8
CUT
10
10.1039
20
56.8682
0
SEQEND
0
POLYLINE
8
CUT
66
1
70
0
0
VERTEX
8
CUT
10
11.0961
20
69.1318
0
VERTEX
8
CUT
10
12.2
20
67.2
0
VERTEX
8
CUT
10
12.2
20
58.8
0
VERTEX
8
CUT
10
11.0961
20
56.8682
0
SEQEND
0
POLYLINE
8
CUT
66
1
70
0
0
VERTEX
8
CUT
10
10.1039
20
55.1318
0
VERTEX
8
CUT
10
9
20
53.2
0
VERTEX
8
CUT
10
9
20
44.8
0
VERTEX
8
CUT
10
10.1039
20
42.8682
0
SEQEND
0
POLYLINE
8
CUT
66
1
70
0
0
VERTEX
8
CUT
10
11.0961
20
55.1318
0
VERTEX
8
CUT
10
12.2
20
53.2
0
VERTEX
8
CUT
10
12.2
20
44.8
0
VERTEX
8
CUT
10
11.0961
20
42.8682
0
SEQEND
0
POLYLINE
8
CUT
66
1
70
0
0
VERTEX
8
CUT
10
10.1039
20
41.1318
0
VERTEX
8
CUT
10
9
20
39.2
0
VERTEX
8
CUT
10
9
20
30.8
0
VERTEX
8
CUT
10
10.1039
20
28.8682
0
SEQEND
0
POLYLINE
8
CUT
66
1
70
0
0
VERTEX
8
CUT
10
11.0961
20
41.1318
0
VERTEX
8
CUT
10
12.2
20
39.2
0
VERTEX
8
CUT
10
12.2
20
30.8
0
VERTEX
8
CUT
10
11.0961
20
28.8682
0
SEQEND
0
POLYLINE
8
CUT
66
1
70
0
0
VERTEX
8
CUT
10
10.1039
20
27.1318
0
VERTEX
8
CUT
10
9
20
25.2
0
VERTEX
8
CUT
10
9
20
16.8
0
VERTEX
8
CUT
10
10.1039
20
14.8682
0
SEQEND
0
POLYLINE
8
CUT
66
1
70
0
0
VERTEX
8
CUT
10
11.0961
20
27.1318
0
VERTEX
8
CUT
10
12.2
20
25.2
0
VERTEX
8
CUT
10
12.2
20
16.8
0
VERTEX
8
CUT
10
11.0961
20
14.8682
0
SEQEND
0
POLYLINE
8
CUT
66
1
70
0
0
VERTEX
8
CUT
10
10.1039
20
13.1318
0
VERTEX
8
CUT
10
9
20
11.2
0
VERTEX
8
CUT
10
9
20
2.8
0
VERTEX
8
CUT
10
10.1039
20
0.8682
0
SEQEND
0
POLYLINE
8
CUT
66
1
70
0
0
VERTEX
8
CUT
10
11.0961
20
13.1318
0
VERTEX
8
CUT
10
12.2
20
11.2
0
VERTEX
8
CUT
10
12.2
20
2.8
0
VERTEX
8
CUT
10
11.0961
20
0.8682
0
SEQEND
0
POLYLINE
8
CUT
66
1
70
0
0
VERTEX
8
CUT
10
13.5
20
70
0
VERTEX
8
CUT
10
13.5
20
65.8
0
VERTEX
8
CUT
10
14.6039
20
63.8682
0
SEQEND
0
POLYLINE
8
CUT
66
1
70
0
0
VERTEX
8
CUT
10
16.7
20
70
0
VERTEX
8
CUT
10
16.7
20
65.8
0
VERTEX
8
CUT
10
15.5961
20
63.8682
0
SEQEND
0
POLYLINE
8
CUT
66
1
70
0
0
VERTEX
8
CUT
10
14.6039
20
62.1318
0
VERTEX
8
CUT
10
13.5
20
60.2
0
VERTEX
8
CUT
10
13.5
20
51.8
0
VERTEX
8
CUT
10
14.6039
20
49.8682
0
SEQEND
0
POLYLINE
8
CUT
66
1
70
0
0
VERTEX
8
CUT
10
15.5961
20
62.1318
0
VERTEX
8
CUT
10
16.7
20
60.2
0
VERTEX
8
CUT
10
16.7
20
51.8
0
VERTEX
8
CUT
10
15.5961
20
49.8682
0
SEQEND
0
POLYLINE
8
CUT
66
1
70
0
0
VERTEX
8
CUT
10
14.6039
20
48.1318
0
VERTEX
8
CUT
10
13.5
20
46.2
0
VERTEX
8
CUT
10
13.5
20
37.8
0
VERTEX
8
CUT
10
14.6039
20
35.8682
0
SEQEND
0
POLYLINE
8
CUT
66
1
70
0
0
VERTEX
8
CUT
10
15.5961
20
48.1318
0
VERTEX
8
CUT
10
16.7
20
46.2
0
VERTEX
8
CUT
10
16.7
20
37.8
0
VERTEX
8
CUT
10
15.5961
20
35.8682
0
SEQEND
0
POLYLINE
8
CUT
66
1
70
0
0
VERTEX
8
CUT
10
14.6039
20
34.1318
0
VERTEX
8
CUT
10
13.5
20
32.2
0
VERTEX
8
CUT
10
13.5
20
23.8
0
VERTEX
8
CUT
10
14.6039
20
21.8682
0
SEQEND
0
POLYLINE
8
CUT
66
1
70
0
0
VERTEX
8
CUT
10
15.5961
20
34.1318
0
VERTEX
8
CUT
10
16.7
20
32.2
0
VERTEX
8
CUT
10
16.7
20
23.8
0
VERTEX
8
CUT
10
15.5961
20
21.8682
0
SEQEND
0
POLYLINE
8
CUT
66
1
70
0
0
VERTEX
8
CUT
10
14.6039
20
20.1318
0
VERTEX
8
CUT
10
13.5
20
18.2
0
VERTEX
8
CUT
10
13.5
20
9.8
0
VERTEX
8
CUT
10
14.6039
20
7.8682
0
SEQEND
0
POLYLINE
8
CUT
66
1
70
0
0
VERTEX
8
CUT
10
15.5961
20
20.1318
0
VERTEX
8
CUT
10
16.7
20
18.2
0
VERTEX
8
CUT
10
16.7
20
9.8
0
VERTEX
8
CUT
10
15.5961
20
7.8682
0
SEQEND
0
POLYLINE
8
CUT
66
1
70
0
0
VERTEX
8
CUT
10
14.6039
20
6.1318
0
VERTEX
8
CUT
10
13.5
20
4.2
0
VERTEX
8
CUT
10
13.5
20
0
0
SEQEND
0
POLYLINE
8
CUT
66
1
70
0
0
VERTEX
8
CUT
10
15.5961
20
6.1318
0
VERTEX
8
CUT
10
16.7
20
4.2
0
VERTEX
8
CUT
10
16.7
20
0
0
SEQEND
0
POLYLINE
8
CUT
66
1
70
0
0
VERTEX
8
CUT
10
19.1039
20
69.1318
0
VERTEX
8
CUT
10
18
20
67.2
0
VERTEX
8
CUT
10
18
20
58.8
0
VERTEX
8
CUT
10
19.1039
20
56.8682
0
SEQEND
0
POLYLINE
8
CUT
66
1
70
0
0
VERTEX
8
CUT
10
20.0961
20
69.1318
0
VERTEX
8
CUT
10
21.2
20
67.2
0
VERTEX
8
CUT
10
21.2
20
58.8
0
VERTEX
8
CUT
10
20.0961
20
56.8682
0
SEQEND
0
POLYLINE
8
CUT
66
1
70
0
0
VERTEX
8
CUT
10
19.1039
20
55.1318
0
VERTEX
8
CUT
10
18
20
53.2
0
VERTEX
8
CUT
10
18
20
44.8
0
VERTEX
8
CUT
10
19.1039
20
42.8682
0
SEQEND
0
POLYLINE
8
CUT
66
1
70
0
0
VERTEX
8
CUT
10
20.0961
20
55.1318
0
VERTEX
8
CUT
10
21.2
20
53.2
0
VERTEX
8
CUT
10
21.2
20
44.8
0
VERTEX
8
CUT
10
20.0961
20
42.8682
0
SEQEND
0
POLYLINE
8
CUT
66
1
70
0
0
VERTEX
8
CUT
10
19.1039
20
41.1318
0
VERTEX
8
CUT
10
18
20
39.2
0
VERTEX
8
CUT
10
18
20
30.8
0
VERTEX
8
CUT
10
19.1039
20
28.8682
0
SEQEND
0
POLYLINE
8
CUT
66
1
70
0
0
VERTEX
8
CUT
10
20.0961
20
41.1318
0
VERTEX
8
CUT
10
21.2
20
39.2
0
VERTEX
8
CUT
10
21.2
20
30.8
0
VERTEX
8
CUT
10
20.0961
20
28.8682
0
SEQEND
0
POLYLINE
8
CUT
66
1
70
0
0
VERTEX
8
CUT
10
19.1039
20
27.1318
0
VERTEX
8
CUT
10
18
20
25.2
0
VERTEX
8
CUT
10
18
20
16.8
0
VERTEX
8
CUT
10
19.1039
20
14.8682
0
SEQEND
0
POLYLINE
8
CUT
66
1
70
0
0
VERTEX
8
CUT
10
20.0961
20
27.1318
0
VERTEX
8
CUT
10
21.2
20
25.2
0
VERTEX
8
CUT
10
21.2
20
16.8
0
VERTEX
8
CUT
10
20.0961
20
14.8682
0
SEQEND
0
POLYLINE
8
CUT
66
1
70
0
0
VERTEX
8
CUT
10
19.1039
20
13.1318
0
VERTEX
8
CUT
10
18
20
11.2
0
VERTEX
8
CUT
10
18
20
2.8
0
VERTEX
8
CUT
10
19.1039
20
0.8682
0
SEQEND
0
POLYLINE
8
CUT
66
1
70
0
0
VERTEX
8
CUT
10
20.0961
20
13.1318
0
VERTEX
8
CUT
10
21.2
20
11.2
0
VERTEX
8
CUT
10
21.2
20
2.8
0
VERTEX
8
CUT
10
20.0961
20
0.8682
0
SEQEND
0
POLYLINE
8
CUT
66
1
70
0
0
VERTEX
8
CUT
10
22.5
20
70
0
VERTEX
8
CUT
10
22.5
20
65.8
0
VERTEX
8
CUT
10
23.6039
20
63.8682
0
SEQEND
0
POLYLINE
8
CUT
66
1
70
0
0
VERTEX
8
CUT
10
25.7
20
70
0
VERTEX
8
CUT
10
25.7
20
65.8
0
VERTEX
8
CUT
10
24.5961
20
63.8682
0
SEQEND
0
POLYLINE
8
CUT
66
1
70
0
0
VERTEX
8
CUT
10
23.6039
20
62.1318
0
VERTEX
8
CUT
10
22.5
20
60.2
0
VERTEX
8
CUT
10
22.5
20
51.8
0
VERTEX
8
CUT
10
23.6039
20
49.8682
0
SEQEND
0
POLYLINE
8
CUT
66
1
70
0
0
VERTEX
8
CUT
10
24.5961
20
62.1318
0
VERTEX
8
CUT
10
25.7
20
60.2
0
VERTEX
8
CUT
10
25.7
20
51.8
0
VERTEX
8
CUT
10
24.5961
20
49.8682
0
SEQEND
0
POLYLINE
8
CUT
66
1
70
0
0
VERTEX
8
CUT
10
23.6039
20
48.1318
0
VERTEX
8
CUT
10
22.5
20
46.2
0
VERTEX
8
CUT
10
22.5
20
37.8
0
VERTEX
8
CUT
10
23.6039
20
35.8682
0
SEQEND
0
POLYLINE
8
CUT
66
1
70
0
0
VERTEX
8
CUT
10
24.5961
20
48.1318
0
VERTEX
8
CUT
10
25.7
20
46.2
0
VERTEX
8
CUT
10
25.7
20
37.8
0
VERTEX
8
CUT
10
24.5961
20
35.8682
0
SEQEND
0
POLYLINE
8
CUT
66
1
70
0
0
VERTEX
8
CUT
10
23.6039
20
34.1318
0
VERTEX
8
CUT
10
22.5
20
32.2
0
VERTEX
8
CUT
10
22.5
20
23.8
0
VERTEX
8
CUT
10
23.6039
20
21.8682
0
SEQEND
0
POLYLINE
8
CUT
66
1
70
0
0
VERTEX
8
CUT
10
24.5961
20
34.1318
0
VERTEX
8
CUT
10
25.7
20
32.2
0
VERTEX
8
CUT
10
25.7
20
23.8
0
VERTEX
8
CUT
10
24.5961
20
21.8682
0
SEQEND
0
POLYLINE
8
CUT
66
1
70
0
0
VERTEX
8
CUT
10
23.6039
20
20.1318
0
VERTEX
8
CUT
10
22.5
20
18.2
0
VERTEX
8
CUT
10
22.5
20
9.8
0
VERTEX
8
CUT
10
23.6039
20
7.8682
0
SEQEND
0
POLYLINE
8
CUT
66
1
70
0
0
VERTEX
8
CUT
10
24.5961
20
20.1318
0
VERTEX
8
CUT
10
25.7
20
18.2
0
VERTEX
8
CUT
10
25.7
20
9.8
0
VERTEX
8
CUT
10
24.5961
20
7.8682
0
SEQEND
0
POLYLINE
8
CUT
66
1
70
0
0
VERTEX
8
CUT
10
23.6039
20
6.1318
0
VERTEX
8
CUT
10
22.5
20
4.2
0
VERTEX
8
CUT
10
22.5
20
0
0
SEQEND
0
POLYLINE
8
CUT
66
1
70
0
0
VERTEX
8
CUT
10
24.5961
20
6.1318
0
VERTEX
8
CUT
10
25.7
20
4.2
0
VERTEX
8
CUT
10
25.7
20
0
0
SEQEND
0
POLYLINE
8
CUT
66
1
70
0
0
VERTEX
8
CUT
10
28.1039
20
69.1318
0
VERTEX
8
CUT
10
27
20
67.2
0
VERTEX
8
CUT
10
27
20
58.8
0
VERTEX
8
CUT
10
28.1039
20
56.8682
0
SEQEND
0
POLYLINE
8
CUT
66
1
70
0
0
VERTEX
8
CUT
10
29.0961
20
69.1318
0
VERTEX
8
CUT
10
30.2
20
67.2
0
VERTEX
8
CUT
10
30.2
20
58.8
0
VERTEX
8
CUT
10
29.0961
20
56.8682
0
SEQEND
0
POLYLINE
8
CUT
66
1
70
0
0
VERTEX
8
CUT
10
28.1039
20
55.1318
0
VERTEX
8
CUT
10
27
20
53.2
0
VERTEX
8
CUT
10
27
20
44.8
0
VERTEX
8
CUT
10
28.1039
20
42.8682
0
SEQEND
0
POLYLINE
8
CUT
66
1
70
0
0
VERTEX
8
CUT
10
29.0961
20
55.1318
0
VERTEX
8
CUT
10
30.2
20
53.2
0
VERTEX
8
CUT
10
30.2
20
44.8
0
VERTEX
8
CUT
10
29.0961
20
42.8682
0
SEQEND
0
POLYLINE
8
CUT
66
1
70
0
0
VERTEX
8
CUT
10
28.1039
20
41.1318
0
VERTEX
8
CUT
10
27
20
39.2
0
VERTEX
8
CUT
10
27
20
30.8
0
VERTEX
8
CUT
10
28.1039
20
28.8682
0
SEQEND
0
POLYLINE
8
CUT
66
1
70
0
0
VERTEX
8
CUT
10
29.0961
20
41.1318
0
VERTEX
8
CUT
10
30.2
20
39.2
0
VERTEX
8
CUT
10
30.2
20
30.8
0
VERTEX
8
CUT
10
29.0961
20
28.8682
0
SEQEND
0
POLYLINE
8
CUT
66
1
70
0
0
VERTEX
8
CUT
10
28.1039
20
27.1318
0
VERTEX
8
CUT
10
27
20
25.2
0
VERTEX
8
CUT
10
27
20
16.8
0
VERTEX
8
CUT
10
28.1039
20
14.8682
0
SEQEND
0
POLYLINE
8
CUT
66
1
70
0
0
VERTEX
8
CUT
10
29.0961
20
27.1318
0
VERTEX
8
CUT
10
30.2
20
25.2
0
VERTEX
8
CUT
10
30.2
20
16.8
0
VERTEX
8
CUT
10
29.0961
20
14.8682
0
SEQEND
0
POLYLINE
8
CUT
66
1
70
0
0
VERTEX
8
CUT
10
28.1039
20
13.1318
0
VERTEX
8
CUT
10
27
20
11.2
0
VERTEX
8
CUT
10
27
20
2.8
0
VERTEX
8
CUT
10
28.1039
20
0.8682
0
SEQEND
0
POLYLINE
8
CUT
66
1
70
0
0
VERTEX
8
CUT
10
29.0961
20
13.1318
0
VERTEX
8
CUT
10
30.2
20
11.2
0
VERTEX
8
CUT
10
30.2
20
2.8
0
VERTEX
8
CUT
10
29.0961
20
0.8682
0
SEQEND
0
POLYLINE
8
CUT
66
1
70
0
0
VERTEX
8
CUT
10
31.5
20
70
0
VERTEX
8
CUT
10
31.5
20
65.8
0
VERTEX
8
CUT
10
32.6039
20
63.8682
0
SEQEND
0
POLYLINE
8
CUT
66
1
70
0
0
VERTEX
8
CUT
10
34.7
20
70
0
VERTEX
8
CUT
10
34.7
20
65.8
0
VERTEX
8
CUT
10
33.5961
20
63.8682
0
SEQEND
0
POLYLINE
8
CUT
66
1
70
0
0
VERTEX
8
CUT
10
32.6039
20
62.1318
0
VERTEX
8
CUT
10
31.5
20
60.2
0
VERTEX
8
CUT
10
31.5
20
51.8
0
VERTEX
8
CUT
10
32.6039
20
49.8682
0
SEQEND
0
POLYLINE
8
CUT
66
1
70
0
0
VERTEX
8
CUT
10
33.5961
20
62.1318
0
VERTEX
8
CUT
10
34.7
20
60.2
0
VERTEX
8
CUT
10
34.7
20
51.8
0
VERTEX
8
CUT
10
33.5961
20
49.8682
0
SEQEND
0
POLYLINE
8
CUT
66
1
70
0
0
VERTEX
8
CUT
10
32.6039
20
48.1318
0
VERTEX
8
CUT
10
31.5
20
46.2
0
VERTEX
8
CUT
10
31.5
20
37.8
0
VERTEX
8
CUT
10
32.6039
20
35.8682
0
SEQEND
0
POLYLINE
8
CUT
66
1
70
0
0
VERTEX
8
CUT
10
33.5961
20
48.1318
0
VERTEX
8
CUT
10
34.7
20
46.2
0
VERTEX
8
CUT
10
34.7
20
37.8
0
VERTEX
8
CUT
10
33.5961
20
35.8682
0
SEQEND
0
POLYLINE
8
CUT
66
1
70
0
0
VERTEX
8
CUT
10
32.6039
20
34.1318
0
VERTEX
8
CUT
10
31.5
20
32.2
0
VERTEX
8
CUT
10
31.5
20
23.8
0
VERTEX
8
CUT
10
32.6039
20
21.8682
0
SEQEND
0
POLYLINE
8
CUT
66
1
70
0
0
VERTEX
8
CUT
10
33.5961
20
34.1318
0
VERTEX
8
CUT
10
34.7
20
32.2
0
VERTEX
8
CUT
10
34.7
20
23.8
0
VERTEX
8
CUT
10
33.5961
20
21.8682
0
SEQEND
0
POLYLINE
8
CUT
66
1
70
0
0
VERTEX
8
CUT
10
32.6039
20
20.1318
0
VERTEX
8
CUT
10
31.5
20
18.2
0
VERTEX
8
CUT
10
31.5
20
9.8
0
VERTEX
8
CUT
10
32.6039
20
7.8682
0
SEQEND
0
POLYLINE
8
CUT
66
1
70
0
0
VERTEX
8
CUT
10
33.5961
20
20.1318
0
VERTEX
8
CUT
10
34.7
20
18.2
0
VERTEX
8
CUT
10
34.7
20
9.8
0
VERTEX
8
CUT
10
33.5961
20
7.8682
0
SEQEND
0
POLYLINE
8
CUT
66
1
70
0
0
VERTEX
8
CUT
10
32.6039
20
6.1318
0
VERTEX
8
CUT
10
31.5
20
4.2
0
VERTEX
8
CUT
10
31.5
20
0
0
SEQEND
0
POLYLINE
8
CUT
66
1
70
0
0
VERTEX
8
CUT
10
33.5961
20
6.1318
0
VERTEX
8
CUT
10
34.7
20
4.2
0
VERTEX
8
CUT
10
34.7
20
0
0
SEQEND
0
POLYLINE
8
CUT
66
1
70
0
0
VERTEX
8
CUT
10
37.1039
20
69.1318
0
VERTEX
8
CUT
10
36
20
67.2
0
VERTEX
8
CUT
10
36
20
58.8
0
VERTEX
8
CUT
10
37.1039
20
56.8682
0
SEQEND
0
POLYLINE
8
CUT
66
1
70
0
0
VERTEX
8
CUT
10
38.0961
20
69.1318
0
VERTEX
8
CUT
10
39.2
20
67.2
0
VERTEX
8
CUT
10
39.2
20
58.8
0
VERTEX
8
CUT
10
38.0961
20
56.8682
0
SEQEND
0
POLYLINE
8
CUT
66
1
70
0
0
VERTEX
8
CUT
10
37.1039
20
55.1318
0
VERTEX
8
CUT
10
36
20
53.2
0
VERTEX
8
CUT
10
36
20
44.8
0
VERTEX
8
CUT
10
37.1039
20
42.8682
0
SEQEND
0
POLYLINE
8
CUT
66
1
70
0
0
VERTEX
8
CUT
10
38.0961
20
55.1318
0
VERTEX
8
CUT
10
39.2
20
53.2
0
VERTEX
8
CUT
10
39.2
20
44.8
0
VERTEX
8
CUT
10
38.0961
20
42.8682
0
SEQEND
0
POLYLINE
8
CUT
66
1
70
0
0
VERTEX
8
CUT
10
37.1039
20
41.1318
0
VERTEX
8
CUT
10
36
20
39.2
0
VERTEX
8
CUT
10
36
20
30.8
0
VERTEX
8
CUT
10
37.1039
20
28.8682
0
SEQEND
0
POLYLINE
8
CUT
66
1
70
0
0
VERTEX
8
CUT
10
38.0961
20
41.1318
0
VERTEX
8
CUT
10
39.2
20
39.2
0
VERTEX
8
CUT
10
39.2
20
30.8
0
VERTEX
8
CUT
10
38.0961
20
28.8682
0
SEQEND
0
POLYLINE
8
CUT
66
1
70
0
0
VERTEX
8
CUT
10
37.1039
20
27.1318
0
VERTEX
8
CUT
10
36
20
25.2
0
VERTEX
8
CUT
10
36
20
16.8
0
VERTEX
8
CUT
10
37.1039
20
14.8682
0
SEQEND
0
POLYLINE
8
CUT
66
1
70
0
0
VERTEX
8
CUT
10
38.0961
20
27.1318
0
VERTEX
8
CUT
10
39.2
20
25.2
0
VERTEX
8
CUT
10
39.2
20
16.8
0
VERTEX
8
CUT
10
38.0961
20
14.8682
0
SEQEND
0
POLYLINE
8
CUT
66
1
70
0
0
VERTEX
8
CUT
10
37.1039
20
13.1318
0
VERTEX
8
CUT
10
36
20
11.2
0
VERTEX
8
CUT
10
36
20
2.8
0
VERTEX
8
CUT
10
37.1039
20
0.8682
0
SEQEND
0
POLYLINE
8
CUT
66
1
70
0
0
VERTEX
8
CUT
10
38.0961
20
13.1318
0
VERTEX
8
CUT
10
39.2
20
11.2
0
VERTEX
8
CUT
10
39.2
20
2.8
0
VERTEX
8
CUT
10
38.0961
20
0.8682
0
SEQEND
0
POLYLINE
8
CUT
66
1
70
0
0
VERTEX
8
CUT
10
40.5
20
70
0
VERTEX
8
CUT
10
40.5
20
65.8
0
VERTEX
8
CUT
10
41.6039
20
63.8682
0
SEQEND
0
POLYLINE
8
CUT
66
1
70
0
0
VERTEX
8
CUT
10
43.7
20
70
0
VERTEX
8
CUT
10
43.7
20
65.8
0
VERTEX
8
CUT
10
42.5961
20
63.8682
0
SEQEND
0
POLYLINE
8
CUT
66
1
70
0
0
VERTEX
8
CUT
10
41.6039
20
62.1318
0
VERTEX
8
CUT
10
40.5
20
60.2
0
VERTEX
8
CUT
10
40.5
20
51.8
0
VERTEX
8
CUT
10
41.6039
20
49.8682
0
SEQEND
0
POLYLINE
8
CUT
66
1
70
0
0
VERTEX
8
CUT
10
42.5961
20
62.1318
0
VERTEX
8
CUT
10
43.7
20
60.2
0
VERTEX
8
CUT
10
43.7
20
51.8
0
VERTEX
8
CUT
10
42.5961
20
49.8682
0
SEQEND
0
POLYLINE
8
CUT
66
1
70
0
0
VERTEX
8
CUT
10
41.6039
20
48.1318
0
VERTEX
8
CUT
10
40.5
20
46.2
0
VERTEX
8
CUT
10
40.5
20
37.8
0
VERTEX
8
CUT
10
41.6039
20
35.8682
0
SEQEND
0
POLYLINE
8
CUT
66
1
70
0
0
VERTEX
8
CUT
10
42.5961
20
48.1318
0
VERTEX
8
CUT
10
43.7
20
46.2
0
VERTEX
8
CUT
10
43.7
20
37.8
0
VERTEX
8
CUT
10
42.5961
20
35.8682
0
SEQEND
0
POLYLINE
8
CUT
66
1
70
0
0
VERTEX
8
CUT
10
41.6039
20
34.1318
0
VERTEX
8
CUT
10
40.5
20
32.2
0
VERTEX
8
CUT
10
40.5
20
23.8
0
VERTEX
8
CUT
10
41.6039
20
21.8682
0
SEQEND
0
POLYLINE
8
CUT
66
1
70
0
0
VERTEX
8
CUT
10
42.5961
20
34.1318
0
VERTEX
8
CUT
10
43.7
20
32.2
0
VERTEX
8
CUT
10
43.7
20
23.8
0
VERTEX
8
CUT
10
42.5961
20
21.8682
0
SEQEND
0
POLYLINE
8
CUT
66
1
70
0
0
VERTEX
8
CUT
10
41.6039
20
20.1318
0
VERTEX
8
CUT
10
40.5
20
18.2
0
VERTEX
8
CUT
10
40.5
20
9.8
0
VERTEX
8
CUT
10
41.6039
20
7.8682
0
SEQEND
0
POLYLINE
8
CUT
66
1
70
0
0
VERTEX
8
CUT
10
42.5961
20
20.1318
0
VERTEX
8
CUT
10
43.7
20
18.2
0
VERTEX
8
CUT
10
43.7
20
9.8
0
VERTEX
8
CUT
10
42.5961
20
7.8682
0
SEQEND
0
POLYLINE
8
CUT
66
1
70
0
0
VERTEX
8
CUT
10
41.6039
20
6.1318
0
VERTEX
8
CUT
10
40.5
20
4.2
0
VERTEX
8
CUT
10
40.5
20
0
0
SEQEND
0
POLYLINE
8
CUT
66
1
70
0
0
VERTEX
8
CUT
10
42.5961
20
6.1318
0
VERTEX
8
CUT
10
43.7
20
4.2
0
VERTEX
8
CUT
10
43.7
20
0
0
SEQEND
0
POLYLINE
8
CUT
66
1
70
0
0
VERTEX
8
CUT
10
46.1039
20
69.1318
0
VERTEX
8
CUT
10
45
20
67.2
0
VERTEX
8
CUT
10
45
20
58.8
0
VERTEX
8
CUT
10
46.1039
20
56.8682
0
SEQEND
0
POLYLINE
8
CUT
66
1
70
0
0
VERTEX
8
CUT
10
47.0961
20
69.1318
0
VERTEX
8
CUT
10
48.2
20
67.2
0
VERTEX
8
CUT
10
48.2
20
58.8
0
VERTEX
8
CUT
10
47.0961
20
56.8682
0
SEQEND
0
POLYLINE
8
CUT
66
1
70
0
0
VERTEX
8
CUT
10
46.1039
20
55.1318
0
VERTEX
8
CUT
10
45
20
53.2
0
VERTEX
8
CUT
10
45
20
44.8
0
VERTEX
8
CUT
10
46.1039
20
42.8682
0
SEQEND
0
POLYLINE
8
CUT
66
1
70
0
0
VERTEX
8
CUT
10
47.0961
20
55.1318
0
VERTEX
8
CUT
10
48.2
20
53.2
0
VERTEX
8
CUT
10
48.2
20
44.8
0
VERTEX
8
CUT
10
47.0961
20
42.8682
0
SEQEND
0
POLYLINE
8
CUT
66
1
70
0
0
VERTEX
8
CUT
10
46.1039
20
41.1318
0
VERTEX
8
CUT
10
45
20
39.2
0
VERTEX
8
CUT
10
45
20
30.8
0
VERTEX
8
CUT
10
46.1039
20
28.8682
0
SEQEND
0
POLYLINE
8
CUT
66
1
70
0
0
VERTEX
8
CUT
10
47.0961
20
41.1318
0
VERTEX
8
CUT
10
48.2
20
39.2
0
VERTEX
8
CUT
10
48.2
20
30.8
0
VERTEX
8
CUT
10
47.0961
20
28.8682
0
SEQEND
0
POLYLINE
8
CUT
66
1
70
0
0
VERTEX
8
CUT
10
46.1039
20
27.1318
0
VERTEX
8
CUT
10
45
20
25.2
0
VERTEX
8
CUT
10
45
20
16.8
0
VERTEX
8
CUT
10
46.1039
20
14.8682
0
SEQEND
0
POLYLINE
8
CUT
66
1
70
0
0
VERTEX
8
CUT
10
47.0961
20
27.1318
0
VERTEX
8
CUT
10
48.2
20
25.2
0
VERTEX
8
CUT
10
48.2
20
16.8
0
VERTEX
8
CUT
10
47.0961
20
14.8682
0
SEQEND
0
POLYLINE
8
CUT
66
1
70
0
0
VERTEX
8
CUT
10
46.1039
20
13.1318
0
VERTEX
8
CUT
10
45
20
11.2
0
VERTEX
8
CUT
10
45
20
2.8
0
VERTEX
8
CUT
10
46.1039
20
0.8682
0
SEQEND
0
POLYLINE
8
CUT
66
1
70
0
0
VERTEX
8
CUT
10
47.0961
20
13.1318
0
VERTEX
8
CUT
10
48.2
20
11.2
0
VERTEX
8
CUT
10
48.2
20
2.8
0
VERTEX
8
CUT
10
47.0961
20
0.8682
0
SEQEND
0
POLYLINE
8
CUT
66
1
70
0
0
VERTEX
8
CUT
10
49.5
20
70
0
VERTEX
8
CUT
10
49.5
20
65.8
0
VERTEX
8
CUT
10
50.6039
20
63.8682
0
SEQEND
0
POLYLINE
8
CUT
66
1
70
0
0
VERTEX
8
CUT
10
52.7
20
70
0
VERTEX
8
CUT
10
52.7
20
65.8
0
VERTEX
8
CUT
10
51.5961
20
63.8682
0
SEQEND
0
POLYLINE
8
CUT
66
1
70
0
0
VERTEX
8
CUT
10
50.6039
20
62.1318
0
VERTEX
8
CUT
10
49.5
20
60.2
0
VERTEX
8
CUT
10
49.5
20
51.8
0
VERTEX
8
CUT
10
50.6039
20
49.8682
0
SEQEND
0
POLYLINE
8
CUT
66
1
70
0
0
VERTEX
8
CUT
10
51.5961
20
62.1318
0
VERTEX
8
CUT
10
52.7
20
60.2
0
VERTEX
8
CUT
10
52.7
20
51.8
0
VERTEX
8
CUT
10
51.5961
20
49.8682
0
SEQEND
0
POLYLINE
8
CUT
66
1
70
0
0
VERTEX
8
CUT
10
50.6039
20
48.1318
0
VERTEX
8
CUT
10
49.5
20
46.2
0
VERTEX
8
CUT
10
49.5
20
37.8
0
VERTEX
8
CUT
10
50.6039
20
35.8682
0
SEQEND
0
POLYLINE
8
CUT
66
1
70
0
0
VERTEX
8
CUT
10
51.5961
20
48.1318
0
VERTEX
8
CUT
10
52.7
20
46.2
0
VERTEX
8
CUT
10
52.7
20
37.8
0
VERTEX
8
CUT
10
51.5961
20
35.8682
0
SEQEND
0
POLYLINE
8
CUT
66
1
70
0
0
VERTEX
8
CUT
10
50.6039
20
34.1318
0
VERTEX
8
CUT
10
49.5
20
32.2
0
VERTEX
8
CUT
10
49.5
20
23.8
0
VERTEX
8
CUT
10
50.6039
20
21.8682
0
SEQEND
0
POLYLINE
8
CUT
66
1
70
0
0
VERTEX
8
CUT
10
51.5961
20
34.1318
0
VERTEX
8
CUT
10
52.7
20
32.2
0
VERTEX
8
CUT
10
52.7
20
23.8
0
VERTEX
8
CUT
10
51.5961
20
21.8682
0
SEQEND
0
POLYLINE
8
CUT
66
1
70
0
0
VERTEX
8
CUT
10
50.6039
20
20.1318
0
VERTEX
8
CUT
10
49.5
20
18.2
0
VERTEX
8
CUT
10
49.5
20
9.8
0
VERTEX
8
CUT
10
50.6039
20
7.8682
0
SEQEND
0
POLYLINE
8
CUT
66
1
70
0
0
VERTEX
8
CUT
10
51.5961
20
20.1318
0
VERTEX
8
CUT
10
52.7
20
18.2
0
VERTEX
8
CUT
10
52.7
20
9.8
0
VERTEX
8
CUT
10
51.5961
20
7.8682
0
SEQEND
0
POLYLINE
8
CUT
66
1
70
0
0
VERTEX
8
CUT
10
50.6039
20
6.1318
0
VERTEX
8
CUT
10
49.5
20
4.2
0
VERTEX
8
CUT
10
49.5
20
0
0
SEQEND
0
POLYLINE
8
CUT
66
1
70
0
0
VERTEX
8
CUT
10
51.5961
20
6.1318
0
VERTEX
8
CUT
10
52.7
20
4.2
0
VERTEX
8
CUT
10
52.7
20
0
0
SEQEND
0
POLYLINE
8
CUT
66
1
70
0
0
VERTEX
8
CUT
10
55.1039
20
69.1318
0
VERTEX
8
CUT
10
54
20
67.2
0
VERTEX
8
CUT
10
54
20
58.8
0
VERTEX
8
CUT
10
55.1039
20
56.8682
0
SEQEND
0
POLYLINE
8
CUT
66
1
70
0
0
VERTEX
8
CUT
10
56.0961
20
69.1318
0
VERTEX
8
CUT
10
57.2
20
67.2
0
VERTEX
8
CUT
10
57.2
20
58.8
0
VERTEX
8
CUT
10
56.0961
20
56.8682
0
SEQEND
0
POLYLINE
8
CUT
66
1
70
0
0
VERTEX
8
CUT
10
55.1039
20
55.1318
0
VERTEX
8
CUT
10
54
20
53.2
0
VERTEX
8
CUT
10
54
20
44.8
0
VERTEX
8
CUT
10
55.1039
20
42.8682
0
SEQEND
0
POLYLINE
8
CUT
66
1
70
0
0
VERTEX
8
CUT
10
56.0961
20
55.1318
0
VERTEX
8
CUT
10
57.2
20
53.2
0
VERTEX
8
CUT
10
57.2
20
44.8
0
VERTEX
8
CUT
10
56.0961
20
42.8682
0
SEQEND
0
POLYLINE
8
CUT
66
1
70
0
0
VERTEX
8
CUT
10
55.1039
20
41.1318
0
VERTEX
8
CUT
10
54
20
39.2
0
VERTEX
8
CUT
10
54
20
30.8
0
VERTEX
8
CUT
10
55.1039
20
28.8682
0
SEQEND
0
POLYLINE
8
CUT
66
1
70
0
0
VERTEX
8
CUT
10
56.0961
20
41.1318
0
VERTEX
8
CUT
10
57.2
20
39.2
0
VERTEX
8
CUT
10
57.2
20
30.8
0
VERTEX
8
CUT
10
56.0961
20
28.8682
0
SEQEND
0
POLYLINE
8
CUT
66
1
70
0
0
VERTEX
8
CUT
10
55.1039
20
27.1318
0
VERTEX
8
CUT
10
54
20
25.2
0
VERTEX
8
CUT
10
54
20
16.8
0
VERTEX
8
CUT
10
55.1039
20
14.8682
0
SEQEND
0
POLYLINE
8
CUT
66
1
70
0
0
VERTEX
8
CUT
10
56.0961
20
27.1318
0
VERTEX
8
CUT
10
57.2
20
25.2
0
VERTEX
8
CUT
10
57.2
20
16.8
0
VERTEX
8
CUT
10
56.0961
20
14.8682
0
SEQEND
0
POLYLINE
8
CUT
66
1
70
0
0
VERTEX
8
CUT
10
55.1039
20
13.1318
0
VERTEX
8
CUT
10
54
20
11.2
0
VERTEX
8
CUT
10
54
20
2.8
0
VERTEX
8
CUT
10
55.1039
20
0.8682
0
SEQEND
0
POLYLINE
8
CUT
66
1
70
0
0
VERTEX
8
CUT
10
56.0961
20
13.1318
0
VERTEX
8
CUT
10
57.2
20
11.2
0
VERTEX
8
CUT
10
57.2
20
2.8
0
VERTEX
8
CUT
10
56.0961
20
0.8682
0
SEQEND
0
POLYLINE
8
CUT
66
1
70
0
0
VERTEX
8
CUT
10
58.5
20
70
0
VERTEX
8
CUT
10
58.5
20
65.8
0
VERTEX
8
CUT
10
59.6039
20
63.8682
0
SEQEND
0
POLYLINE
8
CUT
66
1
70
0
0
VERTEX
8
CUT
10
61.7
20
70
0
VERTEX
8
CUT
10
61.7
20
65.8
0
VERTEX
8
CUT
10
60.5961
20
63.8682
0
SEQEND
0
POLYLINE
8
CUT
66
1
70
0
0
VERTEX
8
CUT
10
59.6039
20
62.1318
0
VERTEX
8
CUT
10
58.5
20
60.2
0
VERTEX
8
CUT
10
58.5
20
51.8
0
VERTEX
8
CUT
10
59.6039
20
49.8682
0
SEQEND
0
POLYLINE
8
CUT
66
1
70
0
0
VERTEX
8
CUT
10
60.5961
20
62.1318
0
VERTEX
8
CUT
10
61.7
20
60.2
0
VERTEX
8
CUT
10
61.7
20
51.8
0
VERTEX
8
CUT
10
60.5961
20
49.8682
0
SEQEND
0
POLYLINE
8
CUT
66
1
70
0
0
VERTEX
8
CUT
10
59.6039
20
48.1318
0
VERTEX
8
CUT
10
58.5
20
46.2
0
VERTEX
8
CUT
10
58.5
20
37.8
0
VERTEX
8
CUT
10
59.6039
20
35.8682
0
SEQEND
0
POLYLINE
8
CUT
66
1
70
0
0
VERTEX
8
CUT
10
60.5961
20
48.1318
0
VERTEX
8
CUT
10
61.7
20
46.2
0
VERTEX
8
CUT
10
61.7
20
37.8
0
VERTEX
8
CUT
10
60.5961
20
35.8682
0
SEQEND
0
POLYLINE
8
CUT
66
1
70
0
0
VERTEX
8
CUT
10
59.6039
20
34.1318
0
VERTEX
8
CUT
10
58.5
20
32.2
0
VERTEX
8
CUT
10
58.5
20
23.8
0
VERTEX
8
CUT
10
59.6039
20
21.8682
0
SEQEND
0
POLYLINE
8
CUT
66
1
70
0
0
VERTEX
8
CUT
10
60.5961
20
34.1318
0
VERTEX
8
CUT
10
61.7
20
32.2
0
VERTEX
8
CUT
10
61.7
20
23.8
0
VERTEX
8
CUT
10
60.5961
20
21.8682
0
SEQEND
0
POLYLINE
8
CUT
66
1
70
0
0
VERTEX
8
CUT
10
59.6039
20
20.1318
0
VERTEX
8
CUT
10
58.5
20
18.2
0
VERTEX
8
CUT
10
58.5
20
9.8
0
VERTEX
8
CUT
10
59.6039
20
7.8682
0
SEQEND
0
POLYLINE
8
CUT
66
1
70
0
0
VERTEX
8
CUT
10
60.5961
20
20.1318
0
VERTEX
8
CUT
10
61.7
20
18.2
0
VERTEX
8
CUT
10
61.7
20
9.8
0
VERTEX
8
CUT
10
60.5961
20
7.8682
0
SEQEND
0
POLYLINE
8
CUT
66
1
70
0
0
VERTEX
8
CUT
10
59.6039
20
6.1318
0
VERTEX
8
CUT
10
58.5
20
4.2
0
VERTEX
8
CUT
10
58.5
20
0
0
SEQEND
0
POLYLINE
8
CUT
66
1
70
0
0
VERTEX
8
CUT
10
60.5961
20
6.1318
0
VERTEX
8
CUT
10
61.7
20
4.2
0
VERTEX
8
CUT
10
61.7
20
0
0
SEQEND
0
POLYLINE
8
CUT
66
1
70
0
0
VERTEX
8
CUT
10
64.1039
20
69.1318
0
VERTEX
8
CUT
10
63
20
67.2
0
VERTEX
8
CUT
10
63
20
58.8
0
VERTEX
8
CUT
10
64.1039
20
56.8682
0
SEQEND
0
POLYLINE
8
CUT
66
1
70
0
0
VERTEX
8
CUT
10
65.0961
20
69.1318
0
VERTEX
8
CUT
10
66.2
20
67.2
0
VERTEX
8
CUT
10
66.2
20
58.8
0
VERTEX
8
CUT
10
65.0961
20
56.8682
0
SEQEND
0
POLYLINE
8
CUT
66
1
70
0
0
VERTEX
8
CUT
10
64.1039
20
55.1318
0
VERTEX
8
CUT
10
63
20
53.2
0
VERTEX
8
CUT
10
63
20
44.8
0
VERTEX
8
CUT
10
64.1039
20
42.8682
0
SEQEND
0
POLYLINE
8
CUT
66
1
70
0
0
VERTEX
8
CUT
10
65.0961
20
55.1318
0
VERTEX
8
CUT
10
66.2
20
53.2
0
VERTEX
8
CUT
10
66.2
20
44.8
0
VERTEX
8
CUT
10
65.0961
20
42.8682
0
SEQEND
0
POLYLINE
8
CUT
66
1
70
0
0
VERTEX
8
CUT
10
64.1039
20
41.1318
0
VERTEX
8
CUT
10
63
20
39.2
0
VERTEX
8
CUT
10
63
20
30.8
0
VERTEX
8
CUT
10
64.1039
20
28.8682
0
SEQEND
0
POLYLINE
8
CUT
66
1
70
0
0
VERTEX
8
CUT
10
65.0961
20
41.1318
0
VERTEX
8
CUT
10
66.2
20
39.2
0
VERTEX
8
CUT
10
66.2
20
30.8
0
VERTEX
8
CUT
10
65.0961
20
28.8682
0
SEQEND
0
POLYLINE
8
CUT
66
1
70
0
0
VERTEX
8
CUT
10
64.1039
20
27.1318
0
VERTEX
8
CUT
10
63
20
25.2
0
VERTEX
8
CUT
10
63
20
16.8
0
VERTEX
8
CUT
10
64.1039
20
14.8682
0
SEQEND
0
POLYLINE
8
CUT
66
1
70
0
0
VERTEX
8
CUT
10
65.0961
20
27.1318
0
VERTEX
8
CUT
10
66.2
20
25.2
0
VERTEX
8
CUT
10
66.2
20
16.8
0
VERTEX
8
CUT
10
65.0961
20
14.8682
0
SEQEND
0
POLYLINE
8
CUT
66
1
70
0
0
VERTEX
8
CUT
10
64.1039
20
13.1318
0
VERTEX
8
CUT
10
63
20
11.2
0
VERTEX
8
CUT
10
63
20
2.8
0
VERTEX
8
CUT
10
64.1039
20
0.8682
0
SEQEND
0
POLYLINE
8
CUT
66
1
70
0
0
VERTEX
8
CUT
10
65.0961
20
13.1318
0
VERTEX
8
CUT
10
66.2
20
11.2
0
VERTEX
8
CUT
10
66.2
20
2.8
0
VERTEX
8
CUT
10
65.0961
20
0.8682
0
SEQEND
0
POLYLINE
8
CUT
66
1
70
0
0
VERTEX
8
CUT
10
67.5
20
70
0
VERTEX
8
CUT
10
67.5
20
65.8
0
VERTEX
8
CUT
10
68.6039
20
63.8682
0
SEQEND
0
POLYLINE
8
CUT
66
1
70
0
0
VERTEX
8
CUT
10
70.7
20
70
0
VERTEX
8
CUT
10
70.7
20
65.8
0
VERTEX
8
CUT
10
69.5961
20
63.8682
0
SEQEND
0
POLYLINE
8
CUT
66
1
70
0
0
VERTEX
8
CUT
10
68.6039
20
62.1318
0
VERTEX
8
CUT
10
67.5
20
60.2
0
VERTEX
8
CUT
10
67.5
20
51.8
0
VERTEX
8
CUT
10
68.6039
20
49.8682
0
SEQEND
0
POLYLINE
8
CUT
66
1
70
0
0
VERTEX
8
CUT
10
69.5961
20
62.1318
0
VERTEX
8
CUT
10
70.7
20
60.2
0
VERTEX
8
CUT
10
70.7
20
51.8
0
VERTEX
8
CUT
10
69.5961
20
49.8682
0
SEQEND
0
POLYLINE
8
CUT
66
1
70
0
0
VERTEX
8
CUT
10
68.6039
20
48.1318
0
VERTEX
8
CUT
10
67.5
20
46.2
0
VERTEX
8
CUT
10
67.5
20
37.8
0
VERTEX
8
CUT
10
68.6039
20
35.8682
0
SEQEND
0
POLYLINE
8
CUT
66
1
70
0
0
VERTEX
8
CUT
10
69.5961
20
48.1318
0
VERTEX
8
CUT
10
70.7
20
46.2
0
VERTEX
8
CUT
10
70.7
20
37.8
0
VERTEX
8
CUT
10
69.5961
20
35.8682
0
SEQEND
0
POLYLINE
8
CUT
66
1
70
0
0
VERTEX
8
CUT
10
68.6039
20
34.1318
0
VERTEX
8
CUT
10
67.5
20
32.2
0
VERTEX
8
CUT
10
67.5
20
23.8
0
VERTEX
8
CUT
10
68.6039
20
21.8682
0
SEQEND
0
POLYLINE
8
CUT
66
1
70
0
0
VERTEX
8
CUT
10
69.5961
20
34.1318
0
VERTEX
8
CUT
10
70.7
20
32.2
0
VERTEX
8
CUT
10
70.7
20
23.8
0
VERTEX
8
CUT
10
69.5961
20
21.8682
0
SEQEND
0
POLYLINE
8
CUT
66
1
70
0
0
VERTEX
8
CUT
10
68.6039
20
20.1318
0
VERTEX
8
CUT
10
67.5
20
18.2
0
VERTEX
8
CUT
10
67.5
20
9.8
0
VERTEX
8
CUT
10
68.6039
20
7.8682
0
SEQEND
0
POLYLINE
8
CUT
66
1
70
0
0
VERTEX
8
CUT
10
69.5961
20
20.1318
0
VERTEX
8
CUT
10
70.7
20
18.2
0
VERTEX
8
CUT
10
70.7
20
9.8
0
VERTEX
8
CUT
10
69.5961
20
7.8682
0
SEQEND
0
POLYLINE
8
CUT
66
1
70
0
0
VERTEX
8
CUT
10
68.6039
20
6.1318
0
VERTEX
8
CUT
10
67.5
20
4.2
0
VERTEX
8
CUT
10
67.5
20
0
0
SEQEND
0
POLYLINE
8
CUT
66
1
70
0
0
VERTEX
8
CUT
10
69.5961
20
6.1318
0
VERTEX
8
CUT
10
70.7
20
4.2
0
VERTEX
8
CUT
10
70.7
20
0
0
SEQEND
0
POLYLINE
8
CUT
66
1
70
0
0
VERTEX
8
CUT
10
73.1039
20
69.1318
0
VERTEX
8
CUT
10
72
20
67.2
0
VERTEX
8
CUT
10
72
20
58.8
0
VERTEX
8
CUT
10
73.1039
20
56.8682
0
SEQEND
0
POLYLINE
8
CUT
66
1
70
0
0
VERTEX
8
CUT
10
74.0961
20
69.1318
0
VERTEX
8
CUT
10
75.2
20
67.2
0
VERTEX
8
CUT
10
75.2
20
58.8
0
VERTEX
8
CUT
10
74.0961
20
56.8682
0
SEQEND
0
POLYLINE
8
CUT
66
1
70
0
0
VERTEX
8
CUT
10
73.1039
20
55.1318
0
VERTEX
8
CUT
10
72
20
53.2
0
VERTEX
8
CUT
10
72
20
44.8
0
VERTEX
8
CUT
10
73.1039
20
42.8682
0
SEQEND
0
POLYLINE
8
CUT
66
1
70
0
0
VERTEX
8
CUT
10
74.0961
20
55.1318
0
VERTEX
8
CUT
10
75.2
20
53.2
0
VERTEX
8
CUT
10
75.2
20
44.8
0
VERTEX
8
CUT
10
74.0961
20
42.8682
0
SEQEND
0
POLYLINE
8
CUT
66
1
70
0
0
VERTEX
8
CUT
10
73.1039
20
41.1318
0
VERTEX
8
CUT
10
72
20
39.2
0
VERTEX
8
CUT
10
72
20
30.8
0
VERTEX
8
CUT
10
73.1039
20
28.8682
0
SEQEND
0
POLYLINE
8
CUT
66
1
70
0
0
VERTEX
8
CUT
10
74.0961
20
41.1318
0
VERTEX
8
CUT
10
75.2
20
39.2
0
VERTEX
8
CUT
10
75.2
20
30.8
0
VERTEX
8
CUT
10
74.0961
20
28.8682
0
SEQEND
0
POLYLINE
8
CUT
66
1
70
0
0
VERTEX
8
CUT
10
73.1039
20
27.1318
0
VERTEX
8
CUT
10
72
20
25.2
0
VERTEX
8
CUT
10
72
20
16.8
0
VERTEX
8
CUT
10
73.1039
20
14.8682
0
SEQEND
0
POLYLINE
8
CUT
66
1
70
0
0
VERTEX
8
CUT
10
74.0961
20
27.1318
0
VERTEX
8
CUT
10
75.2
20
25.2
0
VERTEX
8
CUT
10
75.2
20
16.8
0
VERTEX
8
CUT
10
74.0961
20
14.8682
0
SEQEND
0
POLYLINE
8
CUT
66
1
70
0
0
VERTEX
8
CUT
10
73.1039
20
13.1318
0
VERTEX
8
CUT
10
72
20
11.2
0
VERTEX
8
CUT
10
72
20
2.8
0
VERTEX
8
CUT
10
73.1039
20
0.8682
0
SEQEND
0
POLYLINE
8
CUT
66
1
70
0
0
VERTEX
8
CUT
10
74.0961
20
13.1318
0
VERTEX
8
CUT
10
75.2
20
11.2
0
VERTEX
8
CUT
10
75.2
20
2.8
0
VERTEX
8
CUT
10
74.0961
20
0.8682
0
SEQEND
0
POLYLINE
8
CUT
66
1
70
0
0
VERTEX
8
CUT
10
76.5
20
70
0
VERTEX
8
CUT
10
76.5
20
65.8
0
VERTEX
8
CUT
10
77.6039
20
63.8682
0
SEQEND
0
POLYLINE
8
CUT
66
1
70
0
0
VERTEX
8
CUT
10
79.7
20
70
0
VERTEX
8
CUT
10
79.7
20
65.8
0
VERTEX
8
CUT
10
78.5961
20
63.8682
0
SEQEND
0
POLYLINE
8
CUT
66
1
70
0
0
VERTEX
8
CUT
10
77.6039
20
62.1318
0
VERTEX
8
CUT
10
76.5
20
60.2
0
VERTEX
8
CUT
10
76.5
20
51.8
0
VERTEX
8
CUT
10
77.6039
20
49.8682
0
SEQEND
0
POLYLINE
8
CUT
66
1
70
0
0
VERTEX
8
CUT
10
78.5961
20
62.1318
0
VERTEX
8
CUT
10
79.7
20
60.2
0
VERTEX
8
CUT
10
79.7
20
51.8
0
VERTEX
8
CUT
10
78.5961
20
49.8682
0
SEQEND
0
POLYLINE
8
CUT
66
1
70
0
0
VERTEX
8
CUT
10
77.6039
20
48.1318
0
VERTEX
8
CUT
10
76.5
20
46.2
0
VERTEX
8
CUT
10
76.5
20
37.8
0
VERTEX
8
CUT
10
77.6039
20
35.8682
0
SEQEND
0
POLYLINE
8
CUT
66
1
70
0
0
VERTEX
8
CUT
10
78.5961
20
48.1318
0
VERTEX
8
CUT
10
79.7
20
46.2
0
VERTEX
8
CUT
10
79.7
20
37.8
0
VERTEX
8
CUT
10
78.5961
20
35.8682
0
SEQEND
0
POLYLINE
8
CUT
66
1
70
0
0
VERTEX
8
CUT
10
77.6039
20
34.1318
0
VERTEX
8
CUT
10
76.5
20
32.2
0
VERTEX
8
CUT
10
76.5
20
23.8
0
VERTEX
8
CUT
10
77.6039
20
21.8682
0
SEQEND
0
POLYLINE
8
CUT
66
1
70
0
0
VERTEX
8
CUT
10
78.5961
20
34.1318
0
VERTEX
8
CUT
10
79.7
20
32.2
0
VERTEX
8
CUT
10
79.7
20
23.8
0
VERTEX
8
CUT
10
78.5961
20
21.8682
0
SEQEND
0
POLYLINE
8
CUT
66
1
70
0
0
VERTEX
8
CUT
10
77.6039
20
20.1318
0
VERTEX
8
CUT
10
76.5
20
18.2
0
VERTEX
8
CUT
10
76.5
20
9.8
0
VERTEX
8
CUT
10
77.6039
20
7.8682
0
SEQEND
0
POLYLINE
8
CUT
66
1
70
0
0
VERTEX
8
CUT
10
78.5961
20
20.1318
0
VERTEX
8
CUT
10
79.7
20
18.2
0
VERTEX
8
CUT
10
79.7
20
9.8
0
VERTEX
8
CUT
10
78.5961
20
7.8682
0
SEQEND
0
POLYLINE
8
CUT
66
1
70
0
0
VERTEX
8
CUT
10
77.6039
20
6.1318
0
VERTEX
8
CUT
10
76.5
20
4.2
0
VERTEX
8
CUT
10
76.5
20
0
0
SEQEND
0
POLYLINE
8
CUT
66
1
70
0
0
VERTEX
8
CUT
10
78.5961
20
6.1318
0
VERTEX
8
CUT
10
79.7
20
4.2
0
VERTEX
8
CUT
10
79.7
20
0
0
SEQEND
0
POLYLINE
8
CUT
66
1
70
0
0
VERTEX
8
CUT
10
82.1039
20
69.1318
0
VERTEX
8
CUT
10
81
20
67.2
0
VERTEX
8
CUT
10
81
20
58.8
0
VERTEX
8
CUT
10
82.1039
20
56.8682
0
SEQEND
0
POLYLINE
8
CUT
66
1
70
0
0
VERTEX
8
CUT
10
83.0961
20
69.1318
0
VERTEX
8
CUT
10
84.2
20
67.2
0
VERTEX
8
CUT
10
84.2
20
58.8
0
VERTEX
8
CUT
10
83.0961
20
56.8682
0
SEQEND
0
POLYLINE
8
CUT
66
1
70
0
0
VERTEX
8
CUT
10
82.1039
20
55.1318
0
VERTEX
8
CUT
10
81
20
53.2
0
VERTEX
8
CUT
10
81
20
44.8
0
VERTEX
8
CUT
10
82.1039
20
42.8682
0
SEQEND
0
POLYLINE
8
CUT
66
1
70
0
0
VERTEX
8
CUT
10
83.0961
20
55.1318
0
VERTEX
8
CUT
10
84.2
20
53.2
0
VERTEX
8
CUT
10
84.2
20
44.8
0
VERTEX
8
CUT
10
83.0961
20
42.8682
0
SEQEND
0
POLYLINE
8
CUT
66
1
70
0
0
VERTEX
8
CUT
10
82.1039
20
41.1318
0
VERTEX
8
CUT
10
81
20
39.2
0
VERTEX
8
CUT
10
81
20
30.8
0
VERTEX
8
CUT
10
82.1039
20
28.8682
0
SEQEND
0
POLYLINE
8
CUT
66
1
70
0
0
VERTEX
8
CUT
10
83.0961
20
41.1318
0
VERTEX
8
CUT
10
84.2
20
39.2
0
VERTEX
8
CUT
10
84.2
20
30.8
0
VERTEX
8
CUT
10
83.0961
20
28.8682
0
SEQEND
0
POLYLINE
8
CUT
66
1
70
0
0
VERTEX
8
CUT
10
82.1039
20
27.1318
0
VERTEX
8
CUT
10
81
20
25.2
0
VERTEX
8
CUT
10
81
20
16.8
0
VERTEX
8
CUT
10
82.1039
20
14.8682
0
SEQEND
0
POLYLINE
8
CUT
66
1
70
0
0
VERTEX
8
CUT
10
83.0961
20
27.1318
0
VERTEX
8
CUT
10
84.2
20
25.2
0
VERTEX
8
CUT
10
84.2
20
16.8
0
VERTEX
8
CUT
10
83.0961
20
14.8682
0
SEQEND
0
POLYLINE
8
CUT
66
1
70
0
0
VERTEX
8
CUT
10
82.1039
20
13.1318
0
VERTEX
8
CUT
10
81
20
11.2
0
VERTEX
8
CUT
10
81
20
2.8
0
VERTEX
8
CUT
10
82.1039
20
0.8682
0
SEQEND
0
POLYLINE
8
CUT
66
1
70
0
0
VERTEX
8
CUT
10
83.0961
20
13.1318
0
VERTEX
8
CUT
10
84.2
20
11.2
0
VERTEX
8
CUT
10
84.2
20
2.8
0
VERTEX
8
CUT
10
83.0961
20
0.8682
0
SEQEND
0
POLYLINE
8
CUT
66
1
70
0
0
VERTEX
8
CUT
10
85.5
20
70
0
VERTEX
8
CUT
10
85.5
20
65.8
0
VERTEX
8
CUT
10
86.6039
20
63.8682
0
SEQEND
0
POLYLINE
8
CUT
66
1
70
0
0
VERTEX
8
CUT
10
88.7
20
70
0
VERTEX
8
CUT
10
88.7
20
65.8
0
VERTEX
8
CUT
10
87.5961
20
63.8682
0
SEQEND
0
POLYLINE
8
CUT
66
1
70
0
0
VERTEX
8
CUT
10
86.6039
20
62.1318
0
VERTEX
8
CUT
10
85.5
20
60.2
0
VERTEX
8
CUT
10
85.5
20
51.8
0
VERTEX
8
CUT
10
86.6039
20
49.8682
0
SEQEND
0
POLYLINE
8
CUT
66
1
70
0
0
VERTEX
8
CUT
10
87.5961
20
62.1318
0
VERTEX
8
CUT
10
88.7
20
60.2
0
VERTEX
8
CUT
10
88.7
20
51.8
0
VERTEX
8
CUT
10
87.5961
20
49.8682
0
SEQEND
0
POLYLINE
8
CUT
66
1
70
0
0
VERTEX
8
CUT
10
86.6039
20
48.1318
0
VERTEX
8
CUT
10
85.5
20
46.2
0
VERTEX
8
CUT
10
85.5
20
37.8
0
VERTEX
8
CUT
10
86.6039
20
35.8682
0
SEQEND
0
POLYLINE
8
CUT
66
1
70
0
0
VERTEX
8
CUT
10
87.5961
20
48.1318
0
VERTEX
8
CUT
10
88.7
20
46.2
0
VERTEX
8
CUT
10
88.7
20
37.8
0
VERTEX
8
CUT
10
87.5961
20
35.8682
0
SEQEND
0
POLYLINE
8
CUT
66
1
70
0
0
VERTEX
8
CUT
10
86.6039
20
34.1318
0
VERTEX
8
CUT
10
85.5
20
32.2
0
VERTEX
8
CUT
10
85.5
20
23.8
0
VERTEX
8
CUT
10
86.6039
20
21.8682
0
SEQEND
0
POLYLINE
8
CUT
66
1
70
0
0
VERTEX
8
CUT
10
87.5961
20
34.1318
0
VERTEX
8
CUT
10
88.7
20
32.2
0
VERTEX
8
CUT
10
88.7
20
23.8
0
VERTEX
8
CUT
10
87.5961
20
21.8682
0
SEQEND
0
POLYLINE
8
CUT
66
1
70
0
0
VERTEX
8
CUT
10
86.6039
20
20.1318
0
VERTEX
8
CUT
10
85.5
20
18.2
0
VERTEX
8
CUT
10
85.5
20
9.8
0
VERTEX
8
CUT
10
86.6039
20
7.8682
0
SEQEND
0
POLYLINE
8
CUT
66
1
70
0
0
VERTEX
8
CUT
10
87.5961
20
20.1318
0
VERTEX
8
CUT
10
88.7
20
18.2
0
VERTEX
8
CUT
10
88.7
20
9.8
0
VERTEX
8
CUT
10
87.5961
20
7.8682
0
SEQEND
0
POLYLINE
8
CUT
66
1
70
0
0
VERTEX
8
CUT
10
86.6039
20
6.1318
0
VERTEX
8
CUT
10
85.5
20
4.2
0
VERTEX
8
CUT
10
85.5
20
0
0
SEQEND
0
POLYLINE
8
CUT
66
1
70
0
0
VERTEX
8
CUT
10
87.5961
20
6.1318
0
VERTEX
8
CUT
10
88.7
20
4.2
0
VERTEX
8
CUT
10
88.7
20
0
0
SEQEND
0
POLYLINE
8
CUT
66
1
70
0
0
VERTEX
8
CUT
10
91.1039
20
69.1318
0
VERTEX
8
CUT
10
90
20
67.2
0
VERTEX
8
CUT
10
90
20
58.8
0
VERTEX
8
CUT
10
91.1039
20
56.8682
0
SEQEND
0
POLYLINE
8
CUT
66
1
70
0
0
VERTEX
8
CUT
10
92.0961
20
69.1318
0
VERTEX
8
CUT
10
93.2
20
67.2
0
VERTEX
8
CUT
10
93.2
20
58.8
0
VERTEX
8
CUT
10
92.0961
20
56.8682
0
SEQEND
0
POLYLINE
8
CUT
66
1
70
0
0
VERTEX
8
CUT
10
91.1039
20
55.1318
0
VERTEX
8
CUT
10
90
20
53.2
0
VERTEX
8
CUT
10
90
20
44.8
0
VERTEX
8
CUT
10
91.1039
20
42.8682
0
SEQEND
0
POLYLINE
8
CUT
66
1
70
0
0
VERTEX
8
CUT
10
92.0961
20
55.1318
0
VERTEX
8
CUT
10
93.2
20
53.2
0
VERTEX
8
CUT
10
93.2
20
44.8
0
VERTEX
8
CUT
10
92.0961
20
42.8682
0
SEQEND
0
POLYLINE
8
CUT
66
1
70
0
0
VERTEX
8
CUT
10
91.1039
20
41.1318
0
VERTEX
8
CUT
10
90
20
39.2
0
VERTEX
8
CUT
10
90
20
30.8
0
VERTEX
8
CUT
10
91.1039
20
28.8682
0
SEQEND
0
POLYLINE
8
CUT
66
1
70
0
0
VERTEX
8
CUT
10
92.0961
20
41.1318
0
VERTEX
8
CUT
10
93.2
20
39.2
0
VERTEX
8
CUT
10
93.2
20
30.8
0
VERTEX
8
CUT
10
92.0961
20
28.8682
0
SEQEND
0
POLYLINE
8
CUT
66
1
70
0
0
VERTEX
8
CUT
10
91.1039
20
27.1318
0
VERTEX
8
CUT
10
90
20
25.2
0
VERTEX
8
CUT
10
90
20
16.8
0
VERTEX
8
CUT
10
91.1039
20
14.8682
0
SEQEND
0
POLYLINE
8
CUT
66
1
70
0
0
VERTEX
8
CUT
10
92.0961
20
27.1318
0
VERTEX
8
CUT
10
93.2
20
25.2
0
VERTEX
8
CUT
10
93.2
20
16.8
0
VERTEX
8
CUT
10
92.0961
20
14.8682
0
SEQEND
0
POLYLINE
8
CUT
66
1
70
0
0
VERTEX
8
CUT
10
91.1039
20
13.1318
0
VERTEX
8
CUT
10
90
20
11.2
0
VERTEX
8
CUT
10
90
20
2.8
0
VERTEX
8
CUT
10
91.1039
20
0.8682
0
SEQEND
0
POLYLINE
8
CUT
66
1
70
0
0
VERTEX
8
CUT
10
92.0961
20
13.1318
0
VERTEX
8
CUT
10
93.2
20
11.2
0
VERTEX
8
CUT
10
93.2
20
2.8
0
VERTEX
8
CUT
10
92.0961
20
0.8682
0
SEQEND
0
POLYLINE
8
CUT
66
1
70
0
0
VERTEX
8
CUT
10
94.5
20
70
0
VERTEX
8
CUT
10
94.5
20
65.8
0
VERTEX
8
CUT
10
95.6039
20
63.8682
0
SEQEND
0
POLYLINE
8
CUT
66
1
70
0
0
VERTEX
8
CUT
10
97.7
20
70
0
VERTEX
8
CUT
10
97.7
20
65.8
0
VERTEX
8
CUT
10
96.5961
20
63.8682
0
SEQEND
0
POLYLINE
8
CUT
66
1
70
0
0
VERTEX
8
CUT
10
95.6039
20
62.1318
0
VERTEX
8
CUT
10
94.5
20
60.2
0
VERTEX
8
CUT
10
94.5
20
51.8
0
VERTEX
8
CUT
10
95.6039
20
49.8682
0
SEQEND
0
POLYLINE
8
CUT
66
1
70
0
0
VERTEX
8
CUT
10
96.5961
20
62.1318
0
VERTEX
8
CUT
10
97.7
20
60.2
0
VERTEX
8
CUT
10
97.7
20
51.8
0
VERTEX
8
CUT
10
96.5961
20
49.8682
0
SEQEND
0
POLYLINE
8
CUT
66
1
70
0
0
VERTEX
8
CUT
10
95.6039
20
48.1318
0
VERTEX
8
CUT
10
94.5
20
46.2
0
VERTEX
8
CUT
10
94.5
20
37.8
0
VERTEX
8
CUT
10
95.6039
20
35.8682
0
SEQEND
0
POLYLINE
8
CUT
66
1
70
0
0
VERTEX
8
CUT
10
96.5961
20
48.1318
0
VERTEX
8
CUT
10
97.7
20
46.2
0
VERTEX
8
CUT
10
97.7
20
37.8
0
VERTEX
8
CUT
10
96.5961
20
35.8682
0
SEQEND
0
POLYLINE
8
CUT
66
1
70
0
0
VERTEX
8
CUT
10
95.6039
20
34.1318
0
VERTEX
8
CUT
10
94.5
20
32.2
0
VERTEX
8
CUT
10
94.5
20
23.8
0
VERTEX
8
CUT
10
95.6039
20
21.8682
0
SEQEND
0
POLYLINE
8
CUT
66
1
70
0
0
VERTEX
8
CUT
10
96.5961
20
34.1318
0
VERTEX
8
CUT
10
97.7
20
32.2
0
VERTEX
8
CUT
10
97.7
20
23.8
0
VERTEX
8
CUT
10
96.5961
20
21.8682
0
SEQEND
0
POLYLINE
8
CUT
66
1
70
0
0
VERTEX
8
CUT
10
95.6039
20
20.1318
0
VERTEX
8
CUT
10
94.5
20
18.2
0
VERTEX
8
CUT
10
94.5
20
9.8
0
VERTEX
8
CUT
10
95.6039
20
7.8682
0
SEQEND
0
POLYLINE
8
CUT
66
1
70
0
0
VERTEX
8
CUT
10
96.5961
20
20.1318
0
VERTEX
8
CUT
10
97.7
20
18.2
0
VERTEX
8
CUT
10
97.7
20
9.8
0
VERTEX
8
CUT
10
96.5961
20
7.8682
0
SEQEND
0
POLYLINE
8
CUT
66
1
70
0
0
VERTEX
8
CUT
10
95.6039
20
6.1318
0
VERTEX
8
CUT
10
94.5
20
4.2
0
VERTEX
8
CUT
10
94.5
20
0
0
SEQEND
0
POLYLINE
8
CUT
66
1
70
0
0
VERTEX
8
CUT
10
96.5961
20
6.1318
0
VERTEX
8
CUT
10
97.7
20
4.2
0
VERTEX
8
CUT
10
97.7
20
0
0
SEQEND
0
POLYLINE
8
CUT
66
1
70
0
0
VERTEX
8
CUT
10
100.1039
20
69.1318
0
VERTEX
8
CUT
10
99
20
67.2
0
VERTEX
8
CUT
10
99
20
58.8
0
VERTEX
8
CUT
10
100.1039
20
56.8682
0
SEQEND
0
POLYLINE
8
CUT
66
1
70
0
0
VERTEX
8
CUT
10
101.0961
20
69.1318
0
VERTEX
8
CUT
10
102.2
20
67.2
0
VERTEX
8
CUT
10
102.2
20
58.8
0
VERTEX
8
CUT
10
101.0961
20
56.8682
0
SEQEND
0
POLYLINE
8
CUT
66
1
70
0
0
VERTEX
8
CUT
10
100.1039
20
55.1318
0
VERTEX
8
CUT
10
99
20
53.2
0
VERTEX
8
CUT
10
99
20
44.8
0
VERTEX
8
CUT
10
100.1039
20
42.8682
0
SEQEND
0
POLYLINE
8
CUT
66
1
70
0
0
VERTEX
8
CUT
10
101.0961
20
55.1318
0
VERTEX
8
CUT
10
102.2
20
53.2
0
VERTEX
8
CUT
10
102.2
20
44.8
0
VERTEX
8
CUT
10
101.0961
20
42.8682
0
SEQEND
0
POLYLINE
8
CUT
66
1
70
0
0
VERTEX
8
CUT
10
100.1039
20
41.1318
0
VERTEX
8
CUT
10
99
20
39.2
0
VERTEX
8
CUT
10
99
20
30.8
0
VERTEX
8
CUT
10
100.1039
20
28.8682
0
SEQEND
0
POLYLINE
8
CUT
66
1
70
0
0
VERTEX
8
CUT
10
101.0961
20
41.1318
0
VERTEX
8
CUT
10
102.2
20
39.2
0
VERTEX
8
CUT
10
102.2
20
30.8
0
VERTEX
8
CUT
10
101.0961
20
28.8682
0
SEQEND
0
POLYLINE
8
CUT
66
1
70
0
0
VERTEX
8
CUT
10
100.1039
20
27.1318
0
VERTEX
8
CUT
10
99
20
25.2
0
VERTEX
8
CUT
10
99
20
16.8
0
VERTEX
8
CUT
10
100.1039
20
14.8682
0
SEQEND
0
POLYLINE
8
CUT
66
1
70
0
0
VERTEX
8
CUT
10
101.0961
20
27.1318
0
VERTEX
8
CUT
10
102.2
20
25.2
0
VERTEX
8
CUT
10
102.2
20
16.8
0
VERTEX
8
CUT
10
101.0961
20
14.8682
0
SEQEND
0
POLYLINE
8
CUT
66
1
70
0
0
VERTEX
8
CUT
10
100.1039
20
13.1318
0
VERTEX
8
CUT
10
99
20
11.2
0
VERTEX
8
CUT
10
99
20
2.8
0
VERTEX
8
CUT
10
100.1039
20
0.8682
0
SEQEND
0
POLYLINE
8
CUT
66
1
70
0
0
VERTEX
8
CUT
10
101.0961
20
13.1318
0
VERTEX
8
CUT
10
102.2
20
11.2
0
VERTEX
8
CUT
10
102.2
20
2.8
0
VERTEX
8
CUT
10
101.0961
20
0.8682
0
SEQEND
0
POLYLINE
8
CUT
66
1
70
0
0
VERTEX
8
CUT
10
103.5
20
70
0
VERTEX
8
CUT
10
103.5
20
65.8
0
VERTEX
8
CUT
10
104.6039
20
63.8682
0
SEQEND
0
POLYLINE
8
CUT
66
1
70
0
0
VERTEX
8
CUT
10
106.7
20
70
0
VERTEX
8
CUT
10
106.7
20
65.8
0
VERTEX
8
CUT
10
105.5961
20
63.8682
0
SEQEND
0
POLYLINE
8
CUT
66
1
70
0
0
VERTEX
8
CUT
10
104.6039
20
62.1318
0
VERTEX
8
CUT
10
103.5
20
60.2
0
VERTEX
8
CUT
10
103.5
20
51.8
0
VERTEX
8
CUT
10
104.6039
20
49.8682
0
SEQEND
0
POLYLINE
8
CUT
66
1
70
0
0
VERTEX
8
CUT
10
105.5961
20
62.1318
0
VERTEX
8
CUT
10
106.7
20
60.2
0
VERTEX
8
CUT
10
106.7
20
51.8
0
VERTEX
8
CUT
10
105.5961
20
49.8682
0
SEQEND
0
POLYLINE
8
CUT
66
1
70
0
0
VERTEX
8
CUT
10
104.6039
20
48.1318
0
VERTEX
8
CUT
10
103.5
20
46.2
0
VERTEX
8
CUT
10
103.5
20
37.8
0
VERTEX
8
CUT
10
104.6039
20
35.8682
0
SEQEND
0
POLYLINE
8
CUT
66
1
70
0
0
VERTEX
8
CUT
10
105.5961
20
48.1318
0
VERTEX
8
CUT
10
106.7
20
46.2
0
VERTEX
8
CUT
10
106.7
20
37.8
0
VERTEX
8
CUT
10
105.5961
20
35.8682
0
SEQEND
0
POLYLINE
8
CUT
66
1
70
0
0
VERTEX
8
CUT
10
104.6039
20
34.1318
0
VERTEX
8
CUT
10
103.5
20
32.2
0
VERTEX
8
CUT
10
103.5
20
23.8
0
VERTEX
8
CUT
10
104.6039
20
21.8682
0
SEQEND
0
POLYLINE
8
CUT
66
1
70
0
0
VERTEX
8
CUT
10
105.5961
20
34.1318
0
VERTEX
8
CUT
10
106.7
20
32.2
0
VERTEX
8
CUT
10
106.7
20
23.8
0
VERTEX
8
CUT
10
105.5961
20
21.8682
0
SEQEND
0
POLYLINE
8
CUT
66
1
70
0
0
VERTEX
8
CUT
10
104.6039
20
20.1318
0
VERTEX
8
CUT
10
103.5
20
18.2
0
VERTEX
8
CUT
10
103.5
20
9.8
0
VERTEX
8
CUT
10
104.6039
20
7.8682
0
SEQEND
0
POLYLINE
8
CUT
66
1
70
0
0
VERTEX
8
CUT
10
105.5961
20
20.1318
0
VERTEX
8
CUT
10
106.7
20
18.2
0
VERTEX
8
CUT
10
106.7
20
9.8
0
VERTEX
8
CUT
10
105.5961
20
7.8682
0
SEQEND
0
POLYLINE
8
CUT
66
1
70
0
0
VERTEX
8
CUT
10
104.6039
20
6.1318
0
VERTEX
8
CUT
10
103.5
20
4.2
0
VERTEX
8
CUT
10
103.5
20
0
0
SEQEND
0
POLYLINE
8
CUT
66
1
70
0
0
VERTEX
8
CUT
10
105.5961
20
6.1318
0
VERTEX
8
CUT
10
106.7
20
4.2
0
VERTEX
8
CUT
10
106.7
20
0
0
SEQEND
0
POLYLINE
8
CUT
66
1
70
0
0
VERTEX
8
CUT
10
109.1039
20
69.1318
0
VERTEX
8
CUT
10
108
20
67.2
0
VERTEX
8
CUT
10
108
20
58.8
0
VERTEX
8
CUT
10
109.1039
20
56.8682
0
SEQEND
0
POLYLINE
8
CUT
66
1
70
0
0
VERTEX
8
CUT
10
110.0961
20
69.1318
0
VERTEX
8
CUT
10
111.2
20
67.2
0
VERTEX
8
CUT
10
111.2
20
58.8
0
VERTEX
8
CUT
10
110.0961
20
56.8682
0
SEQEND
0
POLYLINE
8
CUT
66
1
70
0
0
VERTEX
8
CUT
10
109.1039
20
55.1318
0
VERTEX
8
CUT
10
108
20
53.2
0
VERTEX
8
CUT
10
108
20
44.8
0
VERTEX
8
CUT
10
109.1039
20
42.8682
0
SEQEND
0
POLYLINE
8
CUT
66
1
70
0
0
VERTEX
8
CUT
10
110.0961
20
55.1318
0
VERTEX
8
CUT
10
111.2
20
53.2
0
VERTEX
8
CUT
10
111.2
20
44.8
0
VERTEX
8
CUT
10
110.0961
20
42.8682
0
SEQEND
0
POLYLINE
8
CUT
66
1
70
0
0
VERTEX
8
CUT
10
109.1039
20
41.1318
0
VERTEX
8
CUT
10
108
20
39.2
0
VERTEX
8
CUT
10
108
20
30.8
0
VERTEX
8
CUT
10
109.1039
20
28.8682
0
SEQEND
0
POLYLINE
8
CUT
66
1
70
0
0
VERTEX
8
CUT
10
110.0961
20
41.1318
0
VERTEX
8
CUT
10
111.2
20
39.2
0
VERTEX
8
CUT
10
111.2
20
30.8
0
VERTEX
8
CUT
10
110.0961
20
28.8682
0
SEQEND
0
POLYLINE
8
CUT
66
1
70
0
0
VERTEX
8
CUT
10
109.1039
20
27.1318
0
VERTEX
8
CUT
10
108
20
25.2
0
VERTEX
8
CUT
10
108
20
16.8
0
VERTEX
8
CUT
10
109.1039
20
14.8682
0
SEQEND
0
POLYLINE
8
CUT
66
1
70
0
0
VERTEX
8
CUT
10
110.0961
20
27.1318
0
VERTEX
8
CUT
10
111.2
20
25.2
0
VERTEX
8
CUT
10
111.2
20
16.8
0
VERTEX
8
CUT
10
110.0961
20
14.8682
0
SEQEND
0
POLYLINE
8
CUT
66
1
70
0
0
VERTEX
8
CUT
10
109.1039
20
13.1318
0
VERTEX
8
CUT
10
108
20
11.2
0
VERTEX
8
CUT
10
108
20
2.8
0
VERTEX
8
CUT
10
109.1039
20
0.8682
0
SEQEND
0
POLYLINE
8
CUT
66
1
70
0
0
VERTEX
8
CUT
10
110.0961
20
13.1318
0
VERTEX
8
CUT
10
111.2
20
11.2
0
VERTEX
8
CUT
10
111.2
20
2.8
0
VERTEX
8
CUT
10
110.0961
20
0.8682
0
SEQEND
0
POLYLINE
8
CUT
66
1
70
0
0
VERTEX
8
CUT
10
112.5
20
70
0
VERTEX
8
CUT
10
112.5
20
65.8
0
VERTEX
8
CUT
10
113.6039
20
63.8682
0
SEQEND
0
POLYLINE
8
CUT
66
1
70
0
0
VERTEX
8
CUT
10
115.7
20
70
0
VERTEX
8
CUT
10
115.7
20
65.8
0
VERTEX
8
CUT
10
114.5961
20
63.8682
0
SEQEND
0
POLYLINE
8
CUT
66
1
70
0
0
VERTEX
8
CUT
10
113.6039
20
62.1318
0
VERTEX
8
CUT
10
112.5
20
60.2
0
VERTEX
8
CUT
10
112.5
20
51.8
0
VERTEX
8
CUT
10
113.6039
20
49.8682
0
SEQEND
0
POLYLINE
8
CUT
66
1
70
0
0
VERTEX
8
CUT
10
114.5961
20
62.1318
0
VERTEX
8
CUT
10
115.7
20
60.2
0
VERTEX
8
CUT
10
115.7
20
51.8
0
VERTEX
8
CUT
10
114.5961
20
49.8682
0
SEQEND
0
POLYLINE
8
CUT
66
1
70
0
0
VERTEX
8
CUT
10
113.6039
20
48.1318
0
VERTEX
8
CUT
10
112.5
20
46.2
0
VERTEX
8
CUT
10
112.5
20
37.8
0
VERTEX
8
CUT
10
113.6039
20
35.8682
0
SEQEND
0
POLYLINE
8
CUT
66
1
70
0
0
VERTEX
8
CUT
10
114.5961
20
48.1318
0
VERTEX
8
CUT
10
115.7
20
46.2
0
VERTEX
8
CUT
10
115.7
20
37.8
0
VERTEX
8
CUT
10
114.5961
20
35.8682
0
SEQEND
0
POLYLINE
8
CUT
66
1
70
0
0
VERTEX
8
CUT
10
113.6039
20
34.1318
0
VERTEX
8
CUT
10
112.5
20
32.2
0
VERTEX
8
CUT
10
112.5
20
23.8
0
VERTEX
8
CUT
10
113.6039
20
21.8682
0
SEQEND
0
POLYLINE
8
CUT
66
1
70
0
0
VERTEX
8
CUT
10
114.5961
20
34.1318
0
VERTEX
8
CUT
10
115.7
20
32.2
0
VERTEX
8
CUT
10
115.7
20
23.8
0
VERTEX
8
CUT
10
114.5961
20
21.8682
0
SEQEND
0
POLYLINE
8
CUT
66
1
70
0
0
VERTEX
8
CUT
10
113.6039
20
20.1318
0
VERTEX
8
CUT
10
112.5
20
18.2
0
VERTEX
8
CUT
10
112.5
20
9.8
0
VERTEX
8
CUT
10
113.6039
20
7.8682
0
SEQEND
0
POLYLINE
8
CUT
66
1
70
0
0
VERTEX
8
CUT
10
114.5961
20
20.1318
0
VERTEX
8
CUT
10
115.7
20
18.2
0
VERTEX
8
CUT
10
115.7
20
9.8
0
VERTEX
8
CUT
10
114.5961
20
7.8682
0
SEQEND
0
POLYLINE
8
CUT
66
1
70
0
0
VERTEX
8
CUT
10
113.6039
20
6.1318
0
VERTEX
8
CUT
10
112.5
20
4.2
0
VERTEX
8
CUT
10
112.5
20
0
0
SEQEND
0
POLYLINE
8
CUT
66
1
70
0
0
VERTEX
8
CUT
10
114.5961
20
6.1318
0
VERTEX
8
CUT
10
115.7
20
4.2
0
VERTEX
8
CUT
10
115.7
20
0
0
SEQEND
0
POLYLINE
8
CUT
66
1
70
0
0
VERTEX
8
CUT
10
118.1039
20
69.1318
0
VERTEX
8
CUT
10
117
20
67.2
0
VERTEX
8
CUT
10
117
20
58.8
0
VERTEX
8
CUT
10
118.1039
20
56.8682
0
SEQEND
0
LINE
8
CUT
10
119.0961
20
69.1318
11
120
21
67.55
0
LINE
8
CUT
10
120
20
58.45
11
119.0961
21
56.8682
0
POLYLINE
8
CUT
66
1
70
0
0
VERTEX
8
CUT
10
118.1039
20
55.1318
0
VERTEX
8
CUT
10
117
20
53.2
0
VERTEX
8
CUT
10
117
20
44.8
0
VERTEX
8
CUT
10
118.1039
20
42.8682
0
SEQEND
0
LINE
8
CUT
10
119.0961
20
55.1318
11
120
21
53.55
0
LINE
8
CUT
10
120
20
44.45
11
119.0961
21
42.8682
0
POLYLINE
8
CUT
66
1
70
0
0
VERTEX
8
CUT
10
118.1039
20
41.1318
0
VERTEX
8
CUT
10
117
20
39.2
0
VERTEX
8
CUT
10
117
20
30.8
0
VERTEX
8
CUT
10
118.1039
20
28.8682
0
SEQEND
0
LINE
8
CUT
10
119.0961
20
41.1318
11
120
21
39.55
0
LINE
8
CUT
10
120
20
30.45
11
119.0961
21
28.8682
0
POLYLINE
8
CUT
66
1
70
0
0
VERTEX
8
CUT
10
118.1039
20
27.1318
0
VERTEX
8
CUT
10
117
20
25.2
0
VERTEX
8
CUT
10
117
20
16.8
0
VERTEX
8
CUT
10
118.1039
20
14.8682
0
SEQEND
0
LINE
8
CUT
10
119.0961
20
27.1318
11
120
21
25.55
0
LINE
8
CUT
10
120
20
16.45
11
119.0961
21
14.8682
0
POLYLINE
8
CUT
66
1
70
0
0
VERTEX
8
CUT
10
118.1039
20
13.1318
0
VERTEX
8
CUT
10
117
20
11.2
0
VERTEX
8
CUT
10
117
20
2.8
0
VERTEX
8
CUT
10
118.1039
20
0.8682
0
SEQEND
0
LINE
8
CUT
10
119.0961
20
13.1318
11
120
21
11.55
0
LINE
8
CUT
10
120
20
2.45
11
119.0961
21
0.8682
0
POLYLINE
8
CUT
66
1
70
0
0
VERTEX
8
CUT
10
0
20
70
0
VERTEX
8
CUT
10
120
20
70
0
VERTEX
8
CUT
10
120
20
0
0
VERTEX
8
CUT
10
0
20
0
0
VERTEX
8
CUT
10
0
20
70
0
SEQEND
0
ENDSEC
0
EOF
