0
SECTION
2
HEADER
9
$ACADVER
1
AC1009
9
$INSUNITS
70
4
0
ENDSEC
0
SECTION
2
TABLES
0
TABLE
2
LAYER
70
1
0
LAYER
2
CUT
70
0
62
1
6
CONTINUOUS
0
ENDTAB
0
ENDSEC
0
SECTION
2
ENTITIES
0
POLYLINE
8
CUT
66
1
70
0
0
VERTEX
8
CUT
10
5.1625
20
69.625
0
VERTEX
8
CUT
10
7.35
20
69
0
VERTEX
8
CUT
10
7.35
20
67
0
VERTEX
8
CUT
10
5.1625
20
66.375
0
SEQEND
0
POLYLINE
8
CUT
66
1
70
0
0
VERTEX
8
CUT
10
2.5375
20
69.625
0
VERTEX
8
CUT
10
0.35
20
69
0
VERTEX
8
CUT
10
0.35
20
67
0
VERTEX
8
CUT
10
2.5375
20
66.375
0
SEQEND
0
POLYLINE
8
CUT
66
1
70
0
0
VERTEX
8
CUT
10
12.8625
20
69.625
0
VERTEX
8
CUT
10
15.05
20
69
0
VERTEX
8
CUT
10
15.05
20
67
0
VERTEX
8
CUT
10
12.8625
20
66.375
0
SEQEND
0
POLYLINE
8
CUT
66
1
70
0
0
VERTEX
8
CUT
10
10.2375
20
69.625
0
VERTEX
8
CUT
10
8.05
20
69
0
VERTEX
8
CUT
10
8.05
20
67
0
VERTEX
8
CUT
10
10.2375
20
66.375
0
SEQEND
0
POLYLINE
8
CUT
66
1
70
0
0
VERTEX
8
CUT
10
20.5625
20
69.625
0
VERTEX
8
CUT
10
22.75
20
69
0
VERTEX
8
CUT
10
22.75
20
67
0
VERTEX
8
CUT
10
20.5625
20
66.375
0
SEQEND
0
POLYLINE
8
CUT
66
1
70
0
0
VERTEX
8
CUT
10
17.9375
20
69.625
0
VERTEX
8
CUT
10
15.75
20
69
0
VERTEX
8
CUT
10
15.75
20
67
0
VERTEX
8
CUT
10
17.9375
20
66.375
0
SEQEND
0
POLYLINE
8
CUT
66
1
70
0
0
VERTEX
8
CUT
10
28.2625
20
69.625
0
VERTEX
8
CUT
10
30.45
20
69
0
VERTEX
8
CUT
10
30.45
20
67
0
VERTEX
8
CUT
10
28.2625
20
66.375
0
SEQEND
0
POLYLINE
8
CUT
66
1
70
0
0
VERTEX
8
CUT
10
25.6375
20
69.625
0
VERTEX
8
CUT
10
23.45
20
69
0
VERTEX
8
CUT
10
23.45
20
67
0
VERTEX
8
CUT
10
25.6375
20
66.375
0
SEQEND
0
POLYLINE
8
CUT
66
1
70
0
0
VERTEX
8
CUT
10
35.9625
20
69.625
0
VERTEX
8
CUT
10
38.15
20
69
0
VERTEX
8
CUT
10
38.15
20
67
0
VERTEX
8
CUT
10
35.9625
20
66.375
0
SEQEND
0
POLYLINE
8
CUT
66
1
70
0
0
VERTEX
8
CUT
10
33.3375
20
69.625
0
VERTEX
8
CUT
10
31.15
20
69
0
VERTEX
8
CUT
10
31.15
20
67
0
VERTEX
8
CUT
10
33.3375
20
66.375
0
SEQEND
0
POLYLINE
8
CUT
66
1
70
0
0
VERTEX
8
CUT
10
43.6625
20
69.625
0
VERTEX
8
CUT
10
45.85
20
69
0
VERTEX
8
CUT
10
45.85
20
67
0
VERTEX
8
CUT
10
43.6625
20
66.375
0
SEQEND
0
POLYLINE
8
CUT
66
1
70
0
0
VERTEX
8
CUT
10
41.0375
20
69.625
0
VERTEX
8
CUT
10
38.85
20
69
0
VERTEX
8
CUT
10
38.85
20
67
0
VERTEX
8
CUT
10
41.0375
20
66.375
0
SEQEND
0
POLYLINE
8
CUT
66
1
70
0
0
VERTEX
8
CUT
10
51.3625
20
69.625
0
VERTEX
8
CUT
10
53.55
20
69
0
VERTEX
8
CUT
10
53.55
20
67
0
VERTEX
8
CUT
10
51.3625
20
66.375
0
SEQEND
0
POLYLINE
8
CUT
66
1
70
0
0
VERTEX
8
CUT
10
48.7375
20
69.625
0
VERTEX
8
CUT
10
46.55
20
69
0
VERTEX
8
CUT
10
46.55
20
67
0
VERTEX
8
CUT
10
48.7375
20
66.375
0
SEQEND
0
POLYLINE
8
CUT
66
1
70
0
0
VERTEX
8
CUT
10
59.0625
20
69.625
0
VERTEX
8
CUT
10
61.25
20
69
0
VERTEX
8
CUT
10
61.25
20
67
0
VERTEX
8
CUT
10
59.0625
20
66.375
0
SEQEND
0
POLYLINE
8
CUT
66
1
70
0
0
VERTEX
8
CUT
10
56.4375
20
69.625
0
VERTEX
8
CUT
10
54.25
20
69
0
VERTEX
8
CUT
10
54.25
20
67
0
VERTEX
8
CUT
10
56.4375
20
66.375
0
SEQEND
0
POLYLINE
8
CUT
66
1
70
0
0
VERTEX
8
CUT
10
66.7625
20
69.625
0
VERTEX
8
CUT
10
68.95
20
69
0
VERTEX
8
CUT
10
68.95
20
67
0
VERTEX
8
CUT
10
66.7625
20
66.375
0
SEQEND
0
POLYLINE
8
CUT
66
1
70
0
0
VERTEX
8
CUT
10
64.1375
20
69.625
0
VERTEX
8
CUT
10
61.95
20
69
0
VERTEX
8
CUT
10
61.95
20
67
0
VERTEX
8
CUT
10
64.1375
20
66.375
0
SEQEND
0
POLYLINE
8
CUT
66
1
70
0
0
VERTEX
8
CUT
10
74.4625
20
69.625
0
VERTEX
8
CUT
10
76.65
20
69
0
VERTEX
8
CUT
10
76.65
20
67
0
VERTEX
8
CUT
10
74.4625
20
66.375
0
SEQEND
0
POLYLINE
8
CUT
66
1
70
0
0
VERTEX
8
CUT
10
71.8375
20
69.625
0
VERTEX
8
CUT
10
69.65
20
69
0
VERTEX
8
CUT
10
69.65
20
67
0
VERTEX
8
CUT
10
71.8375
20
66.375
0
SEQEND
0
POLYLINE
8
CUT
66
1
70
0
0
VERTEX
8
CUT
10
82.1625
20
69.625
0
VERTEX
8
CUT
10
84.35
20
69
0
VERTEX
8
CUT
10
84.35
20
67
0
VERTEX
8
CUT
10
82.1625
20
66.375
0
SEQEND
0
POLYLINE
8
CUT
66
1
70
0
0
VERTEX
8
CUT
10
79.5375
20
69.625
0
VERTEX
8
CUT
10
77.35
20
69
0
VERTEX
8
CUT
10
77.35
20
67
0
VERTEX
8
CUT
10
79.5375
20
66.375
0
SEQEND
0
POLYLINE
8
CUT
66
1
70
0
0
VERTEX
8
CUT
10
89.8625
20
69.625
0
VERTEX
8
CUT
10
92.05
20
69
0
VERTEX
8
CUT
10
92.05
20
67
0
VERTEX
8
CUT
10
89.8625
20
66.375
0
SEQEND
0
POLYLINE
8
CUT
66
1
70
0
0
VERTEX
8
CUT
10
87.2375
20
69.625
0
VERTEX
8
CUT
10
85.05
20
69
0
VERTEX
8
CUT
10
85.05
20
67
0
VERTEX
8
CUT
10
87.2375
20
66.375
0
SEQEND
0
POLYLINE
8
CUT
66
1
70
0
0
VERTEX
8
CUT
10
97.5625
20
69.625
0
VERTEX
8
CUT
10
99.75
20
69
0
VERTEX
8
CUT
10
99.75
20
67
0
VERTEX
8
CUT
10
97.5625
20
66.375
0
SEQEND
0
POLYLINE
8
CUT
66
1
70
0
0
VERTEX
8
CUT
10
94.9375
20
69.625
0
VERTEX
8
CUT
10
92.75
20
69
0
VERTEX
8
CUT
10
92.75
20
67
0
VERTEX
8
CUT
10
94.9375
20
66.375
0
SEQEND
0
POLYLINE
8
CUT
66
1
70
0
0
VERTEX
8
CUT
10
105.2625
20
69.625
0
VERTEX
8
CUT
10
107.45
20
69
0
VERTEX
8
CUT
10
107.45
20
67
0
VERTEX
8
CUT
10
105.2625
20
66.375
0
SEQEND
0
POLYLINE
8
CUT
66
1
70
0
0
VERTEX
8
CUT
10
102.6375
20
69.625
0
VERTEX
8
CUT
10
100.45
20
69
0
VERTEX
8
CUT
10
100.45
20
67
0
VERTEX
8
CUT
10
102.6375
20
66.375
0
SEQEND
0
POLYLINE
8
CUT
66
1
70
0
0
VERTEX
8
CUT
10
112.9625
20
69.625
0
VERTEX
8
CUT
10
115.15
20
69
0
VERTEX
8
CUT
10
115.15
20
67
0
VERTEX
8
CUT
10
112.9625
20
66.375
0
SEQEND
0
POLYLINE
8
CUT
66
1
70
0
0
VERTEX
8
CUT
10
110.3375
20
69.625
0
VERTEX
8
CUT
10
108.15
20
69
0
VERTEX
8
CUT
10
108.15
20
67
0
VERTEX
8
CUT
10
110.3375
20
66.375
0
SEQEND
0
POLYLINE
8
CUT
66
1
70
0
0
VERTEX
8
CUT
10
118.0375
20
69.625
0
VERTEX
8
CUT
10
115.85
20
69
0
VERTEX
8
CUT
10
115.85
20
67
0
VERTEX
8
CUT
10
118.0375
20
66.375
0
SEQEND
0
POLYLINE
8
CUT
66
1
70
0
0
VERTEX
8
CUT
10
1.3125
20
66.016
0
VERTEX
8
CUT
10
3.5
20
65.391
0
VERTEX
8
CUT
10
3.5
20
63.391
0
VERTEX
8
CUT
10
1.3125
20
62.766
0
SEQEND
0
POLYLINE
8
CUT
66
1
70
0
0
VERTEX
8
CUT
10
9.0125
20
66.016
0
VERTEX
8
CUT
10
11.2
20
65.391
0
VERTEX
8
CUT
10
11.2
20
63.391
0
VERTEX
8
CUT
10
9.0125
20
62.766
0
SEQEND
0
POLYLINE
8
CUT
66
1
70
0
0
VERTEX
8
CUT
10
6.3875
20
66.016
0
VERTEX
8
CUT
10
4.2
20
65.391
0
VERTEX
8
CUT
10
4.2
20
63.391
0
VERTEX
8
CUT
10
6.3875
20
62.766
0
SEQEND
0
POLYLINE
8
CUT
66
1
70
0
0
VERTEX
8
CUT
10
16.7125
20
66.016
0
VERTEX
8
CUT
10
18.9
20
65.391
0
VERTEX
8
CUT
10
18.9
20
63.391
0
VERTEX
8
CUT
10
16.7125
20
62.766
0
SEQEND
0
POLYLINE
8
CUT
66
1
70
0
0
VERTEX
8
CUT
10
14.0875
20
66.016
0
VERTEX
8
CUT
10
11.9
20
65.391
0
VERTEX
8
CUT
10
11.9
20
63.391
0
VERTEX
8
CUT
10
14.0875
20
62.766
0
SEQEND
0
POLYLINE
8
CUT
66
1
70
0
0
VERTEX
8
CUT
10
24.4125
20
66.016
0
VERTEX
8
CUT
10
26.6
20
65.391
0
VERTEX
8
CUT
10
26.6
20
63.391
0
VERTEX
8
CUT
10
24.4125
20
62.766
0
SEQEND
0
POLYLINE
8
CUT
66
1
70
0
0
VERTEX
8
CUT
10
21.7875
20
66.016
0
VERTEX
8
CUT
10
19.6
20
65.391
0
VERTEX
8
CUT
10
19.6
20
63.391
0
VERTEX
8
CUT
10
21.7875
20
62.766
0
SEQEND
0
POLYLINE
8
CUT
66
1
70
0
0
VERTEX
8
CUT
10
32.1125
20
66.016
0
VERTEX
8
CUT
10
34.3
20
65.391
0
VERTEX
8
CUT
10
34.3
20
63.391
0
VERTEX
8
CUT
10
32.1125
20
62.766
0
SEQEND
0
POLYLINE
8
CUT
66
1
70
0
0
VERTEX
8
CUT
10
29.4875
20
66.016
0
VERTEX
8
CUT
10
27.3
20
65.391
0
VERTEX
8
CUT
10
27.3
20
63.391
0
VERTEX
8
CUT
10
29.4875
20
62.766
0
SEQEND
0
POLYLINE
8
CUT
66
1
70
0
0
VERTEX
8
CUT
10
39.8125
20
66.016
0
VERTEX
8
CUT
10
42
20
65.391
0
VERTEX
8
CUT
10
42
20
63.391
0
VERTEX
8
CUT
10
39.8125
20
62.766
0
SEQEND
0
POLYLINE
8
CUT
66
1
70
0
0
VERTEX
8
CUT
10
37.1875
20
66.016
0
VERTEX
8
CUT
10
35
20
65.391
0
VERTEX
8
CUT
10
35
20
63.391
0
VERTEX
8
CUT
10
37.1875
20
62.766
0
SEQEND
0
POLYLINE
8
CUT
66
1
70
0
0
VERTEX
8
CUT
10
47.5125
20
66.016
0
VERTEX
8
CUT
10
49.7
20
65.391
0
VERTEX
8
CUT
10
49.7
20
63.391
0
VERTEX
8
CUT
10
47.5125
20
62.766
0
SEQEND
0
POLYLINE
8
CUT
66
1
70
0
0
VERTEX
8
CUT
10
44.8875
20
66.016
0
VERTEX
8
CUT
10
42.7
20
65.391
0
VERTEX
8
CUT
10
42.7
20
63.391
0
VERTEX
8
CUT
10
44.8875
20
62.766
0
SEQEND
0
POLYLINE
8
CUT
66
1
70
0
0
VERTEX
8
CUT
10
55.2125
20
66.016
0
VERTEX
8
CUT
10
57.4
20
65.391
0
VERTEX
8
CUT
10
57.4
20
63.391
0
VERTEX
8
CUT
10
55.2125
20
62.766
0
SEQEND
0
POLYLINE
8
CUT
66
1
70
0
0
VERTEX
8
CUT
10
52.5875
20
66.016
0
VERTEX
8
CUT
10
50.4
20
65.391
0
VERTEX
8
CUT
10
50.4
20
63.391
0
VERTEX
8
CUT
10
52.5875
20
62.766
0
SEQEND
0
POLYLINE
8
CUT
66
1
70
0
0
VERTEX
8
CUT
10
62.9125
20
66.016
0
VERTEX
8
CUT
10
65.1
20
65.391
0
VERTEX
8
CUT
10
65.1
20
63.391
0
VERTEX
8
CUT
10
62.9125
20
62.766
0
SEQEND
0
POLYLINE
8
CUT
66
1
70
0
0
VERTEX
8
CUT
10
60.2875
20
66.016
0
VERTEX
8
CUT
10
58.1
20
65.391
0
VERTEX
8
CUT
10
58.1
20
63.391
0
VERTEX
8
CUT
10
60.2875
20
62.766
0
SEQEND
0
POLYLINE
8
CUT
66
1
70
0
0
VERTEX
8
CUT
10
70.6125
20
66.016
0
VERTEX
8
CUT
10
72.8
20
65.391
0
VERTEX
8
CUT
10
72.8
20
63.391
0
VERTEX
8
CUT
10
70.6125
20
62.766
0
SEQEND
0
POLYLINE
8
CUT
66
1
70
0
0
VERTEX
8
CUT
10
67.9875
20
66.016
0
VERTEX
8
CUT
10
65.8
20
65.391
0
VERTEX
8
CUT
10
65.8
20
63.391
0
VERTEX
8
CUT
10
67.9875
20
62.766
0
SEQEND
0
POLYLINE
8
CUT
66
1
70
0
0
VERTEX
8
CUT
10
78.3125
20
66.016
0
VERTEX
8
CUT
10
80.5
20
65.391
0
VERTEX
8
CUT
10
80.5
20
63.391
0
VERTEX
8
CUT
10
78.3125
20
62.766
0
SEQEND
0
POLYLINE
8
CUT
66
1
70
0
0
VERTEX
8
CUT
10
75.6875
20
66.016
0
VERTEX
8
CUT
10
73.5
20
65.391
0
VERTEX
8
CUT
10
73.5
20
63.391
0
VERTEX
8
CUT
10
75.6875
20
62.766
0
SEQEND
0
POLYLINE
8
CUT
66
1
70
0
0
VERTEX
8
CUT
10
86.0125
20
66.016
0
VERTEX
8
CUT
10
88.2
20
65.391
0
VERTEX
8
CUT
10
88.2
20
63.391
0
VERTEX
8
CUT
10
86.0125
20
62.766
0
SEQEND
0
POLYLINE
8
CUT
66
1
70
0
0
VERTEX
8
CUT
10
83.3875
20
66.016
0
VERTEX
8
CUT
10
81.2
20
65.391
0
VERTEX
8
CUT
10
81.2
20
63.391
0
VERTEX
8
CUT
10
83.3875
20
62.766
0
SEQEND
0
POLYLINE
8
CUT
66
1
70
0
0
VERTEX
8
CUT
10
93.7125
20
66.016
0
VERTEX
8
CUT
10
95.9
20
65.391
0
VERTEX
8
CUT
10
95.9
20
63.391
0
VERTEX
8
CUT
10
93.7125
20
62.766
0
SEQEND
0
POLYLINE
8
CUT
66
1
70
0
0
VERTEX
8
CUT
10
91.0875
20
66.016
0
VERTEX
8
CUT
10
88.9
20
65.391
0
VERTEX
8
CUT
10
88.9
20
63.391
0
VERTEX
8
CUT
10
91.0875
20
62.766
0
SEQEND
0
POLYLINE
8
CUT
66
1
70
0
0
VERTEX
8
CUT
10
101.4125
20
66.016
0
VERTEX
8
CUT
10
103.6
20
65.391
0
VERTEX
8
CUT
10
103.6
20
63.391
0
VERTEX
8
CUT
10
101.4125
20
62.766
0
SEQEND
0
POLYLINE
8
CUT
66
1
70
0
0
VERTEX
8
CUT
10
98.7875
20
66.016
0
VERTEX
8
CUT
10
96.6
20
65.391
0
VERTEX
8
CUT
10
96.6
20
63.391
0
VERTEX
8
CUT
10
98.7875
20
62.766
0
SEQEND
0
POLYLINE
8
CUT
66
1
70
0
0
VERTEX
8
CUT
10
109.1125
20
66.016
0
VERTEX
8
CUT
10
111.3
20
65.391
0
VERTEX
8
CUT
10
111.3
20
63.391
0
VERTEX
8
CUT
10
109.1125
20
62.766
0
SEQEND
0
POLYLINE
8
CUT
66
1
70
0
0
VERTEX
8
CUT
10
106.4875
20
66.016
0
VERTEX
8
CUT
10
104.3
20
65.391
0
VERTEX
8
CUT
10
104.3
20
63.391
0
VERTEX
8
CUT
10
106.4875
20
62.766
0
SEQEND
0
POLYLINE
8
CUT
66
1
70
0
0
VERTEX
8
CUT
10
116.8125
20
66.016
0
VERTEX
8
CUT
10
119
20
65.391
0
VERTEX
8
CUT
10
119
20
63.391
0
VERTEX
8
CUT
10
116.8125
20
62.766
0
SEQEND
0
POLYLINE
8
CUT
66
1
70
0
0
VERTEX
8
CUT
10
114.1875
20
66.016
0
VERTEX
8
CUT
10
112
20
65.391
0
VERTEX
8
CUT
10
112
20
63.391
0
VERTEX
8
CUT
10
114.1875
20
62.766
0
SEQEND
0
POLYLINE
8
CUT
66
1
70
0
0
VERTEX
8
CUT
10
120
20
65.4767
0
VERTEX
8
CUT
10
119.7
20
65.391
0
VERTEX
8
CUT
10
119.7
20
63.391
0
VERTEX
8
CUT
10
120
20
63.3053
0
SEQEND
0
POLYLINE
8
CUT
66
1
70
0
0
VERTEX
8
CUT
10
5.1625
20
62.407
0
VERTEX
8
CUT
10
7.35
20
61.782
0
VERTEX
8
CUT
10
7.35
20
59.782
0
VERTEX
8
CUT
10
5.1625
20
59.157
0
SEQEND
0
POLYLINE
8
CUT
66
1
70
0
0
VERTEX
8
CUT
10
2.5375
20
62.407
0
VERTEX
8
CUT
10
0.35
20
61.782
0
VERTEX
8
CUT
10
0.35
20
59.782
0
VERTEX
8
CUT
10
2.5375
20
59.157
0
SEQEND
0
POLYLINE
8
CUT
66
1
70
0
0
VERTEX
8
CUT
10
12.8625
20
62.407
0
VERTEX
8
CUT
10
15.05
20
61.782
0
VERTEX
8
CUT
10
15.05
20
59.782
0
VERTEX
8
CUT
10
12.8625
20
59.157
0
SEQEND
0
POLYLINE
8
CUT
66
1
70
0
0
VERTEX
8
CUT
10
10.2375
20
62.407
0
VERTEX
8
CUT
10
8.05
20
61.782
0
VERTEX
8
CUT
10
8.05
20
59.782
0
VERTEX
8
CUT
10
10.2375
20
59.157
0
SEQEND
0
POLYLINE
8
CUT
66
1
70
0
0
VERTEX
8
CUT
10
20.5625
20
62.407
0
VERTEX
8
CUT
10
22.75
20
61.782
0
VERTEX
8
CUT
10
22.75
20
59.782
0
VERTEX
8
CUT
10
20.5625
20
59.157
0
SEQEND
0
POLYLINE
8
CUT
66
1
70
0
0
VERTEX
8
CUT
10
17.9375
20
62.407
0
VERTEX
8
CUT
10
15.75
20
61.782
0
VERTEX
8
CUT
10
15.75
20
59.782
0
VERTEX
8
CUT
10
17.9375
20
59.157
0
SEQEND
0
POLYLINE
8
CUT
66
1
70
0
0
VERTEX
8
CUT
10
28.2625
20
62.407
0
VERTEX
8
CUT
10
30.45
20
61.782
0
VERTEX
8
CUT
10
30.45
20
59.782
0
VERTEX
8
CUT
10
28.2625
20
59.157
0
SEQEND
0
POLYLINE
8
CUT
66
1
70
0
0
VERTEX
8
CUT
10
25.6375
20
62.407
0
VERTEX
8
CUT
10
23.45
20
61.782
0
VERTEX
8
CUT
10
23.45
20
59.782
0
VERTEX
8
CUT
10
25.6375
20
59.157
0
SEQEND
0
POLYLINE
8
CUT
66
1
70
0
0
VERTEX
8
CUT
10
35.9625
20
62.407
0
VERTEX
8
CUT
10
38.15
20
61.782
0
VERTEX
8
CUT
10
38.15
20
59.782
0
VERTEX
8
CUT
10
35.9625
20
59.157
0
SEQEND
0
POLYLINE
8
CUT
66
1
70
0
0
VERTEX
8
CUT
10
33.3375
20
62.407
0
VERTEX
8
CUT
10
31.15
20
61.782
0
VERTEX
8
CUT
10
31.15
20
59.782
0
VERTEX
8
CUT
10
33.3375
20
59.157
0
SEQEND
0
POLYLINE
8
CUT
66
1
70
0
0
VERTEX
8
CUT
10
43.6625
20
62.407
0
VERTEX
8
CUT
10
45.85
20
61.782
0
VERTEX
8
CUT
10
45.85
20
59.782
0
VERTEX
8
CUT
10
43.6625
20
59.157
0
SEQEND
0
POLYLINE
8
CUT
66
1
70
0
0
VERTEX
8
CUT
10
41.0375
20
62.407
0
VERTEX
8
CUT
10
38.85
20
61.782
0
VERTEX
8
CUT
10
38.85
20
59.782
0
VERTEX
8
CUT
10
41.0375
20
59.157
0
SEQEND
0
POLYLINE
8
CUT
66
1
70
0
0
VERTEX
8
CUT
10
51.3625
20
62.407
0
VERTEX
8
CUT
10
53.55
20
61.782
0
VERTEX
8
CUT
10
53.55
20
59.782
0
VERTEX
8
CUT
10
51.3625
20
59.157
0
SEQEND
0
POLYLINE
8
CUT
66
1
70
0
0
VERTEX
8
CUT
10
48.7375
20
62.407
0
VERTEX
8
CUT
10
46.55
20
61.782
0
VERTEX
8
CUT
10
46.55
20
59.782
0
VERTEX
8
CUT
10
48.7375
20
59.157
0
SEQEND
0
POLYLINE
8
CUT
66
1
70
0
0
VERTEX
8
CUT
10
59.0625
20
62.407
0
VERTEX
8
CUT
10
61.25
20
61.782
0
VERTEX
8
CUT
10
61.25
20
59.782
0
VERTEX
8
CUT
10
59.0625
20
59.157
0
SEQEND
0
POLYLINE
8
CUT
66
1
70
0
0
VERTEX
8
CUT
10
56.4375
20
62.407
0
VERTEX
8
CUT
10
54.25
20
61.782
0
VERTEX
8
CUT
10
54.25
20
59.782
0
VERTEX
8
CUT
10
56.4375
20
59.157
0
SEQEND
0
POLYLINE
8
CUT
66
1
70
0
0
VERTEX
8
CUT
10
66.7625
20
62.407
0
VERTEX
8
CUT
10
68.95
20
61.782
0
VERTEX
8
CUT
10
68.95
20
59.782
0
VERTEX
8
CUT
10
66.7625
20
59.157
0
SEQEND
0
POLYLINE
8
CUT
66
1
70
0
0
VERTEX
8
CUT
10
64.1375
20
62.407
0
VERTEX
8
CUT
10
61.95
20
61.782
0
VERTEX
8
CUT
10
61.95
20
59.782
0
VERTEX
8
CUT
10
64.1375
20
59.157
0
SEQEND
0
POLYLINE
8
CUT
66
1
70
0
0
VERTEX
8
CUT
10
74.4625
20
62.407
0
VERTEX
8
CUT
10
76.65
20
61.782
0
VERTEX
8
CUT
10
76.65
20
59.782
0
VERTEX
8
CUT
10
74.4625
20
59.157
0
SEQEND
0
POLYLINE
8
CUT
66
1
70
0
0
VERTEX
8
CUT
10
71.8375
20
62.407
0
VERTEX
8
CUT
10
69.65
20
61.782
0
VERTEX
8
CUT
10
69.65
20
59.782
0
VERTEX
8
CUT
10
71.8375
20
59.157
0
SEQEND
0
POLYLINE
8
CUT
66
1
70
0
0
VERTEX
8
CUT
10
82.1625
20
62.407
0
VERTEX
8
CUT
10
84.35
20
61.782
0
VERTEX
8
CUT
10
84.35
20
59.782
0
VERTEX
8
CUT
10
82.1625
20
59.157
0
SEQEND
0
POLYLINE
8
CUT
66
1
70
0
0
VERTEX
8
CUT
10
79.5375
20
62.407
0
VERTEX
8
CUT
10
77.35
20
61.782
0
VERTEX
8
CUT
10
77.35
20
59.782
0
VERTEX
8
CUT
10
79.5375
20
59.157
0
SEQEND
0
POLYLINE
8
CUT
66
1
70
0
0
VERTEX
8
CUT
10
89.8625
20
62.407
0
VERTEX
8
CUT
10
92.05
20
61.782
0
VERTEX
8
CUT
10
92.05
20
59.782
0
VERTEX
8
CUT
10
89.8625
20
59.157
0
SEQEND
0
POLYLINE
8
CUT
66
1
70
0
0
VERTEX
8
CUT
10
87.2375
20
62.407
0
VERTEX
8
CUT
10
85.05
20
61.782
0
VERTEX
8
CUT
10
85.05
20
59.782
0
VERTEX
8
CUT
10
87.2375
20
59.157
0
SEQEND
0
POLYLINE
8
CUT
66
1
70
0
0
VERTEX
8
CUT
10
97.5625
20
62.407
0
VERTEX
8
CUT
10
99.75
20
61.782
0
VERTEX
8
CUT
10
99.75
20
59.782
0
VERTEX
8
CUT
10
97.5625
20
59.157
0
SEQEND
0
POLYLINE
8
CUT
66
1
70
0
0
VERTEX
8
CUT
10
94.9375
20
62.407
0
VERTEX
8
CUT
10
92.75
20
61.782
0
VERTEX
8
CUT
10
92.75
20
59.782
0
VERTEX
8
CUT
10
94.9375
20
59.157
0
SEQEND
0
POLYLINE
8
CUT
66
1
70
0
0
VERTEX
8
CUT
10
105.2625
20
62.407
0
VERTEX
8
CUT
10
107.45
20
61.782
0
VERTEX
8
CUT
10
107.45
20
59.782
0
VERTEX
8
CUT
10
105.2625
20
59.157
0
SEQEND
0
POLYLINE
8
CUT
66
1
70
0
0
VERTEX
8
CUT
10
102.6375
20
62.407
0
VERTEX
8
CUT
10
100.45
20
61.782
0
VERTEX
8
CUT
10
100.45
20
59.782
0
VERTEX
8
CUT
10
102.6375
20
59.157
0
SEQEND
0
POLYLINE
8
CUT
66
1
70
0
0
VERTEX
8
CUT
10
112.9625
20
62.407
0
VERTEX
8
CUT
10
115.15
20
61.782
0
VERTEX
8
CUT
10
115.15
20
59.782
0
VERTEX
8
CUT
10
112.9625
20
59.157
0
SEQEND
0
POLYLINE
8
CUT
66
1
70
0
0
VERTEX
8
CUT
10
110.3375
20
62.407
0
VERTEX
8
CUT
10
108.15
20
61.782
0
VERTEX
8
CUT
10
108.15
20
59.782
0
VERTEX
8
CUT
10
110.3375
20
59.157
0
SEQEND
0
POLYLINE
8
CUT
66
1
70
0
0
VERTEX
8
CUT
10
118.0375
20
62.407
0
VERTEX
8
CUT
10
115.85
20
61.782
0
VERTEX
8
CUT
10
115.85
20
59.782
0
VERTEX
8
CUT
10
118.0375
20
59.157
0
SEQEND
0
POLYLINE
8
CUT
66
1
70
0
0
VERTEX
8
CUT
10
1.3125
20
58.798
0
VERTEX
8
CUT
10
3.5
20
58.173
0
VERTEX
8
CUT
10
3.5
20
56.173
0
VERTEX
8
CUT
10
1.3125
20
55.548
0
SEQEND
0
POLYLINE
8
CUT
66
1
70
0
0
VERTEX
8
CUT
10
9.0125
20
58.798
0
VERTEX
8
CUT
10
11.2
20
58.173
0
VERTEX
8
CUT
10
11.2
20
56.173
0
VERTEX
8
CUT
10
9.0125
20
55.548
0
SEQEND
0
POLYLINE
8
CUT
66
1
70
0
0
VERTEX
8
CUT
10
6.3875
20
58.798
0
VERTEX
8
CUT
10
4.2
20
58.173
0
VERTEX
8
CUT
10
4.2
20
56.173
0
VERTEX
8
CUT
10
6.3875
20
55.548
0
SEQEND
0
POLYLINE
8
CUT
66
1
70
0
0
VERTEX
8
CUT
10
16.7125
20
58.798
0
VERTEX
8
CUT
10
18.9
20
58.173
0
VERTEX
8
CUT
10
18.9
20
56.173
0
VERTEX
8
CUT
10
16.7125
20
55.548
0
SEQEND
0
POLYLINE
8
CUT
66
1
70
0
0
VERTEX
8
CUT
10
14.0875
20
58.798
0
VERTEX
8
CUT
10
11.9
20
58.173
0
VERTEX
8
CUT
10
11.9
20
56.173
0
VERTEX
8
CUT
10
14.0875
20
55.548
0
SEQEND
0
POLYLINE
8
CUT
66
1
70
0
0
VERTEX
8
CUT
10
24.4125
20
58.798
0
VERTEX
8
CUT
10
26.6
20
58.173
0
VERTEX
8
CUT
10
26.6
20
56.173
0
VERTEX
8
CUT
10
24.4125
20
55.548
0
SEQEND
0
POLYLINE
8
CUT
66
1
70
0
0
VERTEX
8
CUT
10
21.7875
20
58.798
0
VERTEX
8
CUT
10
19.6
20
58.173
0
VERTEX
8
CUT
10
19.6
20
56.173
0
VERTEX
8
CUT
10
21.7875
20
55.548
0
SEQEND
0
POLYLINE
8
CUT
66
1
70
0
0
VERTEX
8
CUT
10
32.1125
20
58.798
0
VERTEX
8
CUT
10
34.3
20
58.173
0
VERTEX
8
CUT
10
34.3
20
56.173
0
VERTEX
8
CUT
10
32.1125
20
55.548
0
SEQEND
0
POLYLINE
8
CUT
66
1
70
0
0
VERTEX
8
CUT
10
29.4875
20
58.798
0
VERTEX
8
CUT
10
27.3
20
58.173
0
VERTEX
8
CUT
10
27.3
20
56.173
0
VERTEX
8
CUT
10
29.4875
20
55.548
0
SEQEND
0
POLYLINE
8
CUT
66
1
70
0
0
VERTEX
8
CUT
10
39.8125
20
58.798
0
VERTEX
8
CUT
10
42
20
58.173
0
VERTEX
8
CUT
10
42
20
56.173
0
VERTEX
8
CUT
10
39.8125
20
55.548
0
SEQEND
0
POLYLINE
8
CUT
66
1
70
0
0
VERTEX
8
CUT
10
37.1875
20
58.798
0
VERTEX
8
CUT
10
35
20
58.173
0
VERTEX
8
CUT
10
35
20
56.173
0
VERTEX
8
CUT
10
37.1875
20
55.548
0
SEQEND
0
POLYLINE
8
CUT
66
1
70
0
0
VERTEX
8
CUT
10
47.5125
20
58.798
0
VERTEX
8
CUT
10
49.7
20
58.173
0
VERTEX
8
CUT
10
49.7
20
56.173
0
VERTEX
8
CUT
10
47.5125
20
55.548
0
SEQEND
0
POLYLINE
8
CUT
66
1
70
0
0
VERTEX
8
CUT
10
44.8875
20
58.798
0
VERTEX
8
CUT
10
42.7
20
58.173
0
VERTEX
8
CUT
10
42.7
20
56.173
0
VERTEX
8
CUT
10
44.8875
20
55.548
0
SEQEND
0
POLYLINE
8
CUT
66
1
70
0
0
VERTEX
8
CUT
10
55.2125
20
58.798
0
VERTEX
8
CUT
10
57.4
20
58.173
0
VERTEX
8
CUT
10
57.4
20
56.173
0
VERTEX
8
CUT
10
55.2125
20
55.548
0
SEQEND
0
POLYLINE
8
CUT
66
1
70
0
0
VERTEX
8
CUT
10
52.5875
20
58.798
0
VERTEX
8
CUT
10
50.4
20
58.173
0
VERTEX
8
CUT
10
50.4
20
56.173
0
VERTEX
8
CUT
10
52.5875
20
55.548
0
SEQEND
0
POLYLINE
8
CUT
66
1
70
0
0
VERTEX
8
CUT
10
62.9125
20
58.798
0
VERTEX
8
CUT
10
65.1
20
58.173
0
VERTEX
8
CUT
10
65.1
20
56.173
0
VERTEX
8
CUT
10
62.9125
20
55.548
0
SEQEND
0
POLYLINE
8
CUT
66
1
70
0
0
VERTEX
8
CUT
10
60.2875
20
58.798
0
VERTEX
8
CUT
10
58.1
20
58.173
0
VERTEX
8
CUT
10
58.1
20
56.173
0
VERTEX
8
CUT
10
60.2875
20
55.548
0
SEQEND
0
POLYLINE
8
CUT
66
1
70
0
0
VERTEX
8
CUT
10
70.6125
20
58.798
0
VERTEX
8
CUT
10
72.8
20
58.173
0
VERTEX
8
CUT
10
72.8
20
56.173
0
VERTEX
8
CUT
10
70.6125
20
55.548
0
SEQEND
0
POLYLINE
8
CUT
66
1
70
0
0
VERTEX
8
CUT
10
67.9875
20
58.798
0
VERTEX
8
CUT
10
65.8
20
58.173
0
VERTEX
8
CUT
10
65.8
20
56.173
0
VERTEX
8
CUT
10
67.9875
20
55.548
0
SEQEND
0
POLYLINE
8
CUT
66
1
70
0
0
VERTEX
8
CUT
10
78.3125
20
58.798
0
VERTEX
8
CUT
10
80.5
20
58.173
0
VERTEX
8
CUT
10
80.5
20
56.173
0
VERTEX
8
CUT
10
78.3125
20
55.548
0
SEQEND
0
POLYLINE
8
CUT
66
1
70
0
0
VERTEX
8
CUT
10
75.6875
20
58.798
0
VERTEX
8
CUT
10
73.5
20
58.173
0
VERTEX
8
CUT
10
73.5
20
56.173
0
VERTEX
8
CUT
10
75.6875
20
55.548
0
SEQEND
0
POLYLINE
8
CUT
66
1
70
0
0
VERTEX
8
CUT
10
86.0125
20
58.798
0
VERTEX
8
CUT
10
88.2
20
58.173
0
VERTEX
8
CUT
10
88.2
20
56.173
0
VERTEX
8
CUT
10
86.0125
20
55.548
0
SEQEND
0
POLYLINE
8
CUT
66
1
70
0
0
VERTEX
8
CUT
10
83.3875
20
58.798
0
VERTEX
8
CUT
10
81.2
20
58.173
0
VERTEX
8
CUT
10
81.2
20
56.173
0
VERTEX
8
CUT
10
83.3875
20
55.548
0
SEQEND
0
POLYLINE
8
CUT
66
1
70
0
0
VERTEX
8
CUT
10
93.7125
20
58.798
0
VERTEX
8
CUT
10
95.9
20
58.173
0
VERTEX
8
CUT
10
95.9
20
56.173
0
VERTEX
8
CUT
10
93.7125
20
55.548
0
SEQEND
0
POLYLINE
8
CUT
66
1
70
0
0
VERTEX
8
CUT
10
91.0875
20
58.798
0
VERTEX
8
CUT
10
88.9
20
58.173
0
VERTEX
8
CUT
10
88.9
20
56.173
0
VERTEX
8
CUT
10
91.0875
20
55.548
0
SEQEND
0
POLYLINE
8
CUT
66
1
70
0
0
VERTEX
8
CUT
10
101.4125
20
58.798
0
VERTEX
8
CUT
10
103.6
20
58.173
0
VERTEX
8
CUT
10
103.6
20
56.173
0
VERTEX
8
CUT
10
101.4125
20
55.548
0
SEQEND
0
POLYLINE
8
CUT
66
1
70
0
0
VERTEX
8
CUT
10
98.7875
20
58.798
0
VERTEX
8
CUT
10
96.6
20
58.173
0
VERTEX
8
CUT
10
96.6
20
56.173
0
VERTEX
8
CUT
10
98.7875
20
55.548
0
SEQEND
0
POLYLINE
8
CUT
66
1
70
0
0
VERTEX
8
CUT
10
109.1125
20
58.798
0
VERTEX
8
CUT
10
111.3
20
58.173
0
VERTEX
8
CUT
10
111.3
20
56.173
0
VERTEX
8
CUT
10
109.1125
20
55.548
0
SEQEND
0
POLYLINE
8
CUT
66
1
70
0
0
VERTEX
8
CUT
10
106.4875
20
58.798
0
VERTEX
8
CUT
10
104.3
20
58.173
0
VERTEX
8
CUT
10
104.3
20
56.173
0
VERTEX
8
CUT
10
106.4875
20
55.548
0
SEQEND
0
POLYLINE
8
CUT
66
1
70
0
0
VERTEX
8
CUT
10
116.8125
20
58.798
0
VERTEX
8
CUT
10
119
20
58.173
0
VERTEX
8
CUT
10
119
20
56.173
0
VERTEX
8
CUT
10
116.8125
20
55.548
0
SEQEND
0
POLYLINE
8
CUT
66
1
70
0
0
VERTEX
8
CUT
10
114.1875
20
58.798
0
VERTEX
8
CUT
10
112
20
58.173
0
VERTEX
8
CUT
10
112
20
56.173
0
VERTEX
8
CUT
10
114.1875
20
55.548
0
SEQEND
0
POLYLINE
8
CUT
66
1
70
0
0
VERTEX
8
CUT
10
120
20
58.2587
0
VERTEX
8
CUT
10
119.7
20
58.173
0
VERTEX
8
CUT
10
119.7
20
56.173
0
VERTEX
8
CUT
10
120
20
56.0873
0
SEQEND
0
POLYLINE
8
CUT
66
1
70
0
0
VERTEX
8
CUT
10
5.1625
20
55.189
0
VERTEX
8
CUT
10
7.35
20
54.564
0
VERTEX
8
CUT
10
7.35
20
52.564
0
VERTEX
8
CUT
10
5.1625
20
51.939
0
SEQEND
0
POLYLINE
8
CUT
66
1
70
0
0
VERTEX
8
CUT
10
2.5375
20
55.189
0
VERTEX
8
CUT
10
0.35
20
54.564
0
VERTEX
8
CUT
10
0.35
20
52.564
0
VERTEX
8
CUT
10
2.5375
20
51.939
0
SEQEND
0
POLYLINE
8
CUT
66
1
70
0
0
VERTEX
8
CUT
10
12.8625
20
55.189
0
VERTEX
8
CUT
10
15.05
20
54.564
0
VERTEX
8
CUT
10
15.05
20
52.564
0
VERTEX
8
CUT
10
12.8625
20
51.939
0
SEQEND
0
POLYLINE
8
CUT
66
1
70
0
0
VERTEX
8
CUT
10
10.2375
20
55.189
0
VERTEX
8
CUT
10
8.05
20
54.564
0
VERTEX
8
CUT
10
8.05
20
52.564
0
VERTEX
8
CUT
10
10.2375
20
51.939
0
SEQEND
0
POLYLINE
8
CUT
66
1
70
0
0
VERTEX
8
CUT
10
20.5625
20
55.189
0
VERTEX
8
CUT
10
22.75
20
54.564
0
VERTEX
8
CUT
10
22.75
20
52.564
0
VERTEX
8
CUT
10
20.5625
20
51.939
0
SEQEND
0
POLYLINE
8
CUT
66
1
70
0
0
VERTEX
8
CUT
10
17.9375
20
55.189
0
VERTEX
8
CUT
10
15.75
20
54.564
0
VERTEX
8
CUT
10
15.75
20
52.564
0
VERTEX
8
CUT
10
17.9375
20
51.939
0
SEQEND
0
POLYLINE
8
CUT
66
1
70
0
0
VERTEX
8
CUT
10
28.2625
20
55.189
0
VERTEX
8
CUT
10
30.45
20
54.564
0
VERTEX
8
CUT
10
30.45
20
52.564
0
VERTEX
8
CUT
10
28.2625
20
51.939
0
SEQEND
0
POLYLINE
8
CUT
66
1
70
0
0
VERTEX
8
CUT
10
25.6375
20
55.189
0
VERTEX
8
CUT
10
23.45
20
54.564
0
VERTEX
8
CUT
10
23.45
20
52.564
0
VERTEX
8
CUT
10
25.6375
20
51.939
0
SEQEND
0
POLYLINE
8
CUT
66
1
70
0
0
VERTEX
8
CUT
10
35.9625
20
55.189
0
VERTEX
8
CUT
10
38.15
20
54.564
0
VERTEX
8
CUT
10
38.15
20
52.564
0
VERTEX
8
CUT
10
35.9625
20
51.939
0
SEQEND
0
POLYLINE
8
CUT
66
1
70
0
0
VERTEX
8
CUT
10
33.3375
20
55.189
0
VERTEX
8
CUT
10
31.15
20
54.564
0
VERTEX
8
CUT
10
31.15
20
52.564
0
VERTEX
8
CUT
10
33.3375
20
51.939
0
SEQEND
0
POLYLINE
8
CUT
66
1
70
0
0
VERTEX
8
CUT
10
43.6625
20
55.189
0
VERTEX
8
CUT
10
45.85
20
54.564
0
VERTEX
8
CUT
10
45.85
20
52.564
0
VERTEX
8
CUT
10
43.6625
20
51.939
0
SEQEND
0
POLYLINE
8
CUT
66
1
70
0
0
VERTEX
8
CUT
10
41.0375
20
55.189
0
VERTEX
8
CUT
10
38.85
20
54.564
0
VERTEX
8
CUT
10
38.85
20
52.564
0
VERTEX
8
CUT
10
41.0375
20
51.939
0
SEQEND
0
POLYLINE
8
CUT
66
1
70
0
0
VERTEX
8
CUT
10
51.3625
20
55.189
0
VERTEX
8
CUT
10
53.55
20
54.564
0
VERTEX
8
CUT
10
53.55
20
52.564
0
VERTEX
8
CUT
10
51.3625
20
51.939
0
SEQEND
0
POLYLINE
8
CUT
66
1
70
0
0
VERTEX
8
CUT
10
48.7375
20
55.189
0
VERTEX
8
CUT
10
46.55
20
54.564
0
VERTEX
8
CUT
10
46.55
20
52.564
0
VERTEX
8
CUT
10
48.7375
20
51.939
0
SEQEND
0
POLYLINE
8
CUT
66
1
70
0
0
VERTEX
8
CUT
10
59.0625
20
55.189
0
VERTEX
8
CUT
10
61.25
20
54.564
0
VERTEX
8
CUT
10
61.25
20
52.564
0
VERTEX
8
CUT
10
59.0625
20
51.939
0
SEQEND
0
POLYLINE
8
CUT
66
1
70
0
0
VERTEX
8
CUT
10
56.4375
20
55.189
0
VERTEX
8
CUT
10
54.25
20
54.564
0
VERTEX
8
CUT
10
54.25
20
52.564
0
VERTEX
8
CUT
10
56.4375
20
51.939
0
SEQEND
0
POLYLINE
8
CUT
66
1
70
0
0
VERTEX
8
CUT
10
66.7625
20
55.189
0
VERTEX
8
CUT
10
68.95
20
54.564
0
VERTEX
8
CUT
10
68.95
20
52.564
0
VERTEX
8
CUT
10
66.7625
20
51.939
0
SEQEND
0
POLYLINE
8
CUT
66
1
70
0
0
VERTEX
8
CUT
10
64.1375
20
55.189
0
VERTEX
8
CUT
10
61.95
20
54.564
0
VERTEX
8
CUT
10
61.95
20
52.564
0
VERTEX
8
CUT
10
64.1375
20
51.939
0
SEQEND
0
POLYLINE
8
CUT
66
1
70
0
0
VERTEX
8
CUT
10
74.4625
20
55.189
0
VERTEX
8
CUT
10
76.65
20
54.564
0
VERTEX
8
CUT
10
76.65
20
52.564
0
VERTEX
8
CUT
10
74.4625
20
51.939
0
SEQEND
0
POLYLINE
8
CUT
66
1
70
0
0
VERTEX
8
CUT
10
71.8375
20
55.189
0
VERTEX
8
CUT
10
69.65
20
54.564
0
VERTEX
8
CUT
10
69.65
20
52.564
0
VERTEX
8
CUT
10
71.8375
20
51.939
0
SEQEND
0
POLYLINE
8
CUT
66
1
70
0
0
VERTEX
8
CUT
10
82.1625
20
55.189
0
VERTEX
8
CUT
10
84.35
20
54.564
0
VERTEX
8
CUT
10
84.35
20
52.564
0
VERTEX
8
CUT
10
82.1625
20
51.939
0
SEQEND
0
POLYLINE
8
CUT
66
1
70
0
0
VERTEX
8
CUT
10
79.5375
20
55.189
0
VERTEX
8
CUT
10
77.35
20
54.564
0
VERTEX
8
CUT
10
77.35
20
52.564
0
VERTEX
8
CUT
10
79.5375
20
51.939
0
SEQEND
0
POLYLINE
8
CUT
66
1
70
0
0
VERTEX
8
CUT
10
89.8625
20
55.189
0
VERTEX
8
CUT
10
92.05
20
54.564
0
VERTEX
8
CUT
10
92.05
20
52.564
0
VERTEX
8
CUT
10
89.8625
20
51.939
0
SEQEND
0
POLYLINE
8
CUT
66
1
70
0
0
VERTEX
8
CUT
10
87.2375
20
55.189
0
VERTEX
8
CUT
10
85.05
20
54.564
0
VERTEX
8
CUT
10
85.05
20
52.564
0
VERTEX
8
CUT
10
87.2375
20
51.939
0
SEQEND
0
POLYLINE
8
CUT
66
1
70
0
0
VERTEX
8
CUT
10
97.5625
20
55.189
0
VERTEX
8
CUT
10
99.75
20
54.564
0
VERTEX
8
CUT
10
99.75
20
52.564
0
VERTEX
8
CUT
10
97.5625
20
51.939
0
SEQEND
0
POLYLINE
8
CUT
66
1
70
0
0
VERTEX
8
CUT
10
94.9375
20
55.189
0
VERTEX
8
CUT
10
92.75
20
54.564
0
VERTEX
8
CUT
10
92.75
20
52.564
0
VERTEX
8
CUT
10
94.9375
20
51.939
0
SEQEND
0
POLYLINE
8
CUT
66
1
70
0
0
VERTEX
8
CUT
10
105.2625
20
55.189
0
VERTEX
8
CUT
10
107.45
20
54.564
0
VERTEX
8
CUT
10
107.45
20
52.564
0
VERTEX
8
CUT
10
105.2625
20
51.939
0
SEQEND
0
POLYLINE
8
CUT
66
1
70
0
0
VERTEX
8
CUT
10
102.6375
20
55.189
0
VERTEX
8
CUT
10
100.45
20
54.564
0
VERTEX
8
CUT
10
100.45
20
52.564
0
VERTEX
8
CUT
10
102.6375
20
51.939
0
SEQEND
0
POLYLINE
8
CUT
66
1
70
0
0
VERTEX
8
CUT
10
112.9625
20
55.189
0
VERTEX
8
CUT
10
115.15
20
54.564
0
VERTEX
8
CUT
10
115.15
20
52.564
0
VERTEX
8
CUT
10
112.9625
20
51.939
0
SEQEND
0
POLYLINE
8
CUT
66
1
70
0
0
VERTEX
8
CUT
10
110.3375
20
55.189
0
VERTEX
8
CUT
10
108.15
20
54.564
0
VERTEX
8
CUT
10
108.15
20
52.564
0
VERTEX
8
CUT
10
110.3375
20
51.939
0
SEQEND
0
POLYLINE
8
CUT
66
1
70
0
0
VERTEX
8
CUT
10
118.0375
20
55.189
0
VERTEX
8
CUT
10
115.85
20
54.564
0
VERTEX
8
CUT
10
115.85
20
52.564
0
VERTEX
8
CUT
10
118.0375
20
51.939
0
SEQEND
0
POLYLINE
8
CUT
66
1
70
0
0
VERTEX
8
CUT
10
1.3125
20
51.58
0
VERTEX
8
CUT
10
3.5
20
50.955
0
VERTEX
8
CUT
10
3.5
20
48.955
0
VERTEX
8
CUT
10
1.3125
20
48.33
0
SEQEND
0
POLYLINE
8
CUT
66
1
70
0
0
VERTEX
8
CUT
10
9.0125
20
51.58
0
VERTEX
8
CUT
10
11.2
20
50.955
0
VERTEX
8
CUT
10
11.2
20
48.955
0
VERTEX
8
CUT
10
9.0125
20
48.33
0
SEQEND
0
POLYLINE
8
CUT
66
1
70
0
0
VERTEX
8
CUT
10
6.3875
20
51.58
0
VERTEX
8
CUT
10
4.2
20
50.955
0
VERTEX
8
CUT
10
4.2
20
48.955
0
VERTEX
8
CUT
10
6.3875
20
48.33
0
SEQEND
0
POLYLINE
8
CUT
66
1
70
0
0
VERTEX
8
CUT
10
16.7125
20
51.58
0
VERTEX
8
CUT
10
18.9
20
50.955
0
VERTEX
8
CUT
10
18.9
20
48.955
0
VERTEX
8
CUT
10
16.7125
20
48.33
0
SEQEND
0
POLYLINE
8
CUT
66
1
70
0
0
VERTEX
8
CUT
10
14.0875
20
51.58
0
VERTEX
8
CUT
10
11.9
20
50.955
0
VERTEX
8
CUT
10
11.9
20
48.955
0
VERTEX
8
CUT
10
14.0875
20
48.33
0
SEQEND
0
POLYLINE
8
CUT
66
1
70
0
0
VERTEX
8
CUT
10
24.4125
20
51.58
0
VERTEX
8
CUT
10
26.6
20
50.955
0
VERTEX
8
CUT
10
26.6
20
48.955
0
VERTEX
8
CUT
10
24.4125
20
48.33
0
SEQEND
0
POLYLINE
8
CUT
66
1
70
0
0
VERTEX
8
CUT
10
21.7875
20
51.58
0
VERTEX
8
CUT
10
19.6
20
50.955
0
VERTEX
8
CUT
10
19.6
20
48.955
0
VERTEX
8
CUT
10
21.7875
20
48.33
0
SEQEND
0
POLYLINE
8
CUT
66
1
70
0
0
VERTEX
8
CUT
10
32.1125
20
51.58
0
VERTEX
8
CUT
10
34.3
20
50.955
0
VERTEX
8
CUT
10
34.3
20
48.955
0
VERTEX
8
CUT
10
32.1125
20
48.33
0
SEQEND
0
POLYLINE
8
CUT
66
1
70
0
0
VERTEX
8
CUT
10
29.4875
20
51.58
0
VERTEX
8
CUT
10
27.3
20
50.955
0
VERTEX
8
CUT
10
27.3
20
48.955
0
VERTEX
8
CUT
10
29.4875
20
48.33
0
SEQEND
0
POLYLINE
8
CUT
66
1
70
0
0
VERTEX
8
CUT
10
39.8125
20
51.58
0
VERTEX
8
CUT
10
42
20
50.955
0
VERTEX
8
CUT
10
42
20
48.955
0
VERTEX
8
CUT
10
39.8125
20
48.33
0
SEQEND
0
POLYLINE
8
CUT
66
1
70
0
0
VERTEX
8
CUT
10
37.1875
20
51.58
0
VERTEX
8
CUT
10
35
20
50.955
0
VERTEX
8
CUT
10
35
20
48.955
0
VERTEX
8
CUT
10
37.1875
20
48.33
0
SEQEND
0
POLYLINE
8
CUT
66
1
70
0
0
VERTEX
8
CUT
10
47.5125
20
51.58
0
VERTEX
8
CUT
10
49.7
20
50.955
0
VERTEX
8
CUT
10
49.7
20
48.955
0
VERTEX
8
CUT
10
47.5125
20
48.33
0
SEQEND
0
POLYLINE
8
CUT
66
1
70
0
0
VERTEX
8
CUT
10
44.8875
20
51.58
0
VERTEX
8
CUT
10
42.7
20
50.955
0
VERTEX
8
CUT
10
42.7
20
48.955
0
VERTEX
8
CUT
10
44.8875
20
48.33
0
SEQEND
0
POLYLINE
8
CUT
66
1
70
0
0
VERTEX
8
CUT
10
55.2125
20
51.58
0
VERTEX
8
CUT
10
57.4
20
50.955
0
VERTEX
8
CUT
10
57.4
20
48.955
0
VERTEX
8
CUT
10
55.2125
20
48.33
0
SEQEND
0
POLYLINE
8
CUT
66
1
70
0
0
VERTEX
8
CUT
10
52.5875
20
51.58
0
VERTEX
8
CUT
10
50.4
20
50.955
0
VERTEX
8
CUT
10
50.4
20
48.955
0
VERTEX
8
CUT
10
52.5875
20
48.33
0
SEQEND
0
POLYLINE
8
CUT
66
1
70
0
0
VERTEX
8
CUT
10
62.9125
20
51.58
0
VERTEX
8
CUT
10
65.1
20
50.955
0
VERTEX
8
CUT
10
65.1
20
48.955
0
VERTEX
8
CUT
10
62.9125
20
48.33
0
SEQEND
0
POLYLINE
8
CUT
66
1
70
0
0
VERTEX
8
CUT
10
60.2875
20
51.58
0
VERTEX
8
CUT
10
58.1
20
50.955
0
VERTEX
8
CUT
10
58.1
20
48.955
0
VERTEX
8
CUT
10
60.2875
20
48.33
0
SEQEND
0
POLYLINE
8
CUT
66
1
70
0
0
VERTEX
8
CUT
10
70.6125
20
51.58
0
VERTEX
8
CUT
10
72.8
20
50.955
0
VERTEX
8
CUT
10
72.8
20
48.955
0
VERTEX
8
CUT
10
70.6125
20
48.33
0
SEQEND
0
POLYLINE
8
CUT
66
1
70
0
0
VERTEX
8
CUT
10
67.9875
20
51.58
0
VERTEX
8
CUT
10
65.8
20
50.955
0
VERTEX
8
CUT
10
65.8
20
48.955
0
VERTEX
8
CUT
10
67.9875
20
48.33
0
SEQEND
0
POLYLINE
8
CUT
66
1
70
0
0
VERTEX
8
CUT
10
78.3125
20
51.58
0
VERTEX
8
CUT
10
80.5
20
50.955
0
VERTEX
8
CUT
10
80.5
20
48.955
0
VERTEX
8
CUT
10
78.3125
20
48.33
0
SEQEND
0
POLYLINE
8
CUT
66
1
70
0
0
VERTEX
8
CUT
10
75.6875
20
51.58
0
VERTEX
8
CUT
10
73.5
20
50.955
0
VERTEX
8
CUT
10
73.5
20
48.955
0
VERTEX
8
CUT
10
75.6875
20
48.33
0
SEQEND
0
POLYLINE
8
CUT
66
1
70
0
0
VERTEX
8
CUT
10
86.0125
20
51.58
0
VERTEX
8
CUT
10
88.2
20
50.955
0
VERTEX
8
CUT
10
88.2
20
48.955
0
VERTEX
8
CUT
10
86.0125
20
48.33
0
SEQEND
0
POLYLINE
8
CUT
66
1
70
0
0
VERTEX
8
CUT
10
83.3875
20
51.58
0
VERTEX
8
CUT
10
81.2
20
50.955
0
VERTEX
8
CUT
10
81.2
20
48.955
0
VERTEX
8
CUT
10
83.3875
20
48.33
0
SEQEND
0
POLYLINE
8
CUT
66
1
70
0
0
VERTEX
8
CUT
10
93.7125
20
51.58
0
VERTEX
8
CUT
10
95.9
20
50.955
0
VERTEX
8
CUT
10
95.9
20
48.955
0
VERTEX
8
CUT
10
93.7125
20
48.33
0
SEQEND
0
POLYLINE
8
CUT
66
1
70
0
0
VERTEX
8
CUT
10
91.0875
20
51.58
0
VERTEX
8
CUT
10
88.9
20
50.955
0
VERTEX
8
CUT
10
88.9
20
48.955
0
VERTEX
8
CUT
10
91.0875
20
48.33
0
SEQEND
0
POLYLINE
8
CUT
66
1
70
0
0
VERTEX
8
CUT
10
101.4125
20
51.58
0
VERTEX
8
CUT
10
103.6
20
50.955
0
VERTEX
8
CUT
10
103.6
20
48.955
0
VERTEX
8
CUT
10
101.4125
20
48.33
0
SEQEND
0
POLYLINE
8
CUT
66
1
70
0
0
VERTEX
8
CUT
10
98.7875
20
51.58
0
VERTEX
8
CUT
10
96.6
20
50.955
0
VERTEX
8
CUT
10
96.6
20
48.955
0
VERTEX
8
CUT
10
98.7875
20
48.33
0
SEQEND
0
POLYLINE
8
CUT
66
1
70
0
0
VERTEX
8
CUT
10
109.1125
20
51.58
0
VERTEX
8
CUT
10
111.3
20
50.955
0
VERTEX
8
CUT
10
111.3
20
48.955
0
VERTEX
8
CUT
10
109.1125
20
48.33
0
SEQEND
0
POLYLINE
8
CUT
66
1
70
0
0
VERTEX
8
CUT
10
106.4875
20
51.58
0
VERTEX
8
CUT
10
104.3
20
50.955
0
VERTEX
8
CUT
10
104.3
20
48.955
0
VERTEX
8
CUT
10
106.4875
20
48.33
0
SEQEND
0
POLYLINE
8
CUT
66
1
70
0
0
VERTEX
8
CUT
10
116.8125
20
51.58
0
VERTEX
8
CUT
10
119
20
50.955
0
VERTEX
8
CUT
10
119
20
48.955
0
VERTEX
8
CUT
10
116.8125
20
48.33
0
SEQEND
0
POLYLINE
8
CUT
66
1
70
0
0
VERTEX
8
CUT
10
114.1875
20
51.58
0
VERTEX
8
CUT
10
112
20
50.955
0
VERTEX
8
CUT
10
112
20
48.955
0
VERTEX
8
CUT
10
114.1875
20
48.33
0
SEQEND
0
POLYLINE
8
CUT
66
1
70
0
0
VERTEX
8
CUT
10
120
20
51.0407
0
VERTEX
8
CUT
10
119.7
20
50.955
0
VERTEX
8
CUT
10
119.7
20
48.955
0
VERTEX
8
CUT
10
120
20
48.8693
0
SEQEND
0
POLYLINE
8
CUT
66
1
70
0
0
VERTEX
8
CUT
10
5.1625
20
47.971
0
VERTEX
8
CUT
10
7.35
20
47.346
0
VERTEX
8
CUT
10
7.35
20
45.346
0
VERTEX
8
CUT
10
5.1625
20
44.721
0
SEQEND
0
POLYLINE
8
CUT
66
1
70
0
0
VERTEX
8
CUT
10
2.5375
20
47.971
0
VERTEX
8
CUT
10
0.35
20
47.346
0
VERTEX
8
CUT
10
0.35
20
45.346
0
VERTEX
8
CUT
10
2.5375
20
44.721
0
SEQEND
0
POLYLINE
8
CUT
66
1
70
0
0
VERTEX
8
CUT
10
12.8625
20
47.971
0
VERTEX
8
CUT
10
15.05
20
47.346
0
VERTEX
8
CUT
10
15.05
20
45.346
0
VERTEX
8
CUT
10
12.8625
20
44.721
0
SEQEND
0
POLYLINE
8
CUT
66
1
70
0
0
VERTEX
8
CUT
10
10.2375
20
47.971
0
VERTEX
8
CUT
10
8.05
20
47.346
0
VERTEX
8
CUT
10
8.05
20
45.346
0
VERTEX
8
CUT
10
10.2375
20
44.721
0
SEQEND
0
POLYLINE
8
CUT
66
1
70
0
0
VERTEX
8
CUT
10
20.5625
20
47.971
0
VERTEX
8
CUT
10
22.75
20
47.346
0
VERTEX
8
CUT
10
22.75
20
45.346
0
VERTEX
8
CUT
10
20.5625
20
44.721
0
SEQEND
0
POLYLINE
8
CUT
66
1
70
0
0
VERTEX
8
CUT
10
17.9375
20
47.971
0
VERTEX
8
CUT
10
15.75
20
47.346
0
VERTEX
8
CUT
10
15.75
20
45.346
0
VERTEX
8
CUT
10
17.9375
20
44.721
0
SEQEND
0
POLYLINE
8
CUT
66
1
70
0
0
VERTEX
8
CUT
10
28.2625
20
47.971
0
VERTEX
8
CUT
10
30.45
20
47.346
0
VERTEX
8
CUT
10
30.45
20
45.346
0
VERTEX
8
CUT
10
28.2625
20
44.721
0
SEQEND
0
POLYLINE
8
CUT
66
1
70
0
0
VERTEX
8
CUT
10
25.6375
20
47.971
0
VERTEX
8
CUT
10
23.45
20
47.346
0
VERTEX
8
CUT
10
23.45
20
45.346
0
VERTEX
8
CUT
10
25.6375
20
44.721
0
SEQEND
0
POLYLINE
8
CUT
66
1
70
0
0
VERTEX
8
CUT
10
35.9625
20
47.971
0
VERTEX
8
CUT
10
38.15
20
47.346
0
VERTEX
8
CUT
10
38.15
20
45.346
0
VERTEX
8
CUT
10
35.9625
20
44.721
0
SEQEND
0
POLYLINE
8
CUT
66
1
70
0
0
VERTEX
8
CUT
10
33.3375
20
47.971
0
VERTEX
8
CUT
10
31.15
20
47.346
0
VERTEX
8
CUT
10
31.15
20
45.346
0
VERTEX
8
CUT
10
33.3375
20
44.721
0
SEQEND
0
POLYLINE
8
CUT
66
1
70
0
0
VERTEX
8
CUT
10
43.6625
20
47.971
0
VERTEX
8
CUT
10
45.85
20
47.346
0
VERTEX
8
CUT
10
45.85
20
45.346
0
VERTEX
8
CUT
10
43.6625
20
44.721
0
SEQEND
0
POLYLINE
8
CUT
66
1
70
0
0
VERTEX
8
CUT
10
41.0375
20
47.971
0
VERTEX
8
CUT
10
38.85
20
47.346
0
VERTEX
8
CUT
10
38.85
20
45.346
0
VERTEX
8
CUT
10
41.0375
20
44.721
0
SEQEND
0
POLYLINE
8
CUT
66
1
70
0
0
VERTEX
8
CUT
10
51.3625
20
47.971
0
VERTEX
8
CUT
10
53.55
20
47.346
0
VERTEX
8
CUT
10
53.55
20
45.346
0
VERTEX
8
CUT
10
51.3625
20
44.721
0
SEQEND
0
POLYLINE
8
CUT
66
1
70
0
0
VERTEX
8
CUT
10
48.7375
20
47.971
0
VERTEX
8
CUT
10
46.55
20
47.346
0
VERTEX
8
CUT
10
46.55
20
45.346
0
VERTEX
8
CUT
10
48.7375
20
44.721
0
SEQEND
0
POLYLINE
8
CUT
66
1
70
0
0
VERTEX
8
CUT
10
59.0625
20
47.971
0
VERTEX
8
CUT
10
61.25
20
47.346
0
VERTEX
8
CUT
10
61.25
20
45.346
0
VERTEX
8
CUT
10
59.0625
20
44.721
0
SEQEND
0
POLYLINE
8
CUT
66
1
70
0
0
VERTEX
8
CUT
10
56.4375
20
47.971
0
VERTEX
8
CUT
10
54.25
20
47.346
0
VERTEX
8
CUT
10
54.25
20
45.346
0
VERTEX
8
CUT
10
56.4375
20
44.721
0
SEQEND
0
POLYLINE
8
CUT
66
1
70
0
0
VERTEX
8
CUT
10
66.7625
20
47.971
0
VERTEX
8
CUT
10
68.95
20
47.346
0
VERTEX
8
CUT
10
68.95
20
45.346
0
VERTEX
8
CUT
10
66.7625
20
44.721
0
SEQEND
0
POLYLINE
8
CUT
66
1
70
0
0
VERTEX
8
CUT
10
64.1375
20
47.971
0
VERTEX
8
CUT
10
61.95
20
47.346
0
VERTEX
8
CUT
10
61.95
20
45.346
0
VERTEX
8
CUT
10
64.1375
20
44.721
0
SEQEND
0
POLYLINE
8
CUT
66
1
70
0
0
VERTEX
8
CUT
10
74.4625
20
47.971
0
VERTEX
8
CUT
10
76.65
20
47.346
0
VERTEX
8
CUT
10
76.65
20
45.346
0
VERTEX
8
CUT
10
74.4625
20
44.721
0
SEQEND
0
POLYLINE
8
CUT
66
1
70
0
0
VERTEX
8
CUT
10
71.8375
20
47.971
0
VERTEX
8
CUT
10
69.65
20
47.346
0
VERTEX
8
CUT
10
69.65
20
45.346
0
VERTEX
8
CUT
10
71.8375
20
44.721
0
SEQEND
0
POLYLINE
8
CUT
66
1
70
0
0
VERTEX
8
CUT
10
82.1625
20
47.971
0
VERTEX
8
CUT
10
84.35
20
47.346
0
VERTEX
8
CUT
10
84.35
20
45.346
0
VERTEX
8
CUT
10
82.1625
20
44.721
0
SEQEND
0
POLYLINE
8
CUT
66
1
70
0
0
VERTEX
8
CUT
10
79.5375
20
47.971
0
VERTEX
8
CUT
10
77.35
20
47.346
0
VERTEX
8
CUT
10
77.35
20
45.346
0
VERTEX
8
CUT
10
79.5375
20
44.721
0
SEQEND
0
POLYLINE
8
CUT
66
1
70
0
0
VERTEX
8
CUT
10
89.8625
20
47.971
0
VERTEX
8
CUT
10
92.05
20
47.346
0
VERTEX
8
CUT
10
92.05
20
45.346
0
VERTEX
8
CUT
10
89.8625
20
44.721
0
SEQEND
0
POLYLINE
8
CUT
66
1
70
0
0
VERTEX
8
CUT
10
87.2375
20
47.971
0
VERTEX
8
CUT
10
85.05
20
47.346
0
VERTEX
8
CUT
10
85.05
20
45.346
0
VERTEX
8
CUT
10
87.2375
20
44.721
0
SEQEND
0
POLYLINE
8
CUT
66
1
70
0
0
VERTEX
8
CUT
10
97.5625
20
47.971
0
VERTEX
8
CUT
10
99.75
20
47.346
0
VERTEX
8
CUT
10
99.75
20
45.346
0
VERTEX
8
CUT
10
97.5625
20
44.721
0
SEQEND
0
POLYLINE
8
CUT
66
1
70
0
0
VERTEX
8
CUT
10
94.9375
20
47.971
0
VERTEX
8
CUT
10
92.75
20
47.346
0
VERTEX
8
CUT
10
92.75
20
45.346
0
VERTEX
8
CUT
10
94.9375
20
44.721
0
SEQEND
0
POLYLINE
8
CUT
66
1
70
0
0
VERTEX
8
CUT
10
105.2625
20
47.971
0
VERTEX
8
CUT
10
107.45
20
47.346
0
VERTEX
8
CUT
10
107.45
20
45.346
0
VERTEX
8
CUT
10
105.2625
20
44.721
0
SEQEND
0
POLYLINE
8
CUT
66
1
70
0
0
VERTEX
8
CUT
10
102.6375
20
47.971
0
VERTEX
8
CUT
10
100.45
20
47.346
0
VERTEX
8
CUT
10
100.45
20
45.346
0
VERTEX
8
CUT
10
102.6375
20
44.721
0
SEQEND
0
POLYLINE
8
CUT
66
1
70
0
0
VERTEX
8
CUT
10
112.9625
20
47.971
0
VERTEX
8
CUT
10
115.15
20
47.346
0
VERTEX
8
CUT
10
115.15
20
45.346
0
VERTEX
8
CUT
10
112.9625
20
44.721
0
SEQEND
0
POLYLINE
8
CUT
66
1
70
0
0
VERTEX
8
CUT
10
110.3375
20
47.971
0
VERTEX
8
CUT
10
108.15
20
47.346
0
VERTEX
8
CUT
10
108.15
20
45.346
0
VERTEX
8
CUT
10
110.3375
20
44.721
0
SEQEND
0
POLYLINE
8
CUT
66
1
70
0
0
VERTEX
8
CUT
10
118.0375
20
47.971
0
VERTEX
8
CUT
10
115.85
20
47.346
0
VERTEX
8
CUT
10
115.85
20
45.346
0
VERTEX
8
CUT
10
118.0375
20
44.721
0
SEQEND
0
POLYLINE
8
CUT
66
1
70
0
0
VERTEX
8
CUT
10
1.3125
20
44.362
0
VERTEX
8
CUT
10
3.5
20
43.737
0
VERTEX
8
CUT
10
3.5
20
41.737
0
VERTEX
8
CUT
10
1.3125
20
41.112
0
SEQEND
0
POLYLINE
8
CUT
66
1
70
0
0
VERTEX
8
CUT
10
9.0125
20
44.362
0
VERTEX
8
CUT
10
11.2
20
43.737
0
VERTEX
8
CUT
10
11.2
20
41.737
0
VERTEX
8
CUT
10
9.0125
20
41.112
0
SEQEND
0
POLYLINE
8
CUT
66
1
70
0
0
VERTEX
8
CUT
10
6.3875
20
44.362
0
VERTEX
8
CUT
10
4.2
20
43.737
0
VERTEX
8
CUT
10
4.2
20
41.737
0
VERTEX
8
CUT
10
6.3875
20
41.112
0
SEQEND
0
POLYLINE
8
CUT
66
1
70
0
0
VERTEX
8
CUT
10
16.7125
20
44.362
0
VERTEX
8
CUT
10
18.9
20
43.737
0
VERTEX
8
CUT
10
18.9
20
41.737
0
VERTEX
8
CUT
10
16.7125
20
41.112
0
SEQEND
0
POLYLINE
8
CUT
66
1
70
0
0
VERTEX
8
CUT
10
14.0875
20
44.362
0
VERTEX
8
CUT
10
11.9
20
43.737
0
VERTEX
8
CUT
10
11.9
20
41.737
0
VERTEX
8
CUT
10
14.0875
20
41.112
0
SEQEND
0
POLYLINE
8
CUT
66
1
70
0
0
VERTEX
8
CUT
10
24.4125
20
44.362
0
VERTEX
8
CUT
10
26.6
20
43.737
0
VERTEX
8
CUT
10
26.6
20
41.737
0
VERTEX
8
CUT
10
24.4125
20
41.112
0
SEQEND
0
POLYLINE
8
CUT
66
1
70
0
0
VERTEX
8
CUT
10
21.7875
20
44.362
0
VERTEX
8
CUT
10
19.6
20
43.737
0
VERTEX
8
CUT
10
19.6
20
41.737
0
VERTEX
8
CUT
10
21.7875
20
41.112
0
SEQEND
0
POLYLINE
8
CUT
66
1
70
0
0
VERTEX
8
CUT
10
32.1125
20
44.362
0
VERTEX
8
CUT
10
34.3
20
43.737
0
VERTEX
8
CUT
10
34.3
20
41.737
0
VERTEX
8
CUT
10
32.1125
20
41.112
0
SEQEND
0
POLYLINE
8
CUT
66
1
70
0
0
VERTEX
8
CUT
10
29.4875
20
44.362
0
VERTEX
8
CUT
10
27.3
20
43.737
0
VERTEX
8
CUT
10
27.3
20
41.737
0
VERTEX
8
CUT
10
29.4875
20
41.112
0
SEQEND
0
POLYLINE
8
CUT
66
1
70
0
0
VERTEX
8
CUT
10
39.8125
20
44.362
0
VERTEX
8
CUT
10
42
20
43.737
0
VERTEX
8
CUT
10
42
20
41.737
0
VERTEX
8
CUT
10
39.8125
20
41.112
0
SEQEND
0
POLYLINE
8
CUT
66
1
70
0
0
VERTEX
8
CUT
10
37.1875
20
44.362
0
VERTEX
8
CUT
10
35
20
43.737
0
VERTEX
8
CUT
10
35
20
41.737
0
VERTEX
8
CUT
10
37.1875
20
41.112
0
SEQEND
0
POLYLINE
8
CUT
66
1
70
0
0
VERTEX
8
CUT
10
47.5125
20
44.362
0
VERTEX
8
CUT
10
49.7
20
43.737
0
VERTEX
8
CUT
10
49.7
20
41.737
0
VERTEX
8
CUT
10
47.5125
20
41.112
0
SEQEND
0
POLYLINE
8
CUT
66
1
70
0
0
VERTEX
8
CUT
10
44.8875
20
44.362
0
VERTEX
8
CUT
10
42.7
20
43.737
0
VERTEX
8
CUT
10
42.7
20
41.737
0
VERTEX
8
CUT
10
44.8875
20
41.112
0
SEQEND
0
POLYLINE
8
CUT
66
1
70
0
0
VERTEX
8
CUT
10
55.2125
20
44.362
0
VERTEX
8
CUT
10
57.4
20
43.737
0
VERTEX
8
CUT
10
57.4
20
41.737
0
VERTEX
8
CUT
10
55.2125
20
41.112
0
SEQEND
0
POLYLINE
8
CUT
66
1
70
0
0
VERTEX
8
CUT
10
52.5875
20
44.362
0
VERTEX
8
CUT
10
50.4
20
43.737
0
VERTEX
8
CUT
10
50.4
20
41.737
0
VERTEX
8
CUT
10
52.5875
20
41.112
0
SEQEND
0
POLYLINE
8
CUT
66
1
70
0
0
VERTEX
8
CUT
10
62.9125
20
44.362
0
VERTEX
8
CUT
10
65.1
20
43.737
0
VERTEX
8
CUT
10
65.1
20
41.737
0
VERTEX
8
CUT
10
62.9125
20
41.112
0
SEQEND
0
POLYLINE
8
CUT
66
1
70
0
0
VERTEX
8
CUT
10
60.2875
20
44.362
0
VERTEX
8
CUT
10
58.1
20
43.737
0
VERTEX
8
CUT
10
58.1
20
41.737
0
VERTEX
8
CUT
10
60.2875
20
41.112
0
SEQEND
0
POLYLINE
8
CUT
66
1
70
0
0
VERTEX
8
CUT
10
70.6125
20
44.362
0
VERTEX
8
CUT
10
72.8
20
43.737
0
VERTEX
8
CUT
10
72.8
20
41.737
0
VERTEX
8
CUT
10
70.6125
20
41.112
0
SEQEND
0
POLYLINE
8
CUT
66
1
70
0
0
VERTEX
8
CUT
10
67.9875
20
44.362
0
VERTEX
8
CUT
10
65.8
20
43.737
0
VERTEX
8
CUT
10
65.8
20
41.737
0
VERTEX
8
CUT
10
67.9875
20
41.112
0
SEQEND
0
POLYLINE
8
CUT
66
1
70
0
0
VERTEX
8
CUT
10
78.3125
20
44.362
0
VERTEX
8
CUT
10
80.5
20
43.737
0
VERTEX
8
CUT
10
80.5
20
41.737
0
VERTEX
8
CUT
10
78.3125
20
41.112
0
SEQEND
0
POLYLINE
8
CUT
66
1
70
0
0
VERTEX
8
CUT
10
75.6875
20
44.362
0
VERTEX
8
CUT
10
73.5
20
43.737
0
VERTEX
8
CUT
10
73.5
20
41.737
0
VERTEX
8
CUT
10
75.6875
20
41.112
0
SEQEND
0
POLYLINE
8
CUT
66
1
70
0
0
VERTEX
8
CUT
10
86.0125
20
44.362
0
VERTEX
8
CUT
10
88.2
20
43.737
0
VERTEX
8
CUT
10
88.2
20
41.737
0
VERTEX
8
CUT
10
86.0125
20
41.112
0
SEQEND
0
POLYLINE
8
CUT
66
1
70
0
0
VERTEX
8
CUT
10
83.3875
20
44.362
0
VERTEX
8
CUT
10
81.2
20
43.737
0
VERTEX
8
CUT
10
81.2
20
41.737
0
VERTEX
8
CUT
10
83.3875
20
41.112
0
SEQEND
0
POLYLINE
8
CUT
66
1
70
0
0
VERTEX
8
CUT
10
93.7125
20
44.362
0
VERTEX
8
CUT
10
95.9
20
43.737
0
VERTEX
8
CUT
10
95.9
20
41.737
0
VERTEX
8
CUT
10
93.7125
20
41.112
0
SEQEND
0
POLYLINE
8
CUT
66
1
70
0
0
VERTEX
8
CUT
10
91.0875
20
44.362
0
VERTEX
8
CUT
10
88.9
20
43.737
0
VERTEX
8
CUT
10
88.9
20
41.737
0
VERTEX
8
CUT
10
91.0875
20
41.112
0
SEQEND
0
POLYLINE
8
CUT
66
1
70
0
0
VERTEX
8
CUT
10
101.4125
20
44.362
0
VERTEX
8
CUT
10
103.6
20
43.737
0
VERTEX
8
CUT
10
103.6
20
41.737
0
VERTEX
8
CUT
10
101.4125
20
41.112
0
SEQEND
0
POLYLINE
8
CUT
66
1
70
0
0
VERTEX
8
CUT
10
98.7875
20
44.362
0
VERTEX
8
CUT
10
96.6
20
43.737
0
VERTEX
8
CUT
10
96.6
20
41.737
0
VERTEX
8
CUT
10
98.7875
20
41.112
0
SEQEND
0
POLYLINE
8
CUT
66
1
70
0
0
VERTEX
8
CUT
10
109.1125
20
44.362
0
VERTEX
8
CUT
10
111.3
20
43.737
0
VERTEX
8
CUT
10
111.3
20
41.737
0
VERTEX
8
CUT
10
109.1125
20
41.112
0
SEQEND
0
POLYLINE
8
CUT
66
1
70
0
0
VERTEX
8
CUT
10
106.4875
20
44.362
0
VERTEX
8
CUT
10
104.3
20
43.737
0
VERTEX
8
CUT
10
104.3
20
41.737
0
VERTEX
8
CUT
10
106.4875
20
41.112
0
SEQEND
0
POLYLINE
8
CUT
66
1
70
0
0
VERTEX
8
CUT
10
116.8125
20
44.362
0
VERTEX
8
CUT
10
119
20
43.737
0
VERTEX
8
CUT
10
119
20
41.737
0
VERTEX
8
CUT
10
116.8125
20
41.112
0
SEQEND
0
POLYLINE
8
CUT
66
1
70
0
0
VERTEX
8
CUT
10
114.1875
20
44.362
0
VERTEX
8
CUT
10
112
20
43.737
0
VERTEX
8
CUT
10
112
20
41.737
0
VERTEX
8
CUT
10
114.1875
20
41.112
0
SEQEND
0
POLYLINE
8
CUT
66
1
70
0
0
VERTEX
8
CUT
10
120
20
43.8227
0
VERTEX
8
CUT
10
119.7
20
43.737
0
VERTEX
8
CUT
10
119.7
20
41.737
0
VERTEX
8
CUT
10
120
20
41.6513
0
SEQEND
0
POLYLINE
8
CUT
66
1
70
0
0
VERTEX
8
CUT
10
5.1625
20
40.753
0
VERTEX
8
CUT
10
7.35
20
40.128
0
VERTEX
8
CUT
10
7.35
20
38.128
0
VERTEX
8
CUT
10
5.1625
20
37.503
0
SEQEND
0
POLYLINE
8
CUT
66
1
70
0
0
VERTEX
8
CUT
10
2.5375
20
40.753
0
VERTEX
8
CUT
10
0.35
20
40.128
0
VERTEX
8
CUT
10
0.35
20
38.128
0
VERTEX
8
CUT
10
2.5375
20
37.503
0
SEQEND
0
POLYLINE
8
CUT
66
1
70
0
0
VERTEX
8
CUT
10
12.8625
20
40.753
0
VERTEX
8
CUT
10
15.05
20
40.128
0
VERTEX
8
CUT
10
15.05
20
38.128
0
VERTEX
8
CUT
10
12.8625
20
37.503
0
SEQEND
0
POLYLINE
8
CUT
66
1
70
0
0
VERTEX
8
CUT
10
10.2375
20
40.753
0
VERTEX
8
CUT
10
8.05
20
40.128
0
VERTEX
8
CUT
10
8.05
20
38.128
0
VERTEX
8
CUT
10
10.2375
20
37.503
0
SEQEND
0
POLYLINE
8
CUT
66
1
70
0
0
VERTEX
8
CUT
10
20.5625
20
40.753
0
VERTEX
8
CUT
10
22.75
20
40.128
0
VERTEX
8
CUT
10
22.75
20
38.128
0
VERTEX
8
CUT
10
20.5625
20
37.503
0
SEQEND
0
POLYLINE
8
CUT
66
1
70
0
0
VERTEX
8
CUT
10
17.9375
20
40.753
0
VERTEX
8
CUT
10
15.75
20
40.128
0
VERTEX
8
CUT
10
15.75
20
38.128
0
VERTEX
8
CUT
10
17.9375
20
37.503
0
SEQEND
0
POLYLINE
8
CUT
66
1
70
0
0
VERTEX
8
CUT
10
28.2625
20
40.753
0
VERTEX
8
CUT
10
30.45
20
40.128
0
VERTEX
8
CUT
10
30.45
20
38.128
0
VERTEX
8
CUT
10
28.2625
20
37.503
0
SEQEND
0
POLYLINE
8
CUT
66
1
70
0
0
VERTEX
8
CUT
10
25.6375
20
40.753
0
VERTEX
8
CUT
10
23.45
20
40.128
0
VERTEX
8
CUT
10
23.45
20
38.128
0
VERTEX
8
CUT
10
25.6375
20
37.503
0
SEQEND
0
POLYLINE
8
CUT
66
1
70
0
0
VERTEX
8
CUT
10
35.9625
20
40.753
0
VERTEX
8
CUT
10
38.15
20
40.128
0
VERTEX
8
CUT
10
38.15
20
38.128
0
VERTEX
8
CUT
10
35.9625
20
37.503
0
SEQEND
0
POLYLINE
8
CUT
66
1
70
0
0
VERTEX
8
CUT
10
33.3375
20
40.753
0
VERTEX
8
CUT
10
31.15
20
40.128
0
VERTEX
8
CUT
10
31.15
20
38.128
0
VERTEX
8
CUT
10
33.3375
20
37.503
0
SEQEND
0
POLYLINE
8
CUT
66
1
70
0
0
VERTEX
8
CUT
10
43.6625
20
40.753
0
VERTEX
8
CUT
10
45.85
20
40.128
0
VERTEX
8
CUT
10
45.85
20
38.128
0
VERTEX
8
CUT
10
43.6625
20
37.503
0
SEQEND
0
POLYLINE
8
CUT
66
1
70
0
0
VERTEX
8
CUT
10
41.0375
20
40.753
0
VERTEX
8
CUT
10
38.85
20
40.128
0
VERTEX
8
CUT
10
38.85
20
38.128
0
VERTEX
8
CUT
10
41.0375
20
37.503
0
SEQEND
0
POLYLINE
8
CUT
66
1
70
0
0
VERTEX
8
CUT
10
51.3625
20
40.753
0
VERTEX
8
CUT
10
53.55
20
40.128
0
VERTEX
8
CUT
10
53.55
20
38.128
0
VERTEX
8
CUT
10
51.3625
20
37.503
0
SEQEND
0
POLYLINE
8
CUT
66
1
70
0
0
VERTEX
8
CUT
10
48.7375
20
40.753
0
VERTEX
8
CUT
10
46.55
20
40.128
0
VERTEX
8
CUT
10
46.55
20
38.128
0
VERTEX
8
CUT
10
48.7375
20
37.503
0
SEQEND
0
POLYLINE
8
CUT
66
1
70
0
0
VERTEX
8
CUT
10
59.0625
20
40.753
0
VERTEX
8
CUT
10
61.25
20
40.128
0
VERTEX
8
CUT
10
61.25
20
38.128
0
VERTEX
8
CUT
10
59.0625
20
37.503
0
SEQEND
0
POLYLINE
8
CUT
66
1
70
0
0
VERTEX
8
CUT
10
56.4375
20
40.753
0
VERTEX
8
CUT
10
54.25
20
40.128
0
VERTEX
8
CUT
10
54.25
20
38.128
0
VERTEX
8
CUT
10
56.4375
20
37.503
0
SEQEND
0
POLYLINE
8
CUT
66
1
70
0
0
VERTEX
8
CUT
10
66.7625
20
40.753
0
VERTEX
8
CUT
10
68.95
20
40.128
0
VERTEX
8
CUT
10
68.95
20
38.128
0
VERTEX
8
CUT
10
66.7625
20
37.503
0
SEQEND
0
POLYLINE
8
CUT
66
1
70
0
0
VERTEX
8
CUT
10
64.1375
20
40.753
0
VERTEX
8
CUT
10
61.95
20
40.128
0
VERTEX
8
CUT
10
61.95
20
38.128
0
VERTEX
8
CUT
10
64.1375
20
37.503
0
SEQEND
0
POLYLINE
8
CUT
66
1
70
0
0
VERTEX
8
CUT
10
74.4625
20
40.753
0
VERTEX
8
CUT
10
76.65
20
40.128
0
VERTEX
8
CUT
10
76.65
20
38.128
0
VERTEX
8
CUT
10
74.4625
20
37.503
0
SEQEND
0
POLYLINE
8
CUT
66
1
70
0
0
VERTEX
8
CUT
10
71.8375
20
40.753
0
VERTEX
8
CUT
10
69.65
20
40.128
0
VERTEX
8
CUT
10
69.65
20
38.128
0
VERTEX
8
CUT
10
71.8375
20
37.503
0
SEQEND
0
POLYLINE
8
CUT
66
1
70
0
0
VERTEX
8
CUT
10
82.1625
20
40.753
0
VERTEX
8
CUT
10
84.35
20
40.128
0
VERTEX
8
CUT
10
84.35
20
38.128
0
VERTEX
8
CUT
10
82.1625
20
37.503
0
SEQEND
0
POLYLINE
8
CUT
66
1
70
0
0
VERTEX
8
CUT
10
79.5375
20
40.753
0
VERTEX
8
CUT
10
77.35
20
40.128
0
VERTEX
8
CUT
10
77.35
20
38.128
0
VERTEX
8
CUT
10
79.5375
20
37.503
0
SEQEND
0
POLYLINE
8
CUT
66
1
70
0
0
VERTEX
8
CUT
10
89.8625
20
40.753
0
VERTEX
8
CUT
10
92.05
20
40.128
0
VERTEX
8
CUT
10
92.05
20
38.128
0
VERTEX
8
CUT
10
89.8625
20
37.503
0
SEQEND
0
POLYLINE
8
CUT
66
1
70
0
0
VERTEX
8
CUT
10
87.2375
20
40.753
0
VERTEX
8
CUT
10
85.05
20
40.128
0
VERTEX
8
CUT
10
85.05
20
38.128
0
VERTEX
8
CUT
10
87.2375
20
37.503
0
SEQEND
0
POLYLINE
8
CUT
66
1
70
0
0
VERTEX
8
CUT
10
97.5625
20
40.753
0
VERTEX
8
CUT
10
99.75
20
40.128
0
VERTEX
8
CUT
10
99.75
20
38.128
0
VERTEX
8
CUT
10
97.5625
20
37.503
0
SEQEND
0
POLYLINE
8
CUT
66
1
70
0
0
VERTEX
8
CUT
10
94.9375
20
40.753
0
VERTEX
8
CUT
10
92.75
20
40.128
0
VERTEX
8
CUT
10
92.75
20
38.128
0
VERTEX
8
CUT
10
94.9375
20
37.503
0
SEQEND
0
POLYLINE
8
CUT
66
1
70
0
0
VERTEX
8
CUT
10
105.2625
20
40.753
0
VERTEX
8
CUT
10
107.45
20
40.128
0
VERTEX
8
CUT
10
107.45
20
38.128
0
VERTEX
8
CUT
10
105.2625
20
37.503
0
SEQEND
0
POLYLINE
8
CUT
66
1
70
0
0
VERTEX
8
CUT
10
102.6375
20
40.753
0
VERTEX
8
CUT
10
100.45
20
40.128
0
VERTEX
8
CUT
10
100.45
20
38.128
0
VERTEX
8
CUT
10
102.6375
20
37.503
0
SEQEND
0
POLYLINE
8
CUT
66
1
70
0
0
VERTEX
8
CUT
10
112.9625
20
40.753
0
VERTEX
8
CUT
10
115.15
20
40.128
0
VERTEX
8
CUT
10
115.15
20
38.128
0
VERTEX
8
CUT
10
112.9625
20
37.503
0
SEQEND
0
POLYLINE
8
CUT
66
1
70
0
0
VERTEX
8
CUT
10
110.3375
20
40.753
0
VERTEX
8
CUT
10
108.15
20
40.128
0
VERTEX
8
CUT
10
108.15
20
38.128
0
VERTEX
8
CUT
10
110.3375
20
37.503
0
SEQEND
0
POLYLINE
8
CUT
66
1
70
0
0
VERTEX
8
CUT
10
118.0375
20
40.753
0
VERTEX
8
CUT
10
115.85
20
40.128
0
VERTEX
8
CUT
10
115.85
20
38.128
0
VERTEX
8
CUT
10
118.0375
20
37.503
0
SEQEND
0
POLYLINE
8
CUT
66
1
70
0
0
VERTEX
8
CUT
10
1.3125
20
37.144
0
VERTEX
8
CUT
10
3.5
20
36.519
0
VERTEX
8
CUT
10
3.5
20
34.519
0
VERTEX
8
CUT
10
1.3125
20
33.894
0
SEQEND
0
POLYLINE
8
CUT
66
1
70
0
0
VERTEX
8
CUT
10
9.0125
20
37.144
0
VERTEX
8
CUT
10
11.2
20
36.519
0
VERTEX
8
CUT
10
11.2
20
34.519
0
VERTEX
8
CUT
10
9.0125
20
33.894
0
SEQEND
0
POLYLINE
8
CUT
66
1
70
0
0
VERTEX
8
CUT
10
6.3875
20
37.144
0
VERTEX
8
CUT
10
4.2
20
36.519
0
VERTEX
8
CUT
10
4.2
20
34.519
0
VERTEX
8
CUT
10
6.3875
20
33.894
0
SEQEND
0
POLYLINE
8
CUT
66
1
70
0
0
VERTEX
8
CUT
10
16.7125
20
37.144
0
VERTEX
8
CUT
10
18.9
20
36.519
0
VERTEX
8
CUT
10
18.9
20
34.519
0
VERTEX
8
CUT
10
16.7125
20
33.894
0
SEQEND
0
POLYLINE
8
CUT
66
1
70
0
0
VERTEX
8
CUT
10
14.0875
20
37.144
0
VERTEX
8
CUT
10
11.9
20
36.519
0
VERTEX
8
CUT
10
11.9
20
34.519
0
VERTEX
8
CUT
10
14.0875
20
33.894
0
SEQEND
0
POLYLINE
8
CUT
66
1
70
0
0
VERTEX
8
CUT
10
24.4125
20
37.144
0
VERTEX
8
CUT
10
26.6
20
36.519
0
VERTEX
8
CUT
10
26.6
20
34.519
0
VERTEX
8
CUT
10
24.4125
20
33.894
0
SEQEND
0
POLYLINE
8
CUT
66
1
70
0
0
VERTEX
8
CUT
10
21.7875
20
37.144
0
VERTEX
8
CUT
10
19.6
20
36.519
0
VERTEX
8
CUT
10
19.6
20
34.519
0
VERTEX
8
CUT
10
21.7875
20
33.894
0
SEQEND
0
POLYLINE
8
CUT
66
1
70
0
0
VERTEX
8
CUT
10
32.1125
20
37.144
0
VERTEX
8
CUT
10
34.3
20
36.519
0
VERTEX
8
CUT
10
34.3
20
34.519
0
VERTEX
8
CUT
10
32.1125
20
33.894
0
SEQEND
0
POLYLINE
8
CUT
66
1
70
0
0
VERTEX
8
CUT
10
29.4875
20
37.144
0
VERTEX
8
CUT
10
27.3
20
36.519
0
VERTEX
8
CUT
10
27.3
20
34.519
0
VERTEX
8
CUT
10
29.4875
20
33.894
0
SEQEND
0
POLYLINE
8
CUT
66
1
70
0
0
VERTEX
8
CUT
10
39.8125
20
37.144
0
VERTEX
8
CUT
10
42
20
36.519
0
VERTEX
8
CUT
10
42
20
34.519
0
VERTEX
8
CUT
10
39.8125
20
33.894
0
SEQEND
0
POLYLINE
8
CUT
66
1
70
0
0
VERTEX
8
CUT
10
37.1875
20
37.144
0
VERTEX
8
CUT
10
35
20
36.519
0
VERTEX
8
CUT
10
35
20
34.519
0
VERTEX
8
CUT
10
37.1875
20
33.894
0
SEQEND
0
POLYLINE
8
CUT
66
1
70
0
0
VERTEX
8
CUT
10
47.5125
20
37.144
0
VERTEX
8
CUT
10
49.7
20
36.519
0
VERTEX
8
CUT
10
49.7
20
34.519
0
VERTEX
8
CUT
10
47.5125
20
33.894
0
SEQEND
0
POLYLINE
8
CUT
66
1
70
0
0
VERTEX
8
CUT
10
44.8875
20
37.144
0
VERTEX
8
CUT
10
42.7
20
36.519
0
VERTEX
8
CUT
10
42.7
20
34.519
0
VERTEX
8
CUT
10
44.8875
20
33.894
0
SEQEND
0
POLYLINE
8
CUT
66
1
70
0
0
VERTEX
8
CUT
10
55.2125
20
37.144
0
VERTEX
8
CUT
10
57.4
20
36.519
0
VERTEX
8
CUT
10
57.4
20
34.519
0
VERTEX
8
CUT
10
55.2125
20
33.894
0
SEQEND
0
POLYLINE
8
CUT
66
1
70
0
0
VERTEX
8
CUT
10
52.5875
20
37.144
0
VERTEX
8
CUT
10
50.4
20
36.519
0
VERTEX
8
CUT
10
50.4
20
34.519
0
VERTEX
8
CUT
10
52.5875
20
33.894
0
SEQEND
0
POLYLINE
8
CUT
66
1
70
0
0
VERTEX
8
CUT
10
62.9125
20
37.144
0
VERTEX
8
CUT
10
65.1
20
36.519
0
VERTEX
8
CUT
10
65.1
20
34.519
0
VERTEX
8
CUT
10
62.9125
20
33.894
0
SEQEND
0
POLYLINE
8
CUT
66
1
70
0
0
VERTEX
8
CUT
10
60.2875
20
37.144
0
VERTEX
8
CUT
10
58.1
20
36.519
0
VERTEX
8
CUT
10
58.1
20
34.519
0
VERTEX
8
CUT
10
60.2875
20
33.894
0
SEQEND
0
POLYLINE
8
CUT
66
1
70
0
0
VERTEX
8
CUT
10
70.6125
20
37.144
0
VERTEX
8
CUT
10
72.8
20
36.519
0
VERTEX
8
CUT
10
72.8
20
34.519
0
VERTEX
8
CUT
10
70.6125
20
33.894
0
SEQEND
0
POLYLINE
8
CUT
66
1
70
0
0
VERTEX
8
CUT
10
67.9875
20
37.144
0
VERTEX
8
CUT
10
65.8
20
36.519
0
VERTEX
8
CUT
10
65.8
20
34.519
0
VERTEX
8
CUT
10
67.9875
20
33.894
0
SEQEND
0
POLYLINE
8
CUT
66
1
70
0
0
VERTEX
8
CUT
10
78.3125
20
37.144
0
VERTEX
8
CUT
10
80.5
20
36.519
0
VERTEX
8
CUT
10
80.5
20
34.519
0
VERTEX
8
CUT
10
78.3125
20
33.894
0
SEQEND
0
POLYLINE
8
CUT
66
1
70
0
0
VERTEX
8
CUT
10
75.6875
20
37.144
0
VERTEX
8
CUT
10
73.5
20
36.519
0
VERTEX
8
CUT
10
73.5
20
34.519
0
VERTEX
8
CUT
10
75.6875
20
33.894
0
SEQEND
0
POLYLINE
8
CUT
66
1
70
0
0
VERTEX
8
CUT
10
86.0125
20
37.144
0
VERTEX
8
CUT
10
88.2
20
36.519
0
VERTEX
8
CUT
10
88.2
20
34.519
0
VERTEX
8
CUT
10
86.0125
20
33.894
0
SEQEND
0
POLYLINE
8
CUT
66
1
70
0
0
VERTEX
8
CUT
10
83.3875
20
37.144
0
VERTEX
8
CUT
10
81.2
20
36.519
0
VERTEX
8
CUT
10
81.2
20
34.519
0
VERTEX
8
CUT
10
83.3875
20
33.894
0
SEQEND
0
POLYLINE
8
CUT
66
1
70
0
0
VERTEX
8
CUT
10
93.7125
20
37.144
0
VERTEX
8
CUT
10
95.9
20
36.519
0
VERTEX
8
CUT
10
95.9
20
34.519
0
VERTEX
8
CUT
10
93.7125
20
33.894
0
SEQEND
0
POLYLINE
8
CUT
66
1
70
0
0
VERTEX
8
CUT
10
91.0875
20
37.144
0
VERTEX
8
CUT
10
88.9
20
36.519
0
VERTEX
8
CUT
10
88.9
20
34.519
0
VERTEX
8
CUT
10
91.0875
20
33.894
0
SEQEND
0
POLYLINE
8
CUT
66
1
70
0
0
VERTEX
8
CUT
10
101.4125
20
37.144
0
VERTEX
8
CUT
10
103.6
20
36.519
0
VERTEX
8
CUT
10
103.6
20
34.519
0
VERTEX
8
CUT
10
101.4125
20
33.894
0
SEQEND
0
POLYLINE
8
CUT
66
1
70
0
0
VERTEX
8
CUT
10
98.7875
20
37.144
0
VERTEX
8
CUT
10
96.6
20
36.519
0
VERTEX
8
CUT
10
96.6
20
34.519
0
VERTEX
8
CUT
10
98.7875
20
33.894
0
SEQEND
0
POLYLINE
8
CUT
66
1
70
0
0
VERTEX
8
CUT
10
109.1125
20
37.144
0
VERTEX
8
CUT
10
111.3
20
36.519
0
VERTEX
8
CUT
10
111.3
20
34.519
0
VERTEX
8
CUT
10
109.1125
20
33.894
0
SEQEND
0
POLYLINE
8
CUT
66
1
70
0
0
VERTEX
8
CUT
10
106.4875
20
37.144
0
VERTEX
8
CUT
10
104.3
20
36.519
0
VERTEX
8
CUT
10
104.3
20
34.519
0
VERTEX
8
CUT
10
106.4875
20
33.894
0
SEQEND
0
POLYLINE
8
CUT
66
1
70
0
0
VERTEX
8
CUT
10
116.8125
20
37.144
0
VERTEX
8
CUT
10
119
20
36.519
0
VERTEX
8
CUT
10
119
20
34.519
0
VERTEX
8
CUT
10
116.8125
20
33.894
0
SEQEND
0
POLYLINE
8
CUT
66
1
70
0
0
VERTEX
8
CUT
10
114.1875
20
37.144
0
VERTEX
8
CUT
10
112
20
36.519
0
VERTEX
8
CUT
10
112
20
34.519
0
VERTEX
8
CUT
10
114.1875
20
33.894
0
SEQEND
0
POLYLINE
8
CUT
66
1
70
0
0
VERTEX
8
CUT
10
120
20
36.6047
0
VERTEX
8
CUT
10
119.7
20
36.519
0
VERTEX
8
CUT
10
119.7
20
34.519
0
VERTEX
8
CUT
10
120
20
34.4333
0
SEQEND
0
POLYLINE
8
CUT
66
1
70
0
0
VERTEX
8
CUT
10
5.1625
20
33.535
0
VERTEX
8
CUT
10
7.35
20
32.91
0
VERTEX
8
CUT
10
7.35
20
30.91
0
VERTEX
8
CUT
10
5.1625
20
30.285
0
SEQEND
0
POLYLINE
8
CUT
66
1
70
0
0
VERTEX
8
CUT
10
2.5375
20
33.535
0
VERTEX
8
CUT
10
0.35
20
32.91
0
VERTEX
8
CUT
10
0.35
20
30.91
0
VERTEX
8
CUT
10
2.5375
20
30.285
0
SEQEND
0
POLYLINE
8
CUT
66
1
70
0
0
VERTEX
8
CUT
10
12.8625
20
33.535
0
VERTEX
8
CUT
10
15.05
20
32.91
0
VERTEX
8
CUT
10
15.05
20
30.91
0
VERTEX
8
CUT
10
12.8625
20
30.285
0
SEQEND
0
POLYLINE
8
CUT
66
1
70
0
0
VERTEX
8
CUT
10
10.2375
20
33.535
0
VERTEX
8
CUT
10
8.05
20
32.91
0
VERTEX
8
CUT
10
8.05
20
30.91
0
VERTEX
8
CUT
10
10.2375
20
30.285
0
SEQEND
0
POLYLINE
8
CUT
66
1
70
0
0
VERTEX
8
CUT
10
20.5625
20
33.535
0
VERTEX
8
CUT
10
22.75
20
32.91
0
VERTEX
8
CUT
10
22.75
20
30.91
0
VERTEX
8
CUT
10
20.5625
20
30.285
0
SEQEND
0
POLYLINE
8
CUT
66
1
70
0
0
VERTEX
8
CUT
10
17.9375
20
33.535
0
VERTEX
8
CUT
10
15.75
20
32.91
0
VERTEX
8
CUT
10
15.75
20
30.91
0
VERTEX
8
CUT
10
17.9375
20
30.285
0
SEQEND
0
POLYLINE
8
CUT
66
1
70
0
0
VERTEX
8
CUT
10
28.2625
20
33.535
0
VERTEX
8
CUT
10
30.45
20
32.91
0
VERTEX
8
CUT
10
30.45
20
30.91
0
VERTEX
8
CUT
10
28.2625
20
30.285
0
SEQEND
0
POLYLINE
8
CUT
66
1
70
0
0
VERTEX
8
CUT
10
25.6375
20
33.535
0
VERTEX
8
CUT
10
23.45
20
32.91
0
VERTEX
8
CUT
10
23.45
20
30.91
0
VERTEX
8
CUT
10
25.6375
20
30.285
0
SEQEND
0
POLYLINE
8
CUT
66
1
70
0
0
VERTEX
8
CUT
10
35.9625
20
33.535
0
VERTEX
8
CUT
10
38.15
20
32.91
0
VERTEX
8
CUT
10
38.15
20
30.91
0
VERTEX
8
CUT
10
35.9625
20
30.285
0
SEQEND
0
POLYLINE
8
CUT
66
1
70
0
0
VERTEX
8
CUT
10
33.3375
20
33.535
0
VERTEX
8
CUT
10
31.15
20
32.91
0
VERTEX
8
CUT
10
31.15
20
30.91
0
VERTEX
8
CUT
10
33.3375
20
30.285
0
SEQEND
0
POLYLINE
8
CUT
66
1
70
0
0
VERTEX
8
CUT
10
43.6625
20
33.535
0
VERTEX
8
CUT
10
45.85
20
32.91
0
VERTEX
8
CUT
10
45.85
20
30.91
0
VERTEX
8
CUT
10
43.6625
20
30.285
0
SEQEND
0
POLYLINE
8
CUT
66
1
70
0
0
VERTEX
8
CUT
10
41.0375
20
33.535
0
VERTEX
8
CUT
10
38.85
20
32.91
0
VERTEX
8
CUT
10
38.85
20
30.91
0
VERTEX
8
CUT
10
41.0375
20
30.285
0
SEQEND
0
POLYLINE
8
CUT
66
1
70
0
0
VERTEX
8
CUT
10
51.3625
20
33.535
0
VERTEX
8
CUT
10
53.55
20
32.91
0
VERTEX
8
CUT
10
53.55
20
30.91
0
VERTEX
8
CUT
10
51.3625
20
30.285
0
SEQEND
0
POLYLINE
8
CUT
66
1
70
0
0
VERTEX
8
CUT
10
48.7375
20
33.535
0
VERTEX
8
CUT
10
46.55
20
32.91
0
VERTEX
8
CUT
10
46.55
20
30.91
0
VERTEX
8
CUT
10
48.7375
20
30.285
0
SEQEND
0
POLYLINE
8
CUT
66
1
70
0
0
VERTEX
8
CUT
10
59.0625
20
33.535
0
VERTEX
8
CUT
10
61.25
20
32.91
0
VERTEX
8
CUT
10
61.25
20
30.91
0
VERTEX
8
CUT
10
59.0625
20
30.285
0
SEQEND
0
POLYLINE
8
CUT
66
1
70
0
0
VERTEX
8
CUT
10
56.4375
20
33.535
0
VERTEX
8
CUT
10
54.25
20
32.91
0
VERTEX
8
CUT
10
54.25
20
30.91
0
VERTEX
8
CUT
10
56.4375
20
30.285
0
SEQEND
0
POLYLINE
8
CUT
66
1
70
0
0
VERTEX
8
CUT
10
66.7625
20
33.535
0
VERTEX
8
CUT
10
68.95
20
32.91
0
VERTEX
8
CUT
10
68.95
20
30.91
0
VERTEX
8
CUT
10
66.7625
20
30.285
0
SEQEND
0
POLYLINE
8
CUT
66
1
70
0
0
VERTEX
8
CUT
10
64.1375
20
33.535
0
VERTEX
8
CUT
10
61.95
20
32.91
0
VERTEX
8
CUT
10
61.95
20
30.91
0
VERTEX
8
CUT
10
64.1375
20
30.285
0
SEQEND
0
POLYLINE
8
CUT
66
1
70
0
0
VERTEX
8
CUT
10
74.4625
20
33.535
0
VERTEX
8
CUT
10
76.65
20
32.91
0
VERTEX
8
CUT
10
76.65
20
30.91
0
VERTEX
8
CUT
10
74.4625
20
30.285
0
SEQEND
0
POLYLINE
8
CUT
66
1
70
0
0
VERTEX
8
CUT
10
71.8375
20
33.535
0
VERTEX
8
CUT
10
69.65
20
32.91
0
VERTEX
8
CUT
10
69.65
20
30.91
0
VERTEX
8
CUT
10
71.8375
20
30.285
0
SEQEND
0
POLYLINE
8
CUT
66
1
70
0
0
VERTEX
8
CUT
10
82.1625
20
33.535
0
VERTEX
8
CUT
10
84.35
20
32.91
0
VERTEX
8
CUT
10
84.35
20
30.91
0
VERTEX
8
CUT
10
82.1625
20
30.285
0
SEQEND
0
POLYLINE
8
CUT
66
1
70
0
0
VERTEX
8
CUT
10
79.5375
20
33.535
0
VERTEX
8
CUT
10
77.35
20
32.91
0
VERTEX
8
CUT
10
77.35
20
30.91
0
VERTEX
8
CUT
10
79.5375
20
30.285
0
SEQEND
0
POLYLINE
8
CUT
66
1
70
0
0
VERTEX
8
CUT
10
89.8625
20
33.535
0
VERTEX
8
CUT
10
92.05
20
32.91
0
VERTEX
8
CUT
10
92.05
20
30.91
0
VERTEX
8
CUT
10
89.8625
20
30.285
0
SEQEND
0
POLYLINE
8
CUT
66
1
70
0
0
VERTEX
8
CUT
10
87.2375
20
33.535
0
VERTEX
8
CUT
10
85.05
20
32.91
0
VERTEX
8
CUT
10
85.05
20
30.91
0
VERTEX
8
CUT
10
87.2375
20
30.285
0
SEQEND
0
POLYLINE
8
CUT
66
1
70
0
0
VERTEX
8
CUT
10
97.5625
20
33.535
0
VERTEX
8
CUT
10
99.75
20
32.91
0
VERTEX
8
CUT
10
99.75
20
30.91
0
VERTEX
8
CUT
10
97.5625
20
30.285
0
SEQEND
0
POLYLINE
8
CUT
66
1
70
0
0
VERTEX
8
CUT
10
94.9375
20
33.535
0
VERTEX
8
CUT
10
92.75
20
32.91
0
VERTEX
8
CUT
10
92.75
20
30.91
0
VERTEX
8
CUT
10
94.9375
20
30.285
0
SEQEND
0
POLYLINE
8
CUT
66
1
70
0
0
VERTEX
8
CUT
10
105.2625
20
33.535
0
VERTEX
8
CUT
10
107.45
20
32.91
0
VERTEX
8
CUT
10
107.45
20
30.91
0
VERTEX
8
CUT
10
105.2625
20
30.285
0
SEQEND
0
POLYLINE
8
CUT
66
1
70
0
0
VERTEX
8
CUT
10
102.6375
20
33.535
0
VERTEX
8
CUT
10
100.45
20
32.91
0
VERTEX
8
CUT
10
100.45
20
30.91
0
VERTEX
8
CUT
10
102.6375
20
30.285
0
SEQEND
0
POLYLINE
8
CUT
66
1
70
0
0
VERTEX
8
CUT
10
112.9625
20
33.535
0
VERTEX
8
CUT
10
115.15
20
32.91
0
VERTEX
8
CUT
10
115.15
20
30.91
0
VERTEX
8
CUT
10
112.9625
20
30.285
0
SEQEND
0
POLYLINE
8
CUT
66
1
70
0
0
VERTEX
8
CUT
10
110.3375
20
33.535
0
VERTEX
8
CUT
10
108.15
20
32.91
0
VERTEX
8
CUT
10
108.15
20
30.91
0
VERTEX
8
CUT
10
110.3375
20
30.285
0
SEQEND
0
POLYLINE
8
CUT
66
1
70
0
0
VERTEX
8
CUT
10
118.0375
20
33.535
0
VERTEX
8
CUT
10
115.85
20
32.91
0
VERTEX
8
CUT
10
115.85
20
30.91
0
VERTEX
8
CUT
10
118.0375
20
30.285
0
SEQEND
0
POLYLINE
8
CUT
66
1
70
0
0
VERTEX
8
CUT
10
1.3125
20
29.926
0
VERTEX
8
CUT
10
3.5
20
29.301
0
VERTEX
8
CUT
10
3.5
20
27.301
0
VERTEX
8
CUT
10
1.3125
20
26.676
0
SEQEND
0
POLYLINE
8
CUT
66
1
70
0
0
VERTEX
8
CUT
10
9.0125
20
29.926
0
VERTEX
8
CUT
10
11.2
20
29.301
0
VERTEX
8
CUT
10
11.2
20
27.301
0
VERTEX
8
CUT
10
9.0125
20
26.676
0
SEQEND
0
POLYLINE
8
CUT
66
1
70
0
0
VERTEX
8
CUT
10
6.3875
20
29.926
0
VERTEX
8
CUT
10
4.2
20
29.301
0
VERTEX
8
CUT
10
4.2
20
27.301
0
VERTEX
8
CUT
10
6.3875
20
26.676
0
SEQEND
0
POLYLINE
8
CUT
66
1
70
0
0
VERTEX
8
CUT
10
16.7125
20
29.926
0
VERTEX
8
CUT
10
18.9
20
29.301
0
VERTEX
8
CUT
10
18.9
20
27.301
0
VERTEX
8
CUT
10
16.7125
20
26.676
0
SEQEND
0
POLYLINE
8
CUT
66
1
70
0
0
VERTEX
8
CUT
10
14.0875
20
29.926
0
VERTEX
8
CUT
10
11.9
20
29.301
0
VERTEX
8
CUT
10
11.9
20
27.301
0
VERTEX
8
CUT
10
14.0875
20
26.676
0
SEQEND
0
POLYLINE
8
CUT
66
1
70
0
0
VERTEX
8
CUT
10
24.4125
20
29.926
0
VERTEX
8
CUT
10
26.6
20
29.301
0
VERTEX
8
CUT
10
26.6
20
27.301
0
VERTEX
8
CUT
10
24.4125
20
26.676
0
SEQEND
0
POLYLINE
8
CUT
66
1
70
0
0
VERTEX
8
CUT
10
21.7875
20
29.926
0
VERTEX
8
CUT
10
19.6
20
29.301
0
VERTEX
8
CUT
10
19.6
20
27.301
0
VERTEX
8
CUT
10
21.7875
20
26.676
0
SEQEND
0
POLYLINE
8
CUT
66
1
70
0
0
VERTEX
8
CUT
10
32.1125
20
29.926
0
VERTEX
8
CUT
10
34.3
20
29.301
0
VERTEX
8
CUT
10
34.3
20
27.301
0
VERTEX
8
CUT
10
32.1125
20
26.676
0
SEQEND
0
POLYLINE
8
CUT
66
1
70
0
0
VERTEX
8
CUT
10
29.4875
20
29.926
0
VERTEX
8
CUT
10
27.3
20
29.301
0
VERTEX
8
CUT
10
27.3
20
27.301
0
VERTEX
8
CUT
10
29.4875
20
26.676
0
SEQEND
0
POLYLINE
8
CUT
66
1
70
0
0
VERTEX
8
CUT
10
39.8125
20
29.926
0
VERTEX
8
CUT
10
42
20
29.301
0
VERTEX
8
CUT
10
42
20
27.301
0
VERTEX
8
CUT
10
39.8125
20
26.676
0
SEQEND
0
POLYLINE
8
CUT
66
1
70
0
0
VERTEX
8
CUT
10
37.1875
20
29.926
0
VERTEX
8
CUT
10
35
20
29.301
0
VERTEX
8
CUT
10
35
20
27.301
0
VERTEX
8
CUT
10
37.1875
20
26.676
0
SEQEND
0
POLYLINE
8
CUT
66
1
70
0
0
VERTEX
8
CUT
10
47.5125
20
29.926
0
VERTEX
8
CUT
10
49.7
20
29.301
0
VERTEX
8
CUT
10
49.7
20
27.301
0
VERTEX
8
CUT
10
47.5125
20
26.676
0
SEQEND
0
POLYLINE
8
CUT
66
1
70
0
0
VERTEX
8
CUT
10
44.8875
20
29.926
0
VERTEX
8
CUT
10
42.7
20
29.301
0
VERTEX
8
CUT
10
42.7
20
27.301
0
VERTEX
8
CUT
10
44.8875
20
26.676
0
SEQEND
0
POLYLINE
8
CUT
66
1
70
0
0
VERTEX
8
CUT
10
55.2125
20
29.926
0
VERTEX
8
CUT
10
57.4
20
29.301
0
VERTEX
8
CUT
10
57.4
20
27.301
0
VERTEX
8
CUT
10
55.2125
20
26.676
0
SEQEND
0
POLYLINE
8
CUT
66
1
70
0
0
VERTEX
8
CUT
10
52.5875
20
29.926
0
VERTEX
8
CUT
10
50.4
20
29.301
0
VERTEX
8
CUT
10
50.4
20
27.301
0
VERTEX
8
CUT
10
52.5875
20
26.676
0
SEQEND
0
POLYLINE
8
CUT
66
1
70
0
0
VERTEX
8
CUT
10
62.9125
20
29.926
0
VERTEX
8
CUT
10
65.1
20
29.301
0
VERTEX
8
CUT
10
65.1
20
27.301
0
VERTEX
8
CUT
10
62.9125
20
26.676
0
SEQEND
0
POLYLINE
8
CUT
66
1
70
0
0
VERTEX
8
CUT
10
60.2875
20
29.926
0
VERTEX
8
CUT
10
58.1
20
29.301
0
VERTEX
8
CUT
10
58.1
20
27.301
0
VERTEX
8
CUT
10
60.2875
20
26.676
0
SEQEND
0
POLYLINE
8
CUT
66
1
70
0
0
VERTEX
8
CUT
10
70.6125
20
29.926
0
VERTEX
8
CUT
10
72.8
20
29.301
0
VERTEX
8
CUT
10
72.8
20
27.301
0
VERTEX
8
CUT
10
70.6125
20
26.676
0
SEQEND
0
POLYLINE
8
CUT
66
1
70
0
0
VERTEX
8
CUT
10
67.9875
20
29.926
0
VERTEX
8
CUT
10
65.8
20
29.301
0
VERTEX
8
CUT
10
65.8
20
27.301
0
VERTEX
8
CUT
10
67.9875
20
26.676
0
SEQEND
0
POLYLINE
8
CUT
66
1
70
0
0
VERTEX
8
CUT
10
78.3125
20
29.926
0
VERTEX
8
CUT
10
80.5
20
29.301
0
VERTEX
8
CUT
10
80.5
20
27.301
0
VERTEX
8
CUT
10
78.3125
20
26.676
0
SEQEND
0
POLYLINE
8
CUT
66
1
70
0
0
VERTEX
8
CUT
10
75.6875
20
29.926
0
VERTEX
8
CUT
10
73.5
20
29.301
0
VERTEX
8
CUT
10
73.5
20
27.301
0
VERTEX
8
CUT
10
75.6875
20
26.676
0
SEQEND
0
POLYLINE
8
CUT
66
1
70
0
0
VERTEX
8
CUT
10
86.0125
20
29.926
0
VERTEX
8
CUT
10
88.2
20
29.301
0
VERTEX
8
CUT
10
88.2
20
27.301
0
VERTEX
8
CUT
10
86.0125
20
26.676
0
SEQEND
0
POLYLINE
8
CUT
66
1
70
0
0
VERTEX
8
CUT
10
83.3875
20
29.926
0
VERTEX
8
CUT
10
81.2
20
29.301
0
VERTEX
8
CUT
10
81.2
20
27.301
0
VERTEX
8
CUT
10
83.3875
20
26.676
0
SEQEND
0
POLYLINE
8
CUT
66
1
70
0
0
VERTEX
8
CUT
10
93.7125
20
29.926
0
VERTEX
8
CUT
10
95.9
20
29.301
0
VERTEX
8
CUT
10
95.9
20
27.301
0
VERTEX
8
CUT
10
93.7125
20
26.676
0
SEQEND
0
POLYLINE
8
CUT
66
1
70
0
0
VERTEX
8
CUT
10
91.0875
20
29.926
0
VERTEX
8
CUT
10
88.9
20
29.301
0
VERTEX
8
CUT
10
88.9
20
27.301
0
VERTEX
8
CUT
10
91.0875
20
26.676
0
SEQEND
0
POLYLINE
8
CUT
66
1
70
0
0
VERTEX
8
CUT
10
101.4125
20
29.926
0
VERTEX
8
CUT
10
103.6
20
29.301
0
VERTEX
8
CUT
10
103.6
20
27.301
0
VERTEX
8
CUT
10
101.4125
20
26.676
0
SEQEND
0
POLYLINE
8
CUT
66
1
70
0
0
VERTEX
8
CUT
10
98.7875
20
29.926
0
VERTEX
8
CUT
10
96.6
20
29.301
0
VERTEX
8
CUT
10
96.6
20
27.301
0
VERTEX
8
CUT
10
98.7875
20
26.676
0
SEQEND
0
POLYLINE
8
CUT
66
1
70
0
0
VERTEX
8
CUT
10
109.1125
20
29.926
0
VERTEX
8
CUT
10
111.3
20
29.301
0
VERTEX
8
CUT
10
111.3
20
27.301
0
VERTEX
8
CUT
10
109.1125
20
26.676
0
SEQEND
0
POLYLINE
8
CUT
66
1
70
0
0
VERTEX
8
CUT
10
106.4875
20
29.926
0
VERTEX
8
CUT
10
104.3
20
29.301
0
VERTEX
8
CUT
10
104.3
20
27.301
0
VERTEX
8
CUT
10
106.4875
20
26.676
0
SEQEND
0
POLYLINE
8
CUT
66
1
70
0
0
VERTEX
8
CUT
10
116.8125
20
29.926
0
VERTEX
8
CUT
10
119
20
29.301
0
VERTEX
8
CUT
10
119
20
27.301
0
VERTEX
8
CUT
10
116.8125
20
26.676
0
SEQEND
0
POLYLINE
8
CUT
66
1
70
0
0
VERTEX
8
CUT
10
114.1875
20
29.926
0
VERTEX
8
CUT
10
112
20
29.301
0
VERTEX
8
CUT
10
112
20
27.301
0
VERTEX
8
CUT
10
114.1875
20
26.676
0
SEQEND
0
POLYLINE
8
CUT
66
1
70
0
0
VERTEX
8
CUT
10
120
20
29.3867
0
VERTEX
8
CUT
10
119.7
20
29.301
0
VERTEX
8
CUT
10
119.7
20
27.301
0
VERTEX
8
CUT
10
120
20
27.2153
0
SEQEND
0
POLYLINE
8
CUT
66
1
70
0
0
VERTEX
8
CUT
10
5.1625
20
26.317
0
VERTEX
8
CUT
10
7.35
20
25.692
0
VERTEX
8
CUT
10
7.35
20
23.692
0
VERTEX
8
CUT
10
5.1625
20
23.067
0
SEQEND
0
POLYLINE
8
CUT
66
1
70
0
0
VERTEX
8
CUT
10
2.5375
20
26.317
0
VERTEX
8
CUT
10
0.35
20
25.692
0
VERTEX
8
CUT
10
0.35
20
23.692
0
VERTEX
8
CUT
10
2.5375
20
23.067
0
SEQEND
0
POLYLINE
8
CUT
66
1
70
0
0
VERTEX
8
CUT
10
12.8625
20
26.317
0
VERTEX
8
CUT
10
15.05
20
25.692
0
VERTEX
8
CUT
10
15.05
20
23.692
0
VERTEX
8
CUT
10
12.8625
20
23.067
0
SEQEND
0
POLYLINE
8
CUT
66
1
70
0
0
VERTEX
8
CUT
10
10.2375
20
26.317
0
VERTEX
8
CUT
10
8.05
20
25.692
0
VERTEX
8
CUT
10
8.05
20
23.692
0
VERTEX
8
CUT
10
10.2375
20
23.067
0
SEQEND
0
POLYLINE
8
CUT
66
1
70
0
0
VERTEX
8
CUT
10
20.5625
20
26.317
0
VERTEX
8
CUT
10
22.75
20
25.692
0
VERTEX
8
CUT
10
22.75
20
23.692
0
VERTEX
8
CUT
10
20.5625
20
23.067
0
SEQEND
0
POLYLINE
8
CUT
66
1
70
0
0
VERTEX
8
CUT
10
17.9375
20
26.317
0
VERTEX
8
CUT
10
15.75
20
25.692
0
VERTEX
8
CUT
10
15.75
20
23.692
0
VERTEX
8
CUT
10
17.9375
20
23.067
0
SEQEND
0
POLYLINE
8
CUT
66
1
70
0
0
VERTEX
8
CUT
10
28.2625
20
26.317
0
VERTEX
8
CUT
10
30.45
20
25.692
0
VERTEX
8
CUT
10
30.45
20
23.692
0
VERTEX
8
CUT
10
28.2625
20
23.067
0
SEQEND
0
POLYLINE
8
CUT
66
1
70
0
0
VERTEX
8
CUT
10
25.6375
20
26.317
0
VERTEX
8
CUT
10
23.45
20
25.692
0
VERTEX
8
CUT
10
23.45
20
23.692
0
VERTEX
8
CUT
10
25.6375
20
23.067
0
SEQEND
0
POLYLINE
8
CUT
66
1
70
0
0
VERTEX
8
CUT
10
35.9625
20
26.317
0
VERTEX
8
CUT
10
38.15
20
25.692
0
VERTEX
8
CUT
10
38.15
20
23.692
0
VERTEX
8
CUT
10
35.9625
20
23.067
0
SEQEND
0
POLYLINE
8
CUT
66
1
70
0
0
VERTEX
8
CUT
10
33.3375
20
26.317
0
VERTEX
8
CUT
10
31.15
20
25.692
0
VERTEX
8
CUT
10
31.15
20
23.692
0
VERTEX
8
CUT
10
33.3375
20
23.067
0
SEQEND
0
POLYLINE
8
CUT
66
1
70
0
0
VERTEX
8
CUT
10
43.6625
20
26.317
0
VERTEX
8
CUT
10
45.85
20
25.692
0
VERTEX
8
CUT
10
45.85
20
23.692
0
VERTEX
8
CUT
10
43.6625
20
23.067
0
SEQEND
0
POLYLINE
8
CUT
66
1
70
0
0
VERTEX
8
CUT
10
41.0375
20
26.317
0
VERTEX
8
CUT
10
38.85
20
25.692
0
VERTEX
8
CUT
10
38.85
20
23.692
0
VERTEX
8
CUT
10
41.0375
20
23.067
0
SEQEND
0
POLYLINE
8
CUT
66
1
70
0
0
VERTEX
8
CUT
10
51.3625
20
26.317
0
VERTEX
8
CUT
10
53.55
20
25.692
0
VERTEX
8
CUT
10
53.55
20
23.692
0
VERTEX
8
CUT
10
51.3625
20
23.067
0
SEQEND
0
POLYLINE
8
CUT
66
1
70
0
0
VERTEX
8
CUT
10
48.7375
20
26.317
0
VERTEX
8
CUT
10
46.55
20
25.692
0
VERTEX
8
CUT
10
46.55
20
23.692
0
VERTEX
8
CUT
10
48.7375
20
23.067
0
SEQEND
0
POLYLINE
8
CUT
66
1
70
0
0
VERTEX
8
CUT
10
59.0625
20
26.317
0
VERTEX
8
CUT
10
61.25
20
25.692
0
VERTEX
8
CUT
10
61.25
20
23.692
0
VERTEX
8
CUT
10
59.0625
20
23.067
0
SEQEND
0
POLYLINE
8
CUT
66
1
70
0
0
VERTEX
8
CUT
10
56.4375
20
26.317
0
VERTEX
8
CUT
10
54.25
20
25.692
0
VERTEX
8
CUT
10
54.25
20
23.692
0
VERTEX
8
CUT
10
56.4375
20
23.067
0
SEQEND
0
POLYLINE
8
CUT
66
1
70
0
0
VERTEX
8
CUT
10
66.7625
20
26.317
0
VERTEX
8
CUT
10
68.95
20
25.692
0
VERTEX
8
CUT
10
68.95
20
23.692
0
VERTEX
8
CUT
10
66.7625
20
23.067
0
SEQEND
0
POLYLINE
8
CUT
66
1
70
0
0
VERTEX
8
CUT
10
64.1375
20
26.317
0
VERTEX
8
CUT
10
61.95
20
25.692
0
VERTEX
8
CUT
10
61.95
20
23.692
0
VERTEX
8
CUT
10
64.1375
20
23.067
0
SEQEND
0
POLYLINE
8
CUT
66
1
70
0
0
VERTEX
8
CUT
10
74.4625
20
26.317
0
VERTEX
8
CUT
10
76.65
20
25.692
0
VERTEX
8
CUT
10
76.65
20
23.692
0
VERTEX
8
CUT
10
74.4625
20
23.067
0
SEQEND
0
POLYLINE
8
CUT
66
1
70
0
0
VERTEX
8
CUT
10
71.8375
20
26.317
0
VERTEX
8
CUT
10
69.65
20
25.692
0
VERTEX
8
CUT
10
69.65
20
23.692
0
VERTEX
8
CUT
10
71.8375
20
23.067
0
SEQEND
0
POLYLINE
8
CUT
66
1
70
0
0
VERTEX
8
CUT
10
82.1625
20
26.317
0
VERTEX
8
CUT
10
84.35
20
25.692
0
VERTEX
8
CUT
10
84.35
20
23.692
0
VERTEX
8
CUT
10
82.1625
20
23.067
0
SEQEND
0
POLYLINE
8
CUT
66
1
70
0
0
VERTEX
8
CUT
10
79.5375
20
26.317
0
VERTEX
8
CUT
10
77.35
20
25.692
0
VERTEX
8
CUT
10
77.35
20
23.692
0
VERTEX
8
CUT
10
79.5375
20
23.067
0
SEQEND
0
POLYLINE
8
CUT
66
1
70
0
0
VERTEX
8
CUT
10
89.8625
20
26.317
0
VERTEX
8
CUT
10
92.05
20
25.692
0
VERTEX
8
CUT
10
92.05
20
23.692
0
VERTEX
8
CUT
10
89.8625
20
23.067
0
SEQEND
0
POLYLINE
8
CUT
66
1
70
0
0
VERTEX
8
CUT
10
87.2375
20
26.317
0
VERTEX
8
CUT
10
85.05
20
25.692
0
VERTEX
8
CUT
10
85.05
20
23.692
0
VERTEX
8
CUT
10
87.2375
20
23.067
0
SEQEND
0
POLYLINE
8
CUT
66
1
70
0
0
VERTEX
8
CUT
10
97.5625
20
26.317
0
VERTEX
8
CUT
10
99.75
20
25.692
0
VERTEX
8
CUT
10
99.75
20
23.692
0
VERTEX
8
CUT
10
97.5625
20
23.067
0
SEQEND
0
POLYLINE
8
CUT
66
1
70
0
0
VERTEX
8
CUT
10
94.9375
20
26.317
0
VERTEX
8
CUT
10
92.75
20
25.692
0
VERTEX
8
CUT
10
92.75
20
23.692
0
VERTEX
8
CUT
10
94.9375
20
23.067
0
SEQEND
0
POLYLINE
8
CUT
66
1
70
0
0
VERTEX
8
CUT
10
105.2625
20
26.317
0
VERTEX
8
CUT
10
107.45
20
25.692
0
VERTEX
8
CUT
10
107.45
20
23.692
0
VERTEX
8
CUT
10
105.2625
20
23.067
0
SEQEND
0
POLYLINE
8
CUT
66
1
70
0
0
VERTEX
8
CUT
10
102.6375
20
26.317
0
VERTEX
8
CUT
10
100.45
20
25.692
0
VERTEX
8
CUT
10
100.45
20
23.692
0
VERTEX
8
CUT
10
102.6375
20
23.067
0
SEQEND
0
POLYLINE
8
CUT
66
1
70
0
0
VERTEX
8
CUT
10
112.9625
20
26.317
0
VERTEX
8
CUT
10
115.15
20
25.692
0
VERTEX
8
CUT
10
115.15
20
23.692
0
VERTEX
8
CUT
10
112.9625
20
23.067
0
SEQEND
0
POLYLINE
8
CUT
66
1
70
0
0
VERTEX
8
CUT
10
110.3375
20
26.317
0
VERTEX
8
CUT
10
108.15
20
25.692
0
VERTEX
8
CUT
10
108.15
20
23.692
0
VERTEX
8
CUT
10
110.3375
20
23.067
0
SEQEND
0
POLYLINE
8
CUT
66
1
70
0
0
VERTEX
8
CUT
10
118.0375
20
26.317
0
VERTEX
8
CUT
10
115.85
20
25.692
0
VERTEX
8
CUT
10
115.85
20
23.692
0
VERTEX
8
CUT
10
118.0375
20
23.067
0
SEQEND
0
POLYLINE
8
CUT
66
1
70
0
0
VERTEX
8
CUT
10
1.3125
20
22.708
0
VERTEX
8
CUT
10
3.5
20
22.083
0
VERTEX
8
CUT
10
3.5
20
20.083
0
VERTEX
8
CUT
10
1.3125
20
19.458
0
SEQEND
0
POLYLINE
8
CUT
66
1
70
0
0
VERTEX
8
CUT
10
9.0125
20
22.708
0
VERTEX
8
CUT
10
11.2
20
22.083
0
VERTEX
8
CUT
10
11.2
20
20.083
0
VERTEX
8
CUT
10
9.0125
20
19.458
0
SEQEND
0
POLYLINE
8
CUT
66
1
70
0
0
VERTEX
8
CUT
10
6.3875
20
22.708
0
VERTEX
8
CUT
10
4.2
20
22.083
0
VERTEX
8
CUT
10
4.2
20
20.083
0
VERTEX
8
CUT
10
6.3875
20
19.458
0
SEQEND
0
POLYLINE
8
CUT
66
1
70
0
0
VERTEX
8
CUT
10
16.7125
20
22.708
0
VERTEX
8
CUT
10
18.9
20
22.083
0
VERTEX
8
CUT
10
18.9
20
20.083
0
VERTEX
8
CUT
10
16.7125
20
19.458
0
SEQEND
0
POLYLINE
8
CUT
66
1
70
0
0
VERTEX
8
CUT
10
14.0875
20
22.708
0
VERTEX
8
CUT
10
11.9
20
22.083
0
VERTEX
8
CUT
10
11.9
20
20.083
0
VERTEX
8
CUT
10
14.0875
20
19.458
0
SEQEND
0
POLYLINE
8
CUT
66
1
70
0
0
VERTEX
8
CUT
10
24.4125
20
22.708
0
VERTEX
8
CUT
10
26.6
20
22.083
0
VERTEX
8
CUT
10
26.6
20
20.083
0
VERTEX
8
CUT
10
24.4125
20
19.458
0
SEQEND
0
POLYLINE
8
CUT
66
1
70
0
0
VERTEX
8
CUT
10
21.7875
20
22.708
0
VERTEX
8
CUT
10
19.6
20
22.083
0
VERTEX
8
CUT
10
19.6
20
20.083
0
VERTEX
8
CUT
10
21.7875
20
19.458
0
SEQEND
0
POLYLINE
8
CUT
66
1
70
0
0
VERTEX
8
CUT
10
32.1125
20
22.708
0
VERTEX
8
CUT
10
34.3
20
22.083
0
VERTEX
8
CUT
10
34.3
20
20.083
0
VERTEX
8
CUT
10
32.1125
20
19.458
0
SEQEND
0
POLYLINE
8
CUT
66
1
70
0
0
VERTEX
8
CUT
10
29.4875
20
22.708
0
VERTEX
8
CUT
10
27.3
20
22.083
0
VERTEX
8
CUT
10
27.3
20
20.083
0
VERTEX
8
CUT
10
29.4875
20
19.458
0
SEQEND
0
POLYLINE
8
CUT
66
1
70
0
0
VERTEX
8
CUT
10
39.8125
20
22.708
0
VERTEX
8
CUT
10
42
20
22.083
0
VERTEX
8
CUT
10
42
20
20.083
0
VERTEX
8
CUT
10
39.8125
20
19.458
0
SEQEND
0
POLYLINE
8
CUT
66
1
70
0
0
VERTEX
8
CUT
10
37.1875
20
22.708
0
VERTEX
8
CUT
10
35
20
22.083
0
VERTEX
8
CUT
10
35
20
20.083
0
VERTEX
8
CUT
10
37.1875
20
19.458
0
SEQEND
0
POLYLINE
8
CUT
66
1
70
0
0
VERTEX
8
CUT
10
47.5125
20
22.708
0
VERTEX
8
CUT
10
49.7
20
22.083
0
VERTEX
8
CUT
10
49.7
20
20.083
0
VERTEX
8
CUT
10
47.5125
20
19.458
0
SEQEND
0
POLYLINE
8
CUT
66
1
70
0
0
VERTEX
8
CUT
10
44.8875
20
22.708
0
VERTEX
8
CUT
10
42.7
20
22.083
0
VERTEX
8
CUT
10
42.7
20
20.083
0
VERTEX
8
CUT
10
44.8875
20
19.458
0
SEQEND
0
POLYLINE
8
CUT
66
1
70
0
0
VERTEX
8
CUT
10
55.2125
20
22.708
0
VERTEX
8
CUT
10
57.4
20
22.083
0
VERTEX
8
CUT
10
57.4
20
20.083
0
VERTEX
8
CUT
10
55.2125
20
19.458
0
SEQEND
0
POLYLINE
8
CUT
66
1
70
0
0
VERTEX
8
CUT
10
52.5875
20
22.708
0
VERTEX
8
CUT
10
50.4
20
22.083
0
VERTEX
8
CUT
10
50.4
20
20.083
0
VERTEX
8
CUT
10
52.5875
20
19.458
0
SEQEND
0
POLYLINE
8
CUT
66
1
70
0
0
VERTEX
8
CUT
10
62.9125
20
22.708
0
VERTEX
8
CUT
10
65.1
20
22.083
0
VERTEX
8
CUT
10
65.1
20
20.083
0
VERTEX
8
CUT
10
62.9125
20
19.458
0
SEQEND
0
POLYLINE
8
CUT
66
1
70
0
0
VERTEX
8
CUT
10
60.2875
20
22.708
0
VERTEX
8
CUT
10
58.1
20
22.083
0
VERTEX
8
CUT
10
58.1
20
20.083
0
VERTEX
8
CUT
10
60.2875
20
19.458
0
SEQEND
0
POLYLINE
8
CUT
66
1
70
0
0
VERTEX
8
CUT
10
70.6125
20
22.708
0
VERTEX
8
CUT
10
72.8
20
22.083
0
VERTEX
8
CUT
10
72.8
20
20.083
0
VERTEX
8
CUT
10
70.6125
20
19.458
0
SEQEND
0
POLYLINE
8
CUT
66
1
70
0
0
VERTEX
8
CUT
10
67.9875
20
22.708
0
VERTEX
8
CUT
10
65.8
20
22.083
0
VERTEX
8
CUT
10
65.8
20
20.083
0
VERTEX
8
CUT
10
67.9875
20
19.458
0
SEQEND
0
POLYLINE
8
CUT
66
1
70
0
0
VERTEX
8
CUT
10
78.3125
20
22.708
0
VERTEX
8
CUT
10
80.5
20
22.083
0
VERTEX
8
CUT
10
80.5
20
20.083
0
VERTEX
8
CUT
10
78.3125
20
19.458
0
SEQEND
0
POLYLINE
8
CUT
66
1
70
0
0
VERTEX
8
CUT
10
75.6875
20
22.708
0
VERTEX
8
CUT
10
73.5
20
22.083
0
VERTEX
8
CUT
10
73.5
20
20.083
0
VERTEX
8
CUT
10
75.6875
20
19.458
0
SEQEND
0
POLYLINE
8
CUT
66
1
70
0
0
VERTEX
8
CUT
10
86.0125
20
22.708
0
VERTEX
8
CUT
10
88.2
20
22.083
0
VERTEX
8
CUT
10
88.2
20
20.083
0
VERTEX
8
CUT
10
86.0125
20
19.458
0
SEQEND
0
POLYLINE
8
CUT
66
1
70
0
0
VERTEX
8
CUT
10
83.3875
20
22.708
0
VERTEX
8
CUT
10
81.2
20
22.083
0
VERTEX
8
CUT
10
81.2
20
20.083
0
VERTEX
8
CUT
10
83.3875
20
19.458
0
SEQEND
0
POLYLINE
8
CUT
66
1
70
0
0
VERTEX
8
CUT
10
93.7125
20
22.708
0
VERTEX
8
CUT
10
95.9
20
22.083
0
VERTEX
8
CUT
10
95.9
20
20.083
0
VERTEX
8
CUT
10
93.7125
20
19.458
0
SEQEND
0
POLYLINE
8
CUT
66
1
70
0
0
VERTEX
8
CUT
10
91.0875
20
22.708
0
VERTEX
8
CUT
10
88.9
20
22.083
0
VERTEX
8
CUT
10
88.9
20
20.083
0
VERTEX
8
CUT
10
91.0875
20
19.458
0
SEQEND
0
POLYLINE
8
CUT
66
1
70
0
0
VERTEX
8
CUT
10
101.4125
20
22.708
0
VERTEX
8
CUT
10
103.6
20
22.083
0
VERTEX
8
CUT
10
103.6
20
20.083
0
VERTEX
8
CUT
10
101.4125
20
19.458
0
SEQEND
0
POLYLINE
8
CUT
66
1
70
0
0
VERTEX
8
CUT
10
98.7875
20
22.708
0
VERTEX
8
CUT
10
96.6
20
22.083
0
VERTEX
8
CUT
10
96.6
20
20.083
0
VERTEX
8
CUT
10
98.7875
20
19.458
0
SEQEND
0
POLYLINE
8
CUT
66
1
70
0
0
VERTEX
8
CUT
10
109.1125
20
22.708
0
VERTEX
8
CUT
10
111.3
20
22.083
0
VERTEX
8
CUT
10
111.3
20
20.083
0
VERTEX
8
CUT
10
109.1125
20
19.458
0
SEQEND
0
POLYLINE
8
CUT
66
1
70
0
0
VERTEX
8
CUT
10
106.4875
20
22.708
0
VERTEX
8
CUT
10
104.3
20
22.083
0
VERTEX
8
CUT
10
104.3
20
20.083
0
VERTEX
8
CUT
10
106.4875
20
19.458
0
SEQEND
0
POLYLINE
8
CUT
66
1
70
0
0
VERTEX
8
CUT
10
116.8125
20
22.708
0
VERTEX
8
CUT
10
119
20
22.083
0
VERTEX
8
CUT
10
119
20
20.083
0
VERTEX
8
CUT
10
116.8125
20
19.458
0
SEQEND
0
POLYLINE
8
CUT
66
1
70
0
0
VERTEX
8
CUT
10
114.1875
20
22.708
0
VERTEX
8
CUT
10
112
20
22.083
0
VERTEX
8
CUT
10
112
20
20.083
0
VERTEX
8
CUT
10
114.1875
20
19.458
0
SEQEND
0
POLYLINE
8
CUT
66
1
70
0
0
VERTEX
8
CUT
10
120
20
22.1687
0
VERTEX
8
CUT
10
119.7
20
22.083
0
VERTEX
8
CUT
10
119.7
20
20.083
0
VERTEX
8
CUT
10
120
20
19.9973
0
SEQEND
0
POLYLINE
8
CUT
66
1
70
0
0
VERTEX
8
CUT
10
5.1625
20
19.099
0
VERTEX
8
CUT
10
7.35
20
18.474
0
VERTEX
8
CUT
10
7.35
20
16.474
0
VERTEX
8
CUT
10
5.1625
20
15.849
0
SEQEND
0
POLYLINE
8
CUT
66
1
70
0
0
VERTEX
8
CUT
10
2.5375
20
19.099
0
VERTEX
8
CUT
10
0.35
20
18.474
0
VERTEX
8
CUT
10
0.35
20
16.474
0
VERTEX
8
CUT
10
2.5375
20
15.849
0
SEQEND
0
POLYLINE
8
CUT
66
1
70
0
0
VERTEX
8
CUT
10
12.8625
20
19.099
0
VERTEX
8
CUT
10
15.05
20
18.474
0
VERTEX
8
CUT
10
15.05
20
16.474
0
VERTEX
8
CUT
10
12.8625
20
15.849
0
SEQEND
0
POLYLINE
8
CUT
66
1
70
0
0
VERTEX
8
CUT
10
10.2375
20
19.099
0
VERTEX
8
CUT
10
8.05
20
18.474
0
VERTEX
8
CUT
10
8.05
20
16.474
0
VERTEX
8
CUT
10
10.2375
20
15.849
0
SEQEND
0
POLYLINE
8
CUT
66
1
70
0
0
VERTEX
8
CUT
10
20.5625
20
19.099
0
VERTEX
8
CUT
10
22.75
20
18.474
0
VERTEX
8
CUT
10
22.75
20
16.474
0
VERTEX
8
CUT
10
20.5625
20
15.849
0
SEQEND
0
POLYLINE
8
CUT
66
1
70
0
0
VERTEX
8
CUT
10
17.9375
20
19.099
0
VERTEX
8
CUT
10
15.75
20
18.474
0
VERTEX
8
CUT
10
15.75
20
16.474
0
VERTEX
8
CUT
10
17.9375
20
15.849
0
SEQEND
0
POLYLINE
8
CUT
66
1
70
0
0
VERTEX
8
CUT
10
28.2625
20
19.099
0
VERTEX
8
CUT
10
30.45
20
18.474
0
VERTEX
8
CUT
10
30.45
20
16.474
0
VERTEX
8
CUT
10
28.2625
20
15.849
0
SEQEND
0
POLYLINE
8
CUT
66
1
70
0
0
VERTEX
8
CUT
10
25.6375
20
19.099
0
VERTEX
8
CUT
10
23.45
20
18.474
0
VERTEX
8
CUT
10
23.45
20
16.474
0
VERTEX
8
CUT
10
25.6375
20
15.849
0
SEQEND
0
POLYLINE
8
CUT
66
1
70
0
0
VERTEX
8
CUT
10
35.9625
20
19.099
0
VERTEX
8
CUT
10
38.15
20
18.474
0
VERTEX
8
CUT
10
38.15
20
16.474
0
VERTEX
8
CUT
10
35.9625
20
15.849
0
SEQEND
0
POLYLINE
8
CUT
66
1
70
0
0
VERTEX
8
CUT
10
33.3375
20
19.099
0
VERTEX
8
CUT
10
31.15
20
18.474
0
VERTEX
8
CUT
10
31.15
20
16.474
0
VERTEX
8
CUT
10
33.3375
20
15.849
0
SEQEND
0
POLYLINE
8
CUT
66
1
70
0
0
VERTEX
8
CUT
10
43.6625
20
19.099
0
VERTEX
8
CUT
10
45.85
20
18.474
0
VERTEX
8
CUT
10
45.85
20
16.474
0
VERTEX
8
CUT
10
43.6625
20
15.849
0
SEQEND
0
POLYLINE
8
CUT
66
1
70
0
0
VERTEX
8
CUT
10
41.0375
20
19.099
0
VERTEX
8
CUT
10
38.85
20
18.474
0
VERTEX
8
CUT
10
38.85
20
16.474
0
VERTEX
8
CUT
10
41.0375
20
15.849
0
SEQEND
0
POLYLINE
8
CUT
66
1
70
0
0
VERTEX
8
CUT
10
51.3625
20
19.099
0
VERTEX
8
CUT
10
53.55
20
18.474
0
VERTEX
8
CUT
10
53.55
20
16.474
0
VERTEX
8
CUT
10
51.3625
20
15.849
0
SEQEND
0
POLYLINE
8
CUT
66
1
70
0
0
VERTEX
8
CUT
10
48.7375
20
19.099
0
VERTEX
8
CUT
10
46.55
20
18.474
0
VERTEX
8
CUT
10
46.55
20
16.474
0
VERTEX
8
CUT
10
48.7375
20
15.849
0
SEQEND
0
POLYLINE
8
CUT
66
1
70
0
0
VERTEX
8
CUT
10
59.0625
20
19.099
0
VERTEX
8
CUT
10
61.25
20
18.474
0
VERTEX
8
CUT
10
61.25
20
16.474
0
VERTEX
8
CUT
10
59.0625
20
15.849
0
SEQEND
0
POLYLINE
8
CUT
66
1
70
0
0
VERTEX
8
CUT
10
56.4375
20
19.099
0
VERTEX
8
CUT
10
54.25
20
18.474
0
VERTEX
8
CUT
10
54.25
20
16.474
0
VERTEX
8
CUT
10
56.4375
20
15.849
0
SEQEND
0
POLYLINE
8
CUT
66
1
70
0
0
VERTEX
8
CUT
10
66.7625
20
19.099
0
VERTEX
8
CUT
10
68.95
20
18.474
0
VERTEX
8
CUT
10
68.95
20
16.474
0
VERTEX
8
CUT
10
66.7625
20
15.849
0
SEQEND
0
POLYLINE
8
CUT
66
1
70
0
0
VERTEX
8
CUT
10
64.1375
20
19.099
0
VERTEX
8
CUT
10
61.95
20
18.474
0
VERTEX
8
CUT
10
61.95
20
16.474
0
VERTEX
8
CUT
10
64.1375
20
15.849
0
SEQEND
0
POLYLINE
8
CUT
66
1
70
0
0
VERTEX
8
CUT
10
74.4625
20
19.099
0
VERTEX
8
CUT
10
76.65
20
18.474
0
VERTEX
8
CUT
10
76.65
20
16.474
0
VERTEX
8
CUT
10
74.4625
20
15.849
0
SEQEND
0
POLYLINE
8
CUT
66
1
70
0
0
VERTEX
8
CUT
10
71.8375
20
19.099
0
VERTEX
8
CUT
10
69.65
20
18.474
0
VERTEX
8
CUT
10
69.65
20
16.474
0
VERTEX
8
CUT
10
71.8375
20
15.849
0
SEQEND
0
POLYLINE
8
CUT
66
1
70
0
0
VERTEX
8
CUT
10
82.1625
20
19.099
0
VERTEX
8
CUT
10
84.35
20
18.474
0
VERTEX
8
CUT
10
84.35
20
16.474
0
VERTEX
8
CUT
10
82.1625
20
15.849
0
SEQEND
0
POLYLINE
8
CUT
66
1
70
0
0
VERTEX
8
CUT
10
79.5375
20
19.099
0
VERTEX
8
CUT
10
77.35
20
18.474
0
VERTEX
8
CUT
10
77.35
20
16.474
0
VERTEX
8
CUT
10
79.5375
20
15.849
0
SEQEND
0
POLYLINE
8
CUT
66
1
70
0
0
VERTEX
8
CUT
10
89.8625
20
19.099
0
VERTEX
8
CUT
10
92.05
20
18.474
0
VERTEX
8
CUT
10
92.05
20
16.474
0
VERTEX
8
CUT
10
89.8625
20
15.849
0
SEQEND
0
POLYLINE
8
CUT
66
1
70
0
0
VERTEX
8
CUT
10
87.2375
20
19.099
0
VERTEX
8
CUT
10
85.05
20
18.474
0
VERTEX
8
CUT
10
85.05
20
16.474
0
VERTEX
8
CUT
10
87.2375
20
15.849
0
SEQEND
0
POLYLINE
8
CUT
66
1
70
0
0
VERTEX
8
CUT
10
97.5625
20
19.099
0
VERTEX
8
CUT
10
99.75
20
18.474
0
VERTEX
8
CUT
10
99.75
20
16.474
0
VERTEX
8
CUT
10
97.5625
20
15.849
0
SEQEND
0
POLYLINE
8
CUT
66
1
70
0
0
VERTEX
8
CUT
10
94.9375
20
19.099
0
VERTEX
8
CUT
10
92.75
20
18.474
0
VERTEX
8
CUT
10
92.75
20
16.474
0
VERTEX
8
CUT
10
94.9375
20
15.849
0
SEQEND
0
POLYLINE
8
CUT
66
1
70
0
0
VERTEX
8
CUT
10
105.2625
20
19.099
0
VERTEX
8
CUT
10
107.45
20
18.474
0
VERTEX
8
CUT
10
107.45
20
16.474
0
VERTEX
8
CUT
10
105.2625
20
15.849
0
SEQEND
0
POLYLINE
8
CUT
66
1
70
0
0
VERTEX
8
CUT
10
102.6375
20
19.099
0
VERTEX
8
CUT
10
100.45
20
18.474
0
VERTEX
8
CUT
10
100.45
20
16.474
0
VERTEX
8
CUT
10
102.6375
20
15.849
0
SEQEND
0
POLYLINE
8
CUT
66
1
70
0
0
VERTEX
8
CUT
10
112.9625
20
19.099
0
VERTEX
8
CUT
10
115.15
20
18.474
0
VERTEX
8
CUT
10
115.15
20
16.474
0
VERTEX
8
CUT
10
112.9625
20
15.849
0
SEQEND
0
POLYLINE
8
CUT
66
1
70
0
0
VERTEX
8
CUT
10
110.3375
20
19.099
0
VERTEX
8
CUT
10
108.15
20
18.474
0
VERTEX
8
CUT
10
108.15
20
16.474
0
VERTEX
8
CUT
10
110.3375
20
15.849
0
SEQEND
0
POLYLINE
8
CUT
66
1
70
0
0
VERTEX
8
CUT
10
118.0375
20
19.099
0
VERTEX
8
CUT
10
115.85
20
18.474
0
VERTEX
8
CUT
10
115.85
20
16.474
0
VERTEX
8
CUT
10
118.0375
20
15.849
0
SEQEND
0
POLYLINE
8
CUT
66
1
70
0
0
VERTEX
8
CUT
10
1.3125
20
15.49
0
VERTEX
8
CUT
10
3.5
20
14.865
0
VERTEX
8
CUT
10
3.5
20
12.865
0
VERTEX
8
CUT
10
1.3125
20
12.24
0
SEQEND
0
POLYLINE
8
CUT
66
1
70
0
0
VERTEX
8
CUT
10
9.0125
20
15.49
0
VERTEX
8
CUT
10
11.2
20
14.865
0
VERTEX
8
CUT
10
11.2
20
12.865
0
VERTEX
8
CUT
10
9.0125
20
12.24
0
SEQEND
0
POLYLINE
8
CUT
66
1
70
0
0
VERTEX
8
CUT
10
6.3875
20
15.49
0
VERTEX
8
CUT
10
4.2
20
14.865
0
VERTEX
8
CUT
10
4.2
20
12.865
0
VERTEX
8
CUT
10
6.3875
20
12.24
0
SEQEND
0
POLYLINE
8
CUT
66
1
70
0
0
VERTEX
8
CUT
10
16.7125
20
15.49
0
VERTEX
8
CUT
10
18.9
20
14.865
0
VERTEX
8
CUT
10
18.9
20
12.865
0
VERTEX
8
CUT
10
16.7125
20
12.24
0
SEQEND
0
POLYLINE
8
CUT
66
1
70
0
0
VERTEX
8
CUT
10
14.0875
20
15.49
0
VERTEX
8
CUT
10
11.9
20
14.865
0
VERTEX
8
CUT
10
11.9
20
12.865
0
VERTEX
8
CUT
10
14.0875
20
12.24
0
SEQEND
0
POLYLINE
8
CUT
66
1
70
0
0
VERTEX
8
CUT
10
24.4125
20
15.49
0
VERTEX
8
CUT
10
26.6
20
14.865
0
VERTEX
8
CUT
10
26.6
20
12.865
0
VERTEX
8
CUT
10
24.4125
20
12.24
0
SEQEND
0
POLYLINE
8
CUT
66
1
70
0
0
VERTEX
8
CUT
10
21.7875
20
15.49
0
VERTEX
8
CUT
10
19.6
20
14.865
0
VERTEX
8
CUT
10
19.6
20
12.865
0
VERTEX
8
CUT
10
21.7875
20
12.24
0
SEQEND
0
POLYLINE
8
CUT
66
1
70
0
0
VERTEX
8
CUT
10
32.1125
20
15.49
0
VERTEX
8
CUT
10
34.3
20
14.865
0
VERTEX
8
CUT
10
34.3
20
12.865
0
VERTEX
8
CUT
10
32.1125
20
12.24
0
SEQEND
0
POLYLINE
8
CUT
66
1
70
0
0
VERTEX
8
CUT
10
29.4875
20
15.49
0
VERTEX
8
CUT
10
27.3
20
14.865
0
VERTEX
8
CUT
10
27.3
20
12.865
0
VERTEX
8
CUT
10
29.4875
20
12.24
0
SEQEND
0
POLYLINE
8
CUT
66
1
70
0
0
VERTEX
8
CUT
10
39.8125
20
15.49
0
VERTEX
8
CUT
10
42
20
14.865
0
VERTEX
8
CUT
10
42
20
12.865
0
VERTEX
8
CUT
10
39.8125
20
12.24
0
SEQEND
0
POLYLINE
8
CUT
66
1
70
0
0
VERTEX
8
CUT
10
37.1875
20
15.49
0
VERTEX
8
CUT
10
35
20
14.865
0
VERTEX
8
CUT
10
35
20
12.865
0
VERTEX
8
CUT
10
37.1875
20
12.24
0
SEQEND
0
POLYLINE
8
CUT
66
1
70
0
0
VERTEX
8
CUT
10
47.5125
20
15.49
0
VERTEX
8
CUT
10
49.7
20
14.865
0
VERTEX
8
CUT
10
49.7
20
12.865
0
VERTEX
8
CUT
10
47.5125
20
12.24
0
SEQEND
0
POLYLINE
8
CUT
66
1
70
0
0
VERTEX
8
CUT
10
44.8875
20
15.49
0
VERTEX
8
CUT
10
42.7
20
14.865
0
VERTEX
8
CUT
10
42.7
20
12.865
0
VERTEX
8
CUT
10
44.8875
20
12.24
0
SEQEND
0
POLYLINE
8
CUT
66
1
70
0
0
VERTEX
8
CUT
10
55.2125
20
15.49
0
VERTEX
8
CUT
10
57.4
20
14.865
0
VERTEX
8
CUT
10
57.4
20
12.865
0
VERTEX
8
CUT
10
55.2125
20
12.24
0
SEQEND
0
POLYLINE
8
CUT
66
1
70
0
0
VERTEX
8
CUT
10
52.5875
20
15.49
0
VERTEX
8
CUT
10
50.4
20
14.865
0
VERTEX
8
CUT
10
50.4
20
12.865
0
VERTEX
8
CUT
10
52.5875
20
12.24
0
SEQEND
0
POLYLINE
8
CUT
66
1
70
0
0
VERTEX
8
CUT
10
62.9125
20
15.49
0
VERTEX
8
CUT
10
65.1
20
14.865
0
VERTEX
8
CUT
10
65.1
20
12.865
0
VERTEX
8
CUT
10
62.9125
20
12.24
0
SEQEND
0
POLYLINE
8
CUT
66
1
70
0
0
VERTEX
8
CUT
10
60.2875
20
15.49
0
VERTEX
8
CUT
10
58.1
20
14.865
0
VERTEX
8
CUT
10
58.1
20
12.865
0
VERTEX
8
CUT
10
60.2875
20
12.24
0
SEQEND
0
POLYLINE
8
CUT
66
1
70
0
0
VERTEX
8
CUT
10
70.6125
20
15.49
0
VERTEX
8
CUT
10
72.8
20
14.865
0
VERTEX
8
CUT
10
72.8
20
12.865
0
VERTEX
8
CUT
10
70.6125
20
12.24
0
SEQEND
0
POLYLINE
8
CUT
66
1
70
0
0
VERTEX
8
CUT
10
67.9875
20
15.49
0
VERTEX
8
CUT
10
65.8
20
14.865
0
VERTEX
8
CUT
10
65.8
20
12.865
0
VERTEX
8
CUT
10
67.9875
20
12.24
0
SEQEND
0
POLYLINE
8
CUT
66
1
70
0
0
VERTEX
8
CUT
10
78.3125
20
15.49
0
VERTEX
8
CUT
10
80.5
20
14.865
0
VERTEX
8
CUT
10
80.5
20
12.865
0
VERTEX
8
CUT
10
78.3125
20
12.24
0
SEQEND
0
POLYLINE
8
CUT
66
1
70
0
0
VERTEX
8
CUT
10
75.6875
20
15.49
0
VERTEX
8
CUT
10
73.5
20
14.865
0
VERTEX
8
CUT
10
73.5
20
12.865
0
VERTEX
8
CUT
10
75.6875
20
12.24
0
SEQEND
0
POLYLINE
8
CUT
66
1
70
0
0
VERTEX
8
CUT
10
86.0125
20
15.49
0
VERTEX
8
CUT
10
88.2
20
14.865
0
VERTEX
8
CUT
10
88.2
20
12.865
0
VERTEX
8
CUT
10
86.0125
20
12.24
0
SEQEND
0
POLYLINE
8
CUT
66
1
70
0
0
VERTEX
8
CUT
10
83.3875
20
15.49
0
VERTEX
8
CUT
10
81.2
20
14.865
0
VERTEX
8
CUT
10
81.2
20
12.865
0
VERTEX
8
CUT
10
83.3875
20
12.24
0
SEQEND
0
POLYLINE
8
CUT
66
1
70
0
0
VERTEX
8
CUT
10
93.7125
20
15.49
0
VERTEX
8
CUT
10
95.9
20
14.865
0
VERTEX
8
CUT
10
95.9
20
12.865
0
VERTEX
8
CUT
10
93.7125
20
12.24
0
SEQEND
0
POLYLINE
8
CUT
66
1
70
0
0
VERTEX
8
CUT
10
91.0875
20
15.49
0
VERTEX
8
CUT
10
88.9
20
14.865
0
VERTEX
8
CUT
10
88.9
20
12.865
0
VERTEX
8
CUT
10
91.0875
20
12.24
0
SEQEND
0
POLYLINE
8
CUT
66
1
70
0
0
VERTEX
8
CUT
10
101.4125
20
15.49
0
VERTEX
8
CUT
10
103.6
20
14.865
0
VERTEX
8
CUT
10
103.6
20
12.865
0
VERTEX
8
CUT
10
101.4125
20
12.24
0
SEQEND
0
POLYLINE
8
CUT
66
1
70
0
0
VERTEX
8
CUT
10
98.7875
20
15.49
0
VERTEX
8
CUT
10
96.6
20
14.865
0
VERTEX
8
CUT
10
96.6
20
12.865
0
VERTEX
8
CUT
10
98.7875
20
12.24
0
SEQEND
0
POLYLINE
8
CUT
66
1
70
0
0
VERTEX
8
CUT
10
109.1125
20
15.49
0
VERTEX
8
CUT
10
111.3
20
14.865
0
VERTEX
8
CUT
10
111.3
20
12.865
0
VERTEX
8
CUT
10
109.1125
20
12.24
0
SEQEND
0
POLYLINE
8
CUT
66
1
70
0
0
VERTEX
8
CUT
10
106.4875
20
15.49
0
VERTEX
8
CUT
10
104.3
20
14.865
0
VERTEX
8
CUT
10
104.3
20
12.865
0
VERTEX
8
CUT
10
106.4875
20
12.24
0
SEQEND
0
POLYLINE
8
CUT
66
1
70
0
0
VERTEX
8
CUT
10
116.8125
20
15.49
0
VERTEX
8
CUT
10
119
20
14.865
0
VERTEX
8
CUT
10
119
20
12.865
0
VERTEX
8
CUT
10
116.8125
20
12.24
0
SEQEND
0
POLYLINE
8
CUT
66
1
70
0
0
VERTEX
8
CUT
10
114.1875
20
15.49
0
VERTEX
8
CUT
10
112
20
14.865
0
VERTEX
8
CUT
10
112
20
12.865
0
VERTEX
8
CUT
10
114.1875
20
12.24
0
SEQEND
0
POLYLINE
8
CUT
66
1
70
0
0
VERTEX
8
CUT
10
120
20
14.9507
0
VERTEX
8
CUT
10
119.7
20
14.865
0
VERTEX
8
CUT
10
119.7
20
12.865
0
VERTEX
8
CUT
10
120
20
12.7793
0
SEQEND
0
POLYLINE
8
CUT
66
1
70
0
0
VERTEX
8
CUT
10
5.1625
20
11.881
0
VERTEX
8
CUT
10
7.35
20
11.256
0
VERTEX
8
CUT
10
7.35
20
9.256
0
VERTEX
8
CUT
10
5.1625
20
8.631
0
SEQEND
0
POLYLINE
8
CUT
66
1
70
0
0
VERTEX
8
CUT
10
2.5375
20
11.881
0
VERTEX
8
CUT
10
0.35
20
11.256
0
VERTEX
8
CUT
10
0.35
20
9.256
0
VERTEX
8
CUT
10
2.5375
20
8.631
0
SEQEND
0
POLYLINE
8
CUT
66
1
70
0
0
VERTEX
8
CUT
10
12.8625
20
11.881
0
VERTEX
8
CUT
10
15.05
20
11.256
0
VERTEX
8
CUT
10
15.05
20
9.256
0
VERTEX
8
CUT
10
12.8625
20
8.631
0
SEQEND
0
POLYLINE
8
CUT
66
1
70
0
0
VERTEX
8
CUT
10
10.2375
20
11.881
0
VERTEX
8
CUT
10
8.05
20
11.256
0
VERTEX
8
CUT
10
8.05
20
9.256
0
VERTEX
8
CUT
10
10.2375
20
8.631
0
SEQEND
0
POLYLINE
8
CUT
66
1
70
0
0
VERTEX
8
CUT
10
20.5625
20
11.881
0
VERTEX
8
CUT
10
22.75
20
11.256
0
VERTEX
8
CUT
10
22.75
20
9.256
0
VERTEX
8
CUT
10
20.5625
20
8.631
0
SEQEND
0
POLYLINE
8
CUT
66
1
70
0
0
VERTEX
8
CUT
10
17.9375
20
11.881
0
VERTEX
8
CUT
10
15.75
20
11.256
0
VERTEX
8
CUT
10
15.75
20
9.256
0
VERTEX
8
CUT
10
17.9375
20
8.631
0
SEQEND
0
POLYLINE
8
CUT
66
1
70
0
0
VERTEX
8
CUT
10
28.2625
20
11.881
0
VERTEX
8
CUT
10
30.45
20
11.256
0
VERTEX
8
CUT
10
30.45
20
9.256
0
VERTEX
8
CUT
10
28.2625
20
8.631
0
SEQEND
0
POLYLINE
8
CUT
66
1
70
0
0
VERTEX
8
CUT
10
25.6375
20
11.881
0
VERTEX
8
CUT
10
23.45
20
11.256
0
VERTEX
8
CUT
10
23.45
20
9.256
0
VERTEX
8
CUT
10
25.6375
20
8.631
0
SEQEND
0
POLYLINE
8
CUT
66
1
70
0
0
VERTEX
8
CUT
10
35.9625
20
11.881
0
VERTEX
8
CUT
10
38.15
20
11.256
0
VERTEX
8
CUT
10
38.15
20
9.256
0
VERTEX
8
CUT
10
35.9625
20
8.631
0
SEQEND
0
POLYLINE
8
CUT
66
1
70
0
0
VERTEX
8
CUT
10
33.3375
20
11.881
0
VERTEX
8
CUT
10
31.15
20
11.256
0
VERTEX
8
CUT
10
31.15
20
9.256
0
VERTEX
8
CUT
10
33.3375
20
8.631
0
SEQEND
0
POLYLINE
8
CUT
66
1
70
0
0
VERTEX
8
CUT
10
43.6625
20
11.881
0
VERTEX
8
CUT
10
45.85
20
11.256
0
VERTEX
8
CUT
10
45.85
20
9.256
0
VERTEX
8
CUT
10
43.6625
20
8.631
0
SEQEND
0
POLYLINE
8
CUT
66
1
70
0
0
VERTEX
8
CUT
10
41.0375
20
11.881
0
VERTEX
8
CUT
10
38.85
20
11.256
0
VERTEX
8
CUT
10
38.85
20
9.256
0
VERTEX
8
CUT
10
41.0375
20
8.631
0
SEQEND
0
POLYLINE
8
CUT
66
1
70
0
0
VERTEX
8
CUT
10
51.3625
20
11.881
0
VERTEX
8
CUT
10
53.55
20
11.256
0
VERTEX
8
CUT
10
53.55
20
9.256
0
VERTEX
8
CUT
10
51.3625
20
8.631
0
SEQEND
0
POLYLINE
8
CUT
66
1
70
0
0
VERTEX
8
CUT
10
48.7375
20
11.881
0
VERTEX
8
CUT
10
46.55
20
11.256
0
VERTEX
8
CUT
10
46.55
20
9.256
0
VERTEX
8
CUT
10
48.7375
20
8.631
0
SEQEND
0
POLYLINE
8
CUT
66
1
70
0
0
VERTEX
8
CUT
10
59.0625
20
11.881
0
VERTEX
8
CUT
10
61.25
20
11.256
0
VERTEX
8
CUT
10
61.25
20
9.256
0
VERTEX
8
CUT
10
59.0625
20
8.631
0
SEQEND
0
POLYLINE
8
CUT
66
1
70
0
0
VERTEX
8
CUT
10
56.4375
20
11.881
0
VERTEX
8
CUT
10
54.25
20
11.256
0
VERTEX
8
CUT
10
54.25
20
9.256
0
VERTEX
8
CUT
10
56.4375
20
8.631
0
SEQEND
0
POLYLINE
8
CUT
66
1
70
0
0
VERTEX
8
CUT
10
66.7625
20
11.881
0
VERTEX
8
CUT
10
68.95
20
11.256
0
VERTEX
8
CUT
10
68.95
20
9.256
0
VERTEX
8
CUT
10
66.7625
20
8.631
0
SEQEND
0
POLYLINE
8
CUT
66
1
70
0
0
VERTEX
8
CUT
10
64.1375
20
11.881
0
VERTEX
8
CUT
10
61.95
20
11.256
0
VERTEX
8
CUT
10
61.95
20
9.256
0
VERTEX
8
CUT
10
64.1375
20
8.631
0
SEQEND
0
POLYLINE
8
CUT
66
1
70
0
0
VERTEX
8
CUT
10
74.4625
20
11.881
0
VERTEX
8
CUT
10
76.65
20
11.256
0
VERTEX
8
CUT
10
76.65
20
9.256
0
VERTEX
8
CUT
10
74.4625
20
8.631
0
SEQEND
0
POLYLINE
8
CUT
66
1
70
0
0
VERTEX
8
CUT
10
71.8375
20
11.881
0
VERTEX
8
CUT
10
69.65
20
11.256
0
VERTEX
8
CUT
10
69.65
20
9.256
0
VERTEX
8
CUT
10
71.8375
20
8.631
0
SEQEND
0
POLYLINE
8
CUT
66
1
70
0
0
VERTEX
8
CUT
10
82.1625
20
11.881
0
VERTEX
8
CUT
10
84.35
20
11.256
0
VERTEX
8
CUT
10
84.35
20
9.256
0
VERTEX
8
CUT
10
82.1625
20
8.631
0
SEQEND
0
POLYLINE
8
CUT
66
1
70
0
0
VERTEX
8
CUT
10
79.5375
20
11.881
0
VERTEX
8
CUT
10
77.35
20
11.256
0
VERTEX
8
CUT
10
77.35
20
9.256
0
VERTEX
8
CUT
10
79.5375
20
8.631
0
SEQEND
0
POLYLINE
8
CUT
66
1
70
0
0
VERTEX
8
CUT
10
89.8625
20
11.881
0
VERTEX
8
CUT
10
92.05
20
11.256
0
VERTEX
8
CUT
10
92.05
20
9.256
0
VERTEX
8
CUT
10
89.8625
20
8.631
0
SEQEND
0
POLYLINE
8
CUT
66
1
70
0
0
VERTEX
8
CUT
10
87.2375
20
11.881
0
VERTEX
8
CUT
10
85.05
20
11.256
0
VERTEX
8
CUT
10
85.05
20
9.256
0
VERTEX
8
CUT
10
87.2375
20
8.631
0
SEQEND
0
POLYLINE
8
CUT
66
1
70
0
0
VERTEX
8
CUT
10
97.5625
20
11.881
0
VERTEX
8
CUT
10
99.75
20
11.256
0
VERTEX
8
CUT
10
99.75
20
9.256
0
VERTEX
8
CUT
10
97.5625
20
8.631
0
SEQEND
0
POLYLINE
8
CUT
66
1
70
0
0
VERTEX
8
CUT
10
94.9375
20
11.881
0
VERTEX
8
CUT
10
92.75
20
11.256
0
VERTEX
8
CUT
10
92.75
20
9.256
0
VERTEX
8
CUT
10
94.9375
20
8.631
0
SEQEND
0
POLYLINE
8
CUT
66
1
70
0
0
VERTEX
8
CUT
10
105.2625
20
11.881
0
VERTEX
8
CUT
10
107.45
20
11.256
0
VERTEX
8
CUT
10
107.45
20
9.256
0
VERTEX
8
CUT
10
105.2625
20
8.631
0
SEQEND
0
POLYLINE
8
CUT
66
1
70
0
0
VERTEX
8
CUT
10
102.6375
20
11.881
0
VERTEX
8
CUT
10
100.45
20
11.256
0
VERTEX
8
CUT
10
100.45
20
9.256
0
VERTEX
8
CUT
10
102.6375
20
8.631
0
SEQEND
0
POLYLINE
8
CUT
66
1
70
0
0
VERTEX
8
CUT
10
112.9625
20
11.881
0
VERTEX
8
CUT
10
115.15
20
11.256
0
VERTEX
8
CUT
10
115.15
20
9.256
0
VERTEX
8
CUT
10
112.9625
20
8.631
0
SEQEND
0
POLYLINE
8
CUT
66
1
70
0
0
VERTEX
8
CUT
10
110.3375
20
11.881
0
VERTEX
8
CUT
10
108.15
20
11.256
0
VERTEX
8
CUT
10
108.15
20
9.256
0
VERTEX
8
CUT
10
110.3375
20
8.631
0
SEQEND
0
POLYLINE
8
CUT
66
1
70
0
0
VERTEX
8
CUT
10
118.0375
20
11.881
0
VERTEX
8
CUT
10
115.85
20
11.256
0
VERTEX
8
CUT
10
115.85
20
9.256
0
VERTEX
8
CUT
10
118.0375
20
8.631
0
SEQEND
0
POLYLINE
8
CUT
66
1
70
0
0
VERTEX
8
CUT
10
1.3125
20
8.272
0
VERTEX
8
CUT
10
3.5
20
7.647
0
VERTEX
8
CUT
10
3.5
20
5.647
0
VERTEX
8
CUT
10
1.3125
20
5.022
0
SEQEND
0
POLYLINE
8
CUT
66
1
70
0
0
VERTEX
8
CUT
10
9.0125
20
8.272
0
VERTEX
8
CUT
10
11.2
20
7.647
0
VERTEX
8
CUT
10
11.2
20
5.647
0
VERTEX
8
CUT
10
9.0125
20
5.022
0
SEQEND
0
POLYLINE
8
CUT
66
1
70
0
0
VERTEX
8
CUT
10
6.3875
20
8.272
0
VERTEX
8
CUT
10
4.2
20
7.647
0
VERTEX
8
CUT
10
4.2
20
5.647
0
VERTEX
8
CUT
10
6.3875
20
5.022
0
SEQEND
0
POLYLINE
8
CUT
66
1
70
0
0
VERTEX
8
CUT
10
16.7125
20
8.272
0
VERTEX
8
CUT
10
18.9
20
7.647
0
VERTEX
8
CUT
10
18.9
20
5.647
0
VERTEX
8
CUT
10
16.7125
20
5.022
0
SEQEND
0
POLYLINE
8
CUT
66
1
70
0
0
VERTEX
8
CUT
10
14.0875
20
8.272
0
VERTEX
8
CUT
10
11.9
20
7.647
0
VERTEX
8
CUT
10
11.9
20
5.647
0
VERTEX
8
CUT
10
14.0875
20
5.022
0
SEQEND
0
POLYLINE
8
CUT
66
1
70
0
0
VERTEX
8
CUT
10
24.4125
20
8.272
0
VERTEX
8
CUT
10
26.6
20
7.647
0
VERTEX
8
CUT
10
26.6
20
5.647
0
VERTEX
8
CUT
10
24.4125
20
5.022
0
SEQEND
0
POLYLINE
8
CUT
66
1
70
0
0
VERTEX
8
CUT
10
21.7875
20
8.272
0
VERTEX
8
CUT
10
19.6
20
7.647
0
VERTEX
8
CUT
10
19.6
20
5.647
0
VERTEX
8
CUT
10
21.7875
20
5.022
0
SEQEND
0
POLYLINE
8
CUT
66
1
70
0
0
VERTEX
8
CUT
10
32.1125
20
8.272
0
VERTEX
8
CUT
10
34.3
20
7.647
0
VERTEX
8
CUT
10
34.3
20
5.647
0
VERTEX
8
CUT
10
32.1125
20
5.022
0
SEQEND
0
POLYLINE
8
CUT
66
1
70
0
0
VERTEX
8
CUT
10
29.4875
20
8.272
0
VERTEX
8
CUT
10
27.3
20
7.647
0
VERTEX
8
CUT
10
27.3
20
5.647
0
VERTEX
8
CUT
10
29.4875
20
5.022
0
SEQEND
0
POLYLINE
8
CUT
66
1
70
0
0
VERTEX
8
CUT
10
39.8125
20
8.272
0
VERTEX
8
CUT
10
42
20
7.647
0
VERTEX
8
CUT
10
42
20
5.647
0
VERTEX
8
CUT
10
39.8125
20
5.022
0
SEQEND
0
POLYLINE
8
CUT
66
1
70
0
0
VERTEX
8
CUT
10
37.1875
20
8.272
0
VERTEX
8
CUT
10
35
20
7.647
0
VERTEX
8
CUT
10
35
20
5.647
0
VERTEX
8
CUT
10
37.1875
20
5.022
0
SEQEND
0
POLYLINE
8
CUT
66
1
70
0
0
VERTEX
8
CUT
10
47.5125
20
8.272
0
VERTEX
8
CUT
10
49.7
20
7.647
0
VERTEX
8
CUT
10
49.7
20
5.647
0
VERTEX
8
CUT
10
47.5125
20
5.022
0
SEQEND
0
POLYLINE
8
CUT
66
1
70
0
0
VERTEX
8
CUT
10
44.8875
20
8.272
0
VERTEX
8
CUT
10
42.7
20
7.647
0
VERTEX
8
CUT
10
42.7
20
5.647
0
VERTEX
8
CUT
10
44.8875
20
5.022
0
SEQEND
0
POLYLINE
8
CUT
66
1
70
0
0
VERTEX
8
CUT
10
55.2125
20
8.272
0
VERTEX
8
CUT
10
57.4
20
7.647
0
VERTEX
8
CUT
10
57.4
20
5.647
0
VERTEX
8
CUT
10
55.2125
20
5.022
0
SEQEND
0
POLYLINE
8
CUT
66
1
70
0
0
VERTEX
8
CUT
10
52.5875
20
8.272
0
VERTEX
8
CUT
10
50.4
20
7.647
0
VERTEX
8
CUT
10
50.4
20
5.647
0
VERTEX
8
CUT
10
52.5875
20
5.022
0
SEQEND
0
POLYLINE
8
CUT
66
1
70
0
0
VERTEX
8
CUT
10
62.9125
20
8.272
0
VERTEX
8
CUT
10
65.1
20
7.647
0
VERTEX
8
CUT
10
65.1
20
5.647
0
VERTEX
8
CUT
10
62.9125
20
5.022
0
SEQEND
0
POLYLINE
8
CUT
66
1
70
0
0
VERTEX
8
CUT
10
60.2875
20
8.272
0
VERTEX
8
CUT
10
58.1
20
7.647
0
VERTEX
8
CUT
10
58.1
20
5.647
0
VERTEX
8
CUT
10
60.2875
20
5.022
0
SEQEND
0
POLYLINE
8
CUT
66
1
70
0
0
VERTEX
8
CUT
10
70.6125
20
8.272
0
VERTEX
8
CUT
10
72.8
20
7.647
0
VERTEX
8
CUT
10
72.8
20
5.647
0
VERTEX
8
CUT
10
70.6125
20
5.022
0
SEQEND
0
POLYLINE
8
CUT
66
1
70
0
0
VERTEX
8
CUT
10
67.9875
20
8.272
0
VERTEX
8
CUT
10
65.8
20
7.647
0
VERTEX
8
CUT
10
65.8
20
5.647
0
VERTEX
8
CUT
10
67.9875
20
5.022
0
SEQEND
0
POLYLINE
8
CUT
66
1
70
0
0
VERTEX
8
CUT
10
78.3125
20
8.272
0
VERTEX
8
CUT
10
80.5
20
7.647
0
VERTEX
8
CUT
10
80.5
20
5.647
0
VERTEX
8
CUT
10
78.3125
20
5.022
0
SEQEND
0
POLYLINE
8
CUT
66
1
70
0
0
VERTEX
8
CUT
10
75.6875
20
8.272
0
VERTEX
8
CUT
10
73.5
20
7.647
0
VERTEX
8
CUT
10
73.5
20
5.647
0
VERTEX
8
CUT
10
75.6875
20
5.022
0
SEQEND
0
POLYLINE
8
CUT
66
1
70
0
0
VERTEX
8
CUT
10
86.0125
20
8.272
0
VERTEX
8
CUT
10
88.2
20
7.647
0
VERTEX
8
CUT
10
88.2
20
5.647
0
VERTEX
8
CUT
10
86.0125
20
5.022
0
SEQEND
0
POLYLINE
8
CUT
66
1
70
0
0
VERTEX
8
CUT
10
83.3875
20
8.272
0
VERTEX
8
CUT
10
81.2
20
7.647
0
VERTEX
8
CUT
10
81.2
20
5.647
0
VERTEX
8
CUT
10
83.3875
20
5.022
0
SEQEND
0
POLYLINE
8
CUT
66
1
70
0
0
VERTEX
8
CUT
10
93.7125
20
8.272
0
VERTEX
8
CUT
10
95.9
20
7.647
0
VERTEX
8
CUT
10
95.9
20
5.647
0
VERTEX
8
CUT
10
93.7125
20
5.022
0
SEQEND
0
POLYLINE
8
CUT
66
1
70
0
0
VERTEX
8
CUT
10
91.0875
20
8.272
0
VERTEX
8
CUT
10
88.9
20
7.647
0
VERTEX
8
CUT
10
88.9
20
5.647
0
VERTEX
8
CUT
10
91.0875
20
5.022
0
SEQEND
0
POLYLINE
8
CUT
66
1
70
0
0
VERTEX
8
CUT
10
101.4125
20
8.272
0
VERTEX
8
CUT
10
103.6
20
7.647
0
VERTEX
8
CUT
10
103.6
20
5.647
0
VERTEX
8
CUT
10
101.4125
20
5.022
0
SEQEND
0
POLYLINE
8
CUT
66
1
70
0
0
VERTEX
8
CUT
10
98.7875
20
8.272
0
VERTEX
8
CUT
10
96.6
20
7.647
0
VERTEX
8
CUT
10
96.6
20
5.647
0
VERTEX
8
CUT
10
98.7875
20
5.022
0
SEQEND
0
POLYLINE
8
CUT
66
1
70
0
0
VERTEX
8
CUT
10
109.1125
20
8.272
0
VERTEX
8
CUT
10
111.3
20
7.647
0
VERTEX
8
CUT
10
111.3
20
5.647
0
VERTEX
8
CUT
10
109.1125
20
5.022
0
SEQEND
0
POLYLINE
8
CUT
66
1
70
0
0
VERTEX
8
CUT
10
106.4875
20
8.272
0
VERTEX
8
CUT
10
104.3
20
7.647
0
VERTEX
8
CUT
10
104.3
20
5.647
0
VERTEX
8
CUT
10
106.4875
20
5.022
0
SEQEND
0
POLYLINE
8
CUT
66
1
70
0
0
VERTEX
8
CUT
10
116.8125
20
8.272
0
VERTEX
8
CUT
10
119
20
7.647
0
VERTEX
8
CUT
10
119
20
5.647
0
VERTEX
8
CUT
10
116.8125
20
5.022
0
SEQEND
0
POLYLINE
8
CUT
66
1
70
0
0
VERTEX
8
CUT
10
114.1875
20
8.272
0
VERTEX
8
CUT
10
112
20
7.647
0
VERTEX
8
CUT
10
112
20
5.647
0
VERTEX
8
CUT
10
114.1875
20
5.022
0
SEQEND
0
POLYLINE
8
CUT
66
1
70
0
0
VERTEX
8
CUT
10
120
20
7.7327
0
VERTEX
8
CUT
10
119.7
20
7.647
0
VERTEX
8
CUT
10
119.7
20
5.647
0
VERTEX
8
CUT
10
120
20
5.5613
0
SEQEND
0
POLYLINE
8
CUT
66
1
70
0
0
VERTEX
8
CUT
10
5.1625
20
4.663
0
VERTEX
8
CUT
10
7.35
20
4.038
0
VERTEX
8
CUT
10
7.35
20
2.038
0
VERTEX
8
CUT
10
5.1625
20
1.413
0
SEQEND
0
POLYLINE
8
CUT
66
1
70
0
0
VERTEX
8
CUT
10
2.5375
20
4.663
0
VERTEX
8
CUT
10
0.35
20
4.038
0
VERTEX
8
CUT
10
0.35
20
2.038
0
VERTEX
8
CUT
10
2.5375
20
1.413
0
SEQEND
0
POLYLINE
8
CUT
66
1
70
0
0
VERTEX
8
CUT
10
12.8625
20
4.663
0
VERTEX
8
CUT
10
15.05
20
4.038
0
VERTEX
8
CUT
10
15.05
20
2.038
0
VERTEX
8
CUT
10
12.8625
20
1.413
0
SEQEND
0
POLYLINE
8
CUT
66
1
70
0
0
VERTEX
8
CUT
10
10.2375
20
4.663
0
VERTEX
8
CUT
10
8.05
20
4.038
0
VERTEX
8
CUT
10
8.05
20
2.038
0
VERTEX
8
CUT
10
10.2375
20
1.413
0
SEQEND
0
POLYLINE
8
CUT
66
1
70
0
0
VERTEX
8
CUT
10
20.5625
20
4.663
0
VERTEX
8
CUT
10
22.75
20
4.038
0
VERTEX
8
CUT
10
22.75
20
2.038
0
VERTEX
8
CUT
10
20.5625
20
1.413
0
SEQEND
0
POLYLINE
8
CUT
66
1
70
0
0
VERTEX
8
CUT
10
17.9375
20
4.663
0
VERTEX
8
CUT
10
15.75
20
4.038
0
VERTEX
8
CUT
10
15.75
20
2.038
0
VERTEX
8
CUT
10
17.9375
20
1.413
0
SEQEND
0
POLYLINE
8
CUT
66
1
70
0
0
VERTEX
8
CUT
10
28.2625
20
4.663
0
VERTEX
8
CUT
10
30.45
20
4.038
0
VERTEX
8
CUT
10
30.45
20
2.038
0
VERTEX
8
CUT
10
28.2625
20
1.413
0
SEQEND
0
POLYLINE
8
CUT
66
1
70
0
0
VERTEX
8
CUT
10
25.6375
20
4.663
0
VERTEX
8
CUT
10
23.45
20
4.038
0
VERTEX
8
CUT
10
23.45
20
2.038
0
VERTEX
8
CUT
10
25.6375
20
1.413
0
SEQEND
0
POLYLINE
8
CUT
66
1
70
0
0
VERTEX
8
CUT
10
35.9625
20
4.663
0
VERTEX
8
CUT
10
38.15
20
4.038
0
VERTEX
8
CUT
10
38.15
20
2.038
0
VERTEX
8
CUT
10
35.9625
20
1.413
0
SEQEND
0
POLYLINE
8
CUT
66
1
70
0
0
VERTEX
8
CUT
10
33.3375
20
4.663
0
VERTEX
8
CUT
10
31.15
20
4.038
0
VERTEX
8
CUT
10
31.15
20
2.038
0
VERTEX
8
CUT
10
33.3375
20
1.413
0
SEQEND
0
POLYLINE
8
CUT
66
1
70
0
0
VERTEX
8
CUT
10
43.6625
20
4.663
0
VERTEX
8
CUT
10
45.85
20
4.038
0
VERTEX
8
CUT
10
45.85
20
2.038
0
VERTEX
8
CUT
10
43.6625
20
1.413
0
SEQEND
0
POLYLINE
8
CUT
66
1
70
0
0
VERTEX
8
CUT
10
41.0375
20
4.663
0
VERTEX
8
CUT
10
38.85
20
4.038
0
VERTEX
8
CUT
10
38.85
20
2.038
0
VERTEX
8
CUT
10
41.0375
20
1.413
0
SEQEND
0
POLYLINE
8
CUT
66
1
70
0
0
VERTEX
8
CUT
10
51.3625
20
4.663
0
VERTEX
8
CUT
10
53.55
20
4.038
0
VERTEX
8
CUT
10
53.55
20
2.038
0
VERTEX
8
CUT
10
51.3625
20
1.413
0
SEQEND
0
POLYLINE
8
CUT
66
1
70
0
0
VERTEX
8
CUT
10
48.7375
20
4.663
0
VERTEX
8
CUT
10
46.55
20
4.038
0
VERTEX
8
CUT
10
46.55
20
2.038
0
VERTEX
8
CUT
10
48.7375
20
1.413
0
SEQEND
0
POLYLINE
8
CUT
66
1
70
0
0
VERTEX
8
CUT
10
59.0625
20
4.663
0
VERTEX
8
CUT
10
61.25
20
4.038
0
VERTEX
8
CUT
10
61.25
20
2.038
0
VERTEX
8
CUT
10
59.0625
20
1.413
0
SEQEND
0
POLYLINE
8
CUT
66
1
70
0
0
VERTEX
8
CUT
10
56.4375
20
4.663
0
VERTEX
8
CUT
10
54.25
20
4.038
0
VERTEX
8
CUT
10
54.25
20
2.038
0
VERTEX
8
CUT
10
56.4375
20
1.413
0
SEQEND
0
POLYLINE
8
CUT
66
1
70
0
0
VERTEX
8
CUT
10
66.7625
20
4.663
0
VERTEX
8
CUT
10
68.95
20
4.038
0
VERTEX
8
CUT
10
68.95
20
2.038
0
VERTEX
8
CUT
10
66.7625
20
1.413
0
SEQEND
0
POLYLINE
8
CUT
66
1
70
0
0
VERTEX
8
CUT
10
64.1375
20
4.663
0
VERTEX
8
CUT
10
61.95
20
4.038
0
VERTEX
8
CUT
10
61.95
20
2.038
0
VERTEX
8
CUT
10
64.1375
20
1.413
0
SEQEND
0
POLYLINE
8
CUT
66
1
70
0
0
VERTEX
8
CUT
10
74.4625
20
4.663
0
VERTEX
8
CUT
10
76.65
20
4.038
0
VERTEX
8
CUT
10
76.65
20
2.038
0
VERTEX
8
CUT
10
74.4625
20
1.413
0
SEQEND
0
POLYLINE
8
CUT
66
1
70
0
0
VERTEX
8
CUT
10
71.8375
20
4.663
0
VERTEX
8
CUT
10
69.65
20
4.038
0
VERTEX
8
CUT
10
69.65
20
2.038
0
VERTEX
8
CUT
10
71.8375
20
1.413
0
SEQEND
0
POLYLINE
8
CUT
66
1
70
0
0
VERTEX
8
CUT
10
82.1625
20
4.663
0
VERTEX
8
CUT
10
84.35
20
4.038
0
VERTEX
8
CUT
10
84.35
20
2.038
0
VERTEX
8
CUT
10
82.1625
20
1.413
0
SEQEND
0
POLYLINE
8
CUT
66
1
70
0
0
VERTEX
8
CUT
10
79.5375
20
4.663
0
VERTEX
8
CUT
10
77.35
20
4.038
0
VERTEX
8
CUT
10
77.35
20
2.038
0
VERTEX
8
CUT
10
79.5375
20
1.413
0
SEQEND
0
POLYLINE
8
CUT
66
1
70
0
0
VERTEX
8
CUT
10
89.8625
20
4.663
0
VERTEX
8
CUT
10
92.05
20
4.038
0
VERTEX
8
CUT
10
92.05
20
2.038
0
VERTEX
8
CUT
10
89.8625
20
1.413
0
SEQEND
0
POLYLINE
8
CUT
66
1
70
0
0
VERTEX
8
CUT
10
87.2375
20
4.663
0
VERTEX
8
CUT
10
85.05
20
4.038
0
VERTEX
8
CUT
10
85.05
20
2.038
0
VERTEX
8
CUT
10
87.2375
20
1.413
0
SEQEND
0
POLYLINE
8
CUT
66
1
70
0
0
VERTEX
8
CUT
10
97.5625
20
4.663
0
VERTEX
8
CUT
10
99.75
20
4.038
0
VERTEX
8
CUT
10
99.75
20
2.038
0
VERTEX
8
CUT
10
97.5625
20
1.413
0
SEQEND
0
POLYLINE
8
CUT
66
1
70
0
0
VERTEX
8
CUT
10
94.9375
20
4.663
0
VERTEX
8
CUT
10
92.75
20
4.038
0
VERTEX
8
CUT
10
92.75
20
2.038
0
VERTEX
8
CUT
10
94.9375
20
1.413
0
SEQEND
0
POLYLINE
8
CUT
66
1
70
0
0
VERTEX
8
CUT
10
105.2625
20
4.663
0
VERTEX
8
CUT
10
107.45
20
4.038
0
VERTEX
8
CUT
10
107.45
20
2.038
0
VERTEX
8
CUT
10
105.2625
20
1.413
0
SEQEND
0
POLYLINE
8
CUT
66
1
70
0
0
VERTEX
8
CUT
10
102.6375
20
4.663
0
VERTEX
8
CUT
10
100.45
20
4.038
0
VERTEX
8
CUT
10
100.45
20
2.038
0
VERTEX
8
CUT
10
102.6375
20
1.413
0
SEQEND
0
POLYLINE
8
CUT
66
1
70
0
0
VERTEX
8
CUT
10
112.9625
20
4.663
0
VERTEX
8
CUT
10
115.15
20
4.038
0
VERTEX
8
CUT
10
115.15
20
2.038
0
VERTEX
8
CUT
10
112.9625
20
1.413
0
SEQEND
0
POLYLINE
8
CUT
66
1
70
0
0
VERTEX
8
CUT
10
110.3375
20
4.663
0
VERTEX
8
CUT
10
108.15
20
4.038
0
VERTEX
8
CUT
10
108.15
20
2.038
0
VERTEX
8
CUT
10
110.3375
20
1.413
0
SEQEND
0
POLYLINE
8
CUT
66
1
70
0
0
VERTEX
8
CUT
10
118.0375
20
4.663
0
VERTEX
8
CUT
10
115.85
20
4.038
0
VERTEX
8
CUT
10
115.85
20
2.038
0
VERTEX
8
CUT
10
118.0375
20
1.413
0
SEQEND
0
POLYLINE
8
CUT
66
1
70
0
0
VERTEX
8
CUT
10
1.3125
20
1.054
0
VERTEX
8
CUT
10
3.5
20
0.429
0
VERTEX
8
CUT
10
3.5
20
0
0
SEQEND
0
POLYLINE
8
CUT
66
1
70
0
0
VERTEX
8
CUT
10
9.0125
20
1.054
0
VERTEX
8
CUT
10
11.2
20
0.429
0
VERTEX
8
CUT
10
11.2
20
0
0
SEQEND
0
POLYLINE
8
CUT
66
1
70
0
0
VERTEX
8
CUT
10
6.3875
20
1.054
0
VERTEX
8
CUT
10
4.2
20
0.429
0
VERTEX
8
CUT
10
4.2
20
0
0
SEQEND
0
POLYLINE
8
CUT
66
1
70
0
0
VERTEX
8
CUT
10
16.7125
20
1.054
0
VERTEX
8
CUT
10
18.9
20
0.429
0
VERTEX
8
CUT
10
18.9
20
0
0
SEQEND
0
POLYLINE
8
CUT
66
1
70
0
0
VERTEX
8
CUT
10
14.0875
20
1.054
0
VERTEX
8
CUT
10
11.9
20
0.429
0
VERTEX
8
CUT
10
11.9
20
0
0
SEQEND
0
POLYLINE
8
CUT
66
1
70
0
0
VERTEX
8
CUT
10
24.4125
20
1.054
0
VERTEX
8
CUT
10
26.6
20
0.429
0
VERTEX
8
CUT
10
26.6
20
0
0
SEQEND
0
POLYLINE
8
CUT
66
1
70
0
0
VERTEX
8
CUT
10
21.7875
20
1.054
0
VERTEX
8
CUT
10
19.6
20
0.429
0
VERTEX
8
CUT
10
19.6
20
0
0
SEQEND
0
POLYLINE
8
CUT
66
1
70
0
0
VERTEX
8
CUT
10
32.1125
20
1.054
0
VERTEX
8
CUT
10
34.3
20
0.429
0
VERTEX
8
CUT
10
34.3
20
0
0
SEQEND
0
POLYLINE
8
CUT
66
1
70
0
0
VERTEX
8
CUT
10
29.4875
20
1.054
0
VERTEX
8
CUT
10
27.3
20
0.429
0
VERTEX
8
CUT
10
27.3
20
0
0
SEQEND
0
POLYLINE
8
CUT
66
1
70
0
0
VERTEX
8
CUT
10
39.8125
20
1.054
0
VERTEX
8
CUT
10
42
20
0.429
0
VERTEX
8
CUT
10
42
20
0
0
SEQEND
0
POLYLINE
8
CUT
66
1
70
0
0
VERTEX
8
CUT
10
37.1875
20
1.054
0
VERTEX
8
CUT
10
35
20
0.429
0
VERTEX
8
CUT
10
35
20
0
0
SEQEND
0
POLYLINE
8
CUT
66
1
70
0
0
VERTEX
8
CUT
10
47.5125
20
1.054
0
VERTEX
8
CUT
10
49.7
20
0.429
0
VERTEX
8
CUT
10
49.7
20
0
0
SEQEND
0
POLYLINE
8
CUT
66
1
70
0
0
VERTEX
8
CUT
10
44.8875
20
1.054
0
VERTEX
8
CUT
10
42.7
20
0.429
0
VERTEX
8
CUT
10
42.7
20
0
0
SEQEND
0
POLYLINE
8
CUT
66
1
70
0
0
VERTEX
8
CUT
10
55.2125
20
1.054
0
VERTEX
8
CUT
10
57.4
20
0.429
0
VERTEX
8
CUT
10
57.4
20
0
0
SEQEND
0
POLYLINE
8
CUT
66
1
70
0
0
VERTEX
8
CUT
10
52.5875
20
1.054
0
VERTEX
8
CUT
10
50.4
20
0.429
0
VERTEX
8
CUT
10
50.4
20
0
0
SEQEND
0
POLYLINE
8
CUT
66
1
70
0
0
VERTEX
8
CUT
10
62.9125
20
1.054
0
VERTEX
8
CUT
10
65.1
20
0.429
0
VERTEX
8
CUT
10
65.1
20
0
0
SEQEND
0
POLYLINE
8
CUT
66
1
70
0
0
VERTEX
8
CUT
10
60.2875
20
1.054
0
VERTEX
8
CUT
10
58.1
20
0.429
0
VERTEX
8
CUT
10
58.1
20
0
0
SEQEND
0
POLYLINE
8
CUT
66
1
70
0
0
VERTEX
8
CUT
10
70.6125
20
1.054
0
VERTEX
8
CUT
10
72.8
20
0.429
0
VERTEX
8
CUT
10
72.8
20
0
0
SEQEND
0
POLYLINE
8
CUT
66
1
70
0
0
VERTEX
8
CUT
10
67.9875
20
1.054
0
VERTEX
8
CUT
10
65.8
20
0.429
0
VERTEX
8
CUT
10
65.8
20
0
0
SEQEND
0
POLYLINE
8
CUT
66
1
70
0
0
VERTEX
8
CUT
10
78.3125
20
1.054
0
VERTEX
8
CUT
10
80.5
20
0.429
0
VERTEX
8
CUT
10
80.5
20
0
0
SEQEND
0
POLYLINE
8
CUT
66
1
70
0
0
VERTEX
8
CUT
10
75.6875
20
1.054
0
VERTEX
8
CUT
10
73.5
20
0.429
0
VERTEX
8
CUT
10
73.5
20
0
0
SEQEND
0
POLYLINE
8
CUT
66
1
70
0
0
VERTEX
8
CUT
10
86.0125
20
1.054
0
VERTEX
8
CUT
10
88.2
20
0.429
0
VERTEX
8
CUT
10
88.2
20
0
0
SEQEND
0
POLYLINE
8
CUT
66
1
70
0
0
VERTEX
8
CUT
10
83.3875
20
1.054
0
VERTEX
8
CUT
10
81.2
20
0.429
0
VERTEX
8
CUT
10
81.2
20
0
0
SEQEND
0
POLYLINE
8
CUT
66
1
70
0
0
VERTEX
8
CUT
10
93.7125
20
1.054
0
VERTEX
8
CUT
10
95.9
20
0.429
0
VERTEX
8
CUT
10
95.9
20
0
0
SEQEND
0
POLYLINE
8
CUT
66
1
70
0
0
VERTEX
8
CUT
10
91.0875
20
1.054
0
VERTEX
8
CUT
10
88.9
20
0.429
0
VERTEX
8
CUT
10
88.9
20
0
0
SEQEND
0
POLYLINE
8
CUT
66
1
70
0
0
VERTEX
8
CUT
10
101.4125
20
1.054
0
VERTEX
8
CUT
10
103.6
20
0.429
0
VERTEX
8
CUT
10
103.6
20
0
0
SEQEND
0
POLYLINE
8
CUT
66
1
70
0
0
VERTEX
8
CUT
10
98.7875
20
1.054
0
VERTEX
8
CUT
10
96.6
20
0.429
0
VERTEX
8
CUT
10
96.6
20
0
0
SEQEND
0
POLYLINE
8
CUT
66
1
70
0
0
VERTEX
8
CUT
10
109.1125
20
1.054
0
VERTEX
8
CUT
10
111.3
20
0.429
0
VERTEX
8
CUT
10
111.3
20
0
0
SEQEND
0
POLYLINE
8
CUT
66
1
70
0
0
VERTEX
8
CUT
10
106.4875
20
1.054
0
VERTEX
8
CUT
10
104.3
20
0.429
0
VERTEX
8
CUT
10
104.3
20
0
0
SEQEND
0
POLYLINE
8
CUT
66
1
70
0
0
VERTEX
8
CUT
10
116.8125
20
1.054
0
VERTEX
8
CUT
10
119
20
0.429
0
VERTEX
8
CUT
10
119
20
0
0
SEQEND
0
POLYLINE
8
CUT
66
1
70
0
0
VERTEX
8
CUT
10
114.1875
20
1.054
0
VERTEX
8
CUT
10
112
20
0.429
0
VERTEX
8
CUT
10
112
20
0
0
SEQEND
0
POLYLINE
8
CUT
66
1
70
0
0
VERTEX
8
CUT
10
120
20
0.5147
0
VERTEX
8
CUT
10
119.7
20
0.429
0
VERTEX
8
CUT
10
119.7
20
0
0
SEQEND
0
POLYLINE
8
CUT
66
1
70
0
0
VERTEX
8
CUT
10
0
20
70
0
VERTEX
8
CUT
10
120
20
70
0
VERTEX
8
CUT
10
120
20
0
0
VERTEX
8
CUT
10
0
20
0
0
VERTEX
8
CUT
10
0
20
70
0
SEQEND
0
ENDSEC
0
EOF
