0
SECTION
2
HEADER
9
$ACADVER
1
AC1009
9
$INSUNITS
70
4
0
ENDSEC
0
SECTION
2
TABLES
0
TABLE
2
LAYER
70
1
0
LAYER
2
CUT
70
0
62
1
6
CONTINUOUS
0
ENDTAB
0
ENDSEC
0
SECTION
2
ENTITIES
0
POLYLINE
8
CUT
66
1
70
0
0
VERTEX
8
CUT
10
5
20
70
0
VERTEX
8
CUT
10
5
20
70
0
VERTEX
8
CUT
10
4.9592
20
68.5714
0
VERTEX
8
CUT
10
4.8367
20
67.1429
0
VERTEX
8
CUT
10
4.6327
20
65.7143
0
VERTEX
8
CUT
10
4.3469
20
64.2857
0
VERTEX
8
CUT
10
3.9796
20
62.8571
0
VERTEX
8
CUT
10
3.5306
20
61.4286
0
VERTEX
8
CUT
10
3
20
60
0
SEQEND
0
POLYLINE
8
CUT
66
1
70
0
0
VERTEX
8
CUT
10
3
20
58
0
VERTEX
8
CUT
10
3.5306
20
56.5714
0
VERTEX
8
CUT
10
3.9796
20
55.1429
0
VERTEX
8
CUT
10
4.3469
20
53.7143
0
VERTEX
8
CUT
10
4.6327
20
52.2857
0
VERTEX
8
CUT
10
4.8367
20
50.8571
0
VERTEX
8
CUT
10
4.9592
20
49.4286
0
VERTEX
8
CUT
10
5
20
48
0
VERTEX
8
CUT
10
4.9592
20
46.5714
0
VERTEX
8
CUT
10
4.8367
20
45.1429
0
VERTEX
8
CUT
10
4.6327
20
43.7143
0
VERTEX
8
CUT
10
4.3469
20
42.2857
0
VERTEX
8
CUT
10
3.9796
20
40.8571
0
VERTEX
8
CUT
10
3.5306
20
39.4286
0
VERTEX
8
CUT
10
3
20
38
0
SEQEND
0
POLYLINE
8
CUT
66
1
70
0
0
VERTEX
8
CUT
10
3
20
36
0
VERTEX
8
CUT
10
3.5306
20
34.5714
0
VERTEX
8
CUT
10
3.9796
20
33.1429
0
VERTEX
8
CUT
10
4.3469
20
31.7143
0
VERTEX
8
CUT
10
4.6327
20
30.2857
0
VERTEX
8
CUT
10
4.8367
20
28.8571
0
VERTEX
8
CUT
10
4.9592
20
27.4286
0
VERTEX
8
CUT
10
5
20
26
0
VERTEX
8
CUT
10
4.9592
20
24.5714
0
VERTEX
8
CUT
10
4.8367
20
23.1429
0
VERTEX
8
CUT
10
4.6327
20
21.7143
0
VERTEX
8
CUT
10
4.3469
20
20.2857
0
VERTEX
8
CUT
10
3.9796
20
18.8571
0
VERTEX
8
CUT
10
3.5306
20
17.4286
0
VERTEX
8
CUT
10
3
20
16
0
SEQEND
0
POLYLINE
8
CUT
66
1
70
0
0
VERTEX
8
CUT
10
3
20
14
0
VERTEX
8
CUT
10
3.5306
20
12.5714
0
VERTEX
8
CUT
10
3.9796
20
11.1429
0
VERTEX
8
CUT
10
4.3469
20
9.7143
0
VERTEX
8
CUT
10
4.6327
20
8.2857
0
VERTEX
8
CUT
10
4.8367
20
6.8571
0
VERTEX
8
CUT
10
4.9592
20
5.4286
0
VERTEX
8
CUT
10
5
20
4
0
VERTEX
8
CUT
10
4.9592
20
2.5714
0
VERTEX
8
CUT
10
4.8367
20
1.1429
0
VERTEX
8
CUT
10
4.6735
20
0
0
SEQEND
0
POLYLINE
8
CUT
66
1
70
0
0
VERTEX
8
CUT
10
9
20
69
0
VERTEX
8
CUT
10
8.4694
20
67.5714
0
VERTEX
8
CUT
10
8.0204
20
66.1429
0
VERTEX
8
CUT
10
7.6531
20
64.7143
0
VERTEX
8
CUT
10
7.3673
20
63.2857
0
VERTEX
8
CUT
10
7.1633
20
61.8571
0
VERTEX
8
CUT
10
7.0408
20
60.4286
0
VERTEX
8
CUT
10
7
20
59
0
VERTEX
8
CUT
10
7.0408
20
57.5714
0
VERTEX
8
CUT
10
7.1633
20
56.1429
0
VERTEX
8
CUT
10
7.3673
20
54.7143
0
VERTEX
8
CUT
10
7.6531
20
53.2857
0
VERTEX
8
CUT
10
8.0204
20
51.8571
0
VERTEX
8
CUT
10
8.4694
20
50.4286
0
VERTEX
8
CUT
10
9
20
49
0
SEQEND
0
POLYLINE
8
CUT
66
1
70
0
0
VERTEX
8
CUT
10
9
20
47
0
VERTEX
8
CUT
10
8.4694
20
45.5714
0
VERTEX
8
CUT
10
8.0204
20
44.1429
0
VERTEX
8
CUT
10
7.6531
20
42.7143
0
VERTEX
8
CUT
10
7.3673
20
41.2857
0
VERTEX
8
CUT
10
7.1633
20
39.8571
0
VERTEX
8
CUT
10
7.0408
20
38.4286
0
VERTEX
8
CUT
10
7
20
37
0
VERTEX
8
CUT
10
7.0408
20
35.5714
0
VERTEX
8
CUT
10
7.1633
20
34.1429
0
VERTEX
8
CUT
10
7.3673
20
32.7143
0
VERTEX
8
CUT
10
7.6531
20
31.2857
0
VERTEX
8
CUT
10
8.0204
20
29.8571
0
VERTEX
8
CUT
10
8.4694
20
28.4286
0
VERTEX
8
CUT
10
9
20
27
0
SEQEND
0
POLYLINE
8
CUT
66
1
70
0
0
VERTEX
8
CUT
10
9
20
25
0
VERTEX
8
CUT
10
8.4694
20
23.5714
0
VERTEX
8
CUT
10
8.0204
20
22.1429
0
VERTEX
8
CUT
10
7.6531
20
20.7143
0
VERTEX
8
CUT
10
7.3673
20
19.2857
0
VERTEX
8
CUT
10
7.1633
20
17.8571
0
VERTEX
8
CUT
10
7.0408
20
16.4286
0
VERTEX
8
CUT
10
7
20
15
0
VERTEX
8
CUT
10
7.0408
20
13.5714
0
VERTEX
8
CUT
10
7.1633
20
12.1429
0
VERTEX
8
CUT
10
7.3673
20
10.7143
0
VERTEX
8
CUT
10
7.6531
20
9.2857
0
VERTEX
8
CUT
10
8.0204
20
7.8571
0
VERTEX
8
CUT
10
8.4694
20
6.4286
0
VERTEX
8
CUT
10
9
20
5
0
SEQEND
0
POLYLINE
8
CUT
66
1
70
0
0
VERTEX
8
CUT
10
9
20
3
0
VERTEX
8
CUT
10
8.4694
20
1.5714
0
VERTEX
8
CUT
10
8.0204
20
0.1429
0
VERTEX
8
CUT
10
7.9837
20
0
0
SEQEND
0
POLYLINE
8
CUT
66
1
70
0
0
VERTEX
8
CUT
10
17
20
70
0
VERTEX
8
CUT
10
17
20
70
0
VERTEX
8
CUT
10
16.9592
20
68.5714
0
VERTEX
8
CUT
10
16.8367
20
67.1429
0
VERTEX
8
CUT
10
16.6327
20
65.7143
0
VERTEX
8
CUT
10
16.3469
20
64.2857
0
VERTEX
8
CUT
10
15.9796
20
62.8571
0
VERTEX
8
CUT
10
15.5306
20
61.4286
0
VERTEX
8
CUT
10
15
20
60
0
SEQEND
0
POLYLINE
8
CUT
66
1
70
0
0
VERTEX
8
CUT
10
15
20
58
0
VERTEX
8
CUT
10
15.5306
20
56.5714
0
VERTEX
8
CUT
10
15.9796
20
55.1429
0
VERTEX
8
CUT
10
16.3469
20
53.7143
0
VERTEX
8
CUT
10
16.6327
20
52.2857
0
VERTEX
8
CUT
10
16.8367
20
50.8571
0
VERTEX
8
CUT
10
16.9592
20
49.4286
0
VERTEX
8
CUT
10
17
20
48
0
VERTEX
8
CUT
10
16.9592
20
46.5714
0
VERTEX
8
CUT
10
16.8367
20
45.1429
0
VERTEX
8
CUT
10
16.6327
20
43.7143
0
VERTEX
8
CUT
10
16.3469
20
42.2857
0
VERTEX
8
CUT
10
15.9796
20
40.8571
0
VERTEX
8
CUT
10
15.5306
20
39.4286
0
VERTEX
8
CUT
10
15
20
38
0
SEQEND
0
POLYLINE
8
CUT
66
1
70
0
0
VERTEX
8
CUT
10
15
20
36
0
VERTEX
8
CUT
10
15.5306
20
34.5714
0
VERTEX
8
CUT
10
15.9796
20
33.1429
0
VERTEX
8
CUT
10
16.3469
20
31.7143
0
VERTEX
8
CUT
10
16.6327
20
30.2857
0
VERTEX
8
CUT
10
16.8367
20
28.8571
0
VERTEX
8
CUT
10
16.9592
20
27.4286
0
VERTEX
8
CUT
10
17
20
26
0
VERTEX
8
CUT
10
16.9592
20
24.5714
0
VERTEX
8
CUT
10
16.8367
20
23.1429
0
VERTEX
8
CUT
10
16.6327
20
21.7143
0
VERTEX
8
CUT
10
16.3469
20
20.2857
0
VERTEX
8
CUT
10
15.9796
20
18.8571
0
VERTEX
8
CUT
10
15.5306
20
17.4286
0
VERTEX
8
CUT
10
15
20
16
0
SEQEND
0
POLYLINE
8
CUT
66
1
70
0
0
VERTEX
8
CUT
10
15
20
14
0
VERTEX
8
CUT
10
15.5306
20
12.5714
0
VERTEX
8
CUT
10
15.9796
20
11.1429
0
VERTEX
8
CUT
10
16.3469
20
9.7143
0
VERTEX
8
CUT
10
16.6327
20
8.2857
0
VERTEX
8
CUT
10
16.8367
20
6.8571
0
VERTEX
8
CUT
10
16.9592
20
5.4286
0
VERTEX
8
CUT
10
17
20
4
0
VERTEX
8
CUT
10
16.9592
20
2.5714
0
VERTEX
8
CUT
10
16.8367
20
1.1429
0
VERTEX
8
CUT
10
16.6735
20
0
0
SEQEND
0
POLYLINE
8
CUT
66
1
70
0
0
VERTEX
8
CUT
10
21
20
69
0
VERTEX
8
CUT
10
20.4694
20
67.5714
0
VERTEX
8
CUT
10
20.0204
20
66.1429
0
VERTEX
8
CUT
10
19.6531
20
64.7143
0
VERTEX
8
CUT
10
19.3673
20
63.2857
0
VERTEX
8
CUT
10
19.1633
20
61.8571
0
VERTEX
8
CUT
10
19.0408
20
60.4286
0
VERTEX
8
CUT
10
19
20
59
0
VERTEX
8
CUT
10
19.0408
20
57.5714
0
VERTEX
8
CUT
10
19.1633
20
56.1429
0
VERTEX
8
CUT
10
19.3673
20
54.7143
0
VERTEX
8
CUT
10
19.6531
20
53.2857
0
VERTEX
8
CUT
10
20.0204
20
51.8571
0
VERTEX
8
CUT
10
20.4694
20
50.4286
0
VERTEX
8
CUT
10
21
20
49
0
SEQEND
0
POLYLINE
8
CUT
66
1
70
0
0
VERTEX
8
CUT
10
21
20
47
0
VERTEX
8
CUT
10
20.4694
20
45.5714
0
VERTEX
8
CUT
10
20.0204
20
44.1429
0
VERTEX
8
CUT
10
19.6531
20
42.7143
0
VERTEX
8
CUT
10
19.3673
20
41.2857
0
VERTEX
8
CUT
10
19.1633
20
39.8571
0
VERTEX
8
CUT
10
19.0408
20
38.4286
0
VERTEX
8
CUT
10
19
20
37
0
VERTEX
8
CUT
10
19.0408
20
35.5714
0
VERTEX
8
CUT
10
19.1633
20
34.1429
0
VERTEX
8
CUT
10
19.3673
20
32.7143
0
VERTEX
8
CUT
10
19.6531
20
31.2857
0
VERTEX
8
CUT
10
20.0204
20
29.8571
0
VERTEX
8
CUT
10
20.4694
20
28.4286
0
VERTEX
8
CUT
10
21
20
27
0
SEQEND
0
POLYLINE
8
CUT
66
1
70
0
0
VERTEX
8
CUT
10
21
20
25
0
VERTEX
8
CUT
10
20.4694
20
23.5714
0
VERTEX
8
CUT
10
20.0204
20
22.1429
0
VERTEX
8
CUT
10
19.6531
20
20.7143
0
VERTEX
8
CUT
10
19.3673
20
19.2857
0
VERTEX
8
CUT
10
19.1633
20
17.8571
0
VERTEX
8
CUT
10
19.0408
20
16.4286
0
VERTEX
8
CUT
10
19
20
15
0
VERTEX
8
CUT
10
19.0408
20
13.5714
0
VERTEX
8
CUT
10
19.1633
20
12.1429
0
VERTEX
8
CUT
10
19.3673
20
10.7143
0
VERTEX
8
CUT
10
19.6531
20
9.2857
0
VERTEX
8
CUT
10
20.0204
20
7.8571
0
VERTEX
8
CUT
10
20.4694
20
6.4286
0
VERTEX
8
CUT
10
21
20
5
0
SEQEND
0
POLYLINE
8
CUT
66
1
70
0
0
VERTEX
8
CUT
10
21
20
3
0
VERTEX
8
CUT
10
20.4694
20
1.5714
0
VERTEX
8
CUT
10
20.0204
20
0.1429
0
VERTEX
8
CUT
10
19.9837
20
0
0
SEQEND
0
POLYLINE
8
CUT
66
1
70
0
0
VERTEX
8
CUT
10
29
20
70
0
VERTEX
8
CUT
10
29
20
70
0
VERTEX
8
CUT
10
28.9592
20
68.5714
0
VERTEX
8
CUT
10
28.8367
20
67.1429
0
VERTEX
8
CUT
10
28.6327
20
65.7143
0
VERTEX
8
CUT
10
28.3469
20
64.2857
0
VERTEX
8
CUT
10
27.9796
20
62.8571
0
VERTEX
8
CUT
10
27.5306
20
61.4286
0
VERTEX
8
CUT
10
27
20
60
0
SEQEND
0
POLYLINE
8
CUT
66
1
70
0
0
VERTEX
8
CUT
10
27
20
58
0
VERTEX
8
CUT
10
27.5306
20
56.5714
0
VERTEX
8
CUT
10
27.9796
20
55.1429
0
VERTEX
8
CUT
10
28.3469
20
53.7143
0
VERTEX
8
CUT
10
28.6327
20
52.2857
0
VERTEX
8
CUT
10
28.8367
20
50.8571
0
VERTEX
8
CUT
10
28.9592
20
49.4286
0
VERTEX
8
CUT
10
29
20
48
0
VERTEX
8
CUT
10
28.9592
20
46.5714
0
VERTEX
8
CUT
10
28.8367
20
45.1429
0
VERTEX
8
CUT
10
28.6327
20
43.7143
0
VERTEX
8
CUT
10
28.3469
20
42.2857
0
VERTEX
8
CUT
10
27.9796
20
40.8571
0
VERTEX
8
CUT
10
27.5306
20
39.4286
0
VERTEX
8
CUT
10
27
20
38
0
SEQEND
0
POLYLINE
8
CUT
66
1
70
0
0
VERTEX
8
CUT
10
27
20
36
0
VERTEX
8
CUT
10
27.5306
20
34.5714
0
VERTEX
8
CUT
10
27.9796
20
33.1429
0
VERTEX
8
CUT
10
28.3469
20
31.7143
0
VERTEX
8
CUT
10
28.6327
20
30.2857
0
VERTEX
8
CUT
10
28.8367
20
28.8571
0
VERTEX
8
CUT
10
28.9592
20
27.4286
0
VERTEX
8
CUT
10
29
20
26
0
VERTEX
8
CUT
10
28.9592
20
24.5714
0
VERTEX
8
CUT
10
28.8367
20
23.1429
0
VERTEX
8
CUT
10
28.6327
20
21.7143
0
VERTEX
8
CUT
10
28.3469
20
20.2857
0
VERTEX
8
CUT
10
27.9796
20
18.8571
0
VERTEX
8
CUT
10
27.5306
20
17.4286
0
VERTEX
8
CUT
10
27
20
16
0
SEQEND
0
POLYLINE
8
CUT
66
1
70
0
0
VERTEX
8
CUT
10
27
20
14
0
VERTEX
8
CUT
10
27.5306
20
12.5714
0
VERTEX
8
CUT
10
27.9796
20
11.1429
0
VERTEX
8
CUT
10
28.3469
20
9.7143
0
VERTEX
8
CUT
10
28.6327
20
8.2857
0
VERTEX
8
CUT
10
28.8367
20
6.8571
0
VERTEX
8
CUT
10
28.9592
20
5.4286
0
VERTEX
8
CUT
10
29
20
4
0
VERTEX
8
CUT
10
28.9592
20
2.5714
0
VERTEX
8
CUT
10
28.8367
20
1.1429
0
VERTEX
8
CUT
10
28.6735
20
0
0
SEQEND
0
POLYLINE
8
CUT
66
1
70
0
0
VERTEX
8
CUT
10
33
20
69
0
VERTEX
8
CUT
10
32.4694
20
67.5714
0
VERTEX
8
CUT
10
32.0204
20
66.1429
0
VERTEX
8
CUT
10
31.6531
20
64.7143
0
VERTEX
8
CUT
10
31.3673
20
63.2857
0
VERTEX
8
CUT
10
31.1633
20
61.8571
0
VERTEX
8
CUT
10
31.0408
20
60.4286
0
VERTEX
8
CUT
10
31
20
59
0
VERTEX
8
CUT
10
31.0408
20
57.5714
0
VERTEX
8
CUT
10
31.1633
20
56.1429
0
VERTEX
8
CUT
10
31.3673
20
54.7143
0
VERTEX
8
CUT
10
31.6531
20
53.2857
0
VERTEX
8
CUT
10
32.0204
20
51.8571
0
VERTEX
8
CUT
10
32.4694
20
50.4286
0
VERTEX
8
CUT
10
33
20
49
0
SEQEND
0
POLYLINE
8
CUT
66
1
70
0
0
VERTEX
8
CUT
10
33
20
47
0
VERTEX
8
CUT
10
32.4694
20
45.5714
0
VERTEX
8
CUT
10
32.0204
20
44.1429
0
VERTEX
8
CUT
10
31.6531
20
42.7143
0
VERTEX
8
CUT
10
31.3673
20
41.2857
0
VERTEX
8
CUT
10
31.1633
20
39.8571
0
VERTEX
8
CUT
10
31.0408
20
38.4286
0
VERTEX
8
CUT
10
31
20
37
0
VERTEX
8
CUT
10
31.0408
20
35.5714
0
VERTEX
8
CUT
10
31.1633
20
34.1429
0
VERTEX
8
CUT
10
31.3673
20
32.7143
0
VERTEX
8
CUT
10
31.6531
20
31.2857
0
VERTEX
8
CUT
10
32.0204
20
29.8571
0
VERTEX
8
CUT
10
32.4694
20
28.4286
0
VERTEX
8
CUT
10
33
20
27
0
SEQEND
0
POLYLINE
8
CUT
66
1
70
0
0
VERTEX
8
CUT
10
33
20
25
0
VERTEX
8
CUT
10
32.4694
20
23.5714
0
VERTEX
8
CUT
10
32.0204
20
22.1429
0
VERTEX
8
CUT
10
31.6531
20
20.7143
0
VERTEX
8
CUT
10
31.3673
20
19.2857
0
VERTEX
8
CUT
10
31.1633
20
17.8571
0
VERTEX
8
CUT
10
31.0408
20
16.4286
0
VERTEX
8
CUT
10
31
20
15
0
VERTEX
8
CUT
10
31.0408
20
13.5714
0
VERTEX
8
CUT
10
31.1633
20
12.1429
0
VERTEX
8
CUT
10
31.3673
20
10.7143
0
VERTEX
8
CUT
10
31.6531
20
9.2857
0
VERTEX
8
CUT
10
32.0204
20
7.8571
0
VERTEX
8
CUT
10
32.4694
20
6.4286
0
VERTEX
8
CUT
10
33
20
5
0
SEQEND
0
POLYLINE
8
CUT
66
1
70
0
0
VERTEX
8
CUT
10
33
20
3
0
VERTEX
8
CUT
10
32.4694
20
1.5714
0
VERTEX
8
CUT
10
32.0204
20
0.1429
0
VERTEX
8
CUT
10
31.9837
20
0
0
SEQEND
0
POLYLINE
8
CUT
66
1
70
0
0
VERTEX
8
CUT
10
41
20
70
0
VERTEX
8
CUT
10
41
20
70
0
VERTEX
8
CUT
10
40.9592
20
68.5714
0
VERTEX
8
CUT
10
40.8367
20
67.1429
0
VERTEX
8
CUT
10
40.6327
20
65.7143
0
VERTEX
8
CUT
10
40.3469
20
64.2857
0
VERTEX
8
CUT
10
39.9796
20
62.8571
0
VERTEX
8
CUT
10
39.5306
20
61.4286
0
VERTEX
8
CUT
10
39
20
60
0
SEQEND
0
POLYLINE
8
CUT
66
1
70
0
0
VERTEX
8
CUT
10
39
20
58
0
VERTEX
8
CUT
10
39.5306
20
56.5714
0
VERTEX
8
CUT
10
39.9796
20
55.1429
0
VERTEX
8
CUT
10
40.3469
20
53.7143
0
VERTEX
8
CUT
10
40.6327
20
52.2857
0
VERTEX
8
CUT
10
40.8367
20
50.8571
0
VERTEX
8
CUT
10
40.9592
20
49.4286
0
VERTEX
8
CUT
10
41
20
48
0
VERTEX
8
CUT
10
40.9592
20
46.5714
0
VERTEX
8
CUT
10
40.8367
20
45.1429
0
VERTEX
8
CUT
10
40.6327
20
43.7143
0
VERTEX
8
CUT
10
40.3469
20
42.2857
0
VERTEX
8
CUT
10
39.9796
20
40.8571
0
VERTEX
8
CUT
10
39.5306
20
39.4286
0
VERTEX
8
CUT
10
39
20
38
0
SEQEND
0
POLYLINE
8
CUT
66
1
70
0
0
VERTEX
8
CUT
10
39
20
36
0
VERTEX
8
CUT
10
39.5306
20
34.5714
0
VERTEX
8
CUT
10
39.9796
20
33.1429
0
VERTEX
8
CUT
10
40.3469
20
31.7143
0
VERTEX
8
CUT
10
40.6327
20
30.2857
0
VERTEX
8
CUT
10
40.8367
20
28.8571
0
VERTEX
8
CUT
10
40.9592
20
27.4286
0
VERTEX
8
CUT
10
41
20
26
0
VERTEX
8
CUT
10
40.9592
20
24.5714
0
VERTEX
8
CUT
10
40.8367
20
23.1429
0
VERTEX
8
CUT
10
40.6327
20
21.7143
0
VERTEX
8
CUT
10
40.3469
20
20.2857
0
VERTEX
8
CUT
10
39.9796
20
18.8571
0
VERTEX
8
CUT
10
39.5306
20
17.4286
0
VERTEX
8
CUT
10
39
20
16
0
SEQEND
0
POLYLINE
8
CUT
66
1
70
0
0
VERTEX
8
CUT
10
39
20
14
0
VERTEX
8
CUT
10
39.5306
20
12.5714
0
VERTEX
8
CUT
10
39.9796
20
11.1429
0
VERTEX
8
CUT
10
40.3469
20
9.7143
0
VERTEX
8
CUT
10
40.6327
20
8.2857
0
VERTEX
8
CUT
10
40.8367
20
6.8571
0
VERTEX
8
CUT
10
40.9592
20
5.4286
0
VERTEX
8
CUT
10
41
20
4
0
VERTEX
8
CUT
10
40.9592
20
2.5714
0
VERTEX
8
CUT
10
40.8367
20
1.1429
0
VERTEX
8
CUT
10
40.6735
20
0
0
SEQEND
0
POLYLINE
8
CUT
66
1
70
0
0
VERTEX
8
CUT
10
45
20
69
0
VERTEX
8
CUT
10
44.4694
20
67.5714
0
VERTEX
8
CUT
10
44.0204
20
66.1429
0
VERTEX
8
CUT
10
43.6531
20
64.7143
0
VERTEX
8
CUT
10
43.3673
20
63.2857
0
VERTEX
8
CUT
10
43.1633
20
61.8571
0
VERTEX
8
CUT
10
43.0408
20
60.4286
0
VERTEX
8
CUT
10
43
20
59
0
VERTEX
8
CUT
10
43.0408
20
57.5714
0
VERTEX
8
CUT
10
43.1633
20
56.1429
0
VERTEX
8
CUT
10
43.3673
20
54.7143
0
VERTEX
8
CUT
10
43.6531
20
53.2857
0
VERTEX
8
CUT
10
44.0204
20
51.8571
0
VERTEX
8
CUT
10
44.4694
20
50.4286
0
VERTEX
8
CUT
10
45
20
49
0
SEQEND
0
POLYLINE
8
CUT
66
1
70
0
0
VERTEX
8
CUT
10
45
20
47
0
VERTEX
8
CUT
10
44.4694
20
45.5714
0
VERTEX
8
CUT
10
44.0204
20
44.1429
0
VERTEX
8
CUT
10
43.6531
20
42.7143
0
VERTEX
8
CUT
10
43.3673
20
41.2857
0
VERTEX
8
CUT
10
43.1633
20
39.8571
0
VERTEX
8
CUT
10
43.0408
20
38.4286
0
VERTEX
8
CUT
10
43
20
37
0
VERTEX
8
CUT
10
43.0408
20
35.5714
0
VERTEX
8
CUT
10
43.1633
20
34.1429
0
VERTEX
8
CUT
10
43.3673
20
32.7143
0
VERTEX
8
CUT
10
43.6531
20
31.2857
0
VERTEX
8
CUT
10
44.0204
20
29.8571
0
VERTEX
8
CUT
10
44.4694
20
28.4286
0
VERTEX
8
CUT
10
45
20
27
0
SEQEND
0
POLYLINE
8
CUT
66
1
70
0
0
VERTEX
8
CUT
10
45
20
25
0
VERTEX
8
CUT
10
44.4694
20
23.5714
0
VERTEX
8
CUT
10
44.0204
20
22.1429
0
VERTEX
8
CUT
10
43.6531
20
20.7143
0
VERTEX
8
CUT
10
43.3673
20
19.2857
0
VERTEX
8
CUT
10
43.1633
20
17.8571
0
VERTEX
8
CUT
10
43.0408
20
16.4286
0
VERTEX
8
CUT
10
43
20
15
0
VERTEX
8
CUT
10
43.0408
20
13.5714
0
VERTEX
8
CUT
10
43.1633
20
12.1429
0
VERTEX
8
CUT
10
43.3673
20
10.7143
0
VERTEX
8
CUT
10
43.6531
20
9.2857
0
VERTEX
8
CUT
10
44.0204
20
7.8571
0
VERTEX
8
CUT
10
44.4694
20
6.4286
0
VERTEX
8
CUT
10
45
20
5
0
SEQEND
0
POLYLINE
8
CUT
66
1
70
0
0
VERTEX
8
CUT
10
45
20
3
0
VERTEX
8
CUT
10
44.4694
20
1.5714
0
VERTEX
8
CUT
10
44.0204
20
0.1429
0
VERTEX
8
CUT
10
43.9837
20
0
0
SEQEND
0
POLYLINE
8
CUT
66
1
70
0
0
VERTEX
8
CUT
10
53
20
70
0
VERTEX
8
CUT
10
53
20
70
0
VERTEX
8
CUT
10
52.9592
20
68.5714
0
VERTEX
8
CUT
10
52.8367
20
67.1429
0
VERTEX
8
CUT
10
52.6327
20
65.7143
0
VERTEX
8
CUT
10
52.3469
20
64.2857
0
VERTEX
8
CUT
10
51.9796
20
62.8571
0
VERTEX
8
CUT
10
51.5306
20
61.4286
0
VERTEX
8
CUT
10
51
20
60
0
SEQEND
0
POLYLINE
8
CUT
66
1
70
0
0
VERTEX
8
CUT
10
51
20
58
0
VERTEX
8
CUT
10
51.5306
20
56.5714
0
VERTEX
8
CUT
10
51.9796
20
55.1429
0
VERTEX
8
CUT
10
52.3469
20
53.7143
0
VERTEX
8
CUT
10
52.6327
20
52.2857
0
VERTEX
8
CUT
10
52.8367
20
50.8571
0
VERTEX
8
CUT
10
52.9592
20
49.4286
0
VERTEX
8
CUT
10
53
20
48
0
VERTEX
8
CUT
10
52.9592
20
46.5714
0
VERTEX
8
CUT
10
52.8367
20
45.1429
0
VERTEX
8
CUT
10
52.6327
20
43.7143
0
VERTEX
8
CUT
10
52.3469
20
42.2857
0
VERTEX
8
CUT
10
51.9796
20
40.8571
0
VERTEX
8
CUT
10
51.5306
20
39.4286
0
VERTEX
8
CUT
10
51
20
38
0
SEQEND
0
POLYLINE
8
CUT
66
1
70
0
0
VERTEX
8
CUT
10
51
20
36
0
VERTEX
8
CUT
10
51.5306
20
34.5714
0
VERTEX
8
CUT
10
51.9796
20
33.1429
0
VERTEX
8
CUT
10
52.3469
20
31.7143
0
VERTEX
8
CUT
10
52.6327
20
30.2857
0
VERTEX
8
CUT
10
52.8367
20
28.8571
0
VERTEX
8
CUT
10
52.9592
20
27.4286
0
VERTEX
8
CUT
10
53
20
26
0
VERTEX
8
CUT
10
52.9592
20
24.5714
0
VERTEX
8
CUT
10
52.8367
20
23.1429
0
VERTEX
8
CUT
10
52.6327
20
21.7143
0
VERTEX
8
CUT
10
52.3469
20
20.2857
0
VERTEX
8
CUT
10
51.9796
20
18.8571
0
VERTEX
8
CUT
10
51.5306
20
17.4286
0
VERTEX
8
CUT
10
51
20
16
0
SEQEND
0
POLYLINE
8
CUT
66
1
70
0
0
VERTEX
8
CUT
10
51
20
14
0
VERTEX
8
CUT
10
51.5306
20
12.5714
0
VERTEX
8
CUT
10
51.9796
20
11.1429
0
VERTEX
8
CUT
10
52.3469
20
9.7143
0
VERTEX
8
CUT
10
52.6327
20
8.2857
0
VERTEX
8
CUT
10
52.8367
20
6.8571
0
VERTEX
8
CUT
10
52.9592
20
5.4286
0
VERTEX
8
CUT
10
53
20
4
0
VERTEX
8
CUT
10
52.9592
20
2.5714
0
VERTEX
8
CUT
10
52.8367
20
1.1429
0
VERTEX
8
CUT
10
52.6735
20
0
0
SEQEND
0
POLYLINE
8
CUT
66
1
70
0
0
VERTEX
8
CUT
10
57
20
69
0
VERTEX
8
CUT
10
56.4694
20
67.5714
0
VERTEX
8
CUT
10
56.0204
20
66.1429
0
VERTEX
8
CUT
10
55.6531
20
64.7143
0
VERTEX
8
CUT
10
55.3673
20
63.2857
0
VERTEX
8
CUT
10
55.1633
20
61.8571
0
VERTEX
8
CUT
10
55.0408
20
60.4286
0
VERTEX
8
CUT
10
55
20
59
0
VERTEX
8
CUT
10
55.0408
20
57.5714
0
VERTEX
8
CUT
10
55.1633
20
56.1429
0
VERTEX
8
CUT
10
55.3673
20
54.7143
0
VERTEX
8
CUT
10
55.6531
20
53.2857
0
VERTEX
8
CUT
10
56.0204
20
51.8571
0
VERTEX
8
CUT
10
56.4694
20
50.4286
0
VERTEX
8
CUT
10
57
20
49
0
SEQEND
0
POLYLINE
8
CUT
66
1
70
0
0
VERTEX
8
CUT
10
57
20
47
0
VERTEX
8
CUT
10
56.4694
20
45.5714
0
VERTEX
8
CUT
10
56.0204
20
44.1429
0
VERTEX
8
CUT
10
55.6531
20
42.7143
0
VERTEX
8
CUT
10
55.3673
20
41.2857
0
VERTEX
8
CUT
10
55.1633
20
39.8571
0
VERTEX
8
CUT
10
55.0408
20
38.4286
0
VERTEX
8
CUT
10
55
20
37
0
VERTEX
8
CUT
10
55.0408
20
35.5714
0
VERTEX
8
CUT
10
55.1633
20
34.1429
0
VERTEX
8
CUT
10
55.3673
20
32.7143
0
VERTEX
8
CUT
10
55.6531
20
31.2857
0
VERTEX
8
CUT
10
56.0204
20
29.8571
0
VERTEX
8
CUT
10
56.4694
20
28.4286
0
VERTEX
8
CUT
10
57
20
27
0
SEQEND
0
POLYLINE
8
CUT
66
1
70
0
0
VERTEX
8
CUT
10
57
20
25
0
VERTEX
8
CUT
10
56.4694
20
23.5714
0
VERTEX
8
CUT
10
56.0204
20
22.1429
0
VERTEX
8
CUT
10
55.6531
20
20.7143
0
VERTEX
8
CUT
10
55.3673
20
19.2857
0
VERTEX
8
CUT
10
55.1633
20
17.8571
0
VERTEX
8
CUT
10
55.0408
20
16.4286
0
VERTEX
8
CUT
10
55
20
15
0
VERTEX
8
CUT
10
55.0408
20
13.5714
0
VERTEX
8
CUT
10
55.1633
20
12.1429
0
VERTEX
8
CUT
10
55.3673
20
10.7143
0
VERTEX
8
CUT
10
55.6531
20
9.2857
0
VERTEX
8
CUT
10
56.0204
20
7.8571
0
VERTEX
8
CUT
10
56.4694
20
6.4286
0
VERTEX
8
CUT
10
57
20
5
0
SEQEND
0
POLYLINE
8
CUT
66
1
70
0
0
VERTEX
8
CUT
10
57
20
3
0
VERTEX
8
CUT
10
56.4694
20
1.5714
0
VERTEX
8
CUT
10
56.0204
20
0.1429
0
VERTEX
8
CUT
10
55.9837
20
0
0
SEQEND
0
POLYLINE
8
CUT
66
1
70
0
0
VERTEX
8
CUT
10
65
20
70
0
VERTEX
8
CUT
10
65
20
70
0
VERTEX
8
CUT
10
64.9592
20
68.5714
0
VERTEX
8
CUT
10
64.8367
20
67.1429
0
VERTEX
8
CUT
10
64.6327
20
65.7143
0
VERTEX
8
CUT
10
64.3469
20
64.2857
0
VERTEX
8
CUT
10
63.9796
20
62.8571
0
VERTEX
8
CUT
10
63.5306
20
61.4286
0
VERTEX
8
CUT
10
63
20
60
0
SEQEND
0
POLYLINE
8
CUT
66
1
70
0
0
VERTEX
8
CUT
10
63
20
58
0
VERTEX
8
CUT
10
63.5306
20
56.5714
0
VERTEX
8
CUT
10
63.9796
20
55.1429
0
VERTEX
8
CUT
10
64.3469
20
53.7143
0
VERTEX
8
CUT
10
64.6327
20
52.2857
0
VERTEX
8
CUT
10
64.8367
20
50.8571
0
VERTEX
8
CUT
10
64.9592
20
49.4286
0
VERTEX
8
CUT
10
65
20
48
0
VERTEX
8
CUT
10
64.9592
20
46.5714
0
VERTEX
8
CUT
10
64.8367
20
45.1429
0
VERTEX
8
CUT
10
64.6327
20
43.7143
0
VERTEX
8
CUT
10
64.3469
20
42.2857
0
VERTEX
8
CUT
10
63.9796
20
40.8571
0
VERTEX
8
CUT
10
63.5306
20
39.4286
0
VERTEX
8
CUT
10
63
20
38
0
SEQEND
0
POLYLINE
8
CUT
66
1
70
0
0
VERTEX
8
CUT
10
63
20
36
0
VERTEX
8
CUT
10
63.5306
20
34.5714
0
VERTEX
8
CUT
10
63.9796
20
33.1429
0
VERTEX
8
CUT
10
64.3469
20
31.7143
0
VERTEX
8
CUT
10
64.6327
20
30.2857
0
VERTEX
8
CUT
10
64.8367
20
28.8571
0
VERTEX
8
CUT
10
64.9592
20
27.4286
0
VERTEX
8
CUT
10
65
20
26
0
VERTEX
8
CUT
10
64.9592
20
24.5714
0
VERTEX
8
CUT
10
64.8367
20
23.1429
0
VERTEX
8
CUT
10
64.6327
20
21.7143
0
VERTEX
8
CUT
10
64.3469
20
20.2857
0
VERTEX
8
CUT
10
63.9796
20
18.8571
0
VERTEX
8
CUT
10
63.5306
20
17.4286
0
VERTEX
8
CUT
10
63
20
16
0
SEQEND
0
POLYLINE
8
CUT
66
1
70
0
0
VERTEX
8
CUT
10
63
20
14
0
VERTEX
8
CUT
10
63.5306
20
12.5714
0
VERTEX
8
CUT
10
63.9796
20
11.1429
0
VERTEX
8
CUT
10
64.3469
20
9.7143
0
VERTEX
8
CUT
10
64.6327
20
8.2857
0
VERTEX
8
CUT
10
64.8367
20
6.8571
0
VERTEX
8
CUT
10
64.9592
20
5.4286
0
VERTEX
8
CUT
10
65
20
4
0
VERTEX
8
CUT
10
64.9592
20
2.5714
0
VERTEX
8
CUT
10
64.8367
20
1.1429
0
VERTEX
8
CUT
10
64.6735
20
0
0
SEQEND
0
POLYLINE
8
CUT
66
1
70
0
0
VERTEX
8
CUT
10
69
20
69
0
VERTEX
8
CUT
10
68.4694
20
67.5714
0
VERTEX
8
CUT
10
68.0204
20
66.1429
0
VERTEX
8
CUT
10
67.6531
20
64.7143
0
VERTEX
8
CUT
10
67.3673
20
63.2857
0
VERTEX
8
CUT
10
67.1633
20
61.8571
0
VERTEX
8
CUT
10
67.0408
20
60.4286
0
VERTEX
8
CUT
10
67
20
59
0
VERTEX
8
CUT
10
67.0408
20
57.5714
0
VERTEX
8
CUT
10
67.1633
20
56.1429
0
VERTEX
8
CUT
10
67.3673
20
54.7143
0
VERTEX
8
CUT
10
67.6531
20
53.2857
0
VERTEX
8
CUT
10
68.0204
20
51.8571
0
VERTEX
8
CUT
10
68.4694
20
50.4286
0
VERTEX
8
CUT
10
69
20
49
0
SEQEND
0
POLYLINE
8
CUT
66
1
70
0
0
VERTEX
8
CUT
10
69
20
47
0
VERTEX
8
CUT
10
68.4694
20
45.5714
0
VERTEX
8
CUT
10
68.0204
20
44.1429
0
VERTEX
8
CUT
10
67.6531
20
42.7143
0
VERTEX
8
CUT
10
67.3673
20
41.2857
0
VERTEX
8
CUT
10
67.1633
20
39.8571
0
VERTEX
8
CUT
10
67.0408
20
38.4286
0
VERTEX
8
CUT
10
67
20
37
0
VERTEX
8
CUT
10
67.0408
20
35.5714
0
VERTEX
8
CUT
10
67.1633
20
34.1429
0
VERTEX
8
CUT
10
67.3673
20
32.7143
0
VERTEX
8
CUT
10
67.6531
20
31.2857
0
VERTEX
8
CUT
10
68.0204
20
29.8571
0
VERTEX
8
CUT
10
68.4694
20
28.4286
0
VERTEX
8
CUT
10
69
20
27
0
SEQEND
0
POLYLINE
8
CUT
66
1
70
0
0
VERTEX
8
CUT
10
69
20
25
0
VERTEX
8
CUT
10
68.4694
20
23.5714
0
VERTEX
8
CUT
10
68.0204
20
22.1429
0
VERTEX
8
CUT
10
67.6531
20
20.7143
0
VERTEX
8
CUT
10
67.3673
20
19.2857
0
VERTEX
8
CUT
10
67.1633
20
17.8571
0
VERTEX
8
CUT
10
67.0408
20
16.4286
0
VERTEX
8
CUT
10
67
20
15
0
VERTEX
8
CUT
10
67.0408
20
13.5714
0
VERTEX
8
CUT
10
67.1633
20
12.1429
0
VERTEX
8
CUT
10
67.3673
20
10.7143
0
VERTEX
8
CUT
10
67.6531
20
9.2857
0
VERTEX
8
CUT
10
68.0204
20
7.8571
0
VERTEX
8
CUT
10
68.4694
20
6.4286
0
VERTEX
8
CUT
10
69
20
5
0
SEQEND
0
POLYLINE
8
CUT
66
1
70
0
0
VERTEX
8
CUT
10
69
20
3
0
VERTEX
8
CUT
10
68.4694
20
1.5714
0
VERTEX
8
CUT
10
68.0204
20
0.1429
0
VERTEX
8
CUT
10
67.9837
20
0
0
SEQEND
0
POLYLINE
8
CUT
66
1
70
0
0
VERTEX
8
CUT
10
77
20
70
0
VERTEX
8
CUT
10
77
20
70
0
VERTEX
8
CUT
10
76.9592
20
68.5714
0
VERTEX
8
CUT
10
76.8367
20
67.1429
0
VERTEX
8
CUT
10
76.6327
20
65.7143
0
VERTEX
8
CUT
10
76.3469
20
64.2857
0
VERTEX
8
CUT
10
75.9796
20
62.8571
0
VERTEX
8
CUT
10
75.5306
20
61.4286
0
VERTEX
8
CUT
10
75
20
60
0
SEQEND
0
POLYLINE
8
CUT
66
1
70
0
0
VERTEX
8
CUT
10
75
20
58
0
VERTEX
8
CUT
10
75.5306
20
56.5714
0
VERTEX
8
CUT
10
75.9796
20
55.1429
0
VERTEX
8
CUT
10
76.3469
20
53.7143
0
VERTEX
8
CUT
10
76.6327
20
52.2857
0
VERTEX
8
CUT
10
76.8367
20
50.8571
0
VERTEX
8
CUT
10
76.9592
20
49.4286
0
VERTEX
8
CUT
10
77
20
48
0
VERTEX
8
CUT
10
76.9592
20
46.5714
0
VERTEX
8
CUT
10
76.8367
20
45.1429
0
VERTEX
8
CUT
10
76.6327
20
43.7143
0
VERTEX
8
CUT
10
76.3469
20
42.2857
0
VERTEX
8
CUT
10
75.9796
20
40.8571
0
VERTEX
8
CUT
10
75.5306
20
39.4286
0
VERTEX
8
CUT
10
75
20
38
0
SEQEND
0
POLYLINE
8
CUT
66
1
70
0
0
VERTEX
8
CUT
10
75
20
36
0
VERTEX
8
CUT
10
75.5306
20
34.5714
0
VERTEX
8
CUT
10
75.9796
20
33.1429
0
VERTEX
8
CUT
10
76.3469
20
31.7143
0
VERTEX
8
CUT
10
76.6327
20
30.2857
0
VERTEX
8
CUT
10
76.8367
20
28.8571
0
VERTEX
8
CUT
10
76.9592
20
27.4286
0
VERTEX
8
CUT
10
77
20
26
0
VERTEX
8
CUT
10
76.9592
20
24.5714
0
VERTEX
8
CUT
10
76.8367
20
23.1429
0
VERTEX
8
CUT
10
76.6327
20
21.7143
0
VERTEX
8
CUT
10
76.3469
20
20.2857
0
VERTEX
8
CUT
10
75.9796
20
18.8571
0
VERTEX
8
CUT
10
75.5306
20
17.4286
0
VERTEX
8
CUT
10
75
20
16
0
SEQEND
0
POLYLINE
8
CUT
66
1
70
0
0
VERTEX
8
CUT
10
75
20
14
0
VERTEX
8
CUT
10
75.5306
20
12.5714
0
VERTEX
8
CUT
10
75.9796
20
11.1429
0
VERTEX
8
CUT
10
76.3469
20
9.7143
0
VERTEX
8
CUT
10
76.6327
20
8.2857
0
VERTEX
8
CUT
10
76.8367
20
6.8571
0
VERTEX
8
CUT
10
76.9592
20
5.4286
0
VERTEX
8
CUT
10
77
20
4
0
VERTEX
8
CUT
10
76.9592
20
2.5714
0
VERTEX
8
CUT
10
76.8367
20
1.1429
0
VERTEX
8
CUT
10
76.6735
20
0
0
SEQEND
0
POLYLINE
8
CUT
66
1
70
0
0
VERTEX
8
CUT
10
81
20
69
0
VERTEX
8
CUT
10
80.4694
20
67.5714
0
VERTEX
8
CUT
10
80.0204
20
66.1429
0
VERTEX
8
CUT
10
79.6531
20
64.7143
0
VERTEX
8
CUT
10
79.3673
20
63.2857
0
VERTEX
8
CUT
10
79.1633
20
61.8571
0
VERTEX
8
CUT
10
79.0408
20
60.4286
0
VERTEX
8
CUT
10
79
20
59
0
VERTEX
8
CUT
10
79.0408
20
57.5714
0
VERTEX
8
CUT
10
79.1633
20
56.1429
0
VERTEX
8
CUT
10
79.3673
20
54.7143
0
VERTEX
8
CUT
10
79.6531
20
53.2857
0
VERTEX
8
CUT
10
80.0204
20
51.8571
0
VERTEX
8
CUT
10
80.4694
20
50.4286
0
VERTEX
8
CUT
10
81
20
49
0
SEQEND
0
POLYLINE
8
CUT
66
1
70
0
0
VERTEX
8
CUT
10
81
20
47
0
VERTEX
8
CUT
10
80.4694
20
45.5714
0
VERTEX
8
CUT
10
80.0204
20
44.1429
0
VERTEX
8
CUT
10
79.6531
20
42.7143
0
VERTEX
8
CUT
10
79.3673
20
41.2857
0
VERTEX
8
CUT
10
79.1633
20
39.8571
0
VERTEX
8
CUT
10
79.0408
20
38.4286
0
VERTEX
8
CUT
10
79
20
37
0
VERTEX
8
CUT
10
79.0408
20
35.5714
0
VERTEX
8
CUT
10
79.1633
20
34.1429
0
VERTEX
8
CUT
10
79.3673
20
32.7143
0
VERTEX
8
CUT
10
79.6531
20
31.2857
0
VERTEX
8
CUT
10
80.0204
20
29.8571
0
VERTEX
8
CUT
10
80.4694
20
28.4286
0
VERTEX
8
CUT
10
81
20
27
0
SEQEND
0
POLYLINE
8
CUT
66
1
70
0
0
VERTEX
8
CUT
10
81
20
25
0
VERTEX
8
CUT
10
80.4694
20
23.5714
0
VERTEX
8
CUT
10
80.0204
20
22.1429
0
VERTEX
8
CUT
10
79.6531
20
20.7143
0
VERTEX
8
CUT
10
79.3673
20
19.2857
0
VERTEX
8
CUT
10
79.1633
20
17.8571
0
VERTEX
8
CUT
10
79.0408
20
16.4286
0
VERTEX
8
CUT
10
79
20
15
0
VERTEX
8
CUT
10
79.0408
20
13.5714
0
VERTEX
8
CUT
10
79.1633
20
12.1429
0
VERTEX
8
CUT
10
79.3673
20
10.7143
0
VERTEX
8
CUT
10
79.6531
20
9.2857
0
VERTEX
8
CUT
10
80.0204
20
7.8571
0
VERTEX
8
CUT
10
80.4694
20
6.4286
0
VERTEX
8
CUT
10
81
20
5
0
SEQEND
0
POLYLINE
8
CUT
66
1
70
0
0
VERTEX
8
CUT
10
81
20
3
0
VERTEX
8
CUT
10
80.4694
20
1.5714
0
VERTEX
8
CUT
10
80.0204
20
0.1429
0
VERTEX
8
CUT
10
79.9837
20
0
0
SEQEND
0
POLYLINE
8
CUT
66
1
70
0
0
VERTEX
8
CUT
10
89
20
70
0
VERTEX
8
CUT
10
89
20
70
0
VERTEX
8
CUT
10
88.9592
20
68.5714
0
VERTEX
8
CUT
10
88.8367
20
67.1429
0
VERTEX
8
CUT
10
88.6327
20
65.7143
0
VERTEX
8
CUT
10
88.3469
20
64.2857
0
VERTEX
8
CUT
10
87.9796
20
62.8571
0
VERTEX
8
CUT
10
87.5306
20
61.4286
0
VERTEX
8
CUT
10
87
20
60
0
SEQEND
0
POLYLINE
8
CUT
66
1
70
0
0
VERTEX
8
CUT
10
87
20
58
0
VERTEX
8
CUT
10
87.5306
20
56.5714
0
VERTEX
8
CUT
10
87.9796
20
55.1429
0
VERTEX
8
CUT
10
88.3469
20
53.7143
0
VERTEX
8
CUT
10
88.6327
20
52.2857
0
VERTEX
8
CUT
10
88.8367
20
50.8571
0
VERTEX
8
CUT
10
88.9592
20
49.4286
0
VERTEX
8
CUT
10
89
20
48
0
VERTEX
8
CUT
10
88.9592
20
46.5714
0
VERTEX
8
CUT
10
88.8367
20
45.1429
0
VERTEX
8
CUT
10
88.6327
20
43.7143
0
VERTEX
8
CUT
10
88.3469
20
42.2857
0
VERTEX
8
CUT
10
87.9796
20
40.8571
0
VERTEX
8
CUT
10
87.5306
20
39.4286
0
VERTEX
8
CUT
10
87
20
38
0
SEQEND
0
POLYLINE
8
CUT
66
1
70
0
0
VERTEX
8
CUT
10
87
20
36
0
VERTEX
8
CUT
10
87.5306
20
34.5714
0
VERTEX
8
CUT
10
87.9796
20
33.1429
0
VERTEX
8
CUT
10
88.3469
20
31.7143
0
VERTEX
8
CUT
10
88.6327
20
30.2857
0
VERTEX
8
CUT
10
88.8367
20
28.8571
0
VERTEX
8
CUT
10
88.9592
20
27.4286
0
VERTEX
8
CUT
10
89
20
26
0
VERTEX
8
CUT
10
88.9592
20
24.5714
0
VERTEX
8
CUT
10
88.8367
20
23.1429
0
VERTEX
8
CUT
10
88.6327
20
21.7143
0
VERTEX
8
CUT
10
88.3469
20
20.2857
0
VERTEX
8
CUT
10
87.9796
20
18.8571
0
VERTEX
8
CUT
10
87.5306
20
17.4286
0
VERTEX
8
CUT
10
87
20
16
0
SEQEND
0
POLYLINE
8
CUT
66
1
70
0
0
VERTEX
8
CUT
10
87
20
14
0
VERTEX
8
CUT
10
87.5306
20
12.5714
0
VERTEX
8
CUT
10
87.9796
20
11.1429
0
VERTEX
8
CUT
10
88.3469
20
9.7143
0
VERTEX
8
CUT
10
88.6327
20
8.2857
0
VERTEX
8
CUT
10
88.8367
20
6.8571
0
VERTEX
8
CUT
10
88.9592
20
5.4286
0
VERTEX
8
CUT
10
89
20
4
0
VERTEX
8
CUT
10
88.9592
20
2.5714
0
VERTEX
8
CUT
10
88.8367
20
1.1429
0
VERTEX
8
CUT
10
88.6735
20
0
0
SEQEND
0
POLYLINE
8
CUT
66
1
70
0
0
VERTEX
8
CUT
10
93
20
69
0
VERTEX
8
CUT
10
92.4694
20
67.5714
0
VERTEX
8
CUT
10
92.0204
20
66.1429
0
VERTEX
8
CUT
10
91.6531
20
64.7143
0
VERTEX
8
CUT
10
91.3673
20
63.2857
0
VERTEX
8
CUT
10
91.1633
20
61.8571
0
VERTEX
8
CUT
10
91.0408
20
60.4286
0
VERTEX
8
CUT
10
91
20
59
0
VERTEX
8
CUT
10
91.0408
20
57.5714
0
VERTEX
8
CUT
10
91.1633
20
56.1429
0
VERTEX
8
CUT
10
91.3673
20
54.7143
0
VERTEX
8
CUT
10
91.6531
20
53.2857
0
VERTEX
8
CUT
10
92.0204
20
51.8571
0
VERTEX
8
CUT
10
92.4694
20
50.4286
0
VERTEX
8
CUT
10
93
20
49
0
SEQEND
0
POLYLINE
8
CUT
66
1
70
0
0
VERTEX
8
CUT
10
93
20
47
0
VERTEX
8
CUT
10
92.4694
20
45.5714
0
VERTEX
8
CUT
10
92.0204
20
44.1429
0
VERTEX
8
CUT
10
91.6531
20
42.7143
0
VERTEX
8
CUT
10
91.3673
20
41.2857
0
VERTEX
8
CUT
10
91.1633
20
39.8571
0
VERTEX
8
CUT
10
91.0408
20
38.4286
0
VERTEX
8
CUT
10
91
20
37
0
VERTEX
8
CUT
10
91.0408
20
35.5714
0
VERTEX
8
CUT
10
91.1633
20
34.1429
0
VERTEX
8
CUT
10
91.3673
20
32.7143
0
VERTEX
8
CUT
10
91.6531
20
31.2857
0
VERTEX
8
CUT
10
92.0204
20
29.8571
0
VERTEX
8
CUT
10
92.4694
20
28.4286
0
VERTEX
8
CUT
10
93
20
27
0
SEQEND
0
POLYLINE
8
CUT
66
1
70
0
0
VERTEX
8
CUT
10
93
20
25
0
VERTEX
8
CUT
10
92.4694
20
23.5714
0
VERTEX
8
CUT
10
92.0204
20
22.1429
0
VERTEX
8
CUT
10
91.6531
20
20.7143
0
VERTEX
8
CUT
10
91.3673
20
19.2857
0
VERTEX
8
CUT
10
91.1633
20
17.8571
0
VERTEX
8
CUT
10
91.0408
20
16.4286
0
VERTEX
8
CUT
10
91
20
15
0
VERTEX
8
CUT
10
91.0408
20
13.5714
0
VERTEX
8
CUT
10
91.1633
20
12.1429
0
VERTEX
8
CUT
10
91.3673
20
10.7143
0
VERTEX
8
CUT
10
91.6531
20
9.2857
0
VERTEX
8
CUT
10
92.0204
20
7.8571
0
VERTEX
8
CUT
10
92.4694
20
6.4286
0
VERTEX
8
CUT
10
93
20
5
0
SEQEND
0
POLYLINE
8
CUT
66
1
70
0
0
VERTEX
8
CUT
10
93
20
3
0
VERTEX
8
CUT
10
92.4694
20
1.5714
0
VERTEX
8
CUT
10
92.0204
20
0.1429
0
VERTEX
8
CUT
10
91.9837
20
0
0
SEQEND
0
POLYLINE
8
CUT
66
1
70
0
0
VERTEX
8
CUT
10
101
20
70
0
VERTEX
8
CUT
10
101
20
70
0
VERTEX
8
CUT
10
100.9592
20
68.5714
0
VERTEX
8
CUT
10
100.8367
20
67.1429
0
VERTEX
8
CUT
10
100.6327
20
65.7143
0
VERTEX
8
CUT
10
100.3469
20
64.2857
0
VERTEX
8
CUT
10
99.9796
20
62.8571
0
VERTEX
8
CUT
10
99.5306
20
61.4286
0
VERTEX
8
CUT
10
99
20
60
0
SEQEND
0
POLYLINE
8
CUT
66
1
70
0
0
VERTEX
8
CUT
10
99
20
58
0
VERTEX
8
CUT
10
99.5306
20
56.5714
0
VERTEX
8
CUT
10
99.9796
20
55.1429
0
VERTEX
8
CUT
10
100.3469
20
53.7143
0
VERTEX
8
CUT
10
100.6327
20
52.2857
0
VERTEX
8
CUT
10
100.8367
20
50.8571
0
VERTEX
8
CUT
10
100.9592
20
49.4286
0
VERTEX
8
CUT
10
101
20
48
0
VERTEX
8
CUT
10
100.9592
20
46.5714
0
VERTEX
8
CUT
10
100.8367
20
45.1429
0
VERTEX
8
CUT
10
100.6327
20
43.7143
0
VERTEX
8
CUT
10
100.3469
20
42.2857
0
VERTEX
8
CUT
10
99.9796
20
40.8571
0
VERTEX
8
CUT
10
99.5306
20
39.4286
0
VERTEX
8
CUT
10
99
20
38
0
SEQEND
0
POLYLINE
8
CUT
66
1
70
0
0
VERTEX
8
CUT
10
99
20
36
0
VERTEX
8
CUT
10
99.5306
20
34.5714
0
VERTEX
8
CUT
10
99.9796
20
33.1429
0
VERTEX
8
CUT
10
100.3469
20
31.7143
0
VERTEX
8
CUT
10
100.6327
20
30.2857
0
VERTEX
8
CUT
10
100.8367
20
28.8571
0
VERTEX
8
CUT
10
100.9592
20
27.4286
0
VERTEX
8
CUT
10
101
20
26
0
VERTEX
8
CUT
10
100.9592
20
24.5714
0
VERTEX
8
CUT
10
100.8367
20
23.1429
0
VERTEX
8
CUT
10
100.6327
20
21.7143
0
VERTEX
8
CUT
10
100.3469
20
20.2857
0
VERTEX
8
CUT
10
99.9796
20
18.8571
0
VERTEX
8
CUT
10
99.5306
20
17.4286
0
VERTEX
8
CUT
10
99
20
16
0
SEQEND
0
POLYLINE
8
CUT
66
1
70
0
0
VERTEX
8
CUT
10
99
20
14
0
VERTEX
8
CUT
10
99.5306
20
12.5714
0
VERTEX
8
CUT
10
99.9796
20
11.1429
0
VERTEX
8
CUT
10
100.3469
20
9.7143
0
VERTEX
8
CUT
10
100.6327
20
8.2857
0
VERTEX
8
CUT
10
100.8367
20
6.8571
0
VERTEX
8
CUT
10
100.9592
20
5.4286
0
VERTEX
8
CUT
10
101
20
4
0
VERTEX
8
CUT
10
100.9592
20
2.5714
0
VERTEX
8
CUT
10
100.8367
20
1.1429
0
VERTEX
8
CUT
10
100.6735
20
0
0
SEQEND
0
POLYLINE
8
CUT
66
1
70
0
0
VERTEX
8
CUT
10
105
20
69
0
VERTEX
8
CUT
10
104.4694
20
67.5714
0
VERTEX
8
CUT
10
104.0204
20
66.1429
0
VERTEX
8
CUT
10
103.6531
20
64.7143
0
VERTEX
8
CUT
10
103.3673
20
63.2857
0
VERTEX
8
CUT
10
103.1633
20
61.8571
0
VERTEX
8
CUT
10
103.0408
20
60.4286
0
VERTEX
8
CUT
10
103
20
59
0
VERTEX
8
CUT
10
103.0408
20
57.5714
0
VERTEX
8
CUT
10
103.1633
20
56.1429
0
VERTEX
8
CUT
10
103.3673
20
54.7143
0
VERTEX
8
CUT
10
103.6531
20
53.2857
0
VERTEX
8
CUT
10
104.0204
20
51.8571
0
VERTEX
8
CUT
10
104.4694
20
50.4286
0
VERTEX
8
CUT
10
105
20
49
0
SEQEND
0
POLYLINE
8
CUT
66
1
70
0
0
VERTEX
8
CUT
10
105
20
47
0
VERTEX
8
CUT
10
104.4694
20
45.5714
0
VERTEX
8
CUT
10
104.0204
20
44.1429
0
VERTEX
8
CUT
10
103.6531
20
42.7143
0
VERTEX
8
CUT
10
103.3673
20
41.2857
0
VERTEX
8
CUT
10
103.1633
20
39.8571
0
VERTEX
8
CUT
10
103.0408
20
38.4286
0
VERTEX
8
CUT
10
103
20
37
0
VERTEX
8
CUT
10
103.0408
20
35.5714
0
VERTEX
8
CUT
10
103.1633
20
34.1429
0
VERTEX
8
CUT
10
103.3673
20
32.7143
0
VERTEX
8
CUT
10
103.6531
20
31.2857
0
VERTEX
8
CUT
10
104.0204
20
29.8571
0
VERTEX
8
CUT
10
104.4694
20
28.4286
0
VERTEX
8
CUT
10
105
20
27
0
SEQEND
0
POLYLINE
8
CUT
66
1
70
0
0
VERTEX
8
CUT
10
105
20
25
0
VERTEX
8
CUT
10
104.4694
20
23.5714
0
VERTEX
8
CUT
10
104.0204
20
22.1429
0
VERTEX
8
CUT
10
103.6531
20
20.7143
0
VERTEX
8
CUT
10
103.3673
20
19.2857
0
VERTEX
8
CUT
10
103.1633
20
17.8571
0
VERTEX
8
CUT
10
103.0408
20
16.4286
0
VERTEX
8
CUT
10
103
20
15
0
VERTEX
8
CUT
10
103.0408
20
13.5714
0
VERTEX
8
CUT
10
103.1633
20
12.1429
0
VERTEX
8
CUT
10
103.3673
20
10.7143
0
VERTEX
8
CUT
10
103.6531
20
9.2857
0
VERTEX
8
CUT
10
104.0204
20
7.8571
0
VERTEX
8
CUT
10
104.4694
20
6.4286
0
VERTEX
8
CUT
10
105
20
5
0
SEQEND
0
POLYLINE
8
CUT
66
1
70
0
0
VERTEX
8
CUT
10
105
20
3
0
VERTEX
8
CUT
10
104.4694
20
1.5714
0
VERTEX
8
CUT
10
104.0204
20
0.1429
0
VERTEX
8
CUT
10
103.9837
20
0
0
SEQEND
0
POLYLINE
8
CUT
66
1
70
0
0
VERTEX
8
CUT
10
113
20
70
0
VERTEX
8
CUT
10
113
20
70
0
VERTEX
8
CUT
10
112.9592
20
68.5714
0
VERTEX
8
CUT
10
112.8367
20
67.1429
0
VERTEX
8
CUT
10
112.6327
20
65.7143
0
VERTEX
8
CUT
10
112.3469
20
64.2857
0
VERTEX
8
CUT
10
111.9796
20
62.8571
0
VERTEX
8
CUT
10
111.5306
20
61.4286
0
VERTEX
8
CUT
10
111
20
60
0
SEQEND
0
POLYLINE
8
CUT
66
1
70
0
0
VERTEX
8
CUT
10
111
20
58
0
VERTEX
8
CUT
10
111.5306
20
56.5714
0
VERTEX
8
CUT
10
111.9796
20
55.1429
0
VERTEX
8
CUT
10
112.3469
20
53.7143
0
VERTEX
8
CUT
10
112.6327
20
52.2857
0
VERTEX
8
CUT
10
112.8367
20
50.8571
0
VERTEX
8
CUT
10
112.9592
20
49.4286
0
VERTEX
8
CUT
10
113
20
48
0
VERTEX
8
CUT
10
112.9592
20
46.5714
0
VERTEX
8
CUT
10
112.8367
20
45.1429
0
VERTEX
8
CUT
10
112.6327
20
43.7143
0
VERTEX
8
CUT
10
112.3469
20
42.2857
0
VERTEX
8
CUT
10
111.9796
20
40.8571
0
VERTEX
8
CUT
10
111.5306
20
39.4286
0
VERTEX
8
CUT
10
111
20
38
0
SEQEND
0
POLYLINE
8
CUT
66
1
70
0
0
VERTEX
8
CUT
10
111
20
36
0
VERTEX
8
CUT
10
111.5306
20
34.5714
0
VERTEX
8
CUT
10
111.9796
20
33.1429
0
VERTEX
8
CUT
10
112.3469
20
31.7143
0
VERTEX
8
CUT
10
112.6327
20
30.2857
0
VERTEX
8
CUT
10
112.8367
20
28.8571
0
VERTEX
8
CUT
10
112.9592
20
27.4286
0
VERTEX
8
CUT
10
113
20
26
0
VERTEX
8
CUT
10
112.9592
20
24.5714
0
VERTEX
8
CUT
10
112.8367
20
23.1429
0
VERTEX
8
CUT
10
112.6327
20
21.7143
0
VERTEX
8
CUT
10
112.3469
20
20.2857
0
VERTEX
8
CUT
10
111.9796
20
18.8571
0
VERTEX
8
CUT
10
111.5306
20
17.4286
0
VERTEX
8
CUT
10
111
20
16
0
SEQEND
0
POLYLINE
8
CUT
66
1
70
0
0
VERTEX
8
CUT
10
111
20
14
0
VERTEX
8
CUT
10
111.5306
20
12.5714
0
VERTEX
8
CUT
10
111.9796
20
11.1429
0
VERTEX
8
CUT
10
112.3469
20
9.7143
0
VERTEX
8
CUT
10
112.6327
20
8.2857
0
VERTEX
8
CUT
10
112.8367
20
6.8571
0
VERTEX
8
CUT
10
112.9592
20
5.4286
0
VERTEX
8
CUT
10
113
20
4
0
VERTEX
8
CUT
10
112.9592
20
2.5714
0
VERTEX
8
CUT
10
112.8367
20
1.1429
0
VERTEX
8
CUT
10
112.6735
20
0
0
SEQEND
0
POLYLINE
8
CUT
66
1
70
0
0
VERTEX
8
CUT
10
117
20
69
0
VERTEX
8
CUT
10
116.4694
20
67.5714
0
VERTEX
8
CUT
10
116.0204
20
66.1429
0
VERTEX
8
CUT
10
115.6531
20
64.7143
0
VERTEX
8
CUT
10
115.3673
20
63.2857
0
VERTEX
8
CUT
10
115.1633
20
61.8571
0
VERTEX
8
CUT
10
115.0408
20
60.4286
0
VERTEX
8
CUT
10
115
20
59
0
VERTEX
8
CUT
10
115.0408
20
57.5714
0
VERTEX
8
CUT
10
115.1633
20
56.1429
0
VERTEX
8
CUT
10
115.3673
20
54.7143
0
VERTEX
8
CUT
10
115.6531
20
53.2857
0
VERTEX
8
CUT
10
116.0204
20
51.8571
0
VERTEX
8
CUT
10
116.4694
20
50.4286
0
VERTEX
8
CUT
10
117
20
49
0
SEQEND
0
POLYLINE
8
CUT
66
1
70
0
0
VERTEX
8
CUT
10
117
20
47
0
VERTEX
8
CUT
10
116.4694
20
45.5714
0
VERTEX
8
CUT
10
116.0204
20
44.1429
0
VERTEX
8
CUT
10
115.6531
20
42.7143
0
VERTEX
8
CUT
10
115.3673
20
41.2857
0
VERTEX
8
CUT
10
115.1633
20
39.8571
0
VERTEX
8
CUT
10
115.0408
20
38.4286
0
VERTEX
8
CUT
10
115
20
37
0
VERTEX
8
CUT
10
115.0408
20
35.5714
0
VERTEX
8
CUT
10
115.1633
20
34.1429
0
VERTEX
8
CUT
10
115.3673
20
32.7143
0
VERTEX
8
CUT
10
115.6531
20
31.2857
0
VERTEX
8
CUT
10
116.0204
20
29.8571
0
VERTEX
8
CUT
10
116.4694
20
28.4286
0
VERTEX
8
CUT
10
117
20
27
0
SEQEND
0
POLYLINE
8
CUT
66
1
70
0
0
VERTEX
8
CUT
10
117
20
25
0
VERTEX
8
CUT
10
116.4694
20
23.5714
0
VERTEX
8
CUT
10
116.0204
20
22.1429
0
VERTEX
8
CUT
10
115.6531
20
20.7143
0
VERTEX
8
CUT
10
115.3673
20
19.2857
0
VERTEX
8
CUT
10
115.1633
20
17.8571
0
VERTEX
8
CUT
10
115.0408
20
16.4286
0
VERTEX
8
CUT
10
115
20
15
0
VERTEX
8
CUT
10
115.0408
20
13.5714
0
VERTEX
8
CUT
10
115.1633
20
12.1429
0
VERTEX
8
CUT
10
115.3673
20
10.7143
0
VERTEX
8
CUT
10
115.6531
20
9.2857
0
VERTEX
8
CUT
10
116.0204
20
7.8571
0
VERTEX
8
CUT
10
116.4694
20
6.4286
0
VERTEX
8
CUT
10
117
20
5
0
SEQEND
0
POLYLINE
8
CUT
66
1
70
0
0
VERTEX
8
CUT
10
117
20
3
0
VERTEX
8
CUT
10
116.4694
20
1.5714
0
VERTEX
8
CUT
10
116.0204
20
0.1429
0
VERTEX
8
CUT
10
115.9837
20
0
0
SEQEND
0
POLYLINE
8
CUT
66
1
70
0
0
VERTEX
8
CUT
10
0
20
70
0
VERTEX
8
CUT
10
120
20
70
0
VERTEX
8
CUT
10
120
20
0
0
VERTEX
8
CUT
10
0
20
0
0
VERTEX
8
CUT
10
0
20
70
0
SEQEND
0
ENDSEC
0
EOF
