0
SECTION
2
HEADER
9
$ACADVER
1
AC1009
9
$INSUNITS
70
4
0
ENDSEC
0
SECTION
2
TABLES
0
TABLE
2
LAYER
70
1
0
LAYER
2
CUT
70
0
62
1
6
CONTINUOUS
0
ENDTAB
0
ENDSEC
0
SECTION
2
ENTITIES
0
LINE
8
CUT
10
0
20
62
11
14
21
62
0
LINE
8
CUT
10
7
20
64.75
11
7
21
59.25
0
LINE
8
CUT
10
17
20
62
11
31
21
62
0
LINE
8
CUT
10
24
20
64.75
11
24
21
59.25
0
LINE
8
CUT
10
34
20
62
11
48
21
62
0
LINE
8
CUT
10
41
20
64.75
11
41
21
59.25
0
LINE
8
CUT
10
51
20
62
11
65
21
62
0
LINE
8
CUT
10
58
20
64.75
11
58
21
59.25
0
LINE
8
CUT
10
68
20
62
11
82
21
62
0
LINE
8
CUT
10
75
20
64.75
11
75
21
59.25
0
LINE
8
CUT
10
85
20
62
11
99
21
62
0
LINE
8
CUT
10
92
20
64.75
11
92
21
59.25
0
LINE
8
CUT
10
102
20
62
11
116
21
62
0
LINE
8
CUT
10
109
20
64.75
11
109
21
59.25
0
LINE
8
CUT
10
119
20
62
11
120
21
62
0
LINE
8
CUT
10
0
20
53
11
5.5
21
53
0
LINE
8
CUT
10
8.5
20
53
11
22.5
21
53
0
LINE
8
CUT
10
15.5
20
55.75
11
15.5
21
50.25
0
LINE
8
CUT
10
25.5
20
53
11
39.5
21
53
0
LINE
8
CUT
10
32.5
20
55.75
11
32.5
21
50.25
0
LINE
8
CUT
10
42.5
20
53
11
56.5
21
53
0
LINE
8
CUT
10
49.5
20
55.75
11
49.5
21
50.25
0
LINE
8
CUT
10
59.5
20
53
11
73.5
21
53
0
LINE
8
CUT
10
66.5
20
55.75
11
66.5
21
50.25
0
LINE
8
CUT
10
76.5
20
53
11
90.5
21
53
0
LINE
8
CUT
10
83.5
20
55.75
11
83.5
21
50.25
0
LINE
8
CUT
10
93.5
20
53
11
107.5
21
53
0
LINE
8
CUT
10
100.5
20
55.75
11
100.5
21
50.25
0
LINE
8
CUT
10
110.5
20
53
11
120
21
53
0
LINE
8
CUT
10
117.5
20
55.75
11
117.5
21
50.25
0
LINE
8
CUT
10
0
20
44
11
14
21
44
0
LINE
8
CUT
10
7
20
46.75
11
7
21
41.25
0
LINE
8
CUT
10
17
20
44
11
31
21
44
0
LINE
8
CUT
10
24
20
46.75
11
24
21
41.25
0
LINE
8
CUT
10
34
20
44
11
48
21
44
0
LINE
8
CUT
10
41
20
46.75
11
41
21
41.25
0
LINE
8
CUT
10
51
20
44
11
65
21
44
0
LINE
8
CUT
10
58
20
46.75
11
58
21
41.25
0
LINE
8
CUT
10
68
20
44
11
82
21
44
0
LINE
8
CUT
10
75
20
46.75
11
75
21
41.25
0
LINE
8
CUT
10
85
20
44
11
99
21
44
0
LINE
8
CUT
10
92
20
46.75
11
92
21
41.25
0
LINE
8
CUT
10
102
20
44
11
116
21
44
0
LINE
8
CUT
10
109
20
46.75
11
109
21
41.25
0
LINE
8
CUT
10
119
20
44
11
120
21
44
0
LINE
8
CUT
10
0
20
35
11
5.5
21
35
0
LINE
8
CUT
10
8.5
20
35
11
22.5
21
35
0
LINE
8
CUT
10
15.5
20
37.75
11
15.5
21
32.25
0
LINE
8
CUT
10
25.5
20
35
11
39.5
21
35
0
LINE
8
CUT
10
32.5
20
37.75
11
32.5
21
32.25
0
LINE
8
CUT
10
42.5
20
35
11
56.5
21
35
0
LINE
8
CUT
10
49.5
20
37.75
11
49.5
21
32.25
0
LINE
8
CUT
10
59.5
20
35
11
73.5
21
35
0
LINE
8
CUT
10
66.5
20
37.75
11
66.5
21
32.25
0
LINE
8
CUT
10
76.5
20
35
11
90.5
21
35
0
LINE
8
CUT
10
83.5
20
37.75
11
83.5
21
32.25
0
LINE
8
CUT
10
93.5
20
35
11
107.5
21
35
0
LINE
8
CUT
10
100.5
20
37.75
11
100.5
21
32.25
0
LINE
8
CUT
10
110.5
20
35
11
120
21
35
0
LINE
8
CUT
10
117.5
20
37.75
11
117.5
21
32.25
0
LINE
8
CUT
10
0
20
26
11
14
21
26
0
LINE
8
CUT
10
7
20
28.75
11
7
21
23.25
0
LINE
8
CUT
10
17
20
26
11
31
21
26
0
LINE
8
CUT
10
24
20
28.75
11
24
21
23.25
0
LINE
8
CUT
10
34
20
26
11
48
21
26
0
LINE
8
CUT
10
41
20
28.75
11
41
21
23.25
0
LINE
8
CUT
10
51
20
26
11
65
21
26
0
LINE
8
CUT
10
58
20
28.75
11
58
21
23.25
0
LINE
8
CUT
10
68
20
26
11
82
21
26
0
LINE
8
CUT
10
75
20
28.75
11
75
21
23.25
0
LINE
8
CUT
10
85
20
26
11
99
21
26
0
LINE
8
CUT
10
92
20
28.75
11
92
21
23.25
0
LINE
8
CUT
10
102
20
26
11
116
21
26
0
LINE
8
CUT
10
109
20
28.75
11
109
21
23.25
0
LINE
8
CUT
10
119
20
26
11
120
21
26
0
LINE
8
CUT
10
0
20
17
11
5.5
21
17
0
LINE
8
CUT
10
8.5
20
17
11
22.5
21
17
0
LINE
8
CUT
10
15.5
20
19.75
11
15.5
21
14.25
0
LINE
8
CUT
10
25.5
20
17
11
39.5
21
17
0
LINE
8
CUT
10
32.5
20
19.75
11
32.5
21
14.25
0
LINE
8
CUT
10
42.5
20
17
11
56.5
21
17
0
LINE
8
CUT
10
49.5
20
19.75
11
49.5
21
14.25
0
LINE
8
CUT
10
59.5
20
17
11
73.5
21
17
0
LINE
8
CUT
10
66.5
20
19.75
11
66.5
21
14.25
0
LINE
8
CUT
10
76.5
20
17
11
90.5
21
17
0
LINE
8
CUT
10
83.5
20
19.75
11
83.5
21
14.25
0
LINE
8
CUT
10
93.5
20
17
11
107.5
21
17
0
LINE
8
CUT
10
100.5
20
19.75
11
100.5
21
14.25
0
LINE
8
CUT
10
110.5
20
17
11
120
21
17
0
LINE
8
CUT
10
117.5
20
19.75
11
117.5
21
14.25
0
LINE
8
CUT
10
0
20
8
11
14
21
8
0
LINE
8
CUT
10
7
20
10.75
11
7
21
5.25
0
LINE
8
CUT
10
17
20
8
11
31
21
8
0
LINE
8
CUT
10
24
20
10.75
11
24
21
5.25
0
LINE
8
CUT
10
34
20
8
11
48
21
8
0
LINE
8
CUT
10
41
20
10.75
11
41
21
5.25
0
LINE
8
CUT
10
51
20
8
11
65
21
8
0
LINE
8
CUT
10
58
20
10.75
11
58
21
5.25
0
LINE
8
CUT
10
68
20
8
11
82
21
8
0
LINE
8
CUT
10
75
20
10.75
11
75
21
5.25
0
LINE
8
CUT
10
85
20
8
11
99
21
8
0
LINE
8
CUT
10
92
20
10.75
11
92
21
5.25
0
LINE
8
CUT
10
102
20
8
11
116
21
8
0
LINE
8
CUT
10
109
20
10.75
11
109
21
5.25
0
LINE
8
CUT
10
119
20
8
11
120
21
8
0
POLYLINE
8
CUT
66
1
70
0
0
VERTEX
8
CUT
10
0
20
70
0
VERTEX
8
CUT
10
120
20
70
0
VERTEX
8
CUT
10
120
20
0
0
VERTEX
8
CUT
10
0
20
0
0
VERTEX
8
CUT
10
0
20
70
0
SEQEND
0
ENDSEC
0
EOF
