0
SECTION
2
HEADER
9
$ACADVER
1
AC1009
9
$INSUNITS
70
4
0
ENDSEC
0
SECTION
2
TABLES
0
TABLE
2
LAYER
70
1
0
LAYER
2
CUT
70
0
62
1
6
CONTINUOUS
0
ENDTAB
0
ENDSEC
0
SECTION
2
ENTITIES
0
LINE
8
CUT
10
0
20
67.253
11
0.836
21
68.701
0
LINE
8
CUT
10
0
20
52.9286
11
0.836
21
54.3766
0
LINE
8
CUT
10
0
20
58.4227
11
0.836
21
56.9747
0
LINE
8
CUT
10
0
20
38.6043
11
0.836
21
40.0523
0
LINE
8
CUT
10
0
20
44.0983
11
0.836
21
42.6503
0
LINE
8
CUT
10
0
20
24.2799
11
0.836
21
25.7279
0
LINE
8
CUT
10
0
20
29.774
11
0.836
21
28.326
0
LINE
8
CUT
10
0
20
9.9555
11
0.836
21
11.4035
0
LINE
8
CUT
10
0
20
15.4496
11
0.836
21
14.0016
0
LINE
8
CUT
10
0
20
1.1253
11
0.6497
21
0
0
POLYLINE
8
CUT
66
1
70
0
0
VERTEX
8
CUT
10
0.75
20
61.5388
0
VERTEX
8
CUT
10
3.5
20
56.7756
0
VERTEX
8
CUT
10
10.5
20
56.7756
0
VERTEX
8
CUT
10
13.25
20
61.5388
0
SEQEND
0
POLYLINE
8
CUT
66
1
70
0
0
VERTEX
8
CUT
10
0.75
20
64.1369
0
VERTEX
8
CUT
10
3.5
20
68.9
0
VERTEX
8
CUT
10
10.5
20
68.9
0
VERTEX
8
CUT
10
13.25
20
64.1369
0
SEQEND
0
POLYLINE
8
CUT
66
1
70
0
0
VERTEX
8
CUT
10
0.75
20
47.2144
0
VERTEX
8
CUT
10
3.5
20
42.4513
0
VERTEX
8
CUT
10
10.5
20
42.4513
0
VERTEX
8
CUT
10
13.25
20
47.2144
0
SEQEND
0
POLYLINE
8
CUT
66
1
70
0
0
VERTEX
8
CUT
10
0.75
20
49.8125
0
VERTEX
8
CUT
10
3.5
20
54.5756
0
VERTEX
8
CUT
10
10.5
20
54.5756
0
VERTEX
8
CUT
10
13.25
20
49.8125
0
SEQEND
0
POLYLINE
8
CUT
66
1
70
0
0
VERTEX
8
CUT
10
0.75
20
32.8901
0
VERTEX
8
CUT
10
3.5
20
28.1269
0
VERTEX
8
CUT
10
10.5
20
28.1269
0
VERTEX
8
CUT
10
13.25
20
32.8901
0
SEQEND
0
POLYLINE
8
CUT
66
1
70
0
0
VERTEX
8
CUT
10
0.75
20
35.4881
0
VERTEX
8
CUT
10
3.5
20
40.2513
0
VERTEX
8
CUT
10
10.5
20
40.2513
0
VERTEX
8
CUT
10
13.25
20
35.4881
0
SEQEND
0
POLYLINE
8
CUT
66
1
70
0
0
VERTEX
8
CUT
10
0.75
20
18.5657
0
VERTEX
8
CUT
10
3.5
20
13.8026
0
VERTEX
8
CUT
10
10.5
20
13.8026
0
VERTEX
8
CUT
10
13.25
20
18.5657
0
SEQEND
0
POLYLINE
8
CUT
66
1
70
0
0
VERTEX
8
CUT
10
0.75
20
21.1638
0
VERTEX
8
CUT
10
3.5
20
25.9269
0
VERTEX
8
CUT
10
10.5
20
25.9269
0
VERTEX
8
CUT
10
13.25
20
21.1638
0
SEQEND
0
LINE
8
CUT
10
0.75
20
4.2414
11
3.1988
21
0
0
LINE
8
CUT
10
10.8012
20
0
11
13.25
21
4.2414
0
POLYLINE
8
CUT
66
1
70
0
0
VERTEX
8
CUT
10
0.75
20
6.8394
0
VERTEX
8
CUT
10
3.5
20
11.6026
0
VERTEX
8
CUT
10
10.5
20
11.6026
0
VERTEX
8
CUT
10
13.25
20
6.8394
0
SEQEND
0
POLYLINE
8
CUT
66
1
70
0
0
VERTEX
8
CUT
10
13.164
20
68.701
0
VERTEX
8
CUT
10
15.914
20
63.9378
0
VERTEX
8
CUT
10
22.914
20
63.9378
0
VERTEX
8
CUT
10
25.664
20
68.701
0
SEQEND
0
POLYLINE
8
CUT
66
1
70
0
0
VERTEX
8
CUT
10
13.164
20
54.3766
0
VERTEX
8
CUT
10
15.914
20
49.6135
0
VERTEX
8
CUT
10
22.914
20
49.6135
0
VERTEX
8
CUT
10
25.664
20
54.3766
0
SEQEND
0
POLYLINE
8
CUT
66
1
70
0
0
VERTEX
8
CUT
10
13.164
20
56.9747
0
VERTEX
8
CUT
10
15.914
20
61.7378
0
VERTEX
8
CUT
10
22.914
20
61.7378
0
VERTEX
8
CUT
10
25.664
20
56.9747
0
SEQEND
0
POLYLINE
8
CUT
66
1
70
0
0
VERTEX
8
CUT
10
13.164
20
40.0523
0
VERTEX
8
CUT
10
15.914
20
35.2891
0
VERTEX
8
CUT
10
22.914
20
35.2891
0
VERTEX
8
CUT
10
25.664
20
40.0523
0
SEQEND
0
POLYLINE
8
CUT
66
1
70
0
0
VERTEX
8
CUT
10
13.164
20
42.6503
0
VERTEX
8
CUT
10
15.914
20
47.4135
0
VERTEX
8
CUT
10
22.914
20
47.4135
0
VERTEX
8
CUT
10
25.664
20
42.6503
0
SEQEND
0
POLYLINE
8
CUT
66
1
70
0
0
VERTEX
8
CUT
10
13.164
20
25.7279
0
VERTEX
8
CUT
10
15.914
20
20.9648
0
VERTEX
8
CUT
10
22.914
20
20.9648
0
VERTEX
8
CUT
10
25.664
20
25.7279
0
SEQEND
0
POLYLINE
8
CUT
66
1
70
0
0
VERTEX
8
CUT
10
13.164
20
28.326
0
VERTEX
8
CUT
10
15.914
20
33.0891
0
VERTEX
8
CUT
10
22.914
20
33.0891
0
VERTEX
8
CUT
10
25.664
20
28.326
0
SEQEND
0
POLYLINE
8
CUT
66
1
70
0
0
VERTEX
8
CUT
10
13.164
20
11.4035
0
VERTEX
8
CUT
10
15.914
20
6.6404
0
VERTEX
8
CUT
10
22.914
20
6.6404
0
VERTEX
8
CUT
10
25.664
20
11.4035
0
SEQEND
0
POLYLINE
8
CUT
66
1
70
0
0
VERTEX
8
CUT
10
13.164
20
14.0016
0
VERTEX
8
CUT
10
15.914
20
18.7648
0
VERTEX
8
CUT
10
22.914
20
18.7648
0
VERTEX
8
CUT
10
25.664
20
14.0016
0
SEQEND
0
POLYLINE
8
CUT
66
1
70
0
0
VERTEX
8
CUT
10
13.3503
20
0
0
VERTEX
8
CUT
10
15.914
20
4.4404
0
VERTEX
8
CUT
10
22.914
20
4.4404
0
VERTEX
8
CUT
10
25.4777
20
0
0
SEQEND
0
POLYLINE
8
CUT
66
1
70
0
0
VERTEX
8
CUT
10
25.578
20
61.5388
0
VERTEX
8
CUT
10
28.328
20
56.7756
0
VERTEX
8
CUT
10
35.328
20
56.7756
0
VERTEX
8
CUT
10
38.078
20
61.5388
0
SEQEND
0
POLYLINE
8
CUT
66
1
70
0
0
VERTEX
8
CUT
10
25.578
20
64.1369
0
VERTEX
8
CUT
10
28.328
20
68.9
0
VERTEX
8
CUT
10
35.328
20
68.9
0
VERTEX
8
CUT
10
38.078
20
64.1369
0
SEQEND
0
POLYLINE
8
CUT
66
1
70
0
0
VERTEX
8
CUT
10
25.578
20
47.2144
0
VERTEX
8
CUT
10
28.328
20
42.4513
0
VERTEX
8
CUT
10
35.328
20
42.4513
0
VERTEX
8
CUT
10
38.078
20
47.2144
0
SEQEND
0
POLYLINE
8
CUT
66
1
70
0
0
VERTEX
8
CUT
10
25.578
20
49.8125
0
VERTEX
8
CUT
10
28.328
20
54.5756
0
VERTEX
8
CUT
10
35.328
20
54.5756
0
VERTEX
8
CUT
10
38.078
20
49.8125
0
SEQEND
0
POLYLINE
8
CUT
66
1
70
0
0
VERTEX
8
CUT
10
25.578
20
32.8901
0
VERTEX
8
CUT
10
28.328
20
28.1269
0
VERTEX
8
CUT
10
35.328
20
28.1269
0
VERTEX
8
CUT
10
38.078
20
32.8901
0
SEQEND
0
POLYLINE
8
CUT
66
1
70
0
0
VERTEX
8
CUT
10
25.578
20
35.4881
0
VERTEX
8
CUT
10
28.328
20
40.2513
0
VERTEX
8
CUT
10
35.328
20
40.2513
0
VERTEX
8
CUT
10
38.078
20
35.4881
0
SEQEND
0
POLYLINE
8
CUT
66
1
70
0
0
VERTEX
8
CUT
10
25.578
20
18.5657
0
VERTEX
8
CUT
10
28.328
20
13.8026
0
VERTEX
8
CUT
10
35.328
20
13.8026
0
VERTEX
8
CUT
10
38.078
20
18.5657
0
SEQEND
0
POLYLINE
8
CUT
66
1
70
0
0
VERTEX
8
CUT
10
25.578
20
21.1638
0
VERTEX
8
CUT
10
28.328
20
25.9269
0
VERTEX
8
CUT
10
35.328
20
25.9269
0
VERTEX
8
CUT
10
38.078
20
21.1638
0
SEQEND
0
LINE
8
CUT
10
25.578
20
4.2414
11
28.0268
21
0
0
LINE
8
CUT
10
35.6292
20
0
11
38.078
21
4.2414
0
POLYLINE
8
CUT
66
1
70
0
0
VERTEX
8
CUT
10
25.578
20
6.8394
0
VERTEX
8
CUT
10
28.328
20
11.6026
0
VERTEX
8
CUT
10
35.328
20
11.6026
0
VERTEX
8
CUT
10
38.078
20
6.8394
0
SEQEND
0
POLYLINE
8
CUT
66
1
70
0
0
VERTEX
8
CUT
10
37.992
20
68.701
0
VERTEX
8
CUT
10
40.742
20
63.9378
0
VERTEX
8
CUT
10
47.742
20
63.9378
0
VERTEX
8
CUT
10
50.492
20
68.701
0
SEQEND
0
POLYLINE
8
CUT
66
1
70
0
0
VERTEX
8
CUT
10
37.992
20
54.3766
0
VERTEX
8
CUT
10
40.742
20
49.6135
0
VERTEX
8
CUT
10
47.742
20
49.6135
0
VERTEX
8
CUT
10
50.492
20
54.3766
0
SEQEND
0
POLYLINE
8
CUT
66
1
70
0
0
VERTEX
8
CUT
10
37.992
20
56.9747
0
VERTEX
8
CUT
10
40.742
20
61.7378
0
VERTEX
8
CUT
10
47.742
20
61.7378
0
VERTEX
8
CUT
10
50.492
20
56.9747
0
SEQEND
0
POLYLINE
8
CUT
66
1
70
0
0
VERTEX
8
CUT
10
37.992
20
40.0523
0
VERTEX
8
CUT
10
40.742
20
35.2891
0
VERTEX
8
CUT
10
47.742
20
35.2891
0
VERTEX
8
CUT
10
50.492
20
40.0523
0
SEQEND
0
POLYLINE
8
CUT
66
1
70
0
0
VERTEX
8
CUT
10
37.992
20
42.6503
0
VERTEX
8
CUT
10
40.742
20
47.4135
0
VERTEX
8
CUT
10
47.742
20
47.4135
0
VERTEX
8
CUT
10
50.492
20
42.6503
0
SEQEND
0
POLYLINE
8
CUT
66
1
70
0
0
VERTEX
8
CUT
10
37.992
20
25.7279
0
VERTEX
8
CUT
10
40.742
20
20.9648
0
VERTEX
8
CUT
10
47.742
20
20.9648
0
VERTEX
8
CUT
10
50.492
20
25.7279
0
SEQEND
0
POLYLINE
8
CUT
66
1
70
0
0
VERTEX
8
CUT
10
37.992
20
28.326
0
VERTEX
8
CUT
10
40.742
20
33.0891
0
VERTEX
8
CUT
10
47.742
20
33.0891
0
VERTEX
8
CUT
10
50.492
20
28.326
0
SEQEND
0
POLYLINE
8
CUT
66
1
70
0
0
VERTEX
8
CUT
10
37.992
20
11.4035
0
VERTEX
8
CUT
10
40.742
20
6.6404
0
VERTEX
8
CUT
10
47.742
20
6.6404
0
VERTEX
8
CUT
10
50.492
20
11.4035
0
SEQEND
0
POLYLINE
8
CUT
66
1
70
0
0
VERTEX
8
CUT
10
37.992
20
14.0016
0
VERTEX
8
CUT
10
40.742
20
18.7648
0
VERTEX
8
CUT
10
47.742
20
18.7648
0
VERTEX
8
CUT
10
50.492
20
14.0016
0
SEQEND
0
POLYLINE
8
CUT
66
1
70
0
0
VERTEX
8
CUT
10
38.1783
20
0
0
VERTEX
8
CUT
10
40.742
20
4.4404
0
VERTEX
8
CUT
10
47.742
20
4.4404
0
VERTEX
8
CUT
10
50.3057
20
0
0
SEQEND
0
POLYLINE
8
CUT
66
1
70
0
0
VERTEX
8
CUT
10
50.406
20
61.5388
0
VERTEX
8
CUT
10
53.156
20
56.7756
0
VERTEX
8
CUT
10
60.156
20
56.7756
0
VERTEX
8
CUT
10
62.906
20
61.5388
0
SEQEND
0
POLYLINE
8
CUT
66
1
70
0
0
VERTEX
8
CUT
10
50.406
20
64.1369
0
VERTEX
8
CUT
10
53.156
20
68.9
0
VERTEX
8
CUT
10
60.156
20
68.9
0
VERTEX
8
CUT
10
62.906
20
64.1369
0
SEQEND
0
POLYLINE
8
CUT
66
1
70
0
0
VERTEX
8
CUT
10
50.406
20
47.2144
0
VERTEX
8
CUT
10
53.156
20
42.4513
0
VERTEX
8
CUT
10
60.156
20
42.4513
0
VERTEX
8
CUT
10
62.906
20
47.2144
0
SEQEND
0
POLYLINE
8
CUT
66
1
70
0
0
VERTEX
8
CUT
10
50.406
20
49.8125
0
VERTEX
8
CUT
10
53.156
20
54.5756
0
VERTEX
8
CUT
10
60.156
20
54.5756
0
VERTEX
8
CUT
10
62.906
20
49.8125
0
SEQEND
0
POLYLINE
8
CUT
66
1
70
0
0
VERTEX
8
CUT
10
50.406
20
32.8901
0
VERTEX
8
CUT
10
53.156
20
28.1269
0
VERTEX
8
CUT
10
60.156
20
28.1269
0
VERTEX
8
CUT
10
62.906
20
32.8901
0
SEQEND
0
POLYLINE
8
CUT
66
1
70
0
0
VERTEX
8
CUT
10
50.406
20
35.4881
0
VERTEX
8
CUT
10
53.156
20
40.2513
0
VERTEX
8
CUT
10
60.156
20
40.2513
0
VERTEX
8
CUT
10
62.906
20
35.4881
0
SEQEND
0
POLYLINE
8
CUT
66
1
70
0
0
VERTEX
8
CUT
10
50.406
20
18.5657
0
VERTEX
8
CUT
10
53.156
20
13.8026
0
VERTEX
8
CUT
10
60.156
20
13.8026
0
VERTEX
8
CUT
10
62.906
20
18.5657
0
SEQEND
0
POLYLINE
8
CUT
66
1
70
0
0
VERTEX
8
CUT
10
50.406
20
21.1638
0
VERTEX
8
CUT
10
53.156
20
25.9269
0
VERTEX
8
CUT
10
60.156
20
25.9269
0
VERTEX
8
CUT
10
62.906
20
21.1638
0
SEQEND
0
LINE
8
CUT
10
50.406
20
4.2414
11
52.8548
21
0
0
LINE
8
CUT
10
60.4572
20
0
11
62.906
21
4.2414
0
POLYLINE
8
CUT
66
1
70
0
0
VERTEX
8
CUT
10
50.406
20
6.8394
0
VERTEX
8
CUT
10
53.156
20
11.6026
0
VERTEX
8
CUT
10
60.156
20
11.6026
0
VERTEX
8
CUT
10
62.906
20
6.8394
0
SEQEND
0
POLYLINE
8
CUT
66
1
70
0
0
VERTEX
8
CUT
10
62.82
20
68.701
0
VERTEX
8
CUT
10
65.57
20
63.9378
0
VERTEX
8
CUT
10
72.57
20
63.9378
0
VERTEX
8
CUT
10
75.32
20
68.701
0
SEQEND
0
POLYLINE
8
CUT
66
1
70
0
0
VERTEX
8
CUT
10
62.82
20
54.3766
0
VERTEX
8
CUT
10
65.57
20
49.6135
0
VERTEX
8
CUT
10
72.57
20
49.6135
0
VERTEX
8
CUT
10
75.32
20
54.3766
0
SEQEND
0
POLYLINE
8
CUT
66
1
70
0
0
VERTEX
8
CUT
10
62.82
20
56.9747
0
VERTEX
8
CUT
10
65.57
20
61.7378
0
VERTEX
8
CUT
10
72.57
20
61.7378
0
VERTEX
8
CUT
10
75.32
20
56.9747
0
SEQEND
0
POLYLINE
8
CUT
66
1
70
0
0
VERTEX
8
CUT
10
62.82
20
40.0523
0
VERTEX
8
CUT
10
65.57
20
35.2891
0
VERTEX
8
CUT
10
72.57
20
35.2891
0
VERTEX
8
CUT
10
75.32
20
40.0523
0
SEQEND
0
POLYLINE
8
CUT
66
1
70
0
0
VERTEX
8
CUT
10
62.82
20
42.6503
0
VERTEX
8
CUT
10
65.57
20
47.4135
0
VERTEX
8
CUT
10
72.57
20
47.4135
0
VERTEX
8
CUT
10
75.32
20
42.6503
0
SEQEND
0
POLYLINE
8
CUT
66
1
70
0
0
VERTEX
8
CUT
10
62.82
20
25.7279
0
VERTEX
8
CUT
10
65.57
20
20.9648
0
VERTEX
8
CUT
10
72.57
20
20.9648
0
VERTEX
8
CUT
10
75.32
20
25.7279
0
SEQEND
0
POLYLINE
8
CUT
66
1
70
0
0
VERTEX
8
CUT
10
62.82
20
28.326
0
VERTEX
8
CUT
10
65.57
20
33.0891
0
VERTEX
8
CUT
10
72.57
20
33.0891
0
VERTEX
8
CUT
10
75.32
20
28.326
0
SEQEND
0
POLYLINE
8
CUT
66
1
70
0
0
VERTEX
8
CUT
10
62.82
20
11.4035
0
VERTEX
8
CUT
10
65.57
20
6.6404
0
VERTEX
8
CUT
10
72.57
20
6.6404
0
VERTEX
8
CUT
10
75.32
20
11.4035
0
SEQEND
0
POLYLINE
8
CUT
66
1
70
0
0
VERTEX
8
CUT
10
62.82
20
14.0016
0
VERTEX
8
CUT
10
65.57
20
18.7648
0
VERTEX
8
CUT
10
72.57
20
18.7648
0
VERTEX
8
CUT
10
75.32
20
14.0016
0
SEQEND
0
POLYLINE
8
CUT
66
1
70
0
0
VERTEX
8
CUT
10
63.0063
20
0
0
VERTEX
8
CUT
10
65.57
20
4.4404
0
VERTEX
8
CUT
10
72.57
20
4.4404
0
VERTEX
8
CUT
10
75.1337
20
0
0
SEQEND
0
POLYLINE
8
CUT
66
1
70
0
0
VERTEX
8
CUT
10
75.234
20
61.5388
0
VERTEX
8
CUT
10
77.984
20
56.7756
0
VERTEX
8
CUT
10
84.984
20
56.7756
0
VERTEX
8
CUT
10
87.734
20
61.5388
0
SEQEND
0
POLYLINE
8
CUT
66
1
70
0
0
VERTEX
8
CUT
10
75.234
20
64.1369
0
VERTEX
8
CUT
10
77.984
20
68.9
0
VERTEX
8
CUT
10
84.984
20
68.9
0
VERTEX
8
CUT
10
87.734
20
64.1369
0
SEQEND
0
POLYLINE
8
CUT
66
1
70
0
0
VERTEX
8
CUT
10
75.234
20
47.2144
0
VERTEX
8
CUT
10
77.984
20
42.4513
0
VERTEX
8
CUT
10
84.984
20
42.4513
0
VERTEX
8
CUT
10
87.734
20
47.2144
0
SEQEND
0
POLYLINE
8
CUT
66
1
70
0
0
VERTEX
8
CUT
10
75.234
20
49.8125
0
VERTEX
8
CUT
10
77.984
20
54.5756
0
VERTEX
8
CUT
10
84.984
20
54.5756
0
VERTEX
8
CUT
10
87.734
20
49.8125
0
SEQEND
0
POLYLINE
8
CUT
66
1
70
0
0
VERTEX
8
CUT
10
75.234
20
32.8901
0
VERTEX
8
CUT
10
77.984
20
28.1269
0
VERTEX
8
CUT
10
84.984
20
28.1269
0
VERTEX
8
CUT
10
87.734
20
32.8901
0
SEQEND
0
POLYLINE
8
CUT
66
1
70
0
0
VERTEX
8
CUT
10
75.234
20
35.4881
0
VERTEX
8
CUT
10
77.984
20
40.2513
0
VERTEX
8
CUT
10
84.984
20
40.2513
0
VERTEX
8
CUT
10
87.734
20
35.4881
0
SEQEND
0
POLYLINE
8
CUT
66
1
70
0
0
VERTEX
8
CUT
10
75.234
20
18.5657
0
VERTEX
8
CUT
10
77.984
20
13.8026
0
VERTEX
8
CUT
10
84.984
20
13.8026
0
VERTEX
8
CUT
10
87.734
20
18.5657
0
SEQEND
0
POLYLINE
8
CUT
66
1
70
0
0
VERTEX
8
CUT
10
75.234
20
21.1638
0
VERTEX
8
CUT
10
77.984
20
25.9269
0
VERTEX
8
CUT
10
84.984
20
25.9269
0
VERTEX
8
CUT
10
87.734
20
21.1638
0
SEQEND
0
LINE
8
CUT
10
75.234
20
4.2414
11
77.6828
21
0
0
LINE
8
CUT
10
85.2852
20
0
11
87.734
21
4.2414
0
POLYLINE
8
CUT
66
1
70
0
0
VERTEX
8
CUT
10
75.234
20
6.8394
0
VERTEX
8
CUT
10
77.984
20
11.6026
0
VERTEX
8
CUT
10
84.984
20
11.6026
0
VERTEX
8
CUT
10
87.734
20
6.8394
0
SEQEND
0
POLYLINE
8
CUT
66
1
70
0
0
VERTEX
8
CUT
10
87.648
20
68.701
0
VERTEX
8
CUT
10
90.398
20
63.9378
0
VERTEX
8
CUT
10
97.398
20
63.9378
0
VERTEX
8
CUT
10
100.148
20
68.701
0
SEQEND
0
POLYLINE
8
CUT
66
1
70
0
0
VERTEX
8
CUT
10
87.648
20
54.3766
0
VERTEX
8
CUT
10
90.398
20
49.6135
0
VERTEX
8
CUT
10
97.398
20
49.6135
0
VERTEX
8
CUT
10
100.148
20
54.3766
0
SEQEND
0
POLYLINE
8
CUT
66
1
70
0
0
VERTEX
8
CUT
10
87.648
20
56.9747
0
VERTEX
8
CUT
10
90.398
20
61.7378
0
VERTEX
8
CUT
10
97.398
20
61.7378
0
VERTEX
8
CUT
10
100.148
20
56.9747
0
SEQEND
0
POLYLINE
8
CUT
66
1
70
0
0
VERTEX
8
CUT
10
87.648
20
40.0523
0
VERTEX
8
CUT
10
90.398
20
35.2891
0
VERTEX
8
CUT
10
97.398
20
35.2891
0
VERTEX
8
CUT
10
100.148
20
40.0523
0
SEQEND
0
POLYLINE
8
CUT
66
1
70
0
0
VERTEX
8
CUT
10
87.648
20
42.6503
0
VERTEX
8
CUT
10
90.398
20
47.4135
0
VERTEX
8
CUT
10
97.398
20
47.4135
0
VERTEX
8
CUT
10
100.148
20
42.6503
0
SEQEND
0
POLYLINE
8
CUT
66
1
70
0
0
VERTEX
8
CUT
10
87.648
20
25.7279
0
VERTEX
8
CUT
10
90.398
20
20.9648
0
VERTEX
8
CUT
10
97.398
20
20.9648
0
VERTEX
8
CUT
10
100.148
20
25.7279
0
SEQEND
0
POLYLINE
8
CUT
66
1
70
0
0
VERTEX
8
CUT
10
87.648
20
28.326
0
VERTEX
8
CUT
10
90.398
20
33.0891
0
VERTEX
8
CUT
10
97.398
20
33.0891
0
VERTEX
8
CUT
10
100.148
20
28.326
0
SEQEND
0
POLYLINE
8
CUT
66
1
70
0
0
VERTEX
8
CUT
10
87.648
20
11.4035
0
VERTEX
8
CUT
10
90.398
20
6.6404
0
VERTEX
8
CUT
10
97.398
20
6.6404
0
VERTEX
8
CUT
10
100.148
20
11.4035
0
SEQEND
0
POLYLINE
8
CUT
66
1
70
0
0
VERTEX
8
CUT
10
87.648
20
14.0016
0
VERTEX
8
CUT
10
90.398
20
18.7648
0
VERTEX
8
CUT
10
97.398
20
18.7648
0
VERTEX
8
CUT
10
100.148
20
14.0016
0
SEQEND
0
POLYLINE
8
CUT
66
1
70
0
0
VERTEX
8
CUT
10
87.8343
20
0
0
VERTEX
8
CUT
10
90.398
20
4.4404
0
VERTEX
8
CUT
10
97.398
20
4.4404
0
VERTEX
8
CUT
10
99.9617
20
0
0
SEQEND
0
POLYLINE
8
CUT
66
1
70
0
0
VERTEX
8
CUT
10
100.062
20
61.5388
0
VERTEX
8
CUT
10
102.812
20
56.7756
0
VERTEX
8
CUT
10
109.812
20
56.7756
0
VERTEX
8
CUT
10
112.562
20
61.5388
0
SEQEND
0
POLYLINE
8
CUT
66
1
70
0
0
VERTEX
8
CUT
10
100.062
20
64.1369
0
VERTEX
8
CUT
10
102.812
20
68.9
0
VERTEX
8
CUT
10
109.812
20
68.9
0
VERTEX
8
CUT
10
112.562
20
64.1369
0
SEQEND
0
POLYLINE
8
CUT
66
1
70
0
0
VERTEX
8
CUT
10
100.062
20
47.2144
0
VERTEX
8
CUT
10
102.812
20
42.4513
0
VERTEX
8
CUT
10
109.812
20
42.4513
0
VERTEX
8
CUT
10
112.562
20
47.2144
0
SEQEND
0
POLYLINE
8
CUT
66
1
70
0
0
VERTEX
8
CUT
10
100.062
20
49.8125
0
VERTEX
8
CUT
10
102.812
20
54.5756
0
VERTEX
8
CUT
10
109.812
20
54.5756
0
VERTEX
8
CUT
10
112.562
20
49.8125
0
SEQEND
0
POLYLINE
8
CUT
66
1
70
0
0
VERTEX
8
CUT
10
100.062
20
32.8901
0
VERTEX
8
CUT
10
102.812
20
28.1269
0
VERTEX
8
CUT
10
109.812
20
28.1269
0
VERTEX
8
CUT
10
112.562
20
32.8901
0
SEQEND
0
POLYLINE
8
CUT
66
1
70
0
0
VERTEX
8
CUT
10
100.062
20
35.4881
0
VERTEX
8
CUT
10
102.812
20
40.2513
0
VERTEX
8
CUT
10
109.812
20
40.2513
0
VERTEX
8
CUT
10
112.562
20
35.4881
0
SEQEND
0
POLYLINE
8
CUT
66
1
70
0
0
VERTEX
8
CUT
10
100.062
20
18.5657
0
VERTEX
8
CUT
10
102.812
20
13.8026
0
VERTEX
8
CUT
10
109.812
20
13.8026
0
VERTEX
8
CUT
10
112.562
20
18.5657
0
SEQEND
0
POLYLINE
8
CUT
66
1
70
0
0
VERTEX
8
CUT
10
100.062
20
21.1638
0
VERTEX
8
CUT
10
102.812
20
25.9269
0
VERTEX
8
CUT
10
109.812
20
25.9269
0
VERTEX
8
CUT
10
112.562
20
21.1638
0
SEQEND
0
LINE
8
CUT
10
100.062
20
4.2414
11
102.5108
21
0
0
LINE
8
CUT
10
110.1132
20
0
11
112.562
21
4.2414
0
POLYLINE
8
CUT
66
1
70
0
0
VERTEX
8
CUT
10
100.062
20
6.8394
0
VERTEX
8
CUT
10
102.812
20
11.6026
0
VERTEX
8
CUT
10
109.812
20
11.6026
0
VERTEX
8
CUT
10
112.562
20
6.8394
0
SEQEND
0
POLYLINE
8
CUT
66
1
70
0
0
VERTEX
8
CUT
10
112.476
20
68.701
0
VERTEX
8
CUT
10
115.226
20
63.9378
0
VERTEX
8
CUT
10
120
20
63.9378
0
SEQEND
0
POLYLINE
8
CUT
66
1
70
0
0
VERTEX
8
CUT
10
112.476
20
54.3766
0
VERTEX
8
CUT
10
115.226
20
49.6135
0
VERTEX
8
CUT
10
120
20
49.6135
0
SEQEND
0
POLYLINE
8
CUT
66
1
70
0
0
VERTEX
8
CUT
10
112.476
20
56.9747
0
VERTEX
8
CUT
10
115.226
20
61.7378
0
VERTEX
8
CUT
10
120
20
61.7378
0
SEQEND
0
POLYLINE
8
CUT
66
1
70
0
0
VERTEX
8
CUT
10
112.476
20
40.0523
0
VERTEX
8
CUT
10
115.226
20
35.2891
0
VERTEX
8
CUT
10
120
20
35.2891
0
SEQEND
0
POLYLINE
8
CUT
66
1
70
0
0
VERTEX
8
CUT
10
112.476
20
42.6503
0
VERTEX
8
CUT
10
115.226
20
47.4135
0
VERTEX
8
CUT
10
120
20
47.4135
0
SEQEND
0
POLYLINE
8
CUT
66
1
70
0
0
VERTEX
8
CUT
10
112.476
20
25.7279
0
VERTEX
8
CUT
10
115.226
20
20.9648
0
VERTEX
8
CUT
10
120
20
20.9648
0
SEQEND
0
POLYLINE
8
CUT
66
1
70
0
0
VERTEX
8
CUT
10
112.476
20
28.326
0
VERTEX
8
CUT
10
115.226
20
33.0891
0
VERTEX
8
CUT
10
120
20
33.0891
0
SEQEND
0
POLYLINE
8
CUT
66
1
70
0
0
VERTEX
8
CUT
10
112.476
20
11.4035
0
VERTEX
8
CUT
10
115.226
20
6.6404
0
VERTEX
8
CUT
10
120
20
6.6404
0
SEQEND
0
POLYLINE
8
CUT
66
1
70
0
0
VERTEX
8
CUT
10
112.476
20
14.0016
0
VERTEX
8
CUT
10
115.226
20
18.7648
0
VERTEX
8
CUT
10
120
20
18.7648
0
SEQEND
0
POLYLINE
8
CUT
66
1
70
0
0
VERTEX
8
CUT
10
112.6623
20
0
0
VERTEX
8
CUT
10
115.226
20
4.4404
0
VERTEX
8
CUT
10
120
20
4.4404
0
SEQEND
0
POLYLINE
8
CUT
66
1
70
0
0
VERTEX
8
CUT
10
0
20
70
0
VERTEX
8
CUT
10
120
20
70
0
VERTEX
8
CUT
10
120
20
0
0
VERTEX
8
CUT
10
0
20
0
0
VERTEX
8
CUT
10
0
20
70
0
SEQEND
0
ENDSEC
0
EOF
