0
SECTION
2
HEADER
9
$ACADVER
1
AC1009
9
$INSUNITS
70
4
0
ENDSEC
0
SECTION
2
TABLES
0
TABLE
2
LAYER
70
1
0
LAYER
2
CUT
70
0
62
1
6
CONTINUOUS
0
ENDTAB
0
ENDSEC
0
SECTION
2
ENTITIES
0
LINE
8
CUT
10
2.747
20
70
11
1.299
21
69.164
0
LINE
8
CUT
10
17.0714
20
70
11
15.6234
21
69.164
0
LINE
8
CUT
10
11.5773
20
70
11
13.0253
21
69.164
0
LINE
8
CUT
10
31.3957
20
70
11
29.9477
21
69.164
0
LINE
8
CUT
10
25.9017
20
70
11
27.3497
21
69.164
0
LINE
8
CUT
10
45.7201
20
70
11
44.2721
21
69.164
0
LINE
8
CUT
10
40.226
20
70
11
41.674
21
69.164
0
LINE
8
CUT
10
60.0445
20
70
11
58.5965
21
69.164
0
LINE
8
CUT
10
54.5504
20
70
11
55.9984
21
69.164
0
LINE
8
CUT
10
74.3688
20
70
11
72.9208
21
69.164
0
LINE
8
CUT
10
68.8747
20
70
11
70.3227
21
69.164
0
LINE
8
CUT
10
88.6932
20
70
11
87.2452
21
69.164
0
LINE
8
CUT
10
83.1991
20
70
11
84.6471
21
69.164
0
LINE
8
CUT
10
103.0175
20
70
11
101.5695
21
69.164
0
LINE
8
CUT
10
97.5235
20
70
11
98.9715
21
69.164
0
LINE
8
CUT
10
117.3419
20
70
11
115.8939
21
69.164
0
LINE
8
CUT
10
111.8478
20
70
11
113.2958
21
69.164
0
POLYLINE
8
CUT
66
1
70
0
0
VERTEX
8
CUT
10
8.4612
20
69.25
0
VERTEX
8
CUT
10
13.2244
20
66.5
0
VERTEX
8
CUT
10
13.2244
20
59.5
0
VERTEX
8
CUT
10
8.4612
20
56.75
0
SEQEND
0
POLYLINE
8
CUT
66
1
70
0
0
VERTEX
8
CUT
10
5.8631
20
69.25
0
VERTEX
8
CUT
10
1.1
20
66.5
0
VERTEX
8
CUT
10
1.1
20
59.5
0
VERTEX
8
CUT
10
5.8631
20
56.75
0
SEQEND
0
POLYLINE
8
CUT
66
1
70
0
0
VERTEX
8
CUT
10
22.7856
20
69.25
0
VERTEX
8
CUT
10
27.5487
20
66.5
0
VERTEX
8
CUT
10
27.5487
20
59.5
0
VERTEX
8
CUT
10
22.7856
20
56.75
0
SEQEND
0
POLYLINE
8
CUT
66
1
70
0
0
VERTEX
8
CUT
10
20.1875
20
69.25
0
VERTEX
8
CUT
10
15.4244
20
66.5
0
VERTEX
8
CUT
10
15.4244
20
59.5
0
VERTEX
8
CUT
10
20.1875
20
56.75
0
SEQEND
0
POLYLINE
8
CUT
66
1
70
0
0
VERTEX
8
CUT
10
37.1099
20
69.25
0
VERTEX
8
CUT
10
41.8731
20
66.5
0
VERTEX
8
CUT
10
41.8731
20
59.5
0
VERTEX
8
CUT
10
37.1099
20
56.75
0
SEQEND
0
POLYLINE
8
CUT
66
1
70
0
0
VERTEX
8
CUT
10
34.5119
20
69.25
0
VERTEX
8
CUT
10
29.7487
20
66.5
0
VERTEX
8
CUT
10
29.7487
20
59.5
0
VERTEX
8
CUT
10
34.5119
20
56.75
0
SEQEND
0
POLYLINE
8
CUT
66
1
70
0
0
VERTEX
8
CUT
10
51.4343
20
69.25
0
VERTEX
8
CUT
10
56.1974
20
66.5
0
VERTEX
8
CUT
10
56.1974
20
59.5
0
VERTEX
8
CUT
10
51.4343
20
56.75
0
SEQEND
0
POLYLINE
8
CUT
66
1
70
0
0
VERTEX
8
CUT
10
48.8362
20
69.25
0
VERTEX
8
CUT
10
44.0731
20
66.5
0
VERTEX
8
CUT
10
44.0731
20
59.5
0
VERTEX
8
CUT
10
48.8362
20
56.75
0
SEQEND
0
POLYLINE
8
CUT
66
1
70
0
0
VERTEX
8
CUT
10
65.7586
20
69.25
0
VERTEX
8
CUT
10
70.5218
20
66.5
0
VERTEX
8
CUT
10
70.5218
20
59.5
0
VERTEX
8
CUT
10
65.7586
20
56.75
0
SEQEND
0
POLYLINE
8
CUT
66
1
70
0
0
VERTEX
8
CUT
10
63.1606
20
69.25
0
VERTEX
8
CUT
10
58.3974
20
66.5
0
VERTEX
8
CUT
10
58.3974
20
59.5
0
VERTEX
8
CUT
10
63.1606
20
56.75
0
SEQEND
0
POLYLINE
8
CUT
66
1
70
0
0
VERTEX
8
CUT
10
80.083
20
69.25
0
VERTEX
8
CUT
10
84.8461
20
66.5
0
VERTEX
8
CUT
10
84.8461
20
59.5
0
VERTEX
8
CUT
10
80.083
20
56.75
0
SEQEND
0
POLYLINE
8
CUT
66
1
70
0
0
VERTEX
8
CUT
10
77.4849
20
69.25
0
VERTEX
8
CUT
10
72.7218
20
66.5
0
VERTEX
8
CUT
10
72.7218
20
59.5
0
VERTEX
8
CUT
10
77.4849
20
56.75
0
SEQEND
0
POLYLINE
8
CUT
66
1
70
0
0
VERTEX
8
CUT
10
94.4073
20
69.25
0
VERTEX
8
CUT
10
99.1705
20
66.5
0
VERTEX
8
CUT
10
99.1705
20
59.5
0
VERTEX
8
CUT
10
94.4073
20
56.75
0
SEQEND
0
POLYLINE
8
CUT
66
1
70
0
0
VERTEX
8
CUT
10
91.8093
20
69.25
0
VERTEX
8
CUT
10
87.0461
20
66.5
0
VERTEX
8
CUT
10
87.0461
20
59.5
0
VERTEX
8
CUT
10
91.8093
20
56.75
0
SEQEND
0
POLYLINE
8
CUT
66
1
70
0
0
VERTEX
8
CUT
10
108.7317
20
69.25
0
VERTEX
8
CUT
10
113.4948
20
66.5
0
VERTEX
8
CUT
10
113.4948
20
59.5
0
VERTEX
8
CUT
10
108.7317
20
56.75
0
SEQEND
0
POLYLINE
8
CUT
66
1
70
0
0
VERTEX
8
CUT
10
106.1336
20
69.25
0
VERTEX
8
CUT
10
101.3705
20
66.5
0
VERTEX
8
CUT
10
101.3705
20
59.5
0
VERTEX
8
CUT
10
106.1336
20
56.75
0
SEQEND
0
POLYLINE
8
CUT
66
1
70
0
0
VERTEX
8
CUT
10
120
20
68.9856
0
VERTEX
8
CUT
10
115.6948
20
66.5
0
VERTEX
8
CUT
10
115.6948
20
59.5
0
VERTEX
8
CUT
10
120
20
57.0144
0
SEQEND
0
POLYLINE
8
CUT
66
1
70
0
0
VERTEX
8
CUT
10
1.299
20
56.836
0
VERTEX
8
CUT
10
6.0622
20
54.086
0
VERTEX
8
CUT
10
6.0622
20
47.086
0
VERTEX
8
CUT
10
1.299
20
44.336
0
SEQEND
0
POLYLINE
8
CUT
66
1
70
0
0
VERTEX
8
CUT
10
15.6234
20
56.836
0
VERTEX
8
CUT
10
20.3865
20
54.086
0
VERTEX
8
CUT
10
20.3865
20
47.086
0
VERTEX
8
CUT
10
15.6234
20
44.336
0
SEQEND
0
POLYLINE
8
CUT
66
1
70
0
0
VERTEX
8
CUT
10
13.0253
20
56.836
0
VERTEX
8
CUT
10
8.2622
20
54.086
0
VERTEX
8
CUT
10
8.2622
20
47.086
0
VERTEX
8
CUT
10
13.0253
20
44.336
0
SEQEND
0
POLYLINE
8
CUT
66
1
70
0
0
VERTEX
8
CUT
10
29.9477
20
56.836
0
VERTEX
8
CUT
10
34.7109
20
54.086
0
VERTEX
8
CUT
10
34.7109
20
47.086
0
VERTEX
8
CUT
10
29.9477
20
44.336
0
SEQEND
0
POLYLINE
8
CUT
66
1
70
0
0
VERTEX
8
CUT
10
27.3497
20
56.836
0
VERTEX
8
CUT
10
22.5865
20
54.086
0
VERTEX
8
CUT
10
22.5865
20
47.086
0
VERTEX
8
CUT
10
27.3497
20
44.336
0
SEQEND
0
POLYLINE
8
CUT
66
1
70
0
0
VERTEX
8
CUT
10
44.2721
20
56.836
0
VERTEX
8
CUT
10
49.0352
20
54.086
0
VERTEX
8
CUT
10
49.0352
20
47.086
0
VERTEX
8
CUT
10
44.2721
20
44.336
0
SEQEND
0
POLYLINE
8
CUT
66
1
70
0
0
VERTEX
8
CUT
10
41.674
20
56.836
0
VERTEX
8
CUT
10
36.9109
20
54.086
0
VERTEX
8
CUT
10
36.9109
20
47.086
0
VERTEX
8
CUT
10
41.674
20
44.336
0
SEQEND
0
POLYLINE
8
CUT
66
1
70
0
0
VERTEX
8
CUT
10
58.5965
20
56.836
0
VERTEX
8
CUT
10
63.3596
20
54.086
0
VERTEX
8
CUT
10
63.3596
20
47.086
0
VERTEX
8
CUT
10
58.5965
20
44.336
0
SEQEND
0
POLYLINE
8
CUT
66
1
70
0
0
VERTEX
8
CUT
10
55.9984
20
56.836
0
VERTEX
8
CUT
10
51.2352
20
54.086
0
VERTEX
8
CUT
10
51.2352
20
47.086
0
VERTEX
8
CUT
10
55.9984
20
44.336
0
SEQEND
0
POLYLINE
8
CUT
66
1
70
0
0
VERTEX
8
CUT
10
72.9208
20
56.836
0
VERTEX
8
CUT
10
77.684
20
54.086
0
VERTEX
8
CUT
10
77.684
20
47.086
0
VERTEX
8
CUT
10
72.9208
20
44.336
0
SEQEND
0
POLYLINE
8
CUT
66
1
70
0
0
VERTEX
8
CUT
10
70.3227
20
56.836
0
VERTEX
8
CUT
10
65.5596
20
54.086
0
VERTEX
8
CUT
10
65.5596
20
47.086
0
VERTEX
8
CUT
10
70.3227
20
44.336
0
SEQEND
0
POLYLINE
8
CUT
66
1
70
0
0
VERTEX
8
CUT
10
87.2452
20
56.836
0
VERTEX
8
CUT
10
92.0083
20
54.086
0
VERTEX
8
CUT
10
92.0083
20
47.086
0
VERTEX
8
CUT
10
87.2452
20
44.336
0
SEQEND
0
POLYLINE
8
CUT
66
1
70
0
0
VERTEX
8
CUT
10
84.6471
20
56.836
0
VERTEX
8
CUT
10
79.884
20
54.086
0
VERTEX
8
CUT
10
79.884
20
47.086
0
VERTEX
8
CUT
10
84.6471
20
44.336
0
SEQEND
0
POLYLINE
8
CUT
66
1
70
0
0
VERTEX
8
CUT
10
101.5695
20
56.836
0
VERTEX
8
CUT
10
106.3327
20
54.086
0
VERTEX
8
CUT
10
106.3327
20
47.086
0
VERTEX
8
CUT
10
101.5695
20
44.336
0
SEQEND
0
POLYLINE
8
CUT
66
1
70
0
0
VERTEX
8
CUT
10
98.9715
20
56.836
0
VERTEX
8
CUT
10
94.2083
20
54.086
0
VERTEX
8
CUT
10
94.2083
20
47.086
0
VERTEX
8
CUT
10
98.9715
20
44.336
0
SEQEND
0
LINE
8
CUT
10
115.8939
20
56.836
11
120
21
54.4653
0
LINE
8
CUT
10
120
20
46.7067
11
115.8939
21
44.336
0
POLYLINE
8
CUT
66
1
70
0
0
VERTEX
8
CUT
10
113.2958
20
56.836
0
VERTEX
8
CUT
10
108.5327
20
54.086
0
VERTEX
8
CUT
10
108.5327
20
47.086
0
VERTEX
8
CUT
10
113.2958
20
44.336
0
SEQEND
0
POLYLINE
8
CUT
66
1
70
0
0
VERTEX
8
CUT
10
8.4612
20
44.422
0
VERTEX
8
CUT
10
13.2244
20
41.672
0
VERTEX
8
CUT
10
13.2244
20
34.672
0
VERTEX
8
CUT
10
8.4612
20
31.922
0
SEQEND
0
POLYLINE
8
CUT
66
1
70
0
0
VERTEX
8
CUT
10
5.8631
20
44.422
0
VERTEX
8
CUT
10
1.1
20
41.672
0
VERTEX
8
CUT
10
1.1
20
34.672
0
VERTEX
8
CUT
10
5.8631
20
31.922
0
SEQEND
0
POLYLINE
8
CUT
66
1
70
0
0
VERTEX
8
CUT
10
22.7856
20
44.422
0
VERTEX
8
CUT
10
27.5487
20
41.672
0
VERTEX
8
CUT
10
27.5487
20
34.672
0
VERTEX
8
CUT
10
22.7856
20
31.922
0
SEQEND
0
POLYLINE
8
CUT
66
1
70
0
0
VERTEX
8
CUT
10
20.1875
20
44.422
0
VERTEX
8
CUT
10
15.4244
20
41.672
0
VERTEX
8
CUT
10
15.4244
20
34.672
0
VERTEX
8
CUT
10
20.1875
20
31.922
0
SEQEND
0
POLYLINE
8
CUT
66
1
70
0
0
VERTEX
8
CUT
10
37.1099
20
44.422
0
VERTEX
8
CUT
10
41.8731
20
41.672
0
VERTEX
8
CUT
10
41.8731
20
34.672
0
VERTEX
8
CUT
10
37.1099
20
31.922
0
SEQEND
0
POLYLINE
8
CUT
66
1
70
0
0
VERTEX
8
CUT
10
34.5119
20
44.422
0
VERTEX
8
CUT
10
29.7487
20
41.672
0
VERTEX
8
CUT
10
29.7487
20
34.672
0
VERTEX
8
CUT
10
34.5119
20
31.922
0
SEQEND
0
POLYLINE
8
CUT
66
1
70
0
0
VERTEX
8
CUT
10
51.4343
20
44.422
0
VERTEX
8
CUT
10
56.1974
20
41.672
0
VERTEX
8
CUT
10
56.1974
20
34.672
0
VERTEX
8
CUT
10
51.4343
20
31.922
0
SEQEND
0
POLYLINE
8
CUT
66
1
70
0
0
VERTEX
8
CUT
10
48.8362
20
44.422
0
VERTEX
8
CUT
10
44.0731
20
41.672
0
VERTEX
8
CUT
10
44.0731
20
34.672
0
VERTEX
8
CUT
10
48.8362
20
31.922
0
SEQEND
0
POLYLINE
8
CUT
66
1
70
0
0
VERTEX
8
CUT
10
65.7586
20
44.422
0
VERTEX
8
CUT
10
70.5218
20
41.672
0
VERTEX
8
CUT
10
70.5218
20
34.672
0
VERTEX
8
CUT
10
65.7586
20
31.922
0
SEQEND
0
POLYLINE
8
CUT
66
1
70
0
0
VERTEX
8
CUT
10
63.1606
20
44.422
0
VERTEX
8
CUT
10
58.3974
20
41.672
0
VERTEX
8
CUT
10
58.3974
20
34.672
0
VERTEX
8
CUT
10
63.1606
20
31.922
0
SEQEND
0
POLYLINE
8
CUT
66
1
70
0
0
VERTEX
8
CUT
10
80.083
20
44.422
0
VERTEX
8
CUT
10
84.8461
20
41.672
0
VERTEX
8
CUT
10
84.8461
20
34.672
0
VERTEX
8
CUT
10
80.083
20
31.922
0
SEQEND
0
POLYLINE
8
CUT
66
1
70
0
0
VERTEX
8
CUT
10
77.4849
20
44.422
0
VERTEX
8
CUT
10
72.7218
20
41.672
0
VERTEX
8
CUT
10
72.7218
20
34.672
0
VERTEX
8
CUT
10
77.4849
20
31.922
0
SEQEND
0
POLYLINE
8
CUT
66
1
70
0
0
VERTEX
8
CUT
10
94.4073
20
44.422
0
VERTEX
8
CUT
10
99.1705
20
41.672
0
VERTEX
8
CUT
10
99.1705
20
34.672
0
VERTEX
8
CUT
10
94.4073
20
31.922
0
SEQEND
0
POLYLINE
8
CUT
66
1
70
0
0
VERTEX
8
CUT
10
91.8093
20
44.422
0
VERTEX
8
CUT
10
87.0461
20
41.672
0
VERTEX
8
CUT
10
87.0461
20
34.672
0
VERTEX
8
CUT
10
91.8093
20
31.922
0
SEQEND
0
POLYLINE
8
CUT
66
1
70
0
0
VERTEX
8
CUT
10
108.7317
20
44.422
0
VERTEX
8
CUT
10
113.4948
20
41.672
0
VERTEX
8
CUT
10
113.4948
20
34.672
0
VERTEX
8
CUT
10
108.7317
20
31.922
0
SEQEND
0
POLYLINE
8
CUT
66
1
70
0
0
VERTEX
8
CUT
10
106.1336
20
44.422
0
VERTEX
8
CUT
10
101.3705
20
41.672
0
VERTEX
8
CUT
10
101.3705
20
34.672
0
VERTEX
8
CUT
10
106.1336
20
31.922
0
SEQEND
0
POLYLINE
8
CUT
66
1
70
0
0
VERTEX
8
CUT
10
120
20
44.1576
0
VERTEX
8
CUT
10
115.6948
20
41.672
0
VERTEX
8
CUT
10
115.6948
20
34.672
0
VERTEX
8
CUT
10
120
20
32.1864
0
SEQEND
0
POLYLINE
8
CUT
66
1
70
0
0
VERTEX
8
CUT
10
1.299
20
32.008
0
VERTEX
8
CUT
10
6.0622
20
29.258
0
VERTEX
8
CUT
10
6.0622
20
22.258
0
VERTEX
8
CUT
10
1.299
20
19.508
0
SEQEND
0
POLYLINE
8
CUT
66
1
70
0
0
VERTEX
8
CUT
10
15.6234
20
32.008
0
VERTEX
8
CUT
10
20.3865
20
29.258
0
VERTEX
8
CUT
10
20.3865
20
22.258
0
VERTEX
8
CUT
10
15.6234
20
19.508
0
SEQEND
0
POLYLINE
8
CUT
66
1
70
0
0
VERTEX
8
CUT
10
13.0253
20
32.008
0
VERTEX
8
CUT
10
8.2622
20
29.258
0
VERTEX
8
CUT
10
8.2622
20
22.258
0
VERTEX
8
CUT
10
13.0253
20
19.508
0
SEQEND
0
POLYLINE
8
CUT
66
1
70
0
0
VERTEX
8
CUT
10
29.9477
20
32.008
0
VERTEX
8
CUT
10
34.7109
20
29.258
0
VERTEX
8
CUT
10
34.7109
20
22.258
0
VERTEX
8
CUT
10
29.9477
20
19.508
0
SEQEND
0
POLYLINE
8
CUT
66
1
70
0
0
VERTEX
8
CUT
10
27.3497
20
32.008
0
VERTEX
8
CUT
10
22.5865
20
29.258
0
VERTEX
8
CUT
10
22.5865
20
22.258
0
VERTEX
8
CUT
10
27.3497
20
19.508
0
SEQEND
0
POLYLINE
8
CUT
66
1
70
0
0
VERTEX
8
CUT
10
44.2721
20
32.008
0
VERTEX
8
CUT
10
49.0352
20
29.258
0
VERTEX
8
CUT
10
49.0352
20
22.258
0
VERTEX
8
CUT
10
44.2721
20
19.508
0
SEQEND
0
POLYLINE
8
CUT
66
1
70
0
0
VERTEX
8
CUT
10
41.674
20
32.008
0
VERTEX
8
CUT
10
36.9109
20
29.258
0
VERTEX
8
CUT
10
36.9109
20
22.258
0
VERTEX
8
CUT
10
41.674
20
19.508
0
SEQEND
0
POLYLINE
8
CUT
66
1
70
0
0
VERTEX
8
CUT
10
58.5965
20
32.008
0
VERTEX
8
CUT
10
63.3596
20
29.258
0
VERTEX
8
CUT
10
63.3596
20
22.258
0
VERTEX
8
CUT
10
58.5965
20
19.508
0
SEQEND
0
POLYLINE
8
CUT
66
1
70
0
0
VERTEX
8
CUT
10
55.9984
20
32.008
0
VERTEX
8
CUT
10
51.2352
20
29.258
0
VERTEX
8
CUT
10
51.2352
20
22.258
0
VERTEX
8
CUT
10
55.9984
20
19.508
0
SEQEND
0
POLYLINE
8
CUT
66
1
70
0
0
VERTEX
8
CUT
10
72.9208
20
32.008
0
VERTEX
8
CUT
10
77.684
20
29.258
0
VERTEX
8
CUT
10
77.684
20
22.258
0
VERTEX
8
CUT
10
72.9208
20
19.508
0
SEQEND
0
POLYLINE
8
CUT
66
1
70
0
0
VERTEX
8
CUT
10
70.3227
20
32.008
0
VERTEX
8
CUT
10
65.5596
20
29.258
0
VERTEX
8
CUT
10
65.5596
20
22.258
0
VERTEX
8
CUT
10
70.3227
20
19.508
0
SEQEND
0
POLYLINE
8
CUT
66
1
70
0
0
VERTEX
8
CUT
10
87.2452
20
32.008
0
VERTEX
8
CUT
10
92.0083
20
29.258
0
VERTEX
8
CUT
10
92.0083
20
22.258
0
VERTEX
8
CUT
10
87.2452
20
19.508
0
SEQEND
0
POLYLINE
8
CUT
66
1
70
0
0
VERTEX
8
CUT
10
84.6471
20
32.008
0
VERTEX
8
CUT
10
79.884
20
29.258
0
VERTEX
8
CUT
10
79.884
20
22.258
0
VERTEX
8
CUT
10
84.6471
20
19.508
0
SEQEND
0
POLYLINE
8
CUT
66
1
70
0
0
VERTEX
8
CUT
10
101.5695
20
32.008
0
VERTEX
8
CUT
10
106.3327
20
29.258
0
VERTEX
8
CUT
10
106.3327
20
22.258
0
VERTEX
8
CUT
10
101.5695
20
19.508
0
SEQEND
0
POLYLINE
8
CUT
66
1
70
0
0
VERTEX
8
CUT
10
98.9715
20
32.008
0
VERTEX
8
CUT
10
94.2083
20
29.258
0
VERTEX
8
CUT
10
94.2083
20
22.258
0
VERTEX
8
CUT
10
98.9715
20
19.508
0
SEQEND
0
LINE
8
CUT
10
115.8939
20
32.008
11
120
21
29.6373
0
LINE
8
CUT
10
120
20
21.8787
11
115.8939
21
19.508
0
POLYLINE
8
CUT
66
1
70
0
0
VERTEX
8
CUT
10
113.2958
20
32.008
0
VERTEX
8
CUT
10
108.5327
20
29.258
0
VERTEX
8
CUT
10
108.5327
20
22.258
0
VERTEX
8
CUT
10
113.2958
20
19.508
0
SEQEND
0
POLYLINE
8
CUT
66
1
70
0
0
VERTEX
8
CUT
10
8.4612
20
19.594
0
VERTEX
8
CUT
10
13.2244
20
16.844
0
VERTEX
8
CUT
10
13.2244
20
9.844
0
VERTEX
8
CUT
10
8.4612
20
7.094
0
SEQEND
0
POLYLINE
8
CUT
66
1
70
0
0
VERTEX
8
CUT
10
5.8631
20
19.594
0
VERTEX
8
CUT
10
1.1
20
16.844
0
VERTEX
8
CUT
10
1.1
20
9.844
0
VERTEX
8
CUT
10
5.8631
20
7.094
0
SEQEND
0
POLYLINE
8
CUT
66
1
70
0
0
VERTEX
8
CUT
10
22.7856
20
19.594
0
VERTEX
8
CUT
10
27.5487
20
16.844
0
VERTEX
8
CUT
10
27.5487
20
9.844
0
VERTEX
8
CUT
10
22.7856
20
7.094
0
SEQEND
0
POLYLINE
8
CUT
66
1
70
0
0
VERTEX
8
CUT
10
20.1875
20
19.594
0
VERTEX
8
CUT
10
15.4244
20
16.844
0
VERTEX
8
CUT
10
15.4244
20
9.844
0
VERTEX
8
CUT
10
20.1875
20
7.094
0
SEQEND
0
POLYLINE
8
CUT
66
1
70
0
0
VERTEX
8
CUT
10
37.1099
20
19.594
0
VERTEX
8
CUT
10
41.8731
20
16.844
0
VERTEX
8
CUT
10
41.8731
20
9.844
0
VERTEX
8
CUT
10
37.1099
20
7.094
0
SEQEND
0
POLYLINE
8
CUT
66
1
70
0
0
VERTEX
8
CUT
10
34.5119
20
19.594
0
VERTEX
8
CUT
10
29.7487
20
16.844
0
VERTEX
8
CUT
10
29.7487
20
9.844
0
VERTEX
8
CUT
10
34.5119
20
7.094
0
SEQEND
0
POLYLINE
8
CUT
66
1
70
0
0
VERTEX
8
CUT
10
51.4343
20
19.594
0
VERTEX
8
CUT
10
56.1974
20
16.844
0
VERTEX
8
CUT
10
56.1974
20
9.844
0
VERTEX
8
CUT
10
51.4343
20
7.094
0
SEQEND
0
POLYLINE
8
CUT
66
1
70
0
0
VERTEX
8
CUT
10
48.8362
20
19.594
0
VERTEX
8
CUT
10
44.0731
20
16.844
0
VERTEX
8
CUT
10
44.0731
20
9.844
0
VERTEX
8
CUT
10
48.8362
20
7.094
0
SEQEND
0
POLYLINE
8
CUT
66
1
70
0
0
VERTEX
8
CUT
10
65.7586
20
19.594
0
VERTEX
8
CUT
10
70.5218
20
16.844
0
VERTEX
8
CUT
10
70.5218
20
9.844
0
VERTEX
8
CUT
10
65.7586
20
7.094
0
SEQEND
0
POLYLINE
8
CUT
66
1
70
0
0
VERTEX
8
CUT
10
63.1606
20
19.594
0
VERTEX
8
CUT
10
58.3974
20
16.844
0
VERTEX
8
CUT
10
58.3974
20
9.844
0
VERTEX
8
CUT
10
63.1606
20
7.094
0
SEQEND
0
POLYLINE
8
CUT
66
1
70
0
0
VERTEX
8
CUT
10
80.083
20
19.594
0
VERTEX
8
CUT
10
84.8461
20
16.844
0
VERTEX
8
CUT
10
84.8461
20
9.844
0
VERTEX
8
CUT
10
80.083
20
7.094
0
SEQEND
0
POLYLINE
8
CUT
66
1
70
0
0
VERTEX
8
CUT
10
77.4849
20
19.594
0
VERTEX
8
CUT
10
72.7218
20
16.844
0
VERTEX
8
CUT
10
72.7218
20
9.844
0
VERTEX
8
CUT
10
77.4849
20
7.094
0
SEQEND
0
POLYLINE
8
CUT
66
1
70
0
0
VERTEX
8
CUT
10
94.4073
20
19.594
0
VERTEX
8
CUT
10
99.1705
20
16.844
0
VERTEX
8
CUT
10
99.1705
20
9.844
0
VERTEX
8
CUT
10
94.4073
20
7.094
0
SEQEND
0
POLYLINE
8
CUT
66
1
70
0
0
VERTEX
8
CUT
10
91.8093
20
19.594
0
VERTEX
8
CUT
10
87.0461
20
16.844
0
VERTEX
8
CUT
10
87.0461
20
9.844
0
VERTEX
8
CUT
10
91.8093
20
7.094
0
SEQEND
0
POLYLINE
8
CUT
66
1
70
0
0
VERTEX
8
CUT
10
108.7317
20
19.594
0
VERTEX
8
CUT
10
113.4948
20
16.844
0
VERTEX
8
CUT
10
113.4948
20
9.844
0
VERTEX
8
CUT
10
108.7317
20
7.094
0
SEQEND
0
POLYLINE
8
CUT
66
1
70
0
0
VERTEX
8
CUT
10
106.1336
20
19.594
0
VERTEX
8
CUT
10
101.3705
20
16.844
0
VERTEX
8
CUT
10
101.3705
20
9.844
0
VERTEX
8
CUT
10
106.1336
20
7.094
0
SEQEND
0
POLYLINE
8
CUT
66
1
70
0
0
VERTEX
8
CUT
10
120
20
19.3296
0
VERTEX
8
CUT
10
115.6948
20
16.844
0
VERTEX
8
CUT
10
115.6948
20
9.844
0
VERTEX
8
CUT
10
120
20
7.3584
0
SEQEND
0
POLYLINE
8
CUT
66
1
70
0
0
VERTEX
8
CUT
10
1.299
20
7.18
0
VERTEX
8
CUT
10
6.0622
20
4.43
0
VERTEX
8
CUT
10
6.0622
20
0
0
SEQEND
0
POLYLINE
8
CUT
66
1
70
0
0
VERTEX
8
CUT
10
15.6234
20
7.18
0
VERTEX
8
CUT
10
20.3865
20
4.43
0
VERTEX
8
CUT
10
20.3865
20
0
0
SEQEND
0
POLYLINE
8
CUT
66
1
70
0
0
VERTEX
8
CUT
10
13.0253
20
7.18
0
VERTEX
8
CUT
10
8.2622
20
4.43
0
VERTEX
8
CUT
10
8.2622
20
0
0
SEQEND
0
POLYLINE
8
CUT
66
1
70
0
0
VERTEX
8
CUT
10
29.9477
20
7.18
0
VERTEX
8
CUT
10
34.7109
20
4.43
0
VERTEX
8
CUT
10
34.7109
20
0
0
SEQEND
0
POLYLINE
8
CUT
66
1
70
0
0
VERTEX
8
CUT
10
27.3497
20
7.18
0
VERTEX
8
CUT
10
22.5865
20
4.43
0
VERTEX
8
CUT
10
22.5865
20
0
0
SEQEND
0
POLYLINE
8
CUT
66
1
70
0
0
VERTEX
8
CUT
10
44.2721
20
7.18
0
VERTEX
8
CUT
10
49.0352
20
4.43
0
VERTEX
8
CUT
10
49.0352
20
0
0
SEQEND
0
POLYLINE
8
CUT
66
1
70
0
0
VERTEX
8
CUT
10
41.674
20
7.18
0
VERTEX
8
CUT
10
36.9109
20
4.43
0
VERTEX
8
CUT
10
36.9109
20
0
0
SEQEND
0
POLYLINE
8
CUT
66
1
70
0
0
VERTEX
8
CUT
10
58.5965
20
7.18
0
VERTEX
8
CUT
10
63.3596
20
4.43
0
VERTEX
8
CUT
10
63.3596
20
0
0
SEQEND
0
POLYLINE
8
CUT
66
1
70
0
0
VERTEX
8
CUT
10
55.9984
20
7.18
0
VERTEX
8
CUT
10
51.2352
20
4.43
0
VERTEX
8
CUT
10
51.2352
20
0
0
SEQEND
0
POLYLINE
8
CUT
66
1
70
0
0
VERTEX
8
CUT
10
72.9208
20
7.18
0
VERTEX
8
CUT
10
77.684
20
4.43
0
VERTEX
8
CUT
10
77.684
20
0
0
SEQEND
0
POLYLINE
8
CUT
66
1
70
0
0
VERTEX
8
CUT
10
70.3227
20
7.18
0
VERTEX
8
CUT
10
65.5596
20
4.43
0
VERTEX
8
CUT
10
65.5596
20
0
0
SEQEND
0
POLYLINE
8
CUT
66
1
70
0
0
VERTEX
8
CUT
10
87.2452
20
7.18
0
VERTEX
8
CUT
10
92.0083
20
4.43
0
VERTEX
8
CUT
10
92.0083
20
0
0
SEQEND
0
POLYLINE
8
CUT
66
1
70
0
0
VERTEX
8
CUT
10
84.6471
20
7.18
0
VERTEX
8
CUT
10
79.884
20
4.43
0
VERTEX
8
CUT
10
79.884
20
0
0
SEQEND
0
POLYLINE
8
CUT
66
1
70
0
0
VERTEX
8
CUT
10
101.5695
20
7.18
0
VERTEX
8
CUT
10
106.3327
20
4.43
0
VERTEX
8
CUT
10
106.3327
20
0
0
SEQEND
0
POLYLINE
8
CUT
66
1
70
0
0
VERTEX
8
CUT
10
98.9715
20
7.18
0
VERTEX
8
CUT
10
94.2083
20
4.43
0
VERTEX
8
CUT
10
94.2083
20
0
0
SEQEND
0
LINE
8
CUT
10
115.8939
20
7.18
11
120
21
4.8093
0
POLYLINE
8
CUT
66
1
70
0
0
VERTEX
8
CUT
10
113.2958
20
7.18
0
VERTEX
8
CUT
10
108.5327
20
4.43
0
VERTEX
8
CUT
10
108.5327
20
0
0
SEQEND
0
POLYLINE
8
CUT
66
1
70
0
0
VERTEX
8
CUT
10
0
20
70
0
VERTEX
8
CUT
10
120
20
70
0
VERTEX
8
CUT
10
120
20
0
0
VERTEX
8
CUT
10
0
20
0
0
VERTEX
8
CUT
10
0
20
70
0
SEQEND
0
ENDSEC
0
EOF
