0
SECTION
2
HEADER
9
$ACADVER
1
AC1009
9
$INSUNITS
70
4
0
ENDSEC
0
SECTION
2
TABLES
0
TABLE
2
LAYER
70
1
0
LAYER
2
CUT
70
0
62
1
6
CONTINUOUS
0
ENDTAB
0
ENDSEC
0
SECTION
2
ENTITIES
0
POLYLINE
8
CUT
66
1
70
0
0
VERTEX
8
CUT
10
0
20
50.7154
0
VERTEX
8
CUT
10
9.4019
20
50.7154
0
VERTEX
8
CUT
10
0
20
67
0
VERTEX
8
CUT
10
0
20
67
0
SEQEND
0
POLYLINE
8
CUT
66
1
70
0
0
VERTEX
8
CUT
10
6.0538
20
53.5144
0
VERTEX
8
CUT
10
0
20
64
0
VERTEX
8
CUT
10
0
20
64
0
SEQEND
0
LINE
8
CUT
10
0
20
52.2154
11
5.3038
21
52.2154
0
POLYLINE
8
CUT
66
1
70
0
0
VERTEX
8
CUT
10
0
20
53.7154
0
VERTEX
8
CUT
10
4.2058
20
53.7154
0
VERTEX
8
CUT
10
0.75
20
59.701
0
SEQEND
0
LINE
8
CUT
10
1.5
20
70
11
22.5
21
70
0
LINE
8
CUT
10
0.75
20
68.701
11
11.25
21
50.5144
0
LINE
8
CUT
10
23.25
20
68.701
11
12.75
21
50.5144
0
POLYLINE
8
CUT
66
1
70
0
0
VERTEX
8
CUT
10
4.0981
20
68.5
0
VERTEX
8
CUT
10
21.4019
20
68.5
0
VERTEX
8
CUT
10
12
20
52.2154
0
VERTEX
8
CUT
10
3.3481
20
67.201
0
SEQEND
0
POLYLINE
8
CUT
66
1
70
0
0
VERTEX
8
CUT
10
18.0538
20
65.701
0
VERTEX
8
CUT
10
12
20
55.2154
0
VERTEX
8
CUT
10
5.1962
20
67
0
VERTEX
8
CUT
10
17.3038
20
67
0
SEQEND
0
POLYLINE
8
CUT
66
1
70
0
0
VERTEX
8
CUT
10
11.25
20
59.5144
0
VERTEX
8
CUT
10
7.7942
20
65.5
0
VERTEX
8
CUT
10
16.2058
20
65.5
0
VERTEX
8
CUT
10
12.75
20
59.5144
0
SEQEND
0
POLYLINE
8
CUT
66
1
70
0
0
VERTEX
8
CUT
10
16.0981
20
50.7154
0
VERTEX
8
CUT
10
33.4019
20
50.7154
0
VERTEX
8
CUT
10
24
20
67
0
VERTEX
8
CUT
10
15.3481
20
52.0144
0
SEQEND
0
POLYLINE
8
CUT
66
1
70
0
0
VERTEX
8
CUT
10
30.0538
20
53.5144
0
VERTEX
8
CUT
10
24
20
64
0
VERTEX
8
CUT
10
17.1962
20
52.2154
0
VERTEX
8
CUT
10
29.3038
20
52.2154
0
SEQEND
0
POLYLINE
8
CUT
66
1
70
0
0
VERTEX
8
CUT
10
23.25
20
59.701
0
VERTEX
8
CUT
10
19.7942
20
53.7154
0
VERTEX
8
CUT
10
28.2058
20
53.7154
0
VERTEX
8
CUT
10
24.75
20
59.701
0
SEQEND
0
LINE
8
CUT
10
25.5
20
70
11
46.5
21
70
0
LINE
8
CUT
10
24.75
20
68.701
11
35.25
21
50.5144
0
LINE
8
CUT
10
47.25
20
68.701
11
36.75
21
50.5144
0
POLYLINE
8
CUT
66
1
70
0
0
VERTEX
8
CUT
10
28.0981
20
68.5
0
VERTEX
8
CUT
10
45.4019
20
68.5
0
VERTEX
8
CUT
10
36
20
52.2154
0
VERTEX
8
CUT
10
27.3481
20
67.201
0
SEQEND
0
POLYLINE
8
CUT
66
1
70
0
0
VERTEX
8
CUT
10
42.0538
20
65.701
0
VERTEX
8
CUT
10
36
20
55.2154
0
VERTEX
8
CUT
10
29.1962
20
67
0
VERTEX
8
CUT
10
41.3038
20
67
0
SEQEND
0
POLYLINE
8
CUT
66
1
70
0
0
VERTEX
8
CUT
10
35.25
20
59.5144
0
VERTEX
8
CUT
10
31.7942
20
65.5
0
VERTEX
8
CUT
10
40.2058
20
65.5
0
VERTEX
8
CUT
10
36.75
20
59.5144
0
SEQEND
0
POLYLINE
8
CUT
66
1
70
0
0
VERTEX
8
CUT
10
40.0981
20
50.7154
0
VERTEX
8
CUT
10
57.4019
20
50.7154
0
VERTEX
8
CUT
10
48
20
67
0
VERTEX
8
CUT
10
39.3481
20
52.0144
0
SEQEND
0
POLYLINE
8
CUT
66
1
70
0
0
VERTEX
8
CUT
10
54.0538
20
53.5144
0
VERTEX
8
CUT
10
48
20
64
0
VERTEX
8
CUT
10
41.1962
20
52.2154
0
VERTEX
8
CUT
10
53.3038
20
52.2154
0
SEQEND
0
POLYLINE
8
CUT
66
1
70
0
0
VERTEX
8
CUT
10
47.25
20
59.701
0
VERTEX
8
CUT
10
43.7942
20
53.7154
0
VERTEX
8
CUT
10
52.2058
20
53.7154
0
VERTEX
8
CUT
10
48.75
20
59.701
0
SEQEND
0
LINE
8
CUT
10
49.5
20
70
11
70.5
21
70
0
LINE
8
CUT
10
48.75
20
68.701
11
59.25
21
50.5144
0
LINE
8
CUT
10
71.25
20
68.701
11
60.75
21
50.5144
0
POLYLINE
8
CUT
66
1
70
0
0
VERTEX
8
CUT
10
52.0981
20
68.5
0
VERTEX
8
CUT
10
69.4019
20
68.5
0
VERTEX
8
CUT
10
60
20
52.2154
0
VERTEX
8
CUT
10
51.3481
20
67.201
0
SEQEND
0
POLYLINE
8
CUT
66
1
70
0
0
VERTEX
8
CUT
10
66.0538
20
65.701
0
VERTEX
8
CUT
10
60
20
55.2154
0
VERTEX
8
CUT
10
53.1962
20
67
0
VERTEX
8
CUT
10
65.3038
20
67
0
SEQEND
0
POLYLINE
8
CUT
66
1
70
0
0
VERTEX
8
CUT
10
59.25
20
59.5144
0
VERTEX
8
CUT
10
55.7942
20
65.5
0
VERTEX
8
CUT
10
64.2058
20
65.5
0
VERTEX
8
CUT
10
60.75
20
59.5144
0
SEQEND
0
POLYLINE
8
CUT
66
1
70
0
0
VERTEX
8
CUT
10
64.0981
20
50.7154
0
VERTEX
8
CUT
10
81.4019
20
50.7154
0
VERTEX
8
CUT
10
72
20
67
0
VERTEX
8
CUT
10
63.3481
20
52.0144
0
SEQEND
0
POLYLINE
8
CUT
66
1
70
0
0
VERTEX
8
CUT
10
78.0538
20
53.5144
0
VERTEX
8
CUT
10
72
20
64
0
VERTEX
8
CUT
10
65.1962
20
52.2154
0
VERTEX
8
CUT
10
77.3038
20
52.2154
0
SEQEND
0
POLYLINE
8
CUT
66
1
70
0
0
VERTEX
8
CUT
10
71.25
20
59.701
0
VERTEX
8
CUT
10
67.7942
20
53.7154
0
VERTEX
8
CUT
10
76.2058
20
53.7154
0
VERTEX
8
CUT
10
72.75
20
59.701
0
SEQEND
0
LINE
8
CUT
10
73.5
20
70
11
94.5
21
70
0
LINE
8
CUT
10
72.75
20
68.701
11
83.25
21
50.5144
0
LINE
8
CUT
10
95.25
20
68.701
11
84.75
21
50.5144
0
POLYLINE
8
CUT
66
1
70
0
0
VERTEX
8
CUT
10
76.0981
20
68.5
0
VERTEX
8
CUT
10
93.4019
20
68.5
0
VERTEX
8
CUT
10
84
20
52.2154
0
VERTEX
8
CUT
10
75.3481
20
67.201
0
SEQEND
0
POLYLINE
8
CUT
66
1
70
0
0
VERTEX
8
CUT
10
90.0538
20
65.701
0
VERTEX
8
CUT
10
84
20
55.2154
0
VERTEX
8
CUT
10
77.1962
20
67
0
VERTEX
8
CUT
10
89.3038
20
67
0
SEQEND
0
POLYLINE
8
CUT
66
1
70
0
0
VERTEX
8
CUT
10
83.25
20
59.5144
0
VERTEX
8
CUT
10
79.7942
20
65.5
0
VERTEX
8
CUT
10
88.2058
20
65.5
0
VERTEX
8
CUT
10
84.75
20
59.5144
0
SEQEND
0
POLYLINE
8
CUT
66
1
70
0
0
VERTEX
8
CUT
10
88.0981
20
50.7154
0
VERTEX
8
CUT
10
105.4019
20
50.7154
0
VERTEX
8
CUT
10
96
20
67
0
VERTEX
8
CUT
10
87.3481
20
52.0144
0
SEQEND
0
POLYLINE
8
CUT
66
1
70
0
0
VERTEX
8
CUT
10
102.0538
20
53.5144
0
VERTEX
8
CUT
10
96
20
64
0
VERTEX
8
CUT
10
89.1962
20
52.2154
0
VERTEX
8
CUT
10
101.3038
20
52.2154
0
SEQEND
0
POLYLINE
8
CUT
66
1
70
0
0
VERTEX
8
CUT
10
95.25
20
59.701
0
VERTEX
8
CUT
10
91.7942
20
53.7154
0
VERTEX
8
CUT
10
100.2058
20
53.7154
0
VERTEX
8
CUT
10
96.75
20
59.701
0
SEQEND
0
LINE
8
CUT
10
97.5
20
70
11
118.5
21
70
0
LINE
8
CUT
10
96.75
20
68.701
11
107.25
21
50.5144
0
LINE
8
CUT
10
119.25
20
68.701
11
108.75
21
50.5144
0
POLYLINE
8
CUT
66
1
70
0
0
VERTEX
8
CUT
10
100.0981
20
68.5
0
VERTEX
8
CUT
10
117.4019
20
68.5
0
VERTEX
8
CUT
10
108
20
52.2154
0
VERTEX
8
CUT
10
99.3481
20
67.201
0
SEQEND
0
POLYLINE
8
CUT
66
1
70
0
0
VERTEX
8
CUT
10
114.0538
20
65.701
0
VERTEX
8
CUT
10
108
20
55.2154
0
VERTEX
8
CUT
10
101.1962
20
67
0
VERTEX
8
CUT
10
113.3038
20
67
0
SEQEND
0
POLYLINE
8
CUT
66
1
70
0
0
VERTEX
8
CUT
10
107.25
20
59.5144
0
VERTEX
8
CUT
10
103.7942
20
65.5
0
VERTEX
8
CUT
10
112.2058
20
65.5
0
VERTEX
8
CUT
10
108.75
20
59.5144
0
SEQEND
0
LINE
8
CUT
10
112.0981
20
50.7154
11
120
21
50.7154
0
POLYLINE
8
CUT
66
1
70
0
0
VERTEX
8
CUT
10
120
20
67
0
VERTEX
8
CUT
10
120
20
67
0
VERTEX
8
CUT
10
111.3481
20
52.0144
0
SEQEND
0
POLYLINE
8
CUT
66
1
70
0
0
VERTEX
8
CUT
10
120
20
64
0
VERTEX
8
CUT
10
120
20
64
0
VERTEX
8
CUT
10
113.1962
20
52.2154
0
VERTEX
8
CUT
10
120
20
52.2154
0
SEQEND
0
POLYLINE
8
CUT
66
1
70
0
0
VERTEX
8
CUT
10
119.25
20
59.701
0
VERTEX
8
CUT
10
115.7942
20
53.7154
0
VERTEX
8
CUT
10
120
20
53.7154
0
SEQEND
0
LINE
8
CUT
10
0
20
49.2154
11
10.5
21
49.2154
0
LINE
8
CUT
10
11.25
20
47.9164
11
0.75
21
29.7298
0
POLYLINE
8
CUT
66
1
70
0
0
VERTEX
8
CUT
10
0
20
47.7154
0
VERTEX
8
CUT
10
9.4019
20
47.7154
0
VERTEX
8
CUT
10
0
20
31.4308
0
VERTEX
8
CUT
10
0
20
31.4308
0
SEQEND
0
POLYLINE
8
CUT
66
1
70
0
0
VERTEX
8
CUT
10
6.0538
20
44.9164
0
VERTEX
8
CUT
10
0
20
34.4308
0
VERTEX
8
CUT
10
0
20
34.4308
0
SEQEND
0
LINE
8
CUT
10
0
20
46.2154
11
5.3038
21
46.2154
0
POLYLINE
8
CUT
66
1
70
0
0
VERTEX
8
CUT
10
0
20
44.7154
0
VERTEX
8
CUT
10
4.2058
20
44.7154
0
VERTEX
8
CUT
10
0.75
20
38.7298
0
SEQEND
0
POLYLINE
8
CUT
66
1
70
0
0
VERTEX
8
CUT
10
4.0981
20
29.9308
0
VERTEX
8
CUT
10
21.4019
20
29.9308
0
VERTEX
8
CUT
10
12
20
46.2154
0
VERTEX
8
CUT
10
3.3481
20
31.2298
0
SEQEND
0
POLYLINE
8
CUT
66
1
70
0
0
VERTEX
8
CUT
10
18.0538
20
32.7298
0
VERTEX
8
CUT
10
12
20
43.2154
0
VERTEX
8
CUT
10
5.1962
20
31.4308
0
VERTEX
8
CUT
10
17.3038
20
31.4308
0
SEQEND
0
POLYLINE
8
CUT
66
1
70
0
0
VERTEX
8
CUT
10
11.25
20
38.9164
0
VERTEX
8
CUT
10
7.7942
20
32.9308
0
VERTEX
8
CUT
10
16.2058
20
32.9308
0
VERTEX
8
CUT
10
12.75
20
38.9164
0
SEQEND
0
LINE
8
CUT
10
13.5
20
49.2154
11
34.5
21
49.2154
0
LINE
8
CUT
10
12.75
20
47.9164
11
23.25
21
29.7298
0
LINE
8
CUT
10
35.25
20
47.9164
11
24.75
21
29.7298
0
POLYLINE
8
CUT
66
1
70
0
0
VERTEX
8
CUT
10
16.0981
20
47.7154
0
VERTEX
8
CUT
10
33.4019
20
47.7154
0
VERTEX
8
CUT
10
24
20
31.4308
0
VERTEX
8
CUT
10
15.3481
20
46.4164
0
SEQEND
0
POLYLINE
8
CUT
66
1
70
0
0
VERTEX
8
CUT
10
30.0538
20
44.9164
0
VERTEX
8
CUT
10
24
20
34.4308
0
VERTEX
8
CUT
10
17.1962
20
46.2154
0
VERTEX
8
CUT
10
29.3038
20
46.2154
0
SEQEND
0
POLYLINE
8
CUT
66
1
70
0
0
VERTEX
8
CUT
10
23.25
20
38.7298
0
VERTEX
8
CUT
10
19.7942
20
44.7154
0
VERTEX
8
CUT
10
28.2058
20
44.7154
0
VERTEX
8
CUT
10
24.75
20
38.7298
0
SEQEND
0
POLYLINE
8
CUT
66
1
70
0
0
VERTEX
8
CUT
10
28.0981
20
29.9308
0
VERTEX
8
CUT
10
45.4019
20
29.9308
0
VERTEX
8
CUT
10
36
20
46.2154
0
VERTEX
8
CUT
10
27.3481
20
31.2298
0
SEQEND
0
POLYLINE
8
CUT
66
1
70
0
0
VERTEX
8
CUT
10
42.0538
20
32.7298
0
VERTEX
8
CUT
10
36
20
43.2154
0
VERTEX
8
CUT
10
29.1962
20
31.4308
0
VERTEX
8
CUT
10
41.3038
20
31.4308
0
SEQEND
0
POLYLINE
8
CUT
66
1
70
0
0
VERTEX
8
CUT
10
35.25
20
38.9164
0
VERTEX
8
CUT
10
31.7942
20
32.9308
0
VERTEX
8
CUT
10
40.2058
20
32.9308
0
VERTEX
8
CUT
10
36.75
20
38.9164
0
SEQEND
0
LINE
8
CUT
10
37.5
20
49.2154
11
58.5
21
49.2154
0
LINE
8
CUT
10
36.75
20
47.9164
11
47.25
21
29.7298
0
LINE
8
CUT
10
59.25
20
47.9164
11
48.75
21
29.7298
0
POLYLINE
8
CUT
66
1
70
0
0
VERTEX
8
CUT
10
40.0981
20
47.7154
0
VERTEX
8
CUT
10
57.4019
20
47.7154
0
VERTEX
8
CUT
10
48
20
31.4308
0
VERTEX
8
CUT
10
39.3481
20
46.4164
0
SEQEND
0
POLYLINE
8
CUT
66
1
70
0
0
VERTEX
8
CUT
10
54.0538
20
44.9164
0
VERTEX
8
CUT
10
48
20
34.4308
0
VERTEX
8
CUT
10
41.1962
20
46.2154
0
VERTEX
8
CUT
10
53.3038
20
46.2154
0
SEQEND
0
POLYLINE
8
CUT
66
1
70
0
0
VERTEX
8
CUT
10
47.25
20
38.7298
0
VERTEX
8
CUT
10
43.7942
20
44.7154
0
VERTEX
8
CUT
10
52.2058
20
44.7154
0
VERTEX
8
CUT
10
48.75
20
38.7298
0
SEQEND
0
POLYLINE
8
CUT
66
1
70
0
0
VERTEX
8
CUT
10
52.0981
20
29.9308
0
VERTEX
8
CUT
10
69.4019
20
29.9308
0
VERTEX
8
CUT
10
60
20
46.2154
0
VERTEX
8
CUT
10
51.3481
20
31.2298
0
SEQEND
0
POLYLINE
8
CUT
66
1
70
0
0
VERTEX
8
CUT
10
66.0538
20
32.7298
0
VERTEX
8
CUT
10
60
20
43.2154
0
VERTEX
8
CUT
10
53.1962
20
31.4308
0
VERTEX
8
CUT
10
65.3038
20
31.4308
0
SEQEND
0
POLYLINE
8
CUT
66
1
70
0
0
VERTEX
8
CUT
10
59.25
20
38.9164
0
VERTEX
8
CUT
10
55.7942
20
32.9308
0
VERTEX
8
CUT
10
64.2058
20
32.9308
0
VERTEX
8
CUT
10
60.75
20
38.9164
0
SEQEND
0
LINE
8
CUT
10
61.5
20
49.2154
11
82.5
21
49.2154
0
LINE
8
CUT
10
60.75
20
47.9164
11
71.25
21
29.7298
0
LINE
8
CUT
10
83.25
20
47.9164
11
72.75
21
29.7298
0
POLYLINE
8
CUT
66
1
70
0
0
VERTEX
8
CUT
10
64.0981
20
47.7154
0
VERTEX
8
CUT
10
81.4019
20
47.7154
0
VERTEX
8
CUT
10
72
20
31.4308
0
VERTEX
8
CUT
10
63.3481
20
46.4164
0
SEQEND
0
POLYLINE
8
CUT
66
1
70
0
0
VERTEX
8
CUT
10
78.0538
20
44.9164
0
VERTEX
8
CUT
10
72
20
34.4308
0
VERTEX
8
CUT
10
65.1962
20
46.2154
0
VERTEX
8
CUT
10
77.3038
20
46.2154
0
SEQEND
0
POLYLINE
8
CUT
66
1
70
0
0
VERTEX
8
CUT
10
71.25
20
38.7298
0
VERTEX
8
CUT
10
67.7942
20
44.7154
0
VERTEX
8
CUT
10
76.2058
20
44.7154
0
VERTEX
8
CUT
10
72.75
20
38.7298
0
SEQEND
0
POLYLINE
8
CUT
66
1
70
0
0
VERTEX
8
CUT
10
76.0981
20
29.9308
0
VERTEX
8
CUT
10
93.4019
20
29.9308
0
VERTEX
8
CUT
10
84
20
46.2154
0
VERTEX
8
CUT
10
75.3481
20
31.2298
0
SEQEND
0
POLYLINE
8
CUT
66
1
70
0
0
VERTEX
8
CUT
10
90.0538
20
32.7298
0
VERTEX
8
CUT
10
84
20
43.2154
0
VERTEX
8
CUT
10
77.1962
20
31.4308
0
VERTEX
8
CUT
10
89.3038
20
31.4308
0
SEQEND
0
POLYLINE
8
CUT
66
1
70
0
0
VERTEX
8
CUT
10
83.25
20
38.9164
0
VERTEX
8
CUT
10
79.7942
20
32.9308
0
VERTEX
8
CUT
10
88.2058
20
32.9308
0
VERTEX
8
CUT
10
84.75
20
38.9164
0
SEQEND
0
LINE
8
CUT
10
85.5
20
49.2154
11
106.5
21
49.2154
0
LINE
8
CUT
10
84.75
20
47.9164
11
95.25
21
29.7298
0
LINE
8
CUT
10
107.25
20
47.9164
11
96.75
21
29.7298
0
POLYLINE
8
CUT
66
1
70
0
0
VERTEX
8
CUT
10
88.0981
20
47.7154
0
VERTEX
8
CUT
10
105.4019
20
47.7154
0
VERTEX
8
CUT
10
96
20
31.4308
0
VERTEX
8
CUT
10
87.3481
20
46.4164
0
SEQEND
0
POLYLINE
8
CUT
66
1
70
0
0
VERTEX
8
CUT
10
102.0538
20
44.9164
0
VERTEX
8
CUT
10
96
20
34.4308
0
VERTEX
8
CUT
10
89.1962
20
46.2154
0
VERTEX
8
CUT
10
101.3038
20
46.2154
0
SEQEND
0
POLYLINE
8
CUT
66
1
70
0
0
VERTEX
8
CUT
10
95.25
20
38.7298
0
VERTEX
8
CUT
10
91.7942
20
44.7154
0
VERTEX
8
CUT
10
100.2058
20
44.7154
0
VERTEX
8
CUT
10
96.75
20
38.7298
0
SEQEND
0
POLYLINE
8
CUT
66
1
70
0
0
VERTEX
8
CUT
10
100.0981
20
29.9308
0
VERTEX
8
CUT
10
117.4019
20
29.9308
0
VERTEX
8
CUT
10
108
20
46.2154
0
VERTEX
8
CUT
10
99.3481
20
31.2298
0
SEQEND
0
POLYLINE
8
CUT
66
1
70
0
0
VERTEX
8
CUT
10
114.0538
20
32.7298
0
VERTEX
8
CUT
10
108
20
43.2154
0
VERTEX
8
CUT
10
101.1962
20
31.4308
0
VERTEX
8
CUT
10
113.3038
20
31.4308
0
SEQEND
0
POLYLINE
8
CUT
66
1
70
0
0
VERTEX
8
CUT
10
107.25
20
38.9164
0
VERTEX
8
CUT
10
103.7942
20
32.9308
0
VERTEX
8
CUT
10
112.2058
20
32.9308
0
VERTEX
8
CUT
10
108.75
20
38.9164
0
SEQEND
0
LINE
8
CUT
10
109.5
20
49.2154
11
120
21
49.2154
0
LINE
8
CUT
10
108.75
20
47.9164
11
119.25
21
29.7298
0
LINE
8
CUT
10
112.0981
20
47.7154
11
120
21
47.7154
0
POLYLINE
8
CUT
66
1
70
0
0
VERTEX
8
CUT
10
120
20
31.4308
0
VERTEX
8
CUT
10
120
20
31.4308
0
VERTEX
8
CUT
10
111.3481
20
46.4164
0
SEQEND
0
POLYLINE
8
CUT
66
1
70
0
0
VERTEX
8
CUT
10
120
20
34.4308
0
VERTEX
8
CUT
10
120
20
34.4308
0
VERTEX
8
CUT
10
113.1962
20
46.2154
0
VERTEX
8
CUT
10
120
20
46.2154
0
SEQEND
0
POLYLINE
8
CUT
66
1
70
0
0
VERTEX
8
CUT
10
119.25
20
38.7298
0
VERTEX
8
CUT
10
115.7942
20
44.7154
0
VERTEX
8
CUT
10
120
20
44.7154
0
SEQEND
0
POLYLINE
8
CUT
66
1
70
0
0
VERTEX
8
CUT
10
0
20
9.1462
0
VERTEX
8
CUT
10
9.4019
20
9.1462
0
VERTEX
8
CUT
10
0
20
25.4308
0
VERTEX
8
CUT
10
0
20
25.4308
0
SEQEND
0
POLYLINE
8
CUT
66
1
70
0
0
VERTEX
8
CUT
10
6.0538
20
11.9452
0
VERTEX
8
CUT
10
0
20
22.4308
0
VERTEX
8
CUT
10
0
20
22.4308
0
SEQEND
0
LINE
8
CUT
10
0
20
10.6462
11
5.3038
21
10.6462
0
POLYLINE
8
CUT
66
1
70
0
0
VERTEX
8
CUT
10
0
20
12.1462
0
VERTEX
8
CUT
10
4.2058
20
12.1462
0
VERTEX
8
CUT
10
0.75
20
18.1317
0
SEQEND
0
LINE
8
CUT
10
1.5
20
28.4308
11
22.5
21
28.4308
0
LINE
8
CUT
10
0.75
20
27.1317
11
11.25
21
8.9452
0
LINE
8
CUT
10
23.25
20
27.1317
11
12.75
21
8.9452
0
POLYLINE
8
CUT
66
1
70
0
0
VERTEX
8
CUT
10
4.0981
20
26.9308
0
VERTEX
8
CUT
10
21.4019
20
26.9308
0
VERTEX
8
CUT
10
12
20
10.6462
0
VERTEX
8
CUT
10
3.3481
20
25.6317
0
SEQEND
0
POLYLINE
8
CUT
66
1
70
0
0
VERTEX
8
CUT
10
18.0538
20
24.1317
0
VERTEX
8
CUT
10
12
20
13.6462
0
VERTEX
8
CUT
10
5.1962
20
25.4308
0
VERTEX
8
CUT
10
17.3038
20
25.4308
0
SEQEND
0
POLYLINE
8
CUT
66
1
70
0
0
VERTEX
8
CUT
10
11.25
20
17.9452
0
VERTEX
8
CUT
10
7.7942
20
23.9308
0
VERTEX
8
CUT
10
16.2058
20
23.9308
0
VERTEX
8
CUT
10
12.75
20
17.9452
0
SEQEND
0
POLYLINE
8
CUT
66
1
70
0
0
VERTEX
8
CUT
10
16.0981
20
9.1462
0
VERTEX
8
CUT
10
33.4019
20
9.1462
0
VERTEX
8
CUT
10
24
20
25.4308
0
VERTEX
8
CUT
10
15.3481
20
10.4452
0
SEQEND
0
POLYLINE
8
CUT
66
1
70
0
0
VERTEX
8
CUT
10
30.0538
20
11.9452
0
VERTEX
8
CUT
10
24
20
22.4308
0
VERTEX
8
CUT
10
17.1962
20
10.6462
0
VERTEX
8
CUT
10
29.3038
20
10.6462
0
SEQEND
0
POLYLINE
8
CUT
66
1
70
0
0
VERTEX
8
CUT
10
23.25
20
18.1317
0
VERTEX
8
CUT
10
19.7942
20
12.1462
0
VERTEX
8
CUT
10
28.2058
20
12.1462
0
VERTEX
8
CUT
10
24.75
20
18.1317
0
SEQEND
0
LINE
8
CUT
10
25.5
20
28.4308
11
46.5
21
28.4308
0
LINE
8
CUT
10
24.75
20
27.1317
11
35.25
21
8.9452
0
LINE
8
CUT
10
47.25
20
27.1317
11
36.75
21
8.9452
0
POLYLINE
8
CUT
66
1
70
0
0
VERTEX
8
CUT
10
28.0981
20
26.9308
0
VERTEX
8
CUT
10
45.4019
20
26.9308
0
VERTEX
8
CUT
10
36
20
10.6462
0
VERTEX
8
CUT
10
27.3481
20
25.6317
0
SEQEND
0
POLYLINE
8
CUT
66
1
70
0
0
VERTEX
8
CUT
10
42.0538
20
24.1317
0
VERTEX
8
CUT
10
36
20
13.6462
0
VERTEX
8
CUT
10
29.1962
20
25.4308
0
VERTEX
8
CUT
10
41.3038
20
25.4308
0
SEQEND
0
POLYLINE
8
CUT
66
1
70
0
0
VERTEX
8
CUT
10
35.25
20
17.9452
0
VERTEX
8
CUT
10
31.7942
20
23.9308
0
VERTEX
8
CUT
10
40.2058
20
23.9308
0
VERTEX
8
CUT
10
36.75
20
17.9452
0
SEQEND
0
POLYLINE
8
CUT
66
1
70
0
0
VERTEX
8
CUT
10
40.0981
20
9.1462
0
VERTEX
8
CUT
10
57.4019
20
9.1462
0
VERTEX
8
CUT
10
48
20
25.4308
0
VERTEX
8
CUT
10
39.3481
20
10.4452
0
SEQEND
0
POLYLINE
8
CUT
66
1
70
0
0
VERTEX
8
CUT
10
54.0538
20
11.9452
0
VERTEX
8
CUT
10
48
20
22.4308
0
VERTEX
8
CUT
10
41.1962
20
10.6462
0
VERTEX
8
CUT
10
53.3038
20
10.6462
0
SEQEND
0
POLYLINE
8
CUT
66
1
70
0
0
VERTEX
8
CUT
10
47.25
20
18.1317
0
VERTEX
8
CUT
10
43.7942
20
12.1462
0
VERTEX
8
CUT
10
52.2058
20
12.1462
0
VERTEX
8
CUT
10
48.75
20
18.1317
0
SEQEND
0
LINE
8
CUT
10
49.5
20
28.4308
11
70.5
21
28.4308
0
LINE
8
CUT
10
48.75
20
27.1317
11
59.25
21
8.9452
0
LINE
8
CUT
10
71.25
20
27.1317
11
60.75
21
8.9452
0
POLYLINE
8
CUT
66
1
70
0
0
VERTEX
8
CUT
10
52.0981
20
26.9308
0
VERTEX
8
CUT
10
69.4019
20
26.9308
0
VERTEX
8
CUT
10
60
20
10.6462
0
VERTEX
8
CUT
10
51.3481
20
25.6317
0
SEQEND
0
POLYLINE
8
CUT
66
1
70
0
0
VERTEX
8
CUT
10
66.0538
20
24.1317
0
VERTEX
8
CUT
10
60
20
13.6462
0
VERTEX
8
CUT
10
53.1962
20
25.4308
0
VERTEX
8
CUT
10
65.3038
20
25.4308
0
SEQEND
0
POLYLINE
8
CUT
66
1
70
0
0
VERTEX
8
CUT
10
59.25
20
17.9452
0
VERTEX
8
CUT
10
55.7942
20
23.9308
0
VERTEX
8
CUT
10
64.2058
20
23.9308
0
VERTEX
8
CUT
10
60.75
20
17.9452
0
SEQEND
0
POLYLINE
8
CUT
66
1
70
0
0
VERTEX
8
CUT
10
64.0981
20
9.1462
0
VERTEX
8
CUT
10
81.4019
20
9.1462
0
VERTEX
8
CUT
10
72
20
25.4308
0
VERTEX
8
CUT
10
63.3481
20
10.4452
0
SEQEND
0
POLYLINE
8
CUT
66
1
70
0
0
VERTEX
8
CUT
10
78.0538
20
11.9452
0
VERTEX
8
CUT
10
72
20
22.4308
0
VERTEX
8
CUT
10
65.1962
20
10.6462
0
VERTEX
8
CUT
10
77.3038
20
10.6462
0
SEQEND
0
POLYLINE
8
CUT
66
1
70
0
0
VERTEX
8
CUT
10
71.25
20
18.1317
0
VERTEX
8
CUT
10
67.7942
20
12.1462
0
VERTEX
8
CUT
10
76.2058
20
12.1462
0
VERTEX
8
CUT
10
72.75
20
18.1317
0
SEQEND
0
LINE
8
CUT
10
73.5
20
28.4308
11
94.5
21
28.4308
0
LINE
8
CUT
10
72.75
20
27.1317
11
83.25
21
8.9452
0
LINE
8
CUT
10
95.25
20
27.1317
11
84.75
21
8.9452
0
POLYLINE
8
CUT
66
1
70
0
0
VERTEX
8
CUT
10
76.0981
20
26.9308
0
VERTEX
8
CUT
10
93.4019
20
26.9308
0
VERTEX
8
CUT
10
84
20
10.6462
0
VERTEX
8
CUT
10
75.3481
20
25.6317
0
SEQEND
0
POLYLINE
8
CUT
66
1
70
0
0
VERTEX
8
CUT
10
90.0538
20
24.1317
0
VERTEX
8
CUT
10
84
20
13.6462
0
VERTEX
8
CUT
10
77.1962
20
25.4308
0
VERTEX
8
CUT
10
89.3038
20
25.4308
0
SEQEND
0
POLYLINE
8
CUT
66
1
70
0
0
VERTEX
8
CUT
10
83.25
20
17.9452
0
VERTEX
8
CUT
10
79.7942
20
23.9308
0
VERTEX
8
CUT
10
88.2058
20
23.9308
0
VERTEX
8
CUT
10
84.75
20
17.9452
0
SEQEND
0
POLYLINE
8
CUT
66
1
70
0
0
VERTEX
8
CUT
10
88.0981
20
9.1462
0
VERTEX
8
CUT
10
105.4019
20
9.1462
0
VERTEX
8
CUT
10
96
20
25.4308
0
VERTEX
8
CUT
10
87.3481
20
10.4452
0
SEQEND
0
POLYLINE
8
CUT
66
1
70
0
0
VERTEX
8
CUT
10
102.0538
20
11.9452
0
VERTEX
8
CUT
10
96
20
22.4308
0
VERTEX
8
CUT
10
89.1962
20
10.6462
0
VERTEX
8
CUT
10
101.3038
20
10.6462
0
SEQEND
0
POLYLINE
8
CUT
66
1
70
0
0
VERTEX
8
CUT
10
95.25
20
18.1317
0
VERTEX
8
CUT
10
91.7942
20
12.1462
0
VERTEX
8
CUT
10
100.2058
20
12.1462
0
VERTEX
8
CUT
10
96.75
20
18.1317
0
SEQEND
0
LINE
8
CUT
10
97.5
20
28.4308
11
118.5
21
28.4308
0
LINE
8
CUT
10
96.75
20
27.1317
11
107.25
21
8.9452
0
LINE
8
CUT
10
119.25
20
27.1317
11
108.75
21
8.9452
0
POLYLINE
8
CUT
66
1
70
0
0
VERTEX
8
CUT
10
100.0981
20
26.9308
0
VERTEX
8
CUT
10
117.4019
20
26.9308
0
VERTEX
8
CUT
10
108
20
10.6462
0
VERTEX
8
CUT
10
99.3481
20
25.6317
0
SEQEND
0
POLYLINE
8
CUT
66
1
70
0
0
VERTEX
8
CUT
10
114.0538
20
24.1317
0
VERTEX
8
CUT
10
108
20
13.6462
0
VERTEX
8
CUT
10
101.1962
20
25.4308
0
VERTEX
8
CUT
10
113.3038
20
25.4308
0
SEQEND
0
POLYLINE
8
CUT
66
1
70
0
0
VERTEX
8
CUT
10
107.25
20
17.9452
0
VERTEX
8
CUT
10
103.7942
20
23.9308
0
VERTEX
8
CUT
10
112.2058
20
23.9308
0
VERTEX
8
CUT
10
108.75
20
17.9452
0
SEQEND
0
LINE
8
CUT
10
112.0981
20
9.1462
11
120
21
9.1462
0
POLYLINE
8
CUT
66
1
70
0
0
VERTEX
8
CUT
10
120
20
25.4308
0
VERTEX
8
CUT
10
120
20
25.4308
0
VERTEX
8
CUT
10
111.3481
20
10.4452
0
SEQEND
0
POLYLINE
8
CUT
66
1
70
0
0
VERTEX
8
CUT
10
120
20
22.4308
0
VERTEX
8
CUT
10
120
20
22.4308
0
VERTEX
8
CUT
10
113.1962
20
10.6462
0
VERTEX
8
CUT
10
120
20
10.6462
0
SEQEND
0
POLYLINE
8
CUT
66
1
70
0
0
VERTEX
8
CUT
10
119.25
20
18.1317
0
VERTEX
8
CUT
10
115.7942
20
12.1462
0
VERTEX
8
CUT
10
120
20
12.1462
0
SEQEND
0
LINE
8
CUT
10
0
20
7.6462
11
10.5
21
7.6462
0
LINE
8
CUT
10
11.25
20
6.3471
11
7.5855
21
0
0
POLYLINE
8
CUT
66
1
70
0
0
VERTEX
8
CUT
10
0
20
6.1462
0
VERTEX
8
CUT
10
9.4019
20
6.1462
0
VERTEX
8
CUT
10
5.8534
20
0
0
SEQEND
0
LINE
8
CUT
10
6.0538
20
3.3471
11
4.1214
21
0
0
LINE
8
CUT
10
0
20
4.6462
11
5.3038
21
4.6462
0
POLYLINE
8
CUT
66
1
70
0
0
VERTEX
8
CUT
10
0
20
3.1462
0
VERTEX
8
CUT
10
4.2058
20
3.1462
0
VERTEX
8
CUT
10
2.3893
20
0
0
SEQEND
0
POLYLINE
8
CUT
66
1
70
0
0
VERTEX
8
CUT
10
14.6825
20
0
0
VERTEX
8
CUT
10
12
20
4.6462
0
VERTEX
8
CUT
10
9.3175
20
0
0
SEQEND
0
POLYLINE
8
CUT
66
1
70
0
0
VERTEX
8
CUT
10
12.9504
20
0
0
VERTEX
8
CUT
10
12
20
1.6462
0
VERTEX
8
CUT
10
11.0496
20
0
0
SEQEND
0
LINE
8
CUT
10
13.5
20
7.6462
11
34.5
21
7.6462
0
LINE
8
CUT
10
12.75
20
6.3471
11
16.4145
21
0
0
LINE
8
CUT
10
35.25
20
6.3471
11
31.5855
21
0
0
POLYLINE
8
CUT
66
1
70
0
0
VERTEX
8
CUT
10
16.0981
20
6.1462
0
VERTEX
8
CUT
10
33.4019
20
6.1462
0
VERTEX
8
CUT
10
29.8534
20
0
0
SEQEND
0
LINE
8
CUT
10
18.1466
20
0
11
15.3481
21
4.8471
0
LINE
8
CUT
10
30.0538
20
3.3471
11
28.1214
21
0
0
POLYLINE
8
CUT
66
1
70
0
0
VERTEX
8
CUT
10
19.8786
20
0
0
VERTEX
8
CUT
10
17.1962
20
4.6462
0
VERTEX
8
CUT
10
29.3038
20
4.6462
0
SEQEND
0
POLYLINE
8
CUT
66
1
70
0
0
VERTEX
8
CUT
10
21.6107
20
0
0
VERTEX
8
CUT
10
19.7942
20
3.1462
0
VERTEX
8
CUT
10
28.2058
20
3.1462
0
VERTEX
8
CUT
10
26.3893
20
0
0
SEQEND
0
POLYLINE
8
CUT
66
1
70
0
0
VERTEX
8
CUT
10
38.6825
20
0
0
VERTEX
8
CUT
10
36
20
4.6462
0
VERTEX
8
CUT
10
33.3175
20
0
0
SEQEND
0
POLYLINE
8
CUT
66
1
70
0
0
VERTEX
8
CUT
10
36.9504
20
0
0
VERTEX
8
CUT
10
36
20
1.6462
0
VERTEX
8
CUT
10
35.0496
20
0
0
SEQEND
0
LINE
8
CUT
10
37.5
20
7.6462
11
58.5
21
7.6462
0
LINE
8
CUT
10
36.75
20
6.3471
11
40.4145
21
0
0
LINE
8
CUT
10
59.25
20
6.3471
11
55.5855
21
0
0
POLYLINE
8
CUT
66
1
70
0
0
VERTEX
8
CUT
10
40.0981
20
6.1462
0
VERTEX
8
CUT
10
57.4019
20
6.1462
0
VERTEX
8
CUT
10
53.8534
20
0
0
SEQEND
0
LINE
8
CUT
10
42.1466
20
0
11
39.3481
21
4.8471
0
LINE
8
CUT
10
54.0538
20
3.3471
11
52.1214
21
0
0
POLYLINE
8
CUT
66
1
70
0
0
VERTEX
8
CUT
10
43.8786
20
0
0
VERTEX
8
CUT
10
41.1962
20
4.6462
0
VERTEX
8
CUT
10
53.3038
20
4.6462
0
SEQEND
0
POLYLINE
8
CUT
66
1
70
0
0
VERTEX
8
CUT
10
45.6107
20
0
0
VERTEX
8
CUT
10
43.7942
20
3.1462
0
VERTEX
8
CUT
10
52.2058
20
3.1462
0
VERTEX
8
CUT
10
50.3893
20
0
0
SEQEND
0
POLYLINE
8
CUT
66
1
70
0
0
VERTEX
8
CUT
10
62.6825
20
0
0
VERTEX
8
CUT
10
60
20
4.6462
0
VERTEX
8
CUT
10
57.3175
20
0
0
SEQEND
0
POLYLINE
8
CUT
66
1
70
0
0
VERTEX
8
CUT
10
60.9504
20
0
0
VERTEX
8
CUT
10
60
20
1.6462
0
VERTEX
8
CUT
10
59.0496
20
0
0
SEQEND
0
LINE
8
CUT
10
61.5
20
7.6462
11
82.5
21
7.6462
0
LINE
8
CUT
10
60.75
20
6.3471
11
64.4145
21
0
0
LINE
8
CUT
10
83.25
20
6.3471
11
79.5855
21
0
0
POLYLINE
8
CUT
66
1
70
0
0
VERTEX
8
CUT
10
64.0981
20
6.1462
0
VERTEX
8
CUT
10
81.4019
20
6.1462
0
VERTEX
8
CUT
10
77.8534
20
0
0
SEQEND
0
LINE
8
CUT
10
66.1466
20
0
11
63.3481
21
4.8471
0
LINE
8
CUT
10
78.0538
20
3.3471
11
76.1214
21
0
0
POLYLINE
8
CUT
66
1
70
0
0
VERTEX
8
CUT
10
67.8786
20
0
0
VERTEX
8
CUT
10
65.1962
20
4.6462
0
VERTEX
8
CUT
10
77.3038
20
4.6462
0
SEQEND
0
POLYLINE
8
CUT
66
1
70
0
0
VERTEX
8
CUT
10
69.6107
20
0
0
VERTEX
8
CUT
10
67.7942
20
3.1462
0
VERTEX
8
CUT
10
76.2058
20
3.1462
0
VERTEX
8
CUT
10
74.3893
20
0
0
SEQEND
0
POLYLINE
8
CUT
66
1
70
0
0
VERTEX
8
CUT
10
86.6825
20
0
0
VERTEX
8
CUT
10
84
20
4.6462
0
VERTEX
8
CUT
10
81.3175
20
0
0
SEQEND
0
POLYLINE
8
CUT
66
1
70
0
0
VERTEX
8
CUT
10
84.9504
20
0
0
VERTEX
8
CUT
10
84
20
1.6462
0
VERTEX
8
CUT
10
83.0496
20
0
0
SEQEND
0
LINE
8
CUT
10
85.5
20
7.6462
11
106.5
21
7.6462
0
LINE
8
CUT
10
84.75
20
6.3471
11
88.4145
21
0
0
LINE
8
CUT
10
107.25
20
6.3471
11
103.5855
21
0
0
POLYLINE
8
CUT
66
1
70
0
0
VERTEX
8
CUT
10
88.0981
20
6.1462
0
VERTEX
8
CUT
10
105.4019
20
6.1462
0
VERTEX
8
CUT
10
101.8534
20
0
0
SEQEND
0
LINE
8
CUT
10
90.1466
20
0
11
87.3481
21
4.8471
0
LINE
8
CUT
10
102.0538
20
3.3471
11
100.1214
21
0
0
POLYLINE
8
CUT
66
1
70
0
0
VERTEX
8
CUT
10
91.8786
20
0
0
VERTEX
8
CUT
10
89.1962
20
4.6462
0
VERTEX
8
CUT
10
101.3038
20
4.6462
0
SEQEND
0
POLYLINE
8
CUT
66
1
70
0
0
VERTEX
8
CUT
10
93.6107
20
0
0
VERTEX
8
CUT
10
91.7942
20
3.1462
0
VERTEX
8
CUT
10
100.2058
20
3.1462
0
VERTEX
8
CUT
10
98.3893
20
0
0
SEQEND
0
POLYLINE
8
CUT
66
1
70
0
0
VERTEX
8
CUT
10
110.6825
20
0
0
VERTEX
8
CUT
10
108
20
4.6462
0
VERTEX
8
CUT
10
105.3175
20
0
0
SEQEND
0
POLYLINE
8
CUT
66
1
70
0
0
VERTEX
8
CUT
10
108.9504
20
0
0
VERTEX
8
CUT
10
108
20
1.6462
0
VERTEX
8
CUT
10
107.0496
20
0
0
SEQEND
0
LINE
8
CUT
10
109.5
20
7.6462
11
120
21
7.6462
0
LINE
8
CUT
10
108.75
20
6.3471
11
112.4145
21
0
0
LINE
8
CUT
10
112.0981
20
6.1462
11
120
21
6.1462
0
LINE
8
CUT
10
114.1466
20
0
11
111.3481
21
4.8471
0
POLYLINE
8
CUT
66
1
70
0
0
VERTEX
8
CUT
10
115.8786
20
0
0
VERTEX
8
CUT
10
113.1962
20
4.6462
0
VERTEX
8
CUT
10
120
20
4.6462
0
SEQEND
0
POLYLINE
8
CUT
66
1
70
0
0
VERTEX
8
CUT
10
117.6107
20
0
0
VERTEX
8
CUT
10
115.7942
20
3.1462
0
VERTEX
8
CUT
10
120
20
3.1462
0
SEQEND
0
POLYLINE
8
CUT
66
1
70
0
0
VERTEX
8
CUT
10
0
20
70
0
VERTEX
8
CUT
10
120
20
70
0
VERTEX
8
CUT
10
120
20
0
0
VERTEX
8
CUT
10
0
20
0
0
VERTEX
8
CUT
10
0
20
70
0
SEQEND
0
ENDSEC
0
EOF
