0
SECTION
2
HEADER
9
$ACADVER
1
AC1009
9
$INSUNITS
70
4
0
ENDSEC
0
SECTION
2
TABLES
0
TABLE
2
LAYER
70
1
0
LAYER
2
CUT
70
0
62
1
6
CONTINUOUS
0
ENDTAB
0
ENDSEC
0
SECTION
2
ENTITIES
0
LINE
8
CUT
10
2.94
20
70
11
2.3333
21
69.805
0
LINE
8
CUT
10
18.44
20
70
11
17.8333
21
69.805
0
LINE
8
CUT
10
12.56
20
70
11
13.1667
21
69.805
0
LINE
8
CUT
10
33.94
20
70
11
33.3333
21
69.805
0
LINE
8
CUT
10
28.06
20
70
11
28.6667
21
69.805
0
LINE
8
CUT
10
49.44
20
70
11
48.8333
21
69.805
0
LINE
8
CUT
10
43.56
20
70
11
44.1667
21
69.805
0
LINE
8
CUT
10
64.94
20
70
11
64.3333
21
69.805
0
LINE
8
CUT
10
59.06
20
70
11
59.6667
21
69.805
0
LINE
8
CUT
10
80.44
20
70
11
79.8333
21
69.805
0
LINE
8
CUT
10
74.56
20
70
11
75.1667
21
69.805
0
LINE
8
CUT
10
95.94
20
70
11
95.3333
21
69.805
0
LINE
8
CUT
10
90.06
20
70
11
90.6667
21
69.805
0
LINE
8
CUT
10
111.44
20
70
11
110.8333
21
69.805
0
LINE
8
CUT
10
105.56
20
70
11
106.1667
21
69.805
0
POLYLINE
8
CUT
66
1
70
0
0
VERTEX
8
CUT
10
10.0833
20
69.25
0
VERTEX
8
CUT
10
14.75
20
67.75
0
VERTEX
8
CUT
10
14.75
20
63.25
0
VERTEX
8
CUT
10
10.0833
20
61.75
0
SEQEND
0
POLYLINE
8
CUT
66
1
70
0
0
VERTEX
8
CUT
10
5.4167
20
69.25
0
VERTEX
8
CUT
10
0.75
20
67.75
0
VERTEX
8
CUT
10
0.75
20
63.25
0
VERTEX
8
CUT
10
5.4167
20
61.75
0
SEQEND
0
POLYLINE
8
CUT
66
1
70
0
0
VERTEX
8
CUT
10
25.5833
20
69.25
0
VERTEX
8
CUT
10
30.25
20
67.75
0
VERTEX
8
CUT
10
30.25
20
63.25
0
VERTEX
8
CUT
10
25.5833
20
61.75
0
SEQEND
0
POLYLINE
8
CUT
66
1
70
0
0
VERTEX
8
CUT
10
20.9167
20
69.25
0
VERTEX
8
CUT
10
16.25
20
67.75
0
VERTEX
8
CUT
10
16.25
20
63.25
0
VERTEX
8
CUT
10
20.9167
20
61.75
0
SEQEND
0
POLYLINE
8
CUT
66
1
70
0
0
VERTEX
8
CUT
10
41.0833
20
69.25
0
VERTEX
8
CUT
10
45.75
20
67.75
0
VERTEX
8
CUT
10
45.75
20
63.25
0
VERTEX
8
CUT
10
41.0833
20
61.75
0
SEQEND
0
POLYLINE
8
CUT
66
1
70
0
0
VERTEX
8
CUT
10
36.4167
20
69.25
0
VERTEX
8
CUT
10
31.75
20
67.75
0
VERTEX
8
CUT
10
31.75
20
63.25
0
VERTEX
8
CUT
10
36.4167
20
61.75
0
SEQEND
0
POLYLINE
8
CUT
66
1
70
0
0
VERTEX
8
CUT
10
56.5833
20
69.25
0
VERTEX
8
CUT
10
61.25
20
67.75
0
VERTEX
8
CUT
10
61.25
20
63.25
0
VERTEX
8
CUT
10
56.5833
20
61.75
0
SEQEND
0
POLYLINE
8
CUT
66
1
70
0
0
VERTEX
8
CUT
10
51.9167
20
69.25
0
VERTEX
8
CUT
10
47.25
20
67.75
0
VERTEX
8
CUT
10
47.25
20
63.25
0
VERTEX
8
CUT
10
51.9167
20
61.75
0
SEQEND
0
POLYLINE
8
CUT
66
1
70
0
0
VERTEX
8
CUT
10
72.0833
20
69.25
0
VERTEX
8
CUT
10
76.75
20
67.75
0
VERTEX
8
CUT
10
76.75
20
63.25
0
VERTEX
8
CUT
10
72.0833
20
61.75
0
SEQEND
0
POLYLINE
8
CUT
66
1
70
0
0
VERTEX
8
CUT
10
67.4167
20
69.25
0
VERTEX
8
CUT
10
62.75
20
67.75
0
VERTEX
8
CUT
10
62.75
20
63.25
0
VERTEX
8
CUT
10
67.4167
20
61.75
0
SEQEND
0
POLYLINE
8
CUT
66
1
70
0
0
VERTEX
8
CUT
10
87.5833
20
69.25
0
VERTEX
8
CUT
10
92.25
20
67.75
0
VERTEX
8
CUT
10
92.25
20
63.25
0
VERTEX
8
CUT
10
87.5833
20
61.75
0
SEQEND
0
POLYLINE
8
CUT
66
1
70
0
0
VERTEX
8
CUT
10
82.9167
20
69.25
0
VERTEX
8
CUT
10
78.25
20
67.75
0
VERTEX
8
CUT
10
78.25
20
63.25
0
VERTEX
8
CUT
10
82.9167
20
61.75
0
SEQEND
0
POLYLINE
8
CUT
66
1
70
0
0
VERTEX
8
CUT
10
103.0833
20
69.25
0
VERTEX
8
CUT
10
107.75
20
67.75
0
VERTEX
8
CUT
10
107.75
20
63.25
0
VERTEX
8
CUT
10
103.0833
20
61.75
0
SEQEND
0
POLYLINE
8
CUT
66
1
70
0
0
VERTEX
8
CUT
10
98.4167
20
69.25
0
VERTEX
8
CUT
10
93.75
20
67.75
0
VERTEX
8
CUT
10
93.75
20
63.25
0
VERTEX
8
CUT
10
98.4167
20
61.75
0
SEQEND
0
LINE
8
CUT
10
118.5833
20
69.25
11
120
21
68.7946
0
LINE
8
CUT
10
120
20
62.2054
11
118.5833
21
61.75
0
POLYLINE
8
CUT
66
1
70
0
0
VERTEX
8
CUT
10
113.9167
20
69.25
0
VERTEX
8
CUT
10
109.25
20
67.75
0
VERTEX
8
CUT
10
109.25
20
63.25
0
VERTEX
8
CUT
10
113.9167
20
61.75
0
SEQEND
0
POLYLINE
8
CUT
66
1
70
0
0
VERTEX
8
CUT
10
2.3333
20
61.195
0
VERTEX
8
CUT
10
7
20
59.695
0
VERTEX
8
CUT
10
7
20
55.195
0
VERTEX
8
CUT
10
2.3333
20
53.695
0
SEQEND
0
POLYLINE
8
CUT
66
1
70
0
0
VERTEX
8
CUT
10
17.8333
20
61.195
0
VERTEX
8
CUT
10
22.5
20
59.695
0
VERTEX
8
CUT
10
22.5
20
55.195
0
VERTEX
8
CUT
10
17.8333
20
53.695
0
SEQEND
0
POLYLINE
8
CUT
66
1
70
0
0
VERTEX
8
CUT
10
13.1667
20
61.195
0
VERTEX
8
CUT
10
8.5
20
59.695
0
VERTEX
8
CUT
10
8.5
20
55.195
0
VERTEX
8
CUT
10
13.1667
20
53.695
0
SEQEND
0
POLYLINE
8
CUT
66
1
70
0
0
VERTEX
8
CUT
10
33.3333
20
61.195
0
VERTEX
8
CUT
10
38
20
59.695
0
VERTEX
8
CUT
10
38
20
55.195
0
VERTEX
8
CUT
10
33.3333
20
53.695
0
SEQEND
0
POLYLINE
8
CUT
66
1
70
0
0
VERTEX
8
CUT
10
28.6667
20
61.195
0
VERTEX
8
CUT
10
24
20
59.695
0
VERTEX
8
CUT
10
24
20
55.195
0
VERTEX
8
CUT
10
28.6667
20
53.695
0
SEQEND
0
POLYLINE
8
CUT
66
1
70
0
0
VERTEX
8
CUT
10
48.8333
20
61.195
0
VERTEX
8
CUT
10
53.5
20
59.695
0
VERTEX
8
CUT
10
53.5
20
55.195
0
VERTEX
8
CUT
10
48.8333
20
53.695
0
SEQEND
0
POLYLINE
8
CUT
66
1
70
0
0
VERTEX
8
CUT
10
44.1667
20
61.195
0
VERTEX
8
CUT
10
39.5
20
59.695
0
VERTEX
8
CUT
10
39.5
20
55.195
0
VERTEX
8
CUT
10
44.1667
20
53.695
0
SEQEND
0
POLYLINE
8
CUT
66
1
70
0
0
VERTEX
8
CUT
10
64.3333
20
61.195
0
VERTEX
8
CUT
10
69
20
59.695
0
VERTEX
8
CUT
10
69
20
55.195
0
VERTEX
8
CUT
10
64.3333
20
53.695
0
SEQEND
0
POLYLINE
8
CUT
66
1
70
0
0
VERTEX
8
CUT
10
59.6667
20
61.195
0
VERTEX
8
CUT
10
55
20
59.695
0
VERTEX
8
CUT
10
55
20
55.195
0
VERTEX
8
CUT
10
59.6667
20
53.695
0
SEQEND
0
POLYLINE
8
CUT
66
1
70
0
0
VERTEX
8
CUT
10
79.8333
20
61.195
0
VERTEX
8
CUT
10
84.5
20
59.695
0
VERTEX
8
CUT
10
84.5
20
55.195
0
VERTEX
8
CUT
10
79.8333
20
53.695
0
SEQEND
0
POLYLINE
8
CUT
66
1
70
0
0
VERTEX
8
CUT
10
75.1667
20
61.195
0
VERTEX
8
CUT
10
70.5
20
59.695
0
VERTEX
8
CUT
10
70.5
20
55.195
0
VERTEX
8
CUT
10
75.1667
20
53.695
0
SEQEND
0
POLYLINE
8
CUT
66
1
70
0
0
VERTEX
8
CUT
10
95.3333
20
61.195
0
VERTEX
8
CUT
10
100
20
59.695
0
VERTEX
8
CUT
10
100
20
55.195
0
VERTEX
8
CUT
10
95.3333
20
53.695
0
SEQEND
0
POLYLINE
8
CUT
66
1
70
0
0
VERTEX
8
CUT
10
90.6667
20
61.195
0
VERTEX
8
CUT
10
86
20
59.695
0
VERTEX
8
CUT
10
86
20
55.195
0
VERTEX
8
CUT
10
90.6667
20
53.695
0
SEQEND
0
POLYLINE
8
CUT
66
1
70
0
0
VERTEX
8
CUT
10
110.8333
20
61.195
0
VERTEX
8
CUT
10
115.5
20
59.695
0
VERTEX
8
CUT
10
115.5
20
55.195
0
VERTEX
8
CUT
10
110.8333
20
53.695
0
SEQEND
0
POLYLINE
8
CUT
66
1
70
0
0
VERTEX
8
CUT
10
106.1667
20
61.195
0
VERTEX
8
CUT
10
101.5
20
59.695
0
VERTEX
8
CUT
10
101.5
20
55.195
0
VERTEX
8
CUT
10
106.1667
20
53.695
0
SEQEND
0
POLYLINE
8
CUT
66
1
70
0
0
VERTEX
8
CUT
10
120
20
60.6593
0
VERTEX
8
CUT
10
117
20
59.695
0
VERTEX
8
CUT
10
117
20
55.195
0
VERTEX
8
CUT
10
120
20
54.2307
0
SEQEND
0
POLYLINE
8
CUT
66
1
70
0
0
VERTEX
8
CUT
10
10.0833
20
53.14
0
VERTEX
8
CUT
10
14.75
20
51.64
0
VERTEX
8
CUT
10
14.75
20
47.14
0
VERTEX
8
CUT
10
10.0833
20
45.64
0
SEQEND
0
POLYLINE
8
CUT
66
1
70
0
0
VERTEX
8
CUT
10
5.4167
20
53.14
0
VERTEX
8
CUT
10
0.75
20
51.64
0
VERTEX
8
CUT
10
0.75
20
47.14
0
VERTEX
8
CUT
10
5.4167
20
45.64
0
SEQEND
0
POLYLINE
8
CUT
66
1
70
0
0
VERTEX
8
CUT
10
25.5833
20
53.14
0
VERTEX
8
CUT
10
30.25
20
51.64
0
VERTEX
8
CUT
10
30.25
20
47.14
0
VERTEX
8
CUT
10
25.5833
20
45.64
0
SEQEND
0
POLYLINE
8
CUT
66
1
70
0
0
VERTEX
8
CUT
10
20.9167
20
53.14
0
VERTEX
8
CUT
10
16.25
20
51.64
0
VERTEX
8
CUT
10
16.25
20
47.14
0
VERTEX
8
CUT
10
20.9167
20
45.64
0
SEQEND
0
POLYLINE
8
CUT
66
1
70
0
0
VERTEX
8
CUT
10
41.0833
20
53.14
0
VERTEX
8
CUT
10
45.75
20
51.64
0
VERTEX
8
CUT
10
45.75
20
47.14
0
VERTEX
8
CUT
10
41.0833
20
45.64
0
SEQEND
0
POLYLINE
8
CUT
66
1
70
0
0
VERTEX
8
CUT
10
36.4167
20
53.14
0
VERTEX
8
CUT
10
31.75
20
51.64
0
VERTEX
8
CUT
10
31.75
20
47.14
0
VERTEX
8
CUT
10
36.4167
20
45.64
0
SEQEND
0
POLYLINE
8
CUT
66
1
70
0
0
VERTEX
8
CUT
10
56.5833
20
53.14
0
VERTEX
8
CUT
10
61.25
20
51.64
0
VERTEX
8
CUT
10
61.25
20
47.14
0
VERTEX
8
CUT
10
56.5833
20
45.64
0
SEQEND
0
POLYLINE
8
CUT
66
1
70
0
0
VERTEX
8
CUT
10
51.9167
20
53.14
0
VERTEX
8
CUT
10
47.25
20
51.64
0
VERTEX
8
CUT
10
47.25
20
47.14
0
VERTEX
8
CUT
10
51.9167
20
45.64
0
SEQEND
0
POLYLINE
8
CUT
66
1
70
0
0
VERTEX
8
CUT
10
72.0833
20
53.14
0
VERTEX
8
CUT
10
76.75
20
51.64
0
VERTEX
8
CUT
10
76.75
20
47.14
0
VERTEX
8
CUT
10
72.0833
20
45.64
0
SEQEND
0
POLYLINE
8
CUT
66
1
70
0
0
VERTEX
8
CUT
10
67.4167
20
53.14
0
VERTEX
8
CUT
10
62.75
20
51.64
0
VERTEX
8
CUT
10
62.75
20
47.14
0
VERTEX
8
CUT
10
67.4167
20
45.64
0
SEQEND
0
POLYLINE
8
CUT
66
1
70
0
0
VERTEX
8
CUT
10
87.5833
20
53.14
0
VERTEX
8
CUT
10
92.25
20
51.64
0
VERTEX
8
CUT
10
92.25
20
47.14
0
VERTEX
8
CUT
10
87.5833
20
45.64
0
SEQEND
0
POLYLINE
8
CUT
66
1
70
0
0
VERTEX
8
CUT
10
82.9167
20
53.14
0
VERTEX
8
CUT
10
78.25
20
51.64
0
VERTEX
8
CUT
10
78.25
20
47.14
0
VERTEX
8
CUT
10
82.9167
20
45.64
0
SEQEND
0
POLYLINE
8
CUT
66
1
70
0
0
VERTEX
8
CUT
10
103.0833
20
53.14
0
VERTEX
8
CUT
10
107.75
20
51.64
0
VERTEX
8
CUT
10
107.75
20
47.14
0
VERTEX
8
CUT
10
103.0833
20
45.64
0
SEQEND
0
POLYLINE
8
CUT
66
1
70
0
0
VERTEX
8
CUT
10
98.4167
20
53.14
0
VERTEX
8
CUT
10
93.75
20
51.64
0
VERTEX
8
CUT
10
93.75
20
47.14
0
VERTEX
8
CUT
10
98.4167
20
45.64
0
SEQEND
0
LINE
8
CUT
10
118.5833
20
53.14
11
120
21
52.6846
0
LINE
8
CUT
10
120
20
46.0954
11
118.5833
21
45.64
0
POLYLINE
8
CUT
66
1
70
0
0
VERTEX
8
CUT
10
113.9167
20
53.14
0
VERTEX
8
CUT
10
109.25
20
51.64
0
VERTEX
8
CUT
10
109.25
20
47.14
0
VERTEX
8
CUT
10
113.9167
20
45.64
0
SEQEND
0
POLYLINE
8
CUT
66
1
70
0
0
VERTEX
8
CUT
10
2.3333
20
45.085
0
VERTEX
8
CUT
10
7
20
43.585
0
VERTEX
8
CUT
10
7
20
39.085
0
VERTEX
8
CUT
10
2.3333
20
37.585
0
SEQEND
0
POLYLINE
8
CUT
66
1
70
0
0
VERTEX
8
CUT
10
17.8333
20
45.085
0
VERTEX
8
CUT
10
22.5
20
43.585
0
VERTEX
8
CUT
10
22.5
20
39.085
0
VERTEX
8
CUT
10
17.8333
20
37.585
0
SEQEND
0
POLYLINE
8
CUT
66
1
70
0
0
VERTEX
8
CUT
10
13.1667
20
45.085
0
VERTEX
8
CUT
10
8.5
20
43.585
0
VERTEX
8
CUT
10
8.5
20
39.085
0
VERTEX
8
CUT
10
13.1667
20
37.585
0
SEQEND
0
POLYLINE
8
CUT
66
1
70
0
0
VERTEX
8
CUT
10
33.3333
20
45.085
0
VERTEX
8
CUT
10
38
20
43.585
0
VERTEX
8
CUT
10
38
20
39.085
0
VERTEX
8
CUT
10
33.3333
20
37.585
0
SEQEND
0
POLYLINE
8
CUT
66
1
70
0
0
VERTEX
8
CUT
10
28.6667
20
45.085
0
VERTEX
8
CUT
10
24
20
43.585
0
VERTEX
8
CUT
10
24
20
39.085
0
VERTEX
8
CUT
10
28.6667
20
37.585
0
SEQEND
0
POLYLINE
8
CUT
66
1
70
0
0
VERTEX
8
CUT
10
48.8333
20
45.085
0
VERTEX
8
CUT
10
53.5
20
43.585
0
VERTEX
8
CUT
10
53.5
20
39.085
0
VERTEX
8
CUT
10
48.8333
20
37.585
0
SEQEND
0
POLYLINE
8
CUT
66
1
70
0
0
VERTEX
8
CUT
10
44.1667
20
45.085
0
VERTEX
8
CUT
10
39.5
20
43.585
0
VERTEX
8
CUT
10
39.5
20
39.085
0
VERTEX
8
CUT
10
44.1667
20
37.585
0
SEQEND
0
POLYLINE
8
CUT
66
1
70
0
0
VERTEX
8
CUT
10
64.3333
20
45.085
0
VERTEX
8
CUT
10
69
20
43.585
0
VERTEX
8
CUT
10
69
20
39.085
0
VERTEX
8
CUT
10
64.3333
20
37.585
0
SEQEND
0
POLYLINE
8
CUT
66
1
70
0
0
VERTEX
8
CUT
10
59.6667
20
45.085
0
VERTEX
8
CUT
10
55
20
43.585
0
VERTEX
8
CUT
10
55
20
39.085
0
VERTEX
8
CUT
10
59.6667
20
37.585
0
SEQEND
0
POLYLINE
8
CUT
66
1
70
0
0
VERTEX
8
CUT
10
79.8333
20
45.085
0
VERTEX
8
CUT
10
84.5
20
43.585
0
VERTEX
8
CUT
10
84.5
20
39.085
0
VERTEX
8
CUT
10
79.8333
20
37.585
0
SEQEND
0
POLYLINE
8
CUT
66
1
70
0
0
VERTEX
8
CUT
10
75.1667
20
45.085
0
VERTEX
8
CUT
10
70.5
20
43.585
0
VERTEX
8
CUT
10
70.5
20
39.085
0
VERTEX
8
CUT
10
75.1667
20
37.585
0
SEQEND
0
POLYLINE
8
CUT
66
1
70
0
0
VERTEX
8
CUT
10
95.3333
20
45.085
0
VERTEX
8
CUT
10
100
20
43.585
0
VERTEX
8
CUT
10
100
20
39.085
0
VERTEX
8
CUT
10
95.3333
20
37.585
0
SEQEND
0
POLYLINE
8
CUT
66
1
70
0
0
VERTEX
8
CUT
10
90.6667
20
45.085
0
VERTEX
8
CUT
10
86
20
43.585
0
VERTEX
8
CUT
10
86
20
39.085
0
VERTEX
8
CUT
10
90.6667
20
37.585
0
SEQEND
0
POLYLINE
8
CUT
66
1
70
0
0
VERTEX
8
CUT
10
110.8333
20
45.085
0
VERTEX
8
CUT
10
115.5
20
43.585
0
VERTEX
8
CUT
10
115.5
20
39.085
0
VERTEX
8
CUT
10
110.8333
20
37.585
0
SEQEND
0
POLYLINE
8
CUT
66
1
70
0
0
VERTEX
8
CUT
10
106.1667
20
45.085
0
VERTEX
8
CUT
10
101.5
20
43.585
0
VERTEX
8
CUT
10
101.5
20
39.085
0
VERTEX
8
CUT
10
106.1667
20
37.585
0
SEQEND
0
POLYLINE
8
CUT
66
1
70
0
0
VERTEX
8
CUT
10
120
20
44.5493
0
VERTEX
8
CUT
10
117
20
43.585
0
VERTEX
8
CUT
10
117
20
39.085
0
VERTEX
8
CUT
10
120
20
38.1207
0
SEQEND
0
POLYLINE
8
CUT
66
1
70
0
0
VERTEX
8
CUT
10
10.0833
20
37.03
0
VERTEX
8
CUT
10
14.75
20
35.53
0
VERTEX
8
CUT
10
14.75
20
31.03
0
VERTEX
8
CUT
10
10.0833
20
29.53
0
SEQEND
0
POLYLINE
8
CUT
66
1
70
0
0
VERTEX
8
CUT
10
5.4167
20
37.03
0
VERTEX
8
CUT
10
0.75
20
35.53
0
VERTEX
8
CUT
10
0.75
20
31.03
0
VERTEX
8
CUT
10
5.4167
20
29.53
0
SEQEND
0
POLYLINE
8
CUT
66
1
70
0
0
VERTEX
8
CUT
10
25.5833
20
37.03
0
VERTEX
8
CUT
10
30.25
20
35.53
0
VERTEX
8
CUT
10
30.25
20
31.03
0
VERTEX
8
CUT
10
25.5833
20
29.53
0
SEQEND
0
POLYLINE
8
CUT
66
1
70
0
0
VERTEX
8
CUT
10
20.9167
20
37.03
0
VERTEX
8
CUT
10
16.25
20
35.53
0
VERTEX
8
CUT
10
16.25
20
31.03
0
VERTEX
8
CUT
10
20.9167
20
29.53
0
SEQEND
0
POLYLINE
8
CUT
66
1
70
0
0
VERTEX
8
CUT
10
41.0833
20
37.03
0
VERTEX
8
CUT
10
45.75
20
35.53
0
VERTEX
8
CUT
10
45.75
20
31.03
0
VERTEX
8
CUT
10
41.0833
20
29.53
0
SEQEND
0
POLYLINE
8
CUT
66
1
70
0
0
VERTEX
8
CUT
10
36.4167
20
37.03
0
VERTEX
8
CUT
10
31.75
20
35.53
0
VERTEX
8
CUT
10
31.75
20
31.03
0
VERTEX
8
CUT
10
36.4167
20
29.53
0
SEQEND
0
POLYLINE
8
CUT
66
1
70
0
0
VERTEX
8
CUT
10
56.5833
20
37.03
0
VERTEX
8
CUT
10
61.25
20
35.53
0
VERTEX
8
CUT
10
61.25
20
31.03
0
VERTEX
8
CUT
10
56.5833
20
29.53
0
SEQEND
0
POLYLINE
8
CUT
66
1
70
0
0
VERTEX
8
CUT
10
51.9167
20
37.03
0
VERTEX
8
CUT
10
47.25
20
35.53
0
VERTEX
8
CUT
10
47.25
20
31.03
0
VERTEX
8
CUT
10
51.9167
20
29.53
0
SEQEND
0
POLYLINE
8
CUT
66
1
70
0
0
VERTEX
8
CUT
10
72.0833
20
37.03
0
VERTEX
8
CUT
10
76.75
20
35.53
0
VERTEX
8
CUT
10
76.75
20
31.03
0
VERTEX
8
CUT
10
72.0833
20
29.53
0
SEQEND
0
POLYLINE
8
CUT
66
1
70
0
0
VERTEX
8
CUT
10
67.4167
20
37.03
0
VERTEX
8
CUT
10
62.75
20
35.53
0
VERTEX
8
CUT
10
62.75
20
31.03
0
VERTEX
8
CUT
10
67.4167
20
29.53
0
SEQEND
0
POLYLINE
8
CUT
66
1
70
0
0
VERTEX
8
CUT
10
87.5833
20
37.03
0
VERTEX
8
CUT
10
92.25
20
35.53
0
VERTEX
8
CUT
10
92.25
20
31.03
0
VERTEX
8
CUT
10
87.5833
20
29.53
0
SEQEND
0
POLYLINE
8
CUT
66
1
70
0
0
VERTEX
8
CUT
10
82.9167
20
37.03
0
VERTEX
8
CUT
10
78.25
20
35.53
0
VERTEX
8
CUT
10
78.25
20
31.03
0
VERTEX
8
CUT
10
82.9167
20
29.53
0
SEQEND
0
POLYLINE
8
CUT
66
1
70
0
0
VERTEX
8
CUT
10
103.0833
20
37.03
0
VERTEX
8
CUT
10
107.75
20
35.53
0
VERTEX
8
CUT
10
107.75
20
31.03
0
VERTEX
8
CUT
10
103.0833
20
29.53
0
SEQEND
0
POLYLINE
8
CUT
66
1
70
0
0
VERTEX
8
CUT
10
98.4167
20
37.03
0
VERTEX
8
CUT
10
93.75
20
35.53
0
VERTEX
8
CUT
10
93.75
20
31.03
0
VERTEX
8
CUT
10
98.4167
20
29.53
0
SEQEND
0
LINE
8
CUT
10
118.5833
20
37.03
11
120
21
36.5746
0
LINE
8
CUT
10
120
20
29.9854
11
118.5833
21
29.53
0
POLYLINE
8
CUT
66
1
70
0
0
VERTEX
8
CUT
10
113.9167
20
37.03
0
VERTEX
8
CUT
10
109.25
20
35.53
0
VERTEX
8
CUT
10
109.25
20
31.03
0
VERTEX
8
CUT
10
113.9167
20
29.53
0
SEQEND
0
POLYLINE
8
CUT
66
1
70
0
0
VERTEX
8
CUT
10
2.3333
20
28.975
0
VERTEX
8
CUT
10
7
20
27.475
0
VERTEX
8
CUT
10
7
20
22.975
0
VERTEX
8
CUT
10
2.3333
20
21.475
0
SEQEND
0
POLYLINE
8
CUT
66
1
70
0
0
VERTEX
8
CUT
10
17.8333
20
28.975
0
VERTEX
8
CUT
10
22.5
20
27.475
0
VERTEX
8
CUT
10
22.5
20
22.975
0
VERTEX
8
CUT
10
17.8333
20
21.475
0
SEQEND
0
POLYLINE
8
CUT
66
1
70
0
0
VERTEX
8
CUT
10
13.1667
20
28.975
0
VERTEX
8
CUT
10
8.5
20
27.475
0
VERTEX
8
CUT
10
8.5
20
22.975
0
VERTEX
8
CUT
10
13.1667
20
21.475
0
SEQEND
0
POLYLINE
8
CUT
66
1
70
0
0
VERTEX
8
CUT
10
33.3333
20
28.975
0
VERTEX
8
CUT
10
38
20
27.475
0
VERTEX
8
CUT
10
38
20
22.975
0
VERTEX
8
CUT
10
33.3333
20
21.475
0
SEQEND
0
POLYLINE
8
CUT
66
1
70
0
0
VERTEX
8
CUT
10
28.6667
20
28.975
0
VERTEX
8
CUT
10
24
20
27.475
0
VERTEX
8
CUT
10
24
20
22.975
0
VERTEX
8
CUT
10
28.6667
20
21.475
0
SEQEND
0
POLYLINE
8
CUT
66
1
70
0
0
VERTEX
8
CUT
10
48.8333
20
28.975
0
VERTEX
8
CUT
10
53.5
20
27.475
0
VERTEX
8
CUT
10
53.5
20
22.975
0
VERTEX
8
CUT
10
48.8333
20
21.475
0
SEQEND
0
POLYLINE
8
CUT
66
1
70
0
0
VERTEX
8
CUT
10
44.1667
20
28.975
0
VERTEX
8
CUT
10
39.5
20
27.475
0
VERTEX
8
CUT
10
39.5
20
22.975
0
VERTEX
8
CUT
10
44.1667
20
21.475
0
SEQEND
0
POLYLINE
8
CUT
66
1
70
0
0
VERTEX
8
CUT
10
64.3333
20
28.975
0
VERTEX
8
CUT
10
69
20
27.475
0
VERTEX
8
CUT
10
69
20
22.975
0
VERTEX
8
CUT
10
64.3333
20
21.475
0
SEQEND
0
POLYLINE
8
CUT
66
1
70
0
0
VERTEX
8
CUT
10
59.6667
20
28.975
0
VERTEX
8
CUT
10
55
20
27.475
0
VERTEX
8
CUT
10
55
20
22.975
0
VERTEX
8
CUT
10
59.6667
20
21.475
0
SEQEND
0
POLYLINE
8
CUT
66
1
70
0
0
VERTEX
8
CUT
10
79.8333
20
28.975
0
VERTEX
8
CUT
10
84.5
20
27.475
0
VERTEX
8
CUT
10
84.5
20
22.975
0
VERTEX
8
CUT
10
79.8333
20
21.475
0
SEQEND
0
POLYLINE
8
CUT
66
1
70
0
0
VERTEX
8
CUT
10
75.1667
20
28.975
0
VERTEX
8
CUT
10
70.5
20
27.475
0
VERTEX
8
CUT
10
70.5
20
22.975
0
VERTEX
8
CUT
10
75.1667
20
21.475
0
SEQEND
0
POLYLINE
8
CUT
66
1
70
0
0
VERTEX
8
CUT
10
95.3333
20
28.975
0
VERTEX
8
CUT
10
100
20
27.475
0
VERTEX
8
CUT
10
100
20
22.975
0
VERTEX
8
CUT
10
95.3333
20
21.475
0
SEQEND
0
POLYLINE
8
CUT
66
1
70
0
0
VERTEX
8
CUT
10
90.6667
20
28.975
0
VERTEX
8
CUT
10
86
20
27.475
0
VERTEX
8
CUT
10
86
20
22.975
0
VERTEX
8
CUT
10
90.6667
20
21.475
0
SEQEND
0
POLYLINE
8
CUT
66
1
70
0
0
VERTEX
8
CUT
10
110.8333
20
28.975
0
VERTEX
8
CUT
10
115.5
20
27.475
0
VERTEX
8
CUT
10
115.5
20
22.975
0
VERTEX
8
CUT
10
110.8333
20
21.475
0
SEQEND
0
POLYLINE
8
CUT
66
1
70
0
0
VERTEX
8
CUT
10
106.1667
20
28.975
0
VERTEX
8
CUT
10
101.5
20
27.475
0
VERTEX
8
CUT
10
101.5
20
22.975
0
VERTEX
8
CUT
10
106.1667
20
21.475
0
SEQEND
0
POLYLINE
8
CUT
66
1
70
0
0
VERTEX
8
CUT
10
120
20
28.4393
0
VERTEX
8
CUT
10
117
20
27.475
0
VERTEX
8
CUT
10
117
20
22.975
0
VERTEX
8
CUT
10
120
20
22.0107
0
SEQEND
0
POLYLINE
8
CUT
66
1
70
0
0
VERTEX
8
CUT
10
10.0833
20
20.92
0
VERTEX
8
CUT
10
14.75
20
19.42
0
VERTEX
8
CUT
10
14.75
20
14.92
0
VERTEX
8
CUT
10
10.0833
20
13.42
0
SEQEND
0
POLYLINE
8
CUT
66
1
70
0
0
VERTEX
8
CUT
10
5.4167
20
20.92
0
VERTEX
8
CUT
10
0.75
20
19.42
0
VERTEX
8
CUT
10
0.75
20
14.92
0
VERTEX
8
CUT
10
5.4167
20
13.42
0
SEQEND
0
POLYLINE
8
CUT
66
1
70
0
0
VERTEX
8
CUT
10
25.5833
20
20.92
0
VERTEX
8
CUT
10
30.25
20
19.42
0
VERTEX
8
CUT
10
30.25
20
14.92
0
VERTEX
8
CUT
10
25.5833
20
13.42
0
SEQEND
0
POLYLINE
8
CUT
66
1
70
0
0
VERTEX
8
CUT
10
20.9167
20
20.92
0
VERTEX
8
CUT
10
16.25
20
19.42
0
VERTEX
8
CUT
10
16.25
20
14.92
0
VERTEX
8
CUT
10
20.9167
20
13.42
0
SEQEND
0
POLYLINE
8
CUT
66
1
70
0
0
VERTEX
8
CUT
10
41.0833
20
20.92
0
VERTEX
8
CUT
10
45.75
20
19.42
0
VERTEX
8
CUT
10
45.75
20
14.92
0
VERTEX
8
CUT
10
41.0833
20
13.42
0
SEQEND
0
POLYLINE
8
CUT
66
1
70
0
0
VERTEX
8
CUT
10
36.4167
20
20.92
0
VERTEX
8
CUT
10
31.75
20
19.42
0
VERTEX
8
CUT
10
31.75
20
14.92
0
VERTEX
8
CUT
10
36.4167
20
13.42
0
SEQEND
0
POLYLINE
8
CUT
66
1
70
0
0
VERTEX
8
CUT
10
56.5833
20
20.92
0
VERTEX
8
CUT
10
61.25
20
19.42
0
VERTEX
8
CUT
10
61.25
20
14.92
0
VERTEX
8
CUT
10
56.5833
20
13.42
0
SEQEND
0
POLYLINE
8
CUT
66
1
70
0
0
VERTEX
8
CUT
10
51.9167
20
20.92
0
VERTEX
8
CUT
10
47.25
20
19.42
0
VERTEX
8
CUT
10
47.25
20
14.92
0
VERTEX
8
CUT
10
51.9167
20
13.42
0
SEQEND
0
POLYLINE
8
CUT
66
1
70
0
0
VERTEX
8
CUT
10
72.0833
20
20.92
0
VERTEX
8
CUT
10
76.75
20
19.42
0
VERTEX
8
CUT
10
76.75
20
14.92
0
VERTEX
8
CUT
10
72.0833
20
13.42
0
SEQEND
0
POLYLINE
8
CUT
66
1
70
0
0
VERTEX
8
CUT
10
67.4167
20
20.92
0
VERTEX
8
CUT
10
62.75
20
19.42
0
VERTEX
8
CUT
10
62.75
20
14.92
0
VERTEX
8
CUT
10
67.4167
20
13.42
0
SEQEND
0
POLYLINE
8
CUT
66
1
70
0
0
VERTEX
8
CUT
10
87.5833
20
20.92
0
VERTEX
8
CUT
10
92.25
20
19.42
0
VERTEX
8
CUT
10
92.25
20
14.92
0
VERTEX
8
CUT
10
87.5833
20
13.42
0
SEQEND
0
POLYLINE
8
CUT
66
1
70
0
0
VERTEX
8
CUT
10
82.9167
20
20.92
0
VERTEX
8
CUT
10
78.25
20
19.42
0
VERTEX
8
CUT
10
78.25
20
14.92
0
VERTEX
8
CUT
10
82.9167
20
13.42
0
SEQEND
0
POLYLINE
8
CUT
66
1
70
0
0
VERTEX
8
CUT
10
103.0833
20
20.92
0
VERTEX
8
CUT
10
107.75
20
19.42
0
VERTEX
8
CUT
10
107.75
20
14.92
0
VERTEX
8
CUT
10
103.0833
20
13.42
0
SEQEND
0
POLYLINE
8
CUT
66
1
70
0
0
VERTEX
8
CUT
10
98.4167
20
20.92
0
VERTEX
8
CUT
10
93.75
20
19.42
0
VERTEX
8
CUT
10
93.75
20
14.92
0
VERTEX
8
CUT
10
98.4167
20
13.42
0
SEQEND
0
LINE
8
CUT
10
118.5833
20
20.92
11
120
21
20.4646
0
LINE
8
CUT
10
120
20
13.8754
11
118.5833
21
13.42
0
POLYLINE
8
CUT
66
1
70
0
0
VERTEX
8
CUT
10
113.9167
20
20.92
0
VERTEX
8
CUT
10
109.25
20
19.42
0
VERTEX
8
CUT
10
109.25
20
14.92
0
VERTEX
8
CUT
10
113.9167
20
13.42
0
SEQEND
0
POLYLINE
8
CUT
66
1
70
0
0
VERTEX
8
CUT
10
2.3333
20
12.865
0
VERTEX
8
CUT
10
7
20
11.365
0
VERTEX
8
CUT
10
7
20
6.865
0
VERTEX
8
CUT
10
2.3333
20
5.365
0
SEQEND
0
POLYLINE
8
CUT
66
1
70
0
0
VERTEX
8
CUT
10
17.8333
20
12.865
0
VERTEX
8
CUT
10
22.5
20
11.365
0
VERTEX
8
CUT
10
22.5
20
6.865
0
VERTEX
8
CUT
10
17.8333
20
5.365
0
SEQEND
0
POLYLINE
8
CUT
66
1
70
0
0
VERTEX
8
CUT
10
13.1667
20
12.865
0
VERTEX
8
CUT
10
8.5
20
11.365
0
VERTEX
8
CUT
10
8.5
20
6.865
0
VERTEX
8
CUT
10
13.1667
20
5.365
0
SEQEND
0
POLYLINE
8
CUT
66
1
70
0
0
VERTEX
8
CUT
10
33.3333
20
12.865
0
VERTEX
8
CUT
10
38
20
11.365
0
VERTEX
8
CUT
10
38
20
6.865
0
VERTEX
8
CUT
10
33.3333
20
5.365
0
SEQEND
0
POLYLINE
8
CUT
66
1
70
0
0
VERTEX
8
CUT
10
28.6667
20
12.865
0
VERTEX
8
CUT
10
24
20
11.365
0
VERTEX
8
CUT
10
24
20
6.865
0
VERTEX
8
CUT
10
28.6667
20
5.365
0
SEQEND
0
POLYLINE
8
CUT
66
1
70
0
0
VERTEX
8
CUT
10
48.8333
20
12.865
0
VERTEX
8
CUT
10
53.5
20
11.365
0
VERTEX
8
CUT
10
53.5
20
6.865
0
VERTEX
8
CUT
10
48.8333
20
5.365
0
SEQEND
0
POLYLINE
8
CUT
66
1
70
0
0
VERTEX
8
CUT
10
44.1667
20
12.865
0
VERTEX
8
CUT
10
39.5
20
11.365
0
VERTEX
8
CUT
10
39.5
20
6.865
0
VERTEX
8
CUT
10
44.1667
20
5.365
0
SEQEND
0
POLYLINE
8
CUT
66
1
70
0
0
VERTEX
8
CUT
10
64.3333
20
12.865
0
VERTEX
8
CUT
10
69
20
11.365
0
VERTEX
8
CUT
10
69
20
6.865
0
VERTEX
8
CUT
10
64.3333
20
5.365
0
SEQEND
0
POLYLINE
8
CUT
66
1
70
0
0
VERTEX
8
CUT
10
59.6667
20
12.865
0
VERTEX
8
CUT
10
55
20
11.365
0
VERTEX
8
CUT
10
55
20
6.865
0
VERTEX
8
CUT
10
59.6667
20
5.365
0
SEQEND
0
POLYLINE
8
CUT
66
1
70
0
0
VERTEX
8
CUT
10
79.8333
20
12.865
0
VERTEX
8
CUT
10
84.5
20
11.365
0
VERTEX
8
CUT
10
84.5
20
6.865
0
VERTEX
8
CUT
10
79.8333
20
5.365
0
SEQEND
0
POLYLINE
8
CUT
66
1
70
0
0
VERTEX
8
CUT
10
75.1667
20
12.865
0
VERTEX
8
CUT
10
70.5
20
11.365
0
VERTEX
8
CUT
10
70.5
20
6.865
0
VERTEX
8
CUT
10
75.1667
20
5.365
0
SEQEND
0
POLYLINE
8
CUT
66
1
70
0
0
VERTEX
8
CUT
10
95.3333
20
12.865
0
VERTEX
8
CUT
10
100
20
11.365
0
VERTEX
8
CUT
10
100
20
6.865
0
VERTEX
8
CUT
10
95.3333
20
5.365
0
SEQEND
0
POLYLINE
8
CUT
66
1
70
0
0
VERTEX
8
CUT
10
90.6667
20
12.865
0
VERTEX
8
CUT
10
86
20
11.365
0
VERTEX
8
CUT
10
86
20
6.865
0
VERTEX
8
CUT
10
90.6667
20
5.365
0
SEQEND
0
POLYLINE
8
CUT
66
1
70
0
0
VERTEX
8
CUT
10
110.8333
20
12.865
0
VERTEX
8
CUT
10
115.5
20
11.365
0
VERTEX
8
CUT
10
115.5
20
6.865
0
VERTEX
8
CUT
10
110.8333
20
5.365
0
SEQEND
0
POLYLINE
8
CUT
66
1
70
0
0
VERTEX
8
CUT
10
106.1667
20
12.865
0
VERTEX
8
CUT
10
101.5
20
11.365
0
VERTEX
8
CUT
10
101.5
20
6.865
0
VERTEX
8
CUT
10
106.1667
20
5.365
0
SEQEND
0
POLYLINE
8
CUT
66
1
70
0
0
VERTEX
8
CUT
10
120
20
12.3293
0
VERTEX
8
CUT
10
117
20
11.365
0
VERTEX
8
CUT
10
117
20
6.865
0
VERTEX
8
CUT
10
120
20
5.9007
0
SEQEND
0
POLYLINE
8
CUT
66
1
70
0
0
VERTEX
8
CUT
10
10.0833
20
4.81
0
VERTEX
8
CUT
10
14.75
20
3.31
0
VERTEX
8
CUT
10
14.75
20
0
0
SEQEND
0
POLYLINE
8
CUT
66
1
70
0
0
VERTEX
8
CUT
10
5.4167
20
4.81
0
VERTEX
8
CUT
10
0.75
20
3.31
0
VERTEX
8
CUT
10
0.75
20
0
0
SEQEND
0
POLYLINE
8
CUT
66
1
70
0
0
VERTEX
8
CUT
10
25.5833
20
4.81
0
VERTEX
8
CUT
10
30.25
20
3.31
0
VERTEX
8
CUT
10
30.25
20
0
0
SEQEND
0
POLYLINE
8
CUT
66
1
70
0
0
VERTEX
8
CUT
10
20.9167
20
4.81
0
VERTEX
8
CUT
10
16.25
20
3.31
0
VERTEX
8
CUT
10
16.25
20
0
0
SEQEND
0
POLYLINE
8
CUT
66
1
70
0
0
VERTEX
8
CUT
10
41.0833
20
4.81
0
VERTEX
8
CUT
10
45.75
20
3.31
0
VERTEX
8
CUT
10
45.75
20
0
0
SEQEND
0
POLYLINE
8
CUT
66
1
70
0
0
VERTEX
8
CUT
10
36.4167
20
4.81
0
VERTEX
8
CUT
10
31.75
20
3.31
0
VERTEX
8
CUT
10
31.75
20
0
0
SEQEND
0
POLYLINE
8
CUT
66
1
70
0
0
VERTEX
8
CUT
10
56.5833
20
4.81
0
VERTEX
8
CUT
10
61.25
20
3.31
0
VERTEX
8
CUT
10
61.25
20
0
0
SEQEND
0
POLYLINE
8
CUT
66
1
70
0
0
VERTEX
8
CUT
10
51.9167
20
4.81
0
VERTEX
8
CUT
10
47.25
20
3.31
0
VERTEX
8
CUT
10
47.25
20
0
0
SEQEND
0
POLYLINE
8
CUT
66
1
70
0
0
VERTEX
8
CUT
10
72.0833
20
4.81
0
VERTEX
8
CUT
10
76.75
20
3.31
0
VERTEX
8
CUT
10
76.75
20
0
0
SEQEND
0
POLYLINE
8
CUT
66
1
70
0
0
VERTEX
8
CUT
10
67.4167
20
4.81
0
VERTEX
8
CUT
10
62.75
20
3.31
0
VERTEX
8
CUT
10
62.75
20
0
0
SEQEND
0
POLYLINE
8
CUT
66
1
70
0
0
VERTEX
8
CUT
10
87.5833
20
4.81
0
VERTEX
8
CUT
10
92.25
20
3.31
0
VERTEX
8
CUT
10
92.25
20
0
0
SEQEND
0
POLYLINE
8
CUT
66
1
70
0
0
VERTEX
8
CUT
10
82.9167
20
4.81
0
VERTEX
8
CUT
10
78.25
20
3.31
0
VERTEX
8
CUT
10
78.25
20
0
0
SEQEND
0
POLYLINE
8
CUT
66
1
70
0
0
VERTEX
8
CUT
10
103.0833
20
4.81
0
VERTEX
8
CUT
10
107.75
20
3.31
0
VERTEX
8
CUT
10
107.75
20
0
0
SEQEND
0
POLYLINE
8
CUT
66
1
70
0
0
VERTEX
8
CUT
10
98.4167
20
4.81
0
VERTEX
8
CUT
10
93.75
20
3.31
0
VERTEX
8
CUT
10
93.75
20
0
0
SEQEND
0
LINE
8
CUT
10
118.5833
20
4.81
11
120
21
4.3546
0
POLYLINE
8
CUT
66
1
70
0
0
VERTEX
8
CUT
10
113.9167
20
4.81
0
VERTEX
8
CUT
10
109.25
20
3.31
0
VERTEX
8
CUT
10
109.25
20
0
0
SEQEND
0
POLYLINE
8
CUT
66
1
70
0
0
VERTEX
8
CUT
10
0
20
70
0
VERTEX
8
CUT
10
120
20
70
0
VERTEX
8
CUT
10
120
20
0
0
VERTEX
8
CUT
10
0
20
0
0
VERTEX
8
CUT
10
0
20
70
0
SEQEND
0
ENDSEC
0
EOF
