<?xml version="1.0" encoding="UTF-8"?>
<svg xmlns="http://www.w3.org/2000/svg" width="120mm" height="70mm" viewBox="0 0 120 70">
<g fill="none" stroke="#FF0000" stroke-width="0.1">
<line x1="0" y1="11.3244" x2="4.8644" y2="11.3244"/>
<line x1="5.2394" y1="10.6748" x2="0.375" y2="2.2495"/>
<polyline points="0.75,10.5244 4.2287,10.5244 2.4894,7.5117"/>
<polyline points="1.7394,6.2127 0,3.2 0,3.2"/>
<line x1="0" y1="9.7244" x2="2.0931" y2="9.7244"/>
<line x1="2.4681" y1="9.0748" x2="0.375" y2="5.4495"/>
<polyline points="0.75,8.9244 1.4574,8.9244 1.1037,8.3117"/>
<polyline points="0.3537,7.0127 0,6.4 0,6.4"/>
<line x1="2.1356" y1="0.8" x2="11.8644" y2="0.8"/>
<line x1="12.2394" y1="1.4495" x2="7.375" y2="9.8748"/>
<line x1="6.625" y1="9.8748" x2="1.7606" y2="1.4495"/>
<polyline points="4.5106,4.6127 2.7713,1.6 6.25,1.6"/>
<polyline points="7.75,1.6 11.2287,1.6 9.4894,4.6127"/>
<polyline points="8.7394,5.9117 7,8.9244 5.2606,5.9117"/>
<line x1="4.9069" y1="2.4" x2="9.0931" y2="2.4"/>
<line x1="9.4681" y1="3.0495" x2="7.375" y2="6.6748"/>
<line x1="6.625" y1="6.6748" x2="4.5319" y2="3.0495"/>
<polyline points="5.8963,3.8127 5.5426,3.2 6.25,3.2"/>
<polyline points="7.75,3.2 8.4574,3.2 8.1037,3.8127"/>
<polyline points="7.3537,5.1117 7,5.7244 6.6463,5.1117"/>
<line x1="9.1356" y1="11.3244" x2="18.8644" y2="11.3244"/>
<line x1="19.2394" y1="10.6748" x2="14.375" y2="2.2495"/>
<line x1="13.625" y1="2.2495" x2="8.7606" y2="10.6748"/>
<polyline points="11.5106,7.5117 9.7713,10.5244 13.25,10.5244"/>
<polyline points="14.75,10.5244 18.2287,10.5244 16.4894,7.5117"/>
<polyline points="15.7394,6.2127 14,3.2 12.2606,6.2127"/>
<line x1="11.9069" y1="9.7244" x2="16.0931" y2="9.7244"/>
<line x1="16.4681" y1="9.0748" x2="14.375" y2="5.4495"/>
<line x1="13.625" y1="5.4495" x2="11.5319" y2="9.0748"/>
<polyline points="12.8963,8.3117 12.5426,8.9244 13.25,8.9244"/>
<polyline points="14.75,8.9244 15.4574,8.9244 15.1037,8.3117"/>
<polyline points="14.3537,7.0127 14,6.4 13.6463,7.0127"/>
<line x1="16.1356" y1="0.8" x2="25.8644" y2="0.8"/>
<line x1="26.2394" y1="1.4495" x2="21.375" y2="9.8748"/>
<line x1="20.625" y1="9.8748" x2="15.7606" y2="1.4495"/>
<polyline points="18.5106,4.6127 16.7713,1.6 20.25,1.6"/>
<polyline points="21.75,1.6 25.2287,1.6 23.4894,4.6127"/>
<polyline points="22.7394,5.9117 21,8.9244 19.2606,5.9117"/>
<line x1="18.9069" y1="2.4" x2="23.0931" y2="2.4"/>
<line x1="23.4681" y1="3.0495" x2="21.375" y2="6.6748"/>
<line x1="20.625" y1="6.6748" x2="18.5319" y2="3.0495"/>
<polyline points="19.8963,3.8127 19.5426,3.2 20.25,3.2"/>
<polyline points="21.75,3.2 22.4574,3.2 22.1037,3.8127"/>
<polyline points="21.3537,5.1117 21,5.7244 20.6463,5.1117"/>
<line x1="23.1356" y1="11.3244" x2="32.8644" y2="11.3244"/>
<line x1="33.2394" y1="10.6748" x2="28.375" y2="2.2495"/>
<line x1="27.625" y1="2.2495" x2="22.7606" y2="10.6748"/>
<polyline points="25.5106,7.5117 23.7713,10.5244 27.25,10.5244"/>
<polyline points="28.75,10.5244 32.2287,10.5244 30.4894,7.5117"/>
<polyline points="29.7394,6.2127 28,3.2 26.2606,6.2127"/>
<line x1="25.9069" y1="9.7244" x2="30.0931" y2="9.7244"/>
<line x1="30.4681" y1="9.0748" x2="28.375" y2="5.4495"/>
<line x1="27.625" y1="5.4495" x2="25.5319" y2="9.0748"/>
<polyline points="26.8963,8.3117 26.5426,8.9244 27.25,8.9244"/>
<polyline points="28.75,8.9244 29.4574,8.9244 29.1037,8.3117"/>
<polyline points="28.3537,7.0127 28,6.4 27.6463,7.0127"/>
<line x1="30.1356" y1="0.8" x2="39.8644" y2="0.8"/>
<line x1="40.2394" y1="1.4495" x2="35.375" y2="9.8748"/>
<line x1="34.625" y1="9.8748" x2="29.7606" y2="1.4495"/>
<polyline points="32.5106,4.6127 30.7713,1.6 34.25,1.6"/>
<polyline points="35.75,1.6 39.2287,1.6 37.4894,4.6127"/>
<polyline points="36.7394,5.9117 35,8.9244 33.2606,5.9117"/>
<line x1="32.9069" y1="2.4" x2="37.0931" y2="2.4"/>
<line x1="37.4681" y1="3.0495" x2="35.375" y2="6.6748"/>
<line x1="34.625" y1="6.6748" x2="32.5319" y2="3.0495"/>
<polyline points="33.8963,3.8127 33.5426,3.2 34.25,3.2"/>
<polyline points="35.75,3.2 36.4574,3.2 36.1037,3.8127"/>
<polyline points="35.3537,5.1117 35,5.7244 34.6463,5.1117"/>
<line x1="37.1356" y1="11.3244" x2="46.8644" y2="11.3244"/>
<line x1="47.2394" y1="10.6748" x2="42.375" y2="2.2495"/>
<line x1="41.625" y1="2.2495" x2="36.7606" y2="10.6748"/>
<polyline points="39.5106,7.5117 37.7713,10.5244 41.25,10.5244"/>
<polyline points="42.75,10.5244 46.2287,10.5244 44.4894,7.5117"/>
<polyline points="43.7394,6.2127 42,3.2 40.2606,6.2127"/>
<line x1="39.9069" y1="9.7244" x2="44.0931" y2="9.7244"/>
<line x1="44.4681" y1="9.0748" x2="42.375" y2="5.4495"/>
<line x1="41.625" y1="5.4495" x2="39.5319" y2="9.0748"/>
<polyline points="40.8963,8.3117 40.5426,8.9244 41.25,8.9244"/>
<polyline points="42.75,8.9244 43.4574,8.9244 43.1037,8.3117"/>
<polyline points="42.3537,7.0127 42,6.4 41.6463,7.0127"/>
<line x1="44.1356" y1="0.8" x2="53.8644" y2="0.8"/>
<line x1="54.2394" y1="1.4495" x2="49.375" y2="9.8748"/>
<line x1="48.625" y1="9.8748" x2="43.7606" y2="1.4495"/>
<polyline points="46.5106,4.6127 44.7713,1.6 48.25,1.6"/>
<polyline points="49.75,1.6 53.2287,1.6 51.4894,4.6127"/>
<polyline points="50.7394,5.9117 49,8.9244 47.2606,5.9117"/>
<line x1="46.9069" y1="2.4" x2="51.0931" y2="2.4"/>
<line x1="51.4681" y1="3.0495" x2="49.375" y2="6.6748"/>
<line x1="48.625" y1="6.6748" x2="46.5319" y2="3.0495"/>
<polyline points="47.8963,3.8127 47.5426,3.2 48.25,3.2"/>
<polyline points="49.75,3.2 50.4574,3.2 50.1037,3.8127"/>
<polyline points="49.3537,5.1117 49,5.7244 48.6463,5.1117"/>
<line x1="51.1356" y1="11.3244" x2="60.8644" y2="11.3244"/>
<line x1="61.2394" y1="10.6748" x2="56.375" y2="2.2495"/>
<line x1="55.625" y1="2.2495" x2="50.7606" y2="10.6748"/>
<polyline points="53.5106,7.5117 51.7713,10.5244 55.25,10.5244"/>
<polyline points="56.75,10.5244 60.2287,10.5244 58.4894,7.5117"/>
<polyline points="57.7394,6.2127 56,3.2 54.2606,6.2127"/>
<line x1="53.9069" y1="9.7244" x2="58.0931" y2="9.7244"/>
<line x1="58.4681" y1="9.0748" x2="56.375" y2="5.4495"/>
<line x1="55.625" y1="5.4495" x2="53.5319" y2="9.0748"/>
<polyline points="54.8963,8.3117 54.5426,8.9244 55.25,8.9244"/>
<polyline points="56.75,8.9244 57.4574,8.9244 57.1037,8.3117"/>
<polyline points="56.3537,7.0127 56,6.4 55.6463,7.0127"/>
<line x1="58.1356" y1="0.8" x2="67.8644" y2="0.8"/>
<line x1="68.2394" y1="1.4495" x2="63.375" y2="9.8748"/>
<line x1="62.625" y1="9.8748" x2="57.7606" y2="1.4495"/>
<polyline points="60.5106,4.6127 58.7713,1.6 62.25,1.6"/>
<polyline points="63.75,1.6 67.2287,1.6 65.4894,4.6127"/>
<polyline points="64.7394,5.9117 63,8.9244 61.2606,5.9117"/>
<line x1="60.9069" y1="2.4" x2="65.0931" y2="2.4"/>
<line x1="65.4681" y1="3.0495" x2="63.375" y2="6.6748"/>
<line x1="62.625" y1="6.6748" x2="60.5319" y2="3.0495"/>
<polyline points="61.8963,3.8127 61.5426,3.2 62.25,3.2"/>
<polyline points="63.75,3.2 64.4574,3.2 64.1037,3.8127"/>
<polyline points="63.3537,5.1117 63,5.7244 62.6463,5.1117"/>
<line x1="65.1356" y1="11.3244" x2="74.8644" y2="11.3244"/>
<line x1="75.2394" y1="10.6748" x2="70.375" y2="2.2495"/>
<line x1="69.625" y1="2.2495" x2="64.7606" y2="10.6748"/>
<polyline points="67.5106,7.5117 65.7713,10.5244 69.25,10.5244"/>
<polyline points="70.75,10.5244 74.2287,10.5244 72.4894,7.5117"/>
<polyline points="71.7394,6.2127 70,3.2 68.2606,6.2127"/>
<line x1="67.9069" y1="9.7244" x2="72.0931" y2="9.7244"/>
<line x1="72.4681" y1="9.0748" x2="70.375" y2="5.4495"/>
<line x1="69.625" y1="5.4495" x2="67.5319" y2="9.0748"/>
<polyline points="68.8963,8.3117 68.5426,8.9244 69.25,8.9244"/>
<polyline points="70.75,8.9244 71.4574,8.9244 71.1037,8.3117"/>
<polyline points="70.3537,7.0127 70,6.4 69.6463,7.0127"/>
<line x1="72.1356" y1="0.8" x2="81.8644" y2="0.8"/>
<line x1="82.2394" y1="1.4495" x2="77.375" y2="9.8748"/>
<line x1="76.625" y1="9.8748" x2="71.7606" y2="1.4495"/>
<polyline points="74.5106,4.6127 72.7713,1.6 76.25,1.6"/>
<polyline points="77.75,1.6 81.2287,1.6 79.4894,4.6127"/>
<polyline points="78.7394,5.9117 77,8.9244 75.2606,5.9117"/>
<line x1="74.9069" y1="2.4" x2="79.0931" y2="2.4"/>
<line x1="79.4681" y1="3.0495" x2="77.375" y2="6.6748"/>
<line x1="76.625" y1="6.6748" x2="74.5319" y2="3.0495"/>
<polyline points="75.8963,3.8127 75.5426,3.2 76.25,3.2"/>
<polyline points="77.75,3.2 78.4574,3.2 78.1037,3.8127"/>
<polyline points="77.3537,5.1117 77,5.7244 76.6463,5.1117"/>
<line x1="79.1356" y1="11.3244" x2="88.8644" y2="11.3244"/>
<line x1="89.2394" y1="10.6748" x2="84.375" y2="2.2495"/>
<line x1="83.625" y1="2.2495" x2="78.7606" y2="10.6748"/>
<polyline points="81.5106,7.5117 79.7713,10.5244 83.25,10.5244"/>
<polyline points="84.75,10.5244 88.2287,10.5244 86.4894,7.5117"/>
<polyline points="85.7394,6.2127 84,3.2 82.2606,6.2127"/>
<line x1="81.9069" y1="9.7244" x2="86.0931" y2="9.7244"/>
<line x1="86.4681" y1="9.0748" x2="84.375" y2="5.4495"/>
<line x1="83.625" y1="5.4495" x2="81.5319" y2="9.0748"/>
<polyline points="82.8963,8.3117 82.5426,8.9244 83.25,8.9244"/>
<polyline points="84.75,8.9244 85.4574,8.9244 85.1037,8.3117"/>
<polyline points="84.3537,7.0127 84,6.4 83.6463,7.0127"/>
<line x1="86.1356" y1="0.8" x2="95.8644" y2="0.8"/>
<line x1="96.2394" y1="1.4495" x2="91.375" y2="9.8748"/>
<line x1="90.625" y1="9.8748" x2="85.7606" y2="1.4495"/>
<polyline points="88.5106,4.6127 86.7713,1.6 90.25,1.6"/>
<polyline points="91.75,1.6 95.2287,1.6 93.4894,4.6127"/>
<polyline points="92.7394,5.9117 91,8.9244 89.2606,5.9117"/>
<line x1="88.9069" y1="2.4" x2="93.0931" y2="2.4"/>
<line x1="93.4681" y1="3.0495" x2="91.375" y2="6.6748"/>
<line x1="90.625" y1="6.6748" x2="88.5319" y2="3.0495"/>
<polyline points="89.8963,3.8127 89.5426,3.2 90.25,3.2"/>
<polyline points="91.75,3.2 92.4574,3.2 92.1037,3.8127"/>
<polyline points="91.3537,5.1117 91,5.7244 90.6463,5.1117"/>
<line x1="93.1356" y1="11.3244" x2="102.8644" y2="11.3244"/>
<line x1="103.2394" y1="10.6748" x2="98.375" y2="2.2495"/>
<line x1="97.625" y1="2.2495" x2="92.7606" y2="10.6748"/>
<polyline points="95.5106,7.5117 93.7713,10.5244 97.25,10.5244"/>
<polyline points="98.75,10.5244 102.2287,10.5244 100.4894,7.5117"/>
<polyline points="99.7394,6.2127 98,3.2 96.2606,6.2127"/>
<line x1="95.9069" y1="9.7244" x2="100.0931" y2="9.7244"/>
<line x1="100.4681" y1="9.0748" x2="98.375" y2="5.4495"/>
<line x1="97.625" y1="5.4495" x2="95.5319" y2="9.0748"/>
<polyline points="96.8963,8.3117 96.5426,8.9244 97.25,8.9244"/>
<polyline points="98.75,8.9244 99.4574,8.9244 99.1037,8.3117"/>
<polyline points="98.3537,7.0127 98,6.4 97.6463,7.0127"/>
<line x1="100.1356" y1="0.8" x2="109.8644" y2="0.8"/>
<line x1="110.2394" y1="1.4495" x2="105.375" y2="9.8748"/>
<line x1="104.625" y1="9.8748" x2="99.7606" y2="1.4495"/>
<polyline points="102.5106,4.6127 100.7713,1.6 104.25,1.6"/>
<polyline points="105.75,1.6 109.2287,1.6 107.4894,4.6127"/>
<polyline points="106.7394,5.9117 105,8.9244 103.2606,5.9117"/>
<line x1="102.9069" y1="2.4" x2="107.0931" y2="2.4"/>
<line x1="107.4681" y1="3.0495" x2="105.375" y2="6.6748"/>
<line x1="104.625" y1="6.6748" x2="102.5319" y2="3.0495"/>
<polyline points="103.8963,3.8127 103.5426,3.2 104.25,3.2"/>
<polyline points="105.75,3.2 106.4574,3.2 106.1037,3.8127"/>
<polyline points="105.3537,5.1117 105,5.7244 104.6463,5.1117"/>
<line x1="107.1356" y1="11.3244" x2="116.8644" y2="11.3244"/>
<line x1="117.2394" y1="10.6748" x2="112.375" y2="2.2495"/>
<line x1="111.625" y1="2.2495" x2="106.7606" y2="10.6748"/>
<polyline points="109.5106,7.5117 107.7713,10.5244 111.25,10.5244"/>
<polyline points="112.75,10.5244 116.2287,10.5244 114.4894,7.5117"/>
<polyline points="113.7394,6.2127 112,3.2 110.2606,6.2127"/>
<line x1="109.9069" y1="9.7244" x2="114.0931" y2="9.7244"/>
<line x1="114.4681" y1="9.0748" x2="112.375" y2="5.4495"/>
<line x1="111.625" y1="5.4495" x2="109.5319" y2="9.0748"/>
<polyline points="110.8963,8.3117 110.5426,8.9244 111.25,8.9244"/>
<polyline points="112.75,8.9244 113.4574,8.9244 113.1037,8.3117"/>
<polyline points="112.3537,7.0127 112,6.4 111.6463,7.0127"/>
<line x1="114.1356" y1="0.8" x2="120" y2="0.8"/>
<line x1="120" y1="8.7923" x2="119.375" y2="9.8748"/>
<line x1="118.625" y1="9.8748" x2="113.7606" y2="1.4495"/>
<polyline points="116.5106,4.6127 114.7713,1.6 118.25,1.6"/>
<polyline points="120,7.1923 119,8.9244 117.2606,5.9117"/>
<line x1="116.9069" y1="2.4" x2="120" y2="2.4"/>
<line x1="120" y1="5.5923" x2="119.375" y2="6.6748"/>
<line x1="118.625" y1="6.6748" x2="116.5319" y2="3.0495"/>
<polyline points="117.8963,3.8127 117.5426,3.2 118.25,3.2"/>
<polyline points="119.3537,5.1117 119,5.7244 118.6463,5.1117"/>
<line x1="0" y1="12.9244" x2="4.8644" y2="12.9244"/>
<line x1="5.2394" y1="13.5739" x2="0.375" y2="21.9992"/>
<polyline points="0.75,13.7244 4.2287,13.7244 2.4894,16.737"/>
<polyline points="1.7394,18.0361 0,21.0487 0,21.0487"/>
<line x1="0" y1="14.5244" x2="2.0931" y2="14.5244"/>
<line x1="2.4681" y1="15.1739" x2="0.375" y2="18.7992"/>
<polyline points="0.75,15.3244 1.4574,15.3244 1.1037,15.937"/>
<polyline points="0.3537,17.2361 0,17.8487 0,17.8487"/>
<line x1="2.1356" y1="23.4487" x2="11.8644" y2="23.4487"/>
<line x1="12.2394" y1="22.7992" x2="7.375" y2="14.3739"/>
<line x1="6.625" y1="14.3739" x2="1.7606" y2="22.7992"/>
<polyline points="4.5106,19.6361 2.7713,22.6487 6.25,22.6487"/>
<polyline points="7.75,22.6487 11.2287,22.6487 9.4894,19.6361"/>
<polyline points="8.7394,18.337 7,15.3244 5.2606,18.337"/>
<line x1="4.9069" y1="21.8487" x2="9.0931" y2="21.8487"/>
<line x1="9.4681" y1="21.1992" x2="7.375" y2="17.5739"/>
<line x1="6.625" y1="17.5739" x2="4.5319" y2="21.1992"/>
<polyline points="5.8963,20.4361 5.5426,21.0487 6.25,21.0487"/>
<polyline points="7.75,21.0487 8.4574,21.0487 8.1037,20.4361"/>
<polyline points="7.3537,19.137 7,18.5244 6.6463,19.137"/>
<line x1="9.1356" y1="12.9244" x2="18.8644" y2="12.9244"/>
<line x1="19.2394" y1="13.5739" x2="14.375" y2="21.9992"/>
<line x1="13.625" y1="21.9992" x2="8.7606" y2="13.5739"/>
<polyline points="11.5106,16.737 9.7713,13.7244 13.25,13.7244"/>
<polyline points="14.75,13.7244 18.2287,13.7244 16.4894,16.737"/>
<polyline points="15.7394,18.0361 14,21.0487 12.2606,18.0361"/>
<line x1="11.9069" y1="14.5244" x2="16.0931" y2="14.5244"/>
<line x1="16.4681" y1="15.1739" x2="14.375" y2="18.7992"/>
<line x1="13.625" y1="18.7992" x2="11.5319" y2="15.1739"/>
<polyline points="12.8963,15.937 12.5426,15.3244 13.25,15.3244"/>
<polyline points="14.75,15.3244 15.4574,15.3244 15.1037,15.937"/>
<polyline points="14.3537,17.2361 14,17.8487 13.6463,17.2361"/>
<line x1="16.1356" y1="23.4487" x2="25.8644" y2="23.4487"/>
<line x1="26.2394" y1="22.7992" x2="21.375" y2="14.3739"/>
<line x1="20.625" y1="14.3739" x2="15.7606" y2="22.7992"/>
<polyline points="18.5106,19.6361 16.7713,22.6487 20.25,22.6487"/>
<polyline points="21.75,22.6487 25.2287,22.6487 23.4894,19.6361"/>
<polyline points="22.7394,18.337 21,15.3244 19.2606,18.337"/>
<line x1="18.9069" y1="21.8487" x2="23.0931" y2="21.8487"/>
<line x1="23.4681" y1="21.1992" x2="21.375" y2="17.5739"/>
<line x1="20.625" y1="17.5739" x2="18.5319" y2="21.1992"/>
<polyline points="19.8963,20.4361 19.5426,21.0487 20.25,21.0487"/>
<polyline points="21.75,21.0487 22.4574,21.0487 22.1037,20.4361"/>
<polyline points="21.3537,19.137 21,18.5244 20.6463,19.137"/>
<line x1="23.1356" y1="12.9244" x2="32.8644" y2="12.9244"/>
<line x1="33.2394" y1="13.5739" x2="28.375" y2="21.9992"/>
<line x1="27.625" y1="21.9992" x2="22.7606" y2="13.5739"/>
<polyline points="25.5106,16.737 23.7713,13.7244 27.25,13.7244"/>
<polyline points="28.75,13.7244 32.2287,13.7244 30.4894,16.737"/>
<polyline points="29.7394,18.0361 28,21.0487 26.2606,18.0361"/>
<line x1="25.9069" y1="14.5244" x2="30.0931" y2="14.5244"/>
<line x1="30.4681" y1="15.1739" x2="28.375" y2="18.7992"/>
<line x1="27.625" y1="18.7992" x2="25.5319" y2="15.1739"/>
<polyline points="26.8963,15.937 26.5426,15.3244 27.25,15.3244"/>
<polyline points="28.75,15.3244 29.4574,15.3244 29.1037,15.937"/>
<polyline points="28.3537,17.2361 28,17.8487 27.6463,17.2361"/>
<line x1="30.1356" y1="23.4487" x2="39.8644" y2="23.4487"/>
<line x1="40.2394" y1="22.7992" x2="35.375" y2="14.3739"/>
<line x1="34.625" y1="14.3739" x2="29.7606" y2="22.7992"/>
<polyline points="32.5106,19.6361 30.7713,22.6487 34.25,22.6487"/>
<polyline points="35.75,22.6487 39.2287,22.6487 37.4894,19.6361"/>
<polyline points="36.7394,18.337 35,15.3244 33.2606,18.337"/>
<line x1="32.9069" y1="21.8487" x2="37.0931" y2="21.8487"/>
<line x1="37.4681" y1="21.1992" x2="35.375" y2="17.5739"/>
<line x1="34.625" y1="17.5739" x2="32.5319" y2="21.1992"/>
<polyline points="33.8963,20.4361 33.5426,21.0487 34.25,21.0487"/>
<polyline points="35.75,21.0487 36.4574,21.0487 36.1037,20.4361"/>
<polyline points="35.3537,19.137 35,18.5244 34.6463,19.137"/>
<line x1="37.1356" y1="12.9244" x2="46.8644" y2="12.9244"/>
<line x1="47.2394" y1="13.5739" x2="42.375" y2="21.9992"/>
<line x1="41.625" y1="21.9992" x2="36.7606" y2="13.5739"/>
<polyline points="39.5106,16.737 37.7713,13.7244 41.25,13.7244"/>
<polyline points="42.75,13.7244 46.2287,13.7244 44.4894,16.737"/>
<polyline points="43.7394,18.0361 42,21.0487 40.2606,18.0361"/>
<line x1="39.9069" y1="14.5244" x2="44.0931" y2="14.5244"/>
<line x1="44.4681" y1="15.1739" x2="42.375" y2="18.7992"/>
<line x1="41.625" y1="18.7992" x2="39.5319" y2="15.1739"/>
<polyline points="40.8963,15.937 40.5426,15.3244 41.25,15.3244"/>
<polyline points="42.75,15.3244 43.4574,15.3244 43.1037,15.937"/>
<polyline points="42.3537,17.2361 42,17.8487 41.6463,17.2361"/>
<line x1="44.1356" y1="23.4487" x2="53.8644" y2="23.4487"/>
<line x1="54.2394" y1="22.7992" x2="49.375" y2="14.3739"/>
<line x1="48.625" y1="14.3739" x2="43.7606" y2="22.7992"/>
<polyline points="46.5106,19.6361 44.7713,22.6487 48.25,22.6487"/>
<polyline points="49.75,22.6487 53.2287,22.6487 51.4894,19.6361"/>
<polyline points="50.7394,18.337 49,15.3244 47.2606,18.337"/>
<line x1="46.9069" y1="21.8487" x2="51.0931" y2="21.8487"/>
<line x1="51.4681" y1="21.1992" x2="49.375" y2="17.5739"/>
<line x1="48.625" y1="17.5739" x2="46.5319" y2="21.1992"/>
<polyline points="47.8963,20.4361 47.5426,21.0487 48.25,21.0487"/>
<polyline points="49.75,21.0487 50.4574,21.0487 50.1037,20.4361"/>
<polyline points="49.3537,19.137 49,18.5244 48.6463,19.137"/>
<line x1="51.1356" y1="12.9244" x2="60.8644" y2="12.9244"/>
<line x1="61.2394" y1="13.5739" x2="56.375" y2="21.9992"/>
<line x1="55.625" y1="21.9992" x2="50.7606" y2="13.5739"/>
<polyline points="53.5106,16.737 51.7713,13.7244 55.25,13.7244"/>
<polyline points="56.75,13.7244 60.2287,13.7244 58.4894,16.737"/>
<polyline points="57.7394,18.0361 56,21.0487 54.2606,18.0361"/>
<line x1="53.9069" y1="14.5244" x2="58.0931" y2="14.5244"/>
<line x1="58.4681" y1="15.1739" x2="56.375" y2="18.7992"/>
<line x1="55.625" y1="18.7992" x2="53.5319" y2="15.1739"/>
<polyline points="54.8963,15.937 54.5426,15.3244 55.25,15.3244"/>
<polyline points="56.75,15.3244 57.4574,15.3244 57.1037,15.937"/>
<polyline points="56.3537,17.2361 56,17.8487 55.6463,17.2361"/>
<line x1="58.1356" y1="23.4487" x2="67.8644" y2="23.4487"/>
<line x1="68.2394" y1="22.7992" x2="63.375" y2="14.3739"/>
<line x1="62.625" y1="14.3739" x2="57.7606" y2="22.7992"/>
<polyline points="60.5106,19.6361 58.7713,22.6487 62.25,22.6487"/>
<polyline points="63.75,22.6487 67.2287,22.6487 65.4894,19.6361"/>
<polyline points="64.7394,18.337 63,15.3244 61.2606,18.337"/>
<line x1="60.9069" y1="21.8487" x2="65.0931" y2="21.8487"/>
<line x1="65.4681" y1="21.1992" x2="63.375" y2="17.5739"/>
<line x1="62.625" y1="17.5739" x2="60.5319" y2="21.1992"/>
<polyline points="61.8963,20.4361 61.5426,21.0487 62.25,21.0487"/>
<polyline points="63.75,21.0487 64.4574,21.0487 64.1037,20.4361"/>
<polyline points="63.3537,19.137 63,18.5244 62.6463,19.137"/>
<line x1="65.1356" y1="12.9244" x2="74.8644" y2="12.9244"/>
<line x1="75.2394" y1="13.5739" x2="70.375" y2="21.9992"/>
<line x1="69.625" y1="21.9992" x2="64.7606" y2="13.5739"/>
<polyline points="67.5106,16.737 65.7713,13.7244 69.25,13.7244"/>
<polyline points="70.75,13.7244 74.2287,13.7244 72.4894,16.737"/>
<polyline points="71.7394,18.0361 70,21.0487 68.2606,18.0361"/>
<line x1="67.9069" y1="14.5244" x2="72.0931" y2="14.5244"/>
<line x1="72.4681" y1="15.1739" x2="70.375" y2="18.7992"/>
<line x1="69.625" y1="18.7992" x2="67.5319" y2="15.1739"/>
<polyline points="68.8963,15.937 68.5426,15.3244 69.25,15.3244"/>
<polyline points="70.75,15.3244 71.4574,15.3244 71.1037,15.937"/>
<polyline points="70.3537,17.2361 70,17.8487 69.6463,17.2361"/>
<line x1="72.1356" y1="23.4487" x2="81.8644" y2="23.4487"/>
<line x1="82.2394" y1="22.7992" x2="77.375" y2="14.3739"/>
<line x1="76.625" y1="14.3739" x2="71.7606" y2="22.7992"/>
<polyline points="74.5106,19.6361 72.7713,22.6487 76.25,22.6487"/>
<polyline points="77.75,22.6487 81.2287,22.6487 79.4894,19.6361"/>
<polyline points="78.7394,18.337 77,15.3244 75.2606,18.337"/>
<line x1="74.9069" y1="21.8487" x2="79.0931" y2="21.8487"/>
<line x1="79.4681" y1="21.1992" x2="77.375" y2="17.5739"/>
<line x1="76.625" y1="17.5739" x2="74.5319" y2="21.1992"/>
<polyline points="75.8963,20.4361 75.5426,21.0487 76.25,21.0487"/>
<polyline points="77.75,21.0487 78.4574,21.0487 78.1037,20.4361"/>
<polyline points="77.3537,19.137 77,18.5244 76.6463,19.137"/>
<line x1="79.1356" y1="12.9244" x2="88.8644" y2="12.9244"/>
<line x1="89.2394" y1="13.5739" x2="84.375" y2="21.9992"/>
<line x1="83.625" y1="21.9992" x2="78.7606" y2="13.5739"/>
<polyline points="81.5106,16.737 79.7713,13.7244 83.25,13.7244"/>
<polyline points="84.75,13.7244 88.2287,13.7244 86.4894,16.737"/>
<polyline points="85.7394,18.0361 84,21.0487 82.2606,18.0361"/>
<line x1="81.9069" y1="14.5244" x2="86.0931" y2="14.5244"/>
<line x1="86.4681" y1="15.1739" x2="84.375" y2="18.7992"/>
<line x1="83.625" y1="18.7992" x2="81.5319" y2="15.1739"/>
<polyline points="82.8963,15.937 82.5426,15.3244 83.25,15.3244"/>
<polyline points="84.75,15.3244 85.4574,15.3244 85.1037,15.937"/>
<polyline points="84.3537,17.2361 84,17.8487 83.6463,17.2361"/>
<line x1="86.1356" y1="23.4487" x2="95.8644" y2="23.4487"/>
<line x1="96.2394" y1="22.7992" x2="91.375" y2="14.3739"/>
<line x1="90.625" y1="14.3739" x2="85.7606" y2="22.7992"/>
<polyline points="88.5106,19.6361 86.7713,22.6487 90.25,22.6487"/>
<polyline points="91.75,22.6487 95.2287,22.6487 93.4894,19.6361"/>
<polyline points="92.7394,18.337 91,15.3244 89.2606,18.337"/>
<line x1="88.9069" y1="21.8487" x2="93.0931" y2="21.8487"/>
<line x1="93.4681" y1="21.1992" x2="91.375" y2="17.5739"/>
<line x1="90.625" y1="17.5739" x2="88.5319" y2="21.1992"/>
<polyline points="89.8963,20.4361 89.5426,21.0487 90.25,21.0487"/>
<polyline points="91.75,21.0487 92.4574,21.0487 92.1037,20.4361"/>
<polyline points="91.3537,19.137 91,18.5244 90.6463,19.137"/>
<line x1="93.1356" y1="12.9244" x2="102.8644" y2="12.9244"/>
<line x1="103.2394" y1="13.5739" x2="98.375" y2="21.9992"/>
<line x1="97.625" y1="21.9992" x2="92.7606" y2="13.5739"/>
<polyline points="95.5106,16.737 93.7713,13.7244 97.25,13.7244"/>
<polyline points="98.75,13.7244 102.2287,13.7244 100.4894,16.737"/>
<polyline points="99.7394,18.0361 98,21.0487 96.2606,18.0361"/>
<line x1="95.9069" y1="14.5244" x2="100.0931" y2="14.5244"/>
<line x1="100.4681" y1="15.1739" x2="98.375" y2="18.7992"/>
<line x1="97.625" y1="18.7992" x2="95.5319" y2="15.1739"/>
<polyline points="96.8963,15.937 96.5426,15.3244 97.25,15.3244"/>
<polyline points="98.75,15.3244 99.4574,15.3244 99.1037,15.937"/>
<polyline points="98.3537,17.2361 98,17.8487 97.6463,17.2361"/>
<line x1="100.1356" y1="23.4487" x2="109.8644" y2="23.4487"/>
<line x1="110.2394" y1="22.7992" x2="105.375" y2="14.3739"/>
<line x1="104.625" y1="14.3739" x2="99.7606" y2="22.7992"/>
<polyline points="102.5106,19.6361 100.7713,22.6487 104.25,22.6487"/>
<polyline points="105.75,22.6487 109.2287,22.6487 107.4894,19.6361"/>
<polyline points="106.7394,18.337 105,15.3244 103.2606,18.337"/>
<line x1="102.9069" y1="21.8487" x2="107.0931" y2="21.8487"/>
<line x1="107.4681" y1="21.1992" x2="105.375" y2="17.5739"/>
<line x1="104.625" y1="17.5739" x2="102.5319" y2="21.1992"/>
<polyline points="103.8963,20.4361 103.5426,21.0487 104.25,21.0487"/>
<polyline points="105.75,21.0487 106.4574,21.0487 106.1037,20.4361"/>
<polyline points="105.3537,19.137 105,18.5244 104.6463,19.137"/>
<line x1="107.1356" y1="12.9244" x2="116.8644" y2="12.9244"/>
<line x1="117.2394" y1="13.5739" x2="112.375" y2="21.9992"/>
<line x1="111.625" y1="21.9992" x2="106.7606" y2="13.5739"/>
<polyline points="109.5106,16.737 107.7713,13.7244 111.25,13.7244"/>
<polyline points="112.75,13.7244 116.2287,13.7244 114.4894,16.737"/>
<polyline points="113.7394,18.0361 112,21.0487 110.2606,18.0361"/>
<line x1="109.9069" y1="14.5244" x2="114.0931" y2="14.5244"/>
<line x1="114.4681" y1="15.1739" x2="112.375" y2="18.7992"/>
<line x1="111.625" y1="18.7992" x2="109.5319" y2="15.1739"/>
<polyline points="110.8963,15.937 110.5426,15.3244 111.25,15.3244"/>
<polyline points="112.75,15.3244 113.4574,15.3244 113.1037,15.937"/>
<polyline points="112.3537,17.2361 112,17.8487 111.6463,17.2361"/>
<line x1="114.1356" y1="23.4487" x2="120" y2="23.4487"/>
<line x1="120" y1="15.4564" x2="119.375" y2="14.3739"/>
<line x1="118.625" y1="14.3739" x2="113.7606" y2="22.7992"/>
<polyline points="116.5106,19.6361 114.7713,22.6487 118.25,22.6487"/>
<polyline points="120,17.0564 119,15.3244 117.2606,18.337"/>
<line x1="116.9069" y1="21.8487" x2="120" y2="21.8487"/>
<line x1="120" y1="18.6564" x2="119.375" y2="17.5739"/>
<line x1="118.625" y1="17.5739" x2="116.5319" y2="21.1992"/>
<polyline points="117.8963,20.4361 117.5426,21.0487 118.25,21.0487"/>
<polyline points="119.3537,19.137 119,18.5244 118.6463,19.137"/>
<line x1="0" y1="35.5731" x2="4.8644" y2="35.5731"/>
<line x1="5.2394" y1="34.9235" x2="0.375" y2="26.4982"/>
<polyline points="0.75,34.7731 4.2287,34.7731 2.4894,31.7604"/>
<polyline points="1.7394,30.4614 0,27.4487 0,27.4487"/>
<line x1="0" y1="33.9731" x2="2.0931" y2="33.9731"/>
<line x1="2.4681" y1="33.3235" x2="0.375" y2="29.6982"/>
<polyline points="0.75,33.1731 1.4574,33.1731 1.1037,32.5604"/>
<polyline points="0.3537,31.2614 0,30.6487 0,30.6487"/>
<line x1="2.1356" y1="25.0487" x2="11.8644" y2="25.0487"/>
<line x1="12.2394" y1="25.6982" x2="7.375" y2="34.1235"/>
<line x1="6.625" y1="34.1235" x2="1.7606" y2="25.6982"/>
<polyline points="4.5106,28.8614 2.7713,25.8487 6.25,25.8487"/>
<polyline points="7.75,25.8487 11.2287,25.8487 9.4894,28.8614"/>
<polyline points="8.7394,30.1604 7,33.1731 5.2606,30.1604"/>
<line x1="4.9069" y1="26.6487" x2="9.0931" y2="26.6487"/>
<line x1="9.4681" y1="27.2982" x2="7.375" y2="30.9235"/>
<line x1="6.625" y1="30.9235" x2="4.5319" y2="27.2982"/>
<polyline points="5.8963,28.0614 5.5426,27.4487 6.25,27.4487"/>
<polyline points="7.75,27.4487 8.4574,27.4487 8.1037,28.0614"/>
<polyline points="7.3537,29.3604 7,29.9731 6.6463,29.3604"/>
<line x1="9.1356" y1="35.5731" x2="18.8644" y2="35.5731"/>
<line x1="19.2394" y1="34.9235" x2="14.375" y2="26.4982"/>
<line x1="13.625" y1="26.4982" x2="8.7606" y2="34.9235"/>
<polyline points="11.5106,31.7604 9.7713,34.7731 13.25,34.7731"/>
<polyline points="14.75,34.7731 18.2287,34.7731 16.4894,31.7604"/>
<polyline points="15.7394,30.4614 14,27.4487 12.2606,30.4614"/>
<line x1="11.9069" y1="33.9731" x2="16.0931" y2="33.9731"/>
<line x1="16.4681" y1="33.3235" x2="14.375" y2="29.6982"/>
<line x1="13.625" y1="29.6982" x2="11.5319" y2="33.3235"/>
<polyline points="12.8963,32.5604 12.5426,33.1731 13.25,33.1731"/>
<polyline points="14.75,33.1731 15.4574,33.1731 15.1037,32.5604"/>
<polyline points="14.3537,31.2614 14,30.6487 13.6463,31.2614"/>
<line x1="16.1356" y1="25.0487" x2="25.8644" y2="25.0487"/>
<line x1="26.2394" y1="25.6982" x2="21.375" y2="34.1235"/>
<line x1="20.625" y1="34.1235" x2="15.7606" y2="25.6982"/>
<polyline points="18.5106,28.8614 16.7713,25.8487 20.25,25.8487"/>
<polyline points="21.75,25.8487 25.2287,25.8487 23.4894,28.8614"/>
<polyline points="22.7394,30.1604 21,33.1731 19.2606,30.1604"/>
<line x1="18.9069" y1="26.6487" x2="23.0931" y2="26.6487"/>
<line x1="23.4681" y1="27.2982" x2="21.375" y2="30.9235"/>
<line x1="20.625" y1="30.9235" x2="18.5319" y2="27.2982"/>
<polyline points="19.8963,28.0614 19.5426,27.4487 20.25,27.4487"/>
<polyline points="21.75,27.4487 22.4574,27.4487 22.1037,28.0614"/>
<polyline points="21.3537,29.3604 21,29.9731 20.6463,29.3604"/>
<line x1="23.1356" y1="35.5731" x2="32.8644" y2="35.5731"/>
<line x1="33.2394" y1="34.9235" x2="28.375" y2="26.4982"/>
<line x1="27.625" y1="26.4982" x2="22.7606" y2="34.9235"/>
<polyline points="25.5106,31.7604 23.7713,34.7731 27.25,34.7731"/>
<polyline points="28.75,34.7731 32.2287,34.7731 30.4894,31.7604"/>
<polyline points="29.7394,30.4614 28,27.4487 26.2606,30.4614"/>
<line x1="25.9069" y1="33.9731" x2="30.0931" y2="33.9731"/>
<line x1="30.4681" y1="33.3235" x2="28.375" y2="29.6982"/>
<line x1="27.625" y1="29.6982" x2="25.5319" y2="33.3235"/>
<polyline points="26.8963,32.5604 26.5426,33.1731 27.25,33.1731"/>
<polyline points="28.75,33.1731 29.4574,33.1731 29.1037,32.5604"/>
<polyline points="28.3537,31.2614 28,30.6487 27.6463,31.2614"/>
<line x1="30.1356" y1="25.0487" x2="39.8644" y2="25.0487"/>
<line x1="40.2394" y1="25.6982" x2="35.375" y2="34.1235"/>
<line x1="34.625" y1="34.1235" x2="29.7606" y2="25.6982"/>
<polyline points="32.5106,28.8614 30.7713,25.8487 34.25,25.8487"/>
<polyline points="35.75,25.8487 39.2287,25.8487 37.4894,28.8614"/>
<polyline points="36.7394,30.1604 35,33.1731 33.2606,30.1604"/>
<line x1="32.9069" y1="26.6487" x2="37.0931" y2="26.6487"/>
<line x1="37.4681" y1="27.2982" x2="35.375" y2="30.9235"/>
<line x1="34.625" y1="30.9235" x2="32.5319" y2="27.2982"/>
<polyline points="33.8963,28.0614 33.5426,27.4487 34.25,27.4487"/>
<polyline points="35.75,27.4487 36.4574,27.4487 36.1037,28.0614"/>
<polyline points="35.3537,29.3604 35,29.9731 34.6463,29.3604"/>
<line x1="37.1356" y1="35.5731" x2="46.8644" y2="35.5731"/>
<line x1="47.2394" y1="34.9235" x2="42.375" y2="26.4982"/>
<line x1="41.625" y1="26.4982" x2="36.7606" y2="34.9235"/>
<polyline points="39.5106,31.7604 37.7713,34.7731 41.25,34.7731"/>
<polyline points="42.75,34.7731 46.2287,34.7731 44.4894,31.7604"/>
<polyline points="43.7394,30.4614 42,27.4487 40.2606,30.4614"/>
<line x1="39.9069" y1="33.9731" x2="44.0931" y2="33.9731"/>
<line x1="44.4681" y1="33.3235" x2="42.375" y2="29.6982"/>
<line x1="41.625" y1="29.6982" x2="39.5319" y2="33.3235"/>
<polyline points="40.8963,32.5604 40.5426,33.1731 41.25,33.1731"/>
<polyline points="42.75,33.1731 43.4574,33.1731 43.1037,32.5604"/>
<polyline points="42.3537,31.2614 42,30.6487 41.6463,31.2614"/>
<line x1="44.1356" y1="25.0487" x2="53.8644" y2="25.0487"/>
<line x1="54.2394" y1="25.6982" x2="49.375" y2="34.1235"/>
<line x1="48.625" y1="34.1235" x2="43.7606" y2="25.6982"/>
<polyline points="46.5106,28.8614 44.7713,25.8487 48.25,25.8487"/>
<polyline points="49.75,25.8487 53.2287,25.8487 51.4894,28.8614"/>
<polyline points="50.7394,30.1604 49,33.1731 47.2606,30.1604"/>
<line x1="46.9069" y1="26.6487" x2="51.0931" y2="26.6487"/>
<line x1="51.4681" y1="27.2982" x2="49.375" y2="30.9235"/>
<line x1="48.625" y1="30.9235" x2="46.5319" y2="27.2982"/>
<polyline points="47.8963,28.0614 47.5426,27.4487 48.25,27.4487"/>
<polyline points="49.75,27.4487 50.4574,27.4487 50.1037,28.0614"/>
<polyline points="49.3537,29.3604 49,29.9731 48.6463,29.3604"/>
<line x1="51.1356" y1="35.5731" x2="60.8644" y2="35.5731"/>
<line x1="61.2394" y1="34.9235" x2="56.375" y2="26.4982"/>
<line x1="55.625" y1="26.4982" x2="50.7606" y2="34.9235"/>
<polyline points="53.5106,31.7604 51.7713,34.7731 55.25,34.7731"/>
<polyline points="56.75,34.7731 60.2287,34.7731 58.4894,31.7604"/>
<polyline points="57.7394,30.4614 56,27.4487 54.2606,30.4614"/>
<line x1="53.9069" y1="33.9731" x2="58.0931" y2="33.9731"/>
<line x1="58.4681" y1="33.3235" x2="56.375" y2="29.6982"/>
<line x1="55.625" y1="29.6982" x2="53.5319" y2="33.3235"/>
<polyline points="54.8963,32.5604 54.5426,33.1731 55.25,33.1731"/>
<polyline points="56.75,33.1731 57.4574,33.1731 57.1037,32.5604"/>
<polyline points="56.3537,31.2614 56,30.6487 55.6463,31.2614"/>
<line x1="58.1356" y1="25.0487" x2="67.8644" y2="25.0487"/>
<line x1="68.2394" y1="25.6982" x2="63.375" y2="34.1235"/>
<line x1="62.625" y1="34.1235" x2="57.7606" y2="25.6982"/>
<polyline points="60.5106,28.8614 58.7713,25.8487 62.25,25.8487"/>
<polyline points="63.75,25.8487 67.2287,25.8487 65.4894,28.8614"/>
<polyline points="64.7394,30.1604 63,33.1731 61.2606,30.1604"/>
<line x1="60.9069" y1="26.6487" x2="65.0931" y2="26.6487"/>
<line x1="65.4681" y1="27.2982" x2="63.375" y2="30.9235"/>
<line x1="62.625" y1="30.9235" x2="60.5319" y2="27.2982"/>
<polyline points="61.8963,28.0614 61.5426,27.4487 62.25,27.4487"/>
<polyline points="63.75,27.4487 64.4574,27.4487 64.1037,28.0614"/>
<polyline points="63.3537,29.3604 63,29.9731 62.6463,29.3604"/>
<line x1="65.1356" y1="35.5731" x2="74.8644" y2="35.5731"/>
<line x1="75.2394" y1="34.9235" x2="70.375" y2="26.4982"/>
<line x1="69.625" y1="26.4982" x2="64.7606" y2="34.9235"/>
<polyline points="67.5106,31.7604 65.7713,34.7731 69.25,34.7731"/>
<polyline points="70.75,34.7731 74.2287,34.7731 72.4894,31.7604"/>
<polyline points="71.7394,30.4614 70,27.4487 68.2606,30.4614"/>
<line x1="67.9069" y1="33.9731" x2="72.0931" y2="33.9731"/>
<line x1="72.4681" y1="33.3235" x2="70.375" y2="29.6982"/>
<line x1="69.625" y1="29.6982" x2="67.5319" y2="33.3235"/>
<polyline points="68.8963,32.5604 68.5426,33.1731 69.25,33.1731"/>
<polyline points="70.75,33.1731 71.4574,33.1731 71.1037,32.5604"/>
<polyline points="70.3537,31.2614 70,30.6487 69.6463,31.2614"/>
<line x1="72.1356" y1="25.0487" x2="81.8644" y2="25.0487"/>
<line x1="82.2394" y1="25.6982" x2="77.375" y2="34.1235"/>
<line x1="76.625" y1="34.1235" x2="71.7606" y2="25.6982"/>
<polyline points="74.5106,28.8614 72.7713,25.8487 76.25,25.8487"/>
<polyline points="77.75,25.8487 81.2287,25.8487 79.4894,28.8614"/>
<polyline points="78.7394,30.1604 77,33.1731 75.2606,30.1604"/>
<line x1="74.9069" y1="26.6487" x2="79.0931" y2="26.6487"/>
<line x1="79.4681" y1="27.2982" x2="77.375" y2="30.9235"/>
<line x1="76.625" y1="30.9235" x2="74.5319" y2="27.2982"/>
<polyline points="75.8963,28.0614 75.5426,27.4487 76.25,27.4487"/>
<polyline points="77.75,27.4487 78.4574,27.4487 78.1037,28.0614"/>
<polyline points="77.3537,29.3604 77,29.9731 76.6463,29.3604"/>
<line x1="79.1356" y1="35.5731" x2="88.8644" y2="35.5731"/>
<line x1="89.2394" y1="34.9235" x2="84.375" y2="26.4982"/>
<line x1="83.625" y1="26.4982" x2="78.7606" y2="34.9235"/>
<polyline points="81.5106,31.7604 79.7713,34.7731 83.25,34.7731"/>
<polyline points="84.75,34.7731 88.2287,34.7731 86.4894,31.7604"/>
<polyline points="85.7394,30.4614 84,27.4487 82.2606,30.4614"/>
<line x1="81.9069" y1="33.9731" x2="86.0931" y2="33.9731"/>
<line x1="86.4681" y1="33.3235" x2="84.375" y2="29.6982"/>
<line x1="83.625" y1="29.6982" x2="81.5319" y2="33.3235"/>
<polyline points="82.8963,32.5604 82.5426,33.1731 83.25,33.1731"/>
<polyline points="84.75,33.1731 85.4574,33.1731 85.1037,32.5604"/>
<polyline points="84.3537,31.2614 84,30.6487 83.6463,31.2614"/>
<line x1="86.1356" y1="25.0487" x2="95.8644" y2="25.0487"/>
<line x1="96.2394" y1="25.6982" x2="91.375" y2="34.1235"/>
<line x1="90.625" y1="34.1235" x2="85.7606" y2="25.6982"/>
<polyline points="88.5106,28.8614 86.7713,25.8487 90.25,25.8487"/>
<polyline points="91.75,25.8487 95.2287,25.8487 93.4894,28.8614"/>
<polyline points="92.7394,30.1604 91,33.1731 89.2606,30.1604"/>
<line x1="88.9069" y1="26.6487" x2="93.0931" y2="26.6487"/>
<line x1="93.4681" y1="27.2982" x2="91.375" y2="30.9235"/>
<line x1="90.625" y1="30.9235" x2="88.5319" y2="27.2982"/>
<polyline points="89.8963,28.0614 89.5426,27.4487 90.25,27.4487"/>
<polyline points="91.75,27.4487 92.4574,27.4487 92.1037,28.0614"/>
<polyline points="91.3537,29.3604 91,29.9731 90.6463,29.3604"/>
<line x1="93.1356" y1="35.5731" x2="102.8644" y2="35.5731"/>
<line x1="103.2394" y1="34.9235" x2="98.375" y2="26.4982"/>
<line x1="97.625" y1="26.4982" x2="92.7606" y2="34.9235"/>
<polyline points="95.5106,31.7604 93.7713,34.7731 97.25,34.7731"/>
<polyline points="98.75,34.7731 102.2287,34.7731 100.4894,31.7604"/>
<polyline points="99.7394,30.4614 98,27.4487 96.2606,30.4614"/>
<line x1="95.9069" y1="33.9731" x2="100.0931" y2="33.9731"/>
<line x1="100.4681" y1="33.3235" x2="98.375" y2="29.6982"/>
<line x1="97.625" y1="29.6982" x2="95.5319" y2="33.3235"/>
<polyline points="96.8963,32.5604 96.5426,33.1731 97.25,33.1731"/>
<polyline points="98.75,33.1731 99.4574,33.1731 99.1037,32.5604"/>
<polyline points="98.3537,31.2614 98,30.6487 97.6463,31.2614"/>
<line x1="100.1356" y1="25.0487" x2="109.8644" y2="25.0487"/>
<line x1="110.2394" y1="25.6982" x2="105.375" y2="34.1235"/>
<line x1="104.625" y1="34.1235" x2="99.7606" y2="25.6982"/>
<polyline points="102.5106,28.8614 100.7713,25.8487 104.25,25.8487"/>
<polyline points="105.75,25.8487 109.2287,25.8487 107.4894,28.8614"/>
<polyline points="106.7394,30.1604 105,33.1731 103.2606,30.1604"/>
<line x1="102.9069" y1="26.6487" x2="107.0931" y2="26.6487"/>
<line x1="107.4681" y1="27.2982" x2="105.375" y2="30.9235"/>
<line x1="104.625" y1="30.9235" x2="102.5319" y2="27.2982"/>
<polyline points="103.8963,28.0614 103.5426,27.4487 104.25,27.4487"/>
<polyline points="105.75,27.4487 106.4574,27.4487 106.1037,28.0614"/>
<polyline points="105.3537,29.3604 105,29.9731 104.6463,29.3604"/>
<line x1="107.1356" y1="35.5731" x2="116.8644" y2="35.5731"/>
<line x1="117.2394" y1="34.9235" x2="112.375" y2="26.4982"/>
<line x1="111.625" y1="26.4982" x2="106.7606" y2="34.9235"/>
<polyline points="109.5106,31.7604 107.7713,34.7731 111.25,34.7731"/>
<polyline points="112.75,34.7731 116.2287,34.7731 114.4894,31.7604"/>
<polyline points="113.7394,30.4614 112,27.4487 110.2606,30.4614"/>
<line x1="109.9069" y1="33.9731" x2="114.0931" y2="33.9731"/>
<line x1="114.4681" y1="33.3235" x2="112.375" y2="29.6982"/>
<line x1="111.625" y1="29.6982" x2="109.5319" y2="33.3235"/>
<polyline points="110.8963,32.5604 110.5426,33.1731 111.25,33.1731"/>
<polyline points="112.75,33.1731 113.4574,33.1731 113.1037,32.5604"/>
<polyline points="112.3537,31.2614 112,30.6487 111.6463,31.2614"/>
<line x1="114.1356" y1="25.0487" x2="120" y2="25.0487"/>
<line x1="120" y1="33.041" x2="119.375" y2="34.1235"/>
<line x1="118.625" y1="34.1235" x2="113.7606" y2="25.6982"/>
<polyline points="116.5106,28.8614 114.7713,25.8487 118.25,25.8487"/>
<polyline points="120,31.441 119,33.1731 117.2606,30.1604"/>
<line x1="116.9069" y1="26.6487" x2="120" y2="26.6487"/>
<line x1="120" y1="29.841" x2="119.375" y2="30.9235"/>
<line x1="118.625" y1="30.9235" x2="116.5319" y2="27.2982"/>
<polyline points="117.8963,28.0614 117.5426,27.4487 118.25,27.4487"/>
<polyline points="119.3537,29.3604 119,29.9731 118.6463,29.3604"/>
<line x1="0" y1="37.1731" x2="4.8644" y2="37.1731"/>
<line x1="5.2394" y1="37.8226" x2="0.375" y2="46.2479"/>
<polyline points="0.75,37.9731 4.2287,37.9731 2.4894,40.9857"/>
<polyline points="1.7394,42.2848 0,45.2974 0,45.2974"/>
<line x1="0" y1="38.7731" x2="2.0931" y2="38.7731"/>
<line x1="2.4681" y1="39.4226" x2="0.375" y2="43.0479"/>
<polyline points="0.75,39.5731 1.4574,39.5731 1.1037,40.1857"/>
<polyline points="0.3537,41.4848 0,42.0974 0,42.0974"/>
<line x1="2.1356" y1="47.6974" x2="11.8644" y2="47.6974"/>
<line x1="12.2394" y1="47.0479" x2="7.375" y2="38.6226"/>
<line x1="6.625" y1="38.6226" x2="1.7606" y2="47.0479"/>
<polyline points="4.5106,43.8848 2.7713,46.8974 6.25,46.8974"/>
<polyline points="7.75,46.8974 11.2287,46.8974 9.4894,43.8848"/>
<polyline points="8.7394,42.5857 7,39.5731 5.2606,42.5857"/>
<line x1="4.9069" y1="46.0974" x2="9.0931" y2="46.0974"/>
<line x1="9.4681" y1="45.4479" x2="7.375" y2="41.8226"/>
<line x1="6.625" y1="41.8226" x2="4.5319" y2="45.4479"/>
<polyline points="5.8963,44.6848 5.5426,45.2974 6.25,45.2974"/>
<polyline points="7.75,45.2974 8.4574,45.2974 8.1037,44.6848"/>
<polyline points="7.3537,43.3857 7,42.7731 6.6463,43.3857"/>
<line x1="9.1356" y1="37.1731" x2="18.8644" y2="37.1731"/>
<line x1="19.2394" y1="37.8226" x2="14.375" y2="46.2479"/>
<line x1="13.625" y1="46.2479" x2="8.7606" y2="37.8226"/>
<polyline points="11.5106,40.9857 9.7713,37.9731 13.25,37.9731"/>
<polyline points="14.75,37.9731 18.2287,37.9731 16.4894,40.9857"/>
<polyline points="15.7394,42.2848 14,45.2974 12.2606,42.2848"/>
<line x1="11.9069" y1="38.7731" x2="16.0931" y2="38.7731"/>
<line x1="16.4681" y1="39.4226" x2="14.375" y2="43.0479"/>
<line x1="13.625" y1="43.0479" x2="11.5319" y2="39.4226"/>
<polyline points="12.8963,40.1857 12.5426,39.5731 13.25,39.5731"/>
<polyline points="14.75,39.5731 15.4574,39.5731 15.1037,40.1857"/>
<polyline points="14.3537,41.4848 14,42.0974 13.6463,41.4848"/>
<line x1="16.1356" y1="47.6974" x2="25.8644" y2="47.6974"/>
<line x1="26.2394" y1="47.0479" x2="21.375" y2="38.6226"/>
<line x1="20.625" y1="38.6226" x2="15.7606" y2="47.0479"/>
<polyline points="18.5106,43.8848 16.7713,46.8974 20.25,46.8974"/>
<polyline points="21.75,46.8974 25.2287,46.8974 23.4894,43.8848"/>
<polyline points="22.7394,42.5857 21,39.5731 19.2606,42.5857"/>
<line x1="18.9069" y1="46.0974" x2="23.0931" y2="46.0974"/>
<line x1="23.4681" y1="45.4479" x2="21.375" y2="41.8226"/>
<line x1="20.625" y1="41.8226" x2="18.5319" y2="45.4479"/>
<polyline points="19.8963,44.6848 19.5426,45.2974 20.25,45.2974"/>
<polyline points="21.75,45.2974 22.4574,45.2974 22.1037,44.6848"/>
<polyline points="21.3537,43.3857 21,42.7731 20.6463,43.3857"/>
<line x1="23.1356" y1="37.1731" x2="32.8644" y2="37.1731"/>
<line x1="33.2394" y1="37.8226" x2="28.375" y2="46.2479"/>
<line x1="27.625" y1="46.2479" x2="22.7606" y2="37.8226"/>
<polyline points="25.5106,40.9857 23.7713,37.9731 27.25,37.9731"/>
<polyline points="28.75,37.9731 32.2287,37.9731 30.4894,40.9857"/>
<polyline points="29.7394,42.2848 28,45.2974 26.2606,42.2848"/>
<line x1="25.9069" y1="38.7731" x2="30.0931" y2="38.7731"/>
<line x1="30.4681" y1="39.4226" x2="28.375" y2="43.0479"/>
<line x1="27.625" y1="43.0479" x2="25.5319" y2="39.4226"/>
<polyline points="26.8963,40.1857 26.5426,39.5731 27.25,39.5731"/>
<polyline points="28.75,39.5731 29.4574,39.5731 29.1037,40.1857"/>
<polyline points="28.3537,41.4848 28,42.0974 27.6463,41.4848"/>
<line x1="30.1356" y1="47.6974" x2="39.8644" y2="47.6974"/>
<line x1="40.2394" y1="47.0479" x2="35.375" y2="38.6226"/>
<line x1="34.625" y1="38.6226" x2="29.7606" y2="47.0479"/>
<polyline points="32.5106,43.8848 30.7713,46.8974 34.25,46.8974"/>
<polyline points="35.75,46.8974 39.2287,46.8974 37.4894,43.8848"/>
<polyline points="36.7394,42.5857 35,39.5731 33.2606,42.5857"/>
<line x1="32.9069" y1="46.0974" x2="37.0931" y2="46.0974"/>
<line x1="37.4681" y1="45.4479" x2="35.375" y2="41.8226"/>
<line x1="34.625" y1="41.8226" x2="32.5319" y2="45.4479"/>
<polyline points="33.8963,44.6848 33.5426,45.2974 34.25,45.2974"/>
<polyline points="35.75,45.2974 36.4574,45.2974 36.1037,44.6848"/>
<polyline points="35.3537,43.3857 35,42.7731 34.6463,43.3857"/>
<line x1="37.1356" y1="37.1731" x2="46.8644" y2="37.1731"/>
<line x1="47.2394" y1="37.8226" x2="42.375" y2="46.2479"/>
<line x1="41.625" y1="46.2479" x2="36.7606" y2="37.8226"/>
<polyline points="39.5106,40.9857 37.7713,37.9731 41.25,37.9731"/>
<polyline points="42.75,37.9731 46.2287,37.9731 44.4894,40.9857"/>
<polyline points="43.7394,42.2848 42,45.2974 40.2606,42.2848"/>
<line x1="39.9069" y1="38.7731" x2="44.0931" y2="38.7731"/>
<line x1="44.4681" y1="39.4226" x2="42.375" y2="43.0479"/>
<line x1="41.625" y1="43.0479" x2="39.5319" y2="39.4226"/>
<polyline points="40.8963,40.1857 40.5426,39.5731 41.25,39.5731"/>
<polyline points="42.75,39.5731 43.4574,39.5731 43.1037,40.1857"/>
<polyline points="42.3537,41.4848 42,42.0974 41.6463,41.4848"/>
<line x1="44.1356" y1="47.6974" x2="53.8644" y2="47.6974"/>
<line x1="54.2394" y1="47.0479" x2="49.375" y2="38.6226"/>
<line x1="48.625" y1="38.6226" x2="43.7606" y2="47.0479"/>
<polyline points="46.5106,43.8848 44.7713,46.8974 48.25,46.8974"/>
<polyline points="49.75,46.8974 53.2287,46.8974 51.4894,43.8848"/>
<polyline points="50.7394,42.5857 49,39.5731 47.2606,42.5857"/>
<line x1="46.9069" y1="46.0974" x2="51.0931" y2="46.0974"/>
<line x1="51.4681" y1="45.4479" x2="49.375" y2="41.8226"/>
<line x1="48.625" y1="41.8226" x2="46.5319" y2="45.4479"/>
<polyline points="47.8963,44.6848 47.5426,45.2974 48.25,45.2974"/>
<polyline points="49.75,45.2974 50.4574,45.2974 50.1037,44.6848"/>
<polyline points="49.3537,43.3857 49,42.7731 48.6463,43.3857"/>
<line x1="51.1356" y1="37.1731" x2="60.8644" y2="37.1731"/>
<line x1="61.2394" y1="37.8226" x2="56.375" y2="46.2479"/>
<line x1="55.625" y1="46.2479" x2="50.7606" y2="37.8226"/>
<polyline points="53.5106,40.9857 51.7713,37.9731 55.25,37.9731"/>
<polyline points="56.75,37.9731 60.2287,37.9731 58.4894,40.9857"/>
<polyline points="57.7394,42.2848 56,45.2974 54.2606,42.2848"/>
<line x1="53.9069" y1="38.7731" x2="58.0931" y2="38.7731"/>
<line x1="58.4681" y1="39.4226" x2="56.375" y2="43.0479"/>
<line x1="55.625" y1="43.0479" x2="53.5319" y2="39.4226"/>
<polyline points="54.8963,40.1857 54.5426,39.5731 55.25,39.5731"/>
<polyline points="56.75,39.5731 57.4574,39.5731 57.1037,40.1857"/>
<polyline points="56.3537,41.4848 56,42.0974 55.6463,41.4848"/>
<line x1="58.1356" y1="47.6974" x2="67.8644" y2="47.6974"/>
<line x1="68.2394" y1="47.0479" x2="63.375" y2="38.6226"/>
<line x1="62.625" y1="38.6226" x2="57.7606" y2="47.0479"/>
<polyline points="60.5106,43.8848 58.7713,46.8974 62.25,46.8974"/>
<polyline points="63.75,46.8974 67.2287,46.8974 65.4894,43.8848"/>
<polyline points="64.7394,42.5857 63,39.5731 61.2606,42.5857"/>
<line x1="60.9069" y1="46.0974" x2="65.0931" y2="46.0974"/>
<line x1="65.4681" y1="45.4479" x2="63.375" y2="41.8226"/>
<line x1="62.625" y1="41.8226" x2="60.5319" y2="45.4479"/>
<polyline points="61.8963,44.6848 61.5426,45.2974 62.25,45.2974"/>
<polyline points="63.75,45.2974 64.4574,45.2974 64.1037,44.6848"/>
<polyline points="63.3537,43.3857 63,42.7731 62.6463,43.3857"/>
<line x1="65.1356" y1="37.1731" x2="74.8644" y2="37.1731"/>
<line x1="75.2394" y1="37.8226" x2="70.375" y2="46.2479"/>
<line x1="69.625" y1="46.2479" x2="64.7606" y2="37.8226"/>
<polyline points="67.5106,40.9857 65.7713,37.9731 69.25,37.9731"/>
<polyline points="70.75,37.9731 74.2287,37.9731 72.4894,40.9857"/>
<polyline points="71.7394,42.2848 70,45.2974 68.2606,42.2848"/>
<line x1="67.9069" y1="38.7731" x2="72.0931" y2="38.7731"/>
<line x1="72.4681" y1="39.4226" x2="70.375" y2="43.0479"/>
<line x1="69.625" y1="43.0479" x2="67.5319" y2="39.4226"/>
<polyline points="68.8963,40.1857 68.5426,39.5731 69.25,39.5731"/>
<polyline points="70.75,39.5731 71.4574,39.5731 71.1037,40.1857"/>
<polyline points="70.3537,41.4848 70,42.0974 69.6463,41.4848"/>
<line x1="72.1356" y1="47.6974" x2="81.8644" y2="47.6974"/>
<line x1="82.2394" y1="47.0479" x2="77.375" y2="38.6226"/>
<line x1="76.625" y1="38.6226" x2="71.7606" y2="47.0479"/>
<polyline points="74.5106,43.8848 72.7713,46.8974 76.25,46.8974"/>
<polyline points="77.75,46.8974 81.2287,46.8974 79.4894,43.8848"/>
<polyline points="78.7394,42.5857 77,39.5731 75.2606,42.5857"/>
<line x1="74.9069" y1="46.0974" x2="79.0931" y2="46.0974"/>
<line x1="79.4681" y1="45.4479" x2="77.375" y2="41.8226"/>
<line x1="76.625" y1="41.8226" x2="74.5319" y2="45.4479"/>
<polyline points="75.8963,44.6848 75.5426,45.2974 76.25,45.2974"/>
<polyline points="77.75,45.2974 78.4574,45.2974 78.1037,44.6848"/>
<polyline points="77.3537,43.3857 77,42.7731 76.6463,43.3857"/>
<line x1="79.1356" y1="37.1731" x2="88.8644" y2="37.1731"/>
<line x1="89.2394" y1="37.8226" x2="84.375" y2="46.2479"/>
<line x1="83.625" y1="46.2479" x2="78.7606" y2="37.8226"/>
<polyline points="81.5106,40.9857 79.7713,37.9731 83.25,37.9731"/>
<polyline points="84.75,37.9731 88.2287,37.9731 86.4894,40.9857"/>
<polyline points="85.7394,42.2848 84,45.2974 82.2606,42.2848"/>
<line x1="81.9069" y1="38.7731" x2="86.0931" y2="38.7731"/>
<line x1="86.4681" y1="39.4226" x2="84.375" y2="43.0479"/>
<line x1="83.625" y1="43.0479" x2="81.5319" y2="39.4226"/>
<polyline points="82.8963,40.1857 82.5426,39.5731 83.25,39.5731"/>
<polyline points="84.75,39.5731 85.4574,39.5731 85.1037,40.1857"/>
<polyline points="84.3537,41.4848 84,42.0974 83.6463,41.4848"/>
<line x1="86.1356" y1="47.6974" x2="95.8644" y2="47.6974"/>
<line x1="96.2394" y1="47.0479" x2="91.375" y2="38.6226"/>
<line x1="90.625" y1="38.6226" x2="85.7606" y2="47.0479"/>
<polyline points="88.5106,43.8848 86.7713,46.8974 90.25,46.8974"/>
<polyline points="91.75,46.8974 95.2287,46.8974 93.4894,43.8848"/>
<polyline points="92.7394,42.5857 91,39.5731 89.2606,42.5857"/>
<line x1="88.9069" y1="46.0974" x2="93.0931" y2="46.0974"/>
<line x1="93.4681" y1="45.4479" x2="91.375" y2="41.8226"/>
<line x1="90.625" y1="41.8226" x2="88.5319" y2="45.4479"/>
<polyline points="89.8963,44.6848 89.5426,45.2974 90.25,45.2974"/>
<polyline points="91.75,45.2974 92.4574,45.2974 92.1037,44.6848"/>
<polyline points="91.3537,43.3857 91,42.7731 90.6463,43.3857"/>
<line x1="93.1356" y1="37.1731" x2="102.8644" y2="37.1731"/>
<line x1="103.2394" y1="37.8226" x2="98.375" y2="46.2479"/>
<line x1="97.625" y1="46.2479" x2="92.7606" y2="37.8226"/>
<polyline points="95.5106,40.9857 93.7713,37.9731 97.25,37.9731"/>
<polyline points="98.75,37.9731 102.2287,37.9731 100.4894,40.9857"/>
<polyline points="99.7394,42.2848 98,45.2974 96.2606,42.2848"/>
<line x1="95.9069" y1="38.7731" x2="100.0931" y2="38.7731"/>
<line x1="100.4681" y1="39.4226" x2="98.375" y2="43.0479"/>
<line x1="97.625" y1="43.0479" x2="95.5319" y2="39.4226"/>
<polyline points="96.8963,40.1857 96.5426,39.5731 97.25,39.5731"/>
<polyline points="98.75,39.5731 99.4574,39.5731 99.1037,40.1857"/>
<polyline points="98.3537,41.4848 98,42.0974 97.6463,41.4848"/>
<line x1="100.1356" y1="47.6974" x2="109.8644" y2="47.6974"/>
<line x1="110.2394" y1="47.0479" x2="105.375" y2="38.6226"/>
<line x1="104.625" y1="38.6226" x2="99.7606" y2="47.0479"/>
<polyline points="102.5106,43.8848 100.7713,46.8974 104.25,46.8974"/>
<polyline points="105.75,46.8974 109.2287,46.8974 107.4894,43.8848"/>
<polyline points="106.7394,42.5857 105,39.5731 103.2606,42.5857"/>
<line x1="102.9069" y1="46.0974" x2="107.0931" y2="46.0974"/>
<line x1="107.4681" y1="45.4479" x2="105.375" y2="41.8226"/>
<line x1="104.625" y1="41.8226" x2="102.5319" y2="45.4479"/>
<polyline points="103.8963,44.6848 103.5426,45.2974 104.25,45.2974"/>
<polyline points="105.75,45.2974 106.4574,45.2974 106.1037,44.6848"/>
<polyline points="105.3537,43.3857 105,42.7731 104.6463,43.3857"/>
<line x1="107.1356" y1="37.1731" x2="116.8644" y2="37.1731"/>
<line x1="117.2394" y1="37.8226" x2="112.375" y2="46.2479"/>
<line x1="111.625" y1="46.2479" x2="106.7606" y2="37.8226"/>
<polyline points="109.5106,40.9857 107.7713,37.9731 111.25,37.9731"/>
<polyline points="112.75,37.9731 116.2287,37.9731 114.4894,40.9857"/>
<polyline points="113.7394,42.2848 112,45.2974 110.2606,42.2848"/>
<line x1="109.9069" y1="38.7731" x2="114.0931" y2="38.7731"/>
<line x1="114.4681" y1="39.4226" x2="112.375" y2="43.0479"/>
<line x1="111.625" y1="43.0479" x2="109.5319" y2="39.4226"/>
<polyline points="110.8963,40.1857 110.5426,39.5731 111.25,39.5731"/>
<polyline points="112.75,39.5731 113.4574,39.5731 113.1037,40.1857"/>
<polyline points="112.3537,41.4848 112,42.0974 111.6463,41.4848"/>
<line x1="114.1356" y1="47.6974" x2="120" y2="47.6974"/>
<line x1="120" y1="39.7051" x2="119.375" y2="38.6226"/>
<line x1="118.625" y1="38.6226" x2="113.7606" y2="47.0479"/>
<polyline points="116.5106,43.8848 114.7713,46.8974 118.25,46.8974"/>
<polyline points="120,41.3051 119,39.5731 117.2606,42.5857"/>
<line x1="116.9069" y1="46.0974" x2="120" y2="46.0974"/>
<line x1="120" y1="42.9051" x2="119.375" y2="41.8226"/>
<line x1="118.625" y1="41.8226" x2="116.5319" y2="45.4479"/>
<polyline points="117.8963,44.6848 117.5426,45.2974 118.25,45.2974"/>
<polyline points="119.3537,43.3857 119,42.7731 118.6463,43.3857"/>
<line x1="0" y1="59.8218" x2="4.8644" y2="59.8218"/>
<line x1="5.2394" y1="59.1723" x2="0.375" y2="50.7469"/>
<polyline points="0.75,59.0218 4.2287,59.0218 2.4894,56.0091"/>
<polyline points="1.7394,54.7101 0,51.6974 0,51.6974"/>
<line x1="0" y1="58.2218" x2="2.0931" y2="58.2218"/>
<line x1="2.4681" y1="57.5723" x2="0.375" y2="53.9469"/>
<polyline points="0.75,57.4218 1.4574,57.4218 1.1037,56.8091"/>
<polyline points="0.3537,55.5101 0,54.8974 0,54.8974"/>
<line x1="2.1356" y1="49.2974" x2="11.8644" y2="49.2974"/>
<line x1="12.2394" y1="49.9469" x2="7.375" y2="58.3723"/>
<line x1="6.625" y1="58.3723" x2="1.7606" y2="49.9469"/>
<polyline points="4.5106,53.1101 2.7713,50.0974 6.25,50.0974"/>
<polyline points="7.75,50.0974 11.2287,50.0974 9.4894,53.1101"/>
<polyline points="8.7394,54.4091 7,57.4218 5.2606,54.4091"/>
<line x1="4.9069" y1="50.8974" x2="9.0931" y2="50.8974"/>
<line x1="9.4681" y1="51.5469" x2="7.375" y2="55.1723"/>
<line x1="6.625" y1="55.1723" x2="4.5319" y2="51.5469"/>
<polyline points="5.8963,52.3101 5.5426,51.6974 6.25,51.6974"/>
<polyline points="7.75,51.6974 8.4574,51.6974 8.1037,52.3101"/>
<polyline points="7.3537,53.6091 7,54.2218 6.6463,53.6091"/>
<line x1="9.1356" y1="59.8218" x2="18.8644" y2="59.8218"/>
<line x1="19.2394" y1="59.1723" x2="14.375" y2="50.7469"/>
<line x1="13.625" y1="50.7469" x2="8.7606" y2="59.1723"/>
<polyline points="11.5106,56.0091 9.7713,59.0218 13.25,59.0218"/>
<polyline points="14.75,59.0218 18.2287,59.0218 16.4894,56.0091"/>
<polyline points="15.7394,54.7101 14,51.6974 12.2606,54.7101"/>
<line x1="11.9069" y1="58.2218" x2="16.0931" y2="58.2218"/>
<line x1="16.4681" y1="57.5723" x2="14.375" y2="53.9469"/>
<line x1="13.625" y1="53.9469" x2="11.5319" y2="57.5723"/>
<polyline points="12.8963,56.8091 12.5426,57.4218 13.25,57.4218"/>
<polyline points="14.75,57.4218 15.4574,57.4218 15.1037,56.8091"/>
<polyline points="14.3537,55.5101 14,54.8974 13.6463,55.5101"/>
<line x1="16.1356" y1="49.2974" x2="25.8644" y2="49.2974"/>
<line x1="26.2394" y1="49.9469" x2="21.375" y2="58.3723"/>
<line x1="20.625" y1="58.3723" x2="15.7606" y2="49.9469"/>
<polyline points="18.5106,53.1101 16.7713,50.0974 20.25,50.0974"/>
<polyline points="21.75,50.0974 25.2287,50.0974 23.4894,53.1101"/>
<polyline points="22.7394,54.4091 21,57.4218 19.2606,54.4091"/>
<line x1="18.9069" y1="50.8974" x2="23.0931" y2="50.8974"/>
<line x1="23.4681" y1="51.5469" x2="21.375" y2="55.1723"/>
<line x1="20.625" y1="55.1723" x2="18.5319" y2="51.5469"/>
<polyline points="19.8963,52.3101 19.5426,51.6974 20.25,51.6974"/>
<polyline points="21.75,51.6974 22.4574,51.6974 22.1037,52.3101"/>
<polyline points="21.3537,53.6091 21,54.2218 20.6463,53.6091"/>
<line x1="23.1356" y1="59.8218" x2="32.8644" y2="59.8218"/>
<line x1="33.2394" y1="59.1723" x2="28.375" y2="50.7469"/>
<line x1="27.625" y1="50.7469" x2="22.7606" y2="59.1723"/>
<polyline points="25.5106,56.0091 23.7713,59.0218 27.25,59.0218"/>
<polyline points="28.75,59.0218 32.2287,59.0218 30.4894,56.0091"/>
<polyline points="29.7394,54.7101 28,51.6974 26.2606,54.7101"/>
<line x1="25.9069" y1="58.2218" x2="30.0931" y2="58.2218"/>
<line x1="30.4681" y1="57.5723" x2="28.375" y2="53.9469"/>
<line x1="27.625" y1="53.9469" x2="25.5319" y2="57.5723"/>
<polyline points="26.8963,56.8091 26.5426,57.4218 27.25,57.4218"/>
<polyline points="28.75,57.4218 29.4574,57.4218 29.1037,56.8091"/>
<polyline points="28.3537,55.5101 28,54.8974 27.6463,55.5101"/>
<line x1="30.1356" y1="49.2974" x2="39.8644" y2="49.2974"/>
<line x1="40.2394" y1="49.9469" x2="35.375" y2="58.3723"/>
<line x1="34.625" y1="58.3723" x2="29.7606" y2="49.9469"/>
<polyline points="32.5106,53.1101 30.7713,50.0974 34.25,50.0974"/>
<polyline points="35.75,50.0974 39.2287,50.0974 37.4894,53.1101"/>
<polyline points="36.7394,54.4091 35,57.4218 33.2606,54.4091"/>
<line x1="32.9069" y1="50.8974" x2="37.0931" y2="50.8974"/>
<line x1="37.4681" y1="51.5469" x2="35.375" y2="55.1723"/>
<line x1="34.625" y1="55.1723" x2="32.5319" y2="51.5469"/>
<polyline points="33.8963,52.3101 33.5426,51.6974 34.25,51.6974"/>
<polyline points="35.75,51.6974 36.4574,51.6974 36.1037,52.3101"/>
<polyline points="35.3537,53.6091 35,54.2218 34.6463,53.6091"/>
<line x1="37.1356" y1="59.8218" x2="46.8644" y2="59.8218"/>
<line x1="47.2394" y1="59.1723" x2="42.375" y2="50.7469"/>
<line x1="41.625" y1="50.7469" x2="36.7606" y2="59.1723"/>
<polyline points="39.5106,56.0091 37.7713,59.0218 41.25,59.0218"/>
<polyline points="42.75,59.0218 46.2287,59.0218 44.4894,56.0091"/>
<polyline points="43.7394,54.7101 42,51.6974 40.2606,54.7101"/>
<line x1="39.9069" y1="58.2218" x2="44.0931" y2="58.2218"/>
<line x1="44.4681" y1="57.5723" x2="42.375" y2="53.9469"/>
<line x1="41.625" y1="53.9469" x2="39.5319" y2="57.5723"/>
<polyline points="40.8963,56.8091 40.5426,57.4218 41.25,57.4218"/>
<polyline points="42.75,57.4218 43.4574,57.4218 43.1037,56.8091"/>
<polyline points="42.3537,55.5101 42,54.8974 41.6463,55.5101"/>
<line x1="44.1356" y1="49.2974" x2="53.8644" y2="49.2974"/>
<line x1="54.2394" y1="49.9469" x2="49.375" y2="58.3723"/>
<line x1="48.625" y1="58.3723" x2="43.7606" y2="49.9469"/>
<polyline points="46.5106,53.1101 44.7713,50.0974 48.25,50.0974"/>
<polyline points="49.75,50.0974 53.2287,50.0974 51.4894,53.1101"/>
<polyline points="50.7394,54.4091 49,57.4218 47.2606,54.4091"/>
<line x1="46.9069" y1="50.8974" x2="51.0931" y2="50.8974"/>
<line x1="51.4681" y1="51.5469" x2="49.375" y2="55.1723"/>
<line x1="48.625" y1="55.1723" x2="46.5319" y2="51.5469"/>
<polyline points="47.8963,52.3101 47.5426,51.6974 48.25,51.6974"/>
<polyline points="49.75,51.6974 50.4574,51.6974 50.1037,52.3101"/>
<polyline points="49.3537,53.6091 49,54.2218 48.6463,53.6091"/>
<line x1="51.1356" y1="59.8218" x2="60.8644" y2="59.8218"/>
<line x1="61.2394" y1="59.1723" x2="56.375" y2="50.7469"/>
<line x1="55.625" y1="50.7469" x2="50.7606" y2="59.1723"/>
<polyline points="53.5106,56.0091 51.7713,59.0218 55.25,59.0218"/>
<polyline points="56.75,59.0218 60.2287,59.0218 58.4894,56.0091"/>
<polyline points="57.7394,54.7101 56,51.6974 54.2606,54.7101"/>
<line x1="53.9069" y1="58.2218" x2="58.0931" y2="58.2218"/>
<line x1="58.4681" y1="57.5723" x2="56.375" y2="53.9469"/>
<line x1="55.625" y1="53.9469" x2="53.5319" y2="57.5723"/>
<polyline points="54.8963,56.8091 54.5426,57.4218 55.25,57.4218"/>
<polyline points="56.75,57.4218 57.4574,57.4218 57.1037,56.8091"/>
<polyline points="56.3537,55.5101 56,54.8974 55.6463,55.5101"/>
<line x1="58.1356" y1="49.2974" x2="67.8644" y2="49.2974"/>
<line x1="68.2394" y1="49.9469" x2="63.375" y2="58.3723"/>
<line x1="62.625" y1="58.3723" x2="57.7606" y2="49.9469"/>
<polyline points="60.5106,53.1101 58.7713,50.0974 62.25,50.0974"/>
<polyline points="63.75,50.0974 67.2287,50.0974 65.4894,53.1101"/>
<polyline points="64.7394,54.4091 63,57.4218 61.2606,54.4091"/>
<line x1="60.9069" y1="50.8974" x2="65.0931" y2="50.8974"/>
<line x1="65.4681" y1="51.5469" x2="63.375" y2="55.1723"/>
<line x1="62.625" y1="55.1723" x2="60.5319" y2="51.5469"/>
<polyline points="61.8963,52.3101 61.5426,51.6974 62.25,51.6974"/>
<polyline points="63.75,51.6974 64.4574,51.6974 64.1037,52.3101"/>
<polyline points="63.3537,53.6091 63,54.2218 62.6463,53.6091"/>
<line x1="65.1356" y1="59.8218" x2="74.8644" y2="59.8218"/>
<line x1="75.2394" y1="59.1723" x2="70.375" y2="50.7469"/>
<line x1="69.625" y1="50.7469" x2="64.7606" y2="59.1723"/>
<polyline points="67.5106,56.0091 65.7713,59.0218 69.25,59.0218"/>
<polyline points="70.75,59.0218 74.2287,59.0218 72.4894,56.0091"/>
<polyline points="71.7394,54.7101 70,51.6974 68.2606,54.7101"/>
<line x1="67.9069" y1="58.2218" x2="72.0931" y2="58.2218"/>
<line x1="72.4681" y1="57.5723" x2="70.375" y2="53.9469"/>
<line x1="69.625" y1="53.9469" x2="67.5319" y2="57.5723"/>
<polyline points="68.8963,56.8091 68.5426,57.4218 69.25,57.4218"/>
<polyline points="70.75,57.4218 71.4574,57.4218 71.1037,56.8091"/>
<polyline points="70.3537,55.5101 70,54.8974 69.6463,55.5101"/>
<line x1="72.1356" y1="49.2974" x2="81.8644" y2="49.2974"/>
<line x1="82.2394" y1="49.9469" x2="77.375" y2="58.3723"/>
<line x1="76.625" y1="58.3723" x2="71.7606" y2="49.9469"/>
<polyline points="74.5106,53.1101 72.7713,50.0974 76.25,50.0974"/>
<polyline points="77.75,50.0974 81.2287,50.0974 79.4894,53.1101"/>
<polyline points="78.7394,54.4091 77,57.4218 75.2606,54.4091"/>
<line x1="74.9069" y1="50.8974" x2="79.0931" y2="50.8974"/>
<line x1="79.4681" y1="51.5469" x2="77.375" y2="55.1723"/>
<line x1="76.625" y1="55.1723" x2="74.5319" y2="51.5469"/>
<polyline points="75.8963,52.3101 75.5426,51.6974 76.25,51.6974"/>
<polyline points="77.75,51.6974 78.4574,51.6974 78.1037,52.3101"/>
<polyline points="77.3537,53.6091 77,54.2218 76.6463,53.6091"/>
<line x1="79.1356" y1="59.8218" x2="88.8644" y2="59.8218"/>
<line x1="89.2394" y1="59.1723" x2="84.375" y2="50.7469"/>
<line x1="83.625" y1="50.7469" x2="78.7606" y2="59.1723"/>
<polyline points="81.5106,56.0091 79.7713,59.0218 83.25,59.0218"/>
<polyline points="84.75,59.0218 88.2287,59.0218 86.4894,56.0091"/>
<polyline points="85.7394,54.7101 84,51.6974 82.2606,54.7101"/>
<line x1="81.9069" y1="58.2218" x2="86.0931" y2="58.2218"/>
<line x1="86.4681" y1="57.5723" x2="84.375" y2="53.9469"/>
<line x1="83.625" y1="53.9469" x2="81.5319" y2="57.5723"/>
<polyline points="82.8963,56.8091 82.5426,57.4218 83.25,57.4218"/>
<polyline points="84.75,57.4218 85.4574,57.4218 85.1037,56.8091"/>
<polyline points="84.3537,55.5101 84,54.8974 83.6463,55.5101"/>
<line x1="86.1356" y1="49.2974" x2="95.8644" y2="49.2974"/>
<line x1="96.2394" y1="49.9469" x2="91.375" y2="58.3723"/>
<line x1="90.625" y1="58.3723" x2="85.7606" y2="49.9469"/>
<polyline points="88.5106,53.1101 86.7713,50.0974 90.25,50.0974"/>
<polyline points="91.75,50.0974 95.2287,50.0974 93.4894,53.1101"/>
<polyline points="92.7394,54.4091 91,57.4218 89.2606,54.4091"/>
<line x1="88.9069" y1="50.8974" x2="93.0931" y2="50.8974"/>
<line x1="93.4681" y1="51.5469" x2="91.375" y2="55.1723"/>
<line x1="90.625" y1="55.1723" x2="88.5319" y2="51.5469"/>
<polyline points="89.8963,52.3101 89.5426,51.6974 90.25,51.6974"/>
<polyline points="91.75,51.6974 92.4574,51.6974 92.1037,52.3101"/>
<polyline points="91.3537,53.6091 91,54.2218 90.6463,53.6091"/>
<line x1="93.1356" y1="59.8218" x2="102.8644" y2="59.8218"/>
<line x1="103.2394" y1="59.1723" x2="98.375" y2="50.7469"/>
<line x1="97.625" y1="50.7469" x2="92.7606" y2="59.1723"/>
<polyline points="95.5106,56.0091 93.7713,59.0218 97.25,59.0218"/>
<polyline points="98.75,59.0218 102.2287,59.0218 100.4894,56.0091"/>
<polyline points="99.7394,54.7101 98,51.6974 96.2606,54.7101"/>
<line x1="95.9069" y1="58.2218" x2="100.0931" y2="58.2218"/>
<line x1="100.4681" y1="57.5723" x2="98.375" y2="53.9469"/>
<line x1="97.625" y1="53.9469" x2="95.5319" y2="57.5723"/>
<polyline points="96.8963,56.8091 96.5426,57.4218 97.25,57.4218"/>
<polyline points="98.75,57.4218 99.4574,57.4218 99.1037,56.8091"/>
<polyline points="98.3537,55.5101 98,54.8974 97.6463,55.5101"/>
<line x1="100.1356" y1="49.2974" x2="109.8644" y2="49.2974"/>
<line x1="110.2394" y1="49.9469" x2="105.375" y2="58.3723"/>
<line x1="104.625" y1="58.3723" x2="99.7606" y2="49.9469"/>
<polyline points="102.5106,53.1101 100.7713,50.0974 104.25,50.0974"/>
<polyline points="105.75,50.0974 109.2287,50.0974 107.4894,53.1101"/>
<polyline points="106.7394,54.4091 105,57.4218 103.2606,54.4091"/>
<line x1="102.9069" y1="50.8974" x2="107.0931" y2="50.8974"/>
<line x1="107.4681" y1="51.5469" x2="105.375" y2="55.1723"/>
<line x1="104.625" y1="55.1723" x2="102.5319" y2="51.5469"/>
<polyline points="103.8963,52.3101 103.5426,51.6974 104.25,51.6974"/>
<polyline points="105.75,51.6974 106.4574,51.6974 106.1037,52.3101"/>
<polyline points="105.3537,53.6091 105,54.2218 104.6463,53.6091"/>
<line x1="107.1356" y1="59.8218" x2="116.8644" y2="59.8218"/>
<line x1="117.2394" y1="59.1723" x2="112.375" y2="50.7469"/>
<line x1="111.625" y1="50.7469" x2="106.7606" y2="59.1723"/>
<polyline points="109.5106,56.0091 107.7713,59.0218 111.25,59.0218"/>
<polyline points="112.75,59.0218 116.2287,59.0218 114.4894,56.0091"/>
<polyline points="113.7394,54.7101 112,51.6974 110.2606,54.7101"/>
<line x1="109.9069" y1="58.2218" x2="114.0931" y2="58.2218"/>
<line x1="114.4681" y1="57.5723" x2="112.375" y2="53.9469"/>
<line x1="111.625" y1="53.9469" x2="109.5319" y2="57.5723"/>
<polyline points="110.8963,56.8091 110.5426,57.4218 111.25,57.4218"/>
<polyline points="112.75,57.4218 113.4574,57.4218 113.1037,56.8091"/>
<polyline points="112.3537,55.5101 112,54.8974 111.6463,55.5101"/>
<line x1="114.1356" y1="49.2974" x2="120" y2="49.2974"/>
<line x1="120" y1="57.2897" x2="119.375" y2="58.3723"/>
<line x1="118.625" y1="58.3723" x2="113.7606" y2="49.9469"/>
<polyline points="116.5106,53.1101 114.7713,50.0974 118.25,50.0974"/>
<polyline points="120,55.6897 119,57.4218 117.2606,54.4091"/>
<line x1="116.9069" y1="50.8974" x2="120" y2="50.8974"/>
<line x1="120" y1="54.0897" x2="119.375" y2="55.1723"/>
<line x1="118.625" y1="55.1723" x2="116.5319" y2="51.5469"/>
<polyline points="117.8963,52.3101 117.5426,51.6974 118.25,51.6974"/>
<polyline points="119.3537,53.6091 119,54.2218 118.6463,53.6091"/>
<line x1="0" y1="61.4218" x2="4.8644" y2="61.4218"/>
<line x1="5.2394" y1="62.0713" x2="0.6617" y2="70"/>
<polyline points="0.75,62.2218 4.2287,62.2218 2.4894,65.2344"/>
<polyline points="1.7394,66.5335 0,69.5461 0,69.5461"/>
<line x1="0" y1="63.0218" x2="2.0931" y2="63.0218"/>
<line x1="2.4681" y1="63.6713" x2="0.375" y2="67.2966"/>
<polyline points="0.75,63.8218 1.4574,63.8218 1.1037,64.4344"/>
<polyline points="0.3537,65.7335 0,66.3461 0,66.3461"/>
<line x1="11.4908" y1="70" x2="7.375" y2="62.8713"/>
<line x1="6.625" y1="62.8713" x2="2.5092" y2="70"/>
<line x1="4.5106" y1="68.1335" x2="3.433" y2="70"/>
<line x1="10.567" y1="70" x2="9.4894" y2="68.1335"/>
<polyline points="8.7394,66.8344 7,63.8218 5.2606,66.8344"/>
<line x1="9.4681" y1="69.6966" x2="7.375" y2="66.0713"/>
<line x1="6.625" y1="66.0713" x2="4.5319" y2="69.6966"/>
<polyline points="5.8963,68.9335 5.5426,69.5461 6.25,69.5461"/>
<polyline points="7.75,69.5461 8.4574,69.5461 8.1037,68.9335"/>
<polyline points="7.3537,67.6344 7,67.0218 6.6463,67.6344"/>
<line x1="9.1356" y1="61.4218" x2="18.8644" y2="61.4218"/>
<line x1="19.2394" y1="62.0713" x2="14.6617" y2="70"/>
<line x1="13.3383" y1="70" x2="8.7606" y2="62.0713"/>
<polyline points="11.5106,65.2344 9.7713,62.2218 13.25,62.2218"/>
<polyline points="14.75,62.2218 18.2287,62.2218 16.4894,65.2344"/>
<polyline points="15.7394,66.5335 14,69.5461 12.2606,66.5335"/>
<line x1="11.9069" y1="63.0218" x2="16.0931" y2="63.0218"/>
<line x1="16.4681" y1="63.6713" x2="14.375" y2="67.2966"/>
<line x1="13.625" y1="67.2966" x2="11.5319" y2="63.6713"/>
<polyline points="12.8963,64.4344 12.5426,63.8218 13.25,63.8218"/>
<polyline points="14.75,63.8218 15.4574,63.8218 15.1037,64.4344"/>
<polyline points="14.3537,65.7335 14,66.3461 13.6463,65.7335"/>
<line x1="25.4908" y1="70" x2="21.375" y2="62.8713"/>
<line x1="20.625" y1="62.8713" x2="16.5092" y2="70"/>
<line x1="18.5106" y1="68.1335" x2="17.433" y2="70"/>
<line x1="24.567" y1="70" x2="23.4894" y2="68.1335"/>
<polyline points="22.7394,66.8344 21,63.8218 19.2606,66.8344"/>
<line x1="23.4681" y1="69.6966" x2="21.375" y2="66.0713"/>
<line x1="20.625" y1="66.0713" x2="18.5319" y2="69.6966"/>
<polyline points="19.8963,68.9335 19.5426,69.5461 20.25,69.5461"/>
<polyline points="21.75,69.5461 22.4574,69.5461 22.1037,68.9335"/>
<polyline points="21.3537,67.6344 21,67.0218 20.6463,67.6344"/>
<line x1="23.1356" y1="61.4218" x2="32.8644" y2="61.4218"/>
<line x1="33.2394" y1="62.0713" x2="28.6617" y2="70"/>
<line x1="27.3383" y1="70" x2="22.7606" y2="62.0713"/>
<polyline points="25.5106,65.2344 23.7713,62.2218 27.25,62.2218"/>
<polyline points="28.75,62.2218 32.2287,62.2218 30.4894,65.2344"/>
<polyline points="29.7394,66.5335 28,69.5461 26.2606,66.5335"/>
<line x1="25.9069" y1="63.0218" x2="30.0931" y2="63.0218"/>
<line x1="30.4681" y1="63.6713" x2="28.375" y2="67.2966"/>
<line x1="27.625" y1="67.2966" x2="25.5319" y2="63.6713"/>
<polyline points="26.8963,64.4344 26.5426,63.8218 27.25,63.8218"/>
<polyline points="28.75,63.8218 29.4574,63.8218 29.1037,64.4344"/>
<polyline points="28.3537,65.7335 28,66.3461 27.6463,65.7335"/>
<line x1="39.4908" y1="70" x2="35.375" y2="62.8713"/>
<line x1="34.625" y1="62.8713" x2="30.5092" y2="70"/>
<line x1="32.5106" y1="68.1335" x2="31.433" y2="70"/>
<line x1="38.567" y1="70" x2="37.4894" y2="68.1335"/>
<polyline points="36.7394,66.8344 35,63.8218 33.2606,66.8344"/>
<line x1="37.4681" y1="69.6966" x2="35.375" y2="66.0713"/>
<line x1="34.625" y1="66.0713" x2="32.5319" y2="69.6966"/>
<polyline points="33.8963,68.9335 33.5426,69.5461 34.25,69.5461"/>
<polyline points="35.75,69.5461 36.4574,69.5461 36.1037,68.9335"/>
<polyline points="35.3537,67.6344 35,67.0218 34.6463,67.6344"/>
<line x1="37.1356" y1="61.4218" x2="46.8644" y2="61.4218"/>
<line x1="47.2394" y1="62.0713" x2="42.6617" y2="70"/>
<line x1="41.3383" y1="70" x2="36.7606" y2="62.0713"/>
<polyline points="39.5106,65.2344 37.7713,62.2218 41.25,62.2218"/>
<polyline points="42.75,62.2218 46.2287,62.2218 44.4894,65.2344"/>
<polyline points="43.7394,66.5335 42,69.5461 40.2606,66.5335"/>
<line x1="39.9069" y1="63.0218" x2="44.0931" y2="63.0218"/>
<line x1="44.4681" y1="63.6713" x2="42.375" y2="67.2966"/>
<line x1="41.625" y1="67.2966" x2="39.5319" y2="63.6713"/>
<polyline points="40.8963,64.4344 40.5426,63.8218 41.25,63.8218"/>
<polyline points="42.75,63.8218 43.4574,63.8218 43.1037,64.4344"/>
<polyline points="42.3537,65.7335 42,66.3461 41.6463,65.7335"/>
<line x1="53.4908" y1="70" x2="49.375" y2="62.8713"/>
<line x1="48.625" y1="62.8713" x2="44.5092" y2="70"/>
<line x1="46.5106" y1="68.1335" x2="45.433" y2="70"/>
<line x1="52.567" y1="70" x2="51.4894" y2="68.1335"/>
<polyline points="50.7394,66.8344 49,63.8218 47.2606,66.8344"/>
<line x1="51.4681" y1="69.6966" x2="49.375" y2="66.0713"/>
<line x1="48.625" y1="66.0713" x2="46.5319" y2="69.6966"/>
<polyline points="47.8963,68.9335 47.5426,69.5461 48.25,69.5461"/>
<polyline points="49.75,69.5461 50.4574,69.5461 50.1037,68.9335"/>
<polyline points="49.3537,67.6344 49,67.0218 48.6463,67.6344"/>
<line x1="51.1356" y1="61.4218" x2="60.8644" y2="61.4218"/>
<line x1="61.2394" y1="62.0713" x2="56.6617" y2="70"/>
<line x1="55.3383" y1="70" x2="50.7606" y2="62.0713"/>
<polyline points="53.5106,65.2344 51.7713,62.2218 55.25,62.2218"/>
<polyline points="56.75,62.2218 60.2287,62.2218 58.4894,65.2344"/>
<polyline points="57.7394,66.5335 56,69.5461 54.2606,66.5335"/>
<line x1="53.9069" y1="63.0218" x2="58.0931" y2="63.0218"/>
<line x1="58.4681" y1="63.6713" x2="56.375" y2="67.2966"/>
<line x1="55.625" y1="67.2966" x2="53.5319" y2="63.6713"/>
<polyline points="54.8963,64.4344 54.5426,63.8218 55.25,63.8218"/>
<polyline points="56.75,63.8218 57.4574,63.8218 57.1037,64.4344"/>
<polyline points="56.3537,65.7335 56,66.3461 55.6463,65.7335"/>
<line x1="67.4908" y1="70" x2="63.375" y2="62.8713"/>
<line x1="62.625" y1="62.8713" x2="58.5092" y2="70"/>
<line x1="60.5106" y1="68.1335" x2="59.433" y2="70"/>
<line x1="66.567" y1="70" x2="65.4894" y2="68.1335"/>
<polyline points="64.7394,66.8344 63,63.8218 61.2606,66.8344"/>
<line x1="65.4681" y1="69.6966" x2="63.375" y2="66.0713"/>
<line x1="62.625" y1="66.0713" x2="60.5319" y2="69.6966"/>
<polyline points="61.8963,68.9335 61.5426,69.5461 62.25,69.5461"/>
<polyline points="63.75,69.5461 64.4574,69.5461 64.1037,68.9335"/>
<polyline points="63.3537,67.6344 63,67.0218 62.6463,67.6344"/>
<line x1="65.1356" y1="61.4218" x2="74.8644" y2="61.4218"/>
<line x1="75.2394" y1="62.0713" x2="70.6617" y2="70"/>
<line x1="69.3383" y1="70" x2="64.7606" y2="62.0713"/>
<polyline points="67.5106,65.2344 65.7713,62.2218 69.25,62.2218"/>
<polyline points="70.75,62.2218 74.2287,62.2218 72.4894,65.2344"/>
<polyline points="71.7394,66.5335 70,69.5461 68.2606,66.5335"/>
<line x1="67.9069" y1="63.0218" x2="72.0931" y2="63.0218"/>
<line x1="72.4681" y1="63.6713" x2="70.375" y2="67.2966"/>
<line x1="69.625" y1="67.2966" x2="67.5319" y2="63.6713"/>
<polyline points="68.8963,64.4344 68.5426,63.8218 69.25,63.8218"/>
<polyline points="70.75,63.8218 71.4574,63.8218 71.1037,64.4344"/>
<polyline points="70.3537,65.7335 70,66.3461 69.6463,65.7335"/>
<line x1="81.4908" y1="70" x2="77.375" y2="62.8713"/>
<line x1="76.625" y1="62.8713" x2="72.5092" y2="70"/>
<line x1="74.5106" y1="68.1335" x2="73.433" y2="70"/>
<line x1="80.567" y1="70" x2="79.4894" y2="68.1335"/>
<polyline points="78.7394,66.8344 77,63.8218 75.2606,66.8344"/>
<line x1="79.4681" y1="69.6966" x2="77.375" y2="66.0713"/>
<line x1="76.625" y1="66.0713" x2="74.5319" y2="69.6966"/>
<polyline points="75.8963,68.9335 75.5426,69.5461 76.25,69.5461"/>
<polyline points="77.75,69.5461 78.4574,69.5461 78.1037,68.9335"/>
<polyline points="77.3537,67.6344 77,67.0218 76.6463,67.6344"/>
<line x1="79.1356" y1="61.4218" x2="88.8644" y2="61.4218"/>
<line x1="89.2394" y1="62.0713" x2="84.6617" y2="70"/>
<line x1="83.3383" y1="70" x2="78.7606" y2="62.0713"/>
<polyline points="81.5106,65.2344 79.7713,62.2218 83.25,62.2218"/>
<polyline points="84.75,62.2218 88.2287,62.2218 86.4894,65.2344"/>
<polyline points="85.7394,66.5335 84,69.5461 82.2606,66.5335"/>
<line x1="81.9069" y1="63.0218" x2="86.0931" y2="63.0218"/>
<line x1="86.4681" y1="63.6713" x2="84.375" y2="67.2966"/>
<line x1="83.625" y1="67.2966" x2="81.5319" y2="63.6713"/>
<polyline points="82.8963,64.4344 82.5426,63.8218 83.25,63.8218"/>
<polyline points="84.75,63.8218 85.4574,63.8218 85.1037,64.4344"/>
<polyline points="84.3537,65.7335 84,66.3461 83.6463,65.7335"/>
<line x1="95.4908" y1="70" x2="91.375" y2="62.8713"/>
<line x1="90.625" y1="62.8713" x2="86.5092" y2="70"/>
<line x1="88.5106" y1="68.1335" x2="87.433" y2="70"/>
<line x1="94.567" y1="70" x2="93.4894" y2="68.1335"/>
<polyline points="92.7394,66.8344 91,63.8218 89.2606,66.8344"/>
<line x1="93.4681" y1="69.6966" x2="91.375" y2="66.0713"/>
<line x1="90.625" y1="66.0713" x2="88.5319" y2="69.6966"/>
<polyline points="89.8963,68.9335 89.5426,69.5461 90.25,69.5461"/>
<polyline points="91.75,69.5461 92.4574,69.5461 92.1037,68.9335"/>
<polyline points="91.3537,67.6344 91,67.0218 90.6463,67.6344"/>
<line x1="93.1356" y1="61.4218" x2="102.8644" y2="61.4218"/>
<line x1="103.2394" y1="62.0713" x2="98.6617" y2="70"/>
<line x1="97.3383" y1="70" x2="92.7606" y2="62.0713"/>
<polyline points="95.5106,65.2344 93.7713,62.2218 97.25,62.2218"/>
<polyline points="98.75,62.2218 102.2287,62.2218 100.4894,65.2344"/>
<polyline points="99.7394,66.5335 98,69.5461 96.2606,66.5335"/>
<line x1="95.9069" y1="63.0218" x2="100.0931" y2="63.0218"/>
<line x1="100.4681" y1="63.6713" x2="98.375" y2="67.2966"/>
<line x1="97.625" y1="67.2966" x2="95.5319" y2="63.6713"/>
<polyline points="96.8963,64.4344 96.5426,63.8218 97.25,63.8218"/>
<polyline points="98.75,63.8218 99.4574,63.8218 99.1037,64.4344"/>
<polyline points="98.3537,65.7335 98,66.3461 97.6463,65.7335"/>
<line x1="109.4908" y1="70" x2="105.375" y2="62.8713"/>
<line x1="104.625" y1="62.8713" x2="100.5092" y2="70"/>
<line x1="102.5106" y1="68.1335" x2="101.433" y2="70"/>
<line x1="108.567" y1="70" x2="107.4894" y2="68.1335"/>
<polyline points="106.7394,66.8344 105,63.8218 103.2606,66.8344"/>
<line x1="107.4681" y1="69.6966" x2="105.375" y2="66.0713"/>
<line x1="104.625" y1="66.0713" x2="102.5319" y2="69.6966"/>
<polyline points="103.8963,68.9335 103.5426,69.5461 104.25,69.5461"/>
<polyline points="105.75,69.5461 106.4574,69.5461 106.1037,68.9335"/>
<polyline points="105.3537,67.6344 105,67.0218 104.6463,67.6344"/>
<line x1="107.1356" y1="61.4218" x2="116.8644" y2="61.4218"/>
<line x1="117.2394" y1="62.0713" x2="112.6617" y2="70"/>
<line x1="111.3383" y1="70" x2="106.7606" y2="62.0713"/>
<polyline points="109.5106,65.2344 107.7713,62.2218 111.25,62.2218"/>
<polyline points="112.75,62.2218 116.2287,62.2218 114.4894,65.2344"/>
<polyline points="113.7394,66.5335 112,69.5461 110.2606,66.5335"/>
<line x1="109.9069" y1="63.0218" x2="114.0931" y2="63.0218"/>
<line x1="114.4681" y1="63.6713" x2="112.375" y2="67.2966"/>
<line x1="111.625" y1="67.2966" x2="109.5319" y2="63.6713"/>
<polyline points="110.8963,64.4344 110.5426,63.8218 111.25,63.8218"/>
<polyline points="112.75,63.8218 113.4574,63.8218 113.1037,64.4344"/>
<polyline points="112.3537,65.7335 112,66.3461 111.6463,65.7335"/>
<line x1="120" y1="63.9538" x2="119.375" y2="62.8713"/>
<line x1="118.625" y1="62.8713" x2="114.5092" y2="70"/>
<line x1="116.5106" y1="68.1335" x2="115.433" y2="70"/>
<polyline points="120,65.5538 119,63.8218 117.2606,66.8344"/>
<line x1="120" y1="67.1538" x2="119.375" y2="66.0713"/>
<line x1="118.625" y1="66.0713" x2="116.5319" y2="69.6966"/>
<polyline points="117.8963,68.9335 117.5426,69.5461 118.25,69.5461"/>
<polyline points="119.3537,67.6344 119,67.0218 118.6463,67.6344"/>
<polyline points="0,0 120,0 120,70 0,70 0,0"/>
</g>
</svg>