0
SECTION
2
HEADER
9
$ACADVER
1
AC1009
9
$INSUNITS
70
4
0
ENDSEC
0
SECTION
2
TABLES
0
TABLE
2
LAYER
70
1
0
LAYER
2
CUT
70
0
62
1
6
CONTINUOUS
0
ENDTAB
0
ENDSEC
0
SECTION
2
ENTITIES
0
POLYLINE
8
CUT
66
1
70
0
0
VERTEX
8
CUT
10
0
20
60
0
VERTEX
8
CUT
10
0
20
60
0
VERTEX
8
CUT
10
1
20
60.0408
0
VERTEX
8
CUT
10
2
20
60.1633
0
VERTEX
8
CUT
10
3
20
60.3673
0
VERTEX
8
CUT
10
4
20
60.6531
0
VERTEX
8
CUT
10
5
20
61.0204
0
VERTEX
8
CUT
10
6
20
61.4694
0
VERTEX
8
CUT
10
7
20
62
0
SEQEND
0
POLYLINE
8
CUT
66
1
70
0
0
VERTEX
8
CUT
10
10
20
62
0
VERTEX
8
CUT
10
11
20
61.4694
0
VERTEX
8
CUT
10
12
20
61.0204
0
VERTEX
8
CUT
10
13
20
60.6531
0
VERTEX
8
CUT
10
14
20
60.3673
0
VERTEX
8
CUT
10
15
20
60.1633
0
VERTEX
8
CUT
10
16
20
60.0408
0
VERTEX
8
CUT
10
17
20
60
0
VERTEX
8
CUT
10
18
20
60.0408
0
VERTEX
8
CUT
10
19
20
60.1633
0
VERTEX
8
CUT
10
20
20
60.3673
0
VERTEX
8
CUT
10
21
20
60.6531
0
VERTEX
8
CUT
10
22
20
61.0204
0
VERTEX
8
CUT
10
23
20
61.4694
0
VERTEX
8
CUT
10
24
20
62
0
SEQEND
0
POLYLINE
8
CUT
66
1
70
0
0
VERTEX
8
CUT
10
27
20
62
0
VERTEX
8
CUT
10
28
20
61.4694
0
VERTEX
8
CUT
10
29
20
61.0204
0
VERTEX
8
CUT
10
30
20
60.6531
0
VERTEX
8
CUT
10
31
20
60.3673
0
VERTEX
8
CUT
10
32
20
60.1633
0
VERTEX
8
CUT
10
33
20
60.0408
0
VERTEX
8
CUT
10
34
20
60
0
VERTEX
8
CUT
10
35
20
60.0408
0
VERTEX
8
CUT
10
36
20
60.1633
0
VERTEX
8
CUT
10
37
20
60.3673
0
VERTEX
8
CUT
10
38
20
60.6531
0
VERTEX
8
CUT
10
39
20
61.0204
0
VERTEX
8
CUT
10
40
20
61.4694
0
VERTEX
8
CUT
10
41
20
62
0
SEQEND
0
POLYLINE
8
CUT
66
1
70
0
0
VERTEX
8
CUT
10
44
20
62
0
VERTEX
8
CUT
10
45
20
61.4694
0
VERTEX
8
CUT
10
46
20
61.0204
0
VERTEX
8
CUT
10
47
20
60.6531
0
VERTEX
8
CUT
10
48
20
60.3673
0
VERTEX
8
CUT
10
49
20
60.1633
0
VERTEX
8
CUT
10
50
20
60.0408
0
VERTEX
8
CUT
10
51
20
60
0
VERTEX
8
CUT
10
52
20
60.0408
0
VERTEX
8
CUT
10
53
20
60.1633
0
VERTEX
8
CUT
10
54
20
60.3673
0
VERTEX
8
CUT
10
55
20
60.6531
0
VERTEX
8
CUT
10
56
20
61.0204
0
VERTEX
8
CUT
10
57
20
61.4694
0
VERTEX
8
CUT
10
58
20
62
0
SEQEND
0
POLYLINE
8
CUT
66
1
70
0
0
VERTEX
8
CUT
10
61
20
62
0
VERTEX
8
CUT
10
62
20
61.4694
0
VERTEX
8
CUT
10
63
20
61.0204
0
VERTEX
8
CUT
10
64
20
60.6531
0
VERTEX
8
CUT
10
65
20
60.3673
0
VERTEX
8
CUT
10
66
20
60.1633
0
VERTEX
8
CUT
10
67
20
60.0408
0
VERTEX
8
CUT
10
68
20
60
0
VERTEX
8
CUT
10
69
20
60.0408
0
VERTEX
8
CUT
10
70
20
60.1633
0
VERTEX
8
CUT
10
71
20
60.3673
0
VERTEX
8
CUT
10
72
20
60.6531
0
VERTEX
8
CUT
10
73
20
61.0204
0
VERTEX
8
CUT
10
74
20
61.4694
0
VERTEX
8
CUT
10
75
20
62
0
SEQEND
0
POLYLINE
8
CUT
66
1
70
0
0
VERTEX
8
CUT
10
78
20
62
0
VERTEX
8
CUT
10
79
20
61.4694
0
VERTEX
8
CUT
10
80
20
61.0204
0
VERTEX
8
CUT
10
81
20
60.6531
0
VERTEX
8
CUT
10
82
20
60.3673
0
VERTEX
8
CUT
10
83
20
60.1633
0
VERTEX
8
CUT
10
84
20
60.0408
0
VERTEX
8
CUT
10
85
20
60
0
VERTEX
8
CUT
10
86
20
60.0408
0
VERTEX
8
CUT
10
87
20
60.1633
0
VERTEX
8
CUT
10
88
20
60.3673
0
VERTEX
8
CUT
10
89
20
60.6531
0
VERTEX
8
CUT
10
90
20
61.0204
0
VERTEX
8
CUT
10
91
20
61.4694
0
VERTEX
8
CUT
10
92
20
62
0
SEQEND
0
POLYLINE
8
CUT
66
1
70
0
0
VERTEX
8
CUT
10
95
20
62
0
VERTEX
8
CUT
10
96
20
61.4694
0
VERTEX
8
CUT
10
97
20
61.0204
0
VERTEX
8
CUT
10
98
20
60.6531
0
VERTEX
8
CUT
10
99
20
60.3673
0
VERTEX
8
CUT
10
100
20
60.1633
0
VERTEX
8
CUT
10
101
20
60.0408
0
VERTEX
8
CUT
10
102
20
60
0
VERTEX
8
CUT
10
103
20
60.0408
0
VERTEX
8
CUT
10
104
20
60.1633
0
VERTEX
8
CUT
10
105
20
60.3673
0
VERTEX
8
CUT
10
106
20
60.6531
0
VERTEX
8
CUT
10
107
20
61.0204
0
VERTEX
8
CUT
10
108
20
61.4694
0
VERTEX
8
CUT
10
109
20
62
0
SEQEND
0
POLYLINE
8
CUT
66
1
70
0
0
VERTEX
8
CUT
10
112
20
62
0
VERTEX
8
CUT
10
113
20
61.4694
0
VERTEX
8
CUT
10
114
20
61.0204
0
VERTEX
8
CUT
10
115
20
60.6531
0
VERTEX
8
CUT
10
116
20
60.3673
0
VERTEX
8
CUT
10
117
20
60.1633
0
VERTEX
8
CUT
10
118
20
60.0408
0
VERTEX
8
CUT
10
119
20
60
0
VERTEX
8
CUT
10
120
20
60.0408
0
VERTEX
8
CUT
10
120
20
60.0408
0
SEQEND
0
POLYLINE
8
CUT
66
1
70
0
0
VERTEX
8
CUT
10
1.5
20
53
0
VERTEX
8
CUT
10
2.5
20
53.5306
0
VERTEX
8
CUT
10
3.5
20
53.9796
0
VERTEX
8
CUT
10
4.5
20
54.3469
0
VERTEX
8
CUT
10
5.5
20
54.6327
0
VERTEX
8
CUT
10
6.5
20
54.8367
0
VERTEX
8
CUT
10
7.5
20
54.9592
0
VERTEX
8
CUT
10
8.5
20
55
0
VERTEX
8
CUT
10
9.5
20
54.9592
0
VERTEX
8
CUT
10
10.5
20
54.8367
0
VERTEX
8
CUT
10
11.5
20
54.6327
0
VERTEX
8
CUT
10
12.5
20
54.3469
0
VERTEX
8
CUT
10
13.5
20
53.9796
0
VERTEX
8
CUT
10
14.5
20
53.5306
0
VERTEX
8
CUT
10
15.5
20
53
0
SEQEND
0
POLYLINE
8
CUT
66
1
70
0
0
VERTEX
8
CUT
10
18.5
20
53
0
VERTEX
8
CUT
10
19.5
20
53.5306
0
VERTEX
8
CUT
10
20.5
20
53.9796
0
VERTEX
8
CUT
10
21.5
20
54.3469
0
VERTEX
8
CUT
10
22.5
20
54.6327
0
VERTEX
8
CUT
10
23.5
20
54.8367
0
VERTEX
8
CUT
10
24.5
20
54.9592
0
VERTEX
8
CUT
10
25.5
20
55
0
VERTEX
8
CUT
10
26.5
20
54.9592
0
VERTEX
8
CUT
10
27.5
20
54.8367
0
VERTEX
8
CUT
10
28.5
20
54.6327
0
VERTEX
8
CUT
10
29.5
20
54.3469
0
VERTEX
8
CUT
10
30.5
20
53.9796
0
VERTEX
8
CUT
10
31.5
20
53.5306
0
VERTEX
8
CUT
10
32.5
20
53
0
SEQEND
0
POLYLINE
8
CUT
66
1
70
0
0
VERTEX
8
CUT
10
35.5
20
53
0
VERTEX
8
CUT
10
36.5
20
53.5306
0
VERTEX
8
CUT
10
37.5
20
53.9796
0
VERTEX
8
CUT
10
38.5
20
54.3469
0
VERTEX
8
CUT
10
39.5
20
54.6327
0
VERTEX
8
CUT
10
40.5
20
54.8367
0
VERTEX
8
CUT
10
41.5
20
54.9592
0
VERTEX
8
CUT
10
42.5
20
55
0
VERTEX
8
CUT
10
43.5
20
54.9592
0
VERTEX
8
CUT
10
44.5
20
54.8367
0
VERTEX
8
CUT
10
45.5
20
54.6327
0
VERTEX
8
CUT
10
46.5
20
54.3469
0
VERTEX
8
CUT
10
47.5
20
53.9796
0
VERTEX
8
CUT
10
48.5
20
53.5306
0
VERTEX
8
CUT
10
49.5
20
53
0
SEQEND
0
POLYLINE
8
CUT
66
1
70
0
0
VERTEX
8
CUT
10
52.5
20
53
0
VERTEX
8
CUT
10
53.5
20
53.5306
0
VERTEX
8
CUT
10
54.5
20
53.9796
0
VERTEX
8
CUT
10
55.5
20
54.3469
0
VERTEX
8
CUT
10
56.5
20
54.6327
0
VERTEX
8
CUT
10
57.5
20
54.8367
0
VERTEX
8
CUT
10
58.5
20
54.9592
0
VERTEX
8
CUT
10
59.5
20
55
0
VERTEX
8
CUT
10
60.5
20
54.9592
0
VERTEX
8
CUT
10
61.5
20
54.8367
0
VERTEX
8
CUT
10
62.5
20
54.6327
0
VERTEX
8
CUT
10
63.5
20
54.3469
0
VERTEX
8
CUT
10
64.5
20
53.9796
0
VERTEX
8
CUT
10
65.5
20
53.5306
0
VERTEX
8
CUT
10
66.5
20
53
0
SEQEND
0
POLYLINE
8
CUT
66
1
70
0
0
VERTEX
8
CUT
10
69.5
20
53
0
VERTEX
8
CUT
10
70.5
20
53.5306
0
VERTEX
8
CUT
10
71.5
20
53.9796
0
VERTEX
8
CUT
10
72.5
20
54.3469
0
VERTEX
8
CUT
10
73.5
20
54.6327
0
VERTEX
8
CUT
10
74.5
20
54.8367
0
VERTEX
8
CUT
10
75.5
20
54.9592
0
VERTEX
8
CUT
10
76.5
20
55
0
VERTEX
8
CUT
10
77.5
20
54.9592
0
VERTEX
8
CUT
10
78.5
20
54.8367
0
VERTEX
8
CUT
10
79.5
20
54.6327
0
VERTEX
8
CUT
10
80.5
20
54.3469
0
VERTEX
8
CUT
10
81.5
20
53.9796
0
VERTEX
8
CUT
10
82.5
20
53.5306
0
VERTEX
8
CUT
10
83.5
20
53
0
SEQEND
0
POLYLINE
8
CUT
66
1
70
0
0
VERTEX
8
CUT
10
86.5
20
53
0
VERTEX
8
CUT
10
87.5
20
53.5306
0
VERTEX
8
CUT
10
88.5
20
53.9796
0
VERTEX
8
CUT
10
89.5
20
54.3469
0
VERTEX
8
CUT
10
90.5
20
54.6327
0
VERTEX
8
CUT
10
91.5
20
54.8367
0
VERTEX
8
CUT
10
92.5
20
54.9592
0
VERTEX
8
CUT
10
93.5
20
55
0
VERTEX
8
CUT
10
94.5
20
54.9592
0
VERTEX
8
CUT
10
95.5
20
54.8367
0
VERTEX
8
CUT
10
96.5
20
54.6327
0
VERTEX
8
CUT
10
97.5
20
54.3469
0
VERTEX
8
CUT
10
98.5
20
53.9796
0
VERTEX
8
CUT
10
99.5
20
53.5306
0
VERTEX
8
CUT
10
100.5
20
53
0
SEQEND
0
POLYLINE
8
CUT
66
1
70
0
0
VERTEX
8
CUT
10
103.5
20
53
0
VERTEX
8
CUT
10
104.5
20
53.5306
0
VERTEX
8
CUT
10
105.5
20
53.9796
0
VERTEX
8
CUT
10
106.5
20
54.3469
0
VERTEX
8
CUT
10
107.5
20
54.6327
0
VERTEX
8
CUT
10
108.5
20
54.8367
0
VERTEX
8
CUT
10
109.5
20
54.9592
0
VERTEX
8
CUT
10
110.5
20
55
0
VERTEX
8
CUT
10
111.5
20
54.9592
0
VERTEX
8
CUT
10
112.5
20
54.8367
0
VERTEX
8
CUT
10
113.5
20
54.6327
0
VERTEX
8
CUT
10
114.5
20
54.3469
0
VERTEX
8
CUT
10
115.5
20
53.9796
0
VERTEX
8
CUT
10
116.5
20
53.5306
0
VERTEX
8
CUT
10
117.5
20
53
0
SEQEND
0
POLYLINE
8
CUT
66
1
70
0
0
VERTEX
8
CUT
10
0
20
42
0
VERTEX
8
CUT
10
0
20
42
0
VERTEX
8
CUT
10
1
20
42.0408
0
VERTEX
8
CUT
10
2
20
42.1633
0
VERTEX
8
CUT
10
3
20
42.3673
0
VERTEX
8
CUT
10
4
20
42.6531
0
VERTEX
8
CUT
10
5
20
43.0204
0
VERTEX
8
CUT
10
6
20
43.4694
0
VERTEX
8
CUT
10
7
20
44
0
SEQEND
0
POLYLINE
8
CUT
66
1
70
0
0
VERTEX
8
CUT
10
10
20
44
0
VERTEX
8
CUT
10
11
20
43.4694
0
VERTEX
8
CUT
10
12
20
43.0204
0
VERTEX
8
CUT
10
13
20
42.6531
0
VERTEX
8
CUT
10
14
20
42.3673
0
VERTEX
8
CUT
10
15
20
42.1633
0
VERTEX
8
CUT
10
16
20
42.0408
0
VERTEX
8
CUT
10
17
20
42
0
VERTEX
8
CUT
10
18
20
42.0408
0
VERTEX
8
CUT
10
19
20
42.1633
0
VERTEX
8
CUT
10
20
20
42.3673
0
VERTEX
8
CUT
10
21
20
42.6531
0
VERTEX
8
CUT
10
22
20
43.0204
0
VERTEX
8
CUT
10
23
20
43.4694
0
VERTEX
8
CUT
10
24
20
44
0
SEQEND
0
POLYLINE
8
CUT
66
1
70
0
0
VERTEX
8
CUT
10
27
20
44
0
VERTEX
8
CUT
10
28
20
43.4694
0
VERTEX
8
CUT
10
29
20
43.0204
0
VERTEX
8
CUT
10
30
20
42.6531
0
VERTEX
8
CUT
10
31
20
42.3673
0
VERTEX
8
CUT
10
32
20
42.1633
0
VERTEX
8
CUT
10
33
20
42.0408
0
VERTEX
8
CUT
10
34
20
42
0
VERTEX
8
CUT
10
35
20
42.0408
0
VERTEX
8
CUT
10
36
20
42.1633
0
VERTEX
8
CUT
10
37
20
42.3673
0
VERTEX
8
CUT
10
38
20
42.6531
0
VERTEX
8
CUT
10
39
20
43.0204
0
VERTEX
8
CUT
10
40
20
43.4694
0
VERTEX
8
CUT
10
41
20
44
0
SEQEND
0
POLYLINE
8
CUT
66
1
70
0
0
VERTEX
8
CUT
10
44
20
44
0
VERTEX
8
CUT
10
45
20
43.4694
0
VERTEX
8
CUT
10
46
20
43.0204
0
VERTEX
8
CUT
10
47
20
42.6531
0
VERTEX
8
CUT
10
48
20
42.3673
0
VERTEX
8
CUT
10
49
20
42.1633
0
VERTEX
8
CUT
10
50
20
42.0408
0
VERTEX
8
CUT
10
51
20
42
0
VERTEX
8
CUT
10
52
20
42.0408
0
VERTEX
8
CUT
10
53
20
42.1633
0
VERTEX
8
CUT
10
54
20
42.3673
0
VERTEX
8
CUT
10
55
20
42.6531
0
VERTEX
8
CUT
10
56
20
43.0204
0
VERTEX
8
CUT
10
57
20
43.4694
0
VERTEX
8
CUT
10
58
20
44
0
SEQEND
0
POLYLINE
8
CUT
66
1
70
0
0
VERTEX
8
CUT
10
61
20
44
0
VERTEX
8
CUT
10
62
20
43.4694
0
VERTEX
8
CUT
10
63
20
43.0204
0
VERTEX
8
CUT
10
64
20
42.6531
0
VERTEX
8
CUT
10
65
20
42.3673
0
VERTEX
8
CUT
10
66
20
42.1633
0
VERTEX
8
CUT
10
67
20
42.0408
0
VERTEX
8
CUT
10
68
20
42
0
VERTEX
8
CUT
10
69
20
42.0408
0
VERTEX
8
CUT
10
70
20
42.1633
0
VERTEX
8
CUT
10
71
20
42.3673
0
VERTEX
8
CUT
10
72
20
42.6531
0
VERTEX
8
CUT
10
73
20
43.0204
0
VERTEX
8
CUT
10
74
20
43.4694
0
VERTEX
8
CUT
10
75
20
44
0
SEQEND
0
POLYLINE
8
CUT
66
1
70
0
0
VERTEX
8
CUT
10
78
20
44
0
VERTEX
8
CUT
10
79
20
43.4694
0
VERTEX
8
CUT
10
80
20
43.0204
0
VERTEX
8
CUT
10
81
20
42.6531
0
VERTEX
8
CUT
10
82
20
42.3673
0
VERTEX
8
CUT
10
83
20
42.1633
0
VERTEX
8
CUT
10
84
20
42.0408
0
VERTEX
8
CUT
10
85
20
42
0
VERTEX
8
CUT
10
86
20
42.0408
0
VERTEX
8
CUT
10
87
20
42.1633
0
VERTEX
8
CUT
10
88
20
42.3673
0
VERTEX
8
CUT
10
89
20
42.6531
0
VERTEX
8
CUT
10
90
20
43.0204
0
VERTEX
8
CUT
10
91
20
43.4694
0
VERTEX
8
CUT
10
92
20
44
0
SEQEND
0
POLYLINE
8
CUT
66
1
70
0
0
VERTEX
8
CUT
10
95
20
44
0
VERTEX
8
CUT
10
96
20
43.4694
0
VERTEX
8
CUT
10
97
20
43.0204
0
VERTEX
8
CUT
10
98
20
42.6531
0
VERTEX
8
CUT
10
99
20
42.3673
0
VERTEX
8
CUT
10
100
20
42.1633
0
VERTEX
8
CUT
10
101
20
42.0408
0
VERTEX
8
CUT
10
102
20
42
0
VERTEX
8
CUT
10
103
20
42.0408
0
VERTEX
8
CUT
10
104
20
42.1633
0
VERTEX
8
CUT
10
105
20
42.3673
0
VERTEX
8
CUT
10
106
20
42.6531
0
VERTEX
8
CUT
10
107
20
43.0204
0
VERTEX
8
CUT
10
108
20
43.4694
0
VERTEX
8
CUT
10
109
20
44
0
SEQEND
0
POLYLINE
8
CUT
66
1
70
0
0
VERTEX
8
CUT
10
112
20
44
0
VERTEX
8
CUT
10
113
20
43.4694
0
VERTEX
8
CUT
10
114
20
43.0204
0
VERTEX
8
CUT
10
115
20
42.6531
0
VERTEX
8
CUT
10
116
20
42.3673
0
VERTEX
8
CUT
10
117
20
42.1633
0
VERTEX
8
CUT
10
118
20
42.0408
0
VERTEX
8
CUT
10
119
20
42
0
VERTEX
8
CUT
10
120
20
42.0408
0
VERTEX
8
CUT
10
120
20
42.0408
0
SEQEND
0
POLYLINE
8
CUT
66
1
70
0
0
VERTEX
8
CUT
10
1.5
20
35
0
VERTEX
8
CUT
10
2.5
20
35.5306
0
VERTEX
8
CUT
10
3.5
20
35.9796
0
VERTEX
8
CUT
10
4.5
20
36.3469
0
VERTEX
8
CUT
10
5.5
20
36.6327
0
VERTEX
8
CUT
10
6.5
20
36.8367
0
VERTEX
8
CUT
10
7.5
20
36.9592
0
VERTEX
8
CUT
10
8.5
20
37
0
VERTEX
8
CUT
10
9.5
20
36.9592
0
VERTEX
8
CUT
10
10.5
20
36.8367
0
VERTEX
8
CUT
10
11.5
20
36.6327
0
VERTEX
8
CUT
10
12.5
20
36.3469
0
VERTEX
8
CUT
10
13.5
20
35.9796
0
VERTEX
8
CUT
10
14.5
20
35.5306
0
VERTEX
8
CUT
10
15.5
20
35
0
SEQEND
0
POLYLINE
8
CUT
66
1
70
0
0
VERTEX
8
CUT
10
18.5
20
35
0
VERTEX
8
CUT
10
19.5
20
35.5306
0
VERTEX
8
CUT
10
20.5
20
35.9796
0
VERTEX
8
CUT
10
21.5
20
36.3469
0
VERTEX
8
CUT
10
22.5
20
36.6327
0
VERTEX
8
CUT
10
23.5
20
36.8367
0
VERTEX
8
CUT
10
24.5
20
36.9592
0
VERTEX
8
CUT
10
25.5
20
37
0
VERTEX
8
CUT
10
26.5
20
36.9592
0
VERTEX
8
CUT
10
27.5
20
36.8367
0
VERTEX
8
CUT
10
28.5
20
36.6327
0
VERTEX
8
CUT
10
29.5
20
36.3469
0
VERTEX
8
CUT
10
30.5
20
35.9796
0
VERTEX
8
CUT
10
31.5
20
35.5306
0
VERTEX
8
CUT
10
32.5
20
35
0
SEQEND
0
POLYLINE
8
CUT
66
1
70
0
0
VERTEX
8
CUT
10
35.5
20
35
0
VERTEX
8
CUT
10
36.5
20
35.5306
0
VERTEX
8
CUT
10
37.5
20
35.9796
0
VERTEX
8
CUT
10
38.5
20
36.3469
0
VERTEX
8
CUT
10
39.5
20
36.6327
0
VERTEX
8
CUT
10
40.5
20
36.8367
0
VERTEX
8
CUT
10
41.5
20
36.9592
0
VERTEX
8
CUT
10
42.5
20
37
0
VERTEX
8
CUT
10
43.5
20
36.9592
0
VERTEX
8
CUT
10
44.5
20
36.8367
0
VERTEX
8
CUT
10
45.5
20
36.6327
0
VERTEX
8
CUT
10
46.5
20
36.3469
0
VERTEX
8
CUT
10
47.5
20
35.9796
0
VERTEX
8
CUT
10
48.5
20
35.5306
0
VERTEX
8
CUT
10
49.5
20
35
0
SEQEND
0
POLYLINE
8
CUT
66
1
70
0
0
VERTEX
8
CUT
10
52.5
20
35
0
VERTEX
8
CUT
10
53.5
20
35.5306
0
VERTEX
8
CUT
10
54.5
20
35.9796
0
VERTEX
8
CUT
10
55.5
20
36.3469
0
VERTEX
8
CUT
10
56.5
20
36.6327
0
VERTEX
8
CUT
10
57.5
20
36.8367
0
VERTEX
8
CUT
10
58.5
20
36.9592
0
VERTEX
8
CUT
10
59.5
20
37
0
VERTEX
8
CUT
10
60.5
20
36.9592
0
VERTEX
8
CUT
10
61.5
20
36.8367
0
VERTEX
8
CUT
10
62.5
20
36.6327
0
VERTEX
8
CUT
10
63.5
20
36.3469
0
VERTEX
8
CUT
10
64.5
20
35.9796
0
VERTEX
8
CUT
10
65.5
20
35.5306
0
VERTEX
8
CUT
10
66.5
20
35
0
SEQEND
0
POLYLINE
8
CUT
66
1
70
0
0
VERTEX
8
CUT
10
69.5
20
35
0
VERTEX
8
CUT
10
70.5
20
35.5306
0
VERTEX
8
CUT
10
71.5
20
35.9796
0
VERTEX
8
CUT
10
72.5
20
36.3469
0
VERTEX
8
CUT
10
73.5
20
36.6327
0
VERTEX
8
CUT
10
74.5
20
36.8367
0
VERTEX
8
CUT
10
75.5
20
36.9592
0
VERTEX
8
CUT
10
76.5
20
37
0
VERTEX
8
CUT
10
77.5
20
36.9592
0
VERTEX
8
CUT
10
78.5
20
36.8367
0
VERTEX
8
CUT
10
79.5
20
36.6327
0
VERTEX
8
CUT
10
80.5
20
36.3469
0
VERTEX
8
CUT
10
81.5
20
35.9796
0
VERTEX
8
CUT
10
82.5
20
35.5306
0
VERTEX
8
CUT
10
83.5
20
35
0
SEQEND
0
POLYLINE
8
CUT
66
1
70
0
0
VERTEX
8
CUT
10
86.5
20
35
0
VERTEX
8
CUT
10
87.5
20
35.5306
0
VERTEX
8
CUT
10
88.5
20
35.9796
0
VERTEX
8
CUT
10
89.5
20
36.3469
0
VERTEX
8
CUT
10
90.5
20
36.6327
0
VERTEX
8
CUT
10
91.5
20
36.8367
0
VERTEX
8
CUT
10
92.5
20
36.9592
0
VERTEX
8
CUT
10
93.5
20
37
0
VERTEX
8
CUT
10
94.5
20
36.9592
0
VERTEX
8
CUT
10
95.5
20
36.8367
0
VERTEX
8
CUT
10
96.5
20
36.6327
0
VERTEX
8
CUT
10
97.5
20
36.3469
0
VERTEX
8
CUT
10
98.5
20
35.9796
0
VERTEX
8
CUT
10
99.5
20
35.5306
0
VERTEX
8
CUT
10
100.5
20
35
0
SEQEND
0
POLYLINE
8
CUT
66
1
70
0
0
VERTEX
8
CUT
10
103.5
20
35
0
VERTEX
8
CUT
10
104.5
20
35.5306
0
VERTEX
8
CUT
10
105.5
20
35.9796
0
VERTEX
8
CUT
10
106.5
20
36.3469
0
VERTEX
8
CUT
10
107.5
20
36.6327
0
VERTEX
8
CUT
10
108.5
20
36.8367
0
VERTEX
8
CUT
10
109.5
20
36.9592
0
VERTEX
8
CUT
10
110.5
20
37
0
VERTEX
8
CUT
10
111.5
20
36.9592
0
VERTEX
8
CUT
10
112.5
20
36.8367
0
VERTEX
8
CUT
10
113.5
20
36.6327
0
VERTEX
8
CUT
10
114.5
20
36.3469
0
VERTEX
8
CUT
10
115.5
20
35.9796
0
VERTEX
8
CUT
10
116.5
20
35.5306
0
VERTEX
8
CUT
10
117.5
20
35
0
SEQEND
0
POLYLINE
8
CUT
66
1
70
0
0
VERTEX
8
CUT
10
0
20
24
0
VERTEX
8
CUT
10
0
20
24
0
VERTEX
8
CUT
10
1
20
24.0408
0
VERTEX
8
CUT
10
2
20
24.1633
0
VERTEX
8
CUT
10
3
20
24.3673
0
VERTEX
8
CUT
10
4
20
24.6531
0
VERTEX
8
CUT
10
5
20
25.0204
0
VERTEX
8
CUT
10
6
20
25.4694
0
VERTEX
8
CUT
10
7
20
26
0
SEQEND
0
POLYLINE
8
CUT
66
1
70
0
0
VERTEX
8
CUT
10
10
20
26
0
VERTEX
8
CUT
10
11
20
25.4694
0
VERTEX
8
CUT
10
12
20
25.0204
0
VERTEX
8
CUT
10
13
20
24.6531
0
VERTEX
8
CUT
10
14
20
24.3673
0
VERTEX
8
CUT
10
15
20
24.1633
0
VERTEX
8
CUT
10
16
20
24.0408
0
VERTEX
8
CUT
10
17
20
24
0
VERTEX
8
CUT
10
18
20
24.0408
0
VERTEX
8
CUT
10
19
20
24.1633
0
VERTEX
8
CUT
10
20
20
24.3673
0
VERTEX
8
CUT
10
21
20
24.6531
0
VERTEX
8
CUT
10
22
20
25.0204
0
VERTEX
8
CUT
10
23
20
25.4694
0
VERTEX
8
CUT
10
24
20
26
0
SEQEND
0
POLYLINE
8
CUT
66
1
70
0
0
VERTEX
8
CUT
10
27
20
26
0
VERTEX
8
CUT
10
28
20
25.4694
0
VERTEX
8
CUT
10
29
20
25.0204
0
VERTEX
8
CUT
10
30
20
24.6531
0
VERTEX
8
CUT
10
31
20
24.3673
0
VERTEX
8
CUT
10
32
20
24.1633
0
VERTEX
8
CUT
10
33
20
24.0408
0
VERTEX
8
CUT
10
34
20
24
0
VERTEX
8
CUT
10
35
20
24.0408
0
VERTEX
8
CUT
10
36
20
24.1633
0
VERTEX
8
CUT
10
37
20
24.3673
0
VERTEX
8
CUT
10
38
20
24.6531
0
VERTEX
8
CUT
10
39
20
25.0204
0
VERTEX
8
CUT
10
40
20
25.4694
0
VERTEX
8
CUT
10
41
20
26
0
SEQEND
0
POLYLINE
8
CUT
66
1
70
0
0
VERTEX
8
CUT
10
44
20
26
0
VERTEX
8
CUT
10
45
20
25.4694
0
VERTEX
8
CUT
10
46
20
25.0204
0
VERTEX
8
CUT
10
47
20
24.6531
0
VERTEX
8
CUT
10
48
20
24.3673
0
VERTEX
8
CUT
10
49
20
24.1633
0
VERTEX
8
CUT
10
50
20
24.0408
0
VERTEX
8
CUT
10
51
20
24
0
VERTEX
8
CUT
10
52
20
24.0408
0
VERTEX
8
CUT
10
53
20
24.1633
0
VERTEX
8
CUT
10
54
20
24.3673
0
VERTEX
8
CUT
10
55
20
24.6531
0
VERTEX
8
CUT
10
56
20
25.0204
0
VERTEX
8
CUT
10
57
20
25.4694
0
VERTEX
8
CUT
10
58
20
26
0
SEQEND
0
POLYLINE
8
CUT
66
1
70
0
0
VERTEX
8
CUT
10
61
20
26
0
VERTEX
8
CUT
10
62
20
25.4694
0
VERTEX
8
CUT
10
63
20
25.0204
0
VERTEX
8
CUT
10
64
20
24.6531
0
VERTEX
8
CUT
10
65
20
24.3673
0
VERTEX
8
CUT
10
66
20
24.1633
0
VERTEX
8
CUT
10
67
20
24.0408
0
VERTEX
8
CUT
10
68
20
24
0
VERTEX
8
CUT
10
69
20
24.0408
0
VERTEX
8
CUT
10
70
20
24.1633
0
VERTEX
8
CUT
10
71
20
24.3673
0
VERTEX
8
CUT
10
72
20
24.6531
0
VERTEX
8
CUT
10
73
20
25.0204
0
VERTEX
8
CUT
10
74
20
25.4694
0
VERTEX
8
CUT
10
75
20
26
0
SEQEND
0
POLYLINE
8
CUT
66
1
70
0
0
VERTEX
8
CUT
10
78
20
26
0
VERTEX
8
CUT
10
79
20
25.4694
0
VERTEX
8
CUT
10
80
20
25.0204
0
VERTEX
8
CUT
10
81
20
24.6531
0
VERTEX
8
CUT
10
82
20
24.3673
0
VERTEX
8
CUT
10
83
20
24.1633
0
VERTEX
8
CUT
10
84
20
24.0408
0
VERTEX
8
CUT
10
85
20
24
0
VERTEX
8
CUT
10
86
20
24.0408
0
VERTEX
8
CUT
10
87
20
24.1633
0
VERTEX
8
CUT
10
88
20
24.3673
0
VERTEX
8
CUT
10
89
20
24.6531
0
VERTEX
8
CUT
10
90
20
25.0204
0
VERTEX
8
CUT
10
91
20
25.4694
0
VERTEX
8
CUT
10
92
20
26
0
SEQEND
0
POLYLINE
8
CUT
66
1
70
0
0
VERTEX
8
CUT
10
95
20
26
0
VERTEX
8
CUT
10
96
20
25.4694
0
VERTEX
8
CUT
10
97
20
25.0204
0
VERTEX
8
CUT
10
98
20
24.6531
0
VERTEX
8
CUT
10
99
20
24.3673
0
VERTEX
8
CUT
10
100
20
24.1633
0
VERTEX
8
CUT
10
101
20
24.0408
0
VERTEX
8
CUT
10
102
20
24
0
VERTEX
8
CUT
10
103
20
24.0408
0
VERTEX
8
CUT
10
104
20
24.1633
0
VERTEX
8
CUT
10
105
20
24.3673
0
VERTEX
8
CUT
10
106
20
24.6531
0
VERTEX
8
CUT
10
107
20
25.0204
0
VERTEX
8
CUT
10
108
20
25.4694
0
VERTEX
8
CUT
10
109
20
26
0
SEQEND
0
POLYLINE
8
CUT
66
1
70
0
0
VERTEX
8
CUT
10
112
20
26
0
VERTEX
8
CUT
10
113
20
25.4694
0
VERTEX
8
CUT
10
114
20
25.0204
0
VERTEX
8
CUT
10
115
20
24.6531
0
VERTEX
8
CUT
10
116
20
24.3673
0
VERTEX
8
CUT
10
117
20
24.1633
0
VERTEX
8
CUT
10
118
20
24.0408
0
VERTEX
8
CUT
10
119
20
24
0
VERTEX
8
CUT
10
120
20
24.0408
0
VERTEX
8
CUT
10
120
20
24.0408
0
SEQEND
0
POLYLINE
8
CUT
66
1
70
0
0
VERTEX
8
CUT
10
1.5
20
17
0
VERTEX
8
CUT
10
2.5
20
17.5306
0
VERTEX
8
CUT
10
3.5
20
17.9796
0
VERTEX
8
CUT
10
4.5
20
18.3469
0
VERTEX
8
CUT
10
5.5
20
18.6327
0
VERTEX
8
CUT
10
6.5
20
18.8367
0
VERTEX
8
CUT
10
7.5
20
18.9592
0
VERTEX
8
CUT
10
8.5
20
19
0
VERTEX
8
CUT
10
9.5
20
18.9592
0
VERTEX
8
CUT
10
10.5
20
18.8367
0
VERTEX
8
CUT
10
11.5
20
18.6327
0
VERTEX
8
CUT
10
12.5
20
18.3469
0
VERTEX
8
CUT
10
13.5
20
17.9796
0
VERTEX
8
CUT
10
14.5
20
17.5306
0
VERTEX
8
CUT
10
15.5
20
17
0
SEQEND
0
POLYLINE
8
CUT
66
1
70
0
0
VERTEX
8
CUT
10
18.5
20
17
0
VERTEX
8
CUT
10
19.5
20
17.5306
0
VERTEX
8
CUT
10
20.5
20
17.9796
0
VERTEX
8
CUT
10
21.5
20
18.3469
0
VERTEX
8
CUT
10
22.5
20
18.6327
0
VERTEX
8
CUT
10
23.5
20
18.8367
0
VERTEX
8
CUT
10
24.5
20
18.9592
0
VERTEX
8
CUT
10
25.5
20
19
0
VERTEX
8
CUT
10
26.5
20
18.9592
0
VERTEX
8
CUT
10
27.5
20
18.8367
0
VERTEX
8
CUT
10
28.5
20
18.6327
0
VERTEX
8
CUT
10
29.5
20
18.3469
0
VERTEX
8
CUT
10
30.5
20
17.9796
0
VERTEX
8
CUT
10
31.5
20
17.5306
0
VERTEX
8
CUT
10
32.5
20
17
0
SEQEND
0
POLYLINE
8
CUT
66
1
70
0
0
VERTEX
8
CUT
10
35.5
20
17
0
VERTEX
8
CUT
10
36.5
20
17.5306
0
VERTEX
8
CUT
10
37.5
20
17.9796
0
VERTEX
8
CUT
10
38.5
20
18.3469
0
VERTEX
8
CUT
10
39.5
20
18.6327
0
VERTEX
8
CUT
10
40.5
20
18.8367
0
VERTEX
8
CUT
10
41.5
20
18.9592
0
VERTEX
8
CUT
10
42.5
20
19
0
VERTEX
8
CUT
10
43.5
20
18.9592
0
VERTEX
8
CUT
10
44.5
20
18.8367
0
VERTEX
8
CUT
10
45.5
20
18.6327
0
VERTEX
8
CUT
10
46.5
20
18.3469
0
VERTEX
8
CUT
10
47.5
20
17.9796
0
VERTEX
8
CUT
10
48.5
20
17.5306
0
VERTEX
8
CUT
10
49.5
20
17
0
SEQEND
0
POLYLINE
8
CUT
66
1
70
0
0
VERTEX
8
CUT
10
52.5
20
17
0
VERTEX
8
CUT
10
53.5
20
17.5306
0
VERTEX
8
CUT
10
54.5
20
17.9796
0
VERTEX
8
CUT
10
55.5
20
18.3469
0
VERTEX
8
CUT
10
56.5
20
18.6327
0
VERTEX
8
CUT
10
57.5
20
18.8367
0
VERTEX
8
CUT
10
58.5
20
18.9592
0
VERTEX
8
CUT
10
59.5
20
19
0
VERTEX
8
CUT
10
60.5
20
18.9592
0
VERTEX
8
CUT
10
61.5
20
18.8367
0
VERTEX
8
CUT
10
62.5
20
18.6327
0
VERTEX
8
CUT
10
63.5
20
18.3469
0
VERTEX
8
CUT
10
64.5
20
17.9796
0
VERTEX
8
CUT
10
65.5
20
17.5306
0
VERTEX
8
CUT
10
66.5
20
17
0
SEQEND
0
POLYLINE
8
CUT
66
1
70
0
0
VERTEX
8
CUT
10
69.5
20
17
0
VERTEX
8
CUT
10
70.5
20
17.5306
0
VERTEX
8
CUT
10
71.5
20
17.9796
0
VERTEX
8
CUT
10
72.5
20
18.3469
0
VERTEX
8
CUT
10
73.5
20
18.6327
0
VERTEX
8
CUT
10
74.5
20
18.8367
0
VERTEX
8
CUT
10
75.5
20
18.9592
0
VERTEX
8
CUT
10
76.5
20
19
0
VERTEX
8
CUT
10
77.5
20
18.9592
0
VERTEX
8
CUT
10
78.5
20
18.8367
0
VERTEX
8
CUT
10
79.5
20
18.6327
0
VERTEX
8
CUT
10
80.5
20
18.3469
0
VERTEX
8
CUT
10
81.5
20
17.9796
0
VERTEX
8
CUT
10
82.5
20
17.5306
0
VERTEX
8
CUT
10
83.5
20
17
0
SEQEND
0
POLYLINE
8
CUT
66
1
70
0
0
VERTEX
8
CUT
10
86.5
20
17
0
VERTEX
8
CUT
10
87.5
20
17.5306
0
VERTEX
8
CUT
10
88.5
20
17.9796
0
VERTEX
8
CUT
10
89.5
20
18.3469
0
VERTEX
8
CUT
10
90.5
20
18.6327
0
VERTEX
8
CUT
10
91.5
20
18.8367
0
VERTEX
8
CUT
10
92.5
20
18.9592
0
VERTEX
8
CUT
10
93.5
20
19
0
VERTEX
8
CUT
10
94.5
20
18.9592
0
VERTEX
8
CUT
10
95.5
20
18.8367
0
VERTEX
8
CUT
10
96.5
20
18.6327
0
VERTEX
8
CUT
10
97.5
20
18.3469
0
VERTEX
8
CUT
10
98.5
20
17.9796
0
VERTEX
8
CUT
10
99.5
20
17.5306
0
VERTEX
8
CUT
10
100.5
20
17
0
SEQEND
0
POLYLINE
8
CUT
66
1
70
0
0
VERTEX
8
CUT
10
103.5
20
17
0
VERTEX
8
CUT
10
104.5
20
17.5306
0
VERTEX
8
CUT
10
105.5
20
17.9796
0
VERTEX
8
CUT
10
106.5
20
18.3469
0
VERTEX
8
CUT
10
107.5
20
18.6327
0
VERTEX
8
CUT
10
108.5
20
18.8367
0
VERTEX
8
CUT
10
109.5
20
18.9592
0
VERTEX
8
CUT
10
110.5
20
19
0
VERTEX
8
CUT
10
111.5
20
18.9592
0
VERTEX
8
CUT
10
112.5
20
18.8367
0
VERTEX
8
CUT
10
113.5
20
18.6327
0
VERTEX
8
CUT
10
114.5
20
18.3469
0
VERTEX
8
CUT
10
115.5
20
17.9796
0
VERTEX
8
CUT
10
116.5
20
17.5306
0
VERTEX
8
CUT
10
117.5
20
17
0
SEQEND
0
POLYLINE
8
CUT
66
1
70
0
0
VERTEX
8
CUT
10
0
20
6
0
VERTEX
8
CUT
10
0
20
6
0
VERTEX
8
CUT
10
1
20
6.0408
0
VERTEX
8
CUT
10
2
20
6.1633
0
VERTEX
8
CUT
10
3
20
6.3673
0
VERTEX
8
CUT
10
4
20
6.6531
0
VERTEX
8
CUT
10
5
20
7.0204
0
VERTEX
8
CUT
10
6
20
7.4694
0
VERTEX
8
CUT
10
7
20
8
0
SEQEND
0
POLYLINE
8
CUT
66
1
70
0
0
VERTEX
8
CUT
10
10
20
8
0
VERTEX
8
CUT
10
11
20
7.4694
0
VERTEX
8
CUT
10
12
20
7.0204
0
VERTEX
8
CUT
10
13
20
6.6531
0
VERTEX
8
CUT
10
14
20
6.3673
0
VERTEX
8
CUT
10
15
20
6.1633
0
VERTEX
8
CUT
10
16
20
6.0408
0
VERTEX
8
CUT
10
17
20
6
0
VERTEX
8
CUT
10
18
20
6.0408
0
VERTEX
8
CUT
10
19
20
6.1633
0
VERTEX
8
CUT
10
20
20
6.3673
0
VERTEX
8
CUT
10
21
20
6.6531
0
VERTEX
8
CUT
10
22
20
7.0204
0
VERTEX
8
CUT
10
23
20
7.4694
0
VERTEX
8
CUT
10
24
20
8
0
SEQEND
0
POLYLINE
8
CUT
66
1
70
0
0
VERTEX
8
CUT
10
27
20
8
0
VERTEX
8
CUT
10
28
20
7.4694
0
VERTEX
8
CUT
10
29
20
7.0204
0
VERTEX
8
CUT
10
30
20
6.6531
0
VERTEX
8
CUT
10
31
20
6.3673
0
VERTEX
8
CUT
10
32
20
6.1633
0
VERTEX
8
CUT
10
33
20
6.0408
0
VERTEX
8
CUT
10
34
20
6
0
VERTEX
8
CUT
10
35
20
6.0408
0
VERTEX
8
CUT
10
36
20
6.1633
0
VERTEX
8
CUT
10
37
20
6.3673
0
VERTEX
8
CUT
10
38
20
6.6531
0
VERTEX
8
CUT
10
39
20
7.0204
0
VERTEX
8
CUT
10
40
20
7.4694
0
VERTEX
8
CUT
10
41
20
8
0
SEQEND
0
POLYLINE
8
CUT
66
1
70
0
0
VERTEX
8
CUT
10
44
20
8
0
VERTEX
8
CUT
10
45
20
7.4694
0
VERTEX
8
CUT
10
46
20
7.0204
0
VERTEX
8
CUT
10
47
20
6.6531
0
VERTEX
8
CUT
10
48
20
6.3673
0
VERTEX
8
CUT
10
49
20
6.1633
0
VERTEX
8
CUT
10
50
20
6.0408
0
VERTEX
8
CUT
10
51
20
6
0
VERTEX
8
CUT
10
52
20
6.0408
0
VERTEX
8
CUT
10
53
20
6.1633
0
VERTEX
8
CUT
10
54
20
6.3673
0
VERTEX
8
CUT
10
55
20
6.6531
0
VERTEX
8
CUT
10
56
20
7.0204
0
VERTEX
8
CUT
10
57
20
7.4694
0
VERTEX
8
CUT
10
58
20
8
0
SEQEND
0
POLYLINE
8
CUT
66
1
70
0
0
VERTEX
8
CUT
10
61
20
8
0
VERTEX
8
CUT
10
62
20
7.4694
0
VERTEX
8
CUT
10
63
20
7.0204
0
VERTEX
8
CUT
10
64
20
6.6531
0
VERTEX
8
CUT
10
65
20
6.3673
0
VERTEX
8
CUT
10
66
20
6.1633
0
VERTEX
8
CUT
10
67
20
6.0408
0
VERTEX
8
CUT
10
68
20
6
0
VERTEX
8
CUT
10
69
20
6.0408
0
VERTEX
8
CUT
10
70
20
6.1633
0
VERTEX
8
CUT
10
71
20
6.3673
0
VERTEX
8
CUT
10
72
20
6.6531
0
VERTEX
8
CUT
10
73
20
7.0204
0
VERTEX
8
CUT
10
74
20
7.4694
0
VERTEX
8
CUT
10
75
20
8
0
SEQEND
0
POLYLINE
8
CUT
66
1
70
0
0
VERTEX
8
CUT
10
78
20
8
0
VERTEX
8
CUT
10
79
20
7.4694
0
VERTEX
8
CUT
10
80
20
7.0204
0
VERTEX
8
CUT
10
81
20
6.6531
0
VERTEX
8
CUT
10
82
20
6.3673
0
VERTEX
8
CUT
10
83
20
6.1633
0
VERTEX
8
CUT
10
84
20
6.0408
0
VERTEX
8
CUT
10
85
20
6
0
VERTEX
8
CUT
10
86
20
6.0408
0
VERTEX
8
CUT
10
87
20
6.1633
0
VERTEX
8
CUT
10
88
20
6.3673
0
VERTEX
8
CUT
10
89
20
6.6531
0
VERTEX
8
CUT
10
90
20
7.0204
0
VERTEX
8
CUT
10
91
20
7.4694
0
VERTEX
8
CUT
10
92
20
8
0
SEQEND
0
POLYLINE
8
CUT
66
1
70
0
0
VERTEX
8
CUT
10
95
20
8
0
VERTEX
8
CUT
10
96
20
7.4694
0
VERTEX
8
CUT
10
97
20
7.0204
0
VERTEX
8
CUT
10
98
20
6.6531
0
VERTEX
8
CUT
10
99
20
6.3673
0
VERTEX
8
CUT
10
100
20
6.1633
0
VERTEX
8
CUT
10
101
20
6.0408
0
VERTEX
8
CUT
10
102
20
6
0
VERTEX
8
CUT
10
103
20
6.0408
0
VERTEX
8
CUT
10
104
20
6.1633
0
VERTEX
8
CUT
10
105
20
6.3673
0
VERTEX
8
CUT
10
106
20
6.6531
0
VERTEX
8
CUT
10
107
20
7.0204
0
VERTEX
8
CUT
10
108
20
7.4694
0
VERTEX
8
CUT
10
109
20
8
0
SEQEND
0
POLYLINE
8
CUT
66
1
70
0
0
VERTEX
8
CUT
10
112
20
8
0
VERTEX
8
CUT
10
113
20
7.4694
0
VERTEX
8
CUT
10
114
20
7.0204
0
VERTEX
8
CUT
10
115
20
6.6531
0
VERTEX
8
CUT
10
116
20
6.3673
0
VERTEX
8
CUT
10
117
20
6.1633
0
VERTEX
8
CUT
10
118
20
6.0408
0
VERTEX
8
CUT
10
119
20
6
0
VERTEX
8
CUT
10
120
20
6.0408
0
VERTEX
8
CUT
10
120
20
6.0408
0
SEQEND
0
POLYLINE
8
CUT
66
1
70
0
0
VERTEX
8
CUT
10
0
20
70
0
VERTEX
8
CUT
10
120
20
70
0
VERTEX
8
CUT
10
120
20
0
0
VERTEX
8
CUT
10
0
20
0
0
VERTEX
8
CUT
10
0
20
70
0
SEQEND
0
ENDSEC
0
EOF
