0
SECTION
2
HEADER
9
$ACADVER
1
AC1009
9
$INSUNITS
70
4
0
ENDSEC
0
SECTION
2
TABLES
0
TABLE
2
LAYER
70
1
0
LAYER
2
CUT
70
0
62
1
6
CONTINUOUS
0
ENDTAB
0
ENDSEC
0
SECTION
2
ENTITIES
0
POLYLINE
8
CUT
66
1
70
0
0
VERTEX
8
CUT
10
3.3
20
70
0
VERTEX
8
CUT
10
3.3
20
70
0
VERTEX
8
CUT
10
3.2735
20
67.8571
0
VERTEX
8
CUT
10
3.1939
20
65.7143
0
VERTEX
8
CUT
10
3.0612
20
63.5714
0
VERTEX
8
CUT
10
2.8755
20
61.4286
0
VERTEX
8
CUT
10
2.6367
20
59.2857
0
VERTEX
8
CUT
10
2.3449
20
57.1429
0
VERTEX
8
CUT
10
2
20
55
0
SEQEND
0
POLYLINE
8
CUT
66
1
70
0
0
VERTEX
8
CUT
10
2
20
53.5
0
VERTEX
8
CUT
10
2.3449
20
51.3571
0
VERTEX
8
CUT
10
2.6367
20
49.2143
0
VERTEX
8
CUT
10
2.8755
20
47.0714
0
VERTEX
8
CUT
10
3.0612
20
44.9286
0
VERTEX
8
CUT
10
3.1939
20
42.7857
0
VERTEX
8
CUT
10
3.2735
20
40.6429
0
VERTEX
8
CUT
10
3.3
20
38.5
0
VERTEX
8
CUT
10
3.2735
20
36.3571
0
VERTEX
8
CUT
10
3.1939
20
34.2143
0
VERTEX
8
CUT
10
3.0612
20
32.0714
0
VERTEX
8
CUT
10
2.8755
20
29.9286
0
VERTEX
8
CUT
10
2.6367
20
27.7857
0
VERTEX
8
CUT
10
2.3449
20
25.6429
0
VERTEX
8
CUT
10
2
20
23.5
0
SEQEND
0
POLYLINE
8
CUT
66
1
70
0
0
VERTEX
8
CUT
10
2
20
22
0
VERTEX
8
CUT
10
2.3449
20
19.8571
0
VERTEX
8
CUT
10
2.6367
20
17.7143
0
VERTEX
8
CUT
10
2.8755
20
15.5714
0
VERTEX
8
CUT
10
3.0612
20
13.4286
0
VERTEX
8
CUT
10
3.1939
20
11.2857
0
VERTEX
8
CUT
10
3.2735
20
9.1429
0
VERTEX
8
CUT
10
3.3
20
7
0
VERTEX
8
CUT
10
3.2735
20
4.8571
0
VERTEX
8
CUT
10
3.1939
20
2.7143
0
VERTEX
8
CUT
10
3.0612
20
0.5714
0
VERTEX
8
CUT
10
3.0117
20
0
0
SEQEND
0
POLYLINE
8
CUT
66
1
70
0
0
VERTEX
8
CUT
10
6
20
69.25
0
VERTEX
8
CUT
10
5.6551
20
67.1071
0
VERTEX
8
CUT
10
5.3633
20
64.9643
0
VERTEX
8
CUT
10
5.1245
20
62.8214
0
VERTEX
8
CUT
10
4.9388
20
60.6786
0
VERTEX
8
CUT
10
4.8061
20
58.5357
0
VERTEX
8
CUT
10
4.7265
20
56.3929
0
VERTEX
8
CUT
10
4.7
20
54.25
0
VERTEX
8
CUT
10
4.7265
20
52.1071
0
VERTEX
8
CUT
10
4.8061
20
49.9643
0
VERTEX
8
CUT
10
4.9388
20
47.8214
0
VERTEX
8
CUT
10
5.1245
20
45.6786
0
VERTEX
8
CUT
10
5.3633
20
43.5357
0
VERTEX
8
CUT
10
5.6551
20
41.3929
0
VERTEX
8
CUT
10
6
20
39.25
0
SEQEND
0
POLYLINE
8
CUT
66
1
70
0
0
VERTEX
8
CUT
10
6
20
37.75
0
VERTEX
8
CUT
10
5.6551
20
35.6071
0
VERTEX
8
CUT
10
5.3633
20
33.4643
0
VERTEX
8
CUT
10
5.1245
20
31.3214
0
VERTEX
8
CUT
10
4.9388
20
29.1786
0
VERTEX
8
CUT
10
4.8061
20
27.0357
0
VERTEX
8
CUT
10
4.7265
20
24.8929
0
VERTEX
8
CUT
10
4.7
20
22.75
0
VERTEX
8
CUT
10
4.7265
20
20.6071
0
VERTEX
8
CUT
10
4.8061
20
18.4643
0
VERTEX
8
CUT
10
4.9388
20
16.3214
0
VERTEX
8
CUT
10
5.1245
20
14.1786
0
VERTEX
8
CUT
10
5.3633
20
12.0357
0
VERTEX
8
CUT
10
5.6551
20
9.8929
0
VERTEX
8
CUT
10
6
20
7.75
0
SEQEND
0
POLYLINE
8
CUT
66
1
70
0
0
VERTEX
8
CUT
10
6
20
6.25
0
VERTEX
8
CUT
10
5.6551
20
4.1071
0
VERTEX
8
CUT
10
5.3633
20
1.9643
0
VERTEX
8
CUT
10
5.1444
20
0
0
SEQEND
0
POLYLINE
8
CUT
66
1
70
0
0
VERTEX
8
CUT
10
11.3
20
70
0
VERTEX
8
CUT
10
11.3
20
70
0
VERTEX
8
CUT
10
11.2735
20
67.8571
0
VERTEX
8
CUT
10
11.1939
20
65.7143
0
VERTEX
8
CUT
10
11.0612
20
63.5714
0
VERTEX
8
CUT
10
10.8755
20
61.4286
0
VERTEX
8
CUT
10
10.6367
20
59.2857
0
VERTEX
8
CUT
10
10.3449
20
57.1429
0
VERTEX
8
CUT
10
10
20
55
0
SEQEND
0
POLYLINE
8
CUT
66
1
70
0
0
VERTEX
8
CUT
10
10
20
53.5
0
VERTEX
8
CUT
10
10.3449
20
51.3571
0
VERTEX
8
CUT
10
10.6367
20
49.2143
0
VERTEX
8
CUT
10
10.8755
20
47.0714
0
VERTEX
8
CUT
10
11.0612
20
44.9286
0
VERTEX
8
CUT
10
11.1939
20
42.7857
0
VERTEX
8
CUT
10
11.2735
20
40.6429
0
VERTEX
8
CUT
10
11.3
20
38.5
0
VERTEX
8
CUT
10
11.2735
20
36.3571
0
VERTEX
8
CUT
10
11.1939
20
34.2143
0
VERTEX
8
CUT
10
11.0612
20
32.0714
0
VERTEX
8
CUT
10
10.8755
20
29.9286
0
VERTEX
8
CUT
10
10.6367
20
27.7857
0
VERTEX
8
CUT
10
10.3449
20
25.6429
0
VERTEX
8
CUT
10
10
20
23.5
0
SEQEND
0
POLYLINE
8
CUT
66
1
70
0
0
VERTEX
8
CUT
10
10
20
22
0
VERTEX
8
CUT
10
10.3449
20
19.8571
0
VERTEX
8
CUT
10
10.6367
20
17.7143
0
VERTEX
8
CUT
10
10.8755
20
15.5714
0
VERTEX
8
CUT
10
11.0612
20
13.4286
0
VERTEX
8
CUT
10
11.1939
20
11.2857
0
VERTEX
8
CUT
10
11.2735
20
9.1429
0
VERTEX
8
CUT
10
11.3
20
7
0
VERTEX
8
CUT
10
11.2735
20
4.8571
0
VERTEX
8
CUT
10
11.1939
20
2.7143
0
VERTEX
8
CUT
10
11.0612
20
0.5714
0
VERTEX
8
CUT
10
11.0117
20
0
0
SEQEND
0
POLYLINE
8
CUT
66
1
70
0
0
VERTEX
8
CUT
10
14
20
69.25
0
VERTEX
8
CUT
10
13.6551
20
67.1071
0
VERTEX
8
CUT
10
13.3633
20
64.9643
0
VERTEX
8
CUT
10
13.1245
20
62.8214
0
VERTEX
8
CUT
10
12.9388
20
60.6786
0
VERTEX
8
CUT
10
12.8061
20
58.5357
0
VERTEX
8
CUT
10
12.7265
20
56.3929
0
VERTEX
8
CUT
10
12.7
20
54.25
0
VERTEX
8
CUT
10
12.7265
20
52.1071
0
VERTEX
8
CUT
10
12.8061
20
49.9643
0
VERTEX
8
CUT
10
12.9388
20
47.8214
0
VERTEX
8
CUT
10
13.1245
20
45.6786
0
VERTEX
8
CUT
10
13.3633
20
43.5357
0
VERTEX
8
CUT
10
13.6551
20
41.3929
0
VERTEX
8
CUT
10
14
20
39.25
0
SEQEND
0
POLYLINE
8
CUT
66
1
70
0
0
VERTEX
8
CUT
10
14
20
37.75
0
VERTEX
8
CUT
10
13.6551
20
35.6071
0
VERTEX
8
CUT
10
13.3633
20
33.4643
0
VERTEX
8
CUT
10
13.1245
20
31.3214
0
VERTEX
8
CUT
10
12.9388
20
29.1786
0
VERTEX
8
CUT
10
12.8061
20
27.0357
0
VERTEX
8
CUT
10
12.7265
20
24.8929
0
VERTEX
8
CUT
10
12.7
20
22.75
0
VERTEX
8
CUT
10
12.7265
20
20.6071
0
VERTEX
8
CUT
10
12.8061
20
18.4643
0
VERTEX
8
CUT
10
12.9388
20
16.3214
0
VERTEX
8
CUT
10
13.1245
20
14.1786
0
VERTEX
8
CUT
10
13.3633
20
12.0357
0
VERTEX
8
CUT
10
13.6551
20
9.8929
0
VERTEX
8
CUT
10
14
20
7.75
0
SEQEND
0
POLYLINE
8
CUT
66
1
70
0
0
VERTEX
8
CUT
10
14
20
6.25
0
VERTEX
8
CUT
10
13.6551
20
4.1071
0
VERTEX
8
CUT
10
13.3633
20
1.9643
0
VERTEX
8
CUT
10
13.1444
20
0
0
SEQEND
0
POLYLINE
8
CUT
66
1
70
0
0
VERTEX
8
CUT
10
19.3
20
70
0
VERTEX
8
CUT
10
19.3
20
70
0
VERTEX
8
CUT
10
19.2735
20
67.8571
0
VERTEX
8
CUT
10
19.1939
20
65.7143
0
VERTEX
8
CUT
10
19.0612
20
63.5714
0
VERTEX
8
CUT
10
18.8755
20
61.4286
0
VERTEX
8
CUT
10
18.6367
20
59.2857
0
VERTEX
8
CUT
10
18.3449
20
57.1429
0
VERTEX
8
CUT
10
18
20
55
0
SEQEND
0
POLYLINE
8
CUT
66
1
70
0
0
VERTEX
8
CUT
10
18
20
53.5
0
VERTEX
8
CUT
10
18.3449
20
51.3571
0
VERTEX
8
CUT
10
18.6367
20
49.2143
0
VERTEX
8
CUT
10
18.8755
20
47.0714
0
VERTEX
8
CUT
10
19.0612
20
44.9286
0
VERTEX
8
CUT
10
19.1939
20
42.7857
0
VERTEX
8
CUT
10
19.2735
20
40.6429
0
VERTEX
8
CUT
10
19.3
20
38.5
0
VERTEX
8
CUT
10
19.2735
20
36.3571
0
VERTEX
8
CUT
10
19.1939
20
34.2143
0
VERTEX
8
CUT
10
19.0612
20
32.0714
0
VERTEX
8
CUT
10
18.8755
20
29.9286
0
VERTEX
8
CUT
10
18.6367
20
27.7857
0
VERTEX
8
CUT
10
18.3449
20
25.6429
0
VERTEX
8
CUT
10
18
20
23.5
0
SEQEND
0
POLYLINE
8
CUT
66
1
70
0
0
VERTEX
8
CUT
10
18
20
22
0
VERTEX
8
CUT
10
18.3449
20
19.8571
0
VERTEX
8
CUT
10
18.6367
20
17.7143
0
VERTEX
8
CUT
10
18.8755
20
15.5714
0
VERTEX
8
CUT
10
19.0612
20
13.4286
0
VERTEX
8
CUT
10
19.1939
20
11.2857
0
VERTEX
8
CUT
10
19.2735
20
9.1429
0
VERTEX
8
CUT
10
19.3
20
7
0
VERTEX
8
CUT
10
19.2735
20
4.8571
0
VERTEX
8
CUT
10
19.1939
20
2.7143
0
VERTEX
8
CUT
10
19.0612
20
0.5714
0
VERTEX
8
CUT
10
19.0117
20
0
0
SEQEND
0
POLYLINE
8
CUT
66
1
70
0
0
VERTEX
8
CUT
10
22
20
69.25
0
VERTEX
8
CUT
10
21.6551
20
67.1071
0
VERTEX
8
CUT
10
21.3633
20
64.9643
0
VERTEX
8
CUT
10
21.1245
20
62.8214
0
VERTEX
8
CUT
10
20.9388
20
60.6786
0
VERTEX
8
CUT
10
20.8061
20
58.5357
0
VERTEX
8
CUT
10
20.7265
20
56.3929
0
VERTEX
8
CUT
10
20.7
20
54.25
0
VERTEX
8
CUT
10
20.7265
20
52.1071
0
VERTEX
8
CUT
10
20.8061
20
49.9643
0
VERTEX
8
CUT
10
20.9388
20
47.8214
0
VERTEX
8
CUT
10
21.1245
20
45.6786
0
VERTEX
8
CUT
10
21.3633
20
43.5357
0
VERTEX
8
CUT
10
21.6551
20
41.3929
0
VERTEX
8
CUT
10
22
20
39.25
0
SEQEND
0
POLYLINE
8
CUT
66
1
70
0
0
VERTEX
8
CUT
10
22
20
37.75
0
VERTEX
8
CUT
10
21.6551
20
35.6071
0
VERTEX
8
CUT
10
21.3633
20
33.4643
0
VERTEX
8
CUT
10
21.1245
20
31.3214
0
VERTEX
8
CUT
10
20.9388
20
29.1786
0
VERTEX
8
CUT
10
20.8061
20
27.0357
0
VERTEX
8
CUT
10
20.7265
20
24.8929
0
VERTEX
8
CUT
10
20.7
20
22.75
0
VERTEX
8
CUT
10
20.7265
20
20.6071
0
VERTEX
8
CUT
10
20.8061
20
18.4643
0
VERTEX
8
CUT
10
20.9388
20
16.3214
0
VERTEX
8
CUT
10
21.1245
20
14.1786
0
VERTEX
8
CUT
10
21.3633
20
12.0357
0
VERTEX
8
CUT
10
21.6551
20
9.8929
0
VERTEX
8
CUT
10
22
20
7.75
0
SEQEND
0
POLYLINE
8
CUT
66
1
70
0
0
VERTEX
8
CUT
10
22
20
6.25
0
VERTEX
8
CUT
10
21.6551
20
4.1071
0
VERTEX
8
CUT
10
21.3633
20
1.9643
0
VERTEX
8
CUT
10
21.1444
20
0
0
SEQEND
0
POLYLINE
8
CUT
66
1
70
0
0
VERTEX
8
CUT
10
27.3
20
70
0
VERTEX
8
CUT
10
27.3
20
70
0
VERTEX
8
CUT
10
27.2735
20
67.8571
0
VERTEX
8
CUT
10
27.1939
20
65.7143
0
VERTEX
8
CUT
10
27.0612
20
63.5714
0
VERTEX
8
CUT
10
26.8755
20
61.4286
0
VERTEX
8
CUT
10
26.6367
20
59.2857
0
VERTEX
8
CUT
10
26.3449
20
57.1429
0
VERTEX
8
CUT
10
26
20
55
0
SEQEND
0
POLYLINE
8
CUT
66
1
70
0
0
VERTEX
8
CUT
10
26
20
53.5
0
VERTEX
8
CUT
10
26.3449
20
51.3571
0
VERTEX
8
CUT
10
26.6367
20
49.2143
0
VERTEX
8
CUT
10
26.8755
20
47.0714
0
VERTEX
8
CUT
10
27.0612
20
44.9286
0
VERTEX
8
CUT
10
27.1939
20
42.7857
0
VERTEX
8
CUT
10
27.2735
20
40.6429
0
VERTEX
8
CUT
10
27.3
20
38.5
0
VERTEX
8
CUT
10
27.2735
20
36.3571
0
VERTEX
8
CUT
10
27.1939
20
34.2143
0
VERTEX
8
CUT
10
27.0612
20
32.0714
0
VERTEX
8
CUT
10
26.8755
20
29.9286
0
VERTEX
8
CUT
10
26.6367
20
27.7857
0
VERTEX
8
CUT
10
26.3449
20
25.6429
0
VERTEX
8
CUT
10
26
20
23.5
0
SEQEND
0
POLYLINE
8
CUT
66
1
70
0
0
VERTEX
8
CUT
10
26
20
22
0
VERTEX
8
CUT
10
26.3449
20
19.8571
0
VERTEX
8
CUT
10
26.6367
20
17.7143
0
VERTEX
8
CUT
10
26.8755
20
15.5714
0
VERTEX
8
CUT
10
27.0612
20
13.4286
0
VERTEX
8
CUT
10
27.1939
20
11.2857
0
VERTEX
8
CUT
10
27.2735
20
9.1429
0
VERTEX
8
CUT
10
27.3
20
7
0
VERTEX
8
CUT
10
27.2735
20
4.8571
0
VERTEX
8
CUT
10
27.1939
20
2.7143
0
VERTEX
8
CUT
10
27.0612
20
0.5714
0
VERTEX
8
CUT
10
27.0117
20
0
0
SEQEND
0
POLYLINE
8
CUT
66
1
70
0
0
VERTEX
8
CUT
10
30
20
69.25
0
VERTEX
8
CUT
10
29.6551
20
67.1071
0
VERTEX
8
CUT
10
29.3633
20
64.9643
0
VERTEX
8
CUT
10
29.1245
20
62.8214
0
VERTEX
8
CUT
10
28.9388
20
60.6786
0
VERTEX
8
CUT
10
28.8061
20
58.5357
0
VERTEX
8
CUT
10
28.7265
20
56.3929
0
VERTEX
8
CUT
10
28.7
20
54.25
0
VERTEX
8
CUT
10
28.7265
20
52.1071
0
VERTEX
8
CUT
10
28.8061
20
49.9643
0
VERTEX
8
CUT
10
28.9388
20
47.8214
0
VERTEX
8
CUT
10
29.1245
20
45.6786
0
VERTEX
8
CUT
10
29.3633
20
43.5357
0
VERTEX
8
CUT
10
29.6551
20
41.3929
0
VERTEX
8
CUT
10
30
20
39.25
0
SEQEND
0
POLYLINE
8
CUT
66
1
70
0
0
VERTEX
8
CUT
10
30
20
37.75
0
VERTEX
8
CUT
10
29.6551
20
35.6071
0
VERTEX
8
CUT
10
29.3633
20
33.4643
0
VERTEX
8
CUT
10
29.1245
20
31.3214
0
VERTEX
8
CUT
10
28.9388
20
29.1786
0
VERTEX
8
CUT
10
28.8061
20
27.0357
0
VERTEX
8
CUT
10
28.7265
20
24.8929
0
VERTEX
8
CUT
10
28.7
20
22.75
0
VERTEX
8
CUT
10
28.7265
20
20.6071
0
VERTEX
8
CUT
10
28.8061
20
18.4643
0
VERTEX
8
CUT
10
28.9388
20
16.3214
0
VERTEX
8
CUT
10
29.1245
20
14.1786
0
VERTEX
8
CUT
10
29.3633
20
12.0357
0
VERTEX
8
CUT
10
29.6551
20
9.8929
0
VERTEX
8
CUT
10
30
20
7.75
0
SEQEND
0
POLYLINE
8
CUT
66
1
70
0
0
VERTEX
8
CUT
10
30
20
6.25
0
VERTEX
8
CUT
10
29.6551
20
4.1071
0
VERTEX
8
CUT
10
29.3633
20
1.9643
0
VERTEX
8
CUT
10
29.1444
20
0
0
SEQEND
0
POLYLINE
8
CUT
66
1
70
0
0
VERTEX
8
CUT
10
35.3
20
70
0
VERTEX
8
CUT
10
35.3
20
70
0
VERTEX
8
CUT
10
35.2735
20
67.8571
0
VERTEX
8
CUT
10
35.1939
20
65.7143
0
VERTEX
8
CUT
10
35.0612
20
63.5714
0
VERTEX
8
CUT
10
34.8755
20
61.4286
0
VERTEX
8
CUT
10
34.6367
20
59.2857
0
VERTEX
8
CUT
10
34.3449
20
57.1429
0
VERTEX
8
CUT
10
34
20
55
0
SEQEND
0
POLYLINE
8
CUT
66
1
70
0
0
VERTEX
8
CUT
10
34
20
53.5
0
VERTEX
8
CUT
10
34.3449
20
51.3571
0
VERTEX
8
CUT
10
34.6367
20
49.2143
0
VERTEX
8
CUT
10
34.8755
20
47.0714
0
VERTEX
8
CUT
10
35.0612
20
44.9286
0
VERTEX
8
CUT
10
35.1939
20
42.7857
0
VERTEX
8
CUT
10
35.2735
20
40.6429
0
VERTEX
8
CUT
10
35.3
20
38.5
0
VERTEX
8
CUT
10
35.2735
20
36.3571
0
VERTEX
8
CUT
10
35.1939
20
34.2143
0
VERTEX
8
CUT
10
35.0612
20
32.0714
0
VERTEX
8
CUT
10
34.8755
20
29.9286
0
VERTEX
8
CUT
10
34.6367
20
27.7857
0
VERTEX
8
CUT
10
34.3449
20
25.6429
0
VERTEX
8
CUT
10
34
20
23.5
0
SEQEND
0
POLYLINE
8
CUT
66
1
70
0
0
VERTEX
8
CUT
10
34
20
22
0
VERTEX
8
CUT
10
34.3449
20
19.8571
0
VERTEX
8
CUT
10
34.6367
20
17.7143
0
VERTEX
8
CUT
10
34.8755
20
15.5714
0
VERTEX
8
CUT
10
35.0612
20
13.4286
0
VERTEX
8
CUT
10
35.1939
20
11.2857
0
VERTEX
8
CUT
10
35.2735
20
9.1429
0
VERTEX
8
CUT
10
35.3
20
7
0
VERTEX
8
CUT
10
35.2735
20
4.8571
0
VERTEX
8
CUT
10
35.1939
20
2.7143
0
VERTEX
8
CUT
10
35.0612
20
0.5714
0
VERTEX
8
CUT
10
35.0117
20
0
0
SEQEND
0
POLYLINE
8
CUT
66
1
70
0
0
VERTEX
8
CUT
10
38
20
69.25
0
VERTEX
8
CUT
10
37.6551
20
67.1071
0
VERTEX
8
CUT
10
37.3633
20
64.9643
0
VERTEX
8
CUT
10
37.1245
20
62.8214
0
VERTEX
8
CUT
10
36.9388
20
60.6786
0
VERTEX
8
CUT
10
36.8061
20
58.5357
0
VERTEX
8
CUT
10
36.7265
20
56.3929
0
VERTEX
8
CUT
10
36.7
20
54.25
0
VERTEX
8
CUT
10
36.7265
20
52.1071
0
VERTEX
8
CUT
10
36.8061
20
49.9643
0
VERTEX
8
CUT
10
36.9388
20
47.8214
0
VERTEX
8
CUT
10
37.1245
20
45.6786
0
VERTEX
8
CUT
10
37.3633
20
43.5357
0
VERTEX
8
CUT
10
37.6551
20
41.3929
0
VERTEX
8
CUT
10
38
20
39.25
0
SEQEND
0
POLYLINE
8
CUT
66
1
70
0
0
VERTEX
8
CUT
10
38
20
37.75
0
VERTEX
8
CUT
10
37.6551
20
35.6071
0
VERTEX
8
CUT
10
37.3633
20
33.4643
0
VERTEX
8
CUT
10
37.1245
20
31.3214
0
VERTEX
8
CUT
10
36.9388
20
29.1786
0
VERTEX
8
CUT
10
36.8061
20
27.0357
0
VERTEX
8
CUT
10
36.7265
20
24.8929
0
VERTEX
8
CUT
10
36.7
20
22.75
0
VERTEX
8
CUT
10
36.7265
20
20.6071
0
VERTEX
8
CUT
10
36.8061
20
18.4643
0
VERTEX
8
CUT
10
36.9388
20
16.3214
0
VERTEX
8
CUT
10
37.1245
20
14.1786
0
VERTEX
8
CUT
10
37.3633
20
12.0357
0
VERTEX
8
CUT
10
37.6551
20
9.8929
0
VERTEX
8
CUT
10
38
20
7.75
0
SEQEND
0
POLYLINE
8
CUT
66
1
70
0
0
VERTEX
8
CUT
10
38
20
6.25
0
VERTEX
8
CUT
10
37.6551
20
4.1071
0
VERTEX
8
CUT
10
37.3633
20
1.9643
0
VERTEX
8
CUT
10
37.1444
20
0
0
SEQEND
0
POLYLINE
8
CUT
66
1
70
0
0
VERTEX
8
CUT
10
43.3
20
70
0
VERTEX
8
CUT
10
43.3
20
70
0
VERTEX
8
CUT
10
43.2735
20
67.8571
0
VERTEX
8
CUT
10
43.1939
20
65.7143
0
VERTEX
8
CUT
10
43.0612
20
63.5714
0
VERTEX
8
CUT
10
42.8755
20
61.4286
0
VERTEX
8
CUT
10
42.6367
20
59.2857
0
VERTEX
8
CUT
10
42.3449
20
57.1429
0
VERTEX
8
CUT
10
42
20
55
0
SEQEND
0
POLYLINE
8
CUT
66
1
70
0
0
VERTEX
8
CUT
10
42
20
53.5
0
VERTEX
8
CUT
10
42.3449
20
51.3571
0
VERTEX
8
CUT
10
42.6367
20
49.2143
0
VERTEX
8
CUT
10
42.8755
20
47.0714
0
VERTEX
8
CUT
10
43.0612
20
44.9286
0
VERTEX
8
CUT
10
43.1939
20
42.7857
0
VERTEX
8
CUT
10
43.2735
20
40.6429
0
VERTEX
8
CUT
10
43.3
20
38.5
0
VERTEX
8
CUT
10
43.2735
20
36.3571
0
VERTEX
8
CUT
10
43.1939
20
34.2143
0
VERTEX
8
CUT
10
43.0612
20
32.0714
0
VERTEX
8
CUT
10
42.8755
20
29.9286
0
VERTEX
8
CUT
10
42.6367
20
27.7857
0
VERTEX
8
CUT
10
42.3449
20
25.6429
0
VERTEX
8
CUT
10
42
20
23.5
0
SEQEND
0
POLYLINE
8
CUT
66
1
70
0
0
VERTEX
8
CUT
10
42
20
22
0
VERTEX
8
CUT
10
42.3449
20
19.8571
0
VERTEX
8
CUT
10
42.6367
20
17.7143
0
VERTEX
8
CUT
10
42.8755
20
15.5714
0
VERTEX
8
CUT
10
43.0612
20
13.4286
0
VERTEX
8
CUT
10
43.1939
20
11.2857
0
VERTEX
8
CUT
10
43.2735
20
9.1429
0
VERTEX
8
CUT
10
43.3
20
7
0
VERTEX
8
CUT
10
43.2735
20
4.8571
0
VERTEX
8
CUT
10
43.1939
20
2.7143
0
VERTEX
8
CUT
10
43.0612
20
0.5714
0
VERTEX
8
CUT
10
43.0117
20
0
0
SEQEND
0
POLYLINE
8
CUT
66
1
70
0
0
VERTEX
8
CUT
10
46
20
69.25
0
VERTEX
8
CUT
10
45.6551
20
67.1071
0
VERTEX
8
CUT
10
45.3633
20
64.9643
0
VERTEX
8
CUT
10
45.1245
20
62.8214
0
VERTEX
8
CUT
10
44.9388
20
60.6786
0
VERTEX
8
CUT
10
44.8061
20
58.5357
0
VERTEX
8
CUT
10
44.7265
20
56.3929
0
VERTEX
8
CUT
10
44.7
20
54.25
0
VERTEX
8
CUT
10
44.7265
20
52.1071
0
VERTEX
8
CUT
10
44.8061
20
49.9643
0
VERTEX
8
CUT
10
44.9388
20
47.8214
0
VERTEX
8
CUT
10
45.1245
20
45.6786
0
VERTEX
8
CUT
10
45.3633
20
43.5357
0
VERTEX
8
CUT
10
45.6551
20
41.3929
0
VERTEX
8
CUT
10
46
20
39.25
0
SEQEND
0
POLYLINE
8
CUT
66
1
70
0
0
VERTEX
8
CUT
10
46
20
37.75
0
VERTEX
8
CUT
10
45.6551
20
35.6071
0
VERTEX
8
CUT
10
45.3633
20
33.4643
0
VERTEX
8
CUT
10
45.1245
20
31.3214
0
VERTEX
8
CUT
10
44.9388
20
29.1786
0
VERTEX
8
CUT
10
44.8061
20
27.0357
0
VERTEX
8
CUT
10
44.7265
20
24.8929
0
VERTEX
8
CUT
10
44.7
20
22.75
0
VERTEX
8
CUT
10
44.7265
20
20.6071
0
VERTEX
8
CUT
10
44.8061
20
18.4643
0
VERTEX
8
CUT
10
44.9388
20
16.3214
0
VERTEX
8
CUT
10
45.1245
20
14.1786
0
VERTEX
8
CUT
10
45.3633
20
12.0357
0
VERTEX
8
CUT
10
45.6551
20
9.8929
0
VERTEX
8
CUT
10
46
20
7.75
0
SEQEND
0
POLYLINE
8
CUT
66
1
70
0
0
VERTEX
8
CUT
10
46
20
6.25
0
VERTEX
8
CUT
10
45.6551
20
4.1071
0
VERTEX
8
CUT
10
45.3633
20
1.9643
0
VERTEX
8
CUT
10
45.1444
20
0
0
SEQEND
0
POLYLINE
8
CUT
66
1
70
0
0
VERTEX
8
CUT
10
51.3
20
70
0
VERTEX
8
CUT
10
51.3
20
70
0
VERTEX
8
CUT
10
51.2735
20
67.8571
0
VERTEX
8
CUT
10
51.1939
20
65.7143
0
VERTEX
8
CUT
10
51.0612
20
63.5714
0
VERTEX
8
CUT
10
50.8755
20
61.4286
0
VERTEX
8
CUT
10
50.6367
20
59.2857
0
VERTEX
8
CUT
10
50.3449
20
57.1429
0
VERTEX
8
CUT
10
50
20
55
0
SEQEND
0
POLYLINE
8
CUT
66
1
70
0
0
VERTEX
8
CUT
10
50
20
53.5
0
VERTEX
8
CUT
10
50.3449
20
51.3571
0
VERTEX
8
CUT
10
50.6367
20
49.2143
0
VERTEX
8
CUT
10
50.8755
20
47.0714
0
VERTEX
8
CUT
10
51.0612
20
44.9286
0
VERTEX
8
CUT
10
51.1939
20
42.7857
0
VERTEX
8
CUT
10
51.2735
20
40.6429
0
VERTEX
8
CUT
10
51.3
20
38.5
0
VERTEX
8
CUT
10
51.2735
20
36.3571
0
VERTEX
8
CUT
10
51.1939
20
34.2143
0
VERTEX
8
CUT
10
51.0612
20
32.0714
0
VERTEX
8
CUT
10
50.8755
20
29.9286
0
VERTEX
8
CUT
10
50.6367
20
27.7857
0
VERTEX
8
CUT
10
50.3449
20
25.6429
0
VERTEX
8
CUT
10
50
20
23.5
0
SEQEND
0
POLYLINE
8
CUT
66
1
70
0
0
VERTEX
8
CUT
10
50
20
22
0
VERTEX
8
CUT
10
50.3449
20
19.8571
0
VERTEX
8
CUT
10
50.6367
20
17.7143
0
VERTEX
8
CUT
10
50.8755
20
15.5714
0
VERTEX
8
CUT
10
51.0612
20
13.4286
0
VERTEX
8
CUT
10
51.1939
20
11.2857
0
VERTEX
8
CUT
10
51.2735
20
9.1429
0
VERTEX
8
CUT
10
51.3
20
7
0
VERTEX
8
CUT
10
51.2735
20
4.8571
0
VERTEX
8
CUT
10
51.1939
20
2.7143
0
VERTEX
8
CUT
10
51.0612
20
0.5714
0
VERTEX
8
CUT
10
51.0117
20
0
0
SEQEND
0
POLYLINE
8
CUT
66
1
70
0
0
VERTEX
8
CUT
10
54
20
69.25
0
VERTEX
8
CUT
10
53.6551
20
67.1071
0
VERTEX
8
CUT
10
53.3633
20
64.9643
0
VERTEX
8
CUT
10
53.1245
20
62.8214
0
VERTEX
8
CUT
10
52.9388
20
60.6786
0
VERTEX
8
CUT
10
52.8061
20
58.5357
0
VERTEX
8
CUT
10
52.7265
20
56.3929
0
VERTEX
8
CUT
10
52.7
20
54.25
0
VERTEX
8
CUT
10
52.7265
20
52.1071
0
VERTEX
8
CUT
10
52.8061
20
49.9643
0
VERTEX
8
CUT
10
52.9388
20
47.8214
0
VERTEX
8
CUT
10
53.1245
20
45.6786
0
VERTEX
8
CUT
10
53.3633
20
43.5357
0
VERTEX
8
CUT
10
53.6551
20
41.3929
0
VERTEX
8
CUT
10
54
20
39.25
0
SEQEND
0
POLYLINE
8
CUT
66
1
70
0
0
VERTEX
8
CUT
10
54
20
37.75
0
VERTEX
8
CUT
10
53.6551
20
35.6071
0
VERTEX
8
CUT
10
53.3633
20
33.4643
0
VERTEX
8
CUT
10
53.1245
20
31.3214
0
VERTEX
8
CUT
10
52.9388
20
29.1786
0
VERTEX
8
CUT
10
52.8061
20
27.0357
0
VERTEX
8
CUT
10
52.7265
20
24.8929
0
VERTEX
8
CUT
10
52.7
20
22.75
0
VERTEX
8
CUT
10
52.7265
20
20.6071
0
VERTEX
8
CUT
10
52.8061
20
18.4643
0
VERTEX
8
CUT
10
52.9388
20
16.3214
0
VERTEX
8
CUT
10
53.1245
20
14.1786
0
VERTEX
8
CUT
10
53.3633
20
12.0357
0
VERTEX
8
CUT
10
53.6551
20
9.8929
0
VERTEX
8
CUT
10
54
20
7.75
0
SEQEND
0
POLYLINE
8
CUT
66
1
70
0
0
VERTEX
8
CUT
10
54
20
6.25
0
VERTEX
8
CUT
10
53.6551
20
4.1071
0
VERTEX
8
CUT
10
53.3633
20
1.9643
0
VERTEX
8
CUT
10
53.1444
20
0
0
SEQEND
0
POLYLINE
8
CUT
66
1
70
0
0
VERTEX
8
CUT
10
59.3
20
70
0
VERTEX
8
CUT
10
59.3
20
70
0
VERTEX
8
CUT
10
59.2735
20
67.8571
0
VERTEX
8
CUT
10
59.1939
20
65.7143
0
VERTEX
8
CUT
10
59.0612
20
63.5714
0
VERTEX
8
CUT
10
58.8755
20
61.4286
0
VERTEX
8
CUT
10
58.6367
20
59.2857
0
VERTEX
8
CUT
10
58.3449
20
57.1429
0
VERTEX
8
CUT
10
58
20
55
0
SEQEND
0
POLYLINE
8
CUT
66
1
70
0
0
VERTEX
8
CUT
10
58
20
53.5
0
VERTEX
8
CUT
10
58.3449
20
51.3571
0
VERTEX
8
CUT
10
58.6367
20
49.2143
0
VERTEX
8
CUT
10
58.8755
20
47.0714
0
VERTEX
8
CUT
10
59.0612
20
44.9286
0
VERTEX
8
CUT
10
59.1939
20
42.7857
0
VERTEX
8
CUT
10
59.2735
20
40.6429
0
VERTEX
8
CUT
10
59.3
20
38.5
0
VERTEX
8
CUT
10
59.2735
20
36.3571
0
VERTEX
8
CUT
10
59.1939
20
34.2143
0
VERTEX
8
CUT
10
59.0612
20
32.0714
0
VERTEX
8
CUT
10
58.8755
20
29.9286
0
VERTEX
8
CUT
10
58.6367
20
27.7857
0
VERTEX
8
CUT
10
58.3449
20
25.6429
0
VERTEX
8
CUT
10
58
20
23.5
0
SEQEND
0
POLYLINE
8
CUT
66
1
70
0
0
VERTEX
8
CUT
10
58
20
22
0
VERTEX
8
CUT
10
58.3449
20
19.8571
0
VERTEX
8
CUT
10
58.6367
20
17.7143
0
VERTEX
8
CUT
10
58.8755
20
15.5714
0
VERTEX
8
CUT
10
59.0612
20
13.4286
0
VERTEX
8
CUT
10
59.1939
20
11.2857
0
VERTEX
8
CUT
10
59.2735
20
9.1429
0
VERTEX
8
CUT
10
59.3
20
7
0
VERTEX
8
CUT
10
59.2735
20
4.8571
0
VERTEX
8
CUT
10
59.1939
20
2.7143
0
VERTEX
8
CUT
10
59.0612
20
0.5714
0
VERTEX
8
CUT
10
59.0117
20
0
0
SEQEND
0
POLYLINE
8
CUT
66
1
70
0
0
VERTEX
8
CUT
10
62
20
69.25
0
VERTEX
8
CUT
10
61.6551
20
67.1071
0
VERTEX
8
CUT
10
61.3633
20
64.9643
0
VERTEX
8
CUT
10
61.1245
20
62.8214
0
VERTEX
8
CUT
10
60.9388
20
60.6786
0
VERTEX
8
CUT
10
60.8061
20
58.5357
0
VERTEX
8
CUT
10
60.7265
20
56.3929
0
VERTEX
8
CUT
10
60.7
20
54.25
0
VERTEX
8
CUT
10
60.7265
20
52.1071
0
VERTEX
8
CUT
10
60.8061
20
49.9643
0
VERTEX
8
CUT
10
60.9388
20
47.8214
0
VERTEX
8
CUT
10
61.1245
20
45.6786
0
VERTEX
8
CUT
10
61.3633
20
43.5357
0
VERTEX
8
CUT
10
61.6551
20
41.3929
0
VERTEX
8
CUT
10
62
20
39.25
0
SEQEND
0
POLYLINE
8
CUT
66
1
70
0
0
VERTEX
8
CUT
10
62
20
37.75
0
VERTEX
8
CUT
10
61.6551
20
35.6071
0
VERTEX
8
CUT
10
61.3633
20
33.4643
0
VERTEX
8
CUT
10
61.1245
20
31.3214
0
VERTEX
8
CUT
10
60.9388
20
29.1786
0
VERTEX
8
CUT
10
60.8061
20
27.0357
0
VERTEX
8
CUT
10
60.7265
20
24.8929
0
VERTEX
8
CUT
10
60.7
20
22.75
0
VERTEX
8
CUT
10
60.7265
20
20.6071
0
VERTEX
8
CUT
10
60.8061
20
18.4643
0
VERTEX
8
CUT
10
60.9388
20
16.3214
0
VERTEX
8
CUT
10
61.1245
20
14.1786
0
VERTEX
8
CUT
10
61.3633
20
12.0357
0
VERTEX
8
CUT
10
61.6551
20
9.8929
0
VERTEX
8
CUT
10
62
20
7.75
0
SEQEND
0
POLYLINE
8
CUT
66
1
70
0
0
VERTEX
8
CUT
10
62
20
6.25
0
VERTEX
8
CUT
10
61.6551
20
4.1071
0
VERTEX
8
CUT
10
61.3633
20
1.9643
0
VERTEX
8
CUT
10
61.1444
20
0
0
SEQEND
0
POLYLINE
8
CUT
66
1
70
0
0
VERTEX
8
CUT
10
67.3
20
70
0
VERTEX
8
CUT
10
67.3
20
70
0
VERTEX
8
CUT
10
67.2735
20
67.8571
0
VERTEX
8
CUT
10
67.1939
20
65.7143
0
VERTEX
8
CUT
10
67.0612
20
63.5714
0
VERTEX
8
CUT
10
66.8755
20
61.4286
0
VERTEX
8
CUT
10
66.6367
20
59.2857
0
VERTEX
8
CUT
10
66.3449
20
57.1429
0
VERTEX
8
CUT
10
66
20
55
0
SEQEND
0
POLYLINE
8
CUT
66
1
70
0
0
VERTEX
8
CUT
10
66
20
53.5
0
VERTEX
8
CUT
10
66.3449
20
51.3571
0
VERTEX
8
CUT
10
66.6367
20
49.2143
0
VERTEX
8
CUT
10
66.8755
20
47.0714
0
VERTEX
8
CUT
10
67.0612
20
44.9286
0
VERTEX
8
CUT
10
67.1939
20
42.7857
0
VERTEX
8
CUT
10
67.2735
20
40.6429
0
VERTEX
8
CUT
10
67.3
20
38.5
0
VERTEX
8
CUT
10
67.2735
20
36.3571
0
VERTEX
8
CUT
10
67.1939
20
34.2143
0
VERTEX
8
CUT
10
67.0612
20
32.0714
0
VERTEX
8
CUT
10
66.8755
20
29.9286
0
VERTEX
8
CUT
10
66.6367
20
27.7857
0
VERTEX
8
CUT
10
66.3449
20
25.6429
0
VERTEX
8
CUT
10
66
20
23.5
0
SEQEND
0
POLYLINE
8
CUT
66
1
70
0
0
VERTEX
8
CUT
10
66
20
22
0
VERTEX
8
CUT
10
66.3449
20
19.8571
0
VERTEX
8
CUT
10
66.6367
20
17.7143
0
VERTEX
8
CUT
10
66.8755
20
15.5714
0
VERTEX
8
CUT
10
67.0612
20
13.4286
0
VERTEX
8
CUT
10
67.1939
20
11.2857
0
VERTEX
8
CUT
10
67.2735
20
9.1429
0
VERTEX
8
CUT
10
67.3
20
7
0
VERTEX
8
CUT
10
67.2735
20
4.8571
0
VERTEX
8
CUT
10
67.1939
20
2.7143
0
VERTEX
8
CUT
10
67.0612
20
0.5714
0
VERTEX
8
CUT
10
67.0117
20
0
0
SEQEND
0
POLYLINE
8
CUT
66
1
70
0
0
VERTEX
8
CUT
10
70
20
69.25
0
VERTEX
8
CUT
10
69.6551
20
67.1071
0
VERTEX
8
CUT
10
69.3633
20
64.9643
0
VERTEX
8
CUT
10
69.1245
20
62.8214
0
VERTEX
8
CUT
10
68.9388
20
60.6786
0
VERTEX
8
CUT
10
68.8061
20
58.5357
0
VERTEX
8
CUT
10
68.7265
20
56.3929
0
VERTEX
8
CUT
10
68.7
20
54.25
0
VERTEX
8
CUT
10
68.7265
20
52.1071
0
VERTEX
8
CUT
10
68.8061
20
49.9643
0
VERTEX
8
CUT
10
68.9388
20
47.8214
0
VERTEX
8
CUT
10
69.1245
20
45.6786
0
VERTEX
8
CUT
10
69.3633
20
43.5357
0
VERTEX
8
CUT
10
69.6551
20
41.3929
0
VERTEX
8
CUT
10
70
20
39.25
0
SEQEND
0
POLYLINE
8
CUT
66
1
70
0
0
VERTEX
8
CUT
10
70
20
37.75
0
VERTEX
8
CUT
10
69.6551
20
35.6071
0
VERTEX
8
CUT
10
69.3633
20
33.4643
0
VERTEX
8
CUT
10
69.1245
20
31.3214
0
VERTEX
8
CUT
10
68.9388
20
29.1786
0
VERTEX
8
CUT
10
68.8061
20
27.0357
0
VERTEX
8
CUT
10
68.7265
20
24.8929
0
VERTEX
8
CUT
10
68.7
20
22.75
0
VERTEX
8
CUT
10
68.7265
20
20.6071
0
VERTEX
8
CUT
10
68.8061
20
18.4643
0
VERTEX
8
CUT
10
68.9388
20
16.3214
0
VERTEX
8
CUT
10
69.1245
20
14.1786
0
VERTEX
8
CUT
10
69.3633
20
12.0357
0
VERTEX
8
CUT
10
69.6551
20
9.8929
0
VERTEX
8
CUT
10
70
20
7.75
0
SEQEND
0
POLYLINE
8
CUT
66
1
70
0
0
VERTEX
8
CUT
10
70
20
6.25
0
VERTEX
8
CUT
10
69.6551
20
4.1071
0
VERTEX
8
CUT
10
69.3633
20
1.9643
0
VERTEX
8
CUT
10
69.1444
20
0
0
SEQEND
0
POLYLINE
8
CUT
66
1
70
0
0
VERTEX
8
CUT
10
75.3
20
70
0
VERTEX
8
CUT
10
75.3
20
70
0
VERTEX
8
CUT
10
75.2735
20
67.8571
0
VERTEX
8
CUT
10
75.1939
20
65.7143
0
VERTEX
8
CUT
10
75.0612
20
63.5714
0
VERTEX
8
CUT
10
74.8755
20
61.4286
0
VERTEX
8
CUT
10
74.6367
20
59.2857
0
VERTEX
8
CUT
10
74.3449
20
57.1429
0
VERTEX
8
CUT
10
74
20
55
0
SEQEND
0
POLYLINE
8
CUT
66
1
70
0
0
VERTEX
8
CUT
10
74
20
53.5
0
VERTEX
8
CUT
10
74.3449
20
51.3571
0
VERTEX
8
CUT
10
74.6367
20
49.2143
0
VERTEX
8
CUT
10
74.8755
20
47.0714
0
VERTEX
8
CUT
10
75.0612
20
44.9286
0
VERTEX
8
CUT
10
75.1939
20
42.7857
0
VERTEX
8
CUT
10
75.2735
20
40.6429
0
VERTEX
8
CUT
10
75.3
20
38.5
0
VERTEX
8
CUT
10
75.2735
20
36.3571
0
VERTEX
8
CUT
10
75.1939
20
34.2143
0
VERTEX
8
CUT
10
75.0612
20
32.0714
0
VERTEX
8
CUT
10
74.8755
20
29.9286
0
VERTEX
8
CUT
10
74.6367
20
27.7857
0
VERTEX
8
CUT
10
74.3449
20
25.6429
0
VERTEX
8
CUT
10
74
20
23.5
0
SEQEND
0
POLYLINE
8
CUT
66
1
70
0
0
VERTEX
8
CUT
10
74
20
22
0
VERTEX
8
CUT
10
74.3449
20
19.8571
0
VERTEX
8
CUT
10
74.6367
20
17.7143
0
VERTEX
8
CUT
10
74.8755
20
15.5714
0
VERTEX
8
CUT
10
75.0612
20
13.4286
0
VERTEX
8
CUT
10
75.1939
20
11.2857
0
VERTEX
8
CUT
10
75.2735
20
9.1429
0
VERTEX
8
CUT
10
75.3
20
7
0
VERTEX
8
CUT
10
75.2735
20
4.8571
0
VERTEX
8
CUT
10
75.1939
20
2.7143
0
VERTEX
8
CUT
10
75.0612
20
0.5714
0
VERTEX
8
CUT
10
75.0117
20
0
0
SEQEND
0
POLYLINE
8
CUT
66
1
70
0
0
VERTEX
8
CUT
10
78
20
69.25
0
VERTEX
8
CUT
10
77.6551
20
67.1071
0
VERTEX
8
CUT
10
77.3633
20
64.9643
0
VERTEX
8
CUT
10
77.1245
20
62.8214
0
VERTEX
8
CUT
10
76.9388
20
60.6786
0
VERTEX
8
CUT
10
76.8061
20
58.5357
0
VERTEX
8
CUT
10
76.7265
20
56.3929
0
VERTEX
8
CUT
10
76.7
20
54.25
0
VERTEX
8
CUT
10
76.7265
20
52.1071
0
VERTEX
8
CUT
10
76.8061
20
49.9643
0
VERTEX
8
CUT
10
76.9388
20
47.8214
0
VERTEX
8
CUT
10
77.1245
20
45.6786
0
VERTEX
8
CUT
10
77.3633
20
43.5357
0
VERTEX
8
CUT
10
77.6551
20
41.3929
0
VERTEX
8
CUT
10
78
20
39.25
0
SEQEND
0
POLYLINE
8
CUT
66
1
70
0
0
VERTEX
8
CUT
10
78
20
37.75
0
VERTEX
8
CUT
10
77.6551
20
35.6071
0
VERTEX
8
CUT
10
77.3633
20
33.4643
0
VERTEX
8
CUT
10
77.1245
20
31.3214
0
VERTEX
8
CUT
10
76.9388
20
29.1786
0
VERTEX
8
CUT
10
76.8061
20
27.0357
0
VERTEX
8
CUT
10
76.7265
20
24.8929
0
VERTEX
8
CUT
10
76.7
20
22.75
0
VERTEX
8
CUT
10
76.7265
20
20.6071
0
VERTEX
8
CUT
10
76.8061
20
18.4643
0
VERTEX
8
CUT
10
76.9388
20
16.3214
0
VERTEX
8
CUT
10
77.1245
20
14.1786
0
VERTEX
8
CUT
10
77.3633
20
12.0357
0
VERTEX
8
CUT
10
77.6551
20
9.8929
0
VERTEX
8
CUT
10
78
20
7.75
0
SEQEND
0
POLYLINE
8
CUT
66
1
70
0
0
VERTEX
8
CUT
10
78
20
6.25
0
VERTEX
8
CUT
10
77.6551
20
4.1071
0
VERTEX
8
CUT
10
77.3633
20
1.9643
0
VERTEX
8
CUT
10
77.1444
20
0
0
SEQEND
0
POLYLINE
8
CUT
66
1
70
0
0
VERTEX
8
CUT
10
83.3
20
70
0
VERTEX
8
CUT
10
83.3
20
70
0
VERTEX
8
CUT
10
83.2735
20
67.8571
0
VERTEX
8
CUT
10
83.1939
20
65.7143
0
VERTEX
8
CUT
10
83.0612
20
63.5714
0
VERTEX
8
CUT
10
82.8755
20
61.4286
0
VERTEX
8
CUT
10
82.6367
20
59.2857
0
VERTEX
8
CUT
10
82.3449
20
57.1429
0
VERTEX
8
CUT
10
82
20
55
0
SEQEND
0
POLYLINE
8
CUT
66
1
70
0
0
VERTEX
8
CUT
10
82
20
53.5
0
VERTEX
8
CUT
10
82.3449
20
51.3571
0
VERTEX
8
CUT
10
82.6367
20
49.2143
0
VERTEX
8
CUT
10
82.8755
20
47.0714
0
VERTEX
8
CUT
10
83.0612
20
44.9286
0
VERTEX
8
CUT
10
83.1939
20
42.7857
0
VERTEX
8
CUT
10
83.2735
20
40.6429
0
VERTEX
8
CUT
10
83.3
20
38.5
0
VERTEX
8
CUT
10
83.2735
20
36.3571
0
VERTEX
8
CUT
10
83.1939
20
34.2143
0
VERTEX
8
CUT
10
83.0612
20
32.0714
0
VERTEX
8
CUT
10
82.8755
20
29.9286
0
VERTEX
8
CUT
10
82.6367
20
27.7857
0
VERTEX
8
CUT
10
82.3449
20
25.6429
0
VERTEX
8
CUT
10
82
20
23.5
0
SEQEND
0
POLYLINE
8
CUT
66
1
70
0
0
VERTEX
8
CUT
10
82
20
22
0
VERTEX
8
CUT
10
82.3449
20
19.8571
0
VERTEX
8
CUT
10
82.6367
20
17.7143
0
VERTEX
8
CUT
10
82.8755
20
15.5714
0
VERTEX
8
CUT
10
83.0612
20
13.4286
0
VERTEX
8
CUT
10
83.1939
20
11.2857
0
VERTEX
8
CUT
10
83.2735
20
9.1429
0
VERTEX
8
CUT
10
83.3
20
7
0
VERTEX
8
CUT
10
83.2735
20
4.8571
0
VERTEX
8
CUT
10
83.1939
20
2.7143
0
VERTEX
8
CUT
10
83.0612
20
0.5714
0
VERTEX
8
CUT
10
83.0117
20
0
0
SEQEND
0
POLYLINE
8
CUT
66
1
70
0
0
VERTEX
8
CUT
10
86
20
69.25
0
VERTEX
8
CUT
10
85.6551
20
67.1071
0
VERTEX
8
CUT
10
85.3633
20
64.9643
0
VERTEX
8
CUT
10
85.1245
20
62.8214
0
VERTEX
8
CUT
10
84.9388
20
60.6786
0
VERTEX
8
CUT
10
84.8061
20
58.5357
0
VERTEX
8
CUT
10
84.7265
20
56.3929
0
VERTEX
8
CUT
10
84.7
20
54.25
0
VERTEX
8
CUT
10
84.7265
20
52.1071
0
VERTEX
8
CUT
10
84.8061
20
49.9643
0
VERTEX
8
CUT
10
84.9388
20
47.8214
0
VERTEX
8
CUT
10
85.1245
20
45.6786
0
VERTEX
8
CUT
10
85.3633
20
43.5357
0
VERTEX
8
CUT
10
85.6551
20
41.3929
0
VERTEX
8
CUT
10
86
20
39.25
0
SEQEND
0
POLYLINE
8
CUT
66
1
70
0
0
VERTEX
8
CUT
10
86
20
37.75
0
VERTEX
8
CUT
10
85.6551
20
35.6071
0
VERTEX
8
CUT
10
85.3633
20
33.4643
0
VERTEX
8
CUT
10
85.1245
20
31.3214
0
VERTEX
8
CUT
10
84.9388
20
29.1786
0
VERTEX
8
CUT
10
84.8061
20
27.0357
0
VERTEX
8
CUT
10
84.7265
20
24.8929
0
VERTEX
8
CUT
10
84.7
20
22.75
0
VERTEX
8
CUT
10
84.7265
20
20.6071
0
VERTEX
8
CUT
10
84.8061
20
18.4643
0
VERTEX
8
CUT
10
84.9388
20
16.3214
0
VERTEX
8
CUT
10
85.1245
20
14.1786
0
VERTEX
8
CUT
10
85.3633
20
12.0357
0
VERTEX
8
CUT
10
85.6551
20
9.8929
0
VERTEX
8
CUT
10
86
20
7.75
0
SEQEND
0
POLYLINE
8
CUT
66
1
70
0
0
VERTEX
8
CUT
10
86
20
6.25
0
VERTEX
8
CUT
10
85.6551
20
4.1071
0
VERTEX
8
CUT
10
85.3633
20
1.9643
0
VERTEX
8
CUT
10
85.1444
20
0
0
SEQEND
0
POLYLINE
8
CUT
66
1
70
0
0
VERTEX
8
CUT
10
91.3
20
70
0
VERTEX
8
CUT
10
91.3
20
70
0
VERTEX
8
CUT
10
91.2735
20
67.8571
0
VERTEX
8
CUT
10
91.1939
20
65.7143
0
VERTEX
8
CUT
10
91.0612
20
63.5714
0
VERTEX
8
CUT
10
90.8755
20
61.4286
0
VERTEX
8
CUT
10
90.6367
20
59.2857
0
VERTEX
8
CUT
10
90.3449
20
57.1429
0
VERTEX
8
CUT
10
90
20
55
0
SEQEND
0
POLYLINE
8
CUT
66
1
70
0
0
VERTEX
8
CUT
10
90
20
53.5
0
VERTEX
8
CUT
10
90.3449
20
51.3571
0
VERTEX
8
CUT
10
90.6367
20
49.2143
0
VERTEX
8
CUT
10
90.8755
20
47.0714
0
VERTEX
8
CUT
10
91.0612
20
44.9286
0
VERTEX
8
CUT
10
91.1939
20
42.7857
0
VERTEX
8
CUT
10
91.2735
20
40.6429
0
VERTEX
8
CUT
10
91.3
20
38.5
0
VERTEX
8
CUT
10
91.2735
20
36.3571
0
VERTEX
8
CUT
10
91.1939
20
34.2143
0
VERTEX
8
CUT
10
91.0612
20
32.0714
0
VERTEX
8
CUT
10
90.8755
20
29.9286
0
VERTEX
8
CUT
10
90.6367
20
27.7857
0
VERTEX
8
CUT
10
90.3449
20
25.6429
0
VERTEX
8
CUT
10
90
20
23.5
0
SEQEND
0
POLYLINE
8
CUT
66
1
70
0
0
VERTEX
8
CUT
10
90
20
22
0
VERTEX
8
CUT
10
90.3449
20
19.8571
0
VERTEX
8
CUT
10
90.6367
20
17.7143
0
VERTEX
8
CUT
10
90.8755
20
15.5714
0
VERTEX
8
CUT
10
91.0612
20
13.4286
0
VERTEX
8
CUT
10
91.1939
20
11.2857
0
VERTEX
8
CUT
10
91.2735
20
9.1429
0
VERTEX
8
CUT
10
91.3
20
7
0
VERTEX
8
CUT
10
91.2735
20
4.8571
0
VERTEX
8
CUT
10
91.1939
20
2.7143
0
VERTEX
8
CUT
10
91.0612
20
0.5714
0
VERTEX
8
CUT
10
91.0117
20
0
0
SEQEND
0
POLYLINE
8
CUT
66
1
70
0
0
VERTEX
8
CUT
10
94
20
69.25
0
VERTEX
8
CUT
10
93.6551
20
67.1071
0
VERTEX
8
CUT
10
93.3633
20
64.9643
0
VERTEX
8
CUT
10
93.1245
20
62.8214
0
VERTEX
8
CUT
10
92.9388
20
60.6786
0
VERTEX
8
CUT
10
92.8061
20
58.5357
0
VERTEX
8
CUT
10
92.7265
20
56.3929
0
VERTEX
8
CUT
10
92.7
20
54.25
0
VERTEX
8
CUT
10
92.7265
20
52.1071
0
VERTEX
8
CUT
10
92.8061
20
49.9643
0
VERTEX
8
CUT
10
92.9388
20
47.8214
0
VERTEX
8
CUT
10
93.1245
20
45.6786
0
VERTEX
8
CUT
10
93.3633
20
43.5357
0
VERTEX
8
CUT
10
93.6551
20
41.3929
0
VERTEX
8
CUT
10
94
20
39.25
0
SEQEND
0
POLYLINE
8
CUT
66
1
70
0
0
VERTEX
8
CUT
10
94
20
37.75
0
VERTEX
8
CUT
10
93.6551
20
35.6071
0
VERTEX
8
CUT
10
93.3633
20
33.4643
0
VERTEX
8
CUT
10
93.1245
20
31.3214
0
VERTEX
8
CUT
10
92.9388
20
29.1786
0
VERTEX
8
CUT
10
92.8061
20
27.0357
0
VERTEX
8
CUT
10
92.7265
20
24.8929
0
VERTEX
8
CUT
10
92.7
20
22.75
0
VERTEX
8
CUT
10
92.7265
20
20.6071
0
VERTEX
8
CUT
10
92.8061
20
18.4643
0
VERTEX
8
CUT
10
92.9388
20
16.3214
0
VERTEX
8
CUT
10
93.1245
20
14.1786
0
VERTEX
8
CUT
10
93.3633
20
12.0357
0
VERTEX
8
CUT
10
93.6551
20
9.8929
0
VERTEX
8
CUT
10
94
20
7.75
0
SEQEND
0
POLYLINE
8
CUT
66
1
70
0
0
VERTEX
8
CUT
10
94
20
6.25
0
VERTEX
8
CUT
10
93.6551
20
4.1071
0
VERTEX
8
CUT
10
93.3633
20
1.9643
0
VERTEX
8
CUT
10
93.1444
20
0
0
SEQEND
0
POLYLINE
8
CUT
66
1
70
0
0
VERTEX
8
CUT
10
99.3
20
70
0
VERTEX
8
CUT
10
99.3
20
70
0
VERTEX
8
CUT
10
99.2735
20
67.8571
0
VERTEX
8
CUT
10
99.1939
20
65.7143
0
VERTEX
8
CUT
10
99.0612
20
63.5714
0
VERTEX
8
CUT
10
98.8755
20
61.4286
0
VERTEX
8
CUT
10
98.6367
20
59.2857
0
VERTEX
8
CUT
10
98.3449
20
57.1429
0
VERTEX
8
CUT
10
98
20
55
0
SEQEND
0
POLYLINE
8
CUT
66
1
70
0
0
VERTEX
8
CUT
10
98
20
53.5
0
VERTEX
8
CUT
10
98.3449
20
51.3571
0
VERTEX
8
CUT
10
98.6367
20
49.2143
0
VERTEX
8
CUT
10
98.8755
20
47.0714
0
VERTEX
8
CUT
10
99.0612
20
44.9286
0
VERTEX
8
CUT
10
99.1939
20
42.7857
0
VERTEX
8
CUT
10
99.2735
20
40.6429
0
VERTEX
8
CUT
10
99.3
20
38.5
0
VERTEX
8
CUT
10
99.2735
20
36.3571
0
VERTEX
8
CUT
10
99.1939
20
34.2143
0
VERTEX
8
CUT
10
99.0612
20
32.0714
0
VERTEX
8
CUT
10
98.8755
20
29.9286
0
VERTEX
8
CUT
10
98.6367
20
27.7857
0
VERTEX
8
CUT
10
98.3449
20
25.6429
0
VERTEX
8
CUT
10
98
20
23.5
0
SEQEND
0
POLYLINE
8
CUT
66
1
70
0
0
VERTEX
8
CUT
10
98
20
22
0
VERTEX
8
CUT
10
98.3449
20
19.8571
0
VERTEX
8
CUT
10
98.6367
20
17.7143
0
VERTEX
8
CUT
10
98.8755
20
15.5714
0
VERTEX
8
CUT
10
99.0612
20
13.4286
0
VERTEX
8
CUT
10
99.1939
20
11.2857
0
VERTEX
8
CUT
10
99.2735
20
9.1429
0
VERTEX
8
CUT
10
99.3
20
7
0
VERTEX
8
CUT
10
99.2735
20
4.8571
0
VERTEX
8
CUT
10
99.1939
20
2.7143
0
VERTEX
8
CUT
10
99.0612
20
0.5714
0
VERTEX
8
CUT
10
99.0117
20
0
0
SEQEND
0
POLYLINE
8
CUT
66
1
70
0
0
VERTEX
8
CUT
10
102
20
69.25
0
VERTEX
8
CUT
10
101.6551
20
67.1071
0
VERTEX
8
CUT
10
101.3633
20
64.9643
0
VERTEX
8
CUT
10
101.1245
20
62.8214
0
VERTEX
8
CUT
10
100.9388
20
60.6786
0
VERTEX
8
CUT
10
100.8061
20
58.5357
0
VERTEX
8
CUT
10
100.7265
20
56.3929
0
VERTEX
8
CUT
10
100.7
20
54.25
0
VERTEX
8
CUT
10
100.7265
20
52.1071
0
VERTEX
8
CUT
10
100.8061
20
49.9643
0
VERTEX
8
CUT
10
100.9388
20
47.8214
0
VERTEX
8
CUT
10
101.1245
20
45.6786
0
VERTEX
8
CUT
10
101.3633
20
43.5357
0
VERTEX
8
CUT
10
101.6551
20
41.3929
0
VERTEX
8
CUT
10
102
20
39.25
0
SEQEND
0
POLYLINE
8
CUT
66
1
70
0
0
VERTEX
8
CUT
10
102
20
37.75
0
VERTEX
8
CUT
10
101.6551
20
35.6071
0
VERTEX
8
CUT
10
101.3633
20
33.4643
0
VERTEX
8
CUT
10
101.1245
20
31.3214
0
VERTEX
8
CUT
10
100.9388
20
29.1786
0
VERTEX
8
CUT
10
100.8061
20
27.0357
0
VERTEX
8
CUT
10
100.7265
20
24.8929
0
VERTEX
8
CUT
10
100.7
20
22.75
0
VERTEX
8
CUT
10
100.7265
20
20.6071
0
VERTEX
8
CUT
10
100.8061
20
18.4643
0
VERTEX
8
CUT
10
100.9388
20
16.3214
0
VERTEX
8
CUT
10
101.1245
20
14.1786
0
VERTEX
8
CUT
10
101.3633
20
12.0357
0
VERTEX
8
CUT
10
101.6551
20
9.8929
0
VERTEX
8
CUT
10
102
20
7.75
0
SEQEND
0
POLYLINE
8
CUT
66
1
70
0
0
VERTEX
8
CUT
10
102
20
6.25
0
VERTEX
8
CUT
10
101.6551
20
4.1071
0
VERTEX
8
CUT
10
101.3633
20
1.9643
0
VERTEX
8
CUT
10
101.1444
20
0
0
SEQEND
0
POLYLINE
8
CUT
66
1
70
0
0
VERTEX
8
CUT
10
107.3
20
70
0
VERTEX
8
CUT
10
107.3
20
70
0
VERTEX
8
CUT
10
107.2735
20
67.8571
0
VERTEX
8
CUT
10
107.1939
20
65.7143
0
VERTEX
8
CUT
10
107.0612
20
63.5714
0
VERTEX
8
CUT
10
106.8755
20
61.4286
0
VERTEX
8
CUT
10
106.6367
20
59.2857
0
VERTEX
8
CUT
10
106.3449
20
57.1429
0
VERTEX
8
CUT
10
106
20
55
0
SEQEND
0
POLYLINE
8
CUT
66
1
70
0
0
VERTEX
8
CUT
10
106
20
53.5
0
VERTEX
8
CUT
10
106.3449
20
51.3571
0
VERTEX
8
CUT
10
106.6367
20
49.2143
0
VERTEX
8
CUT
10
106.8755
20
47.0714
0
VERTEX
8
CUT
10
107.0612
20
44.9286
0
VERTEX
8
CUT
10
107.1939
20
42.7857
0
VERTEX
8
CUT
10
107.2735
20
40.6429
0
VERTEX
8
CUT
10
107.3
20
38.5
0
VERTEX
8
CUT
10
107.2735
20
36.3571
0
VERTEX
8
CUT
10
107.1939
20
34.2143
0
VERTEX
8
CUT
10
107.0612
20
32.0714
0
VERTEX
8
CUT
10
106.8755
20
29.9286
0
VERTEX
8
CUT
10
106.6367
20
27.7857
0
VERTEX
8
CUT
10
106.3449
20
25.6429
0
VERTEX
8
CUT
10
106
20
23.5
0
SEQEND
0
POLYLINE
8
CUT
66
1
70
0
0
VERTEX
8
CUT
10
106
20
22
0
VERTEX
8
CUT
10
106.3449
20
19.8571
0
VERTEX
8
CUT
10
106.6367
20
17.7143
0
VERTEX
8
CUT
10
106.8755
20
15.5714
0
VERTEX
8
CUT
10
107.0612
20
13.4286
0
VERTEX
8
CUT
10
107.1939
20
11.2857
0
VERTEX
8
CUT
10
107.2735
20
9.1429
0
VERTEX
8
CUT
10
107.3
20
7
0
VERTEX
8
CUT
10
107.2735
20
4.8571
0
VERTEX
8
CUT
10
107.1939
20
2.7143
0
VERTEX
8
CUT
10
107.0612
20
0.5714
0
VERTEX
8
CUT
10
107.0117
20
0
0
SEQEND
0
POLYLINE
8
CUT
66
1
70
0
0
VERTEX
8
CUT
10
110
20
69.25
0
VERTEX
8
CUT
10
109.6551
20
67.1071
0
VERTEX
8
CUT
10
109.3633
20
64.9643
0
VERTEX
8
CUT
10
109.1245
20
62.8214
0
VERTEX
8
CUT
10
108.9388
20
60.6786
0
VERTEX
8
CUT
10
108.8061
20
58.5357
0
VERTEX
8
CUT
10
108.7265
20
56.3929
0
VERTEX
8
CUT
10
108.7
20
54.25
0
VERTEX
8
CUT
10
108.7265
20
52.1071
0
VERTEX
8
CUT
10
108.8061
20
49.9643
0
VERTEX
8
CUT
10
108.9388
20
47.8214
0
VERTEX
8
CUT
10
109.1245
20
45.6786
0
VERTEX
8
CUT
10
109.3633
20
43.5357
0
VERTEX
8
CUT
10
109.6551
20
41.3929
0
VERTEX
8
CUT
10
110
20
39.25
0
SEQEND
0
POLYLINE
8
CUT
66
1
70
0
0
VERTEX
8
CUT
10
110
20
37.75
0
VERTEX
8
CUT
10
109.6551
20
35.6071
0
VERTEX
8
CUT
10
109.3633
20
33.4643
0
VERTEX
8
CUT
10
109.1245
20
31.3214
0
VERTEX
8
CUT
10
108.9388
20
29.1786
0
VERTEX
8
CUT
10
108.8061
20
27.0357
0
VERTEX
8
CUT
10
108.7265
20
24.8929
0
VERTEX
8
CUT
10
108.7
20
22.75
0
VERTEX
8
CUT
10
108.7265
20
20.6071
0
VERTEX
8
CUT
10
108.8061
20
18.4643
0
VERTEX
8
CUT
10
108.9388
20
16.3214
0
VERTEX
8
CUT
10
109.1245
20
14.1786
0
VERTEX
8
CUT
10
109.3633
20
12.0357
0
VERTEX
8
CUT
10
109.6551
20
9.8929
0
VERTEX
8
CUT
10
110
20
7.75
0
SEQEND
0
POLYLINE
8
CUT
66
1
70
0
0
VERTEX
8
CUT
10
110
20
6.25
0
VERTEX
8
CUT
10
109.6551
20
4.1071
0
VERTEX
8
CUT
10
109.3633
20
1.9643
0
VERTEX
8
CUT
10
109.1444
20
0
0
SEQEND
0
POLYLINE
8
CUT
66
1
70
0
0
VERTEX
8
CUT
10
115.3
20
70
0
VERTEX
8
CUT
10
115.3
20
70
0
VERTEX
8
CUT
10
115.2735
20
67.8571
0
VERTEX
8
CUT
10
115.1939
20
65.7143
0
VERTEX
8
CUT
10
115.0612
20
63.5714
0
VERTEX
8
CUT
10
114.8755
20
61.4286
0
VERTEX
8
CUT
10
114.6367
20
59.2857
0
VERTEX
8
CUT
10
114.3449
20
57.1429
0
VERTEX
8
CUT
10
114
20
55
0
SEQEND
0
POLYLINE
8
CUT
66
1
70
0
0
VERTEX
8
CUT
10
114
20
53.5
0
VERTEX
8
CUT
10
114.3449
20
51.3571
0
VERTEX
8
CUT
10
114.6367
20
49.2143
0
VERTEX
8
CUT
10
114.8755
20
47.0714
0
VERTEX
8
CUT
10
115.0612
20
44.9286
0
VERTEX
8
CUT
10
115.1939
20
42.7857
0
VERTEX
8
CUT
10
115.2735
20
40.6429
0
VERTEX
8
CUT
10
115.3
20
38.5
0
VERTEX
8
CUT
10
115.2735
20
36.3571
0
VERTEX
8
CUT
10
115.1939
20
34.2143
0
VERTEX
8
CUT
10
115.0612
20
32.0714
0
VERTEX
8
CUT
10
114.8755
20
29.9286
0
VERTEX
8
CUT
10
114.6367
20
27.7857
0
VERTEX
8
CUT
10
114.3449
20
25.6429
0
VERTEX
8
CUT
10
114
20
23.5
0
SEQEND
0
POLYLINE
8
CUT
66
1
70
0
0
VERTEX
8
CUT
10
114
20
22
0
VERTEX
8
CUT
10
114.3449
20
19.8571
0
VERTEX
8
CUT
10
114.6367
20
17.7143
0
VERTEX
8
CUT
10
114.8755
20
15.5714
0
VERTEX
8
CUT
10
115.0612
20
13.4286
0
VERTEX
8
CUT
10
115.1939
20
11.2857
0
VERTEX
8
CUT
10
115.2735
20
9.1429
0
VERTEX
8
CUT
10
115.3
20
7
0
VERTEX
8
CUT
10
115.2735
20
4.8571
0
VERTEX
8
CUT
10
115.1939
20
2.7143
0
VERTEX
8
CUT
10
115.0612
20
0.5714
0
VERTEX
8
CUT
10
115.0117
20
0
0
SEQEND
0
POLYLINE
8
CUT
66
1
70
0
0
VERTEX
8
CUT
10
118
20
69.25
0
VERTEX
8
CUT
10
117.6551
20
67.1071
0
VERTEX
8
CUT
10
117.3633
20
64.9643
0
VERTEX
8
CUT
10
117.1245
20
62.8214
0
VERTEX
8
CUT
10
116.9388
20
60.6786
0
VERTEX
8
CUT
10
116.8061
20
58.5357
0
VERTEX
8
CUT
10
116.7265
20
56.3929
0
VERTEX
8
CUT
10
116.7
20
54.25
0
VERTEX
8
CUT
10
116.7265
20
52.1071
0
VERTEX
8
CUT
10
116.8061
20
49.9643
0
VERTEX
8
CUT
10
116.9388
20
47.8214
0
VERTEX
8
CUT
10
117.1245
20
45.6786
0
VERTEX
8
CUT
10
117.3633
20
43.5357
0
VERTEX
8
CUT
10
117.6551
20
41.3929
0
VERTEX
8
CUT
10
118
20
39.25
0
SEQEND
0
POLYLINE
8
CUT
66
1
70
0
0
VERTEX
8
CUT
10
118
20
37.75
0
VERTEX
8
CUT
10
117.6551
20
35.6071
0
VERTEX
8
CUT
10
117.3633
20
33.4643
0
VERTEX
8
CUT
10
117.1245
20
31.3214
0
VERTEX
8
CUT
10
116.9388
20
29.1786
0
VERTEX
8
CUT
10
116.8061
20
27.0357
0
VERTEX
8
CUT
10
116.7265
20
24.8929
0
VERTEX
8
CUT
10
116.7
20
22.75
0
VERTEX
8
CUT
10
116.7265
20
20.6071
0
VERTEX
8
CUT
10
116.8061
20
18.4643
0
VERTEX
8
CUT
10
116.9388
20
16.3214
0
VERTEX
8
CUT
10
117.1245
20
14.1786
0
VERTEX
8
CUT
10
117.3633
20
12.0357
0
VERTEX
8
CUT
10
117.6551
20
9.8929
0
VERTEX
8
CUT
10
118
20
7.75
0
SEQEND
0
POLYLINE
8
CUT
66
1
70
0
0
VERTEX
8
CUT
10
118
20
6.25
0
VERTEX
8
CUT
10
117.6551
20
4.1071
0
VERTEX
8
CUT
10
117.3633
20
1.9643
0
VERTEX
8
CUT
10
117.1444
20
0
0
SEQEND
0
POLYLINE
8
CUT
66
1
70
0
0
VERTEX
8
CUT
10
0
20
70
0
VERTEX
8
CUT
10
120
20
70
0
VERTEX
8
CUT
10
120
20
0
0
VERTEX
8
CUT
10
0
20
0
0
VERTEX
8
CUT
10
0
20
70
0
SEQEND
0
ENDSEC
0
EOF
