0
SECTION
2
HEADER
9
$ACADVER
1
AC1009
9
$INSUNITS
70
4
0
ENDSEC
0
SECTION
2
TABLES
0
TABLE
2
LAYER
70
1
0
LAYER
2
CUT
70
0
62
1
6
CONTINUOUS
0
ENDTAB
0
ENDSEC
0
SECTION
2
ENTITIES
0
LINE
8
CUT
10
0
20
69.8214
11
0.2474
21
70
0
LINE
8
CUT
10
0
20
68.9214
11
1.4945
21
70
0
LINE
8
CUT
10
6.4713
20
69.77
11
6.79
21
70
0
LINE
8
CUT
10
6.1526
20
70
11
6.4713
21
69.77
0
POLYLINE
8
CUT
66
1
70
0
0
VERTEX
8
CUT
10
4.9055
20
70
0
VERTEX
8
CUT
10
6.4713
20
68.87
0
VERTEX
8
CUT
10
8.0371
20
70
0
SEQEND
0
LINE
8
CUT
10
13.0138
20
69.77
11
13.3325
21
70
0
LINE
8
CUT
10
12.6951
20
70
11
13.0138
21
69.77
0
POLYLINE
8
CUT
66
1
70
0
0
VERTEX
8
CUT
10
11.4481
20
70
0
VERTEX
8
CUT
10
13.0138
20
68.87
0
VERTEX
8
CUT
10
14.5796
20
70
0
SEQEND
0
LINE
8
CUT
10
19.5564
20
69.77
11
19.8751
21
70
0
LINE
8
CUT
10
19.2377
20
70
11
19.5564
21
69.77
0
POLYLINE
8
CUT
66
1
70
0
0
VERTEX
8
CUT
10
17.9906
20
70
0
VERTEX
8
CUT
10
19.5564
20
68.87
0
VERTEX
8
CUT
10
21.1222
20
70
0
SEQEND
0
LINE
8
CUT
10
26.099
20
69.77
11
26.4177
21
70
0
LINE
8
CUT
10
25.7803
20
70
11
26.099
21
69.77
0
POLYLINE
8
CUT
66
1
70
0
0
VERTEX
8
CUT
10
24.5332
20
70
0
VERTEX
8
CUT
10
26.099
20
68.87
0
VERTEX
8
CUT
10
27.6647
20
70
0
SEQEND
0
LINE
8
CUT
10
32.6415
20
69.77
11
32.9602
21
70
0
LINE
8
CUT
10
32.3228
20
70
11
32.6415
21
69.77
0
POLYLINE
8
CUT
66
1
70
0
0
VERTEX
8
CUT
10
31.0758
20
70
0
VERTEX
8
CUT
10
32.6415
20
68.87
0
VERTEX
8
CUT
10
34.2073
20
70
0
SEQEND
0
LINE
8
CUT
10
39.1841
20
69.77
11
39.5028
21
70
0
LINE
8
CUT
10
38.8654
20
70
11
39.1841
21
69.77
0
POLYLINE
8
CUT
66
1
70
0
0
VERTEX
8
CUT
10
37.6183
20
70
0
VERTEX
8
CUT
10
39.1841
20
68.87
0
VERTEX
8
CUT
10
40.7499
20
70
0
SEQEND
0
LINE
8
CUT
10
45.7267
20
69.77
11
46.0454
21
70
0
LINE
8
CUT
10
45.408
20
70
11
45.7267
21
69.77
0
POLYLINE
8
CUT
66
1
70
0
0
VERTEX
8
CUT
10
44.1609
20
70
0
VERTEX
8
CUT
10
45.7267
20
68.87
0
VERTEX
8
CUT
10
47.2924
20
70
0
SEQEND
0
LINE
8
CUT
10
52.2692
20
69.77
11
52.5879
21
70
0
LINE
8
CUT
10
51.9505
20
70
11
52.2692
21
69.77
0
POLYLINE
8
CUT
66
1
70
0
0
VERTEX
8
CUT
10
50.7034
20
70
0
VERTEX
8
CUT
10
52.2692
20
68.87
0
VERTEX
8
CUT
10
53.835
20
70
0
SEQEND
0
LINE
8
CUT
10
58.8118
20
69.77
11
59.1305
21
70
0
LINE
8
CUT
10
58.4931
20
70
11
58.8118
21
69.77
0
POLYLINE
8
CUT
66
1
70
0
0
VERTEX
8
CUT
10
57.246
20
70
0
VERTEX
8
CUT
10
58.8118
20
68.87
0
VERTEX
8
CUT
10
60.3776
20
70
0
SEQEND
0
LINE
8
CUT
10
65.3543
20
69.77
11
65.673
21
70
0
LINE
8
CUT
10
65.0356
20
70
11
65.3543
21
69.77
0
POLYLINE
8
CUT
66
1
70
0
0
VERTEX
8
CUT
10
63.7886
20
70
0
VERTEX
8
CUT
10
65.3543
20
68.87
0
VERTEX
8
CUT
10
66.9201
20
70
0
SEQEND
0
LINE
8
CUT
10
71.8969
20
69.77
11
72.2156
21
70
0
LINE
8
CUT
10
71.5782
20
70
11
71.8969
21
69.77
0
POLYLINE
8
CUT
66
1
70
0
0
VERTEX
8
CUT
10
70.3311
20
70
0
VERTEX
8
CUT
10
71.8969
20
68.87
0
VERTEX
8
CUT
10
73.4627
20
70
0
SEQEND
0
LINE
8
CUT
10
78.4395
20
69.77
11
78.7582
21
70
0
LINE
8
CUT
10
78.1208
20
70
11
78.4395
21
69.77
0
POLYLINE
8
CUT
66
1
70
0
0
VERTEX
8
CUT
10
76.8737
20
70
0
VERTEX
8
CUT
10
78.4395
20
68.87
0
VERTEX
8
CUT
10
80.0052
20
70
0
SEQEND
0
LINE
8
CUT
10
84.982
20
69.77
11
85.3007
21
70
0
LINE
8
CUT
10
84.6633
20
70
11
84.982
21
69.77
0
POLYLINE
8
CUT
66
1
70
0
0
VERTEX
8
CUT
10
83.4163
20
70
0
VERTEX
8
CUT
10
84.982
20
68.87
0
VERTEX
8
CUT
10
86.5478
20
70
0
SEQEND
0
LINE
8
CUT
10
91.5246
20
69.77
11
91.8433
21
70
0
LINE
8
CUT
10
91.2059
20
70
11
91.5246
21
69.77
0
POLYLINE
8
CUT
66
1
70
0
0
VERTEX
8
CUT
10
89.9588
20
70
0
VERTEX
8
CUT
10
91.5246
20
68.87
0
VERTEX
8
CUT
10
93.0904
20
70
0
SEQEND
0
LINE
8
CUT
10
98.0672
20
69.77
11
98.3859
21
70
0
LINE
8
CUT
10
97.7485
20
70
11
98.0672
21
69.77
0
POLYLINE
8
CUT
66
1
70
0
0
VERTEX
8
CUT
10
96.5014
20
70
0
VERTEX
8
CUT
10
98.0672
20
68.87
0
VERTEX
8
CUT
10
99.6329
20
70
0
SEQEND
0
LINE
8
CUT
10
104.6097
20
69.77
11
104.9284
21
70
0
LINE
8
CUT
10
104.291
20
70
11
104.6097
21
69.77
0
POLYLINE
8
CUT
66
1
70
0
0
VERTEX
8
CUT
10
103.0439
20
70
0
VERTEX
8
CUT
10
104.6097
20
68.87
0
VERTEX
8
CUT
10
106.1755
20
70
0
SEQEND
0
LINE
8
CUT
10
111.1523
20
69.77
11
111.471
21
70
0
LINE
8
CUT
10
110.8336
20
70
11
111.1523
21
69.77
0
POLYLINE
8
CUT
66
1
70
0
0
VERTEX
8
CUT
10
109.5865
20
70
0
VERTEX
8
CUT
10
111.1523
20
68.87
0
VERTEX
8
CUT
10
112.7181
20
70
0
SEQEND
0
LINE
8
CUT
10
117.6948
20
69.77
11
118.0135
21
70
0
LINE
8
CUT
10
117.3761
20
70
11
117.6948
21
69.77
0
POLYLINE
8
CUT
66
1
70
0
0
VERTEX
8
CUT
10
116.1291
20
70
0
VERTEX
8
CUT
10
117.6948
20
68.87
0
VERTEX
8
CUT
10
119.2606
20
70
0
SEQEND
0
POLYLINE
8
CUT
66
1
70
0
0
VERTEX
8
CUT
10
3.2
20
62.9
0
VERTEX
8
CUT
10
5.3477
20
64.45
0
VERTEX
8
CUT
10
5.3477
20
67.55
0
VERTEX
8
CUT
10
3.2
20
69.1
0
VERTEX
8
CUT
10
1.0523
20
67.55
0
VERTEX
8
CUT
10
1.0523
20
64.45
0
VERTEX
8
CUT
10
3.2
20
62.9
0
SEQEND
0
POLYLINE
8
CUT
66
1
70
0
0
VERTEX
8
CUT
10
5.9713
20
66.75
0
VERTEX
8
CUT
10
5.9713
20
68
0
VERTEX
8
CUT
10
3.2
20
70
0
VERTEX
8
CUT
10
0.4287
20
68
0
VERTEX
8
CUT
10
0.4287
20
66.75
0
SEQEND
0
POLYLINE
8
CUT
66
1
70
0
0
VERTEX
8
CUT
10
0.4287
20
65.25
0
VERTEX
8
CUT
10
0.4287
20
64
0
VERTEX
8
CUT
10
3.2
20
62
0
VERTEX
8
CUT
10
5.9713
20
64
0
VERTEX
8
CUT
10
5.9713
20
65.25
0
SEQEND
0
POLYLINE
8
CUT
66
1
70
0
0
VERTEX
8
CUT
10
9.7426
20
62.9
0
VERTEX
8
CUT
10
11.8903
20
64.45
0
VERTEX
8
CUT
10
11.8903
20
67.55
0
VERTEX
8
CUT
10
9.7426
20
69.1
0
VERTEX
8
CUT
10
7.5948
20
67.55
0
VERTEX
8
CUT
10
7.5948
20
64.45
0
VERTEX
8
CUT
10
9.7426
20
62.9
0
SEQEND
0
POLYLINE
8
CUT
66
1
70
0
0
VERTEX
8
CUT
10
12.5138
20
66.75
0
VERTEX
8
CUT
10
12.5138
20
68
0
VERTEX
8
CUT
10
9.7426
20
70
0
VERTEX
8
CUT
10
6.9713
20
68
0
VERTEX
8
CUT
10
6.9713
20
66.75
0
SEQEND
0
POLYLINE
8
CUT
66
1
70
0
0
VERTEX
8
CUT
10
6.9713
20
65.25
0
VERTEX
8
CUT
10
6.9713
20
64
0
VERTEX
8
CUT
10
9.7426
20
62
0
VERTEX
8
CUT
10
12.5138
20
64
0
VERTEX
8
CUT
10
12.5138
20
65.25
0
SEQEND
0
POLYLINE
8
CUT
66
1
70
0
0
VERTEX
8
CUT
10
16.2851
20
62.9
0
VERTEX
8
CUT
10
18.4329
20
64.45
0
VERTEX
8
CUT
10
18.4329
20
67.55
0
VERTEX
8
CUT
10
16.2851
20
69.1
0
VERTEX
8
CUT
10
14.1374
20
67.55
0
VERTEX
8
CUT
10
14.1374
20
64.45
0
VERTEX
8
CUT
10
16.2851
20
62.9
0
SEQEND
0
POLYLINE
8
CUT
66
1
70
0
0
VERTEX
8
CUT
10
19.0564
20
66.75
0
VERTEX
8
CUT
10
19.0564
20
68
0
VERTEX
8
CUT
10
16.2851
20
70
0
VERTEX
8
CUT
10
13.5138
20
68
0
VERTEX
8
CUT
10
13.5138
20
66.75
0
SEQEND
0
POLYLINE
8
CUT
66
1
70
0
0
VERTEX
8
CUT
10
13.5138
20
65.25
0
VERTEX
8
CUT
10
13.5138
20
64
0
VERTEX
8
CUT
10
16.2851
20
62
0
VERTEX
8
CUT
10
19.0564
20
64
0
VERTEX
8
CUT
10
19.0564
20
65.25
0
SEQEND
0
POLYLINE
8
CUT
66
1
70
0
0
VERTEX
8
CUT
10
22.8277
20
62.9
0
VERTEX
8
CUT
10
24.9754
20
64.45
0
VERTEX
8
CUT
10
24.9754
20
67.55
0
VERTEX
8
CUT
10
22.8277
20
69.1
0
VERTEX
8
CUT
10
20.6799
20
67.55
0
VERTEX
8
CUT
10
20.6799
20
64.45
0
VERTEX
8
CUT
10
22.8277
20
62.9
0
SEQEND
0
POLYLINE
8
CUT
66
1
70
0
0
VERTEX
8
CUT
10
25.599
20
66.75
0
VERTEX
8
CUT
10
25.599
20
68
0
VERTEX
8
CUT
10
22.8277
20
70
0
VERTEX
8
CUT
10
20.0564
20
68
0
VERTEX
8
CUT
10
20.0564
20
66.75
0
SEQEND
0
POLYLINE
8
CUT
66
1
70
0
0
VERTEX
8
CUT
10
20.0564
20
65.25
0
VERTEX
8
CUT
10
20.0564
20
64
0
VERTEX
8
CUT
10
22.8277
20
62
0
VERTEX
8
CUT
10
25.599
20
64
0
VERTEX
8
CUT
10
25.599
20
65.25
0
SEQEND
0
POLYLINE
8
CUT
66
1
70
0
0
VERTEX
8
CUT
10
29.3703
20
62.9
0
VERTEX
8
CUT
10
31.518
20
64.45
0
VERTEX
8
CUT
10
31.518
20
67.55
0
VERTEX
8
CUT
10
29.3703
20
69.1
0
VERTEX
8
CUT
10
27.2225
20
67.55
0
VERTEX
8
CUT
10
27.2225
20
64.45
0
VERTEX
8
CUT
10
29.3703
20
62.9
0
SEQEND
0
POLYLINE
8
CUT
66
1
70
0
0
VERTEX
8
CUT
10
32.1415
20
66.75
0
VERTEX
8
CUT
10
32.1415
20
68
0
VERTEX
8
CUT
10
29.3703
20
70
0
VERTEX
8
CUT
10
26.599
20
68
0
VERTEX
8
CUT
10
26.599
20
66.75
0
SEQEND
0
POLYLINE
8
CUT
66
1
70
0
0
VERTEX
8
CUT
10
26.599
20
65.25
0
VERTEX
8
CUT
10
26.599
20
64
0
VERTEX
8
CUT
10
29.3703
20
62
0
VERTEX
8
CUT
10
32.1415
20
64
0
VERTEX
8
CUT
10
32.1415
20
65.25
0
SEQEND
0
POLYLINE
8
CUT
66
1
70
0
0
VERTEX
8
CUT
10
35.9128
20
62.9
0
VERTEX
8
CUT
10
38.0606
20
64.45
0
VERTEX
8
CUT
10
38.0606
20
67.55
0
VERTEX
8
CUT
10
35.9128
20
69.1
0
VERTEX
8
CUT
10
33.7651
20
67.55
0
VERTEX
8
CUT
10
33.7651
20
64.45
0
VERTEX
8
CUT
10
35.9128
20
62.9
0
SEQEND
0
POLYLINE
8
CUT
66
1
70
0
0
VERTEX
8
CUT
10
38.6841
20
66.75
0
VERTEX
8
CUT
10
38.6841
20
68
0
VERTEX
8
CUT
10
35.9128
20
70
0
VERTEX
8
CUT
10
33.1415
20
68
0
VERTEX
8
CUT
10
33.1415
20
66.75
0
SEQEND
0
POLYLINE
8
CUT
66
1
70
0
0
VERTEX
8
CUT
10
33.1415
20
65.25
0
VERTEX
8
CUT
10
33.1415
20
64
0
VERTEX
8
CUT
10
35.9128
20
62
0
VERTEX
8
CUT
10
38.6841
20
64
0
VERTEX
8
CUT
10
38.6841
20
65.25
0
SEQEND
0
POLYLINE
8
CUT
66
1
70
0
0
VERTEX
8
CUT
10
42.4554
20
62.9
0
VERTEX
8
CUT
10
44.6031
20
64.45
0
VERTEX
8
CUT
10
44.6031
20
67.55
0
VERTEX
8
CUT
10
42.4554
20
69.1
0
VERTEX
8
CUT
10
40.3076
20
67.55
0
VERTEX
8
CUT
10
40.3076
20
64.45
0
VERTEX
8
CUT
10
42.4554
20
62.9
0
SEQEND
0
POLYLINE
8
CUT
66
1
70
0
0
VERTEX
8
CUT
10
45.2267
20
66.75
0
VERTEX
8
CUT
10
45.2267
20
68
0
VERTEX
8
CUT
10
42.4554
20
70
0
VERTEX
8
CUT
10
39.6841
20
68
0
VERTEX
8
CUT
10
39.6841
20
66.75
0
SEQEND
0
POLYLINE
8
CUT
66
1
70
0
0
VERTEX
8
CUT
10
39.6841
20
65.25
0
VERTEX
8
CUT
10
39.6841
20
64
0
VERTEX
8
CUT
10
42.4554
20
62
0
VERTEX
8
CUT
10
45.2267
20
64
0
VERTEX
8
CUT
10
45.2267
20
65.25
0
SEQEND
0
POLYLINE
8
CUT
66
1
70
0
0
VERTEX
8
CUT
10
48.9979
20
62.9
0
VERTEX
8
CUT
10
51.1457
20
64.45
0
VERTEX
8
CUT
10
51.1457
20
67.55
0
VERTEX
8
CUT
10
48.9979
20
69.1
0
VERTEX
8
CUT
10
46.8502
20
67.55
0
VERTEX
8
CUT
10
46.8502
20
64.45
0
VERTEX
8
CUT
10
48.9979
20
62.9
0
SEQEND
0
POLYLINE
8
CUT
66
1
70
0
0
VERTEX
8
CUT
10
51.7692
20
66.75
0
VERTEX
8
CUT
10
51.7692
20
68
0
VERTEX
8
CUT
10
48.9979
20
70
0
VERTEX
8
CUT
10
46.2267
20
68
0
VERTEX
8
CUT
10
46.2267
20
66.75
0
SEQEND
0
POLYLINE
8
CUT
66
1
70
0
0
VERTEX
8
CUT
10
46.2267
20
65.25
0
VERTEX
8
CUT
10
46.2267
20
64
0
VERTEX
8
CUT
10
48.9979
20
62
0
VERTEX
8
CUT
10
51.7692
20
64
0
VERTEX
8
CUT
10
51.7692
20
65.25
0
SEQEND
0
POLYLINE
8
CUT
66
1
70
0
0
VERTEX
8
CUT
10
55.5405
20
62.9
0
VERTEX
8
CUT
10
57.6882
20
64.45
0
VERTEX
8
CUT
10
57.6882
20
67.55
0
VERTEX
8
CUT
10
55.5405
20
69.1
0
VERTEX
8
CUT
10
53.3928
20
67.55
0
VERTEX
8
CUT
10
53.3928
20
64.45
0
VERTEX
8
CUT
10
55.5405
20
62.9
0
SEQEND
0
POLYLINE
8
CUT
66
1
70
0
0
VERTEX
8
CUT
10
58.3118
20
66.75
0
VERTEX
8
CUT
10
58.3118
20
68
0
VERTEX
8
CUT
10
55.5405
20
70
0
VERTEX
8
CUT
10
52.7692
20
68
0
VERTEX
8
CUT
10
52.7692
20
66.75
0
SEQEND
0
POLYLINE
8
CUT
66
1
70
0
0
VERTEX
8
CUT
10
52.7692
20
65.25
0
VERTEX
8
CUT
10
52.7692
20
64
0
VERTEX
8
CUT
10
55.5405
20
62
0
VERTEX
8
CUT
10
58.3118
20
64
0
VERTEX
8
CUT
10
58.3118
20
65.25
0
SEQEND
0
POLYLINE
8
CUT
66
1
70
0
0
VERTEX
8
CUT
10
62.0831
20
62.9
0
VERTEX
8
CUT
10
64.2308
20
64.45
0
VERTEX
8
CUT
10
64.2308
20
67.55
0
VERTEX
8
CUT
10
62.0831
20
69.1
0
VERTEX
8
CUT
10
59.9353
20
67.55
0
VERTEX
8
CUT
10
59.9353
20
64.45
0
VERTEX
8
CUT
10
62.0831
20
62.9
0
SEQEND
0
POLYLINE
8
CUT
66
1
70
0
0
VERTEX
8
CUT
10
64.8543
20
66.75
0
VERTEX
8
CUT
10
64.8543
20
68
0
VERTEX
8
CUT
10
62.0831
20
70
0
VERTEX
8
CUT
10
59.3118
20
68
0
VERTEX
8
CUT
10
59.3118
20
66.75
0
SEQEND
0
POLYLINE
8
CUT
66
1
70
0
0
VERTEX
8
CUT
10
59.3118
20
65.25
0
VERTEX
8
CUT
10
59.3118
20
64
0
VERTEX
8
CUT
10
62.0831
20
62
0
VERTEX
8
CUT
10
64.8543
20
64
0
VERTEX
8
CUT
10
64.8543
20
65.25
0
SEQEND
0
POLYLINE
8
CUT
66
1
70
0
0
VERTEX
8
CUT
10
68.6256
20
62.9
0
VERTEX
8
CUT
10
70.7734
20
64.45
0
VERTEX
8
CUT
10
70.7734
20
67.55
0
VERTEX
8
CUT
10
68.6256
20
69.1
0
VERTEX
8
CUT
10
66.4779
20
67.55
0
VERTEX
8
CUT
10
66.4779
20
64.45
0
VERTEX
8
CUT
10
68.6256
20
62.9
0
SEQEND
0
POLYLINE
8
CUT
66
1
70
0
0
VERTEX
8
CUT
10
71.3969
20
66.75
0
VERTEX
8
CUT
10
71.3969
20
68
0
VERTEX
8
CUT
10
68.6256
20
70
0
VERTEX
8
CUT
10
65.8543
20
68
0
VERTEX
8
CUT
10
65.8543
20
66.75
0
SEQEND
0
POLYLINE
8
CUT
66
1
70
0
0
VERTEX
8
CUT
10
65.8543
20
65.25
0
VERTEX
8
CUT
10
65.8543
20
64
0
VERTEX
8
CUT
10
68.6256
20
62
0
VERTEX
8
CUT
10
71.3969
20
64
0
VERTEX
8
CUT
10
71.3969
20
65.25
0
SEQEND
0
POLYLINE
8
CUT
66
1
70
0
0
VERTEX
8
CUT
10
75.1682
20
62.9
0
VERTEX
8
CUT
10
77.3159
20
64.45
0
VERTEX
8
CUT
10
77.3159
20
67.55
0
VERTEX
8
CUT
10
75.1682
20
69.1
0
VERTEX
8
CUT
10
73.0204
20
67.55
0
VERTEX
8
CUT
10
73.0204
20
64.45
0
VERTEX
8
CUT
10
75.1682
20
62.9
0
SEQEND
0
POLYLINE
8
CUT
66
1
70
0
0
VERTEX
8
CUT
10
77.9395
20
66.75
0
VERTEX
8
CUT
10
77.9395
20
68
0
VERTEX
8
CUT
10
75.1682
20
70
0
VERTEX
8
CUT
10
72.3969
20
68
0
VERTEX
8
CUT
10
72.3969
20
66.75
0
SEQEND
0
POLYLINE
8
CUT
66
1
70
0
0
VERTEX
8
CUT
10
72.3969
20
65.25
0
VERTEX
8
CUT
10
72.3969
20
64
0
VERTEX
8
CUT
10
75.1682
20
62
0
VERTEX
8
CUT
10
77.9395
20
64
0
VERTEX
8
CUT
10
77.9395
20
65.25
0
SEQEND
0
POLYLINE
8
CUT
66
1
70
0
0
VERTEX
8
CUT
10
81.7108
20
62.9
0
VERTEX
8
CUT
10
83.8585
20
64.45
0
VERTEX
8
CUT
10
83.8585
20
67.55
0
VERTEX
8
CUT
10
81.7108
20
69.1
0
VERTEX
8
CUT
10
79.563
20
67.55
0
VERTEX
8
CUT
10
79.563
20
64.45
0
VERTEX
8
CUT
10
81.7108
20
62.9
0
SEQEND
0
POLYLINE
8
CUT
66
1
70
0
0
VERTEX
8
CUT
10
84.482
20
66.75
0
VERTEX
8
CUT
10
84.482
20
68
0
VERTEX
8
CUT
10
81.7108
20
70
0
VERTEX
8
CUT
10
78.9395
20
68
0
VERTEX
8
CUT
10
78.9395
20
66.75
0
SEQEND
0
POLYLINE
8
CUT
66
1
70
0
0
VERTEX
8
CUT
10
78.9395
20
65.25
0
VERTEX
8
CUT
10
78.9395
20
64
0
VERTEX
8
CUT
10
81.7108
20
62
0
VERTEX
8
CUT
10
84.482
20
64
0
VERTEX
8
CUT
10
84.482
20
65.25
0
SEQEND
0
POLYLINE
8
CUT
66
1
70
0
0
VERTEX
8
CUT
10
88.2533
20
62.9
0
VERTEX
8
CUT
10
90.4011
20
64.45
0
VERTEX
8
CUT
10
90.4011
20
67.55
0
VERTEX
8
CUT
10
88.2533
20
69.1
0
VERTEX
8
CUT
10
86.1056
20
67.55
0
VERTEX
8
CUT
10
86.1056
20
64.45
0
VERTEX
8
CUT
10
88.2533
20
62.9
0
SEQEND
0
POLYLINE
8
CUT
66
1
70
0
0
VERTEX
8
CUT
10
91.0246
20
66.75
0
VERTEX
8
CUT
10
91.0246
20
68
0
VERTEX
8
CUT
10
88.2533
20
70
0
VERTEX
8
CUT
10
85.482
20
68
0
VERTEX
8
CUT
10
85.482
20
66.75
0
SEQEND
0
POLYLINE
8
CUT
66
1
70
0
0
VERTEX
8
CUT
10
85.482
20
65.25
0
VERTEX
8
CUT
10
85.482
20
64
0
VERTEX
8
CUT
10
88.2533
20
62
0
VERTEX
8
CUT
10
91.0246
20
64
0
VERTEX
8
CUT
10
91.0246
20
65.25
0
SEQEND
0
POLYLINE
8
CUT
66
1
70
0
0
VERTEX
8
CUT
10
94.7959
20
62.9
0
VERTEX
8
CUT
10
96.9436
20
64.45
0
VERTEX
8
CUT
10
96.9436
20
67.55
0
VERTEX
8
CUT
10
94.7959
20
69.1
0
VERTEX
8
CUT
10
92.6481
20
67.55
0
VERTEX
8
CUT
10
92.6481
20
64.45
0
VERTEX
8
CUT
10
94.7959
20
62.9
0
SEQEND
0
POLYLINE
8
CUT
66
1
70
0
0
VERTEX
8
CUT
10
97.5672
20
66.75
0
VERTEX
8
CUT
10
97.5672
20
68
0
VERTEX
8
CUT
10
94.7959
20
70
0
VERTEX
8
CUT
10
92.0246
20
68
0
VERTEX
8
CUT
10
92.0246
20
66.75
0
SEQEND
0
POLYLINE
8
CUT
66
1
70
0
0
VERTEX
8
CUT
10
92.0246
20
65.25
0
VERTEX
8
CUT
10
92.0246
20
64
0
VERTEX
8
CUT
10
94.7959
20
62
0
VERTEX
8
CUT
10
97.5672
20
64
0
VERTEX
8
CUT
10
97.5672
20
65.25
0
SEQEND
0
POLYLINE
8
CUT
66
1
70
0
0
VERTEX
8
CUT
10
101.3384
20
62.9
0
VERTEX
8
CUT
10
103.4862
20
64.45
0
VERTEX
8
CUT
10
103.4862
20
67.55
0
VERTEX
8
CUT
10
101.3384
20
69.1
0
VERTEX
8
CUT
10
99.1907
20
67.55
0
VERTEX
8
CUT
10
99.1907
20
64.45
0
VERTEX
8
CUT
10
101.3384
20
62.9
0
SEQEND
0
POLYLINE
8
CUT
66
1
70
0
0
VERTEX
8
CUT
10
104.1097
20
66.75
0
VERTEX
8
CUT
10
104.1097
20
68
0
VERTEX
8
CUT
10
101.3384
20
70
0
VERTEX
8
CUT
10
98.5672
20
68
0
VERTEX
8
CUT
10
98.5672
20
66.75
0
SEQEND
0
POLYLINE
8
CUT
66
1
70
0
0
VERTEX
8
CUT
10
98.5672
20
65.25
0
VERTEX
8
CUT
10
98.5672
20
64
0
VERTEX
8
CUT
10
101.3384
20
62
0
VERTEX
8
CUT
10
104.1097
20
64
0
VERTEX
8
CUT
10
104.1097
20
65.25
0
SEQEND
0
POLYLINE
8
CUT
66
1
70
0
0
VERTEX
8
CUT
10
107.881
20
62.9
0
VERTEX
8
CUT
10
110.0287
20
64.45
0
VERTEX
8
CUT
10
110.0287
20
67.55
0
VERTEX
8
CUT
10
107.881
20
69.1
0
VERTEX
8
CUT
10
105.7333
20
67.55
0
VERTEX
8
CUT
10
105.7333
20
64.45
0
VERTEX
8
CUT
10
107.881
20
62.9
0
SEQEND
0
POLYLINE
8
CUT
66
1
70
0
0
VERTEX
8
CUT
10
110.6523
20
66.75
0
VERTEX
8
CUT
10
110.6523
20
68
0
VERTEX
8
CUT
10
107.881
20
70
0
VERTEX
8
CUT
10
105.1097
20
68
0
VERTEX
8
CUT
10
105.1097
20
66.75
0
SEQEND
0
POLYLINE
8
CUT
66
1
70
0
0
VERTEX
8
CUT
10
105.1097
20
65.25
0
VERTEX
8
CUT
10
105.1097
20
64
0
VERTEX
8
CUT
10
107.881
20
62
0
VERTEX
8
CUT
10
110.6523
20
64
0
VERTEX
8
CUT
10
110.6523
20
65.25
0
SEQEND
0
POLYLINE
8
CUT
66
1
70
0
0
VERTEX
8
CUT
10
114.4236
20
62.9
0
VERTEX
8
CUT
10
116.5713
20
64.45
0
VERTEX
8
CUT
10
116.5713
20
67.55
0
VERTEX
8
CUT
10
114.4236
20
69.1
0
VERTEX
8
CUT
10
112.2758
20
67.55
0
VERTEX
8
CUT
10
112.2758
20
64.45
0
VERTEX
8
CUT
10
114.4236
20
62.9
0
SEQEND
0
POLYLINE
8
CUT
66
1
70
0
0
VERTEX
8
CUT
10
117.1948
20
66.75
0
VERTEX
8
CUT
10
117.1948
20
68
0
VERTEX
8
CUT
10
114.4236
20
70
0
VERTEX
8
CUT
10
111.6523
20
68
0
VERTEX
8
CUT
10
111.6523
20
66.75
0
SEQEND
0
POLYLINE
8
CUT
66
1
70
0
0
VERTEX
8
CUT
10
111.6523
20
65.25
0
VERTEX
8
CUT
10
111.6523
20
64
0
VERTEX
8
CUT
10
114.4236
20
62
0
VERTEX
8
CUT
10
117.1948
20
64
0
VERTEX
8
CUT
10
117.1948
20
65.25
0
SEQEND
0
POLYLINE
8
CUT
66
1
70
0
0
VERTEX
8
CUT
10
120
20
68.4028
0
VERTEX
8
CUT
10
118.8184
20
67.55
0
VERTEX
8
CUT
10
118.8184
20
64.45
0
VERTEX
8
CUT
10
120
20
63.5972
0
SEQEND
0
POLYLINE
8
CUT
66
1
70
0
0
VERTEX
8
CUT
10
120
20
69.3028
0
VERTEX
8
CUT
10
118.1948
20
68
0
VERTEX
8
CUT
10
118.1948
20
66.75
0
SEQEND
0
POLYLINE
8
CUT
66
1
70
0
0
VERTEX
8
CUT
10
118.1948
20
65.25
0
VERTEX
8
CUT
10
118.1948
20
64
0
VERTEX
8
CUT
10
120
20
62.6972
0
SEQEND
0
POLYLINE
8
CUT
66
1
70
0
0
VERTEX
8
CUT
10
0
20
56.0814
0
VERTEX
8
CUT
10
2.0765
20
57.58
0
VERTEX
8
CUT
10
2.0765
20
60.68
0
VERTEX
8
CUT
10
0
20
62.1786
0
SEQEND
0
POLYLINE
8
CUT
66
1
70
0
0
VERTEX
8
CUT
10
2.7
20
59.88
0
VERTEX
8
CUT
10
2.7
20
61.13
0
VERTEX
8
CUT
10
0
20
63.0786
0
SEQEND
0
POLYLINE
8
CUT
66
1
70
0
0
VERTEX
8
CUT
10
0
20
55.1814
0
VERTEX
8
CUT
10
2.7
20
57.13
0
VERTEX
8
CUT
10
2.7
20
58.38
0
SEQEND
0
POLYLINE
8
CUT
66
1
70
0
0
VERTEX
8
CUT
10
6.4713
20
56.03
0
VERTEX
8
CUT
10
8.619
20
57.58
0
VERTEX
8
CUT
10
8.619
20
60.68
0
VERTEX
8
CUT
10
6.4713
20
62.23
0
VERTEX
8
CUT
10
4.3235
20
60.68
0
VERTEX
8
CUT
10
4.3235
20
57.58
0
VERTEX
8
CUT
10
6.4713
20
56.03
0
SEQEND
0
POLYLINE
8
CUT
66
1
70
0
0
VERTEX
8
CUT
10
9.2426
20
59.88
0
VERTEX
8
CUT
10
9.2426
20
61.13
0
VERTEX
8
CUT
10
6.4713
20
63.13
0
VERTEX
8
CUT
10
3.7
20
61.13
0
VERTEX
8
CUT
10
3.7
20
59.88
0
SEQEND
0
POLYLINE
8
CUT
66
1
70
0
0
VERTEX
8
CUT
10
3.7
20
58.38
0
VERTEX
8
CUT
10
3.7
20
57.13
0
VERTEX
8
CUT
10
6.4713
20
55.13
0
VERTEX
8
CUT
10
9.2426
20
57.13
0
VERTEX
8
CUT
10
9.2426
20
58.38
0
SEQEND
0
POLYLINE
8
CUT
66
1
70
0
0
VERTEX
8
CUT
10
13.0138
20
56.03
0
VERTEX
8
CUT
10
15.1616
20
57.58
0
VERTEX
8
CUT
10
15.1616
20
60.68
0
VERTEX
8
CUT
10
13.0138
20
62.23
0
VERTEX
8
CUT
10
10.8661
20
60.68
0
VERTEX
8
CUT
10
10.8661
20
57.58
0
VERTEX
8
CUT
10
13.0138
20
56.03
0
SEQEND
0
POLYLINE
8
CUT
66
1
70
0
0
VERTEX
8
CUT
10
15.7851
20
59.88
0
VERTEX
8
CUT
10
15.7851
20
61.13
0
VERTEX
8
CUT
10
13.0138
20
63.13
0
VERTEX
8
CUT
10
10.2426
20
61.13
0
VERTEX
8
CUT
10
10.2426
20
59.88
0
SEQEND
0
POLYLINE
8
CUT
66
1
70
0
0
VERTEX
8
CUT
10
10.2426
20
58.38
0
VERTEX
8
CUT
10
10.2426
20
57.13
0
VERTEX
8
CUT
10
13.0138
20
55.13
0
VERTEX
8
CUT
10
15.7851
20
57.13
0
VERTEX
8
CUT
10
15.7851
20
58.38
0
SEQEND
0
POLYLINE
8
CUT
66
1
70
0
0
VERTEX
8
CUT
10
19.5564
20
56.03
0
VERTEX
8
CUT
10
21.7041
20
57.58
0
VERTEX
8
CUT
10
21.7041
20
60.68
0
VERTEX
8
CUT
10
19.5564
20
62.23
0
VERTEX
8
CUT
10
17.4087
20
60.68
0
VERTEX
8
CUT
10
17.4087
20
57.58
0
VERTEX
8
CUT
10
19.5564
20
56.03
0
SEQEND
0
POLYLINE
8
CUT
66
1
70
0
0
VERTEX
8
CUT
10
22.3277
20
59.88
0
VERTEX
8
CUT
10
22.3277
20
61.13
0
VERTEX
8
CUT
10
19.5564
20
63.13
0
VERTEX
8
CUT
10
16.7851
20
61.13
0
VERTEX
8
CUT
10
16.7851
20
59.88
0
SEQEND
0
POLYLINE
8
CUT
66
1
70
0
0
VERTEX
8
CUT
10
16.7851
20
58.38
0
VERTEX
8
CUT
10
16.7851
20
57.13
0
VERTEX
8
CUT
10
19.5564
20
55.13
0
VERTEX
8
CUT
10
22.3277
20
57.13
0
VERTEX
8
CUT
10
22.3277
20
58.38
0
SEQEND
0
POLYLINE
8
CUT
66
1
70
0
0
VERTEX
8
CUT
10
26.099
20
56.03
0
VERTEX
8
CUT
10
28.2467
20
57.58
0
VERTEX
8
CUT
10
28.2467
20
60.68
0
VERTEX
8
CUT
10
26.099
20
62.23
0
VERTEX
8
CUT
10
23.9512
20
60.68
0
VERTEX
8
CUT
10
23.9512
20
57.58
0
VERTEX
8
CUT
10
26.099
20
56.03
0
SEQEND
0
POLYLINE
8
CUT
66
1
70
0
0
VERTEX
8
CUT
10
28.8703
20
59.88
0
VERTEX
8
CUT
10
28.8703
20
61.13
0
VERTEX
8
CUT
10
26.099
20
63.13
0
VERTEX
8
CUT
10
23.3277
20
61.13
0
VERTEX
8
CUT
10
23.3277
20
59.88
0
SEQEND
0
POLYLINE
8
CUT
66
1
70
0
0
VERTEX
8
CUT
10
23.3277
20
58.38
0
VERTEX
8
CUT
10
23.3277
20
57.13
0
VERTEX
8
CUT
10
26.099
20
55.13
0
VERTEX
8
CUT
10
28.8703
20
57.13
0
VERTEX
8
CUT
10
28.8703
20
58.38
0
SEQEND
0
POLYLINE
8
CUT
66
1
70
0
0
VERTEX
8
CUT
10
32.6415
20
56.03
0
VERTEX
8
CUT
10
34.7893
20
57.58
0
VERTEX
8
CUT
10
34.7893
20
60.68
0
VERTEX
8
CUT
10
32.6415
20
62.23
0
VERTEX
8
CUT
10
30.4938
20
60.68
0
VERTEX
8
CUT
10
30.4938
20
57.58
0
VERTEX
8
CUT
10
32.6415
20
56.03
0
SEQEND
0
POLYLINE
8
CUT
66
1
70
0
0
VERTEX
8
CUT
10
35.4128
20
59.88
0
VERTEX
8
CUT
10
35.4128
20
61.13
0
VERTEX
8
CUT
10
32.6415
20
63.13
0
VERTEX
8
CUT
10
29.8703
20
61.13
0
VERTEX
8
CUT
10
29.8703
20
59.88
0
SEQEND
0
POLYLINE
8
CUT
66
1
70
0
0
VERTEX
8
CUT
10
29.8703
20
58.38
0
VERTEX
8
CUT
10
29.8703
20
57.13
0
VERTEX
8
CUT
10
32.6415
20
55.13
0
VERTEX
8
CUT
10
35.4128
20
57.13
0
VERTEX
8
CUT
10
35.4128
20
58.38
0
SEQEND
0
POLYLINE
8
CUT
66
1
70
0
0
VERTEX
8
CUT
10
39.1841
20
56.03
0
VERTEX
8
CUT
10
41.3318
20
57.58
0
VERTEX
8
CUT
10
41.3318
20
60.68
0
VERTEX
8
CUT
10
39.1841
20
62.23
0
VERTEX
8
CUT
10
37.0364
20
60.68
0
VERTEX
8
CUT
10
37.0364
20
57.58
0
VERTEX
8
CUT
10
39.1841
20
56.03
0
SEQEND
0
POLYLINE
8
CUT
66
1
70
0
0
VERTEX
8
CUT
10
41.9554
20
59.88
0
VERTEX
8
CUT
10
41.9554
20
61.13
0
VERTEX
8
CUT
10
39.1841
20
63.13
0
VERTEX
8
CUT
10
36.4128
20
61.13
0
VERTEX
8
CUT
10
36.4128
20
59.88
0
SEQEND
0
POLYLINE
8
CUT
66
1
70
0
0
VERTEX
8
CUT
10
36.4128
20
58.38
0
VERTEX
8
CUT
10
36.4128
20
57.13
0
VERTEX
8
CUT
10
39.1841
20
55.13
0
VERTEX
8
CUT
10
41.9554
20
57.13
0
VERTEX
8
CUT
10
41.9554
20
58.38
0
SEQEND
0
POLYLINE
8
CUT
66
1
70
0
0
VERTEX
8
CUT
10
45.7267
20
56.03
0
VERTEX
8
CUT
10
47.8744
20
57.58
0
VERTEX
8
CUT
10
47.8744
20
60.68
0
VERTEX
8
CUT
10
45.7267
20
62.23
0
VERTEX
8
CUT
10
43.5789
20
60.68
0
VERTEX
8
CUT
10
43.5789
20
57.58
0
VERTEX
8
CUT
10
45.7267
20
56.03
0
SEQEND
0
POLYLINE
8
CUT
66
1
70
0
0
VERTEX
8
CUT
10
48.4979
20
59.88
0
VERTEX
8
CUT
10
48.4979
20
61.13
0
VERTEX
8
CUT
10
45.7267
20
63.13
0
VERTEX
8
CUT
10
42.9554
20
61.13
0
VERTEX
8
CUT
10
42.9554
20
59.88
0
SEQEND
0
POLYLINE
8
CUT
66
1
70
0
0
VERTEX
8
CUT
10
42.9554
20
58.38
0
VERTEX
8
CUT
10
42.9554
20
57.13
0
VERTEX
8
CUT
10
45.7267
20
55.13
0
VERTEX
8
CUT
10
48.4979
20
57.13
0
VERTEX
8
CUT
10
48.4979
20
58.38
0
SEQEND
0
POLYLINE
8
CUT
66
1
70
0
0
VERTEX
8
CUT
10
52.2692
20
56.03
0
VERTEX
8
CUT
10
54.417
20
57.58
0
VERTEX
8
CUT
10
54.417
20
60.68
0
VERTEX
8
CUT
10
52.2692
20
62.23
0
VERTEX
8
CUT
10
50.1215
20
60.68
0
VERTEX
8
CUT
10
50.1215
20
57.58
0
VERTEX
8
CUT
10
52.2692
20
56.03
0
SEQEND
0
POLYLINE
8
CUT
66
1
70
0
0
VERTEX
8
CUT
10
55.0405
20
59.88
0
VERTEX
8
CUT
10
55.0405
20
61.13
0
VERTEX
8
CUT
10
52.2692
20
63.13
0
VERTEX
8
CUT
10
49.4979
20
61.13
0
VERTEX
8
CUT
10
49.4979
20
59.88
0
SEQEND
0
POLYLINE
8
CUT
66
1
70
0
0
VERTEX
8
CUT
10
49.4979
20
58.38
0
VERTEX
8
CUT
10
49.4979
20
57.13
0
VERTEX
8
CUT
10
52.2692
20
55.13
0
VERTEX
8
CUT
10
55.0405
20
57.13
0
VERTEX
8
CUT
10
55.0405
20
58.38
0
SEQEND
0
POLYLINE
8
CUT
66
1
70
0
0
VERTEX
8
CUT
10
58.8118
20
56.03
0
VERTEX
8
CUT
10
60.9595
20
57.58
0
VERTEX
8
CUT
10
60.9595
20
60.68
0
VERTEX
8
CUT
10
58.8118
20
62.23
0
VERTEX
8
CUT
10
56.664
20
60.68
0
VERTEX
8
CUT
10
56.664
20
57.58
0
VERTEX
8
CUT
10
58.8118
20
56.03
0
SEQEND
0
POLYLINE
8
CUT
66
1
70
0
0
VERTEX
8
CUT
10
61.5831
20
59.88
0
VERTEX
8
CUT
10
61.5831
20
61.13
0
VERTEX
8
CUT
10
58.8118
20
63.13
0
VERTEX
8
CUT
10
56.0405
20
61.13
0
VERTEX
8
CUT
10
56.0405
20
59.88
0
SEQEND
0
POLYLINE
8
CUT
66
1
70
0
0
VERTEX
8
CUT
10
56.0405
20
58.38
0
VERTEX
8
CUT
10
56.0405
20
57.13
0
VERTEX
8
CUT
10
58.8118
20
55.13
0
VERTEX
8
CUT
10
61.5831
20
57.13
0
VERTEX
8
CUT
10
61.5831
20
58.38
0
SEQEND
0
POLYLINE
8
CUT
66
1
70
0
0
VERTEX
8
CUT
10
65.3543
20
56.03
0
VERTEX
8
CUT
10
67.5021
20
57.58
0
VERTEX
8
CUT
10
67.5021
20
60.68
0
VERTEX
8
CUT
10
65.3543
20
62.23
0
VERTEX
8
CUT
10
63.2066
20
60.68
0
VERTEX
8
CUT
10
63.2066
20
57.58
0
VERTEX
8
CUT
10
65.3543
20
56.03
0
SEQEND
0
POLYLINE
8
CUT
66
1
70
0
0
VERTEX
8
CUT
10
68.1256
20
59.88
0
VERTEX
8
CUT
10
68.1256
20
61.13
0
VERTEX
8
CUT
10
65.3543
20
63.13
0
VERTEX
8
CUT
10
62.5831
20
61.13
0
VERTEX
8
CUT
10
62.5831
20
59.88
0
SEQEND
0
POLYLINE
8
CUT
66
1
70
0
0
VERTEX
8
CUT
10
62.5831
20
58.38
0
VERTEX
8
CUT
10
62.5831
20
57.13
0
VERTEX
8
CUT
10
65.3543
20
55.13
0
VERTEX
8
CUT
10
68.1256
20
57.13
0
VERTEX
8
CUT
10
68.1256
20
58.38
0
SEQEND
0
POLYLINE
8
CUT
66
1
70
0
0
VERTEX
8
CUT
10
71.8969
20
56.03
0
VERTEX
8
CUT
10
74.0447
20
57.58
0
VERTEX
8
CUT
10
74.0447
20
60.68
0
VERTEX
8
CUT
10
71.8969
20
62.23
0
VERTEX
8
CUT
10
69.7492
20
60.68
0
VERTEX
8
CUT
10
69.7492
20
57.58
0
VERTEX
8
CUT
10
71.8969
20
56.03
0
SEQEND
0
POLYLINE
8
CUT
66
1
70
0
0
VERTEX
8
CUT
10
74.6682
20
59.88
0
VERTEX
8
CUT
10
74.6682
20
61.13
0
VERTEX
8
CUT
10
71.8969
20
63.13
0
VERTEX
8
CUT
10
69.1256
20
61.13
0
VERTEX
8
CUT
10
69.1256
20
59.88
0
SEQEND
0
POLYLINE
8
CUT
66
1
70
0
0
VERTEX
8
CUT
10
69.1256
20
58.38
0
VERTEX
8
CUT
10
69.1256
20
57.13
0
VERTEX
8
CUT
10
71.8969
20
55.13
0
VERTEX
8
CUT
10
74.6682
20
57.13
0
VERTEX
8
CUT
10
74.6682
20
58.38
0
SEQEND
0
POLYLINE
8
CUT
66
1
70
0
0
VERTEX
8
CUT
10
78.4395
20
56.03
0
VERTEX
8
CUT
10
80.5872
20
57.58
0
VERTEX
8
CUT
10
80.5872
20
60.68
0
VERTEX
8
CUT
10
78.4395
20
62.23
0
VERTEX
8
CUT
10
76.2917
20
60.68
0
VERTEX
8
CUT
10
76.2917
20
57.58
0
VERTEX
8
CUT
10
78.4395
20
56.03
0
SEQEND
0
POLYLINE
8
CUT
66
1
70
0
0
VERTEX
8
CUT
10
81.2108
20
59.88
0
VERTEX
8
CUT
10
81.2108
20
61.13
0
VERTEX
8
CUT
10
78.4395
20
63.13
0
VERTEX
8
CUT
10
75.6682
20
61.13
0
VERTEX
8
CUT
10
75.6682
20
59.88
0
SEQEND
0
POLYLINE
8
CUT
66
1
70
0
0
VERTEX
8
CUT
10
75.6682
20
58.38
0
VERTEX
8
CUT
10
75.6682
20
57.13
0
VERTEX
8
CUT
10
78.4395
20
55.13
0
VERTEX
8
CUT
10
81.2108
20
57.13
0
VERTEX
8
CUT
10
81.2108
20
58.38
0
SEQEND
0
POLYLINE
8
CUT
66
1
70
0
0
VERTEX
8
CUT
10
84.982
20
56.03
0
VERTEX
8
CUT
10
87.1298
20
57.58
0
VERTEX
8
CUT
10
87.1298
20
60.68
0
VERTEX
8
CUT
10
84.982
20
62.23
0
VERTEX
8
CUT
10
82.8343
20
60.68
0
VERTEX
8
CUT
10
82.8343
20
57.58
0
VERTEX
8
CUT
10
84.982
20
56.03
0
SEQEND
0
POLYLINE
8
CUT
66
1
70
0
0
VERTEX
8
CUT
10
87.7533
20
59.88
0
VERTEX
8
CUT
10
87.7533
20
61.13
0
VERTEX
8
CUT
10
84.982
20
63.13
0
VERTEX
8
CUT
10
82.2108
20
61.13
0
VERTEX
8
CUT
10
82.2108
20
59.88
0
SEQEND
0
POLYLINE
8
CUT
66
1
70
0
0
VERTEX
8
CUT
10
82.2108
20
58.38
0
VERTEX
8
CUT
10
82.2108
20
57.13
0
VERTEX
8
CUT
10
84.982
20
55.13
0
VERTEX
8
CUT
10
87.7533
20
57.13
0
VERTEX
8
CUT
10
87.7533
20
58.38
0
SEQEND
0
POLYLINE
8
CUT
66
1
70
0
0
VERTEX
8
CUT
10
91.5246
20
56.03
0
VERTEX
8
CUT
10
93.6723
20
57.58
0
VERTEX
8
CUT
10
93.6723
20
60.68
0
VERTEX
8
CUT
10
91.5246
20
62.23
0
VERTEX
8
CUT
10
89.3769
20
60.68
0
VERTEX
8
CUT
10
89.3769
20
57.58
0
VERTEX
8
CUT
10
91.5246
20
56.03
0
SEQEND
0
POLYLINE
8
CUT
66
1
70
0
0
VERTEX
8
CUT
10
94.2959
20
59.88
0
VERTEX
8
CUT
10
94.2959
20
61.13
0
VERTEX
8
CUT
10
91.5246
20
63.13
0
VERTEX
8
CUT
10
88.7533
20
61.13
0
VERTEX
8
CUT
10
88.7533
20
59.88
0
SEQEND
0
POLYLINE
8
CUT
66
1
70
0
0
VERTEX
8
CUT
10
88.7533
20
58.38
0
VERTEX
8
CUT
10
88.7533
20
57.13
0
VERTEX
8
CUT
10
91.5246
20
55.13
0
VERTEX
8
CUT
10
94.2959
20
57.13
0
VERTEX
8
CUT
10
94.2959
20
58.38
0
SEQEND
0
POLYLINE
8
CUT
66
1
70
0
0
VERTEX
8
CUT
10
98.0672
20
56.03
0
VERTEX
8
CUT
10
100.2149
20
57.58
0
VERTEX
8
CUT
10
100.2149
20
60.68
0
VERTEX
8
CUT
10
98.0672
20
62.23
0
VERTEX
8
CUT
10
95.9194
20
60.68
0
VERTEX
8
CUT
10
95.9194
20
57.58
0
VERTEX
8
CUT
10
98.0672
20
56.03
0
SEQEND
0
POLYLINE
8
CUT
66
1
70
0
0
VERTEX
8
CUT
10
100.8384
20
59.88
0
VERTEX
8
CUT
10
100.8384
20
61.13
0
VERTEX
8
CUT
10
98.0672
20
63.13
0
VERTEX
8
CUT
10
95.2959
20
61.13
0
VERTEX
8
CUT
10
95.2959
20
59.88
0
SEQEND
0
POLYLINE
8
CUT
66
1
70
0
0
VERTEX
8
CUT
10
95.2959
20
58.38
0
VERTEX
8
CUT
10
95.2959
20
57.13
0
VERTEX
8
CUT
10
98.0672
20
55.13
0
VERTEX
8
CUT
10
100.8384
20
57.13
0
VERTEX
8
CUT
10
100.8384
20
58.38
0
SEQEND
0
POLYLINE
8
CUT
66
1
70
0
0
VERTEX
8
CUT
10
104.6097
20
56.03
0
VERTEX
8
CUT
10
106.7575
20
57.58
0
VERTEX
8
CUT
10
106.7575
20
60.68
0
VERTEX
8
CUT
10
104.6097
20
62.23
0
VERTEX
8
CUT
10
102.462
20
60.68
0
VERTEX
8
CUT
10
102.462
20
57.58
0
VERTEX
8
CUT
10
104.6097
20
56.03
0
SEQEND
0
POLYLINE
8
CUT
66
1
70
0
0
VERTEX
8
CUT
10
107.381
20
59.88
0
VERTEX
8
CUT
10
107.381
20
61.13
0
VERTEX
8
CUT
10
104.6097
20
63.13
0
VERTEX
8
CUT
10
101.8384
20
61.13
0
VERTEX
8
CUT
10
101.8384
20
59.88
0
SEQEND
0
POLYLINE
8
CUT
66
1
70
0
0
VERTEX
8
CUT
10
101.8384
20
58.38
0
VERTEX
8
CUT
10
101.8384
20
57.13
0
VERTEX
8
CUT
10
104.6097
20
55.13
0
VERTEX
8
CUT
10
107.381
20
57.13
0
VERTEX
8
CUT
10
107.381
20
58.38
0
SEQEND
0
POLYLINE
8
CUT
66
1
70
0
0
VERTEX
8
CUT
10
111.1523
20
56.03
0
VERTEX
8
CUT
10
113.3
20
57.58
0
VERTEX
8
CUT
10
113.3
20
60.68
0
VERTEX
8
CUT
10
111.1523
20
62.23
0
VERTEX
8
CUT
10
109.0045
20
60.68
0
VERTEX
8
CUT
10
109.0045
20
57.58
0
VERTEX
8
CUT
10
111.1523
20
56.03
0
SEQEND
0
POLYLINE
8
CUT
66
1
70
0
0
VERTEX
8
CUT
10
113.9236
20
59.88
0
VERTEX
8
CUT
10
113.9236
20
61.13
0
VERTEX
8
CUT
10
111.1523
20
63.13
0
VERTEX
8
CUT
10
108.381
20
61.13
0
VERTEX
8
CUT
10
108.381
20
59.88
0
SEQEND
0
POLYLINE
8
CUT
66
1
70
0
0
VERTEX
8
CUT
10
108.381
20
58.38
0
VERTEX
8
CUT
10
108.381
20
57.13
0
VERTEX
8
CUT
10
111.1523
20
55.13
0
VERTEX
8
CUT
10
113.9236
20
57.13
0
VERTEX
8
CUT
10
113.9236
20
58.38
0
SEQEND
0
POLYLINE
8
CUT
66
1
70
0
0
VERTEX
8
CUT
10
117.6948
20
56.03
0
VERTEX
8
CUT
10
119.8426
20
57.58
0
VERTEX
8
CUT
10
119.8426
20
60.68
0
VERTEX
8
CUT
10
117.6948
20
62.23
0
VERTEX
8
CUT
10
115.5471
20
60.68
0
VERTEX
8
CUT
10
115.5471
20
57.58
0
VERTEX
8
CUT
10
117.6948
20
56.03
0
SEQEND
0
POLYLINE
8
CUT
66
1
70
0
0
VERTEX
8
CUT
10
120
20
61.4664
0
VERTEX
8
CUT
10
117.6948
20
63.13
0
VERTEX
8
CUT
10
114.9236
20
61.13
0
VERTEX
8
CUT
10
114.9236
20
59.88
0
SEQEND
0
POLYLINE
8
CUT
66
1
70
0
0
VERTEX
8
CUT
10
114.9236
20
58.38
0
VERTEX
8
CUT
10
114.9236
20
57.13
0
VERTEX
8
CUT
10
117.6948
20
55.13
0
VERTEX
8
CUT
10
120
20
56.7936
0
SEQEND
0
POLYLINE
8
CUT
66
1
70
0
0
VERTEX
8
CUT
10
3.2
20
49.16
0
VERTEX
8
CUT
10
5.3477
20
50.71
0
VERTEX
8
CUT
10
5.3477
20
53.81
0
VERTEX
8
CUT
10
3.2
20
55.36
0
VERTEX
8
CUT
10
1.0523
20
53.81
0
VERTEX
8
CUT
10
1.0523
20
50.71
0
VERTEX
8
CUT
10
3.2
20
49.16
0
SEQEND
0
POLYLINE
8
CUT
66
1
70
0
0
VERTEX
8
CUT
10
5.9713
20
53.01
0
VERTEX
8
CUT
10
5.9713
20
54.26
0
VERTEX
8
CUT
10
3.2
20
56.26
0
VERTEX
8
CUT
10
0.4287
20
54.26
0
VERTEX
8
CUT
10
0.4287
20
53.01
0
SEQEND
0
POLYLINE
8
CUT
66
1
70
0
0
VERTEX
8
CUT
10
0.4287
20
51.51
0
VERTEX
8
CUT
10
0.4287
20
50.26
0
VERTEX
8
CUT
10
3.2
20
48.26
0
VERTEX
8
CUT
10
5.9713
20
50.26
0
VERTEX
8
CUT
10
5.9713
20
51.51
0
SEQEND
0
POLYLINE
8
CUT
66
1
70
0
0
VERTEX
8
CUT
10
9.7426
20
49.16
0
VERTEX
8
CUT
10
11.8903
20
50.71
0
VERTEX
8
CUT
10
11.8903
20
53.81
0
VERTEX
8
CUT
10
9.7426
20
55.36
0
VERTEX
8
CUT
10
7.5948
20
53.81
0
VERTEX
8
CUT
10
7.5948
20
50.71
0
VERTEX
8
CUT
10
9.7426
20
49.16
0
SEQEND
0
POLYLINE
8
CUT
66
1
70
0
0
VERTEX
8
CUT
10
12.5138
20
53.01
0
VERTEX
8
CUT
10
12.5138
20
54.26
0
VERTEX
8
CUT
10
9.7426
20
56.26
0
VERTEX
8
CUT
10
6.9713
20
54.26
0
VERTEX
8
CUT
10
6.9713
20
53.01
0
SEQEND
0
POLYLINE
8
CUT
66
1
70
0
0
VERTEX
8
CUT
10
6.9713
20
51.51
0
VERTEX
8
CUT
10
6.9713
20
50.26
0
VERTEX
8
CUT
10
9.7426
20
48.26
0
VERTEX
8
CUT
10
12.5138
20
50.26
0
VERTEX
8
CUT
10
12.5138
20
51.51
0
SEQEND
0
POLYLINE
8
CUT
66
1
70
0
0
VERTEX
8
CUT
10
16.2851
20
49.16
0
VERTEX
8
CUT
10
18.4329
20
50.71
0
VERTEX
8
CUT
10
18.4329
20
53.81
0
VERTEX
8
CUT
10
16.2851
20
55.36
0
VERTEX
8
CUT
10
14.1374
20
53.81
0
VERTEX
8
CUT
10
14.1374
20
50.71
0
VERTEX
8
CUT
10
16.2851
20
49.16
0
SEQEND
0
POLYLINE
8
CUT
66
1
70
0
0
VERTEX
8
CUT
10
19.0564
20
53.01
0
VERTEX
8
CUT
10
19.0564
20
54.26
0
VERTEX
8
CUT
10
16.2851
20
56.26
0
VERTEX
8
CUT
10
13.5138
20
54.26
0
VERTEX
8
CUT
10
13.5138
20
53.01
0
SEQEND
0
POLYLINE
8
CUT
66
1
70
0
0
VERTEX
8
CUT
10
13.5138
20
51.51
0
VERTEX
8
CUT
10
13.5138
20
50.26
0
VERTEX
8
CUT
10
16.2851
20
48.26
0
VERTEX
8
CUT
10
19.0564
20
50.26
0
VERTEX
8
CUT
10
19.0564
20
51.51
0
SEQEND
0
POLYLINE
8
CUT
66
1
70
0
0
VERTEX
8
CUT
10
22.8277
20
49.16
0
VERTEX
8
CUT
10
24.9754
20
50.71
0
VERTEX
8
CUT
10
24.9754
20
53.81
0
VERTEX
8
CUT
10
22.8277
20
55.36
0
VERTEX
8
CUT
10
20.6799
20
53.81
0
VERTEX
8
CUT
10
20.6799
20
50.71
0
VERTEX
8
CUT
10
22.8277
20
49.16
0
SEQEND
0
POLYLINE
8
CUT
66
1
70
0
0
VERTEX
8
CUT
10
25.599
20
53.01
0
VERTEX
8
CUT
10
25.599
20
54.26
0
VERTEX
8
CUT
10
22.8277
20
56.26
0
VERTEX
8
CUT
10
20.0564
20
54.26
0
VERTEX
8
CUT
10
20.0564
20
53.01
0
SEQEND
0
POLYLINE
8
CUT
66
1
70
0
0
VERTEX
8
CUT
10
20.0564
20
51.51
0
VERTEX
8
CUT
10
20.0564
20
50.26
0
VERTEX
8
CUT
10
22.8277
20
48.26
0
VERTEX
8
CUT
10
25.599
20
50.26
0
VERTEX
8
CUT
10
25.599
20
51.51
0
SEQEND
0
POLYLINE
8
CUT
66
1
70
0
0
VERTEX
8
CUT
10
29.3703
20
49.16
0
VERTEX
8
CUT
10
31.518
20
50.71
0
VERTEX
8
CUT
10
31.518
20
53.81
0
VERTEX
8
CUT
10
29.3703
20
55.36
0
VERTEX
8
CUT
10
27.2225
20
53.81
0
VERTEX
8
CUT
10
27.2225
20
50.71
0
VERTEX
8
CUT
10
29.3703
20
49.16
0
SEQEND
0
POLYLINE
8
CUT
66
1
70
0
0
VERTEX
8
CUT
10
32.1415
20
53.01
0
VERTEX
8
CUT
10
32.1415
20
54.26
0
VERTEX
8
CUT
10
29.3703
20
56.26
0
VERTEX
8
CUT
10
26.599
20
54.26
0
VERTEX
8
CUT
10
26.599
20
53.01
0
SEQEND
0
POLYLINE
8
CUT
66
1
70
0
0
VERTEX
8
CUT
10
26.599
20
51.51
0
VERTEX
8
CUT
10
26.599
20
50.26
0
VERTEX
8
CUT
10
29.3703
20
48.26
0
VERTEX
8
CUT
10
32.1415
20
50.26
0
VERTEX
8
CUT
10
32.1415
20
51.51
0
SEQEND
0
POLYLINE
8
CUT
66
1
70
0
0
VERTEX
8
CUT
10
35.9128
20
49.16
0
VERTEX
8
CUT
10
38.0606
20
50.71
0
VERTEX
8
CUT
10
38.0606
20
53.81
0
VERTEX
8
CUT
10
35.9128
20
55.36
0
VERTEX
8
CUT
10
33.7651
20
53.81
0
VERTEX
8
CUT
10
33.7651
20
50.71
0
VERTEX
8
CUT
10
35.9128
20
49.16
0
SEQEND
0
POLYLINE
8
CUT
66
1
70
0
0
VERTEX
8
CUT
10
38.6841
20
53.01
0
VERTEX
8
CUT
10
38.6841
20
54.26
0
VERTEX
8
CUT
10
35.9128
20
56.26
0
VERTEX
8
CUT
10
33.1415
20
54.26
0
VERTEX
8
CUT
10
33.1415
20
53.01
0
SEQEND
0
POLYLINE
8
CUT
66
1
70
0
0
VERTEX
8
CUT
10
33.1415
20
51.51
0
VERTEX
8
CUT
10
33.1415
20
50.26
0
VERTEX
8
CUT
10
35.9128
20
48.26
0
VERTEX
8
CUT
10
38.6841
20
50.26
0
VERTEX
8
CUT
10
38.6841
20
51.51
0
SEQEND
0
POLYLINE
8
CUT
66
1
70
0
0
VERTEX
8
CUT
10
42.4554
20
49.16
0
VERTEX
8
CUT
10
44.6031
20
50.71
0
VERTEX
8
CUT
10
44.6031
20
53.81
0
VERTEX
8
CUT
10
42.4554
20
55.36
0
VERTEX
8
CUT
10
40.3076
20
53.81
0
VERTEX
8
CUT
10
40.3076
20
50.71
0
VERTEX
8
CUT
10
42.4554
20
49.16
0
SEQEND
0
POLYLINE
8
CUT
66
1
70
0
0
VERTEX
8
CUT
10
45.2267
20
53.01
0
VERTEX
8
CUT
10
45.2267
20
54.26
0
VERTEX
8
CUT
10
42.4554
20
56.26
0
VERTEX
8
CUT
10
39.6841
20
54.26
0
VERTEX
8
CUT
10
39.6841
20
53.01
0
SEQEND
0
POLYLINE
8
CUT
66
1
70
0
0
VERTEX
8
CUT
10
39.6841
20
51.51
0
VERTEX
8
CUT
10
39.6841
20
50.26
0
VERTEX
8
CUT
10
42.4554
20
48.26
0
VERTEX
8
CUT
10
45.2267
20
50.26
0
VERTEX
8
CUT
10
45.2267
20
51.51
0
SEQEND
0
POLYLINE
8
CUT
66
1
70
0
0
VERTEX
8
CUT
10
48.9979
20
49.16
0
VERTEX
8
CUT
10
51.1457
20
50.71
0
VERTEX
8
CUT
10
51.1457
20
53.81
0
VERTEX
8
CUT
10
48.9979
20
55.36
0
VERTEX
8
CUT
10
46.8502
20
53.81
0
VERTEX
8
CUT
10
46.8502
20
50.71
0
VERTEX
8
CUT
10
48.9979
20
49.16
0
SEQEND
0
POLYLINE
8
CUT
66
1
70
0
0
VERTEX
8
CUT
10
51.7692
20
53.01
0
VERTEX
8
CUT
10
51.7692
20
54.26
0
VERTEX
8
CUT
10
48.9979
20
56.26
0
VERTEX
8
CUT
10
46.2267
20
54.26
0
VERTEX
8
CUT
10
46.2267
20
53.01
0
SEQEND
0
POLYLINE
8
CUT
66
1
70
0
0
VERTEX
8
CUT
10
46.2267
20
51.51
0
VERTEX
8
CUT
10
46.2267
20
50.26
0
VERTEX
8
CUT
10
48.9979
20
48.26
0
VERTEX
8
CUT
10
51.7692
20
50.26
0
VERTEX
8
CUT
10
51.7692
20
51.51
0
SEQEND
0
POLYLINE
8
CUT
66
1
70
0
0
VERTEX
8
CUT
10
55.5405
20
49.16
0
VERTEX
8
CUT
10
57.6882
20
50.71
0
VERTEX
8
CUT
10
57.6882
20
53.81
0
VERTEX
8
CUT
10
55.5405
20
55.36
0
VERTEX
8
CUT
10
53.3928
20
53.81
0
VERTEX
8
CUT
10
53.3928
20
50.71
0
VERTEX
8
CUT
10
55.5405
20
49.16
0
SEQEND
0
POLYLINE
8
CUT
66
1
70
0
0
VERTEX
8
CUT
10
58.3118
20
53.01
0
VERTEX
8
CUT
10
58.3118
20
54.26
0
VERTEX
8
CUT
10
55.5405
20
56.26
0
VERTEX
8
CUT
10
52.7692
20
54.26
0
VERTEX
8
CUT
10
52.7692
20
53.01
0
SEQEND
0
POLYLINE
8
CUT
66
1
70
0
0
VERTEX
8
CUT
10
52.7692
20
51.51
0
VERTEX
8
CUT
10
52.7692
20
50.26
0
VERTEX
8
CUT
10
55.5405
20
48.26
0
VERTEX
8
CUT
10
58.3118
20
50.26
0
VERTEX
8
CUT
10
58.3118
20
51.51
0
SEQEND
0
POLYLINE
8
CUT
66
1
70
0
0
VERTEX
8
CUT
10
62.0831
20
49.16
0
VERTEX
8
CUT
10
64.2308
20
50.71
0
VERTEX
8
CUT
10
64.2308
20
53.81
0
VERTEX
8
CUT
10
62.0831
20
55.36
0
VERTEX
8
CUT
10
59.9353
20
53.81
0
VERTEX
8
CUT
10
59.9353
20
50.71
0
VERTEX
8
CUT
10
62.0831
20
49.16
0
SEQEND
0
POLYLINE
8
CUT
66
1
70
0
0
VERTEX
8
CUT
10
64.8543
20
53.01
0
VERTEX
8
CUT
10
64.8543
20
54.26
0
VERTEX
8
CUT
10
62.0831
20
56.26
0
VERTEX
8
CUT
10
59.3118
20
54.26
0
VERTEX
8
CUT
10
59.3118
20
53.01
0
SEQEND
0
POLYLINE
8
CUT
66
1
70
0
0
VERTEX
8
CUT
10
59.3118
20
51.51
0
VERTEX
8
CUT
10
59.3118
20
50.26
0
VERTEX
8
CUT
10
62.0831
20
48.26
0
VERTEX
8
CUT
10
64.8543
20
50.26
0
VERTEX
8
CUT
10
64.8543
20
51.51
0
SEQEND
0
POLYLINE
8
CUT
66
1
70
0
0
VERTEX
8
CUT
10
68.6256
20
49.16
0
VERTEX
8
CUT
10
70.7734
20
50.71
0
VERTEX
8
CUT
10
70.7734
20
53.81
0
VERTEX
8
CUT
10
68.6256
20
55.36
0
VERTEX
8
CUT
10
66.4779
20
53.81
0
VERTEX
8
CUT
10
66.4779
20
50.71
0
VERTEX
8
CUT
10
68.6256
20
49.16
0
SEQEND
0
POLYLINE
8
CUT
66
1
70
0
0
VERTEX
8
CUT
10
71.3969
20
53.01
0
VERTEX
8
CUT
10
71.3969
20
54.26
0
VERTEX
8
CUT
10
68.6256
20
56.26
0
VERTEX
8
CUT
10
65.8543
20
54.26
0
VERTEX
8
CUT
10
65.8543
20
53.01
0
SEQEND
0
POLYLINE
8
CUT
66
1
70
0
0
VERTEX
8
CUT
10
65.8543
20
51.51
0
VERTEX
8
CUT
10
65.8543
20
50.26
0
VERTEX
8
CUT
10
68.6256
20
48.26
0
VERTEX
8
CUT
10
71.3969
20
50.26
0
VERTEX
8
CUT
10
71.3969
20
51.51
0
SEQEND
0
POLYLINE
8
CUT
66
1
70
0
0
VERTEX
8
CUT
10
75.1682
20
49.16
0
VERTEX
8
CUT
10
77.3159
20
50.71
0
VERTEX
8
CUT
10
77.3159
20
53.81
0
VERTEX
8
CUT
10
75.1682
20
55.36
0
VERTEX
8
CUT
10
73.0204
20
53.81
0
VERTEX
8
CUT
10
73.0204
20
50.71
0
VERTEX
8
CUT
10
75.1682
20
49.16
0
SEQEND
0
POLYLINE
8
CUT
66
1
70
0
0
VERTEX
8
CUT
10
77.9395
20
53.01
0
VERTEX
8
CUT
10
77.9395
20
54.26
0
VERTEX
8
CUT
10
75.1682
20
56.26
0
VERTEX
8
CUT
10
72.3969
20
54.26
0
VERTEX
8
CUT
10
72.3969
20
53.01
0
SEQEND
0
POLYLINE
8
CUT
66
1
70
0
0
VERTEX
8
CUT
10
72.3969
20
51.51
0
VERTEX
8
CUT
10
72.3969
20
50.26
0
VERTEX
8
CUT
10
75.1682
20
48.26
0
VERTEX
8
CUT
10
77.9395
20
50.26
0
VERTEX
8
CUT
10
77.9395
20
51.51
0
SEQEND
0
POLYLINE
8
CUT
66
1
70
0
0
VERTEX
8
CUT
10
81.7108
20
49.16
0
VERTEX
8
CUT
10
83.8585
20
50.71
0
VERTEX
8
CUT
10
83.8585
20
53.81
0
VERTEX
8
CUT
10
81.7108
20
55.36
0
VERTEX
8
CUT
10
79.563
20
53.81
0
VERTEX
8
CUT
10
79.563
20
50.71
0
VERTEX
8
CUT
10
81.7108
20
49.16
0
SEQEND
0
POLYLINE
8
CUT
66
1
70
0
0
VERTEX
8
CUT
10
84.482
20
53.01
0
VERTEX
8
CUT
10
84.482
20
54.26
0
VERTEX
8
CUT
10
81.7108
20
56.26
0
VERTEX
8
CUT
10
78.9395
20
54.26
0
VERTEX
8
CUT
10
78.9395
20
53.01
0
SEQEND
0
POLYLINE
8
CUT
66
1
70
0
0
VERTEX
8
CUT
10
78.9395
20
51.51
0
VERTEX
8
CUT
10
78.9395
20
50.26
0
VERTEX
8
CUT
10
81.7108
20
48.26
0
VERTEX
8
CUT
10
84.482
20
50.26
0
VERTEX
8
CUT
10
84.482
20
51.51
0
SEQEND
0
POLYLINE
8
CUT
66
1
70
0
0
VERTEX
8
CUT
10
88.2533
20
49.16
0
VERTEX
8
CUT
10
90.4011
20
50.71
0
VERTEX
8
CUT
10
90.4011
20
53.81
0
VERTEX
8
CUT
10
88.2533
20
55.36
0
VERTEX
8
CUT
10
86.1056
20
53.81
0
VERTEX
8
CUT
10
86.1056
20
50.71
0
VERTEX
8
CUT
10
88.2533
20
49.16
0
SEQEND
0
POLYLINE
8
CUT
66
1
70
0
0
VERTEX
8
CUT
10
91.0246
20
53.01
0
VERTEX
8
CUT
10
91.0246
20
54.26
0
VERTEX
8
CUT
10
88.2533
20
56.26
0
VERTEX
8
CUT
10
85.482
20
54.26
0
VERTEX
8
CUT
10
85.482
20
53.01
0
SEQEND
0
POLYLINE
8
CUT
66
1
70
0
0
VERTEX
8
CUT
10
85.482
20
51.51
0
VERTEX
8
CUT
10
85.482
20
50.26
0
VERTEX
8
CUT
10
88.2533
20
48.26
0
VERTEX
8
CUT
10
91.0246
20
50.26
0
VERTEX
8
CUT
10
91.0246
20
51.51
0
SEQEND
0
POLYLINE
8
CUT
66
1
70
0
0
VERTEX
8
CUT
10
94.7959
20
49.16
0
VERTEX
8
CUT
10
96.9436
20
50.71
0
VERTEX
8
CUT
10
96.9436
20
53.81
0
VERTEX
8
CUT
10
94.7959
20
55.36
0
VERTEX
8
CUT
10
92.6481
20
53.81
0
VERTEX
8
CUT
10
92.6481
20
50.71
0
VERTEX
8
CUT
10
94.7959
20
49.16
0
SEQEND
0
POLYLINE
8
CUT
66
1
70
0
0
VERTEX
8
CUT
10
97.5672
20
53.01
0
VERTEX
8
CUT
10
97.5672
20
54.26
0
VERTEX
8
CUT
10
94.7959
20
56.26
0
VERTEX
8
CUT
10
92.0246
20
54.26
0
VERTEX
8
CUT
10
92.0246
20
53.01
0
SEQEND
0
POLYLINE
8
CUT
66
1
70
0
0
VERTEX
8
CUT
10
92.0246
20
51.51
0
VERTEX
8
CUT
10
92.0246
20
50.26
0
VERTEX
8
CUT
10
94.7959
20
48.26
0
VERTEX
8
CUT
10
97.5672
20
50.26
0
VERTEX
8
CUT
10
97.5672
20
51.51
0
SEQEND
0
POLYLINE
8
CUT
66
1
70
0
0
VERTEX
8
CUT
10
101.3384
20
49.16
0
VERTEX
8
CUT
10
103.4862
20
50.71
0
VERTEX
8
CUT
10
103.4862
20
53.81
0
VERTEX
8
CUT
10
101.3384
20
55.36
0
VERTEX
8
CUT
10
99.1907
20
53.81
0
VERTEX
8
CUT
10
99.1907
20
50.71
0
VERTEX
8
CUT
10
101.3384
20
49.16
0
SEQEND
0
POLYLINE
8
CUT
66
1
70
0
0
VERTEX
8
CUT
10
104.1097
20
53.01
0
VERTEX
8
CUT
10
104.1097
20
54.26
0
VERTEX
8
CUT
10
101.3384
20
56.26
0
VERTEX
8
CUT
10
98.5672
20
54.26
0
VERTEX
8
CUT
10
98.5672
20
53.01
0
SEQEND
0
POLYLINE
8
CUT
66
1
70
0
0
VERTEX
8
CUT
10
98.5672
20
51.51
0
VERTEX
8
CUT
10
98.5672
20
50.26
0
VERTEX
8
CUT
10
101.3384
20
48.26
0
VERTEX
8
CUT
10
104.1097
20
50.26
0
VERTEX
8
CUT
10
104.1097
20
51.51
0
SEQEND
0
POLYLINE
8
CUT
66
1
70
0
0
VERTEX
8
CUT
10
107.881
20
49.16
0
VERTEX
8
CUT
10
110.0287
20
50.71
0
VERTEX
8
CUT
10
110.0287
20
53.81
0
VERTEX
8
CUT
10
107.881
20
55.36
0
VERTEX
8
CUT
10
105.7333
20
53.81
0
VERTEX
8
CUT
10
105.7333
20
50.71
0
VERTEX
8
CUT
10
107.881
20
49.16
0
SEQEND
0
POLYLINE
8
CUT
66
1
70
0
0
VERTEX
8
CUT
10
110.6523
20
53.01
0
VERTEX
8
CUT
10
110.6523
20
54.26
0
VERTEX
8
CUT
10
107.881
20
56.26
0
VERTEX
8
CUT
10
105.1097
20
54.26
0
VERTEX
8
CUT
10
105.1097
20
53.01
0
SEQEND
0
POLYLINE
8
CUT
66
1
70
0
0
VERTEX
8
CUT
10
105.1097
20
51.51
0
VERTEX
8
CUT
10
105.1097
20
50.26
0
VERTEX
8
CUT
10
107.881
20
48.26
0
VERTEX
8
CUT
10
110.6523
20
50.26
0
VERTEX
8
CUT
10
110.6523
20
51.51
0
SEQEND
0
POLYLINE
8
CUT
66
1
70
0
0
VERTEX
8
CUT
10
114.4236
20
49.16
0
VERTEX
8
CUT
10
116.5713
20
50.71
0
VERTEX
8
CUT
10
116.5713
20
53.81
0
VERTEX
8
CUT
10
114.4236
20
55.36
0
VERTEX
8
CUT
10
112.2758
20
53.81
0
VERTEX
8
CUT
10
112.2758
20
50.71
0
VERTEX
8
CUT
10
114.4236
20
49.16
0
SEQEND
0
POLYLINE
8
CUT
66
1
70
0
0
VERTEX
8
CUT
10
117.1948
20
53.01
0
VERTEX
8
CUT
10
117.1948
20
54.26
0
VERTEX
8
CUT
10
114.4236
20
56.26
0
VERTEX
8
CUT
10
111.6523
20
54.26
0
VERTEX
8
CUT
10
111.6523
20
53.01
0
SEQEND
0
POLYLINE
8
CUT
66
1
70
0
0
VERTEX
8
CUT
10
111.6523
20
51.51
0
VERTEX
8
CUT
10
111.6523
20
50.26
0
VERTEX
8
CUT
10
114.4236
20
48.26
0
VERTEX
8
CUT
10
117.1948
20
50.26
0
VERTEX
8
CUT
10
117.1948
20
51.51
0
SEQEND
0
POLYLINE
8
CUT
66
1
70
0
0
VERTEX
8
CUT
10
120
20
54.6628
0
VERTEX
8
CUT
10
118.8184
20
53.81
0
VERTEX
8
CUT
10
118.8184
20
50.71
0
VERTEX
8
CUT
10
120
20
49.8572
0
SEQEND
0
POLYLINE
8
CUT
66
1
70
0
0
VERTEX
8
CUT
10
120
20
55.5628
0
VERTEX
8
CUT
10
118.1948
20
54.26
0
VERTEX
8
CUT
10
118.1948
20
53.01
0
SEQEND
0
POLYLINE
8
CUT
66
1
70
0
0
VERTEX
8
CUT
10
118.1948
20
51.51
0
VERTEX
8
CUT
10
118.1948
20
50.26
0
VERTEX
8
CUT
10
120
20
48.9572
0
SEQEND
0
POLYLINE
8
CUT
66
1
70
0
0
VERTEX
8
CUT
10
0
20
42.3414
0
VERTEX
8
CUT
10
2.0765
20
43.84
0
VERTEX
8
CUT
10
2.0765
20
46.94
0
VERTEX
8
CUT
10
0
20
48.4386
0
SEQEND
0
POLYLINE
8
CUT
66
1
70
0
0
VERTEX
8
CUT
10
2.7
20
46.14
0
VERTEX
8
CUT
10
2.7
20
47.39
0
VERTEX
8
CUT
10
0
20
49.3386
0
SEQEND
0
POLYLINE
8
CUT
66
1
70
0
0
VERTEX
8
CUT
10
0
20
41.4414
0
VERTEX
8
CUT
10
2.7
20
43.39
0
VERTEX
8
CUT
10
2.7
20
44.64
0
SEQEND
0
POLYLINE
8
CUT
66
1
70
0
0
VERTEX
8
CUT
10
6.4713
20
42.29
0
VERTEX
8
CUT
10
8.619
20
43.84
0
VERTEX
8
CUT
10
8.619
20
46.94
0
VERTEX
8
CUT
10
6.4713
20
48.49
0
VERTEX
8
CUT
10
4.3235
20
46.94
0
VERTEX
8
CUT
10
4.3235
20
43.84
0
VERTEX
8
CUT
10
6.4713
20
42.29
0
SEQEND
0
POLYLINE
8
CUT
66
1
70
0
0
VERTEX
8
CUT
10
9.2426
20
46.14
0
VERTEX
8
CUT
10
9.2426
20
47.39
0
VERTEX
8
CUT
10
6.4713
20
49.39
0
VERTEX
8
CUT
10
3.7
20
47.39
0
VERTEX
8
CUT
10
3.7
20
46.14
0
SEQEND
0
POLYLINE
8
CUT
66
1
70
0
0
VERTEX
8
CUT
10
3.7
20
44.64
0
VERTEX
8
CUT
10
3.7
20
43.39
0
VERTEX
8
CUT
10
6.4713
20
41.39
0
VERTEX
8
CUT
10
9.2426
20
43.39
0
VERTEX
8
CUT
10
9.2426
20
44.64
0
SEQEND
0
POLYLINE
8
CUT
66
1
70
0
0
VERTEX
8
CUT
10
13.0138
20
42.29
0
VERTEX
8
CUT
10
15.1616
20
43.84
0
VERTEX
8
CUT
10
15.1616
20
46.94
0
VERTEX
8
CUT
10
13.0138
20
48.49
0
VERTEX
8
CUT
10
10.8661
20
46.94
0
VERTEX
8
CUT
10
10.8661
20
43.84
0
VERTEX
8
CUT
10
13.0138
20
42.29
0
SEQEND
0
POLYLINE
8
CUT
66
1
70
0
0
VERTEX
8
CUT
10
15.7851
20
46.14
0
VERTEX
8
CUT
10
15.7851
20
47.39
0
VERTEX
8
CUT
10
13.0138
20
49.39
0
VERTEX
8
CUT
10
10.2426
20
47.39
0
VERTEX
8
CUT
10
10.2426
20
46.14
0
SEQEND
0
POLYLINE
8
CUT
66
1
70
0
0
VERTEX
8
CUT
10
10.2426
20
44.64
0
VERTEX
8
CUT
10
10.2426
20
43.39
0
VERTEX
8
CUT
10
13.0138
20
41.39
0
VERTEX
8
CUT
10
15.7851
20
43.39
0
VERTEX
8
CUT
10
15.7851
20
44.64
0
SEQEND
0
POLYLINE
8
CUT
66
1
70
0
0
VERTEX
8
CUT
10
19.5564
20
42.29
0
VERTEX
8
CUT
10
21.7041
20
43.84
0
VERTEX
8
CUT
10
21.7041
20
46.94
0
VERTEX
8
CUT
10
19.5564
20
48.49
0
VERTEX
8
CUT
10
17.4087
20
46.94
0
VERTEX
8
CUT
10
17.4087
20
43.84
0
VERTEX
8
CUT
10
19.5564
20
42.29
0
SEQEND
0
POLYLINE
8
CUT
66
1
70
0
0
VERTEX
8
CUT
10
22.3277
20
46.14
0
VERTEX
8
CUT
10
22.3277
20
47.39
0
VERTEX
8
CUT
10
19.5564
20
49.39
0
VERTEX
8
CUT
10
16.7851
20
47.39
0
VERTEX
8
CUT
10
16.7851
20
46.14
0
SEQEND
0
POLYLINE
8
CUT
66
1
70
0
0
VERTEX
8
CUT
10
16.7851
20
44.64
0
VERTEX
8
CUT
10
16.7851
20
43.39
0
VERTEX
8
CUT
10
19.5564
20
41.39
0
VERTEX
8
CUT
10
22.3277
20
43.39
0
VERTEX
8
CUT
10
22.3277
20
44.64
0
SEQEND
0
POLYLINE
8
CUT
66
1
70
0
0
VERTEX
8
CUT
10
26.099
20
42.29
0
VERTEX
8
CUT
10
28.2467
20
43.84
0
VERTEX
8
CUT
10
28.2467
20
46.94
0
VERTEX
8
CUT
10
26.099
20
48.49
0
VERTEX
8
CUT
10
23.9512
20
46.94
0
VERTEX
8
CUT
10
23.9512
20
43.84
0
VERTEX
8
CUT
10
26.099
20
42.29
0
SEQEND
0
POLYLINE
8
CUT
66
1
70
0
0
VERTEX
8
CUT
10
28.8703
20
46.14
0
VERTEX
8
CUT
10
28.8703
20
47.39
0
VERTEX
8
CUT
10
26.099
20
49.39
0
VERTEX
8
CUT
10
23.3277
20
47.39
0
VERTEX
8
CUT
10
23.3277
20
46.14
0
SEQEND
0
POLYLINE
8
CUT
66
1
70
0
0
VERTEX
8
CUT
10
23.3277
20
44.64
0
VERTEX
8
CUT
10
23.3277
20
43.39
0
VERTEX
8
CUT
10
26.099
20
41.39
0
VERTEX
8
CUT
10
28.8703
20
43.39
0
VERTEX
8
CUT
10
28.8703
20
44.64
0
SEQEND
0
POLYLINE
8
CUT
66
1
70
0
0
VERTEX
8
CUT
10
32.6415
20
42.29
0
VERTEX
8
CUT
10
34.7893
20
43.84
0
VERTEX
8
CUT
10
34.7893
20
46.94
0
VERTEX
8
CUT
10
32.6415
20
48.49
0
VERTEX
8
CUT
10
30.4938
20
46.94
0
VERTEX
8
CUT
10
30.4938
20
43.84
0
VERTEX
8
CUT
10
32.6415
20
42.29
0
SEQEND
0
POLYLINE
8
CUT
66
1
70
0
0
VERTEX
8
CUT
10
35.4128
20
46.14
0
VERTEX
8
CUT
10
35.4128
20
47.39
0
VERTEX
8
CUT
10
32.6415
20
49.39
0
VERTEX
8
CUT
10
29.8703
20
47.39
0
VERTEX
8
CUT
10
29.8703
20
46.14
0
SEQEND
0
POLYLINE
8
CUT
66
1
70
0
0
VERTEX
8
CUT
10
29.8703
20
44.64
0
VERTEX
8
CUT
10
29.8703
20
43.39
0
VERTEX
8
CUT
10
32.6415
20
41.39
0
VERTEX
8
CUT
10
35.4128
20
43.39
0
VERTEX
8
CUT
10
35.4128
20
44.64
0
SEQEND
0
POLYLINE
8
CUT
66
1
70
0
0
VERTEX
8
CUT
10
39.1841
20
42.29
0
VERTEX
8
CUT
10
41.3318
20
43.84
0
VERTEX
8
CUT
10
41.3318
20
46.94
0
VERTEX
8
CUT
10
39.1841
20
48.49
0
VERTEX
8
CUT
10
37.0364
20
46.94
0
VERTEX
8
CUT
10
37.0364
20
43.84
0
VERTEX
8
CUT
10
39.1841
20
42.29
0
SEQEND
0
POLYLINE
8
CUT
66
1
70
0
0
VERTEX
8
CUT
10
41.9554
20
46.14
0
VERTEX
8
CUT
10
41.9554
20
47.39
0
VERTEX
8
CUT
10
39.1841
20
49.39
0
VERTEX
8
CUT
10
36.4128
20
47.39
0
VERTEX
8
CUT
10
36.4128
20
46.14
0
SEQEND
0
POLYLINE
8
CUT
66
1
70
0
0
VERTEX
8
CUT
10
36.4128
20
44.64
0
VERTEX
8
CUT
10
36.4128
20
43.39
0
VERTEX
8
CUT
10
39.1841
20
41.39
0
VERTEX
8
CUT
10
41.9554
20
43.39
0
VERTEX
8
CUT
10
41.9554
20
44.64
0
SEQEND
0
POLYLINE
8
CUT
66
1
70
0
0
VERTEX
8
CUT
10
45.7267
20
42.29
0
VERTEX
8
CUT
10
47.8744
20
43.84
0
VERTEX
8
CUT
10
47.8744
20
46.94
0
VERTEX
8
CUT
10
45.7267
20
48.49
0
VERTEX
8
CUT
10
43.5789
20
46.94
0
VERTEX
8
CUT
10
43.5789
20
43.84
0
VERTEX
8
CUT
10
45.7267
20
42.29
0
SEQEND
0
POLYLINE
8
CUT
66
1
70
0
0
VERTEX
8
CUT
10
48.4979
20
46.14
0
VERTEX
8
CUT
10
48.4979
20
47.39
0
VERTEX
8
CUT
10
45.7267
20
49.39
0
VERTEX
8
CUT
10
42.9554
20
47.39
0
VERTEX
8
CUT
10
42.9554
20
46.14
0
SEQEND
0
POLYLINE
8
CUT
66
1
70
0
0
VERTEX
8
CUT
10
42.9554
20
44.64
0
VERTEX
8
CUT
10
42.9554
20
43.39
0
VERTEX
8
CUT
10
45.7267
20
41.39
0
VERTEX
8
CUT
10
48.4979
20
43.39
0
VERTEX
8
CUT
10
48.4979
20
44.64
0
SEQEND
0
POLYLINE
8
CUT
66
1
70
0
0
VERTEX
8
CUT
10
52.2692
20
42.29
0
VERTEX
8
CUT
10
54.417
20
43.84
0
VERTEX
8
CUT
10
54.417
20
46.94
0
VERTEX
8
CUT
10
52.2692
20
48.49
0
VERTEX
8
CUT
10
50.1215
20
46.94
0
VERTEX
8
CUT
10
50.1215
20
43.84
0
VERTEX
8
CUT
10
52.2692
20
42.29
0
SEQEND
0
POLYLINE
8
CUT
66
1
70
0
0
VERTEX
8
CUT
10
55.0405
20
46.14
0
VERTEX
8
CUT
10
55.0405
20
47.39
0
VERTEX
8
CUT
10
52.2692
20
49.39
0
VERTEX
8
CUT
10
49.4979
20
47.39
0
VERTEX
8
CUT
10
49.4979
20
46.14
0
SEQEND
0
POLYLINE
8
CUT
66
1
70
0
0
VERTEX
8
CUT
10
49.4979
20
44.64
0
VERTEX
8
CUT
10
49.4979
20
43.39
0
VERTEX
8
CUT
10
52.2692
20
41.39
0
VERTEX
8
CUT
10
55.0405
20
43.39
0
VERTEX
8
CUT
10
55.0405
20
44.64
0
SEQEND
0
POLYLINE
8
CUT
66
1
70
0
0
VERTEX
8
CUT
10
58.8118
20
42.29
0
VERTEX
8
CUT
10
60.9595
20
43.84
0
VERTEX
8
CUT
10
60.9595
20
46.94
0
VERTEX
8
CUT
10
58.8118
20
48.49
0
VERTEX
8
CUT
10
56.664
20
46.94
0
VERTEX
8
CUT
10
56.664
20
43.84
0
VERTEX
8
CUT
10
58.8118
20
42.29
0
SEQEND
0
POLYLINE
8
CUT
66
1
70
0
0
VERTEX
8
CUT
10
61.5831
20
46.14
0
VERTEX
8
CUT
10
61.5831
20
47.39
0
VERTEX
8
CUT
10
58.8118
20
49.39
0
VERTEX
8
CUT
10
56.0405
20
47.39
0
VERTEX
8
CUT
10
56.0405
20
46.14
0
SEQEND
0
POLYLINE
8
CUT
66
1
70
0
0
VERTEX
8
CUT
10
56.0405
20
44.64
0
VERTEX
8
CUT
10
56.0405
20
43.39
0
VERTEX
8
CUT
10
58.8118
20
41.39
0
VERTEX
8
CUT
10
61.5831
20
43.39
0
VERTEX
8
CUT
10
61.5831
20
44.64
0
SEQEND
0
POLYLINE
8
CUT
66
1
70
0
0
VERTEX
8
CUT
10
65.3543
20
42.29
0
VERTEX
8
CUT
10
67.5021
20
43.84
0
VERTEX
8
CUT
10
67.5021
20
46.94
0
VERTEX
8
CUT
10
65.3543
20
48.49
0
VERTEX
8
CUT
10
63.2066
20
46.94
0
VERTEX
8
CUT
10
63.2066
20
43.84
0
VERTEX
8
CUT
10
65.3543
20
42.29
0
SEQEND
0
POLYLINE
8
CUT
66
1
70
0
0
VERTEX
8
CUT
10
68.1256
20
46.14
0
VERTEX
8
CUT
10
68.1256
20
47.39
0
VERTEX
8
CUT
10
65.3543
20
49.39
0
VERTEX
8
CUT
10
62.5831
20
47.39
0
VERTEX
8
CUT
10
62.5831
20
46.14
0
SEQEND
0
POLYLINE
8
CUT
66
1
70
0
0
VERTEX
8
CUT
10
62.5831
20
44.64
0
VERTEX
8
CUT
10
62.5831
20
43.39
0
VERTEX
8
CUT
10
65.3543
20
41.39
0
VERTEX
8
CUT
10
68.1256
20
43.39
0
VERTEX
8
CUT
10
68.1256
20
44.64
0
SEQEND
0
POLYLINE
8
CUT
66
1
70
0
0
VERTEX
8
CUT
10
71.8969
20
42.29
0
VERTEX
8
CUT
10
74.0447
20
43.84
0
VERTEX
8
CUT
10
74.0447
20
46.94
0
VERTEX
8
CUT
10
71.8969
20
48.49
0
VERTEX
8
CUT
10
69.7492
20
46.94
0
VERTEX
8
CUT
10
69.7492
20
43.84
0
VERTEX
8
CUT
10
71.8969
20
42.29
0
SEQEND
0
POLYLINE
8
CUT
66
1
70
0
0
VERTEX
8
CUT
10
74.6682
20
46.14
0
VERTEX
8
CUT
10
74.6682
20
47.39
0
VERTEX
8
CUT
10
71.8969
20
49.39
0
VERTEX
8
CUT
10
69.1256
20
47.39
0
VERTEX
8
CUT
10
69.1256
20
46.14
0
SEQEND
0
POLYLINE
8
CUT
66
1
70
0
0
VERTEX
8
CUT
10
69.1256
20
44.64
0
VERTEX
8
CUT
10
69.1256
20
43.39
0
VERTEX
8
CUT
10
71.8969
20
41.39
0
VERTEX
8
CUT
10
74.6682
20
43.39
0
VERTEX
8
CUT
10
74.6682
20
44.64
0
SEQEND
0
POLYLINE
8
CUT
66
1
70
0
0
VERTEX
8
CUT
10
78.4395
20
42.29
0
VERTEX
8
CUT
10
80.5872
20
43.84
0
VERTEX
8
CUT
10
80.5872
20
46.94
0
VERTEX
8
CUT
10
78.4395
20
48.49
0
VERTEX
8
CUT
10
76.2917
20
46.94
0
VERTEX
8
CUT
10
76.2917
20
43.84
0
VERTEX
8
CUT
10
78.4395
20
42.29
0
SEQEND
0
POLYLINE
8
CUT
66
1
70
0
0
VERTEX
8
CUT
10
81.2108
20
46.14
0
VERTEX
8
CUT
10
81.2108
20
47.39
0
VERTEX
8
CUT
10
78.4395
20
49.39
0
VERTEX
8
CUT
10
75.6682
20
47.39
0
VERTEX
8
CUT
10
75.6682
20
46.14
0
SEQEND
0
POLYLINE
8
CUT
66
1
70
0
0
VERTEX
8
CUT
10
75.6682
20
44.64
0
VERTEX
8
CUT
10
75.6682
20
43.39
0
VERTEX
8
CUT
10
78.4395
20
41.39
0
VERTEX
8
CUT
10
81.2108
20
43.39
0
VERTEX
8
CUT
10
81.2108
20
44.64
0
SEQEND
0
POLYLINE
8
CUT
66
1
70
0
0
VERTEX
8
CUT
10
84.982
20
42.29
0
VERTEX
8
CUT
10
87.1298
20
43.84
0
VERTEX
8
CUT
10
87.1298
20
46.94
0
VERTEX
8
CUT
10
84.982
20
48.49
0
VERTEX
8
CUT
10
82.8343
20
46.94
0
VERTEX
8
CUT
10
82.8343
20
43.84
0
VERTEX
8
CUT
10
84.982
20
42.29
0
SEQEND
0
POLYLINE
8
CUT
66
1
70
0
0
VERTEX
8
CUT
10
87.7533
20
46.14
0
VERTEX
8
CUT
10
87.7533
20
47.39
0
VERTEX
8
CUT
10
84.982
20
49.39
0
VERTEX
8
CUT
10
82.2108
20
47.39
0
VERTEX
8
CUT
10
82.2108
20
46.14
0
SEQEND
0
POLYLINE
8
CUT
66
1
70
0
0
VERTEX
8
CUT
10
82.2108
20
44.64
0
VERTEX
8
CUT
10
82.2108
20
43.39
0
VERTEX
8
CUT
10
84.982
20
41.39
0
VERTEX
8
CUT
10
87.7533
20
43.39
0
VERTEX
8
CUT
10
87.7533
20
44.64
0
SEQEND
0
POLYLINE
8
CUT
66
1
70
0
0
VERTEX
8
CUT
10
91.5246
20
42.29
0
VERTEX
8
CUT
10
93.6723
20
43.84
0
VERTEX
8
CUT
10
93.6723
20
46.94
0
VERTEX
8
CUT
10
91.5246
20
48.49
0
VERTEX
8
CUT
10
89.3769
20
46.94
0
VERTEX
8
CUT
10
89.3769
20
43.84
0
VERTEX
8
CUT
10
91.5246
20
42.29
0
SEQEND
0
POLYLINE
8
CUT
66
1
70
0
0
VERTEX
8
CUT
10
94.2959
20
46.14
0
VERTEX
8
CUT
10
94.2959
20
47.39
0
VERTEX
8
CUT
10
91.5246
20
49.39
0
VERTEX
8
CUT
10
88.7533
20
47.39
0
VERTEX
8
CUT
10
88.7533
20
46.14
0
SEQEND
0
POLYLINE
8
CUT
66
1
70
0
0
VERTEX
8
CUT
10
88.7533
20
44.64
0
VERTEX
8
CUT
10
88.7533
20
43.39
0
VERTEX
8
CUT
10
91.5246
20
41.39
0
VERTEX
8
CUT
10
94.2959
20
43.39
0
VERTEX
8
CUT
10
94.2959
20
44.64
0
SEQEND
0
POLYLINE
8
CUT
66
1
70
0
0
VERTEX
8
CUT
10
98.0672
20
42.29
0
VERTEX
8
CUT
10
100.2149
20
43.84
0
VERTEX
8
CUT
10
100.2149
20
46.94
0
VERTEX
8
CUT
10
98.0672
20
48.49
0
VERTEX
8
CUT
10
95.9194
20
46.94
0
VERTEX
8
CUT
10
95.9194
20
43.84
0
VERTEX
8
CUT
10
98.0672
20
42.29
0
SEQEND
0
POLYLINE
8
CUT
66
1
70
0
0
VERTEX
8
CUT
10
100.8384
20
46.14
0
VERTEX
8
CUT
10
100.8384
20
47.39
0
VERTEX
8
CUT
10
98.0672
20
49.39
0
VERTEX
8
CUT
10
95.2959
20
47.39
0
VERTEX
8
CUT
10
95.2959
20
46.14
0
SEQEND
0
POLYLINE
8
CUT
66
1
70
0
0
VERTEX
8
CUT
10
95.2959
20
44.64
0
VERTEX
8
CUT
10
95.2959
20
43.39
0
VERTEX
8
CUT
10
98.0672
20
41.39
0
VERTEX
8
CUT
10
100.8384
20
43.39
0
VERTEX
8
CUT
10
100.8384
20
44.64
0
SEQEND
0
POLYLINE
8
CUT
66
1
70
0
0
VERTEX
8
CUT
10
104.6097
20
42.29
0
VERTEX
8
CUT
10
106.7575
20
43.84
0
VERTEX
8
CUT
10
106.7575
20
46.94
0
VERTEX
8
CUT
10
104.6097
20
48.49
0
VERTEX
8
CUT
10
102.462
20
46.94
0
VERTEX
8
CUT
10
102.462
20
43.84
0
VERTEX
8
CUT
10
104.6097
20
42.29
0
SEQEND
0
POLYLINE
8
CUT
66
1
70
0
0
VERTEX
8
CUT
10
107.381
20
46.14
0
VERTEX
8
CUT
10
107.381
20
47.39
0
VERTEX
8
CUT
10
104.6097
20
49.39
0
VERTEX
8
CUT
10
101.8384
20
47.39
0
VERTEX
8
CUT
10
101.8384
20
46.14
0
SEQEND
0
POLYLINE
8
CUT
66
1
70
0
0
VERTEX
8
CUT
10
101.8384
20
44.64
0
VERTEX
8
CUT
10
101.8384
20
43.39
0
VERTEX
8
CUT
10
104.6097
20
41.39
0
VERTEX
8
CUT
10
107.381
20
43.39
0
VERTEX
8
CUT
10
107.381
20
44.64
0
SEQEND
0
POLYLINE
8
CUT
66
1
70
0
0
VERTEX
8
CUT
10
111.1523
20
42.29
0
VERTEX
8
CUT
10
113.3
20
43.84
0
VERTEX
8
CUT
10
113.3
20
46.94
0
VERTEX
8
CUT
10
111.1523
20
48.49
0
VERTEX
8
CUT
10
109.0045
20
46.94
0
VERTEX
8
CUT
10
109.0045
20
43.84
0
VERTEX
8
CUT
10
111.1523
20
42.29
0
SEQEND
0
POLYLINE
8
CUT
66
1
70
0
0
VERTEX
8
CUT
10
113.9236
20
46.14
0
VERTEX
8
CUT
10
113.9236
20
47.39
0
VERTEX
8
CUT
10
111.1523
20
49.39
0
VERTEX
8
CUT
10
108.381
20
47.39
0
VERTEX
8
CUT
10
108.381
20
46.14
0
SEQEND
0
POLYLINE
8
CUT
66
1
70
0
0
VERTEX
8
CUT
10
108.381
20
44.64
0
VERTEX
8
CUT
10
108.381
20
43.39
0
VERTEX
8
CUT
10
111.1523
20
41.39
0
VERTEX
8
CUT
10
113.9236
20
43.39
0
VERTEX
8
CUT
10
113.9236
20
44.64
0
SEQEND
0
POLYLINE
8
CUT
66
1
70
0
0
VERTEX
8
CUT
10
117.6948
20
42.29
0
VERTEX
8
CUT
10
119.8426
20
43.84
0
VERTEX
8
CUT
10
119.8426
20
46.94
0
VERTEX
8
CUT
10
117.6948
20
48.49
0
VERTEX
8
CUT
10
115.5471
20
46.94
0
VERTEX
8
CUT
10
115.5471
20
43.84
0
VERTEX
8
CUT
10
117.6948
20
42.29
0
SEQEND
0
POLYLINE
8
CUT
66
1
70
0
0
VERTEX
8
CUT
10
120
20
47.7264
0
VERTEX
8
CUT
10
117.6948
20
49.39
0
VERTEX
8
CUT
10
114.9236
20
47.39
0
VERTEX
8
CUT
10
114.9236
20
46.14
0
SEQEND
0
POLYLINE
8
CUT
66
1
70
0
0
VERTEX
8
CUT
10
114.9236
20
44.64
0
VERTEX
8
CUT
10
114.9236
20
43.39
0
VERTEX
8
CUT
10
117.6948
20
41.39
0
VERTEX
8
CUT
10
120
20
43.0536
0
SEQEND
0
POLYLINE
8
CUT
66
1
70
0
0
VERTEX
8
CUT
10
3.2
20
35.42
0
VERTEX
8
CUT
10
5.3477
20
36.97
0
VERTEX
8
CUT
10
5.3477
20
40.07
0
VERTEX
8
CUT
10
3.2
20
41.62
0
VERTEX
8
CUT
10
1.0523
20
40.07
0
VERTEX
8
CUT
10
1.0523
20
36.97
0
VERTEX
8
CUT
10
3.2
20
35.42
0
SEQEND
0
POLYLINE
8
CUT
66
1
70
0
0
VERTEX
8
CUT
10
5.9713
20
39.27
0
VERTEX
8
CUT
10
5.9713
20
40.52
0
VERTEX
8
CUT
10
3.2
20
42.52
0
VERTEX
8
CUT
10
0.4287
20
40.52
0
VERTEX
8
CUT
10
0.4287
20
39.27
0
SEQEND
0
POLYLINE
8
CUT
66
1
70
0
0
VERTEX
8
CUT
10
0.4287
20
37.77
0
VERTEX
8
CUT
10
0.4287
20
36.52
0
VERTEX
8
CUT
10
3.2
20
34.52
0
VERTEX
8
CUT
10
5.9713
20
36.52
0
VERTEX
8
CUT
10
5.9713
20
37.77
0
SEQEND
0
POLYLINE
8
CUT
66
1
70
0
0
VERTEX
8
CUT
10
9.7426
20
35.42
0
VERTEX
8
CUT
10
11.8903
20
36.97
0
VERTEX
8
CUT
10
11.8903
20
40.07
0
VERTEX
8
CUT
10
9.7426
20
41.62
0
VERTEX
8
CUT
10
7.5948
20
40.07
0
VERTEX
8
CUT
10
7.5948
20
36.97
0
VERTEX
8
CUT
10
9.7426
20
35.42
0
SEQEND
0
POLYLINE
8
CUT
66
1
70
0
0
VERTEX
8
CUT
10
12.5138
20
39.27
0
VERTEX
8
CUT
10
12.5138
20
40.52
0
VERTEX
8
CUT
10
9.7426
20
42.52
0
VERTEX
8
CUT
10
6.9713
20
40.52
0
VERTEX
8
CUT
10
6.9713
20
39.27
0
SEQEND
0
POLYLINE
8
CUT
66
1
70
0
0
VERTEX
8
CUT
10
6.9713
20
37.77
0
VERTEX
8
CUT
10
6.9713
20
36.52
0
VERTEX
8
CUT
10
9.7426
20
34.52
0
VERTEX
8
CUT
10
12.5138
20
36.52
0
VERTEX
8
CUT
10
12.5138
20
37.77
0
SEQEND
0
POLYLINE
8
CUT
66
1
70
0
0
VERTEX
8
CUT
10
16.2851
20
35.42
0
VERTEX
8
CUT
10
18.4329
20
36.97
0
VERTEX
8
CUT
10
18.4329
20
40.07
0
VERTEX
8
CUT
10
16.2851
20
41.62
0
VERTEX
8
CUT
10
14.1374
20
40.07
0
VERTEX
8
CUT
10
14.1374
20
36.97
0
VERTEX
8
CUT
10
16.2851
20
35.42
0
SEQEND
0
POLYLINE
8
CUT
66
1
70
0
0
VERTEX
8
CUT
10
19.0564
20
39.27
0
VERTEX
8
CUT
10
19.0564
20
40.52
0
VERTEX
8
CUT
10
16.2851
20
42.52
0
VERTEX
8
CUT
10
13.5138
20
40.52
0
VERTEX
8
CUT
10
13.5138
20
39.27
0
SEQEND
0
POLYLINE
8
CUT
66
1
70
0
0
VERTEX
8
CUT
10
13.5138
20
37.77
0
VERTEX
8
CUT
10
13.5138
20
36.52
0
VERTEX
8
CUT
10
16.2851
20
34.52
0
VERTEX
8
CUT
10
19.0564
20
36.52
0
VERTEX
8
CUT
10
19.0564
20
37.77
0
SEQEND
0
POLYLINE
8
CUT
66
1
70
0
0
VERTEX
8
CUT
10
22.8277
20
35.42
0
VERTEX
8
CUT
10
24.9754
20
36.97
0
VERTEX
8
CUT
10
24.9754
20
40.07
0
VERTEX
8
CUT
10
22.8277
20
41.62
0
VERTEX
8
CUT
10
20.6799
20
40.07
0
VERTEX
8
CUT
10
20.6799
20
36.97
0
VERTEX
8
CUT
10
22.8277
20
35.42
0
SEQEND
0
POLYLINE
8
CUT
66
1
70
0
0
VERTEX
8
CUT
10
25.599
20
39.27
0
VERTEX
8
CUT
10
25.599
20
40.52
0
VERTEX
8
CUT
10
22.8277
20
42.52
0
VERTEX
8
CUT
10
20.0564
20
40.52
0
VERTEX
8
CUT
10
20.0564
20
39.27
0
SEQEND
0
POLYLINE
8
CUT
66
1
70
0
0
VERTEX
8
CUT
10
20.0564
20
37.77
0
VERTEX
8
CUT
10
20.0564
20
36.52
0
VERTEX
8
CUT
10
22.8277
20
34.52
0
VERTEX
8
CUT
10
25.599
20
36.52
0
VERTEX
8
CUT
10
25.599
20
37.77
0
SEQEND
0
POLYLINE
8
CUT
66
1
70
0
0
VERTEX
8
CUT
10
29.3703
20
35.42
0
VERTEX
8
CUT
10
31.518
20
36.97
0
VERTEX
8
CUT
10
31.518
20
40.07
0
VERTEX
8
CUT
10
29.3703
20
41.62
0
VERTEX
8
CUT
10
27.2225
20
40.07
0
VERTEX
8
CUT
10
27.2225
20
36.97
0
VERTEX
8
CUT
10
29.3703
20
35.42
0
SEQEND
0
POLYLINE
8
CUT
66
1
70
0
0
VERTEX
8
CUT
10
32.1415
20
39.27
0
VERTEX
8
CUT
10
32.1415
20
40.52
0
VERTEX
8
CUT
10
29.3703
20
42.52
0
VERTEX
8
CUT
10
26.599
20
40.52
0
VERTEX
8
CUT
10
26.599
20
39.27
0
SEQEND
0
POLYLINE
8
CUT
66
1
70
0
0
VERTEX
8
CUT
10
26.599
20
37.77
0
VERTEX
8
CUT
10
26.599
20
36.52
0
VERTEX
8
CUT
10
29.3703
20
34.52
0
VERTEX
8
CUT
10
32.1415
20
36.52
0
VERTEX
8
CUT
10
32.1415
20
37.77
0
SEQEND
0
POLYLINE
8
CUT
66
1
70
0
0
VERTEX
8
CUT
10
35.9128
20
35.42
0
VERTEX
8
CUT
10
38.0606
20
36.97
0
VERTEX
8
CUT
10
38.0606
20
40.07
0
VERTEX
8
CUT
10
35.9128
20
41.62
0
VERTEX
8
CUT
10
33.7651
20
40.07
0
VERTEX
8
CUT
10
33.7651
20
36.97
0
VERTEX
8
CUT
10
35.9128
20
35.42
0
SEQEND
0
POLYLINE
8
CUT
66
1
70
0
0
VERTEX
8
CUT
10
38.6841
20
39.27
0
VERTEX
8
CUT
10
38.6841
20
40.52
0
VERTEX
8
CUT
10
35.9128
20
42.52
0
VERTEX
8
CUT
10
33.1415
20
40.52
0
VERTEX
8
CUT
10
33.1415
20
39.27
0
SEQEND
0
POLYLINE
8
CUT
66
1
70
0
0
VERTEX
8
CUT
10
33.1415
20
37.77
0
VERTEX
8
CUT
10
33.1415
20
36.52
0
VERTEX
8
CUT
10
35.9128
20
34.52
0
VERTEX
8
CUT
10
38.6841
20
36.52
0
VERTEX
8
CUT
10
38.6841
20
37.77
0
SEQEND
0
POLYLINE
8
CUT
66
1
70
0
0
VERTEX
8
CUT
10
42.4554
20
35.42
0
VERTEX
8
CUT
10
44.6031
20
36.97
0
VERTEX
8
CUT
10
44.6031
20
40.07
0
VERTEX
8
CUT
10
42.4554
20
41.62
0
VERTEX
8
CUT
10
40.3076
20
40.07
0
VERTEX
8
CUT
10
40.3076
20
36.97
0
VERTEX
8
CUT
10
42.4554
20
35.42
0
SEQEND
0
POLYLINE
8
CUT
66
1
70
0
0
VERTEX
8
CUT
10
45.2267
20
39.27
0
VERTEX
8
CUT
10
45.2267
20
40.52
0
VERTEX
8
CUT
10
42.4554
20
42.52
0
VERTEX
8
CUT
10
39.6841
20
40.52
0
VERTEX
8
CUT
10
39.6841
20
39.27
0
SEQEND
0
POLYLINE
8
CUT
66
1
70
0
0
VERTEX
8
CUT
10
39.6841
20
37.77
0
VERTEX
8
CUT
10
39.6841
20
36.52
0
VERTEX
8
CUT
10
42.4554
20
34.52
0
VERTEX
8
CUT
10
45.2267
20
36.52
0
VERTEX
8
CUT
10
45.2267
20
37.77
0
SEQEND
0
POLYLINE
8
CUT
66
1
70
0
0
VERTEX
8
CUT
10
48.9979
20
35.42
0
VERTEX
8
CUT
10
51.1457
20
36.97
0
VERTEX
8
CUT
10
51.1457
20
40.07
0
VERTEX
8
CUT
10
48.9979
20
41.62
0
VERTEX
8
CUT
10
46.8502
20
40.07
0
VERTEX
8
CUT
10
46.8502
20
36.97
0
VERTEX
8
CUT
10
48.9979
20
35.42
0
SEQEND
0
POLYLINE
8
CUT
66
1
70
0
0
VERTEX
8
CUT
10
51.7692
20
39.27
0
VERTEX
8
CUT
10
51.7692
20
40.52
0
VERTEX
8
CUT
10
48.9979
20
42.52
0
VERTEX
8
CUT
10
46.2267
20
40.52
0
VERTEX
8
CUT
10
46.2267
20
39.27
0
SEQEND
0
POLYLINE
8
CUT
66
1
70
0
0
VERTEX
8
CUT
10
46.2267
20
37.77
0
VERTEX
8
CUT
10
46.2267
20
36.52
0
VERTEX
8
CUT
10
48.9979
20
34.52
0
VERTEX
8
CUT
10
51.7692
20
36.52
0
VERTEX
8
CUT
10
51.7692
20
37.77
0
SEQEND
0
POLYLINE
8
CUT
66
1
70
0
0
VERTEX
8
CUT
10
55.5405
20
35.42
0
VERTEX
8
CUT
10
57.6882
20
36.97
0
VERTEX
8
CUT
10
57.6882
20
40.07
0
VERTEX
8
CUT
10
55.5405
20
41.62
0
VERTEX
8
CUT
10
53.3928
20
40.07
0
VERTEX
8
CUT
10
53.3928
20
36.97
0
VERTEX
8
CUT
10
55.5405
20
35.42
0
SEQEND
0
POLYLINE
8
CUT
66
1
70
0
0
VERTEX
8
CUT
10
58.3118
20
39.27
0
VERTEX
8
CUT
10
58.3118
20
40.52
0
VERTEX
8
CUT
10
55.5405
20
42.52
0
VERTEX
8
CUT
10
52.7692
20
40.52
0
VERTEX
8
CUT
10
52.7692
20
39.27
0
SEQEND
0
POLYLINE
8
CUT
66
1
70
0
0
VERTEX
8
CUT
10
52.7692
20
37.77
0
VERTEX
8
CUT
10
52.7692
20
36.52
0
VERTEX
8
CUT
10
55.5405
20
34.52
0
VERTEX
8
CUT
10
58.3118
20
36.52
0
VERTEX
8
CUT
10
58.3118
20
37.77
0
SEQEND
0
POLYLINE
8
CUT
66
1
70
0
0
VERTEX
8
CUT
10
62.0831
20
35.42
0
VERTEX
8
CUT
10
64.2308
20
36.97
0
VERTEX
8
CUT
10
64.2308
20
40.07
0
VERTEX
8
CUT
10
62.0831
20
41.62
0
VERTEX
8
CUT
10
59.9353
20
40.07
0
VERTEX
8
CUT
10
59.9353
20
36.97
0
VERTEX
8
CUT
10
62.0831
20
35.42
0
SEQEND
0
POLYLINE
8
CUT
66
1
70
0
0
VERTEX
8
CUT
10
64.8543
20
39.27
0
VERTEX
8
CUT
10
64.8543
20
40.52
0
VERTEX
8
CUT
10
62.0831
20
42.52
0
VERTEX
8
CUT
10
59.3118
20
40.52
0
VERTEX
8
CUT
10
59.3118
20
39.27
0
SEQEND
0
POLYLINE
8
CUT
66
1
70
0
0
VERTEX
8
CUT
10
59.3118
20
37.77
0
VERTEX
8
CUT
10
59.3118
20
36.52
0
VERTEX
8
CUT
10
62.0831
20
34.52
0
VERTEX
8
CUT
10
64.8543
20
36.52
0
VERTEX
8
CUT
10
64.8543
20
37.77
0
SEQEND
0
POLYLINE
8
CUT
66
1
70
0
0
VERTEX
8
CUT
10
68.6256
20
35.42
0
VERTEX
8
CUT
10
70.7734
20
36.97
0
VERTEX
8
CUT
10
70.7734
20
40.07
0
VERTEX
8
CUT
10
68.6256
20
41.62
0
VERTEX
8
CUT
10
66.4779
20
40.07
0
VERTEX
8
CUT
10
66.4779
20
36.97
0
VERTEX
8
CUT
10
68.6256
20
35.42
0
SEQEND
0
POLYLINE
8
CUT
66
1
70
0
0
VERTEX
8
CUT
10
71.3969
20
39.27
0
VERTEX
8
CUT
10
71.3969
20
40.52
0
VERTEX
8
CUT
10
68.6256
20
42.52
0
VERTEX
8
CUT
10
65.8543
20
40.52
0
VERTEX
8
CUT
10
65.8543
20
39.27
0
SEQEND
0
POLYLINE
8
CUT
66
1
70
0
0
VERTEX
8
CUT
10
65.8543
20
37.77
0
VERTEX
8
CUT
10
65.8543
20
36.52
0
VERTEX
8
CUT
10
68.6256
20
34.52
0
VERTEX
8
CUT
10
71.3969
20
36.52
0
VERTEX
8
CUT
10
71.3969
20
37.77
0
SEQEND
0
POLYLINE
8
CUT
66
1
70
0
0
VERTEX
8
CUT
10
75.1682
20
35.42
0
VERTEX
8
CUT
10
77.3159
20
36.97
0
VERTEX
8
CUT
10
77.3159
20
40.07
0
VERTEX
8
CUT
10
75.1682
20
41.62
0
VERTEX
8
CUT
10
73.0204
20
40.07
0
VERTEX
8
CUT
10
73.0204
20
36.97
0
VERTEX
8
CUT
10
75.1682
20
35.42
0
SEQEND
0
POLYLINE
8
CUT
66
1
70
0
0
VERTEX
8
CUT
10
77.9395
20
39.27
0
VERTEX
8
CUT
10
77.9395
20
40.52
0
VERTEX
8
CUT
10
75.1682
20
42.52
0
VERTEX
8
CUT
10
72.3969
20
40.52
0
VERTEX
8
CUT
10
72.3969
20
39.27
0
SEQEND
0
POLYLINE
8
CUT
66
1
70
0
0
VERTEX
8
CUT
10
72.3969
20
37.77
0
VERTEX
8
CUT
10
72.3969
20
36.52
0
VERTEX
8
CUT
10
75.1682
20
34.52
0
VERTEX
8
CUT
10
77.9395
20
36.52
0
VERTEX
8
CUT
10
77.9395
20
37.77
0
SEQEND
0
POLYLINE
8
CUT
66
1
70
0
0
VERTEX
8
CUT
10
81.7108
20
35.42
0
VERTEX
8
CUT
10
83.8585
20
36.97
0
VERTEX
8
CUT
10
83.8585
20
40.07
0
VERTEX
8
CUT
10
81.7108
20
41.62
0
VERTEX
8
CUT
10
79.563
20
40.07
0
VERTEX
8
CUT
10
79.563
20
36.97
0
VERTEX
8
CUT
10
81.7108
20
35.42
0
SEQEND
0
POLYLINE
8
CUT
66
1
70
0
0
VERTEX
8
CUT
10
84.482
20
39.27
0
VERTEX
8
CUT
10
84.482
20
40.52
0
VERTEX
8
CUT
10
81.7108
20
42.52
0
VERTEX
8
CUT
10
78.9395
20
40.52
0
VERTEX
8
CUT
10
78.9395
20
39.27
0
SEQEND
0
POLYLINE
8
CUT
66
1
70
0
0
VERTEX
8
CUT
10
78.9395
20
37.77
0
VERTEX
8
CUT
10
78.9395
20
36.52
0
VERTEX
8
CUT
10
81.7108
20
34.52
0
VERTEX
8
CUT
10
84.482
20
36.52
0
VERTEX
8
CUT
10
84.482
20
37.77
0
SEQEND
0
POLYLINE
8
CUT
66
1
70
0
0
VERTEX
8
CUT
10
88.2533
20
35.42
0
VERTEX
8
CUT
10
90.4011
20
36.97
0
VERTEX
8
CUT
10
90.4011
20
40.07
0
VERTEX
8
CUT
10
88.2533
20
41.62
0
VERTEX
8
CUT
10
86.1056
20
40.07
0
VERTEX
8
CUT
10
86.1056
20
36.97
0
VERTEX
8
CUT
10
88.2533
20
35.42
0
SEQEND
0
POLYLINE
8
CUT
66
1
70
0
0
VERTEX
8
CUT
10
91.0246
20
39.27
0
VERTEX
8
CUT
10
91.0246
20
40.52
0
VERTEX
8
CUT
10
88.2533
20
42.52
0
VERTEX
8
CUT
10
85.482
20
40.52
0
VERTEX
8
CUT
10
85.482
20
39.27
0
SEQEND
0
POLYLINE
8
CUT
66
1
70
0
0
VERTEX
8
CUT
10
85.482
20
37.77
0
VERTEX
8
CUT
10
85.482
20
36.52
0
VERTEX
8
CUT
10
88.2533
20
34.52
0
VERTEX
8
CUT
10
91.0246
20
36.52
0
VERTEX
8
CUT
10
91.0246
20
37.77
0
SEQEND
0
POLYLINE
8
CUT
66
1
70
0
0
VERTEX
8
CUT
10
94.7959
20
35.42
0
VERTEX
8
CUT
10
96.9436
20
36.97
0
VERTEX
8
CUT
10
96.9436
20
40.07
0
VERTEX
8
CUT
10
94.7959
20
41.62
0
VERTEX
8
CUT
10
92.6481
20
40.07
0
VERTEX
8
CUT
10
92.6481
20
36.97
0
VERTEX
8
CUT
10
94.7959
20
35.42
0
SEQEND
0
POLYLINE
8
CUT
66
1
70
0
0
VERTEX
8
CUT
10
97.5672
20
39.27
0
VERTEX
8
CUT
10
97.5672
20
40.52
0
VERTEX
8
CUT
10
94.7959
20
42.52
0
VERTEX
8
CUT
10
92.0246
20
40.52
0
VERTEX
8
CUT
10
92.0246
20
39.27
0
SEQEND
0
POLYLINE
8
CUT
66
1
70
0
0
VERTEX
8
CUT
10
92.0246
20
37.77
0
VERTEX
8
CUT
10
92.0246
20
36.52
0
VERTEX
8
CUT
10
94.7959
20
34.52
0
VERTEX
8
CUT
10
97.5672
20
36.52
0
VERTEX
8
CUT
10
97.5672
20
37.77
0
SEQEND
0
POLYLINE
8
CUT
66
1
70
0
0
VERTEX
8
CUT
10
101.3384
20
35.42
0
VERTEX
8
CUT
10
103.4862
20
36.97
0
VERTEX
8
CUT
10
103.4862
20
40.07
0
VERTEX
8
CUT
10
101.3384
20
41.62
0
VERTEX
8
CUT
10
99.1907
20
40.07
0
VERTEX
8
CUT
10
99.1907
20
36.97
0
VERTEX
8
CUT
10
101.3384
20
35.42
0
SEQEND
0
POLYLINE
8
CUT
66
1
70
0
0
VERTEX
8
CUT
10
104.1097
20
39.27
0
VERTEX
8
CUT
10
104.1097
20
40.52
0
VERTEX
8
CUT
10
101.3384
20
42.52
0
VERTEX
8
CUT
10
98.5672
20
40.52
0
VERTEX
8
CUT
10
98.5672
20
39.27
0
SEQEND
0
POLYLINE
8
CUT
66
1
70
0
0
VERTEX
8
CUT
10
98.5672
20
37.77
0
VERTEX
8
CUT
10
98.5672
20
36.52
0
VERTEX
8
CUT
10
101.3384
20
34.52
0
VERTEX
8
CUT
10
104.1097
20
36.52
0
VERTEX
8
CUT
10
104.1097
20
37.77
0
SEQEND
0
POLYLINE
8
CUT
66
1
70
0
0
VERTEX
8
CUT
10
107.881
20
35.42
0
VERTEX
8
CUT
10
110.0287
20
36.97
0
VERTEX
8
CUT
10
110.0287
20
40.07
0
VERTEX
8
CUT
10
107.881
20
41.62
0
VERTEX
8
CUT
10
105.7333
20
40.07
0
VERTEX
8
CUT
10
105.7333
20
36.97
0
VERTEX
8
CUT
10
107.881
20
35.42
0
SEQEND
0
POLYLINE
8
CUT
66
1
70
0
0
VERTEX
8
CUT
10
110.6523
20
39.27
0
VERTEX
8
CUT
10
110.6523
20
40.52
0
VERTEX
8
CUT
10
107.881
20
42.52
0
VERTEX
8
CUT
10
105.1097
20
40.52
0
VERTEX
8
CUT
10
105.1097
20
39.27
0
SEQEND
0
POLYLINE
8
CUT
66
1
70
0
0
VERTEX
8
CUT
10
105.1097
20
37.77
0
VERTEX
8
CUT
10
105.1097
20
36.52
0
VERTEX
8
CUT
10
107.881
20
34.52
0
VERTEX
8
CUT
10
110.6523
20
36.52
0
VERTEX
8
CUT
10
110.6523
20
37.77
0
SEQEND
0
POLYLINE
8
CUT
66
1
70
0
0
VERTEX
8
CUT
10
114.4236
20
35.42
0
VERTEX
8
CUT
10
116.5713
20
36.97
0
VERTEX
8
CUT
10
116.5713
20
40.07
0
VERTEX
8
CUT
10
114.4236
20
41.62
0
VERTEX
8
CUT
10
112.2758
20
40.07
0
VERTEX
8
CUT
10
112.2758
20
36.97
0
VERTEX
8
CUT
10
114.4236
20
35.42
0
SEQEND
0
POLYLINE
8
CUT
66
1
70
0
0
VERTEX
8
CUT
10
117.1948
20
39.27
0
VERTEX
8
CUT
10
117.1948
20
40.52
0
VERTEX
8
CUT
10
114.4236
20
42.52
0
VERTEX
8
CUT
10
111.6523
20
40.52
0
VERTEX
8
CUT
10
111.6523
20
39.27
0
SEQEND
0
POLYLINE
8
CUT
66
1
70
0
0
VERTEX
8
CUT
10
111.6523
20
37.77
0
VERTEX
8
CUT
10
111.6523
20
36.52
0
VERTEX
8
CUT
10
114.4236
20
34.52
0
VERTEX
8
CUT
10
117.1948
20
36.52
0
VERTEX
8
CUT
10
117.1948
20
37.77
0
SEQEND
0
POLYLINE
8
CUT
66
1
70
0
0
VERTEX
8
CUT
10
120
20
40.9228
0
VERTEX
8
CUT
10
118.8184
20
40.07
0
VERTEX
8
CUT
10
118.8184
20
36.97
0
VERTEX
8
CUT
10
120
20
36.1172
0
SEQEND
0
POLYLINE
8
CUT
66
1
70
0
0
VERTEX
8
CUT
10
120
20
41.8228
0
VERTEX
8
CUT
10
118.1948
20
40.52
0
VERTEX
8
CUT
10
118.1948
20
39.27
0
SEQEND
0
POLYLINE
8
CUT
66
1
70
0
0
VERTEX
8
CUT
10
118.1948
20
37.77
0
VERTEX
8
CUT
10
118.1948
20
36.52
0
VERTEX
8
CUT
10
120
20
35.2172
0
SEQEND
0
POLYLINE
8
CUT
66
1
70
0
0
VERTEX
8
CUT
10
0
20
28.6014
0
VERTEX
8
CUT
10
2.0765
20
30.1
0
VERTEX
8
CUT
10
2.0765
20
33.2
0
VERTEX
8
CUT
10
0
20
34.6986
0
SEQEND
0
POLYLINE
8
CUT
66
1
70
0
0
VERTEX
8
CUT
10
2.7
20
32.4
0
VERTEX
8
CUT
10
2.7
20
33.65
0
VERTEX
8
CUT
10
0
20
35.5986
0
SEQEND
0
POLYLINE
8
CUT
66
1
70
0
0
VERTEX
8
CUT
10
0
20
27.7014
0
VERTEX
8
CUT
10
2.7
20
29.65
0
VERTEX
8
CUT
10
2.7
20
30.9
0
SEQEND
0
POLYLINE
8
CUT
66
1
70
0
0
VERTEX
8
CUT
10
6.4713
20
28.55
0
VERTEX
8
CUT
10
8.619
20
30.1
0
VERTEX
8
CUT
10
8.619
20
33.2
0
VERTEX
8
CUT
10
6.4713
20
34.75
0
VERTEX
8
CUT
10
4.3235
20
33.2
0
VERTEX
8
CUT
10
4.3235
20
30.1
0
VERTEX
8
CUT
10
6.4713
20
28.55
0
SEQEND
0
POLYLINE
8
CUT
66
1
70
0
0
VERTEX
8
CUT
10
9.2426
20
32.4
0
VERTEX
8
CUT
10
9.2426
20
33.65
0
VERTEX
8
CUT
10
6.4713
20
35.65
0
VERTEX
8
CUT
10
3.7
20
33.65
0
VERTEX
8
CUT
10
3.7
20
32.4
0
SEQEND
0
POLYLINE
8
CUT
66
1
70
0
0
VERTEX
8
CUT
10
3.7
20
30.9
0
VERTEX
8
CUT
10
3.7
20
29.65
0
VERTEX
8
CUT
10
6.4713
20
27.65
0
VERTEX
8
CUT
10
9.2426
20
29.65
0
VERTEX
8
CUT
10
9.2426
20
30.9
0
SEQEND
0
POLYLINE
8
CUT
66
1
70
0
0
VERTEX
8
CUT
10
13.0138
20
28.55
0
VERTEX
8
CUT
10
15.1616
20
30.1
0
VERTEX
8
CUT
10
15.1616
20
33.2
0
VERTEX
8
CUT
10
13.0138
20
34.75
0
VERTEX
8
CUT
10
10.8661
20
33.2
0
VERTEX
8
CUT
10
10.8661
20
30.1
0
VERTEX
8
CUT
10
13.0138
20
28.55
0
SEQEND
0
POLYLINE
8
CUT
66
1
70
0
0
VERTEX
8
CUT
10
15.7851
20
32.4
0
VERTEX
8
CUT
10
15.7851
20
33.65
0
VERTEX
8
CUT
10
13.0138
20
35.65
0
VERTEX
8
CUT
10
10.2426
20
33.65
0
VERTEX
8
CUT
10
10.2426
20
32.4
0
SEQEND
0
POLYLINE
8
CUT
66
1
70
0
0
VERTEX
8
CUT
10
10.2426
20
30.9
0
VERTEX
8
CUT
10
10.2426
20
29.65
0
VERTEX
8
CUT
10
13.0138
20
27.65
0
VERTEX
8
CUT
10
15.7851
20
29.65
0
VERTEX
8
CUT
10
15.7851
20
30.9
0
SEQEND
0
POLYLINE
8
CUT
66
1
70
0
0
VERTEX
8
CUT
10
19.5564
20
28.55
0
VERTEX
8
CUT
10
21.7041
20
30.1
0
VERTEX
8
CUT
10
21.7041
20
33.2
0
VERTEX
8
CUT
10
19.5564
20
34.75
0
VERTEX
8
CUT
10
17.4087
20
33.2
0
VERTEX
8
CUT
10
17.4087
20
30.1
0
VERTEX
8
CUT
10
19.5564
20
28.55
0
SEQEND
0
POLYLINE
8
CUT
66
1
70
0
0
VERTEX
8
CUT
10
22.3277
20
32.4
0
VERTEX
8
CUT
10
22.3277
20
33.65
0
VERTEX
8
CUT
10
19.5564
20
35.65
0
VERTEX
8
CUT
10
16.7851
20
33.65
0
VERTEX
8
CUT
10
16.7851
20
32.4
0
SEQEND
0
POLYLINE
8
CUT
66
1
70
0
0
VERTEX
8
CUT
10
16.7851
20
30.9
0
VERTEX
8
CUT
10
16.7851
20
29.65
0
VERTEX
8
CUT
10
19.5564
20
27.65
0
VERTEX
8
CUT
10
22.3277
20
29.65
0
VERTEX
8
CUT
10
22.3277
20
30.9
0
SEQEND
0
POLYLINE
8
CUT
66
1
70
0
0
VERTEX
8
CUT
10
26.099
20
28.55
0
VERTEX
8
CUT
10
28.2467
20
30.1
0
VERTEX
8
CUT
10
28.2467
20
33.2
0
VERTEX
8
CUT
10
26.099
20
34.75
0
VERTEX
8
CUT
10
23.9512
20
33.2
0
VERTEX
8
CUT
10
23.9512
20
30.1
0
VERTEX
8
CUT
10
26.099
20
28.55
0
SEQEND
0
POLYLINE
8
CUT
66
1
70
0
0
VERTEX
8
CUT
10
28.8703
20
32.4
0
VERTEX
8
CUT
10
28.8703
20
33.65
0
VERTEX
8
CUT
10
26.099
20
35.65
0
VERTEX
8
CUT
10
23.3277
20
33.65
0
VERTEX
8
CUT
10
23.3277
20
32.4
0
SEQEND
0
POLYLINE
8
CUT
66
1
70
0
0
VERTEX
8
CUT
10
23.3277
20
30.9
0
VERTEX
8
CUT
10
23.3277
20
29.65
0
VERTEX
8
CUT
10
26.099
20
27.65
0
VERTEX
8
CUT
10
28.8703
20
29.65
0
VERTEX
8
CUT
10
28.8703
20
30.9
0
SEQEND
0
POLYLINE
8
CUT
66
1
70
0
0
VERTEX
8
CUT
10
32.6415
20
28.55
0
VERTEX
8
CUT
10
34.7893
20
30.1
0
VERTEX
8
CUT
10
34.7893
20
33.2
0
VERTEX
8
CUT
10
32.6415
20
34.75
0
VERTEX
8
CUT
10
30.4938
20
33.2
0
VERTEX
8
CUT
10
30.4938
20
30.1
0
VERTEX
8
CUT
10
32.6415
20
28.55
0
SEQEND
0
POLYLINE
8
CUT
66
1
70
0
0
VERTEX
8
CUT
10
35.4128
20
32.4
0
VERTEX
8
CUT
10
35.4128
20
33.65
0
VERTEX
8
CUT
10
32.6415
20
35.65
0
VERTEX
8
CUT
10
29.8703
20
33.65
0
VERTEX
8
CUT
10
29.8703
20
32.4
0
SEQEND
0
POLYLINE
8
CUT
66
1
70
0
0
VERTEX
8
CUT
10
29.8703
20
30.9
0
VERTEX
8
CUT
10
29.8703
20
29.65
0
VERTEX
8
CUT
10
32.6415
20
27.65
0
VERTEX
8
CUT
10
35.4128
20
29.65
0
VERTEX
8
CUT
10
35.4128
20
30.9
0
SEQEND
0
POLYLINE
8
CUT
66
1
70
0
0
VERTEX
8
CUT
10
39.1841
20
28.55
0
VERTEX
8
CUT
10
41.3318
20
30.1
0
VERTEX
8
CUT
10
41.3318
20
33.2
0
VERTEX
8
CUT
10
39.1841
20
34.75
0
VERTEX
8
CUT
10
37.0364
20
33.2
0
VERTEX
8
CUT
10
37.0364
20
30.1
0
VERTEX
8
CUT
10
39.1841
20
28.55
0
SEQEND
0
POLYLINE
8
CUT
66
1
70
0
0
VERTEX
8
CUT
10
41.9554
20
32.4
0
VERTEX
8
CUT
10
41.9554
20
33.65
0
VERTEX
8
CUT
10
39.1841
20
35.65
0
VERTEX
8
CUT
10
36.4128
20
33.65
0
VERTEX
8
CUT
10
36.4128
20
32.4
0
SEQEND
0
POLYLINE
8
CUT
66
1
70
0
0
VERTEX
8
CUT
10
36.4128
20
30.9
0
VERTEX
8
CUT
10
36.4128
20
29.65
0
VERTEX
8
CUT
10
39.1841
20
27.65
0
VERTEX
8
CUT
10
41.9554
20
29.65
0
VERTEX
8
CUT
10
41.9554
20
30.9
0
SEQEND
0
POLYLINE
8
CUT
66
1
70
0
0
VERTEX
8
CUT
10
45.7267
20
28.55
0
VERTEX
8
CUT
10
47.8744
20
30.1
0
VERTEX
8
CUT
10
47.8744
20
33.2
0
VERTEX
8
CUT
10
45.7267
20
34.75
0
VERTEX
8
CUT
10
43.5789
20
33.2
0
VERTEX
8
CUT
10
43.5789
20
30.1
0
VERTEX
8
CUT
10
45.7267
20
28.55
0
SEQEND
0
POLYLINE
8
CUT
66
1
70
0
0
VERTEX
8
CUT
10
48.4979
20
32.4
0
VERTEX
8
CUT
10
48.4979
20
33.65
0
VERTEX
8
CUT
10
45.7267
20
35.65
0
VERTEX
8
CUT
10
42.9554
20
33.65
0
VERTEX
8
CUT
10
42.9554
20
32.4
0
SEQEND
0
POLYLINE
8
CUT
66
1
70
0
0
VERTEX
8
CUT
10
42.9554
20
30.9
0
VERTEX
8
CUT
10
42.9554
20
29.65
0
VERTEX
8
CUT
10
45.7267
20
27.65
0
VERTEX
8
CUT
10
48.4979
20
29.65
0
VERTEX
8
CUT
10
48.4979
20
30.9
0
SEQEND
0
POLYLINE
8
CUT
66
1
70
0
0
VERTEX
8
CUT
10
52.2692
20
28.55
0
VERTEX
8
CUT
10
54.417
20
30.1
0
VERTEX
8
CUT
10
54.417
20
33.2
0
VERTEX
8
CUT
10
52.2692
20
34.75
0
VERTEX
8
CUT
10
50.1215
20
33.2
0
VERTEX
8
CUT
10
50.1215
20
30.1
0
VERTEX
8
CUT
10
52.2692
20
28.55
0
SEQEND
0
POLYLINE
8
CUT
66
1
70
0
0
VERTEX
8
CUT
10
55.0405
20
32.4
0
VERTEX
8
CUT
10
55.0405
20
33.65
0
VERTEX
8
CUT
10
52.2692
20
35.65
0
VERTEX
8
CUT
10
49.4979
20
33.65
0
VERTEX
8
CUT
10
49.4979
20
32.4
0
SEQEND
0
POLYLINE
8
CUT
66
1
70
0
0
VERTEX
8
CUT
10
49.4979
20
30.9
0
VERTEX
8
CUT
10
49.4979
20
29.65
0
VERTEX
8
CUT
10
52.2692
20
27.65
0
VERTEX
8
CUT
10
55.0405
20
29.65
0
VERTEX
8
CUT
10
55.0405
20
30.9
0
SEQEND
0
POLYLINE
8
CUT
66
1
70
0
0
VERTEX
8
CUT
10
58.8118
20
28.55
0
VERTEX
8
CUT
10
60.9595
20
30.1
0
VERTEX
8
CUT
10
60.9595
20
33.2
0
VERTEX
8
CUT
10
58.8118
20
34.75
0
VERTEX
8
CUT
10
56.664
20
33.2
0
VERTEX
8
CUT
10
56.664
20
30.1
0
VERTEX
8
CUT
10
58.8118
20
28.55
0
SEQEND
0
POLYLINE
8
CUT
66
1
70
0
0
VERTEX
8
CUT
10
61.5831
20
32.4
0
VERTEX
8
CUT
10
61.5831
20
33.65
0
VERTEX
8
CUT
10
58.8118
20
35.65
0
VERTEX
8
CUT
10
56.0405
20
33.65
0
VERTEX
8
CUT
10
56.0405
20
32.4
0
SEQEND
0
POLYLINE
8
CUT
66
1
70
0
0
VERTEX
8
CUT
10
56.0405
20
30.9
0
VERTEX
8
CUT
10
56.0405
20
29.65
0
VERTEX
8
CUT
10
58.8118
20
27.65
0
VERTEX
8
CUT
10
61.5831
20
29.65
0
VERTEX
8
CUT
10
61.5831
20
30.9
0
SEQEND
0
POLYLINE
8
CUT
66
1
70
0
0
VERTEX
8
CUT
10
65.3543
20
28.55
0
VERTEX
8
CUT
10
67.5021
20
30.1
0
VERTEX
8
CUT
10
67.5021
20
33.2
0
VERTEX
8
CUT
10
65.3543
20
34.75
0
VERTEX
8
CUT
10
63.2066
20
33.2
0
VERTEX
8
CUT
10
63.2066
20
30.1
0
VERTEX
8
CUT
10
65.3543
20
28.55
0
SEQEND
0
POLYLINE
8
CUT
66
1
70
0
0
VERTEX
8
CUT
10
68.1256
20
32.4
0
VERTEX
8
CUT
10
68.1256
20
33.65
0
VERTEX
8
CUT
10
65.3543
20
35.65
0
VERTEX
8
CUT
10
62.5831
20
33.65
0
VERTEX
8
CUT
10
62.5831
20
32.4
0
SEQEND
0
POLYLINE
8
CUT
66
1
70
0
0
VERTEX
8
CUT
10
62.5831
20
30.9
0
VERTEX
8
CUT
10
62.5831
20
29.65
0
VERTEX
8
CUT
10
65.3543
20
27.65
0
VERTEX
8
CUT
10
68.1256
20
29.65
0
VERTEX
8
CUT
10
68.1256
20
30.9
0
SEQEND
0
POLYLINE
8
CUT
66
1
70
0
0
VERTEX
8
CUT
10
71.8969
20
28.55
0
VERTEX
8
CUT
10
74.0447
20
30.1
0
VERTEX
8
CUT
10
74.0447
20
33.2
0
VERTEX
8
CUT
10
71.8969
20
34.75
0
VERTEX
8
CUT
10
69.7492
20
33.2
0
VERTEX
8
CUT
10
69.7492
20
30.1
0
VERTEX
8
CUT
10
71.8969
20
28.55
0
SEQEND
0
POLYLINE
8
CUT
66
1
70
0
0
VERTEX
8
CUT
10
74.6682
20
32.4
0
VERTEX
8
CUT
10
74.6682
20
33.65
0
VERTEX
8
CUT
10
71.8969
20
35.65
0
VERTEX
8
CUT
10
69.1256
20
33.65
0
VERTEX
8
CUT
10
69.1256
20
32.4
0
SEQEND
0
POLYLINE
8
CUT
66
1
70
0
0
VERTEX
8
CUT
10
69.1256
20
30.9
0
VERTEX
8
CUT
10
69.1256
20
29.65
0
VERTEX
8
CUT
10
71.8969
20
27.65
0
VERTEX
8
CUT
10
74.6682
20
29.65
0
VERTEX
8
CUT
10
74.6682
20
30.9
0
SEQEND
0
POLYLINE
8
CUT
66
1
70
0
0
VERTEX
8
CUT
10
78.4395
20
28.55
0
VERTEX
8
CUT
10
80.5872
20
30.1
0
VERTEX
8
CUT
10
80.5872
20
33.2
0
VERTEX
8
CUT
10
78.4395
20
34.75
0
VERTEX
8
CUT
10
76.2917
20
33.2
0
VERTEX
8
CUT
10
76.2917
20
30.1
0
VERTEX
8
CUT
10
78.4395
20
28.55
0
SEQEND
0
POLYLINE
8
CUT
66
1
70
0
0
VERTEX
8
CUT
10
81.2108
20
32.4
0
VERTEX
8
CUT
10
81.2108
20
33.65
0
VERTEX
8
CUT
10
78.4395
20
35.65
0
VERTEX
8
CUT
10
75.6682
20
33.65
0
VERTEX
8
CUT
10
75.6682
20
32.4
0
SEQEND
0
POLYLINE
8
CUT
66
1
70
0
0
VERTEX
8
CUT
10
75.6682
20
30.9
0
VERTEX
8
CUT
10
75.6682
20
29.65
0
VERTEX
8
CUT
10
78.4395
20
27.65
0
VERTEX
8
CUT
10
81.2108
20
29.65
0
VERTEX
8
CUT
10
81.2108
20
30.9
0
SEQEND
0
POLYLINE
8
CUT
66
1
70
0
0
VERTEX
8
CUT
10
84.982
20
28.55
0
VERTEX
8
CUT
10
87.1298
20
30.1
0
VERTEX
8
CUT
10
87.1298
20
33.2
0
VERTEX
8
CUT
10
84.982
20
34.75
0
VERTEX
8
CUT
10
82.8343
20
33.2
0
VERTEX
8
CUT
10
82.8343
20
30.1
0
VERTEX
8
CUT
10
84.982
20
28.55
0
SEQEND
0
POLYLINE
8
CUT
66
1
70
0
0
VERTEX
8
CUT
10
87.7533
20
32.4
0
VERTEX
8
CUT
10
87.7533
20
33.65
0
VERTEX
8
CUT
10
84.982
20
35.65
0
VERTEX
8
CUT
10
82.2108
20
33.65
0
VERTEX
8
CUT
10
82.2108
20
32.4
0
SEQEND
0
POLYLINE
8
CUT
66
1
70
0
0
VERTEX
8
CUT
10
82.2108
20
30.9
0
VERTEX
8
CUT
10
82.2108
20
29.65
0
VERTEX
8
CUT
10
84.982
20
27.65
0
VERTEX
8
CUT
10
87.7533
20
29.65
0
VERTEX
8
CUT
10
87.7533
20
30.9
0
SEQEND
0
POLYLINE
8
CUT
66
1
70
0
0
VERTEX
8
CUT
10
91.5246
20
28.55
0
VERTEX
8
CUT
10
93.6723
20
30.1
0
VERTEX
8
CUT
10
93.6723
20
33.2
0
VERTEX
8
CUT
10
91.5246
20
34.75
0
VERTEX
8
CUT
10
89.3769
20
33.2
0
VERTEX
8
CUT
10
89.3769
20
30.1
0
VERTEX
8
CUT
10
91.5246
20
28.55
0
SEQEND
0
POLYLINE
8
CUT
66
1
70
0
0
VERTEX
8
CUT
10
94.2959
20
32.4
0
VERTEX
8
CUT
10
94.2959
20
33.65
0
VERTEX
8
CUT
10
91.5246
20
35.65
0
VERTEX
8
CUT
10
88.7533
20
33.65
0
VERTEX
8
CUT
10
88.7533
20
32.4
0
SEQEND
0
POLYLINE
8
CUT
66
1
70
0
0
VERTEX
8
CUT
10
88.7533
20
30.9
0
VERTEX
8
CUT
10
88.7533
20
29.65
0
VERTEX
8
CUT
10
91.5246
20
27.65
0
VERTEX
8
CUT
10
94.2959
20
29.65
0
VERTEX
8
CUT
10
94.2959
20
30.9
0
SEQEND
0
POLYLINE
8
CUT
66
1
70
0
0
VERTEX
8
CUT
10
98.0672
20
28.55
0
VERTEX
8
CUT
10
100.2149
20
30.1
0
VERTEX
8
CUT
10
100.2149
20
33.2
0
VERTEX
8
CUT
10
98.0672
20
34.75
0
VERTEX
8
CUT
10
95.9194
20
33.2
0
VERTEX
8
CUT
10
95.9194
20
30.1
0
VERTEX
8
CUT
10
98.0672
20
28.55
0
SEQEND
0
POLYLINE
8
CUT
66
1
70
0
0
VERTEX
8
CUT
10
100.8384
20
32.4
0
VERTEX
8
CUT
10
100.8384
20
33.65
0
VERTEX
8
CUT
10
98.0672
20
35.65
0
VERTEX
8
CUT
10
95.2959
20
33.65
0
VERTEX
8
CUT
10
95.2959
20
32.4
0
SEQEND
0
POLYLINE
8
CUT
66
1
70
0
0
VERTEX
8
CUT
10
95.2959
20
30.9
0
VERTEX
8
CUT
10
95.2959
20
29.65
0
VERTEX
8
CUT
10
98.0672
20
27.65
0
VERTEX
8
CUT
10
100.8384
20
29.65
0
VERTEX
8
CUT
10
100.8384
20
30.9
0
SEQEND
0
POLYLINE
8
CUT
66
1
70
0
0
VERTEX
8
CUT
10
104.6097
20
28.55
0
VERTEX
8
CUT
10
106.7575
20
30.1
0
VERTEX
8
CUT
10
106.7575
20
33.2
0
VERTEX
8
CUT
10
104.6097
20
34.75
0
VERTEX
8
CUT
10
102.462
20
33.2
0
VERTEX
8
CUT
10
102.462
20
30.1
0
VERTEX
8
CUT
10
104.6097
20
28.55
0
SEQEND
0
POLYLINE
8
CUT
66
1
70
0
0
VERTEX
8
CUT
10
107.381
20
32.4
0
VERTEX
8
CUT
10
107.381
20
33.65
0
VERTEX
8
CUT
10
104.6097
20
35.65
0
VERTEX
8
CUT
10
101.8384
20
33.65
0
VERTEX
8
CUT
10
101.8384
20
32.4
0
SEQEND
0
POLYLINE
8
CUT
66
1
70
0
0
VERTEX
8
CUT
10
101.8384
20
30.9
0
VERTEX
8
CUT
10
101.8384
20
29.65
0
VERTEX
8
CUT
10
104.6097
20
27.65
0
VERTEX
8
CUT
10
107.381
20
29.65
0
VERTEX
8
CUT
10
107.381
20
30.9
0
SEQEND
0
POLYLINE
8
CUT
66
1
70
0
0
VERTEX
8
CUT
10
111.1523
20
28.55
0
VERTEX
8
CUT
10
113.3
20
30.1
0
VERTEX
8
CUT
10
113.3
20
33.2
0
VERTEX
8
CUT
10
111.1523
20
34.75
0
VERTEX
8
CUT
10
109.0045
20
33.2
0
VERTEX
8
CUT
10
109.0045
20
30.1
0
VERTEX
8
CUT
10
111.1523
20
28.55
0
SEQEND
0
POLYLINE
8
CUT
66
1
70
0
0
VERTEX
8
CUT
10
113.9236
20
32.4
0
VERTEX
8
CUT
10
113.9236
20
33.65
0
VERTEX
8
CUT
10
111.1523
20
35.65
0
VERTEX
8
CUT
10
108.381
20
33.65
0
VERTEX
8
CUT
10
108.381
20
32.4
0
SEQEND
0
POLYLINE
8
CUT
66
1
70
0
0
VERTEX
8
CUT
10
108.381
20
30.9
0
VERTEX
8
CUT
10
108.381
20
29.65
0
VERTEX
8
CUT
10
111.1523
20
27.65
0
VERTEX
8
CUT
10
113.9236
20
29.65
0
VERTEX
8
CUT
10
113.9236
20
30.9
0
SEQEND
0
POLYLINE
8
CUT
66
1
70
0
0
VERTEX
8
CUT
10
117.6948
20
28.55
0
VERTEX
8
CUT
10
119.8426
20
30.1
0
VERTEX
8
CUT
10
119.8426
20
33.2
0
VERTEX
8
CUT
10
117.6948
20
34.75
0
VERTEX
8
CUT
10
115.5471
20
33.2
0
VERTEX
8
CUT
10
115.5471
20
30.1
0
VERTEX
8
CUT
10
117.6948
20
28.55
0
SEQEND
0
POLYLINE
8
CUT
66
1
70
0
0
VERTEX
8
CUT
10
120
20
33.9864
0
VERTEX
8
CUT
10
117.6948
20
35.65
0
VERTEX
8
CUT
10
114.9236
20
33.65
0
VERTEX
8
CUT
10
114.9236
20
32.4
0
SEQEND
0
POLYLINE
8
CUT
66
1
70
0
0
VERTEX
8
CUT
10
114.9236
20
30.9
0
VERTEX
8
CUT
10
114.9236
20
29.65
0
VERTEX
8
CUT
10
117.6948
20
27.65
0
VERTEX
8
CUT
10
120
20
29.3136
0
SEQEND
0
POLYLINE
8
CUT
66
1
70
0
0
VERTEX
8
CUT
10
3.2
20
21.68
0
VERTEX
8
CUT
10
5.3477
20
23.23
0
VERTEX
8
CUT
10
5.3477
20
26.33
0
VERTEX
8
CUT
10
3.2
20
27.88
0
VERTEX
8
CUT
10
1.0523
20
26.33
0
VERTEX
8
CUT
10
1.0523
20
23.23
0
VERTEX
8
CUT
10
3.2
20
21.68
0
SEQEND
0
POLYLINE
8
CUT
66
1
70
0
0
VERTEX
8
CUT
10
5.9713
20
25.53
0
VERTEX
8
CUT
10
5.9713
20
26.78
0
VERTEX
8
CUT
10
3.2
20
28.78
0
VERTEX
8
CUT
10
0.4287
20
26.78
0
VERTEX
8
CUT
10
0.4287
20
25.53
0
SEQEND
0
POLYLINE
8
CUT
66
1
70
0
0
VERTEX
8
CUT
10
0.4287
20
24.03
0
VERTEX
8
CUT
10
0.4287
20
22.78
0
VERTEX
8
CUT
10
3.2
20
20.78
0
VERTEX
8
CUT
10
5.9713
20
22.78
0
VERTEX
8
CUT
10
5.9713
20
24.03
0
SEQEND
0
POLYLINE
8
CUT
66
1
70
0
0
VERTEX
8
CUT
10
9.7426
20
21.68
0
VERTEX
8
CUT
10
11.8903
20
23.23
0
VERTEX
8
CUT
10
11.8903
20
26.33
0
VERTEX
8
CUT
10
9.7426
20
27.88
0
VERTEX
8
CUT
10
7.5948
20
26.33
0
VERTEX
8
CUT
10
7.5948
20
23.23
0
VERTEX
8
CUT
10
9.7426
20
21.68
0
SEQEND
0
POLYLINE
8
CUT
66
1
70
0
0
VERTEX
8
CUT
10
12.5138
20
25.53
0
VERTEX
8
CUT
10
12.5138
20
26.78
0
VERTEX
8
CUT
10
9.7426
20
28.78
0
VERTEX
8
CUT
10
6.9713
20
26.78
0
VERTEX
8
CUT
10
6.9713
20
25.53
0
SEQEND
0
POLYLINE
8
CUT
66
1
70
0
0
VERTEX
8
CUT
10
6.9713
20
24.03
0
VERTEX
8
CUT
10
6.9713
20
22.78
0
VERTEX
8
CUT
10
9.7426
20
20.78
0
VERTEX
8
CUT
10
12.5138
20
22.78
0
VERTEX
8
CUT
10
12.5138
20
24.03
0
SEQEND
0
POLYLINE
8
CUT
66
1
70
0
0
VERTEX
8
CUT
10
16.2851
20
21.68
0
VERTEX
8
CUT
10
18.4329
20
23.23
0
VERTEX
8
CUT
10
18.4329
20
26.33
0
VERTEX
8
CUT
10
16.2851
20
27.88
0
VERTEX
8
CUT
10
14.1374
20
26.33
0
VERTEX
8
CUT
10
14.1374
20
23.23
0
VERTEX
8
CUT
10
16.2851
20
21.68
0
SEQEND
0
POLYLINE
8
CUT
66
1
70
0
0
VERTEX
8
CUT
10
19.0564
20
25.53
0
VERTEX
8
CUT
10
19.0564
20
26.78
0
VERTEX
8
CUT
10
16.2851
20
28.78
0
VERTEX
8
CUT
10
13.5138
20
26.78
0
VERTEX
8
CUT
10
13.5138
20
25.53
0
SEQEND
0
POLYLINE
8
CUT
66
1
70
0
0
VERTEX
8
CUT
10
13.5138
20
24.03
0
VERTEX
8
CUT
10
13.5138
20
22.78
0
VERTEX
8
CUT
10
16.2851
20
20.78
0
VERTEX
8
CUT
10
19.0564
20
22.78
0
VERTEX
8
CUT
10
19.0564
20
24.03
0
SEQEND
0
POLYLINE
8
CUT
66
1
70
0
0
VERTEX
8
CUT
10
22.8277
20
21.68
0
VERTEX
8
CUT
10
24.9754
20
23.23
0
VERTEX
8
CUT
10
24.9754
20
26.33
0
VERTEX
8
CUT
10
22.8277
20
27.88
0
VERTEX
8
CUT
10
20.6799
20
26.33
0
VERTEX
8
CUT
10
20.6799
20
23.23
0
VERTEX
8
CUT
10
22.8277
20
21.68
0
SEQEND
0
POLYLINE
8
CUT
66
1
70
0
0
VERTEX
8
CUT
10
25.599
20
25.53
0
VERTEX
8
CUT
10
25.599
20
26.78
0
VERTEX
8
CUT
10
22.8277
20
28.78
0
VERTEX
8
CUT
10
20.0564
20
26.78
0
VERTEX
8
CUT
10
20.0564
20
25.53
0
SEQEND
0
POLYLINE
8
CUT
66
1
70
0
0
VERTEX
8
CUT
10
20.0564
20
24.03
0
VERTEX
8
CUT
10
20.0564
20
22.78
0
VERTEX
8
CUT
10
22.8277
20
20.78
0
VERTEX
8
CUT
10
25.599
20
22.78
0
VERTEX
8
CUT
10
25.599
20
24.03
0
SEQEND
0
POLYLINE
8
CUT
66
1
70
0
0
VERTEX
8
CUT
10
29.3703
20
21.68
0
VERTEX
8
CUT
10
31.518
20
23.23
0
VERTEX
8
CUT
10
31.518
20
26.33
0
VERTEX
8
CUT
10
29.3703
20
27.88
0
VERTEX
8
CUT
10
27.2225
20
26.33
0
VERTEX
8
CUT
10
27.2225
20
23.23
0
VERTEX
8
CUT
10
29.3703
20
21.68
0
SEQEND
0
POLYLINE
8
CUT
66
1
70
0
0
VERTEX
8
CUT
10
32.1415
20
25.53
0
VERTEX
8
CUT
10
32.1415
20
26.78
0
VERTEX
8
CUT
10
29.3703
20
28.78
0
VERTEX
8
CUT
10
26.599
20
26.78
0
VERTEX
8
CUT
10
26.599
20
25.53
0
SEQEND
0
POLYLINE
8
CUT
66
1
70
0
0
VERTEX
8
CUT
10
26.599
20
24.03
0
VERTEX
8
CUT
10
26.599
20
22.78
0
VERTEX
8
CUT
10
29.3703
20
20.78
0
VERTEX
8
CUT
10
32.1415
20
22.78
0
VERTEX
8
CUT
10
32.1415
20
24.03
0
SEQEND
0
POLYLINE
8
CUT
66
1
70
0
0
VERTEX
8
CUT
10
35.9128
20
21.68
0
VERTEX
8
CUT
10
38.0606
20
23.23
0
VERTEX
8
CUT
10
38.0606
20
26.33
0
VERTEX
8
CUT
10
35.9128
20
27.88
0
VERTEX
8
CUT
10
33.7651
20
26.33
0
VERTEX
8
CUT
10
33.7651
20
23.23
0
VERTEX
8
CUT
10
35.9128
20
21.68
0
SEQEND
0
POLYLINE
8
CUT
66
1
70
0
0
VERTEX
8
CUT
10
38.6841
20
25.53
0
VERTEX
8
CUT
10
38.6841
20
26.78
0
VERTEX
8
CUT
10
35.9128
20
28.78
0
VERTEX
8
CUT
10
33.1415
20
26.78
0
VERTEX
8
CUT
10
33.1415
20
25.53
0
SEQEND
0
POLYLINE
8
CUT
66
1
70
0
0
VERTEX
8
CUT
10
33.1415
20
24.03
0
VERTEX
8
CUT
10
33.1415
20
22.78
0
VERTEX
8
CUT
10
35.9128
20
20.78
0
VERTEX
8
CUT
10
38.6841
20
22.78
0
VERTEX
8
CUT
10
38.6841
20
24.03
0
SEQEND
0
POLYLINE
8
CUT
66
1
70
0
0
VERTEX
8
CUT
10
42.4554
20
21.68
0
VERTEX
8
CUT
10
44.6031
20
23.23
0
VERTEX
8
CUT
10
44.6031
20
26.33
0
VERTEX
8
CUT
10
42.4554
20
27.88
0
VERTEX
8
CUT
10
40.3076
20
26.33
0
VERTEX
8
CUT
10
40.3076
20
23.23
0
VERTEX
8
CUT
10
42.4554
20
21.68
0
SEQEND
0
POLYLINE
8
CUT
66
1
70
0
0
VERTEX
8
CUT
10
45.2267
20
25.53
0
VERTEX
8
CUT
10
45.2267
20
26.78
0
VERTEX
8
CUT
10
42.4554
20
28.78
0
VERTEX
8
CUT
10
39.6841
20
26.78
0
VERTEX
8
CUT
10
39.6841
20
25.53
0
SEQEND
0
POLYLINE
8
CUT
66
1
70
0
0
VERTEX
8
CUT
10
39.6841
20
24.03
0
VERTEX
8
CUT
10
39.6841
20
22.78
0
VERTEX
8
CUT
10
42.4554
20
20.78
0
VERTEX
8
CUT
10
45.2267
20
22.78
0
VERTEX
8
CUT
10
45.2267
20
24.03
0
SEQEND
0
POLYLINE
8
CUT
66
1
70
0
0
VERTEX
8
CUT
10
48.9979
20
21.68
0
VERTEX
8
CUT
10
51.1457
20
23.23
0
VERTEX
8
CUT
10
51.1457
20
26.33
0
VERTEX
8
CUT
10
48.9979
20
27.88
0
VERTEX
8
CUT
10
46.8502
20
26.33
0
VERTEX
8
CUT
10
46.8502
20
23.23
0
VERTEX
8
CUT
10
48.9979
20
21.68
0
SEQEND
0
POLYLINE
8
CUT
66
1
70
0
0
VERTEX
8
CUT
10
51.7692
20
25.53
0
VERTEX
8
CUT
10
51.7692
20
26.78
0
VERTEX
8
CUT
10
48.9979
20
28.78
0
VERTEX
8
CUT
10
46.2267
20
26.78
0
VERTEX
8
CUT
10
46.2267
20
25.53
0
SEQEND
0
POLYLINE
8
CUT
66
1
70
0
0
VERTEX
8
CUT
10
46.2267
20
24.03
0
VERTEX
8
CUT
10
46.2267
20
22.78
0
VERTEX
8
CUT
10
48.9979
20
20.78
0
VERTEX
8
CUT
10
51.7692
20
22.78
0
VERTEX
8
CUT
10
51.7692
20
24.03
0
SEQEND
0
POLYLINE
8
CUT
66
1
70
0
0
VERTEX
8
CUT
10
55.5405
20
21.68
0
VERTEX
8
CUT
10
57.6882
20
23.23
0
VERTEX
8
CUT
10
57.6882
20
26.33
0
VERTEX
8
CUT
10
55.5405
20
27.88
0
VERTEX
8
CUT
10
53.3928
20
26.33
0
VERTEX
8
CUT
10
53.3928
20
23.23
0
VERTEX
8
CUT
10
55.5405
20
21.68
0
SEQEND
0
POLYLINE
8
CUT
66
1
70
0
0
VERTEX
8
CUT
10
58.3118
20
25.53
0
VERTEX
8
CUT
10
58.3118
20
26.78
0
VERTEX
8
CUT
10
55.5405
20
28.78
0
VERTEX
8
CUT
10
52.7692
20
26.78
0
VERTEX
8
CUT
10
52.7692
20
25.53
0
SEQEND
0
POLYLINE
8
CUT
66
1
70
0
0
VERTEX
8
CUT
10
52.7692
20
24.03
0
VERTEX
8
CUT
10
52.7692
20
22.78
0
VERTEX
8
CUT
10
55.5405
20
20.78
0
VERTEX
8
CUT
10
58.3118
20
22.78
0
VERTEX
8
CUT
10
58.3118
20
24.03
0
SEQEND
0
POLYLINE
8
CUT
66
1
70
0
0
VERTEX
8
CUT
10
62.0831
20
21.68
0
VERTEX
8
CUT
10
64.2308
20
23.23
0
VERTEX
8
CUT
10
64.2308
20
26.33
0
VERTEX
8
CUT
10
62.0831
20
27.88
0
VERTEX
8
CUT
10
59.9353
20
26.33
0
VERTEX
8
CUT
10
59.9353
20
23.23
0
VERTEX
8
CUT
10
62.0831
20
21.68
0
SEQEND
0
POLYLINE
8
CUT
66
1
70
0
0
VERTEX
8
CUT
10
64.8543
20
25.53
0
VERTEX
8
CUT
10
64.8543
20
26.78
0
VERTEX
8
CUT
10
62.0831
20
28.78
0
VERTEX
8
CUT
10
59.3118
20
26.78
0
VERTEX
8
CUT
10
59.3118
20
25.53
0
SEQEND
0
POLYLINE
8
CUT
66
1
70
0
0
VERTEX
8
CUT
10
59.3118
20
24.03
0
VERTEX
8
CUT
10
59.3118
20
22.78
0
VERTEX
8
CUT
10
62.0831
20
20.78
0
VERTEX
8
CUT
10
64.8543
20
22.78
0
VERTEX
8
CUT
10
64.8543
20
24.03
0
SEQEND
0
POLYLINE
8
CUT
66
1
70
0
0
VERTEX
8
CUT
10
68.6256
20
21.68
0
VERTEX
8
CUT
10
70.7734
20
23.23
0
VERTEX
8
CUT
10
70.7734
20
26.33
0
VERTEX
8
CUT
10
68.6256
20
27.88
0
VERTEX
8
CUT
10
66.4779
20
26.33
0
VERTEX
8
CUT
10
66.4779
20
23.23
0
VERTEX
8
CUT
10
68.6256
20
21.68
0
SEQEND
0
POLYLINE
8
CUT
66
1
70
0
0
VERTEX
8
CUT
10
71.3969
20
25.53
0
VERTEX
8
CUT
10
71.3969
20
26.78
0
VERTEX
8
CUT
10
68.6256
20
28.78
0
VERTEX
8
CUT
10
65.8543
20
26.78
0
VERTEX
8
CUT
10
65.8543
20
25.53
0
SEQEND
0
POLYLINE
8
CUT
66
1
70
0
0
VERTEX
8
CUT
10
65.8543
20
24.03
0
VERTEX
8
CUT
10
65.8543
20
22.78
0
VERTEX
8
CUT
10
68.6256
20
20.78
0
VERTEX
8
CUT
10
71.3969
20
22.78
0
VERTEX
8
CUT
10
71.3969
20
24.03
0
SEQEND
0
POLYLINE
8
CUT
66
1
70
0
0
VERTEX
8
CUT
10
75.1682
20
21.68
0
VERTEX
8
CUT
10
77.3159
20
23.23
0
VERTEX
8
CUT
10
77.3159
20
26.33
0
VERTEX
8
CUT
10
75.1682
20
27.88
0
VERTEX
8
CUT
10
73.0204
20
26.33
0
VERTEX
8
CUT
10
73.0204
20
23.23
0
VERTEX
8
CUT
10
75.1682
20
21.68
0
SEQEND
0
POLYLINE
8
CUT
66
1
70
0
0
VERTEX
8
CUT
10
77.9395
20
25.53
0
VERTEX
8
CUT
10
77.9395
20
26.78
0
VERTEX
8
CUT
10
75.1682
20
28.78
0
VERTEX
8
CUT
10
72.3969
20
26.78
0
VERTEX
8
CUT
10
72.3969
20
25.53
0
SEQEND
0
POLYLINE
8
CUT
66
1
70
0
0
VERTEX
8
CUT
10
72.3969
20
24.03
0
VERTEX
8
CUT
10
72.3969
20
22.78
0
VERTEX
8
CUT
10
75.1682
20
20.78
0
VERTEX
8
CUT
10
77.9395
20
22.78
0
VERTEX
8
CUT
10
77.9395
20
24.03
0
SEQEND
0
POLYLINE
8
CUT
66
1
70
0
0
VERTEX
8
CUT
10
81.7108
20
21.68
0
VERTEX
8
CUT
10
83.8585
20
23.23
0
VERTEX
8
CUT
10
83.8585
20
26.33
0
VERTEX
8
CUT
10
81.7108
20
27.88
0
VERTEX
8
CUT
10
79.563
20
26.33
0
VERTEX
8
CUT
10
79.563
20
23.23
0
VERTEX
8
CUT
10
81.7108
20
21.68
0
SEQEND
0
POLYLINE
8
CUT
66
1
70
0
0
VERTEX
8
CUT
10
84.482
20
25.53
0
VERTEX
8
CUT
10
84.482
20
26.78
0
VERTEX
8
CUT
10
81.7108
20
28.78
0
VERTEX
8
CUT
10
78.9395
20
26.78
0
VERTEX
8
CUT
10
78.9395
20
25.53
0
SEQEND
0
POLYLINE
8
CUT
66
1
70
0
0
VERTEX
8
CUT
10
78.9395
20
24.03
0
VERTEX
8
CUT
10
78.9395
20
22.78
0
VERTEX
8
CUT
10
81.7108
20
20.78
0
VERTEX
8
CUT
10
84.482
20
22.78
0
VERTEX
8
CUT
10
84.482
20
24.03
0
SEQEND
0
POLYLINE
8
CUT
66
1
70
0
0
VERTEX
8
CUT
10
88.2533
20
21.68
0
VERTEX
8
CUT
10
90.4011
20
23.23
0
VERTEX
8
CUT
10
90.4011
20
26.33
0
VERTEX
8
CUT
10
88.2533
20
27.88
0
VERTEX
8
CUT
10
86.1056
20
26.33
0
VERTEX
8
CUT
10
86.1056
20
23.23
0
VERTEX
8
CUT
10
88.2533
20
21.68
0
SEQEND
0
POLYLINE
8
CUT
66
1
70
0
0
VERTEX
8
CUT
10
91.0246
20
25.53
0
VERTEX
8
CUT
10
91.0246
20
26.78
0
VERTEX
8
CUT
10
88.2533
20
28.78
0
VERTEX
8
CUT
10
85.482
20
26.78
0
VERTEX
8
CUT
10
85.482
20
25.53
0
SEQEND
0
POLYLINE
8
CUT
66
1
70
0
0
VERTEX
8
CUT
10
85.482
20
24.03
0
VERTEX
8
CUT
10
85.482
20
22.78
0
VERTEX
8
CUT
10
88.2533
20
20.78
0
VERTEX
8
CUT
10
91.0246
20
22.78
0
VERTEX
8
CUT
10
91.0246
20
24.03
0
SEQEND
0
POLYLINE
8
CUT
66
1
70
0
0
VERTEX
8
CUT
10
94.7959
20
21.68
0
VERTEX
8
CUT
10
96.9436
20
23.23
0
VERTEX
8
CUT
10
96.9436
20
26.33
0
VERTEX
8
CUT
10
94.7959
20
27.88
0
VERTEX
8
CUT
10
92.6481
20
26.33
0
VERTEX
8
CUT
10
92.6481
20
23.23
0
VERTEX
8
CUT
10
94.7959
20
21.68
0
SEQEND
0
POLYLINE
8
CUT
66
1
70
0
0
VERTEX
8
CUT
10
97.5672
20
25.53
0
VERTEX
8
CUT
10
97.5672
20
26.78
0
VERTEX
8
CUT
10
94.7959
20
28.78
0
VERTEX
8
CUT
10
92.0246
20
26.78
0
VERTEX
8
CUT
10
92.0246
20
25.53
0
SEQEND
0
POLYLINE
8
CUT
66
1
70
0
0
VERTEX
8
CUT
10
92.0246
20
24.03
0
VERTEX
8
CUT
10
92.0246
20
22.78
0
VERTEX
8
CUT
10
94.7959
20
20.78
0
VERTEX
8
CUT
10
97.5672
20
22.78
0
VERTEX
8
CUT
10
97.5672
20
24.03
0
SEQEND
0
POLYLINE
8
CUT
66
1
70
0
0
VERTEX
8
CUT
10
101.3384
20
21.68
0
VERTEX
8
CUT
10
103.4862
20
23.23
0
VERTEX
8
CUT
10
103.4862
20
26.33
0
VERTEX
8
CUT
10
101.3384
20
27.88
0
VERTEX
8
CUT
10
99.1907
20
26.33
0
VERTEX
8
CUT
10
99.1907
20
23.23
0
VERTEX
8
CUT
10
101.3384
20
21.68
0
SEQEND
0
POLYLINE
8
CUT
66
1
70
0
0
VERTEX
8
CUT
10
104.1097
20
25.53
0
VERTEX
8
CUT
10
104.1097
20
26.78
0
VERTEX
8
CUT
10
101.3384
20
28.78
0
VERTEX
8
CUT
10
98.5672
20
26.78
0
VERTEX
8
CUT
10
98.5672
20
25.53
0
SEQEND
0
POLYLINE
8
CUT
66
1
70
0
0
VERTEX
8
CUT
10
98.5672
20
24.03
0
VERTEX
8
CUT
10
98.5672
20
22.78
0
VERTEX
8
CUT
10
101.3384
20
20.78
0
VERTEX
8
CUT
10
104.1097
20
22.78
0
VERTEX
8
CUT
10
104.1097
20
24.03
0
SEQEND
0
POLYLINE
8
CUT
66
1
70
0
0
VERTEX
8
CUT
10
107.881
20
21.68
0
VERTEX
8
CUT
10
110.0287
20
23.23
0
VERTEX
8
CUT
10
110.0287
20
26.33
0
VERTEX
8
CUT
10
107.881
20
27.88
0
VERTEX
8
CUT
10
105.7333
20
26.33
0
VERTEX
8
CUT
10
105.7333
20
23.23
0
VERTEX
8
CUT
10
107.881
20
21.68
0
SEQEND
0
POLYLINE
8
CUT
66
1
70
0
0
VERTEX
8
CUT
10
110.6523
20
25.53
0
VERTEX
8
CUT
10
110.6523
20
26.78
0
VERTEX
8
CUT
10
107.881
20
28.78
0
VERTEX
8
CUT
10
105.1097
20
26.78
0
VERTEX
8
CUT
10
105.1097
20
25.53
0
SEQEND
0
POLYLINE
8
CUT
66
1
70
0
0
VERTEX
8
CUT
10
105.1097
20
24.03
0
VERTEX
8
CUT
10
105.1097
20
22.78
0
VERTEX
8
CUT
10
107.881
20
20.78
0
VERTEX
8
CUT
10
110.6523
20
22.78
0
VERTEX
8
CUT
10
110.6523
20
24.03
0
SEQEND
0
POLYLINE
8
CUT
66
1
70
0
0
VERTEX
8
CUT
10
114.4236
20
21.68
0
VERTEX
8
CUT
10
116.5713
20
23.23
0
VERTEX
8
CUT
10
116.5713
20
26.33
0
VERTEX
8
CUT
10
114.4236
20
27.88
0
VERTEX
8
CUT
10
112.2758
20
26.33
0
VERTEX
8
CUT
10
112.2758
20
23.23
0
VERTEX
8
CUT
10
114.4236
20
21.68
0
SEQEND
0
POLYLINE
8
CUT
66
1
70
0
0
VERTEX
8
CUT
10
117.1948
20
25.53
0
VERTEX
8
CUT
10
117.1948
20
26.78
0
VERTEX
8
CUT
10
114.4236
20
28.78
0
VERTEX
8
CUT
10
111.6523
20
26.78
0
VERTEX
8
CUT
10
111.6523
20
25.53
0
SEQEND
0
POLYLINE
8
CUT
66
1
70
0
0
VERTEX
8
CUT
10
111.6523
20
24.03
0
VERTEX
8
CUT
10
111.6523
20
22.78
0
VERTEX
8
CUT
10
114.4236
20
20.78
0
VERTEX
8
CUT
10
117.1948
20
22.78
0
VERTEX
8
CUT
10
117.1948
20
24.03
0
SEQEND
0
POLYLINE
8
CUT
66
1
70
0
0
VERTEX
8
CUT
10
120
20
27.1828
0
VERTEX
8
CUT
10
118.8184
20
26.33
0
VERTEX
8
CUT
10
118.8184
20
23.23
0
VERTEX
8
CUT
10
120
20
22.3772
0
SEQEND
0
POLYLINE
8
CUT
66
1
70
0
0
VERTEX
8
CUT
10
120
20
28.0828
0
VERTEX
8
CUT
10
118.1948
20
26.78
0
VERTEX
8
CUT
10
118.1948
20
25.53
0
SEQEND
0
POLYLINE
8
CUT
66
1
70
0
0
VERTEX
8
CUT
10
118.1948
20
24.03
0
VERTEX
8
CUT
10
118.1948
20
22.78
0
VERTEX
8
CUT
10
120
20
21.4772
0
SEQEND
0
POLYLINE
8
CUT
66
1
70
0
0
VERTEX
8
CUT
10
0
20
14.8614
0
VERTEX
8
CUT
10
2.0765
20
16.36
0
VERTEX
8
CUT
10
2.0765
20
19.46
0
VERTEX
8
CUT
10
0
20
20.9586
0
SEQEND
0
POLYLINE
8
CUT
66
1
70
0
0
VERTEX
8
CUT
10
2.7
20
18.66
0
VERTEX
8
CUT
10
2.7
20
19.91
0
VERTEX
8
CUT
10
0
20
21.8586
0
SEQEND
0
POLYLINE
8
CUT
66
1
70
0
0
VERTEX
8
CUT
10
0
20
13.9614
0
VERTEX
8
CUT
10
2.7
20
15.91
0
VERTEX
8
CUT
10
2.7
20
17.16
0
SEQEND
0
POLYLINE
8
CUT
66
1
70
0
0
VERTEX
8
CUT
10
6.4713
20
14.81
0
VERTEX
8
CUT
10
8.619
20
16.36
0
VERTEX
8
CUT
10
8.619
20
19.46
0
VERTEX
8
CUT
10
6.4713
20
21.01
0
VERTEX
8
CUT
10
4.3235
20
19.46
0
VERTEX
8
CUT
10
4.3235
20
16.36
0
VERTEX
8
CUT
10
6.4713
20
14.81
0
SEQEND
0
POLYLINE
8
CUT
66
1
70
0
0
VERTEX
8
CUT
10
9.2426
20
18.66
0
VERTEX
8
CUT
10
9.2426
20
19.91
0
VERTEX
8
CUT
10
6.4713
20
21.91
0
VERTEX
8
CUT
10
3.7
20
19.91
0
VERTEX
8
CUT
10
3.7
20
18.66
0
SEQEND
0
POLYLINE
8
CUT
66
1
70
0
0
VERTEX
8
CUT
10
3.7
20
17.16
0
VERTEX
8
CUT
10
3.7
20
15.91
0
VERTEX
8
CUT
10
6.4713
20
13.91
0
VERTEX
8
CUT
10
9.2426
20
15.91
0
VERTEX
8
CUT
10
9.2426
20
17.16
0
SEQEND
0
POLYLINE
8
CUT
66
1
70
0
0
VERTEX
8
CUT
10
13.0138
20
14.81
0
VERTEX
8
CUT
10
15.1616
20
16.36
0
VERTEX
8
CUT
10
15.1616
20
19.46
0
VERTEX
8
CUT
10
13.0138
20
21.01
0
VERTEX
8
CUT
10
10.8661
20
19.46
0
VERTEX
8
CUT
10
10.8661
20
16.36
0
VERTEX
8
CUT
10
13.0138
20
14.81
0
SEQEND
0
POLYLINE
8
CUT
66
1
70
0
0
VERTEX
8
CUT
10
15.7851
20
18.66
0
VERTEX
8
CUT
10
15.7851
20
19.91
0
VERTEX
8
CUT
10
13.0138
20
21.91
0
VERTEX
8
CUT
10
10.2426
20
19.91
0
VERTEX
8
CUT
10
10.2426
20
18.66
0
SEQEND
0
POLYLINE
8
CUT
66
1
70
0
0
VERTEX
8
CUT
10
10.2426
20
17.16
0
VERTEX
8
CUT
10
10.2426
20
15.91
0
VERTEX
8
CUT
10
13.0138
20
13.91
0
VERTEX
8
CUT
10
15.7851
20
15.91
0
VERTEX
8
CUT
10
15.7851
20
17.16
0
SEQEND
0
POLYLINE
8
CUT
66
1
70
0
0
VERTEX
8
CUT
10
19.5564
20
14.81
0
VERTEX
8
CUT
10
21.7041
20
16.36
0
VERTEX
8
CUT
10
21.7041
20
19.46
0
VERTEX
8
CUT
10
19.5564
20
21.01
0
VERTEX
8
CUT
10
17.4087
20
19.46
0
VERTEX
8
CUT
10
17.4087
20
16.36
0
VERTEX
8
CUT
10
19.5564
20
14.81
0
SEQEND
0
POLYLINE
8
CUT
66
1
70
0
0
VERTEX
8
CUT
10
22.3277
20
18.66
0
VERTEX
8
CUT
10
22.3277
20
19.91
0
VERTEX
8
CUT
10
19.5564
20
21.91
0
VERTEX
8
CUT
10
16.7851
20
19.91
0
VERTEX
8
CUT
10
16.7851
20
18.66
0
SEQEND
0
POLYLINE
8
CUT
66
1
70
0
0
VERTEX
8
CUT
10
16.7851
20
17.16
0
VERTEX
8
CUT
10
16.7851
20
15.91
0
VERTEX
8
CUT
10
19.5564
20
13.91
0
VERTEX
8
CUT
10
22.3277
20
15.91
0
VERTEX
8
CUT
10
22.3277
20
17.16
0
SEQEND
0
POLYLINE
8
CUT
66
1
70
0
0
VERTEX
8
CUT
10
26.099
20
14.81
0
VERTEX
8
CUT
10
28.2467
20
16.36
0
VERTEX
8
CUT
10
28.2467
20
19.46
0
VERTEX
8
CUT
10
26.099
20
21.01
0
VERTEX
8
CUT
10
23.9512
20
19.46
0
VERTEX
8
CUT
10
23.9512
20
16.36
0
VERTEX
8
CUT
10
26.099
20
14.81
0
SEQEND
0
POLYLINE
8
CUT
66
1
70
0
0
VERTEX
8
CUT
10
28.8703
20
18.66
0
VERTEX
8
CUT
10
28.8703
20
19.91
0
VERTEX
8
CUT
10
26.099
20
21.91
0
VERTEX
8
CUT
10
23.3277
20
19.91
0
VERTEX
8
CUT
10
23.3277
20
18.66
0
SEQEND
0
POLYLINE
8
CUT
66
1
70
0
0
VERTEX
8
CUT
10
23.3277
20
17.16
0
VERTEX
8
CUT
10
23.3277
20
15.91
0
VERTEX
8
CUT
10
26.099
20
13.91
0
VERTEX
8
CUT
10
28.8703
20
15.91
0
VERTEX
8
CUT
10
28.8703
20
17.16
0
SEQEND
0
POLYLINE
8
CUT
66
1
70
0
0
VERTEX
8
CUT
10
32.6415
20
14.81
0
VERTEX
8
CUT
10
34.7893
20
16.36
0
VERTEX
8
CUT
10
34.7893
20
19.46
0
VERTEX
8
CUT
10
32.6415
20
21.01
0
VERTEX
8
CUT
10
30.4938
20
19.46
0
VERTEX
8
CUT
10
30.4938
20
16.36
0
VERTEX
8
CUT
10
32.6415
20
14.81
0
SEQEND
0
POLYLINE
8
CUT
66
1
70
0
0
VERTEX
8
CUT
10
35.4128
20
18.66
0
VERTEX
8
CUT
10
35.4128
20
19.91
0
VERTEX
8
CUT
10
32.6415
20
21.91
0
VERTEX
8
CUT
10
29.8703
20
19.91
0
VERTEX
8
CUT
10
29.8703
20
18.66
0
SEQEND
0
POLYLINE
8
CUT
66
1
70
0
0
VERTEX
8
CUT
10
29.8703
20
17.16
0
VERTEX
8
CUT
10
29.8703
20
15.91
0
VERTEX
8
CUT
10
32.6415
20
13.91
0
VERTEX
8
CUT
10
35.4128
20
15.91
0
VERTEX
8
CUT
10
35.4128
20
17.16
0
SEQEND
0
POLYLINE
8
CUT
66
1
70
0
0
VERTEX
8
CUT
10
39.1841
20
14.81
0
VERTEX
8
CUT
10
41.3318
20
16.36
0
VERTEX
8
CUT
10
41.3318
20
19.46
0
VERTEX
8
CUT
10
39.1841
20
21.01
0
VERTEX
8
CUT
10
37.0364
20
19.46
0
VERTEX
8
CUT
10
37.0364
20
16.36
0
VERTEX
8
CUT
10
39.1841
20
14.81
0
SEQEND
0
POLYLINE
8
CUT
66
1
70
0
0
VERTEX
8
CUT
10
41.9554
20
18.66
0
VERTEX
8
CUT
10
41.9554
20
19.91
0
VERTEX
8
CUT
10
39.1841
20
21.91
0
VERTEX
8
CUT
10
36.4128
20
19.91
0
VERTEX
8
CUT
10
36.4128
20
18.66
0
SEQEND
0
POLYLINE
8
CUT
66
1
70
0
0
VERTEX
8
CUT
10
36.4128
20
17.16
0
VERTEX
8
CUT
10
36.4128
20
15.91
0
VERTEX
8
CUT
10
39.1841
20
13.91
0
VERTEX
8
CUT
10
41.9554
20
15.91
0
VERTEX
8
CUT
10
41.9554
20
17.16
0
SEQEND
0
POLYLINE
8
CUT
66
1
70
0
0
VERTEX
8
CUT
10
45.7267
20
14.81
0
VERTEX
8
CUT
10
47.8744
20
16.36
0
VERTEX
8
CUT
10
47.8744
20
19.46
0
VERTEX
8
CUT
10
45.7267
20
21.01
0
VERTEX
8
CUT
10
43.5789
20
19.46
0
VERTEX
8
CUT
10
43.5789
20
16.36
0
VERTEX
8
CUT
10
45.7267
20
14.81
0
SEQEND
0
POLYLINE
8
CUT
66
1
70
0
0
VERTEX
8
CUT
10
48.4979
20
18.66
0
VERTEX
8
CUT
10
48.4979
20
19.91
0
VERTEX
8
CUT
10
45.7267
20
21.91
0
VERTEX
8
CUT
10
42.9554
20
19.91
0
VERTEX
8
CUT
10
42.9554
20
18.66
0
SEQEND
0
POLYLINE
8
CUT
66
1
70
0
0
VERTEX
8
CUT
10
42.9554
20
17.16
0
VERTEX
8
CUT
10
42.9554
20
15.91
0
VERTEX
8
CUT
10
45.7267
20
13.91
0
VERTEX
8
CUT
10
48.4979
20
15.91
0
VERTEX
8
CUT
10
48.4979
20
17.16
0
SEQEND
0
POLYLINE
8
CUT
66
1
70
0
0
VERTEX
8
CUT
10
52.2692
20
14.81
0
VERTEX
8
CUT
10
54.417
20
16.36
0
VERTEX
8
CUT
10
54.417
20
19.46
0
VERTEX
8
CUT
10
52.2692
20
21.01
0
VERTEX
8
CUT
10
50.1215
20
19.46
0
VERTEX
8
CUT
10
50.1215
20
16.36
0
VERTEX
8
CUT
10
52.2692
20
14.81
0
SEQEND
0
POLYLINE
8
CUT
66
1
70
0
0
VERTEX
8
CUT
10
55.0405
20
18.66
0
VERTEX
8
CUT
10
55.0405
20
19.91
0
VERTEX
8
CUT
10
52.2692
20
21.91
0
VERTEX
8
CUT
10
49.4979
20
19.91
0
VERTEX
8
CUT
10
49.4979
20
18.66
0
SEQEND
0
POLYLINE
8
CUT
66
1
70
0
0
VERTEX
8
CUT
10
49.4979
20
17.16
0
VERTEX
8
CUT
10
49.4979
20
15.91
0
VERTEX
8
CUT
10
52.2692
20
13.91
0
VERTEX
8
CUT
10
55.0405
20
15.91
0
VERTEX
8
CUT
10
55.0405
20
17.16
0
SEQEND
0
POLYLINE
8
CUT
66
1
70
0
0
VERTEX
8
CUT
10
58.8118
20
14.81
0
VERTEX
8
CUT
10
60.9595
20
16.36
0
VERTEX
8
CUT
10
60.9595
20
19.46
0
VERTEX
8
CUT
10
58.8118
20
21.01
0
VERTEX
8
CUT
10
56.664
20
19.46
0
VERTEX
8
CUT
10
56.664
20
16.36
0
VERTEX
8
CUT
10
58.8118
20
14.81
0
SEQEND
0
POLYLINE
8
CUT
66
1
70
0
0
VERTEX
8
CUT
10
61.5831
20
18.66
0
VERTEX
8
CUT
10
61.5831
20
19.91
0
VERTEX
8
CUT
10
58.8118
20
21.91
0
VERTEX
8
CUT
10
56.0405
20
19.91
0
VERTEX
8
CUT
10
56.0405
20
18.66
0
SEQEND
0
POLYLINE
8
CUT
66
1
70
0
0
VERTEX
8
CUT
10
56.0405
20
17.16
0
VERTEX
8
CUT
10
56.0405
20
15.91
0
VERTEX
8
CUT
10
58.8118
20
13.91
0
VERTEX
8
CUT
10
61.5831
20
15.91
0
VERTEX
8
CUT
10
61.5831
20
17.16
0
SEQEND
0
POLYLINE
8
CUT
66
1
70
0
0
VERTEX
8
CUT
10
65.3543
20
14.81
0
VERTEX
8
CUT
10
67.5021
20
16.36
0
VERTEX
8
CUT
10
67.5021
20
19.46
0
VERTEX
8
CUT
10
65.3543
20
21.01
0
VERTEX
8
CUT
10
63.2066
20
19.46
0
VERTEX
8
CUT
10
63.2066
20
16.36
0
VERTEX
8
CUT
10
65.3543
20
14.81
0
SEQEND
0
POLYLINE
8
CUT
66
1
70
0
0
VERTEX
8
CUT
10
68.1256
20
18.66
0
VERTEX
8
CUT
10
68.1256
20
19.91
0
VERTEX
8
CUT
10
65.3543
20
21.91
0
VERTEX
8
CUT
10
62.5831
20
19.91
0
VERTEX
8
CUT
10
62.5831
20
18.66
0
SEQEND
0
POLYLINE
8
CUT
66
1
70
0
0
VERTEX
8
CUT
10
62.5831
20
17.16
0
VERTEX
8
CUT
10
62.5831
20
15.91
0
VERTEX
8
CUT
10
65.3543
20
13.91
0
VERTEX
8
CUT
10
68.1256
20
15.91
0
VERTEX
8
CUT
10
68.1256
20
17.16
0
SEQEND
0
POLYLINE
8
CUT
66
1
70
0
0
VERTEX
8
CUT
10
71.8969
20
14.81
0
VERTEX
8
CUT
10
74.0447
20
16.36
0
VERTEX
8
CUT
10
74.0447
20
19.46
0
VERTEX
8
CUT
10
71.8969
20
21.01
0
VERTEX
8
CUT
10
69.7492
20
19.46
0
VERTEX
8
CUT
10
69.7492
20
16.36
0
VERTEX
8
CUT
10
71.8969
20
14.81
0
SEQEND
0
POLYLINE
8
CUT
66
1
70
0
0
VERTEX
8
CUT
10
74.6682
20
18.66
0
VERTEX
8
CUT
10
74.6682
20
19.91
0
VERTEX
8
CUT
10
71.8969
20
21.91
0
VERTEX
8
CUT
10
69.1256
20
19.91
0
VERTEX
8
CUT
10
69.1256
20
18.66
0
SEQEND
0
POLYLINE
8
CUT
66
1
70
0
0
VERTEX
8
CUT
10
69.1256
20
17.16
0
VERTEX
8
CUT
10
69.1256
20
15.91
0
VERTEX
8
CUT
10
71.8969
20
13.91
0
VERTEX
8
CUT
10
74.6682
20
15.91
0
VERTEX
8
CUT
10
74.6682
20
17.16
0
SEQEND
0
POLYLINE
8
CUT
66
1
70
0
0
VERTEX
8
CUT
10
78.4395
20
14.81
0
VERTEX
8
CUT
10
80.5872
20
16.36
0
VERTEX
8
CUT
10
80.5872
20
19.46
0
VERTEX
8
CUT
10
78.4395
20
21.01
0
VERTEX
8
CUT
10
76.2917
20
19.46
0
VERTEX
8
CUT
10
76.2917
20
16.36
0
VERTEX
8
CUT
10
78.4395
20
14.81
0
SEQEND
0
POLYLINE
8
CUT
66
1
70
0
0
VERTEX
8
CUT
10
81.2108
20
18.66
0
VERTEX
8
CUT
10
81.2108
20
19.91
0
VERTEX
8
CUT
10
78.4395
20
21.91
0
VERTEX
8
CUT
10
75.6682
20
19.91
0
VERTEX
8
CUT
10
75.6682
20
18.66
0
SEQEND
0
POLYLINE
8
CUT
66
1
70
0
0
VERTEX
8
CUT
10
75.6682
20
17.16
0
VERTEX
8
CUT
10
75.6682
20
15.91
0
VERTEX
8
CUT
10
78.4395
20
13.91
0
VERTEX
8
CUT
10
81.2108
20
15.91
0
VERTEX
8
CUT
10
81.2108
20
17.16
0
SEQEND
0
POLYLINE
8
CUT
66
1
70
0
0
VERTEX
8
CUT
10
84.982
20
14.81
0
VERTEX
8
CUT
10
87.1298
20
16.36
0
VERTEX
8
CUT
10
87.1298
20
19.46
0
VERTEX
8
CUT
10
84.982
20
21.01
0
VERTEX
8
CUT
10
82.8343
20
19.46
0
VERTEX
8
CUT
10
82.8343
20
16.36
0
VERTEX
8
CUT
10
84.982
20
14.81
0
SEQEND
0
POLYLINE
8
CUT
66
1
70
0
0
VERTEX
8
CUT
10
87.7533
20
18.66
0
VERTEX
8
CUT
10
87.7533
20
19.91
0
VERTEX
8
CUT
10
84.982
20
21.91
0
VERTEX
8
CUT
10
82.2108
20
19.91
0
VERTEX
8
CUT
10
82.2108
20
18.66
0
SEQEND
0
POLYLINE
8
CUT
66
1
70
0
0
VERTEX
8
CUT
10
82.2108
20
17.16
0
VERTEX
8
CUT
10
82.2108
20
15.91
0
VERTEX
8
CUT
10
84.982
20
13.91
0
VERTEX
8
CUT
10
87.7533
20
15.91
0
VERTEX
8
CUT
10
87.7533
20
17.16
0
SEQEND
0
POLYLINE
8
CUT
66
1
70
0
0
VERTEX
8
CUT
10
91.5246
20
14.81
0
VERTEX
8
CUT
10
93.6723
20
16.36
0
VERTEX
8
CUT
10
93.6723
20
19.46
0
VERTEX
8
CUT
10
91.5246
20
21.01
0
VERTEX
8
CUT
10
89.3769
20
19.46
0
VERTEX
8
CUT
10
89.3769
20
16.36
0
VERTEX
8
CUT
10
91.5246
20
14.81
0
SEQEND
0
POLYLINE
8
CUT
66
1
70
0
0
VERTEX
8
CUT
10
94.2959
20
18.66
0
VERTEX
8
CUT
10
94.2959
20
19.91
0
VERTEX
8
CUT
10
91.5246
20
21.91
0
VERTEX
8
CUT
10
88.7533
20
19.91
0
VERTEX
8
CUT
10
88.7533
20
18.66
0
SEQEND
0
POLYLINE
8
CUT
66
1
70
0
0
VERTEX
8
CUT
10
88.7533
20
17.16
0
VERTEX
8
CUT
10
88.7533
20
15.91
0
VERTEX
8
CUT
10
91.5246
20
13.91
0
VERTEX
8
CUT
10
94.2959
20
15.91
0
VERTEX
8
CUT
10
94.2959
20
17.16
0
SEQEND
0
POLYLINE
8
CUT
66
1
70
0
0
VERTEX
8
CUT
10
98.0672
20
14.81
0
VERTEX
8
CUT
10
100.2149
20
16.36
0
VERTEX
8
CUT
10
100.2149
20
19.46
0
VERTEX
8
CUT
10
98.0672
20
21.01
0
VERTEX
8
CUT
10
95.9194
20
19.46
0
VERTEX
8
CUT
10
95.9194
20
16.36
0
VERTEX
8
CUT
10
98.0672
20
14.81
0
SEQEND
0
POLYLINE
8
CUT
66
1
70
0
0
VERTEX
8
CUT
10
100.8384
20
18.66
0
VERTEX
8
CUT
10
100.8384
20
19.91
0
VERTEX
8
CUT
10
98.0672
20
21.91
0
VERTEX
8
CUT
10
95.2959
20
19.91
0
VERTEX
8
CUT
10
95.2959
20
18.66
0
SEQEND
0
POLYLINE
8
CUT
66
1
70
0
0
VERTEX
8
CUT
10
95.2959
20
17.16
0
VERTEX
8
CUT
10
95.2959
20
15.91
0
VERTEX
8
CUT
10
98.0672
20
13.91
0
VERTEX
8
CUT
10
100.8384
20
15.91
0
VERTEX
8
CUT
10
100.8384
20
17.16
0
SEQEND
0
POLYLINE
8
CUT
66
1
70
0
0
VERTEX
8
CUT
10
104.6097
20
14.81
0
VERTEX
8
CUT
10
106.7575
20
16.36
0
VERTEX
8
CUT
10
106.7575
20
19.46
0
VERTEX
8
CUT
10
104.6097
20
21.01
0
VERTEX
8
CUT
10
102.462
20
19.46
0
VERTEX
8
CUT
10
102.462
20
16.36
0
VERTEX
8
CUT
10
104.6097
20
14.81
0
SEQEND
0
POLYLINE
8
CUT
66
1
70
0
0
VERTEX
8
CUT
10
107.381
20
18.66
0
VERTEX
8
CUT
10
107.381
20
19.91
0
VERTEX
8
CUT
10
104.6097
20
21.91
0
VERTEX
8
CUT
10
101.8384
20
19.91
0
VERTEX
8
CUT
10
101.8384
20
18.66
0
SEQEND
0
POLYLINE
8
CUT
66
1
70
0
0
VERTEX
8
CUT
10
101.8384
20
17.16
0
VERTEX
8
CUT
10
101.8384
20
15.91
0
VERTEX
8
CUT
10
104.6097
20
13.91
0
VERTEX
8
CUT
10
107.381
20
15.91
0
VERTEX
8
CUT
10
107.381
20
17.16
0
SEQEND
0
POLYLINE
8
CUT
66
1
70
0
0
VERTEX
8
CUT
10
111.1523
20
14.81
0
VERTEX
8
CUT
10
113.3
20
16.36
0
VERTEX
8
CUT
10
113.3
20
19.46
0
VERTEX
8
CUT
10
111.1523
20
21.01
0
VERTEX
8
CUT
10
109.0045
20
19.46
0
VERTEX
8
CUT
10
109.0045
20
16.36
0
VERTEX
8
CUT
10
111.1523
20
14.81
0
SEQEND
0
POLYLINE
8
CUT
66
1
70
0
0
VERTEX
8
CUT
10
113.9236
20
18.66
0
VERTEX
8
CUT
10
113.9236
20
19.91
0
VERTEX
8
CUT
10
111.1523
20
21.91
0
VERTEX
8
CUT
10
108.381
20
19.91
0
VERTEX
8
CUT
10
108.381
20
18.66
0
SEQEND
0
POLYLINE
8
CUT
66
1
70
0
0
VERTEX
8
CUT
10
108.381
20
17.16
0
VERTEX
8
CUT
10
108.381
20
15.91
0
VERTEX
8
CUT
10
111.1523
20
13.91
0
VERTEX
8
CUT
10
113.9236
20
15.91
0
VERTEX
8
CUT
10
113.9236
20
17.16
0
SEQEND
0
POLYLINE
8
CUT
66
1
70
0
0
VERTEX
8
CUT
10
117.6948
20
14.81
0
VERTEX
8
CUT
10
119.8426
20
16.36
0
VERTEX
8
CUT
10
119.8426
20
19.46
0
VERTEX
8
CUT
10
117.6948
20
21.01
0
VERTEX
8
CUT
10
115.5471
20
19.46
0
VERTEX
8
CUT
10
115.5471
20
16.36
0
VERTEX
8
CUT
10
117.6948
20
14.81
0
SEQEND
0
POLYLINE
8
CUT
66
1
70
0
0
VERTEX
8
CUT
10
120
20
20.2464
0
VERTEX
8
CUT
10
117.6948
20
21.91
0
VERTEX
8
CUT
10
114.9236
20
19.91
0
VERTEX
8
CUT
10
114.9236
20
18.66
0
SEQEND
0
POLYLINE
8
CUT
66
1
70
0
0
VERTEX
8
CUT
10
114.9236
20
17.16
0
VERTEX
8
CUT
10
114.9236
20
15.91
0
VERTEX
8
CUT
10
117.6948
20
13.91
0
VERTEX
8
CUT
10
120
20
15.5736
0
SEQEND
0
POLYLINE
8
CUT
66
1
70
0
0
VERTEX
8
CUT
10
3.2
20
7.94
0
VERTEX
8
CUT
10
5.3477
20
9.49
0
VERTEX
8
CUT
10
5.3477
20
12.59
0
VERTEX
8
CUT
10
3.2
20
14.14
0
VERTEX
8
CUT
10
1.0523
20
12.59
0
VERTEX
8
CUT
10
1.0523
20
9.49
0
VERTEX
8
CUT
10
3.2
20
7.94
0
SEQEND
0
POLYLINE
8
CUT
66
1
70
0
0
VERTEX
8
CUT
10
5.9713
20
11.79
0
VERTEX
8
CUT
10
5.9713
20
13.04
0
VERTEX
8
CUT
10
3.2
20
15.04
0
VERTEX
8
CUT
10
0.4287
20
13.04
0
VERTEX
8
CUT
10
0.4287
20
11.79
0
SEQEND
0
POLYLINE
8
CUT
66
1
70
0
0
VERTEX
8
CUT
10
0.4287
20
10.29
0
VERTEX
8
CUT
10
0.4287
20
9.04
0
VERTEX
8
CUT
10
3.2
20
7.04
0
VERTEX
8
CUT
10
5.9713
20
9.04
0
VERTEX
8
CUT
10
5.9713
20
10.29
0
SEQEND
0
POLYLINE
8
CUT
66
1
70
0
0
VERTEX
8
CUT
10
9.7426
20
7.94
0
VERTEX
8
CUT
10
11.8903
20
9.49
0
VERTEX
8
CUT
10
11.8903
20
12.59
0
VERTEX
8
CUT
10
9.7426
20
14.14
0
VERTEX
8
CUT
10
7.5948
20
12.59
0
VERTEX
8
CUT
10
7.5948
20
9.49
0
VERTEX
8
CUT
10
9.7426
20
7.94
0
SEQEND
0
POLYLINE
8
CUT
66
1
70
0
0
VERTEX
8
CUT
10
12.5138
20
11.79
0
VERTEX
8
CUT
10
12.5138
20
13.04
0
VERTEX
8
CUT
10
9.7426
20
15.04
0
VERTEX
8
CUT
10
6.9713
20
13.04
0
VERTEX
8
CUT
10
6.9713
20
11.79
0
SEQEND
0
POLYLINE
8
CUT
66
1
70
0
0
VERTEX
8
CUT
10
6.9713
20
10.29
0
VERTEX
8
CUT
10
6.9713
20
9.04
0
VERTEX
8
CUT
10
9.7426
20
7.04
0
VERTEX
8
CUT
10
12.5138
20
9.04
0
VERTEX
8
CUT
10
12.5138
20
10.29
0
SEQEND
0
POLYLINE
8
CUT
66
1
70
0
0
VERTEX
8
CUT
10
16.2851
20
7.94
0
VERTEX
8
CUT
10
18.4329
20
9.49
0
VERTEX
8
CUT
10
18.4329
20
12.59
0
VERTEX
8
CUT
10
16.2851
20
14.14
0
VERTEX
8
CUT
10
14.1374
20
12.59
0
VERTEX
8
CUT
10
14.1374
20
9.49
0
VERTEX
8
CUT
10
16.2851
20
7.94
0
SEQEND
0
POLYLINE
8
CUT
66
1
70
0
0
VERTEX
8
CUT
10
19.0564
20
11.79
0
VERTEX
8
CUT
10
19.0564
20
13.04
0
VERTEX
8
CUT
10
16.2851
20
15.04
0
VERTEX
8
CUT
10
13.5138
20
13.04
0
VERTEX
8
CUT
10
13.5138
20
11.79
0
SEQEND
0
POLYLINE
8
CUT
66
1
70
0
0
VERTEX
8
CUT
10
13.5138
20
10.29
0
VERTEX
8
CUT
10
13.5138
20
9.04
0
VERTEX
8
CUT
10
16.2851
20
7.04
0
VERTEX
8
CUT
10
19.0564
20
9.04
0
VERTEX
8
CUT
10
19.0564
20
10.29
0
SEQEND
0
POLYLINE
8
CUT
66
1
70
0
0
VERTEX
8
CUT
10
22.8277
20
7.94
0
VERTEX
8
CUT
10
24.9754
20
9.49
0
VERTEX
8
CUT
10
24.9754
20
12.59
0
VERTEX
8
CUT
10
22.8277
20
14.14
0
VERTEX
8
CUT
10
20.6799
20
12.59
0
VERTEX
8
CUT
10
20.6799
20
9.49
0
VERTEX
8
CUT
10
22.8277
20
7.94
0
SEQEND
0
POLYLINE
8
CUT
66
1
70
0
0
VERTEX
8
CUT
10
25.599
20
11.79
0
VERTEX
8
CUT
10
25.599
20
13.04
0
VERTEX
8
CUT
10
22.8277
20
15.04
0
VERTEX
8
CUT
10
20.0564
20
13.04
0
VERTEX
8
CUT
10
20.0564
20
11.79
0
SEQEND
0
POLYLINE
8
CUT
66
1
70
0
0
VERTEX
8
CUT
10
20.0564
20
10.29
0
VERTEX
8
CUT
10
20.0564
20
9.04
0
VERTEX
8
CUT
10
22.8277
20
7.04
0
VERTEX
8
CUT
10
25.599
20
9.04
0
VERTEX
8
CUT
10
25.599
20
10.29
0
SEQEND
0
POLYLINE
8
CUT
66
1
70
0
0
VERTEX
8
CUT
10
29.3703
20
7.94
0
VERTEX
8
CUT
10
31.518
20
9.49
0
VERTEX
8
CUT
10
31.518
20
12.59
0
VERTEX
8
CUT
10
29.3703
20
14.14
0
VERTEX
8
CUT
10
27.2225
20
12.59
0
VERTEX
8
CUT
10
27.2225
20
9.49
0
VERTEX
8
CUT
10
29.3703
20
7.94
0
SEQEND
0
POLYLINE
8
CUT
66
1
70
0
0
VERTEX
8
CUT
10
32.1415
20
11.79
0
VERTEX
8
CUT
10
32.1415
20
13.04
0
VERTEX
8
CUT
10
29.3703
20
15.04
0
VERTEX
8
CUT
10
26.599
20
13.04
0
VERTEX
8
CUT
10
26.599
20
11.79
0
SEQEND
0
POLYLINE
8
CUT
66
1
70
0
0
VERTEX
8
CUT
10
26.599
20
10.29
0
VERTEX
8
CUT
10
26.599
20
9.04
0
VERTEX
8
CUT
10
29.3703
20
7.04
0
VERTEX
8
CUT
10
32.1415
20
9.04
0
VERTEX
8
CUT
10
32.1415
20
10.29
0
SEQEND
0
POLYLINE
8
CUT
66
1
70
0
0
VERTEX
8
CUT
10
35.9128
20
7.94
0
VERTEX
8
CUT
10
38.0606
20
9.49
0
VERTEX
8
CUT
10
38.0606
20
12.59
0
VERTEX
8
CUT
10
35.9128
20
14.14
0
VERTEX
8
CUT
10
33.7651
20
12.59
0
VERTEX
8
CUT
10
33.7651
20
9.49
0
VERTEX
8
CUT
10
35.9128
20
7.94
0
SEQEND
0
POLYLINE
8
CUT
66
1
70
0
0
VERTEX
8
CUT
10
38.6841
20
11.79
0
VERTEX
8
CUT
10
38.6841
20
13.04
0
VERTEX
8
CUT
10
35.9128
20
15.04
0
VERTEX
8
CUT
10
33.1415
20
13.04
0
VERTEX
8
CUT
10
33.1415
20
11.79
0
SEQEND
0
POLYLINE
8
CUT
66
1
70
0
0
VERTEX
8
CUT
10
33.1415
20
10.29
0
VERTEX
8
CUT
10
33.1415
20
9.04
0
VERTEX
8
CUT
10
35.9128
20
7.04
0
VERTEX
8
CUT
10
38.6841
20
9.04
0
VERTEX
8
CUT
10
38.6841
20
10.29
0
SEQEND
0
POLYLINE
8
CUT
66
1
70
0
0
VERTEX
8
CUT
10
42.4554
20
7.94
0
VERTEX
8
CUT
10
44.6031
20
9.49
0
VERTEX
8
CUT
10
44.6031
20
12.59
0
VERTEX
8
CUT
10
42.4554
20
14.14
0
VERTEX
8
CUT
10
40.3076
20
12.59
0
VERTEX
8
CUT
10
40.3076
20
9.49
0
VERTEX
8
CUT
10
42.4554
20
7.94
0
SEQEND
0
POLYLINE
8
CUT
66
1
70
0
0
VERTEX
8
CUT
10
45.2267
20
11.79
0
VERTEX
8
CUT
10
45.2267
20
13.04
0
VERTEX
8
CUT
10
42.4554
20
15.04
0
VERTEX
8
CUT
10
39.6841
20
13.04
0
VERTEX
8
CUT
10
39.6841
20
11.79
0
SEQEND
0
POLYLINE
8
CUT
66
1
70
0
0
VERTEX
8
CUT
10
39.6841
20
10.29
0
VERTEX
8
CUT
10
39.6841
20
9.04
0
VERTEX
8
CUT
10
42.4554
20
7.04
0
VERTEX
8
CUT
10
45.2267
20
9.04
0
VERTEX
8
CUT
10
45.2267
20
10.29
0
SEQEND
0
POLYLINE
8
CUT
66
1
70
0
0
VERTEX
8
CUT
10
48.9979
20
7.94
0
VERTEX
8
CUT
10
51.1457
20
9.49
0
VERTEX
8
CUT
10
51.1457
20
12.59
0
VERTEX
8
CUT
10
48.9979
20
14.14
0
VERTEX
8
CUT
10
46.8502
20
12.59
0
VERTEX
8
CUT
10
46.8502
20
9.49
0
VERTEX
8
CUT
10
48.9979
20
7.94
0
SEQEND
0
POLYLINE
8
CUT
66
1
70
0
0
VERTEX
8
CUT
10
51.7692
20
11.79
0
VERTEX
8
CUT
10
51.7692
20
13.04
0
VERTEX
8
CUT
10
48.9979
20
15.04
0
VERTEX
8
CUT
10
46.2267
20
13.04
0
VERTEX
8
CUT
10
46.2267
20
11.79
0
SEQEND
0
POLYLINE
8
CUT
66
1
70
0
0
VERTEX
8
CUT
10
46.2267
20
10.29
0
VERTEX
8
CUT
10
46.2267
20
9.04
0
VERTEX
8
CUT
10
48.9979
20
7.04
0
VERTEX
8
CUT
10
51.7692
20
9.04
0
VERTEX
8
CUT
10
51.7692
20
10.29
0
SEQEND
0
POLYLINE
8
CUT
66
1
70
0
0
VERTEX
8
CUT
10
55.5405
20
7.94
0
VERTEX
8
CUT
10
57.6882
20
9.49
0
VERTEX
8
CUT
10
57.6882
20
12.59
0
VERTEX
8
CUT
10
55.5405
20
14.14
0
VERTEX
8
CUT
10
53.3928
20
12.59
0
VERTEX
8
CUT
10
53.3928
20
9.49
0
VERTEX
8
CUT
10
55.5405
20
7.94
0
SEQEND
0
POLYLINE
8
CUT
66
1
70
0
0
VERTEX
8
CUT
10
58.3118
20
11.79
0
VERTEX
8
CUT
10
58.3118
20
13.04
0
VERTEX
8
CUT
10
55.5405
20
15.04
0
VERTEX
8
CUT
10
52.7692
20
13.04
0
VERTEX
8
CUT
10
52.7692
20
11.79
0
SEQEND
0
POLYLINE
8
CUT
66
1
70
0
0
VERTEX
8
CUT
10
52.7692
20
10.29
0
VERTEX
8
CUT
10
52.7692
20
9.04
0
VERTEX
8
CUT
10
55.5405
20
7.04
0
VERTEX
8
CUT
10
58.3118
20
9.04
0
VERTEX
8
CUT
10
58.3118
20
10.29
0
SEQEND
0
POLYLINE
8
CUT
66
1
70
0
0
VERTEX
8
CUT
10
62.0831
20
7.94
0
VERTEX
8
CUT
10
64.2308
20
9.49
0
VERTEX
8
CUT
10
64.2308
20
12.59
0
VERTEX
8
CUT
10
62.0831
20
14.14
0
VERTEX
8
CUT
10
59.9353
20
12.59
0
VERTEX
8
CUT
10
59.9353
20
9.49
0
VERTEX
8
CUT
10
62.0831
20
7.94
0
SEQEND
0
POLYLINE
8
CUT
66
1
70
0
0
VERTEX
8
CUT
10
64.8543
20
11.79
0
VERTEX
8
CUT
10
64.8543
20
13.04
0
VERTEX
8
CUT
10
62.0831
20
15.04
0
VERTEX
8
CUT
10
59.3118
20
13.04
0
VERTEX
8
CUT
10
59.3118
20
11.79
0
SEQEND
0
POLYLINE
8
CUT
66
1
70
0
0
VERTEX
8
CUT
10
59.3118
20
10.29
0
VERTEX
8
CUT
10
59.3118
20
9.04
0
VERTEX
8
CUT
10
62.0831
20
7.04
0
VERTEX
8
CUT
10
64.8543
20
9.04
0
VERTEX
8
CUT
10
64.8543
20
10.29
0
SEQEND
0
POLYLINE
8
CUT
66
1
70
0
0
VERTEX
8
CUT
10
68.6256
20
7.94
0
VERTEX
8
CUT
10
70.7734
20
9.49
0
VERTEX
8
CUT
10
70.7734
20
12.59
0
VERTEX
8
CUT
10
68.6256
20
14.14
0
VERTEX
8
CUT
10
66.4779
20
12.59
0
VERTEX
8
CUT
10
66.4779
20
9.49
0
VERTEX
8
CUT
10
68.6256
20
7.94
0
SEQEND
0
POLYLINE
8
CUT
66
1
70
0
0
VERTEX
8
CUT
10
71.3969
20
11.79
0
VERTEX
8
CUT
10
71.3969
20
13.04
0
VERTEX
8
CUT
10
68.6256
20
15.04
0
VERTEX
8
CUT
10
65.8543
20
13.04
0
VERTEX
8
CUT
10
65.8543
20
11.79
0
SEQEND
0
POLYLINE
8
CUT
66
1
70
0
0
VERTEX
8
CUT
10
65.8543
20
10.29
0
VERTEX
8
CUT
10
65.8543
20
9.04
0
VERTEX
8
CUT
10
68.6256
20
7.04
0
VERTEX
8
CUT
10
71.3969
20
9.04
0
VERTEX
8
CUT
10
71.3969
20
10.29
0
SEQEND
0
POLYLINE
8
CUT
66
1
70
0
0
VERTEX
8
CUT
10
75.1682
20
7.94
0
VERTEX
8
CUT
10
77.3159
20
9.49
0
VERTEX
8
CUT
10
77.3159
20
12.59
0
VERTEX
8
CUT
10
75.1682
20
14.14
0
VERTEX
8
CUT
10
73.0204
20
12.59
0
VERTEX
8
CUT
10
73.0204
20
9.49
0
VERTEX
8
CUT
10
75.1682
20
7.94
0
SEQEND
0
POLYLINE
8
CUT
66
1
70
0
0
VERTEX
8
CUT
10
77.9395
20
11.79
0
VERTEX
8
CUT
10
77.9395
20
13.04
0
VERTEX
8
CUT
10
75.1682
20
15.04
0
VERTEX
8
CUT
10
72.3969
20
13.04
0
VERTEX
8
CUT
10
72.3969
20
11.79
0
SEQEND
0
POLYLINE
8
CUT
66
1
70
0
0
VERTEX
8
CUT
10
72.3969
20
10.29
0
VERTEX
8
CUT
10
72.3969
20
9.04
0
VERTEX
8
CUT
10
75.1682
20
7.04
0
VERTEX
8
CUT
10
77.9395
20
9.04
0
VERTEX
8
CUT
10
77.9395
20
10.29
0
SEQEND
0
POLYLINE
8
CUT
66
1
70
0
0
VERTEX
8
CUT
10
81.7108
20
7.94
0
VERTEX
8
CUT
10
83.8585
20
9.49
0
VERTEX
8
CUT
10
83.8585
20
12.59
0
VERTEX
8
CUT
10
81.7108
20
14.14
0
VERTEX
8
CUT
10
79.563
20
12.59
0
VERTEX
8
CUT
10
79.563
20
9.49
0
VERTEX
8
CUT
10
81.7108
20
7.94
0
SEQEND
0
POLYLINE
8
CUT
66
1
70
0
0
VERTEX
8
CUT
10
84.482
20
11.79
0
VERTEX
8
CUT
10
84.482
20
13.04
0
VERTEX
8
CUT
10
81.7108
20
15.04
0
VERTEX
8
CUT
10
78.9395
20
13.04
0
VERTEX
8
CUT
10
78.9395
20
11.79
0
SEQEND
0
POLYLINE
8
CUT
66
1
70
0
0
VERTEX
8
CUT
10
78.9395
20
10.29
0
VERTEX
8
CUT
10
78.9395
20
9.04
0
VERTEX
8
CUT
10
81.7108
20
7.04
0
VERTEX
8
CUT
10
84.482
20
9.04
0
VERTEX
8
CUT
10
84.482
20
10.29
0
SEQEND
0
POLYLINE
8
CUT
66
1
70
0
0
VERTEX
8
CUT
10
88.2533
20
7.94
0
VERTEX
8
CUT
10
90.4011
20
9.49
0
VERTEX
8
CUT
10
90.4011
20
12.59
0
VERTEX
8
CUT
10
88.2533
20
14.14
0
VERTEX
8
CUT
10
86.1056
20
12.59
0
VERTEX
8
CUT
10
86.1056
20
9.49
0
VERTEX
8
CUT
10
88.2533
20
7.94
0
SEQEND
0
POLYLINE
8
CUT
66
1
70
0
0
VERTEX
8
CUT
10
91.0246
20
11.79
0
VERTEX
8
CUT
10
91.0246
20
13.04
0
VERTEX
8
CUT
10
88.2533
20
15.04
0
VERTEX
8
CUT
10
85.482
20
13.04
0
VERTEX
8
CUT
10
85.482
20
11.79
0
SEQEND
0
POLYLINE
8
CUT
66
1
70
0
0
VERTEX
8
CUT
10
85.482
20
10.29
0
VERTEX
8
CUT
10
85.482
20
9.04
0
VERTEX
8
CUT
10
88.2533
20
7.04
0
VERTEX
8
CUT
10
91.0246
20
9.04
0
VERTEX
8
CUT
10
91.0246
20
10.29
0
SEQEND
0
POLYLINE
8
CUT
66
1
70
0
0
VERTEX
8
CUT
10
94.7959
20
7.94
0
VERTEX
8
CUT
10
96.9436
20
9.49
0
VERTEX
8
CUT
10
96.9436
20
12.59
0
VERTEX
8
CUT
10
94.7959
20
14.14
0
VERTEX
8
CUT
10
92.6481
20
12.59
0
VERTEX
8
CUT
10
92.6481
20
9.49
0
VERTEX
8
CUT
10
94.7959
20
7.94
0
SEQEND
0
POLYLINE
8
CUT
66
1
70
0
0
VERTEX
8
CUT
10
97.5672
20
11.79
0
VERTEX
8
CUT
10
97.5672
20
13.04
0
VERTEX
8
CUT
10
94.7959
20
15.04
0
VERTEX
8
CUT
10
92.0246
20
13.04
0
VERTEX
8
CUT
10
92.0246
20
11.79
0
SEQEND
0
POLYLINE
8
CUT
66
1
70
0
0
VERTEX
8
CUT
10
92.0246
20
10.29
0
VERTEX
8
CUT
10
92.0246
20
9.04
0
VERTEX
8
CUT
10
94.7959
20
7.04
0
VERTEX
8
CUT
10
97.5672
20
9.04
0
VERTEX
8
CUT
10
97.5672
20
10.29
0
SEQEND
0
POLYLINE
8
CUT
66
1
70
0
0
VERTEX
8
CUT
10
101.3384
20
7.94
0
VERTEX
8
CUT
10
103.4862
20
9.49
0
VERTEX
8
CUT
10
103.4862
20
12.59
0
VERTEX
8
CUT
10
101.3384
20
14.14
0
VERTEX
8
CUT
10
99.1907
20
12.59
0
VERTEX
8
CUT
10
99.1907
20
9.49
0
VERTEX
8
CUT
10
101.3384
20
7.94
0
SEQEND
0
POLYLINE
8
CUT
66
1
70
0
0
VERTEX
8
CUT
10
104.1097
20
11.79
0
VERTEX
8
CUT
10
104.1097
20
13.04
0
VERTEX
8
CUT
10
101.3384
20
15.04
0
VERTEX
8
CUT
10
98.5672
20
13.04
0
VERTEX
8
CUT
10
98.5672
20
11.79
0
SEQEND
0
POLYLINE
8
CUT
66
1
70
0
0
VERTEX
8
CUT
10
98.5672
20
10.29
0
VERTEX
8
CUT
10
98.5672
20
9.04
0
VERTEX
8
CUT
10
101.3384
20
7.04
0
VERTEX
8
CUT
10
104.1097
20
9.04
0
VERTEX
8
CUT
10
104.1097
20
10.29
0
SEQEND
0
POLYLINE
8
CUT
66
1
70
0
0
VERTEX
8
CUT
10
107.881
20
7.94
0
VERTEX
8
CUT
10
110.0287
20
9.49
0
VERTEX
8
CUT
10
110.0287
20
12.59
0
VERTEX
8
CUT
10
107.881
20
14.14
0
VERTEX
8
CUT
10
105.7333
20
12.59
0
VERTEX
8
CUT
10
105.7333
20
9.49
0
VERTEX
8
CUT
10
107.881
20
7.94
0
SEQEND
0
POLYLINE
8
CUT
66
1
70
0
0
VERTEX
8
CUT
10
110.6523
20
11.79
0
VERTEX
8
CUT
10
110.6523
20
13.04
0
VERTEX
8
CUT
10
107.881
20
15.04
0
VERTEX
8
CUT
10
105.1097
20
13.04
0
VERTEX
8
CUT
10
105.1097
20
11.79
0
SEQEND
0
POLYLINE
8
CUT
66
1
70
0
0
VERTEX
8
CUT
10
105.1097
20
10.29
0
VERTEX
8
CUT
10
105.1097
20
9.04
0
VERTEX
8
CUT
10
107.881
20
7.04
0
VERTEX
8
CUT
10
110.6523
20
9.04
0
VERTEX
8
CUT
10
110.6523
20
10.29
0
SEQEND
0
POLYLINE
8
CUT
66
1
70
0
0
VERTEX
8
CUT
10
114.4236
20
7.94
0
VERTEX
8
CUT
10
116.5713
20
9.49
0
VERTEX
8
CUT
10
116.5713
20
12.59
0
VERTEX
8
CUT
10
114.4236
20
14.14
0
VERTEX
8
CUT
10
112.2758
20
12.59
0
VERTEX
8
CUT
10
112.2758
20
9.49
0
VERTEX
8
CUT
10
114.4236
20
7.94
0
SEQEND
0
POLYLINE
8
CUT
66
1
70
0
0
VERTEX
8
CUT
10
117.1948
20
11.79
0
VERTEX
8
CUT
10
117.1948
20
13.04
0
VERTEX
8
CUT
10
114.4236
20
15.04
0
VERTEX
8
CUT
10
111.6523
20
13.04
0
VERTEX
8
CUT
10
111.6523
20
11.79
0
SEQEND
0
POLYLINE
8
CUT
66
1
70
0
0
VERTEX
8
CUT
10
111.6523
20
10.29
0
VERTEX
8
CUT
10
111.6523
20
9.04
0
VERTEX
8
CUT
10
114.4236
20
7.04
0
VERTEX
8
CUT
10
117.1948
20
9.04
0
VERTEX
8
CUT
10
117.1948
20
10.29
0
SEQEND
0
POLYLINE
8
CUT
66
1
70
0
0
VERTEX
8
CUT
10
120
20
13.4428
0
VERTEX
8
CUT
10
118.8184
20
12.59
0
VERTEX
8
CUT
10
118.8184
20
9.49
0
VERTEX
8
CUT
10
120
20
8.6372
0
SEQEND
0
POLYLINE
8
CUT
66
1
70
0
0
VERTEX
8
CUT
10
120
20
14.3428
0
VERTEX
8
CUT
10
118.1948
20
13.04
0
VERTEX
8
CUT
10
118.1948
20
11.79
0
SEQEND
0
POLYLINE
8
CUT
66
1
70
0
0
VERTEX
8
CUT
10
118.1948
20
10.29
0
VERTEX
8
CUT
10
118.1948
20
9.04
0
VERTEX
8
CUT
10
120
20
7.7372
0
SEQEND
0
POLYLINE
8
CUT
66
1
70
0
0
VERTEX
8
CUT
10
0
20
1.1214
0
VERTEX
8
CUT
10
2.0765
20
2.62
0
VERTEX
8
CUT
10
2.0765
20
5.72
0
VERTEX
8
CUT
10
0
20
7.2186
0
SEQEND
0
POLYLINE
8
CUT
66
1
70
0
0
VERTEX
8
CUT
10
2.7
20
4.92
0
VERTEX
8
CUT
10
2.7
20
6.17
0
VERTEX
8
CUT
10
0
20
8.1186
0
SEQEND
0
POLYLINE
8
CUT
66
1
70
0
0
VERTEX
8
CUT
10
0
20
0.2214
0
VERTEX
8
CUT
10
2.7
20
2.17
0
VERTEX
8
CUT
10
2.7
20
3.42
0
SEQEND
0
POLYLINE
8
CUT
66
1
70
0
0
VERTEX
8
CUT
10
6.4713
20
1.07
0
VERTEX
8
CUT
10
8.619
20
2.62
0
VERTEX
8
CUT
10
8.619
20
5.72
0
VERTEX
8
CUT
10
6.4713
20
7.27
0
VERTEX
8
CUT
10
4.3235
20
5.72
0
VERTEX
8
CUT
10
4.3235
20
2.62
0
VERTEX
8
CUT
10
6.4713
20
1.07
0
SEQEND
0
POLYLINE
8
CUT
66
1
70
0
0
VERTEX
8
CUT
10
9.2426
20
4.92
0
VERTEX
8
CUT
10
9.2426
20
6.17
0
VERTEX
8
CUT
10
6.4713
20
8.17
0
VERTEX
8
CUT
10
3.7
20
6.17
0
VERTEX
8
CUT
10
3.7
20
4.92
0
SEQEND
0
POLYLINE
8
CUT
66
1
70
0
0
VERTEX
8
CUT
10
3.7
20
3.42
0
VERTEX
8
CUT
10
3.7
20
2.17
0
VERTEX
8
CUT
10
6.4713
20
0.17
0
VERTEX
8
CUT
10
9.2426
20
2.17
0
VERTEX
8
CUT
10
9.2426
20
3.42
0
SEQEND
0
POLYLINE
8
CUT
66
1
70
0
0
VERTEX
8
CUT
10
13.0138
20
1.07
0
VERTEX
8
CUT
10
15.1616
20
2.62
0
VERTEX
8
CUT
10
15.1616
20
5.72
0
VERTEX
8
CUT
10
13.0138
20
7.27
0
VERTEX
8
CUT
10
10.8661
20
5.72
0
VERTEX
8
CUT
10
10.8661
20
2.62
0
VERTEX
8
CUT
10
13.0138
20
1.07
0
SEQEND
0
POLYLINE
8
CUT
66
1
70
0
0
VERTEX
8
CUT
10
15.7851
20
4.92
0
VERTEX
8
CUT
10
15.7851
20
6.17
0
VERTEX
8
CUT
10
13.0138
20
8.17
0
VERTEX
8
CUT
10
10.2426
20
6.17
0
VERTEX
8
CUT
10
10.2426
20
4.92
0
SEQEND
0
POLYLINE
8
CUT
66
1
70
0
0
VERTEX
8
CUT
10
10.2426
20
3.42
0
VERTEX
8
CUT
10
10.2426
20
2.17
0
VERTEX
8
CUT
10
13.0138
20
0.17
0
VERTEX
8
CUT
10
15.7851
20
2.17
0
VERTEX
8
CUT
10
15.7851
20
3.42
0
SEQEND
0
POLYLINE
8
CUT
66
1
70
0
0
VERTEX
8
CUT
10
19.5564
20
1.07
0
VERTEX
8
CUT
10
21.7041
20
2.62
0
VERTEX
8
CUT
10
21.7041
20
5.72
0
VERTEX
8
CUT
10
19.5564
20
7.27
0
VERTEX
8
CUT
10
17.4087
20
5.72
0
VERTEX
8
CUT
10
17.4087
20
2.62
0
VERTEX
8
CUT
10
19.5564
20
1.07
0
SEQEND
0
POLYLINE
8
CUT
66
1
70
0
0
VERTEX
8
CUT
10
22.3277
20
4.92
0
VERTEX
8
CUT
10
22.3277
20
6.17
0
VERTEX
8
CUT
10
19.5564
20
8.17
0
VERTEX
8
CUT
10
16.7851
20
6.17
0
VERTEX
8
CUT
10
16.7851
20
4.92
0
SEQEND
0
POLYLINE
8
CUT
66
1
70
0
0
VERTEX
8
CUT
10
16.7851
20
3.42
0
VERTEX
8
CUT
10
16.7851
20
2.17
0
VERTEX
8
CUT
10
19.5564
20
0.17
0
VERTEX
8
CUT
10
22.3277
20
2.17
0
VERTEX
8
CUT
10
22.3277
20
3.42
0
SEQEND
0
POLYLINE
8
CUT
66
1
70
0
0
VERTEX
8
CUT
10
26.099
20
1.07
0
VERTEX
8
CUT
10
28.2467
20
2.62
0
VERTEX
8
CUT
10
28.2467
20
5.72
0
VERTEX
8
CUT
10
26.099
20
7.27
0
VERTEX
8
CUT
10
23.9512
20
5.72
0
VERTEX
8
CUT
10
23.9512
20
2.62
0
VERTEX
8
CUT
10
26.099
20
1.07
0
SEQEND
0
POLYLINE
8
CUT
66
1
70
0
0
VERTEX
8
CUT
10
28.8703
20
4.92
0
VERTEX
8
CUT
10
28.8703
20
6.17
0
VERTEX
8
CUT
10
26.099
20
8.17
0
VERTEX
8
CUT
10
23.3277
20
6.17
0
VERTEX
8
CUT
10
23.3277
20
4.92
0
SEQEND
0
POLYLINE
8
CUT
66
1
70
0
0
VERTEX
8
CUT
10
23.3277
20
3.42
0
VERTEX
8
CUT
10
23.3277
20
2.17
0
VERTEX
8
CUT
10
26.099
20
0.17
0
VERTEX
8
CUT
10
28.8703
20
2.17
0
VERTEX
8
CUT
10
28.8703
20
3.42
0
SEQEND
0
POLYLINE
8
CUT
66
1
70
0
0
VERTEX
8
CUT
10
32.6415
20
1.07
0
VERTEX
8
CUT
10
34.7893
20
2.62
0
VERTEX
8
CUT
10
34.7893
20
5.72
0
VERTEX
8
CUT
10
32.6415
20
7.27
0
VERTEX
8
CUT
10
30.4938
20
5.72
0
VERTEX
8
CUT
10
30.4938
20
2.62
0
VERTEX
8
CUT
10
32.6415
20
1.07
0
SEQEND
0
POLYLINE
8
CUT
66
1
70
0
0
VERTEX
8
CUT
10
35.4128
20
4.92
0
VERTEX
8
CUT
10
35.4128
20
6.17
0
VERTEX
8
CUT
10
32.6415
20
8.17
0
VERTEX
8
CUT
10
29.8703
20
6.17
0
VERTEX
8
CUT
10
29.8703
20
4.92
0
SEQEND
0
POLYLINE
8
CUT
66
1
70
0
0
VERTEX
8
CUT
10
29.8703
20
3.42
0
VERTEX
8
CUT
10
29.8703
20
2.17
0
VERTEX
8
CUT
10
32.6415
20
0.17
0
VERTEX
8
CUT
10
35.4128
20
2.17
0
VERTEX
8
CUT
10
35.4128
20
3.42
0
SEQEND
0
POLYLINE
8
CUT
66
1
70
0
0
VERTEX
8
CUT
10
39.1841
20
1.07
0
VERTEX
8
CUT
10
41.3318
20
2.62
0
VERTEX
8
CUT
10
41.3318
20
5.72
0
VERTEX
8
CUT
10
39.1841
20
7.27
0
VERTEX
8
CUT
10
37.0364
20
5.72
0
VERTEX
8
CUT
10
37.0364
20
2.62
0
VERTEX
8
CUT
10
39.1841
20
1.07
0
SEQEND
0
POLYLINE
8
CUT
66
1
70
0
0
VERTEX
8
CUT
10
41.9554
20
4.92
0
VERTEX
8
CUT
10
41.9554
20
6.17
0
VERTEX
8
CUT
10
39.1841
20
8.17
0
VERTEX
8
CUT
10
36.4128
20
6.17
0
VERTEX
8
CUT
10
36.4128
20
4.92
0
SEQEND
0
POLYLINE
8
CUT
66
1
70
0
0
VERTEX
8
CUT
10
36.4128
20
3.42
0
VERTEX
8
CUT
10
36.4128
20
2.17
0
VERTEX
8
CUT
10
39.1841
20
0.17
0
VERTEX
8
CUT
10
41.9554
20
2.17
0
VERTEX
8
CUT
10
41.9554
20
3.42
0
SEQEND
0
POLYLINE
8
CUT
66
1
70
0
0
VERTEX
8
CUT
10
45.7267
20
1.07
0
VERTEX
8
CUT
10
47.8744
20
2.62
0
VERTEX
8
CUT
10
47.8744
20
5.72
0
VERTEX
8
CUT
10
45.7267
20
7.27
0
VERTEX
8
CUT
10
43.5789
20
5.72
0
VERTEX
8
CUT
10
43.5789
20
2.62
0
VERTEX
8
CUT
10
45.7267
20
1.07
0
SEQEND
0
POLYLINE
8
CUT
66
1
70
0
0
VERTEX
8
CUT
10
48.4979
20
4.92
0
VERTEX
8
CUT
10
48.4979
20
6.17
0
VERTEX
8
CUT
10
45.7267
20
8.17
0
VERTEX
8
CUT
10
42.9554
20
6.17
0
VERTEX
8
CUT
10
42.9554
20
4.92
0
SEQEND
0
POLYLINE
8
CUT
66
1
70
0
0
VERTEX
8
CUT
10
42.9554
20
3.42
0
VERTEX
8
CUT
10
42.9554
20
2.17
0
VERTEX
8
CUT
10
45.7267
20
0.17
0
VERTEX
8
CUT
10
48.4979
20
2.17
0
VERTEX
8
CUT
10
48.4979
20
3.42
0
SEQEND
0
POLYLINE
8
CUT
66
1
70
0
0
VERTEX
8
CUT
10
52.2692
20
1.07
0
VERTEX
8
CUT
10
54.417
20
2.62
0
VERTEX
8
CUT
10
54.417
20
5.72
0
VERTEX
8
CUT
10
52.2692
20
7.27
0
VERTEX
8
CUT
10
50.1215
20
5.72
0
VERTEX
8
CUT
10
50.1215
20
2.62
0
VERTEX
8
CUT
10
52.2692
20
1.07
0
SEQEND
0
POLYLINE
8
CUT
66
1
70
0
0
VERTEX
8
CUT
10
55.0405
20
4.92
0
VERTEX
8
CUT
10
55.0405
20
6.17
0
VERTEX
8
CUT
10
52.2692
20
8.17
0
VERTEX
8
CUT
10
49.4979
20
6.17
0
VERTEX
8
CUT
10
49.4979
20
4.92
0
SEQEND
0
POLYLINE
8
CUT
66
1
70
0
0
VERTEX
8
CUT
10
49.4979
20
3.42
0
VERTEX
8
CUT
10
49.4979
20
2.17
0
VERTEX
8
CUT
10
52.2692
20
0.17
0
VERTEX
8
CUT
10
55.0405
20
2.17
0
VERTEX
8
CUT
10
55.0405
20
3.42
0
SEQEND
0
POLYLINE
8
CUT
66
1
70
0
0
VERTEX
8
CUT
10
58.8118
20
1.07
0
VERTEX
8
CUT
10
60.9595
20
2.62
0
VERTEX
8
CUT
10
60.9595
20
5.72
0
VERTEX
8
CUT
10
58.8118
20
7.27
0
VERTEX
8
CUT
10
56.664
20
5.72
0
VERTEX
8
CUT
10
56.664
20
2.62
0
VERTEX
8
CUT
10
58.8118
20
1.07
0
SEQEND
0
POLYLINE
8
CUT
66
1
70
0
0
VERTEX
8
CUT
10
61.5831
20
4.92
0
VERTEX
8
CUT
10
61.5831
20
6.17
0
VERTEX
8
CUT
10
58.8118
20
8.17
0
VERTEX
8
CUT
10
56.0405
20
6.17
0
VERTEX
8
CUT
10
56.0405
20
4.92
0
SEQEND
0
POLYLINE
8
CUT
66
1
70
0
0
VERTEX
8
CUT
10
56.0405
20
3.42
0
VERTEX
8
CUT
10
56.0405
20
2.17
0
VERTEX
8
CUT
10
58.8118
20
0.17
0
VERTEX
8
CUT
10
61.5831
20
2.17
0
VERTEX
8
CUT
10
61.5831
20
3.42
0
SEQEND
0
POLYLINE
8
CUT
66
1
70
0
0
VERTEX
8
CUT
10
65.3543
20
1.07
0
VERTEX
8
CUT
10
67.5021
20
2.62
0
VERTEX
8
CUT
10
67.5021
20
5.72
0
VERTEX
8
CUT
10
65.3543
20
7.27
0
VERTEX
8
CUT
10
63.2066
20
5.72
0
VERTEX
8
CUT
10
63.2066
20
2.62
0
VERTEX
8
CUT
10
65.3543
20
1.07
0
SEQEND
0
POLYLINE
8
CUT
66
1
70
0
0
VERTEX
8
CUT
10
68.1256
20
4.92
0
VERTEX
8
CUT
10
68.1256
20
6.17
0
VERTEX
8
CUT
10
65.3543
20
8.17
0
VERTEX
8
CUT
10
62.5831
20
6.17
0
VERTEX
8
CUT
10
62.5831
20
4.92
0
SEQEND
0
POLYLINE
8
CUT
66
1
70
0
0
VERTEX
8
CUT
10
62.5831
20
3.42
0
VERTEX
8
CUT
10
62.5831
20
2.17
0
VERTEX
8
CUT
10
65.3543
20
0.17
0
VERTEX
8
CUT
10
68.1256
20
2.17
0
VERTEX
8
CUT
10
68.1256
20
3.42
0
SEQEND
0
POLYLINE
8
CUT
66
1
70
0
0
VERTEX
8
CUT
10
71.8969
20
1.07
0
VERTEX
8
CUT
10
74.0447
20
2.62
0
VERTEX
8
CUT
10
74.0447
20
5.72
0
VERTEX
8
CUT
10
71.8969
20
7.27
0
VERTEX
8
CUT
10
69.7492
20
5.72
0
VERTEX
8
CUT
10
69.7492
20
2.62
0
VERTEX
8
CUT
10
71.8969
20
1.07
0
SEQEND
0
POLYLINE
8
CUT
66
1
70
0
0
VERTEX
8
CUT
10
74.6682
20
4.92
0
VERTEX
8
CUT
10
74.6682
20
6.17
0
VERTEX
8
CUT
10
71.8969
20
8.17
0
VERTEX
8
CUT
10
69.1256
20
6.17
0
VERTEX
8
CUT
10
69.1256
20
4.92
0
SEQEND
0
POLYLINE
8
CUT
66
1
70
0
0
VERTEX
8
CUT
10
69.1256
20
3.42
0
VERTEX
8
CUT
10
69.1256
20
2.17
0
VERTEX
8
CUT
10
71.8969
20
0.17
0
VERTEX
8
CUT
10
74.6682
20
2.17
0
VERTEX
8
CUT
10
74.6682
20
3.42
0
SEQEND
0
POLYLINE
8
CUT
66
1
70
0
0
VERTEX
8
CUT
10
78.4395
20
1.07
0
VERTEX
8
CUT
10
80.5872
20
2.62
0
VERTEX
8
CUT
10
80.5872
20
5.72
0
VERTEX
8
CUT
10
78.4395
20
7.27
0
VERTEX
8
CUT
10
76.2917
20
5.72
0
VERTEX
8
CUT
10
76.2917
20
2.62
0
VERTEX
8
CUT
10
78.4395
20
1.07
0
SEQEND
0
POLYLINE
8
CUT
66
1
70
0
0
VERTEX
8
CUT
10
81.2108
20
4.92
0
VERTEX
8
CUT
10
81.2108
20
6.17
0
VERTEX
8
CUT
10
78.4395
20
8.17
0
VERTEX
8
CUT
10
75.6682
20
6.17
0
VERTEX
8
CUT
10
75.6682
20
4.92
0
SEQEND
0
POLYLINE
8
CUT
66
1
70
0
0
VERTEX
8
CUT
10
75.6682
20
3.42
0
VERTEX
8
CUT
10
75.6682
20
2.17
0
VERTEX
8
CUT
10
78.4395
20
0.17
0
VERTEX
8
CUT
10
81.2108
20
2.17
0
VERTEX
8
CUT
10
81.2108
20
3.42
0
SEQEND
0
POLYLINE
8
CUT
66
1
70
0
0
VERTEX
8
CUT
10
84.982
20
1.07
0
VERTEX
8
CUT
10
87.1298
20
2.62
0
VERTEX
8
CUT
10
87.1298
20
5.72
0
VERTEX
8
CUT
10
84.982
20
7.27
0
VERTEX
8
CUT
10
82.8343
20
5.72
0
VERTEX
8
CUT
10
82.8343
20
2.62
0
VERTEX
8
CUT
10
84.982
20
1.07
0
SEQEND
0
POLYLINE
8
CUT
66
1
70
0
0
VERTEX
8
CUT
10
87.7533
20
4.92
0
VERTEX
8
CUT
10
87.7533
20
6.17
0
VERTEX
8
CUT
10
84.982
20
8.17
0
VERTEX
8
CUT
10
82.2108
20
6.17
0
VERTEX
8
CUT
10
82.2108
20
4.92
0
SEQEND
0
POLYLINE
8
CUT
66
1
70
0
0
VERTEX
8
CUT
10
82.2108
20
3.42
0
VERTEX
8
CUT
10
82.2108
20
2.17
0
VERTEX
8
CUT
10
84.982
20
0.17
0
VERTEX
8
CUT
10
87.7533
20
2.17
0
VERTEX
8
CUT
10
87.7533
20
3.42
0
SEQEND
0
POLYLINE
8
CUT
66
1
70
0
0
VERTEX
8
CUT
10
91.5246
20
1.07
0
VERTEX
8
CUT
10
93.6723
20
2.62
0
VERTEX
8
CUT
10
93.6723
20
5.72
0
VERTEX
8
CUT
10
91.5246
20
7.27
0
VERTEX
8
CUT
10
89.3769
20
5.72
0
VERTEX
8
CUT
10
89.3769
20
2.62
0
VERTEX
8
CUT
10
91.5246
20
1.07
0
SEQEND
0
POLYLINE
8
CUT
66
1
70
0
0
VERTEX
8
CUT
10
94.2959
20
4.92
0
VERTEX
8
CUT
10
94.2959
20
6.17
0
VERTEX
8
CUT
10
91.5246
20
8.17
0
VERTEX
8
CUT
10
88.7533
20
6.17
0
VERTEX
8
CUT
10
88.7533
20
4.92
0
SEQEND
0
POLYLINE
8
CUT
66
1
70
0
0
VERTEX
8
CUT
10
88.7533
20
3.42
0
VERTEX
8
CUT
10
88.7533
20
2.17
0
VERTEX
8
CUT
10
91.5246
20
0.17
0
VERTEX
8
CUT
10
94.2959
20
2.17
0
VERTEX
8
CUT
10
94.2959
20
3.42
0
SEQEND
0
POLYLINE
8
CUT
66
1
70
0
0
VERTEX
8
CUT
10
98.0672
20
1.07
0
VERTEX
8
CUT
10
100.2149
20
2.62
0
VERTEX
8
CUT
10
100.2149
20
5.72
0
VERTEX
8
CUT
10
98.0672
20
7.27
0
VERTEX
8
CUT
10
95.9194
20
5.72
0
VERTEX
8
CUT
10
95.9194
20
2.62
0
VERTEX
8
CUT
10
98.0672
20
1.07
0
SEQEND
0
POLYLINE
8
CUT
66
1
70
0
0
VERTEX
8
CUT
10
100.8384
20
4.92
0
VERTEX
8
CUT
10
100.8384
20
6.17
0
VERTEX
8
CUT
10
98.0672
20
8.17
0
VERTEX
8
CUT
10
95.2959
20
6.17
0
VERTEX
8
CUT
10
95.2959
20
4.92
0
SEQEND
0
POLYLINE
8
CUT
66
1
70
0
0
VERTEX
8
CUT
10
95.2959
20
3.42
0
VERTEX
8
CUT
10
95.2959
20
2.17
0
VERTEX
8
CUT
10
98.0672
20
0.17
0
VERTEX
8
CUT
10
100.8384
20
2.17
0
VERTEX
8
CUT
10
100.8384
20
3.42
0
SEQEND
0
POLYLINE
8
CUT
66
1
70
0
0
VERTEX
8
CUT
10
104.6097
20
1.07
0
VERTEX
8
CUT
10
106.7575
20
2.62
0
VERTEX
8
CUT
10
106.7575
20
5.72
0
VERTEX
8
CUT
10
104.6097
20
7.27
0
VERTEX
8
CUT
10
102.462
20
5.72
0
VERTEX
8
CUT
10
102.462
20
2.62
0
VERTEX
8
CUT
10
104.6097
20
1.07
0
SEQEND
0
POLYLINE
8
CUT
66
1
70
0
0
VERTEX
8
CUT
10
107.381
20
4.92
0
VERTEX
8
CUT
10
107.381
20
6.17
0
VERTEX
8
CUT
10
104.6097
20
8.17
0
VERTEX
8
CUT
10
101.8384
20
6.17
0
VERTEX
8
CUT
10
101.8384
20
4.92
0
SEQEND
0
POLYLINE
8
CUT
66
1
70
0
0
VERTEX
8
CUT
10
101.8384
20
3.42
0
VERTEX
8
CUT
10
101.8384
20
2.17
0
VERTEX
8
CUT
10
104.6097
20
0.17
0
VERTEX
8
CUT
10
107.381
20
2.17
0
VERTEX
8
CUT
10
107.381
20
3.42
0
SEQEND
0
POLYLINE
8
CUT
66
1
70
0
0
VERTEX
8
CUT
10
111.1523
20
1.07
0
VERTEX
8
CUT
10
113.3
20
2.62
0
VERTEX
8
CUT
10
113.3
20
5.72
0
VERTEX
8
CUT
10
111.1523
20
7.27
0
VERTEX
8
CUT
10
109.0045
20
5.72
0
VERTEX
8
CUT
10
109.0045
20
2.62
0
VERTEX
8
CUT
10
111.1523
20
1.07
0
SEQEND
0
POLYLINE
8
CUT
66
1
70
0
0
VERTEX
8
CUT
10
113.9236
20
4.92
0
VERTEX
8
CUT
10
113.9236
20
6.17
0
VERTEX
8
CUT
10
111.1523
20
8.17
0
VERTEX
8
CUT
10
108.381
20
6.17
0
VERTEX
8
CUT
10
108.381
20
4.92
0
SEQEND
0
POLYLINE
8
CUT
66
1
70
0
0
VERTEX
8
CUT
10
108.381
20
3.42
0
VERTEX
8
CUT
10
108.381
20
2.17
0
VERTEX
8
CUT
10
111.1523
20
0.17
0
VERTEX
8
CUT
10
113.9236
20
2.17
0
VERTEX
8
CUT
10
113.9236
20
3.42
0
SEQEND
0
POLYLINE
8
CUT
66
1
70
0
0
VERTEX
8
CUT
10
117.6948
20
1.07
0
VERTEX
8
CUT
10
119.8426
20
2.62
0
VERTEX
8
CUT
10
119.8426
20
5.72
0
VERTEX
8
CUT
10
117.6948
20
7.27
0
VERTEX
8
CUT
10
115.5471
20
5.72
0
VERTEX
8
CUT
10
115.5471
20
2.62
0
VERTEX
8
CUT
10
117.6948
20
1.07
0
SEQEND
0
POLYLINE
8
CUT
66
1
70
0
0
VERTEX
8
CUT
10
120
20
6.5064
0
VERTEX
8
CUT
10
117.6948
20
8.17
0
VERTEX
8
CUT
10
114.9236
20
6.17
0
VERTEX
8
CUT
10
114.9236
20
4.92
0
SEQEND
0
POLYLINE
8
CUT
66
1
70
0
0
VERTEX
8
CUT
10
114.9236
20
3.42
0
VERTEX
8
CUT
10
114.9236
20
2.17
0
VERTEX
8
CUT
10
117.6948
20
0.17
0
VERTEX
8
CUT
10
120
20
1.8336
0
SEQEND
0
POLYLINE
8
CUT
66
1
70
0
0
VERTEX
8
CUT
10
3.7543
20
0
0
VERTEX
8
CUT
10
3.2
20
0.4
0
VERTEX
8
CUT
10
2.6457
20
0
0
SEQEND
0
POLYLINE
8
CUT
66
1
70
0
0
VERTEX
8
CUT
10
5.0013
20
0
0
VERTEX
8
CUT
10
3.2
20
1.3
0
VERTEX
8
CUT
10
1.3987
20
0
0
SEQEND
0
POLYLINE
8
CUT
66
1
70
0
0
VERTEX
8
CUT
10
10.2968
20
0
0
VERTEX
8
CUT
10
9.7426
20
0.4
0
VERTEX
8
CUT
10
9.1883
20
0
0
SEQEND
0
POLYLINE
8
CUT
66
1
70
0
0
VERTEX
8
CUT
10
11.5439
20
0
0
VERTEX
8
CUT
10
9.7426
20
1.3
0
VERTEX
8
CUT
10
7.9412
20
0
0
SEQEND
0
POLYLINE
8
CUT
66
1
70
0
0
VERTEX
8
CUT
10
16.8394
20
0
0
VERTEX
8
CUT
10
16.2851
20
0.4
0
VERTEX
8
CUT
10
15.7309
20
0
0
SEQEND
0
POLYLINE
8
CUT
66
1
70
0
0
VERTEX
8
CUT
10
18.0865
20
0
0
VERTEX
8
CUT
10
16.2851
20
1.3
0
VERTEX
8
CUT
10
14.4838
20
0
0
SEQEND
0
POLYLINE
8
CUT
66
1
70
0
0
VERTEX
8
CUT
10
23.3819
20
0
0
VERTEX
8
CUT
10
22.8277
20
0.4
0
VERTEX
8
CUT
10
22.2734
20
0
0
SEQEND
0
POLYLINE
8
CUT
66
1
70
0
0
VERTEX
8
CUT
10
24.629
20
0
0
VERTEX
8
CUT
10
22.8277
20
1.3
0
VERTEX
8
CUT
10
21.0264
20
0
0
SEQEND
0
POLYLINE
8
CUT
66
1
70
0
0
VERTEX
8
CUT
10
29.9245
20
0
0
VERTEX
8
CUT
10
29.3703
20
0.4
0
VERTEX
8
CUT
10
28.816
20
0
0
SEQEND
0
POLYLINE
8
CUT
66
1
70
0
0
VERTEX
8
CUT
10
31.1716
20
0
0
VERTEX
8
CUT
10
29.3703
20
1.3
0
VERTEX
8
CUT
10
27.5689
20
0
0
SEQEND
0
POLYLINE
8
CUT
66
1
70
0
0
VERTEX
8
CUT
10
36.4671
20
0
0
VERTEX
8
CUT
10
35.9128
20
0.4
0
VERTEX
8
CUT
10
35.3586
20
0
0
SEQEND
0
POLYLINE
8
CUT
66
1
70
0
0
VERTEX
8
CUT
10
37.7141
20
0
0
VERTEX
8
CUT
10
35.9128
20
1.3
0
VERTEX
8
CUT
10
34.1115
20
0
0
SEQEND
0
POLYLINE
8
CUT
66
1
70
0
0
VERTEX
8
CUT
10
43.0096
20
0
0
VERTEX
8
CUT
10
42.4554
20
0.4
0
VERTEX
8
CUT
10
41.9011
20
0
0
SEQEND
0
POLYLINE
8
CUT
66
1
70
0
0
VERTEX
8
CUT
10
44.2567
20
0
0
VERTEX
8
CUT
10
42.4554
20
1.3
0
VERTEX
8
CUT
10
40.654
20
0
0
SEQEND
0
POLYLINE
8
CUT
66
1
70
0
0
VERTEX
8
CUT
10
49.5522
20
0
0
VERTEX
8
CUT
10
48.9979
20
0.4
0
VERTEX
8
CUT
10
48.4437
20
0
0
SEQEND
0
POLYLINE
8
CUT
66
1
70
0
0
VERTEX
8
CUT
10
50.7993
20
0
0
VERTEX
8
CUT
10
48.9979
20
1.3
0
VERTEX
8
CUT
10
47.1966
20
0
0
SEQEND
0
POLYLINE
8
CUT
66
1
70
0
0
VERTEX
8
CUT
10
56.0948
20
0
0
VERTEX
8
CUT
10
55.5405
20
0.4
0
VERTEX
8
CUT
10
54.9862
20
0
0
SEQEND
0
POLYLINE
8
CUT
66
1
70
0
0
VERTEX
8
CUT
10
57.3418
20
0
0
VERTEX
8
CUT
10
55.5405
20
1.3
0
VERTEX
8
CUT
10
53.7392
20
0
0
SEQEND
0
POLYLINE
8
CUT
66
1
70
0
0
VERTEX
8
CUT
10
62.6373
20
0
0
VERTEX
8
CUT
10
62.0831
20
0.4
0
VERTEX
8
CUT
10
61.5288
20
0
0
SEQEND
0
POLYLINE
8
CUT
66
1
70
0
0
VERTEX
8
CUT
10
63.8844
20
0
0
VERTEX
8
CUT
10
62.0831
20
1.3
0
VERTEX
8
CUT
10
60.2817
20
0
0
SEQEND
0
POLYLINE
8
CUT
66
1
70
0
0
VERTEX
8
CUT
10
69.1799
20
0
0
VERTEX
8
CUT
10
68.6256
20
0.4
0
VERTEX
8
CUT
10
68.0714
20
0
0
SEQEND
0
POLYLINE
8
CUT
66
1
70
0
0
VERTEX
8
CUT
10
70.427
20
0
0
VERTEX
8
CUT
10
68.6256
20
1.3
0
VERTEX
8
CUT
10
66.8243
20
0
0
SEQEND
0
POLYLINE
8
CUT
66
1
70
0
0
VERTEX
8
CUT
10
75.7224
20
0
0
VERTEX
8
CUT
10
75.1682
20
0.4
0
VERTEX
8
CUT
10
74.6139
20
0
0
SEQEND
0
POLYLINE
8
CUT
66
1
70
0
0
VERTEX
8
CUT
10
76.9695
20
0
0
VERTEX
8
CUT
10
75.1682
20
1.3
0
VERTEX
8
CUT
10
73.3669
20
0
0
SEQEND
0
POLYLINE
8
CUT
66
1
70
0
0
VERTEX
8
CUT
10
82.265
20
0
0
VERTEX
8
CUT
10
81.7108
20
0.4
0
VERTEX
8
CUT
10
81.1565
20
0
0
SEQEND
0
POLYLINE
8
CUT
66
1
70
0
0
VERTEX
8
CUT
10
83.5121
20
0
0
VERTEX
8
CUT
10
81.7108
20
1.3
0
VERTEX
8
CUT
10
79.9094
20
0
0
SEQEND
0
POLYLINE
8
CUT
66
1
70
0
0
VERTEX
8
CUT
10
88.8076
20
0
0
VERTEX
8
CUT
10
88.2533
20
0.4
0
VERTEX
8
CUT
10
87.6991
20
0
0
SEQEND
0
POLYLINE
8
CUT
66
1
70
0
0
VERTEX
8
CUT
10
90.0546
20
0
0
VERTEX
8
CUT
10
88.2533
20
1.3
0
VERTEX
8
CUT
10
86.452
20
0
0
SEQEND
0
POLYLINE
8
CUT
66
1
70
0
0
VERTEX
8
CUT
10
95.3501
20
0
0
VERTEX
8
CUT
10
94.7959
20
0.4
0
VERTEX
8
CUT
10
94.2416
20
0
0
SEQEND
0
POLYLINE
8
CUT
66
1
70
0
0
VERTEX
8
CUT
10
96.5972
20
0
0
VERTEX
8
CUT
10
94.7959
20
1.3
0
VERTEX
8
CUT
10
92.9945
20
0
0
SEQEND
0
POLYLINE
8
CUT
66
1
70
0
0
VERTEX
8
CUT
10
101.8927
20
0
0
VERTEX
8
CUT
10
101.3384
20
0.4
0
VERTEX
8
CUT
10
100.7842
20
0
0
SEQEND
0
POLYLINE
8
CUT
66
1
70
0
0
VERTEX
8
CUT
10
103.1398
20
0
0
VERTEX
8
CUT
10
101.3384
20
1.3
0
VERTEX
8
CUT
10
99.5371
20
0
0
SEQEND
0
POLYLINE
8
CUT
66
1
70
0
0
VERTEX
8
CUT
10
108.4353
20
0
0
VERTEX
8
CUT
10
107.881
20
0.4
0
VERTEX
8
CUT
10
107.3267
20
0
0
SEQEND
0
POLYLINE
8
CUT
66
1
70
0
0
VERTEX
8
CUT
10
109.6823
20
0
0
VERTEX
8
CUT
10
107.881
20
1.3
0
VERTEX
8
CUT
10
106.0797
20
0
0
SEQEND
0
POLYLINE
8
CUT
66
1
70
0
0
VERTEX
8
CUT
10
114.9778
20
0
0
VERTEX
8
CUT
10
114.4236
20
0.4
0
VERTEX
8
CUT
10
113.8693
20
0
0
SEQEND
0
POLYLINE
8
CUT
66
1
70
0
0
VERTEX
8
CUT
10
116.2249
20
0
0
VERTEX
8
CUT
10
114.4236
20
1.3
0
VERTEX
8
CUT
10
112.6222
20
0
0
SEQEND
0
LINE
8
CUT
10
120
20
0.6028
11
119.1648
21
0
0
POLYLINE
8
CUT
66
1
70
0
0
VERTEX
8
CUT
10
0
20
70
0
VERTEX
8
CUT
10
120
20
70
0
VERTEX
8
CUT
10
120
20
0
0
VERTEX
8
CUT
10
0
20
0
0
VERTEX
8
CUT
10
0
20
70
0
SEQEND
0
ENDSEC
0
EOF
