0
SECTION
2
HEADER
9
$ACADVER
1
AC1009
9
$INSUNITS
70
4
0
ENDSEC
0
SECTION
2
TABLES
0
TABLE
2
LAYER
70
1
0
LAYER
2
CUT
70
0
62
1
6
CONTINUOUS
0
ENDTAB
0
ENDSEC
0
SECTION
2
ENTITIES
0
LINE
8
CUT
10
2.1
20
70
11
1.6667
21
69.87
0
LINE
8
CUT
10
13.1
20
70
11
12.6667
21
69.87
0
LINE
8
CUT
10
8.9
20
70
11
9.3333
21
69.87
0
LINE
8
CUT
10
24.1
20
70
11
23.6667
21
69.87
0
LINE
8
CUT
10
19.9
20
70
11
20.3333
21
69.87
0
LINE
8
CUT
10
35.1
20
70
11
34.6667
21
69.87
0
LINE
8
CUT
10
30.9
20
70
11
31.3333
21
69.87
0
LINE
8
CUT
10
46.1
20
70
11
45.6667
21
69.87
0
LINE
8
CUT
10
41.9
20
70
11
42.3333
21
69.87
0
LINE
8
CUT
10
57.1
20
70
11
56.6667
21
69.87
0
LINE
8
CUT
10
52.9
20
70
11
53.3333
21
69.87
0
LINE
8
CUT
10
68.1
20
70
11
67.6667
21
69.87
0
LINE
8
CUT
10
63.9
20
70
11
64.3333
21
69.87
0
LINE
8
CUT
10
79.1
20
70
11
78.6667
21
69.87
0
LINE
8
CUT
10
74.9
20
70
11
75.3333
21
69.87
0
LINE
8
CUT
10
90.1
20
70
11
89.6667
21
69.87
0
LINE
8
CUT
10
85.9
20
70
11
86.3333
21
69.87
0
LINE
8
CUT
10
101.1
20
70
11
100.6667
21
69.87
0
LINE
8
CUT
10
96.9
20
70
11
97.3333
21
69.87
0
LINE
8
CUT
10
112.1
20
70
11
111.6667
21
69.87
0
LINE
8
CUT
10
107.9
20
70
11
108.3333
21
69.87
0
LINE
8
CUT
10
118.9
20
70
11
119.3333
21
69.87
0
POLYLINE
8
CUT
66
1
70
0
0
VERTEX
8
CUT
10
7.1667
20
69.5
0
VERTEX
8
CUT
10
10.5
20
68.5
0
VERTEX
8
CUT
10
10.5
20
65.5
0
VERTEX
8
CUT
10
7.1667
20
64.5
0
SEQEND
0
POLYLINE
8
CUT
66
1
70
0
0
VERTEX
8
CUT
10
3.8333
20
69.5
0
VERTEX
8
CUT
10
0.5
20
68.5
0
VERTEX
8
CUT
10
0.5
20
65.5
0
VERTEX
8
CUT
10
3.8333
20
64.5
0
SEQEND
0
POLYLINE
8
CUT
66
1
70
0
0
VERTEX
8
CUT
10
18.1667
20
69.5
0
VERTEX
8
CUT
10
21.5
20
68.5
0
VERTEX
8
CUT
10
21.5
20
65.5
0
VERTEX
8
CUT
10
18.1667
20
64.5
0
SEQEND
0
POLYLINE
8
CUT
66
1
70
0
0
VERTEX
8
CUT
10
14.8333
20
69.5
0
VERTEX
8
CUT
10
11.5
20
68.5
0
VERTEX
8
CUT
10
11.5
20
65.5
0
VERTEX
8
CUT
10
14.8333
20
64.5
0
SEQEND
0
POLYLINE
8
CUT
66
1
70
0
0
VERTEX
8
CUT
10
29.1667
20
69.5
0
VERTEX
8
CUT
10
32.5
20
68.5
0
VERTEX
8
CUT
10
32.5
20
65.5
0
VERTEX
8
CUT
10
29.1667
20
64.5
0
SEQEND
0
POLYLINE
8
CUT
66
1
70
0
0
VERTEX
8
CUT
10
25.8333
20
69.5
0
VERTEX
8
CUT
10
22.5
20
68.5
0
VERTEX
8
CUT
10
22.5
20
65.5
0
VERTEX
8
CUT
10
25.8333
20
64.5
0
SEQEND
0
POLYLINE
8
CUT
66
1
70
0
0
VERTEX
8
CUT
10
40.1667
20
69.5
0
VERTEX
8
CUT
10
43.5
20
68.5
0
VERTEX
8
CUT
10
43.5
20
65.5
0
VERTEX
8
CUT
10
40.1667
20
64.5
0
SEQEND
0
POLYLINE
8
CUT
66
1
70
0
0
VERTEX
8
CUT
10
36.8333
20
69.5
0
VERTEX
8
CUT
10
33.5
20
68.5
0
VERTEX
8
CUT
10
33.5
20
65.5
0
VERTEX
8
CUT
10
36.8333
20
64.5
0
SEQEND
0
POLYLINE
8
CUT
66
1
70
0
0
VERTEX
8
CUT
10
51.1667
20
69.5
0
VERTEX
8
CUT
10
54.5
20
68.5
0
VERTEX
8
CUT
10
54.5
20
65.5
0
VERTEX
8
CUT
10
51.1667
20
64.5
0
SEQEND
0
POLYLINE
8
CUT
66
1
70
0
0
VERTEX
8
CUT
10
47.8333
20
69.5
0
VERTEX
8
CUT
10
44.5
20
68.5
0
VERTEX
8
CUT
10
44.5
20
65.5
0
VERTEX
8
CUT
10
47.8333
20
64.5
0
SEQEND
0
POLYLINE
8
CUT
66
1
70
0
0
VERTEX
8
CUT
10
62.1667
20
69.5
0
VERTEX
8
CUT
10
65.5
20
68.5
0
VERTEX
8
CUT
10
65.5
20
65.5
0
VERTEX
8
CUT
10
62.1667
20
64.5
0
SEQEND
0
POLYLINE
8
CUT
66
1
70
0
0
VERTEX
8
CUT
10
58.8333
20
69.5
0
VERTEX
8
CUT
10
55.5
20
68.5
0
VERTEX
8
CUT
10
55.5
20
65.5
0
VERTEX
8
CUT
10
58.8333
20
64.5
0
SEQEND
0
POLYLINE
8
CUT
66
1
70
0
0
VERTEX
8
CUT
10
73.1667
20
69.5
0
VERTEX
8
CUT
10
76.5
20
68.5
0
VERTEX
8
CUT
10
76.5
20
65.5
0
VERTEX
8
CUT
10
73.1667
20
64.5
0
SEQEND
0
POLYLINE
8
CUT
66
1
70
0
0
VERTEX
8
CUT
10
69.8333
20
69.5
0
VERTEX
8
CUT
10
66.5
20
68.5
0
VERTEX
8
CUT
10
66.5
20
65.5
0
VERTEX
8
CUT
10
69.8333
20
64.5
0
SEQEND
0
POLYLINE
8
CUT
66
1
70
0
0
VERTEX
8
CUT
10
84.1667
20
69.5
0
VERTEX
8
CUT
10
87.5
20
68.5
0
VERTEX
8
CUT
10
87.5
20
65.5
0
VERTEX
8
CUT
10
84.1667
20
64.5
0
SEQEND
0
POLYLINE
8
CUT
66
1
70
0
0
VERTEX
8
CUT
10
80.8333
20
69.5
0
VERTEX
8
CUT
10
77.5
20
68.5
0
VERTEX
8
CUT
10
77.5
20
65.5
0
VERTEX
8
CUT
10
80.8333
20
64.5
0
SEQEND
0
POLYLINE
8
CUT
66
1
70
0
0
VERTEX
8
CUT
10
95.1667
20
69.5
0
VERTEX
8
CUT
10
98.5
20
68.5
0
VERTEX
8
CUT
10
98.5
20
65.5
0
VERTEX
8
CUT
10
95.1667
20
64.5
0
SEQEND
0
POLYLINE
8
CUT
66
1
70
0
0
VERTEX
8
CUT
10
91.8333
20
69.5
0
VERTEX
8
CUT
10
88.5
20
68.5
0
VERTEX
8
CUT
10
88.5
20
65.5
0
VERTEX
8
CUT
10
91.8333
20
64.5
0
SEQEND
0
POLYLINE
8
CUT
66
1
70
0
0
VERTEX
8
CUT
10
106.1667
20
69.5
0
VERTEX
8
CUT
10
109.5
20
68.5
0
VERTEX
8
CUT
10
109.5
20
65.5
0
VERTEX
8
CUT
10
106.1667
20
64.5
0
SEQEND
0
POLYLINE
8
CUT
66
1
70
0
0
VERTEX
8
CUT
10
102.8333
20
69.5
0
VERTEX
8
CUT
10
99.5
20
68.5
0
VERTEX
8
CUT
10
99.5
20
65.5
0
VERTEX
8
CUT
10
102.8333
20
64.5
0
SEQEND
0
LINE
8
CUT
10
117.1667
20
69.5
11
120
21
68.65
0
LINE
8
CUT
10
120
20
65.35
11
117.1667
21
64.5
0
POLYLINE
8
CUT
66
1
70
0
0
VERTEX
8
CUT
10
113.8333
20
69.5
0
VERTEX
8
CUT
10
110.5
20
68.5
0
VERTEX
8
CUT
10
110.5
20
65.5
0
VERTEX
8
CUT
10
113.8333
20
64.5
0
SEQEND
0
POLYLINE
8
CUT
66
1
70
0
0
VERTEX
8
CUT
10
1.6667
20
64.13
0
VERTEX
8
CUT
10
5
20
63.13
0
VERTEX
8
CUT
10
5
20
60.13
0
VERTEX
8
CUT
10
1.6667
20
59.13
0
SEQEND
0
POLYLINE
8
CUT
66
1
70
0
0
VERTEX
8
CUT
10
12.6667
20
64.13
0
VERTEX
8
CUT
10
16
20
63.13
0
VERTEX
8
CUT
10
16
20
60.13
0
VERTEX
8
CUT
10
12.6667
20
59.13
0
SEQEND
0
POLYLINE
8
CUT
66
1
70
0
0
VERTEX
8
CUT
10
9.3333
20
64.13
0
VERTEX
8
CUT
10
6
20
63.13
0
VERTEX
8
CUT
10
6
20
60.13
0
VERTEX
8
CUT
10
9.3333
20
59.13
0
SEQEND
0
POLYLINE
8
CUT
66
1
70
0
0
VERTEX
8
CUT
10
23.6667
20
64.13
0
VERTEX
8
CUT
10
27
20
63.13
0
VERTEX
8
CUT
10
27
20
60.13
0
VERTEX
8
CUT
10
23.6667
20
59.13
0
SEQEND
0
POLYLINE
8
CUT
66
1
70
0
0
VERTEX
8
CUT
10
20.3333
20
64.13
0
VERTEX
8
CUT
10
17
20
63.13
0
VERTEX
8
CUT
10
17
20
60.13
0
VERTEX
8
CUT
10
20.3333
20
59.13
0
SEQEND
0
POLYLINE
8
CUT
66
1
70
0
0
VERTEX
8
CUT
10
34.6667
20
64.13
0
VERTEX
8
CUT
10
38
20
63.13
0
VERTEX
8
CUT
10
38
20
60.13
0
VERTEX
8
CUT
10
34.6667
20
59.13
0
SEQEND
0
POLYLINE
8
CUT
66
1
70
0
0
VERTEX
8
CUT
10
31.3333
20
64.13
0
VERTEX
8
CUT
10
28
20
63.13
0
VERTEX
8
CUT
10
28
20
60.13
0
VERTEX
8
CUT
10
31.3333
20
59.13
0
SEQEND
0
POLYLINE
8
CUT
66
1
70
0
0
VERTEX
8
CUT
10
45.6667
20
64.13
0
VERTEX
8
CUT
10
49
20
63.13
0
VERTEX
8
CUT
10
49
20
60.13
0
VERTEX
8
CUT
10
45.6667
20
59.13
0
SEQEND
0
POLYLINE
8
CUT
66
1
70
0
0
VERTEX
8
CUT
10
42.3333
20
64.13
0
VERTEX
8
CUT
10
39
20
63.13
0
VERTEX
8
CUT
10
39
20
60.13
0
VERTEX
8
CUT
10
42.3333
20
59.13
0
SEQEND
0
POLYLINE
8
CUT
66
1
70
0
0
VERTEX
8
CUT
10
56.6667
20
64.13
0
VERTEX
8
CUT
10
60
20
63.13
0
VERTEX
8
CUT
10
60
20
60.13
0
VERTEX
8
CUT
10
56.6667
20
59.13
0
SEQEND
0
POLYLINE
8
CUT
66
1
70
0
0
VERTEX
8
CUT
10
53.3333
20
64.13
0
VERTEX
8
CUT
10
50
20
63.13
0
VERTEX
8
CUT
10
50
20
60.13
0
VERTEX
8
CUT
10
53.3333
20
59.13
0
SEQEND
0
POLYLINE
8
CUT
66
1
70
0
0
VERTEX
8
CUT
10
67.6667
20
64.13
0
VERTEX
8
CUT
10
71
20
63.13
0
VERTEX
8
CUT
10
71
20
60.13
0
VERTEX
8
CUT
10
67.6667
20
59.13
0
SEQEND
0
POLYLINE
8
CUT
66
1
70
0
0
VERTEX
8
CUT
10
64.3333
20
64.13
0
VERTEX
8
CUT
10
61
20
63.13
0
VERTEX
8
CUT
10
61
20
60.13
0
VERTEX
8
CUT
10
64.3333
20
59.13
0
SEQEND
0
POLYLINE
8
CUT
66
1
70
0
0
VERTEX
8
CUT
10
78.6667
20
64.13
0
VERTEX
8
CUT
10
82
20
63.13
0
VERTEX
8
CUT
10
82
20
60.13
0
VERTEX
8
CUT
10
78.6667
20
59.13
0
SEQEND
0
POLYLINE
8
CUT
66
1
70
0
0
VERTEX
8
CUT
10
75.3333
20
64.13
0
VERTEX
8
CUT
10
72
20
63.13
0
VERTEX
8
CUT
10
72
20
60.13
0
VERTEX
8
CUT
10
75.3333
20
59.13
0
SEQEND
0
POLYLINE
8
CUT
66
1
70
0
0
VERTEX
8
CUT
10
89.6667
20
64.13
0
VERTEX
8
CUT
10
93
20
63.13
0
VERTEX
8
CUT
10
93
20
60.13
0
VERTEX
8
CUT
10
89.6667
20
59.13
0
SEQEND
0
POLYLINE
8
CUT
66
1
70
0
0
VERTEX
8
CUT
10
86.3333
20
64.13
0
VERTEX
8
CUT
10
83
20
63.13
0
VERTEX
8
CUT
10
83
20
60.13
0
VERTEX
8
CUT
10
86.3333
20
59.13
0
SEQEND
0
POLYLINE
8
CUT
66
1
70
0
0
VERTEX
8
CUT
10
100.6667
20
64.13
0
VERTEX
8
CUT
10
104
20
63.13
0
VERTEX
8
CUT
10
104
20
60.13
0
VERTEX
8
CUT
10
100.6667
20
59.13
0
SEQEND
0
POLYLINE
8
CUT
66
1
70
0
0
VERTEX
8
CUT
10
97.3333
20
64.13
0
VERTEX
8
CUT
10
94
20
63.13
0
VERTEX
8
CUT
10
94
20
60.13
0
VERTEX
8
CUT
10
97.3333
20
59.13
0
SEQEND
0
POLYLINE
8
CUT
66
1
70
0
0
VERTEX
8
CUT
10
111.6667
20
64.13
0
VERTEX
8
CUT
10
115
20
63.13
0
VERTEX
8
CUT
10
115
20
60.13
0
VERTEX
8
CUT
10
111.6667
20
59.13
0
SEQEND
0
POLYLINE
8
CUT
66
1
70
0
0
VERTEX
8
CUT
10
108.3333
20
64.13
0
VERTEX
8
CUT
10
105
20
63.13
0
VERTEX
8
CUT
10
105
20
60.13
0
VERTEX
8
CUT
10
108.3333
20
59.13
0
SEQEND
0
POLYLINE
8
CUT
66
1
70
0
0
VERTEX
8
CUT
10
119.3333
20
64.13
0
VERTEX
8
CUT
10
116
20
63.13
0
VERTEX
8
CUT
10
116
20
60.13
0
VERTEX
8
CUT
10
119.3333
20
59.13
0
SEQEND
0
POLYLINE
8
CUT
66
1
70
0
0
VERTEX
8
CUT
10
7.1667
20
58.76
0
VERTEX
8
CUT
10
10.5
20
57.76
0
VERTEX
8
CUT
10
10.5
20
54.76
0
VERTEX
8
CUT
10
7.1667
20
53.76
0
SEQEND
0
POLYLINE
8
CUT
66
1
70
0
0
VERTEX
8
CUT
10
3.8333
20
58.76
0
VERTEX
8
CUT
10
0.5
20
57.76
0
VERTEX
8
CUT
10
0.5
20
54.76
0
VERTEX
8
CUT
10
3.8333
20
53.76
0
SEQEND
0
POLYLINE
8
CUT
66
1
70
0
0
VERTEX
8
CUT
10
18.1667
20
58.76
0
VERTEX
8
CUT
10
21.5
20
57.76
0
VERTEX
8
CUT
10
21.5
20
54.76
0
VERTEX
8
CUT
10
18.1667
20
53.76
0
SEQEND
0
POLYLINE
8
CUT
66
1
70
0
0
VERTEX
8
CUT
10
14.8333
20
58.76
0
VERTEX
8
CUT
10
11.5
20
57.76
0
VERTEX
8
CUT
10
11.5
20
54.76
0
VERTEX
8
CUT
10
14.8333
20
53.76
0
SEQEND
0
POLYLINE
8
CUT
66
1
70
0
0
VERTEX
8
CUT
10
29.1667
20
58.76
0
VERTEX
8
CUT
10
32.5
20
57.76
0
VERTEX
8
CUT
10
32.5
20
54.76
0
VERTEX
8
CUT
10
29.1667
20
53.76
0
SEQEND
0
POLYLINE
8
CUT
66
1
70
0
0
VERTEX
8
CUT
10
25.8333
20
58.76
0
VERTEX
8
CUT
10
22.5
20
57.76
0
VERTEX
8
CUT
10
22.5
20
54.76
0
VERTEX
8
CUT
10
25.8333
20
53.76
0
SEQEND
0
POLYLINE
8
CUT
66
1
70
0
0
VERTEX
8
CUT
10
40.1667
20
58.76
0
VERTEX
8
CUT
10
43.5
20
57.76
0
VERTEX
8
CUT
10
43.5
20
54.76
0
VERTEX
8
CUT
10
40.1667
20
53.76
0
SEQEND
0
POLYLINE
8
CUT
66
1
70
0
0
VERTEX
8
CUT
10
36.8333
20
58.76
0
VERTEX
8
CUT
10
33.5
20
57.76
0
VERTEX
8
CUT
10
33.5
20
54.76
0
VERTEX
8
CUT
10
36.8333
20
53.76
0
SEQEND
0
POLYLINE
8
CUT
66
1
70
0
0
VERTEX
8
CUT
10
51.1667
20
58.76
0
VERTEX
8
CUT
10
54.5
20
57.76
0
VERTEX
8
CUT
10
54.5
20
54.76
0
VERTEX
8
CUT
10
51.1667
20
53.76
0
SEQEND
0
POLYLINE
8
CUT
66
1
70
0
0
VERTEX
8
CUT
10
47.8333
20
58.76
0
VERTEX
8
CUT
10
44.5
20
57.76
0
VERTEX
8
CUT
10
44.5
20
54.76
0
VERTEX
8
CUT
10
47.8333
20
53.76
0
SEQEND
0
POLYLINE
8
CUT
66
1
70
0
0
VERTEX
8
CUT
10
62.1667
20
58.76
0
VERTEX
8
CUT
10
65.5
20
57.76
0
VERTEX
8
CUT
10
65.5
20
54.76
0
VERTEX
8
CUT
10
62.1667
20
53.76
0
SEQEND
0
POLYLINE
8
CUT
66
1
70
0
0
VERTEX
8
CUT
10
58.8333
20
58.76
0
VERTEX
8
CUT
10
55.5
20
57.76
0
VERTEX
8
CUT
10
55.5
20
54.76
0
VERTEX
8
CUT
10
58.8333
20
53.76
0
SEQEND
0
POLYLINE
8
CUT
66
1
70
0
0
VERTEX
8
CUT
10
73.1667
20
58.76
0
VERTEX
8
CUT
10
76.5
20
57.76
0
VERTEX
8
CUT
10
76.5
20
54.76
0
VERTEX
8
CUT
10
73.1667
20
53.76
0
SEQEND
0
POLYLINE
8
CUT
66
1
70
0
0
VERTEX
8
CUT
10
69.8333
20
58.76
0
VERTEX
8
CUT
10
66.5
20
57.76
0
VERTEX
8
CUT
10
66.5
20
54.76
0
VERTEX
8
CUT
10
69.8333
20
53.76
0
SEQEND
0
POLYLINE
8
CUT
66
1
70
0
0
VERTEX
8
CUT
10
84.1667
20
58.76
0
VERTEX
8
CUT
10
87.5
20
57.76
0
VERTEX
8
CUT
10
87.5
20
54.76
0
VERTEX
8
CUT
10
84.1667
20
53.76
0
SEQEND
0
POLYLINE
8
CUT
66
1
70
0
0
VERTEX
8
CUT
10
80.8333
20
58.76
0
VERTEX
8
CUT
10
77.5
20
57.76
0
VERTEX
8
CUT
10
77.5
20
54.76
0
VERTEX
8
CUT
10
80.8333
20
53.76
0
SEQEND
0
POLYLINE
8
CUT
66
1
70
0
0
VERTEX
8
CUT
10
95.1667
20
58.76
0
VERTEX
8
CUT
10
98.5
20
57.76
0
VERTEX
8
CUT
10
98.5
20
54.76
0
VERTEX
8
CUT
10
95.1667
20
53.76
0
SEQEND
0
POLYLINE
8
CUT
66
1
70
0
0
VERTEX
8
CUT
10
91.8333
20
58.76
0
VERTEX
8
CUT
10
88.5
20
57.76
0
VERTEX
8
CUT
10
88.5
20
54.76
0
VERTEX
8
CUT
10
91.8333
20
53.76
0
SEQEND
0
POLYLINE
8
CUT
66
1
70
0
0
VERTEX
8
CUT
10
106.1667
20
58.76
0
VERTEX
8
CUT
10
109.5
20
57.76
0
VERTEX
8
CUT
10
109.5
20
54.76
0
VERTEX
8
CUT
10
106.1667
20
53.76
0
SEQEND
0
POLYLINE
8
CUT
66
1
70
0
0
VERTEX
8
CUT
10
102.8333
20
58.76
0
VERTEX
8
CUT
10
99.5
20
57.76
0
VERTEX
8
CUT
10
99.5
20
54.76
0
VERTEX
8
CUT
10
102.8333
20
53.76
0
SEQEND
0
LINE
8
CUT
10
117.1667
20
58.76
11
120
21
57.91
0
LINE
8
CUT
10
120
20
54.61
11
117.1667
21
53.76
0
POLYLINE
8
CUT
66
1
70
0
0
VERTEX
8
CUT
10
113.8333
20
58.76
0
VERTEX
8
CUT
10
110.5
20
57.76
0
VERTEX
8
CUT
10
110.5
20
54.76
0
VERTEX
8
CUT
10
113.8333
20
53.76
0
SEQEND
0
POLYLINE
8
CUT
66
1
70
0
0
VERTEX
8
CUT
10
1.6667
20
53.39
0
VERTEX
8
CUT
10
5
20
52.39
0
VERTEX
8
CUT
10
5
20
49.39
0
VERTEX
8
CUT
10
1.6667
20
48.39
0
SEQEND
0
POLYLINE
8
CUT
66
1
70
0
0
VERTEX
8
CUT
10
12.6667
20
53.39
0
VERTEX
8
CUT
10
16
20
52.39
0
VERTEX
8
CUT
10
16
20
49.39
0
VERTEX
8
CUT
10
12.6667
20
48.39
0
SEQEND
0
POLYLINE
8
CUT
66
1
70
0
0
VERTEX
8
CUT
10
9.3333
20
53.39
0
VERTEX
8
CUT
10
6
20
52.39
0
VERTEX
8
CUT
10
6
20
49.39
0
VERTEX
8
CUT
10
9.3333
20
48.39
0
SEQEND
0
POLYLINE
8
CUT
66
1
70
0
0
VERTEX
8
CUT
10
23.6667
20
53.39
0
VERTEX
8
CUT
10
27
20
52.39
0
VERTEX
8
CUT
10
27
20
49.39
0
VERTEX
8
CUT
10
23.6667
20
48.39
0
SEQEND
0
POLYLINE
8
CUT
66
1
70
0
0
VERTEX
8
CUT
10
20.3333
20
53.39
0
VERTEX
8
CUT
10
17
20
52.39
0
VERTEX
8
CUT
10
17
20
49.39
0
VERTEX
8
CUT
10
20.3333
20
48.39
0
SEQEND
0
POLYLINE
8
CUT
66
1
70
0
0
VERTEX
8
CUT
10
34.6667
20
53.39
0
VERTEX
8
CUT
10
38
20
52.39
0
VERTEX
8
CUT
10
38
20
49.39
0
VERTEX
8
CUT
10
34.6667
20
48.39
0
SEQEND
0
POLYLINE
8
CUT
66
1
70
0
0
VERTEX
8
CUT
10
31.3333
20
53.39
0
VERTEX
8
CUT
10
28
20
52.39
0
VERTEX
8
CUT
10
28
20
49.39
0
VERTEX
8
CUT
10
31.3333
20
48.39
0
SEQEND
0
POLYLINE
8
CUT
66
1
70
0
0
VERTEX
8
CUT
10
45.6667
20
53.39
0
VERTEX
8
CUT
10
49
20
52.39
0
VERTEX
8
CUT
10
49
20
49.39
0
VERTEX
8
CUT
10
45.6667
20
48.39
0
SEQEND
0
POLYLINE
8
CUT
66
1
70
0
0
VERTEX
8
CUT
10
42.3333
20
53.39
0
VERTEX
8
CUT
10
39
20
52.39
0
VERTEX
8
CUT
10
39
20
49.39
0
VERTEX
8
CUT
10
42.3333
20
48.39
0
SEQEND
0
POLYLINE
8
CUT
66
1
70
0
0
VERTEX
8
CUT
10
56.6667
20
53.39
0
VERTEX
8
CUT
10
60
20
52.39
0
VERTEX
8
CUT
10
60
20
49.39
0
VERTEX
8
CUT
10
56.6667
20
48.39
0
SEQEND
0
POLYLINE
8
CUT
66
1
70
0
0
VERTEX
8
CUT
10
53.3333
20
53.39
0
VERTEX
8
CUT
10
50
20
52.39
0
VERTEX
8
CUT
10
50
20
49.39
0
VERTEX
8
CUT
10
53.3333
20
48.39
0
SEQEND
0
POLYLINE
8
CUT
66
1
70
0
0
VERTEX
8
CUT
10
67.6667
20
53.39
0
VERTEX
8
CUT
10
71
20
52.39
0
VERTEX
8
CUT
10
71
20
49.39
0
VERTEX
8
CUT
10
67.6667
20
48.39
0
SEQEND
0
POLYLINE
8
CUT
66
1
70
0
0
VERTEX
8
CUT
10
64.3333
20
53.39
0
VERTEX
8
CUT
10
61
20
52.39
0
VERTEX
8
CUT
10
61
20
49.39
0
VERTEX
8
CUT
10
64.3333
20
48.39
0
SEQEND
0
POLYLINE
8
CUT
66
1
70
0
0
VERTEX
8
CUT
10
78.6667
20
53.39
0
VERTEX
8
CUT
10
82
20
52.39
0
VERTEX
8
CUT
10
82
20
49.39
0
VERTEX
8
CUT
10
78.6667
20
48.39
0
SEQEND
0
POLYLINE
8
CUT
66
1
70
0
0
VERTEX
8
CUT
10
75.3333
20
53.39
0
VERTEX
8
CUT
10
72
20
52.39
0
VERTEX
8
CUT
10
72
20
49.39
0
VERTEX
8
CUT
10
75.3333
20
48.39
0
SEQEND
0
POLYLINE
8
CUT
66
1
70
0
0
VERTEX
8
CUT
10
89.6667
20
53.39
0
VERTEX
8
CUT
10
93
20
52.39
0
VERTEX
8
CUT
10
93
20
49.39
0
VERTEX
8
CUT
10
89.6667
20
48.39
0
SEQEND
0
POLYLINE
8
CUT
66
1
70
0
0
VERTEX
8
CUT
10
86.3333
20
53.39
0
VERTEX
8
CUT
10
83
20
52.39
0
VERTEX
8
CUT
10
83
20
49.39
0
VERTEX
8
CUT
10
86.3333
20
48.39
0
SEQEND
0
POLYLINE
8
CUT
66
1
70
0
0
VERTEX
8
CUT
10
100.6667
20
53.39
0
VERTEX
8
CUT
10
104
20
52.39
0
VERTEX
8
CUT
10
104
20
49.39
0
VERTEX
8
CUT
10
100.6667
20
48.39
0
SEQEND
0
POLYLINE
8
CUT
66
1
70
0
0
VERTEX
8
CUT
10
97.3333
20
53.39
0
VERTEX
8
CUT
10
94
20
52.39
0
VERTEX
8
CUT
10
94
20
49.39
0
VERTEX
8
CUT
10
97.3333
20
48.39
0
SEQEND
0
POLYLINE
8
CUT
66
1
70
0
0
VERTEX
8
CUT
10
111.6667
20
53.39
0
VERTEX
8
CUT
10
115
20
52.39
0
VERTEX
8
CUT
10
115
20
49.39
0
VERTEX
8
CUT
10
111.6667
20
48.39
0
SEQEND
0
POLYLINE
8
CUT
66
1
70
0
0
VERTEX
8
CUT
10
108.3333
20
53.39
0
VERTEX
8
CUT
10
105
20
52.39
0
VERTEX
8
CUT
10
105
20
49.39
0
VERTEX
8
CUT
10
108.3333
20
48.39
0
SEQEND
0
POLYLINE
8
CUT
66
1
70
0
0
VERTEX
8
CUT
10
119.3333
20
53.39
0
VERTEX
8
CUT
10
116
20
52.39
0
VERTEX
8
CUT
10
116
20
49.39
0
VERTEX
8
CUT
10
119.3333
20
48.39
0
SEQEND
0
POLYLINE
8
CUT
66
1
70
0
0
VERTEX
8
CUT
10
7.1667
20
48.02
0
VERTEX
8
CUT
10
10.5
20
47.02
0
VERTEX
8
CUT
10
10.5
20
44.02
0
VERTEX
8
CUT
10
7.1667
20
43.02
0
SEQEND
0
POLYLINE
8
CUT
66
1
70
0
0
VERTEX
8
CUT
10
3.8333
20
48.02
0
VERTEX
8
CUT
10
0.5
20
47.02
0
VERTEX
8
CUT
10
0.5
20
44.02
0
VERTEX
8
CUT
10
3.8333
20
43.02
0
SEQEND
0
POLYLINE
8
CUT
66
1
70
0
0
VERTEX
8
CUT
10
18.1667
20
48.02
0
VERTEX
8
CUT
10
21.5
20
47.02
0
VERTEX
8
CUT
10
21.5
20
44.02
0
VERTEX
8
CUT
10
18.1667
20
43.02
0
SEQEND
0
POLYLINE
8
CUT
66
1
70
0
0
VERTEX
8
CUT
10
14.8333
20
48.02
0
VERTEX
8
CUT
10
11.5
20
47.02
0
VERTEX
8
CUT
10
11.5
20
44.02
0
VERTEX
8
CUT
10
14.8333
20
43.02
0
SEQEND
0
POLYLINE
8
CUT
66
1
70
0
0
VERTEX
8
CUT
10
29.1667
20
48.02
0
VERTEX
8
CUT
10
32.5
20
47.02
0
VERTEX
8
CUT
10
32.5
20
44.02
0
VERTEX
8
CUT
10
29.1667
20
43.02
0
SEQEND
0
POLYLINE
8
CUT
66
1
70
0
0
VERTEX
8
CUT
10
25.8333
20
48.02
0
VERTEX
8
CUT
10
22.5
20
47.02
0
VERTEX
8
CUT
10
22.5
20
44.02
0
VERTEX
8
CUT
10
25.8333
20
43.02
0
SEQEND
0
POLYLINE
8
CUT
66
1
70
0
0
VERTEX
8
CUT
10
40.1667
20
48.02
0
VERTEX
8
CUT
10
43.5
20
47.02
0
VERTEX
8
CUT
10
43.5
20
44.02
0
VERTEX
8
CUT
10
40.1667
20
43.02
0
SEQEND
0
POLYLINE
8
CUT
66
1
70
0
0
VERTEX
8
CUT
10
36.8333
20
48.02
0
VERTEX
8
CUT
10
33.5
20
47.02
0
VERTEX
8
CUT
10
33.5
20
44.02
0
VERTEX
8
CUT
10
36.8333
20
43.02
0
SEQEND
0
POLYLINE
8
CUT
66
1
70
0
0
VERTEX
8
CUT
10
51.1667
20
48.02
0
VERTEX
8
CUT
10
54.5
20
47.02
0
VERTEX
8
CUT
10
54.5
20
44.02
0
VERTEX
8
CUT
10
51.1667
20
43.02
0
SEQEND
0
POLYLINE
8
CUT
66
1
70
0
0
VERTEX
8
CUT
10
47.8333
20
48.02
0
VERTEX
8
CUT
10
44.5
20
47.02
0
VERTEX
8
CUT
10
44.5
20
44.02
0
VERTEX
8
CUT
10
47.8333
20
43.02
0
SEQEND
0
POLYLINE
8
CUT
66
1
70
0
0
VERTEX
8
CUT
10
62.1667
20
48.02
0
VERTEX
8
CUT
10
65.5
20
47.02
0
VERTEX
8
CUT
10
65.5
20
44.02
0
VERTEX
8
CUT
10
62.1667
20
43.02
0
SEQEND
0
POLYLINE
8
CUT
66
1
70
0
0
VERTEX
8
CUT
10
58.8333
20
48.02
0
VERTEX
8
CUT
10
55.5
20
47.02
0
VERTEX
8
CUT
10
55.5
20
44.02
0
VERTEX
8
CUT
10
58.8333
20
43.02
0
SEQEND
0
POLYLINE
8
CUT
66
1
70
0
0
VERTEX
8
CUT
10
73.1667
20
48.02
0
VERTEX
8
CUT
10
76.5
20
47.02
0
VERTEX
8
CUT
10
76.5
20
44.02
0
VERTEX
8
CUT
10
73.1667
20
43.02
0
SEQEND
0
POLYLINE
8
CUT
66
1
70
0
0
VERTEX
8
CUT
10
69.8333
20
48.02
0
VERTEX
8
CUT
10
66.5
20
47.02
0
VERTEX
8
CUT
10
66.5
20
44.02
0
VERTEX
8
CUT
10
69.8333
20
43.02
0
SEQEND
0
POLYLINE
8
CUT
66
1
70
0
0
VERTEX
8
CUT
10
84.1667
20
48.02
0
VERTEX
8
CUT
10
87.5
20
47.02
0
VERTEX
8
CUT
10
87.5
20
44.02
0
VERTEX
8
CUT
10
84.1667
20
43.02
0
SEQEND
0
POLYLINE
8
CUT
66
1
70
0
0
VERTEX
8
CUT
10
80.8333
20
48.02
0
VERTEX
8
CUT
10
77.5
20
47.02
0
VERTEX
8
CUT
10
77.5
20
44.02
0
VERTEX
8
CUT
10
80.8333
20
43.02
0
SEQEND
0
POLYLINE
8
CUT
66
1
70
0
0
VERTEX
8
CUT
10
95.1667
20
48.02
0
VERTEX
8
CUT
10
98.5
20
47.02
0
VERTEX
8
CUT
10
98.5
20
44.02
0
VERTEX
8
CUT
10
95.1667
20
43.02
0
SEQEND
0
POLYLINE
8
CUT
66
1
70
0
0
VERTEX
8
CUT
10
91.8333
20
48.02
0
VERTEX
8
CUT
10
88.5
20
47.02
0
VERTEX
8
CUT
10
88.5
20
44.02
0
VERTEX
8
CUT
10
91.8333
20
43.02
0
SEQEND
0
POLYLINE
8
CUT
66
1
70
0
0
VERTEX
8
CUT
10
106.1667
20
48.02
0
VERTEX
8
CUT
10
109.5
20
47.02
0
VERTEX
8
CUT
10
109.5
20
44.02
0
VERTEX
8
CUT
10
106.1667
20
43.02
0
SEQEND
0
POLYLINE
8
CUT
66
1
70
0
0
VERTEX
8
CUT
10
102.8333
20
48.02
0
VERTEX
8
CUT
10
99.5
20
47.02
0
VERTEX
8
CUT
10
99.5
20
44.02
0
VERTEX
8
CUT
10
102.8333
20
43.02
0
SEQEND
0
LINE
8
CUT
10
117.1667
20
48.02
11
120
21
47.17
0
LINE
8
CUT
10
120
20
43.87
11
117.1667
21
43.02
0
POLYLINE
8
CUT
66
1
70
0
0
VERTEX
8
CUT
10
113.8333
20
48.02
0
VERTEX
8
CUT
10
110.5
20
47.02
0
VERTEX
8
CUT
10
110.5
20
44.02
0
VERTEX
8
CUT
10
113.8333
20
43.02
0
SEQEND
0
POLYLINE
8
CUT
66
1
70
0
0
VERTEX
8
CUT
10
1.6667
20
42.65
0
VERTEX
8
CUT
10
5
20
41.65
0
VERTEX
8
CUT
10
5
20
38.65
0
VERTEX
8
CUT
10
1.6667
20
37.65
0
SEQEND
0
POLYLINE
8
CUT
66
1
70
0
0
VERTEX
8
CUT
10
12.6667
20
42.65
0
VERTEX
8
CUT
10
16
20
41.65
0
VERTEX
8
CUT
10
16
20
38.65
0
VERTEX
8
CUT
10
12.6667
20
37.65
0
SEQEND
0
POLYLINE
8
CUT
66
1
70
0
0
VERTEX
8
CUT
10
9.3333
20
42.65
0
VERTEX
8
CUT
10
6
20
41.65
0
VERTEX
8
CUT
10
6
20
38.65
0
VERTEX
8
CUT
10
9.3333
20
37.65
0
SEQEND
0
POLYLINE
8
CUT
66
1
70
0
0
VERTEX
8
CUT
10
23.6667
20
42.65
0
VERTEX
8
CUT
10
27
20
41.65
0
VERTEX
8
CUT
10
27
20
38.65
0
VERTEX
8
CUT
10
23.6667
20
37.65
0
SEQEND
0
POLYLINE
8
CUT
66
1
70
0
0
VERTEX
8
CUT
10
20.3333
20
42.65
0
VERTEX
8
CUT
10
17
20
41.65
0
VERTEX
8
CUT
10
17
20
38.65
0
VERTEX
8
CUT
10
20.3333
20
37.65
0
SEQEND
0
POLYLINE
8
CUT
66
1
70
0
0
VERTEX
8
CUT
10
34.6667
20
42.65
0
VERTEX
8
CUT
10
38
20
41.65
0
VERTEX
8
CUT
10
38
20
38.65
0
VERTEX
8
CUT
10
34.6667
20
37.65
0
SEQEND
0
POLYLINE
8
CUT
66
1
70
0
0
VERTEX
8
CUT
10
31.3333
20
42.65
0
VERTEX
8
CUT
10
28
20
41.65
0
VERTEX
8
CUT
10
28
20
38.65
0
VERTEX
8
CUT
10
31.3333
20
37.65
0
SEQEND
0
POLYLINE
8
CUT
66
1
70
0
0
VERTEX
8
CUT
10
45.6667
20
42.65
0
VERTEX
8
CUT
10
49
20
41.65
0
VERTEX
8
CUT
10
49
20
38.65
0
VERTEX
8
CUT
10
45.6667
20
37.65
0
SEQEND
0
POLYLINE
8
CUT
66
1
70
0
0
VERTEX
8
CUT
10
42.3333
20
42.65
0
VERTEX
8
CUT
10
39
20
41.65
0
VERTEX
8
CUT
10
39
20
38.65
0
VERTEX
8
CUT
10
42.3333
20
37.65
0
SEQEND
0
POLYLINE
8
CUT
66
1
70
0
0
VERTEX
8
CUT
10
56.6667
20
42.65
0
VERTEX
8
CUT
10
60
20
41.65
0
VERTEX
8
CUT
10
60
20
38.65
0
VERTEX
8
CUT
10
56.6667
20
37.65
0
SEQEND
0
POLYLINE
8
CUT
66
1
70
0
0
VERTEX
8
CUT
10
53.3333
20
42.65
0
VERTEX
8
CUT
10
50
20
41.65
0
VERTEX
8
CUT
10
50
20
38.65
0
VERTEX
8
CUT
10
53.3333
20
37.65
0
SEQEND
0
POLYLINE
8
CUT
66
1
70
0
0
VERTEX
8
CUT
10
67.6667
20
42.65
0
VERTEX
8
CUT
10
71
20
41.65
0
VERTEX
8
CUT
10
71
20
38.65
0
VERTEX
8
CUT
10
67.6667
20
37.65
0
SEQEND
0
POLYLINE
8
CUT
66
1
70
0
0
VERTEX
8
CUT
10
64.3333
20
42.65
0
VERTEX
8
CUT
10
61
20
41.65
0
VERTEX
8
CUT
10
61
20
38.65
0
VERTEX
8
CUT
10
64.3333
20
37.65
0
SEQEND
0
POLYLINE
8
CUT
66
1
70
0
0
VERTEX
8
CUT
10
78.6667
20
42.65
0
VERTEX
8
CUT
10
82
20
41.65
0
VERTEX
8
CUT
10
82
20
38.65
0
VERTEX
8
CUT
10
78.6667
20
37.65
0
SEQEND
0
POLYLINE
8
CUT
66
1
70
0
0
VERTEX
8
CUT
10
75.3333
20
42.65
0
VERTEX
8
CUT
10
72
20
41.65
0
VERTEX
8
CUT
10
72
20
38.65
0
VERTEX
8
CUT
10
75.3333
20
37.65
0
SEQEND
0
POLYLINE
8
CUT
66
1
70
0
0
VERTEX
8
CUT
10
89.6667
20
42.65
0
VERTEX
8
CUT
10
93
20
41.65
0
VERTEX
8
CUT
10
93
20
38.65
0
VERTEX
8
CUT
10
89.6667
20
37.65
0
SEQEND
0
POLYLINE
8
CUT
66
1
70
0
0
VERTEX
8
CUT
10
86.3333
20
42.65
0
VERTEX
8
CUT
10
83
20
41.65
0
VERTEX
8
CUT
10
83
20
38.65
0
VERTEX
8
CUT
10
86.3333
20
37.65
0
SEQEND
0
POLYLINE
8
CUT
66
1
70
0
0
VERTEX
8
CUT
10
100.6667
20
42.65
0
VERTEX
8
CUT
10
104
20
41.65
0
VERTEX
8
CUT
10
104
20
38.65
0
VERTEX
8
CUT
10
100.6667
20
37.65
0
SEQEND
0
POLYLINE
8
CUT
66
1
70
0
0
VERTEX
8
CUT
10
97.3333
20
42.65
0
VERTEX
8
CUT
10
94
20
41.65
0
VERTEX
8
CUT
10
94
20
38.65
0
VERTEX
8
CUT
10
97.3333
20
37.65
0
SEQEND
0
POLYLINE
8
CUT
66
1
70
0
0
VERTEX
8
CUT
10
111.6667
20
42.65
0
VERTEX
8
CUT
10
115
20
41.65
0
VERTEX
8
CUT
10
115
20
38.65
0
VERTEX
8
CUT
10
111.6667
20
37.65
0
SEQEND
0
POLYLINE
8
CUT
66
1
70
0
0
VERTEX
8
CUT
10
108.3333
20
42.65
0
VERTEX
8
CUT
10
105
20
41.65
0
VERTEX
8
CUT
10
105
20
38.65
0
VERTEX
8
CUT
10
108.3333
20
37.65
0
SEQEND
0
POLYLINE
8
CUT
66
1
70
0
0
VERTEX
8
CUT
10
119.3333
20
42.65
0
VERTEX
8
CUT
10
116
20
41.65
0
VERTEX
8
CUT
10
116
20
38.65
0
VERTEX
8
CUT
10
119.3333
20
37.65
0
SEQEND
0
POLYLINE
8
CUT
66
1
70
0
0
VERTEX
8
CUT
10
7.1667
20
37.28
0
VERTEX
8
CUT
10
10.5
20
36.28
0
VERTEX
8
CUT
10
10.5
20
33.28
0
VERTEX
8
CUT
10
7.1667
20
32.28
0
SEQEND
0
POLYLINE
8
CUT
66
1
70
0
0
VERTEX
8
CUT
10
3.8333
20
37.28
0
VERTEX
8
CUT
10
0.5
20
36.28
0
VERTEX
8
CUT
10
0.5
20
33.28
0
VERTEX
8
CUT
10
3.8333
20
32.28
0
SEQEND
0
POLYLINE
8
CUT
66
1
70
0
0
VERTEX
8
CUT
10
18.1667
20
37.28
0
VERTEX
8
CUT
10
21.5
20
36.28
0
VERTEX
8
CUT
10
21.5
20
33.28
0
VERTEX
8
CUT
10
18.1667
20
32.28
0
SEQEND
0
POLYLINE
8
CUT
66
1
70
0
0
VERTEX
8
CUT
10
14.8333
20
37.28
0
VERTEX
8
CUT
10
11.5
20
36.28
0
VERTEX
8
CUT
10
11.5
20
33.28
0
VERTEX
8
CUT
10
14.8333
20
32.28
0
SEQEND
0
POLYLINE
8
CUT
66
1
70
0
0
VERTEX
8
CUT
10
29.1667
20
37.28
0
VERTEX
8
CUT
10
32.5
20
36.28
0
VERTEX
8
CUT
10
32.5
20
33.28
0
VERTEX
8
CUT
10
29.1667
20
32.28
0
SEQEND
0
POLYLINE
8
CUT
66
1
70
0
0
VERTEX
8
CUT
10
25.8333
20
37.28
0
VERTEX
8
CUT
10
22.5
20
36.28
0
VERTEX
8
CUT
10
22.5
20
33.28
0
VERTEX
8
CUT
10
25.8333
20
32.28
0
SEQEND
0
POLYLINE
8
CUT
66
1
70
0
0
VERTEX
8
CUT
10
40.1667
20
37.28
0
VERTEX
8
CUT
10
43.5
20
36.28
0
VERTEX
8
CUT
10
43.5
20
33.28
0
VERTEX
8
CUT
10
40.1667
20
32.28
0
SEQEND
0
POLYLINE
8
CUT
66
1
70
0
0
VERTEX
8
CUT
10
36.8333
20
37.28
0
VERTEX
8
CUT
10
33.5
20
36.28
0
VERTEX
8
CUT
10
33.5
20
33.28
0
VERTEX
8
CUT
10
36.8333
20
32.28
0
SEQEND
0
POLYLINE
8
CUT
66
1
70
0
0
VERTEX
8
CUT
10
51.1667
20
37.28
0
VERTEX
8
CUT
10
54.5
20
36.28
0
VERTEX
8
CUT
10
54.5
20
33.28
0
VERTEX
8
CUT
10
51.1667
20
32.28
0
SEQEND
0
POLYLINE
8
CUT
66
1
70
0
0
VERTEX
8
CUT
10
47.8333
20
37.28
0
VERTEX
8
CUT
10
44.5
20
36.28
0
VERTEX
8
CUT
10
44.5
20
33.28
0
VERTEX
8
CUT
10
47.8333
20
32.28
0
SEQEND
0
POLYLINE
8
CUT
66
1
70
0
0
VERTEX
8
CUT
10
62.1667
20
37.28
0
VERTEX
8
CUT
10
65.5
20
36.28
0
VERTEX
8
CUT
10
65.5
20
33.28
0
VERTEX
8
CUT
10
62.1667
20
32.28
0
SEQEND
0
POLYLINE
8
CUT
66
1
70
0
0
VERTEX
8
CUT
10
58.8333
20
37.28
0
VERTEX
8
CUT
10
55.5
20
36.28
0
VERTEX
8
CUT
10
55.5
20
33.28
0
VERTEX
8
CUT
10
58.8333
20
32.28
0
SEQEND
0
POLYLINE
8
CUT
66
1
70
0
0
VERTEX
8
CUT
10
73.1667
20
37.28
0
VERTEX
8
CUT
10
76.5
20
36.28
0
VERTEX
8
CUT
10
76.5
20
33.28
0
VERTEX
8
CUT
10
73.1667
20
32.28
0
SEQEND
0
POLYLINE
8
CUT
66
1
70
0
0
VERTEX
8
CUT
10
69.8333
20
37.28
0
VERTEX
8
CUT
10
66.5
20
36.28
0
VERTEX
8
CUT
10
66.5
20
33.28
0
VERTEX
8
CUT
10
69.8333
20
32.28
0
SEQEND
0
POLYLINE
8
CUT
66
1
70
0
0
VERTEX
8
CUT
10
84.1667
20
37.28
0
VERTEX
8
CUT
10
87.5
20
36.28
0
VERTEX
8
CUT
10
87.5
20
33.28
0
VERTEX
8
CUT
10
84.1667
20
32.28
0
SEQEND
0
POLYLINE
8
CUT
66
1
70
0
0
VERTEX
8
CUT
10
80.8333
20
37.28
0
VERTEX
8
CUT
10
77.5
20
36.28
0
VERTEX
8
CUT
10
77.5
20
33.28
0
VERTEX
8
CUT
10
80.8333
20
32.28
0
SEQEND
0
POLYLINE
8
CUT
66
1
70
0
0
VERTEX
8
CUT
10
95.1667
20
37.28
0
VERTEX
8
CUT
10
98.5
20
36.28
0
VERTEX
8
CUT
10
98.5
20
33.28
0
VERTEX
8
CUT
10
95.1667
20
32.28
0
SEQEND
0
POLYLINE
8
CUT
66
1
70
0
0
VERTEX
8
CUT
10
91.8333
20
37.28
0
VERTEX
8
CUT
10
88.5
20
36.28
0
VERTEX
8
CUT
10
88.5
20
33.28
0
VERTEX
8
CUT
10
91.8333
20
32.28
0
SEQEND
0
POLYLINE
8
CUT
66
1
70
0
0
VERTEX
8
CUT
10
106.1667
20
37.28
0
VERTEX
8
CUT
10
109.5
20
36.28
0
VERTEX
8
CUT
10
109.5
20
33.28
0
VERTEX
8
CUT
10
106.1667
20
32.28
0
SEQEND
0
POLYLINE
8
CUT
66
1
70
0
0
VERTEX
8
CUT
10
102.8333
20
37.28
0
VERTEX
8
CUT
10
99.5
20
36.28
0
VERTEX
8
CUT
10
99.5
20
33.28
0
VERTEX
8
CUT
10
102.8333
20
32.28
0
SEQEND
0
LINE
8
CUT
10
117.1667
20
37.28
11
120
21
36.43
0
LINE
8
CUT
10
120
20
33.13
11
117.1667
21
32.28
0
POLYLINE
8
CUT
66
1
70
0
0
VERTEX
8
CUT
10
113.8333
20
37.28
0
VERTEX
8
CUT
10
110.5
20
36.28
0
VERTEX
8
CUT
10
110.5
20
33.28
0
VERTEX
8
CUT
10
113.8333
20
32.28
0
SEQEND
0
POLYLINE
8
CUT
66
1
70
0
0
VERTEX
8
CUT
10
1.6667
20
31.91
0
VERTEX
8
CUT
10
5
20
30.91
0
VERTEX
8
CUT
10
5
20
27.91
0
VERTEX
8
CUT
10
1.6667
20
26.91
0
SEQEND
0
POLYLINE
8
CUT
66
1
70
0
0
VERTEX
8
CUT
10
12.6667
20
31.91
0
VERTEX
8
CUT
10
16
20
30.91
0
VERTEX
8
CUT
10
16
20
27.91
0
VERTEX
8
CUT
10
12.6667
20
26.91
0
SEQEND
0
POLYLINE
8
CUT
66
1
70
0
0
VERTEX
8
CUT
10
9.3333
20
31.91
0
VERTEX
8
CUT
10
6
20
30.91
0
VERTEX
8
CUT
10
6
20
27.91
0
VERTEX
8
CUT
10
9.3333
20
26.91
0
SEQEND
0
POLYLINE
8
CUT
66
1
70
0
0
VERTEX
8
CUT
10
23.6667
20
31.91
0
VERTEX
8
CUT
10
27
20
30.91
0
VERTEX
8
CUT
10
27
20
27.91
0
VERTEX
8
CUT
10
23.6667
20
26.91
0
SEQEND
0
POLYLINE
8
CUT
66
1
70
0
0
VERTEX
8
CUT
10
20.3333
20
31.91
0
VERTEX
8
CUT
10
17
20
30.91
0
VERTEX
8
CUT
10
17
20
27.91
0
VERTEX
8
CUT
10
20.3333
20
26.91
0
SEQEND
0
POLYLINE
8
CUT
66
1
70
0
0
VERTEX
8
CUT
10
34.6667
20
31.91
0
VERTEX
8
CUT
10
38
20
30.91
0
VERTEX
8
CUT
10
38
20
27.91
0
VERTEX
8
CUT
10
34.6667
20
26.91
0
SEQEND
0
POLYLINE
8
CUT
66
1
70
0
0
VERTEX
8
CUT
10
31.3333
20
31.91
0
VERTEX
8
CUT
10
28
20
30.91
0
VERTEX
8
CUT
10
28
20
27.91
0
VERTEX
8
CUT
10
31.3333
20
26.91
0
SEQEND
0
POLYLINE
8
CUT
66
1
70
0
0
VERTEX
8
CUT
10
45.6667
20
31.91
0
VERTEX
8
CUT
10
49
20
30.91
0
VERTEX
8
CUT
10
49
20
27.91
0
VERTEX
8
CUT
10
45.6667
20
26.91
0
SEQEND
0
POLYLINE
8
CUT
66
1
70
0
0
VERTEX
8
CUT
10
42.3333
20
31.91
0
VERTEX
8
CUT
10
39
20
30.91
0
VERTEX
8
CUT
10
39
20
27.91
0
VERTEX
8
CUT
10
42.3333
20
26.91
0
SEQEND
0
POLYLINE
8
CUT
66
1
70
0
0
VERTEX
8
CUT
10
56.6667
20
31.91
0
VERTEX
8
CUT
10
60
20
30.91
0
VERTEX
8
CUT
10
60
20
27.91
0
VERTEX
8
CUT
10
56.6667
20
26.91
0
SEQEND
0
POLYLINE
8
CUT
66
1
70
0
0
VERTEX
8
CUT
10
53.3333
20
31.91
0
VERTEX
8
CUT
10
50
20
30.91
0
VERTEX
8
CUT
10
50
20
27.91
0
VERTEX
8
CUT
10
53.3333
20
26.91
0
SEQEND
0
POLYLINE
8
CUT
66
1
70
0
0
VERTEX
8
CUT
10
67.6667
20
31.91
0
VERTEX
8
CUT
10
71
20
30.91
0
VERTEX
8
CUT
10
71
20
27.91
0
VERTEX
8
CUT
10
67.6667
20
26.91
0
SEQEND
0
POLYLINE
8
CUT
66
1
70
0
0
VERTEX
8
CUT
10
64.3333
20
31.91
0
VERTEX
8
CUT
10
61
20
30.91
0
VERTEX
8
CUT
10
61
20
27.91
0
VERTEX
8
CUT
10
64.3333
20
26.91
0
SEQEND
0
POLYLINE
8
CUT
66
1
70
0
0
VERTEX
8
CUT
10
78.6667
20
31.91
0
VERTEX
8
CUT
10
82
20
30.91
0
VERTEX
8
CUT
10
82
20
27.91
0
VERTEX
8
CUT
10
78.6667
20
26.91
0
SEQEND
0
POLYLINE
8
CUT
66
1
70
0
0
VERTEX
8
CUT
10
75.3333
20
31.91
0
VERTEX
8
CUT
10
72
20
30.91
0
VERTEX
8
CUT
10
72
20
27.91
0
VERTEX
8
CUT
10
75.3333
20
26.91
0
SEQEND
0
POLYLINE
8
CUT
66
1
70
0
0
VERTEX
8
CUT
10
89.6667
20
31.91
0
VERTEX
8
CUT
10
93
20
30.91
0
VERTEX
8
CUT
10
93
20
27.91
0
VERTEX
8
CUT
10
89.6667
20
26.91
0
SEQEND
0
POLYLINE
8
CUT
66
1
70
0
0
VERTEX
8
CUT
10
86.3333
20
31.91
0
VERTEX
8
CUT
10
83
20
30.91
0
VERTEX
8
CUT
10
83
20
27.91
0
VERTEX
8
CUT
10
86.3333
20
26.91
0
SEQEND
0
POLYLINE
8
CUT
66
1
70
0
0
VERTEX
8
CUT
10
100.6667
20
31.91
0
VERTEX
8
CUT
10
104
20
30.91
0
VERTEX
8
CUT
10
104
20
27.91
0
VERTEX
8
CUT
10
100.6667
20
26.91
0
SEQEND
0
POLYLINE
8
CUT
66
1
70
0
0
VERTEX
8
CUT
10
97.3333
20
31.91
0
VERTEX
8
CUT
10
94
20
30.91
0
VERTEX
8
CUT
10
94
20
27.91
0
VERTEX
8
CUT
10
97.3333
20
26.91
0
SEQEND
0
POLYLINE
8
CUT
66
1
70
0
0
VERTEX
8
CUT
10
111.6667
20
31.91
0
VERTEX
8
CUT
10
115
20
30.91
0
VERTEX
8
CUT
10
115
20
27.91
0
VERTEX
8
CUT
10
111.6667
20
26.91
0
SEQEND
0
POLYLINE
8
CUT
66
1
70
0
0
VERTEX
8
CUT
10
108.3333
20
31.91
0
VERTEX
8
CUT
10
105
20
30.91
0
VERTEX
8
CUT
10
105
20
27.91
0
VERTEX
8
CUT
10
108.3333
20
26.91
0
SEQEND
0
POLYLINE
8
CUT
66
1
70
0
0
VERTEX
8
CUT
10
119.3333
20
31.91
0
VERTEX
8
CUT
10
116
20
30.91
0
VERTEX
8
CUT
10
116
20
27.91
0
VERTEX
8
CUT
10
119.3333
20
26.91
0
SEQEND
0
POLYLINE
8
CUT
66
1
70
0
0
VERTEX
8
CUT
10
7.1667
20
26.54
0
VERTEX
8
CUT
10
10.5
20
25.54
0
VERTEX
8
CUT
10
10.5
20
22.54
0
VERTEX
8
CUT
10
7.1667
20
21.54
0
SEQEND
0
POLYLINE
8
CUT
66
1
70
0
0
VERTEX
8
CUT
10
3.8333
20
26.54
0
VERTEX
8
CUT
10
0.5
20
25.54
0
VERTEX
8
CUT
10
0.5
20
22.54
0
VERTEX
8
CUT
10
3.8333
20
21.54
0
SEQEND
0
POLYLINE
8
CUT
66
1
70
0
0
VERTEX
8
CUT
10
18.1667
20
26.54
0
VERTEX
8
CUT
10
21.5
20
25.54
0
VERTEX
8
CUT
10
21.5
20
22.54
0
VERTEX
8
CUT
10
18.1667
20
21.54
0
SEQEND
0
POLYLINE
8
CUT
66
1
70
0
0
VERTEX
8
CUT
10
14.8333
20
26.54
0
VERTEX
8
CUT
10
11.5
20
25.54
0
VERTEX
8
CUT
10
11.5
20
22.54
0
VERTEX
8
CUT
10
14.8333
20
21.54
0
SEQEND
0
POLYLINE
8
CUT
66
1
70
0
0
VERTEX
8
CUT
10
29.1667
20
26.54
0
VERTEX
8
CUT
10
32.5
20
25.54
0
VERTEX
8
CUT
10
32.5
20
22.54
0
VERTEX
8
CUT
10
29.1667
20
21.54
0
SEQEND
0
POLYLINE
8
CUT
66
1
70
0
0
VERTEX
8
CUT
10
25.8333
20
26.54
0
VERTEX
8
CUT
10
22.5
20
25.54
0
VERTEX
8
CUT
10
22.5
20
22.54
0
VERTEX
8
CUT
10
25.8333
20
21.54
0
SEQEND
0
POLYLINE
8
CUT
66
1
70
0
0
VERTEX
8
CUT
10
40.1667
20
26.54
0
VERTEX
8
CUT
10
43.5
20
25.54
0
VERTEX
8
CUT
10
43.5
20
22.54
0
VERTEX
8
CUT
10
40.1667
20
21.54
0
SEQEND
0
POLYLINE
8
CUT
66
1
70
0
0
VERTEX
8
CUT
10
36.8333
20
26.54
0
VERTEX
8
CUT
10
33.5
20
25.54
0
VERTEX
8
CUT
10
33.5
20
22.54
0
VERTEX
8
CUT
10
36.8333
20
21.54
0
SEQEND
0
POLYLINE
8
CUT
66
1
70
0
0
VERTEX
8
CUT
10
51.1667
20
26.54
0
VERTEX
8
CUT
10
54.5
20
25.54
0
VERTEX
8
CUT
10
54.5
20
22.54
0
VERTEX
8
CUT
10
51.1667
20
21.54
0
SEQEND
0
POLYLINE
8
CUT
66
1
70
0
0
VERTEX
8
CUT
10
47.8333
20
26.54
0
VERTEX
8
CUT
10
44.5
20
25.54
0
VERTEX
8
CUT
10
44.5
20
22.54
0
VERTEX
8
CUT
10
47.8333
20
21.54
0
SEQEND
0
POLYLINE
8
CUT
66
1
70
0
0
VERTEX
8
CUT
10
62.1667
20
26.54
0
VERTEX
8
CUT
10
65.5
20
25.54
0
VERTEX
8
CUT
10
65.5
20
22.54
0
VERTEX
8
CUT
10
62.1667
20
21.54
0
SEQEND
0
POLYLINE
8
CUT
66
1
70
0
0
VERTEX
8
CUT
10
58.8333
20
26.54
0
VERTEX
8
CUT
10
55.5
20
25.54
0
VERTEX
8
CUT
10
55.5
20
22.54
0
VERTEX
8
CUT
10
58.8333
20
21.54
0
SEQEND
0
POLYLINE
8
CUT
66
1
70
0
0
VERTEX
8
CUT
10
73.1667
20
26.54
0
VERTEX
8
CUT
10
76.5
20
25.54
0
VERTEX
8
CUT
10
76.5
20
22.54
0
VERTEX
8
CUT
10
73.1667
20
21.54
0
SEQEND
0
POLYLINE
8
CUT
66
1
70
0
0
VERTEX
8
CUT
10
69.8333
20
26.54
0
VERTEX
8
CUT
10
66.5
20
25.54
0
VERTEX
8
CUT
10
66.5
20
22.54
0
VERTEX
8
CUT
10
69.8333
20
21.54
0
SEQEND
0
POLYLINE
8
CUT
66
1
70
0
0
VERTEX
8
CUT
10
84.1667
20
26.54
0
VERTEX
8
CUT
10
87.5
20
25.54
0
VERTEX
8
CUT
10
87.5
20
22.54
0
VERTEX
8
CUT
10
84.1667
20
21.54
0
SEQEND
0
POLYLINE
8
CUT
66
1
70
0
0
VERTEX
8
CUT
10
80.8333
20
26.54
0
VERTEX
8
CUT
10
77.5
20
25.54
0
VERTEX
8
CUT
10
77.5
20
22.54
0
VERTEX
8
CUT
10
80.8333
20
21.54
0
SEQEND
0
POLYLINE
8
CUT
66
1
70
0
0
VERTEX
8
CUT
10
95.1667
20
26.54
0
VERTEX
8
CUT
10
98.5
20
25.54
0
VERTEX
8
CUT
10
98.5
20
22.54
0
VERTEX
8
CUT
10
95.1667
20
21.54
0
SEQEND
0
POLYLINE
8
CUT
66
1
70
0
0
VERTEX
8
CUT
10
91.8333
20
26.54
0
VERTEX
8
CUT
10
88.5
20
25.54
0
VERTEX
8
CUT
10
88.5
20
22.54
0
VERTEX
8
CUT
10
91.8333
20
21.54
0
SEQEND
0
POLYLINE
8
CUT
66
1
70
0
0
VERTEX
8
CUT
10
106.1667
20
26.54
0
VERTEX
8
CUT
10
109.5
20
25.54
0
VERTEX
8
CUT
10
109.5
20
22.54
0
VERTEX
8
CUT
10
106.1667
20
21.54
0
SEQEND
0
POLYLINE
8
CUT
66
1
70
0
0
VERTEX
8
CUT
10
102.8333
20
26.54
0
VERTEX
8
CUT
10
99.5
20
25.54
0
VERTEX
8
CUT
10
99.5
20
22.54
0
VERTEX
8
CUT
10
102.8333
20
21.54
0
SEQEND
0
LINE
8
CUT
10
117.1667
20
26.54
11
120
21
25.69
0
LINE
8
CUT
10
120
20
22.39
11
117.1667
21
21.54
0
POLYLINE
8
CUT
66
1
70
0
0
VERTEX
8
CUT
10
113.8333
20
26.54
0
VERTEX
8
CUT
10
110.5
20
25.54
0
VERTEX
8
CUT
10
110.5
20
22.54
0
VERTEX
8
CUT
10
113.8333
20
21.54
0
SEQEND
0
POLYLINE
8
CUT
66
1
70
0
0
VERTEX
8
CUT
10
1.6667
20
21.17
0
VERTEX
8
CUT
10
5
20
20.17
0
VERTEX
8
CUT
10
5
20
17.17
0
VERTEX
8
CUT
10
1.6667
20
16.17
0
SEQEND
0
POLYLINE
8
CUT
66
1
70
0
0
VERTEX
8
CUT
10
12.6667
20
21.17
0
VERTEX
8
CUT
10
16
20
20.17
0
VERTEX
8
CUT
10
16
20
17.17
0
VERTEX
8
CUT
10
12.6667
20
16.17
0
SEQEND
0
POLYLINE
8
CUT
66
1
70
0
0
VERTEX
8
CUT
10
9.3333
20
21.17
0
VERTEX
8
CUT
10
6
20
20.17
0
VERTEX
8
CUT
10
6
20
17.17
0
VERTEX
8
CUT
10
9.3333
20
16.17
0
SEQEND
0
POLYLINE
8
CUT
66
1
70
0
0
VERTEX
8
CUT
10
23.6667
20
21.17
0
VERTEX
8
CUT
10
27
20
20.17
0
VERTEX
8
CUT
10
27
20
17.17
0
VERTEX
8
CUT
10
23.6667
20
16.17
0
SEQEND
0
POLYLINE
8
CUT
66
1
70
0
0
VERTEX
8
CUT
10
20.3333
20
21.17
0
VERTEX
8
CUT
10
17
20
20.17
0
VERTEX
8
CUT
10
17
20
17.17
0
VERTEX
8
CUT
10
20.3333
20
16.17
0
SEQEND
0
POLYLINE
8
CUT
66
1
70
0
0
VERTEX
8
CUT
10
34.6667
20
21.17
0
VERTEX
8
CUT
10
38
20
20.17
0
VERTEX
8
CUT
10
38
20
17.17
0
VERTEX
8
CUT
10
34.6667
20
16.17
0
SEQEND
0
POLYLINE
8
CUT
66
1
70
0
0
VERTEX
8
CUT
10
31.3333
20
21.17
0
VERTEX
8
CUT
10
28
20
20.17
0
VERTEX
8
CUT
10
28
20
17.17
0
VERTEX
8
CUT
10
31.3333
20
16.17
0
SEQEND
0
POLYLINE
8
CUT
66
1
70
0
0
VERTEX
8
CUT
10
45.6667
20
21.17
0
VERTEX
8
CUT
10
49
20
20.17
0
VERTEX
8
CUT
10
49
20
17.17
0
VERTEX
8
CUT
10
45.6667
20
16.17
0
SEQEND
0
POLYLINE
8
CUT
66
1
70
0
0
VERTEX
8
CUT
10
42.3333
20
21.17
0
VERTEX
8
CUT
10
39
20
20.17
0
VERTEX
8
CUT
10
39
20
17.17
0
VERTEX
8
CUT
10
42.3333
20
16.17
0
SEQEND
0
POLYLINE
8
CUT
66
1
70
0
0
VERTEX
8
CUT
10
56.6667
20
21.17
0
VERTEX
8
CUT
10
60
20
20.17
0
VERTEX
8
CUT
10
60
20
17.17
0
VERTEX
8
CUT
10
56.6667
20
16.17
0
SEQEND
0
POLYLINE
8
CUT
66
1
70
0
0
VERTEX
8
CUT
10
53.3333
20
21.17
0
VERTEX
8
CUT
10
50
20
20.17
0
VERTEX
8
CUT
10
50
20
17.17
0
VERTEX
8
CUT
10
53.3333
20
16.17
0
SEQEND
0
POLYLINE
8
CUT
66
1
70
0
0
VERTEX
8
CUT
10
67.6667
20
21.17
0
VERTEX
8
CUT
10
71
20
20.17
0
VERTEX
8
CUT
10
71
20
17.17
0
VERTEX
8
CUT
10
67.6667
20
16.17
0
SEQEND
0
POLYLINE
8
CUT
66
1
70
0
0
VERTEX
8
CUT
10
64.3333
20
21.17
0
VERTEX
8
CUT
10
61
20
20.17
0
VERTEX
8
CUT
10
61
20
17.17
0
VERTEX
8
CUT
10
64.3333
20
16.17
0
SEQEND
0
POLYLINE
8
CUT
66
1
70
0
0
VERTEX
8
CUT
10
78.6667
20
21.17
0
VERTEX
8
CUT
10
82
20
20.17
0
VERTEX
8
CUT
10
82
20
17.17
0
VERTEX
8
CUT
10
78.6667
20
16.17
0
SEQEND
0
POLYLINE
8
CUT
66
1
70
0
0
VERTEX
8
CUT
10
75.3333
20
21.17
0
VERTEX
8
CUT
10
72
20
20.17
0
VERTEX
8
CUT
10
72
20
17.17
0
VERTEX
8
CUT
10
75.3333
20
16.17
0
SEQEND
0
POLYLINE
8
CUT
66
1
70
0
0
VERTEX
8
CUT
10
89.6667
20
21.17
0
VERTEX
8
CUT
10
93
20
20.17
0
VERTEX
8
CUT
10
93
20
17.17
0
VERTEX
8
CUT
10
89.6667
20
16.17
0
SEQEND
0
POLYLINE
8
CUT
66
1
70
0
0
VERTEX
8
CUT
10
86.3333
20
21.17
0
VERTEX
8
CUT
10
83
20
20.17
0
VERTEX
8
CUT
10
83
20
17.17
0
VERTEX
8
CUT
10
86.3333
20
16.17
0
SEQEND
0
POLYLINE
8
CUT
66
1
70
0
0
VERTEX
8
CUT
10
100.6667
20
21.17
0
VERTEX
8
CUT
10
104
20
20.17
0
VERTEX
8
CUT
10
104
20
17.17
0
VERTEX
8
CUT
10
100.6667
20
16.17
0
SEQEND
0
POLYLINE
8
CUT
66
1
70
0
0
VERTEX
8
CUT
10
97.3333
20
21.17
0
VERTEX
8
CUT
10
94
20
20.17
0
VERTEX
8
CUT
10
94
20
17.17
0
VERTEX
8
CUT
10
97.3333
20
16.17
0
SEQEND
0
POLYLINE
8
CUT
66
1
70
0
0
VERTEX
8
CUT
10
111.6667
20
21.17
0
VERTEX
8
CUT
10
115
20
20.17
0
VERTEX
8
CUT
10
115
20
17.17
0
VERTEX
8
CUT
10
111.6667
20
16.17
0
SEQEND
0
POLYLINE
8
CUT
66
1
70
0
0
VERTEX
8
CUT
10
108.3333
20
21.17
0
VERTEX
8
CUT
10
105
20
20.17
0
VERTEX
8
CUT
10
105
20
17.17
0
VERTEX
8
CUT
10
108.3333
20
16.17
0
SEQEND
0
POLYLINE
8
CUT
66
1
70
0
0
VERTEX
8
CUT
10
119.3333
20
21.17
0
VERTEX
8
CUT
10
116
20
20.17
0
VERTEX
8
CUT
10
116
20
17.17
0
VERTEX
8
CUT
10
119.3333
20
16.17
0
SEQEND
0
POLYLINE
8
CUT
66
1
70
0
0
VERTEX
8
CUT
10
7.1667
20
15.8
0
VERTEX
8
CUT
10
10.5
20
14.8
0
VERTEX
8
CUT
10
10.5
20
11.8
0
VERTEX
8
CUT
10
7.1667
20
10.8
0
SEQEND
0
POLYLINE
8
CUT
66
1
70
0
0
VERTEX
8
CUT
10
3.8333
20
15.8
0
VERTEX
8
CUT
10
0.5
20
14.8
0
VERTEX
8
CUT
10
0.5
20
11.8
0
VERTEX
8
CUT
10
3.8333
20
10.8
0
SEQEND
0
POLYLINE
8
CUT
66
1
70
0
0
VERTEX
8
CUT
10
18.1667
20
15.8
0
VERTEX
8
CUT
10
21.5
20
14.8
0
VERTEX
8
CUT
10
21.5
20
11.8
0
VERTEX
8
CUT
10
18.1667
20
10.8
0
SEQEND
0
POLYLINE
8
CUT
66
1
70
0
0
VERTEX
8
CUT
10
14.8333
20
15.8
0
VERTEX
8
CUT
10
11.5
20
14.8
0
VERTEX
8
CUT
10
11.5
20
11.8
0
VERTEX
8
CUT
10
14.8333
20
10.8
0
SEQEND
0
POLYLINE
8
CUT
66
1
70
0
0
VERTEX
8
CUT
10
29.1667
20
15.8
0
VERTEX
8
CUT
10
32.5
20
14.8
0
VERTEX
8
CUT
10
32.5
20
11.8
0
VERTEX
8
CUT
10
29.1667
20
10.8
0
SEQEND
0
POLYLINE
8
CUT
66
1
70
0
0
VERTEX
8
CUT
10
25.8333
20
15.8
0
VERTEX
8
CUT
10
22.5
20
14.8
0
VERTEX
8
CUT
10
22.5
20
11.8
0
VERTEX
8
CUT
10
25.8333
20
10.8
0
SEQEND
0
POLYLINE
8
CUT
66
1
70
0
0
VERTEX
8
CUT
10
40.1667
20
15.8
0
VERTEX
8
CUT
10
43.5
20
14.8
0
VERTEX
8
CUT
10
43.5
20
11.8
0
VERTEX
8
CUT
10
40.1667
20
10.8
0
SEQEND
0
POLYLINE
8
CUT
66
1
70
0
0
VERTEX
8
CUT
10
36.8333
20
15.8
0
VERTEX
8
CUT
10
33.5
20
14.8
0
VERTEX
8
CUT
10
33.5
20
11.8
0
VERTEX
8
CUT
10
36.8333
20
10.8
0
SEQEND
0
POLYLINE
8
CUT
66
1
70
0
0
VERTEX
8
CUT
10
51.1667
20
15.8
0
VERTEX
8
CUT
10
54.5
20
14.8
0
VERTEX
8
CUT
10
54.5
20
11.8
0
VERTEX
8
CUT
10
51.1667
20
10.8
0
SEQEND
0
POLYLINE
8
CUT
66
1
70
0
0
VERTEX
8
CUT
10
47.8333
20
15.8
0
VERTEX
8
CUT
10
44.5
20
14.8
0
VERTEX
8
CUT
10
44.5
20
11.8
0
VERTEX
8
CUT
10
47.8333
20
10.8
0
SEQEND
0
POLYLINE
8
CUT
66
1
70
0
0
VERTEX
8
CUT
10
62.1667
20
15.8
0
VERTEX
8
CUT
10
65.5
20
14.8
0
VERTEX
8
CUT
10
65.5
20
11.8
0
VERTEX
8
CUT
10
62.1667
20
10.8
0
SEQEND
0
POLYLINE
8
CUT
66
1
70
0
0
VERTEX
8
CUT
10
58.8333
20
15.8
0
VERTEX
8
CUT
10
55.5
20
14.8
0
VERTEX
8
CUT
10
55.5
20
11.8
0
VERTEX
8
CUT
10
58.8333
20
10.8
0
SEQEND
0
POLYLINE
8
CUT
66
1
70
0
0
VERTEX
8
CUT
10
73.1667
20
15.8
0
VERTEX
8
CUT
10
76.5
20
14.8
0
VERTEX
8
CUT
10
76.5
20
11.8
0
VERTEX
8
CUT
10
73.1667
20
10.8
0
SEQEND
0
POLYLINE
8
CUT
66
1
70
0
0
VERTEX
8
CUT
10
69.8333
20
15.8
0
VERTEX
8
CUT
10
66.5
20
14.8
0
VERTEX
8
CUT
10
66.5
20
11.8
0
VERTEX
8
CUT
10
69.8333
20
10.8
0
SEQEND
0
POLYLINE
8
CUT
66
1
70
0
0
VERTEX
8
CUT
10
84.1667
20
15.8
0
VERTEX
8
CUT
10
87.5
20
14.8
0
VERTEX
8
CUT
10
87.5
20
11.8
0
VERTEX
8
CUT
10
84.1667
20
10.8
0
SEQEND
0
POLYLINE
8
CUT
66
1
70
0
0
VERTEX
8
CUT
10
80.8333
20
15.8
0
VERTEX
8
CUT
10
77.5
20
14.8
0
VERTEX
8
CUT
10
77.5
20
11.8
0
VERTEX
8
CUT
10
80.8333
20
10.8
0
SEQEND
0
POLYLINE
8
CUT
66
1
70
0
0
VERTEX
8
CUT
10
95.1667
20
15.8
0
VERTEX
8
CUT
10
98.5
20
14.8
0
VERTEX
8
CUT
10
98.5
20
11.8
0
VERTEX
8
CUT
10
95.1667
20
10.8
0
SEQEND
0
POLYLINE
8
CUT
66
1
70
0
0
VERTEX
8
CUT
10
91.8333
20
15.8
0
VERTEX
8
CUT
10
88.5
20
14.8
0
VERTEX
8
CUT
10
88.5
20
11.8
0
VERTEX
8
CUT
10
91.8333
20
10.8
0
SEQEND
0
POLYLINE
8
CUT
66
1
70
0
0
VERTEX
8
CUT
10
106.1667
20
15.8
0
VERTEX
8
CUT
10
109.5
20
14.8
0
VERTEX
8
CUT
10
109.5
20
11.8
0
VERTEX
8
CUT
10
106.1667
20
10.8
0
SEQEND
0
POLYLINE
8
CUT
66
1
70
0
0
VERTEX
8
CUT
10
102.8333
20
15.8
0
VERTEX
8
CUT
10
99.5
20
14.8
0
VERTEX
8
CUT
10
99.5
20
11.8
0
VERTEX
8
CUT
10
102.8333
20
10.8
0
SEQEND
0
LINE
8
CUT
10
117.1667
20
15.8
11
120
21
14.95
0
LINE
8
CUT
10
120
20
11.65
11
117.1667
21
10.8
0
POLYLINE
8
CUT
66
1
70
0
0
VERTEX
8
CUT
10
113.8333
20
15.8
0
VERTEX
8
CUT
10
110.5
20
14.8
0
VERTEX
8
CUT
10
110.5
20
11.8
0
VERTEX
8
CUT
10
113.8333
20
10.8
0
SEQEND
0
POLYLINE
8
CUT
66
1
70
0
0
VERTEX
8
CUT
10
1.6667
20
10.43
0
VERTEX
8
CUT
10
5
20
9.43
0
VERTEX
8
CUT
10
5
20
6.43
0
VERTEX
8
CUT
10
1.6667
20
5.43
0
SEQEND
0
POLYLINE
8
CUT
66
1
70
0
0
VERTEX
8
CUT
10
12.6667
20
10.43
0
VERTEX
8
CUT
10
16
20
9.43
0
VERTEX
8
CUT
10
16
20
6.43
0
VERTEX
8
CUT
10
12.6667
20
5.43
0
SEQEND
0
POLYLINE
8
CUT
66
1
70
0
0
VERTEX
8
CUT
10
9.3333
20
10.43
0
VERTEX
8
CUT
10
6
20
9.43
0
VERTEX
8
CUT
10
6
20
6.43
0
VERTEX
8
CUT
10
9.3333
20
5.43
0
SEQEND
0
POLYLINE
8
CUT
66
1
70
0
0
VERTEX
8
CUT
10
23.6667
20
10.43
0
VERTEX
8
CUT
10
27
20
9.43
0
VERTEX
8
CUT
10
27
20
6.43
0
VERTEX
8
CUT
10
23.6667
20
5.43
0
SEQEND
0
POLYLINE
8
CUT
66
1
70
0
0
VERTEX
8
CUT
10
20.3333
20
10.43
0
VERTEX
8
CUT
10
17
20
9.43
0
VERTEX
8
CUT
10
17
20
6.43
0
VERTEX
8
CUT
10
20.3333
20
5.43
0
SEQEND
0
POLYLINE
8
CUT
66
1
70
0
0
VERTEX
8
CUT
10
34.6667
20
10.43
0
VERTEX
8
CUT
10
38
20
9.43
0
VERTEX
8
CUT
10
38
20
6.43
0
VERTEX
8
CUT
10
34.6667
20
5.43
0
SEQEND
0
POLYLINE
8
CUT
66
1
70
0
0
VERTEX
8
CUT
10
31.3333
20
10.43
0
VERTEX
8
CUT
10
28
20
9.43
0
VERTEX
8
CUT
10
28
20
6.43
0
VERTEX
8
CUT
10
31.3333
20
5.43
0
SEQEND
0
POLYLINE
8
CUT
66
1
70
0
0
VERTEX
8
CUT
10
45.6667
20
10.43
0
VERTEX
8
CUT
10
49
20
9.43
0
VERTEX
8
CUT
10
49
20
6.43
0
VERTEX
8
CUT
10
45.6667
20
5.43
0
SEQEND
0
POLYLINE
8
CUT
66
1
70
0
0
VERTEX
8
CUT
10
42.3333
20
10.43
0
VERTEX
8
CUT
10
39
20
9.43
0
VERTEX
8
CUT
10
39
20
6.43
0
VERTEX
8
CUT
10
42.3333
20
5.43
0
SEQEND
0
POLYLINE
8
CUT
66
1
70
0
0
VERTEX
8
CUT
10
56.6667
20
10.43
0
VERTEX
8
CUT
10
60
20
9.43
0
VERTEX
8
CUT
10
60
20
6.43
0
VERTEX
8
CUT
10
56.6667
20
5.43
0
SEQEND
0
POLYLINE
8
CUT
66
1
70
0
0
VERTEX
8
CUT
10
53.3333
20
10.43
0
VERTEX
8
CUT
10
50
20
9.43
0
VERTEX
8
CUT
10
50
20
6.43
0
VERTEX
8
CUT
10
53.3333
20
5.43
0
SEQEND
0
POLYLINE
8
CUT
66
1
70
0
0
VERTEX
8
CUT
10
67.6667
20
10.43
0
VERTEX
8
CUT
10
71
20
9.43
0
VERTEX
8
CUT
10
71
20
6.43
0
VERTEX
8
CUT
10
67.6667
20
5.43
0
SEQEND
0
POLYLINE
8
CUT
66
1
70
0
0
VERTEX
8
CUT
10
64.3333
20
10.43
0
VERTEX
8
CUT
10
61
20
9.43
0
VERTEX
8
CUT
10
61
20
6.43
0
VERTEX
8
CUT
10
64.3333
20
5.43
0
SEQEND
0
POLYLINE
8
CUT
66
1
70
0
0
VERTEX
8
CUT
10
78.6667
20
10.43
0
VERTEX
8
CUT
10
82
20
9.43
0
VERTEX
8
CUT
10
82
20
6.43
0
VERTEX
8
CUT
10
78.6667
20
5.43
0
SEQEND
0
POLYLINE
8
CUT
66
1
70
0
0
VERTEX
8
CUT
10
75.3333
20
10.43
0
VERTEX
8
CUT
10
72
20
9.43
0
VERTEX
8
CUT
10
72
20
6.43
0
VERTEX
8
CUT
10
75.3333
20
5.43
0
SEQEND
0
POLYLINE
8
CUT
66
1
70
0
0
VERTEX
8
CUT
10
89.6667
20
10.43
0
VERTEX
8
CUT
10
93
20
9.43
0
VERTEX
8
CUT
10
93
20
6.43
0
VERTEX
8
CUT
10
89.6667
20
5.43
0
SEQEND
0
POLYLINE
8
CUT
66
1
70
0
0
VERTEX
8
CUT
10
86.3333
20
10.43
0
VERTEX
8
CUT
10
83
20
9.43
0
VERTEX
8
CUT
10
83
20
6.43
0
VERTEX
8
CUT
10
86.3333
20
5.43
0
SEQEND
0
POLYLINE
8
CUT
66
1
70
0
0
VERTEX
8
CUT
10
100.6667
20
10.43
0
VERTEX
8
CUT
10
104
20
9.43
0
VERTEX
8
CUT
10
104
20
6.43
0
VERTEX
8
CUT
10
100.6667
20
5.43
0
SEQEND
0
POLYLINE
8
CUT
66
1
70
0
0
VERTEX
8
CUT
10
97.3333
20
10.43
0
VERTEX
8
CUT
10
94
20
9.43
0
VERTEX
8
CUT
10
94
20
6.43
0
VERTEX
8
CUT
10
97.3333
20
5.43
0
SEQEND
0
POLYLINE
8
CUT
66
1
70
0
0
VERTEX
8
CUT
10
111.6667
20
10.43
0
VERTEX
8
CUT
10
115
20
9.43
0
VERTEX
8
CUT
10
115
20
6.43
0
VERTEX
8
CUT
10
111.6667
20
5.43
0
SEQEND
0
POLYLINE
8
CUT
66
1
70
0
0
VERTEX
8
CUT
10
108.3333
20
10.43
0
VERTEX
8
CUT
10
105
20
9.43
0
VERTEX
8
CUT
10
105
20
6.43
0
VERTEX
8
CUT
10
108.3333
20
5.43
0
SEQEND
0
POLYLINE
8
CUT
66
1
70
0
0
VERTEX
8
CUT
10
119.3333
20
10.43
0
VERTEX
8
CUT
10
116
20
9.43
0
VERTEX
8
CUT
10
116
20
6.43
0
VERTEX
8
CUT
10
119.3333
20
5.43
0
SEQEND
0
POLYLINE
8
CUT
66
1
70
0
0
VERTEX
8
CUT
10
7.1667
20
5.06
0
VERTEX
8
CUT
10
10.5
20
4.06
0
VERTEX
8
CUT
10
10.5
20
1.06
0
VERTEX
8
CUT
10
7.1667
20
0.06
0
SEQEND
0
POLYLINE
8
CUT
66
1
70
0
0
VERTEX
8
CUT
10
3.8333
20
5.06
0
VERTEX
8
CUT
10
0.5
20
4.06
0
VERTEX
8
CUT
10
0.5
20
1.06
0
VERTEX
8
CUT
10
3.8333
20
0.06
0
SEQEND
0
POLYLINE
8
CUT
66
1
70
0
0
VERTEX
8
CUT
10
18.1667
20
5.06
0
VERTEX
8
CUT
10
21.5
20
4.06
0
VERTEX
8
CUT
10
21.5
20
1.06
0
VERTEX
8
CUT
10
18.1667
20
0.06
0
SEQEND
0
POLYLINE
8
CUT
66
1
70
0
0
VERTEX
8
CUT
10
14.8333
20
5.06
0
VERTEX
8
CUT
10
11.5
20
4.06
0
VERTEX
8
CUT
10
11.5
20
1.06
0
VERTEX
8
CUT
10
14.8333
20
0.06
0
SEQEND
0
POLYLINE
8
CUT
66
1
70
0
0
VERTEX
8
CUT
10
29.1667
20
5.06
0
VERTEX
8
CUT
10
32.5
20
4.06
0
VERTEX
8
CUT
10
32.5
20
1.06
0
VERTEX
8
CUT
10
29.1667
20
0.06
0
SEQEND
0
POLYLINE
8
CUT
66
1
70
0
0
VERTEX
8
CUT
10
25.8333
20
5.06
0
VERTEX
8
CUT
10
22.5
20
4.06
0
VERTEX
8
CUT
10
22.5
20
1.06
0
VERTEX
8
CUT
10
25.8333
20
0.06
0
SEQEND
0
POLYLINE
8
CUT
66
1
70
0
0
VERTEX
8
CUT
10
40.1667
20
5.06
0
VERTEX
8
CUT
10
43.5
20
4.06
0
VERTEX
8
CUT
10
43.5
20
1.06
0
VERTEX
8
CUT
10
40.1667
20
0.06
0
SEQEND
0
POLYLINE
8
CUT
66
1
70
0
0
VERTEX
8
CUT
10
36.8333
20
5.06
0
VERTEX
8
CUT
10
33.5
20
4.06
0
VERTEX
8
CUT
10
33.5
20
1.06
0
VERTEX
8
CUT
10
36.8333
20
0.06
0
SEQEND
0
POLYLINE
8
CUT
66
1
70
0
0
VERTEX
8
CUT
10
51.1667
20
5.06
0
VERTEX
8
CUT
10
54.5
20
4.06
0
VERTEX
8
CUT
10
54.5
20
1.06
0
VERTEX
8
CUT
10
51.1667
20
0.06
0
SEQEND
0
POLYLINE
8
CUT
66
1
70
0
0
VERTEX
8
CUT
10
47.8333
20
5.06
0
VERTEX
8
CUT
10
44.5
20
4.06
0
VERTEX
8
CUT
10
44.5
20
1.06
0
VERTEX
8
CUT
10
47.8333
20
0.06
0
SEQEND
0
POLYLINE
8
CUT
66
1
70
0
0
VERTEX
8
CUT
10
62.1667
20
5.06
0
VERTEX
8
CUT
10
65.5
20
4.06
0
VERTEX
8
CUT
10
65.5
20
1.06
0
VERTEX
8
CUT
10
62.1667
20
0.06
0
SEQEND
0
POLYLINE
8
CUT
66
1
70
0
0
VERTEX
8
CUT
10
58.8333
20
5.06
0
VERTEX
8
CUT
10
55.5
20
4.06
0
VERTEX
8
CUT
10
55.5
20
1.06
0
VERTEX
8
CUT
10
58.8333
20
0.06
0
SEQEND
0
POLYLINE
8
CUT
66
1
70
0
0
VERTEX
8
CUT
10
73.1667
20
5.06
0
VERTEX
8
CUT
10
76.5
20
4.06
0
VERTEX
8
CUT
10
76.5
20
1.06
0
VERTEX
8
CUT
10
73.1667
20
0.06
0
SEQEND
0
POLYLINE
8
CUT
66
1
70
0
0
VERTEX
8
CUT
10
69.8333
20
5.06
0
VERTEX
8
CUT
10
66.5
20
4.06
0
VERTEX
8
CUT
10
66.5
20
1.06
0
VERTEX
8
CUT
10
69.8333
20
0.06
0
SEQEND
0
POLYLINE
8
CUT
66
1
70
0
0
VERTEX
8
CUT
10
84.1667
20
5.06
0
VERTEX
8
CUT
10
87.5
20
4.06
0
VERTEX
8
CUT
10
87.5
20
1.06
0
VERTEX
8
CUT
10
84.1667
20
0.06
0
SEQEND
0
POLYLINE
8
CUT
66
1
70
0
0
VERTEX
8
CUT
10
80.8333
20
5.06
0
VERTEX
8
CUT
10
77.5
20
4.06
0
VERTEX
8
CUT
10
77.5
20
1.06
0
VERTEX
8
CUT
10
80.8333
20
0.06
0
SEQEND
0
POLYLINE
8
CUT
66
1
70
0
0
VERTEX
8
CUT
10
95.1667
20
5.06
0
VERTEX
8
CUT
10
98.5
20
4.06
0
VERTEX
8
CUT
10
98.5
20
1.06
0
VERTEX
8
CUT
10
95.1667
20
0.06
0
SEQEND
0
POLYLINE
8
CUT
66
1
70
0
0
VERTEX
8
CUT
10
91.8333
20
5.06
0
VERTEX
8
CUT
10
88.5
20
4.06
0
VERTEX
8
CUT
10
88.5
20
1.06
0
VERTEX
8
CUT
10
91.8333
20
0.06
0
SEQEND
0
POLYLINE
8
CUT
66
1
70
0
0
VERTEX
8
CUT
10
106.1667
20
5.06
0
VERTEX
8
CUT
10
109.5
20
4.06
0
VERTEX
8
CUT
10
109.5
20
1.06
0
VERTEX
8
CUT
10
106.1667
20
0.06
0
SEQEND
0
POLYLINE
8
CUT
66
1
70
0
0
VERTEX
8
CUT
10
102.8333
20
5.06
0
VERTEX
8
CUT
10
99.5
20
4.06
0
VERTEX
8
CUT
10
99.5
20
1.06
0
VERTEX
8
CUT
10
102.8333
20
0.06
0
SEQEND
0
LINE
8
CUT
10
117.1667
20
5.06
11
120
21
4.21
0
LINE
8
CUT
10
120
20
0.91
11
117.1667
21
0.06
0
POLYLINE
8
CUT
66
1
70
0
0
VERTEX
8
CUT
10
113.8333
20
5.06
0
VERTEX
8
CUT
10
110.5
20
4.06
0
VERTEX
8
CUT
10
110.5
20
1.06
0
VERTEX
8
CUT
10
113.8333
20
0.06
0
SEQEND
0
POLYLINE
8
CUT
66
1
70
0
0
VERTEX
8
CUT
10
0
20
70
0
VERTEX
8
CUT
10
120
20
70
0
VERTEX
8
CUT
10
120
20
0
0
VERTEX
8
CUT
10
0
20
0
0
VERTEX
8
CUT
10
0
20
70
0
SEQEND
0
ENDSEC
0
EOF
