0
SECTION
2
HEADER
9
$ACADVER
1
AC1009
9
$INSUNITS
70
4
0
ENDSEC
0
SECTION
2
TABLES
0
TABLE
2
LAYER
70
1
0
LAYER
2
CUT
70
0
62
1
6
CONTINUOUS
0
ENDTAB
0
ENDSEC
0
SECTION
2
ENTITIES
0
LINE
8
CUT
10
0.1786
20
70
11
0
21
69.7526
0
LINE
8
CUT
10
0.6911
20
69.4631
11
0
21
68.5055
0
LINE
8
CUT
10
0.23
20
63.5287
11
0
21
63.21
0
LINE
8
CUT
10
0
20
63.8474
11
0.23
21
63.5287
0
LINE
8
CUT
10
0.6911
20
62.9206
11
0
21
61.9629
0
LINE
8
CUT
10
0
20
65.0945
11
0.755
21
64.0483
0
LINE
8
CUT
10
0.23
20
56.9862
11
0
21
56.6675
0
LINE
8
CUT
10
0
20
57.3049
11
0.23
21
56.9862
0
LINE
8
CUT
10
0.6911
20
56.378
11
0
21
55.4204
0
LINE
8
CUT
10
0
20
58.5519
11
0.755
21
57.5058
0
LINE
8
CUT
10
0.23
20
50.4436
11
0
21
50.1249
0
LINE
8
CUT
10
0
20
50.7623
11
0.23
21
50.4436
0
LINE
8
CUT
10
0.6911
20
49.8354
11
0
21
48.8778
0
LINE
8
CUT
10
0
20
52.0094
11
0.755
21
50.9632
0
LINE
8
CUT
10
0.23
20
43.901
11
0
21
43.5823
0
LINE
8
CUT
10
0
20
44.2197
11
0.23
21
43.901
0
LINE
8
CUT
10
0.6911
20
43.2929
11
0
21
42.3353
0
LINE
8
CUT
10
0
20
45.4668
11
0.755
21
44.4206
0
LINE
8
CUT
10
0.23
20
37.3585
11
0
21
37.0398
0
LINE
8
CUT
10
0
20
37.6772
11
0.23
21
37.3585
0
LINE
8
CUT
10
0.6911
20
36.7503
11
0
21
35.7927
0
LINE
8
CUT
10
0
20
38.9242
11
0.755
21
37.8781
0
LINE
8
CUT
10
0.23
20
30.8159
11
0
21
30.4972
0
LINE
8
CUT
10
0
20
31.1346
11
0.23
21
30.8159
0
LINE
8
CUT
10
0.6911
20
30.2077
11
0
21
29.2501
0
LINE
8
CUT
10
0
20
32.3817
11
0.755
21
31.3355
0
LINE
8
CUT
10
0.23
20
24.2733
11
0
21
23.9546
0
LINE
8
CUT
10
0
20
24.592
11
0.23
21
24.2733
0
LINE
8
CUT
10
0.6911
20
23.6652
11
0
21
22.7076
0
LINE
8
CUT
10
0
20
25.8391
11
0.755
21
24.793
0
LINE
8
CUT
10
0.23
20
17.7308
11
0
21
17.4121
0
LINE
8
CUT
10
0
20
18.0495
11
0.23
21
17.7308
0
LINE
8
CUT
10
0.6911
20
17.1226
11
0
21
16.165
0
LINE
8
CUT
10
0
20
19.2966
11
0.755
21
18.2504
0
LINE
8
CUT
10
0.23
20
11.1882
11
0
21
10.8695
0
LINE
8
CUT
10
0
20
11.5069
11
0.23
21
11.1882
0
LINE
8
CUT
10
0.6911
20
10.5801
11
0
21
9.6224
0
LINE
8
CUT
10
0
20
12.754
11
0.755
21
11.7078
0
LINE
8
CUT
10
0.23
20
4.6457
11
0
21
4.327
0
LINE
8
CUT
10
0
20
4.9644
11
0.23
21
4.6457
0
LINE
8
CUT
10
0.6911
20
4.0375
11
0
21
3.0799
0
LINE
8
CUT
10
0
20
6.2114
11
0.755
21
5.1653
0
POLYLINE
8
CUT
66
1
70
0
0
VERTEX
8
CUT
10
7.1
20
66.8
0
VERTEX
8
CUT
10
5.55
20
64.6523
0
VERTEX
8
CUT
10
2.45
20
64.6523
0
VERTEX
8
CUT
10
0.9
20
66.8
0
VERTEX
8
CUT
10
2.45
20
68.9477
0
VERTEX
8
CUT
10
5.55
20
68.9477
0
VERTEX
8
CUT
10
7.1
20
66.8
0
SEQEND
0
POLYLINE
8
CUT
66
1
70
0
0
VERTEX
8
CUT
10
7.5611
20
66.1918
0
VERTEX
8
CUT
10
6
20
64.0287
0
VERTEX
8
CUT
10
2.8778
20
64.0287
0
SEQEND
0
POLYLINE
8
CUT
66
1
70
0
0
VERTEX
8
CUT
10
1.5611
20
64.6369
0
VERTEX
8
CUT
10
0
20
66.8
0
VERTEX
8
CUT
10
1.5611
20
68.9631
0
SEQEND
0
POLYLINE
8
CUT
66
1
70
0
0
VERTEX
8
CUT
10
2.75
20
69.5713
0
VERTEX
8
CUT
10
6
20
69.5713
0
VERTEX
8
CUT
10
7.625
20
67.3196
0
SEQEND
0
POLYLINE
8
CUT
66
1
70
0
0
VERTEX
8
CUT
10
7.1
20
60.2574
0
VERTEX
8
CUT
10
5.55
20
58.1097
0
VERTEX
8
CUT
10
2.45
20
58.1097
0
VERTEX
8
CUT
10
0.9
20
60.2574
0
VERTEX
8
CUT
10
2.45
20
62.4052
0
VERTEX
8
CUT
10
5.55
20
62.4052
0
VERTEX
8
CUT
10
7.1
20
60.2574
0
SEQEND
0
POLYLINE
8
CUT
66
1
70
0
0
VERTEX
8
CUT
10
7.5611
20
59.6493
0
VERTEX
8
CUT
10
6
20
57.4862
0
VERTEX
8
CUT
10
2.8778
20
57.4862
0
SEQEND
0
POLYLINE
8
CUT
66
1
70
0
0
VERTEX
8
CUT
10
1.5611
20
58.0943
0
VERTEX
8
CUT
10
0
20
60.2574
0
VERTEX
8
CUT
10
1.5611
20
62.4206
0
SEQEND
0
POLYLINE
8
CUT
66
1
70
0
0
VERTEX
8
CUT
10
2.75
20
63.0287
0
VERTEX
8
CUT
10
6
20
63.0287
0
VERTEX
8
CUT
10
7.625
20
60.7771
0
SEQEND
0
POLYLINE
8
CUT
66
1
70
0
0
VERTEX
8
CUT
10
7.1
20
53.7149
0
VERTEX
8
CUT
10
5.55
20
51.5671
0
VERTEX
8
CUT
10
2.45
20
51.5671
0
VERTEX
8
CUT
10
0.9
20
53.7149
0
VERTEX
8
CUT
10
2.45
20
55.8626
0
VERTEX
8
CUT
10
5.55
20
55.8626
0
VERTEX
8
CUT
10
7.1
20
53.7149
0
SEQEND
0
POLYLINE
8
CUT
66
1
70
0
0
VERTEX
8
CUT
10
7.5611
20
53.1067
0
VERTEX
8
CUT
10
6
20
50.9436
0
VERTEX
8
CUT
10
2.8778
20
50.9436
0
SEQEND
0
POLYLINE
8
CUT
66
1
70
0
0
VERTEX
8
CUT
10
1.5611
20
51.5518
0
VERTEX
8
CUT
10
0
20
53.7149
0
VERTEX
8
CUT
10
1.5611
20
55.878
0
SEQEND
0
POLYLINE
8
CUT
66
1
70
0
0
VERTEX
8
CUT
10
2.75
20
56.4862
0
VERTEX
8
CUT
10
6
20
56.4862
0
VERTEX
8
CUT
10
7.625
20
54.2345
0
SEQEND
0
POLYLINE
8
CUT
66
1
70
0
0
VERTEX
8
CUT
10
7.1
20
47.1723
0
VERTEX
8
CUT
10
5.55
20
45.0246
0
VERTEX
8
CUT
10
2.45
20
45.0246
0
VERTEX
8
CUT
10
0.9
20
47.1723
0
VERTEX
8
CUT
10
2.45
20
49.3201
0
VERTEX
8
CUT
10
5.55
20
49.3201
0
VERTEX
8
CUT
10
7.1
20
47.1723
0
SEQEND
0
POLYLINE
8
CUT
66
1
70
0
0
VERTEX
8
CUT
10
7.5611
20
46.5641
0
VERTEX
8
CUT
10
6
20
44.401
0
VERTEX
8
CUT
10
2.8778
20
44.401
0
SEQEND
0
POLYLINE
8
CUT
66
1
70
0
0
VERTEX
8
CUT
10
1.5611
20
45.0092
0
VERTEX
8
CUT
10
0
20
47.1723
0
VERTEX
8
CUT
10
1.5611
20
49.3354
0
SEQEND
0
POLYLINE
8
CUT
66
1
70
0
0
VERTEX
8
CUT
10
2.75
20
49.9436
0
VERTEX
8
CUT
10
6
20
49.9436
0
VERTEX
8
CUT
10
7.625
20
47.6919
0
SEQEND
0
POLYLINE
8
CUT
66
1
70
0
0
VERTEX
8
CUT
10
7.1
20
40.6297
0
VERTEX
8
CUT
10
5.55
20
38.482
0
VERTEX
8
CUT
10
2.45
20
38.482
0
VERTEX
8
CUT
10
0.9
20
40.6297
0
VERTEX
8
CUT
10
2.45
20
42.7775
0
VERTEX
8
CUT
10
5.55
20
42.7775
0
VERTEX
8
CUT
10
7.1
20
40.6297
0
SEQEND
0
POLYLINE
8
CUT
66
1
70
0
0
VERTEX
8
CUT
10
7.5611
20
40.0216
0
VERTEX
8
CUT
10
6
20
37.8585
0
VERTEX
8
CUT
10
2.8778
20
37.8585
0
SEQEND
0
POLYLINE
8
CUT
66
1
70
0
0
VERTEX
8
CUT
10
1.5611
20
38.4666
0
VERTEX
8
CUT
10
0
20
40.6297
0
VERTEX
8
CUT
10
1.5611
20
42.7929
0
SEQEND
0
POLYLINE
8
CUT
66
1
70
0
0
VERTEX
8
CUT
10
2.75
20
43.401
0
VERTEX
8
CUT
10
6
20
43.401
0
VERTEX
8
CUT
10
7.625
20
41.1494
0
SEQEND
0
POLYLINE
8
CUT
66
1
70
0
0
VERTEX
8
CUT
10
7.1
20
34.0872
0
VERTEX
8
CUT
10
5.55
20
31.9394
0
VERTEX
8
CUT
10
2.45
20
31.9394
0
VERTEX
8
CUT
10
0.9
20
34.0872
0
VERTEX
8
CUT
10
2.45
20
36.2349
0
VERTEX
8
CUT
10
5.55
20
36.2349
0
VERTEX
8
CUT
10
7.1
20
34.0872
0
SEQEND
0
POLYLINE
8
CUT
66
1
70
0
0
VERTEX
8
CUT
10
7.5611
20
33.479
0
VERTEX
8
CUT
10
6
20
31.3159
0
VERTEX
8
CUT
10
2.8778
20
31.3159
0
SEQEND
0
POLYLINE
8
CUT
66
1
70
0
0
VERTEX
8
CUT
10
1.5611
20
31.9241
0
VERTEX
8
CUT
10
0
20
34.0872
0
VERTEX
8
CUT
10
1.5611
20
36.2503
0
SEQEND
0
POLYLINE
8
CUT
66
1
70
0
0
VERTEX
8
CUT
10
2.75
20
36.8585
0
VERTEX
8
CUT
10
6
20
36.8585
0
VERTEX
8
CUT
10
7.625
20
34.6068
0
SEQEND
0
POLYLINE
8
CUT
66
1
70
0
0
VERTEX
8
CUT
10
7.1
20
27.5446
0
VERTEX
8
CUT
10
5.55
20
25.3969
0
VERTEX
8
CUT
10
2.45
20
25.3969
0
VERTEX
8
CUT
10
0.9
20
27.5446
0
VERTEX
8
CUT
10
2.45
20
29.6924
0
VERTEX
8
CUT
10
5.55
20
29.6924
0
VERTEX
8
CUT
10
7.1
20
27.5446
0
SEQEND
0
POLYLINE
8
CUT
66
1
70
0
0
VERTEX
8
CUT
10
7.5611
20
26.9365
0
VERTEX
8
CUT
10
6
20
24.7733
0
VERTEX
8
CUT
10
2.8778
20
24.7733
0
SEQEND
0
POLYLINE
8
CUT
66
1
70
0
0
VERTEX
8
CUT
10
1.5611
20
25.3815
0
VERTEX
8
CUT
10
0
20
27.5446
0
VERTEX
8
CUT
10
1.5611
20
29.7077
0
SEQEND
0
POLYLINE
8
CUT
66
1
70
0
0
VERTEX
8
CUT
10
2.75
20
30.3159
0
VERTEX
8
CUT
10
6
20
30.3159
0
VERTEX
8
CUT
10
7.625
20
28.0642
0
SEQEND
0
POLYLINE
8
CUT
66
1
70
0
0
VERTEX
8
CUT
10
7.1
20
21.0021
0
VERTEX
8
CUT
10
5.55
20
18.8543
0
VERTEX
8
CUT
10
2.45
20
18.8543
0
VERTEX
8
CUT
10
0.9
20
21.0021
0
VERTEX
8
CUT
10
2.45
20
23.1498
0
VERTEX
8
CUT
10
5.55
20
23.1498
0
VERTEX
8
CUT
10
7.1
20
21.0021
0
SEQEND
0
POLYLINE
8
CUT
66
1
70
0
0
VERTEX
8
CUT
10
7.5611
20
20.3939
0
VERTEX
8
CUT
10
6
20
18.2308
0
VERTEX
8
CUT
10
2.8778
20
18.2308
0
SEQEND
0
POLYLINE
8
CUT
66
1
70
0
0
VERTEX
8
CUT
10
1.5611
20
18.8389
0
VERTEX
8
CUT
10
0
20
21.0021
0
VERTEX
8
CUT
10
1.5611
20
23.1652
0
SEQEND
0
POLYLINE
8
CUT
66
1
70
0
0
VERTEX
8
CUT
10
2.75
20
23.7733
0
VERTEX
8
CUT
10
6
20
23.7733
0
VERTEX
8
CUT
10
7.625
20
21.5217
0
SEQEND
0
POLYLINE
8
CUT
66
1
70
0
0
VERTEX
8
CUT
10
7.1
20
14.4595
0
VERTEX
8
CUT
10
5.55
20
12.3118
0
VERTEX
8
CUT
10
2.45
20
12.3118
0
VERTEX
8
CUT
10
0.9
20
14.4595
0
VERTEX
8
CUT
10
2.45
20
16.6072
0
VERTEX
8
CUT
10
5.55
20
16.6072
0
VERTEX
8
CUT
10
7.1
20
14.4595
0
SEQEND
0
POLYLINE
8
CUT
66
1
70
0
0
VERTEX
8
CUT
10
7.5611
20
13.8513
0
VERTEX
8
CUT
10
6
20
11.6882
0
VERTEX
8
CUT
10
2.8778
20
11.6882
0
SEQEND
0
POLYLINE
8
CUT
66
1
70
0
0
VERTEX
8
CUT
10
1.5611
20
12.2964
0
VERTEX
8
CUT
10
0
20
14.4595
0
VERTEX
8
CUT
10
1.5611
20
16.6226
0
SEQEND
0
POLYLINE
8
CUT
66
1
70
0
0
VERTEX
8
CUT
10
2.75
20
17.2308
0
VERTEX
8
CUT
10
6
20
17.2308
0
VERTEX
8
CUT
10
7.625
20
14.9791
0
SEQEND
0
POLYLINE
8
CUT
66
1
70
0
0
VERTEX
8
CUT
10
7.1
20
7.9169
0
VERTEX
8
CUT
10
5.55
20
5.7692
0
VERTEX
8
CUT
10
2.45
20
5.7692
0
VERTEX
8
CUT
10
0.9
20
7.9169
0
VERTEX
8
CUT
10
2.45
20
10.0647
0
VERTEX
8
CUT
10
5.55
20
10.0647
0
VERTEX
8
CUT
10
7.1
20
7.9169
0
SEQEND
0
POLYLINE
8
CUT
66
1
70
0
0
VERTEX
8
CUT
10
7.5611
20
7.3088
0
VERTEX
8
CUT
10
6
20
5.1457
0
VERTEX
8
CUT
10
2.8778
20
5.1457
0
SEQEND
0
POLYLINE
8
CUT
66
1
70
0
0
VERTEX
8
CUT
10
1.5611
20
5.7538
0
VERTEX
8
CUT
10
0
20
7.9169
0
VERTEX
8
CUT
10
1.5611
20
10.0801
0
SEQEND
0
POLYLINE
8
CUT
66
1
70
0
0
VERTEX
8
CUT
10
2.75
20
10.6882
0
VERTEX
8
CUT
10
6
20
10.6882
0
VERTEX
8
CUT
10
7.625
20
8.4366
0
SEQEND
0
LINE
8
CUT
10
7.1
20
1.3744
11
6.1081
21
0
0
POLYLINE
8
CUT
66
1
70
0
0
VERTEX
8
CUT
10
1.8919
20
0
0
VERTEX
8
CUT
10
0.9
20
1.3744
0
VERTEX
8
CUT
10
2.45
20
3.5221
0
VERTEX
8
CUT
10
5.55
20
3.5221
0
VERTEX
8
CUT
10
7.1
20
1.3744
0
SEQEND
0
LINE
8
CUT
10
7.5611
20
0.7662
11
7.0081
21
0
0
POLYLINE
8
CUT
66
1
70
0
0
VERTEX
8
CUT
10
0.9919
20
0
0
VERTEX
8
CUT
10
0
20
1.3744
0
VERTEX
8
CUT
10
1.5611
20
3.5375
0
SEQEND
0
POLYLINE
8
CUT
66
1
70
0
0
VERTEX
8
CUT
10
2.75
20
4.1457
0
VERTEX
8
CUT
10
6
20
4.1457
0
VERTEX
8
CUT
10
7.625
20
1.894
0
SEQEND
0
POLYLINE
8
CUT
66
1
70
0
0
VERTEX
8
CUT
10
13.9186
20
70
0
VERTEX
8
CUT
10
12.42
20
67.9235
0
VERTEX
8
CUT
10
9.32
20
67.9235
0
VERTEX
8
CUT
10
7.8214
20
70
0
SEQEND
0
POLYLINE
8
CUT
66
1
70
0
0
VERTEX
8
CUT
10
14.4311
20
69.4631
0
VERTEX
8
CUT
10
12.87
20
67.3
0
VERTEX
8
CUT
10
9.7478
20
67.3
0
SEQEND
0
LINE
8
CUT
10
8.4311
20
67.9082
11
6.9214
21
70
0
POLYLINE
8
CUT
66
1
70
0
0
VERTEX
8
CUT
10
13.97
20
63.5287
0
VERTEX
8
CUT
10
12.42
20
61.381
0
VERTEX
8
CUT
10
9.32
20
61.381
0
VERTEX
8
CUT
10
7.77
20
63.5287
0
VERTEX
8
CUT
10
9.32
20
65.6765
0
VERTEX
8
CUT
10
12.42
20
65.6765
0
VERTEX
8
CUT
10
13.97
20
63.5287
0
SEQEND
0
POLYLINE
8
CUT
66
1
70
0
0
VERTEX
8
CUT
10
14.4311
20
62.9206
0
VERTEX
8
CUT
10
12.87
20
60.7574
0
VERTEX
8
CUT
10
9.7478
20
60.7574
0
SEQEND
0
POLYLINE
8
CUT
66
1
70
0
0
VERTEX
8
CUT
10
8.4311
20
61.3656
0
VERTEX
8
CUT
10
6.87
20
63.5287
0
VERTEX
8
CUT
10
8.4311
20
65.6918
0
SEQEND
0
POLYLINE
8
CUT
66
1
70
0
0
VERTEX
8
CUT
10
9.62
20
66.3
0
VERTEX
8
CUT
10
12.87
20
66.3
0
VERTEX
8
CUT
10
14.495
20
64.0483
0
SEQEND
0
POLYLINE
8
CUT
66
1
70
0
0
VERTEX
8
CUT
10
13.97
20
56.9862
0
VERTEX
8
CUT
10
12.42
20
54.8384
0
VERTEX
8
CUT
10
9.32
20
54.8384
0
VERTEX
8
CUT
10
7.77
20
56.9862
0
VERTEX
8
CUT
10
9.32
20
59.1339
0
VERTEX
8
CUT
10
12.42
20
59.1339
0
VERTEX
8
CUT
10
13.97
20
56.9862
0
SEQEND
0
POLYLINE
8
CUT
66
1
70
0
0
VERTEX
8
CUT
10
14.4311
20
56.378
0
VERTEX
8
CUT
10
12.87
20
54.2149
0
VERTEX
8
CUT
10
9.7478
20
54.2149
0
SEQEND
0
POLYLINE
8
CUT
66
1
70
0
0
VERTEX
8
CUT
10
8.4311
20
54.823
0
VERTEX
8
CUT
10
6.87
20
56.9862
0
VERTEX
8
CUT
10
8.4311
20
59.1493
0
SEQEND
0
POLYLINE
8
CUT
66
1
70
0
0
VERTEX
8
CUT
10
9.62
20
59.7574
0
VERTEX
8
CUT
10
12.87
20
59.7574
0
VERTEX
8
CUT
10
14.495
20
57.5058
0
SEQEND
0
POLYLINE
8
CUT
66
1
70
0
0
VERTEX
8
CUT
10
13.97
20
50.4436
0
VERTEX
8
CUT
10
12.42
20
48.2959
0
VERTEX
8
CUT
10
9.32
20
48.2959
0
VERTEX
8
CUT
10
7.77
20
50.4436
0
VERTEX
8
CUT
10
9.32
20
52.5913
0
VERTEX
8
CUT
10
12.42
20
52.5913
0
VERTEX
8
CUT
10
13.97
20
50.4436
0
SEQEND
0
POLYLINE
8
CUT
66
1
70
0
0
VERTEX
8
CUT
10
14.4311
20
49.8354
0
VERTEX
8
CUT
10
12.87
20
47.6723
0
VERTEX
8
CUT
10
9.7478
20
47.6723
0
SEQEND
0
POLYLINE
8
CUT
66
1
70
0
0
VERTEX
8
CUT
10
8.4311
20
48.2805
0
VERTEX
8
CUT
10
6.87
20
50.4436
0
VERTEX
8
CUT
10
8.4311
20
52.6067
0
SEQEND
0
POLYLINE
8
CUT
66
1
70
0
0
VERTEX
8
CUT
10
9.62
20
53.2149
0
VERTEX
8
CUT
10
12.87
20
53.2149
0
VERTEX
8
CUT
10
14.495
20
50.9632
0
SEQEND
0
POLYLINE
8
CUT
66
1
70
0
0
VERTEX
8
CUT
10
13.97
20
43.901
0
VERTEX
8
CUT
10
12.42
20
41.7533
0
VERTEX
8
CUT
10
9.32
20
41.7533
0
VERTEX
8
CUT
10
7.77
20
43.901
0
VERTEX
8
CUT
10
9.32
20
46.0488
0
VERTEX
8
CUT
10
12.42
20
46.0488
0
VERTEX
8
CUT
10
13.97
20
43.901
0
SEQEND
0
POLYLINE
8
CUT
66
1
70
0
0
VERTEX
8
CUT
10
14.4311
20
43.2929
0
VERTEX
8
CUT
10
12.87
20
41.1297
0
VERTEX
8
CUT
10
9.7478
20
41.1297
0
SEQEND
0
POLYLINE
8
CUT
66
1
70
0
0
VERTEX
8
CUT
10
8.4311
20
41.7379
0
VERTEX
8
CUT
10
6.87
20
43.901
0
VERTEX
8
CUT
10
8.4311
20
46.0641
0
SEQEND
0
POLYLINE
8
CUT
66
1
70
0
0
VERTEX
8
CUT
10
9.62
20
46.6723
0
VERTEX
8
CUT
10
12.87
20
46.6723
0
VERTEX
8
CUT
10
14.495
20
44.4206
0
SEQEND
0
POLYLINE
8
CUT
66
1
70
0
0
VERTEX
8
CUT
10
13.97
20
37.3585
0
VERTEX
8
CUT
10
12.42
20
35.2107
0
VERTEX
8
CUT
10
9.32
20
35.2107
0
VERTEX
8
CUT
10
7.77
20
37.3585
0
VERTEX
8
CUT
10
9.32
20
39.5062
0
VERTEX
8
CUT
10
12.42
20
39.5062
0
VERTEX
8
CUT
10
13.97
20
37.3585
0
SEQEND
0
POLYLINE
8
CUT
66
1
70
0
0
VERTEX
8
CUT
10
14.4311
20
36.7503
0
VERTEX
8
CUT
10
12.87
20
34.5872
0
VERTEX
8
CUT
10
9.7478
20
34.5872
0
SEQEND
0
POLYLINE
8
CUT
66
1
70
0
0
VERTEX
8
CUT
10
8.4311
20
35.1954
0
VERTEX
8
CUT
10
6.87
20
37.3585
0
VERTEX
8
CUT
10
8.4311
20
39.5216
0
SEQEND
0
POLYLINE
8
CUT
66
1
70
0
0
VERTEX
8
CUT
10
9.62
20
40.1297
0
VERTEX
8
CUT
10
12.87
20
40.1297
0
VERTEX
8
CUT
10
14.495
20
37.8781
0
SEQEND
0
POLYLINE
8
CUT
66
1
70
0
0
VERTEX
8
CUT
10
13.97
20
30.8159
0
VERTEX
8
CUT
10
12.42
20
28.6682
0
VERTEX
8
CUT
10
9.32
20
28.6682
0
VERTEX
8
CUT
10
7.77
20
30.8159
0
VERTEX
8
CUT
10
9.32
20
32.9636
0
VERTEX
8
CUT
10
12.42
20
32.9636
0
VERTEX
8
CUT
10
13.97
20
30.8159
0
SEQEND
0
POLYLINE
8
CUT
66
1
70
0
0
VERTEX
8
CUT
10
14.4311
20
30.2077
0
VERTEX
8
CUT
10
12.87
20
28.0446
0
VERTEX
8
CUT
10
9.7478
20
28.0446
0
SEQEND
0
POLYLINE
8
CUT
66
1
70
0
0
VERTEX
8
CUT
10
8.4311
20
28.6528
0
VERTEX
8
CUT
10
6.87
20
30.8159
0
VERTEX
8
CUT
10
8.4311
20
32.979
0
SEQEND
0
POLYLINE
8
CUT
66
1
70
0
0
VERTEX
8
CUT
10
9.62
20
33.5872
0
VERTEX
8
CUT
10
12.87
20
33.5872
0
VERTEX
8
CUT
10
14.495
20
31.3355
0
SEQEND
0
POLYLINE
8
CUT
66
1
70
0
0
VERTEX
8
CUT
10
13.97
20
24.2733
0
VERTEX
8
CUT
10
12.42
20
22.1256
0
VERTEX
8
CUT
10
9.32
20
22.1256
0
VERTEX
8
CUT
10
7.77
20
24.2733
0
VERTEX
8
CUT
10
9.32
20
26.4211
0
VERTEX
8
CUT
10
12.42
20
26.4211
0
VERTEX
8
CUT
10
13.97
20
24.2733
0
SEQEND
0
POLYLINE
8
CUT
66
1
70
0
0
VERTEX
8
CUT
10
14.4311
20
23.6652
0
VERTEX
8
CUT
10
12.87
20
21.5021
0
VERTEX
8
CUT
10
9.7478
20
21.5021
0
SEQEND
0
POLYLINE
8
CUT
66
1
70
0
0
VERTEX
8
CUT
10
8.4311
20
22.1102
0
VERTEX
8
CUT
10
6.87
20
24.2733
0
VERTEX
8
CUT
10
8.4311
20
26.4365
0
SEQEND
0
POLYLINE
8
CUT
66
1
70
0
0
VERTEX
8
CUT
10
9.62
20
27.0446
0
VERTEX
8
CUT
10
12.87
20
27.0446
0
VERTEX
8
CUT
10
14.495
20
24.793
0
SEQEND
0
POLYLINE
8
CUT
66
1
70
0
0
VERTEX
8
CUT
10
13.97
20
17.7308
0
VERTEX
8
CUT
10
12.42
20
15.583
0
VERTEX
8
CUT
10
9.32
20
15.583
0
VERTEX
8
CUT
10
7.77
20
17.7308
0
VERTEX
8
CUT
10
9.32
20
19.8785
0
VERTEX
8
CUT
10
12.42
20
19.8785
0
VERTEX
8
CUT
10
13.97
20
17.7308
0
SEQEND
0
POLYLINE
8
CUT
66
1
70
0
0
VERTEX
8
CUT
10
14.4311
20
17.1226
0
VERTEX
8
CUT
10
12.87
20
14.9595
0
VERTEX
8
CUT
10
9.7478
20
14.9595
0
SEQEND
0
POLYLINE
8
CUT
66
1
70
0
0
VERTEX
8
CUT
10
8.4311
20
15.5677
0
VERTEX
8
CUT
10
6.87
20
17.7308
0
VERTEX
8
CUT
10
8.4311
20
19.8939
0
SEQEND
0
POLYLINE
8
CUT
66
1
70
0
0
VERTEX
8
CUT
10
9.62
20
20.5021
0
VERTEX
8
CUT
10
12.87
20
20.5021
0
VERTEX
8
CUT
10
14.495
20
18.2504
0
SEQEND
0
POLYLINE
8
CUT
66
1
70
0
0
VERTEX
8
CUT
10
13.97
20
11.1882
0
VERTEX
8
CUT
10
12.42
20
9.0405
0
VERTEX
8
CUT
10
9.32
20
9.0405
0
VERTEX
8
CUT
10
7.77
20
11.1882
0
VERTEX
8
CUT
10
9.32
20
13.336
0
VERTEX
8
CUT
10
12.42
20
13.336
0
VERTEX
8
CUT
10
13.97
20
11.1882
0
SEQEND
0
POLYLINE
8
CUT
66
1
70
0
0
VERTEX
8
CUT
10
14.4311
20
10.5801
0
VERTEX
8
CUT
10
12.87
20
8.4169
0
VERTEX
8
CUT
10
9.7478
20
8.4169
0
SEQEND
0
POLYLINE
8
CUT
66
1
70
0
0
VERTEX
8
CUT
10
8.4311
20
9.0251
0
VERTEX
8
CUT
10
6.87
20
11.1882
0
VERTEX
8
CUT
10
8.4311
20
13.3513
0
SEQEND
0
POLYLINE
8
CUT
66
1
70
0
0
VERTEX
8
CUT
10
9.62
20
13.9595
0
VERTEX
8
CUT
10
12.87
20
13.9595
0
VERTEX
8
CUT
10
14.495
20
11.7078
0
SEQEND
0
POLYLINE
8
CUT
66
1
70
0
0
VERTEX
8
CUT
10
13.97
20
4.6457
0
VERTEX
8
CUT
10
12.42
20
2.4979
0
VERTEX
8
CUT
10
9.32
20
2.4979
0
VERTEX
8
CUT
10
7.77
20
4.6457
0
VERTEX
8
CUT
10
9.32
20
6.7934
0
VERTEX
8
CUT
10
12.42
20
6.7934
0
VERTEX
8
CUT
10
13.97
20
4.6457
0
SEQEND
0
POLYLINE
8
CUT
66
1
70
0
0
VERTEX
8
CUT
10
14.4311
20
4.0375
0
VERTEX
8
CUT
10
12.87
20
1.8744
0
VERTEX
8
CUT
10
9.7478
20
1.8744
0
SEQEND
0
POLYLINE
8
CUT
66
1
70
0
0
VERTEX
8
CUT
10
8.4311
20
2.4825
0
VERTEX
8
CUT
10
6.87
20
4.6457
0
VERTEX
8
CUT
10
8.4311
20
6.8088
0
SEQEND
0
POLYLINE
8
CUT
66
1
70
0
0
VERTEX
8
CUT
10
9.62
20
7.4169
0
VERTEX
8
CUT
10
12.87
20
7.4169
0
VERTEX
8
CUT
10
14.495
20
5.1653
0
SEQEND
0
POLYLINE
8
CUT
66
1
70
0
0
VERTEX
8
CUT
10
9.139
20
0
0
VERTEX
8
CUT
10
9.32
20
0.2508
0
VERTEX
8
CUT
10
12.42
20
0.2508
0
VERTEX
8
CUT
10
12.601
20
0
0
SEQEND
0
LINE
8
CUT
10
8.239
20
0
11
8.4311
21
0.2662
0
POLYLINE
8
CUT
66
1
70
0
0
VERTEX
8
CUT
10
9.62
20
0.8744
0
VERTEX
8
CUT
10
12.87
20
0.8744
0
VERTEX
8
CUT
10
13.501
20
0
0
SEQEND
0
POLYLINE
8
CUT
66
1
70
0
0
VERTEX
8
CUT
10
20.84
20
66.8
0
VERTEX
8
CUT
10
19.29
20
64.6523
0
VERTEX
8
CUT
10
16.19
20
64.6523
0
VERTEX
8
CUT
10
14.64
20
66.8
0
VERTEX
8
CUT
10
16.19
20
68.9477
0
VERTEX
8
CUT
10
19.29
20
68.9477
0
VERTEX
8
CUT
10
20.84
20
66.8
0
SEQEND
0
POLYLINE
8
CUT
66
1
70
0
0
VERTEX
8
CUT
10
21.3011
20
66.1918
0
VERTEX
8
CUT
10
19.74
20
64.0287
0
VERTEX
8
CUT
10
16.6178
20
64.0287
0
SEQEND
0
POLYLINE
8
CUT
66
1
70
0
0
VERTEX
8
CUT
10
15.3011
20
64.6369
0
VERTEX
8
CUT
10
13.74
20
66.8
0
VERTEX
8
CUT
10
15.3011
20
68.9631
0
SEQEND
0
POLYLINE
8
CUT
66
1
70
0
0
VERTEX
8
CUT
10
16.49
20
69.5713
0
VERTEX
8
CUT
10
19.74
20
69.5713
0
VERTEX
8
CUT
10
21.365
20
67.3196
0
SEQEND
0
POLYLINE
8
CUT
66
1
70
0
0
VERTEX
8
CUT
10
20.84
20
60.2574
0
VERTEX
8
CUT
10
19.29
20
58.1097
0
VERTEX
8
CUT
10
16.19
20
58.1097
0
VERTEX
8
CUT
10
14.64
20
60.2574
0
VERTEX
8
CUT
10
16.19
20
62.4052
0
VERTEX
8
CUT
10
19.29
20
62.4052
0
VERTEX
8
CUT
10
20.84
20
60.2574
0
SEQEND
0
POLYLINE
8
CUT
66
1
70
0
0
VERTEX
8
CUT
10
21.3011
20
59.6493
0
VERTEX
8
CUT
10
19.74
20
57.4862
0
VERTEX
8
CUT
10
16.6178
20
57.4862
0
SEQEND
0
POLYLINE
8
CUT
66
1
70
0
0
VERTEX
8
CUT
10
15.3011
20
58.0943
0
VERTEX
8
CUT
10
13.74
20
60.2574
0
VERTEX
8
CUT
10
15.3011
20
62.4206
0
SEQEND
0
POLYLINE
8
CUT
66
1
70
0
0
VERTEX
8
CUT
10
16.49
20
63.0287
0
VERTEX
8
CUT
10
19.74
20
63.0287
0
VERTEX
8
CUT
10
21.365
20
60.7771
0
SEQEND
0
POLYLINE
8
CUT
66
1
70
0
0
VERTEX
8
CUT
10
20.84
20
53.7149
0
VERTEX
8
CUT
10
19.29
20
51.5671
0
VERTEX
8
CUT
10
16.19
20
51.5671
0
VERTEX
8
CUT
10
14.64
20
53.7149
0
VERTEX
8
CUT
10
16.19
20
55.8626
0
VERTEX
8
CUT
10
19.29
20
55.8626
0
VERTEX
8
CUT
10
20.84
20
53.7149
0
SEQEND
0
POLYLINE
8
CUT
66
1
70
0
0
VERTEX
8
CUT
10
21.3011
20
53.1067
0
VERTEX
8
CUT
10
19.74
20
50.9436
0
VERTEX
8
CUT
10
16.6178
20
50.9436
0
SEQEND
0
POLYLINE
8
CUT
66
1
70
0
0
VERTEX
8
CUT
10
15.3011
20
51.5518
0
VERTEX
8
CUT
10
13.74
20
53.7149
0
VERTEX
8
CUT
10
15.3011
20
55.878
0
SEQEND
0
POLYLINE
8
CUT
66
1
70
0
0
VERTEX
8
CUT
10
16.49
20
56.4862
0
VERTEX
8
CUT
10
19.74
20
56.4862
0
VERTEX
8
CUT
10
21.365
20
54.2345
0
SEQEND
0
POLYLINE
8
CUT
66
1
70
0
0
VERTEX
8
CUT
10
20.84
20
47.1723
0
VERTEX
8
CUT
10
19.29
20
45.0246
0
VERTEX
8
CUT
10
16.19
20
45.0246
0
VERTEX
8
CUT
10
14.64
20
47.1723
0
VERTEX
8
CUT
10
16.19
20
49.3201
0
VERTEX
8
CUT
10
19.29
20
49.3201
0
VERTEX
8
CUT
10
20.84
20
47.1723
0
SEQEND
0
POLYLINE
8
CUT
66
1
70
0
0
VERTEX
8
CUT
10
21.3011
20
46.5641
0
VERTEX
8
CUT
10
19.74
20
44.401
0
VERTEX
8
CUT
10
16.6178
20
44.401
0
SEQEND
0
POLYLINE
8
CUT
66
1
70
0
0
VERTEX
8
CUT
10
15.3011
20
45.0092
0
VERTEX
8
CUT
10
13.74
20
47.1723
0
VERTEX
8
CUT
10
15.3011
20
49.3354
0
SEQEND
0
POLYLINE
8
CUT
66
1
70
0
0
VERTEX
8
CUT
10
16.49
20
49.9436
0
VERTEX
8
CUT
10
19.74
20
49.9436
0
VERTEX
8
CUT
10
21.365
20
47.6919
0
SEQEND
0
POLYLINE
8
CUT
66
1
70
0
0
VERTEX
8
CUT
10
20.84
20
40.6297
0
VERTEX
8
CUT
10
19.29
20
38.482
0
VERTEX
8
CUT
10
16.19
20
38.482
0
VERTEX
8
CUT
10
14.64
20
40.6297
0
VERTEX
8
CUT
10
16.19
20
42.7775
0
VERTEX
8
CUT
10
19.29
20
42.7775
0
VERTEX
8
CUT
10
20.84
20
40.6297
0
SEQEND
0
POLYLINE
8
CUT
66
1
70
0
0
VERTEX
8
CUT
10
21.3011
20
40.0216
0
VERTEX
8
CUT
10
19.74
20
37.8585
0
VERTEX
8
CUT
10
16.6178
20
37.8585
0
SEQEND
0
POLYLINE
8
CUT
66
1
70
0
0
VERTEX
8
CUT
10
15.3011
20
38.4666
0
VERTEX
8
CUT
10
13.74
20
40.6297
0
VERTEX
8
CUT
10
15.3011
20
42.7929
0
SEQEND
0
POLYLINE
8
CUT
66
1
70
0
0
VERTEX
8
CUT
10
16.49
20
43.401
0
VERTEX
8
CUT
10
19.74
20
43.401
0
VERTEX
8
CUT
10
21.365
20
41.1494
0
SEQEND
0
POLYLINE
8
CUT
66
1
70
0
0
VERTEX
8
CUT
10
20.84
20
34.0872
0
VERTEX
8
CUT
10
19.29
20
31.9394
0
VERTEX
8
CUT
10
16.19
20
31.9394
0
VERTEX
8
CUT
10
14.64
20
34.0872
0
VERTEX
8
CUT
10
16.19
20
36.2349
0
VERTEX
8
CUT
10
19.29
20
36.2349
0
VERTEX
8
CUT
10
20.84
20
34.0872
0
SEQEND
0
POLYLINE
8
CUT
66
1
70
0
0
VERTEX
8
CUT
10
21.3011
20
33.479
0
VERTEX
8
CUT
10
19.74
20
31.3159
0
VERTEX
8
CUT
10
16.6178
20
31.3159
0
SEQEND
0
POLYLINE
8
CUT
66
1
70
0
0
VERTEX
8
CUT
10
15.3011
20
31.9241
0
VERTEX
8
CUT
10
13.74
20
34.0872
0
VERTEX
8
CUT
10
15.3011
20
36.2503
0
SEQEND
0
POLYLINE
8
CUT
66
1
70
0
0
VERTEX
8
CUT
10
16.49
20
36.8585
0
VERTEX
8
CUT
10
19.74
20
36.8585
0
VERTEX
8
CUT
10
21.365
20
34.6068
0
SEQEND
0
POLYLINE
8
CUT
66
1
70
0
0
VERTEX
8
CUT
10
20.84
20
27.5446
0
VERTEX
8
CUT
10
19.29
20
25.3969
0
VERTEX
8
CUT
10
16.19
20
25.3969
0
VERTEX
8
CUT
10
14.64
20
27.5446
0
VERTEX
8
CUT
10
16.19
20
29.6924
0
VERTEX
8
CUT
10
19.29
20
29.6924
0
VERTEX
8
CUT
10
20.84
20
27.5446
0
SEQEND
0
POLYLINE
8
CUT
66
1
70
0
0
VERTEX
8
CUT
10
21.3011
20
26.9365
0
VERTEX
8
CUT
10
19.74
20
24.7733
0
VERTEX
8
CUT
10
16.6178
20
24.7733
0
SEQEND
0
POLYLINE
8
CUT
66
1
70
0
0
VERTEX
8
CUT
10
15.3011
20
25.3815
0
VERTEX
8
CUT
10
13.74
20
27.5446
0
VERTEX
8
CUT
10
15.3011
20
29.7077
0
SEQEND
0
POLYLINE
8
CUT
66
1
70
0
0
VERTEX
8
CUT
10
16.49
20
30.3159
0
VERTEX
8
CUT
10
19.74
20
30.3159
0
VERTEX
8
CUT
10
21.365
20
28.0642
0
SEQEND
0
POLYLINE
8
CUT
66
1
70
0
0
VERTEX
8
CUT
10
20.84
20
21.0021
0
VERTEX
8
CUT
10
19.29
20
18.8543
0
VERTEX
8
CUT
10
16.19
20
18.8543
0
VERTEX
8
CUT
10
14.64
20
21.0021
0
VERTEX
8
CUT
10
16.19
20
23.1498
0
VERTEX
8
CUT
10
19.29
20
23.1498
0
VERTEX
8
CUT
10
20.84
20
21.0021
0
SEQEND
0
POLYLINE
8
CUT
66
1
70
0
0
VERTEX
8
CUT
10
21.3011
20
20.3939
0
VERTEX
8
CUT
10
19.74
20
18.2308
0
VERTEX
8
CUT
10
16.6178
20
18.2308
0
SEQEND
0
POLYLINE
8
CUT
66
1
70
0
0
VERTEX
8
CUT
10
15.3011
20
18.8389
0
VERTEX
8
CUT
10
13.74
20
21.0021
0
VERTEX
8
CUT
10
15.3011
20
23.1652
0
SEQEND
0
POLYLINE
8
CUT
66
1
70
0
0
VERTEX
8
CUT
10
16.49
20
23.7733
0
VERTEX
8
CUT
10
19.74
20
23.7733
0
VERTEX
8
CUT
10
21.365
20
21.5217
0
SEQEND
0
POLYLINE
8
CUT
66
1
70
0
0
VERTEX
8
CUT
10
20.84
20
14.4595
0
VERTEX
8
CUT
10
19.29
20
12.3118
0
VERTEX
8
CUT
10
16.19
20
12.3118
0
VERTEX
8
CUT
10
14.64
20
14.4595
0
VERTEX
8
CUT
10
16.19
20
16.6072
0
VERTEX
8
CUT
10
19.29
20
16.6072
0
VERTEX
8
CUT
10
20.84
20
14.4595
0
SEQEND
0
POLYLINE
8
CUT
66
1
70
0
0
VERTEX
8
CUT
10
21.3011
20
13.8513
0
VERTEX
8
CUT
10
19.74
20
11.6882
0
VERTEX
8
CUT
10
16.6178
20
11.6882
0
SEQEND
0
POLYLINE
8
CUT
66
1
70
0
0
VERTEX
8
CUT
10
15.3011
20
12.2964
0
VERTEX
8
CUT
10
13.74
20
14.4595
0
VERTEX
8
CUT
10
15.3011
20
16.6226
0
SEQEND
0
POLYLINE
8
CUT
66
1
70
0
0
VERTEX
8
CUT
10
16.49
20
17.2308
0
VERTEX
8
CUT
10
19.74
20
17.2308
0
VERTEX
8
CUT
10
21.365
20
14.9791
0
SEQEND
0
POLYLINE
8
CUT
66
1
70
0
0
VERTEX
8
CUT
10
20.84
20
7.9169
0
VERTEX
8
CUT
10
19.29
20
5.7692
0
VERTEX
8
CUT
10
16.19
20
5.7692
0
VERTEX
8
CUT
10
14.64
20
7.9169
0
VERTEX
8
CUT
10
16.19
20
10.0647
0
VERTEX
8
CUT
10
19.29
20
10.0647
0
VERTEX
8
CUT
10
20.84
20
7.9169
0
SEQEND
0
POLYLINE
8
CUT
66
1
70
0
0
VERTEX
8
CUT
10
21.3011
20
7.3088
0
VERTEX
8
CUT
10
19.74
20
5.1457
0
VERTEX
8
CUT
10
16.6178
20
5.1457
0
SEQEND
0
POLYLINE
8
CUT
66
1
70
0
0
VERTEX
8
CUT
10
15.3011
20
5.7538
0
VERTEX
8
CUT
10
13.74
20
7.9169
0
VERTEX
8
CUT
10
15.3011
20
10.0801
0
SEQEND
0
POLYLINE
8
CUT
66
1
70
0
0
VERTEX
8
CUT
10
16.49
20
10.6882
0
VERTEX
8
CUT
10
19.74
20
10.6882
0
VERTEX
8
CUT
10
21.365
20
8.4366
0
SEQEND
0
LINE
8
CUT
10
20.84
20
1.3744
11
19.8481
21
0
0
POLYLINE
8
CUT
66
1
70
0
0
VERTEX
8
CUT
10
15.6319
20
0
0
VERTEX
8
CUT
10
14.64
20
1.3744
0
VERTEX
8
CUT
10
16.19
20
3.5221
0
VERTEX
8
CUT
10
19.29
20
3.5221
0
VERTEX
8
CUT
10
20.84
20
1.3744
0
SEQEND
0
LINE
8
CUT
10
21.3011
20
0.7662
11
20.7481
21
0
0
POLYLINE
8
CUT
66
1
70
0
0
VERTEX
8
CUT
10
14.7319
20
0
0
VERTEX
8
CUT
10
13.74
20
1.3744
0
VERTEX
8
CUT
10
15.3011
20
3.5375
0
SEQEND
0
POLYLINE
8
CUT
66
1
70
0
0
VERTEX
8
CUT
10
16.49
20
4.1457
0
VERTEX
8
CUT
10
19.74
20
4.1457
0
VERTEX
8
CUT
10
21.365
20
1.894
0
SEQEND
0
POLYLINE
8
CUT
66
1
70
0
0
VERTEX
8
CUT
10
27.6586
20
70
0
VERTEX
8
CUT
10
26.16
20
67.9235
0
VERTEX
8
CUT
10
23.06
20
67.9235
0
VERTEX
8
CUT
10
21.5614
20
70
0
SEQEND
0
POLYLINE
8
CUT
66
1
70
0
0
VERTEX
8
CUT
10
28.1711
20
69.4631
0
VERTEX
8
CUT
10
26.61
20
67.3
0
VERTEX
8
CUT
10
23.4878
20
67.3
0
SEQEND
0
LINE
8
CUT
10
22.1711
20
67.9082
11
20.6614
21
70
0
POLYLINE
8
CUT
66
1
70
0
0
VERTEX
8
CUT
10
27.71
20
63.5287
0
VERTEX
8
CUT
10
26.16
20
61.381
0
VERTEX
8
CUT
10
23.06
20
61.381
0
VERTEX
8
CUT
10
21.51
20
63.5287
0
VERTEX
8
CUT
10
23.06
20
65.6765
0
VERTEX
8
CUT
10
26.16
20
65.6765
0
VERTEX
8
CUT
10
27.71
20
63.5287
0
SEQEND
0
POLYLINE
8
CUT
66
1
70
0
0
VERTEX
8
CUT
10
28.1711
20
62.9206
0
VERTEX
8
CUT
10
26.61
20
60.7574
0
VERTEX
8
CUT
10
23.4878
20
60.7574
0
SEQEND
0
POLYLINE
8
CUT
66
1
70
0
0
VERTEX
8
CUT
10
22.1711
20
61.3656
0
VERTEX
8
CUT
10
20.61
20
63.5287
0
VERTEX
8
CUT
10
22.1711
20
65.6918
0
SEQEND
0
POLYLINE
8
CUT
66
1
70
0
0
VERTEX
8
CUT
10
23.36
20
66.3
0
VERTEX
8
CUT
10
26.61
20
66.3
0
VERTEX
8
CUT
10
28.235
20
64.0483
0
SEQEND
0
POLYLINE
8
CUT
66
1
70
0
0
VERTEX
8
CUT
10
27.71
20
56.9862
0
VERTEX
8
CUT
10
26.16
20
54.8384
0
VERTEX
8
CUT
10
23.06
20
54.8384
0
VERTEX
8
CUT
10
21.51
20
56.9862
0
VERTEX
8
CUT
10
23.06
20
59.1339
0
VERTEX
8
CUT
10
26.16
20
59.1339
0
VERTEX
8
CUT
10
27.71
20
56.9862
0
SEQEND
0
POLYLINE
8
CUT
66
1
70
0
0
VERTEX
8
CUT
10
28.1711
20
56.378
0
VERTEX
8
CUT
10
26.61
20
54.2149
0
VERTEX
8
CUT
10
23.4878
20
54.2149
0
SEQEND
0
POLYLINE
8
CUT
66
1
70
0
0
VERTEX
8
CUT
10
22.1711
20
54.823
0
VERTEX
8
CUT
10
20.61
20
56.9862
0
VERTEX
8
CUT
10
22.1711
20
59.1493
0
SEQEND
0
POLYLINE
8
CUT
66
1
70
0
0
VERTEX
8
CUT
10
23.36
20
59.7574
0
VERTEX
8
CUT
10
26.61
20
59.7574
0
VERTEX
8
CUT
10
28.235
20
57.5058
0
SEQEND
0
POLYLINE
8
CUT
66
1
70
0
0
VERTEX
8
CUT
10
27.71
20
50.4436
0
VERTEX
8
CUT
10
26.16
20
48.2959
0
VERTEX
8
CUT
10
23.06
20
48.2959
0
VERTEX
8
CUT
10
21.51
20
50.4436
0
VERTEX
8
CUT
10
23.06
20
52.5913
0
VERTEX
8
CUT
10
26.16
20
52.5913
0
VERTEX
8
CUT
10
27.71
20
50.4436
0
SEQEND
0
POLYLINE
8
CUT
66
1
70
0
0
VERTEX
8
CUT
10
28.1711
20
49.8354
0
VERTEX
8
CUT
10
26.61
20
47.6723
0
VERTEX
8
CUT
10
23.4878
20
47.6723
0
SEQEND
0
POLYLINE
8
CUT
66
1
70
0
0
VERTEX
8
CUT
10
22.1711
20
48.2805
0
VERTEX
8
CUT
10
20.61
20
50.4436
0
VERTEX
8
CUT
10
22.1711
20
52.6067
0
SEQEND
0
POLYLINE
8
CUT
66
1
70
0
0
VERTEX
8
CUT
10
23.36
20
53.2149
0
VERTEX
8
CUT
10
26.61
20
53.2149
0
VERTEX
8
CUT
10
28.235
20
50.9632
0
SEQEND
0
POLYLINE
8
CUT
66
1
70
0
0
VERTEX
8
CUT
10
27.71
20
43.901
0
VERTEX
8
CUT
10
26.16
20
41.7533
0
VERTEX
8
CUT
10
23.06
20
41.7533
0
VERTEX
8
CUT
10
21.51
20
43.901
0
VERTEX
8
CUT
10
23.06
20
46.0488
0
VERTEX
8
CUT
10
26.16
20
46.0488
0
VERTEX
8
CUT
10
27.71
20
43.901
0
SEQEND
0
POLYLINE
8
CUT
66
1
70
0
0
VERTEX
8
CUT
10
28.1711
20
43.2929
0
VERTEX
8
CUT
10
26.61
20
41.1297
0
VERTEX
8
CUT
10
23.4878
20
41.1297
0
SEQEND
0
POLYLINE
8
CUT
66
1
70
0
0
VERTEX
8
CUT
10
22.1711
20
41.7379
0
VERTEX
8
CUT
10
20.61
20
43.901
0
VERTEX
8
CUT
10
22.1711
20
46.0641
0
SEQEND
0
POLYLINE
8
CUT
66
1
70
0
0
VERTEX
8
CUT
10
23.36
20
46.6723
0
VERTEX
8
CUT
10
26.61
20
46.6723
0
VERTEX
8
CUT
10
28.235
20
44.4206
0
SEQEND
0
POLYLINE
8
CUT
66
1
70
0
0
VERTEX
8
CUT
10
27.71
20
37.3585
0
VERTEX
8
CUT
10
26.16
20
35.2107
0
VERTEX
8
CUT
10
23.06
20
35.2107
0
VERTEX
8
CUT
10
21.51
20
37.3585
0
VERTEX
8
CUT
10
23.06
20
39.5062
0
VERTEX
8
CUT
10
26.16
20
39.5062
0
VERTEX
8
CUT
10
27.71
20
37.3585
0
SEQEND
0
POLYLINE
8
CUT
66
1
70
0
0
VERTEX
8
CUT
10
28.1711
20
36.7503
0
VERTEX
8
CUT
10
26.61
20
34.5872
0
VERTEX
8
CUT
10
23.4878
20
34.5872
0
SEQEND
0
POLYLINE
8
CUT
66
1
70
0
0
VERTEX
8
CUT
10
22.1711
20
35.1954
0
VERTEX
8
CUT
10
20.61
20
37.3585
0
VERTEX
8
CUT
10
22.1711
20
39.5216
0
SEQEND
0
POLYLINE
8
CUT
66
1
70
0
0
VERTEX
8
CUT
10
23.36
20
40.1297
0
VERTEX
8
CUT
10
26.61
20
40.1297
0
VERTEX
8
CUT
10
28.235
20
37.8781
0
SEQEND
0
POLYLINE
8
CUT
66
1
70
0
0
VERTEX
8
CUT
10
27.71
20
30.8159
0
VERTEX
8
CUT
10
26.16
20
28.6682
0
VERTEX
8
CUT
10
23.06
20
28.6682
0
VERTEX
8
CUT
10
21.51
20
30.8159
0
VERTEX
8
CUT
10
23.06
20
32.9636
0
VERTEX
8
CUT
10
26.16
20
32.9636
0
VERTEX
8
CUT
10
27.71
20
30.8159
0
SEQEND
0
POLYLINE
8
CUT
66
1
70
0
0
VERTEX
8
CUT
10
28.1711
20
30.2077
0
VERTEX
8
CUT
10
26.61
20
28.0446
0
VERTEX
8
CUT
10
23.4878
20
28.0446
0
SEQEND
0
POLYLINE
8
CUT
66
1
70
0
0
VERTEX
8
CUT
10
22.1711
20
28.6528
0
VERTEX
8
CUT
10
20.61
20
30.8159
0
VERTEX
8
CUT
10
22.1711
20
32.979
0
SEQEND
0
POLYLINE
8
CUT
66
1
70
0
0
VERTEX
8
CUT
10
23.36
20
33.5872
0
VERTEX
8
CUT
10
26.61
20
33.5872
0
VERTEX
8
CUT
10
28.235
20
31.3355
0
SEQEND
0
POLYLINE
8
CUT
66
1
70
0
0
VERTEX
8
CUT
10
27.71
20
24.2733
0
VERTEX
8
CUT
10
26.16
20
22.1256
0
VERTEX
8
CUT
10
23.06
20
22.1256
0
VERTEX
8
CUT
10
21.51
20
24.2733
0
VERTEX
8
CUT
10
23.06
20
26.4211
0
VERTEX
8
CUT
10
26.16
20
26.4211
0
VERTEX
8
CUT
10
27.71
20
24.2733
0
SEQEND
0
POLYLINE
8
CUT
66
1
70
0
0
VERTEX
8
CUT
10
28.1711
20
23.6652
0
VERTEX
8
CUT
10
26.61
20
21.5021
0
VERTEX
8
CUT
10
23.4878
20
21.5021
0
SEQEND
0
POLYLINE
8
CUT
66
1
70
0
0
VERTEX
8
CUT
10
22.1711
20
22.1102
0
VERTEX
8
CUT
10
20.61
20
24.2733
0
VERTEX
8
CUT
10
22.1711
20
26.4365
0
SEQEND
0
POLYLINE
8
CUT
66
1
70
0
0
VERTEX
8
CUT
10
23.36
20
27.0446
0
VERTEX
8
CUT
10
26.61
20
27.0446
0
VERTEX
8
CUT
10
28.235
20
24.793
0
SEQEND
0
POLYLINE
8
CUT
66
1
70
0
0
VERTEX
8
CUT
10
27.71
20
17.7308
0
VERTEX
8
CUT
10
26.16
20
15.583
0
VERTEX
8
CUT
10
23.06
20
15.583
0
VERTEX
8
CUT
10
21.51
20
17.7308
0
VERTEX
8
CUT
10
23.06
20
19.8785
0
VERTEX
8
CUT
10
26.16
20
19.8785
0
VERTEX
8
CUT
10
27.71
20
17.7308
0
SEQEND
0
POLYLINE
8
CUT
66
1
70
0
0
VERTEX
8
CUT
10
28.1711
20
17.1226
0
VERTEX
8
CUT
10
26.61
20
14.9595
0
VERTEX
8
CUT
10
23.4878
20
14.9595
0
SEQEND
0
POLYLINE
8
CUT
66
1
70
0
0
VERTEX
8
CUT
10
22.1711
20
15.5677
0
VERTEX
8
CUT
10
20.61
20
17.7308
0
VERTEX
8
CUT
10
22.1711
20
19.8939
0
SEQEND
0
POLYLINE
8
CUT
66
1
70
0
0
VERTEX
8
CUT
10
23.36
20
20.5021
0
VERTEX
8
CUT
10
26.61
20
20.5021
0
VERTEX
8
CUT
10
28.235
20
18.2504
0
SEQEND
0
POLYLINE
8
CUT
66
1
70
0
0
VERTEX
8
CUT
10
27.71
20
11.1882
0
VERTEX
8
CUT
10
26.16
20
9.0405
0
VERTEX
8
CUT
10
23.06
20
9.0405
0
VERTEX
8
CUT
10
21.51
20
11.1882
0
VERTEX
8
CUT
10
23.06
20
13.336
0
VERTEX
8
CUT
10
26.16
20
13.336
0
VERTEX
8
CUT
10
27.71
20
11.1882
0
SEQEND
0
POLYLINE
8
CUT
66
1
70
0
0
VERTEX
8
CUT
10
28.1711
20
10.5801
0
VERTEX
8
CUT
10
26.61
20
8.4169
0
VERTEX
8
CUT
10
23.4878
20
8.4169
0
SEQEND
0
POLYLINE
8
CUT
66
1
70
0
0
VERTEX
8
CUT
10
22.1711
20
9.0251
0
VERTEX
8
CUT
10
20.61
20
11.1882
0
VERTEX
8
CUT
10
22.1711
20
13.3513
0
SEQEND
0
POLYLINE
8
CUT
66
1
70
0
0
VERTEX
8
CUT
10
23.36
20
13.9595
0
VERTEX
8
CUT
10
26.61
20
13.9595
0
VERTEX
8
CUT
10
28.235
20
11.7078
0
SEQEND
0
POLYLINE
8
CUT
66
1
70
0
0
VERTEX
8
CUT
10
27.71
20
4.6457
0
VERTEX
8
CUT
10
26.16
20
2.4979
0
VERTEX
8
CUT
10
23.06
20
2.4979
0
VERTEX
8
CUT
10
21.51
20
4.6457
0
VERTEX
8
CUT
10
23.06
20
6.7934
0
VERTEX
8
CUT
10
26.16
20
6.7934
0
VERTEX
8
CUT
10
27.71
20
4.6457
0
SEQEND
0
POLYLINE
8
CUT
66
1
70
0
0
VERTEX
8
CUT
10
28.1711
20
4.0375
0
VERTEX
8
CUT
10
26.61
20
1.8744
0
VERTEX
8
CUT
10
23.4878
20
1.8744
0
SEQEND
0
POLYLINE
8
CUT
66
1
70
0
0
VERTEX
8
CUT
10
22.1711
20
2.4825
0
VERTEX
8
CUT
10
20.61
20
4.6457
0
VERTEX
8
CUT
10
22.1711
20
6.8088
0
SEQEND
0
POLYLINE
8
CUT
66
1
70
0
0
VERTEX
8
CUT
10
23.36
20
7.4169
0
VERTEX
8
CUT
10
26.61
20
7.4169
0
VERTEX
8
CUT
10
28.235
20
5.1653
0
SEQEND
0
POLYLINE
8
CUT
66
1
70
0
0
VERTEX
8
CUT
10
22.879
20
0
0
VERTEX
8
CUT
10
23.06
20
0.2508
0
VERTEX
8
CUT
10
26.16
20
0.2508
0
VERTEX
8
CUT
10
26.341
20
0
0
SEQEND
0
LINE
8
CUT
10
21.979
20
0
11
22.1711
21
0.2662
0
POLYLINE
8
CUT
66
1
70
0
0
VERTEX
8
CUT
10
23.36
20
0.8744
0
VERTEX
8
CUT
10
26.61
20
0.8744
0
VERTEX
8
CUT
10
27.241
20
0
0
SEQEND
0
POLYLINE
8
CUT
66
1
70
0
0
VERTEX
8
CUT
10
34.58
20
66.8
0
VERTEX
8
CUT
10
33.03
20
64.6523
0
VERTEX
8
CUT
10
29.93
20
64.6523
0
VERTEX
8
CUT
10
28.38
20
66.8
0
VERTEX
8
CUT
10
29.93
20
68.9477
0
VERTEX
8
CUT
10
33.03
20
68.9477
0
VERTEX
8
CUT
10
34.58
20
66.8
0
SEQEND
0
POLYLINE
8
CUT
66
1
70
0
0
VERTEX
8
CUT
10
35.0411
20
66.1918
0
VERTEX
8
CUT
10
33.48
20
64.0287
0
VERTEX
8
CUT
10
30.3578
20
64.0287
0
SEQEND
0
POLYLINE
8
CUT
66
1
70
0
0
VERTEX
8
CUT
10
29.0411
20
64.6369
0
VERTEX
8
CUT
10
27.48
20
66.8
0
VERTEX
8
CUT
10
29.0411
20
68.9631
0
SEQEND
0
POLYLINE
8
CUT
66
1
70
0
0
VERTEX
8
CUT
10
30.23
20
69.5713
0
VERTEX
8
CUT
10
33.48
20
69.5713
0
VERTEX
8
CUT
10
35.105
20
67.3196
0
SEQEND
0
POLYLINE
8
CUT
66
1
70
0
0
VERTEX
8
CUT
10
34.58
20
60.2574
0
VERTEX
8
CUT
10
33.03
20
58.1097
0
VERTEX
8
CUT
10
29.93
20
58.1097
0
VERTEX
8
CUT
10
28.38
20
60.2574
0
VERTEX
8
CUT
10
29.93
20
62.4052
0
VERTEX
8
CUT
10
33.03
20
62.4052
0
VERTEX
8
CUT
10
34.58
20
60.2574
0
SEQEND
0
POLYLINE
8
CUT
66
1
70
0
0
VERTEX
8
CUT
10
35.0411
20
59.6493
0
VERTEX
8
CUT
10
33.48
20
57.4862
0
VERTEX
8
CUT
10
30.3578
20
57.4862
0
SEQEND
0
POLYLINE
8
CUT
66
1
70
0
0
VERTEX
8
CUT
10
29.0411
20
58.0943
0
VERTEX
8
CUT
10
27.48
20
60.2574
0
VERTEX
8
CUT
10
29.0411
20
62.4206
0
SEQEND
0
POLYLINE
8
CUT
66
1
70
0
0
VERTEX
8
CUT
10
30.23
20
63.0287
0
VERTEX
8
CUT
10
33.48
20
63.0287
0
VERTEX
8
CUT
10
35.105
20
60.7771
0
SEQEND
0
POLYLINE
8
CUT
66
1
70
0
0
VERTEX
8
CUT
10
34.58
20
53.7149
0
VERTEX
8
CUT
10
33.03
20
51.5671
0
VERTEX
8
CUT
10
29.93
20
51.5671
0
VERTEX
8
CUT
10
28.38
20
53.7149
0
VERTEX
8
CUT
10
29.93
20
55.8626
0
VERTEX
8
CUT
10
33.03
20
55.8626
0
VERTEX
8
CUT
10
34.58
20
53.7149
0
SEQEND
0
POLYLINE
8
CUT
66
1
70
0
0
VERTEX
8
CUT
10
35.0411
20
53.1067
0
VERTEX
8
CUT
10
33.48
20
50.9436
0
VERTEX
8
CUT
10
30.3578
20
50.9436
0
SEQEND
0
POLYLINE
8
CUT
66
1
70
0
0
VERTEX
8
CUT
10
29.0411
20
51.5518
0
VERTEX
8
CUT
10
27.48
20
53.7149
0
VERTEX
8
CUT
10
29.0411
20
55.878
0
SEQEND
0
POLYLINE
8
CUT
66
1
70
0
0
VERTEX
8
CUT
10
30.23
20
56.4862
0
VERTEX
8
CUT
10
33.48
20
56.4862
0
VERTEX
8
CUT
10
35.105
20
54.2345
0
SEQEND
0
POLYLINE
8
CUT
66
1
70
0
0
VERTEX
8
CUT
10
34.58
20
47.1723
0
VERTEX
8
CUT
10
33.03
20
45.0246
0
VERTEX
8
CUT
10
29.93
20
45.0246
0
VERTEX
8
CUT
10
28.38
20
47.1723
0
VERTEX
8
CUT
10
29.93
20
49.3201
0
VERTEX
8
CUT
10
33.03
20
49.3201
0
VERTEX
8
CUT
10
34.58
20
47.1723
0
SEQEND
0
POLYLINE
8
CUT
66
1
70
0
0
VERTEX
8
CUT
10
35.0411
20
46.5641
0
VERTEX
8
CUT
10
33.48
20
44.401
0
VERTEX
8
CUT
10
30.3578
20
44.401
0
SEQEND
0
POLYLINE
8
CUT
66
1
70
0
0
VERTEX
8
CUT
10
29.0411
20
45.0092
0
VERTEX
8
CUT
10
27.48
20
47.1723
0
VERTEX
8
CUT
10
29.0411
20
49.3354
0
SEQEND
0
POLYLINE
8
CUT
66
1
70
0
0
VERTEX
8
CUT
10
30.23
20
49.9436
0
VERTEX
8
CUT
10
33.48
20
49.9436
0
VERTEX
8
CUT
10
35.105
20
47.6919
0
SEQEND
0
POLYLINE
8
CUT
66
1
70
0
0
VERTEX
8
CUT
10
34.58
20
40.6297
0
VERTEX
8
CUT
10
33.03
20
38.482
0
VERTEX
8
CUT
10
29.93
20
38.482
0
VERTEX
8
CUT
10
28.38
20
40.6297
0
VERTEX
8
CUT
10
29.93
20
42.7775
0
VERTEX
8
CUT
10
33.03
20
42.7775
0
VERTEX
8
CUT
10
34.58
20
40.6297
0
SEQEND
0
POLYLINE
8
CUT
66
1
70
0
0
VERTEX
8
CUT
10
35.0411
20
40.0216
0
VERTEX
8
CUT
10
33.48
20
37.8585
0
VERTEX
8
CUT
10
30.3578
20
37.8585
0
SEQEND
0
POLYLINE
8
CUT
66
1
70
0
0
VERTEX
8
CUT
10
29.0411
20
38.4666
0
VERTEX
8
CUT
10
27.48
20
40.6297
0
VERTEX
8
CUT
10
29.0411
20
42.7929
0
SEQEND
0
POLYLINE
8
CUT
66
1
70
0
0
VERTEX
8
CUT
10
30.23
20
43.401
0
VERTEX
8
CUT
10
33.48
20
43.401
0
VERTEX
8
CUT
10
35.105
20
41.1494
0
SEQEND
0
POLYLINE
8
CUT
66
1
70
0
0
VERTEX
8
CUT
10
34.58
20
34.0872
0
VERTEX
8
CUT
10
33.03
20
31.9394
0
VERTEX
8
CUT
10
29.93
20
31.9394
0
VERTEX
8
CUT
10
28.38
20
34.0872
0
VERTEX
8
CUT
10
29.93
20
36.2349
0
VERTEX
8
CUT
10
33.03
20
36.2349
0
VERTEX
8
CUT
10
34.58
20
34.0872
0
SEQEND
0
POLYLINE
8
CUT
66
1
70
0
0
VERTEX
8
CUT
10
35.0411
20
33.479
0
VERTEX
8
CUT
10
33.48
20
31.3159
0
VERTEX
8
CUT
10
30.3578
20
31.3159
0
SEQEND
0
POLYLINE
8
CUT
66
1
70
0
0
VERTEX
8
CUT
10
29.0411
20
31.9241
0
VERTEX
8
CUT
10
27.48
20
34.0872
0
VERTEX
8
CUT
10
29.0411
20
36.2503
0
SEQEND
0
POLYLINE
8
CUT
66
1
70
0
0
VERTEX
8
CUT
10
30.23
20
36.8585
0
VERTEX
8
CUT
10
33.48
20
36.8585
0
VERTEX
8
CUT
10
35.105
20
34.6068
0
SEQEND
0
POLYLINE
8
CUT
66
1
70
0
0
VERTEX
8
CUT
10
34.58
20
27.5446
0
VERTEX
8
CUT
10
33.03
20
25.3969
0
VERTEX
8
CUT
10
29.93
20
25.3969
0
VERTEX
8
CUT
10
28.38
20
27.5446
0
VERTEX
8
CUT
10
29.93
20
29.6924
0
VERTEX
8
CUT
10
33.03
20
29.6924
0
VERTEX
8
CUT
10
34.58
20
27.5446
0
SEQEND
0
POLYLINE
8
CUT
66
1
70
0
0
VERTEX
8
CUT
10
35.0411
20
26.9365
0
VERTEX
8
CUT
10
33.48
20
24.7733
0
VERTEX
8
CUT
10
30.3578
20
24.7733
0
SEQEND
0
POLYLINE
8
CUT
66
1
70
0
0
VERTEX
8
CUT
10
29.0411
20
25.3815
0
VERTEX
8
CUT
10
27.48
20
27.5446
0
VERTEX
8
CUT
10
29.0411
20
29.7077
0
SEQEND
0
POLYLINE
8
CUT
66
1
70
0
0
VERTEX
8
CUT
10
30.23
20
30.3159
0
VERTEX
8
CUT
10
33.48
20
30.3159
0
VERTEX
8
CUT
10
35.105
20
28.0642
0
SEQEND
0
POLYLINE
8
CUT
66
1
70
0
0
VERTEX
8
CUT
10
34.58
20
21.0021
0
VERTEX
8
CUT
10
33.03
20
18.8543
0
VERTEX
8
CUT
10
29.93
20
18.8543
0
VERTEX
8
CUT
10
28.38
20
21.0021
0
VERTEX
8
CUT
10
29.93
20
23.1498
0
VERTEX
8
CUT
10
33.03
20
23.1498
0
VERTEX
8
CUT
10
34.58
20
21.0021
0
SEQEND
0
POLYLINE
8
CUT
66
1
70
0
0
VERTEX
8
CUT
10
35.0411
20
20.3939
0
VERTEX
8
CUT
10
33.48
20
18.2308
0
VERTEX
8
CUT
10
30.3578
20
18.2308
0
SEQEND
0
POLYLINE
8
CUT
66
1
70
0
0
VERTEX
8
CUT
10
29.0411
20
18.8389
0
VERTEX
8
CUT
10
27.48
20
21.0021
0
VERTEX
8
CUT
10
29.0411
20
23.1652
0
SEQEND
0
POLYLINE
8
CUT
66
1
70
0
0
VERTEX
8
CUT
10
30.23
20
23.7733
0
VERTEX
8
CUT
10
33.48
20
23.7733
0
VERTEX
8
CUT
10
35.105
20
21.5217
0
SEQEND
0
POLYLINE
8
CUT
66
1
70
0
0
VERTEX
8
CUT
10
34.58
20
14.4595
0
VERTEX
8
CUT
10
33.03
20
12.3118
0
VERTEX
8
CUT
10
29.93
20
12.3118
0
VERTEX
8
CUT
10
28.38
20
14.4595
0
VERTEX
8
CUT
10
29.93
20
16.6072
0
VERTEX
8
CUT
10
33.03
20
16.6072
0
VERTEX
8
CUT
10
34.58
20
14.4595
0
SEQEND
0
POLYLINE
8
CUT
66
1
70
0
0
VERTEX
8
CUT
10
35.0411
20
13.8513
0
VERTEX
8
CUT
10
33.48
20
11.6882
0
VERTEX
8
CUT
10
30.3578
20
11.6882
0
SEQEND
0
POLYLINE
8
CUT
66
1
70
0
0
VERTEX
8
CUT
10
29.0411
20
12.2964
0
VERTEX
8
CUT
10
27.48
20
14.4595
0
VERTEX
8
CUT
10
29.0411
20
16.6226
0
SEQEND
0
POLYLINE
8
CUT
66
1
70
0
0
VERTEX
8
CUT
10
30.23
20
17.2308
0
VERTEX
8
CUT
10
33.48
20
17.2308
0
VERTEX
8
CUT
10
35.105
20
14.9791
0
SEQEND
0
POLYLINE
8
CUT
66
1
70
0
0
VERTEX
8
CUT
10
34.58
20
7.9169
0
VERTEX
8
CUT
10
33.03
20
5.7692
0
VERTEX
8
CUT
10
29.93
20
5.7692
0
VERTEX
8
CUT
10
28.38
20
7.9169
0
VERTEX
8
CUT
10
29.93
20
10.0647
0
VERTEX
8
CUT
10
33.03
20
10.0647
0
VERTEX
8
CUT
10
34.58
20
7.9169
0
SEQEND
0
POLYLINE
8
CUT
66
1
70
0
0
VERTEX
8
CUT
10
35.0411
20
7.3088
0
VERTEX
8
CUT
10
33.48
20
5.1457
0
VERTEX
8
CUT
10
30.3578
20
5.1457
0
SEQEND
0
POLYLINE
8
CUT
66
1
70
0
0
VERTEX
8
CUT
10
29.0411
20
5.7538
0
VERTEX
8
CUT
10
27.48
20
7.9169
0
VERTEX
8
CUT
10
29.0411
20
10.0801
0
SEQEND
0
POLYLINE
8
CUT
66
1
70
0
0
VERTEX
8
CUT
10
30.23
20
10.6882
0
VERTEX
8
CUT
10
33.48
20
10.6882
0
VERTEX
8
CUT
10
35.105
20
8.4366
0
SEQEND
0
LINE
8
CUT
10
34.58
20
1.3744
11
33.5881
21
0
0
POLYLINE
8
CUT
66
1
70
0
0
VERTEX
8
CUT
10
29.3719
20
0
0
VERTEX
8
CUT
10
28.38
20
1.3744
0
VERTEX
8
CUT
10
29.93
20
3.5221
0
VERTEX
8
CUT
10
33.03
20
3.5221
0
VERTEX
8
CUT
10
34.58
20
1.3744
0
SEQEND
0
LINE
8
CUT
10
35.0411
20
0.7662
11
34.4881
21
0
0
POLYLINE
8
CUT
66
1
70
0
0
VERTEX
8
CUT
10
28.4719
20
0
0
VERTEX
8
CUT
10
27.48
20
1.3744
0
VERTEX
8
CUT
10
29.0411
20
3.5375
0
SEQEND
0
POLYLINE
8
CUT
66
1
70
0
0
VERTEX
8
CUT
10
30.23
20
4.1457
0
VERTEX
8
CUT
10
33.48
20
4.1457
0
VERTEX
8
CUT
10
35.105
20
1.894
0
SEQEND
0
POLYLINE
8
CUT
66
1
70
0
0
VERTEX
8
CUT
10
41.3986
20
70
0
VERTEX
8
CUT
10
39.9
20
67.9235
0
VERTEX
8
CUT
10
36.8
20
67.9235
0
VERTEX
8
CUT
10
35.3014
20
70
0
SEQEND
0
POLYLINE
8
CUT
66
1
70
0
0
VERTEX
8
CUT
10
41.9111
20
69.4631
0
VERTEX
8
CUT
10
40.35
20
67.3
0
VERTEX
8
CUT
10
37.2278
20
67.3
0
SEQEND
0
LINE
8
CUT
10
35.9111
20
67.9082
11
34.4014
21
70
0
POLYLINE
8
CUT
66
1
70
0
0
VERTEX
8
CUT
10
41.45
20
63.5287
0
VERTEX
8
CUT
10
39.9
20
61.381
0
VERTEX
8
CUT
10
36.8
20
61.381
0
VERTEX
8
CUT
10
35.25
20
63.5287
0
VERTEX
8
CUT
10
36.8
20
65.6765
0
VERTEX
8
CUT
10
39.9
20
65.6765
0
VERTEX
8
CUT
10
41.45
20
63.5287
0
SEQEND
0
POLYLINE
8
CUT
66
1
70
0
0
VERTEX
8
CUT
10
41.9111
20
62.9206
0
VERTEX
8
CUT
10
40.35
20
60.7574
0
VERTEX
8
CUT
10
37.2278
20
60.7574
0
SEQEND
0
POLYLINE
8
CUT
66
1
70
0
0
VERTEX
8
CUT
10
35.9111
20
61.3656
0
VERTEX
8
CUT
10
34.35
20
63.5287
0
VERTEX
8
CUT
10
35.9111
20
65.6918
0
SEQEND
0
POLYLINE
8
CUT
66
1
70
0
0
VERTEX
8
CUT
10
37.1
20
66.3
0
VERTEX
8
CUT
10
40.35
20
66.3
0
VERTEX
8
CUT
10
41.975
20
64.0483
0
SEQEND
0
POLYLINE
8
CUT
66
1
70
0
0
VERTEX
8
CUT
10
41.45
20
56.9862
0
VERTEX
8
CUT
10
39.9
20
54.8384
0
VERTEX
8
CUT
10
36.8
20
54.8384
0
VERTEX
8
CUT
10
35.25
20
56.9862
0
VERTEX
8
CUT
10
36.8
20
59.1339
0
VERTEX
8
CUT
10
39.9
20
59.1339
0
VERTEX
8
CUT
10
41.45
20
56.9862
0
SEQEND
0
POLYLINE
8
CUT
66
1
70
0
0
VERTEX
8
CUT
10
41.9111
20
56.378
0
VERTEX
8
CUT
10
40.35
20
54.2149
0
VERTEX
8
CUT
10
37.2278
20
54.2149
0
SEQEND
0
POLYLINE
8
CUT
66
1
70
0
0
VERTEX
8
CUT
10
35.9111
20
54.823
0
VERTEX
8
CUT
10
34.35
20
56.9862
0
VERTEX
8
CUT
10
35.9111
20
59.1493
0
SEQEND
0
POLYLINE
8
CUT
66
1
70
0
0
VERTEX
8
CUT
10
37.1
20
59.7574
0
VERTEX
8
CUT
10
40.35
20
59.7574
0
VERTEX
8
CUT
10
41.975
20
57.5058
0
SEQEND
0
POLYLINE
8
CUT
66
1
70
0
0
VERTEX
8
CUT
10
41.45
20
50.4436
0
VERTEX
8
CUT
10
39.9
20
48.2959
0
VERTEX
8
CUT
10
36.8
20
48.2959
0
VERTEX
8
CUT
10
35.25
20
50.4436
0
VERTEX
8
CUT
10
36.8
20
52.5913
0
VERTEX
8
CUT
10
39.9
20
52.5913
0
VERTEX
8
CUT
10
41.45
20
50.4436
0
SEQEND
0
POLYLINE
8
CUT
66
1
70
0
0
VERTEX
8
CUT
10
41.9111
20
49.8354
0
VERTEX
8
CUT
10
40.35
20
47.6723
0
VERTEX
8
CUT
10
37.2278
20
47.6723
0
SEQEND
0
POLYLINE
8
CUT
66
1
70
0
0
VERTEX
8
CUT
10
35.9111
20
48.2805
0
VERTEX
8
CUT
10
34.35
20
50.4436
0
VERTEX
8
CUT
10
35.9111
20
52.6067
0
SEQEND
0
POLYLINE
8
CUT
66
1
70
0
0
VERTEX
8
CUT
10
37.1
20
53.2149
0
VERTEX
8
CUT
10
40.35
20
53.2149
0
VERTEX
8
CUT
10
41.975
20
50.9632
0
SEQEND
0
POLYLINE
8
CUT
66
1
70
0
0
VERTEX
8
CUT
10
41.45
20
43.901
0
VERTEX
8
CUT
10
39.9
20
41.7533
0
VERTEX
8
CUT
10
36.8
20
41.7533
0
VERTEX
8
CUT
10
35.25
20
43.901
0
VERTEX
8
CUT
10
36.8
20
46.0488
0
VERTEX
8
CUT
10
39.9
20
46.0488
0
VERTEX
8
CUT
10
41.45
20
43.901
0
SEQEND
0
POLYLINE
8
CUT
66
1
70
0
0
VERTEX
8
CUT
10
41.9111
20
43.2929
0
VERTEX
8
CUT
10
40.35
20
41.1297
0
VERTEX
8
CUT
10
37.2278
20
41.1297
0
SEQEND
0
POLYLINE
8
CUT
66
1
70
0
0
VERTEX
8
CUT
10
35.9111
20
41.7379
0
VERTEX
8
CUT
10
34.35
20
43.901
0
VERTEX
8
CUT
10
35.9111
20
46.0641
0
SEQEND
0
POLYLINE
8
CUT
66
1
70
0
0
VERTEX
8
CUT
10
37.1
20
46.6723
0
VERTEX
8
CUT
10
40.35
20
46.6723
0
VERTEX
8
CUT
10
41.975
20
44.4206
0
SEQEND
0
POLYLINE
8
CUT
66
1
70
0
0
VERTEX
8
CUT
10
41.45
20
37.3585
0
VERTEX
8
CUT
10
39.9
20
35.2107
0
VERTEX
8
CUT
10
36.8
20
35.2107
0
VERTEX
8
CUT
10
35.25
20
37.3585
0
VERTEX
8
CUT
10
36.8
20
39.5062
0
VERTEX
8
CUT
10
39.9
20
39.5062
0
VERTEX
8
CUT
10
41.45
20
37.3585
0
SEQEND
0
POLYLINE
8
CUT
66
1
70
0
0
VERTEX
8
CUT
10
41.9111
20
36.7503
0
VERTEX
8
CUT
10
40.35
20
34.5872
0
VERTEX
8
CUT
10
37.2278
20
34.5872
0
SEQEND
0
POLYLINE
8
CUT
66
1
70
0
0
VERTEX
8
CUT
10
35.9111
20
35.1954
0
VERTEX
8
CUT
10
34.35
20
37.3585
0
VERTEX
8
CUT
10
35.9111
20
39.5216
0
SEQEND
0
POLYLINE
8
CUT
66
1
70
0
0
VERTEX
8
CUT
10
37.1
20
40.1297
0
VERTEX
8
CUT
10
40.35
20
40.1297
0
VERTEX
8
CUT
10
41.975
20
37.8781
0
SEQEND
0
POLYLINE
8
CUT
66
1
70
0
0
VERTEX
8
CUT
10
41.45
20
30.8159
0
VERTEX
8
CUT
10
39.9
20
28.6682
0
VERTEX
8
CUT
10
36.8
20
28.6682
0
VERTEX
8
CUT
10
35.25
20
30.8159
0
VERTEX
8
CUT
10
36.8
20
32.9636
0
VERTEX
8
CUT
10
39.9
20
32.9636
0
VERTEX
8
CUT
10
41.45
20
30.8159
0
SEQEND
0
POLYLINE
8
CUT
66
1
70
0
0
VERTEX
8
CUT
10
41.9111
20
30.2077
0
VERTEX
8
CUT
10
40.35
20
28.0446
0
VERTEX
8
CUT
10
37.2278
20
28.0446
0
SEQEND
0
POLYLINE
8
CUT
66
1
70
0
0
VERTEX
8
CUT
10
35.9111
20
28.6528
0
VERTEX
8
CUT
10
34.35
20
30.8159
0
VERTEX
8
CUT
10
35.9111
20
32.979
0
SEQEND
0
POLYLINE
8
CUT
66
1
70
0
0
VERTEX
8
CUT
10
37.1
20
33.5872
0
VERTEX
8
CUT
10
40.35
20
33.5872
0
VERTEX
8
CUT
10
41.975
20
31.3355
0
SEQEND
0
POLYLINE
8
CUT
66
1
70
0
0
VERTEX
8
CUT
10
41.45
20
24.2733
0
VERTEX
8
CUT
10
39.9
20
22.1256
0
VERTEX
8
CUT
10
36.8
20
22.1256
0
VERTEX
8
CUT
10
35.25
20
24.2733
0
VERTEX
8
CUT
10
36.8
20
26.4211
0
VERTEX
8
CUT
10
39.9
20
26.4211
0
VERTEX
8
CUT
10
41.45
20
24.2733
0
SEQEND
0
POLYLINE
8
CUT
66
1
70
0
0
VERTEX
8
CUT
10
41.9111
20
23.6652
0
VERTEX
8
CUT
10
40.35
20
21.5021
0
VERTEX
8
CUT
10
37.2278
20
21.5021
0
SEQEND
0
POLYLINE
8
CUT
66
1
70
0
0
VERTEX
8
CUT
10
35.9111
20
22.1102
0
VERTEX
8
CUT
10
34.35
20
24.2733
0
VERTEX
8
CUT
10
35.9111
20
26.4365
0
SEQEND
0
POLYLINE
8
CUT
66
1
70
0
0
VERTEX
8
CUT
10
37.1
20
27.0446
0
VERTEX
8
CUT
10
40.35
20
27.0446
0
VERTEX
8
CUT
10
41.975
20
24.793
0
SEQEND
0
POLYLINE
8
CUT
66
1
70
0
0
VERTEX
8
CUT
10
41.45
20
17.7308
0
VERTEX
8
CUT
10
39.9
20
15.583
0
VERTEX
8
CUT
10
36.8
20
15.583
0
VERTEX
8
CUT
10
35.25
20
17.7308
0
VERTEX
8
CUT
10
36.8
20
19.8785
0
VERTEX
8
CUT
10
39.9
20
19.8785
0
VERTEX
8
CUT
10
41.45
20
17.7308
0
SEQEND
0
POLYLINE
8
CUT
66
1
70
0
0
VERTEX
8
CUT
10
41.9111
20
17.1226
0
VERTEX
8
CUT
10
40.35
20
14.9595
0
VERTEX
8
CUT
10
37.2278
20
14.9595
0
SEQEND
0
POLYLINE
8
CUT
66
1
70
0
0
VERTEX
8
CUT
10
35.9111
20
15.5677
0
VERTEX
8
CUT
10
34.35
20
17.7308
0
VERTEX
8
CUT
10
35.9111
20
19.8939
0
SEQEND
0
POLYLINE
8
CUT
66
1
70
0
0
VERTEX
8
CUT
10
37.1
20
20.5021
0
VERTEX
8
CUT
10
40.35
20
20.5021
0
VERTEX
8
CUT
10
41.975
20
18.2504
0
SEQEND
0
POLYLINE
8
CUT
66
1
70
0
0
VERTEX
8
CUT
10
41.45
20
11.1882
0
VERTEX
8
CUT
10
39.9
20
9.0405
0
VERTEX
8
CUT
10
36.8
20
9.0405
0
VERTEX
8
CUT
10
35.25
20
11.1882
0
VERTEX
8
CUT
10
36.8
20
13.336
0
VERTEX
8
CUT
10
39.9
20
13.336
0
VERTEX
8
CUT
10
41.45
20
11.1882
0
SEQEND
0
POLYLINE
8
CUT
66
1
70
0
0
VERTEX
8
CUT
10
41.9111
20
10.5801
0
VERTEX
8
CUT
10
40.35
20
8.4169
0
VERTEX
8
CUT
10
37.2278
20
8.4169
0
SEQEND
0
POLYLINE
8
CUT
66
1
70
0
0
VERTEX
8
CUT
10
35.9111
20
9.0251
0
VERTEX
8
CUT
10
34.35
20
11.1882
0
VERTEX
8
CUT
10
35.9111
20
13.3513
0
SEQEND
0
POLYLINE
8
CUT
66
1
70
0
0
VERTEX
8
CUT
10
37.1
20
13.9595
0
VERTEX
8
CUT
10
40.35
20
13.9595
0
VERTEX
8
CUT
10
41.975
20
11.7078
0
SEQEND
0
POLYLINE
8
CUT
66
1
70
0
0
VERTEX
8
CUT
10
41.45
20
4.6457
0
VERTEX
8
CUT
10
39.9
20
2.4979
0
VERTEX
8
CUT
10
36.8
20
2.4979
0
VERTEX
8
CUT
10
35.25
20
4.6457
0
VERTEX
8
CUT
10
36.8
20
6.7934
0
VERTEX
8
CUT
10
39.9
20
6.7934
0
VERTEX
8
CUT
10
41.45
20
4.6457
0
SEQEND
0
POLYLINE
8
CUT
66
1
70
0
0
VERTEX
8
CUT
10
41.9111
20
4.0375
0
VERTEX
8
CUT
10
40.35
20
1.8744
0
VERTEX
8
CUT
10
37.2278
20
1.8744
0
SEQEND
0
POLYLINE
8
CUT
66
1
70
0
0
VERTEX
8
CUT
10
35.9111
20
2.4825
0
VERTEX
8
CUT
10
34.35
20
4.6457
0
VERTEX
8
CUT
10
35.9111
20
6.8088
0
SEQEND
0
POLYLINE
8
CUT
66
1
70
0
0
VERTEX
8
CUT
10
37.1
20
7.4169
0
VERTEX
8
CUT
10
40.35
20
7.4169
0
VERTEX
8
CUT
10
41.975
20
5.1653
0
SEQEND
0
POLYLINE
8
CUT
66
1
70
0
0
VERTEX
8
CUT
10
36.619
20
0
0
VERTEX
8
CUT
10
36.8
20
0.2508
0
VERTEX
8
CUT
10
39.9
20
0.2508
0
VERTEX
8
CUT
10
40.081
20
0
0
SEQEND
0
LINE
8
CUT
10
35.719
20
0
11
35.9111
21
0.2662
0
POLYLINE
8
CUT
66
1
70
0
0
VERTEX
8
CUT
10
37.1
20
0.8744
0
VERTEX
8
CUT
10
40.35
20
0.8744
0
VERTEX
8
CUT
10
40.981
20
0
0
SEQEND
0
POLYLINE
8
CUT
66
1
70
0
0
VERTEX
8
CUT
10
48.32
20
66.8
0
VERTEX
8
CUT
10
46.77
20
64.6523
0
VERTEX
8
CUT
10
43.67
20
64.6523
0
VERTEX
8
CUT
10
42.12
20
66.8
0
VERTEX
8
CUT
10
43.67
20
68.9477
0
VERTEX
8
CUT
10
46.77
20
68.9477
0
VERTEX
8
CUT
10
48.32
20
66.8
0
SEQEND
0
POLYLINE
8
CUT
66
1
70
0
0
VERTEX
8
CUT
10
48.7811
20
66.1918
0
VERTEX
8
CUT
10
47.22
20
64.0287
0
VERTEX
8
CUT
10
44.0978
20
64.0287
0
SEQEND
0
POLYLINE
8
CUT
66
1
70
0
0
VERTEX
8
CUT
10
42.7811
20
64.6369
0
VERTEX
8
CUT
10
41.22
20
66.8
0
VERTEX
8
CUT
10
42.7811
20
68.9631
0
SEQEND
0
POLYLINE
8
CUT
66
1
70
0
0
VERTEX
8
CUT
10
43.97
20
69.5713
0
VERTEX
8
CUT
10
47.22
20
69.5713
0
VERTEX
8
CUT
10
48.845
20
67.3196
0
SEQEND
0
POLYLINE
8
CUT
66
1
70
0
0
VERTEX
8
CUT
10
48.32
20
60.2574
0
VERTEX
8
CUT
10
46.77
20
58.1097
0
VERTEX
8
CUT
10
43.67
20
58.1097
0
VERTEX
8
CUT
10
42.12
20
60.2574
0
VERTEX
8
CUT
10
43.67
20
62.4052
0
VERTEX
8
CUT
10
46.77
20
62.4052
0
VERTEX
8
CUT
10
48.32
20
60.2574
0
SEQEND
0
POLYLINE
8
CUT
66
1
70
0
0
VERTEX
8
CUT
10
48.7811
20
59.6493
0
VERTEX
8
CUT
10
47.22
20
57.4862
0
VERTEX
8
CUT
10
44.0978
20
57.4862
0
SEQEND
0
POLYLINE
8
CUT
66
1
70
0
0
VERTEX
8
CUT
10
42.7811
20
58.0943
0
VERTEX
8
CUT
10
41.22
20
60.2574
0
VERTEX
8
CUT
10
42.7811
20
62.4206
0
SEQEND
0
POLYLINE
8
CUT
66
1
70
0
0
VERTEX
8
CUT
10
43.97
20
63.0287
0
VERTEX
8
CUT
10
47.22
20
63.0287
0
VERTEX
8
CUT
10
48.845
20
60.7771
0
SEQEND
0
POLYLINE
8
CUT
66
1
70
0
0
VERTEX
8
CUT
10
48.32
20
53.7149
0
VERTEX
8
CUT
10
46.77
20
51.5671
0
VERTEX
8
CUT
10
43.67
20
51.5671
0
VERTEX
8
CUT
10
42.12
20
53.7149
0
VERTEX
8
CUT
10
43.67
20
55.8626
0
VERTEX
8
CUT
10
46.77
20
55.8626
0
VERTEX
8
CUT
10
48.32
20
53.7149
0
SEQEND
0
POLYLINE
8
CUT
66
1
70
0
0
VERTEX
8
CUT
10
48.7811
20
53.1067
0
VERTEX
8
CUT
10
47.22
20
50.9436
0
VERTEX
8
CUT
10
44.0978
20
50.9436
0
SEQEND
0
POLYLINE
8
CUT
66
1
70
0
0
VERTEX
8
CUT
10
42.7811
20
51.5518
0
VERTEX
8
CUT
10
41.22
20
53.7149
0
VERTEX
8
CUT
10
42.7811
20
55.878
0
SEQEND
0
POLYLINE
8
CUT
66
1
70
0
0
VERTEX
8
CUT
10
43.97
20
56.4862
0
VERTEX
8
CUT
10
47.22
20
56.4862
0
VERTEX
8
CUT
10
48.845
20
54.2345
0
SEQEND
0
POLYLINE
8
CUT
66
1
70
0
0
VERTEX
8
CUT
10
48.32
20
47.1723
0
VERTEX
8
CUT
10
46.77
20
45.0246
0
VERTEX
8
CUT
10
43.67
20
45.0246
0
VERTEX
8
CUT
10
42.12
20
47.1723
0
VERTEX
8
CUT
10
43.67
20
49.3201
0
VERTEX
8
CUT
10
46.77
20
49.3201
0
VERTEX
8
CUT
10
48.32
20
47.1723
0
SEQEND
0
POLYLINE
8
CUT
66
1
70
0
0
VERTEX
8
CUT
10
48.7811
20
46.5641
0
VERTEX
8
CUT
10
47.22
20
44.401
0
VERTEX
8
CUT
10
44.0978
20
44.401
0
SEQEND
0
POLYLINE
8
CUT
66
1
70
0
0
VERTEX
8
CUT
10
42.7811
20
45.0092
0
VERTEX
8
CUT
10
41.22
20
47.1723
0
VERTEX
8
CUT
10
42.7811
20
49.3354
0
SEQEND
0
POLYLINE
8
CUT
66
1
70
0
0
VERTEX
8
CUT
10
43.97
20
49.9436
0
VERTEX
8
CUT
10
47.22
20
49.9436
0
VERTEX
8
CUT
10
48.845
20
47.6919
0
SEQEND
0
POLYLINE
8
CUT
66
1
70
0
0
VERTEX
8
CUT
10
48.32
20
40.6297
0
VERTEX
8
CUT
10
46.77
20
38.482
0
VERTEX
8
CUT
10
43.67
20
38.482
0
VERTEX
8
CUT
10
42.12
20
40.6297
0
VERTEX
8
CUT
10
43.67
20
42.7775
0
VERTEX
8
CUT
10
46.77
20
42.7775
0
VERTEX
8
CUT
10
48.32
20
40.6297
0
SEQEND
0
POLYLINE
8
CUT
66
1
70
0
0
VERTEX
8
CUT
10
48.7811
20
40.0216
0
VERTEX
8
CUT
10
47.22
20
37.8585
0
VERTEX
8
CUT
10
44.0978
20
37.8585
0
SEQEND
0
POLYLINE
8
CUT
66
1
70
0
0
VERTEX
8
CUT
10
42.7811
20
38.4666
0
VERTEX
8
CUT
10
41.22
20
40.6297
0
VERTEX
8
CUT
10
42.7811
20
42.7929
0
SEQEND
0
POLYLINE
8
CUT
66
1
70
0
0
VERTEX
8
CUT
10
43.97
20
43.401
0
VERTEX
8
CUT
10
47.22
20
43.401
0
VERTEX
8
CUT
10
48.845
20
41.1494
0
SEQEND
0
POLYLINE
8
CUT
66
1
70
0
0
VERTEX
8
CUT
10
48.32
20
34.0872
0
VERTEX
8
CUT
10
46.77
20
31.9394
0
VERTEX
8
CUT
10
43.67
20
31.9394
0
VERTEX
8
CUT
10
42.12
20
34.0872
0
VERTEX
8
CUT
10
43.67
20
36.2349
0
VERTEX
8
CUT
10
46.77
20
36.2349
0
VERTEX
8
CUT
10
48.32
20
34.0872
0
SEQEND
0
POLYLINE
8
CUT
66
1
70
0
0
VERTEX
8
CUT
10
48.7811
20
33.479
0
VERTEX
8
CUT
10
47.22
20
31.3159
0
VERTEX
8
CUT
10
44.0978
20
31.3159
0
SEQEND
0
POLYLINE
8
CUT
66
1
70
0
0
VERTEX
8
CUT
10
42.7811
20
31.9241
0
VERTEX
8
CUT
10
41.22
20
34.0872
0
VERTEX
8
CUT
10
42.7811
20
36.2503
0
SEQEND
0
POLYLINE
8
CUT
66
1
70
0
0
VERTEX
8
CUT
10
43.97
20
36.8585
0
VERTEX
8
CUT
10
47.22
20
36.8585
0
VERTEX
8
CUT
10
48.845
20
34.6068
0
SEQEND
0
POLYLINE
8
CUT
66
1
70
0
0
VERTEX
8
CUT
10
48.32
20
27.5446
0
VERTEX
8
CUT
10
46.77
20
25.3969
0
VERTEX
8
CUT
10
43.67
20
25.3969
0
VERTEX
8
CUT
10
42.12
20
27.5446
0
VERTEX
8
CUT
10
43.67
20
29.6924
0
VERTEX
8
CUT
10
46.77
20
29.6924
0
VERTEX
8
CUT
10
48.32
20
27.5446
0
SEQEND
0
POLYLINE
8
CUT
66
1
70
0
0
VERTEX
8
CUT
10
48.7811
20
26.9365
0
VERTEX
8
CUT
10
47.22
20
24.7733
0
VERTEX
8
CUT
10
44.0978
20
24.7733
0
SEQEND
0
POLYLINE
8
CUT
66
1
70
0
0
VERTEX
8
CUT
10
42.7811
20
25.3815
0
VERTEX
8
CUT
10
41.22
20
27.5446
0
VERTEX
8
CUT
10
42.7811
20
29.7077
0
SEQEND
0
POLYLINE
8
CUT
66
1
70
0
0
VERTEX
8
CUT
10
43.97
20
30.3159
0
VERTEX
8
CUT
10
47.22
20
30.3159
0
VERTEX
8
CUT
10
48.845
20
28.0642
0
SEQEND
0
POLYLINE
8
CUT
66
1
70
0
0
VERTEX
8
CUT
10
48.32
20
21.0021
0
VERTEX
8
CUT
10
46.77
20
18.8543
0
VERTEX
8
CUT
10
43.67
20
18.8543
0
VERTEX
8
CUT
10
42.12
20
21.0021
0
VERTEX
8
CUT
10
43.67
20
23.1498
0
VERTEX
8
CUT
10
46.77
20
23.1498
0
VERTEX
8
CUT
10
48.32
20
21.0021
0
SEQEND
0
POLYLINE
8
CUT
66
1
70
0
0
VERTEX
8
CUT
10
48.7811
20
20.3939
0
VERTEX
8
CUT
10
47.22
20
18.2308
0
VERTEX
8
CUT
10
44.0978
20
18.2308
0
SEQEND
0
POLYLINE
8
CUT
66
1
70
0
0
VERTEX
8
CUT
10
42.7811
20
18.8389
0
VERTEX
8
CUT
10
41.22
20
21.0021
0
VERTEX
8
CUT
10
42.7811
20
23.1652
0
SEQEND
0
POLYLINE
8
CUT
66
1
70
0
0
VERTEX
8
CUT
10
43.97
20
23.7733
0
VERTEX
8
CUT
10
47.22
20
23.7733
0
VERTEX
8
CUT
10
48.845
20
21.5217
0
SEQEND
0
POLYLINE
8
CUT
66
1
70
0
0
VERTEX
8
CUT
10
48.32
20
14.4595
0
VERTEX
8
CUT
10
46.77
20
12.3118
0
VERTEX
8
CUT
10
43.67
20
12.3118
0
VERTEX
8
CUT
10
42.12
20
14.4595
0
VERTEX
8
CUT
10
43.67
20
16.6072
0
VERTEX
8
CUT
10
46.77
20
16.6072
0
VERTEX
8
CUT
10
48.32
20
14.4595
0
SEQEND
0
POLYLINE
8
CUT
66
1
70
0
0
VERTEX
8
CUT
10
48.7811
20
13.8513
0
VERTEX
8
CUT
10
47.22
20
11.6882
0
VERTEX
8
CUT
10
44.0978
20
11.6882
0
SEQEND
0
POLYLINE
8
CUT
66
1
70
0
0
VERTEX
8
CUT
10
42.7811
20
12.2964
0
VERTEX
8
CUT
10
41.22
20
14.4595
0
VERTEX
8
CUT
10
42.7811
20
16.6226
0
SEQEND
0
POLYLINE
8
CUT
66
1
70
0
0
VERTEX
8
CUT
10
43.97
20
17.2308
0
VERTEX
8
CUT
10
47.22
20
17.2308
0
VERTEX
8
CUT
10
48.845
20
14.9791
0
SEQEND
0
POLYLINE
8
CUT
66
1
70
0
0
VERTEX
8
CUT
10
48.32
20
7.9169
0
VERTEX
8
CUT
10
46.77
20
5.7692
0
VERTEX
8
CUT
10
43.67
20
5.7692
0
VERTEX
8
CUT
10
42.12
20
7.9169
0
VERTEX
8
CUT
10
43.67
20
10.0647
0
VERTEX
8
CUT
10
46.77
20
10.0647
0
VERTEX
8
CUT
10
48.32
20
7.9169
0
SEQEND
0
POLYLINE
8
CUT
66
1
70
0
0
VERTEX
8
CUT
10
48.7811
20
7.3088
0
VERTEX
8
CUT
10
47.22
20
5.1457
0
VERTEX
8
CUT
10
44.0978
20
5.1457
0
SEQEND
0
POLYLINE
8
CUT
66
1
70
0
0
VERTEX
8
CUT
10
42.7811
20
5.7538
0
VERTEX
8
CUT
10
41.22
20
7.9169
0
VERTEX
8
CUT
10
42.7811
20
10.0801
0
SEQEND
0
POLYLINE
8
CUT
66
1
70
0
0
VERTEX
8
CUT
10
43.97
20
10.6882
0
VERTEX
8
CUT
10
47.22
20
10.6882
0
VERTEX
8
CUT
10
48.845
20
8.4366
0
SEQEND
0
LINE
8
CUT
10
48.32
20
1.3744
11
47.3281
21
0
0
POLYLINE
8
CUT
66
1
70
0
0
VERTEX
8
CUT
10
43.1119
20
0
0
VERTEX
8
CUT
10
42.12
20
1.3744
0
VERTEX
8
CUT
10
43.67
20
3.5221
0
VERTEX
8
CUT
10
46.77
20
3.5221
0
VERTEX
8
CUT
10
48.32
20
1.3744
0
SEQEND
0
LINE
8
CUT
10
48.7811
20
0.7662
11
48.2281
21
0
0
POLYLINE
8
CUT
66
1
70
0
0
VERTEX
8
CUT
10
42.2119
20
0
0
VERTEX
8
CUT
10
41.22
20
1.3744
0
VERTEX
8
CUT
10
42.7811
20
3.5375
0
SEQEND
0
POLYLINE
8
CUT
66
1
70
0
0
VERTEX
8
CUT
10
43.97
20
4.1457
0
VERTEX
8
CUT
10
47.22
20
4.1457
0
VERTEX
8
CUT
10
48.845
20
1.894
0
SEQEND
0
POLYLINE
8
CUT
66
1
70
0
0
VERTEX
8
CUT
10
55.1386
20
70
0
VERTEX
8
CUT
10
53.64
20
67.9235
0
VERTEX
8
CUT
10
50.54
20
67.9235
0
VERTEX
8
CUT
10
49.0414
20
70
0
SEQEND
0
POLYLINE
8
CUT
66
1
70
0
0
VERTEX
8
CUT
10
55.6511
20
69.4631
0
VERTEX
8
CUT
10
54.09
20
67.3
0
VERTEX
8
CUT
10
50.9678
20
67.3
0
SEQEND
0
LINE
8
CUT
10
49.6511
20
67.9082
11
48.1414
21
70
0
POLYLINE
8
CUT
66
1
70
0
0
VERTEX
8
CUT
10
55.19
20
63.5287
0
VERTEX
8
CUT
10
53.64
20
61.381
0
VERTEX
8
CUT
10
50.54
20
61.381
0
VERTEX
8
CUT
10
48.99
20
63.5287
0
VERTEX
8
CUT
10
50.54
20
65.6765
0
VERTEX
8
CUT
10
53.64
20
65.6765
0
VERTEX
8
CUT
10
55.19
20
63.5287
0
SEQEND
0
POLYLINE
8
CUT
66
1
70
0
0
VERTEX
8
CUT
10
55.6511
20
62.9206
0
VERTEX
8
CUT
10
54.09
20
60.7574
0
VERTEX
8
CUT
10
50.9678
20
60.7574
0
SEQEND
0
POLYLINE
8
CUT
66
1
70
0
0
VERTEX
8
CUT
10
49.6511
20
61.3656
0
VERTEX
8
CUT
10
48.09
20
63.5287
0
VERTEX
8
CUT
10
49.6511
20
65.6918
0
SEQEND
0
POLYLINE
8
CUT
66
1
70
0
0
VERTEX
8
CUT
10
50.84
20
66.3
0
VERTEX
8
CUT
10
54.09
20
66.3
0
VERTEX
8
CUT
10
55.715
20
64.0483
0
SEQEND
0
POLYLINE
8
CUT
66
1
70
0
0
VERTEX
8
CUT
10
55.19
20
56.9862
0
VERTEX
8
CUT
10
53.64
20
54.8384
0
VERTEX
8
CUT
10
50.54
20
54.8384
0
VERTEX
8
CUT
10
48.99
20
56.9862
0
VERTEX
8
CUT
10
50.54
20
59.1339
0
VERTEX
8
CUT
10
53.64
20
59.1339
0
VERTEX
8
CUT
10
55.19
20
56.9862
0
SEQEND
0
POLYLINE
8
CUT
66
1
70
0
0
VERTEX
8
CUT
10
55.6511
20
56.378
0
VERTEX
8
CUT
10
54.09
20
54.2149
0
VERTEX
8
CUT
10
50.9678
20
54.2149
0
SEQEND
0
POLYLINE
8
CUT
66
1
70
0
0
VERTEX
8
CUT
10
49.6511
20
54.823
0
VERTEX
8
CUT
10
48.09
20
56.9862
0
VERTEX
8
CUT
10
49.6511
20
59.1493
0
SEQEND
0
POLYLINE
8
CUT
66
1
70
0
0
VERTEX
8
CUT
10
50.84
20
59.7574
0
VERTEX
8
CUT
10
54.09
20
59.7574
0
VERTEX
8
CUT
10
55.715
20
57.5058
0
SEQEND
0
POLYLINE
8
CUT
66
1
70
0
0
VERTEX
8
CUT
10
55.19
20
50.4436
0
VERTEX
8
CUT
10
53.64
20
48.2959
0
VERTEX
8
CUT
10
50.54
20
48.2959
0
VERTEX
8
CUT
10
48.99
20
50.4436
0
VERTEX
8
CUT
10
50.54
20
52.5913
0
VERTEX
8
CUT
10
53.64
20
52.5913
0
VERTEX
8
CUT
10
55.19
20
50.4436
0
SEQEND
0
POLYLINE
8
CUT
66
1
70
0
0
VERTEX
8
CUT
10
55.6511
20
49.8354
0
VERTEX
8
CUT
10
54.09
20
47.6723
0
VERTEX
8
CUT
10
50.9678
20
47.6723
0
SEQEND
0
POLYLINE
8
CUT
66
1
70
0
0
VERTEX
8
CUT
10
49.6511
20
48.2805
0
VERTEX
8
CUT
10
48.09
20
50.4436
0
VERTEX
8
CUT
10
49.6511
20
52.6067
0
SEQEND
0
POLYLINE
8
CUT
66
1
70
0
0
VERTEX
8
CUT
10
50.84
20
53.2149
0
VERTEX
8
CUT
10
54.09
20
53.2149
0
VERTEX
8
CUT
10
55.715
20
50.9632
0
SEQEND
0
POLYLINE
8
CUT
66
1
70
0
0
VERTEX
8
CUT
10
55.19
20
43.901
0
VERTEX
8
CUT
10
53.64
20
41.7533
0
VERTEX
8
CUT
10
50.54
20
41.7533
0
VERTEX
8
CUT
10
48.99
20
43.901
0
VERTEX
8
CUT
10
50.54
20
46.0488
0
VERTEX
8
CUT
10
53.64
20
46.0488
0
VERTEX
8
CUT
10
55.19
20
43.901
0
SEQEND
0
POLYLINE
8
CUT
66
1
70
0
0
VERTEX
8
CUT
10
55.6511
20
43.2929
0
VERTEX
8
CUT
10
54.09
20
41.1297
0
VERTEX
8
CUT
10
50.9678
20
41.1297
0
SEQEND
0
POLYLINE
8
CUT
66
1
70
0
0
VERTEX
8
CUT
10
49.6511
20
41.7379
0
VERTEX
8
CUT
10
48.09
20
43.901
0
VERTEX
8
CUT
10
49.6511
20
46.0641
0
SEQEND
0
POLYLINE
8
CUT
66
1
70
0
0
VERTEX
8
CUT
10
50.84
20
46.6723
0
VERTEX
8
CUT
10
54.09
20
46.6723
0
VERTEX
8
CUT
10
55.715
20
44.4206
0
SEQEND
0
POLYLINE
8
CUT
66
1
70
0
0
VERTEX
8
CUT
10
55.19
20
37.3585
0
VERTEX
8
CUT
10
53.64
20
35.2107
0
VERTEX
8
CUT
10
50.54
20
35.2107
0
VERTEX
8
CUT
10
48.99
20
37.3585
0
VERTEX
8
CUT
10
50.54
20
39.5062
0
VERTEX
8
CUT
10
53.64
20
39.5062
0
VERTEX
8
CUT
10
55.19
20
37.3585
0
SEQEND
0
POLYLINE
8
CUT
66
1
70
0
0
VERTEX
8
CUT
10
55.6511
20
36.7503
0
VERTEX
8
CUT
10
54.09
20
34.5872
0
VERTEX
8
CUT
10
50.9678
20
34.5872
0
SEQEND
0
POLYLINE
8
CUT
66
1
70
0
0
VERTEX
8
CUT
10
49.6511
20
35.1954
0
VERTEX
8
CUT
10
48.09
20
37.3585
0
VERTEX
8
CUT
10
49.6511
20
39.5216
0
SEQEND
0
POLYLINE
8
CUT
66
1
70
0
0
VERTEX
8
CUT
10
50.84
20
40.1297
0
VERTEX
8
CUT
10
54.09
20
40.1297
0
VERTEX
8
CUT
10
55.715
20
37.8781
0
SEQEND
0
POLYLINE
8
CUT
66
1
70
0
0
VERTEX
8
CUT
10
55.19
20
30.8159
0
VERTEX
8
CUT
10
53.64
20
28.6682
0
VERTEX
8
CUT
10
50.54
20
28.6682
0
VERTEX
8
CUT
10
48.99
20
30.8159
0
VERTEX
8
CUT
10
50.54
20
32.9636
0
VERTEX
8
CUT
10
53.64
20
32.9636
0
VERTEX
8
CUT
10
55.19
20
30.8159
0
SEQEND
0
POLYLINE
8
CUT
66
1
70
0
0
VERTEX
8
CUT
10
55.6511
20
30.2077
0
VERTEX
8
CUT
10
54.09
20
28.0446
0
VERTEX
8
CUT
10
50.9678
20
28.0446
0
SEQEND
0
POLYLINE
8
CUT
66
1
70
0
0
VERTEX
8
CUT
10
49.6511
20
28.6528
0
VERTEX
8
CUT
10
48.09
20
30.8159
0
VERTEX
8
CUT
10
49.6511
20
32.979
0
SEQEND
0
POLYLINE
8
CUT
66
1
70
0
0
VERTEX
8
CUT
10
50.84
20
33.5872
0
VERTEX
8
CUT
10
54.09
20
33.5872
0
VERTEX
8
CUT
10
55.715
20
31.3355
0
SEQEND
0
POLYLINE
8
CUT
66
1
70
0
0
VERTEX
8
CUT
10
55.19
20
24.2733
0
VERTEX
8
CUT
10
53.64
20
22.1256
0
VERTEX
8
CUT
10
50.54
20
22.1256
0
VERTEX
8
CUT
10
48.99
20
24.2733
0
VERTEX
8
CUT
10
50.54
20
26.4211
0
VERTEX
8
CUT
10
53.64
20
26.4211
0
VERTEX
8
CUT
10
55.19
20
24.2733
0
SEQEND
0
POLYLINE
8
CUT
66
1
70
0
0
VERTEX
8
CUT
10
55.6511
20
23.6652
0
VERTEX
8
CUT
10
54.09
20
21.5021
0
VERTEX
8
CUT
10
50.9678
20
21.5021
0
SEQEND
0
POLYLINE
8
CUT
66
1
70
0
0
VERTEX
8
CUT
10
49.6511
20
22.1102
0
VERTEX
8
CUT
10
48.09
20
24.2733
0
VERTEX
8
CUT
10
49.6511
20
26.4365
0
SEQEND
0
POLYLINE
8
CUT
66
1
70
0
0
VERTEX
8
CUT
10
50.84
20
27.0446
0
VERTEX
8
CUT
10
54.09
20
27.0446
0
VERTEX
8
CUT
10
55.715
20
24.793
0
SEQEND
0
POLYLINE
8
CUT
66
1
70
0
0
VERTEX
8
CUT
10
55.19
20
17.7308
0
VERTEX
8
CUT
10
53.64
20
15.583
0
VERTEX
8
CUT
10
50.54
20
15.583
0
VERTEX
8
CUT
10
48.99
20
17.7308
0
VERTEX
8
CUT
10
50.54
20
19.8785
0
VERTEX
8
CUT
10
53.64
20
19.8785
0
VERTEX
8
CUT
10
55.19
20
17.7308
0
SEQEND
0
POLYLINE
8
CUT
66
1
70
0
0
VERTEX
8
CUT
10
55.6511
20
17.1226
0
VERTEX
8
CUT
10
54.09
20
14.9595
0
VERTEX
8
CUT
10
50.9678
20
14.9595
0
SEQEND
0
POLYLINE
8
CUT
66
1
70
0
0
VERTEX
8
CUT
10
49.6511
20
15.5677
0
VERTEX
8
CUT
10
48.09
20
17.7308
0
VERTEX
8
CUT
10
49.6511
20
19.8939
0
SEQEND
0
POLYLINE
8
CUT
66
1
70
0
0
VERTEX
8
CUT
10
50.84
20
20.5021
0
VERTEX
8
CUT
10
54.09
20
20.5021
0
VERTEX
8
CUT
10
55.715
20
18.2504
0
SEQEND
0
POLYLINE
8
CUT
66
1
70
0
0
VERTEX
8
CUT
10
55.19
20
11.1882
0
VERTEX
8
CUT
10
53.64
20
9.0405
0
VERTEX
8
CUT
10
50.54
20
9.0405
0
VERTEX
8
CUT
10
48.99
20
11.1882
0
VERTEX
8
CUT
10
50.54
20
13.336
0
VERTEX
8
CUT
10
53.64
20
13.336
0
VERTEX
8
CUT
10
55.19
20
11.1882
0
SEQEND
0
POLYLINE
8
CUT
66
1
70
0
0
VERTEX
8
CUT
10
55.6511
20
10.5801
0
VERTEX
8
CUT
10
54.09
20
8.4169
0
VERTEX
8
CUT
10
50.9678
20
8.4169
0
SEQEND
0
POLYLINE
8
CUT
66
1
70
0
0
VERTEX
8
CUT
10
49.6511
20
9.0251
0
VERTEX
8
CUT
10
48.09
20
11.1882
0
VERTEX
8
CUT
10
49.6511
20
13.3513
0
SEQEND
0
POLYLINE
8
CUT
66
1
70
0
0
VERTEX
8
CUT
10
50.84
20
13.9595
0
VERTEX
8
CUT
10
54.09
20
13.9595
0
VERTEX
8
CUT
10
55.715
20
11.7078
0
SEQEND
0
POLYLINE
8
CUT
66
1
70
0
0
VERTEX
8
CUT
10
55.19
20
4.6457
0
VERTEX
8
CUT
10
53.64
20
2.4979
0
VERTEX
8
CUT
10
50.54
20
2.4979
0
VERTEX
8
CUT
10
48.99
20
4.6457
0
VERTEX
8
CUT
10
50.54
20
6.7934
0
VERTEX
8
CUT
10
53.64
20
6.7934
0
VERTEX
8
CUT
10
55.19
20
4.6457
0
SEQEND
0
POLYLINE
8
CUT
66
1
70
0
0
VERTEX
8
CUT
10
55.6511
20
4.0375
0
VERTEX
8
CUT
10
54.09
20
1.8744
0
VERTEX
8
CUT
10
50.9678
20
1.8744
0
SEQEND
0
POLYLINE
8
CUT
66
1
70
0
0
VERTEX
8
CUT
10
49.6511
20
2.4825
0
VERTEX
8
CUT
10
48.09
20
4.6457
0
VERTEX
8
CUT
10
49.6511
20
6.8088
0
SEQEND
0
POLYLINE
8
CUT
66
1
70
0
0
VERTEX
8
CUT
10
50.84
20
7.4169
0
VERTEX
8
CUT
10
54.09
20
7.4169
0
VERTEX
8
CUT
10
55.715
20
5.1653
0
SEQEND
0
POLYLINE
8
CUT
66
1
70
0
0
VERTEX
8
CUT
10
50.359
20
0
0
VERTEX
8
CUT
10
50.54
20
0.2508
0
VERTEX
8
CUT
10
53.64
20
0.2508
0
VERTEX
8
CUT
10
53.821
20
0
0
SEQEND
0
LINE
8
CUT
10
49.459
20
0
11
49.6511
21
0.2662
0
POLYLINE
8
CUT
66
1
70
0
0
VERTEX
8
CUT
10
50.84
20
0.8744
0
VERTEX
8
CUT
10
54.09
20
0.8744
0
VERTEX
8
CUT
10
54.721
20
0
0
SEQEND
0
POLYLINE
8
CUT
66
1
70
0
0
VERTEX
8
CUT
10
62.06
20
66.8
0
VERTEX
8
CUT
10
60.51
20
64.6523
0
VERTEX
8
CUT
10
57.41
20
64.6523
0
VERTEX
8
CUT
10
55.86
20
66.8
0
VERTEX
8
CUT
10
57.41
20
68.9477
0
VERTEX
8
CUT
10
60.51
20
68.9477
0
VERTEX
8
CUT
10
62.06
20
66.8
0
SEQEND
0
POLYLINE
8
CUT
66
1
70
0
0
VERTEX
8
CUT
10
62.5211
20
66.1918
0
VERTEX
8
CUT
10
60.96
20
64.0287
0
VERTEX
8
CUT
10
57.8378
20
64.0287
0
SEQEND
0
POLYLINE
8
CUT
66
1
70
0
0
VERTEX
8
CUT
10
56.5211
20
64.6369
0
VERTEX
8
CUT
10
54.96
20
66.8
0
VERTEX
8
CUT
10
56.5211
20
68.9631
0
SEQEND
0
POLYLINE
8
CUT
66
1
70
0
0
VERTEX
8
CUT
10
57.71
20
69.5713
0
VERTEX
8
CUT
10
60.96
20
69.5713
0
VERTEX
8
CUT
10
62.585
20
67.3196
0
SEQEND
0
POLYLINE
8
CUT
66
1
70
0
0
VERTEX
8
CUT
10
62.06
20
60.2574
0
VERTEX
8
CUT
10
60.51
20
58.1097
0
VERTEX
8
CUT
10
57.41
20
58.1097
0
VERTEX
8
CUT
10
55.86
20
60.2574
0
VERTEX
8
CUT
10
57.41
20
62.4052
0
VERTEX
8
CUT
10
60.51
20
62.4052
0
VERTEX
8
CUT
10
62.06
20
60.2574
0
SEQEND
0
POLYLINE
8
CUT
66
1
70
0
0
VERTEX
8
CUT
10
62.5211
20
59.6493
0
VERTEX
8
CUT
10
60.96
20
57.4862
0
VERTEX
8
CUT
10
57.8378
20
57.4862
0
SEQEND
0
POLYLINE
8
CUT
66
1
70
0
0
VERTEX
8
CUT
10
56.5211
20
58.0943
0
VERTEX
8
CUT
10
54.96
20
60.2574
0
VERTEX
8
CUT
10
56.5211
20
62.4206
0
SEQEND
0
POLYLINE
8
CUT
66
1
70
0
0
VERTEX
8
CUT
10
57.71
20
63.0287
0
VERTEX
8
CUT
10
60.96
20
63.0287
0
VERTEX
8
CUT
10
62.585
20
60.7771
0
SEQEND
0
POLYLINE
8
CUT
66
1
70
0
0
VERTEX
8
CUT
10
62.06
20
53.7149
0
VERTEX
8
CUT
10
60.51
20
51.5671
0
VERTEX
8
CUT
10
57.41
20
51.5671
0
VERTEX
8
CUT
10
55.86
20
53.7149
0
VERTEX
8
CUT
10
57.41
20
55.8626
0
VERTEX
8
CUT
10
60.51
20
55.8626
0
VERTEX
8
CUT
10
62.06
20
53.7149
0
SEQEND
0
POLYLINE
8
CUT
66
1
70
0
0
VERTEX
8
CUT
10
62.5211
20
53.1067
0
VERTEX
8
CUT
10
60.96
20
50.9436
0
VERTEX
8
CUT
10
57.8378
20
50.9436
0
SEQEND
0
POLYLINE
8
CUT
66
1
70
0
0
VERTEX
8
CUT
10
56.5211
20
51.5518
0
VERTEX
8
CUT
10
54.96
20
53.7149
0
VERTEX
8
CUT
10
56.5211
20
55.878
0
SEQEND
0
POLYLINE
8
CUT
66
1
70
0
0
VERTEX
8
CUT
10
57.71
20
56.4862
0
VERTEX
8
CUT
10
60.96
20
56.4862
0
VERTEX
8
CUT
10
62.585
20
54.2345
0
SEQEND
0
POLYLINE
8
CUT
66
1
70
0
0
VERTEX
8
CUT
10
62.06
20
47.1723
0
VERTEX
8
CUT
10
60.51
20
45.0246
0
VERTEX
8
CUT
10
57.41
20
45.0246
0
VERTEX
8
CUT
10
55.86
20
47.1723
0
VERTEX
8
CUT
10
57.41
20
49.3201
0
VERTEX
8
CUT
10
60.51
20
49.3201
0
VERTEX
8
CUT
10
62.06
20
47.1723
0
SEQEND
0
POLYLINE
8
CUT
66
1
70
0
0
VERTEX
8
CUT
10
62.5211
20
46.5641
0
VERTEX
8
CUT
10
60.96
20
44.401
0
VERTEX
8
CUT
10
57.8378
20
44.401
0
SEQEND
0
POLYLINE
8
CUT
66
1
70
0
0
VERTEX
8
CUT
10
56.5211
20
45.0092
0
VERTEX
8
CUT
10
54.96
20
47.1723
0
VERTEX
8
CUT
10
56.5211
20
49.3354
0
SEQEND
0
POLYLINE
8
CUT
66
1
70
0
0
VERTEX
8
CUT
10
57.71
20
49.9436
0
VERTEX
8
CUT
10
60.96
20
49.9436
0
VERTEX
8
CUT
10
62.585
20
47.6919
0
SEQEND
0
POLYLINE
8
CUT
66
1
70
0
0
VERTEX
8
CUT
10
62.06
20
40.6297
0
VERTEX
8
CUT
10
60.51
20
38.482
0
VERTEX
8
CUT
10
57.41
20
38.482
0
VERTEX
8
CUT
10
55.86
20
40.6297
0
VERTEX
8
CUT
10
57.41
20
42.7775
0
VERTEX
8
CUT
10
60.51
20
42.7775
0
VERTEX
8
CUT
10
62.06
20
40.6297
0
SEQEND
0
POLYLINE
8
CUT
66
1
70
0
0
VERTEX
8
CUT
10
62.5211
20
40.0216
0
VERTEX
8
CUT
10
60.96
20
37.8585
0
VERTEX
8
CUT
10
57.8378
20
37.8585
0
SEQEND
0
POLYLINE
8
CUT
66
1
70
0
0
VERTEX
8
CUT
10
56.5211
20
38.4666
0
VERTEX
8
CUT
10
54.96
20
40.6297
0
VERTEX
8
CUT
10
56.5211
20
42.7929
0
SEQEND
0
POLYLINE
8
CUT
66
1
70
0
0
VERTEX
8
CUT
10
57.71
20
43.401
0
VERTEX
8
CUT
10
60.96
20
43.401
0
VERTEX
8
CUT
10
62.585
20
41.1494
0
SEQEND
0
POLYLINE
8
CUT
66
1
70
0
0
VERTEX
8
CUT
10
62.06
20
34.0872
0
VERTEX
8
CUT
10
60.51
20
31.9394
0
VERTEX
8
CUT
10
57.41
20
31.9394
0
VERTEX
8
CUT
10
55.86
20
34.0872
0
VERTEX
8
CUT
10
57.41
20
36.2349
0
VERTEX
8
CUT
10
60.51
20
36.2349
0
VERTEX
8
CUT
10
62.06
20
34.0872
0
SEQEND
0
POLYLINE
8
CUT
66
1
70
0
0
VERTEX
8
CUT
10
62.5211
20
33.479
0
VERTEX
8
CUT
10
60.96
20
31.3159
0
VERTEX
8
CUT
10
57.8378
20
31.3159
0
SEQEND
0
POLYLINE
8
CUT
66
1
70
0
0
VERTEX
8
CUT
10
56.5211
20
31.9241
0
VERTEX
8
CUT
10
54.96
20
34.0872
0
VERTEX
8
CUT
10
56.5211
20
36.2503
0
SEQEND
0
POLYLINE
8
CUT
66
1
70
0
0
VERTEX
8
CUT
10
57.71
20
36.8585
0
VERTEX
8
CUT
10
60.96
20
36.8585
0
VERTEX
8
CUT
10
62.585
20
34.6068
0
SEQEND
0
POLYLINE
8
CUT
66
1
70
0
0
VERTEX
8
CUT
10
62.06
20
27.5446
0
VERTEX
8
CUT
10
60.51
20
25.3969
0
VERTEX
8
CUT
10
57.41
20
25.3969
0
VERTEX
8
CUT
10
55.86
20
27.5446
0
VERTEX
8
CUT
10
57.41
20
29.6924
0
VERTEX
8
CUT
10
60.51
20
29.6924
0
VERTEX
8
CUT
10
62.06
20
27.5446
0
SEQEND
0
POLYLINE
8
CUT
66
1
70
0
0
VERTEX
8
CUT
10
62.5211
20
26.9365
0
VERTEX
8
CUT
10
60.96
20
24.7733
0
VERTEX
8
CUT
10
57.8378
20
24.7733
0
SEQEND
0
POLYLINE
8
CUT
66
1
70
0
0
VERTEX
8
CUT
10
56.5211
20
25.3815
0
VERTEX
8
CUT
10
54.96
20
27.5446
0
VERTEX
8
CUT
10
56.5211
20
29.7077
0
SEQEND
0
POLYLINE
8
CUT
66
1
70
0
0
VERTEX
8
CUT
10
57.71
20
30.3159
0
VERTEX
8
CUT
10
60.96
20
30.3159
0
VERTEX
8
CUT
10
62.585
20
28.0642
0
SEQEND
0
POLYLINE
8
CUT
66
1
70
0
0
VERTEX
8
CUT
10
62.06
20
21.0021
0
VERTEX
8
CUT
10
60.51
20
18.8543
0
VERTEX
8
CUT
10
57.41
20
18.8543
0
VERTEX
8
CUT
10
55.86
20
21.0021
0
VERTEX
8
CUT
10
57.41
20
23.1498
0
VERTEX
8
CUT
10
60.51
20
23.1498
0
VERTEX
8
CUT
10
62.06
20
21.0021
0
SEQEND
0
POLYLINE
8
CUT
66
1
70
0
0
VERTEX
8
CUT
10
62.5211
20
20.3939
0
VERTEX
8
CUT
10
60.96
20
18.2308
0
VERTEX
8
CUT
10
57.8378
20
18.2308
0
SEQEND
0
POLYLINE
8
CUT
66
1
70
0
0
VERTEX
8
CUT
10
56.5211
20
18.8389
0
VERTEX
8
CUT
10
54.96
20
21.0021
0
VERTEX
8
CUT
10
56.5211
20
23.1652
0
SEQEND
0
POLYLINE
8
CUT
66
1
70
0
0
VERTEX
8
CUT
10
57.71
20
23.7733
0
VERTEX
8
CUT
10
60.96
20
23.7733
0
VERTEX
8
CUT
10
62.585
20
21.5217
0
SEQEND
0
POLYLINE
8
CUT
66
1
70
0
0
VERTEX
8
CUT
10
62.06
20
14.4595
0
VERTEX
8
CUT
10
60.51
20
12.3118
0
VERTEX
8
CUT
10
57.41
20
12.3118
0
VERTEX
8
CUT
10
55.86
20
14.4595
0
VERTEX
8
CUT
10
57.41
20
16.6072
0
VERTEX
8
CUT
10
60.51
20
16.6072
0
VERTEX
8
CUT
10
62.06
20
14.4595
0
SEQEND
0
POLYLINE
8
CUT
66
1
70
0
0
VERTEX
8
CUT
10
62.5211
20
13.8513
0
VERTEX
8
CUT
10
60.96
20
11.6882
0
VERTEX
8
CUT
10
57.8378
20
11.6882
0
SEQEND
0
POLYLINE
8
CUT
66
1
70
0
0
VERTEX
8
CUT
10
56.5211
20
12.2964
0
VERTEX
8
CUT
10
54.96
20
14.4595
0
VERTEX
8
CUT
10
56.5211
20
16.6226
0
SEQEND
0
POLYLINE
8
CUT
66
1
70
0
0
VERTEX
8
CUT
10
57.71
20
17.2308
0
VERTEX
8
CUT
10
60.96
20
17.2308
0
VERTEX
8
CUT
10
62.585
20
14.9791
0
SEQEND
0
POLYLINE
8
CUT
66
1
70
0
0
VERTEX
8
CUT
10
62.06
20
7.9169
0
VERTEX
8
CUT
10
60.51
20
5.7692
0
VERTEX
8
CUT
10
57.41
20
5.7692
0
VERTEX
8
CUT
10
55.86
20
7.9169
0
VERTEX
8
CUT
10
57.41
20
10.0647
0
VERTEX
8
CUT
10
60.51
20
10.0647
0
VERTEX
8
CUT
10
62.06
20
7.9169
0
SEQEND
0
POLYLINE
8
CUT
66
1
70
0
0
VERTEX
8
CUT
10
62.5211
20
7.3088
0
VERTEX
8
CUT
10
60.96
20
5.1457
0
VERTEX
8
CUT
10
57.8378
20
5.1457
0
SEQEND
0
POLYLINE
8
CUT
66
1
70
0
0
VERTEX
8
CUT
10
56.5211
20
5.7538
0
VERTEX
8
CUT
10
54.96
20
7.9169
0
VERTEX
8
CUT
10
56.5211
20
10.0801
0
SEQEND
0
POLYLINE
8
CUT
66
1
70
0
0
VERTEX
8
CUT
10
57.71
20
10.6882
0
VERTEX
8
CUT
10
60.96
20
10.6882
0
VERTEX
8
CUT
10
62.585
20
8.4366
0
SEQEND
0
LINE
8
CUT
10
62.06
20
1.3744
11
61.0681
21
0
0
POLYLINE
8
CUT
66
1
70
0
0
VERTEX
8
CUT
10
56.8519
20
0
0
VERTEX
8
CUT
10
55.86
20
1.3744
0
VERTEX
8
CUT
10
57.41
20
3.5221
0
VERTEX
8
CUT
10
60.51
20
3.5221
0
VERTEX
8
CUT
10
62.06
20
1.3744
0
SEQEND
0
LINE
8
CUT
10
62.5211
20
0.7662
11
61.9681
21
0
0
POLYLINE
8
CUT
66
1
70
0
0
VERTEX
8
CUT
10
55.9519
20
0
0
VERTEX
8
CUT
10
54.96
20
1.3744
0
VERTEX
8
CUT
10
56.5211
20
3.5375
0
SEQEND
0
POLYLINE
8
CUT
66
1
70
0
0
VERTEX
8
CUT
10
57.71
20
4.1457
0
VERTEX
8
CUT
10
60.96
20
4.1457
0
VERTEX
8
CUT
10
62.585
20
1.894
0
SEQEND
0
POLYLINE
8
CUT
66
1
70
0
0
VERTEX
8
CUT
10
68.8786
20
70
0
VERTEX
8
CUT
10
67.38
20
67.9235
0
VERTEX
8
CUT
10
64.28
20
67.9235
0
VERTEX
8
CUT
10
62.7814
20
70
0
SEQEND
0
POLYLINE
8
CUT
66
1
70
0
0
VERTEX
8
CUT
10
69.3911
20
69.4631
0
VERTEX
8
CUT
10
67.83
20
67.3
0
VERTEX
8
CUT
10
64.7078
20
67.3
0
SEQEND
0
LINE
8
CUT
10
63.3911
20
67.9082
11
61.8814
21
70
0
POLYLINE
8
CUT
66
1
70
0
0
VERTEX
8
CUT
10
68.93
20
63.5287
0
VERTEX
8
CUT
10
67.38
20
61.381
0
VERTEX
8
CUT
10
64.28
20
61.381
0
VERTEX
8
CUT
10
62.73
20
63.5287
0
VERTEX
8
CUT
10
64.28
20
65.6765
0
VERTEX
8
CUT
10
67.38
20
65.6765
0
VERTEX
8
CUT
10
68.93
20
63.5287
0
SEQEND
0
POLYLINE
8
CUT
66
1
70
0
0
VERTEX
8
CUT
10
69.3911
20
62.9206
0
VERTEX
8
CUT
10
67.83
20
60.7574
0
VERTEX
8
CUT
10
64.7078
20
60.7574
0
SEQEND
0
POLYLINE
8
CUT
66
1
70
0
0
VERTEX
8
CUT
10
63.3911
20
61.3656
0
VERTEX
8
CUT
10
61.83
20
63.5287
0
VERTEX
8
CUT
10
63.3911
20
65.6918
0
SEQEND
0
POLYLINE
8
CUT
66
1
70
0
0
VERTEX
8
CUT
10
64.58
20
66.3
0
VERTEX
8
CUT
10
67.83
20
66.3
0
VERTEX
8
CUT
10
69.455
20
64.0483
0
SEQEND
0
POLYLINE
8
CUT
66
1
70
0
0
VERTEX
8
CUT
10
68.93
20
56.9862
0
VERTEX
8
CUT
10
67.38
20
54.8384
0
VERTEX
8
CUT
10
64.28
20
54.8384
0
VERTEX
8
CUT
10
62.73
20
56.9862
0
VERTEX
8
CUT
10
64.28
20
59.1339
0
VERTEX
8
CUT
10
67.38
20
59.1339
0
VERTEX
8
CUT
10
68.93
20
56.9862
0
SEQEND
0
POLYLINE
8
CUT
66
1
70
0
0
VERTEX
8
CUT
10
69.3911
20
56.378
0
VERTEX
8
CUT
10
67.83
20
54.2149
0
VERTEX
8
CUT
10
64.7078
20
54.2149
0
SEQEND
0
POLYLINE
8
CUT
66
1
70
0
0
VERTEX
8
CUT
10
63.3911
20
54.823
0
VERTEX
8
CUT
10
61.83
20
56.9862
0
VERTEX
8
CUT
10
63.3911
20
59.1493
0
SEQEND
0
POLYLINE
8
CUT
66
1
70
0
0
VERTEX
8
CUT
10
64.58
20
59.7574
0
VERTEX
8
CUT
10
67.83
20
59.7574
0
VERTEX
8
CUT
10
69.455
20
57.5058
0
SEQEND
0
POLYLINE
8
CUT
66
1
70
0
0
VERTEX
8
CUT
10
68.93
20
50.4436
0
VERTEX
8
CUT
10
67.38
20
48.2959
0
VERTEX
8
CUT
10
64.28
20
48.2959
0
VERTEX
8
CUT
10
62.73
20
50.4436
0
VERTEX
8
CUT
10
64.28
20
52.5913
0
VERTEX
8
CUT
10
67.38
20
52.5913
0
VERTEX
8
CUT
10
68.93
20
50.4436
0
SEQEND
0
POLYLINE
8
CUT
66
1
70
0
0
VERTEX
8
CUT
10
69.3911
20
49.8354
0
VERTEX
8
CUT
10
67.83
20
47.6723
0
VERTEX
8
CUT
10
64.7078
20
47.6723
0
SEQEND
0
POLYLINE
8
CUT
66
1
70
0
0
VERTEX
8
CUT
10
63.3911
20
48.2805
0
VERTEX
8
CUT
10
61.83
20
50.4436
0
VERTEX
8
CUT
10
63.3911
20
52.6067
0
SEQEND
0
POLYLINE
8
CUT
66
1
70
0
0
VERTEX
8
CUT
10
64.58
20
53.2149
0
VERTEX
8
CUT
10
67.83
20
53.2149
0
VERTEX
8
CUT
10
69.455
20
50.9632
0
SEQEND
0
POLYLINE
8
CUT
66
1
70
0
0
VERTEX
8
CUT
10
68.93
20
43.901
0
VERTEX
8
CUT
10
67.38
20
41.7533
0
VERTEX
8
CUT
10
64.28
20
41.7533
0
VERTEX
8
CUT
10
62.73
20
43.901
0
VERTEX
8
CUT
10
64.28
20
46.0488
0
VERTEX
8
CUT
10
67.38
20
46.0488
0
VERTEX
8
CUT
10
68.93
20
43.901
0
SEQEND
0
POLYLINE
8
CUT
66
1
70
0
0
VERTEX
8
CUT
10
69.3911
20
43.2929
0
VERTEX
8
CUT
10
67.83
20
41.1297
0
VERTEX
8
CUT
10
64.7078
20
41.1297
0
SEQEND
0
POLYLINE
8
CUT
66
1
70
0
0
VERTEX
8
CUT
10
63.3911
20
41.7379
0
VERTEX
8
CUT
10
61.83
20
43.901
0
VERTEX
8
CUT
10
63.3911
20
46.0641
0
SEQEND
0
POLYLINE
8
CUT
66
1
70
0
0
VERTEX
8
CUT
10
64.58
20
46.6723
0
VERTEX
8
CUT
10
67.83
20
46.6723
0
VERTEX
8
CUT
10
69.455
20
44.4206
0
SEQEND
0
POLYLINE
8
CUT
66
1
70
0
0
VERTEX
8
CUT
10
68.93
20
37.3585
0
VERTEX
8
CUT
10
67.38
20
35.2107
0
VERTEX
8
CUT
10
64.28
20
35.2107
0
VERTEX
8
CUT
10
62.73
20
37.3585
0
VERTEX
8
CUT
10
64.28
20
39.5062
0
VERTEX
8
CUT
10
67.38
20
39.5062
0
VERTEX
8
CUT
10
68.93
20
37.3585
0
SEQEND
0
POLYLINE
8
CUT
66
1
70
0
0
VERTEX
8
CUT
10
69.3911
20
36.7503
0
VERTEX
8
CUT
10
67.83
20
34.5872
0
VERTEX
8
CUT
10
64.7078
20
34.5872
0
SEQEND
0
POLYLINE
8
CUT
66
1
70
0
0
VERTEX
8
CUT
10
63.3911
20
35.1954
0
VERTEX
8
CUT
10
61.83
20
37.3585
0
VERTEX
8
CUT
10
63.3911
20
39.5216
0
SEQEND
0
POLYLINE
8
CUT
66
1
70
0
0
VERTEX
8
CUT
10
64.58
20
40.1297
0
VERTEX
8
CUT
10
67.83
20
40.1297
0
VERTEX
8
CUT
10
69.455
20
37.8781
0
SEQEND
0
POLYLINE
8
CUT
66
1
70
0
0
VERTEX
8
CUT
10
68.93
20
30.8159
0
VERTEX
8
CUT
10
67.38
20
28.6682
0
VERTEX
8
CUT
10
64.28
20
28.6682
0
VERTEX
8
CUT
10
62.73
20
30.8159
0
VERTEX
8
CUT
10
64.28
20
32.9636
0
VERTEX
8
CUT
10
67.38
20
32.9636
0
VERTEX
8
CUT
10
68.93
20
30.8159
0
SEQEND
0
POLYLINE
8
CUT
66
1
70
0
0
VERTEX
8
CUT
10
69.3911
20
30.2077
0
VERTEX
8
CUT
10
67.83
20
28.0446
0
VERTEX
8
CUT
10
64.7078
20
28.0446
0
SEQEND
0
POLYLINE
8
CUT
66
1
70
0
0
VERTEX
8
CUT
10
63.3911
20
28.6528
0
VERTEX
8
CUT
10
61.83
20
30.8159
0
VERTEX
8
CUT
10
63.3911
20
32.979
0
SEQEND
0
POLYLINE
8
CUT
66
1
70
0
0
VERTEX
8
CUT
10
64.58
20
33.5872
0
VERTEX
8
CUT
10
67.83
20
33.5872
0
VERTEX
8
CUT
10
69.455
20
31.3355
0
SEQEND
0
POLYLINE
8
CUT
66
1
70
0
0
VERTEX
8
CUT
10
68.93
20
24.2733
0
VERTEX
8
CUT
10
67.38
20
22.1256
0
VERTEX
8
CUT
10
64.28
20
22.1256
0
VERTEX
8
CUT
10
62.73
20
24.2733
0
VERTEX
8
CUT
10
64.28
20
26.4211
0
VERTEX
8
CUT
10
67.38
20
26.4211
0
VERTEX
8
CUT
10
68.93
20
24.2733
0
SEQEND
0
POLYLINE
8
CUT
66
1
70
0
0
VERTEX
8
CUT
10
69.3911
20
23.6652
0
VERTEX
8
CUT
10
67.83
20
21.5021
0
VERTEX
8
CUT
10
64.7078
20
21.5021
0
SEQEND
0
POLYLINE
8
CUT
66
1
70
0
0
VERTEX
8
CUT
10
63.3911
20
22.1102
0
VERTEX
8
CUT
10
61.83
20
24.2733
0
VERTEX
8
CUT
10
63.3911
20
26.4365
0
SEQEND
0
POLYLINE
8
CUT
66
1
70
0
0
VERTEX
8
CUT
10
64.58
20
27.0446
0
VERTEX
8
CUT
10
67.83
20
27.0446
0
VERTEX
8
CUT
10
69.455
20
24.793
0
SEQEND
0
POLYLINE
8
CUT
66
1
70
0
0
VERTEX
8
CUT
10
68.93
20
17.7308
0
VERTEX
8
CUT
10
67.38
20
15.583
0
VERTEX
8
CUT
10
64.28
20
15.583
0
VERTEX
8
CUT
10
62.73
20
17.7308
0
VERTEX
8
CUT
10
64.28
20
19.8785
0
VERTEX
8
CUT
10
67.38
20
19.8785
0
VERTEX
8
CUT
10
68.93
20
17.7308
0
SEQEND
0
POLYLINE
8
CUT
66
1
70
0
0
VERTEX
8
CUT
10
69.3911
20
17.1226
0
VERTEX
8
CUT
10
67.83
20
14.9595
0
VERTEX
8
CUT
10
64.7078
20
14.9595
0
SEQEND
0
POLYLINE
8
CUT
66
1
70
0
0
VERTEX
8
CUT
10
63.3911
20
15.5677
0
VERTEX
8
CUT
10
61.83
20
17.7308
0
VERTEX
8
CUT
10
63.3911
20
19.8939
0
SEQEND
0
POLYLINE
8
CUT
66
1
70
0
0
VERTEX
8
CUT
10
64.58
20
20.5021
0
VERTEX
8
CUT
10
67.83
20
20.5021
0
VERTEX
8
CUT
10
69.455
20
18.2504
0
SEQEND
0
POLYLINE
8
CUT
66
1
70
0
0
VERTEX
8
CUT
10
68.93
20
11.1882
0
VERTEX
8
CUT
10
67.38
20
9.0405
0
VERTEX
8
CUT
10
64.28
20
9.0405
0
VERTEX
8
CUT
10
62.73
20
11.1882
0
VERTEX
8
CUT
10
64.28
20
13.336
0
VERTEX
8
CUT
10
67.38
20
13.336
0
VERTEX
8
CUT
10
68.93
20
11.1882
0
SEQEND
0
POLYLINE
8
CUT
66
1
70
0
0
VERTEX
8
CUT
10
69.3911
20
10.5801
0
VERTEX
8
CUT
10
67.83
20
8.4169
0
VERTEX
8
CUT
10
64.7078
20
8.4169
0
SEQEND
0
POLYLINE
8
CUT
66
1
70
0
0
VERTEX
8
CUT
10
63.3911
20
9.0251
0
VERTEX
8
CUT
10
61.83
20
11.1882
0
VERTEX
8
CUT
10
63.3911
20
13.3513
0
SEQEND
0
POLYLINE
8
CUT
66
1
70
0
0
VERTEX
8
CUT
10
64.58
20
13.9595
0
VERTEX
8
CUT
10
67.83
20
13.9595
0
VERTEX
8
CUT
10
69.455
20
11.7078
0
SEQEND
0
POLYLINE
8
CUT
66
1
70
0
0
VERTEX
8
CUT
10
68.93
20
4.6457
0
VERTEX
8
CUT
10
67.38
20
2.4979
0
VERTEX
8
CUT
10
64.28
20
2.4979
0
VERTEX
8
CUT
10
62.73
20
4.6457
0
VERTEX
8
CUT
10
64.28
20
6.7934
0
VERTEX
8
CUT
10
67.38
20
6.7934
0
VERTEX
8
CUT
10
68.93
20
4.6457
0
SEQEND
0
POLYLINE
8
CUT
66
1
70
0
0
VERTEX
8
CUT
10
69.3911
20
4.0375
0
VERTEX
8
CUT
10
67.83
20
1.8744
0
VERTEX
8
CUT
10
64.7078
20
1.8744
0
SEQEND
0
POLYLINE
8
CUT
66
1
70
0
0
VERTEX
8
CUT
10
63.3911
20
2.4825
0
VERTEX
8
CUT
10
61.83
20
4.6457
0
VERTEX
8
CUT
10
63.3911
20
6.8088
0
SEQEND
0
POLYLINE
8
CUT
66
1
70
0
0
VERTEX
8
CUT
10
64.58
20
7.4169
0
VERTEX
8
CUT
10
67.83
20
7.4169
0
VERTEX
8
CUT
10
69.455
20
5.1653
0
SEQEND
0
POLYLINE
8
CUT
66
1
70
0
0
VERTEX
8
CUT
10
64.099
20
0
0
VERTEX
8
CUT
10
64.28
20
0.2508
0
VERTEX
8
CUT
10
67.38
20
0.2508
0
VERTEX
8
CUT
10
67.561
20
0
0
SEQEND
0
LINE
8
CUT
10
63.199
20
0
11
63.3911
21
0.2662
0
POLYLINE
8
CUT
66
1
70
0
0
VERTEX
8
CUT
10
64.58
20
0.8744
0
VERTEX
8
CUT
10
67.83
20
0.8744
0
VERTEX
8
CUT
10
68.461
20
0
0
SEQEND
0
POLYLINE
8
CUT
66
1
70
0
0
VERTEX
8
CUT
10
75.8
20
66.8
0
VERTEX
8
CUT
10
74.25
20
64.6523
0
VERTEX
8
CUT
10
71.15
20
64.6523
0
VERTEX
8
CUT
10
69.6
20
66.8
0
VERTEX
8
CUT
10
71.15
20
68.9477
0
VERTEX
8
CUT
10
74.25
20
68.9477
0
VERTEX
8
CUT
10
75.8
20
66.8
0
SEQEND
0
POLYLINE
8
CUT
66
1
70
0
0
VERTEX
8
CUT
10
76.2611
20
66.1918
0
VERTEX
8
CUT
10
74.7
20
64.0287
0
VERTEX
8
CUT
10
71.5778
20
64.0287
0
SEQEND
0
POLYLINE
8
CUT
66
1
70
0
0
VERTEX
8
CUT
10
70.2611
20
64.6369
0
VERTEX
8
CUT
10
68.7
20
66.8
0
VERTEX
8
CUT
10
70.2611
20
68.9631
0
SEQEND
0
POLYLINE
8
CUT
66
1
70
0
0
VERTEX
8
CUT
10
71.45
20
69.5713
0
VERTEX
8
CUT
10
74.7
20
69.5713
0
VERTEX
8
CUT
10
76.325
20
67.3196
0
SEQEND
0
POLYLINE
8
CUT
66
1
70
0
0
VERTEX
8
CUT
10
75.8
20
60.2574
0
VERTEX
8
CUT
10
74.25
20
58.1097
0
VERTEX
8
CUT
10
71.15
20
58.1097
0
VERTEX
8
CUT
10
69.6
20
60.2574
0
VERTEX
8
CUT
10
71.15
20
62.4052
0
VERTEX
8
CUT
10
74.25
20
62.4052
0
VERTEX
8
CUT
10
75.8
20
60.2574
0
SEQEND
0
POLYLINE
8
CUT
66
1
70
0
0
VERTEX
8
CUT
10
76.2611
20
59.6493
0
VERTEX
8
CUT
10
74.7
20
57.4862
0
VERTEX
8
CUT
10
71.5778
20
57.4862
0
SEQEND
0
POLYLINE
8
CUT
66
1
70
0
0
VERTEX
8
CUT
10
70.2611
20
58.0943
0
VERTEX
8
CUT
10
68.7
20
60.2574
0
VERTEX
8
CUT
10
70.2611
20
62.4206
0
SEQEND
0
POLYLINE
8
CUT
66
1
70
0
0
VERTEX
8
CUT
10
71.45
20
63.0287
0
VERTEX
8
CUT
10
74.7
20
63.0287
0
VERTEX
8
CUT
10
76.325
20
60.7771
0
SEQEND
0
POLYLINE
8
CUT
66
1
70
0
0
VERTEX
8
CUT
10
75.8
20
53.7149
0
VERTEX
8
CUT
10
74.25
20
51.5671
0
VERTEX
8
CUT
10
71.15
20
51.5671
0
VERTEX
8
CUT
10
69.6
20
53.7149
0
VERTEX
8
CUT
10
71.15
20
55.8626
0
VERTEX
8
CUT
10
74.25
20
55.8626
0
VERTEX
8
CUT
10
75.8
20
53.7149
0
SEQEND
0
POLYLINE
8
CUT
66
1
70
0
0
VERTEX
8
CUT
10
76.2611
20
53.1067
0
VERTEX
8
CUT
10
74.7
20
50.9436
0
VERTEX
8
CUT
10
71.5778
20
50.9436
0
SEQEND
0
POLYLINE
8
CUT
66
1
70
0
0
VERTEX
8
CUT
10
70.2611
20
51.5518
0
VERTEX
8
CUT
10
68.7
20
53.7149
0
VERTEX
8
CUT
10
70.2611
20
55.878
0
SEQEND
0
POLYLINE
8
CUT
66
1
70
0
0
VERTEX
8
CUT
10
71.45
20
56.4862
0
VERTEX
8
CUT
10
74.7
20
56.4862
0
VERTEX
8
CUT
10
76.325
20
54.2345
0
SEQEND
0
POLYLINE
8
CUT
66
1
70
0
0
VERTEX
8
CUT
10
75.8
20
47.1723
0
VERTEX
8
CUT
10
74.25
20
45.0246
0
VERTEX
8
CUT
10
71.15
20
45.0246
0
VERTEX
8
CUT
10
69.6
20
47.1723
0
VERTEX
8
CUT
10
71.15
20
49.3201
0
VERTEX
8
CUT
10
74.25
20
49.3201
0
VERTEX
8
CUT
10
75.8
20
47.1723
0
SEQEND
0
POLYLINE
8
CUT
66
1
70
0
0
VERTEX
8
CUT
10
76.2611
20
46.5641
0
VERTEX
8
CUT
10
74.7
20
44.401
0
VERTEX
8
CUT
10
71.5778
20
44.401
0
SEQEND
0
POLYLINE
8
CUT
66
1
70
0
0
VERTEX
8
CUT
10
70.2611
20
45.0092
0
VERTEX
8
CUT
10
68.7
20
47.1723
0
VERTEX
8
CUT
10
70.2611
20
49.3354
0
SEQEND
0
POLYLINE
8
CUT
66
1
70
0
0
VERTEX
8
CUT
10
71.45
20
49.9436
0
VERTEX
8
CUT
10
74.7
20
49.9436
0
VERTEX
8
CUT
10
76.325
20
47.6919
0
SEQEND
0
POLYLINE
8
CUT
66
1
70
0
0
VERTEX
8
CUT
10
75.8
20
40.6297
0
VERTEX
8
CUT
10
74.25
20
38.482
0
VERTEX
8
CUT
10
71.15
20
38.482
0
VERTEX
8
CUT
10
69.6
20
40.6297
0
VERTEX
8
CUT
10
71.15
20
42.7775
0
VERTEX
8
CUT
10
74.25
20
42.7775
0
VERTEX
8
CUT
10
75.8
20
40.6297
0
SEQEND
0
POLYLINE
8
CUT
66
1
70
0
0
VERTEX
8
CUT
10
76.2611
20
40.0216
0
VERTEX
8
CUT
10
74.7
20
37.8585
0
VERTEX
8
CUT
10
71.5778
20
37.8585
0
SEQEND
0
POLYLINE
8
CUT
66
1
70
0
0
VERTEX
8
CUT
10
70.2611
20
38.4666
0
VERTEX
8
CUT
10
68.7
20
40.6297
0
VERTEX
8
CUT
10
70.2611
20
42.7929
0
SEQEND
0
POLYLINE
8
CUT
66
1
70
0
0
VERTEX
8
CUT
10
71.45
20
43.401
0
VERTEX
8
CUT
10
74.7
20
43.401
0
VERTEX
8
CUT
10
76.325
20
41.1494
0
SEQEND
0
POLYLINE
8
CUT
66
1
70
0
0
VERTEX
8
CUT
10
75.8
20
34.0872
0
VERTEX
8
CUT
10
74.25
20
31.9394
0
VERTEX
8
CUT
10
71.15
20
31.9394
0
VERTEX
8
CUT
10
69.6
20
34.0872
0
VERTEX
8
CUT
10
71.15
20
36.2349
0
VERTEX
8
CUT
10
74.25
20
36.2349
0
VERTEX
8
CUT
10
75.8
20
34.0872
0
SEQEND
0
POLYLINE
8
CUT
66
1
70
0
0
VERTEX
8
CUT
10
76.2611
20
33.479
0
VERTEX
8
CUT
10
74.7
20
31.3159
0
VERTEX
8
CUT
10
71.5778
20
31.3159
0
SEQEND
0
POLYLINE
8
CUT
66
1
70
0
0
VERTEX
8
CUT
10
70.2611
20
31.9241
0
VERTEX
8
CUT
10
68.7
20
34.0872
0
VERTEX
8
CUT
10
70.2611
20
36.2503
0
SEQEND
0
POLYLINE
8
CUT
66
1
70
0
0
VERTEX
8
CUT
10
71.45
20
36.8585
0
VERTEX
8
CUT
10
74.7
20
36.8585
0
VERTEX
8
CUT
10
76.325
20
34.6068
0
SEQEND
0
POLYLINE
8
CUT
66
1
70
0
0
VERTEX
8
CUT
10
75.8
20
27.5446
0
VERTEX
8
CUT
10
74.25
20
25.3969
0
VERTEX
8
CUT
10
71.15
20
25.3969
0
VERTEX
8
CUT
10
69.6
20
27.5446
0
VERTEX
8
CUT
10
71.15
20
29.6924
0
VERTEX
8
CUT
10
74.25
20
29.6924
0
VERTEX
8
CUT
10
75.8
20
27.5446
0
SEQEND
0
POLYLINE
8
CUT
66
1
70
0
0
VERTEX
8
CUT
10
76.2611
20
26.9365
0
VERTEX
8
CUT
10
74.7
20
24.7733
0
VERTEX
8
CUT
10
71.5778
20
24.7733
0
SEQEND
0
POLYLINE
8
CUT
66
1
70
0
0
VERTEX
8
CUT
10
70.2611
20
25.3815
0
VERTEX
8
CUT
10
68.7
20
27.5446
0
VERTEX
8
CUT
10
70.2611
20
29.7077
0
SEQEND
0
POLYLINE
8
CUT
66
1
70
0
0
VERTEX
8
CUT
10
71.45
20
30.3159
0
VERTEX
8
CUT
10
74.7
20
30.3159
0
VERTEX
8
CUT
10
76.325
20
28.0642
0
SEQEND
0
POLYLINE
8
CUT
66
1
70
0
0
VERTEX
8
CUT
10
75.8
20
21.0021
0
VERTEX
8
CUT
10
74.25
20
18.8543
0
VERTEX
8
CUT
10
71.15
20
18.8543
0
VERTEX
8
CUT
10
69.6
20
21.0021
0
VERTEX
8
CUT
10
71.15
20
23.1498
0
VERTEX
8
CUT
10
74.25
20
23.1498
0
VERTEX
8
CUT
10
75.8
20
21.0021
0
SEQEND
0
POLYLINE
8
CUT
66
1
70
0
0
VERTEX
8
CUT
10
76.2611
20
20.3939
0
VERTEX
8
CUT
10
74.7
20
18.2308
0
VERTEX
8
CUT
10
71.5778
20
18.2308
0
SEQEND
0
POLYLINE
8
CUT
66
1
70
0
0
VERTEX
8
CUT
10
70.2611
20
18.8389
0
VERTEX
8
CUT
10
68.7
20
21.0021
0
VERTEX
8
CUT
10
70.2611
20
23.1652
0
SEQEND
0
POLYLINE
8
CUT
66
1
70
0
0
VERTEX
8
CUT
10
71.45
20
23.7733
0
VERTEX
8
CUT
10
74.7
20
23.7733
0
VERTEX
8
CUT
10
76.325
20
21.5217
0
SEQEND
0
POLYLINE
8
CUT
66
1
70
0
0
VERTEX
8
CUT
10
75.8
20
14.4595
0
VERTEX
8
CUT
10
74.25
20
12.3118
0
VERTEX
8
CUT
10
71.15
20
12.3118
0
VERTEX
8
CUT
10
69.6
20
14.4595
0
VERTEX
8
CUT
10
71.15
20
16.6072
0
VERTEX
8
CUT
10
74.25
20
16.6072
0
VERTEX
8
CUT
10
75.8
20
14.4595
0
SEQEND
0
POLYLINE
8
CUT
66
1
70
0
0
VERTEX
8
CUT
10
76.2611
20
13.8513
0
VERTEX
8
CUT
10
74.7
20
11.6882
0
VERTEX
8
CUT
10
71.5778
20
11.6882
0
SEQEND
0
POLYLINE
8
CUT
66
1
70
0
0
VERTEX
8
CUT
10
70.2611
20
12.2964
0
VERTEX
8
CUT
10
68.7
20
14.4595
0
VERTEX
8
CUT
10
70.2611
20
16.6226
0
SEQEND
0
POLYLINE
8
CUT
66
1
70
0
0
VERTEX
8
CUT
10
71.45
20
17.2308
0
VERTEX
8
CUT
10
74.7
20
17.2308
0
VERTEX
8
CUT
10
76.325
20
14.9791
0
SEQEND
0
POLYLINE
8
CUT
66
1
70
0
0
VERTEX
8
CUT
10
75.8
20
7.9169
0
VERTEX
8
CUT
10
74.25
20
5.7692
0
VERTEX
8
CUT
10
71.15
20
5.7692
0
VERTEX
8
CUT
10
69.6
20
7.9169
0
VERTEX
8
CUT
10
71.15
20
10.0647
0
VERTEX
8
CUT
10
74.25
20
10.0647
0
VERTEX
8
CUT
10
75.8
20
7.9169
0
SEQEND
0
POLYLINE
8
CUT
66
1
70
0
0
VERTEX
8
CUT
10
76.2611
20
7.3088
0
VERTEX
8
CUT
10
74.7
20
5.1457
0
VERTEX
8
CUT
10
71.5778
20
5.1457
0
SEQEND
0
POLYLINE
8
CUT
66
1
70
0
0
VERTEX
8
CUT
10
70.2611
20
5.7538
0
VERTEX
8
CUT
10
68.7
20
7.9169
0
VERTEX
8
CUT
10
70.2611
20
10.0801
0
SEQEND
0
POLYLINE
8
CUT
66
1
70
0
0
VERTEX
8
CUT
10
71.45
20
10.6882
0
VERTEX
8
CUT
10
74.7
20
10.6882
0
VERTEX
8
CUT
10
76.325
20
8.4366
0
SEQEND
0
LINE
8
CUT
10
75.8
20
1.3744
11
74.8081
21
0
0
POLYLINE
8
CUT
66
1
70
0
0
VERTEX
8
CUT
10
70.5919
20
0
0
VERTEX
8
CUT
10
69.6
20
1.3744
0
VERTEX
8
CUT
10
71.15
20
3.5221
0
VERTEX
8
CUT
10
74.25
20
3.5221
0
VERTEX
8
CUT
10
75.8
20
1.3744
0
SEQEND
0
LINE
8
CUT
10
76.2611
20
0.7662
11
75.7081
21
0
0
POLYLINE
8
CUT
66
1
70
0
0
VERTEX
8
CUT
10
69.6919
20
0
0
VERTEX
8
CUT
10
68.7
20
1.3744
0
VERTEX
8
CUT
10
70.2611
20
3.5375
0
SEQEND
0
POLYLINE
8
CUT
66
1
70
0
0
VERTEX
8
CUT
10
71.45
20
4.1457
0
VERTEX
8
CUT
10
74.7
20
4.1457
0
VERTEX
8
CUT
10
76.325
20
1.894
0
SEQEND
0
POLYLINE
8
CUT
66
1
70
0
0
VERTEX
8
CUT
10
82.6186
20
70
0
VERTEX
8
CUT
10
81.12
20
67.9235
0
VERTEX
8
CUT
10
78.02
20
67.9235
0
VERTEX
8
CUT
10
76.5214
20
70
0
SEQEND
0
POLYLINE
8
CUT
66
1
70
0
0
VERTEX
8
CUT
10
83.1311
20
69.4631
0
VERTEX
8
CUT
10
81.57
20
67.3
0
VERTEX
8
CUT
10
78.4478
20
67.3
0
SEQEND
0
LINE
8
CUT
10
77.1311
20
67.9082
11
75.6214
21
70
0
POLYLINE
8
CUT
66
1
70
0
0
VERTEX
8
CUT
10
82.67
20
63.5287
0
VERTEX
8
CUT
10
81.12
20
61.381
0
VERTEX
8
CUT
10
78.02
20
61.381
0
VERTEX
8
CUT
10
76.47
20
63.5287
0
VERTEX
8
CUT
10
78.02
20
65.6765
0
VERTEX
8
CUT
10
81.12
20
65.6765
0
VERTEX
8
CUT
10
82.67
20
63.5287
0
SEQEND
0
POLYLINE
8
CUT
66
1
70
0
0
VERTEX
8
CUT
10
83.1311
20
62.9206
0
VERTEX
8
CUT
10
81.57
20
60.7574
0
VERTEX
8
CUT
10
78.4478
20
60.7574
0
SEQEND
0
POLYLINE
8
CUT
66
1
70
0
0
VERTEX
8
CUT
10
77.1311
20
61.3656
0
VERTEX
8
CUT
10
75.57
20
63.5287
0
VERTEX
8
CUT
10
77.1311
20
65.6918
0
SEQEND
0
POLYLINE
8
CUT
66
1
70
0
0
VERTEX
8
CUT
10
78.32
20
66.3
0
VERTEX
8
CUT
10
81.57
20
66.3
0
VERTEX
8
CUT
10
83.195
20
64.0483
0
SEQEND
0
POLYLINE
8
CUT
66
1
70
0
0
VERTEX
8
CUT
10
82.67
20
56.9862
0
VERTEX
8
CUT
10
81.12
20
54.8384
0
VERTEX
8
CUT
10
78.02
20
54.8384
0
VERTEX
8
CUT
10
76.47
20
56.9862
0
VERTEX
8
CUT
10
78.02
20
59.1339
0
VERTEX
8
CUT
10
81.12
20
59.1339
0
VERTEX
8
CUT
10
82.67
20
56.9862
0
SEQEND
0
POLYLINE
8
CUT
66
1
70
0
0
VERTEX
8
CUT
10
83.1311
20
56.378
0
VERTEX
8
CUT
10
81.57
20
54.2149
0
VERTEX
8
CUT
10
78.4478
20
54.2149
0
SEQEND
0
POLYLINE
8
CUT
66
1
70
0
0
VERTEX
8
CUT
10
77.1311
20
54.823
0
VERTEX
8
CUT
10
75.57
20
56.9862
0
VERTEX
8
CUT
10
77.1311
20
59.1493
0
SEQEND
0
POLYLINE
8
CUT
66
1
70
0
0
VERTEX
8
CUT
10
78.32
20
59.7574
0
VERTEX
8
CUT
10
81.57
20
59.7574
0
VERTEX
8
CUT
10
83.195
20
57.5058
0
SEQEND
0
POLYLINE
8
CUT
66
1
70
0
0
VERTEX
8
CUT
10
82.67
20
50.4436
0
VERTEX
8
CUT
10
81.12
20
48.2959
0
VERTEX
8
CUT
10
78.02
20
48.2959
0
VERTEX
8
CUT
10
76.47
20
50.4436
0
VERTEX
8
CUT
10
78.02
20
52.5913
0
VERTEX
8
CUT
10
81.12
20
52.5913
0
VERTEX
8
CUT
10
82.67
20
50.4436
0
SEQEND
0
POLYLINE
8
CUT
66
1
70
0
0
VERTEX
8
CUT
10
83.1311
20
49.8354
0
VERTEX
8
CUT
10
81.57
20
47.6723
0
VERTEX
8
CUT
10
78.4478
20
47.6723
0
SEQEND
0
POLYLINE
8
CUT
66
1
70
0
0
VERTEX
8
CUT
10
77.1311
20
48.2805
0
VERTEX
8
CUT
10
75.57
20
50.4436
0
VERTEX
8
CUT
10
77.1311
20
52.6067
0
SEQEND
0
POLYLINE
8
CUT
66
1
70
0
0
VERTEX
8
CUT
10
78.32
20
53.2149
0
VERTEX
8
CUT
10
81.57
20
53.2149
0
VERTEX
8
CUT
10
83.195
20
50.9632
0
SEQEND
0
POLYLINE
8
CUT
66
1
70
0
0
VERTEX
8
CUT
10
82.67
20
43.901
0
VERTEX
8
CUT
10
81.12
20
41.7533
0
VERTEX
8
CUT
10
78.02
20
41.7533
0
VERTEX
8
CUT
10
76.47
20
43.901
0
VERTEX
8
CUT
10
78.02
20
46.0488
0
VERTEX
8
CUT
10
81.12
20
46.0488
0
VERTEX
8
CUT
10
82.67
20
43.901
0
SEQEND
0
POLYLINE
8
CUT
66
1
70
0
0
VERTEX
8
CUT
10
83.1311
20
43.2929
0
VERTEX
8
CUT
10
81.57
20
41.1297
0
VERTEX
8
CUT
10
78.4478
20
41.1297
0
SEQEND
0
POLYLINE
8
CUT
66
1
70
0
0
VERTEX
8
CUT
10
77.1311
20
41.7379
0
VERTEX
8
CUT
10
75.57
20
43.901
0
VERTEX
8
CUT
10
77.1311
20
46.0641
0
SEQEND
0
POLYLINE
8
CUT
66
1
70
0
0
VERTEX
8
CUT
10
78.32
20
46.6723
0
VERTEX
8
CUT
10
81.57
20
46.6723
0
VERTEX
8
CUT
10
83.195
20
44.4206
0
SEQEND
0
POLYLINE
8
CUT
66
1
70
0
0
VERTEX
8
CUT
10
82.67
20
37.3585
0
VERTEX
8
CUT
10
81.12
20
35.2107
0
VERTEX
8
CUT
10
78.02
20
35.2107
0
VERTEX
8
CUT
10
76.47
20
37.3585
0
VERTEX
8
CUT
10
78.02
20
39.5062
0
VERTEX
8
CUT
10
81.12
20
39.5062
0
VERTEX
8
CUT
10
82.67
20
37.3585
0
SEQEND
0
POLYLINE
8
CUT
66
1
70
0
0
VERTEX
8
CUT
10
83.1311
20
36.7503
0
VERTEX
8
CUT
10
81.57
20
34.5872
0
VERTEX
8
CUT
10
78.4478
20
34.5872
0
SEQEND
0
POLYLINE
8
CUT
66
1
70
0
0
VERTEX
8
CUT
10
77.1311
20
35.1954
0
VERTEX
8
CUT
10
75.57
20
37.3585
0
VERTEX
8
CUT
10
77.1311
20
39.5216
0
SEQEND
0
POLYLINE
8
CUT
66
1
70
0
0
VERTEX
8
CUT
10
78.32
20
40.1297
0
VERTEX
8
CUT
10
81.57
20
40.1297
0
VERTEX
8
CUT
10
83.195
20
37.8781
0
SEQEND
0
POLYLINE
8
CUT
66
1
70
0
0
VERTEX
8
CUT
10
82.67
20
30.8159
0
VERTEX
8
CUT
10
81.12
20
28.6682
0
VERTEX
8
CUT
10
78.02
20
28.6682
0
VERTEX
8
CUT
10
76.47
20
30.8159
0
VERTEX
8
CUT
10
78.02
20
32.9636
0
VERTEX
8
CUT
10
81.12
20
32.9636
0
VERTEX
8
CUT
10
82.67
20
30.8159
0
SEQEND
0
POLYLINE
8
CUT
66
1
70
0
0
VERTEX
8
CUT
10
83.1311
20
30.2077
0
VERTEX
8
CUT
10
81.57
20
28.0446
0
VERTEX
8
CUT
10
78.4478
20
28.0446
0
SEQEND
0
POLYLINE
8
CUT
66
1
70
0
0
VERTEX
8
CUT
10
77.1311
20
28.6528
0
VERTEX
8
CUT
10
75.57
20
30.8159
0
VERTEX
8
CUT
10
77.1311
20
32.979
0
SEQEND
0
POLYLINE
8
CUT
66
1
70
0
0
VERTEX
8
CUT
10
78.32
20
33.5872
0
VERTEX
8
CUT
10
81.57
20
33.5872
0
VERTEX
8
CUT
10
83.195
20
31.3355
0
SEQEND
0
POLYLINE
8
CUT
66
1
70
0
0
VERTEX
8
CUT
10
82.67
20
24.2733
0
VERTEX
8
CUT
10
81.12
20
22.1256
0
VERTEX
8
CUT
10
78.02
20
22.1256
0
VERTEX
8
CUT
10
76.47
20
24.2733
0
VERTEX
8
CUT
10
78.02
20
26.4211
0
VERTEX
8
CUT
10
81.12
20
26.4211
0
VERTEX
8
CUT
10
82.67
20
24.2733
0
SEQEND
0
POLYLINE
8
CUT
66
1
70
0
0
VERTEX
8
CUT
10
83.1311
20
23.6652
0
VERTEX
8
CUT
10
81.57
20
21.5021
0
VERTEX
8
CUT
10
78.4478
20
21.5021
0
SEQEND
0
POLYLINE
8
CUT
66
1
70
0
0
VERTEX
8
CUT
10
77.1311
20
22.1102
0
VERTEX
8
CUT
10
75.57
20
24.2733
0
VERTEX
8
CUT
10
77.1311
20
26.4365
0
SEQEND
0
POLYLINE
8
CUT
66
1
70
0
0
VERTEX
8
CUT
10
78.32
20
27.0446
0
VERTEX
8
CUT
10
81.57
20
27.0446
0
VERTEX
8
CUT
10
83.195
20
24.793
0
SEQEND
0
POLYLINE
8
CUT
66
1
70
0
0
VERTEX
8
CUT
10
82.67
20
17.7308
0
VERTEX
8
CUT
10
81.12
20
15.583
0
VERTEX
8
CUT
10
78.02
20
15.583
0
VERTEX
8
CUT
10
76.47
20
17.7308
0
VERTEX
8
CUT
10
78.02
20
19.8785
0
VERTEX
8
CUT
10
81.12
20
19.8785
0
VERTEX
8
CUT
10
82.67
20
17.7308
0
SEQEND
0
POLYLINE
8
CUT
66
1
70
0
0
VERTEX
8
CUT
10
83.1311
20
17.1226
0
VERTEX
8
CUT
10
81.57
20
14.9595
0
VERTEX
8
CUT
10
78.4478
20
14.9595
0
SEQEND
0
POLYLINE
8
CUT
66
1
70
0
0
VERTEX
8
CUT
10
77.1311
20
15.5677
0
VERTEX
8
CUT
10
75.57
20
17.7308
0
VERTEX
8
CUT
10
77.1311
20
19.8939
0
SEQEND
0
POLYLINE
8
CUT
66
1
70
0
0
VERTEX
8
CUT
10
78.32
20
20.5021
0
VERTEX
8
CUT
10
81.57
20
20.5021
0
VERTEX
8
CUT
10
83.195
20
18.2504
0
SEQEND
0
POLYLINE
8
CUT
66
1
70
0
0
VERTEX
8
CUT
10
82.67
20
11.1882
0
VERTEX
8
CUT
10
81.12
20
9.0405
0
VERTEX
8
CUT
10
78.02
20
9.0405
0
VERTEX
8
CUT
10
76.47
20
11.1882
0
VERTEX
8
CUT
10
78.02
20
13.336
0
VERTEX
8
CUT
10
81.12
20
13.336
0
VERTEX
8
CUT
10
82.67
20
11.1882
0
SEQEND
0
POLYLINE
8
CUT
66
1
70
0
0
VERTEX
8
CUT
10
83.1311
20
10.5801
0
VERTEX
8
CUT
10
81.57
20
8.4169
0
VERTEX
8
CUT
10
78.4478
20
8.4169
0
SEQEND
0
POLYLINE
8
CUT
66
1
70
0
0
VERTEX
8
CUT
10
77.1311
20
9.0251
0
VERTEX
8
CUT
10
75.57
20
11.1882
0
VERTEX
8
CUT
10
77.1311
20
13.3513
0
SEQEND
0
POLYLINE
8
CUT
66
1
70
0
0
VERTEX
8
CUT
10
78.32
20
13.9595
0
VERTEX
8
CUT
10
81.57
20
13.9595
0
VERTEX
8
CUT
10
83.195
20
11.7078
0
SEQEND
0
POLYLINE
8
CUT
66
1
70
0
0
VERTEX
8
CUT
10
82.67
20
4.6457
0
VERTEX
8
CUT
10
81.12
20
2.4979
0
VERTEX
8
CUT
10
78.02
20
2.4979
0
VERTEX
8
CUT
10
76.47
20
4.6457
0
VERTEX
8
CUT
10
78.02
20
6.7934
0
VERTEX
8
CUT
10
81.12
20
6.7934
0
VERTEX
8
CUT
10
82.67
20
4.6457
0
SEQEND
0
POLYLINE
8
CUT
66
1
70
0
0
VERTEX
8
CUT
10
83.1311
20
4.0375
0
VERTEX
8
CUT
10
81.57
20
1.8744
0
VERTEX
8
CUT
10
78.4478
20
1.8744
0
SEQEND
0
POLYLINE
8
CUT
66
1
70
0
0
VERTEX
8
CUT
10
77.1311
20
2.4825
0
VERTEX
8
CUT
10
75.57
20
4.6457
0
VERTEX
8
CUT
10
77.1311
20
6.8088
0
SEQEND
0
POLYLINE
8
CUT
66
1
70
0
0
VERTEX
8
CUT
10
78.32
20
7.4169
0
VERTEX
8
CUT
10
81.57
20
7.4169
0
VERTEX
8
CUT
10
83.195
20
5.1653
0
SEQEND
0
POLYLINE
8
CUT
66
1
70
0
0
VERTEX
8
CUT
10
77.839
20
0
0
VERTEX
8
CUT
10
78.02
20
0.2508
0
VERTEX
8
CUT
10
81.12
20
0.2508
0
VERTEX
8
CUT
10
81.301
20
0
0
SEQEND
0
LINE
8
CUT
10
76.939
20
0
11
77.1311
21
0.2662
0
POLYLINE
8
CUT
66
1
70
0
0
VERTEX
8
CUT
10
78.32
20
0.8744
0
VERTEX
8
CUT
10
81.57
20
0.8744
0
VERTEX
8
CUT
10
82.201
20
0
0
SEQEND
0
POLYLINE
8
CUT
66
1
70
0
0
VERTEX
8
CUT
10
89.54
20
66.8
0
VERTEX
8
CUT
10
87.99
20
64.6523
0
VERTEX
8
CUT
10
84.89
20
64.6523
0
VERTEX
8
CUT
10
83.34
20
66.8
0
VERTEX
8
CUT
10
84.89
20
68.9477
0
VERTEX
8
CUT
10
87.99
20
68.9477
0
VERTEX
8
CUT
10
89.54
20
66.8
0
SEQEND
0
POLYLINE
8
CUT
66
1
70
0
0
VERTEX
8
CUT
10
90.0011
20
66.1918
0
VERTEX
8
CUT
10
88.44
20
64.0287
0
VERTEX
8
CUT
10
85.3178
20
64.0287
0
SEQEND
0
POLYLINE
8
CUT
66
1
70
0
0
VERTEX
8
CUT
10
84.0011
20
64.6369
0
VERTEX
8
CUT
10
82.44
20
66.8
0
VERTEX
8
CUT
10
84.0011
20
68.9631
0
SEQEND
0
POLYLINE
8
CUT
66
1
70
0
0
VERTEX
8
CUT
10
85.19
20
69.5713
0
VERTEX
8
CUT
10
88.44
20
69.5713
0
VERTEX
8
CUT
10
90.065
20
67.3196
0
SEQEND
0
POLYLINE
8
CUT
66
1
70
0
0
VERTEX
8
CUT
10
89.54
20
60.2574
0
VERTEX
8
CUT
10
87.99
20
58.1097
0
VERTEX
8
CUT
10
84.89
20
58.1097
0
VERTEX
8
CUT
10
83.34
20
60.2574
0
VERTEX
8
CUT
10
84.89
20
62.4052
0
VERTEX
8
CUT
10
87.99
20
62.4052
0
VERTEX
8
CUT
10
89.54
20
60.2574
0
SEQEND
0
POLYLINE
8
CUT
66
1
70
0
0
VERTEX
8
CUT
10
90.0011
20
59.6493
0
VERTEX
8
CUT
10
88.44
20
57.4862
0
VERTEX
8
CUT
10
85.3178
20
57.4862
0
SEQEND
0
POLYLINE
8
CUT
66
1
70
0
0
VERTEX
8
CUT
10
84.0011
20
58.0943
0
VERTEX
8
CUT
10
82.44
20
60.2574
0
VERTEX
8
CUT
10
84.0011
20
62.4206
0
SEQEND
0
POLYLINE
8
CUT
66
1
70
0
0
VERTEX
8
CUT
10
85.19
20
63.0287
0
VERTEX
8
CUT
10
88.44
20
63.0287
0
VERTEX
8
CUT
10
90.065
20
60.7771
0
SEQEND
0
POLYLINE
8
CUT
66
1
70
0
0
VERTEX
8
CUT
10
89.54
20
53.7149
0
VERTEX
8
CUT
10
87.99
20
51.5671
0
VERTEX
8
CUT
10
84.89
20
51.5671
0
VERTEX
8
CUT
10
83.34
20
53.7149
0
VERTEX
8
CUT
10
84.89
20
55.8626
0
VERTEX
8
CUT
10
87.99
20
55.8626
0
VERTEX
8
CUT
10
89.54
20
53.7149
0
SEQEND
0
POLYLINE
8
CUT
66
1
70
0
0
VERTEX
8
CUT
10
90.0011
20
53.1067
0
VERTEX
8
CUT
10
88.44
20
50.9436
0
VERTEX
8
CUT
10
85.3178
20
50.9436
0
SEQEND
0
POLYLINE
8
CUT
66
1
70
0
0
VERTEX
8
CUT
10
84.0011
20
51.5518
0
VERTEX
8
CUT
10
82.44
20
53.7149
0
VERTEX
8
CUT
10
84.0011
20
55.878
0
SEQEND
0
POLYLINE
8
CUT
66
1
70
0
0
VERTEX
8
CUT
10
85.19
20
56.4862
0
VERTEX
8
CUT
10
88.44
20
56.4862
0
VERTEX
8
CUT
10
90.065
20
54.2345
0
SEQEND
0
POLYLINE
8
CUT
66
1
70
0
0
VERTEX
8
CUT
10
89.54
20
47.1723
0
VERTEX
8
CUT
10
87.99
20
45.0246
0
VERTEX
8
CUT
10
84.89
20
45.0246
0
VERTEX
8
CUT
10
83.34
20
47.1723
0
VERTEX
8
CUT
10
84.89
20
49.3201
0
VERTEX
8
CUT
10
87.99
20
49.3201
0
VERTEX
8
CUT
10
89.54
20
47.1723
0
SEQEND
0
POLYLINE
8
CUT
66
1
70
0
0
VERTEX
8
CUT
10
90.0011
20
46.5641
0
VERTEX
8
CUT
10
88.44
20
44.401
0
VERTEX
8
CUT
10
85.3178
20
44.401
0
SEQEND
0
POLYLINE
8
CUT
66
1
70
0
0
VERTEX
8
CUT
10
84.0011
20
45.0092
0
VERTEX
8
CUT
10
82.44
20
47.1723
0
VERTEX
8
CUT
10
84.0011
20
49.3354
0
SEQEND
0
POLYLINE
8
CUT
66
1
70
0
0
VERTEX
8
CUT
10
85.19
20
49.9436
0
VERTEX
8
CUT
10
88.44
20
49.9436
0
VERTEX
8
CUT
10
90.065
20
47.6919
0
SEQEND
0
POLYLINE
8
CUT
66
1
70
0
0
VERTEX
8
CUT
10
89.54
20
40.6297
0
VERTEX
8
CUT
10
87.99
20
38.482
0
VERTEX
8
CUT
10
84.89
20
38.482
0
VERTEX
8
CUT
10
83.34
20
40.6297
0
VERTEX
8
CUT
10
84.89
20
42.7775
0
VERTEX
8
CUT
10
87.99
20
42.7775
0
VERTEX
8
CUT
10
89.54
20
40.6297
0
SEQEND
0
POLYLINE
8
CUT
66
1
70
0
0
VERTEX
8
CUT
10
90.0011
20
40.0216
0
VERTEX
8
CUT
10
88.44
20
37.8585
0
VERTEX
8
CUT
10
85.3178
20
37.8585
0
SEQEND
0
POLYLINE
8
CUT
66
1
70
0
0
VERTEX
8
CUT
10
84.0011
20
38.4666
0
VERTEX
8
CUT
10
82.44
20
40.6297
0
VERTEX
8
CUT
10
84.0011
20
42.7929
0
SEQEND
0
POLYLINE
8
CUT
66
1
70
0
0
VERTEX
8
CUT
10
85.19
20
43.401
0
VERTEX
8
CUT
10
88.44
20
43.401
0
VERTEX
8
CUT
10
90.065
20
41.1494
0
SEQEND
0
POLYLINE
8
CUT
66
1
70
0
0
VERTEX
8
CUT
10
89.54
20
34.0872
0
VERTEX
8
CUT
10
87.99
20
31.9394
0
VERTEX
8
CUT
10
84.89
20
31.9394
0
VERTEX
8
CUT
10
83.34
20
34.0872
0
VERTEX
8
CUT
10
84.89
20
36.2349
0
VERTEX
8
CUT
10
87.99
20
36.2349
0
VERTEX
8
CUT
10
89.54
20
34.0872
0
SEQEND
0
POLYLINE
8
CUT
66
1
70
0
0
VERTEX
8
CUT
10
90.0011
20
33.479
0
VERTEX
8
CUT
10
88.44
20
31.3159
0
VERTEX
8
CUT
10
85.3178
20
31.3159
0
SEQEND
0
POLYLINE
8
CUT
66
1
70
0
0
VERTEX
8
CUT
10
84.0011
20
31.9241
0
VERTEX
8
CUT
10
82.44
20
34.0872
0
VERTEX
8
CUT
10
84.0011
20
36.2503
0
SEQEND
0
POLYLINE
8
CUT
66
1
70
0
0
VERTEX
8
CUT
10
85.19
20
36.8585
0
VERTEX
8
CUT
10
88.44
20
36.8585
0
VERTEX
8
CUT
10
90.065
20
34.6068
0
SEQEND
0
POLYLINE
8
CUT
66
1
70
0
0
VERTEX
8
CUT
10
89.54
20
27.5446
0
VERTEX
8
CUT
10
87.99
20
25.3969
0
VERTEX
8
CUT
10
84.89
20
25.3969
0
VERTEX
8
CUT
10
83.34
20
27.5446
0
VERTEX
8
CUT
10
84.89
20
29.6924
0
VERTEX
8
CUT
10
87.99
20
29.6924
0
VERTEX
8
CUT
10
89.54
20
27.5446
0
SEQEND
0
POLYLINE
8
CUT
66
1
70
0
0
VERTEX
8
CUT
10
90.0011
20
26.9365
0
VERTEX
8
CUT
10
88.44
20
24.7733
0
VERTEX
8
CUT
10
85.3178
20
24.7733
0
SEQEND
0
POLYLINE
8
CUT
66
1
70
0
0
VERTEX
8
CUT
10
84.0011
20
25.3815
0
VERTEX
8
CUT
10
82.44
20
27.5446
0
VERTEX
8
CUT
10
84.0011
20
29.7077
0
SEQEND
0
POLYLINE
8
CUT
66
1
70
0
0
VERTEX
8
CUT
10
85.19
20
30.3159
0
VERTEX
8
CUT
10
88.44
20
30.3159
0
VERTEX
8
CUT
10
90.065
20
28.0642
0
SEQEND
0
POLYLINE
8
CUT
66
1
70
0
0
VERTEX
8
CUT
10
89.54
20
21.0021
0
VERTEX
8
CUT
10
87.99
20
18.8543
0
VERTEX
8
CUT
10
84.89
20
18.8543
0
VERTEX
8
CUT
10
83.34
20
21.0021
0
VERTEX
8
CUT
10
84.89
20
23.1498
0
VERTEX
8
CUT
10
87.99
20
23.1498
0
VERTEX
8
CUT
10
89.54
20
21.0021
0
SEQEND
0
POLYLINE
8
CUT
66
1
70
0
0
VERTEX
8
CUT
10
90.0011
20
20.3939
0
VERTEX
8
CUT
10
88.44
20
18.2308
0
VERTEX
8
CUT
10
85.3178
20
18.2308
0
SEQEND
0
POLYLINE
8
CUT
66
1
70
0
0
VERTEX
8
CUT
10
84.0011
20
18.8389
0
VERTEX
8
CUT
10
82.44
20
21.0021
0
VERTEX
8
CUT
10
84.0011
20
23.1652
0
SEQEND
0
POLYLINE
8
CUT
66
1
70
0
0
VERTEX
8
CUT
10
85.19
20
23.7733
0
VERTEX
8
CUT
10
88.44
20
23.7733
0
VERTEX
8
CUT
10
90.065
20
21.5217
0
SEQEND
0
POLYLINE
8
CUT
66
1
70
0
0
VERTEX
8
CUT
10
89.54
20
14.4595
0
VERTEX
8
CUT
10
87.99
20
12.3118
0
VERTEX
8
CUT
10
84.89
20
12.3118
0
VERTEX
8
CUT
10
83.34
20
14.4595
0
VERTEX
8
CUT
10
84.89
20
16.6072
0
VERTEX
8
CUT
10
87.99
20
16.6072
0
VERTEX
8
CUT
10
89.54
20
14.4595
0
SEQEND
0
POLYLINE
8
CUT
66
1
70
0
0
VERTEX
8
CUT
10
90.0011
20
13.8513
0
VERTEX
8
CUT
10
88.44
20
11.6882
0
VERTEX
8
CUT
10
85.3178
20
11.6882
0
SEQEND
0
POLYLINE
8
CUT
66
1
70
0
0
VERTEX
8
CUT
10
84.0011
20
12.2964
0
VERTEX
8
CUT
10
82.44
20
14.4595
0
VERTEX
8
CUT
10
84.0011
20
16.6226
0
SEQEND
0
POLYLINE
8
CUT
66
1
70
0
0
VERTEX
8
CUT
10
85.19
20
17.2308
0
VERTEX
8
CUT
10
88.44
20
17.2308
0
VERTEX
8
CUT
10
90.065
20
14.9791
0
SEQEND
0
POLYLINE
8
CUT
66
1
70
0
0
VERTEX
8
CUT
10
89.54
20
7.9169
0
VERTEX
8
CUT
10
87.99
20
5.7692
0
VERTEX
8
CUT
10
84.89
20
5.7692
0
VERTEX
8
CUT
10
83.34
20
7.9169
0
VERTEX
8
CUT
10
84.89
20
10.0647
0
VERTEX
8
CUT
10
87.99
20
10.0647
0
VERTEX
8
CUT
10
89.54
20
7.9169
0
SEQEND
0
POLYLINE
8
CUT
66
1
70
0
0
VERTEX
8
CUT
10
90.0011
20
7.3088
0
VERTEX
8
CUT
10
88.44
20
5.1457
0
VERTEX
8
CUT
10
85.3178
20
5.1457
0
SEQEND
0
POLYLINE
8
CUT
66
1
70
0
0
VERTEX
8
CUT
10
84.0011
20
5.7538
0
VERTEX
8
CUT
10
82.44
20
7.9169
0
VERTEX
8
CUT
10
84.0011
20
10.0801
0
SEQEND
0
POLYLINE
8
CUT
66
1
70
0
0
VERTEX
8
CUT
10
85.19
20
10.6882
0
VERTEX
8
CUT
10
88.44
20
10.6882
0
VERTEX
8
CUT
10
90.065
20
8.4366
0
SEQEND
0
LINE
8
CUT
10
89.54
20
1.3744
11
88.5481
21
0
0
POLYLINE
8
CUT
66
1
70
0
0
VERTEX
8
CUT
10
84.3319
20
0
0
VERTEX
8
CUT
10
83.34
20
1.3744
0
VERTEX
8
CUT
10
84.89
20
3.5221
0
VERTEX
8
CUT
10
87.99
20
3.5221
0
VERTEX
8
CUT
10
89.54
20
1.3744
0
SEQEND
0
LINE
8
CUT
10
90.0011
20
0.7662
11
89.4481
21
0
0
POLYLINE
8
CUT
66
1
70
0
0
VERTEX
8
CUT
10
83.4319
20
0
0
VERTEX
8
CUT
10
82.44
20
1.3744
0
VERTEX
8
CUT
10
84.0011
20
3.5375
0
SEQEND
0
POLYLINE
8
CUT
66
1
70
0
0
VERTEX
8
CUT
10
85.19
20
4.1457
0
VERTEX
8
CUT
10
88.44
20
4.1457
0
VERTEX
8
CUT
10
90.065
20
1.894
0
SEQEND
0
POLYLINE
8
CUT
66
1
70
0
0
VERTEX
8
CUT
10
96.3586
20
70
0
VERTEX
8
CUT
10
94.86
20
67.9235
0
VERTEX
8
CUT
10
91.76
20
67.9235
0
VERTEX
8
CUT
10
90.2614
20
70
0
SEQEND
0
POLYLINE
8
CUT
66
1
70
0
0
VERTEX
8
CUT
10
96.8711
20
69.4631
0
VERTEX
8
CUT
10
95.31
20
67.3
0
VERTEX
8
CUT
10
92.1878
20
67.3
0
SEQEND
0
LINE
8
CUT
10
90.8711
20
67.9082
11
89.3614
21
70
0
POLYLINE
8
CUT
66
1
70
0
0
VERTEX
8
CUT
10
96.41
20
63.5287
0
VERTEX
8
CUT
10
94.86
20
61.381
0
VERTEX
8
CUT
10
91.76
20
61.381
0
VERTEX
8
CUT
10
90.21
20
63.5287
0
VERTEX
8
CUT
10
91.76
20
65.6765
0
VERTEX
8
CUT
10
94.86
20
65.6765
0
VERTEX
8
CUT
10
96.41
20
63.5287
0
SEQEND
0
POLYLINE
8
CUT
66
1
70
0
0
VERTEX
8
CUT
10
96.8711
20
62.9206
0
VERTEX
8
CUT
10
95.31
20
60.7574
0
VERTEX
8
CUT
10
92.1878
20
60.7574
0
SEQEND
0
POLYLINE
8
CUT
66
1
70
0
0
VERTEX
8
CUT
10
90.8711
20
61.3656
0
VERTEX
8
CUT
10
89.31
20
63.5287
0
VERTEX
8
CUT
10
90.8711
20
65.6918
0
SEQEND
0
POLYLINE
8
CUT
66
1
70
0
0
VERTEX
8
CUT
10
92.06
20
66.3
0
VERTEX
8
CUT
10
95.31
20
66.3
0
VERTEX
8
CUT
10
96.935
20
64.0483
0
SEQEND
0
POLYLINE
8
CUT
66
1
70
0
0
VERTEX
8
CUT
10
96.41
20
56.9862
0
VERTEX
8
CUT
10
94.86
20
54.8384
0
VERTEX
8
CUT
10
91.76
20
54.8384
0
VERTEX
8
CUT
10
90.21
20
56.9862
0
VERTEX
8
CUT
10
91.76
20
59.1339
0
VERTEX
8
CUT
10
94.86
20
59.1339
0
VERTEX
8
CUT
10
96.41
20
56.9862
0
SEQEND
0
POLYLINE
8
CUT
66
1
70
0
0
VERTEX
8
CUT
10
96.8711
20
56.378
0
VERTEX
8
CUT
10
95.31
20
54.2149
0
VERTEX
8
CUT
10
92.1878
20
54.2149
0
SEQEND
0
POLYLINE
8
CUT
66
1
70
0
0
VERTEX
8
CUT
10
90.8711
20
54.823
0
VERTEX
8
CUT
10
89.31
20
56.9862
0
VERTEX
8
CUT
10
90.8711
20
59.1493
0
SEQEND
0
POLYLINE
8
CUT
66
1
70
0
0
VERTEX
8
CUT
10
92.06
20
59.7574
0
VERTEX
8
CUT
10
95.31
20
59.7574
0
VERTEX
8
CUT
10
96.935
20
57.5058
0
SEQEND
0
POLYLINE
8
CUT
66
1
70
0
0
VERTEX
8
CUT
10
96.41
20
50.4436
0
VERTEX
8
CUT
10
94.86
20
48.2959
0
VERTEX
8
CUT
10
91.76
20
48.2959
0
VERTEX
8
CUT
10
90.21
20
50.4436
0
VERTEX
8
CUT
10
91.76
20
52.5913
0
VERTEX
8
CUT
10
94.86
20
52.5913
0
VERTEX
8
CUT
10
96.41
20
50.4436
0
SEQEND
0
POLYLINE
8
CUT
66
1
70
0
0
VERTEX
8
CUT
10
96.8711
20
49.8354
0
VERTEX
8
CUT
10
95.31
20
47.6723
0
VERTEX
8
CUT
10
92.1878
20
47.6723
0
SEQEND
0
POLYLINE
8
CUT
66
1
70
0
0
VERTEX
8
CUT
10
90.8711
20
48.2805
0
VERTEX
8
CUT
10
89.31
20
50.4436
0
VERTEX
8
CUT
10
90.8711
20
52.6067
0
SEQEND
0
POLYLINE
8
CUT
66
1
70
0
0
VERTEX
8
CUT
10
92.06
20
53.2149
0
VERTEX
8
CUT
10
95.31
20
53.2149
0
VERTEX
8
CUT
10
96.935
20
50.9632
0
SEQEND
0
POLYLINE
8
CUT
66
1
70
0
0
VERTEX
8
CUT
10
96.41
20
43.901
0
VERTEX
8
CUT
10
94.86
20
41.7533
0
VERTEX
8
CUT
10
91.76
20
41.7533
0
VERTEX
8
CUT
10
90.21
20
43.901
0
VERTEX
8
CUT
10
91.76
20
46.0488
0
VERTEX
8
CUT
10
94.86
20
46.0488
0
VERTEX
8
CUT
10
96.41
20
43.901
0
SEQEND
0
POLYLINE
8
CUT
66
1
70
0
0
VERTEX
8
CUT
10
96.8711
20
43.2929
0
VERTEX
8
CUT
10
95.31
20
41.1297
0
VERTEX
8
CUT
10
92.1878
20
41.1297
0
SEQEND
0
POLYLINE
8
CUT
66
1
70
0
0
VERTEX
8
CUT
10
90.8711
20
41.7379
0
VERTEX
8
CUT
10
89.31
20
43.901
0
VERTEX
8
CUT
10
90.8711
20
46.0641
0
SEQEND
0
POLYLINE
8
CUT
66
1
70
0
0
VERTEX
8
CUT
10
92.06
20
46.6723
0
VERTEX
8
CUT
10
95.31
20
46.6723
0
VERTEX
8
CUT
10
96.935
20
44.4206
0
SEQEND
0
POLYLINE
8
CUT
66
1
70
0
0
VERTEX
8
CUT
10
96.41
20
37.3585
0
VERTEX
8
CUT
10
94.86
20
35.2107
0
VERTEX
8
CUT
10
91.76
20
35.2107
0
VERTEX
8
CUT
10
90.21
20
37.3585
0
VERTEX
8
CUT
10
91.76
20
39.5062
0
VERTEX
8
CUT
10
94.86
20
39.5062
0
VERTEX
8
CUT
10
96.41
20
37.3585
0
SEQEND
0
POLYLINE
8
CUT
66
1
70
0
0
VERTEX
8
CUT
10
96.8711
20
36.7503
0
VERTEX
8
CUT
10
95.31
20
34.5872
0
VERTEX
8
CUT
10
92.1878
20
34.5872
0
SEQEND
0
POLYLINE
8
CUT
66
1
70
0
0
VERTEX
8
CUT
10
90.8711
20
35.1954
0
VERTEX
8
CUT
10
89.31
20
37.3585
0
VERTEX
8
CUT
10
90.8711
20
39.5216
0
SEQEND
0
POLYLINE
8
CUT
66
1
70
0
0
VERTEX
8
CUT
10
92.06
20
40.1297
0
VERTEX
8
CUT
10
95.31
20
40.1297
0
VERTEX
8
CUT
10
96.935
20
37.8781
0
SEQEND
0
POLYLINE
8
CUT
66
1
70
0
0
VERTEX
8
CUT
10
96.41
20
30.8159
0
VERTEX
8
CUT
10
94.86
20
28.6682
0
VERTEX
8
CUT
10
91.76
20
28.6682
0
VERTEX
8
CUT
10
90.21
20
30.8159
0
VERTEX
8
CUT
10
91.76
20
32.9636
0
VERTEX
8
CUT
10
94.86
20
32.9636
0
VERTEX
8
CUT
10
96.41
20
30.8159
0
SEQEND
0
POLYLINE
8
CUT
66
1
70
0
0
VERTEX
8
CUT
10
96.8711
20
30.2077
0
VERTEX
8
CUT
10
95.31
20
28.0446
0
VERTEX
8
CUT
10
92.1878
20
28.0446
0
SEQEND
0
POLYLINE
8
CUT
66
1
70
0
0
VERTEX
8
CUT
10
90.8711
20
28.6528
0
VERTEX
8
CUT
10
89.31
20
30.8159
0
VERTEX
8
CUT
10
90.8711
20
32.979
0
SEQEND
0
POLYLINE
8
CUT
66
1
70
0
0
VERTEX
8
CUT
10
92.06
20
33.5872
0
VERTEX
8
CUT
10
95.31
20
33.5872
0
VERTEX
8
CUT
10
96.935
20
31.3355
0
SEQEND
0
POLYLINE
8
CUT
66
1
70
0
0
VERTEX
8
CUT
10
96.41
20
24.2733
0
VERTEX
8
CUT
10
94.86
20
22.1256
0
VERTEX
8
CUT
10
91.76
20
22.1256
0
VERTEX
8
CUT
10
90.21
20
24.2733
0
VERTEX
8
CUT
10
91.76
20
26.4211
0
VERTEX
8
CUT
10
94.86
20
26.4211
0
VERTEX
8
CUT
10
96.41
20
24.2733
0
SEQEND
0
POLYLINE
8
CUT
66
1
70
0
0
VERTEX
8
CUT
10
96.8711
20
23.6652
0
VERTEX
8
CUT
10
95.31
20
21.5021
0
VERTEX
8
CUT
10
92.1878
20
21.5021
0
SEQEND
0
POLYLINE
8
CUT
66
1
70
0
0
VERTEX
8
CUT
10
90.8711
20
22.1102
0
VERTEX
8
CUT
10
89.31
20
24.2733
0
VERTEX
8
CUT
10
90.8711
20
26.4365
0
SEQEND
0
POLYLINE
8
CUT
66
1
70
0
0
VERTEX
8
CUT
10
92.06
20
27.0446
0
VERTEX
8
CUT
10
95.31
20
27.0446
0
VERTEX
8
CUT
10
96.935
20
24.793
0
SEQEND
0
POLYLINE
8
CUT
66
1
70
0
0
VERTEX
8
CUT
10
96.41
20
17.7308
0
VERTEX
8
CUT
10
94.86
20
15.583
0
VERTEX
8
CUT
10
91.76
20
15.583
0
VERTEX
8
CUT
10
90.21
20
17.7308
0
VERTEX
8
CUT
10
91.76
20
19.8785
0
VERTEX
8
CUT
10
94.86
20
19.8785
0
VERTEX
8
CUT
10
96.41
20
17.7308
0
SEQEND
0
POLYLINE
8
CUT
66
1
70
0
0
VERTEX
8
CUT
10
96.8711
20
17.1226
0
VERTEX
8
CUT
10
95.31
20
14.9595
0
VERTEX
8
CUT
10
92.1878
20
14.9595
0
SEQEND
0
POLYLINE
8
CUT
66
1
70
0
0
VERTEX
8
CUT
10
90.8711
20
15.5677
0
VERTEX
8
CUT
10
89.31
20
17.7308
0
VERTEX
8
CUT
10
90.8711
20
19.8939
0
SEQEND
0
POLYLINE
8
CUT
66
1
70
0
0
VERTEX
8
CUT
10
92.06
20
20.5021
0
VERTEX
8
CUT
10
95.31
20
20.5021
0
VERTEX
8
CUT
10
96.935
20
18.2504
0
SEQEND
0
POLYLINE
8
CUT
66
1
70
0
0
VERTEX
8
CUT
10
96.41
20
11.1882
0
VERTEX
8
CUT
10
94.86
20
9.0405
0
VERTEX
8
CUT
10
91.76
20
9.0405
0
VERTEX
8
CUT
10
90.21
20
11.1882
0
VERTEX
8
CUT
10
91.76
20
13.336
0
VERTEX
8
CUT
10
94.86
20
13.336
0
VERTEX
8
CUT
10
96.41
20
11.1882
0
SEQEND
0
POLYLINE
8
CUT
66
1
70
0
0
VERTEX
8
CUT
10
96.8711
20
10.5801
0
VERTEX
8
CUT
10
95.31
20
8.4169
0
VERTEX
8
CUT
10
92.1878
20
8.4169
0
SEQEND
0
POLYLINE
8
CUT
66
1
70
0
0
VERTEX
8
CUT
10
90.8711
20
9.0251
0
VERTEX
8
CUT
10
89.31
20
11.1882
0
VERTEX
8
CUT
10
90.8711
20
13.3513
0
SEQEND
0
POLYLINE
8
CUT
66
1
70
0
0
VERTEX
8
CUT
10
92.06
20
13.9595
0
VERTEX
8
CUT
10
95.31
20
13.9595
0
VERTEX
8
CUT
10
96.935
20
11.7078
0
SEQEND
0
POLYLINE
8
CUT
66
1
70
0
0
VERTEX
8
CUT
10
96.41
20
4.6457
0
VERTEX
8
CUT
10
94.86
20
2.4979
0
VERTEX
8
CUT
10
91.76
20
2.4979
0
VERTEX
8
CUT
10
90.21
20
4.6457
0
VERTEX
8
CUT
10
91.76
20
6.7934
0
VERTEX
8
CUT
10
94.86
20
6.7934
0
VERTEX
8
CUT
10
96.41
20
4.6457
0
SEQEND
0
POLYLINE
8
CUT
66
1
70
0
0
VERTEX
8
CUT
10
96.8711
20
4.0375
0
VERTEX
8
CUT
10
95.31
20
1.8744
0
VERTEX
8
CUT
10
92.1878
20
1.8744
0
SEQEND
0
POLYLINE
8
CUT
66
1
70
0
0
VERTEX
8
CUT
10
90.8711
20
2.4825
0
VERTEX
8
CUT
10
89.31
20
4.6457
0
VERTEX
8
CUT
10
90.8711
20
6.8088
0
SEQEND
0
POLYLINE
8
CUT
66
1
70
0
0
VERTEX
8
CUT
10
92.06
20
7.4169
0
VERTEX
8
CUT
10
95.31
20
7.4169
0
VERTEX
8
CUT
10
96.935
20
5.1653
0
SEQEND
0
POLYLINE
8
CUT
66
1
70
0
0
VERTEX
8
CUT
10
91.579
20
0
0
VERTEX
8
CUT
10
91.76
20
0.2508
0
VERTEX
8
CUT
10
94.86
20
0.2508
0
VERTEX
8
CUT
10
95.041
20
0
0
SEQEND
0
LINE
8
CUT
10
90.679
20
0
11
90.8711
21
0.2662
0
POLYLINE
8
CUT
66
1
70
0
0
VERTEX
8
CUT
10
92.06
20
0.8744
0
VERTEX
8
CUT
10
95.31
20
0.8744
0
VERTEX
8
CUT
10
95.941
20
0
0
SEQEND
0
POLYLINE
8
CUT
66
1
70
0
0
VERTEX
8
CUT
10
103.28
20
66.8
0
VERTEX
8
CUT
10
101.73
20
64.6523
0
VERTEX
8
CUT
10
98.63
20
64.6523
0
VERTEX
8
CUT
10
97.08
20
66.8
0
VERTEX
8
CUT
10
98.63
20
68.9477
0
VERTEX
8
CUT
10
101.73
20
68.9477
0
VERTEX
8
CUT
10
103.28
20
66.8
0
SEQEND
0
POLYLINE
8
CUT
66
1
70
0
0
VERTEX
8
CUT
10
103.7411
20
66.1918
0
VERTEX
8
CUT
10
102.18
20
64.0287
0
VERTEX
8
CUT
10
99.0578
20
64.0287
0
SEQEND
0
POLYLINE
8
CUT
66
1
70
0
0
VERTEX
8
CUT
10
97.7411
20
64.6369
0
VERTEX
8
CUT
10
96.18
20
66.8
0
VERTEX
8
CUT
10
97.7411
20
68.9631
0
SEQEND
0
POLYLINE
8
CUT
66
1
70
0
0
VERTEX
8
CUT
10
98.93
20
69.5713
0
VERTEX
8
CUT
10
102.18
20
69.5713
0
VERTEX
8
CUT
10
103.805
20
67.3196
0
SEQEND
0
POLYLINE
8
CUT
66
1
70
0
0
VERTEX
8
CUT
10
103.28
20
60.2574
0
VERTEX
8
CUT
10
101.73
20
58.1097
0
VERTEX
8
CUT
10
98.63
20
58.1097
0
VERTEX
8
CUT
10
97.08
20
60.2574
0
VERTEX
8
CUT
10
98.63
20
62.4052
0
VERTEX
8
CUT
10
101.73
20
62.4052
0
VERTEX
8
CUT
10
103.28
20
60.2574
0
SEQEND
0
POLYLINE
8
CUT
66
1
70
0
0
VERTEX
8
CUT
10
103.7411
20
59.6493
0
VERTEX
8
CUT
10
102.18
20
57.4862
0
VERTEX
8
CUT
10
99.0578
20
57.4862
0
SEQEND
0
POLYLINE
8
CUT
66
1
70
0
0
VERTEX
8
CUT
10
97.7411
20
58.0943
0
VERTEX
8
CUT
10
96.18
20
60.2574
0
VERTEX
8
CUT
10
97.7411
20
62.4206
0
SEQEND
0
POLYLINE
8
CUT
66
1
70
0
0
VERTEX
8
CUT
10
98.93
20
63.0287
0
VERTEX
8
CUT
10
102.18
20
63.0287
0
VERTEX
8
CUT
10
103.805
20
60.7771
0
SEQEND
0
POLYLINE
8
CUT
66
1
70
0
0
VERTEX
8
CUT
10
103.28
20
53.7149
0
VERTEX
8
CUT
10
101.73
20
51.5671
0
VERTEX
8
CUT
10
98.63
20
51.5671
0
VERTEX
8
CUT
10
97.08
20
53.7149
0
VERTEX
8
CUT
10
98.63
20
55.8626
0
VERTEX
8
CUT
10
101.73
20
55.8626
0
VERTEX
8
CUT
10
103.28
20
53.7149
0
SEQEND
0
POLYLINE
8
CUT
66
1
70
0
0
VERTEX
8
CUT
10
103.7411
20
53.1067
0
VERTEX
8
CUT
10
102.18
20
50.9436
0
VERTEX
8
CUT
10
99.0578
20
50.9436
0
SEQEND
0
POLYLINE
8
CUT
66
1
70
0
0
VERTEX
8
CUT
10
97.7411
20
51.5518
0
VERTEX
8
CUT
10
96.18
20
53.7149
0
VERTEX
8
CUT
10
97.7411
20
55.878
0
SEQEND
0
POLYLINE
8
CUT
66
1
70
0
0
VERTEX
8
CUT
10
98.93
20
56.4862
0
VERTEX
8
CUT
10
102.18
20
56.4862
0
VERTEX
8
CUT
10
103.805
20
54.2345
0
SEQEND
0
POLYLINE
8
CUT
66
1
70
0
0
VERTEX
8
CUT
10
103.28
20
47.1723
0
VERTEX
8
CUT
10
101.73
20
45.0246
0
VERTEX
8
CUT
10
98.63
20
45.0246
0
VERTEX
8
CUT
10
97.08
20
47.1723
0
VERTEX
8
CUT
10
98.63
20
49.3201
0
VERTEX
8
CUT
10
101.73
20
49.3201
0
VERTEX
8
CUT
10
103.28
20
47.1723
0
SEQEND
0
POLYLINE
8
CUT
66
1
70
0
0
VERTEX
8
CUT
10
103.7411
20
46.5641
0
VERTEX
8
CUT
10
102.18
20
44.401
0
VERTEX
8
CUT
10
99.0578
20
44.401
0
SEQEND
0
POLYLINE
8
CUT
66
1
70
0
0
VERTEX
8
CUT
10
97.7411
20
45.0092
0
VERTEX
8
CUT
10
96.18
20
47.1723
0
VERTEX
8
CUT
10
97.7411
20
49.3354
0
SEQEND
0
POLYLINE
8
CUT
66
1
70
0
0
VERTEX
8
CUT
10
98.93
20
49.9436
0
VERTEX
8
CUT
10
102.18
20
49.9436
0
VERTEX
8
CUT
10
103.805
20
47.6919
0
SEQEND
0
POLYLINE
8
CUT
66
1
70
0
0
VERTEX
8
CUT
10
103.28
20
40.6297
0
VERTEX
8
CUT
10
101.73
20
38.482
0
VERTEX
8
CUT
10
98.63
20
38.482
0
VERTEX
8
CUT
10
97.08
20
40.6297
0
VERTEX
8
CUT
10
98.63
20
42.7775
0
VERTEX
8
CUT
10
101.73
20
42.7775
0
VERTEX
8
CUT
10
103.28
20
40.6297
0
SEQEND
0
POLYLINE
8
CUT
66
1
70
0
0
VERTEX
8
CUT
10
103.7411
20
40.0216
0
VERTEX
8
CUT
10
102.18
20
37.8585
0
VERTEX
8
CUT
10
99.0578
20
37.8585
0
SEQEND
0
POLYLINE
8
CUT
66
1
70
0
0
VERTEX
8
CUT
10
97.7411
20
38.4666
0
VERTEX
8
CUT
10
96.18
20
40.6297
0
VERTEX
8
CUT
10
97.7411
20
42.7929
0
SEQEND
0
POLYLINE
8
CUT
66
1
70
0
0
VERTEX
8
CUT
10
98.93
20
43.401
0
VERTEX
8
CUT
10
102.18
20
43.401
0
VERTEX
8
CUT
10
103.805
20
41.1494
0
SEQEND
0
POLYLINE
8
CUT
66
1
70
0
0
VERTEX
8
CUT
10
103.28
20
34.0872
0
VERTEX
8
CUT
10
101.73
20
31.9394
0
VERTEX
8
CUT
10
98.63
20
31.9394
0
VERTEX
8
CUT
10
97.08
20
34.0872
0
VERTEX
8
CUT
10
98.63
20
36.2349
0
VERTEX
8
CUT
10
101.73
20
36.2349
0
VERTEX
8
CUT
10
103.28
20
34.0872
0
SEQEND
0
POLYLINE
8
CUT
66
1
70
0
0
VERTEX
8
CUT
10
103.7411
20
33.479
0
VERTEX
8
CUT
10
102.18
20
31.3159
0
VERTEX
8
CUT
10
99.0578
20
31.3159
0
SEQEND
0
POLYLINE
8
CUT
66
1
70
0
0
VERTEX
8
CUT
10
97.7411
20
31.9241
0
VERTEX
8
CUT
10
96.18
20
34.0872
0
VERTEX
8
CUT
10
97.7411
20
36.2503
0
SEQEND
0
POLYLINE
8
CUT
66
1
70
0
0
VERTEX
8
CUT
10
98.93
20
36.8585
0
VERTEX
8
CUT
10
102.18
20
36.8585
0
VERTEX
8
CUT
10
103.805
20
34.6068
0
SEQEND
0
POLYLINE
8
CUT
66
1
70
0
0
VERTEX
8
CUT
10
103.28
20
27.5446
0
VERTEX
8
CUT
10
101.73
20
25.3969
0
VERTEX
8
CUT
10
98.63
20
25.3969
0
VERTEX
8
CUT
10
97.08
20
27.5446
0
VERTEX
8
CUT
10
98.63
20
29.6924
0
VERTEX
8
CUT
10
101.73
20
29.6924
0
VERTEX
8
CUT
10
103.28
20
27.5446
0
SEQEND
0
POLYLINE
8
CUT
66
1
70
0
0
VERTEX
8
CUT
10
103.7411
20
26.9365
0
VERTEX
8
CUT
10
102.18
20
24.7733
0
VERTEX
8
CUT
10
99.0578
20
24.7733
0
SEQEND
0
POLYLINE
8
CUT
66
1
70
0
0
VERTEX
8
CUT
10
97.7411
20
25.3815
0
VERTEX
8
CUT
10
96.18
20
27.5446
0
VERTEX
8
CUT
10
97.7411
20
29.7077
0
SEQEND
0
POLYLINE
8
CUT
66
1
70
0
0
VERTEX
8
CUT
10
98.93
20
30.3159
0
VERTEX
8
CUT
10
102.18
20
30.3159
0
VERTEX
8
CUT
10
103.805
20
28.0642
0
SEQEND
0
POLYLINE
8
CUT
66
1
70
0
0
VERTEX
8
CUT
10
103.28
20
21.0021
0
VERTEX
8
CUT
10
101.73
20
18.8543
0
VERTEX
8
CUT
10
98.63
20
18.8543
0
VERTEX
8
CUT
10
97.08
20
21.0021
0
VERTEX
8
CUT
10
98.63
20
23.1498
0
VERTEX
8
CUT
10
101.73
20
23.1498
0
VERTEX
8
CUT
10
103.28
20
21.0021
0
SEQEND
0
POLYLINE
8
CUT
66
1
70
0
0
VERTEX
8
CUT
10
103.7411
20
20.3939
0
VERTEX
8
CUT
10
102.18
20
18.2308
0
VERTEX
8
CUT
10
99.0578
20
18.2308
0
SEQEND
0
POLYLINE
8
CUT
66
1
70
0
0
VERTEX
8
CUT
10
97.7411
20
18.8389
0
VERTEX
8
CUT
10
96.18
20
21.0021
0
VERTEX
8
CUT
10
97.7411
20
23.1652
0
SEQEND
0
POLYLINE
8
CUT
66
1
70
0
0
VERTEX
8
CUT
10
98.93
20
23.7733
0
VERTEX
8
CUT
10
102.18
20
23.7733
0
VERTEX
8
CUT
10
103.805
20
21.5217
0
SEQEND
0
POLYLINE
8
CUT
66
1
70
0
0
VERTEX
8
CUT
10
103.28
20
14.4595
0
VERTEX
8
CUT
10
101.73
20
12.3118
0
VERTEX
8
CUT
10
98.63
20
12.3118
0
VERTEX
8
CUT
10
97.08
20
14.4595
0
VERTEX
8
CUT
10
98.63
20
16.6072
0
VERTEX
8
CUT
10
101.73
20
16.6072
0
VERTEX
8
CUT
10
103.28
20
14.4595
0
SEQEND
0
POLYLINE
8
CUT
66
1
70
0
0
VERTEX
8
CUT
10
103.7411
20
13.8513
0
VERTEX
8
CUT
10
102.18
20
11.6882
0
VERTEX
8
CUT
10
99.0578
20
11.6882
0
SEQEND
0
POLYLINE
8
CUT
66
1
70
0
0
VERTEX
8
CUT
10
97.7411
20
12.2964
0
VERTEX
8
CUT
10
96.18
20
14.4595
0
VERTEX
8
CUT
10
97.7411
20
16.6226
0
SEQEND
0
POLYLINE
8
CUT
66
1
70
0
0
VERTEX
8
CUT
10
98.93
20
17.2308
0
VERTEX
8
CUT
10
102.18
20
17.2308
0
VERTEX
8
CUT
10
103.805
20
14.9791
0
SEQEND
0
POLYLINE
8
CUT
66
1
70
0
0
VERTEX
8
CUT
10
103.28
20
7.9169
0
VERTEX
8
CUT
10
101.73
20
5.7692
0
VERTEX
8
CUT
10
98.63
20
5.7692
0
VERTEX
8
CUT
10
97.08
20
7.9169
0
VERTEX
8
CUT
10
98.63
20
10.0647
0
VERTEX
8
CUT
10
101.73
20
10.0647
0
VERTEX
8
CUT
10
103.28
20
7.9169
0
SEQEND
0
POLYLINE
8
CUT
66
1
70
0
0
VERTEX
8
CUT
10
103.7411
20
7.3088
0
VERTEX
8
CUT
10
102.18
20
5.1457
0
VERTEX
8
CUT
10
99.0578
20
5.1457
0
SEQEND
0
POLYLINE
8
CUT
66
1
70
0
0
VERTEX
8
CUT
10
97.7411
20
5.7538
0
VERTEX
8
CUT
10
96.18
20
7.9169
0
VERTEX
8
CUT
10
97.7411
20
10.0801
0
SEQEND
0
POLYLINE
8
CUT
66
1
70
0
0
VERTEX
8
CUT
10
98.93
20
10.6882
0
VERTEX
8
CUT
10
102.18
20
10.6882
0
VERTEX
8
CUT
10
103.805
20
8.4366
0
SEQEND
0
LINE
8
CUT
10
103.28
20
1.3744
11
102.2881
21
0
0
POLYLINE
8
CUT
66
1
70
0
0
VERTEX
8
CUT
10
98.0719
20
0
0
VERTEX
8
CUT
10
97.08
20
1.3744
0
VERTEX
8
CUT
10
98.63
20
3.5221
0
VERTEX
8
CUT
10
101.73
20
3.5221
0
VERTEX
8
CUT
10
103.28
20
1.3744
0
SEQEND
0
LINE
8
CUT
10
103.7411
20
0.7662
11
103.1881
21
0
0
POLYLINE
8
CUT
66
1
70
0
0
VERTEX
8
CUT
10
97.1719
20
0
0
VERTEX
8
CUT
10
96.18
20
1.3744
0
VERTEX
8
CUT
10
97.7411
20
3.5375
0
SEQEND
0
POLYLINE
8
CUT
66
1
70
0
0
VERTEX
8
CUT
10
98.93
20
4.1457
0
VERTEX
8
CUT
10
102.18
20
4.1457
0
VERTEX
8
CUT
10
103.805
20
1.894
0
SEQEND
0
POLYLINE
8
CUT
66
1
70
0
0
VERTEX
8
CUT
10
110.0986
20
70
0
VERTEX
8
CUT
10
108.6
20
67.9235
0
VERTEX
8
CUT
10
105.5
20
67.9235
0
VERTEX
8
CUT
10
104.0014
20
70
0
SEQEND
0
POLYLINE
8
CUT
66
1
70
0
0
VERTEX
8
CUT
10
110.6111
20
69.4631
0
VERTEX
8
CUT
10
109.05
20
67.3
0
VERTEX
8
CUT
10
105.9278
20
67.3
0
SEQEND
0
LINE
8
CUT
10
104.6111
20
67.9082
11
103.1014
21
70
0
POLYLINE
8
CUT
66
1
70
0
0
VERTEX
8
CUT
10
110.15
20
63.5287
0
VERTEX
8
CUT
10
108.6
20
61.381
0
VERTEX
8
CUT
10
105.5
20
61.381
0
VERTEX
8
CUT
10
103.95
20
63.5287
0
VERTEX
8
CUT
10
105.5
20
65.6765
0
VERTEX
8
CUT
10
108.6
20
65.6765
0
VERTEX
8
CUT
10
110.15
20
63.5287
0
SEQEND
0
POLYLINE
8
CUT
66
1
70
0
0
VERTEX
8
CUT
10
110.6111
20
62.9206
0
VERTEX
8
CUT
10
109.05
20
60.7574
0
VERTEX
8
CUT
10
105.9278
20
60.7574
0
SEQEND
0
POLYLINE
8
CUT
66
1
70
0
0
VERTEX
8
CUT
10
104.6111
20
61.3656
0
VERTEX
8
CUT
10
103.05
20
63.5287
0
VERTEX
8
CUT
10
104.6111
20
65.6918
0
SEQEND
0
POLYLINE
8
CUT
66
1
70
0
0
VERTEX
8
CUT
10
105.8
20
66.3
0
VERTEX
8
CUT
10
109.05
20
66.3
0
VERTEX
8
CUT
10
110.675
20
64.0483
0
SEQEND
0
POLYLINE
8
CUT
66
1
70
0
0
VERTEX
8
CUT
10
110.15
20
56.9862
0
VERTEX
8
CUT
10
108.6
20
54.8384
0
VERTEX
8
CUT
10
105.5
20
54.8384
0
VERTEX
8
CUT
10
103.95
20
56.9862
0
VERTEX
8
CUT
10
105.5
20
59.1339
0
VERTEX
8
CUT
10
108.6
20
59.1339
0
VERTEX
8
CUT
10
110.15
20
56.9862
0
SEQEND
0
POLYLINE
8
CUT
66
1
70
0
0
VERTEX
8
CUT
10
110.6111
20
56.378
0
VERTEX
8
CUT
10
109.05
20
54.2149
0
VERTEX
8
CUT
10
105.9278
20
54.2149
0
SEQEND
0
POLYLINE
8
CUT
66
1
70
0
0
VERTEX
8
CUT
10
104.6111
20
54.823
0
VERTEX
8
CUT
10
103.05
20
56.9862
0
VERTEX
8
CUT
10
104.6111
20
59.1493
0
SEQEND
0
POLYLINE
8
CUT
66
1
70
0
0
VERTEX
8
CUT
10
105.8
20
59.7574
0
VERTEX
8
CUT
10
109.05
20
59.7574
0
VERTEX
8
CUT
10
110.675
20
57.5058
0
SEQEND
0
POLYLINE
8
CUT
66
1
70
0
0
VERTEX
8
CUT
10
110.15
20
50.4436
0
VERTEX
8
CUT
10
108.6
20
48.2959
0
VERTEX
8
CUT
10
105.5
20
48.2959
0
VERTEX
8
CUT
10
103.95
20
50.4436
0
VERTEX
8
CUT
10
105.5
20
52.5913
0
VERTEX
8
CUT
10
108.6
20
52.5913
0
VERTEX
8
CUT
10
110.15
20
50.4436
0
SEQEND
0
POLYLINE
8
CUT
66
1
70
0
0
VERTEX
8
CUT
10
110.6111
20
49.8354
0
VERTEX
8
CUT
10
109.05
20
47.6723
0
VERTEX
8
CUT
10
105.9278
20
47.6723
0
SEQEND
0
POLYLINE
8
CUT
66
1
70
0
0
VERTEX
8
CUT
10
104.6111
20
48.2805
0
VERTEX
8
CUT
10
103.05
20
50.4436
0
VERTEX
8
CUT
10
104.6111
20
52.6067
0
SEQEND
0
POLYLINE
8
CUT
66
1
70
0
0
VERTEX
8
CUT
10
105.8
20
53.2149
0
VERTEX
8
CUT
10
109.05
20
53.2149
0
VERTEX
8
CUT
10
110.675
20
50.9632
0
SEQEND
0
POLYLINE
8
CUT
66
1
70
0
0
VERTEX
8
CUT
10
110.15
20
43.901
0
VERTEX
8
CUT
10
108.6
20
41.7533
0
VERTEX
8
CUT
10
105.5
20
41.7533
0
VERTEX
8
CUT
10
103.95
20
43.901
0
VERTEX
8
CUT
10
105.5
20
46.0488
0
VERTEX
8
CUT
10
108.6
20
46.0488
0
VERTEX
8
CUT
10
110.15
20
43.901
0
SEQEND
0
POLYLINE
8
CUT
66
1
70
0
0
VERTEX
8
CUT
10
110.6111
20
43.2929
0
VERTEX
8
CUT
10
109.05
20
41.1297
0
VERTEX
8
CUT
10
105.9278
20
41.1297
0
SEQEND
0
POLYLINE
8
CUT
66
1
70
0
0
VERTEX
8
CUT
10
104.6111
20
41.7379
0
VERTEX
8
CUT
10
103.05
20
43.901
0
VERTEX
8
CUT
10
104.6111
20
46.0641
0
SEQEND
0
POLYLINE
8
CUT
66
1
70
0
0
VERTEX
8
CUT
10
105.8
20
46.6723
0
VERTEX
8
CUT
10
109.05
20
46.6723
0
VERTEX
8
CUT
10
110.675
20
44.4206
0
SEQEND
0
POLYLINE
8
CUT
66
1
70
0
0
VERTEX
8
CUT
10
110.15
20
37.3585
0
VERTEX
8
CUT
10
108.6
20
35.2107
0
VERTEX
8
CUT
10
105.5
20
35.2107
0
VERTEX
8
CUT
10
103.95
20
37.3585
0
VERTEX
8
CUT
10
105.5
20
39.5062
0
VERTEX
8
CUT
10
108.6
20
39.5062
0
VERTEX
8
CUT
10
110.15
20
37.3585
0
SEQEND
0
POLYLINE
8
CUT
66
1
70
0
0
VERTEX
8
CUT
10
110.6111
20
36.7503
0
VERTEX
8
CUT
10
109.05
20
34.5872
0
VERTEX
8
CUT
10
105.9278
20
34.5872
0
SEQEND
0
POLYLINE
8
CUT
66
1
70
0
0
VERTEX
8
CUT
10
104.6111
20
35.1954
0
VERTEX
8
CUT
10
103.05
20
37.3585
0
VERTEX
8
CUT
10
104.6111
20
39.5216
0
SEQEND
0
POLYLINE
8
CUT
66
1
70
0
0
VERTEX
8
CUT
10
105.8
20
40.1297
0
VERTEX
8
CUT
10
109.05
20
40.1297
0
VERTEX
8
CUT
10
110.675
20
37.8781
0
SEQEND
0
POLYLINE
8
CUT
66
1
70
0
0
VERTEX
8
CUT
10
110.15
20
30.8159
0
VERTEX
8
CUT
10
108.6
20
28.6682
0
VERTEX
8
CUT
10
105.5
20
28.6682
0
VERTEX
8
CUT
10
103.95
20
30.8159
0
VERTEX
8
CUT
10
105.5
20
32.9636
0
VERTEX
8
CUT
10
108.6
20
32.9636
0
VERTEX
8
CUT
10
110.15
20
30.8159
0
SEQEND
0
POLYLINE
8
CUT
66
1
70
0
0
VERTEX
8
CUT
10
110.6111
20
30.2077
0
VERTEX
8
CUT
10
109.05
20
28.0446
0
VERTEX
8
CUT
10
105.9278
20
28.0446
0
SEQEND
0
POLYLINE
8
CUT
66
1
70
0
0
VERTEX
8
CUT
10
104.6111
20
28.6528
0
VERTEX
8
CUT
10
103.05
20
30.8159
0
VERTEX
8
CUT
10
104.6111
20
32.979
0
SEQEND
0
POLYLINE
8
CUT
66
1
70
0
0
VERTEX
8
CUT
10
105.8
20
33.5872
0
VERTEX
8
CUT
10
109.05
20
33.5872
0
VERTEX
8
CUT
10
110.675
20
31.3355
0
SEQEND
0
POLYLINE
8
CUT
66
1
70
0
0
VERTEX
8
CUT
10
110.15
20
24.2733
0
VERTEX
8
CUT
10
108.6
20
22.1256
0
VERTEX
8
CUT
10
105.5
20
22.1256
0
VERTEX
8
CUT
10
103.95
20
24.2733
0
VERTEX
8
CUT
10
105.5
20
26.4211
0
VERTEX
8
CUT
10
108.6
20
26.4211
0
VERTEX
8
CUT
10
110.15
20
24.2733
0
SEQEND
0
POLYLINE
8
CUT
66
1
70
0
0
VERTEX
8
CUT
10
110.6111
20
23.6652
0
VERTEX
8
CUT
10
109.05
20
21.5021
0
VERTEX
8
CUT
10
105.9278
20
21.5021
0
SEQEND
0
POLYLINE
8
CUT
66
1
70
0
0
VERTEX
8
CUT
10
104.6111
20
22.1102
0
VERTEX
8
CUT
10
103.05
20
24.2733
0
VERTEX
8
CUT
10
104.6111
20
26.4365
0
SEQEND
0
POLYLINE
8
CUT
66
1
70
0
0
VERTEX
8
CUT
10
105.8
20
27.0446
0
VERTEX
8
CUT
10
109.05
20
27.0446
0
VERTEX
8
CUT
10
110.675
20
24.793
0
SEQEND
0
POLYLINE
8
CUT
66
1
70
0
0
VERTEX
8
CUT
10
110.15
20
17.7308
0
VERTEX
8
CUT
10
108.6
20
15.583
0
VERTEX
8
CUT
10
105.5
20
15.583
0
VERTEX
8
CUT
10
103.95
20
17.7308
0
VERTEX
8
CUT
10
105.5
20
19.8785
0
VERTEX
8
CUT
10
108.6
20
19.8785
0
VERTEX
8
CUT
10
110.15
20
17.7308
0
SEQEND
0
POLYLINE
8
CUT
66
1
70
0
0
VERTEX
8
CUT
10
110.6111
20
17.1226
0
VERTEX
8
CUT
10
109.05
20
14.9595
0
VERTEX
8
CUT
10
105.9278
20
14.9595
0
SEQEND
0
POLYLINE
8
CUT
66
1
70
0
0
VERTEX
8
CUT
10
104.6111
20
15.5677
0
VERTEX
8
CUT
10
103.05
20
17.7308
0
VERTEX
8
CUT
10
104.6111
20
19.8939
0
SEQEND
0
POLYLINE
8
CUT
66
1
70
0
0
VERTEX
8
CUT
10
105.8
20
20.5021
0
VERTEX
8
CUT
10
109.05
20
20.5021
0
VERTEX
8
CUT
10
110.675
20
18.2504
0
SEQEND
0
POLYLINE
8
CUT
66
1
70
0
0
VERTEX
8
CUT
10
110.15
20
11.1882
0
VERTEX
8
CUT
10
108.6
20
9.0405
0
VERTEX
8
CUT
10
105.5
20
9.0405
0
VERTEX
8
CUT
10
103.95
20
11.1882
0
VERTEX
8
CUT
10
105.5
20
13.336
0
VERTEX
8
CUT
10
108.6
20
13.336
0
VERTEX
8
CUT
10
110.15
20
11.1882
0
SEQEND
0
POLYLINE
8
CUT
66
1
70
0
0
VERTEX
8
CUT
10
110.6111
20
10.5801
0
VERTEX
8
CUT
10
109.05
20
8.4169
0
VERTEX
8
CUT
10
105.9278
20
8.4169
0
SEQEND
0
POLYLINE
8
CUT
66
1
70
0
0
VERTEX
8
CUT
10
104.6111
20
9.0251
0
VERTEX
8
CUT
10
103.05
20
11.1882
0
VERTEX
8
CUT
10
104.6111
20
13.3513
0
SEQEND
0
POLYLINE
8
CUT
66
1
70
0
0
VERTEX
8
CUT
10
105.8
20
13.9595
0
VERTEX
8
CUT
10
109.05
20
13.9595
0
VERTEX
8
CUT
10
110.675
20
11.7078
0
SEQEND
0
POLYLINE
8
CUT
66
1
70
0
0
VERTEX
8
CUT
10
110.15
20
4.6457
0
VERTEX
8
CUT
10
108.6
20
2.4979
0
VERTEX
8
CUT
10
105.5
20
2.4979
0
VERTEX
8
CUT
10
103.95
20
4.6457
0
VERTEX
8
CUT
10
105.5
20
6.7934
0
VERTEX
8
CUT
10
108.6
20
6.7934
0
VERTEX
8
CUT
10
110.15
20
4.6457
0
SEQEND
0
POLYLINE
8
CUT
66
1
70
0
0
VERTEX
8
CUT
10
110.6111
20
4.0375
0
VERTEX
8
CUT
10
109.05
20
1.8744
0
VERTEX
8
CUT
10
105.9278
20
1.8744
0
SEQEND
0
POLYLINE
8
CUT
66
1
70
0
0
VERTEX
8
CUT
10
104.6111
20
2.4825
0
VERTEX
8
CUT
10
103.05
20
4.6457
0
VERTEX
8
CUT
10
104.6111
20
6.8088
0
SEQEND
0
POLYLINE
8
CUT
66
1
70
0
0
VERTEX
8
CUT
10
105.8
20
7.4169
0
VERTEX
8
CUT
10
109.05
20
7.4169
0
VERTEX
8
CUT
10
110.675
20
5.1653
0
SEQEND
0
POLYLINE
8
CUT
66
1
70
0
0
VERTEX
8
CUT
10
105.319
20
0
0
VERTEX
8
CUT
10
105.5
20
0.2508
0
VERTEX
8
CUT
10
108.6
20
0.2508
0
VERTEX
8
CUT
10
108.781
20
0
0
SEQEND
0
LINE
8
CUT
10
104.419
20
0
11
104.6111
21
0.2662
0
POLYLINE
8
CUT
66
1
70
0
0
VERTEX
8
CUT
10
105.8
20
0.8744
0
VERTEX
8
CUT
10
109.05
20
0.8744
0
VERTEX
8
CUT
10
109.681
20
0
0
SEQEND
0
POLYLINE
8
CUT
66
1
70
0
0
VERTEX
8
CUT
10
117.02
20
66.8
0
VERTEX
8
CUT
10
115.47
20
64.6523
0
VERTEX
8
CUT
10
112.37
20
64.6523
0
VERTEX
8
CUT
10
110.82
20
66.8
0
VERTEX
8
CUT
10
112.37
20
68.9477
0
VERTEX
8
CUT
10
115.47
20
68.9477
0
VERTEX
8
CUT
10
117.02
20
66.8
0
SEQEND
0
POLYLINE
8
CUT
66
1
70
0
0
VERTEX
8
CUT
10
117.4811
20
66.1918
0
VERTEX
8
CUT
10
115.92
20
64.0287
0
VERTEX
8
CUT
10
112.7978
20
64.0287
0
SEQEND
0
POLYLINE
8
CUT
66
1
70
0
0
VERTEX
8
CUT
10
111.4811
20
64.6369
0
VERTEX
8
CUT
10
109.92
20
66.8
0
VERTEX
8
CUT
10
111.4811
20
68.9631
0
SEQEND
0
POLYLINE
8
CUT
66
1
70
0
0
VERTEX
8
CUT
10
112.67
20
69.5713
0
VERTEX
8
CUT
10
115.92
20
69.5713
0
VERTEX
8
CUT
10
117.545
20
67.3196
0
SEQEND
0
POLYLINE
8
CUT
66
1
70
0
0
VERTEX
8
CUT
10
117.02
20
60.2574
0
VERTEX
8
CUT
10
115.47
20
58.1097
0
VERTEX
8
CUT
10
112.37
20
58.1097
0
VERTEX
8
CUT
10
110.82
20
60.2574
0
VERTEX
8
CUT
10
112.37
20
62.4052
0
VERTEX
8
CUT
10
115.47
20
62.4052
0
VERTEX
8
CUT
10
117.02
20
60.2574
0
SEQEND
0
POLYLINE
8
CUT
66
1
70
0
0
VERTEX
8
CUT
10
117.4811
20
59.6493
0
VERTEX
8
CUT
10
115.92
20
57.4862
0
VERTEX
8
CUT
10
112.7978
20
57.4862
0
SEQEND
0
POLYLINE
8
CUT
66
1
70
0
0
VERTEX
8
CUT
10
111.4811
20
58.0943
0
VERTEX
8
CUT
10
109.92
20
60.2574
0
VERTEX
8
CUT
10
111.4811
20
62.4206
0
SEQEND
0
POLYLINE
8
CUT
66
1
70
0
0
VERTEX
8
CUT
10
112.67
20
63.0287
0
VERTEX
8
CUT
10
115.92
20
63.0287
0
VERTEX
8
CUT
10
117.545
20
60.7771
0
SEQEND
0
POLYLINE
8
CUT
66
1
70
0
0
VERTEX
8
CUT
10
117.02
20
53.7149
0
VERTEX
8
CUT
10
115.47
20
51.5671
0
VERTEX
8
CUT
10
112.37
20
51.5671
0
VERTEX
8
CUT
10
110.82
20
53.7149
0
VERTEX
8
CUT
10
112.37
20
55.8626
0
VERTEX
8
CUT
10
115.47
20
55.8626
0
VERTEX
8
CUT
10
117.02
20
53.7149
0
SEQEND
0
POLYLINE
8
CUT
66
1
70
0
0
VERTEX
8
CUT
10
117.4811
20
53.1067
0
VERTEX
8
CUT
10
115.92
20
50.9436
0
VERTEX
8
CUT
10
112.7978
20
50.9436
0
SEQEND
0
POLYLINE
8
CUT
66
1
70
0
0
VERTEX
8
CUT
10
111.4811
20
51.5518
0
VERTEX
8
CUT
10
109.92
20
53.7149
0
VERTEX
8
CUT
10
111.4811
20
55.878
0
SEQEND
0
POLYLINE
8
CUT
66
1
70
0
0
VERTEX
8
CUT
10
112.67
20
56.4862
0
VERTEX
8
CUT
10
115.92
20
56.4862
0
VERTEX
8
CUT
10
117.545
20
54.2345
0
SEQEND
0
POLYLINE
8
CUT
66
1
70
0
0
VERTEX
8
CUT
10
117.02
20
47.1723
0
VERTEX
8
CUT
10
115.47
20
45.0246
0
VERTEX
8
CUT
10
112.37
20
45.0246
0
VERTEX
8
CUT
10
110.82
20
47.1723
0
VERTEX
8
CUT
10
112.37
20
49.3201
0
VERTEX
8
CUT
10
115.47
20
49.3201
0
VERTEX
8
CUT
10
117.02
20
47.1723
0
SEQEND
0
POLYLINE
8
CUT
66
1
70
0
0
VERTEX
8
CUT
10
117.4811
20
46.5641
0
VERTEX
8
CUT
10
115.92
20
44.401
0
VERTEX
8
CUT
10
112.7978
20
44.401
0
SEQEND
0
POLYLINE
8
CUT
66
1
70
0
0
VERTEX
8
CUT
10
111.4811
20
45.0092
0
VERTEX
8
CUT
10
109.92
20
47.1723
0
VERTEX
8
CUT
10
111.4811
20
49.3354
0
SEQEND
0
POLYLINE
8
CUT
66
1
70
0
0
VERTEX
8
CUT
10
112.67
20
49.9436
0
VERTEX
8
CUT
10
115.92
20
49.9436
0
VERTEX
8
CUT
10
117.545
20
47.6919
0
SEQEND
0
POLYLINE
8
CUT
66
1
70
0
0
VERTEX
8
CUT
10
117.02
20
40.6297
0
VERTEX
8
CUT
10
115.47
20
38.482
0
VERTEX
8
CUT
10
112.37
20
38.482
0
VERTEX
8
CUT
10
110.82
20
40.6297
0
VERTEX
8
CUT
10
112.37
20
42.7775
0
VERTEX
8
CUT
10
115.47
20
42.7775
0
VERTEX
8
CUT
10
117.02
20
40.6297
0
SEQEND
0
POLYLINE
8
CUT
66
1
70
0
0
VERTEX
8
CUT
10
117.4811
20
40.0216
0
VERTEX
8
CUT
10
115.92
20
37.8585
0
VERTEX
8
CUT
10
112.7978
20
37.8585
0
SEQEND
0
POLYLINE
8
CUT
66
1
70
0
0
VERTEX
8
CUT
10
111.4811
20
38.4666
0
VERTEX
8
CUT
10
109.92
20
40.6297
0
VERTEX
8
CUT
10
111.4811
20
42.7929
0
SEQEND
0
POLYLINE
8
CUT
66
1
70
0
0
VERTEX
8
CUT
10
112.67
20
43.401
0
VERTEX
8
CUT
10
115.92
20
43.401
0
VERTEX
8
CUT
10
117.545
20
41.1494
0
SEQEND
0
POLYLINE
8
CUT
66
1
70
0
0
VERTEX
8
CUT
10
117.02
20
34.0872
0
VERTEX
8
CUT
10
115.47
20
31.9394
0
VERTEX
8
CUT
10
112.37
20
31.9394
0
VERTEX
8
CUT
10
110.82
20
34.0872
0
VERTEX
8
CUT
10
112.37
20
36.2349
0
VERTEX
8
CUT
10
115.47
20
36.2349
0
VERTEX
8
CUT
10
117.02
20
34.0872
0
SEQEND
0
POLYLINE
8
CUT
66
1
70
0
0
VERTEX
8
CUT
10
117.4811
20
33.479
0
VERTEX
8
CUT
10
115.92
20
31.3159
0
VERTEX
8
CUT
10
112.7978
20
31.3159
0
SEQEND
0
POLYLINE
8
CUT
66
1
70
0
0
VERTEX
8
CUT
10
111.4811
20
31.9241
0
VERTEX
8
CUT
10
109.92
20
34.0872
0
VERTEX
8
CUT
10
111.4811
20
36.2503
0
SEQEND
0
POLYLINE
8
CUT
66
1
70
0
0
VERTEX
8
CUT
10
112.67
20
36.8585
0
VERTEX
8
CUT
10
115.92
20
36.8585
0
VERTEX
8
CUT
10
117.545
20
34.6068
0
SEQEND
0
POLYLINE
8
CUT
66
1
70
0
0
VERTEX
8
CUT
10
117.02
20
27.5446
0
VERTEX
8
CUT
10
115.47
20
25.3969
0
VERTEX
8
CUT
10
112.37
20
25.3969
0
VERTEX
8
CUT
10
110.82
20
27.5446
0
VERTEX
8
CUT
10
112.37
20
29.6924
0
VERTEX
8
CUT
10
115.47
20
29.6924
0
VERTEX
8
CUT
10
117.02
20
27.5446
0
SEQEND
0
POLYLINE
8
CUT
66
1
70
0
0
VERTEX
8
CUT
10
117.4811
20
26.9365
0
VERTEX
8
CUT
10
115.92
20
24.7733
0
VERTEX
8
CUT
10
112.7978
20
24.7733
0
SEQEND
0
POLYLINE
8
CUT
66
1
70
0
0
VERTEX
8
CUT
10
111.4811
20
25.3815
0
VERTEX
8
CUT
10
109.92
20
27.5446
0
VERTEX
8
CUT
10
111.4811
20
29.7077
0
SEQEND
0
POLYLINE
8
CUT
66
1
70
0
0
VERTEX
8
CUT
10
112.67
20
30.3159
0
VERTEX
8
CUT
10
115.92
20
30.3159
0
VERTEX
8
CUT
10
117.545
20
28.0642
0
SEQEND
0
POLYLINE
8
CUT
66
1
70
0
0
VERTEX
8
CUT
10
117.02
20
21.0021
0
VERTEX
8
CUT
10
115.47
20
18.8543
0
VERTEX
8
CUT
10
112.37
20
18.8543
0
VERTEX
8
CUT
10
110.82
20
21.0021
0
VERTEX
8
CUT
10
112.37
20
23.1498
0
VERTEX
8
CUT
10
115.47
20
23.1498
0
VERTEX
8
CUT
10
117.02
20
21.0021
0
SEQEND
0
POLYLINE
8
CUT
66
1
70
0
0
VERTEX
8
CUT
10
117.4811
20
20.3939
0
VERTEX
8
CUT
10
115.92
20
18.2308
0
VERTEX
8
CUT
10
112.7978
20
18.2308
0
SEQEND
0
POLYLINE
8
CUT
66
1
70
0
0
VERTEX
8
CUT
10
111.4811
20
18.8389
0
VERTEX
8
CUT
10
109.92
20
21.0021
0
VERTEX
8
CUT
10
111.4811
20
23.1652
0
SEQEND
0
POLYLINE
8
CUT
66
1
70
0
0
VERTEX
8
CUT
10
112.67
20
23.7733
0
VERTEX
8
CUT
10
115.92
20
23.7733
0
VERTEX
8
CUT
10
117.545
20
21.5217
0
SEQEND
0
POLYLINE
8
CUT
66
1
70
0
0
VERTEX
8
CUT
10
117.02
20
14.4595
0
VERTEX
8
CUT
10
115.47
20
12.3118
0
VERTEX
8
CUT
10
112.37
20
12.3118
0
VERTEX
8
CUT
10
110.82
20
14.4595
0
VERTEX
8
CUT
10
112.37
20
16.6072
0
VERTEX
8
CUT
10
115.47
20
16.6072
0
VERTEX
8
CUT
10
117.02
20
14.4595
0
SEQEND
0
POLYLINE
8
CUT
66
1
70
0
0
VERTEX
8
CUT
10
117.4811
20
13.8513
0
VERTEX
8
CUT
10
115.92
20
11.6882
0
VERTEX
8
CUT
10
112.7978
20
11.6882
0
SEQEND
0
POLYLINE
8
CUT
66
1
70
0
0
VERTEX
8
CUT
10
111.4811
20
12.2964
0
VERTEX
8
CUT
10
109.92
20
14.4595
0
VERTEX
8
CUT
10
111.4811
20
16.6226
0
SEQEND
0
POLYLINE
8
CUT
66
1
70
0
0
VERTEX
8
CUT
10
112.67
20
17.2308
0
VERTEX
8
CUT
10
115.92
20
17.2308
0
VERTEX
8
CUT
10
117.545
20
14.9791
0
SEQEND
0
POLYLINE
8
CUT
66
1
70
0
0
VERTEX
8
CUT
10
117.02
20
7.9169
0
VERTEX
8
CUT
10
115.47
20
5.7692
0
VERTEX
8
CUT
10
112.37
20
5.7692
0
VERTEX
8
CUT
10
110.82
20
7.9169
0
VERTEX
8
CUT
10
112.37
20
10.0647
0
VERTEX
8
CUT
10
115.47
20
10.0647
0
VERTEX
8
CUT
10
117.02
20
7.9169
0
SEQEND
0
POLYLINE
8
CUT
66
1
70
0
0
VERTEX
8
CUT
10
117.4811
20
7.3088
0
VERTEX
8
CUT
10
115.92
20
5.1457
0
VERTEX
8
CUT
10
112.7978
20
5.1457
0
SEQEND
0
POLYLINE
8
CUT
66
1
70
0
0
VERTEX
8
CUT
10
111.4811
20
5.7538
0
VERTEX
8
CUT
10
109.92
20
7.9169
0
VERTEX
8
CUT
10
111.4811
20
10.0801
0
SEQEND
0
POLYLINE
8
CUT
66
1
70
0
0
VERTEX
8
CUT
10
112.67
20
10.6882
0
VERTEX
8
CUT
10
115.92
20
10.6882
0
VERTEX
8
CUT
10
117.545
20
8.4366
0
SEQEND
0
LINE
8
CUT
10
117.02
20
1.3744
11
116.0281
21
0
0
POLYLINE
8
CUT
66
1
70
0
0
VERTEX
8
CUT
10
111.8119
20
0
0
VERTEX
8
CUT
10
110.82
20
1.3744
0
VERTEX
8
CUT
10
112.37
20
3.5221
0
VERTEX
8
CUT
10
115.47
20
3.5221
0
VERTEX
8
CUT
10
117.02
20
1.3744
0
SEQEND
0
LINE
8
CUT
10
117.4811
20
0.7662
11
116.9281
21
0
0
POLYLINE
8
CUT
66
1
70
0
0
VERTEX
8
CUT
10
110.9119
20
0
0
VERTEX
8
CUT
10
109.92
20
1.3744
0
VERTEX
8
CUT
10
111.4811
20
3.5375
0
SEQEND
0
POLYLINE
8
CUT
66
1
70
0
0
VERTEX
8
CUT
10
112.67
20
4.1457
0
VERTEX
8
CUT
10
115.92
20
4.1457
0
VERTEX
8
CUT
10
117.545
20
1.894
0
SEQEND
0
POLYLINE
8
CUT
66
1
70
0
0
VERTEX
8
CUT
10
120
20
67.9235
0
VERTEX
8
CUT
10
119.24
20
67.9235
0
VERTEX
8
CUT
10
117.7414
20
70
0
SEQEND
0
LINE
8
CUT
10
120
20
67.3
11
119.6678
21
67.3
0
LINE
8
CUT
10
118.3511
20
67.9082
11
116.8414
21
70
0
POLYLINE
8
CUT
66
1
70
0
0
VERTEX
8
CUT
10
120
20
61.381
0
VERTEX
8
CUT
10
119.24
20
61.381
0
VERTEX
8
CUT
10
117.69
20
63.5287
0
VERTEX
8
CUT
10
119.24
20
65.6765
0
VERTEX
8
CUT
10
120
20
65.6765
0
SEQEND
0
LINE
8
CUT
10
120
20
60.7574
11
119.6678
21
60.7574
0
POLYLINE
8
CUT
66
1
70
0
0
VERTEX
8
CUT
10
118.3511
20
61.3656
0
VERTEX
8
CUT
10
116.79
20
63.5287
0
VERTEX
8
CUT
10
118.3511
20
65.6918
0
SEQEND
0
LINE
8
CUT
10
119.54
20
66.3
11
120
21
66.3
0
POLYLINE
8
CUT
66
1
70
0
0
VERTEX
8
CUT
10
120
20
54.8384
0
VERTEX
8
CUT
10
119.24
20
54.8384
0
VERTEX
8
CUT
10
117.69
20
56.9862
0
VERTEX
8
CUT
10
119.24
20
59.1339
0
VERTEX
8
CUT
10
120
20
59.1339
0
SEQEND
0
LINE
8
CUT
10
120
20
54.2149
11
119.6678
21
54.2149
0
POLYLINE
8
CUT
66
1
70
0
0
VERTEX
8
CUT
10
118.3511
20
54.823
0
VERTEX
8
CUT
10
116.79
20
56.9862
0
VERTEX
8
CUT
10
118.3511
20
59.1493
0
SEQEND
0
LINE
8
CUT
10
119.54
20
59.7574
11
120
21
59.7574
0
POLYLINE
8
CUT
66
1
70
0
0
VERTEX
8
CUT
10
120
20
48.2959
0
VERTEX
8
CUT
10
119.24
20
48.2959
0
VERTEX
8
CUT
10
117.69
20
50.4436
0
VERTEX
8
CUT
10
119.24
20
52.5913
0
VERTEX
8
CUT
10
120
20
52.5913
0
SEQEND
0
LINE
8
CUT
10
120
20
47.6723
11
119.6678
21
47.6723
0
POLYLINE
8
CUT
66
1
70
0
0
VERTEX
8
CUT
10
118.3511
20
48.2805
0
VERTEX
8
CUT
10
116.79
20
50.4436
0
VERTEX
8
CUT
10
118.3511
20
52.6067
0
SEQEND
0
LINE
8
CUT
10
119.54
20
53.2149
11
120
21
53.2149
0
POLYLINE
8
CUT
66
1
70
0
0
VERTEX
8
CUT
10
120
20
41.7533
0
VERTEX
8
CUT
10
119.24
20
41.7533
0
VERTEX
8
CUT
10
117.69
20
43.901
0
VERTEX
8
CUT
10
119.24
20
46.0488
0
VERTEX
8
CUT
10
120
20
46.0488
0
SEQEND
0
LINE
8
CUT
10
120
20
41.1297
11
119.6678
21
41.1297
0
POLYLINE
8
CUT
66
1
70
0
0
VERTEX
8
CUT
10
118.3511
20
41.7379
0
VERTEX
8
CUT
10
116.79
20
43.901
0
VERTEX
8
CUT
10
118.3511
20
46.0641
0
SEQEND
0
LINE
8
CUT
10
119.54
20
46.6723
11
120
21
46.6723
0
POLYLINE
8
CUT
66
1
70
0
0
VERTEX
8
CUT
10
120
20
35.2107
0
VERTEX
8
CUT
10
119.24
20
35.2107
0
VERTEX
8
CUT
10
117.69
20
37.3585
0
VERTEX
8
CUT
10
119.24
20
39.5062
0
VERTEX
8
CUT
10
120
20
39.5062
0
SEQEND
0
LINE
8
CUT
10
120
20
34.5872
11
119.6678
21
34.5872
0
POLYLINE
8
CUT
66
1
70
0
0
VERTEX
8
CUT
10
118.3511
20
35.1954
0
VERTEX
8
CUT
10
116.79
20
37.3585
0
VERTEX
8
CUT
10
118.3511
20
39.5216
0
SEQEND
0
LINE
8
CUT
10
119.54
20
40.1297
11
120
21
40.1297
0
POLYLINE
8
CUT
66
1
70
0
0
VERTEX
8
CUT
10
120
20
28.6682
0
VERTEX
8
CUT
10
119.24
20
28.6682
0
VERTEX
8
CUT
10
117.69
20
30.8159
0
VERTEX
8
CUT
10
119.24
20
32.9636
0
VERTEX
8
CUT
10
120
20
32.9636
0
SEQEND
0
LINE
8
CUT
10
120
20
28.0446
11
119.6678
21
28.0446
0
POLYLINE
8
CUT
66
1
70
0
0
VERTEX
8
CUT
10
118.3511
20
28.6528
0
VERTEX
8
CUT
10
116.79
20
30.8159
0
VERTEX
8
CUT
10
118.3511
20
32.979
0
SEQEND
0
LINE
8
CUT
10
119.54
20
33.5872
11
120
21
33.5872
0
POLYLINE
8
CUT
66
1
70
0
0
VERTEX
8
CUT
10
120
20
22.1256
0
VERTEX
8
CUT
10
119.24
20
22.1256
0
VERTEX
8
CUT
10
117.69
20
24.2733
0
VERTEX
8
CUT
10
119.24
20
26.4211
0
VERTEX
8
CUT
10
120
20
26.4211
0
SEQEND
0
LINE
8
CUT
10
120
20
21.5021
11
119.6678
21
21.5021
0
POLYLINE
8
CUT
66
1
70
0
0
VERTEX
8
CUT
10
118.3511
20
22.1102
0
VERTEX
8
CUT
10
116.79
20
24.2733
0
VERTEX
8
CUT
10
118.3511
20
26.4365
0
SEQEND
0
LINE
8
CUT
10
119.54
20
27.0446
11
120
21
27.0446
0
POLYLINE
8
CUT
66
1
70
0
0
VERTEX
8
CUT
10
120
20
15.583
0
VERTEX
8
CUT
10
119.24
20
15.583
0
VERTEX
8
CUT
10
117.69
20
17.7308
0
VERTEX
8
CUT
10
119.24
20
19.8785
0
VERTEX
8
CUT
10
120
20
19.8785
0
SEQEND
0
LINE
8
CUT
10
120
20
14.9595
11
119.6678
21
14.9595
0
POLYLINE
8
CUT
66
1
70
0
0
VERTEX
8
CUT
10
118.3511
20
15.5677
0
VERTEX
8
CUT
10
116.79
20
17.7308
0
VERTEX
8
CUT
10
118.3511
20
19.8939
0
SEQEND
0
LINE
8
CUT
10
119.54
20
20.5021
11
120
21
20.5021
0
POLYLINE
8
CUT
66
1
70
0
0
VERTEX
8
CUT
10
120
20
9.0405
0
VERTEX
8
CUT
10
119.24
20
9.0405
0
VERTEX
8
CUT
10
117.69
20
11.1882
0
VERTEX
8
CUT
10
119.24
20
13.336
0
VERTEX
8
CUT
10
120
20
13.336
0
SEQEND
0
LINE
8
CUT
10
120
20
8.4169
11
119.6678
21
8.4169
0
POLYLINE
8
CUT
66
1
70
0
0
VERTEX
8
CUT
10
118.3511
20
9.0251
0
VERTEX
8
CUT
10
116.79
20
11.1882
0
VERTEX
8
CUT
10
118.3511
20
13.3513
0
SEQEND
0
LINE
8
CUT
10
119.54
20
13.9595
11
120
21
13.9595
0
POLYLINE
8
CUT
66
1
70
0
0
VERTEX
8
CUT
10
120
20
2.4979
0
VERTEX
8
CUT
10
119.24
20
2.4979
0
VERTEX
8
CUT
10
117.69
20
4.6457
0
VERTEX
8
CUT
10
119.24
20
6.7934
0
VERTEX
8
CUT
10
120
20
6.7934
0
SEQEND
0
LINE
8
CUT
10
120
20
1.8744
11
119.6678
21
1.8744
0
POLYLINE
8
CUT
66
1
70
0
0
VERTEX
8
CUT
10
118.3511
20
2.4825
0
VERTEX
8
CUT
10
116.79
20
4.6457
0
VERTEX
8
CUT
10
118.3511
20
6.8088
0
SEQEND
0
LINE
8
CUT
10
119.54
20
7.4169
11
120
21
7.4169
0
POLYLINE
8
CUT
66
1
70
0
0
VERTEX
8
CUT
10
119.059
20
0
0
VERTEX
8
CUT
10
119.24
20
0.2508
0
VERTEX
8
CUT
10
120
20
0.2508
0
SEQEND
0
LINE
8
CUT
10
118.159
20
0
11
118.3511
21
0.2662
0
LINE
8
CUT
10
119.54
20
0.8744
11
120
21
0.8744
0
POLYLINE
8
CUT
66
1
70
0
0
VERTEX
8
CUT
10
0
20
70
0
VERTEX
8
CUT
10
120
20
70
0
VERTEX
8
CUT
10
120
20
0
0
VERTEX
8
CUT
10
0
20
0
0
VERTEX
8
CUT
10
0
20
70
0
SEQEND
0
ENDSEC
0
EOF
