0
SECTION
2
HEADER
9
$ACADVER
1
AC1009
9
$INSUNITS
70
4
0
ENDSEC
0
SECTION
2
TABLES
0
TABLE
2
LAYER
70
1
0
LAYER
2
CUT
70
0
62
1
6
CONTINUOUS
0
ENDTAB
0
ENDSEC
0
SECTION
2
ENTITIES
0
LINE
8
CUT
10
0
20
50.7154
11
7.9019
21
50.7154
0
LINE
8
CUT
10
8.6519
20
52.0144
11
0.75
21
65.701
0
POLYLINE
8
CUT
66
1
70
0
0
VERTEX
8
CUT
10
1.5
20
52.2154
0
VERTEX
8
CUT
10
6.8038
20
52.2154
0
VERTEX
8
CUT
10
4.1519
20
56.8087
0
SEQEND
0
POLYLINE
8
CUT
66
1
70
0
0
VERTEX
8
CUT
10
2.6519
20
59.4067
0
VERTEX
8
CUT
10
0
20
64
0
VERTEX
8
CUT
10
0
20
64
0
SEQEND
0
LINE
8
CUT
10
0
20
53.7154
11
2.7058
21
53.7154
0
LINE
8
CUT
10
3.4558
20
55.0144
11
0.75
21
59.701
0
LINE
8
CUT
10
4.0981
20
68.5
11
19.9019
21
68.5
0
LINE
8
CUT
10
20.6519
20
67.201
11
12.75
21
53.5144
0
LINE
8
CUT
10
11.25
20
53.5144
11
3.3481
21
67.201
0
POLYLINE
8
CUT
66
1
70
0
0
VERTEX
8
CUT
10
7.8481
20
62.4067
0
VERTEX
8
CUT
10
5.1962
20
67
0
VERTEX
8
CUT
10
10.5
20
67
0
SEQEND
0
POLYLINE
8
CUT
66
1
70
0
0
VERTEX
8
CUT
10
13.5
20
67
0
VERTEX
8
CUT
10
18.8038
20
67
0
VERTEX
8
CUT
10
16.1519
20
62.4067
0
SEQEND
0
POLYLINE
8
CUT
66
1
70
0
0
VERTEX
8
CUT
10
14.6519
20
59.8087
0
VERTEX
8
CUT
10
12
20
55.2154
0
VERTEX
8
CUT
10
9.3481
20
59.8087
0
SEQEND
0
LINE
8
CUT
10
9.2942
20
65.5
11
14.7058
21
65.5
0
LINE
8
CUT
10
15.4558
20
64.201
11
12.75
21
59.5144
0
LINE
8
CUT
10
11.25
20
59.5144
11
8.5442
21
64.201
0
LINE
8
CUT
10
16.0981
20
50.7154
11
31.9019
21
50.7154
0
LINE
8
CUT
10
32.6519
20
52.0144
11
24.75
21
65.701
0
LINE
8
CUT
10
23.25
20
65.701
11
15.3481
21
52.0144
0
POLYLINE
8
CUT
66
1
70
0
0
VERTEX
8
CUT
10
19.8481
20
56.8087
0
VERTEX
8
CUT
10
17.1962
20
52.2154
0
VERTEX
8
CUT
10
22.5
20
52.2154
0
SEQEND
0
POLYLINE
8
CUT
66
1
70
0
0
VERTEX
8
CUT
10
25.5
20
52.2154
0
VERTEX
8
CUT
10
30.8038
20
52.2154
0
VERTEX
8
CUT
10
28.1519
20
56.8087
0
SEQEND
0
POLYLINE
8
CUT
66
1
70
0
0
VERTEX
8
CUT
10
26.6519
20
59.4067
0
VERTEX
8
CUT
10
24
20
64
0
VERTEX
8
CUT
10
21.3481
20
59.4067
0
SEQEND
0
LINE
8
CUT
10
21.2942
20
53.7154
11
26.7058
21
53.7154
0
LINE
8
CUT
10
27.4558
20
55.0144
11
24.75
21
59.701
0
LINE
8
CUT
10
23.25
20
59.701
11
20.5442
21
55.0144
0
LINE
8
CUT
10
28.0981
20
68.5
11
43.9019
21
68.5
0
LINE
8
CUT
10
44.6519
20
67.201
11
36.75
21
53.5144
0
LINE
8
CUT
10
35.25
20
53.5144
11
27.3481
21
67.201
0
POLYLINE
8
CUT
66
1
70
0
0
VERTEX
8
CUT
10
31.8481
20
62.4067
0
VERTEX
8
CUT
10
29.1962
20
67
0
VERTEX
8
CUT
10
34.5
20
67
0
SEQEND
0
POLYLINE
8
CUT
66
1
70
0
0
VERTEX
8
CUT
10
37.5
20
67
0
VERTEX
8
CUT
10
42.8038
20
67
0
VERTEX
8
CUT
10
40.1519
20
62.4067
0
SEQEND
0
POLYLINE
8
CUT
66
1
70
0
0
VERTEX
8
CUT
10
38.6519
20
59.8087
0
VERTEX
8
CUT
10
36
20
55.2154
0
VERTEX
8
CUT
10
33.3481
20
59.8087
0
SEQEND
0
LINE
8
CUT
10
33.2942
20
65.5
11
38.7058
21
65.5
0
LINE
8
CUT
10
39.4558
20
64.201
11
36.75
21
59.5144
0
LINE
8
CUT
10
35.25
20
59.5144
11
32.5442
21
64.201
0
LINE
8
CUT
10
40.0981
20
50.7154
11
55.9019
21
50.7154
0
LINE
8
CUT
10
56.6519
20
52.0144
11
48.75
21
65.701
0
LINE
8
CUT
10
47.25
20
65.701
11
39.3481
21
52.0144
0
POLYLINE
8
CUT
66
1
70
0
0
VERTEX
8
CUT
10
43.8481
20
56.8087
0
VERTEX
8
CUT
10
41.1962
20
52.2154
0
VERTEX
8
CUT
10
46.5
20
52.2154
0
SEQEND
0
POLYLINE
8
CUT
66
1
70
0
0
VERTEX
8
CUT
10
49.5
20
52.2154
0
VERTEX
8
CUT
10
54.8038
20
52.2154
0
VERTEX
8
CUT
10
52.1519
20
56.8087
0
SEQEND
0
POLYLINE
8
CUT
66
1
70
0
0
VERTEX
8
CUT
10
50.6519
20
59.4067
0
VERTEX
8
CUT
10
48
20
64
0
VERTEX
8
CUT
10
45.3481
20
59.4067
0
SEQEND
0
LINE
8
CUT
10
45.2942
20
53.7154
11
50.7058
21
53.7154
0
LINE
8
CUT
10
51.4558
20
55.0144
11
48.75
21
59.701
0
LINE
8
CUT
10
47.25
20
59.701
11
44.5442
21
55.0144
0
LINE
8
CUT
10
52.0981
20
68.5
11
67.9019
21
68.5
0
LINE
8
CUT
10
68.6519
20
67.201
11
60.75
21
53.5144
0
LINE
8
CUT
10
59.25
20
53.5144
11
51.3481
21
67.201
0
POLYLINE
8
CUT
66
1
70
0
0
VERTEX
8
CUT
10
55.8481
20
62.4067
0
VERTEX
8
CUT
10
53.1962
20
67
0
VERTEX
8
CUT
10
58.5
20
67
0
SEQEND
0
POLYLINE
8
CUT
66
1
70
0
0
VERTEX
8
CUT
10
61.5
20
67
0
VERTEX
8
CUT
10
66.8038
20
67
0
VERTEX
8
CUT
10
64.1519
20
62.4067
0
SEQEND
0
POLYLINE
8
CUT
66
1
70
0
0
VERTEX
8
CUT
10
62.6519
20
59.8087
0
VERTEX
8
CUT
10
60
20
55.2154
0
VERTEX
8
CUT
10
57.3481
20
59.8087
0
SEQEND
0
LINE
8
CUT
10
57.2942
20
65.5
11
62.7058
21
65.5
0
LINE
8
CUT
10
63.4558
20
64.201
11
60.75
21
59.5144
0
LINE
8
CUT
10
59.25
20
59.5144
11
56.5442
21
64.201
0
LINE
8
CUT
10
64.0981
20
50.7154
11
79.9019
21
50.7154
0
LINE
8
CUT
10
80.6519
20
52.0144
11
72.75
21
65.701
0
LINE
8
CUT
10
71.25
20
65.701
11
63.3481
21
52.0144
0
POLYLINE
8
CUT
66
1
70
0
0
VERTEX
8
CUT
10
67.8481
20
56.8087
0
VERTEX
8
CUT
10
65.1962
20
52.2154
0
VERTEX
8
CUT
10
70.5
20
52.2154
0
SEQEND
0
POLYLINE
8
CUT
66
1
70
0
0
VERTEX
8
CUT
10
73.5
20
52.2154
0
VERTEX
8
CUT
10
78.8038
20
52.2154
0
VERTEX
8
CUT
10
76.1519
20
56.8087
0
SEQEND
0
POLYLINE
8
CUT
66
1
70
0
0
VERTEX
8
CUT
10
74.6519
20
59.4067
0
VERTEX
8
CUT
10
72
20
64
0
VERTEX
8
CUT
10
69.3481
20
59.4067
0
SEQEND
0
LINE
8
CUT
10
69.2942
20
53.7154
11
74.7058
21
53.7154
0
LINE
8
CUT
10
75.4558
20
55.0144
11
72.75
21
59.701
0
LINE
8
CUT
10
71.25
20
59.701
11
68.5442
21
55.0144
0
LINE
8
CUT
10
76.0981
20
68.5
11
91.9019
21
68.5
0
LINE
8
CUT
10
92.6519
20
67.201
11
84.75
21
53.5144
0
LINE
8
CUT
10
83.25
20
53.5144
11
75.3481
21
67.201
0
POLYLINE
8
CUT
66
1
70
0
0
VERTEX
8
CUT
10
79.8481
20
62.4067
0
VERTEX
8
CUT
10
77.1962
20
67
0
VERTEX
8
CUT
10
82.5
20
67
0
SEQEND
0
POLYLINE
8
CUT
66
1
70
0
0
VERTEX
8
CUT
10
85.5
20
67
0
VERTEX
8
CUT
10
90.8038
20
67
0
VERTEX
8
CUT
10
88.1519
20
62.4067
0
SEQEND
0
POLYLINE
8
CUT
66
1
70
0
0
VERTEX
8
CUT
10
86.6519
20
59.8087
0
VERTEX
8
CUT
10
84
20
55.2154
0
VERTEX
8
CUT
10
81.3481
20
59.8087
0
SEQEND
0
LINE
8
CUT
10
81.2942
20
65.5
11
86.7058
21
65.5
0
LINE
8
CUT
10
87.4558
20
64.201
11
84.75
21
59.5144
0
LINE
8
CUT
10
83.25
20
59.5144
11
80.5442
21
64.201
0
LINE
8
CUT
10
88.0981
20
50.7154
11
103.9019
21
50.7154
0
LINE
8
CUT
10
104.6519
20
52.0144
11
96.75
21
65.701
0
LINE
8
CUT
10
95.25
20
65.701
11
87.3481
21
52.0144
0
POLYLINE
8
CUT
66
1
70
0
0
VERTEX
8
CUT
10
91.8481
20
56.8087
0
VERTEX
8
CUT
10
89.1962
20
52.2154
0
VERTEX
8
CUT
10
94.5
20
52.2154
0
SEQEND
0
POLYLINE
8
CUT
66
1
70
0
0
VERTEX
8
CUT
10
97.5
20
52.2154
0
VERTEX
8
CUT
10
102.8038
20
52.2154
0
VERTEX
8
CUT
10
100.1519
20
56.8087
0
SEQEND
0
POLYLINE
8
CUT
66
1
70
0
0
VERTEX
8
CUT
10
98.6519
20
59.4067
0
VERTEX
8
CUT
10
96
20
64
0
VERTEX
8
CUT
10
93.3481
20
59.4067
0
SEQEND
0
LINE
8
CUT
10
93.2942
20
53.7154
11
98.7058
21
53.7154
0
LINE
8
CUT
10
99.4558
20
55.0144
11
96.75
21
59.701
0
LINE
8
CUT
10
95.25
20
59.701
11
92.5442
21
55.0144
0
LINE
8
CUT
10
100.0981
20
68.5
11
115.9019
21
68.5
0
LINE
8
CUT
10
116.6519
20
67.201
11
108.75
21
53.5144
0
LINE
8
CUT
10
107.25
20
53.5144
11
99.3481
21
67.201
0
POLYLINE
8
CUT
66
1
70
0
0
VERTEX
8
CUT
10
103.8481
20
62.4067
0
VERTEX
8
CUT
10
101.1962
20
67
0
VERTEX
8
CUT
10
106.5
20
67
0
SEQEND
0
POLYLINE
8
CUT
66
1
70
0
0
VERTEX
8
CUT
10
109.5
20
67
0
VERTEX
8
CUT
10
114.8038
20
67
0
VERTEX
8
CUT
10
112.1519
20
62.4067
0
SEQEND
0
POLYLINE
8
CUT
66
1
70
0
0
VERTEX
8
CUT
10
110.6519
20
59.8087
0
VERTEX
8
CUT
10
108
20
55.2154
0
VERTEX
8
CUT
10
105.3481
20
59.8087
0
SEQEND
0
LINE
8
CUT
10
105.2942
20
65.5
11
110.7058
21
65.5
0
LINE
8
CUT
10
111.4558
20
64.201
11
108.75
21
59.5144
0
LINE
8
CUT
10
107.25
20
59.5144
11
104.5442
21
64.201
0
LINE
8
CUT
10
112.0981
20
50.7154
11
120
21
50.7154
0
LINE
8
CUT
10
119.25
20
65.701
11
111.3481
21
52.0144
0
POLYLINE
8
CUT
66
1
70
0
0
VERTEX
8
CUT
10
115.8481
20
56.8087
0
VERTEX
8
CUT
10
113.1962
20
52.2154
0
VERTEX
8
CUT
10
118.5
20
52.2154
0
SEQEND
0
POLYLINE
8
CUT
66
1
70
0
0
VERTEX
8
CUT
10
120
20
64
0
VERTEX
8
CUT
10
120
20
64
0
VERTEX
8
CUT
10
117.3481
20
59.4067
0
SEQEND
0
LINE
8
CUT
10
117.2942
20
53.7154
11
120
21
53.7154
0
LINE
8
CUT
10
119.25
20
59.701
11
116.5442
21
55.0144
0
LINE
8
CUT
10
0
20
47.7154
11
7.9019
21
47.7154
0
LINE
8
CUT
10
8.6519
20
46.4164
11
0.75
21
32.7298
0
POLYLINE
8
CUT
66
1
70
0
0
VERTEX
8
CUT
10
1.5
20
46.2154
0
VERTEX
8
CUT
10
6.8038
20
46.2154
0
VERTEX
8
CUT
10
4.1519
20
41.6221
0
SEQEND
0
POLYLINE
8
CUT
66
1
70
0
0
VERTEX
8
CUT
10
2.6519
20
39.024
0
VERTEX
8
CUT
10
0
20
34.4308
0
VERTEX
8
CUT
10
0
20
34.4308
0
SEQEND
0
LINE
8
CUT
10
0
20
44.7154
11
2.7058
21
44.7154
0
LINE
8
CUT
10
3.4558
20
43.4164
11
0.75
21
38.7298
0
LINE
8
CUT
10
4.0981
20
29.9308
11
19.9019
21
29.9308
0
LINE
8
CUT
10
20.6519
20
31.2298
11
12.75
21
44.9164
0
LINE
8
CUT
10
11.25
20
44.9164
11
3.3481
21
31.2298
0
POLYLINE
8
CUT
66
1
70
0
0
VERTEX
8
CUT
10
7.8481
20
36.024
0
VERTEX
8
CUT
10
5.1962
20
31.4308
0
VERTEX
8
CUT
10
10.5
20
31.4308
0
SEQEND
0
POLYLINE
8
CUT
66
1
70
0
0
VERTEX
8
CUT
10
13.5
20
31.4308
0
VERTEX
8
CUT
10
18.8038
20
31.4308
0
VERTEX
8
CUT
10
16.1519
20
36.024
0
SEQEND
0
POLYLINE
8
CUT
66
1
70
0
0
VERTEX
8
CUT
10
14.6519
20
38.6221
0
VERTEX
8
CUT
10
12
20
43.2154
0
VERTEX
8
CUT
10
9.3481
20
38.6221
0
SEQEND
0
LINE
8
CUT
10
9.2942
20
32.9308
11
14.7058
21
32.9308
0
LINE
8
CUT
10
15.4558
20
34.2298
11
12.75
21
38.9164
0
LINE
8
CUT
10
11.25
20
38.9164
11
8.5442
21
34.2298
0
LINE
8
CUT
10
16.0981
20
47.7154
11
31.9019
21
47.7154
0
LINE
8
CUT
10
32.6519
20
46.4164
11
24.75
21
32.7298
0
LINE
8
CUT
10
23.25
20
32.7298
11
15.3481
21
46.4164
0
POLYLINE
8
CUT
66
1
70
0
0
VERTEX
8
CUT
10
19.8481
20
41.6221
0
VERTEX
8
CUT
10
17.1962
20
46.2154
0
VERTEX
8
CUT
10
22.5
20
46.2154
0
SEQEND
0
POLYLINE
8
CUT
66
1
70
0
0
VERTEX
8
CUT
10
25.5
20
46.2154
0
VERTEX
8
CUT
10
30.8038
20
46.2154
0
VERTEX
8
CUT
10
28.1519
20
41.6221
0
SEQEND
0
POLYLINE
8
CUT
66
1
70
0
0
VERTEX
8
CUT
10
26.6519
20
39.024
0
VERTEX
8
CUT
10
24
20
34.4308
0
VERTEX
8
CUT
10
21.3481
20
39.024
0
SEQEND
0
LINE
8
CUT
10
21.2942
20
44.7154
11
26.7058
21
44.7154
0
LINE
8
CUT
10
27.4558
20
43.4164
11
24.75
21
38.7298
0
LINE
8
CUT
10
23.25
20
38.7298
11
20.5442
21
43.4164
0
LINE
8
CUT
10
28.0981
20
29.9308
11
43.9019
21
29.9308
0
LINE
8
CUT
10
44.6519
20
31.2298
11
36.75
21
44.9164
0
LINE
8
CUT
10
35.25
20
44.9164
11
27.3481
21
31.2298
0
POLYLINE
8
CUT
66
1
70
0
0
VERTEX
8
CUT
10
31.8481
20
36.024
0
VERTEX
8
CUT
10
29.1962
20
31.4308
0
VERTEX
8
CUT
10
34.5
20
31.4308
0
SEQEND
0
POLYLINE
8
CUT
66
1
70
0
0
VERTEX
8
CUT
10
37.5
20
31.4308
0
VERTEX
8
CUT
10
42.8038
20
31.4308
0
VERTEX
8
CUT
10
40.1519
20
36.024
0
SEQEND
0
POLYLINE
8
CUT
66
1
70
0
0
VERTEX
8
CUT
10
38.6519
20
38.6221
0
VERTEX
8
CUT
10
36
20
43.2154
0
VERTEX
8
CUT
10
33.3481
20
38.6221
0
SEQEND
0
LINE
8
CUT
10
33.2942
20
32.9308
11
38.7058
21
32.9308
0
LINE
8
CUT
10
39.4558
20
34.2298
11
36.75
21
38.9164
0
LINE
8
CUT
10
35.25
20
38.9164
11
32.5442
21
34.2298
0
LINE
8
CUT
10
40.0981
20
47.7154
11
55.9019
21
47.7154
0
LINE
8
CUT
10
56.6519
20
46.4164
11
48.75
21
32.7298
0
LINE
8
CUT
10
47.25
20
32.7298
11
39.3481
21
46.4164
0
POLYLINE
8
CUT
66
1
70
0
0
VERTEX
8
CUT
10
43.8481
20
41.6221
0
VERTEX
8
CUT
10
41.1962
20
46.2154
0
VERTEX
8
CUT
10
46.5
20
46.2154
0
SEQEND
0
POLYLINE
8
CUT
66
1
70
0
0
VERTEX
8
CUT
10
49.5
20
46.2154
0
VERTEX
8
CUT
10
54.8038
20
46.2154
0
VERTEX
8
CUT
10
52.1519
20
41.6221
0
SEQEND
0
POLYLINE
8
CUT
66
1
70
0
0
VERTEX
8
CUT
10
50.6519
20
39.024
0
VERTEX
8
CUT
10
48
20
34.4308
0
VERTEX
8
CUT
10
45.3481
20
39.024
0
SEQEND
0
LINE
8
CUT
10
45.2942
20
44.7154
11
50.7058
21
44.7154
0
LINE
8
CUT
10
51.4558
20
43.4164
11
48.75
21
38.7298
0
LINE
8
CUT
10
47.25
20
38.7298
11
44.5442
21
43.4164
0
LINE
8
CUT
10
52.0981
20
29.9308
11
67.9019
21
29.9308
0
LINE
8
CUT
10
68.6519
20
31.2298
11
60.75
21
44.9164
0
LINE
8
CUT
10
59.25
20
44.9164
11
51.3481
21
31.2298
0
POLYLINE
8
CUT
66
1
70
0
0
VERTEX
8
CUT
10
55.8481
20
36.024
0
VERTEX
8
CUT
10
53.1962
20
31.4308
0
VERTEX
8
CUT
10
58.5
20
31.4308
0
SEQEND
0
POLYLINE
8
CUT
66
1
70
0
0
VERTEX
8
CUT
10
61.5
20
31.4308
0
VERTEX
8
CUT
10
66.8038
20
31.4308
0
VERTEX
8
CUT
10
64.1519
20
36.024
0
SEQEND
0
POLYLINE
8
CUT
66
1
70
0
0
VERTEX
8
CUT
10
62.6519
20
38.6221
0
VERTEX
8
CUT
10
60
20
43.2154
0
VERTEX
8
CUT
10
57.3481
20
38.6221
0
SEQEND
0
LINE
8
CUT
10
57.2942
20
32.9308
11
62.7058
21
32.9308
0
LINE
8
CUT
10
63.4558
20
34.2298
11
60.75
21
38.9164
0
LINE
8
CUT
10
59.25
20
38.9164
11
56.5442
21
34.2298
0
LINE
8
CUT
10
64.0981
20
47.7154
11
79.9019
21
47.7154
0
LINE
8
CUT
10
80.6519
20
46.4164
11
72.75
21
32.7298
0
LINE
8
CUT
10
71.25
20
32.7298
11
63.3481
21
46.4164
0
POLYLINE
8
CUT
66
1
70
0
0
VERTEX
8
CUT
10
67.8481
20
41.6221
0
VERTEX
8
CUT
10
65.1962
20
46.2154
0
VERTEX
8
CUT
10
70.5
20
46.2154
0
SEQEND
0
POLYLINE
8
CUT
66
1
70
0
0
VERTEX
8
CUT
10
73.5
20
46.2154
0
VERTEX
8
CUT
10
78.8038
20
46.2154
0
VERTEX
8
CUT
10
76.1519
20
41.6221
0
SEQEND
0
POLYLINE
8
CUT
66
1
70
0
0
VERTEX
8
CUT
10
74.6519
20
39.024
0
VERTEX
8
CUT
10
72
20
34.4308
0
VERTEX
8
CUT
10
69.3481
20
39.024
0
SEQEND
0
LINE
8
CUT
10
69.2942
20
44.7154
11
74.7058
21
44.7154
0
LINE
8
CUT
10
75.4558
20
43.4164
11
72.75
21
38.7298
0
LINE
8
CUT
10
71.25
20
38.7298
11
68.5442
21
43.4164
0
LINE
8
CUT
10
76.0981
20
29.9308
11
91.9019
21
29.9308
0
LINE
8
CUT
10
92.6519
20
31.2298
11
84.75
21
44.9164
0
LINE
8
CUT
10
83.25
20
44.9164
11
75.3481
21
31.2298
0
POLYLINE
8
CUT
66
1
70
0
0
VERTEX
8
CUT
10
79.8481
20
36.024
0
VERTEX
8
CUT
10
77.1962
20
31.4308
0
VERTEX
8
CUT
10
82.5
20
31.4308
0
SEQEND
0
POLYLINE
8
CUT
66
1
70
0
0
VERTEX
8
CUT
10
85.5
20
31.4308
0
VERTEX
8
CUT
10
90.8038
20
31.4308
0
VERTEX
8
CUT
10
88.1519
20
36.024
0
SEQEND
0
POLYLINE
8
CUT
66
1
70
0
0
VERTEX
8
CUT
10
86.6519
20
38.6221
0
VERTEX
8
CUT
10
84
20
43.2154
0
VERTEX
8
CUT
10
81.3481
20
38.6221
0
SEQEND
0
LINE
8
CUT
10
81.2942
20
32.9308
11
86.7058
21
32.9308
0
LINE
8
CUT
10
87.4558
20
34.2298
11
84.75
21
38.9164
0
LINE
8
CUT
10
83.25
20
38.9164
11
80.5442
21
34.2298
0
LINE
8
CUT
10
88.0981
20
47.7154
11
103.9019
21
47.7154
0
LINE
8
CUT
10
104.6519
20
46.4164
11
96.75
21
32.7298
0
LINE
8
CUT
10
95.25
20
32.7298
11
87.3481
21
46.4164
0
POLYLINE
8
CUT
66
1
70
0
0
VERTEX
8
CUT
10
91.8481
20
41.6221
0
VERTEX
8
CUT
10
89.1962
20
46.2154
0
VERTEX
8
CUT
10
94.5
20
46.2154
0
SEQEND
0
POLYLINE
8
CUT
66
1
70
0
0
VERTEX
8
CUT
10
97.5
20
46.2154
0
VERTEX
8
CUT
10
102.8038
20
46.2154
0
VERTEX
8
CUT
10
100.1519
20
41.6221
0
SEQEND
0
POLYLINE
8
CUT
66
1
70
0
0
VERTEX
8
CUT
10
98.6519
20
39.024
0
VERTEX
8
CUT
10
96
20
34.4308
0
VERTEX
8
CUT
10
93.3481
20
39.024
0
SEQEND
0
LINE
8
CUT
10
93.2942
20
44.7154
11
98.7058
21
44.7154
0
LINE
8
CUT
10
99.4558
20
43.4164
11
96.75
21
38.7298
0
LINE
8
CUT
10
95.25
20
38.7298
11
92.5442
21
43.4164
0
LINE
8
CUT
10
100.0981
20
29.9308
11
115.9019
21
29.9308
0
LINE
8
CUT
10
116.6519
20
31.2298
11
108.75
21
44.9164
0
LINE
8
CUT
10
107.25
20
44.9164
11
99.3481
21
31.2298
0
POLYLINE
8
CUT
66
1
70
0
0
VERTEX
8
CUT
10
103.8481
20
36.024
0
VERTEX
8
CUT
10
101.1962
20
31.4308
0
VERTEX
8
CUT
10
106.5
20
31.4308
0
SEQEND
0
POLYLINE
8
CUT
66
1
70
0
0
VERTEX
8
CUT
10
109.5
20
31.4308
0
VERTEX
8
CUT
10
114.8038
20
31.4308
0
VERTEX
8
CUT
10
112.1519
20
36.024
0
SEQEND
0
POLYLINE
8
CUT
66
1
70
0
0
VERTEX
8
CUT
10
110.6519
20
38.6221
0
VERTEX
8
CUT
10
108
20
43.2154
0
VERTEX
8
CUT
10
105.3481
20
38.6221
0
SEQEND
0
LINE
8
CUT
10
105.2942
20
32.9308
11
110.7058
21
32.9308
0
LINE
8
CUT
10
111.4558
20
34.2298
11
108.75
21
38.9164
0
LINE
8
CUT
10
107.25
20
38.9164
11
104.5442
21
34.2298
0
LINE
8
CUT
10
112.0981
20
47.7154
11
120
21
47.7154
0
LINE
8
CUT
10
119.25
20
32.7298
11
111.3481
21
46.4164
0
POLYLINE
8
CUT
66
1
70
0
0
VERTEX
8
CUT
10
115.8481
20
41.6221
0
VERTEX
8
CUT
10
113.1962
20
46.2154
0
VERTEX
8
CUT
10
118.5
20
46.2154
0
SEQEND
0
POLYLINE
8
CUT
66
1
70
0
0
VERTEX
8
CUT
10
120
20
34.4308
0
VERTEX
8
CUT
10
120
20
34.4308
0
VERTEX
8
CUT
10
117.3481
20
39.024
0
SEQEND
0
LINE
8
CUT
10
117.2942
20
44.7154
11
120
21
44.7154
0
LINE
8
CUT
10
119.25
20
38.7298
11
116.5442
21
43.4164
0
LINE
8
CUT
10
0
20
9.1462
11
7.9019
21
9.1462
0
LINE
8
CUT
10
8.6519
20
10.4452
11
0.75
21
24.1317
0
POLYLINE
8
CUT
66
1
70
0
0
VERTEX
8
CUT
10
1.5
20
10.6462
0
VERTEX
8
CUT
10
6.8038
20
10.6462
0
VERTEX
8
CUT
10
4.1519
20
15.2394
0
SEQEND
0
POLYLINE
8
CUT
66
1
70
0
0
VERTEX
8
CUT
10
2.6519
20
17.8375
0
VERTEX
8
CUT
10
0
20
22.4308
0
VERTEX
8
CUT
10
0
20
22.4308
0
SEQEND
0
LINE
8
CUT
10
0
20
12.1462
11
2.7058
21
12.1462
0
LINE
8
CUT
10
3.4558
20
13.4452
11
0.75
21
18.1317
0
LINE
8
CUT
10
4.0981
20
26.9308
11
19.9019
21
26.9308
0
LINE
8
CUT
10
20.6519
20
25.6317
11
12.75
21
11.9452
0
LINE
8
CUT
10
11.25
20
11.9452
11
3.3481
21
25.6317
0
POLYLINE
8
CUT
66
1
70
0
0
VERTEX
8
CUT
10
7.8481
20
20.8375
0
VERTEX
8
CUT
10
5.1962
20
25.4308
0
VERTEX
8
CUT
10
10.5
20
25.4308
0
SEQEND
0
POLYLINE
8
CUT
66
1
70
0
0
VERTEX
8
CUT
10
13.5
20
25.4308
0
VERTEX
8
CUT
10
18.8038
20
25.4308
0
VERTEX
8
CUT
10
16.1519
20
20.8375
0
SEQEND
0
POLYLINE
8
CUT
66
1
70
0
0
VERTEX
8
CUT
10
14.6519
20
18.2394
0
VERTEX
8
CUT
10
12
20
13.6462
0
VERTEX
8
CUT
10
9.3481
20
18.2394
0
SEQEND
0
LINE
8
CUT
10
9.2942
20
23.9308
11
14.7058
21
23.9308
0
LINE
8
CUT
10
15.4558
20
22.6317
11
12.75
21
17.9452
0
LINE
8
CUT
10
11.25
20
17.9452
11
8.5442
21
22.6317
0
LINE
8
CUT
10
16.0981
20
9.1462
11
31.9019
21
9.1462
0
LINE
8
CUT
10
32.6519
20
10.4452
11
24.75
21
24.1317
0
LINE
8
CUT
10
23.25
20
24.1317
11
15.3481
21
10.4452
0
POLYLINE
8
CUT
66
1
70
0
0
VERTEX
8
CUT
10
19.8481
20
15.2394
0
VERTEX
8
CUT
10
17.1962
20
10.6462
0
VERTEX
8
CUT
10
22.5
20
10.6462
0
SEQEND
0
POLYLINE
8
CUT
66
1
70
0
0
VERTEX
8
CUT
10
25.5
20
10.6462
0
VERTEX
8
CUT
10
30.8038
20
10.6462
0
VERTEX
8
CUT
10
28.1519
20
15.2394
0
SEQEND
0
POLYLINE
8
CUT
66
1
70
0
0
VERTEX
8
CUT
10
26.6519
20
17.8375
0
VERTEX
8
CUT
10
24
20
22.4308
0
VERTEX
8
CUT
10
21.3481
20
17.8375
0
SEQEND
0
LINE
8
CUT
10
21.2942
20
12.1462
11
26.7058
21
12.1462
0
LINE
8
CUT
10
27.4558
20
13.4452
11
24.75
21
18.1317
0
LINE
8
CUT
10
23.25
20
18.1317
11
20.5442
21
13.4452
0
LINE
8
CUT
10
28.0981
20
26.9308
11
43.9019
21
26.9308
0
LINE
8
CUT
10
44.6519
20
25.6317
11
36.75
21
11.9452
0
LINE
8
CUT
10
35.25
20
11.9452
11
27.3481
21
25.6317
0
POLYLINE
8
CUT
66
1
70
0
0
VERTEX
8
CUT
10
31.8481
20
20.8375
0
VERTEX
8
CUT
10
29.1962
20
25.4308
0
VERTEX
8
CUT
10
34.5
20
25.4308
0
SEQEND
0
POLYLINE
8
CUT
66
1
70
0
0
VERTEX
8
CUT
10
37.5
20
25.4308
0
VERTEX
8
CUT
10
42.8038
20
25.4308
0
VERTEX
8
CUT
10
40.1519
20
20.8375
0
SEQEND
0
POLYLINE
8
CUT
66
1
70
0
0
VERTEX
8
CUT
10
38.6519
20
18.2394
0
VERTEX
8
CUT
10
36
20
13.6462
0
VERTEX
8
CUT
10
33.3481
20
18.2394
0
SEQEND
0
LINE
8
CUT
10
33.2942
20
23.9308
11
38.7058
21
23.9308
0
LINE
8
CUT
10
39.4558
20
22.6317
11
36.75
21
17.9452
0
LINE
8
CUT
10
35.25
20
17.9452
11
32.5442
21
22.6317
0
LINE
8
CUT
10
40.0981
20
9.1462
11
55.9019
21
9.1462
0
LINE
8
CUT
10
56.6519
20
10.4452
11
48.75
21
24.1317
0
LINE
8
CUT
10
47.25
20
24.1317
11
39.3481
21
10.4452
0
POLYLINE
8
CUT
66
1
70
0
0
VERTEX
8
CUT
10
43.8481
20
15.2394
0
VERTEX
8
CUT
10
41.1962
20
10.6462
0
VERTEX
8
CUT
10
46.5
20
10.6462
0
SEQEND
0
POLYLINE
8
CUT
66
1
70
0
0
VERTEX
8
CUT
10
49.5
20
10.6462
0
VERTEX
8
CUT
10
54.8038
20
10.6462
0
VERTEX
8
CUT
10
52.1519
20
15.2394
0
SEQEND
0
POLYLINE
8
CUT
66
1
70
0
0
VERTEX
8
CUT
10
50.6519
20
17.8375
0
VERTEX
8
CUT
10
48
20
22.4308
0
VERTEX
8
CUT
10
45.3481
20
17.8375
0
SEQEND
0
LINE
8
CUT
10
45.2942
20
12.1462
11
50.7058
21
12.1462
0
LINE
8
CUT
10
51.4558
20
13.4452
11
48.75
21
18.1317
0
LINE
8
CUT
10
47.25
20
18.1317
11
44.5442
21
13.4452
0
LINE
8
CUT
10
52.0981
20
26.9308
11
67.9019
21
26.9308
0
LINE
8
CUT
10
68.6519
20
25.6317
11
60.75
21
11.9452
0
LINE
8
CUT
10
59.25
20
11.9452
11
51.3481
21
25.6317
0
POLYLINE
8
CUT
66
1
70
0
0
VERTEX
8
CUT
10
55.8481
20
20.8375
0
VERTEX
8
CUT
10
53.1962
20
25.4308
0
VERTEX
8
CUT
10
58.5
20
25.4308
0
SEQEND
0
POLYLINE
8
CUT
66
1
70
0
0
VERTEX
8
CUT
10
61.5
20
25.4308
0
VERTEX
8
CUT
10
66.8038
20
25.4308
0
VERTEX
8
CUT
10
64.1519
20
20.8375
0
SEQEND
0
POLYLINE
8
CUT
66
1
70
0
0
VERTEX
8
CUT
10
62.6519
20
18.2394
0
VERTEX
8
CUT
10
60
20
13.6462
0
VERTEX
8
CUT
10
57.3481
20
18.2394
0
SEQEND
0
LINE
8
CUT
10
57.2942
20
23.9308
11
62.7058
21
23.9308
0
LINE
8
CUT
10
63.4558
20
22.6317
11
60.75
21
17.9452
0
LINE
8
CUT
10
59.25
20
17.9452
11
56.5442
21
22.6317
0
LINE
8
CUT
10
64.0981
20
9.1462
11
79.9019
21
9.1462
0
LINE
8
CUT
10
80.6519
20
10.4452
11
72.75
21
24.1317
0
LINE
8
CUT
10
71.25
20
24.1317
11
63.3481
21
10.4452
0
POLYLINE
8
CUT
66
1
70
0
0
VERTEX
8
CUT
10
67.8481
20
15.2394
0
VERTEX
8
CUT
10
65.1962
20
10.6462
0
VERTEX
8
CUT
10
70.5
20
10.6462
0
SEQEND
0
POLYLINE
8
CUT
66
1
70
0
0
VERTEX
8
CUT
10
73.5
20
10.6462
0
VERTEX
8
CUT
10
78.8038
20
10.6462
0
VERTEX
8
CUT
10
76.1519
20
15.2394
0
SEQEND
0
POLYLINE
8
CUT
66
1
70
0
0
VERTEX
8
CUT
10
74.6519
20
17.8375
0
VERTEX
8
CUT
10
72
20
22.4308
0
VERTEX
8
CUT
10
69.3481
20
17.8375
0
SEQEND
0
LINE
8
CUT
10
69.2942
20
12.1462
11
74.7058
21
12.1462
0
LINE
8
CUT
10
75.4558
20
13.4452
11
72.75
21
18.1317
0
LINE
8
CUT
10
71.25
20
18.1317
11
68.5442
21
13.4452
0
LINE
8
CUT
10
76.0981
20
26.9308
11
91.9019
21
26.9308
0
LINE
8
CUT
10
92.6519
20
25.6317
11
84.75
21
11.9452
0
LINE
8
CUT
10
83.25
20
11.9452
11
75.3481
21
25.6317
0
POLYLINE
8
CUT
66
1
70
0
0
VERTEX
8
CUT
10
79.8481
20
20.8375
0
VERTEX
8
CUT
10
77.1962
20
25.4308
0
VERTEX
8
CUT
10
82.5
20
25.4308
0
SEQEND
0
POLYLINE
8
CUT
66
1
70
0
0
VERTEX
8
CUT
10
85.5
20
25.4308
0
VERTEX
8
CUT
10
90.8038
20
25.4308
0
VERTEX
8
CUT
10
88.1519
20
20.8375
0
SEQEND
0
POLYLINE
8
CUT
66
1
70
0
0
VERTEX
8
CUT
10
86.6519
20
18.2394
0
VERTEX
8
CUT
10
84
20
13.6462
0
VERTEX
8
CUT
10
81.3481
20
18.2394
0
SEQEND
0
LINE
8
CUT
10
81.2942
20
23.9308
11
86.7058
21
23.9308
0
LINE
8
CUT
10
87.4558
20
22.6317
11
84.75
21
17.9452
0
LINE
8
CUT
10
83.25
20
17.9452
11
80.5442
21
22.6317
0
LINE
8
CUT
10
88.0981
20
9.1462
11
103.9019
21
9.1462
0
LINE
8
CUT
10
104.6519
20
10.4452
11
96.75
21
24.1317
0
LINE
8
CUT
10
95.25
20
24.1317
11
87.3481
21
10.4452
0
POLYLINE
8
CUT
66
1
70
0
0
VERTEX
8
CUT
10
91.8481
20
15.2394
0
VERTEX
8
CUT
10
89.1962
20
10.6462
0
VERTEX
8
CUT
10
94.5
20
10.6462
0
SEQEND
0
POLYLINE
8
CUT
66
1
70
0
0
VERTEX
8
CUT
10
97.5
20
10.6462
0
VERTEX
8
CUT
10
102.8038
20
10.6462
0
VERTEX
8
CUT
10
100.1519
20
15.2394
0
SEQEND
0
POLYLINE
8
CUT
66
1
70
0
0
VERTEX
8
CUT
10
98.6519
20
17.8375
0
VERTEX
8
CUT
10
96
20
22.4308
0
VERTEX
8
CUT
10
93.3481
20
17.8375
0
SEQEND
0
LINE
8
CUT
10
93.2942
20
12.1462
11
98.7058
21
12.1462
0
LINE
8
CUT
10
99.4558
20
13.4452
11
96.75
21
18.1317
0
LINE
8
CUT
10
95.25
20
18.1317
11
92.5442
21
13.4452
0
LINE
8
CUT
10
100.0981
20
26.9308
11
115.9019
21
26.9308
0
LINE
8
CUT
10
116.6519
20
25.6317
11
108.75
21
11.9452
0
LINE
8
CUT
10
107.25
20
11.9452
11
99.3481
21
25.6317
0
POLYLINE
8
CUT
66
1
70
0
0
VERTEX
8
CUT
10
103.8481
20
20.8375
0
VERTEX
8
CUT
10
101.1962
20
25.4308
0
VERTEX
8
CUT
10
106.5
20
25.4308
0
SEQEND
0
POLYLINE
8
CUT
66
1
70
0
0
VERTEX
8
CUT
10
109.5
20
25.4308
0
VERTEX
8
CUT
10
114.8038
20
25.4308
0
VERTEX
8
CUT
10
112.1519
20
20.8375
0
SEQEND
0
POLYLINE
8
CUT
66
1
70
0
0
VERTEX
8
CUT
10
110.6519
20
18.2394
0
VERTEX
8
CUT
10
108
20
13.6462
0
VERTEX
8
CUT
10
105.3481
20
18.2394
0
SEQEND
0
LINE
8
CUT
10
105.2942
20
23.9308
11
110.7058
21
23.9308
0
LINE
8
CUT
10
111.4558
20
22.6317
11
108.75
21
17.9452
0
LINE
8
CUT
10
107.25
20
17.9452
11
104.5442
21
22.6317
0
LINE
8
CUT
10
112.0981
20
9.1462
11
120
21
9.1462
0
LINE
8
CUT
10
119.25
20
24.1317
11
111.3481
21
10.4452
0
POLYLINE
8
CUT
66
1
70
0
0
VERTEX
8
CUT
10
115.8481
20
15.2394
0
VERTEX
8
CUT
10
113.1962
20
10.6462
0
VERTEX
8
CUT
10
118.5
20
10.6462
0
SEQEND
0
POLYLINE
8
CUT
66
1
70
0
0
VERTEX
8
CUT
10
120
20
22.4308
0
VERTEX
8
CUT
10
120
20
22.4308
0
VERTEX
8
CUT
10
117.3481
20
17.8375
0
SEQEND
0
LINE
8
CUT
10
117.2942
20
12.1462
11
120
21
12.1462
0
LINE
8
CUT
10
119.25
20
18.1317
11
116.5442
21
13.4452
0
LINE
8
CUT
10
0
20
6.1462
11
7.9019
21
6.1462
0
LINE
8
CUT
10
8.6519
20
4.8471
11
5.8534
21
0
0
POLYLINE
8
CUT
66
1
70
0
0
VERTEX
8
CUT
10
1.5
20
4.6462
0
VERTEX
8
CUT
10
6.8038
20
4.6462
0
VERTEX
8
CUT
10
4.1519
20
0.0529
0
SEQEND
0
LINE
8
CUT
10
0
20
3.1462
11
2.7058
21
3.1462
0
LINE
8
CUT
10
3.4558
20
1.8471
11
2.3893
21
0
0
LINE
8
CUT
10
14.6825
20
0
11
12.75
21
3.3471
0
LINE
8
CUT
10
11.25
20
3.3471
11
9.3175
21
0
0
POLYLINE
8
CUT
66
1
70
0
0
VERTEX
8
CUT
10
12.9504
20
0
0
VERTEX
8
CUT
10
12
20
1.6462
0
VERTEX
8
CUT
10
11.0496
20
0
0
SEQEND
0
LINE
8
CUT
10
16.0981
20
6.1462
11
31.9019
21
6.1462
0
LINE
8
CUT
10
32.6519
20
4.8471
11
29.8534
21
0
0
LINE
8
CUT
10
18.1466
20
0
11
15.3481
21
4.8471
0
POLYLINE
8
CUT
66
1
70
0
0
VERTEX
8
CUT
10
19.8481
20
0.0529
0
VERTEX
8
CUT
10
17.1962
20
4.6462
0
VERTEX
8
CUT
10
22.5
20
4.6462
0
SEQEND
0
POLYLINE
8
CUT
66
1
70
0
0
VERTEX
8
CUT
10
25.5
20
4.6462
0
VERTEX
8
CUT
10
30.8038
20
4.6462
0
VERTEX
8
CUT
10
28.1519
20
0.0529
0
SEQEND
0
LINE
8
CUT
10
21.2942
20
3.1462
11
26.7058
21
3.1462
0
LINE
8
CUT
10
27.4558
20
1.8471
11
26.3893
21
0
0
LINE
8
CUT
10
21.6107
20
0
11
20.5442
21
1.8471
0
LINE
8
CUT
10
38.6825
20
0
11
36.75
21
3.3471
0
LINE
8
CUT
10
35.25
20
3.3471
11
33.3175
21
0
0
POLYLINE
8
CUT
66
1
70
0
0
VERTEX
8
CUT
10
36.9504
20
0
0
VERTEX
8
CUT
10
36
20
1.6462
0
VERTEX
8
CUT
10
35.0496
20
0
0
SEQEND
0
LINE
8
CUT
10
40.0981
20
6.1462
11
55.9019
21
6.1462
0
LINE
8
CUT
10
56.6519
20
4.8471
11
53.8534
21
0
0
LINE
8
CUT
10
42.1466
20
0
11
39.3481
21
4.8471
0
POLYLINE
8
CUT
66
1
70
0
0
VERTEX
8
CUT
10
43.8481
20
0.0529
0
VERTEX
8
CUT
10
41.1962
20
4.6462
0
VERTEX
8
CUT
10
46.5
20
4.6462
0
SEQEND
0
POLYLINE
8
CUT
66
1
70
0
0
VERTEX
8
CUT
10
49.5
20
4.6462
0
VERTEX
8
CUT
10
54.8038
20
4.6462
0
VERTEX
8
CUT
10
52.1519
20
0.0529
0
SEQEND
0
LINE
8
CUT
10
45.2942
20
3.1462
11
50.7058
21
3.1462
0
LINE
8
CUT
10
51.4558
20
1.8471
11
50.3893
21
0
0
LINE
8
CUT
10
45.6107
20
0
11
44.5442
21
1.8471
0
LINE
8
CUT
10
62.6825
20
0
11
60.75
21
3.3471
0
LINE
8
CUT
10
59.25
20
3.3471
11
57.3175
21
0
0
POLYLINE
8
CUT
66
1
70
0
0
VERTEX
8
CUT
10
60.9504
20
0
0
VERTEX
8
CUT
10
60
20
1.6462
0
VERTEX
8
CUT
10
59.0496
20
0
0
SEQEND
0
LINE
8
CUT
10
64.0981
20
6.1462
11
79.9019
21
6.1462
0
LINE
8
CUT
10
80.6519
20
4.8471
11
77.8534
21
0
0
LINE
8
CUT
10
66.1466
20
0
11
63.3481
21
4.8471
0
POLYLINE
8
CUT
66
1
70
0
0
VERTEX
8
CUT
10
67.8481
20
0.0529
0
VERTEX
8
CUT
10
65.1962
20
4.6462
0
VERTEX
8
CUT
10
70.5
20
4.6462
0
SEQEND
0
POLYLINE
8
CUT
66
1
70
0
0
VERTEX
8
CUT
10
73.5
20
4.6462
0
VERTEX
8
CUT
10
78.8038
20
4.6462
0
VERTEX
8
CUT
10
76.1519
20
0.0529
0
SEQEND
0
LINE
8
CUT
10
69.2942
20
3.1462
11
74.7058
21
3.1462
0
LINE
8
CUT
10
75.4558
20
1.8471
11
74.3893
21
0
0
LINE
8
CUT
10
69.6107
20
0
11
68.5442
21
1.8471
0
LINE
8
CUT
10
86.6825
20
0
11
84.75
21
3.3471
0
LINE
8
CUT
10
83.25
20
3.3471
11
81.3175
21
0
0
POLYLINE
8
CUT
66
1
70
0
0
VERTEX
8
CUT
10
84.9504
20
0
0
VERTEX
8
CUT
10
84
20
1.6462
0
VERTEX
8
CUT
10
83.0496
20
0
0
SEQEND
0
LINE
8
CUT
10
88.0981
20
6.1462
11
103.9019
21
6.1462
0
LINE
8
CUT
10
104.6519
20
4.8471
11
101.8534
21
0
0
LINE
8
CUT
10
90.1466
20
0
11
87.3481
21
4.8471
0
POLYLINE
8
CUT
66
1
70
0
0
VERTEX
8
CUT
10
91.8481
20
0.0529
0
VERTEX
8
CUT
10
89.1962
20
4.6462
0
VERTEX
8
CUT
10
94.5
20
4.6462
0
SEQEND
0
POLYLINE
8
CUT
66
1
70
0
0
VERTEX
8
CUT
10
97.5
20
4.6462
0
VERTEX
8
CUT
10
102.8038
20
4.6462
0
VERTEX
8
CUT
10
100.1519
20
0.0529
0
SEQEND
0
LINE
8
CUT
10
93.2942
20
3.1462
11
98.7058
21
3.1462
0
LINE
8
CUT
10
99.4558
20
1.8471
11
98.3893
21
0
0
LINE
8
CUT
10
93.6107
20
0
11
92.5442
21
1.8471
0
LINE
8
CUT
10
110.6825
20
0
11
108.75
21
3.3471
0
LINE
8
CUT
10
107.25
20
3.3471
11
105.3175
21
0
0
POLYLINE
8
CUT
66
1
70
0
0
VERTEX
8
CUT
10
108.9504
20
0
0
VERTEX
8
CUT
10
108
20
1.6462
0
VERTEX
8
CUT
10
107.0496
20
0
0
SEQEND
0
LINE
8
CUT
10
112.0981
20
6.1462
11
120
21
6.1462
0
LINE
8
CUT
10
114.1466
20
0
11
111.3481
21
4.8471
0
POLYLINE
8
CUT
66
1
70
0
0
VERTEX
8
CUT
10
115.8481
20
0.0529
0
VERTEX
8
CUT
10
113.1962
20
4.6462
0
VERTEX
8
CUT
10
118.5
20
4.6462
0
SEQEND
0
LINE
8
CUT
10
117.2942
20
3.1462
11
120
21
3.1462
0
LINE
8
CUT
10
117.6107
20
0
11
116.5442
21
1.8471
0
POLYLINE
8
CUT
66
1
70
0
0
VERTEX
8
CUT
10
0
20
70
0
VERTEX
8
CUT
10
120
20
70
0
VERTEX
8
CUT
10
120
20
0
0
VERTEX
8
CUT
10
0
20
0
0
VERTEX
8
CUT
10
0
20
70
0
SEQEND
0
ENDSEC
0
EOF
