0
SECTION
2
HEADER
9
$ACADVER
1
AC1009
9
$INSUNITS
70
4
0
ENDSEC
0
SECTION
2
TABLES
0
TABLE
2
LAYER
70
1
0
LAYER
2
CUT
70
0
62
1
6
CONTINUOUS
0
ENDTAB
0
ENDSEC
0
SECTION
2
ENTITIES
0
POLYLINE
8
CUT
66
1
70
0
0
VERTEX
8
CUT
10
0
20
63
0
VERTEX
8
CUT
10
0
20
63
0
VERTEX
8
CUT
10
1.4286
20
63.0408
0
VERTEX
8
CUT
10
2.8571
20
63.1633
0
VERTEX
8
CUT
10
4.2857
20
63.3673
0
VERTEX
8
CUT
10
5.7143
20
63.6531
0
VERTEX
8
CUT
10
7.1429
20
64.0204
0
VERTEX
8
CUT
10
8.5714
20
64.4694
0
VERTEX
8
CUT
10
10
20
65
0
SEQEND
0
POLYLINE
8
CUT
66
1
70
0
0
VERTEX
8
CUT
10
12
20
65
0
VERTEX
8
CUT
10
13.4286
20
64.4694
0
VERTEX
8
CUT
10
14.8571
20
64.0204
0
VERTEX
8
CUT
10
16.2857
20
63.6531
0
VERTEX
8
CUT
10
17.7143
20
63.3673
0
VERTEX
8
CUT
10
19.1429
20
63.1633
0
VERTEX
8
CUT
10
20.5714
20
63.0408
0
VERTEX
8
CUT
10
22
20
63
0
VERTEX
8
CUT
10
23.4286
20
63.0408
0
VERTEX
8
CUT
10
24.8571
20
63.1633
0
VERTEX
8
CUT
10
26.2857
20
63.3673
0
VERTEX
8
CUT
10
27.7143
20
63.6531
0
VERTEX
8
CUT
10
29.1429
20
64.0204
0
VERTEX
8
CUT
10
30.5714
20
64.4694
0
VERTEX
8
CUT
10
32
20
65
0
SEQEND
0
POLYLINE
8
CUT
66
1
70
0
0
VERTEX
8
CUT
10
34
20
65
0
VERTEX
8
CUT
10
35.4286
20
64.4694
0
VERTEX
8
CUT
10
36.8571
20
64.0204
0
VERTEX
8
CUT
10
38.2857
20
63.6531
0
VERTEX
8
CUT
10
39.7143
20
63.3673
0
VERTEX
8
CUT
10
41.1429
20
63.1633
0
VERTEX
8
CUT
10
42.5714
20
63.0408
0
VERTEX
8
CUT
10
44
20
63
0
VERTEX
8
CUT
10
45.4286
20
63.0408
0
VERTEX
8
CUT
10
46.8571
20
63.1633
0
VERTEX
8
CUT
10
48.2857
20
63.3673
0
VERTEX
8
CUT
10
49.7143
20
63.6531
0
VERTEX
8
CUT
10
51.1429
20
64.0204
0
VERTEX
8
CUT
10
52.5714
20
64.4694
0
VERTEX
8
CUT
10
54
20
65
0
SEQEND
0
POLYLINE
8
CUT
66
1
70
0
0
VERTEX
8
CUT
10
56
20
65
0
VERTEX
8
CUT
10
57.4286
20
64.4694
0
VERTEX
8
CUT
10
58.8571
20
64.0204
0
VERTEX
8
CUT
10
60.2857
20
63.6531
0
VERTEX
8
CUT
10
61.7143
20
63.3673
0
VERTEX
8
CUT
10
63.1429
20
63.1633
0
VERTEX
8
CUT
10
64.5714
20
63.0408
0
VERTEX
8
CUT
10
66
20
63
0
VERTEX
8
CUT
10
67.4286
20
63.0408
0
VERTEX
8
CUT
10
68.8571
20
63.1633
0
VERTEX
8
CUT
10
70.2857
20
63.3673
0
VERTEX
8
CUT
10
71.7143
20
63.6531
0
VERTEX
8
CUT
10
73.1429
20
64.0204
0
VERTEX
8
CUT
10
74.5714
20
64.4694
0
VERTEX
8
CUT
10
76
20
65
0
SEQEND
0
POLYLINE
8
CUT
66
1
70
0
0
VERTEX
8
CUT
10
78
20
65
0
VERTEX
8
CUT
10
79.4286
20
64.4694
0
VERTEX
8
CUT
10
80.8571
20
64.0204
0
VERTEX
8
CUT
10
82.2857
20
63.6531
0
VERTEX
8
CUT
10
83.7143
20
63.3673
0
VERTEX
8
CUT
10
85.1429
20
63.1633
0
VERTEX
8
CUT
10
86.5714
20
63.0408
0
VERTEX
8
CUT
10
88
20
63
0
VERTEX
8
CUT
10
89.4286
20
63.0408
0
VERTEX
8
CUT
10
90.8571
20
63.1633
0
VERTEX
8
CUT
10
92.2857
20
63.3673
0
VERTEX
8
CUT
10
93.7143
20
63.6531
0
VERTEX
8
CUT
10
95.1429
20
64.0204
0
VERTEX
8
CUT
10
96.5714
20
64.4694
0
VERTEX
8
CUT
10
98
20
65
0
SEQEND
0
POLYLINE
8
CUT
66
1
70
0
0
VERTEX
8
CUT
10
100
20
65
0
VERTEX
8
CUT
10
101.4286
20
64.4694
0
VERTEX
8
CUT
10
102.8571
20
64.0204
0
VERTEX
8
CUT
10
104.2857
20
63.6531
0
VERTEX
8
CUT
10
105.7143
20
63.3673
0
VERTEX
8
CUT
10
107.1429
20
63.1633
0
VERTEX
8
CUT
10
108.5714
20
63.0408
0
VERTEX
8
CUT
10
110
20
63
0
VERTEX
8
CUT
10
111.4286
20
63.0408
0
VERTEX
8
CUT
10
112.8571
20
63.1633
0
VERTEX
8
CUT
10
114.2857
20
63.3673
0
VERTEX
8
CUT
10
115.7143
20
63.6531
0
VERTEX
8
CUT
10
117.1429
20
64.0204
0
VERTEX
8
CUT
10
118.5714
20
64.4694
0
VERTEX
8
CUT
10
120
20
65
0
SEQEND
0
POLYLINE
8
CUT
66
1
70
0
0
VERTEX
8
CUT
10
1
20
59
0
VERTEX
8
CUT
10
2.4286
20
59.5306
0
VERTEX
8
CUT
10
3.8571
20
59.9796
0
VERTEX
8
CUT
10
5.2857
20
60.3469
0
VERTEX
8
CUT
10
6.7143
20
60.6327
0
VERTEX
8
CUT
10
8.1429
20
60.8367
0
VERTEX
8
CUT
10
9.5714
20
60.9592
0
VERTEX
8
CUT
10
11
20
61
0
VERTEX
8
CUT
10
12.4286
20
60.9592
0
VERTEX
8
CUT
10
13.8571
20
60.8367
0
VERTEX
8
CUT
10
15.2857
20
60.6327
0
VERTEX
8
CUT
10
16.7143
20
60.3469
0
VERTEX
8
CUT
10
18.1429
20
59.9796
0
VERTEX
8
CUT
10
19.5714
20
59.5306
0
VERTEX
8
CUT
10
21
20
59
0
SEQEND
0
POLYLINE
8
CUT
66
1
70
0
0
VERTEX
8
CUT
10
23
20
59
0
VERTEX
8
CUT
10
24.4286
20
59.5306
0
VERTEX
8
CUT
10
25.8571
20
59.9796
0
VERTEX
8
CUT
10
27.2857
20
60.3469
0
VERTEX
8
CUT
10
28.7143
20
60.6327
0
VERTEX
8
CUT
10
30.1429
20
60.8367
0
VERTEX
8
CUT
10
31.5714
20
60.9592
0
VERTEX
8
CUT
10
33
20
61
0
VERTEX
8
CUT
10
34.4286
20
60.9592
0
VERTEX
8
CUT
10
35.8571
20
60.8367
0
VERTEX
8
CUT
10
37.2857
20
60.6327
0
VERTEX
8
CUT
10
38.7143
20
60.3469
0
VERTEX
8
CUT
10
40.1429
20
59.9796
0
VERTEX
8
CUT
10
41.5714
20
59.5306
0
VERTEX
8
CUT
10
43
20
59
0
SEQEND
0
POLYLINE
8
CUT
66
1
70
0
0
VERTEX
8
CUT
10
45
20
59
0
VERTEX
8
CUT
10
46.4286
20
59.5306
0
VERTEX
8
CUT
10
47.8571
20
59.9796
0
VERTEX
8
CUT
10
49.2857
20
60.3469
0
VERTEX
8
CUT
10
50.7143
20
60.6327
0
VERTEX
8
CUT
10
52.1429
20
60.8367
0
VERTEX
8
CUT
10
53.5714
20
60.9592
0
VERTEX
8
CUT
10
55
20
61
0
VERTEX
8
CUT
10
56.4286
20
60.9592
0
VERTEX
8
CUT
10
57.8571
20
60.8367
0
VERTEX
8
CUT
10
59.2857
20
60.6327
0
VERTEX
8
CUT
10
60.7143
20
60.3469
0
VERTEX
8
CUT
10
62.1429
20
59.9796
0
VERTEX
8
CUT
10
63.5714
20
59.5306
0
VERTEX
8
CUT
10
65
20
59
0
SEQEND
0
POLYLINE
8
CUT
66
1
70
0
0
VERTEX
8
CUT
10
67
20
59
0
VERTEX
8
CUT
10
68.4286
20
59.5306
0
VERTEX
8
CUT
10
69.8571
20
59.9796
0
VERTEX
8
CUT
10
71.2857
20
60.3469
0
VERTEX
8
CUT
10
72.7143
20
60.6327
0
VERTEX
8
CUT
10
74.1429
20
60.8367
0
VERTEX
8
CUT
10
75.5714
20
60.9592
0
VERTEX
8
CUT
10
77
20
61
0
VERTEX
8
CUT
10
78.4286
20
60.9592
0
VERTEX
8
CUT
10
79.8571
20
60.8367
0
VERTEX
8
CUT
10
81.2857
20
60.6327
0
VERTEX
8
CUT
10
82.7143
20
60.3469
0
VERTEX
8
CUT
10
84.1429
20
59.9796
0
VERTEX
8
CUT
10
85.5714
20
59.5306
0
VERTEX
8
CUT
10
87
20
59
0
SEQEND
0
POLYLINE
8
CUT
66
1
70
0
0
VERTEX
8
CUT
10
89
20
59
0
VERTEX
8
CUT
10
90.4286
20
59.5306
0
VERTEX
8
CUT
10
91.8571
20
59.9796
0
VERTEX
8
CUT
10
93.2857
20
60.3469
0
VERTEX
8
CUT
10
94.7143
20
60.6327
0
VERTEX
8
CUT
10
96.1429
20
60.8367
0
VERTEX
8
CUT
10
97.5714
20
60.9592
0
VERTEX
8
CUT
10
99
20
61
0
VERTEX
8
CUT
10
100.4286
20
60.9592
0
VERTEX
8
CUT
10
101.8571
20
60.8367
0
VERTEX
8
CUT
10
103.2857
20
60.6327
0
VERTEX
8
CUT
10
104.7143
20
60.3469
0
VERTEX
8
CUT
10
106.1429
20
59.9796
0
VERTEX
8
CUT
10
107.5714
20
59.5306
0
VERTEX
8
CUT
10
109
20
59
0
SEQEND
0
POLYLINE
8
CUT
66
1
70
0
0
VERTEX
8
CUT
10
111
20
59
0
VERTEX
8
CUT
10
112.4286
20
59.5306
0
VERTEX
8
CUT
10
113.8571
20
59.9796
0
VERTEX
8
CUT
10
115.2857
20
60.3469
0
VERTEX
8
CUT
10
116.7143
20
60.6327
0
VERTEX
8
CUT
10
118.1429
20
60.8367
0
VERTEX
8
CUT
10
119.5714
20
60.9592
0
VERTEX
8
CUT
10
120
20
60.9714
0
SEQEND
0
POLYLINE
8
CUT
66
1
70
0
0
VERTEX
8
CUT
10
0
20
51
0
VERTEX
8
CUT
10
0
20
51
0
VERTEX
8
CUT
10
1.4286
20
51.0408
0
VERTEX
8
CUT
10
2.8571
20
51.1633
0
VERTEX
8
CUT
10
4.2857
20
51.3673
0
VERTEX
8
CUT
10
5.7143
20
51.6531
0
VERTEX
8
CUT
10
7.1429
20
52.0204
0
VERTEX
8
CUT
10
8.5714
20
52.4694
0
VERTEX
8
CUT
10
10
20
53
0
SEQEND
0
POLYLINE
8
CUT
66
1
70
0
0
VERTEX
8
CUT
10
12
20
53
0
VERTEX
8
CUT
10
13.4286
20
52.4694
0
VERTEX
8
CUT
10
14.8571
20
52.0204
0
VERTEX
8
CUT
10
16.2857
20
51.6531
0
VERTEX
8
CUT
10
17.7143
20
51.3673
0
VERTEX
8
CUT
10
19.1429
20
51.1633
0
VERTEX
8
CUT
10
20.5714
20
51.0408
0
VERTEX
8
CUT
10
22
20
51
0
VERTEX
8
CUT
10
23.4286
20
51.0408
0
VERTEX
8
CUT
10
24.8571
20
51.1633
0
VERTEX
8
CUT
10
26.2857
20
51.3673
0
VERTEX
8
CUT
10
27.7143
20
51.6531
0
VERTEX
8
CUT
10
29.1429
20
52.0204
0
VERTEX
8
CUT
10
30.5714
20
52.4694
0
VERTEX
8
CUT
10
32
20
53
0
SEQEND
0
POLYLINE
8
CUT
66
1
70
0
0
VERTEX
8
CUT
10
34
20
53
0
VERTEX
8
CUT
10
35.4286
20
52.4694
0
VERTEX
8
CUT
10
36.8571
20
52.0204
0
VERTEX
8
CUT
10
38.2857
20
51.6531
0
VERTEX
8
CUT
10
39.7143
20
51.3673
0
VERTEX
8
CUT
10
41.1429
20
51.1633
0
VERTEX
8
CUT
10
42.5714
20
51.0408
0
VERTEX
8
CUT
10
44
20
51
0
VERTEX
8
CUT
10
45.4286
20
51.0408
0
VERTEX
8
CUT
10
46.8571
20
51.1633
0
VERTEX
8
CUT
10
48.2857
20
51.3673
0
VERTEX
8
CUT
10
49.7143
20
51.6531
0
VERTEX
8
CUT
10
51.1429
20
52.0204
0
VERTEX
8
CUT
10
52.5714
20
52.4694
0
VERTEX
8
CUT
10
54
20
53
0
SEQEND
0
POLYLINE
8
CUT
66
1
70
0
0
VERTEX
8
CUT
10
56
20
53
0
VERTEX
8
CUT
10
57.4286
20
52.4694
0
VERTEX
8
CUT
10
58.8571
20
52.0204
0
VERTEX
8
CUT
10
60.2857
20
51.6531
0
VERTEX
8
CUT
10
61.7143
20
51.3673
0
VERTEX
8
CUT
10
63.1429
20
51.1633
0
VERTEX
8
CUT
10
64.5714
20
51.0408
0
VERTEX
8
CUT
10
66
20
51
0
VERTEX
8
CUT
10
67.4286
20
51.0408
0
VERTEX
8
CUT
10
68.8571
20
51.1633
0
VERTEX
8
CUT
10
70.2857
20
51.3673
0
VERTEX
8
CUT
10
71.7143
20
51.6531
0
VERTEX
8
CUT
10
73.1429
20
52.0204
0
VERTEX
8
CUT
10
74.5714
20
52.4694
0
VERTEX
8
CUT
10
76
20
53
0
SEQEND
0
POLYLINE
8
CUT
66
1
70
0
0
VERTEX
8
CUT
10
78
20
53
0
VERTEX
8
CUT
10
79.4286
20
52.4694
0
VERTEX
8
CUT
10
80.8571
20
52.0204
0
VERTEX
8
CUT
10
82.2857
20
51.6531
0
VERTEX
8
CUT
10
83.7143
20
51.3673
0
VERTEX
8
CUT
10
85.1429
20
51.1633
0
VERTEX
8
CUT
10
86.5714
20
51.0408
0
VERTEX
8
CUT
10
88
20
51
0
VERTEX
8
CUT
10
89.4286
20
51.0408
0
VERTEX
8
CUT
10
90.8571
20
51.1633
0
VERTEX
8
CUT
10
92.2857
20
51.3673
0
VERTEX
8
CUT
10
93.7143
20
51.6531
0
VERTEX
8
CUT
10
95.1429
20
52.0204
0
VERTEX
8
CUT
10
96.5714
20
52.4694
0
VERTEX
8
CUT
10
98
20
53
0
SEQEND
0
POLYLINE
8
CUT
66
1
70
0
0
VERTEX
8
CUT
10
100
20
53
0
VERTEX
8
CUT
10
101.4286
20
52.4694
0
VERTEX
8
CUT
10
102.8571
20
52.0204
0
VERTEX
8
CUT
10
104.2857
20
51.6531
0
VERTEX
8
CUT
10
105.7143
20
51.3673
0
VERTEX
8
CUT
10
107.1429
20
51.1633
0
VERTEX
8
CUT
10
108.5714
20
51.0408
0
VERTEX
8
CUT
10
110
20
51
0
VERTEX
8
CUT
10
111.4286
20
51.0408
0
VERTEX
8
CUT
10
112.8571
20
51.1633
0
VERTEX
8
CUT
10
114.2857
20
51.3673
0
VERTEX
8
CUT
10
115.7143
20
51.6531
0
VERTEX
8
CUT
10
117.1429
20
52.0204
0
VERTEX
8
CUT
10
118.5714
20
52.4694
0
VERTEX
8
CUT
10
120
20
53
0
SEQEND
0
POLYLINE
8
CUT
66
1
70
0
0
VERTEX
8
CUT
10
1
20
47
0
VERTEX
8
CUT
10
2.4286
20
47.5306
0
VERTEX
8
CUT
10
3.8571
20
47.9796
0
VERTEX
8
CUT
10
5.2857
20
48.3469
0
VERTEX
8
CUT
10
6.7143
20
48.6327
0
VERTEX
8
CUT
10
8.1429
20
48.8367
0
VERTEX
8
CUT
10
9.5714
20
48.9592
0
VERTEX
8
CUT
10
11
20
49
0
VERTEX
8
CUT
10
12.4286
20
48.9592
0
VERTEX
8
CUT
10
13.8571
20
48.8367
0
VERTEX
8
CUT
10
15.2857
20
48.6327
0
VERTEX
8
CUT
10
16.7143
20
48.3469
0
VERTEX
8
CUT
10
18.1429
20
47.9796
0
VERTEX
8
CUT
10
19.5714
20
47.5306
0
VERTEX
8
CUT
10
21
20
47
0
SEQEND
0
POLYLINE
8
CUT
66
1
70
0
0
VERTEX
8
CUT
10
23
20
47
0
VERTEX
8
CUT
10
24.4286
20
47.5306
0
VERTEX
8
CUT
10
25.8571
20
47.9796
0
VERTEX
8
CUT
10
27.2857
20
48.3469
0
VERTEX
8
CUT
10
28.7143
20
48.6327
0
VERTEX
8
CUT
10
30.1429
20
48.8367
0
VERTEX
8
CUT
10
31.5714
20
48.9592
0
VERTEX
8
CUT
10
33
20
49
0
VERTEX
8
CUT
10
34.4286
20
48.9592
0
VERTEX
8
CUT
10
35.8571
20
48.8367
0
VERTEX
8
CUT
10
37.2857
20
48.6327
0
VERTEX
8
CUT
10
38.7143
20
48.3469
0
VERTEX
8
CUT
10
40.1429
20
47.9796
0
VERTEX
8
CUT
10
41.5714
20
47.5306
0
VERTEX
8
CUT
10
43
20
47
0
SEQEND
0
POLYLINE
8
CUT
66
1
70
0
0
VERTEX
8
CUT
10
45
20
47
0
VERTEX
8
CUT
10
46.4286
20
47.5306
0
VERTEX
8
CUT
10
47.8571
20
47.9796
0
VERTEX
8
CUT
10
49.2857
20
48.3469
0
VERTEX
8
CUT
10
50.7143
20
48.6327
0
VERTEX
8
CUT
10
52.1429
20
48.8367
0
VERTEX
8
CUT
10
53.5714
20
48.9592
0
VERTEX
8
CUT
10
55
20
49
0
VERTEX
8
CUT
10
56.4286
20
48.9592
0
VERTEX
8
CUT
10
57.8571
20
48.8367
0
VERTEX
8
CUT
10
59.2857
20
48.6327
0
VERTEX
8
CUT
10
60.7143
20
48.3469
0
VERTEX
8
CUT
10
62.1429
20
47.9796
0
VERTEX
8
CUT
10
63.5714
20
47.5306
0
VERTEX
8
CUT
10
65
20
47
0
SEQEND
0
POLYLINE
8
CUT
66
1
70
0
0
VERTEX
8
CUT
10
67
20
47
0
VERTEX
8
CUT
10
68.4286
20
47.5306
0
VERTEX
8
CUT
10
69.8571
20
47.9796
0
VERTEX
8
CUT
10
71.2857
20
48.3469
0
VERTEX
8
CUT
10
72.7143
20
48.6327
0
VERTEX
8
CUT
10
74.1429
20
48.8367
0
VERTEX
8
CUT
10
75.5714
20
48.9592
0
VERTEX
8
CUT
10
77
20
49
0
VERTEX
8
CUT
10
78.4286
20
48.9592
0
VERTEX
8
CUT
10
79.8571
20
48.8367
0
VERTEX
8
CUT
10
81.2857
20
48.6327
0
VERTEX
8
CUT
10
82.7143
20
48.3469
0
VERTEX
8
CUT
10
84.1429
20
47.9796
0
VERTEX
8
CUT
10
85.5714
20
47.5306
0
VERTEX
8
CUT
10
87
20
47
0
SEQEND
0
POLYLINE
8
CUT
66
1
70
0
0
VERTEX
8
CUT
10
89
20
47
0
VERTEX
8
CUT
10
90.4286
20
47.5306
0
VERTEX
8
CUT
10
91.8571
20
47.9796
0
VERTEX
8
CUT
10
93.2857
20
48.3469
0
VERTEX
8
CUT
10
94.7143
20
48.6327
0
VERTEX
8
CUT
10
96.1429
20
48.8367
0
VERTEX
8
CUT
10
97.5714
20
48.9592
0
VERTEX
8
CUT
10
99
20
49
0
VERTEX
8
CUT
10
100.4286
20
48.9592
0
VERTEX
8
CUT
10
101.8571
20
48.8367
0
VERTEX
8
CUT
10
103.2857
20
48.6327
0
VERTEX
8
CUT
10
104.7143
20
48.3469
0
VERTEX
8
CUT
10
106.1429
20
47.9796
0
VERTEX
8
CUT
10
107.5714
20
47.5306
0
VERTEX
8
CUT
10
109
20
47
0
SEQEND
0
POLYLINE
8
CUT
66
1
70
0
0
VERTEX
8
CUT
10
111
20
47
0
VERTEX
8
CUT
10
112.4286
20
47.5306
0
VERTEX
8
CUT
10
113.8571
20
47.9796
0
VERTEX
8
CUT
10
115.2857
20
48.3469
0
VERTEX
8
CUT
10
116.7143
20
48.6327
0
VERTEX
8
CUT
10
118.1429
20
48.8367
0
VERTEX
8
CUT
10
119.5714
20
48.9592
0
VERTEX
8
CUT
10
120
20
48.9714
0
SEQEND
0
POLYLINE
8
CUT
66
1
70
0
0
VERTEX
8
CUT
10
0
20
39
0
VERTEX
8
CUT
10
0
20
39
0
VERTEX
8
CUT
10
1.4286
20
39.0408
0
VERTEX
8
CUT
10
2.8571
20
39.1633
0
VERTEX
8
CUT
10
4.2857
20
39.3673
0
VERTEX
8
CUT
10
5.7143
20
39.6531
0
VERTEX
8
CUT
10
7.1429
20
40.0204
0
VERTEX
8
CUT
10
8.5714
20
40.4694
0
VERTEX
8
CUT
10
10
20
41
0
SEQEND
0
POLYLINE
8
CUT
66
1
70
0
0
VERTEX
8
CUT
10
12
20
41
0
VERTEX
8
CUT
10
13.4286
20
40.4694
0
VERTEX
8
CUT
10
14.8571
20
40.0204
0
VERTEX
8
CUT
10
16.2857
20
39.6531
0
VERTEX
8
CUT
10
17.7143
20
39.3673
0
VERTEX
8
CUT
10
19.1429
20
39.1633
0
VERTEX
8
CUT
10
20.5714
20
39.0408
0
VERTEX
8
CUT
10
22
20
39
0
VERTEX
8
CUT
10
23.4286
20
39.0408
0
VERTEX
8
CUT
10
24.8571
20
39.1633
0
VERTEX
8
CUT
10
26.2857
20
39.3673
0
VERTEX
8
CUT
10
27.7143
20
39.6531
0
VERTEX
8
CUT
10
29.1429
20
40.0204
0
VERTEX
8
CUT
10
30.5714
20
40.4694
0
VERTEX
8
CUT
10
32
20
41
0
SEQEND
0
POLYLINE
8
CUT
66
1
70
0
0
VERTEX
8
CUT
10
34
20
41
0
VERTEX
8
CUT
10
35.4286
20
40.4694
0
VERTEX
8
CUT
10
36.8571
20
40.0204
0
VERTEX
8
CUT
10
38.2857
20
39.6531
0
VERTEX
8
CUT
10
39.7143
20
39.3673
0
VERTEX
8
CUT
10
41.1429
20
39.1633
0
VERTEX
8
CUT
10
42.5714
20
39.0408
0
VERTEX
8
CUT
10
44
20
39
0
VERTEX
8
CUT
10
45.4286
20
39.0408
0
VERTEX
8
CUT
10
46.8571
20
39.1633
0
VERTEX
8
CUT
10
48.2857
20
39.3673
0
VERTEX
8
CUT
10
49.7143
20
39.6531
0
VERTEX
8
CUT
10
51.1429
20
40.0204
0
VERTEX
8
CUT
10
52.5714
20
40.4694
0
VERTEX
8
CUT
10
54
20
41
0
SEQEND
0
POLYLINE
8
CUT
66
1
70
0
0
VERTEX
8
CUT
10
56
20
41
0
VERTEX
8
CUT
10
57.4286
20
40.4694
0
VERTEX
8
CUT
10
58.8571
20
40.0204
0
VERTEX
8
CUT
10
60.2857
20
39.6531
0
VERTEX
8
CUT
10
61.7143
20
39.3673
0
VERTEX
8
CUT
10
63.1429
20
39.1633
0
VERTEX
8
CUT
10
64.5714
20
39.0408
0
VERTEX
8
CUT
10
66
20
39
0
VERTEX
8
CUT
10
67.4286
20
39.0408
0
VERTEX
8
CUT
10
68.8571
20
39.1633
0
VERTEX
8
CUT
10
70.2857
20
39.3673
0
VERTEX
8
CUT
10
71.7143
20
39.6531
0
VERTEX
8
CUT
10
73.1429
20
40.0204
0
VERTEX
8
CUT
10
74.5714
20
40.4694
0
VERTEX
8
CUT
10
76
20
41
0
SEQEND
0
POLYLINE
8
CUT
66
1
70
0
0
VERTEX
8
CUT
10
78
20
41
0
VERTEX
8
CUT
10
79.4286
20
40.4694
0
VERTEX
8
CUT
10
80.8571
20
40.0204
0
VERTEX
8
CUT
10
82.2857
20
39.6531
0
VERTEX
8
CUT
10
83.7143
20
39.3673
0
VERTEX
8
CUT
10
85.1429
20
39.1633
0
VERTEX
8
CUT
10
86.5714
20
39.0408
0
VERTEX
8
CUT
10
88
20
39
0
VERTEX
8
CUT
10
89.4286
20
39.0408
0
VERTEX
8
CUT
10
90.8571
20
39.1633
0
VERTEX
8
CUT
10
92.2857
20
39.3673
0
VERTEX
8
CUT
10
93.7143
20
39.6531
0
VERTEX
8
CUT
10
95.1429
20
40.0204
0
VERTEX
8
CUT
10
96.5714
20
40.4694
0
VERTEX
8
CUT
10
98
20
41
0
SEQEND
0
POLYLINE
8
CUT
66
1
70
0
0
VERTEX
8
CUT
10
100
20
41
0
VERTEX
8
CUT
10
101.4286
20
40.4694
0
VERTEX
8
CUT
10
102.8571
20
40.0204
0
VERTEX
8
CUT
10
104.2857
20
39.6531
0
VERTEX
8
CUT
10
105.7143
20
39.3673
0
VERTEX
8
CUT
10
107.1429
20
39.1633
0
VERTEX
8
CUT
10
108.5714
20
39.0408
0
VERTEX
8
CUT
10
110
20
39
0
VERTEX
8
CUT
10
111.4286
20
39.0408
0
VERTEX
8
CUT
10
112.8571
20
39.1633
0
VERTEX
8
CUT
10
114.2857
20
39.3673
0
VERTEX
8
CUT
10
115.7143
20
39.6531
0
VERTEX
8
CUT
10
117.1429
20
40.0204
0
VERTEX
8
CUT
10
118.5714
20
40.4694
0
VERTEX
8
CUT
10
120
20
41
0
SEQEND
0
POLYLINE
8
CUT
66
1
70
0
0
VERTEX
8
CUT
10
1
20
35
0
VERTEX
8
CUT
10
2.4286
20
35.5306
0
VERTEX
8
CUT
10
3.8571
20
35.9796
0
VERTEX
8
CUT
10
5.2857
20
36.3469
0
VERTEX
8
CUT
10
6.7143
20
36.6327
0
VERTEX
8
CUT
10
8.1429
20
36.8367
0
VERTEX
8
CUT
10
9.5714
20
36.9592
0
VERTEX
8
CUT
10
11
20
37
0
VERTEX
8
CUT
10
12.4286
20
36.9592
0
VERTEX
8
CUT
10
13.8571
20
36.8367
0
VERTEX
8
CUT
10
15.2857
20
36.6327
0
VERTEX
8
CUT
10
16.7143
20
36.3469
0
VERTEX
8
CUT
10
18.1429
20
35.9796
0
VERTEX
8
CUT
10
19.5714
20
35.5306
0
VERTEX
8
CUT
10
21
20
35
0
SEQEND
0
POLYLINE
8
CUT
66
1
70
0
0
VERTEX
8
CUT
10
23
20
35
0
VERTEX
8
CUT
10
24.4286
20
35.5306
0
VERTEX
8
CUT
10
25.8571
20
35.9796
0
VERTEX
8
CUT
10
27.2857
20
36.3469
0
VERTEX
8
CUT
10
28.7143
20
36.6327
0
VERTEX
8
CUT
10
30.1429
20
36.8367
0
VERTEX
8
CUT
10
31.5714
20
36.9592
0
VERTEX
8
CUT
10
33
20
37
0
VERTEX
8
CUT
10
34.4286
20
36.9592
0
VERTEX
8
CUT
10
35.8571
20
36.8367
0
VERTEX
8
CUT
10
37.2857
20
36.6327
0
VERTEX
8
CUT
10
38.7143
20
36.3469
0
VERTEX
8
CUT
10
40.1429
20
35.9796
0
VERTEX
8
CUT
10
41.5714
20
35.5306
0
VERTEX
8
CUT
10
43
20
35
0
SEQEND
0
POLYLINE
8
CUT
66
1
70
0
0
VERTEX
8
CUT
10
45
20
35
0
VERTEX
8
CUT
10
46.4286
20
35.5306
0
VERTEX
8
CUT
10
47.8571
20
35.9796
0
VERTEX
8
CUT
10
49.2857
20
36.3469
0
VERTEX
8
CUT
10
50.7143
20
36.6327
0
VERTEX
8
CUT
10
52.1429
20
36.8367
0
VERTEX
8
CUT
10
53.5714
20
36.9592
0
VERTEX
8
CUT
10
55
20
37
0
VERTEX
8
CUT
10
56.4286
20
36.9592
0
VERTEX
8
CUT
10
57.8571
20
36.8367
0
VERTEX
8
CUT
10
59.2857
20
36.6327
0
VERTEX
8
CUT
10
60.7143
20
36.3469
0
VERTEX
8
CUT
10
62.1429
20
35.9796
0
VERTEX
8
CUT
10
63.5714
20
35.5306
0
VERTEX
8
CUT
10
65
20
35
0
SEQEND
0
POLYLINE
8
CUT
66
1
70
0
0
VERTEX
8
CUT
10
67
20
35
0
VERTEX
8
CUT
10
68.4286
20
35.5306
0
VERTEX
8
CUT
10
69.8571
20
35.9796
0
VERTEX
8
CUT
10
71.2857
20
36.3469
0
VERTEX
8
CUT
10
72.7143
20
36.6327
0
VERTEX
8
CUT
10
74.1429
20
36.8367
0
VERTEX
8
CUT
10
75.5714
20
36.9592
0
VERTEX
8
CUT
10
77
20
37
0
VERTEX
8
CUT
10
78.4286
20
36.9592
0
VERTEX
8
CUT
10
79.8571
20
36.8367
0
VERTEX
8
CUT
10
81.2857
20
36.6327
0
VERTEX
8
CUT
10
82.7143
20
36.3469
0
VERTEX
8
CUT
10
84.1429
20
35.9796
0
VERTEX
8
CUT
10
85.5714
20
35.5306
0
VERTEX
8
CUT
10
87
20
35
0
SEQEND
0
POLYLINE
8
CUT
66
1
70
0
0
VERTEX
8
CUT
10
89
20
35
0
VERTEX
8
CUT
10
90.4286
20
35.5306
0
VERTEX
8
CUT
10
91.8571
20
35.9796
0
VERTEX
8
CUT
10
93.2857
20
36.3469
0
VERTEX
8
CUT
10
94.7143
20
36.6327
0
VERTEX
8
CUT
10
96.1429
20
36.8367
0
VERTEX
8
CUT
10
97.5714
20
36.9592
0
VERTEX
8
CUT
10
99
20
37
0
VERTEX
8
CUT
10
100.4286
20
36.9592
0
VERTEX
8
CUT
10
101.8571
20
36.8367
0
VERTEX
8
CUT
10
103.2857
20
36.6327
0
VERTEX
8
CUT
10
104.7143
20
36.3469
0
VERTEX
8
CUT
10
106.1429
20
35.9796
0
VERTEX
8
CUT
10
107.5714
20
35.5306
0
VERTEX
8
CUT
10
109
20
35
0
SEQEND
0
POLYLINE
8
CUT
66
1
70
0
0
VERTEX
8
CUT
10
111
20
35
0
VERTEX
8
CUT
10
112.4286
20
35.5306
0
VERTEX
8
CUT
10
113.8571
20
35.9796
0
VERTEX
8
CUT
10
115.2857
20
36.3469
0
VERTEX
8
CUT
10
116.7143
20
36.6327
0
VERTEX
8
CUT
10
118.1429
20
36.8367
0
VERTEX
8
CUT
10
119.5714
20
36.9592
0
VERTEX
8
CUT
10
120
20
36.9714
0
SEQEND
0
POLYLINE
8
CUT
66
1
70
0
0
VERTEX
8
CUT
10
0
20
27
0
VERTEX
8
CUT
10
0
20
27
0
VERTEX
8
CUT
10
1.4286
20
27.0408
0
VERTEX
8
CUT
10
2.8571
20
27.1633
0
VERTEX
8
CUT
10
4.2857
20
27.3673
0
VERTEX
8
CUT
10
5.7143
20
27.6531
0
VERTEX
8
CUT
10
7.1429
20
28.0204
0
VERTEX
8
CUT
10
8.5714
20
28.4694
0
VERTEX
8
CUT
10
10
20
29
0
SEQEND
0
POLYLINE
8
CUT
66
1
70
0
0
VERTEX
8
CUT
10
12
20
29
0
VERTEX
8
CUT
10
13.4286
20
28.4694
0
VERTEX
8
CUT
10
14.8571
20
28.0204
0
VERTEX
8
CUT
10
16.2857
20
27.6531
0
VERTEX
8
CUT
10
17.7143
20
27.3673
0
VERTEX
8
CUT
10
19.1429
20
27.1633
0
VERTEX
8
CUT
10
20.5714
20
27.0408
0
VERTEX
8
CUT
10
22
20
27
0
VERTEX
8
CUT
10
23.4286
20
27.0408
0
VERTEX
8
CUT
10
24.8571
20
27.1633
0
VERTEX
8
CUT
10
26.2857
20
27.3673
0
VERTEX
8
CUT
10
27.7143
20
27.6531
0
VERTEX
8
CUT
10
29.1429
20
28.0204
0
VERTEX
8
CUT
10
30.5714
20
28.4694
0
VERTEX
8
CUT
10
32
20
29
0
SEQEND
0
POLYLINE
8
CUT
66
1
70
0
0
VERTEX
8
CUT
10
34
20
29
0
VERTEX
8
CUT
10
35.4286
20
28.4694
0
VERTEX
8
CUT
10
36.8571
20
28.0204
0
VERTEX
8
CUT
10
38.2857
20
27.6531
0
VERTEX
8
CUT
10
39.7143
20
27.3673
0
VERTEX
8
CUT
10
41.1429
20
27.1633
0
VERTEX
8
CUT
10
42.5714
20
27.0408
0
VERTEX
8
CUT
10
44
20
27
0
VERTEX
8
CUT
10
45.4286
20
27.0408
0
VERTEX
8
CUT
10
46.8571
20
27.1633
0
VERTEX
8
CUT
10
48.2857
20
27.3673
0
VERTEX
8
CUT
10
49.7143
20
27.6531
0
VERTEX
8
CUT
10
51.1429
20
28.0204
0
VERTEX
8
CUT
10
52.5714
20
28.4694
0
VERTEX
8
CUT
10
54
20
29
0
SEQEND
0
POLYLINE
8
CUT
66
1
70
0
0
VERTEX
8
CUT
10
56
20
29
0
VERTEX
8
CUT
10
57.4286
20
28.4694
0
VERTEX
8
CUT
10
58.8571
20
28.0204
0
VERTEX
8
CUT
10
60.2857
20
27.6531
0
VERTEX
8
CUT
10
61.7143
20
27.3673
0
VERTEX
8
CUT
10
63.1429
20
27.1633
0
VERTEX
8
CUT
10
64.5714
20
27.0408
0
VERTEX
8
CUT
10
66
20
27
0
VERTEX
8
CUT
10
67.4286
20
27.0408
0
VERTEX
8
CUT
10
68.8571
20
27.1633
0
VERTEX
8
CUT
10
70.2857
20
27.3673
0
VERTEX
8
CUT
10
71.7143
20
27.6531
0
VERTEX
8
CUT
10
73.1429
20
28.0204
0
VERTEX
8
CUT
10
74.5714
20
28.4694
0
VERTEX
8
CUT
10
76
20
29
0
SEQEND
0
POLYLINE
8
CUT
66
1
70
0
0
VERTEX
8
CUT
10
78
20
29
0
VERTEX
8
CUT
10
79.4286
20
28.4694
0
VERTEX
8
CUT
10
80.8571
20
28.0204
0
VERTEX
8
CUT
10
82.2857
20
27.6531
0
VERTEX
8
CUT
10
83.7143
20
27.3673
0
VERTEX
8
CUT
10
85.1429
20
27.1633
0
VERTEX
8
CUT
10
86.5714
20
27.0408
0
VERTEX
8
CUT
10
88
20
27
0
VERTEX
8
CUT
10
89.4286
20
27.0408
0
VERTEX
8
CUT
10
90.8571
20
27.1633
0
VERTEX
8
CUT
10
92.2857
20
27.3673
0
VERTEX
8
CUT
10
93.7143
20
27.6531
0
VERTEX
8
CUT
10
95.1429
20
28.0204
0
VERTEX
8
CUT
10
96.5714
20
28.4694
0
VERTEX
8
CUT
10
98
20
29
0
SEQEND
0
POLYLINE
8
CUT
66
1
70
0
0
VERTEX
8
CUT
10
100
20
29
0
VERTEX
8
CUT
10
101.4286
20
28.4694
0
VERTEX
8
CUT
10
102.8571
20
28.0204
0
VERTEX
8
CUT
10
104.2857
20
27.6531
0
VERTEX
8
CUT
10
105.7143
20
27.3673
0
VERTEX
8
CUT
10
107.1429
20
27.1633
0
VERTEX
8
CUT
10
108.5714
20
27.0408
0
VERTEX
8
CUT
10
110
20
27
0
VERTEX
8
CUT
10
111.4286
20
27.0408
0
VERTEX
8
CUT
10
112.8571
20
27.1633
0
VERTEX
8
CUT
10
114.2857
20
27.3673
0
VERTEX
8
CUT
10
115.7143
20
27.6531
0
VERTEX
8
CUT
10
117.1429
20
28.0204
0
VERTEX
8
CUT
10
118.5714
20
28.4694
0
VERTEX
8
CUT
10
120
20
29
0
SEQEND
0
POLYLINE
8
CUT
66
1
70
0
0
VERTEX
8
CUT
10
1
20
23
0
VERTEX
8
CUT
10
2.4286
20
23.5306
0
VERTEX
8
CUT
10
3.8571
20
23.9796
0
VERTEX
8
CUT
10
5.2857
20
24.3469
0
VERTEX
8
CUT
10
6.7143
20
24.6327
0
VERTEX
8
CUT
10
8.1429
20
24.8367
0
VERTEX
8
CUT
10
9.5714
20
24.9592
0
VERTEX
8
CUT
10
11
20
25
0
VERTEX
8
CUT
10
12.4286
20
24.9592
0
VERTEX
8
CUT
10
13.8571
20
24.8367
0
VERTEX
8
CUT
10
15.2857
20
24.6327
0
VERTEX
8
CUT
10
16.7143
20
24.3469
0
VERTEX
8
CUT
10
18.1429
20
23.9796
0
VERTEX
8
CUT
10
19.5714
20
23.5306
0
VERTEX
8
CUT
10
21
20
23
0
SEQEND
0
POLYLINE
8
CUT
66
1
70
0
0
VERTEX
8
CUT
10
23
20
23
0
VERTEX
8
CUT
10
24.4286
20
23.5306
0
VERTEX
8
CUT
10
25.8571
20
23.9796
0
VERTEX
8
CUT
10
27.2857
20
24.3469
0
VERTEX
8
CUT
10
28.7143
20
24.6327
0
VERTEX
8
CUT
10
30.1429
20
24.8367
0
VERTEX
8
CUT
10
31.5714
20
24.9592
0
VERTEX
8
CUT
10
33
20
25
0
VERTEX
8
CUT
10
34.4286
20
24.9592
0
VERTEX
8
CUT
10
35.8571
20
24.8367
0
VERTEX
8
CUT
10
37.2857
20
24.6327
0
VERTEX
8
CUT
10
38.7143
20
24.3469
0
VERTEX
8
CUT
10
40.1429
20
23.9796
0
VERTEX
8
CUT
10
41.5714
20
23.5306
0
VERTEX
8
CUT
10
43
20
23
0
SEQEND
0
POLYLINE
8
CUT
66
1
70
0
0
VERTEX
8
CUT
10
45
20
23
0
VERTEX
8
CUT
10
46.4286
20
23.5306
0
VERTEX
8
CUT
10
47.8571
20
23.9796
0
VERTEX
8
CUT
10
49.2857
20
24.3469
0
VERTEX
8
CUT
10
50.7143
20
24.6327
0
VERTEX
8
CUT
10
52.1429
20
24.8367
0
VERTEX
8
CUT
10
53.5714
20
24.9592
0
VERTEX
8
CUT
10
55
20
25
0
VERTEX
8
CUT
10
56.4286
20
24.9592
0
VERTEX
8
CUT
10
57.8571
20
24.8367
0
VERTEX
8
CUT
10
59.2857
20
24.6327
0
VERTEX
8
CUT
10
60.7143
20
24.3469
0
VERTEX
8
CUT
10
62.1429
20
23.9796
0
VERTEX
8
CUT
10
63.5714
20
23.5306
0
VERTEX
8
CUT
10
65
20
23
0
SEQEND
0
POLYLINE
8
CUT
66
1
70
0
0
VERTEX
8
CUT
10
67
20
23
0
VERTEX
8
CUT
10
68.4286
20
23.5306
0
VERTEX
8
CUT
10
69.8571
20
23.9796
0
VERTEX
8
CUT
10
71.2857
20
24.3469
0
VERTEX
8
CUT
10
72.7143
20
24.6327
0
VERTEX
8
CUT
10
74.1429
20
24.8367
0
VERTEX
8
CUT
10
75.5714
20
24.9592
0
VERTEX
8
CUT
10
77
20
25
0
VERTEX
8
CUT
10
78.4286
20
24.9592
0
VERTEX
8
CUT
10
79.8571
20
24.8367
0
VERTEX
8
CUT
10
81.2857
20
24.6327
0
VERTEX
8
CUT
10
82.7143
20
24.3469
0
VERTEX
8
CUT
10
84.1429
20
23.9796
0
VERTEX
8
CUT
10
85.5714
20
23.5306
0
VERTEX
8
CUT
10
87
20
23
0
SEQEND
0
POLYLINE
8
CUT
66
1
70
0
0
VERTEX
8
CUT
10
89
20
23
0
VERTEX
8
CUT
10
90.4286
20
23.5306
0
VERTEX
8
CUT
10
91.8571
20
23.9796
0
VERTEX
8
CUT
10
93.2857
20
24.3469
0
VERTEX
8
CUT
10
94.7143
20
24.6327
0
VERTEX
8
CUT
10
96.1429
20
24.8367
0
VERTEX
8
CUT
10
97.5714
20
24.9592
0
VERTEX
8
CUT
10
99
20
25
0
VERTEX
8
CUT
10
100.4286
20
24.9592
0
VERTEX
8
CUT
10
101.8571
20
24.8367
0
VERTEX
8
CUT
10
103.2857
20
24.6327
0
VERTEX
8
CUT
10
104.7143
20
24.3469
0
VERTEX
8
CUT
10
106.1429
20
23.9796
0
VERTEX
8
CUT
10
107.5714
20
23.5306
0
VERTEX
8
CUT
10
109
20
23
0
SEQEND
0
POLYLINE
8
CUT
66
1
70
0
0
VERTEX
8
CUT
10
111
20
23
0
VERTEX
8
CUT
10
112.4286
20
23.5306
0
VERTEX
8
CUT
10
113.8571
20
23.9796
0
VERTEX
8
CUT
10
115.2857
20
24.3469
0
VERTEX
8
CUT
10
116.7143
20
24.6327
0
VERTEX
8
CUT
10
118.1429
20
24.8367
0
VERTEX
8
CUT
10
119.5714
20
24.9592
0
VERTEX
8
CUT
10
120
20
24.9714
0
SEQEND
0
POLYLINE
8
CUT
66
1
70
0
0
VERTEX
8
CUT
10
0
20
15
0
VERTEX
8
CUT
10
0
20
15
0
VERTEX
8
CUT
10
1.4286
20
15.0408
0
VERTEX
8
CUT
10
2.8571
20
15.1633
0
VERTEX
8
CUT
10
4.2857
20
15.3673
0
VERTEX
8
CUT
10
5.7143
20
15.6531
0
VERTEX
8
CUT
10
7.1429
20
16.0204
0
VERTEX
8
CUT
10
8.5714
20
16.4694
0
VERTEX
8
CUT
10
10
20
17
0
SEQEND
0
POLYLINE
8
CUT
66
1
70
0
0
VERTEX
8
CUT
10
12
20
17
0
VERTEX
8
CUT
10
13.4286
20
16.4694
0
VERTEX
8
CUT
10
14.8571
20
16.0204
0
VERTEX
8
CUT
10
16.2857
20
15.6531
0
VERTEX
8
CUT
10
17.7143
20
15.3673
0
VERTEX
8
CUT
10
19.1429
20
15.1633
0
VERTEX
8
CUT
10
20.5714
20
15.0408
0
VERTEX
8
CUT
10
22
20
15
0
VERTEX
8
CUT
10
23.4286
20
15.0408
0
VERTEX
8
CUT
10
24.8571
20
15.1633
0
VERTEX
8
CUT
10
26.2857
20
15.3673
0
VERTEX
8
CUT
10
27.7143
20
15.6531
0
VERTEX
8
CUT
10
29.1429
20
16.0204
0
VERTEX
8
CUT
10
30.5714
20
16.4694
0
VERTEX
8
CUT
10
32
20
17
0
SEQEND
0
POLYLINE
8
CUT
66
1
70
0
0
VERTEX
8
CUT
10
34
20
17
0
VERTEX
8
CUT
10
35.4286
20
16.4694
0
VERTEX
8
CUT
10
36.8571
20
16.0204
0
VERTEX
8
CUT
10
38.2857
20
15.6531
0
VERTEX
8
CUT
10
39.7143
20
15.3673
0
VERTEX
8
CUT
10
41.1429
20
15.1633
0
VERTEX
8
CUT
10
42.5714
20
15.0408
0
VERTEX
8
CUT
10
44
20
15
0
VERTEX
8
CUT
10
45.4286
20
15.0408
0
VERTEX
8
CUT
10
46.8571
20
15.1633
0
VERTEX
8
CUT
10
48.2857
20
15.3673
0
VERTEX
8
CUT
10
49.7143
20
15.6531
0
VERTEX
8
CUT
10
51.1429
20
16.0204
0
VERTEX
8
CUT
10
52.5714
20
16.4694
0
VERTEX
8
CUT
10
54
20
17
0
SEQEND
0
POLYLINE
8
CUT
66
1
70
0
0
VERTEX
8
CUT
10
56
20
17
0
VERTEX
8
CUT
10
57.4286
20
16.4694
0
VERTEX
8
CUT
10
58.8571
20
16.0204
0
VERTEX
8
CUT
10
60.2857
20
15.6531
0
VERTEX
8
CUT
10
61.7143
20
15.3673
0
VERTEX
8
CUT
10
63.1429
20
15.1633
0
VERTEX
8
CUT
10
64.5714
20
15.0408
0
VERTEX
8
CUT
10
66
20
15
0
VERTEX
8
CUT
10
67.4286
20
15.0408
0
VERTEX
8
CUT
10
68.8571
20
15.1633
0
VERTEX
8
CUT
10
70.2857
20
15.3673
0
VERTEX
8
CUT
10
71.7143
20
15.6531
0
VERTEX
8
CUT
10
73.1429
20
16.0204
0
VERTEX
8
CUT
10
74.5714
20
16.4694
0
VERTEX
8
CUT
10
76
20
17
0
SEQEND
0
POLYLINE
8
CUT
66
1
70
0
0
VERTEX
8
CUT
10
78
20
17
0
VERTEX
8
CUT
10
79.4286
20
16.4694
0
VERTEX
8
CUT
10
80.8571
20
16.0204
0
VERTEX
8
CUT
10
82.2857
20
15.6531
0
VERTEX
8
CUT
10
83.7143
20
15.3673
0
VERTEX
8
CUT
10
85.1429
20
15.1633
0
VERTEX
8
CUT
10
86.5714
20
15.0408
0
VERTEX
8
CUT
10
88
20
15
0
VERTEX
8
CUT
10
89.4286
20
15.0408
0
VERTEX
8
CUT
10
90.8571
20
15.1633
0
VERTEX
8
CUT
10
92.2857
20
15.3673
0
VERTEX
8
CUT
10
93.7143
20
15.6531
0
VERTEX
8
CUT
10
95.1429
20
16.0204
0
VERTEX
8
CUT
10
96.5714
20
16.4694
0
VERTEX
8
CUT
10
98
20
17
0
SEQEND
0
POLYLINE
8
CUT
66
1
70
0
0
VERTEX
8
CUT
10
100
20
17
0
VERTEX
8
CUT
10
101.4286
20
16.4694
0
VERTEX
8
CUT
10
102.8571
20
16.0204
0
VERTEX
8
CUT
10
104.2857
20
15.6531
0
VERTEX
8
CUT
10
105.7143
20
15.3673
0
VERTEX
8
CUT
10
107.1429
20
15.1633
0
VERTEX
8
CUT
10
108.5714
20
15.0408
0
VERTEX
8
CUT
10
110
20
15
0
VERTEX
8
CUT
10
111.4286
20
15.0408
0
VERTEX
8
CUT
10
112.8571
20
15.1633
0
VERTEX
8
CUT
10
114.2857
20
15.3673
0
VERTEX
8
CUT
10
115.7143
20
15.6531
0
VERTEX
8
CUT
10
117.1429
20
16.0204
0
VERTEX
8
CUT
10
118.5714
20
16.4694
0
VERTEX
8
CUT
10
120
20
17
0
SEQEND
0
POLYLINE
8
CUT
66
1
70
0
0
VERTEX
8
CUT
10
1
20
11
0
VERTEX
8
CUT
10
2.4286
20
11.5306
0
VERTEX
8
CUT
10
3.8571
20
11.9796
0
VERTEX
8
CUT
10
5.2857
20
12.3469
0
VERTEX
8
CUT
10
6.7143
20
12.6327
0
VERTEX
8
CUT
10
8.1429
20
12.8367
0
VERTEX
8
CUT
10
9.5714
20
12.9592
0
VERTEX
8
CUT
10
11
20
13
0
VERTEX
8
CUT
10
12.4286
20
12.9592
0
VERTEX
8
CUT
10
13.8571
20
12.8367
0
VERTEX
8
CUT
10
15.2857
20
12.6327
0
VERTEX
8
CUT
10
16.7143
20
12.3469
0
VERTEX
8
CUT
10
18.1429
20
11.9796
0
VERTEX
8
CUT
10
19.5714
20
11.5306
0
VERTEX
8
CUT
10
21
20
11
0
SEQEND
0
POLYLINE
8
CUT
66
1
70
0
0
VERTEX
8
CUT
10
23
20
11
0
VERTEX
8
CUT
10
24.4286
20
11.5306
0
VERTEX
8
CUT
10
25.8571
20
11.9796
0
VERTEX
8
CUT
10
27.2857
20
12.3469
0
VERTEX
8
CUT
10
28.7143
20
12.6327
0
VERTEX
8
CUT
10
30.1429
20
12.8367
0
VERTEX
8
CUT
10
31.5714
20
12.9592
0
VERTEX
8
CUT
10
33
20
13
0
VERTEX
8
CUT
10
34.4286
20
12.9592
0
VERTEX
8
CUT
10
35.8571
20
12.8367
0
VERTEX
8
CUT
10
37.2857
20
12.6327
0
VERTEX
8
CUT
10
38.7143
20
12.3469
0
VERTEX
8
CUT
10
40.1429
20
11.9796
0
VERTEX
8
CUT
10
41.5714
20
11.5306
0
VERTEX
8
CUT
10
43
20
11
0
SEQEND
0
POLYLINE
8
CUT
66
1
70
0
0
VERTEX
8
CUT
10
45
20
11
0
VERTEX
8
CUT
10
46.4286
20
11.5306
0
VERTEX
8
CUT
10
47.8571
20
11.9796
0
VERTEX
8
CUT
10
49.2857
20
12.3469
0
VERTEX
8
CUT
10
50.7143
20
12.6327
0
VERTEX
8
CUT
10
52.1429
20
12.8367
0
VERTEX
8
CUT
10
53.5714
20
12.9592
0
VERTEX
8
CUT
10
55
20
13
0
VERTEX
8
CUT
10
56.4286
20
12.9592
0
VERTEX
8
CUT
10
57.8571
20
12.8367
0
VERTEX
8
CUT
10
59.2857
20
12.6327
0
VERTEX
8
CUT
10
60.7143
20
12.3469
0
VERTEX
8
CUT
10
62.1429
20
11.9796
0
VERTEX
8
CUT
10
63.5714
20
11.5306
0
VERTEX
8
CUT
10
65
20
11
0
SEQEND
0
POLYLINE
8
CUT
66
1
70
0
0
VERTEX
8
CUT
10
67
20
11
0
VERTEX
8
CUT
10
68.4286
20
11.5306
0
VERTEX
8
CUT
10
69.8571
20
11.9796
0
VERTEX
8
CUT
10
71.2857
20
12.3469
0
VERTEX
8
CUT
10
72.7143
20
12.6327
0
VERTEX
8
CUT
10
74.1429
20
12.8367
0
VERTEX
8
CUT
10
75.5714
20
12.9592
0
VERTEX
8
CUT
10
77
20
13
0
VERTEX
8
CUT
10
78.4286
20
12.9592
0
VERTEX
8
CUT
10
79.8571
20
12.8367
0
VERTEX
8
CUT
10
81.2857
20
12.6327
0
VERTEX
8
CUT
10
82.7143
20
12.3469
0
VERTEX
8
CUT
10
84.1429
20
11.9796
0
VERTEX
8
CUT
10
85.5714
20
11.5306
0
VERTEX
8
CUT
10
87
20
11
0
SEQEND
0
POLYLINE
8
CUT
66
1
70
0
0
VERTEX
8
CUT
10
89
20
11
0
VERTEX
8
CUT
10
90.4286
20
11.5306
0
VERTEX
8
CUT
10
91.8571
20
11.9796
0
VERTEX
8
CUT
10
93.2857
20
12.3469
0
VERTEX
8
CUT
10
94.7143
20
12.6327
0
VERTEX
8
CUT
10
96.1429
20
12.8367
0
VERTEX
8
CUT
10
97.5714
20
12.9592
0
VERTEX
8
CUT
10
99
20
13
0
VERTEX
8
CUT
10
100.4286
20
12.9592
0
VERTEX
8
CUT
10
101.8571
20
12.8367
0
VERTEX
8
CUT
10
103.2857
20
12.6327
0
VERTEX
8
CUT
10
104.7143
20
12.3469
0
VERTEX
8
CUT
10
106.1429
20
11.9796
0
VERTEX
8
CUT
10
107.5714
20
11.5306
0
VERTEX
8
CUT
10
109
20
11
0
SEQEND
0
POLYLINE
8
CUT
66
1
70
0
0
VERTEX
8
CUT
10
111
20
11
0
VERTEX
8
CUT
10
112.4286
20
11.5306
0
VERTEX
8
CUT
10
113.8571
20
11.9796
0
VERTEX
8
CUT
10
115.2857
20
12.3469
0
VERTEX
8
CUT
10
116.7143
20
12.6327
0
VERTEX
8
CUT
10
118.1429
20
12.8367
0
VERTEX
8
CUT
10
119.5714
20
12.9592
0
VERTEX
8
CUT
10
120
20
12.9714
0
SEQEND
0
POLYLINE
8
CUT
66
1
70
0
0
VERTEX
8
CUT
10
0
20
3
0
VERTEX
8
CUT
10
0
20
3
0
VERTEX
8
CUT
10
1.4286
20
3.0408
0
VERTEX
8
CUT
10
2.8571
20
3.1633
0
VERTEX
8
CUT
10
4.2857
20
3.3673
0
VERTEX
8
CUT
10
5.7143
20
3.6531
0
VERTEX
8
CUT
10
7.1429
20
4.0204
0
VERTEX
8
CUT
10
8.5714
20
4.4694
0
VERTEX
8
CUT
10
10
20
5
0
SEQEND
0
POLYLINE
8
CUT
66
1
70
0
0
VERTEX
8
CUT
10
12
20
5
0
VERTEX
8
CUT
10
13.4286
20
4.4694
0
VERTEX
8
CUT
10
14.8571
20
4.0204
0
VERTEX
8
CUT
10
16.2857
20
3.6531
0
VERTEX
8
CUT
10
17.7143
20
3.3673
0
VERTEX
8
CUT
10
19.1429
20
3.1633
0
VERTEX
8
CUT
10
20.5714
20
3.0408
0
VERTEX
8
CUT
10
22
20
3
0
VERTEX
8
CUT
10
23.4286
20
3.0408
0
VERTEX
8
CUT
10
24.8571
20
3.1633
0
VERTEX
8
CUT
10
26.2857
20
3.3673
0
VERTEX
8
CUT
10
27.7143
20
3.6531
0
VERTEX
8
CUT
10
29.1429
20
4.0204
0
VERTEX
8
CUT
10
30.5714
20
4.4694
0
VERTEX
8
CUT
10
32
20
5
0
SEQEND
0
POLYLINE
8
CUT
66
1
70
0
0
VERTEX
8
CUT
10
34
20
5
0
VERTEX
8
CUT
10
35.4286
20
4.4694
0
VERTEX
8
CUT
10
36.8571
20
4.0204
0
VERTEX
8
CUT
10
38.2857
20
3.6531
0
VERTEX
8
CUT
10
39.7143
20
3.3673
0
VERTEX
8
CUT
10
41.1429
20
3.1633
0
VERTEX
8
CUT
10
42.5714
20
3.0408
0
VERTEX
8
CUT
10
44
20
3
0
VERTEX
8
CUT
10
45.4286
20
3.0408
0
VERTEX
8
CUT
10
46.8571
20
3.1633
0
VERTEX
8
CUT
10
48.2857
20
3.3673
0
VERTEX
8
CUT
10
49.7143
20
3.6531
0
VERTEX
8
CUT
10
51.1429
20
4.0204
0
VERTEX
8
CUT
10
52.5714
20
4.4694
0
VERTEX
8
CUT
10
54
20
5
0
SEQEND
0
POLYLINE
8
CUT
66
1
70
0
0
VERTEX
8
CUT
10
56
20
5
0
VERTEX
8
CUT
10
57.4286
20
4.4694
0
VERTEX
8
CUT
10
58.8571
20
4.0204
0
VERTEX
8
CUT
10
60.2857
20
3.6531
0
VERTEX
8
CUT
10
61.7143
20
3.3673
0
VERTEX
8
CUT
10
63.1429
20
3.1633
0
VERTEX
8
CUT
10
64.5714
20
3.0408
0
VERTEX
8
CUT
10
66
20
3
0
VERTEX
8
CUT
10
67.4286
20
3.0408
0
VERTEX
8
CUT
10
68.8571
20
3.1633
0
VERTEX
8
CUT
10
70.2857
20
3.3673
0
VERTEX
8
CUT
10
71.7143
20
3.6531
0
VERTEX
8
CUT
10
73.1429
20
4.0204
0
VERTEX
8
CUT
10
74.5714
20
4.4694
0
VERTEX
8
CUT
10
76
20
5
0
SEQEND
0
POLYLINE
8
CUT
66
1
70
0
0
VERTEX
8
CUT
10
78
20
5
0
VERTEX
8
CUT
10
79.4286
20
4.4694
0
VERTEX
8
CUT
10
80.8571
20
4.0204
0
VERTEX
8
CUT
10
82.2857
20
3.6531
0
VERTEX
8
CUT
10
83.7143
20
3.3673
0
VERTEX
8
CUT
10
85.1429
20
3.1633
0
VERTEX
8
CUT
10
86.5714
20
3.0408
0
VERTEX
8
CUT
10
88
20
3
0
VERTEX
8
CUT
10
89.4286
20
3.0408
0
VERTEX
8
CUT
10
90.8571
20
3.1633
0
VERTEX
8
CUT
10
92.2857
20
3.3673
0
VERTEX
8
CUT
10
93.7143
20
3.6531
0
VERTEX
8
CUT
10
95.1429
20
4.0204
0
VERTEX
8
CUT
10
96.5714
20
4.4694
0
VERTEX
8
CUT
10
98
20
5
0
SEQEND
0
POLYLINE
8
CUT
66
1
70
0
0
VERTEX
8
CUT
10
100
20
5
0
VERTEX
8
CUT
10
101.4286
20
4.4694
0
VERTEX
8
CUT
10
102.8571
20
4.0204
0
VERTEX
8
CUT
10
104.2857
20
3.6531
0
VERTEX
8
CUT
10
105.7143
20
3.3673
0
VERTEX
8
CUT
10
107.1429
20
3.1633
0
VERTEX
8
CUT
10
108.5714
20
3.0408
0
VERTEX
8
CUT
10
110
20
3
0
VERTEX
8
CUT
10
111.4286
20
3.0408
0
VERTEX
8
CUT
10
112.8571
20
3.1633
0
VERTEX
8
CUT
10
114.2857
20
3.3673
0
VERTEX
8
CUT
10
115.7143
20
3.6531
0
VERTEX
8
CUT
10
117.1429
20
4.0204
0
VERTEX
8
CUT
10
118.5714
20
4.4694
0
VERTEX
8
CUT
10
120
20
5
0
SEQEND
0
POLYLINE
8
CUT
66
1
70
0
0
VERTEX
8
CUT
10
0
20
70
0
VERTEX
8
CUT
10
120
20
70
0
VERTEX
8
CUT
10
120
20
0
0
VERTEX
8
CUT
10
0
20
0
0
VERTEX
8
CUT
10
0
20
70
0
SEQEND
0
ENDSEC
0
EOF
