0
SECTION
2
HEADER
9
$ACADVER
1
AC1009
9
$INSUNITS
70
4
0
ENDSEC
0
SECTION
2
TABLES
0
TABLE
2
LAYER
70
1
0
LAYER
2
CUT
70
0
62
1
6
CONTINUOUS
0
ENDTAB
0
ENDSEC
0
SECTION
2
ENTITIES
0
POLYLINE
8
CUT
66
1
70
0
0
VERTEX
8
CUT
10
0
20
67
0
VERTEX
8
CUT
10
0.6
20
66.6855
0
VERTEX
8
CUT
10
1.8
20
66.1593
0
VERTEX
8
CUT
10
3
20
65.908
0
VERTEX
8
CUT
10
4.2
20
66.0139
0
VERTEX
8
CUT
10
5.4
20
66.4423
0
VERTEX
8
CUT
10
6.6
20
67.0531
0
VERTEX
8
CUT
10
7.8
20
67.6466
0
VERTEX
8
CUT
10
9
20
68.0285
0
VERTEX
8
CUT
10
10.2
20
68.0741
0
VERTEX
8
CUT
10
11.4
20
67.7684
0
VERTEX
8
CUT
10
12.6
20
67.2113
0
VERTEX
8
CUT
10
13.8
20
66.5852
0
VERTEX
8
CUT
10
15
20
66.0947
0
SEQEND
0
POLYLINE
8
CUT
66
1
70
0
0
VERTEX
8
CUT
10
16.5
20
65.908
0
VERTEX
8
CUT
10
17.7
20
66.1593
0
VERTEX
8
CUT
10
18.9
20
66.6855
0
VERTEX
8
CUT
10
20.1
20
67.3145
0
VERTEX
8
CUT
10
21.3
20
67.8407
0
VERTEX
8
CUT
10
22.5
20
68.092
0
VERTEX
8
CUT
10
23.7
20
67.9861
0
VERTEX
8
CUT
10
24.9
20
67.5577
0
VERTEX
8
CUT
10
26.1
20
66.9469
0
VERTEX
8
CUT
10
27.3
20
66.3534
0
VERTEX
8
CUT
10
28.5
20
65.9715
0
VERTEX
8
CUT
10
29.7
20
65.9259
0
VERTEX
8
CUT
10
30.9
20
66.2316
0
VERTEX
8
CUT
10
32.1
20
66.7887
0
VERTEX
8
CUT
10
33.3
20
67.4148
0
VERTEX
8
CUT
10
34.5
20
67.9053
0
VERTEX
8
CUT
10
35.7
20
68.0997
0
VERTEX
8
CUT
10
36.9
20
67.9344
0
VERTEX
8
CUT
10
38.1
20
67.4635
0
VERTEX
8
CUT
10
39.3
20
66.8411
0
VERTEX
8
CUT
10
40.5
20
66.2706
0
VERTEX
8
CUT
10
41.7
20
65.9386
0
VERTEX
8
CUT
10
42.9
20
65.9538
0
VERTEX
8
CUT
10
44.1
20
66.3112
0
VERTEX
8
CUT
10
45.3
20
66.8938
0
VERTEX
8
CUT
10
46.5
20
67.5112
0
SEQEND
0
POLYLINE
8
CUT
66
1
70
0
0
VERTEX
8
CUT
10
48
20
68.0285
0
VERTEX
8
CUT
10
49.2
20
68.0741
0
VERTEX
8
CUT
10
50.4
20
67.7684
0
VERTEX
8
CUT
10
51.6
20
67.2113
0
VERTEX
8
CUT
10
52.8
20
66.5852
0
VERTEX
8
CUT
10
54
20
66.0947
0
VERTEX
8
CUT
10
55.2
20
65.9003
0
VERTEX
8
CUT
10
56.4
20
66.0656
0
VERTEX
8
CUT
10
57.6
20
66.5365
0
VERTEX
8
CUT
10
58.8
20
67.1589
0
VERTEX
8
CUT
10
60
20
67.7294
0
VERTEX
8
CUT
10
61.2
20
68.0614
0
VERTEX
8
CUT
10
62.4
20
68.0462
0
VERTEX
8
CUT
10
63.6
20
67.6888
0
VERTEX
8
CUT
10
64.8
20
67.1062
0
VERTEX
8
CUT
10
66
20
66.4888
0
VERTEX
8
CUT
10
67.2
20
66.0386
0
VERTEX
8
CUT
10
68.4
20
65.9029
0
VERTEX
8
CUT
10
69.6
20
66.126
0
VERTEX
8
CUT
10
70.8
20
66.6349
0
VERTEX
8
CUT
10
72
20
67.2632
0
VERTEX
8
CUT
10
73.2
20
67.8055
0
VERTEX
8
CUT
10
74.4
20
68.0843
0
VERTEX
8
CUT
10
75.6
20
68.0085
0
VERTEX
8
CUT
10
76.8
20
67.6028
0
VERTEX
8
CUT
10
78
20
67
0
SEQEND
0
POLYLINE
8
CUT
66
1
70
0
0
VERTEX
8
CUT
10
79.5
20
66.2706
0
VERTEX
8
CUT
10
80.7
20
65.9386
0
VERTEX
8
CUT
10
81.9
20
65.9538
0
VERTEX
8
CUT
10
83.1
20
66.3112
0
VERTEX
8
CUT
10
84.3
20
66.8938
0
VERTEX
8
CUT
10
85.5
20
67.5112
0
VERTEX
8
CUT
10
86.7
20
67.9614
0
VERTEX
8
CUT
10
87.9
20
68.0971
0
VERTEX
8
CUT
10
89.1
20
67.874
0
VERTEX
8
CUT
10
90.3
20
67.3651
0
VERTEX
8
CUT
10
91.5
20
66.7368
0
VERTEX
8
CUT
10
92.7
20
66.1945
0
VERTEX
8
CUT
10
93.9
20
65.9157
0
VERTEX
8
CUT
10
95.1
20
65.9915
0
VERTEX
8
CUT
10
96.3
20
66.3972
0
VERTEX
8
CUT
10
97.5
20
67
0
VERTEX
8
CUT
10
98.7
20
67.6028
0
VERTEX
8
CUT
10
99.9
20
68.0085
0
VERTEX
8
CUT
10
101.1
20
68.0843
0
VERTEX
8
CUT
10
102.3
20
67.8055
0
VERTEX
8
CUT
10
103.5
20
67.2632
0
VERTEX
8
CUT
10
104.7
20
66.6349
0
VERTEX
8
CUT
10
105.9
20
66.126
0
VERTEX
8
CUT
10
107.1
20
65.9029
0
VERTEX
8
CUT
10
108.3
20
66.0386
0
VERTEX
8
CUT
10
109.5
20
66.4888
0
SEQEND
0
POLYLINE
8
CUT
66
1
70
0
0
VERTEX
8
CUT
10
111
20
67.2632
0
VERTEX
8
CUT
10
112.2
20
67.8055
0
VERTEX
8
CUT
10
113.4
20
68.0843
0
VERTEX
8
CUT
10
114.6
20
68.0085
0
VERTEX
8
CUT
10
115.8
20
67.6028
0
VERTEX
8
CUT
10
117
20
67
0
VERTEX
8
CUT
10
118.2
20
66.3972
0
VERTEX
8
CUT
10
119.4
20
65.9915
0
VERTEX
8
CUT
10
120
20
65.9536
0
SEQEND
0
POLYLINE
8
CUT
66
1
70
0
0
VERTEX
8
CUT
10
0.75
20
62.6099
0
VERTEX
8
CUT
10
1.95
20
62.1101
0
VERTEX
8
CUT
10
3.15
20
61.9013
0
VERTEX
8
CUT
10
4.35
20
62.0518
0
VERTEX
8
CUT
10
5.55
20
62.5125
0
VERTEX
8
CUT
10
6.75
20
63.1326
0
VERTEX
8
CUT
10
7.95
20
63.7093
0
VERTEX
8
CUT
10
9.15
20
64.0541
0
VERTEX
8
CUT
10
10.35
20
64.0541
0
VERTEX
8
CUT
10
11.55
20
63.7093
0
VERTEX
8
CUT
10
12.75
20
63.1326
0
VERTEX
8
CUT
10
13.95
20
62.5125
0
VERTEX
8
CUT
10
15.15
20
62.0518
0
VERTEX
8
CUT
10
16.35
20
61.9013
0
VERTEX
8
CUT
10
17.55
20
62.1101
0
VERTEX
8
CUT
10
18.75
20
62.6099
0
VERTEX
8
CUT
10
19.95
20
63.2374
0
VERTEX
8
CUT
10
21.15
20
63.7872
0
VERTEX
8
CUT
10
22.35
20
64.0795
0
VERTEX
8
CUT
10
23.55
20
64.0188
0
VERTEX
8
CUT
10
24.75
20
63.6249
0
VERTEX
8
CUT
10
25.95
20
63.0266
0
VERTEX
8
CUT
10
27.15
20
62.4196
0
VERTEX
8
CUT
10
28.35
20
62.0024
0
VERTEX
8
CUT
10
29.55
20
61.9115
0
VERTEX
8
CUT
10
30.75
20
62.1766
0
SEQEND
0
POLYLINE
8
CUT
66
1
70
0
0
VERTEX
8
CUT
10
32.25
20
62.8674
0
VERTEX
8
CUT
10
33.45
20
63.4875
0
VERTEX
8
CUT
10
34.65
20
63.9482
0
VERTEX
8
CUT
10
35.85
20
64.0987
0
VERTEX
8
CUT
10
37.05
20
63.8899
0
VERTEX
8
CUT
10
38.25
20
63.3901
0
VERTEX
8
CUT
10
39.45
20
62.7626
0
VERTEX
8
CUT
10
40.65
20
62.2128
0
VERTEX
8
CUT
10
41.85
20
61.9205
0
VERTEX
8
CUT
10
43.05
20
61.9812
0
VERTEX
8
CUT
10
44.25
20
62.3751
0
VERTEX
8
CUT
10
45.45
20
62.9734
0
VERTEX
8
CUT
10
46.65
20
63.5804
0
VERTEX
8
CUT
10
47.85
20
63.9976
0
VERTEX
8
CUT
10
49.05
20
64.0885
0
VERTEX
8
CUT
10
50.25
20
63.8234
0
VERTEX
8
CUT
10
51.45
20
63.289
0
VERTEX
8
CUT
10
52.65
20
62.6601
0
VERTEX
8
CUT
10
53.85
20
62.1424
0
VERTEX
8
CUT
10
55.05
20
61.9051
0
VERTEX
8
CUT
10
56.25
20
62.026
0
VERTEX
8
CUT
10
57.45
20
62.4654
0
VERTEX
8
CUT
10
58.65
20
63.0797
0
VERTEX
8
CUT
10
59.85
20
63.6679
0
VERTEX
8
CUT
10
61.05
20
64.0376
0
VERTEX
8
CUT
10
62.25
20
64.068
0
SEQEND
0
POLYLINE
8
CUT
66
1
70
0
0
VERTEX
8
CUT
10
63.75
20
63.6249
0
VERTEX
8
CUT
10
64.95
20
63.0266
0
VERTEX
8
CUT
10
66.15
20
62.4196
0
VERTEX
8
CUT
10
67.35
20
62.0024
0
VERTEX
8
CUT
10
68.55
20
61.9115
0
VERTEX
8
CUT
10
69.75
20
62.1766
0
VERTEX
8
CUT
10
70.95
20
62.711
0
VERTEX
8
CUT
10
72.15
20
63.3399
0
VERTEX
8
CUT
10
73.35
20
63.8576
0
VERTEX
8
CUT
10
74.55
20
64.0949
0
VERTEX
8
CUT
10
75.75
20
63.974
0
VERTEX
8
CUT
10
76.95
20
63.5346
0
VERTEX
8
CUT
10
78.15
20
62.9203
0
VERTEX
8
CUT
10
79.35
20
62.3321
0
VERTEX
8
CUT
10
80.55
20
61.9624
0
VERTEX
8
CUT
10
81.75
20
61.932
0
VERTEX
8
CUT
10
82.95
20
62.2509
0
VERTEX
8
CUT
10
84.15
20
62.8148
0
VERTEX
8
CUT
10
85.35
20
63.4393
0
VERTEX
8
CUT
10
86.55
20
63.9201
0
VERTEX
8
CUT
10
87.75
20
64.1
0
VERTEX
8
CUT
10
88.95
20
63.9201
0
VERTEX
8
CUT
10
90.15
20
63.4393
0
VERTEX
8
CUT
10
91.35
20
62.8148
0
VERTEX
8
CUT
10
92.55
20
62.2509
0
VERTEX
8
CUT
10
93.75
20
61.932
0
SEQEND
0
POLYLINE
8
CUT
66
1
70
0
0
VERTEX
8
CUT
10
95.25
20
62.026
0
VERTEX
8
CUT
10
96.45
20
62.4654
0
VERTEX
8
CUT
10
97.65
20
63.0797
0
VERTEX
8
CUT
10
98.85
20
63.6679
0
VERTEX
8
CUT
10
100.05
20
64.0376
0
VERTEX
8
CUT
10
101.25
20
64.068
0
VERTEX
8
CUT
10
102.45
20
63.7491
0
VERTEX
8
CUT
10
103.65
20
63.1852
0
VERTEX
8
CUT
10
104.85
20
62.5607
0
VERTEX
8
CUT
10
106.05
20
62.0799
0
VERTEX
8
CUT
10
107.25
20
61.9
0
VERTEX
8
CUT
10
108.45
20
62.0799
0
VERTEX
8
CUT
10
109.65
20
62.5607
0
VERTEX
8
CUT
10
110.85
20
63.1852
0
VERTEX
8
CUT
10
112.05
20
63.7491
0
VERTEX
8
CUT
10
113.25
20
64.068
0
VERTEX
8
CUT
10
114.45
20
64.0376
0
VERTEX
8
CUT
10
115.65
20
63.6679
0
VERTEX
8
CUT
10
116.85
20
63.0797
0
VERTEX
8
CUT
10
118.05
20
62.4654
0
VERTEX
8
CUT
10
119.25
20
62.026
0
VERTEX
8
CUT
10
120
20
61.9505
0
SEQEND
0
POLYLINE
8
CUT
66
1
70
0
0
VERTEX
8
CUT
10
0
20
59
0
VERTEX
8
CUT
10
0.6
20
58.6855
0
VERTEX
8
CUT
10
1.8
20
58.1593
0
VERTEX
8
CUT
10
3
20
57.908
0
VERTEX
8
CUT
10
4.2
20
58.0139
0
VERTEX
8
CUT
10
5.4
20
58.4423
0
VERTEX
8
CUT
10
6.6
20
59.0531
0
VERTEX
8
CUT
10
7.8
20
59.6466
0
VERTEX
8
CUT
10
9
20
60.0285
0
VERTEX
8
CUT
10
10.2
20
60.0741
0
VERTEX
8
CUT
10
11.4
20
59.7684
0
VERTEX
8
CUT
10
12.6
20
59.2113
0
VERTEX
8
CUT
10
13.8
20
58.5852
0
VERTEX
8
CUT
10
15
20
58.0947
0
SEQEND
0
POLYLINE
8
CUT
66
1
70
0
0
VERTEX
8
CUT
10
16.5
20
57.908
0
VERTEX
8
CUT
10
17.7
20
58.1593
0
VERTEX
8
CUT
10
18.9
20
58.6855
0
VERTEX
8
CUT
10
20.1
20
59.3145
0
VERTEX
8
CUT
10
21.3
20
59.8407
0
VERTEX
8
CUT
10
22.5
20
60.092
0
VERTEX
8
CUT
10
23.7
20
59.9861
0
VERTEX
8
CUT
10
24.9
20
59.5577
0
VERTEX
8
CUT
10
26.1
20
58.9469
0
VERTEX
8
CUT
10
27.3
20
58.3534
0
VERTEX
8
CUT
10
28.5
20
57.9715
0
VERTEX
8
CUT
10
29.7
20
57.9259
0
VERTEX
8
CUT
10
30.9
20
58.2316
0
VERTEX
8
CUT
10
32.1
20
58.7887
0
VERTEX
8
CUT
10
33.3
20
59.4148
0
VERTEX
8
CUT
10
34.5
20
59.9053
0
VERTEX
8
CUT
10
35.7
20
60.0997
0
VERTEX
8
CUT
10
36.9
20
59.9344
0
VERTEX
8
CUT
10
38.1
20
59.4635
0
VERTEX
8
CUT
10
39.3
20
58.8411
0
VERTEX
8
CUT
10
40.5
20
58.2706
0
VERTEX
8
CUT
10
41.7
20
57.9386
0
VERTEX
8
CUT
10
42.9
20
57.9538
0
VERTEX
8
CUT
10
44.1
20
58.3112
0
VERTEX
8
CUT
10
45.3
20
58.8938
0
VERTEX
8
CUT
10
46.5
20
59.5112
0
SEQEND
0
POLYLINE
8
CUT
66
1
70
0
0
VERTEX
8
CUT
10
48
20
60.0285
0
VERTEX
8
CUT
10
49.2
20
60.0741
0
VERTEX
8
CUT
10
50.4
20
59.7684
0
VERTEX
8
CUT
10
51.6
20
59.2113
0
VERTEX
8
CUT
10
52.8
20
58.5852
0
VERTEX
8
CUT
10
54
20
58.0947
0
VERTEX
8
CUT
10
55.2
20
57.9003
0
VERTEX
8
CUT
10
56.4
20
58.0656
0
VERTEX
8
CUT
10
57.6
20
58.5365
0
VERTEX
8
CUT
10
58.8
20
59.1589
0
VERTEX
8
CUT
10
60
20
59.7294
0
VERTEX
8
CUT
10
61.2
20
60.0614
0
VERTEX
8
CUT
10
62.4
20
60.0462
0
VERTEX
8
CUT
10
63.6
20
59.6888
0
VERTEX
8
CUT
10
64.8
20
59.1062
0
VERTEX
8
CUT
10
66
20
58.4888
0
VERTEX
8
CUT
10
67.2
20
58.0386
0
VERTEX
8
CUT
10
68.4
20
57.9029
0
VERTEX
8
CUT
10
69.6
20
58.126
0
VERTEX
8
CUT
10
70.8
20
58.6349
0
VERTEX
8
CUT
10
72
20
59.2632
0
VERTEX
8
CUT
10
73.2
20
59.8055
0
VERTEX
8
CUT
10
74.4
20
60.0843
0
VERTEX
8
CUT
10
75.6
20
60.0085
0
VERTEX
8
CUT
10
76.8
20
59.6028
0
VERTEX
8
CUT
10
78
20
59
0
SEQEND
0
POLYLINE
8
CUT
66
1
70
0
0
VERTEX
8
CUT
10
79.5
20
58.2706
0
VERTEX
8
CUT
10
80.7
20
57.9386
0
VERTEX
8
CUT
10
81.9
20
57.9538
0
VERTEX
8
CUT
10
83.1
20
58.3112
0
VERTEX
8
CUT
10
84.3
20
58.8938
0
VERTEX
8
CUT
10
85.5
20
59.5112
0
VERTEX
8
CUT
10
86.7
20
59.9614
0
VERTEX
8
CUT
10
87.9
20
60.0971
0
VERTEX
8
CUT
10
89.1
20
59.874
0
VERTEX
8
CUT
10
90.3
20
59.3651
0
VERTEX
8
CUT
10
91.5
20
58.7368
0
VERTEX
8
CUT
10
92.7
20
58.1945
0
VERTEX
8
CUT
10
93.9
20
57.9157
0
VERTEX
8
CUT
10
95.1
20
57.9915
0
VERTEX
8
CUT
10
96.3
20
58.3972
0
VERTEX
8
CUT
10
97.5
20
59
0
VERTEX
8
CUT
10
98.7
20
59.6028
0
VERTEX
8
CUT
10
99.9
20
60.0085
0
VERTEX
8
CUT
10
101.1
20
60.0843
0
VERTEX
8
CUT
10
102.3
20
59.8055
0
VERTEX
8
CUT
10
103.5
20
59.2632
0
VERTEX
8
CUT
10
104.7
20
58.6349
0
VERTEX
8
CUT
10
105.9
20
58.126
0
VERTEX
8
CUT
10
107.1
20
57.9029
0
VERTEX
8
CUT
10
108.3
20
58.0386
0
VERTEX
8
CUT
10
109.5
20
58.4888
0
SEQEND
0
POLYLINE
8
CUT
66
1
70
0
0
VERTEX
8
CUT
10
111
20
59.2632
0
VERTEX
8
CUT
10
112.2
20
59.8055
0
VERTEX
8
CUT
10
113.4
20
60.0843
0
VERTEX
8
CUT
10
114.6
20
60.0085
0
VERTEX
8
CUT
10
115.8
20
59.6028
0
VERTEX
8
CUT
10
117
20
59
0
VERTEX
8
CUT
10
118.2
20
58.3972
0
VERTEX
8
CUT
10
119.4
20
57.9915
0
VERTEX
8
CUT
10
120
20
57.9536
0
SEQEND
0
POLYLINE
8
CUT
66
1
70
0
0
VERTEX
8
CUT
10
0.75
20
54.6099
0
VERTEX
8
CUT
10
1.95
20
54.1101
0
VERTEX
8
CUT
10
3.15
20
53.9013
0
VERTEX
8
CUT
10
4.35
20
54.0518
0
VERTEX
8
CUT
10
5.55
20
54.5125
0
VERTEX
8
CUT
10
6.75
20
55.1326
0
VERTEX
8
CUT
10
7.95
20
55.7093
0
VERTEX
8
CUT
10
9.15
20
56.0541
0
VERTEX
8
CUT
10
10.35
20
56.0541
0
VERTEX
8
CUT
10
11.55
20
55.7093
0
VERTEX
8
CUT
10
12.75
20
55.1326
0
VERTEX
8
CUT
10
13.95
20
54.5125
0
VERTEX
8
CUT
10
15.15
20
54.0518
0
VERTEX
8
CUT
10
16.35
20
53.9013
0
VERTEX
8
CUT
10
17.55
20
54.1101
0
VERTEX
8
CUT
10
18.75
20
54.6099
0
VERTEX
8
CUT
10
19.95
20
55.2374
0
VERTEX
8
CUT
10
21.15
20
55.7872
0
VERTEX
8
CUT
10
22.35
20
56.0795
0
VERTEX
8
CUT
10
23.55
20
56.0188
0
VERTEX
8
CUT
10
24.75
20
55.6249
0
VERTEX
8
CUT
10
25.95
20
55.0266
0
VERTEX
8
CUT
10
27.15
20
54.4196
0
VERTEX
8
CUT
10
28.35
20
54.0024
0
VERTEX
8
CUT
10
29.55
20
53.9115
0
VERTEX
8
CUT
10
30.75
20
54.1766
0
SEQEND
0
POLYLINE
8
CUT
66
1
70
0
0
VERTEX
8
CUT
10
32.25
20
54.8674
0
VERTEX
8
CUT
10
33.45
20
55.4875
0
VERTEX
8
CUT
10
34.65
20
55.9482
0
VERTEX
8
CUT
10
35.85
20
56.0987
0
VERTEX
8
CUT
10
37.05
20
55.8899
0
VERTEX
8
CUT
10
38.25
20
55.3901
0
VERTEX
8
CUT
10
39.45
20
54.7626
0
VERTEX
8
CUT
10
40.65
20
54.2128
0
VERTEX
8
CUT
10
41.85
20
53.9205
0
VERTEX
8
CUT
10
43.05
20
53.9812
0
VERTEX
8
CUT
10
44.25
20
54.3751
0
VERTEX
8
CUT
10
45.45
20
54.9734
0
VERTEX
8
CUT
10
46.65
20
55.5804
0
VERTEX
8
CUT
10
47.85
20
55.9976
0
VERTEX
8
CUT
10
49.05
20
56.0885
0
VERTEX
8
CUT
10
50.25
20
55.8234
0
VERTEX
8
CUT
10
51.45
20
55.289
0
VERTEX
8
CUT
10
52.65
20
54.6601
0
VERTEX
8
CUT
10
53.85
20
54.1424
0
VERTEX
8
CUT
10
55.05
20
53.9051
0
VERTEX
8
CUT
10
56.25
20
54.026
0
VERTEX
8
CUT
10
57.45
20
54.4654
0
VERTEX
8
CUT
10
58.65
20
55.0797
0
VERTEX
8
CUT
10
59.85
20
55.6679
0
VERTEX
8
CUT
10
61.05
20
56.0376
0
VERTEX
8
CUT
10
62.25
20
56.068
0
SEQEND
0
POLYLINE
8
CUT
66
1
70
0
0
VERTEX
8
CUT
10
63.75
20
55.6249
0
VERTEX
8
CUT
10
64.95
20
55.0266
0
VERTEX
8
CUT
10
66.15
20
54.4196
0
VERTEX
8
CUT
10
67.35
20
54.0024
0
VERTEX
8
CUT
10
68.55
20
53.9115
0
VERTEX
8
CUT
10
69.75
20
54.1766
0
VERTEX
8
CUT
10
70.95
20
54.711
0
VERTEX
8
CUT
10
72.15
20
55.3399
0
VERTEX
8
CUT
10
73.35
20
55.8576
0
VERTEX
8
CUT
10
74.55
20
56.0949
0
VERTEX
8
CUT
10
75.75
20
55.974
0
VERTEX
8
CUT
10
76.95
20
55.5346
0
VERTEX
8
CUT
10
78.15
20
54.9203
0
VERTEX
8
CUT
10
79.35
20
54.3321
0
VERTEX
8
CUT
10
80.55
20
53.9624
0
VERTEX
8
CUT
10
81.75
20
53.932
0
VERTEX
8
CUT
10
82.95
20
54.2509
0
VERTEX
8
CUT
10
84.15
20
54.8148
0
VERTEX
8
CUT
10
85.35
20
55.4393
0
VERTEX
8
CUT
10
86.55
20
55.9201
0
VERTEX
8
CUT
10
87.75
20
56.1
0
VERTEX
8
CUT
10
88.95
20
55.9201
0
VERTEX
8
CUT
10
90.15
20
55.4393
0
VERTEX
8
CUT
10
91.35
20
54.8148
0
VERTEX
8
CUT
10
92.55
20
54.2509
0
VERTEX
8
CUT
10
93.75
20
53.932
0
SEQEND
0
POLYLINE
8
CUT
66
1
70
0
0
VERTEX
8
CUT
10
95.25
20
54.026
0
VERTEX
8
CUT
10
96.45
20
54.4654
0
VERTEX
8
CUT
10
97.65
20
55.0797
0
VERTEX
8
CUT
10
98.85
20
55.6679
0
VERTEX
8
CUT
10
100.05
20
56.0376
0
VERTEX
8
CUT
10
101.25
20
56.068
0
VERTEX
8
CUT
10
102.45
20
55.7491
0
VERTEX
8
CUT
10
103.65
20
55.1852
0
VERTEX
8
CUT
10
104.85
20
54.5607
0
VERTEX
8
CUT
10
106.05
20
54.0799
0
VERTEX
8
CUT
10
107.25
20
53.9
0
VERTEX
8
CUT
10
108.45
20
54.0799
0
VERTEX
8
CUT
10
109.65
20
54.5607
0
VERTEX
8
CUT
10
110.85
20
55.1852
0
VERTEX
8
CUT
10
112.05
20
55.7491
0
VERTEX
8
CUT
10
113.25
20
56.068
0
VERTEX
8
CUT
10
114.45
20
56.0376
0
VERTEX
8
CUT
10
115.65
20
55.6679
0
VERTEX
8
CUT
10
116.85
20
55.0797
0
VERTEX
8
CUT
10
118.05
20
54.4654
0
VERTEX
8
CUT
10
119.25
20
54.026
0
VERTEX
8
CUT
10
120
20
53.9505
0
SEQEND
0
POLYLINE
8
CUT
66
1
70
0
0
VERTEX
8
CUT
10
0
20
51
0
VERTEX
8
CUT
10
0.6
20
50.6855
0
VERTEX
8
CUT
10
1.8
20
50.1593
0
VERTEX
8
CUT
10
3
20
49.908
0
VERTEX
8
CUT
10
4.2
20
50.0139
0
VERTEX
8
CUT
10
5.4
20
50.4423
0
VERTEX
8
CUT
10
6.6
20
51.0531
0
VERTEX
8
CUT
10
7.8
20
51.6466
0
VERTEX
8
CUT
10
9
20
52.0285
0
VERTEX
8
CUT
10
10.2
20
52.0741
0
VERTEX
8
CUT
10
11.4
20
51.7684
0
VERTEX
8
CUT
10
12.6
20
51.2113
0
VERTEX
8
CUT
10
13.8
20
50.5852
0
VERTEX
8
CUT
10
15
20
50.0947
0
SEQEND
0
POLYLINE
8
CUT
66
1
70
0
0
VERTEX
8
CUT
10
16.5
20
49.908
0
VERTEX
8
CUT
10
17.7
20
50.1593
0
VERTEX
8
CUT
10
18.9
20
50.6855
0
VERTEX
8
CUT
10
20.1
20
51.3145
0
VERTEX
8
CUT
10
21.3
20
51.8407
0
VERTEX
8
CUT
10
22.5
20
52.092
0
VERTEX
8
CUT
10
23.7
20
51.9861
0
VERTEX
8
CUT
10
24.9
20
51.5577
0
VERTEX
8
CUT
10
26.1
20
50.9469
0
VERTEX
8
CUT
10
27.3
20
50.3534
0
VERTEX
8
CUT
10
28.5
20
49.9715
0
VERTEX
8
CUT
10
29.7
20
49.9259
0
VERTEX
8
CUT
10
30.9
20
50.2316
0
VERTEX
8
CUT
10
32.1
20
50.7887
0
VERTEX
8
CUT
10
33.3
20
51.4148
0
VERTEX
8
CUT
10
34.5
20
51.9053
0
VERTEX
8
CUT
10
35.7
20
52.0997
0
VERTEX
8
CUT
10
36.9
20
51.9344
0
VERTEX
8
CUT
10
38.1
20
51.4635
0
VERTEX
8
CUT
10
39.3
20
50.8411
0
VERTEX
8
CUT
10
40.5
20
50.2706
0
VERTEX
8
CUT
10
41.7
20
49.9386
0
VERTEX
8
CUT
10
42.9
20
49.9538
0
VERTEX
8
CUT
10
44.1
20
50.3112
0
VERTEX
8
CUT
10
45.3
20
50.8938
0
VERTEX
8
CUT
10
46.5
20
51.5112
0
SEQEND
0
POLYLINE
8
CUT
66
1
70
0
0
VERTEX
8
CUT
10
48
20
52.0285
0
VERTEX
8
CUT
10
49.2
20
52.0741
0
VERTEX
8
CUT
10
50.4
20
51.7684
0
VERTEX
8
CUT
10
51.6
20
51.2113
0
VERTEX
8
CUT
10
52.8
20
50.5852
0
VERTEX
8
CUT
10
54
20
50.0947
0
VERTEX
8
CUT
10
55.2
20
49.9003
0
VERTEX
8
CUT
10
56.4
20
50.0656
0
VERTEX
8
CUT
10
57.6
20
50.5365
0
VERTEX
8
CUT
10
58.8
20
51.1589
0
VERTEX
8
CUT
10
60
20
51.7294
0
VERTEX
8
CUT
10
61.2
20
52.0614
0
VERTEX
8
CUT
10
62.4
20
52.0462
0
VERTEX
8
CUT
10
63.6
20
51.6888
0
VERTEX
8
CUT
10
64.8
20
51.1062
0
VERTEX
8
CUT
10
66
20
50.4888
0
VERTEX
8
CUT
10
67.2
20
50.0386
0
VERTEX
8
CUT
10
68.4
20
49.9029
0
VERTEX
8
CUT
10
69.6
20
50.126
0
VERTEX
8
CUT
10
70.8
20
50.6349
0
VERTEX
8
CUT
10
72
20
51.2632
0
VERTEX
8
CUT
10
73.2
20
51.8055
0
VERTEX
8
CUT
10
74.4
20
52.0843
0
VERTEX
8
CUT
10
75.6
20
52.0085
0
VERTEX
8
CUT
10
76.8
20
51.6028
0
VERTEX
8
CUT
10
78
20
51
0
SEQEND
0
POLYLINE
8
CUT
66
1
70
0
0
VERTEX
8
CUT
10
79.5
20
50.2706
0
VERTEX
8
CUT
10
80.7
20
49.9386
0
VERTEX
8
CUT
10
81.9
20
49.9538
0
VERTEX
8
CUT
10
83.1
20
50.3112
0
VERTEX
8
CUT
10
84.3
20
50.8938
0
VERTEX
8
CUT
10
85.5
20
51.5112
0
VERTEX
8
CUT
10
86.7
20
51.9614
0
VERTEX
8
CUT
10
87.9
20
52.0971
0
VERTEX
8
CUT
10
89.1
20
51.874
0
VERTEX
8
CUT
10
90.3
20
51.3651
0
VERTEX
8
CUT
10
91.5
20
50.7368
0
VERTEX
8
CUT
10
92.7
20
50.1945
0
VERTEX
8
CUT
10
93.9
20
49.9157
0
VERTEX
8
CUT
10
95.1
20
49.9915
0
VERTEX
8
CUT
10
96.3
20
50.3972
0
VERTEX
8
CUT
10
97.5
20
51
0
VERTEX
8
CUT
10
98.7
20
51.6028
0
VERTEX
8
CUT
10
99.9
20
52.0085
0
VERTEX
8
CUT
10
101.1
20
52.0843
0
VERTEX
8
CUT
10
102.3
20
51.8055
0
VERTEX
8
CUT
10
103.5
20
51.2632
0
VERTEX
8
CUT
10
104.7
20
50.6349
0
VERTEX
8
CUT
10
105.9
20
50.126
0
VERTEX
8
CUT
10
107.1
20
49.9029
0
VERTEX
8
CUT
10
108.3
20
50.0386
0
VERTEX
8
CUT
10
109.5
20
50.4888
0
SEQEND
0
POLYLINE
8
CUT
66
1
70
0
0
VERTEX
8
CUT
10
111
20
51.2632
0
VERTEX
8
CUT
10
112.2
20
51.8055
0
VERTEX
8
CUT
10
113.4
20
52.0843
0
VERTEX
8
CUT
10
114.6
20
52.0085
0
VERTEX
8
CUT
10
115.8
20
51.6028
0
VERTEX
8
CUT
10
117
20
51
0
VERTEX
8
CUT
10
118.2
20
50.3972
0
VERTEX
8
CUT
10
119.4
20
49.9915
0
VERTEX
8
CUT
10
120
20
49.9536
0
SEQEND
0
POLYLINE
8
CUT
66
1
70
0
0
VERTEX
8
CUT
10
0.75
20
46.6099
0
VERTEX
8
CUT
10
1.95
20
46.1101
0
VERTEX
8
CUT
10
3.15
20
45.9013
0
VERTEX
8
CUT
10
4.35
20
46.0518
0
VERTEX
8
CUT
10
5.55
20
46.5125
0
VERTEX
8
CUT
10
6.75
20
47.1326
0
VERTEX
8
CUT
10
7.95
20
47.7093
0
VERTEX
8
CUT
10
9.15
20
48.0541
0
VERTEX
8
CUT
10
10.35
20
48.0541
0
VERTEX
8
CUT
10
11.55
20
47.7093
0
VERTEX
8
CUT
10
12.75
20
47.1326
0
VERTEX
8
CUT
10
13.95
20
46.5125
0
VERTEX
8
CUT
10
15.15
20
46.0518
0
VERTEX
8
CUT
10
16.35
20
45.9013
0
VERTEX
8
CUT
10
17.55
20
46.1101
0
VERTEX
8
CUT
10
18.75
20
46.6099
0
VERTEX
8
CUT
10
19.95
20
47.2374
0
VERTEX
8
CUT
10
21.15
20
47.7872
0
VERTEX
8
CUT
10
22.35
20
48.0795
0
VERTEX
8
CUT
10
23.55
20
48.0188
0
VERTEX
8
CUT
10
24.75
20
47.6249
0
VERTEX
8
CUT
10
25.95
20
47.0266
0
VERTEX
8
CUT
10
27.15
20
46.4196
0
VERTEX
8
CUT
10
28.35
20
46.0024
0
VERTEX
8
CUT
10
29.55
20
45.9115
0
VERTEX
8
CUT
10
30.75
20
46.1766
0
SEQEND
0
POLYLINE
8
CUT
66
1
70
0
0
VERTEX
8
CUT
10
32.25
20
46.8674
0
VERTEX
8
CUT
10
33.45
20
47.4875
0
VERTEX
8
CUT
10
34.65
20
47.9482
0
VERTEX
8
CUT
10
35.85
20
48.0987
0
VERTEX
8
CUT
10
37.05
20
47.8899
0
VERTEX
8
CUT
10
38.25
20
47.3901
0
VERTEX
8
CUT
10
39.45
20
46.7626
0
VERTEX
8
CUT
10
40.65
20
46.2128
0
VERTEX
8
CUT
10
41.85
20
45.9205
0
VERTEX
8
CUT
10
43.05
20
45.9812
0
VERTEX
8
CUT
10
44.25
20
46.3751
0
VERTEX
8
CUT
10
45.45
20
46.9734
0
VERTEX
8
CUT
10
46.65
20
47.5804
0
VERTEX
8
CUT
10
47.85
20
47.9976
0
VERTEX
8
CUT
10
49.05
20
48.0885
0
VERTEX
8
CUT
10
50.25
20
47.8234
0
VERTEX
8
CUT
10
51.45
20
47.289
0
VERTEX
8
CUT
10
52.65
20
46.6601
0
VERTEX
8
CUT
10
53.85
20
46.1424
0
VERTEX
8
CUT
10
55.05
20
45.9051
0
VERTEX
8
CUT
10
56.25
20
46.026
0
VERTEX
8
CUT
10
57.45
20
46.4654
0
VERTEX
8
CUT
10
58.65
20
47.0797
0
VERTEX
8
CUT
10
59.85
20
47.6679
0
VERTEX
8
CUT
10
61.05
20
48.0376
0
VERTEX
8
CUT
10
62.25
20
48.068
0
SEQEND
0
POLYLINE
8
CUT
66
1
70
0
0
VERTEX
8
CUT
10
63.75
20
47.6249
0
VERTEX
8
CUT
10
64.95
20
47.0266
0
VERTEX
8
CUT
10
66.15
20
46.4196
0
VERTEX
8
CUT
10
67.35
20
46.0024
0
VERTEX
8
CUT
10
68.55
20
45.9115
0
VERTEX
8
CUT
10
69.75
20
46.1766
0
VERTEX
8
CUT
10
70.95
20
46.711
0
VERTEX
8
CUT
10
72.15
20
47.3399
0
VERTEX
8
CUT
10
73.35
20
47.8576
0
VERTEX
8
CUT
10
74.55
20
48.0949
0
VERTEX
8
CUT
10
75.75
20
47.974
0
VERTEX
8
CUT
10
76.95
20
47.5346
0
VERTEX
8
CUT
10
78.15
20
46.9203
0
VERTEX
8
CUT
10
79.35
20
46.3321
0
VERTEX
8
CUT
10
80.55
20
45.9624
0
VERTEX
8
CUT
10
81.75
20
45.932
0
VERTEX
8
CUT
10
82.95
20
46.2509
0
VERTEX
8
CUT
10
84.15
20
46.8148
0
VERTEX
8
CUT
10
85.35
20
47.4393
0
VERTEX
8
CUT
10
86.55
20
47.9201
0
VERTEX
8
CUT
10
87.75
20
48.1
0
VERTEX
8
CUT
10
88.95
20
47.9201
0
VERTEX
8
CUT
10
90.15
20
47.4393
0
VERTEX
8
CUT
10
91.35
20
46.8148
0
VERTEX
8
CUT
10
92.55
20
46.2509
0
VERTEX
8
CUT
10
93.75
20
45.932
0
SEQEND
0
POLYLINE
8
CUT
66
1
70
0
0
VERTEX
8
CUT
10
95.25
20
46.026
0
VERTEX
8
CUT
10
96.45
20
46.4654
0
VERTEX
8
CUT
10
97.65
20
47.0797
0
VERTEX
8
CUT
10
98.85
20
47.6679
0
VERTEX
8
CUT
10
100.05
20
48.0376
0
VERTEX
8
CUT
10
101.25
20
48.068
0
VERTEX
8
CUT
10
102.45
20
47.7491
0
VERTEX
8
CUT
10
103.65
20
47.1852
0
VERTEX
8
CUT
10
104.85
20
46.5607
0
VERTEX
8
CUT
10
106.05
20
46.0799
0
VERTEX
8
CUT
10
107.25
20
45.9
0
VERTEX
8
CUT
10
108.45
20
46.0799
0
VERTEX
8
CUT
10
109.65
20
46.5607
0
VERTEX
8
CUT
10
110.85
20
47.1852
0
VERTEX
8
CUT
10
112.05
20
47.7491
0
VERTEX
8
CUT
10
113.25
20
48.068
0
VERTEX
8
CUT
10
114.45
20
48.0376
0
VERTEX
8
CUT
10
115.65
20
47.6679
0
VERTEX
8
CUT
10
116.85
20
47.0797
0
VERTEX
8
CUT
10
118.05
20
46.4654
0
VERTEX
8
CUT
10
119.25
20
46.026
0
VERTEX
8
CUT
10
120
20
45.9505
0
SEQEND
0
POLYLINE
8
CUT
66
1
70
0
0
VERTEX
8
CUT
10
0
20
43
0
VERTEX
8
CUT
10
0.6
20
42.6855
0
VERTEX
8
CUT
10
1.8
20
42.1593
0
VERTEX
8
CUT
10
3
20
41.908
0
VERTEX
8
CUT
10
4.2
20
42.0139
0
VERTEX
8
CUT
10
5.4
20
42.4423
0
VERTEX
8
CUT
10
6.6
20
43.0531
0
VERTEX
8
CUT
10
7.8
20
43.6466
0
VERTEX
8
CUT
10
9
20
44.0285
0
VERTEX
8
CUT
10
10.2
20
44.0741
0
VERTEX
8
CUT
10
11.4
20
43.7684
0
VERTEX
8
CUT
10
12.6
20
43.2113
0
VERTEX
8
CUT
10
13.8
20
42.5852
0
VERTEX
8
CUT
10
15
20
42.0947
0
SEQEND
0
POLYLINE
8
CUT
66
1
70
0
0
VERTEX
8
CUT
10
16.5
20
41.908
0
VERTEX
8
CUT
10
17.7
20
42.1593
0
VERTEX
8
CUT
10
18.9
20
42.6855
0
VERTEX
8
CUT
10
20.1
20
43.3145
0
VERTEX
8
CUT
10
21.3
20
43.8407
0
VERTEX
8
CUT
10
22.5
20
44.092
0
VERTEX
8
CUT
10
23.7
20
43.9861
0
VERTEX
8
CUT
10
24.9
20
43.5577
0
VERTEX
8
CUT
10
26.1
20
42.9469
0
VERTEX
8
CUT
10
27.3
20
42.3534
0
VERTEX
8
CUT
10
28.5
20
41.9715
0
VERTEX
8
CUT
10
29.7
20
41.9259
0
VERTEX
8
CUT
10
30.9
20
42.2316
0
VERTEX
8
CUT
10
32.1
20
42.7887
0
VERTEX
8
CUT
10
33.3
20
43.4148
0
VERTEX
8
CUT
10
34.5
20
43.9053
0
VERTEX
8
CUT
10
35.7
20
44.0997
0
VERTEX
8
CUT
10
36.9
20
43.9344
0
VERTEX
8
CUT
10
38.1
20
43.4635
0
VERTEX
8
CUT
10
39.3
20
42.8411
0
VERTEX
8
CUT
10
40.5
20
42.2706
0
VERTEX
8
CUT
10
41.7
20
41.9386
0
VERTEX
8
CUT
10
42.9
20
41.9538
0
VERTEX
8
CUT
10
44.1
20
42.3112
0
VERTEX
8
CUT
10
45.3
20
42.8938
0
VERTEX
8
CUT
10
46.5
20
43.5112
0
SEQEND
0
POLYLINE
8
CUT
66
1
70
0
0
VERTEX
8
CUT
10
48
20
44.0285
0
VERTEX
8
CUT
10
49.2
20
44.0741
0
VERTEX
8
CUT
10
50.4
20
43.7684
0
VERTEX
8
CUT
10
51.6
20
43.2113
0
VERTEX
8
CUT
10
52.8
20
42.5852
0
VERTEX
8
CUT
10
54
20
42.0947
0
VERTEX
8
CUT
10
55.2
20
41.9003
0
VERTEX
8
CUT
10
56.4
20
42.0656
0
VERTEX
8
CUT
10
57.6
20
42.5365
0
VERTEX
8
CUT
10
58.8
20
43.1589
0
VERTEX
8
CUT
10
60
20
43.7294
0
VERTEX
8
CUT
10
61.2
20
44.0614
0
VERTEX
8
CUT
10
62.4
20
44.0462
0
VERTEX
8
CUT
10
63.6
20
43.6888
0
VERTEX
8
CUT
10
64.8
20
43.1062
0
VERTEX
8
CUT
10
66
20
42.4888
0
VERTEX
8
CUT
10
67.2
20
42.0386
0
VERTEX
8
CUT
10
68.4
20
41.9029
0
VERTEX
8
CUT
10
69.6
20
42.126
0
VERTEX
8
CUT
10
70.8
20
42.6349
0
VERTEX
8
CUT
10
72
20
43.2632
0
VERTEX
8
CUT
10
73.2
20
43.8055
0
VERTEX
8
CUT
10
74.4
20
44.0843
0
VERTEX
8
CUT
10
75.6
20
44.0085
0
VERTEX
8
CUT
10
76.8
20
43.6028
0
VERTEX
8
CUT
10
78
20
43
0
SEQEND
0
POLYLINE
8
CUT
66
1
70
0
0
VERTEX
8
CUT
10
79.5
20
42.2706
0
VERTEX
8
CUT
10
80.7
20
41.9386
0
VERTEX
8
CUT
10
81.9
20
41.9538
0
VERTEX
8
CUT
10
83.1
20
42.3112
0
VERTEX
8
CUT
10
84.3
20
42.8938
0
VERTEX
8
CUT
10
85.5
20
43.5112
0
VERTEX
8
CUT
10
86.7
20
43.9614
0
VERTEX
8
CUT
10
87.9
20
44.0971
0
VERTEX
8
CUT
10
89.1
20
43.874
0
VERTEX
8
CUT
10
90.3
20
43.3651
0
VERTEX
8
CUT
10
91.5
20
42.7368
0
VERTEX
8
CUT
10
92.7
20
42.1945
0
VERTEX
8
CUT
10
93.9
20
41.9157
0
VERTEX
8
CUT
10
95.1
20
41.9915
0
VERTEX
8
CUT
10
96.3
20
42.3972
0
VERTEX
8
CUT
10
97.5
20
43
0
VERTEX
8
CUT
10
98.7
20
43.6028
0
VERTEX
8
CUT
10
99.9
20
44.0085
0
VERTEX
8
CUT
10
101.1
20
44.0843
0
VERTEX
8
CUT
10
102.3
20
43.8055
0
VERTEX
8
CUT
10
103.5
20
43.2632
0
VERTEX
8
CUT
10
104.7
20
42.6349
0
VERTEX
8
CUT
10
105.9
20
42.126
0
VERTEX
8
CUT
10
107.1
20
41.9029
0
VERTEX
8
CUT
10
108.3
20
42.0386
0
VERTEX
8
CUT
10
109.5
20
42.4888
0
SEQEND
0
POLYLINE
8
CUT
66
1
70
0
0
VERTEX
8
CUT
10
111
20
43.2632
0
VERTEX
8
CUT
10
112.2
20
43.8055
0
VERTEX
8
CUT
10
113.4
20
44.0843
0
VERTEX
8
CUT
10
114.6
20
44.0085
0
VERTEX
8
CUT
10
115.8
20
43.6028
0
VERTEX
8
CUT
10
117
20
43
0
VERTEX
8
CUT
10
118.2
20
42.3972
0
VERTEX
8
CUT
10
119.4
20
41.9915
0
VERTEX
8
CUT
10
120
20
41.9536
0
SEQEND
0
POLYLINE
8
CUT
66
1
70
0
0
VERTEX
8
CUT
10
0.75
20
38.6099
0
VERTEX
8
CUT
10
1.95
20
38.1101
0
VERTEX
8
CUT
10
3.15
20
37.9013
0
VERTEX
8
CUT
10
4.35
20
38.0518
0
VERTEX
8
CUT
10
5.55
20
38.5125
0
VERTEX
8
CUT
10
6.75
20
39.1326
0
VERTEX
8
CUT
10
7.95
20
39.7093
0
VERTEX
8
CUT
10
9.15
20
40.0541
0
VERTEX
8
CUT
10
10.35
20
40.0541
0
VERTEX
8
CUT
10
11.55
20
39.7093
0
VERTEX
8
CUT
10
12.75
20
39.1326
0
VERTEX
8
CUT
10
13.95
20
38.5125
0
VERTEX
8
CUT
10
15.15
20
38.0518
0
VERTEX
8
CUT
10
16.35
20
37.9013
0
VERTEX
8
CUT
10
17.55
20
38.1101
0
VERTEX
8
CUT
10
18.75
20
38.6099
0
VERTEX
8
CUT
10
19.95
20
39.2374
0
VERTEX
8
CUT
10
21.15
20
39.7872
0
VERTEX
8
CUT
10
22.35
20
40.0795
0
VERTEX
8
CUT
10
23.55
20
40.0188
0
VERTEX
8
CUT
10
24.75
20
39.6249
0
VERTEX
8
CUT
10
25.95
20
39.0266
0
VERTEX
8
CUT
10
27.15
20
38.4196
0
VERTEX
8
CUT
10
28.35
20
38.0024
0
VERTEX
8
CUT
10
29.55
20
37.9115
0
VERTEX
8
CUT
10
30.75
20
38.1766
0
SEQEND
0
POLYLINE
8
CUT
66
1
70
0
0
VERTEX
8
CUT
10
32.25
20
38.8674
0
VERTEX
8
CUT
10
33.45
20
39.4875
0
VERTEX
8
CUT
10
34.65
20
39.9482
0
VERTEX
8
CUT
10
35.85
20
40.0987
0
VERTEX
8
CUT
10
37.05
20
39.8899
0
VERTEX
8
CUT
10
38.25
20
39.3901
0
VERTEX
8
CUT
10
39.45
20
38.7626
0
VERTEX
8
CUT
10
40.65
20
38.2128
0
VERTEX
8
CUT
10
41.85
20
37.9205
0
VERTEX
8
CUT
10
43.05
20
37.9812
0
VERTEX
8
CUT
10
44.25
20
38.3751
0
VERTEX
8
CUT
10
45.45
20
38.9734
0
VERTEX
8
CUT
10
46.65
20
39.5804
0
VERTEX
8
CUT
10
47.85
20
39.9976
0
VERTEX
8
CUT
10
49.05
20
40.0885
0
VERTEX
8
CUT
10
50.25
20
39.8234
0
VERTEX
8
CUT
10
51.45
20
39.289
0
VERTEX
8
CUT
10
52.65
20
38.6601
0
VERTEX
8
CUT
10
53.85
20
38.1424
0
VERTEX
8
CUT
10
55.05
20
37.9051
0
VERTEX
8
CUT
10
56.25
20
38.026
0
VERTEX
8
CUT
10
57.45
20
38.4654
0
VERTEX
8
CUT
10
58.65
20
39.0797
0
VERTEX
8
CUT
10
59.85
20
39.6679
0
VERTEX
8
CUT
10
61.05
20
40.0376
0
VERTEX
8
CUT
10
62.25
20
40.068
0
SEQEND
0
POLYLINE
8
CUT
66
1
70
0
0
VERTEX
8
CUT
10
63.75
20
39.6249
0
VERTEX
8
CUT
10
64.95
20
39.0266
0
VERTEX
8
CUT
10
66.15
20
38.4196
0
VERTEX
8
CUT
10
67.35
20
38.0024
0
VERTEX
8
CUT
10
68.55
20
37.9115
0
VERTEX
8
CUT
10
69.75
20
38.1766
0
VERTEX
8
CUT
10
70.95
20
38.711
0
VERTEX
8
CUT
10
72.15
20
39.3399
0
VERTEX
8
CUT
10
73.35
20
39.8576
0
VERTEX
8
CUT
10
74.55
20
40.0949
0
VERTEX
8
CUT
10
75.75
20
39.974
0
VERTEX
8
CUT
10
76.95
20
39.5346
0
VERTEX
8
CUT
10
78.15
20
38.9203
0
VERTEX
8
CUT
10
79.35
20
38.3321
0
VERTEX
8
CUT
10
80.55
20
37.9624
0
VERTEX
8
CUT
10
81.75
20
37.932
0
VERTEX
8
CUT
10
82.95
20
38.2509
0
VERTEX
8
CUT
10
84.15
20
38.8148
0
VERTEX
8
CUT
10
85.35
20
39.4393
0
VERTEX
8
CUT
10
86.55
20
39.9201
0
VERTEX
8
CUT
10
87.75
20
40.1
0
VERTEX
8
CUT
10
88.95
20
39.9201
0
VERTEX
8
CUT
10
90.15
20
39.4393
0
VERTEX
8
CUT
10
91.35
20
38.8148
0
VERTEX
8
CUT
10
92.55
20
38.2509
0
VERTEX
8
CUT
10
93.75
20
37.932
0
SEQEND
0
POLYLINE
8
CUT
66
1
70
0
0
VERTEX
8
CUT
10
95.25
20
38.026
0
VERTEX
8
CUT
10
96.45
20
38.4654
0
VERTEX
8
CUT
10
97.65
20
39.0797
0
VERTEX
8
CUT
10
98.85
20
39.6679
0
VERTEX
8
CUT
10
100.05
20
40.0376
0
VERTEX
8
CUT
10
101.25
20
40.068
0
VERTEX
8
CUT
10
102.45
20
39.7491
0
VERTEX
8
CUT
10
103.65
20
39.1852
0
VERTEX
8
CUT
10
104.85
20
38.5607
0
VERTEX
8
CUT
10
106.05
20
38.0799
0
VERTEX
8
CUT
10
107.25
20
37.9
0
VERTEX
8
CUT
10
108.45
20
38.0799
0
VERTEX
8
CUT
10
109.65
20
38.5607
0
VERTEX
8
CUT
10
110.85
20
39.1852
0
VERTEX
8
CUT
10
112.05
20
39.7491
0
VERTEX
8
CUT
10
113.25
20
40.068
0
VERTEX
8
CUT
10
114.45
20
40.0376
0
VERTEX
8
CUT
10
115.65
20
39.6679
0
VERTEX
8
CUT
10
116.85
20
39.0797
0
VERTEX
8
CUT
10
118.05
20
38.4654
0
VERTEX
8
CUT
10
119.25
20
38.026
0
VERTEX
8
CUT
10
120
20
37.9505
0
SEQEND
0
POLYLINE
8
CUT
66
1
70
0
0
VERTEX
8
CUT
10
0
20
35
0
VERTEX
8
CUT
10
0.6
20
34.6855
0
VERTEX
8
CUT
10
1.8
20
34.1593
0
VERTEX
8
CUT
10
3
20
33.908
0
VERTEX
8
CUT
10
4.2
20
34.0139
0
VERTEX
8
CUT
10
5.4
20
34.4423
0
VERTEX
8
CUT
10
6.6
20
35.0531
0
VERTEX
8
CUT
10
7.8
20
35.6466
0
VERTEX
8
CUT
10
9
20
36.0285
0
VERTEX
8
CUT
10
10.2
20
36.0741
0
VERTEX
8
CUT
10
11.4
20
35.7684
0
VERTEX
8
CUT
10
12.6
20
35.2113
0
VERTEX
8
CUT
10
13.8
20
34.5852
0
VERTEX
8
CUT
10
15
20
34.0947
0
SEQEND
0
POLYLINE
8
CUT
66
1
70
0
0
VERTEX
8
CUT
10
16.5
20
33.908
0
VERTEX
8
CUT
10
17.7
20
34.1593
0
VERTEX
8
CUT
10
18.9
20
34.6855
0
VERTEX
8
CUT
10
20.1
20
35.3145
0
VERTEX
8
CUT
10
21.3
20
35.8407
0
VERTEX
8
CUT
10
22.5
20
36.092
0
VERTEX
8
CUT
10
23.7
20
35.9861
0
VERTEX
8
CUT
10
24.9
20
35.5577
0
VERTEX
8
CUT
10
26.1
20
34.9469
0
VERTEX
8
CUT
10
27.3
20
34.3534
0
VERTEX
8
CUT
10
28.5
20
33.9715
0
VERTEX
8
CUT
10
29.7
20
33.9259
0
VERTEX
8
CUT
10
30.9
20
34.2316
0
VERTEX
8
CUT
10
32.1
20
34.7887
0
VERTEX
8
CUT
10
33.3
20
35.4148
0
VERTEX
8
CUT
10
34.5
20
35.9053
0
VERTEX
8
CUT
10
35.7
20
36.0997
0
VERTEX
8
CUT
10
36.9
20
35.9344
0
VERTEX
8
CUT
10
38.1
20
35.4635
0
VERTEX
8
CUT
10
39.3
20
34.8411
0
VERTEX
8
CUT
10
40.5
20
34.2706
0
VERTEX
8
CUT
10
41.7
20
33.9386
0
VERTEX
8
CUT
10
42.9
20
33.9538
0
VERTEX
8
CUT
10
44.1
20
34.3112
0
VERTEX
8
CUT
10
45.3
20
34.8938
0
VERTEX
8
CUT
10
46.5
20
35.5112
0
SEQEND
0
POLYLINE
8
CUT
66
1
70
0
0
VERTEX
8
CUT
10
48
20
36.0285
0
VERTEX
8
CUT
10
49.2
20
36.0741
0
VERTEX
8
CUT
10
50.4
20
35.7684
0
VERTEX
8
CUT
10
51.6
20
35.2113
0
VERTEX
8
CUT
10
52.8
20
34.5852
0
VERTEX
8
CUT
10
54
20
34.0947
0
VERTEX
8
CUT
10
55.2
20
33.9003
0
VERTEX
8
CUT
10
56.4
20
34.0656
0
VERTEX
8
CUT
10
57.6
20
34.5365
0
VERTEX
8
CUT
10
58.8
20
35.1589
0
VERTEX
8
CUT
10
60
20
35.7294
0
VERTEX
8
CUT
10
61.2
20
36.0614
0
VERTEX
8
CUT
10
62.4
20
36.0462
0
VERTEX
8
CUT
10
63.6
20
35.6888
0
VERTEX
8
CUT
10
64.8
20
35.1062
0
VERTEX
8
CUT
10
66
20
34.4888
0
VERTEX
8
CUT
10
67.2
20
34.0386
0
VERTEX
8
CUT
10
68.4
20
33.9029
0
VERTEX
8
CUT
10
69.6
20
34.126
0
VERTEX
8
CUT
10
70.8
20
34.6349
0
VERTEX
8
CUT
10
72
20
35.2632
0
VERTEX
8
CUT
10
73.2
20
35.8055
0
VERTEX
8
CUT
10
74.4
20
36.0843
0
VERTEX
8
CUT
10
75.6
20
36.0085
0
VERTEX
8
CUT
10
76.8
20
35.6028
0
VERTEX
8
CUT
10
78
20
35
0
SEQEND
0
POLYLINE
8
CUT
66
1
70
0
0
VERTEX
8
CUT
10
79.5
20
34.2706
0
VERTEX
8
CUT
10
80.7
20
33.9386
0
VERTEX
8
CUT
10
81.9
20
33.9538
0
VERTEX
8
CUT
10
83.1
20
34.3112
0
VERTEX
8
CUT
10
84.3
20
34.8938
0
VERTEX
8
CUT
10
85.5
20
35.5112
0
VERTEX
8
CUT
10
86.7
20
35.9614
0
VERTEX
8
CUT
10
87.9
20
36.0971
0
VERTEX
8
CUT
10
89.1
20
35.874
0
VERTEX
8
CUT
10
90.3
20
35.3651
0
VERTEX
8
CUT
10
91.5
20
34.7368
0
VERTEX
8
CUT
10
92.7
20
34.1945
0
VERTEX
8
CUT
10
93.9
20
33.9157
0
VERTEX
8
CUT
10
95.1
20
33.9915
0
VERTEX
8
CUT
10
96.3
20
34.3972
0
VERTEX
8
CUT
10
97.5
20
35
0
VERTEX
8
CUT
10
98.7
20
35.6028
0
VERTEX
8
CUT
10
99.9
20
36.0085
0
VERTEX
8
CUT
10
101.1
20
36.0843
0
VERTEX
8
CUT
10
102.3
20
35.8055
0
VERTEX
8
CUT
10
103.5
20
35.2632
0
VERTEX
8
CUT
10
104.7
20
34.6349
0
VERTEX
8
CUT
10
105.9
20
34.126
0
VERTEX
8
CUT
10
107.1
20
33.9029
0
VERTEX
8
CUT
10
108.3
20
34.0386
0
VERTEX
8
CUT
10
109.5
20
34.4888
0
SEQEND
0
POLYLINE
8
CUT
66
1
70
0
0
VERTEX
8
CUT
10
111
20
35.2632
0
VERTEX
8
CUT
10
112.2
20
35.8055
0
VERTEX
8
CUT
10
113.4
20
36.0843
0
VERTEX
8
CUT
10
114.6
20
36.0085
0
VERTEX
8
CUT
10
115.8
20
35.6028
0
VERTEX
8
CUT
10
117
20
35
0
VERTEX
8
CUT
10
118.2
20
34.3972
0
VERTEX
8
CUT
10
119.4
20
33.9915
0
VERTEX
8
CUT
10
120
20
33.9536
0
SEQEND
0
POLYLINE
8
CUT
66
1
70
0
0
VERTEX
8
CUT
10
0.75
20
30.6099
0
VERTEX
8
CUT
10
1.95
20
30.1101
0
VERTEX
8
CUT
10
3.15
20
29.9013
0
VERTEX
8
CUT
10
4.35
20
30.0518
0
VERTEX
8
CUT
10
5.55
20
30.5125
0
VERTEX
8
CUT
10
6.75
20
31.1326
0
VERTEX
8
CUT
10
7.95
20
31.7093
0
VERTEX
8
CUT
10
9.15
20
32.0541
0
VERTEX
8
CUT
10
10.35
20
32.0541
0
VERTEX
8
CUT
10
11.55
20
31.7093
0
VERTEX
8
CUT
10
12.75
20
31.1326
0
VERTEX
8
CUT
10
13.95
20
30.5125
0
VERTEX
8
CUT
10
15.15
20
30.0518
0
VERTEX
8
CUT
10
16.35
20
29.9013
0
VERTEX
8
CUT
10
17.55
20
30.1101
0
VERTEX
8
CUT
10
18.75
20
30.6099
0
VERTEX
8
CUT
10
19.95
20
31.2374
0
VERTEX
8
CUT
10
21.15
20
31.7872
0
VERTEX
8
CUT
10
22.35
20
32.0795
0
VERTEX
8
CUT
10
23.55
20
32.0188
0
VERTEX
8
CUT
10
24.75
20
31.6249
0
VERTEX
8
CUT
10
25.95
20
31.0266
0
VERTEX
8
CUT
10
27.15
20
30.4196
0
VERTEX
8
CUT
10
28.35
20
30.0024
0
VERTEX
8
CUT
10
29.55
20
29.9115
0
VERTEX
8
CUT
10
30.75
20
30.1766
0
SEQEND
0
POLYLINE
8
CUT
66
1
70
0
0
VERTEX
8
CUT
10
32.25
20
30.8674
0
VERTEX
8
CUT
10
33.45
20
31.4875
0
VERTEX
8
CUT
10
34.65
20
31.9482
0
VERTEX
8
CUT
10
35.85
20
32.0987
0
VERTEX
8
CUT
10
37.05
20
31.8899
0
VERTEX
8
CUT
10
38.25
20
31.3901
0
VERTEX
8
CUT
10
39.45
20
30.7626
0
VERTEX
8
CUT
10
40.65
20
30.2128
0
VERTEX
8
CUT
10
41.85
20
29.9205
0
VERTEX
8
CUT
10
43.05
20
29.9812
0
VERTEX
8
CUT
10
44.25
20
30.3751
0
VERTEX
8
CUT
10
45.45
20
30.9734
0
VERTEX
8
CUT
10
46.65
20
31.5804
0
VERTEX
8
CUT
10
47.85
20
31.9976
0
VERTEX
8
CUT
10
49.05
20
32.0885
0
VERTEX
8
CUT
10
50.25
20
31.8234
0
VERTEX
8
CUT
10
51.45
20
31.289
0
VERTEX
8
CUT
10
52.65
20
30.6601
0
VERTEX
8
CUT
10
53.85
20
30.1424
0
VERTEX
8
CUT
10
55.05
20
29.9051
0
VERTEX
8
CUT
10
56.25
20
30.026
0
VERTEX
8
CUT
10
57.45
20
30.4654
0
VERTEX
8
CUT
10
58.65
20
31.0797
0
VERTEX
8
CUT
10
59.85
20
31.6679
0
VERTEX
8
CUT
10
61.05
20
32.0376
0
VERTEX
8
CUT
10
62.25
20
32.068
0
SEQEND
0
POLYLINE
8
CUT
66
1
70
0
0
VERTEX
8
CUT
10
63.75
20
31.6249
0
VERTEX
8
CUT
10
64.95
20
31.0266
0
VERTEX
8
CUT
10
66.15
20
30.4196
0
VERTEX
8
CUT
10
67.35
20
30.0024
0
VERTEX
8
CUT
10
68.55
20
29.9115
0
VERTEX
8
CUT
10
69.75
20
30.1766
0
VERTEX
8
CUT
10
70.95
20
30.711
0
VERTEX
8
CUT
10
72.15
20
31.3399
0
VERTEX
8
CUT
10
73.35
20
31.8576
0
VERTEX
8
CUT
10
74.55
20
32.0949
0
VERTEX
8
CUT
10
75.75
20
31.974
0
VERTEX
8
CUT
10
76.95
20
31.5346
0
VERTEX
8
CUT
10
78.15
20
30.9203
0
VERTEX
8
CUT
10
79.35
20
30.3321
0
VERTEX
8
CUT
10
80.55
20
29.9624
0
VERTEX
8
CUT
10
81.75
20
29.932
0
VERTEX
8
CUT
10
82.95
20
30.2509
0
VERTEX
8
CUT
10
84.15
20
30.8148
0
VERTEX
8
CUT
10
85.35
20
31.4393
0
VERTEX
8
CUT
10
86.55
20
31.9201
0
VERTEX
8
CUT
10
87.75
20
32.1
0
VERTEX
8
CUT
10
88.95
20
31.9201
0
VERTEX
8
CUT
10
90.15
20
31.4393
0
VERTEX
8
CUT
10
91.35
20
30.8148
0
VERTEX
8
CUT
10
92.55
20
30.2509
0
VERTEX
8
CUT
10
93.75
20
29.932
0
SEQEND
0
POLYLINE
8
CUT
66
1
70
0
0
VERTEX
8
CUT
10
95.25
20
30.026
0
VERTEX
8
CUT
10
96.45
20
30.4654
0
VERTEX
8
CUT
10
97.65
20
31.0797
0
VERTEX
8
CUT
10
98.85
20
31.6679
0
VERTEX
8
CUT
10
100.05
20
32.0376
0
VERTEX
8
CUT
10
101.25
20
32.068
0
VERTEX
8
CUT
10
102.45
20
31.7491
0
VERTEX
8
CUT
10
103.65
20
31.1852
0
VERTEX
8
CUT
10
104.85
20
30.5607
0
VERTEX
8
CUT
10
106.05
20
30.0799
0
VERTEX
8
CUT
10
107.25
20
29.9
0
VERTEX
8
CUT
10
108.45
20
30.0799
0
VERTEX
8
CUT
10
109.65
20
30.5607
0
VERTEX
8
CUT
10
110.85
20
31.1852
0
VERTEX
8
CUT
10
112.05
20
31.7491
0
VERTEX
8
CUT
10
113.25
20
32.068
0
VERTEX
8
CUT
10
114.45
20
32.0376
0
VERTEX
8
CUT
10
115.65
20
31.6679
0
VERTEX
8
CUT
10
116.85
20
31.0797
0
VERTEX
8
CUT
10
118.05
20
30.4654
0
VERTEX
8
CUT
10
119.25
20
30.026
0
VERTEX
8
CUT
10
120
20
29.9505
0
SEQEND
0
POLYLINE
8
CUT
66
1
70
0
0
VERTEX
8
CUT
10
0
20
27
0
VERTEX
8
CUT
10
0.6
20
26.6855
0
VERTEX
8
CUT
10
1.8
20
26.1593
0
VERTEX
8
CUT
10
3
20
25.908
0
VERTEX
8
CUT
10
4.2
20
26.0139
0
VERTEX
8
CUT
10
5.4
20
26.4423
0
VERTEX
8
CUT
10
6.6
20
27.0531
0
VERTEX
8
CUT
10
7.8
20
27.6466
0
VERTEX
8
CUT
10
9
20
28.0285
0
VERTEX
8
CUT
10
10.2
20
28.0741
0
VERTEX
8
CUT
10
11.4
20
27.7684
0
VERTEX
8
CUT
10
12.6
20
27.2113
0
VERTEX
8
CUT
10
13.8
20
26.5852
0
VERTEX
8
CUT
10
15
20
26.0947
0
SEQEND
0
POLYLINE
8
CUT
66
1
70
0
0
VERTEX
8
CUT
10
16.5
20
25.908
0
VERTEX
8
CUT
10
17.7
20
26.1593
0
VERTEX
8
CUT
10
18.9
20
26.6855
0
VERTEX
8
CUT
10
20.1
20
27.3145
0
VERTEX
8
CUT
10
21.3
20
27.8407
0
VERTEX
8
CUT
10
22.5
20
28.092
0
VERTEX
8
CUT
10
23.7
20
27.9861
0
VERTEX
8
CUT
10
24.9
20
27.5577
0
VERTEX
8
CUT
10
26.1
20
26.9469
0
VERTEX
8
CUT
10
27.3
20
26.3534
0
VERTEX
8
CUT
10
28.5
20
25.9715
0
VERTEX
8
CUT
10
29.7
20
25.9259
0
VERTEX
8
CUT
10
30.9
20
26.2316
0
VERTEX
8
CUT
10
32.1
20
26.7887
0
VERTEX
8
CUT
10
33.3
20
27.4148
0
VERTEX
8
CUT
10
34.5
20
27.9053
0
VERTEX
8
CUT
10
35.7
20
28.0997
0
VERTEX
8
CUT
10
36.9
20
27.9344
0
VERTEX
8
CUT
10
38.1
20
27.4635
0
VERTEX
8
CUT
10
39.3
20
26.8411
0
VERTEX
8
CUT
10
40.5
20
26.2706
0
VERTEX
8
CUT
10
41.7
20
25.9386
0
VERTEX
8
CUT
10
42.9
20
25.9538
0
VERTEX
8
CUT
10
44.1
20
26.3112
0
VERTEX
8
CUT
10
45.3
20
26.8938
0
VERTEX
8
CUT
10
46.5
20
27.5112
0
SEQEND
0
POLYLINE
8
CUT
66
1
70
0
0
VERTEX
8
CUT
10
48
20
28.0285
0
VERTEX
8
CUT
10
49.2
20
28.0741
0
VERTEX
8
CUT
10
50.4
20
27.7684
0
VERTEX
8
CUT
10
51.6
20
27.2113
0
VERTEX
8
CUT
10
52.8
20
26.5852
0
VERTEX
8
CUT
10
54
20
26.0947
0
VERTEX
8
CUT
10
55.2
20
25.9003
0
VERTEX
8
CUT
10
56.4
20
26.0656
0
VERTEX
8
CUT
10
57.6
20
26.5365
0
VERTEX
8
CUT
10
58.8
20
27.1589
0
VERTEX
8
CUT
10
60
20
27.7294
0
VERTEX
8
CUT
10
61.2
20
28.0614
0
VERTEX
8
CUT
10
62.4
20
28.0462
0
VERTEX
8
CUT
10
63.6
20
27.6888
0
VERTEX
8
CUT
10
64.8
20
27.1062
0
VERTEX
8
CUT
10
66
20
26.4888
0
VERTEX
8
CUT
10
67.2
20
26.0386
0
VERTEX
8
CUT
10
68.4
20
25.9029
0
VERTEX
8
CUT
10
69.6
20
26.126
0
VERTEX
8
CUT
10
70.8
20
26.6349
0
VERTEX
8
CUT
10
72
20
27.2632
0
VERTEX
8
CUT
10
73.2
20
27.8055
0
VERTEX
8
CUT
10
74.4
20
28.0843
0
VERTEX
8
CUT
10
75.6
20
28.0085
0
VERTEX
8
CUT
10
76.8
20
27.6028
0
VERTEX
8
CUT
10
78
20
27
0
SEQEND
0
POLYLINE
8
CUT
66
1
70
0
0
VERTEX
8
CUT
10
79.5
20
26.2706
0
VERTEX
8
CUT
10
80.7
20
25.9386
0
VERTEX
8
CUT
10
81.9
20
25.9538
0
VERTEX
8
CUT
10
83.1
20
26.3112
0
VERTEX
8
CUT
10
84.3
20
26.8938
0
VERTEX
8
CUT
10
85.5
20
27.5112
0
VERTEX
8
CUT
10
86.7
20
27.9614
0
VERTEX
8
CUT
10
87.9
20
28.0971
0
VERTEX
8
CUT
10
89.1
20
27.874
0
VERTEX
8
CUT
10
90.3
20
27.3651
0
VERTEX
8
CUT
10
91.5
20
26.7368
0
VERTEX
8
CUT
10
92.7
20
26.1945
0
VERTEX
8
CUT
10
93.9
20
25.9157
0
VERTEX
8
CUT
10
95.1
20
25.9915
0
VERTEX
8
CUT
10
96.3
20
26.3972
0
VERTEX
8
CUT
10
97.5
20
27
0
VERTEX
8
CUT
10
98.7
20
27.6028
0
VERTEX
8
CUT
10
99.9
20
28.0085
0
VERTEX
8
CUT
10
101.1
20
28.0843
0
VERTEX
8
CUT
10
102.3
20
27.8055
0
VERTEX
8
CUT
10
103.5
20
27.2632
0
VERTEX
8
CUT
10
104.7
20
26.6349
0
VERTEX
8
CUT
10
105.9
20
26.126
0
VERTEX
8
CUT
10
107.1
20
25.9029
0
VERTEX
8
CUT
10
108.3
20
26.0386
0
VERTEX
8
CUT
10
109.5
20
26.4888
0
SEQEND
0
POLYLINE
8
CUT
66
1
70
0
0
VERTEX
8
CUT
10
111
20
27.2632
0
VERTEX
8
CUT
10
112.2
20
27.8055
0
VERTEX
8
CUT
10
113.4
20
28.0843
0
VERTEX
8
CUT
10
114.6
20
28.0085
0
VERTEX
8
CUT
10
115.8
20
27.6028
0
VERTEX
8
CUT
10
117
20
27
0
VERTEX
8
CUT
10
118.2
20
26.3972
0
VERTEX
8
CUT
10
119.4
20
25.9915
0
VERTEX
8
CUT
10
120
20
25.9536
0
SEQEND
0
POLYLINE
8
CUT
66
1
70
0
0
VERTEX
8
CUT
10
0.75
20
22.6099
0
VERTEX
8
CUT
10
1.95
20
22.1101
0
VERTEX
8
CUT
10
3.15
20
21.9013
0
VERTEX
8
CUT
10
4.35
20
22.0518
0
VERTEX
8
CUT
10
5.55
20
22.5125
0
VERTEX
8
CUT
10
6.75
20
23.1326
0
VERTEX
8
CUT
10
7.95
20
23.7093
0
VERTEX
8
CUT
10
9.15
20
24.0541
0
VERTEX
8
CUT
10
10.35
20
24.0541
0
VERTEX
8
CUT
10
11.55
20
23.7093
0
VERTEX
8
CUT
10
12.75
20
23.1326
0
VERTEX
8
CUT
10
13.95
20
22.5125
0
VERTEX
8
CUT
10
15.15
20
22.0518
0
VERTEX
8
CUT
10
16.35
20
21.9013
0
VERTEX
8
CUT
10
17.55
20
22.1101
0
VERTEX
8
CUT
10
18.75
20
22.6099
0
VERTEX
8
CUT
10
19.95
20
23.2374
0
VERTEX
8
CUT
10
21.15
20
23.7872
0
VERTEX
8
CUT
10
22.35
20
24.0795
0
VERTEX
8
CUT
10
23.55
20
24.0188
0
VERTEX
8
CUT
10
24.75
20
23.6249
0
VERTEX
8
CUT
10
25.95
20
23.0266
0
VERTEX
8
CUT
10
27.15
20
22.4196
0
VERTEX
8
CUT
10
28.35
20
22.0024
0
VERTEX
8
CUT
10
29.55
20
21.9115
0
VERTEX
8
CUT
10
30.75
20
22.1766
0
SEQEND
0
POLYLINE
8
CUT
66
1
70
0
0
VERTEX
8
CUT
10
32.25
20
22.8674
0
VERTEX
8
CUT
10
33.45
20
23.4875
0
VERTEX
8
CUT
10
34.65
20
23.9482
0
VERTEX
8
CUT
10
35.85
20
24.0987
0
VERTEX
8
CUT
10
37.05
20
23.8899
0
VERTEX
8
CUT
10
38.25
20
23.3901
0
VERTEX
8
CUT
10
39.45
20
22.7626
0
VERTEX
8
CUT
10
40.65
20
22.2128
0
VERTEX
8
CUT
10
41.85
20
21.9205
0
VERTEX
8
CUT
10
43.05
20
21.9812
0
VERTEX
8
CUT
10
44.25
20
22.3751
0
VERTEX
8
CUT
10
45.45
20
22.9734
0
VERTEX
8
CUT
10
46.65
20
23.5804
0
VERTEX
8
CUT
10
47.85
20
23.9976
0
VERTEX
8
CUT
10
49.05
20
24.0885
0
VERTEX
8
CUT
10
50.25
20
23.8234
0
VERTEX
8
CUT
10
51.45
20
23.289
0
VERTEX
8
CUT
10
52.65
20
22.6601
0
VERTEX
8
CUT
10
53.85
20
22.1424
0
VERTEX
8
CUT
10
55.05
20
21.9051
0
VERTEX
8
CUT
10
56.25
20
22.026
0
VERTEX
8
CUT
10
57.45
20
22.4654
0
VERTEX
8
CUT
10
58.65
20
23.0797
0
VERTEX
8
CUT
10
59.85
20
23.6679
0
VERTEX
8
CUT
10
61.05
20
24.0376
0
VERTEX
8
CUT
10
62.25
20
24.068
0
SEQEND
0
POLYLINE
8
CUT
66
1
70
0
0
VERTEX
8
CUT
10
63.75
20
23.6249
0
VERTEX
8
CUT
10
64.95
20
23.0266
0
VERTEX
8
CUT
10
66.15
20
22.4196
0
VERTEX
8
CUT
10
67.35
20
22.0024
0
VERTEX
8
CUT
10
68.55
20
21.9115
0
VERTEX
8
CUT
10
69.75
20
22.1766
0
VERTEX
8
CUT
10
70.95
20
22.711
0
VERTEX
8
CUT
10
72.15
20
23.3399
0
VERTEX
8
CUT
10
73.35
20
23.8576
0
VERTEX
8
CUT
10
74.55
20
24.0949
0
VERTEX
8
CUT
10
75.75
20
23.974
0
VERTEX
8
CUT
10
76.95
20
23.5346
0
VERTEX
8
CUT
10
78.15
20
22.9203
0
VERTEX
8
CUT
10
79.35
20
22.3321
0
VERTEX
8
CUT
10
80.55
20
21.9624
0
VERTEX
8
CUT
10
81.75
20
21.932
0
VERTEX
8
CUT
10
82.95
20
22.2509
0
VERTEX
8
CUT
10
84.15
20
22.8148
0
VERTEX
8
CUT
10
85.35
20
23.4393
0
VERTEX
8
CUT
10
86.55
20
23.9201
0
VERTEX
8
CUT
10
87.75
20
24.1
0
VERTEX
8
CUT
10
88.95
20
23.9201
0
VERTEX
8
CUT
10
90.15
20
23.4393
0
VERTEX
8
CUT
10
91.35
20
22.8148
0
VERTEX
8
CUT
10
92.55
20
22.2509
0
VERTEX
8
CUT
10
93.75
20
21.932
0
SEQEND
0
POLYLINE
8
CUT
66
1
70
0
0
VERTEX
8
CUT
10
95.25
20
22.026
0
VERTEX
8
CUT
10
96.45
20
22.4654
0
VERTEX
8
CUT
10
97.65
20
23.0797
0
VERTEX
8
CUT
10
98.85
20
23.6679
0
VERTEX
8
CUT
10
100.05
20
24.0376
0
VERTEX
8
CUT
10
101.25
20
24.068
0
VERTEX
8
CUT
10
102.45
20
23.7491
0
VERTEX
8
CUT
10
103.65
20
23.1852
0
VERTEX
8
CUT
10
104.85
20
22.5607
0
VERTEX
8
CUT
10
106.05
20
22.0799
0
VERTEX
8
CUT
10
107.25
20
21.9
0
VERTEX
8
CUT
10
108.45
20
22.0799
0
VERTEX
8
CUT
10
109.65
20
22.5607
0
VERTEX
8
CUT
10
110.85
20
23.1852
0
VERTEX
8
CUT
10
112.05
20
23.7491
0
VERTEX
8
CUT
10
113.25
20
24.068
0
VERTEX
8
CUT
10
114.45
20
24.0376
0
VERTEX
8
CUT
10
115.65
20
23.6679
0
VERTEX
8
CUT
10
116.85
20
23.0797
0
VERTEX
8
CUT
10
118.05
20
22.4654
0
VERTEX
8
CUT
10
119.25
20
22.026
0
VERTEX
8
CUT
10
120
20
21.9505
0
SEQEND
0
POLYLINE
8
CUT
66
1
70
0
0
VERTEX
8
CUT
10
0
20
19
0
VERTEX
8
CUT
10
0.6
20
18.6855
0
VERTEX
8
CUT
10
1.8
20
18.1593
0
VERTEX
8
CUT
10
3
20
17.908
0
VERTEX
8
CUT
10
4.2
20
18.0139
0
VERTEX
8
CUT
10
5.4
20
18.4423
0
VERTEX
8
CUT
10
6.6
20
19.0531
0
VERTEX
8
CUT
10
7.8
20
19.6466
0
VERTEX
8
CUT
10
9
20
20.0285
0
VERTEX
8
CUT
10
10.2
20
20.0741
0
VERTEX
8
CUT
10
11.4
20
19.7684
0
VERTEX
8
CUT
10
12.6
20
19.2113
0
VERTEX
8
CUT
10
13.8
20
18.5852
0
VERTEX
8
CUT
10
15
20
18.0947
0
SEQEND
0
POLYLINE
8
CUT
66
1
70
0
0
VERTEX
8
CUT
10
16.5
20
17.908
0
VERTEX
8
CUT
10
17.7
20
18.1593
0
VERTEX
8
CUT
10
18.9
20
18.6855
0
VERTEX
8
CUT
10
20.1
20
19.3145
0
VERTEX
8
CUT
10
21.3
20
19.8407
0
VERTEX
8
CUT
10
22.5
20
20.092
0
VERTEX
8
CUT
10
23.7
20
19.9861
0
VERTEX
8
CUT
10
24.9
20
19.5577
0
VERTEX
8
CUT
10
26.1
20
18.9469
0
VERTEX
8
CUT
10
27.3
20
18.3534
0
VERTEX
8
CUT
10
28.5
20
17.9715
0
VERTEX
8
CUT
10
29.7
20
17.9259
0
VERTEX
8
CUT
10
30.9
20
18.2316
0
VERTEX
8
CUT
10
32.1
20
18.7887
0
VERTEX
8
CUT
10
33.3
20
19.4148
0
VERTEX
8
CUT
10
34.5
20
19.9053
0
VERTEX
8
CUT
10
35.7
20
20.0997
0
VERTEX
8
CUT
10
36.9
20
19.9344
0
VERTEX
8
CUT
10
38.1
20
19.4635
0
VERTEX
8
CUT
10
39.3
20
18.8411
0
VERTEX
8
CUT
10
40.5
20
18.2706
0
VERTEX
8
CUT
10
41.7
20
17.9386
0
VERTEX
8
CUT
10
42.9
20
17.9538
0
VERTEX
8
CUT
10
44.1
20
18.3112
0
VERTEX
8
CUT
10
45.3
20
18.8938
0
VERTEX
8
CUT
10
46.5
20
19.5112
0
SEQEND
0
POLYLINE
8
CUT
66
1
70
0
0
VERTEX
8
CUT
10
48
20
20.0285
0
VERTEX
8
CUT
10
49.2
20
20.0741
0
VERTEX
8
CUT
10
50.4
20
19.7684
0
VERTEX
8
CUT
10
51.6
20
19.2113
0
VERTEX
8
CUT
10
52.8
20
18.5852
0
VERTEX
8
CUT
10
54
20
18.0947
0
VERTEX
8
CUT
10
55.2
20
17.9003
0
VERTEX
8
CUT
10
56.4
20
18.0656
0
VERTEX
8
CUT
10
57.6
20
18.5365
0
VERTEX
8
CUT
10
58.8
20
19.1589
0
VERTEX
8
CUT
10
60
20
19.7294
0
VERTEX
8
CUT
10
61.2
20
20.0614
0
VERTEX
8
CUT
10
62.4
20
20.0462
0
VERTEX
8
CUT
10
63.6
20
19.6888
0
VERTEX
8
CUT
10
64.8
20
19.1062
0
VERTEX
8
CUT
10
66
20
18.4888
0
VERTEX
8
CUT
10
67.2
20
18.0386
0
VERTEX
8
CUT
10
68.4
20
17.9029
0
VERTEX
8
CUT
10
69.6
20
18.126
0
VERTEX
8
CUT
10
70.8
20
18.6349
0
VERTEX
8
CUT
10
72
20
19.2632
0
VERTEX
8
CUT
10
73.2
20
19.8055
0
VERTEX
8
CUT
10
74.4
20
20.0843
0
VERTEX
8
CUT
10
75.6
20
20.0085
0
VERTEX
8
CUT
10
76.8
20
19.6028
0
VERTEX
8
CUT
10
78
20
19
0
SEQEND
0
POLYLINE
8
CUT
66
1
70
0
0
VERTEX
8
CUT
10
79.5
20
18.2706
0
VERTEX
8
CUT
10
80.7
20
17.9386
0
VERTEX
8
CUT
10
81.9
20
17.9538
0
VERTEX
8
CUT
10
83.1
20
18.3112
0
VERTEX
8
CUT
10
84.3
20
18.8938
0
VERTEX
8
CUT
10
85.5
20
19.5112
0
VERTEX
8
CUT
10
86.7
20
19.9614
0
VERTEX
8
CUT
10
87.9
20
20.0971
0
VERTEX
8
CUT
10
89.1
20
19.874
0
VERTEX
8
CUT
10
90.3
20
19.3651
0
VERTEX
8
CUT
10
91.5
20
18.7368
0
VERTEX
8
CUT
10
92.7
20
18.1945
0
VERTEX
8
CUT
10
93.9
20
17.9157
0
VERTEX
8
CUT
10
95.1
20
17.9915
0
VERTEX
8
CUT
10
96.3
20
18.3972
0
VERTEX
8
CUT
10
97.5
20
19
0
VERTEX
8
CUT
10
98.7
20
19.6028
0
VERTEX
8
CUT
10
99.9
20
20.0085
0
VERTEX
8
CUT
10
101.1
20
20.0843
0
VERTEX
8
CUT
10
102.3
20
19.8055
0
VERTEX
8
CUT
10
103.5
20
19.2632
0
VERTEX
8
CUT
10
104.7
20
18.6349
0
VERTEX
8
CUT
10
105.9
20
18.126
0
VERTEX
8
CUT
10
107.1
20
17.9029
0
VERTEX
8
CUT
10
108.3
20
18.0386
0
VERTEX
8
CUT
10
109.5
20
18.4888
0
SEQEND
0
POLYLINE
8
CUT
66
1
70
0
0
VERTEX
8
CUT
10
111
20
19.2632
0
VERTEX
8
CUT
10
112.2
20
19.8055
0
VERTEX
8
CUT
10
113.4
20
20.0843
0
VERTEX
8
CUT
10
114.6
20
20.0085
0
VERTEX
8
CUT
10
115.8
20
19.6028
0
VERTEX
8
CUT
10
117
20
19
0
VERTEX
8
CUT
10
118.2
20
18.3972
0
VERTEX
8
CUT
10
119.4
20
17.9915
0
VERTEX
8
CUT
10
120
20
17.9536
0
SEQEND
0
POLYLINE
8
CUT
66
1
70
0
0
VERTEX
8
CUT
10
0.75
20
14.6099
0
VERTEX
8
CUT
10
1.95
20
14.1101
0
VERTEX
8
CUT
10
3.15
20
13.9013
0
VERTEX
8
CUT
10
4.35
20
14.0518
0
VERTEX
8
CUT
10
5.55
20
14.5125
0
VERTEX
8
CUT
10
6.75
20
15.1326
0
VERTEX
8
CUT
10
7.95
20
15.7093
0
VERTEX
8
CUT
10
9.15
20
16.0541
0
VERTEX
8
CUT
10
10.35
20
16.0541
0
VERTEX
8
CUT
10
11.55
20
15.7093
0
VERTEX
8
CUT
10
12.75
20
15.1326
0
VERTEX
8
CUT
10
13.95
20
14.5125
0
VERTEX
8
CUT
10
15.15
20
14.0518
0
VERTEX
8
CUT
10
16.35
20
13.9013
0
VERTEX
8
CUT
10
17.55
20
14.1101
0
VERTEX
8
CUT
10
18.75
20
14.6099
0
VERTEX
8
CUT
10
19.95
20
15.2374
0
VERTEX
8
CUT
10
21.15
20
15.7872
0
VERTEX
8
CUT
10
22.35
20
16.0795
0
VERTEX
8
CUT
10
23.55
20
16.0188
0
VERTEX
8
CUT
10
24.75
20
15.6249
0
VERTEX
8
CUT
10
25.95
20
15.0266
0
VERTEX
8
CUT
10
27.15
20
14.4196
0
VERTEX
8
CUT
10
28.35
20
14.0024
0
VERTEX
8
CUT
10
29.55
20
13.9115
0
VERTEX
8
CUT
10
30.75
20
14.1766
0
SEQEND
0
POLYLINE
8
CUT
66
1
70
0
0
VERTEX
8
CUT
10
32.25
20
14.8674
0
VERTEX
8
CUT
10
33.45
20
15.4875
0
VERTEX
8
CUT
10
34.65
20
15.9482
0
VERTEX
8
CUT
10
35.85
20
16.0987
0
VERTEX
8
CUT
10
37.05
20
15.8899
0
VERTEX
8
CUT
10
38.25
20
15.3901
0
VERTEX
8
CUT
10
39.45
20
14.7626
0
VERTEX
8
CUT
10
40.65
20
14.2128
0
VERTEX
8
CUT
10
41.85
20
13.9205
0
VERTEX
8
CUT
10
43.05
20
13.9812
0
VERTEX
8
CUT
10
44.25
20
14.3751
0
VERTEX
8
CUT
10
45.45
20
14.9734
0
VERTEX
8
CUT
10
46.65
20
15.5804
0
VERTEX
8
CUT
10
47.85
20
15.9976
0
VERTEX
8
CUT
10
49.05
20
16.0885
0
VERTEX
8
CUT
10
50.25
20
15.8234
0
VERTEX
8
CUT
10
51.45
20
15.289
0
VERTEX
8
CUT
10
52.65
20
14.6601
0
VERTEX
8
CUT
10
53.85
20
14.1424
0
VERTEX
8
CUT
10
55.05
20
13.9051
0
VERTEX
8
CUT
10
56.25
20
14.026
0
VERTEX
8
CUT
10
57.45
20
14.4654
0
VERTEX
8
CUT
10
58.65
20
15.0797
0
VERTEX
8
CUT
10
59.85
20
15.6679
0
VERTEX
8
CUT
10
61.05
20
16.0376
0
VERTEX
8
CUT
10
62.25
20
16.068
0
SEQEND
0
POLYLINE
8
CUT
66
1
70
0
0
VERTEX
8
CUT
10
63.75
20
15.6249
0
VERTEX
8
CUT
10
64.95
20
15.0266
0
VERTEX
8
CUT
10
66.15
20
14.4196
0
VERTEX
8
CUT
10
67.35
20
14.0024
0
VERTEX
8
CUT
10
68.55
20
13.9115
0
VERTEX
8
CUT
10
69.75
20
14.1766
0
VERTEX
8
CUT
10
70.95
20
14.711
0
VERTEX
8
CUT
10
72.15
20
15.3399
0
VERTEX
8
CUT
10
73.35
20
15.8576
0
VERTEX
8
CUT
10
74.55
20
16.0949
0
VERTEX
8
CUT
10
75.75
20
15.974
0
VERTEX
8
CUT
10
76.95
20
15.5346
0
VERTEX
8
CUT
10
78.15
20
14.9203
0
VERTEX
8
CUT
10
79.35
20
14.3321
0
VERTEX
8
CUT
10
80.55
20
13.9624
0
VERTEX
8
CUT
10
81.75
20
13.932
0
VERTEX
8
CUT
10
82.95
20
14.2509
0
VERTEX
8
CUT
10
84.15
20
14.8148
0
VERTEX
8
CUT
10
85.35
20
15.4393
0
VERTEX
8
CUT
10
86.55
20
15.9201
0
VERTEX
8
CUT
10
87.75
20
16.1
0
VERTEX
8
CUT
10
88.95
20
15.9201
0
VERTEX
8
CUT
10
90.15
20
15.4393
0
VERTEX
8
CUT
10
91.35
20
14.8148
0
VERTEX
8
CUT
10
92.55
20
14.2509
0
VERTEX
8
CUT
10
93.75
20
13.932
0
SEQEND
0
POLYLINE
8
CUT
66
1
70
0
0
VERTEX
8
CUT
10
95.25
20
14.026
0
VERTEX
8
CUT
10
96.45
20
14.4654
0
VERTEX
8
CUT
10
97.65
20
15.0797
0
VERTEX
8
CUT
10
98.85
20
15.6679
0
VERTEX
8
CUT
10
100.05
20
16.0376
0
VERTEX
8
CUT
10
101.25
20
16.068
0
VERTEX
8
CUT
10
102.45
20
15.7491
0
VERTEX
8
CUT
10
103.65
20
15.1852
0
VERTEX
8
CUT
10
104.85
20
14.5607
0
VERTEX
8
CUT
10
106.05
20
14.0799
0
VERTEX
8
CUT
10
107.25
20
13.9
0
VERTEX
8
CUT
10
108.45
20
14.0799
0
VERTEX
8
CUT
10
109.65
20
14.5607
0
VERTEX
8
CUT
10
110.85
20
15.1852
0
VERTEX
8
CUT
10
112.05
20
15.7491
0
VERTEX
8
CUT
10
113.25
20
16.068
0
VERTEX
8
CUT
10
114.45
20
16.0376
0
VERTEX
8
CUT
10
115.65
20
15.6679
0
VERTEX
8
CUT
10
116.85
20
15.0797
0
VERTEX
8
CUT
10
118.05
20
14.4654
0
VERTEX
8
CUT
10
119.25
20
14.026
0
VERTEX
8
CUT
10
120
20
13.9505
0
SEQEND
0
POLYLINE
8
CUT
66
1
70
0
0
VERTEX
8
CUT
10
0
20
11
0
VERTEX
8
CUT
10
0.6
20
10.6855
0
VERTEX
8
CUT
10
1.8
20
10.1593
0
VERTEX
8
CUT
10
3
20
9.908
0
VERTEX
8
CUT
10
4.2
20
10.0139
0
VERTEX
8
CUT
10
5.4
20
10.4423
0
VERTEX
8
CUT
10
6.6
20
11.0531
0
VERTEX
8
CUT
10
7.8
20
11.6466
0
VERTEX
8
CUT
10
9
20
12.0285
0
VERTEX
8
CUT
10
10.2
20
12.0741
0
VERTEX
8
CUT
10
11.4
20
11.7684
0
VERTEX
8
CUT
10
12.6
20
11.2113
0
VERTEX
8
CUT
10
13.8
20
10.5852
0
VERTEX
8
CUT
10
15
20
10.0947
0
SEQEND
0
POLYLINE
8
CUT
66
1
70
0
0
VERTEX
8
CUT
10
16.5
20
9.908
0
VERTEX
8
CUT
10
17.7
20
10.1593
0
VERTEX
8
CUT
10
18.9
20
10.6855
0
VERTEX
8
CUT
10
20.1
20
11.3145
0
VERTEX
8
CUT
10
21.3
20
11.8407
0
VERTEX
8
CUT
10
22.5
20
12.092
0
VERTEX
8
CUT
10
23.7
20
11.9861
0
VERTEX
8
CUT
10
24.9
20
11.5577
0
VERTEX
8
CUT
10
26.1
20
10.9469
0
VERTEX
8
CUT
10
27.3
20
10.3534
0
VERTEX
8
CUT
10
28.5
20
9.9715
0
VERTEX
8
CUT
10
29.7
20
9.9259
0
VERTEX
8
CUT
10
30.9
20
10.2316
0
VERTEX
8
CUT
10
32.1
20
10.7887
0
VERTEX
8
CUT
10
33.3
20
11.4148
0
VERTEX
8
CUT
10
34.5
20
11.9053
0
VERTEX
8
CUT
10
35.7
20
12.0997
0
VERTEX
8
CUT
10
36.9
20
11.9344
0
VERTEX
8
CUT
10
38.1
20
11.4635
0
VERTEX
8
CUT
10
39.3
20
10.8411
0
VERTEX
8
CUT
10
40.5
20
10.2706
0
VERTEX
8
CUT
10
41.7
20
9.9386
0
VERTEX
8
CUT
10
42.9
20
9.9538
0
VERTEX
8
CUT
10
44.1
20
10.3112
0
VERTEX
8
CUT
10
45.3
20
10.8938
0
VERTEX
8
CUT
10
46.5
20
11.5112
0
SEQEND
0
POLYLINE
8
CUT
66
1
70
0
0
VERTEX
8
CUT
10
48
20
12.0285
0
VERTEX
8
CUT
10
49.2
20
12.0741
0
VERTEX
8
CUT
10
50.4
20
11.7684
0
VERTEX
8
CUT
10
51.6
20
11.2113
0
VERTEX
8
CUT
10
52.8
20
10.5852
0
VERTEX
8
CUT
10
54
20
10.0947
0
VERTEX
8
CUT
10
55.2
20
9.9003
0
VERTEX
8
CUT
10
56.4
20
10.0656
0
VERTEX
8
CUT
10
57.6
20
10.5365
0
VERTEX
8
CUT
10
58.8
20
11.1589
0
VERTEX
8
CUT
10
60
20
11.7294
0
VERTEX
8
CUT
10
61.2
20
12.0614
0
VERTEX
8
CUT
10
62.4
20
12.0462
0
VERTEX
8
CUT
10
63.6
20
11.6888
0
VERTEX
8
CUT
10
64.8
20
11.1062
0
VERTEX
8
CUT
10
66
20
10.4888
0
VERTEX
8
CUT
10
67.2
20
10.0386
0
VERTEX
8
CUT
10
68.4
20
9.9029
0
VERTEX
8
CUT
10
69.6
20
10.126
0
VERTEX
8
CUT
10
70.8
20
10.6349
0
VERTEX
8
CUT
10
72
20
11.2632
0
VERTEX
8
CUT
10
73.2
20
11.8055
0
VERTEX
8
CUT
10
74.4
20
12.0843
0
VERTEX
8
CUT
10
75.6
20
12.0085
0
VERTEX
8
CUT
10
76.8
20
11.6028
0
VERTEX
8
CUT
10
78
20
11
0
SEQEND
0
POLYLINE
8
CUT
66
1
70
0
0
VERTEX
8
CUT
10
79.5
20
10.2706
0
VERTEX
8
CUT
10
80.7
20
9.9386
0
VERTEX
8
CUT
10
81.9
20
9.9538
0
VERTEX
8
CUT
10
83.1
20
10.3112
0
VERTEX
8
CUT
10
84.3
20
10.8938
0
VERTEX
8
CUT
10
85.5
20
11.5112
0
VERTEX
8
CUT
10
86.7
20
11.9614
0
VERTEX
8
CUT
10
87.9
20
12.0971
0
VERTEX
8
CUT
10
89.1
20
11.874
0
VERTEX
8
CUT
10
90.3
20
11.3651
0
VERTEX
8
CUT
10
91.5
20
10.7368
0
VERTEX
8
CUT
10
92.7
20
10.1945
0
VERTEX
8
CUT
10
93.9
20
9.9157
0
VERTEX
8
CUT
10
95.1
20
9.9915
0
VERTEX
8
CUT
10
96.3
20
10.3972
0
VERTEX
8
CUT
10
97.5
20
11
0
VERTEX
8
CUT
10
98.7
20
11.6028
0
VERTEX
8
CUT
10
99.9
20
12.0085
0
VERTEX
8
CUT
10
101.1
20
12.0843
0
VERTEX
8
CUT
10
102.3
20
11.8055
0
VERTEX
8
CUT
10
103.5
20
11.2632
0
VERTEX
8
CUT
10
104.7
20
10.6349
0
VERTEX
8
CUT
10
105.9
20
10.126
0
VERTEX
8
CUT
10
107.1
20
9.9029
0
VERTEX
8
CUT
10
108.3
20
10.0386
0
VERTEX
8
CUT
10
109.5
20
10.4888
0
SEQEND
0
POLYLINE
8
CUT
66
1
70
0
0
VERTEX
8
CUT
10
111
20
11.2632
0
VERTEX
8
CUT
10
112.2
20
11.8055
0
VERTEX
8
CUT
10
113.4
20
12.0843
0
VERTEX
8
CUT
10
114.6
20
12.0085
0
VERTEX
8
CUT
10
115.8
20
11.6028
0
VERTEX
8
CUT
10
117
20
11
0
VERTEX
8
CUT
10
118.2
20
10.3972
0
VERTEX
8
CUT
10
119.4
20
9.9915
0
VERTEX
8
CUT
10
120
20
9.9536
0
SEQEND
0
POLYLINE
8
CUT
66
1
70
0
0
VERTEX
8
CUT
10
0.75
20
6.6099
0
VERTEX
8
CUT
10
1.95
20
6.1101
0
VERTEX
8
CUT
10
3.15
20
5.9013
0
VERTEX
8
CUT
10
4.35
20
6.0518
0
VERTEX
8
CUT
10
5.55
20
6.5125
0
VERTEX
8
CUT
10
6.75
20
7.1326
0
VERTEX
8
CUT
10
7.95
20
7.7093
0
VERTEX
8
CUT
10
9.15
20
8.0541
0
VERTEX
8
CUT
10
10.35
20
8.0541
0
VERTEX
8
CUT
10
11.55
20
7.7093
0
VERTEX
8
CUT
10
12.75
20
7.1326
0
VERTEX
8
CUT
10
13.95
20
6.5125
0
VERTEX
8
CUT
10
15.15
20
6.0518
0
VERTEX
8
CUT
10
16.35
20
5.9013
0
VERTEX
8
CUT
10
17.55
20
6.1101
0
VERTEX
8
CUT
10
18.75
20
6.6099
0
VERTEX
8
CUT
10
19.95
20
7.2374
0
VERTEX
8
CUT
10
21.15
20
7.7872
0
VERTEX
8
CUT
10
22.35
20
8.0795
0
VERTEX
8
CUT
10
23.55
20
8.0188
0
VERTEX
8
CUT
10
24.75
20
7.6249
0
VERTEX
8
CUT
10
25.95
20
7.0266
0
VERTEX
8
CUT
10
27.15
20
6.4196
0
VERTEX
8
CUT
10
28.35
20
6.0024
0
VERTEX
8
CUT
10
29.55
20
5.9115
0
VERTEX
8
CUT
10
30.75
20
6.1766
0
SEQEND
0
POLYLINE
8
CUT
66
1
70
0
0
VERTEX
8
CUT
10
32.25
20
6.8674
0
VERTEX
8
CUT
10
33.45
20
7.4875
0
VERTEX
8
CUT
10
34.65
20
7.9482
0
VERTEX
8
CUT
10
35.85
20
8.0987
0
VERTEX
8
CUT
10
37.05
20
7.8899
0
VERTEX
8
CUT
10
38.25
20
7.3901
0
VERTEX
8
CUT
10
39.45
20
6.7626
0
VERTEX
8
CUT
10
40.65
20
6.2128
0
VERTEX
8
CUT
10
41.85
20
5.9205
0
VERTEX
8
CUT
10
43.05
20
5.9812
0
VERTEX
8
CUT
10
44.25
20
6.3751
0
VERTEX
8
CUT
10
45.45
20
6.9734
0
VERTEX
8
CUT
10
46.65
20
7.5804
0
VERTEX
8
CUT
10
47.85
20
7.9976
0
VERTEX
8
CUT
10
49.05
20
8.0885
0
VERTEX
8
CUT
10
50.25
20
7.8234
0
VERTEX
8
CUT
10
51.45
20
7.289
0
VERTEX
8
CUT
10
52.65
20
6.6601
0
VERTEX
8
CUT
10
53.85
20
6.1424
0
VERTEX
8
CUT
10
55.05
20
5.9051
0
VERTEX
8
CUT
10
56.25
20
6.026
0
VERTEX
8
CUT
10
57.45
20
6.4654
0
VERTEX
8
CUT
10
58.65
20
7.0797
0
VERTEX
8
CUT
10
59.85
20
7.6679
0
VERTEX
8
CUT
10
61.05
20
8.0376
0
VERTEX
8
CUT
10
62.25
20
8.068
0
SEQEND
0
POLYLINE
8
CUT
66
1
70
0
0
VERTEX
8
CUT
10
63.75
20
7.6249
0
VERTEX
8
CUT
10
64.95
20
7.0266
0
VERTEX
8
CUT
10
66.15
20
6.4196
0
VERTEX
8
CUT
10
67.35
20
6.0024
0
VERTEX
8
CUT
10
68.55
20
5.9115
0
VERTEX
8
CUT
10
69.75
20
6.1766
0
VERTEX
8
CUT
10
70.95
20
6.711
0
VERTEX
8
CUT
10
72.15
20
7.3399
0
VERTEX
8
CUT
10
73.35
20
7.8576
0
VERTEX
8
CUT
10
74.55
20
8.0949
0
VERTEX
8
CUT
10
75.75
20
7.974
0
VERTEX
8
CUT
10
76.95
20
7.5346
0
VERTEX
8
CUT
10
78.15
20
6.9203
0
VERTEX
8
CUT
10
79.35
20
6.3321
0
VERTEX
8
CUT
10
80.55
20
5.9624
0
VERTEX
8
CUT
10
81.75
20
5.932
0
VERTEX
8
CUT
10
82.95
20
6.2509
0
VERTEX
8
CUT
10
84.15
20
6.8148
0
VERTEX
8
CUT
10
85.35
20
7.4393
0
VERTEX
8
CUT
10
86.55
20
7.9201
0
VERTEX
8
CUT
10
87.75
20
8.1
0
VERTEX
8
CUT
10
88.95
20
7.9201
0
VERTEX
8
CUT
10
90.15
20
7.4393
0
VERTEX
8
CUT
10
91.35
20
6.8148
0
VERTEX
8
CUT
10
92.55
20
6.2509
0
VERTEX
8
CUT
10
93.75
20
5.932
0
SEQEND
0
POLYLINE
8
CUT
66
1
70
0
0
VERTEX
8
CUT
10
95.25
20
6.026
0
VERTEX
8
CUT
10
96.45
20
6.4654
0
VERTEX
8
CUT
10
97.65
20
7.0797
0
VERTEX
8
CUT
10
98.85
20
7.6679
0
VERTEX
8
CUT
10
100.05
20
8.0376
0
VERTEX
8
CUT
10
101.25
20
8.068
0
VERTEX
8
CUT
10
102.45
20
7.7491
0
VERTEX
8
CUT
10
103.65
20
7.1852
0
VERTEX
8
CUT
10
104.85
20
6.5607
0
VERTEX
8
CUT
10
106.05
20
6.0799
0
VERTEX
8
CUT
10
107.25
20
5.9
0
VERTEX
8
CUT
10
108.45
20
6.0799
0
VERTEX
8
CUT
10
109.65
20
6.5607
0
VERTEX
8
CUT
10
110.85
20
7.1852
0
VERTEX
8
CUT
10
112.05
20
7.7491
0
VERTEX
8
CUT
10
113.25
20
8.068
0
VERTEX
8
CUT
10
114.45
20
8.0376
0
VERTEX
8
CUT
10
115.65
20
7.6679
0
VERTEX
8
CUT
10
116.85
20
7.0797
0
VERTEX
8
CUT
10
118.05
20
6.4654
0
VERTEX
8
CUT
10
119.25
20
6.026
0
VERTEX
8
CUT
10
120
20
5.9505
0
SEQEND
0
POLYLINE
8
CUT
66
1
70
0
0
VERTEX
8
CUT
10
0
20
3
0
VERTEX
8
CUT
10
0.6
20
2.6855
0
VERTEX
8
CUT
10
1.8
20
2.1593
0
VERTEX
8
CUT
10
3
20
1.908
0
VERTEX
8
CUT
10
4.2
20
2.0139
0
VERTEX
8
CUT
10
5.4
20
2.4423
0
VERTEX
8
CUT
10
6.6
20
3.0531
0
VERTEX
8
CUT
10
7.8
20
3.6466
0
VERTEX
8
CUT
10
9
20
4.0285
0
VERTEX
8
CUT
10
10.2
20
4.0741
0
VERTEX
8
CUT
10
11.4
20
3.7684
0
VERTEX
8
CUT
10
12.6
20
3.2113
0
VERTEX
8
CUT
10
13.8
20
2.5852
0
VERTEX
8
CUT
10
15
20
2.0947
0
SEQEND
0
POLYLINE
8
CUT
66
1
70
0
0
VERTEX
8
CUT
10
16.5
20
1.908
0
VERTEX
8
CUT
10
17.7
20
2.1593
0
VERTEX
8
CUT
10
18.9
20
2.6855
0
VERTEX
8
CUT
10
20.1
20
3.3145
0
VERTEX
8
CUT
10
21.3
20
3.8407
0
VERTEX
8
CUT
10
22.5
20
4.092
0
VERTEX
8
CUT
10
23.7
20
3.9861
0
VERTEX
8
CUT
10
24.9
20
3.5577
0
VERTEX
8
CUT
10
26.1
20
2.9469
0
VERTEX
8
CUT
10
27.3
20
2.3534
0
VERTEX
8
CUT
10
28.5
20
1.9715
0
VERTEX
8
CUT
10
29.7
20
1.9259
0
VERTEX
8
CUT
10
30.9
20
2.2316
0
VERTEX
8
CUT
10
32.1
20
2.7887
0
VERTEX
8
CUT
10
33.3
20
3.4148
0
VERTEX
8
CUT
10
34.5
20
3.9053
0
VERTEX
8
CUT
10
35.7
20
4.0997
0
VERTEX
8
CUT
10
36.9
20
3.9344
0
VERTEX
8
CUT
10
38.1
20
3.4635
0
VERTEX
8
CUT
10
39.3
20
2.8411
0
VERTEX
8
CUT
10
40.5
20
2.2706
0
VERTEX
8
CUT
10
41.7
20
1.9386
0
VERTEX
8
CUT
10
42.9
20
1.9538
0
VERTEX
8
CUT
10
44.1
20
2.3112
0
VERTEX
8
CUT
10
45.3
20
2.8938
0
VERTEX
8
CUT
10
46.5
20
3.5112
0
SEQEND
0
POLYLINE
8
CUT
66
1
70
0
0
VERTEX
8
CUT
10
48
20
4.0285
0
VERTEX
8
CUT
10
49.2
20
4.0741
0
VERTEX
8
CUT
10
50.4
20
3.7684
0
VERTEX
8
CUT
10
51.6
20
3.2113
0
VERTEX
8
CUT
10
52.8
20
2.5852
0
VERTEX
8
CUT
10
54
20
2.0947
0
VERTEX
8
CUT
10
55.2
20
1.9003
0
VERTEX
8
CUT
10
56.4
20
2.0656
0
VERTEX
8
CUT
10
57.6
20
2.5365
0
VERTEX
8
CUT
10
58.8
20
3.1589
0
VERTEX
8
CUT
10
60
20
3.7294
0
VERTEX
8
CUT
10
61.2
20
4.0614
0
VERTEX
8
CUT
10
62.4
20
4.0462
0
VERTEX
8
CUT
10
63.6
20
3.6888
0
VERTEX
8
CUT
10
64.8
20
3.1062
0
VERTEX
8
CUT
10
66
20
2.4888
0
VERTEX
8
CUT
10
67.2
20
2.0386
0
VERTEX
8
CUT
10
68.4
20
1.9029
0
VERTEX
8
CUT
10
69.6
20
2.126
0
VERTEX
8
CUT
10
70.8
20
2.6349
0
VERTEX
8
CUT
10
72
20
3.2632
0
VERTEX
8
CUT
10
73.2
20
3.8055
0
VERTEX
8
CUT
10
74.4
20
4.0843
0
VERTEX
8
CUT
10
75.6
20
4.0085
0
VERTEX
8
CUT
10
76.8
20
3.6028
0
VERTEX
8
CUT
10
78
20
3
0
SEQEND
0
POLYLINE
8
CUT
66
1
70
0
0
VERTEX
8
CUT
10
79.5
20
2.2706
0
VERTEX
8
CUT
10
80.7
20
1.9386
0
VERTEX
8
CUT
10
81.9
20
1.9538
0
VERTEX
8
CUT
10
83.1
20
2.3112
0
VERTEX
8
CUT
10
84.3
20
2.8938
0
VERTEX
8
CUT
10
85.5
20
3.5112
0
VERTEX
8
CUT
10
86.7
20
3.9614
0
VERTEX
8
CUT
10
87.9
20
4.0971
0
VERTEX
8
CUT
10
89.1
20
3.874
0
VERTEX
8
CUT
10
90.3
20
3.3651
0
VERTEX
8
CUT
10
91.5
20
2.7368
0
VERTEX
8
CUT
10
92.7
20
2.1945
0
VERTEX
8
CUT
10
93.9
20
1.9157
0
VERTEX
8
CUT
10
95.1
20
1.9915
0
VERTEX
8
CUT
10
96.3
20
2.3972
0
VERTEX
8
CUT
10
97.5
20
3
0
VERTEX
8
CUT
10
98.7
20
3.6028
0
VERTEX
8
CUT
10
99.9
20
4.0085
0
VERTEX
8
CUT
10
101.1
20
4.0843
0
VERTEX
8
CUT
10
102.3
20
3.8055
0
VERTEX
8
CUT
10
103.5
20
3.2632
0
VERTEX
8
CUT
10
104.7
20
2.6349
0
VERTEX
8
CUT
10
105.9
20
2.126
0
VERTEX
8
CUT
10
107.1
20
1.9029
0
VERTEX
8
CUT
10
108.3
20
2.0386
0
VERTEX
8
CUT
10
109.5
20
2.4888
0
SEQEND
0
POLYLINE
8
CUT
66
1
70
0
0
VERTEX
8
CUT
10
111
20
3.2632
0
VERTEX
8
CUT
10
112.2
20
3.8055
0
VERTEX
8
CUT
10
113.4
20
4.0843
0
VERTEX
8
CUT
10
114.6
20
4.0085
0
VERTEX
8
CUT
10
115.8
20
3.6028
0
VERTEX
8
CUT
10
117
20
3
0
VERTEX
8
CUT
10
118.2
20
2.3972
0
VERTEX
8
CUT
10
119.4
20
1.9915
0
VERTEX
8
CUT
10
120
20
1.9536
0
SEQEND
0
POLYLINE
8
CUT
66
1
70
0
0
VERTEX
8
CUT
10
0
20
70
0
VERTEX
8
CUT
10
120
20
70
0
VERTEX
8
CUT
10
120
20
0
0
VERTEX
8
CUT
10
0
20
0
0
VERTEX
8
CUT
10
0
20
70
0
SEQEND
0
ENDSEC
0
EOF
