0
SECTION
2
HEADER
9
$ACADVER
1
AC1009
9
$INSUNITS
70
4
0
ENDSEC
0
SECTION
2
TABLES
0
TABLE
2
LAYER
70
1
0
LAYER
2
CUT
70
0
62
1
6
CONTINUOUS
0
ENDTAB
0
ENDSEC
0
SECTION
2
ENTITIES
0
LINE
8
CUT
10
6
20
70
11
6
21
56
0
LINE
8
CUT
10
3.25
20
63
11
8.75
21
63
0
LINE
8
CUT
10
6
20
53
11
6
21
39
0
LINE
8
CUT
10
3.25
20
46
11
8.75
21
46
0
LINE
8
CUT
10
6
20
36
11
6
21
22
0
LINE
8
CUT
10
3.25
20
29
11
8.75
21
29
0
LINE
8
CUT
10
6
20
19
11
6
21
5
0
LINE
8
CUT
10
3.25
20
12
11
8.75
21
12
0
LINE
8
CUT
10
6
20
2
11
6
21
0
0
LINE
8
CUT
10
15
20
70
11
15
21
64.5
0
LINE
8
CUT
10
15
20
61.5
11
15
21
47.5
0
LINE
8
CUT
10
12.25
20
54.5
11
17.75
21
54.5
0
LINE
8
CUT
10
15
20
44.5
11
15
21
30.5
0
LINE
8
CUT
10
12.25
20
37.5
11
17.75
21
37.5
0
LINE
8
CUT
10
15
20
27.5
11
15
21
13.5
0
LINE
8
CUT
10
12.25
20
20.5
11
17.75
21
20.5
0
LINE
8
CUT
10
15
20
10.5
11
15
21
0
0
LINE
8
CUT
10
12.25
20
3.5
11
17.75
21
3.5
0
LINE
8
CUT
10
24
20
70
11
24
21
56
0
LINE
8
CUT
10
21.25
20
63
11
26.75
21
63
0
LINE
8
CUT
10
24
20
53
11
24
21
39
0
LINE
8
CUT
10
21.25
20
46
11
26.75
21
46
0
LINE
8
CUT
10
24
20
36
11
24
21
22
0
LINE
8
CUT
10
21.25
20
29
11
26.75
21
29
0
LINE
8
CUT
10
24
20
19
11
24
21
5
0
LINE
8
CUT
10
21.25
20
12
11
26.75
21
12
0
LINE
8
CUT
10
24
20
2
11
24
21
0
0
LINE
8
CUT
10
33
20
70
11
33
21
64.5
0
LINE
8
CUT
10
33
20
61.5
11
33
21
47.5
0
LINE
8
CUT
10
30.25
20
54.5
11
35.75
21
54.5
0
LINE
8
CUT
10
33
20
44.5
11
33
21
30.5
0
LINE
8
CUT
10
30.25
20
37.5
11
35.75
21
37.5
0
LINE
8
CUT
10
33
20
27.5
11
33
21
13.5
0
LINE
8
CUT
10
30.25
20
20.5
11
35.75
21
20.5
0
LINE
8
CUT
10
33
20
10.5
11
33
21
0
0
LINE
8
CUT
10
30.25
20
3.5
11
35.75
21
3.5
0
LINE
8
CUT
10
42
20
70
11
42
21
56
0
LINE
8
CUT
10
39.25
20
63
11
44.75
21
63
0
LINE
8
CUT
10
42
20
53
11
42
21
39
0
LINE
8
CUT
10
39.25
20
46
11
44.75
21
46
0
LINE
8
CUT
10
42
20
36
11
42
21
22
0
LINE
8
CUT
10
39.25
20
29
11
44.75
21
29
0
LINE
8
CUT
10
42
20
19
11
42
21
5
0
LINE
8
CUT
10
39.25
20
12
11
44.75
21
12
0
LINE
8
CUT
10
42
20
2
11
42
21
0
0
LINE
8
CUT
10
51
20
70
11
51
21
64.5
0
LINE
8
CUT
10
51
20
61.5
11
51
21
47.5
0
LINE
8
CUT
10
48.25
20
54.5
11
53.75
21
54.5
0
LINE
8
CUT
10
51
20
44.5
11
51
21
30.5
0
LINE
8
CUT
10
48.25
20
37.5
11
53.75
21
37.5
0
LINE
8
CUT
10
51
20
27.5
11
51
21
13.5
0
LINE
8
CUT
10
48.25
20
20.5
11
53.75
21
20.5
0
LINE
8
CUT
10
51
20
10.5
11
51
21
0
0
LINE
8
CUT
10
48.25
20
3.5
11
53.75
21
3.5
0
LINE
8
CUT
10
60
20
70
11
60
21
56
0
LINE
8
CUT
10
57.25
20
63
11
62.75
21
63
0
LINE
8
CUT
10
60
20
53
11
60
21
39
0
LINE
8
CUT
10
57.25
20
46
11
62.75
21
46
0
LINE
8
CUT
10
60
20
36
11
60
21
22
0
LINE
8
CUT
10
57.25
20
29
11
62.75
21
29
0
LINE
8
CUT
10
60
20
19
11
60
21
5
0
LINE
8
CUT
10
57.25
20
12
11
62.75
21
12
0
LINE
8
CUT
10
60
20
2
11
60
21
0
0
LINE
8
CUT
10
69
20
70
11
69
21
64.5
0
LINE
8
CUT
10
69
20
61.5
11
69
21
47.5
0
LINE
8
CUT
10
66.25
20
54.5
11
71.75
21
54.5
0
LINE
8
CUT
10
69
20
44.5
11
69
21
30.5
0
LINE
8
CUT
10
66.25
20
37.5
11
71.75
21
37.5
0
LINE
8
CUT
10
69
20
27.5
11
69
21
13.5
0
LINE
8
CUT
10
66.25
20
20.5
11
71.75
21
20.5
0
LINE
8
CUT
10
69
20
10.5
11
69
21
0
0
LINE
8
CUT
10
66.25
20
3.5
11
71.75
21
3.5
0
LINE
8
CUT
10
78
20
70
11
78
21
56
0
LINE
8
CUT
10
75.25
20
63
11
80.75
21
63
0
LINE
8
CUT
10
78
20
53
11
78
21
39
0
LINE
8
CUT
10
75.25
20
46
11
80.75
21
46
0
LINE
8
CUT
10
78
20
36
11
78
21
22
0
LINE
8
CUT
10
75.25
20
29
11
80.75
21
29
0
LINE
8
CUT
10
78
20
19
11
78
21
5
0
LINE
8
CUT
10
75.25
20
12
11
80.75
21
12
0
LINE
8
CUT
10
78
20
2
11
78
21
0
0
LINE
8
CUT
10
87
20
70
11
87
21
64.5
0
LINE
8
CUT
10
87
20
61.5
11
87
21
47.5
0
LINE
8
CUT
10
84.25
20
54.5
11
89.75
21
54.5
0
LINE
8
CUT
10
87
20
44.5
11
87
21
30.5
0
LINE
8
CUT
10
84.25
20
37.5
11
89.75
21
37.5
0
LINE
8
CUT
10
87
20
27.5
11
87
21
13.5
0
LINE
8
CUT
10
84.25
20
20.5
11
89.75
21
20.5
0
LINE
8
CUT
10
87
20
10.5
11
87
21
0
0
LINE
8
CUT
10
84.25
20
3.5
11
89.75
21
3.5
0
LINE
8
CUT
10
96
20
70
11
96
21
56
0
LINE
8
CUT
10
93.25
20
63
11
98.75
21
63
0
LINE
8
CUT
10
96
20
53
11
96
21
39
0
LINE
8
CUT
10
93.25
20
46
11
98.75
21
46
0
LINE
8
CUT
10
96
20
36
11
96
21
22
0
LINE
8
CUT
10
93.25
20
29
11
98.75
21
29
0
LINE
8
CUT
10
96
20
19
11
96
21
5
0
LINE
8
CUT
10
93.25
20
12
11
98.75
21
12
0
LINE
8
CUT
10
96
20
2
11
96
21
0
0
LINE
8
CUT
10
105
20
70
11
105
21
64.5
0
LINE
8
CUT
10
105
20
61.5
11
105
21
47.5
0
LINE
8
CUT
10
102.25
20
54.5
11
107.75
21
54.5
0
LINE
8
CUT
10
105
20
44.5
11
105
21
30.5
0
LINE
8
CUT
10
102.25
20
37.5
11
107.75
21
37.5
0
LINE
8
CUT
10
105
20
27.5
11
105
21
13.5
0
LINE
8
CUT
10
102.25
20
20.5
11
107.75
21
20.5
0
LINE
8
CUT
10
105
20
10.5
11
105
21
0
0
LINE
8
CUT
10
102.25
20
3.5
11
107.75
21
3.5
0
LINE
8
CUT
10
114
20
70
11
114
21
56
0
LINE
8
CUT
10
111.25
20
63
11
116.75
21
63
0
LINE
8
CUT
10
114
20
53
11
114
21
39
0
LINE
8
CUT
10
111.25
20
46
11
116.75
21
46
0
LINE
8
CUT
10
114
20
36
11
114
21
22
0
LINE
8
CUT
10
111.25
20
29
11
116.75
21
29
0
LINE
8
CUT
10
114
20
19
11
114
21
5
0
LINE
8
CUT
10
111.25
20
12
11
116.75
21
12
0
LINE
8
CUT
10
114
20
2
11
114
21
0
0
POLYLINE
8
CUT
66
1
70
0
0
VERTEX
8
CUT
10
0
20
70
0
VERTEX
8
CUT
10
120
20
70
0
VERTEX
8
CUT
10
120
20
0
0
VERTEX
8
CUT
10
0
20
0
0
VERTEX
8
CUT
10
0
20
70
0
SEQEND
0
ENDSEC
0
EOF
