0
SECTION
2
HEADER
9
$ACADVER
1
AC1009
9
$INSUNITS
70
4
0
ENDSEC
0
SECTION
2
TABLES
0
TABLE
2
LAYER
70
1
0
LAYER
2
CUT
70
0
62
1
6
CONTINUOUS
0
ENDTAB
0
ENDSEC
0
SECTION
2
ENTITIES
0
LINE
8
CUT
10
2
20
70
11
2
21
55
0
LINE
8
CUT
10
2
20
53.5
11
2
21
23.5
0
LINE
8
CUT
10
2
20
22
11
2
21
0
0
LINE
8
CUT
10
6
20
69.25
11
6
21
39.25
0
LINE
8
CUT
10
6
20
37.75
11
6
21
7.75
0
LINE
8
CUT
10
6
20
6.25
11
6
21
0
0
LINE
8
CUT
10
10
20
70
11
10
21
55
0
LINE
8
CUT
10
10
20
53.5
11
10
21
23.5
0
LINE
8
CUT
10
10
20
22
11
10
21
0
0
LINE
8
CUT
10
14
20
69.25
11
14
21
39.25
0
LINE
8
CUT
10
14
20
37.75
11
14
21
7.75
0
LINE
8
CUT
10
14
20
6.25
11
14
21
0
0
LINE
8
CUT
10
18
20
70
11
18
21
55
0
LINE
8
CUT
10
18
20
53.5
11
18
21
23.5
0
LINE
8
CUT
10
18
20
22
11
18
21
0
0
LINE
8
CUT
10
22
20
69.25
11
22
21
39.25
0
LINE
8
CUT
10
22
20
37.75
11
22
21
7.75
0
LINE
8
CUT
10
22
20
6.25
11
22
21
0
0
LINE
8
CUT
10
26
20
70
11
26
21
55
0
LINE
8
CUT
10
26
20
53.5
11
26
21
23.5
0
LINE
8
CUT
10
26
20
22
11
26
21
0
0
LINE
8
CUT
10
30
20
69.25
11
30
21
39.25
0
LINE
8
CUT
10
30
20
37.75
11
30
21
7.75
0
LINE
8
CUT
10
30
20
6.25
11
30
21
0
0
LINE
8
CUT
10
34
20
70
11
34
21
55
0
LINE
8
CUT
10
34
20
53.5
11
34
21
23.5
0
LINE
8
CUT
10
34
20
22
11
34
21
0
0
LINE
8
CUT
10
38
20
69.25
11
38
21
39.25
0
LINE
8
CUT
10
38
20
37.75
11
38
21
7.75
0
LINE
8
CUT
10
38
20
6.25
11
38
21
0
0
LINE
8
CUT
10
42
20
70
11
42
21
55
0
LINE
8
CUT
10
42
20
53.5
11
42
21
23.5
0
LINE
8
CUT
10
42
20
22
11
42
21
0
0
LINE
8
CUT
10
46
20
69.25
11
46
21
39.25
0
LINE
8
CUT
10
46
20
37.75
11
46
21
7.75
0
LINE
8
CUT
10
46
20
6.25
11
46
21
0
0
LINE
8
CUT
10
50
20
70
11
50
21
55
0
LINE
8
CUT
10
50
20
53.5
11
50
21
23.5
0
LINE
8
CUT
10
50
20
22
11
50
21
0
0
LINE
8
CUT
10
54
20
69.25
11
54
21
39.25
0
LINE
8
CUT
10
54
20
37.75
11
54
21
7.75
0
LINE
8
CUT
10
54
20
6.25
11
54
21
0
0
LINE
8
CUT
10
58
20
70
11
58
21
55
0
LINE
8
CUT
10
58
20
53.5
11
58
21
23.5
0
LINE
8
CUT
10
58
20
22
11
58
21
0
0
LINE
8
CUT
10
62
20
69.25
11
62
21
39.25
0
LINE
8
CUT
10
62
20
37.75
11
62
21
7.75
0
LINE
8
CUT
10
62
20
6.25
11
62
21
0
0
LINE
8
CUT
10
66
20
70
11
66
21
55
0
LINE
8
CUT
10
66
20
53.5
11
66
21
23.5
0
LINE
8
CUT
10
66
20
22
11
66
21
0
0
LINE
8
CUT
10
70
20
69.25
11
70
21
39.25
0
LINE
8
CUT
10
70
20
37.75
11
70
21
7.75
0
LINE
8
CUT
10
70
20
6.25
11
70
21
0
0
LINE
8
CUT
10
74
20
70
11
74
21
55
0
LINE
8
CUT
10
74
20
53.5
11
74
21
23.5
0
LINE
8
CUT
10
74
20
22
11
74
21
0
0
LINE
8
CUT
10
78
20
69.25
11
78
21
39.25
0
LINE
8
CUT
10
78
20
37.75
11
78
21
7.75
0
LINE
8
CUT
10
78
20
6.25
11
78
21
0
0
LINE
8
CUT
10
82
20
70
11
82
21
55
0
LINE
8
CUT
10
82
20
53.5
11
82
21
23.5
0
LINE
8
CUT
10
82
20
22
11
82
21
0
0
LINE
8
CUT
10
86
20
69.25
11
86
21
39.25
0
LINE
8
CUT
10
86
20
37.75
11
86
21
7.75
0
LINE
8
CUT
10
86
20
6.25
11
86
21
0
0
LINE
8
CUT
10
90
20
70
11
90
21
55
0
LINE
8
CUT
10
90
20
53.5
11
90
21
23.5
0
LINE
8
CUT
10
90
20
22
11
90
21
0
0
LINE
8
CUT
10
94
20
69.25
11
94
21
39.25
0
LINE
8
CUT
10
94
20
37.75
11
94
21
7.75
0
LINE
8
CUT
10
94
20
6.25
11
94
21
0
0
LINE
8
CUT
10
98
20
70
11
98
21
55
0
LINE
8
CUT
10
98
20
53.5
11
98
21
23.5
0
LINE
8
CUT
10
98
20
22
11
98
21
0
0
LINE
8
CUT
10
102
20
69.25
11
102
21
39.25
0
LINE
8
CUT
10
102
20
37.75
11
102
21
7.75
0
LINE
8
CUT
10
102
20
6.25
11
102
21
0
0
LINE
8
CUT
10
106
20
70
11
106
21
55
0
LINE
8
CUT
10
106
20
53.5
11
106
21
23.5
0
LINE
8
CUT
10
106
20
22
11
106
21
0
0
LINE
8
CUT
10
110
20
69.25
11
110
21
39.25
0
LINE
8
CUT
10
110
20
37.75
11
110
21
7.75
0
LINE
8
CUT
10
110
20
6.25
11
110
21
0
0
LINE
8
CUT
10
114
20
70
11
114
21
55
0
LINE
8
CUT
10
114
20
53.5
11
114
21
23.5
0
LINE
8
CUT
10
114
20
22
11
114
21
0
0
LINE
8
CUT
10
118
20
69.25
11
118
21
39.25
0
LINE
8
CUT
10
118
20
37.75
11
118
21
7.75
0
LINE
8
CUT
10
118
20
6.25
11
118
21
0
0
POLYLINE
8
CUT
66
1
70
0
0
VERTEX
8
CUT
10
0
20
70
0
VERTEX
8
CUT
10
120
20
70
0
VERTEX
8
CUT
10
120
20
0
0
VERTEX
8
CUT
10
0
20
0
0
VERTEX
8
CUT
10
0
20
70
0
SEQEND
0
ENDSEC
0
EOF
