0
SECTION
2
HEADER
9
$ACADVER
1
AC1009
9
$INSUNITS
70
4
0
ENDSEC
0
SECTION
2
TABLES
0
TABLE
2
LAYER
70
1
0
LAYER
2
CUT
70
0
62
1
6
CONTINUOUS
0
ENDTAB
0
ENDSEC
0
SECTION
2
ENTITIES
0
POLYLINE
8
CUT
66
1
70
0
0
VERTEX
8
CUT
10
0
20
67
0
VERTEX
8
CUT
10
15
20
66
0
VERTEX
8
CUT
10
30
20
67
0
VERTEX
8
CUT
10
15
20
68
0
VERTEX
8
CUT
10
0
20
67
0
SEQEND
0
POLYLINE
8
CUT
66
1
70
0
0
VERTEX
8
CUT
10
31.5
20
67
0
VERTEX
8
CUT
10
46.5
20
66
0
VERTEX
8
CUT
10
61.5
20
67
0
VERTEX
8
CUT
10
46.5
20
68
0
VERTEX
8
CUT
10
31.5
20
67
0
SEQEND
0
POLYLINE
8
CUT
66
1
70
0
0
VERTEX
8
CUT
10
63
20
67
0
VERTEX
8
CUT
10
78
20
66
0
VERTEX
8
CUT
10
93
20
67
0
VERTEX
8
CUT
10
78
20
68
0
VERTEX
8
CUT
10
63
20
67
0
SEQEND
0
POLYLINE
8
CUT
66
1
70
0
0
VERTEX
8
CUT
10
94.5
20
67
0
VERTEX
8
CUT
10
109.5
20
66
0
VERTEX
8
CUT
10
120
20
66.7
0
SEQEND
0
POLYLINE
8
CUT
66
1
70
0
0
VERTEX
8
CUT
10
120
20
67.3
0
VERTEX
8
CUT
10
109.5
20
68
0
VERTEX
8
CUT
10
94.5
20
67
0
SEQEND
0
POLYLINE
8
CUT
66
1
70
0
0
VERTEX
8
CUT
10
0
20
62.05
0
VERTEX
8
CUT
10
14.25
20
63
0
VERTEX
8
CUT
10
0
20
63.95
0
SEQEND
0
POLYLINE
8
CUT
66
1
70
0
0
VERTEX
8
CUT
10
15.75
20
63
0
VERTEX
8
CUT
10
30.75
20
62
0
VERTEX
8
CUT
10
45.75
20
63
0
VERTEX
8
CUT
10
30.75
20
64
0
VERTEX
8
CUT
10
15.75
20
63
0
SEQEND
0
POLYLINE
8
CUT
66
1
70
0
0
VERTEX
8
CUT
10
47.25
20
63
0
VERTEX
8
CUT
10
62.25
20
62
0
VERTEX
8
CUT
10
77.25
20
63
0
VERTEX
8
CUT
10
62.25
20
64
0
VERTEX
8
CUT
10
47.25
20
63
0
SEQEND
0
POLYLINE
8
CUT
66
1
70
0
0
VERTEX
8
CUT
10
78.75
20
63
0
VERTEX
8
CUT
10
93.75
20
62
0
VERTEX
8
CUT
10
108.75
20
63
0
VERTEX
8
CUT
10
93.75
20
64
0
VERTEX
8
CUT
10
78.75
20
63
0
SEQEND
0
LINE
8
CUT
10
110.25
20
63
11
120
21
62.35
0
LINE
8
CUT
10
120
20
63.65
11
110.25
21
63
0
POLYLINE
8
CUT
66
1
70
0
0
VERTEX
8
CUT
10
0
20
59
0
VERTEX
8
CUT
10
15
20
58
0
VERTEX
8
CUT
10
30
20
59
0
VERTEX
8
CUT
10
15
20
60
0
VERTEX
8
CUT
10
0
20
59
0
SEQEND
0
POLYLINE
8
CUT
66
1
70
0
0
VERTEX
8
CUT
10
31.5
20
59
0
VERTEX
8
CUT
10
46.5
20
58
0
VERTEX
8
CUT
10
61.5
20
59
0
VERTEX
8
CUT
10
46.5
20
60
0
VERTEX
8
CUT
10
31.5
20
59
0
SEQEND
0
POLYLINE
8
CUT
66
1
70
0
0
VERTEX
8
CUT
10
63
20
59
0
VERTEX
8
CUT
10
78
20
58
0
VERTEX
8
CUT
10
93
20
59
0
VERTEX
8
CUT
10
78
20
60
0
VERTEX
8
CUT
10
63
20
59
0
SEQEND
0
POLYLINE
8
CUT
66
1
70
0
0
VERTEX
8
CUT
10
94.5
20
59
0
VERTEX
8
CUT
10
109.5
20
58
0
VERTEX
8
CUT
10
120
20
58.7
0
SEQEND
0
POLYLINE
8
CUT
66
1
70
0
0
VERTEX
8
CUT
10
120
20
59.3
0
VERTEX
8
CUT
10
109.5
20
60
0
VERTEX
8
CUT
10
94.5
20
59
0
SEQEND
0
POLYLINE
8
CUT
66
1
70
0
0
VERTEX
8
CUT
10
0
20
54.05
0
VERTEX
8
CUT
10
14.25
20
55
0
VERTEX
8
CUT
10
0
20
55.95
0
SEQEND
0
POLYLINE
8
CUT
66
1
70
0
0
VERTEX
8
CUT
10
15.75
20
55
0
VERTEX
8
CUT
10
30.75
20
54
0
VERTEX
8
CUT
10
45.75
20
55
0
VERTEX
8
CUT
10
30.75
20
56
0
VERTEX
8
CUT
10
15.75
20
55
0
SEQEND
0
POLYLINE
8
CUT
66
1
70
0
0
VERTEX
8
CUT
10
47.25
20
55
0
VERTEX
8
CUT
10
62.25
20
54
0
VERTEX
8
CUT
10
77.25
20
55
0
VERTEX
8
CUT
10
62.25
20
56
0
VERTEX
8
CUT
10
47.25
20
55
0
SEQEND
0
POLYLINE
8
CUT
66
1
70
0
0
VERTEX
8
CUT
10
78.75
20
55
0
VERTEX
8
CUT
10
93.75
20
54
0
VERTEX
8
CUT
10
108.75
20
55
0
VERTEX
8
CUT
10
93.75
20
56
0
VERTEX
8
CUT
10
78.75
20
55
0
SEQEND
0
LINE
8
CUT
10
110.25
20
55
11
120
21
54.35
0
LINE
8
CUT
10
120
20
55.65
11
110.25
21
55
0
POLYLINE
8
CUT
66
1
70
0
0
VERTEX
8
CUT
10
0
20
51
0
VERTEX
8
CUT
10
15
20
50
0
VERTEX
8
CUT
10
30
20
51
0
VERTEX
8
CUT
10
15
20
52
0
VERTEX
8
CUT
10
0
20
51
0
SEQEND
0
POLYLINE
8
CUT
66
1
70
0
0
VERTEX
8
CUT
10
31.5
20
51
0
VERTEX
8
CUT
10
46.5
20
50
0
VERTEX
8
CUT
10
61.5
20
51
0
VERTEX
8
CUT
10
46.5
20
52
0
VERTEX
8
CUT
10
31.5
20
51
0
SEQEND
0
POLYLINE
8
CUT
66
1
70
0
0
VERTEX
8
CUT
10
63
20
51
0
VERTEX
8
CUT
10
78
20
50
0
VERTEX
8
CUT
10
93
20
51
0
VERTEX
8
CUT
10
78
20
52
0
VERTEX
8
CUT
10
63
20
51
0
SEQEND
0
POLYLINE
8
CUT
66
1
70
0
0
VERTEX
8
CUT
10
94.5
20
51
0
VERTEX
8
CUT
10
109.5
20
50
0
VERTEX
8
CUT
10
120
20
50.7
0
SEQEND
0
POLYLINE
8
CUT
66
1
70
0
0
VERTEX
8
CUT
10
120
20
51.3
0
VERTEX
8
CUT
10
109.5
20
52
0
VERTEX
8
CUT
10
94.5
20
51
0
SEQEND
0
POLYLINE
8
CUT
66
1
70
0
0
VERTEX
8
CUT
10
0
20
46.05
0
VERTEX
8
CUT
10
14.25
20
47
0
VERTEX
8
CUT
10
0
20
47.95
0
SEQEND
0
POLYLINE
8
CUT
66
1
70
0
0
VERTEX
8
CUT
10
15.75
20
47
0
VERTEX
8
CUT
10
30.75
20
46
0
VERTEX
8
CUT
10
45.75
20
47
0
VERTEX
8
CUT
10
30.75
20
48
0
VERTEX
8
CUT
10
15.75
20
47
0
SEQEND
0
POLYLINE
8
CUT
66
1
70
0
0
VERTEX
8
CUT
10
47.25
20
47
0
VERTEX
8
CUT
10
62.25
20
46
0
VERTEX
8
CUT
10
77.25
20
47
0
VERTEX
8
CUT
10
62.25
20
48
0
VERTEX
8
CUT
10
47.25
20
47
0
SEQEND
0
POLYLINE
8
CUT
66
1
70
0
0
VERTEX
8
CUT
10
78.75
20
47
0
VERTEX
8
CUT
10
93.75
20
46
0
VERTEX
8
CUT
10
108.75
20
47
0
VERTEX
8
CUT
10
93.75
20
48
0
VERTEX
8
CUT
10
78.75
20
47
0
SEQEND
0
LINE
8
CUT
10
110.25
20
47
11
120
21
46.35
0
LINE
8
CUT
10
120
20
47.65
11
110.25
21
47
0
POLYLINE
8
CUT
66
1
70
0
0
VERTEX
8
CUT
10
0
20
43
0
VERTEX
8
CUT
10
15
20
42
0
VERTEX
8
CUT
10
30
20
43
0
VERTEX
8
CUT
10
15
20
44
0
VERTEX
8
CUT
10
0
20
43
0
SEQEND
0
POLYLINE
8
CUT
66
1
70
0
0
VERTEX
8
CUT
10
31.5
20
43
0
VERTEX
8
CUT
10
46.5
20
42
0
VERTEX
8
CUT
10
61.5
20
43
0
VERTEX
8
CUT
10
46.5
20
44
0
VERTEX
8
CUT
10
31.5
20
43
0
SEQEND
0
POLYLINE
8
CUT
66
1
70
0
0
VERTEX
8
CUT
10
63
20
43
0
VERTEX
8
CUT
10
78
20
42
0
VERTEX
8
CUT
10
93
20
43
0
VERTEX
8
CUT
10
78
20
44
0
VERTEX
8
CUT
10
63
20
43
0
SEQEND
0
POLYLINE
8
CUT
66
1
70
0
0
VERTEX
8
CUT
10
94.5
20
43
0
VERTEX
8
CUT
10
109.5
20
42
0
VERTEX
8
CUT
10
120
20
42.7
0
SEQEND
0
POLYLINE
8
CUT
66
1
70
0
0
VERTEX
8
CUT
10
120
20
43.3
0
VERTEX
8
CUT
10
109.5
20
44
0
VERTEX
8
CUT
10
94.5
20
43
0
SEQEND
0
POLYLINE
8
CUT
66
1
70
0
0
VERTEX
8
CUT
10
0
20
38.05
0
VERTEX
8
CUT
10
14.25
20
39
0
VERTEX
8
CUT
10
0
20
39.95
0
SEQEND
0
POLYLINE
8
CUT
66
1
70
0
0
VERTEX
8
CUT
10
15.75
20
39
0
VERTEX
8
CUT
10
30.75
20
38
0
VERTEX
8
CUT
10
45.75
20
39
0
VERTEX
8
CUT
10
30.75
20
40
0
VERTEX
8
CUT
10
15.75
20
39
0
SEQEND
0
POLYLINE
8
CUT
66
1
70
0
0
VERTEX
8
CUT
10
47.25
20
39
0
VERTEX
8
CUT
10
62.25
20
38
0
VERTEX
8
CUT
10
77.25
20
39
0
VERTEX
8
CUT
10
62.25
20
40
0
VERTEX
8
CUT
10
47.25
20
39
0
SEQEND
0
POLYLINE
8
CUT
66
1
70
0
0
VERTEX
8
CUT
10
78.75
20
39
0
VERTEX
8
CUT
10
93.75
20
38
0
VERTEX
8
CUT
10
108.75
20
39
0
VERTEX
8
CUT
10
93.75
20
40
0
VERTEX
8
CUT
10
78.75
20
39
0
SEQEND
0
LINE
8
CUT
10
110.25
20
39
11
120
21
38.35
0
LINE
8
CUT
10
120
20
39.65
11
110.25
21
39
0
POLYLINE
8
CUT
66
1
70
0
0
VERTEX
8
CUT
10
0
20
35
0
VERTEX
8
CUT
10
15
20
34
0
VERTEX
8
CUT
10
30
20
35
0
VERTEX
8
CUT
10
15
20
36
0
VERTEX
8
CUT
10
0
20
35
0
SEQEND
0
POLYLINE
8
CUT
66
1
70
0
0
VERTEX
8
CUT
10
31.5
20
35
0
VERTEX
8
CUT
10
46.5
20
34
0
VERTEX
8
CUT
10
61.5
20
35
0
VERTEX
8
CUT
10
46.5
20
36
0
VERTEX
8
CUT
10
31.5
20
35
0
SEQEND
0
POLYLINE
8
CUT
66
1
70
0
0
VERTEX
8
CUT
10
63
20
35
0
VERTEX
8
CUT
10
78
20
34
0
VERTEX
8
CUT
10
93
20
35
0
VERTEX
8
CUT
10
78
20
36
0
VERTEX
8
CUT
10
63
20
35
0
SEQEND
0
POLYLINE
8
CUT
66
1
70
0
0
VERTEX
8
CUT
10
94.5
20
35
0
VERTEX
8
CUT
10
109.5
20
34
0
VERTEX
8
CUT
10
120
20
34.7
0
SEQEND
0
POLYLINE
8
CUT
66
1
70
0
0
VERTEX
8
CUT
10
120
20
35.3
0
VERTEX
8
CUT
10
109.5
20
36
0
VERTEX
8
CUT
10
94.5
20
35
0
SEQEND
0
POLYLINE
8
CUT
66
1
70
0
0
VERTEX
8
CUT
10
0
20
30.05
0
VERTEX
8
CUT
10
14.25
20
31
0
VERTEX
8
CUT
10
0
20
31.95
0
SEQEND
0
POLYLINE
8
CUT
66
1
70
0
0
VERTEX
8
CUT
10
15.75
20
31
0
VERTEX
8
CUT
10
30.75
20
30
0
VERTEX
8
CUT
10
45.75
20
31
0
VERTEX
8
CUT
10
30.75
20
32
0
VERTEX
8
CUT
10
15.75
20
31
0
SEQEND
0
POLYLINE
8
CUT
66
1
70
0
0
VERTEX
8
CUT
10
47.25
20
31
0
VERTEX
8
CUT
10
62.25
20
30
0
VERTEX
8
CUT
10
77.25
20
31
0
VERTEX
8
CUT
10
62.25
20
32
0
VERTEX
8
CUT
10
47.25
20
31
0
SEQEND
0
POLYLINE
8
CUT
66
1
70
0
0
VERTEX
8
CUT
10
78.75
20
31
0
VERTEX
8
CUT
10
93.75
20
30
0
VERTEX
8
CUT
10
108.75
20
31
0
VERTEX
8
CUT
10
93.75
20
32
0
VERTEX
8
CUT
10
78.75
20
31
0
SEQEND
0
LINE
8
CUT
10
110.25
20
31
11
120
21
30.35
0
LINE
8
CUT
10
120
20
31.65
11
110.25
21
31
0
POLYLINE
8
CUT
66
1
70
0
0
VERTEX
8
CUT
10
0
20
27
0
VERTEX
8
CUT
10
15
20
26
0
VERTEX
8
CUT
10
30
20
27
0
VERTEX
8
CUT
10
15
20
28
0
VERTEX
8
CUT
10
0
20
27
0
SEQEND
0
POLYLINE
8
CUT
66
1
70
0
0
VERTEX
8
CUT
10
31.5
20
27
0
VERTEX
8
CUT
10
46.5
20
26
0
VERTEX
8
CUT
10
61.5
20
27
0
VERTEX
8
CUT
10
46.5
20
28
0
VERTEX
8
CUT
10
31.5
20
27
0
SEQEND
0
POLYLINE
8
CUT
66
1
70
0
0
VERTEX
8
CUT
10
63
20
27
0
VERTEX
8
CUT
10
78
20
26
0
VERTEX
8
CUT
10
93
20
27
0
VERTEX
8
CUT
10
78
20
28
0
VERTEX
8
CUT
10
63
20
27
0
SEQEND
0
POLYLINE
8
CUT
66
1
70
0
0
VERTEX
8
CUT
10
94.5
20
27
0
VERTEX
8
CUT
10
109.5
20
26
0
VERTEX
8
CUT
10
120
20
26.7
0
SEQEND
0
POLYLINE
8
CUT
66
1
70
0
0
VERTEX
8
CUT
10
120
20
27.3
0
VERTEX
8
CUT
10
109.5
20
28
0
VERTEX
8
CUT
10
94.5
20
27
0
SEQEND
0
POLYLINE
8
CUT
66
1
70
0
0
VERTEX
8
CUT
10
0
20
22.05
0
VERTEX
8
CUT
10
14.25
20
23
0
VERTEX
8
CUT
10
0
20
23.95
0
SEQEND
0
POLYLINE
8
CUT
66
1
70
0
0
VERTEX
8
CUT
10
15.75
20
23
0
VERTEX
8
CUT
10
30.75
20
22
0
VERTEX
8
CUT
10
45.75
20
23
0
VERTEX
8
CUT
10
30.75
20
24
0
VERTEX
8
CUT
10
15.75
20
23
0
SEQEND
0
POLYLINE
8
CUT
66
1
70
0
0
VERTEX
8
CUT
10
47.25
20
23
0
VERTEX
8
CUT
10
62.25
20
22
0
VERTEX
8
CUT
10
77.25
20
23
0
VERTEX
8
CUT
10
62.25
20
24
0
VERTEX
8
CUT
10
47.25
20
23
0
SEQEND
0
POLYLINE
8
CUT
66
1
70
0
0
VERTEX
8
CUT
10
78.75
20
23
0
VERTEX
8
CUT
10
93.75
20
22
0
VERTEX
8
CUT
10
108.75
20
23
0
VERTEX
8
CUT
10
93.75
20
24
0
VERTEX
8
CUT
10
78.75
20
23
0
SEQEND
0
LINE
8
CUT
10
110.25
20
23
11
120
21
22.35
0
LINE
8
CUT
10
120
20
23.65
11
110.25
21
23
0
POLYLINE
8
CUT
66
1
70
0
0
VERTEX
8
CUT
10
0
20
19
0
VERTEX
8
CUT
10
15
20
18
0
VERTEX
8
CUT
10
30
20
19
0
VERTEX
8
CUT
10
15
20
20
0
VERTEX
8
CUT
10
0
20
19
0
SEQEND
0
POLYLINE
8
CUT
66
1
70
0
0
VERTEX
8
CUT
10
31.5
20
19
0
VERTEX
8
CUT
10
46.5
20
18
0
VERTEX
8
CUT
10
61.5
20
19
0
VERTEX
8
CUT
10
46.5
20
20
0
VERTEX
8
CUT
10
31.5
20
19
0
SEQEND
0
POLYLINE
8
CUT
66
1
70
0
0
VERTEX
8
CUT
10
63
20
19
0
VERTEX
8
CUT
10
78
20
18
0
VERTEX
8
CUT
10
93
20
19
0
VERTEX
8
CUT
10
78
20
20
0
VERTEX
8
CUT
10
63
20
19
0
SEQEND
0
POLYLINE
8
CUT
66
1
70
0
0
VERTEX
8
CUT
10
94.5
20
19
0
VERTEX
8
CUT
10
109.5
20
18
0
VERTEX
8
CUT
10
120
20
18.7
0
SEQEND
0
POLYLINE
8
CUT
66
1
70
0
0
VERTEX
8
CUT
10
120
20
19.3
0
VERTEX
8
CUT
10
109.5
20
20
0
VERTEX
8
CUT
10
94.5
20
19
0
SEQEND
0
POLYLINE
8
CUT
66
1
70
0
0
VERTEX
8
CUT
10
0
20
14.05
0
VERTEX
8
CUT
10
14.25
20
15
0
VERTEX
8
CUT
10
0
20
15.95
0
SEQEND
0
POLYLINE
8
CUT
66
1
70
0
0
VERTEX
8
CUT
10
15.75
20
15
0
VERTEX
8
CUT
10
30.75
20
14
0
VERTEX
8
CUT
10
45.75
20
15
0
VERTEX
8
CUT
10
30.75
20
16
0
VERTEX
8
CUT
10
15.75
20
15
0
SEQEND
0
POLYLINE
8
CUT
66
1
70
0
0
VERTEX
8
CUT
10
47.25
20
15
0
VERTEX
8
CUT
10
62.25
20
14
0
VERTEX
8
CUT
10
77.25
20
15
0
VERTEX
8
CUT
10
62.25
20
16
0
VERTEX
8
CUT
10
47.25
20
15
0
SEQEND
0
POLYLINE
8
CUT
66
1
70
0
0
VERTEX
8
CUT
10
78.75
20
15
0
VERTEX
8
CUT
10
93.75
20
14
0
VERTEX
8
CUT
10
108.75
20
15
0
VERTEX
8
CUT
10
93.75
20
16
0
VERTEX
8
CUT
10
78.75
20
15
0
SEQEND
0
LINE
8
CUT
10
110.25
20
15
11
120
21
14.35
0
LINE
8
CUT
10
120
20
15.65
11
110.25
21
15
0
POLYLINE
8
CUT
66
1
70
0
0
VERTEX
8
CUT
10
0
20
11
0
VERTEX
8
CUT
10
15
20
10
0
VERTEX
8
CUT
10
30
20
11
0
VERTEX
8
CUT
10
15
20
12
0
VERTEX
8
CUT
10
0
20
11
0
SEQEND
0
POLYLINE
8
CUT
66
1
70
0
0
VERTEX
8
CUT
10
31.5
20
11
0
VERTEX
8
CUT
10
46.5
20
10
0
VERTEX
8
CUT
10
61.5
20
11
0
VERTEX
8
CUT
10
46.5
20
12
0
VERTEX
8
CUT
10
31.5
20
11
0
SEQEND
0
POLYLINE
8
CUT
66
1
70
0
0
VERTEX
8
CUT
10
63
20
11
0
VERTEX
8
CUT
10
78
20
10
0
VERTEX
8
CUT
10
93
20
11
0
VERTEX
8
CUT
10
78
20
12
0
VERTEX
8
CUT
10
63
20
11
0
SEQEND
0
POLYLINE
8
CUT
66
1
70
0
0
VERTEX
8
CUT
10
94.5
20
11
0
VERTEX
8
CUT
10
109.5
20
10
0
VERTEX
8
CUT
10
120
20
10.7
0
SEQEND
0
POLYLINE
8
CUT
66
1
70
0
0
VERTEX
8
CUT
10
120
20
11.3
0
VERTEX
8
CUT
10
109.5
20
12
0
VERTEX
8
CUT
10
94.5
20
11
0
SEQEND
0
POLYLINE
8
CUT
66
1
70
0
0
VERTEX
8
CUT
10
0
20
6.05
0
VERTEX
8
CUT
10
14.25
20
7
0
VERTEX
8
CUT
10
0
20
7.95
0
SEQEND
0
POLYLINE
8
CUT
66
1
70
0
0
VERTEX
8
CUT
10
15.75
20
7
0
VERTEX
8
CUT
10
30.75
20
6
0
VERTEX
8
CUT
10
45.75
20
7
0
VERTEX
8
CUT
10
30.75
20
8
0
VERTEX
8
CUT
10
15.75
20
7
0
SEQEND
0
POLYLINE
8
CUT
66
1
70
0
0
VERTEX
8
CUT
10
47.25
20
7
0
VERTEX
8
CUT
10
62.25
20
6
0
VERTEX
8
CUT
10
77.25
20
7
0
VERTEX
8
CUT
10
62.25
20
8
0
VERTEX
8
CUT
10
47.25
20
7
0
SEQEND
0
POLYLINE
8
CUT
66
1
70
0
0
VERTEX
8
CUT
10
78.75
20
7
0
VERTEX
8
CUT
10
93.75
20
6
0
VERTEX
8
CUT
10
108.75
20
7
0
VERTEX
8
CUT
10
93.75
20
8
0
VERTEX
8
CUT
10
78.75
20
7
0
SEQEND
0
LINE
8
CUT
10
110.25
20
7
11
120
21
6.35
0
LINE
8
CUT
10
120
20
7.65
11
110.25
21
7
0
POLYLINE
8
CUT
66
1
70
0
0
VERTEX
8
CUT
10
0
20
3
0
VERTEX
8
CUT
10
15
20
2
0
VERTEX
8
CUT
10
30
20
3
0
VERTEX
8
CUT
10
15
20
4
0
VERTEX
8
CUT
10
0
20
3
0
SEQEND
0
POLYLINE
8
CUT
66
1
70
0
0
VERTEX
8
CUT
10
31.5
20
3
0
VERTEX
8
CUT
10
46.5
20
2
0
VERTEX
8
CUT
10
61.5
20
3
0
VERTEX
8
CUT
10
46.5
20
4
0
VERTEX
8
CUT
10
31.5
20
3
0
SEQEND
0
POLYLINE
8
CUT
66
1
70
0
0
VERTEX
8
CUT
10
63
20
3
0
VERTEX
8
CUT
10
78
20
2
0
VERTEX
8
CUT
10
93
20
3
0
VERTEX
8
CUT
10
78
20
4
0
VERTEX
8
CUT
10
63
20
3
0
SEQEND
0
POLYLINE
8
CUT
66
1
70
0
0
VERTEX
8
CUT
10
94.5
20
3
0
VERTEX
8
CUT
10
109.5
20
2
0
VERTEX
8
CUT
10
120
20
2.7
0
SEQEND
0
POLYLINE
8
CUT
66
1
70
0
0
VERTEX
8
CUT
10
120
20
3.3
0
VERTEX
8
CUT
10
109.5
20
4
0
VERTEX
8
CUT
10
94.5
20
3
0
SEQEND
0
POLYLINE
8
CUT
66
1
70
0
0
VERTEX
8
CUT
10
0
20
70
0
VERTEX
8
CUT
10
120
20
70
0
VERTEX
8
CUT
10
120
20
0
0
VERTEX
8
CUT
10
0
20
0
0
VERTEX
8
CUT
10
0
20
70
0
SEQEND
0
ENDSEC
0
EOF
