0
SECTION
2
HEADER
9
$ACADVER
1
AC1009
9
$INSUNITS
70
4
0
ENDSEC
0
SECTION
2
TABLES
0
TABLE
2
LAYER
70
1
0
LAYER
2
CUT
70
0
62
1
6
CONTINUOUS
0
ENDTAB
0
ENDSEC
0
SECTION
2
ENTITIES
0
POLYLINE
8
CUT
66
1
70
0
0
VERTEX
8
CUT
10
2
20
70
0
VERTEX
8
CUT
10
2.65
20
55
0
VERTEX
8
CUT
10
2
20
40
0
VERTEX
8
CUT
10
1.35
20
55
0
VERTEX
8
CUT
10
2
20
70
0
SEQEND
0
POLYLINE
8
CUT
66
1
70
0
0
VERTEX
8
CUT
10
2
20
38.5
0
VERTEX
8
CUT
10
2.65
20
23.5
0
VERTEX
8
CUT
10
2
20
8.5
0
VERTEX
8
CUT
10
1.35
20
23.5
0
VERTEX
8
CUT
10
2
20
38.5
0
SEQEND
0
LINE
8
CUT
10
2
20
7
11
2.3033
21
0
0
LINE
8
CUT
10
1.6967
20
0
11
2
21
7
0
POLYLINE
8
CUT
66
1
70
0
0
VERTEX
8
CUT
10
6.6175
20
70
0
VERTEX
8
CUT
10
6
20
55.75
0
VERTEX
8
CUT
10
5.3825
20
70
0
SEQEND
0
POLYLINE
8
CUT
66
1
70
0
0
VERTEX
8
CUT
10
6
20
54.25
0
VERTEX
8
CUT
10
6.65
20
39.25
0
VERTEX
8
CUT
10
6
20
24.25
0
VERTEX
8
CUT
10
5.35
20
39.25
0
VERTEX
8
CUT
10
6
20
54.25
0
SEQEND
0
POLYLINE
8
CUT
66
1
70
0
0
VERTEX
8
CUT
10
6
20
22.75
0
VERTEX
8
CUT
10
6.65
20
7.75
0
VERTEX
8
CUT
10
6.3142
20
0
0
SEQEND
0
POLYLINE
8
CUT
66
1
70
0
0
VERTEX
8
CUT
10
5.6858
20
0
0
VERTEX
8
CUT
10
5.35
20
7.75
0
VERTEX
8
CUT
10
6
20
22.75
0
SEQEND
0
POLYLINE
8
CUT
66
1
70
0
0
VERTEX
8
CUT
10
10
20
70
0
VERTEX
8
CUT
10
10.65
20
55
0
VERTEX
8
CUT
10
10
20
40
0
VERTEX
8
CUT
10
9.35
20
55
0
VERTEX
8
CUT
10
10
20
70
0
SEQEND
0
POLYLINE
8
CUT
66
1
70
0
0
VERTEX
8
CUT
10
10
20
38.5
0
VERTEX
8
CUT
10
10.65
20
23.5
0
VERTEX
8
CUT
10
10
20
8.5
0
VERTEX
8
CUT
10
9.35
20
23.5
0
VERTEX
8
CUT
10
10
20
38.5
0
SEQEND
0
LINE
8
CUT
10
10
20
7
11
10.3033
21
0
0
LINE
8
CUT
10
9.6967
20
0
11
10
21
7
0
POLYLINE
8
CUT
66
1
70
0
0
VERTEX
8
CUT
10
14.6175
20
70
0
VERTEX
8
CUT
10
14
20
55.75
0
VERTEX
8
CUT
10
13.3825
20
70
0
SEQEND
0
POLYLINE
8
CUT
66
1
70
0
0
VERTEX
8
CUT
10
14
20
54.25
0
VERTEX
8
CUT
10
14.65
20
39.25
0
VERTEX
8
CUT
10
14
20
24.25
0
VERTEX
8
CUT
10
13.35
20
39.25
0
VERTEX
8
CUT
10
14
20
54.25
0
SEQEND
0
POLYLINE
8
CUT
66
1
70
0
0
VERTEX
8
CUT
10
14
20
22.75
0
VERTEX
8
CUT
10
14.65
20
7.75
0
VERTEX
8
CUT
10
14.3142
20
0
0
SEQEND
0
POLYLINE
8
CUT
66
1
70
0
0
VERTEX
8
CUT
10
13.6858
20
0
0
VERTEX
8
CUT
10
13.35
20
7.75
0
VERTEX
8
CUT
10
14
20
22.75
0
SEQEND
0
POLYLINE
8
CUT
66
1
70
0
0
VERTEX
8
CUT
10
18
20
70
0
VERTEX
8
CUT
10
18.65
20
55
0
VERTEX
8
CUT
10
18
20
40
0
VERTEX
8
CUT
10
17.35
20
55
0
VERTEX
8
CUT
10
18
20
70
0
SEQEND
0
POLYLINE
8
CUT
66
1
70
0
0
VERTEX
8
CUT
10
18
20
38.5
0
VERTEX
8
CUT
10
18.65
20
23.5
0
VERTEX
8
CUT
10
18
20
8.5
0
VERTEX
8
CUT
10
17.35
20
23.5
0
VERTEX
8
CUT
10
18
20
38.5
0
SEQEND
0
LINE
8
CUT
10
18
20
7
11
18.3033
21
0
0
LINE
8
CUT
10
17.6967
20
0
11
18
21
7
0
POLYLINE
8
CUT
66
1
70
0
0
VERTEX
8
CUT
10
22.6175
20
70
0
VERTEX
8
CUT
10
22
20
55.75
0
VERTEX
8
CUT
10
21.3825
20
70
0
SEQEND
0
POLYLINE
8
CUT
66
1
70
0
0
VERTEX
8
CUT
10
22
20
54.25
0
VERTEX
8
CUT
10
22.65
20
39.25
0
VERTEX
8
CUT
10
22
20
24.25
0
VERTEX
8
CUT
10
21.35
20
39.25
0
VERTEX
8
CUT
10
22
20
54.25
0
SEQEND
0
POLYLINE
8
CUT
66
1
70
0
0
VERTEX
8
CUT
10
22
20
22.75
0
VERTEX
8
CUT
10
22.65
20
7.75
0
VERTEX
8
CUT
10
22.3142
20
0
0
SEQEND
0
POLYLINE
8
CUT
66
1
70
0
0
VERTEX
8
CUT
10
21.6858
20
0
0
VERTEX
8
CUT
10
21.35
20
7.75
0
VERTEX
8
CUT
10
22
20
22.75
0
SEQEND
0
POLYLINE
8
CUT
66
1
70
0
0
VERTEX
8
CUT
10
26
20
70
0
VERTEX
8
CUT
10
26.65
20
55
0
VERTEX
8
CUT
10
26
20
40
0
VERTEX
8
CUT
10
25.35
20
55
0
VERTEX
8
CUT
10
26
20
70
0
SEQEND
0
POLYLINE
8
CUT
66
1
70
0
0
VERTEX
8
CUT
10
26
20
38.5
0
VERTEX
8
CUT
10
26.65
20
23.5
0
VERTEX
8
CUT
10
26
20
8.5
0
VERTEX
8
CUT
10
25.35
20
23.5
0
VERTEX
8
CUT
10
26
20
38.5
0
SEQEND
0
LINE
8
CUT
10
26
20
7
11
26.3033
21
0
0
LINE
8
CUT
10
25.6967
20
0
11
26
21
7
0
POLYLINE
8
CUT
66
1
70
0
0
VERTEX
8
CUT
10
30.6175
20
70
0
VERTEX
8
CUT
10
30
20
55.75
0
VERTEX
8
CUT
10
29.3825
20
70
0
SEQEND
0
POLYLINE
8
CUT
66
1
70
0
0
VERTEX
8
CUT
10
30
20
54.25
0
VERTEX
8
CUT
10
30.65
20
39.25
0
VERTEX
8
CUT
10
30
20
24.25
0
VERTEX
8
CUT
10
29.35
20
39.25
0
VERTEX
8
CUT
10
30
20
54.25
0
SEQEND
0
POLYLINE
8
CUT
66
1
70
0
0
VERTEX
8
CUT
10
30
20
22.75
0
VERTEX
8
CUT
10
30.65
20
7.75
0
VERTEX
8
CUT
10
30.3142
20
0
0
SEQEND
0
POLYLINE
8
CUT
66
1
70
0
0
VERTEX
8
CUT
10
29.6858
20
0
0
VERTEX
8
CUT
10
29.35
20
7.75
0
VERTEX
8
CUT
10
30
20
22.75
0
SEQEND
0
POLYLINE
8
CUT
66
1
70
0
0
VERTEX
8
CUT
10
34
20
70
0
VERTEX
8
CUT
10
34.65
20
55
0
VERTEX
8
CUT
10
34
20
40
0
VERTEX
8
CUT
10
33.35
20
55
0
VERTEX
8
CUT
10
34
20
70
0
SEQEND
0
POLYLINE
8
CUT
66
1
70
0
0
VERTEX
8
CUT
10
34
20
38.5
0
VERTEX
8
CUT
10
34.65
20
23.5
0
VERTEX
8
CUT
10
34
20
8.5
0
VERTEX
8
CUT
10
33.35
20
23.5
0
VERTEX
8
CUT
10
34
20
38.5
0
SEQEND
0
LINE
8
CUT
10
34
20
7
11
34.3033
21
0
0
LINE
8
CUT
10
33.6967
20
0
11
34
21
7
0
POLYLINE
8
CUT
66
1
70
0
0
VERTEX
8
CUT
10
38.6175
20
70
0
VERTEX
8
CUT
10
38
20
55.75
0
VERTEX
8
CUT
10
37.3825
20
70
0
SEQEND
0
POLYLINE
8
CUT
66
1
70
0
0
VERTEX
8
CUT
10
38
20
54.25
0
VERTEX
8
CUT
10
38.65
20
39.25
0
VERTEX
8
CUT
10
38
20
24.25
0
VERTEX
8
CUT
10
37.35
20
39.25
0
VERTEX
8
CUT
10
38
20
54.25
0
SEQEND
0
POLYLINE
8
CUT
66
1
70
0
0
VERTEX
8
CUT
10
38
20
22.75
0
VERTEX
8
CUT
10
38.65
20
7.75
0
VERTEX
8
CUT
10
38.3142
20
0
0
SEQEND
0
POLYLINE
8
CUT
66
1
70
0
0
VERTEX
8
CUT
10
37.6858
20
0
0
VERTEX
8
CUT
10
37.35
20
7.75
0
VERTEX
8
CUT
10
38
20
22.75
0
SEQEND
0
POLYLINE
8
CUT
66
1
70
0
0
VERTEX
8
CUT
10
42
20
70
0
VERTEX
8
CUT
10
42.65
20
55
0
VERTEX
8
CUT
10
42
20
40
0
VERTEX
8
CUT
10
41.35
20
55
0
VERTEX
8
CUT
10
42
20
70
0
SEQEND
0
POLYLINE
8
CUT
66
1
70
0
0
VERTEX
8
CUT
10
42
20
38.5
0
VERTEX
8
CUT
10
42.65
20
23.5
0
VERTEX
8
CUT
10
42
20
8.5
0
VERTEX
8
CUT
10
41.35
20
23.5
0
VERTEX
8
CUT
10
42
20
38.5
0
SEQEND
0
LINE
8
CUT
10
42
20
7
11
42.3033
21
0
0
LINE
8
CUT
10
41.6967
20
0
11
42
21
7
0
POLYLINE
8
CUT
66
1
70
0
0
VERTEX
8
CUT
10
46.6175
20
70
0
VERTEX
8
CUT
10
46
20
55.75
0
VERTEX
8
CUT
10
45.3825
20
70
0
SEQEND
0
POLYLINE
8
CUT
66
1
70
0
0
VERTEX
8
CUT
10
46
20
54.25
0
VERTEX
8
CUT
10
46.65
20
39.25
0
VERTEX
8
CUT
10
46
20
24.25
0
VERTEX
8
CUT
10
45.35
20
39.25
0
VERTEX
8
CUT
10
46
20
54.25
0
SEQEND
0
POLYLINE
8
CUT
66
1
70
0
0
VERTEX
8
CUT
10
46
20
22.75
0
VERTEX
8
CUT
10
46.65
20
7.75
0
VERTEX
8
CUT
10
46.3142
20
0
0
SEQEND
0
POLYLINE
8
CUT
66
1
70
0
0
VERTEX
8
CUT
10
45.6858
20
0
0
VERTEX
8
CUT
10
45.35
20
7.75
0
VERTEX
8
CUT
10
46
20
22.75
0
SEQEND
0
POLYLINE
8
CUT
66
1
70
0
0
VERTEX
8
CUT
10
50
20
70
0
VERTEX
8
CUT
10
50.65
20
55
0
VERTEX
8
CUT
10
50
20
40
0
VERTEX
8
CUT
10
49.35
20
55
0
VERTEX
8
CUT
10
50
20
70
0
SEQEND
0
POLYLINE
8
CUT
66
1
70
0
0
VERTEX
8
CUT
10
50
20
38.5
0
VERTEX
8
CUT
10
50.65
20
23.5
0
VERTEX
8
CUT
10
50
20
8.5
0
VERTEX
8
CUT
10
49.35
20
23.5
0
VERTEX
8
CUT
10
50
20
38.5
0
SEQEND
0
LINE
8
CUT
10
50
20
7
11
50.3033
21
0
0
LINE
8
CUT
10
49.6967
20
0
11
50
21
7
0
POLYLINE
8
CUT
66
1
70
0
0
VERTEX
8
CUT
10
54.6175
20
70
0
VERTEX
8
CUT
10
54
20
55.75
0
VERTEX
8
CUT
10
53.3825
20
70
0
SEQEND
0
POLYLINE
8
CUT
66
1
70
0
0
VERTEX
8
CUT
10
54
20
54.25
0
VERTEX
8
CUT
10
54.65
20
39.25
0
VERTEX
8
CUT
10
54
20
24.25
0
VERTEX
8
CUT
10
53.35
20
39.25
0
VERTEX
8
CUT
10
54
20
54.25
0
SEQEND
0
POLYLINE
8
CUT
66
1
70
0
0
VERTEX
8
CUT
10
54
20
22.75
0
VERTEX
8
CUT
10
54.65
20
7.75
0
VERTEX
8
CUT
10
54.3142
20
0
0
SEQEND
0
POLYLINE
8
CUT
66
1
70
0
0
VERTEX
8
CUT
10
53.6858
20
0
0
VERTEX
8
CUT
10
53.35
20
7.75
0
VERTEX
8
CUT
10
54
20
22.75
0
SEQEND
0
POLYLINE
8
CUT
66
1
70
0
0
VERTEX
8
CUT
10
58
20
70
0
VERTEX
8
CUT
10
58.65
20
55
0
VERTEX
8
CUT
10
58
20
40
0
VERTEX
8
CUT
10
57.35
20
55
0
VERTEX
8
CUT
10
58
20
70
0
SEQEND
0
POLYLINE
8
CUT
66
1
70
0
0
VERTEX
8
CUT
10
58
20
38.5
0
VERTEX
8
CUT
10
58.65
20
23.5
0
VERTEX
8
CUT
10
58
20
8.5
0
VERTEX
8
CUT
10
57.35
20
23.5
0
VERTEX
8
CUT
10
58
20
38.5
0
SEQEND
0
LINE
8
CUT
10
58
20
7
11
58.3033
21
0
0
LINE
8
CUT
10
57.6967
20
0
11
58
21
7
0
POLYLINE
8
CUT
66
1
70
0
0
VERTEX
8
CUT
10
62.6175
20
70
0
VERTEX
8
CUT
10
62
20
55.75
0
VERTEX
8
CUT
10
61.3825
20
70
0
SEQEND
0
POLYLINE
8
CUT
66
1
70
0
0
VERTEX
8
CUT
10
62
20
54.25
0
VERTEX
8
CUT
10
62.65
20
39.25
0
VERTEX
8
CUT
10
62
20
24.25
0
VERTEX
8
CUT
10
61.35
20
39.25
0
VERTEX
8
CUT
10
62
20
54.25
0
SEQEND
0
POLYLINE
8
CUT
66
1
70
0
0
VERTEX
8
CUT
10
62
20
22.75
0
VERTEX
8
CUT
10
62.65
20
7.75
0
VERTEX
8
CUT
10
62.3142
20
0
0
SEQEND
0
POLYLINE
8
CUT
66
1
70
0
0
VERTEX
8
CUT
10
61.6858
20
0
0
VERTEX
8
CUT
10
61.35
20
7.75
0
VERTEX
8
CUT
10
62
20
22.75
0
SEQEND
0
POLYLINE
8
CUT
66
1
70
0
0
VERTEX
8
CUT
10
66
20
70
0
VERTEX
8
CUT
10
66.65
20
55
0
VERTEX
8
CUT
10
66
20
40
0
VERTEX
8
CUT
10
65.35
20
55
0
VERTEX
8
CUT
10
66
20
70
0
SEQEND
0
POLYLINE
8
CUT
66
1
70
0
0
VERTEX
8
CUT
10
66
20
38.5
0
VERTEX
8
CUT
10
66.65
20
23.5
0
VERTEX
8
CUT
10
66
20
8.5
0
VERTEX
8
CUT
10
65.35
20
23.5
0
VERTEX
8
CUT
10
66
20
38.5
0
SEQEND
0
LINE
8
CUT
10
66
20
7
11
66.3033
21
0
0
LINE
8
CUT
10
65.6967
20
0
11
66
21
7
0
POLYLINE
8
CUT
66
1
70
0
0
VERTEX
8
CUT
10
70.6175
20
70
0
VERTEX
8
CUT
10
70
20
55.75
0
VERTEX
8
CUT
10
69.3825
20
70
0
SEQEND
0
POLYLINE
8
CUT
66
1
70
0
0
VERTEX
8
CUT
10
70
20
54.25
0
VERTEX
8
CUT
10
70.65
20
39.25
0
VERTEX
8
CUT
10
70
20
24.25
0
VERTEX
8
CUT
10
69.35
20
39.25
0
VERTEX
8
CUT
10
70
20
54.25
0
SEQEND
0
POLYLINE
8
CUT
66
1
70
0
0
VERTEX
8
CUT
10
70
20
22.75
0
VERTEX
8
CUT
10
70.65
20
7.75
0
VERTEX
8
CUT
10
70.3142
20
0
0
SEQEND
0
POLYLINE
8
CUT
66
1
70
0
0
VERTEX
8
CUT
10
69.6858
20
0
0
VERTEX
8
CUT
10
69.35
20
7.75
0
VERTEX
8
CUT
10
70
20
22.75
0
SEQEND
0
POLYLINE
8
CUT
66
1
70
0
0
VERTEX
8
CUT
10
74
20
70
0
VERTEX
8
CUT
10
74.65
20
55
0
VERTEX
8
CUT
10
74
20
40
0
VERTEX
8
CUT
10
73.35
20
55
0
VERTEX
8
CUT
10
74
20
70
0
SEQEND
0
POLYLINE
8
CUT
66
1
70
0
0
VERTEX
8
CUT
10
74
20
38.5
0
VERTEX
8
CUT
10
74.65
20
23.5
0
VERTEX
8
CUT
10
74
20
8.5
0
VERTEX
8
CUT
10
73.35
20
23.5
0
VERTEX
8
CUT
10
74
20
38.5
0
SEQEND
0
LINE
8
CUT
10
74
20
7
11
74.3033
21
0
0
LINE
8
CUT
10
73.6967
20
0
11
74
21
7
0
POLYLINE
8
CUT
66
1
70
0
0
VERTEX
8
CUT
10
78.6175
20
70
0
VERTEX
8
CUT
10
78
20
55.75
0
VERTEX
8
CUT
10
77.3825
20
70
0
SEQEND
0
POLYLINE
8
CUT
66
1
70
0
0
VERTEX
8
CUT
10
78
20
54.25
0
VERTEX
8
CUT
10
78.65
20
39.25
0
VERTEX
8
CUT
10
78
20
24.25
0
VERTEX
8
CUT
10
77.35
20
39.25
0
VERTEX
8
CUT
10
78
20
54.25
0
SEQEND
0
POLYLINE
8
CUT
66
1
70
0
0
VERTEX
8
CUT
10
78
20
22.75
0
VERTEX
8
CUT
10
78.65
20
7.75
0
VERTEX
8
CUT
10
78.3142
20
0
0
SEQEND
0
POLYLINE
8
CUT
66
1
70
0
0
VERTEX
8
CUT
10
77.6858
20
0
0
VERTEX
8
CUT
10
77.35
20
7.75
0
VERTEX
8
CUT
10
78
20
22.75
0
SEQEND
0
POLYLINE
8
CUT
66
1
70
0
0
VERTEX
8
CUT
10
82
20
70
0
VERTEX
8
CUT
10
82.65
20
55
0
VERTEX
8
CUT
10
82
20
40
0
VERTEX
8
CUT
10
81.35
20
55
0
VERTEX
8
CUT
10
82
20
70
0
SEQEND
0
POLYLINE
8
CUT
66
1
70
0
0
VERTEX
8
CUT
10
82
20
38.5
0
VERTEX
8
CUT
10
82.65
20
23.5
0
VERTEX
8
CUT
10
82
20
8.5
0
VERTEX
8
CUT
10
81.35
20
23.5
0
VERTEX
8
CUT
10
82
20
38.5
0
SEQEND
0
LINE
8
CUT
10
82
20
7
11
82.3033
21
0
0
LINE
8
CUT
10
81.6967
20
0
11
82
21
7
0
POLYLINE
8
CUT
66
1
70
0
0
VERTEX
8
CUT
10
86.6175
20
70
0
VERTEX
8
CUT
10
86
20
55.75
0
VERTEX
8
CUT
10
85.3825
20
70
0
SEQEND
0
POLYLINE
8
CUT
66
1
70
0
0
VERTEX
8
CUT
10
86
20
54.25
0
VERTEX
8
CUT
10
86.65
20
39.25
0
VERTEX
8
CUT
10
86
20
24.25
0
VERTEX
8
CUT
10
85.35
20
39.25
0
VERTEX
8
CUT
10
86
20
54.25
0
SEQEND
0
POLYLINE
8
CUT
66
1
70
0
0
VERTEX
8
CUT
10
86
20
22.75
0
VERTEX
8
CUT
10
86.65
20
7.75
0
VERTEX
8
CUT
10
86.3142
20
0
0
SEQEND
0
POLYLINE
8
CUT
66
1
70
0
0
VERTEX
8
CUT
10
85.6858
20
0
0
VERTEX
8
CUT
10
85.35
20
7.75
0
VERTEX
8
CUT
10
86
20
22.75
0
SEQEND
0
POLYLINE
8
CUT
66
1
70
0
0
VERTEX
8
CUT
10
90
20
70
0
VERTEX
8
CUT
10
90.65
20
55
0
VERTEX
8
CUT
10
90
20
40
0
VERTEX
8
CUT
10
89.35
20
55
0
VERTEX
8
CUT
10
90
20
70
0
SEQEND
0
POLYLINE
8
CUT
66
1
70
0
0
VERTEX
8
CUT
10
90
20
38.5
0
VERTEX
8
CUT
10
90.65
20
23.5
0
VERTEX
8
CUT
10
90
20
8.5
0
VERTEX
8
CUT
10
89.35
20
23.5
0
VERTEX
8
CUT
10
90
20
38.5
0
SEQEND
0
LINE
8
CUT
10
90
20
7
11
90.3033
21
0
0
LINE
8
CUT
10
89.6967
20
0
11
90
21
7
0
POLYLINE
8
CUT
66
1
70
0
0
VERTEX
8
CUT
10
94.6175
20
70
0
VERTEX
8
CUT
10
94
20
55.75
0
VERTEX
8
CUT
10
93.3825
20
70
0
SEQEND
0
POLYLINE
8
CUT
66
1
70
0
0
VERTEX
8
CUT
10
94
20
54.25
0
VERTEX
8
CUT
10
94.65
20
39.25
0
VERTEX
8
CUT
10
94
20
24.25
0
VERTEX
8
CUT
10
93.35
20
39.25
0
VERTEX
8
CUT
10
94
20
54.25
0
SEQEND
0
POLYLINE
8
CUT
66
1
70
0
0
VERTEX
8
CUT
10
94
20
22.75
0
VERTEX
8
CUT
10
94.65
20
7.75
0
VERTEX
8
CUT
10
94.3142
20
0
0
SEQEND
0
POLYLINE
8
CUT
66
1
70
0
0
VERTEX
8
CUT
10
93.6858
20
0
0
VERTEX
8
CUT
10
93.35
20
7.75
0
VERTEX
8
CUT
10
94
20
22.75
0
SEQEND
0
POLYLINE
8
CUT
66
1
70
0
0
VERTEX
8
CUT
10
98
20
70
0
VERTEX
8
CUT
10
98.65
20
55
0
VERTEX
8
CUT
10
98
20
40
0
VERTEX
8
CUT
10
97.35
20
55
0
VERTEX
8
CUT
10
98
20
70
0
SEQEND
0
POLYLINE
8
CUT
66
1
70
0
0
VERTEX
8
CUT
10
98
20
38.5
0
VERTEX
8
CUT
10
98.65
20
23.5
0
VERTEX
8
CUT
10
98
20
8.5
0
VERTEX
8
CUT
10
97.35
20
23.5
0
VERTEX
8
CUT
10
98
20
38.5
0
SEQEND
0
LINE
8
CUT
10
98
20
7
11
98.3033
21
0
0
LINE
8
CUT
10
97.6967
20
0
11
98
21
7
0
POLYLINE
8
CUT
66
1
70
0
0
VERTEX
8
CUT
10
102.6175
20
70
0
VERTEX
8
CUT
10
102
20
55.75
0
VERTEX
8
CUT
10
101.3825
20
70
0
SEQEND
0
POLYLINE
8
CUT
66
1
70
0
0
VERTEX
8
CUT
10
102
20
54.25
0
VERTEX
8
CUT
10
102.65
20
39.25
0
VERTEX
8
CUT
10
102
20
24.25
0
VERTEX
8
CUT
10
101.35
20
39.25
0
VERTEX
8
CUT
10
102
20
54.25
0
SEQEND
0
POLYLINE
8
CUT
66
1
70
0
0
VERTEX
8
CUT
10
102
20
22.75
0
VERTEX
8
CUT
10
102.65
20
7.75
0
VERTEX
8
CUT
10
102.3142
20
0
0
SEQEND
0
POLYLINE
8
CUT
66
1
70
0
0
VERTEX
8
CUT
10
101.6858
20
0
0
VERTEX
8
CUT
10
101.35
20
7.75
0
VERTEX
8
CUT
10
102
20
22.75
0
SEQEND
0
POLYLINE
8
CUT
66
1
70
0
0
VERTEX
8
CUT
10
106
20
70
0
VERTEX
8
CUT
10
106.65
20
55
0
VERTEX
8
CUT
10
106
20
40
0
VERTEX
8
CUT
10
105.35
20
55
0
VERTEX
8
CUT
10
106
20
70
0
SEQEND
0
POLYLINE
8
CUT
66
1
70
0
0
VERTEX
8
CUT
10
106
20
38.5
0
VERTEX
8
CUT
10
106.65
20
23.5
0
VERTEX
8
CUT
10
106
20
8.5
0
VERTEX
8
CUT
10
105.35
20
23.5
0
VERTEX
8
CUT
10
106
20
38.5
0
SEQEND
0
LINE
8
CUT
10
106
20
7
11
106.3033
21
0
0
LINE
8
CUT
10
105.6967
20
0
11
106
21
7
0
POLYLINE
8
CUT
66
1
70
0
0
VERTEX
8
CUT
10
110.6175
20
70
0
VERTEX
8
CUT
10
110
20
55.75
0
VERTEX
8
CUT
10
109.3825
20
70
0
SEQEND
0
POLYLINE
8
CUT
66
1
70
0
0
VERTEX
8
CUT
10
110
20
54.25
0
VERTEX
8
CUT
10
110.65
20
39.25
0
VERTEX
8
CUT
10
110
20
24.25
0
VERTEX
8
CUT
10
109.35
20
39.25
0
VERTEX
8
CUT
10
110
20
54.25
0
SEQEND
0
POLYLINE
8
CUT
66
1
70
0
0
VERTEX
8
CUT
10
110
20
22.75
0
VERTEX
8
CUT
10
110.65
20
7.75
0
VERTEX
8
CUT
10
110.3142
20
0
0
SEQEND
0
POLYLINE
8
CUT
66
1
70
0
0
VERTEX
8
CUT
10
109.6858
20
0
0
VERTEX
8
CUT
10
109.35
20
7.75
0
VERTEX
8
CUT
10
110
20
22.75
0
SEQEND
0
POLYLINE
8
CUT
66
1
70
0
0
VERTEX
8
CUT
10
114
20
70
0
VERTEX
8
CUT
10
114.65
20
55
0
VERTEX
8
CUT
10
114
20
40
0
VERTEX
8
CUT
10
113.35
20
55
0
VERTEX
8
CUT
10
114
20
70
0
SEQEND
0
POLYLINE
8
CUT
66
1
70
0
0
VERTEX
8
CUT
10
114
20
38.5
0
VERTEX
8
CUT
10
114.65
20
23.5
0
VERTEX
8
CUT
10
114
20
8.5
0
VERTEX
8
CUT
10
113.35
20
23.5
0
VERTEX
8
CUT
10
114
20
38.5
0
SEQEND
0
LINE
8
CUT
10
114
20
7
11
114.3033
21
0
0
LINE
8
CUT
10
113.6967
20
0
11
114
21
7
0
POLYLINE
8
CUT
66
1
70
0
0
VERTEX
8
CUT
10
118.6175
20
70
0
VERTEX
8
CUT
10
118
20
55.75
0
VERTEX
8
CUT
10
117.3825
20
70
0
SEQEND
0
POLYLINE
8
CUT
66
1
70
0
0
VERTEX
8
CUT
10
118
20
54.25
0
VERTEX
8
CUT
10
118.65
20
39.25
0
VERTEX
8
CUT
10
118
20
24.25
0
VERTEX
8
CUT
10
117.35
20
39.25
0
VERTEX
8
CUT
10
118
20
54.25
0
SEQEND
0
POLYLINE
8
CUT
66
1
70
0
0
VERTEX
8
CUT
10
118
20
22.75
0
VERTEX
8
CUT
10
118.65
20
7.75
0
VERTEX
8
CUT
10
118.3142
20
0
0
SEQEND
0
POLYLINE
8
CUT
66
1
70
0
0
VERTEX
8
CUT
10
117.6858
20
0
0
VERTEX
8
CUT
10
117.35
20
7.75
0
VERTEX
8
CUT
10
118
20
22.75
0
SEQEND
0
POLYLINE
8
CUT
66
1
70
0
0
VERTEX
8
CUT
10
0
20
70
0
VERTEX
8
CUT
10
120
20
70
0
VERTEX
8
CUT
10
120
20
0
0
VERTEX
8
CUT
10
0
20
0
0
VERTEX
8
CUT
10
0
20
70
0
SEQEND
0
ENDSEC
0
EOF
