0
SECTION
2
HEADER
9
$ACADVER
1
AC1009
9
$INSUNITS
70
4
0
ENDSEC
0
SECTION
2
TABLES
0
TABLE
2
LAYER
70
1
0
LAYER
2
CUT
70
0
62
1
6
CONTINUOUS
0
ENDTAB
0
ENDSEC
0
SECTION
2
ENTITIES
0
POLYLINE
8
CUT
66
1
70
0
0
VERTEX
8
CUT
10
4
20
70
0
VERTEX
8
CUT
10
4
20
70
0
VERTEX
8
CUT
10
3.9592
20
67.8571
0
VERTEX
8
CUT
10
3.8367
20
65.7143
0
VERTEX
8
CUT
10
3.6327
20
63.5714
0
VERTEX
8
CUT
10
3.3469
20
61.4286
0
VERTEX
8
CUT
10
2.9796
20
59.2857
0
VERTEX
8
CUT
10
2.5306
20
57.1429
0
VERTEX
8
CUT
10
2
20
55
0
SEQEND
0
POLYLINE
8
CUT
66
1
70
0
0
VERTEX
8
CUT
10
2
20
53.5
0
VERTEX
8
CUT
10
2.5306
20
51.3571
0
VERTEX
8
CUT
10
2.9796
20
49.2143
0
VERTEX
8
CUT
10
3.3469
20
47.0714
0
VERTEX
8
CUT
10
3.6327
20
44.9286
0
VERTEX
8
CUT
10
3.8367
20
42.7857
0
VERTEX
8
CUT
10
3.9592
20
40.6429
0
VERTEX
8
CUT
10
4
20
38.5
0
VERTEX
8
CUT
10
3.9592
20
36.3571
0
VERTEX
8
CUT
10
3.8367
20
34.2143
0
VERTEX
8
CUT
10
3.6327
20
32.0714
0
VERTEX
8
CUT
10
3.3469
20
29.9286
0
VERTEX
8
CUT
10
2.9796
20
27.7857
0
VERTEX
8
CUT
10
2.5306
20
25.6429
0
VERTEX
8
CUT
10
2
20
23.5
0
SEQEND
0
POLYLINE
8
CUT
66
1
70
0
0
VERTEX
8
CUT
10
2
20
22
0
VERTEX
8
CUT
10
2.5306
20
19.8571
0
VERTEX
8
CUT
10
2.9796
20
17.7143
0
VERTEX
8
CUT
10
3.3469
20
15.5714
0
VERTEX
8
CUT
10
3.6327
20
13.4286
0
VERTEX
8
CUT
10
3.8367
20
11.2857
0
VERTEX
8
CUT
10
3.9592
20
9.1429
0
VERTEX
8
CUT
10
4
20
7
0
VERTEX
8
CUT
10
3.9592
20
4.8571
0
VERTEX
8
CUT
10
3.8367
20
2.7143
0
VERTEX
8
CUT
10
3.6327
20
0.5714
0
VERTEX
8
CUT
10
3.5565
20
0
0
SEQEND
0
POLYLINE
8
CUT
66
1
70
0
0
VERTEX
8
CUT
10
6
20
69.25
0
VERTEX
8
CUT
10
5.4694
20
67.1071
0
VERTEX
8
CUT
10
5.0204
20
64.9643
0
VERTEX
8
CUT
10
4.6531
20
62.8214
0
VERTEX
8
CUT
10
4.3673
20
60.6786
0
VERTEX
8
CUT
10
4.1633
20
58.5357
0
VERTEX
8
CUT
10
4.0408
20
56.3929
0
VERTEX
8
CUT
10
4
20
54.25
0
VERTEX
8
CUT
10
4.0408
20
52.1071
0
VERTEX
8
CUT
10
4.1633
20
49.9643
0
VERTEX
8
CUT
10
4.3673
20
47.8214
0
VERTEX
8
CUT
10
4.6531
20
45.6786
0
VERTEX
8
CUT
10
5.0204
20
43.5357
0
VERTEX
8
CUT
10
5.4694
20
41.3929
0
VERTEX
8
CUT
10
6
20
39.25
0
SEQEND
0
POLYLINE
8
CUT
66
1
70
0
0
VERTEX
8
CUT
10
6
20
37.75
0
VERTEX
8
CUT
10
5.4694
20
35.6071
0
VERTEX
8
CUT
10
5.0204
20
33.4643
0
VERTEX
8
CUT
10
4.6531
20
31.3214
0
VERTEX
8
CUT
10
4.3673
20
29.1786
0
VERTEX
8
CUT
10
4.1633
20
27.0357
0
VERTEX
8
CUT
10
4.0408
20
24.8929
0
VERTEX
8
CUT
10
4
20
22.75
0
VERTEX
8
CUT
10
4.0408
20
20.6071
0
VERTEX
8
CUT
10
4.1633
20
18.4643
0
VERTEX
8
CUT
10
4.3673
20
16.3214
0
VERTEX
8
CUT
10
4.6531
20
14.1786
0
VERTEX
8
CUT
10
5.0204
20
12.0357
0
VERTEX
8
CUT
10
5.4694
20
9.8929
0
VERTEX
8
CUT
10
6
20
7.75
0
SEQEND
0
POLYLINE
8
CUT
66
1
70
0
0
VERTEX
8
CUT
10
6
20
6.25
0
VERTEX
8
CUT
10
5.4694
20
4.1071
0
VERTEX
8
CUT
10
5.0204
20
1.9643
0
VERTEX
8
CUT
10
4.6837
20
0
0
SEQEND
0
POLYLINE
8
CUT
66
1
70
0
0
VERTEX
8
CUT
10
12
20
70
0
VERTEX
8
CUT
10
12
20
70
0
VERTEX
8
CUT
10
11.9592
20
67.8571
0
VERTEX
8
CUT
10
11.8367
20
65.7143
0
VERTEX
8
CUT
10
11.6327
20
63.5714
0
VERTEX
8
CUT
10
11.3469
20
61.4286
0
VERTEX
8
CUT
10
10.9796
20
59.2857
0
VERTEX
8
CUT
10
10.5306
20
57.1429
0
VERTEX
8
CUT
10
10
20
55
0
SEQEND
0
POLYLINE
8
CUT
66
1
70
0
0
VERTEX
8
CUT
10
10
20
53.5
0
VERTEX
8
CUT
10
10.5306
20
51.3571
0
VERTEX
8
CUT
10
10.9796
20
49.2143
0
VERTEX
8
CUT
10
11.3469
20
47.0714
0
VERTEX
8
CUT
10
11.6327
20
44.9286
0
VERTEX
8
CUT
10
11.8367
20
42.7857
0
VERTEX
8
CUT
10
11.9592
20
40.6429
0
VERTEX
8
CUT
10
12
20
38.5
0
VERTEX
8
CUT
10
11.9592
20
36.3571
0
VERTEX
8
CUT
10
11.8367
20
34.2143
0
VERTEX
8
CUT
10
11.6327
20
32.0714
0
VERTEX
8
CUT
10
11.3469
20
29.9286
0
VERTEX
8
CUT
10
10.9796
20
27.7857
0
VERTEX
8
CUT
10
10.5306
20
25.6429
0
VERTEX
8
CUT
10
10
20
23.5
0
SEQEND
0
POLYLINE
8
CUT
66
1
70
0
0
VERTEX
8
CUT
10
10
20
22
0
VERTEX
8
CUT
10
10.5306
20
19.8571
0
VERTEX
8
CUT
10
10.9796
20
17.7143
0
VERTEX
8
CUT
10
11.3469
20
15.5714
0
VERTEX
8
CUT
10
11.6327
20
13.4286
0
VERTEX
8
CUT
10
11.8367
20
11.2857
0
VERTEX
8
CUT
10
11.9592
20
9.1429
0
VERTEX
8
CUT
10
12
20
7
0
VERTEX
8
CUT
10
11.9592
20
4.8571
0
VERTEX
8
CUT
10
11.8367
20
2.7143
0
VERTEX
8
CUT
10
11.6327
20
0.5714
0
VERTEX
8
CUT
10
11.5565
20
0
0
SEQEND
0
POLYLINE
8
CUT
66
1
70
0
0
VERTEX
8
CUT
10
14
20
69.25
0
VERTEX
8
CUT
10
13.4694
20
67.1071
0
VERTEX
8
CUT
10
13.0204
20
64.9643
0
VERTEX
8
CUT
10
12.6531
20
62.8214
0
VERTEX
8
CUT
10
12.3673
20
60.6786
0
VERTEX
8
CUT
10
12.1633
20
58.5357
0
VERTEX
8
CUT
10
12.0408
20
56.3929
0
VERTEX
8
CUT
10
12
20
54.25
0
VERTEX
8
CUT
10
12.0408
20
52.1071
0
VERTEX
8
CUT
10
12.1633
20
49.9643
0
VERTEX
8
CUT
10
12.3673
20
47.8214
0
VERTEX
8
CUT
10
12.6531
20
45.6786
0
VERTEX
8
CUT
10
13.0204
20
43.5357
0
VERTEX
8
CUT
10
13.4694
20
41.3929
0
VERTEX
8
CUT
10
14
20
39.25
0
SEQEND
0
POLYLINE
8
CUT
66
1
70
0
0
VERTEX
8
CUT
10
14
20
37.75
0
VERTEX
8
CUT
10
13.4694
20
35.6071
0
VERTEX
8
CUT
10
13.0204
20
33.4643
0
VERTEX
8
CUT
10
12.6531
20
31.3214
0
VERTEX
8
CUT
10
12.3673
20
29.1786
0
VERTEX
8
CUT
10
12.1633
20
27.0357
0
VERTEX
8
CUT
10
12.0408
20
24.8929
0
VERTEX
8
CUT
10
12
20
22.75
0
VERTEX
8
CUT
10
12.0408
20
20.6071
0
VERTEX
8
CUT
10
12.1633
20
18.4643
0
VERTEX
8
CUT
10
12.3673
20
16.3214
0
VERTEX
8
CUT
10
12.6531
20
14.1786
0
VERTEX
8
CUT
10
13.0204
20
12.0357
0
VERTEX
8
CUT
10
13.4694
20
9.8929
0
VERTEX
8
CUT
10
14
20
7.75
0
SEQEND
0
POLYLINE
8
CUT
66
1
70
0
0
VERTEX
8
CUT
10
14
20
6.25
0
VERTEX
8
CUT
10
13.4694
20
4.1071
0
VERTEX
8
CUT
10
13.0204
20
1.9643
0
VERTEX
8
CUT
10
12.6837
20
0
0
SEQEND
0
POLYLINE
8
CUT
66
1
70
0
0
VERTEX
8
CUT
10
20
20
70
0
VERTEX
8
CUT
10
20
20
70
0
VERTEX
8
CUT
10
19.9592
20
67.8571
0
VERTEX
8
CUT
10
19.8367
20
65.7143
0
VERTEX
8
CUT
10
19.6327
20
63.5714
0
VERTEX
8
CUT
10
19.3469
20
61.4286
0
VERTEX
8
CUT
10
18.9796
20
59.2857
0
VERTEX
8
CUT
10
18.5306
20
57.1429
0
VERTEX
8
CUT
10
18
20
55
0
SEQEND
0
POLYLINE
8
CUT
66
1
70
0
0
VERTEX
8
CUT
10
18
20
53.5
0
VERTEX
8
CUT
10
18.5306
20
51.3571
0
VERTEX
8
CUT
10
18.9796
20
49.2143
0
VERTEX
8
CUT
10
19.3469
20
47.0714
0
VERTEX
8
CUT
10
19.6327
20
44.9286
0
VERTEX
8
CUT
10
19.8367
20
42.7857
0
VERTEX
8
CUT
10
19.9592
20
40.6429
0
VERTEX
8
CUT
10
20
20
38.5
0
VERTEX
8
CUT
10
19.9592
20
36.3571
0
VERTEX
8
CUT
10
19.8367
20
34.2143
0
VERTEX
8
CUT
10
19.6327
20
32.0714
0
VERTEX
8
CUT
10
19.3469
20
29.9286
0
VERTEX
8
CUT
10
18.9796
20
27.7857
0
VERTEX
8
CUT
10
18.5306
20
25.6429
0
VERTEX
8
CUT
10
18
20
23.5
0
SEQEND
0
POLYLINE
8
CUT
66
1
70
0
0
VERTEX
8
CUT
10
18
20
22
0
VERTEX
8
CUT
10
18.5306
20
19.8571
0
VERTEX
8
CUT
10
18.9796
20
17.7143
0
VERTEX
8
CUT
10
19.3469
20
15.5714
0
VERTEX
8
CUT
10
19.6327
20
13.4286
0
VERTEX
8
CUT
10
19.8367
20
11.2857
0
VERTEX
8
CUT
10
19.9592
20
9.1429
0
VERTEX
8
CUT
10
20
20
7
0
VERTEX
8
CUT
10
19.9592
20
4.8571
0
VERTEX
8
CUT
10
19.8367
20
2.7143
0
VERTEX
8
CUT
10
19.6327
20
0.5714
0
VERTEX
8
CUT
10
19.5565
20
0
0
SEQEND
0
POLYLINE
8
CUT
66
1
70
0
0
VERTEX
8
CUT
10
22
20
69.25
0
VERTEX
8
CUT
10
21.4694
20
67.1071
0
VERTEX
8
CUT
10
21.0204
20
64.9643
0
VERTEX
8
CUT
10
20.6531
20
62.8214
0
VERTEX
8
CUT
10
20.3673
20
60.6786
0
VERTEX
8
CUT
10
20.1633
20
58.5357
0
VERTEX
8
CUT
10
20.0408
20
56.3929
0
VERTEX
8
CUT
10
20
20
54.25
0
VERTEX
8
CUT
10
20.0408
20
52.1071
0
VERTEX
8
CUT
10
20.1633
20
49.9643
0
VERTEX
8
CUT
10
20.3673
20
47.8214
0
VERTEX
8
CUT
10
20.6531
20
45.6786
0
VERTEX
8
CUT
10
21.0204
20
43.5357
0
VERTEX
8
CUT
10
21.4694
20
41.3929
0
VERTEX
8
CUT
10
22
20
39.25
0
SEQEND
0
POLYLINE
8
CUT
66
1
70
0
0
VERTEX
8
CUT
10
22
20
37.75
0
VERTEX
8
CUT
10
21.4694
20
35.6071
0
VERTEX
8
CUT
10
21.0204
20
33.4643
0
VERTEX
8
CUT
10
20.6531
20
31.3214
0
VERTEX
8
CUT
10
20.3673
20
29.1786
0
VERTEX
8
CUT
10
20.1633
20
27.0357
0
VERTEX
8
CUT
10
20.0408
20
24.8929
0
VERTEX
8
CUT
10
20
20
22.75
0
VERTEX
8
CUT
10
20.0408
20
20.6071
0
VERTEX
8
CUT
10
20.1633
20
18.4643
0
VERTEX
8
CUT
10
20.3673
20
16.3214
0
VERTEX
8
CUT
10
20.6531
20
14.1786
0
VERTEX
8
CUT
10
21.0204
20
12.0357
0
VERTEX
8
CUT
10
21.4694
20
9.8929
0
VERTEX
8
CUT
10
22
20
7.75
0
SEQEND
0
POLYLINE
8
CUT
66
1
70
0
0
VERTEX
8
CUT
10
22
20
6.25
0
VERTEX
8
CUT
10
21.4694
20
4.1071
0
VERTEX
8
CUT
10
21.0204
20
1.9643
0
VERTEX
8
CUT
10
20.6837
20
0
0
SEQEND
0
POLYLINE
8
CUT
66
1
70
0
0
VERTEX
8
CUT
10
28
20
70
0
VERTEX
8
CUT
10
28
20
70
0
VERTEX
8
CUT
10
27.9592
20
67.8571
0
VERTEX
8
CUT
10
27.8367
20
65.7143
0
VERTEX
8
CUT
10
27.6327
20
63.5714
0
VERTEX
8
CUT
10
27.3469
20
61.4286
0
VERTEX
8
CUT
10
26.9796
20
59.2857
0
VERTEX
8
CUT
10
26.5306
20
57.1429
0
VERTEX
8
CUT
10
26
20
55
0
SEQEND
0
POLYLINE
8
CUT
66
1
70
0
0
VERTEX
8
CUT
10
26
20
53.5
0
VERTEX
8
CUT
10
26.5306
20
51.3571
0
VERTEX
8
CUT
10
26.9796
20
49.2143
0
VERTEX
8
CUT
10
27.3469
20
47.0714
0
VERTEX
8
CUT
10
27.6327
20
44.9286
0
VERTEX
8
CUT
10
27.8367
20
42.7857
0
VERTEX
8
CUT
10
27.9592
20
40.6429
0
VERTEX
8
CUT
10
28
20
38.5
0
VERTEX
8
CUT
10
27.9592
20
36.3571
0
VERTEX
8
CUT
10
27.8367
20
34.2143
0
VERTEX
8
CUT
10
27.6327
20
32.0714
0
VERTEX
8
CUT
10
27.3469
20
29.9286
0
VERTEX
8
CUT
10
26.9796
20
27.7857
0
VERTEX
8
CUT
10
26.5306
20
25.6429
0
VERTEX
8
CUT
10
26
20
23.5
0
SEQEND
0
POLYLINE
8
CUT
66
1
70
0
0
VERTEX
8
CUT
10
26
20
22
0
VERTEX
8
CUT
10
26.5306
20
19.8571
0
VERTEX
8
CUT
10
26.9796
20
17.7143
0
VERTEX
8
CUT
10
27.3469
20
15.5714
0
VERTEX
8
CUT
10
27.6327
20
13.4286
0
VERTEX
8
CUT
10
27.8367
20
11.2857
0
VERTEX
8
CUT
10
27.9592
20
9.1429
0
VERTEX
8
CUT
10
28
20
7
0
VERTEX
8
CUT
10
27.9592
20
4.8571
0
VERTEX
8
CUT
10
27.8367
20
2.7143
0
VERTEX
8
CUT
10
27.6327
20
0.5714
0
VERTEX
8
CUT
10
27.5565
20
0
0
SEQEND
0
POLYLINE
8
CUT
66
1
70
0
0
VERTEX
8
CUT
10
30
20
69.25
0
VERTEX
8
CUT
10
29.4694
20
67.1071
0
VERTEX
8
CUT
10
29.0204
20
64.9643
0
VERTEX
8
CUT
10
28.6531
20
62.8214
0
VERTEX
8
CUT
10
28.3673
20
60.6786
0
VERTEX
8
CUT
10
28.1633
20
58.5357
0
VERTEX
8
CUT
10
28.0408
20
56.3929
0
VERTEX
8
CUT
10
28
20
54.25
0
VERTEX
8
CUT
10
28.0408
20
52.1071
0
VERTEX
8
CUT
10
28.1633
20
49.9643
0
VERTEX
8
CUT
10
28.3673
20
47.8214
0
VERTEX
8
CUT
10
28.6531
20
45.6786
0
VERTEX
8
CUT
10
29.0204
20
43.5357
0
VERTEX
8
CUT
10
29.4694
20
41.3929
0
VERTEX
8
CUT
10
30
20
39.25
0
SEQEND
0
POLYLINE
8
CUT
66
1
70
0
0
VERTEX
8
CUT
10
30
20
37.75
0
VERTEX
8
CUT
10
29.4694
20
35.6071
0
VERTEX
8
CUT
10
29.0204
20
33.4643
0
VERTEX
8
CUT
10
28.6531
20
31.3214
0
VERTEX
8
CUT
10
28.3673
20
29.1786
0
VERTEX
8
CUT
10
28.1633
20
27.0357
0
VERTEX
8
CUT
10
28.0408
20
24.8929
0
VERTEX
8
CUT
10
28
20
22.75
0
VERTEX
8
CUT
10
28.0408
20
20.6071
0
VERTEX
8
CUT
10
28.1633
20
18.4643
0
VERTEX
8
CUT
10
28.3673
20
16.3214
0
VERTEX
8
CUT
10
28.6531
20
14.1786
0
VERTEX
8
CUT
10
29.0204
20
12.0357
0
VERTEX
8
CUT
10
29.4694
20
9.8929
0
VERTEX
8
CUT
10
30
20
7.75
0
SEQEND
0
POLYLINE
8
CUT
66
1
70
0
0
VERTEX
8
CUT
10
30
20
6.25
0
VERTEX
8
CUT
10
29.4694
20
4.1071
0
VERTEX
8
CUT
10
29.0204
20
1.9643
0
VERTEX
8
CUT
10
28.6837
20
0
0
SEQEND
0
POLYLINE
8
CUT
66
1
70
0
0
VERTEX
8
CUT
10
36
20
70
0
VERTEX
8
CUT
10
36
20
70
0
VERTEX
8
CUT
10
35.9592
20
67.8571
0
VERTEX
8
CUT
10
35.8367
20
65.7143
0
VERTEX
8
CUT
10
35.6327
20
63.5714
0
VERTEX
8
CUT
10
35.3469
20
61.4286
0
VERTEX
8
CUT
10
34.9796
20
59.2857
0
VERTEX
8
CUT
10
34.5306
20
57.1429
0
VERTEX
8
CUT
10
34
20
55
0
SEQEND
0
POLYLINE
8
CUT
66
1
70
0
0
VERTEX
8
CUT
10
34
20
53.5
0
VERTEX
8
CUT
10
34.5306
20
51.3571
0
VERTEX
8
CUT
10
34.9796
20
49.2143
0
VERTEX
8
CUT
10
35.3469
20
47.0714
0
VERTEX
8
CUT
10
35.6327
20
44.9286
0
VERTEX
8
CUT
10
35.8367
20
42.7857
0
VERTEX
8
CUT
10
35.9592
20
40.6429
0
VERTEX
8
CUT
10
36
20
38.5
0
VERTEX
8
CUT
10
35.9592
20
36.3571
0
VERTEX
8
CUT
10
35.8367
20
34.2143
0
VERTEX
8
CUT
10
35.6327
20
32.0714
0
VERTEX
8
CUT
10
35.3469
20
29.9286
0
VERTEX
8
CUT
10
34.9796
20
27.7857
0
VERTEX
8
CUT
10
34.5306
20
25.6429
0
VERTEX
8
CUT
10
34
20
23.5
0
SEQEND
0
POLYLINE
8
CUT
66
1
70
0
0
VERTEX
8
CUT
10
34
20
22
0
VERTEX
8
CUT
10
34.5306
20
19.8571
0
VERTEX
8
CUT
10
34.9796
20
17.7143
0
VERTEX
8
CUT
10
35.3469
20
15.5714
0
VERTEX
8
CUT
10
35.6327
20
13.4286
0
VERTEX
8
CUT
10
35.8367
20
11.2857
0
VERTEX
8
CUT
10
35.9592
20
9.1429
0
VERTEX
8
CUT
10
36
20
7
0
VERTEX
8
CUT
10
35.9592
20
4.8571
0
VERTEX
8
CUT
10
35.8367
20
2.7143
0
VERTEX
8
CUT
10
35.6327
20
0.5714
0
VERTEX
8
CUT
10
35.5565
20
0
0
SEQEND
0
POLYLINE
8
CUT
66
1
70
0
0
VERTEX
8
CUT
10
38
20
69.25
0
VERTEX
8
CUT
10
37.4694
20
67.1071
0
VERTEX
8
CUT
10
37.0204
20
64.9643
0
VERTEX
8
CUT
10
36.6531
20
62.8214
0
VERTEX
8
CUT
10
36.3673
20
60.6786
0
VERTEX
8
CUT
10
36.1633
20
58.5357
0
VERTEX
8
CUT
10
36.0408
20
56.3929
0
VERTEX
8
CUT
10
36
20
54.25
0
VERTEX
8
CUT
10
36.0408
20
52.1071
0
VERTEX
8
CUT
10
36.1633
20
49.9643
0
VERTEX
8
CUT
10
36.3673
20
47.8214
0
VERTEX
8
CUT
10
36.6531
20
45.6786
0
VERTEX
8
CUT
10
37.0204
20
43.5357
0
VERTEX
8
CUT
10
37.4694
20
41.3929
0
VERTEX
8
CUT
10
38
20
39.25
0
SEQEND
0
POLYLINE
8
CUT
66
1
70
0
0
VERTEX
8
CUT
10
38
20
37.75
0
VERTEX
8
CUT
10
37.4694
20
35.6071
0
VERTEX
8
CUT
10
37.0204
20
33.4643
0
VERTEX
8
CUT
10
36.6531
20
31.3214
0
VERTEX
8
CUT
10
36.3673
20
29.1786
0
VERTEX
8
CUT
10
36.1633
20
27.0357
0
VERTEX
8
CUT
10
36.0408
20
24.8929
0
VERTEX
8
CUT
10
36
20
22.75
0
VERTEX
8
CUT
10
36.0408
20
20.6071
0
VERTEX
8
CUT
10
36.1633
20
18.4643
0
VERTEX
8
CUT
10
36.3673
20
16.3214
0
VERTEX
8
CUT
10
36.6531
20
14.1786
0
VERTEX
8
CUT
10
37.0204
20
12.0357
0
VERTEX
8
CUT
10
37.4694
20
9.8929
0
VERTEX
8
CUT
10
38
20
7.75
0
SEQEND
0
POLYLINE
8
CUT
66
1
70
0
0
VERTEX
8
CUT
10
38
20
6.25
0
VERTEX
8
CUT
10
37.4694
20
4.1071
0
VERTEX
8
CUT
10
37.0204
20
1.9643
0
VERTEX
8
CUT
10
36.6837
20
0
0
SEQEND
0
POLYLINE
8
CUT
66
1
70
0
0
VERTEX
8
CUT
10
44
20
70
0
VERTEX
8
CUT
10
44
20
70
0
VERTEX
8
CUT
10
43.9592
20
67.8571
0
VERTEX
8
CUT
10
43.8367
20
65.7143
0
VERTEX
8
CUT
10
43.6327
20
63.5714
0
VERTEX
8
CUT
10
43.3469
20
61.4286
0
VERTEX
8
CUT
10
42.9796
20
59.2857
0
VERTEX
8
CUT
10
42.5306
20
57.1429
0
VERTEX
8
CUT
10
42
20
55
0
SEQEND
0
POLYLINE
8
CUT
66
1
70
0
0
VERTEX
8
CUT
10
42
20
53.5
0
VERTEX
8
CUT
10
42.5306
20
51.3571
0
VERTEX
8
CUT
10
42.9796
20
49.2143
0
VERTEX
8
CUT
10
43.3469
20
47.0714
0
VERTEX
8
CUT
10
43.6327
20
44.9286
0
VERTEX
8
CUT
10
43.8367
20
42.7857
0
VERTEX
8
CUT
10
43.9592
20
40.6429
0
VERTEX
8
CUT
10
44
20
38.5
0
VERTEX
8
CUT
10
43.9592
20
36.3571
0
VERTEX
8
CUT
10
43.8367
20
34.2143
0
VERTEX
8
CUT
10
43.6327
20
32.0714
0
VERTEX
8
CUT
10
43.3469
20
29.9286
0
VERTEX
8
CUT
10
42.9796
20
27.7857
0
VERTEX
8
CUT
10
42.5306
20
25.6429
0
VERTEX
8
CUT
10
42
20
23.5
0
SEQEND
0
POLYLINE
8
CUT
66
1
70
0
0
VERTEX
8
CUT
10
42
20
22
0
VERTEX
8
CUT
10
42.5306
20
19.8571
0
VERTEX
8
CUT
10
42.9796
20
17.7143
0
VERTEX
8
CUT
10
43.3469
20
15.5714
0
VERTEX
8
CUT
10
43.6327
20
13.4286
0
VERTEX
8
CUT
10
43.8367
20
11.2857
0
VERTEX
8
CUT
10
43.9592
20
9.1429
0
VERTEX
8
CUT
10
44
20
7
0
VERTEX
8
CUT
10
43.9592
20
4.8571
0
VERTEX
8
CUT
10
43.8367
20
2.7143
0
VERTEX
8
CUT
10
43.6327
20
0.5714
0
VERTEX
8
CUT
10
43.5565
20
0
0
SEQEND
0
POLYLINE
8
CUT
66
1
70
0
0
VERTEX
8
CUT
10
46
20
69.25
0
VERTEX
8
CUT
10
45.4694
20
67.1071
0
VERTEX
8
CUT
10
45.0204
20
64.9643
0
VERTEX
8
CUT
10
44.6531
20
62.8214
0
VERTEX
8
CUT
10
44.3673
20
60.6786
0
VERTEX
8
CUT
10
44.1633
20
58.5357
0
VERTEX
8
CUT
10
44.0408
20
56.3929
0
VERTEX
8
CUT
10
44
20
54.25
0
VERTEX
8
CUT
10
44.0408
20
52.1071
0
VERTEX
8
CUT
10
44.1633
20
49.9643
0
VERTEX
8
CUT
10
44.3673
20
47.8214
0
VERTEX
8
CUT
10
44.6531
20
45.6786
0
VERTEX
8
CUT
10
45.0204
20
43.5357
0
VERTEX
8
CUT
10
45.4694
20
41.3929
0
VERTEX
8
CUT
10
46
20
39.25
0
SEQEND
0
POLYLINE
8
CUT
66
1
70
0
0
VERTEX
8
CUT
10
46
20
37.75
0
VERTEX
8
CUT
10
45.4694
20
35.6071
0
VERTEX
8
CUT
10
45.0204
20
33.4643
0
VERTEX
8
CUT
10
44.6531
20
31.3214
0
VERTEX
8
CUT
10
44.3673
20
29.1786
0
VERTEX
8
CUT
10
44.1633
20
27.0357
0
VERTEX
8
CUT
10
44.0408
20
24.8929
0
VERTEX
8
CUT
10
44
20
22.75
0
VERTEX
8
CUT
10
44.0408
20
20.6071
0
VERTEX
8
CUT
10
44.1633
20
18.4643
0
VERTEX
8
CUT
10
44.3673
20
16.3214
0
VERTEX
8
CUT
10
44.6531
20
14.1786
0
VERTEX
8
CUT
10
45.0204
20
12.0357
0
VERTEX
8
CUT
10
45.4694
20
9.8929
0
VERTEX
8
CUT
10
46
20
7.75
0
SEQEND
0
POLYLINE
8
CUT
66
1
70
0
0
VERTEX
8
CUT
10
46
20
6.25
0
VERTEX
8
CUT
10
45.4694
20
4.1071
0
VERTEX
8
CUT
10
45.0204
20
1.9643
0
VERTEX
8
CUT
10
44.6837
20
0
0
SEQEND
0
POLYLINE
8
CUT
66
1
70
0
0
VERTEX
8
CUT
10
52
20
70
0
VERTEX
8
CUT
10
52
20
70
0
VERTEX
8
CUT
10
51.9592
20
67.8571
0
VERTEX
8
CUT
10
51.8367
20
65.7143
0
VERTEX
8
CUT
10
51.6327
20
63.5714
0
VERTEX
8
CUT
10
51.3469
20
61.4286
0
VERTEX
8
CUT
10
50.9796
20
59.2857
0
VERTEX
8
CUT
10
50.5306
20
57.1429
0
VERTEX
8
CUT
10
50
20
55
0
SEQEND
0
POLYLINE
8
CUT
66
1
70
0
0
VERTEX
8
CUT
10
50
20
53.5
0
VERTEX
8
CUT
10
50.5306
20
51.3571
0
VERTEX
8
CUT
10
50.9796
20
49.2143
0
VERTEX
8
CUT
10
51.3469
20
47.0714
0
VERTEX
8
CUT
10
51.6327
20
44.9286
0
VERTEX
8
CUT
10
51.8367
20
42.7857
0
VERTEX
8
CUT
10
51.9592
20
40.6429
0
VERTEX
8
CUT
10
52
20
38.5
0
VERTEX
8
CUT
10
51.9592
20
36.3571
0
VERTEX
8
CUT
10
51.8367
20
34.2143
0
VERTEX
8
CUT
10
51.6327
20
32.0714
0
VERTEX
8
CUT
10
51.3469
20
29.9286
0
VERTEX
8
CUT
10
50.9796
20
27.7857
0
VERTEX
8
CUT
10
50.5306
20
25.6429
0
VERTEX
8
CUT
10
50
20
23.5
0
SEQEND
0
POLYLINE
8
CUT
66
1
70
0
0
VERTEX
8
CUT
10
50
20
22
0
VERTEX
8
CUT
10
50.5306
20
19.8571
0
VERTEX
8
CUT
10
50.9796
20
17.7143
0
VERTEX
8
CUT
10
51.3469
20
15.5714
0
VERTEX
8
CUT
10
51.6327
20
13.4286
0
VERTEX
8
CUT
10
51.8367
20
11.2857
0
VERTEX
8
CUT
10
51.9592
20
9.1429
0
VERTEX
8
CUT
10
52
20
7
0
VERTEX
8
CUT
10
51.9592
20
4.8571
0
VERTEX
8
CUT
10
51.8367
20
2.7143
0
VERTEX
8
CUT
10
51.6327
20
0.5714
0
VERTEX
8
CUT
10
51.5565
20
0
0
SEQEND
0
POLYLINE
8
CUT
66
1
70
0
0
VERTEX
8
CUT
10
54
20
69.25
0
VERTEX
8
CUT
10
53.4694
20
67.1071
0
VERTEX
8
CUT
10
53.0204
20
64.9643
0
VERTEX
8
CUT
10
52.6531
20
62.8214
0
VERTEX
8
CUT
10
52.3673
20
60.6786
0
VERTEX
8
CUT
10
52.1633
20
58.5357
0
VERTEX
8
CUT
10
52.0408
20
56.3929
0
VERTEX
8
CUT
10
52
20
54.25
0
VERTEX
8
CUT
10
52.0408
20
52.1071
0
VERTEX
8
CUT
10
52.1633
20
49.9643
0
VERTEX
8
CUT
10
52.3673
20
47.8214
0
VERTEX
8
CUT
10
52.6531
20
45.6786
0
VERTEX
8
CUT
10
53.0204
20
43.5357
0
VERTEX
8
CUT
10
53.4694
20
41.3929
0
VERTEX
8
CUT
10
54
20
39.25
0
SEQEND
0
POLYLINE
8
CUT
66
1
70
0
0
VERTEX
8
CUT
10
54
20
37.75
0
VERTEX
8
CUT
10
53.4694
20
35.6071
0
VERTEX
8
CUT
10
53.0204
20
33.4643
0
VERTEX
8
CUT
10
52.6531
20
31.3214
0
VERTEX
8
CUT
10
52.3673
20
29.1786
0
VERTEX
8
CUT
10
52.1633
20
27.0357
0
VERTEX
8
CUT
10
52.0408
20
24.8929
0
VERTEX
8
CUT
10
52
20
22.75
0
VERTEX
8
CUT
10
52.0408
20
20.6071
0
VERTEX
8
CUT
10
52.1633
20
18.4643
0
VERTEX
8
CUT
10
52.3673
20
16.3214
0
VERTEX
8
CUT
10
52.6531
20
14.1786
0
VERTEX
8
CUT
10
53.0204
20
12.0357
0
VERTEX
8
CUT
10
53.4694
20
9.8929
0
VERTEX
8
CUT
10
54
20
7.75
0
SEQEND
0
POLYLINE
8
CUT
66
1
70
0
0
VERTEX
8
CUT
10
54
20
6.25
0
VERTEX
8
CUT
10
53.4694
20
4.1071
0
VERTEX
8
CUT
10
53.0204
20
1.9643
0
VERTEX
8
CUT
10
52.6837
20
0
0
SEQEND
0
POLYLINE
8
CUT
66
1
70
0
0
VERTEX
8
CUT
10
60
20
70
0
VERTEX
8
CUT
10
60
20
70
0
VERTEX
8
CUT
10
59.9592
20
67.8571
0
VERTEX
8
CUT
10
59.8367
20
65.7143
0
VERTEX
8
CUT
10
59.6327
20
63.5714
0
VERTEX
8
CUT
10
59.3469
20
61.4286
0
VERTEX
8
CUT
10
58.9796
20
59.2857
0
VERTEX
8
CUT
10
58.5306
20
57.1429
0
VERTEX
8
CUT
10
58
20
55
0
SEQEND
0
POLYLINE
8
CUT
66
1
70
0
0
VERTEX
8
CUT
10
58
20
53.5
0
VERTEX
8
CUT
10
58.5306
20
51.3571
0
VERTEX
8
CUT
10
58.9796
20
49.2143
0
VERTEX
8
CUT
10
59.3469
20
47.0714
0
VERTEX
8
CUT
10
59.6327
20
44.9286
0
VERTEX
8
CUT
10
59.8367
20
42.7857
0
VERTEX
8
CUT
10
59.9592
20
40.6429
0
VERTEX
8
CUT
10
60
20
38.5
0
VERTEX
8
CUT
10
59.9592
20
36.3571
0
VERTEX
8
CUT
10
59.8367
20
34.2143
0
VERTEX
8
CUT
10
59.6327
20
32.0714
0
VERTEX
8
CUT
10
59.3469
20
29.9286
0
VERTEX
8
CUT
10
58.9796
20
27.7857
0
VERTEX
8
CUT
10
58.5306
20
25.6429
0
VERTEX
8
CUT
10
58
20
23.5
0
SEQEND
0
POLYLINE
8
CUT
66
1
70
0
0
VERTEX
8
CUT
10
58
20
22
0
VERTEX
8
CUT
10
58.5306
20
19.8571
0
VERTEX
8
CUT
10
58.9796
20
17.7143
0
VERTEX
8
CUT
10
59.3469
20
15.5714
0
VERTEX
8
CUT
10
59.6327
20
13.4286
0
VERTEX
8
CUT
10
59.8367
20
11.2857
0
VERTEX
8
CUT
10
59.9592
20
9.1429
0
VERTEX
8
CUT
10
60
20
7
0
VERTEX
8
CUT
10
59.9592
20
4.8571
0
VERTEX
8
CUT
10
59.8367
20
2.7143
0
VERTEX
8
CUT
10
59.6327
20
0.5714
0
VERTEX
8
CUT
10
59.5565
20
0
0
SEQEND
0
POLYLINE
8
CUT
66
1
70
0
0
VERTEX
8
CUT
10
62
20
69.25
0
VERTEX
8
CUT
10
61.4694
20
67.1071
0
VERTEX
8
CUT
10
61.0204
20
64.9643
0
VERTEX
8
CUT
10
60.6531
20
62.8214
0
VERTEX
8
CUT
10
60.3673
20
60.6786
0
VERTEX
8
CUT
10
60.1633
20
58.5357
0
VERTEX
8
CUT
10
60.0408
20
56.3929
0
VERTEX
8
CUT
10
60
20
54.25
0
VERTEX
8
CUT
10
60.0408
20
52.1071
0
VERTEX
8
CUT
10
60.1633
20
49.9643
0
VERTEX
8
CUT
10
60.3673
20
47.8214
0
VERTEX
8
CUT
10
60.6531
20
45.6786
0
VERTEX
8
CUT
10
61.0204
20
43.5357
0
VERTEX
8
CUT
10
61.4694
20
41.3929
0
VERTEX
8
CUT
10
62
20
39.25
0
SEQEND
0
POLYLINE
8
CUT
66
1
70
0
0
VERTEX
8
CUT
10
62
20
37.75
0
VERTEX
8
CUT
10
61.4694
20
35.6071
0
VERTEX
8
CUT
10
61.0204
20
33.4643
0
VERTEX
8
CUT
10
60.6531
20
31.3214
0
VERTEX
8
CUT
10
60.3673
20
29.1786
0
VERTEX
8
CUT
10
60.1633
20
27.0357
0
VERTEX
8
CUT
10
60.0408
20
24.8929
0
VERTEX
8
CUT
10
60
20
22.75
0
VERTEX
8
CUT
10
60.0408
20
20.6071
0
VERTEX
8
CUT
10
60.1633
20
18.4643
0
VERTEX
8
CUT
10
60.3673
20
16.3214
0
VERTEX
8
CUT
10
60.6531
20
14.1786
0
VERTEX
8
CUT
10
61.0204
20
12.0357
0
VERTEX
8
CUT
10
61.4694
20
9.8929
0
VERTEX
8
CUT
10
62
20
7.75
0
SEQEND
0
POLYLINE
8
CUT
66
1
70
0
0
VERTEX
8
CUT
10
62
20
6.25
0
VERTEX
8
CUT
10
61.4694
20
4.1071
0
VERTEX
8
CUT
10
61.0204
20
1.9643
0
VERTEX
8
CUT
10
60.6837
20
0
0
SEQEND
0
POLYLINE
8
CUT
66
1
70
0
0
VERTEX
8
CUT
10
68
20
70
0
VERTEX
8
CUT
10
68
20
70
0
VERTEX
8
CUT
10
67.9592
20
67.8571
0
VERTEX
8
CUT
10
67.8367
20
65.7143
0
VERTEX
8
CUT
10
67.6327
20
63.5714
0
VERTEX
8
CUT
10
67.3469
20
61.4286
0
VERTEX
8
CUT
10
66.9796
20
59.2857
0
VERTEX
8
CUT
10
66.5306
20
57.1429
0
VERTEX
8
CUT
10
66
20
55
0
SEQEND
0
POLYLINE
8
CUT
66
1
70
0
0
VERTEX
8
CUT
10
66
20
53.5
0
VERTEX
8
CUT
10
66.5306
20
51.3571
0
VERTEX
8
CUT
10
66.9796
20
49.2143
0
VERTEX
8
CUT
10
67.3469
20
47.0714
0
VERTEX
8
CUT
10
67.6327
20
44.9286
0
VERTEX
8
CUT
10
67.8367
20
42.7857
0
VERTEX
8
CUT
10
67.9592
20
40.6429
0
VERTEX
8
CUT
10
68
20
38.5
0
VERTEX
8
CUT
10
67.9592
20
36.3571
0
VERTEX
8
CUT
10
67.8367
20
34.2143
0
VERTEX
8
CUT
10
67.6327
20
32.0714
0
VERTEX
8
CUT
10
67.3469
20
29.9286
0
VERTEX
8
CUT
10
66.9796
20
27.7857
0
VERTEX
8
CUT
10
66.5306
20
25.6429
0
VERTEX
8
CUT
10
66
20
23.5
0
SEQEND
0
POLYLINE
8
CUT
66
1
70
0
0
VERTEX
8
CUT
10
66
20
22
0
VERTEX
8
CUT
10
66.5306
20
19.8571
0
VERTEX
8
CUT
10
66.9796
20
17.7143
0
VERTEX
8
CUT
10
67.3469
20
15.5714
0
VERTEX
8
CUT
10
67.6327
20
13.4286
0
VERTEX
8
CUT
10
67.8367
20
11.2857
0
VERTEX
8
CUT
10
67.9592
20
9.1429
0
VERTEX
8
CUT
10
68
20
7
0
VERTEX
8
CUT
10
67.9592
20
4.8571
0
VERTEX
8
CUT
10
67.8367
20
2.7143
0
VERTEX
8
CUT
10
67.6327
20
0.5714
0
VERTEX
8
CUT
10
67.5565
20
0
0
SEQEND
0
POLYLINE
8
CUT
66
1
70
0
0
VERTEX
8
CUT
10
70
20
69.25
0
VERTEX
8
CUT
10
69.4694
20
67.1071
0
VERTEX
8
CUT
10
69.0204
20
64.9643
0
VERTEX
8
CUT
10
68.6531
20
62.8214
0
VERTEX
8
CUT
10
68.3673
20
60.6786
0
VERTEX
8
CUT
10
68.1633
20
58.5357
0
VERTEX
8
CUT
10
68.0408
20
56.3929
0
VERTEX
8
CUT
10
68
20
54.25
0
VERTEX
8
CUT
10
68.0408
20
52.1071
0
VERTEX
8
CUT
10
68.1633
20
49.9643
0
VERTEX
8
CUT
10
68.3673
20
47.8214
0
VERTEX
8
CUT
10
68.6531
20
45.6786
0
VERTEX
8
CUT
10
69.0204
20
43.5357
0
VERTEX
8
CUT
10
69.4694
20
41.3929
0
VERTEX
8
CUT
10
70
20
39.25
0
SEQEND
0
POLYLINE
8
CUT
66
1
70
0
0
VERTEX
8
CUT
10
70
20
37.75
0
VERTEX
8
CUT
10
69.4694
20
35.6071
0
VERTEX
8
CUT
10
69.0204
20
33.4643
0
VERTEX
8
CUT
10
68.6531
20
31.3214
0
VERTEX
8
CUT
10
68.3673
20
29.1786
0
VERTEX
8
CUT
10
68.1633
20
27.0357
0
VERTEX
8
CUT
10
68.0408
20
24.8929
0
VERTEX
8
CUT
10
68
20
22.75
0
VERTEX
8
CUT
10
68.0408
20
20.6071
0
VERTEX
8
CUT
10
68.1633
20
18.4643
0
VERTEX
8
CUT
10
68.3673
20
16.3214
0
VERTEX
8
CUT
10
68.6531
20
14.1786
0
VERTEX
8
CUT
10
69.0204
20
12.0357
0
VERTEX
8
CUT
10
69.4694
20
9.8929
0
VERTEX
8
CUT
10
70
20
7.75
0
SEQEND
0
POLYLINE
8
CUT
66
1
70
0
0
VERTEX
8
CUT
10
70
20
6.25
0
VERTEX
8
CUT
10
69.4694
20
4.1071
0
VERTEX
8
CUT
10
69.0204
20
1.9643
0
VERTEX
8
CUT
10
68.6837
20
0
0
SEQEND
0
POLYLINE
8
CUT
66
1
70
0
0
VERTEX
8
CUT
10
76
20
70
0
VERTEX
8
CUT
10
76
20
70
0
VERTEX
8
CUT
10
75.9592
20
67.8571
0
VERTEX
8
CUT
10
75.8367
20
65.7143
0
VERTEX
8
CUT
10
75.6327
20
63.5714
0
VERTEX
8
CUT
10
75.3469
20
61.4286
0
VERTEX
8
CUT
10
74.9796
20
59.2857
0
VERTEX
8
CUT
10
74.5306
20
57.1429
0
VERTEX
8
CUT
10
74
20
55
0
SEQEND
0
POLYLINE
8
CUT
66
1
70
0
0
VERTEX
8
CUT
10
74
20
53.5
0
VERTEX
8
CUT
10
74.5306
20
51.3571
0
VERTEX
8
CUT
10
74.9796
20
49.2143
0
VERTEX
8
CUT
10
75.3469
20
47.0714
0
VERTEX
8
CUT
10
75.6327
20
44.9286
0
VERTEX
8
CUT
10
75.8367
20
42.7857
0
VERTEX
8
CUT
10
75.9592
20
40.6429
0
VERTEX
8
CUT
10
76
20
38.5
0
VERTEX
8
CUT
10
75.9592
20
36.3571
0
VERTEX
8
CUT
10
75.8367
20
34.2143
0
VERTEX
8
CUT
10
75.6327
20
32.0714
0
VERTEX
8
CUT
10
75.3469
20
29.9286
0
VERTEX
8
CUT
10
74.9796
20
27.7857
0
VERTEX
8
CUT
10
74.5306
20
25.6429
0
VERTEX
8
CUT
10
74
20
23.5
0
SEQEND
0
POLYLINE
8
CUT
66
1
70
0
0
VERTEX
8
CUT
10
74
20
22
0
VERTEX
8
CUT
10
74.5306
20
19.8571
0
VERTEX
8
CUT
10
74.9796
20
17.7143
0
VERTEX
8
CUT
10
75.3469
20
15.5714
0
VERTEX
8
CUT
10
75.6327
20
13.4286
0
VERTEX
8
CUT
10
75.8367
20
11.2857
0
VERTEX
8
CUT
10
75.9592
20
9.1429
0
VERTEX
8
CUT
10
76
20
7
0
VERTEX
8
CUT
10
75.9592
20
4.8571
0
VERTEX
8
CUT
10
75.8367
20
2.7143
0
VERTEX
8
CUT
10
75.6327
20
0.5714
0
VERTEX
8
CUT
10
75.5565
20
0
0
SEQEND
0
POLYLINE
8
CUT
66
1
70
0
0
VERTEX
8
CUT
10
78
20
69.25
0
VERTEX
8
CUT
10
77.4694
20
67.1071
0
VERTEX
8
CUT
10
77.0204
20
64.9643
0
VERTEX
8
CUT
10
76.6531
20
62.8214
0
VERTEX
8
CUT
10
76.3673
20
60.6786
0
VERTEX
8
CUT
10
76.1633
20
58.5357
0
VERTEX
8
CUT
10
76.0408
20
56.3929
0
VERTEX
8
CUT
10
76
20
54.25
0
VERTEX
8
CUT
10
76.0408
20
52.1071
0
VERTEX
8
CUT
10
76.1633
20
49.9643
0
VERTEX
8
CUT
10
76.3673
20
47.8214
0
VERTEX
8
CUT
10
76.6531
20
45.6786
0
VERTEX
8
CUT
10
77.0204
20
43.5357
0
VERTEX
8
CUT
10
77.4694
20
41.3929
0
VERTEX
8
CUT
10
78
20
39.25
0
SEQEND
0
POLYLINE
8
CUT
66
1
70
0
0
VERTEX
8
CUT
10
78
20
37.75
0
VERTEX
8
CUT
10
77.4694
20
35.6071
0
VERTEX
8
CUT
10
77.0204
20
33.4643
0
VERTEX
8
CUT
10
76.6531
20
31.3214
0
VERTEX
8
CUT
10
76.3673
20
29.1786
0
VERTEX
8
CUT
10
76.1633
20
27.0357
0
VERTEX
8
CUT
10
76.0408
20
24.8929
0
VERTEX
8
CUT
10
76
20
22.75
0
VERTEX
8
CUT
10
76.0408
20
20.6071
0
VERTEX
8
CUT
10
76.1633
20
18.4643
0
VERTEX
8
CUT
10
76.3673
20
16.3214
0
VERTEX
8
CUT
10
76.6531
20
14.1786
0
VERTEX
8
CUT
10
77.0204
20
12.0357
0
VERTEX
8
CUT
10
77.4694
20
9.8929
0
VERTEX
8
CUT
10
78
20
7.75
0
SEQEND
0
POLYLINE
8
CUT
66
1
70
0
0
VERTEX
8
CUT
10
78
20
6.25
0
VERTEX
8
CUT
10
77.4694
20
4.1071
0
VERTEX
8
CUT
10
77.0204
20
1.9643
0
VERTEX
8
CUT
10
76.6837
20
0
0
SEQEND
0
POLYLINE
8
CUT
66
1
70
0
0
VERTEX
8
CUT
10
84
20
70
0
VERTEX
8
CUT
10
84
20
70
0
VERTEX
8
CUT
10
83.9592
20
67.8571
0
VERTEX
8
CUT
10
83.8367
20
65.7143
0
VERTEX
8
CUT
10
83.6327
20
63.5714
0
VERTEX
8
CUT
10
83.3469
20
61.4286
0
VERTEX
8
CUT
10
82.9796
20
59.2857
0
VERTEX
8
CUT
10
82.5306
20
57.1429
0
VERTEX
8
CUT
10
82
20
55
0
SEQEND
0
POLYLINE
8
CUT
66
1
70
0
0
VERTEX
8
CUT
10
82
20
53.5
0
VERTEX
8
CUT
10
82.5306
20
51.3571
0
VERTEX
8
CUT
10
82.9796
20
49.2143
0
VERTEX
8
CUT
10
83.3469
20
47.0714
0
VERTEX
8
CUT
10
83.6327
20
44.9286
0
VERTEX
8
CUT
10
83.8367
20
42.7857
0
VERTEX
8
CUT
10
83.9592
20
40.6429
0
VERTEX
8
CUT
10
84
20
38.5
0
VERTEX
8
CUT
10
83.9592
20
36.3571
0
VERTEX
8
CUT
10
83.8367
20
34.2143
0
VERTEX
8
CUT
10
83.6327
20
32.0714
0
VERTEX
8
CUT
10
83.3469
20
29.9286
0
VERTEX
8
CUT
10
82.9796
20
27.7857
0
VERTEX
8
CUT
10
82.5306
20
25.6429
0
VERTEX
8
CUT
10
82
20
23.5
0
SEQEND
0
POLYLINE
8
CUT
66
1
70
0
0
VERTEX
8
CUT
10
82
20
22
0
VERTEX
8
CUT
10
82.5306
20
19.8571
0
VERTEX
8
CUT
10
82.9796
20
17.7143
0
VERTEX
8
CUT
10
83.3469
20
15.5714
0
VERTEX
8
CUT
10
83.6327
20
13.4286
0
VERTEX
8
CUT
10
83.8367
20
11.2857
0
VERTEX
8
CUT
10
83.9592
20
9.1429
0
VERTEX
8
CUT
10
84
20
7
0
VERTEX
8
CUT
10
83.9592
20
4.8571
0
VERTEX
8
CUT
10
83.8367
20
2.7143
0
VERTEX
8
CUT
10
83.6327
20
0.5714
0
VERTEX
8
CUT
10
83.5565
20
0
0
SEQEND
0
POLYLINE
8
CUT
66
1
70
0
0
VERTEX
8
CUT
10
86
20
69.25
0
VERTEX
8
CUT
10
85.4694
20
67.1071
0
VERTEX
8
CUT
10
85.0204
20
64.9643
0
VERTEX
8
CUT
10
84.6531
20
62.8214
0
VERTEX
8
CUT
10
84.3673
20
60.6786
0
VERTEX
8
CUT
10
84.1633
20
58.5357
0
VERTEX
8
CUT
10
84.0408
20
56.3929
0
VERTEX
8
CUT
10
84
20
54.25
0
VERTEX
8
CUT
10
84.0408
20
52.1071
0
VERTEX
8
CUT
10
84.1633
20
49.9643
0
VERTEX
8
CUT
10
84.3673
20
47.8214
0
VERTEX
8
CUT
10
84.6531
20
45.6786
0
VERTEX
8
CUT
10
85.0204
20
43.5357
0
VERTEX
8
CUT
10
85.4694
20
41.3929
0
VERTEX
8
CUT
10
86
20
39.25
0
SEQEND
0
POLYLINE
8
CUT
66
1
70
0
0
VERTEX
8
CUT
10
86
20
37.75
0
VERTEX
8
CUT
10
85.4694
20
35.6071
0
VERTEX
8
CUT
10
85.0204
20
33.4643
0
VERTEX
8
CUT
10
84.6531
20
31.3214
0
VERTEX
8
CUT
10
84.3673
20
29.1786
0
VERTEX
8
CUT
10
84.1633
20
27.0357
0
VERTEX
8
CUT
10
84.0408
20
24.8929
0
VERTEX
8
CUT
10
84
20
22.75
0
VERTEX
8
CUT
10
84.0408
20
20.6071
0
VERTEX
8
CUT
10
84.1633
20
18.4643
0
VERTEX
8
CUT
10
84.3673
20
16.3214
0
VERTEX
8
CUT
10
84.6531
20
14.1786
0
VERTEX
8
CUT
10
85.0204
20
12.0357
0
VERTEX
8
CUT
10
85.4694
20
9.8929
0
VERTEX
8
CUT
10
86
20
7.75
0
SEQEND
0
POLYLINE
8
CUT
66
1
70
0
0
VERTEX
8
CUT
10
86
20
6.25
0
VERTEX
8
CUT
10
85.4694
20
4.1071
0
VERTEX
8
CUT
10
85.0204
20
1.9643
0
VERTEX
8
CUT
10
84.6837
20
0
0
SEQEND
0
POLYLINE
8
CUT
66
1
70
0
0
VERTEX
8
CUT
10
92
20
70
0
VERTEX
8
CUT
10
92
20
70
0
VERTEX
8
CUT
10
91.9592
20
67.8571
0
VERTEX
8
CUT
10
91.8367
20
65.7143
0
VERTEX
8
CUT
10
91.6327
20
63.5714
0
VERTEX
8
CUT
10
91.3469
20
61.4286
0
VERTEX
8
CUT
10
90.9796
20
59.2857
0
VERTEX
8
CUT
10
90.5306
20
57.1429
0
VERTEX
8
CUT
10
90
20
55
0
SEQEND
0
POLYLINE
8
CUT
66
1
70
0
0
VERTEX
8
CUT
10
90
20
53.5
0
VERTEX
8
CUT
10
90.5306
20
51.3571
0
VERTEX
8
CUT
10
90.9796
20
49.2143
0
VERTEX
8
CUT
10
91.3469
20
47.0714
0
VERTEX
8
CUT
10
91.6327
20
44.9286
0
VERTEX
8
CUT
10
91.8367
20
42.7857
0
VERTEX
8
CUT
10
91.9592
20
40.6429
0
VERTEX
8
CUT
10
92
20
38.5
0
VERTEX
8
CUT
10
91.9592
20
36.3571
0
VERTEX
8
CUT
10
91.8367
20
34.2143
0
VERTEX
8
CUT
10
91.6327
20
32.0714
0
VERTEX
8
CUT
10
91.3469
20
29.9286
0
VERTEX
8
CUT
10
90.9796
20
27.7857
0
VERTEX
8
CUT
10
90.5306
20
25.6429
0
VERTEX
8
CUT
10
90
20
23.5
0
SEQEND
0
POLYLINE
8
CUT
66
1
70
0
0
VERTEX
8
CUT
10
90
20
22
0
VERTEX
8
CUT
10
90.5306
20
19.8571
0
VERTEX
8
CUT
10
90.9796
20
17.7143
0
VERTEX
8
CUT
10
91.3469
20
15.5714
0
VERTEX
8
CUT
10
91.6327
20
13.4286
0
VERTEX
8
CUT
10
91.8367
20
11.2857
0
VERTEX
8
CUT
10
91.9592
20
9.1429
0
VERTEX
8
CUT
10
92
20
7
0
VERTEX
8
CUT
10
91.9592
20
4.8571
0
VERTEX
8
CUT
10
91.8367
20
2.7143
0
VERTEX
8
CUT
10
91.6327
20
0.5714
0
VERTEX
8
CUT
10
91.5565
20
0
0
SEQEND
0
POLYLINE
8
CUT
66
1
70
0
0
VERTEX
8
CUT
10
94
20
69.25
0
VERTEX
8
CUT
10
93.4694
20
67.1071
0
VERTEX
8
CUT
10
93.0204
20
64.9643
0
VERTEX
8
CUT
10
92.6531
20
62.8214
0
VERTEX
8
CUT
10
92.3673
20
60.6786
0
VERTEX
8
CUT
10
92.1633
20
58.5357
0
VERTEX
8
CUT
10
92.0408
20
56.3929
0
VERTEX
8
CUT
10
92
20
54.25
0
VERTEX
8
CUT
10
92.0408
20
52.1071
0
VERTEX
8
CUT
10
92.1633
20
49.9643
0
VERTEX
8
CUT
10
92.3673
20
47.8214
0
VERTEX
8
CUT
10
92.6531
20
45.6786
0
VERTEX
8
CUT
10
93.0204
20
43.5357
0
VERTEX
8
CUT
10
93.4694
20
41.3929
0
VERTEX
8
CUT
10
94
20
39.25
0
SEQEND
0
POLYLINE
8
CUT
66
1
70
0
0
VERTEX
8
CUT
10
94
20
37.75
0
VERTEX
8
CUT
10
93.4694
20
35.6071
0
VERTEX
8
CUT
10
93.0204
20
33.4643
0
VERTEX
8
CUT
10
92.6531
20
31.3214
0
VERTEX
8
CUT
10
92.3673
20
29.1786
0
VERTEX
8
CUT
10
92.1633
20
27.0357
0
VERTEX
8
CUT
10
92.0408
20
24.8929
0
VERTEX
8
CUT
10
92
20
22.75
0
VERTEX
8
CUT
10
92.0408
20
20.6071
0
VERTEX
8
CUT
10
92.1633
20
18.4643
0
VERTEX
8
CUT
10
92.3673
20
16.3214
0
VERTEX
8
CUT
10
92.6531
20
14.1786
0
VERTEX
8
CUT
10
93.0204
20
12.0357
0
VERTEX
8
CUT
10
93.4694
20
9.8929
0
VERTEX
8
CUT
10
94
20
7.75
0
SEQEND
0
POLYLINE
8
CUT
66
1
70
0
0
VERTEX
8
CUT
10
94
20
6.25
0
VERTEX
8
CUT
10
93.4694
20
4.1071
0
VERTEX
8
CUT
10
93.0204
20
1.9643
0
VERTEX
8
CUT
10
92.6837
20
0
0
SEQEND
0
POLYLINE
8
CUT
66
1
70
0
0
VERTEX
8
CUT
10
100
20
70
0
VERTEX
8
CUT
10
100
20
70
0
VERTEX
8
CUT
10
99.9592
20
67.8571
0
VERTEX
8
CUT
10
99.8367
20
65.7143
0
VERTEX
8
CUT
10
99.6327
20
63.5714
0
VERTEX
8
CUT
10
99.3469
20
61.4286
0
VERTEX
8
CUT
10
98.9796
20
59.2857
0
VERTEX
8
CUT
10
98.5306
20
57.1429
0
VERTEX
8
CUT
10
98
20
55
0
SEQEND
0
POLYLINE
8
CUT
66
1
70
0
0
VERTEX
8
CUT
10
98
20
53.5
0
VERTEX
8
CUT
10
98.5306
20
51.3571
0
VERTEX
8
CUT
10
98.9796
20
49.2143
0
VERTEX
8
CUT
10
99.3469
20
47.0714
0
VERTEX
8
CUT
10
99.6327
20
44.9286
0
VERTEX
8
CUT
10
99.8367
20
42.7857
0
VERTEX
8
CUT
10
99.9592
20
40.6429
0
VERTEX
8
CUT
10
100
20
38.5
0
VERTEX
8
CUT
10
99.9592
20
36.3571
0
VERTEX
8
CUT
10
99.8367
20
34.2143
0
VERTEX
8
CUT
10
99.6327
20
32.0714
0
VERTEX
8
CUT
10
99.3469
20
29.9286
0
VERTEX
8
CUT
10
98.9796
20
27.7857
0
VERTEX
8
CUT
10
98.5306
20
25.6429
0
VERTEX
8
CUT
10
98
20
23.5
0
SEQEND
0
POLYLINE
8
CUT
66
1
70
0
0
VERTEX
8
CUT
10
98
20
22
0
VERTEX
8
CUT
10
98.5306
20
19.8571
0
VERTEX
8
CUT
10
98.9796
20
17.7143
0
VERTEX
8
CUT
10
99.3469
20
15.5714
0
VERTEX
8
CUT
10
99.6327
20
13.4286
0
VERTEX
8
CUT
10
99.8367
20
11.2857
0
VERTEX
8
CUT
10
99.9592
20
9.1429
0
VERTEX
8
CUT
10
100
20
7
0
VERTEX
8
CUT
10
99.9592
20
4.8571
0
VERTEX
8
CUT
10
99.8367
20
2.7143
0
VERTEX
8
CUT
10
99.6327
20
0.5714
0
VERTEX
8
CUT
10
99.5565
20
0
0
SEQEND
0
POLYLINE
8
CUT
66
1
70
0
0
VERTEX
8
CUT
10
102
20
69.25
0
VERTEX
8
CUT
10
101.4694
20
67.1071
0
VERTEX
8
CUT
10
101.0204
20
64.9643
0
VERTEX
8
CUT
10
100.6531
20
62.8214
0
VERTEX
8
CUT
10
100.3673
20
60.6786
0
VERTEX
8
CUT
10
100.1633
20
58.5357
0
VERTEX
8
CUT
10
100.0408
20
56.3929
0
VERTEX
8
CUT
10
100
20
54.25
0
VERTEX
8
CUT
10
100.0408
20
52.1071
0
VERTEX
8
CUT
10
100.1633
20
49.9643
0
VERTEX
8
CUT
10
100.3673
20
47.8214
0
VERTEX
8
CUT
10
100.6531
20
45.6786
0
VERTEX
8
CUT
10
101.0204
20
43.5357
0
VERTEX
8
CUT
10
101.4694
20
41.3929
0
VERTEX
8
CUT
10
102
20
39.25
0
SEQEND
0
POLYLINE
8
CUT
66
1
70
0
0
VERTEX
8
CUT
10
102
20
37.75
0
VERTEX
8
CUT
10
101.4694
20
35.6071
0
VERTEX
8
CUT
10
101.0204
20
33.4643
0
VERTEX
8
CUT
10
100.6531
20
31.3214
0
VERTEX
8
CUT
10
100.3673
20
29.1786
0
VERTEX
8
CUT
10
100.1633
20
27.0357
0
VERTEX
8
CUT
10
100.0408
20
24.8929
0
VERTEX
8
CUT
10
100
20
22.75
0
VERTEX
8
CUT
10
100.0408
20
20.6071
0
VERTEX
8
CUT
10
100.1633
20
18.4643
0
VERTEX
8
CUT
10
100.3673
20
16.3214
0
VERTEX
8
CUT
10
100.6531
20
14.1786
0
VERTEX
8
CUT
10
101.0204
20
12.0357
0
VERTEX
8
CUT
10
101.4694
20
9.8929
0
VERTEX
8
CUT
10
102
20
7.75
0
SEQEND
0
POLYLINE
8
CUT
66
1
70
0
0
VERTEX
8
CUT
10
102
20
6.25
0
VERTEX
8
CUT
10
101.4694
20
4.1071
0
VERTEX
8
CUT
10
101.0204
20
1.9643
0
VERTEX
8
CUT
10
100.6837
20
0
0
SEQEND
0
POLYLINE
8
CUT
66
1
70
0
0
VERTEX
8
CUT
10
108
20
70
0
VERTEX
8
CUT
10
108
20
70
0
VERTEX
8
CUT
10
107.9592
20
67.8571
0
VERTEX
8
CUT
10
107.8367
20
65.7143
0
VERTEX
8
CUT
10
107.6327
20
63.5714
0
VERTEX
8
CUT
10
107.3469
20
61.4286
0
VERTEX
8
CUT
10
106.9796
20
59.2857
0
VERTEX
8
CUT
10
106.5306
20
57.1429
0
VERTEX
8
CUT
10
106
20
55
0
SEQEND
0
POLYLINE
8
CUT
66
1
70
0
0
VERTEX
8
CUT
10
106
20
53.5
0
VERTEX
8
CUT
10
106.5306
20
51.3571
0
VERTEX
8
CUT
10
106.9796
20
49.2143
0
VERTEX
8
CUT
10
107.3469
20
47.0714
0
VERTEX
8
CUT
10
107.6327
20
44.9286
0
VERTEX
8
CUT
10
107.8367
20
42.7857
0
VERTEX
8
CUT
10
107.9592
20
40.6429
0
VERTEX
8
CUT
10
108
20
38.5
0
VERTEX
8
CUT
10
107.9592
20
36.3571
0
VERTEX
8
CUT
10
107.8367
20
34.2143
0
VERTEX
8
CUT
10
107.6327
20
32.0714
0
VERTEX
8
CUT
10
107.3469
20
29.9286
0
VERTEX
8
CUT
10
106.9796
20
27.7857
0
VERTEX
8
CUT
10
106.5306
20
25.6429
0
VERTEX
8
CUT
10
106
20
23.5
0
SEQEND
0
POLYLINE
8
CUT
66
1
70
0
0
VERTEX
8
CUT
10
106
20
22
0
VERTEX
8
CUT
10
106.5306
20
19.8571
0
VERTEX
8
CUT
10
106.9796
20
17.7143
0
VERTEX
8
CUT
10
107.3469
20
15.5714
0
VERTEX
8
CUT
10
107.6327
20
13.4286
0
VERTEX
8
CUT
10
107.8367
20
11.2857
0
VERTEX
8
CUT
10
107.9592
20
9.1429
0
VERTEX
8
CUT
10
108
20
7
0
VERTEX
8
CUT
10
107.9592
20
4.8571
0
VERTEX
8
CUT
10
107.8367
20
2.7143
0
VERTEX
8
CUT
10
107.6327
20
0.5714
0
VERTEX
8
CUT
10
107.5565
20
0
0
SEQEND
0
POLYLINE
8
CUT
66
1
70
0
0
VERTEX
8
CUT
10
110
20
69.25
0
VERTEX
8
CUT
10
109.4694
20
67.1071
0
VERTEX
8
CUT
10
109.0204
20
64.9643
0
VERTEX
8
CUT
10
108.6531
20
62.8214
0
VERTEX
8
CUT
10
108.3673
20
60.6786
0
VERTEX
8
CUT
10
108.1633
20
58.5357
0
VERTEX
8
CUT
10
108.0408
20
56.3929
0
VERTEX
8
CUT
10
108
20
54.25
0
VERTEX
8
CUT
10
108.0408
20
52.1071
0
VERTEX
8
CUT
10
108.1633
20
49.9643
0
VERTEX
8
CUT
10
108.3673
20
47.8214
0
VERTEX
8
CUT
10
108.6531
20
45.6786
0
VERTEX
8
CUT
10
109.0204
20
43.5357
0
VERTEX
8
CUT
10
109.4694
20
41.3929
0
VERTEX
8
CUT
10
110
20
39.25
0
SEQEND
0
POLYLINE
8
CUT
66
1
70
0
0
VERTEX
8
CUT
10
110
20
37.75
0
VERTEX
8
CUT
10
109.4694
20
35.6071
0
VERTEX
8
CUT
10
109.0204
20
33.4643
0
VERTEX
8
CUT
10
108.6531
20
31.3214
0
VERTEX
8
CUT
10
108.3673
20
29.1786
0
VERTEX
8
CUT
10
108.1633
20
27.0357
0
VERTEX
8
CUT
10
108.0408
20
24.8929
0
VERTEX
8
CUT
10
108
20
22.75
0
VERTEX
8
CUT
10
108.0408
20
20.6071
0
VERTEX
8
CUT
10
108.1633
20
18.4643
0
VERTEX
8
CUT
10
108.3673
20
16.3214
0
VERTEX
8
CUT
10
108.6531
20
14.1786
0
VERTEX
8
CUT
10
109.0204
20
12.0357
0
VERTEX
8
CUT
10
109.4694
20
9.8929
0
VERTEX
8
CUT
10
110
20
7.75
0
SEQEND
0
POLYLINE
8
CUT
66
1
70
0
0
VERTEX
8
CUT
10
110
20
6.25
0
VERTEX
8
CUT
10
109.4694
20
4.1071
0
VERTEX
8
CUT
10
109.0204
20
1.9643
0
VERTEX
8
CUT
10
108.6837
20
0
0
SEQEND
0
POLYLINE
8
CUT
66
1
70
0
0
VERTEX
8
CUT
10
116
20
70
0
VERTEX
8
CUT
10
116
20
70
0
VERTEX
8
CUT
10
115.9592
20
67.8571
0
VERTEX
8
CUT
10
115.8367
20
65.7143
0
VERTEX
8
CUT
10
115.6327
20
63.5714
0
VERTEX
8
CUT
10
115.3469
20
61.4286
0
VERTEX
8
CUT
10
114.9796
20
59.2857
0
VERTEX
8
CUT
10
114.5306
20
57.1429
0
VERTEX
8
CUT
10
114
20
55
0
SEQEND
0
POLYLINE
8
CUT
66
1
70
0
0
VERTEX
8
CUT
10
114
20
53.5
0
VERTEX
8
CUT
10
114.5306
20
51.3571
0
VERTEX
8
CUT
10
114.9796
20
49.2143
0
VERTEX
8
CUT
10
115.3469
20
47.0714
0
VERTEX
8
CUT
10
115.6327
20
44.9286
0
VERTEX
8
CUT
10
115.8367
20
42.7857
0
VERTEX
8
CUT
10
115.9592
20
40.6429
0
VERTEX
8
CUT
10
116
20
38.5
0
VERTEX
8
CUT
10
115.9592
20
36.3571
0
VERTEX
8
CUT
10
115.8367
20
34.2143
0
VERTEX
8
CUT
10
115.6327
20
32.0714
0
VERTEX
8
CUT
10
115.3469
20
29.9286
0
VERTEX
8
CUT
10
114.9796
20
27.7857
0
VERTEX
8
CUT
10
114.5306
20
25.6429
0
VERTEX
8
CUT
10
114
20
23.5
0
SEQEND
0
POLYLINE
8
CUT
66
1
70
0
0
VERTEX
8
CUT
10
114
20
22
0
VERTEX
8
CUT
10
114.5306
20
19.8571
0
VERTEX
8
CUT
10
114.9796
20
17.7143
0
VERTEX
8
CUT
10
115.3469
20
15.5714
0
VERTEX
8
CUT
10
115.6327
20
13.4286
0
VERTEX
8
CUT
10
115.8367
20
11.2857
0
VERTEX
8
CUT
10
115.9592
20
9.1429
0
VERTEX
8
CUT
10
116
20
7
0
VERTEX
8
CUT
10
115.9592
20
4.8571
0
VERTEX
8
CUT
10
115.8367
20
2.7143
0
VERTEX
8
CUT
10
115.6327
20
0.5714
0
VERTEX
8
CUT
10
115.5565
20
0
0
SEQEND
0
POLYLINE
8
CUT
66
1
70
0
0
VERTEX
8
CUT
10
118
20
69.25
0
VERTEX
8
CUT
10
117.4694
20
67.1071
0
VERTEX
8
CUT
10
117.0204
20
64.9643
0
VERTEX
8
CUT
10
116.6531
20
62.8214
0
VERTEX
8
CUT
10
116.3673
20
60.6786
0
VERTEX
8
CUT
10
116.1633
20
58.5357
0
VERTEX
8
CUT
10
116.0408
20
56.3929
0
VERTEX
8
CUT
10
116
20
54.25
0
VERTEX
8
CUT
10
116.0408
20
52.1071
0
VERTEX
8
CUT
10
116.1633
20
49.9643
0
VERTEX
8
CUT
10
116.3673
20
47.8214
0
VERTEX
8
CUT
10
116.6531
20
45.6786
0
VERTEX
8
CUT
10
117.0204
20
43.5357
0
VERTEX
8
CUT
10
117.4694
20
41.3929
0
VERTEX
8
CUT
10
118
20
39.25
0
SEQEND
0
POLYLINE
8
CUT
66
1
70
0
0
VERTEX
8
CUT
10
118
20
37.75
0
VERTEX
8
CUT
10
117.4694
20
35.6071
0
VERTEX
8
CUT
10
117.0204
20
33.4643
0
VERTEX
8
CUT
10
116.6531
20
31.3214
0
VERTEX
8
CUT
10
116.3673
20
29.1786
0
VERTEX
8
CUT
10
116.1633
20
27.0357
0
VERTEX
8
CUT
10
116.0408
20
24.8929
0
VERTEX
8
CUT
10
116
20
22.75
0
VERTEX
8
CUT
10
116.0408
20
20.6071
0
VERTEX
8
CUT
10
116.1633
20
18.4643
0
VERTEX
8
CUT
10
116.3673
20
16.3214
0
VERTEX
8
CUT
10
116.6531
20
14.1786
0
VERTEX
8
CUT
10
117.0204
20
12.0357
0
VERTEX
8
CUT
10
117.4694
20
9.8929
0
VERTEX
8
CUT
10
118
20
7.75
0
SEQEND
0
POLYLINE
8
CUT
66
1
70
0
0
VERTEX
8
CUT
10
118
20
6.25
0
VERTEX
8
CUT
10
117.4694
20
4.1071
0
VERTEX
8
CUT
10
117.0204
20
1.9643
0
VERTEX
8
CUT
10
116.6837
20
0
0
SEQEND
0
POLYLINE
8
CUT
66
1
70
0
0
VERTEX
8
CUT
10
0
20
70
0
VERTEX
8
CUT
10
120
20
70
0
VERTEX
8
CUT
10
120
20
0
0
VERTEX
8
CUT
10
0
20
0
0
VERTEX
8
CUT
10
0
20
70
0
SEQEND
0
ENDSEC
0
EOF
