0
SECTION
2
HEADER
9
$ACADVER
1
AC1009
9
$INSUNITS
70
4
0
ENDSEC
0
SECTION
2
TABLES
0
TABLE
2
LAYER
70
1
0
LAYER
2
CUT
70
0
62
1
6
CONTINUOUS
0
ENDTAB
0
ENDSEC
0
SECTION
2
ENTITIES
0
LINE
8
CUT
10
0.4562
20
70
11
0.03
21
69.318
0
LINE
8
CUT
10
2.5438
20
70
11
2.97
21
69.318
0
LINE
8
CUT
10
4.4562
20
70
11
4.03
21
69.318
0
LINE
8
CUT
10
6.5438
20
70
11
6.97
21
69.318
0
LINE
8
CUT
10
8.4562
20
70
11
8.03
21
69.318
0
LINE
8
CUT
10
10.5438
20
70
11
10.97
21
69.318
0
LINE
8
CUT
10
12.4562
20
70
11
12.03
21
69.318
0
LINE
8
CUT
10
14.5438
20
70
11
14.97
21
69.318
0
LINE
8
CUT
10
16.4562
20
70
11
16.03
21
69.318
0
LINE
8
CUT
10
18.5438
20
70
11
18.97
21
69.318
0
LINE
8
CUT
10
20.4562
20
70
11
20.03
21
69.318
0
LINE
8
CUT
10
22.5438
20
70
11
22.97
21
69.318
0
LINE
8
CUT
10
24.4562
20
70
11
24.03
21
69.318
0
LINE
8
CUT
10
26.5438
20
70
11
26.97
21
69.318
0
LINE
8
CUT
10
28.4562
20
70
11
28.03
21
69.318
0
LINE
8
CUT
10
30.5438
20
70
11
30.97
21
69.318
0
LINE
8
CUT
10
32.4562
20
70
11
32.03
21
69.318
0
LINE
8
CUT
10
34.5438
20
70
11
34.97
21
69.318
0
LINE
8
CUT
10
36.4562
20
70
11
36.03
21
69.318
0
LINE
8
CUT
10
38.5438
20
70
11
38.97
21
69.318
0
LINE
8
CUT
10
40.4562
20
70
11
40.03
21
69.318
0
LINE
8
CUT
10
42.5438
20
70
11
42.97
21
69.318
0
LINE
8
CUT
10
44.4562
20
70
11
44.03
21
69.318
0
LINE
8
CUT
10
46.5438
20
70
11
46.97
21
69.318
0
LINE
8
CUT
10
48.4562
20
70
11
48.03
21
69.318
0
LINE
8
CUT
10
50.5438
20
70
11
50.97
21
69.318
0
LINE
8
CUT
10
52.4562
20
70
11
52.03
21
69.318
0
LINE
8
CUT
10
54.5438
20
70
11
54.97
21
69.318
0
LINE
8
CUT
10
56.4562
20
70
11
56.03
21
69.318
0
LINE
8
CUT
10
58.5438
20
70
11
58.97
21
69.318
0
LINE
8
CUT
10
60.4562
20
70
11
60.03
21
69.318
0
LINE
8
CUT
10
62.5438
20
70
11
62.97
21
69.318
0
LINE
8
CUT
10
64.4562
20
70
11
64.03
21
69.318
0
LINE
8
CUT
10
66.5438
20
70
11
66.97
21
69.318
0
LINE
8
CUT
10
68.4562
20
70
11
68.03
21
69.318
0
LINE
8
CUT
10
70.5438
20
70
11
70.97
21
69.318
0
LINE
8
CUT
10
72.4562
20
70
11
72.03
21
69.318
0
LINE
8
CUT
10
74.5438
20
70
11
74.97
21
69.318
0
LINE
8
CUT
10
76.4562
20
70
11
76.03
21
69.318
0
LINE
8
CUT
10
78.5438
20
70
11
78.97
21
69.318
0
LINE
8
CUT
10
80.4562
20
70
11
80.03
21
69.318
0
LINE
8
CUT
10
82.5438
20
70
11
82.97
21
69.318
0
LINE
8
CUT
10
84.4562
20
70
11
84.03
21
69.318
0
LINE
8
CUT
10
86.5438
20
70
11
86.97
21
69.318
0
LINE
8
CUT
10
88.4562
20
70
11
88.03
21
69.318
0
LINE
8
CUT
10
90.5438
20
70
11
90.97
21
69.318
0
LINE
8
CUT
10
92.4562
20
70
11
92.03
21
69.318
0
LINE
8
CUT
10
94.5438
20
70
11
94.97
21
69.318
0
LINE
8
CUT
10
96.4562
20
70
11
96.03
21
69.318
0
LINE
8
CUT
10
98.5438
20
70
11
98.97
21
69.318
0
LINE
8
CUT
10
100.4562
20
70
11
100.03
21
69.318
0
LINE
8
CUT
10
102.5438
20
70
11
102.97
21
69.318
0
LINE
8
CUT
10
104.4562
20
70
11
104.03
21
69.318
0
LINE
8
CUT
10
106.5438
20
70
11
106.97
21
69.318
0
LINE
8
CUT
10
108.4562
20
70
11
108.03
21
69.318
0
LINE
8
CUT
10
110.5438
20
70
11
110.97
21
69.318
0
LINE
8
CUT
10
112.4562
20
70
11
112.03
21
69.318
0
LINE
8
CUT
10
114.5438
20
70
11
114.97
21
69.318
0
LINE
8
CUT
10
116.4562
20
70
11
116.03
21
69.318
0
LINE
8
CUT
10
118.5438
20
70
11
118.97
21
69.318
0
POLYLINE
8
CUT
66
1
70
0
0
VERTEX
8
CUT
10
0.97
20
69.152
0
VERTEX
8
CUT
10
0
20
67.6
0
VERTEX
8
CUT
10
0
20
60.4
0
VERTEX
8
CUT
10
0.97
20
58.848
0
SEQEND
0
POLYLINE
8
CUT
66
1
70
0
0
VERTEX
8
CUT
10
2.03
20
69.152
0
VERTEX
8
CUT
10
3
20
67.6
0
VERTEX
8
CUT
10
3
20
60.4
0
VERTEX
8
CUT
10
2.03
20
58.848
0
SEQEND
0
POLYLINE
8
CUT
66
1
70
0
0
VERTEX
8
CUT
10
4.97
20
69.152
0
VERTEX
8
CUT
10
4
20
67.6
0
VERTEX
8
CUT
10
4
20
60.4
0
VERTEX
8
CUT
10
4.97
20
58.848
0
SEQEND
0
POLYLINE
8
CUT
66
1
70
0
0
VERTEX
8
CUT
10
6.03
20
69.152
0
VERTEX
8
CUT
10
7
20
67.6
0
VERTEX
8
CUT
10
7
20
60.4
0
VERTEX
8
CUT
10
6.03
20
58.848
0
SEQEND
0
POLYLINE
8
CUT
66
1
70
0
0
VERTEX
8
CUT
10
8.97
20
69.152
0
VERTEX
8
CUT
10
8
20
67.6
0
VERTEX
8
CUT
10
8
20
60.4
0
VERTEX
8
CUT
10
8.97
20
58.848
0
SEQEND
0
POLYLINE
8
CUT
66
1
70
0
0
VERTEX
8
CUT
10
10.03
20
69.152
0
VERTEX
8
CUT
10
11
20
67.6
0
VERTEX
8
CUT
10
11
20
60.4
0
VERTEX
8
CUT
10
10.03
20
58.848
0
SEQEND
0
POLYLINE
8
CUT
66
1
70
0
0
VERTEX
8
CUT
10
12.97
20
69.152
0
VERTEX
8
CUT
10
12
20
67.6
0
VERTEX
8
CUT
10
12
20
60.4
0
VERTEX
8
CUT
10
12.97
20
58.848
0
SEQEND
0
POLYLINE
8
CUT
66
1
70
0
0
VERTEX
8
CUT
10
14.03
20
69.152
0
VERTEX
8
CUT
10
15
20
67.6
0
VERTEX
8
CUT
10
15
20
60.4
0
VERTEX
8
CUT
10
14.03
20
58.848
0
SEQEND
0
POLYLINE
8
CUT
66
1
70
0
0
VERTEX
8
CUT
10
16.97
20
69.152
0
VERTEX
8
CUT
10
16
20
67.6
0
VERTEX
8
CUT
10
16
20
60.4
0
VERTEX
8
CUT
10
16.97
20
58.848
0
SEQEND
0
POLYLINE
8
CUT
66
1
70
0
0
VERTEX
8
CUT
10
18.03
20
69.152
0
VERTEX
8
CUT
10
19
20
67.6
0
VERTEX
8
CUT
10
19
20
60.4
0
VERTEX
8
CUT
10
18.03
20
58.848
0
SEQEND
0
POLYLINE
8
CUT
66
1
70
0
0
VERTEX
8
CUT
10
20.97
20
69.152
0
VERTEX
8
CUT
10
20
20
67.6
0
VERTEX
8
CUT
10
20
20
60.4
0
VERTEX
8
CUT
10
20.97
20
58.848
0
SEQEND
0
POLYLINE
8
CUT
66
1
70
0
0
VERTEX
8
CUT
10
22.03
20
69.152
0
VERTEX
8
CUT
10
23
20
67.6
0
VERTEX
8
CUT
10
23
20
60.4
0
VERTEX
8
CUT
10
22.03
20
58.848
0
SEQEND
0
POLYLINE
8
CUT
66
1
70
0
0
VERTEX
8
CUT
10
24.97
20
69.152
0
VERTEX
8
CUT
10
24
20
67.6
0
VERTEX
8
CUT
10
24
20
60.4
0
VERTEX
8
CUT
10
24.97
20
58.848
0
SEQEND
0
POLYLINE
8
CUT
66
1
70
0
0
VERTEX
8
CUT
10
26.03
20
69.152
0
VERTEX
8
CUT
10
27
20
67.6
0
VERTEX
8
CUT
10
27
20
60.4
0
VERTEX
8
CUT
10
26.03
20
58.848
0
SEQEND
0
POLYLINE
8
CUT
66
1
70
0
0
VERTEX
8
CUT
10
28.97
20
69.152
0
VERTEX
8
CUT
10
28
20
67.6
0
VERTEX
8
CUT
10
28
20
60.4
0
VERTEX
8
CUT
10
28.97
20
58.848
0
SEQEND
0
POLYLINE
8
CUT
66
1
70
0
0
VERTEX
8
CUT
10
30.03
20
69.152
0
VERTEX
8
CUT
10
31
20
67.6
0
VERTEX
8
CUT
10
31
20
60.4
0
VERTEX
8
CUT
10
30.03
20
58.848
0
SEQEND
0
POLYLINE
8
CUT
66
1
70
0
0
VERTEX
8
CUT
10
32.97
20
69.152
0
VERTEX
8
CUT
10
32
20
67.6
0
VERTEX
8
CUT
10
32
20
60.4
0
VERTEX
8
CUT
10
32.97
20
58.848
0
SEQEND
0
POLYLINE
8
CUT
66
1
70
0
0
VERTEX
8
CUT
10
34.03
20
69.152
0
VERTEX
8
CUT
10
35
20
67.6
0
VERTEX
8
CUT
10
35
20
60.4
0
VERTEX
8
CUT
10
34.03
20
58.848
0
SEQEND
0
POLYLINE
8
CUT
66
1
70
0
0
VERTEX
8
CUT
10
36.97
20
69.152
0
VERTEX
8
CUT
10
36
20
67.6
0
VERTEX
8
CUT
10
36
20
60.4
0
VERTEX
8
CUT
10
36.97
20
58.848
0
SEQEND
0
POLYLINE
8
CUT
66
1
70
0
0
VERTEX
8
CUT
10
38.03
20
69.152
0
VERTEX
8
CUT
10
39
20
67.6
0
VERTEX
8
CUT
10
39
20
60.4
0
VERTEX
8
CUT
10
38.03
20
58.848
0
SEQEND
0
POLYLINE
8
CUT
66
1
70
0
0
VERTEX
8
CUT
10
40.97
20
69.152
0
VERTEX
8
CUT
10
40
20
67.6
0
VERTEX
8
CUT
10
40
20
60.4
0
VERTEX
8
CUT
10
40.97
20
58.848
0
SEQEND
0
POLYLINE
8
CUT
66
1
70
0
0
VERTEX
8
CUT
10
42.03
20
69.152
0
VERTEX
8
CUT
10
43
20
67.6
0
VERTEX
8
CUT
10
43
20
60.4
0
VERTEX
8
CUT
10
42.03
20
58.848
0
SEQEND
0
POLYLINE
8
CUT
66
1
70
0
0
VERTEX
8
CUT
10
44.97
20
69.152
0
VERTEX
8
CUT
10
44
20
67.6
0
VERTEX
8
CUT
10
44
20
60.4
0
VERTEX
8
CUT
10
44.97
20
58.848
0
SEQEND
0
POLYLINE
8
CUT
66
1
70
0
0
VERTEX
8
CUT
10
46.03
20
69.152
0
VERTEX
8
CUT
10
47
20
67.6
0
VERTEX
8
CUT
10
47
20
60.4
0
VERTEX
8
CUT
10
46.03
20
58.848
0
SEQEND
0
POLYLINE
8
CUT
66
1
70
0
0
VERTEX
8
CUT
10
48.97
20
69.152
0
VERTEX
8
CUT
10
48
20
67.6
0
VERTEX
8
CUT
10
48
20
60.4
0
VERTEX
8
CUT
10
48.97
20
58.848
0
SEQEND
0
POLYLINE
8
CUT
66
1
70
0
0
VERTEX
8
CUT
10
50.03
20
69.152
0
VERTEX
8
CUT
10
51
20
67.6
0
VERTEX
8
CUT
10
51
20
60.4
0
VERTEX
8
CUT
10
50.03
20
58.848
0
SEQEND
0
POLYLINE
8
CUT
66
1
70
0
0
VERTEX
8
CUT
10
52.97
20
69.152
0
VERTEX
8
CUT
10
52
20
67.6
0
VERTEX
8
CUT
10
52
20
60.4
0
VERTEX
8
CUT
10
52.97
20
58.848
0
SEQEND
0
POLYLINE
8
CUT
66
1
70
0
0
VERTEX
8
CUT
10
54.03
20
69.152
0
VERTEX
8
CUT
10
55
20
67.6
0
VERTEX
8
CUT
10
55
20
60.4
0
VERTEX
8
CUT
10
54.03
20
58.848
0
SEQEND
0
POLYLINE
8
CUT
66
1
70
0
0
VERTEX
8
CUT
10
56.97
20
69.152
0
VERTEX
8
CUT
10
56
20
67.6
0
VERTEX
8
CUT
10
56
20
60.4
0
VERTEX
8
CUT
10
56.97
20
58.848
0
SEQEND
0
POLYLINE
8
CUT
66
1
70
0
0
VERTEX
8
CUT
10
58.03
20
69.152
0
VERTEX
8
CUT
10
59
20
67.6
0
VERTEX
8
CUT
10
59
20
60.4
0
VERTEX
8
CUT
10
58.03
20
58.848
0
SEQEND
0
POLYLINE
8
CUT
66
1
70
0
0
VERTEX
8
CUT
10
60.97
20
69.152
0
VERTEX
8
CUT
10
60
20
67.6
0
VERTEX
8
CUT
10
60
20
60.4
0
VERTEX
8
CUT
10
60.97
20
58.848
0
SEQEND
0
POLYLINE
8
CUT
66
1
70
0
0
VERTEX
8
CUT
10
62.03
20
69.152
0
VERTEX
8
CUT
10
63
20
67.6
0
VERTEX
8
CUT
10
63
20
60.4
0
VERTEX
8
CUT
10
62.03
20
58.848
0
SEQEND
0
POLYLINE
8
CUT
66
1
70
0
0
VERTEX
8
CUT
10
64.97
20
69.152
0
VERTEX
8
CUT
10
64
20
67.6
0
VERTEX
8
CUT
10
64
20
60.4
0
VERTEX
8
CUT
10
64.97
20
58.848
0
SEQEND
0
POLYLINE
8
CUT
66
1
70
0
0
VERTEX
8
CUT
10
66.03
20
69.152
0
VERTEX
8
CUT
10
67
20
67.6
0
VERTEX
8
CUT
10
67
20
60.4
0
VERTEX
8
CUT
10
66.03
20
58.848
0
SEQEND
0
POLYLINE
8
CUT
66
1
70
0
0
VERTEX
8
CUT
10
68.97
20
69.152
0
VERTEX
8
CUT
10
68
20
67.6
0
VERTEX
8
CUT
10
68
20
60.4
0
VERTEX
8
CUT
10
68.97
20
58.848
0
SEQEND
0
POLYLINE
8
CUT
66
1
70
0
0
VERTEX
8
CUT
10
70.03
20
69.152
0
VERTEX
8
CUT
10
71
20
67.6
0
VERTEX
8
CUT
10
71
20
60.4
0
VERTEX
8
CUT
10
70.03
20
58.848
0
SEQEND
0
POLYLINE
8
CUT
66
1
70
0
0
VERTEX
8
CUT
10
72.97
20
69.152
0
VERTEX
8
CUT
10
72
20
67.6
0
VERTEX
8
CUT
10
72
20
60.4
0
VERTEX
8
CUT
10
72.97
20
58.848
0
SEQEND
0
POLYLINE
8
CUT
66
1
70
0
0
VERTEX
8
CUT
10
74.03
20
69.152
0
VERTEX
8
CUT
10
75
20
67.6
0
VERTEX
8
CUT
10
75
20
60.4
0
VERTEX
8
CUT
10
74.03
20
58.848
0
SEQEND
0
POLYLINE
8
CUT
66
1
70
0
0
VERTEX
8
CUT
10
76.97
20
69.152
0
VERTEX
8
CUT
10
76
20
67.6
0
VERTEX
8
CUT
10
76
20
60.4
0
VERTEX
8
CUT
10
76.97
20
58.848
0
SEQEND
0
POLYLINE
8
CUT
66
1
70
0
0
VERTEX
8
CUT
10
78.03
20
69.152
0
VERTEX
8
CUT
10
79
20
67.6
0
VERTEX
8
CUT
10
79
20
60.4
0
VERTEX
8
CUT
10
78.03
20
58.848
0
SEQEND
0
POLYLINE
8
CUT
66
1
70
0
0
VERTEX
8
CUT
10
80.97
20
69.152
0
VERTEX
8
CUT
10
80
20
67.6
0
VERTEX
8
CUT
10
80
20
60.4
0
VERTEX
8
CUT
10
80.97
20
58.848
0
SEQEND
0
POLYLINE
8
CUT
66
1
70
0
0
VERTEX
8
CUT
10
82.03
20
69.152
0
VERTEX
8
CUT
10
83
20
67.6
0
VERTEX
8
CUT
10
83
20
60.4
0
VERTEX
8
CUT
10
82.03
20
58.848
0
SEQEND
0
POLYLINE
8
CUT
66
1
70
0
0
VERTEX
8
CUT
10
84.97
20
69.152
0
VERTEX
8
CUT
10
84
20
67.6
0
VERTEX
8
CUT
10
84
20
60.4
0
VERTEX
8
CUT
10
84.97
20
58.848
0
SEQEND
0
POLYLINE
8
CUT
66
1
70
0
0
VERTEX
8
CUT
10
86.03
20
69.152
0
VERTEX
8
CUT
10
87
20
67.6
0
VERTEX
8
CUT
10
87
20
60.4
0
VERTEX
8
CUT
10
86.03
20
58.848
0
SEQEND
0
POLYLINE
8
CUT
66
1
70
0
0
VERTEX
8
CUT
10
88.97
20
69.152
0
VERTEX
8
CUT
10
88
20
67.6
0
VERTEX
8
CUT
10
88
20
60.4
0
VERTEX
8
CUT
10
88.97
20
58.848
0
SEQEND
0
POLYLINE
8
CUT
66
1
70
0
0
VERTEX
8
CUT
10
90.03
20
69.152
0
VERTEX
8
CUT
10
91
20
67.6
0
VERTEX
8
CUT
10
91
20
60.4
0
VERTEX
8
CUT
10
90.03
20
58.848
0
SEQEND
0
POLYLINE
8
CUT
66
1
70
0
0
VERTEX
8
CUT
10
92.97
20
69.152
0
VERTEX
8
CUT
10
92
20
67.6
0
VERTEX
8
CUT
10
92
20
60.4
0
VERTEX
8
CUT
10
92.97
20
58.848
0
SEQEND
0
POLYLINE
8
CUT
66
1
70
0
0
VERTEX
8
CUT
10
94.03
20
69.152
0
VERTEX
8
CUT
10
95
20
67.6
0
VERTEX
8
CUT
10
95
20
60.4
0
VERTEX
8
CUT
10
94.03
20
58.848
0
SEQEND
0
POLYLINE
8
CUT
66
1
70
0
0
VERTEX
8
CUT
10
96.97
20
69.152
0
VERTEX
8
CUT
10
96
20
67.6
0
VERTEX
8
CUT
10
96
20
60.4
0
VERTEX
8
CUT
10
96.97
20
58.848
0
SEQEND
0
POLYLINE
8
CUT
66
1
70
0
0
VERTEX
8
CUT
10
98.03
20
69.152
0
VERTEX
8
CUT
10
99
20
67.6
0
VERTEX
8
CUT
10
99
20
60.4
0
VERTEX
8
CUT
10
98.03
20
58.848
0
SEQEND
0
POLYLINE
8
CUT
66
1
70
0
0
VERTEX
8
CUT
10
100.97
20
69.152
0
VERTEX
8
CUT
10
100
20
67.6
0
VERTEX
8
CUT
10
100
20
60.4
0
VERTEX
8
CUT
10
100.97
20
58.848
0
SEQEND
0
POLYLINE
8
CUT
66
1
70
0
0
VERTEX
8
CUT
10
102.03
20
69.152
0
VERTEX
8
CUT
10
103
20
67.6
0
VERTEX
8
CUT
10
103
20
60.4
0
VERTEX
8
CUT
10
102.03
20
58.848
0
SEQEND
0
POLYLINE
8
CUT
66
1
70
0
0
VERTEX
8
CUT
10
104.97
20
69.152
0
VERTEX
8
CUT
10
104
20
67.6
0
VERTEX
8
CUT
10
104
20
60.4
0
VERTEX
8
CUT
10
104.97
20
58.848
0
SEQEND
0
POLYLINE
8
CUT
66
1
70
0
0
VERTEX
8
CUT
10
106.03
20
69.152
0
VERTEX
8
CUT
10
107
20
67.6
0
VERTEX
8
CUT
10
107
20
60.4
0
VERTEX
8
CUT
10
106.03
20
58.848
0
SEQEND
0
POLYLINE
8
CUT
66
1
70
0
0
VERTEX
8
CUT
10
108.97
20
69.152
0
VERTEX
8
CUT
10
108
20
67.6
0
VERTEX
8
CUT
10
108
20
60.4
0
VERTEX
8
CUT
10
108.97
20
58.848
0
SEQEND
0
POLYLINE
8
CUT
66
1
70
0
0
VERTEX
8
CUT
10
110.03
20
69.152
0
VERTEX
8
CUT
10
111
20
67.6
0
VERTEX
8
CUT
10
111
20
60.4
0
VERTEX
8
CUT
10
110.03
20
58.848
0
SEQEND
0
POLYLINE
8
CUT
66
1
70
0
0
VERTEX
8
CUT
10
112.97
20
69.152
0
VERTEX
8
CUT
10
112
20
67.6
0
VERTEX
8
CUT
10
112
20
60.4
0
VERTEX
8
CUT
10
112.97
20
58.848
0
SEQEND
0
POLYLINE
8
CUT
66
1
70
0
0
VERTEX
8
CUT
10
114.03
20
69.152
0
VERTEX
8
CUT
10
115
20
67.6
0
VERTEX
8
CUT
10
115
20
60.4
0
VERTEX
8
CUT
10
114.03
20
58.848
0
SEQEND
0
POLYLINE
8
CUT
66
1
70
0
0
VERTEX
8
CUT
10
116.97
20
69.152
0
VERTEX
8
CUT
10
116
20
67.6
0
VERTEX
8
CUT
10
116
20
60.4
0
VERTEX
8
CUT
10
116.97
20
58.848
0
SEQEND
0
POLYLINE
8
CUT
66
1
70
0
0
VERTEX
8
CUT
10
118.03
20
69.152
0
VERTEX
8
CUT
10
119
20
67.6
0
VERTEX
8
CUT
10
119
20
60.4
0
VERTEX
8
CUT
10
118.03
20
58.848
0
SEQEND
0
POLYLINE
8
CUT
66
1
70
0
0
VERTEX
8
CUT
10
120
20
67.6
0
VERTEX
8
CUT
10
120
20
67.6
0
VERTEX
8
CUT
10
120
20
60.4
0
VERTEX
8
CUT
10
120
20
60.4
0
SEQEND
0
POLYLINE
8
CUT
66
1
70
0
0
VERTEX
8
CUT
10
0.03
20
58.682
0
VERTEX
8
CUT
10
1
20
57.13
0
VERTEX
8
CUT
10
1
20
49.93
0
VERTEX
8
CUT
10
0.03
20
48.378
0
SEQEND
0
POLYLINE
8
CUT
66
1
70
0
0
VERTEX
8
CUT
10
2.97
20
58.682
0
VERTEX
8
CUT
10
2
20
57.13
0
VERTEX
8
CUT
10
2
20
49.93
0
VERTEX
8
CUT
10
2.97
20
48.378
0
SEQEND
0
POLYLINE
8
CUT
66
1
70
0
0
VERTEX
8
CUT
10
4.03
20
58.682
0
VERTEX
8
CUT
10
5
20
57.13
0
VERTEX
8
CUT
10
5
20
49.93
0
VERTEX
8
CUT
10
4.03
20
48.378
0
SEQEND
0
POLYLINE
8
CUT
66
1
70
0
0
VERTEX
8
CUT
10
6.97
20
58.682
0
VERTEX
8
CUT
10
6
20
57.13
0
VERTEX
8
CUT
10
6
20
49.93
0
VERTEX
8
CUT
10
6.97
20
48.378
0
SEQEND
0
POLYLINE
8
CUT
66
1
70
0
0
VERTEX
8
CUT
10
8.03
20
58.682
0
VERTEX
8
CUT
10
9
20
57.13
0
VERTEX
8
CUT
10
9
20
49.93
0
VERTEX
8
CUT
10
8.03
20
48.378
0
SEQEND
0
POLYLINE
8
CUT
66
1
70
0
0
VERTEX
8
CUT
10
10.97
20
58.682
0
VERTEX
8
CUT
10
10
20
57.13
0
VERTEX
8
CUT
10
10
20
49.93
0
VERTEX
8
CUT
10
10.97
20
48.378
0
SEQEND
0
POLYLINE
8
CUT
66
1
70
0
0
VERTEX
8
CUT
10
12.03
20
58.682
0
VERTEX
8
CUT
10
13
20
57.13
0
VERTEX
8
CUT
10
13
20
49.93
0
VERTEX
8
CUT
10
12.03
20
48.378
0
SEQEND
0
POLYLINE
8
CUT
66
1
70
0
0
VERTEX
8
CUT
10
14.97
20
58.682
0
VERTEX
8
CUT
10
14
20
57.13
0
VERTEX
8
CUT
10
14
20
49.93
0
VERTEX
8
CUT
10
14.97
20
48.378
0
SEQEND
0
POLYLINE
8
CUT
66
1
70
0
0
VERTEX
8
CUT
10
16.03
20
58.682
0
VERTEX
8
CUT
10
17
20
57.13
0
VERTEX
8
CUT
10
17
20
49.93
0
VERTEX
8
CUT
10
16.03
20
48.378
0
SEQEND
0
POLYLINE
8
CUT
66
1
70
0
0
VERTEX
8
CUT
10
18.97
20
58.682
0
VERTEX
8
CUT
10
18
20
57.13
0
VERTEX
8
CUT
10
18
20
49.93
0
VERTEX
8
CUT
10
18.97
20
48.378
0
SEQEND
0
POLYLINE
8
CUT
66
1
70
0
0
VERTEX
8
CUT
10
20.03
20
58.682
0
VERTEX
8
CUT
10
21
20
57.13
0
VERTEX
8
CUT
10
21
20
49.93
0
VERTEX
8
CUT
10
20.03
20
48.378
0
SEQEND
0
POLYLINE
8
CUT
66
1
70
0
0
VERTEX
8
CUT
10
22.97
20
58.682
0
VERTEX
8
CUT
10
22
20
57.13
0
VERTEX
8
CUT
10
22
20
49.93
0
VERTEX
8
CUT
10
22.97
20
48.378
0
SEQEND
0
POLYLINE
8
CUT
66
1
70
0
0
VERTEX
8
CUT
10
24.03
20
58.682
0
VERTEX
8
CUT
10
25
20
57.13
0
VERTEX
8
CUT
10
25
20
49.93
0
VERTEX
8
CUT
10
24.03
20
48.378
0
SEQEND
0
POLYLINE
8
CUT
66
1
70
0
0
VERTEX
8
CUT
10
26.97
20
58.682
0
VERTEX
8
CUT
10
26
20
57.13
0
VERTEX
8
CUT
10
26
20
49.93
0
VERTEX
8
CUT
10
26.97
20
48.378
0
SEQEND
0
POLYLINE
8
CUT
66
1
70
0
0
VERTEX
8
CUT
10
28.03
20
58.682
0
VERTEX
8
CUT
10
29
20
57.13
0
VERTEX
8
CUT
10
29
20
49.93
0
VERTEX
8
CUT
10
28.03
20
48.378
0
SEQEND
0
POLYLINE
8
CUT
66
1
70
0
0
VERTEX
8
CUT
10
30.97
20
58.682
0
VERTEX
8
CUT
10
30
20
57.13
0
VERTEX
8
CUT
10
30
20
49.93
0
VERTEX
8
CUT
10
30.97
20
48.378
0
SEQEND
0
POLYLINE
8
CUT
66
1
70
0
0
VERTEX
8
CUT
10
32.03
20
58.682
0
VERTEX
8
CUT
10
33
20
57.13
0
VERTEX
8
CUT
10
33
20
49.93
0
VERTEX
8
CUT
10
32.03
20
48.378
0
SEQEND
0
POLYLINE
8
CUT
66
1
70
0
0
VERTEX
8
CUT
10
34.97
20
58.682
0
VERTEX
8
CUT
10
34
20
57.13
0
VERTEX
8
CUT
10
34
20
49.93
0
VERTEX
8
CUT
10
34.97
20
48.378
0
SEQEND
0
POLYLINE
8
CUT
66
1
70
0
0
VERTEX
8
CUT
10
36.03
20
58.682
0
VERTEX
8
CUT
10
37
20
57.13
0
VERTEX
8
CUT
10
37
20
49.93
0
VERTEX
8
CUT
10
36.03
20
48.378
0
SEQEND
0
POLYLINE
8
CUT
66
1
70
0
0
VERTEX
8
CUT
10
38.97
20
58.682
0
VERTEX
8
CUT
10
38
20
57.13
0
VERTEX
8
CUT
10
38
20
49.93
0
VERTEX
8
CUT
10
38.97
20
48.378
0
SEQEND
0
POLYLINE
8
CUT
66
1
70
0
0
VERTEX
8
CUT
10
40.03
20
58.682
0
VERTEX
8
CUT
10
41
20
57.13
0
VERTEX
8
CUT
10
41
20
49.93
0
VERTEX
8
CUT
10
40.03
20
48.378
0
SEQEND
0
POLYLINE
8
CUT
66
1
70
0
0
VERTEX
8
CUT
10
42.97
20
58.682
0
VERTEX
8
CUT
10
42
20
57.13
0
VERTEX
8
CUT
10
42
20
49.93
0
VERTEX
8
CUT
10
42.97
20
48.378
0
SEQEND
0
POLYLINE
8
CUT
66
1
70
0
0
VERTEX
8
CUT
10
44.03
20
58.682
0
VERTEX
8
CUT
10
45
20
57.13
0
VERTEX
8
CUT
10
45
20
49.93
0
VERTEX
8
CUT
10
44.03
20
48.378
0
SEQEND
0
POLYLINE
8
CUT
66
1
70
0
0
VERTEX
8
CUT
10
46.97
20
58.682
0
VERTEX
8
CUT
10
46
20
57.13
0
VERTEX
8
CUT
10
46
20
49.93
0
VERTEX
8
CUT
10
46.97
20
48.378
0
SEQEND
0
POLYLINE
8
CUT
66
1
70
0
0
VERTEX
8
CUT
10
48.03
20
58.682
0
VERTEX
8
CUT
10
49
20
57.13
0
VERTEX
8
CUT
10
49
20
49.93
0
VERTEX
8
CUT
10
48.03
20
48.378
0
SEQEND
0
POLYLINE
8
CUT
66
1
70
0
0
VERTEX
8
CUT
10
50.97
20
58.682
0
VERTEX
8
CUT
10
50
20
57.13
0
VERTEX
8
CUT
10
50
20
49.93
0
VERTEX
8
CUT
10
50.97
20
48.378
0
SEQEND
0
POLYLINE
8
CUT
66
1
70
0
0
VERTEX
8
CUT
10
52.03
20
58.682
0
VERTEX
8
CUT
10
53
20
57.13
0
VERTEX
8
CUT
10
53
20
49.93
0
VERTEX
8
CUT
10
52.03
20
48.378
0
SEQEND
0
POLYLINE
8
CUT
66
1
70
0
0
VERTEX
8
CUT
10
54.97
20
58.682
0
VERTEX
8
CUT
10
54
20
57.13
0
VERTEX
8
CUT
10
54
20
49.93
0
VERTEX
8
CUT
10
54.97
20
48.378
0
SEQEND
0
POLYLINE
8
CUT
66
1
70
0
0
VERTEX
8
CUT
10
56.03
20
58.682
0
VERTEX
8
CUT
10
57
20
57.13
0
VERTEX
8
CUT
10
57
20
49.93
0
VERTEX
8
CUT
10
56.03
20
48.378
0
SEQEND
0
POLYLINE
8
CUT
66
1
70
0
0
VERTEX
8
CUT
10
58.97
20
58.682
0
VERTEX
8
CUT
10
58
20
57.13
0
VERTEX
8
CUT
10
58
20
49.93
0
VERTEX
8
CUT
10
58.97
20
48.378
0
SEQEND
0
POLYLINE
8
CUT
66
1
70
0
0
VERTEX
8
CUT
10
60.03
20
58.682
0
VERTEX
8
CUT
10
61
20
57.13
0
VERTEX
8
CUT
10
61
20
49.93
0
VERTEX
8
CUT
10
60.03
20
48.378
0
SEQEND
0
POLYLINE
8
CUT
66
1
70
0
0
VERTEX
8
CUT
10
62.97
20
58.682
0
VERTEX
8
CUT
10
62
20
57.13
0
VERTEX
8
CUT
10
62
20
49.93
0
VERTEX
8
CUT
10
62.97
20
48.378
0
SEQEND
0
POLYLINE
8
CUT
66
1
70
0
0
VERTEX
8
CUT
10
64.03
20
58.682
0
VERTEX
8
CUT
10
65
20
57.13
0
VERTEX
8
CUT
10
65
20
49.93
0
VERTEX
8
CUT
10
64.03
20
48.378
0
SEQEND
0
POLYLINE
8
CUT
66
1
70
0
0
VERTEX
8
CUT
10
66.97
20
58.682
0
VERTEX
8
CUT
10
66
20
57.13
0
VERTEX
8
CUT
10
66
20
49.93
0
VERTEX
8
CUT
10
66.97
20
48.378
0
SEQEND
0
POLYLINE
8
CUT
66
1
70
0
0
VERTEX
8
CUT
10
68.03
20
58.682
0
VERTEX
8
CUT
10
69
20
57.13
0
VERTEX
8
CUT
10
69
20
49.93
0
VERTEX
8
CUT
10
68.03
20
48.378
0
SEQEND
0
POLYLINE
8
CUT
66
1
70
0
0
VERTEX
8
CUT
10
70.97
20
58.682
0
VERTEX
8
CUT
10
70
20
57.13
0
VERTEX
8
CUT
10
70
20
49.93
0
VERTEX
8
CUT
10
70.97
20
48.378
0
SEQEND
0
POLYLINE
8
CUT
66
1
70
0
0
VERTEX
8
CUT
10
72.03
20
58.682
0
VERTEX
8
CUT
10
73
20
57.13
0
VERTEX
8
CUT
10
73
20
49.93
0
VERTEX
8
CUT
10
72.03
20
48.378
0
SEQEND
0
POLYLINE
8
CUT
66
1
70
0
0
VERTEX
8
CUT
10
74.97
20
58.682
0
VERTEX
8
CUT
10
74
20
57.13
0
VERTEX
8
CUT
10
74
20
49.93
0
VERTEX
8
CUT
10
74.97
20
48.378
0
SEQEND
0
POLYLINE
8
CUT
66
1
70
0
0
VERTEX
8
CUT
10
76.03
20
58.682
0
VERTEX
8
CUT
10
77
20
57.13
0
VERTEX
8
CUT
10
77
20
49.93
0
VERTEX
8
CUT
10
76.03
20
48.378
0
SEQEND
0
POLYLINE
8
CUT
66
1
70
0
0
VERTEX
8
CUT
10
78.97
20
58.682
0
VERTEX
8
CUT
10
78
20
57.13
0
VERTEX
8
CUT
10
78
20
49.93
0
VERTEX
8
CUT
10
78.97
20
48.378
0
SEQEND
0
POLYLINE
8
CUT
66
1
70
0
0
VERTEX
8
CUT
10
80.03
20
58.682
0
VERTEX
8
CUT
10
81
20
57.13
0
VERTEX
8
CUT
10
81
20
49.93
0
VERTEX
8
CUT
10
80.03
20
48.378
0
SEQEND
0
POLYLINE
8
CUT
66
1
70
0
0
VERTEX
8
CUT
10
82.97
20
58.682
0
VERTEX
8
CUT
10
82
20
57.13
0
VERTEX
8
CUT
10
82
20
49.93
0
VERTEX
8
CUT
10
82.97
20
48.378
0
SEQEND
0
POLYLINE
8
CUT
66
1
70
0
0
VERTEX
8
CUT
10
84.03
20
58.682
0
VERTEX
8
CUT
10
85
20
57.13
0
VERTEX
8
CUT
10
85
20
49.93
0
VERTEX
8
CUT
10
84.03
20
48.378
0
SEQEND
0
POLYLINE
8
CUT
66
1
70
0
0
VERTEX
8
CUT
10
86.97
20
58.682
0
VERTEX
8
CUT
10
86
20
57.13
0
VERTEX
8
CUT
10
86
20
49.93
0
VERTEX
8
CUT
10
86.97
20
48.378
0
SEQEND
0
POLYLINE
8
CUT
66
1
70
0
0
VERTEX
8
CUT
10
88.03
20
58.682
0
VERTEX
8
CUT
10
89
20
57.13
0
VERTEX
8
CUT
10
89
20
49.93
0
VERTEX
8
CUT
10
88.03
20
48.378
0
SEQEND
0
POLYLINE
8
CUT
66
1
70
0
0
VERTEX
8
CUT
10
90.97
20
58.682
0
VERTEX
8
CUT
10
90
20
57.13
0
VERTEX
8
CUT
10
90
20
49.93
0
VERTEX
8
CUT
10
90.97
20
48.378
0
SEQEND
0
POLYLINE
8
CUT
66
1
70
0
0
VERTEX
8
CUT
10
92.03
20
58.682
0
VERTEX
8
CUT
10
93
20
57.13
0
VERTEX
8
CUT
10
93
20
49.93
0
VERTEX
8
CUT
10
92.03
20
48.378
0
SEQEND
0
POLYLINE
8
CUT
66
1
70
0
0
VERTEX
8
CUT
10
94.97
20
58.682
0
VERTEX
8
CUT
10
94
20
57.13
0
VERTEX
8
CUT
10
94
20
49.93
0
VERTEX
8
CUT
10
94.97
20
48.378
0
SEQEND
0
POLYLINE
8
CUT
66
1
70
0
0
VERTEX
8
CUT
10
96.03
20
58.682
0
VERTEX
8
CUT
10
97
20
57.13
0
VERTEX
8
CUT
10
97
20
49.93
0
VERTEX
8
CUT
10
96.03
20
48.378
0
SEQEND
0
POLYLINE
8
CUT
66
1
70
0
0
VERTEX
8
CUT
10
98.97
20
58.682
0
VERTEX
8
CUT
10
98
20
57.13
0
VERTEX
8
CUT
10
98
20
49.93
0
VERTEX
8
CUT
10
98.97
20
48.378
0
SEQEND
0
POLYLINE
8
CUT
66
1
70
0
0
VERTEX
8
CUT
10
100.03
20
58.682
0
VERTEX
8
CUT
10
101
20
57.13
0
VERTEX
8
CUT
10
101
20
49.93
0
VERTEX
8
CUT
10
100.03
20
48.378
0
SEQEND
0
POLYLINE
8
CUT
66
1
70
0
0
VERTEX
8
CUT
10
102.97
20
58.682
0
VERTEX
8
CUT
10
102
20
57.13
0
VERTEX
8
CUT
10
102
20
49.93
0
VERTEX
8
CUT
10
102.97
20
48.378
0
SEQEND
0
POLYLINE
8
CUT
66
1
70
0
0
VERTEX
8
CUT
10
104.03
20
58.682
0
VERTEX
8
CUT
10
105
20
57.13
0
VERTEX
8
CUT
10
105
20
49.93
0
VERTEX
8
CUT
10
104.03
20
48.378
0
SEQEND
0
POLYLINE
8
CUT
66
1
70
0
0
VERTEX
8
CUT
10
106.97
20
58.682
0
VERTEX
8
CUT
10
106
20
57.13
0
VERTEX
8
CUT
10
106
20
49.93
0
VERTEX
8
CUT
10
106.97
20
48.378
0
SEQEND
0
POLYLINE
8
CUT
66
1
70
0
0
VERTEX
8
CUT
10
108.03
20
58.682
0
VERTEX
8
CUT
10
109
20
57.13
0
VERTEX
8
CUT
10
109
20
49.93
0
VERTEX
8
CUT
10
108.03
20
48.378
0
SEQEND
0
POLYLINE
8
CUT
66
1
70
0
0
VERTEX
8
CUT
10
110.97
20
58.682
0
VERTEX
8
CUT
10
110
20
57.13
0
VERTEX
8
CUT
10
110
20
49.93
0
VERTEX
8
CUT
10
110.97
20
48.378
0
SEQEND
0
POLYLINE
8
CUT
66
1
70
0
0
VERTEX
8
CUT
10
112.03
20
58.682
0
VERTEX
8
CUT
10
113
20
57.13
0
VERTEX
8
CUT
10
113
20
49.93
0
VERTEX
8
CUT
10
112.03
20
48.378
0
SEQEND
0
POLYLINE
8
CUT
66
1
70
0
0
VERTEX
8
CUT
10
114.97
20
58.682
0
VERTEX
8
CUT
10
114
20
57.13
0
VERTEX
8
CUT
10
114
20
49.93
0
VERTEX
8
CUT
10
114.97
20
48.378
0
SEQEND
0
POLYLINE
8
CUT
66
1
70
0
0
VERTEX
8
CUT
10
116.03
20
58.682
0
VERTEX
8
CUT
10
117
20
57.13
0
VERTEX
8
CUT
10
117
20
49.93
0
VERTEX
8
CUT
10
116.03
20
48.378
0
SEQEND
0
POLYLINE
8
CUT
66
1
70
0
0
VERTEX
8
CUT
10
118.97
20
58.682
0
VERTEX
8
CUT
10
118
20
57.13
0
VERTEX
8
CUT
10
118
20
49.93
0
VERTEX
8
CUT
10
118.97
20
48.378
0
SEQEND
0
POLYLINE
8
CUT
66
1
70
0
0
VERTEX
8
CUT
10
0.97
20
48.212
0
VERTEX
8
CUT
10
0
20
46.66
0
VERTEX
8
CUT
10
0
20
39.46
0
VERTEX
8
CUT
10
0.97
20
37.908
0
SEQEND
0
POLYLINE
8
CUT
66
1
70
0
0
VERTEX
8
CUT
10
2.03
20
48.212
0
VERTEX
8
CUT
10
3
20
46.66
0
VERTEX
8
CUT
10
3
20
39.46
0
VERTEX
8
CUT
10
2.03
20
37.908
0
SEQEND
0
POLYLINE
8
CUT
66
1
70
0
0
VERTEX
8
CUT
10
4.97
20
48.212
0
VERTEX
8
CUT
10
4
20
46.66
0
VERTEX
8
CUT
10
4
20
39.46
0
VERTEX
8
CUT
10
4.97
20
37.908
0
SEQEND
0
POLYLINE
8
CUT
66
1
70
0
0
VERTEX
8
CUT
10
6.03
20
48.212
0
VERTEX
8
CUT
10
7
20
46.66
0
VERTEX
8
CUT
10
7
20
39.46
0
VERTEX
8
CUT
10
6.03
20
37.908
0
SEQEND
0
POLYLINE
8
CUT
66
1
70
0
0
VERTEX
8
CUT
10
8.97
20
48.212
0
VERTEX
8
CUT
10
8
20
46.66
0
VERTEX
8
CUT
10
8
20
39.46
0
VERTEX
8
CUT
10
8.97
20
37.908
0
SEQEND
0
POLYLINE
8
CUT
66
1
70
0
0
VERTEX
8
CUT
10
10.03
20
48.212
0
VERTEX
8
CUT
10
11
20
46.66
0
VERTEX
8
CUT
10
11
20
39.46
0
VERTEX
8
CUT
10
10.03
20
37.908
0
SEQEND
0
POLYLINE
8
CUT
66
1
70
0
0
VERTEX
8
CUT
10
12.97
20
48.212
0
VERTEX
8
CUT
10
12
20
46.66
0
VERTEX
8
CUT
10
12
20
39.46
0
VERTEX
8
CUT
10
12.97
20
37.908
0
SEQEND
0
POLYLINE
8
CUT
66
1
70
0
0
VERTEX
8
CUT
10
14.03
20
48.212
0
VERTEX
8
CUT
10
15
20
46.66
0
VERTEX
8
CUT
10
15
20
39.46
0
VERTEX
8
CUT
10
14.03
20
37.908
0
SEQEND
0
POLYLINE
8
CUT
66
1
70
0
0
VERTEX
8
CUT
10
16.97
20
48.212
0
VERTEX
8
CUT
10
16
20
46.66
0
VERTEX
8
CUT
10
16
20
39.46
0
VERTEX
8
CUT
10
16.97
20
37.908
0
SEQEND
0
POLYLINE
8
CUT
66
1
70
0
0
VERTEX
8
CUT
10
18.03
20
48.212
0
VERTEX
8
CUT
10
19
20
46.66
0
VERTEX
8
CUT
10
19
20
39.46
0
VERTEX
8
CUT
10
18.03
20
37.908
0
SEQEND
0
POLYLINE
8
CUT
66
1
70
0
0
VERTEX
8
CUT
10
20.97
20
48.212
0
VERTEX
8
CUT
10
20
20
46.66
0
VERTEX
8
CUT
10
20
20
39.46
0
VERTEX
8
CUT
10
20.97
20
37.908
0
SEQEND
0
POLYLINE
8
CUT
66
1
70
0
0
VERTEX
8
CUT
10
22.03
20
48.212
0
VERTEX
8
CUT
10
23
20
46.66
0
VERTEX
8
CUT
10
23
20
39.46
0
VERTEX
8
CUT
10
22.03
20
37.908
0
SEQEND
0
POLYLINE
8
CUT
66
1
70
0
0
VERTEX
8
CUT
10
24.97
20
48.212
0
VERTEX
8
CUT
10
24
20
46.66
0
VERTEX
8
CUT
10
24
20
39.46
0
VERTEX
8
CUT
10
24.97
20
37.908
0
SEQEND
0
POLYLINE
8
CUT
66
1
70
0
0
VERTEX
8
CUT
10
26.03
20
48.212
0
VERTEX
8
CUT
10
27
20
46.66
0
VERTEX
8
CUT
10
27
20
39.46
0
VERTEX
8
CUT
10
26.03
20
37.908
0
SEQEND
0
POLYLINE
8
CUT
66
1
70
0
0
VERTEX
8
CUT
10
28.97
20
48.212
0
VERTEX
8
CUT
10
28
20
46.66
0
VERTEX
8
CUT
10
28
20
39.46
0
VERTEX
8
CUT
10
28.97
20
37.908
0
SEQEND
0
POLYLINE
8
CUT
66
1
70
0
0
VERTEX
8
CUT
10
30.03
20
48.212
0
VERTEX
8
CUT
10
31
20
46.66
0
VERTEX
8
CUT
10
31
20
39.46
0
VERTEX
8
CUT
10
30.03
20
37.908
0
SEQEND
0
POLYLINE
8
CUT
66
1
70
0
0
VERTEX
8
CUT
10
32.97
20
48.212
0
VERTEX
8
CUT
10
32
20
46.66
0
VERTEX
8
CUT
10
32
20
39.46
0
VERTEX
8
CUT
10
32.97
20
37.908
0
SEQEND
0
POLYLINE
8
CUT
66
1
70
0
0
VERTEX
8
CUT
10
34.03
20
48.212
0
VERTEX
8
CUT
10
35
20
46.66
0
VERTEX
8
CUT
10
35
20
39.46
0
VERTEX
8
CUT
10
34.03
20
37.908
0
SEQEND
0
POLYLINE
8
CUT
66
1
70
0
0
VERTEX
8
CUT
10
36.97
20
48.212
0
VERTEX
8
CUT
10
36
20
46.66
0
VERTEX
8
CUT
10
36
20
39.46
0
VERTEX
8
CUT
10
36.97
20
37.908
0
SEQEND
0
POLYLINE
8
CUT
66
1
70
0
0
VERTEX
8
CUT
10
38.03
20
48.212
0
VERTEX
8
CUT
10
39
20
46.66
0
VERTEX
8
CUT
10
39
20
39.46
0
VERTEX
8
CUT
10
38.03
20
37.908
0
SEQEND
0
POLYLINE
8
CUT
66
1
70
0
0
VERTEX
8
CUT
10
40.97
20
48.212
0
VERTEX
8
CUT
10
40
20
46.66
0
VERTEX
8
CUT
10
40
20
39.46
0
VERTEX
8
CUT
10
40.97
20
37.908
0
SEQEND
0
POLYLINE
8
CUT
66
1
70
0
0
VERTEX
8
CUT
10
42.03
20
48.212
0
VERTEX
8
CUT
10
43
20
46.66
0
VERTEX
8
CUT
10
43
20
39.46
0
VERTEX
8
CUT
10
42.03
20
37.908
0
SEQEND
0
POLYLINE
8
CUT
66
1
70
0
0
VERTEX
8
CUT
10
44.97
20
48.212
0
VERTEX
8
CUT
10
44
20
46.66
0
VERTEX
8
CUT
10
44
20
39.46
0
VERTEX
8
CUT
10
44.97
20
37.908
0
SEQEND
0
POLYLINE
8
CUT
66
1
70
0
0
VERTEX
8
CUT
10
46.03
20
48.212
0
VERTEX
8
CUT
10
47
20
46.66
0
VERTEX
8
CUT
10
47
20
39.46
0
VERTEX
8
CUT
10
46.03
20
37.908
0
SEQEND
0
POLYLINE
8
CUT
66
1
70
0
0
VERTEX
8
CUT
10
48.97
20
48.212
0
VERTEX
8
CUT
10
48
20
46.66
0
VERTEX
8
CUT
10
48
20
39.46
0
VERTEX
8
CUT
10
48.97
20
37.908
0
SEQEND
0
POLYLINE
8
CUT
66
1
70
0
0
VERTEX
8
CUT
10
50.03
20
48.212
0
VERTEX
8
CUT
10
51
20
46.66
0
VERTEX
8
CUT
10
51
20
39.46
0
VERTEX
8
CUT
10
50.03
20
37.908
0
SEQEND
0
POLYLINE
8
CUT
66
1
70
0
0
VERTEX
8
CUT
10
52.97
20
48.212
0
VERTEX
8
CUT
10
52
20
46.66
0
VERTEX
8
CUT
10
52
20
39.46
0
VERTEX
8
CUT
10
52.97
20
37.908
0
SEQEND
0
POLYLINE
8
CUT
66
1
70
0
0
VERTEX
8
CUT
10
54.03
20
48.212
0
VERTEX
8
CUT
10
55
20
46.66
0
VERTEX
8
CUT
10
55
20
39.46
0
VERTEX
8
CUT
10
54.03
20
37.908
0
SEQEND
0
POLYLINE
8
CUT
66
1
70
0
0
VERTEX
8
CUT
10
56.97
20
48.212
0
VERTEX
8
CUT
10
56
20
46.66
0
VERTEX
8
CUT
10
56
20
39.46
0
VERTEX
8
CUT
10
56.97
20
37.908
0
SEQEND
0
POLYLINE
8
CUT
66
1
70
0
0
VERTEX
8
CUT
10
58.03
20
48.212
0
VERTEX
8
CUT
10
59
20
46.66
0
VERTEX
8
CUT
10
59
20
39.46
0
VERTEX
8
CUT
10
58.03
20
37.908
0
SEQEND
0
POLYLINE
8
CUT
66
1
70
0
0
VERTEX
8
CUT
10
60.97
20
48.212
0
VERTEX
8
CUT
10
60
20
46.66
0
VERTEX
8
CUT
10
60
20
39.46
0
VERTEX
8
CUT
10
60.97
20
37.908
0
SEQEND
0
POLYLINE
8
CUT
66
1
70
0
0
VERTEX
8
CUT
10
62.03
20
48.212
0
VERTEX
8
CUT
10
63
20
46.66
0
VERTEX
8
CUT
10
63
20
39.46
0
VERTEX
8
CUT
10
62.03
20
37.908
0
SEQEND
0
POLYLINE
8
CUT
66
1
70
0
0
VERTEX
8
CUT
10
64.97
20
48.212
0
VERTEX
8
CUT
10
64
20
46.66
0
VERTEX
8
CUT
10
64
20
39.46
0
VERTEX
8
CUT
10
64.97
20
37.908
0
SEQEND
0
POLYLINE
8
CUT
66
1
70
0
0
VERTEX
8
CUT
10
66.03
20
48.212
0
VERTEX
8
CUT
10
67
20
46.66
0
VERTEX
8
CUT
10
67
20
39.46
0
VERTEX
8
CUT
10
66.03
20
37.908
0
SEQEND
0
POLYLINE
8
CUT
66
1
70
0
0
VERTEX
8
CUT
10
68.97
20
48.212
0
VERTEX
8
CUT
10
68
20
46.66
0
VERTEX
8
CUT
10
68
20
39.46
0
VERTEX
8
CUT
10
68.97
20
37.908
0
SEQEND
0
POLYLINE
8
CUT
66
1
70
0
0
VERTEX
8
CUT
10
70.03
20
48.212
0
VERTEX
8
CUT
10
71
20
46.66
0
VERTEX
8
CUT
10
71
20
39.46
0
VERTEX
8
CUT
10
70.03
20
37.908
0
SEQEND
0
POLYLINE
8
CUT
66
1
70
0
0
VERTEX
8
CUT
10
72.97
20
48.212
0
VERTEX
8
CUT
10
72
20
46.66
0
VERTEX
8
CUT
10
72
20
39.46
0
VERTEX
8
CUT
10
72.97
20
37.908
0
SEQEND
0
POLYLINE
8
CUT
66
1
70
0
0
VERTEX
8
CUT
10
74.03
20
48.212
0
VERTEX
8
CUT
10
75
20
46.66
0
VERTEX
8
CUT
10
75
20
39.46
0
VERTEX
8
CUT
10
74.03
20
37.908
0
SEQEND
0
POLYLINE
8
CUT
66
1
70
0
0
VERTEX
8
CUT
10
76.97
20
48.212
0
VERTEX
8
CUT
10
76
20
46.66
0
VERTEX
8
CUT
10
76
20
39.46
0
VERTEX
8
CUT
10
76.97
20
37.908
0
SEQEND
0
POLYLINE
8
CUT
66
1
70
0
0
VERTEX
8
CUT
10
78.03
20
48.212
0
VERTEX
8
CUT
10
79
20
46.66
0
VERTEX
8
CUT
10
79
20
39.46
0
VERTEX
8
CUT
10
78.03
20
37.908
0
SEQEND
0
POLYLINE
8
CUT
66
1
70
0
0
VERTEX
8
CUT
10
80.97
20
48.212
0
VERTEX
8
CUT
10
80
20
46.66
0
VERTEX
8
CUT
10
80
20
39.46
0
VERTEX
8
CUT
10
80.97
20
37.908
0
SEQEND
0
POLYLINE
8
CUT
66
1
70
0
0
VERTEX
8
CUT
10
82.03
20
48.212
0
VERTEX
8
CUT
10
83
20
46.66
0
VERTEX
8
CUT
10
83
20
39.46
0
VERTEX
8
CUT
10
82.03
20
37.908
0
SEQEND
0
POLYLINE
8
CUT
66
1
70
0
0
VERTEX
8
CUT
10
84.97
20
48.212
0
VERTEX
8
CUT
10
84
20
46.66
0
VERTEX
8
CUT
10
84
20
39.46
0
VERTEX
8
CUT
10
84.97
20
37.908
0
SEQEND
0
POLYLINE
8
CUT
66
1
70
0
0
VERTEX
8
CUT
10
86.03
20
48.212
0
VERTEX
8
CUT
10
87
20
46.66
0
VERTEX
8
CUT
10
87
20
39.46
0
VERTEX
8
CUT
10
86.03
20
37.908
0
SEQEND
0
POLYLINE
8
CUT
66
1
70
0
0
VERTEX
8
CUT
10
88.97
20
48.212
0
VERTEX
8
CUT
10
88
20
46.66
0
VERTEX
8
CUT
10
88
20
39.46
0
VERTEX
8
CUT
10
88.97
20
37.908
0
SEQEND
0
POLYLINE
8
CUT
66
1
70
0
0
VERTEX
8
CUT
10
90.03
20
48.212
0
VERTEX
8
CUT
10
91
20
46.66
0
VERTEX
8
CUT
10
91
20
39.46
0
VERTEX
8
CUT
10
90.03
20
37.908
0
SEQEND
0
POLYLINE
8
CUT
66
1
70
0
0
VERTEX
8
CUT
10
92.97
20
48.212
0
VERTEX
8
CUT
10
92
20
46.66
0
VERTEX
8
CUT
10
92
20
39.46
0
VERTEX
8
CUT
10
92.97
20
37.908
0
SEQEND
0
POLYLINE
8
CUT
66
1
70
0
0
VERTEX
8
CUT
10
94.03
20
48.212
0
VERTEX
8
CUT
10
95
20
46.66
0
VERTEX
8
CUT
10
95
20
39.46
0
VERTEX
8
CUT
10
94.03
20
37.908
0
SEQEND
0
POLYLINE
8
CUT
66
1
70
0
0
VERTEX
8
CUT
10
96.97
20
48.212
0
VERTEX
8
CUT
10
96
20
46.66
0
VERTEX
8
CUT
10
96
20
39.46
0
VERTEX
8
CUT
10
96.97
20
37.908
0
SEQEND
0
POLYLINE
8
CUT
66
1
70
0
0
VERTEX
8
CUT
10
98.03
20
48.212
0
VERTEX
8
CUT
10
99
20
46.66
0
VERTEX
8
CUT
10
99
20
39.46
0
VERTEX
8
CUT
10
98.03
20
37.908
0
SEQEND
0
POLYLINE
8
CUT
66
1
70
0
0
VERTEX
8
CUT
10
100.97
20
48.212
0
VERTEX
8
CUT
10
100
20
46.66
0
VERTEX
8
CUT
10
100
20
39.46
0
VERTEX
8
CUT
10
100.97
20
37.908
0
SEQEND
0
POLYLINE
8
CUT
66
1
70
0
0
VERTEX
8
CUT
10
102.03
20
48.212
0
VERTEX
8
CUT
10
103
20
46.66
0
VERTEX
8
CUT
10
103
20
39.46
0
VERTEX
8
CUT
10
102.03
20
37.908
0
SEQEND
0
POLYLINE
8
CUT
66
1
70
0
0
VERTEX
8
CUT
10
104.97
20
48.212
0
VERTEX
8
CUT
10
104
20
46.66
0
VERTEX
8
CUT
10
104
20
39.46
0
VERTEX
8
CUT
10
104.97
20
37.908
0
SEQEND
0
POLYLINE
8
CUT
66
1
70
0
0
VERTEX
8
CUT
10
106.03
20
48.212
0
VERTEX
8
CUT
10
107
20
46.66
0
VERTEX
8
CUT
10
107
20
39.46
0
VERTEX
8
CUT
10
106.03
20
37.908
0
SEQEND
0
POLYLINE
8
CUT
66
1
70
0
0
VERTEX
8
CUT
10
108.97
20
48.212
0
VERTEX
8
CUT
10
108
20
46.66
0
VERTEX
8
CUT
10
108
20
39.46
0
VERTEX
8
CUT
10
108.97
20
37.908
0
SEQEND
0
POLYLINE
8
CUT
66
1
70
0
0
VERTEX
8
CUT
10
110.03
20
48.212
0
VERTEX
8
CUT
10
111
20
46.66
0
VERTEX
8
CUT
10
111
20
39.46
0
VERTEX
8
CUT
10
110.03
20
37.908
0
SEQEND
0
POLYLINE
8
CUT
66
1
70
0
0
VERTEX
8
CUT
10
112.97
20
48.212
0
VERTEX
8
CUT
10
112
20
46.66
0
VERTEX
8
CUT
10
112
20
39.46
0
VERTEX
8
CUT
10
112.97
20
37.908
0
SEQEND
0
POLYLINE
8
CUT
66
1
70
0
0
VERTEX
8
CUT
10
114.03
20
48.212
0
VERTEX
8
CUT
10
115
20
46.66
0
VERTEX
8
CUT
10
115
20
39.46
0
VERTEX
8
CUT
10
114.03
20
37.908
0
SEQEND
0
POLYLINE
8
CUT
66
1
70
0
0
VERTEX
8
CUT
10
116.97
20
48.212
0
VERTEX
8
CUT
10
116
20
46.66
0
VERTEX
8
CUT
10
116
20
39.46
0
VERTEX
8
CUT
10
116.97
20
37.908
0
SEQEND
0
POLYLINE
8
CUT
66
1
70
0
0
VERTEX
8
CUT
10
118.03
20
48.212
0
VERTEX
8
CUT
10
119
20
46.66
0
VERTEX
8
CUT
10
119
20
39.46
0
VERTEX
8
CUT
10
118.03
20
37.908
0
SEQEND
0
POLYLINE
8
CUT
66
1
70
0
0
VERTEX
8
CUT
10
120
20
46.66
0
VERTEX
8
CUT
10
120
20
46.66
0
VERTEX
8
CUT
10
120
20
39.46
0
VERTEX
8
CUT
10
120
20
39.46
0
SEQEND
0
POLYLINE
8
CUT
66
1
70
0
0
VERTEX
8
CUT
10
0.03
20
37.742
0
VERTEX
8
CUT
10
1
20
36.19
0
VERTEX
8
CUT
10
1
20
28.99
0
VERTEX
8
CUT
10
0.03
20
27.438
0
SEQEND
0
POLYLINE
8
CUT
66
1
70
0
0
VERTEX
8
CUT
10
2.97
20
37.742
0
VERTEX
8
CUT
10
2
20
36.19
0
VERTEX
8
CUT
10
2
20
28.99
0
VERTEX
8
CUT
10
2.97
20
27.438
0
SEQEND
0
POLYLINE
8
CUT
66
1
70
0
0
VERTEX
8
CUT
10
4.03
20
37.742
0
VERTEX
8
CUT
10
5
20
36.19
0
VERTEX
8
CUT
10
5
20
28.99
0
VERTEX
8
CUT
10
4.03
20
27.438
0
SEQEND
0
POLYLINE
8
CUT
66
1
70
0
0
VERTEX
8
CUT
10
6.97
20
37.742
0
VERTEX
8
CUT
10
6
20
36.19
0
VERTEX
8
CUT
10
6
20
28.99
0
VERTEX
8
CUT
10
6.97
20
27.438
0
SEQEND
0
POLYLINE
8
CUT
66
1
70
0
0
VERTEX
8
CUT
10
8.03
20
37.742
0
VERTEX
8
CUT
10
9
20
36.19
0
VERTEX
8
CUT
10
9
20
28.99
0
VERTEX
8
CUT
10
8.03
20
27.438
0
SEQEND
0
POLYLINE
8
CUT
66
1
70
0
0
VERTEX
8
CUT
10
10.97
20
37.742
0
VERTEX
8
CUT
10
10
20
36.19
0
VERTEX
8
CUT
10
10
20
28.99
0
VERTEX
8
CUT
10
10.97
20
27.438
0
SEQEND
0
POLYLINE
8
CUT
66
1
70
0
0
VERTEX
8
CUT
10
12.03
20
37.742
0
VERTEX
8
CUT
10
13
20
36.19
0
VERTEX
8
CUT
10
13
20
28.99
0
VERTEX
8
CUT
10
12.03
20
27.438
0
SEQEND
0
POLYLINE
8
CUT
66
1
70
0
0
VERTEX
8
CUT
10
14.97
20
37.742
0
VERTEX
8
CUT
10
14
20
36.19
0
VERTEX
8
CUT
10
14
20
28.99
0
VERTEX
8
CUT
10
14.97
20
27.438
0
SEQEND
0
POLYLINE
8
CUT
66
1
70
0
0
VERTEX
8
CUT
10
16.03
20
37.742
0
VERTEX
8
CUT
10
17
20
36.19
0
VERTEX
8
CUT
10
17
20
28.99
0
VERTEX
8
CUT
10
16.03
20
27.438
0
SEQEND
0
POLYLINE
8
CUT
66
1
70
0
0
VERTEX
8
CUT
10
18.97
20
37.742
0
VERTEX
8
CUT
10
18
20
36.19
0
VERTEX
8
CUT
10
18
20
28.99
0
VERTEX
8
CUT
10
18.97
20
27.438
0
SEQEND
0
POLYLINE
8
CUT
66
1
70
0
0
VERTEX
8
CUT
10
20.03
20
37.742
0
VERTEX
8
CUT
10
21
20
36.19
0
VERTEX
8
CUT
10
21
20
28.99
0
VERTEX
8
CUT
10
20.03
20
27.438
0
SEQEND
0
POLYLINE
8
CUT
66
1
70
0
0
VERTEX
8
CUT
10
22.97
20
37.742
0
VERTEX
8
CUT
10
22
20
36.19
0
VERTEX
8
CUT
10
22
20
28.99
0
VERTEX
8
CUT
10
22.97
20
27.438
0
SEQEND
0
POLYLINE
8
CUT
66
1
70
0
0
VERTEX
8
CUT
10
24.03
20
37.742
0
VERTEX
8
CUT
10
25
20
36.19
0
VERTEX
8
CUT
10
25
20
28.99
0
VERTEX
8
CUT
10
24.03
20
27.438
0
SEQEND
0
POLYLINE
8
CUT
66
1
70
0
0
VERTEX
8
CUT
10
26.97
20
37.742
0
VERTEX
8
CUT
10
26
20
36.19
0
VERTEX
8
CUT
10
26
20
28.99
0
VERTEX
8
CUT
10
26.97
20
27.438
0
SEQEND
0
POLYLINE
8
CUT
66
1
70
0
0
VERTEX
8
CUT
10
28.03
20
37.742
0
VERTEX
8
CUT
10
29
20
36.19
0
VERTEX
8
CUT
10
29
20
28.99
0
VERTEX
8
CUT
10
28.03
20
27.438
0
SEQEND
0
POLYLINE
8
CUT
66
1
70
0
0
VERTEX
8
CUT
10
30.97
20
37.742
0
VERTEX
8
CUT
10
30
20
36.19
0
VERTEX
8
CUT
10
30
20
28.99
0
VERTEX
8
CUT
10
30.97
20
27.438
0
SEQEND
0
POLYLINE
8
CUT
66
1
70
0
0
VERTEX
8
CUT
10
32.03
20
37.742
0
VERTEX
8
CUT
10
33
20
36.19
0
VERTEX
8
CUT
10
33
20
28.99
0
VERTEX
8
CUT
10
32.03
20
27.438
0
SEQEND
0
POLYLINE
8
CUT
66
1
70
0
0
VERTEX
8
CUT
10
34.97
20
37.742
0
VERTEX
8
CUT
10
34
20
36.19
0
VERTEX
8
CUT
10
34
20
28.99
0
VERTEX
8
CUT
10
34.97
20
27.438
0
SEQEND
0
POLYLINE
8
CUT
66
1
70
0
0
VERTEX
8
CUT
10
36.03
20
37.742
0
VERTEX
8
CUT
10
37
20
36.19
0
VERTEX
8
CUT
10
37
20
28.99
0
VERTEX
8
CUT
10
36.03
20
27.438
0
SEQEND
0
POLYLINE
8
CUT
66
1
70
0
0
VERTEX
8
CUT
10
38.97
20
37.742
0
VERTEX
8
CUT
10
38
20
36.19
0
VERTEX
8
CUT
10
38
20
28.99
0
VERTEX
8
CUT
10
38.97
20
27.438
0
SEQEND
0
POLYLINE
8
CUT
66
1
70
0
0
VERTEX
8
CUT
10
40.03
20
37.742
0
VERTEX
8
CUT
10
41
20
36.19
0
VERTEX
8
CUT
10
41
20
28.99
0
VERTEX
8
CUT
10
40.03
20
27.438
0
SEQEND
0
POLYLINE
8
CUT
66
1
70
0
0
VERTEX
8
CUT
10
42.97
20
37.742
0
VERTEX
8
CUT
10
42
20
36.19
0
VERTEX
8
CUT
10
42
20
28.99
0
VERTEX
8
CUT
10
42.97
20
27.438
0
SEQEND
0
POLYLINE
8
CUT
66
1
70
0
0
VERTEX
8
CUT
10
44.03
20
37.742
0
VERTEX
8
CUT
10
45
20
36.19
0
VERTEX
8
CUT
10
45
20
28.99
0
VERTEX
8
CUT
10
44.03
20
27.438
0
SEQEND
0
POLYLINE
8
CUT
66
1
70
0
0
VERTEX
8
CUT
10
46.97
20
37.742
0
VERTEX
8
CUT
10
46
20
36.19
0
VERTEX
8
CUT
10
46
20
28.99
0
VERTEX
8
CUT
10
46.97
20
27.438
0
SEQEND
0
POLYLINE
8
CUT
66
1
70
0
0
VERTEX
8
CUT
10
48.03
20
37.742
0
VERTEX
8
CUT
10
49
20
36.19
0
VERTEX
8
CUT
10
49
20
28.99
0
VERTEX
8
CUT
10
48.03
20
27.438
0
SEQEND
0
POLYLINE
8
CUT
66
1
70
0
0
VERTEX
8
CUT
10
50.97
20
37.742
0
VERTEX
8
CUT
10
50
20
36.19
0
VERTEX
8
CUT
10
50
20
28.99
0
VERTEX
8
CUT
10
50.97
20
27.438
0
SEQEND
0
POLYLINE
8
CUT
66
1
70
0
0
VERTEX
8
CUT
10
52.03
20
37.742
0
VERTEX
8
CUT
10
53
20
36.19
0
VERTEX
8
CUT
10
53
20
28.99
0
VERTEX
8
CUT
10
52.03
20
27.438
0
SEQEND
0
POLYLINE
8
CUT
66
1
70
0
0
VERTEX
8
CUT
10
54.97
20
37.742
0
VERTEX
8
CUT
10
54
20
36.19
0
VERTEX
8
CUT
10
54
20
28.99
0
VERTEX
8
CUT
10
54.97
20
27.438
0
SEQEND
0
POLYLINE
8
CUT
66
1
70
0
0
VERTEX
8
CUT
10
56.03
20
37.742
0
VERTEX
8
CUT
10
57
20
36.19
0
VERTEX
8
CUT
10
57
20
28.99
0
VERTEX
8
CUT
10
56.03
20
27.438
0
SEQEND
0
POLYLINE
8
CUT
66
1
70
0
0
VERTEX
8
CUT
10
58.97
20
37.742
0
VERTEX
8
CUT
10
58
20
36.19
0
VERTEX
8
CUT
10
58
20
28.99
0
VERTEX
8
CUT
10
58.97
20
27.438
0
SEQEND
0
POLYLINE
8
CUT
66
1
70
0
0
VERTEX
8
CUT
10
60.03
20
37.742
0
VERTEX
8
CUT
10
61
20
36.19
0
VERTEX
8
CUT
10
61
20
28.99
0
VERTEX
8
CUT
10
60.03
20
27.438
0
SEQEND
0
POLYLINE
8
CUT
66
1
70
0
0
VERTEX
8
CUT
10
62.97
20
37.742
0
VERTEX
8
CUT
10
62
20
36.19
0
VERTEX
8
CUT
10
62
20
28.99
0
VERTEX
8
CUT
10
62.97
20
27.438
0
SEQEND
0
POLYLINE
8
CUT
66
1
70
0
0
VERTEX
8
CUT
10
64.03
20
37.742
0
VERTEX
8
CUT
10
65
20
36.19
0
VERTEX
8
CUT
10
65
20
28.99
0
VERTEX
8
CUT
10
64.03
20
27.438
0
SEQEND
0
POLYLINE
8
CUT
66
1
70
0
0
VERTEX
8
CUT
10
66.97
20
37.742
0
VERTEX
8
CUT
10
66
20
36.19
0
VERTEX
8
CUT
10
66
20
28.99
0
VERTEX
8
CUT
10
66.97
20
27.438
0
SEQEND
0
POLYLINE
8
CUT
66
1
70
0
0
VERTEX
8
CUT
10
68.03
20
37.742
0
VERTEX
8
CUT
10
69
20
36.19
0
VERTEX
8
CUT
10
69
20
28.99
0
VERTEX
8
CUT
10
68.03
20
27.438
0
SEQEND
0
POLYLINE
8
CUT
66
1
70
0
0
VERTEX
8
CUT
10
70.97
20
37.742
0
VERTEX
8
CUT
10
70
20
36.19
0
VERTEX
8
CUT
10
70
20
28.99
0
VERTEX
8
CUT
10
70.97
20
27.438
0
SEQEND
0
POLYLINE
8
CUT
66
1
70
0
0
VERTEX
8
CUT
10
72.03
20
37.742
0
VERTEX
8
CUT
10
73
20
36.19
0
VERTEX
8
CUT
10
73
20
28.99
0
VERTEX
8
CUT
10
72.03
20
27.438
0
SEQEND
0
POLYLINE
8
CUT
66
1
70
0
0
VERTEX
8
CUT
10
74.97
20
37.742
0
VERTEX
8
CUT
10
74
20
36.19
0
VERTEX
8
CUT
10
74
20
28.99
0
VERTEX
8
CUT
10
74.97
20
27.438
0
SEQEND
0
POLYLINE
8
CUT
66
1
70
0
0
VERTEX
8
CUT
10
76.03
20
37.742
0
VERTEX
8
CUT
10
77
20
36.19
0
VERTEX
8
CUT
10
77
20
28.99
0
VERTEX
8
CUT
10
76.03
20
27.438
0
SEQEND
0
POLYLINE
8
CUT
66
1
70
0
0
VERTEX
8
CUT
10
78.97
20
37.742
0
VERTEX
8
CUT
10
78
20
36.19
0
VERTEX
8
CUT
10
78
20
28.99
0
VERTEX
8
CUT
10
78.97
20
27.438
0
SEQEND
0
POLYLINE
8
CUT
66
1
70
0
0
VERTEX
8
CUT
10
80.03
20
37.742
0
VERTEX
8
CUT
10
81
20
36.19
0
VERTEX
8
CUT
10
81
20
28.99
0
VERTEX
8
CUT
10
80.03
20
27.438
0
SEQEND
0
POLYLINE
8
CUT
66
1
70
0
0
VERTEX
8
CUT
10
82.97
20
37.742
0
VERTEX
8
CUT
10
82
20
36.19
0
VERTEX
8
CUT
10
82
20
28.99
0
VERTEX
8
CUT
10
82.97
20
27.438
0
SEQEND
0
POLYLINE
8
CUT
66
1
70
0
0
VERTEX
8
CUT
10
84.03
20
37.742
0
VERTEX
8
CUT
10
85
20
36.19
0
VERTEX
8
CUT
10
85
20
28.99
0
VERTEX
8
CUT
10
84.03
20
27.438
0
SEQEND
0
POLYLINE
8
CUT
66
1
70
0
0
VERTEX
8
CUT
10
86.97
20
37.742
0
VERTEX
8
CUT
10
86
20
36.19
0
VERTEX
8
CUT
10
86
20
28.99
0
VERTEX
8
CUT
10
86.97
20
27.438
0
SEQEND
0
POLYLINE
8
CUT
66
1
70
0
0
VERTEX
8
CUT
10
88.03
20
37.742
0
VERTEX
8
CUT
10
89
20
36.19
0
VERTEX
8
CUT
10
89
20
28.99
0
VERTEX
8
CUT
10
88.03
20
27.438
0
SEQEND
0
POLYLINE
8
CUT
66
1
70
0
0
VERTEX
8
CUT
10
90.97
20
37.742
0
VERTEX
8
CUT
10
90
20
36.19
0
VERTEX
8
CUT
10
90
20
28.99
0
VERTEX
8
CUT
10
90.97
20
27.438
0
SEQEND
0
POLYLINE
8
CUT
66
1
70
0
0
VERTEX
8
CUT
10
92.03
20
37.742
0
VERTEX
8
CUT
10
93
20
36.19
0
VERTEX
8
CUT
10
93
20
28.99
0
VERTEX
8
CUT
10
92.03
20
27.438
0
SEQEND
0
POLYLINE
8
CUT
66
1
70
0
0
VERTEX
8
CUT
10
94.97
20
37.742
0
VERTEX
8
CUT
10
94
20
36.19
0
VERTEX
8
CUT
10
94
20
28.99
0
VERTEX
8
CUT
10
94.97
20
27.438
0
SEQEND
0
POLYLINE
8
CUT
66
1
70
0
0
VERTEX
8
CUT
10
96.03
20
37.742
0
VERTEX
8
CUT
10
97
20
36.19
0
VERTEX
8
CUT
10
97
20
28.99
0
VERTEX
8
CUT
10
96.03
20
27.438
0
SEQEND
0
POLYLINE
8
CUT
66
1
70
0
0
VERTEX
8
CUT
10
98.97
20
37.742
0
VERTEX
8
CUT
10
98
20
36.19
0
VERTEX
8
CUT
10
98
20
28.99
0
VERTEX
8
CUT
10
98.97
20
27.438
0
SEQEND
0
POLYLINE
8
CUT
66
1
70
0
0
VERTEX
8
CUT
10
100.03
20
37.742
0
VERTEX
8
CUT
10
101
20
36.19
0
VERTEX
8
CUT
10
101
20
28.99
0
VERTEX
8
CUT
10
100.03
20
27.438
0
SEQEND
0
POLYLINE
8
CUT
66
1
70
0
0
VERTEX
8
CUT
10
102.97
20
37.742
0
VERTEX
8
CUT
10
102
20
36.19
0
VERTEX
8
CUT
10
102
20
28.99
0
VERTEX
8
CUT
10
102.97
20
27.438
0
SEQEND
0
POLYLINE
8
CUT
66
1
70
0
0
VERTEX
8
CUT
10
104.03
20
37.742
0
VERTEX
8
CUT
10
105
20
36.19
0
VERTEX
8
CUT
10
105
20
28.99
0
VERTEX
8
CUT
10
104.03
20
27.438
0
SEQEND
0
POLYLINE
8
CUT
66
1
70
0
0
VERTEX
8
CUT
10
106.97
20
37.742
0
VERTEX
8
CUT
10
106
20
36.19
0
VERTEX
8
CUT
10
106
20
28.99
0
VERTEX
8
CUT
10
106.97
20
27.438
0
SEQEND
0
POLYLINE
8
CUT
66
1
70
0
0
VERTEX
8
CUT
10
108.03
20
37.742
0
VERTEX
8
CUT
10
109
20
36.19
0
VERTEX
8
CUT
10
109
20
28.99
0
VERTEX
8
CUT
10
108.03
20
27.438
0
SEQEND
0
POLYLINE
8
CUT
66
1
70
0
0
VERTEX
8
CUT
10
110.97
20
37.742
0
VERTEX
8
CUT
10
110
20
36.19
0
VERTEX
8
CUT
10
110
20
28.99
0
VERTEX
8
CUT
10
110.97
20
27.438
0
SEQEND
0
POLYLINE
8
CUT
66
1
70
0
0
VERTEX
8
CUT
10
112.03
20
37.742
0
VERTEX
8
CUT
10
113
20
36.19
0
VERTEX
8
CUT
10
113
20
28.99
0
VERTEX
8
CUT
10
112.03
20
27.438
0
SEQEND
0
POLYLINE
8
CUT
66
1
70
0
0
VERTEX
8
CUT
10
114.97
20
37.742
0
VERTEX
8
CUT
10
114
20
36.19
0
VERTEX
8
CUT
10
114
20
28.99
0
VERTEX
8
CUT
10
114.97
20
27.438
0
SEQEND
0
POLYLINE
8
CUT
66
1
70
0
0
VERTEX
8
CUT
10
116.03
20
37.742
0
VERTEX
8
CUT
10
117
20
36.19
0
VERTEX
8
CUT
10
117
20
28.99
0
VERTEX
8
CUT
10
116.03
20
27.438
0
SEQEND
0
POLYLINE
8
CUT
66
1
70
0
0
VERTEX
8
CUT
10
118.97
20
37.742
0
VERTEX
8
CUT
10
118
20
36.19
0
VERTEX
8
CUT
10
118
20
28.99
0
VERTEX
8
CUT
10
118.97
20
27.438
0
SEQEND
0
POLYLINE
8
CUT
66
1
70
0
0
VERTEX
8
CUT
10
0.97
20
27.272
0
VERTEX
8
CUT
10
0
20
25.72
0
VERTEX
8
CUT
10
0
20
18.52
0
VERTEX
8
CUT
10
0.97
20
16.968
0
SEQEND
0
POLYLINE
8
CUT
66
1
70
0
0
VERTEX
8
CUT
10
2.03
20
27.272
0
VERTEX
8
CUT
10
3
20
25.72
0
VERTEX
8
CUT
10
3
20
18.52
0
VERTEX
8
CUT
10
2.03
20
16.968
0
SEQEND
0
POLYLINE
8
CUT
66
1
70
0
0
VERTEX
8
CUT
10
4.97
20
27.272
0
VERTEX
8
CUT
10
4
20
25.72
0
VERTEX
8
CUT
10
4
20
18.52
0
VERTEX
8
CUT
10
4.97
20
16.968
0
SEQEND
0
POLYLINE
8
CUT
66
1
70
0
0
VERTEX
8
CUT
10
6.03
20
27.272
0
VERTEX
8
CUT
10
7
20
25.72
0
VERTEX
8
CUT
10
7
20
18.52
0
VERTEX
8
CUT
10
6.03
20
16.968
0
SEQEND
0
POLYLINE
8
CUT
66
1
70
0
0
VERTEX
8
CUT
10
8.97
20
27.272
0
VERTEX
8
CUT
10
8
20
25.72
0
VERTEX
8
CUT
10
8
20
18.52
0
VERTEX
8
CUT
10
8.97
20
16.968
0
SEQEND
0
POLYLINE
8
CUT
66
1
70
0
0
VERTEX
8
CUT
10
10.03
20
27.272
0
VERTEX
8
CUT
10
11
20
25.72
0
VERTEX
8
CUT
10
11
20
18.52
0
VERTEX
8
CUT
10
10.03
20
16.968
0
SEQEND
0
POLYLINE
8
CUT
66
1
70
0
0
VERTEX
8
CUT
10
12.97
20
27.272
0
VERTEX
8
CUT
10
12
20
25.72
0
VERTEX
8
CUT
10
12
20
18.52
0
VERTEX
8
CUT
10
12.97
20
16.968
0
SEQEND
0
POLYLINE
8
CUT
66
1
70
0
0
VERTEX
8
CUT
10
14.03
20
27.272
0
VERTEX
8
CUT
10
15
20
25.72
0
VERTEX
8
CUT
10
15
20
18.52
0
VERTEX
8
CUT
10
14.03
20
16.968
0
SEQEND
0
POLYLINE
8
CUT
66
1
70
0
0
VERTEX
8
CUT
10
16.97
20
27.272
0
VERTEX
8
CUT
10
16
20
25.72
0
VERTEX
8
CUT
10
16
20
18.52
0
VERTEX
8
CUT
10
16.97
20
16.968
0
SEQEND
0
POLYLINE
8
CUT
66
1
70
0
0
VERTEX
8
CUT
10
18.03
20
27.272
0
VERTEX
8
CUT
10
19
20
25.72
0
VERTEX
8
CUT
10
19
20
18.52
0
VERTEX
8
CUT
10
18.03
20
16.968
0
SEQEND
0
POLYLINE
8
CUT
66
1
70
0
0
VERTEX
8
CUT
10
20.97
20
27.272
0
VERTEX
8
CUT
10
20
20
25.72
0
VERTEX
8
CUT
10
20
20
18.52
0
VERTEX
8
CUT
10
20.97
20
16.968
0
SEQEND
0
POLYLINE
8
CUT
66
1
70
0
0
VERTEX
8
CUT
10
22.03
20
27.272
0
VERTEX
8
CUT
10
23
20
25.72
0
VERTEX
8
CUT
10
23
20
18.52
0
VERTEX
8
CUT
10
22.03
20
16.968
0
SEQEND
0
POLYLINE
8
CUT
66
1
70
0
0
VERTEX
8
CUT
10
24.97
20
27.272
0
VERTEX
8
CUT
10
24
20
25.72
0
VERTEX
8
CUT
10
24
20
18.52
0
VERTEX
8
CUT
10
24.97
20
16.968
0
SEQEND
0
POLYLINE
8
CUT
66
1
70
0
0
VERTEX
8
CUT
10
26.03
20
27.272
0
VERTEX
8
CUT
10
27
20
25.72
0
VERTEX
8
CUT
10
27
20
18.52
0
VERTEX
8
CUT
10
26.03
20
16.968
0
SEQEND
0
POLYLINE
8
CUT
66
1
70
0
0
VERTEX
8
CUT
10
28.97
20
27.272
0
VERTEX
8
CUT
10
28
20
25.72
0
VERTEX
8
CUT
10
28
20
18.52
0
VERTEX
8
CUT
10
28.97
20
16.968
0
SEQEND
0
POLYLINE
8
CUT
66
1
70
0
0
VERTEX
8
CUT
10
30.03
20
27.272
0
VERTEX
8
CUT
10
31
20
25.72
0
VERTEX
8
CUT
10
31
20
18.52
0
VERTEX
8
CUT
10
30.03
20
16.968
0
SEQEND
0
POLYLINE
8
CUT
66
1
70
0
0
VERTEX
8
CUT
10
32.97
20
27.272
0
VERTEX
8
CUT
10
32
20
25.72
0
VERTEX
8
CUT
10
32
20
18.52
0
VERTEX
8
CUT
10
32.97
20
16.968
0
SEQEND
0
POLYLINE
8
CUT
66
1
70
0
0
VERTEX
8
CUT
10
34.03
20
27.272
0
VERTEX
8
CUT
10
35
20
25.72
0
VERTEX
8
CUT
10
35
20
18.52
0
VERTEX
8
CUT
10
34.03
20
16.968
0
SEQEND
0
POLYLINE
8
CUT
66
1
70
0
0
VERTEX
8
CUT
10
36.97
20
27.272
0
VERTEX
8
CUT
10
36
20
25.72
0
VERTEX
8
CUT
10
36
20
18.52
0
VERTEX
8
CUT
10
36.97
20
16.968
0
SEQEND
0
POLYLINE
8
CUT
66
1
70
0
0
VERTEX
8
CUT
10
38.03
20
27.272
0
VERTEX
8
CUT
10
39
20
25.72
0
VERTEX
8
CUT
10
39
20
18.52
0
VERTEX
8
CUT
10
38.03
20
16.968
0
SEQEND
0
POLYLINE
8
CUT
66
1
70
0
0
VERTEX
8
CUT
10
40.97
20
27.272
0
VERTEX
8
CUT
10
40
20
25.72
0
VERTEX
8
CUT
10
40
20
18.52
0
VERTEX
8
CUT
10
40.97
20
16.968
0
SEQEND
0
POLYLINE
8
CUT
66
1
70
0
0
VERTEX
8
CUT
10
42.03
20
27.272
0
VERTEX
8
CUT
10
43
20
25.72
0
VERTEX
8
CUT
10
43
20
18.52
0
VERTEX
8
CUT
10
42.03
20
16.968
0
SEQEND
0
POLYLINE
8
CUT
66
1
70
0
0
VERTEX
8
CUT
10
44.97
20
27.272
0
VERTEX
8
CUT
10
44
20
25.72
0
VERTEX
8
CUT
10
44
20
18.52
0
VERTEX
8
CUT
10
44.97
20
16.968
0
SEQEND
0
POLYLINE
8
CUT
66
1
70
0
0
VERTEX
8
CUT
10
46.03
20
27.272
0
VERTEX
8
CUT
10
47
20
25.72
0
VERTEX
8
CUT
10
47
20
18.52
0
VERTEX
8
CUT
10
46.03
20
16.968
0
SEQEND
0
POLYLINE
8
CUT
66
1
70
0
0
VERTEX
8
CUT
10
48.97
20
27.272
0
VERTEX
8
CUT
10
48
20
25.72
0
VERTEX
8
CUT
10
48
20
18.52
0
VERTEX
8
CUT
10
48.97
20
16.968
0
SEQEND
0
POLYLINE
8
CUT
66
1
70
0
0
VERTEX
8
CUT
10
50.03
20
27.272
0
VERTEX
8
CUT
10
51
20
25.72
0
VERTEX
8
CUT
10
51
20
18.52
0
VERTEX
8
CUT
10
50.03
20
16.968
0
SEQEND
0
POLYLINE
8
CUT
66
1
70
0
0
VERTEX
8
CUT
10
52.97
20
27.272
0
VERTEX
8
CUT
10
52
20
25.72
0
VERTEX
8
CUT
10
52
20
18.52
0
VERTEX
8
CUT
10
52.97
20
16.968
0
SEQEND
0
POLYLINE
8
CUT
66
1
70
0
0
VERTEX
8
CUT
10
54.03
20
27.272
0
VERTEX
8
CUT
10
55
20
25.72
0
VERTEX
8
CUT
10
55
20
18.52
0
VERTEX
8
CUT
10
54.03
20
16.968
0
SEQEND
0
POLYLINE
8
CUT
66
1
70
0
0
VERTEX
8
CUT
10
56.97
20
27.272
0
VERTEX
8
CUT
10
56
20
25.72
0
VERTEX
8
CUT
10
56
20
18.52
0
VERTEX
8
CUT
10
56.97
20
16.968
0
SEQEND
0
POLYLINE
8
CUT
66
1
70
0
0
VERTEX
8
CUT
10
58.03
20
27.272
0
VERTEX
8
CUT
10
59
20
25.72
0
VERTEX
8
CUT
10
59
20
18.52
0
VERTEX
8
CUT
10
58.03
20
16.968
0
SEQEND
0
POLYLINE
8
CUT
66
1
70
0
0
VERTEX
8
CUT
10
60.97
20
27.272
0
VERTEX
8
CUT
10
60
20
25.72
0
VERTEX
8
CUT
10
60
20
18.52
0
VERTEX
8
CUT
10
60.97
20
16.968
0
SEQEND
0
POLYLINE
8
CUT
66
1
70
0
0
VERTEX
8
CUT
10
62.03
20
27.272
0
VERTEX
8
CUT
10
63
20
25.72
0
VERTEX
8
CUT
10
63
20
18.52
0
VERTEX
8
CUT
10
62.03
20
16.968
0
SEQEND
0
POLYLINE
8
CUT
66
1
70
0
0
VERTEX
8
CUT
10
64.97
20
27.272
0
VERTEX
8
CUT
10
64
20
25.72
0
VERTEX
8
CUT
10
64
20
18.52
0
VERTEX
8
CUT
10
64.97
20
16.968
0
SEQEND
0
POLYLINE
8
CUT
66
1
70
0
0
VERTEX
8
CUT
10
66.03
20
27.272
0
VERTEX
8
CUT
10
67
20
25.72
0
VERTEX
8
CUT
10
67
20
18.52
0
VERTEX
8
CUT
10
66.03
20
16.968
0
SEQEND
0
POLYLINE
8
CUT
66
1
70
0
0
VERTEX
8
CUT
10
68.97
20
27.272
0
VERTEX
8
CUT
10
68
20
25.72
0
VERTEX
8
CUT
10
68
20
18.52
0
VERTEX
8
CUT
10
68.97
20
16.968
0
SEQEND
0
POLYLINE
8
CUT
66
1
70
0
0
VERTEX
8
CUT
10
70.03
20
27.272
0
VERTEX
8
CUT
10
71
20
25.72
0
VERTEX
8
CUT
10
71
20
18.52
0
VERTEX
8
CUT
10
70.03
20
16.968
0
SEQEND
0
POLYLINE
8
CUT
66
1
70
0
0
VERTEX
8
CUT
10
72.97
20
27.272
0
VERTEX
8
CUT
10
72
20
25.72
0
VERTEX
8
CUT
10
72
20
18.52
0
VERTEX
8
CUT
10
72.97
20
16.968
0
SEQEND
0
POLYLINE
8
CUT
66
1
70
0
0
VERTEX
8
CUT
10
74.03
20
27.272
0
VERTEX
8
CUT
10
75
20
25.72
0
VERTEX
8
CUT
10
75
20
18.52
0
VERTEX
8
CUT
10
74.03
20
16.968
0
SEQEND
0
POLYLINE
8
CUT
66
1
70
0
0
VERTEX
8
CUT
10
76.97
20
27.272
0
VERTEX
8
CUT
10
76
20
25.72
0
VERTEX
8
CUT
10
76
20
18.52
0
VERTEX
8
CUT
10
76.97
20
16.968
0
SEQEND
0
POLYLINE
8
CUT
66
1
70
0
0
VERTEX
8
CUT
10
78.03
20
27.272
0
VERTEX
8
CUT
10
79
20
25.72
0
VERTEX
8
CUT
10
79
20
18.52
0
VERTEX
8
CUT
10
78.03
20
16.968
0
SEQEND
0
POLYLINE
8
CUT
66
1
70
0
0
VERTEX
8
CUT
10
80.97
20
27.272
0
VERTEX
8
CUT
10
80
20
25.72
0
VERTEX
8
CUT
10
80
20
18.52
0
VERTEX
8
CUT
10
80.97
20
16.968
0
SEQEND
0
POLYLINE
8
CUT
66
1
70
0
0
VERTEX
8
CUT
10
82.03
20
27.272
0
VERTEX
8
CUT
10
83
20
25.72
0
VERTEX
8
CUT
10
83
20
18.52
0
VERTEX
8
CUT
10
82.03
20
16.968
0
SEQEND
0
POLYLINE
8
CUT
66
1
70
0
0
VERTEX
8
CUT
10
84.97
20
27.272
0
VERTEX
8
CUT
10
84
20
25.72
0
VERTEX
8
CUT
10
84
20
18.52
0
VERTEX
8
CUT
10
84.97
20
16.968
0
SEQEND
0
POLYLINE
8
CUT
66
1
70
0
0
VERTEX
8
CUT
10
86.03
20
27.272
0
VERTEX
8
CUT
10
87
20
25.72
0
VERTEX
8
CUT
10
87
20
18.52
0
VERTEX
8
CUT
10
86.03
20
16.968
0
SEQEND
0
POLYLINE
8
CUT
66
1
70
0
0
VERTEX
8
CUT
10
88.97
20
27.272
0
VERTEX
8
CUT
10
88
20
25.72
0
VERTEX
8
CUT
10
88
20
18.52
0
VERTEX
8
CUT
10
88.97
20
16.968
0
SEQEND
0
POLYLINE
8
CUT
66
1
70
0
0
VERTEX
8
CUT
10
90.03
20
27.272
0
VERTEX
8
CUT
10
91
20
25.72
0
VERTEX
8
CUT
10
91
20
18.52
0
VERTEX
8
CUT
10
90.03
20
16.968
0
SEQEND
0
POLYLINE
8
CUT
66
1
70
0
0
VERTEX
8
CUT
10
92.97
20
27.272
0
VERTEX
8
CUT
10
92
20
25.72
0
VERTEX
8
CUT
10
92
20
18.52
0
VERTEX
8
CUT
10
92.97
20
16.968
0
SEQEND
0
POLYLINE
8
CUT
66
1
70
0
0
VERTEX
8
CUT
10
94.03
20
27.272
0
VERTEX
8
CUT
10
95
20
25.72
0
VERTEX
8
CUT
10
95
20
18.52
0
VERTEX
8
CUT
10
94.03
20
16.968
0
SEQEND
0
POLYLINE
8
CUT
66
1
70
0
0
VERTEX
8
CUT
10
96.97
20
27.272
0
VERTEX
8
CUT
10
96
20
25.72
0
VERTEX
8
CUT
10
96
20
18.52
0
VERTEX
8
CUT
10
96.97
20
16.968
0
SEQEND
0
POLYLINE
8
CUT
66
1
70
0
0
VERTEX
8
CUT
10
98.03
20
27.272
0
VERTEX
8
CUT
10
99
20
25.72
0
VERTEX
8
CUT
10
99
20
18.52
0
VERTEX
8
CUT
10
98.03
20
16.968
0
SEQEND
0
POLYLINE
8
CUT
66
1
70
0
0
VERTEX
8
CUT
10
100.97
20
27.272
0
VERTEX
8
CUT
10
100
20
25.72
0
VERTEX
8
CUT
10
100
20
18.52
0
VERTEX
8
CUT
10
100.97
20
16.968
0
SEQEND
0
POLYLINE
8
CUT
66
1
70
0
0
VERTEX
8
CUT
10
102.03
20
27.272
0
VERTEX
8
CUT
10
103
20
25.72
0
VERTEX
8
CUT
10
103
20
18.52
0
VERTEX
8
CUT
10
102.03
20
16.968
0
SEQEND
0
POLYLINE
8
CUT
66
1
70
0
0
VERTEX
8
CUT
10
104.97
20
27.272
0
VERTEX
8
CUT
10
104
20
25.72
0
VERTEX
8
CUT
10
104
20
18.52
0
VERTEX
8
CUT
10
104.97
20
16.968
0
SEQEND
0
POLYLINE
8
CUT
66
1
70
0
0
VERTEX
8
CUT
10
106.03
20
27.272
0
VERTEX
8
CUT
10
107
20
25.72
0
VERTEX
8
CUT
10
107
20
18.52
0
VERTEX
8
CUT
10
106.03
20
16.968
0
SEQEND
0
POLYLINE
8
CUT
66
1
70
0
0
VERTEX
8
CUT
10
108.97
20
27.272
0
VERTEX
8
CUT
10
108
20
25.72
0
VERTEX
8
CUT
10
108
20
18.52
0
VERTEX
8
CUT
10
108.97
20
16.968
0
SEQEND
0
POLYLINE
8
CUT
66
1
70
0
0
VERTEX
8
CUT
10
110.03
20
27.272
0
VERTEX
8
CUT
10
111
20
25.72
0
VERTEX
8
CUT
10
111
20
18.52
0
VERTEX
8
CUT
10
110.03
20
16.968
0
SEQEND
0
POLYLINE
8
CUT
66
1
70
0
0
VERTEX
8
CUT
10
112.97
20
27.272
0
VERTEX
8
CUT
10
112
20
25.72
0
VERTEX
8
CUT
10
112
20
18.52
0
VERTEX
8
CUT
10
112.97
20
16.968
0
SEQEND
0
POLYLINE
8
CUT
66
1
70
0
0
VERTEX
8
CUT
10
114.03
20
27.272
0
VERTEX
8
CUT
10
115
20
25.72
0
VERTEX
8
CUT
10
115
20
18.52
0
VERTEX
8
CUT
10
114.03
20
16.968
0
SEQEND
0
POLYLINE
8
CUT
66
1
70
0
0
VERTEX
8
CUT
10
116.97
20
27.272
0
VERTEX
8
CUT
10
116
20
25.72
0
VERTEX
8
CUT
10
116
20
18.52
0
VERTEX
8
CUT
10
116.97
20
16.968
0
SEQEND
0
POLYLINE
8
CUT
66
1
70
0
0
VERTEX
8
CUT
10
118.03
20
27.272
0
VERTEX
8
CUT
10
119
20
25.72
0
VERTEX
8
CUT
10
119
20
18.52
0
VERTEX
8
CUT
10
118.03
20
16.968
0
SEQEND
0
POLYLINE
8
CUT
66
1
70
0
0
VERTEX
8
CUT
10
120
20
25.72
0
VERTEX
8
CUT
10
120
20
25.72
0
VERTEX
8
CUT
10
120
20
18.52
0
VERTEX
8
CUT
10
120
20
18.52
0
SEQEND
0
POLYLINE
8
CUT
66
1
70
0
0
VERTEX
8
CUT
10
0.03
20
16.802
0
VERTEX
8
CUT
10
1
20
15.25
0
VERTEX
8
CUT
10
1
20
8.05
0
VERTEX
8
CUT
10
0.03
20
6.498
0
SEQEND
0
POLYLINE
8
CUT
66
1
70
0
0
VERTEX
8
CUT
10
2.97
20
16.802
0
VERTEX
8
CUT
10
2
20
15.25
0
VERTEX
8
CUT
10
2
20
8.05
0
VERTEX
8
CUT
10
2.97
20
6.498
0
SEQEND
0
POLYLINE
8
CUT
66
1
70
0
0
VERTEX
8
CUT
10
4.03
20
16.802
0
VERTEX
8
CUT
10
5
20
15.25
0
VERTEX
8
CUT
10
5
20
8.05
0
VERTEX
8
CUT
10
4.03
20
6.498
0
SEQEND
0
POLYLINE
8
CUT
66
1
70
0
0
VERTEX
8
CUT
10
6.97
20
16.802
0
VERTEX
8
CUT
10
6
20
15.25
0
VERTEX
8
CUT
10
6
20
8.05
0
VERTEX
8
CUT
10
6.97
20
6.498
0
SEQEND
0
POLYLINE
8
CUT
66
1
70
0
0
VERTEX
8
CUT
10
8.03
20
16.802
0
VERTEX
8
CUT
10
9
20
15.25
0
VERTEX
8
CUT
10
9
20
8.05
0
VERTEX
8
CUT
10
8.03
20
6.498
0
SEQEND
0
POLYLINE
8
CUT
66
1
70
0
0
VERTEX
8
CUT
10
10.97
20
16.802
0
VERTEX
8
CUT
10
10
20
15.25
0
VERTEX
8
CUT
10
10
20
8.05
0
VERTEX
8
CUT
10
10.97
20
6.498
0
SEQEND
0
POLYLINE
8
CUT
66
1
70
0
0
VERTEX
8
CUT
10
12.03
20
16.802
0
VERTEX
8
CUT
10
13
20
15.25
0
VERTEX
8
CUT
10
13
20
8.05
0
VERTEX
8
CUT
10
12.03
20
6.498
0
SEQEND
0
POLYLINE
8
CUT
66
1
70
0
0
VERTEX
8
CUT
10
14.97
20
16.802
0
VERTEX
8
CUT
10
14
20
15.25
0
VERTEX
8
CUT
10
14
20
8.05
0
VERTEX
8
CUT
10
14.97
20
6.498
0
SEQEND
0
POLYLINE
8
CUT
66
1
70
0
0
VERTEX
8
CUT
10
16.03
20
16.802
0
VERTEX
8
CUT
10
17
20
15.25
0
VERTEX
8
CUT
10
17
20
8.05
0
VERTEX
8
CUT
10
16.03
20
6.498
0
SEQEND
0
POLYLINE
8
CUT
66
1
70
0
0
VERTEX
8
CUT
10
18.97
20
16.802
0
VERTEX
8
CUT
10
18
20
15.25
0
VERTEX
8
CUT
10
18
20
8.05
0
VERTEX
8
CUT
10
18.97
20
6.498
0
SEQEND
0
POLYLINE
8
CUT
66
1
70
0
0
VERTEX
8
CUT
10
20.03
20
16.802
0
VERTEX
8
CUT
10
21
20
15.25
0
VERTEX
8
CUT
10
21
20
8.05
0
VERTEX
8
CUT
10
20.03
20
6.498
0
SEQEND
0
POLYLINE
8
CUT
66
1
70
0
0
VERTEX
8
CUT
10
22.97
20
16.802
0
VERTEX
8
CUT
10
22
20
15.25
0
VERTEX
8
CUT
10
22
20
8.05
0
VERTEX
8
CUT
10
22.97
20
6.498
0
SEQEND
0
POLYLINE
8
CUT
66
1
70
0
0
VERTEX
8
CUT
10
24.03
20
16.802
0
VERTEX
8
CUT
10
25
20
15.25
0
VERTEX
8
CUT
10
25
20
8.05
0
VERTEX
8
CUT
10
24.03
20
6.498
0
SEQEND
0
POLYLINE
8
CUT
66
1
70
0
0
VERTEX
8
CUT
10
26.97
20
16.802
0
VERTEX
8
CUT
10
26
20
15.25
0
VERTEX
8
CUT
10
26
20
8.05
0
VERTEX
8
CUT
10
26.97
20
6.498
0
SEQEND
0
POLYLINE
8
CUT
66
1
70
0
0
VERTEX
8
CUT
10
28.03
20
16.802
0
VERTEX
8
CUT
10
29
20
15.25
0
VERTEX
8
CUT
10
29
20
8.05
0
VERTEX
8
CUT
10
28.03
20
6.498
0
SEQEND
0
POLYLINE
8
CUT
66
1
70
0
0
VERTEX
8
CUT
10
30.97
20
16.802
0
VERTEX
8
CUT
10
30
20
15.25
0
VERTEX
8
CUT
10
30
20
8.05
0
VERTEX
8
CUT
10
30.97
20
6.498
0
SEQEND
0
POLYLINE
8
CUT
66
1
70
0
0
VERTEX
8
CUT
10
32.03
20
16.802
0
VERTEX
8
CUT
10
33
20
15.25
0
VERTEX
8
CUT
10
33
20
8.05
0
VERTEX
8
CUT
10
32.03
20
6.498
0
SEQEND
0
POLYLINE
8
CUT
66
1
70
0
0
VERTEX
8
CUT
10
34.97
20
16.802
0
VERTEX
8
CUT
10
34
20
15.25
0
VERTEX
8
CUT
10
34
20
8.05
0
VERTEX
8
CUT
10
34.97
20
6.498
0
SEQEND
0
POLYLINE
8
CUT
66
1
70
0
0
VERTEX
8
CUT
10
36.03
20
16.802
0
VERTEX
8
CUT
10
37
20
15.25
0
VERTEX
8
CUT
10
37
20
8.05
0
VERTEX
8
CUT
10
36.03
20
6.498
0
SEQEND
0
POLYLINE
8
CUT
66
1
70
0
0
VERTEX
8
CUT
10
38.97
20
16.802
0
VERTEX
8
CUT
10
38
20
15.25
0
VERTEX
8
CUT
10
38
20
8.05
0
VERTEX
8
CUT
10
38.97
20
6.498
0
SEQEND
0
POLYLINE
8
CUT
66
1
70
0
0
VERTEX
8
CUT
10
40.03
20
16.802
0
VERTEX
8
CUT
10
41
20
15.25
0
VERTEX
8
CUT
10
41
20
8.05
0
VERTEX
8
CUT
10
40.03
20
6.498
0
SEQEND
0
POLYLINE
8
CUT
66
1
70
0
0
VERTEX
8
CUT
10
42.97
20
16.802
0
VERTEX
8
CUT
10
42
20
15.25
0
VERTEX
8
CUT
10
42
20
8.05
0
VERTEX
8
CUT
10
42.97
20
6.498
0
SEQEND
0
POLYLINE
8
CUT
66
1
70
0
0
VERTEX
8
CUT
10
44.03
20
16.802
0
VERTEX
8
CUT
10
45
20
15.25
0
VERTEX
8
CUT
10
45
20
8.05
0
VERTEX
8
CUT
10
44.03
20
6.498
0
SEQEND
0
POLYLINE
8
CUT
66
1
70
0
0
VERTEX
8
CUT
10
46.97
20
16.802
0
VERTEX
8
CUT
10
46
20
15.25
0
VERTEX
8
CUT
10
46
20
8.05
0
VERTEX
8
CUT
10
46.97
20
6.498
0
SEQEND
0
POLYLINE
8
CUT
66
1
70
0
0
VERTEX
8
CUT
10
48.03
20
16.802
0
VERTEX
8
CUT
10
49
20
15.25
0
VERTEX
8
CUT
10
49
20
8.05
0
VERTEX
8
CUT
10
48.03
20
6.498
0
SEQEND
0
POLYLINE
8
CUT
66
1
70
0
0
VERTEX
8
CUT
10
50.97
20
16.802
0
VERTEX
8
CUT
10
50
20
15.25
0
VERTEX
8
CUT
10
50
20
8.05
0
VERTEX
8
CUT
10
50.97
20
6.498
0
SEQEND
0
POLYLINE
8
CUT
66
1
70
0
0
VERTEX
8
CUT
10
52.03
20
16.802
0
VERTEX
8
CUT
10
53
20
15.25
0
VERTEX
8
CUT
10
53
20
8.05
0
VERTEX
8
CUT
10
52.03
20
6.498
0
SEQEND
0
POLYLINE
8
CUT
66
1
70
0
0
VERTEX
8
CUT
10
54.97
20
16.802
0
VERTEX
8
CUT
10
54
20
15.25
0
VERTEX
8
CUT
10
54
20
8.05
0
VERTEX
8
CUT
10
54.97
20
6.498
0
SEQEND
0
POLYLINE
8
CUT
66
1
70
0
0
VERTEX
8
CUT
10
56.03
20
16.802
0
VERTEX
8
CUT
10
57
20
15.25
0
VERTEX
8
CUT
10
57
20
8.05
0
VERTEX
8
CUT
10
56.03
20
6.498
0
SEQEND
0
POLYLINE
8
CUT
66
1
70
0
0
VERTEX
8
CUT
10
58.97
20
16.802
0
VERTEX
8
CUT
10
58
20
15.25
0
VERTEX
8
CUT
10
58
20
8.05
0
VERTEX
8
CUT
10
58.97
20
6.498
0
SEQEND
0
POLYLINE
8
CUT
66
1
70
0
0
VERTEX
8
CUT
10
60.03
20
16.802
0
VERTEX
8
CUT
10
61
20
15.25
0
VERTEX
8
CUT
10
61
20
8.05
0
VERTEX
8
CUT
10
60.03
20
6.498
0
SEQEND
0
POLYLINE
8
CUT
66
1
70
0
0
VERTEX
8
CUT
10
62.97
20
16.802
0
VERTEX
8
CUT
10
62
20
15.25
0
VERTEX
8
CUT
10
62
20
8.05
0
VERTEX
8
CUT
10
62.97
20
6.498
0
SEQEND
0
POLYLINE
8
CUT
66
1
70
0
0
VERTEX
8
CUT
10
64.03
20
16.802
0
VERTEX
8
CUT
10
65
20
15.25
0
VERTEX
8
CUT
10
65
20
8.05
0
VERTEX
8
CUT
10
64.03
20
6.498
0
SEQEND
0
POLYLINE
8
CUT
66
1
70
0
0
VERTEX
8
CUT
10
66.97
20
16.802
0
VERTEX
8
CUT
10
66
20
15.25
0
VERTEX
8
CUT
10
66
20
8.05
0
VERTEX
8
CUT
10
66.97
20
6.498
0
SEQEND
0
POLYLINE
8
CUT
66
1
70
0
0
VERTEX
8
CUT
10
68.03
20
16.802
0
VERTEX
8
CUT
10
69
20
15.25
0
VERTEX
8
CUT
10
69
20
8.05
0
VERTEX
8
CUT
10
68.03
20
6.498
0
SEQEND
0
POLYLINE
8
CUT
66
1
70
0
0
VERTEX
8
CUT
10
70.97
20
16.802
0
VERTEX
8
CUT
10
70
20
15.25
0
VERTEX
8
CUT
10
70
20
8.05
0
VERTEX
8
CUT
10
70.97
20
6.498
0
SEQEND
0
POLYLINE
8
CUT
66
1
70
0
0
VERTEX
8
CUT
10
72.03
20
16.802
0
VERTEX
8
CUT
10
73
20
15.25
0
VERTEX
8
CUT
10
73
20
8.05
0
VERTEX
8
CUT
10
72.03
20
6.498
0
SEQEND
0
POLYLINE
8
CUT
66
1
70
0
0
VERTEX
8
CUT
10
74.97
20
16.802
0
VERTEX
8
CUT
10
74
20
15.25
0
VERTEX
8
CUT
10
74
20
8.05
0
VERTEX
8
CUT
10
74.97
20
6.498
0
SEQEND
0
POLYLINE
8
CUT
66
1
70
0
0
VERTEX
8
CUT
10
76.03
20
16.802
0
VERTEX
8
CUT
10
77
20
15.25
0
VERTEX
8
CUT
10
77
20
8.05
0
VERTEX
8
CUT
10
76.03
20
6.498
0
SEQEND
0
POLYLINE
8
CUT
66
1
70
0
0
VERTEX
8
CUT
10
78.97
20
16.802
0
VERTEX
8
CUT
10
78
20
15.25
0
VERTEX
8
CUT
10
78
20
8.05
0
VERTEX
8
CUT
10
78.97
20
6.498
0
SEQEND
0
POLYLINE
8
CUT
66
1
70
0
0
VERTEX
8
CUT
10
80.03
20
16.802
0
VERTEX
8
CUT
10
81
20
15.25
0
VERTEX
8
CUT
10
81
20
8.05
0
VERTEX
8
CUT
10
80.03
20
6.498
0
SEQEND
0
POLYLINE
8
CUT
66
1
70
0
0
VERTEX
8
CUT
10
82.97
20
16.802
0
VERTEX
8
CUT
10
82
20
15.25
0
VERTEX
8
CUT
10
82
20
8.05
0
VERTEX
8
CUT
10
82.97
20
6.498
0
SEQEND
0
POLYLINE
8
CUT
66
1
70
0
0
VERTEX
8
CUT
10
84.03
20
16.802
0
VERTEX
8
CUT
10
85
20
15.25
0
VERTEX
8
CUT
10
85
20
8.05
0
VERTEX
8
CUT
10
84.03
20
6.498
0
SEQEND
0
POLYLINE
8
CUT
66
1
70
0
0
VERTEX
8
CUT
10
86.97
20
16.802
0
VERTEX
8
CUT
10
86
20
15.25
0
VERTEX
8
CUT
10
86
20
8.05
0
VERTEX
8
CUT
10
86.97
20
6.498
0
SEQEND
0
POLYLINE
8
CUT
66
1
70
0
0
VERTEX
8
CUT
10
88.03
20
16.802
0
VERTEX
8
CUT
10
89
20
15.25
0
VERTEX
8
CUT
10
89
20
8.05
0
VERTEX
8
CUT
10
88.03
20
6.498
0
SEQEND
0
POLYLINE
8
CUT
66
1
70
0
0
VERTEX
8
CUT
10
90.97
20
16.802
0
VERTEX
8
CUT
10
90
20
15.25
0
VERTEX
8
CUT
10
90
20
8.05
0
VERTEX
8
CUT
10
90.97
20
6.498
0
SEQEND
0
POLYLINE
8
CUT
66
1
70
0
0
VERTEX
8
CUT
10
92.03
20
16.802
0
VERTEX
8
CUT
10
93
20
15.25
0
VERTEX
8
CUT
10
93
20
8.05
0
VERTEX
8
CUT
10
92.03
20
6.498
0
SEQEND
0
POLYLINE
8
CUT
66
1
70
0
0
VERTEX
8
CUT
10
94.97
20
16.802
0
VERTEX
8
CUT
10
94
20
15.25
0
VERTEX
8
CUT
10
94
20
8.05
0
VERTEX
8
CUT
10
94.97
20
6.498
0
SEQEND
0
POLYLINE
8
CUT
66
1
70
0
0
VERTEX
8
CUT
10
96.03
20
16.802
0
VERTEX
8
CUT
10
97
20
15.25
0
VERTEX
8
CUT
10
97
20
8.05
0
VERTEX
8
CUT
10
96.03
20
6.498
0
SEQEND
0
POLYLINE
8
CUT
66
1
70
0
0
VERTEX
8
CUT
10
98.97
20
16.802
0
VERTEX
8
CUT
10
98
20
15.25
0
VERTEX
8
CUT
10
98
20
8.05
0
VERTEX
8
CUT
10
98.97
20
6.498
0
SEQEND
0
POLYLINE
8
CUT
66
1
70
0
0
VERTEX
8
CUT
10
100.03
20
16.802
0
VERTEX
8
CUT
10
101
20
15.25
0
VERTEX
8
CUT
10
101
20
8.05
0
VERTEX
8
CUT
10
100.03
20
6.498
0
SEQEND
0
POLYLINE
8
CUT
66
1
70
0
0
VERTEX
8
CUT
10
102.97
20
16.802
0
VERTEX
8
CUT
10
102
20
15.25
0
VERTEX
8
CUT
10
102
20
8.05
0
VERTEX
8
CUT
10
102.97
20
6.498
0
SEQEND
0
POLYLINE
8
CUT
66
1
70
0
0
VERTEX
8
CUT
10
104.03
20
16.802
0
VERTEX
8
CUT
10
105
20
15.25
0
VERTEX
8
CUT
10
105
20
8.05
0
VERTEX
8
CUT
10
104.03
20
6.498
0
SEQEND
0
POLYLINE
8
CUT
66
1
70
0
0
VERTEX
8
CUT
10
106.97
20
16.802
0
VERTEX
8
CUT
10
106
20
15.25
0
VERTEX
8
CUT
10
106
20
8.05
0
VERTEX
8
CUT
10
106.97
20
6.498
0
SEQEND
0
POLYLINE
8
CUT
66
1
70
0
0
VERTEX
8
CUT
10
108.03
20
16.802
0
VERTEX
8
CUT
10
109
20
15.25
0
VERTEX
8
CUT
10
109
20
8.05
0
VERTEX
8
CUT
10
108.03
20
6.498
0
SEQEND
0
POLYLINE
8
CUT
66
1
70
0
0
VERTEX
8
CUT
10
110.97
20
16.802
0
VERTEX
8
CUT
10
110
20
15.25
0
VERTEX
8
CUT
10
110
20
8.05
0
VERTEX
8
CUT
10
110.97
20
6.498
0
SEQEND
0
POLYLINE
8
CUT
66
1
70
0
0
VERTEX
8
CUT
10
112.03
20
16.802
0
VERTEX
8
CUT
10
113
20
15.25
0
VERTEX
8
CUT
10
113
20
8.05
0
VERTEX
8
CUT
10
112.03
20
6.498
0
SEQEND
0
POLYLINE
8
CUT
66
1
70
0
0
VERTEX
8
CUT
10
114.97
20
16.802
0
VERTEX
8
CUT
10
114
20
15.25
0
VERTEX
8
CUT
10
114
20
8.05
0
VERTEX
8
CUT
10
114.97
20
6.498
0
SEQEND
0
POLYLINE
8
CUT
66
1
70
0
0
VERTEX
8
CUT
10
116.03
20
16.802
0
VERTEX
8
CUT
10
117
20
15.25
0
VERTEX
8
CUT
10
117
20
8.05
0
VERTEX
8
CUT
10
116.03
20
6.498
0
SEQEND
0
POLYLINE
8
CUT
66
1
70
0
0
VERTEX
8
CUT
10
118.97
20
16.802
0
VERTEX
8
CUT
10
118
20
15.25
0
VERTEX
8
CUT
10
118
20
8.05
0
VERTEX
8
CUT
10
118.97
20
6.498
0
SEQEND
0
POLYLINE
8
CUT
66
1
70
0
0
VERTEX
8
CUT
10
0.97
20
6.332
0
VERTEX
8
CUT
10
0
20
4.78
0
VERTEX
8
CUT
10
0
20
0
0
SEQEND
0
POLYLINE
8
CUT
66
1
70
0
0
VERTEX
8
CUT
10
2.03
20
6.332
0
VERTEX
8
CUT
10
3
20
4.78
0
VERTEX
8
CUT
10
3
20
0
0
SEQEND
0
POLYLINE
8
CUT
66
1
70
0
0
VERTEX
8
CUT
10
4.97
20
6.332
0
VERTEX
8
CUT
10
4
20
4.78
0
VERTEX
8
CUT
10
4
20
0
0
SEQEND
0
POLYLINE
8
CUT
66
1
70
0
0
VERTEX
8
CUT
10
6.03
20
6.332
0
VERTEX
8
CUT
10
7
20
4.78
0
VERTEX
8
CUT
10
7
20
0
0
SEQEND
0
POLYLINE
8
CUT
66
1
70
0
0
VERTEX
8
CUT
10
8.97
20
6.332
0
VERTEX
8
CUT
10
8
20
4.78
0
VERTEX
8
CUT
10
8
20
0
0
SEQEND
0
POLYLINE
8
CUT
66
1
70
0
0
VERTEX
8
CUT
10
10.03
20
6.332
0
VERTEX
8
CUT
10
11
20
4.78
0
VERTEX
8
CUT
10
11
20
0
0
SEQEND
0
POLYLINE
8
CUT
66
1
70
0
0
VERTEX
8
CUT
10
12.97
20
6.332
0
VERTEX
8
CUT
10
12
20
4.78
0
VERTEX
8
CUT
10
12
20
0
0
SEQEND
0
POLYLINE
8
CUT
66
1
70
0
0
VERTEX
8
CUT
10
14.03
20
6.332
0
VERTEX
8
CUT
10
15
20
4.78
0
VERTEX
8
CUT
10
15
20
0
0
SEQEND
0
POLYLINE
8
CUT
66
1
70
0
0
VERTEX
8
CUT
10
16.97
20
6.332
0
VERTEX
8
CUT
10
16
20
4.78
0
VERTEX
8
CUT
10
16
20
0
0
SEQEND
0
POLYLINE
8
CUT
66
1
70
0
0
VERTEX
8
CUT
10
18.03
20
6.332
0
VERTEX
8
CUT
10
19
20
4.78
0
VERTEX
8
CUT
10
19
20
0
0
SEQEND
0
POLYLINE
8
CUT
66
1
70
0
0
VERTEX
8
CUT
10
20.97
20
6.332
0
VERTEX
8
CUT
10
20
20
4.78
0
VERTEX
8
CUT
10
20
20
0
0
SEQEND
0
POLYLINE
8
CUT
66
1
70
0
0
VERTEX
8
CUT
10
22.03
20
6.332
0
VERTEX
8
CUT
10
23
20
4.78
0
VERTEX
8
CUT
10
23
20
0
0
SEQEND
0
POLYLINE
8
CUT
66
1
70
0
0
VERTEX
8
CUT
10
24.97
20
6.332
0
VERTEX
8
CUT
10
24
20
4.78
0
VERTEX
8
CUT
10
24
20
0
0
SEQEND
0
POLYLINE
8
CUT
66
1
70
0
0
VERTEX
8
CUT
10
26.03
20
6.332
0
VERTEX
8
CUT
10
27
20
4.78
0
VERTEX
8
CUT
10
27
20
0
0
SEQEND
0
POLYLINE
8
CUT
66
1
70
0
0
VERTEX
8
CUT
10
28.97
20
6.332
0
VERTEX
8
CUT
10
28
20
4.78
0
VERTEX
8
CUT
10
28
20
0
0
SEQEND
0
POLYLINE
8
CUT
66
1
70
0
0
VERTEX
8
CUT
10
30.03
20
6.332
0
VERTEX
8
CUT
10
31
20
4.78
0
VERTEX
8
CUT
10
31
20
0
0
SEQEND
0
POLYLINE
8
CUT
66
1
70
0
0
VERTEX
8
CUT
10
32.97
20
6.332
0
VERTEX
8
CUT
10
32
20
4.78
0
VERTEX
8
CUT
10
32
20
0
0
SEQEND
0
POLYLINE
8
CUT
66
1
70
0
0
VERTEX
8
CUT
10
34.03
20
6.332
0
VERTEX
8
CUT
10
35
20
4.78
0
VERTEX
8
CUT
10
35
20
0
0
SEQEND
0
POLYLINE
8
CUT
66
1
70
0
0
VERTEX
8
CUT
10
36.97
20
6.332
0
VERTEX
8
CUT
10
36
20
4.78
0
VERTEX
8
CUT
10
36
20
0
0
SEQEND
0
POLYLINE
8
CUT
66
1
70
0
0
VERTEX
8
CUT
10
38.03
20
6.332
0
VERTEX
8
CUT
10
39
20
4.78
0
VERTEX
8
CUT
10
39
20
0
0
SEQEND
0
POLYLINE
8
CUT
66
1
70
0
0
VERTEX
8
CUT
10
40.97
20
6.332
0
VERTEX
8
CUT
10
40
20
4.78
0
VERTEX
8
CUT
10
40
20
0
0
SEQEND
0
POLYLINE
8
CUT
66
1
70
0
0
VERTEX
8
CUT
10
42.03
20
6.332
0
VERTEX
8
CUT
10
43
20
4.78
0
VERTEX
8
CUT
10
43
20
0
0
SEQEND
0
POLYLINE
8
CUT
66
1
70
0
0
VERTEX
8
CUT
10
44.97
20
6.332
0
VERTEX
8
CUT
10
44
20
4.78
0
VERTEX
8
CUT
10
44
20
0
0
SEQEND
0
POLYLINE
8
CUT
66
1
70
0
0
VERTEX
8
CUT
10
46.03
20
6.332
0
VERTEX
8
CUT
10
47
20
4.78
0
VERTEX
8
CUT
10
47
20
0
0
SEQEND
0
POLYLINE
8
CUT
66
1
70
0
0
VERTEX
8
CUT
10
48.97
20
6.332
0
VERTEX
8
CUT
10
48
20
4.78
0
VERTEX
8
CUT
10
48
20
0
0
SEQEND
0
POLYLINE
8
CUT
66
1
70
0
0
VERTEX
8
CUT
10
50.03
20
6.332
0
VERTEX
8
CUT
10
51
20
4.78
0
VERTEX
8
CUT
10
51
20
0
0
SEQEND
0
POLYLINE
8
CUT
66
1
70
0
0
VERTEX
8
CUT
10
52.97
20
6.332
0
VERTEX
8
CUT
10
52
20
4.78
0
VERTEX
8
CUT
10
52
20
0
0
SEQEND
0
POLYLINE
8
CUT
66
1
70
0
0
VERTEX
8
CUT
10
54.03
20
6.332
0
VERTEX
8
CUT
10
55
20
4.78
0
VERTEX
8
CUT
10
55
20
0
0
SEQEND
0
POLYLINE
8
CUT
66
1
70
0
0
VERTEX
8
CUT
10
56.97
20
6.332
0
VERTEX
8
CUT
10
56
20
4.78
0
VERTEX
8
CUT
10
56
20
0
0
SEQEND
0
POLYLINE
8
CUT
66
1
70
0
0
VERTEX
8
CUT
10
58.03
20
6.332
0
VERTEX
8
CUT
10
59
20
4.78
0
VERTEX
8
CUT
10
59
20
0
0
SEQEND
0
POLYLINE
8
CUT
66
1
70
0
0
VERTEX
8
CUT
10
60.97
20
6.332
0
VERTEX
8
CUT
10
60
20
4.78
0
VERTEX
8
CUT
10
60
20
0
0
SEQEND
0
POLYLINE
8
CUT
66
1
70
0
0
VERTEX
8
CUT
10
62.03
20
6.332
0
VERTEX
8
CUT
10
63
20
4.78
0
VERTEX
8
CUT
10
63
20
0
0
SEQEND
0
POLYLINE
8
CUT
66
1
70
0
0
VERTEX
8
CUT
10
64.97
20
6.332
0
VERTEX
8
CUT
10
64
20
4.78
0
VERTEX
8
CUT
10
64
20
0
0
SEQEND
0
POLYLINE
8
CUT
66
1
70
0
0
VERTEX
8
CUT
10
66.03
20
6.332
0
VERTEX
8
CUT
10
67
20
4.78
0
VERTEX
8
CUT
10
67
20
0
0
SEQEND
0
POLYLINE
8
CUT
66
1
70
0
0
VERTEX
8
CUT
10
68.97
20
6.332
0
VERTEX
8
CUT
10
68
20
4.78
0
VERTEX
8
CUT
10
68
20
0
0
SEQEND
0
POLYLINE
8
CUT
66
1
70
0
0
VERTEX
8
CUT
10
70.03
20
6.332
0
VERTEX
8
CUT
10
71
20
4.78
0
VERTEX
8
CUT
10
71
20
0
0
SEQEND
0
POLYLINE
8
CUT
66
1
70
0
0
VERTEX
8
CUT
10
72.97
20
6.332
0
VERTEX
8
CUT
10
72
20
4.78
0
VERTEX
8
CUT
10
72
20
0
0
SEQEND
0
POLYLINE
8
CUT
66
1
70
0
0
VERTEX
8
CUT
10
74.03
20
6.332
0
VERTEX
8
CUT
10
75
20
4.78
0
VERTEX
8
CUT
10
75
20
0
0
SEQEND
0
POLYLINE
8
CUT
66
1
70
0
0
VERTEX
8
CUT
10
76.97
20
6.332
0
VERTEX
8
CUT
10
76
20
4.78
0
VERTEX
8
CUT
10
76
20
0
0
SEQEND
0
POLYLINE
8
CUT
66
1
70
0
0
VERTEX
8
CUT
10
78.03
20
6.332
0
VERTEX
8
CUT
10
79
20
4.78
0
VERTEX
8
CUT
10
79
20
0
0
SEQEND
0
POLYLINE
8
CUT
66
1
70
0
0
VERTEX
8
CUT
10
80.97
20
6.332
0
VERTEX
8
CUT
10
80
20
4.78
0
VERTEX
8
CUT
10
80
20
0
0
SEQEND
0
POLYLINE
8
CUT
66
1
70
0
0
VERTEX
8
CUT
10
82.03
20
6.332
0
VERTEX
8
CUT
10
83
20
4.78
0
VERTEX
8
CUT
10
83
20
0
0
SEQEND
0
POLYLINE
8
CUT
66
1
70
0
0
VERTEX
8
CUT
10
84.97
20
6.332
0
VERTEX
8
CUT
10
84
20
4.78
0
VERTEX
8
CUT
10
84
20
0
0
SEQEND
0
POLYLINE
8
CUT
66
1
70
0
0
VERTEX
8
CUT
10
86.03
20
6.332
0
VERTEX
8
CUT
10
87
20
4.78
0
VERTEX
8
CUT
10
87
20
0
0
SEQEND
0
POLYLINE
8
CUT
66
1
70
0
0
VERTEX
8
CUT
10
88.97
20
6.332
0
VERTEX
8
CUT
10
88
20
4.78
0
VERTEX
8
CUT
10
88
20
0
0
SEQEND
0
POLYLINE
8
CUT
66
1
70
0
0
VERTEX
8
CUT
10
90.03
20
6.332
0
VERTEX
8
CUT
10
91
20
4.78
0
VERTEX
8
CUT
10
91
20
0
0
SEQEND
0
POLYLINE
8
CUT
66
1
70
0
0
VERTEX
8
CUT
10
92.97
20
6.332
0
VERTEX
8
CUT
10
92
20
4.78
0
VERTEX
8
CUT
10
92
20
0
0
SEQEND
0
POLYLINE
8
CUT
66
1
70
0
0
VERTEX
8
CUT
10
94.03
20
6.332
0
VERTEX
8
CUT
10
95
20
4.78
0
VERTEX
8
CUT
10
95
20
0
0
SEQEND
0
POLYLINE
8
CUT
66
1
70
0
0
VERTEX
8
CUT
10
96.97
20
6.332
0
VERTEX
8
CUT
10
96
20
4.78
0
VERTEX
8
CUT
10
96
20
0
0
SEQEND
0
POLYLINE
8
CUT
66
1
70
0
0
VERTEX
8
CUT
10
98.03
20
6.332
0
VERTEX
8
CUT
10
99
20
4.78
0
VERTEX
8
CUT
10
99
20
0
0
SEQEND
0
POLYLINE
8
CUT
66
1
70
0
0
VERTEX
8
CUT
10
100.97
20
6.332
0
VERTEX
8
CUT
10
100
20
4.78
0
VERTEX
8
CUT
10
100
20
0
0
SEQEND
0
POLYLINE
8
CUT
66
1
70
0
0
VERTEX
8
CUT
10
102.03
20
6.332
0
VERTEX
8
CUT
10
103
20
4.78
0
VERTEX
8
CUT
10
103
20
0
0
SEQEND
0
POLYLINE
8
CUT
66
1
70
0
0
VERTEX
8
CUT
10
104.97
20
6.332
0
VERTEX
8
CUT
10
104
20
4.78
0
VERTEX
8
CUT
10
104
20
0
0
SEQEND
0
POLYLINE
8
CUT
66
1
70
0
0
VERTEX
8
CUT
10
106.03
20
6.332
0
VERTEX
8
CUT
10
107
20
4.78
0
VERTEX
8
CUT
10
107
20
0
0
SEQEND
0
POLYLINE
8
CUT
66
1
70
0
0
VERTEX
8
CUT
10
108.97
20
6.332
0
VERTEX
8
CUT
10
108
20
4.78
0
VERTEX
8
CUT
10
108
20
0
0
SEQEND
0
POLYLINE
8
CUT
66
1
70
0
0
VERTEX
8
CUT
10
110.03
20
6.332
0
VERTEX
8
CUT
10
111
20
4.78
0
VERTEX
8
CUT
10
111
20
0
0
SEQEND
0
POLYLINE
8
CUT
66
1
70
0
0
VERTEX
8
CUT
10
112.97
20
6.332
0
VERTEX
8
CUT
10
112
20
4.78
0
VERTEX
8
CUT
10
112
20
0
0
SEQEND
0
POLYLINE
8
CUT
66
1
70
0
0
VERTEX
8
CUT
10
114.03
20
6.332
0
VERTEX
8
CUT
10
115
20
4.78
0
VERTEX
8
CUT
10
115
20
0
0
SEQEND
0
POLYLINE
8
CUT
66
1
70
0
0
VERTEX
8
CUT
10
116.97
20
6.332
0
VERTEX
8
CUT
10
116
20
4.78
0
VERTEX
8
CUT
10
116
20
0
0
SEQEND
0
POLYLINE
8
CUT
66
1
70
0
0
VERTEX
8
CUT
10
118.03
20
6.332
0
VERTEX
8
CUT
10
119
20
4.78
0
VERTEX
8
CUT
10
119
20
0
0
SEQEND
0
POLYLINE
8
CUT
66
1
70
0
0
VERTEX
8
CUT
10
120
20
4.78
0
VERTEX
8
CUT
10
120
20
4.78
0
VERTEX
8
CUT
10
120
20
0
0
SEQEND
0
POLYLINE
8
CUT
66
1
70
0
0
VERTEX
8
CUT
10
0
20
70
0
VERTEX
8
CUT
10
120
20
70
0
VERTEX
8
CUT
10
120
20
0
0
VERTEX
8
CUT
10
0
20
0
0
VERTEX
8
CUT
10
0
20
70
0
SEQEND
0
ENDSEC
0
EOF
