0
SECTION
2
HEADER
9
$ACADVER
1
AC1009
9
$INSUNITS
70
4
0
ENDSEC
0
SECTION
2
TABLES
0
TABLE
2
LAYER
70
1
0
LAYER
2
CUT
70
0
62
1
6
CONTINUOUS
0
ENDTAB
0
ENDSEC
0
SECTION
2
ENTITIES
0
LINE
8
CUT
10
0
20
67
11
15
21
67
0
LINE
8
CUT
10
16.5
20
67
11
46.5
21
67
0
LINE
8
CUT
10
48
20
67
11
78
21
67
0
LINE
8
CUT
10
79.5
20
67
11
109.5
21
67
0
LINE
8
CUT
10
111
20
67
11
120
21
67
0
LINE
8
CUT
10
0.75
20
63
11
30.75
21
63
0
LINE
8
CUT
10
32.25
20
63
11
62.25
21
63
0
LINE
8
CUT
10
63.75
20
63
11
93.75
21
63
0
LINE
8
CUT
10
95.25
20
63
11
120
21
63
0
LINE
8
CUT
10
0
20
59
11
15
21
59
0
LINE
8
CUT
10
16.5
20
59
11
46.5
21
59
0
LINE
8
CUT
10
48
20
59
11
78
21
59
0
LINE
8
CUT
10
79.5
20
59
11
109.5
21
59
0
LINE
8
CUT
10
111
20
59
11
120
21
59
0
LINE
8
CUT
10
0.75
20
55
11
30.75
21
55
0
LINE
8
CUT
10
32.25
20
55
11
62.25
21
55
0
LINE
8
CUT
10
63.75
20
55
11
93.75
21
55
0
LINE
8
CUT
10
95.25
20
55
11
120
21
55
0
LINE
8
CUT
10
0
20
51
11
15
21
51
0
LINE
8
CUT
10
16.5
20
51
11
46.5
21
51
0
LINE
8
CUT
10
48
20
51
11
78
21
51
0
LINE
8
CUT
10
79.5
20
51
11
109.5
21
51
0
LINE
8
CUT
10
111
20
51
11
120
21
51
0
LINE
8
CUT
10
0.75
20
47
11
30.75
21
47
0
LINE
8
CUT
10
32.25
20
47
11
62.25
21
47
0
LINE
8
CUT
10
63.75
20
47
11
93.75
21
47
0
LINE
8
CUT
10
95.25
20
47
11
120
21
47
0
LINE
8
CUT
10
0
20
43
11
15
21
43
0
LINE
8
CUT
10
16.5
20
43
11
46.5
21
43
0
LINE
8
CUT
10
48
20
43
11
78
21
43
0
LINE
8
CUT
10
79.5
20
43
11
109.5
21
43
0
LINE
8
CUT
10
111
20
43
11
120
21
43
0
LINE
8
CUT
10
0.75
20
39
11
30.75
21
39
0
LINE
8
CUT
10
32.25
20
39
11
62.25
21
39
0
LINE
8
CUT
10
63.75
20
39
11
93.75
21
39
0
LINE
8
CUT
10
95.25
20
39
11
120
21
39
0
LINE
8
CUT
10
0
20
35
11
15
21
35
0
LINE
8
CUT
10
16.5
20
35
11
46.5
21
35
0
LINE
8
CUT
10
48
20
35
11
78
21
35
0
LINE
8
CUT
10
79.5
20
35
11
109.5
21
35
0
LINE
8
CUT
10
111
20
35
11
120
21
35
0
LINE
8
CUT
10
0.75
20
31
11
30.75
21
31
0
LINE
8
CUT
10
32.25
20
31
11
62.25
21
31
0
LINE
8
CUT
10
63.75
20
31
11
93.75
21
31
0
LINE
8
CUT
10
95.25
20
31
11
120
21
31
0
LINE
8
CUT
10
0
20
27
11
15
21
27
0
LINE
8
CUT
10
16.5
20
27
11
46.5
21
27
0
LINE
8
CUT
10
48
20
27
11
78
21
27
0
LINE
8
CUT
10
79.5
20
27
11
109.5
21
27
0
LINE
8
CUT
10
111
20
27
11
120
21
27
0
LINE
8
CUT
10
0.75
20
23
11
30.75
21
23
0
LINE
8
CUT
10
32.25
20
23
11
62.25
21
23
0
LINE
8
CUT
10
63.75
20
23
11
93.75
21
23
0
LINE
8
CUT
10
95.25
20
23
11
120
21
23
0
LINE
8
CUT
10
0
20
19
11
15
21
19
0
LINE
8
CUT
10
16.5
20
19
11
46.5
21
19
0
LINE
8
CUT
10
48
20
19
11
78
21
19
0
LINE
8
CUT
10
79.5
20
19
11
109.5
21
19
0
LINE
8
CUT
10
111
20
19
11
120
21
19
0
LINE
8
CUT
10
0.75
20
15
11
30.75
21
15
0
LINE
8
CUT
10
32.25
20
15
11
62.25
21
15
0
LINE
8
CUT
10
63.75
20
15
11
93.75
21
15
0
LINE
8
CUT
10
95.25
20
15
11
120
21
15
0
LINE
8
CUT
10
0
20
11
11
15
21
11
0
LINE
8
CUT
10
16.5
20
11
11
46.5
21
11
0
LINE
8
CUT
10
48
20
11
11
78
21
11
0
LINE
8
CUT
10
79.5
20
11
11
109.5
21
11
0
LINE
8
CUT
10
111
20
11
11
120
21
11
0
LINE
8
CUT
10
0.75
20
7
11
30.75
21
7
0
LINE
8
CUT
10
32.25
20
7
11
62.25
21
7
0
LINE
8
CUT
10
63.75
20
7
11
93.75
21
7
0
LINE
8
CUT
10
95.25
20
7
11
120
21
7
0
LINE
8
CUT
10
0
20
3
11
15
21
3
0
LINE
8
CUT
10
16.5
20
3
11
46.5
21
3
0
LINE
8
CUT
10
48
20
3
11
78
21
3
0
LINE
8
CUT
10
79.5
20
3
11
109.5
21
3
0
LINE
8
CUT
10
111
20
3
11
120
21
3
0
POLYLINE
8
CUT
66
1
70
0
0
VERTEX
8
CUT
10
0
20
70
0
VERTEX
8
CUT
10
120
20
70
0
VERTEX
8
CUT
10
120
20
0
0
VERTEX
8
CUT
10
0
20
0
0
VERTEX
8
CUT
10
0
20
70
0
SEQEND
0
ENDSEC
0
EOF
