0
SECTION
2
HEADER
9
$ACADVER
1
AC1009
9
$INSUNITS
70
4
0
ENDSEC
0
SECTION
2
TABLES
0
TABLE
2
LAYER
70
1
0
LAYER
2
CUT
70
0
62
1
6
CONTINUOUS
0
ENDTAB
0
ENDSEC
0
SECTION
2
ENTITIES
0
POLYLINE
8
CUT
66
1
70
0
0
VERTEX
8
CUT
10
6
20
70
0
VERTEX
8
CUT
10
7
20
63
0
VERTEX
8
CUT
10
6
20
56
0
VERTEX
8
CUT
10
5
20
63
0
VERTEX
8
CUT
10
6
20
70
0
SEQEND
0
POLYLINE
8
CUT
66
1
70
0
0
VERTEX
8
CUT
10
6
20
53
0
VERTEX
8
CUT
10
7
20
46
0
VERTEX
8
CUT
10
6
20
39
0
VERTEX
8
CUT
10
5
20
46
0
VERTEX
8
CUT
10
6
20
53
0
SEQEND
0
POLYLINE
8
CUT
66
1
70
0
0
VERTEX
8
CUT
10
6
20
36
0
VERTEX
8
CUT
10
7
20
29
0
VERTEX
8
CUT
10
6
20
22
0
VERTEX
8
CUT
10
5
20
29
0
VERTEX
8
CUT
10
6
20
36
0
SEQEND
0
POLYLINE
8
CUT
66
1
70
0
0
VERTEX
8
CUT
10
6
20
19
0
VERTEX
8
CUT
10
7
20
12
0
VERTEX
8
CUT
10
6
20
5
0
VERTEX
8
CUT
10
5
20
12
0
VERTEX
8
CUT
10
6
20
19
0
SEQEND
0
LINE
8
CUT
10
6
20
2
11
6.2857
21
0
0
LINE
8
CUT
10
5.7143
20
0
11
6
21
2
0
POLYLINE
8
CUT
66
1
70
0
0
VERTEX
8
CUT
10
15.7857
20
70
0
VERTEX
8
CUT
10
15
20
64.5
0
VERTEX
8
CUT
10
14.2143
20
70
0
SEQEND
0
POLYLINE
8
CUT
66
1
70
0
0
VERTEX
8
CUT
10
15
20
61.5
0
VERTEX
8
CUT
10
16
20
54.5
0
VERTEX
8
CUT
10
15
20
47.5
0
VERTEX
8
CUT
10
14
20
54.5
0
VERTEX
8
CUT
10
15
20
61.5
0
SEQEND
0
POLYLINE
8
CUT
66
1
70
0
0
VERTEX
8
CUT
10
15
20
44.5
0
VERTEX
8
CUT
10
16
20
37.5
0
VERTEX
8
CUT
10
15
20
30.5
0
VERTEX
8
CUT
10
14
20
37.5
0
VERTEX
8
CUT
10
15
20
44.5
0
SEQEND
0
POLYLINE
8
CUT
66
1
70
0
0
VERTEX
8
CUT
10
15
20
27.5
0
VERTEX
8
CUT
10
16
20
20.5
0
VERTEX
8
CUT
10
15
20
13.5
0
VERTEX
8
CUT
10
14
20
20.5
0
VERTEX
8
CUT
10
15
20
27.5
0
SEQEND
0
POLYLINE
8
CUT
66
1
70
0
0
VERTEX
8
CUT
10
15
20
10.5
0
VERTEX
8
CUT
10
16
20
3.5
0
VERTEX
8
CUT
10
15.5
20
0
0
SEQEND
0
POLYLINE
8
CUT
66
1
70
0
0
VERTEX
8
CUT
10
14.5
20
0
0
VERTEX
8
CUT
10
14
20
3.5
0
VERTEX
8
CUT
10
15
20
10.5
0
SEQEND
0
POLYLINE
8
CUT
66
1
70
0
0
VERTEX
8
CUT
10
24
20
70
0
VERTEX
8
CUT
10
25
20
63
0
VERTEX
8
CUT
10
24
20
56
0
VERTEX
8
CUT
10
23
20
63
0
VERTEX
8
CUT
10
24
20
70
0
SEQEND
0
POLYLINE
8
CUT
66
1
70
0
0
VERTEX
8
CUT
10
24
20
53
0
VERTEX
8
CUT
10
25
20
46
0
VERTEX
8
CUT
10
24
20
39
0
VERTEX
8
CUT
10
23
20
46
0
VERTEX
8
CUT
10
24
20
53
0
SEQEND
0
POLYLINE
8
CUT
66
1
70
0
0
VERTEX
8
CUT
10
24
20
36
0
VERTEX
8
CUT
10
25
20
29
0
VERTEX
8
CUT
10
24
20
22
0
VERTEX
8
CUT
10
23
20
29
0
VERTEX
8
CUT
10
24
20
36
0
SEQEND
0
POLYLINE
8
CUT
66
1
70
0
0
VERTEX
8
CUT
10
24
20
19
0
VERTEX
8
CUT
10
25
20
12
0
VERTEX
8
CUT
10
24
20
5
0
VERTEX
8
CUT
10
23
20
12
0
VERTEX
8
CUT
10
24
20
19
0
SEQEND
0
LINE
8
CUT
10
24
20
2
11
24.2857
21
0
0
LINE
8
CUT
10
23.7143
20
0
11
24
21
2
0
POLYLINE
8
CUT
66
1
70
0
0
VERTEX
8
CUT
10
33.7857
20
70
0
VERTEX
8
CUT
10
33
20
64.5
0
VERTEX
8
CUT
10
32.2143
20
70
0
SEQEND
0
POLYLINE
8
CUT
66
1
70
0
0
VERTEX
8
CUT
10
33
20
61.5
0
VERTEX
8
CUT
10
34
20
54.5
0
VERTEX
8
CUT
10
33
20
47.5
0
VERTEX
8
CUT
10
32
20
54.5
0
VERTEX
8
CUT
10
33
20
61.5
0
SEQEND
0
POLYLINE
8
CUT
66
1
70
0
0
VERTEX
8
CUT
10
33
20
44.5
0
VERTEX
8
CUT
10
34
20
37.5
0
VERTEX
8
CUT
10
33
20
30.5
0
VERTEX
8
CUT
10
32
20
37.5
0
VERTEX
8
CUT
10
33
20
44.5
0
SEQEND
0
POLYLINE
8
CUT
66
1
70
0
0
VERTEX
8
CUT
10
33
20
27.5
0
VERTEX
8
CUT
10
34
20
20.5
0
VERTEX
8
CUT
10
33
20
13.5
0
VERTEX
8
CUT
10
32
20
20.5
0
VERTEX
8
CUT
10
33
20
27.5
0
SEQEND
0
POLYLINE
8
CUT
66
1
70
0
0
VERTEX
8
CUT
10
33
20
10.5
0
VERTEX
8
CUT
10
34
20
3.5
0
VERTEX
8
CUT
10
33.5
20
0
0
SEQEND
0
POLYLINE
8
CUT
66
1
70
0
0
VERTEX
8
CUT
10
32.5
20
0
0
VERTEX
8
CUT
10
32
20
3.5
0
VERTEX
8
CUT
10
33
20
10.5
0
SEQEND
0
POLYLINE
8
CUT
66
1
70
0
0
VERTEX
8
CUT
10
42
20
70
0
VERTEX
8
CUT
10
43
20
63
0
VERTEX
8
CUT
10
42
20
56
0
VERTEX
8
CUT
10
41
20
63
0
VERTEX
8
CUT
10
42
20
70
0
SEQEND
0
POLYLINE
8
CUT
66
1
70
0
0
VERTEX
8
CUT
10
42
20
53
0
VERTEX
8
CUT
10
43
20
46
0
VERTEX
8
CUT
10
42
20
39
0
VERTEX
8
CUT
10
41
20
46
0
VERTEX
8
CUT
10
42
20
53
0
SEQEND
0
POLYLINE
8
CUT
66
1
70
0
0
VERTEX
8
CUT
10
42
20
36
0
VERTEX
8
CUT
10
43
20
29
0
VERTEX
8
CUT
10
42
20
22
0
VERTEX
8
CUT
10
41
20
29
0
VERTEX
8
CUT
10
42
20
36
0
SEQEND
0
POLYLINE
8
CUT
66
1
70
0
0
VERTEX
8
CUT
10
42
20
19
0
VERTEX
8
CUT
10
43
20
12
0
VERTEX
8
CUT
10
42
20
5
0
VERTEX
8
CUT
10
41
20
12
0
VERTEX
8
CUT
10
42
20
19
0
SEQEND
0
LINE
8
CUT
10
42
20
2
11
42.2857
21
0
0
LINE
8
CUT
10
41.7143
20
0
11
42
21
2
0
POLYLINE
8
CUT
66
1
70
0
0
VERTEX
8
CUT
10
51.7857
20
70
0
VERTEX
8
CUT
10
51
20
64.5
0
VERTEX
8
CUT
10
50.2143
20
70
0
SEQEND
0
POLYLINE
8
CUT
66
1
70
0
0
VERTEX
8
CUT
10
51
20
61.5
0
VERTEX
8
CUT
10
52
20
54.5
0
VERTEX
8
CUT
10
51
20
47.5
0
VERTEX
8
CUT
10
50
20
54.5
0
VERTEX
8
CUT
10
51
20
61.5
0
SEQEND
0
POLYLINE
8
CUT
66
1
70
0
0
VERTEX
8
CUT
10
51
20
44.5
0
VERTEX
8
CUT
10
52
20
37.5
0
VERTEX
8
CUT
10
51
20
30.5
0
VERTEX
8
CUT
10
50
20
37.5
0
VERTEX
8
CUT
10
51
20
44.5
0
SEQEND
0
POLYLINE
8
CUT
66
1
70
0
0
VERTEX
8
CUT
10
51
20
27.5
0
VERTEX
8
CUT
10
52
20
20.5
0
VERTEX
8
CUT
10
51
20
13.5
0
VERTEX
8
CUT
10
50
20
20.5
0
VERTEX
8
CUT
10
51
20
27.5
0
SEQEND
0
POLYLINE
8
CUT
66
1
70
0
0
VERTEX
8
CUT
10
51
20
10.5
0
VERTEX
8
CUT
10
52
20
3.5
0
VERTEX
8
CUT
10
51.5
20
0
0
SEQEND
0
POLYLINE
8
CUT
66
1
70
0
0
VERTEX
8
CUT
10
50.5
20
0
0
VERTEX
8
CUT
10
50
20
3.5
0
VERTEX
8
CUT
10
51
20
10.5
0
SEQEND
0
POLYLINE
8
CUT
66
1
70
0
0
VERTEX
8
CUT
10
60
20
70
0
VERTEX
8
CUT
10
61
20
63
0
VERTEX
8
CUT
10
60
20
56
0
VERTEX
8
CUT
10
59
20
63
0
VERTEX
8
CUT
10
60
20
70
0
SEQEND
0
POLYLINE
8
CUT
66
1
70
0
0
VERTEX
8
CUT
10
60
20
53
0
VERTEX
8
CUT
10
61
20
46
0
VERTEX
8
CUT
10
60
20
39
0
VERTEX
8
CUT
10
59
20
46
0
VERTEX
8
CUT
10
60
20
53
0
SEQEND
0
POLYLINE
8
CUT
66
1
70
0
0
VERTEX
8
CUT
10
60
20
36
0
VERTEX
8
CUT
10
61
20
29
0
VERTEX
8
CUT
10
60
20
22
0
VERTEX
8
CUT
10
59
20
29
0
VERTEX
8
CUT
10
60
20
36
0
SEQEND
0
POLYLINE
8
CUT
66
1
70
0
0
VERTEX
8
CUT
10
60
20
19
0
VERTEX
8
CUT
10
61
20
12
0
VERTEX
8
CUT
10
60
20
5
0
VERTEX
8
CUT
10
59
20
12
0
VERTEX
8
CUT
10
60
20
19
0
SEQEND
0
LINE
8
CUT
10
60
20
2
11
60.2857
21
0
0
LINE
8
CUT
10
59.7143
20
0
11
60
21
2
0
POLYLINE
8
CUT
66
1
70
0
0
VERTEX
8
CUT
10
69.7857
20
70
0
VERTEX
8
CUT
10
69
20
64.5
0
VERTEX
8
CUT
10
68.2143
20
70
0
SEQEND
0
POLYLINE
8
CUT
66
1
70
0
0
VERTEX
8
CUT
10
69
20
61.5
0
VERTEX
8
CUT
10
70
20
54.5
0
VERTEX
8
CUT
10
69
20
47.5
0
VERTEX
8
CUT
10
68
20
54.5
0
VERTEX
8
CUT
10
69
20
61.5
0
SEQEND
0
POLYLINE
8
CUT
66
1
70
0
0
VERTEX
8
CUT
10
69
20
44.5
0
VERTEX
8
CUT
10
70
20
37.5
0
VERTEX
8
CUT
10
69
20
30.5
0
VERTEX
8
CUT
10
68
20
37.5
0
VERTEX
8
CUT
10
69
20
44.5
0
SEQEND
0
POLYLINE
8
CUT
66
1
70
0
0
VERTEX
8
CUT
10
69
20
27.5
0
VERTEX
8
CUT
10
70
20
20.5
0
VERTEX
8
CUT
10
69
20
13.5
0
VERTEX
8
CUT
10
68
20
20.5
0
VERTEX
8
CUT
10
69
20
27.5
0
SEQEND
0
POLYLINE
8
CUT
66
1
70
0
0
VERTEX
8
CUT
10
69
20
10.5
0
VERTEX
8
CUT
10
70
20
3.5
0
VERTEX
8
CUT
10
69.5
20
0
0
SEQEND
0
POLYLINE
8
CUT
66
1
70
0
0
VERTEX
8
CUT
10
68.5
20
0
0
VERTEX
8
CUT
10
68
20
3.5
0
VERTEX
8
CUT
10
69
20
10.5
0
SEQEND
0
POLYLINE
8
CUT
66
1
70
0
0
VERTEX
8
CUT
10
78
20
70
0
VERTEX
8
CUT
10
79
20
63
0
VERTEX
8
CUT
10
78
20
56
0
VERTEX
8
CUT
10
77
20
63
0
VERTEX
8
CUT
10
78
20
70
0
SEQEND
0
POLYLINE
8
CUT
66
1
70
0
0
VERTEX
8
CUT
10
78
20
53
0
VERTEX
8
CUT
10
79
20
46
0
VERTEX
8
CUT
10
78
20
39
0
VERTEX
8
CUT
10
77
20
46
0
VERTEX
8
CUT
10
78
20
53
0
SEQEND
0
POLYLINE
8
CUT
66
1
70
0
0
VERTEX
8
CUT
10
78
20
36
0
VERTEX
8
CUT
10
79
20
29
0
VERTEX
8
CUT
10
78
20
22
0
VERTEX
8
CUT
10
77
20
29
0
VERTEX
8
CUT
10
78
20
36
0
SEQEND
0
POLYLINE
8
CUT
66
1
70
0
0
VERTEX
8
CUT
10
78
20
19
0
VERTEX
8
CUT
10
79
20
12
0
VERTEX
8
CUT
10
78
20
5
0
VERTEX
8
CUT
10
77
20
12
0
VERTEX
8
CUT
10
78
20
19
0
SEQEND
0
LINE
8
CUT
10
78
20
2
11
78.2857
21
0
0
LINE
8
CUT
10
77.7143
20
0
11
78
21
2
0
POLYLINE
8
CUT
66
1
70
0
0
VERTEX
8
CUT
10
87.7857
20
70
0
VERTEX
8
CUT
10
87
20
64.5
0
VERTEX
8
CUT
10
86.2143
20
70
0
SEQEND
0
POLYLINE
8
CUT
66
1
70
0
0
VERTEX
8
CUT
10
87
20
61.5
0
VERTEX
8
CUT
10
88
20
54.5
0
VERTEX
8
CUT
10
87
20
47.5
0
VERTEX
8
CUT
10
86
20
54.5
0
VERTEX
8
CUT
10
87
20
61.5
0
SEQEND
0
POLYLINE
8
CUT
66
1
70
0
0
VERTEX
8
CUT
10
87
20
44.5
0
VERTEX
8
CUT
10
88
20
37.5
0
VERTEX
8
CUT
10
87
20
30.5
0
VERTEX
8
CUT
10
86
20
37.5
0
VERTEX
8
CUT
10
87
20
44.5
0
SEQEND
0
POLYLINE
8
CUT
66
1
70
0
0
VERTEX
8
CUT
10
87
20
27.5
0
VERTEX
8
CUT
10
88
20
20.5
0
VERTEX
8
CUT
10
87
20
13.5
0
VERTEX
8
CUT
10
86
20
20.5
0
VERTEX
8
CUT
10
87
20
27.5
0
SEQEND
0
POLYLINE
8
CUT
66
1
70
0
0
VERTEX
8
CUT
10
87
20
10.5
0
VERTEX
8
CUT
10
88
20
3.5
0
VERTEX
8
CUT
10
87.5
20
0
0
SEQEND
0
POLYLINE
8
CUT
66
1
70
0
0
VERTEX
8
CUT
10
86.5
20
0
0
VERTEX
8
CUT
10
86
20
3.5
0
VERTEX
8
CUT
10
87
20
10.5
0
SEQEND
0
POLYLINE
8
CUT
66
1
70
0
0
VERTEX
8
CUT
10
96
20
70
0
VERTEX
8
CUT
10
97
20
63
0
VERTEX
8
CUT
10
96
20
56
0
VERTEX
8
CUT
10
95
20
63
0
VERTEX
8
CUT
10
96
20
70
0
SEQEND
0
POLYLINE
8
CUT
66
1
70
0
0
VERTEX
8
CUT
10
96
20
53
0
VERTEX
8
CUT
10
97
20
46
0
VERTEX
8
CUT
10
96
20
39
0
VERTEX
8
CUT
10
95
20
46
0
VERTEX
8
CUT
10
96
20
53
0
SEQEND
0
POLYLINE
8
CUT
66
1
70
0
0
VERTEX
8
CUT
10
96
20
36
0
VERTEX
8
CUT
10
97
20
29
0
VERTEX
8
CUT
10
96
20
22
0
VERTEX
8
CUT
10
95
20
29
0
VERTEX
8
CUT
10
96
20
36
0
SEQEND
0
POLYLINE
8
CUT
66
1
70
0
0
VERTEX
8
CUT
10
96
20
19
0
VERTEX
8
CUT
10
97
20
12
0
VERTEX
8
CUT
10
96
20
5
0
VERTEX
8
CUT
10
95
20
12
0
VERTEX
8
CUT
10
96
20
19
0
SEQEND
0
LINE
8
CUT
10
96
20
2
11
96.2857
21
0
0
LINE
8
CUT
10
95.7143
20
0
11
96
21
2
0
POLYLINE
8
CUT
66
1
70
0
0
VERTEX
8
CUT
10
105.7857
20
70
0
VERTEX
8
CUT
10
105
20
64.5
0
VERTEX
8
CUT
10
104.2143
20
70
0
SEQEND
0
POLYLINE
8
CUT
66
1
70
0
0
VERTEX
8
CUT
10
105
20
61.5
0
VERTEX
8
CUT
10
106
20
54.5
0
VERTEX
8
CUT
10
105
20
47.5
0
VERTEX
8
CUT
10
104
20
54.5
0
VERTEX
8
CUT
10
105
20
61.5
0
SEQEND
0
POLYLINE
8
CUT
66
1
70
0
0
VERTEX
8
CUT
10
105
20
44.5
0
VERTEX
8
CUT
10
106
20
37.5
0
VERTEX
8
CUT
10
105
20
30.5
0
VERTEX
8
CUT
10
104
20
37.5
0
VERTEX
8
CUT
10
105
20
44.5
0
SEQEND
0
POLYLINE
8
CUT
66
1
70
0
0
VERTEX
8
CUT
10
105
20
27.5
0
VERTEX
8
CUT
10
106
20
20.5
0
VERTEX
8
CUT
10
105
20
13.5
0
VERTEX
8
CUT
10
104
20
20.5
0
VERTEX
8
CUT
10
105
20
27.5
0
SEQEND
0
POLYLINE
8
CUT
66
1
70
0
0
VERTEX
8
CUT
10
105
20
10.5
0
VERTEX
8
CUT
10
106
20
3.5
0
VERTEX
8
CUT
10
105.5
20
0
0
SEQEND
0
POLYLINE
8
CUT
66
1
70
0
0
VERTEX
8
CUT
10
104.5
20
0
0
VERTEX
8
CUT
10
104
20
3.5
0
VERTEX
8
CUT
10
105
20
10.5
0
SEQEND
0
POLYLINE
8
CUT
66
1
70
0
0
VERTEX
8
CUT
10
114
20
70
0
VERTEX
8
CUT
10
115
20
63
0
VERTEX
8
CUT
10
114
20
56
0
VERTEX
8
CUT
10
113
20
63
0
VERTEX
8
CUT
10
114
20
70
0
SEQEND
0
POLYLINE
8
CUT
66
1
70
0
0
VERTEX
8
CUT
10
114
20
53
0
VERTEX
8
CUT
10
115
20
46
0
VERTEX
8
CUT
10
114
20
39
0
VERTEX
8
CUT
10
113
20
46
0
VERTEX
8
CUT
10
114
20
53
0
SEQEND
0
POLYLINE
8
CUT
66
1
70
0
0
VERTEX
8
CUT
10
114
20
36
0
VERTEX
8
CUT
10
115
20
29
0
VERTEX
8
CUT
10
114
20
22
0
VERTEX
8
CUT
10
113
20
29
0
VERTEX
8
CUT
10
114
20
36
0
SEQEND
0
POLYLINE
8
CUT
66
1
70
0
0
VERTEX
8
CUT
10
114
20
19
0
VERTEX
8
CUT
10
115
20
12
0
VERTEX
8
CUT
10
114
20
5
0
VERTEX
8
CUT
10
113
20
12
0
VERTEX
8
CUT
10
114
20
19
0
SEQEND
0
LINE
8
CUT
10
114
20
2
11
114.2857
21
0
0
LINE
8
CUT
10
113.7143
20
0
11
114
21
2
0
POLYLINE
8
CUT
66
1
70
0
0
VERTEX
8
CUT
10
0
20
70
0
VERTEX
8
CUT
10
120
20
70
0
VERTEX
8
CUT
10
120
20
0
0
VERTEX
8
CUT
10
0
20
0
0
VERTEX
8
CUT
10
0
20
70
0
SEQEND
0
ENDSEC
0
EOF
