0
SECTION
2
HEADER
9
$ACADVER
1
AC1009
9
$INSUNITS
70
4
0
ENDSEC
0
SECTION
2
TABLES
0
TABLE
2
LAYER
70
1
0
LAYER
2
CUT
70
0
62
1
6
CONTINUOUS
0
ENDTAB
0
ENDSEC
0
SECTION
2
ENTITIES
0
POLYLINE
8
CUT
66
1
70
0
0
VERTEX
8
CUT
10
0
20
58.6756
0
VERTEX
8
CUT
10
5.6144
20
58.6756
0
VERTEX
8
CUT
10
0
20
68.4
0
VERTEX
8
CUT
10
0
20
68.4
0
SEQEND
0
POLYLINE
8
CUT
66
1
70
0
0
VERTEX
8
CUT
10
3.8537
20
60.1252
0
VERTEX
8
CUT
10
0
20
66.8
0
VERTEX
8
CUT
10
0
20
66.8
0
SEQEND
0
LINE
8
CUT
10
0
20
59.4756
11
3.4787
21
59.4756
0
POLYLINE
8
CUT
66
1
70
0
0
VERTEX
8
CUT
10
0
20
60.2756
0
VERTEX
8
CUT
10
2.8431
20
60.2756
0
VERTEX
8
CUT
10
0.375
20
64.5505
0
SEQEND
0
POLYLINE
8
CUT
66
1
70
0
0
VERTEX
8
CUT
10
0
20
61.0756
0
VERTEX
8
CUT
10
1.4574
20
61.0756
0
VERTEX
8
CUT
10
0
20
63.6
0
VERTEX
8
CUT
10
0
20
63.6
0
SEQEND
0
LINE
8
CUT
10
0.75
20
70
11
13.25
21
70
0
LINE
8
CUT
10
0.375
20
69.3505
11
6.625
21
58.5252
0
LINE
8
CUT
10
13.625
20
69.3505
11
7.375
21
58.5252
0
POLYLINE
8
CUT
66
1
70
0
0
VERTEX
8
CUT
10
2.1356
20
69.2
0
VERTEX
8
CUT
10
12.6144
20
69.2
0
VERTEX
8
CUT
10
7
20
59.4756
0
VERTEX
8
CUT
10
1.7606
20
68.5505
0
SEQEND
0
POLYLINE
8
CUT
66
1
70
0
0
VERTEX
8
CUT
10
10.8537
20
67.7505
0
VERTEX
8
CUT
10
7
20
61.0756
0
VERTEX
8
CUT
10
2.7713
20
68.4
0
VERTEX
8
CUT
10
10.4787
20
68.4
0
SEQEND
0
POLYLINE
8
CUT
66
1
70
0
0
VERTEX
8
CUT
10
6.625
20
63.3252
0
VERTEX
8
CUT
10
4.1569
20
67.6
0
VERTEX
8
CUT
10
9.8431
20
67.6
0
VERTEX
8
CUT
10
7.375
20
63.3252
0
SEQEND
0
POLYLINE
8
CUT
66
1
70
0
0
VERTEX
8
CUT
10
6.2926
20
66.8
0
VERTEX
8
CUT
10
8.4574
20
66.8
0
VERTEX
8
CUT
10
7
20
64.2756
0
VERTEX
8
CUT
10
5.9176
20
66.1505
0
SEQEND
0
POLYLINE
8
CUT
66
1
70
0
0
VERTEX
8
CUT
10
9.1356
20
58.6756
0
VERTEX
8
CUT
10
19.6144
20
58.6756
0
VERTEX
8
CUT
10
14
20
68.4
0
VERTEX
8
CUT
10
8.7606
20
59.3252
0
SEQEND
0
POLYLINE
8
CUT
66
1
70
0
0
VERTEX
8
CUT
10
17.8537
20
60.1252
0
VERTEX
8
CUT
10
14
20
66.8
0
VERTEX
8
CUT
10
9.7713
20
59.4756
0
VERTEX
8
CUT
10
17.4787
20
59.4756
0
SEQEND
0
POLYLINE
8
CUT
66
1
70
0
0
VERTEX
8
CUT
10
13.625
20
64.5505
0
VERTEX
8
CUT
10
11.1569
20
60.2756
0
VERTEX
8
CUT
10
16.8431
20
60.2756
0
VERTEX
8
CUT
10
14.375
20
64.5505
0
SEQEND
0
POLYLINE
8
CUT
66
1
70
0
0
VERTEX
8
CUT
10
13.2926
20
61.0756
0
VERTEX
8
CUT
10
15.4574
20
61.0756
0
VERTEX
8
CUT
10
14
20
63.6
0
VERTEX
8
CUT
10
12.9176
20
61.7252
0
SEQEND
0
LINE
8
CUT
10
14.75
20
70
11
27.25
21
70
0
LINE
8
CUT
10
14.375
20
69.3505
11
20.625
21
58.5252
0
LINE
8
CUT
10
27.625
20
69.3505
11
21.375
21
58.5252
0
POLYLINE
8
CUT
66
1
70
0
0
VERTEX
8
CUT
10
16.1356
20
69.2
0
VERTEX
8
CUT
10
26.6144
20
69.2
0
VERTEX
8
CUT
10
21
20
59.4756
0
VERTEX
8
CUT
10
15.7606
20
68.5505
0
SEQEND
0
POLYLINE
8
CUT
66
1
70
0
0
VERTEX
8
CUT
10
24.8537
20
67.7505
0
VERTEX
8
CUT
10
21
20
61.0756
0
VERTEX
8
CUT
10
16.7713
20
68.4
0
VERTEX
8
CUT
10
24.4787
20
68.4
0
SEQEND
0
POLYLINE
8
CUT
66
1
70
0
0
VERTEX
8
CUT
10
20.625
20
63.3252
0
VERTEX
8
CUT
10
18.1569
20
67.6
0
VERTEX
8
CUT
10
23.8431
20
67.6
0
VERTEX
8
CUT
10
21.375
20
63.3252
0
SEQEND
0
POLYLINE
8
CUT
66
1
70
0
0
VERTEX
8
CUT
10
20.2926
20
66.8
0
VERTEX
8
CUT
10
22.4574
20
66.8
0
VERTEX
8
CUT
10
21
20
64.2756
0
VERTEX
8
CUT
10
19.9176
20
66.1505
0
SEQEND
0
POLYLINE
8
CUT
66
1
70
0
0
VERTEX
8
CUT
10
23.1356
20
58.6756
0
VERTEX
8
CUT
10
33.6144
20
58.6756
0
VERTEX
8
CUT
10
28
20
68.4
0
VERTEX
8
CUT
10
22.7606
20
59.3252
0
SEQEND
0
POLYLINE
8
CUT
66
1
70
0
0
VERTEX
8
CUT
10
31.8537
20
60.1252
0
VERTEX
8
CUT
10
28
20
66.8
0
VERTEX
8
CUT
10
23.7713
20
59.4756
0
VERTEX
8
CUT
10
31.4787
20
59.4756
0
SEQEND
0
POLYLINE
8
CUT
66
1
70
0
0
VERTEX
8
CUT
10
27.625
20
64.5505
0
VERTEX
8
CUT
10
25.1569
20
60.2756
0
VERTEX
8
CUT
10
30.8431
20
60.2756
0
VERTEX
8
CUT
10
28.375
20
64.5505
0
SEQEND
0
POLYLINE
8
CUT
66
1
70
0
0
VERTEX
8
CUT
10
27.2926
20
61.0756
0
VERTEX
8
CUT
10
29.4574
20
61.0756
0
VERTEX
8
CUT
10
28
20
63.6
0
VERTEX
8
CUT
10
26.9176
20
61.7252
0
SEQEND
0
LINE
8
CUT
10
28.75
20
70
11
41.25
21
70
0
LINE
8
CUT
10
28.375
20
69.3505
11
34.625
21
58.5252
0
LINE
8
CUT
10
41.625
20
69.3505
11
35.375
21
58.5252
0
POLYLINE
8
CUT
66
1
70
0
0
VERTEX
8
CUT
10
30.1356
20
69.2
0
VERTEX
8
CUT
10
40.6144
20
69.2
0
VERTEX
8
CUT
10
35
20
59.4756
0
VERTEX
8
CUT
10
29.7606
20
68.5505
0
SEQEND
0
POLYLINE
8
CUT
66
1
70
0
0
VERTEX
8
CUT
10
38.8537
20
67.7505
0
VERTEX
8
CUT
10
35
20
61.0756
0
VERTEX
8
CUT
10
30.7713
20
68.4
0
VERTEX
8
CUT
10
38.4787
20
68.4
0
SEQEND
0
POLYLINE
8
CUT
66
1
70
0
0
VERTEX
8
CUT
10
34.625
20
63.3252
0
VERTEX
8
CUT
10
32.1569
20
67.6
0
VERTEX
8
CUT
10
37.8431
20
67.6
0
VERTEX
8
CUT
10
35.375
20
63.3252
0
SEQEND
0
POLYLINE
8
CUT
66
1
70
0
0
VERTEX
8
CUT
10
34.2926
20
66.8
0
VERTEX
8
CUT
10
36.4574
20
66.8
0
VERTEX
8
CUT
10
35
20
64.2756
0
VERTEX
8
CUT
10
33.9176
20
66.1505
0
SEQEND
0
POLYLINE
8
CUT
66
1
70
0
0
VERTEX
8
CUT
10
37.1356
20
58.6756
0
VERTEX
8
CUT
10
47.6144
20
58.6756
0
VERTEX
8
CUT
10
42
20
68.4
0
VERTEX
8
CUT
10
36.7606
20
59.3252
0
SEQEND
0
POLYLINE
8
CUT
66
1
70
0
0
VERTEX
8
CUT
10
45.8537
20
60.1252
0
VERTEX
8
CUT
10
42
20
66.8
0
VERTEX
8
CUT
10
37.7713
20
59.4756
0
VERTEX
8
CUT
10
45.4787
20
59.4756
0
SEQEND
0
POLYLINE
8
CUT
66
1
70
0
0
VERTEX
8
CUT
10
41.625
20
64.5505
0
VERTEX
8
CUT
10
39.1569
20
60.2756
0
VERTEX
8
CUT
10
44.8431
20
60.2756
0
VERTEX
8
CUT
10
42.375
20
64.5505
0
SEQEND
0
POLYLINE
8
CUT
66
1
70
0
0
VERTEX
8
CUT
10
41.2926
20
61.0756
0
VERTEX
8
CUT
10
43.4574
20
61.0756
0
VERTEX
8
CUT
10
42
20
63.6
0
VERTEX
8
CUT
10
40.9176
20
61.7252
0
SEQEND
0
LINE
8
CUT
10
42.75
20
70
11
55.25
21
70
0
LINE
8
CUT
10
42.375
20
69.3505
11
48.625
21
58.5252
0
LINE
8
CUT
10
55.625
20
69.3505
11
49.375
21
58.5252
0
POLYLINE
8
CUT
66
1
70
0
0
VERTEX
8
CUT
10
44.1356
20
69.2
0
VERTEX
8
CUT
10
54.6144
20
69.2
0
VERTEX
8
CUT
10
49
20
59.4756
0
VERTEX
8
CUT
10
43.7606
20
68.5505
0
SEQEND
0
POLYLINE
8
CUT
66
1
70
0
0
VERTEX
8
CUT
10
52.8537
20
67.7505
0
VERTEX
8
CUT
10
49
20
61.0756
0
VERTEX
8
CUT
10
44.7713
20
68.4
0
VERTEX
8
CUT
10
52.4787
20
68.4
0
SEQEND
0
POLYLINE
8
CUT
66
1
70
0
0
VERTEX
8
CUT
10
48.625
20
63.3252
0
VERTEX
8
CUT
10
46.1569
20
67.6
0
VERTEX
8
CUT
10
51.8431
20
67.6
0
VERTEX
8
CUT
10
49.375
20
63.3252
0
SEQEND
0
POLYLINE
8
CUT
66
1
70
0
0
VERTEX
8
CUT
10
48.2926
20
66.8
0
VERTEX
8
CUT
10
50.4574
20
66.8
0
VERTEX
8
CUT
10
49
20
64.2756
0
VERTEX
8
CUT
10
47.9176
20
66.1505
0
SEQEND
0
POLYLINE
8
CUT
66
1
70
0
0
VERTEX
8
CUT
10
51.1356
20
58.6756
0
VERTEX
8
CUT
10
61.6144
20
58.6756
0
VERTEX
8
CUT
10
56
20
68.4
0
VERTEX
8
CUT
10
50.7606
20
59.3252
0
SEQEND
0
POLYLINE
8
CUT
66
1
70
0
0
VERTEX
8
CUT
10
59.8537
20
60.1252
0
VERTEX
8
CUT
10
56
20
66.8
0
VERTEX
8
CUT
10
51.7713
20
59.4756
0
VERTEX
8
CUT
10
59.4787
20
59.4756
0
SEQEND
0
POLYLINE
8
CUT
66
1
70
0
0
VERTEX
8
CUT
10
55.625
20
64.5505
0
VERTEX
8
CUT
10
53.1569
20
60.2756
0
VERTEX
8
CUT
10
58.8431
20
60.2756
0
VERTEX
8
CUT
10
56.375
20
64.5505
0
SEQEND
0
POLYLINE
8
CUT
66
1
70
0
0
VERTEX
8
CUT
10
55.2926
20
61.0756
0
VERTEX
8
CUT
10
57.4574
20
61.0756
0
VERTEX
8
CUT
10
56
20
63.6
0
VERTEX
8
CUT
10
54.9176
20
61.7252
0
SEQEND
0
LINE
8
CUT
10
56.75
20
70
11
69.25
21
70
0
LINE
8
CUT
10
56.375
20
69.3505
11
62.625
21
58.5252
0
LINE
8
CUT
10
69.625
20
69.3505
11
63.375
21
58.5252
0
POLYLINE
8
CUT
66
1
70
0
0
VERTEX
8
CUT
10
58.1356
20
69.2
0
VERTEX
8
CUT
10
68.6144
20
69.2
0
VERTEX
8
CUT
10
63
20
59.4756
0
VERTEX
8
CUT
10
57.7606
20
68.5505
0
SEQEND
0
POLYLINE
8
CUT
66
1
70
0
0
VERTEX
8
CUT
10
66.8537
20
67.7505
0
VERTEX
8
CUT
10
63
20
61.0756
0
VERTEX
8
CUT
10
58.7713
20
68.4
0
VERTEX
8
CUT
10
66.4787
20
68.4
0
SEQEND
0
POLYLINE
8
CUT
66
1
70
0
0
VERTEX
8
CUT
10
62.625
20
63.3252
0
VERTEX
8
CUT
10
60.1569
20
67.6
0
VERTEX
8
CUT
10
65.8431
20
67.6
0
VERTEX
8
CUT
10
63.375
20
63.3252
0
SEQEND
0
POLYLINE
8
CUT
66
1
70
0
0
VERTEX
8
CUT
10
62.2926
20
66.8
0
VERTEX
8
CUT
10
64.4574
20
66.8
0
VERTEX
8
CUT
10
63
20
64.2756
0
VERTEX
8
CUT
10
61.9176
20
66.1505
0
SEQEND
0
POLYLINE
8
CUT
66
1
70
0
0
VERTEX
8
CUT
10
65.1356
20
58.6756
0
VERTEX
8
CUT
10
75.6144
20
58.6756
0
VERTEX
8
CUT
10
70
20
68.4
0
VERTEX
8
CUT
10
64.7606
20
59.3252
0
SEQEND
0
POLYLINE
8
CUT
66
1
70
0
0
VERTEX
8
CUT
10
73.8537
20
60.1252
0
VERTEX
8
CUT
10
70
20
66.8
0
VERTEX
8
CUT
10
65.7713
20
59.4756
0
VERTEX
8
CUT
10
73.4787
20
59.4756
0
SEQEND
0
POLYLINE
8
CUT
66
1
70
0
0
VERTEX
8
CUT
10
69.625
20
64.5505
0
VERTEX
8
CUT
10
67.1569
20
60.2756
0
VERTEX
8
CUT
10
72.8431
20
60.2756
0
VERTEX
8
CUT
10
70.375
20
64.5505
0
SEQEND
0
POLYLINE
8
CUT
66
1
70
0
0
VERTEX
8
CUT
10
69.2926
20
61.0756
0
VERTEX
8
CUT
10
71.4574
20
61.0756
0
VERTEX
8
CUT
10
70
20
63.6
0
VERTEX
8
CUT
10
68.9176
20
61.7252
0
SEQEND
0
LINE
8
CUT
10
70.75
20
70
11
83.25
21
70
0
LINE
8
CUT
10
70.375
20
69.3505
11
76.625
21
58.5252
0
LINE
8
CUT
10
83.625
20
69.3505
11
77.375
21
58.5252
0
POLYLINE
8
CUT
66
1
70
0
0
VERTEX
8
CUT
10
72.1356
20
69.2
0
VERTEX
8
CUT
10
82.6144
20
69.2
0
VERTEX
8
CUT
10
77
20
59.4756
0
VERTEX
8
CUT
10
71.7606
20
68.5505
0
SEQEND
0
POLYLINE
8
CUT
66
1
70
0
0
VERTEX
8
CUT
10
80.8537
20
67.7505
0
VERTEX
8
CUT
10
77
20
61.0756
0
VERTEX
8
CUT
10
72.7713
20
68.4
0
VERTEX
8
CUT
10
80.4787
20
68.4
0
SEQEND
0
POLYLINE
8
CUT
66
1
70
0
0
VERTEX
8
CUT
10
76.625
20
63.3252
0
VERTEX
8
CUT
10
74.1569
20
67.6
0
VERTEX
8
CUT
10
79.8431
20
67.6
0
VERTEX
8
CUT
10
77.375
20
63.3252
0
SEQEND
0
POLYLINE
8
CUT
66
1
70
0
0
VERTEX
8
CUT
10
76.2926
20
66.8
0
VERTEX
8
CUT
10
78.4574
20
66.8
0
VERTEX
8
CUT
10
77
20
64.2756
0
VERTEX
8
CUT
10
75.9176
20
66.1505
0
SEQEND
0
POLYLINE
8
CUT
66
1
70
0
0
VERTEX
8
CUT
10
79.1356
20
58.6756
0
VERTEX
8
CUT
10
89.6144
20
58.6756
0
VERTEX
8
CUT
10
84
20
68.4
0
VERTEX
8
CUT
10
78.7606
20
59.3252
0
SEQEND
0
POLYLINE
8
CUT
66
1
70
0
0
VERTEX
8
CUT
10
87.8537
20
60.1252
0
VERTEX
8
CUT
10
84
20
66.8
0
VERTEX
8
CUT
10
79.7713
20
59.4756
0
VERTEX
8
CUT
10
87.4787
20
59.4756
0
SEQEND
0
POLYLINE
8
CUT
66
1
70
0
0
VERTEX
8
CUT
10
83.625
20
64.5505
0
VERTEX
8
CUT
10
81.1569
20
60.2756
0
VERTEX
8
CUT
10
86.8431
20
60.2756
0
VERTEX
8
CUT
10
84.375
20
64.5505
0
SEQEND
0
POLYLINE
8
CUT
66
1
70
0
0
VERTEX
8
CUT
10
83.2926
20
61.0756
0
VERTEX
8
CUT
10
85.4574
20
61.0756
0
VERTEX
8
CUT
10
84
20
63.6
0
VERTEX
8
CUT
10
82.9176
20
61.7252
0
SEQEND
0
LINE
8
CUT
10
84.75
20
70
11
97.25
21
70
0
LINE
8
CUT
10
84.375
20
69.3505
11
90.625
21
58.5252
0
LINE
8
CUT
10
97.625
20
69.3505
11
91.375
21
58.5252
0
POLYLINE
8
CUT
66
1
70
0
0
VERTEX
8
CUT
10
86.1356
20
69.2
0
VERTEX
8
CUT
10
96.6144
20
69.2
0
VERTEX
8
CUT
10
91
20
59.4756
0
VERTEX
8
CUT
10
85.7606
20
68.5505
0
SEQEND
0
POLYLINE
8
CUT
66
1
70
0
0
VERTEX
8
CUT
10
94.8537
20
67.7505
0
VERTEX
8
CUT
10
91
20
61.0756
0
VERTEX
8
CUT
10
86.7713
20
68.4
0
VERTEX
8
CUT
10
94.4787
20
68.4
0
SEQEND
0
POLYLINE
8
CUT
66
1
70
0
0
VERTEX
8
CUT
10
90.625
20
63.3252
0
VERTEX
8
CUT
10
88.1569
20
67.6
0
VERTEX
8
CUT
10
93.8431
20
67.6
0
VERTEX
8
CUT
10
91.375
20
63.3252
0
SEQEND
0
POLYLINE
8
CUT
66
1
70
0
0
VERTEX
8
CUT
10
90.2926
20
66.8
0
VERTEX
8
CUT
10
92.4574
20
66.8
0
VERTEX
8
CUT
10
91
20
64.2756
0
VERTEX
8
CUT
10
89.9176
20
66.1505
0
SEQEND
0
POLYLINE
8
CUT
66
1
70
0
0
VERTEX
8
CUT
10
93.1356
20
58.6756
0
VERTEX
8
CUT
10
103.6144
20
58.6756
0
VERTEX
8
CUT
10
98
20
68.4
0
VERTEX
8
CUT
10
92.7606
20
59.3252
0
SEQEND
0
POLYLINE
8
CUT
66
1
70
0
0
VERTEX
8
CUT
10
101.8537
20
60.1252
0
VERTEX
8
CUT
10
98
20
66.8
0
VERTEX
8
CUT
10
93.7713
20
59.4756
0
VERTEX
8
CUT
10
101.4787
20
59.4756
0
SEQEND
0
POLYLINE
8
CUT
66
1
70
0
0
VERTEX
8
CUT
10
97.625
20
64.5505
0
VERTEX
8
CUT
10
95.1569
20
60.2756
0
VERTEX
8
CUT
10
100.8431
20
60.2756
0
VERTEX
8
CUT
10
98.375
20
64.5505
0
SEQEND
0
POLYLINE
8
CUT
66
1
70
0
0
VERTEX
8
CUT
10
97.2926
20
61.0756
0
VERTEX
8
CUT
10
99.4574
20
61.0756
0
VERTEX
8
CUT
10
98
20
63.6
0
VERTEX
8
CUT
10
96.9176
20
61.7252
0
SEQEND
0
LINE
8
CUT
10
98.75
20
70
11
111.25
21
70
0
LINE
8
CUT
10
98.375
20
69.3505
11
104.625
21
58.5252
0
LINE
8
CUT
10
111.625
20
69.3505
11
105.375
21
58.5252
0
POLYLINE
8
CUT
66
1
70
0
0
VERTEX
8
CUT
10
100.1356
20
69.2
0
VERTEX
8
CUT
10
110.6144
20
69.2
0
VERTEX
8
CUT
10
105
20
59.4756
0
VERTEX
8
CUT
10
99.7606
20
68.5505
0
SEQEND
0
POLYLINE
8
CUT
66
1
70
0
0
VERTEX
8
CUT
10
108.8537
20
67.7505
0
VERTEX
8
CUT
10
105
20
61.0756
0
VERTEX
8
CUT
10
100.7713
20
68.4
0
VERTEX
8
CUT
10
108.4787
20
68.4
0
SEQEND
0
POLYLINE
8
CUT
66
1
70
0
0
VERTEX
8
CUT
10
104.625
20
63.3252
0
VERTEX
8
CUT
10
102.1569
20
67.6
0
VERTEX
8
CUT
10
107.8431
20
67.6
0
VERTEX
8
CUT
10
105.375
20
63.3252
0
SEQEND
0
POLYLINE
8
CUT
66
1
70
0
0
VERTEX
8
CUT
10
104.2926
20
66.8
0
VERTEX
8
CUT
10
106.4574
20
66.8
0
VERTEX
8
CUT
10
105
20
64.2756
0
VERTEX
8
CUT
10
103.9176
20
66.1505
0
SEQEND
0
POLYLINE
8
CUT
66
1
70
0
0
VERTEX
8
CUT
10
107.1356
20
58.6756
0
VERTEX
8
CUT
10
117.6144
20
58.6756
0
VERTEX
8
CUT
10
112
20
68.4
0
VERTEX
8
CUT
10
106.7606
20
59.3252
0
SEQEND
0
POLYLINE
8
CUT
66
1
70
0
0
VERTEX
8
CUT
10
115.8537
20
60.1252
0
VERTEX
8
CUT
10
112
20
66.8
0
VERTEX
8
CUT
10
107.7713
20
59.4756
0
VERTEX
8
CUT
10
115.4787
20
59.4756
0
SEQEND
0
POLYLINE
8
CUT
66
1
70
0
0
VERTEX
8
CUT
10
111.625
20
64.5505
0
VERTEX
8
CUT
10
109.1569
20
60.2756
0
VERTEX
8
CUT
10
114.8431
20
60.2756
0
VERTEX
8
CUT
10
112.375
20
64.5505
0
SEQEND
0
POLYLINE
8
CUT
66
1
70
0
0
VERTEX
8
CUT
10
111.2926
20
61.0756
0
VERTEX
8
CUT
10
113.4574
20
61.0756
0
VERTEX
8
CUT
10
112
20
63.6
0
VERTEX
8
CUT
10
110.9176
20
61.7252
0
SEQEND
0
LINE
8
CUT
10
112.75
20
70
11
120
21
70
0
LINE
8
CUT
10
112.375
20
69.3505
11
118.625
21
58.5252
0
LINE
8
CUT
10
120
20
59.6077
11
119.375
21
58.5252
0
LINE
8
CUT
10
114.1356
20
69.2
11
120
21
69.2
0
POLYLINE
8
CUT
66
1
70
0
0
VERTEX
8
CUT
10
120
20
61.2077
0
VERTEX
8
CUT
10
119
20
59.4756
0
VERTEX
8
CUT
10
113.7606
20
68.5505
0
SEQEND
0
POLYLINE
8
CUT
66
1
70
0
0
VERTEX
8
CUT
10
120
20
62.8077
0
VERTEX
8
CUT
10
119
20
61.0756
0
VERTEX
8
CUT
10
114.7713
20
68.4
0
VERTEX
8
CUT
10
120
20
68.4
0
SEQEND
0
POLYLINE
8
CUT
66
1
70
0
0
VERTEX
8
CUT
10
118.625
20
63.3252
0
VERTEX
8
CUT
10
116.1569
20
67.6
0
VERTEX
8
CUT
10
120
20
67.6
0
SEQEND
0
LINE
8
CUT
10
120
20
64.4077
11
119.375
21
63.3252
0
LINE
8
CUT
10
118.2926
20
66.8
11
120
21
66.8
0
POLYLINE
8
CUT
66
1
70
0
0
VERTEX
8
CUT
10
120
20
66.0077
0
VERTEX
8
CUT
10
119
20
64.2756
0
VERTEX
8
CUT
10
117.9176
20
66.1505
0
SEQEND
0
LINE
8
CUT
10
0
20
57.8756
11
6.25
21
57.8756
0
LINE
8
CUT
10
6.625
20
57.2261
11
0.375
21
46.4008
0
POLYLINE
8
CUT
66
1
70
0
0
VERTEX
8
CUT
10
0
20
57.0756
0
VERTEX
8
CUT
10
5.6144
20
57.0756
0
VERTEX
8
CUT
10
0
20
47.3513
0
VERTEX
8
CUT
10
0
20
47.3513
0
SEQEND
0
POLYLINE
8
CUT
66
1
70
0
0
VERTEX
8
CUT
10
3.8537
20
55.6261
0
VERTEX
8
CUT
10
0
20
48.9513
0
VERTEX
8
CUT
10
0
20
48.9513
0
SEQEND
0
LINE
8
CUT
10
0
20
56.2756
11
3.4787
21
56.2756
0
POLYLINE
8
CUT
66
1
70
0
0
VERTEX
8
CUT
10
0
20
55.4756
0
VERTEX
8
CUT
10
2.8431
20
55.4756
0
VERTEX
8
CUT
10
0.375
20
51.2008
0
SEQEND
0
POLYLINE
8
CUT
66
1
70
0
0
VERTEX
8
CUT
10
0
20
54.6756
0
VERTEX
8
CUT
10
1.4574
20
54.6756
0
VERTEX
8
CUT
10
0
20
52.1513
0
VERTEX
8
CUT
10
0
20
52.1513
0
SEQEND
0
POLYLINE
8
CUT
66
1
70
0
0
VERTEX
8
CUT
10
2.1356
20
46.5513
0
VERTEX
8
CUT
10
12.6144
20
46.5513
0
VERTEX
8
CUT
10
7
20
56.2756
0
VERTEX
8
CUT
10
1.7606
20
47.2008
0
SEQEND
0
POLYLINE
8
CUT
66
1
70
0
0
VERTEX
8
CUT
10
10.8537
20
48.0008
0
VERTEX
8
CUT
10
7
20
54.6756
0
VERTEX
8
CUT
10
2.7713
20
47.3513
0
VERTEX
8
CUT
10
10.4787
20
47.3513
0
SEQEND
0
POLYLINE
8
CUT
66
1
70
0
0
VERTEX
8
CUT
10
6.625
20
52.4261
0
VERTEX
8
CUT
10
4.1569
20
48.1513
0
VERTEX
8
CUT
10
9.8431
20
48.1513
0
VERTEX
8
CUT
10
7.375
20
52.4261
0
SEQEND
0
POLYLINE
8
CUT
66
1
70
0
0
VERTEX
8
CUT
10
6.2926
20
48.9513
0
VERTEX
8
CUT
10
8.4574
20
48.9513
0
VERTEX
8
CUT
10
7
20
51.4756
0
VERTEX
8
CUT
10
5.9176
20
49.6008
0
SEQEND
0
LINE
8
CUT
10
7.75
20
57.8756
11
20.25
21
57.8756
0
LINE
8
CUT
10
7.375
20
57.2261
11
13.625
21
46.4008
0
LINE
8
CUT
10
20.625
20
57.2261
11
14.375
21
46.4008
0
POLYLINE
8
CUT
66
1
70
0
0
VERTEX
8
CUT
10
9.1356
20
57.0756
0
VERTEX
8
CUT
10
19.6144
20
57.0756
0
VERTEX
8
CUT
10
14
20
47.3513
0
VERTEX
8
CUT
10
8.7606
20
56.4261
0
SEQEND
0
POLYLINE
8
CUT
66
1
70
0
0
VERTEX
8
CUT
10
17.8537
20
55.6261
0
VERTEX
8
CUT
10
14
20
48.9513
0
VERTEX
8
CUT
10
9.7713
20
56.2756
0
VERTEX
8
CUT
10
17.4787
20
56.2756
0
SEQEND
0
POLYLINE
8
CUT
66
1
70
0
0
VERTEX
8
CUT
10
13.625
20
51.2008
0
VERTEX
8
CUT
10
11.1569
20
55.4756
0
VERTEX
8
CUT
10
16.8431
20
55.4756
0
VERTEX
8
CUT
10
14.375
20
51.2008
0
SEQEND
0
POLYLINE
8
CUT
66
1
70
0
0
VERTEX
8
CUT
10
13.2926
20
54.6756
0
VERTEX
8
CUT
10
15.4574
20
54.6756
0
VERTEX
8
CUT
10
14
20
52.1513
0
VERTEX
8
CUT
10
12.9176
20
54.0261
0
SEQEND
0
POLYLINE
8
CUT
66
1
70
0
0
VERTEX
8
CUT
10
16.1356
20
46.5513
0
VERTEX
8
CUT
10
26.6144
20
46.5513
0
VERTEX
8
CUT
10
21
20
56.2756
0
VERTEX
8
CUT
10
15.7606
20
47.2008
0
SEQEND
0
POLYLINE
8
CUT
66
1
70
0
0
VERTEX
8
CUT
10
24.8537
20
48.0008
0
VERTEX
8
CUT
10
21
20
54.6756
0
VERTEX
8
CUT
10
16.7713
20
47.3513
0
VERTEX
8
CUT
10
24.4787
20
47.3513
0
SEQEND
0
POLYLINE
8
CUT
66
1
70
0
0
VERTEX
8
CUT
10
20.625
20
52.4261
0
VERTEX
8
CUT
10
18.1569
20
48.1513
0
VERTEX
8
CUT
10
23.8431
20
48.1513
0
VERTEX
8
CUT
10
21.375
20
52.4261
0
SEQEND
0
POLYLINE
8
CUT
66
1
70
0
0
VERTEX
8
CUT
10
20.2926
20
48.9513
0
VERTEX
8
CUT
10
22.4574
20
48.9513
0
VERTEX
8
CUT
10
21
20
51.4756
0
VERTEX
8
CUT
10
19.9176
20
49.6008
0
SEQEND
0
LINE
8
CUT
10
21.75
20
57.8756
11
34.25
21
57.8756
0
LINE
8
CUT
10
21.375
20
57.2261
11
27.625
21
46.4008
0
LINE
8
CUT
10
34.625
20
57.2261
11
28.375
21
46.4008
0
POLYLINE
8
CUT
66
1
70
0
0
VERTEX
8
CUT
10
23.1356
20
57.0756
0
VERTEX
8
CUT
10
33.6144
20
57.0756
0
VERTEX
8
CUT
10
28
20
47.3513
0
VERTEX
8
CUT
10
22.7606
20
56.4261
0
SEQEND
0
POLYLINE
8
CUT
66
1
70
0
0
VERTEX
8
CUT
10
31.8537
20
55.6261
0
VERTEX
8
CUT
10
28
20
48.9513
0
VERTEX
8
CUT
10
23.7713
20
56.2756
0
VERTEX
8
CUT
10
31.4787
20
56.2756
0
SEQEND
0
POLYLINE
8
CUT
66
1
70
0
0
VERTEX
8
CUT
10
27.625
20
51.2008
0
VERTEX
8
CUT
10
25.1569
20
55.4756
0
VERTEX
8
CUT
10
30.8431
20
55.4756
0
VERTEX
8
CUT
10
28.375
20
51.2008
0
SEQEND
0
POLYLINE
8
CUT
66
1
70
0
0
VERTEX
8
CUT
10
27.2926
20
54.6756
0
VERTEX
8
CUT
10
29.4574
20
54.6756
0
VERTEX
8
CUT
10
28
20
52.1513
0
VERTEX
8
CUT
10
26.9176
20
54.0261
0
SEQEND
0
POLYLINE
8
CUT
66
1
70
0
0
VERTEX
8
CUT
10
30.1356
20
46.5513
0
VERTEX
8
CUT
10
40.6144
20
46.5513
0
VERTEX
8
CUT
10
35
20
56.2756
0
VERTEX
8
CUT
10
29.7606
20
47.2008
0
SEQEND
0
POLYLINE
8
CUT
66
1
70
0
0
VERTEX
8
CUT
10
38.8537
20
48.0008
0
VERTEX
8
CUT
10
35
20
54.6756
0
VERTEX
8
CUT
10
30.7713
20
47.3513
0
VERTEX
8
CUT
10
38.4787
20
47.3513
0
SEQEND
0
POLYLINE
8
CUT
66
1
70
0
0
VERTEX
8
CUT
10
34.625
20
52.4261
0
VERTEX
8
CUT
10
32.1569
20
48.1513
0
VERTEX
8
CUT
10
37.8431
20
48.1513
0
VERTEX
8
CUT
10
35.375
20
52.4261
0
SEQEND
0
POLYLINE
8
CUT
66
1
70
0
0
VERTEX
8
CUT
10
34.2926
20
48.9513
0
VERTEX
8
CUT
10
36.4574
20
48.9513
0
VERTEX
8
CUT
10
35
20
51.4756
0
VERTEX
8
CUT
10
33.9176
20
49.6008
0
SEQEND
0
LINE
8
CUT
10
35.75
20
57.8756
11
48.25
21
57.8756
0
LINE
8
CUT
10
35.375
20
57.2261
11
41.625
21
46.4008
0
LINE
8
CUT
10
48.625
20
57.2261
11
42.375
21
46.4008
0
POLYLINE
8
CUT
66
1
70
0
0
VERTEX
8
CUT
10
37.1356
20
57.0756
0
VERTEX
8
CUT
10
47.6144
20
57.0756
0
VERTEX
8
CUT
10
42
20
47.3513
0
VERTEX
8
CUT
10
36.7606
20
56.4261
0
SEQEND
0
POLYLINE
8
CUT
66
1
70
0
0
VERTEX
8
CUT
10
45.8537
20
55.6261
0
VERTEX
8
CUT
10
42
20
48.9513
0
VERTEX
8
CUT
10
37.7713
20
56.2756
0
VERTEX
8
CUT
10
45.4787
20
56.2756
0
SEQEND
0
POLYLINE
8
CUT
66
1
70
0
0
VERTEX
8
CUT
10
41.625
20
51.2008
0
VERTEX
8
CUT
10
39.1569
20
55.4756
0
VERTEX
8
CUT
10
44.8431
20
55.4756
0
VERTEX
8
CUT
10
42.375
20
51.2008
0
SEQEND
0
POLYLINE
8
CUT
66
1
70
0
0
VERTEX
8
CUT
10
41.2926
20
54.6756
0
VERTEX
8
CUT
10
43.4574
20
54.6756
0
VERTEX
8
CUT
10
42
20
52.1513
0
VERTEX
8
CUT
10
40.9176
20
54.0261
0
SEQEND
0
POLYLINE
8
CUT
66
1
70
0
0
VERTEX
8
CUT
10
44.1356
20
46.5513
0
VERTEX
8
CUT
10
54.6144
20
46.5513
0
VERTEX
8
CUT
10
49
20
56.2756
0
VERTEX
8
CUT
10
43.7606
20
47.2008
0
SEQEND
0
POLYLINE
8
CUT
66
1
70
0
0
VERTEX
8
CUT
10
52.8537
20
48.0008
0
VERTEX
8
CUT
10
49
20
54.6756
0
VERTEX
8
CUT
10
44.7713
20
47.3513
0
VERTEX
8
CUT
10
52.4787
20
47.3513
0
SEQEND
0
POLYLINE
8
CUT
66
1
70
0
0
VERTEX
8
CUT
10
48.625
20
52.4261
0
VERTEX
8
CUT
10
46.1569
20
48.1513
0
VERTEX
8
CUT
10
51.8431
20
48.1513
0
VERTEX
8
CUT
10
49.375
20
52.4261
0
SEQEND
0
POLYLINE
8
CUT
66
1
70
0
0
VERTEX
8
CUT
10
48.2926
20
48.9513
0
VERTEX
8
CUT
10
50.4574
20
48.9513
0
VERTEX
8
CUT
10
49
20
51.4756
0
VERTEX
8
CUT
10
47.9176
20
49.6008
0
SEQEND
0
LINE
8
CUT
10
49.75
20
57.8756
11
62.25
21
57.8756
0
LINE
8
CUT
10
49.375
20
57.2261
11
55.625
21
46.4008
0
LINE
8
CUT
10
62.625
20
57.2261
11
56.375
21
46.4008
0
POLYLINE
8
CUT
66
1
70
0
0
VERTEX
8
CUT
10
51.1356
20
57.0756
0
VERTEX
8
CUT
10
61.6144
20
57.0756
0
VERTEX
8
CUT
10
56
20
47.3513
0
VERTEX
8
CUT
10
50.7606
20
56.4261
0
SEQEND
0
POLYLINE
8
CUT
66
1
70
0
0
VERTEX
8
CUT
10
59.8537
20
55.6261
0
VERTEX
8
CUT
10
56
20
48.9513
0
VERTEX
8
CUT
10
51.7713
20
56.2756
0
VERTEX
8
CUT
10
59.4787
20
56.2756
0
SEQEND
0
POLYLINE
8
CUT
66
1
70
0
0
VERTEX
8
CUT
10
55.625
20
51.2008
0
VERTEX
8
CUT
10
53.1569
20
55.4756
0
VERTEX
8
CUT
10
58.8431
20
55.4756
0
VERTEX
8
CUT
10
56.375
20
51.2008
0
SEQEND
0
POLYLINE
8
CUT
66
1
70
0
0
VERTEX
8
CUT
10
55.2926
20
54.6756
0
VERTEX
8
CUT
10
57.4574
20
54.6756
0
VERTEX
8
CUT
10
56
20
52.1513
0
VERTEX
8
CUT
10
54.9176
20
54.0261
0
SEQEND
0
POLYLINE
8
CUT
66
1
70
0
0
VERTEX
8
CUT
10
58.1356
20
46.5513
0
VERTEX
8
CUT
10
68.6144
20
46.5513
0
VERTEX
8
CUT
10
63
20
56.2756
0
VERTEX
8
CUT
10
57.7606
20
47.2008
0
SEQEND
0
POLYLINE
8
CUT
66
1
70
0
0
VERTEX
8
CUT
10
66.8537
20
48.0008
0
VERTEX
8
CUT
10
63
20
54.6756
0
VERTEX
8
CUT
10
58.7713
20
47.3513
0
VERTEX
8
CUT
10
66.4787
20
47.3513
0
SEQEND
0
POLYLINE
8
CUT
66
1
70
0
0
VERTEX
8
CUT
10
62.625
20
52.4261
0
VERTEX
8
CUT
10
60.1569
20
48.1513
0
VERTEX
8
CUT
10
65.8431
20
48.1513
0
VERTEX
8
CUT
10
63.375
20
52.4261
0
SEQEND
0
POLYLINE
8
CUT
66
1
70
0
0
VERTEX
8
CUT
10
62.2926
20
48.9513
0
VERTEX
8
CUT
10
64.4574
20
48.9513
0
VERTEX
8
CUT
10
63
20
51.4756
0
VERTEX
8
CUT
10
61.9176
20
49.6008
0
SEQEND
0
LINE
8
CUT
10
63.75
20
57.8756
11
76.25
21
57.8756
0
LINE
8
CUT
10
63.375
20
57.2261
11
69.625
21
46.4008
0
LINE
8
CUT
10
76.625
20
57.2261
11
70.375
21
46.4008
0
POLYLINE
8
CUT
66
1
70
0
0
VERTEX
8
CUT
10
65.1356
20
57.0756
0
VERTEX
8
CUT
10
75.6144
20
57.0756
0
VERTEX
8
CUT
10
70
20
47.3513
0
VERTEX
8
CUT
10
64.7606
20
56.4261
0
SEQEND
0
POLYLINE
8
CUT
66
1
70
0
0
VERTEX
8
CUT
10
73.8537
20
55.6261
0
VERTEX
8
CUT
10
70
20
48.9513
0
VERTEX
8
CUT
10
65.7713
20
56.2756
0
VERTEX
8
CUT
10
73.4787
20
56.2756
0
SEQEND
0
POLYLINE
8
CUT
66
1
70
0
0
VERTEX
8
CUT
10
69.625
20
51.2008
0
VERTEX
8
CUT
10
67.1569
20
55.4756
0
VERTEX
8
CUT
10
72.8431
20
55.4756
0
VERTEX
8
CUT
10
70.375
20
51.2008
0
SEQEND
0
POLYLINE
8
CUT
66
1
70
0
0
VERTEX
8
CUT
10
69.2926
20
54.6756
0
VERTEX
8
CUT
10
71.4574
20
54.6756
0
VERTEX
8
CUT
10
70
20
52.1513
0
VERTEX
8
CUT
10
68.9176
20
54.0261
0
SEQEND
0
POLYLINE
8
CUT
66
1
70
0
0
VERTEX
8
CUT
10
72.1356
20
46.5513
0
VERTEX
8
CUT
10
82.6144
20
46.5513
0
VERTEX
8
CUT
10
77
20
56.2756
0
VERTEX
8
CUT
10
71.7606
20
47.2008
0
SEQEND
0
POLYLINE
8
CUT
66
1
70
0
0
VERTEX
8
CUT
10
80.8537
20
48.0008
0
VERTEX
8
CUT
10
77
20
54.6756
0
VERTEX
8
CUT
10
72.7713
20
47.3513
0
VERTEX
8
CUT
10
80.4787
20
47.3513
0
SEQEND
0
POLYLINE
8
CUT
66
1
70
0
0
VERTEX
8
CUT
10
76.625
20
52.4261
0
VERTEX
8
CUT
10
74.1569
20
48.1513
0
VERTEX
8
CUT
10
79.8431
20
48.1513
0
VERTEX
8
CUT
10
77.375
20
52.4261
0
SEQEND
0
POLYLINE
8
CUT
66
1
70
0
0
VERTEX
8
CUT
10
76.2926
20
48.9513
0
VERTEX
8
CUT
10
78.4574
20
48.9513
0
VERTEX
8
CUT
10
77
20
51.4756
0
VERTEX
8
CUT
10
75.9176
20
49.6008
0
SEQEND
0
LINE
8
CUT
10
77.75
20
57.8756
11
90.25
21
57.8756
0
LINE
8
CUT
10
77.375
20
57.2261
11
83.625
21
46.4008
0
LINE
8
CUT
10
90.625
20
57.2261
11
84.375
21
46.4008
0
POLYLINE
8
CUT
66
1
70
0
0
VERTEX
8
CUT
10
79.1356
20
57.0756
0
VERTEX
8
CUT
10
89.6144
20
57.0756
0
VERTEX
8
CUT
10
84
20
47.3513
0
VERTEX
8
CUT
10
78.7606
20
56.4261
0
SEQEND
0
POLYLINE
8
CUT
66
1
70
0
0
VERTEX
8
CUT
10
87.8537
20
55.6261
0
VERTEX
8
CUT
10
84
20
48.9513
0
VERTEX
8
CUT
10
79.7713
20
56.2756
0
VERTEX
8
CUT
10
87.4787
20
56.2756
0
SEQEND
0
POLYLINE
8
CUT
66
1
70
0
0
VERTEX
8
CUT
10
83.625
20
51.2008
0
VERTEX
8
CUT
10
81.1569
20
55.4756
0
VERTEX
8
CUT
10
86.8431
20
55.4756
0
VERTEX
8
CUT
10
84.375
20
51.2008
0
SEQEND
0
POLYLINE
8
CUT
66
1
70
0
0
VERTEX
8
CUT
10
83.2926
20
54.6756
0
VERTEX
8
CUT
10
85.4574
20
54.6756
0
VERTEX
8
CUT
10
84
20
52.1513
0
VERTEX
8
CUT
10
82.9176
20
54.0261
0
SEQEND
0
POLYLINE
8
CUT
66
1
70
0
0
VERTEX
8
CUT
10
86.1356
20
46.5513
0
VERTEX
8
CUT
10
96.6144
20
46.5513
0
VERTEX
8
CUT
10
91
20
56.2756
0
VERTEX
8
CUT
10
85.7606
20
47.2008
0
SEQEND
0
POLYLINE
8
CUT
66
1
70
0
0
VERTEX
8
CUT
10
94.8537
20
48.0008
0
VERTEX
8
CUT
10
91
20
54.6756
0
VERTEX
8
CUT
10
86.7713
20
47.3513
0
VERTEX
8
CUT
10
94.4787
20
47.3513
0
SEQEND
0
POLYLINE
8
CUT
66
1
70
0
0
VERTEX
8
CUT
10
90.625
20
52.4261
0
VERTEX
8
CUT
10
88.1569
20
48.1513
0
VERTEX
8
CUT
10
93.8431
20
48.1513
0
VERTEX
8
CUT
10
91.375
20
52.4261
0
SEQEND
0
POLYLINE
8
CUT
66
1
70
0
0
VERTEX
8
CUT
10
90.2926
20
48.9513
0
VERTEX
8
CUT
10
92.4574
20
48.9513
0
VERTEX
8
CUT
10
91
20
51.4756
0
VERTEX
8
CUT
10
89.9176
20
49.6008
0
SEQEND
0
LINE
8
CUT
10
91.75
20
57.8756
11
104.25
21
57.8756
0
LINE
8
CUT
10
91.375
20
57.2261
11
97.625
21
46.4008
0
LINE
8
CUT
10
104.625
20
57.2261
11
98.375
21
46.4008
0
POLYLINE
8
CUT
66
1
70
0
0
VERTEX
8
CUT
10
93.1356
20
57.0756
0
VERTEX
8
CUT
10
103.6144
20
57.0756
0
VERTEX
8
CUT
10
98
20
47.3513
0
VERTEX
8
CUT
10
92.7606
20
56.4261
0
SEQEND
0
POLYLINE
8
CUT
66
1
70
0
0
VERTEX
8
CUT
10
101.8537
20
55.6261
0
VERTEX
8
CUT
10
98
20
48.9513
0
VERTEX
8
CUT
10
93.7713
20
56.2756
0
VERTEX
8
CUT
10
101.4787
20
56.2756
0
SEQEND
0
POLYLINE
8
CUT
66
1
70
0
0
VERTEX
8
CUT
10
97.625
20
51.2008
0
VERTEX
8
CUT
10
95.1569
20
55.4756
0
VERTEX
8
CUT
10
100.8431
20
55.4756
0
VERTEX
8
CUT
10
98.375
20
51.2008
0
SEQEND
0
POLYLINE
8
CUT
66
1
70
0
0
VERTEX
8
CUT
10
97.2926
20
54.6756
0
VERTEX
8
CUT
10
99.4574
20
54.6756
0
VERTEX
8
CUT
10
98
20
52.1513
0
VERTEX
8
CUT
10
96.9176
20
54.0261
0
SEQEND
0
POLYLINE
8
CUT
66
1
70
0
0
VERTEX
8
CUT
10
100.1356
20
46.5513
0
VERTEX
8
CUT
10
110.6144
20
46.5513
0
VERTEX
8
CUT
10
105
20
56.2756
0
VERTEX
8
CUT
10
99.7606
20
47.2008
0
SEQEND
0
POLYLINE
8
CUT
66
1
70
0
0
VERTEX
8
CUT
10
108.8537
20
48.0008
0
VERTEX
8
CUT
10
105
20
54.6756
0
VERTEX
8
CUT
10
100.7713
20
47.3513
0
VERTEX
8
CUT
10
108.4787
20
47.3513
0
SEQEND
0
POLYLINE
8
CUT
66
1
70
0
0
VERTEX
8
CUT
10
104.625
20
52.4261
0
VERTEX
8
CUT
10
102.1569
20
48.1513
0
VERTEX
8
CUT
10
107.8431
20
48.1513
0
VERTEX
8
CUT
10
105.375
20
52.4261
0
SEQEND
0
POLYLINE
8
CUT
66
1
70
0
0
VERTEX
8
CUT
10
104.2926
20
48.9513
0
VERTEX
8
CUT
10
106.4574
20
48.9513
0
VERTEX
8
CUT
10
105
20
51.4756
0
VERTEX
8
CUT
10
103.9176
20
49.6008
0
SEQEND
0
LINE
8
CUT
10
105.75
20
57.8756
11
118.25
21
57.8756
0
LINE
8
CUT
10
105.375
20
57.2261
11
111.625
21
46.4008
0
LINE
8
CUT
10
118.625
20
57.2261
11
112.375
21
46.4008
0
POLYLINE
8
CUT
66
1
70
0
0
VERTEX
8
CUT
10
107.1356
20
57.0756
0
VERTEX
8
CUT
10
117.6144
20
57.0756
0
VERTEX
8
CUT
10
112
20
47.3513
0
VERTEX
8
CUT
10
106.7606
20
56.4261
0
SEQEND
0
POLYLINE
8
CUT
66
1
70
0
0
VERTEX
8
CUT
10
115.8537
20
55.6261
0
VERTEX
8
CUT
10
112
20
48.9513
0
VERTEX
8
CUT
10
107.7713
20
56.2756
0
VERTEX
8
CUT
10
115.4787
20
56.2756
0
SEQEND
0
POLYLINE
8
CUT
66
1
70
0
0
VERTEX
8
CUT
10
111.625
20
51.2008
0
VERTEX
8
CUT
10
109.1569
20
55.4756
0
VERTEX
8
CUT
10
114.8431
20
55.4756
0
VERTEX
8
CUT
10
112.375
20
51.2008
0
SEQEND
0
POLYLINE
8
CUT
66
1
70
0
0
VERTEX
8
CUT
10
111.2926
20
54.6756
0
VERTEX
8
CUT
10
113.4574
20
54.6756
0
VERTEX
8
CUT
10
112
20
52.1513
0
VERTEX
8
CUT
10
110.9176
20
54.0261
0
SEQEND
0
LINE
8
CUT
10
114.1356
20
46.5513
11
120
21
46.5513
0
POLYLINE
8
CUT
66
1
70
0
0
VERTEX
8
CUT
10
120
20
54.5436
0
VERTEX
8
CUT
10
119
20
56.2756
0
VERTEX
8
CUT
10
113.7606
20
47.2008
0
SEQEND
0
POLYLINE
8
CUT
66
1
70
0
0
VERTEX
8
CUT
10
120
20
52.9436
0
VERTEX
8
CUT
10
119
20
54.6756
0
VERTEX
8
CUT
10
114.7713
20
47.3513
0
VERTEX
8
CUT
10
120
20
47.3513
0
SEQEND
0
POLYLINE
8
CUT
66
1
70
0
0
VERTEX
8
CUT
10
118.625
20
52.4261
0
VERTEX
8
CUT
10
116.1569
20
48.1513
0
VERTEX
8
CUT
10
120
20
48.1513
0
SEQEND
0
LINE
8
CUT
10
120
20
51.3436
11
119.375
21
52.4261
0
LINE
8
CUT
10
118.2926
20
48.9513
11
120
21
48.9513
0
POLYLINE
8
CUT
66
1
70
0
0
VERTEX
8
CUT
10
120
20
49.7436
0
VERTEX
8
CUT
10
119
20
51.4756
0
VERTEX
8
CUT
10
117.9176
20
49.6008
0
SEQEND
0
LINE
8
CUT
10
119.375
20
57.2261
11
120
21
56.1436
0
POLYLINE
8
CUT
66
1
70
0
0
VERTEX
8
CUT
10
0
20
34.4269
0
VERTEX
8
CUT
10
5.6144
20
34.4269
0
VERTEX
8
CUT
10
0
20
44.1513
0
VERTEX
8
CUT
10
0
20
44.1513
0
SEQEND
0
POLYLINE
8
CUT
66
1
70
0
0
VERTEX
8
CUT
10
3.8537
20
35.8765
0
VERTEX
8
CUT
10
0
20
42.5513
0
VERTEX
8
CUT
10
0
20
42.5513
0
SEQEND
0
LINE
8
CUT
10
0
20
35.2269
11
3.4787
21
35.2269
0
POLYLINE
8
CUT
66
1
70
0
0
VERTEX
8
CUT
10
0
20
36.0269
0
VERTEX
8
CUT
10
2.8431
20
36.0269
0
VERTEX
8
CUT
10
0.375
20
40.3018
0
SEQEND
0
POLYLINE
8
CUT
66
1
70
0
0
VERTEX
8
CUT
10
0
20
36.8269
0
VERTEX
8
CUT
10
1.4574
20
36.8269
0
VERTEX
8
CUT
10
0
20
39.3513
0
VERTEX
8
CUT
10
0
20
39.3513
0
SEQEND
0
LINE
8
CUT
10
0.75
20
45.7513
11
13.25
21
45.7513
0
LINE
8
CUT
10
0.375
20
45.1018
11
6.625
21
34.2765
0
LINE
8
CUT
10
13.625
20
45.1018
11
7.375
21
34.2765
0
POLYLINE
8
CUT
66
1
70
0
0
VERTEX
8
CUT
10
2.1356
20
44.9513
0
VERTEX
8
CUT
10
12.6144
20
44.9513
0
VERTEX
8
CUT
10
7
20
35.2269
0
VERTEX
8
CUT
10
1.7606
20
44.3018
0
SEQEND
0
POLYLINE
8
CUT
66
1
70
0
0
VERTEX
8
CUT
10
10.8537
20
43.5018
0
VERTEX
8
CUT
10
7
20
36.8269
0
VERTEX
8
CUT
10
2.7713
20
44.1513
0
VERTEX
8
CUT
10
10.4787
20
44.1513
0
SEQEND
0
POLYLINE
8
CUT
66
1
70
0
0
VERTEX
8
CUT
10
6.625
20
39.0765
0
VERTEX
8
CUT
10
4.1569
20
43.3513
0
VERTEX
8
CUT
10
9.8431
20
43.3513
0
VERTEX
8
CUT
10
7.375
20
39.0765
0
SEQEND
0
POLYLINE
8
CUT
66
1
70
0
0
VERTEX
8
CUT
10
6.2926
20
42.5513
0
VERTEX
8
CUT
10
8.4574
20
42.5513
0
VERTEX
8
CUT
10
7
20
40.0269
0
VERTEX
8
CUT
10
5.9176
20
41.9018
0
SEQEND
0
POLYLINE
8
CUT
66
1
70
0
0
VERTEX
8
CUT
10
9.1356
20
34.4269
0
VERTEX
8
CUT
10
19.6144
20
34.4269
0
VERTEX
8
CUT
10
14
20
44.1513
0
VERTEX
8
CUT
10
8.7606
20
35.0765
0
SEQEND
0
POLYLINE
8
CUT
66
1
70
0
0
VERTEX
8
CUT
10
17.8537
20
35.8765
0
VERTEX
8
CUT
10
14
20
42.5513
0
VERTEX
8
CUT
10
9.7713
20
35.2269
0
VERTEX
8
CUT
10
17.4787
20
35.2269
0
SEQEND
0
POLYLINE
8
CUT
66
1
70
0
0
VERTEX
8
CUT
10
13.625
20
40.3018
0
VERTEX
8
CUT
10
11.1569
20
36.0269
0
VERTEX
8
CUT
10
16.8431
20
36.0269
0
VERTEX
8
CUT
10
14.375
20
40.3018
0
SEQEND
0
POLYLINE
8
CUT
66
1
70
0
0
VERTEX
8
CUT
10
13.2926
20
36.8269
0
VERTEX
8
CUT
10
15.4574
20
36.8269
0
VERTEX
8
CUT
10
14
20
39.3513
0
VERTEX
8
CUT
10
12.9176
20
37.4765
0
SEQEND
0
LINE
8
CUT
10
14.75
20
45.7513
11
27.25
21
45.7513
0
LINE
8
CUT
10
14.375
20
45.1018
11
20.625
21
34.2765
0
LINE
8
CUT
10
27.625
20
45.1018
11
21.375
21
34.2765
0
POLYLINE
8
CUT
66
1
70
0
0
VERTEX
8
CUT
10
16.1356
20
44.9513
0
VERTEX
8
CUT
10
26.6144
20
44.9513
0
VERTEX
8
CUT
10
21
20
35.2269
0
VERTEX
8
CUT
10
15.7606
20
44.3018
0
SEQEND
0
POLYLINE
8
CUT
66
1
70
0
0
VERTEX
8
CUT
10
24.8537
20
43.5018
0
VERTEX
8
CUT
10
21
20
36.8269
0
VERTEX
8
CUT
10
16.7713
20
44.1513
0
VERTEX
8
CUT
10
24.4787
20
44.1513
0
SEQEND
0
POLYLINE
8
CUT
66
1
70
0
0
VERTEX
8
CUT
10
20.625
20
39.0765
0
VERTEX
8
CUT
10
18.1569
20
43.3513
0
VERTEX
8
CUT
10
23.8431
20
43.3513
0
VERTEX
8
CUT
10
21.375
20
39.0765
0
SEQEND
0
POLYLINE
8
CUT
66
1
70
0
0
VERTEX
8
CUT
10
20.2926
20
42.5513
0
VERTEX
8
CUT
10
22.4574
20
42.5513
0
VERTEX
8
CUT
10
21
20
40.0269
0
VERTEX
8
CUT
10
19.9176
20
41.9018
0
SEQEND
0
POLYLINE
8
CUT
66
1
70
0
0
VERTEX
8
CUT
10
23.1356
20
34.4269
0
VERTEX
8
CUT
10
33.6144
20
34.4269
0
VERTEX
8
CUT
10
28
20
44.1513
0
VERTEX
8
CUT
10
22.7606
20
35.0765
0
SEQEND
0
POLYLINE
8
CUT
66
1
70
0
0
VERTEX
8
CUT
10
31.8537
20
35.8765
0
VERTEX
8
CUT
10
28
20
42.5513
0
VERTEX
8
CUT
10
23.7713
20
35.2269
0
VERTEX
8
CUT
10
31.4787
20
35.2269
0
SEQEND
0
POLYLINE
8
CUT
66
1
70
0
0
VERTEX
8
CUT
10
27.625
20
40.3018
0
VERTEX
8
CUT
10
25.1569
20
36.0269
0
VERTEX
8
CUT
10
30.8431
20
36.0269
0
VERTEX
8
CUT
10
28.375
20
40.3018
0
SEQEND
0
POLYLINE
8
CUT
66
1
70
0
0
VERTEX
8
CUT
10
27.2926
20
36.8269
0
VERTEX
8
CUT
10
29.4574
20
36.8269
0
VERTEX
8
CUT
10
28
20
39.3513
0
VERTEX
8
CUT
10
26.9176
20
37.4765
0
SEQEND
0
LINE
8
CUT
10
28.75
20
45.7513
11
41.25
21
45.7513
0
LINE
8
CUT
10
28.375
20
45.1018
11
34.625
21
34.2765
0
LINE
8
CUT
10
41.625
20
45.1018
11
35.375
21
34.2765
0
POLYLINE
8
CUT
66
1
70
0
0
VERTEX
8
CUT
10
30.1356
20
44.9513
0
VERTEX
8
CUT
10
40.6144
20
44.9513
0
VERTEX
8
CUT
10
35
20
35.2269
0
VERTEX
8
CUT
10
29.7606
20
44.3018
0
SEQEND
0
POLYLINE
8
CUT
66
1
70
0
0
VERTEX
8
CUT
10
38.8537
20
43.5018
0
VERTEX
8
CUT
10
35
20
36.8269
0
VERTEX
8
CUT
10
30.7713
20
44.1513
0
VERTEX
8
CUT
10
38.4787
20
44.1513
0
SEQEND
0
POLYLINE
8
CUT
66
1
70
0
0
VERTEX
8
CUT
10
34.625
20
39.0765
0
VERTEX
8
CUT
10
32.1569
20
43.3513
0
VERTEX
8
CUT
10
37.8431
20
43.3513
0
VERTEX
8
CUT
10
35.375
20
39.0765
0
SEQEND
0
POLYLINE
8
CUT
66
1
70
0
0
VERTEX
8
CUT
10
34.2926
20
42.5513
0
VERTEX
8
CUT
10
36.4574
20
42.5513
0
VERTEX
8
CUT
10
35
20
40.0269
0
VERTEX
8
CUT
10
33.9176
20
41.9018
0
SEQEND
0
POLYLINE
8
CUT
66
1
70
0
0
VERTEX
8
CUT
10
37.1356
20
34.4269
0
VERTEX
8
CUT
10
47.6144
20
34.4269
0
VERTEX
8
CUT
10
42
20
44.1513
0
VERTEX
8
CUT
10
36.7606
20
35.0765
0
SEQEND
0
POLYLINE
8
CUT
66
1
70
0
0
VERTEX
8
CUT
10
45.8537
20
35.8765
0
VERTEX
8
CUT
10
42
20
42.5513
0
VERTEX
8
CUT
10
37.7713
20
35.2269
0
VERTEX
8
CUT
10
45.4787
20
35.2269
0
SEQEND
0
POLYLINE
8
CUT
66
1
70
0
0
VERTEX
8
CUT
10
41.625
20
40.3018
0
VERTEX
8
CUT
10
39.1569
20
36.0269
0
VERTEX
8
CUT
10
44.8431
20
36.0269
0
VERTEX
8
CUT
10
42.375
20
40.3018
0
SEQEND
0
POLYLINE
8
CUT
66
1
70
0
0
VERTEX
8
CUT
10
41.2926
20
36.8269
0
VERTEX
8
CUT
10
43.4574
20
36.8269
0
VERTEX
8
CUT
10
42
20
39.3513
0
VERTEX
8
CUT
10
40.9176
20
37.4765
0
SEQEND
0
LINE
8
CUT
10
42.75
20
45.7513
11
55.25
21
45.7513
0
LINE
8
CUT
10
42.375
20
45.1018
11
48.625
21
34.2765
0
LINE
8
CUT
10
55.625
20
45.1018
11
49.375
21
34.2765
0
POLYLINE
8
CUT
66
1
70
0
0
VERTEX
8
CUT
10
44.1356
20
44.9513
0
VERTEX
8
CUT
10
54.6144
20
44.9513
0
VERTEX
8
CUT
10
49
20
35.2269
0
VERTEX
8
CUT
10
43.7606
20
44.3018
0
SEQEND
0
POLYLINE
8
CUT
66
1
70
0
0
VERTEX
8
CUT
10
52.8537
20
43.5018
0
VERTEX
8
CUT
10
49
20
36.8269
0
VERTEX
8
CUT
10
44.7713
20
44.1513
0
VERTEX
8
CUT
10
52.4787
20
44.1513
0
SEQEND
0
POLYLINE
8
CUT
66
1
70
0
0
VERTEX
8
CUT
10
48.625
20
39.0765
0
VERTEX
8
CUT
10
46.1569
20
43.3513
0
VERTEX
8
CUT
10
51.8431
20
43.3513
0
VERTEX
8
CUT
10
49.375
20
39.0765
0
SEQEND
0
POLYLINE
8
CUT
66
1
70
0
0
VERTEX
8
CUT
10
48.2926
20
42.5513
0
VERTEX
8
CUT
10
50.4574
20
42.5513
0
VERTEX
8
CUT
10
49
20
40.0269
0
VERTEX
8
CUT
10
47.9176
20
41.9018
0
SEQEND
0
POLYLINE
8
CUT
66
1
70
0
0
VERTEX
8
CUT
10
51.1356
20
34.4269
0
VERTEX
8
CUT
10
61.6144
20
34.4269
0
VERTEX
8
CUT
10
56
20
44.1513
0
VERTEX
8
CUT
10
50.7606
20
35.0765
0
SEQEND
0
POLYLINE
8
CUT
66
1
70
0
0
VERTEX
8
CUT
10
59.8537
20
35.8765
0
VERTEX
8
CUT
10
56
20
42.5513
0
VERTEX
8
CUT
10
51.7713
20
35.2269
0
VERTEX
8
CUT
10
59.4787
20
35.2269
0
SEQEND
0
POLYLINE
8
CUT
66
1
70
0
0
VERTEX
8
CUT
10
55.625
20
40.3018
0
VERTEX
8
CUT
10
53.1569
20
36.0269
0
VERTEX
8
CUT
10
58.8431
20
36.0269
0
VERTEX
8
CUT
10
56.375
20
40.3018
0
SEQEND
0
POLYLINE
8
CUT
66
1
70
0
0
VERTEX
8
CUT
10
55.2926
20
36.8269
0
VERTEX
8
CUT
10
57.4574
20
36.8269
0
VERTEX
8
CUT
10
56
20
39.3513
0
VERTEX
8
CUT
10
54.9176
20
37.4765
0
SEQEND
0
LINE
8
CUT
10
56.75
20
45.7513
11
69.25
21
45.7513
0
LINE
8
CUT
10
56.375
20
45.1018
11
62.625
21
34.2765
0
LINE
8
CUT
10
69.625
20
45.1018
11
63.375
21
34.2765
0
POLYLINE
8
CUT
66
1
70
0
0
VERTEX
8
CUT
10
58.1356
20
44.9513
0
VERTEX
8
CUT
10
68.6144
20
44.9513
0
VERTEX
8
CUT
10
63
20
35.2269
0
VERTEX
8
CUT
10
57.7606
20
44.3018
0
SEQEND
0
POLYLINE
8
CUT
66
1
70
0
0
VERTEX
8
CUT
10
66.8537
20
43.5018
0
VERTEX
8
CUT
10
63
20
36.8269
0
VERTEX
8
CUT
10
58.7713
20
44.1513
0
VERTEX
8
CUT
10
66.4787
20
44.1513
0
SEQEND
0
POLYLINE
8
CUT
66
1
70
0
0
VERTEX
8
CUT
10
62.625
20
39.0765
0
VERTEX
8
CUT
10
60.1569
20
43.3513
0
VERTEX
8
CUT
10
65.8431
20
43.3513
0
VERTEX
8
CUT
10
63.375
20
39.0765
0
SEQEND
0
POLYLINE
8
CUT
66
1
70
0
0
VERTEX
8
CUT
10
62.2926
20
42.5513
0
VERTEX
8
CUT
10
64.4574
20
42.5513
0
VERTEX
8
CUT
10
63
20
40.0269
0
VERTEX
8
CUT
10
61.9176
20
41.9018
0
SEQEND
0
POLYLINE
8
CUT
66
1
70
0
0
VERTEX
8
CUT
10
65.1356
20
34.4269
0
VERTEX
8
CUT
10
75.6144
20
34.4269
0
VERTEX
8
CUT
10
70
20
44.1513
0
VERTEX
8
CUT
10
64.7606
20
35.0765
0
SEQEND
0
POLYLINE
8
CUT
66
1
70
0
0
VERTEX
8
CUT
10
73.8537
20
35.8765
0
VERTEX
8
CUT
10
70
20
42.5513
0
VERTEX
8
CUT
10
65.7713
20
35.2269
0
VERTEX
8
CUT
10
73.4787
20
35.2269
0
SEQEND
0
POLYLINE
8
CUT
66
1
70
0
0
VERTEX
8
CUT
10
69.625
20
40.3018
0
VERTEX
8
CUT
10
67.1569
20
36.0269
0
VERTEX
8
CUT
10
72.8431
20
36.0269
0
VERTEX
8
CUT
10
70.375
20
40.3018
0
SEQEND
0
POLYLINE
8
CUT
66
1
70
0
0
VERTEX
8
CUT
10
69.2926
20
36.8269
0
VERTEX
8
CUT
10
71.4574
20
36.8269
0
VERTEX
8
CUT
10
70
20
39.3513
0
VERTEX
8
CUT
10
68.9176
20
37.4765
0
SEQEND
0
LINE
8
CUT
10
70.75
20
45.7513
11
83.25
21
45.7513
0
LINE
8
CUT
10
70.375
20
45.1018
11
76.625
21
34.2765
0
LINE
8
CUT
10
83.625
20
45.1018
11
77.375
21
34.2765
0
POLYLINE
8
CUT
66
1
70
0
0
VERTEX
8
CUT
10
72.1356
20
44.9513
0
VERTEX
8
CUT
10
82.6144
20
44.9513
0
VERTEX
8
CUT
10
77
20
35.2269
0
VERTEX
8
CUT
10
71.7606
20
44.3018
0
SEQEND
0
POLYLINE
8
CUT
66
1
70
0
0
VERTEX
8
CUT
10
80.8537
20
43.5018
0
VERTEX
8
CUT
10
77
20
36.8269
0
VERTEX
8
CUT
10
72.7713
20
44.1513
0
VERTEX
8
CUT
10
80.4787
20
44.1513
0
SEQEND
0
POLYLINE
8
CUT
66
1
70
0
0
VERTEX
8
CUT
10
76.625
20
39.0765
0
VERTEX
8
CUT
10
74.1569
20
43.3513
0
VERTEX
8
CUT
10
79.8431
20
43.3513
0
VERTEX
8
CUT
10
77.375
20
39.0765
0
SEQEND
0
POLYLINE
8
CUT
66
1
70
0
0
VERTEX
8
CUT
10
76.2926
20
42.5513
0
VERTEX
8
CUT
10
78.4574
20
42.5513
0
VERTEX
8
CUT
10
77
20
40.0269
0
VERTEX
8
CUT
10
75.9176
20
41.9018
0
SEQEND
0
POLYLINE
8
CUT
66
1
70
0
0
VERTEX
8
CUT
10
79.1356
20
34.4269
0
VERTEX
8
CUT
10
89.6144
20
34.4269
0
VERTEX
8
CUT
10
84
20
44.1513
0
VERTEX
8
CUT
10
78.7606
20
35.0765
0
SEQEND
0
POLYLINE
8
CUT
66
1
70
0
0
VERTEX
8
CUT
10
87.8537
20
35.8765
0
VERTEX
8
CUT
10
84
20
42.5513
0
VERTEX
8
CUT
10
79.7713
20
35.2269
0
VERTEX
8
CUT
10
87.4787
20
35.2269
0
SEQEND
0
POLYLINE
8
CUT
66
1
70
0
0
VERTEX
8
CUT
10
83.625
20
40.3018
0
VERTEX
8
CUT
10
81.1569
20
36.0269
0
VERTEX
8
CUT
10
86.8431
20
36.0269
0
VERTEX
8
CUT
10
84.375
20
40.3018
0
SEQEND
0
POLYLINE
8
CUT
66
1
70
0
0
VERTEX
8
CUT
10
83.2926
20
36.8269
0
VERTEX
8
CUT
10
85.4574
20
36.8269
0
VERTEX
8
CUT
10
84
20
39.3513
0
VERTEX
8
CUT
10
82.9176
20
37.4765
0
SEQEND
0
LINE
8
CUT
10
84.75
20
45.7513
11
97.25
21
45.7513
0
LINE
8
CUT
10
84.375
20
45.1018
11
90.625
21
34.2765
0
LINE
8
CUT
10
97.625
20
45.1018
11
91.375
21
34.2765
0
POLYLINE
8
CUT
66
1
70
0
0
VERTEX
8
CUT
10
86.1356
20
44.9513
0
VERTEX
8
CUT
10
96.6144
20
44.9513
0
VERTEX
8
CUT
10
91
20
35.2269
0
VERTEX
8
CUT
10
85.7606
20
44.3018
0
SEQEND
0
POLYLINE
8
CUT
66
1
70
0
0
VERTEX
8
CUT
10
94.8537
20
43.5018
0
VERTEX
8
CUT
10
91
20
36.8269
0
VERTEX
8
CUT
10
86.7713
20
44.1513
0
VERTEX
8
CUT
10
94.4787
20
44.1513
0
SEQEND
0
POLYLINE
8
CUT
66
1
70
0
0
VERTEX
8
CUT
10
90.625
20
39.0765
0
VERTEX
8
CUT
10
88.1569
20
43.3513
0
VERTEX
8
CUT
10
93.8431
20
43.3513
0
VERTEX
8
CUT
10
91.375
20
39.0765
0
SEQEND
0
POLYLINE
8
CUT
66
1
70
0
0
VERTEX
8
CUT
10
90.2926
20
42.5513
0
VERTEX
8
CUT
10
92.4574
20
42.5513
0
VERTEX
8
CUT
10
91
20
40.0269
0
VERTEX
8
CUT
10
89.9176
20
41.9018
0
SEQEND
0
POLYLINE
8
CUT
66
1
70
0
0
VERTEX
8
CUT
10
93.1356
20
34.4269
0
VERTEX
8
CUT
10
103.6144
20
34.4269
0
VERTEX
8
CUT
10
98
20
44.1513
0
VERTEX
8
CUT
10
92.7606
20
35.0765
0
SEQEND
0
POLYLINE
8
CUT
66
1
70
0
0
VERTEX
8
CUT
10
101.8537
20
35.8765
0
VERTEX
8
CUT
10
98
20
42.5513
0
VERTEX
8
CUT
10
93.7713
20
35.2269
0
VERTEX
8
CUT
10
101.4787
20
35.2269
0
SEQEND
0
POLYLINE
8
CUT
66
1
70
0
0
VERTEX
8
CUT
10
97.625
20
40.3018
0
VERTEX
8
CUT
10
95.1569
20
36.0269
0
VERTEX
8
CUT
10
100.8431
20
36.0269
0
VERTEX
8
CUT
10
98.375
20
40.3018
0
SEQEND
0
POLYLINE
8
CUT
66
1
70
0
0
VERTEX
8
CUT
10
97.2926
20
36.8269
0
VERTEX
8
CUT
10
99.4574
20
36.8269
0
VERTEX
8
CUT
10
98
20
39.3513
0
VERTEX
8
CUT
10
96.9176
20
37.4765
0
SEQEND
0
LINE
8
CUT
10
98.75
20
45.7513
11
111.25
21
45.7513
0
LINE
8
CUT
10
98.375
20
45.1018
11
104.625
21
34.2765
0
LINE
8
CUT
10
111.625
20
45.1018
11
105.375
21
34.2765
0
POLYLINE
8
CUT
66
1
70
0
0
VERTEX
8
CUT
10
100.1356
20
44.9513
0
VERTEX
8
CUT
10
110.6144
20
44.9513
0
VERTEX
8
CUT
10
105
20
35.2269
0
VERTEX
8
CUT
10
99.7606
20
44.3018
0
SEQEND
0
POLYLINE
8
CUT
66
1
70
0
0
VERTEX
8
CUT
10
108.8537
20
43.5018
0
VERTEX
8
CUT
10
105
20
36.8269
0
VERTEX
8
CUT
10
100.7713
20
44.1513
0
VERTEX
8
CUT
10
108.4787
20
44.1513
0
SEQEND
0
POLYLINE
8
CUT
66
1
70
0
0
VERTEX
8
CUT
10
104.625
20
39.0765
0
VERTEX
8
CUT
10
102.1569
20
43.3513
0
VERTEX
8
CUT
10
107.8431
20
43.3513
0
VERTEX
8
CUT
10
105.375
20
39.0765
0
SEQEND
0
POLYLINE
8
CUT
66
1
70
0
0
VERTEX
8
CUT
10
104.2926
20
42.5513
0
VERTEX
8
CUT
10
106.4574
20
42.5513
0
VERTEX
8
CUT
10
105
20
40.0269
0
VERTEX
8
CUT
10
103.9176
20
41.9018
0
SEQEND
0
POLYLINE
8
CUT
66
1
70
0
0
VERTEX
8
CUT
10
107.1356
20
34.4269
0
VERTEX
8
CUT
10
117.6144
20
34.4269
0
VERTEX
8
CUT
10
112
20
44.1513
0
VERTEX
8
CUT
10
106.7606
20
35.0765
0
SEQEND
0
POLYLINE
8
CUT
66
1
70
0
0
VERTEX
8
CUT
10
115.8537
20
35.8765
0
VERTEX
8
CUT
10
112
20
42.5513
0
VERTEX
8
CUT
10
107.7713
20
35.2269
0
VERTEX
8
CUT
10
115.4787
20
35.2269
0
SEQEND
0
POLYLINE
8
CUT
66
1
70
0
0
VERTEX
8
CUT
10
111.625
20
40.3018
0
VERTEX
8
CUT
10
109.1569
20
36.0269
0
VERTEX
8
CUT
10
114.8431
20
36.0269
0
VERTEX
8
CUT
10
112.375
20
40.3018
0
SEQEND
0
POLYLINE
8
CUT
66
1
70
0
0
VERTEX
8
CUT
10
111.2926
20
36.8269
0
VERTEX
8
CUT
10
113.4574
20
36.8269
0
VERTEX
8
CUT
10
112
20
39.3513
0
VERTEX
8
CUT
10
110.9176
20
37.4765
0
SEQEND
0
LINE
8
CUT
10
112.75
20
45.7513
11
120
21
45.7513
0
LINE
8
CUT
10
112.375
20
45.1018
11
118.625
21
34.2765
0
LINE
8
CUT
10
120
20
35.359
11
119.375
21
34.2765
0
LINE
8
CUT
10
114.1356
20
44.9513
11
120
21
44.9513
0
POLYLINE
8
CUT
66
1
70
0
0
VERTEX
8
CUT
10
120
20
36.959
0
VERTEX
8
CUT
10
119
20
35.2269
0
VERTEX
8
CUT
10
113.7606
20
44.3018
0
SEQEND
0
POLYLINE
8
CUT
66
1
70
0
0
VERTEX
8
CUT
10
120
20
38.559
0
VERTEX
8
CUT
10
119
20
36.8269
0
VERTEX
8
CUT
10
114.7713
20
44.1513
0
VERTEX
8
CUT
10
120
20
44.1513
0
SEQEND
0
POLYLINE
8
CUT
66
1
70
0
0
VERTEX
8
CUT
10
118.625
20
39.0765
0
VERTEX
8
CUT
10
116.1569
20
43.3513
0
VERTEX
8
CUT
10
120
20
43.3513
0
SEQEND
0
LINE
8
CUT
10
120
20
40.159
11
119.375
21
39.0765
0
LINE
8
CUT
10
118.2926
20
42.5513
11
120
21
42.5513
0
POLYLINE
8
CUT
66
1
70
0
0
VERTEX
8
CUT
10
120
20
41.759
0
VERTEX
8
CUT
10
119
20
40.0269
0
VERTEX
8
CUT
10
117.9176
20
41.9018
0
SEQEND
0
LINE
8
CUT
10
0
20
33.6269
11
6.25
21
33.6269
0
LINE
8
CUT
10
6.625
20
32.9774
11
0.375
21
22.1521
0
POLYLINE
8
CUT
66
1
70
0
0
VERTEX
8
CUT
10
0
20
32.8269
0
VERTEX
8
CUT
10
5.6144
20
32.8269
0
VERTEX
8
CUT
10
0
20
23.1026
0
VERTEX
8
CUT
10
0
20
23.1026
0
SEQEND
0
POLYLINE
8
CUT
66
1
70
0
0
VERTEX
8
CUT
10
3.8537
20
31.3774
0
VERTEX
8
CUT
10
0
20
24.7026
0
VERTEX
8
CUT
10
0
20
24.7026
0
SEQEND
0
LINE
8
CUT
10
0
20
32.0269
11
3.4787
21
32.0269
0
POLYLINE
8
CUT
66
1
70
0
0
VERTEX
8
CUT
10
0
20
31.2269
0
VERTEX
8
CUT
10
2.8431
20
31.2269
0
VERTEX
8
CUT
10
0.375
20
26.9521
0
SEQEND
0
POLYLINE
8
CUT
66
1
70
0
0
VERTEX
8
CUT
10
0
20
30.4269
0
VERTEX
8
CUT
10
1.4574
20
30.4269
0
VERTEX
8
CUT
10
0
20
27.9026
0
VERTEX
8
CUT
10
0
20
27.9026
0
SEQEND
0
POLYLINE
8
CUT
66
1
70
0
0
VERTEX
8
CUT
10
2.1356
20
22.3026
0
VERTEX
8
CUT
10
12.6144
20
22.3026
0
VERTEX
8
CUT
10
7
20
32.0269
0
VERTEX
8
CUT
10
1.7606
20
22.9521
0
SEQEND
0
POLYLINE
8
CUT
66
1
70
0
0
VERTEX
8
CUT
10
10.8537
20
23.7521
0
VERTEX
8
CUT
10
7
20
30.4269
0
VERTEX
8
CUT
10
2.7713
20
23.1026
0
VERTEX
8
CUT
10
10.4787
20
23.1026
0
SEQEND
0
POLYLINE
8
CUT
66
1
70
0
0
VERTEX
8
CUT
10
6.625
20
28.1774
0
VERTEX
8
CUT
10
4.1569
20
23.9026
0
VERTEX
8
CUT
10
9.8431
20
23.9026
0
VERTEX
8
CUT
10
7.375
20
28.1774
0
SEQEND
0
POLYLINE
8
CUT
66
1
70
0
0
VERTEX
8
CUT
10
6.2926
20
24.7026
0
VERTEX
8
CUT
10
8.4574
20
24.7026
0
VERTEX
8
CUT
10
7
20
27.2269
0
VERTEX
8
CUT
10
5.9176
20
25.3521
0
SEQEND
0
LINE
8
CUT
10
7.75
20
33.6269
11
20.25
21
33.6269
0
LINE
8
CUT
10
7.375
20
32.9774
11
13.625
21
22.1521
0
LINE
8
CUT
10
20.625
20
32.9774
11
14.375
21
22.1521
0
POLYLINE
8
CUT
66
1
70
0
0
VERTEX
8
CUT
10
9.1356
20
32.8269
0
VERTEX
8
CUT
10
19.6144
20
32.8269
0
VERTEX
8
CUT
10
14
20
23.1026
0
VERTEX
8
CUT
10
8.7606
20
32.1774
0
SEQEND
0
POLYLINE
8
CUT
66
1
70
0
0
VERTEX
8
CUT
10
17.8537
20
31.3774
0
VERTEX
8
CUT
10
14
20
24.7026
0
VERTEX
8
CUT
10
9.7713
20
32.0269
0
VERTEX
8
CUT
10
17.4787
20
32.0269
0
SEQEND
0
POLYLINE
8
CUT
66
1
70
0
0
VERTEX
8
CUT
10
13.625
20
26.9521
0
VERTEX
8
CUT
10
11.1569
20
31.2269
0
VERTEX
8
CUT
10
16.8431
20
31.2269
0
VERTEX
8
CUT
10
14.375
20
26.9521
0
SEQEND
0
POLYLINE
8
CUT
66
1
70
0
0
VERTEX
8
CUT
10
13.2926
20
30.4269
0
VERTEX
8
CUT
10
15.4574
20
30.4269
0
VERTEX
8
CUT
10
14
20
27.9026
0
VERTEX
8
CUT
10
12.9176
20
29.7774
0
SEQEND
0
POLYLINE
8
CUT
66
1
70
0
0
VERTEX
8
CUT
10
16.1356
20
22.3026
0
VERTEX
8
CUT
10
26.6144
20
22.3026
0
VERTEX
8
CUT
10
21
20
32.0269
0
VERTEX
8
CUT
10
15.7606
20
22.9521
0
SEQEND
0
POLYLINE
8
CUT
66
1
70
0
0
VERTEX
8
CUT
10
24.8537
20
23.7521
0
VERTEX
8
CUT
10
21
20
30.4269
0
VERTEX
8
CUT
10
16.7713
20
23.1026
0
VERTEX
8
CUT
10
24.4787
20
23.1026
0
SEQEND
0
POLYLINE
8
CUT
66
1
70
0
0
VERTEX
8
CUT
10
20.625
20
28.1774
0
VERTEX
8
CUT
10
18.1569
20
23.9026
0
VERTEX
8
CUT
10
23.8431
20
23.9026
0
VERTEX
8
CUT
10
21.375
20
28.1774
0
SEQEND
0
POLYLINE
8
CUT
66
1
70
0
0
VERTEX
8
CUT
10
20.2926
20
24.7026
0
VERTEX
8
CUT
10
22.4574
20
24.7026
0
VERTEX
8
CUT
10
21
20
27.2269
0
VERTEX
8
CUT
10
19.9176
20
25.3521
0
SEQEND
0
LINE
8
CUT
10
21.75
20
33.6269
11
34.25
21
33.6269
0
LINE
8
CUT
10
21.375
20
32.9774
11
27.625
21
22.1521
0
LINE
8
CUT
10
34.625
20
32.9774
11
28.375
21
22.1521
0
POLYLINE
8
CUT
66
1
70
0
0
VERTEX
8
CUT
10
23.1356
20
32.8269
0
VERTEX
8
CUT
10
33.6144
20
32.8269
0
VERTEX
8
CUT
10
28
20
23.1026
0
VERTEX
8
CUT
10
22.7606
20
32.1774
0
SEQEND
0
POLYLINE
8
CUT
66
1
70
0
0
VERTEX
8
CUT
10
31.8537
20
31.3774
0
VERTEX
8
CUT
10
28
20
24.7026
0
VERTEX
8
CUT
10
23.7713
20
32.0269
0
VERTEX
8
CUT
10
31.4787
20
32.0269
0
SEQEND
0
POLYLINE
8
CUT
66
1
70
0
0
VERTEX
8
CUT
10
27.625
20
26.9521
0
VERTEX
8
CUT
10
25.1569
20
31.2269
0
VERTEX
8
CUT
10
30.8431
20
31.2269
0
VERTEX
8
CUT
10
28.375
20
26.9521
0
SEQEND
0
POLYLINE
8
CUT
66
1
70
0
0
VERTEX
8
CUT
10
27.2926
20
30.4269
0
VERTEX
8
CUT
10
29.4574
20
30.4269
0
VERTEX
8
CUT
10
28
20
27.9026
0
VERTEX
8
CUT
10
26.9176
20
29.7774
0
SEQEND
0
POLYLINE
8
CUT
66
1
70
0
0
VERTEX
8
CUT
10
30.1356
20
22.3026
0
VERTEX
8
CUT
10
40.6144
20
22.3026
0
VERTEX
8
CUT
10
35
20
32.0269
0
VERTEX
8
CUT
10
29.7606
20
22.9521
0
SEQEND
0
POLYLINE
8
CUT
66
1
70
0
0
VERTEX
8
CUT
10
38.8537
20
23.7521
0
VERTEX
8
CUT
10
35
20
30.4269
0
VERTEX
8
CUT
10
30.7713
20
23.1026
0
VERTEX
8
CUT
10
38.4787
20
23.1026
0
SEQEND
0
POLYLINE
8
CUT
66
1
70
0
0
VERTEX
8
CUT
10
34.625
20
28.1774
0
VERTEX
8
CUT
10
32.1569
20
23.9026
0
VERTEX
8
CUT
10
37.8431
20
23.9026
0
VERTEX
8
CUT
10
35.375
20
28.1774
0
SEQEND
0
POLYLINE
8
CUT
66
1
70
0
0
VERTEX
8
CUT
10
34.2926
20
24.7026
0
VERTEX
8
CUT
10
36.4574
20
24.7026
0
VERTEX
8
CUT
10
35
20
27.2269
0
VERTEX
8
CUT
10
33.9176
20
25.3521
0
SEQEND
0
LINE
8
CUT
10
35.75
20
33.6269
11
48.25
21
33.6269
0
LINE
8
CUT
10
35.375
20
32.9774
11
41.625
21
22.1521
0
LINE
8
CUT
10
48.625
20
32.9774
11
42.375
21
22.1521
0
POLYLINE
8
CUT
66
1
70
0
0
VERTEX
8
CUT
10
37.1356
20
32.8269
0
VERTEX
8
CUT
10
47.6144
20
32.8269
0
VERTEX
8
CUT
10
42
20
23.1026
0
VERTEX
8
CUT
10
36.7606
20
32.1774
0
SEQEND
0
POLYLINE
8
CUT
66
1
70
0
0
VERTEX
8
CUT
10
45.8537
20
31.3774
0
VERTEX
8
CUT
10
42
20
24.7026
0
VERTEX
8
CUT
10
37.7713
20
32.0269
0
VERTEX
8
CUT
10
45.4787
20
32.0269
0
SEQEND
0
POLYLINE
8
CUT
66
1
70
0
0
VERTEX
8
CUT
10
41.625
20
26.9521
0
VERTEX
8
CUT
10
39.1569
20
31.2269
0
VERTEX
8
CUT
10
44.8431
20
31.2269
0
VERTEX
8
CUT
10
42.375
20
26.9521
0
SEQEND
0
POLYLINE
8
CUT
66
1
70
0
0
VERTEX
8
CUT
10
41.2926
20
30.4269
0
VERTEX
8
CUT
10
43.4574
20
30.4269
0
VERTEX
8
CUT
10
42
20
27.9026
0
VERTEX
8
CUT
10
40.9176
20
29.7774
0
SEQEND
0
POLYLINE
8
CUT
66
1
70
0
0
VERTEX
8
CUT
10
44.1356
20
22.3026
0
VERTEX
8
CUT
10
54.6144
20
22.3026
0
VERTEX
8
CUT
10
49
20
32.0269
0
VERTEX
8
CUT
10
43.7606
20
22.9521
0
SEQEND
0
POLYLINE
8
CUT
66
1
70
0
0
VERTEX
8
CUT
10
52.8537
20
23.7521
0
VERTEX
8
CUT
10
49
20
30.4269
0
VERTEX
8
CUT
10
44.7713
20
23.1026
0
VERTEX
8
CUT
10
52.4787
20
23.1026
0
SEQEND
0
POLYLINE
8
CUT
66
1
70
0
0
VERTEX
8
CUT
10
48.625
20
28.1774
0
VERTEX
8
CUT
10
46.1569
20
23.9026
0
VERTEX
8
CUT
10
51.8431
20
23.9026
0
VERTEX
8
CUT
10
49.375
20
28.1774
0
SEQEND
0
POLYLINE
8
CUT
66
1
70
0
0
VERTEX
8
CUT
10
48.2926
20
24.7026
0
VERTEX
8
CUT
10
50.4574
20
24.7026
0
VERTEX
8
CUT
10
49
20
27.2269
0
VERTEX
8
CUT
10
47.9176
20
25.3521
0
SEQEND
0
LINE
8
CUT
10
49.75
20
33.6269
11
62.25
21
33.6269
0
LINE
8
CUT
10
49.375
20
32.9774
11
55.625
21
22.1521
0
LINE
8
CUT
10
62.625
20
32.9774
11
56.375
21
22.1521
0
POLYLINE
8
CUT
66
1
70
0
0
VERTEX
8
CUT
10
51.1356
20
32.8269
0
VERTEX
8
CUT
10
61.6144
20
32.8269
0
VERTEX
8
CUT
10
56
20
23.1026
0
VERTEX
8
CUT
10
50.7606
20
32.1774
0
SEQEND
0
POLYLINE
8
CUT
66
1
70
0
0
VERTEX
8
CUT
10
59.8537
20
31.3774
0
VERTEX
8
CUT
10
56
20
24.7026
0
VERTEX
8
CUT
10
51.7713
20
32.0269
0
VERTEX
8
CUT
10
59.4787
20
32.0269
0
SEQEND
0
POLYLINE
8
CUT
66
1
70
0
0
VERTEX
8
CUT
10
55.625
20
26.9521
0
VERTEX
8
CUT
10
53.1569
20
31.2269
0
VERTEX
8
CUT
10
58.8431
20
31.2269
0
VERTEX
8
CUT
10
56.375
20
26.9521
0
SEQEND
0
POLYLINE
8
CUT
66
1
70
0
0
VERTEX
8
CUT
10
55.2926
20
30.4269
0
VERTEX
8
CUT
10
57.4574
20
30.4269
0
VERTEX
8
CUT
10
56
20
27.9026
0
VERTEX
8
CUT
10
54.9176
20
29.7774
0
SEQEND
0
POLYLINE
8
CUT
66
1
70
0
0
VERTEX
8
CUT
10
58.1356
20
22.3026
0
VERTEX
8
CUT
10
68.6144
20
22.3026
0
VERTEX
8
CUT
10
63
20
32.0269
0
VERTEX
8
CUT
10
57.7606
20
22.9521
0
SEQEND
0
POLYLINE
8
CUT
66
1
70
0
0
VERTEX
8
CUT
10
66.8537
20
23.7521
0
VERTEX
8
CUT
10
63
20
30.4269
0
VERTEX
8
CUT
10
58.7713
20
23.1026
0
VERTEX
8
CUT
10
66.4787
20
23.1026
0
SEQEND
0
POLYLINE
8
CUT
66
1
70
0
0
VERTEX
8
CUT
10
62.625
20
28.1774
0
VERTEX
8
CUT
10
60.1569
20
23.9026
0
VERTEX
8
CUT
10
65.8431
20
23.9026
0
VERTEX
8
CUT
10
63.375
20
28.1774
0
SEQEND
0
POLYLINE
8
CUT
66
1
70
0
0
VERTEX
8
CUT
10
62.2926
20
24.7026
0
VERTEX
8
CUT
10
64.4574
20
24.7026
0
VERTEX
8
CUT
10
63
20
27.2269
0
VERTEX
8
CUT
10
61.9176
20
25.3521
0
SEQEND
0
LINE
8
CUT
10
63.75
20
33.6269
11
76.25
21
33.6269
0
LINE
8
CUT
10
63.375
20
32.9774
11
69.625
21
22.1521
0
LINE
8
CUT
10
76.625
20
32.9774
11
70.375
21
22.1521
0
POLYLINE
8
CUT
66
1
70
0
0
VERTEX
8
CUT
10
65.1356
20
32.8269
0
VERTEX
8
CUT
10
75.6144
20
32.8269
0
VERTEX
8
CUT
10
70
20
23.1026
0
VERTEX
8
CUT
10
64.7606
20
32.1774
0
SEQEND
0
POLYLINE
8
CUT
66
1
70
0
0
VERTEX
8
CUT
10
73.8537
20
31.3774
0
VERTEX
8
CUT
10
70
20
24.7026
0
VERTEX
8
CUT
10
65.7713
20
32.0269
0
VERTEX
8
CUT
10
73.4787
20
32.0269
0
SEQEND
0
POLYLINE
8
CUT
66
1
70
0
0
VERTEX
8
CUT
10
69.625
20
26.9521
0
VERTEX
8
CUT
10
67.1569
20
31.2269
0
VERTEX
8
CUT
10
72.8431
20
31.2269
0
VERTEX
8
CUT
10
70.375
20
26.9521
0
SEQEND
0
POLYLINE
8
CUT
66
1
70
0
0
VERTEX
8
CUT
10
69.2926
20
30.4269
0
VERTEX
8
CUT
10
71.4574
20
30.4269
0
VERTEX
8
CUT
10
70
20
27.9026
0
VERTEX
8
CUT
10
68.9176
20
29.7774
0
SEQEND
0
POLYLINE
8
CUT
66
1
70
0
0
VERTEX
8
CUT
10
72.1356
20
22.3026
0
VERTEX
8
CUT
10
82.6144
20
22.3026
0
VERTEX
8
CUT
10
77
20
32.0269
0
VERTEX
8
CUT
10
71.7606
20
22.9521
0
SEQEND
0
POLYLINE
8
CUT
66
1
70
0
0
VERTEX
8
CUT
10
80.8537
20
23.7521
0
VERTEX
8
CUT
10
77
20
30.4269
0
VERTEX
8
CUT
10
72.7713
20
23.1026
0
VERTEX
8
CUT
10
80.4787
20
23.1026
0
SEQEND
0
POLYLINE
8
CUT
66
1
70
0
0
VERTEX
8
CUT
10
76.625
20
28.1774
0
VERTEX
8
CUT
10
74.1569
20
23.9026
0
VERTEX
8
CUT
10
79.8431
20
23.9026
0
VERTEX
8
CUT
10
77.375
20
28.1774
0
SEQEND
0
POLYLINE
8
CUT
66
1
70
0
0
VERTEX
8
CUT
10
76.2926
20
24.7026
0
VERTEX
8
CUT
10
78.4574
20
24.7026
0
VERTEX
8
CUT
10
77
20
27.2269
0
VERTEX
8
CUT
10
75.9176
20
25.3521
0
SEQEND
0
LINE
8
CUT
10
77.75
20
33.6269
11
90.25
21
33.6269
0
LINE
8
CUT
10
77.375
20
32.9774
11
83.625
21
22.1521
0
LINE
8
CUT
10
90.625
20
32.9774
11
84.375
21
22.1521
0
POLYLINE
8
CUT
66
1
70
0
0
VERTEX
8
CUT
10
79.1356
20
32.8269
0
VERTEX
8
CUT
10
89.6144
20
32.8269
0
VERTEX
8
CUT
10
84
20
23.1026
0
VERTEX
8
CUT
10
78.7606
20
32.1774
0
SEQEND
0
POLYLINE
8
CUT
66
1
70
0
0
VERTEX
8
CUT
10
87.8537
20
31.3774
0
VERTEX
8
CUT
10
84
20
24.7026
0
VERTEX
8
CUT
10
79.7713
20
32.0269
0
VERTEX
8
CUT
10
87.4787
20
32.0269
0
SEQEND
0
POLYLINE
8
CUT
66
1
70
0
0
VERTEX
8
CUT
10
83.625
20
26.9521
0
VERTEX
8
CUT
10
81.1569
20
31.2269
0
VERTEX
8
CUT
10
86.8431
20
31.2269
0
VERTEX
8
CUT
10
84.375
20
26.9521
0
SEQEND
0
POLYLINE
8
CUT
66
1
70
0
0
VERTEX
8
CUT
10
83.2926
20
30.4269
0
VERTEX
8
CUT
10
85.4574
20
30.4269
0
VERTEX
8
CUT
10
84
20
27.9026
0
VERTEX
8
CUT
10
82.9176
20
29.7774
0
SEQEND
0
POLYLINE
8
CUT
66
1
70
0
0
VERTEX
8
CUT
10
86.1356
20
22.3026
0
VERTEX
8
CUT
10
96.6144
20
22.3026
0
VERTEX
8
CUT
10
91
20
32.0269
0
VERTEX
8
CUT
10
85.7606
20
22.9521
0
SEQEND
0
POLYLINE
8
CUT
66
1
70
0
0
VERTEX
8
CUT
10
94.8537
20
23.7521
0
VERTEX
8
CUT
10
91
20
30.4269
0
VERTEX
8
CUT
10
86.7713
20
23.1026
0
VERTEX
8
CUT
10
94.4787
20
23.1026
0
SEQEND
0
POLYLINE
8
CUT
66
1
70
0
0
VERTEX
8
CUT
10
90.625
20
28.1774
0
VERTEX
8
CUT
10
88.1569
20
23.9026
0
VERTEX
8
CUT
10
93.8431
20
23.9026
0
VERTEX
8
CUT
10
91.375
20
28.1774
0
SEQEND
0
POLYLINE
8
CUT
66
1
70
0
0
VERTEX
8
CUT
10
90.2926
20
24.7026
0
VERTEX
8
CUT
10
92.4574
20
24.7026
0
VERTEX
8
CUT
10
91
20
27.2269
0
VERTEX
8
CUT
10
89.9176
20
25.3521
0
SEQEND
0
LINE
8
CUT
10
91.75
20
33.6269
11
104.25
21
33.6269
0
LINE
8
CUT
10
91.375
20
32.9774
11
97.625
21
22.1521
0
LINE
8
CUT
10
104.625
20
32.9774
11
98.375
21
22.1521
0
POLYLINE
8
CUT
66
1
70
0
0
VERTEX
8
CUT
10
93.1356
20
32.8269
0
VERTEX
8
CUT
10
103.6144
20
32.8269
0
VERTEX
8
CUT
10
98
20
23.1026
0
VERTEX
8
CUT
10
92.7606
20
32.1774
0
SEQEND
0
POLYLINE
8
CUT
66
1
70
0
0
VERTEX
8
CUT
10
101.8537
20
31.3774
0
VERTEX
8
CUT
10
98
20
24.7026
0
VERTEX
8
CUT
10
93.7713
20
32.0269
0
VERTEX
8
CUT
10
101.4787
20
32.0269
0
SEQEND
0
POLYLINE
8
CUT
66
1
70
0
0
VERTEX
8
CUT
10
97.625
20
26.9521
0
VERTEX
8
CUT
10
95.1569
20
31.2269
0
VERTEX
8
CUT
10
100.8431
20
31.2269
0
VERTEX
8
CUT
10
98.375
20
26.9521
0
SEQEND
0
POLYLINE
8
CUT
66
1
70
0
0
VERTEX
8
CUT
10
97.2926
20
30.4269
0
VERTEX
8
CUT
10
99.4574
20
30.4269
0
VERTEX
8
CUT
10
98
20
27.9026
0
VERTEX
8
CUT
10
96.9176
20
29.7774
0
SEQEND
0
POLYLINE
8
CUT
66
1
70
0
0
VERTEX
8
CUT
10
100.1356
20
22.3026
0
VERTEX
8
CUT
10
110.6144
20
22.3026
0
VERTEX
8
CUT
10
105
20
32.0269
0
VERTEX
8
CUT
10
99.7606
20
22.9521
0
SEQEND
0
POLYLINE
8
CUT
66
1
70
0
0
VERTEX
8
CUT
10
108.8537
20
23.7521
0
VERTEX
8
CUT
10
105
20
30.4269
0
VERTEX
8
CUT
10
100.7713
20
23.1026
0
VERTEX
8
CUT
10
108.4787
20
23.1026
0
SEQEND
0
POLYLINE
8
CUT
66
1
70
0
0
VERTEX
8
CUT
10
104.625
20
28.1774
0
VERTEX
8
CUT
10
102.1569
20
23.9026
0
VERTEX
8
CUT
10
107.8431
20
23.9026
0
VERTEX
8
CUT
10
105.375
20
28.1774
0
SEQEND
0
POLYLINE
8
CUT
66
1
70
0
0
VERTEX
8
CUT
10
104.2926
20
24.7026
0
VERTEX
8
CUT
10
106.4574
20
24.7026
0
VERTEX
8
CUT
10
105
20
27.2269
0
VERTEX
8
CUT
10
103.9176
20
25.3521
0
SEQEND
0
LINE
8
CUT
10
105.75
20
33.6269
11
118.25
21
33.6269
0
LINE
8
CUT
10
105.375
20
32.9774
11
111.625
21
22.1521
0
LINE
8
CUT
10
118.625
20
32.9774
11
112.375
21
22.1521
0
POLYLINE
8
CUT
66
1
70
0
0
VERTEX
8
CUT
10
107.1356
20
32.8269
0
VERTEX
8
CUT
10
117.6144
20
32.8269
0
VERTEX
8
CUT
10
112
20
23.1026
0
VERTEX
8
CUT
10
106.7606
20
32.1774
0
SEQEND
0
POLYLINE
8
CUT
66
1
70
0
0
VERTEX
8
CUT
10
115.8537
20
31.3774
0
VERTEX
8
CUT
10
112
20
24.7026
0
VERTEX
8
CUT
10
107.7713
20
32.0269
0
VERTEX
8
CUT
10
115.4787
20
32.0269
0
SEQEND
0
POLYLINE
8
CUT
66
1
70
0
0
VERTEX
8
CUT
10
111.625
20
26.9521
0
VERTEX
8
CUT
10
109.1569
20
31.2269
0
VERTEX
8
CUT
10
114.8431
20
31.2269
0
VERTEX
8
CUT
10
112.375
20
26.9521
0
SEQEND
0
POLYLINE
8
CUT
66
1
70
0
0
VERTEX
8
CUT
10
111.2926
20
30.4269
0
VERTEX
8
CUT
10
113.4574
20
30.4269
0
VERTEX
8
CUT
10
112
20
27.9026
0
VERTEX
8
CUT
10
110.9176
20
29.7774
0
SEQEND
0
LINE
8
CUT
10
114.1356
20
22.3026
11
120
21
22.3026
0
POLYLINE
8
CUT
66
1
70
0
0
VERTEX
8
CUT
10
120
20
30.2949
0
VERTEX
8
CUT
10
119
20
32.0269
0
VERTEX
8
CUT
10
113.7606
20
22.9521
0
SEQEND
0
POLYLINE
8
CUT
66
1
70
0
0
VERTEX
8
CUT
10
120
20
28.6949
0
VERTEX
8
CUT
10
119
20
30.4269
0
VERTEX
8
CUT
10
114.7713
20
23.1026
0
VERTEX
8
CUT
10
120
20
23.1026
0
SEQEND
0
POLYLINE
8
CUT
66
1
70
0
0
VERTEX
8
CUT
10
118.625
20
28.1774
0
VERTEX
8
CUT
10
116.1569
20
23.9026
0
VERTEX
8
CUT
10
120
20
23.9026
0
SEQEND
0
LINE
8
CUT
10
120
20
27.0949
11
119.375
21
28.1774
0
LINE
8
CUT
10
118.2926
20
24.7026
11
120
21
24.7026
0
POLYLINE
8
CUT
66
1
70
0
0
VERTEX
8
CUT
10
120
20
25.4949
0
VERTEX
8
CUT
10
119
20
27.2269
0
VERTEX
8
CUT
10
117.9176
20
25.3521
0
SEQEND
0
LINE
8
CUT
10
119.375
20
32.9774
11
120
21
31.8949
0
POLYLINE
8
CUT
66
1
70
0
0
VERTEX
8
CUT
10
0
20
10.1782
0
VERTEX
8
CUT
10
5.6144
20
10.1782
0
VERTEX
8
CUT
10
0
20
19.9026
0
VERTEX
8
CUT
10
0
20
19.9026
0
SEQEND
0
POLYLINE
8
CUT
66
1
70
0
0
VERTEX
8
CUT
10
3.8537
20
11.6277
0
VERTEX
8
CUT
10
0
20
18.3026
0
VERTEX
8
CUT
10
0
20
18.3026
0
SEQEND
0
LINE
8
CUT
10
0
20
10.9782
11
3.4787
21
10.9782
0
POLYLINE
8
CUT
66
1
70
0
0
VERTEX
8
CUT
10
0
20
11.7782
0
VERTEX
8
CUT
10
2.8431
20
11.7782
0
VERTEX
8
CUT
10
0.375
20
16.0531
0
SEQEND
0
POLYLINE
8
CUT
66
1
70
0
0
VERTEX
8
CUT
10
0
20
12.5782
0
VERTEX
8
CUT
10
1.4574
20
12.5782
0
VERTEX
8
CUT
10
0
20
15.1026
0
VERTEX
8
CUT
10
0
20
15.1026
0
SEQEND
0
LINE
8
CUT
10
0.75
20
21.5026
11
13.25
21
21.5026
0
LINE
8
CUT
10
0.375
20
20.8531
11
6.625
21
10.0277
0
LINE
8
CUT
10
13.625
20
20.8531
11
7.375
21
10.0277
0
POLYLINE
8
CUT
66
1
70
0
0
VERTEX
8
CUT
10
2.1356
20
20.7026
0
VERTEX
8
CUT
10
12.6144
20
20.7026
0
VERTEX
8
CUT
10
7
20
10.9782
0
VERTEX
8
CUT
10
1.7606
20
20.0531
0
SEQEND
0
POLYLINE
8
CUT
66
1
70
0
0
VERTEX
8
CUT
10
10.8537
20
19.2531
0
VERTEX
8
CUT
10
7
20
12.5782
0
VERTEX
8
CUT
10
2.7713
20
19.9026
0
VERTEX
8
CUT
10
10.4787
20
19.9026
0
SEQEND
0
POLYLINE
8
CUT
66
1
70
0
0
VERTEX
8
CUT
10
6.625
20
14.8277
0
VERTEX
8
CUT
10
4.1569
20
19.1026
0
VERTEX
8
CUT
10
9.8431
20
19.1026
0
VERTEX
8
CUT
10
7.375
20
14.8277
0
SEQEND
0
POLYLINE
8
CUT
66
1
70
0
0
VERTEX
8
CUT
10
6.2926
20
18.3026
0
VERTEX
8
CUT
10
8.4574
20
18.3026
0
VERTEX
8
CUT
10
7
20
15.7782
0
VERTEX
8
CUT
10
5.9176
20
17.6531
0
SEQEND
0
POLYLINE
8
CUT
66
1
70
0
0
VERTEX
8
CUT
10
9.1356
20
10.1782
0
VERTEX
8
CUT
10
19.6144
20
10.1782
0
VERTEX
8
CUT
10
14
20
19.9026
0
VERTEX
8
CUT
10
8.7606
20
10.8277
0
SEQEND
0
POLYLINE
8
CUT
66
1
70
0
0
VERTEX
8
CUT
10
17.8537
20
11.6277
0
VERTEX
8
CUT
10
14
20
18.3026
0
VERTEX
8
CUT
10
9.7713
20
10.9782
0
VERTEX
8
CUT
10
17.4787
20
10.9782
0
SEQEND
0
POLYLINE
8
CUT
66
1
70
0
0
VERTEX
8
CUT
10
13.625
20
16.0531
0
VERTEX
8
CUT
10
11.1569
20
11.7782
0
VERTEX
8
CUT
10
16.8431
20
11.7782
0
VERTEX
8
CUT
10
14.375
20
16.0531
0
SEQEND
0
POLYLINE
8
CUT
66
1
70
0
0
VERTEX
8
CUT
10
13.2926
20
12.5782
0
VERTEX
8
CUT
10
15.4574
20
12.5782
0
VERTEX
8
CUT
10
14
20
15.1026
0
VERTEX
8
CUT
10
12.9176
20
13.2277
0
SEQEND
0
LINE
8
CUT
10
14.75
20
21.5026
11
27.25
21
21.5026
0
LINE
8
CUT
10
14.375
20
20.8531
11
20.625
21
10.0277
0
LINE
8
CUT
10
27.625
20
20.8531
11
21.375
21
10.0277
0
POLYLINE
8
CUT
66
1
70
0
0
VERTEX
8
CUT
10
16.1356
20
20.7026
0
VERTEX
8
CUT
10
26.6144
20
20.7026
0
VERTEX
8
CUT
10
21
20
10.9782
0
VERTEX
8
CUT
10
15.7606
20
20.0531
0
SEQEND
0
POLYLINE
8
CUT
66
1
70
0
0
VERTEX
8
CUT
10
24.8537
20
19.2531
0
VERTEX
8
CUT
10
21
20
12.5782
0
VERTEX
8
CUT
10
16.7713
20
19.9026
0
VERTEX
8
CUT
10
24.4787
20
19.9026
0
SEQEND
0
POLYLINE
8
CUT
66
1
70
0
0
VERTEX
8
CUT
10
20.625
20
14.8277
0
VERTEX
8
CUT
10
18.1569
20
19.1026
0
VERTEX
8
CUT
10
23.8431
20
19.1026
0
VERTEX
8
CUT
10
21.375
20
14.8277
0
SEQEND
0
POLYLINE
8
CUT
66
1
70
0
0
VERTEX
8
CUT
10
20.2926
20
18.3026
0
VERTEX
8
CUT
10
22.4574
20
18.3026
0
VERTEX
8
CUT
10
21
20
15.7782
0
VERTEX
8
CUT
10
19.9176
20
17.6531
0
SEQEND
0
POLYLINE
8
CUT
66
1
70
0
0
VERTEX
8
CUT
10
23.1356
20
10.1782
0
VERTEX
8
CUT
10
33.6144
20
10.1782
0
VERTEX
8
CUT
10
28
20
19.9026
0
VERTEX
8
CUT
10
22.7606
20
10.8277
0
SEQEND
0
POLYLINE
8
CUT
66
1
70
0
0
VERTEX
8
CUT
10
31.8537
20
11.6277
0
VERTEX
8
CUT
10
28
20
18.3026
0
VERTEX
8
CUT
10
23.7713
20
10.9782
0
VERTEX
8
CUT
10
31.4787
20
10.9782
0
SEQEND
0
POLYLINE
8
CUT
66
1
70
0
0
VERTEX
8
CUT
10
27.625
20
16.0531
0
VERTEX
8
CUT
10
25.1569
20
11.7782
0
VERTEX
8
CUT
10
30.8431
20
11.7782
0
VERTEX
8
CUT
10
28.375
20
16.0531
0
SEQEND
0
POLYLINE
8
CUT
66
1
70
0
0
VERTEX
8
CUT
10
27.2926
20
12.5782
0
VERTEX
8
CUT
10
29.4574
20
12.5782
0
VERTEX
8
CUT
10
28
20
15.1026
0
VERTEX
8
CUT
10
26.9176
20
13.2277
0
SEQEND
0
LINE
8
CUT
10
28.75
20
21.5026
11
41.25
21
21.5026
0
LINE
8
CUT
10
28.375
20
20.8531
11
34.625
21
10.0277
0
LINE
8
CUT
10
41.625
20
20.8531
11
35.375
21
10.0277
0
POLYLINE
8
CUT
66
1
70
0
0
VERTEX
8
CUT
10
30.1356
20
20.7026
0
VERTEX
8
CUT
10
40.6144
20
20.7026
0
VERTEX
8
CUT
10
35
20
10.9782
0
VERTEX
8
CUT
10
29.7606
20
20.0531
0
SEQEND
0
POLYLINE
8
CUT
66
1
70
0
0
VERTEX
8
CUT
10
38.8537
20
19.2531
0
VERTEX
8
CUT
10
35
20
12.5782
0
VERTEX
8
CUT
10
30.7713
20
19.9026
0
VERTEX
8
CUT
10
38.4787
20
19.9026
0
SEQEND
0
POLYLINE
8
CUT
66
1
70
0
0
VERTEX
8
CUT
10
34.625
20
14.8277
0
VERTEX
8
CUT
10
32.1569
20
19.1026
0
VERTEX
8
CUT
10
37.8431
20
19.1026
0
VERTEX
8
CUT
10
35.375
20
14.8277
0
SEQEND
0
POLYLINE
8
CUT
66
1
70
0
0
VERTEX
8
CUT
10
34.2926
20
18.3026
0
VERTEX
8
CUT
10
36.4574
20
18.3026
0
VERTEX
8
CUT
10
35
20
15.7782
0
VERTEX
8
CUT
10
33.9176
20
17.6531
0
SEQEND
0
POLYLINE
8
CUT
66
1
70
0
0
VERTEX
8
CUT
10
37.1356
20
10.1782
0
VERTEX
8
CUT
10
47.6144
20
10.1782
0
VERTEX
8
CUT
10
42
20
19.9026
0
VERTEX
8
CUT
10
36.7606
20
10.8277
0
SEQEND
0
POLYLINE
8
CUT
66
1
70
0
0
VERTEX
8
CUT
10
45.8537
20
11.6277
0
VERTEX
8
CUT
10
42
20
18.3026
0
VERTEX
8
CUT
10
37.7713
20
10.9782
0
VERTEX
8
CUT
10
45.4787
20
10.9782
0
SEQEND
0
POLYLINE
8
CUT
66
1
70
0
0
VERTEX
8
CUT
10
41.625
20
16.0531
0
VERTEX
8
CUT
10
39.1569
20
11.7782
0
VERTEX
8
CUT
10
44.8431
20
11.7782
0
VERTEX
8
CUT
10
42.375
20
16.0531
0
SEQEND
0
POLYLINE
8
CUT
66
1
70
0
0
VERTEX
8
CUT
10
41.2926
20
12.5782
0
VERTEX
8
CUT
10
43.4574
20
12.5782
0
VERTEX
8
CUT
10
42
20
15.1026
0
VERTEX
8
CUT
10
40.9176
20
13.2277
0
SEQEND
0
LINE
8
CUT
10
42.75
20
21.5026
11
55.25
21
21.5026
0
LINE
8
CUT
10
42.375
20
20.8531
11
48.625
21
10.0277
0
LINE
8
CUT
10
55.625
20
20.8531
11
49.375
21
10.0277
0
POLYLINE
8
CUT
66
1
70
0
0
VERTEX
8
CUT
10
44.1356
20
20.7026
0
VERTEX
8
CUT
10
54.6144
20
20.7026
0
VERTEX
8
CUT
10
49
20
10.9782
0
VERTEX
8
CUT
10
43.7606
20
20.0531
0
SEQEND
0
POLYLINE
8
CUT
66
1
70
0
0
VERTEX
8
CUT
10
52.8537
20
19.2531
0
VERTEX
8
CUT
10
49
20
12.5782
0
VERTEX
8
CUT
10
44.7713
20
19.9026
0
VERTEX
8
CUT
10
52.4787
20
19.9026
0
SEQEND
0
POLYLINE
8
CUT
66
1
70
0
0
VERTEX
8
CUT
10
48.625
20
14.8277
0
VERTEX
8
CUT
10
46.1569
20
19.1026
0
VERTEX
8
CUT
10
51.8431
20
19.1026
0
VERTEX
8
CUT
10
49.375
20
14.8277
0
SEQEND
0
POLYLINE
8
CUT
66
1
70
0
0
VERTEX
8
CUT
10
48.2926
20
18.3026
0
VERTEX
8
CUT
10
50.4574
20
18.3026
0
VERTEX
8
CUT
10
49
20
15.7782
0
VERTEX
8
CUT
10
47.9176
20
17.6531
0
SEQEND
0
POLYLINE
8
CUT
66
1
70
0
0
VERTEX
8
CUT
10
51.1356
20
10.1782
0
VERTEX
8
CUT
10
61.6144
20
10.1782
0
VERTEX
8
CUT
10
56
20
19.9026
0
VERTEX
8
CUT
10
50.7606
20
10.8277
0
SEQEND
0
POLYLINE
8
CUT
66
1
70
0
0
VERTEX
8
CUT
10
59.8537
20
11.6277
0
VERTEX
8
CUT
10
56
20
18.3026
0
VERTEX
8
CUT
10
51.7713
20
10.9782
0
VERTEX
8
CUT
10
59.4787
20
10.9782
0
SEQEND
0
POLYLINE
8
CUT
66
1
70
0
0
VERTEX
8
CUT
10
55.625
20
16.0531
0
VERTEX
8
CUT
10
53.1569
20
11.7782
0
VERTEX
8
CUT
10
58.8431
20
11.7782
0
VERTEX
8
CUT
10
56.375
20
16.0531
0
SEQEND
0
POLYLINE
8
CUT
66
1
70
0
0
VERTEX
8
CUT
10
55.2926
20
12.5782
0
VERTEX
8
CUT
10
57.4574
20
12.5782
0
VERTEX
8
CUT
10
56
20
15.1026
0
VERTEX
8
CUT
10
54.9176
20
13.2277
0
SEQEND
0
LINE
8
CUT
10
56.75
20
21.5026
11
69.25
21
21.5026
0
LINE
8
CUT
10
56.375
20
20.8531
11
62.625
21
10.0277
0
LINE
8
CUT
10
69.625
20
20.8531
11
63.375
21
10.0277
0
POLYLINE
8
CUT
66
1
70
0
0
VERTEX
8
CUT
10
58.1356
20
20.7026
0
VERTEX
8
CUT
10
68.6144
20
20.7026
0
VERTEX
8
CUT
10
63
20
10.9782
0
VERTEX
8
CUT
10
57.7606
20
20.0531
0
SEQEND
0
POLYLINE
8
CUT
66
1
70
0
0
VERTEX
8
CUT
10
66.8537
20
19.2531
0
VERTEX
8
CUT
10
63
20
12.5782
0
VERTEX
8
CUT
10
58.7713
20
19.9026
0
VERTEX
8
CUT
10
66.4787
20
19.9026
0
SEQEND
0
POLYLINE
8
CUT
66
1
70
0
0
VERTEX
8
CUT
10
62.625
20
14.8277
0
VERTEX
8
CUT
10
60.1569
20
19.1026
0
VERTEX
8
CUT
10
65.8431
20
19.1026
0
VERTEX
8
CUT
10
63.375
20
14.8277
0
SEQEND
0
POLYLINE
8
CUT
66
1
70
0
0
VERTEX
8
CUT
10
62.2926
20
18.3026
0
VERTEX
8
CUT
10
64.4574
20
18.3026
0
VERTEX
8
CUT
10
63
20
15.7782
0
VERTEX
8
CUT
10
61.9176
20
17.6531
0
SEQEND
0
POLYLINE
8
CUT
66
1
70
0
0
VERTEX
8
CUT
10
65.1356
20
10.1782
0
VERTEX
8
CUT
10
75.6144
20
10.1782
0
VERTEX
8
CUT
10
70
20
19.9026
0
VERTEX
8
CUT
10
64.7606
20
10.8277
0
SEQEND
0
POLYLINE
8
CUT
66
1
70
0
0
VERTEX
8
CUT
10
73.8537
20
11.6277
0
VERTEX
8
CUT
10
70
20
18.3026
0
VERTEX
8
CUT
10
65.7713
20
10.9782
0
VERTEX
8
CUT
10
73.4787
20
10.9782
0
SEQEND
0
POLYLINE
8
CUT
66
1
70
0
0
VERTEX
8
CUT
10
69.625
20
16.0531
0
VERTEX
8
CUT
10
67.1569
20
11.7782
0
VERTEX
8
CUT
10
72.8431
20
11.7782
0
VERTEX
8
CUT
10
70.375
20
16.0531
0
SEQEND
0
POLYLINE
8
CUT
66
1
70
0
0
VERTEX
8
CUT
10
69.2926
20
12.5782
0
VERTEX
8
CUT
10
71.4574
20
12.5782
0
VERTEX
8
CUT
10
70
20
15.1026
0
VERTEX
8
CUT
10
68.9176
20
13.2277
0
SEQEND
0
LINE
8
CUT
10
70.75
20
21.5026
11
83.25
21
21.5026
0
LINE
8
CUT
10
70.375
20
20.8531
11
76.625
21
10.0277
0
LINE
8
CUT
10
83.625
20
20.8531
11
77.375
21
10.0277
0
POLYLINE
8
CUT
66
1
70
0
0
VERTEX
8
CUT
10
72.1356
20
20.7026
0
VERTEX
8
CUT
10
82.6144
20
20.7026
0
VERTEX
8
CUT
10
77
20
10.9782
0
VERTEX
8
CUT
10
71.7606
20
20.0531
0
SEQEND
0
POLYLINE
8
CUT
66
1
70
0
0
VERTEX
8
CUT
10
80.8537
20
19.2531
0
VERTEX
8
CUT
10
77
20
12.5782
0
VERTEX
8
CUT
10
72.7713
20
19.9026
0
VERTEX
8
CUT
10
80.4787
20
19.9026
0
SEQEND
0
POLYLINE
8
CUT
66
1
70
0
0
VERTEX
8
CUT
10
76.625
20
14.8277
0
VERTEX
8
CUT
10
74.1569
20
19.1026
0
VERTEX
8
CUT
10
79.8431
20
19.1026
0
VERTEX
8
CUT
10
77.375
20
14.8277
0
SEQEND
0
POLYLINE
8
CUT
66
1
70
0
0
VERTEX
8
CUT
10
76.2926
20
18.3026
0
VERTEX
8
CUT
10
78.4574
20
18.3026
0
VERTEX
8
CUT
10
77
20
15.7782
0
VERTEX
8
CUT
10
75.9176
20
17.6531
0
SEQEND
0
POLYLINE
8
CUT
66
1
70
0
0
VERTEX
8
CUT
10
79.1356
20
10.1782
0
VERTEX
8
CUT
10
89.6144
20
10.1782
0
VERTEX
8
CUT
10
84
20
19.9026
0
VERTEX
8
CUT
10
78.7606
20
10.8277
0
SEQEND
0
POLYLINE
8
CUT
66
1
70
0
0
VERTEX
8
CUT
10
87.8537
20
11.6277
0
VERTEX
8
CUT
10
84
20
18.3026
0
VERTEX
8
CUT
10
79.7713
20
10.9782
0
VERTEX
8
CUT
10
87.4787
20
10.9782
0
SEQEND
0
POLYLINE
8
CUT
66
1
70
0
0
VERTEX
8
CUT
10
83.625
20
16.0531
0
VERTEX
8
CUT
10
81.1569
20
11.7782
0
VERTEX
8
CUT
10
86.8431
20
11.7782
0
VERTEX
8
CUT
10
84.375
20
16.0531
0
SEQEND
0
POLYLINE
8
CUT
66
1
70
0
0
VERTEX
8
CUT
10
83.2926
20
12.5782
0
VERTEX
8
CUT
10
85.4574
20
12.5782
0
VERTEX
8
CUT
10
84
20
15.1026
0
VERTEX
8
CUT
10
82.9176
20
13.2277
0
SEQEND
0
LINE
8
CUT
10
84.75
20
21.5026
11
97.25
21
21.5026
0
LINE
8
CUT
10
84.375
20
20.8531
11
90.625
21
10.0277
0
LINE
8
CUT
10
97.625
20
20.8531
11
91.375
21
10.0277
0
POLYLINE
8
CUT
66
1
70
0
0
VERTEX
8
CUT
10
86.1356
20
20.7026
0
VERTEX
8
CUT
10
96.6144
20
20.7026
0
VERTEX
8
CUT
10
91
20
10.9782
0
VERTEX
8
CUT
10
85.7606
20
20.0531
0
SEQEND
0
POLYLINE
8
CUT
66
1
70
0
0
VERTEX
8
CUT
10
94.8537
20
19.2531
0
VERTEX
8
CUT
10
91
20
12.5782
0
VERTEX
8
CUT
10
86.7713
20
19.9026
0
VERTEX
8
CUT
10
94.4787
20
19.9026
0
SEQEND
0
POLYLINE
8
CUT
66
1
70
0
0
VERTEX
8
CUT
10
90.625
20
14.8277
0
VERTEX
8
CUT
10
88.1569
20
19.1026
0
VERTEX
8
CUT
10
93.8431
20
19.1026
0
VERTEX
8
CUT
10
91.375
20
14.8277
0
SEQEND
0
POLYLINE
8
CUT
66
1
70
0
0
VERTEX
8
CUT
10
90.2926
20
18.3026
0
VERTEX
8
CUT
10
92.4574
20
18.3026
0
VERTEX
8
CUT
10
91
20
15.7782
0
VERTEX
8
CUT
10
89.9176
20
17.6531
0
SEQEND
0
POLYLINE
8
CUT
66
1
70
0
0
VERTEX
8
CUT
10
93.1356
20
10.1782
0
VERTEX
8
CUT
10
103.6144
20
10.1782
0
VERTEX
8
CUT
10
98
20
19.9026
0
VERTEX
8
CUT
10
92.7606
20
10.8277
0
SEQEND
0
POLYLINE
8
CUT
66
1
70
0
0
VERTEX
8
CUT
10
101.8537
20
11.6277
0
VERTEX
8
CUT
10
98
20
18.3026
0
VERTEX
8
CUT
10
93.7713
20
10.9782
0
VERTEX
8
CUT
10
101.4787
20
10.9782
0
SEQEND
0
POLYLINE
8
CUT
66
1
70
0
0
VERTEX
8
CUT
10
97.625
20
16.0531
0
VERTEX
8
CUT
10
95.1569
20
11.7782
0
VERTEX
8
CUT
10
100.8431
20
11.7782
0
VERTEX
8
CUT
10
98.375
20
16.0531
0
SEQEND
0
POLYLINE
8
CUT
66
1
70
0
0
VERTEX
8
CUT
10
97.2926
20
12.5782
0
VERTEX
8
CUT
10
99.4574
20
12.5782
0
VERTEX
8
CUT
10
98
20
15.1026
0
VERTEX
8
CUT
10
96.9176
20
13.2277
0
SEQEND
0
LINE
8
CUT
10
98.75
20
21.5026
11
111.25
21
21.5026
0
LINE
8
CUT
10
98.375
20
20.8531
11
104.625
21
10.0277
0
LINE
8
CUT
10
111.625
20
20.8531
11
105.375
21
10.0277
0
POLYLINE
8
CUT
66
1
70
0
0
VERTEX
8
CUT
10
100.1356
20
20.7026
0
VERTEX
8
CUT
10
110.6144
20
20.7026
0
VERTEX
8
CUT
10
105
20
10.9782
0
VERTEX
8
CUT
10
99.7606
20
20.0531
0
SEQEND
0
POLYLINE
8
CUT
66
1
70
0
0
VERTEX
8
CUT
10
108.8537
20
19.2531
0
VERTEX
8
CUT
10
105
20
12.5782
0
VERTEX
8
CUT
10
100.7713
20
19.9026
0
VERTEX
8
CUT
10
108.4787
20
19.9026
0
SEQEND
0
POLYLINE
8
CUT
66
1
70
0
0
VERTEX
8
CUT
10
104.625
20
14.8277
0
VERTEX
8
CUT
10
102.1569
20
19.1026
0
VERTEX
8
CUT
10
107.8431
20
19.1026
0
VERTEX
8
CUT
10
105.375
20
14.8277
0
SEQEND
0
POLYLINE
8
CUT
66
1
70
0
0
VERTEX
8
CUT
10
104.2926
20
18.3026
0
VERTEX
8
CUT
10
106.4574
20
18.3026
0
VERTEX
8
CUT
10
105
20
15.7782
0
VERTEX
8
CUT
10
103.9176
20
17.6531
0
SEQEND
0
POLYLINE
8
CUT
66
1
70
0
0
VERTEX
8
CUT
10
107.1356
20
10.1782
0
VERTEX
8
CUT
10
117.6144
20
10.1782
0
VERTEX
8
CUT
10
112
20
19.9026
0
VERTEX
8
CUT
10
106.7606
20
10.8277
0
SEQEND
0
POLYLINE
8
CUT
66
1
70
0
0
VERTEX
8
CUT
10
115.8537
20
11.6277
0
VERTEX
8
CUT
10
112
20
18.3026
0
VERTEX
8
CUT
10
107.7713
20
10.9782
0
VERTEX
8
CUT
10
115.4787
20
10.9782
0
SEQEND
0
POLYLINE
8
CUT
66
1
70
0
0
VERTEX
8
CUT
10
111.625
20
16.0531
0
VERTEX
8
CUT
10
109.1569
20
11.7782
0
VERTEX
8
CUT
10
114.8431
20
11.7782
0
VERTEX
8
CUT
10
112.375
20
16.0531
0
SEQEND
0
POLYLINE
8
CUT
66
1
70
0
0
VERTEX
8
CUT
10
111.2926
20
12.5782
0
VERTEX
8
CUT
10
113.4574
20
12.5782
0
VERTEX
8
CUT
10
112
20
15.1026
0
VERTEX
8
CUT
10
110.9176
20
13.2277
0
SEQEND
0
LINE
8
CUT
10
112.75
20
21.5026
11
120
21
21.5026
0
LINE
8
CUT
10
112.375
20
20.8531
11
118.625
21
10.0277
0
LINE
8
CUT
10
120
20
11.1103
11
119.375
21
10.0277
0
LINE
8
CUT
10
114.1356
20
20.7026
11
120
21
20.7026
0
POLYLINE
8
CUT
66
1
70
0
0
VERTEX
8
CUT
10
120
20
12.7103
0
VERTEX
8
CUT
10
119
20
10.9782
0
VERTEX
8
CUT
10
113.7606
20
20.0531
0
SEQEND
0
POLYLINE
8
CUT
66
1
70
0
0
VERTEX
8
CUT
10
120
20
14.3103
0
VERTEX
8
CUT
10
119
20
12.5782
0
VERTEX
8
CUT
10
114.7713
20
19.9026
0
VERTEX
8
CUT
10
120
20
19.9026
0
SEQEND
0
POLYLINE
8
CUT
66
1
70
0
0
VERTEX
8
CUT
10
118.625
20
14.8277
0
VERTEX
8
CUT
10
116.1569
20
19.1026
0
VERTEX
8
CUT
10
120
20
19.1026
0
SEQEND
0
LINE
8
CUT
10
120
20
15.9103
11
119.375
21
14.8277
0
LINE
8
CUT
10
118.2926
20
18.3026
11
120
21
18.3026
0
POLYLINE
8
CUT
66
1
70
0
0
VERTEX
8
CUT
10
120
20
17.5103
0
VERTEX
8
CUT
10
119
20
15.7782
0
VERTEX
8
CUT
10
117.9176
20
17.6531
0
SEQEND
0
LINE
8
CUT
10
0
20
9.3782
11
6.25
21
9.3782
0
LINE
8
CUT
10
6.625
20
8.7287
11
1.5855
21
0
0
POLYLINE
8
CUT
66
1
70
0
0
VERTEX
8
CUT
10
0
20
8.5782
0
VERTEX
8
CUT
10
5.6144
20
8.5782
0
VERTEX
8
CUT
10
0.6617
20
0
0
SEQEND
0
POLYLINE
8
CUT
66
1
70
0
0
VERTEX
8
CUT
10
3.8537
20
7.1287
0
VERTEX
8
CUT
10
0
20
0.4539
0
VERTEX
8
CUT
10
0
20
0.4539
0
SEQEND
0
LINE
8
CUT
10
0
20
7.7782
11
3.4787
21
7.7782
0
POLYLINE
8
CUT
66
1
70
0
0
VERTEX
8
CUT
10
0
20
6.9782
0
VERTEX
8
CUT
10
2.8431
20
6.9782
0
VERTEX
8
CUT
10
0.375
20
2.7034
0
SEQEND
0
POLYLINE
8
CUT
66
1
70
0
0
VERTEX
8
CUT
10
0
20
6.1782
0
VERTEX
8
CUT
10
1.4574
20
6.1782
0
VERTEX
8
CUT
10
0
20
3.6539
0
VERTEX
8
CUT
10
0
20
3.6539
0
SEQEND
0
POLYLINE
8
CUT
66
1
70
0
0
VERTEX
8
CUT
10
11.4908
20
0
0
VERTEX
8
CUT
10
7
20
7.7782
0
VERTEX
8
CUT
10
2.5092
20
0
0
SEQEND
0
POLYLINE
8
CUT
66
1
70
0
0
VERTEX
8
CUT
10
10.567
20
0
0
VERTEX
8
CUT
10
7
20
6.1782
0
VERTEX
8
CUT
10
3.433
20
0
0
SEQEND
0
LINE
8
CUT
10
6.625
20
3.9287
11
4.3568
21
0
0
LINE
8
CUT
10
9.6432
20
0
11
7.375
21
3.9287
0
POLYLINE
8
CUT
66
1
70
0
0
VERTEX
8
CUT
10
6.2926
20
0.4539
0
VERTEX
8
CUT
10
8.4574
20
0.4539
0
VERTEX
8
CUT
10
7
20
2.9782
0
VERTEX
8
CUT
10
5.9176
20
1.1034
0
SEQEND
0
LINE
8
CUT
10
7.75
20
9.3782
11
20.25
21
9.3782
0
LINE
8
CUT
10
7.375
20
8.7287
11
12.4145
21
0
0
LINE
8
CUT
10
20.625
20
8.7287
11
15.5855
21
0
0
POLYLINE
8
CUT
66
1
70
0
0
VERTEX
8
CUT
10
9.1356
20
8.5782
0
VERTEX
8
CUT
10
19.6144
20
8.5782
0
VERTEX
8
CUT
10
14.6617
20
0
0
SEQEND
0
LINE
8
CUT
10
13.3383
20
0
11
8.7606
21
7.9287
0
POLYLINE
8
CUT
66
1
70
0
0
VERTEX
8
CUT
10
17.8537
20
7.1287
0
VERTEX
8
CUT
10
14
20
0.4539
0
VERTEX
8
CUT
10
9.7713
20
7.7782
0
VERTEX
8
CUT
10
17.4787
20
7.7782
0
SEQEND
0
POLYLINE
8
CUT
66
1
70
0
0
VERTEX
8
CUT
10
13.625
20
2.7034
0
VERTEX
8
CUT
10
11.1569
20
6.9782
0
VERTEX
8
CUT
10
16.8431
20
6.9782
0
VERTEX
8
CUT
10
14.375
20
2.7034
0
SEQEND
0
POLYLINE
8
CUT
66
1
70
0
0
VERTEX
8
CUT
10
13.2926
20
6.1782
0
VERTEX
8
CUT
10
15.4574
20
6.1782
0
VERTEX
8
CUT
10
14
20
3.6539
0
VERTEX
8
CUT
10
12.9176
20
5.5287
0
SEQEND
0
POLYLINE
8
CUT
66
1
70
0
0
VERTEX
8
CUT
10
25.4908
20
0
0
VERTEX
8
CUT
10
21
20
7.7782
0
VERTEX
8
CUT
10
16.5092
20
0
0
SEQEND
0
POLYLINE
8
CUT
66
1
70
0
0
VERTEX
8
CUT
10
24.567
20
0
0
VERTEX
8
CUT
10
21
20
6.1782
0
VERTEX
8
CUT
10
17.433
20
0
0
SEQEND
0
LINE
8
CUT
10
20.625
20
3.9287
11
18.3568
21
0
0
LINE
8
CUT
10
23.6432
20
0
11
21.375
21
3.9287
0
POLYLINE
8
CUT
66
1
70
0
0
VERTEX
8
CUT
10
20.2926
20
0.4539
0
VERTEX
8
CUT
10
22.4574
20
0.4539
0
VERTEX
8
CUT
10
21
20
2.9782
0
VERTEX
8
CUT
10
19.9176
20
1.1034
0
SEQEND
0
LINE
8
CUT
10
21.75
20
9.3782
11
34.25
21
9.3782
0
LINE
8
CUT
10
21.375
20
8.7287
11
26.4145
21
0
0
LINE
8
CUT
10
34.625
20
8.7287
11
29.5855
21
0
0
POLYLINE
8
CUT
66
1
70
0
0
VERTEX
8
CUT
10
23.1356
20
8.5782
0
VERTEX
8
CUT
10
33.6144
20
8.5782
0
VERTEX
8
CUT
10
28.6617
20
0
0
SEQEND
0
LINE
8
CUT
10
27.3383
20
0
11
22.7606
21
7.9287
0
POLYLINE
8
CUT
66
1
70
0
0
VERTEX
8
CUT
10
31.8537
20
7.1287
0
VERTEX
8
CUT
10
28
20
0.4539
0
VERTEX
8
CUT
10
23.7713
20
7.7782
0
VERTEX
8
CUT
10
31.4787
20
7.7782
0
SEQEND
0
POLYLINE
8
CUT
66
1
70
0
0
VERTEX
8
CUT
10
27.625
20
2.7034
0
VERTEX
8
CUT
10
25.1569
20
6.9782
0
VERTEX
8
CUT
10
30.8431
20
6.9782
0
VERTEX
8
CUT
10
28.375
20
2.7034
0
SEQEND
0
POLYLINE
8
CUT
66
1
70
0
0
VERTEX
8
CUT
10
27.2926
20
6.1782
0
VERTEX
8
CUT
10
29.4574
20
6.1782
0
VERTEX
8
CUT
10
28
20
3.6539
0
VERTEX
8
CUT
10
26.9176
20
5.5287
0
SEQEND
0
POLYLINE
8
CUT
66
1
70
0
0
VERTEX
8
CUT
10
39.4908
20
0
0
VERTEX
8
CUT
10
35
20
7.7782
0
VERTEX
8
CUT
10
30.5092
20
0
0
SEQEND
0
POLYLINE
8
CUT
66
1
70
0
0
VERTEX
8
CUT
10
38.567
20
0
0
VERTEX
8
CUT
10
35
20
6.1782
0
VERTEX
8
CUT
10
31.433
20
0
0
SEQEND
0
LINE
8
CUT
10
34.625
20
3.9287
11
32.3568
21
0
0
LINE
8
CUT
10
37.6432
20
0
11
35.375
21
3.9287
0
POLYLINE
8
CUT
66
1
70
0
0
VERTEX
8
CUT
10
34.2926
20
0.4539
0
VERTEX
8
CUT
10
36.4574
20
0.4539
0
VERTEX
8
CUT
10
35
20
2.9782
0
VERTEX
8
CUT
10
33.9176
20
1.1034
0
SEQEND
0
LINE
8
CUT
10
35.75
20
9.3782
11
48.25
21
9.3782
0
LINE
8
CUT
10
35.375
20
8.7287
11
40.4145
21
0
0
LINE
8
CUT
10
48.625
20
8.7287
11
43.5855
21
0
0
POLYLINE
8
CUT
66
1
70
0
0
VERTEX
8
CUT
10
37.1356
20
8.5782
0
VERTEX
8
CUT
10
47.6144
20
8.5782
0
VERTEX
8
CUT
10
42.6617
20
0
0
SEQEND
0
LINE
8
CUT
10
41.3383
20
0
11
36.7606
21
7.9287
0
POLYLINE
8
CUT
66
1
70
0
0
VERTEX
8
CUT
10
45.8537
20
7.1287
0
VERTEX
8
CUT
10
42
20
0.4539
0
VERTEX
8
CUT
10
37.7713
20
7.7782
0
VERTEX
8
CUT
10
45.4787
20
7.7782
0
SEQEND
0
POLYLINE
8
CUT
66
1
70
0
0
VERTEX
8
CUT
10
41.625
20
2.7034
0
VERTEX
8
CUT
10
39.1569
20
6.9782
0
VERTEX
8
CUT
10
44.8431
20
6.9782
0
VERTEX
8
CUT
10
42.375
20
2.7034
0
SEQEND
0
POLYLINE
8
CUT
66
1
70
0
0
VERTEX
8
CUT
10
41.2926
20
6.1782
0
VERTEX
8
CUT
10
43.4574
20
6.1782
0
VERTEX
8
CUT
10
42
20
3.6539
0
VERTEX
8
CUT
10
40.9176
20
5.5287
0
SEQEND
0
POLYLINE
8
CUT
66
1
70
0
0
VERTEX
8
CUT
10
53.4908
20
0
0
VERTEX
8
CUT
10
49
20
7.7782
0
VERTEX
8
CUT
10
44.5092
20
0
0
SEQEND
0
POLYLINE
8
CUT
66
1
70
0
0
VERTEX
8
CUT
10
52.567
20
0
0
VERTEX
8
CUT
10
49
20
6.1782
0
VERTEX
8
CUT
10
45.433
20
0
0
SEQEND
0
LINE
8
CUT
10
48.625
20
3.9287
11
46.3568
21
0
0
LINE
8
CUT
10
51.6432
20
0
11
49.375
21
3.9287
0
POLYLINE
8
CUT
66
1
70
0
0
VERTEX
8
CUT
10
48.2926
20
0.4539
0
VERTEX
8
CUT
10
50.4574
20
0.4539
0
VERTEX
8
CUT
10
49
20
2.9782
0
VERTEX
8
CUT
10
47.9176
20
1.1034
0
SEQEND
0
LINE
8
CUT
10
49.75
20
9.3782
11
62.25
21
9.3782
0
LINE
8
CUT
10
49.375
20
8.7287
11
54.4145
21
0
0
LINE
8
CUT
10
62.625
20
8.7287
11
57.5855
21
0
0
POLYLINE
8
CUT
66
1
70
0
0
VERTEX
8
CUT
10
51.1356
20
8.5782
0
VERTEX
8
CUT
10
61.6144
20
8.5782
0
VERTEX
8
CUT
10
56.6617
20
0
0
SEQEND
0
LINE
8
CUT
10
55.3383
20
0
11
50.7606
21
7.9287
0
POLYLINE
8
CUT
66
1
70
0
0
VERTEX
8
CUT
10
59.8537
20
7.1287
0
VERTEX
8
CUT
10
56
20
0.4539
0
VERTEX
8
CUT
10
51.7713
20
7.7782
0
VERTEX
8
CUT
10
59.4787
20
7.7782
0
SEQEND
0
POLYLINE
8
CUT
66
1
70
0
0
VERTEX
8
CUT
10
55.625
20
2.7034
0
VERTEX
8
CUT
10
53.1569
20
6.9782
0
VERTEX
8
CUT
10
58.8431
20
6.9782
0
VERTEX
8
CUT
10
56.375
20
2.7034
0
SEQEND
0
POLYLINE
8
CUT
66
1
70
0
0
VERTEX
8
CUT
10
55.2926
20
6.1782
0
VERTEX
8
CUT
10
57.4574
20
6.1782
0
VERTEX
8
CUT
10
56
20
3.6539
0
VERTEX
8
CUT
10
54.9176
20
5.5287
0
SEQEND
0
POLYLINE
8
CUT
66
1
70
0
0
VERTEX
8
CUT
10
67.4908
20
0
0
VERTEX
8
CUT
10
63
20
7.7782
0
VERTEX
8
CUT
10
58.5092
20
0
0
SEQEND
0
POLYLINE
8
CUT
66
1
70
0
0
VERTEX
8
CUT
10
66.567
20
0
0
VERTEX
8
CUT
10
63
20
6.1782
0
VERTEX
8
CUT
10
59.433
20
0
0
SEQEND
0
LINE
8
CUT
10
62.625
20
3.9287
11
60.3568
21
0
0
LINE
8
CUT
10
65.6432
20
0
11
63.375
21
3.9287
0
POLYLINE
8
CUT
66
1
70
0
0
VERTEX
8
CUT
10
62.2926
20
0.4539
0
VERTEX
8
CUT
10
64.4574
20
0.4539
0
VERTEX
8
CUT
10
63
20
2.9782
0
VERTEX
8
CUT
10
61.9176
20
1.1034
0
SEQEND
0
LINE
8
CUT
10
63.75
20
9.3782
11
76.25
21
9.3782
0
LINE
8
CUT
10
63.375
20
8.7287
11
68.4145
21
0
0
LINE
8
CUT
10
76.625
20
8.7287
11
71.5855
21
0
0
POLYLINE
8
CUT
66
1
70
0
0
VERTEX
8
CUT
10
65.1356
20
8.5782
0
VERTEX
8
CUT
10
75.6144
20
8.5782
0
VERTEX
8
CUT
10
70.6617
20
0
0
SEQEND
0
LINE
8
CUT
10
69.3383
20
0
11
64.7606
21
7.9287
0
POLYLINE
8
CUT
66
1
70
0
0
VERTEX
8
CUT
10
73.8537
20
7.1287
0
VERTEX
8
CUT
10
70
20
0.4539
0
VERTEX
8
CUT
10
65.7713
20
7.7782
0
VERTEX
8
CUT
10
73.4787
20
7.7782
0
SEQEND
0
POLYLINE
8
CUT
66
1
70
0
0
VERTEX
8
CUT
10
69.625
20
2.7034
0
VERTEX
8
CUT
10
67.1569
20
6.9782
0
VERTEX
8
CUT
10
72.8431
20
6.9782
0
VERTEX
8
CUT
10
70.375
20
2.7034
0
SEQEND
0
POLYLINE
8
CUT
66
1
70
0
0
VERTEX
8
CUT
10
69.2926
20
6.1782
0
VERTEX
8
CUT
10
71.4574
20
6.1782
0
VERTEX
8
CUT
10
70
20
3.6539
0
VERTEX
8
CUT
10
68.9176
20
5.5287
0
SEQEND
0
POLYLINE
8
CUT
66
1
70
0
0
VERTEX
8
CUT
10
81.4908
20
0
0
VERTEX
8
CUT
10
77
20
7.7782
0
VERTEX
8
CUT
10
72.5092
20
0
0
SEQEND
0
POLYLINE
8
CUT
66
1
70
0
0
VERTEX
8
CUT
10
80.567
20
0
0
VERTEX
8
CUT
10
77
20
6.1782
0
VERTEX
8
CUT
10
73.433
20
0
0
SEQEND
0
LINE
8
CUT
10
76.625
20
3.9287
11
74.3568
21
0
0
LINE
8
CUT
10
79.6432
20
0
11
77.375
21
3.9287
0
POLYLINE
8
CUT
66
1
70
0
0
VERTEX
8
CUT
10
76.2926
20
0.4539
0
VERTEX
8
CUT
10
78.4574
20
0.4539
0
VERTEX
8
CUT
10
77
20
2.9782
0
VERTEX
8
CUT
10
75.9176
20
1.1034
0
SEQEND
0
LINE
8
CUT
10
77.75
20
9.3782
11
90.25
21
9.3782
0
LINE
8
CUT
10
77.375
20
8.7287
11
82.4145
21
0
0
LINE
8
CUT
10
90.625
20
8.7287
11
85.5855
21
0
0
POLYLINE
8
CUT
66
1
70
0
0
VERTEX
8
CUT
10
79.1356
20
8.5782
0
VERTEX
8
CUT
10
89.6144
20
8.5782
0
VERTEX
8
CUT
10
84.6617
20
0
0
SEQEND
0
LINE
8
CUT
10
83.3383
20
0
11
78.7606
21
7.9287
0
POLYLINE
8
CUT
66
1
70
0
0
VERTEX
8
CUT
10
87.8537
20
7.1287
0
VERTEX
8
CUT
10
84
20
0.4539
0
VERTEX
8
CUT
10
79.7713
20
7.7782
0
VERTEX
8
CUT
10
87.4787
20
7.7782
0
SEQEND
0
POLYLINE
8
CUT
66
1
70
0
0
VERTEX
8
CUT
10
83.625
20
2.7034
0
VERTEX
8
CUT
10
81.1569
20
6.9782
0
VERTEX
8
CUT
10
86.8431
20
6.9782
0
VERTEX
8
CUT
10
84.375
20
2.7034
0
SEQEND
0
POLYLINE
8
CUT
66
1
70
0
0
VERTEX
8
CUT
10
83.2926
20
6.1782
0
VERTEX
8
CUT
10
85.4574
20
6.1782
0
VERTEX
8
CUT
10
84
20
3.6539
0
VERTEX
8
CUT
10
82.9176
20
5.5287
0
SEQEND
0
POLYLINE
8
CUT
66
1
70
0
0
VERTEX
8
CUT
10
95.4908
20
0
0
VERTEX
8
CUT
10
91
20
7.7782
0
VERTEX
8
CUT
10
86.5092
20
0
0
SEQEND
0
POLYLINE
8
CUT
66
1
70
0
0
VERTEX
8
CUT
10
94.567
20
0
0
VERTEX
8
CUT
10
91
20
6.1782
0
VERTEX
8
CUT
10
87.433
20
0
0
SEQEND
0
LINE
8
CUT
10
90.625
20
3.9287
11
88.3568
21
0
0
LINE
8
CUT
10
93.6432
20
0
11
91.375
21
3.9287
0
POLYLINE
8
CUT
66
1
70
0
0
VERTEX
8
CUT
10
90.2926
20
0.4539
0
VERTEX
8
CUT
10
92.4574
20
0.4539
0
VERTEX
8
CUT
10
91
20
2.9782
0
VERTEX
8
CUT
10
89.9176
20
1.1034
0
SEQEND
0
LINE
8
CUT
10
91.75
20
9.3782
11
104.25
21
9.3782
0
LINE
8
CUT
10
91.375
20
8.7287
11
96.4145
21
0
0
LINE
8
CUT
10
104.625
20
8.7287
11
99.5855
21
0
0
POLYLINE
8
CUT
66
1
70
0
0
VERTEX
8
CUT
10
93.1356
20
8.5782
0
VERTEX
8
CUT
10
103.6144
20
8.5782
0
VERTEX
8
CUT
10
98.6617
20
0
0
SEQEND
0
LINE
8
CUT
10
97.3383
20
0
11
92.7606
21
7.9287
0
POLYLINE
8
CUT
66
1
70
0
0
VERTEX
8
CUT
10
101.8537
20
7.1287
0
VERTEX
8
CUT
10
98
20
0.4539
0
VERTEX
8
CUT
10
93.7713
20
7.7782
0
VERTEX
8
CUT
10
101.4787
20
7.7782
0
SEQEND
0
POLYLINE
8
CUT
66
1
70
0
0
VERTEX
8
CUT
10
97.625
20
2.7034
0
VERTEX
8
CUT
10
95.1569
20
6.9782
0
VERTEX
8
CUT
10
100.8431
20
6.9782
0
VERTEX
8
CUT
10
98.375
20
2.7034
0
SEQEND
0
POLYLINE
8
CUT
66
1
70
0
0
VERTEX
8
CUT
10
97.2926
20
6.1782
0
VERTEX
8
CUT
10
99.4574
20
6.1782
0
VERTEX
8
CUT
10
98
20
3.6539
0
VERTEX
8
CUT
10
96.9176
20
5.5287
0
SEQEND
0
POLYLINE
8
CUT
66
1
70
0
0
VERTEX
8
CUT
10
109.4908
20
0
0
VERTEX
8
CUT
10
105
20
7.7782
0
VERTEX
8
CUT
10
100.5092
20
0
0
SEQEND
0
POLYLINE
8
CUT
66
1
70
0
0
VERTEX
8
CUT
10
108.567
20
0
0
VERTEX
8
CUT
10
105
20
6.1782
0
VERTEX
8
CUT
10
101.433
20
0
0
SEQEND
0
LINE
8
CUT
10
104.625
20
3.9287
11
102.3568
21
0
0
LINE
8
CUT
10
107.6432
20
0
11
105.375
21
3.9287
0
POLYLINE
8
CUT
66
1
70
0
0
VERTEX
8
CUT
10
104.2926
20
0.4539
0
VERTEX
8
CUT
10
106.4574
20
0.4539
0
VERTEX
8
CUT
10
105
20
2.9782
0
VERTEX
8
CUT
10
103.9176
20
1.1034
0
SEQEND
0
LINE
8
CUT
10
105.75
20
9.3782
11
118.25
21
9.3782
0
LINE
8
CUT
10
105.375
20
8.7287
11
110.4145
21
0
0
LINE
8
CUT
10
118.625
20
8.7287
11
113.5855
21
0
0
POLYLINE
8
CUT
66
1
70
0
0
VERTEX
8
CUT
10
107.1356
20
8.5782
0
VERTEX
8
CUT
10
117.6144
20
8.5782
0
VERTEX
8
CUT
10
112.6617
20
0
0
SEQEND
0
LINE
8
CUT
10
111.3383
20
0
11
106.7606
21
7.9287
0
POLYLINE
8
CUT
66
1
70
0
0
VERTEX
8
CUT
10
115.8537
20
7.1287
0
VERTEX
8
CUT
10
112
20
0.4539
0
VERTEX
8
CUT
10
107.7713
20
7.7782
0
VERTEX
8
CUT
10
115.4787
20
7.7782
0
SEQEND
0
POLYLINE
8
CUT
66
1
70
0
0
VERTEX
8
CUT
10
111.625
20
2.7034
0
VERTEX
8
CUT
10
109.1569
20
6.9782
0
VERTEX
8
CUT
10
114.8431
20
6.9782
0
VERTEX
8
CUT
10
112.375
20
2.7034
0
SEQEND
0
POLYLINE
8
CUT
66
1
70
0
0
VERTEX
8
CUT
10
111.2926
20
6.1782
0
VERTEX
8
CUT
10
113.4574
20
6.1782
0
VERTEX
8
CUT
10
112
20
3.6539
0
VERTEX
8
CUT
10
110.9176
20
5.5287
0
SEQEND
0
POLYLINE
8
CUT
66
1
70
0
0
VERTEX
8
CUT
10
120
20
6.0462
0
VERTEX
8
CUT
10
119
20
7.7782
0
VERTEX
8
CUT
10
114.5092
20
0
0
SEQEND
0
POLYLINE
8
CUT
66
1
70
0
0
VERTEX
8
CUT
10
120
20
4.4462
0
VERTEX
8
CUT
10
119
20
6.1782
0
VERTEX
8
CUT
10
115.433
20
0
0
SEQEND
0
LINE
8
CUT
10
118.625
20
3.9287
11
116.3568
21
0
0
LINE
8
CUT
10
120
20
2.8462
11
119.375
21
3.9287
0
LINE
8
CUT
10
118.2926
20
0.4539
11
120
21
0.4539
0
POLYLINE
8
CUT
66
1
70
0
0
VERTEX
8
CUT
10
120
20
1.2462
0
VERTEX
8
CUT
10
119
20
2.9782
0
VERTEX
8
CUT
10
117.9176
20
1.1034
0
SEQEND
0
LINE
8
CUT
10
119.375
20
8.7287
11
120
21
7.6462
0
POLYLINE
8
CUT
66
1
70
0
0
VERTEX
8
CUT
10
0
20
70
0
VERTEX
8
CUT
10
120
20
70
0
VERTEX
8
CUT
10
120
20
0
0
VERTEX
8
CUT
10
0
20
0
0
VERTEX
8
CUT
10
0
20
70
0
SEQEND
0
ENDSEC
0
EOF
