0
SECTION
2
HEADER
9
$ACADVER
1
AC1009
9
$INSUNITS
70
4
0
ENDSEC
0
SECTION
2
TABLES
0
TABLE
2
LAYER
70
1
0
LAYER
2
CUT
70
0
62
1
6
CONTINUOUS
0
ENDTAB
0
ENDSEC
0
SECTION
2
ENTITIES
0
POLYLINE
8
CUT
66
1
70
0
0
VERTEX
8
CUT
10
0
20
62
0
VERTEX
8
CUT
10
7
20
61
0
VERTEX
8
CUT
10
14
20
62
0
VERTEX
8
CUT
10
7
20
63
0
VERTEX
8
CUT
10
0
20
62
0
SEQEND
0
POLYLINE
8
CUT
66
1
70
0
0
VERTEX
8
CUT
10
17
20
62
0
VERTEX
8
CUT
10
24
20
61
0
VERTEX
8
CUT
10
31
20
62
0
VERTEX
8
CUT
10
24
20
63
0
VERTEX
8
CUT
10
17
20
62
0
SEQEND
0
POLYLINE
8
CUT
66
1
70
0
0
VERTEX
8
CUT
10
34
20
62
0
VERTEX
8
CUT
10
41
20
61
0
VERTEX
8
CUT
10
48
20
62
0
VERTEX
8
CUT
10
41
20
63
0
VERTEX
8
CUT
10
34
20
62
0
SEQEND
0
POLYLINE
8
CUT
66
1
70
0
0
VERTEX
8
CUT
10
51
20
62
0
VERTEX
8
CUT
10
58
20
61
0
VERTEX
8
CUT
10
65
20
62
0
VERTEX
8
CUT
10
58
20
63
0
VERTEX
8
CUT
10
51
20
62
0
SEQEND
0
POLYLINE
8
CUT
66
1
70
0
0
VERTEX
8
CUT
10
68
20
62
0
VERTEX
8
CUT
10
75
20
61
0
VERTEX
8
CUT
10
82
20
62
0
VERTEX
8
CUT
10
75
20
63
0
VERTEX
8
CUT
10
68
20
62
0
SEQEND
0
POLYLINE
8
CUT
66
1
70
0
0
VERTEX
8
CUT
10
85
20
62
0
VERTEX
8
CUT
10
92
20
61
0
VERTEX
8
CUT
10
99
20
62
0
VERTEX
8
CUT
10
92
20
63
0
VERTEX
8
CUT
10
85
20
62
0
SEQEND
0
POLYLINE
8
CUT
66
1
70
0
0
VERTEX
8
CUT
10
102
20
62
0
VERTEX
8
CUT
10
109
20
61
0
VERTEX
8
CUT
10
116
20
62
0
VERTEX
8
CUT
10
109
20
63
0
VERTEX
8
CUT
10
102
20
62
0
SEQEND
0
LINE
8
CUT
10
119
20
62
11
120
21
61.8571
0
LINE
8
CUT
10
120
20
62.1429
11
119
21
62
0
POLYLINE
8
CUT
66
1
70
0
0
VERTEX
8
CUT
10
0
20
52.2143
0
VERTEX
8
CUT
10
5.5
20
53
0
VERTEX
8
CUT
10
0
20
53.7857
0
SEQEND
0
POLYLINE
8
CUT
66
1
70
0
0
VERTEX
8
CUT
10
8.5
20
53
0
VERTEX
8
CUT
10
15.5
20
52
0
VERTEX
8
CUT
10
22.5
20
53
0
VERTEX
8
CUT
10
15.5
20
54
0
VERTEX
8
CUT
10
8.5
20
53
0
SEQEND
0
POLYLINE
8
CUT
66
1
70
0
0
VERTEX
8
CUT
10
25.5
20
53
0
VERTEX
8
CUT
10
32.5
20
52
0
VERTEX
8
CUT
10
39.5
20
53
0
VERTEX
8
CUT
10
32.5
20
54
0
VERTEX
8
CUT
10
25.5
20
53
0
SEQEND
0
POLYLINE
8
CUT
66
1
70
0
0
VERTEX
8
CUT
10
42.5
20
53
0
VERTEX
8
CUT
10
49.5
20
52
0
VERTEX
8
CUT
10
56.5
20
53
0
VERTEX
8
CUT
10
49.5
20
54
0
VERTEX
8
CUT
10
42.5
20
53
0
SEQEND
0
POLYLINE
8
CUT
66
1
70
0
0
VERTEX
8
CUT
10
59.5
20
53
0
VERTEX
8
CUT
10
66.5
20
52
0
VERTEX
8
CUT
10
73.5
20
53
0
VERTEX
8
CUT
10
66.5
20
54
0
VERTEX
8
CUT
10
59.5
20
53
0
SEQEND
0
POLYLINE
8
CUT
66
1
70
0
0
VERTEX
8
CUT
10
76.5
20
53
0
VERTEX
8
CUT
10
83.5
20
52
0
VERTEX
8
CUT
10
90.5
20
53
0
VERTEX
8
CUT
10
83.5
20
54
0
VERTEX
8
CUT
10
76.5
20
53
0
SEQEND
0
POLYLINE
8
CUT
66
1
70
0
0
VERTEX
8
CUT
10
93.5
20
53
0
VERTEX
8
CUT
10
100.5
20
52
0
VERTEX
8
CUT
10
107.5
20
53
0
VERTEX
8
CUT
10
100.5
20
54
0
VERTEX
8
CUT
10
93.5
20
53
0
SEQEND
0
POLYLINE
8
CUT
66
1
70
0
0
VERTEX
8
CUT
10
110.5
20
53
0
VERTEX
8
CUT
10
117.5
20
52
0
VERTEX
8
CUT
10
120
20
52.3571
0
SEQEND
0
POLYLINE
8
CUT
66
1
70
0
0
VERTEX
8
CUT
10
120
20
53.6429
0
VERTEX
8
CUT
10
117.5
20
54
0
VERTEX
8
CUT
10
110.5
20
53
0
SEQEND
0
POLYLINE
8
CUT
66
1
70
0
0
VERTEX
8
CUT
10
0
20
44
0
VERTEX
8
CUT
10
7
20
43
0
VERTEX
8
CUT
10
14
20
44
0
VERTEX
8
CUT
10
7
20
45
0
VERTEX
8
CUT
10
0
20
44
0
SEQEND
0
POLYLINE
8
CUT
66
1
70
0
0
VERTEX
8
CUT
10
17
20
44
0
VERTEX
8
CUT
10
24
20
43
0
VERTEX
8
CUT
10
31
20
44
0
VERTEX
8
CUT
10
24
20
45
0
VERTEX
8
CUT
10
17
20
44
0
SEQEND
0
POLYLINE
8
CUT
66
1
70
0
0
VERTEX
8
CUT
10
34
20
44
0
VERTEX
8
CUT
10
41
20
43
0
VERTEX
8
CUT
10
48
20
44
0
VERTEX
8
CUT
10
41
20
45
0
VERTEX
8
CUT
10
34
20
44
0
SEQEND
0
POLYLINE
8
CUT
66
1
70
0
0
VERTEX
8
CUT
10
51
20
44
0
VERTEX
8
CUT
10
58
20
43
0
VERTEX
8
CUT
10
65
20
44
0
VERTEX
8
CUT
10
58
20
45
0
VERTEX
8
CUT
10
51
20
44
0
SEQEND
0
POLYLINE
8
CUT
66
1
70
0
0
VERTEX
8
CUT
10
68
20
44
0
VERTEX
8
CUT
10
75
20
43
0
VERTEX
8
CUT
10
82
20
44
0
VERTEX
8
CUT
10
75
20
45
0
VERTEX
8
CUT
10
68
20
44
0
SEQEND
0
POLYLINE
8
CUT
66
1
70
0
0
VERTEX
8
CUT
10
85
20
44
0
VERTEX
8
CUT
10
92
20
43
0
VERTEX
8
CUT
10
99
20
44
0
VERTEX
8
CUT
10
92
20
45
0
VERTEX
8
CUT
10
85
20
44
0
SEQEND
0
POLYLINE
8
CUT
66
1
70
0
0
VERTEX
8
CUT
10
102
20
44
0
VERTEX
8
CUT
10
109
20
43
0
VERTEX
8
CUT
10
116
20
44
0
VERTEX
8
CUT
10
109
20
45
0
VERTEX
8
CUT
10
102
20
44
0
SEQEND
0
LINE
8
CUT
10
119
20
44
11
120
21
43.8571
0
LINE
8
CUT
10
120
20
44.1429
11
119
21
44
0
POLYLINE
8
CUT
66
1
70
0
0
VERTEX
8
CUT
10
0
20
34.2143
0
VERTEX
8
CUT
10
5.5
20
35
0
VERTEX
8
CUT
10
0
20
35.7857
0
SEQEND
0
POLYLINE
8
CUT
66
1
70
0
0
VERTEX
8
CUT
10
8.5
20
35
0
VERTEX
8
CUT
10
15.5
20
34
0
VERTEX
8
CUT
10
22.5
20
35
0
VERTEX
8
CUT
10
15.5
20
36
0
VERTEX
8
CUT
10
8.5
20
35
0
SEQEND
0
POLYLINE
8
CUT
66
1
70
0
0
VERTEX
8
CUT
10
25.5
20
35
0
VERTEX
8
CUT
10
32.5
20
34
0
VERTEX
8
CUT
10
39.5
20
35
0
VERTEX
8
CUT
10
32.5
20
36
0
VERTEX
8
CUT
10
25.5
20
35
0
SEQEND
0
POLYLINE
8
CUT
66
1
70
0
0
VERTEX
8
CUT
10
42.5
20
35
0
VERTEX
8
CUT
10
49.5
20
34
0
VERTEX
8
CUT
10
56.5
20
35
0
VERTEX
8
CUT
10
49.5
20
36
0
VERTEX
8
CUT
10
42.5
20
35
0
SEQEND
0
POLYLINE
8
CUT
66
1
70
0
0
VERTEX
8
CUT
10
59.5
20
35
0
VERTEX
8
CUT
10
66.5
20
34
0
VERTEX
8
CUT
10
73.5
20
35
0
VERTEX
8
CUT
10
66.5
20
36
0
VERTEX
8
CUT
10
59.5
20
35
0
SEQEND
0
POLYLINE
8
CUT
66
1
70
0
0
VERTEX
8
CUT
10
76.5
20
35
0
VERTEX
8
CUT
10
83.5
20
34
0
VERTEX
8
CUT
10
90.5
20
35
0
VERTEX
8
CUT
10
83.5
20
36
0
VERTEX
8
CUT
10
76.5
20
35
0
SEQEND
0
POLYLINE
8
CUT
66
1
70
0
0
VERTEX
8
CUT
10
93.5
20
35
0
VERTEX
8
CUT
10
100.5
20
34
0
VERTEX
8
CUT
10
107.5
20
35
0
VERTEX
8
CUT
10
100.5
20
36
0
VERTEX
8
CUT
10
93.5
20
35
0
SEQEND
0
POLYLINE
8
CUT
66
1
70
0
0
VERTEX
8
CUT
10
110.5
20
35
0
VERTEX
8
CUT
10
117.5
20
34
0
VERTEX
8
CUT
10
120
20
34.3571
0
SEQEND
0
POLYLINE
8
CUT
66
1
70
0
0
VERTEX
8
CUT
10
120
20
35.6429
0
VERTEX
8
CUT
10
117.5
20
36
0
VERTEX
8
CUT
10
110.5
20
35
0
SEQEND
0
POLYLINE
8
CUT
66
1
70
0
0
VERTEX
8
CUT
10
0
20
26
0
VERTEX
8
CUT
10
7
20
25
0
VERTEX
8
CUT
10
14
20
26
0
VERTEX
8
CUT
10
7
20
27
0
VERTEX
8
CUT
10
0
20
26
0
SEQEND
0
POLYLINE
8
CUT
66
1
70
0
0
VERTEX
8
CUT
10
17
20
26
0
VERTEX
8
CUT
10
24
20
25
0
VERTEX
8
CUT
10
31
20
26
0
VERTEX
8
CUT
10
24
20
27
0
VERTEX
8
CUT
10
17
20
26
0
SEQEND
0
POLYLINE
8
CUT
66
1
70
0
0
VERTEX
8
CUT
10
34
20
26
0
VERTEX
8
CUT
10
41
20
25
0
VERTEX
8
CUT
10
48
20
26
0
VERTEX
8
CUT
10
41
20
27
0
VERTEX
8
CUT
10
34
20
26
0
SEQEND
0
POLYLINE
8
CUT
66
1
70
0
0
VERTEX
8
CUT
10
51
20
26
0
VERTEX
8
CUT
10
58
20
25
0
VERTEX
8
CUT
10
65
20
26
0
VERTEX
8
CUT
10
58
20
27
0
VERTEX
8
CUT
10
51
20
26
0
SEQEND
0
POLYLINE
8
CUT
66
1
70
0
0
VERTEX
8
CUT
10
68
20
26
0
VERTEX
8
CUT
10
75
20
25
0
VERTEX
8
CUT
10
82
20
26
0
VERTEX
8
CUT
10
75
20
27
0
VERTEX
8
CUT
10
68
20
26
0
SEQEND
0
POLYLINE
8
CUT
66
1
70
0
0
VERTEX
8
CUT
10
85
20
26
0
VERTEX
8
CUT
10
92
20
25
0
VERTEX
8
CUT
10
99
20
26
0
VERTEX
8
CUT
10
92
20
27
0
VERTEX
8
CUT
10
85
20
26
0
SEQEND
0
POLYLINE
8
CUT
66
1
70
0
0
VERTEX
8
CUT
10
102
20
26
0
VERTEX
8
CUT
10
109
20
25
0
VERTEX
8
CUT
10
116
20
26
0
VERTEX
8
CUT
10
109
20
27
0
VERTEX
8
CUT
10
102
20
26
0
SEQEND
0
LINE
8
CUT
10
119
20
26
11
120
21
25.8571
0
LINE
8
CUT
10
120
20
26.1429
11
119
21
26
0
POLYLINE
8
CUT
66
1
70
0
0
VERTEX
8
CUT
10
0
20
16.2143
0
VERTEX
8
CUT
10
5.5
20
17
0
VERTEX
8
CUT
10
0
20
17.7857
0
SEQEND
0
POLYLINE
8
CUT
66
1
70
0
0
VERTEX
8
CUT
10
8.5
20
17
0
VERTEX
8
CUT
10
15.5
20
16
0
VERTEX
8
CUT
10
22.5
20
17
0
VERTEX
8
CUT
10
15.5
20
18
0
VERTEX
8
CUT
10
8.5
20
17
0
SEQEND
0
POLYLINE
8
CUT
66
1
70
0
0
VERTEX
8
CUT
10
25.5
20
17
0
VERTEX
8
CUT
10
32.5
20
16
0
VERTEX
8
CUT
10
39.5
20
17
0
VERTEX
8
CUT
10
32.5
20
18
0
VERTEX
8
CUT
10
25.5
20
17
0
SEQEND
0
POLYLINE
8
CUT
66
1
70
0
0
VERTEX
8
CUT
10
42.5
20
17
0
VERTEX
8
CUT
10
49.5
20
16
0
VERTEX
8
CUT
10
56.5
20
17
0
VERTEX
8
CUT
10
49.5
20
18
0
VERTEX
8
CUT
10
42.5
20
17
0
SEQEND
0
POLYLINE
8
CUT
66
1
70
0
0
VERTEX
8
CUT
10
59.5
20
17
0
VERTEX
8
CUT
10
66.5
20
16
0
VERTEX
8
CUT
10
73.5
20
17
0
VERTEX
8
CUT
10
66.5
20
18
0
VERTEX
8
CUT
10
59.5
20
17
0
SEQEND
0
POLYLINE
8
CUT
66
1
70
0
0
VERTEX
8
CUT
10
76.5
20
17
0
VERTEX
8
CUT
10
83.5
20
16
0
VERTEX
8
CUT
10
90.5
20
17
0
VERTEX
8
CUT
10
83.5
20
18
0
VERTEX
8
CUT
10
76.5
20
17
0
SEQEND
0
POLYLINE
8
CUT
66
1
70
0
0
VERTEX
8
CUT
10
93.5
20
17
0
VERTEX
8
CUT
10
100.5
20
16
0
VERTEX
8
CUT
10
107.5
20
17
0
VERTEX
8
CUT
10
100.5
20
18
0
VERTEX
8
CUT
10
93.5
20
17
0
SEQEND
0
POLYLINE
8
CUT
66
1
70
0
0
VERTEX
8
CUT
10
110.5
20
17
0
VERTEX
8
CUT
10
117.5
20
16
0
VERTEX
8
CUT
10
120
20
16.3571
0
SEQEND
0
POLYLINE
8
CUT
66
1
70
0
0
VERTEX
8
CUT
10
120
20
17.6429
0
VERTEX
8
CUT
10
117.5
20
18
0
VERTEX
8
CUT
10
110.5
20
17
0
SEQEND
0
POLYLINE
8
CUT
66
1
70
0
0
VERTEX
8
CUT
10
0
20
8
0
VERTEX
8
CUT
10
7
20
7
0
VERTEX
8
CUT
10
14
20
8
0
VERTEX
8
CUT
10
7
20
9
0
VERTEX
8
CUT
10
0
20
8
0
SEQEND
0
POLYLINE
8
CUT
66
1
70
0
0
VERTEX
8
CUT
10
17
20
8
0
VERTEX
8
CUT
10
24
20
7
0
VERTEX
8
CUT
10
31
20
8
0
VERTEX
8
CUT
10
24
20
9
0
VERTEX
8
CUT
10
17
20
8
0
SEQEND
0
POLYLINE
8
CUT
66
1
70
0
0
VERTEX
8
CUT
10
34
20
8
0
VERTEX
8
CUT
10
41
20
7
0
VERTEX
8
CUT
10
48
20
8
0
VERTEX
8
CUT
10
41
20
9
0
VERTEX
8
CUT
10
34
20
8
0
SEQEND
0
POLYLINE
8
CUT
66
1
70
0
0
VERTEX
8
CUT
10
51
20
8
0
VERTEX
8
CUT
10
58
20
7
0
VERTEX
8
CUT
10
65
20
8
0
VERTEX
8
CUT
10
58
20
9
0
VERTEX
8
CUT
10
51
20
8
0
SEQEND
0
POLYLINE
8
CUT
66
1
70
0
0
VERTEX
8
CUT
10
68
20
8
0
VERTEX
8
CUT
10
75
20
7
0
VERTEX
8
CUT
10
82
20
8
0
VERTEX
8
CUT
10
75
20
9
0
VERTEX
8
CUT
10
68
20
8
0
SEQEND
0
POLYLINE
8
CUT
66
1
70
0
0
VERTEX
8
CUT
10
85
20
8
0
VERTEX
8
CUT
10
92
20
7
0
VERTEX
8
CUT
10
99
20
8
0
VERTEX
8
CUT
10
92
20
9
0
VERTEX
8
CUT
10
85
20
8
0
SEQEND
0
POLYLINE
8
CUT
66
1
70
0
0
VERTEX
8
CUT
10
102
20
8
0
VERTEX
8
CUT
10
109
20
7
0
VERTEX
8
CUT
10
116
20
8
0
VERTEX
8
CUT
10
109
20
9
0
VERTEX
8
CUT
10
102
20
8
0
SEQEND
0
LINE
8
CUT
10
119
20
8
11
120
21
7.8571
0
LINE
8
CUT
10
120
20
8.1429
11
119
21
8
0
POLYLINE
8
CUT
66
1
70
0
0
VERTEX
8
CUT
10
0
20
70
0
VERTEX
8
CUT
10
120
20
70
0
VERTEX
8
CUT
10
120
20
0
0
VERTEX
8
CUT
10
0
20
0
0
VERTEX
8
CUT
10
0
20
70
0
SEQEND
0
ENDSEC
0
EOF
