0
SECTION
2
HEADER
9
$ACADVER
1
AC1009
9
$INSUNITS
70
4
0
ENDSEC
0
SECTION
2
TABLES
0
TABLE
2
LAYER
70
1
0
LAYER
2
CUT
70
0
62
1
6
CONTINUOUS
0
ENDTAB
0
ENDSEC
0
SECTION
2
ENTITIES
0
LINE
8
CUT
10
0.3778
20
70
11
0.0411
21
69.449
0
LINE
8
CUT
10
1.8222
20
70
11
2.1589
21
69.449
0
LINE
8
CUT
10
3.2778
20
70
11
2.9411
21
69.449
0
LINE
8
CUT
10
4.7222
20
70
11
5.0589
21
69.449
0
LINE
8
CUT
10
6.1778
20
70
11
5.8411
21
69.449
0
LINE
8
CUT
10
7.6222
20
70
11
7.9589
21
69.449
0
LINE
8
CUT
10
9.0778
20
70
11
8.7411
21
69.449
0
LINE
8
CUT
10
10.5222
20
70
11
10.8589
21
69.449
0
LINE
8
CUT
10
11.9778
20
70
11
11.6411
21
69.449
0
LINE
8
CUT
10
13.4222
20
70
11
13.7589
21
69.449
0
LINE
8
CUT
10
14.8778
20
70
11
14.5411
21
69.449
0
LINE
8
CUT
10
16.3222
20
70
11
16.6589
21
69.449
0
LINE
8
CUT
10
17.7778
20
70
11
17.4411
21
69.449
0
LINE
8
CUT
10
19.2222
20
70
11
19.5589
21
69.449
0
LINE
8
CUT
10
20.6778
20
70
11
20.3411
21
69.449
0
LINE
8
CUT
10
22.1222
20
70
11
22.4589
21
69.449
0
LINE
8
CUT
10
23.5778
20
70
11
23.2411
21
69.449
0
LINE
8
CUT
10
25.0222
20
70
11
25.3589
21
69.449
0
LINE
8
CUT
10
26.4778
20
70
11
26.1411
21
69.449
0
LINE
8
CUT
10
27.9222
20
70
11
28.2589
21
69.449
0
LINE
8
CUT
10
29.3778
20
70
11
29.0411
21
69.449
0
LINE
8
CUT
10
30.8222
20
70
11
31.1589
21
69.449
0
LINE
8
CUT
10
32.2778
20
70
11
31.9411
21
69.449
0
LINE
8
CUT
10
33.7222
20
70
11
34.0589
21
69.449
0
LINE
8
CUT
10
35.1778
20
70
11
34.8411
21
69.449
0
LINE
8
CUT
10
36.6222
20
70
11
36.9589
21
69.449
0
LINE
8
CUT
10
38.0778
20
70
11
37.7411
21
69.449
0
LINE
8
CUT
10
39.5222
20
70
11
39.8589
21
69.449
0
LINE
8
CUT
10
40.9778
20
70
11
40.6411
21
69.449
0
LINE
8
CUT
10
42.4222
20
70
11
42.7589
21
69.449
0
LINE
8
CUT
10
43.8778
20
70
11
43.5411
21
69.449
0
LINE
8
CUT
10
45.3222
20
70
11
45.6589
21
69.449
0
LINE
8
CUT
10
46.7778
20
70
11
46.4411
21
69.449
0
LINE
8
CUT
10
48.2222
20
70
11
48.5589
21
69.449
0
LINE
8
CUT
10
49.6778
20
70
11
49.3411
21
69.449
0
LINE
8
CUT
10
51.1222
20
70
11
51.4589
21
69.449
0
LINE
8
CUT
10
52.5778
20
70
11
52.2411
21
69.449
0
LINE
8
CUT
10
54.0222
20
70
11
54.3589
21
69.449
0
LINE
8
CUT
10
55.4778
20
70
11
55.1411
21
69.449
0
LINE
8
CUT
10
56.9222
20
70
11
57.2589
21
69.449
0
LINE
8
CUT
10
58.3778
20
70
11
58.0411
21
69.449
0
LINE
8
CUT
10
59.8222
20
70
11
60.1589
21
69.449
0
LINE
8
CUT
10
61.2778
20
70
11
60.9411
21
69.449
0
LINE
8
CUT
10
62.7222
20
70
11
63.0589
21
69.449
0
LINE
8
CUT
10
64.1778
20
70
11
63.8411
21
69.449
0
LINE
8
CUT
10
65.6222
20
70
11
65.9589
21
69.449
0
LINE
8
CUT
10
67.0778
20
70
11
66.7411
21
69.449
0
LINE
8
CUT
10
68.5222
20
70
11
68.8589
21
69.449
0
LINE
8
CUT
10
69.9778
20
70
11
69.6411
21
69.449
0
LINE
8
CUT
10
71.4222
20
70
11
71.7589
21
69.449
0
LINE
8
CUT
10
72.8778
20
70
11
72.5411
21
69.449
0
LINE
8
CUT
10
74.3222
20
70
11
74.6589
21
69.449
0
LINE
8
CUT
10
75.7778
20
70
11
75.4411
21
69.449
0
LINE
8
CUT
10
77.2222
20
70
11
77.5589
21
69.449
0
LINE
8
CUT
10
78.6778
20
70
11
78.3411
21
69.449
0
LINE
8
CUT
10
80.1222
20
70
11
80.4589
21
69.449
0
LINE
8
CUT
10
81.5778
20
70
11
81.2411
21
69.449
0
LINE
8
CUT
10
83.0222
20
70
11
83.3589
21
69.449
0
LINE
8
CUT
10
84.4778
20
70
11
84.1411
21
69.449
0
LINE
8
CUT
10
85.9222
20
70
11
86.2589
21
69.449
0
LINE
8
CUT
10
87.3778
20
70
11
87.0411
21
69.449
0
LINE
8
CUT
10
88.8222
20
70
11
89.1589
21
69.449
0
LINE
8
CUT
10
90.2778
20
70
11
89.9411
21
69.449
0
LINE
8
CUT
10
91.7222
20
70
11
92.0589
21
69.449
0
LINE
8
CUT
10
93.1778
20
70
11
92.8411
21
69.449
0
LINE
8
CUT
10
94.6222
20
70
11
94.9589
21
69.449
0
LINE
8
CUT
10
96.0778
20
70
11
95.7411
21
69.449
0
LINE
8
CUT
10
97.5222
20
70
11
97.8589
21
69.449
0
LINE
8
CUT
10
98.9778
20
70
11
98.6411
21
69.449
0
LINE
8
CUT
10
100.4222
20
70
11
100.7589
21
69.449
0
LINE
8
CUT
10
101.8778
20
70
11
101.5411
21
69.449
0
LINE
8
CUT
10
103.3222
20
70
11
103.6589
21
69.449
0
LINE
8
CUT
10
104.7778
20
70
11
104.4411
21
69.449
0
LINE
8
CUT
10
106.2222
20
70
11
106.5589
21
69.449
0
LINE
8
CUT
10
107.6778
20
70
11
107.3411
21
69.449
0
LINE
8
CUT
10
109.1222
20
70
11
109.4589
21
69.449
0
LINE
8
CUT
10
110.5778
20
70
11
110.2411
21
69.449
0
LINE
8
CUT
10
112.0222
20
70
11
112.3589
21
69.449
0
LINE
8
CUT
10
113.4778
20
70
11
113.1411
21
69.449
0
LINE
8
CUT
10
114.9222
20
70
11
115.2589
21
69.449
0
LINE
8
CUT
10
116.3778
20
70
11
116.0411
21
69.449
0
LINE
8
CUT
10
117.8222
20
70
11
118.1589
21
69.449
0
LINE
8
CUT
10
119.2778
20
70
11
118.9411
21
69.449
0
POLYLINE
8
CUT
66
1
70
0
0
VERTEX
8
CUT
10
0.7089
20
69.36
0
VERTEX
8
CUT
10
0
20
68.2
0
VERTEX
8
CUT
10
0
20
62.8
0
VERTEX
8
CUT
10
0.7089
20
61.64
0
SEQEND
0
POLYLINE
8
CUT
66
1
70
0
0
VERTEX
8
CUT
10
1.4911
20
69.36
0
VERTEX
8
CUT
10
2.2
20
68.2
0
VERTEX
8
CUT
10
2.2
20
62.8
0
VERTEX
8
CUT
10
1.4911
20
61.64
0
SEQEND
0
POLYLINE
8
CUT
66
1
70
0
0
VERTEX
8
CUT
10
3.6089
20
69.36
0
VERTEX
8
CUT
10
2.9
20
68.2
0
VERTEX
8
CUT
10
2.9
20
62.8
0
VERTEX
8
CUT
10
3.6089
20
61.64
0
SEQEND
0
POLYLINE
8
CUT
66
1
70
0
0
VERTEX
8
CUT
10
4.3911
20
69.36
0
VERTEX
8
CUT
10
5.1
20
68.2
0
VERTEX
8
CUT
10
5.1
20
62.8
0
VERTEX
8
CUT
10
4.3911
20
61.64
0
SEQEND
0
POLYLINE
8
CUT
66
1
70
0
0
VERTEX
8
CUT
10
6.5089
20
69.36
0
VERTEX
8
CUT
10
5.8
20
68.2
0
VERTEX
8
CUT
10
5.8
20
62.8
0
VERTEX
8
CUT
10
6.5089
20
61.64
0
SEQEND
0
POLYLINE
8
CUT
66
1
70
0
0
VERTEX
8
CUT
10
7.2911
20
69.36
0
VERTEX
8
CUT
10
8
20
68.2
0
VERTEX
8
CUT
10
8
20
62.8
0
VERTEX
8
CUT
10
7.2911
20
61.64
0
SEQEND
0
POLYLINE
8
CUT
66
1
70
0
0
VERTEX
8
CUT
10
9.4089
20
69.36
0
VERTEX
8
CUT
10
8.7
20
68.2
0
VERTEX
8
CUT
10
8.7
20
62.8
0
VERTEX
8
CUT
10
9.4089
20
61.64
0
SEQEND
0
POLYLINE
8
CUT
66
1
70
0
0
VERTEX
8
CUT
10
10.1911
20
69.36
0
VERTEX
8
CUT
10
10.9
20
68.2
0
VERTEX
8
CUT
10
10.9
20
62.8
0
VERTEX
8
CUT
10
10.1911
20
61.64
0
SEQEND
0
POLYLINE
8
CUT
66
1
70
0
0
VERTEX
8
CUT
10
12.3089
20
69.36
0
VERTEX
8
CUT
10
11.6
20
68.2
0
VERTEX
8
CUT
10
11.6
20
62.8
0
VERTEX
8
CUT
10
12.3089
20
61.64
0
SEQEND
0
POLYLINE
8
CUT
66
1
70
0
0
VERTEX
8
CUT
10
13.0911
20
69.36
0
VERTEX
8
CUT
10
13.8
20
68.2
0
VERTEX
8
CUT
10
13.8
20
62.8
0
VERTEX
8
CUT
10
13.0911
20
61.64
0
SEQEND
0
POLYLINE
8
CUT
66
1
70
0
0
VERTEX
8
CUT
10
15.2089
20
69.36
0
VERTEX
8
CUT
10
14.5
20
68.2
0
VERTEX
8
CUT
10
14.5
20
62.8
0
VERTEX
8
CUT
10
15.2089
20
61.64
0
SEQEND
0
POLYLINE
8
CUT
66
1
70
0
0
VERTEX
8
CUT
10
15.9911
20
69.36
0
VERTEX
8
CUT
10
16.7
20
68.2
0
VERTEX
8
CUT
10
16.7
20
62.8
0
VERTEX
8
CUT
10
15.9911
20
61.64
0
SEQEND
0
POLYLINE
8
CUT
66
1
70
0
0
VERTEX
8
CUT
10
18.1089
20
69.36
0
VERTEX
8
CUT
10
17.4
20
68.2
0
VERTEX
8
CUT
10
17.4
20
62.8
0
VERTEX
8
CUT
10
18.1089
20
61.64
0
SEQEND
0
POLYLINE
8
CUT
66
1
70
0
0
VERTEX
8
CUT
10
18.8911
20
69.36
0
VERTEX
8
CUT
10
19.6
20
68.2
0
VERTEX
8
CUT
10
19.6
20
62.8
0
VERTEX
8
CUT
10
18.8911
20
61.64
0
SEQEND
0
POLYLINE
8
CUT
66
1
70
0
0
VERTEX
8
CUT
10
21.0089
20
69.36
0
VERTEX
8
CUT
10
20.3
20
68.2
0
VERTEX
8
CUT
10
20.3
20
62.8
0
VERTEX
8
CUT
10
21.0089
20
61.64
0
SEQEND
0
POLYLINE
8
CUT
66
1
70
0
0
VERTEX
8
CUT
10
21.7911
20
69.36
0
VERTEX
8
CUT
10
22.5
20
68.2
0
VERTEX
8
CUT
10
22.5
20
62.8
0
VERTEX
8
CUT
10
21.7911
20
61.64
0
SEQEND
0
POLYLINE
8
CUT
66
1
70
0
0
VERTEX
8
CUT
10
23.9089
20
69.36
0
VERTEX
8
CUT
10
23.2
20
68.2
0
VERTEX
8
CUT
10
23.2
20
62.8
0
VERTEX
8
CUT
10
23.9089
20
61.64
0
SEQEND
0
POLYLINE
8
CUT
66
1
70
0
0
VERTEX
8
CUT
10
24.6911
20
69.36
0
VERTEX
8
CUT
10
25.4
20
68.2
0
VERTEX
8
CUT
10
25.4
20
62.8
0
VERTEX
8
CUT
10
24.6911
20
61.64
0
SEQEND
0
POLYLINE
8
CUT
66
1
70
0
0
VERTEX
8
CUT
10
26.8089
20
69.36
0
VERTEX
8
CUT
10
26.1
20
68.2
0
VERTEX
8
CUT
10
26.1
20
62.8
0
VERTEX
8
CUT
10
26.8089
20
61.64
0
SEQEND
0
POLYLINE
8
CUT
66
1
70
0
0
VERTEX
8
CUT
10
27.5911
20
69.36
0
VERTEX
8
CUT
10
28.3
20
68.2
0
VERTEX
8
CUT
10
28.3
20
62.8
0
VERTEX
8
CUT
10
27.5911
20
61.64
0
SEQEND
0
POLYLINE
8
CUT
66
1
70
0
0
VERTEX
8
CUT
10
29.7089
20
69.36
0
VERTEX
8
CUT
10
29
20
68.2
0
VERTEX
8
CUT
10
29
20
62.8
0
VERTEX
8
CUT
10
29.7089
20
61.64
0
SEQEND
0
POLYLINE
8
CUT
66
1
70
0
0
VERTEX
8
CUT
10
30.4911
20
69.36
0
VERTEX
8
CUT
10
31.2
20
68.2
0
VERTEX
8
CUT
10
31.2
20
62.8
0
VERTEX
8
CUT
10
30.4911
20
61.64
0
SEQEND
0
POLYLINE
8
CUT
66
1
70
0
0
VERTEX
8
CUT
10
32.6089
20
69.36
0
VERTEX
8
CUT
10
31.9
20
68.2
0
VERTEX
8
CUT
10
31.9
20
62.8
0
VERTEX
8
CUT
10
32.6089
20
61.64
0
SEQEND
0
POLYLINE
8
CUT
66
1
70
0
0
VERTEX
8
CUT
10
33.3911
20
69.36
0
VERTEX
8
CUT
10
34.1
20
68.2
0
VERTEX
8
CUT
10
34.1
20
62.8
0
VERTEX
8
CUT
10
33.3911
20
61.64
0
SEQEND
0
POLYLINE
8
CUT
66
1
70
0
0
VERTEX
8
CUT
10
35.5089
20
69.36
0
VERTEX
8
CUT
10
34.8
20
68.2
0
VERTEX
8
CUT
10
34.8
20
62.8
0
VERTEX
8
CUT
10
35.5089
20
61.64
0
SEQEND
0
POLYLINE
8
CUT
66
1
70
0
0
VERTEX
8
CUT
10
36.2911
20
69.36
0
VERTEX
8
CUT
10
37
20
68.2
0
VERTEX
8
CUT
10
37
20
62.8
0
VERTEX
8
CUT
10
36.2911
20
61.64
0
SEQEND
0
POLYLINE
8
CUT
66
1
70
0
0
VERTEX
8
CUT
10
38.4089
20
69.36
0
VERTEX
8
CUT
10
37.7
20
68.2
0
VERTEX
8
CUT
10
37.7
20
62.8
0
VERTEX
8
CUT
10
38.4089
20
61.64
0
SEQEND
0
POLYLINE
8
CUT
66
1
70
0
0
VERTEX
8
CUT
10
39.1911
20
69.36
0
VERTEX
8
CUT
10
39.9
20
68.2
0
VERTEX
8
CUT
10
39.9
20
62.8
0
VERTEX
8
CUT
10
39.1911
20
61.64
0
SEQEND
0
POLYLINE
8
CUT
66
1
70
0
0
VERTEX
8
CUT
10
41.3089
20
69.36
0
VERTEX
8
CUT
10
40.6
20
68.2
0
VERTEX
8
CUT
10
40.6
20
62.8
0
VERTEX
8
CUT
10
41.3089
20
61.64
0
SEQEND
0
POLYLINE
8
CUT
66
1
70
0
0
VERTEX
8
CUT
10
42.0911
20
69.36
0
VERTEX
8
CUT
10
42.8
20
68.2
0
VERTEX
8
CUT
10
42.8
20
62.8
0
VERTEX
8
CUT
10
42.0911
20
61.64
0
SEQEND
0
POLYLINE
8
CUT
66
1
70
0
0
VERTEX
8
CUT
10
44.2089
20
69.36
0
VERTEX
8
CUT
10
43.5
20
68.2
0
VERTEX
8
CUT
10
43.5
20
62.8
0
VERTEX
8
CUT
10
44.2089
20
61.64
0
SEQEND
0
POLYLINE
8
CUT
66
1
70
0
0
VERTEX
8
CUT
10
44.9911
20
69.36
0
VERTEX
8
CUT
10
45.7
20
68.2
0
VERTEX
8
CUT
10
45.7
20
62.8
0
VERTEX
8
CUT
10
44.9911
20
61.64
0
SEQEND
0
POLYLINE
8
CUT
66
1
70
0
0
VERTEX
8
CUT
10
47.1089
20
69.36
0
VERTEX
8
CUT
10
46.4
20
68.2
0
VERTEX
8
CUT
10
46.4
20
62.8
0
VERTEX
8
CUT
10
47.1089
20
61.64
0
SEQEND
0
POLYLINE
8
CUT
66
1
70
0
0
VERTEX
8
CUT
10
47.8911
20
69.36
0
VERTEX
8
CUT
10
48.6
20
68.2
0
VERTEX
8
CUT
10
48.6
20
62.8
0
VERTEX
8
CUT
10
47.8911
20
61.64
0
SEQEND
0
POLYLINE
8
CUT
66
1
70
0
0
VERTEX
8
CUT
10
50.0089
20
69.36
0
VERTEX
8
CUT
10
49.3
20
68.2
0
VERTEX
8
CUT
10
49.3
20
62.8
0
VERTEX
8
CUT
10
50.0089
20
61.64
0
SEQEND
0
POLYLINE
8
CUT
66
1
70
0
0
VERTEX
8
CUT
10
50.7911
20
69.36
0
VERTEX
8
CUT
10
51.5
20
68.2
0
VERTEX
8
CUT
10
51.5
20
62.8
0
VERTEX
8
CUT
10
50.7911
20
61.64
0
SEQEND
0
POLYLINE
8
CUT
66
1
70
0
0
VERTEX
8
CUT
10
52.9089
20
69.36
0
VERTEX
8
CUT
10
52.2
20
68.2
0
VERTEX
8
CUT
10
52.2
20
62.8
0
VERTEX
8
CUT
10
52.9089
20
61.64
0
SEQEND
0
POLYLINE
8
CUT
66
1
70
0
0
VERTEX
8
CUT
10
53.6911
20
69.36
0
VERTEX
8
CUT
10
54.4
20
68.2
0
VERTEX
8
CUT
10
54.4
20
62.8
0
VERTEX
8
CUT
10
53.6911
20
61.64
0
SEQEND
0
POLYLINE
8
CUT
66
1
70
0
0
VERTEX
8
CUT
10
55.8089
20
69.36
0
VERTEX
8
CUT
10
55.1
20
68.2
0
VERTEX
8
CUT
10
55.1
20
62.8
0
VERTEX
8
CUT
10
55.8089
20
61.64
0
SEQEND
0
POLYLINE
8
CUT
66
1
70
0
0
VERTEX
8
CUT
10
56.5911
20
69.36
0
VERTEX
8
CUT
10
57.3
20
68.2
0
VERTEX
8
CUT
10
57.3
20
62.8
0
VERTEX
8
CUT
10
56.5911
20
61.64
0
SEQEND
0
POLYLINE
8
CUT
66
1
70
0
0
VERTEX
8
CUT
10
58.7089
20
69.36
0
VERTEX
8
CUT
10
58
20
68.2
0
VERTEX
8
CUT
10
58
20
62.8
0
VERTEX
8
CUT
10
58.7089
20
61.64
0
SEQEND
0
POLYLINE
8
CUT
66
1
70
0
0
VERTEX
8
CUT
10
59.4911
20
69.36
0
VERTEX
8
CUT
10
60.2
20
68.2
0
VERTEX
8
CUT
10
60.2
20
62.8
0
VERTEX
8
CUT
10
59.4911
20
61.64
0
SEQEND
0
POLYLINE
8
CUT
66
1
70
0
0
VERTEX
8
CUT
10
61.6089
20
69.36
0
VERTEX
8
CUT
10
60.9
20
68.2
0
VERTEX
8
CUT
10
60.9
20
62.8
0
VERTEX
8
CUT
10
61.6089
20
61.64
0
SEQEND
0
POLYLINE
8
CUT
66
1
70
0
0
VERTEX
8
CUT
10
62.3911
20
69.36
0
VERTEX
8
CUT
10
63.1
20
68.2
0
VERTEX
8
CUT
10
63.1
20
62.8
0
VERTEX
8
CUT
10
62.3911
20
61.64
0
SEQEND
0
POLYLINE
8
CUT
66
1
70
0
0
VERTEX
8
CUT
10
64.5089
20
69.36
0
VERTEX
8
CUT
10
63.8
20
68.2
0
VERTEX
8
CUT
10
63.8
20
62.8
0
VERTEX
8
CUT
10
64.5089
20
61.64
0
SEQEND
0
POLYLINE
8
CUT
66
1
70
0
0
VERTEX
8
CUT
10
65.2911
20
69.36
0
VERTEX
8
CUT
10
66
20
68.2
0
VERTEX
8
CUT
10
66
20
62.8
0
VERTEX
8
CUT
10
65.2911
20
61.64
0
SEQEND
0
POLYLINE
8
CUT
66
1
70
0
0
VERTEX
8
CUT
10
67.4089
20
69.36
0
VERTEX
8
CUT
10
66.7
20
68.2
0
VERTEX
8
CUT
10
66.7
20
62.8
0
VERTEX
8
CUT
10
67.4089
20
61.64
0
SEQEND
0
POLYLINE
8
CUT
66
1
70
0
0
VERTEX
8
CUT
10
68.1911
20
69.36
0
VERTEX
8
CUT
10
68.9
20
68.2
0
VERTEX
8
CUT
10
68.9
20
62.8
0
VERTEX
8
CUT
10
68.1911
20
61.64
0
SEQEND
0
POLYLINE
8
CUT
66
1
70
0
0
VERTEX
8
CUT
10
70.3089
20
69.36
0
VERTEX
8
CUT
10
69.6
20
68.2
0
VERTEX
8
CUT
10
69.6
20
62.8
0
VERTEX
8
CUT
10
70.3089
20
61.64
0
SEQEND
0
POLYLINE
8
CUT
66
1
70
0
0
VERTEX
8
CUT
10
71.0911
20
69.36
0
VERTEX
8
CUT
10
71.8
20
68.2
0
VERTEX
8
CUT
10
71.8
20
62.8
0
VERTEX
8
CUT
10
71.0911
20
61.64
0
SEQEND
0
POLYLINE
8
CUT
66
1
70
0
0
VERTEX
8
CUT
10
73.2089
20
69.36
0
VERTEX
8
CUT
10
72.5
20
68.2
0
VERTEX
8
CUT
10
72.5
20
62.8
0
VERTEX
8
CUT
10
73.2089
20
61.64
0
SEQEND
0
POLYLINE
8
CUT
66
1
70
0
0
VERTEX
8
CUT
10
73.9911
20
69.36
0
VERTEX
8
CUT
10
74.7
20
68.2
0
VERTEX
8
CUT
10
74.7
20
62.8
0
VERTEX
8
CUT
10
73.9911
20
61.64
0
SEQEND
0
POLYLINE
8
CUT
66
1
70
0
0
VERTEX
8
CUT
10
76.1089
20
69.36
0
VERTEX
8
CUT
10
75.4
20
68.2
0
VERTEX
8
CUT
10
75.4
20
62.8
0
VERTEX
8
CUT
10
76.1089
20
61.64
0
SEQEND
0
POLYLINE
8
CUT
66
1
70
0
0
VERTEX
8
CUT
10
76.8911
20
69.36
0
VERTEX
8
CUT
10
77.6
20
68.2
0
VERTEX
8
CUT
10
77.6
20
62.8
0
VERTEX
8
CUT
10
76.8911
20
61.64
0
SEQEND
0
POLYLINE
8
CUT
66
1
70
0
0
VERTEX
8
CUT
10
79.0089
20
69.36
0
VERTEX
8
CUT
10
78.3
20
68.2
0
VERTEX
8
CUT
10
78.3
20
62.8
0
VERTEX
8
CUT
10
79.0089
20
61.64
0
SEQEND
0
POLYLINE
8
CUT
66
1
70
0
0
VERTEX
8
CUT
10
79.7911
20
69.36
0
VERTEX
8
CUT
10
80.5
20
68.2
0
VERTEX
8
CUT
10
80.5
20
62.8
0
VERTEX
8
CUT
10
79.7911
20
61.64
0
SEQEND
0
POLYLINE
8
CUT
66
1
70
0
0
VERTEX
8
CUT
10
81.9089
20
69.36
0
VERTEX
8
CUT
10
81.2
20
68.2
0
VERTEX
8
CUT
10
81.2
20
62.8
0
VERTEX
8
CUT
10
81.9089
20
61.64
0
SEQEND
0
POLYLINE
8
CUT
66
1
70
0
0
VERTEX
8
CUT
10
82.6911
20
69.36
0
VERTEX
8
CUT
10
83.4
20
68.2
0
VERTEX
8
CUT
10
83.4
20
62.8
0
VERTEX
8
CUT
10
82.6911
20
61.64
0
SEQEND
0
POLYLINE
8
CUT
66
1
70
0
0
VERTEX
8
CUT
10
84.8089
20
69.36
0
VERTEX
8
CUT
10
84.1
20
68.2
0
VERTEX
8
CUT
10
84.1
20
62.8
0
VERTEX
8
CUT
10
84.8089
20
61.64
0
SEQEND
0
POLYLINE
8
CUT
66
1
70
0
0
VERTEX
8
CUT
10
85.5911
20
69.36
0
VERTEX
8
CUT
10
86.3
20
68.2
0
VERTEX
8
CUT
10
86.3
20
62.8
0
VERTEX
8
CUT
10
85.5911
20
61.64
0
SEQEND
0
POLYLINE
8
CUT
66
1
70
0
0
VERTEX
8
CUT
10
87.7089
20
69.36
0
VERTEX
8
CUT
10
87
20
68.2
0
VERTEX
8
CUT
10
87
20
62.8
0
VERTEX
8
CUT
10
87.7089
20
61.64
0
SEQEND
0
POLYLINE
8
CUT
66
1
70
0
0
VERTEX
8
CUT
10
88.4911
20
69.36
0
VERTEX
8
CUT
10
89.2
20
68.2
0
VERTEX
8
CUT
10
89.2
20
62.8
0
VERTEX
8
CUT
10
88.4911
20
61.64
0
SEQEND
0
POLYLINE
8
CUT
66
1
70
0
0
VERTEX
8
CUT
10
90.6089
20
69.36
0
VERTEX
8
CUT
10
89.9
20
68.2
0
VERTEX
8
CUT
10
89.9
20
62.8
0
VERTEX
8
CUT
10
90.6089
20
61.64
0
SEQEND
0
POLYLINE
8
CUT
66
1
70
0
0
VERTEX
8
CUT
10
91.3911
20
69.36
0
VERTEX
8
CUT
10
92.1
20
68.2
0
VERTEX
8
CUT
10
92.1
20
62.8
0
VERTEX
8
CUT
10
91.3911
20
61.64
0
SEQEND
0
POLYLINE
8
CUT
66
1
70
0
0
VERTEX
8
CUT
10
93.5089
20
69.36
0
VERTEX
8
CUT
10
92.8
20
68.2
0
VERTEX
8
CUT
10
92.8
20
62.8
0
VERTEX
8
CUT
10
93.5089
20
61.64
0
SEQEND
0
POLYLINE
8
CUT
66
1
70
0
0
VERTEX
8
CUT
10
94.2911
20
69.36
0
VERTEX
8
CUT
10
95
20
68.2
0
VERTEX
8
CUT
10
95
20
62.8
0
VERTEX
8
CUT
10
94.2911
20
61.64
0
SEQEND
0
POLYLINE
8
CUT
66
1
70
0
0
VERTEX
8
CUT
10
96.4089
20
69.36
0
VERTEX
8
CUT
10
95.7
20
68.2
0
VERTEX
8
CUT
10
95.7
20
62.8
0
VERTEX
8
CUT
10
96.4089
20
61.64
0
SEQEND
0
POLYLINE
8
CUT
66
1
70
0
0
VERTEX
8
CUT
10
97.1911
20
69.36
0
VERTEX
8
CUT
10
97.9
20
68.2
0
VERTEX
8
CUT
10
97.9
20
62.8
0
VERTEX
8
CUT
10
97.1911
20
61.64
0
SEQEND
0
POLYLINE
8
CUT
66
1
70
0
0
VERTEX
8
CUT
10
99.3089
20
69.36
0
VERTEX
8
CUT
10
98.6
20
68.2
0
VERTEX
8
CUT
10
98.6
20
62.8
0
VERTEX
8
CUT
10
99.3089
20
61.64
0
SEQEND
0
POLYLINE
8
CUT
66
1
70
0
0
VERTEX
8
CUT
10
100.0911
20
69.36
0
VERTEX
8
CUT
10
100.8
20
68.2
0
VERTEX
8
CUT
10
100.8
20
62.8
0
VERTEX
8
CUT
10
100.0911
20
61.64
0
SEQEND
0
POLYLINE
8
CUT
66
1
70
0
0
VERTEX
8
CUT
10
102.2089
20
69.36
0
VERTEX
8
CUT
10
101.5
20
68.2
0
VERTEX
8
CUT
10
101.5
20
62.8
0
VERTEX
8
CUT
10
102.2089
20
61.64
0
SEQEND
0
POLYLINE
8
CUT
66
1
70
0
0
VERTEX
8
CUT
10
102.9911
20
69.36
0
VERTEX
8
CUT
10
103.7
20
68.2
0
VERTEX
8
CUT
10
103.7
20
62.8
0
VERTEX
8
CUT
10
102.9911
20
61.64
0
SEQEND
0
POLYLINE
8
CUT
66
1
70
0
0
VERTEX
8
CUT
10
105.1089
20
69.36
0
VERTEX
8
CUT
10
104.4
20
68.2
0
VERTEX
8
CUT
10
104.4
20
62.8
0
VERTEX
8
CUT
10
105.1089
20
61.64
0
SEQEND
0
POLYLINE
8
CUT
66
1
70
0
0
VERTEX
8
CUT
10
105.8911
20
69.36
0
VERTEX
8
CUT
10
106.6
20
68.2
0
VERTEX
8
CUT
10
106.6
20
62.8
0
VERTEX
8
CUT
10
105.8911
20
61.64
0
SEQEND
0
POLYLINE
8
CUT
66
1
70
0
0
VERTEX
8
CUT
10
108.0089
20
69.36
0
VERTEX
8
CUT
10
107.3
20
68.2
0
VERTEX
8
CUT
10
107.3
20
62.8
0
VERTEX
8
CUT
10
108.0089
20
61.64
0
SEQEND
0
POLYLINE
8
CUT
66
1
70
0
0
VERTEX
8
CUT
10
108.7911
20
69.36
0
VERTEX
8
CUT
10
109.5
20
68.2
0
VERTEX
8
CUT
10
109.5
20
62.8
0
VERTEX
8
CUT
10
108.7911
20
61.64
0
SEQEND
0
POLYLINE
8
CUT
66
1
70
0
0
VERTEX
8
CUT
10
110.9089
20
69.36
0
VERTEX
8
CUT
10
110.2
20
68.2
0
VERTEX
8
CUT
10
110.2
20
62.8
0
VERTEX
8
CUT
10
110.9089
20
61.64
0
SEQEND
0
POLYLINE
8
CUT
66
1
70
0
0
VERTEX
8
CUT
10
111.6911
20
69.36
0
VERTEX
8
CUT
10
112.4
20
68.2
0
VERTEX
8
CUT
10
112.4
20
62.8
0
VERTEX
8
CUT
10
111.6911
20
61.64
0
SEQEND
0
POLYLINE
8
CUT
66
1
70
0
0
VERTEX
8
CUT
10
113.8089
20
69.36
0
VERTEX
8
CUT
10
113.1
20
68.2
0
VERTEX
8
CUT
10
113.1
20
62.8
0
VERTEX
8
CUT
10
113.8089
20
61.64
0
SEQEND
0
POLYLINE
8
CUT
66
1
70
0
0
VERTEX
8
CUT
10
114.5911
20
69.36
0
VERTEX
8
CUT
10
115.3
20
68.2
0
VERTEX
8
CUT
10
115.3
20
62.8
0
VERTEX
8
CUT
10
114.5911
20
61.64
0
SEQEND
0
POLYLINE
8
CUT
66
1
70
0
0
VERTEX
8
CUT
10
116.7089
20
69.36
0
VERTEX
8
CUT
10
116
20
68.2
0
VERTEX
8
CUT
10
116
20
62.8
0
VERTEX
8
CUT
10
116.7089
20
61.64
0
SEQEND
0
POLYLINE
8
CUT
66
1
70
0
0
VERTEX
8
CUT
10
117.4911
20
69.36
0
VERTEX
8
CUT
10
118.2
20
68.2
0
VERTEX
8
CUT
10
118.2
20
62.8
0
VERTEX
8
CUT
10
117.4911
20
61.64
0
SEQEND
0
POLYLINE
8
CUT
66
1
70
0
0
VERTEX
8
CUT
10
119.6089
20
69.36
0
VERTEX
8
CUT
10
118.9
20
68.2
0
VERTEX
8
CUT
10
118.9
20
62.8
0
VERTEX
8
CUT
10
119.6089
20
61.64
0
SEQEND
0
POLYLINE
8
CUT
66
1
70
0
0
VERTEX
8
CUT
10
0.0411
20
61.551
0
VERTEX
8
CUT
10
0.75
20
60.391
0
VERTEX
8
CUT
10
0.75
20
54.991
0
VERTEX
8
CUT
10
0.0411
20
53.831
0
SEQEND
0
POLYLINE
8
CUT
66
1
70
0
0
VERTEX
8
CUT
10
2.1589
20
61.551
0
VERTEX
8
CUT
10
1.45
20
60.391
0
VERTEX
8
CUT
10
1.45
20
54.991
0
VERTEX
8
CUT
10
2.1589
20
53.831
0
SEQEND
0
POLYLINE
8
CUT
66
1
70
0
0
VERTEX
8
CUT
10
2.9411
20
61.551
0
VERTEX
8
CUT
10
3.65
20
60.391
0
VERTEX
8
CUT
10
3.65
20
54.991
0
VERTEX
8
CUT
10
2.9411
20
53.831
0
SEQEND
0
POLYLINE
8
CUT
66
1
70
0
0
VERTEX
8
CUT
10
5.0589
20
61.551
0
VERTEX
8
CUT
10
4.35
20
60.391
0
VERTEX
8
CUT
10
4.35
20
54.991
0
VERTEX
8
CUT
10
5.0589
20
53.831
0
SEQEND
0
POLYLINE
8
CUT
66
1
70
0
0
VERTEX
8
CUT
10
5.8411
20
61.551
0
VERTEX
8
CUT
10
6.55
20
60.391
0
VERTEX
8
CUT
10
6.55
20
54.991
0
VERTEX
8
CUT
10
5.8411
20
53.831
0
SEQEND
0
POLYLINE
8
CUT
66
1
70
0
0
VERTEX
8
CUT
10
7.9589
20
61.551
0
VERTEX
8
CUT
10
7.25
20
60.391
0
VERTEX
8
CUT
10
7.25
20
54.991
0
VERTEX
8
CUT
10
7.9589
20
53.831
0
SEQEND
0
POLYLINE
8
CUT
66
1
70
0
0
VERTEX
8
CUT
10
8.7411
20
61.551
0
VERTEX
8
CUT
10
9.45
20
60.391
0
VERTEX
8
CUT
10
9.45
20
54.991
0
VERTEX
8
CUT
10
8.7411
20
53.831
0
SEQEND
0
POLYLINE
8
CUT
66
1
70
0
0
VERTEX
8
CUT
10
10.8589
20
61.551
0
VERTEX
8
CUT
10
10.15
20
60.391
0
VERTEX
8
CUT
10
10.15
20
54.991
0
VERTEX
8
CUT
10
10.8589
20
53.831
0
SEQEND
0
POLYLINE
8
CUT
66
1
70
0
0
VERTEX
8
CUT
10
11.6411
20
61.551
0
VERTEX
8
CUT
10
12.35
20
60.391
0
VERTEX
8
CUT
10
12.35
20
54.991
0
VERTEX
8
CUT
10
11.6411
20
53.831
0
SEQEND
0
POLYLINE
8
CUT
66
1
70
0
0
VERTEX
8
CUT
10
13.7589
20
61.551
0
VERTEX
8
CUT
10
13.05
20
60.391
0
VERTEX
8
CUT
10
13.05
20
54.991
0
VERTEX
8
CUT
10
13.7589
20
53.831
0
SEQEND
0
POLYLINE
8
CUT
66
1
70
0
0
VERTEX
8
CUT
10
14.5411
20
61.551
0
VERTEX
8
CUT
10
15.25
20
60.391
0
VERTEX
8
CUT
10
15.25
20
54.991
0
VERTEX
8
CUT
10
14.5411
20
53.831
0
SEQEND
0
POLYLINE
8
CUT
66
1
70
0
0
VERTEX
8
CUT
10
16.6589
20
61.551
0
VERTEX
8
CUT
10
15.95
20
60.391
0
VERTEX
8
CUT
10
15.95
20
54.991
0
VERTEX
8
CUT
10
16.6589
20
53.831
0
SEQEND
0
POLYLINE
8
CUT
66
1
70
0
0
VERTEX
8
CUT
10
17.4411
20
61.551
0
VERTEX
8
CUT
10
18.15
20
60.391
0
VERTEX
8
CUT
10
18.15
20
54.991
0
VERTEX
8
CUT
10
17.4411
20
53.831
0
SEQEND
0
POLYLINE
8
CUT
66
1
70
0
0
VERTEX
8
CUT
10
19.5589
20
61.551
0
VERTEX
8
CUT
10
18.85
20
60.391
0
VERTEX
8
CUT
10
18.85
20
54.991
0
VERTEX
8
CUT
10
19.5589
20
53.831
0
SEQEND
0
POLYLINE
8
CUT
66
1
70
0
0
VERTEX
8
CUT
10
20.3411
20
61.551
0
VERTEX
8
CUT
10
21.05
20
60.391
0
VERTEX
8
CUT
10
21.05
20
54.991
0
VERTEX
8
CUT
10
20.3411
20
53.831
0
SEQEND
0
POLYLINE
8
CUT
66
1
70
0
0
VERTEX
8
CUT
10
22.4589
20
61.551
0
VERTEX
8
CUT
10
21.75
20
60.391
0
VERTEX
8
CUT
10
21.75
20
54.991
0
VERTEX
8
CUT
10
22.4589
20
53.831
0
SEQEND
0
POLYLINE
8
CUT
66
1
70
0
0
VERTEX
8
CUT
10
23.2411
20
61.551
0
VERTEX
8
CUT
10
23.95
20
60.391
0
VERTEX
8
CUT
10
23.95
20
54.991
0
VERTEX
8
CUT
10
23.2411
20
53.831
0
SEQEND
0
POLYLINE
8
CUT
66
1
70
0
0
VERTEX
8
CUT
10
25.3589
20
61.551
0
VERTEX
8
CUT
10
24.65
20
60.391
0
VERTEX
8
CUT
10
24.65
20
54.991
0
VERTEX
8
CUT
10
25.3589
20
53.831
0
SEQEND
0
POLYLINE
8
CUT
66
1
70
0
0
VERTEX
8
CUT
10
26.1411
20
61.551
0
VERTEX
8
CUT
10
26.85
20
60.391
0
VERTEX
8
CUT
10
26.85
20
54.991
0
VERTEX
8
CUT
10
26.1411
20
53.831
0
SEQEND
0
POLYLINE
8
CUT
66
1
70
0
0
VERTEX
8
CUT
10
28.2589
20
61.551
0
VERTEX
8
CUT
10
27.55
20
60.391
0
VERTEX
8
CUT
10
27.55
20
54.991
0
VERTEX
8
CUT
10
28.2589
20
53.831
0
SEQEND
0
POLYLINE
8
CUT
66
1
70
0
0
VERTEX
8
CUT
10
29.0411
20
61.551
0
VERTEX
8
CUT
10
29.75
20
60.391
0
VERTEX
8
CUT
10
29.75
20
54.991
0
VERTEX
8
CUT
10
29.0411
20
53.831
0
SEQEND
0
POLYLINE
8
CUT
66
1
70
0
0
VERTEX
8
CUT
10
31.1589
20
61.551
0
VERTEX
8
CUT
10
30.45
20
60.391
0
VERTEX
8
CUT
10
30.45
20
54.991
0
VERTEX
8
CUT
10
31.1589
20
53.831
0
SEQEND
0
POLYLINE
8
CUT
66
1
70
0
0
VERTEX
8
CUT
10
31.9411
20
61.551
0
VERTEX
8
CUT
10
32.65
20
60.391
0
VERTEX
8
CUT
10
32.65
20
54.991
0
VERTEX
8
CUT
10
31.9411
20
53.831
0
SEQEND
0
POLYLINE
8
CUT
66
1
70
0
0
VERTEX
8
CUT
10
34.0589
20
61.551
0
VERTEX
8
CUT
10
33.35
20
60.391
0
VERTEX
8
CUT
10
33.35
20
54.991
0
VERTEX
8
CUT
10
34.0589
20
53.831
0
SEQEND
0
POLYLINE
8
CUT
66
1
70
0
0
VERTEX
8
CUT
10
34.8411
20
61.551
0
VERTEX
8
CUT
10
35.55
20
60.391
0
VERTEX
8
CUT
10
35.55
20
54.991
0
VERTEX
8
CUT
10
34.8411
20
53.831
0
SEQEND
0
POLYLINE
8
CUT
66
1
70
0
0
VERTEX
8
CUT
10
36.9589
20
61.551
0
VERTEX
8
CUT
10
36.25
20
60.391
0
VERTEX
8
CUT
10
36.25
20
54.991
0
VERTEX
8
CUT
10
36.9589
20
53.831
0
SEQEND
0
POLYLINE
8
CUT
66
1
70
0
0
VERTEX
8
CUT
10
37.7411
20
61.551
0
VERTEX
8
CUT
10
38.45
20
60.391
0
VERTEX
8
CUT
10
38.45
20
54.991
0
VERTEX
8
CUT
10
37.7411
20
53.831
0
SEQEND
0
POLYLINE
8
CUT
66
1
70
0
0
VERTEX
8
CUT
10
39.8589
20
61.551
0
VERTEX
8
CUT
10
39.15
20
60.391
0
VERTEX
8
CUT
10
39.15
20
54.991
0
VERTEX
8
CUT
10
39.8589
20
53.831
0
SEQEND
0
POLYLINE
8
CUT
66
1
70
0
0
VERTEX
8
CUT
10
40.6411
20
61.551
0
VERTEX
8
CUT
10
41.35
20
60.391
0
VERTEX
8
CUT
10
41.35
20
54.991
0
VERTEX
8
CUT
10
40.6411
20
53.831
0
SEQEND
0
POLYLINE
8
CUT
66
1
70
0
0
VERTEX
8
CUT
10
42.7589
20
61.551
0
VERTEX
8
CUT
10
42.05
20
60.391
0
VERTEX
8
CUT
10
42.05
20
54.991
0
VERTEX
8
CUT
10
42.7589
20
53.831
0
SEQEND
0
POLYLINE
8
CUT
66
1
70
0
0
VERTEX
8
CUT
10
43.5411
20
61.551
0
VERTEX
8
CUT
10
44.25
20
60.391
0
VERTEX
8
CUT
10
44.25
20
54.991
0
VERTEX
8
CUT
10
43.5411
20
53.831
0
SEQEND
0
POLYLINE
8
CUT
66
1
70
0
0
VERTEX
8
CUT
10
45.6589
20
61.551
0
VERTEX
8
CUT
10
44.95
20
60.391
0
VERTEX
8
CUT
10
44.95
20
54.991
0
VERTEX
8
CUT
10
45.6589
20
53.831
0
SEQEND
0
POLYLINE
8
CUT
66
1
70
0
0
VERTEX
8
CUT
10
46.4411
20
61.551
0
VERTEX
8
CUT
10
47.15
20
60.391
0
VERTEX
8
CUT
10
47.15
20
54.991
0
VERTEX
8
CUT
10
46.4411
20
53.831
0
SEQEND
0
POLYLINE
8
CUT
66
1
70
0
0
VERTEX
8
CUT
10
48.5589
20
61.551
0
VERTEX
8
CUT
10
47.85
20
60.391
0
VERTEX
8
CUT
10
47.85
20
54.991
0
VERTEX
8
CUT
10
48.5589
20
53.831
0
SEQEND
0
POLYLINE
8
CUT
66
1
70
0
0
VERTEX
8
CUT
10
49.3411
20
61.551
0
VERTEX
8
CUT
10
50.05
20
60.391
0
VERTEX
8
CUT
10
50.05
20
54.991
0
VERTEX
8
CUT
10
49.3411
20
53.831
0
SEQEND
0
POLYLINE
8
CUT
66
1
70
0
0
VERTEX
8
CUT
10
51.4589
20
61.551
0
VERTEX
8
CUT
10
50.75
20
60.391
0
VERTEX
8
CUT
10
50.75
20
54.991
0
VERTEX
8
CUT
10
51.4589
20
53.831
0
SEQEND
0
POLYLINE
8
CUT
66
1
70
0
0
VERTEX
8
CUT
10
52.2411
20
61.551
0
VERTEX
8
CUT
10
52.95
20
60.391
0
VERTEX
8
CUT
10
52.95
20
54.991
0
VERTEX
8
CUT
10
52.2411
20
53.831
0
SEQEND
0
POLYLINE
8
CUT
66
1
70
0
0
VERTEX
8
CUT
10
54.3589
20
61.551
0
VERTEX
8
CUT
10
53.65
20
60.391
0
VERTEX
8
CUT
10
53.65
20
54.991
0
VERTEX
8
CUT
10
54.3589
20
53.831
0
SEQEND
0
POLYLINE
8
CUT
66
1
70
0
0
VERTEX
8
CUT
10
55.1411
20
61.551
0
VERTEX
8
CUT
10
55.85
20
60.391
0
VERTEX
8
CUT
10
55.85
20
54.991
0
VERTEX
8
CUT
10
55.1411
20
53.831
0
SEQEND
0
POLYLINE
8
CUT
66
1
70
0
0
VERTEX
8
CUT
10
57.2589
20
61.551
0
VERTEX
8
CUT
10
56.55
20
60.391
0
VERTEX
8
CUT
10
56.55
20
54.991
0
VERTEX
8
CUT
10
57.2589
20
53.831
0
SEQEND
0
POLYLINE
8
CUT
66
1
70
0
0
VERTEX
8
CUT
10
58.0411
20
61.551
0
VERTEX
8
CUT
10
58.75
20
60.391
0
VERTEX
8
CUT
10
58.75
20
54.991
0
VERTEX
8
CUT
10
58.0411
20
53.831
0
SEQEND
0
POLYLINE
8
CUT
66
1
70
0
0
VERTEX
8
CUT
10
60.1589
20
61.551
0
VERTEX
8
CUT
10
59.45
20
60.391
0
VERTEX
8
CUT
10
59.45
20
54.991
0
VERTEX
8
CUT
10
60.1589
20
53.831
0
SEQEND
0
POLYLINE
8
CUT
66
1
70
0
0
VERTEX
8
CUT
10
60.9411
20
61.551
0
VERTEX
8
CUT
10
61.65
20
60.391
0
VERTEX
8
CUT
10
61.65
20
54.991
0
VERTEX
8
CUT
10
60.9411
20
53.831
0
SEQEND
0
POLYLINE
8
CUT
66
1
70
0
0
VERTEX
8
CUT
10
63.0589
20
61.551
0
VERTEX
8
CUT
10
62.35
20
60.391
0
VERTEX
8
CUT
10
62.35
20
54.991
0
VERTEX
8
CUT
10
63.0589
20
53.831
0
SEQEND
0
POLYLINE
8
CUT
66
1
70
0
0
VERTEX
8
CUT
10
63.8411
20
61.551
0
VERTEX
8
CUT
10
64.55
20
60.391
0
VERTEX
8
CUT
10
64.55
20
54.991
0
VERTEX
8
CUT
10
63.8411
20
53.831
0
SEQEND
0
POLYLINE
8
CUT
66
1
70
0
0
VERTEX
8
CUT
10
65.9589
20
61.551
0
VERTEX
8
CUT
10
65.25
20
60.391
0
VERTEX
8
CUT
10
65.25
20
54.991
0
VERTEX
8
CUT
10
65.9589
20
53.831
0
SEQEND
0
POLYLINE
8
CUT
66
1
70
0
0
VERTEX
8
CUT
10
66.7411
20
61.551
0
VERTEX
8
CUT
10
67.45
20
60.391
0
VERTEX
8
CUT
10
67.45
20
54.991
0
VERTEX
8
CUT
10
66.7411
20
53.831
0
SEQEND
0
POLYLINE
8
CUT
66
1
70
0
0
VERTEX
8
CUT
10
68.8589
20
61.551
0
VERTEX
8
CUT
10
68.15
20
60.391
0
VERTEX
8
CUT
10
68.15
20
54.991
0
VERTEX
8
CUT
10
68.8589
20
53.831
0
SEQEND
0
POLYLINE
8
CUT
66
1
70
0
0
VERTEX
8
CUT
10
69.6411
20
61.551
0
VERTEX
8
CUT
10
70.35
20
60.391
0
VERTEX
8
CUT
10
70.35
20
54.991
0
VERTEX
8
CUT
10
69.6411
20
53.831
0
SEQEND
0
POLYLINE
8
CUT
66
1
70
0
0
VERTEX
8
CUT
10
71.7589
20
61.551
0
VERTEX
8
CUT
10
71.05
20
60.391
0
VERTEX
8
CUT
10
71.05
20
54.991
0
VERTEX
8
CUT
10
71.7589
20
53.831
0
SEQEND
0
POLYLINE
8
CUT
66
1
70
0
0
VERTEX
8
CUT
10
72.5411
20
61.551
0
VERTEX
8
CUT
10
73.25
20
60.391
0
VERTEX
8
CUT
10
73.25
20
54.991
0
VERTEX
8
CUT
10
72.5411
20
53.831
0
SEQEND
0
POLYLINE
8
CUT
66
1
70
0
0
VERTEX
8
CUT
10
74.6589
20
61.551
0
VERTEX
8
CUT
10
73.95
20
60.391
0
VERTEX
8
CUT
10
73.95
20
54.991
0
VERTEX
8
CUT
10
74.6589
20
53.831
0
SEQEND
0
POLYLINE
8
CUT
66
1
70
0
0
VERTEX
8
CUT
10
75.4411
20
61.551
0
VERTEX
8
CUT
10
76.15
20
60.391
0
VERTEX
8
CUT
10
76.15
20
54.991
0
VERTEX
8
CUT
10
75.4411
20
53.831
0
SEQEND
0
POLYLINE
8
CUT
66
1
70
0
0
VERTEX
8
CUT
10
77.5589
20
61.551
0
VERTEX
8
CUT
10
76.85
20
60.391
0
VERTEX
8
CUT
10
76.85
20
54.991
0
VERTEX
8
CUT
10
77.5589
20
53.831
0
SEQEND
0
POLYLINE
8
CUT
66
1
70
0
0
VERTEX
8
CUT
10
78.3411
20
61.551
0
VERTEX
8
CUT
10
79.05
20
60.391
0
VERTEX
8
CUT
10
79.05
20
54.991
0
VERTEX
8
CUT
10
78.3411
20
53.831
0
SEQEND
0
POLYLINE
8
CUT
66
1
70
0
0
VERTEX
8
CUT
10
80.4589
20
61.551
0
VERTEX
8
CUT
10
79.75
20
60.391
0
VERTEX
8
CUT
10
79.75
20
54.991
0
VERTEX
8
CUT
10
80.4589
20
53.831
0
SEQEND
0
POLYLINE
8
CUT
66
1
70
0
0
VERTEX
8
CUT
10
81.2411
20
61.551
0
VERTEX
8
CUT
10
81.95
20
60.391
0
VERTEX
8
CUT
10
81.95
20
54.991
0
VERTEX
8
CUT
10
81.2411
20
53.831
0
SEQEND
0
POLYLINE
8
CUT
66
1
70
0
0
VERTEX
8
CUT
10
83.3589
20
61.551
0
VERTEX
8
CUT
10
82.65
20
60.391
0
VERTEX
8
CUT
10
82.65
20
54.991
0
VERTEX
8
CUT
10
83.3589
20
53.831
0
SEQEND
0
POLYLINE
8
CUT
66
1
70
0
0
VERTEX
8
CUT
10
84.1411
20
61.551
0
VERTEX
8
CUT
10
84.85
20
60.391
0
VERTEX
8
CUT
10
84.85
20
54.991
0
VERTEX
8
CUT
10
84.1411
20
53.831
0
SEQEND
0
POLYLINE
8
CUT
66
1
70
0
0
VERTEX
8
CUT
10
86.2589
20
61.551
0
VERTEX
8
CUT
10
85.55
20
60.391
0
VERTEX
8
CUT
10
85.55
20
54.991
0
VERTEX
8
CUT
10
86.2589
20
53.831
0
SEQEND
0
POLYLINE
8
CUT
66
1
70
0
0
VERTEX
8
CUT
10
87.0411
20
61.551
0
VERTEX
8
CUT
10
87.75
20
60.391
0
VERTEX
8
CUT
10
87.75
20
54.991
0
VERTEX
8
CUT
10
87.0411
20
53.831
0
SEQEND
0
POLYLINE
8
CUT
66
1
70
0
0
VERTEX
8
CUT
10
89.1589
20
61.551
0
VERTEX
8
CUT
10
88.45
20
60.391
0
VERTEX
8
CUT
10
88.45
20
54.991
0
VERTEX
8
CUT
10
89.1589
20
53.831
0
SEQEND
0
POLYLINE
8
CUT
66
1
70
0
0
VERTEX
8
CUT
10
89.9411
20
61.551
0
VERTEX
8
CUT
10
90.65
20
60.391
0
VERTEX
8
CUT
10
90.65
20
54.991
0
VERTEX
8
CUT
10
89.9411
20
53.831
0
SEQEND
0
POLYLINE
8
CUT
66
1
70
0
0
VERTEX
8
CUT
10
92.0589
20
61.551
0
VERTEX
8
CUT
10
91.35
20
60.391
0
VERTEX
8
CUT
10
91.35
20
54.991
0
VERTEX
8
CUT
10
92.0589
20
53.831
0
SEQEND
0
POLYLINE
8
CUT
66
1
70
0
0
VERTEX
8
CUT
10
92.8411
20
61.551
0
VERTEX
8
CUT
10
93.55
20
60.391
0
VERTEX
8
CUT
10
93.55
20
54.991
0
VERTEX
8
CUT
10
92.8411
20
53.831
0
SEQEND
0
POLYLINE
8
CUT
66
1
70
0
0
VERTEX
8
CUT
10
94.9589
20
61.551
0
VERTEX
8
CUT
10
94.25
20
60.391
0
VERTEX
8
CUT
10
94.25
20
54.991
0
VERTEX
8
CUT
10
94.9589
20
53.831
0
SEQEND
0
POLYLINE
8
CUT
66
1
70
0
0
VERTEX
8
CUT
10
95.7411
20
61.551
0
VERTEX
8
CUT
10
96.45
20
60.391
0
VERTEX
8
CUT
10
96.45
20
54.991
0
VERTEX
8
CUT
10
95.7411
20
53.831
0
SEQEND
0
POLYLINE
8
CUT
66
1
70
0
0
VERTEX
8
CUT
10
97.8589
20
61.551
0
VERTEX
8
CUT
10
97.15
20
60.391
0
VERTEX
8
CUT
10
97.15
20
54.991
0
VERTEX
8
CUT
10
97.8589
20
53.831
0
SEQEND
0
POLYLINE
8
CUT
66
1
70
0
0
VERTEX
8
CUT
10
98.6411
20
61.551
0
VERTEX
8
CUT
10
99.35
20
60.391
0
VERTEX
8
CUT
10
99.35
20
54.991
0
VERTEX
8
CUT
10
98.6411
20
53.831
0
SEQEND
0
POLYLINE
8
CUT
66
1
70
0
0
VERTEX
8
CUT
10
100.7589
20
61.551
0
VERTEX
8
CUT
10
100.05
20
60.391
0
VERTEX
8
CUT
10
100.05
20
54.991
0
VERTEX
8
CUT
10
100.7589
20
53.831
0
SEQEND
0
POLYLINE
8
CUT
66
1
70
0
0
VERTEX
8
CUT
10
101.5411
20
61.551
0
VERTEX
8
CUT
10
102.25
20
60.391
0
VERTEX
8
CUT
10
102.25
20
54.991
0
VERTEX
8
CUT
10
101.5411
20
53.831
0
SEQEND
0
POLYLINE
8
CUT
66
1
70
0
0
VERTEX
8
CUT
10
103.6589
20
61.551
0
VERTEX
8
CUT
10
102.95
20
60.391
0
VERTEX
8
CUT
10
102.95
20
54.991
0
VERTEX
8
CUT
10
103.6589
20
53.831
0
SEQEND
0
POLYLINE
8
CUT
66
1
70
0
0
VERTEX
8
CUT
10
104.4411
20
61.551
0
VERTEX
8
CUT
10
105.15
20
60.391
0
VERTEX
8
CUT
10
105.15
20
54.991
0
VERTEX
8
CUT
10
104.4411
20
53.831
0
SEQEND
0
POLYLINE
8
CUT
66
1
70
0
0
VERTEX
8
CUT
10
106.5589
20
61.551
0
VERTEX
8
CUT
10
105.85
20
60.391
0
VERTEX
8
CUT
10
105.85
20
54.991
0
VERTEX
8
CUT
10
106.5589
20
53.831
0
SEQEND
0
POLYLINE
8
CUT
66
1
70
0
0
VERTEX
8
CUT
10
107.3411
20
61.551
0
VERTEX
8
CUT
10
108.05
20
60.391
0
VERTEX
8
CUT
10
108.05
20
54.991
0
VERTEX
8
CUT
10
107.3411
20
53.831
0
SEQEND
0
POLYLINE
8
CUT
66
1
70
0
0
VERTEX
8
CUT
10
109.4589
20
61.551
0
VERTEX
8
CUT
10
108.75
20
60.391
0
VERTEX
8
CUT
10
108.75
20
54.991
0
VERTEX
8
CUT
10
109.4589
20
53.831
0
SEQEND
0
POLYLINE
8
CUT
66
1
70
0
0
VERTEX
8
CUT
10
110.2411
20
61.551
0
VERTEX
8
CUT
10
110.95
20
60.391
0
VERTEX
8
CUT
10
110.95
20
54.991
0
VERTEX
8
CUT
10
110.2411
20
53.831
0
SEQEND
0
POLYLINE
8
CUT
66
1
70
0
0
VERTEX
8
CUT
10
112.3589
20
61.551
0
VERTEX
8
CUT
10
111.65
20
60.391
0
VERTEX
8
CUT
10
111.65
20
54.991
0
VERTEX
8
CUT
10
112.3589
20
53.831
0
SEQEND
0
POLYLINE
8
CUT
66
1
70
0
0
VERTEX
8
CUT
10
113.1411
20
61.551
0
VERTEX
8
CUT
10
113.85
20
60.391
0
VERTEX
8
CUT
10
113.85
20
54.991
0
VERTEX
8
CUT
10
113.1411
20
53.831
0
SEQEND
0
POLYLINE
8
CUT
66
1
70
0
0
VERTEX
8
CUT
10
115.2589
20
61.551
0
VERTEX
8
CUT
10
114.55
20
60.391
0
VERTEX
8
CUT
10
114.55
20
54.991
0
VERTEX
8
CUT
10
115.2589
20
53.831
0
SEQEND
0
POLYLINE
8
CUT
66
1
70
0
0
VERTEX
8
CUT
10
116.0411
20
61.551
0
VERTEX
8
CUT
10
116.75
20
60.391
0
VERTEX
8
CUT
10
116.75
20
54.991
0
VERTEX
8
CUT
10
116.0411
20
53.831
0
SEQEND
0
POLYLINE
8
CUT
66
1
70
0
0
VERTEX
8
CUT
10
118.1589
20
61.551
0
VERTEX
8
CUT
10
117.45
20
60.391
0
VERTEX
8
CUT
10
117.45
20
54.991
0
VERTEX
8
CUT
10
118.1589
20
53.831
0
SEQEND
0
POLYLINE
8
CUT
66
1
70
0
0
VERTEX
8
CUT
10
118.9411
20
61.551
0
VERTEX
8
CUT
10
119.65
20
60.391
0
VERTEX
8
CUT
10
119.65
20
54.991
0
VERTEX
8
CUT
10
118.9411
20
53.831
0
SEQEND
0
POLYLINE
8
CUT
66
1
70
0
0
VERTEX
8
CUT
10
0.7089
20
53.742
0
VERTEX
8
CUT
10
0
20
52.582
0
VERTEX
8
CUT
10
0
20
47.182
0
VERTEX
8
CUT
10
0.7089
20
46.022
0
SEQEND
0
POLYLINE
8
CUT
66
1
70
0
0
VERTEX
8
CUT
10
1.4911
20
53.742
0
VERTEX
8
CUT
10
2.2
20
52.582
0
VERTEX
8
CUT
10
2.2
20
47.182
0
VERTEX
8
CUT
10
1.4911
20
46.022
0
SEQEND
0
POLYLINE
8
CUT
66
1
70
0
0
VERTEX
8
CUT
10
3.6089
20
53.742
0
VERTEX
8
CUT
10
2.9
20
52.582
0
VERTEX
8
CUT
10
2.9
20
47.182
0
VERTEX
8
CUT
10
3.6089
20
46.022
0
SEQEND
0
POLYLINE
8
CUT
66
1
70
0
0
VERTEX
8
CUT
10
4.3911
20
53.742
0
VERTEX
8
CUT
10
5.1
20
52.582
0
VERTEX
8
CUT
10
5.1
20
47.182
0
VERTEX
8
CUT
10
4.3911
20
46.022
0
SEQEND
0
POLYLINE
8
CUT
66
1
70
0
0
VERTEX
8
CUT
10
6.5089
20
53.742
0
VERTEX
8
CUT
10
5.8
20
52.582
0
VERTEX
8
CUT
10
5.8
20
47.182
0
VERTEX
8
CUT
10
6.5089
20
46.022
0
SEQEND
0
POLYLINE
8
CUT
66
1
70
0
0
VERTEX
8
CUT
10
7.2911
20
53.742
0
VERTEX
8
CUT
10
8
20
52.582
0
VERTEX
8
CUT
10
8
20
47.182
0
VERTEX
8
CUT
10
7.2911
20
46.022
0
SEQEND
0
POLYLINE
8
CUT
66
1
70
0
0
VERTEX
8
CUT
10
9.4089
20
53.742
0
VERTEX
8
CUT
10
8.7
20
52.582
0
VERTEX
8
CUT
10
8.7
20
47.182
0
VERTEX
8
CUT
10
9.4089
20
46.022
0
SEQEND
0
POLYLINE
8
CUT
66
1
70
0
0
VERTEX
8
CUT
10
10.1911
20
53.742
0
VERTEX
8
CUT
10
10.9
20
52.582
0
VERTEX
8
CUT
10
10.9
20
47.182
0
VERTEX
8
CUT
10
10.1911
20
46.022
0
SEQEND
0
POLYLINE
8
CUT
66
1
70
0
0
VERTEX
8
CUT
10
12.3089
20
53.742
0
VERTEX
8
CUT
10
11.6
20
52.582
0
VERTEX
8
CUT
10
11.6
20
47.182
0
VERTEX
8
CUT
10
12.3089
20
46.022
0
SEQEND
0
POLYLINE
8
CUT
66
1
70
0
0
VERTEX
8
CUT
10
13.0911
20
53.742
0
VERTEX
8
CUT
10
13.8
20
52.582
0
VERTEX
8
CUT
10
13.8
20
47.182
0
VERTEX
8
CUT
10
13.0911
20
46.022
0
SEQEND
0
POLYLINE
8
CUT
66
1
70
0
0
VERTEX
8
CUT
10
15.2089
20
53.742
0
VERTEX
8
CUT
10
14.5
20
52.582
0
VERTEX
8
CUT
10
14.5
20
47.182
0
VERTEX
8
CUT
10
15.2089
20
46.022
0
SEQEND
0
POLYLINE
8
CUT
66
1
70
0
0
VERTEX
8
CUT
10
15.9911
20
53.742
0
VERTEX
8
CUT
10
16.7
20
52.582
0
VERTEX
8
CUT
10
16.7
20
47.182
0
VERTEX
8
CUT
10
15.9911
20
46.022
0
SEQEND
0
POLYLINE
8
CUT
66
1
70
0
0
VERTEX
8
CUT
10
18.1089
20
53.742
0
VERTEX
8
CUT
10
17.4
20
52.582
0
VERTEX
8
CUT
10
17.4
20
47.182
0
VERTEX
8
CUT
10
18.1089
20
46.022
0
SEQEND
0
POLYLINE
8
CUT
66
1
70
0
0
VERTEX
8
CUT
10
18.8911
20
53.742
0
VERTEX
8
CUT
10
19.6
20
52.582
0
VERTEX
8
CUT
10
19.6
20
47.182
0
VERTEX
8
CUT
10
18.8911
20
46.022
0
SEQEND
0
POLYLINE
8
CUT
66
1
70
0
0
VERTEX
8
CUT
10
21.0089
20
53.742
0
VERTEX
8
CUT
10
20.3
20
52.582
0
VERTEX
8
CUT
10
20.3
20
47.182
0
VERTEX
8
CUT
10
21.0089
20
46.022
0
SEQEND
0
POLYLINE
8
CUT
66
1
70
0
0
VERTEX
8
CUT
10
21.7911
20
53.742
0
VERTEX
8
CUT
10
22.5
20
52.582
0
VERTEX
8
CUT
10
22.5
20
47.182
0
VERTEX
8
CUT
10
21.7911
20
46.022
0
SEQEND
0
POLYLINE
8
CUT
66
1
70
0
0
VERTEX
8
CUT
10
23.9089
20
53.742
0
VERTEX
8
CUT
10
23.2
20
52.582
0
VERTEX
8
CUT
10
23.2
20
47.182
0
VERTEX
8
CUT
10
23.9089
20
46.022
0
SEQEND
0
POLYLINE
8
CUT
66
1
70
0
0
VERTEX
8
CUT
10
24.6911
20
53.742
0
VERTEX
8
CUT
10
25.4
20
52.582
0
VERTEX
8
CUT
10
25.4
20
47.182
0
VERTEX
8
CUT
10
24.6911
20
46.022
0
SEQEND
0
POLYLINE
8
CUT
66
1
70
0
0
VERTEX
8
CUT
10
26.8089
20
53.742
0
VERTEX
8
CUT
10
26.1
20
52.582
0
VERTEX
8
CUT
10
26.1
20
47.182
0
VERTEX
8
CUT
10
26.8089
20
46.022
0
SEQEND
0
POLYLINE
8
CUT
66
1
70
0
0
VERTEX
8
CUT
10
27.5911
20
53.742
0
VERTEX
8
CUT
10
28.3
20
52.582
0
VERTEX
8
CUT
10
28.3
20
47.182
0
VERTEX
8
CUT
10
27.5911
20
46.022
0
SEQEND
0
POLYLINE
8
CUT
66
1
70
0
0
VERTEX
8
CUT
10
29.7089
20
53.742
0
VERTEX
8
CUT
10
29
20
52.582
0
VERTEX
8
CUT
10
29
20
47.182
0
VERTEX
8
CUT
10
29.7089
20
46.022
0
SEQEND
0
POLYLINE
8
CUT
66
1
70
0
0
VERTEX
8
CUT
10
30.4911
20
53.742
0
VERTEX
8
CUT
10
31.2
20
52.582
0
VERTEX
8
CUT
10
31.2
20
47.182
0
VERTEX
8
CUT
10
30.4911
20
46.022
0
SEQEND
0
POLYLINE
8
CUT
66
1
70
0
0
VERTEX
8
CUT
10
32.6089
20
53.742
0
VERTEX
8
CUT
10
31.9
20
52.582
0
VERTEX
8
CUT
10
31.9
20
47.182
0
VERTEX
8
CUT
10
32.6089
20
46.022
0
SEQEND
0
POLYLINE
8
CUT
66
1
70
0
0
VERTEX
8
CUT
10
33.3911
20
53.742
0
VERTEX
8
CUT
10
34.1
20
52.582
0
VERTEX
8
CUT
10
34.1
20
47.182
0
VERTEX
8
CUT
10
33.3911
20
46.022
0
SEQEND
0
POLYLINE
8
CUT
66
1
70
0
0
VERTEX
8
CUT
10
35.5089
20
53.742
0
VERTEX
8
CUT
10
34.8
20
52.582
0
VERTEX
8
CUT
10
34.8
20
47.182
0
VERTEX
8
CUT
10
35.5089
20
46.022
0
SEQEND
0
POLYLINE
8
CUT
66
1
70
0
0
VERTEX
8
CUT
10
36.2911
20
53.742
0
VERTEX
8
CUT
10
37
20
52.582
0
VERTEX
8
CUT
10
37
20
47.182
0
VERTEX
8
CUT
10
36.2911
20
46.022
0
SEQEND
0
POLYLINE
8
CUT
66
1
70
0
0
VERTEX
8
CUT
10
38.4089
20
53.742
0
VERTEX
8
CUT
10
37.7
20
52.582
0
VERTEX
8
CUT
10
37.7
20
47.182
0
VERTEX
8
CUT
10
38.4089
20
46.022
0
SEQEND
0
POLYLINE
8
CUT
66
1
70
0
0
VERTEX
8
CUT
10
39.1911
20
53.742
0
VERTEX
8
CUT
10
39.9
20
52.582
0
VERTEX
8
CUT
10
39.9
20
47.182
0
VERTEX
8
CUT
10
39.1911
20
46.022
0
SEQEND
0
POLYLINE
8
CUT
66
1
70
0
0
VERTEX
8
CUT
10
41.3089
20
53.742
0
VERTEX
8
CUT
10
40.6
20
52.582
0
VERTEX
8
CUT
10
40.6
20
47.182
0
VERTEX
8
CUT
10
41.3089
20
46.022
0
SEQEND
0
POLYLINE
8
CUT
66
1
70
0
0
VERTEX
8
CUT
10
42.0911
20
53.742
0
VERTEX
8
CUT
10
42.8
20
52.582
0
VERTEX
8
CUT
10
42.8
20
47.182
0
VERTEX
8
CUT
10
42.0911
20
46.022
0
SEQEND
0
POLYLINE
8
CUT
66
1
70
0
0
VERTEX
8
CUT
10
44.2089
20
53.742
0
VERTEX
8
CUT
10
43.5
20
52.582
0
VERTEX
8
CUT
10
43.5
20
47.182
0
VERTEX
8
CUT
10
44.2089
20
46.022
0
SEQEND
0
POLYLINE
8
CUT
66
1
70
0
0
VERTEX
8
CUT
10
44.9911
20
53.742
0
VERTEX
8
CUT
10
45.7
20
52.582
0
VERTEX
8
CUT
10
45.7
20
47.182
0
VERTEX
8
CUT
10
44.9911
20
46.022
0
SEQEND
0
POLYLINE
8
CUT
66
1
70
0
0
VERTEX
8
CUT
10
47.1089
20
53.742
0
VERTEX
8
CUT
10
46.4
20
52.582
0
VERTEX
8
CUT
10
46.4
20
47.182
0
VERTEX
8
CUT
10
47.1089
20
46.022
0
SEQEND
0
POLYLINE
8
CUT
66
1
70
0
0
VERTEX
8
CUT
10
47.8911
20
53.742
0
VERTEX
8
CUT
10
48.6
20
52.582
0
VERTEX
8
CUT
10
48.6
20
47.182
0
VERTEX
8
CUT
10
47.8911
20
46.022
0
SEQEND
0
POLYLINE
8
CUT
66
1
70
0
0
VERTEX
8
CUT
10
50.0089
20
53.742
0
VERTEX
8
CUT
10
49.3
20
52.582
0
VERTEX
8
CUT
10
49.3
20
47.182
0
VERTEX
8
CUT
10
50.0089
20
46.022
0
SEQEND
0
POLYLINE
8
CUT
66
1
70
0
0
VERTEX
8
CUT
10
50.7911
20
53.742
0
VERTEX
8
CUT
10
51.5
20
52.582
0
VERTEX
8
CUT
10
51.5
20
47.182
0
VERTEX
8
CUT
10
50.7911
20
46.022
0
SEQEND
0
POLYLINE
8
CUT
66
1
70
0
0
VERTEX
8
CUT
10
52.9089
20
53.742
0
VERTEX
8
CUT
10
52.2
20
52.582
0
VERTEX
8
CUT
10
52.2
20
47.182
0
VERTEX
8
CUT
10
52.9089
20
46.022
0
SEQEND
0
POLYLINE
8
CUT
66
1
70
0
0
VERTEX
8
CUT
10
53.6911
20
53.742
0
VERTEX
8
CUT
10
54.4
20
52.582
0
VERTEX
8
CUT
10
54.4
20
47.182
0
VERTEX
8
CUT
10
53.6911
20
46.022
0
SEQEND
0
POLYLINE
8
CUT
66
1
70
0
0
VERTEX
8
CUT
10
55.8089
20
53.742
0
VERTEX
8
CUT
10
55.1
20
52.582
0
VERTEX
8
CUT
10
55.1
20
47.182
0
VERTEX
8
CUT
10
55.8089
20
46.022
0
SEQEND
0
POLYLINE
8
CUT
66
1
70
0
0
VERTEX
8
CUT
10
56.5911
20
53.742
0
VERTEX
8
CUT
10
57.3
20
52.582
0
VERTEX
8
CUT
10
57.3
20
47.182
0
VERTEX
8
CUT
10
56.5911
20
46.022
0
SEQEND
0
POLYLINE
8
CUT
66
1
70
0
0
VERTEX
8
CUT
10
58.7089
20
53.742
0
VERTEX
8
CUT
10
58
20
52.582
0
VERTEX
8
CUT
10
58
20
47.182
0
VERTEX
8
CUT
10
58.7089
20
46.022
0
SEQEND
0
POLYLINE
8
CUT
66
1
70
0
0
VERTEX
8
CUT
10
59.4911
20
53.742
0
VERTEX
8
CUT
10
60.2
20
52.582
0
VERTEX
8
CUT
10
60.2
20
47.182
0
VERTEX
8
CUT
10
59.4911
20
46.022
0
SEQEND
0
POLYLINE
8
CUT
66
1
70
0
0
VERTEX
8
CUT
10
61.6089
20
53.742
0
VERTEX
8
CUT
10
60.9
20
52.582
0
VERTEX
8
CUT
10
60.9
20
47.182
0
VERTEX
8
CUT
10
61.6089
20
46.022
0
SEQEND
0
POLYLINE
8
CUT
66
1
70
0
0
VERTEX
8
CUT
10
62.3911
20
53.742
0
VERTEX
8
CUT
10
63.1
20
52.582
0
VERTEX
8
CUT
10
63.1
20
47.182
0
VERTEX
8
CUT
10
62.3911
20
46.022
0
SEQEND
0
POLYLINE
8
CUT
66
1
70
0
0
VERTEX
8
CUT
10
64.5089
20
53.742
0
VERTEX
8
CUT
10
63.8
20
52.582
0
VERTEX
8
CUT
10
63.8
20
47.182
0
VERTEX
8
CUT
10
64.5089
20
46.022
0
SEQEND
0
POLYLINE
8
CUT
66
1
70
0
0
VERTEX
8
CUT
10
65.2911
20
53.742
0
VERTEX
8
CUT
10
66
20
52.582
0
VERTEX
8
CUT
10
66
20
47.182
0
VERTEX
8
CUT
10
65.2911
20
46.022
0
SEQEND
0
POLYLINE
8
CUT
66
1
70
0
0
VERTEX
8
CUT
10
67.4089
20
53.742
0
VERTEX
8
CUT
10
66.7
20
52.582
0
VERTEX
8
CUT
10
66.7
20
47.182
0
VERTEX
8
CUT
10
67.4089
20
46.022
0
SEQEND
0
POLYLINE
8
CUT
66
1
70
0
0
VERTEX
8
CUT
10
68.1911
20
53.742
0
VERTEX
8
CUT
10
68.9
20
52.582
0
VERTEX
8
CUT
10
68.9
20
47.182
0
VERTEX
8
CUT
10
68.1911
20
46.022
0
SEQEND
0
POLYLINE
8
CUT
66
1
70
0
0
VERTEX
8
CUT
10
70.3089
20
53.742
0
VERTEX
8
CUT
10
69.6
20
52.582
0
VERTEX
8
CUT
10
69.6
20
47.182
0
VERTEX
8
CUT
10
70.3089
20
46.022
0
SEQEND
0
POLYLINE
8
CUT
66
1
70
0
0
VERTEX
8
CUT
10
71.0911
20
53.742
0
VERTEX
8
CUT
10
71.8
20
52.582
0
VERTEX
8
CUT
10
71.8
20
47.182
0
VERTEX
8
CUT
10
71.0911
20
46.022
0
SEQEND
0
POLYLINE
8
CUT
66
1
70
0
0
VERTEX
8
CUT
10
73.2089
20
53.742
0
VERTEX
8
CUT
10
72.5
20
52.582
0
VERTEX
8
CUT
10
72.5
20
47.182
0
VERTEX
8
CUT
10
73.2089
20
46.022
0
SEQEND
0
POLYLINE
8
CUT
66
1
70
0
0
VERTEX
8
CUT
10
73.9911
20
53.742
0
VERTEX
8
CUT
10
74.7
20
52.582
0
VERTEX
8
CUT
10
74.7
20
47.182
0
VERTEX
8
CUT
10
73.9911
20
46.022
0
SEQEND
0
POLYLINE
8
CUT
66
1
70
0
0
VERTEX
8
CUT
10
76.1089
20
53.742
0
VERTEX
8
CUT
10
75.4
20
52.582
0
VERTEX
8
CUT
10
75.4
20
47.182
0
VERTEX
8
CUT
10
76.1089
20
46.022
0
SEQEND
0
POLYLINE
8
CUT
66
1
70
0
0
VERTEX
8
CUT
10
76.8911
20
53.742
0
VERTEX
8
CUT
10
77.6
20
52.582
0
VERTEX
8
CUT
10
77.6
20
47.182
0
VERTEX
8
CUT
10
76.8911
20
46.022
0
SEQEND
0
POLYLINE
8
CUT
66
1
70
0
0
VERTEX
8
CUT
10
79.0089
20
53.742
0
VERTEX
8
CUT
10
78.3
20
52.582
0
VERTEX
8
CUT
10
78.3
20
47.182
0
VERTEX
8
CUT
10
79.0089
20
46.022
0
SEQEND
0
POLYLINE
8
CUT
66
1
70
0
0
VERTEX
8
CUT
10
79.7911
20
53.742
0
VERTEX
8
CUT
10
80.5
20
52.582
0
VERTEX
8
CUT
10
80.5
20
47.182
0
VERTEX
8
CUT
10
79.7911
20
46.022
0
SEQEND
0
POLYLINE
8
CUT
66
1
70
0
0
VERTEX
8
CUT
10
81.9089
20
53.742
0
VERTEX
8
CUT
10
81.2
20
52.582
0
VERTEX
8
CUT
10
81.2
20
47.182
0
VERTEX
8
CUT
10
81.9089
20
46.022
0
SEQEND
0
POLYLINE
8
CUT
66
1
70
0
0
VERTEX
8
CUT
10
82.6911
20
53.742
0
VERTEX
8
CUT
10
83.4
20
52.582
0
VERTEX
8
CUT
10
83.4
20
47.182
0
VERTEX
8
CUT
10
82.6911
20
46.022
0
SEQEND
0
POLYLINE
8
CUT
66
1
70
0
0
VERTEX
8
CUT
10
84.8089
20
53.742
0
VERTEX
8
CUT
10
84.1
20
52.582
0
VERTEX
8
CUT
10
84.1
20
47.182
0
VERTEX
8
CUT
10
84.8089
20
46.022
0
SEQEND
0
POLYLINE
8
CUT
66
1
70
0
0
VERTEX
8
CUT
10
85.5911
20
53.742
0
VERTEX
8
CUT
10
86.3
20
52.582
0
VERTEX
8
CUT
10
86.3
20
47.182
0
VERTEX
8
CUT
10
85.5911
20
46.022
0
SEQEND
0
POLYLINE
8
CUT
66
1
70
0
0
VERTEX
8
CUT
10
87.7089
20
53.742
0
VERTEX
8
CUT
10
87
20
52.582
0
VERTEX
8
CUT
10
87
20
47.182
0
VERTEX
8
CUT
10
87.7089
20
46.022
0
SEQEND
0
POLYLINE
8
CUT
66
1
70
0
0
VERTEX
8
CUT
10
88.4911
20
53.742
0
VERTEX
8
CUT
10
89.2
20
52.582
0
VERTEX
8
CUT
10
89.2
20
47.182
0
VERTEX
8
CUT
10
88.4911
20
46.022
0
SEQEND
0
POLYLINE
8
CUT
66
1
70
0
0
VERTEX
8
CUT
10
90.6089
20
53.742
0
VERTEX
8
CUT
10
89.9
20
52.582
0
VERTEX
8
CUT
10
89.9
20
47.182
0
VERTEX
8
CUT
10
90.6089
20
46.022
0
SEQEND
0
POLYLINE
8
CUT
66
1
70
0
0
VERTEX
8
CUT
10
91.3911
20
53.742
0
VERTEX
8
CUT
10
92.1
20
52.582
0
VERTEX
8
CUT
10
92.1
20
47.182
0
VERTEX
8
CUT
10
91.3911
20
46.022
0
SEQEND
0
POLYLINE
8
CUT
66
1
70
0
0
VERTEX
8
CUT
10
93.5089
20
53.742
0
VERTEX
8
CUT
10
92.8
20
52.582
0
VERTEX
8
CUT
10
92.8
20
47.182
0
VERTEX
8
CUT
10
93.5089
20
46.022
0
SEQEND
0
POLYLINE
8
CUT
66
1
70
0
0
VERTEX
8
CUT
10
94.2911
20
53.742
0
VERTEX
8
CUT
10
95
20
52.582
0
VERTEX
8
CUT
10
95
20
47.182
0
VERTEX
8
CUT
10
94.2911
20
46.022
0
SEQEND
0
POLYLINE
8
CUT
66
1
70
0
0
VERTEX
8
CUT
10
96.4089
20
53.742
0
VERTEX
8
CUT
10
95.7
20
52.582
0
VERTEX
8
CUT
10
95.7
20
47.182
0
VERTEX
8
CUT
10
96.4089
20
46.022
0
SEQEND
0
POLYLINE
8
CUT
66
1
70
0
0
VERTEX
8
CUT
10
97.1911
20
53.742
0
VERTEX
8
CUT
10
97.9
20
52.582
0
VERTEX
8
CUT
10
97.9
20
47.182
0
VERTEX
8
CUT
10
97.1911
20
46.022
0
SEQEND
0
POLYLINE
8
CUT
66
1
70
0
0
VERTEX
8
CUT
10
99.3089
20
53.742
0
VERTEX
8
CUT
10
98.6
20
52.582
0
VERTEX
8
CUT
10
98.6
20
47.182
0
VERTEX
8
CUT
10
99.3089
20
46.022
0
SEQEND
0
POLYLINE
8
CUT
66
1
70
0
0
VERTEX
8
CUT
10
100.0911
20
53.742
0
VERTEX
8
CUT
10
100.8
20
52.582
0
VERTEX
8
CUT
10
100.8
20
47.182
0
VERTEX
8
CUT
10
100.0911
20
46.022
0
SEQEND
0
POLYLINE
8
CUT
66
1
70
0
0
VERTEX
8
CUT
10
102.2089
20
53.742
0
VERTEX
8
CUT
10
101.5
20
52.582
0
VERTEX
8
CUT
10
101.5
20
47.182
0
VERTEX
8
CUT
10
102.2089
20
46.022
0
SEQEND
0
POLYLINE
8
CUT
66
1
70
0
0
VERTEX
8
CUT
10
102.9911
20
53.742
0
VERTEX
8
CUT
10
103.7
20
52.582
0
VERTEX
8
CUT
10
103.7
20
47.182
0
VERTEX
8
CUT
10
102.9911
20
46.022
0
SEQEND
0
POLYLINE
8
CUT
66
1
70
0
0
VERTEX
8
CUT
10
105.1089
20
53.742
0
VERTEX
8
CUT
10
104.4
20
52.582
0
VERTEX
8
CUT
10
104.4
20
47.182
0
VERTEX
8
CUT
10
105.1089
20
46.022
0
SEQEND
0
POLYLINE
8
CUT
66
1
70
0
0
VERTEX
8
CUT
10
105.8911
20
53.742
0
VERTEX
8
CUT
10
106.6
20
52.582
0
VERTEX
8
CUT
10
106.6
20
47.182
0
VERTEX
8
CUT
10
105.8911
20
46.022
0
SEQEND
0
POLYLINE
8
CUT
66
1
70
0
0
VERTEX
8
CUT
10
108.0089
20
53.742
0
VERTEX
8
CUT
10
107.3
20
52.582
0
VERTEX
8
CUT
10
107.3
20
47.182
0
VERTEX
8
CUT
10
108.0089
20
46.022
0
SEQEND
0
POLYLINE
8
CUT
66
1
70
0
0
VERTEX
8
CUT
10
108.7911
20
53.742
0
VERTEX
8
CUT
10
109.5
20
52.582
0
VERTEX
8
CUT
10
109.5
20
47.182
0
VERTEX
8
CUT
10
108.7911
20
46.022
0
SEQEND
0
POLYLINE
8
CUT
66
1
70
0
0
VERTEX
8
CUT
10
110.9089
20
53.742
0
VERTEX
8
CUT
10
110.2
20
52.582
0
VERTEX
8
CUT
10
110.2
20
47.182
0
VERTEX
8
CUT
10
110.9089
20
46.022
0
SEQEND
0
POLYLINE
8
CUT
66
1
70
0
0
VERTEX
8
CUT
10
111.6911
20
53.742
0
VERTEX
8
CUT
10
112.4
20
52.582
0
VERTEX
8
CUT
10
112.4
20
47.182
0
VERTEX
8
CUT
10
111.6911
20
46.022
0
SEQEND
0
POLYLINE
8
CUT
66
1
70
0
0
VERTEX
8
CUT
10
113.8089
20
53.742
0
VERTEX
8
CUT
10
113.1
20
52.582
0
VERTEX
8
CUT
10
113.1
20
47.182
0
VERTEX
8
CUT
10
113.8089
20
46.022
0
SEQEND
0
POLYLINE
8
CUT
66
1
70
0
0
VERTEX
8
CUT
10
114.5911
20
53.742
0
VERTEX
8
CUT
10
115.3
20
52.582
0
VERTEX
8
CUT
10
115.3
20
47.182
0
VERTEX
8
CUT
10
114.5911
20
46.022
0
SEQEND
0
POLYLINE
8
CUT
66
1
70
0
0
VERTEX
8
CUT
10
116.7089
20
53.742
0
VERTEX
8
CUT
10
116
20
52.582
0
VERTEX
8
CUT
10
116
20
47.182
0
VERTEX
8
CUT
10
116.7089
20
46.022
0
SEQEND
0
POLYLINE
8
CUT
66
1
70
0
0
VERTEX
8
CUT
10
117.4911
20
53.742
0
VERTEX
8
CUT
10
118.2
20
52.582
0
VERTEX
8
CUT
10
118.2
20
47.182
0
VERTEX
8
CUT
10
117.4911
20
46.022
0
SEQEND
0
POLYLINE
8
CUT
66
1
70
0
0
VERTEX
8
CUT
10
119.6089
20
53.742
0
VERTEX
8
CUT
10
118.9
20
52.582
0
VERTEX
8
CUT
10
118.9
20
47.182
0
VERTEX
8
CUT
10
119.6089
20
46.022
0
SEQEND
0
POLYLINE
8
CUT
66
1
70
0
0
VERTEX
8
CUT
10
0.0411
20
45.933
0
VERTEX
8
CUT
10
0.75
20
44.773
0
VERTEX
8
CUT
10
0.75
20
39.373
0
VERTEX
8
CUT
10
0.0411
20
38.213
0
SEQEND
0
POLYLINE
8
CUT
66
1
70
0
0
VERTEX
8
CUT
10
2.1589
20
45.933
0
VERTEX
8
CUT
10
1.45
20
44.773
0
VERTEX
8
CUT
10
1.45
20
39.373
0
VERTEX
8
CUT
10
2.1589
20
38.213
0
SEQEND
0
POLYLINE
8
CUT
66
1
70
0
0
VERTEX
8
CUT
10
2.9411
20
45.933
0
VERTEX
8
CUT
10
3.65
20
44.773
0
VERTEX
8
CUT
10
3.65
20
39.373
0
VERTEX
8
CUT
10
2.9411
20
38.213
0
SEQEND
0
POLYLINE
8
CUT
66
1
70
0
0
VERTEX
8
CUT
10
5.0589
20
45.933
0
VERTEX
8
CUT
10
4.35
20
44.773
0
VERTEX
8
CUT
10
4.35
20
39.373
0
VERTEX
8
CUT
10
5.0589
20
38.213
0
SEQEND
0
POLYLINE
8
CUT
66
1
70
0
0
VERTEX
8
CUT
10
5.8411
20
45.933
0
VERTEX
8
CUT
10
6.55
20
44.773
0
VERTEX
8
CUT
10
6.55
20
39.373
0
VERTEX
8
CUT
10
5.8411
20
38.213
0
SEQEND
0
POLYLINE
8
CUT
66
1
70
0
0
VERTEX
8
CUT
10
7.9589
20
45.933
0
VERTEX
8
CUT
10
7.25
20
44.773
0
VERTEX
8
CUT
10
7.25
20
39.373
0
VERTEX
8
CUT
10
7.9589
20
38.213
0
SEQEND
0
POLYLINE
8
CUT
66
1
70
0
0
VERTEX
8
CUT
10
8.7411
20
45.933
0
VERTEX
8
CUT
10
9.45
20
44.773
0
VERTEX
8
CUT
10
9.45
20
39.373
0
VERTEX
8
CUT
10
8.7411
20
38.213
0
SEQEND
0
POLYLINE
8
CUT
66
1
70
0
0
VERTEX
8
CUT
10
10.8589
20
45.933
0
VERTEX
8
CUT
10
10.15
20
44.773
0
VERTEX
8
CUT
10
10.15
20
39.373
0
VERTEX
8
CUT
10
10.8589
20
38.213
0
SEQEND
0
POLYLINE
8
CUT
66
1
70
0
0
VERTEX
8
CUT
10
11.6411
20
45.933
0
VERTEX
8
CUT
10
12.35
20
44.773
0
VERTEX
8
CUT
10
12.35
20
39.373
0
VERTEX
8
CUT
10
11.6411
20
38.213
0
SEQEND
0
POLYLINE
8
CUT
66
1
70
0
0
VERTEX
8
CUT
10
13.7589
20
45.933
0
VERTEX
8
CUT
10
13.05
20
44.773
0
VERTEX
8
CUT
10
13.05
20
39.373
0
VERTEX
8
CUT
10
13.7589
20
38.213
0
SEQEND
0
POLYLINE
8
CUT
66
1
70
0
0
VERTEX
8
CUT
10
14.5411
20
45.933
0
VERTEX
8
CUT
10
15.25
20
44.773
0
VERTEX
8
CUT
10
15.25
20
39.373
0
VERTEX
8
CUT
10
14.5411
20
38.213
0
SEQEND
0
POLYLINE
8
CUT
66
1
70
0
0
VERTEX
8
CUT
10
16.6589
20
45.933
0
VERTEX
8
CUT
10
15.95
20
44.773
0
VERTEX
8
CUT
10
15.95
20
39.373
0
VERTEX
8
CUT
10
16.6589
20
38.213
0
SEQEND
0
POLYLINE
8
CUT
66
1
70
0
0
VERTEX
8
CUT
10
17.4411
20
45.933
0
VERTEX
8
CUT
10
18.15
20
44.773
0
VERTEX
8
CUT
10
18.15
20
39.373
0
VERTEX
8
CUT
10
17.4411
20
38.213
0
SEQEND
0
POLYLINE
8
CUT
66
1
70
0
0
VERTEX
8
CUT
10
19.5589
20
45.933
0
VERTEX
8
CUT
10
18.85
20
44.773
0
VERTEX
8
CUT
10
18.85
20
39.373
0
VERTEX
8
CUT
10
19.5589
20
38.213
0
SEQEND
0
POLYLINE
8
CUT
66
1
70
0
0
VERTEX
8
CUT
10
20.3411
20
45.933
0
VERTEX
8
CUT
10
21.05
20
44.773
0
VERTEX
8
CUT
10
21.05
20
39.373
0
VERTEX
8
CUT
10
20.3411
20
38.213
0
SEQEND
0
POLYLINE
8
CUT
66
1
70
0
0
VERTEX
8
CUT
10
22.4589
20
45.933
0
VERTEX
8
CUT
10
21.75
20
44.773
0
VERTEX
8
CUT
10
21.75
20
39.373
0
VERTEX
8
CUT
10
22.4589
20
38.213
0
SEQEND
0
POLYLINE
8
CUT
66
1
70
0
0
VERTEX
8
CUT
10
23.2411
20
45.933
0
VERTEX
8
CUT
10
23.95
20
44.773
0
VERTEX
8
CUT
10
23.95
20
39.373
0
VERTEX
8
CUT
10
23.2411
20
38.213
0
SEQEND
0
POLYLINE
8
CUT
66
1
70
0
0
VERTEX
8
CUT
10
25.3589
20
45.933
0
VERTEX
8
CUT
10
24.65
20
44.773
0
VERTEX
8
CUT
10
24.65
20
39.373
0
VERTEX
8
CUT
10
25.3589
20
38.213
0
SEQEND
0
POLYLINE
8
CUT
66
1
70
0
0
VERTEX
8
CUT
10
26.1411
20
45.933
0
VERTEX
8
CUT
10
26.85
20
44.773
0
VERTEX
8
CUT
10
26.85
20
39.373
0
VERTEX
8
CUT
10
26.1411
20
38.213
0
SEQEND
0
POLYLINE
8
CUT
66
1
70
0
0
VERTEX
8
CUT
10
28.2589
20
45.933
0
VERTEX
8
CUT
10
27.55
20
44.773
0
VERTEX
8
CUT
10
27.55
20
39.373
0
VERTEX
8
CUT
10
28.2589
20
38.213
0
SEQEND
0
POLYLINE
8
CUT
66
1
70
0
0
VERTEX
8
CUT
10
29.0411
20
45.933
0
VERTEX
8
CUT
10
29.75
20
44.773
0
VERTEX
8
CUT
10
29.75
20
39.373
0
VERTEX
8
CUT
10
29.0411
20
38.213
0
SEQEND
0
POLYLINE
8
CUT
66
1
70
0
0
VERTEX
8
CUT
10
31.1589
20
45.933
0
VERTEX
8
CUT
10
30.45
20
44.773
0
VERTEX
8
CUT
10
30.45
20
39.373
0
VERTEX
8
CUT
10
31.1589
20
38.213
0
SEQEND
0
POLYLINE
8
CUT
66
1
70
0
0
VERTEX
8
CUT
10
31.9411
20
45.933
0
VERTEX
8
CUT
10
32.65
20
44.773
0
VERTEX
8
CUT
10
32.65
20
39.373
0
VERTEX
8
CUT
10
31.9411
20
38.213
0
SEQEND
0
POLYLINE
8
CUT
66
1
70
0
0
VERTEX
8
CUT
10
34.0589
20
45.933
0
VERTEX
8
CUT
10
33.35
20
44.773
0
VERTEX
8
CUT
10
33.35
20
39.373
0
VERTEX
8
CUT
10
34.0589
20
38.213
0
SEQEND
0
POLYLINE
8
CUT
66
1
70
0
0
VERTEX
8
CUT
10
34.8411
20
45.933
0
VERTEX
8
CUT
10
35.55
20
44.773
0
VERTEX
8
CUT
10
35.55
20
39.373
0
VERTEX
8
CUT
10
34.8411
20
38.213
0
SEQEND
0
POLYLINE
8
CUT
66
1
70
0
0
VERTEX
8
CUT
10
36.9589
20
45.933
0
VERTEX
8
CUT
10
36.25
20
44.773
0
VERTEX
8
CUT
10
36.25
20
39.373
0
VERTEX
8
CUT
10
36.9589
20
38.213
0
SEQEND
0
POLYLINE
8
CUT
66
1
70
0
0
VERTEX
8
CUT
10
37.7411
20
45.933
0
VERTEX
8
CUT
10
38.45
20
44.773
0
VERTEX
8
CUT
10
38.45
20
39.373
0
VERTEX
8
CUT
10
37.7411
20
38.213
0
SEQEND
0
POLYLINE
8
CUT
66
1
70
0
0
VERTEX
8
CUT
10
39.8589
20
45.933
0
VERTEX
8
CUT
10
39.15
20
44.773
0
VERTEX
8
CUT
10
39.15
20
39.373
0
VERTEX
8
CUT
10
39.8589
20
38.213
0
SEQEND
0
POLYLINE
8
CUT
66
1
70
0
0
VERTEX
8
CUT
10
40.6411
20
45.933
0
VERTEX
8
CUT
10
41.35
20
44.773
0
VERTEX
8
CUT
10
41.35
20
39.373
0
VERTEX
8
CUT
10
40.6411
20
38.213
0
SEQEND
0
POLYLINE
8
CUT
66
1
70
0
0
VERTEX
8
CUT
10
42.7589
20
45.933
0
VERTEX
8
CUT
10
42.05
20
44.773
0
VERTEX
8
CUT
10
42.05
20
39.373
0
VERTEX
8
CUT
10
42.7589
20
38.213
0
SEQEND
0
POLYLINE
8
CUT
66
1
70
0
0
VERTEX
8
CUT
10
43.5411
20
45.933
0
VERTEX
8
CUT
10
44.25
20
44.773
0
VERTEX
8
CUT
10
44.25
20
39.373
0
VERTEX
8
CUT
10
43.5411
20
38.213
0
SEQEND
0
POLYLINE
8
CUT
66
1
70
0
0
VERTEX
8
CUT
10
45.6589
20
45.933
0
VERTEX
8
CUT
10
44.95
20
44.773
0
VERTEX
8
CUT
10
44.95
20
39.373
0
VERTEX
8
CUT
10
45.6589
20
38.213
0
SEQEND
0
POLYLINE
8
CUT
66
1
70
0
0
VERTEX
8
CUT
10
46.4411
20
45.933
0
VERTEX
8
CUT
10
47.15
20
44.773
0
VERTEX
8
CUT
10
47.15
20
39.373
0
VERTEX
8
CUT
10
46.4411
20
38.213
0
SEQEND
0
POLYLINE
8
CUT
66
1
70
0
0
VERTEX
8
CUT
10
48.5589
20
45.933
0
VERTEX
8
CUT
10
47.85
20
44.773
0
VERTEX
8
CUT
10
47.85
20
39.373
0
VERTEX
8
CUT
10
48.5589
20
38.213
0
SEQEND
0
POLYLINE
8
CUT
66
1
70
0
0
VERTEX
8
CUT
10
49.3411
20
45.933
0
VERTEX
8
CUT
10
50.05
20
44.773
0
VERTEX
8
CUT
10
50.05
20
39.373
0
VERTEX
8
CUT
10
49.3411
20
38.213
0
SEQEND
0
POLYLINE
8
CUT
66
1
70
0
0
VERTEX
8
CUT
10
51.4589
20
45.933
0
VERTEX
8
CUT
10
50.75
20
44.773
0
VERTEX
8
CUT
10
50.75
20
39.373
0
VERTEX
8
CUT
10
51.4589
20
38.213
0
SEQEND
0
POLYLINE
8
CUT
66
1
70
0
0
VERTEX
8
CUT
10
52.2411
20
45.933
0
VERTEX
8
CUT
10
52.95
20
44.773
0
VERTEX
8
CUT
10
52.95
20
39.373
0
VERTEX
8
CUT
10
52.2411
20
38.213
0
SEQEND
0
POLYLINE
8
CUT
66
1
70
0
0
VERTEX
8
CUT
10
54.3589
20
45.933
0
VERTEX
8
CUT
10
53.65
20
44.773
0
VERTEX
8
CUT
10
53.65
20
39.373
0
VERTEX
8
CUT
10
54.3589
20
38.213
0
SEQEND
0
POLYLINE
8
CUT
66
1
70
0
0
VERTEX
8
CUT
10
55.1411
20
45.933
0
VERTEX
8
CUT
10
55.85
20
44.773
0
VERTEX
8
CUT
10
55.85
20
39.373
0
VERTEX
8
CUT
10
55.1411
20
38.213
0
SEQEND
0
POLYLINE
8
CUT
66
1
70
0
0
VERTEX
8
CUT
10
57.2589
20
45.933
0
VERTEX
8
CUT
10
56.55
20
44.773
0
VERTEX
8
CUT
10
56.55
20
39.373
0
VERTEX
8
CUT
10
57.2589
20
38.213
0
SEQEND
0
POLYLINE
8
CUT
66
1
70
0
0
VERTEX
8
CUT
10
58.0411
20
45.933
0
VERTEX
8
CUT
10
58.75
20
44.773
0
VERTEX
8
CUT
10
58.75
20
39.373
0
VERTEX
8
CUT
10
58.0411
20
38.213
0
SEQEND
0
POLYLINE
8
CUT
66
1
70
0
0
VERTEX
8
CUT
10
60.1589
20
45.933
0
VERTEX
8
CUT
10
59.45
20
44.773
0
VERTEX
8
CUT
10
59.45
20
39.373
0
VERTEX
8
CUT
10
60.1589
20
38.213
0
SEQEND
0
POLYLINE
8
CUT
66
1
70
0
0
VERTEX
8
CUT
10
60.9411
20
45.933
0
VERTEX
8
CUT
10
61.65
20
44.773
0
VERTEX
8
CUT
10
61.65
20
39.373
0
VERTEX
8
CUT
10
60.9411
20
38.213
0
SEQEND
0
POLYLINE
8
CUT
66
1
70
0
0
VERTEX
8
CUT
10
63.0589
20
45.933
0
VERTEX
8
CUT
10
62.35
20
44.773
0
VERTEX
8
CUT
10
62.35
20
39.373
0
VERTEX
8
CUT
10
63.0589
20
38.213
0
SEQEND
0
POLYLINE
8
CUT
66
1
70
0
0
VERTEX
8
CUT
10
63.8411
20
45.933
0
VERTEX
8
CUT
10
64.55
20
44.773
0
VERTEX
8
CUT
10
64.55
20
39.373
0
VERTEX
8
CUT
10
63.8411
20
38.213
0
SEQEND
0
POLYLINE
8
CUT
66
1
70
0
0
VERTEX
8
CUT
10
65.9589
20
45.933
0
VERTEX
8
CUT
10
65.25
20
44.773
0
VERTEX
8
CUT
10
65.25
20
39.373
0
VERTEX
8
CUT
10
65.9589
20
38.213
0
SEQEND
0
POLYLINE
8
CUT
66
1
70
0
0
VERTEX
8
CUT
10
66.7411
20
45.933
0
VERTEX
8
CUT
10
67.45
20
44.773
0
VERTEX
8
CUT
10
67.45
20
39.373
0
VERTEX
8
CUT
10
66.7411
20
38.213
0
SEQEND
0
POLYLINE
8
CUT
66
1
70
0
0
VERTEX
8
CUT
10
68.8589
20
45.933
0
VERTEX
8
CUT
10
68.15
20
44.773
0
VERTEX
8
CUT
10
68.15
20
39.373
0
VERTEX
8
CUT
10
68.8589
20
38.213
0
SEQEND
0
POLYLINE
8
CUT
66
1
70
0
0
VERTEX
8
CUT
10
69.6411
20
45.933
0
VERTEX
8
CUT
10
70.35
20
44.773
0
VERTEX
8
CUT
10
70.35
20
39.373
0
VERTEX
8
CUT
10
69.6411
20
38.213
0
SEQEND
0
POLYLINE
8
CUT
66
1
70
0
0
VERTEX
8
CUT
10
71.7589
20
45.933
0
VERTEX
8
CUT
10
71.05
20
44.773
0
VERTEX
8
CUT
10
71.05
20
39.373
0
VERTEX
8
CUT
10
71.7589
20
38.213
0
SEQEND
0
POLYLINE
8
CUT
66
1
70
0
0
VERTEX
8
CUT
10
72.5411
20
45.933
0
VERTEX
8
CUT
10
73.25
20
44.773
0
VERTEX
8
CUT
10
73.25
20
39.373
0
VERTEX
8
CUT
10
72.5411
20
38.213
0
SEQEND
0
POLYLINE
8
CUT
66
1
70
0
0
VERTEX
8
CUT
10
74.6589
20
45.933
0
VERTEX
8
CUT
10
73.95
20
44.773
0
VERTEX
8
CUT
10
73.95
20
39.373
0
VERTEX
8
CUT
10
74.6589
20
38.213
0
SEQEND
0
POLYLINE
8
CUT
66
1
70
0
0
VERTEX
8
CUT
10
75.4411
20
45.933
0
VERTEX
8
CUT
10
76.15
20
44.773
0
VERTEX
8
CUT
10
76.15
20
39.373
0
VERTEX
8
CUT
10
75.4411
20
38.213
0
SEQEND
0
POLYLINE
8
CUT
66
1
70
0
0
VERTEX
8
CUT
10
77.5589
20
45.933
0
VERTEX
8
CUT
10
76.85
20
44.773
0
VERTEX
8
CUT
10
76.85
20
39.373
0
VERTEX
8
CUT
10
77.5589
20
38.213
0
SEQEND
0
POLYLINE
8
CUT
66
1
70
0
0
VERTEX
8
CUT
10
78.3411
20
45.933
0
VERTEX
8
CUT
10
79.05
20
44.773
0
VERTEX
8
CUT
10
79.05
20
39.373
0
VERTEX
8
CUT
10
78.3411
20
38.213
0
SEQEND
0
POLYLINE
8
CUT
66
1
70
0
0
VERTEX
8
CUT
10
80.4589
20
45.933
0
VERTEX
8
CUT
10
79.75
20
44.773
0
VERTEX
8
CUT
10
79.75
20
39.373
0
VERTEX
8
CUT
10
80.4589
20
38.213
0
SEQEND
0
POLYLINE
8
CUT
66
1
70
0
0
VERTEX
8
CUT
10
81.2411
20
45.933
0
VERTEX
8
CUT
10
81.95
20
44.773
0
VERTEX
8
CUT
10
81.95
20
39.373
0
VERTEX
8
CUT
10
81.2411
20
38.213
0
SEQEND
0
POLYLINE
8
CUT
66
1
70
0
0
VERTEX
8
CUT
10
83.3589
20
45.933
0
VERTEX
8
CUT
10
82.65
20
44.773
0
VERTEX
8
CUT
10
82.65
20
39.373
0
VERTEX
8
CUT
10
83.3589
20
38.213
0
SEQEND
0
POLYLINE
8
CUT
66
1
70
0
0
VERTEX
8
CUT
10
84.1411
20
45.933
0
VERTEX
8
CUT
10
84.85
20
44.773
0
VERTEX
8
CUT
10
84.85
20
39.373
0
VERTEX
8
CUT
10
84.1411
20
38.213
0
SEQEND
0
POLYLINE
8
CUT
66
1
70
0
0
VERTEX
8
CUT
10
86.2589
20
45.933
0
VERTEX
8
CUT
10
85.55
20
44.773
0
VERTEX
8
CUT
10
85.55
20
39.373
0
VERTEX
8
CUT
10
86.2589
20
38.213
0
SEQEND
0
POLYLINE
8
CUT
66
1
70
0
0
VERTEX
8
CUT
10
87.0411
20
45.933
0
VERTEX
8
CUT
10
87.75
20
44.773
0
VERTEX
8
CUT
10
87.75
20
39.373
0
VERTEX
8
CUT
10
87.0411
20
38.213
0
SEQEND
0
POLYLINE
8
CUT
66
1
70
0
0
VERTEX
8
CUT
10
89.1589
20
45.933
0
VERTEX
8
CUT
10
88.45
20
44.773
0
VERTEX
8
CUT
10
88.45
20
39.373
0
VERTEX
8
CUT
10
89.1589
20
38.213
0
SEQEND
0
POLYLINE
8
CUT
66
1
70
0
0
VERTEX
8
CUT
10
89.9411
20
45.933
0
VERTEX
8
CUT
10
90.65
20
44.773
0
VERTEX
8
CUT
10
90.65
20
39.373
0
VERTEX
8
CUT
10
89.9411
20
38.213
0
SEQEND
0
POLYLINE
8
CUT
66
1
70
0
0
VERTEX
8
CUT
10
92.0589
20
45.933
0
VERTEX
8
CUT
10
91.35
20
44.773
0
VERTEX
8
CUT
10
91.35
20
39.373
0
VERTEX
8
CUT
10
92.0589
20
38.213
0
SEQEND
0
POLYLINE
8
CUT
66
1
70
0
0
VERTEX
8
CUT
10
92.8411
20
45.933
0
VERTEX
8
CUT
10
93.55
20
44.773
0
VERTEX
8
CUT
10
93.55
20
39.373
0
VERTEX
8
CUT
10
92.8411
20
38.213
0
SEQEND
0
POLYLINE
8
CUT
66
1
70
0
0
VERTEX
8
CUT
10
94.9589
20
45.933
0
VERTEX
8
CUT
10
94.25
20
44.773
0
VERTEX
8
CUT
10
94.25
20
39.373
0
VERTEX
8
CUT
10
94.9589
20
38.213
0
SEQEND
0
POLYLINE
8
CUT
66
1
70
0
0
VERTEX
8
CUT
10
95.7411
20
45.933
0
VERTEX
8
CUT
10
96.45
20
44.773
0
VERTEX
8
CUT
10
96.45
20
39.373
0
VERTEX
8
CUT
10
95.7411
20
38.213
0
SEQEND
0
POLYLINE
8
CUT
66
1
70
0
0
VERTEX
8
CUT
10
97.8589
20
45.933
0
VERTEX
8
CUT
10
97.15
20
44.773
0
VERTEX
8
CUT
10
97.15
20
39.373
0
VERTEX
8
CUT
10
97.8589
20
38.213
0
SEQEND
0
POLYLINE
8
CUT
66
1
70
0
0
VERTEX
8
CUT
10
98.6411
20
45.933
0
VERTEX
8
CUT
10
99.35
20
44.773
0
VERTEX
8
CUT
10
99.35
20
39.373
0
VERTEX
8
CUT
10
98.6411
20
38.213
0
SEQEND
0
POLYLINE
8
CUT
66
1
70
0
0
VERTEX
8
CUT
10
100.7589
20
45.933
0
VERTEX
8
CUT
10
100.05
20
44.773
0
VERTEX
8
CUT
10
100.05
20
39.373
0
VERTEX
8
CUT
10
100.7589
20
38.213
0
SEQEND
0
POLYLINE
8
CUT
66
1
70
0
0
VERTEX
8
CUT
10
101.5411
20
45.933
0
VERTEX
8
CUT
10
102.25
20
44.773
0
VERTEX
8
CUT
10
102.25
20
39.373
0
VERTEX
8
CUT
10
101.5411
20
38.213
0
SEQEND
0
POLYLINE
8
CUT
66
1
70
0
0
VERTEX
8
CUT
10
103.6589
20
45.933
0
VERTEX
8
CUT
10
102.95
20
44.773
0
VERTEX
8
CUT
10
102.95
20
39.373
0
VERTEX
8
CUT
10
103.6589
20
38.213
0
SEQEND
0
POLYLINE
8
CUT
66
1
70
0
0
VERTEX
8
CUT
10
104.4411
20
45.933
0
VERTEX
8
CUT
10
105.15
20
44.773
0
VERTEX
8
CUT
10
105.15
20
39.373
0
VERTEX
8
CUT
10
104.4411
20
38.213
0
SEQEND
0
POLYLINE
8
CUT
66
1
70
0
0
VERTEX
8
CUT
10
106.5589
20
45.933
0
VERTEX
8
CUT
10
105.85
20
44.773
0
VERTEX
8
CUT
10
105.85
20
39.373
0
VERTEX
8
CUT
10
106.5589
20
38.213
0
SEQEND
0
POLYLINE
8
CUT
66
1
70
0
0
VERTEX
8
CUT
10
107.3411
20
45.933
0
VERTEX
8
CUT
10
108.05
20
44.773
0
VERTEX
8
CUT
10
108.05
20
39.373
0
VERTEX
8
CUT
10
107.3411
20
38.213
0
SEQEND
0
POLYLINE
8
CUT
66
1
70
0
0
VERTEX
8
CUT
10
109.4589
20
45.933
0
VERTEX
8
CUT
10
108.75
20
44.773
0
VERTEX
8
CUT
10
108.75
20
39.373
0
VERTEX
8
CUT
10
109.4589
20
38.213
0
SEQEND
0
POLYLINE
8
CUT
66
1
70
0
0
VERTEX
8
CUT
10
110.2411
20
45.933
0
VERTEX
8
CUT
10
110.95
20
44.773
0
VERTEX
8
CUT
10
110.95
20
39.373
0
VERTEX
8
CUT
10
110.2411
20
38.213
0
SEQEND
0
POLYLINE
8
CUT
66
1
70
0
0
VERTEX
8
CUT
10
112.3589
20
45.933
0
VERTEX
8
CUT
10
111.65
20
44.773
0
VERTEX
8
CUT
10
111.65
20
39.373
0
VERTEX
8
CUT
10
112.3589
20
38.213
0
SEQEND
0
POLYLINE
8
CUT
66
1
70
0
0
VERTEX
8
CUT
10
113.1411
20
45.933
0
VERTEX
8
CUT
10
113.85
20
44.773
0
VERTEX
8
CUT
10
113.85
20
39.373
0
VERTEX
8
CUT
10
113.1411
20
38.213
0
SEQEND
0
POLYLINE
8
CUT
66
1
70
0
0
VERTEX
8
CUT
10
115.2589
20
45.933
0
VERTEX
8
CUT
10
114.55
20
44.773
0
VERTEX
8
CUT
10
114.55
20
39.373
0
VERTEX
8
CUT
10
115.2589
20
38.213
0
SEQEND
0
POLYLINE
8
CUT
66
1
70
0
0
VERTEX
8
CUT
10
116.0411
20
45.933
0
VERTEX
8
CUT
10
116.75
20
44.773
0
VERTEX
8
CUT
10
116.75
20
39.373
0
VERTEX
8
CUT
10
116.0411
20
38.213
0
SEQEND
0
POLYLINE
8
CUT
66
1
70
0
0
VERTEX
8
CUT
10
118.1589
20
45.933
0
VERTEX
8
CUT
10
117.45
20
44.773
0
VERTEX
8
CUT
10
117.45
20
39.373
0
VERTEX
8
CUT
10
118.1589
20
38.213
0
SEQEND
0
POLYLINE
8
CUT
66
1
70
0
0
VERTEX
8
CUT
10
118.9411
20
45.933
0
VERTEX
8
CUT
10
119.65
20
44.773
0
VERTEX
8
CUT
10
119.65
20
39.373
0
VERTEX
8
CUT
10
118.9411
20
38.213
0
SEQEND
0
POLYLINE
8
CUT
66
1
70
0
0
VERTEX
8
CUT
10
0.7089
20
38.124
0
VERTEX
8
CUT
10
0
20
36.964
0
VERTEX
8
CUT
10
0
20
31.564
0
VERTEX
8
CUT
10
0.7089
20
30.404
0
SEQEND
0
POLYLINE
8
CUT
66
1
70
0
0
VERTEX
8
CUT
10
1.4911
20
38.124
0
VERTEX
8
CUT
10
2.2
20
36.964
0
VERTEX
8
CUT
10
2.2
20
31.564
0
VERTEX
8
CUT
10
1.4911
20
30.404
0
SEQEND
0
POLYLINE
8
CUT
66
1
70
0
0
VERTEX
8
CUT
10
3.6089
20
38.124
0
VERTEX
8
CUT
10
2.9
20
36.964
0
VERTEX
8
CUT
10
2.9
20
31.564
0
VERTEX
8
CUT
10
3.6089
20
30.404
0
SEQEND
0
POLYLINE
8
CUT
66
1
70
0
0
VERTEX
8
CUT
10
4.3911
20
38.124
0
VERTEX
8
CUT
10
5.1
20
36.964
0
VERTEX
8
CUT
10
5.1
20
31.564
0
VERTEX
8
CUT
10
4.3911
20
30.404
0
SEQEND
0
POLYLINE
8
CUT
66
1
70
0
0
VERTEX
8
CUT
10
6.5089
20
38.124
0
VERTEX
8
CUT
10
5.8
20
36.964
0
VERTEX
8
CUT
10
5.8
20
31.564
0
VERTEX
8
CUT
10
6.5089
20
30.404
0
SEQEND
0
POLYLINE
8
CUT
66
1
70
0
0
VERTEX
8
CUT
10
7.2911
20
38.124
0
VERTEX
8
CUT
10
8
20
36.964
0
VERTEX
8
CUT
10
8
20
31.564
0
VERTEX
8
CUT
10
7.2911
20
30.404
0
SEQEND
0
POLYLINE
8
CUT
66
1
70
0
0
VERTEX
8
CUT
10
9.4089
20
38.124
0
VERTEX
8
CUT
10
8.7
20
36.964
0
VERTEX
8
CUT
10
8.7
20
31.564
0
VERTEX
8
CUT
10
9.4089
20
30.404
0
SEQEND
0
POLYLINE
8
CUT
66
1
70
0
0
VERTEX
8
CUT
10
10.1911
20
38.124
0
VERTEX
8
CUT
10
10.9
20
36.964
0
VERTEX
8
CUT
10
10.9
20
31.564
0
VERTEX
8
CUT
10
10.1911
20
30.404
0
SEQEND
0
POLYLINE
8
CUT
66
1
70
0
0
VERTEX
8
CUT
10
12.3089
20
38.124
0
VERTEX
8
CUT
10
11.6
20
36.964
0
VERTEX
8
CUT
10
11.6
20
31.564
0
VERTEX
8
CUT
10
12.3089
20
30.404
0
SEQEND
0
POLYLINE
8
CUT
66
1
70
0
0
VERTEX
8
CUT
10
13.0911
20
38.124
0
VERTEX
8
CUT
10
13.8
20
36.964
0
VERTEX
8
CUT
10
13.8
20
31.564
0
VERTEX
8
CUT
10
13.0911
20
30.404
0
SEQEND
0
POLYLINE
8
CUT
66
1
70
0
0
VERTEX
8
CUT
10
15.2089
20
38.124
0
VERTEX
8
CUT
10
14.5
20
36.964
0
VERTEX
8
CUT
10
14.5
20
31.564
0
VERTEX
8
CUT
10
15.2089
20
30.404
0
SEQEND
0
POLYLINE
8
CUT
66
1
70
0
0
VERTEX
8
CUT
10
15.9911
20
38.124
0
VERTEX
8
CUT
10
16.7
20
36.964
0
VERTEX
8
CUT
10
16.7
20
31.564
0
VERTEX
8
CUT
10
15.9911
20
30.404
0
SEQEND
0
POLYLINE
8
CUT
66
1
70
0
0
VERTEX
8
CUT
10
18.1089
20
38.124
0
VERTEX
8
CUT
10
17.4
20
36.964
0
VERTEX
8
CUT
10
17.4
20
31.564
0
VERTEX
8
CUT
10
18.1089
20
30.404
0
SEQEND
0
POLYLINE
8
CUT
66
1
70
0
0
VERTEX
8
CUT
10
18.8911
20
38.124
0
VERTEX
8
CUT
10
19.6
20
36.964
0
VERTEX
8
CUT
10
19.6
20
31.564
0
VERTEX
8
CUT
10
18.8911
20
30.404
0
SEQEND
0
POLYLINE
8
CUT
66
1
70
0
0
VERTEX
8
CUT
10
21.0089
20
38.124
0
VERTEX
8
CUT
10
20.3
20
36.964
0
VERTEX
8
CUT
10
20.3
20
31.564
0
VERTEX
8
CUT
10
21.0089
20
30.404
0
SEQEND
0
POLYLINE
8
CUT
66
1
70
0
0
VERTEX
8
CUT
10
21.7911
20
38.124
0
VERTEX
8
CUT
10
22.5
20
36.964
0
VERTEX
8
CUT
10
22.5
20
31.564
0
VERTEX
8
CUT
10
21.7911
20
30.404
0
SEQEND
0
POLYLINE
8
CUT
66
1
70
0
0
VERTEX
8
CUT
10
23.9089
20
38.124
0
VERTEX
8
CUT
10
23.2
20
36.964
0
VERTEX
8
CUT
10
23.2
20
31.564
0
VERTEX
8
CUT
10
23.9089
20
30.404
0
SEQEND
0
POLYLINE
8
CUT
66
1
70
0
0
VERTEX
8
CUT
10
24.6911
20
38.124
0
VERTEX
8
CUT
10
25.4
20
36.964
0
VERTEX
8
CUT
10
25.4
20
31.564
0
VERTEX
8
CUT
10
24.6911
20
30.404
0
SEQEND
0
POLYLINE
8
CUT
66
1
70
0
0
VERTEX
8
CUT
10
26.8089
20
38.124
0
VERTEX
8
CUT
10
26.1
20
36.964
0
VERTEX
8
CUT
10
26.1
20
31.564
0
VERTEX
8
CUT
10
26.8089
20
30.404
0
SEQEND
0
POLYLINE
8
CUT
66
1
70
0
0
VERTEX
8
CUT
10
27.5911
20
38.124
0
VERTEX
8
CUT
10
28.3
20
36.964
0
VERTEX
8
CUT
10
28.3
20
31.564
0
VERTEX
8
CUT
10
27.5911
20
30.404
0
SEQEND
0
POLYLINE
8
CUT
66
1
70
0
0
VERTEX
8
CUT
10
29.7089
20
38.124
0
VERTEX
8
CUT
10
29
20
36.964
0
VERTEX
8
CUT
10
29
20
31.564
0
VERTEX
8
CUT
10
29.7089
20
30.404
0
SEQEND
0
POLYLINE
8
CUT
66
1
70
0
0
VERTEX
8
CUT
10
30.4911
20
38.124
0
VERTEX
8
CUT
10
31.2
20
36.964
0
VERTEX
8
CUT
10
31.2
20
31.564
0
VERTEX
8
CUT
10
30.4911
20
30.404
0
SEQEND
0
POLYLINE
8
CUT
66
1
70
0
0
VERTEX
8
CUT
10
32.6089
20
38.124
0
VERTEX
8
CUT
10
31.9
20
36.964
0
VERTEX
8
CUT
10
31.9
20
31.564
0
VERTEX
8
CUT
10
32.6089
20
30.404
0
SEQEND
0
POLYLINE
8
CUT
66
1
70
0
0
VERTEX
8
CUT
10
33.3911
20
38.124
0
VERTEX
8
CUT
10
34.1
20
36.964
0
VERTEX
8
CUT
10
34.1
20
31.564
0
VERTEX
8
CUT
10
33.3911
20
30.404
0
SEQEND
0
POLYLINE
8
CUT
66
1
70
0
0
VERTEX
8
CUT
10
35.5089
20
38.124
0
VERTEX
8
CUT
10
34.8
20
36.964
0
VERTEX
8
CUT
10
34.8
20
31.564
0
VERTEX
8
CUT
10
35.5089
20
30.404
0
SEQEND
0
POLYLINE
8
CUT
66
1
70
0
0
VERTEX
8
CUT
10
36.2911
20
38.124
0
VERTEX
8
CUT
10
37
20
36.964
0
VERTEX
8
CUT
10
37
20
31.564
0
VERTEX
8
CUT
10
36.2911
20
30.404
0
SEQEND
0
POLYLINE
8
CUT
66
1
70
0
0
VERTEX
8
CUT
10
38.4089
20
38.124
0
VERTEX
8
CUT
10
37.7
20
36.964
0
VERTEX
8
CUT
10
37.7
20
31.564
0
VERTEX
8
CUT
10
38.4089
20
30.404
0
SEQEND
0
POLYLINE
8
CUT
66
1
70
0
0
VERTEX
8
CUT
10
39.1911
20
38.124
0
VERTEX
8
CUT
10
39.9
20
36.964
0
VERTEX
8
CUT
10
39.9
20
31.564
0
VERTEX
8
CUT
10
39.1911
20
30.404
0
SEQEND
0
POLYLINE
8
CUT
66
1
70
0
0
VERTEX
8
CUT
10
41.3089
20
38.124
0
VERTEX
8
CUT
10
40.6
20
36.964
0
VERTEX
8
CUT
10
40.6
20
31.564
0
VERTEX
8
CUT
10
41.3089
20
30.404
0
SEQEND
0
POLYLINE
8
CUT
66
1
70
0
0
VERTEX
8
CUT
10
42.0911
20
38.124
0
VERTEX
8
CUT
10
42.8
20
36.964
0
VERTEX
8
CUT
10
42.8
20
31.564
0
VERTEX
8
CUT
10
42.0911
20
30.404
0
SEQEND
0
POLYLINE
8
CUT
66
1
70
0
0
VERTEX
8
CUT
10
44.2089
20
38.124
0
VERTEX
8
CUT
10
43.5
20
36.964
0
VERTEX
8
CUT
10
43.5
20
31.564
0
VERTEX
8
CUT
10
44.2089
20
30.404
0
SEQEND
0
POLYLINE
8
CUT
66
1
70
0
0
VERTEX
8
CUT
10
44.9911
20
38.124
0
VERTEX
8
CUT
10
45.7
20
36.964
0
VERTEX
8
CUT
10
45.7
20
31.564
0
VERTEX
8
CUT
10
44.9911
20
30.404
0
SEQEND
0
POLYLINE
8
CUT
66
1
70
0
0
VERTEX
8
CUT
10
47.1089
20
38.124
0
VERTEX
8
CUT
10
46.4
20
36.964
0
VERTEX
8
CUT
10
46.4
20
31.564
0
VERTEX
8
CUT
10
47.1089
20
30.404
0
SEQEND
0
POLYLINE
8
CUT
66
1
70
0
0
VERTEX
8
CUT
10
47.8911
20
38.124
0
VERTEX
8
CUT
10
48.6
20
36.964
0
VERTEX
8
CUT
10
48.6
20
31.564
0
VERTEX
8
CUT
10
47.8911
20
30.404
0
SEQEND
0
POLYLINE
8
CUT
66
1
70
0
0
VERTEX
8
CUT
10
50.0089
20
38.124
0
VERTEX
8
CUT
10
49.3
20
36.964
0
VERTEX
8
CUT
10
49.3
20
31.564
0
VERTEX
8
CUT
10
50.0089
20
30.404
0
SEQEND
0
POLYLINE
8
CUT
66
1
70
0
0
VERTEX
8
CUT
10
50.7911
20
38.124
0
VERTEX
8
CUT
10
51.5
20
36.964
0
VERTEX
8
CUT
10
51.5
20
31.564
0
VERTEX
8
CUT
10
50.7911
20
30.404
0
SEQEND
0
POLYLINE
8
CUT
66
1
70
0
0
VERTEX
8
CUT
10
52.9089
20
38.124
0
VERTEX
8
CUT
10
52.2
20
36.964
0
VERTEX
8
CUT
10
52.2
20
31.564
0
VERTEX
8
CUT
10
52.9089
20
30.404
0
SEQEND
0
POLYLINE
8
CUT
66
1
70
0
0
VERTEX
8
CUT
10
53.6911
20
38.124
0
VERTEX
8
CUT
10
54.4
20
36.964
0
VERTEX
8
CUT
10
54.4
20
31.564
0
VERTEX
8
CUT
10
53.6911
20
30.404
0
SEQEND
0
POLYLINE
8
CUT
66
1
70
0
0
VERTEX
8
CUT
10
55.8089
20
38.124
0
VERTEX
8
CUT
10
55.1
20
36.964
0
VERTEX
8
CUT
10
55.1
20
31.564
0
VERTEX
8
CUT
10
55.8089
20
30.404
0
SEQEND
0
POLYLINE
8
CUT
66
1
70
0
0
VERTEX
8
CUT
10
56.5911
20
38.124
0
VERTEX
8
CUT
10
57.3
20
36.964
0
VERTEX
8
CUT
10
57.3
20
31.564
0
VERTEX
8
CUT
10
56.5911
20
30.404
0
SEQEND
0
POLYLINE
8
CUT
66
1
70
0
0
VERTEX
8
CUT
10
58.7089
20
38.124
0
VERTEX
8
CUT
10
58
20
36.964
0
VERTEX
8
CUT
10
58
20
31.564
0
VERTEX
8
CUT
10
58.7089
20
30.404
0
SEQEND
0
POLYLINE
8
CUT
66
1
70
0
0
VERTEX
8
CUT
10
59.4911
20
38.124
0
VERTEX
8
CUT
10
60.2
20
36.964
0
VERTEX
8
CUT
10
60.2
20
31.564
0
VERTEX
8
CUT
10
59.4911
20
30.404
0
SEQEND
0
POLYLINE
8
CUT
66
1
70
0
0
VERTEX
8
CUT
10
61.6089
20
38.124
0
VERTEX
8
CUT
10
60.9
20
36.964
0
VERTEX
8
CUT
10
60.9
20
31.564
0
VERTEX
8
CUT
10
61.6089
20
30.404
0
SEQEND
0
POLYLINE
8
CUT
66
1
70
0
0
VERTEX
8
CUT
10
62.3911
20
38.124
0
VERTEX
8
CUT
10
63.1
20
36.964
0
VERTEX
8
CUT
10
63.1
20
31.564
0
VERTEX
8
CUT
10
62.3911
20
30.404
0
SEQEND
0
POLYLINE
8
CUT
66
1
70
0
0
VERTEX
8
CUT
10
64.5089
20
38.124
0
VERTEX
8
CUT
10
63.8
20
36.964
0
VERTEX
8
CUT
10
63.8
20
31.564
0
VERTEX
8
CUT
10
64.5089
20
30.404
0
SEQEND
0
POLYLINE
8
CUT
66
1
70
0
0
VERTEX
8
CUT
10
65.2911
20
38.124
0
VERTEX
8
CUT
10
66
20
36.964
0
VERTEX
8
CUT
10
66
20
31.564
0
VERTEX
8
CUT
10
65.2911
20
30.404
0
SEQEND
0
POLYLINE
8
CUT
66
1
70
0
0
VERTEX
8
CUT
10
67.4089
20
38.124
0
VERTEX
8
CUT
10
66.7
20
36.964
0
VERTEX
8
CUT
10
66.7
20
31.564
0
VERTEX
8
CUT
10
67.4089
20
30.404
0
SEQEND
0
POLYLINE
8
CUT
66
1
70
0
0
VERTEX
8
CUT
10
68.1911
20
38.124
0
VERTEX
8
CUT
10
68.9
20
36.964
0
VERTEX
8
CUT
10
68.9
20
31.564
0
VERTEX
8
CUT
10
68.1911
20
30.404
0
SEQEND
0
POLYLINE
8
CUT
66
1
70
0
0
VERTEX
8
CUT
10
70.3089
20
38.124
0
VERTEX
8
CUT
10
69.6
20
36.964
0
VERTEX
8
CUT
10
69.6
20
31.564
0
VERTEX
8
CUT
10
70.3089
20
30.404
0
SEQEND
0
POLYLINE
8
CUT
66
1
70
0
0
VERTEX
8
CUT
10
71.0911
20
38.124
0
VERTEX
8
CUT
10
71.8
20
36.964
0
VERTEX
8
CUT
10
71.8
20
31.564
0
VERTEX
8
CUT
10
71.0911
20
30.404
0
SEQEND
0
POLYLINE
8
CUT
66
1
70
0
0
VERTEX
8
CUT
10
73.2089
20
38.124
0
VERTEX
8
CUT
10
72.5
20
36.964
0
VERTEX
8
CUT
10
72.5
20
31.564
0
VERTEX
8
CUT
10
73.2089
20
30.404
0
SEQEND
0
POLYLINE
8
CUT
66
1
70
0
0
VERTEX
8
CUT
10
73.9911
20
38.124
0
VERTEX
8
CUT
10
74.7
20
36.964
0
VERTEX
8
CUT
10
74.7
20
31.564
0
VERTEX
8
CUT
10
73.9911
20
30.404
0
SEQEND
0
POLYLINE
8
CUT
66
1
70
0
0
VERTEX
8
CUT
10
76.1089
20
38.124
0
VERTEX
8
CUT
10
75.4
20
36.964
0
VERTEX
8
CUT
10
75.4
20
31.564
0
VERTEX
8
CUT
10
76.1089
20
30.404
0
SEQEND
0
POLYLINE
8
CUT
66
1
70
0
0
VERTEX
8
CUT
10
76.8911
20
38.124
0
VERTEX
8
CUT
10
77.6
20
36.964
0
VERTEX
8
CUT
10
77.6
20
31.564
0
VERTEX
8
CUT
10
76.8911
20
30.404
0
SEQEND
0
POLYLINE
8
CUT
66
1
70
0
0
VERTEX
8
CUT
10
79.0089
20
38.124
0
VERTEX
8
CUT
10
78.3
20
36.964
0
VERTEX
8
CUT
10
78.3
20
31.564
0
VERTEX
8
CUT
10
79.0089
20
30.404
0
SEQEND
0
POLYLINE
8
CUT
66
1
70
0
0
VERTEX
8
CUT
10
79.7911
20
38.124
0
VERTEX
8
CUT
10
80.5
20
36.964
0
VERTEX
8
CUT
10
80.5
20
31.564
0
VERTEX
8
CUT
10
79.7911
20
30.404
0
SEQEND
0
POLYLINE
8
CUT
66
1
70
0
0
VERTEX
8
CUT
10
81.9089
20
38.124
0
VERTEX
8
CUT
10
81.2
20
36.964
0
VERTEX
8
CUT
10
81.2
20
31.564
0
VERTEX
8
CUT
10
81.9089
20
30.404
0
SEQEND
0
POLYLINE
8
CUT
66
1
70
0
0
VERTEX
8
CUT
10
82.6911
20
38.124
0
VERTEX
8
CUT
10
83.4
20
36.964
0
VERTEX
8
CUT
10
83.4
20
31.564
0
VERTEX
8
CUT
10
82.6911
20
30.404
0
SEQEND
0
POLYLINE
8
CUT
66
1
70
0
0
VERTEX
8
CUT
10
84.8089
20
38.124
0
VERTEX
8
CUT
10
84.1
20
36.964
0
VERTEX
8
CUT
10
84.1
20
31.564
0
VERTEX
8
CUT
10
84.8089
20
30.404
0
SEQEND
0
POLYLINE
8
CUT
66
1
70
0
0
VERTEX
8
CUT
10
85.5911
20
38.124
0
VERTEX
8
CUT
10
86.3
20
36.964
0
VERTEX
8
CUT
10
86.3
20
31.564
0
VERTEX
8
CUT
10
85.5911
20
30.404
0
SEQEND
0
POLYLINE
8
CUT
66
1
70
0
0
VERTEX
8
CUT
10
87.7089
20
38.124
0
VERTEX
8
CUT
10
87
20
36.964
0
VERTEX
8
CUT
10
87
20
31.564
0
VERTEX
8
CUT
10
87.7089
20
30.404
0
SEQEND
0
POLYLINE
8
CUT
66
1
70
0
0
VERTEX
8
CUT
10
88.4911
20
38.124
0
VERTEX
8
CUT
10
89.2
20
36.964
0
VERTEX
8
CUT
10
89.2
20
31.564
0
VERTEX
8
CUT
10
88.4911
20
30.404
0
SEQEND
0
POLYLINE
8
CUT
66
1
70
0
0
VERTEX
8
CUT
10
90.6089
20
38.124
0
VERTEX
8
CUT
10
89.9
20
36.964
0
VERTEX
8
CUT
10
89.9
20
31.564
0
VERTEX
8
CUT
10
90.6089
20
30.404
0
SEQEND
0
POLYLINE
8
CUT
66
1
70
0
0
VERTEX
8
CUT
10
91.3911
20
38.124
0
VERTEX
8
CUT
10
92.1
20
36.964
0
VERTEX
8
CUT
10
92.1
20
31.564
0
VERTEX
8
CUT
10
91.3911
20
30.404
0
SEQEND
0
POLYLINE
8
CUT
66
1
70
0
0
VERTEX
8
CUT
10
93.5089
20
38.124
0
VERTEX
8
CUT
10
92.8
20
36.964
0
VERTEX
8
CUT
10
92.8
20
31.564
0
VERTEX
8
CUT
10
93.5089
20
30.404
0
SEQEND
0
POLYLINE
8
CUT
66
1
70
0
0
VERTEX
8
CUT
10
94.2911
20
38.124
0
VERTEX
8
CUT
10
95
20
36.964
0
VERTEX
8
CUT
10
95
20
31.564
0
VERTEX
8
CUT
10
94.2911
20
30.404
0
SEQEND
0
POLYLINE
8
CUT
66
1
70
0
0
VERTEX
8
CUT
10
96.4089
20
38.124
0
VERTEX
8
CUT
10
95.7
20
36.964
0
VERTEX
8
CUT
10
95.7
20
31.564
0
VERTEX
8
CUT
10
96.4089
20
30.404
0
SEQEND
0
POLYLINE
8
CUT
66
1
70
0
0
VERTEX
8
CUT
10
97.1911
20
38.124
0
VERTEX
8
CUT
10
97.9
20
36.964
0
VERTEX
8
CUT
10
97.9
20
31.564
0
VERTEX
8
CUT
10
97.1911
20
30.404
0
SEQEND
0
POLYLINE
8
CUT
66
1
70
0
0
VERTEX
8
CUT
10
99.3089
20
38.124
0
VERTEX
8
CUT
10
98.6
20
36.964
0
VERTEX
8
CUT
10
98.6
20
31.564
0
VERTEX
8
CUT
10
99.3089
20
30.404
0
SEQEND
0
POLYLINE
8
CUT
66
1
70
0
0
VERTEX
8
CUT
10
100.0911
20
38.124
0
VERTEX
8
CUT
10
100.8
20
36.964
0
VERTEX
8
CUT
10
100.8
20
31.564
0
VERTEX
8
CUT
10
100.0911
20
30.404
0
SEQEND
0
POLYLINE
8
CUT
66
1
70
0
0
VERTEX
8
CUT
10
102.2089
20
38.124
0
VERTEX
8
CUT
10
101.5
20
36.964
0
VERTEX
8
CUT
10
101.5
20
31.564
0
VERTEX
8
CUT
10
102.2089
20
30.404
0
SEQEND
0
POLYLINE
8
CUT
66
1
70
0
0
VERTEX
8
CUT
10
102.9911
20
38.124
0
VERTEX
8
CUT
10
103.7
20
36.964
0
VERTEX
8
CUT
10
103.7
20
31.564
0
VERTEX
8
CUT
10
102.9911
20
30.404
0
SEQEND
0
POLYLINE
8
CUT
66
1
70
0
0
VERTEX
8
CUT
10
105.1089
20
38.124
0
VERTEX
8
CUT
10
104.4
20
36.964
0
VERTEX
8
CUT
10
104.4
20
31.564
0
VERTEX
8
CUT
10
105.1089
20
30.404
0
SEQEND
0
POLYLINE
8
CUT
66
1
70
0
0
VERTEX
8
CUT
10
105.8911
20
38.124
0
VERTEX
8
CUT
10
106.6
20
36.964
0
VERTEX
8
CUT
10
106.6
20
31.564
0
VERTEX
8
CUT
10
105.8911
20
30.404
0
SEQEND
0
POLYLINE
8
CUT
66
1
70
0
0
VERTEX
8
CUT
10
108.0089
20
38.124
0
VERTEX
8
CUT
10
107.3
20
36.964
0
VERTEX
8
CUT
10
107.3
20
31.564
0
VERTEX
8
CUT
10
108.0089
20
30.404
0
SEQEND
0
POLYLINE
8
CUT
66
1
70
0
0
VERTEX
8
CUT
10
108.7911
20
38.124
0
VERTEX
8
CUT
10
109.5
20
36.964
0
VERTEX
8
CUT
10
109.5
20
31.564
0
VERTEX
8
CUT
10
108.7911
20
30.404
0
SEQEND
0
POLYLINE
8
CUT
66
1
70
0
0
VERTEX
8
CUT
10
110.9089
20
38.124
0
VERTEX
8
CUT
10
110.2
20
36.964
0
VERTEX
8
CUT
10
110.2
20
31.564
0
VERTEX
8
CUT
10
110.9089
20
30.404
0
SEQEND
0
POLYLINE
8
CUT
66
1
70
0
0
VERTEX
8
CUT
10
111.6911
20
38.124
0
VERTEX
8
CUT
10
112.4
20
36.964
0
VERTEX
8
CUT
10
112.4
20
31.564
0
VERTEX
8
CUT
10
111.6911
20
30.404
0
SEQEND
0
POLYLINE
8
CUT
66
1
70
0
0
VERTEX
8
CUT
10
113.8089
20
38.124
0
VERTEX
8
CUT
10
113.1
20
36.964
0
VERTEX
8
CUT
10
113.1
20
31.564
0
VERTEX
8
CUT
10
113.8089
20
30.404
0
SEQEND
0
POLYLINE
8
CUT
66
1
70
0
0
VERTEX
8
CUT
10
114.5911
20
38.124
0
VERTEX
8
CUT
10
115.3
20
36.964
0
VERTEX
8
CUT
10
115.3
20
31.564
0
VERTEX
8
CUT
10
114.5911
20
30.404
0
SEQEND
0
POLYLINE
8
CUT
66
1
70
0
0
VERTEX
8
CUT
10
116.7089
20
38.124
0
VERTEX
8
CUT
10
116
20
36.964
0
VERTEX
8
CUT
10
116
20
31.564
0
VERTEX
8
CUT
10
116.7089
20
30.404
0
SEQEND
0
POLYLINE
8
CUT
66
1
70
0
0
VERTEX
8
CUT
10
117.4911
20
38.124
0
VERTEX
8
CUT
10
118.2
20
36.964
0
VERTEX
8
CUT
10
118.2
20
31.564
0
VERTEX
8
CUT
10
117.4911
20
30.404
0
SEQEND
0
POLYLINE
8
CUT
66
1
70
0
0
VERTEX
8
CUT
10
119.6089
20
38.124
0
VERTEX
8
CUT
10
118.9
20
36.964
0
VERTEX
8
CUT
10
118.9
20
31.564
0
VERTEX
8
CUT
10
119.6089
20
30.404
0
SEQEND
0
POLYLINE
8
CUT
66
1
70
0
0
VERTEX
8
CUT
10
0.0411
20
30.315
0
VERTEX
8
CUT
10
0.75
20
29.155
0
VERTEX
8
CUT
10
0.75
20
23.755
0
VERTEX
8
CUT
10
0.0411
20
22.595
0
SEQEND
0
POLYLINE
8
CUT
66
1
70
0
0
VERTEX
8
CUT
10
2.1589
20
30.315
0
VERTEX
8
CUT
10
1.45
20
29.155
0
VERTEX
8
CUT
10
1.45
20
23.755
0
VERTEX
8
CUT
10
2.1589
20
22.595
0
SEQEND
0
POLYLINE
8
CUT
66
1
70
0
0
VERTEX
8
CUT
10
2.9411
20
30.315
0
VERTEX
8
CUT
10
3.65
20
29.155
0
VERTEX
8
CUT
10
3.65
20
23.755
0
VERTEX
8
CUT
10
2.9411
20
22.595
0
SEQEND
0
POLYLINE
8
CUT
66
1
70
0
0
VERTEX
8
CUT
10
5.0589
20
30.315
0
VERTEX
8
CUT
10
4.35
20
29.155
0
VERTEX
8
CUT
10
4.35
20
23.755
0
VERTEX
8
CUT
10
5.0589
20
22.595
0
SEQEND
0
POLYLINE
8
CUT
66
1
70
0
0
VERTEX
8
CUT
10
5.8411
20
30.315
0
VERTEX
8
CUT
10
6.55
20
29.155
0
VERTEX
8
CUT
10
6.55
20
23.755
0
VERTEX
8
CUT
10
5.8411
20
22.595
0
SEQEND
0
POLYLINE
8
CUT
66
1
70
0
0
VERTEX
8
CUT
10
7.9589
20
30.315
0
VERTEX
8
CUT
10
7.25
20
29.155
0
VERTEX
8
CUT
10
7.25
20
23.755
0
VERTEX
8
CUT
10
7.9589
20
22.595
0
SEQEND
0
POLYLINE
8
CUT
66
1
70
0
0
VERTEX
8
CUT
10
8.7411
20
30.315
0
VERTEX
8
CUT
10
9.45
20
29.155
0
VERTEX
8
CUT
10
9.45
20
23.755
0
VERTEX
8
CUT
10
8.7411
20
22.595
0
SEQEND
0
POLYLINE
8
CUT
66
1
70
0
0
VERTEX
8
CUT
10
10.8589
20
30.315
0
VERTEX
8
CUT
10
10.15
20
29.155
0
VERTEX
8
CUT
10
10.15
20
23.755
0
VERTEX
8
CUT
10
10.8589
20
22.595
0
SEQEND
0
POLYLINE
8
CUT
66
1
70
0
0
VERTEX
8
CUT
10
11.6411
20
30.315
0
VERTEX
8
CUT
10
12.35
20
29.155
0
VERTEX
8
CUT
10
12.35
20
23.755
0
VERTEX
8
CUT
10
11.6411
20
22.595
0
SEQEND
0
POLYLINE
8
CUT
66
1
70
0
0
VERTEX
8
CUT
10
13.7589
20
30.315
0
VERTEX
8
CUT
10
13.05
20
29.155
0
VERTEX
8
CUT
10
13.05
20
23.755
0
VERTEX
8
CUT
10
13.7589
20
22.595
0
SEQEND
0
POLYLINE
8
CUT
66
1
70
0
0
VERTEX
8
CUT
10
14.5411
20
30.315
0
VERTEX
8
CUT
10
15.25
20
29.155
0
VERTEX
8
CUT
10
15.25
20
23.755
0
VERTEX
8
CUT
10
14.5411
20
22.595
0
SEQEND
0
POLYLINE
8
CUT
66
1
70
0
0
VERTEX
8
CUT
10
16.6589
20
30.315
0
VERTEX
8
CUT
10
15.95
20
29.155
0
VERTEX
8
CUT
10
15.95
20
23.755
0
VERTEX
8
CUT
10
16.6589
20
22.595
0
SEQEND
0
POLYLINE
8
CUT
66
1
70
0
0
VERTEX
8
CUT
10
17.4411
20
30.315
0
VERTEX
8
CUT
10
18.15
20
29.155
0
VERTEX
8
CUT
10
18.15
20
23.755
0
VERTEX
8
CUT
10
17.4411
20
22.595
0
SEQEND
0
POLYLINE
8
CUT
66
1
70
0
0
VERTEX
8
CUT
10
19.5589
20
30.315
0
VERTEX
8
CUT
10
18.85
20
29.155
0
VERTEX
8
CUT
10
18.85
20
23.755
0
VERTEX
8
CUT
10
19.5589
20
22.595
0
SEQEND
0
POLYLINE
8
CUT
66
1
70
0
0
VERTEX
8
CUT
10
20.3411
20
30.315
0
VERTEX
8
CUT
10
21.05
20
29.155
0
VERTEX
8
CUT
10
21.05
20
23.755
0
VERTEX
8
CUT
10
20.3411
20
22.595
0
SEQEND
0
POLYLINE
8
CUT
66
1
70
0
0
VERTEX
8
CUT
10
22.4589
20
30.315
0
VERTEX
8
CUT
10
21.75
20
29.155
0
VERTEX
8
CUT
10
21.75
20
23.755
0
VERTEX
8
CUT
10
22.4589
20
22.595
0
SEQEND
0
POLYLINE
8
CUT
66
1
70
0
0
VERTEX
8
CUT
10
23.2411
20
30.315
0
VERTEX
8
CUT
10
23.95
20
29.155
0
VERTEX
8
CUT
10
23.95
20
23.755
0
VERTEX
8
CUT
10
23.2411
20
22.595
0
SEQEND
0
POLYLINE
8
CUT
66
1
70
0
0
VERTEX
8
CUT
10
25.3589
20
30.315
0
VERTEX
8
CUT
10
24.65
20
29.155
0
VERTEX
8
CUT
10
24.65
20
23.755
0
VERTEX
8
CUT
10
25.3589
20
22.595
0
SEQEND
0
POLYLINE
8
CUT
66
1
70
0
0
VERTEX
8
CUT
10
26.1411
20
30.315
0
VERTEX
8
CUT
10
26.85
20
29.155
0
VERTEX
8
CUT
10
26.85
20
23.755
0
VERTEX
8
CUT
10
26.1411
20
22.595
0
SEQEND
0
POLYLINE
8
CUT
66
1
70
0
0
VERTEX
8
CUT
10
28.2589
20
30.315
0
VERTEX
8
CUT
10
27.55
20
29.155
0
VERTEX
8
CUT
10
27.55
20
23.755
0
VERTEX
8
CUT
10
28.2589
20
22.595
0
SEQEND
0
POLYLINE
8
CUT
66
1
70
0
0
VERTEX
8
CUT
10
29.0411
20
30.315
0
VERTEX
8
CUT
10
29.75
20
29.155
0
VERTEX
8
CUT
10
29.75
20
23.755
0
VERTEX
8
CUT
10
29.0411
20
22.595
0
SEQEND
0
POLYLINE
8
CUT
66
1
70
0
0
VERTEX
8
CUT
10
31.1589
20
30.315
0
VERTEX
8
CUT
10
30.45
20
29.155
0
VERTEX
8
CUT
10
30.45
20
23.755
0
VERTEX
8
CUT
10
31.1589
20
22.595
0
SEQEND
0
POLYLINE
8
CUT
66
1
70
0
0
VERTEX
8
CUT
10
31.9411
20
30.315
0
VERTEX
8
CUT
10
32.65
20
29.155
0
VERTEX
8
CUT
10
32.65
20
23.755
0
VERTEX
8
CUT
10
31.9411
20
22.595
0
SEQEND
0
POLYLINE
8
CUT
66
1
70
0
0
VERTEX
8
CUT
10
34.0589
20
30.315
0
VERTEX
8
CUT
10
33.35
20
29.155
0
VERTEX
8
CUT
10
33.35
20
23.755
0
VERTEX
8
CUT
10
34.0589
20
22.595
0
SEQEND
0
POLYLINE
8
CUT
66
1
70
0
0
VERTEX
8
CUT
10
34.8411
20
30.315
0
VERTEX
8
CUT
10
35.55
20
29.155
0
VERTEX
8
CUT
10
35.55
20
23.755
0
VERTEX
8
CUT
10
34.8411
20
22.595
0
SEQEND
0
POLYLINE
8
CUT
66
1
70
0
0
VERTEX
8
CUT
10
36.9589
20
30.315
0
VERTEX
8
CUT
10
36.25
20
29.155
0
VERTEX
8
CUT
10
36.25
20
23.755
0
VERTEX
8
CUT
10
36.9589
20
22.595
0
SEQEND
0
POLYLINE
8
CUT
66
1
70
0
0
VERTEX
8
CUT
10
37.7411
20
30.315
0
VERTEX
8
CUT
10
38.45
20
29.155
0
VERTEX
8
CUT
10
38.45
20
23.755
0
VERTEX
8
CUT
10
37.7411
20
22.595
0
SEQEND
0
POLYLINE
8
CUT
66
1
70
0
0
VERTEX
8
CUT
10
39.8589
20
30.315
0
VERTEX
8
CUT
10
39.15
20
29.155
0
VERTEX
8
CUT
10
39.15
20
23.755
0
VERTEX
8
CUT
10
39.8589
20
22.595
0
SEQEND
0
POLYLINE
8
CUT
66
1
70
0
0
VERTEX
8
CUT
10
40.6411
20
30.315
0
VERTEX
8
CUT
10
41.35
20
29.155
0
VERTEX
8
CUT
10
41.35
20
23.755
0
VERTEX
8
CUT
10
40.6411
20
22.595
0
SEQEND
0
POLYLINE
8
CUT
66
1
70
0
0
VERTEX
8
CUT
10
42.7589
20
30.315
0
VERTEX
8
CUT
10
42.05
20
29.155
0
VERTEX
8
CUT
10
42.05
20
23.755
0
VERTEX
8
CUT
10
42.7589
20
22.595
0
SEQEND
0
POLYLINE
8
CUT
66
1
70
0
0
VERTEX
8
CUT
10
43.5411
20
30.315
0
VERTEX
8
CUT
10
44.25
20
29.155
0
VERTEX
8
CUT
10
44.25
20
23.755
0
VERTEX
8
CUT
10
43.5411
20
22.595
0
SEQEND
0
POLYLINE
8
CUT
66
1
70
0
0
VERTEX
8
CUT
10
45.6589
20
30.315
0
VERTEX
8
CUT
10
44.95
20
29.155
0
VERTEX
8
CUT
10
44.95
20
23.755
0
VERTEX
8
CUT
10
45.6589
20
22.595
0
SEQEND
0
POLYLINE
8
CUT
66
1
70
0
0
VERTEX
8
CUT
10
46.4411
20
30.315
0
VERTEX
8
CUT
10
47.15
20
29.155
0
VERTEX
8
CUT
10
47.15
20
23.755
0
VERTEX
8
CUT
10
46.4411
20
22.595
0
SEQEND
0
POLYLINE
8
CUT
66
1
70
0
0
VERTEX
8
CUT
10
48.5589
20
30.315
0
VERTEX
8
CUT
10
47.85
20
29.155
0
VERTEX
8
CUT
10
47.85
20
23.755
0
VERTEX
8
CUT
10
48.5589
20
22.595
0
SEQEND
0
POLYLINE
8
CUT
66
1
70
0
0
VERTEX
8
CUT
10
49.3411
20
30.315
0
VERTEX
8
CUT
10
50.05
20
29.155
0
VERTEX
8
CUT
10
50.05
20
23.755
0
VERTEX
8
CUT
10
49.3411
20
22.595
0
SEQEND
0
POLYLINE
8
CUT
66
1
70
0
0
VERTEX
8
CUT
10
51.4589
20
30.315
0
VERTEX
8
CUT
10
50.75
20
29.155
0
VERTEX
8
CUT
10
50.75
20
23.755
0
VERTEX
8
CUT
10
51.4589
20
22.595
0
SEQEND
0
POLYLINE
8
CUT
66
1
70
0
0
VERTEX
8
CUT
10
52.2411
20
30.315
0
VERTEX
8
CUT
10
52.95
20
29.155
0
VERTEX
8
CUT
10
52.95
20
23.755
0
VERTEX
8
CUT
10
52.2411
20
22.595
0
SEQEND
0
POLYLINE
8
CUT
66
1
70
0
0
VERTEX
8
CUT
10
54.3589
20
30.315
0
VERTEX
8
CUT
10
53.65
20
29.155
0
VERTEX
8
CUT
10
53.65
20
23.755
0
VERTEX
8
CUT
10
54.3589
20
22.595
0
SEQEND
0
POLYLINE
8
CUT
66
1
70
0
0
VERTEX
8
CUT
10
55.1411
20
30.315
0
VERTEX
8
CUT
10
55.85
20
29.155
0
VERTEX
8
CUT
10
55.85
20
23.755
0
VERTEX
8
CUT
10
55.1411
20
22.595
0
SEQEND
0
POLYLINE
8
CUT
66
1
70
0
0
VERTEX
8
CUT
10
57.2589
20
30.315
0
VERTEX
8
CUT
10
56.55
20
29.155
0
VERTEX
8
CUT
10
56.55
20
23.755
0
VERTEX
8
CUT
10
57.2589
20
22.595
0
SEQEND
0
POLYLINE
8
CUT
66
1
70
0
0
VERTEX
8
CUT
10
58.0411
20
30.315
0
VERTEX
8
CUT
10
58.75
20
29.155
0
VERTEX
8
CUT
10
58.75
20
23.755
0
VERTEX
8
CUT
10
58.0411
20
22.595
0
SEQEND
0
POLYLINE
8
CUT
66
1
70
0
0
VERTEX
8
CUT
10
60.1589
20
30.315
0
VERTEX
8
CUT
10
59.45
20
29.155
0
VERTEX
8
CUT
10
59.45
20
23.755
0
VERTEX
8
CUT
10
60.1589
20
22.595
0
SEQEND
0
POLYLINE
8
CUT
66
1
70
0
0
VERTEX
8
CUT
10
60.9411
20
30.315
0
VERTEX
8
CUT
10
61.65
20
29.155
0
VERTEX
8
CUT
10
61.65
20
23.755
0
VERTEX
8
CUT
10
60.9411
20
22.595
0
SEQEND
0
POLYLINE
8
CUT
66
1
70
0
0
VERTEX
8
CUT
10
63.0589
20
30.315
0
VERTEX
8
CUT
10
62.35
20
29.155
0
VERTEX
8
CUT
10
62.35
20
23.755
0
VERTEX
8
CUT
10
63.0589
20
22.595
0
SEQEND
0
POLYLINE
8
CUT
66
1
70
0
0
VERTEX
8
CUT
10
63.8411
20
30.315
0
VERTEX
8
CUT
10
64.55
20
29.155
0
VERTEX
8
CUT
10
64.55
20
23.755
0
VERTEX
8
CUT
10
63.8411
20
22.595
0
SEQEND
0
POLYLINE
8
CUT
66
1
70
0
0
VERTEX
8
CUT
10
65.9589
20
30.315
0
VERTEX
8
CUT
10
65.25
20
29.155
0
VERTEX
8
CUT
10
65.25
20
23.755
0
VERTEX
8
CUT
10
65.9589
20
22.595
0
SEQEND
0
POLYLINE
8
CUT
66
1
70
0
0
VERTEX
8
CUT
10
66.7411
20
30.315
0
VERTEX
8
CUT
10
67.45
20
29.155
0
VERTEX
8
CUT
10
67.45
20
23.755
0
VERTEX
8
CUT
10
66.7411
20
22.595
0
SEQEND
0
POLYLINE
8
CUT
66
1
70
0
0
VERTEX
8
CUT
10
68.8589
20
30.315
0
VERTEX
8
CUT
10
68.15
20
29.155
0
VERTEX
8
CUT
10
68.15
20
23.755
0
VERTEX
8
CUT
10
68.8589
20
22.595
0
SEQEND
0
POLYLINE
8
CUT
66
1
70
0
0
VERTEX
8
CUT
10
69.6411
20
30.315
0
VERTEX
8
CUT
10
70.35
20
29.155
0
VERTEX
8
CUT
10
70.35
20
23.755
0
VERTEX
8
CUT
10
69.6411
20
22.595
0
SEQEND
0
POLYLINE
8
CUT
66
1
70
0
0
VERTEX
8
CUT
10
71.7589
20
30.315
0
VERTEX
8
CUT
10
71.05
20
29.155
0
VERTEX
8
CUT
10
71.05
20
23.755
0
VERTEX
8
CUT
10
71.7589
20
22.595
0
SEQEND
0
POLYLINE
8
CUT
66
1
70
0
0
VERTEX
8
CUT
10
72.5411
20
30.315
0
VERTEX
8
CUT
10
73.25
20
29.155
0
VERTEX
8
CUT
10
73.25
20
23.755
0
VERTEX
8
CUT
10
72.5411
20
22.595
0
SEQEND
0
POLYLINE
8
CUT
66
1
70
0
0
VERTEX
8
CUT
10
74.6589
20
30.315
0
VERTEX
8
CUT
10
73.95
20
29.155
0
VERTEX
8
CUT
10
73.95
20
23.755
0
VERTEX
8
CUT
10
74.6589
20
22.595
0
SEQEND
0
POLYLINE
8
CUT
66
1
70
0
0
VERTEX
8
CUT
10
75.4411
20
30.315
0
VERTEX
8
CUT
10
76.15
20
29.155
0
VERTEX
8
CUT
10
76.15
20
23.755
0
VERTEX
8
CUT
10
75.4411
20
22.595
0
SEQEND
0
POLYLINE
8
CUT
66
1
70
0
0
VERTEX
8
CUT
10
77.5589
20
30.315
0
VERTEX
8
CUT
10
76.85
20
29.155
0
VERTEX
8
CUT
10
76.85
20
23.755
0
VERTEX
8
CUT
10
77.5589
20
22.595
0
SEQEND
0
POLYLINE
8
CUT
66
1
70
0
0
VERTEX
8
CUT
10
78.3411
20
30.315
0
VERTEX
8
CUT
10
79.05
20
29.155
0
VERTEX
8
CUT
10
79.05
20
23.755
0
VERTEX
8
CUT
10
78.3411
20
22.595
0
SEQEND
0
POLYLINE
8
CUT
66
1
70
0
0
VERTEX
8
CUT
10
80.4589
20
30.315
0
VERTEX
8
CUT
10
79.75
20
29.155
0
VERTEX
8
CUT
10
79.75
20
23.755
0
VERTEX
8
CUT
10
80.4589
20
22.595
0
SEQEND
0
POLYLINE
8
CUT
66
1
70
0
0
VERTEX
8
CUT
10
81.2411
20
30.315
0
VERTEX
8
CUT
10
81.95
20
29.155
0
VERTEX
8
CUT
10
81.95
20
23.755
0
VERTEX
8
CUT
10
81.2411
20
22.595
0
SEQEND
0
POLYLINE
8
CUT
66
1
70
0
0
VERTEX
8
CUT
10
83.3589
20
30.315
0
VERTEX
8
CUT
10
82.65
20
29.155
0
VERTEX
8
CUT
10
82.65
20
23.755
0
VERTEX
8
CUT
10
83.3589
20
22.595
0
SEQEND
0
POLYLINE
8
CUT
66
1
70
0
0
VERTEX
8
CUT
10
84.1411
20
30.315
0
VERTEX
8
CUT
10
84.85
20
29.155
0
VERTEX
8
CUT
10
84.85
20
23.755
0
VERTEX
8
CUT
10
84.1411
20
22.595
0
SEQEND
0
POLYLINE
8
CUT
66
1
70
0
0
VERTEX
8
CUT
10
86.2589
20
30.315
0
VERTEX
8
CUT
10
85.55
20
29.155
0
VERTEX
8
CUT
10
85.55
20
23.755
0
VERTEX
8
CUT
10
86.2589
20
22.595
0
SEQEND
0
POLYLINE
8
CUT
66
1
70
0
0
VERTEX
8
CUT
10
87.0411
20
30.315
0
VERTEX
8
CUT
10
87.75
20
29.155
0
VERTEX
8
CUT
10
87.75
20
23.755
0
VERTEX
8
CUT
10
87.0411
20
22.595
0
SEQEND
0
POLYLINE
8
CUT
66
1
70
0
0
VERTEX
8
CUT
10
89.1589
20
30.315
0
VERTEX
8
CUT
10
88.45
20
29.155
0
VERTEX
8
CUT
10
88.45
20
23.755
0
VERTEX
8
CUT
10
89.1589
20
22.595
0
SEQEND
0
POLYLINE
8
CUT
66
1
70
0
0
VERTEX
8
CUT
10
89.9411
20
30.315
0
VERTEX
8
CUT
10
90.65
20
29.155
0
VERTEX
8
CUT
10
90.65
20
23.755
0
VERTEX
8
CUT
10
89.9411
20
22.595
0
SEQEND
0
POLYLINE
8
CUT
66
1
70
0
0
VERTEX
8
CUT
10
92.0589
20
30.315
0
VERTEX
8
CUT
10
91.35
20
29.155
0
VERTEX
8
CUT
10
91.35
20
23.755
0
VERTEX
8
CUT
10
92.0589
20
22.595
0
SEQEND
0
POLYLINE
8
CUT
66
1
70
0
0
VERTEX
8
CUT
10
92.8411
20
30.315
0
VERTEX
8
CUT
10
93.55
20
29.155
0
VERTEX
8
CUT
10
93.55
20
23.755
0
VERTEX
8
CUT
10
92.8411
20
22.595
0
SEQEND
0
POLYLINE
8
CUT
66
1
70
0
0
VERTEX
8
CUT
10
94.9589
20
30.315
0
VERTEX
8
CUT
10
94.25
20
29.155
0
VERTEX
8
CUT
10
94.25
20
23.755
0
VERTEX
8
CUT
10
94.9589
20
22.595
0
SEQEND
0
POLYLINE
8
CUT
66
1
70
0
0
VERTEX
8
CUT
10
95.7411
20
30.315
0
VERTEX
8
CUT
10
96.45
20
29.155
0
VERTEX
8
CUT
10
96.45
20
23.755
0
VERTEX
8
CUT
10
95.7411
20
22.595
0
SEQEND
0
POLYLINE
8
CUT
66
1
70
0
0
VERTEX
8
CUT
10
97.8589
20
30.315
0
VERTEX
8
CUT
10
97.15
20
29.155
0
VERTEX
8
CUT
10
97.15
20
23.755
0
VERTEX
8
CUT
10
97.8589
20
22.595
0
SEQEND
0
POLYLINE
8
CUT
66
1
70
0
0
VERTEX
8
CUT
10
98.6411
20
30.315
0
VERTEX
8
CUT
10
99.35
20
29.155
0
VERTEX
8
CUT
10
99.35
20
23.755
0
VERTEX
8
CUT
10
98.6411
20
22.595
0
SEQEND
0
POLYLINE
8
CUT
66
1
70
0
0
VERTEX
8
CUT
10
100.7589
20
30.315
0
VERTEX
8
CUT
10
100.05
20
29.155
0
VERTEX
8
CUT
10
100.05
20
23.755
0
VERTEX
8
CUT
10
100.7589
20
22.595
0
SEQEND
0
POLYLINE
8
CUT
66
1
70
0
0
VERTEX
8
CUT
10
101.5411
20
30.315
0
VERTEX
8
CUT
10
102.25
20
29.155
0
VERTEX
8
CUT
10
102.25
20
23.755
0
VERTEX
8
CUT
10
101.5411
20
22.595
0
SEQEND
0
POLYLINE
8
CUT
66
1
70
0
0
VERTEX
8
CUT
10
103.6589
20
30.315
0
VERTEX
8
CUT
10
102.95
20
29.155
0
VERTEX
8
CUT
10
102.95
20
23.755
0
VERTEX
8
CUT
10
103.6589
20
22.595
0
SEQEND
0
POLYLINE
8
CUT
66
1
70
0
0
VERTEX
8
CUT
10
104.4411
20
30.315
0
VERTEX
8
CUT
10
105.15
20
29.155
0
VERTEX
8
CUT
10
105.15
20
23.755
0
VERTEX
8
CUT
10
104.4411
20
22.595
0
SEQEND
0
POLYLINE
8
CUT
66
1
70
0
0
VERTEX
8
CUT
10
106.5589
20
30.315
0
VERTEX
8
CUT
10
105.85
20
29.155
0
VERTEX
8
CUT
10
105.85
20
23.755
0
VERTEX
8
CUT
10
106.5589
20
22.595
0
SEQEND
0
POLYLINE
8
CUT
66
1
70
0
0
VERTEX
8
CUT
10
107.3411
20
30.315
0
VERTEX
8
CUT
10
108.05
20
29.155
0
VERTEX
8
CUT
10
108.05
20
23.755
0
VERTEX
8
CUT
10
107.3411
20
22.595
0
SEQEND
0
POLYLINE
8
CUT
66
1
70
0
0
VERTEX
8
CUT
10
109.4589
20
30.315
0
VERTEX
8
CUT
10
108.75
20
29.155
0
VERTEX
8
CUT
10
108.75
20
23.755
0
VERTEX
8
CUT
10
109.4589
20
22.595
0
SEQEND
0
POLYLINE
8
CUT
66
1
70
0
0
VERTEX
8
CUT
10
110.2411
20
30.315
0
VERTEX
8
CUT
10
110.95
20
29.155
0
VERTEX
8
CUT
10
110.95
20
23.755
0
VERTEX
8
CUT
10
110.2411
20
22.595
0
SEQEND
0
POLYLINE
8
CUT
66
1
70
0
0
VERTEX
8
CUT
10
112.3589
20
30.315
0
VERTEX
8
CUT
10
111.65
20
29.155
0
VERTEX
8
CUT
10
111.65
20
23.755
0
VERTEX
8
CUT
10
112.3589
20
22.595
0
SEQEND
0
POLYLINE
8
CUT
66
1
70
0
0
VERTEX
8
CUT
10
113.1411
20
30.315
0
VERTEX
8
CUT
10
113.85
20
29.155
0
VERTEX
8
CUT
10
113.85
20
23.755
0
VERTEX
8
CUT
10
113.1411
20
22.595
0
SEQEND
0
POLYLINE
8
CUT
66
1
70
0
0
VERTEX
8
CUT
10
115.2589
20
30.315
0
VERTEX
8
CUT
10
114.55
20
29.155
0
VERTEX
8
CUT
10
114.55
20
23.755
0
VERTEX
8
CUT
10
115.2589
20
22.595
0
SEQEND
0
POLYLINE
8
CUT
66
1
70
0
0
VERTEX
8
CUT
10
116.0411
20
30.315
0
VERTEX
8
CUT
10
116.75
20
29.155
0
VERTEX
8
CUT
10
116.75
20
23.755
0
VERTEX
8
CUT
10
116.0411
20
22.595
0
SEQEND
0
POLYLINE
8
CUT
66
1
70
0
0
VERTEX
8
CUT
10
118.1589
20
30.315
0
VERTEX
8
CUT
10
117.45
20
29.155
0
VERTEX
8
CUT
10
117.45
20
23.755
0
VERTEX
8
CUT
10
118.1589
20
22.595
0
SEQEND
0
POLYLINE
8
CUT
66
1
70
0
0
VERTEX
8
CUT
10
118.9411
20
30.315
0
VERTEX
8
CUT
10
119.65
20
29.155
0
VERTEX
8
CUT
10
119.65
20
23.755
0
VERTEX
8
CUT
10
118.9411
20
22.595
0
SEQEND
0
POLYLINE
8
CUT
66
1
70
0
0
VERTEX
8
CUT
10
0.7089
20
22.506
0
VERTEX
8
CUT
10
0
20
21.346
0
VERTEX
8
CUT
10
0
20
15.946
0
VERTEX
8
CUT
10
0.7089
20
14.786
0
SEQEND
0
POLYLINE
8
CUT
66
1
70
0
0
VERTEX
8
CUT
10
1.4911
20
22.506
0
VERTEX
8
CUT
10
2.2
20
21.346
0
VERTEX
8
CUT
10
2.2
20
15.946
0
VERTEX
8
CUT
10
1.4911
20
14.786
0
SEQEND
0
POLYLINE
8
CUT
66
1
70
0
0
VERTEX
8
CUT
10
3.6089
20
22.506
0
VERTEX
8
CUT
10
2.9
20
21.346
0
VERTEX
8
CUT
10
2.9
20
15.946
0
VERTEX
8
CUT
10
3.6089
20
14.786
0
SEQEND
0
POLYLINE
8
CUT
66
1
70
0
0
VERTEX
8
CUT
10
4.3911
20
22.506
0
VERTEX
8
CUT
10
5.1
20
21.346
0
VERTEX
8
CUT
10
5.1
20
15.946
0
VERTEX
8
CUT
10
4.3911
20
14.786
0
SEQEND
0
POLYLINE
8
CUT
66
1
70
0
0
VERTEX
8
CUT
10
6.5089
20
22.506
0
VERTEX
8
CUT
10
5.8
20
21.346
0
VERTEX
8
CUT
10
5.8
20
15.946
0
VERTEX
8
CUT
10
6.5089
20
14.786
0
SEQEND
0
POLYLINE
8
CUT
66
1
70
0
0
VERTEX
8
CUT
10
7.2911
20
22.506
0
VERTEX
8
CUT
10
8
20
21.346
0
VERTEX
8
CUT
10
8
20
15.946
0
VERTEX
8
CUT
10
7.2911
20
14.786
0
SEQEND
0
POLYLINE
8
CUT
66
1
70
0
0
VERTEX
8
CUT
10
9.4089
20
22.506
0
VERTEX
8
CUT
10
8.7
20
21.346
0
VERTEX
8
CUT
10
8.7
20
15.946
0
VERTEX
8
CUT
10
9.4089
20
14.786
0
SEQEND
0
POLYLINE
8
CUT
66
1
70
0
0
VERTEX
8
CUT
10
10.1911
20
22.506
0
VERTEX
8
CUT
10
10.9
20
21.346
0
VERTEX
8
CUT
10
10.9
20
15.946
0
VERTEX
8
CUT
10
10.1911
20
14.786
0
SEQEND
0
POLYLINE
8
CUT
66
1
70
0
0
VERTEX
8
CUT
10
12.3089
20
22.506
0
VERTEX
8
CUT
10
11.6
20
21.346
0
VERTEX
8
CUT
10
11.6
20
15.946
0
VERTEX
8
CUT
10
12.3089
20
14.786
0
SEQEND
0
POLYLINE
8
CUT
66
1
70
0
0
VERTEX
8
CUT
10
13.0911
20
22.506
0
VERTEX
8
CUT
10
13.8
20
21.346
0
VERTEX
8
CUT
10
13.8
20
15.946
0
VERTEX
8
CUT
10
13.0911
20
14.786
0
SEQEND
0
POLYLINE
8
CUT
66
1
70
0
0
VERTEX
8
CUT
10
15.2089
20
22.506
0
VERTEX
8
CUT
10
14.5
20
21.346
0
VERTEX
8
CUT
10
14.5
20
15.946
0
VERTEX
8
CUT
10
15.2089
20
14.786
0
SEQEND
0
POLYLINE
8
CUT
66
1
70
0
0
VERTEX
8
CUT
10
15.9911
20
22.506
0
VERTEX
8
CUT
10
16.7
20
21.346
0
VERTEX
8
CUT
10
16.7
20
15.946
0
VERTEX
8
CUT
10
15.9911
20
14.786
0
SEQEND
0
POLYLINE
8
CUT
66
1
70
0
0
VERTEX
8
CUT
10
18.1089
20
22.506
0
VERTEX
8
CUT
10
17.4
20
21.346
0
VERTEX
8
CUT
10
17.4
20
15.946
0
VERTEX
8
CUT
10
18.1089
20
14.786
0
SEQEND
0
POLYLINE
8
CUT
66
1
70
0
0
VERTEX
8
CUT
10
18.8911
20
22.506
0
VERTEX
8
CUT
10
19.6
20
21.346
0
VERTEX
8
CUT
10
19.6
20
15.946
0
VERTEX
8
CUT
10
18.8911
20
14.786
0
SEQEND
0
POLYLINE
8
CUT
66
1
70
0
0
VERTEX
8
CUT
10
21.0089
20
22.506
0
VERTEX
8
CUT
10
20.3
20
21.346
0
VERTEX
8
CUT
10
20.3
20
15.946
0
VERTEX
8
CUT
10
21.0089
20
14.786
0
SEQEND
0
POLYLINE
8
CUT
66
1
70
0
0
VERTEX
8
CUT
10
21.7911
20
22.506
0
VERTEX
8
CUT
10
22.5
20
21.346
0
VERTEX
8
CUT
10
22.5
20
15.946
0
VERTEX
8
CUT
10
21.7911
20
14.786
0
SEQEND
0
POLYLINE
8
CUT
66
1
70
0
0
VERTEX
8
CUT
10
23.9089
20
22.506
0
VERTEX
8
CUT
10
23.2
20
21.346
0
VERTEX
8
CUT
10
23.2
20
15.946
0
VERTEX
8
CUT
10
23.9089
20
14.786
0
SEQEND
0
POLYLINE
8
CUT
66
1
70
0
0
VERTEX
8
CUT
10
24.6911
20
22.506
0
VERTEX
8
CUT
10
25.4
20
21.346
0
VERTEX
8
CUT
10
25.4
20
15.946
0
VERTEX
8
CUT
10
24.6911
20
14.786
0
SEQEND
0
POLYLINE
8
CUT
66
1
70
0
0
VERTEX
8
CUT
10
26.8089
20
22.506
0
VERTEX
8
CUT
10
26.1
20
21.346
0
VERTEX
8
CUT
10
26.1
20
15.946
0
VERTEX
8
CUT
10
26.8089
20
14.786
0
SEQEND
0
POLYLINE
8
CUT
66
1
70
0
0
VERTEX
8
CUT
10
27.5911
20
22.506
0
VERTEX
8
CUT
10
28.3
20
21.346
0
VERTEX
8
CUT
10
28.3
20
15.946
0
VERTEX
8
CUT
10
27.5911
20
14.786
0
SEQEND
0
POLYLINE
8
CUT
66
1
70
0
0
VERTEX
8
CUT
10
29.7089
20
22.506
0
VERTEX
8
CUT
10
29
20
21.346
0
VERTEX
8
CUT
10
29
20
15.946
0
VERTEX
8
CUT
10
29.7089
20
14.786
0
SEQEND
0
POLYLINE
8
CUT
66
1
70
0
0
VERTEX
8
CUT
10
30.4911
20
22.506
0
VERTEX
8
CUT
10
31.2
20
21.346
0
VERTEX
8
CUT
10
31.2
20
15.946
0
VERTEX
8
CUT
10
30.4911
20
14.786
0
SEQEND
0
POLYLINE
8
CUT
66
1
70
0
0
VERTEX
8
CUT
10
32.6089
20
22.506
0
VERTEX
8
CUT
10
31.9
20
21.346
0
VERTEX
8
CUT
10
31.9
20
15.946
0
VERTEX
8
CUT
10
32.6089
20
14.786
0
SEQEND
0
POLYLINE
8
CUT
66
1
70
0
0
VERTEX
8
CUT
10
33.3911
20
22.506
0
VERTEX
8
CUT
10
34.1
20
21.346
0
VERTEX
8
CUT
10
34.1
20
15.946
0
VERTEX
8
CUT
10
33.3911
20
14.786
0
SEQEND
0
POLYLINE
8
CUT
66
1
70
0
0
VERTEX
8
CUT
10
35.5089
20
22.506
0
VERTEX
8
CUT
10
34.8
20
21.346
0
VERTEX
8
CUT
10
34.8
20
15.946
0
VERTEX
8
CUT
10
35.5089
20
14.786
0
SEQEND
0
POLYLINE
8
CUT
66
1
70
0
0
VERTEX
8
CUT
10
36.2911
20
22.506
0
VERTEX
8
CUT
10
37
20
21.346
0
VERTEX
8
CUT
10
37
20
15.946
0
VERTEX
8
CUT
10
36.2911
20
14.786
0
SEQEND
0
POLYLINE
8
CUT
66
1
70
0
0
VERTEX
8
CUT
10
38.4089
20
22.506
0
VERTEX
8
CUT
10
37.7
20
21.346
0
VERTEX
8
CUT
10
37.7
20
15.946
0
VERTEX
8
CUT
10
38.4089
20
14.786
0
SEQEND
0
POLYLINE
8
CUT
66
1
70
0
0
VERTEX
8
CUT
10
39.1911
20
22.506
0
VERTEX
8
CUT
10
39.9
20
21.346
0
VERTEX
8
CUT
10
39.9
20
15.946
0
VERTEX
8
CUT
10
39.1911
20
14.786
0
SEQEND
0
POLYLINE
8
CUT
66
1
70
0
0
VERTEX
8
CUT
10
41.3089
20
22.506
0
VERTEX
8
CUT
10
40.6
20
21.346
0
VERTEX
8
CUT
10
40.6
20
15.946
0
VERTEX
8
CUT
10
41.3089
20
14.786
0
SEQEND
0
POLYLINE
8
CUT
66
1
70
0
0
VERTEX
8
CUT
10
42.0911
20
22.506
0
VERTEX
8
CUT
10
42.8
20
21.346
0
VERTEX
8
CUT
10
42.8
20
15.946
0
VERTEX
8
CUT
10
42.0911
20
14.786
0
SEQEND
0
POLYLINE
8
CUT
66
1
70
0
0
VERTEX
8
CUT
10
44.2089
20
22.506
0
VERTEX
8
CUT
10
43.5
20
21.346
0
VERTEX
8
CUT
10
43.5
20
15.946
0
VERTEX
8
CUT
10
44.2089
20
14.786
0
SEQEND
0
POLYLINE
8
CUT
66
1
70
0
0
VERTEX
8
CUT
10
44.9911
20
22.506
0
VERTEX
8
CUT
10
45.7
20
21.346
0
VERTEX
8
CUT
10
45.7
20
15.946
0
VERTEX
8
CUT
10
44.9911
20
14.786
0
SEQEND
0
POLYLINE
8
CUT
66
1
70
0
0
VERTEX
8
CUT
10
47.1089
20
22.506
0
VERTEX
8
CUT
10
46.4
20
21.346
0
VERTEX
8
CUT
10
46.4
20
15.946
0
VERTEX
8
CUT
10
47.1089
20
14.786
0
SEQEND
0
POLYLINE
8
CUT
66
1
70
0
0
VERTEX
8
CUT
10
47.8911
20
22.506
0
VERTEX
8
CUT
10
48.6
20
21.346
0
VERTEX
8
CUT
10
48.6
20
15.946
0
VERTEX
8
CUT
10
47.8911
20
14.786
0
SEQEND
0
POLYLINE
8
CUT
66
1
70
0
0
VERTEX
8
CUT
10
50.0089
20
22.506
0
VERTEX
8
CUT
10
49.3
20
21.346
0
VERTEX
8
CUT
10
49.3
20
15.946
0
VERTEX
8
CUT
10
50.0089
20
14.786
0
SEQEND
0
POLYLINE
8
CUT
66
1
70
0
0
VERTEX
8
CUT
10
50.7911
20
22.506
0
VERTEX
8
CUT
10
51.5
20
21.346
0
VERTEX
8
CUT
10
51.5
20
15.946
0
VERTEX
8
CUT
10
50.7911
20
14.786
0
SEQEND
0
POLYLINE
8
CUT
66
1
70
0
0
VERTEX
8
CUT
10
52.9089
20
22.506
0
VERTEX
8
CUT
10
52.2
20
21.346
0
VERTEX
8
CUT
10
52.2
20
15.946
0
VERTEX
8
CUT
10
52.9089
20
14.786
0
SEQEND
0
POLYLINE
8
CUT
66
1
70
0
0
VERTEX
8
CUT
10
53.6911
20
22.506
0
VERTEX
8
CUT
10
54.4
20
21.346
0
VERTEX
8
CUT
10
54.4
20
15.946
0
VERTEX
8
CUT
10
53.6911
20
14.786
0
SEQEND
0
POLYLINE
8
CUT
66
1
70
0
0
VERTEX
8
CUT
10
55.8089
20
22.506
0
VERTEX
8
CUT
10
55.1
20
21.346
0
VERTEX
8
CUT
10
55.1
20
15.946
0
VERTEX
8
CUT
10
55.8089
20
14.786
0
SEQEND
0
POLYLINE
8
CUT
66
1
70
0
0
VERTEX
8
CUT
10
56.5911
20
22.506
0
VERTEX
8
CUT
10
57.3
20
21.346
0
VERTEX
8
CUT
10
57.3
20
15.946
0
VERTEX
8
CUT
10
56.5911
20
14.786
0
SEQEND
0
POLYLINE
8
CUT
66
1
70
0
0
VERTEX
8
CUT
10
58.7089
20
22.506
0
VERTEX
8
CUT
10
58
20
21.346
0
VERTEX
8
CUT
10
58
20
15.946
0
VERTEX
8
CUT
10
58.7089
20
14.786
0
SEQEND
0
POLYLINE
8
CUT
66
1
70
0
0
VERTEX
8
CUT
10
59.4911
20
22.506
0
VERTEX
8
CUT
10
60.2
20
21.346
0
VERTEX
8
CUT
10
60.2
20
15.946
0
VERTEX
8
CUT
10
59.4911
20
14.786
0
SEQEND
0
POLYLINE
8
CUT
66
1
70
0
0
VERTEX
8
CUT
10
61.6089
20
22.506
0
VERTEX
8
CUT
10
60.9
20
21.346
0
VERTEX
8
CUT
10
60.9
20
15.946
0
VERTEX
8
CUT
10
61.6089
20
14.786
0
SEQEND
0
POLYLINE
8
CUT
66
1
70
0
0
VERTEX
8
CUT
10
62.3911
20
22.506
0
VERTEX
8
CUT
10
63.1
20
21.346
0
VERTEX
8
CUT
10
63.1
20
15.946
0
VERTEX
8
CUT
10
62.3911
20
14.786
0
SEQEND
0
POLYLINE
8
CUT
66
1
70
0
0
VERTEX
8
CUT
10
64.5089
20
22.506
0
VERTEX
8
CUT
10
63.8
20
21.346
0
VERTEX
8
CUT
10
63.8
20
15.946
0
VERTEX
8
CUT
10
64.5089
20
14.786
0
SEQEND
0
POLYLINE
8
CUT
66
1
70
0
0
VERTEX
8
CUT
10
65.2911
20
22.506
0
VERTEX
8
CUT
10
66
20
21.346
0
VERTEX
8
CUT
10
66
20
15.946
0
VERTEX
8
CUT
10
65.2911
20
14.786
0
SEQEND
0
POLYLINE
8
CUT
66
1
70
0
0
VERTEX
8
CUT
10
67.4089
20
22.506
0
VERTEX
8
CUT
10
66.7
20
21.346
0
VERTEX
8
CUT
10
66.7
20
15.946
0
VERTEX
8
CUT
10
67.4089
20
14.786
0
SEQEND
0
POLYLINE
8
CUT
66
1
70
0
0
VERTEX
8
CUT
10
68.1911
20
22.506
0
VERTEX
8
CUT
10
68.9
20
21.346
0
VERTEX
8
CUT
10
68.9
20
15.946
0
VERTEX
8
CUT
10
68.1911
20
14.786
0
SEQEND
0
POLYLINE
8
CUT
66
1
70
0
0
VERTEX
8
CUT
10
70.3089
20
22.506
0
VERTEX
8
CUT
10
69.6
20
21.346
0
VERTEX
8
CUT
10
69.6
20
15.946
0
VERTEX
8
CUT
10
70.3089
20
14.786
0
SEQEND
0
POLYLINE
8
CUT
66
1
70
0
0
VERTEX
8
CUT
10
71.0911
20
22.506
0
VERTEX
8
CUT
10
71.8
20
21.346
0
VERTEX
8
CUT
10
71.8
20
15.946
0
VERTEX
8
CUT
10
71.0911
20
14.786
0
SEQEND
0
POLYLINE
8
CUT
66
1
70
0
0
VERTEX
8
CUT
10
73.2089
20
22.506
0
VERTEX
8
CUT
10
72.5
20
21.346
0
VERTEX
8
CUT
10
72.5
20
15.946
0
VERTEX
8
CUT
10
73.2089
20
14.786
0
SEQEND
0
POLYLINE
8
CUT
66
1
70
0
0
VERTEX
8
CUT
10
73.9911
20
22.506
0
VERTEX
8
CUT
10
74.7
20
21.346
0
VERTEX
8
CUT
10
74.7
20
15.946
0
VERTEX
8
CUT
10
73.9911
20
14.786
0
SEQEND
0
POLYLINE
8
CUT
66
1
70
0
0
VERTEX
8
CUT
10
76.1089
20
22.506
0
VERTEX
8
CUT
10
75.4
20
21.346
0
VERTEX
8
CUT
10
75.4
20
15.946
0
VERTEX
8
CUT
10
76.1089
20
14.786
0
SEQEND
0
POLYLINE
8
CUT
66
1
70
0
0
VERTEX
8
CUT
10
76.8911
20
22.506
0
VERTEX
8
CUT
10
77.6
20
21.346
0
VERTEX
8
CUT
10
77.6
20
15.946
0
VERTEX
8
CUT
10
76.8911
20
14.786
0
SEQEND
0
POLYLINE
8
CUT
66
1
70
0
0
VERTEX
8
CUT
10
79.0089
20
22.506
0
VERTEX
8
CUT
10
78.3
20
21.346
0
VERTEX
8
CUT
10
78.3
20
15.946
0
VERTEX
8
CUT
10
79.0089
20
14.786
0
SEQEND
0
POLYLINE
8
CUT
66
1
70
0
0
VERTEX
8
CUT
10
79.7911
20
22.506
0
VERTEX
8
CUT
10
80.5
20
21.346
0
VERTEX
8
CUT
10
80.5
20
15.946
0
VERTEX
8
CUT
10
79.7911
20
14.786
0
SEQEND
0
POLYLINE
8
CUT
66
1
70
0
0
VERTEX
8
CUT
10
81.9089
20
22.506
0
VERTEX
8
CUT
10
81.2
20
21.346
0
VERTEX
8
CUT
10
81.2
20
15.946
0
VERTEX
8
CUT
10
81.9089
20
14.786
0
SEQEND
0
POLYLINE
8
CUT
66
1
70
0
0
VERTEX
8
CUT
10
82.6911
20
22.506
0
VERTEX
8
CUT
10
83.4
20
21.346
0
VERTEX
8
CUT
10
83.4
20
15.946
0
VERTEX
8
CUT
10
82.6911
20
14.786
0
SEQEND
0
POLYLINE
8
CUT
66
1
70
0
0
VERTEX
8
CUT
10
84.8089
20
22.506
0
VERTEX
8
CUT
10
84.1
20
21.346
0
VERTEX
8
CUT
10
84.1
20
15.946
0
VERTEX
8
CUT
10
84.8089
20
14.786
0
SEQEND
0
POLYLINE
8
CUT
66
1
70
0
0
VERTEX
8
CUT
10
85.5911
20
22.506
0
VERTEX
8
CUT
10
86.3
20
21.346
0
VERTEX
8
CUT
10
86.3
20
15.946
0
VERTEX
8
CUT
10
85.5911
20
14.786
0
SEQEND
0
POLYLINE
8
CUT
66
1
70
0
0
VERTEX
8
CUT
10
87.7089
20
22.506
0
VERTEX
8
CUT
10
87
20
21.346
0
VERTEX
8
CUT
10
87
20
15.946
0
VERTEX
8
CUT
10
87.7089
20
14.786
0
SEQEND
0
POLYLINE
8
CUT
66
1
70
0
0
VERTEX
8
CUT
10
88.4911
20
22.506
0
VERTEX
8
CUT
10
89.2
20
21.346
0
VERTEX
8
CUT
10
89.2
20
15.946
0
VERTEX
8
CUT
10
88.4911
20
14.786
0
SEQEND
0
POLYLINE
8
CUT
66
1
70
0
0
VERTEX
8
CUT
10
90.6089
20
22.506
0
VERTEX
8
CUT
10
89.9
20
21.346
0
VERTEX
8
CUT
10
89.9
20
15.946
0
VERTEX
8
CUT
10
90.6089
20
14.786
0
SEQEND
0
POLYLINE
8
CUT
66
1
70
0
0
VERTEX
8
CUT
10
91.3911
20
22.506
0
VERTEX
8
CUT
10
92.1
20
21.346
0
VERTEX
8
CUT
10
92.1
20
15.946
0
VERTEX
8
CUT
10
91.3911
20
14.786
0
SEQEND
0
POLYLINE
8
CUT
66
1
70
0
0
VERTEX
8
CUT
10
93.5089
20
22.506
0
VERTEX
8
CUT
10
92.8
20
21.346
0
VERTEX
8
CUT
10
92.8
20
15.946
0
VERTEX
8
CUT
10
93.5089
20
14.786
0
SEQEND
0
POLYLINE
8
CUT
66
1
70
0
0
VERTEX
8
CUT
10
94.2911
20
22.506
0
VERTEX
8
CUT
10
95
20
21.346
0
VERTEX
8
CUT
10
95
20
15.946
0
VERTEX
8
CUT
10
94.2911
20
14.786
0
SEQEND
0
POLYLINE
8
CUT
66
1
70
0
0
VERTEX
8
CUT
10
96.4089
20
22.506
0
VERTEX
8
CUT
10
95.7
20
21.346
0
VERTEX
8
CUT
10
95.7
20
15.946
0
VERTEX
8
CUT
10
96.4089
20
14.786
0
SEQEND
0
POLYLINE
8
CUT
66
1
70
0
0
VERTEX
8
CUT
10
97.1911
20
22.506
0
VERTEX
8
CUT
10
97.9
20
21.346
0
VERTEX
8
CUT
10
97.9
20
15.946
0
VERTEX
8
CUT
10
97.1911
20
14.786
0
SEQEND
0
POLYLINE
8
CUT
66
1
70
0
0
VERTEX
8
CUT
10
99.3089
20
22.506
0
VERTEX
8
CUT
10
98.6
20
21.346
0
VERTEX
8
CUT
10
98.6
20
15.946
0
VERTEX
8
CUT
10
99.3089
20
14.786
0
SEQEND
0
POLYLINE
8
CUT
66
1
70
0
0
VERTEX
8
CUT
10
100.0911
20
22.506
0
VERTEX
8
CUT
10
100.8
20
21.346
0
VERTEX
8
CUT
10
100.8
20
15.946
0
VERTEX
8
CUT
10
100.0911
20
14.786
0
SEQEND
0
POLYLINE
8
CUT
66
1
70
0
0
VERTEX
8
CUT
10
102.2089
20
22.506
0
VERTEX
8
CUT
10
101.5
20
21.346
0
VERTEX
8
CUT
10
101.5
20
15.946
0
VERTEX
8
CUT
10
102.2089
20
14.786
0
SEQEND
0
POLYLINE
8
CUT
66
1
70
0
0
VERTEX
8
CUT
10
102.9911
20
22.506
0
VERTEX
8
CUT
10
103.7
20
21.346
0
VERTEX
8
CUT
10
103.7
20
15.946
0
VERTEX
8
CUT
10
102.9911
20
14.786
0
SEQEND
0
POLYLINE
8
CUT
66
1
70
0
0
VERTEX
8
CUT
10
105.1089
20
22.506
0
VERTEX
8
CUT
10
104.4
20
21.346
0
VERTEX
8
CUT
10
104.4
20
15.946
0
VERTEX
8
CUT
10
105.1089
20
14.786
0
SEQEND
0
POLYLINE
8
CUT
66
1
70
0
0
VERTEX
8
CUT
10
105.8911
20
22.506
0
VERTEX
8
CUT
10
106.6
20
21.346
0
VERTEX
8
CUT
10
106.6
20
15.946
0
VERTEX
8
CUT
10
105.8911
20
14.786
0
SEQEND
0
POLYLINE
8
CUT
66
1
70
0
0
VERTEX
8
CUT
10
108.0089
20
22.506
0
VERTEX
8
CUT
10
107.3
20
21.346
0
VERTEX
8
CUT
10
107.3
20
15.946
0
VERTEX
8
CUT
10
108.0089
20
14.786
0
SEQEND
0
POLYLINE
8
CUT
66
1
70
0
0
VERTEX
8
CUT
10
108.7911
20
22.506
0
VERTEX
8
CUT
10
109.5
20
21.346
0
VERTEX
8
CUT
10
109.5
20
15.946
0
VERTEX
8
CUT
10
108.7911
20
14.786
0
SEQEND
0
POLYLINE
8
CUT
66
1
70
0
0
VERTEX
8
CUT
10
110.9089
20
22.506
0
VERTEX
8
CUT
10
110.2
20
21.346
0
VERTEX
8
CUT
10
110.2
20
15.946
0
VERTEX
8
CUT
10
110.9089
20
14.786
0
SEQEND
0
POLYLINE
8
CUT
66
1
70
0
0
VERTEX
8
CUT
10
111.6911
20
22.506
0
VERTEX
8
CUT
10
112.4
20
21.346
0
VERTEX
8
CUT
10
112.4
20
15.946
0
VERTEX
8
CUT
10
111.6911
20
14.786
0
SEQEND
0
POLYLINE
8
CUT
66
1
70
0
0
VERTEX
8
CUT
10
113.8089
20
22.506
0
VERTEX
8
CUT
10
113.1
20
21.346
0
VERTEX
8
CUT
10
113.1
20
15.946
0
VERTEX
8
CUT
10
113.8089
20
14.786
0
SEQEND
0
POLYLINE
8
CUT
66
1
70
0
0
VERTEX
8
CUT
10
114.5911
20
22.506
0
VERTEX
8
CUT
10
115.3
20
21.346
0
VERTEX
8
CUT
10
115.3
20
15.946
0
VERTEX
8
CUT
10
114.5911
20
14.786
0
SEQEND
0
POLYLINE
8
CUT
66
1
70
0
0
VERTEX
8
CUT
10
116.7089
20
22.506
0
VERTEX
8
CUT
10
116
20
21.346
0
VERTEX
8
CUT
10
116
20
15.946
0
VERTEX
8
CUT
10
116.7089
20
14.786
0
SEQEND
0
POLYLINE
8
CUT
66
1
70
0
0
VERTEX
8
CUT
10
117.4911
20
22.506
0
VERTEX
8
CUT
10
118.2
20
21.346
0
VERTEX
8
CUT
10
118.2
20
15.946
0
VERTEX
8
CUT
10
117.4911
20
14.786
0
SEQEND
0
POLYLINE
8
CUT
66
1
70
0
0
VERTEX
8
CUT
10
119.6089
20
22.506
0
VERTEX
8
CUT
10
118.9
20
21.346
0
VERTEX
8
CUT
10
118.9
20
15.946
0
VERTEX
8
CUT
10
119.6089
20
14.786
0
SEQEND
0
POLYLINE
8
CUT
66
1
70
0
0
VERTEX
8
CUT
10
0.0411
20
14.697
0
VERTEX
8
CUT
10
0.75
20
13.537
0
VERTEX
8
CUT
10
0.75
20
8.137
0
VERTEX
8
CUT
10
0.0411
20
6.977
0
SEQEND
0
POLYLINE
8
CUT
66
1
70
0
0
VERTEX
8
CUT
10
2.1589
20
14.697
0
VERTEX
8
CUT
10
1.45
20
13.537
0
VERTEX
8
CUT
10
1.45
20
8.137
0
VERTEX
8
CUT
10
2.1589
20
6.977
0
SEQEND
0
POLYLINE
8
CUT
66
1
70
0
0
VERTEX
8
CUT
10
2.9411
20
14.697
0
VERTEX
8
CUT
10
3.65
20
13.537
0
VERTEX
8
CUT
10
3.65
20
8.137
0
VERTEX
8
CUT
10
2.9411
20
6.977
0
SEQEND
0
POLYLINE
8
CUT
66
1
70
0
0
VERTEX
8
CUT
10
5.0589
20
14.697
0
VERTEX
8
CUT
10
4.35
20
13.537
0
VERTEX
8
CUT
10
4.35
20
8.137
0
VERTEX
8
CUT
10
5.0589
20
6.977
0
SEQEND
0
POLYLINE
8
CUT
66
1
70
0
0
VERTEX
8
CUT
10
5.8411
20
14.697
0
VERTEX
8
CUT
10
6.55
20
13.537
0
VERTEX
8
CUT
10
6.55
20
8.137
0
VERTEX
8
CUT
10
5.8411
20
6.977
0
SEQEND
0
POLYLINE
8
CUT
66
1
70
0
0
VERTEX
8
CUT
10
7.9589
20
14.697
0
VERTEX
8
CUT
10
7.25
20
13.537
0
VERTEX
8
CUT
10
7.25
20
8.137
0
VERTEX
8
CUT
10
7.9589
20
6.977
0
SEQEND
0
POLYLINE
8
CUT
66
1
70
0
0
VERTEX
8
CUT
10
8.7411
20
14.697
0
VERTEX
8
CUT
10
9.45
20
13.537
0
VERTEX
8
CUT
10
9.45
20
8.137
0
VERTEX
8
CUT
10
8.7411
20
6.977
0
SEQEND
0
POLYLINE
8
CUT
66
1
70
0
0
VERTEX
8
CUT
10
10.8589
20
14.697
0
VERTEX
8
CUT
10
10.15
20
13.537
0
VERTEX
8
CUT
10
10.15
20
8.137
0
VERTEX
8
CUT
10
10.8589
20
6.977
0
SEQEND
0
POLYLINE
8
CUT
66
1
70
0
0
VERTEX
8
CUT
10
11.6411
20
14.697
0
VERTEX
8
CUT
10
12.35
20
13.537
0
VERTEX
8
CUT
10
12.35
20
8.137
0
VERTEX
8
CUT
10
11.6411
20
6.977
0
SEQEND
0
POLYLINE
8
CUT
66
1
70
0
0
VERTEX
8
CUT
10
13.7589
20
14.697
0
VERTEX
8
CUT
10
13.05
20
13.537
0
VERTEX
8
CUT
10
13.05
20
8.137
0
VERTEX
8
CUT
10
13.7589
20
6.977
0
SEQEND
0
POLYLINE
8
CUT
66
1
70
0
0
VERTEX
8
CUT
10
14.5411
20
14.697
0
VERTEX
8
CUT
10
15.25
20
13.537
0
VERTEX
8
CUT
10
15.25
20
8.137
0
VERTEX
8
CUT
10
14.5411
20
6.977
0
SEQEND
0
POLYLINE
8
CUT
66
1
70
0
0
VERTEX
8
CUT
10
16.6589
20
14.697
0
VERTEX
8
CUT
10
15.95
20
13.537
0
VERTEX
8
CUT
10
15.95
20
8.137
0
VERTEX
8
CUT
10
16.6589
20
6.977
0
SEQEND
0
POLYLINE
8
CUT
66
1
70
0
0
VERTEX
8
CUT
10
17.4411
20
14.697
0
VERTEX
8
CUT
10
18.15
20
13.537
0
VERTEX
8
CUT
10
18.15
20
8.137
0
VERTEX
8
CUT
10
17.4411
20
6.977
0
SEQEND
0
POLYLINE
8
CUT
66
1
70
0
0
VERTEX
8
CUT
10
19.5589
20
14.697
0
VERTEX
8
CUT
10
18.85
20
13.537
0
VERTEX
8
CUT
10
18.85
20
8.137
0
VERTEX
8
CUT
10
19.5589
20
6.977
0
SEQEND
0
POLYLINE
8
CUT
66
1
70
0
0
VERTEX
8
CUT
10
20.3411
20
14.697
0
VERTEX
8
CUT
10
21.05
20
13.537
0
VERTEX
8
CUT
10
21.05
20
8.137
0
VERTEX
8
CUT
10
20.3411
20
6.977
0
SEQEND
0
POLYLINE
8
CUT
66
1
70
0
0
VERTEX
8
CUT
10
22.4589
20
14.697
0
VERTEX
8
CUT
10
21.75
20
13.537
0
VERTEX
8
CUT
10
21.75
20
8.137
0
VERTEX
8
CUT
10
22.4589
20
6.977
0
SEQEND
0
POLYLINE
8
CUT
66
1
70
0
0
VERTEX
8
CUT
10
23.2411
20
14.697
0
VERTEX
8
CUT
10
23.95
20
13.537
0
VERTEX
8
CUT
10
23.95
20
8.137
0
VERTEX
8
CUT
10
23.2411
20
6.977
0
SEQEND
0
POLYLINE
8
CUT
66
1
70
0
0
VERTEX
8
CUT
10
25.3589
20
14.697
0
VERTEX
8
CUT
10
24.65
20
13.537
0
VERTEX
8
CUT
10
24.65
20
8.137
0
VERTEX
8
CUT
10
25.3589
20
6.977
0
SEQEND
0
POLYLINE
8
CUT
66
1
70
0
0
VERTEX
8
CUT
10
26.1411
20
14.697
0
VERTEX
8
CUT
10
26.85
20
13.537
0
VERTEX
8
CUT
10
26.85
20
8.137
0
VERTEX
8
CUT
10
26.1411
20
6.977
0
SEQEND
0
POLYLINE
8
CUT
66
1
70
0
0
VERTEX
8
CUT
10
28.2589
20
14.697
0
VERTEX
8
CUT
10
27.55
20
13.537
0
VERTEX
8
CUT
10
27.55
20
8.137
0
VERTEX
8
CUT
10
28.2589
20
6.977
0
SEQEND
0
POLYLINE
8
CUT
66
1
70
0
0
VERTEX
8
CUT
10
29.0411
20
14.697
0
VERTEX
8
CUT
10
29.75
20
13.537
0
VERTEX
8
CUT
10
29.75
20
8.137
0
VERTEX
8
CUT
10
29.0411
20
6.977
0
SEQEND
0
POLYLINE
8
CUT
66
1
70
0
0
VERTEX
8
CUT
10
31.1589
20
14.697
0
VERTEX
8
CUT
10
30.45
20
13.537
0
VERTEX
8
CUT
10
30.45
20
8.137
0
VERTEX
8
CUT
10
31.1589
20
6.977
0
SEQEND
0
POLYLINE
8
CUT
66
1
70
0
0
VERTEX
8
CUT
10
31.9411
20
14.697
0
VERTEX
8
CUT
10
32.65
20
13.537
0
VERTEX
8
CUT
10
32.65
20
8.137
0
VERTEX
8
CUT
10
31.9411
20
6.977
0
SEQEND
0
POLYLINE
8
CUT
66
1
70
0
0
VERTEX
8
CUT
10
34.0589
20
14.697
0
VERTEX
8
CUT
10
33.35
20
13.537
0
VERTEX
8
CUT
10
33.35
20
8.137
0
VERTEX
8
CUT
10
34.0589
20
6.977
0
SEQEND
0
POLYLINE
8
CUT
66
1
70
0
0
VERTEX
8
CUT
10
34.8411
20
14.697
0
VERTEX
8
CUT
10
35.55
20
13.537
0
VERTEX
8
CUT
10
35.55
20
8.137
0
VERTEX
8
CUT
10
34.8411
20
6.977
0
SEQEND
0
POLYLINE
8
CUT
66
1
70
0
0
VERTEX
8
CUT
10
36.9589
20
14.697
0
VERTEX
8
CUT
10
36.25
20
13.537
0
VERTEX
8
CUT
10
36.25
20
8.137
0
VERTEX
8
CUT
10
36.9589
20
6.977
0
SEQEND
0
POLYLINE
8
CUT
66
1
70
0
0
VERTEX
8
CUT
10
37.7411
20
14.697
0
VERTEX
8
CUT
10
38.45
20
13.537
0
VERTEX
8
CUT
10
38.45
20
8.137
0
VERTEX
8
CUT
10
37.7411
20
6.977
0
SEQEND
0
POLYLINE
8
CUT
66
1
70
0
0
VERTEX
8
CUT
10
39.8589
20
14.697
0
VERTEX
8
CUT
10
39.15
20
13.537
0
VERTEX
8
CUT
10
39.15
20
8.137
0
VERTEX
8
CUT
10
39.8589
20
6.977
0
SEQEND
0
POLYLINE
8
CUT
66
1
70
0
0
VERTEX
8
CUT
10
40.6411
20
14.697
0
VERTEX
8
CUT
10
41.35
20
13.537
0
VERTEX
8
CUT
10
41.35
20
8.137
0
VERTEX
8
CUT
10
40.6411
20
6.977
0
SEQEND
0
POLYLINE
8
CUT
66
1
70
0
0
VERTEX
8
CUT
10
42.7589
20
14.697
0
VERTEX
8
CUT
10
42.05
20
13.537
0
VERTEX
8
CUT
10
42.05
20
8.137
0
VERTEX
8
CUT
10
42.7589
20
6.977
0
SEQEND
0
POLYLINE
8
CUT
66
1
70
0
0
VERTEX
8
CUT
10
43.5411
20
14.697
0
VERTEX
8
CUT
10
44.25
20
13.537
0
VERTEX
8
CUT
10
44.25
20
8.137
0
VERTEX
8
CUT
10
43.5411
20
6.977
0
SEQEND
0
POLYLINE
8
CUT
66
1
70
0
0
VERTEX
8
CUT
10
45.6589
20
14.697
0
VERTEX
8
CUT
10
44.95
20
13.537
0
VERTEX
8
CUT
10
44.95
20
8.137
0
VERTEX
8
CUT
10
45.6589
20
6.977
0
SEQEND
0
POLYLINE
8
CUT
66
1
70
0
0
VERTEX
8
CUT
10
46.4411
20
14.697
0
VERTEX
8
CUT
10
47.15
20
13.537
0
VERTEX
8
CUT
10
47.15
20
8.137
0
VERTEX
8
CUT
10
46.4411
20
6.977
0
SEQEND
0
POLYLINE
8
CUT
66
1
70
0
0
VERTEX
8
CUT
10
48.5589
20
14.697
0
VERTEX
8
CUT
10
47.85
20
13.537
0
VERTEX
8
CUT
10
47.85
20
8.137
0
VERTEX
8
CUT
10
48.5589
20
6.977
0
SEQEND
0
POLYLINE
8
CUT
66
1
70
0
0
VERTEX
8
CUT
10
49.3411
20
14.697
0
VERTEX
8
CUT
10
50.05
20
13.537
0
VERTEX
8
CUT
10
50.05
20
8.137
0
VERTEX
8
CUT
10
49.3411
20
6.977
0
SEQEND
0
POLYLINE
8
CUT
66
1
70
0
0
VERTEX
8
CUT
10
51.4589
20
14.697
0
VERTEX
8
CUT
10
50.75
20
13.537
0
VERTEX
8
CUT
10
50.75
20
8.137
0
VERTEX
8
CUT
10
51.4589
20
6.977
0
SEQEND
0
POLYLINE
8
CUT
66
1
70
0
0
VERTEX
8
CUT
10
52.2411
20
14.697
0
VERTEX
8
CUT
10
52.95
20
13.537
0
VERTEX
8
CUT
10
52.95
20
8.137
0
VERTEX
8
CUT
10
52.2411
20
6.977
0
SEQEND
0
POLYLINE
8
CUT
66
1
70
0
0
VERTEX
8
CUT
10
54.3589
20
14.697
0
VERTEX
8
CUT
10
53.65
20
13.537
0
VERTEX
8
CUT
10
53.65
20
8.137
0
VERTEX
8
CUT
10
54.3589
20
6.977
0
SEQEND
0
POLYLINE
8
CUT
66
1
70
0
0
VERTEX
8
CUT
10
55.1411
20
14.697
0
VERTEX
8
CUT
10
55.85
20
13.537
0
VERTEX
8
CUT
10
55.85
20
8.137
0
VERTEX
8
CUT
10
55.1411
20
6.977
0
SEQEND
0
POLYLINE
8
CUT
66
1
70
0
0
VERTEX
8
CUT
10
57.2589
20
14.697
0
VERTEX
8
CUT
10
56.55
20
13.537
0
VERTEX
8
CUT
10
56.55
20
8.137
0
VERTEX
8
CUT
10
57.2589
20
6.977
0
SEQEND
0
POLYLINE
8
CUT
66
1
70
0
0
VERTEX
8
CUT
10
58.0411
20
14.697
0
VERTEX
8
CUT
10
58.75
20
13.537
0
VERTEX
8
CUT
10
58.75
20
8.137
0
VERTEX
8
CUT
10
58.0411
20
6.977
0
SEQEND
0
POLYLINE
8
CUT
66
1
70
0
0
VERTEX
8
CUT
10
60.1589
20
14.697
0
VERTEX
8
CUT
10
59.45
20
13.537
0
VERTEX
8
CUT
10
59.45
20
8.137
0
VERTEX
8
CUT
10
60.1589
20
6.977
0
SEQEND
0
POLYLINE
8
CUT
66
1
70
0
0
VERTEX
8
CUT
10
60.9411
20
14.697
0
VERTEX
8
CUT
10
61.65
20
13.537
0
VERTEX
8
CUT
10
61.65
20
8.137
0
VERTEX
8
CUT
10
60.9411
20
6.977
0
SEQEND
0
POLYLINE
8
CUT
66
1
70
0
0
VERTEX
8
CUT
10
63.0589
20
14.697
0
VERTEX
8
CUT
10
62.35
20
13.537
0
VERTEX
8
CUT
10
62.35
20
8.137
0
VERTEX
8
CUT
10
63.0589
20
6.977
0
SEQEND
0
POLYLINE
8
CUT
66
1
70
0
0
VERTEX
8
CUT
10
63.8411
20
14.697
0
VERTEX
8
CUT
10
64.55
20
13.537
0
VERTEX
8
CUT
10
64.55
20
8.137
0
VERTEX
8
CUT
10
63.8411
20
6.977
0
SEQEND
0
POLYLINE
8
CUT
66
1
70
0
0
VERTEX
8
CUT
10
65.9589
20
14.697
0
VERTEX
8
CUT
10
65.25
20
13.537
0
VERTEX
8
CUT
10
65.25
20
8.137
0
VERTEX
8
CUT
10
65.9589
20
6.977
0
SEQEND
0
POLYLINE
8
CUT
66
1
70
0
0
VERTEX
8
CUT
10
66.7411
20
14.697
0
VERTEX
8
CUT
10
67.45
20
13.537
0
VERTEX
8
CUT
10
67.45
20
8.137
0
VERTEX
8
CUT
10
66.7411
20
6.977
0
SEQEND
0
POLYLINE
8
CUT
66
1
70
0
0
VERTEX
8
CUT
10
68.8589
20
14.697
0
VERTEX
8
CUT
10
68.15
20
13.537
0
VERTEX
8
CUT
10
68.15
20
8.137
0
VERTEX
8
CUT
10
68.8589
20
6.977
0
SEQEND
0
POLYLINE
8
CUT
66
1
70
0
0
VERTEX
8
CUT
10
69.6411
20
14.697
0
VERTEX
8
CUT
10
70.35
20
13.537
0
VERTEX
8
CUT
10
70.35
20
8.137
0
VERTEX
8
CUT
10
69.6411
20
6.977
0
SEQEND
0
POLYLINE
8
CUT
66
1
70
0
0
VERTEX
8
CUT
10
71.7589
20
14.697
0
VERTEX
8
CUT
10
71.05
20
13.537
0
VERTEX
8
CUT
10
71.05
20
8.137
0
VERTEX
8
CUT
10
71.7589
20
6.977
0
SEQEND
0
POLYLINE
8
CUT
66
1
70
0
0
VERTEX
8
CUT
10
72.5411
20
14.697
0
VERTEX
8
CUT
10
73.25
20
13.537
0
VERTEX
8
CUT
10
73.25
20
8.137
0
VERTEX
8
CUT
10
72.5411
20
6.977
0
SEQEND
0
POLYLINE
8
CUT
66
1
70
0
0
VERTEX
8
CUT
10
74.6589
20
14.697
0
VERTEX
8
CUT
10
73.95
20
13.537
0
VERTEX
8
CUT
10
73.95
20
8.137
0
VERTEX
8
CUT
10
74.6589
20
6.977
0
SEQEND
0
POLYLINE
8
CUT
66
1
70
0
0
VERTEX
8
CUT
10
75.4411
20
14.697
0
VERTEX
8
CUT
10
76.15
20
13.537
0
VERTEX
8
CUT
10
76.15
20
8.137
0
VERTEX
8
CUT
10
75.4411
20
6.977
0
SEQEND
0
POLYLINE
8
CUT
66
1
70
0
0
VERTEX
8
CUT
10
77.5589
20
14.697
0
VERTEX
8
CUT
10
76.85
20
13.537
0
VERTEX
8
CUT
10
76.85
20
8.137
0
VERTEX
8
CUT
10
77.5589
20
6.977
0
SEQEND
0
POLYLINE
8
CUT
66
1
70
0
0
VERTEX
8
CUT
10
78.3411
20
14.697
0
VERTEX
8
CUT
10
79.05
20
13.537
0
VERTEX
8
CUT
10
79.05
20
8.137
0
VERTEX
8
CUT
10
78.3411
20
6.977
0
SEQEND
0
POLYLINE
8
CUT
66
1
70
0
0
VERTEX
8
CUT
10
80.4589
20
14.697
0
VERTEX
8
CUT
10
79.75
20
13.537
0
VERTEX
8
CUT
10
79.75
20
8.137
0
VERTEX
8
CUT
10
80.4589
20
6.977
0
SEQEND
0
POLYLINE
8
CUT
66
1
70
0
0
VERTEX
8
CUT
10
81.2411
20
14.697
0
VERTEX
8
CUT
10
81.95
20
13.537
0
VERTEX
8
CUT
10
81.95
20
8.137
0
VERTEX
8
CUT
10
81.2411
20
6.977
0
SEQEND
0
POLYLINE
8
CUT
66
1
70
0
0
VERTEX
8
CUT
10
83.3589
20
14.697
0
VERTEX
8
CUT
10
82.65
20
13.537
0
VERTEX
8
CUT
10
82.65
20
8.137
0
VERTEX
8
CUT
10
83.3589
20
6.977
0
SEQEND
0
POLYLINE
8
CUT
66
1
70
0
0
VERTEX
8
CUT
10
84.1411
20
14.697
0
VERTEX
8
CUT
10
84.85
20
13.537
0
VERTEX
8
CUT
10
84.85
20
8.137
0
VERTEX
8
CUT
10
84.1411
20
6.977
0
SEQEND
0
POLYLINE
8
CUT
66
1
70
0
0
VERTEX
8
CUT
10
86.2589
20
14.697
0
VERTEX
8
CUT
10
85.55
20
13.537
0
VERTEX
8
CUT
10
85.55
20
8.137
0
VERTEX
8
CUT
10
86.2589
20
6.977
0
SEQEND
0
POLYLINE
8
CUT
66
1
70
0
0
VERTEX
8
CUT
10
87.0411
20
14.697
0
VERTEX
8
CUT
10
87.75
20
13.537
0
VERTEX
8
CUT
10
87.75
20
8.137
0
VERTEX
8
CUT
10
87.0411
20
6.977
0
SEQEND
0
POLYLINE
8
CUT
66
1
70
0
0
VERTEX
8
CUT
10
89.1589
20
14.697
0
VERTEX
8
CUT
10
88.45
20
13.537
0
VERTEX
8
CUT
10
88.45
20
8.137
0
VERTEX
8
CUT
10
89.1589
20
6.977
0
SEQEND
0
POLYLINE
8
CUT
66
1
70
0
0
VERTEX
8
CUT
10
89.9411
20
14.697
0
VERTEX
8
CUT
10
90.65
20
13.537
0
VERTEX
8
CUT
10
90.65
20
8.137
0
VERTEX
8
CUT
10
89.9411
20
6.977
0
SEQEND
0
POLYLINE
8
CUT
66
1
70
0
0
VERTEX
8
CUT
10
92.0589
20
14.697
0
VERTEX
8
CUT
10
91.35
20
13.537
0
VERTEX
8
CUT
10
91.35
20
8.137
0
VERTEX
8
CUT
10
92.0589
20
6.977
0
SEQEND
0
POLYLINE
8
CUT
66
1
70
0
0
VERTEX
8
CUT
10
92.8411
20
14.697
0
VERTEX
8
CUT
10
93.55
20
13.537
0
VERTEX
8
CUT
10
93.55
20
8.137
0
VERTEX
8
CUT
10
92.8411
20
6.977
0
SEQEND
0
POLYLINE
8
CUT
66
1
70
0
0
VERTEX
8
CUT
10
94.9589
20
14.697
0
VERTEX
8
CUT
10
94.25
20
13.537
0
VERTEX
8
CUT
10
94.25
20
8.137
0
VERTEX
8
CUT
10
94.9589
20
6.977
0
SEQEND
0
POLYLINE
8
CUT
66
1
70
0
0
VERTEX
8
CUT
10
95.7411
20
14.697
0
VERTEX
8
CUT
10
96.45
20
13.537
0
VERTEX
8
CUT
10
96.45
20
8.137
0
VERTEX
8
CUT
10
95.7411
20
6.977
0
SEQEND
0
POLYLINE
8
CUT
66
1
70
0
0
VERTEX
8
CUT
10
97.8589
20
14.697
0
VERTEX
8
CUT
10
97.15
20
13.537
0
VERTEX
8
CUT
10
97.15
20
8.137
0
VERTEX
8
CUT
10
97.8589
20
6.977
0
SEQEND
0
POLYLINE
8
CUT
66
1
70
0
0
VERTEX
8
CUT
10
98.6411
20
14.697
0
VERTEX
8
CUT
10
99.35
20
13.537
0
VERTEX
8
CUT
10
99.35
20
8.137
0
VERTEX
8
CUT
10
98.6411
20
6.977
0
SEQEND
0
POLYLINE
8
CUT
66
1
70
0
0
VERTEX
8
CUT
10
100.7589
20
14.697
0
VERTEX
8
CUT
10
100.05
20
13.537
0
VERTEX
8
CUT
10
100.05
20
8.137
0
VERTEX
8
CUT
10
100.7589
20
6.977
0
SEQEND
0
POLYLINE
8
CUT
66
1
70
0
0
VERTEX
8
CUT
10
101.5411
20
14.697
0
VERTEX
8
CUT
10
102.25
20
13.537
0
VERTEX
8
CUT
10
102.25
20
8.137
0
VERTEX
8
CUT
10
101.5411
20
6.977
0
SEQEND
0
POLYLINE
8
CUT
66
1
70
0
0
VERTEX
8
CUT
10
103.6589
20
14.697
0
VERTEX
8
CUT
10
102.95
20
13.537
0
VERTEX
8
CUT
10
102.95
20
8.137
0
VERTEX
8
CUT
10
103.6589
20
6.977
0
SEQEND
0
POLYLINE
8
CUT
66
1
70
0
0
VERTEX
8
CUT
10
104.4411
20
14.697
0
VERTEX
8
CUT
10
105.15
20
13.537
0
VERTEX
8
CUT
10
105.15
20
8.137
0
VERTEX
8
CUT
10
104.4411
20
6.977
0
SEQEND
0
POLYLINE
8
CUT
66
1
70
0
0
VERTEX
8
CUT
10
106.5589
20
14.697
0
VERTEX
8
CUT
10
105.85
20
13.537
0
VERTEX
8
CUT
10
105.85
20
8.137
0
VERTEX
8
CUT
10
106.5589
20
6.977
0
SEQEND
0
POLYLINE
8
CUT
66
1
70
0
0
VERTEX
8
CUT
10
107.3411
20
14.697
0
VERTEX
8
CUT
10
108.05
20
13.537
0
VERTEX
8
CUT
10
108.05
20
8.137
0
VERTEX
8
CUT
10
107.3411
20
6.977
0
SEQEND
0
POLYLINE
8
CUT
66
1
70
0
0
VERTEX
8
CUT
10
109.4589
20
14.697
0
VERTEX
8
CUT
10
108.75
20
13.537
0
VERTEX
8
CUT
10
108.75
20
8.137
0
VERTEX
8
CUT
10
109.4589
20
6.977
0
SEQEND
0
POLYLINE
8
CUT
66
1
70
0
0
VERTEX
8
CUT
10
110.2411
20
14.697
0
VERTEX
8
CUT
10
110.95
20
13.537
0
VERTEX
8
CUT
10
110.95
20
8.137
0
VERTEX
8
CUT
10
110.2411
20
6.977
0
SEQEND
0
POLYLINE
8
CUT
66
1
70
0
0
VERTEX
8
CUT
10
112.3589
20
14.697
0
VERTEX
8
CUT
10
111.65
20
13.537
0
VERTEX
8
CUT
10
111.65
20
8.137
0
VERTEX
8
CUT
10
112.3589
20
6.977
0
SEQEND
0
POLYLINE
8
CUT
66
1
70
0
0
VERTEX
8
CUT
10
113.1411
20
14.697
0
VERTEX
8
CUT
10
113.85
20
13.537
0
VERTEX
8
CUT
10
113.85
20
8.137
0
VERTEX
8
CUT
10
113.1411
20
6.977
0
SEQEND
0
POLYLINE
8
CUT
66
1
70
0
0
VERTEX
8
CUT
10
115.2589
20
14.697
0
VERTEX
8
CUT
10
114.55
20
13.537
0
VERTEX
8
CUT
10
114.55
20
8.137
0
VERTEX
8
CUT
10
115.2589
20
6.977
0
SEQEND
0
POLYLINE
8
CUT
66
1
70
0
0
VERTEX
8
CUT
10
116.0411
20
14.697
0
VERTEX
8
CUT
10
116.75
20
13.537
0
VERTEX
8
CUT
10
116.75
20
8.137
0
VERTEX
8
CUT
10
116.0411
20
6.977
0
SEQEND
0
POLYLINE
8
CUT
66
1
70
0
0
VERTEX
8
CUT
10
118.1589
20
14.697
0
VERTEX
8
CUT
10
117.45
20
13.537
0
VERTEX
8
CUT
10
117.45
20
8.137
0
VERTEX
8
CUT
10
118.1589
20
6.977
0
SEQEND
0
POLYLINE
8
CUT
66
1
70
0
0
VERTEX
8
CUT
10
118.9411
20
14.697
0
VERTEX
8
CUT
10
119.65
20
13.537
0
VERTEX
8
CUT
10
119.65
20
8.137
0
VERTEX
8
CUT
10
118.9411
20
6.977
0
SEQEND
0
POLYLINE
8
CUT
66
1
70
0
0
VERTEX
8
CUT
10
0.7089
20
6.888
0
VERTEX
8
CUT
10
0
20
5.728
0
VERTEX
8
CUT
10
0
20
0.328
0
VERTEX
8
CUT
10
0.2004
20
0
0
SEQEND
0
POLYLINE
8
CUT
66
1
70
0
0
VERTEX
8
CUT
10
1.4911
20
6.888
0
VERTEX
8
CUT
10
2.2
20
5.728
0
VERTEX
8
CUT
10
2.2
20
0.328
0
VERTEX
8
CUT
10
1.9996
20
0
0
SEQEND
0
POLYLINE
8
CUT
66
1
70
0
0
VERTEX
8
CUT
10
3.6089
20
6.888
0
VERTEX
8
CUT
10
2.9
20
5.728
0
VERTEX
8
CUT
10
2.9
20
0.328
0
VERTEX
8
CUT
10
3.1004
20
0
0
SEQEND
0
POLYLINE
8
CUT
66
1
70
0
0
VERTEX
8
CUT
10
4.3911
20
6.888
0
VERTEX
8
CUT
10
5.1
20
5.728
0
VERTEX
8
CUT
10
5.1
20
0.328
0
VERTEX
8
CUT
10
4.8996
20
0
0
SEQEND
0
POLYLINE
8
CUT
66
1
70
0
0
VERTEX
8
CUT
10
6.5089
20
6.888
0
VERTEX
8
CUT
10
5.8
20
5.728
0
VERTEX
8
CUT
10
5.8
20
0.328
0
VERTEX
8
CUT
10
6.0004
20
0
0
SEQEND
0
POLYLINE
8
CUT
66
1
70
0
0
VERTEX
8
CUT
10
7.2911
20
6.888
0
VERTEX
8
CUT
10
8
20
5.728
0
VERTEX
8
CUT
10
8
20
0.328
0
VERTEX
8
CUT
10
7.7996
20
0
0
SEQEND
0
POLYLINE
8
CUT
66
1
70
0
0
VERTEX
8
CUT
10
9.4089
20
6.888
0
VERTEX
8
CUT
10
8.7
20
5.728
0
VERTEX
8
CUT
10
8.7
20
0.328
0
VERTEX
8
CUT
10
8.9004
20
0
0
SEQEND
0
POLYLINE
8
CUT
66
1
70
0
0
VERTEX
8
CUT
10
10.1911
20
6.888
0
VERTEX
8
CUT
10
10.9
20
5.728
0
VERTEX
8
CUT
10
10.9
20
0.328
0
VERTEX
8
CUT
10
10.6996
20
0
0
SEQEND
0
POLYLINE
8
CUT
66
1
70
0
0
VERTEX
8
CUT
10
12.3089
20
6.888
0
VERTEX
8
CUT
10
11.6
20
5.728
0
VERTEX
8
CUT
10
11.6
20
0.328
0
VERTEX
8
CUT
10
11.8004
20
0
0
SEQEND
0
POLYLINE
8
CUT
66
1
70
0
0
VERTEX
8
CUT
10
13.0911
20
6.888
0
VERTEX
8
CUT
10
13.8
20
5.728
0
VERTEX
8
CUT
10
13.8
20
0.328
0
VERTEX
8
CUT
10
13.5996
20
0
0
SEQEND
0
POLYLINE
8
CUT
66
1
70
0
0
VERTEX
8
CUT
10
15.2089
20
6.888
0
VERTEX
8
CUT
10
14.5
20
5.728
0
VERTEX
8
CUT
10
14.5
20
0.328
0
VERTEX
8
CUT
10
14.7004
20
0
0
SEQEND
0
POLYLINE
8
CUT
66
1
70
0
0
VERTEX
8
CUT
10
15.9911
20
6.888
0
VERTEX
8
CUT
10
16.7
20
5.728
0
VERTEX
8
CUT
10
16.7
20
0.328
0
VERTEX
8
CUT
10
16.4996
20
0
0
SEQEND
0
POLYLINE
8
CUT
66
1
70
0
0
VERTEX
8
CUT
10
18.1089
20
6.888
0
VERTEX
8
CUT
10
17.4
20
5.728
0
VERTEX
8
CUT
10
17.4
20
0.328
0
VERTEX
8
CUT
10
17.6004
20
0
0
SEQEND
0
POLYLINE
8
CUT
66
1
70
0
0
VERTEX
8
CUT
10
18.8911
20
6.888
0
VERTEX
8
CUT
10
19.6
20
5.728
0
VERTEX
8
CUT
10
19.6
20
0.328
0
VERTEX
8
CUT
10
19.3996
20
0
0
SEQEND
0
POLYLINE
8
CUT
66
1
70
0
0
VERTEX
8
CUT
10
21.0089
20
6.888
0
VERTEX
8
CUT
10
20.3
20
5.728
0
VERTEX
8
CUT
10
20.3
20
0.328
0
VERTEX
8
CUT
10
20.5004
20
0
0
SEQEND
0
POLYLINE
8
CUT
66
1
70
0
0
VERTEX
8
CUT
10
21.7911
20
6.888
0
VERTEX
8
CUT
10
22.5
20
5.728
0
VERTEX
8
CUT
10
22.5
20
0.328
0
VERTEX
8
CUT
10
22.2996
20
0
0
SEQEND
0
POLYLINE
8
CUT
66
1
70
0
0
VERTEX
8
CUT
10
23.9089
20
6.888
0
VERTEX
8
CUT
10
23.2
20
5.728
0
VERTEX
8
CUT
10
23.2
20
0.328
0
VERTEX
8
CUT
10
23.4004
20
0
0
SEQEND
0
POLYLINE
8
CUT
66
1
70
0
0
VERTEX
8
CUT
10
24.6911
20
6.888
0
VERTEX
8
CUT
10
25.4
20
5.728
0
VERTEX
8
CUT
10
25.4
20
0.328
0
VERTEX
8
CUT
10
25.1996
20
0
0
SEQEND
0
POLYLINE
8
CUT
66
1
70
0
0
VERTEX
8
CUT
10
26.8089
20
6.888
0
VERTEX
8
CUT
10
26.1
20
5.728
0
VERTEX
8
CUT
10
26.1
20
0.328
0
VERTEX
8
CUT
10
26.3004
20
0
0
SEQEND
0
POLYLINE
8
CUT
66
1
70
0
0
VERTEX
8
CUT
10
27.5911
20
6.888
0
VERTEX
8
CUT
10
28.3
20
5.728
0
VERTEX
8
CUT
10
28.3
20
0.328
0
VERTEX
8
CUT
10
28.0996
20
0
0
SEQEND
0
POLYLINE
8
CUT
66
1
70
0
0
VERTEX
8
CUT
10
29.7089
20
6.888
0
VERTEX
8
CUT
10
29
20
5.728
0
VERTEX
8
CUT
10
29
20
0.328
0
VERTEX
8
CUT
10
29.2004
20
0
0
SEQEND
0
POLYLINE
8
CUT
66
1
70
0
0
VERTEX
8
CUT
10
30.4911
20
6.888
0
VERTEX
8
CUT
10
31.2
20
5.728
0
VERTEX
8
CUT
10
31.2
20
0.328
0
VERTEX
8
CUT
10
30.9996
20
0
0
SEQEND
0
POLYLINE
8
CUT
66
1
70
0
0
VERTEX
8
CUT
10
32.6089
20
6.888
0
VERTEX
8
CUT
10
31.9
20
5.728
0
VERTEX
8
CUT
10
31.9
20
0.328
0
VERTEX
8
CUT
10
32.1004
20
0
0
SEQEND
0
POLYLINE
8
CUT
66
1
70
0
0
VERTEX
8
CUT
10
33.3911
20
6.888
0
VERTEX
8
CUT
10
34.1
20
5.728
0
VERTEX
8
CUT
10
34.1
20
0.328
0
VERTEX
8
CUT
10
33.8996
20
0
0
SEQEND
0
POLYLINE
8
CUT
66
1
70
0
0
VERTEX
8
CUT
10
35.5089
20
6.888
0
VERTEX
8
CUT
10
34.8
20
5.728
0
VERTEX
8
CUT
10
34.8
20
0.328
0
VERTEX
8
CUT
10
35.0004
20
0
0
SEQEND
0
POLYLINE
8
CUT
66
1
70
0
0
VERTEX
8
CUT
10
36.2911
20
6.888
0
VERTEX
8
CUT
10
37
20
5.728
0
VERTEX
8
CUT
10
37
20
0.328
0
VERTEX
8
CUT
10
36.7996
20
0
0
SEQEND
0
POLYLINE
8
CUT
66
1
70
0
0
VERTEX
8
CUT
10
38.4089
20
6.888
0
VERTEX
8
CUT
10
37.7
20
5.728
0
VERTEX
8
CUT
10
37.7
20
0.328
0
VERTEX
8
CUT
10
37.9004
20
0
0
SEQEND
0
POLYLINE
8
CUT
66
1
70
0
0
VERTEX
8
CUT
10
39.1911
20
6.888
0
VERTEX
8
CUT
10
39.9
20
5.728
0
VERTEX
8
CUT
10
39.9
20
0.328
0
VERTEX
8
CUT
10
39.6996
20
0
0
SEQEND
0
POLYLINE
8
CUT
66
1
70
0
0
VERTEX
8
CUT
10
41.3089
20
6.888
0
VERTEX
8
CUT
10
40.6
20
5.728
0
VERTEX
8
CUT
10
40.6
20
0.328
0
VERTEX
8
CUT
10
40.8004
20
0
0
SEQEND
0
POLYLINE
8
CUT
66
1
70
0
0
VERTEX
8
CUT
10
42.0911
20
6.888
0
VERTEX
8
CUT
10
42.8
20
5.728
0
VERTEX
8
CUT
10
42.8
20
0.328
0
VERTEX
8
CUT
10
42.5996
20
0
0
SEQEND
0
POLYLINE
8
CUT
66
1
70
0
0
VERTEX
8
CUT
10
44.2089
20
6.888
0
VERTEX
8
CUT
10
43.5
20
5.728
0
VERTEX
8
CUT
10
43.5
20
0.328
0
VERTEX
8
CUT
10
43.7004
20
0
0
SEQEND
0
POLYLINE
8
CUT
66
1
70
0
0
VERTEX
8
CUT
10
44.9911
20
6.888
0
VERTEX
8
CUT
10
45.7
20
5.728
0
VERTEX
8
CUT
10
45.7
20
0.328
0
VERTEX
8
CUT
10
45.4996
20
0
0
SEQEND
0
POLYLINE
8
CUT
66
1
70
0
0
VERTEX
8
CUT
10
47.1089
20
6.888
0
VERTEX
8
CUT
10
46.4
20
5.728
0
VERTEX
8
CUT
10
46.4
20
0.328
0
VERTEX
8
CUT
10
46.6004
20
0
0
SEQEND
0
POLYLINE
8
CUT
66
1
70
0
0
VERTEX
8
CUT
10
47.8911
20
6.888
0
VERTEX
8
CUT
10
48.6
20
5.728
0
VERTEX
8
CUT
10
48.6
20
0.328
0
VERTEX
8
CUT
10
48.3996
20
0
0
SEQEND
0
POLYLINE
8
CUT
66
1
70
0
0
VERTEX
8
CUT
10
50.0089
20
6.888
0
VERTEX
8
CUT
10
49.3
20
5.728
0
VERTEX
8
CUT
10
49.3
20
0.328
0
VERTEX
8
CUT
10
49.5004
20
0
0
SEQEND
0
POLYLINE
8
CUT
66
1
70
0
0
VERTEX
8
CUT
10
50.7911
20
6.888
0
VERTEX
8
CUT
10
51.5
20
5.728
0
VERTEX
8
CUT
10
51.5
20
0.328
0
VERTEX
8
CUT
10
51.2996
20
0
0
SEQEND
0
POLYLINE
8
CUT
66
1
70
0
0
VERTEX
8
CUT
10
52.9089
20
6.888
0
VERTEX
8
CUT
10
52.2
20
5.728
0
VERTEX
8
CUT
10
52.2
20
0.328
0
VERTEX
8
CUT
10
52.4004
20
0
0
SEQEND
0
POLYLINE
8
CUT
66
1
70
0
0
VERTEX
8
CUT
10
53.6911
20
6.888
0
VERTEX
8
CUT
10
54.4
20
5.728
0
VERTEX
8
CUT
10
54.4
20
0.328
0
VERTEX
8
CUT
10
54.1996
20
0
0
SEQEND
0
POLYLINE
8
CUT
66
1
70
0
0
VERTEX
8
CUT
10
55.8089
20
6.888
0
VERTEX
8
CUT
10
55.1
20
5.728
0
VERTEX
8
CUT
10
55.1
20
0.328
0
VERTEX
8
CUT
10
55.3004
20
0
0
SEQEND
0
POLYLINE
8
CUT
66
1
70
0
0
VERTEX
8
CUT
10
56.5911
20
6.888
0
VERTEX
8
CUT
10
57.3
20
5.728
0
VERTEX
8
CUT
10
57.3
20
0.328
0
VERTEX
8
CUT
10
57.0996
20
0
0
SEQEND
0
POLYLINE
8
CUT
66
1
70
0
0
VERTEX
8
CUT
10
58.7089
20
6.888
0
VERTEX
8
CUT
10
58
20
5.728
0
VERTEX
8
CUT
10
58
20
0.328
0
VERTEX
8
CUT
10
58.2004
20
0
0
SEQEND
0
POLYLINE
8
CUT
66
1
70
0
0
VERTEX
8
CUT
10
59.4911
20
6.888
0
VERTEX
8
CUT
10
60.2
20
5.728
0
VERTEX
8
CUT
10
60.2
20
0.328
0
VERTEX
8
CUT
10
59.9996
20
0
0
SEQEND
0
POLYLINE
8
CUT
66
1
70
0
0
VERTEX
8
CUT
10
61.6089
20
6.888
0
VERTEX
8
CUT
10
60.9
20
5.728
0
VERTEX
8
CUT
10
60.9
20
0.328
0
VERTEX
8
CUT
10
61.1004
20
0
0
SEQEND
0
POLYLINE
8
CUT
66
1
70
0
0
VERTEX
8
CUT
10
62.3911
20
6.888
0
VERTEX
8
CUT
10
63.1
20
5.728
0
VERTEX
8
CUT
10
63.1
20
0.328
0
VERTEX
8
CUT
10
62.8996
20
0
0
SEQEND
0
POLYLINE
8
CUT
66
1
70
0
0
VERTEX
8
CUT
10
64.5089
20
6.888
0
VERTEX
8
CUT
10
63.8
20
5.728
0
VERTEX
8
CUT
10
63.8
20
0.328
0
VERTEX
8
CUT
10
64.0004
20
0
0
SEQEND
0
POLYLINE
8
CUT
66
1
70
0
0
VERTEX
8
CUT
10
65.2911
20
6.888
0
VERTEX
8
CUT
10
66
20
5.728
0
VERTEX
8
CUT
10
66
20
0.328
0
VERTEX
8
CUT
10
65.7996
20
0
0
SEQEND
0
POLYLINE
8
CUT
66
1
70
0
0
VERTEX
8
CUT
10
67.4089
20
6.888
0
VERTEX
8
CUT
10
66.7
20
5.728
0
VERTEX
8
CUT
10
66.7
20
0.328
0
VERTEX
8
CUT
10
66.9004
20
0
0
SEQEND
0
POLYLINE
8
CUT
66
1
70
0
0
VERTEX
8
CUT
10
68.1911
20
6.888
0
VERTEX
8
CUT
10
68.9
20
5.728
0
VERTEX
8
CUT
10
68.9
20
0.328
0
VERTEX
8
CUT
10
68.6996
20
0
0
SEQEND
0
POLYLINE
8
CUT
66
1
70
0
0
VERTEX
8
CUT
10
70.3089
20
6.888
0
VERTEX
8
CUT
10
69.6
20
5.728
0
VERTEX
8
CUT
10
69.6
20
0.328
0
VERTEX
8
CUT
10
69.8004
20
0
0
SEQEND
0
POLYLINE
8
CUT
66
1
70
0
0
VERTEX
8
CUT
10
71.0911
20
6.888
0
VERTEX
8
CUT
10
71.8
20
5.728
0
VERTEX
8
CUT
10
71.8
20
0.328
0
VERTEX
8
CUT
10
71.5996
20
0
0
SEQEND
0
POLYLINE
8
CUT
66
1
70
0
0
VERTEX
8
CUT
10
73.2089
20
6.888
0
VERTEX
8
CUT
10
72.5
20
5.728
0
VERTEX
8
CUT
10
72.5
20
0.328
0
VERTEX
8
CUT
10
72.7004
20
0
0
SEQEND
0
POLYLINE
8
CUT
66
1
70
0
0
VERTEX
8
CUT
10
73.9911
20
6.888
0
VERTEX
8
CUT
10
74.7
20
5.728
0
VERTEX
8
CUT
10
74.7
20
0.328
0
VERTEX
8
CUT
10
74.4996
20
0
0
SEQEND
0
POLYLINE
8
CUT
66
1
70
0
0
VERTEX
8
CUT
10
76.1089
20
6.888
0
VERTEX
8
CUT
10
75.4
20
5.728
0
VERTEX
8
CUT
10
75.4
20
0.328
0
VERTEX
8
CUT
10
75.6004
20
0
0
SEQEND
0
POLYLINE
8
CUT
66
1
70
0
0
VERTEX
8
CUT
10
76.8911
20
6.888
0
VERTEX
8
CUT
10
77.6
20
5.728
0
VERTEX
8
CUT
10
77.6
20
0.328
0
VERTEX
8
CUT
10
77.3996
20
0
0
SEQEND
0
POLYLINE
8
CUT
66
1
70
0
0
VERTEX
8
CUT
10
79.0089
20
6.888
0
VERTEX
8
CUT
10
78.3
20
5.728
0
VERTEX
8
CUT
10
78.3
20
0.328
0
VERTEX
8
CUT
10
78.5004
20
0
0
SEQEND
0
POLYLINE
8
CUT
66
1
70
0
0
VERTEX
8
CUT
10
79.7911
20
6.888
0
VERTEX
8
CUT
10
80.5
20
5.728
0
VERTEX
8
CUT
10
80.5
20
0.328
0
VERTEX
8
CUT
10
80.2996
20
0
0
SEQEND
0
POLYLINE
8
CUT
66
1
70
0
0
VERTEX
8
CUT
10
81.9089
20
6.888
0
VERTEX
8
CUT
10
81.2
20
5.728
0
VERTEX
8
CUT
10
81.2
20
0.328
0
VERTEX
8
CUT
10
81.4004
20
0
0
SEQEND
0
POLYLINE
8
CUT
66
1
70
0
0
VERTEX
8
CUT
10
82.6911
20
6.888
0
VERTEX
8
CUT
10
83.4
20
5.728
0
VERTEX
8
CUT
10
83.4
20
0.328
0
VERTEX
8
CUT
10
83.1996
20
0
0
SEQEND
0
POLYLINE
8
CUT
66
1
70
0
0
VERTEX
8
CUT
10
84.8089
20
6.888
0
VERTEX
8
CUT
10
84.1
20
5.728
0
VERTEX
8
CUT
10
84.1
20
0.328
0
VERTEX
8
CUT
10
84.3004
20
0
0
SEQEND
0
POLYLINE
8
CUT
66
1
70
0
0
VERTEX
8
CUT
10
85.5911
20
6.888
0
VERTEX
8
CUT
10
86.3
20
5.728
0
VERTEX
8
CUT
10
86.3
20
0.328
0
VERTEX
8
CUT
10
86.0996
20
0
0
SEQEND
0
POLYLINE
8
CUT
66
1
70
0
0
VERTEX
8
CUT
10
87.7089
20
6.888
0
VERTEX
8
CUT
10
87
20
5.728
0
VERTEX
8
CUT
10
87
20
0.328
0
VERTEX
8
CUT
10
87.2004
20
0
0
SEQEND
0
POLYLINE
8
CUT
66
1
70
0
0
VERTEX
8
CUT
10
88.4911
20
6.888
0
VERTEX
8
CUT
10
89.2
20
5.728
0
VERTEX
8
CUT
10
89.2
20
0.328
0
VERTEX
8
CUT
10
88.9996
20
0
0
SEQEND
0
POLYLINE
8
CUT
66
1
70
0
0
VERTEX
8
CUT
10
90.6089
20
6.888
0
VERTEX
8
CUT
10
89.9
20
5.728
0
VERTEX
8
CUT
10
89.9
20
0.328
0
VERTEX
8
CUT
10
90.1004
20
0
0
SEQEND
0
POLYLINE
8
CUT
66
1
70
0
0
VERTEX
8
CUT
10
91.3911
20
6.888
0
VERTEX
8
CUT
10
92.1
20
5.728
0
VERTEX
8
CUT
10
92.1
20
0.328
0
VERTEX
8
CUT
10
91.8996
20
0
0
SEQEND
0
POLYLINE
8
CUT
66
1
70
0
0
VERTEX
8
CUT
10
93.5089
20
6.888
0
VERTEX
8
CUT
10
92.8
20
5.728
0
VERTEX
8
CUT
10
92.8
20
0.328
0
VERTEX
8
CUT
10
93.0004
20
0
0
SEQEND
0
POLYLINE
8
CUT
66
1
70
0
0
VERTEX
8
CUT
10
94.2911
20
6.888
0
VERTEX
8
CUT
10
95
20
5.728
0
VERTEX
8
CUT
10
95
20
0.328
0
VERTEX
8
CUT
10
94.7996
20
0
0
SEQEND
0
POLYLINE
8
CUT
66
1
70
0
0
VERTEX
8
CUT
10
96.4089
20
6.888
0
VERTEX
8
CUT
10
95.7
20
5.728
0
VERTEX
8
CUT
10
95.7
20
0.328
0
VERTEX
8
CUT
10
95.9004
20
0
0
SEQEND
0
POLYLINE
8
CUT
66
1
70
0
0
VERTEX
8
CUT
10
97.1911
20
6.888
0
VERTEX
8
CUT
10
97.9
20
5.728
0
VERTEX
8
CUT
10
97.9
20
0.328
0
VERTEX
8
CUT
10
97.6996
20
0
0
SEQEND
0
POLYLINE
8
CUT
66
1
70
0
0
VERTEX
8
CUT
10
99.3089
20
6.888
0
VERTEX
8
CUT
10
98.6
20
5.728
0
VERTEX
8
CUT
10
98.6
20
0.328
0
VERTEX
8
CUT
10
98.8004
20
0
0
SEQEND
0
POLYLINE
8
CUT
66
1
70
0
0
VERTEX
8
CUT
10
100.0911
20
6.888
0
VERTEX
8
CUT
10
100.8
20
5.728
0
VERTEX
8
CUT
10
100.8
20
0.328
0
VERTEX
8
CUT
10
100.5996
20
0
0
SEQEND
0
POLYLINE
8
CUT
66
1
70
0
0
VERTEX
8
CUT
10
102.2089
20
6.888
0
VERTEX
8
CUT
10
101.5
20
5.728
0
VERTEX
8
CUT
10
101.5
20
0.328
0
VERTEX
8
CUT
10
101.7004
20
0
0
SEQEND
0
POLYLINE
8
CUT
66
1
70
0
0
VERTEX
8
CUT
10
102.9911
20
6.888
0
VERTEX
8
CUT
10
103.7
20
5.728
0
VERTEX
8
CUT
10
103.7
20
0.328
0
VERTEX
8
CUT
10
103.4996
20
0
0
SEQEND
0
POLYLINE
8
CUT
66
1
70
0
0
VERTEX
8
CUT
10
105.1089
20
6.888
0
VERTEX
8
CUT
10
104.4
20
5.728
0
VERTEX
8
CUT
10
104.4
20
0.328
0
VERTEX
8
CUT
10
104.6004
20
0
0
SEQEND
0
POLYLINE
8
CUT
66
1
70
0
0
VERTEX
8
CUT
10
105.8911
20
6.888
0
VERTEX
8
CUT
10
106.6
20
5.728
0
VERTEX
8
CUT
10
106.6
20
0.328
0
VERTEX
8
CUT
10
106.3996
20
0
0
SEQEND
0
POLYLINE
8
CUT
66
1
70
0
0
VERTEX
8
CUT
10
108.0089
20
6.888
0
VERTEX
8
CUT
10
107.3
20
5.728
0
VERTEX
8
CUT
10
107.3
20
0.328
0
VERTEX
8
CUT
10
107.5004
20
0
0
SEQEND
0
POLYLINE
8
CUT
66
1
70
0
0
VERTEX
8
CUT
10
108.7911
20
6.888
0
VERTEX
8
CUT
10
109.5
20
5.728
0
VERTEX
8
CUT
10
109.5
20
0.328
0
VERTEX
8
CUT
10
109.2996
20
0
0
SEQEND
0
POLYLINE
8
CUT
66
1
70
0
0
VERTEX
8
CUT
10
110.9089
20
6.888
0
VERTEX
8
CUT
10
110.2
20
5.728
0
VERTEX
8
CUT
10
110.2
20
0.328
0
VERTEX
8
CUT
10
110.4004
20
0
0
SEQEND
0
POLYLINE
8
CUT
66
1
70
0
0
VERTEX
8
CUT
10
111.6911
20
6.888
0
VERTEX
8
CUT
10
112.4
20
5.728
0
VERTEX
8
CUT
10
112.4
20
0.328
0
VERTEX
8
CUT
10
112.1996
20
0
0
SEQEND
0
POLYLINE
8
CUT
66
1
70
0
0
VERTEX
8
CUT
10
113.8089
20
6.888
0
VERTEX
8
CUT
10
113.1
20
5.728
0
VERTEX
8
CUT
10
113.1
20
0.328
0
VERTEX
8
CUT
10
113.3004
20
0
0
SEQEND
0
POLYLINE
8
CUT
66
1
70
0
0
VERTEX
8
CUT
10
114.5911
20
6.888
0
VERTEX
8
CUT
10
115.3
20
5.728
0
VERTEX
8
CUT
10
115.3
20
0.328
0
VERTEX
8
CUT
10
115.0996
20
0
0
SEQEND
0
POLYLINE
8
CUT
66
1
70
0
0
VERTEX
8
CUT
10
116.7089
20
6.888
0
VERTEX
8
CUT
10
116
20
5.728
0
VERTEX
8
CUT
10
116
20
0.328
0
VERTEX
8
CUT
10
116.2004
20
0
0
SEQEND
0
POLYLINE
8
CUT
66
1
70
0
0
VERTEX
8
CUT
10
117.4911
20
6.888
0
VERTEX
8
CUT
10
118.2
20
5.728
0
VERTEX
8
CUT
10
118.2
20
0.328
0
VERTEX
8
CUT
10
117.9996
20
0
0
SEQEND
0
POLYLINE
8
CUT
66
1
70
0
0
VERTEX
8
CUT
10
119.6089
20
6.888
0
VERTEX
8
CUT
10
118.9
20
5.728
0
VERTEX
8
CUT
10
118.9
20
0.328
0
VERTEX
8
CUT
10
119.1004
20
0
0
SEQEND
0
POLYLINE
8
CUT
66
1
70
0
0
VERTEX
8
CUT
10
0
20
70
0
VERTEX
8
CUT
10
120
20
70
0
VERTEX
8
CUT
10
120
20
0
0
VERTEX
8
CUT
10
0
20
0
0
VERTEX
8
CUT
10
0
20
70
0
SEQEND
0
ENDSEC
0
EOF
