0
SECTION
2
HEADER
9
$ACADVER
1
AC1009
9
$INSUNITS
70
4
0
ENDSEC
0
SECTION
2
TABLES
0
TABLE
2
LAYER
70
1
0
LAYER
2
CUT
70
0
62
1
6
CONTINUOUS
0
ENDTAB
0
ENDSEC
0
SECTION
2
ENTITIES
0
LINE
8
CUT
10
3
20
70
11
3
21
50
0
LINE
8
CUT
10
1.25
20
60
11
4.75
21
60
0
LINE
8
CUT
10
3
20
48
11
3
21
28
0
LINE
8
CUT
10
1.25
20
38
11
4.75
21
38
0
LINE
8
CUT
10
3
20
26
11
3
21
6
0
LINE
8
CUT
10
1.25
20
16
11
4.75
21
16
0
LINE
8
CUT
10
3
20
4
11
3
21
0
0
LINE
8
CUT
10
9
20
70
11
9
21
61
0
LINE
8
CUT
10
9
20
59
11
9
21
39
0
LINE
8
CUT
10
7.25
20
49
11
10.75
21
49
0
LINE
8
CUT
10
9
20
37
11
9
21
17
0
LINE
8
CUT
10
7.25
20
27
11
10.75
21
27
0
LINE
8
CUT
10
9
20
15
11
9
21
0
0
LINE
8
CUT
10
7.25
20
5
11
10.75
21
5
0
LINE
8
CUT
10
15
20
70
11
15
21
50
0
LINE
8
CUT
10
13.25
20
60
11
16.75
21
60
0
LINE
8
CUT
10
15
20
48
11
15
21
28
0
LINE
8
CUT
10
13.25
20
38
11
16.75
21
38
0
LINE
8
CUT
10
15
20
26
11
15
21
6
0
LINE
8
CUT
10
13.25
20
16
11
16.75
21
16
0
LINE
8
CUT
10
15
20
4
11
15
21
0
0
LINE
8
CUT
10
21
20
70
11
21
21
61
0
LINE
8
CUT
10
21
20
59
11
21
21
39
0
LINE
8
CUT
10
19.25
20
49
11
22.75
21
49
0
LINE
8
CUT
10
21
20
37
11
21
21
17
0
LINE
8
CUT
10
19.25
20
27
11
22.75
21
27
0
LINE
8
CUT
10
21
20
15
11
21
21
0
0
LINE
8
CUT
10
19.25
20
5
11
22.75
21
5
0
LINE
8
CUT
10
27
20
70
11
27
21
50
0
LINE
8
CUT
10
25.25
20
60
11
28.75
21
60
0
LINE
8
CUT
10
27
20
48
11
27
21
28
0
LINE
8
CUT
10
25.25
20
38
11
28.75
21
38
0
LINE
8
CUT
10
27
20
26
11
27
21
6
0
LINE
8
CUT
10
25.25
20
16
11
28.75
21
16
0
LINE
8
CUT
10
27
20
4
11
27
21
0
0
LINE
8
CUT
10
33
20
70
11
33
21
61
0
LINE
8
CUT
10
33
20
59
11
33
21
39
0
LINE
8
CUT
10
31.25
20
49
11
34.75
21
49
0
LINE
8
CUT
10
33
20
37
11
33
21
17
0
LINE
8
CUT
10
31.25
20
27
11
34.75
21
27
0
LINE
8
CUT
10
33
20
15
11
33
21
0
0
LINE
8
CUT
10
31.25
20
5
11
34.75
21
5
0
LINE
8
CUT
10
39
20
70
11
39
21
50
0
LINE
8
CUT
10
37.25
20
60
11
40.75
21
60
0
LINE
8
CUT
10
39
20
48
11
39
21
28
0
LINE
8
CUT
10
37.25
20
38
11
40.75
21
38
0
LINE
8
CUT
10
39
20
26
11
39
21
6
0
LINE
8
CUT
10
37.25
20
16
11
40.75
21
16
0
LINE
8
CUT
10
39
20
4
11
39
21
0
0
LINE
8
CUT
10
45
20
70
11
45
21
61
0
LINE
8
CUT
10
45
20
59
11
45
21
39
0
LINE
8
CUT
10
43.25
20
49
11
46.75
21
49
0
LINE
8
CUT
10
45
20
37
11
45
21
17
0
LINE
8
CUT
10
43.25
20
27
11
46.75
21
27
0
LINE
8
CUT
10
45
20
15
11
45
21
0
0
LINE
8
CUT
10
43.25
20
5
11
46.75
21
5
0
LINE
8
CUT
10
51
20
70
11
51
21
50
0
LINE
8
CUT
10
49.25
20
60
11
52.75
21
60
0
LINE
8
CUT
10
51
20
48
11
51
21
28
0
LINE
8
CUT
10
49.25
20
38
11
52.75
21
38
0
LINE
8
CUT
10
51
20
26
11
51
21
6
0
LINE
8
CUT
10
49.25
20
16
11
52.75
21
16
0
LINE
8
CUT
10
51
20
4
11
51
21
0
0
LINE
8
CUT
10
57
20
70
11
57
21
61
0
LINE
8
CUT
10
57
20
59
11
57
21
39
0
LINE
8
CUT
10
55.25
20
49
11
58.75
21
49
0
LINE
8
CUT
10
57
20
37
11
57
21
17
0
LINE
8
CUT
10
55.25
20
27
11
58.75
21
27
0
LINE
8
CUT
10
57
20
15
11
57
21
0
0
LINE
8
CUT
10
55.25
20
5
11
58.75
21
5
0
LINE
8
CUT
10
63
20
70
11
63
21
50
0
LINE
8
CUT
10
61.25
20
60
11
64.75
21
60
0
LINE
8
CUT
10
63
20
48
11
63
21
28
0
LINE
8
CUT
10
61.25
20
38
11
64.75
21
38
0
LINE
8
CUT
10
63
20
26
11
63
21
6
0
LINE
8
CUT
10
61.25
20
16
11
64.75
21
16
0
LINE
8
CUT
10
63
20
4
11
63
21
0
0
LINE
8
CUT
10
69
20
70
11
69
21
61
0
LINE
8
CUT
10
69
20
59
11
69
21
39
0
LINE
8
CUT
10
67.25
20
49
11
70.75
21
49
0
LINE
8
CUT
10
69
20
37
11
69
21
17
0
LINE
8
CUT
10
67.25
20
27
11
70.75
21
27
0
LINE
8
CUT
10
69
20
15
11
69
21
0
0
LINE
8
CUT
10
67.25
20
5
11
70.75
21
5
0
LINE
8
CUT
10
75
20
70
11
75
21
50
0
LINE
8
CUT
10
73.25
20
60
11
76.75
21
60
0
LINE
8
CUT
10
75
20
48
11
75
21
28
0
LINE
8
CUT
10
73.25
20
38
11
76.75
21
38
0
LINE
8
CUT
10
75
20
26
11
75
21
6
0
LINE
8
CUT
10
73.25
20
16
11
76.75
21
16
0
LINE
8
CUT
10
75
20
4
11
75
21
0
0
LINE
8
CUT
10
81
20
70
11
81
21
61
0
LINE
8
CUT
10
81
20
59
11
81
21
39
0
LINE
8
CUT
10
79.25
20
49
11
82.75
21
49
0
LINE
8
CUT
10
81
20
37
11
81
21
17
0
LINE
8
CUT
10
79.25
20
27
11
82.75
21
27
0
LINE
8
CUT
10
81
20
15
11
81
21
0
0
LINE
8
CUT
10
79.25
20
5
11
82.75
21
5
0
LINE
8
CUT
10
87
20
70
11
87
21
50
0
LINE
8
CUT
10
85.25
20
60
11
88.75
21
60
0
LINE
8
CUT
10
87
20
48
11
87
21
28
0
LINE
8
CUT
10
85.25
20
38
11
88.75
21
38
0
LINE
8
CUT
10
87
20
26
11
87
21
6
0
LINE
8
CUT
10
85.25
20
16
11
88.75
21
16
0
LINE
8
CUT
10
87
20
4
11
87
21
0
0
LINE
8
CUT
10
93
20
70
11
93
21
61
0
LINE
8
CUT
10
93
20
59
11
93
21
39
0
LINE
8
CUT
10
91.25
20
49
11
94.75
21
49
0
LINE
8
CUT
10
93
20
37
11
93
21
17
0
LINE
8
CUT
10
91.25
20
27
11
94.75
21
27
0
LINE
8
CUT
10
93
20
15
11
93
21
0
0
LINE
8
CUT
10
91.25
20
5
11
94.75
21
5
0
LINE
8
CUT
10
99
20
70
11
99
21
50
0
LINE
8
CUT
10
97.25
20
60
11
100.75
21
60
0
LINE
8
CUT
10
99
20
48
11
99
21
28
0
LINE
8
CUT
10
97.25
20
38
11
100.75
21
38
0
LINE
8
CUT
10
99
20
26
11
99
21
6
0
LINE
8
CUT
10
97.25
20
16
11
100.75
21
16
0
LINE
8
CUT
10
99
20
4
11
99
21
0
0
LINE
8
CUT
10
105
20
70
11
105
21
61
0
LINE
8
CUT
10
105
20
59
11
105
21
39
0
LINE
8
CUT
10
103.25
20
49
11
106.75
21
49
0
LINE
8
CUT
10
105
20
37
11
105
21
17
0
LINE
8
CUT
10
103.25
20
27
11
106.75
21
27
0
LINE
8
CUT
10
105
20
15
11
105
21
0
0
LINE
8
CUT
10
103.25
20
5
11
106.75
21
5
0
LINE
8
CUT
10
111
20
70
11
111
21
50
0
LINE
8
CUT
10
109.25
20
60
11
112.75
21
60
0
LINE
8
CUT
10
111
20
48
11
111
21
28
0
LINE
8
CUT
10
109.25
20
38
11
112.75
21
38
0
LINE
8
CUT
10
111
20
26
11
111
21
6
0
LINE
8
CUT
10
109.25
20
16
11
112.75
21
16
0
LINE
8
CUT
10
111
20
4
11
111
21
0
0
LINE
8
CUT
10
117
20
70
11
117
21
61
0
LINE
8
CUT
10
117
20
59
11
117
21
39
0
LINE
8
CUT
10
115.25
20
49
11
118.75
21
49
0
LINE
8
CUT
10
117
20
37
11
117
21
17
0
LINE
8
CUT
10
115.25
20
27
11
118.75
21
27
0
LINE
8
CUT
10
117
20
15
11
117
21
0
0
LINE
8
CUT
10
115.25
20
5
11
118.75
21
5
0
POLYLINE
8
CUT
66
1
70
0
0
VERTEX
8
CUT
10
0
20
70
0
VERTEX
8
CUT
10
120
20
70
0
VERTEX
8
CUT
10
120
20
0
0
VERTEX
8
CUT
10
0
20
0
0
VERTEX
8
CUT
10
0
20
70
0
SEQEND
0
ENDSEC
0
EOF
