0
SECTION
2
HEADER
9
$ACADVER
1
AC1009
9
$INSUNITS
70
4
0
ENDSEC
0
SECTION
2
TABLES
0
TABLE
2
LAYER
70
1
0
LAYER
2
CUT
70
0
62
1
6
CONTINUOUS
0
ENDTAB
0
ENDSEC
0
SECTION
2
ENTITIES
0
POLYLINE
8
CUT
66
1
70
0
0
VERTEX
8
CUT
10
6
20
70
0
VERTEX
8
CUT
10
7.5
20
63
0
VERTEX
8
CUT
10
6
20
56
0
VERTEX
8
CUT
10
4.5
20
63
0
VERTEX
8
CUT
10
6
20
70
0
SEQEND
0
POLYLINE
8
CUT
66
1
70
0
0
VERTEX
8
CUT
10
6
20
53
0
VERTEX
8
CUT
10
7.5
20
46
0
VERTEX
8
CUT
10
6
20
39
0
VERTEX
8
CUT
10
4.5
20
46
0
VERTEX
8
CUT
10
6
20
53
0
SEQEND
0
POLYLINE
8
CUT
66
1
70
0
0
VERTEX
8
CUT
10
6
20
36
0
VERTEX
8
CUT
10
7.5
20
29
0
VERTEX
8
CUT
10
6
20
22
0
VERTEX
8
CUT
10
4.5
20
29
0
VERTEX
8
CUT
10
6
20
36
0
SEQEND
0
POLYLINE
8
CUT
66
1
70
0
0
VERTEX
8
CUT
10
6
20
19
0
VERTEX
8
CUT
10
7.5
20
12
0
VERTEX
8
CUT
10
6
20
5
0
VERTEX
8
CUT
10
4.5
20
12
0
VERTEX
8
CUT
10
6
20
19
0
SEQEND
0
LINE
8
CUT
10
6
20
2
11
6.4286
21
0
0
LINE
8
CUT
10
5.5714
20
0
11
6
21
2
0
POLYLINE
8
CUT
66
1
70
0
0
VERTEX
8
CUT
10
16.1786
20
70
0
VERTEX
8
CUT
10
15
20
64.5
0
VERTEX
8
CUT
10
13.8214
20
70
0
SEQEND
0
POLYLINE
8
CUT
66
1
70
0
0
VERTEX
8
CUT
10
15
20
61.5
0
VERTEX
8
CUT
10
16.5
20
54.5
0
VERTEX
8
CUT
10
15
20
47.5
0
VERTEX
8
CUT
10
13.5
20
54.5
0
VERTEX
8
CUT
10
15
20
61.5
0
SEQEND
0
POLYLINE
8
CUT
66
1
70
0
0
VERTEX
8
CUT
10
15
20
44.5
0
VERTEX
8
CUT
10
16.5
20
37.5
0
VERTEX
8
CUT
10
15
20
30.5
0
VERTEX
8
CUT
10
13.5
20
37.5
0
VERTEX
8
CUT
10
15
20
44.5
0
SEQEND
0
POLYLINE
8
CUT
66
1
70
0
0
VERTEX
8
CUT
10
15
20
27.5
0
VERTEX
8
CUT
10
16.5
20
20.5
0
VERTEX
8
CUT
10
15
20
13.5
0
VERTEX
8
CUT
10
13.5
20
20.5
0
VERTEX
8
CUT
10
15
20
27.5
0
SEQEND
0
POLYLINE
8
CUT
66
1
70
0
0
VERTEX
8
CUT
10
15
20
10.5
0
VERTEX
8
CUT
10
16.5
20
3.5
0
VERTEX
8
CUT
10
15.75
20
0
0
SEQEND
0
POLYLINE
8
CUT
66
1
70
0
0
VERTEX
8
CUT
10
14.25
20
0
0
VERTEX
8
CUT
10
13.5
20
3.5
0
VERTEX
8
CUT
10
15
20
10.5
0
SEQEND
0
POLYLINE
8
CUT
66
1
70
0
0
VERTEX
8
CUT
10
24
20
70
0
VERTEX
8
CUT
10
25.5
20
63
0
VERTEX
8
CUT
10
24
20
56
0
VERTEX
8
CUT
10
22.5
20
63
0
VERTEX
8
CUT
10
24
20
70
0
SEQEND
0
POLYLINE
8
CUT
66
1
70
0
0
VERTEX
8
CUT
10
24
20
53
0
VERTEX
8
CUT
10
25.5
20
46
0
VERTEX
8
CUT
10
24
20
39
0
VERTEX
8
CUT
10
22.5
20
46
0
VERTEX
8
CUT
10
24
20
53
0
SEQEND
0
POLYLINE
8
CUT
66
1
70
0
0
VERTEX
8
CUT
10
24
20
36
0
VERTEX
8
CUT
10
25.5
20
29
0
VERTEX
8
CUT
10
24
20
22
0
VERTEX
8
CUT
10
22.5
20
29
0
VERTEX
8
CUT
10
24
20
36
0
SEQEND
0
POLYLINE
8
CUT
66
1
70
0
0
VERTEX
8
CUT
10
24
20
19
0
VERTEX
8
CUT
10
25.5
20
12
0
VERTEX
8
CUT
10
24
20
5
0
VERTEX
8
CUT
10
22.5
20
12
0
VERTEX
8
CUT
10
24
20
19
0
SEQEND
0
LINE
8
CUT
10
24
20
2
11
24.4286
21
0
0
LINE
8
CUT
10
23.5714
20
0
11
24
21
2
0
POLYLINE
8
CUT
66
1
70
0
0
VERTEX
8
CUT
10
34.1786
20
70
0
VERTEX
8
CUT
10
33
20
64.5
0
VERTEX
8
CUT
10
31.8214
20
70
0
SEQEND
0
POLYLINE
8
CUT
66
1
70
0
0
VERTEX
8
CUT
10
33
20
61.5
0
VERTEX
8
CUT
10
34.5
20
54.5
0
VERTEX
8
CUT
10
33
20
47.5
0
VERTEX
8
CUT
10
31.5
20
54.5
0
VERTEX
8
CUT
10
33
20
61.5
0
SEQEND
0
POLYLINE
8
CUT
66
1
70
0
0
VERTEX
8
CUT
10
33
20
44.5
0
VERTEX
8
CUT
10
34.5
20
37.5
0
VERTEX
8
CUT
10
33
20
30.5
0
VERTEX
8
CUT
10
31.5
20
37.5
0
VERTEX
8
CUT
10
33
20
44.5
0
SEQEND
0
POLYLINE
8
CUT
66
1
70
0
0
VERTEX
8
CUT
10
33
20
27.5
0
VERTEX
8
CUT
10
34.5
20
20.5
0
VERTEX
8
CUT
10
33
20
13.5
0
VERTEX
8
CUT
10
31.5
20
20.5
0
VERTEX
8
CUT
10
33
20
27.5
0
SEQEND
0
POLYLINE
8
CUT
66
1
70
0
0
VERTEX
8
CUT
10
33
20
10.5
0
VERTEX
8
CUT
10
34.5
20
3.5
0
VERTEX
8
CUT
10
33.75
20
0
0
SEQEND
0
POLYLINE
8
CUT
66
1
70
0
0
VERTEX
8
CUT
10
32.25
20
0
0
VERTEX
8
CUT
10
31.5
20
3.5
0
VERTEX
8
CUT
10
33
20
10.5
0
SEQEND
0
POLYLINE
8
CUT
66
1
70
0
0
VERTEX
8
CUT
10
42
20
70
0
VERTEX
8
CUT
10
43.5
20
63
0
VERTEX
8
CUT
10
42
20
56
0
VERTEX
8
CUT
10
40.5
20
63
0
VERTEX
8
CUT
10
42
20
70
0
SEQEND
0
POLYLINE
8
CUT
66
1
70
0
0
VERTEX
8
CUT
10
42
20
53
0
VERTEX
8
CUT
10
43.5
20
46
0
VERTEX
8
CUT
10
42
20
39
0
VERTEX
8
CUT
10
40.5
20
46
0
VERTEX
8
CUT
10
42
20
53
0
SEQEND
0
POLYLINE
8
CUT
66
1
70
0
0
VERTEX
8
CUT
10
42
20
36
0
VERTEX
8
CUT
10
43.5
20
29
0
VERTEX
8
CUT
10
42
20
22
0
VERTEX
8
CUT
10
40.5
20
29
0
VERTEX
8
CUT
10
42
20
36
0
SEQEND
0
POLYLINE
8
CUT
66
1
70
0
0
VERTEX
8
CUT
10
42
20
19
0
VERTEX
8
CUT
10
43.5
20
12
0
VERTEX
8
CUT
10
42
20
5
0
VERTEX
8
CUT
10
40.5
20
12
0
VERTEX
8
CUT
10
42
20
19
0
SEQEND
0
LINE
8
CUT
10
42
20
2
11
42.4286
21
0
0
LINE
8
CUT
10
41.5714
20
0
11
42
21
2
0
POLYLINE
8
CUT
66
1
70
0
0
VERTEX
8
CUT
10
52.1786
20
70
0
VERTEX
8
CUT
10
51
20
64.5
0
VERTEX
8
CUT
10
49.8214
20
70
0
SEQEND
0
POLYLINE
8
CUT
66
1
70
0
0
VERTEX
8
CUT
10
51
20
61.5
0
VERTEX
8
CUT
10
52.5
20
54.5
0
VERTEX
8
CUT
10
51
20
47.5
0
VERTEX
8
CUT
10
49.5
20
54.5
0
VERTEX
8
CUT
10
51
20
61.5
0
SEQEND
0
POLYLINE
8
CUT
66
1
70
0
0
VERTEX
8
CUT
10
51
20
44.5
0
VERTEX
8
CUT
10
52.5
20
37.5
0
VERTEX
8
CUT
10
51
20
30.5
0
VERTEX
8
CUT
10
49.5
20
37.5
0
VERTEX
8
CUT
10
51
20
44.5
0
SEQEND
0
POLYLINE
8
CUT
66
1
70
0
0
VERTEX
8
CUT
10
51
20
27.5
0
VERTEX
8
CUT
10
52.5
20
20.5
0
VERTEX
8
CUT
10
51
20
13.5
0
VERTEX
8
CUT
10
49.5
20
20.5
0
VERTEX
8
CUT
10
51
20
27.5
0
SEQEND
0
POLYLINE
8
CUT
66
1
70
0
0
VERTEX
8
CUT
10
51
20
10.5
0
VERTEX
8
CUT
10
52.5
20
3.5
0
VERTEX
8
CUT
10
51.75
20
0
0
SEQEND
0
POLYLINE
8
CUT
66
1
70
0
0
VERTEX
8
CUT
10
50.25
20
0
0
VERTEX
8
CUT
10
49.5
20
3.5
0
VERTEX
8
CUT
10
51
20
10.5
0
SEQEND
0
POLYLINE
8
CUT
66
1
70
0
0
VERTEX
8
CUT
10
60
20
70
0
VERTEX
8
CUT
10
61.5
20
63
0
VERTEX
8
CUT
10
60
20
56
0
VERTEX
8
CUT
10
58.5
20
63
0
VERTEX
8
CUT
10
60
20
70
0
SEQEND
0
POLYLINE
8
CUT
66
1
70
0
0
VERTEX
8
CUT
10
60
20
53
0
VERTEX
8
CUT
10
61.5
20
46
0
VERTEX
8
CUT
10
60
20
39
0
VERTEX
8
CUT
10
58.5
20
46
0
VERTEX
8
CUT
10
60
20
53
0
SEQEND
0
POLYLINE
8
CUT
66
1
70
0
0
VERTEX
8
CUT
10
60
20
36
0
VERTEX
8
CUT
10
61.5
20
29
0
VERTEX
8
CUT
10
60
20
22
0
VERTEX
8
CUT
10
58.5
20
29
0
VERTEX
8
CUT
10
60
20
36
0
SEQEND
0
POLYLINE
8
CUT
66
1
70
0
0
VERTEX
8
CUT
10
60
20
19
0
VERTEX
8
CUT
10
61.5
20
12
0
VERTEX
8
CUT
10
60
20
5
0
VERTEX
8
CUT
10
58.5
20
12
0
VERTEX
8
CUT
10
60
20
19
0
SEQEND
0
LINE
8
CUT
10
60
20
2
11
60.4286
21
0
0
LINE
8
CUT
10
59.5714
20
0
11
60
21
2
0
POLYLINE
8
CUT
66
1
70
0
0
VERTEX
8
CUT
10
70.1786
20
70
0
VERTEX
8
CUT
10
69
20
64.5
0
VERTEX
8
CUT
10
67.8214
20
70
0
SEQEND
0
POLYLINE
8
CUT
66
1
70
0
0
VERTEX
8
CUT
10
69
20
61.5
0
VERTEX
8
CUT
10
70.5
20
54.5
0
VERTEX
8
CUT
10
69
20
47.5
0
VERTEX
8
CUT
10
67.5
20
54.5
0
VERTEX
8
CUT
10
69
20
61.5
0
SEQEND
0
POLYLINE
8
CUT
66
1
70
0
0
VERTEX
8
CUT
10
69
20
44.5
0
VERTEX
8
CUT
10
70.5
20
37.5
0
VERTEX
8
CUT
10
69
20
30.5
0
VERTEX
8
CUT
10
67.5
20
37.5
0
VERTEX
8
CUT
10
69
20
44.5
0
SEQEND
0
POLYLINE
8
CUT
66
1
70
0
0
VERTEX
8
CUT
10
69
20
27.5
0
VERTEX
8
CUT
10
70.5
20
20.5
0
VERTEX
8
CUT
10
69
20
13.5
0
VERTEX
8
CUT
10
67.5
20
20.5
0
VERTEX
8
CUT
10
69
20
27.5
0
SEQEND
0
POLYLINE
8
CUT
66
1
70
0
0
VERTEX
8
CUT
10
69
20
10.5
0
VERTEX
8
CUT
10
70.5
20
3.5
0
VERTEX
8
CUT
10
69.75
20
0
0
SEQEND
0
POLYLINE
8
CUT
66
1
70
0
0
VERTEX
8
CUT
10
68.25
20
0
0
VERTEX
8
CUT
10
67.5
20
3.5
0
VERTEX
8
CUT
10
69
20
10.5
0
SEQEND
0
POLYLINE
8
CUT
66
1
70
0
0
VERTEX
8
CUT
10
78
20
70
0
VERTEX
8
CUT
10
79.5
20
63
0
VERTEX
8
CUT
10
78
20
56
0
VERTEX
8
CUT
10
76.5
20
63
0
VERTEX
8
CUT
10
78
20
70
0
SEQEND
0
POLYLINE
8
CUT
66
1
70
0
0
VERTEX
8
CUT
10
78
20
53
0
VERTEX
8
CUT
10
79.5
20
46
0
VERTEX
8
CUT
10
78
20
39
0
VERTEX
8
CUT
10
76.5
20
46
0
VERTEX
8
CUT
10
78
20
53
0
SEQEND
0
POLYLINE
8
CUT
66
1
70
0
0
VERTEX
8
CUT
10
78
20
36
0
VERTEX
8
CUT
10
79.5
20
29
0
VERTEX
8
CUT
10
78
20
22
0
VERTEX
8
CUT
10
76.5
20
29
0
VERTEX
8
CUT
10
78
20
36
0
SEQEND
0
POLYLINE
8
CUT
66
1
70
0
0
VERTEX
8
CUT
10
78
20
19
0
VERTEX
8
CUT
10
79.5
20
12
0
VERTEX
8
CUT
10
78
20
5
0
VERTEX
8
CUT
10
76.5
20
12
0
VERTEX
8
CUT
10
78
20
19
0
SEQEND
0
LINE
8
CUT
10
78
20
2
11
78.4286
21
0
0
LINE
8
CUT
10
77.5714
20
0
11
78
21
2
0
POLYLINE
8
CUT
66
1
70
0
0
VERTEX
8
CUT
10
88.1786
20
70
0
VERTEX
8
CUT
10
87
20
64.5
0
VERTEX
8
CUT
10
85.8214
20
70
0
SEQEND
0
POLYLINE
8
CUT
66
1
70
0
0
VERTEX
8
CUT
10
87
20
61.5
0
VERTEX
8
CUT
10
88.5
20
54.5
0
VERTEX
8
CUT
10
87
20
47.5
0
VERTEX
8
CUT
10
85.5
20
54.5
0
VERTEX
8
CUT
10
87
20
61.5
0
SEQEND
0
POLYLINE
8
CUT
66
1
70
0
0
VERTEX
8
CUT
10
87
20
44.5
0
VERTEX
8
CUT
10
88.5
20
37.5
0
VERTEX
8
CUT
10
87
20
30.5
0
VERTEX
8
CUT
10
85.5
20
37.5
0
VERTEX
8
CUT
10
87
20
44.5
0
SEQEND
0
POLYLINE
8
CUT
66
1
70
0
0
VERTEX
8
CUT
10
87
20
27.5
0
VERTEX
8
CUT
10
88.5
20
20.5
0
VERTEX
8
CUT
10
87
20
13.5
0
VERTEX
8
CUT
10
85.5
20
20.5
0
VERTEX
8
CUT
10
87
20
27.5
0
SEQEND
0
POLYLINE
8
CUT
66
1
70
0
0
VERTEX
8
CUT
10
87
20
10.5
0
VERTEX
8
CUT
10
88.5
20
3.5
0
VERTEX
8
CUT
10
87.75
20
0
0
SEQEND
0
POLYLINE
8
CUT
66
1
70
0
0
VERTEX
8
CUT
10
86.25
20
0
0
VERTEX
8
CUT
10
85.5
20
3.5
0
VERTEX
8
CUT
10
87
20
10.5
0
SEQEND
0
POLYLINE
8
CUT
66
1
70
0
0
VERTEX
8
CUT
10
96
20
70
0
VERTEX
8
CUT
10
97.5
20
63
0
VERTEX
8
CUT
10
96
20
56
0
VERTEX
8
CUT
10
94.5
20
63
0
VERTEX
8
CUT
10
96
20
70
0
SEQEND
0
POLYLINE
8
CUT
66
1
70
0
0
VERTEX
8
CUT
10
96
20
53
0
VERTEX
8
CUT
10
97.5
20
46
0
VERTEX
8
CUT
10
96
20
39
0
VERTEX
8
CUT
10
94.5
20
46
0
VERTEX
8
CUT
10
96
20
53
0
SEQEND
0
POLYLINE
8
CUT
66
1
70
0
0
VERTEX
8
CUT
10
96
20
36
0
VERTEX
8
CUT
10
97.5
20
29
0
VERTEX
8
CUT
10
96
20
22
0
VERTEX
8
CUT
10
94.5
20
29
0
VERTEX
8
CUT
10
96
20
36
0
SEQEND
0
POLYLINE
8
CUT
66
1
70
0
0
VERTEX
8
CUT
10
96
20
19
0
VERTEX
8
CUT
10
97.5
20
12
0
VERTEX
8
CUT
10
96
20
5
0
VERTEX
8
CUT
10
94.5
20
12
0
VERTEX
8
CUT
10
96
20
19
0
SEQEND
0
LINE
8
CUT
10
96
20
2
11
96.4286
21
0
0
LINE
8
CUT
10
95.5714
20
0
11
96
21
2
0
POLYLINE
8
CUT
66
1
70
0
0
VERTEX
8
CUT
10
106.1786
20
70
0
VERTEX
8
CUT
10
105
20
64.5
0
VERTEX
8
CUT
10
103.8214
20
70
0
SEQEND
0
POLYLINE
8
CUT
66
1
70
0
0
VERTEX
8
CUT
10
105
20
61.5
0
VERTEX
8
CUT
10
106.5
20
54.5
0
VERTEX
8
CUT
10
105
20
47.5
0
VERTEX
8
CUT
10
103.5
20
54.5
0
VERTEX
8
CUT
10
105
20
61.5
0
SEQEND
0
POLYLINE
8
CUT
66
1
70
0
0
VERTEX
8
CUT
10
105
20
44.5
0
VERTEX
8
CUT
10
106.5
20
37.5
0
VERTEX
8
CUT
10
105
20
30.5
0
VERTEX
8
CUT
10
103.5
20
37.5
0
VERTEX
8
CUT
10
105
20
44.5
0
SEQEND
0
POLYLINE
8
CUT
66
1
70
0
0
VERTEX
8
CUT
10
105
20
27.5
0
VERTEX
8
CUT
10
106.5
20
20.5
0
VERTEX
8
CUT
10
105
20
13.5
0
VERTEX
8
CUT
10
103.5
20
20.5
0
VERTEX
8
CUT
10
105
20
27.5
0
SEQEND
0
POLYLINE
8
CUT
66
1
70
0
0
VERTEX
8
CUT
10
105
20
10.5
0
VERTEX
8
CUT
10
106.5
20
3.5
0
VERTEX
8
CUT
10
105.75
20
0
0
SEQEND
0
POLYLINE
8
CUT
66
1
70
0
0
VERTEX
8
CUT
10
104.25
20
0
0
VERTEX
8
CUT
10
103.5
20
3.5
0
VERTEX
8
CUT
10
105
20
10.5
0
SEQEND
0
POLYLINE
8
CUT
66
1
70
0
0
VERTEX
8
CUT
10
114
20
70
0
VERTEX
8
CUT
10
115.5
20
63
0
VERTEX
8
CUT
10
114
20
56
0
VERTEX
8
CUT
10
112.5
20
63
0
VERTEX
8
CUT
10
114
20
70
0
SEQEND
0
POLYLINE
8
CUT
66
1
70
0
0
VERTEX
8
CUT
10
114
20
53
0
VERTEX
8
CUT
10
115.5
20
46
0
VERTEX
8
CUT
10
114
20
39
0
VERTEX
8
CUT
10
112.5
20
46
0
VERTEX
8
CUT
10
114
20
53
0
SEQEND
0
POLYLINE
8
CUT
66
1
70
0
0
VERTEX
8
CUT
10
114
20
36
0
VERTEX
8
CUT
10
115.5
20
29
0
VERTEX
8
CUT
10
114
20
22
0
VERTEX
8
CUT
10
112.5
20
29
0
VERTEX
8
CUT
10
114
20
36
0
SEQEND
0
POLYLINE
8
CUT
66
1
70
0
0
VERTEX
8
CUT
10
114
20
19
0
VERTEX
8
CUT
10
115.5
20
12
0
VERTEX
8
CUT
10
114
20
5
0
VERTEX
8
CUT
10
112.5
20
12
0
VERTEX
8
CUT
10
114
20
19
0
SEQEND
0
LINE
8
CUT
10
114
20
2
11
114.4286
21
0
0
LINE
8
CUT
10
113.5714
20
0
11
114
21
2
0
POLYLINE
8
CUT
66
1
70
0
0
VERTEX
8
CUT
10
0
20
70
0
VERTEX
8
CUT
10
120
20
70
0
VERTEX
8
CUT
10
120
20
0
0
VERTEX
8
CUT
10
0
20
0
0
VERTEX
8
CUT
10
0
20
70
0
SEQEND
0
ENDSEC
0
EOF
