0
SECTION
2
HEADER
9
$ACADVER
1
AC1009
9
$INSUNITS
70
4
0
ENDSEC
0
SECTION
2
TABLES
0
TABLE
2
LAYER
70
1
0
LAYER
2
CUT
70
0
62
1
6
CONTINUOUS
0
ENDTAB
0
ENDSEC
0
SECTION
2
ENTITIES
0
POLYLINE
8
CUT
66
1
70
0
0
VERTEX
8
CUT
10
1.2799
20
68.5822
0
VERTEX
8
CUT
10
3.6
20
70
0
VERTEX
8
CUT
10
14.4
20
70
0
VERTEX
8
CUT
10
16.7201
20
68.5822
0
SEQEND
0
POLYLINE
8
CUT
66
1
70
0
0
VERTEX
8
CUT
10
1.2799
20
67.0178
0
VERTEX
8
CUT
10
3.6
20
65.6
0
VERTEX
8
CUT
10
14.4
20
65.6
0
VERTEX
8
CUT
10
16.7201
20
67.0178
0
SEQEND
0
POLYLINE
8
CUT
66
1
70
0
0
VERTEX
8
CUT
10
19.2799
20
68.5822
0
VERTEX
8
CUT
10
21.6
20
70
0
VERTEX
8
CUT
10
32.4
20
70
0
VERTEX
8
CUT
10
34.7201
20
68.5822
0
SEQEND
0
POLYLINE
8
CUT
66
1
70
0
0
VERTEX
8
CUT
10
19.2799
20
67.0178
0
VERTEX
8
CUT
10
21.6
20
65.6
0
VERTEX
8
CUT
10
32.4
20
65.6
0
VERTEX
8
CUT
10
34.7201
20
67.0178
0
SEQEND
0
POLYLINE
8
CUT
66
1
70
0
0
VERTEX
8
CUT
10
37.2799
20
68.5822
0
VERTEX
8
CUT
10
39.6
20
70
0
VERTEX
8
CUT
10
50.4
20
70
0
VERTEX
8
CUT
10
52.7201
20
68.5822
0
SEQEND
0
POLYLINE
8
CUT
66
1
70
0
0
VERTEX
8
CUT
10
37.2799
20
67.0178
0
VERTEX
8
CUT
10
39.6
20
65.6
0
VERTEX
8
CUT
10
50.4
20
65.6
0
VERTEX
8
CUT
10
52.7201
20
67.0178
0
SEQEND
0
POLYLINE
8
CUT
66
1
70
0
0
VERTEX
8
CUT
10
55.2799
20
68.5822
0
VERTEX
8
CUT
10
57.6
20
70
0
VERTEX
8
CUT
10
68.4
20
70
0
VERTEX
8
CUT
10
70.7201
20
68.5822
0
SEQEND
0
POLYLINE
8
CUT
66
1
70
0
0
VERTEX
8
CUT
10
55.2799
20
67.0178
0
VERTEX
8
CUT
10
57.6
20
65.6
0
VERTEX
8
CUT
10
68.4
20
65.6
0
VERTEX
8
CUT
10
70.7201
20
67.0178
0
SEQEND
0
POLYLINE
8
CUT
66
1
70
0
0
VERTEX
8
CUT
10
73.2799
20
68.5822
0
VERTEX
8
CUT
10
75.6
20
70
0
VERTEX
8
CUT
10
86.4
20
70
0
VERTEX
8
CUT
10
88.7201
20
68.5822
0
SEQEND
0
POLYLINE
8
CUT
66
1
70
0
0
VERTEX
8
CUT
10
73.2799
20
67.0178
0
VERTEX
8
CUT
10
75.6
20
65.6
0
VERTEX
8
CUT
10
86.4
20
65.6
0
VERTEX
8
CUT
10
88.7201
20
67.0178
0
SEQEND
0
POLYLINE
8
CUT
66
1
70
0
0
VERTEX
8
CUT
10
91.2799
20
68.5822
0
VERTEX
8
CUT
10
93.6
20
70
0
VERTEX
8
CUT
10
104.4
20
70
0
VERTEX
8
CUT
10
106.7201
20
68.5822
0
SEQEND
0
POLYLINE
8
CUT
66
1
70
0
0
VERTEX
8
CUT
10
91.2799
20
67.0178
0
VERTEX
8
CUT
10
93.6
20
65.6
0
VERTEX
8
CUT
10
104.4
20
65.6
0
VERTEX
8
CUT
10
106.7201
20
67.0178
0
SEQEND
0
POLYLINE
8
CUT
66
1
70
0
0
VERTEX
8
CUT
10
109.2799
20
68.5822
0
VERTEX
8
CUT
10
111.6
20
70
0
VERTEX
8
CUT
10
120
20
70
0
SEQEND
0
POLYLINE
8
CUT
66
1
70
0
0
VERTEX
8
CUT
10
109.2799
20
67.0178
0
VERTEX
8
CUT
10
111.6
20
65.6
0
VERTEX
8
CUT
10
120
20
65.6
0
SEQEND
0
POLYLINE
8
CUT
66
1
70
0
0
VERTEX
8
CUT
10
0
20
63.6
0
VERTEX
8
CUT
10
5.4
20
63.6
0
VERTEX
8
CUT
10
7.7201
20
62.1822
0
SEQEND
0
POLYLINE
8
CUT
66
1
70
0
0
VERTEX
8
CUT
10
0
20
59.2
0
VERTEX
8
CUT
10
5.4
20
59.2
0
VERTEX
8
CUT
10
7.7201
20
60.6178
0
SEQEND
0
POLYLINE
8
CUT
66
1
70
0
0
VERTEX
8
CUT
10
10.2799
20
62.1822
0
VERTEX
8
CUT
10
12.6
20
63.6
0
VERTEX
8
CUT
10
23.4
20
63.6
0
VERTEX
8
CUT
10
25.7201
20
62.1822
0
SEQEND
0
POLYLINE
8
CUT
66
1
70
0
0
VERTEX
8
CUT
10
10.2799
20
60.6178
0
VERTEX
8
CUT
10
12.6
20
59.2
0
VERTEX
8
CUT
10
23.4
20
59.2
0
VERTEX
8
CUT
10
25.7201
20
60.6178
0
SEQEND
0
POLYLINE
8
CUT
66
1
70
0
0
VERTEX
8
CUT
10
28.2799
20
62.1822
0
VERTEX
8
CUT
10
30.6
20
63.6
0
VERTEX
8
CUT
10
41.4
20
63.6
0
VERTEX
8
CUT
10
43.7201
20
62.1822
0
SEQEND
0
POLYLINE
8
CUT
66
1
70
0
0
VERTEX
8
CUT
10
28.2799
20
60.6178
0
VERTEX
8
CUT
10
30.6
20
59.2
0
VERTEX
8
CUT
10
41.4
20
59.2
0
VERTEX
8
CUT
10
43.7201
20
60.6178
0
SEQEND
0
POLYLINE
8
CUT
66
1
70
0
0
VERTEX
8
CUT
10
46.2799
20
62.1822
0
VERTEX
8
CUT
10
48.6
20
63.6
0
VERTEX
8
CUT
10
59.4
20
63.6
0
VERTEX
8
CUT
10
61.7201
20
62.1822
0
SEQEND
0
POLYLINE
8
CUT
66
1
70
0
0
VERTEX
8
CUT
10
46.2799
20
60.6178
0
VERTEX
8
CUT
10
48.6
20
59.2
0
VERTEX
8
CUT
10
59.4
20
59.2
0
VERTEX
8
CUT
10
61.7201
20
60.6178
0
SEQEND
0
POLYLINE
8
CUT
66
1
70
0
0
VERTEX
8
CUT
10
64.2799
20
62.1822
0
VERTEX
8
CUT
10
66.6
20
63.6
0
VERTEX
8
CUT
10
77.4
20
63.6
0
VERTEX
8
CUT
10
79.7201
20
62.1822
0
SEQEND
0
POLYLINE
8
CUT
66
1
70
0
0
VERTEX
8
CUT
10
64.2799
20
60.6178
0
VERTEX
8
CUT
10
66.6
20
59.2
0
VERTEX
8
CUT
10
77.4
20
59.2
0
VERTEX
8
CUT
10
79.7201
20
60.6178
0
SEQEND
0
POLYLINE
8
CUT
66
1
70
0
0
VERTEX
8
CUT
10
82.2799
20
62.1822
0
VERTEX
8
CUT
10
84.6
20
63.6
0
VERTEX
8
CUT
10
95.4
20
63.6
0
VERTEX
8
CUT
10
97.7201
20
62.1822
0
SEQEND
0
POLYLINE
8
CUT
66
1
70
0
0
VERTEX
8
CUT
10
82.2799
20
60.6178
0
VERTEX
8
CUT
10
84.6
20
59.2
0
VERTEX
8
CUT
10
95.4
20
59.2
0
VERTEX
8
CUT
10
97.7201
20
60.6178
0
SEQEND
0
POLYLINE
8
CUT
66
1
70
0
0
VERTEX
8
CUT
10
100.2799
20
62.1822
0
VERTEX
8
CUT
10
102.6
20
63.6
0
VERTEX
8
CUT
10
113.4
20
63.6
0
VERTEX
8
CUT
10
115.7201
20
62.1822
0
SEQEND
0
POLYLINE
8
CUT
66
1
70
0
0
VERTEX
8
CUT
10
100.2799
20
60.6178
0
VERTEX
8
CUT
10
102.6
20
59.2
0
VERTEX
8
CUT
10
113.4
20
59.2
0
VERTEX
8
CUT
10
115.7201
20
60.6178
0
SEQEND
0
LINE
8
CUT
10
118.2799
20
62.1822
11
120
21
63.2333
0
LINE
8
CUT
10
118.2799
20
60.6178
11
120
21
59.5667
0
POLYLINE
8
CUT
66
1
70
0
0
VERTEX
8
CUT
10
1.2799
20
55.7822
0
VERTEX
8
CUT
10
3.6
20
57.2
0
VERTEX
8
CUT
10
14.4
20
57.2
0
VERTEX
8
CUT
10
16.7201
20
55.7822
0
SEQEND
0
POLYLINE
8
CUT
66
1
70
0
0
VERTEX
8
CUT
10
1.2799
20
54.2178
0
VERTEX
8
CUT
10
3.6
20
52.8
0
VERTEX
8
CUT
10
14.4
20
52.8
0
VERTEX
8
CUT
10
16.7201
20
54.2178
0
SEQEND
0
POLYLINE
8
CUT
66
1
70
0
0
VERTEX
8
CUT
10
19.2799
20
55.7822
0
VERTEX
8
CUT
10
21.6
20
57.2
0
VERTEX
8
CUT
10
32.4
20
57.2
0
VERTEX
8
CUT
10
34.7201
20
55.7822
0
SEQEND
0
POLYLINE
8
CUT
66
1
70
0
0
VERTEX
8
CUT
10
19.2799
20
54.2178
0
VERTEX
8
CUT
10
21.6
20
52.8
0
VERTEX
8
CUT
10
32.4
20
52.8
0
VERTEX
8
CUT
10
34.7201
20
54.2178
0
SEQEND
0
POLYLINE
8
CUT
66
1
70
0
0
VERTEX
8
CUT
10
37.2799
20
55.7822
0
VERTEX
8
CUT
10
39.6
20
57.2
0
VERTEX
8
CUT
10
50.4
20
57.2
0
VERTEX
8
CUT
10
52.7201
20
55.7822
0
SEQEND
0
POLYLINE
8
CUT
66
1
70
0
0
VERTEX
8
CUT
10
37.2799
20
54.2178
0
VERTEX
8
CUT
10
39.6
20
52.8
0
VERTEX
8
CUT
10
50.4
20
52.8
0
VERTEX
8
CUT
10
52.7201
20
54.2178
0
SEQEND
0
POLYLINE
8
CUT
66
1
70
0
0
VERTEX
8
CUT
10
55.2799
20
55.7822
0
VERTEX
8
CUT
10
57.6
20
57.2
0
VERTEX
8
CUT
10
68.4
20
57.2
0
VERTEX
8
CUT
10
70.7201
20
55.7822
0
SEQEND
0
POLYLINE
8
CUT
66
1
70
0
0
VERTEX
8
CUT
10
55.2799
20
54.2178
0
VERTEX
8
CUT
10
57.6
20
52.8
0
VERTEX
8
CUT
10
68.4
20
52.8
0
VERTEX
8
CUT
10
70.7201
20
54.2178
0
SEQEND
0
POLYLINE
8
CUT
66
1
70
0
0
VERTEX
8
CUT
10
73.2799
20
55.7822
0
VERTEX
8
CUT
10
75.6
20
57.2
0
VERTEX
8
CUT
10
86.4
20
57.2
0
VERTEX
8
CUT
10
88.7201
20
55.7822
0
SEQEND
0
POLYLINE
8
CUT
66
1
70
0
0
VERTEX
8
CUT
10
73.2799
20
54.2178
0
VERTEX
8
CUT
10
75.6
20
52.8
0
VERTEX
8
CUT
10
86.4
20
52.8
0
VERTEX
8
CUT
10
88.7201
20
54.2178
0
SEQEND
0
POLYLINE
8
CUT
66
1
70
0
0
VERTEX
8
CUT
10
91.2799
20
55.7822
0
VERTEX
8
CUT
10
93.6
20
57.2
0
VERTEX
8
CUT
10
104.4
20
57.2
0
VERTEX
8
CUT
10
106.7201
20
55.7822
0
SEQEND
0
POLYLINE
8
CUT
66
1
70
0
0
VERTEX
8
CUT
10
91.2799
20
54.2178
0
VERTEX
8
CUT
10
93.6
20
52.8
0
VERTEX
8
CUT
10
104.4
20
52.8
0
VERTEX
8
CUT
10
106.7201
20
54.2178
0
SEQEND
0
POLYLINE
8
CUT
66
1
70
0
0
VERTEX
8
CUT
10
109.2799
20
55.7822
0
VERTEX
8
CUT
10
111.6
20
57.2
0
VERTEX
8
CUT
10
120
20
57.2
0
SEQEND
0
POLYLINE
8
CUT
66
1
70
0
0
VERTEX
8
CUT
10
109.2799
20
54.2178
0
VERTEX
8
CUT
10
111.6
20
52.8
0
VERTEX
8
CUT
10
120
20
52.8
0
SEQEND
0
POLYLINE
8
CUT
66
1
70
0
0
VERTEX
8
CUT
10
0
20
50.8
0
VERTEX
8
CUT
10
5.4
20
50.8
0
VERTEX
8
CUT
10
7.7201
20
49.3822
0
SEQEND
0
POLYLINE
8
CUT
66
1
70
0
0
VERTEX
8
CUT
10
0
20
46.4
0
VERTEX
8
CUT
10
5.4
20
46.4
0
VERTEX
8
CUT
10
7.7201
20
47.8178
0
SEQEND
0
POLYLINE
8
CUT
66
1
70
0
0
VERTEX
8
CUT
10
10.2799
20
49.3822
0
VERTEX
8
CUT
10
12.6
20
50.8
0
VERTEX
8
CUT
10
23.4
20
50.8
0
VERTEX
8
CUT
10
25.7201
20
49.3822
0
SEQEND
0
POLYLINE
8
CUT
66
1
70
0
0
VERTEX
8
CUT
10
10.2799
20
47.8178
0
VERTEX
8
CUT
10
12.6
20
46.4
0
VERTEX
8
CUT
10
23.4
20
46.4
0
VERTEX
8
CUT
10
25.7201
20
47.8178
0
SEQEND
0
POLYLINE
8
CUT
66
1
70
0
0
VERTEX
8
CUT
10
28.2799
20
49.3822
0
VERTEX
8
CUT
10
30.6
20
50.8
0
VERTEX
8
CUT
10
41.4
20
50.8
0
VERTEX
8
CUT
10
43.7201
20
49.3822
0
SEQEND
0
POLYLINE
8
CUT
66
1
70
0
0
VERTEX
8
CUT
10
28.2799
20
47.8178
0
VERTEX
8
CUT
10
30.6
20
46.4
0
VERTEX
8
CUT
10
41.4
20
46.4
0
VERTEX
8
CUT
10
43.7201
20
47.8178
0
SEQEND
0
POLYLINE
8
CUT
66
1
70
0
0
VERTEX
8
CUT
10
46.2799
20
49.3822
0
VERTEX
8
CUT
10
48.6
20
50.8
0
VERTEX
8
CUT
10
59.4
20
50.8
0
VERTEX
8
CUT
10
61.7201
20
49.3822
0
SEQEND
0
POLYLINE
8
CUT
66
1
70
0
0
VERTEX
8
CUT
10
46.2799
20
47.8178
0
VERTEX
8
CUT
10
48.6
20
46.4
0
VERTEX
8
CUT
10
59.4
20
46.4
0
VERTEX
8
CUT
10
61.7201
20
47.8178
0
SEQEND
0
POLYLINE
8
CUT
66
1
70
0
0
VERTEX
8
CUT
10
64.2799
20
49.3822
0
VERTEX
8
CUT
10
66.6
20
50.8
0
VERTEX
8
CUT
10
77.4
20
50.8
0
VERTEX
8
CUT
10
79.7201
20
49.3822
0
SEQEND
0
POLYLINE
8
CUT
66
1
70
0
0
VERTEX
8
CUT
10
64.2799
20
47.8178
0
VERTEX
8
CUT
10
66.6
20
46.4
0
VERTEX
8
CUT
10
77.4
20
46.4
0
VERTEX
8
CUT
10
79.7201
20
47.8178
0
SEQEND
0
POLYLINE
8
CUT
66
1
70
0
0
VERTEX
8
CUT
10
82.2799
20
49.3822
0
VERTEX
8
CUT
10
84.6
20
50.8
0
VERTEX
8
CUT
10
95.4
20
50.8
0
VERTEX
8
CUT
10
97.7201
20
49.3822
0
SEQEND
0
POLYLINE
8
CUT
66
1
70
0
0
VERTEX
8
CUT
10
82.2799
20
47.8178
0
VERTEX
8
CUT
10
84.6
20
46.4
0
VERTEX
8
CUT
10
95.4
20
46.4
0
VERTEX
8
CUT
10
97.7201
20
47.8178
0
SEQEND
0
POLYLINE
8
CUT
66
1
70
0
0
VERTEX
8
CUT
10
100.2799
20
49.3822
0
VERTEX
8
CUT
10
102.6
20
50.8
0
VERTEX
8
CUT
10
113.4
20
50.8
0
VERTEX
8
CUT
10
115.7201
20
49.3822
0
SEQEND
0
POLYLINE
8
CUT
66
1
70
0
0
VERTEX
8
CUT
10
100.2799
20
47.8178
0
VERTEX
8
CUT
10
102.6
20
46.4
0
VERTEX
8
CUT
10
113.4
20
46.4
0
VERTEX
8
CUT
10
115.7201
20
47.8178
0
SEQEND
0
LINE
8
CUT
10
118.2799
20
49.3822
11
120
21
50.4333
0
LINE
8
CUT
10
118.2799
20
47.8178
11
120
21
46.7667
0
POLYLINE
8
CUT
66
1
70
0
0
VERTEX
8
CUT
10
1.2799
20
42.9822
0
VERTEX
8
CUT
10
3.6
20
44.4
0
VERTEX
8
CUT
10
14.4
20
44.4
0
VERTEX
8
CUT
10
16.7201
20
42.9822
0
SEQEND
0
POLYLINE
8
CUT
66
1
70
0
0
VERTEX
8
CUT
10
1.2799
20
41.4178
0
VERTEX
8
CUT
10
3.6
20
40
0
VERTEX
8
CUT
10
14.4
20
40
0
VERTEX
8
CUT
10
16.7201
20
41.4178
0
SEQEND
0
POLYLINE
8
CUT
66
1
70
0
0
VERTEX
8
CUT
10
19.2799
20
42.9822
0
VERTEX
8
CUT
10
21.6
20
44.4
0
VERTEX
8
CUT
10
32.4
20
44.4
0
VERTEX
8
CUT
10
34.7201
20
42.9822
0
SEQEND
0
POLYLINE
8
CUT
66
1
70
0
0
VERTEX
8
CUT
10
19.2799
20
41.4178
0
VERTEX
8
CUT
10
21.6
20
40
0
VERTEX
8
CUT
10
32.4
20
40
0
VERTEX
8
CUT
10
34.7201
20
41.4178
0
SEQEND
0
POLYLINE
8
CUT
66
1
70
0
0
VERTEX
8
CUT
10
37.2799
20
42.9822
0
VERTEX
8
CUT
10
39.6
20
44.4
0
VERTEX
8
CUT
10
50.4
20
44.4
0
VERTEX
8
CUT
10
52.7201
20
42.9822
0
SEQEND
0
POLYLINE
8
CUT
66
1
70
0
0
VERTEX
8
CUT
10
37.2799
20
41.4178
0
VERTEX
8
CUT
10
39.6
20
40
0
VERTEX
8
CUT
10
50.4
20
40
0
VERTEX
8
CUT
10
52.7201
20
41.4178
0
SEQEND
0
POLYLINE
8
CUT
66
1
70
0
0
VERTEX
8
CUT
10
55.2799
20
42.9822
0
VERTEX
8
CUT
10
57.6
20
44.4
0
VERTEX
8
CUT
10
68.4
20
44.4
0
VERTEX
8
CUT
10
70.7201
20
42.9822
0
SEQEND
0
POLYLINE
8
CUT
66
1
70
0
0
VERTEX
8
CUT
10
55.2799
20
41.4178
0
VERTEX
8
CUT
10
57.6
20
40
0
VERTEX
8
CUT
10
68.4
20
40
0
VERTEX
8
CUT
10
70.7201
20
41.4178
0
SEQEND
0
POLYLINE
8
CUT
66
1
70
0
0
VERTEX
8
CUT
10
73.2799
20
42.9822
0
VERTEX
8
CUT
10
75.6
20
44.4
0
VERTEX
8
CUT
10
86.4
20
44.4
0
VERTEX
8
CUT
10
88.7201
20
42.9822
0
SEQEND
0
POLYLINE
8
CUT
66
1
70
0
0
VERTEX
8
CUT
10
73.2799
20
41.4178
0
VERTEX
8
CUT
10
75.6
20
40
0
VERTEX
8
CUT
10
86.4
20
40
0
VERTEX
8
CUT
10
88.7201
20
41.4178
0
SEQEND
0
POLYLINE
8
CUT
66
1
70
0
0
VERTEX
8
CUT
10
91.2799
20
42.9822
0
VERTEX
8
CUT
10
93.6
20
44.4
0
VERTEX
8
CUT
10
104.4
20
44.4
0
VERTEX
8
CUT
10
106.7201
20
42.9822
0
SEQEND
0
POLYLINE
8
CUT
66
1
70
0
0
VERTEX
8
CUT
10
91.2799
20
41.4178
0
VERTEX
8
CUT
10
93.6
20
40
0
VERTEX
8
CUT
10
104.4
20
40
0
VERTEX
8
CUT
10
106.7201
20
41.4178
0
SEQEND
0
POLYLINE
8
CUT
66
1
70
0
0
VERTEX
8
CUT
10
109.2799
20
42.9822
0
VERTEX
8
CUT
10
111.6
20
44.4
0
VERTEX
8
CUT
10
120
20
44.4
0
SEQEND
0
POLYLINE
8
CUT
66
1
70
0
0
VERTEX
8
CUT
10
109.2799
20
41.4178
0
VERTEX
8
CUT
10
111.6
20
40
0
VERTEX
8
CUT
10
120
20
40
0
SEQEND
0
POLYLINE
8
CUT
66
1
70
0
0
VERTEX
8
CUT
10
0
20
38
0
VERTEX
8
CUT
10
5.4
20
38
0
VERTEX
8
CUT
10
7.7201
20
36.5822
0
SEQEND
0
POLYLINE
8
CUT
66
1
70
0
0
VERTEX
8
CUT
10
0
20
33.6
0
VERTEX
8
CUT
10
5.4
20
33.6
0
VERTEX
8
CUT
10
7.7201
20
35.0178
0
SEQEND
0
POLYLINE
8
CUT
66
1
70
0
0
VERTEX
8
CUT
10
10.2799
20
36.5822
0
VERTEX
8
CUT
10
12.6
20
38
0
VERTEX
8
CUT
10
23.4
20
38
0
VERTEX
8
CUT
10
25.7201
20
36.5822
0
SEQEND
0
POLYLINE
8
CUT
66
1
70
0
0
VERTEX
8
CUT
10
10.2799
20
35.0178
0
VERTEX
8
CUT
10
12.6
20
33.6
0
VERTEX
8
CUT
10
23.4
20
33.6
0
VERTEX
8
CUT
10
25.7201
20
35.0178
0
SEQEND
0
POLYLINE
8
CUT
66
1
70
0
0
VERTEX
8
CUT
10
28.2799
20
36.5822
0
VERTEX
8
CUT
10
30.6
20
38
0
VERTEX
8
CUT
10
41.4
20
38
0
VERTEX
8
CUT
10
43.7201
20
36.5822
0
SEQEND
0
POLYLINE
8
CUT
66
1
70
0
0
VERTEX
8
CUT
10
28.2799
20
35.0178
0
VERTEX
8
CUT
10
30.6
20
33.6
0
VERTEX
8
CUT
10
41.4
20
33.6
0
VERTEX
8
CUT
10
43.7201
20
35.0178
0
SEQEND
0
POLYLINE
8
CUT
66
1
70
0
0
VERTEX
8
CUT
10
46.2799
20
36.5822
0
VERTEX
8
CUT
10
48.6
20
38
0
VERTEX
8
CUT
10
59.4
20
38
0
VERTEX
8
CUT
10
61.7201
20
36.5822
0
SEQEND
0
POLYLINE
8
CUT
66
1
70
0
0
VERTEX
8
CUT
10
46.2799
20
35.0178
0
VERTEX
8
CUT
10
48.6
20
33.6
0
VERTEX
8
CUT
10
59.4
20
33.6
0
VERTEX
8
CUT
10
61.7201
20
35.0178
0
SEQEND
0
POLYLINE
8
CUT
66
1
70
0
0
VERTEX
8
CUT
10
64.2799
20
36.5822
0
VERTEX
8
CUT
10
66.6
20
38
0
VERTEX
8
CUT
10
77.4
20
38
0
VERTEX
8
CUT
10
79.7201
20
36.5822
0
SEQEND
0
POLYLINE
8
CUT
66
1
70
0
0
VERTEX
8
CUT
10
64.2799
20
35.0178
0
VERTEX
8
CUT
10
66.6
20
33.6
0
VERTEX
8
CUT
10
77.4
20
33.6
0
VERTEX
8
CUT
10
79.7201
20
35.0178
0
SEQEND
0
POLYLINE
8
CUT
66
1
70
0
0
VERTEX
8
CUT
10
82.2799
20
36.5822
0
VERTEX
8
CUT
10
84.6
20
38
0
VERTEX
8
CUT
10
95.4
20
38
0
VERTEX
8
CUT
10
97.7201
20
36.5822
0
SEQEND
0
POLYLINE
8
CUT
66
1
70
0
0
VERTEX
8
CUT
10
82.2799
20
35.0178
0
VERTEX
8
CUT
10
84.6
20
33.6
0
VERTEX
8
CUT
10
95.4
20
33.6
0
VERTEX
8
CUT
10
97.7201
20
35.0178
0
SEQEND
0
POLYLINE
8
CUT
66
1
70
0
0
VERTEX
8
CUT
10
100.2799
20
36.5822
0
VERTEX
8
CUT
10
102.6
20
38
0
VERTEX
8
CUT
10
113.4
20
38
0
VERTEX
8
CUT
10
115.7201
20
36.5822
0
SEQEND
0
POLYLINE
8
CUT
66
1
70
0
0
VERTEX
8
CUT
10
100.2799
20
35.0178
0
VERTEX
8
CUT
10
102.6
20
33.6
0
VERTEX
8
CUT
10
113.4
20
33.6
0
VERTEX
8
CUT
10
115.7201
20
35.0178
0
SEQEND
0
LINE
8
CUT
10
118.2799
20
36.5822
11
120
21
37.6333
0
LINE
8
CUT
10
118.2799
20
35.0178
11
120
21
33.9667
0
POLYLINE
8
CUT
66
1
70
0
0
VERTEX
8
CUT
10
1.2799
20
30.1822
0
VERTEX
8
CUT
10
3.6
20
31.6
0
VERTEX
8
CUT
10
14.4
20
31.6
0
VERTEX
8
CUT
10
16.7201
20
30.1822
0
SEQEND
0
POLYLINE
8
CUT
66
1
70
0
0
VERTEX
8
CUT
10
1.2799
20
28.6178
0
VERTEX
8
CUT
10
3.6
20
27.2
0
VERTEX
8
CUT
10
14.4
20
27.2
0
VERTEX
8
CUT
10
16.7201
20
28.6178
0
SEQEND
0
POLYLINE
8
CUT
66
1
70
0
0
VERTEX
8
CUT
10
19.2799
20
30.1822
0
VERTEX
8
CUT
10
21.6
20
31.6
0
VERTEX
8
CUT
10
32.4
20
31.6
0
VERTEX
8
CUT
10
34.7201
20
30.1822
0
SEQEND
0
POLYLINE
8
CUT
66
1
70
0
0
VERTEX
8
CUT
10
19.2799
20
28.6178
0
VERTEX
8
CUT
10
21.6
20
27.2
0
VERTEX
8
CUT
10
32.4
20
27.2
0
VERTEX
8
CUT
10
34.7201
20
28.6178
0
SEQEND
0
POLYLINE
8
CUT
66
1
70
0
0
VERTEX
8
CUT
10
37.2799
20
30.1822
0
VERTEX
8
CUT
10
39.6
20
31.6
0
VERTEX
8
CUT
10
50.4
20
31.6
0
VERTEX
8
CUT
10
52.7201
20
30.1822
0
SEQEND
0
POLYLINE
8
CUT
66
1
70
0
0
VERTEX
8
CUT
10
37.2799
20
28.6178
0
VERTEX
8
CUT
10
39.6
20
27.2
0
VERTEX
8
CUT
10
50.4
20
27.2
0
VERTEX
8
CUT
10
52.7201
20
28.6178
0
SEQEND
0
POLYLINE
8
CUT
66
1
70
0
0
VERTEX
8
CUT
10
55.2799
20
30.1822
0
VERTEX
8
CUT
10
57.6
20
31.6
0
VERTEX
8
CUT
10
68.4
20
31.6
0
VERTEX
8
CUT
10
70.7201
20
30.1822
0
SEQEND
0
POLYLINE
8
CUT
66
1
70
0
0
VERTEX
8
CUT
10
55.2799
20
28.6178
0
VERTEX
8
CUT
10
57.6
20
27.2
0
VERTEX
8
CUT
10
68.4
20
27.2
0
VERTEX
8
CUT
10
70.7201
20
28.6178
0
SEQEND
0
POLYLINE
8
CUT
66
1
70
0
0
VERTEX
8
CUT
10
73.2799
20
30.1822
0
VERTEX
8
CUT
10
75.6
20
31.6
0
VERTEX
8
CUT
10
86.4
20
31.6
0
VERTEX
8
CUT
10
88.7201
20
30.1822
0
SEQEND
0
POLYLINE
8
CUT
66
1
70
0
0
VERTEX
8
CUT
10
73.2799
20
28.6178
0
VERTEX
8
CUT
10
75.6
20
27.2
0
VERTEX
8
CUT
10
86.4
20
27.2
0
VERTEX
8
CUT
10
88.7201
20
28.6178
0
SEQEND
0
POLYLINE
8
CUT
66
1
70
0
0
VERTEX
8
CUT
10
91.2799
20
30.1822
0
VERTEX
8
CUT
10
93.6
20
31.6
0
VERTEX
8
CUT
10
104.4
20
31.6
0
VERTEX
8
CUT
10
106.7201
20
30.1822
0
SEQEND
0
POLYLINE
8
CUT
66
1
70
0
0
VERTEX
8
CUT
10
91.2799
20
28.6178
0
VERTEX
8
CUT
10
93.6
20
27.2
0
VERTEX
8
CUT
10
104.4
20
27.2
0
VERTEX
8
CUT
10
106.7201
20
28.6178
0
SEQEND
0
POLYLINE
8
CUT
66
1
70
0
0
VERTEX
8
CUT
10
109.2799
20
30.1822
0
VERTEX
8
CUT
10
111.6
20
31.6
0
VERTEX
8
CUT
10
120
20
31.6
0
SEQEND
0
POLYLINE
8
CUT
66
1
70
0
0
VERTEX
8
CUT
10
109.2799
20
28.6178
0
VERTEX
8
CUT
10
111.6
20
27.2
0
VERTEX
8
CUT
10
120
20
27.2
0
SEQEND
0
POLYLINE
8
CUT
66
1
70
0
0
VERTEX
8
CUT
10
0
20
25.2
0
VERTEX
8
CUT
10
5.4
20
25.2
0
VERTEX
8
CUT
10
7.7201
20
23.7822
0
SEQEND
0
POLYLINE
8
CUT
66
1
70
0
0
VERTEX
8
CUT
10
0
20
20.8
0
VERTEX
8
CUT
10
5.4
20
20.8
0
VERTEX
8
CUT
10
7.7201
20
22.2178
0
SEQEND
0
POLYLINE
8
CUT
66
1
70
0
0
VERTEX
8
CUT
10
10.2799
20
23.7822
0
VERTEX
8
CUT
10
12.6
20
25.2
0
VERTEX
8
CUT
10
23.4
20
25.2
0
VERTEX
8
CUT
10
25.7201
20
23.7822
0
SEQEND
0
POLYLINE
8
CUT
66
1
70
0
0
VERTEX
8
CUT
10
10.2799
20
22.2178
0
VERTEX
8
CUT
10
12.6
20
20.8
0
VERTEX
8
CUT
10
23.4
20
20.8
0
VERTEX
8
CUT
10
25.7201
20
22.2178
0
SEQEND
0
POLYLINE
8
CUT
66
1
70
0
0
VERTEX
8
CUT
10
28.2799
20
23.7822
0
VERTEX
8
CUT
10
30.6
20
25.2
0
VERTEX
8
CUT
10
41.4
20
25.2
0
VERTEX
8
CUT
10
43.7201
20
23.7822
0
SEQEND
0
POLYLINE
8
CUT
66
1
70
0
0
VERTEX
8
CUT
10
28.2799
20
22.2178
0
VERTEX
8
CUT
10
30.6
20
20.8
0
VERTEX
8
CUT
10
41.4
20
20.8
0
VERTEX
8
CUT
10
43.7201
20
22.2178
0
SEQEND
0
POLYLINE
8
CUT
66
1
70
0
0
VERTEX
8
CUT
10
46.2799
20
23.7822
0
VERTEX
8
CUT
10
48.6
20
25.2
0
VERTEX
8
CUT
10
59.4
20
25.2
0
VERTEX
8
CUT
10
61.7201
20
23.7822
0
SEQEND
0
POLYLINE
8
CUT
66
1
70
0
0
VERTEX
8
CUT
10
46.2799
20
22.2178
0
VERTEX
8
CUT
10
48.6
20
20.8
0
VERTEX
8
CUT
10
59.4
20
20.8
0
VERTEX
8
CUT
10
61.7201
20
22.2178
0
SEQEND
0
POLYLINE
8
CUT
66
1
70
0
0
VERTEX
8
CUT
10
64.2799
20
23.7822
0
VERTEX
8
CUT
10
66.6
20
25.2
0
VERTEX
8
CUT
10
77.4
20
25.2
0
VERTEX
8
CUT
10
79.7201
20
23.7822
0
SEQEND
0
POLYLINE
8
CUT
66
1
70
0
0
VERTEX
8
CUT
10
64.2799
20
22.2178
0
VERTEX
8
CUT
10
66.6
20
20.8
0
VERTEX
8
CUT
10
77.4
20
20.8
0
VERTEX
8
CUT
10
79.7201
20
22.2178
0
SEQEND
0
POLYLINE
8
CUT
66
1
70
0
0
VERTEX
8
CUT
10
82.2799
20
23.7822
0
VERTEX
8
CUT
10
84.6
20
25.2
0
VERTEX
8
CUT
10
95.4
20
25.2
0
VERTEX
8
CUT
10
97.7201
20
23.7822
0
SEQEND
0
POLYLINE
8
CUT
66
1
70
0
0
VERTEX
8
CUT
10
82.2799
20
22.2178
0
VERTEX
8
CUT
10
84.6
20
20.8
0
VERTEX
8
CUT
10
95.4
20
20.8
0
VERTEX
8
CUT
10
97.7201
20
22.2178
0
SEQEND
0
POLYLINE
8
CUT
66
1
70
0
0
VERTEX
8
CUT
10
100.2799
20
23.7822
0
VERTEX
8
CUT
10
102.6
20
25.2
0
VERTEX
8
CUT
10
113.4
20
25.2
0
VERTEX
8
CUT
10
115.7201
20
23.7822
0
SEQEND
0
POLYLINE
8
CUT
66
1
70
0
0
VERTEX
8
CUT
10
100.2799
20
22.2178
0
VERTEX
8
CUT
10
102.6
20
20.8
0
VERTEX
8
CUT
10
113.4
20
20.8
0
VERTEX
8
CUT
10
115.7201
20
22.2178
0
SEQEND
0
LINE
8
CUT
10
118.2799
20
23.7822
11
120
21
24.8333
0
LINE
8
CUT
10
118.2799
20
22.2178
11
120
21
21.1667
0
POLYLINE
8
CUT
66
1
70
0
0
VERTEX
8
CUT
10
1.2799
20
17.3822
0
VERTEX
8
CUT
10
3.6
20
18.8
0
VERTEX
8
CUT
10
14.4
20
18.8
0
VERTEX
8
CUT
10
16.7201
20
17.3822
0
SEQEND
0
POLYLINE
8
CUT
66
1
70
0
0
VERTEX
8
CUT
10
1.2799
20
15.8178
0
VERTEX
8
CUT
10
3.6
20
14.4
0
VERTEX
8
CUT
10
14.4
20
14.4
0
VERTEX
8
CUT
10
16.7201
20
15.8178
0
SEQEND
0
POLYLINE
8
CUT
66
1
70
0
0
VERTEX
8
CUT
10
19.2799
20
17.3822
0
VERTEX
8
CUT
10
21.6
20
18.8
0
VERTEX
8
CUT
10
32.4
20
18.8
0
VERTEX
8
CUT
10
34.7201
20
17.3822
0
SEQEND
0
POLYLINE
8
CUT
66
1
70
0
0
VERTEX
8
CUT
10
19.2799
20
15.8178
0
VERTEX
8
CUT
10
21.6
20
14.4
0
VERTEX
8
CUT
10
32.4
20
14.4
0
VERTEX
8
CUT
10
34.7201
20
15.8178
0
SEQEND
0
POLYLINE
8
CUT
66
1
70
0
0
VERTEX
8
CUT
10
37.2799
20
17.3822
0
VERTEX
8
CUT
10
39.6
20
18.8
0
VERTEX
8
CUT
10
50.4
20
18.8
0
VERTEX
8
CUT
10
52.7201
20
17.3822
0
SEQEND
0
POLYLINE
8
CUT
66
1
70
0
0
VERTEX
8
CUT
10
37.2799
20
15.8178
0
VERTEX
8
CUT
10
39.6
20
14.4
0
VERTEX
8
CUT
10
50.4
20
14.4
0
VERTEX
8
CUT
10
52.7201
20
15.8178
0
SEQEND
0
POLYLINE
8
CUT
66
1
70
0
0
VERTEX
8
CUT
10
55.2799
20
17.3822
0
VERTEX
8
CUT
10
57.6
20
18.8
0
VERTEX
8
CUT
10
68.4
20
18.8
0
VERTEX
8
CUT
10
70.7201
20
17.3822
0
SEQEND
0
POLYLINE
8
CUT
66
1
70
0
0
VERTEX
8
CUT
10
55.2799
20
15.8178
0
VERTEX
8
CUT
10
57.6
20
14.4
0
VERTEX
8
CUT
10
68.4
20
14.4
0
VERTEX
8
CUT
10
70.7201
20
15.8178
0
SEQEND
0
POLYLINE
8
CUT
66
1
70
0
0
VERTEX
8
CUT
10
73.2799
20
17.3822
0
VERTEX
8
CUT
10
75.6
20
18.8
0
VERTEX
8
CUT
10
86.4
20
18.8
0
VERTEX
8
CUT
10
88.7201
20
17.3822
0
SEQEND
0
POLYLINE
8
CUT
66
1
70
0
0
VERTEX
8
CUT
10
73.2799
20
15.8178
0
VERTEX
8
CUT
10
75.6
20
14.4
0
VERTEX
8
CUT
10
86.4
20
14.4
0
VERTEX
8
CUT
10
88.7201
20
15.8178
0
SEQEND
0
POLYLINE
8
CUT
66
1
70
0
0
VERTEX
8
CUT
10
91.2799
20
17.3822
0
VERTEX
8
CUT
10
93.6
20
18.8
0
VERTEX
8
CUT
10
104.4
20
18.8
0
VERTEX
8
CUT
10
106.7201
20
17.3822
0
SEQEND
0
POLYLINE
8
CUT
66
1
70
0
0
VERTEX
8
CUT
10
91.2799
20
15.8178
0
VERTEX
8
CUT
10
93.6
20
14.4
0
VERTEX
8
CUT
10
104.4
20
14.4
0
VERTEX
8
CUT
10
106.7201
20
15.8178
0
SEQEND
0
POLYLINE
8
CUT
66
1
70
0
0
VERTEX
8
CUT
10
109.2799
20
17.3822
0
VERTEX
8
CUT
10
111.6
20
18.8
0
VERTEX
8
CUT
10
120
20
18.8
0
SEQEND
0
POLYLINE
8
CUT
66
1
70
0
0
VERTEX
8
CUT
10
109.2799
20
15.8178
0
VERTEX
8
CUT
10
111.6
20
14.4
0
VERTEX
8
CUT
10
120
20
14.4
0
SEQEND
0
POLYLINE
8
CUT
66
1
70
0
0
VERTEX
8
CUT
10
0
20
12.4
0
VERTEX
8
CUT
10
5.4
20
12.4
0
VERTEX
8
CUT
10
7.7201
20
10.9822
0
SEQEND
0
POLYLINE
8
CUT
66
1
70
0
0
VERTEX
8
CUT
10
0
20
8
0
VERTEX
8
CUT
10
5.4
20
8
0
VERTEX
8
CUT
10
7.7201
20
9.4178
0
SEQEND
0
POLYLINE
8
CUT
66
1
70
0
0
VERTEX
8
CUT
10
10.2799
20
10.9822
0
VERTEX
8
CUT
10
12.6
20
12.4
0
VERTEX
8
CUT
10
23.4
20
12.4
0
VERTEX
8
CUT
10
25.7201
20
10.9822
0
SEQEND
0
POLYLINE
8
CUT
66
1
70
0
0
VERTEX
8
CUT
10
10.2799
20
9.4178
0
VERTEX
8
CUT
10
12.6
20
8
0
VERTEX
8
CUT
10
23.4
20
8
0
VERTEX
8
CUT
10
25.7201
20
9.4178
0
SEQEND
0
POLYLINE
8
CUT
66
1
70
0
0
VERTEX
8
CUT
10
28.2799
20
10.9822
0
VERTEX
8
CUT
10
30.6
20
12.4
0
VERTEX
8
CUT
10
41.4
20
12.4
0
VERTEX
8
CUT
10
43.7201
20
10.9822
0
SEQEND
0
POLYLINE
8
CUT
66
1
70
0
0
VERTEX
8
CUT
10
28.2799
20
9.4178
0
VERTEX
8
CUT
10
30.6
20
8
0
VERTEX
8
CUT
10
41.4
20
8
0
VERTEX
8
CUT
10
43.7201
20
9.4178
0
SEQEND
0
POLYLINE
8
CUT
66
1
70
0
0
VERTEX
8
CUT
10
46.2799
20
10.9822
0
VERTEX
8
CUT
10
48.6
20
12.4
0
VERTEX
8
CUT
10
59.4
20
12.4
0
VERTEX
8
CUT
10
61.7201
20
10.9822
0
SEQEND
0
POLYLINE
8
CUT
66
1
70
0
0
VERTEX
8
CUT
10
46.2799
20
9.4178
0
VERTEX
8
CUT
10
48.6
20
8
0
VERTEX
8
CUT
10
59.4
20
8
0
VERTEX
8
CUT
10
61.7201
20
9.4178
0
SEQEND
0
POLYLINE
8
CUT
66
1
70
0
0
VERTEX
8
CUT
10
64.2799
20
10.9822
0
VERTEX
8
CUT
10
66.6
20
12.4
0
VERTEX
8
CUT
10
77.4
20
12.4
0
VERTEX
8
CUT
10
79.7201
20
10.9822
0
SEQEND
0
POLYLINE
8
CUT
66
1
70
0
0
VERTEX
8
CUT
10
64.2799
20
9.4178
0
VERTEX
8
CUT
10
66.6
20
8
0
VERTEX
8
CUT
10
77.4
20
8
0
VERTEX
8
CUT
10
79.7201
20
9.4178
0
SEQEND
0
POLYLINE
8
CUT
66
1
70
0
0
VERTEX
8
CUT
10
82.2799
20
10.9822
0
VERTEX
8
CUT
10
84.6
20
12.4
0
VERTEX
8
CUT
10
95.4
20
12.4
0
VERTEX
8
CUT
10
97.7201
20
10.9822
0
SEQEND
0
POLYLINE
8
CUT
66
1
70
0
0
VERTEX
8
CUT
10
82.2799
20
9.4178
0
VERTEX
8
CUT
10
84.6
20
8
0
VERTEX
8
CUT
10
95.4
20
8
0
VERTEX
8
CUT
10
97.7201
20
9.4178
0
SEQEND
0
POLYLINE
8
CUT
66
1
70
0
0
VERTEX
8
CUT
10
100.2799
20
10.9822
0
VERTEX
8
CUT
10
102.6
20
12.4
0
VERTEX
8
CUT
10
113.4
20
12.4
0
VERTEX
8
CUT
10
115.7201
20
10.9822
0
SEQEND
0
POLYLINE
8
CUT
66
1
70
0
0
VERTEX
8
CUT
10
100.2799
20
9.4178
0
VERTEX
8
CUT
10
102.6
20
8
0
VERTEX
8
CUT
10
113.4
20
8
0
VERTEX
8
CUT
10
115.7201
20
9.4178
0
SEQEND
0
LINE
8
CUT
10
118.2799
20
10.9822
11
120
21
12.0333
0
LINE
8
CUT
10
118.2799
20
9.4178
11
120
21
8.3667
0
POLYLINE
8
CUT
66
1
70
0
0
VERTEX
8
CUT
10
1.2799
20
4.5822
0
VERTEX
8
CUT
10
3.6
20
6
0
VERTEX
8
CUT
10
14.4
20
6
0
VERTEX
8
CUT
10
16.7201
20
4.5822
0
SEQEND
0
POLYLINE
8
CUT
66
1
70
0
0
VERTEX
8
CUT
10
1.2799
20
3.0178
0
VERTEX
8
CUT
10
3.6
20
1.6
0
VERTEX
8
CUT
10
14.4
20
1.6
0
VERTEX
8
CUT
10
16.7201
20
3.0178
0
SEQEND
0
POLYLINE
8
CUT
66
1
70
0
0
VERTEX
8
CUT
10
19.2799
20
4.5822
0
VERTEX
8
CUT
10
21.6
20
6
0
VERTEX
8
CUT
10
32.4
20
6
0
VERTEX
8
CUT
10
34.7201
20
4.5822
0
SEQEND
0
POLYLINE
8
CUT
66
1
70
0
0
VERTEX
8
CUT
10
19.2799
20
3.0178
0
VERTEX
8
CUT
10
21.6
20
1.6
0
VERTEX
8
CUT
10
32.4
20
1.6
0
VERTEX
8
CUT
10
34.7201
20
3.0178
0
SEQEND
0
POLYLINE
8
CUT
66
1
70
0
0
VERTEX
8
CUT
10
37.2799
20
4.5822
0
VERTEX
8
CUT
10
39.6
20
6
0
VERTEX
8
CUT
10
50.4
20
6
0
VERTEX
8
CUT
10
52.7201
20
4.5822
0
SEQEND
0
POLYLINE
8
CUT
66
1
70
0
0
VERTEX
8
CUT
10
37.2799
20
3.0178
0
VERTEX
8
CUT
10
39.6
20
1.6
0
VERTEX
8
CUT
10
50.4
20
1.6
0
VERTEX
8
CUT
10
52.7201
20
3.0178
0
SEQEND
0
POLYLINE
8
CUT
66
1
70
0
0
VERTEX
8
CUT
10
55.2799
20
4.5822
0
VERTEX
8
CUT
10
57.6
20
6
0
VERTEX
8
CUT
10
68.4
20
6
0
VERTEX
8
CUT
10
70.7201
20
4.5822
0
SEQEND
0
POLYLINE
8
CUT
66
1
70
0
0
VERTEX
8
CUT
10
55.2799
20
3.0178
0
VERTEX
8
CUT
10
57.6
20
1.6
0
VERTEX
8
CUT
10
68.4
20
1.6
0
VERTEX
8
CUT
10
70.7201
20
3.0178
0
SEQEND
0
POLYLINE
8
CUT
66
1
70
0
0
VERTEX
8
CUT
10
73.2799
20
4.5822
0
VERTEX
8
CUT
10
75.6
20
6
0
VERTEX
8
CUT
10
86.4
20
6
0
VERTEX
8
CUT
10
88.7201
20
4.5822
0
SEQEND
0
POLYLINE
8
CUT
66
1
70
0
0
VERTEX
8
CUT
10
73.2799
20
3.0178
0
VERTEX
8
CUT
10
75.6
20
1.6
0
VERTEX
8
CUT
10
86.4
20
1.6
0
VERTEX
8
CUT
10
88.7201
20
3.0178
0
SEQEND
0
POLYLINE
8
CUT
66
1
70
0
0
VERTEX
8
CUT
10
91.2799
20
4.5822
0
VERTEX
8
CUT
10
93.6
20
6
0
VERTEX
8
CUT
10
104.4
20
6
0
VERTEX
8
CUT
10
106.7201
20
4.5822
0
SEQEND
0
POLYLINE
8
CUT
66
1
70
0
0
VERTEX
8
CUT
10
91.2799
20
3.0178
0
VERTEX
8
CUT
10
93.6
20
1.6
0
VERTEX
8
CUT
10
104.4
20
1.6
0
VERTEX
8
CUT
10
106.7201
20
3.0178
0
SEQEND
0
POLYLINE
8
CUT
66
1
70
0
0
VERTEX
8
CUT
10
109.2799
20
4.5822
0
VERTEX
8
CUT
10
111.6
20
6
0
VERTEX
8
CUT
10
120
20
6
0
SEQEND
0
POLYLINE
8
CUT
66
1
70
0
0
VERTEX
8
CUT
10
109.2799
20
3.0178
0
VERTEX
8
CUT
10
111.6
20
1.6
0
VERTEX
8
CUT
10
120
20
1.6
0
SEQEND
0
POLYLINE
8
CUT
66
1
70
0
0
VERTEX
8
CUT
10
0
20
70
0
VERTEX
8
CUT
10
120
20
70
0
VERTEX
8
CUT
10
120
20
0
0
VERTEX
8
CUT
10
0
20
0
0
VERTEX
8
CUT
10
0
20
70
0
SEQEND
0
ENDSEC
0
EOF
