0
SECTION
2
HEADER
9
$ACADVER
1
AC1009
9
$INSUNITS
70
4
0
ENDSEC
0
SECTION
2
TABLES
0
TABLE
2
LAYER
70
1
0
LAYER
2
CUT
70
0
62
1
6
CONTINUOUS
0
ENDTAB
0
ENDSEC
0
SECTION
2
ENTITIES
0
LINE
8
CUT
10
0.8666
20
69.2918
11
1.8479
21
70
0
LINE
8
CUT
10
12.7661
20
69.2918
11
13.7474
21
70
0
LINE
8
CUT
10
9.3521
20
70
11
10.5105
21
69.164
0
LINE
8
CUT
10
24.6656
20
69.2918
11
25.6469
21
70
0
LINE
8
CUT
10
21.2516
20
70
11
22.41
21
69.164
0
LINE
8
CUT
10
36.565
20
69.2918
11
37.5463
21
70
0
LINE
8
CUT
10
33.1511
20
70
11
34.3095
21
69.164
0
LINE
8
CUT
10
48.4645
20
69.2918
11
49.4458
21
70
0
LINE
8
CUT
10
45.0506
20
70
11
46.209
21
69.164
0
LINE
8
CUT
10
60.364
20
69.2918
11
61.3453
21
70
0
LINE
8
CUT
10
56.9501
20
70
11
58.1084
21
69.164
0
LINE
8
CUT
10
72.2635
20
69.2918
11
73.2448
21
70
0
LINE
8
CUT
10
68.8495
20
70
11
70.0079
21
69.164
0
LINE
8
CUT
10
84.163
20
69.2918
11
85.1443
21
70
0
LINE
8
CUT
10
80.749
20
70
11
81.9074
21
69.164
0
LINE
8
CUT
10
96.0625
20
69.2918
11
97.0438
21
70
0
LINE
8
CUT
10
92.6485
20
70
11
93.8069
21
69.164
0
LINE
8
CUT
10
107.9619
20
69.2918
11
108.9432
21
70
0
LINE
8
CUT
10
104.548
20
70
11
105.7064
21
69.164
0
LINE
8
CUT
10
116.4475
20
70
11
117.6059
21
69.164
0
POLYLINE
8
CUT
66
1
70
0
0
VERTEX
8
CUT
10
5.6
20
57.8
0
VERTEX
8
CUT
10
9.2027
20
60.4
0
VERTEX
8
CUT
10
9.2027
20
65.6
0
VERTEX
8
CUT
10
5.6
20
68.2
0
VERTEX
8
CUT
10
1.9973
20
65.6
0
VERTEX
8
CUT
10
1.9973
20
60.4
0
VERTEX
8
CUT
10
5.6
20
57.8
0
SEQEND
0
POLYLINE
8
CUT
66
1
70
0
0
VERTEX
8
CUT
10
6.8163
20
56.8778
0
VERTEX
8
CUT
10
10.4497
20
59.5
0
VERTEX
8
CUT
10
10.4497
20
64.7444
0
SEQEND
0
POLYLINE
8
CUT
66
1
70
0
0
VERTEX
8
CUT
10
9.2334
20
67.3778
0
VERTEX
8
CUT
10
5.6
20
70
0
VERTEX
8
CUT
10
1.9666
20
67.3778
0
SEQEND
0
POLYLINE
8
CUT
66
1
70
0
0
VERTEX
8
CUT
10
0.7503
20
65
0
VERTEX
8
CUT
10
0.7503
20
59.5
0
VERTEX
8
CUT
10
4.5608
20
56.75
0
SEQEND
0
POLYLINE
8
CUT
66
1
70
0
0
VERTEX
8
CUT
10
17.4995
20
57.8
0
VERTEX
8
CUT
10
21.1022
20
60.4
0
VERTEX
8
CUT
10
21.1022
20
65.6
0
VERTEX
8
CUT
10
17.4995
20
68.2
0
VERTEX
8
CUT
10
13.8968
20
65.6
0
VERTEX
8
CUT
10
13.8968
20
60.4
0
VERTEX
8
CUT
10
17.4995
20
57.8
0
SEQEND
0
POLYLINE
8
CUT
66
1
70
0
0
VERTEX
8
CUT
10
18.7158
20
56.8778
0
VERTEX
8
CUT
10
22.3492
20
59.5
0
VERTEX
8
CUT
10
22.3492
20
64.7444
0
SEQEND
0
POLYLINE
8
CUT
66
1
70
0
0
VERTEX
8
CUT
10
21.1329
20
67.3778
0
VERTEX
8
CUT
10
17.4995
20
70
0
VERTEX
8
CUT
10
13.8661
20
67.3778
0
SEQEND
0
POLYLINE
8
CUT
66
1
70
0
0
VERTEX
8
CUT
10
12.6497
20
65
0
VERTEX
8
CUT
10
12.6497
20
59.5
0
VERTEX
8
CUT
10
16.4603
20
56.75
0
SEQEND
0
POLYLINE
8
CUT
66
1
70
0
0
VERTEX
8
CUT
10
29.399
20
57.8
0
VERTEX
8
CUT
10
33.0016
20
60.4
0
VERTEX
8
CUT
10
33.0016
20
65.6
0
VERTEX
8
CUT
10
29.399
20
68.2
0
VERTEX
8
CUT
10
25.7963
20
65.6
0
VERTEX
8
CUT
10
25.7963
20
60.4
0
VERTEX
8
CUT
10
29.399
20
57.8
0
SEQEND
0
POLYLINE
8
CUT
66
1
70
0
0
VERTEX
8
CUT
10
30.6153
20
56.8778
0
VERTEX
8
CUT
10
34.2487
20
59.5
0
VERTEX
8
CUT
10
34.2487
20
64.7444
0
SEQEND
0
POLYLINE
8
CUT
66
1
70
0
0
VERTEX
8
CUT
10
33.0324
20
67.3778
0
VERTEX
8
CUT
10
29.399
20
70
0
VERTEX
8
CUT
10
25.7656
20
67.3778
0
SEQEND
0
POLYLINE
8
CUT
66
1
70
0
0
VERTEX
8
CUT
10
24.5492
20
65
0
VERTEX
8
CUT
10
24.5492
20
59.5
0
VERTEX
8
CUT
10
28.3597
20
56.75
0
SEQEND
0
POLYLINE
8
CUT
66
1
70
0
0
VERTEX
8
CUT
10
41.2985
20
57.8
0
VERTEX
8
CUT
10
44.9011
20
60.4
0
VERTEX
8
CUT
10
44.9011
20
65.6
0
VERTEX
8
CUT
10
41.2985
20
68.2
0
VERTEX
8
CUT
10
37.6958
20
65.6
0
VERTEX
8
CUT
10
37.6958
20
60.4
0
VERTEX
8
CUT
10
41.2985
20
57.8
0
SEQEND
0
POLYLINE
8
CUT
66
1
70
0
0
VERTEX
8
CUT
10
42.5148
20
56.8778
0
VERTEX
8
CUT
10
46.1482
20
59.5
0
VERTEX
8
CUT
10
46.1482
20
64.7444
0
SEQEND
0
POLYLINE
8
CUT
66
1
70
0
0
VERTEX
8
CUT
10
44.9319
20
67.3778
0
VERTEX
8
CUT
10
41.2985
20
70
0
VERTEX
8
CUT
10
37.665
20
67.3778
0
SEQEND
0
POLYLINE
8
CUT
66
1
70
0
0
VERTEX
8
CUT
10
36.4487
20
65
0
VERTEX
8
CUT
10
36.4487
20
59.5
0
VERTEX
8
CUT
10
40.2592
20
56.75
0
SEQEND
0
POLYLINE
8
CUT
66
1
70
0
0
VERTEX
8
CUT
10
53.1979
20
57.8
0
VERTEX
8
CUT
10
56.8006
20
60.4
0
VERTEX
8
CUT
10
56.8006
20
65.6
0
VERTEX
8
CUT
10
53.1979
20
68.2
0
VERTEX
8
CUT
10
49.5953
20
65.6
0
VERTEX
8
CUT
10
49.5953
20
60.4
0
VERTEX
8
CUT
10
53.1979
20
57.8
0
SEQEND
0
POLYLINE
8
CUT
66
1
70
0
0
VERTEX
8
CUT
10
54.4143
20
56.8778
0
VERTEX
8
CUT
10
58.0477
20
59.5
0
VERTEX
8
CUT
10
58.0477
20
64.7444
0
SEQEND
0
POLYLINE
8
CUT
66
1
70
0
0
VERTEX
8
CUT
10
56.8314
20
67.3778
0
VERTEX
8
CUT
10
53.1979
20
70
0
VERTEX
8
CUT
10
49.5645
20
67.3778
0
SEQEND
0
POLYLINE
8
CUT
66
1
70
0
0
VERTEX
8
CUT
10
48.3482
20
65
0
VERTEX
8
CUT
10
48.3482
20
59.5
0
VERTEX
8
CUT
10
52.1587
20
56.75
0
SEQEND
0
POLYLINE
8
CUT
66
1
70
0
0
VERTEX
8
CUT
10
65.0974
20
57.8
0
VERTEX
8
CUT
10
68.7001
20
60.4
0
VERTEX
8
CUT
10
68.7001
20
65.6
0
VERTEX
8
CUT
10
65.0974
20
68.2
0
VERTEX
8
CUT
10
61.4948
20
65.6
0
VERTEX
8
CUT
10
61.4948
20
60.4
0
VERTEX
8
CUT
10
65.0974
20
57.8
0
SEQEND
0
POLYLINE
8
CUT
66
1
70
0
0
VERTEX
8
CUT
10
66.3137
20
56.8778
0
VERTEX
8
CUT
10
69.9472
20
59.5
0
VERTEX
8
CUT
10
69.9472
20
64.7444
0
SEQEND
0
POLYLINE
8
CUT
66
1
70
0
0
VERTEX
8
CUT
10
68.7308
20
67.3778
0
VERTEX
8
CUT
10
65.0974
20
70
0
VERTEX
8
CUT
10
61.464
20
67.3778
0
SEQEND
0
POLYLINE
8
CUT
66
1
70
0
0
VERTEX
8
CUT
10
60.2477
20
65
0
VERTEX
8
CUT
10
60.2477
20
59.5
0
VERTEX
8
CUT
10
64.0582
20
56.75
0
SEQEND
0
POLYLINE
8
CUT
66
1
70
0
0
VERTEX
8
CUT
10
76.9969
20
57.8
0
VERTEX
8
CUT
10
80.5996
20
60.4
0
VERTEX
8
CUT
10
80.5996
20
65.6
0
VERTEX
8
CUT
10
76.9969
20
68.2
0
VERTEX
8
CUT
10
73.3942
20
65.6
0
VERTEX
8
CUT
10
73.3942
20
60.4
0
VERTEX
8
CUT
10
76.9969
20
57.8
0
SEQEND
0
POLYLINE
8
CUT
66
1
70
0
0
VERTEX
8
CUT
10
78.2132
20
56.8778
0
VERTEX
8
CUT
10
81.8466
20
59.5
0
VERTEX
8
CUT
10
81.8466
20
64.7444
0
SEQEND
0
POLYLINE
8
CUT
66
1
70
0
0
VERTEX
8
CUT
10
80.6303
20
67.3778
0
VERTEX
8
CUT
10
76.9969
20
70
0
VERTEX
8
CUT
10
73.3635
20
67.3778
0
SEQEND
0
POLYLINE
8
CUT
66
1
70
0
0
VERTEX
8
CUT
10
72.1472
20
65
0
VERTEX
8
CUT
10
72.1472
20
59.5
0
VERTEX
8
CUT
10
75.9577
20
56.75
0
SEQEND
0
POLYLINE
8
CUT
66
1
70
0
0
VERTEX
8
CUT
10
88.8964
20
57.8
0
VERTEX
8
CUT
10
92.4991
20
60.4
0
VERTEX
8
CUT
10
92.4991
20
65.6
0
VERTEX
8
CUT
10
88.8964
20
68.2
0
VERTEX
8
CUT
10
85.2937
20
65.6
0
VERTEX
8
CUT
10
85.2937
20
60.4
0
VERTEX
8
CUT
10
88.8964
20
57.8
0
SEQEND
0
POLYLINE
8
CUT
66
1
70
0
0
VERTEX
8
CUT
10
90.1127
20
56.8778
0
VERTEX
8
CUT
10
93.7461
20
59.5
0
VERTEX
8
CUT
10
93.7461
20
64.7444
0
SEQEND
0
POLYLINE
8
CUT
66
1
70
0
0
VERTEX
8
CUT
10
92.5298
20
67.3778
0
VERTEX
8
CUT
10
88.8964
20
70
0
VERTEX
8
CUT
10
85.263
20
67.3778
0
SEQEND
0
POLYLINE
8
CUT
66
1
70
0
0
VERTEX
8
CUT
10
84.0466
20
65
0
VERTEX
8
CUT
10
84.0466
20
59.5
0
VERTEX
8
CUT
10
87.8572
20
56.75
0
SEQEND
0
POLYLINE
8
CUT
66
1
70
0
0
VERTEX
8
CUT
10
100.7959
20
57.8
0
VERTEX
8
CUT
10
104.3985
20
60.4
0
VERTEX
8
CUT
10
104.3985
20
65.6
0
VERTEX
8
CUT
10
100.7959
20
68.2
0
VERTEX
8
CUT
10
97.1932
20
65.6
0
VERTEX
8
CUT
10
97.1932
20
60.4
0
VERTEX
8
CUT
10
100.7959
20
57.8
0
SEQEND
0
POLYLINE
8
CUT
66
1
70
0
0
VERTEX
8
CUT
10
102.0122
20
56.8778
0
VERTEX
8
CUT
10
105.6456
20
59.5
0
VERTEX
8
CUT
10
105.6456
20
64.7444
0
SEQEND
0
POLYLINE
8
CUT
66
1
70
0
0
VERTEX
8
CUT
10
104.4293
20
67.3778
0
VERTEX
8
CUT
10
100.7959
20
70
0
VERTEX
8
CUT
10
97.1625
20
67.3778
0
SEQEND
0
POLYLINE
8
CUT
66
1
70
0
0
VERTEX
8
CUT
10
95.9461
20
65
0
VERTEX
8
CUT
10
95.9461
20
59.5
0
VERTEX
8
CUT
10
99.7566
20
56.75
0
SEQEND
0
POLYLINE
8
CUT
66
1
70
0
0
VERTEX
8
CUT
10
112.6954
20
57.8
0
VERTEX
8
CUT
10
116.298
20
60.4
0
VERTEX
8
CUT
10
116.298
20
65.6
0
VERTEX
8
CUT
10
112.6954
20
68.2
0
VERTEX
8
CUT
10
109.0927
20
65.6
0
VERTEX
8
CUT
10
109.0927
20
60.4
0
VERTEX
8
CUT
10
112.6954
20
57.8
0
SEQEND
0
POLYLINE
8
CUT
66
1
70
0
0
VERTEX
8
CUT
10
113.9117
20
56.8778
0
VERTEX
8
CUT
10
117.5451
20
59.5
0
VERTEX
8
CUT
10
117.5451
20
64.7444
0
SEQEND
0
POLYLINE
8
CUT
66
1
70
0
0
VERTEX
8
CUT
10
116.3288
20
67.3778
0
VERTEX
8
CUT
10
112.6954
20
70
0
VERTEX
8
CUT
10
109.0619
20
67.3778
0
SEQEND
0
POLYLINE
8
CUT
66
1
70
0
0
VERTEX
8
CUT
10
107.8456
20
65
0
VERTEX
8
CUT
10
107.8456
20
59.5
0
VERTEX
8
CUT
10
111.6561
20
56.75
0
SEQEND
0
POLYLINE
8
CUT
66
1
70
0
0
VERTEX
8
CUT
10
119.7451
20
65
0
VERTEX
8
CUT
10
119.7451
20
59.5
0
VERTEX
8
CUT
10
120
20
59.316
0
SEQEND
0
POLYLINE
8
CUT
66
1
70
0
0
VERTEX
8
CUT
10
0
20
45.6384
0
VERTEX
8
CUT
10
3.2529
20
47.986
0
VERTEX
8
CUT
10
3.2529
20
53.186
0
VERTEX
8
CUT
10
0
20
55.5336
0
SEQEND
0
POLYLINE
8
CUT
66
1
70
0
0
VERTEX
8
CUT
10
0.8666
20
44.4638
0
VERTEX
8
CUT
10
4.5
20
47.086
0
VERTEX
8
CUT
10
4.5
20
52.3304
0
SEQEND
0
LINE
8
CUT
10
3.2837
20
54.9638
11
0
21
57.3336
0
POLYLINE
8
CUT
66
1
70
0
0
VERTEX
8
CUT
10
11.5497
20
45.386
0
VERTEX
8
CUT
10
15.1524
20
47.986
0
VERTEX
8
CUT
10
15.1524
20
53.186
0
VERTEX
8
CUT
10
11.5497
20
55.786
0
VERTEX
8
CUT
10
7.9471
20
53.186
0
VERTEX
8
CUT
10
7.9471
20
47.986
0
VERTEX
8
CUT
10
11.5497
20
45.386
0
SEQEND
0
POLYLINE
8
CUT
66
1
70
0
0
VERTEX
8
CUT
10
12.7661
20
44.4638
0
VERTEX
8
CUT
10
16.3995
20
47.086
0
VERTEX
8
CUT
10
16.3995
20
52.3304
0
SEQEND
0
POLYLINE
8
CUT
66
1
70
0
0
VERTEX
8
CUT
10
15.1832
20
54.9638
0
VERTEX
8
CUT
10
11.5497
20
57.586
0
VERTEX
8
CUT
10
7.9163
20
54.9638
0
SEQEND
0
POLYLINE
8
CUT
66
1
70
0
0
VERTEX
8
CUT
10
6.7
20
52.586
0
VERTEX
8
CUT
10
6.7
20
47.086
0
VERTEX
8
CUT
10
10.5105
20
44.336
0
SEQEND
0
POLYLINE
8
CUT
66
1
70
0
0
VERTEX
8
CUT
10
23.4492
20
45.386
0
VERTEX
8
CUT
10
27.0519
20
47.986
0
VERTEX
8
CUT
10
27.0519
20
53.186
0
VERTEX
8
CUT
10
23.4492
20
55.786
0
VERTEX
8
CUT
10
19.8466
20
53.186
0
VERTEX
8
CUT
10
19.8466
20
47.986
0
VERTEX
8
CUT
10
23.4492
20
45.386
0
SEQEND
0
POLYLINE
8
CUT
66
1
70
0
0
VERTEX
8
CUT
10
24.6656
20
44.4638
0
VERTEX
8
CUT
10
28.299
20
47.086
0
VERTEX
8
CUT
10
28.299
20
52.3304
0
SEQEND
0
POLYLINE
8
CUT
66
1
70
0
0
VERTEX
8
CUT
10
27.0826
20
54.9638
0
VERTEX
8
CUT
10
23.4492
20
57.586
0
VERTEX
8
CUT
10
19.8158
20
54.9638
0
SEQEND
0
POLYLINE
8
CUT
66
1
70
0
0
VERTEX
8
CUT
10
18.5995
20
52.586
0
VERTEX
8
CUT
10
18.5995
20
47.086
0
VERTEX
8
CUT
10
22.41
20
44.336
0
SEQEND
0
POLYLINE
8
CUT
66
1
70
0
0
VERTEX
8
CUT
10
35.3487
20
45.386
0
VERTEX
8
CUT
10
38.9514
20
47.986
0
VERTEX
8
CUT
10
38.9514
20
53.186
0
VERTEX
8
CUT
10
35.3487
20
55.786
0
VERTEX
8
CUT
10
31.746
20
53.186
0
VERTEX
8
CUT
10
31.746
20
47.986
0
VERTEX
8
CUT
10
35.3487
20
45.386
0
SEQEND
0
POLYLINE
8
CUT
66
1
70
0
0
VERTEX
8
CUT
10
36.565
20
44.4638
0
VERTEX
8
CUT
10
40.1985
20
47.086
0
VERTEX
8
CUT
10
40.1985
20
52.3304
0
SEQEND
0
POLYLINE
8
CUT
66
1
70
0
0
VERTEX
8
CUT
10
38.9821
20
54.9638
0
VERTEX
8
CUT
10
35.3487
20
57.586
0
VERTEX
8
CUT
10
31.7153
20
54.9638
0
SEQEND
0
POLYLINE
8
CUT
66
1
70
0
0
VERTEX
8
CUT
10
30.499
20
52.586
0
VERTEX
8
CUT
10
30.499
20
47.086
0
VERTEX
8
CUT
10
34.3095
20
44.336
0
SEQEND
0
POLYLINE
8
CUT
66
1
70
0
0
VERTEX
8
CUT
10
47.2482
20
45.386
0
VERTEX
8
CUT
10
50.8509
20
47.986
0
VERTEX
8
CUT
10
50.8509
20
53.186
0
VERTEX
8
CUT
10
47.2482
20
55.786
0
VERTEX
8
CUT
10
43.6455
20
53.186
0
VERTEX
8
CUT
10
43.6455
20
47.986
0
VERTEX
8
CUT
10
47.2482
20
45.386
0
SEQEND
0
POLYLINE
8
CUT
66
1
70
0
0
VERTEX
8
CUT
10
48.4645
20
44.4638
0
VERTEX
8
CUT
10
52.0979
20
47.086
0
VERTEX
8
CUT
10
52.0979
20
52.3304
0
SEQEND
0
POLYLINE
8
CUT
66
1
70
0
0
VERTEX
8
CUT
10
50.8816
20
54.9638
0
VERTEX
8
CUT
10
47.2482
20
57.586
0
VERTEX
8
CUT
10
43.6148
20
54.9638
0
SEQEND
0
POLYLINE
8
CUT
66
1
70
0
0
VERTEX
8
CUT
10
42.3985
20
52.586
0
VERTEX
8
CUT
10
42.3985
20
47.086
0
VERTEX
8
CUT
10
46.209
20
44.336
0
SEQEND
0
POLYLINE
8
CUT
66
1
70
0
0
VERTEX
8
CUT
10
59.1477
20
45.386
0
VERTEX
8
CUT
10
62.7503
20
47.986
0
VERTEX
8
CUT
10
62.7503
20
53.186
0
VERTEX
8
CUT
10
59.1477
20
55.786
0
VERTEX
8
CUT
10
55.545
20
53.186
0
VERTEX
8
CUT
10
55.545
20
47.986
0
VERTEX
8
CUT
10
59.1477
20
45.386
0
SEQEND
0
POLYLINE
8
CUT
66
1
70
0
0
VERTEX
8
CUT
10
60.364
20
44.4638
0
VERTEX
8
CUT
10
63.9974
20
47.086
0
VERTEX
8
CUT
10
63.9974
20
52.3304
0
SEQEND
0
POLYLINE
8
CUT
66
1
70
0
0
VERTEX
8
CUT
10
62.7811
20
54.9638
0
VERTEX
8
CUT
10
59.1477
20
57.586
0
VERTEX
8
CUT
10
55.5143
20
54.9638
0
SEQEND
0
POLYLINE
8
CUT
66
1
70
0
0
VERTEX
8
CUT
10
54.2979
20
52.586
0
VERTEX
8
CUT
10
54.2979
20
47.086
0
VERTEX
8
CUT
10
58.1084
20
44.336
0
SEQEND
0
POLYLINE
8
CUT
66
1
70
0
0
VERTEX
8
CUT
10
71.0472
20
45.386
0
VERTEX
8
CUT
10
74.6498
20
47.986
0
VERTEX
8
CUT
10
74.6498
20
53.186
0
VERTEX
8
CUT
10
71.0472
20
55.786
0
VERTEX
8
CUT
10
67.4445
20
53.186
0
VERTEX
8
CUT
10
67.4445
20
47.986
0
VERTEX
8
CUT
10
71.0472
20
45.386
0
SEQEND
0
POLYLINE
8
CUT
66
1
70
0
0
VERTEX
8
CUT
10
72.2635
20
44.4638
0
VERTEX
8
CUT
10
75.8969
20
47.086
0
VERTEX
8
CUT
10
75.8969
20
52.3304
0
SEQEND
0
POLYLINE
8
CUT
66
1
70
0
0
VERTEX
8
CUT
10
74.6806
20
54.9638
0
VERTEX
8
CUT
10
71.0472
20
57.586
0
VERTEX
8
CUT
10
67.4137
20
54.9638
0
SEQEND
0
POLYLINE
8
CUT
66
1
70
0
0
VERTEX
8
CUT
10
66.1974
20
52.586
0
VERTEX
8
CUT
10
66.1974
20
47.086
0
VERTEX
8
CUT
10
70.0079
20
44.336
0
SEQEND
0
POLYLINE
8
CUT
66
1
70
0
0
VERTEX
8
CUT
10
82.9466
20
45.386
0
VERTEX
8
CUT
10
86.5493
20
47.986
0
VERTEX
8
CUT
10
86.5493
20
53.186
0
VERTEX
8
CUT
10
82.9466
20
55.786
0
VERTEX
8
CUT
10
79.344
20
53.186
0
VERTEX
8
CUT
10
79.344
20
47.986
0
VERTEX
8
CUT
10
82.9466
20
45.386
0
SEQEND
0
POLYLINE
8
CUT
66
1
70
0
0
VERTEX
8
CUT
10
84.163
20
44.4638
0
VERTEX
8
CUT
10
87.7964
20
47.086
0
VERTEX
8
CUT
10
87.7964
20
52.3304
0
SEQEND
0
POLYLINE
8
CUT
66
1
70
0
0
VERTEX
8
CUT
10
86.5801
20
54.9638
0
VERTEX
8
CUT
10
82.9466
20
57.586
0
VERTEX
8
CUT
10
79.3132
20
54.9638
0
SEQEND
0
POLYLINE
8
CUT
66
1
70
0
0
VERTEX
8
CUT
10
78.0969
20
52.586
0
VERTEX
8
CUT
10
78.0969
20
47.086
0
VERTEX
8
CUT
10
81.9074
20
44.336
0
SEQEND
0
POLYLINE
8
CUT
66
1
70
0
0
VERTEX
8
CUT
10
94.8461
20
45.386
0
VERTEX
8
CUT
10
98.4488
20
47.986
0
VERTEX
8
CUT
10
98.4488
20
53.186
0
VERTEX
8
CUT
10
94.8461
20
55.786
0
VERTEX
8
CUT
10
91.2435
20
53.186
0
VERTEX
8
CUT
10
91.2435
20
47.986
0
VERTEX
8
CUT
10
94.8461
20
45.386
0
SEQEND
0
POLYLINE
8
CUT
66
1
70
0
0
VERTEX
8
CUT
10
96.0625
20
44.4638
0
VERTEX
8
CUT
10
99.6959
20
47.086
0
VERTEX
8
CUT
10
99.6959
20
52.3304
0
SEQEND
0
POLYLINE
8
CUT
66
1
70
0
0
VERTEX
8
CUT
10
98.4795
20
54.9638
0
VERTEX
8
CUT
10
94.8461
20
57.586
0
VERTEX
8
CUT
10
91.2127
20
54.9638
0
SEQEND
0
POLYLINE
8
CUT
66
1
70
0
0
VERTEX
8
CUT
10
89.9964
20
52.586
0
VERTEX
8
CUT
10
89.9964
20
47.086
0
VERTEX
8
CUT
10
93.8069
20
44.336
0
SEQEND
0
POLYLINE
8
CUT
66
1
70
0
0
VERTEX
8
CUT
10
106.7456
20
45.386
0
VERTEX
8
CUT
10
110.3483
20
47.986
0
VERTEX
8
CUT
10
110.3483
20
53.186
0
VERTEX
8
CUT
10
106.7456
20
55.786
0
VERTEX
8
CUT
10
103.143
20
53.186
0
VERTEX
8
CUT
10
103.143
20
47.986
0
VERTEX
8
CUT
10
106.7456
20
45.386
0
SEQEND
0
POLYLINE
8
CUT
66
1
70
0
0
VERTEX
8
CUT
10
107.9619
20
44.4638
0
VERTEX
8
CUT
10
111.5954
20
47.086
0
VERTEX
8
CUT
10
111.5954
20
52.3304
0
SEQEND
0
POLYLINE
8
CUT
66
1
70
0
0
VERTEX
8
CUT
10
110.379
20
54.9638
0
VERTEX
8
CUT
10
106.7456
20
57.586
0
VERTEX
8
CUT
10
103.1122
20
54.9638
0
SEQEND
0
POLYLINE
8
CUT
66
1
70
0
0
VERTEX
8
CUT
10
101.8959
20
52.586
0
VERTEX
8
CUT
10
101.8959
20
47.086
0
VERTEX
8
CUT
10
105.7064
20
44.336
0
SEQEND
0
LINE
8
CUT
10
118.6451
20
45.386
11
120
21
46.3638
0
POLYLINE
8
CUT
66
1
70
0
0
VERTEX
8
CUT
10
120
20
54.8082
0
VERTEX
8
CUT
10
118.6451
20
55.786
0
VERTEX
8
CUT
10
115.0424
20
53.186
0
VERTEX
8
CUT
10
115.0424
20
47.986
0
VERTEX
8
CUT
10
118.6451
20
45.386
0
SEQEND
0
POLYLINE
8
CUT
66
1
70
0
0
VERTEX
8
CUT
10
120
20
56.6082
0
VERTEX
8
CUT
10
118.6451
20
57.586
0
VERTEX
8
CUT
10
115.0117
20
54.9638
0
SEQEND
0
POLYLINE
8
CUT
66
1
70
0
0
VERTEX
8
CUT
10
113.7954
20
52.586
0
VERTEX
8
CUT
10
113.7954
20
47.086
0
VERTEX
8
CUT
10
117.6059
20
44.336
0
SEQEND
0
POLYLINE
8
CUT
66
1
70
0
0
VERTEX
8
CUT
10
5.6
20
32.972
0
VERTEX
8
CUT
10
9.2027
20
35.572
0
VERTEX
8
CUT
10
9.2027
20
40.772
0
VERTEX
8
CUT
10
5.6
20
43.372
0
VERTEX
8
CUT
10
1.9973
20
40.772
0
VERTEX
8
CUT
10
1.9973
20
35.572
0
VERTEX
8
CUT
10
5.6
20
32.972
0
SEQEND
0
POLYLINE
8
CUT
66
1
70
0
0
VERTEX
8
CUT
10
6.8163
20
32.0498
0
VERTEX
8
CUT
10
10.4497
20
34.672
0
VERTEX
8
CUT
10
10.4497
20
39.9164
0
SEQEND
0
POLYLINE
8
CUT
66
1
70
0
0
VERTEX
8
CUT
10
9.2334
20
42.5498
0
VERTEX
8
CUT
10
5.6
20
45.172
0
VERTEX
8
CUT
10
1.9666
20
42.5498
0
SEQEND
0
POLYLINE
8
CUT
66
1
70
0
0
VERTEX
8
CUT
10
0.7503
20
40.172
0
VERTEX
8
CUT
10
0.7503
20
34.672
0
VERTEX
8
CUT
10
4.5608
20
31.922
0
SEQEND
0
POLYLINE
8
CUT
66
1
70
0
0
VERTEX
8
CUT
10
17.4995
20
32.972
0
VERTEX
8
CUT
10
21.1022
20
35.572
0
VERTEX
8
CUT
10
21.1022
20
40.772
0
VERTEX
8
CUT
10
17.4995
20
43.372
0
VERTEX
8
CUT
10
13.8968
20
40.772
0
VERTEX
8
CUT
10
13.8968
20
35.572
0
VERTEX
8
CUT
10
17.4995
20
32.972
0
SEQEND
0
POLYLINE
8
CUT
66
1
70
0
0
VERTEX
8
CUT
10
18.7158
20
32.0498
0
VERTEX
8
CUT
10
22.3492
20
34.672
0
VERTEX
8
CUT
10
22.3492
20
39.9164
0
SEQEND
0
POLYLINE
8
CUT
66
1
70
0
0
VERTEX
8
CUT
10
21.1329
20
42.5498
0
VERTEX
8
CUT
10
17.4995
20
45.172
0
VERTEX
8
CUT
10
13.8661
20
42.5498
0
SEQEND
0
POLYLINE
8
CUT
66
1
70
0
0
VERTEX
8
CUT
10
12.6497
20
40.172
0
VERTEX
8
CUT
10
12.6497
20
34.672
0
VERTEX
8
CUT
10
16.4603
20
31.922
0
SEQEND
0
POLYLINE
8
CUT
66
1
70
0
0
VERTEX
8
CUT
10
29.399
20
32.972
0
VERTEX
8
CUT
10
33.0016
20
35.572
0
VERTEX
8
CUT
10
33.0016
20
40.772
0
VERTEX
8
CUT
10
29.399
20
43.372
0
VERTEX
8
CUT
10
25.7963
20
40.772
0
VERTEX
8
CUT
10
25.7963
20
35.572
0
VERTEX
8
CUT
10
29.399
20
32.972
0
SEQEND
0
POLYLINE
8
CUT
66
1
70
0
0
VERTEX
8
CUT
10
30.6153
20
32.0498
0
VERTEX
8
CUT
10
34.2487
20
34.672
0
VERTEX
8
CUT
10
34.2487
20
39.9164
0
SEQEND
0
POLYLINE
8
CUT
66
1
70
0
0
VERTEX
8
CUT
10
33.0324
20
42.5498
0
VERTEX
8
CUT
10
29.399
20
45.172
0
VERTEX
8
CUT
10
25.7656
20
42.5498
0
SEQEND
0
POLYLINE
8
CUT
66
1
70
0
0
VERTEX
8
CUT
10
24.5492
20
40.172
0
VERTEX
8
CUT
10
24.5492
20
34.672
0
VERTEX
8
CUT
10
28.3597
20
31.922
0
SEQEND
0
POLYLINE
8
CUT
66
1
70
0
0
VERTEX
8
CUT
10
41.2985
20
32.972
0
VERTEX
8
CUT
10
44.9011
20
35.572
0
VERTEX
8
CUT
10
44.9011
20
40.772
0
VERTEX
8
CUT
10
41.2985
20
43.372
0
VERTEX
8
CUT
10
37.6958
20
40.772
0
VERTEX
8
CUT
10
37.6958
20
35.572
0
VERTEX
8
CUT
10
41.2985
20
32.972
0
SEQEND
0
POLYLINE
8
CUT
66
1
70
0
0
VERTEX
8
CUT
10
42.5148
20
32.0498
0
VERTEX
8
CUT
10
46.1482
20
34.672
0
VERTEX
8
CUT
10
46.1482
20
39.9164
0
SEQEND
0
POLYLINE
8
CUT
66
1
70
0
0
VERTEX
8
CUT
10
44.9319
20
42.5498
0
VERTEX
8
CUT
10
41.2985
20
45.172
0
VERTEX
8
CUT
10
37.665
20
42.5498
0
SEQEND
0
POLYLINE
8
CUT
66
1
70
0
0
VERTEX
8
CUT
10
36.4487
20
40.172
0
VERTEX
8
CUT
10
36.4487
20
34.672
0
VERTEX
8
CUT
10
40.2592
20
31.922
0
SEQEND
0
POLYLINE
8
CUT
66
1
70
0
0
VERTEX
8
CUT
10
53.1979
20
32.972
0
VERTEX
8
CUT
10
56.8006
20
35.572
0
VERTEX
8
CUT
10
56.8006
20
40.772
0
VERTEX
8
CUT
10
53.1979
20
43.372
0
VERTEX
8
CUT
10
49.5953
20
40.772
0
VERTEX
8
CUT
10
49.5953
20
35.572
0
VERTEX
8
CUT
10
53.1979
20
32.972
0
SEQEND
0
POLYLINE
8
CUT
66
1
70
0
0
VERTEX
8
CUT
10
54.4143
20
32.0498
0
VERTEX
8
CUT
10
58.0477
20
34.672
0
VERTEX
8
CUT
10
58.0477
20
39.9164
0
SEQEND
0
POLYLINE
8
CUT
66
1
70
0
0
VERTEX
8
CUT
10
56.8314
20
42.5498
0
VERTEX
8
CUT
10
53.1979
20
45.172
0
VERTEX
8
CUT
10
49.5645
20
42.5498
0
SEQEND
0
POLYLINE
8
CUT
66
1
70
0
0
VERTEX
8
CUT
10
48.3482
20
40.172
0
VERTEX
8
CUT
10
48.3482
20
34.672
0
VERTEX
8
CUT
10
52.1587
20
31.922
0
SEQEND
0
POLYLINE
8
CUT
66
1
70
0
0
VERTEX
8
CUT
10
65.0974
20
32.972
0
VERTEX
8
CUT
10
68.7001
20
35.572
0
VERTEX
8
CUT
10
68.7001
20
40.772
0
VERTEX
8
CUT
10
65.0974
20
43.372
0
VERTEX
8
CUT
10
61.4948
20
40.772
0
VERTEX
8
CUT
10
61.4948
20
35.572
0
VERTEX
8
CUT
10
65.0974
20
32.972
0
SEQEND
0
POLYLINE
8
CUT
66
1
70
0
0
VERTEX
8
CUT
10
66.3137
20
32.0498
0
VERTEX
8
CUT
10
69.9472
20
34.672
0
VERTEX
8
CUT
10
69.9472
20
39.9164
0
SEQEND
0
POLYLINE
8
CUT
66
1
70
0
0
VERTEX
8
CUT
10
68.7308
20
42.5498
0
VERTEX
8
CUT
10
65.0974
20
45.172
0
VERTEX
8
CUT
10
61.464
20
42.5498
0
SEQEND
0
POLYLINE
8
CUT
66
1
70
0
0
VERTEX
8
CUT
10
60.2477
20
40.172
0
VERTEX
8
CUT
10
60.2477
20
34.672
0
VERTEX
8
CUT
10
64.0582
20
31.922
0
SEQEND
0
POLYLINE
8
CUT
66
1
70
0
0
VERTEX
8
CUT
10
76.9969
20
32.972
0
VERTEX
8
CUT
10
80.5996
20
35.572
0
VERTEX
8
CUT
10
80.5996
20
40.772
0
VERTEX
8
CUT
10
76.9969
20
43.372
0
VERTEX
8
CUT
10
73.3942
20
40.772
0
VERTEX
8
CUT
10
73.3942
20
35.572
0
VERTEX
8
CUT
10
76.9969
20
32.972
0
SEQEND
0
POLYLINE
8
CUT
66
1
70
0
0
VERTEX
8
CUT
10
78.2132
20
32.0498
0
VERTEX
8
CUT
10
81.8466
20
34.672
0
VERTEX
8
CUT
10
81.8466
20
39.9164
0
SEQEND
0
POLYLINE
8
CUT
66
1
70
0
0
VERTEX
8
CUT
10
80.6303
20
42.5498
0
VERTEX
8
CUT
10
76.9969
20
45.172
0
VERTEX
8
CUT
10
73.3635
20
42.5498
0
SEQEND
0
POLYLINE
8
CUT
66
1
70
0
0
VERTEX
8
CUT
10
72.1472
20
40.172
0
VERTEX
8
CUT
10
72.1472
20
34.672
0
VERTEX
8
CUT
10
75.9577
20
31.922
0
SEQEND
0
POLYLINE
8
CUT
66
1
70
0
0
VERTEX
8
CUT
10
88.8964
20
32.972
0
VERTEX
8
CUT
10
92.4991
20
35.572
0
VERTEX
8
CUT
10
92.4991
20
40.772
0
VERTEX
8
CUT
10
88.8964
20
43.372
0
VERTEX
8
CUT
10
85.2937
20
40.772
0
VERTEX
8
CUT
10
85.2937
20
35.572
0
VERTEX
8
CUT
10
88.8964
20
32.972
0
SEQEND
0
POLYLINE
8
CUT
66
1
70
0
0
VERTEX
8
CUT
10
90.1127
20
32.0498
0
VERTEX
8
CUT
10
93.7461
20
34.672
0
VERTEX
8
CUT
10
93.7461
20
39.9164
0
SEQEND
0
POLYLINE
8
CUT
66
1
70
0
0
VERTEX
8
CUT
10
92.5298
20
42.5498
0
VERTEX
8
CUT
10
88.8964
20
45.172
0
VERTEX
8
CUT
10
85.263
20
42.5498
0
SEQEND
0
POLYLINE
8
CUT
66
1
70
0
0
VERTEX
8
CUT
10
84.0466
20
40.172
0
VERTEX
8
CUT
10
84.0466
20
34.672
0
VERTEX
8
CUT
10
87.8572
20
31.922
0
SEQEND
0
POLYLINE
8
CUT
66
1
70
0
0
VERTEX
8
CUT
10
100.7959
20
32.972
0
VERTEX
8
CUT
10
104.3985
20
35.572
0
VERTEX
8
CUT
10
104.3985
20
40.772
0
VERTEX
8
CUT
10
100.7959
20
43.372
0
VERTEX
8
CUT
10
97.1932
20
40.772
0
VERTEX
8
CUT
10
97.1932
20
35.572
0
VERTEX
8
CUT
10
100.7959
20
32.972
0
SEQEND
0
POLYLINE
8
CUT
66
1
70
0
0
VERTEX
8
CUT
10
102.0122
20
32.0498
0
VERTEX
8
CUT
10
105.6456
20
34.672
0
VERTEX
8
CUT
10
105.6456
20
39.9164
0
SEQEND
0
POLYLINE
8
CUT
66
1
70
0
0
VERTEX
8
CUT
10
104.4293
20
42.5498
0
VERTEX
8
CUT
10
100.7959
20
45.172
0
VERTEX
8
CUT
10
97.1625
20
42.5498
0
SEQEND
0
POLYLINE
8
CUT
66
1
70
0
0
VERTEX
8
CUT
10
95.9461
20
40.172
0
VERTEX
8
CUT
10
95.9461
20
34.672
0
VERTEX
8
CUT
10
99.7566
20
31.922
0
SEQEND
0
POLYLINE
8
CUT
66
1
70
0
0
VERTEX
8
CUT
10
112.6954
20
32.972
0
VERTEX
8
CUT
10
116.298
20
35.572
0
VERTEX
8
CUT
10
116.298
20
40.772
0
VERTEX
8
CUT
10
112.6954
20
43.372
0
VERTEX
8
CUT
10
109.0927
20
40.772
0
VERTEX
8
CUT
10
109.0927
20
35.572
0
VERTEX
8
CUT
10
112.6954
20
32.972
0
SEQEND
0
POLYLINE
8
CUT
66
1
70
0
0
VERTEX
8
CUT
10
113.9117
20
32.0498
0
VERTEX
8
CUT
10
117.5451
20
34.672
0
VERTEX
8
CUT
10
117.5451
20
39.9164
0
SEQEND
0
POLYLINE
8
CUT
66
1
70
0
0
VERTEX
8
CUT
10
116.3288
20
42.5498
0
VERTEX
8
CUT
10
112.6954
20
45.172
0
VERTEX
8
CUT
10
109.0619
20
42.5498
0
SEQEND
0
POLYLINE
8
CUT
66
1
70
0
0
VERTEX
8
CUT
10
107.8456
20
40.172
0
VERTEX
8
CUT
10
107.8456
20
34.672
0
VERTEX
8
CUT
10
111.6561
20
31.922
0
SEQEND
0
POLYLINE
8
CUT
66
1
70
0
0
VERTEX
8
CUT
10
119.7451
20
40.172
0
VERTEX
8
CUT
10
119.7451
20
34.672
0
VERTEX
8
CUT
10
120
20
34.488
0
SEQEND
0
POLYLINE
8
CUT
66
1
70
0
0
VERTEX
8
CUT
10
0
20
20.8104
0
VERTEX
8
CUT
10
3.2529
20
23.158
0
VERTEX
8
CUT
10
3.2529
20
28.358
0
VERTEX
8
CUT
10
0
20
30.7056
0
SEQEND
0
POLYLINE
8
CUT
66
1
70
0
0
VERTEX
8
CUT
10
0.8666
20
19.6358
0
VERTEX
8
CUT
10
4.5
20
22.258
0
VERTEX
8
CUT
10
4.5
20
27.5024
0
SEQEND
0
LINE
8
CUT
10
3.2837
20
30.1358
11
0
21
32.5056
0
POLYLINE
8
CUT
66
1
70
0
0
VERTEX
8
CUT
10
11.5497
20
20.558
0
VERTEX
8
CUT
10
15.1524
20
23.158
0
VERTEX
8
CUT
10
15.1524
20
28.358
0
VERTEX
8
CUT
10
11.5497
20
30.958
0
VERTEX
8
CUT
10
7.9471
20
28.358
0
VERTEX
8
CUT
10
7.9471
20
23.158
0
VERTEX
8
CUT
10
11.5497
20
20.558
0
SEQEND
0
POLYLINE
8
CUT
66
1
70
0
0
VERTEX
8
CUT
10
12.7661
20
19.6358
0
VERTEX
8
CUT
10
16.3995
20
22.258
0
VERTEX
8
CUT
10
16.3995
20
27.5024
0
SEQEND
0
POLYLINE
8
CUT
66
1
70
0
0
VERTEX
8
CUT
10
15.1832
20
30.1358
0
VERTEX
8
CUT
10
11.5497
20
32.758
0
VERTEX
8
CUT
10
7.9163
20
30.1358
0
SEQEND
0
POLYLINE
8
CUT
66
1
70
0
0
VERTEX
8
CUT
10
6.7
20
27.758
0
VERTEX
8
CUT
10
6.7
20
22.258
0
VERTEX
8
CUT
10
10.5105
20
19.508
0
SEQEND
0
POLYLINE
8
CUT
66
1
70
0
0
VERTEX
8
CUT
10
23.4492
20
20.558
0
VERTEX
8
CUT
10
27.0519
20
23.158
0
VERTEX
8
CUT
10
27.0519
20
28.358
0
VERTEX
8
CUT
10
23.4492
20
30.958
0
VERTEX
8
CUT
10
19.8466
20
28.358
0
VERTEX
8
CUT
10
19.8466
20
23.158
0
VERTEX
8
CUT
10
23.4492
20
20.558
0
SEQEND
0
POLYLINE
8
CUT
66
1
70
0
0
VERTEX
8
CUT
10
24.6656
20
19.6358
0
VERTEX
8
CUT
10
28.299
20
22.258
0
VERTEX
8
CUT
10
28.299
20
27.5024
0
SEQEND
0
POLYLINE
8
CUT
66
1
70
0
0
VERTEX
8
CUT
10
27.0826
20
30.1358
0
VERTEX
8
CUT
10
23.4492
20
32.758
0
VERTEX
8
CUT
10
19.8158
20
30.1358
0
SEQEND
0
POLYLINE
8
CUT
66
1
70
0
0
VERTEX
8
CUT
10
18.5995
20
27.758
0
VERTEX
8
CUT
10
18.5995
20
22.258
0
VERTEX
8
CUT
10
22.41
20
19.508
0
SEQEND
0
POLYLINE
8
CUT
66
1
70
0
0
VERTEX
8
CUT
10
35.3487
20
20.558
0
VERTEX
8
CUT
10
38.9514
20
23.158
0
VERTEX
8
CUT
10
38.9514
20
28.358
0
VERTEX
8
CUT
10
35.3487
20
30.958
0
VERTEX
8
CUT
10
31.746
20
28.358
0
VERTEX
8
CUT
10
31.746
20
23.158
0
VERTEX
8
CUT
10
35.3487
20
20.558
0
SEQEND
0
POLYLINE
8
CUT
66
1
70
0
0
VERTEX
8
CUT
10
36.565
20
19.6358
0
VERTEX
8
CUT
10
40.1985
20
22.258
0
VERTEX
8
CUT
10
40.1985
20
27.5024
0
SEQEND
0
POLYLINE
8
CUT
66
1
70
0
0
VERTEX
8
CUT
10
38.9821
20
30.1358
0
VERTEX
8
CUT
10
35.3487
20
32.758
0
VERTEX
8
CUT
10
31.7153
20
30.1358
0
SEQEND
0
POLYLINE
8
CUT
66
1
70
0
0
VERTEX
8
CUT
10
30.499
20
27.758
0
VERTEX
8
CUT
10
30.499
20
22.258
0
VERTEX
8
CUT
10
34.3095
20
19.508
0
SEQEND
0
POLYLINE
8
CUT
66
1
70
0
0
VERTEX
8
CUT
10
47.2482
20
20.558
0
VERTEX
8
CUT
10
50.8509
20
23.158
0
VERTEX
8
CUT
10
50.8509
20
28.358
0
VERTEX
8
CUT
10
47.2482
20
30.958
0
VERTEX
8
CUT
10
43.6455
20
28.358
0
VERTEX
8
CUT
10
43.6455
20
23.158
0
VERTEX
8
CUT
10
47.2482
20
20.558
0
SEQEND
0
POLYLINE
8
CUT
66
1
70
0
0
VERTEX
8
CUT
10
48.4645
20
19.6358
0
VERTEX
8
CUT
10
52.0979
20
22.258
0
VERTEX
8
CUT
10
52.0979
20
27.5024
0
SEQEND
0
POLYLINE
8
CUT
66
1
70
0
0
VERTEX
8
CUT
10
50.8816
20
30.1358
0
VERTEX
8
CUT
10
47.2482
20
32.758
0
VERTEX
8
CUT
10
43.6148
20
30.1358
0
SEQEND
0
POLYLINE
8
CUT
66
1
70
0
0
VERTEX
8
CUT
10
42.3985
20
27.758
0
VERTEX
8
CUT
10
42.3985
20
22.258
0
VERTEX
8
CUT
10
46.209
20
19.508
0
SEQEND
0
POLYLINE
8
CUT
66
1
70
0
0
VERTEX
8
CUT
10
59.1477
20
20.558
0
VERTEX
8
CUT
10
62.7503
20
23.158
0
VERTEX
8
CUT
10
62.7503
20
28.358
0
VERTEX
8
CUT
10
59.1477
20
30.958
0
VERTEX
8
CUT
10
55.545
20
28.358
0
VERTEX
8
CUT
10
55.545
20
23.158
0
VERTEX
8
CUT
10
59.1477
20
20.558
0
SEQEND
0
POLYLINE
8
CUT
66
1
70
0
0
VERTEX
8
CUT
10
60.364
20
19.6358
0
VERTEX
8
CUT
10
63.9974
20
22.258
0
VERTEX
8
CUT
10
63.9974
20
27.5024
0
SEQEND
0
POLYLINE
8
CUT
66
1
70
0
0
VERTEX
8
CUT
10
62.7811
20
30.1358
0
VERTEX
8
CUT
10
59.1477
20
32.758
0
VERTEX
8
CUT
10
55.5143
20
30.1358
0
SEQEND
0
POLYLINE
8
CUT
66
1
70
0
0
VERTEX
8
CUT
10
54.2979
20
27.758
0
VERTEX
8
CUT
10
54.2979
20
22.258
0
VERTEX
8
CUT
10
58.1084
20
19.508
0
SEQEND
0
POLYLINE
8
CUT
66
1
70
0
0
VERTEX
8
CUT
10
71.0472
20
20.558
0
VERTEX
8
CUT
10
74.6498
20
23.158
0
VERTEX
8
CUT
10
74.6498
20
28.358
0
VERTEX
8
CUT
10
71.0472
20
30.958
0
VERTEX
8
CUT
10
67.4445
20
28.358
0
VERTEX
8
CUT
10
67.4445
20
23.158
0
VERTEX
8
CUT
10
71.0472
20
20.558
0
SEQEND
0
POLYLINE
8
CUT
66
1
70
0
0
VERTEX
8
CUT
10
72.2635
20
19.6358
0
VERTEX
8
CUT
10
75.8969
20
22.258
0
VERTEX
8
CUT
10
75.8969
20
27.5024
0
SEQEND
0
POLYLINE
8
CUT
66
1
70
0
0
VERTEX
8
CUT
10
74.6806
20
30.1358
0
VERTEX
8
CUT
10
71.0472
20
32.758
0
VERTEX
8
CUT
10
67.4137
20
30.1358
0
SEQEND
0
POLYLINE
8
CUT
66
1
70
0
0
VERTEX
8
CUT
10
66.1974
20
27.758
0
VERTEX
8
CUT
10
66.1974
20
22.258
0
VERTEX
8
CUT
10
70.0079
20
19.508
0
SEQEND
0
POLYLINE
8
CUT
66
1
70
0
0
VERTEX
8
CUT
10
82.9466
20
20.558
0
VERTEX
8
CUT
10
86.5493
20
23.158
0
VERTEX
8
CUT
10
86.5493
20
28.358
0
VERTEX
8
CUT
10
82.9466
20
30.958
0
VERTEX
8
CUT
10
79.344
20
28.358
0
VERTEX
8
CUT
10
79.344
20
23.158
0
VERTEX
8
CUT
10
82.9466
20
20.558
0
SEQEND
0
POLYLINE
8
CUT
66
1
70
0
0
VERTEX
8
CUT
10
84.163
20
19.6358
0
VERTEX
8
CUT
10
87.7964
20
22.258
0
VERTEX
8
CUT
10
87.7964
20
27.5024
0
SEQEND
0
POLYLINE
8
CUT
66
1
70
0
0
VERTEX
8
CUT
10
86.5801
20
30.1358
0
VERTEX
8
CUT
10
82.9466
20
32.758
0
VERTEX
8
CUT
10
79.3132
20
30.1358
0
SEQEND
0
POLYLINE
8
CUT
66
1
70
0
0
VERTEX
8
CUT
10
78.0969
20
27.758
0
VERTEX
8
CUT
10
78.0969
20
22.258
0
VERTEX
8
CUT
10
81.9074
20
19.508
0
SEQEND
0
POLYLINE
8
CUT
66
1
70
0
0
VERTEX
8
CUT
10
94.8461
20
20.558
0
VERTEX
8
CUT
10
98.4488
20
23.158
0
VERTEX
8
CUT
10
98.4488
20
28.358
0
VERTEX
8
CUT
10
94.8461
20
30.958
0
VERTEX
8
CUT
10
91.2435
20
28.358
0
VERTEX
8
CUT
10
91.2435
20
23.158
0
VERTEX
8
CUT
10
94.8461
20
20.558
0
SEQEND
0
POLYLINE
8
CUT
66
1
70
0
0
VERTEX
8
CUT
10
96.0625
20
19.6358
0
VERTEX
8
CUT
10
99.6959
20
22.258
0
VERTEX
8
CUT
10
99.6959
20
27.5024
0
SEQEND
0
POLYLINE
8
CUT
66
1
70
0
0
VERTEX
8
CUT
10
98.4795
20
30.1358
0
VERTEX
8
CUT
10
94.8461
20
32.758
0
VERTEX
8
CUT
10
91.2127
20
30.1358
0
SEQEND
0
POLYLINE
8
CUT
66
1
70
0
0
VERTEX
8
CUT
10
89.9964
20
27.758
0
VERTEX
8
CUT
10
89.9964
20
22.258
0
VERTEX
8
CUT
10
93.8069
20
19.508
0
SEQEND
0
POLYLINE
8
CUT
66
1
70
0
0
VERTEX
8
CUT
10
106.7456
20
20.558
0
VERTEX
8
CUT
10
110.3483
20
23.158
0
VERTEX
8
CUT
10
110.3483
20
28.358
0
VERTEX
8
CUT
10
106.7456
20
30.958
0
VERTEX
8
CUT
10
103.143
20
28.358
0
VERTEX
8
CUT
10
103.143
20
23.158
0
VERTEX
8
CUT
10
106.7456
20
20.558
0
SEQEND
0
POLYLINE
8
CUT
66
1
70
0
0
VERTEX
8
CUT
10
107.9619
20
19.6358
0
VERTEX
8
CUT
10
111.5954
20
22.258
0
VERTEX
8
CUT
10
111.5954
20
27.5024
0
SEQEND
0
POLYLINE
8
CUT
66
1
70
0
0
VERTEX
8
CUT
10
110.379
20
30.1358
0
VERTEX
8
CUT
10
106.7456
20
32.758
0
VERTEX
8
CUT
10
103.1122
20
30.1358
0
SEQEND
0
POLYLINE
8
CUT
66
1
70
0
0
VERTEX
8
CUT
10
101.8959
20
27.758
0
VERTEX
8
CUT
10
101.8959
20
22.258
0
VERTEX
8
CUT
10
105.7064
20
19.508
0
SEQEND
0
LINE
8
CUT
10
118.6451
20
20.558
11
120
21
21.5358
0
POLYLINE
8
CUT
66
1
70
0
0
VERTEX
8
CUT
10
120
20
29.9802
0
VERTEX
8
CUT
10
118.6451
20
30.958
0
VERTEX
8
CUT
10
115.0424
20
28.358
0
VERTEX
8
CUT
10
115.0424
20
23.158
0
VERTEX
8
CUT
10
118.6451
20
20.558
0
SEQEND
0
POLYLINE
8
CUT
66
1
70
0
0
VERTEX
8
CUT
10
120
20
31.7802
0
VERTEX
8
CUT
10
118.6451
20
32.758
0
VERTEX
8
CUT
10
115.0117
20
30.1358
0
SEQEND
0
POLYLINE
8
CUT
66
1
70
0
0
VERTEX
8
CUT
10
113.7954
20
27.758
0
VERTEX
8
CUT
10
113.7954
20
22.258
0
VERTEX
8
CUT
10
117.6059
20
19.508
0
SEQEND
0
POLYLINE
8
CUT
66
1
70
0
0
VERTEX
8
CUT
10
5.6
20
8.144
0
VERTEX
8
CUT
10
9.2027
20
10.744
0
VERTEX
8
CUT
10
9.2027
20
15.944
0
VERTEX
8
CUT
10
5.6
20
18.544
0
VERTEX
8
CUT
10
1.9973
20
15.944
0
VERTEX
8
CUT
10
1.9973
20
10.744
0
VERTEX
8
CUT
10
5.6
20
8.144
0
SEQEND
0
POLYLINE
8
CUT
66
1
70
0
0
VERTEX
8
CUT
10
6.8163
20
7.2218
0
VERTEX
8
CUT
10
10.4497
20
9.844
0
VERTEX
8
CUT
10
10.4497
20
15.0884
0
SEQEND
0
POLYLINE
8
CUT
66
1
70
0
0
VERTEX
8
CUT
10
9.2334
20
17.7218
0
VERTEX
8
CUT
10
5.6
20
20.344
0
VERTEX
8
CUT
10
1.9666
20
17.7218
0
SEQEND
0
POLYLINE
8
CUT
66
1
70
0
0
VERTEX
8
CUT
10
0.7503
20
15.344
0
VERTEX
8
CUT
10
0.7503
20
9.844
0
VERTEX
8
CUT
10
4.5608
20
7.094
0
SEQEND
0
POLYLINE
8
CUT
66
1
70
0
0
VERTEX
8
CUT
10
17.4995
20
8.144
0
VERTEX
8
CUT
10
21.1022
20
10.744
0
VERTEX
8
CUT
10
21.1022
20
15.944
0
VERTEX
8
CUT
10
17.4995
20
18.544
0
VERTEX
8
CUT
10
13.8968
20
15.944
0
VERTEX
8
CUT
10
13.8968
20
10.744
0
VERTEX
8
CUT
10
17.4995
20
8.144
0
SEQEND
0
POLYLINE
8
CUT
66
1
70
0
0
VERTEX
8
CUT
10
18.7158
20
7.2218
0
VERTEX
8
CUT
10
22.3492
20
9.844
0
VERTEX
8
CUT
10
22.3492
20
15.0884
0
SEQEND
0
POLYLINE
8
CUT
66
1
70
0
0
VERTEX
8
CUT
10
21.1329
20
17.7218
0
VERTEX
8
CUT
10
17.4995
20
20.344
0
VERTEX
8
CUT
10
13.8661
20
17.7218
0
SEQEND
0
POLYLINE
8
CUT
66
1
70
0
0
VERTEX
8
CUT
10
12.6497
20
15.344
0
VERTEX
8
CUT
10
12.6497
20
9.844
0
VERTEX
8
CUT
10
16.4603
20
7.094
0
SEQEND
0
POLYLINE
8
CUT
66
1
70
0
0
VERTEX
8
CUT
10
29.399
20
8.144
0
VERTEX
8
CUT
10
33.0016
20
10.744
0
VERTEX
8
CUT
10
33.0016
20
15.944
0
VERTEX
8
CUT
10
29.399
20
18.544
0
VERTEX
8
CUT
10
25.7963
20
15.944
0
VERTEX
8
CUT
10
25.7963
20
10.744
0
VERTEX
8
CUT
10
29.399
20
8.144
0
SEQEND
0
POLYLINE
8
CUT
66
1
70
0
0
VERTEX
8
CUT
10
30.6153
20
7.2218
0
VERTEX
8
CUT
10
34.2487
20
9.844
0
VERTEX
8
CUT
10
34.2487
20
15.0884
0
SEQEND
0
POLYLINE
8
CUT
66
1
70
0
0
VERTEX
8
CUT
10
33.0324
20
17.7218
0
VERTEX
8
CUT
10
29.399
20
20.344
0
VERTEX
8
CUT
10
25.7656
20
17.7218
0
SEQEND
0
POLYLINE
8
CUT
66
1
70
0
0
VERTEX
8
CUT
10
24.5492
20
15.344
0
VERTEX
8
CUT
10
24.5492
20
9.844
0
VERTEX
8
CUT
10
28.3597
20
7.094
0
SEQEND
0
POLYLINE
8
CUT
66
1
70
0
0
VERTEX
8
CUT
10
41.2985
20
8.144
0
VERTEX
8
CUT
10
44.9011
20
10.744
0
VERTEX
8
CUT
10
44.9011
20
15.944
0
VERTEX
8
CUT
10
41.2985
20
18.544
0
VERTEX
8
CUT
10
37.6958
20
15.944
0
VERTEX
8
CUT
10
37.6958
20
10.744
0
VERTEX
8
CUT
10
41.2985
20
8.144
0
SEQEND
0
POLYLINE
8
CUT
66
1
70
0
0
VERTEX
8
CUT
10
42.5148
20
7.2218
0
VERTEX
8
CUT
10
46.1482
20
9.844
0
VERTEX
8
CUT
10
46.1482
20
15.0884
0
SEQEND
0
POLYLINE
8
CUT
66
1
70
0
0
VERTEX
8
CUT
10
44.9319
20
17.7218
0
VERTEX
8
CUT
10
41.2985
20
20.344
0
VERTEX
8
CUT
10
37.665
20
17.7218
0
SEQEND
0
POLYLINE
8
CUT
66
1
70
0
0
VERTEX
8
CUT
10
36.4487
20
15.344
0
VERTEX
8
CUT
10
36.4487
20
9.844
0
VERTEX
8
CUT
10
40.2592
20
7.094
0
SEQEND
0
POLYLINE
8
CUT
66
1
70
0
0
VERTEX
8
CUT
10
53.1979
20
8.144
0
VERTEX
8
CUT
10
56.8006
20
10.744
0
VERTEX
8
CUT
10
56.8006
20
15.944
0
VERTEX
8
CUT
10
53.1979
20
18.544
0
VERTEX
8
CUT
10
49.5953
20
15.944
0
VERTEX
8
CUT
10
49.5953
20
10.744
0
VERTEX
8
CUT
10
53.1979
20
8.144
0
SEQEND
0
POLYLINE
8
CUT
66
1
70
0
0
VERTEX
8
CUT
10
54.4143
20
7.2218
0
VERTEX
8
CUT
10
58.0477
20
9.844
0
VERTEX
8
CUT
10
58.0477
20
15.0884
0
SEQEND
0
POLYLINE
8
CUT
66
1
70
0
0
VERTEX
8
CUT
10
56.8314
20
17.7218
0
VERTEX
8
CUT
10
53.1979
20
20.344
0
VERTEX
8
CUT
10
49.5645
20
17.7218
0
SEQEND
0
POLYLINE
8
CUT
66
1
70
0
0
VERTEX
8
CUT
10
48.3482
20
15.344
0
VERTEX
8
CUT
10
48.3482
20
9.844
0
VERTEX
8
CUT
10
52.1587
20
7.094
0
SEQEND
0
POLYLINE
8
CUT
66
1
70
0
0
VERTEX
8
CUT
10
65.0974
20
8.144
0
VERTEX
8
CUT
10
68.7001
20
10.744
0
VERTEX
8
CUT
10
68.7001
20
15.944
0
VERTEX
8
CUT
10
65.0974
20
18.544
0
VERTEX
8
CUT
10
61.4948
20
15.944
0
VERTEX
8
CUT
10
61.4948
20
10.744
0
VERTEX
8
CUT
10
65.0974
20
8.144
0
SEQEND
0
POLYLINE
8
CUT
66
1
70
0
0
VERTEX
8
CUT
10
66.3137
20
7.2218
0
VERTEX
8
CUT
10
69.9472
20
9.844
0
VERTEX
8
CUT
10
69.9472
20
15.0884
0
SEQEND
0
POLYLINE
8
CUT
66
1
70
0
0
VERTEX
8
CUT
10
68.7308
20
17.7218
0
VERTEX
8
CUT
10
65.0974
20
20.344
0
VERTEX
8
CUT
10
61.464
20
17.7218
0
SEQEND
0
POLYLINE
8
CUT
66
1
70
0
0
VERTEX
8
CUT
10
60.2477
20
15.344
0
VERTEX
8
CUT
10
60.2477
20
9.844
0
VERTEX
8
CUT
10
64.0582
20
7.094
0
SEQEND
0
POLYLINE
8
CUT
66
1
70
0
0
VERTEX
8
CUT
10
76.9969
20
8.144
0
VERTEX
8
CUT
10
80.5996
20
10.744
0
VERTEX
8
CUT
10
80.5996
20
15.944
0
VERTEX
8
CUT
10
76.9969
20
18.544
0
VERTEX
8
CUT
10
73.3942
20
15.944
0
VERTEX
8
CUT
10
73.3942
20
10.744
0
VERTEX
8
CUT
10
76.9969
20
8.144
0
SEQEND
0
POLYLINE
8
CUT
66
1
70
0
0
VERTEX
8
CUT
10
78.2132
20
7.2218
0
VERTEX
8
CUT
10
81.8466
20
9.844
0
VERTEX
8
CUT
10
81.8466
20
15.0884
0
SEQEND
0
POLYLINE
8
CUT
66
1
70
0
0
VERTEX
8
CUT
10
80.6303
20
17.7218
0
VERTEX
8
CUT
10
76.9969
20
20.344
0
VERTEX
8
CUT
10
73.3635
20
17.7218
0
SEQEND
0
POLYLINE
8
CUT
66
1
70
0
0
VERTEX
8
CUT
10
72.1472
20
15.344
0
VERTEX
8
CUT
10
72.1472
20
9.844
0
VERTEX
8
CUT
10
75.9577
20
7.094
0
SEQEND
0
POLYLINE
8
CUT
66
1
70
0
0
VERTEX
8
CUT
10
88.8964
20
8.144
0
VERTEX
8
CUT
10
92.4991
20
10.744
0
VERTEX
8
CUT
10
92.4991
20
15.944
0
VERTEX
8
CUT
10
88.8964
20
18.544
0
VERTEX
8
CUT
10
85.2937
20
15.944
0
VERTEX
8
CUT
10
85.2937
20
10.744
0
VERTEX
8
CUT
10
88.8964
20
8.144
0
SEQEND
0
POLYLINE
8
CUT
66
1
70
0
0
VERTEX
8
CUT
10
90.1127
20
7.2218
0
VERTEX
8
CUT
10
93.7461
20
9.844
0
VERTEX
8
CUT
10
93.7461
20
15.0884
0
SEQEND
0
POLYLINE
8
CUT
66
1
70
0
0
VERTEX
8
CUT
10
92.5298
20
17.7218
0
VERTEX
8
CUT
10
88.8964
20
20.344
0
VERTEX
8
CUT
10
85.263
20
17.7218
0
SEQEND
0
POLYLINE
8
CUT
66
1
70
0
0
VERTEX
8
CUT
10
84.0466
20
15.344
0
VERTEX
8
CUT
10
84.0466
20
9.844
0
VERTEX
8
CUT
10
87.8572
20
7.094
0
SEQEND
0
POLYLINE
8
CUT
66
1
70
0
0
VERTEX
8
CUT
10
100.7959
20
8.144
0
VERTEX
8
CUT
10
104.3985
20
10.744
0
VERTEX
8
CUT
10
104.3985
20
15.944
0
VERTEX
8
CUT
10
100.7959
20
18.544
0
VERTEX
8
CUT
10
97.1932
20
15.944
0
VERTEX
8
CUT
10
97.1932
20
10.744
0
VERTEX
8
CUT
10
100.7959
20
8.144
0
SEQEND
0
POLYLINE
8
CUT
66
1
70
0
0
VERTEX
8
CUT
10
102.0122
20
7.2218
0
VERTEX
8
CUT
10
105.6456
20
9.844
0
VERTEX
8
CUT
10
105.6456
20
15.0884
0
SEQEND
0
POLYLINE
8
CUT
66
1
70
0
0
VERTEX
8
CUT
10
104.4293
20
17.7218
0
VERTEX
8
CUT
10
100.7959
20
20.344
0
VERTEX
8
CUT
10
97.1625
20
17.7218
0
SEQEND
0
POLYLINE
8
CUT
66
1
70
0
0
VERTEX
8
CUT
10
95.9461
20
15.344
0
VERTEX
8
CUT
10
95.9461
20
9.844
0
VERTEX
8
CUT
10
99.7566
20
7.094
0
SEQEND
0
POLYLINE
8
CUT
66
1
70
0
0
VERTEX
8
CUT
10
112.6954
20
8.144
0
VERTEX
8
CUT
10
116.298
20
10.744
0
VERTEX
8
CUT
10
116.298
20
15.944
0
VERTEX
8
CUT
10
112.6954
20
18.544
0
VERTEX
8
CUT
10
109.0927
20
15.944
0
VERTEX
8
CUT
10
109.0927
20
10.744
0
VERTEX
8
CUT
10
112.6954
20
8.144
0
SEQEND
0
POLYLINE
8
CUT
66
1
70
0
0
VERTEX
8
CUT
10
113.9117
20
7.2218
0
VERTEX
8
CUT
10
117.5451
20
9.844
0
VERTEX
8
CUT
10
117.5451
20
15.0884
0
SEQEND
0
POLYLINE
8
CUT
66
1
70
0
0
VERTEX
8
CUT
10
116.3288
20
17.7218
0
VERTEX
8
CUT
10
112.6954
20
20.344
0
VERTEX
8
CUT
10
109.0619
20
17.7218
0
SEQEND
0
POLYLINE
8
CUT
66
1
70
0
0
VERTEX
8
CUT
10
107.8456
20
15.344
0
VERTEX
8
CUT
10
107.8456
20
9.844
0
VERTEX
8
CUT
10
111.6561
20
7.094
0
SEQEND
0
POLYLINE
8
CUT
66
1
70
0
0
VERTEX
8
CUT
10
119.7451
20
15.344
0
VERTEX
8
CUT
10
119.7451
20
9.844
0
VERTEX
8
CUT
10
120
20
9.66
0
SEQEND
0
POLYLINE
8
CUT
66
1
70
0
0
VERTEX
8
CUT
10
3.2529
20
0
0
VERTEX
8
CUT
10
3.2529
20
3.53
0
VERTEX
8
CUT
10
0
20
5.8776
0
SEQEND
0
LINE
8
CUT
10
4.5
20
0
11
4.5
21
2.6744
0
LINE
8
CUT
10
3.2837
20
5.3078
11
0
21
7.6776
0
POLYLINE
8
CUT
66
1
70
0
0
VERTEX
8
CUT
10
15.1524
20
0
0
VERTEX
8
CUT
10
15.1524
20
3.53
0
VERTEX
8
CUT
10
11.5497
20
6.13
0
VERTEX
8
CUT
10
7.9471
20
3.53
0
VERTEX
8
CUT
10
7.9471
20
0
0
SEQEND
0
LINE
8
CUT
10
16.3995
20
0
11
16.3995
21
2.6744
0
POLYLINE
8
CUT
66
1
70
0
0
VERTEX
8
CUT
10
15.1832
20
5.3078
0
VERTEX
8
CUT
10
11.5497
20
7.93
0
VERTEX
8
CUT
10
7.9163
20
5.3078
0
SEQEND
0
LINE
8
CUT
10
6.7
20
2.93
11
6.7
21
0
0
POLYLINE
8
CUT
66
1
70
0
0
VERTEX
8
CUT
10
27.0519
20
0
0
VERTEX
8
CUT
10
27.0519
20
3.53
0
VERTEX
8
CUT
10
23.4492
20
6.13
0
VERTEX
8
CUT
10
19.8466
20
3.53
0
VERTEX
8
CUT
10
19.8466
20
0
0
SEQEND
0
LINE
8
CUT
10
28.299
20
0
11
28.299
21
2.6744
0
POLYLINE
8
CUT
66
1
70
0
0
VERTEX
8
CUT
10
27.0826
20
5.3078
0
VERTEX
8
CUT
10
23.4492
20
7.93
0
VERTEX
8
CUT
10
19.8158
20
5.3078
0
SEQEND
0
LINE
8
CUT
10
18.5995
20
2.93
11
18.5995
21
0
0
POLYLINE
8
CUT
66
1
70
0
0
VERTEX
8
CUT
10
38.9514
20
0
0
VERTEX
8
CUT
10
38.9514
20
3.53
0
VERTEX
8
CUT
10
35.3487
20
6.13
0
VERTEX
8
CUT
10
31.746
20
3.53
0
VERTEX
8
CUT
10
31.746
20
0
0
SEQEND
0
LINE
8
CUT
10
40.1985
20
0
11
40.1985
21
2.6744
0
POLYLINE
8
CUT
66
1
70
0
0
VERTEX
8
CUT
10
38.9821
20
5.3078
0
VERTEX
8
CUT
10
35.3487
20
7.93
0
VERTEX
8
CUT
10
31.7153
20
5.3078
0
SEQEND
0
LINE
8
CUT
10
30.499
20
2.93
11
30.499
21
0
0
POLYLINE
8
CUT
66
1
70
0
0
VERTEX
8
CUT
10
50.8509
20
0
0
VERTEX
8
CUT
10
50.8509
20
3.53
0
VERTEX
8
CUT
10
47.2482
20
6.13
0
VERTEX
8
CUT
10
43.6455
20
3.53
0
VERTEX
8
CUT
10
43.6455
20
0
0
SEQEND
0
LINE
8
CUT
10
52.0979
20
0
11
52.0979
21
2.6744
0
POLYLINE
8
CUT
66
1
70
0
0
VERTEX
8
CUT
10
50.8816
20
5.3078
0
VERTEX
8
CUT
10
47.2482
20
7.93
0
VERTEX
8
CUT
10
43.6148
20
5.3078
0
SEQEND
0
LINE
8
CUT
10
42.3985
20
2.93
11
42.3985
21
0
0
POLYLINE
8
CUT
66
1
70
0
0
VERTEX
8
CUT
10
62.7503
20
0
0
VERTEX
8
CUT
10
62.7503
20
3.53
0
VERTEX
8
CUT
10
59.1477
20
6.13
0
VERTEX
8
CUT
10
55.545
20
3.53
0
VERTEX
8
CUT
10
55.545
20
0
0
SEQEND
0
LINE
8
CUT
10
63.9974
20
0
11
63.9974
21
2.6744
0
POLYLINE
8
CUT
66
1
70
0
0
VERTEX
8
CUT
10
62.7811
20
5.3078
0
VERTEX
8
CUT
10
59.1477
20
7.93
0
VERTEX
8
CUT
10
55.5143
20
5.3078
0
SEQEND
0
LINE
8
CUT
10
54.2979
20
2.93
11
54.2979
21
0
0
POLYLINE
8
CUT
66
1
70
0
0
VERTEX
8
CUT
10
74.6498
20
0
0
VERTEX
8
CUT
10
74.6498
20
3.53
0
VERTEX
8
CUT
10
71.0472
20
6.13
0
VERTEX
8
CUT
10
67.4445
20
3.53
0
VERTEX
8
CUT
10
67.4445
20
0
0
SEQEND
0
LINE
8
CUT
10
75.8969
20
0
11
75.8969
21
2.6744
0
POLYLINE
8
CUT
66
1
70
0
0
VERTEX
8
CUT
10
74.6806
20
5.3078
0
VERTEX
8
CUT
10
71.0472
20
7.93
0
VERTEX
8
CUT
10
67.4137
20
5.3078
0
SEQEND
0
LINE
8
CUT
10
66.1974
20
2.93
11
66.1974
21
0
0
POLYLINE
8
CUT
66
1
70
0
0
VERTEX
8
CUT
10
86.5493
20
0
0
VERTEX
8
CUT
10
86.5493
20
3.53
0
VERTEX
8
CUT
10
82.9466
20
6.13
0
VERTEX
8
CUT
10
79.344
20
3.53
0
VERTEX
8
CUT
10
79.344
20
0
0
SEQEND
0
LINE
8
CUT
10
87.7964
20
0
11
87.7964
21
2.6744
0
POLYLINE
8
CUT
66
1
70
0
0
VERTEX
8
CUT
10
86.5801
20
5.3078
0
VERTEX
8
CUT
10
82.9466
20
7.93
0
VERTEX
8
CUT
10
79.3132
20
5.3078
0
SEQEND
0
LINE
8
CUT
10
78.0969
20
2.93
11
78.0969
21
0
0
POLYLINE
8
CUT
66
1
70
0
0
VERTEX
8
CUT
10
98.4488
20
0
0
VERTEX
8
CUT
10
98.4488
20
3.53
0
VERTEX
8
CUT
10
94.8461
20
6.13
0
VERTEX
8
CUT
10
91.2435
20
3.53
0
VERTEX
8
CUT
10
91.2435
20
0
0
SEQEND
0
LINE
8
CUT
10
99.6959
20
0
11
99.6959
21
2.6744
0
POLYLINE
8
CUT
66
1
70
0
0
VERTEX
8
CUT
10
98.4795
20
5.3078
0
VERTEX
8
CUT
10
94.8461
20
7.93
0
VERTEX
8
CUT
10
91.2127
20
5.3078
0
SEQEND
0
LINE
8
CUT
10
89.9964
20
2.93
11
89.9964
21
0
0
POLYLINE
8
CUT
66
1
70
0
0
VERTEX
8
CUT
10
110.3483
20
0
0
VERTEX
8
CUT
10
110.3483
20
3.53
0
VERTEX
8
CUT
10
106.7456
20
6.13
0
VERTEX
8
CUT
10
103.143
20
3.53
0
VERTEX
8
CUT
10
103.143
20
0
0
SEQEND
0
LINE
8
CUT
10
111.5954
20
0
11
111.5954
21
2.6744
0
POLYLINE
8
CUT
66
1
70
0
0
VERTEX
8
CUT
10
110.379
20
5.3078
0
VERTEX
8
CUT
10
106.7456
20
7.93
0
VERTEX
8
CUT
10
103.1122
20
5.3078
0
SEQEND
0
LINE
8
CUT
10
101.8959
20
2.93
11
101.8959
21
0
0
POLYLINE
8
CUT
66
1
70
0
0
VERTEX
8
CUT
10
120
20
5.1522
0
VERTEX
8
CUT
10
118.6451
20
6.13
0
VERTEX
8
CUT
10
115.0424
20
3.53
0
VERTEX
8
CUT
10
115.0424
20
0
0
SEQEND
0
POLYLINE
8
CUT
66
1
70
0
0
VERTEX
8
CUT
10
120
20
6.9522
0
VERTEX
8
CUT
10
118.6451
20
7.93
0
VERTEX
8
CUT
10
115.0117
20
5.3078
0
SEQEND
0
LINE
8
CUT
10
113.7954
20
2.93
11
113.7954
21
0
0
POLYLINE
8
CUT
66
1
70
0
0
VERTEX
8
CUT
10
0
20
70
0
VERTEX
8
CUT
10
120
20
70
0
VERTEX
8
CUT
10
120
20
0
0
VERTEX
8
CUT
10
0
20
0
0
VERTEX
8
CUT
10
0
20
70
0
SEQEND
0
ENDSEC
0
EOF
