0
SECTION
2
HEADER
9
$ACADVER
1
AC1009
9
$INSUNITS
70
4
0
ENDSEC
0
SECTION
2
TABLES
0
TABLE
2
LAYER
70
1
0
LAYER
2
CUT
70
0
62
1
6
CONTINUOUS
0
ENDTAB
0
ENDSEC
0
SECTION
2
ENTITIES
0
POLYLINE
8
CUT
66
1
70
0
0
VERTEX
8
CUT
10
0
20
62
0
VERTEX
8
CUT
10
0
20
62
0
VERTEX
8
CUT
10
1.1667
20
61.3663
0
VERTEX
8
CUT
10
2.3333
20
60.8362
0
VERTEX
8
CUT
10
3.5
20
60.4965
0
VERTEX
8
CUT
10
4.6667
20
60.4027
0
VERTEX
8
CUT
10
5.8333
20
60.5702
0
VERTEX
8
CUT
10
7
20
60.9715
0
SEQEND
0
POLYLINE
8
CUT
66
1
70
0
0
VERTEX
8
CUT
10
10
20
62.5472
0
VERTEX
8
CUT
10
11.1667
20
63.098
0
VERTEX
8
CUT
10
12.3333
20
63.4691
0
VERTEX
8
CUT
10
13.5
20
63.6
0
VERTEX
8
CUT
10
14.6667
20
63.4691
0
VERTEX
8
CUT
10
15.8333
20
63.098
0
VERTEX
8
CUT
10
17
20
62.5472
0
VERTEX
8
CUT
10
18.1667
20
61.907
0
VERTEX
8
CUT
10
19.3333
20
61.2819
0
VERTEX
8
CUT
10
20.5
20
60.7743
0
VERTEX
8
CUT
10
21.6667
20
60.4672
0
VERTEX
8
CUT
10
22.8333
20
60.4108
0
VERTEX
8
CUT
10
24
20
60.6144
0
SEQEND
0
POLYLINE
8
CUT
66
1
70
0
0
VERTEX
8
CUT
10
27
20
62
0
VERTEX
8
CUT
10
28.1667
20
62.6337
0
VERTEX
8
CUT
10
29.3333
20
63.1638
0
VERTEX
8
CUT
10
30.5
20
63.5035
0
VERTEX
8
CUT
10
31.6667
20
63.5973
0
VERTEX
8
CUT
10
32.8333
20
63.4298
0
VERTEX
8
CUT
10
34
20
63.0285
0
VERTEX
8
CUT
10
35.1667
20
62.4589
0
VERTEX
8
CUT
10
36.3333
20
61.8143
0
VERTEX
8
CUT
10
37.5
20
61.2
0
VERTEX
8
CUT
10
38.6667
20
60.7166
0
VERTEX
8
CUT
10
39.8333
20
60.4431
0
VERTEX
8
CUT
10
41
20
60.4243
0
SEQEND
0
POLYLINE
8
CUT
66
1
70
0
0
VERTEX
8
CUT
10
44
20
61.4528
0
VERTEX
8
CUT
10
45.1667
20
62.093
0
VERTEX
8
CUT
10
46.3333
20
62.7181
0
VERTEX
8
CUT
10
47.5
20
63.2257
0
VERTEX
8
CUT
10
48.6667
20
63.5328
0
VERTEX
8
CUT
10
49.8333
20
63.5892
0
VERTEX
8
CUT
10
51
20
63.3856
0
VERTEX
8
CUT
10
52.1667
20
62.9555
0
VERTEX
8
CUT
10
53.3333
20
62.369
0
VERTEX
8
CUT
10
54.5
20
61.7222
0
VERTEX
8
CUT
10
55.6667
20
61.1208
0
VERTEX
8
CUT
10
56.8333
20
60.6632
0
VERTEX
8
CUT
10
58
20
60.4243
0
SEQEND
0
POLYLINE
8
CUT
66
1
70
0
0
VERTEX
8
CUT
10
61
20
60.9715
0
VERTEX
8
CUT
10
62.1667
20
61.5411
0
VERTEX
8
CUT
10
63.3333
20
62.1857
0
VERTEX
8
CUT
10
64.5
20
62.8
0
VERTEX
8
CUT
10
65.6667
20
63.2834
0
VERTEX
8
CUT
10
66.8333
20
63.5569
0
VERTEX
8
CUT
10
68
20
63.5757
0
VERTEX
8
CUT
10
69.1667
20
63.3368
0
VERTEX
8
CUT
10
70.3333
20
62.8792
0
VERTEX
8
CUT
10
71.5
20
62.2778
0
VERTEX
8
CUT
10
72.6667
20
61.631
0
VERTEX
8
CUT
10
73.8333
20
61.0445
0
VERTEX
8
CUT
10
75
20
60.6144
0
SEQEND
0
POLYLINE
8
CUT
66
1
70
0
0
VERTEX
8
CUT
10
78
20
60.6144
0
VERTEX
8
CUT
10
79.1667
20
61.0445
0
VERTEX
8
CUT
10
80.3333
20
61.631
0
VERTEX
8
CUT
10
81.5
20
62.2778
0
VERTEX
8
CUT
10
82.6667
20
62.8792
0
VERTEX
8
CUT
10
83.8333
20
63.3368
0
VERTEX
8
CUT
10
85
20
63.5757
0
VERTEX
8
CUT
10
86.1667
20
63.5569
0
VERTEX
8
CUT
10
87.3333
20
63.2834
0
VERTEX
8
CUT
10
88.5
20
62.8
0
VERTEX
8
CUT
10
89.6667
20
62.1857
0
VERTEX
8
CUT
10
90.8333
20
61.5411
0
VERTEX
8
CUT
10
92
20
60.9715
0
SEQEND
0
POLYLINE
8
CUT
66
1
70
0
0
VERTEX
8
CUT
10
95
20
60.4243
0
VERTEX
8
CUT
10
96.1667
20
60.6632
0
VERTEX
8
CUT
10
97.3333
20
61.1208
0
VERTEX
8
CUT
10
98.5
20
61.7222
0
VERTEX
8
CUT
10
99.6667
20
62.369
0
VERTEX
8
CUT
10
100.8333
20
62.9555
0
VERTEX
8
CUT
10
102
20
63.3856
0
VERTEX
8
CUT
10
103.1667
20
63.5892
0
VERTEX
8
CUT
10
104.3333
20
63.5328
0
VERTEX
8
CUT
10
105.5
20
63.2257
0
VERTEX
8
CUT
10
106.6667
20
62.7181
0
VERTEX
8
CUT
10
107.8333
20
62.093
0
VERTEX
8
CUT
10
109
20
61.4528
0
SEQEND
0
POLYLINE
8
CUT
66
1
70
0
0
VERTEX
8
CUT
10
112
20
60.4243
0
VERTEX
8
CUT
10
113.1667
20
60.4431
0
VERTEX
8
CUT
10
114.3333
20
60.7166
0
VERTEX
8
CUT
10
115.5
20
61.2
0
VERTEX
8
CUT
10
116.6667
20
61.8143
0
VERTEX
8
CUT
10
117.8333
20
62.4589
0
VERTEX
8
CUT
10
119
20
63.0285
0
VERTEX
8
CUT
10
120
20
63.3725
0
SEQEND
0
POLYLINE
8
CUT
66
1
70
0
0
VERTEX
8
CUT
10
1.5
20
52.2
0
VERTEX
8
CUT
10
2.6667
20
51.7166
0
VERTEX
8
CUT
10
3.8333
20
51.4431
0
VERTEX
8
CUT
10
5
20
51.4243
0
VERTEX
8
CUT
10
6.1667
20
51.6632
0
VERTEX
8
CUT
10
7.3333
20
52.1208
0
VERTEX
8
CUT
10
8.5
20
52.7222
0
VERTEX
8
CUT
10
9.6667
20
53.369
0
VERTEX
8
CUT
10
10.8333
20
53.9555
0
VERTEX
8
CUT
10
12
20
54.3856
0
VERTEX
8
CUT
10
13.1667
20
54.5892
0
VERTEX
8
CUT
10
14.3333
20
54.5328
0
VERTEX
8
CUT
10
15.5
20
54.2257
0
SEQEND
0
POLYLINE
8
CUT
66
1
70
0
0
VERTEX
8
CUT
10
18.5
20
52.7222
0
VERTEX
8
CUT
10
19.6667
20
52.1208
0
VERTEX
8
CUT
10
20.8333
20
51.6632
0
VERTEX
8
CUT
10
22
20
51.4243
0
VERTEX
8
CUT
10
23.1667
20
51.4431
0
VERTEX
8
CUT
10
24.3333
20
51.7166
0
VERTEX
8
CUT
10
25.5
20
52.2
0
VERTEX
8
CUT
10
26.6667
20
52.8143
0
VERTEX
8
CUT
10
27.8333
20
53.4589
0
VERTEX
8
CUT
10
29
20
54.0285
0
VERTEX
8
CUT
10
30.1667
20
54.4298
0
VERTEX
8
CUT
10
31.3333
20
54.5973
0
VERTEX
8
CUT
10
32.5
20
54.5035
0
SEQEND
0
POLYLINE
8
CUT
66
1
70
0
0
VERTEX
8
CUT
10
35.5
20
53.2778
0
VERTEX
8
CUT
10
36.6667
20
52.631
0
VERTEX
8
CUT
10
37.8333
20
52.0445
0
VERTEX
8
CUT
10
39
20
51.6144
0
VERTEX
8
CUT
10
40.1667
20
51.4108
0
VERTEX
8
CUT
10
41.3333
20
51.4672
0
VERTEX
8
CUT
10
42.5
20
51.7743
0
VERTEX
8
CUT
10
43.6667
20
52.2819
0
VERTEX
8
CUT
10
44.8333
20
52.907
0
VERTEX
8
CUT
10
46
20
53.5472
0
VERTEX
8
CUT
10
47.1667
20
54.098
0
VERTEX
8
CUT
10
48.3333
20
54.4691
0
VERTEX
8
CUT
10
49.5
20
54.6
0
SEQEND
0
POLYLINE
8
CUT
66
1
70
0
0
VERTEX
8
CUT
10
52.5
20
53.8
0
VERTEX
8
CUT
10
53.6667
20
53.1857
0
VERTEX
8
CUT
10
54.8333
20
52.5411
0
VERTEX
8
CUT
10
56
20
51.9715
0
VERTEX
8
CUT
10
57.1667
20
51.5702
0
VERTEX
8
CUT
10
58.3333
20
51.4027
0
VERTEX
8
CUT
10
59.5
20
51.4965
0
VERTEX
8
CUT
10
60.6667
20
51.8362
0
VERTEX
8
CUT
10
61.8333
20
52.3663
0
VERTEX
8
CUT
10
63
20
53
0
VERTEX
8
CUT
10
64.1667
20
53.6337
0
VERTEX
8
CUT
10
65.3333
20
54.1638
0
VERTEX
8
CUT
10
66.5
20
54.5035
0
SEQEND
0
POLYLINE
8
CUT
66
1
70
0
0
VERTEX
8
CUT
10
69.5
20
54.2257
0
VERTEX
8
CUT
10
70.6667
20
53.7181
0
VERTEX
8
CUT
10
71.8333
20
53.093
0
VERTEX
8
CUT
10
73
20
52.4528
0
VERTEX
8
CUT
10
74.1667
20
51.902
0
VERTEX
8
CUT
10
75.3333
20
51.5309
0
VERTEX
8
CUT
10
76.5
20
51.4
0
VERTEX
8
CUT
10
77.6667
20
51.5309
0
VERTEX
8
CUT
10
78.8333
20
51.902
0
VERTEX
8
CUT
10
80
20
52.4528
0
VERTEX
8
CUT
10
81.1667
20
53.093
0
VERTEX
8
CUT
10
82.3333
20
53.7181
0
VERTEX
8
CUT
10
83.5
20
54.2257
0
SEQEND
0
POLYLINE
8
CUT
66
1
70
0
0
VERTEX
8
CUT
10
86.5
20
54.5035
0
VERTEX
8
CUT
10
87.6667
20
54.1638
0
VERTEX
8
CUT
10
88.8333
20
53.6337
0
VERTEX
8
CUT
10
90
20
53
0
VERTEX
8
CUT
10
91.1667
20
52.3663
0
VERTEX
8
CUT
10
92.3333
20
51.8362
0
VERTEX
8
CUT
10
93.5
20
51.4965
0
VERTEX
8
CUT
10
94.6667
20
51.4027
0
VERTEX
8
CUT
10
95.8333
20
51.5702
0
VERTEX
8
CUT
10
97
20
51.9715
0
VERTEX
8
CUT
10
98.1667
20
52.5411
0
VERTEX
8
CUT
10
99.3333
20
53.1857
0
VERTEX
8
CUT
10
100.5
20
53.8
0
SEQEND
0
POLYLINE
8
CUT
66
1
70
0
0
VERTEX
8
CUT
10
103.5
20
54.6
0
VERTEX
8
CUT
10
104.6667
20
54.4691
0
VERTEX
8
CUT
10
105.8333
20
54.098
0
VERTEX
8
CUT
10
107
20
53.5472
0
VERTEX
8
CUT
10
108.1667
20
52.907
0
VERTEX
8
CUT
10
109.3333
20
52.2819
0
VERTEX
8
CUT
10
110.5
20
51.7743
0
VERTEX
8
CUT
10
111.6667
20
51.4672
0
VERTEX
8
CUT
10
112.8333
20
51.4108
0
VERTEX
8
CUT
10
114
20
51.6144
0
VERTEX
8
CUT
10
115.1667
20
52.0445
0
VERTEX
8
CUT
10
116.3333
20
52.631
0
VERTEX
8
CUT
10
117.5
20
53.2778
0
SEQEND
0
POLYLINE
8
CUT
66
1
70
0
0
VERTEX
8
CUT
10
0
20
44
0
VERTEX
8
CUT
10
0
20
44
0
VERTEX
8
CUT
10
1.1667
20
43.3663
0
VERTEX
8
CUT
10
2.3333
20
42.8362
0
VERTEX
8
CUT
10
3.5
20
42.4965
0
VERTEX
8
CUT
10
4.6667
20
42.4027
0
VERTEX
8
CUT
10
5.8333
20
42.5702
0
VERTEX
8
CUT
10
7
20
42.9715
0
SEQEND
0
POLYLINE
8
CUT
66
1
70
0
0
VERTEX
8
CUT
10
10
20
44.5472
0
VERTEX
8
CUT
10
11.1667
20
45.098
0
VERTEX
8
CUT
10
12.3333
20
45.4691
0
VERTEX
8
CUT
10
13.5
20
45.6
0
VERTEX
8
CUT
10
14.6667
20
45.4691
0
VERTEX
8
CUT
10
15.8333
20
45.098
0
VERTEX
8
CUT
10
17
20
44.5472
0
VERTEX
8
CUT
10
18.1667
20
43.907
0
VERTEX
8
CUT
10
19.3333
20
43.2819
0
VERTEX
8
CUT
10
20.5
20
42.7743
0
VERTEX
8
CUT
10
21.6667
20
42.4672
0
VERTEX
8
CUT
10
22.8333
20
42.4108
0
VERTEX
8
CUT
10
24
20
42.6144
0
SEQEND
0
POLYLINE
8
CUT
66
1
70
0
0
VERTEX
8
CUT
10
27
20
44
0
VERTEX
8
CUT
10
28.1667
20
44.6337
0
VERTEX
8
CUT
10
29.3333
20
45.1638
0
VERTEX
8
CUT
10
30.5
20
45.5035
0
VERTEX
8
CUT
10
31.6667
20
45.5973
0
VERTEX
8
CUT
10
32.8333
20
45.4298
0
VERTEX
8
CUT
10
34
20
45.0285
0
VERTEX
8
CUT
10
35.1667
20
44.4589
0
VERTEX
8
CUT
10
36.3333
20
43.8143
0
VERTEX
8
CUT
10
37.5
20
43.2
0
VERTEX
8
CUT
10
38.6667
20
42.7166
0
VERTEX
8
CUT
10
39.8333
20
42.4431
0
VERTEX
8
CUT
10
41
20
42.4243
0
SEQEND
0
POLYLINE
8
CUT
66
1
70
0
0
VERTEX
8
CUT
10
44
20
43.4528
0
VERTEX
8
CUT
10
45.1667
20
44.093
0
VERTEX
8
CUT
10
46.3333
20
44.7181
0
VERTEX
8
CUT
10
47.5
20
45.2257
0
VERTEX
8
CUT
10
48.6667
20
45.5328
0
VERTEX
8
CUT
10
49.8333
20
45.5892
0
VERTEX
8
CUT
10
51
20
45.3856
0
VERTEX
8
CUT
10
52.1667
20
44.9555
0
VERTEX
8
CUT
10
53.3333
20
44.369
0
VERTEX
8
CUT
10
54.5
20
43.7222
0
VERTEX
8
CUT
10
55.6667
20
43.1208
0
VERTEX
8
CUT
10
56.8333
20
42.6632
0
VERTEX
8
CUT
10
58
20
42.4243
0
SEQEND
0
POLYLINE
8
CUT
66
1
70
0
0
VERTEX
8
CUT
10
61
20
42.9715
0
VERTEX
8
CUT
10
62.1667
20
43.5411
0
VERTEX
8
CUT
10
63.3333
20
44.1857
0
VERTEX
8
CUT
10
64.5
20
44.8
0
VERTEX
8
CUT
10
65.6667
20
45.2834
0
VERTEX
8
CUT
10
66.8333
20
45.5569
0
VERTEX
8
CUT
10
68
20
45.5757
0
VERTEX
8
CUT
10
69.1667
20
45.3368
0
VERTEX
8
CUT
10
70.3333
20
44.8792
0
VERTEX
8
CUT
10
71.5
20
44.2778
0
VERTEX
8
CUT
10
72.6667
20
43.631
0
VERTEX
8
CUT
10
73.8333
20
43.0445
0
VERTEX
8
CUT
10
75
20
42.6144
0
SEQEND
0
POLYLINE
8
CUT
66
1
70
0
0
VERTEX
8
CUT
10
78
20
42.6144
0
VERTEX
8
CUT
10
79.1667
20
43.0445
0
VERTEX
8
CUT
10
80.3333
20
43.631
0
VERTEX
8
CUT
10
81.5
20
44.2778
0
VERTEX
8
CUT
10
82.6667
20
44.8792
0
VERTEX
8
CUT
10
83.8333
20
45.3368
0
VERTEX
8
CUT
10
85
20
45.5757
0
VERTEX
8
CUT
10
86.1667
20
45.5569
0
VERTEX
8
CUT
10
87.3333
20
45.2834
0
VERTEX
8
CUT
10
88.5
20
44.8
0
VERTEX
8
CUT
10
89.6667
20
44.1857
0
VERTEX
8
CUT
10
90.8333
20
43.5411
0
VERTEX
8
CUT
10
92
20
42.9715
0
SEQEND
0
POLYLINE
8
CUT
66
1
70
0
0
VERTEX
8
CUT
10
95
20
42.4243
0
VERTEX
8
CUT
10
96.1667
20
42.6632
0
VERTEX
8
CUT
10
97.3333
20
43.1208
0
VERTEX
8
CUT
10
98.5
20
43.7222
0
VERTEX
8
CUT
10
99.6667
20
44.369
0
VERTEX
8
CUT
10
100.8333
20
44.9555
0
VERTEX
8
CUT
10
102
20
45.3856
0
VERTEX
8
CUT
10
103.1667
20
45.5892
0
VERTEX
8
CUT
10
104.3333
20
45.5328
0
VERTEX
8
CUT
10
105.5
20
45.2257
0
VERTEX
8
CUT
10
106.6667
20
44.7181
0
VERTEX
8
CUT
10
107.8333
20
44.093
0
VERTEX
8
CUT
10
109
20
43.4528
0
SEQEND
0
POLYLINE
8
CUT
66
1
70
0
0
VERTEX
8
CUT
10
112
20
42.4243
0
VERTEX
8
CUT
10
113.1667
20
42.4431
0
VERTEX
8
CUT
10
114.3333
20
42.7166
0
VERTEX
8
CUT
10
115.5
20
43.2
0
VERTEX
8
CUT
10
116.6667
20
43.8143
0
VERTEX
8
CUT
10
117.8333
20
44.4589
0
VERTEX
8
CUT
10
119
20
45.0285
0
VERTEX
8
CUT
10
120
20
45.3725
0
SEQEND
0
POLYLINE
8
CUT
66
1
70
0
0
VERTEX
8
CUT
10
1.5
20
34.2
0
VERTEX
8
CUT
10
2.6667
20
33.7166
0
VERTEX
8
CUT
10
3.8333
20
33.4431
0
VERTEX
8
CUT
10
5
20
33.4243
0
VERTEX
8
CUT
10
6.1667
20
33.6632
0
VERTEX
8
CUT
10
7.3333
20
34.1208
0
VERTEX
8
CUT
10
8.5
20
34.7222
0
VERTEX
8
CUT
10
9.6667
20
35.369
0
VERTEX
8
CUT
10
10.8333
20
35.9555
0
VERTEX
8
CUT
10
12
20
36.3856
0
VERTEX
8
CUT
10
13.1667
20
36.5892
0
VERTEX
8
CUT
10
14.3333
20
36.5328
0
VERTEX
8
CUT
10
15.5
20
36.2257
0
SEQEND
0
POLYLINE
8
CUT
66
1
70
0
0
VERTEX
8
CUT
10
18.5
20
34.7222
0
VERTEX
8
CUT
10
19.6667
20
34.1208
0
VERTEX
8
CUT
10
20.8333
20
33.6632
0
VERTEX
8
CUT
10
22
20
33.4243
0
VERTEX
8
CUT
10
23.1667
20
33.4431
0
VERTEX
8
CUT
10
24.3333
20
33.7166
0
VERTEX
8
CUT
10
25.5
20
34.2
0
VERTEX
8
CUT
10
26.6667
20
34.8143
0
VERTEX
8
CUT
10
27.8333
20
35.4589
0
VERTEX
8
CUT
10
29
20
36.0285
0
VERTEX
8
CUT
10
30.1667
20
36.4298
0
VERTEX
8
CUT
10
31.3333
20
36.5973
0
VERTEX
8
CUT
10
32.5
20
36.5035
0
SEQEND
0
POLYLINE
8
CUT
66
1
70
0
0
VERTEX
8
CUT
10
35.5
20
35.2778
0
VERTEX
8
CUT
10
36.6667
20
34.631
0
VERTEX
8
CUT
10
37.8333
20
34.0445
0
VERTEX
8
CUT
10
39
20
33.6144
0
VERTEX
8
CUT
10
40.1667
20
33.4108
0
VERTEX
8
CUT
10
41.3333
20
33.4672
0
VERTEX
8
CUT
10
42.5
20
33.7743
0
VERTEX
8
CUT
10
43.6667
20
34.2819
0
VERTEX
8
CUT
10
44.8333
20
34.907
0
VERTEX
8
CUT
10
46
20
35.5472
0
VERTEX
8
CUT
10
47.1667
20
36.098
0
VERTEX
8
CUT
10
48.3333
20
36.4691
0
VERTEX
8
CUT
10
49.5
20
36.6
0
SEQEND
0
POLYLINE
8
CUT
66
1
70
0
0
VERTEX
8
CUT
10
52.5
20
35.8
0
VERTEX
8
CUT
10
53.6667
20
35.1857
0
VERTEX
8
CUT
10
54.8333
20
34.5411
0
VERTEX
8
CUT
10
56
20
33.9715
0
VERTEX
8
CUT
10
57.1667
20
33.5702
0
VERTEX
8
CUT
10
58.3333
20
33.4027
0
VERTEX
8
CUT
10
59.5
20
33.4965
0
VERTEX
8
CUT
10
60.6667
20
33.8362
0
VERTEX
8
CUT
10
61.8333
20
34.3663
0
VERTEX
8
CUT
10
63
20
35
0
VERTEX
8
CUT
10
64.1667
20
35.6337
0
VERTEX
8
CUT
10
65.3333
20
36.1638
0
VERTEX
8
CUT
10
66.5
20
36.5035
0
SEQEND
0
POLYLINE
8
CUT
66
1
70
0
0
VERTEX
8
CUT
10
69.5
20
36.2257
0
VERTEX
8
CUT
10
70.6667
20
35.7181
0
VERTEX
8
CUT
10
71.8333
20
35.093
0
VERTEX
8
CUT
10
73
20
34.4528
0
VERTEX
8
CUT
10
74.1667
20
33.902
0
VERTEX
8
CUT
10
75.3333
20
33.5309
0
VERTEX
8
CUT
10
76.5
20
33.4
0
VERTEX
8
CUT
10
77.6667
20
33.5309
0
VERTEX
8
CUT
10
78.8333
20
33.902
0
VERTEX
8
CUT
10
80
20
34.4528
0
VERTEX
8
CUT
10
81.1667
20
35.093
0
VERTEX
8
CUT
10
82.3333
20
35.7181
0
VERTEX
8
CUT
10
83.5
20
36.2257
0
SEQEND
0
POLYLINE
8
CUT
66
1
70
0
0
VERTEX
8
CUT
10
86.5
20
36.5035
0
VERTEX
8
CUT
10
87.6667
20
36.1638
0
VERTEX
8
CUT
10
88.8333
20
35.6337
0
VERTEX
8
CUT
10
90
20
35
0
VERTEX
8
CUT
10
91.1667
20
34.3663
0
VERTEX
8
CUT
10
92.3333
20
33.8362
0
VERTEX
8
CUT
10
93.5
20
33.4965
0
VERTEX
8
CUT
10
94.6667
20
33.4027
0
VERTEX
8
CUT
10
95.8333
20
33.5702
0
VERTEX
8
CUT
10
97
20
33.9715
0
VERTEX
8
CUT
10
98.1667
20
34.5411
0
VERTEX
8
CUT
10
99.3333
20
35.1857
0
VERTEX
8
CUT
10
100.5
20
35.8
0
SEQEND
0
POLYLINE
8
CUT
66
1
70
0
0
VERTEX
8
CUT
10
103.5
20
36.6
0
VERTEX
8
CUT
10
104.6667
20
36.4691
0
VERTEX
8
CUT
10
105.8333
20
36.098
0
VERTEX
8
CUT
10
107
20
35.5472
0
VERTEX
8
CUT
10
108.1667
20
34.907
0
VERTEX
8
CUT
10
109.3333
20
34.2819
0
VERTEX
8
CUT
10
110.5
20
33.7743
0
VERTEX
8
CUT
10
111.6667
20
33.4672
0
VERTEX
8
CUT
10
112.8333
20
33.4108
0
VERTEX
8
CUT
10
114
20
33.6144
0
VERTEX
8
CUT
10
115.1667
20
34.0445
0
VERTEX
8
CUT
10
116.3333
20
34.631
0
VERTEX
8
CUT
10
117.5
20
35.2778
0
SEQEND
0
POLYLINE
8
CUT
66
1
70
0
0
VERTEX
8
CUT
10
0
20
26
0
VERTEX
8
CUT
10
0
20
26
0
VERTEX
8
CUT
10
1.1667
20
25.3663
0
VERTEX
8
CUT
10
2.3333
20
24.8362
0
VERTEX
8
CUT
10
3.5
20
24.4965
0
VERTEX
8
CUT
10
4.6667
20
24.4027
0
VERTEX
8
CUT
10
5.8333
20
24.5702
0
VERTEX
8
CUT
10
7
20
24.9715
0
SEQEND
0
POLYLINE
8
CUT
66
1
70
0
0
VERTEX
8
CUT
10
10
20
26.5472
0
VERTEX
8
CUT
10
11.1667
20
27.098
0
VERTEX
8
CUT
10
12.3333
20
27.4691
0
VERTEX
8
CUT
10
13.5
20
27.6
0
VERTEX
8
CUT
10
14.6667
20
27.4691
0
VERTEX
8
CUT
10
15.8333
20
27.098
0
VERTEX
8
CUT
10
17
20
26.5472
0
VERTEX
8
CUT
10
18.1667
20
25.907
0
VERTEX
8
CUT
10
19.3333
20
25.2819
0
VERTEX
8
CUT
10
20.5
20
24.7743
0
VERTEX
8
CUT
10
21.6667
20
24.4672
0
VERTEX
8
CUT
10
22.8333
20
24.4108
0
VERTEX
8
CUT
10
24
20
24.6144
0
SEQEND
0
POLYLINE
8
CUT
66
1
70
0
0
VERTEX
8
CUT
10
27
20
26
0
VERTEX
8
CUT
10
28.1667
20
26.6337
0
VERTEX
8
CUT
10
29.3333
20
27.1638
0
VERTEX
8
CUT
10
30.5
20
27.5035
0
VERTEX
8
CUT
10
31.6667
20
27.5973
0
VERTEX
8
CUT
10
32.8333
20
27.4298
0
VERTEX
8
CUT
10
34
20
27.0285
0
VERTEX
8
CUT
10
35.1667
20
26.4589
0
VERTEX
8
CUT
10
36.3333
20
25.8143
0
VERTEX
8
CUT
10
37.5
20
25.2
0
VERTEX
8
CUT
10
38.6667
20
24.7166
0
VERTEX
8
CUT
10
39.8333
20
24.4431
0
VERTEX
8
CUT
10
41
20
24.4243
0
SEQEND
0
POLYLINE
8
CUT
66
1
70
0
0
VERTEX
8
CUT
10
44
20
25.4528
0
VERTEX
8
CUT
10
45.1667
20
26.093
0
VERTEX
8
CUT
10
46.3333
20
26.7181
0
VERTEX
8
CUT
10
47.5
20
27.2257
0
VERTEX
8
CUT
10
48.6667
20
27.5328
0
VERTEX
8
CUT
10
49.8333
20
27.5892
0
VERTEX
8
CUT
10
51
20
27.3856
0
VERTEX
8
CUT
10
52.1667
20
26.9555
0
VERTEX
8
CUT
10
53.3333
20
26.369
0
VERTEX
8
CUT
10
54.5
20
25.7222
0
VERTEX
8
CUT
10
55.6667
20
25.1208
0
VERTEX
8
CUT
10
56.8333
20
24.6632
0
VERTEX
8
CUT
10
58
20
24.4243
0
SEQEND
0
POLYLINE
8
CUT
66
1
70
0
0
VERTEX
8
CUT
10
61
20
24.9715
0
VERTEX
8
CUT
10
62.1667
20
25.5411
0
VERTEX
8
CUT
10
63.3333
20
26.1857
0
VERTEX
8
CUT
10
64.5
20
26.8
0
VERTEX
8
CUT
10
65.6667
20
27.2834
0
VERTEX
8
CUT
10
66.8333
20
27.5569
0
VERTEX
8
CUT
10
68
20
27.5757
0
VERTEX
8
CUT
10
69.1667
20
27.3368
0
VERTEX
8
CUT
10
70.3333
20
26.8792
0
VERTEX
8
CUT
10
71.5
20
26.2778
0
VERTEX
8
CUT
10
72.6667
20
25.631
0
VERTEX
8
CUT
10
73.8333
20
25.0445
0
VERTEX
8
CUT
10
75
20
24.6144
0
SEQEND
0
POLYLINE
8
CUT
66
1
70
0
0
VERTEX
8
CUT
10
78
20
24.6144
0
VERTEX
8
CUT
10
79.1667
20
25.0445
0
VERTEX
8
CUT
10
80.3333
20
25.631
0
VERTEX
8
CUT
10
81.5
20
26.2778
0
VERTEX
8
CUT
10
82.6667
20
26.8792
0
VERTEX
8
CUT
10
83.8333
20
27.3368
0
VERTEX
8
CUT
10
85
20
27.5757
0
VERTEX
8
CUT
10
86.1667
20
27.5569
0
VERTEX
8
CUT
10
87.3333
20
27.2834
0
VERTEX
8
CUT
10
88.5
20
26.8
0
VERTEX
8
CUT
10
89.6667
20
26.1857
0
VERTEX
8
CUT
10
90.8333
20
25.5411
0
VERTEX
8
CUT
10
92
20
24.9715
0
SEQEND
0
POLYLINE
8
CUT
66
1
70
0
0
VERTEX
8
CUT
10
95
20
24.4243
0
VERTEX
8
CUT
10
96.1667
20
24.6632
0
VERTEX
8
CUT
10
97.3333
20
25.1208
0
VERTEX
8
CUT
10
98.5
20
25.7222
0
VERTEX
8
CUT
10
99.6667
20
26.369
0
VERTEX
8
CUT
10
100.8333
20
26.9555
0
VERTEX
8
CUT
10
102
20
27.3856
0
VERTEX
8
CUT
10
103.1667
20
27.5892
0
VERTEX
8
CUT
10
104.3333
20
27.5328
0
VERTEX
8
CUT
10
105.5
20
27.2257
0
VERTEX
8
CUT
10
106.6667
20
26.7181
0
VERTEX
8
CUT
10
107.8333
20
26.093
0
VERTEX
8
CUT
10
109
20
25.4528
0
SEQEND
0
POLYLINE
8
CUT
66
1
70
0
0
VERTEX
8
CUT
10
112
20
24.4243
0
VERTEX
8
CUT
10
113.1667
20
24.4431
0
VERTEX
8
CUT
10
114.3333
20
24.7166
0
VERTEX
8
CUT
10
115.5
20
25.2
0
VERTEX
8
CUT
10
116.6667
20
25.8143
0
VERTEX
8
CUT
10
117.8333
20
26.4589
0
VERTEX
8
CUT
10
119
20
27.0285
0
VERTEX
8
CUT
10
120
20
27.3725
0
SEQEND
0
POLYLINE
8
CUT
66
1
70
0
0
VERTEX
8
CUT
10
1.5
20
16.2
0
VERTEX
8
CUT
10
2.6667
20
15.7166
0
VERTEX
8
CUT
10
3.8333
20
15.4431
0
VERTEX
8
CUT
10
5
20
15.4243
0
VERTEX
8
CUT
10
6.1667
20
15.6632
0
VERTEX
8
CUT
10
7.3333
20
16.1208
0
VERTEX
8
CUT
10
8.5
20
16.7222
0
VERTEX
8
CUT
10
9.6667
20
17.369
0
VERTEX
8
CUT
10
10.8333
20
17.9555
0
VERTEX
8
CUT
10
12
20
18.3856
0
VERTEX
8
CUT
10
13.1667
20
18.5892
0
VERTEX
8
CUT
10
14.3333
20
18.5328
0
VERTEX
8
CUT
10
15.5
20
18.2257
0
SEQEND
0
POLYLINE
8
CUT
66
1
70
0
0
VERTEX
8
CUT
10
18.5
20
16.7222
0
VERTEX
8
CUT
10
19.6667
20
16.1208
0
VERTEX
8
CUT
10
20.8333
20
15.6632
0
VERTEX
8
CUT
10
22
20
15.4243
0
VERTEX
8
CUT
10
23.1667
20
15.4431
0
VERTEX
8
CUT
10
24.3333
20
15.7166
0
VERTEX
8
CUT
10
25.5
20
16.2
0
VERTEX
8
CUT
10
26.6667
20
16.8143
0
VERTEX
8
CUT
10
27.8333
20
17.4589
0
VERTEX
8
CUT
10
29
20
18.0285
0
VERTEX
8
CUT
10
30.1667
20
18.4298
0
VERTEX
8
CUT
10
31.3333
20
18.5973
0
VERTEX
8
CUT
10
32.5
20
18.5035
0
SEQEND
0
POLYLINE
8
CUT
66
1
70
0
0
VERTEX
8
CUT
10
35.5
20
17.2778
0
VERTEX
8
CUT
10
36.6667
20
16.631
0
VERTEX
8
CUT
10
37.8333
20
16.0445
0
VERTEX
8
CUT
10
39
20
15.6144
0
VERTEX
8
CUT
10
40.1667
20
15.4108
0
VERTEX
8
CUT
10
41.3333
20
15.4672
0
VERTEX
8
CUT
10
42.5
20
15.7743
0
VERTEX
8
CUT
10
43.6667
20
16.2819
0
VERTEX
8
CUT
10
44.8333
20
16.907
0
VERTEX
8
CUT
10
46
20
17.5472
0
VERTEX
8
CUT
10
47.1667
20
18.098
0
VERTEX
8
CUT
10
48.3333
20
18.4691
0
VERTEX
8
CUT
10
49.5
20
18.6
0
SEQEND
0
POLYLINE
8
CUT
66
1
70
0
0
VERTEX
8
CUT
10
52.5
20
17.8
0
VERTEX
8
CUT
10
53.6667
20
17.1857
0
VERTEX
8
CUT
10
54.8333
20
16.5411
0
VERTEX
8
CUT
10
56
20
15.9715
0
VERTEX
8
CUT
10
57.1667
20
15.5702
0
VERTEX
8
CUT
10
58.3333
20
15.4027
0
VERTEX
8
CUT
10
59.5
20
15.4965
0
VERTEX
8
CUT
10
60.6667
20
15.8362
0
VERTEX
8
CUT
10
61.8333
20
16.3663
0
VERTEX
8
CUT
10
63
20
17
0
VERTEX
8
CUT
10
64.1667
20
17.6337
0
VERTEX
8
CUT
10
65.3333
20
18.1638
0
VERTEX
8
CUT
10
66.5
20
18.5035
0
SEQEND
0
POLYLINE
8
CUT
66
1
70
0
0
VERTEX
8
CUT
10
69.5
20
18.2257
0
VERTEX
8
CUT
10
70.6667
20
17.7181
0
VERTEX
8
CUT
10
71.8333
20
17.093
0
VERTEX
8
CUT
10
73
20
16.4528
0
VERTEX
8
CUT
10
74.1667
20
15.902
0
VERTEX
8
CUT
10
75.3333
20
15.5309
0
VERTEX
8
CUT
10
76.5
20
15.4
0
VERTEX
8
CUT
10
77.6667
20
15.5309
0
VERTEX
8
CUT
10
78.8333
20
15.902
0
VERTEX
8
CUT
10
80
20
16.4528
0
VERTEX
8
CUT
10
81.1667
20
17.093
0
VERTEX
8
CUT
10
82.3333
20
17.7181
0
VERTEX
8
CUT
10
83.5
20
18.2257
0
SEQEND
0
POLYLINE
8
CUT
66
1
70
0
0
VERTEX
8
CUT
10
86.5
20
18.5035
0
VERTEX
8
CUT
10
87.6667
20
18.1638
0
VERTEX
8
CUT
10
88.8333
20
17.6337
0
VERTEX
8
CUT
10
90
20
17
0
VERTEX
8
CUT
10
91.1667
20
16.3663
0
VERTEX
8
CUT
10
92.3333
20
15.8362
0
VERTEX
8
CUT
10
93.5
20
15.4965
0
VERTEX
8
CUT
10
94.6667
20
15.4027
0
VERTEX
8
CUT
10
95.8333
20
15.5702
0
VERTEX
8
CUT
10
97
20
15.9715
0
VERTEX
8
CUT
10
98.1667
20
16.5411
0
VERTEX
8
CUT
10
99.3333
20
17.1857
0
VERTEX
8
CUT
10
100.5
20
17.8
0
SEQEND
0
POLYLINE
8
CUT
66
1
70
0
0
VERTEX
8
CUT
10
103.5
20
18.6
0
VERTEX
8
CUT
10
104.6667
20
18.4691
0
VERTEX
8
CUT
10
105.8333
20
18.098
0
VERTEX
8
CUT
10
107
20
17.5472
0
VERTEX
8
CUT
10
108.1667
20
16.907
0
VERTEX
8
CUT
10
109.3333
20
16.2819
0
VERTEX
8
CUT
10
110.5
20
15.7743
0
VERTEX
8
CUT
10
111.6667
20
15.4672
0
VERTEX
8
CUT
10
112.8333
20
15.4108
0
VERTEX
8
CUT
10
114
20
15.6144
0
VERTEX
8
CUT
10
115.1667
20
16.0445
0
VERTEX
8
CUT
10
116.3333
20
16.631
0
VERTEX
8
CUT
10
117.5
20
17.2778
0
SEQEND
0
POLYLINE
8
CUT
66
1
70
0
0
VERTEX
8
CUT
10
0
20
8
0
VERTEX
8
CUT
10
0
20
8
0
VERTEX
8
CUT
10
1.1667
20
7.3663
0
VERTEX
8
CUT
10
2.3333
20
6.8362
0
VERTEX
8
CUT
10
3.5
20
6.4965
0
VERTEX
8
CUT
10
4.6667
20
6.4027
0
VERTEX
8
CUT
10
5.8333
20
6.5702
0
VERTEX
8
CUT
10
7
20
6.9715
0
SEQEND
0
POLYLINE
8
CUT
66
1
70
0
0
VERTEX
8
CUT
10
10
20
8.5472
0
VERTEX
8
CUT
10
11.1667
20
9.098
0
VERTEX
8
CUT
10
12.3333
20
9.4691
0
VERTEX
8
CUT
10
13.5
20
9.6
0
VERTEX
8
CUT
10
14.6667
20
9.4691
0
VERTEX
8
CUT
10
15.8333
20
9.098
0
VERTEX
8
CUT
10
17
20
8.5472
0
VERTEX
8
CUT
10
18.1667
20
7.907
0
VERTEX
8
CUT
10
19.3333
20
7.2819
0
VERTEX
8
CUT
10
20.5
20
6.7743
0
VERTEX
8
CUT
10
21.6667
20
6.4672
0
VERTEX
8
CUT
10
22.8333
20
6.4108
0
VERTEX
8
CUT
10
24
20
6.6144
0
SEQEND
0
POLYLINE
8
CUT
66
1
70
0
0
VERTEX
8
CUT
10
27
20
8
0
VERTEX
8
CUT
10
28.1667
20
8.6337
0
VERTEX
8
CUT
10
29.3333
20
9.1638
0
VERTEX
8
CUT
10
30.5
20
9.5035
0
VERTEX
8
CUT
10
31.6667
20
9.5973
0
VERTEX
8
CUT
10
32.8333
20
9.4298
0
VERTEX
8
CUT
10
34
20
9.0285
0
VERTEX
8
CUT
10
35.1667
20
8.4589
0
VERTEX
8
CUT
10
36.3333
20
7.8143
0
VERTEX
8
CUT
10
37.5
20
7.2
0
VERTEX
8
CUT
10
38.6667
20
6.7166
0
VERTEX
8
CUT
10
39.8333
20
6.4431
0
VERTEX
8
CUT
10
41
20
6.4243
0
SEQEND
0
POLYLINE
8
CUT
66
1
70
0
0
VERTEX
8
CUT
10
44
20
7.4528
0
VERTEX
8
CUT
10
45.1667
20
8.093
0
VERTEX
8
CUT
10
46.3333
20
8.7181
0
VERTEX
8
CUT
10
47.5
20
9.2257
0
VERTEX
8
CUT
10
48.6667
20
9.5328
0
VERTEX
8
CUT
10
49.8333
20
9.5892
0
VERTEX
8
CUT
10
51
20
9.3856
0
VERTEX
8
CUT
10
52.1667
20
8.9555
0
VERTEX
8
CUT
10
53.3333
20
8.369
0
VERTEX
8
CUT
10
54.5
20
7.7222
0
VERTEX
8
CUT
10
55.6667
20
7.1208
0
VERTEX
8
CUT
10
56.8333
20
6.6632
0
VERTEX
8
CUT
10
58
20
6.4243
0
SEQEND
0
POLYLINE
8
CUT
66
1
70
0
0
VERTEX
8
CUT
10
61
20
6.9715
0
VERTEX
8
CUT
10
62.1667
20
7.5411
0
VERTEX
8
CUT
10
63.3333
20
8.1857
0
VERTEX
8
CUT
10
64.5
20
8.8
0
VERTEX
8
CUT
10
65.6667
20
9.2834
0
VERTEX
8
CUT
10
66.8333
20
9.5569
0
VERTEX
8
CUT
10
68
20
9.5757
0
VERTEX
8
CUT
10
69.1667
20
9.3368
0
VERTEX
8
CUT
10
70.3333
20
8.8792
0
VERTEX
8
CUT
10
71.5
20
8.2778
0
VERTEX
8
CUT
10
72.6667
20
7.631
0
VERTEX
8
CUT
10
73.8333
20
7.0445
0
VERTEX
8
CUT
10
75
20
6.6144
0
SEQEND
0
POLYLINE
8
CUT
66
1
70
0
0
VERTEX
8
CUT
10
78
20
6.6144
0
VERTEX
8
CUT
10
79.1667
20
7.0445
0
VERTEX
8
CUT
10
80.3333
20
7.631
0
VERTEX
8
CUT
10
81.5
20
8.2778
0
VERTEX
8
CUT
10
82.6667
20
8.8792
0
VERTEX
8
CUT
10
83.8333
20
9.3368
0
VERTEX
8
CUT
10
85
20
9.5757
0
VERTEX
8
CUT
10
86.1667
20
9.5569
0
VERTEX
8
CUT
10
87.3333
20
9.2834
0
VERTEX
8
CUT
10
88.5
20
8.8
0
VERTEX
8
CUT
10
89.6667
20
8.1857
0
VERTEX
8
CUT
10
90.8333
20
7.5411
0
VERTEX
8
CUT
10
92
20
6.9715
0
SEQEND
0
POLYLINE
8
CUT
66
1
70
0
0
VERTEX
8
CUT
10
95
20
6.4243
0
VERTEX
8
CUT
10
96.1667
20
6.6632
0
VERTEX
8
CUT
10
97.3333
20
7.1208
0
VERTEX
8
CUT
10
98.5
20
7.7222
0
VERTEX
8
CUT
10
99.6667
20
8.369
0
VERTEX
8
CUT
10
100.8333
20
8.9555
0
VERTEX
8
CUT
10
102
20
9.3856
0
VERTEX
8
CUT
10
103.1667
20
9.5892
0
VERTEX
8
CUT
10
104.3333
20
9.5328
0
VERTEX
8
CUT
10
105.5
20
9.2257
0
VERTEX
8
CUT
10
106.6667
20
8.7181
0
VERTEX
8
CUT
10
107.8333
20
8.093
0
VERTEX
8
CUT
10
109
20
7.4528
0
SEQEND
0
POLYLINE
8
CUT
66
1
70
0
0
VERTEX
8
CUT
10
112
20
6.4243
0
VERTEX
8
CUT
10
113.1667
20
6.4431
0
VERTEX
8
CUT
10
114.3333
20
6.7166
0
VERTEX
8
CUT
10
115.5
20
7.2
0
VERTEX
8
CUT
10
116.6667
20
7.8143
0
VERTEX
8
CUT
10
117.8333
20
8.4589
0
VERTEX
8
CUT
10
119
20
9.0285
0
VERTEX
8
CUT
10
120
20
9.3725
0
SEQEND
0
POLYLINE
8
CUT
66
1
70
0
0
VERTEX
8
CUT
10
0
20
70
0
VERTEX
8
CUT
10
120
20
70
0
VERTEX
8
CUT
10
120
20
0
0
VERTEX
8
CUT
10
0
20
0
0
VERTEX
8
CUT
10
0
20
70
0
SEQEND
0
ENDSEC
0
EOF
