0
SECTION
2
HEADER
9
$ACADVER
1
AC1009
9
$INSUNITS
70
4
0
ENDSEC
0
SECTION
2
TABLES
0
TABLE
2
LAYER
70
1
0
LAYER
2
CUT
70
0
62
1
6
CONTINUOUS
0
ENDTAB
0
ENDSEC
0
SECTION
2
ENTITIES
0
POLYLINE
8
CUT
66
1
70
0
0
VERTEX
8
CUT
10
0.375
20
64.8375
0
VERTEX
8
CUT
10
1
20
62.65
0
VERTEX
8
CUT
10
3
20
62.65
0
VERTEX
8
CUT
10
3.625
20
64.8375
0
SEQEND
0
POLYLINE
8
CUT
66
1
70
0
0
VERTEX
8
CUT
10
0.375
20
67.4625
0
VERTEX
8
CUT
10
1
20
69.65
0
VERTEX
8
CUT
10
3
20
69.65
0
VERTEX
8
CUT
10
3.625
20
67.4625
0
SEQEND
0
POLYLINE
8
CUT
66
1
70
0
0
VERTEX
8
CUT
10
0.375
20
57.1375
0
VERTEX
8
CUT
10
1
20
54.95
0
VERTEX
8
CUT
10
3
20
54.95
0
VERTEX
8
CUT
10
3.625
20
57.1375
0
SEQEND
0
POLYLINE
8
CUT
66
1
70
0
0
VERTEX
8
CUT
10
0.375
20
59.7625
0
VERTEX
8
CUT
10
1
20
61.95
0
VERTEX
8
CUT
10
3
20
61.95
0
VERTEX
8
CUT
10
3.625
20
59.7625
0
SEQEND
0
POLYLINE
8
CUT
66
1
70
0
0
VERTEX
8
CUT
10
0.375
20
49.4375
0
VERTEX
8
CUT
10
1
20
47.25
0
VERTEX
8
CUT
10
3
20
47.25
0
VERTEX
8
CUT
10
3.625
20
49.4375
0
SEQEND
0
POLYLINE
8
CUT
66
1
70
0
0
VERTEX
8
CUT
10
0.375
20
52.0625
0
VERTEX
8
CUT
10
1
20
54.25
0
VERTEX
8
CUT
10
3
20
54.25
0
VERTEX
8
CUT
10
3.625
20
52.0625
0
SEQEND
0
POLYLINE
8
CUT
66
1
70
0
0
VERTEX
8
CUT
10
0.375
20
41.7375
0
VERTEX
8
CUT
10
1
20
39.55
0
VERTEX
8
CUT
10
3
20
39.55
0
VERTEX
8
CUT
10
3.625
20
41.7375
0
SEQEND
0
POLYLINE
8
CUT
66
1
70
0
0
VERTEX
8
CUT
10
0.375
20
44.3625
0
VERTEX
8
CUT
10
1
20
46.55
0
VERTEX
8
CUT
10
3
20
46.55
0
VERTEX
8
CUT
10
3.625
20
44.3625
0
SEQEND
0
POLYLINE
8
CUT
66
1
70
0
0
VERTEX
8
CUT
10
0.375
20
34.0375
0
VERTEX
8
CUT
10
1
20
31.85
0
VERTEX
8
CUT
10
3
20
31.85
0
VERTEX
8
CUT
10
3.625
20
34.0375
0
SEQEND
0
POLYLINE
8
CUT
66
1
70
0
0
VERTEX
8
CUT
10
0.375
20
36.6625
0
VERTEX
8
CUT
10
1
20
38.85
0
VERTEX
8
CUT
10
3
20
38.85
0
VERTEX
8
CUT
10
3.625
20
36.6625
0
SEQEND
0
POLYLINE
8
CUT
66
1
70
0
0
VERTEX
8
CUT
10
0.375
20
26.3375
0
VERTEX
8
CUT
10
1
20
24.15
0
VERTEX
8
CUT
10
3
20
24.15
0
VERTEX
8
CUT
10
3.625
20
26.3375
0
SEQEND
0
POLYLINE
8
CUT
66
1
70
0
0
VERTEX
8
CUT
10
0.375
20
28.9625
0
VERTEX
8
CUT
10
1
20
31.15
0
VERTEX
8
CUT
10
3
20
31.15
0
VERTEX
8
CUT
10
3.625
20
28.9625
0
SEQEND
0
POLYLINE
8
CUT
66
1
70
0
0
VERTEX
8
CUT
10
0.375
20
18.6375
0
VERTEX
8
CUT
10
1
20
16.45
0
VERTEX
8
CUT
10
3
20
16.45
0
VERTEX
8
CUT
10
3.625
20
18.6375
0
SEQEND
0
POLYLINE
8
CUT
66
1
70
0
0
VERTEX
8
CUT
10
0.375
20
21.2625
0
VERTEX
8
CUT
10
1
20
23.45
0
VERTEX
8
CUT
10
3
20
23.45
0
VERTEX
8
CUT
10
3.625
20
21.2625
0
SEQEND
0
POLYLINE
8
CUT
66
1
70
0
0
VERTEX
8
CUT
10
0.375
20
10.9375
0
VERTEX
8
CUT
10
1
20
8.75
0
VERTEX
8
CUT
10
3
20
8.75
0
VERTEX
8
CUT
10
3.625
20
10.9375
0
SEQEND
0
POLYLINE
8
CUT
66
1
70
0
0
VERTEX
8
CUT
10
0.375
20
13.5625
0
VERTEX
8
CUT
10
1
20
15.75
0
VERTEX
8
CUT
10
3
20
15.75
0
VERTEX
8
CUT
10
3.625
20
13.5625
0
SEQEND
0
POLYLINE
8
CUT
66
1
70
0
0
VERTEX
8
CUT
10
0.375
20
3.2375
0
VERTEX
8
CUT
10
1
20
1.05
0
VERTEX
8
CUT
10
3
20
1.05
0
VERTEX
8
CUT
10
3.625
20
3.2375
0
SEQEND
0
POLYLINE
8
CUT
66
1
70
0
0
VERTEX
8
CUT
10
0.375
20
5.8625
0
VERTEX
8
CUT
10
1
20
8.05
0
VERTEX
8
CUT
10
3
20
8.05
0
VERTEX
8
CUT
10
3.625
20
5.8625
0
SEQEND
0
POLYLINE
8
CUT
66
1
70
0
0
VERTEX
8
CUT
10
0.9
20
0
0
VERTEX
8
CUT
10
1
20
0.35
0
VERTEX
8
CUT
10
3
20
0.35
0
VERTEX
8
CUT
10
3.1
20
0
0
SEQEND
0
POLYLINE
8
CUT
66
1
70
0
0
VERTEX
8
CUT
10
3.984
20
68.6875
0
VERTEX
8
CUT
10
4.609
20
66.5
0
VERTEX
8
CUT
10
6.609
20
66.5
0
VERTEX
8
CUT
10
7.234
20
68.6875
0
SEQEND
0
POLYLINE
8
CUT
66
1
70
0
0
VERTEX
8
CUT
10
3.984
20
60.9875
0
VERTEX
8
CUT
10
4.609
20
58.8
0
VERTEX
8
CUT
10
6.609
20
58.8
0
VERTEX
8
CUT
10
7.234
20
60.9875
0
SEQEND
0
POLYLINE
8
CUT
66
1
70
0
0
VERTEX
8
CUT
10
3.984
20
63.6125
0
VERTEX
8
CUT
10
4.609
20
65.8
0
VERTEX
8
CUT
10
6.609
20
65.8
0
VERTEX
8
CUT
10
7.234
20
63.6125
0
SEQEND
0
POLYLINE
8
CUT
66
1
70
0
0
VERTEX
8
CUT
10
3.984
20
53.2875
0
VERTEX
8
CUT
10
4.609
20
51.1
0
VERTEX
8
CUT
10
6.609
20
51.1
0
VERTEX
8
CUT
10
7.234
20
53.2875
0
SEQEND
0
POLYLINE
8
CUT
66
1
70
0
0
VERTEX
8
CUT
10
3.984
20
55.9125
0
VERTEX
8
CUT
10
4.609
20
58.1
0
VERTEX
8
CUT
10
6.609
20
58.1
0
VERTEX
8
CUT
10
7.234
20
55.9125
0
SEQEND
0
POLYLINE
8
CUT
66
1
70
0
0
VERTEX
8
CUT
10
3.984
20
45.5875
0
VERTEX
8
CUT
10
4.609
20
43.4
0
VERTEX
8
CUT
10
6.609
20
43.4
0
VERTEX
8
CUT
10
7.234
20
45.5875
0
SEQEND
0
POLYLINE
8
CUT
66
1
70
0
0
VERTEX
8
CUT
10
3.984
20
48.2125
0
VERTEX
8
CUT
10
4.609
20
50.4
0
VERTEX
8
CUT
10
6.609
20
50.4
0
VERTEX
8
CUT
10
7.234
20
48.2125
0
SEQEND
0
POLYLINE
8
CUT
66
1
70
0
0
VERTEX
8
CUT
10
3.984
20
37.8875
0
VERTEX
8
CUT
10
4.609
20
35.7
0
VERTEX
8
CUT
10
6.609
20
35.7
0
VERTEX
8
CUT
10
7.234
20
37.8875
0
SEQEND
0
POLYLINE
8
CUT
66
1
70
0
0
VERTEX
8
CUT
10
3.984
20
40.5125
0
VERTEX
8
CUT
10
4.609
20
42.7
0
VERTEX
8
CUT
10
6.609
20
42.7
0
VERTEX
8
CUT
10
7.234
20
40.5125
0
SEQEND
0
POLYLINE
8
CUT
66
1
70
0
0
VERTEX
8
CUT
10
3.984
20
30.1875
0
VERTEX
8
CUT
10
4.609
20
28
0
VERTEX
8
CUT
10
6.609
20
28
0
VERTEX
8
CUT
10
7.234
20
30.1875
0
SEQEND
0
POLYLINE
8
CUT
66
1
70
0
0
VERTEX
8
CUT
10
3.984
20
32.8125
0
VERTEX
8
CUT
10
4.609
20
35
0
VERTEX
8
CUT
10
6.609
20
35
0
VERTEX
8
CUT
10
7.234
20
32.8125
0
SEQEND
0
POLYLINE
8
CUT
66
1
70
0
0
VERTEX
8
CUT
10
3.984
20
22.4875
0
VERTEX
8
CUT
10
4.609
20
20.3
0
VERTEX
8
CUT
10
6.609
20
20.3
0
VERTEX
8
CUT
10
7.234
20
22.4875
0
SEQEND
0
POLYLINE
8
CUT
66
1
70
0
0
VERTEX
8
CUT
10
3.984
20
25.1125
0
VERTEX
8
CUT
10
4.609
20
27.3
0
VERTEX
8
CUT
10
6.609
20
27.3
0
VERTEX
8
CUT
10
7.234
20
25.1125
0
SEQEND
0
POLYLINE
8
CUT
66
1
70
0
0
VERTEX
8
CUT
10
3.984
20
14.7875
0
VERTEX
8
CUT
10
4.609
20
12.6
0
VERTEX
8
CUT
10
6.609
20
12.6
0
VERTEX
8
CUT
10
7.234
20
14.7875
0
SEQEND
0
POLYLINE
8
CUT
66
1
70
0
0
VERTEX
8
CUT
10
3.984
20
17.4125
0
VERTEX
8
CUT
10
4.609
20
19.6
0
VERTEX
8
CUT
10
6.609
20
19.6
0
VERTEX
8
CUT
10
7.234
20
17.4125
0
SEQEND
0
POLYLINE
8
CUT
66
1
70
0
0
VERTEX
8
CUT
10
3.984
20
7.0875
0
VERTEX
8
CUT
10
4.609
20
4.9
0
VERTEX
8
CUT
10
6.609
20
4.9
0
VERTEX
8
CUT
10
7.234
20
7.0875
0
SEQEND
0
POLYLINE
8
CUT
66
1
70
0
0
VERTEX
8
CUT
10
3.984
20
9.7125
0
VERTEX
8
CUT
10
4.609
20
11.9
0
VERTEX
8
CUT
10
6.609
20
11.9
0
VERTEX
8
CUT
10
7.234
20
9.7125
0
SEQEND
0
POLYLINE
8
CUT
66
1
70
0
0
VERTEX
8
CUT
10
3.984
20
2.0125
0
VERTEX
8
CUT
10
4.609
20
4.2
0
VERTEX
8
CUT
10
6.609
20
4.2
0
VERTEX
8
CUT
10
7.234
20
2.0125
0
SEQEND
0
POLYLINE
8
CUT
66
1
70
0
0
VERTEX
8
CUT
10
7.593
20
64.8375
0
VERTEX
8
CUT
10
8.218
20
62.65
0
VERTEX
8
CUT
10
10.218
20
62.65
0
VERTEX
8
CUT
10
10.843
20
64.8375
0
SEQEND
0
POLYLINE
8
CUT
66
1
70
0
0
VERTEX
8
CUT
10
7.593
20
67.4625
0
VERTEX
8
CUT
10
8.218
20
69.65
0
VERTEX
8
CUT
10
10.218
20
69.65
0
VERTEX
8
CUT
10
10.843
20
67.4625
0
SEQEND
0
POLYLINE
8
CUT
66
1
70
0
0
VERTEX
8
CUT
10
7.593
20
57.1375
0
VERTEX
8
CUT
10
8.218
20
54.95
0
VERTEX
8
CUT
10
10.218
20
54.95
0
VERTEX
8
CUT
10
10.843
20
57.1375
0
SEQEND
0
POLYLINE
8
CUT
66
1
70
0
0
VERTEX
8
CUT
10
7.593
20
59.7625
0
VERTEX
8
CUT
10
8.218
20
61.95
0
VERTEX
8
CUT
10
10.218
20
61.95
0
VERTEX
8
CUT
10
10.843
20
59.7625
0
SEQEND
0
POLYLINE
8
CUT
66
1
70
0
0
VERTEX
8
CUT
10
7.593
20
49.4375
0
VERTEX
8
CUT
10
8.218
20
47.25
0
VERTEX
8
CUT
10
10.218
20
47.25
0
VERTEX
8
CUT
10
10.843
20
49.4375
0
SEQEND
0
POLYLINE
8
CUT
66
1
70
0
0
VERTEX
8
CUT
10
7.593
20
52.0625
0
VERTEX
8
CUT
10
8.218
20
54.25
0
VERTEX
8
CUT
10
10.218
20
54.25
0
VERTEX
8
CUT
10
10.843
20
52.0625
0
SEQEND
0
POLYLINE
8
CUT
66
1
70
0
0
VERTEX
8
CUT
10
7.593
20
41.7375
0
VERTEX
8
CUT
10
8.218
20
39.55
0
VERTEX
8
CUT
10
10.218
20
39.55
0
VERTEX
8
CUT
10
10.843
20
41.7375
0
SEQEND
0
POLYLINE
8
CUT
66
1
70
0
0
VERTEX
8
CUT
10
7.593
20
44.3625
0
VERTEX
8
CUT
10
8.218
20
46.55
0
VERTEX
8
CUT
10
10.218
20
46.55
0
VERTEX
8
CUT
10
10.843
20
44.3625
0
SEQEND
0
POLYLINE
8
CUT
66
1
70
0
0
VERTEX
8
CUT
10
7.593
20
34.0375
0
VERTEX
8
CUT
10
8.218
20
31.85
0
VERTEX
8
CUT
10
10.218
20
31.85
0
VERTEX
8
CUT
10
10.843
20
34.0375
0
SEQEND
0
POLYLINE
8
CUT
66
1
70
0
0
VERTEX
8
CUT
10
7.593
20
36.6625
0
VERTEX
8
CUT
10
8.218
20
38.85
0
VERTEX
8
CUT
10
10.218
20
38.85
0
VERTEX
8
CUT
10
10.843
20
36.6625
0
SEQEND
0
POLYLINE
8
CUT
66
1
70
0
0
VERTEX
8
CUT
10
7.593
20
26.3375
0
VERTEX
8
CUT
10
8.218
20
24.15
0
VERTEX
8
CUT
10
10.218
20
24.15
0
VERTEX
8
CUT
10
10.843
20
26.3375
0
SEQEND
0
POLYLINE
8
CUT
66
1
70
0
0
VERTEX
8
CUT
10
7.593
20
28.9625
0
VERTEX
8
CUT
10
8.218
20
31.15
0
VERTEX
8
CUT
10
10.218
20
31.15
0
VERTEX
8
CUT
10
10.843
20
28.9625
0
SEQEND
0
POLYLINE
8
CUT
66
1
70
0
0
VERTEX
8
CUT
10
7.593
20
18.6375
0
VERTEX
8
CUT
10
8.218
20
16.45
0
VERTEX
8
CUT
10
10.218
20
16.45
0
VERTEX
8
CUT
10
10.843
20
18.6375
0
SEQEND
0
POLYLINE
8
CUT
66
1
70
0
0
VERTEX
8
CUT
10
7.593
20
21.2625
0
VERTEX
8
CUT
10
8.218
20
23.45
0
VERTEX
8
CUT
10
10.218
20
23.45
0
VERTEX
8
CUT
10
10.843
20
21.2625
0
SEQEND
0
POLYLINE
8
CUT
66
1
70
0
0
VERTEX
8
CUT
10
7.593
20
10.9375
0
VERTEX
8
CUT
10
8.218
20
8.75
0
VERTEX
8
CUT
10
10.218
20
8.75
0
VERTEX
8
CUT
10
10.843
20
10.9375
0
SEQEND
0
POLYLINE
8
CUT
66
1
70
0
0
VERTEX
8
CUT
10
7.593
20
13.5625
0
VERTEX
8
CUT
10
8.218
20
15.75
0
VERTEX
8
CUT
10
10.218
20
15.75
0
VERTEX
8
CUT
10
10.843
20
13.5625
0
SEQEND
0
POLYLINE
8
CUT
66
1
70
0
0
VERTEX
8
CUT
10
7.593
20
3.2375
0
VERTEX
8
CUT
10
8.218
20
1.05
0
VERTEX
8
CUT
10
10.218
20
1.05
0
VERTEX
8
CUT
10
10.843
20
3.2375
0
SEQEND
0
POLYLINE
8
CUT
66
1
70
0
0
VERTEX
8
CUT
10
7.593
20
5.8625
0
VERTEX
8
CUT
10
8.218
20
8.05
0
VERTEX
8
CUT
10
10.218
20
8.05
0
VERTEX
8
CUT
10
10.843
20
5.8625
0
SEQEND
0
POLYLINE
8
CUT
66
1
70
0
0
VERTEX
8
CUT
10
8.118
20
0
0
VERTEX
8
CUT
10
8.218
20
0.35
0
VERTEX
8
CUT
10
10.218
20
0.35
0
VERTEX
8
CUT
10
10.318
20
0
0
SEQEND
0
POLYLINE
8
CUT
66
1
70
0
0
VERTEX
8
CUT
10
11.202
20
68.6875
0
VERTEX
8
CUT
10
11.827
20
66.5
0
VERTEX
8
CUT
10
13.827
20
66.5
0
VERTEX
8
CUT
10
14.452
20
68.6875
0
SEQEND
0
POLYLINE
8
CUT
66
1
70
0
0
VERTEX
8
CUT
10
11.202
20
60.9875
0
VERTEX
8
CUT
10
11.827
20
58.8
0
VERTEX
8
CUT
10
13.827
20
58.8
0
VERTEX
8
CUT
10
14.452
20
60.9875
0
SEQEND
0
POLYLINE
8
CUT
66
1
70
0
0
VERTEX
8
CUT
10
11.202
20
63.6125
0
VERTEX
8
CUT
10
11.827
20
65.8
0
VERTEX
8
CUT
10
13.827
20
65.8
0
VERTEX
8
CUT
10
14.452
20
63.6125
0
SEQEND
0
POLYLINE
8
CUT
66
1
70
0
0
VERTEX
8
CUT
10
11.202
20
53.2875
0
VERTEX
8
CUT
10
11.827
20
51.1
0
VERTEX
8
CUT
10
13.827
20
51.1
0
VERTEX
8
CUT
10
14.452
20
53.2875
0
SEQEND
0
POLYLINE
8
CUT
66
1
70
0
0
VERTEX
8
CUT
10
11.202
20
55.9125
0
VERTEX
8
CUT
10
11.827
20
58.1
0
VERTEX
8
CUT
10
13.827
20
58.1
0
VERTEX
8
CUT
10
14.452
20
55.9125
0
SEQEND
0
POLYLINE
8
CUT
66
1
70
0
0
VERTEX
8
CUT
10
11.202
20
45.5875
0
VERTEX
8
CUT
10
11.827
20
43.4
0
VERTEX
8
CUT
10
13.827
20
43.4
0
VERTEX
8
CUT
10
14.452
20
45.5875
0
SEQEND
0
POLYLINE
8
CUT
66
1
70
0
0
VERTEX
8
CUT
10
11.202
20
48.2125
0
VERTEX
8
CUT
10
11.827
20
50.4
0
VERTEX
8
CUT
10
13.827
20
50.4
0
VERTEX
8
CUT
10
14.452
20
48.2125
0
SEQEND
0
POLYLINE
8
CUT
66
1
70
0
0
VERTEX
8
CUT
10
11.202
20
37.8875
0
VERTEX
8
CUT
10
11.827
20
35.7
0
VERTEX
8
CUT
10
13.827
20
35.7
0
VERTEX
8
CUT
10
14.452
20
37.8875
0
SEQEND
0
POLYLINE
8
CUT
66
1
70
0
0
VERTEX
8
CUT
10
11.202
20
40.5125
0
VERTEX
8
CUT
10
11.827
20
42.7
0
VERTEX
8
CUT
10
13.827
20
42.7
0
VERTEX
8
CUT
10
14.452
20
40.5125
0
SEQEND
0
POLYLINE
8
CUT
66
1
70
0
0
VERTEX
8
CUT
10
11.202
20
30.1875
0
VERTEX
8
CUT
10
11.827
20
28
0
VERTEX
8
CUT
10
13.827
20
28
0
VERTEX
8
CUT
10
14.452
20
30.1875
0
SEQEND
0
POLYLINE
8
CUT
66
1
70
0
0
VERTEX
8
CUT
10
11.202
20
32.8125
0
VERTEX
8
CUT
10
11.827
20
35
0
VERTEX
8
CUT
10
13.827
20
35
0
VERTEX
8
CUT
10
14.452
20
32.8125
0
SEQEND
0
POLYLINE
8
CUT
66
1
70
0
0
VERTEX
8
CUT
10
11.202
20
22.4875
0
VERTEX
8
CUT
10
11.827
20
20.3
0
VERTEX
8
CUT
10
13.827
20
20.3
0
VERTEX
8
CUT
10
14.452
20
22.4875
0
SEQEND
0
POLYLINE
8
CUT
66
1
70
0
0
VERTEX
8
CUT
10
11.202
20
25.1125
0
VERTEX
8
CUT
10
11.827
20
27.3
0
VERTEX
8
CUT
10
13.827
20
27.3
0
VERTEX
8
CUT
10
14.452
20
25.1125
0
SEQEND
0
POLYLINE
8
CUT
66
1
70
0
0
VERTEX
8
CUT
10
11.202
20
14.7875
0
VERTEX
8
CUT
10
11.827
20
12.6
0
VERTEX
8
CUT
10
13.827
20
12.6
0
VERTEX
8
CUT
10
14.452
20
14.7875
0
SEQEND
0
POLYLINE
8
CUT
66
1
70
0
0
VERTEX
8
CUT
10
11.202
20
17.4125
0
VERTEX
8
CUT
10
11.827
20
19.6
0
VERTEX
8
CUT
10
13.827
20
19.6
0
VERTEX
8
CUT
10
14.452
20
17.4125
0
SEQEND
0
POLYLINE
8
CUT
66
1
70
0
0
VERTEX
8
CUT
10
11.202
20
7.0875
0
VERTEX
8
CUT
10
11.827
20
4.9
0
VERTEX
8
CUT
10
13.827
20
4.9
0
VERTEX
8
CUT
10
14.452
20
7.0875
0
SEQEND
0
POLYLINE
8
CUT
66
1
70
0
0
VERTEX
8
CUT
10
11.202
20
9.7125
0
VERTEX
8
CUT
10
11.827
20
11.9
0
VERTEX
8
CUT
10
13.827
20
11.9
0
VERTEX
8
CUT
10
14.452
20
9.7125
0
SEQEND
0
POLYLINE
8
CUT
66
1
70
0
0
VERTEX
8
CUT
10
11.202
20
2.0125
0
VERTEX
8
CUT
10
11.827
20
4.2
0
VERTEX
8
CUT
10
13.827
20
4.2
0
VERTEX
8
CUT
10
14.452
20
2.0125
0
SEQEND
0
POLYLINE
8
CUT
66
1
70
0
0
VERTEX
8
CUT
10
14.811
20
64.8375
0
VERTEX
8
CUT
10
15.436
20
62.65
0
VERTEX
8
CUT
10
17.436
20
62.65
0
VERTEX
8
CUT
10
18.061
20
64.8375
0
SEQEND
0
POLYLINE
8
CUT
66
1
70
0
0
VERTEX
8
CUT
10
14.811
20
67.4625
0
VERTEX
8
CUT
10
15.436
20
69.65
0
VERTEX
8
CUT
10
17.436
20
69.65
0
VERTEX
8
CUT
10
18.061
20
67.4625
0
SEQEND
0
POLYLINE
8
CUT
66
1
70
0
0
VERTEX
8
CUT
10
14.811
20
57.1375
0
VERTEX
8
CUT
10
15.436
20
54.95
0
VERTEX
8
CUT
10
17.436
20
54.95
0
VERTEX
8
CUT
10
18.061
20
57.1375
0
SEQEND
0
POLYLINE
8
CUT
66
1
70
0
0
VERTEX
8
CUT
10
14.811
20
59.7625
0
VERTEX
8
CUT
10
15.436
20
61.95
0
VERTEX
8
CUT
10
17.436
20
61.95
0
VERTEX
8
CUT
10
18.061
20
59.7625
0
SEQEND
0
POLYLINE
8
CUT
66
1
70
0
0
VERTEX
8
CUT
10
14.811
20
49.4375
0
VERTEX
8
CUT
10
15.436
20
47.25
0
VERTEX
8
CUT
10
17.436
20
47.25
0
VERTEX
8
CUT
10
18.061
20
49.4375
0
SEQEND
0
POLYLINE
8
CUT
66
1
70
0
0
VERTEX
8
CUT
10
14.811
20
52.0625
0
VERTEX
8
CUT
10
15.436
20
54.25
0
VERTEX
8
CUT
10
17.436
20
54.25
0
VERTEX
8
CUT
10
18.061
20
52.0625
0
SEQEND
0
POLYLINE
8
CUT
66
1
70
0
0
VERTEX
8
CUT
10
14.811
20
41.7375
0
VERTEX
8
CUT
10
15.436
20
39.55
0
VERTEX
8
CUT
10
17.436
20
39.55
0
VERTEX
8
CUT
10
18.061
20
41.7375
0
SEQEND
0
POLYLINE
8
CUT
66
1
70
0
0
VERTEX
8
CUT
10
14.811
20
44.3625
0
VERTEX
8
CUT
10
15.436
20
46.55
0
VERTEX
8
CUT
10
17.436
20
46.55
0
VERTEX
8
CUT
10
18.061
20
44.3625
0
SEQEND
0
POLYLINE
8
CUT
66
1
70
0
0
VERTEX
8
CUT
10
14.811
20
34.0375
0
VERTEX
8
CUT
10
15.436
20
31.85
0
VERTEX
8
CUT
10
17.436
20
31.85
0
VERTEX
8
CUT
10
18.061
20
34.0375
0
SEQEND
0
POLYLINE
8
CUT
66
1
70
0
0
VERTEX
8
CUT
10
14.811
20
36.6625
0
VERTEX
8
CUT
10
15.436
20
38.85
0
VERTEX
8
CUT
10
17.436
20
38.85
0
VERTEX
8
CUT
10
18.061
20
36.6625
0
SEQEND
0
POLYLINE
8
CUT
66
1
70
0
0
VERTEX
8
CUT
10
14.811
20
26.3375
0
VERTEX
8
CUT
10
15.436
20
24.15
0
VERTEX
8
CUT
10
17.436
20
24.15
0
VERTEX
8
CUT
10
18.061
20
26.3375
0
SEQEND
0
POLYLINE
8
CUT
66
1
70
0
0
VERTEX
8
CUT
10
14.811
20
28.9625
0
VERTEX
8
CUT
10
15.436
20
31.15
0
VERTEX
8
CUT
10
17.436
20
31.15
0
VERTEX
8
CUT
10
18.061
20
28.9625
0
SEQEND
0
POLYLINE
8
CUT
66
1
70
0
0
VERTEX
8
CUT
10
14.811
20
18.6375
0
VERTEX
8
CUT
10
15.436
20
16.45
0
VERTEX
8
CUT
10
17.436
20
16.45
0
VERTEX
8
CUT
10
18.061
20
18.6375
0
SEQEND
0
POLYLINE
8
CUT
66
1
70
0
0
VERTEX
8
CUT
10
14.811
20
21.2625
0
VERTEX
8
CUT
10
15.436
20
23.45
0
VERTEX
8
CUT
10
17.436
20
23.45
0
VERTEX
8
CUT
10
18.061
20
21.2625
0
SEQEND
0
POLYLINE
8
CUT
66
1
70
0
0
VERTEX
8
CUT
10
14.811
20
10.9375
0
VERTEX
8
CUT
10
15.436
20
8.75
0
VERTEX
8
CUT
10
17.436
20
8.75
0
VERTEX
8
CUT
10
18.061
20
10.9375
0
SEQEND
0
POLYLINE
8
CUT
66
1
70
0
0
VERTEX
8
CUT
10
14.811
20
13.5625
0
VERTEX
8
CUT
10
15.436
20
15.75
0
VERTEX
8
CUT
10
17.436
20
15.75
0
VERTEX
8
CUT
10
18.061
20
13.5625
0
SEQEND
0
POLYLINE
8
CUT
66
1
70
0
0
VERTEX
8
CUT
10
14.811
20
3.2375
0
VERTEX
8
CUT
10
15.436
20
1.05
0
VERTEX
8
CUT
10
17.436
20
1.05
0
VERTEX
8
CUT
10
18.061
20
3.2375
0
SEQEND
0
POLYLINE
8
CUT
66
1
70
0
0
VERTEX
8
CUT
10
14.811
20
5.8625
0
VERTEX
8
CUT
10
15.436
20
8.05
0
VERTEX
8
CUT
10
17.436
20
8.05
0
VERTEX
8
CUT
10
18.061
20
5.8625
0
SEQEND
0
POLYLINE
8
CUT
66
1
70
0
0
VERTEX
8
CUT
10
15.336
20
0
0
VERTEX
8
CUT
10
15.436
20
0.35
0
VERTEX
8
CUT
10
17.436
20
0.35
0
VERTEX
8
CUT
10
17.536
20
0
0
SEQEND
0
POLYLINE
8
CUT
66
1
70
0
0
VERTEX
8
CUT
10
18.42
20
68.6875
0
VERTEX
8
CUT
10
19.045
20
66.5
0
VERTEX
8
CUT
10
21.045
20
66.5
0
VERTEX
8
CUT
10
21.67
20
68.6875
0
SEQEND
0
POLYLINE
8
CUT
66
1
70
0
0
VERTEX
8
CUT
10
18.42
20
60.9875
0
VERTEX
8
CUT
10
19.045
20
58.8
0
VERTEX
8
CUT
10
21.045
20
58.8
0
VERTEX
8
CUT
10
21.67
20
60.9875
0
SEQEND
0
POLYLINE
8
CUT
66
1
70
0
0
VERTEX
8
CUT
10
18.42
20
63.6125
0
VERTEX
8
CUT
10
19.045
20
65.8
0
VERTEX
8
CUT
10
21.045
20
65.8
0
VERTEX
8
CUT
10
21.67
20
63.6125
0
SEQEND
0
POLYLINE
8
CUT
66
1
70
0
0
VERTEX
8
CUT
10
18.42
20
53.2875
0
VERTEX
8
CUT
10
19.045
20
51.1
0
VERTEX
8
CUT
10
21.045
20
51.1
0
VERTEX
8
CUT
10
21.67
20
53.2875
0
SEQEND
0
POLYLINE
8
CUT
66
1
70
0
0
VERTEX
8
CUT
10
18.42
20
55.9125
0
VERTEX
8
CUT
10
19.045
20
58.1
0
VERTEX
8
CUT
10
21.045
20
58.1
0
VERTEX
8
CUT
10
21.67
20
55.9125
0
SEQEND
0
POLYLINE
8
CUT
66
1
70
0
0
VERTEX
8
CUT
10
18.42
20
45.5875
0
VERTEX
8
CUT
10
19.045
20
43.4
0
VERTEX
8
CUT
10
21.045
20
43.4
0
VERTEX
8
CUT
10
21.67
20
45.5875
0
SEQEND
0
POLYLINE
8
CUT
66
1
70
0
0
VERTEX
8
CUT
10
18.42
20
48.2125
0
VERTEX
8
CUT
10
19.045
20
50.4
0
VERTEX
8
CUT
10
21.045
20
50.4
0
VERTEX
8
CUT
10
21.67
20
48.2125
0
SEQEND
0
POLYLINE
8
CUT
66
1
70
0
0
VERTEX
8
CUT
10
18.42
20
37.8875
0
VERTEX
8
CUT
10
19.045
20
35.7
0
VERTEX
8
CUT
10
21.045
20
35.7
0
VERTEX
8
CUT
10
21.67
20
37.8875
0
SEQEND
0
POLYLINE
8
CUT
66
1
70
0
0
VERTEX
8
CUT
10
18.42
20
40.5125
0
VERTEX
8
CUT
10
19.045
20
42.7
0
VERTEX
8
CUT
10
21.045
20
42.7
0
VERTEX
8
CUT
10
21.67
20
40.5125
0
SEQEND
0
POLYLINE
8
CUT
66
1
70
0
0
VERTEX
8
CUT
10
18.42
20
30.1875
0
VERTEX
8
CUT
10
19.045
20
28
0
VERTEX
8
CUT
10
21.045
20
28
0
VERTEX
8
CUT
10
21.67
20
30.1875
0
SEQEND
0
POLYLINE
8
CUT
66
1
70
0
0
VERTEX
8
CUT
10
18.42
20
32.8125
0
VERTEX
8
CUT
10
19.045
20
35
0
VERTEX
8
CUT
10
21.045
20
35
0
VERTEX
8
CUT
10
21.67
20
32.8125
0
SEQEND
0
POLYLINE
8
CUT
66
1
70
0
0
VERTEX
8
CUT
10
18.42
20
22.4875
0
VERTEX
8
CUT
10
19.045
20
20.3
0
VERTEX
8
CUT
10
21.045
20
20.3
0
VERTEX
8
CUT
10
21.67
20
22.4875
0
SEQEND
0
POLYLINE
8
CUT
66
1
70
0
0
VERTEX
8
CUT
10
18.42
20
25.1125
0
VERTEX
8
CUT
10
19.045
20
27.3
0
VERTEX
8
CUT
10
21.045
20
27.3
0
VERTEX
8
CUT
10
21.67
20
25.1125
0
SEQEND
0
POLYLINE
8
CUT
66
1
70
0
0
VERTEX
8
CUT
10
18.42
20
14.7875
0
VERTEX
8
CUT
10
19.045
20
12.6
0
VERTEX
8
CUT
10
21.045
20
12.6
0
VERTEX
8
CUT
10
21.67
20
14.7875
0
SEQEND
0
POLYLINE
8
CUT
66
1
70
0
0
VERTEX
8
CUT
10
18.42
20
17.4125
0
VERTEX
8
CUT
10
19.045
20
19.6
0
VERTEX
8
CUT
10
21.045
20
19.6
0
VERTEX
8
CUT
10
21.67
20
17.4125
0
SEQEND
0
POLYLINE
8
CUT
66
1
70
0
0
VERTEX
8
CUT
10
18.42
20
7.0875
0
VERTEX
8
CUT
10
19.045
20
4.9
0
VERTEX
8
CUT
10
21.045
20
4.9
0
VERTEX
8
CUT
10
21.67
20
7.0875
0
SEQEND
0
POLYLINE
8
CUT
66
1
70
0
0
VERTEX
8
CUT
10
18.42
20
9.7125
0
VERTEX
8
CUT
10
19.045
20
11.9
0
VERTEX
8
CUT
10
21.045
20
11.9
0
VERTEX
8
CUT
10
21.67
20
9.7125
0
SEQEND
0
POLYLINE
8
CUT
66
1
70
0
0
VERTEX
8
CUT
10
18.42
20
2.0125
0
VERTEX
8
CUT
10
19.045
20
4.2
0
VERTEX
8
CUT
10
21.045
20
4.2
0
VERTEX
8
CUT
10
21.67
20
2.0125
0
SEQEND
0
POLYLINE
8
CUT
66
1
70
0
0
VERTEX
8
CUT
10
22.029
20
64.8375
0
VERTEX
8
CUT
10
22.654
20
62.65
0
VERTEX
8
CUT
10
24.654
20
62.65
0
VERTEX
8
CUT
10
25.279
20
64.8375
0
SEQEND
0
POLYLINE
8
CUT
66
1
70
0
0
VERTEX
8
CUT
10
22.029
20
67.4625
0
VERTEX
8
CUT
10
22.654
20
69.65
0
VERTEX
8
CUT
10
24.654
20
69.65
0
VERTEX
8
CUT
10
25.279
20
67.4625
0
SEQEND
0
POLYLINE
8
CUT
66
1
70
0
0
VERTEX
8
CUT
10
22.029
20
57.1375
0
VERTEX
8
CUT
10
22.654
20
54.95
0
VERTEX
8
CUT
10
24.654
20
54.95
0
VERTEX
8
CUT
10
25.279
20
57.1375
0
SEQEND
0
POLYLINE
8
CUT
66
1
70
0
0
VERTEX
8
CUT
10
22.029
20
59.7625
0
VERTEX
8
CUT
10
22.654
20
61.95
0
VERTEX
8
CUT
10
24.654
20
61.95
0
VERTEX
8
CUT
10
25.279
20
59.7625
0
SEQEND
0
POLYLINE
8
CUT
66
1
70
0
0
VERTEX
8
CUT
10
22.029
20
49.4375
0
VERTEX
8
CUT
10
22.654
20
47.25
0
VERTEX
8
CUT
10
24.654
20
47.25
0
VERTEX
8
CUT
10
25.279
20
49.4375
0
SEQEND
0
POLYLINE
8
CUT
66
1
70
0
0
VERTEX
8
CUT
10
22.029
20
52.0625
0
VERTEX
8
CUT
10
22.654
20
54.25
0
VERTEX
8
CUT
10
24.654
20
54.25
0
VERTEX
8
CUT
10
25.279
20
52.0625
0
SEQEND
0
POLYLINE
8
CUT
66
1
70
0
0
VERTEX
8
CUT
10
22.029
20
41.7375
0
VERTEX
8
CUT
10
22.654
20
39.55
0
VERTEX
8
CUT
10
24.654
20
39.55
0
VERTEX
8
CUT
10
25.279
20
41.7375
0
SEQEND
0
POLYLINE
8
CUT
66
1
70
0
0
VERTEX
8
CUT
10
22.029
20
44.3625
0
VERTEX
8
CUT
10
22.654
20
46.55
0
VERTEX
8
CUT
10
24.654
20
46.55
0
VERTEX
8
CUT
10
25.279
20
44.3625
0
SEQEND
0
POLYLINE
8
CUT
66
1
70
0
0
VERTEX
8
CUT
10
22.029
20
34.0375
0
VERTEX
8
CUT
10
22.654
20
31.85
0
VERTEX
8
CUT
10
24.654
20
31.85
0
VERTEX
8
CUT
10
25.279
20
34.0375
0
SEQEND
0
POLYLINE
8
CUT
66
1
70
0
0
VERTEX
8
CUT
10
22.029
20
36.6625
0
VERTEX
8
CUT
10
22.654
20
38.85
0
VERTEX
8
CUT
10
24.654
20
38.85
0
VERTEX
8
CUT
10
25.279
20
36.6625
0
SEQEND
0
POLYLINE
8
CUT
66
1
70
0
0
VERTEX
8
CUT
10
22.029
20
26.3375
0
VERTEX
8
CUT
10
22.654
20
24.15
0
VERTEX
8
CUT
10
24.654
20
24.15
0
VERTEX
8
CUT
10
25.279
20
26.3375
0
SEQEND
0
POLYLINE
8
CUT
66
1
70
0
0
VERTEX
8
CUT
10
22.029
20
28.9625
0
VERTEX
8
CUT
10
22.654
20
31.15
0
VERTEX
8
CUT
10
24.654
20
31.15
0
VERTEX
8
CUT
10
25.279
20
28.9625
0
SEQEND
0
POLYLINE
8
CUT
66
1
70
0
0
VERTEX
8
CUT
10
22.029
20
18.6375
0
VERTEX
8
CUT
10
22.654
20
16.45
0
VERTEX
8
CUT
10
24.654
20
16.45
0
VERTEX
8
CUT
10
25.279
20
18.6375
0
SEQEND
0
POLYLINE
8
CUT
66
1
70
0
0
VERTEX
8
CUT
10
22.029
20
21.2625
0
VERTEX
8
CUT
10
22.654
20
23.45
0
VERTEX
8
CUT
10
24.654
20
23.45
0
VERTEX
8
CUT
10
25.279
20
21.2625
0
SEQEND
0
POLYLINE
8
CUT
66
1
70
0
0
VERTEX
8
CUT
10
22.029
20
10.9375
0
VERTEX
8
CUT
10
22.654
20
8.75
0
VERTEX
8
CUT
10
24.654
20
8.75
0
VERTEX
8
CUT
10
25.279
20
10.9375
0
SEQEND
0
POLYLINE
8
CUT
66
1
70
0
0
VERTEX
8
CUT
10
22.029
20
13.5625
0
VERTEX
8
CUT
10
22.654
20
15.75
0
VERTEX
8
CUT
10
24.654
20
15.75
0
VERTEX
8
CUT
10
25.279
20
13.5625
0
SEQEND
0
POLYLINE
8
CUT
66
1
70
0
0
VERTEX
8
CUT
10
22.029
20
3.2375
0
VERTEX
8
CUT
10
22.654
20
1.05
0
VERTEX
8
CUT
10
24.654
20
1.05
0
VERTEX
8
CUT
10
25.279
20
3.2375
0
SEQEND
0
POLYLINE
8
CUT
66
1
70
0
0
VERTEX
8
CUT
10
22.029
20
5.8625
0
VERTEX
8
CUT
10
22.654
20
8.05
0
VERTEX
8
CUT
10
24.654
20
8.05
0
VERTEX
8
CUT
10
25.279
20
5.8625
0
SEQEND
0
POLYLINE
8
CUT
66
1
70
0
0
VERTEX
8
CUT
10
22.554
20
0
0
VERTEX
8
CUT
10
22.654
20
0.35
0
VERTEX
8
CUT
10
24.654
20
0.35
0
VERTEX
8
CUT
10
24.754
20
0
0
SEQEND
0
POLYLINE
8
CUT
66
1
70
0
0
VERTEX
8
CUT
10
25.638
20
68.6875
0
VERTEX
8
CUT
10
26.263
20
66.5
0
VERTEX
8
CUT
10
28.263
20
66.5
0
VERTEX
8
CUT
10
28.888
20
68.6875
0
SEQEND
0
POLYLINE
8
CUT
66
1
70
0
0
VERTEX
8
CUT
10
25.638
20
60.9875
0
VERTEX
8
CUT
10
26.263
20
58.8
0
VERTEX
8
CUT
10
28.263
20
58.8
0
VERTEX
8
CUT
10
28.888
20
60.9875
0
SEQEND
0
POLYLINE
8
CUT
66
1
70
0
0
VERTEX
8
CUT
10
25.638
20
63.6125
0
VERTEX
8
CUT
10
26.263
20
65.8
0
VERTEX
8
CUT
10
28.263
20
65.8
0
VERTEX
8
CUT
10
28.888
20
63.6125
0
SEQEND
0
POLYLINE
8
CUT
66
1
70
0
0
VERTEX
8
CUT
10
25.638
20
53.2875
0
VERTEX
8
CUT
10
26.263
20
51.1
0
VERTEX
8
CUT
10
28.263
20
51.1
0
VERTEX
8
CUT
10
28.888
20
53.2875
0
SEQEND
0
POLYLINE
8
CUT
66
1
70
0
0
VERTEX
8
CUT
10
25.638
20
55.9125
0
VERTEX
8
CUT
10
26.263
20
58.1
0
VERTEX
8
CUT
10
28.263
20
58.1
0
VERTEX
8
CUT
10
28.888
20
55.9125
0
SEQEND
0
POLYLINE
8
CUT
66
1
70
0
0
VERTEX
8
CUT
10
25.638
20
45.5875
0
VERTEX
8
CUT
10
26.263
20
43.4
0
VERTEX
8
CUT
10
28.263
20
43.4
0
VERTEX
8
CUT
10
28.888
20
45.5875
0
SEQEND
0
POLYLINE
8
CUT
66
1
70
0
0
VERTEX
8
CUT
10
25.638
20
48.2125
0
VERTEX
8
CUT
10
26.263
20
50.4
0
VERTEX
8
CUT
10
28.263
20
50.4
0
VERTEX
8
CUT
10
28.888
20
48.2125
0
SEQEND
0
POLYLINE
8
CUT
66
1
70
0
0
VERTEX
8
CUT
10
25.638
20
37.8875
0
VERTEX
8
CUT
10
26.263
20
35.7
0
VERTEX
8
CUT
10
28.263
20
35.7
0
VERTEX
8
CUT
10
28.888
20
37.8875
0
SEQEND
0
POLYLINE
8
CUT
66
1
70
0
0
VERTEX
8
CUT
10
25.638
20
40.5125
0
VERTEX
8
CUT
10
26.263
20
42.7
0
VERTEX
8
CUT
10
28.263
20
42.7
0
VERTEX
8
CUT
10
28.888
20
40.5125
0
SEQEND
0
POLYLINE
8
CUT
66
1
70
0
0
VERTEX
8
CUT
10
25.638
20
30.1875
0
VERTEX
8
CUT
10
26.263
20
28
0
VERTEX
8
CUT
10
28.263
20
28
0
VERTEX
8
CUT
10
28.888
20
30.1875
0
SEQEND
0
POLYLINE
8
CUT
66
1
70
0
0
VERTEX
8
CUT
10
25.638
20
32.8125
0
VERTEX
8
CUT
10
26.263
20
35
0
VERTEX
8
CUT
10
28.263
20
35
0
VERTEX
8
CUT
10
28.888
20
32.8125
0
SEQEND
0
POLYLINE
8
CUT
66
1
70
0
0
VERTEX
8
CUT
10
25.638
20
22.4875
0
VERTEX
8
CUT
10
26.263
20
20.3
0
VERTEX
8
CUT
10
28.263
20
20.3
0
VERTEX
8
CUT
10
28.888
20
22.4875
0
SEQEND
0
POLYLINE
8
CUT
66
1
70
0
0
VERTEX
8
CUT
10
25.638
20
25.1125
0
VERTEX
8
CUT
10
26.263
20
27.3
0
VERTEX
8
CUT
10
28.263
20
27.3
0
VERTEX
8
CUT
10
28.888
20
25.1125
0
SEQEND
0
POLYLINE
8
CUT
66
1
70
0
0
VERTEX
8
CUT
10
25.638
20
14.7875
0
VERTEX
8
CUT
10
26.263
20
12.6
0
VERTEX
8
CUT
10
28.263
20
12.6
0
VERTEX
8
CUT
10
28.888
20
14.7875
0
SEQEND
0
POLYLINE
8
CUT
66
1
70
0
0
VERTEX
8
CUT
10
25.638
20
17.4125
0
VERTEX
8
CUT
10
26.263
20
19.6
0
VERTEX
8
CUT
10
28.263
20
19.6
0
VERTEX
8
CUT
10
28.888
20
17.4125
0
SEQEND
0
POLYLINE
8
CUT
66
1
70
0
0
VERTEX
8
CUT
10
25.638
20
7.0875
0
VERTEX
8
CUT
10
26.263
20
4.9
0
VERTEX
8
CUT
10
28.263
20
4.9
0
VERTEX
8
CUT
10
28.888
20
7.0875
0
SEQEND
0
POLYLINE
8
CUT
66
1
70
0
0
VERTEX
8
CUT
10
25.638
20
9.7125
0
VERTEX
8
CUT
10
26.263
20
11.9
0
VERTEX
8
CUT
10
28.263
20
11.9
0
VERTEX
8
CUT
10
28.888
20
9.7125
0
SEQEND
0
POLYLINE
8
CUT
66
1
70
0
0
VERTEX
8
CUT
10
25.638
20
2.0125
0
VERTEX
8
CUT
10
26.263
20
4.2
0
VERTEX
8
CUT
10
28.263
20
4.2
0
VERTEX
8
CUT
10
28.888
20
2.0125
0
SEQEND
0
POLYLINE
8
CUT
66
1
70
0
0
VERTEX
8
CUT
10
29.247
20
64.8375
0
VERTEX
8
CUT
10
29.872
20
62.65
0
VERTEX
8
CUT
10
31.872
20
62.65
0
VERTEX
8
CUT
10
32.497
20
64.8375
0
SEQEND
0
POLYLINE
8
CUT
66
1
70
0
0
VERTEX
8
CUT
10
29.247
20
67.4625
0
VERTEX
8
CUT
10
29.872
20
69.65
0
VERTEX
8
CUT
10
31.872
20
69.65
0
VERTEX
8
CUT
10
32.497
20
67.4625
0
SEQEND
0
POLYLINE
8
CUT
66
1
70
0
0
VERTEX
8
CUT
10
29.247
20
57.1375
0
VERTEX
8
CUT
10
29.872
20
54.95
0
VERTEX
8
CUT
10
31.872
20
54.95
0
VERTEX
8
CUT
10
32.497
20
57.1375
0
SEQEND
0
POLYLINE
8
CUT
66
1
70
0
0
VERTEX
8
CUT
10
29.247
20
59.7625
0
VERTEX
8
CUT
10
29.872
20
61.95
0
VERTEX
8
CUT
10
31.872
20
61.95
0
VERTEX
8
CUT
10
32.497
20
59.7625
0
SEQEND
0
POLYLINE
8
CUT
66
1
70
0
0
VERTEX
8
CUT
10
29.247
20
49.4375
0
VERTEX
8
CUT
10
29.872
20
47.25
0
VERTEX
8
CUT
10
31.872
20
47.25
0
VERTEX
8
CUT
10
32.497
20
49.4375
0
SEQEND
0
POLYLINE
8
CUT
66
1
70
0
0
VERTEX
8
CUT
10
29.247
20
52.0625
0
VERTEX
8
CUT
10
29.872
20
54.25
0
VERTEX
8
CUT
10
31.872
20
54.25
0
VERTEX
8
CUT
10
32.497
20
52.0625
0
SEQEND
0
POLYLINE
8
CUT
66
1
70
0
0
VERTEX
8
CUT
10
29.247
20
41.7375
0
VERTEX
8
CUT
10
29.872
20
39.55
0
VERTEX
8
CUT
10
31.872
20
39.55
0
VERTEX
8
CUT
10
32.497
20
41.7375
0
SEQEND
0
POLYLINE
8
CUT
66
1
70
0
0
VERTEX
8
CUT
10
29.247
20
44.3625
0
VERTEX
8
CUT
10
29.872
20
46.55
0
VERTEX
8
CUT
10
31.872
20
46.55
0
VERTEX
8
CUT
10
32.497
20
44.3625
0
SEQEND
0
POLYLINE
8
CUT
66
1
70
0
0
VERTEX
8
CUT
10
29.247
20
34.0375
0
VERTEX
8
CUT
10
29.872
20
31.85
0
VERTEX
8
CUT
10
31.872
20
31.85
0
VERTEX
8
CUT
10
32.497
20
34.0375
0
SEQEND
0
POLYLINE
8
CUT
66
1
70
0
0
VERTEX
8
CUT
10
29.247
20
36.6625
0
VERTEX
8
CUT
10
29.872
20
38.85
0
VERTEX
8
CUT
10
31.872
20
38.85
0
VERTEX
8
CUT
10
32.497
20
36.6625
0
SEQEND
0
POLYLINE
8
CUT
66
1
70
0
0
VERTEX
8
CUT
10
29.247
20
26.3375
0
VERTEX
8
CUT
10
29.872
20
24.15
0
VERTEX
8
CUT
10
31.872
20
24.15
0
VERTEX
8
CUT
10
32.497
20
26.3375
0
SEQEND
0
POLYLINE
8
CUT
66
1
70
0
0
VERTEX
8
CUT
10
29.247
20
28.9625
0
VERTEX
8
CUT
10
29.872
20
31.15
0
VERTEX
8
CUT
10
31.872
20
31.15
0
VERTEX
8
CUT
10
32.497
20
28.9625
0
SEQEND
0
POLYLINE
8
CUT
66
1
70
0
0
VERTEX
8
CUT
10
29.247
20
18.6375
0
VERTEX
8
CUT
10
29.872
20
16.45
0
VERTEX
8
CUT
10
31.872
20
16.45
0
VERTEX
8
CUT
10
32.497
20
18.6375
0
SEQEND
0
POLYLINE
8
CUT
66
1
70
0
0
VERTEX
8
CUT
10
29.247
20
21.2625
0
VERTEX
8
CUT
10
29.872
20
23.45
0
VERTEX
8
CUT
10
31.872
20
23.45
0
VERTEX
8
CUT
10
32.497
20
21.2625
0
SEQEND
0
POLYLINE
8
CUT
66
1
70
0
0
VERTEX
8
CUT
10
29.247
20
10.9375
0
VERTEX
8
CUT
10
29.872
20
8.75
0
VERTEX
8
CUT
10
31.872
20
8.75
0
VERTEX
8
CUT
10
32.497
20
10.9375
0
SEQEND
0
POLYLINE
8
CUT
66
1
70
0
0
VERTEX
8
CUT
10
29.247
20
13.5625
0
VERTEX
8
CUT
10
29.872
20
15.75
0
VERTEX
8
CUT
10
31.872
20
15.75
0
VERTEX
8
CUT
10
32.497
20
13.5625
0
SEQEND
0
POLYLINE
8
CUT
66
1
70
0
0
VERTEX
8
CUT
10
29.247
20
3.2375
0
VERTEX
8
CUT
10
29.872
20
1.05
0
VERTEX
8
CUT
10
31.872
20
1.05
0
VERTEX
8
CUT
10
32.497
20
3.2375
0
SEQEND
0
POLYLINE
8
CUT
66
1
70
0
0
VERTEX
8
CUT
10
29.247
20
5.8625
0
VERTEX
8
CUT
10
29.872
20
8.05
0
VERTEX
8
CUT
10
31.872
20
8.05
0
VERTEX
8
CUT
10
32.497
20
5.8625
0
SEQEND
0
POLYLINE
8
CUT
66
1
70
0
0
VERTEX
8
CUT
10
29.772
20
0
0
VERTEX
8
CUT
10
29.872
20
0.35
0
VERTEX
8
CUT
10
31.872
20
0.35
0
VERTEX
8
CUT
10
31.972
20
0
0
SEQEND
0
POLYLINE
8
CUT
66
1
70
0
0
VERTEX
8
CUT
10
32.856
20
68.6875
0
VERTEX
8
CUT
10
33.481
20
66.5
0
VERTEX
8
CUT
10
35.481
20
66.5
0
VERTEX
8
CUT
10
36.106
20
68.6875
0
SEQEND
0
POLYLINE
8
CUT
66
1
70
0
0
VERTEX
8
CUT
10
32.856
20
60.9875
0
VERTEX
8
CUT
10
33.481
20
58.8
0
VERTEX
8
CUT
10
35.481
20
58.8
0
VERTEX
8
CUT
10
36.106
20
60.9875
0
SEQEND
0
POLYLINE
8
CUT
66
1
70
0
0
VERTEX
8
CUT
10
32.856
20
63.6125
0
VERTEX
8
CUT
10
33.481
20
65.8
0
VERTEX
8
CUT
10
35.481
20
65.8
0
VERTEX
8
CUT
10
36.106
20
63.6125
0
SEQEND
0
POLYLINE
8
CUT
66
1
70
0
0
VERTEX
8
CUT
10
32.856
20
53.2875
0
VERTEX
8
CUT
10
33.481
20
51.1
0
VERTEX
8
CUT
10
35.481
20
51.1
0
VERTEX
8
CUT
10
36.106
20
53.2875
0
SEQEND
0
POLYLINE
8
CUT
66
1
70
0
0
VERTEX
8
CUT
10
32.856
20
55.9125
0
VERTEX
8
CUT
10
33.481
20
58.1
0
VERTEX
8
CUT
10
35.481
20
58.1
0
VERTEX
8
CUT
10
36.106
20
55.9125
0
SEQEND
0
POLYLINE
8
CUT
66
1
70
0
0
VERTEX
8
CUT
10
32.856
20
45.5875
0
VERTEX
8
CUT
10
33.481
20
43.4
0
VERTEX
8
CUT
10
35.481
20
43.4
0
VERTEX
8
CUT
10
36.106
20
45.5875
0
SEQEND
0
POLYLINE
8
CUT
66
1
70
0
0
VERTEX
8
CUT
10
32.856
20
48.2125
0
VERTEX
8
CUT
10
33.481
20
50.4
0
VERTEX
8
CUT
10
35.481
20
50.4
0
VERTEX
8
CUT
10
36.106
20
48.2125
0
SEQEND
0
POLYLINE
8
CUT
66
1
70
0
0
VERTEX
8
CUT
10
32.856
20
37.8875
0
VERTEX
8
CUT
10
33.481
20
35.7
0
VERTEX
8
CUT
10
35.481
20
35.7
0
VERTEX
8
CUT
10
36.106
20
37.8875
0
SEQEND
0
POLYLINE
8
CUT
66
1
70
0
0
VERTEX
8
CUT
10
32.856
20
40.5125
0
VERTEX
8
CUT
10
33.481
20
42.7
0
VERTEX
8
CUT
10
35.481
20
42.7
0
VERTEX
8
CUT
10
36.106
20
40.5125
0
SEQEND
0
POLYLINE
8
CUT
66
1
70
0
0
VERTEX
8
CUT
10
32.856
20
30.1875
0
VERTEX
8
CUT
10
33.481
20
28
0
VERTEX
8
CUT
10
35.481
20
28
0
VERTEX
8
CUT
10
36.106
20
30.1875
0
SEQEND
0
POLYLINE
8
CUT
66
1
70
0
0
VERTEX
8
CUT
10
32.856
20
32.8125
0
VERTEX
8
CUT
10
33.481
20
35
0
VERTEX
8
CUT
10
35.481
20
35
0
VERTEX
8
CUT
10
36.106
20
32.8125
0
SEQEND
0
POLYLINE
8
CUT
66
1
70
0
0
VERTEX
8
CUT
10
32.856
20
22.4875
0
VERTEX
8
CUT
10
33.481
20
20.3
0
VERTEX
8
CUT
10
35.481
20
20.3
0
VERTEX
8
CUT
10
36.106
20
22.4875
0
SEQEND
0
POLYLINE
8
CUT
66
1
70
0
0
VERTEX
8
CUT
10
32.856
20
25.1125
0
VERTEX
8
CUT
10
33.481
20
27.3
0
VERTEX
8
CUT
10
35.481
20
27.3
0
VERTEX
8
CUT
10
36.106
20
25.1125
0
SEQEND
0
POLYLINE
8
CUT
66
1
70
0
0
VERTEX
8
CUT
10
32.856
20
14.7875
0
VERTEX
8
CUT
10
33.481
20
12.6
0
VERTEX
8
CUT
10
35.481
20
12.6
0
VERTEX
8
CUT
10
36.106
20
14.7875
0
SEQEND
0
POLYLINE
8
CUT
66
1
70
0
0
VERTEX
8
CUT
10
32.856
20
17.4125
0
VERTEX
8
CUT
10
33.481
20
19.6
0
VERTEX
8
CUT
10
35.481
20
19.6
0
VERTEX
8
CUT
10
36.106
20
17.4125
0
SEQEND
0
POLYLINE
8
CUT
66
1
70
0
0
VERTEX
8
CUT
10
32.856
20
7.0875
0
VERTEX
8
CUT
10
33.481
20
4.9
0
VERTEX
8
CUT
10
35.481
20
4.9
0
VERTEX
8
CUT
10
36.106
20
7.0875
0
SEQEND
0
POLYLINE
8
CUT
66
1
70
0
0
VERTEX
8
CUT
10
32.856
20
9.7125
0
VERTEX
8
CUT
10
33.481
20
11.9
0
VERTEX
8
CUT
10
35.481
20
11.9
0
VERTEX
8
CUT
10
36.106
20
9.7125
0
SEQEND
0
POLYLINE
8
CUT
66
1
70
0
0
VERTEX
8
CUT
10
32.856
20
2.0125
0
VERTEX
8
CUT
10
33.481
20
4.2
0
VERTEX
8
CUT
10
35.481
20
4.2
0
VERTEX
8
CUT
10
36.106
20
2.0125
0
SEQEND
0
POLYLINE
8
CUT
66
1
70
0
0
VERTEX
8
CUT
10
36.465
20
64.8375
0
VERTEX
8
CUT
10
37.09
20
62.65
0
VERTEX
8
CUT
10
39.09
20
62.65
0
VERTEX
8
CUT
10
39.715
20
64.8375
0
SEQEND
0
POLYLINE
8
CUT
66
1
70
0
0
VERTEX
8
CUT
10
36.465
20
67.4625
0
VERTEX
8
CUT
10
37.09
20
69.65
0
VERTEX
8
CUT
10
39.09
20
69.65
0
VERTEX
8
CUT
10
39.715
20
67.4625
0
SEQEND
0
POLYLINE
8
CUT
66
1
70
0
0
VERTEX
8
CUT
10
36.465
20
57.1375
0
VERTEX
8
CUT
10
37.09
20
54.95
0
VERTEX
8
CUT
10
39.09
20
54.95
0
VERTEX
8
CUT
10
39.715
20
57.1375
0
SEQEND
0
POLYLINE
8
CUT
66
1
70
0
0
VERTEX
8
CUT
10
36.465
20
59.7625
0
VERTEX
8
CUT
10
37.09
20
61.95
0
VERTEX
8
CUT
10
39.09
20
61.95
0
VERTEX
8
CUT
10
39.715
20
59.7625
0
SEQEND
0
POLYLINE
8
CUT
66
1
70
0
0
VERTEX
8
CUT
10
36.465
20
49.4375
0
VERTEX
8
CUT
10
37.09
20
47.25
0
VERTEX
8
CUT
10
39.09
20
47.25
0
VERTEX
8
CUT
10
39.715
20
49.4375
0
SEQEND
0
POLYLINE
8
CUT
66
1
70
0
0
VERTEX
8
CUT
10
36.465
20
52.0625
0
VERTEX
8
CUT
10
37.09
20
54.25
0
VERTEX
8
CUT
10
39.09
20
54.25
0
VERTEX
8
CUT
10
39.715
20
52.0625
0
SEQEND
0
POLYLINE
8
CUT
66
1
70
0
0
VERTEX
8
CUT
10
36.465
20
41.7375
0
VERTEX
8
CUT
10
37.09
20
39.55
0
VERTEX
8
CUT
10
39.09
20
39.55
0
VERTEX
8
CUT
10
39.715
20
41.7375
0
SEQEND
0
POLYLINE
8
CUT
66
1
70
0
0
VERTEX
8
CUT
10
36.465
20
44.3625
0
VERTEX
8
CUT
10
37.09
20
46.55
0
VERTEX
8
CUT
10
39.09
20
46.55
0
VERTEX
8
CUT
10
39.715
20
44.3625
0
SEQEND
0
POLYLINE
8
CUT
66
1
70
0
0
VERTEX
8
CUT
10
36.465
20
34.0375
0
VERTEX
8
CUT
10
37.09
20
31.85
0
VERTEX
8
CUT
10
39.09
20
31.85
0
VERTEX
8
CUT
10
39.715
20
34.0375
0
SEQEND
0
POLYLINE
8
CUT
66
1
70
0
0
VERTEX
8
CUT
10
36.465
20
36.6625
0
VERTEX
8
CUT
10
37.09
20
38.85
0
VERTEX
8
CUT
10
39.09
20
38.85
0
VERTEX
8
CUT
10
39.715
20
36.6625
0
SEQEND
0
POLYLINE
8
CUT
66
1
70
0
0
VERTEX
8
CUT
10
36.465
20
26.3375
0
VERTEX
8
CUT
10
37.09
20
24.15
0
VERTEX
8
CUT
10
39.09
20
24.15
0
VERTEX
8
CUT
10
39.715
20
26.3375
0
SEQEND
0
POLYLINE
8
CUT
66
1
70
0
0
VERTEX
8
CUT
10
36.465
20
28.9625
0
VERTEX
8
CUT
10
37.09
20
31.15
0
VERTEX
8
CUT
10
39.09
20
31.15
0
VERTEX
8
CUT
10
39.715
20
28.9625
0
SEQEND
0
POLYLINE
8
CUT
66
1
70
0
0
VERTEX
8
CUT
10
36.465
20
18.6375
0
VERTEX
8
CUT
10
37.09
20
16.45
0
VERTEX
8
CUT
10
39.09
20
16.45
0
VERTEX
8
CUT
10
39.715
20
18.6375
0
SEQEND
0
POLYLINE
8
CUT
66
1
70
0
0
VERTEX
8
CUT
10
36.465
20
21.2625
0
VERTEX
8
CUT
10
37.09
20
23.45
0
VERTEX
8
CUT
10
39.09
20
23.45
0
VERTEX
8
CUT
10
39.715
20
21.2625
0
SEQEND
0
POLYLINE
8
CUT
66
1
70
0
0
VERTEX
8
CUT
10
36.465
20
10.9375
0
VERTEX
8
CUT
10
37.09
20
8.75
0
VERTEX
8
CUT
10
39.09
20
8.75
0
VERTEX
8
CUT
10
39.715
20
10.9375
0
SEQEND
0
POLYLINE
8
CUT
66
1
70
0
0
VERTEX
8
CUT
10
36.465
20
13.5625
0
VERTEX
8
CUT
10
37.09
20
15.75
0
VERTEX
8
CUT
10
39.09
20
15.75
0
VERTEX
8
CUT
10
39.715
20
13.5625
0
SEQEND
0
POLYLINE
8
CUT
66
1
70
0
0
VERTEX
8
CUT
10
36.465
20
3.2375
0
VERTEX
8
CUT
10
37.09
20
1.05
0
VERTEX
8
CUT
10
39.09
20
1.05
0
VERTEX
8
CUT
10
39.715
20
3.2375
0
SEQEND
0
POLYLINE
8
CUT
66
1
70
0
0
VERTEX
8
CUT
10
36.465
20
5.8625
0
VERTEX
8
CUT
10
37.09
20
8.05
0
VERTEX
8
CUT
10
39.09
20
8.05
0
VERTEX
8
CUT
10
39.715
20
5.8625
0
SEQEND
0
POLYLINE
8
CUT
66
1
70
0
0
VERTEX
8
CUT
10
36.99
20
0
0
VERTEX
8
CUT
10
37.09
20
0.35
0
VERTEX
8
CUT
10
39.09
20
0.35
0
VERTEX
8
CUT
10
39.19
20
0
0
SEQEND
0
POLYLINE
8
CUT
66
1
70
0
0
VERTEX
8
CUT
10
40.074
20
68.6875
0
VERTEX
8
CUT
10
40.699
20
66.5
0
VERTEX
8
CUT
10
42.699
20
66.5
0
VERTEX
8
CUT
10
43.324
20
68.6875
0
SEQEND
0
POLYLINE
8
CUT
66
1
70
0
0
VERTEX
8
CUT
10
40.074
20
60.9875
0
VERTEX
8
CUT
10
40.699
20
58.8
0
VERTEX
8
CUT
10
42.699
20
58.8
0
VERTEX
8
CUT
10
43.324
20
60.9875
0
SEQEND
0
POLYLINE
8
CUT
66
1
70
0
0
VERTEX
8
CUT
10
40.074
20
63.6125
0
VERTEX
8
CUT
10
40.699
20
65.8
0
VERTEX
8
CUT
10
42.699
20
65.8
0
VERTEX
8
CUT
10
43.324
20
63.6125
0
SEQEND
0
POLYLINE
8
CUT
66
1
70
0
0
VERTEX
8
CUT
10
40.074
20
53.2875
0
VERTEX
8
CUT
10
40.699
20
51.1
0
VERTEX
8
CUT
10
42.699
20
51.1
0
VERTEX
8
CUT
10
43.324
20
53.2875
0
SEQEND
0
POLYLINE
8
CUT
66
1
70
0
0
VERTEX
8
CUT
10
40.074
20
55.9125
0
VERTEX
8
CUT
10
40.699
20
58.1
0
VERTEX
8
CUT
10
42.699
20
58.1
0
VERTEX
8
CUT
10
43.324
20
55.9125
0
SEQEND
0
POLYLINE
8
CUT
66
1
70
0
0
VERTEX
8
CUT
10
40.074
20
45.5875
0
VERTEX
8
CUT
10
40.699
20
43.4
0
VERTEX
8
CUT
10
42.699
20
43.4
0
VERTEX
8
CUT
10
43.324
20
45.5875
0
SEQEND
0
POLYLINE
8
CUT
66
1
70
0
0
VERTEX
8
CUT
10
40.074
20
48.2125
0
VERTEX
8
CUT
10
40.699
20
50.4
0
VERTEX
8
CUT
10
42.699
20
50.4
0
VERTEX
8
CUT
10
43.324
20
48.2125
0
SEQEND
0
POLYLINE
8
CUT
66
1
70
0
0
VERTEX
8
CUT
10
40.074
20
37.8875
0
VERTEX
8
CUT
10
40.699
20
35.7
0
VERTEX
8
CUT
10
42.699
20
35.7
0
VERTEX
8
CUT
10
43.324
20
37.8875
0
SEQEND
0
POLYLINE
8
CUT
66
1
70
0
0
VERTEX
8
CUT
10
40.074
20
40.5125
0
VERTEX
8
CUT
10
40.699
20
42.7
0
VERTEX
8
CUT
10
42.699
20
42.7
0
VERTEX
8
CUT
10
43.324
20
40.5125
0
SEQEND
0
POLYLINE
8
CUT
66
1
70
0
0
VERTEX
8
CUT
10
40.074
20
30.1875
0
VERTEX
8
CUT
10
40.699
20
28
0
VERTEX
8
CUT
10
42.699
20
28
0
VERTEX
8
CUT
10
43.324
20
30.1875
0
SEQEND
0
POLYLINE
8
CUT
66
1
70
0
0
VERTEX
8
CUT
10
40.074
20
32.8125
0
VERTEX
8
CUT
10
40.699
20
35
0
VERTEX
8
CUT
10
42.699
20
35
0
VERTEX
8
CUT
10
43.324
20
32.8125
0
SEQEND
0
POLYLINE
8
CUT
66
1
70
0
0
VERTEX
8
CUT
10
40.074
20
22.4875
0
VERTEX
8
CUT
10
40.699
20
20.3
0
VERTEX
8
CUT
10
42.699
20
20.3
0
VERTEX
8
CUT
10
43.324
20
22.4875
0
SEQEND
0
POLYLINE
8
CUT
66
1
70
0
0
VERTEX
8
CUT
10
40.074
20
25.1125
0
VERTEX
8
CUT
10
40.699
20
27.3
0
VERTEX
8
CUT
10
42.699
20
27.3
0
VERTEX
8
CUT
10
43.324
20
25.1125
0
SEQEND
0
POLYLINE
8
CUT
66
1
70
0
0
VERTEX
8
CUT
10
40.074
20
14.7875
0
VERTEX
8
CUT
10
40.699
20
12.6
0
VERTEX
8
CUT
10
42.699
20
12.6
0
VERTEX
8
CUT
10
43.324
20
14.7875
0
SEQEND
0
POLYLINE
8
CUT
66
1
70
0
0
VERTEX
8
CUT
10
40.074
20
17.4125
0
VERTEX
8
CUT
10
40.699
20
19.6
0
VERTEX
8
CUT
10
42.699
20
19.6
0
VERTEX
8
CUT
10
43.324
20
17.4125
0
SEQEND
0
POLYLINE
8
CUT
66
1
70
0
0
VERTEX
8
CUT
10
40.074
20
7.0875
0
VERTEX
8
CUT
10
40.699
20
4.9
0
VERTEX
8
CUT
10
42.699
20
4.9
0
VERTEX
8
CUT
10
43.324
20
7.0875
0
SEQEND
0
POLYLINE
8
CUT
66
1
70
0
0
VERTEX
8
CUT
10
40.074
20
9.7125
0
VERTEX
8
CUT
10
40.699
20
11.9
0
VERTEX
8
CUT
10
42.699
20
11.9
0
VERTEX
8
CUT
10
43.324
20
9.7125
0
SEQEND
0
POLYLINE
8
CUT
66
1
70
0
0
VERTEX
8
CUT
10
40.074
20
2.0125
0
VERTEX
8
CUT
10
40.699
20
4.2
0
VERTEX
8
CUT
10
42.699
20
4.2
0
VERTEX
8
CUT
10
43.324
20
2.0125
0
SEQEND
0
POLYLINE
8
CUT
66
1
70
0
0
VERTEX
8
CUT
10
43.683
20
64.8375
0
VERTEX
8
CUT
10
44.308
20
62.65
0
VERTEX
8
CUT
10
46.308
20
62.65
0
VERTEX
8
CUT
10
46.933
20
64.8375
0
SEQEND
0
POLYLINE
8
CUT
66
1
70
0
0
VERTEX
8
CUT
10
43.683
20
67.4625
0
VERTEX
8
CUT
10
44.308
20
69.65
0
VERTEX
8
CUT
10
46.308
20
69.65
0
VERTEX
8
CUT
10
46.933
20
67.4625
0
SEQEND
0
POLYLINE
8
CUT
66
1
70
0
0
VERTEX
8
CUT
10
43.683
20
57.1375
0
VERTEX
8
CUT
10
44.308
20
54.95
0
VERTEX
8
CUT
10
46.308
20
54.95
0
VERTEX
8
CUT
10
46.933
20
57.1375
0
SEQEND
0
POLYLINE
8
CUT
66
1
70
0
0
VERTEX
8
CUT
10
43.683
20
59.7625
0
VERTEX
8
CUT
10
44.308
20
61.95
0
VERTEX
8
CUT
10
46.308
20
61.95
0
VERTEX
8
CUT
10
46.933
20
59.7625
0
SEQEND
0
POLYLINE
8
CUT
66
1
70
0
0
VERTEX
8
CUT
10
43.683
20
49.4375
0
VERTEX
8
CUT
10
44.308
20
47.25
0
VERTEX
8
CUT
10
46.308
20
47.25
0
VERTEX
8
CUT
10
46.933
20
49.4375
0
SEQEND
0
POLYLINE
8
CUT
66
1
70
0
0
VERTEX
8
CUT
10
43.683
20
52.0625
0
VERTEX
8
CUT
10
44.308
20
54.25
0
VERTEX
8
CUT
10
46.308
20
54.25
0
VERTEX
8
CUT
10
46.933
20
52.0625
0
SEQEND
0
POLYLINE
8
CUT
66
1
70
0
0
VERTEX
8
CUT
10
43.683
20
41.7375
0
VERTEX
8
CUT
10
44.308
20
39.55
0
VERTEX
8
CUT
10
46.308
20
39.55
0
VERTEX
8
CUT
10
46.933
20
41.7375
0
SEQEND
0
POLYLINE
8
CUT
66
1
70
0
0
VERTEX
8
CUT
10
43.683
20
44.3625
0
VERTEX
8
CUT
10
44.308
20
46.55
0
VERTEX
8
CUT
10
46.308
20
46.55
0
VERTEX
8
CUT
10
46.933
20
44.3625
0
SEQEND
0
POLYLINE
8
CUT
66
1
70
0
0
VERTEX
8
CUT
10
43.683
20
34.0375
0
VERTEX
8
CUT
10
44.308
20
31.85
0
VERTEX
8
CUT
10
46.308
20
31.85
0
VERTEX
8
CUT
10
46.933
20
34.0375
0
SEQEND
0
POLYLINE
8
CUT
66
1
70
0
0
VERTEX
8
CUT
10
43.683
20
36.6625
0
VERTEX
8
CUT
10
44.308
20
38.85
0
VERTEX
8
CUT
10
46.308
20
38.85
0
VERTEX
8
CUT
10
46.933
20
36.6625
0
SEQEND
0
POLYLINE
8
CUT
66
1
70
0
0
VERTEX
8
CUT
10
43.683
20
26.3375
0
VERTEX
8
CUT
10
44.308
20
24.15
0
VERTEX
8
CUT
10
46.308
20
24.15
0
VERTEX
8
CUT
10
46.933
20
26.3375
0
SEQEND
0
POLYLINE
8
CUT
66
1
70
0
0
VERTEX
8
CUT
10
43.683
20
28.9625
0
VERTEX
8
CUT
10
44.308
20
31.15
0
VERTEX
8
CUT
10
46.308
20
31.15
0
VERTEX
8
CUT
10
46.933
20
28.9625
0
SEQEND
0
POLYLINE
8
CUT
66
1
70
0
0
VERTEX
8
CUT
10
43.683
20
18.6375
0
VERTEX
8
CUT
10
44.308
20
16.45
0
VERTEX
8
CUT
10
46.308
20
16.45
0
VERTEX
8
CUT
10
46.933
20
18.6375
0
SEQEND
0
POLYLINE
8
CUT
66
1
70
0
0
VERTEX
8
CUT
10
43.683
20
21.2625
0
VERTEX
8
CUT
10
44.308
20
23.45
0
VERTEX
8
CUT
10
46.308
20
23.45
0
VERTEX
8
CUT
10
46.933
20
21.2625
0
SEQEND
0
POLYLINE
8
CUT
66
1
70
0
0
VERTEX
8
CUT
10
43.683
20
10.9375
0
VERTEX
8
CUT
10
44.308
20
8.75
0
VERTEX
8
CUT
10
46.308
20
8.75
0
VERTEX
8
CUT
10
46.933
20
10.9375
0
SEQEND
0
POLYLINE
8
CUT
66
1
70
0
0
VERTEX
8
CUT
10
43.683
20
13.5625
0
VERTEX
8
CUT
10
44.308
20
15.75
0
VERTEX
8
CUT
10
46.308
20
15.75
0
VERTEX
8
CUT
10
46.933
20
13.5625
0
SEQEND
0
POLYLINE
8
CUT
66
1
70
0
0
VERTEX
8
CUT
10
43.683
20
3.2375
0
VERTEX
8
CUT
10
44.308
20
1.05
0
VERTEX
8
CUT
10
46.308
20
1.05
0
VERTEX
8
CUT
10
46.933
20
3.2375
0
SEQEND
0
POLYLINE
8
CUT
66
1
70
0
0
VERTEX
8
CUT
10
43.683
20
5.8625
0
VERTEX
8
CUT
10
44.308
20
8.05
0
VERTEX
8
CUT
10
46.308
20
8.05
0
VERTEX
8
CUT
10
46.933
20
5.8625
0
SEQEND
0
POLYLINE
8
CUT
66
1
70
0
0
VERTEX
8
CUT
10
44.208
20
0
0
VERTEX
8
CUT
10
44.308
20
0.35
0
VERTEX
8
CUT
10
46.308
20
0.35
0
VERTEX
8
CUT
10
46.408
20
0
0
SEQEND
0
POLYLINE
8
CUT
66
1
70
0
0
VERTEX
8
CUT
10
47.292
20
68.6875
0
VERTEX
8
CUT
10
47.917
20
66.5
0
VERTEX
8
CUT
10
49.917
20
66.5
0
VERTEX
8
CUT
10
50.542
20
68.6875
0
SEQEND
0
POLYLINE
8
CUT
66
1
70
0
0
VERTEX
8
CUT
10
47.292
20
60.9875
0
VERTEX
8
CUT
10
47.917
20
58.8
0
VERTEX
8
CUT
10
49.917
20
58.8
0
VERTEX
8
CUT
10
50.542
20
60.9875
0
SEQEND
0
POLYLINE
8
CUT
66
1
70
0
0
VERTEX
8
CUT
10
47.292
20
63.6125
0
VERTEX
8
CUT
10
47.917
20
65.8
0
VERTEX
8
CUT
10
49.917
20
65.8
0
VERTEX
8
CUT
10
50.542
20
63.6125
0
SEQEND
0
POLYLINE
8
CUT
66
1
70
0
0
VERTEX
8
CUT
10
47.292
20
53.2875
0
VERTEX
8
CUT
10
47.917
20
51.1
0
VERTEX
8
CUT
10
49.917
20
51.1
0
VERTEX
8
CUT
10
50.542
20
53.2875
0
SEQEND
0
POLYLINE
8
CUT
66
1
70
0
0
VERTEX
8
CUT
10
47.292
20
55.9125
0
VERTEX
8
CUT
10
47.917
20
58.1
0
VERTEX
8
CUT
10
49.917
20
58.1
0
VERTEX
8
CUT
10
50.542
20
55.9125
0
SEQEND
0
POLYLINE
8
CUT
66
1
70
0
0
VERTEX
8
CUT
10
47.292
20
45.5875
0
VERTEX
8
CUT
10
47.917
20
43.4
0
VERTEX
8
CUT
10
49.917
20
43.4
0
VERTEX
8
CUT
10
50.542
20
45.5875
0
SEQEND
0
POLYLINE
8
CUT
66
1
70
0
0
VERTEX
8
CUT
10
47.292
20
48.2125
0
VERTEX
8
CUT
10
47.917
20
50.4
0
VERTEX
8
CUT
10
49.917
20
50.4
0
VERTEX
8
CUT
10
50.542
20
48.2125
0
SEQEND
0
POLYLINE
8
CUT
66
1
70
0
0
VERTEX
8
CUT
10
47.292
20
37.8875
0
VERTEX
8
CUT
10
47.917
20
35.7
0
VERTEX
8
CUT
10
49.917
20
35.7
0
VERTEX
8
CUT
10
50.542
20
37.8875
0
SEQEND
0
POLYLINE
8
CUT
66
1
70
0
0
VERTEX
8
CUT
10
47.292
20
40.5125
0
VERTEX
8
CUT
10
47.917
20
42.7
0
VERTEX
8
CUT
10
49.917
20
42.7
0
VERTEX
8
CUT
10
50.542
20
40.5125
0
SEQEND
0
POLYLINE
8
CUT
66
1
70
0
0
VERTEX
8
CUT
10
47.292
20
30.1875
0
VERTEX
8
CUT
10
47.917
20
28
0
VERTEX
8
CUT
10
49.917
20
28
0
VERTEX
8
CUT
10
50.542
20
30.1875
0
SEQEND
0
POLYLINE
8
CUT
66
1
70
0
0
VERTEX
8
CUT
10
47.292
20
32.8125
0
VERTEX
8
CUT
10
47.917
20
35
0
VERTEX
8
CUT
10
49.917
20
35
0
VERTEX
8
CUT
10
50.542
20
32.8125
0
SEQEND
0
POLYLINE
8
CUT
66
1
70
0
0
VERTEX
8
CUT
10
47.292
20
22.4875
0
VERTEX
8
CUT
10
47.917
20
20.3
0
VERTEX
8
CUT
10
49.917
20
20.3
0
VERTEX
8
CUT
10
50.542
20
22.4875
0
SEQEND
0
POLYLINE
8
CUT
66
1
70
0
0
VERTEX
8
CUT
10
47.292
20
25.1125
0
VERTEX
8
CUT
10
47.917
20
27.3
0
VERTEX
8
CUT
10
49.917
20
27.3
0
VERTEX
8
CUT
10
50.542
20
25.1125
0
SEQEND
0
POLYLINE
8
CUT
66
1
70
0
0
VERTEX
8
CUT
10
47.292
20
14.7875
0
VERTEX
8
CUT
10
47.917
20
12.6
0
VERTEX
8
CUT
10
49.917
20
12.6
0
VERTEX
8
CUT
10
50.542
20
14.7875
0
SEQEND
0
POLYLINE
8
CUT
66
1
70
0
0
VERTEX
8
CUT
10
47.292
20
17.4125
0
VERTEX
8
CUT
10
47.917
20
19.6
0
VERTEX
8
CUT
10
49.917
20
19.6
0
VERTEX
8
CUT
10
50.542
20
17.4125
0
SEQEND
0
POLYLINE
8
CUT
66
1
70
0
0
VERTEX
8
CUT
10
47.292
20
7.0875
0
VERTEX
8
CUT
10
47.917
20
4.9
0
VERTEX
8
CUT
10
49.917
20
4.9
0
VERTEX
8
CUT
10
50.542
20
7.0875
0
SEQEND
0
POLYLINE
8
CUT
66
1
70
0
0
VERTEX
8
CUT
10
47.292
20
9.7125
0
VERTEX
8
CUT
10
47.917
20
11.9
0
VERTEX
8
CUT
10
49.917
20
11.9
0
VERTEX
8
CUT
10
50.542
20
9.7125
0
SEQEND
0
POLYLINE
8
CUT
66
1
70
0
0
VERTEX
8
CUT
10
47.292
20
2.0125
0
VERTEX
8
CUT
10
47.917
20
4.2
0
VERTEX
8
CUT
10
49.917
20
4.2
0
VERTEX
8
CUT
10
50.542
20
2.0125
0
SEQEND
0
POLYLINE
8
CUT
66
1
70
0
0
VERTEX
8
CUT
10
50.901
20
64.8375
0
VERTEX
8
CUT
10
51.526
20
62.65
0
VERTEX
8
CUT
10
53.526
20
62.65
0
VERTEX
8
CUT
10
54.151
20
64.8375
0
SEQEND
0
POLYLINE
8
CUT
66
1
70
0
0
VERTEX
8
CUT
10
50.901
20
67.4625
0
VERTEX
8
CUT
10
51.526
20
69.65
0
VERTEX
8
CUT
10
53.526
20
69.65
0
VERTEX
8
CUT
10
54.151
20
67.4625
0
SEQEND
0
POLYLINE
8
CUT
66
1
70
0
0
VERTEX
8
CUT
10
50.901
20
57.1375
0
VERTEX
8
CUT
10
51.526
20
54.95
0
VERTEX
8
CUT
10
53.526
20
54.95
0
VERTEX
8
CUT
10
54.151
20
57.1375
0
SEQEND
0
POLYLINE
8
CUT
66
1
70
0
0
VERTEX
8
CUT
10
50.901
20
59.7625
0
VERTEX
8
CUT
10
51.526
20
61.95
0
VERTEX
8
CUT
10
53.526
20
61.95
0
VERTEX
8
CUT
10
54.151
20
59.7625
0
SEQEND
0
POLYLINE
8
CUT
66
1
70
0
0
VERTEX
8
CUT
10
50.901
20
49.4375
0
VERTEX
8
CUT
10
51.526
20
47.25
0
VERTEX
8
CUT
10
53.526
20
47.25
0
VERTEX
8
CUT
10
54.151
20
49.4375
0
SEQEND
0
POLYLINE
8
CUT
66
1
70
0
0
VERTEX
8
CUT
10
50.901
20
52.0625
0
VERTEX
8
CUT
10
51.526
20
54.25
0
VERTEX
8
CUT
10
53.526
20
54.25
0
VERTEX
8
CUT
10
54.151
20
52.0625
0
SEQEND
0
POLYLINE
8
CUT
66
1
70
0
0
VERTEX
8
CUT
10
50.901
20
41.7375
0
VERTEX
8
CUT
10
51.526
20
39.55
0
VERTEX
8
CUT
10
53.526
20
39.55
0
VERTEX
8
CUT
10
54.151
20
41.7375
0
SEQEND
0
POLYLINE
8
CUT
66
1
70
0
0
VERTEX
8
CUT
10
50.901
20
44.3625
0
VERTEX
8
CUT
10
51.526
20
46.55
0
VERTEX
8
CUT
10
53.526
20
46.55
0
VERTEX
8
CUT
10
54.151
20
44.3625
0
SEQEND
0
POLYLINE
8
CUT
66
1
70
0
0
VERTEX
8
CUT
10
50.901
20
34.0375
0
VERTEX
8
CUT
10
51.526
20
31.85
0
VERTEX
8
CUT
10
53.526
20
31.85
0
VERTEX
8
CUT
10
54.151
20
34.0375
0
SEQEND
0
POLYLINE
8
CUT
66
1
70
0
0
VERTEX
8
CUT
10
50.901
20
36.6625
0
VERTEX
8
CUT
10
51.526
20
38.85
0
VERTEX
8
CUT
10
53.526
20
38.85
0
VERTEX
8
CUT
10
54.151
20
36.6625
0
SEQEND
0
POLYLINE
8
CUT
66
1
70
0
0
VERTEX
8
CUT
10
50.901
20
26.3375
0
VERTEX
8
CUT
10
51.526
20
24.15
0
VERTEX
8
CUT
10
53.526
20
24.15
0
VERTEX
8
CUT
10
54.151
20
26.3375
0
SEQEND
0
POLYLINE
8
CUT
66
1
70
0
0
VERTEX
8
CUT
10
50.901
20
28.9625
0
VERTEX
8
CUT
10
51.526
20
31.15
0
VERTEX
8
CUT
10
53.526
20
31.15
0
VERTEX
8
CUT
10
54.151
20
28.9625
0
SEQEND
0
POLYLINE
8
CUT
66
1
70
0
0
VERTEX
8
CUT
10
50.901
20
18.6375
0
VERTEX
8
CUT
10
51.526
20
16.45
0
VERTEX
8
CUT
10
53.526
20
16.45
0
VERTEX
8
CUT
10
54.151
20
18.6375
0
SEQEND
0
POLYLINE
8
CUT
66
1
70
0
0
VERTEX
8
CUT
10
50.901
20
21.2625
0
VERTEX
8
CUT
10
51.526
20
23.45
0
VERTEX
8
CUT
10
53.526
20
23.45
0
VERTEX
8
CUT
10
54.151
20
21.2625
0
SEQEND
0
POLYLINE
8
CUT
66
1
70
0
0
VERTEX
8
CUT
10
50.901
20
10.9375
0
VERTEX
8
CUT
10
51.526
20
8.75
0
VERTEX
8
CUT
10
53.526
20
8.75
0
VERTEX
8
CUT
10
54.151
20
10.9375
0
SEQEND
0
POLYLINE
8
CUT
66
1
70
0
0
VERTEX
8
CUT
10
50.901
20
13.5625
0
VERTEX
8
CUT
10
51.526
20
15.75
0
VERTEX
8
CUT
10
53.526
20
15.75
0
VERTEX
8
CUT
10
54.151
20
13.5625
0
SEQEND
0
POLYLINE
8
CUT
66
1
70
0
0
VERTEX
8
CUT
10
50.901
20
3.2375
0
VERTEX
8
CUT
10
51.526
20
1.05
0
VERTEX
8
CUT
10
53.526
20
1.05
0
VERTEX
8
CUT
10
54.151
20
3.2375
0
SEQEND
0
POLYLINE
8
CUT
66
1
70
0
0
VERTEX
8
CUT
10
50.901
20
5.8625
0
VERTEX
8
CUT
10
51.526
20
8.05
0
VERTEX
8
CUT
10
53.526
20
8.05
0
VERTEX
8
CUT
10
54.151
20
5.8625
0
SEQEND
0
POLYLINE
8
CUT
66
1
70
0
0
VERTEX
8
CUT
10
51.426
20
0
0
VERTEX
8
CUT
10
51.526
20
0.35
0
VERTEX
8
CUT
10
53.526
20
0.35
0
VERTEX
8
CUT
10
53.626
20
0
0
SEQEND
0
POLYLINE
8
CUT
66
1
70
0
0
VERTEX
8
CUT
10
54.51
20
68.6875
0
VERTEX
8
CUT
10
55.135
20
66.5
0
VERTEX
8
CUT
10
57.135
20
66.5
0
VERTEX
8
CUT
10
57.76
20
68.6875
0
SEQEND
0
POLYLINE
8
CUT
66
1
70
0
0
VERTEX
8
CUT
10
54.51
20
60.9875
0
VERTEX
8
CUT
10
55.135
20
58.8
0
VERTEX
8
CUT
10
57.135
20
58.8
0
VERTEX
8
CUT
10
57.76
20
60.9875
0
SEQEND
0
POLYLINE
8
CUT
66
1
70
0
0
VERTEX
8
CUT
10
54.51
20
63.6125
0
VERTEX
8
CUT
10
55.135
20
65.8
0
VERTEX
8
CUT
10
57.135
20
65.8
0
VERTEX
8
CUT
10
57.76
20
63.6125
0
SEQEND
0
POLYLINE
8
CUT
66
1
70
0
0
VERTEX
8
CUT
10
54.51
20
53.2875
0
VERTEX
8
CUT
10
55.135
20
51.1
0
VERTEX
8
CUT
10
57.135
20
51.1
0
VERTEX
8
CUT
10
57.76
20
53.2875
0
SEQEND
0
POLYLINE
8
CUT
66
1
70
0
0
VERTEX
8
CUT
10
54.51
20
55.9125
0
VERTEX
8
CUT
10
55.135
20
58.1
0
VERTEX
8
CUT
10
57.135
20
58.1
0
VERTEX
8
CUT
10
57.76
20
55.9125
0
SEQEND
0
POLYLINE
8
CUT
66
1
70
0
0
VERTEX
8
CUT
10
54.51
20
45.5875
0
VERTEX
8
CUT
10
55.135
20
43.4
0
VERTEX
8
CUT
10
57.135
20
43.4
0
VERTEX
8
CUT
10
57.76
20
45.5875
0
SEQEND
0
POLYLINE
8
CUT
66
1
70
0
0
VERTEX
8
CUT
10
54.51
20
48.2125
0
VERTEX
8
CUT
10
55.135
20
50.4
0
VERTEX
8
CUT
10
57.135
20
50.4
0
VERTEX
8
CUT
10
57.76
20
48.2125
0
SEQEND
0
POLYLINE
8
CUT
66
1
70
0
0
VERTEX
8
CUT
10
54.51
20
37.8875
0
VERTEX
8
CUT
10
55.135
20
35.7
0
VERTEX
8
CUT
10
57.135
20
35.7
0
VERTEX
8
CUT
10
57.76
20
37.8875
0
SEQEND
0
POLYLINE
8
CUT
66
1
70
0
0
VERTEX
8
CUT
10
54.51
20
40.5125
0
VERTEX
8
CUT
10
55.135
20
42.7
0
VERTEX
8
CUT
10
57.135
20
42.7
0
VERTEX
8
CUT
10
57.76
20
40.5125
0
SEQEND
0
POLYLINE
8
CUT
66
1
70
0
0
VERTEX
8
CUT
10
54.51
20
30.1875
0
VERTEX
8
CUT
10
55.135
20
28
0
VERTEX
8
CUT
10
57.135
20
28
0
VERTEX
8
CUT
10
57.76
20
30.1875
0
SEQEND
0
POLYLINE
8
CUT
66
1
70
0
0
VERTEX
8
CUT
10
54.51
20
32.8125
0
VERTEX
8
CUT
10
55.135
20
35
0
VERTEX
8
CUT
10
57.135
20
35
0
VERTEX
8
CUT
10
57.76
20
32.8125
0
SEQEND
0
POLYLINE
8
CUT
66
1
70
0
0
VERTEX
8
CUT
10
54.51
20
22.4875
0
VERTEX
8
CUT
10
55.135
20
20.3
0
VERTEX
8
CUT
10
57.135
20
20.3
0
VERTEX
8
CUT
10
57.76
20
22.4875
0
SEQEND
0
POLYLINE
8
CUT
66
1
70
0
0
VERTEX
8
CUT
10
54.51
20
25.1125
0
VERTEX
8
CUT
10
55.135
20
27.3
0
VERTEX
8
CUT
10
57.135
20
27.3
0
VERTEX
8
CUT
10
57.76
20
25.1125
0
SEQEND
0
POLYLINE
8
CUT
66
1
70
0
0
VERTEX
8
CUT
10
54.51
20
14.7875
0
VERTEX
8
CUT
10
55.135
20
12.6
0
VERTEX
8
CUT
10
57.135
20
12.6
0
VERTEX
8
CUT
10
57.76
20
14.7875
0
SEQEND
0
POLYLINE
8
CUT
66
1
70
0
0
VERTEX
8
CUT
10
54.51
20
17.4125
0
VERTEX
8
CUT
10
55.135
20
19.6
0
VERTEX
8
CUT
10
57.135
20
19.6
0
VERTEX
8
CUT
10
57.76
20
17.4125
0
SEQEND
0
POLYLINE
8
CUT
66
1
70
0
0
VERTEX
8
CUT
10
54.51
20
7.0875
0
VERTEX
8
CUT
10
55.135
20
4.9
0
VERTEX
8
CUT
10
57.135
20
4.9
0
VERTEX
8
CUT
10
57.76
20
7.0875
0
SEQEND
0
POLYLINE
8
CUT
66
1
70
0
0
VERTEX
8
CUT
10
54.51
20
9.7125
0
VERTEX
8
CUT
10
55.135
20
11.9
0
VERTEX
8
CUT
10
57.135
20
11.9
0
VERTEX
8
CUT
10
57.76
20
9.7125
0
SEQEND
0
POLYLINE
8
CUT
66
1
70
0
0
VERTEX
8
CUT
10
54.51
20
2.0125
0
VERTEX
8
CUT
10
55.135
20
4.2
0
VERTEX
8
CUT
10
57.135
20
4.2
0
VERTEX
8
CUT
10
57.76
20
2.0125
0
SEQEND
0
POLYLINE
8
CUT
66
1
70
0
0
VERTEX
8
CUT
10
58.119
20
64.8375
0
VERTEX
8
CUT
10
58.744
20
62.65
0
VERTEX
8
CUT
10
60.744
20
62.65
0
VERTEX
8
CUT
10
61.369
20
64.8375
0
SEQEND
0
POLYLINE
8
CUT
66
1
70
0
0
VERTEX
8
CUT
10
58.119
20
67.4625
0
VERTEX
8
CUT
10
58.744
20
69.65
0
VERTEX
8
CUT
10
60.744
20
69.65
0
VERTEX
8
CUT
10
61.369
20
67.4625
0
SEQEND
0
POLYLINE
8
CUT
66
1
70
0
0
VERTEX
8
CUT
10
58.119
20
57.1375
0
VERTEX
8
CUT
10
58.744
20
54.95
0
VERTEX
8
CUT
10
60.744
20
54.95
0
VERTEX
8
CUT
10
61.369
20
57.1375
0
SEQEND
0
POLYLINE
8
CUT
66
1
70
0
0
VERTEX
8
CUT
10
58.119
20
59.7625
0
VERTEX
8
CUT
10
58.744
20
61.95
0
VERTEX
8
CUT
10
60.744
20
61.95
0
VERTEX
8
CUT
10
61.369
20
59.7625
0
SEQEND
0
POLYLINE
8
CUT
66
1
70
0
0
VERTEX
8
CUT
10
58.119
20
49.4375
0
VERTEX
8
CUT
10
58.744
20
47.25
0
VERTEX
8
CUT
10
60.744
20
47.25
0
VERTEX
8
CUT
10
61.369
20
49.4375
0
SEQEND
0
POLYLINE
8
CUT
66
1
70
0
0
VERTEX
8
CUT
10
58.119
20
52.0625
0
VERTEX
8
CUT
10
58.744
20
54.25
0
VERTEX
8
CUT
10
60.744
20
54.25
0
VERTEX
8
CUT
10
61.369
20
52.0625
0
SEQEND
0
POLYLINE
8
CUT
66
1
70
0
0
VERTEX
8
CUT
10
58.119
20
41.7375
0
VERTEX
8
CUT
10
58.744
20
39.55
0
VERTEX
8
CUT
10
60.744
20
39.55
0
VERTEX
8
CUT
10
61.369
20
41.7375
0
SEQEND
0
POLYLINE
8
CUT
66
1
70
0
0
VERTEX
8
CUT
10
58.119
20
44.3625
0
VERTEX
8
CUT
10
58.744
20
46.55
0
VERTEX
8
CUT
10
60.744
20
46.55
0
VERTEX
8
CUT
10
61.369
20
44.3625
0
SEQEND
0
POLYLINE
8
CUT
66
1
70
0
0
VERTEX
8
CUT
10
58.119
20
34.0375
0
VERTEX
8
CUT
10
58.744
20
31.85
0
VERTEX
8
CUT
10
60.744
20
31.85
0
VERTEX
8
CUT
10
61.369
20
34.0375
0
SEQEND
0
POLYLINE
8
CUT
66
1
70
0
0
VERTEX
8
CUT
10
58.119
20
36.6625
0
VERTEX
8
CUT
10
58.744
20
38.85
0
VERTEX
8
CUT
10
60.744
20
38.85
0
VERTEX
8
CUT
10
61.369
20
36.6625
0
SEQEND
0
POLYLINE
8
CUT
66
1
70
0
0
VERTEX
8
CUT
10
58.119
20
26.3375
0
VERTEX
8
CUT
10
58.744
20
24.15
0
VERTEX
8
CUT
10
60.744
20
24.15
0
VERTEX
8
CUT
10
61.369
20
26.3375
0
SEQEND
0
POLYLINE
8
CUT
66
1
70
0
0
VERTEX
8
CUT
10
58.119
20
28.9625
0
VERTEX
8
CUT
10
58.744
20
31.15
0
VERTEX
8
CUT
10
60.744
20
31.15
0
VERTEX
8
CUT
10
61.369
20
28.9625
0
SEQEND
0
POLYLINE
8
CUT
66
1
70
0
0
VERTEX
8
CUT
10
58.119
20
18.6375
0
VERTEX
8
CUT
10
58.744
20
16.45
0
VERTEX
8
CUT
10
60.744
20
16.45
0
VERTEX
8
CUT
10
61.369
20
18.6375
0
SEQEND
0
POLYLINE
8
CUT
66
1
70
0
0
VERTEX
8
CUT
10
58.119
20
21.2625
0
VERTEX
8
CUT
10
58.744
20
23.45
0
VERTEX
8
CUT
10
60.744
20
23.45
0
VERTEX
8
CUT
10
61.369
20
21.2625
0
SEQEND
0
POLYLINE
8
CUT
66
1
70
0
0
VERTEX
8
CUT
10
58.119
20
10.9375
0
VERTEX
8
CUT
10
58.744
20
8.75
0
VERTEX
8
CUT
10
60.744
20
8.75
0
VERTEX
8
CUT
10
61.369
20
10.9375
0
SEQEND
0
POLYLINE
8
CUT
66
1
70
0
0
VERTEX
8
CUT
10
58.119
20
13.5625
0
VERTEX
8
CUT
10
58.744
20
15.75
0
VERTEX
8
CUT
10
60.744
20
15.75
0
VERTEX
8
CUT
10
61.369
20
13.5625
0
SEQEND
0
POLYLINE
8
CUT
66
1
70
0
0
VERTEX
8
CUT
10
58.119
20
3.2375
0
VERTEX
8
CUT
10
58.744
20
1.05
0
VERTEX
8
CUT
10
60.744
20
1.05
0
VERTEX
8
CUT
10
61.369
20
3.2375
0
SEQEND
0
POLYLINE
8
CUT
66
1
70
0
0
VERTEX
8
CUT
10
58.119
20
5.8625
0
VERTEX
8
CUT
10
58.744
20
8.05
0
VERTEX
8
CUT
10
60.744
20
8.05
0
VERTEX
8
CUT
10
61.369
20
5.8625
0
SEQEND
0
POLYLINE
8
CUT
66
1
70
0
0
VERTEX
8
CUT
10
58.644
20
0
0
VERTEX
8
CUT
10
58.744
20
0.35
0
VERTEX
8
CUT
10
60.744
20
0.35
0
VERTEX
8
CUT
10
60.844
20
0
0
SEQEND
0
POLYLINE
8
CUT
66
1
70
0
0
VERTEX
8
CUT
10
61.728
20
68.6875
0
VERTEX
8
CUT
10
62.353
20
66.5
0
VERTEX
8
CUT
10
64.353
20
66.5
0
VERTEX
8
CUT
10
64.978
20
68.6875
0
SEQEND
0
POLYLINE
8
CUT
66
1
70
0
0
VERTEX
8
CUT
10
61.728
20
60.9875
0
VERTEX
8
CUT
10
62.353
20
58.8
0
VERTEX
8
CUT
10
64.353
20
58.8
0
VERTEX
8
CUT
10
64.978
20
60.9875
0
SEQEND
0
POLYLINE
8
CUT
66
1
70
0
0
VERTEX
8
CUT
10
61.728
20
63.6125
0
VERTEX
8
CUT
10
62.353
20
65.8
0
VERTEX
8
CUT
10
64.353
20
65.8
0
VERTEX
8
CUT
10
64.978
20
63.6125
0
SEQEND
0
POLYLINE
8
CUT
66
1
70
0
0
VERTEX
8
CUT
10
61.728
20
53.2875
0
VERTEX
8
CUT
10
62.353
20
51.1
0
VERTEX
8
CUT
10
64.353
20
51.1
0
VERTEX
8
CUT
10
64.978
20
53.2875
0
SEQEND
0
POLYLINE
8
CUT
66
1
70
0
0
VERTEX
8
CUT
10
61.728
20
55.9125
0
VERTEX
8
CUT
10
62.353
20
58.1
0
VERTEX
8
CUT
10
64.353
20
58.1
0
VERTEX
8
CUT
10
64.978
20
55.9125
0
SEQEND
0
POLYLINE
8
CUT
66
1
70
0
0
VERTEX
8
CUT
10
61.728
20
45.5875
0
VERTEX
8
CUT
10
62.353
20
43.4
0
VERTEX
8
CUT
10
64.353
20
43.4
0
VERTEX
8
CUT
10
64.978
20
45.5875
0
SEQEND
0
POLYLINE
8
CUT
66
1
70
0
0
VERTEX
8
CUT
10
61.728
20
48.2125
0
VERTEX
8
CUT
10
62.353
20
50.4
0
VERTEX
8
CUT
10
64.353
20
50.4
0
VERTEX
8
CUT
10
64.978
20
48.2125
0
SEQEND
0
POLYLINE
8
CUT
66
1
70
0
0
VERTEX
8
CUT
10
61.728
20
37.8875
0
VERTEX
8
CUT
10
62.353
20
35.7
0
VERTEX
8
CUT
10
64.353
20
35.7
0
VERTEX
8
CUT
10
64.978
20
37.8875
0
SEQEND
0
POLYLINE
8
CUT
66
1
70
0
0
VERTEX
8
CUT
10
61.728
20
40.5125
0
VERTEX
8
CUT
10
62.353
20
42.7
0
VERTEX
8
CUT
10
64.353
20
42.7
0
VERTEX
8
CUT
10
64.978
20
40.5125
0
SEQEND
0
POLYLINE
8
CUT
66
1
70
0
0
VERTEX
8
CUT
10
61.728
20
30.1875
0
VERTEX
8
CUT
10
62.353
20
28
0
VERTEX
8
CUT
10
64.353
20
28
0
VERTEX
8
CUT
10
64.978
20
30.1875
0
SEQEND
0
POLYLINE
8
CUT
66
1
70
0
0
VERTEX
8
CUT
10
61.728
20
32.8125
0
VERTEX
8
CUT
10
62.353
20
35
0
VERTEX
8
CUT
10
64.353
20
35
0
VERTEX
8
CUT
10
64.978
20
32.8125
0
SEQEND
0
POLYLINE
8
CUT
66
1
70
0
0
VERTEX
8
CUT
10
61.728
20
22.4875
0
VERTEX
8
CUT
10
62.353
20
20.3
0
VERTEX
8
CUT
10
64.353
20
20.3
0
VERTEX
8
CUT
10
64.978
20
22.4875
0
SEQEND
0
POLYLINE
8
CUT
66
1
70
0
0
VERTEX
8
CUT
10
61.728
20
25.1125
0
VERTEX
8
CUT
10
62.353
20
27.3
0
VERTEX
8
CUT
10
64.353
20
27.3
0
VERTEX
8
CUT
10
64.978
20
25.1125
0
SEQEND
0
POLYLINE
8
CUT
66
1
70
0
0
VERTEX
8
CUT
10
61.728
20
14.7875
0
VERTEX
8
CUT
10
62.353
20
12.6
0
VERTEX
8
CUT
10
64.353
20
12.6
0
VERTEX
8
CUT
10
64.978
20
14.7875
0
SEQEND
0
POLYLINE
8
CUT
66
1
70
0
0
VERTEX
8
CUT
10
61.728
20
17.4125
0
VERTEX
8
CUT
10
62.353
20
19.6
0
VERTEX
8
CUT
10
64.353
20
19.6
0
VERTEX
8
CUT
10
64.978
20
17.4125
0
SEQEND
0
POLYLINE
8
CUT
66
1
70
0
0
VERTEX
8
CUT
10
61.728
20
7.0875
0
VERTEX
8
CUT
10
62.353
20
4.9
0
VERTEX
8
CUT
10
64.353
20
4.9
0
VERTEX
8
CUT
10
64.978
20
7.0875
0
SEQEND
0
POLYLINE
8
CUT
66
1
70
0
0
VERTEX
8
CUT
10
61.728
20
9.7125
0
VERTEX
8
CUT
10
62.353
20
11.9
0
VERTEX
8
CUT
10
64.353
20
11.9
0
VERTEX
8
CUT
10
64.978
20
9.7125
0
SEQEND
0
POLYLINE
8
CUT
66
1
70
0
0
VERTEX
8
CUT
10
61.728
20
2.0125
0
VERTEX
8
CUT
10
62.353
20
4.2
0
VERTEX
8
CUT
10
64.353
20
4.2
0
VERTEX
8
CUT
10
64.978
20
2.0125
0
SEQEND
0
POLYLINE
8
CUT
66
1
70
0
0
VERTEX
8
CUT
10
65.337
20
64.8375
0
VERTEX
8
CUT
10
65.962
20
62.65
0
VERTEX
8
CUT
10
67.962
20
62.65
0
VERTEX
8
CUT
10
68.587
20
64.8375
0
SEQEND
0
POLYLINE
8
CUT
66
1
70
0
0
VERTEX
8
CUT
10
65.337
20
67.4625
0
VERTEX
8
CUT
10
65.962
20
69.65
0
VERTEX
8
CUT
10
67.962
20
69.65
0
VERTEX
8
CUT
10
68.587
20
67.4625
0
SEQEND
0
POLYLINE
8
CUT
66
1
70
0
0
VERTEX
8
CUT
10
65.337
20
57.1375
0
VERTEX
8
CUT
10
65.962
20
54.95
0
VERTEX
8
CUT
10
67.962
20
54.95
0
VERTEX
8
CUT
10
68.587
20
57.1375
0
SEQEND
0
POLYLINE
8
CUT
66
1
70
0
0
VERTEX
8
CUT
10
65.337
20
59.7625
0
VERTEX
8
CUT
10
65.962
20
61.95
0
VERTEX
8
CUT
10
67.962
20
61.95
0
VERTEX
8
CUT
10
68.587
20
59.7625
0
SEQEND
0
POLYLINE
8
CUT
66
1
70
0
0
VERTEX
8
CUT
10
65.337
20
49.4375
0
VERTEX
8
CUT
10
65.962
20
47.25
0
VERTEX
8
CUT
10
67.962
20
47.25
0
VERTEX
8
CUT
10
68.587
20
49.4375
0
SEQEND
0
POLYLINE
8
CUT
66
1
70
0
0
VERTEX
8
CUT
10
65.337
20
52.0625
0
VERTEX
8
CUT
10
65.962
20
54.25
0
VERTEX
8
CUT
10
67.962
20
54.25
0
VERTEX
8
CUT
10
68.587
20
52.0625
0
SEQEND
0
POLYLINE
8
CUT
66
1
70
0
0
VERTEX
8
CUT
10
65.337
20
41.7375
0
VERTEX
8
CUT
10
65.962
20
39.55
0
VERTEX
8
CUT
10
67.962
20
39.55
0
VERTEX
8
CUT
10
68.587
20
41.7375
0
SEQEND
0
POLYLINE
8
CUT
66
1
70
0
0
VERTEX
8
CUT
10
65.337
20
44.3625
0
VERTEX
8
CUT
10
65.962
20
46.55
0
VERTEX
8
CUT
10
67.962
20
46.55
0
VERTEX
8
CUT
10
68.587
20
44.3625
0
SEQEND
0
POLYLINE
8
CUT
66
1
70
0
0
VERTEX
8
CUT
10
65.337
20
34.0375
0
VERTEX
8
CUT
10
65.962
20
31.85
0
VERTEX
8
CUT
10
67.962
20
31.85
0
VERTEX
8
CUT
10
68.587
20
34.0375
0
SEQEND
0
POLYLINE
8
CUT
66
1
70
0
0
VERTEX
8
CUT
10
65.337
20
36.6625
0
VERTEX
8
CUT
10
65.962
20
38.85
0
VERTEX
8
CUT
10
67.962
20
38.85
0
VERTEX
8
CUT
10
68.587
20
36.6625
0
SEQEND
0
POLYLINE
8
CUT
66
1
70
0
0
VERTEX
8
CUT
10
65.337
20
26.3375
0
VERTEX
8
CUT
10
65.962
20
24.15
0
VERTEX
8
CUT
10
67.962
20
24.15
0
VERTEX
8
CUT
10
68.587
20
26.3375
0
SEQEND
0
POLYLINE
8
CUT
66
1
70
0
0
VERTEX
8
CUT
10
65.337
20
28.9625
0
VERTEX
8
CUT
10
65.962
20
31.15
0
VERTEX
8
CUT
10
67.962
20
31.15
0
VERTEX
8
CUT
10
68.587
20
28.9625
0
SEQEND
0
POLYLINE
8
CUT
66
1
70
0
0
VERTEX
8
CUT
10
65.337
20
18.6375
0
VERTEX
8
CUT
10
65.962
20
16.45
0
VERTEX
8
CUT
10
67.962
20
16.45
0
VERTEX
8
CUT
10
68.587
20
18.6375
0
SEQEND
0
POLYLINE
8
CUT
66
1
70
0
0
VERTEX
8
CUT
10
65.337
20
21.2625
0
VERTEX
8
CUT
10
65.962
20
23.45
0
VERTEX
8
CUT
10
67.962
20
23.45
0
VERTEX
8
CUT
10
68.587
20
21.2625
0
SEQEND
0
POLYLINE
8
CUT
66
1
70
0
0
VERTEX
8
CUT
10
65.337
20
10.9375
0
VERTEX
8
CUT
10
65.962
20
8.75
0
VERTEX
8
CUT
10
67.962
20
8.75
0
VERTEX
8
CUT
10
68.587
20
10.9375
0
SEQEND
0
POLYLINE
8
CUT
66
1
70
0
0
VERTEX
8
CUT
10
65.337
20
13.5625
0
VERTEX
8
CUT
10
65.962
20
15.75
0
VERTEX
8
CUT
10
67.962
20
15.75
0
VERTEX
8
CUT
10
68.587
20
13.5625
0
SEQEND
0
POLYLINE
8
CUT
66
1
70
0
0
VERTEX
8
CUT
10
65.337
20
3.2375
0
VERTEX
8
CUT
10
65.962
20
1.05
0
VERTEX
8
CUT
10
67.962
20
1.05
0
VERTEX
8
CUT
10
68.587
20
3.2375
0
SEQEND
0
POLYLINE
8
CUT
66
1
70
0
0
VERTEX
8
CUT
10
65.337
20
5.8625
0
VERTEX
8
CUT
10
65.962
20
8.05
0
VERTEX
8
CUT
10
67.962
20
8.05
0
VERTEX
8
CUT
10
68.587
20
5.8625
0
SEQEND
0
POLYLINE
8
CUT
66
1
70
0
0
VERTEX
8
CUT
10
65.862
20
0
0
VERTEX
8
CUT
10
65.962
20
0.35
0
VERTEX
8
CUT
10
67.962
20
0.35
0
VERTEX
8
CUT
10
68.062
20
0
0
SEQEND
0
POLYLINE
8
CUT
66
1
70
0
0
VERTEX
8
CUT
10
68.946
20
68.6875
0
VERTEX
8
CUT
10
69.571
20
66.5
0
VERTEX
8
CUT
10
71.571
20
66.5
0
VERTEX
8
CUT
10
72.196
20
68.6875
0
SEQEND
0
POLYLINE
8
CUT
66
1
70
0
0
VERTEX
8
CUT
10
68.946
20
60.9875
0
VERTEX
8
CUT
10
69.571
20
58.8
0
VERTEX
8
CUT
10
71.571
20
58.8
0
VERTEX
8
CUT
10
72.196
20
60.9875
0
SEQEND
0
POLYLINE
8
CUT
66
1
70
0
0
VERTEX
8
CUT
10
68.946
20
63.6125
0
VERTEX
8
CUT
10
69.571
20
65.8
0
VERTEX
8
CUT
10
71.571
20
65.8
0
VERTEX
8
CUT
10
72.196
20
63.6125
0
SEQEND
0
POLYLINE
8
CUT
66
1
70
0
0
VERTEX
8
CUT
10
68.946
20
53.2875
0
VERTEX
8
CUT
10
69.571
20
51.1
0
VERTEX
8
CUT
10
71.571
20
51.1
0
VERTEX
8
CUT
10
72.196
20
53.2875
0
SEQEND
0
POLYLINE
8
CUT
66
1
70
0
0
VERTEX
8
CUT
10
68.946
20
55.9125
0
VERTEX
8
CUT
10
69.571
20
58.1
0
VERTEX
8
CUT
10
71.571
20
58.1
0
VERTEX
8
CUT
10
72.196
20
55.9125
0
SEQEND
0
POLYLINE
8
CUT
66
1
70
0
0
VERTEX
8
CUT
10
68.946
20
45.5875
0
VERTEX
8
CUT
10
69.571
20
43.4
0
VERTEX
8
CUT
10
71.571
20
43.4
0
VERTEX
8
CUT
10
72.196
20
45.5875
0
SEQEND
0
POLYLINE
8
CUT
66
1
70
0
0
VERTEX
8
CUT
10
68.946
20
48.2125
0
VERTEX
8
CUT
10
69.571
20
50.4
0
VERTEX
8
CUT
10
71.571
20
50.4
0
VERTEX
8
CUT
10
72.196
20
48.2125
0
SEQEND
0
POLYLINE
8
CUT
66
1
70
0
0
VERTEX
8
CUT
10
68.946
20
37.8875
0
VERTEX
8
CUT
10
69.571
20
35.7
0
VERTEX
8
CUT
10
71.571
20
35.7
0
VERTEX
8
CUT
10
72.196
20
37.8875
0
SEQEND
0
POLYLINE
8
CUT
66
1
70
0
0
VERTEX
8
CUT
10
68.946
20
40.5125
0
VERTEX
8
CUT
10
69.571
20
42.7
0
VERTEX
8
CUT
10
71.571
20
42.7
0
VERTEX
8
CUT
10
72.196
20
40.5125
0
SEQEND
0
POLYLINE
8
CUT
66
1
70
0
0
VERTEX
8
CUT
10
68.946
20
30.1875
0
VERTEX
8
CUT
10
69.571
20
28
0
VERTEX
8
CUT
10
71.571
20
28
0
VERTEX
8
CUT
10
72.196
20
30.1875
0
SEQEND
0
POLYLINE
8
CUT
66
1
70
0
0
VERTEX
8
CUT
10
68.946
20
32.8125
0
VERTEX
8
CUT
10
69.571
20
35
0
VERTEX
8
CUT
10
71.571
20
35
0
VERTEX
8
CUT
10
72.196
20
32.8125
0
SEQEND
0
POLYLINE
8
CUT
66
1
70
0
0
VERTEX
8
CUT
10
68.946
20
22.4875
0
VERTEX
8
CUT
10
69.571
20
20.3
0
VERTEX
8
CUT
10
71.571
20
20.3
0
VERTEX
8
CUT
10
72.196
20
22.4875
0
SEQEND
0
POLYLINE
8
CUT
66
1
70
0
0
VERTEX
8
CUT
10
68.946
20
25.1125
0
VERTEX
8
CUT
10
69.571
20
27.3
0
VERTEX
8
CUT
10
71.571
20
27.3
0
VERTEX
8
CUT
10
72.196
20
25.1125
0
SEQEND
0
POLYLINE
8
CUT
66
1
70
0
0
VERTEX
8
CUT
10
68.946
20
14.7875
0
VERTEX
8
CUT
10
69.571
20
12.6
0
VERTEX
8
CUT
10
71.571
20
12.6
0
VERTEX
8
CUT
10
72.196
20
14.7875
0
SEQEND
0
POLYLINE
8
CUT
66
1
70
0
0
VERTEX
8
CUT
10
68.946
20
17.4125
0
VERTEX
8
CUT
10
69.571
20
19.6
0
VERTEX
8
CUT
10
71.571
20
19.6
0
VERTEX
8
CUT
10
72.196
20
17.4125
0
SEQEND
0
POLYLINE
8
CUT
66
1
70
0
0
VERTEX
8
CUT
10
68.946
20
7.0875
0
VERTEX
8
CUT
10
69.571
20
4.9
0
VERTEX
8
CUT
10
71.571
20
4.9
0
VERTEX
8
CUT
10
72.196
20
7.0875
0
SEQEND
0
POLYLINE
8
CUT
66
1
70
0
0
VERTEX
8
CUT
10
68.946
20
9.7125
0
VERTEX
8
CUT
10
69.571
20
11.9
0
VERTEX
8
CUT
10
71.571
20
11.9
0
VERTEX
8
CUT
10
72.196
20
9.7125
0
SEQEND
0
POLYLINE
8
CUT
66
1
70
0
0
VERTEX
8
CUT
10
68.946
20
2.0125
0
VERTEX
8
CUT
10
69.571
20
4.2
0
VERTEX
8
CUT
10
71.571
20
4.2
0
VERTEX
8
CUT
10
72.196
20
2.0125
0
SEQEND
0
POLYLINE
8
CUT
66
1
70
0
0
VERTEX
8
CUT
10
72.555
20
64.8375
0
VERTEX
8
CUT
10
73.18
20
62.65
0
VERTEX
8
CUT
10
75.18
20
62.65
0
VERTEX
8
CUT
10
75.805
20
64.8375
0
SEQEND
0
POLYLINE
8
CUT
66
1
70
0
0
VERTEX
8
CUT
10
72.555
20
67.4625
0
VERTEX
8
CUT
10
73.18
20
69.65
0
VERTEX
8
CUT
10
75.18
20
69.65
0
VERTEX
8
CUT
10
75.805
20
67.4625
0
SEQEND
0
POLYLINE
8
CUT
66
1
70
0
0
VERTEX
8
CUT
10
72.555
20
57.1375
0
VERTEX
8
CUT
10
73.18
20
54.95
0
VERTEX
8
CUT
10
75.18
20
54.95
0
VERTEX
8
CUT
10
75.805
20
57.1375
0
SEQEND
0
POLYLINE
8
CUT
66
1
70
0
0
VERTEX
8
CUT
10
72.555
20
59.7625
0
VERTEX
8
CUT
10
73.18
20
61.95
0
VERTEX
8
CUT
10
75.18
20
61.95
0
VERTEX
8
CUT
10
75.805
20
59.7625
0
SEQEND
0
POLYLINE
8
CUT
66
1
70
0
0
VERTEX
8
CUT
10
72.555
20
49.4375
0
VERTEX
8
CUT
10
73.18
20
47.25
0
VERTEX
8
CUT
10
75.18
20
47.25
0
VERTEX
8
CUT
10
75.805
20
49.4375
0
SEQEND
0
POLYLINE
8
CUT
66
1
70
0
0
VERTEX
8
CUT
10
72.555
20
52.0625
0
VERTEX
8
CUT
10
73.18
20
54.25
0
VERTEX
8
CUT
10
75.18
20
54.25
0
VERTEX
8
CUT
10
75.805
20
52.0625
0
SEQEND
0
POLYLINE
8
CUT
66
1
70
0
0
VERTEX
8
CUT
10
72.555
20
41.7375
0
VERTEX
8
CUT
10
73.18
20
39.55
0
VERTEX
8
CUT
10
75.18
20
39.55
0
VERTEX
8
CUT
10
75.805
20
41.7375
0
SEQEND
0
POLYLINE
8
CUT
66
1
70
0
0
VERTEX
8
CUT
10
72.555
20
44.3625
0
VERTEX
8
CUT
10
73.18
20
46.55
0
VERTEX
8
CUT
10
75.18
20
46.55
0
VERTEX
8
CUT
10
75.805
20
44.3625
0
SEQEND
0
POLYLINE
8
CUT
66
1
70
0
0
VERTEX
8
CUT
10
72.555
20
34.0375
0
VERTEX
8
CUT
10
73.18
20
31.85
0
VERTEX
8
CUT
10
75.18
20
31.85
0
VERTEX
8
CUT
10
75.805
20
34.0375
0
SEQEND
0
POLYLINE
8
CUT
66
1
70
0
0
VERTEX
8
CUT
10
72.555
20
36.6625
0
VERTEX
8
CUT
10
73.18
20
38.85
0
VERTEX
8
CUT
10
75.18
20
38.85
0
VERTEX
8
CUT
10
75.805
20
36.6625
0
SEQEND
0
POLYLINE
8
CUT
66
1
70
0
0
VERTEX
8
CUT
10
72.555
20
26.3375
0
VERTEX
8
CUT
10
73.18
20
24.15
0
VERTEX
8
CUT
10
75.18
20
24.15
0
VERTEX
8
CUT
10
75.805
20
26.3375
0
SEQEND
0
POLYLINE
8
CUT
66
1
70
0
0
VERTEX
8
CUT
10
72.555
20
28.9625
0
VERTEX
8
CUT
10
73.18
20
31.15
0
VERTEX
8
CUT
10
75.18
20
31.15
0
VERTEX
8
CUT
10
75.805
20
28.9625
0
SEQEND
0
POLYLINE
8
CUT
66
1
70
0
0
VERTEX
8
CUT
10
72.555
20
18.6375
0
VERTEX
8
CUT
10
73.18
20
16.45
0
VERTEX
8
CUT
10
75.18
20
16.45
0
VERTEX
8
CUT
10
75.805
20
18.6375
0
SEQEND
0
POLYLINE
8
CUT
66
1
70
0
0
VERTEX
8
CUT
10
72.555
20
21.2625
0
VERTEX
8
CUT
10
73.18
20
23.45
0
VERTEX
8
CUT
10
75.18
20
23.45
0
VERTEX
8
CUT
10
75.805
20
21.2625
0
SEQEND
0
POLYLINE
8
CUT
66
1
70
0
0
VERTEX
8
CUT
10
72.555
20
10.9375
0
VERTEX
8
CUT
10
73.18
20
8.75
0
VERTEX
8
CUT
10
75.18
20
8.75
0
VERTEX
8
CUT
10
75.805
20
10.9375
0
SEQEND
0
POLYLINE
8
CUT
66
1
70
0
0
VERTEX
8
CUT
10
72.555
20
13.5625
0
VERTEX
8
CUT
10
73.18
20
15.75
0
VERTEX
8
CUT
10
75.18
20
15.75
0
VERTEX
8
CUT
10
75.805
20
13.5625
0
SEQEND
0
POLYLINE
8
CUT
66
1
70
0
0
VERTEX
8
CUT
10
72.555
20
3.2375
0
VERTEX
8
CUT
10
73.18
20
1.05
0
VERTEX
8
CUT
10
75.18
20
1.05
0
VERTEX
8
CUT
10
75.805
20
3.2375
0
SEQEND
0
POLYLINE
8
CUT
66
1
70
0
0
VERTEX
8
CUT
10
72.555
20
5.8625
0
VERTEX
8
CUT
10
73.18
20
8.05
0
VERTEX
8
CUT
10
75.18
20
8.05
0
VERTEX
8
CUT
10
75.805
20
5.8625
0
SEQEND
0
POLYLINE
8
CUT
66
1
70
0
0
VERTEX
8
CUT
10
73.08
20
0
0
VERTEX
8
CUT
10
73.18
20
0.35
0
VERTEX
8
CUT
10
75.18
20
0.35
0
VERTEX
8
CUT
10
75.28
20
0
0
SEQEND
0
POLYLINE
8
CUT
66
1
70
0
0
VERTEX
8
CUT
10
76.164
20
68.6875
0
VERTEX
8
CUT
10
76.789
20
66.5
0
VERTEX
8
CUT
10
78.789
20
66.5
0
VERTEX
8
CUT
10
79.414
20
68.6875
0
SEQEND
0
POLYLINE
8
CUT
66
1
70
0
0
VERTEX
8
CUT
10
76.164
20
60.9875
0
VERTEX
8
CUT
10
76.789
20
58.8
0
VERTEX
8
CUT
10
78.789
20
58.8
0
VERTEX
8
CUT
10
79.414
20
60.9875
0
SEQEND
0
POLYLINE
8
CUT
66
1
70
0
0
VERTEX
8
CUT
10
76.164
20
63.6125
0
VERTEX
8
CUT
10
76.789
20
65.8
0
VERTEX
8
CUT
10
78.789
20
65.8
0
VERTEX
8
CUT
10
79.414
20
63.6125
0
SEQEND
0
POLYLINE
8
CUT
66
1
70
0
0
VERTEX
8
CUT
10
76.164
20
53.2875
0
VERTEX
8
CUT
10
76.789
20
51.1
0
VERTEX
8
CUT
10
78.789
20
51.1
0
VERTEX
8
CUT
10
79.414
20
53.2875
0
SEQEND
0
POLYLINE
8
CUT
66
1
70
0
0
VERTEX
8
CUT
10
76.164
20
55.9125
0
VERTEX
8
CUT
10
76.789
20
58.1
0
VERTEX
8
CUT
10
78.789
20
58.1
0
VERTEX
8
CUT
10
79.414
20
55.9125
0
SEQEND
0
POLYLINE
8
CUT
66
1
70
0
0
VERTEX
8
CUT
10
76.164
20
45.5875
0
VERTEX
8
CUT
10
76.789
20
43.4
0
VERTEX
8
CUT
10
78.789
20
43.4
0
VERTEX
8
CUT
10
79.414
20
45.5875
0
SEQEND
0
POLYLINE
8
CUT
66
1
70
0
0
VERTEX
8
CUT
10
76.164
20
48.2125
0
VERTEX
8
CUT
10
76.789
20
50.4
0
VERTEX
8
CUT
10
78.789
20
50.4
0
VERTEX
8
CUT
10
79.414
20
48.2125
0
SEQEND
0
POLYLINE
8
CUT
66
1
70
0
0
VERTEX
8
CUT
10
76.164
20
37.8875
0
VERTEX
8
CUT
10
76.789
20
35.7
0
VERTEX
8
CUT
10
78.789
20
35.7
0
VERTEX
8
CUT
10
79.414
20
37.8875
0
SEQEND
0
POLYLINE
8
CUT
66
1
70
0
0
VERTEX
8
CUT
10
76.164
20
40.5125
0
VERTEX
8
CUT
10
76.789
20
42.7
0
VERTEX
8
CUT
10
78.789
20
42.7
0
VERTEX
8
CUT
10
79.414
20
40.5125
0
SEQEND
0
POLYLINE
8
CUT
66
1
70
0
0
VERTEX
8
CUT
10
76.164
20
30.1875
0
VERTEX
8
CUT
10
76.789
20
28
0
VERTEX
8
CUT
10
78.789
20
28
0
VERTEX
8
CUT
10
79.414
20
30.1875
0
SEQEND
0
POLYLINE
8
CUT
66
1
70
0
0
VERTEX
8
CUT
10
76.164
20
32.8125
0
VERTEX
8
CUT
10
76.789
20
35
0
VERTEX
8
CUT
10
78.789
20
35
0
VERTEX
8
CUT
10
79.414
20
32.8125
0
SEQEND
0
POLYLINE
8
CUT
66
1
70
0
0
VERTEX
8
CUT
10
76.164
20
22.4875
0
VERTEX
8
CUT
10
76.789
20
20.3
0
VERTEX
8
CUT
10
78.789
20
20.3
0
VERTEX
8
CUT
10
79.414
20
22.4875
0
SEQEND
0
POLYLINE
8
CUT
66
1
70
0
0
VERTEX
8
CUT
10
76.164
20
25.1125
0
VERTEX
8
CUT
10
76.789
20
27.3
0
VERTEX
8
CUT
10
78.789
20
27.3
0
VERTEX
8
CUT
10
79.414
20
25.1125
0
SEQEND
0
POLYLINE
8
CUT
66
1
70
0
0
VERTEX
8
CUT
10
76.164
20
14.7875
0
VERTEX
8
CUT
10
76.789
20
12.6
0
VERTEX
8
CUT
10
78.789
20
12.6
0
VERTEX
8
CUT
10
79.414
20
14.7875
0
SEQEND
0
POLYLINE
8
CUT
66
1
70
0
0
VERTEX
8
CUT
10
76.164
20
17.4125
0
VERTEX
8
CUT
10
76.789
20
19.6
0
VERTEX
8
CUT
10
78.789
20
19.6
0
VERTEX
8
CUT
10
79.414
20
17.4125
0
SEQEND
0
POLYLINE
8
CUT
66
1
70
0
0
VERTEX
8
CUT
10
76.164
20
7.0875
0
VERTEX
8
CUT
10
76.789
20
4.9
0
VERTEX
8
CUT
10
78.789
20
4.9
0
VERTEX
8
CUT
10
79.414
20
7.0875
0
SEQEND
0
POLYLINE
8
CUT
66
1
70
0
0
VERTEX
8
CUT
10
76.164
20
9.7125
0
VERTEX
8
CUT
10
76.789
20
11.9
0
VERTEX
8
CUT
10
78.789
20
11.9
0
VERTEX
8
CUT
10
79.414
20
9.7125
0
SEQEND
0
POLYLINE
8
CUT
66
1
70
0
0
VERTEX
8
CUT
10
76.164
20
2.0125
0
VERTEX
8
CUT
10
76.789
20
4.2
0
VERTEX
8
CUT
10
78.789
20
4.2
0
VERTEX
8
CUT
10
79.414
20
2.0125
0
SEQEND
0
POLYLINE
8
CUT
66
1
70
0
0
VERTEX
8
CUT
10
79.773
20
64.8375
0
VERTEX
8
CUT
10
80.398
20
62.65
0
VERTEX
8
CUT
10
82.398
20
62.65
0
VERTEX
8
CUT
10
83.023
20
64.8375
0
SEQEND
0
POLYLINE
8
CUT
66
1
70
0
0
VERTEX
8
CUT
10
79.773
20
67.4625
0
VERTEX
8
CUT
10
80.398
20
69.65
0
VERTEX
8
CUT
10
82.398
20
69.65
0
VERTEX
8
CUT
10
83.023
20
67.4625
0
SEQEND
0
POLYLINE
8
CUT
66
1
70
0
0
VERTEX
8
CUT
10
79.773
20
57.1375
0
VERTEX
8
CUT
10
80.398
20
54.95
0
VERTEX
8
CUT
10
82.398
20
54.95
0
VERTEX
8
CUT
10
83.023
20
57.1375
0
SEQEND
0
POLYLINE
8
CUT
66
1
70
0
0
VERTEX
8
CUT
10
79.773
20
59.7625
0
VERTEX
8
CUT
10
80.398
20
61.95
0
VERTEX
8
CUT
10
82.398
20
61.95
0
VERTEX
8
CUT
10
83.023
20
59.7625
0
SEQEND
0
POLYLINE
8
CUT
66
1
70
0
0
VERTEX
8
CUT
10
79.773
20
49.4375
0
VERTEX
8
CUT
10
80.398
20
47.25
0
VERTEX
8
CUT
10
82.398
20
47.25
0
VERTEX
8
CUT
10
83.023
20
49.4375
0
SEQEND
0
POLYLINE
8
CUT
66
1
70
0
0
VERTEX
8
CUT
10
79.773
20
52.0625
0
VERTEX
8
CUT
10
80.398
20
54.25
0
VERTEX
8
CUT
10
82.398
20
54.25
0
VERTEX
8
CUT
10
83.023
20
52.0625
0
SEQEND
0
POLYLINE
8
CUT
66
1
70
0
0
VERTEX
8
CUT
10
79.773
20
41.7375
0
VERTEX
8
CUT
10
80.398
20
39.55
0
VERTEX
8
CUT
10
82.398
20
39.55
0
VERTEX
8
CUT
10
83.023
20
41.7375
0
SEQEND
0
POLYLINE
8
CUT
66
1
70
0
0
VERTEX
8
CUT
10
79.773
20
44.3625
0
VERTEX
8
CUT
10
80.398
20
46.55
0
VERTEX
8
CUT
10
82.398
20
46.55
0
VERTEX
8
CUT
10
83.023
20
44.3625
0
SEQEND
0
POLYLINE
8
CUT
66
1
70
0
0
VERTEX
8
CUT
10
79.773
20
34.0375
0
VERTEX
8
CUT
10
80.398
20
31.85
0
VERTEX
8
CUT
10
82.398
20
31.85
0
VERTEX
8
CUT
10
83.023
20
34.0375
0
SEQEND
0
POLYLINE
8
CUT
66
1
70
0
0
VERTEX
8
CUT
10
79.773
20
36.6625
0
VERTEX
8
CUT
10
80.398
20
38.85
0
VERTEX
8
CUT
10
82.398
20
38.85
0
VERTEX
8
CUT
10
83.023
20
36.6625
0
SEQEND
0
POLYLINE
8
CUT
66
1
70
0
0
VERTEX
8
CUT
10
79.773
20
26.3375
0
VERTEX
8
CUT
10
80.398
20
24.15
0
VERTEX
8
CUT
10
82.398
20
24.15
0
VERTEX
8
CUT
10
83.023
20
26.3375
0
SEQEND
0
POLYLINE
8
CUT
66
1
70
0
0
VERTEX
8
CUT
10
79.773
20
28.9625
0
VERTEX
8
CUT
10
80.398
20
31.15
0
VERTEX
8
CUT
10
82.398
20
31.15
0
VERTEX
8
CUT
10
83.023
20
28.9625
0
SEQEND
0
POLYLINE
8
CUT
66
1
70
0
0
VERTEX
8
CUT
10
79.773
20
18.6375
0
VERTEX
8
CUT
10
80.398
20
16.45
0
VERTEX
8
CUT
10
82.398
20
16.45
0
VERTEX
8
CUT
10
83.023
20
18.6375
0
SEQEND
0
POLYLINE
8
CUT
66
1
70
0
0
VERTEX
8
CUT
10
79.773
20
21.2625
0
VERTEX
8
CUT
10
80.398
20
23.45
0
VERTEX
8
CUT
10
82.398
20
23.45
0
VERTEX
8
CUT
10
83.023
20
21.2625
0
SEQEND
0
POLYLINE
8
CUT
66
1
70
0
0
VERTEX
8
CUT
10
79.773
20
10.9375
0
VERTEX
8
CUT
10
80.398
20
8.75
0
VERTEX
8
CUT
10
82.398
20
8.75
0
VERTEX
8
CUT
10
83.023
20
10.9375
0
SEQEND
0
POLYLINE
8
CUT
66
1
70
0
0
VERTEX
8
CUT
10
79.773
20
13.5625
0
VERTEX
8
CUT
10
80.398
20
15.75
0
VERTEX
8
CUT
10
82.398
20
15.75
0
VERTEX
8
CUT
10
83.023
20
13.5625
0
SEQEND
0
POLYLINE
8
CUT
66
1
70
0
0
VERTEX
8
CUT
10
79.773
20
3.2375
0
VERTEX
8
CUT
10
80.398
20
1.05
0
VERTEX
8
CUT
10
82.398
20
1.05
0
VERTEX
8
CUT
10
83.023
20
3.2375
0
SEQEND
0
POLYLINE
8
CUT
66
1
70
0
0
VERTEX
8
CUT
10
79.773
20
5.8625
0
VERTEX
8
CUT
10
80.398
20
8.05
0
VERTEX
8
CUT
10
82.398
20
8.05
0
VERTEX
8
CUT
10
83.023
20
5.8625
0
SEQEND
0
POLYLINE
8
CUT
66
1
70
0
0
VERTEX
8
CUT
10
80.298
20
0
0
VERTEX
8
CUT
10
80.398
20
0.35
0
VERTEX
8
CUT
10
82.398
20
0.35
0
VERTEX
8
CUT
10
82.498
20
0
0
SEQEND
0
POLYLINE
8
CUT
66
1
70
0
0
VERTEX
8
CUT
10
83.382
20
68.6875
0
VERTEX
8
CUT
10
84.007
20
66.5
0
VERTEX
8
CUT
10
86.007
20
66.5
0
VERTEX
8
CUT
10
86.632
20
68.6875
0
SEQEND
0
POLYLINE
8
CUT
66
1
70
0
0
VERTEX
8
CUT
10
83.382
20
60.9875
0
VERTEX
8
CUT
10
84.007
20
58.8
0
VERTEX
8
CUT
10
86.007
20
58.8
0
VERTEX
8
CUT
10
86.632
20
60.9875
0
SEQEND
0
POLYLINE
8
CUT
66
1
70
0
0
VERTEX
8
CUT
10
83.382
20
63.6125
0
VERTEX
8
CUT
10
84.007
20
65.8
0
VERTEX
8
CUT
10
86.007
20
65.8
0
VERTEX
8
CUT
10
86.632
20
63.6125
0
SEQEND
0
POLYLINE
8
CUT
66
1
70
0
0
VERTEX
8
CUT
10
83.382
20
53.2875
0
VERTEX
8
CUT
10
84.007
20
51.1
0
VERTEX
8
CUT
10
86.007
20
51.1
0
VERTEX
8
CUT
10
86.632
20
53.2875
0
SEQEND
0
POLYLINE
8
CUT
66
1
70
0
0
VERTEX
8
CUT
10
83.382
20
55.9125
0
VERTEX
8
CUT
10
84.007
20
58.1
0
VERTEX
8
CUT
10
86.007
20
58.1
0
VERTEX
8
CUT
10
86.632
20
55.9125
0
SEQEND
0
POLYLINE
8
CUT
66
1
70
0
0
VERTEX
8
CUT
10
83.382
20
45.5875
0
VERTEX
8
CUT
10
84.007
20
43.4
0
VERTEX
8
CUT
10
86.007
20
43.4
0
VERTEX
8
CUT
10
86.632
20
45.5875
0
SEQEND
0
POLYLINE
8
CUT
66
1
70
0
0
VERTEX
8
CUT
10
83.382
20
48.2125
0
VERTEX
8
CUT
10
84.007
20
50.4
0
VERTEX
8
CUT
10
86.007
20
50.4
0
VERTEX
8
CUT
10
86.632
20
48.2125
0
SEQEND
0
POLYLINE
8
CUT
66
1
70
0
0
VERTEX
8
CUT
10
83.382
20
37.8875
0
VERTEX
8
CUT
10
84.007
20
35.7
0
VERTEX
8
CUT
10
86.007
20
35.7
0
VERTEX
8
CUT
10
86.632
20
37.8875
0
SEQEND
0
POLYLINE
8
CUT
66
1
70
0
0
VERTEX
8
CUT
10
83.382
20
40.5125
0
VERTEX
8
CUT
10
84.007
20
42.7
0
VERTEX
8
CUT
10
86.007
20
42.7
0
VERTEX
8
CUT
10
86.632
20
40.5125
0
SEQEND
0
POLYLINE
8
CUT
66
1
70
0
0
VERTEX
8
CUT
10
83.382
20
30.1875
0
VERTEX
8
CUT
10
84.007
20
28
0
VERTEX
8
CUT
10
86.007
20
28
0
VERTEX
8
CUT
10
86.632
20
30.1875
0
SEQEND
0
POLYLINE
8
CUT
66
1
70
0
0
VERTEX
8
CUT
10
83.382
20
32.8125
0
VERTEX
8
CUT
10
84.007
20
35
0
VERTEX
8
CUT
10
86.007
20
35
0
VERTEX
8
CUT
10
86.632
20
32.8125
0
SEQEND
0
POLYLINE
8
CUT
66
1
70
0
0
VERTEX
8
CUT
10
83.382
20
22.4875
0
VERTEX
8
CUT
10
84.007
20
20.3
0
VERTEX
8
CUT
10
86.007
20
20.3
0
VERTEX
8
CUT
10
86.632
20
22.4875
0
SEQEND
0
POLYLINE
8
CUT
66
1
70
0
0
VERTEX
8
CUT
10
83.382
20
25.1125
0
VERTEX
8
CUT
10
84.007
20
27.3
0
VERTEX
8
CUT
10
86.007
20
27.3
0
VERTEX
8
CUT
10
86.632
20
25.1125
0
SEQEND
0
POLYLINE
8
CUT
66
1
70
0
0
VERTEX
8
CUT
10
83.382
20
14.7875
0
VERTEX
8
CUT
10
84.007
20
12.6
0
VERTEX
8
CUT
10
86.007
20
12.6
0
VERTEX
8
CUT
10
86.632
20
14.7875
0
SEQEND
0
POLYLINE
8
CUT
66
1
70
0
0
VERTEX
8
CUT
10
83.382
20
17.4125
0
VERTEX
8
CUT
10
84.007
20
19.6
0
VERTEX
8
CUT
10
86.007
20
19.6
0
VERTEX
8
CUT
10
86.632
20
17.4125
0
SEQEND
0
POLYLINE
8
CUT
66
1
70
0
0
VERTEX
8
CUT
10
83.382
20
7.0875
0
VERTEX
8
CUT
10
84.007
20
4.9
0
VERTEX
8
CUT
10
86.007
20
4.9
0
VERTEX
8
CUT
10
86.632
20
7.0875
0
SEQEND
0
POLYLINE
8
CUT
66
1
70
0
0
VERTEX
8
CUT
10
83.382
20
9.7125
0
VERTEX
8
CUT
10
84.007
20
11.9
0
VERTEX
8
CUT
10
86.007
20
11.9
0
VERTEX
8
CUT
10
86.632
20
9.7125
0
SEQEND
0
POLYLINE
8
CUT
66
1
70
0
0
VERTEX
8
CUT
10
83.382
20
2.0125
0
VERTEX
8
CUT
10
84.007
20
4.2
0
VERTEX
8
CUT
10
86.007
20
4.2
0
VERTEX
8
CUT
10
86.632
20
2.0125
0
SEQEND
0
POLYLINE
8
CUT
66
1
70
0
0
VERTEX
8
CUT
10
86.991
20
64.8375
0
VERTEX
8
CUT
10
87.616
20
62.65
0
VERTEX
8
CUT
10
89.616
20
62.65
0
VERTEX
8
CUT
10
90.241
20
64.8375
0
SEQEND
0
POLYLINE
8
CUT
66
1
70
0
0
VERTEX
8
CUT
10
86.991
20
67.4625
0
VERTEX
8
CUT
10
87.616
20
69.65
0
VERTEX
8
CUT
10
89.616
20
69.65
0
VERTEX
8
CUT
10
90.241
20
67.4625
0
SEQEND
0
POLYLINE
8
CUT
66
1
70
0
0
VERTEX
8
CUT
10
86.991
20
57.1375
0
VERTEX
8
CUT
10
87.616
20
54.95
0
VERTEX
8
CUT
10
89.616
20
54.95
0
VERTEX
8
CUT
10
90.241
20
57.1375
0
SEQEND
0
POLYLINE
8
CUT
66
1
70
0
0
VERTEX
8
CUT
10
86.991
20
59.7625
0
VERTEX
8
CUT
10
87.616
20
61.95
0
VERTEX
8
CUT
10
89.616
20
61.95
0
VERTEX
8
CUT
10
90.241
20
59.7625
0
SEQEND
0
POLYLINE
8
CUT
66
1
70
0
0
VERTEX
8
CUT
10
86.991
20
49.4375
0
VERTEX
8
CUT
10
87.616
20
47.25
0
VERTEX
8
CUT
10
89.616
20
47.25
0
VERTEX
8
CUT
10
90.241
20
49.4375
0
SEQEND
0
POLYLINE
8
CUT
66
1
70
0
0
VERTEX
8
CUT
10
86.991
20
52.0625
0
VERTEX
8
CUT
10
87.616
20
54.25
0
VERTEX
8
CUT
10
89.616
20
54.25
0
VERTEX
8
CUT
10
90.241
20
52.0625
0
SEQEND
0
POLYLINE
8
CUT
66
1
70
0
0
VERTEX
8
CUT
10
86.991
20
41.7375
0
VERTEX
8
CUT
10
87.616
20
39.55
0
VERTEX
8
CUT
10
89.616
20
39.55
0
VERTEX
8
CUT
10
90.241
20
41.7375
0
SEQEND
0
POLYLINE
8
CUT
66
1
70
0
0
VERTEX
8
CUT
10
86.991
20
44.3625
0
VERTEX
8
CUT
10
87.616
20
46.55
0
VERTEX
8
CUT
10
89.616
20
46.55
0
VERTEX
8
CUT
10
90.241
20
44.3625
0
SEQEND
0
POLYLINE
8
CUT
66
1
70
0
0
VERTEX
8
CUT
10
86.991
20
34.0375
0
VERTEX
8
CUT
10
87.616
20
31.85
0
VERTEX
8
CUT
10
89.616
20
31.85
0
VERTEX
8
CUT
10
90.241
20
34.0375
0
SEQEND
0
POLYLINE
8
CUT
66
1
70
0
0
VERTEX
8
CUT
10
86.991
20
36.6625
0
VERTEX
8
CUT
10
87.616
20
38.85
0
VERTEX
8
CUT
10
89.616
20
38.85
0
VERTEX
8
CUT
10
90.241
20
36.6625
0
SEQEND
0
POLYLINE
8
CUT
66
1
70
0
0
VERTEX
8
CUT
10
86.991
20
26.3375
0
VERTEX
8
CUT
10
87.616
20
24.15
0
VERTEX
8
CUT
10
89.616
20
24.15
0
VERTEX
8
CUT
10
90.241
20
26.3375
0
SEQEND
0
POLYLINE
8
CUT
66
1
70
0
0
VERTEX
8
CUT
10
86.991
20
28.9625
0
VERTEX
8
CUT
10
87.616
20
31.15
0
VERTEX
8
CUT
10
89.616
20
31.15
0
VERTEX
8
CUT
10
90.241
20
28.9625
0
SEQEND
0
POLYLINE
8
CUT
66
1
70
0
0
VERTEX
8
CUT
10
86.991
20
18.6375
0
VERTEX
8
CUT
10
87.616
20
16.45
0
VERTEX
8
CUT
10
89.616
20
16.45
0
VERTEX
8
CUT
10
90.241
20
18.6375
0
SEQEND
0
POLYLINE
8
CUT
66
1
70
0
0
VERTEX
8
CUT
10
86.991
20
21.2625
0
VERTEX
8
CUT
10
87.616
20
23.45
0
VERTEX
8
CUT
10
89.616
20
23.45
0
VERTEX
8
CUT
10
90.241
20
21.2625
0
SEQEND
0
POLYLINE
8
CUT
66
1
70
0
0
VERTEX
8
CUT
10
86.991
20
10.9375
0
VERTEX
8
CUT
10
87.616
20
8.75
0
VERTEX
8
CUT
10
89.616
20
8.75
0
VERTEX
8
CUT
10
90.241
20
10.9375
0
SEQEND
0
POLYLINE
8
CUT
66
1
70
0
0
VERTEX
8
CUT
10
86.991
20
13.5625
0
VERTEX
8
CUT
10
87.616
20
15.75
0
VERTEX
8
CUT
10
89.616
20
15.75
0
VERTEX
8
CUT
10
90.241
20
13.5625
0
SEQEND
0
POLYLINE
8
CUT
66
1
70
0
0
VERTEX
8
CUT
10
86.991
20
3.2375
0
VERTEX
8
CUT
10
87.616
20
1.05
0
VERTEX
8
CUT
10
89.616
20
1.05
0
VERTEX
8
CUT
10
90.241
20
3.2375
0
SEQEND
0
POLYLINE
8
CUT
66
1
70
0
0
VERTEX
8
CUT
10
86.991
20
5.8625
0
VERTEX
8
CUT
10
87.616
20
8.05
0
VERTEX
8
CUT
10
89.616
20
8.05
0
VERTEX
8
CUT
10
90.241
20
5.8625
0
SEQEND
0
POLYLINE
8
CUT
66
1
70
0
0
VERTEX
8
CUT
10
87.516
20
0
0
VERTEX
8
CUT
10
87.616
20
0.35
0
VERTEX
8
CUT
10
89.616
20
0.35
0
VERTEX
8
CUT
10
89.716
20
0
0
SEQEND
0
POLYLINE
8
CUT
66
1
70
0
0
VERTEX
8
CUT
10
90.6
20
68.6875
0
VERTEX
8
CUT
10
91.225
20
66.5
0
VERTEX
8
CUT
10
93.225
20
66.5
0
VERTEX
8
CUT
10
93.85
20
68.6875
0
SEQEND
0
POLYLINE
8
CUT
66
1
70
0
0
VERTEX
8
CUT
10
90.6
20
60.9875
0
VERTEX
8
CUT
10
91.225
20
58.8
0
VERTEX
8
CUT
10
93.225
20
58.8
0
VERTEX
8
CUT
10
93.85
20
60.9875
0
SEQEND
0
POLYLINE
8
CUT
66
1
70
0
0
VERTEX
8
CUT
10
90.6
20
63.6125
0
VERTEX
8
CUT
10
91.225
20
65.8
0
VERTEX
8
CUT
10
93.225
20
65.8
0
VERTEX
8
CUT
10
93.85
20
63.6125
0
SEQEND
0
POLYLINE
8
CUT
66
1
70
0
0
VERTEX
8
CUT
10
90.6
20
53.2875
0
VERTEX
8
CUT
10
91.225
20
51.1
0
VERTEX
8
CUT
10
93.225
20
51.1
0
VERTEX
8
CUT
10
93.85
20
53.2875
0
SEQEND
0
POLYLINE
8
CUT
66
1
70
0
0
VERTEX
8
CUT
10
90.6
20
55.9125
0
VERTEX
8
CUT
10
91.225
20
58.1
0
VERTEX
8
CUT
10
93.225
20
58.1
0
VERTEX
8
CUT
10
93.85
20
55.9125
0
SEQEND
0
POLYLINE
8
CUT
66
1
70
0
0
VERTEX
8
CUT
10
90.6
20
45.5875
0
VERTEX
8
CUT
10
91.225
20
43.4
0
VERTEX
8
CUT
10
93.225
20
43.4
0
VERTEX
8
CUT
10
93.85
20
45.5875
0
SEQEND
0
POLYLINE
8
CUT
66
1
70
0
0
VERTEX
8
CUT
10
90.6
20
48.2125
0
VERTEX
8
CUT
10
91.225
20
50.4
0
VERTEX
8
CUT
10
93.225
20
50.4
0
VERTEX
8
CUT
10
93.85
20
48.2125
0
SEQEND
0
POLYLINE
8
CUT
66
1
70
0
0
VERTEX
8
CUT
10
90.6
20
37.8875
0
VERTEX
8
CUT
10
91.225
20
35.7
0
VERTEX
8
CUT
10
93.225
20
35.7
0
VERTEX
8
CUT
10
93.85
20
37.8875
0
SEQEND
0
POLYLINE
8
CUT
66
1
70
0
0
VERTEX
8
CUT
10
90.6
20
40.5125
0
VERTEX
8
CUT
10
91.225
20
42.7
0
VERTEX
8
CUT
10
93.225
20
42.7
0
VERTEX
8
CUT
10
93.85
20
40.5125
0
SEQEND
0
POLYLINE
8
CUT
66
1
70
0
0
VERTEX
8
CUT
10
90.6
20
30.1875
0
VERTEX
8
CUT
10
91.225
20
28
0
VERTEX
8
CUT
10
93.225
20
28
0
VERTEX
8
CUT
10
93.85
20
30.1875
0
SEQEND
0
POLYLINE
8
CUT
66
1
70
0
0
VERTEX
8
CUT
10
90.6
20
32.8125
0
VERTEX
8
CUT
10
91.225
20
35
0
VERTEX
8
CUT
10
93.225
20
35
0
VERTEX
8
CUT
10
93.85
20
32.8125
0
SEQEND
0
POLYLINE
8
CUT
66
1
70
0
0
VERTEX
8
CUT
10
90.6
20
22.4875
0
VERTEX
8
CUT
10
91.225
20
20.3
0
VERTEX
8
CUT
10
93.225
20
20.3
0
VERTEX
8
CUT
10
93.85
20
22.4875
0
SEQEND
0
POLYLINE
8
CUT
66
1
70
0
0
VERTEX
8
CUT
10
90.6
20
25.1125
0
VERTEX
8
CUT
10
91.225
20
27.3
0
VERTEX
8
CUT
10
93.225
20
27.3
0
VERTEX
8
CUT
10
93.85
20
25.1125
0
SEQEND
0
POLYLINE
8
CUT
66
1
70
0
0
VERTEX
8
CUT
10
90.6
20
14.7875
0
VERTEX
8
CUT
10
91.225
20
12.6
0
VERTEX
8
CUT
10
93.225
20
12.6
0
VERTEX
8
CUT
10
93.85
20
14.7875
0
SEQEND
0
POLYLINE
8
CUT
66
1
70
0
0
VERTEX
8
CUT
10
90.6
20
17.4125
0
VERTEX
8
CUT
10
91.225
20
19.6
0
VERTEX
8
CUT
10
93.225
20
19.6
0
VERTEX
8
CUT
10
93.85
20
17.4125
0
SEQEND
0
POLYLINE
8
CUT
66
1
70
0
0
VERTEX
8
CUT
10
90.6
20
7.0875
0
VERTEX
8
CUT
10
91.225
20
4.9
0
VERTEX
8
CUT
10
93.225
20
4.9
0
VERTEX
8
CUT
10
93.85
20
7.0875
0
SEQEND
0
POLYLINE
8
CUT
66
1
70
0
0
VERTEX
8
CUT
10
90.6
20
9.7125
0
VERTEX
8
CUT
10
91.225
20
11.9
0
VERTEX
8
CUT
10
93.225
20
11.9
0
VERTEX
8
CUT
10
93.85
20
9.7125
0
SEQEND
0
POLYLINE
8
CUT
66
1
70
0
0
VERTEX
8
CUT
10
90.6
20
2.0125
0
VERTEX
8
CUT
10
91.225
20
4.2
0
VERTEX
8
CUT
10
93.225
20
4.2
0
VERTEX
8
CUT
10
93.85
20
2.0125
0
SEQEND
0
POLYLINE
8
CUT
66
1
70
0
0
VERTEX
8
CUT
10
94.209
20
64.8375
0
VERTEX
8
CUT
10
94.834
20
62.65
0
VERTEX
8
CUT
10
96.834
20
62.65
0
VERTEX
8
CUT
10
97.459
20
64.8375
0
SEQEND
0
POLYLINE
8
CUT
66
1
70
0
0
VERTEX
8
CUT
10
94.209
20
67.4625
0
VERTEX
8
CUT
10
94.834
20
69.65
0
VERTEX
8
CUT
10
96.834
20
69.65
0
VERTEX
8
CUT
10
97.459
20
67.4625
0
SEQEND
0
POLYLINE
8
CUT
66
1
70
0
0
VERTEX
8
CUT
10
94.209
20
57.1375
0
VERTEX
8
CUT
10
94.834
20
54.95
0
VERTEX
8
CUT
10
96.834
20
54.95
0
VERTEX
8
CUT
10
97.459
20
57.1375
0
SEQEND
0
POLYLINE
8
CUT
66
1
70
0
0
VERTEX
8
CUT
10
94.209
20
59.7625
0
VERTEX
8
CUT
10
94.834
20
61.95
0
VERTEX
8
CUT
10
96.834
20
61.95
0
VERTEX
8
CUT
10
97.459
20
59.7625
0
SEQEND
0
POLYLINE
8
CUT
66
1
70
0
0
VERTEX
8
CUT
10
94.209
20
49.4375
0
VERTEX
8
CUT
10
94.834
20
47.25
0
VERTEX
8
CUT
10
96.834
20
47.25
0
VERTEX
8
CUT
10
97.459
20
49.4375
0
SEQEND
0
POLYLINE
8
CUT
66
1
70
0
0
VERTEX
8
CUT
10
94.209
20
52.0625
0
VERTEX
8
CUT
10
94.834
20
54.25
0
VERTEX
8
CUT
10
96.834
20
54.25
0
VERTEX
8
CUT
10
97.459
20
52.0625
0
SEQEND
0
POLYLINE
8
CUT
66
1
70
0
0
VERTEX
8
CUT
10
94.209
20
41.7375
0
VERTEX
8
CUT
10
94.834
20
39.55
0
VERTEX
8
CUT
10
96.834
20
39.55
0
VERTEX
8
CUT
10
97.459
20
41.7375
0
SEQEND
0
POLYLINE
8
CUT
66
1
70
0
0
VERTEX
8
CUT
10
94.209
20
44.3625
0
VERTEX
8
CUT
10
94.834
20
46.55
0
VERTEX
8
CUT
10
96.834
20
46.55
0
VERTEX
8
CUT
10
97.459
20
44.3625
0
SEQEND
0
POLYLINE
8
CUT
66
1
70
0
0
VERTEX
8
CUT
10
94.209
20
34.0375
0
VERTEX
8
CUT
10
94.834
20
31.85
0
VERTEX
8
CUT
10
96.834
20
31.85
0
VERTEX
8
CUT
10
97.459
20
34.0375
0
SEQEND
0
POLYLINE
8
CUT
66
1
70
0
0
VERTEX
8
CUT
10
94.209
20
36.6625
0
VERTEX
8
CUT
10
94.834
20
38.85
0
VERTEX
8
CUT
10
96.834
20
38.85
0
VERTEX
8
CUT
10
97.459
20
36.6625
0
SEQEND
0
POLYLINE
8
CUT
66
1
70
0
0
VERTEX
8
CUT
10
94.209
20
26.3375
0
VERTEX
8
CUT
10
94.834
20
24.15
0
VERTEX
8
CUT
10
96.834
20
24.15
0
VERTEX
8
CUT
10
97.459
20
26.3375
0
SEQEND
0
POLYLINE
8
CUT
66
1
70
0
0
VERTEX
8
CUT
10
94.209
20
28.9625
0
VERTEX
8
CUT
10
94.834
20
31.15
0
VERTEX
8
CUT
10
96.834
20
31.15
0
VERTEX
8
CUT
10
97.459
20
28.9625
0
SEQEND
0
POLYLINE
8
CUT
66
1
70
0
0
VERTEX
8
CUT
10
94.209
20
18.6375
0
VERTEX
8
CUT
10
94.834
20
16.45
0
VERTEX
8
CUT
10
96.834
20
16.45
0
VERTEX
8
CUT
10
97.459
20
18.6375
0
SEQEND
0
POLYLINE
8
CUT
66
1
70
0
0
VERTEX
8
CUT
10
94.209
20
21.2625
0
VERTEX
8
CUT
10
94.834
20
23.45
0
VERTEX
8
CUT
10
96.834
20
23.45
0
VERTEX
8
CUT
10
97.459
20
21.2625
0
SEQEND
0
POLYLINE
8
CUT
66
1
70
0
0
VERTEX
8
CUT
10
94.209
20
10.9375
0
VERTEX
8
CUT
10
94.834
20
8.75
0
VERTEX
8
CUT
10
96.834
20
8.75
0
VERTEX
8
CUT
10
97.459
20
10.9375
0
SEQEND
0
POLYLINE
8
CUT
66
1
70
0
0
VERTEX
8
CUT
10
94.209
20
13.5625
0
VERTEX
8
CUT
10
94.834
20
15.75
0
VERTEX
8
CUT
10
96.834
20
15.75
0
VERTEX
8
CUT
10
97.459
20
13.5625
0
SEQEND
0
POLYLINE
8
CUT
66
1
70
0
0
VERTEX
8
CUT
10
94.209
20
3.2375
0
VERTEX
8
CUT
10
94.834
20
1.05
0
VERTEX
8
CUT
10
96.834
20
1.05
0
VERTEX
8
CUT
10
97.459
20
3.2375
0
SEQEND
0
POLYLINE
8
CUT
66
1
70
0
0
VERTEX
8
CUT
10
94.209
20
5.8625
0
VERTEX
8
CUT
10
94.834
20
8.05
0
VERTEX
8
CUT
10
96.834
20
8.05
0
VERTEX
8
CUT
10
97.459
20
5.8625
0
SEQEND
0
POLYLINE
8
CUT
66
1
70
0
0
VERTEX
8
CUT
10
94.734
20
0
0
VERTEX
8
CUT
10
94.834
20
0.35
0
VERTEX
8
CUT
10
96.834
20
0.35
0
VERTEX
8
CUT
10
96.934
20
0
0
SEQEND
0
POLYLINE
8
CUT
66
1
70
0
0
VERTEX
8
CUT
10
97.818
20
68.6875
0
VERTEX
8
CUT
10
98.443
20
66.5
0
VERTEX
8
CUT
10
100.443
20
66.5
0
VERTEX
8
CUT
10
101.068
20
68.6875
0
SEQEND
0
POLYLINE
8
CUT
66
1
70
0
0
VERTEX
8
CUT
10
97.818
20
60.9875
0
VERTEX
8
CUT
10
98.443
20
58.8
0
VERTEX
8
CUT
10
100.443
20
58.8
0
VERTEX
8
CUT
10
101.068
20
60.9875
0
SEQEND
0
POLYLINE
8
CUT
66
1
70
0
0
VERTEX
8
CUT
10
97.818
20
63.6125
0
VERTEX
8
CUT
10
98.443
20
65.8
0
VERTEX
8
CUT
10
100.443
20
65.8
0
VERTEX
8
CUT
10
101.068
20
63.6125
0
SEQEND
0
POLYLINE
8
CUT
66
1
70
0
0
VERTEX
8
CUT
10
97.818
20
53.2875
0
VERTEX
8
CUT
10
98.443
20
51.1
0
VERTEX
8
CUT
10
100.443
20
51.1
0
VERTEX
8
CUT
10
101.068
20
53.2875
0
SEQEND
0
POLYLINE
8
CUT
66
1
70
0
0
VERTEX
8
CUT
10
97.818
20
55.9125
0
VERTEX
8
CUT
10
98.443
20
58.1
0
VERTEX
8
CUT
10
100.443
20
58.1
0
VERTEX
8
CUT
10
101.068
20
55.9125
0
SEQEND
0
POLYLINE
8
CUT
66
1
70
0
0
VERTEX
8
CUT
10
97.818
20
45.5875
0
VERTEX
8
CUT
10
98.443
20
43.4
0
VERTEX
8
CUT
10
100.443
20
43.4
0
VERTEX
8
CUT
10
101.068
20
45.5875
0
SEQEND
0
POLYLINE
8
CUT
66
1
70
0
0
VERTEX
8
CUT
10
97.818
20
48.2125
0
VERTEX
8
CUT
10
98.443
20
50.4
0
VERTEX
8
CUT
10
100.443
20
50.4
0
VERTEX
8
CUT
10
101.068
20
48.2125
0
SEQEND
0
POLYLINE
8
CUT
66
1
70
0
0
VERTEX
8
CUT
10
97.818
20
37.8875
0
VERTEX
8
CUT
10
98.443
20
35.7
0
VERTEX
8
CUT
10
100.443
20
35.7
0
VERTEX
8
CUT
10
101.068
20
37.8875
0
SEQEND
0
POLYLINE
8
CUT
66
1
70
0
0
VERTEX
8
CUT
10
97.818
20
40.5125
0
VERTEX
8
CUT
10
98.443
20
42.7
0
VERTEX
8
CUT
10
100.443
20
42.7
0
VERTEX
8
CUT
10
101.068
20
40.5125
0
SEQEND
0
POLYLINE
8
CUT
66
1
70
0
0
VERTEX
8
CUT
10
97.818
20
30.1875
0
VERTEX
8
CUT
10
98.443
20
28
0
VERTEX
8
CUT
10
100.443
20
28
0
VERTEX
8
CUT
10
101.068
20
30.1875
0
SEQEND
0
POLYLINE
8
CUT
66
1
70
0
0
VERTEX
8
CUT
10
97.818
20
32.8125
0
VERTEX
8
CUT
10
98.443
20
35
0
VERTEX
8
CUT
10
100.443
20
35
0
VERTEX
8
CUT
10
101.068
20
32.8125
0
SEQEND
0
POLYLINE
8
CUT
66
1
70
0
0
VERTEX
8
CUT
10
97.818
20
22.4875
0
VERTEX
8
CUT
10
98.443
20
20.3
0
VERTEX
8
CUT
10
100.443
20
20.3
0
VERTEX
8
CUT
10
101.068
20
22.4875
0
SEQEND
0
POLYLINE
8
CUT
66
1
70
0
0
VERTEX
8
CUT
10
97.818
20
25.1125
0
VERTEX
8
CUT
10
98.443
20
27.3
0
VERTEX
8
CUT
10
100.443
20
27.3
0
VERTEX
8
CUT
10
101.068
20
25.1125
0
SEQEND
0
POLYLINE
8
CUT
66
1
70
0
0
VERTEX
8
CUT
10
97.818
20
14.7875
0
VERTEX
8
CUT
10
98.443
20
12.6
0
VERTEX
8
CUT
10
100.443
20
12.6
0
VERTEX
8
CUT
10
101.068
20
14.7875
0
SEQEND
0
POLYLINE
8
CUT
66
1
70
0
0
VERTEX
8
CUT
10
97.818
20
17.4125
0
VERTEX
8
CUT
10
98.443
20
19.6
0
VERTEX
8
CUT
10
100.443
20
19.6
0
VERTEX
8
CUT
10
101.068
20
17.4125
0
SEQEND
0
POLYLINE
8
CUT
66
1
70
0
0
VERTEX
8
CUT
10
97.818
20
7.0875
0
VERTEX
8
CUT
10
98.443
20
4.9
0
VERTEX
8
CUT
10
100.443
20
4.9
0
VERTEX
8
CUT
10
101.068
20
7.0875
0
SEQEND
0
POLYLINE
8
CUT
66
1
70
0
0
VERTEX
8
CUT
10
97.818
20
9.7125
0
VERTEX
8
CUT
10
98.443
20
11.9
0
VERTEX
8
CUT
10
100.443
20
11.9
0
VERTEX
8
CUT
10
101.068
20
9.7125
0
SEQEND
0
POLYLINE
8
CUT
66
1
70
0
0
VERTEX
8
CUT
10
97.818
20
2.0125
0
VERTEX
8
CUT
10
98.443
20
4.2
0
VERTEX
8
CUT
10
100.443
20
4.2
0
VERTEX
8
CUT
10
101.068
20
2.0125
0
SEQEND
0
POLYLINE
8
CUT
66
1
70
0
0
VERTEX
8
CUT
10
101.427
20
64.8375
0
VERTEX
8
CUT
10
102.052
20
62.65
0
VERTEX
8
CUT
10
104.052
20
62.65
0
VERTEX
8
CUT
10
104.677
20
64.8375
0
SEQEND
0
POLYLINE
8
CUT
66
1
70
0
0
VERTEX
8
CUT
10
101.427
20
67.4625
0
VERTEX
8
CUT
10
102.052
20
69.65
0
VERTEX
8
CUT
10
104.052
20
69.65
0
VERTEX
8
CUT
10
104.677
20
67.4625
0
SEQEND
0
POLYLINE
8
CUT
66
1
70
0
0
VERTEX
8
CUT
10
101.427
20
57.1375
0
VERTEX
8
CUT
10
102.052
20
54.95
0
VERTEX
8
CUT
10
104.052
20
54.95
0
VERTEX
8
CUT
10
104.677
20
57.1375
0
SEQEND
0
POLYLINE
8
CUT
66
1
70
0
0
VERTEX
8
CUT
10
101.427
20
59.7625
0
VERTEX
8
CUT
10
102.052
20
61.95
0
VERTEX
8
CUT
10
104.052
20
61.95
0
VERTEX
8
CUT
10
104.677
20
59.7625
0
SEQEND
0
POLYLINE
8
CUT
66
1
70
0
0
VERTEX
8
CUT
10
101.427
20
49.4375
0
VERTEX
8
CUT
10
102.052
20
47.25
0
VERTEX
8
CUT
10
104.052
20
47.25
0
VERTEX
8
CUT
10
104.677
20
49.4375
0
SEQEND
0
POLYLINE
8
CUT
66
1
70
0
0
VERTEX
8
CUT
10
101.427
20
52.0625
0
VERTEX
8
CUT
10
102.052
20
54.25
0
VERTEX
8
CUT
10
104.052
20
54.25
0
VERTEX
8
CUT
10
104.677
20
52.0625
0
SEQEND
0
POLYLINE
8
CUT
66
1
70
0
0
VERTEX
8
CUT
10
101.427
20
41.7375
0
VERTEX
8
CUT
10
102.052
20
39.55
0
VERTEX
8
CUT
10
104.052
20
39.55
0
VERTEX
8
CUT
10
104.677
20
41.7375
0
SEQEND
0
POLYLINE
8
CUT
66
1
70
0
0
VERTEX
8
CUT
10
101.427
20
44.3625
0
VERTEX
8
CUT
10
102.052
20
46.55
0
VERTEX
8
CUT
10
104.052
20
46.55
0
VERTEX
8
CUT
10
104.677
20
44.3625
0
SEQEND
0
POLYLINE
8
CUT
66
1
70
0
0
VERTEX
8
CUT
10
101.427
20
34.0375
0
VERTEX
8
CUT
10
102.052
20
31.85
0
VERTEX
8
CUT
10
104.052
20
31.85
0
VERTEX
8
CUT
10
104.677
20
34.0375
0
SEQEND
0
POLYLINE
8
CUT
66
1
70
0
0
VERTEX
8
CUT
10
101.427
20
36.6625
0
VERTEX
8
CUT
10
102.052
20
38.85
0
VERTEX
8
CUT
10
104.052
20
38.85
0
VERTEX
8
CUT
10
104.677
20
36.6625
0
SEQEND
0
POLYLINE
8
CUT
66
1
70
0
0
VERTEX
8
CUT
10
101.427
20
26.3375
0
VERTEX
8
CUT
10
102.052
20
24.15
0
VERTEX
8
CUT
10
104.052
20
24.15
0
VERTEX
8
CUT
10
104.677
20
26.3375
0
SEQEND
0
POLYLINE
8
CUT
66
1
70
0
0
VERTEX
8
CUT
10
101.427
20
28.9625
0
VERTEX
8
CUT
10
102.052
20
31.15
0
VERTEX
8
CUT
10
104.052
20
31.15
0
VERTEX
8
CUT
10
104.677
20
28.9625
0
SEQEND
0
POLYLINE
8
CUT
66
1
70
0
0
VERTEX
8
CUT
10
101.427
20
18.6375
0
VERTEX
8
CUT
10
102.052
20
16.45
0
VERTEX
8
CUT
10
104.052
20
16.45
0
VERTEX
8
CUT
10
104.677
20
18.6375
0
SEQEND
0
POLYLINE
8
CUT
66
1
70
0
0
VERTEX
8
CUT
10
101.427
20
21.2625
0
VERTEX
8
CUT
10
102.052
20
23.45
0
VERTEX
8
CUT
10
104.052
20
23.45
0
VERTEX
8
CUT
10
104.677
20
21.2625
0
SEQEND
0
POLYLINE
8
CUT
66
1
70
0
0
VERTEX
8
CUT
10
101.427
20
10.9375
0
VERTEX
8
CUT
10
102.052
20
8.75
0
VERTEX
8
CUT
10
104.052
20
8.75
0
VERTEX
8
CUT
10
104.677
20
10.9375
0
SEQEND
0
POLYLINE
8
CUT
66
1
70
0
0
VERTEX
8
CUT
10
101.427
20
13.5625
0
VERTEX
8
CUT
10
102.052
20
15.75
0
VERTEX
8
CUT
10
104.052
20
15.75
0
VERTEX
8
CUT
10
104.677
20
13.5625
0
SEQEND
0
POLYLINE
8
CUT
66
1
70
0
0
VERTEX
8
CUT
10
101.427
20
3.2375
0
VERTEX
8
CUT
10
102.052
20
1.05
0
VERTEX
8
CUT
10
104.052
20
1.05
0
VERTEX
8
CUT
10
104.677
20
3.2375
0
SEQEND
0
POLYLINE
8
CUT
66
1
70
0
0
VERTEX
8
CUT
10
101.427
20
5.8625
0
VERTEX
8
CUT
10
102.052
20
8.05
0
VERTEX
8
CUT
10
104.052
20
8.05
0
VERTEX
8
CUT
10
104.677
20
5.8625
0
SEQEND
0
POLYLINE
8
CUT
66
1
70
0
0
VERTEX
8
CUT
10
101.952
20
0
0
VERTEX
8
CUT
10
102.052
20
0.35
0
VERTEX
8
CUT
10
104.052
20
0.35
0
VERTEX
8
CUT
10
104.152
20
0
0
SEQEND
0
POLYLINE
8
CUT
66
1
70
0
0
VERTEX
8
CUT
10
105.036
20
68.6875
0
VERTEX
8
CUT
10
105.661
20
66.5
0
VERTEX
8
CUT
10
107.661
20
66.5
0
VERTEX
8
CUT
10
108.286
20
68.6875
0
SEQEND
0
POLYLINE
8
CUT
66
1
70
0
0
VERTEX
8
CUT
10
105.036
20
60.9875
0
VERTEX
8
CUT
10
105.661
20
58.8
0
VERTEX
8
CUT
10
107.661
20
58.8
0
VERTEX
8
CUT
10
108.286
20
60.9875
0
SEQEND
0
POLYLINE
8
CUT
66
1
70
0
0
VERTEX
8
CUT
10
105.036
20
63.6125
0
VERTEX
8
CUT
10
105.661
20
65.8
0
VERTEX
8
CUT
10
107.661
20
65.8
0
VERTEX
8
CUT
10
108.286
20
63.6125
0
SEQEND
0
POLYLINE
8
CUT
66
1
70
0
0
VERTEX
8
CUT
10
105.036
20
53.2875
0
VERTEX
8
CUT
10
105.661
20
51.1
0
VERTEX
8
CUT
10
107.661
20
51.1
0
VERTEX
8
CUT
10
108.286
20
53.2875
0
SEQEND
0
POLYLINE
8
CUT
66
1
70
0
0
VERTEX
8
CUT
10
105.036
20
55.9125
0
VERTEX
8
CUT
10
105.661
20
58.1
0
VERTEX
8
CUT
10
107.661
20
58.1
0
VERTEX
8
CUT
10
108.286
20
55.9125
0
SEQEND
0
POLYLINE
8
CUT
66
1
70
0
0
VERTEX
8
CUT
10
105.036
20
45.5875
0
VERTEX
8
CUT
10
105.661
20
43.4
0
VERTEX
8
CUT
10
107.661
20
43.4
0
VERTEX
8
CUT
10
108.286
20
45.5875
0
SEQEND
0
POLYLINE
8
CUT
66
1
70
0
0
VERTEX
8
CUT
10
105.036
20
48.2125
0
VERTEX
8
CUT
10
105.661
20
50.4
0
VERTEX
8
CUT
10
107.661
20
50.4
0
VERTEX
8
CUT
10
108.286
20
48.2125
0
SEQEND
0
POLYLINE
8
CUT
66
1
70
0
0
VERTEX
8
CUT
10
105.036
20
37.8875
0
VERTEX
8
CUT
10
105.661
20
35.7
0
VERTEX
8
CUT
10
107.661
20
35.7
0
VERTEX
8
CUT
10
108.286
20
37.8875
0
SEQEND
0
POLYLINE
8
CUT
66
1
70
0
0
VERTEX
8
CUT
10
105.036
20
40.5125
0
VERTEX
8
CUT
10
105.661
20
42.7
0
VERTEX
8
CUT
10
107.661
20
42.7
0
VERTEX
8
CUT
10
108.286
20
40.5125
0
SEQEND
0
POLYLINE
8
CUT
66
1
70
0
0
VERTEX
8
CUT
10
105.036
20
30.1875
0
VERTEX
8
CUT
10
105.661
20
28
0
VERTEX
8
CUT
10
107.661
20
28
0
VERTEX
8
CUT
10
108.286
20
30.1875
0
SEQEND
0
POLYLINE
8
CUT
66
1
70
0
0
VERTEX
8
CUT
10
105.036
20
32.8125
0
VERTEX
8
CUT
10
105.661
20
35
0
VERTEX
8
CUT
10
107.661
20
35
0
VERTEX
8
CUT
10
108.286
20
32.8125
0
SEQEND
0
POLYLINE
8
CUT
66
1
70
0
0
VERTEX
8
CUT
10
105.036
20
22.4875
0
VERTEX
8
CUT
10
105.661
20
20.3
0
VERTEX
8
CUT
10
107.661
20
20.3
0
VERTEX
8
CUT
10
108.286
20
22.4875
0
SEQEND
0
POLYLINE
8
CUT
66
1
70
0
0
VERTEX
8
CUT
10
105.036
20
25.1125
0
VERTEX
8
CUT
10
105.661
20
27.3
0
VERTEX
8
CUT
10
107.661
20
27.3
0
VERTEX
8
CUT
10
108.286
20
25.1125
0
SEQEND
0
POLYLINE
8
CUT
66
1
70
0
0
VERTEX
8
CUT
10
105.036
20
14.7875
0
VERTEX
8
CUT
10
105.661
20
12.6
0
VERTEX
8
CUT
10
107.661
20
12.6
0
VERTEX
8
CUT
10
108.286
20
14.7875
0
SEQEND
0
POLYLINE
8
CUT
66
1
70
0
0
VERTEX
8
CUT
10
105.036
20
17.4125
0
VERTEX
8
CUT
10
105.661
20
19.6
0
VERTEX
8
CUT
10
107.661
20
19.6
0
VERTEX
8
CUT
10
108.286
20
17.4125
0
SEQEND
0
POLYLINE
8
CUT
66
1
70
0
0
VERTEX
8
CUT
10
105.036
20
7.0875
0
VERTEX
8
CUT
10
105.661
20
4.9
0
VERTEX
8
CUT
10
107.661
20
4.9
0
VERTEX
8
CUT
10
108.286
20
7.0875
0
SEQEND
0
POLYLINE
8
CUT
66
1
70
0
0
VERTEX
8
CUT
10
105.036
20
9.7125
0
VERTEX
8
CUT
10
105.661
20
11.9
0
VERTEX
8
CUT
10
107.661
20
11.9
0
VERTEX
8
CUT
10
108.286
20
9.7125
0
SEQEND
0
POLYLINE
8
CUT
66
1
70
0
0
VERTEX
8
CUT
10
105.036
20
2.0125
0
VERTEX
8
CUT
10
105.661
20
4.2
0
VERTEX
8
CUT
10
107.661
20
4.2
0
VERTEX
8
CUT
10
108.286
20
2.0125
0
SEQEND
0
POLYLINE
8
CUT
66
1
70
0
0
VERTEX
8
CUT
10
108.645
20
64.8375
0
VERTEX
8
CUT
10
109.27
20
62.65
0
VERTEX
8
CUT
10
111.27
20
62.65
0
VERTEX
8
CUT
10
111.895
20
64.8375
0
SEQEND
0
POLYLINE
8
CUT
66
1
70
0
0
VERTEX
8
CUT
10
108.645
20
67.4625
0
VERTEX
8
CUT
10
109.27
20
69.65
0
VERTEX
8
CUT
10
111.27
20
69.65
0
VERTEX
8
CUT
10
111.895
20
67.4625
0
SEQEND
0
POLYLINE
8
CUT
66
1
70
0
0
VERTEX
8
CUT
10
108.645
20
57.1375
0
VERTEX
8
CUT
10
109.27
20
54.95
0
VERTEX
8
CUT
10
111.27
20
54.95
0
VERTEX
8
CUT
10
111.895
20
57.1375
0
SEQEND
0
POLYLINE
8
CUT
66
1
70
0
0
VERTEX
8
CUT
10
108.645
20
59.7625
0
VERTEX
8
CUT
10
109.27
20
61.95
0
VERTEX
8
CUT
10
111.27
20
61.95
0
VERTEX
8
CUT
10
111.895
20
59.7625
0
SEQEND
0
POLYLINE
8
CUT
66
1
70
0
0
VERTEX
8
CUT
10
108.645
20
49.4375
0
VERTEX
8
CUT
10
109.27
20
47.25
0
VERTEX
8
CUT
10
111.27
20
47.25
0
VERTEX
8
CUT
10
111.895
20
49.4375
0
SEQEND
0
POLYLINE
8
CUT
66
1
70
0
0
VERTEX
8
CUT
10
108.645
20
52.0625
0
VERTEX
8
CUT
10
109.27
20
54.25
0
VERTEX
8
CUT
10
111.27
20
54.25
0
VERTEX
8
CUT
10
111.895
20
52.0625
0
SEQEND
0
POLYLINE
8
CUT
66
1
70
0
0
VERTEX
8
CUT
10
108.645
20
41.7375
0
VERTEX
8
CUT
10
109.27
20
39.55
0
VERTEX
8
CUT
10
111.27
20
39.55
0
VERTEX
8
CUT
10
111.895
20
41.7375
0
SEQEND
0
POLYLINE
8
CUT
66
1
70
0
0
VERTEX
8
CUT
10
108.645
20
44.3625
0
VERTEX
8
CUT
10
109.27
20
46.55
0
VERTEX
8
CUT
10
111.27
20
46.55
0
VERTEX
8
CUT
10
111.895
20
44.3625
0
SEQEND
0
POLYLINE
8
CUT
66
1
70
0
0
VERTEX
8
CUT
10
108.645
20
34.0375
0
VERTEX
8
CUT
10
109.27
20
31.85
0
VERTEX
8
CUT
10
111.27
20
31.85
0
VERTEX
8
CUT
10
111.895
20
34.0375
0
SEQEND
0
POLYLINE
8
CUT
66
1
70
0
0
VERTEX
8
CUT
10
108.645
20
36.6625
0
VERTEX
8
CUT
10
109.27
20
38.85
0
VERTEX
8
CUT
10
111.27
20
38.85
0
VERTEX
8
CUT
10
111.895
20
36.6625
0
SEQEND
0
POLYLINE
8
CUT
66
1
70
0
0
VERTEX
8
CUT
10
108.645
20
26.3375
0
VERTEX
8
CUT
10
109.27
20
24.15
0
VERTEX
8
CUT
10
111.27
20
24.15
0
VERTEX
8
CUT
10
111.895
20
26.3375
0
SEQEND
0
POLYLINE
8
CUT
66
1
70
0
0
VERTEX
8
CUT
10
108.645
20
28.9625
0
VERTEX
8
CUT
10
109.27
20
31.15
0
VERTEX
8
CUT
10
111.27
20
31.15
0
VERTEX
8
CUT
10
111.895
20
28.9625
0
SEQEND
0
POLYLINE
8
CUT
66
1
70
0
0
VERTEX
8
CUT
10
108.645
20
18.6375
0
VERTEX
8
CUT
10
109.27
20
16.45
0
VERTEX
8
CUT
10
111.27
20
16.45
0
VERTEX
8
CUT
10
111.895
20
18.6375
0
SEQEND
0
POLYLINE
8
CUT
66
1
70
0
0
VERTEX
8
CUT
10
108.645
20
21.2625
0
VERTEX
8
CUT
10
109.27
20
23.45
0
VERTEX
8
CUT
10
111.27
20
23.45
0
VERTEX
8
CUT
10
111.895
20
21.2625
0
SEQEND
0
POLYLINE
8
CUT
66
1
70
0
0
VERTEX
8
CUT
10
108.645
20
10.9375
0
VERTEX
8
CUT
10
109.27
20
8.75
0
VERTEX
8
CUT
10
111.27
20
8.75
0
VERTEX
8
CUT
10
111.895
20
10.9375
0
SEQEND
0
POLYLINE
8
CUT
66
1
70
0
0
VERTEX
8
CUT
10
108.645
20
13.5625
0
VERTEX
8
CUT
10
109.27
20
15.75
0
VERTEX
8
CUT
10
111.27
20
15.75
0
VERTEX
8
CUT
10
111.895
20
13.5625
0
SEQEND
0
POLYLINE
8
CUT
66
1
70
0
0
VERTEX
8
CUT
10
108.645
20
3.2375
0
VERTEX
8
CUT
10
109.27
20
1.05
0
VERTEX
8
CUT
10
111.27
20
1.05
0
VERTEX
8
CUT
10
111.895
20
3.2375
0
SEQEND
0
POLYLINE
8
CUT
66
1
70
0
0
VERTEX
8
CUT
10
108.645
20
5.8625
0
VERTEX
8
CUT
10
109.27
20
8.05
0
VERTEX
8
CUT
10
111.27
20
8.05
0
VERTEX
8
CUT
10
111.895
20
5.8625
0
SEQEND
0
POLYLINE
8
CUT
66
1
70
0
0
VERTEX
8
CUT
10
109.17
20
0
0
VERTEX
8
CUT
10
109.27
20
0.35
0
VERTEX
8
CUT
10
111.27
20
0.35
0
VERTEX
8
CUT
10
111.37
20
0
0
SEQEND
0
POLYLINE
8
CUT
66
1
70
0
0
VERTEX
8
CUT
10
112.254
20
68.6875
0
VERTEX
8
CUT
10
112.879
20
66.5
0
VERTEX
8
CUT
10
114.879
20
66.5
0
VERTEX
8
CUT
10
115.504
20
68.6875
0
SEQEND
0
POLYLINE
8
CUT
66
1
70
0
0
VERTEX
8
CUT
10
112.254
20
60.9875
0
VERTEX
8
CUT
10
112.879
20
58.8
0
VERTEX
8
CUT
10
114.879
20
58.8
0
VERTEX
8
CUT
10
115.504
20
60.9875
0
SEQEND
0
POLYLINE
8
CUT
66
1
70
0
0
VERTEX
8
CUT
10
112.254
20
63.6125
0
VERTEX
8
CUT
10
112.879
20
65.8
0
VERTEX
8
CUT
10
114.879
20
65.8
0
VERTEX
8
CUT
10
115.504
20
63.6125
0
SEQEND
0
POLYLINE
8
CUT
66
1
70
0
0
VERTEX
8
CUT
10
112.254
20
53.2875
0
VERTEX
8
CUT
10
112.879
20
51.1
0
VERTEX
8
CUT
10
114.879
20
51.1
0
VERTEX
8
CUT
10
115.504
20
53.2875
0
SEQEND
0
POLYLINE
8
CUT
66
1
70
0
0
VERTEX
8
CUT
10
112.254
20
55.9125
0
VERTEX
8
CUT
10
112.879
20
58.1
0
VERTEX
8
CUT
10
114.879
20
58.1
0
VERTEX
8
CUT
10
115.504
20
55.9125
0
SEQEND
0
POLYLINE
8
CUT
66
1
70
0
0
VERTEX
8
CUT
10
112.254
20
45.5875
0
VERTEX
8
CUT
10
112.879
20
43.4
0
VERTEX
8
CUT
10
114.879
20
43.4
0
VERTEX
8
CUT
10
115.504
20
45.5875
0
SEQEND
0
POLYLINE
8
CUT
66
1
70
0
0
VERTEX
8
CUT
10
112.254
20
48.2125
0
VERTEX
8
CUT
10
112.879
20
50.4
0
VERTEX
8
CUT
10
114.879
20
50.4
0
VERTEX
8
CUT
10
115.504
20
48.2125
0
SEQEND
0
POLYLINE
8
CUT
66
1
70
0
0
VERTEX
8
CUT
10
112.254
20
37.8875
0
VERTEX
8
CUT
10
112.879
20
35.7
0
VERTEX
8
CUT
10
114.879
20
35.7
0
VERTEX
8
CUT
10
115.504
20
37.8875
0
SEQEND
0
POLYLINE
8
CUT
66
1
70
0
0
VERTEX
8
CUT
10
112.254
20
40.5125
0
VERTEX
8
CUT
10
112.879
20
42.7
0
VERTEX
8
CUT
10
114.879
20
42.7
0
VERTEX
8
CUT
10
115.504
20
40.5125
0
SEQEND
0
POLYLINE
8
CUT
66
1
70
0
0
VERTEX
8
CUT
10
112.254
20
30.1875
0
VERTEX
8
CUT
10
112.879
20
28
0
VERTEX
8
CUT
10
114.879
20
28
0
VERTEX
8
CUT
10
115.504
20
30.1875
0
SEQEND
0
POLYLINE
8
CUT
66
1
70
0
0
VERTEX
8
CUT
10
112.254
20
32.8125
0
VERTEX
8
CUT
10
112.879
20
35
0
VERTEX
8
CUT
10
114.879
20
35
0
VERTEX
8
CUT
10
115.504
20
32.8125
0
SEQEND
0
POLYLINE
8
CUT
66
1
70
0
0
VERTEX
8
CUT
10
112.254
20
22.4875
0
VERTEX
8
CUT
10
112.879
20
20.3
0
VERTEX
8
CUT
10
114.879
20
20.3
0
VERTEX
8
CUT
10
115.504
20
22.4875
0
SEQEND
0
POLYLINE
8
CUT
66
1
70
0
0
VERTEX
8
CUT
10
112.254
20
25.1125
0
VERTEX
8
CUT
10
112.879
20
27.3
0
VERTEX
8
CUT
10
114.879
20
27.3
0
VERTEX
8
CUT
10
115.504
20
25.1125
0
SEQEND
0
POLYLINE
8
CUT
66
1
70
0
0
VERTEX
8
CUT
10
112.254
20
14.7875
0
VERTEX
8
CUT
10
112.879
20
12.6
0
VERTEX
8
CUT
10
114.879
20
12.6
0
VERTEX
8
CUT
10
115.504
20
14.7875
0
SEQEND
0
POLYLINE
8
CUT
66
1
70
0
0
VERTEX
8
CUT
10
112.254
20
17.4125
0
VERTEX
8
CUT
10
112.879
20
19.6
0
VERTEX
8
CUT
10
114.879
20
19.6
0
VERTEX
8
CUT
10
115.504
20
17.4125
0
SEQEND
0
POLYLINE
8
CUT
66
1
70
0
0
VERTEX
8
CUT
10
112.254
20
7.0875
0
VERTEX
8
CUT
10
112.879
20
4.9
0
VERTEX
8
CUT
10
114.879
20
4.9
0
VERTEX
8
CUT
10
115.504
20
7.0875
0
SEQEND
0
POLYLINE
8
CUT
66
1
70
0
0
VERTEX
8
CUT
10
112.254
20
9.7125
0
VERTEX
8
CUT
10
112.879
20
11.9
0
VERTEX
8
CUT
10
114.879
20
11.9
0
VERTEX
8
CUT
10
115.504
20
9.7125
0
SEQEND
0
POLYLINE
8
CUT
66
1
70
0
0
VERTEX
8
CUT
10
112.254
20
2.0125
0
VERTEX
8
CUT
10
112.879
20
4.2
0
VERTEX
8
CUT
10
114.879
20
4.2
0
VERTEX
8
CUT
10
115.504
20
2.0125
0
SEQEND
0
POLYLINE
8
CUT
66
1
70
0
0
VERTEX
8
CUT
10
115.863
20
64.8375
0
VERTEX
8
CUT
10
116.488
20
62.65
0
VERTEX
8
CUT
10
118.488
20
62.65
0
VERTEX
8
CUT
10
119.113
20
64.8375
0
SEQEND
0
POLYLINE
8
CUT
66
1
70
0
0
VERTEX
8
CUT
10
115.863
20
67.4625
0
VERTEX
8
CUT
10
116.488
20
69.65
0
VERTEX
8
CUT
10
118.488
20
69.65
0
VERTEX
8
CUT
10
119.113
20
67.4625
0
SEQEND
0
POLYLINE
8
CUT
66
1
70
0
0
VERTEX
8
CUT
10
115.863
20
57.1375
0
VERTEX
8
CUT
10
116.488
20
54.95
0
VERTEX
8
CUT
10
118.488
20
54.95
0
VERTEX
8
CUT
10
119.113
20
57.1375
0
SEQEND
0
POLYLINE
8
CUT
66
1
70
0
0
VERTEX
8
CUT
10
115.863
20
59.7625
0
VERTEX
8
CUT
10
116.488
20
61.95
0
VERTEX
8
CUT
10
118.488
20
61.95
0
VERTEX
8
CUT
10
119.113
20
59.7625
0
SEQEND
0
POLYLINE
8
CUT
66
1
70
0
0
VERTEX
8
CUT
10
115.863
20
49.4375
0
VERTEX
8
CUT
10
116.488
20
47.25
0
VERTEX
8
CUT
10
118.488
20
47.25
0
VERTEX
8
CUT
10
119.113
20
49.4375
0
SEQEND
0
POLYLINE
8
CUT
66
1
70
0
0
VERTEX
8
CUT
10
115.863
20
52.0625
0
VERTEX
8
CUT
10
116.488
20
54.25
0
VERTEX
8
CUT
10
118.488
20
54.25
0
VERTEX
8
CUT
10
119.113
20
52.0625
0
SEQEND
0
POLYLINE
8
CUT
66
1
70
0
0
VERTEX
8
CUT
10
115.863
20
41.7375
0
VERTEX
8
CUT
10
116.488
20
39.55
0
VERTEX
8
CUT
10
118.488
20
39.55
0
VERTEX
8
CUT
10
119.113
20
41.7375
0
SEQEND
0
POLYLINE
8
CUT
66
1
70
0
0
VERTEX
8
CUT
10
115.863
20
44.3625
0
VERTEX
8
CUT
10
116.488
20
46.55
0
VERTEX
8
CUT
10
118.488
20
46.55
0
VERTEX
8
CUT
10
119.113
20
44.3625
0
SEQEND
0
POLYLINE
8
CUT
66
1
70
0
0
VERTEX
8
CUT
10
115.863
20
34.0375
0
VERTEX
8
CUT
10
116.488
20
31.85
0
VERTEX
8
CUT
10
118.488
20
31.85
0
VERTEX
8
CUT
10
119.113
20
34.0375
0
SEQEND
0
POLYLINE
8
CUT
66
1
70
0
0
VERTEX
8
CUT
10
115.863
20
36.6625
0
VERTEX
8
CUT
10
116.488
20
38.85
0
VERTEX
8
CUT
10
118.488
20
38.85
0
VERTEX
8
CUT
10
119.113
20
36.6625
0
SEQEND
0
POLYLINE
8
CUT
66
1
70
0
0
VERTEX
8
CUT
10
115.863
20
26.3375
0
VERTEX
8
CUT
10
116.488
20
24.15
0
VERTEX
8
CUT
10
118.488
20
24.15
0
VERTEX
8
CUT
10
119.113
20
26.3375
0
SEQEND
0
POLYLINE
8
CUT
66
1
70
0
0
VERTEX
8
CUT
10
115.863
20
28.9625
0
VERTEX
8
CUT
10
116.488
20
31.15
0
VERTEX
8
CUT
10
118.488
20
31.15
0
VERTEX
8
CUT
10
119.113
20
28.9625
0
SEQEND
0
POLYLINE
8
CUT
66
1
70
0
0
VERTEX
8
CUT
10
115.863
20
18.6375
0
VERTEX
8
CUT
10
116.488
20
16.45
0
VERTEX
8
CUT
10
118.488
20
16.45
0
VERTEX
8
CUT
10
119.113
20
18.6375
0
SEQEND
0
POLYLINE
8
CUT
66
1
70
0
0
VERTEX
8
CUT
10
115.863
20
21.2625
0
VERTEX
8
CUT
10
116.488
20
23.45
0
VERTEX
8
CUT
10
118.488
20
23.45
0
VERTEX
8
CUT
10
119.113
20
21.2625
0
SEQEND
0
POLYLINE
8
CUT
66
1
70
0
0
VERTEX
8
CUT
10
115.863
20
10.9375
0
VERTEX
8
CUT
10
116.488
20
8.75
0
VERTEX
8
CUT
10
118.488
20
8.75
0
VERTEX
8
CUT
10
119.113
20
10.9375
0
SEQEND
0
POLYLINE
8
CUT
66
1
70
0
0
VERTEX
8
CUT
10
115.863
20
13.5625
0
VERTEX
8
CUT
10
116.488
20
15.75
0
VERTEX
8
CUT
10
118.488
20
15.75
0
VERTEX
8
CUT
10
119.113
20
13.5625
0
SEQEND
0
POLYLINE
8
CUT
66
1
70
0
0
VERTEX
8
CUT
10
115.863
20
3.2375
0
VERTEX
8
CUT
10
116.488
20
1.05
0
VERTEX
8
CUT
10
118.488
20
1.05
0
VERTEX
8
CUT
10
119.113
20
3.2375
0
SEQEND
0
POLYLINE
8
CUT
66
1
70
0
0
VERTEX
8
CUT
10
115.863
20
5.8625
0
VERTEX
8
CUT
10
116.488
20
8.05
0
VERTEX
8
CUT
10
118.488
20
8.05
0
VERTEX
8
CUT
10
119.113
20
5.8625
0
SEQEND
0
POLYLINE
8
CUT
66
1
70
0
0
VERTEX
8
CUT
10
116.388
20
0
0
VERTEX
8
CUT
10
116.488
20
0.35
0
VERTEX
8
CUT
10
118.488
20
0.35
0
VERTEX
8
CUT
10
118.588
20
0
0
SEQEND
0
LINE
8
CUT
10
119.472
20
68.6875
11
120
21
66.8395
0
LINE
8
CUT
10
119.472
20
60.9875
11
120
21
59.1395
0
LINE
8
CUT
10
119.472
20
63.6125
11
120
21
65.4605
0
LINE
8
CUT
10
119.472
20
53.2875
11
120
21
51.4395
0
LINE
8
CUT
10
119.472
20
55.9125
11
120
21
57.7605
0
LINE
8
CUT
10
119.472
20
45.5875
11
120
21
43.7395
0
LINE
8
CUT
10
119.472
20
48.2125
11
120
21
50.0605
0
LINE
8
CUT
10
119.472
20
37.8875
11
120
21
36.0395
0
LINE
8
CUT
10
119.472
20
40.5125
11
120
21
42.3605
0
LINE
8
CUT
10
119.472
20
30.1875
11
120
21
28.3395
0
LINE
8
CUT
10
119.472
20
32.8125
11
120
21
34.6605
0
LINE
8
CUT
10
119.472
20
22.4875
11
120
21
20.6395
0
LINE
8
CUT
10
119.472
20
25.1125
11
120
21
26.9605
0
LINE
8
CUT
10
119.472
20
14.7875
11
120
21
12.9395
0
LINE
8
CUT
10
119.472
20
17.4125
11
120
21
19.2605
0
LINE
8
CUT
10
119.472
20
7.0875
11
120
21
5.2395
0
LINE
8
CUT
10
119.472
20
9.7125
11
120
21
11.5605
0
LINE
8
CUT
10
119.472
20
2.0125
11
120
21
3.8605
0
POLYLINE
8
CUT
66
1
70
0
0
VERTEX
8
CUT
10
0
20
70
0
VERTEX
8
CUT
10
120
20
70
0
VERTEX
8
CUT
10
120
20
0
0
VERTEX
8
CUT
10
0
20
0
0
VERTEX
8
CUT
10
0
20
70
0
SEQEND
0
ENDSEC
0
EOF
