0
SECTION
2
HEADER
9
$ACADVER
1
AC1009
9
$INSUNITS
70
4
0
ENDSEC
0
SECTION
2
TABLES
0
TABLE
2
LAYER
70
1
0
LAYER
2
CUT
70
0
62
1
6
CONTINUOUS
0
ENDTAB
0
ENDSEC
0
SECTION
2
ENTITIES
0
POLYLINE
8
CUT
66
1
70
0
0
VERTEX
8
CUT
10
1.4178
20
68.7201
0
VERTEX
8
CUT
10
0
20
66.4
0
VERTEX
8
CUT
10
0
20
55.6
0
VERTEX
8
CUT
10
1.4178
20
53.2799
0
SEQEND
0
POLYLINE
8
CUT
66
1
70
0
0
VERTEX
8
CUT
10
2.9822
20
68.7201
0
VERTEX
8
CUT
10
4.4
20
66.4
0
VERTEX
8
CUT
10
4.4
20
55.6
0
VERTEX
8
CUT
10
2.9822
20
53.2799
0
SEQEND
0
POLYLINE
8
CUT
66
1
70
0
0
VERTEX
8
CUT
10
1.4178
20
50.7201
0
VERTEX
8
CUT
10
0
20
48.4
0
VERTEX
8
CUT
10
0
20
37.6
0
VERTEX
8
CUT
10
1.4178
20
35.2799
0
SEQEND
0
POLYLINE
8
CUT
66
1
70
0
0
VERTEX
8
CUT
10
2.9822
20
50.7201
0
VERTEX
8
CUT
10
4.4
20
48.4
0
VERTEX
8
CUT
10
4.4
20
37.6
0
VERTEX
8
CUT
10
2.9822
20
35.2799
0
SEQEND
0
POLYLINE
8
CUT
66
1
70
0
0
VERTEX
8
CUT
10
1.4178
20
32.7201
0
VERTEX
8
CUT
10
0
20
30.4
0
VERTEX
8
CUT
10
0
20
19.6
0
VERTEX
8
CUT
10
1.4178
20
17.2799
0
SEQEND
0
POLYLINE
8
CUT
66
1
70
0
0
VERTEX
8
CUT
10
2.9822
20
32.7201
0
VERTEX
8
CUT
10
4.4
20
30.4
0
VERTEX
8
CUT
10
4.4
20
19.6
0
VERTEX
8
CUT
10
2.9822
20
17.2799
0
SEQEND
0
POLYLINE
8
CUT
66
1
70
0
0
VERTEX
8
CUT
10
1.4178
20
14.7201
0
VERTEX
8
CUT
10
0
20
12.4
0
VERTEX
8
CUT
10
0
20
1.6
0
VERTEX
8
CUT
10
0.9778
20
0
0
SEQEND
0
POLYLINE
8
CUT
66
1
70
0
0
VERTEX
8
CUT
10
2.9822
20
14.7201
0
VERTEX
8
CUT
10
4.4
20
12.4
0
VERTEX
8
CUT
10
4.4
20
1.6
0
VERTEX
8
CUT
10
3.4222
20
0
0
SEQEND
0
POLYLINE
8
CUT
66
1
70
0
0
VERTEX
8
CUT
10
6.4
20
70
0
VERTEX
8
CUT
10
6.4
20
64.6
0
VERTEX
8
CUT
10
7.8178
20
62.2799
0
SEQEND
0
POLYLINE
8
CUT
66
1
70
0
0
VERTEX
8
CUT
10
10.8
20
70
0
VERTEX
8
CUT
10
10.8
20
64.6
0
VERTEX
8
CUT
10
9.3822
20
62.2799
0
SEQEND
0
POLYLINE
8
CUT
66
1
70
0
0
VERTEX
8
CUT
10
7.8178
20
59.7201
0
VERTEX
8
CUT
10
6.4
20
57.4
0
VERTEX
8
CUT
10
6.4
20
46.6
0
VERTEX
8
CUT
10
7.8178
20
44.2799
0
SEQEND
0
POLYLINE
8
CUT
66
1
70
0
0
VERTEX
8
CUT
10
9.3822
20
59.7201
0
VERTEX
8
CUT
10
10.8
20
57.4
0
VERTEX
8
CUT
10
10.8
20
46.6
0
VERTEX
8
CUT
10
9.3822
20
44.2799
0
SEQEND
0
POLYLINE
8
CUT
66
1
70
0
0
VERTEX
8
CUT
10
7.8178
20
41.7201
0
VERTEX
8
CUT
10
6.4
20
39.4
0
VERTEX
8
CUT
10
6.4
20
28.6
0
VERTEX
8
CUT
10
7.8178
20
26.2799
0
SEQEND
0
POLYLINE
8
CUT
66
1
70
0
0
VERTEX
8
CUT
10
9.3822
20
41.7201
0
VERTEX
8
CUT
10
10.8
20
39.4
0
VERTEX
8
CUT
10
10.8
20
28.6
0
VERTEX
8
CUT
10
9.3822
20
26.2799
0
SEQEND
0
POLYLINE
8
CUT
66
1
70
0
0
VERTEX
8
CUT
10
7.8178
20
23.7201
0
VERTEX
8
CUT
10
6.4
20
21.4
0
VERTEX
8
CUT
10
6.4
20
10.6
0
VERTEX
8
CUT
10
7.8178
20
8.2799
0
SEQEND
0
POLYLINE
8
CUT
66
1
70
0
0
VERTEX
8
CUT
10
9.3822
20
23.7201
0
VERTEX
8
CUT
10
10.8
20
21.4
0
VERTEX
8
CUT
10
10.8
20
10.6
0
VERTEX
8
CUT
10
9.3822
20
8.2799
0
SEQEND
0
POLYLINE
8
CUT
66
1
70
0
0
VERTEX
8
CUT
10
7.8178
20
5.7201
0
VERTEX
8
CUT
10
6.4
20
3.4
0
VERTEX
8
CUT
10
6.4
20
0
0
SEQEND
0
POLYLINE
8
CUT
66
1
70
0
0
VERTEX
8
CUT
10
9.3822
20
5.7201
0
VERTEX
8
CUT
10
10.8
20
3.4
0
VERTEX
8
CUT
10
10.8
20
0
0
SEQEND
0
POLYLINE
8
CUT
66
1
70
0
0
VERTEX
8
CUT
10
14.2178
20
68.7201
0
VERTEX
8
CUT
10
12.8
20
66.4
0
VERTEX
8
CUT
10
12.8
20
55.6
0
VERTEX
8
CUT
10
14.2178
20
53.2799
0
SEQEND
0
POLYLINE
8
CUT
66
1
70
0
0
VERTEX
8
CUT
10
15.7822
20
68.7201
0
VERTEX
8
CUT
10
17.2
20
66.4
0
VERTEX
8
CUT
10
17.2
20
55.6
0
VERTEX
8
CUT
10
15.7822
20
53.2799
0
SEQEND
0
POLYLINE
8
CUT
66
1
70
0
0
VERTEX
8
CUT
10
14.2178
20
50.7201
0
VERTEX
8
CUT
10
12.8
20
48.4
0
VERTEX
8
CUT
10
12.8
20
37.6
0
VERTEX
8
CUT
10
14.2178
20
35.2799
0
SEQEND
0
POLYLINE
8
CUT
66
1
70
0
0
VERTEX
8
CUT
10
15.7822
20
50.7201
0
VERTEX
8
CUT
10
17.2
20
48.4
0
VERTEX
8
CUT
10
17.2
20
37.6
0
VERTEX
8
CUT
10
15.7822
20
35.2799
0
SEQEND
0
POLYLINE
8
CUT
66
1
70
0
0
VERTEX
8
CUT
10
14.2178
20
32.7201
0
VERTEX
8
CUT
10
12.8
20
30.4
0
VERTEX
8
CUT
10
12.8
20
19.6
0
VERTEX
8
CUT
10
14.2178
20
17.2799
0
SEQEND
0
POLYLINE
8
CUT
66
1
70
0
0
VERTEX
8
CUT
10
15.7822
20
32.7201
0
VERTEX
8
CUT
10
17.2
20
30.4
0
VERTEX
8
CUT
10
17.2
20
19.6
0
VERTEX
8
CUT
10
15.7822
20
17.2799
0
SEQEND
0
POLYLINE
8
CUT
66
1
70
0
0
VERTEX
8
CUT
10
14.2178
20
14.7201
0
VERTEX
8
CUT
10
12.8
20
12.4
0
VERTEX
8
CUT
10
12.8
20
1.6
0
VERTEX
8
CUT
10
13.7778
20
0
0
SEQEND
0
POLYLINE
8
CUT
66
1
70
0
0
VERTEX
8
CUT
10
15.7822
20
14.7201
0
VERTEX
8
CUT
10
17.2
20
12.4
0
VERTEX
8
CUT
10
17.2
20
1.6
0
VERTEX
8
CUT
10
16.2222
20
0
0
SEQEND
0
POLYLINE
8
CUT
66
1
70
0
0
VERTEX
8
CUT
10
19.2
20
70
0
VERTEX
8
CUT
10
19.2
20
64.6
0
VERTEX
8
CUT
10
20.6178
20
62.2799
0
SEQEND
0
POLYLINE
8
CUT
66
1
70
0
0
VERTEX
8
CUT
10
23.6
20
70
0
VERTEX
8
CUT
10
23.6
20
64.6
0
VERTEX
8
CUT
10
22.1822
20
62.2799
0
SEQEND
0
POLYLINE
8
CUT
66
1
70
0
0
VERTEX
8
CUT
10
20.6178
20
59.7201
0
VERTEX
8
CUT
10
19.2
20
57.4
0
VERTEX
8
CUT
10
19.2
20
46.6
0
VERTEX
8
CUT
10
20.6178
20
44.2799
0
SEQEND
0
POLYLINE
8
CUT
66
1
70
0
0
VERTEX
8
CUT
10
22.1822
20
59.7201
0
VERTEX
8
CUT
10
23.6
20
57.4
0
VERTEX
8
CUT
10
23.6
20
46.6
0
VERTEX
8
CUT
10
22.1822
20
44.2799
0
SEQEND
0
POLYLINE
8
CUT
66
1
70
0
0
VERTEX
8
CUT
10
20.6178
20
41.7201
0
VERTEX
8
CUT
10
19.2
20
39.4
0
VERTEX
8
CUT
10
19.2
20
28.6
0
VERTEX
8
CUT
10
20.6178
20
26.2799
0
SEQEND
0
POLYLINE
8
CUT
66
1
70
0
0
VERTEX
8
CUT
10
22.1822
20
41.7201
0
VERTEX
8
CUT
10
23.6
20
39.4
0
VERTEX
8
CUT
10
23.6
20
28.6
0
VERTEX
8
CUT
10
22.1822
20
26.2799
0
SEQEND
0
POLYLINE
8
CUT
66
1
70
0
0
VERTEX
8
CUT
10
20.6178
20
23.7201
0
VERTEX
8
CUT
10
19.2
20
21.4
0
VERTEX
8
CUT
10
19.2
20
10.6
0
VERTEX
8
CUT
10
20.6178
20
8.2799
0
SEQEND
0
POLYLINE
8
CUT
66
1
70
0
0
VERTEX
8
CUT
10
22.1822
20
23.7201
0
VERTEX
8
CUT
10
23.6
20
21.4
0
VERTEX
8
CUT
10
23.6
20
10.6
0
VERTEX
8
CUT
10
22.1822
20
8.2799
0
SEQEND
0
POLYLINE
8
CUT
66
1
70
0
0
VERTEX
8
CUT
10
20.6178
20
5.7201
0
VERTEX
8
CUT
10
19.2
20
3.4
0
VERTEX
8
CUT
10
19.2
20
0
0
SEQEND
0
POLYLINE
8
CUT
66
1
70
0
0
VERTEX
8
CUT
10
22.1822
20
5.7201
0
VERTEX
8
CUT
10
23.6
20
3.4
0
VERTEX
8
CUT
10
23.6
20
0
0
SEQEND
0
POLYLINE
8
CUT
66
1
70
0
0
VERTEX
8
CUT
10
27.0178
20
68.7201
0
VERTEX
8
CUT
10
25.6
20
66.4
0
VERTEX
8
CUT
10
25.6
20
55.6
0
VERTEX
8
CUT
10
27.0178
20
53.2799
0
SEQEND
0
POLYLINE
8
CUT
66
1
70
0
0
VERTEX
8
CUT
10
28.5822
20
68.7201
0
VERTEX
8
CUT
10
30
20
66.4
0
VERTEX
8
CUT
10
30
20
55.6
0
VERTEX
8
CUT
10
28.5822
20
53.2799
0
SEQEND
0
POLYLINE
8
CUT
66
1
70
0
0
VERTEX
8
CUT
10
27.0178
20
50.7201
0
VERTEX
8
CUT
10
25.6
20
48.4
0
VERTEX
8
CUT
10
25.6
20
37.6
0
VERTEX
8
CUT
10
27.0178
20
35.2799
0
SEQEND
0
POLYLINE
8
CUT
66
1
70
0
0
VERTEX
8
CUT
10
28.5822
20
50.7201
0
VERTEX
8
CUT
10
30
20
48.4
0
VERTEX
8
CUT
10
30
20
37.6
0
VERTEX
8
CUT
10
28.5822
20
35.2799
0
SEQEND
0
POLYLINE
8
CUT
66
1
70
0
0
VERTEX
8
CUT
10
27.0178
20
32.7201
0
VERTEX
8
CUT
10
25.6
20
30.4
0
VERTEX
8
CUT
10
25.6
20
19.6
0
VERTEX
8
CUT
10
27.0178
20
17.2799
0
SEQEND
0
POLYLINE
8
CUT
66
1
70
0
0
VERTEX
8
CUT
10
28.5822
20
32.7201
0
VERTEX
8
CUT
10
30
20
30.4
0
VERTEX
8
CUT
10
30
20
19.6
0
VERTEX
8
CUT
10
28.5822
20
17.2799
0
SEQEND
0
POLYLINE
8
CUT
66
1
70
0
0
VERTEX
8
CUT
10
27.0178
20
14.7201
0
VERTEX
8
CUT
10
25.6
20
12.4
0
VERTEX
8
CUT
10
25.6
20
1.6
0
VERTEX
8
CUT
10
26.5778
20
0
0
SEQEND
0
POLYLINE
8
CUT
66
1
70
0
0
VERTEX
8
CUT
10
28.5822
20
14.7201
0
VERTEX
8
CUT
10
30
20
12.4
0
VERTEX
8
CUT
10
30
20
1.6
0
VERTEX
8
CUT
10
29.0222
20
0
0
SEQEND
0
POLYLINE
8
CUT
66
1
70
0
0
VERTEX
8
CUT
10
32
20
70
0
VERTEX
8
CUT
10
32
20
64.6
0
VERTEX
8
CUT
10
33.4178
20
62.2799
0
SEQEND
0
POLYLINE
8
CUT
66
1
70
0
0
VERTEX
8
CUT
10
36.4
20
70
0
VERTEX
8
CUT
10
36.4
20
64.6
0
VERTEX
8
CUT
10
34.9822
20
62.2799
0
SEQEND
0
POLYLINE
8
CUT
66
1
70
0
0
VERTEX
8
CUT
10
33.4178
20
59.7201
0
VERTEX
8
CUT
10
32
20
57.4
0
VERTEX
8
CUT
10
32
20
46.6
0
VERTEX
8
CUT
10
33.4178
20
44.2799
0
SEQEND
0
POLYLINE
8
CUT
66
1
70
0
0
VERTEX
8
CUT
10
34.9822
20
59.7201
0
VERTEX
8
CUT
10
36.4
20
57.4
0
VERTEX
8
CUT
10
36.4
20
46.6
0
VERTEX
8
CUT
10
34.9822
20
44.2799
0
SEQEND
0
POLYLINE
8
CUT
66
1
70
0
0
VERTEX
8
CUT
10
33.4178
20
41.7201
0
VERTEX
8
CUT
10
32
20
39.4
0
VERTEX
8
CUT
10
32
20
28.6
0
VERTEX
8
CUT
10
33.4178
20
26.2799
0
SEQEND
0
POLYLINE
8
CUT
66
1
70
0
0
VERTEX
8
CUT
10
34.9822
20
41.7201
0
VERTEX
8
CUT
10
36.4
20
39.4
0
VERTEX
8
CUT
10
36.4
20
28.6
0
VERTEX
8
CUT
10
34.9822
20
26.2799
0
SEQEND
0
POLYLINE
8
CUT
66
1
70
0
0
VERTEX
8
CUT
10
33.4178
20
23.7201
0
VERTEX
8
CUT
10
32
20
21.4
0
VERTEX
8
CUT
10
32
20
10.6
0
VERTEX
8
CUT
10
33.4178
20
8.2799
0
SEQEND
0
POLYLINE
8
CUT
66
1
70
0
0
VERTEX
8
CUT
10
34.9822
20
23.7201
0
VERTEX
8
CUT
10
36.4
20
21.4
0
VERTEX
8
CUT
10
36.4
20
10.6
0
VERTEX
8
CUT
10
34.9822
20
8.2799
0
SEQEND
0
POLYLINE
8
CUT
66
1
70
0
0
VERTEX
8
CUT
10
33.4178
20
5.7201
0
VERTEX
8
CUT
10
32
20
3.4
0
VERTEX
8
CUT
10
32
20
0
0
SEQEND
0
POLYLINE
8
CUT
66
1
70
0
0
VERTEX
8
CUT
10
34.9822
20
5.7201
0
VERTEX
8
CUT
10
36.4
20
3.4
0
VERTEX
8
CUT
10
36.4
20
0
0
SEQEND
0
POLYLINE
8
CUT
66
1
70
0
0
VERTEX
8
CUT
10
39.8178
20
68.7201
0
VERTEX
8
CUT
10
38.4
20
66.4
0
VERTEX
8
CUT
10
38.4
20
55.6
0
VERTEX
8
CUT
10
39.8178
20
53.2799
0
SEQEND
0
POLYLINE
8
CUT
66
1
70
0
0
VERTEX
8
CUT
10
41.3822
20
68.7201
0
VERTEX
8
CUT
10
42.8
20
66.4
0
VERTEX
8
CUT
10
42.8
20
55.6
0
VERTEX
8
CUT
10
41.3822
20
53.2799
0
SEQEND
0
POLYLINE
8
CUT
66
1
70
0
0
VERTEX
8
CUT
10
39.8178
20
50.7201
0
VERTEX
8
CUT
10
38.4
20
48.4
0
VERTEX
8
CUT
10
38.4
20
37.6
0
VERTEX
8
CUT
10
39.8178
20
35.2799
0
SEQEND
0
POLYLINE
8
CUT
66
1
70
0
0
VERTEX
8
CUT
10
41.3822
20
50.7201
0
VERTEX
8
CUT
10
42.8
20
48.4
0
VERTEX
8
CUT
10
42.8
20
37.6
0
VERTEX
8
CUT
10
41.3822
20
35.2799
0
SEQEND
0
POLYLINE
8
CUT
66
1
70
0
0
VERTEX
8
CUT
10
39.8178
20
32.7201
0
VERTEX
8
CUT
10
38.4
20
30.4
0
VERTEX
8
CUT
10
38.4
20
19.6
0
VERTEX
8
CUT
10
39.8178
20
17.2799
0
SEQEND
0
POLYLINE
8
CUT
66
1
70
0
0
VERTEX
8
CUT
10
41.3822
20
32.7201
0
VERTEX
8
CUT
10
42.8
20
30.4
0
VERTEX
8
CUT
10
42.8
20
19.6
0
VERTEX
8
CUT
10
41.3822
20
17.2799
0
SEQEND
0
POLYLINE
8
CUT
66
1
70
0
0
VERTEX
8
CUT
10
39.8178
20
14.7201
0
VERTEX
8
CUT
10
38.4
20
12.4
0
VERTEX
8
CUT
10
38.4
20
1.6
0
VERTEX
8
CUT
10
39.3778
20
0
0
SEQEND
0
POLYLINE
8
CUT
66
1
70
0
0
VERTEX
8
CUT
10
41.3822
20
14.7201
0
VERTEX
8
CUT
10
42.8
20
12.4
0
VERTEX
8
CUT
10
42.8
20
1.6
0
VERTEX
8
CUT
10
41.8222
20
0
0
SEQEND
0
POLYLINE
8
CUT
66
1
70
0
0
VERTEX
8
CUT
10
44.8
20
70
0
VERTEX
8
CUT
10
44.8
20
64.6
0
VERTEX
8
CUT
10
46.2178
20
62.2799
0
SEQEND
0
POLYLINE
8
CUT
66
1
70
0
0
VERTEX
8
CUT
10
49.2
20
70
0
VERTEX
8
CUT
10
49.2
20
64.6
0
VERTEX
8
CUT
10
47.7822
20
62.2799
0
SEQEND
0
POLYLINE
8
CUT
66
1
70
0
0
VERTEX
8
CUT
10
46.2178
20
59.7201
0
VERTEX
8
CUT
10
44.8
20
57.4
0
VERTEX
8
CUT
10
44.8
20
46.6
0
VERTEX
8
CUT
10
46.2178
20
44.2799
0
SEQEND
0
POLYLINE
8
CUT
66
1
70
0
0
VERTEX
8
CUT
10
47.7822
20
59.7201
0
VERTEX
8
CUT
10
49.2
20
57.4
0
VERTEX
8
CUT
10
49.2
20
46.6
0
VERTEX
8
CUT
10
47.7822
20
44.2799
0
SEQEND
0
POLYLINE
8
CUT
66
1
70
0
0
VERTEX
8
CUT
10
46.2178
20
41.7201
0
VERTEX
8
CUT
10
44.8
20
39.4
0
VERTEX
8
CUT
10
44.8
20
28.6
0
VERTEX
8
CUT
10
46.2178
20
26.2799
0
SEQEND
0
POLYLINE
8
CUT
66
1
70
0
0
VERTEX
8
CUT
10
47.7822
20
41.7201
0
VERTEX
8
CUT
10
49.2
20
39.4
0
VERTEX
8
CUT
10
49.2
20
28.6
0
VERTEX
8
CUT
10
47.7822
20
26.2799
0
SEQEND
0
POLYLINE
8
CUT
66
1
70
0
0
VERTEX
8
CUT
10
46.2178
20
23.7201
0
VERTEX
8
CUT
10
44.8
20
21.4
0
VERTEX
8
CUT
10
44.8
20
10.6
0
VERTEX
8
CUT
10
46.2178
20
8.2799
0
SEQEND
0
POLYLINE
8
CUT
66
1
70
0
0
VERTEX
8
CUT
10
47.7822
20
23.7201
0
VERTEX
8
CUT
10
49.2
20
21.4
0
VERTEX
8
CUT
10
49.2
20
10.6
0
VERTEX
8
CUT
10
47.7822
20
8.2799
0
SEQEND
0
POLYLINE
8
CUT
66
1
70
0
0
VERTEX
8
CUT
10
46.2178
20
5.7201
0
VERTEX
8
CUT
10
44.8
20
3.4
0
VERTEX
8
CUT
10
44.8
20
0
0
SEQEND
0
POLYLINE
8
CUT
66
1
70
0
0
VERTEX
8
CUT
10
47.7822
20
5.7201
0
VERTEX
8
CUT
10
49.2
20
3.4
0
VERTEX
8
CUT
10
49.2
20
0
0
SEQEND
0
POLYLINE
8
CUT
66
1
70
0
0
VERTEX
8
CUT
10
52.6178
20
68.7201
0
VERTEX
8
CUT
10
51.2
20
66.4
0
VERTEX
8
CUT
10
51.2
20
55.6
0
VERTEX
8
CUT
10
52.6178
20
53.2799
0
SEQEND
0
POLYLINE
8
CUT
66
1
70
0
0
VERTEX
8
CUT
10
54.1822
20
68.7201
0
VERTEX
8
CUT
10
55.6
20
66.4
0
VERTEX
8
CUT
10
55.6
20
55.6
0
VERTEX
8
CUT
10
54.1822
20
53.2799
0
SEQEND
0
POLYLINE
8
CUT
66
1
70
0
0
VERTEX
8
CUT
10
52.6178
20
50.7201
0
VERTEX
8
CUT
10
51.2
20
48.4
0
VERTEX
8
CUT
10
51.2
20
37.6
0
VERTEX
8
CUT
10
52.6178
20
35.2799
0
SEQEND
0
POLYLINE
8
CUT
66
1
70
0
0
VERTEX
8
CUT
10
54.1822
20
50.7201
0
VERTEX
8
CUT
10
55.6
20
48.4
0
VERTEX
8
CUT
10
55.6
20
37.6
0
VERTEX
8
CUT
10
54.1822
20
35.2799
0
SEQEND
0
POLYLINE
8
CUT
66
1
70
0
0
VERTEX
8
CUT
10
52.6178
20
32.7201
0
VERTEX
8
CUT
10
51.2
20
30.4
0
VERTEX
8
CUT
10
51.2
20
19.6
0
VERTEX
8
CUT
10
52.6178
20
17.2799
0
SEQEND
0
POLYLINE
8
CUT
66
1
70
0
0
VERTEX
8
CUT
10
54.1822
20
32.7201
0
VERTEX
8
CUT
10
55.6
20
30.4
0
VERTEX
8
CUT
10
55.6
20
19.6
0
VERTEX
8
CUT
10
54.1822
20
17.2799
0
SEQEND
0
POLYLINE
8
CUT
66
1
70
0
0
VERTEX
8
CUT
10
52.6178
20
14.7201
0
VERTEX
8
CUT
10
51.2
20
12.4
0
VERTEX
8
CUT
10
51.2
20
1.6
0
VERTEX
8
CUT
10
52.1778
20
0
0
SEQEND
0
POLYLINE
8
CUT
66
1
70
0
0
VERTEX
8
CUT
10
54.1822
20
14.7201
0
VERTEX
8
CUT
10
55.6
20
12.4
0
VERTEX
8
CUT
10
55.6
20
1.6
0
VERTEX
8
CUT
10
54.6222
20
0
0
SEQEND
0
POLYLINE
8
CUT
66
1
70
0
0
VERTEX
8
CUT
10
57.6
20
70
0
VERTEX
8
CUT
10
57.6
20
64.6
0
VERTEX
8
CUT
10
59.0178
20
62.2799
0
SEQEND
0
POLYLINE
8
CUT
66
1
70
0
0
VERTEX
8
CUT
10
62
20
70
0
VERTEX
8
CUT
10
62
20
64.6
0
VERTEX
8
CUT
10
60.5822
20
62.2799
0
SEQEND
0
POLYLINE
8
CUT
66
1
70
0
0
VERTEX
8
CUT
10
59.0178
20
59.7201
0
VERTEX
8
CUT
10
57.6
20
57.4
0
VERTEX
8
CUT
10
57.6
20
46.6
0
VERTEX
8
CUT
10
59.0178
20
44.2799
0
SEQEND
0
POLYLINE
8
CUT
66
1
70
0
0
VERTEX
8
CUT
10
60.5822
20
59.7201
0
VERTEX
8
CUT
10
62
20
57.4
0
VERTEX
8
CUT
10
62
20
46.6
0
VERTEX
8
CUT
10
60.5822
20
44.2799
0
SEQEND
0
POLYLINE
8
CUT
66
1
70
0
0
VERTEX
8
CUT
10
59.0178
20
41.7201
0
VERTEX
8
CUT
10
57.6
20
39.4
0
VERTEX
8
CUT
10
57.6
20
28.6
0
VERTEX
8
CUT
10
59.0178
20
26.2799
0
SEQEND
0
POLYLINE
8
CUT
66
1
70
0
0
VERTEX
8
CUT
10
60.5822
20
41.7201
0
VERTEX
8
CUT
10
62
20
39.4
0
VERTEX
8
CUT
10
62
20
28.6
0
VERTEX
8
CUT
10
60.5822
20
26.2799
0
SEQEND
0
POLYLINE
8
CUT
66
1
70
0
0
VERTEX
8
CUT
10
59.0178
20
23.7201
0
VERTEX
8
CUT
10
57.6
20
21.4
0
VERTEX
8
CUT
10
57.6
20
10.6
0
VERTEX
8
CUT
10
59.0178
20
8.2799
0
SEQEND
0
POLYLINE
8
CUT
66
1
70
0
0
VERTEX
8
CUT
10
60.5822
20
23.7201
0
VERTEX
8
CUT
10
62
20
21.4
0
VERTEX
8
CUT
10
62
20
10.6
0
VERTEX
8
CUT
10
60.5822
20
8.2799
0
SEQEND
0
POLYLINE
8
CUT
66
1
70
0
0
VERTEX
8
CUT
10
59.0178
20
5.7201
0
VERTEX
8
CUT
10
57.6
20
3.4
0
VERTEX
8
CUT
10
57.6
20
0
0
SEQEND
0
POLYLINE
8
CUT
66
1
70
0
0
VERTEX
8
CUT
10
60.5822
20
5.7201
0
VERTEX
8
CUT
10
62
20
3.4
0
VERTEX
8
CUT
10
62
20
0
0
SEQEND
0
POLYLINE
8
CUT
66
1
70
0
0
VERTEX
8
CUT
10
65.4178
20
68.7201
0
VERTEX
8
CUT
10
64
20
66.4
0
VERTEX
8
CUT
10
64
20
55.6
0
VERTEX
8
CUT
10
65.4178
20
53.2799
0
SEQEND
0
POLYLINE
8
CUT
66
1
70
0
0
VERTEX
8
CUT
10
66.9822
20
68.7201
0
VERTEX
8
CUT
10
68.4
20
66.4
0
VERTEX
8
CUT
10
68.4
20
55.6
0
VERTEX
8
CUT
10
66.9822
20
53.2799
0
SEQEND
0
POLYLINE
8
CUT
66
1
70
0
0
VERTEX
8
CUT
10
65.4178
20
50.7201
0
VERTEX
8
CUT
10
64
20
48.4
0
VERTEX
8
CUT
10
64
20
37.6
0
VERTEX
8
CUT
10
65.4178
20
35.2799
0
SEQEND
0
POLYLINE
8
CUT
66
1
70
0
0
VERTEX
8
CUT
10
66.9822
20
50.7201
0
VERTEX
8
CUT
10
68.4
20
48.4
0
VERTEX
8
CUT
10
68.4
20
37.6
0
VERTEX
8
CUT
10
66.9822
20
35.2799
0
SEQEND
0
POLYLINE
8
CUT
66
1
70
0
0
VERTEX
8
CUT
10
65.4178
20
32.7201
0
VERTEX
8
CUT
10
64
20
30.4
0
VERTEX
8
CUT
10
64
20
19.6
0
VERTEX
8
CUT
10
65.4178
20
17.2799
0
SEQEND
0
POLYLINE
8
CUT
66
1
70
0
0
VERTEX
8
CUT
10
66.9822
20
32.7201
0
VERTEX
8
CUT
10
68.4
20
30.4
0
VERTEX
8
CUT
10
68.4
20
19.6
0
VERTEX
8
CUT
10
66.9822
20
17.2799
0
SEQEND
0
POLYLINE
8
CUT
66
1
70
0
0
VERTEX
8
CUT
10
65.4178
20
14.7201
0
VERTEX
8
CUT
10
64
20
12.4
0
VERTEX
8
CUT
10
64
20
1.6
0
VERTEX
8
CUT
10
64.9778
20
0
0
SEQEND
0
POLYLINE
8
CUT
66
1
70
0
0
VERTEX
8
CUT
10
66.9822
20
14.7201
0
VERTEX
8
CUT
10
68.4
20
12.4
0
VERTEX
8
CUT
10
68.4
20
1.6
0
VERTEX
8
CUT
10
67.4222
20
0
0
SEQEND
0
POLYLINE
8
CUT
66
1
70
0
0
VERTEX
8
CUT
10
70.4
20
70
0
VERTEX
8
CUT
10
70.4
20
64.6
0
VERTEX
8
CUT
10
71.8178
20
62.2799
0
SEQEND
0
POLYLINE
8
CUT
66
1
70
0
0
VERTEX
8
CUT
10
74.8
20
70
0
VERTEX
8
CUT
10
74.8
20
64.6
0
VERTEX
8
CUT
10
73.3822
20
62.2799
0
SEQEND
0
POLYLINE
8
CUT
66
1
70
0
0
VERTEX
8
CUT
10
71.8178
20
59.7201
0
VERTEX
8
CUT
10
70.4
20
57.4
0
VERTEX
8
CUT
10
70.4
20
46.6
0
VERTEX
8
CUT
10
71.8178
20
44.2799
0
SEQEND
0
POLYLINE
8
CUT
66
1
70
0
0
VERTEX
8
CUT
10
73.3822
20
59.7201
0
VERTEX
8
CUT
10
74.8
20
57.4
0
VERTEX
8
CUT
10
74.8
20
46.6
0
VERTEX
8
CUT
10
73.3822
20
44.2799
0
SEQEND
0
POLYLINE
8
CUT
66
1
70
0
0
VERTEX
8
CUT
10
71.8178
20
41.7201
0
VERTEX
8
CUT
10
70.4
20
39.4
0
VERTEX
8
CUT
10
70.4
20
28.6
0
VERTEX
8
CUT
10
71.8178
20
26.2799
0
SEQEND
0
POLYLINE
8
CUT
66
1
70
0
0
VERTEX
8
CUT
10
73.3822
20
41.7201
0
VERTEX
8
CUT
10
74.8
20
39.4
0
VERTEX
8
CUT
10
74.8
20
28.6
0
VERTEX
8
CUT
10
73.3822
20
26.2799
0
SEQEND
0
POLYLINE
8
CUT
66
1
70
0
0
VERTEX
8
CUT
10
71.8178
20
23.7201
0
VERTEX
8
CUT
10
70.4
20
21.4
0
VERTEX
8
CUT
10
70.4
20
10.6
0
VERTEX
8
CUT
10
71.8178
20
8.2799
0
SEQEND
0
POLYLINE
8
CUT
66
1
70
0
0
VERTEX
8
CUT
10
73.3822
20
23.7201
0
VERTEX
8
CUT
10
74.8
20
21.4
0
VERTEX
8
CUT
10
74.8
20
10.6
0
VERTEX
8
CUT
10
73.3822
20
8.2799
0
SEQEND
0
POLYLINE
8
CUT
66
1
70
0
0
VERTEX
8
CUT
10
71.8178
20
5.7201
0
VERTEX
8
CUT
10
70.4
20
3.4
0
VERTEX
8
CUT
10
70.4
20
0
0
SEQEND
0
POLYLINE
8
CUT
66
1
70
0
0
VERTEX
8
CUT
10
73.3822
20
5.7201
0
VERTEX
8
CUT
10
74.8
20
3.4
0
VERTEX
8
CUT
10
74.8
20
0
0
SEQEND
0
POLYLINE
8
CUT
66
1
70
0
0
VERTEX
8
CUT
10
78.2178
20
68.7201
0
VERTEX
8
CUT
10
76.8
20
66.4
0
VERTEX
8
CUT
10
76.8
20
55.6
0
VERTEX
8
CUT
10
78.2178
20
53.2799
0
SEQEND
0
POLYLINE
8
CUT
66
1
70
0
0
VERTEX
8
CUT
10
79.7822
20
68.7201
0
VERTEX
8
CUT
10
81.2
20
66.4
0
VERTEX
8
CUT
10
81.2
20
55.6
0
VERTEX
8
CUT
10
79.7822
20
53.2799
0
SEQEND
0
POLYLINE
8
CUT
66
1
70
0
0
VERTEX
8
CUT
10
78.2178
20
50.7201
0
VERTEX
8
CUT
10
76.8
20
48.4
0
VERTEX
8
CUT
10
76.8
20
37.6
0
VERTEX
8
CUT
10
78.2178
20
35.2799
0
SEQEND
0
POLYLINE
8
CUT
66
1
70
0
0
VERTEX
8
CUT
10
79.7822
20
50.7201
0
VERTEX
8
CUT
10
81.2
20
48.4
0
VERTEX
8
CUT
10
81.2
20
37.6
0
VERTEX
8
CUT
10
79.7822
20
35.2799
0
SEQEND
0
POLYLINE
8
CUT
66
1
70
0
0
VERTEX
8
CUT
10
78.2178
20
32.7201
0
VERTEX
8
CUT
10
76.8
20
30.4
0
VERTEX
8
CUT
10
76.8
20
19.6
0
VERTEX
8
CUT
10
78.2178
20
17.2799
0
SEQEND
0
POLYLINE
8
CUT
66
1
70
0
0
VERTEX
8
CUT
10
79.7822
20
32.7201
0
VERTEX
8
CUT
10
81.2
20
30.4
0
VERTEX
8
CUT
10
81.2
20
19.6
0
VERTEX
8
CUT
10
79.7822
20
17.2799
0
SEQEND
0
POLYLINE
8
CUT
66
1
70
0
0
VERTEX
8
CUT
10
78.2178
20
14.7201
0
VERTEX
8
CUT
10
76.8
20
12.4
0
VERTEX
8
CUT
10
76.8
20
1.6
0
VERTEX
8
CUT
10
77.7778
20
0
0
SEQEND
0
POLYLINE
8
CUT
66
1
70
0
0
VERTEX
8
CUT
10
79.7822
20
14.7201
0
VERTEX
8
CUT
10
81.2
20
12.4
0
VERTEX
8
CUT
10
81.2
20
1.6
0
VERTEX
8
CUT
10
80.2222
20
0
0
SEQEND
0
POLYLINE
8
CUT
66
1
70
0
0
VERTEX
8
CUT
10
83.2
20
70
0
VERTEX
8
CUT
10
83.2
20
64.6
0
VERTEX
8
CUT
10
84.6178
20
62.2799
0
SEQEND
0
POLYLINE
8
CUT
66
1
70
0
0
VERTEX
8
CUT
10
87.6
20
70
0
VERTEX
8
CUT
10
87.6
20
64.6
0
VERTEX
8
CUT
10
86.1822
20
62.2799
0
SEQEND
0
POLYLINE
8
CUT
66
1
70
0
0
VERTEX
8
CUT
10
84.6178
20
59.7201
0
VERTEX
8
CUT
10
83.2
20
57.4
0
VERTEX
8
CUT
10
83.2
20
46.6
0
VERTEX
8
CUT
10
84.6178
20
44.2799
0
SEQEND
0
POLYLINE
8
CUT
66
1
70
0
0
VERTEX
8
CUT
10
86.1822
20
59.7201
0
VERTEX
8
CUT
10
87.6
20
57.4
0
VERTEX
8
CUT
10
87.6
20
46.6
0
VERTEX
8
CUT
10
86.1822
20
44.2799
0
SEQEND
0
POLYLINE
8
CUT
66
1
70
0
0
VERTEX
8
CUT
10
84.6178
20
41.7201
0
VERTEX
8
CUT
10
83.2
20
39.4
0
VERTEX
8
CUT
10
83.2
20
28.6
0
VERTEX
8
CUT
10
84.6178
20
26.2799
0
SEQEND
0
POLYLINE
8
CUT
66
1
70
0
0
VERTEX
8
CUT
10
86.1822
20
41.7201
0
VERTEX
8
CUT
10
87.6
20
39.4
0
VERTEX
8
CUT
10
87.6
20
28.6
0
VERTEX
8
CUT
10
86.1822
20
26.2799
0
SEQEND
0
POLYLINE
8
CUT
66
1
70
0
0
VERTEX
8
CUT
10
84.6178
20
23.7201
0
VERTEX
8
CUT
10
83.2
20
21.4
0
VERTEX
8
CUT
10
83.2
20
10.6
0
VERTEX
8
CUT
10
84.6178
20
8.2799
0
SEQEND
0
POLYLINE
8
CUT
66
1
70
0
0
VERTEX
8
CUT
10
86.1822
20
23.7201
0
VERTEX
8
CUT
10
87.6
20
21.4
0
VERTEX
8
CUT
10
87.6
20
10.6
0
VERTEX
8
CUT
10
86.1822
20
8.2799
0
SEQEND
0
POLYLINE
8
CUT
66
1
70
0
0
VERTEX
8
CUT
10
84.6178
20
5.7201
0
VERTEX
8
CUT
10
83.2
20
3.4
0
VERTEX
8
CUT
10
83.2
20
0
0
SEQEND
0
POLYLINE
8
CUT
66
1
70
0
0
VERTEX
8
CUT
10
86.1822
20
5.7201
0
VERTEX
8
CUT
10
87.6
20
3.4
0
VERTEX
8
CUT
10
87.6
20
0
0
SEQEND
0
POLYLINE
8
CUT
66
1
70
0
0
VERTEX
8
CUT
10
91.0178
20
68.7201
0
VERTEX
8
CUT
10
89.6
20
66.4
0
VERTEX
8
CUT
10
89.6
20
55.6
0
VERTEX
8
CUT
10
91.0178
20
53.2799
0
SEQEND
0
POLYLINE
8
CUT
66
1
70
0
0
VERTEX
8
CUT
10
92.5822
20
68.7201
0
VERTEX
8
CUT
10
94
20
66.4
0
VERTEX
8
CUT
10
94
20
55.6
0
VERTEX
8
CUT
10
92.5822
20
53.2799
0
SEQEND
0
POLYLINE
8
CUT
66
1
70
0
0
VERTEX
8
CUT
10
91.0178
20
50.7201
0
VERTEX
8
CUT
10
89.6
20
48.4
0
VERTEX
8
CUT
10
89.6
20
37.6
0
VERTEX
8
CUT
10
91.0178
20
35.2799
0
SEQEND
0
POLYLINE
8
CUT
66
1
70
0
0
VERTEX
8
CUT
10
92.5822
20
50.7201
0
VERTEX
8
CUT
10
94
20
48.4
0
VERTEX
8
CUT
10
94
20
37.6
0
VERTEX
8
CUT
10
92.5822
20
35.2799
0
SEQEND
0
POLYLINE
8
CUT
66
1
70
0
0
VERTEX
8
CUT
10
91.0178
20
32.7201
0
VERTEX
8
CUT
10
89.6
20
30.4
0
VERTEX
8
CUT
10
89.6
20
19.6
0
VERTEX
8
CUT
10
91.0178
20
17.2799
0
SEQEND
0
POLYLINE
8
CUT
66
1
70
0
0
VERTEX
8
CUT
10
92.5822
20
32.7201
0
VERTEX
8
CUT
10
94
20
30.4
0
VERTEX
8
CUT
10
94
20
19.6
0
VERTEX
8
CUT
10
92.5822
20
17.2799
0
SEQEND
0
POLYLINE
8
CUT
66
1
70
0
0
VERTEX
8
CUT
10
91.0178
20
14.7201
0
VERTEX
8
CUT
10
89.6
20
12.4
0
VERTEX
8
CUT
10
89.6
20
1.6
0
VERTEX
8
CUT
10
90.5778
20
0
0
SEQEND
0
POLYLINE
8
CUT
66
1
70
0
0
VERTEX
8
CUT
10
92.5822
20
14.7201
0
VERTEX
8
CUT
10
94
20
12.4
0
VERTEX
8
CUT
10
94
20
1.6
0
VERTEX
8
CUT
10
93.0222
20
0
0
SEQEND
0
POLYLINE
8
CUT
66
1
70
0
0
VERTEX
8
CUT
10
96
20
70
0
VERTEX
8
CUT
10
96
20
64.6
0
VERTEX
8
CUT
10
97.4178
20
62.2799
0
SEQEND
0
POLYLINE
8
CUT
66
1
70
0
0
VERTEX
8
CUT
10
100.4
20
70
0
VERTEX
8
CUT
10
100.4
20
64.6
0
VERTEX
8
CUT
10
98.9822
20
62.2799
0
SEQEND
0
POLYLINE
8
CUT
66
1
70
0
0
VERTEX
8
CUT
10
97.4178
20
59.7201
0
VERTEX
8
CUT
10
96
20
57.4
0
VERTEX
8
CUT
10
96
20
46.6
0
VERTEX
8
CUT
10
97.4178
20
44.2799
0
SEQEND
0
POLYLINE
8
CUT
66
1
70
0
0
VERTEX
8
CUT
10
98.9822
20
59.7201
0
VERTEX
8
CUT
10
100.4
20
57.4
0
VERTEX
8
CUT
10
100.4
20
46.6
0
VERTEX
8
CUT
10
98.9822
20
44.2799
0
SEQEND
0
POLYLINE
8
CUT
66
1
70
0
0
VERTEX
8
CUT
10
97.4178
20
41.7201
0
VERTEX
8
CUT
10
96
20
39.4
0
VERTEX
8
CUT
10
96
20
28.6
0
VERTEX
8
CUT
10
97.4178
20
26.2799
0
SEQEND
0
POLYLINE
8
CUT
66
1
70
0
0
VERTEX
8
CUT
10
98.9822
20
41.7201
0
VERTEX
8
CUT
10
100.4
20
39.4
0
VERTEX
8
CUT
10
100.4
20
28.6
0
VERTEX
8
CUT
10
98.9822
20
26.2799
0
SEQEND
0
POLYLINE
8
CUT
66
1
70
0
0
VERTEX
8
CUT
10
97.4178
20
23.7201
0
VERTEX
8
CUT
10
96
20
21.4
0
VERTEX
8
CUT
10
96
20
10.6
0
VERTEX
8
CUT
10
97.4178
20
8.2799
0
SEQEND
0
POLYLINE
8
CUT
66
1
70
0
0
VERTEX
8
CUT
10
98.9822
20
23.7201
0
VERTEX
8
CUT
10
100.4
20
21.4
0
VERTEX
8
CUT
10
100.4
20
10.6
0
VERTEX
8
CUT
10
98.9822
20
8.2799
0
SEQEND
0
POLYLINE
8
CUT
66
1
70
0
0
VERTEX
8
CUT
10
97.4178
20
5.7201
0
VERTEX
8
CUT
10
96
20
3.4
0
VERTEX
8
CUT
10
96
20
0
0
SEQEND
0
POLYLINE
8
CUT
66
1
70
0
0
VERTEX
8
CUT
10
98.9822
20
5.7201
0
VERTEX
8
CUT
10
100.4
20
3.4
0
VERTEX
8
CUT
10
100.4
20
0
0
SEQEND
0
POLYLINE
8
CUT
66
1
70
0
0
VERTEX
8
CUT
10
103.8178
20
68.7201
0
VERTEX
8
CUT
10
102.4
20
66.4
0
VERTEX
8
CUT
10
102.4
20
55.6
0
VERTEX
8
CUT
10
103.8178
20
53.2799
0
SEQEND
0
POLYLINE
8
CUT
66
1
70
0
0
VERTEX
8
CUT
10
105.3822
20
68.7201
0
VERTEX
8
CUT
10
106.8
20
66.4
0
VERTEX
8
CUT
10
106.8
20
55.6
0
VERTEX
8
CUT
10
105.3822
20
53.2799
0
SEQEND
0
POLYLINE
8
CUT
66
1
70
0
0
VERTEX
8
CUT
10
103.8178
20
50.7201
0
VERTEX
8
CUT
10
102.4
20
48.4
0
VERTEX
8
CUT
10
102.4
20
37.6
0
VERTEX
8
CUT
10
103.8178
20
35.2799
0
SEQEND
0
POLYLINE
8
CUT
66
1
70
0
0
VERTEX
8
CUT
10
105.3822
20
50.7201
0
VERTEX
8
CUT
10
106.8
20
48.4
0
VERTEX
8
CUT
10
106.8
20
37.6
0
VERTEX
8
CUT
10
105.3822
20
35.2799
0
SEQEND
0
POLYLINE
8
CUT
66
1
70
0
0
VERTEX
8
CUT
10
103.8178
20
32.7201
0
VERTEX
8
CUT
10
102.4
20
30.4
0
VERTEX
8
CUT
10
102.4
20
19.6
0
VERTEX
8
CUT
10
103.8178
20
17.2799
0
SEQEND
0
POLYLINE
8
CUT
66
1
70
0
0
VERTEX
8
CUT
10
105.3822
20
32.7201
0
VERTEX
8
CUT
10
106.8
20
30.4
0
VERTEX
8
CUT
10
106.8
20
19.6
0
VERTEX
8
CUT
10
105.3822
20
17.2799
0
SEQEND
0
POLYLINE
8
CUT
66
1
70
0
0
VERTEX
8
CUT
10
103.8178
20
14.7201
0
VERTEX
8
CUT
10
102.4
20
12.4
0
VERTEX
8
CUT
10
102.4
20
1.6
0
VERTEX
8
CUT
10
103.3778
20
0
0
SEQEND
0
POLYLINE
8
CUT
66
1
70
0
0
VERTEX
8
CUT
10
105.3822
20
14.7201
0
VERTEX
8
CUT
10
106.8
20
12.4
0
VERTEX
8
CUT
10
106.8
20
1.6
0
VERTEX
8
CUT
10
105.8222
20
0
0
SEQEND
0
POLYLINE
8
CUT
66
1
70
0
0
VERTEX
8
CUT
10
108.8
20
70
0
VERTEX
8
CUT
10
108.8
20
64.6
0
VERTEX
8
CUT
10
110.2178
20
62.2799
0
SEQEND
0
POLYLINE
8
CUT
66
1
70
0
0
VERTEX
8
CUT
10
113.2
20
70
0
VERTEX
8
CUT
10
113.2
20
64.6
0
VERTEX
8
CUT
10
111.7822
20
62.2799
0
SEQEND
0
POLYLINE
8
CUT
66
1
70
0
0
VERTEX
8
CUT
10
110.2178
20
59.7201
0
VERTEX
8
CUT
10
108.8
20
57.4
0
VERTEX
8
CUT
10
108.8
20
46.6
0
VERTEX
8
CUT
10
110.2178
20
44.2799
0
SEQEND
0
POLYLINE
8
CUT
66
1
70
0
0
VERTEX
8
CUT
10
111.7822
20
59.7201
0
VERTEX
8
CUT
10
113.2
20
57.4
0
VERTEX
8
CUT
10
113.2
20
46.6
0
VERTEX
8
CUT
10
111.7822
20
44.2799
0
SEQEND
0
POLYLINE
8
CUT
66
1
70
0
0
VERTEX
8
CUT
10
110.2178
20
41.7201
0
VERTEX
8
CUT
10
108.8
20
39.4
0
VERTEX
8
CUT
10
108.8
20
28.6
0
VERTEX
8
CUT
10
110.2178
20
26.2799
0
SEQEND
0
POLYLINE
8
CUT
66
1
70
0
0
VERTEX
8
CUT
10
111.7822
20
41.7201
0
VERTEX
8
CUT
10
113.2
20
39.4
0
VERTEX
8
CUT
10
113.2
20
28.6
0
VERTEX
8
CUT
10
111.7822
20
26.2799
0
SEQEND
0
POLYLINE
8
CUT
66
1
70
0
0
VERTEX
8
CUT
10
110.2178
20
23.7201
0
VERTEX
8
CUT
10
108.8
20
21.4
0
VERTEX
8
CUT
10
108.8
20
10.6
0
VERTEX
8
CUT
10
110.2178
20
8.2799
0
SEQEND
0
POLYLINE
8
CUT
66
1
70
0
0
VERTEX
8
CUT
10
111.7822
20
23.7201
0
VERTEX
8
CUT
10
113.2
20
21.4
0
VERTEX
8
CUT
10
113.2
20
10.6
0
VERTEX
8
CUT
10
111.7822
20
8.2799
0
SEQEND
0
POLYLINE
8
CUT
66
1
70
0
0
VERTEX
8
CUT
10
110.2178
20
5.7201
0
VERTEX
8
CUT
10
108.8
20
3.4
0
VERTEX
8
CUT
10
108.8
20
0
0
SEQEND
0
POLYLINE
8
CUT
66
1
70
0
0
VERTEX
8
CUT
10
111.7822
20
5.7201
0
VERTEX
8
CUT
10
113.2
20
3.4
0
VERTEX
8
CUT
10
113.2
20
0
0
SEQEND
0
POLYLINE
8
CUT
66
1
70
0
0
VERTEX
8
CUT
10
116.6178
20
68.7201
0
VERTEX
8
CUT
10
115.2
20
66.4
0
VERTEX
8
CUT
10
115.2
20
55.6
0
VERTEX
8
CUT
10
116.6178
20
53.2799
0
SEQEND
0
POLYLINE
8
CUT
66
1
70
0
0
VERTEX
8
CUT
10
118.1822
20
68.7201
0
VERTEX
8
CUT
10
119.6
20
66.4
0
VERTEX
8
CUT
10
119.6
20
55.6
0
VERTEX
8
CUT
10
118.1822
20
53.2799
0
SEQEND
0
POLYLINE
8
CUT
66
1
70
0
0
VERTEX
8
CUT
10
116.6178
20
50.7201
0
VERTEX
8
CUT
10
115.2
20
48.4
0
VERTEX
8
CUT
10
115.2
20
37.6
0
VERTEX
8
CUT
10
116.6178
20
35.2799
0
SEQEND
0
POLYLINE
8
CUT
66
1
70
0
0
VERTEX
8
CUT
10
118.1822
20
50.7201
0
VERTEX
8
CUT
10
119.6
20
48.4
0
VERTEX
8
CUT
10
119.6
20
37.6
0
VERTEX
8
CUT
10
118.1822
20
35.2799
0
SEQEND
0
POLYLINE
8
CUT
66
1
70
0
0
VERTEX
8
CUT
10
116.6178
20
32.7201
0
VERTEX
8
CUT
10
115.2
20
30.4
0
VERTEX
8
CUT
10
115.2
20
19.6
0
VERTEX
8
CUT
10
116.6178
20
17.2799
0
SEQEND
0
POLYLINE
8
CUT
66
1
70
0
0
VERTEX
8
CUT
10
118.1822
20
32.7201
0
VERTEX
8
CUT
10
119.6
20
30.4
0
VERTEX
8
CUT
10
119.6
20
19.6
0
VERTEX
8
CUT
10
118.1822
20
17.2799
0
SEQEND
0
POLYLINE
8
CUT
66
1
70
0
0
VERTEX
8
CUT
10
116.6178
20
14.7201
0
VERTEX
8
CUT
10
115.2
20
12.4
0
VERTEX
8
CUT
10
115.2
20
1.6
0
VERTEX
8
CUT
10
116.1778
20
0
0
SEQEND
0
POLYLINE
8
CUT
66
1
70
0
0
VERTEX
8
CUT
10
118.1822
20
14.7201
0
VERTEX
8
CUT
10
119.6
20
12.4
0
VERTEX
8
CUT
10
119.6
20
1.6
0
VERTEX
8
CUT
10
118.6222
20
0
0
SEQEND
0
POLYLINE
8
CUT
66
1
70
0
0
VERTEX
8
CUT
10
0
20
70
0
VERTEX
8
CUT
10
120
20
70
0
VERTEX
8
CUT
10
120
20
0
0
VERTEX
8
CUT
10
0
20
0
0
VERTEX
8
CUT
10
0
20
70
0
SEQEND
0
ENDSEC
0
EOF
