0
SECTION
2
HEADER
9
$ACADVER
1
AC1009
9
$INSUNITS
70
4
0
ENDSEC
0
SECTION
2
TABLES
0
TABLE
2
LAYER
70
1
0
LAYER
2
CUT
70
0
62
1
6
CONTINUOUS
0
ENDTAB
0
ENDSEC
0
SECTION
2
ENTITIES
0
LINE
8
CUT
10
0
20
67.06
11
0.195
21
67.6667
0
LINE
8
CUT
10
0
20
51.56
11
0.195
21
52.1667
0
LINE
8
CUT
10
0
20
57.44
11
0.195
21
56.8333
0
LINE
8
CUT
10
0
20
36.06
11
0.195
21
36.6667
0
LINE
8
CUT
10
0
20
41.94
11
0.195
21
41.3333
0
LINE
8
CUT
10
0
20
20.56
11
0.195
21
21.1667
0
LINE
8
CUT
10
0
20
26.44
11
0.195
21
25.8333
0
LINE
8
CUT
10
0
20
5.06
11
0.195
21
5.6667
0
LINE
8
CUT
10
0
20
10.94
11
0.195
21
10.3333
0
POLYLINE
8
CUT
66
1
70
0
0
VERTEX
8
CUT
10
0.75
20
59.9167
0
VERTEX
8
CUT
10
2.25
20
55.25
0
VERTEX
8
CUT
10
6.75
20
55.25
0
VERTEX
8
CUT
10
8.25
20
59.9167
0
SEQEND
0
POLYLINE
8
CUT
66
1
70
0
0
VERTEX
8
CUT
10
0.75
20
64.5833
0
VERTEX
8
CUT
10
2.25
20
69.25
0
VERTEX
8
CUT
10
6.75
20
69.25
0
VERTEX
8
CUT
10
8.25
20
64.5833
0
SEQEND
0
POLYLINE
8
CUT
66
1
70
0
0
VERTEX
8
CUT
10
0.75
20
44.4167
0
VERTEX
8
CUT
10
2.25
20
39.75
0
VERTEX
8
CUT
10
6.75
20
39.75
0
VERTEX
8
CUT
10
8.25
20
44.4167
0
SEQEND
0
POLYLINE
8
CUT
66
1
70
0
0
VERTEX
8
CUT
10
0.75
20
49.0833
0
VERTEX
8
CUT
10
2.25
20
53.75
0
VERTEX
8
CUT
10
6.75
20
53.75
0
VERTEX
8
CUT
10
8.25
20
49.0833
0
SEQEND
0
POLYLINE
8
CUT
66
1
70
0
0
VERTEX
8
CUT
10
0.75
20
28.9167
0
VERTEX
8
CUT
10
2.25
20
24.25
0
VERTEX
8
CUT
10
6.75
20
24.25
0
VERTEX
8
CUT
10
8.25
20
28.9167
0
SEQEND
0
POLYLINE
8
CUT
66
1
70
0
0
VERTEX
8
CUT
10
0.75
20
33.5833
0
VERTEX
8
CUT
10
2.25
20
38.25
0
VERTEX
8
CUT
10
6.75
20
38.25
0
VERTEX
8
CUT
10
8.25
20
33.5833
0
SEQEND
0
POLYLINE
8
CUT
66
1
70
0
0
VERTEX
8
CUT
10
0.75
20
13.4167
0
VERTEX
8
CUT
10
2.25
20
8.75
0
VERTEX
8
CUT
10
6.75
20
8.75
0
VERTEX
8
CUT
10
8.25
20
13.4167
0
SEQEND
0
POLYLINE
8
CUT
66
1
70
0
0
VERTEX
8
CUT
10
0.75
20
18.0833
0
VERTEX
8
CUT
10
2.25
20
22.75
0
VERTEX
8
CUT
10
6.75
20
22.75
0
VERTEX
8
CUT
10
8.25
20
18.0833
0
SEQEND
0
POLYLINE
8
CUT
66
1
70
0
0
VERTEX
8
CUT
10
0.75
20
2.5833
0
VERTEX
8
CUT
10
2.25
20
7.25
0
VERTEX
8
CUT
10
6.75
20
7.25
0
VERTEX
8
CUT
10
8.25
20
2.5833
0
SEQEND
0
POLYLINE
8
CUT
66
1
70
0
0
VERTEX
8
CUT
10
8.805
20
67.6667
0
VERTEX
8
CUT
10
10.305
20
63
0
VERTEX
8
CUT
10
14.805
20
63
0
VERTEX
8
CUT
10
16.305
20
67.6667
0
SEQEND
0
POLYLINE
8
CUT
66
1
70
0
0
VERTEX
8
CUT
10
8.805
20
52.1667
0
VERTEX
8
CUT
10
10.305
20
47.5
0
VERTEX
8
CUT
10
14.805
20
47.5
0
VERTEX
8
CUT
10
16.305
20
52.1667
0
SEQEND
0
POLYLINE
8
CUT
66
1
70
0
0
VERTEX
8
CUT
10
8.805
20
56.8333
0
VERTEX
8
CUT
10
10.305
20
61.5
0
VERTEX
8
CUT
10
14.805
20
61.5
0
VERTEX
8
CUT
10
16.305
20
56.8333
0
SEQEND
0
POLYLINE
8
CUT
66
1
70
0
0
VERTEX
8
CUT
10
8.805
20
36.6667
0
VERTEX
8
CUT
10
10.305
20
32
0
VERTEX
8
CUT
10
14.805
20
32
0
VERTEX
8
CUT
10
16.305
20
36.6667
0
SEQEND
0
POLYLINE
8
CUT
66
1
70
0
0
VERTEX
8
CUT
10
8.805
20
41.3333
0
VERTEX
8
CUT
10
10.305
20
46
0
VERTEX
8
CUT
10
14.805
20
46
0
VERTEX
8
CUT
10
16.305
20
41.3333
0
SEQEND
0
POLYLINE
8
CUT
66
1
70
0
0
VERTEX
8
CUT
10
8.805
20
21.1667
0
VERTEX
8
CUT
10
10.305
20
16.5
0
VERTEX
8
CUT
10
14.805
20
16.5
0
VERTEX
8
CUT
10
16.305
20
21.1667
0
SEQEND
0
POLYLINE
8
CUT
66
1
70
0
0
VERTEX
8
CUT
10
8.805
20
25.8333
0
VERTEX
8
CUT
10
10.305
20
30.5
0
VERTEX
8
CUT
10
14.805
20
30.5
0
VERTEX
8
CUT
10
16.305
20
25.8333
0
SEQEND
0
POLYLINE
8
CUT
66
1
70
0
0
VERTEX
8
CUT
10
8.805
20
5.6667
0
VERTEX
8
CUT
10
10.305
20
1
0
VERTEX
8
CUT
10
14.805
20
1
0
VERTEX
8
CUT
10
16.305
20
5.6667
0
SEQEND
0
POLYLINE
8
CUT
66
1
70
0
0
VERTEX
8
CUT
10
8.805
20
10.3333
0
VERTEX
8
CUT
10
10.305
20
15
0
VERTEX
8
CUT
10
14.805
20
15
0
VERTEX
8
CUT
10
16.305
20
10.3333
0
SEQEND
0
POLYLINE
8
CUT
66
1
70
0
0
VERTEX
8
CUT
10
16.86
20
59.9167
0
VERTEX
8
CUT
10
18.36
20
55.25
0
VERTEX
8
CUT
10
22.86
20
55.25
0
VERTEX
8
CUT
10
24.36
20
59.9167
0
SEQEND
0
POLYLINE
8
CUT
66
1
70
0
0
VERTEX
8
CUT
10
16.86
20
64.5833
0
VERTEX
8
CUT
10
18.36
20
69.25
0
VERTEX
8
CUT
10
22.86
20
69.25
0
VERTEX
8
CUT
10
24.36
20
64.5833
0
SEQEND
0
POLYLINE
8
CUT
66
1
70
0
0
VERTEX
8
CUT
10
16.86
20
44.4167
0
VERTEX
8
CUT
10
18.36
20
39.75
0
VERTEX
8
CUT
10
22.86
20
39.75
0
VERTEX
8
CUT
10
24.36
20
44.4167
0
SEQEND
0
POLYLINE
8
CUT
66
1
70
0
0
VERTEX
8
CUT
10
16.86
20
49.0833
0
VERTEX
8
CUT
10
18.36
20
53.75
0
VERTEX
8
CUT
10
22.86
20
53.75
0
VERTEX
8
CUT
10
24.36
20
49.0833
0
SEQEND
0
POLYLINE
8
CUT
66
1
70
0
0
VERTEX
8
CUT
10
16.86
20
28.9167
0
VERTEX
8
CUT
10
18.36
20
24.25
0
VERTEX
8
CUT
10
22.86
20
24.25
0
VERTEX
8
CUT
10
24.36
20
28.9167
0
SEQEND
0
POLYLINE
8
CUT
66
1
70
0
0
VERTEX
8
CUT
10
16.86
20
33.5833
0
VERTEX
8
CUT
10
18.36
20
38.25
0
VERTEX
8
CUT
10
22.86
20
38.25
0
VERTEX
8
CUT
10
24.36
20
33.5833
0
SEQEND
0
POLYLINE
8
CUT
66
1
70
0
0
VERTEX
8
CUT
10
16.86
20
13.4167
0
VERTEX
8
CUT
10
18.36
20
8.75
0
VERTEX
8
CUT
10
22.86
20
8.75
0
VERTEX
8
CUT
10
24.36
20
13.4167
0
SEQEND
0
POLYLINE
8
CUT
66
1
70
0
0
VERTEX
8
CUT
10
16.86
20
18.0833
0
VERTEX
8
CUT
10
18.36
20
22.75
0
VERTEX
8
CUT
10
22.86
20
22.75
0
VERTEX
8
CUT
10
24.36
20
18.0833
0
SEQEND
0
POLYLINE
8
CUT
66
1
70
0
0
VERTEX
8
CUT
10
16.86
20
2.5833
0
VERTEX
8
CUT
10
18.36
20
7.25
0
VERTEX
8
CUT
10
22.86
20
7.25
0
VERTEX
8
CUT
10
24.36
20
2.5833
0
SEQEND
0
POLYLINE
8
CUT
66
1
70
0
0
VERTEX
8
CUT
10
24.915
20
67.6667
0
VERTEX
8
CUT
10
26.415
20
63
0
VERTEX
8
CUT
10
30.915
20
63
0
VERTEX
8
CUT
10
32.415
20
67.6667
0
SEQEND
0
POLYLINE
8
CUT
66
1
70
0
0
VERTEX
8
CUT
10
24.915
20
52.1667
0
VERTEX
8
CUT
10
26.415
20
47.5
0
VERTEX
8
CUT
10
30.915
20
47.5
0
VERTEX
8
CUT
10
32.415
20
52.1667
0
SEQEND
0
POLYLINE
8
CUT
66
1
70
0
0
VERTEX
8
CUT
10
24.915
20
56.8333
0
VERTEX
8
CUT
10
26.415
20
61.5
0
VERTEX
8
CUT
10
30.915
20
61.5
0
VERTEX
8
CUT
10
32.415
20
56.8333
0
SEQEND
0
POLYLINE
8
CUT
66
1
70
0
0
VERTEX
8
CUT
10
24.915
20
36.6667
0
VERTEX
8
CUT
10
26.415
20
32
0
VERTEX
8
CUT
10
30.915
20
32
0
VERTEX
8
CUT
10
32.415
20
36.6667
0
SEQEND
0
POLYLINE
8
CUT
66
1
70
0
0
VERTEX
8
CUT
10
24.915
20
41.3333
0
VERTEX
8
CUT
10
26.415
20
46
0
VERTEX
8
CUT
10
30.915
20
46
0
VERTEX
8
CUT
10
32.415
20
41.3333
0
SEQEND
0
POLYLINE
8
CUT
66
1
70
0
0
VERTEX
8
CUT
10
24.915
20
21.1667
0
VERTEX
8
CUT
10
26.415
20
16.5
0
VERTEX
8
CUT
10
30.915
20
16.5
0
VERTEX
8
CUT
10
32.415
20
21.1667
0
SEQEND
0
POLYLINE
8
CUT
66
1
70
0
0
VERTEX
8
CUT
10
24.915
20
25.8333
0
VERTEX
8
CUT
10
26.415
20
30.5
0
VERTEX
8
CUT
10
30.915
20
30.5
0
VERTEX
8
CUT
10
32.415
20
25.8333
0
SEQEND
0
POLYLINE
8
CUT
66
1
70
0
0
VERTEX
8
CUT
10
24.915
20
5.6667
0
VERTEX
8
CUT
10
26.415
20
1
0
VERTEX
8
CUT
10
30.915
20
1
0
VERTEX
8
CUT
10
32.415
20
5.6667
0
SEQEND
0
POLYLINE
8
CUT
66
1
70
0
0
VERTEX
8
CUT
10
24.915
20
10.3333
0
VERTEX
8
CUT
10
26.415
20
15
0
VERTEX
8
CUT
10
30.915
20
15
0
VERTEX
8
CUT
10
32.415
20
10.3333
0
SEQEND
0
POLYLINE
8
CUT
66
1
70
0
0
VERTEX
8
CUT
10
32.97
20
59.9167
0
VERTEX
8
CUT
10
34.47
20
55.25
0
VERTEX
8
CUT
10
38.97
20
55.25
0
VERTEX
8
CUT
10
40.47
20
59.9167
0
SEQEND
0
POLYLINE
8
CUT
66
1
70
0
0
VERTEX
8
CUT
10
32.97
20
64.5833
0
VERTEX
8
CUT
10
34.47
20
69.25
0
VERTEX
8
CUT
10
38.97
20
69.25
0
VERTEX
8
CUT
10
40.47
20
64.5833
0
SEQEND
0
POLYLINE
8
CUT
66
1
70
0
0
VERTEX
8
CUT
10
32.97
20
44.4167
0
VERTEX
8
CUT
10
34.47
20
39.75
0
VERTEX
8
CUT
10
38.97
20
39.75
0
VERTEX
8
CUT
10
40.47
20
44.4167
0
SEQEND
0
POLYLINE
8
CUT
66
1
70
0
0
VERTEX
8
CUT
10
32.97
20
49.0833
0
VERTEX
8
CUT
10
34.47
20
53.75
0
VERTEX
8
CUT
10
38.97
20
53.75
0
VERTEX
8
CUT
10
40.47
20
49.0833
0
SEQEND
0
POLYLINE
8
CUT
66
1
70
0
0
VERTEX
8
CUT
10
32.97
20
28.9167
0
VERTEX
8
CUT
10
34.47
20
24.25
0
VERTEX
8
CUT
10
38.97
20
24.25
0
VERTEX
8
CUT
10
40.47
20
28.9167
0
SEQEND
0
POLYLINE
8
CUT
66
1
70
0
0
VERTEX
8
CUT
10
32.97
20
33.5833
0
VERTEX
8
CUT
10
34.47
20
38.25
0
VERTEX
8
CUT
10
38.97
20
38.25
0
VERTEX
8
CUT
10
40.47
20
33.5833
0
SEQEND
0
POLYLINE
8
CUT
66
1
70
0
0
VERTEX
8
CUT
10
32.97
20
13.4167
0
VERTEX
8
CUT
10
34.47
20
8.75
0
VERTEX
8
CUT
10
38.97
20
8.75
0
VERTEX
8
CUT
10
40.47
20
13.4167
0
SEQEND
0
POLYLINE
8
CUT
66
1
70
0
0
VERTEX
8
CUT
10
32.97
20
18.0833
0
VERTEX
8
CUT
10
34.47
20
22.75
0
VERTEX
8
CUT
10
38.97
20
22.75
0
VERTEX
8
CUT
10
40.47
20
18.0833
0
SEQEND
0
POLYLINE
8
CUT
66
1
70
0
0
VERTEX
8
CUT
10
32.97
20
2.5833
0
VERTEX
8
CUT
10
34.47
20
7.25
0
VERTEX
8
CUT
10
38.97
20
7.25
0
VERTEX
8
CUT
10
40.47
20
2.5833
0
SEQEND
0
POLYLINE
8
CUT
66
1
70
0
0
VERTEX
8
CUT
10
41.025
20
67.6667
0
VERTEX
8
CUT
10
42.525
20
63
0
VERTEX
8
CUT
10
47.025
20
63
0
VERTEX
8
CUT
10
48.525
20
67.6667
0
SEQEND
0
POLYLINE
8
CUT
66
1
70
0
0
VERTEX
8
CUT
10
41.025
20
52.1667
0
VERTEX
8
CUT
10
42.525
20
47.5
0
VERTEX
8
CUT
10
47.025
20
47.5
0
VERTEX
8
CUT
10
48.525
20
52.1667
0
SEQEND
0
POLYLINE
8
CUT
66
1
70
0
0
VERTEX
8
CUT
10
41.025
20
56.8333
0
VERTEX
8
CUT
10
42.525
20
61.5
0
VERTEX
8
CUT
10
47.025
20
61.5
0
VERTEX
8
CUT
10
48.525
20
56.8333
0
SEQEND
0
POLYLINE
8
CUT
66
1
70
0
0
VERTEX
8
CUT
10
41.025
20
36.6667
0
VERTEX
8
CUT
10
42.525
20
32
0
VERTEX
8
CUT
10
47.025
20
32
0
VERTEX
8
CUT
10
48.525
20
36.6667
0
SEQEND
0
POLYLINE
8
CUT
66
1
70
0
0
VERTEX
8
CUT
10
41.025
20
41.3333
0
VERTEX
8
CUT
10
42.525
20
46
0
VERTEX
8
CUT
10
47.025
20
46
0
VERTEX
8
CUT
10
48.525
20
41.3333
0
SEQEND
0
POLYLINE
8
CUT
66
1
70
0
0
VERTEX
8
CUT
10
41.025
20
21.1667
0
VERTEX
8
CUT
10
42.525
20
16.5
0
VERTEX
8
CUT
10
47.025
20
16.5
0
VERTEX
8
CUT
10
48.525
20
21.1667
0
SEQEND
0
POLYLINE
8
CUT
66
1
70
0
0
VERTEX
8
CUT
10
41.025
20
25.8333
0
VERTEX
8
CUT
10
42.525
20
30.5
0
VERTEX
8
CUT
10
47.025
20
30.5
0
VERTEX
8
CUT
10
48.525
20
25.8333
0
SEQEND
0
POLYLINE
8
CUT
66
1
70
0
0
VERTEX
8
CUT
10
41.025
20
5.6667
0
VERTEX
8
CUT
10
42.525
20
1
0
VERTEX
8
CUT
10
47.025
20
1
0
VERTEX
8
CUT
10
48.525
20
5.6667
0
SEQEND
0
POLYLINE
8
CUT
66
1
70
0
0
VERTEX
8
CUT
10
41.025
20
10.3333
0
VERTEX
8
CUT
10
42.525
20
15
0
VERTEX
8
CUT
10
47.025
20
15
0
VERTEX
8
CUT
10
48.525
20
10.3333
0
SEQEND
0
POLYLINE
8
CUT
66
1
70
0
0
VERTEX
8
CUT
10
49.08
20
59.9167
0
VERTEX
8
CUT
10
50.58
20
55.25
0
VERTEX
8
CUT
10
55.08
20
55.25
0
VERTEX
8
CUT
10
56.58
20
59.9167
0
SEQEND
0
POLYLINE
8
CUT
66
1
70
0
0
VERTEX
8
CUT
10
49.08
20
64.5833
0
VERTEX
8
CUT
10
50.58
20
69.25
0
VERTEX
8
CUT
10
55.08
20
69.25
0
VERTEX
8
CUT
10
56.58
20
64.5833
0
SEQEND
0
POLYLINE
8
CUT
66
1
70
0
0
VERTEX
8
CUT
10
49.08
20
44.4167
0
VERTEX
8
CUT
10
50.58
20
39.75
0
VERTEX
8
CUT
10
55.08
20
39.75
0
VERTEX
8
CUT
10
56.58
20
44.4167
0
SEQEND
0
POLYLINE
8
CUT
66
1
70
0
0
VERTEX
8
CUT
10
49.08
20
49.0833
0
VERTEX
8
CUT
10
50.58
20
53.75
0
VERTEX
8
CUT
10
55.08
20
53.75
0
VERTEX
8
CUT
10
56.58
20
49.0833
0
SEQEND
0
POLYLINE
8
CUT
66
1
70
0
0
VERTEX
8
CUT
10
49.08
20
28.9167
0
VERTEX
8
CUT
10
50.58
20
24.25
0
VERTEX
8
CUT
10
55.08
20
24.25
0
VERTEX
8
CUT
10
56.58
20
28.9167
0
SEQEND
0
POLYLINE
8
CUT
66
1
70
0
0
VERTEX
8
CUT
10
49.08
20
33.5833
0
VERTEX
8
CUT
10
50.58
20
38.25
0
VERTEX
8
CUT
10
55.08
20
38.25
0
VERTEX
8
CUT
10
56.58
20
33.5833
0
SEQEND
0
POLYLINE
8
CUT
66
1
70
0
0
VERTEX
8
CUT
10
49.08
20
13.4167
0
VERTEX
8
CUT
10
50.58
20
8.75
0
VERTEX
8
CUT
10
55.08
20
8.75
0
VERTEX
8
CUT
10
56.58
20
13.4167
0
SEQEND
0
POLYLINE
8
CUT
66
1
70
0
0
VERTEX
8
CUT
10
49.08
20
18.0833
0
VERTEX
8
CUT
10
50.58
20
22.75
0
VERTEX
8
CUT
10
55.08
20
22.75
0
VERTEX
8
CUT
10
56.58
20
18.0833
0
SEQEND
0
POLYLINE
8
CUT
66
1
70
0
0
VERTEX
8
CUT
10
49.08
20
2.5833
0
VERTEX
8
CUT
10
50.58
20
7.25
0
VERTEX
8
CUT
10
55.08
20
7.25
0
VERTEX
8
CUT
10
56.58
20
2.5833
0
SEQEND
0
POLYLINE
8
CUT
66
1
70
0
0
VERTEX
8
CUT
10
57.135
20
67.6667
0
VERTEX
8
CUT
10
58.635
20
63
0
VERTEX
8
CUT
10
63.135
20
63
0
VERTEX
8
CUT
10
64.635
20
67.6667
0
SEQEND
0
POLYLINE
8
CUT
66
1
70
0
0
VERTEX
8
CUT
10
57.135
20
52.1667
0
VERTEX
8
CUT
10
58.635
20
47.5
0
VERTEX
8
CUT
10
63.135
20
47.5
0
VERTEX
8
CUT
10
64.635
20
52.1667
0
SEQEND
0
POLYLINE
8
CUT
66
1
70
0
0
VERTEX
8
CUT
10
57.135
20
56.8333
0
VERTEX
8
CUT
10
58.635
20
61.5
0
VERTEX
8
CUT
10
63.135
20
61.5
0
VERTEX
8
CUT
10
64.635
20
56.8333
0
SEQEND
0
POLYLINE
8
CUT
66
1
70
0
0
VERTEX
8
CUT
10
57.135
20
36.6667
0
VERTEX
8
CUT
10
58.635
20
32
0
VERTEX
8
CUT
10
63.135
20
32
0
VERTEX
8
CUT
10
64.635
20
36.6667
0
SEQEND
0
POLYLINE
8
CUT
66
1
70
0
0
VERTEX
8
CUT
10
57.135
20
41.3333
0
VERTEX
8
CUT
10
58.635
20
46
0
VERTEX
8
CUT
10
63.135
20
46
0
VERTEX
8
CUT
10
64.635
20
41.3333
0
SEQEND
0
POLYLINE
8
CUT
66
1
70
0
0
VERTEX
8
CUT
10
57.135
20
21.1667
0
VERTEX
8
CUT
10
58.635
20
16.5
0
VERTEX
8
CUT
10
63.135
20
16.5
0
VERTEX
8
CUT
10
64.635
20
21.1667
0
SEQEND
0
POLYLINE
8
CUT
66
1
70
0
0
VERTEX
8
CUT
10
57.135
20
25.8333
0
VERTEX
8
CUT
10
58.635
20
30.5
0
VERTEX
8
CUT
10
63.135
20
30.5
0
VERTEX
8
CUT
10
64.635
20
25.8333
0
SEQEND
0
POLYLINE
8
CUT
66
1
70
0
0
VERTEX
8
CUT
10
57.135
20
5.6667
0
VERTEX
8
CUT
10
58.635
20
1
0
VERTEX
8
CUT
10
63.135
20
1
0
VERTEX
8
CUT
10
64.635
20
5.6667
0
SEQEND
0
POLYLINE
8
CUT
66
1
70
0
0
VERTEX
8
CUT
10
57.135
20
10.3333
0
VERTEX
8
CUT
10
58.635
20
15
0
VERTEX
8
CUT
10
63.135
20
15
0
VERTEX
8
CUT
10
64.635
20
10.3333
0
SEQEND
0
POLYLINE
8
CUT
66
1
70
0
0
VERTEX
8
CUT
10
65.19
20
59.9167
0
VERTEX
8
CUT
10
66.69
20
55.25
0
VERTEX
8
CUT
10
71.19
20
55.25
0
VERTEX
8
CUT
10
72.69
20
59.9167
0
SEQEND
0
POLYLINE
8
CUT
66
1
70
0
0
VERTEX
8
CUT
10
65.19
20
64.5833
0
VERTEX
8
CUT
10
66.69
20
69.25
0
VERTEX
8
CUT
10
71.19
20
69.25
0
VERTEX
8
CUT
10
72.69
20
64.5833
0
SEQEND
0
POLYLINE
8
CUT
66
1
70
0
0
VERTEX
8
CUT
10
65.19
20
44.4167
0
VERTEX
8
CUT
10
66.69
20
39.75
0
VERTEX
8
CUT
10
71.19
20
39.75
0
VERTEX
8
CUT
10
72.69
20
44.4167
0
SEQEND
0
POLYLINE
8
CUT
66
1
70
0
0
VERTEX
8
CUT
10
65.19
20
49.0833
0
VERTEX
8
CUT
10
66.69
20
53.75
0
VERTEX
8
CUT
10
71.19
20
53.75
0
VERTEX
8
CUT
10
72.69
20
49.0833
0
SEQEND
0
POLYLINE
8
CUT
66
1
70
0
0
VERTEX
8
CUT
10
65.19
20
28.9167
0
VERTEX
8
CUT
10
66.69
20
24.25
0
VERTEX
8
CUT
10
71.19
20
24.25
0
VERTEX
8
CUT
10
72.69
20
28.9167
0
SEQEND
0
POLYLINE
8
CUT
66
1
70
0
0
VERTEX
8
CUT
10
65.19
20
33.5833
0
VERTEX
8
CUT
10
66.69
20
38.25
0
VERTEX
8
CUT
10
71.19
20
38.25
0
VERTEX
8
CUT
10
72.69
20
33.5833
0
SEQEND
0
POLYLINE
8
CUT
66
1
70
0
0
VERTEX
8
CUT
10
65.19
20
13.4167
0
VERTEX
8
CUT
10
66.69
20
8.75
0
VERTEX
8
CUT
10
71.19
20
8.75
0
VERTEX
8
CUT
10
72.69
20
13.4167
0
SEQEND
0
POLYLINE
8
CUT
66
1
70
0
0
VERTEX
8
CUT
10
65.19
20
18.0833
0
VERTEX
8
CUT
10
66.69
20
22.75
0
VERTEX
8
CUT
10
71.19
20
22.75
0
VERTEX
8
CUT
10
72.69
20
18.0833
0
SEQEND
0
POLYLINE
8
CUT
66
1
70
0
0
VERTEX
8
CUT
10
65.19
20
2.5833
0
VERTEX
8
CUT
10
66.69
20
7.25
0
VERTEX
8
CUT
10
71.19
20
7.25
0
VERTEX
8
CUT
10
72.69
20
2.5833
0
SEQEND
0
POLYLINE
8
CUT
66
1
70
0
0
VERTEX
8
CUT
10
73.245
20
67.6667
0
VERTEX
8
CUT
10
74.745
20
63
0
VERTEX
8
CUT
10
79.245
20
63
0
VERTEX
8
CUT
10
80.745
20
67.6667
0
SEQEND
0
POLYLINE
8
CUT
66
1
70
0
0
VERTEX
8
CUT
10
73.245
20
52.1667
0
VERTEX
8
CUT
10
74.745
20
47.5
0
VERTEX
8
CUT
10
79.245
20
47.5
0
VERTEX
8
CUT
10
80.745
20
52.1667
0
SEQEND
0
POLYLINE
8
CUT
66
1
70
0
0
VERTEX
8
CUT
10
73.245
20
56.8333
0
VERTEX
8
CUT
10
74.745
20
61.5
0
VERTEX
8
CUT
10
79.245
20
61.5
0
VERTEX
8
CUT
10
80.745
20
56.8333
0
SEQEND
0
POLYLINE
8
CUT
66
1
70
0
0
VERTEX
8
CUT
10
73.245
20
36.6667
0
VERTEX
8
CUT
10
74.745
20
32
0
VERTEX
8
CUT
10
79.245
20
32
0
VERTEX
8
CUT
10
80.745
20
36.6667
0
SEQEND
0
POLYLINE
8
CUT
66
1
70
0
0
VERTEX
8
CUT
10
73.245
20
41.3333
0
VERTEX
8
CUT
10
74.745
20
46
0
VERTEX
8
CUT
10
79.245
20
46
0
VERTEX
8
CUT
10
80.745
20
41.3333
0
SEQEND
0
POLYLINE
8
CUT
66
1
70
0
0
VERTEX
8
CUT
10
73.245
20
21.1667
0
VERTEX
8
CUT
10
74.745
20
16.5
0
VERTEX
8
CUT
10
79.245
20
16.5
0
VERTEX
8
CUT
10
80.745
20
21.1667
0
SEQEND
0
POLYLINE
8
CUT
66
1
70
0
0
VERTEX
8
CUT
10
73.245
20
25.8333
0
VERTEX
8
CUT
10
74.745
20
30.5
0
VERTEX
8
CUT
10
79.245
20
30.5
0
VERTEX
8
CUT
10
80.745
20
25.8333
0
SEQEND
0
POLYLINE
8
CUT
66
1
70
0
0
VERTEX
8
CUT
10
73.245
20
5.6667
0
VERTEX
8
CUT
10
74.745
20
1
0
VERTEX
8
CUT
10
79.245
20
1
0
VERTEX
8
CUT
10
80.745
20
5.6667
0
SEQEND
0
POLYLINE
8
CUT
66
1
70
0
0
VERTEX
8
CUT
10
73.245
20
10.3333
0
VERTEX
8
CUT
10
74.745
20
15
0
VERTEX
8
CUT
10
79.245
20
15
0
VERTEX
8
CUT
10
80.745
20
10.3333
0
SEQEND
0
POLYLINE
8
CUT
66
1
70
0
0
VERTEX
8
CUT
10
81.3
20
59.9167
0
VERTEX
8
CUT
10
82.8
20
55.25
0
VERTEX
8
CUT
10
87.3
20
55.25
0
VERTEX
8
CUT
10
88.8
20
59.9167
0
SEQEND
0
POLYLINE
8
CUT
66
1
70
0
0
VERTEX
8
CUT
10
81.3
20
64.5833
0
VERTEX
8
CUT
10
82.8
20
69.25
0
VERTEX
8
CUT
10
87.3
20
69.25
0
VERTEX
8
CUT
10
88.8
20
64.5833
0
SEQEND
0
POLYLINE
8
CUT
66
1
70
0
0
VERTEX
8
CUT
10
81.3
20
44.4167
0
VERTEX
8
CUT
10
82.8
20
39.75
0
VERTEX
8
CUT
10
87.3
20
39.75
0
VERTEX
8
CUT
10
88.8
20
44.4167
0
SEQEND
0
POLYLINE
8
CUT
66
1
70
0
0
VERTEX
8
CUT
10
81.3
20
49.0833
0
VERTEX
8
CUT
10
82.8
20
53.75
0
VERTEX
8
CUT
10
87.3
20
53.75
0
VERTEX
8
CUT
10
88.8
20
49.0833
0
SEQEND
0
POLYLINE
8
CUT
66
1
70
0
0
VERTEX
8
CUT
10
81.3
20
28.9167
0
VERTEX
8
CUT
10
82.8
20
24.25
0
VERTEX
8
CUT
10
87.3
20
24.25
0
VERTEX
8
CUT
10
88.8
20
28.9167
0
SEQEND
0
POLYLINE
8
CUT
66
1
70
0
0
VERTEX
8
CUT
10
81.3
20
33.5833
0
VERTEX
8
CUT
10
82.8
20
38.25
0
VERTEX
8
CUT
10
87.3
20
38.25
0
VERTEX
8
CUT
10
88.8
20
33.5833
0
SEQEND
0
POLYLINE
8
CUT
66
1
70
0
0
VERTEX
8
CUT
10
81.3
20
13.4167
0
VERTEX
8
CUT
10
82.8
20
8.75
0
VERTEX
8
CUT
10
87.3
20
8.75
0
VERTEX
8
CUT
10
88.8
20
13.4167
0
SEQEND
0
POLYLINE
8
CUT
66
1
70
0
0
VERTEX
8
CUT
10
81.3
20
18.0833
0
VERTEX
8
CUT
10
82.8
20
22.75
0
VERTEX
8
CUT
10
87.3
20
22.75
0
VERTEX
8
CUT
10
88.8
20
18.0833
0
SEQEND
0
POLYLINE
8
CUT
66
1
70
0
0
VERTEX
8
CUT
10
81.3
20
2.5833
0
VERTEX
8
CUT
10
82.8
20
7.25
0
VERTEX
8
CUT
10
87.3
20
7.25
0
VERTEX
8
CUT
10
88.8
20
2.5833
0
SEQEND
0
POLYLINE
8
CUT
66
1
70
0
0
VERTEX
8
CUT
10
89.355
20
67.6667
0
VERTEX
8
CUT
10
90.855
20
63
0
VERTEX
8
CUT
10
95.355
20
63
0
VERTEX
8
CUT
10
96.855
20
67.6667
0
SEQEND
0
POLYLINE
8
CUT
66
1
70
0
0
VERTEX
8
CUT
10
89.355
20
52.1667
0
VERTEX
8
CUT
10
90.855
20
47.5
0
VERTEX
8
CUT
10
95.355
20
47.5
0
VERTEX
8
CUT
10
96.855
20
52.1667
0
SEQEND
0
POLYLINE
8
CUT
66
1
70
0
0
VERTEX
8
CUT
10
89.355
20
56.8333
0
VERTEX
8
CUT
10
90.855
20
61.5
0
VERTEX
8
CUT
10
95.355
20
61.5
0
VERTEX
8
CUT
10
96.855
20
56.8333
0
SEQEND
0
POLYLINE
8
CUT
66
1
70
0
0
VERTEX
8
CUT
10
89.355
20
36.6667
0
VERTEX
8
CUT
10
90.855
20
32
0
VERTEX
8
CUT
10
95.355
20
32
0
VERTEX
8
CUT
10
96.855
20
36.6667
0
SEQEND
0
POLYLINE
8
CUT
66
1
70
0
0
VERTEX
8
CUT
10
89.355
20
41.3333
0
VERTEX
8
CUT
10
90.855
20
46
0
VERTEX
8
CUT
10
95.355
20
46
0
VERTEX
8
CUT
10
96.855
20
41.3333
0
SEQEND
0
POLYLINE
8
CUT
66
1
70
0
0
VERTEX
8
CUT
10
89.355
20
21.1667
0
VERTEX
8
CUT
10
90.855
20
16.5
0
VERTEX
8
CUT
10
95.355
20
16.5
0
VERTEX
8
CUT
10
96.855
20
21.1667
0
SEQEND
0
POLYLINE
8
CUT
66
1
70
0
0
VERTEX
8
CUT
10
89.355
20
25.8333
0
VERTEX
8
CUT
10
90.855
20
30.5
0
VERTEX
8
CUT
10
95.355
20
30.5
0
VERTEX
8
CUT
10
96.855
20
25.8333
0
SEQEND
0
POLYLINE
8
CUT
66
1
70
0
0
VERTEX
8
CUT
10
89.355
20
5.6667
0
VERTEX
8
CUT
10
90.855
20
1
0
VERTEX
8
CUT
10
95.355
20
1
0
VERTEX
8
CUT
10
96.855
20
5.6667
0
SEQEND
0
POLYLINE
8
CUT
66
1
70
0
0
VERTEX
8
CUT
10
89.355
20
10.3333
0
VERTEX
8
CUT
10
90.855
20
15
0
VERTEX
8
CUT
10
95.355
20
15
0
VERTEX
8
CUT
10
96.855
20
10.3333
0
SEQEND
0
POLYLINE
8
CUT
66
1
70
0
0
VERTEX
8
CUT
10
97.41
20
59.9167
0
VERTEX
8
CUT
10
98.91
20
55.25
0
VERTEX
8
CUT
10
103.41
20
55.25
0
VERTEX
8
CUT
10
104.91
20
59.9167
0
SEQEND
0
POLYLINE
8
CUT
66
1
70
0
0
VERTEX
8
CUT
10
97.41
20
64.5833
0
VERTEX
8
CUT
10
98.91
20
69.25
0
VERTEX
8
CUT
10
103.41
20
69.25
0
VERTEX
8
CUT
10
104.91
20
64.5833
0
SEQEND
0
POLYLINE
8
CUT
66
1
70
0
0
VERTEX
8
CUT
10
97.41
20
44.4167
0
VERTEX
8
CUT
10
98.91
20
39.75
0
VERTEX
8
CUT
10
103.41
20
39.75
0
VERTEX
8
CUT
10
104.91
20
44.4167
0
SEQEND
0
POLYLINE
8
CUT
66
1
70
0
0
VERTEX
8
CUT
10
97.41
20
49.0833
0
VERTEX
8
CUT
10
98.91
20
53.75
0
VERTEX
8
CUT
10
103.41
20
53.75
0
VERTEX
8
CUT
10
104.91
20
49.0833
0
SEQEND
0
POLYLINE
8
CUT
66
1
70
0
0
VERTEX
8
CUT
10
97.41
20
28.9167
0
VERTEX
8
CUT
10
98.91
20
24.25
0
VERTEX
8
CUT
10
103.41
20
24.25
0
VERTEX
8
CUT
10
104.91
20
28.9167
0
SEQEND
0
POLYLINE
8
CUT
66
1
70
0
0
VERTEX
8
CUT
10
97.41
20
33.5833
0
VERTEX
8
CUT
10
98.91
20
38.25
0
VERTEX
8
CUT
10
103.41
20
38.25
0
VERTEX
8
CUT
10
104.91
20
33.5833
0
SEQEND
0
POLYLINE
8
CUT
66
1
70
0
0
VERTEX
8
CUT
10
97.41
20
13.4167
0
VERTEX
8
CUT
10
98.91
20
8.75
0
VERTEX
8
CUT
10
103.41
20
8.75
0
VERTEX
8
CUT
10
104.91
20
13.4167
0
SEQEND
0
POLYLINE
8
CUT
66
1
70
0
0
VERTEX
8
CUT
10
97.41
20
18.0833
0
VERTEX
8
CUT
10
98.91
20
22.75
0
VERTEX
8
CUT
10
103.41
20
22.75
0
VERTEX
8
CUT
10
104.91
20
18.0833
0
SEQEND
0
POLYLINE
8
CUT
66
1
70
0
0
VERTEX
8
CUT
10
97.41
20
2.5833
0
VERTEX
8
CUT
10
98.91
20
7.25
0
VERTEX
8
CUT
10
103.41
20
7.25
0
VERTEX
8
CUT
10
104.91
20
2.5833
0
SEQEND
0
POLYLINE
8
CUT
66
1
70
0
0
VERTEX
8
CUT
10
105.465
20
67.6667
0
VERTEX
8
CUT
10
106.965
20
63
0
VERTEX
8
CUT
10
111.465
20
63
0
VERTEX
8
CUT
10
112.965
20
67.6667
0
SEQEND
0
POLYLINE
8
CUT
66
1
70
0
0
VERTEX
8
CUT
10
105.465
20
52.1667
0
VERTEX
8
CUT
10
106.965
20
47.5
0
VERTEX
8
CUT
10
111.465
20
47.5
0
VERTEX
8
CUT
10
112.965
20
52.1667
0
SEQEND
0
POLYLINE
8
CUT
66
1
70
0
0
VERTEX
8
CUT
10
105.465
20
56.8333
0
VERTEX
8
CUT
10
106.965
20
61.5
0
VERTEX
8
CUT
10
111.465
20
61.5
0
VERTEX
8
CUT
10
112.965
20
56.8333
0
SEQEND
0
POLYLINE
8
CUT
66
1
70
0
0
VERTEX
8
CUT
10
105.465
20
36.6667
0
VERTEX
8
CUT
10
106.965
20
32
0
VERTEX
8
CUT
10
111.465
20
32
0
VERTEX
8
CUT
10
112.965
20
36.6667
0
SEQEND
0
POLYLINE
8
CUT
66
1
70
0
0
VERTEX
8
CUT
10
105.465
20
41.3333
0
VERTEX
8
CUT
10
106.965
20
46
0
VERTEX
8
CUT
10
111.465
20
46
0
VERTEX
8
CUT
10
112.965
20
41.3333
0
SEQEND
0
POLYLINE
8
CUT
66
1
70
0
0
VERTEX
8
CUT
10
105.465
20
21.1667
0
VERTEX
8
CUT
10
106.965
20
16.5
0
VERTEX
8
CUT
10
111.465
20
16.5
0
VERTEX
8
CUT
10
112.965
20
21.1667
0
SEQEND
0
POLYLINE
8
CUT
66
1
70
0
0
VERTEX
8
CUT
10
105.465
20
25.8333
0
VERTEX
8
CUT
10
106.965
20
30.5
0
VERTEX
8
CUT
10
111.465
20
30.5
0
VERTEX
8
CUT
10
112.965
20
25.8333
0
SEQEND
0
POLYLINE
8
CUT
66
1
70
0
0
VERTEX
8
CUT
10
105.465
20
5.6667
0
VERTEX
8
CUT
10
106.965
20
1
0
VERTEX
8
CUT
10
111.465
20
1
0
VERTEX
8
CUT
10
112.965
20
5.6667
0
SEQEND
0
POLYLINE
8
CUT
66
1
70
0
0
VERTEX
8
CUT
10
105.465
20
10.3333
0
VERTEX
8
CUT
10
106.965
20
15
0
VERTEX
8
CUT
10
111.465
20
15
0
VERTEX
8
CUT
10
112.965
20
10.3333
0
SEQEND
0
POLYLINE
8
CUT
66
1
70
0
0
VERTEX
8
CUT
10
113.52
20
59.9167
0
VERTEX
8
CUT
10
115.02
20
55.25
0
VERTEX
8
CUT
10
119.52
20
55.25
0
VERTEX
8
CUT
10
120
20
56.7433
0
SEQEND
0
POLYLINE
8
CUT
66
1
70
0
0
VERTEX
8
CUT
10
113.52
20
64.5833
0
VERTEX
8
CUT
10
115.02
20
69.25
0
VERTEX
8
CUT
10
119.52
20
69.25
0
VERTEX
8
CUT
10
120
20
67.7567
0
SEQEND
0
POLYLINE
8
CUT
66
1
70
0
0
VERTEX
8
CUT
10
113.52
20
44.4167
0
VERTEX
8
CUT
10
115.02
20
39.75
0
VERTEX
8
CUT
10
119.52
20
39.75
0
VERTEX
8
CUT
10
120
20
41.2433
0
SEQEND
0
POLYLINE
8
CUT
66
1
70
0
0
VERTEX
8
CUT
10
113.52
20
49.0833
0
VERTEX
8
CUT
10
115.02
20
53.75
0
VERTEX
8
CUT
10
119.52
20
53.75
0
VERTEX
8
CUT
10
120
20
52.2567
0
SEQEND
0
POLYLINE
8
CUT
66
1
70
0
0
VERTEX
8
CUT
10
113.52
20
28.9167
0
VERTEX
8
CUT
10
115.02
20
24.25
0
VERTEX
8
CUT
10
119.52
20
24.25
0
VERTEX
8
CUT
10
120
20
25.7433
0
SEQEND
0
POLYLINE
8
CUT
66
1
70
0
0
VERTEX
8
CUT
10
113.52
20
33.5833
0
VERTEX
8
CUT
10
115.02
20
38.25
0
VERTEX
8
CUT
10
119.52
20
38.25
0
VERTEX
8
CUT
10
120
20
36.7567
0
SEQEND
0
POLYLINE
8
CUT
66
1
70
0
0
VERTEX
8
CUT
10
113.52
20
13.4167
0
VERTEX
8
CUT
10
115.02
20
8.75
0
VERTEX
8
CUT
10
119.52
20
8.75
0
VERTEX
8
CUT
10
120
20
10.2433
0
SEQEND
0
POLYLINE
8
CUT
66
1
70
0
0
VERTEX
8
CUT
10
113.52
20
18.0833
0
VERTEX
8
CUT
10
115.02
20
22.75
0
VERTEX
8
CUT
10
119.52
20
22.75
0
VERTEX
8
CUT
10
120
20
21.2567
0
SEQEND
0
POLYLINE
8
CUT
66
1
70
0
0
VERTEX
8
CUT
10
113.52
20
2.5833
0
VERTEX
8
CUT
10
115.02
20
7.25
0
VERTEX
8
CUT
10
119.52
20
7.25
0
VERTEX
8
CUT
10
120
20
5.7567
0
SEQEND
0
POLYLINE
8
CUT
66
1
70
0
0
VERTEX
8
CUT
10
0
20
70
0
VERTEX
8
CUT
10
120
20
70
0
VERTEX
8
CUT
10
120
20
0
0
VERTEX
8
CUT
10
0
20
0
0
VERTEX
8
CUT
10
0
20
70
0
SEQEND
0
ENDSEC
0
EOF
