0
SECTION
2
HEADER
9
$ACADVER
1
AC1009
9
$INSUNITS
70
4
0
ENDSEC
0
SECTION
2
TABLES
0
TABLE
2
LAYER
70
1
0
LAYER
2
CUT
70
0
62
1
6
CONTINUOUS
0
ENDTAB
0
ENDSEC
0
SECTION
2
ENTITIES
0
POLYLINE
8
CUT
66
1
70
0
0
VERTEX
8
CUT
10
6
20
70
0
VERTEX
8
CUT
10
6
20
70
0
VERTEX
8
CUT
10
6.6677
20
68.8333
0
VERTEX
8
CUT
10
7.2827
20
67.6667
0
VERTEX
8
CUT
10
7.7964
20
66.5
0
VERTEX
8
CUT
10
8.1683
20
65.3333
0
VERTEX
8
CUT
10
8.3689
20
64.1667
0
VERTEX
8
CUT
10
8.3825
20
63
0
SEQEND
0
POLYLINE
8
CUT
66
1
70
0
0
VERTEX
8
CUT
10
7.5915
20
60
0
VERTEX
8
CUT
10
7.0289
20
58.8333
0
VERTEX
8
CUT
10
6.385
20
57.6667
0
VERTEX
8
CUT
10
5.7107
20
56.5
0
VERTEX
8
CUT
10
5.0593
20
55.3333
0
VERTEX
8
CUT
10
4.4821
20
54.1667
0
VERTEX
8
CUT
10
4.0248
20
53
0
VERTEX
8
CUT
10
3.7235
20
51.8333
0
VERTEX
8
CUT
10
3.6019
20
50.6667
0
VERTEX
8
CUT
10
3.6697
20
49.5
0
VERTEX
8
CUT
10
3.9215
20
48.3333
0
VERTEX
8
CUT
10
4.3375
20
47.1667
0
VERTEX
8
CUT
10
4.8847
20
46
0
SEQEND
0
POLYLINE
8
CUT
66
1
70
0
0
VERTEX
8
CUT
10
6.5744
20
43
0
VERTEX
8
CUT
10
7.2
20
41.8333
0
VERTEX
8
CUT
10
7.7309
20
40.6667
0
VERTEX
8
CUT
10
8.1251
20
39.5
0
VERTEX
8
CUT
10
8.3515
20
38.3333
0
VERTEX
8
CUT
10
8.3922
20
37.1667
0
VERTEX
8
CUT
10
8.244
20
36
0
VERTEX
8
CUT
10
7.9187
20
34.8333
0
VERTEX
8
CUT
10
7.4418
20
33.6667
0
VERTEX
8
CUT
10
6.8511
20
32.5
0
VERTEX
8
CUT
10
6.1931
20
31.3333
0
VERTEX
8
CUT
10
5.5199
20
30.1667
0
VERTEX
8
CUT
10
4.8847
20
29
0
SEQEND
0
POLYLINE
8
CUT
66
1
70
0
0
VERTEX
8
CUT
10
3.756
20
26
0
VERTEX
8
CUT
10
3.6078
20
24.8333
0
VERTEX
8
CUT
10
3.6485
20
23.6667
0
VERTEX
8
CUT
10
3.8749
20
22.5
0
VERTEX
8
CUT
10
4.2691
20
21.3333
0
VERTEX
8
CUT
10
4.8
20
20.1667
0
VERTEX
8
CUT
10
5.4256
20
19
0
VERTEX
8
CUT
10
6.0966
20
17.8333
0
VERTEX
8
CUT
10
6.76
20
16.6667
0
VERTEX
8
CUT
10
7.3634
20
15.5
0
VERTEX
8
CUT
10
7.8591
20
14.3333
0
VERTEX
8
CUT
10
8.208
20
13.1667
0
VERTEX
8
CUT
10
8.3825
20
12
0
SEQEND
0
POLYLINE
8
CUT
66
1
70
0
0
VERTEX
8
CUT
10
7.9752
20
9
0
VERTEX
8
CUT
10
7.5179
20
7.8333
0
VERTEX
8
CUT
10
6.9407
20
6.6667
0
VERTEX
8
CUT
10
6.2893
20
5.5
0
VERTEX
8
CUT
10
5.615
20
4.3333
0
VERTEX
8
CUT
10
4.9711
20
3.1667
0
VERTEX
8
CUT
10
4.4085
20
2
0
VERTEX
8
CUT
10
3.9715
20
0.8333
0
VERTEX
8
CUT
10
3.7738
20
0
0
SEQEND
0
POLYLINE
8
CUT
66
1
70
0
0
VERTEX
8
CUT
10
15.8511
20
68.5
0
VERTEX
8
CUT
10
16.4418
20
67.3333
0
VERTEX
8
CUT
10
16.9187
20
66.1667
0
VERTEX
8
CUT
10
17.244
20
65
0
VERTEX
8
CUT
10
17.3922
20
63.8333
0
VERTEX
8
CUT
10
17.3515
20
62.6667
0
VERTEX
8
CUT
10
17.1251
20
61.5
0
VERTEX
8
CUT
10
16.7309
20
60.3333
0
VERTEX
8
CUT
10
16.2
20
59.1667
0
VERTEX
8
CUT
10
15.5744
20
58
0
VERTEX
8
CUT
10
14.9034
20
56.8333
0
VERTEX
8
CUT
10
14.24
20
55.6667
0
VERTEX
8
CUT
10
13.6366
20
54.5
0
SEQEND
0
POLYLINE
8
CUT
66
1
70
0
0
VERTEX
8
CUT
10
12.6697
20
51.5
0
VERTEX
8
CUT
10
12.6019
20
50.3333
0
VERTEX
8
CUT
10
12.7235
20
49.1667
0
VERTEX
8
CUT
10
13.0248
20
48
0
VERTEX
8
CUT
10
13.4821
20
46.8333
0
VERTEX
8
CUT
10
14.0593
20
45.6667
0
VERTEX
8
CUT
10
14.7107
20
44.5
0
VERTEX
8
CUT
10
15.385
20
43.3333
0
VERTEX
8
CUT
10
16.0289
20
42.1667
0
VERTEX
8
CUT
10
16.5915
20
41
0
VERTEX
8
CUT
10
17.0285
20
39.8333
0
VERTEX
8
CUT
10
17.3052
20
38.6667
0
VERTEX
8
CUT
10
17.4
20
37.5
0
SEQEND
0
POLYLINE
8
CUT
66
1
70
0
0
VERTEX
8
CUT
10
16.7964
20
34.5
0
VERTEX
8
CUT
10
16.2827
20
33.3333
0
VERTEX
8
CUT
10
15.6677
20
32.1667
0
VERTEX
8
CUT
10
15
20
31
0
VERTEX
8
CUT
10
14.3323
20
29.8333
0
VERTEX
8
CUT
10
13.7173
20
28.6667
0
VERTEX
8
CUT
10
13.2036
20
27.5
0
VERTEX
8
CUT
10
12.8317
20
26.3333
0
VERTEX
8
CUT
10
12.6311
20
25.1667
0
VERTEX
8
CUT
10
12.6175
20
24
0
VERTEX
8
CUT
10
12.792
20
22.8333
0
VERTEX
8
CUT
10
13.1409
20
21.6667
0
VERTEX
8
CUT
10
13.6366
20
20.5
0
SEQEND
0
POLYLINE
8
CUT
66
1
70
0
0
VERTEX
8
CUT
10
15.2893
20
17.5
0
VERTEX
8
CUT
10
15.9407
20
16.3333
0
VERTEX
8
CUT
10
16.5179
20
15.1667
0
VERTEX
8
CUT
10
16.9752
20
14
0
VERTEX
8
CUT
10
17.2765
20
12.8333
0
VERTEX
8
CUT
10
17.3981
20
11.6667
0
VERTEX
8
CUT
10
17.3303
20
10.5
0
VERTEX
8
CUT
10
17.0785
20
9.3333
0
VERTEX
8
CUT
10
16.6625
20
8.1667
0
VERTEX
8
CUT
10
16.1153
20
7
0
VERTEX
8
CUT
10
15.4801
20
5.8333
0
VERTEX
8
CUT
10
14.8069
20
4.6667
0
VERTEX
8
CUT
10
14.1489
20
3.5
0
SEQEND
0
LINE
8
CUT
10
12.8749
20
0.5
11
12.7779
21
0
0
POLYLINE
8
CUT
66
1
70
0
0
VERTEX
8
CUT
10
24
20
70
0
VERTEX
8
CUT
10
24
20
70
0
VERTEX
8
CUT
10
24.6677
20
68.8333
0
VERTEX
8
CUT
10
25.2827
20
67.6667
0
VERTEX
8
CUT
10
25.7964
20
66.5
0
VERTEX
8
CUT
10
26.1683
20
65.3333
0
VERTEX
8
CUT
10
26.3689
20
64.1667
0
VERTEX
8
CUT
10
26.3825
20
63
0
SEQEND
0
POLYLINE
8
CUT
66
1
70
0
0
VERTEX
8
CUT
10
25.5915
20
60
0
VERTEX
8
CUT
10
25.0289
20
58.8333
0
VERTEX
8
CUT
10
24.385
20
57.6667
0
VERTEX
8
CUT
10
23.7107
20
56.5
0
VERTEX
8
CUT
10
23.0593
20
55.3333
0
VERTEX
8
CUT
10
22.4821
20
54.1667
0
VERTEX
8
CUT
10
22.0248
20
53
0
VERTEX
8
CUT
10
21.7235
20
51.8333
0
VERTEX
8
CUT
10
21.6019
20
50.6667
0
VERTEX
8
CUT
10
21.6697
20
49.5
0
VERTEX
8
CUT
10
21.9215
20
48.3333
0
VERTEX
8
CUT
10
22.3375
20
47.1667
0
VERTEX
8
CUT
10
22.8847
20
46
0
SEQEND
0
POLYLINE
8
CUT
66
1
70
0
0
VERTEX
8
CUT
10
24.5744
20
43
0
VERTEX
8
CUT
10
25.2
20
41.8333
0
VERTEX
8
CUT
10
25.7309
20
40.6667
0
VERTEX
8
CUT
10
26.1251
20
39.5
0
VERTEX
8
CUT
10
26.3515
20
38.3333
0
VERTEX
8
CUT
10
26.3922
20
37.1667
0
VERTEX
8
CUT
10
26.244
20
36
0
VERTEX
8
CUT
10
25.9187
20
34.8333
0
VERTEX
8
CUT
10
25.4418
20
33.6667
0
VERTEX
8
CUT
10
24.8511
20
32.5
0
VERTEX
8
CUT
10
24.1931
20
31.3333
0
VERTEX
8
CUT
10
23.5199
20
30.1667
0
VERTEX
8
CUT
10
22.8847
20
29
0
SEQEND
0
POLYLINE
8
CUT
66
1
70
0
0
VERTEX
8
CUT
10
21.756
20
26
0
VERTEX
8
CUT
10
21.6078
20
24.8333
0
VERTEX
8
CUT
10
21.6485
20
23.6667
0
VERTEX
8
CUT
10
21.8749
20
22.5
0
VERTEX
8
CUT
10
22.2691
20
21.3333
0
VERTEX
8
CUT
10
22.8
20
20.1667
0
VERTEX
8
CUT
10
23.4256
20
19
0
VERTEX
8
CUT
10
24.0966
20
17.8333
0
VERTEX
8
CUT
10
24.76
20
16.6667
0
VERTEX
8
CUT
10
25.3634
20
15.5
0
VERTEX
8
CUT
10
25.8591
20
14.3333
0
VERTEX
8
CUT
10
26.208
20
13.1667
0
VERTEX
8
CUT
10
26.3825
20
12
0
SEQEND
0
POLYLINE
8
CUT
66
1
70
0
0
VERTEX
8
CUT
10
25.9752
20
9
0
VERTEX
8
CUT
10
25.5179
20
7.8333
0
VERTEX
8
CUT
10
24.9407
20
6.6667
0
VERTEX
8
CUT
10
24.2893
20
5.5
0
VERTEX
8
CUT
10
23.615
20
4.3333
0
VERTEX
8
CUT
10
22.9711
20
3.1667
0
VERTEX
8
CUT
10
22.4085
20
2
0
VERTEX
8
CUT
10
21.9715
20
0.8333
0
VERTEX
8
CUT
10
21.7738
20
0
0
SEQEND
0
POLYLINE
8
CUT
66
1
70
0
0
VERTEX
8
CUT
10
33.8511
20
68.5
0
VERTEX
8
CUT
10
34.4418
20
67.3333
0
VERTEX
8
CUT
10
34.9187
20
66.1667
0
VERTEX
8
CUT
10
35.244
20
65
0
VERTEX
8
CUT
10
35.3922
20
63.8333
0
VERTEX
8
CUT
10
35.3515
20
62.6667
0
VERTEX
8
CUT
10
35.1251
20
61.5
0
VERTEX
8
CUT
10
34.7309
20
60.3333
0
VERTEX
8
CUT
10
34.2
20
59.1667
0
VERTEX
8
CUT
10
33.5744
20
58
0
VERTEX
8
CUT
10
32.9034
20
56.8333
0
VERTEX
8
CUT
10
32.24
20
55.6667
0
VERTEX
8
CUT
10
31.6366
20
54.5
0
SEQEND
0
POLYLINE
8
CUT
66
1
70
0
0
VERTEX
8
CUT
10
30.6697
20
51.5
0
VERTEX
8
CUT
10
30.6019
20
50.3333
0
VERTEX
8
CUT
10
30.7235
20
49.1667
0
VERTEX
8
CUT
10
31.0248
20
48
0
VERTEX
8
CUT
10
31.4821
20
46.8333
0
VERTEX
8
CUT
10
32.0593
20
45.6667
0
VERTEX
8
CUT
10
32.7107
20
44.5
0
VERTEX
8
CUT
10
33.385
20
43.3333
0
VERTEX
8
CUT
10
34.0289
20
42.1667
0
VERTEX
8
CUT
10
34.5915
20
41
0
VERTEX
8
CUT
10
35.0285
20
39.8333
0
VERTEX
8
CUT
10
35.3052
20
38.6667
0
VERTEX
8
CUT
10
35.4
20
37.5
0
SEQEND
0
POLYLINE
8
CUT
66
1
70
0
0
VERTEX
8
CUT
10
34.7964
20
34.5
0
VERTEX
8
CUT
10
34.2827
20
33.3333
0
VERTEX
8
CUT
10
33.6677
20
32.1667
0
VERTEX
8
CUT
10
33
20
31
0
VERTEX
8
CUT
10
32.3323
20
29.8333
0
VERTEX
8
CUT
10
31.7173
20
28.6667
0
VERTEX
8
CUT
10
31.2036
20
27.5
0
VERTEX
8
CUT
10
30.8317
20
26.3333
0
VERTEX
8
CUT
10
30.6311
20
25.1667
0
VERTEX
8
CUT
10
30.6175
20
24
0
VERTEX
8
CUT
10
30.792
20
22.8333
0
VERTEX
8
CUT
10
31.1409
20
21.6667
0
VERTEX
8
CUT
10
31.6366
20
20.5
0
SEQEND
0
POLYLINE
8
CUT
66
1
70
0
0
VERTEX
8
CUT
10
33.2893
20
17.5
0
VERTEX
8
CUT
10
33.9407
20
16.3333
0
VERTEX
8
CUT
10
34.5179
20
15.1667
0
VERTEX
8
CUT
10
34.9752
20
14
0
VERTEX
8
CUT
10
35.2765
20
12.8333
0
VERTEX
8
CUT
10
35.3981
20
11.6667
0
VERTEX
8
CUT
10
35.3303
20
10.5
0
VERTEX
8
CUT
10
35.0785
20
9.3333
0
VERTEX
8
CUT
10
34.6625
20
8.1667
0
VERTEX
8
CUT
10
34.1153
20
7
0
VERTEX
8
CUT
10
33.4801
20
5.8333
0
VERTEX
8
CUT
10
32.8069
20
4.6667
0
VERTEX
8
CUT
10
32.1489
20
3.5
0
SEQEND
0
LINE
8
CUT
10
30.8749
20
0.5
11
30.7779
21
0
0
POLYLINE
8
CUT
66
1
70
0
0
VERTEX
8
CUT
10
42
20
70
0
VERTEX
8
CUT
10
42
20
70
0
VERTEX
8
CUT
10
42.6677
20
68.8333
0
VERTEX
8
CUT
10
43.2827
20
67.6667
0
VERTEX
8
CUT
10
43.7964
20
66.5
0
VERTEX
8
CUT
10
44.1683
20
65.3333
0
VERTEX
8
CUT
10
44.3689
20
64.1667
0
VERTEX
8
CUT
10
44.3825
20
63
0
SEQEND
0
POLYLINE
8
CUT
66
1
70
0
0
VERTEX
8
CUT
10
43.5915
20
60
0
VERTEX
8
CUT
10
43.0289
20
58.8333
0
VERTEX
8
CUT
10
42.385
20
57.6667
0
VERTEX
8
CUT
10
41.7107
20
56.5
0
VERTEX
8
CUT
10
41.0593
20
55.3333
0
VERTEX
8
CUT
10
40.4821
20
54.1667
0
VERTEX
8
CUT
10
40.0248
20
53
0
VERTEX
8
CUT
10
39.7235
20
51.8333
0
VERTEX
8
CUT
10
39.6019
20
50.6667
0
VERTEX
8
CUT
10
39.6697
20
49.5
0
VERTEX
8
CUT
10
39.9215
20
48.3333
0
VERTEX
8
CUT
10
40.3375
20
47.1667
0
VERTEX
8
CUT
10
40.8847
20
46
0
SEQEND
0
POLYLINE
8
CUT
66
1
70
0
0
VERTEX
8
CUT
10
42.5744
20
43
0
VERTEX
8
CUT
10
43.2
20
41.8333
0
VERTEX
8
CUT
10
43.7309
20
40.6667
0
VERTEX
8
CUT
10
44.1251
20
39.5
0
VERTEX
8
CUT
10
44.3515
20
38.3333
0
VERTEX
8
CUT
10
44.3922
20
37.1667
0
VERTEX
8
CUT
10
44.244
20
36
0
VERTEX
8
CUT
10
43.9187
20
34.8333
0
VERTEX
8
CUT
10
43.4418
20
33.6667
0
VERTEX
8
CUT
10
42.8511
20
32.5
0
VERTEX
8
CUT
10
42.1931
20
31.3333
0
VERTEX
8
CUT
10
41.5199
20
30.1667
0
VERTEX
8
CUT
10
40.8847
20
29
0
SEQEND
0
POLYLINE
8
CUT
66
1
70
0
0
VERTEX
8
CUT
10
39.756
20
26
0
VERTEX
8
CUT
10
39.6078
20
24.8333
0
VERTEX
8
CUT
10
39.6485
20
23.6667
0
VERTEX
8
CUT
10
39.8749
20
22.5
0
VERTEX
8
CUT
10
40.2691
20
21.3333
0
VERTEX
8
CUT
10
40.8
20
20.1667
0
VERTEX
8
CUT
10
41.4256
20
19
0
VERTEX
8
CUT
10
42.0966
20
17.8333
0
VERTEX
8
CUT
10
42.76
20
16.6667
0
VERTEX
8
CUT
10
43.3634
20
15.5
0
VERTEX
8
CUT
10
43.8591
20
14.3333
0
VERTEX
8
CUT
10
44.208
20
13.1667
0
VERTEX
8
CUT
10
44.3825
20
12
0
SEQEND
0
POLYLINE
8
CUT
66
1
70
0
0
VERTEX
8
CUT
10
43.9752
20
9
0
VERTEX
8
CUT
10
43.5179
20
7.8333
0
VERTEX
8
CUT
10
42.9407
20
6.6667
0
VERTEX
8
CUT
10
42.2893
20
5.5
0
VERTEX
8
CUT
10
41.615
20
4.3333
0
VERTEX
8
CUT
10
40.9711
20
3.1667
0
VERTEX
8
CUT
10
40.4085
20
2
0
VERTEX
8
CUT
10
39.9715
20
0.8333
0
VERTEX
8
CUT
10
39.7738
20
0
0
SEQEND
0
POLYLINE
8
CUT
66
1
70
0
0
VERTEX
8
CUT
10
51.8511
20
68.5
0
VERTEX
8
CUT
10
52.4418
20
67.3333
0
VERTEX
8
CUT
10
52.9187
20
66.1667
0
VERTEX
8
CUT
10
53.244
20
65
0
VERTEX
8
CUT
10
53.3922
20
63.8333
0
VERTEX
8
CUT
10
53.3515
20
62.6667
0
VERTEX
8
CUT
10
53.1251
20
61.5
0
VERTEX
8
CUT
10
52.7309
20
60.3333
0
VERTEX
8
CUT
10
52.2
20
59.1667
0
VERTEX
8
CUT
10
51.5744
20
58
0
VERTEX
8
CUT
10
50.9034
20
56.8333
0
VERTEX
8
CUT
10
50.24
20
55.6667
0
VERTEX
8
CUT
10
49.6366
20
54.5
0
SEQEND
0
POLYLINE
8
CUT
66
1
70
0
0
VERTEX
8
CUT
10
48.6697
20
51.5
0
VERTEX
8
CUT
10
48.6019
20
50.3333
0
VERTEX
8
CUT
10
48.7235
20
49.1667
0
VERTEX
8
CUT
10
49.0248
20
48
0
VERTEX
8
CUT
10
49.4821
20
46.8333
0
VERTEX
8
CUT
10
50.0593
20
45.6667
0
VERTEX
8
CUT
10
50.7107
20
44.5
0
VERTEX
8
CUT
10
51.385
20
43.3333
0
VERTEX
8
CUT
10
52.0289
20
42.1667
0
VERTEX
8
CUT
10
52.5915
20
41
0
VERTEX
8
CUT
10
53.0285
20
39.8333
0
VERTEX
8
CUT
10
53.3052
20
38.6667
0
VERTEX
8
CUT
10
53.4
20
37.5
0
SEQEND
0
POLYLINE
8
CUT
66
1
70
0
0
VERTEX
8
CUT
10
52.7964
20
34.5
0
VERTEX
8
CUT
10
52.2827
20
33.3333
0
VERTEX
8
CUT
10
51.6677
20
32.1667
0
VERTEX
8
CUT
10
51
20
31
0
VERTEX
8
CUT
10
50.3323
20
29.8333
0
VERTEX
8
CUT
10
49.7173
20
28.6667
0
VERTEX
8
CUT
10
49.2036
20
27.5
0
VERTEX
8
CUT
10
48.8317
20
26.3333
0
VERTEX
8
CUT
10
48.6311
20
25.1667
0
VERTEX
8
CUT
10
48.6175
20
24
0
VERTEX
8
CUT
10
48.792
20
22.8333
0
VERTEX
8
CUT
10
49.1409
20
21.6667
0
VERTEX
8
CUT
10
49.6366
20
20.5
0
SEQEND
0
POLYLINE
8
CUT
66
1
70
0
0
VERTEX
8
CUT
10
51.2893
20
17.5
0
VERTEX
8
CUT
10
51.9407
20
16.3333
0
VERTEX
8
CUT
10
52.5179
20
15.1667
0
VERTEX
8
CUT
10
52.9752
20
14
0
VERTEX
8
CUT
10
53.2765
20
12.8333
0
VERTEX
8
CUT
10
53.3981
20
11.6667
0
VERTEX
8
CUT
10
53.3303
20
10.5
0
VERTEX
8
CUT
10
53.0785
20
9.3333
0
VERTEX
8
CUT
10
52.6625
20
8.1667
0
VERTEX
8
CUT
10
52.1153
20
7
0
VERTEX
8
CUT
10
51.4801
20
5.8333
0
VERTEX
8
CUT
10
50.8069
20
4.6667
0
VERTEX
8
CUT
10
50.1489
20
3.5
0
SEQEND
0
LINE
8
CUT
10
48.8749
20
0.5
11
48.7779
21
0
0
POLYLINE
8
CUT
66
1
70
0
0
VERTEX
8
CUT
10
60
20
70
0
VERTEX
8
CUT
10
60
20
70
0
VERTEX
8
CUT
10
60.6677
20
68.8333
0
VERTEX
8
CUT
10
61.2827
20
67.6667
0
VERTEX
8
CUT
10
61.7964
20
66.5
0
VERTEX
8
CUT
10
62.1683
20
65.3333
0
VERTEX
8
CUT
10
62.3689
20
64.1667
0
VERTEX
8
CUT
10
62.3825
20
63
0
SEQEND
0
POLYLINE
8
CUT
66
1
70
0
0
VERTEX
8
CUT
10
61.5915
20
60
0
VERTEX
8
CUT
10
61.0289
20
58.8333
0
VERTEX
8
CUT
10
60.385
20
57.6667
0
VERTEX
8
CUT
10
59.7107
20
56.5
0
VERTEX
8
CUT
10
59.0593
20
55.3333
0
VERTEX
8
CUT
10
58.4821
20
54.1667
0
VERTEX
8
CUT
10
58.0248
20
53
0
VERTEX
8
CUT
10
57.7235
20
51.8333
0
VERTEX
8
CUT
10
57.6019
20
50.6667
0
VERTEX
8
CUT
10
57.6697
20
49.5
0
VERTEX
8
CUT
10
57.9215
20
48.3333
0
VERTEX
8
CUT
10
58.3375
20
47.1667
0
VERTEX
8
CUT
10
58.8847
20
46
0
SEQEND
0
POLYLINE
8
CUT
66
1
70
0
0
VERTEX
8
CUT
10
60.5744
20
43
0
VERTEX
8
CUT
10
61.2
20
41.8333
0
VERTEX
8
CUT
10
61.7309
20
40.6667
0
VERTEX
8
CUT
10
62.1251
20
39.5
0
VERTEX
8
CUT
10
62.3515
20
38.3333
0
VERTEX
8
CUT
10
62.3922
20
37.1667
0
VERTEX
8
CUT
10
62.244
20
36
0
VERTEX
8
CUT
10
61.9187
20
34.8333
0
VERTEX
8
CUT
10
61.4418
20
33.6667
0
VERTEX
8
CUT
10
60.8511
20
32.5
0
VERTEX
8
CUT
10
60.1931
20
31.3333
0
VERTEX
8
CUT
10
59.5199
20
30.1667
0
VERTEX
8
CUT
10
58.8847
20
29
0
SEQEND
0
POLYLINE
8
CUT
66
1
70
0
0
VERTEX
8
CUT
10
57.756
20
26
0
VERTEX
8
CUT
10
57.6078
20
24.8333
0
VERTEX
8
CUT
10
57.6485
20
23.6667
0
VERTEX
8
CUT
10
57.8749
20
22.5
0
VERTEX
8
CUT
10
58.2691
20
21.3333
0
VERTEX
8
CUT
10
58.8
20
20.1667
0
VERTEX
8
CUT
10
59.4256
20
19
0
VERTEX
8
CUT
10
60.0966
20
17.8333
0
VERTEX
8
CUT
10
60.76
20
16.6667
0
VERTEX
8
CUT
10
61.3634
20
15.5
0
VERTEX
8
CUT
10
61.8591
20
14.3333
0
VERTEX
8
CUT
10
62.208
20
13.1667
0
VERTEX
8
CUT
10
62.3825
20
12
0
SEQEND
0
POLYLINE
8
CUT
66
1
70
0
0
VERTEX
8
CUT
10
61.9752
20
9
0
VERTEX
8
CUT
10
61.5179
20
7.8333
0
VERTEX
8
CUT
10
60.9407
20
6.6667
0
VERTEX
8
CUT
10
60.2893
20
5.5
0
VERTEX
8
CUT
10
59.615
20
4.3333
0
VERTEX
8
CUT
10
58.9711
20
3.1667
0
VERTEX
8
CUT
10
58.4085
20
2
0
VERTEX
8
CUT
10
57.9715
20
0.8333
0
VERTEX
8
CUT
10
57.7738
20
0
0
SEQEND
0
POLYLINE
8
CUT
66
1
70
0
0
VERTEX
8
CUT
10
69.8511
20
68.5
0
VERTEX
8
CUT
10
70.4418
20
67.3333
0
VERTEX
8
CUT
10
70.9187
20
66.1667
0
VERTEX
8
CUT
10
71.244
20
65
0
VERTEX
8
CUT
10
71.3922
20
63.8333
0
VERTEX
8
CUT
10
71.3515
20
62.6667
0
VERTEX
8
CUT
10
71.1251
20
61.5
0
VERTEX
8
CUT
10
70.7309
20
60.3333
0
VERTEX
8
CUT
10
70.2
20
59.1667
0
VERTEX
8
CUT
10
69.5744
20
58
0
VERTEX
8
CUT
10
68.9034
20
56.8333
0
VERTEX
8
CUT
10
68.24
20
55.6667
0
VERTEX
8
CUT
10
67.6366
20
54.5
0
SEQEND
0
POLYLINE
8
CUT
66
1
70
0
0
VERTEX
8
CUT
10
66.6697
20
51.5
0
VERTEX
8
CUT
10
66.6019
20
50.3333
0
VERTEX
8
CUT
10
66.7235
20
49.1667
0
VERTEX
8
CUT
10
67.0248
20
48
0
VERTEX
8
CUT
10
67.4821
20
46.8333
0
VERTEX
8
CUT
10
68.0593
20
45.6667
0
VERTEX
8
CUT
10
68.7107
20
44.5
0
VERTEX
8
CUT
10
69.385
20
43.3333
0
VERTEX
8
CUT
10
70.0289
20
42.1667
0
VERTEX
8
CUT
10
70.5915
20
41
0
VERTEX
8
CUT
10
71.0285
20
39.8333
0
VERTEX
8
CUT
10
71.3052
20
38.6667
0
VERTEX
8
CUT
10
71.4
20
37.5
0
SEQEND
0
POLYLINE
8
CUT
66
1
70
0
0
VERTEX
8
CUT
10
70.7964
20
34.5
0
VERTEX
8
CUT
10
70.2827
20
33.3333
0
VERTEX
8
CUT
10
69.6677
20
32.1667
0
VERTEX
8
CUT
10
69
20
31
0
VERTEX
8
CUT
10
68.3323
20
29.8333
0
VERTEX
8
CUT
10
67.7173
20
28.6667
0
VERTEX
8
CUT
10
67.2036
20
27.5
0
VERTEX
8
CUT
10
66.8317
20
26.3333
0
VERTEX
8
CUT
10
66.6311
20
25.1667
0
VERTEX
8
CUT
10
66.6175
20
24
0
VERTEX
8
CUT
10
66.792
20
22.8333
0
VERTEX
8
CUT
10
67.1409
20
21.6667
0
VERTEX
8
CUT
10
67.6366
20
20.5
0
SEQEND
0
POLYLINE
8
CUT
66
1
70
0
0
VERTEX
8
CUT
10
69.2893
20
17.5
0
VERTEX
8
CUT
10
69.9407
20
16.3333
0
VERTEX
8
CUT
10
70.5179
20
15.1667
0
VERTEX
8
CUT
10
70.9752
20
14
0
VERTEX
8
CUT
10
71.2765
20
12.8333
0
VERTEX
8
CUT
10
71.3981
20
11.6667
0
VERTEX
8
CUT
10
71.3303
20
10.5
0
VERTEX
8
CUT
10
71.0785
20
9.3333
0
VERTEX
8
CUT
10
70.6625
20
8.1667
0
VERTEX
8
CUT
10
70.1153
20
7
0
VERTEX
8
CUT
10
69.4801
20
5.8333
0
VERTEX
8
CUT
10
68.8069
20
4.6667
0
VERTEX
8
CUT
10
68.1489
20
3.5
0
SEQEND
0
LINE
8
CUT
10
66.8749
20
0.5
11
66.7779
21
0
0
POLYLINE
8
CUT
66
1
70
0
0
VERTEX
8
CUT
10
78
20
70
0
VERTEX
8
CUT
10
78
20
70
0
VERTEX
8
CUT
10
78.6677
20
68.8333
0
VERTEX
8
CUT
10
79.2827
20
67.6667
0
VERTEX
8
CUT
10
79.7964
20
66.5
0
VERTEX
8
CUT
10
80.1683
20
65.3333
0
VERTEX
8
CUT
10
80.3689
20
64.1667
0
VERTEX
8
CUT
10
80.3825
20
63
0
SEQEND
0
POLYLINE
8
CUT
66
1
70
0
0
VERTEX
8
CUT
10
79.5915
20
60
0
VERTEX
8
CUT
10
79.0289
20
58.8333
0
VERTEX
8
CUT
10
78.385
20
57.6667
0
VERTEX
8
CUT
10
77.7107
20
56.5
0
VERTEX
8
CUT
10
77.0593
20
55.3333
0
VERTEX
8
CUT
10
76.4821
20
54.1667
0
VERTEX
8
CUT
10
76.0248
20
53
0
VERTEX
8
CUT
10
75.7235
20
51.8333
0
VERTEX
8
CUT
10
75.6019
20
50.6667
0
VERTEX
8
CUT
10
75.6697
20
49.5
0
VERTEX
8
CUT
10
75.9215
20
48.3333
0
VERTEX
8
CUT
10
76.3375
20
47.1667
0
VERTEX
8
CUT
10
76.8847
20
46
0
SEQEND
0
POLYLINE
8
CUT
66
1
70
0
0
VERTEX
8
CUT
10
78.5744
20
43
0
VERTEX
8
CUT
10
79.2
20
41.8333
0
VERTEX
8
CUT
10
79.7309
20
40.6667
0
VERTEX
8
CUT
10
80.1251
20
39.5
0
VERTEX
8
CUT
10
80.3515
20
38.3333
0
VERTEX
8
CUT
10
80.3922
20
37.1667
0
VERTEX
8
CUT
10
80.244
20
36
0
VERTEX
8
CUT
10
79.9187
20
34.8333
0
VERTEX
8
CUT
10
79.4418
20
33.6667
0
VERTEX
8
CUT
10
78.8511
20
32.5
0
VERTEX
8
CUT
10
78.1931
20
31.3333
0
VERTEX
8
CUT
10
77.5199
20
30.1667
0
VERTEX
8
CUT
10
76.8847
20
29
0
SEQEND
0
POLYLINE
8
CUT
66
1
70
0
0
VERTEX
8
CUT
10
75.756
20
26
0
VERTEX
8
CUT
10
75.6078
20
24.8333
0
VERTEX
8
CUT
10
75.6485
20
23.6667
0
VERTEX
8
CUT
10
75.8749
20
22.5
0
VERTEX
8
CUT
10
76.2691
20
21.3333
0
VERTEX
8
CUT
10
76.8
20
20.1667
0
VERTEX
8
CUT
10
77.4256
20
19
0
VERTEX
8
CUT
10
78.0966
20
17.8333
0
VERTEX
8
CUT
10
78.76
20
16.6667
0
VERTEX
8
CUT
10
79.3634
20
15.5
0
VERTEX
8
CUT
10
79.8591
20
14.3333
0
VERTEX
8
CUT
10
80.208
20
13.1667
0
VERTEX
8
CUT
10
80.3825
20
12
0
SEQEND
0
POLYLINE
8
CUT
66
1
70
0
0
VERTEX
8
CUT
10
79.9752
20
9
0
VERTEX
8
CUT
10
79.5179
20
7.8333
0
VERTEX
8
CUT
10
78.9407
20
6.6667
0
VERTEX
8
CUT
10
78.2893
20
5.5
0
VERTEX
8
CUT
10
77.615
20
4.3333
0
VERTEX
8
CUT
10
76.9711
20
3.1667
0
VERTEX
8
CUT
10
76.4085
20
2
0
VERTEX
8
CUT
10
75.9715
20
0.8333
0
VERTEX
8
CUT
10
75.7738
20
0
0
SEQEND
0
POLYLINE
8
CUT
66
1
70
0
0
VERTEX
8
CUT
10
87.8511
20
68.5
0
VERTEX
8
CUT
10
88.4418
20
67.3333
0
VERTEX
8
CUT
10
88.9187
20
66.1667
0
VERTEX
8
CUT
10
89.244
20
65
0
VERTEX
8
CUT
10
89.3922
20
63.8333
0
VERTEX
8
CUT
10
89.3515
20
62.6667
0
VERTEX
8
CUT
10
89.1251
20
61.5
0
VERTEX
8
CUT
10
88.7309
20
60.3333
0
VERTEX
8
CUT
10
88.2
20
59.1667
0
VERTEX
8
CUT
10
87.5744
20
58
0
VERTEX
8
CUT
10
86.9034
20
56.8333
0
VERTEX
8
CUT
10
86.24
20
55.6667
0
VERTEX
8
CUT
10
85.6366
20
54.5
0
SEQEND
0
POLYLINE
8
CUT
66
1
70
0
0
VERTEX
8
CUT
10
84.6697
20
51.5
0
VERTEX
8
CUT
10
84.6019
20
50.3333
0
VERTEX
8
CUT
10
84.7235
20
49.1667
0
VERTEX
8
CUT
10
85.0248
20
48
0
VERTEX
8
CUT
10
85.4821
20
46.8333
0
VERTEX
8
CUT
10
86.0593
20
45.6667
0
VERTEX
8
CUT
10
86.7107
20
44.5
0
VERTEX
8
CUT
10
87.385
20
43.3333
0
VERTEX
8
CUT
10
88.0289
20
42.1667
0
VERTEX
8
CUT
10
88.5915
20
41
0
VERTEX
8
CUT
10
89.0285
20
39.8333
0
VERTEX
8
CUT
10
89.3052
20
38.6667
0
VERTEX
8
CUT
10
89.4
20
37.5
0
SEQEND
0
POLYLINE
8
CUT
66
1
70
0
0
VERTEX
8
CUT
10
88.7964
20
34.5
0
VERTEX
8
CUT
10
88.2827
20
33.3333
0
VERTEX
8
CUT
10
87.6677
20
32.1667
0
VERTEX
8
CUT
10
87
20
31
0
VERTEX
8
CUT
10
86.3323
20
29.8333
0
VERTEX
8
CUT
10
85.7173
20
28.6667
0
VERTEX
8
CUT
10
85.2036
20
27.5
0
VERTEX
8
CUT
10
84.8317
20
26.3333
0
VERTEX
8
CUT
10
84.6311
20
25.1667
0
VERTEX
8
CUT
10
84.6175
20
24
0
VERTEX
8
CUT
10
84.792
20
22.8333
0
VERTEX
8
CUT
10
85.1409
20
21.6667
0
VERTEX
8
CUT
10
85.6366
20
20.5
0
SEQEND
0
POLYLINE
8
CUT
66
1
70
0
0
VERTEX
8
CUT
10
87.2893
20
17.5
0
VERTEX
8
CUT
10
87.9407
20
16.3333
0
VERTEX
8
CUT
10
88.5179
20
15.1667
0
VERTEX
8
CUT
10
88.9752
20
14
0
VERTEX
8
CUT
10
89.2765
20
12.8333
0
VERTEX
8
CUT
10
89.3981
20
11.6667
0
VERTEX
8
CUT
10
89.3303
20
10.5
0
VERTEX
8
CUT
10
89.0785
20
9.3333
0
VERTEX
8
CUT
10
88.6625
20
8.1667
0
VERTEX
8
CUT
10
88.1153
20
7
0
VERTEX
8
CUT
10
87.4801
20
5.8333
0
VERTEX
8
CUT
10
86.8069
20
4.6667
0
VERTEX
8
CUT
10
86.1489
20
3.5
0
SEQEND
0
LINE
8
CUT
10
84.8749
20
0.5
11
84.7779
21
0
0
POLYLINE
8
CUT
66
1
70
0
0
VERTEX
8
CUT
10
96
20
70
0
VERTEX
8
CUT
10
96
20
70
0
VERTEX
8
CUT
10
96.6677
20
68.8333
0
VERTEX
8
CUT
10
97.2827
20
67.6667
0
VERTEX
8
CUT
10
97.7964
20
66.5
0
VERTEX
8
CUT
10
98.1683
20
65.3333
0
VERTEX
8
CUT
10
98.3689
20
64.1667
0
VERTEX
8
CUT
10
98.3825
20
63
0
SEQEND
0
POLYLINE
8
CUT
66
1
70
0
0
VERTEX
8
CUT
10
97.5915
20
60
0
VERTEX
8
CUT
10
97.0289
20
58.8333
0
VERTEX
8
CUT
10
96.385
20
57.6667
0
VERTEX
8
CUT
10
95.7107
20
56.5
0
VERTEX
8
CUT
10
95.0593
20
55.3333
0
VERTEX
8
CUT
10
94.4821
20
54.1667
0
VERTEX
8
CUT
10
94.0248
20
53
0
VERTEX
8
CUT
10
93.7235
20
51.8333
0
VERTEX
8
CUT
10
93.6019
20
50.6667
0
VERTEX
8
CUT
10
93.6697
20
49.5
0
VERTEX
8
CUT
10
93.9215
20
48.3333
0
VERTEX
8
CUT
10
94.3375
20
47.1667
0
VERTEX
8
CUT
10
94.8847
20
46
0
SEQEND
0
POLYLINE
8
CUT
66
1
70
0
0
VERTEX
8
CUT
10
96.5744
20
43
0
VERTEX
8
CUT
10
97.2
20
41.8333
0
VERTEX
8
CUT
10
97.7309
20
40.6667
0
VERTEX
8
CUT
10
98.1251
20
39.5
0
VERTEX
8
CUT
10
98.3515
20
38.3333
0
VERTEX
8
CUT
10
98.3922
20
37.1667
0
VERTEX
8
CUT
10
98.244
20
36
0
VERTEX
8
CUT
10
97.9187
20
34.8333
0
VERTEX
8
CUT
10
97.4418
20
33.6667
0
VERTEX
8
CUT
10
96.8511
20
32.5
0
VERTEX
8
CUT
10
96.1931
20
31.3333
0
VERTEX
8
CUT
10
95.5199
20
30.1667
0
VERTEX
8
CUT
10
94.8847
20
29
0
SEQEND
0
POLYLINE
8
CUT
66
1
70
0
0
VERTEX
8
CUT
10
93.756
20
26
0
VERTEX
8
CUT
10
93.6078
20
24.8333
0
VERTEX
8
CUT
10
93.6485
20
23.6667
0
VERTEX
8
CUT
10
93.8749
20
22.5
0
VERTEX
8
CUT
10
94.2691
20
21.3333
0
VERTEX
8
CUT
10
94.8
20
20.1667
0
VERTEX
8
CUT
10
95.4256
20
19
0
VERTEX
8
CUT
10
96.0966
20
17.8333
0
VERTEX
8
CUT
10
96.76
20
16.6667
0
VERTEX
8
CUT
10
97.3634
20
15.5
0
VERTEX
8
CUT
10
97.8591
20
14.3333
0
VERTEX
8
CUT
10
98.208
20
13.1667
0
VERTEX
8
CUT
10
98.3825
20
12
0
SEQEND
0
POLYLINE
8
CUT
66
1
70
0
0
VERTEX
8
CUT
10
97.9752
20
9
0
VERTEX
8
CUT
10
97.5179
20
7.8333
0
VERTEX
8
CUT
10
96.9407
20
6.6667
0
VERTEX
8
CUT
10
96.2893
20
5.5
0
VERTEX
8
CUT
10
95.615
20
4.3333
0
VERTEX
8
CUT
10
94.9711
20
3.1667
0
VERTEX
8
CUT
10
94.4085
20
2
0
VERTEX
8
CUT
10
93.9715
20
0.8333
0
VERTEX
8
CUT
10
93.7738
20
0
0
SEQEND
0
POLYLINE
8
CUT
66
1
70
0
0
VERTEX
8
CUT
10
105.8511
20
68.5
0
VERTEX
8
CUT
10
106.4418
20
67.3333
0
VERTEX
8
CUT
10
106.9187
20
66.1667
0
VERTEX
8
CUT
10
107.244
20
65
0
VERTEX
8
CUT
10
107.3922
20
63.8333
0
VERTEX
8
CUT
10
107.3515
20
62.6667
0
VERTEX
8
CUT
10
107.1251
20
61.5
0
VERTEX
8
CUT
10
106.7309
20
60.3333
0
VERTEX
8
CUT
10
106.2
20
59.1667
0
VERTEX
8
CUT
10
105.5744
20
58
0
VERTEX
8
CUT
10
104.9034
20
56.8333
0
VERTEX
8
CUT
10
104.24
20
55.6667
0
VERTEX
8
CUT
10
103.6366
20
54.5
0
SEQEND
0
POLYLINE
8
CUT
66
1
70
0
0
VERTEX
8
CUT
10
102.6697
20
51.5
0
VERTEX
8
CUT
10
102.6019
20
50.3333
0
VERTEX
8
CUT
10
102.7235
20
49.1667
0
VERTEX
8
CUT
10
103.0248
20
48
0
VERTEX
8
CUT
10
103.4821
20
46.8333
0
VERTEX
8
CUT
10
104.0593
20
45.6667
0
VERTEX
8
CUT
10
104.7107
20
44.5
0
VERTEX
8
CUT
10
105.385
20
43.3333
0
VERTEX
8
CUT
10
106.0289
20
42.1667
0
VERTEX
8
CUT
10
106.5915
20
41
0
VERTEX
8
CUT
10
107.0285
20
39.8333
0
VERTEX
8
CUT
10
107.3052
20
38.6667
0
VERTEX
8
CUT
10
107.4
20
37.5
0
SEQEND
0
POLYLINE
8
CUT
66
1
70
0
0
VERTEX
8
CUT
10
106.7964
20
34.5
0
VERTEX
8
CUT
10
106.2827
20
33.3333
0
VERTEX
8
CUT
10
105.6677
20
32.1667
0
VERTEX
8
CUT
10
105
20
31
0
VERTEX
8
CUT
10
104.3323
20
29.8333
0
VERTEX
8
CUT
10
103.7173
20
28.6667
0
VERTEX
8
CUT
10
103.2036
20
27.5
0
VERTEX
8
CUT
10
102.8317
20
26.3333
0
VERTEX
8
CUT
10
102.6311
20
25.1667
0
VERTEX
8
CUT
10
102.6175
20
24
0
VERTEX
8
CUT
10
102.792
20
22.8333
0
VERTEX
8
CUT
10
103.1409
20
21.6667
0
VERTEX
8
CUT
10
103.6366
20
20.5
0
SEQEND
0
POLYLINE
8
CUT
66
1
70
0
0
VERTEX
8
CUT
10
105.2893
20
17.5
0
VERTEX
8
CUT
10
105.9407
20
16.3333
0
VERTEX
8
CUT
10
106.5179
20
15.1667
0
VERTEX
8
CUT
10
106.9752
20
14
0
VERTEX
8
CUT
10
107.2765
20
12.8333
0
VERTEX
8
CUT
10
107.3981
20
11.6667
0
VERTEX
8
CUT
10
107.3303
20
10.5
0
VERTEX
8
CUT
10
107.0785
20
9.3333
0
VERTEX
8
CUT
10
106.6625
20
8.1667
0
VERTEX
8
CUT
10
106.1153
20
7
0
VERTEX
8
CUT
10
105.4801
20
5.8333
0
VERTEX
8
CUT
10
104.8069
20
4.6667
0
VERTEX
8
CUT
10
104.1489
20
3.5
0
SEQEND
0
LINE
8
CUT
10
102.8749
20
0.5
11
102.7779
21
0
0
POLYLINE
8
CUT
66
1
70
0
0
VERTEX
8
CUT
10
114
20
70
0
VERTEX
8
CUT
10
114
20
70
0
VERTEX
8
CUT
10
114.6677
20
68.8333
0
VERTEX
8
CUT
10
115.2827
20
67.6667
0
VERTEX
8
CUT
10
115.7964
20
66.5
0
VERTEX
8
CUT
10
116.1683
20
65.3333
0
VERTEX
8
CUT
10
116.3689
20
64.1667
0
VERTEX
8
CUT
10
116.3825
20
63
0
SEQEND
0
POLYLINE
8
CUT
66
1
70
0
0
VERTEX
8
CUT
10
115.5915
20
60
0
VERTEX
8
CUT
10
115.0289
20
58.8333
0
VERTEX
8
CUT
10
114.385
20
57.6667
0
VERTEX
8
CUT
10
113.7107
20
56.5
0
VERTEX
8
CUT
10
113.0593
20
55.3333
0
VERTEX
8
CUT
10
112.4821
20
54.1667
0
VERTEX
8
CUT
10
112.0248
20
53
0
VERTEX
8
CUT
10
111.7235
20
51.8333
0
VERTEX
8
CUT
10
111.6019
20
50.6667
0
VERTEX
8
CUT
10
111.6697
20
49.5
0
VERTEX
8
CUT
10
111.9215
20
48.3333
0
VERTEX
8
CUT
10
112.3375
20
47.1667
0
VERTEX
8
CUT
10
112.8847
20
46
0
SEQEND
0
POLYLINE
8
CUT
66
1
70
0
0
VERTEX
8
CUT
10
114.5744
20
43
0
VERTEX
8
CUT
10
115.2
20
41.8333
0
VERTEX
8
CUT
10
115.7309
20
40.6667
0
VERTEX
8
CUT
10
116.1251
20
39.5
0
VERTEX
8
CUT
10
116.3515
20
38.3333
0
VERTEX
8
CUT
10
116.3922
20
37.1667
0
VERTEX
8
CUT
10
116.244
20
36
0
VERTEX
8
CUT
10
115.9187
20
34.8333
0
VERTEX
8
CUT
10
115.4418
20
33.6667
0
VERTEX
8
CUT
10
114.8511
20
32.5
0
VERTEX
8
CUT
10
114.1931
20
31.3333
0
VERTEX
8
CUT
10
113.5199
20
30.1667
0
VERTEX
8
CUT
10
112.8847
20
29
0
SEQEND
0
POLYLINE
8
CUT
66
1
70
0
0
VERTEX
8
CUT
10
111.756
20
26
0
VERTEX
8
CUT
10
111.6078
20
24.8333
0
VERTEX
8
CUT
10
111.6485
20
23.6667
0
VERTEX
8
CUT
10
111.8749
20
22.5
0
VERTEX
8
CUT
10
112.2691
20
21.3333
0
VERTEX
8
CUT
10
112.8
20
20.1667
0
VERTEX
8
CUT
10
113.4256
20
19
0
VERTEX
8
CUT
10
114.0966
20
17.8333
0
VERTEX
8
CUT
10
114.76
20
16.6667
0
VERTEX
8
CUT
10
115.3634
20
15.5
0
VERTEX
8
CUT
10
115.8591
20
14.3333
0
VERTEX
8
CUT
10
116.208
20
13.1667
0
VERTEX
8
CUT
10
116.3825
20
12
0
SEQEND
0
POLYLINE
8
CUT
66
1
70
0
0
VERTEX
8
CUT
10
115.9752
20
9
0
VERTEX
8
CUT
10
115.5179
20
7.8333
0
VERTEX
8
CUT
10
114.9407
20
6.6667
0
VERTEX
8
CUT
10
114.2893
20
5.5
0
VERTEX
8
CUT
10
113.615
20
4.3333
0
VERTEX
8
CUT
10
112.9711
20
3.1667
0
VERTEX
8
CUT
10
112.4085
20
2
0
VERTEX
8
CUT
10
111.9715
20
0.8333
0
VERTEX
8
CUT
10
111.7738
20
0
0
SEQEND
0
POLYLINE
8
CUT
66
1
70
0
0
VERTEX
8
CUT
10
0
20
70
0
VERTEX
8
CUT
10
120
20
70
0
VERTEX
8
CUT
10
120
20
0
0
VERTEX
8
CUT
10
0
20
0
0
VERTEX
8
CUT
10
0
20
70
0
SEQEND
0
ENDSEC
0
EOF
