0
SECTION
2
HEADER
9
$ACADVER
1
AC1009
9
$INSUNITS
70
4
0
ENDSEC
0
SECTION
2
TABLES
0
TABLE
2
LAYER
70
1
0
LAYER
2
CUT
70
0
62
1
6
CONTINUOUS
0
ENDTAB
0
ENDSEC
0
SECTION
2
ENTITIES
0
POLYLINE
8
CUT
66
1
70
0
0
VERTEX
8
CUT
10
0
20
55.4115
0
VERTEX
8
CUT
10
7.2679
20
55.4115
0
VERTEX
8
CUT
10
0
20
68
0
VERTEX
8
CUT
10
0
20
68
0
SEQEND
0
POLYLINE
8
CUT
66
1
70
0
0
VERTEX
8
CUT
10
5.0359
20
57.2776
0
VERTEX
8
CUT
10
0
20
66
0
VERTEX
8
CUT
10
0
20
66
0
SEQEND
0
LINE
8
CUT
10
0
20
56.4115
11
4.5359
21
56.4115
0
POLYLINE
8
CUT
66
1
70
0
0
VERTEX
8
CUT
10
0
20
57.4115
0
VERTEX
8
CUT
10
3.8038
20
57.4115
0
VERTEX
8
CUT
10
0.5
20
63.134
0
SEQEND
0
POLYLINE
8
CUT
66
1
70
0
0
VERTEX
8
CUT
10
0
20
58.4115
0
VERTEX
8
CUT
10
2.0718
20
58.4115
0
VERTEX
8
CUT
10
0
20
62
0
VERTEX
8
CUT
10
0
20
62
0
SEQEND
0
LINE
8
CUT
10
1
20
70
11
17
21
70
0
LINE
8
CUT
10
0.5
20
69.134
11
8.5
21
55.2776
0
LINE
8
CUT
10
17.5
20
69.134
11
9.5
21
55.2776
0
POLYLINE
8
CUT
66
1
70
0
0
VERTEX
8
CUT
10
2.7321
20
69
0
VERTEX
8
CUT
10
16.2679
20
69
0
VERTEX
8
CUT
10
9
20
56.4115
0
VERTEX
8
CUT
10
2.2321
20
68.134
0
SEQEND
0
POLYLINE
8
CUT
66
1
70
0
0
VERTEX
8
CUT
10
14.0359
20
67.134
0
VERTEX
8
CUT
10
9
20
58.4115
0
VERTEX
8
CUT
10
3.4641
20
68
0
VERTEX
8
CUT
10
13.5359
20
68
0
SEQEND
0
POLYLINE
8
CUT
66
1
70
0
0
VERTEX
8
CUT
10
8.5
20
61.2776
0
VERTEX
8
CUT
10
5.1962
20
67
0
VERTEX
8
CUT
10
12.8038
20
67
0
VERTEX
8
CUT
10
9.5
20
61.2776
0
SEQEND
0
POLYLINE
8
CUT
66
1
70
0
0
VERTEX
8
CUT
10
7.9282
20
66
0
VERTEX
8
CUT
10
11.0718
20
66
0
VERTEX
8
CUT
10
9
20
62.4115
0
VERTEX
8
CUT
10
7.4282
20
65.134
0
SEQEND
0
POLYLINE
8
CUT
66
1
70
0
0
VERTEX
8
CUT
10
11.7321
20
55.4115
0
VERTEX
8
CUT
10
25.2679
20
55.4115
0
VERTEX
8
CUT
10
18
20
68
0
VERTEX
8
CUT
10
11.2321
20
56.2776
0
SEQEND
0
POLYLINE
8
CUT
66
1
70
0
0
VERTEX
8
CUT
10
23.0359
20
57.2776
0
VERTEX
8
CUT
10
18
20
66
0
VERTEX
8
CUT
10
12.4641
20
56.4115
0
VERTEX
8
CUT
10
22.5359
20
56.4115
0
SEQEND
0
POLYLINE
8
CUT
66
1
70
0
0
VERTEX
8
CUT
10
17.5
20
63.134
0
VERTEX
8
CUT
10
14.1962
20
57.4115
0
VERTEX
8
CUT
10
21.8038
20
57.4115
0
VERTEX
8
CUT
10
18.5
20
63.134
0
SEQEND
0
POLYLINE
8
CUT
66
1
70
0
0
VERTEX
8
CUT
10
16.9282
20
58.4115
0
VERTEX
8
CUT
10
20.0718
20
58.4115
0
VERTEX
8
CUT
10
18
20
62
0
VERTEX
8
CUT
10
16.4282
20
59.2776
0
SEQEND
0
LINE
8
CUT
10
19
20
70
11
35
21
70
0
LINE
8
CUT
10
18.5
20
69.134
11
26.5
21
55.2776
0
LINE
8
CUT
10
35.5
20
69.134
11
27.5
21
55.2776
0
POLYLINE
8
CUT
66
1
70
0
0
VERTEX
8
CUT
10
20.7321
20
69
0
VERTEX
8
CUT
10
34.2679
20
69
0
VERTEX
8
CUT
10
27
20
56.4115
0
VERTEX
8
CUT
10
20.2321
20
68.134
0
SEQEND
0
POLYLINE
8
CUT
66
1
70
0
0
VERTEX
8
CUT
10
32.0359
20
67.134
0
VERTEX
8
CUT
10
27
20
58.4115
0
VERTEX
8
CUT
10
21.4641
20
68
0
VERTEX
8
CUT
10
31.5359
20
68
0
SEQEND
0
POLYLINE
8
CUT
66
1
70
0
0
VERTEX
8
CUT
10
26.5
20
61.2776
0
VERTEX
8
CUT
10
23.1962
20
67
0
VERTEX
8
CUT
10
30.8038
20
67
0
VERTEX
8
CUT
10
27.5
20
61.2776
0
SEQEND
0
POLYLINE
8
CUT
66
1
70
0
0
VERTEX
8
CUT
10
25.9282
20
66
0
VERTEX
8
CUT
10
29.0718
20
66
0
VERTEX
8
CUT
10
27
20
62.4115
0
VERTEX
8
CUT
10
25.4282
20
65.134
0
SEQEND
0
POLYLINE
8
CUT
66
1
70
0
0
VERTEX
8
CUT
10
29.7321
20
55.4115
0
VERTEX
8
CUT
10
43.2679
20
55.4115
0
VERTEX
8
CUT
10
36
20
68
0
VERTEX
8
CUT
10
29.2321
20
56.2776
0
SEQEND
0
POLYLINE
8
CUT
66
1
70
0
0
VERTEX
8
CUT
10
41.0359
20
57.2776
0
VERTEX
8
CUT
10
36
20
66
0
VERTEX
8
CUT
10
30.4641
20
56.4115
0
VERTEX
8
CUT
10
40.5359
20
56.4115
0
SEQEND
0
POLYLINE
8
CUT
66
1
70
0
0
VERTEX
8
CUT
10
35.5
20
63.134
0
VERTEX
8
CUT
10
32.1962
20
57.4115
0
VERTEX
8
CUT
10
39.8038
20
57.4115
0
VERTEX
8
CUT
10
36.5
20
63.134
0
SEQEND
0
POLYLINE
8
CUT
66
1
70
0
0
VERTEX
8
CUT
10
34.9282
20
58.4115
0
VERTEX
8
CUT
10
38.0718
20
58.4115
0
VERTEX
8
CUT
10
36
20
62
0
VERTEX
8
CUT
10
34.4282
20
59.2776
0
SEQEND
0
LINE
8
CUT
10
37
20
70
11
53
21
70
0
LINE
8
CUT
10
36.5
20
69.134
11
44.5
21
55.2776
0
LINE
8
CUT
10
53.5
20
69.134
11
45.5
21
55.2776
0
POLYLINE
8
CUT
66
1
70
0
0
VERTEX
8
CUT
10
38.7321
20
69
0
VERTEX
8
CUT
10
52.2679
20
69
0
VERTEX
8
CUT
10
45
20
56.4115
0
VERTEX
8
CUT
10
38.2321
20
68.134
0
SEQEND
0
POLYLINE
8
CUT
66
1
70
0
0
VERTEX
8
CUT
10
50.0359
20
67.134
0
VERTEX
8
CUT
10
45
20
58.4115
0
VERTEX
8
CUT
10
39.4641
20
68
0
VERTEX
8
CUT
10
49.5359
20
68
0
SEQEND
0
POLYLINE
8
CUT
66
1
70
0
0
VERTEX
8
CUT
10
44.5
20
61.2776
0
VERTEX
8
CUT
10
41.1962
20
67
0
VERTEX
8
CUT
10
48.8038
20
67
0
VERTEX
8
CUT
10
45.5
20
61.2776
0
SEQEND
0
POLYLINE
8
CUT
66
1
70
0
0
VERTEX
8
CUT
10
43.9282
20
66
0
VERTEX
8
CUT
10
47.0718
20
66
0
VERTEX
8
CUT
10
45
20
62.4115
0
VERTEX
8
CUT
10
43.4282
20
65.134
0
SEQEND
0
POLYLINE
8
CUT
66
1
70
0
0
VERTEX
8
CUT
10
47.7321
20
55.4115
0
VERTEX
8
CUT
10
61.2679
20
55.4115
0
VERTEX
8
CUT
10
54
20
68
0
VERTEX
8
CUT
10
47.2321
20
56.2776
0
SEQEND
0
POLYLINE
8
CUT
66
1
70
0
0
VERTEX
8
CUT
10
59.0359
20
57.2776
0
VERTEX
8
CUT
10
54
20
66
0
VERTEX
8
CUT
10
48.4641
20
56.4115
0
VERTEX
8
CUT
10
58.5359
20
56.4115
0
SEQEND
0
POLYLINE
8
CUT
66
1
70
0
0
VERTEX
8
CUT
10
53.5
20
63.134
0
VERTEX
8
CUT
10
50.1962
20
57.4115
0
VERTEX
8
CUT
10
57.8038
20
57.4115
0
VERTEX
8
CUT
10
54.5
20
63.134
0
SEQEND
0
POLYLINE
8
CUT
66
1
70
0
0
VERTEX
8
CUT
10
52.9282
20
58.4115
0
VERTEX
8
CUT
10
56.0718
20
58.4115
0
VERTEX
8
CUT
10
54
20
62
0
VERTEX
8
CUT
10
52.4282
20
59.2776
0
SEQEND
0
LINE
8
CUT
10
55
20
70
11
71
21
70
0
LINE
8
CUT
10
54.5
20
69.134
11
62.5
21
55.2776
0
LINE
8
CUT
10
71.5
20
69.134
11
63.5
21
55.2776
0
POLYLINE
8
CUT
66
1
70
0
0
VERTEX
8
CUT
10
56.7321
20
69
0
VERTEX
8
CUT
10
70.2679
20
69
0
VERTEX
8
CUT
10
63
20
56.4115
0
VERTEX
8
CUT
10
56.2321
20
68.134
0
SEQEND
0
POLYLINE
8
CUT
66
1
70
0
0
VERTEX
8
CUT
10
68.0359
20
67.134
0
VERTEX
8
CUT
10
63
20
58.4115
0
VERTEX
8
CUT
10
57.4641
20
68
0
VERTEX
8
CUT
10
67.5359
20
68
0
SEQEND
0
POLYLINE
8
CUT
66
1
70
0
0
VERTEX
8
CUT
10
62.5
20
61.2776
0
VERTEX
8
CUT
10
59.1962
20
67
0
VERTEX
8
CUT
10
66.8038
20
67
0
VERTEX
8
CUT
10
63.5
20
61.2776
0
SEQEND
0
POLYLINE
8
CUT
66
1
70
0
0
VERTEX
8
CUT
10
61.9282
20
66
0
VERTEX
8
CUT
10
65.0718
20
66
0
VERTEX
8
CUT
10
63
20
62.4115
0
VERTEX
8
CUT
10
61.4282
20
65.134
0
SEQEND
0
POLYLINE
8
CUT
66
1
70
0
0
VERTEX
8
CUT
10
65.7321
20
55.4115
0
VERTEX
8
CUT
10
79.2679
20
55.4115
0
VERTEX
8
CUT
10
72
20
68
0
VERTEX
8
CUT
10
65.2321
20
56.2776
0
SEQEND
0
POLYLINE
8
CUT
66
1
70
0
0
VERTEX
8
CUT
10
77.0359
20
57.2776
0
VERTEX
8
CUT
10
72
20
66
0
VERTEX
8
CUT
10
66.4641
20
56.4115
0
VERTEX
8
CUT
10
76.5359
20
56.4115
0
SEQEND
0
POLYLINE
8
CUT
66
1
70
0
0
VERTEX
8
CUT
10
71.5
20
63.134
0
VERTEX
8
CUT
10
68.1962
20
57.4115
0
VERTEX
8
CUT
10
75.8038
20
57.4115
0
VERTEX
8
CUT
10
72.5
20
63.134
0
SEQEND
0
POLYLINE
8
CUT
66
1
70
0
0
VERTEX
8
CUT
10
70.9282
20
58.4115
0
VERTEX
8
CUT
10
74.0718
20
58.4115
0
VERTEX
8
CUT
10
72
20
62
0
VERTEX
8
CUT
10
70.4282
20
59.2776
0
SEQEND
0
LINE
8
CUT
10
73
20
70
11
89
21
70
0
LINE
8
CUT
10
72.5
20
69.134
11
80.5
21
55.2776
0
LINE
8
CUT
10
89.5
20
69.134
11
81.5
21
55.2776
0
POLYLINE
8
CUT
66
1
70
0
0
VERTEX
8
CUT
10
74.7321
20
69
0
VERTEX
8
CUT
10
88.2679
20
69
0
VERTEX
8
CUT
10
81
20
56.4115
0
VERTEX
8
CUT
10
74.2321
20
68.134
0
SEQEND
0
POLYLINE
8
CUT
66
1
70
0
0
VERTEX
8
CUT
10
86.0359
20
67.134
0
VERTEX
8
CUT
10
81
20
58.4115
0
VERTEX
8
CUT
10
75.4641
20
68
0
VERTEX
8
CUT
10
85.5359
20
68
0
SEQEND
0
POLYLINE
8
CUT
66
1
70
0
0
VERTEX
8
CUT
10
80.5
20
61.2776
0
VERTEX
8
CUT
10
77.1962
20
67
0
VERTEX
8
CUT
10
84.8038
20
67
0
VERTEX
8
CUT
10
81.5
20
61.2776
0
SEQEND
0
POLYLINE
8
CUT
66
1
70
0
0
VERTEX
8
CUT
10
79.9282
20
66
0
VERTEX
8
CUT
10
83.0718
20
66
0
VERTEX
8
CUT
10
81
20
62.4115
0
VERTEX
8
CUT
10
79.4282
20
65.134
0
SEQEND
0
POLYLINE
8
CUT
66
1
70
0
0
VERTEX
8
CUT
10
83.7321
20
55.4115
0
VERTEX
8
CUT
10
97.2679
20
55.4115
0
VERTEX
8
CUT
10
90
20
68
0
VERTEX
8
CUT
10
83.2321
20
56.2776
0
SEQEND
0
POLYLINE
8
CUT
66
1
70
0
0
VERTEX
8
CUT
10
95.0359
20
57.2776
0
VERTEX
8
CUT
10
90
20
66
0
VERTEX
8
CUT
10
84.4641
20
56.4115
0
VERTEX
8
CUT
10
94.5359
20
56.4115
0
SEQEND
0
POLYLINE
8
CUT
66
1
70
0
0
VERTEX
8
CUT
10
89.5
20
63.134
0
VERTEX
8
CUT
10
86.1962
20
57.4115
0
VERTEX
8
CUT
10
93.8038
20
57.4115
0
VERTEX
8
CUT
10
90.5
20
63.134
0
SEQEND
0
POLYLINE
8
CUT
66
1
70
0
0
VERTEX
8
CUT
10
88.9282
20
58.4115
0
VERTEX
8
CUT
10
92.0718
20
58.4115
0
VERTEX
8
CUT
10
90
20
62
0
VERTEX
8
CUT
10
88.4282
20
59.2776
0
SEQEND
0
LINE
8
CUT
10
91
20
70
11
107
21
70
0
LINE
8
CUT
10
90.5
20
69.134
11
98.5
21
55.2776
0
LINE
8
CUT
10
107.5
20
69.134
11
99.5
21
55.2776
0
POLYLINE
8
CUT
66
1
70
0
0
VERTEX
8
CUT
10
92.7321
20
69
0
VERTEX
8
CUT
10
106.2679
20
69
0
VERTEX
8
CUT
10
99
20
56.4115
0
VERTEX
8
CUT
10
92.2321
20
68.134
0
SEQEND
0
POLYLINE
8
CUT
66
1
70
0
0
VERTEX
8
CUT
10
104.0359
20
67.134
0
VERTEX
8
CUT
10
99
20
58.4115
0
VERTEX
8
CUT
10
93.4641
20
68
0
VERTEX
8
CUT
10
103.5359
20
68
0
SEQEND
0
POLYLINE
8
CUT
66
1
70
0
0
VERTEX
8
CUT
10
98.5
20
61.2776
0
VERTEX
8
CUT
10
95.1962
20
67
0
VERTEX
8
CUT
10
102.8038
20
67
0
VERTEX
8
CUT
10
99.5
20
61.2776
0
SEQEND
0
POLYLINE
8
CUT
66
1
70
0
0
VERTEX
8
CUT
10
97.9282
20
66
0
VERTEX
8
CUT
10
101.0718
20
66
0
VERTEX
8
CUT
10
99
20
62.4115
0
VERTEX
8
CUT
10
97.4282
20
65.134
0
SEQEND
0
POLYLINE
8
CUT
66
1
70
0
0
VERTEX
8
CUT
10
101.7321
20
55.4115
0
VERTEX
8
CUT
10
115.2679
20
55.4115
0
VERTEX
8
CUT
10
108
20
68
0
VERTEX
8
CUT
10
101.2321
20
56.2776
0
SEQEND
0
POLYLINE
8
CUT
66
1
70
0
0
VERTEX
8
CUT
10
113.0359
20
57.2776
0
VERTEX
8
CUT
10
108
20
66
0
VERTEX
8
CUT
10
102.4641
20
56.4115
0
VERTEX
8
CUT
10
112.5359
20
56.4115
0
SEQEND
0
POLYLINE
8
CUT
66
1
70
0
0
VERTEX
8
CUT
10
107.5
20
63.134
0
VERTEX
8
CUT
10
104.1962
20
57.4115
0
VERTEX
8
CUT
10
111.8038
20
57.4115
0
VERTEX
8
CUT
10
108.5
20
63.134
0
SEQEND
0
POLYLINE
8
CUT
66
1
70
0
0
VERTEX
8
CUT
10
106.9282
20
58.4115
0
VERTEX
8
CUT
10
110.0718
20
58.4115
0
VERTEX
8
CUT
10
108
20
62
0
VERTEX
8
CUT
10
106.4282
20
59.2776
0
SEQEND
0
LINE
8
CUT
10
109
20
70
11
120
21
70
0
LINE
8
CUT
10
108.5
20
69.134
11
116.5
21
55.2776
0
LINE
8
CUT
10
120
20
59.6077
11
117.5
21
55.2776
0
LINE
8
CUT
10
110.7321
20
69
11
120
21
69
0
POLYLINE
8
CUT
66
1
70
0
0
VERTEX
8
CUT
10
120
20
61.6077
0
VERTEX
8
CUT
10
117
20
56.4115
0
VERTEX
8
CUT
10
110.2321
20
68.134
0
SEQEND
0
POLYLINE
8
CUT
66
1
70
0
0
VERTEX
8
CUT
10
120
20
63.6077
0
VERTEX
8
CUT
10
117
20
58.4115
0
VERTEX
8
CUT
10
111.4641
20
68
0
VERTEX
8
CUT
10
120
20
68
0
SEQEND
0
POLYLINE
8
CUT
66
1
70
0
0
VERTEX
8
CUT
10
116.5
20
61.2776
0
VERTEX
8
CUT
10
113.1962
20
67
0
VERTEX
8
CUT
10
120
20
67
0
SEQEND
0
LINE
8
CUT
10
120
20
65.6077
11
117.5
21
61.2776
0
POLYLINE
8
CUT
66
1
70
0
0
VERTEX
8
CUT
10
115.9282
20
66
0
VERTEX
8
CUT
10
119.0718
20
66
0
VERTEX
8
CUT
10
117
20
62.4115
0
VERTEX
8
CUT
10
115.4282
20
65.134
0
SEQEND
0
LINE
8
CUT
10
120
20
57.6077
11
119.2321
21
56.2776
0
LINE
8
CUT
10
0
20
54.4115
11
8
21
54.4115
0
LINE
8
CUT
10
8.5
20
53.5455
11
0.5
21
39.6891
0
POLYLINE
8
CUT
66
1
70
0
0
VERTEX
8
CUT
10
0
20
53.4115
0
VERTEX
8
CUT
10
7.2679
20
53.4115
0
VERTEX
8
CUT
10
0
20
40.8231
0
VERTEX
8
CUT
10
0
20
40.8231
0
SEQEND
0
POLYLINE
8
CUT
66
1
70
0
0
VERTEX
8
CUT
10
5.0359
20
51.5455
0
VERTEX
8
CUT
10
0
20
42.8231
0
VERTEX
8
CUT
10
0
20
42.8231
0
SEQEND
0
LINE
8
CUT
10
0
20
52.4115
11
4.5359
21
52.4115
0
POLYLINE
8
CUT
66
1
70
0
0
VERTEX
8
CUT
10
0
20
51.4115
0
VERTEX
8
CUT
10
3.8038
20
51.4115
0
VERTEX
8
CUT
10
0.5
20
45.6891
0
SEQEND
0
POLYLINE
8
CUT
66
1
70
0
0
VERTEX
8
CUT
10
0
20
50.4115
0
VERTEX
8
CUT
10
2.0718
20
50.4115
0
VERTEX
8
CUT
10
0
20
46.8231
0
VERTEX
8
CUT
10
0
20
46.8231
0
SEQEND
0
POLYLINE
8
CUT
66
1
70
0
0
VERTEX
8
CUT
10
2.7321
20
39.8231
0
VERTEX
8
CUT
10
16.2679
20
39.8231
0
VERTEX
8
CUT
10
9
20
52.4115
0
VERTEX
8
CUT
10
2.2321
20
40.6891
0
SEQEND
0
POLYLINE
8
CUT
66
1
70
0
0
VERTEX
8
CUT
10
14.0359
20
41.6891
0
VERTEX
8
CUT
10
9
20
50.4115
0
VERTEX
8
CUT
10
3.4641
20
40.8231
0
VERTEX
8
CUT
10
13.5359
20
40.8231
0
SEQEND
0
POLYLINE
8
CUT
66
1
70
0
0
VERTEX
8
CUT
10
8.5
20
47.5455
0
VERTEX
8
CUT
10
5.1962
20
41.8231
0
VERTEX
8
CUT
10
12.8038
20
41.8231
0
VERTEX
8
CUT
10
9.5
20
47.5455
0
SEQEND
0
POLYLINE
8
CUT
66
1
70
0
0
VERTEX
8
CUT
10
7.9282
20
42.8231
0
VERTEX
8
CUT
10
11.0718
20
42.8231
0
VERTEX
8
CUT
10
9
20
46.4115
0
VERTEX
8
CUT
10
7.4282
20
43.6891
0
SEQEND
0
LINE
8
CUT
10
10
20
54.4115
11
26
21
54.4115
0
LINE
8
CUT
10
9.5
20
53.5455
11
17.5
21
39.6891
0
LINE
8
CUT
10
26.5
20
53.5455
11
18.5
21
39.6891
0
POLYLINE
8
CUT
66
1
70
0
0
VERTEX
8
CUT
10
11.7321
20
53.4115
0
VERTEX
8
CUT
10
25.2679
20
53.4115
0
VERTEX
8
CUT
10
18
20
40.8231
0
VERTEX
8
CUT
10
11.2321
20
52.5455
0
SEQEND
0
POLYLINE
8
CUT
66
1
70
0
0
VERTEX
8
CUT
10
23.0359
20
51.5455
0
VERTEX
8
CUT
10
18
20
42.8231
0
VERTEX
8
CUT
10
12.4641
20
52.4115
0
VERTEX
8
CUT
10
22.5359
20
52.4115
0
SEQEND
0
POLYLINE
8
CUT
66
1
70
0
0
VERTEX
8
CUT
10
17.5
20
45.6891
0
VERTEX
8
CUT
10
14.1962
20
51.4115
0
VERTEX
8
CUT
10
21.8038
20
51.4115
0
VERTEX
8
CUT
10
18.5
20
45.6891
0
SEQEND
0
POLYLINE
8
CUT
66
1
70
0
0
VERTEX
8
CUT
10
16.9282
20
50.4115
0
VERTEX
8
CUT
10
20.0718
20
50.4115
0
VERTEX
8
CUT
10
18
20
46.8231
0
VERTEX
8
CUT
10
16.4282
20
49.5455
0
SEQEND
0
POLYLINE
8
CUT
66
1
70
0
0
VERTEX
8
CUT
10
20.7321
20
39.8231
0
VERTEX
8
CUT
10
34.2679
20
39.8231
0
VERTEX
8
CUT
10
27
20
52.4115
0
VERTEX
8
CUT
10
20.2321
20
40.6891
0
SEQEND
0
POLYLINE
8
CUT
66
1
70
0
0
VERTEX
8
CUT
10
32.0359
20
41.6891
0
VERTEX
8
CUT
10
27
20
50.4115
0
VERTEX
8
CUT
10
21.4641
20
40.8231
0
VERTEX
8
CUT
10
31.5359
20
40.8231
0
SEQEND
0
POLYLINE
8
CUT
66
1
70
0
0
VERTEX
8
CUT
10
26.5
20
47.5455
0
VERTEX
8
CUT
10
23.1962
20
41.8231
0
VERTEX
8
CUT
10
30.8038
20
41.8231
0
VERTEX
8
CUT
10
27.5
20
47.5455
0
SEQEND
0
POLYLINE
8
CUT
66
1
70
0
0
VERTEX
8
CUT
10
25.9282
20
42.8231
0
VERTEX
8
CUT
10
29.0718
20
42.8231
0
VERTEX
8
CUT
10
27
20
46.4115
0
VERTEX
8
CUT
10
25.4282
20
43.6891
0
SEQEND
0
LINE
8
CUT
10
28
20
54.4115
11
44
21
54.4115
0
LINE
8
CUT
10
27.5
20
53.5455
11
35.5
21
39.6891
0
LINE
8
CUT
10
44.5
20
53.5455
11
36.5
21
39.6891
0
POLYLINE
8
CUT
66
1
70
0
0
VERTEX
8
CUT
10
29.7321
20
53.4115
0
VERTEX
8
CUT
10
43.2679
20
53.4115
0
VERTEX
8
CUT
10
36
20
40.8231
0
VERTEX
8
CUT
10
29.2321
20
52.5455
0
SEQEND
0
POLYLINE
8
CUT
66
1
70
0
0
VERTEX
8
CUT
10
41.0359
20
51.5455
0
VERTEX
8
CUT
10
36
20
42.8231
0
VERTEX
8
CUT
10
30.4641
20
52.4115
0
VERTEX
8
CUT
10
40.5359
20
52.4115
0
SEQEND
0
POLYLINE
8
CUT
66
1
70
0
0
VERTEX
8
CUT
10
35.5
20
45.6891
0
VERTEX
8
CUT
10
32.1962
20
51.4115
0
VERTEX
8
CUT
10
39.8038
20
51.4115
0
VERTEX
8
CUT
10
36.5
20
45.6891
0
SEQEND
0
POLYLINE
8
CUT
66
1
70
0
0
VERTEX
8
CUT
10
34.9282
20
50.4115
0
VERTEX
8
CUT
10
38.0718
20
50.4115
0
VERTEX
8
CUT
10
36
20
46.8231
0
VERTEX
8
CUT
10
34.4282
20
49.5455
0
SEQEND
0
POLYLINE
8
CUT
66
1
70
0
0
VERTEX
8
CUT
10
38.7321
20
39.8231
0
VERTEX
8
CUT
10
52.2679
20
39.8231
0
VERTEX
8
CUT
10
45
20
52.4115
0
VERTEX
8
CUT
10
38.2321
20
40.6891
0
SEQEND
0
POLYLINE
8
CUT
66
1
70
0
0
VERTEX
8
CUT
10
50.0359
20
41.6891
0
VERTEX
8
CUT
10
45
20
50.4115
0
VERTEX
8
CUT
10
39.4641
20
40.8231
0
VERTEX
8
CUT
10
49.5359
20
40.8231
0
SEQEND
0
POLYLINE
8
CUT
66
1
70
0
0
VERTEX
8
CUT
10
44.5
20
47.5455
0
VERTEX
8
CUT
10
41.1962
20
41.8231
0
VERTEX
8
CUT
10
48.8038
20
41.8231
0
VERTEX
8
CUT
10
45.5
20
47.5455
0
SEQEND
0
POLYLINE
8
CUT
66
1
70
0
0
VERTEX
8
CUT
10
43.9282
20
42.8231
0
VERTEX
8
CUT
10
47.0718
20
42.8231
0
VERTEX
8
CUT
10
45
20
46.4115
0
VERTEX
8
CUT
10
43.4282
20
43.6891
0
SEQEND
0
LINE
8
CUT
10
46
20
54.4115
11
62
21
54.4115
0
LINE
8
CUT
10
45.5
20
53.5455
11
53.5
21
39.6891
0
LINE
8
CUT
10
62.5
20
53.5455
11
54.5
21
39.6891
0
POLYLINE
8
CUT
66
1
70
0
0
VERTEX
8
CUT
10
47.7321
20
53.4115
0
VERTEX
8
CUT
10
61.2679
20
53.4115
0
VERTEX
8
CUT
10
54
20
40.8231
0
VERTEX
8
CUT
10
47.2321
20
52.5455
0
SEQEND
0
POLYLINE
8
CUT
66
1
70
0
0
VERTEX
8
CUT
10
59.0359
20
51.5455
0
VERTEX
8
CUT
10
54
20
42.8231
0
VERTEX
8
CUT
10
48.4641
20
52.4115
0
VERTEX
8
CUT
10
58.5359
20
52.4115
0
SEQEND
0
POLYLINE
8
CUT
66
1
70
0
0
VERTEX
8
CUT
10
53.5
20
45.6891
0
VERTEX
8
CUT
10
50.1962
20
51.4115
0
VERTEX
8
CUT
10
57.8038
20
51.4115
0
VERTEX
8
CUT
10
54.5
20
45.6891
0
SEQEND
0
POLYLINE
8
CUT
66
1
70
0
0
VERTEX
8
CUT
10
52.9282
20
50.4115
0
VERTEX
8
CUT
10
56.0718
20
50.4115
0
VERTEX
8
CUT
10
54
20
46.8231
0
VERTEX
8
CUT
10
52.4282
20
49.5455
0
SEQEND
0
POLYLINE
8
CUT
66
1
70
0
0
VERTEX
8
CUT
10
56.7321
20
39.8231
0
VERTEX
8
CUT
10
70.2679
20
39.8231
0
VERTEX
8
CUT
10
63
20
52.4115
0
VERTEX
8
CUT
10
56.2321
20
40.6891
0
SEQEND
0
POLYLINE
8
CUT
66
1
70
0
0
VERTEX
8
CUT
10
68.0359
20
41.6891
0
VERTEX
8
CUT
10
63
20
50.4115
0
VERTEX
8
CUT
10
57.4641
20
40.8231
0
VERTEX
8
CUT
10
67.5359
20
40.8231
0
SEQEND
0
POLYLINE
8
CUT
66
1
70
0
0
VERTEX
8
CUT
10
62.5
20
47.5455
0
VERTEX
8
CUT
10
59.1962
20
41.8231
0
VERTEX
8
CUT
10
66.8038
20
41.8231
0
VERTEX
8
CUT
10
63.5
20
47.5455
0
SEQEND
0
POLYLINE
8
CUT
66
1
70
0
0
VERTEX
8
CUT
10
61.9282
20
42.8231
0
VERTEX
8
CUT
10
65.0718
20
42.8231
0
VERTEX
8
CUT
10
63
20
46.4115
0
VERTEX
8
CUT
10
61.4282
20
43.6891
0
SEQEND
0
LINE
8
CUT
10
64
20
54.4115
11
80
21
54.4115
0
LINE
8
CUT
10
63.5
20
53.5455
11
71.5
21
39.6891
0
LINE
8
CUT
10
80.5
20
53.5455
11
72.5
21
39.6891
0
POLYLINE
8
CUT
66
1
70
0
0
VERTEX
8
CUT
10
65.7321
20
53.4115
0
VERTEX
8
CUT
10
79.2679
20
53.4115
0
VERTEX
8
CUT
10
72
20
40.8231
0
VERTEX
8
CUT
10
65.2321
20
52.5455
0
SEQEND
0
POLYLINE
8
CUT
66
1
70
0
0
VERTEX
8
CUT
10
77.0359
20
51.5455
0
VERTEX
8
CUT
10
72
20
42.8231
0
VERTEX
8
CUT
10
66.4641
20
52.4115
0
VERTEX
8
CUT
10
76.5359
20
52.4115
0
SEQEND
0
POLYLINE
8
CUT
66
1
70
0
0
VERTEX
8
CUT
10
71.5
20
45.6891
0
VERTEX
8
CUT
10
68.1962
20
51.4115
0
VERTEX
8
CUT
10
75.8038
20
51.4115
0
VERTEX
8
CUT
10
72.5
20
45.6891
0
SEQEND
0
POLYLINE
8
CUT
66
1
70
0
0
VERTEX
8
CUT
10
70.9282
20
50.4115
0
VERTEX
8
CUT
10
74.0718
20
50.4115
0
VERTEX
8
CUT
10
72
20
46.8231
0
VERTEX
8
CUT
10
70.4282
20
49.5455
0
SEQEND
0
POLYLINE
8
CUT
66
1
70
0
0
VERTEX
8
CUT
10
74.7321
20
39.8231
0
VERTEX
8
CUT
10
88.2679
20
39.8231
0
VERTEX
8
CUT
10
81
20
52.4115
0
VERTEX
8
CUT
10
74.2321
20
40.6891
0
SEQEND
0
POLYLINE
8
CUT
66
1
70
0
0
VERTEX
8
CUT
10
86.0359
20
41.6891
0
VERTEX
8
CUT
10
81
20
50.4115
0
VERTEX
8
CUT
10
75.4641
20
40.8231
0
VERTEX
8
CUT
10
85.5359
20
40.8231
0
SEQEND
0
POLYLINE
8
CUT
66
1
70
0
0
VERTEX
8
CUT
10
80.5
20
47.5455
0
VERTEX
8
CUT
10
77.1962
20
41.8231
0
VERTEX
8
CUT
10
84.8038
20
41.8231
0
VERTEX
8
CUT
10
81.5
20
47.5455
0
SEQEND
0
POLYLINE
8
CUT
66
1
70
0
0
VERTEX
8
CUT
10
79.9282
20
42.8231
0
VERTEX
8
CUT
10
83.0718
20
42.8231
0
VERTEX
8
CUT
10
81
20
46.4115
0
VERTEX
8
CUT
10
79.4282
20
43.6891
0
SEQEND
0
LINE
8
CUT
10
82
20
54.4115
11
98
21
54.4115
0
LINE
8
CUT
10
81.5
20
53.5455
11
89.5
21
39.6891
0
LINE
8
CUT
10
98.5
20
53.5455
11
90.5
21
39.6891
0
POLYLINE
8
CUT
66
1
70
0
0
VERTEX
8
CUT
10
83.7321
20
53.4115
0
VERTEX
8
CUT
10
97.2679
20
53.4115
0
VERTEX
8
CUT
10
90
20
40.8231
0
VERTEX
8
CUT
10
83.2321
20
52.5455
0
SEQEND
0
POLYLINE
8
CUT
66
1
70
0
0
VERTEX
8
CUT
10
95.0359
20
51.5455
0
VERTEX
8
CUT
10
90
20
42.8231
0
VERTEX
8
CUT
10
84.4641
20
52.4115
0
VERTEX
8
CUT
10
94.5359
20
52.4115
0
SEQEND
0
POLYLINE
8
CUT
66
1
70
0
0
VERTEX
8
CUT
10
89.5
20
45.6891
0
VERTEX
8
CUT
10
86.1962
20
51.4115
0
VERTEX
8
CUT
10
93.8038
20
51.4115
0
VERTEX
8
CUT
10
90.5
20
45.6891
0
SEQEND
0
POLYLINE
8
CUT
66
1
70
0
0
VERTEX
8
CUT
10
88.9282
20
50.4115
0
VERTEX
8
CUT
10
92.0718
20
50.4115
0
VERTEX
8
CUT
10
90
20
46.8231
0
VERTEX
8
CUT
10
88.4282
20
49.5455
0
SEQEND
0
POLYLINE
8
CUT
66
1
70
0
0
VERTEX
8
CUT
10
92.7321
20
39.8231
0
VERTEX
8
CUT
10
106.2679
20
39.8231
0
VERTEX
8
CUT
10
99
20
52.4115
0
VERTEX
8
CUT
10
92.2321
20
40.6891
0
SEQEND
0
POLYLINE
8
CUT
66
1
70
0
0
VERTEX
8
CUT
10
104.0359
20
41.6891
0
VERTEX
8
CUT
10
99
20
50.4115
0
VERTEX
8
CUT
10
93.4641
20
40.8231
0
VERTEX
8
CUT
10
103.5359
20
40.8231
0
SEQEND
0
POLYLINE
8
CUT
66
1
70
0
0
VERTEX
8
CUT
10
98.5
20
47.5455
0
VERTEX
8
CUT
10
95.1962
20
41.8231
0
VERTEX
8
CUT
10
102.8038
20
41.8231
0
VERTEX
8
CUT
10
99.5
20
47.5455
0
SEQEND
0
POLYLINE
8
CUT
66
1
70
0
0
VERTEX
8
CUT
10
97.9282
20
42.8231
0
VERTEX
8
CUT
10
101.0718
20
42.8231
0
VERTEX
8
CUT
10
99
20
46.4115
0
VERTEX
8
CUT
10
97.4282
20
43.6891
0
SEQEND
0
LINE
8
CUT
10
100
20
54.4115
11
116
21
54.4115
0
LINE
8
CUT
10
99.5
20
53.5455
11
107.5
21
39.6891
0
LINE
8
CUT
10
116.5
20
53.5455
11
108.5
21
39.6891
0
POLYLINE
8
CUT
66
1
70
0
0
VERTEX
8
CUT
10
101.7321
20
53.4115
0
VERTEX
8
CUT
10
115.2679
20
53.4115
0
VERTEX
8
CUT
10
108
20
40.8231
0
VERTEX
8
CUT
10
101.2321
20
52.5455
0
SEQEND
0
POLYLINE
8
CUT
66
1
70
0
0
VERTEX
8
CUT
10
113.0359
20
51.5455
0
VERTEX
8
CUT
10
108
20
42.8231
0
VERTEX
8
CUT
10
102.4641
20
52.4115
0
VERTEX
8
CUT
10
112.5359
20
52.4115
0
SEQEND
0
POLYLINE
8
CUT
66
1
70
0
0
VERTEX
8
CUT
10
107.5
20
45.6891
0
VERTEX
8
CUT
10
104.1962
20
51.4115
0
VERTEX
8
CUT
10
111.8038
20
51.4115
0
VERTEX
8
CUT
10
108.5
20
45.6891
0
SEQEND
0
POLYLINE
8
CUT
66
1
70
0
0
VERTEX
8
CUT
10
106.9282
20
50.4115
0
VERTEX
8
CUT
10
110.0718
20
50.4115
0
VERTEX
8
CUT
10
108
20
46.8231
0
VERTEX
8
CUT
10
106.4282
20
49.5455
0
SEQEND
0
LINE
8
CUT
10
110.7321
20
39.8231
11
120
21
39.8231
0
POLYLINE
8
CUT
66
1
70
0
0
VERTEX
8
CUT
10
120
20
47.2154
0
VERTEX
8
CUT
10
117
20
52.4115
0
VERTEX
8
CUT
10
110.2321
20
40.6891
0
SEQEND
0
POLYLINE
8
CUT
66
1
70
0
0
VERTEX
8
CUT
10
120
20
45.2154
0
VERTEX
8
CUT
10
117
20
50.4115
0
VERTEX
8
CUT
10
111.4641
20
40.8231
0
VERTEX
8
CUT
10
120
20
40.8231
0
SEQEND
0
POLYLINE
8
CUT
66
1
70
0
0
VERTEX
8
CUT
10
116.5
20
47.5455
0
VERTEX
8
CUT
10
113.1962
20
41.8231
0
VERTEX
8
CUT
10
120
20
41.8231
0
SEQEND
0
LINE
8
CUT
10
120
20
43.2154
11
117.5
21
47.5455
0
POLYLINE
8
CUT
66
1
70
0
0
VERTEX
8
CUT
10
115.9282
20
42.8231
0
VERTEX
8
CUT
10
119.0718
20
42.8231
0
VERTEX
8
CUT
10
117
20
46.4115
0
VERTEX
8
CUT
10
115.4282
20
43.6891
0
SEQEND
0
LINE
8
CUT
10
118
20
54.4115
11
120
21
54.4115
0
LINE
8
CUT
10
117.5
20
53.5455
11
120
21
49.2154
0
LINE
8
CUT
10
120
20
51.2154
11
119.2321
21
52.5455
0
POLYLINE
8
CUT
66
1
70
0
0
VERTEX
8
CUT
10
0
20
24.2346
0
VERTEX
8
CUT
10
7.2679
20
24.2346
0
VERTEX
8
CUT
10
0
20
36.8231
0
VERTEX
8
CUT
10
0
20
36.8231
0
SEQEND
0
POLYLINE
8
CUT
66
1
70
0
0
VERTEX
8
CUT
10
5.0359
20
26.1007
0
VERTEX
8
CUT
10
0
20
34.8231
0
VERTEX
8
CUT
10
0
20
34.8231
0
SEQEND
0
LINE
8
CUT
10
0
20
25.2346
11
4.5359
21
25.2346
0
POLYLINE
8
CUT
66
1
70
0
0
VERTEX
8
CUT
10
0
20
26.2346
0
VERTEX
8
CUT
10
3.8038
20
26.2346
0
VERTEX
8
CUT
10
0.5
20
31.9571
0
SEQEND
0
POLYLINE
8
CUT
66
1
70
0
0
VERTEX
8
CUT
10
0
20
27.2346
0
VERTEX
8
CUT
10
2.0718
20
27.2346
0
VERTEX
8
CUT
10
0
20
30.8231
0
VERTEX
8
CUT
10
0
20
30.8231
0
SEQEND
0
LINE
8
CUT
10
1
20
38.8231
11
17
21
38.8231
0
LINE
8
CUT
10
0.5
20
37.9571
11
8.5
21
24.1007
0
LINE
8
CUT
10
17.5
20
37.9571
11
9.5
21
24.1007
0
POLYLINE
8
CUT
66
1
70
0
0
VERTEX
8
CUT
10
2.7321
20
37.8231
0
VERTEX
8
CUT
10
16.2679
20
37.8231
0
VERTEX
8
CUT
10
9
20
25.2346
0
VERTEX
8
CUT
10
2.2321
20
36.9571
0
SEQEND
0
POLYLINE
8
CUT
66
1
70
0
0
VERTEX
8
CUT
10
14.0359
20
35.9571
0
VERTEX
8
CUT
10
9
20
27.2346
0
VERTEX
8
CUT
10
3.4641
20
36.8231
0
VERTEX
8
CUT
10
13.5359
20
36.8231
0
SEQEND
0
POLYLINE
8
CUT
66
1
70
0
0
VERTEX
8
CUT
10
8.5
20
30.1007
0
VERTEX
8
CUT
10
5.1962
20
35.8231
0
VERTEX
8
CUT
10
12.8038
20
35.8231
0
VERTEX
8
CUT
10
9.5
20
30.1007
0
SEQEND
0
POLYLINE
8
CUT
66
1
70
0
0
VERTEX
8
CUT
10
7.9282
20
34.8231
0
VERTEX
8
CUT
10
11.0718
20
34.8231
0
VERTEX
8
CUT
10
9
20
31.2346
0
VERTEX
8
CUT
10
7.4282
20
33.9571
0
SEQEND
0
POLYLINE
8
CUT
66
1
70
0
0
VERTEX
8
CUT
10
11.7321
20
24.2346
0
VERTEX
8
CUT
10
25.2679
20
24.2346
0
VERTEX
8
CUT
10
18
20
36.8231
0
VERTEX
8
CUT
10
11.2321
20
25.1007
0
SEQEND
0
POLYLINE
8
CUT
66
1
70
0
0
VERTEX
8
CUT
10
23.0359
20
26.1007
0
VERTEX
8
CUT
10
18
20
34.8231
0
VERTEX
8
CUT
10
12.4641
20
25.2346
0
VERTEX
8
CUT
10
22.5359
20
25.2346
0
SEQEND
0
POLYLINE
8
CUT
66
1
70
0
0
VERTEX
8
CUT
10
17.5
20
31.9571
0
VERTEX
8
CUT
10
14.1962
20
26.2346
0
VERTEX
8
CUT
10
21.8038
20
26.2346
0
VERTEX
8
CUT
10
18.5
20
31.9571
0
SEQEND
0
POLYLINE
8
CUT
66
1
70
0
0
VERTEX
8
CUT
10
16.9282
20
27.2346
0
VERTEX
8
CUT
10
20.0718
20
27.2346
0
VERTEX
8
CUT
10
18
20
30.8231
0
VERTEX
8
CUT
10
16.4282
20
28.1007
0
SEQEND
0
LINE
8
CUT
10
19
20
38.8231
11
35
21
38.8231
0
LINE
8
CUT
10
18.5
20
37.9571
11
26.5
21
24.1007
0
LINE
8
CUT
10
35.5
20
37.9571
11
27.5
21
24.1007
0
POLYLINE
8
CUT
66
1
70
0
0
VERTEX
8
CUT
10
20.7321
20
37.8231
0
VERTEX
8
CUT
10
34.2679
20
37.8231
0
VERTEX
8
CUT
10
27
20
25.2346
0
VERTEX
8
CUT
10
20.2321
20
36.9571
0
SEQEND
0
POLYLINE
8
CUT
66
1
70
0
0
VERTEX
8
CUT
10
32.0359
20
35.9571
0
VERTEX
8
CUT
10
27
20
27.2346
0
VERTEX
8
CUT
10
21.4641
20
36.8231
0
VERTEX
8
CUT
10
31.5359
20
36.8231
0
SEQEND
0
POLYLINE
8
CUT
66
1
70
0
0
VERTEX
8
CUT
10
26.5
20
30.1007
0
VERTEX
8
CUT
10
23.1962
20
35.8231
0
VERTEX
8
CUT
10
30.8038
20
35.8231
0
VERTEX
8
CUT
10
27.5
20
30.1007
0
SEQEND
0
POLYLINE
8
CUT
66
1
70
0
0
VERTEX
8
CUT
10
25.9282
20
34.8231
0
VERTEX
8
CUT
10
29.0718
20
34.8231
0
VERTEX
8
CUT
10
27
20
31.2346
0
VERTEX
8
CUT
10
25.4282
20
33.9571
0
SEQEND
0
POLYLINE
8
CUT
66
1
70
0
0
VERTEX
8
CUT
10
29.7321
20
24.2346
0
VERTEX
8
CUT
10
43.2679
20
24.2346
0
VERTEX
8
CUT
10
36
20
36.8231
0
VERTEX
8
CUT
10
29.2321
20
25.1007
0
SEQEND
0
POLYLINE
8
CUT
66
1
70
0
0
VERTEX
8
CUT
10
41.0359
20
26.1007
0
VERTEX
8
CUT
10
36
20
34.8231
0
VERTEX
8
CUT
10
30.4641
20
25.2346
0
VERTEX
8
CUT
10
40.5359
20
25.2346
0
SEQEND
0
POLYLINE
8
CUT
66
1
70
0
0
VERTEX
8
CUT
10
35.5
20
31.9571
0
VERTEX
8
CUT
10
32.1962
20
26.2346
0
VERTEX
8
CUT
10
39.8038
20
26.2346
0
VERTEX
8
CUT
10
36.5
20
31.9571
0
SEQEND
0
POLYLINE
8
CUT
66
1
70
0
0
VERTEX
8
CUT
10
34.9282
20
27.2346
0
VERTEX
8
CUT
10
38.0718
20
27.2346
0
VERTEX
8
CUT
10
36
20
30.8231
0
VERTEX
8
CUT
10
34.4282
20
28.1007
0
SEQEND
0
LINE
8
CUT
10
37
20
38.8231
11
53
21
38.8231
0
LINE
8
CUT
10
36.5
20
37.9571
11
44.5
21
24.1007
0
LINE
8
CUT
10
53.5
20
37.9571
11
45.5
21
24.1007
0
POLYLINE
8
CUT
66
1
70
0
0
VERTEX
8
CUT
10
38.7321
20
37.8231
0
VERTEX
8
CUT
10
52.2679
20
37.8231
0
VERTEX
8
CUT
10
45
20
25.2346
0
VERTEX
8
CUT
10
38.2321
20
36.9571
0
SEQEND
0
POLYLINE
8
CUT
66
1
70
0
0
VERTEX
8
CUT
10
50.0359
20
35.9571
0
VERTEX
8
CUT
10
45
20
27.2346
0
VERTEX
8
CUT
10
39.4641
20
36.8231
0
VERTEX
8
CUT
10
49.5359
20
36.8231
0
SEQEND
0
POLYLINE
8
CUT
66
1
70
0
0
VERTEX
8
CUT
10
44.5
20
30.1007
0
VERTEX
8
CUT
10
41.1962
20
35.8231
0
VERTEX
8
CUT
10
48.8038
20
35.8231
0
VERTEX
8
CUT
10
45.5
20
30.1007
0
SEQEND
0
POLYLINE
8
CUT
66
1
70
0
0
VERTEX
8
CUT
10
43.9282
20
34.8231
0
VERTEX
8
CUT
10
47.0718
20
34.8231
0
VERTEX
8
CUT
10
45
20
31.2346
0
VERTEX
8
CUT
10
43.4282
20
33.9571
0
SEQEND
0
POLYLINE
8
CUT
66
1
70
0
0
VERTEX
8
CUT
10
47.7321
20
24.2346
0
VERTEX
8
CUT
10
61.2679
20
24.2346
0
VERTEX
8
CUT
10
54
20
36.8231
0
VERTEX
8
CUT
10
47.2321
20
25.1007
0
SEQEND
0
POLYLINE
8
CUT
66
1
70
0
0
VERTEX
8
CUT
10
59.0359
20
26.1007
0
VERTEX
8
CUT
10
54
20
34.8231
0
VERTEX
8
CUT
10
48.4641
20
25.2346
0
VERTEX
8
CUT
10
58.5359
20
25.2346
0
SEQEND
0
POLYLINE
8
CUT
66
1
70
0
0
VERTEX
8
CUT
10
53.5
20
31.9571
0
VERTEX
8
CUT
10
50.1962
20
26.2346
0
VERTEX
8
CUT
10
57.8038
20
26.2346
0
VERTEX
8
CUT
10
54.5
20
31.9571
0
SEQEND
0
POLYLINE
8
CUT
66
1
70
0
0
VERTEX
8
CUT
10
52.9282
20
27.2346
0
VERTEX
8
CUT
10
56.0718
20
27.2346
0
VERTEX
8
CUT
10
54
20
30.8231
0
VERTEX
8
CUT
10
52.4282
20
28.1007
0
SEQEND
0
LINE
8
CUT
10
55
20
38.8231
11
71
21
38.8231
0
LINE
8
CUT
10
54.5
20
37.9571
11
62.5
21
24.1007
0
LINE
8
CUT
10
71.5
20
37.9571
11
63.5
21
24.1007
0
POLYLINE
8
CUT
66
1
70
0
0
VERTEX
8
CUT
10
56.7321
20
37.8231
0
VERTEX
8
CUT
10
70.2679
20
37.8231
0
VERTEX
8
CUT
10
63
20
25.2346
0
VERTEX
8
CUT
10
56.2321
20
36.9571
0
SEQEND
0
POLYLINE
8
CUT
66
1
70
0
0
VERTEX
8
CUT
10
68.0359
20
35.9571
0
VERTEX
8
CUT
10
63
20
27.2346
0
VERTEX
8
CUT
10
57.4641
20
36.8231
0
VERTEX
8
CUT
10
67.5359
20
36.8231
0
SEQEND
0
POLYLINE
8
CUT
66
1
70
0
0
VERTEX
8
CUT
10
62.5
20
30.1007
0
VERTEX
8
CUT
10
59.1962
20
35.8231
0
VERTEX
8
CUT
10
66.8038
20
35.8231
0
VERTEX
8
CUT
10
63.5
20
30.1007
0
SEQEND
0
POLYLINE
8
CUT
66
1
70
0
0
VERTEX
8
CUT
10
61.9282
20
34.8231
0
VERTEX
8
CUT
10
65.0718
20
34.8231
0
VERTEX
8
CUT
10
63
20
31.2346
0
VERTEX
8
CUT
10
61.4282
20
33.9571
0
SEQEND
0
POLYLINE
8
CUT
66
1
70
0
0
VERTEX
8
CUT
10
65.7321
20
24.2346
0
VERTEX
8
CUT
10
79.2679
20
24.2346
0
VERTEX
8
CUT
10
72
20
36.8231
0
VERTEX
8
CUT
10
65.2321
20
25.1007
0
SEQEND
0
POLYLINE
8
CUT
66
1
70
0
0
VERTEX
8
CUT
10
77.0359
20
26.1007
0
VERTEX
8
CUT
10
72
20
34.8231
0
VERTEX
8
CUT
10
66.4641
20
25.2346
0
VERTEX
8
CUT
10
76.5359
20
25.2346
0
SEQEND
0
POLYLINE
8
CUT
66
1
70
0
0
VERTEX
8
CUT
10
71.5
20
31.9571
0
VERTEX
8
CUT
10
68.1962
20
26.2346
0
VERTEX
8
CUT
10
75.8038
20
26.2346
0
VERTEX
8
CUT
10
72.5
20
31.9571
0
SEQEND
0
POLYLINE
8
CUT
66
1
70
0
0
VERTEX
8
CUT
10
70.9282
20
27.2346
0
VERTEX
8
CUT
10
74.0718
20
27.2346
0
VERTEX
8
CUT
10
72
20
30.8231
0
VERTEX
8
CUT
10
70.4282
20
28.1007
0
SEQEND
0
LINE
8
CUT
10
73
20
38.8231
11
89
21
38.8231
0
LINE
8
CUT
10
72.5
20
37.9571
11
80.5
21
24.1007
0
LINE
8
CUT
10
89.5
20
37.9571
11
81.5
21
24.1007
0
POLYLINE
8
CUT
66
1
70
0
0
VERTEX
8
CUT
10
74.7321
20
37.8231
0
VERTEX
8
CUT
10
88.2679
20
37.8231
0
VERTEX
8
CUT
10
81
20
25.2346
0
VERTEX
8
CUT
10
74.2321
20
36.9571
0
SEQEND
0
POLYLINE
8
CUT
66
1
70
0
0
VERTEX
8
CUT
10
86.0359
20
35.9571
0
VERTEX
8
CUT
10
81
20
27.2346
0
VERTEX
8
CUT
10
75.4641
20
36.8231
0
VERTEX
8
CUT
10
85.5359
20
36.8231
0
SEQEND
0
POLYLINE
8
CUT
66
1
70
0
0
VERTEX
8
CUT
10
80.5
20
30.1007
0
VERTEX
8
CUT
10
77.1962
20
35.8231
0
VERTEX
8
CUT
10
84.8038
20
35.8231
0
VERTEX
8
CUT
10
81.5
20
30.1007
0
SEQEND
0
POLYLINE
8
CUT
66
1
70
0
0
VERTEX
8
CUT
10
79.9282
20
34.8231
0
VERTEX
8
CUT
10
83.0718
20
34.8231
0
VERTEX
8
CUT
10
81
20
31.2346
0
VERTEX
8
CUT
10
79.4282
20
33.9571
0
SEQEND
0
POLYLINE
8
CUT
66
1
70
0
0
VERTEX
8
CUT
10
83.7321
20
24.2346
0
VERTEX
8
CUT
10
97.2679
20
24.2346
0
VERTEX
8
CUT
10
90
20
36.8231
0
VERTEX
8
CUT
10
83.2321
20
25.1007
0
SEQEND
0
POLYLINE
8
CUT
66
1
70
0
0
VERTEX
8
CUT
10
95.0359
20
26.1007
0
VERTEX
8
CUT
10
90
20
34.8231
0
VERTEX
8
CUT
10
84.4641
20
25.2346
0
VERTEX
8
CUT
10
94.5359
20
25.2346
0
SEQEND
0
POLYLINE
8
CUT
66
1
70
0
0
VERTEX
8
CUT
10
89.5
20
31.9571
0
VERTEX
8
CUT
10
86.1962
20
26.2346
0
VERTEX
8
CUT
10
93.8038
20
26.2346
0
VERTEX
8
CUT
10
90.5
20
31.9571
0
SEQEND
0
POLYLINE
8
CUT
66
1
70
0
0
VERTEX
8
CUT
10
88.9282
20
27.2346
0
VERTEX
8
CUT
10
92.0718
20
27.2346
0
VERTEX
8
CUT
10
90
20
30.8231
0
VERTEX
8
CUT
10
88.4282
20
28.1007
0
SEQEND
0
LINE
8
CUT
10
91
20
38.8231
11
107
21
38.8231
0
LINE
8
CUT
10
90.5
20
37.9571
11
98.5
21
24.1007
0
LINE
8
CUT
10
107.5
20
37.9571
11
99.5
21
24.1007
0
POLYLINE
8
CUT
66
1
70
0
0
VERTEX
8
CUT
10
92.7321
20
37.8231
0
VERTEX
8
CUT
10
106.2679
20
37.8231
0
VERTEX
8
CUT
10
99
20
25.2346
0
VERTEX
8
CUT
10
92.2321
20
36.9571
0
SEQEND
0
POLYLINE
8
CUT
66
1
70
0
0
VERTEX
8
CUT
10
104.0359
20
35.9571
0
VERTEX
8
CUT
10
99
20
27.2346
0
VERTEX
8
CUT
10
93.4641
20
36.8231
0
VERTEX
8
CUT
10
103.5359
20
36.8231
0
SEQEND
0
POLYLINE
8
CUT
66
1
70
0
0
VERTEX
8
CUT
10
98.5
20
30.1007
0
VERTEX
8
CUT
10
95.1962
20
35.8231
0
VERTEX
8
CUT
10
102.8038
20
35.8231
0
VERTEX
8
CUT
10
99.5
20
30.1007
0
SEQEND
0
POLYLINE
8
CUT
66
1
70
0
0
VERTEX
8
CUT
10
97.9282
20
34.8231
0
VERTEX
8
CUT
10
101.0718
20
34.8231
0
VERTEX
8
CUT
10
99
20
31.2346
0
VERTEX
8
CUT
10
97.4282
20
33.9571
0
SEQEND
0
POLYLINE
8
CUT
66
1
70
0
0
VERTEX
8
CUT
10
101.7321
20
24.2346
0
VERTEX
8
CUT
10
115.2679
20
24.2346
0
VERTEX
8
CUT
10
108
20
36.8231
0
VERTEX
8
CUT
10
101.2321
20
25.1007
0
SEQEND
0
POLYLINE
8
CUT
66
1
70
0
0
VERTEX
8
CUT
10
113.0359
20
26.1007
0
VERTEX
8
CUT
10
108
20
34.8231
0
VERTEX
8
CUT
10
102.4641
20
25.2346
0
VERTEX
8
CUT
10
112.5359
20
25.2346
0
SEQEND
0
POLYLINE
8
CUT
66
1
70
0
0
VERTEX
8
CUT
10
107.5
20
31.9571
0
VERTEX
8
CUT
10
104.1962
20
26.2346
0
VERTEX
8
CUT
10
111.8038
20
26.2346
0
VERTEX
8
CUT
10
108.5
20
31.9571
0
SEQEND
0
POLYLINE
8
CUT
66
1
70
0
0
VERTEX
8
CUT
10
106.9282
20
27.2346
0
VERTEX
8
CUT
10
110.0718
20
27.2346
0
VERTEX
8
CUT
10
108
20
30.8231
0
VERTEX
8
CUT
10
106.4282
20
28.1007
0
SEQEND
0
LINE
8
CUT
10
109
20
38.8231
11
120
21
38.8231
0
LINE
8
CUT
10
108.5
20
37.9571
11
116.5
21
24.1007
0
LINE
8
CUT
10
120
20
28.4308
11
117.5
21
24.1007
0
LINE
8
CUT
10
110.7321
20
37.8231
11
120
21
37.8231
0
POLYLINE
8
CUT
66
1
70
0
0
VERTEX
8
CUT
10
120
20
30.4308
0
VERTEX
8
CUT
10
117
20
25.2346
0
VERTEX
8
CUT
10
110.2321
20
36.9571
0
SEQEND
0
POLYLINE
8
CUT
66
1
70
0
0
VERTEX
8
CUT
10
120
20
32.4308
0
VERTEX
8
CUT
10
117
20
27.2346
0
VERTEX
8
CUT
10
111.4641
20
36.8231
0
VERTEX
8
CUT
10
120
20
36.8231
0
SEQEND
0
POLYLINE
8
CUT
66
1
70
0
0
VERTEX
8
CUT
10
116.5
20
30.1007
0
VERTEX
8
CUT
10
113.1962
20
35.8231
0
VERTEX
8
CUT
10
120
20
35.8231
0
SEQEND
0
LINE
8
CUT
10
120
20
34.4308
11
117.5
21
30.1007
0
POLYLINE
8
CUT
66
1
70
0
0
VERTEX
8
CUT
10
115.9282
20
34.8231
0
VERTEX
8
CUT
10
119.0718
20
34.8231
0
VERTEX
8
CUT
10
117
20
31.2346
0
VERTEX
8
CUT
10
115.4282
20
33.9571
0
SEQEND
0
LINE
8
CUT
10
120
20
26.4308
11
119.2321
21
25.1007
0
LINE
8
CUT
10
0
20
23.2346
11
8
21
23.2346
0
LINE
8
CUT
10
8.5
20
22.3686
11
0.5
21
8.5122
0
POLYLINE
8
CUT
66
1
70
0
0
VERTEX
8
CUT
10
0
20
22.2346
0
VERTEX
8
CUT
10
7.2679
20
22.2346
0
VERTEX
8
CUT
10
0
20
9.6462
0
VERTEX
8
CUT
10
0
20
9.6462
0
SEQEND
0
POLYLINE
8
CUT
66
1
70
0
0
VERTEX
8
CUT
10
5.0359
20
20.3686
0
VERTEX
8
CUT
10
0
20
11.6462
0
VERTEX
8
CUT
10
0
20
11.6462
0
SEQEND
0
LINE
8
CUT
10
0
20
21.2346
11
4.5359
21
21.2346
0
POLYLINE
8
CUT
66
1
70
0
0
VERTEX
8
CUT
10
0
20
20.2346
0
VERTEX
8
CUT
10
3.8038
20
20.2346
0
VERTEX
8
CUT
10
0.5
20
14.5122
0
SEQEND
0
POLYLINE
8
CUT
66
1
70
0
0
VERTEX
8
CUT
10
0
20
19.2346
0
VERTEX
8
CUT
10
2.0718
20
19.2346
0
VERTEX
8
CUT
10
0
20
15.6462
0
VERTEX
8
CUT
10
0
20
15.6462
0
SEQEND
0
POLYLINE
8
CUT
66
1
70
0
0
VERTEX
8
CUT
10
2.7321
20
8.6462
0
VERTEX
8
CUT
10
16.2679
20
8.6462
0
VERTEX
8
CUT
10
9
20
21.2346
0
VERTEX
8
CUT
10
2.2321
20
9.5122
0
SEQEND
0
POLYLINE
8
CUT
66
1
70
0
0
VERTEX
8
CUT
10
14.0359
20
10.5122
0
VERTEX
8
CUT
10
9
20
19.2346
0
VERTEX
8
CUT
10
3.4641
20
9.6462
0
VERTEX
8
CUT
10
13.5359
20
9.6462
0
SEQEND
0
POLYLINE
8
CUT
66
1
70
0
0
VERTEX
8
CUT
10
8.5
20
16.3686
0
VERTEX
8
CUT
10
5.1962
20
10.6462
0
VERTEX
8
CUT
10
12.8038
20
10.6462
0
VERTEX
8
CUT
10
9.5
20
16.3686
0
SEQEND
0
POLYLINE
8
CUT
66
1
70
0
0
VERTEX
8
CUT
10
7.9282
20
11.6462
0
VERTEX
8
CUT
10
11.0718
20
11.6462
0
VERTEX
8
CUT
10
9
20
15.2346
0
VERTEX
8
CUT
10
7.4282
20
12.5122
0
SEQEND
0
LINE
8
CUT
10
10
20
23.2346
11
26
21
23.2346
0
LINE
8
CUT
10
9.5
20
22.3686
11
17.5
21
8.5122
0
LINE
8
CUT
10
26.5
20
22.3686
11
18.5
21
8.5122
0
POLYLINE
8
CUT
66
1
70
0
0
VERTEX
8
CUT
10
11.7321
20
22.2346
0
VERTEX
8
CUT
10
25.2679
20
22.2346
0
VERTEX
8
CUT
10
18
20
9.6462
0
VERTEX
8
CUT
10
11.2321
20
21.3686
0
SEQEND
0
POLYLINE
8
CUT
66
1
70
0
0
VERTEX
8
CUT
10
23.0359
20
20.3686
0
VERTEX
8
CUT
10
18
20
11.6462
0
VERTEX
8
CUT
10
12.4641
20
21.2346
0
VERTEX
8
CUT
10
22.5359
20
21.2346
0
SEQEND
0
POLYLINE
8
CUT
66
1
70
0
0
VERTEX
8
CUT
10
17.5
20
14.5122
0
VERTEX
8
CUT
10
14.1962
20
20.2346
0
VERTEX
8
CUT
10
21.8038
20
20.2346
0
VERTEX
8
CUT
10
18.5
20
14.5122
0
SEQEND
0
POLYLINE
8
CUT
66
1
70
0
0
VERTEX
8
CUT
10
16.9282
20
19.2346
0
VERTEX
8
CUT
10
20.0718
20
19.2346
0
VERTEX
8
CUT
10
18
20
15.6462
0
VERTEX
8
CUT
10
16.4282
20
18.3686
0
SEQEND
0
POLYLINE
8
CUT
66
1
70
0
0
VERTEX
8
CUT
10
20.7321
20
8.6462
0
VERTEX
8
CUT
10
34.2679
20
8.6462
0
VERTEX
8
CUT
10
27
20
21.2346
0
VERTEX
8
CUT
10
20.2321
20
9.5122
0
SEQEND
0
POLYLINE
8
CUT
66
1
70
0
0
VERTEX
8
CUT
10
32.0359
20
10.5122
0
VERTEX
8
CUT
10
27
20
19.2346
0
VERTEX
8
CUT
10
21.4641
20
9.6462
0
VERTEX
8
CUT
10
31.5359
20
9.6462
0
SEQEND
0
POLYLINE
8
CUT
66
1
70
0
0
VERTEX
8
CUT
10
26.5
20
16.3686
0
VERTEX
8
CUT
10
23.1962
20
10.6462
0
VERTEX
8
CUT
10
30.8038
20
10.6462
0
VERTEX
8
CUT
10
27.5
20
16.3686
0
SEQEND
0
POLYLINE
8
CUT
66
1
70
0
0
VERTEX
8
CUT
10
25.9282
20
11.6462
0
VERTEX
8
CUT
10
29.0718
20
11.6462
0
VERTEX
8
CUT
10
27
20
15.2346
0
VERTEX
8
CUT
10
25.4282
20
12.5122
0
SEQEND
0
LINE
8
CUT
10
28
20
23.2346
11
44
21
23.2346
0
LINE
8
CUT
10
27.5
20
22.3686
11
35.5
21
8.5122
0
LINE
8
CUT
10
44.5
20
22.3686
11
36.5
21
8.5122
0
POLYLINE
8
CUT
66
1
70
0
0
VERTEX
8
CUT
10
29.7321
20
22.2346
0
VERTEX
8
CUT
10
43.2679
20
22.2346
0
VERTEX
8
CUT
10
36
20
9.6462
0
VERTEX
8
CUT
10
29.2321
20
21.3686
0
SEQEND
0
POLYLINE
8
CUT
66
1
70
0
0
VERTEX
8
CUT
10
41.0359
20
20.3686
0
VERTEX
8
CUT
10
36
20
11.6462
0
VERTEX
8
CUT
10
30.4641
20
21.2346
0
VERTEX
8
CUT
10
40.5359
20
21.2346
0
SEQEND
0
POLYLINE
8
CUT
66
1
70
0
0
VERTEX
8
CUT
10
35.5
20
14.5122
0
VERTEX
8
CUT
10
32.1962
20
20.2346
0
VERTEX
8
CUT
10
39.8038
20
20.2346
0
VERTEX
8
CUT
10
36.5
20
14.5122
0
SEQEND
0
POLYLINE
8
CUT
66
1
70
0
0
VERTEX
8
CUT
10
34.9282
20
19.2346
0
VERTEX
8
CUT
10
38.0718
20
19.2346
0
VERTEX
8
CUT
10
36
20
15.6462
0
VERTEX
8
CUT
10
34.4282
20
18.3686
0
SEQEND
0
POLYLINE
8
CUT
66
1
70
0
0
VERTEX
8
CUT
10
38.7321
20
8.6462
0
VERTEX
8
CUT
10
52.2679
20
8.6462
0
VERTEX
8
CUT
10
45
20
21.2346
0
VERTEX
8
CUT
10
38.2321
20
9.5122
0
SEQEND
0
POLYLINE
8
CUT
66
1
70
0
0
VERTEX
8
CUT
10
50.0359
20
10.5122
0
VERTEX
8
CUT
10
45
20
19.2346
0
VERTEX
8
CUT
10
39.4641
20
9.6462
0
VERTEX
8
CUT
10
49.5359
20
9.6462
0
SEQEND
0
POLYLINE
8
CUT
66
1
70
0
0
VERTEX
8
CUT
10
44.5
20
16.3686
0
VERTEX
8
CUT
10
41.1962
20
10.6462
0
VERTEX
8
CUT
10
48.8038
20
10.6462
0
VERTEX
8
CUT
10
45.5
20
16.3686
0
SEQEND
0
POLYLINE
8
CUT
66
1
70
0
0
VERTEX
8
CUT
10
43.9282
20
11.6462
0
VERTEX
8
CUT
10
47.0718
20
11.6462
0
VERTEX
8
CUT
10
45
20
15.2346
0
VERTEX
8
CUT
10
43.4282
20
12.5122
0
SEQEND
0
LINE
8
CUT
10
46
20
23.2346
11
62
21
23.2346
0
LINE
8
CUT
10
45.5
20
22.3686
11
53.5
21
8.5122
0
LINE
8
CUT
10
62.5
20
22.3686
11
54.5
21
8.5122
0
POLYLINE
8
CUT
66
1
70
0
0
VERTEX
8
CUT
10
47.7321
20
22.2346
0
VERTEX
8
CUT
10
61.2679
20
22.2346
0
VERTEX
8
CUT
10
54
20
9.6462
0
VERTEX
8
CUT
10
47.2321
20
21.3686
0
SEQEND
0
POLYLINE
8
CUT
66
1
70
0
0
VERTEX
8
CUT
10
59.0359
20
20.3686
0
VERTEX
8
CUT
10
54
20
11.6462
0
VERTEX
8
CUT
10
48.4641
20
21.2346
0
VERTEX
8
CUT
10
58.5359
20
21.2346
0
SEQEND
0
POLYLINE
8
CUT
66
1
70
0
0
VERTEX
8
CUT
10
53.5
20
14.5122
0
VERTEX
8
CUT
10
50.1962
20
20.2346
0
VERTEX
8
CUT
10
57.8038
20
20.2346
0
VERTEX
8
CUT
10
54.5
20
14.5122
0
SEQEND
0
POLYLINE
8
CUT
66
1
70
0
0
VERTEX
8
CUT
10
52.9282
20
19.2346
0
VERTEX
8
CUT
10
56.0718
20
19.2346
0
VERTEX
8
CUT
10
54
20
15.6462
0
VERTEX
8
CUT
10
52.4282
20
18.3686
0
SEQEND
0
POLYLINE
8
CUT
66
1
70
0
0
VERTEX
8
CUT
10
56.7321
20
8.6462
0
VERTEX
8
CUT
10
70.2679
20
8.6462
0
VERTEX
8
CUT
10
63
20
21.2346
0
VERTEX
8
CUT
10
56.2321
20
9.5122
0
SEQEND
0
POLYLINE
8
CUT
66
1
70
0
0
VERTEX
8
CUT
10
68.0359
20
10.5122
0
VERTEX
8
CUT
10
63
20
19.2346
0
VERTEX
8
CUT
10
57.4641
20
9.6462
0
VERTEX
8
CUT
10
67.5359
20
9.6462
0
SEQEND
0
POLYLINE
8
CUT
66
1
70
0
0
VERTEX
8
CUT
10
62.5
20
16.3686
0
VERTEX
8
CUT
10
59.1962
20
10.6462
0
VERTEX
8
CUT
10
66.8038
20
10.6462
0
VERTEX
8
CUT
10
63.5
20
16.3686
0
SEQEND
0
POLYLINE
8
CUT
66
1
70
0
0
VERTEX
8
CUT
10
61.9282
20
11.6462
0
VERTEX
8
CUT
10
65.0718
20
11.6462
0
VERTEX
8
CUT
10
63
20
15.2346
0
VERTEX
8
CUT
10
61.4282
20
12.5122
0
SEQEND
0
LINE
8
CUT
10
64
20
23.2346
11
80
21
23.2346
0
LINE
8
CUT
10
63.5
20
22.3686
11
71.5
21
8.5122
0
LINE
8
CUT
10
80.5
20
22.3686
11
72.5
21
8.5122
0
POLYLINE
8
CUT
66
1
70
0
0
VERTEX
8
CUT
10
65.7321
20
22.2346
0
VERTEX
8
CUT
10
79.2679
20
22.2346
0
VERTEX
8
CUT
10
72
20
9.6462
0
VERTEX
8
CUT
10
65.2321
20
21.3686
0
SEQEND
0
POLYLINE
8
CUT
66
1
70
0
0
VERTEX
8
CUT
10
77.0359
20
20.3686
0
VERTEX
8
CUT
10
72
20
11.6462
0
VERTEX
8
CUT
10
66.4641
20
21.2346
0
VERTEX
8
CUT
10
76.5359
20
21.2346
0
SEQEND
0
POLYLINE
8
CUT
66
1
70
0
0
VERTEX
8
CUT
10
71.5
20
14.5122
0
VERTEX
8
CUT
10
68.1962
20
20.2346
0
VERTEX
8
CUT
10
75.8038
20
20.2346
0
VERTEX
8
CUT
10
72.5
20
14.5122
0
SEQEND
0
POLYLINE
8
CUT
66
1
70
0
0
VERTEX
8
CUT
10
70.9282
20
19.2346
0
VERTEX
8
CUT
10
74.0718
20
19.2346
0
VERTEX
8
CUT
10
72
20
15.6462
0
VERTEX
8
CUT
10
70.4282
20
18.3686
0
SEQEND
0
POLYLINE
8
CUT
66
1
70
0
0
VERTEX
8
CUT
10
74.7321
20
8.6462
0
VERTEX
8
CUT
10
88.2679
20
8.6462
0
VERTEX
8
CUT
10
81
20
21.2346
0
VERTEX
8
CUT
10
74.2321
20
9.5122
0
SEQEND
0
POLYLINE
8
CUT
66
1
70
0
0
VERTEX
8
CUT
10
86.0359
20
10.5122
0
VERTEX
8
CUT
10
81
20
19.2346
0
VERTEX
8
CUT
10
75.4641
20
9.6462
0
VERTEX
8
CUT
10
85.5359
20
9.6462
0
SEQEND
0
POLYLINE
8
CUT
66
1
70
0
0
VERTEX
8
CUT
10
80.5
20
16.3686
0
VERTEX
8
CUT
10
77.1962
20
10.6462
0
VERTEX
8
CUT
10
84.8038
20
10.6462
0
VERTEX
8
CUT
10
81.5
20
16.3686
0
SEQEND
0
POLYLINE
8
CUT
66
1
70
0
0
VERTEX
8
CUT
10
79.9282
20
11.6462
0
VERTEX
8
CUT
10
83.0718
20
11.6462
0
VERTEX
8
CUT
10
81
20
15.2346
0
VERTEX
8
CUT
10
79.4282
20
12.5122
0
SEQEND
0
LINE
8
CUT
10
82
20
23.2346
11
98
21
23.2346
0
LINE
8
CUT
10
81.5
20
22.3686
11
89.5
21
8.5122
0
LINE
8
CUT
10
98.5
20
22.3686
11
90.5
21
8.5122
0
POLYLINE
8
CUT
66
1
70
0
0
VERTEX
8
CUT
10
83.7321
20
22.2346
0
VERTEX
8
CUT
10
97.2679
20
22.2346
0
VERTEX
8
CUT
10
90
20
9.6462
0
VERTEX
8
CUT
10
83.2321
20
21.3686
0
SEQEND
0
POLYLINE
8
CUT
66
1
70
0
0
VERTEX
8
CUT
10
95.0359
20
20.3686
0
VERTEX
8
CUT
10
90
20
11.6462
0
VERTEX
8
CUT
10
84.4641
20
21.2346
0
VERTEX
8
CUT
10
94.5359
20
21.2346
0
SEQEND
0
POLYLINE
8
CUT
66
1
70
0
0
VERTEX
8
CUT
10
89.5
20
14.5122
0
VERTEX
8
CUT
10
86.1962
20
20.2346
0
VERTEX
8
CUT
10
93.8038
20
20.2346
0
VERTEX
8
CUT
10
90.5
20
14.5122
0
SEQEND
0
POLYLINE
8
CUT
66
1
70
0
0
VERTEX
8
CUT
10
88.9282
20
19.2346
0
VERTEX
8
CUT
10
92.0718
20
19.2346
0
VERTEX
8
CUT
10
90
20
15.6462
0
VERTEX
8
CUT
10
88.4282
20
18.3686
0
SEQEND
0
POLYLINE
8
CUT
66
1
70
0
0
VERTEX
8
CUT
10
92.7321
20
8.6462
0
VERTEX
8
CUT
10
106.2679
20
8.6462
0
VERTEX
8
CUT
10
99
20
21.2346
0
VERTEX
8
CUT
10
92.2321
20
9.5122
0
SEQEND
0
POLYLINE
8
CUT
66
1
70
0
0
VERTEX
8
CUT
10
104.0359
20
10.5122
0
VERTEX
8
CUT
10
99
20
19.2346
0
VERTEX
8
CUT
10
93.4641
20
9.6462
0
VERTEX
8
CUT
10
103.5359
20
9.6462
0
SEQEND
0
POLYLINE
8
CUT
66
1
70
0
0
VERTEX
8
CUT
10
98.5
20
16.3686
0
VERTEX
8
CUT
10
95.1962
20
10.6462
0
VERTEX
8
CUT
10
102.8038
20
10.6462
0
VERTEX
8
CUT
10
99.5
20
16.3686
0
SEQEND
0
POLYLINE
8
CUT
66
1
70
0
0
VERTEX
8
CUT
10
97.9282
20
11.6462
0
VERTEX
8
CUT
10
101.0718
20
11.6462
0
VERTEX
8
CUT
10
99
20
15.2346
0
VERTEX
8
CUT
10
97.4282
20
12.5122
0
SEQEND
0
LINE
8
CUT
10
100
20
23.2346
11
116
21
23.2346
0
LINE
8
CUT
10
99.5
20
22.3686
11
107.5
21
8.5122
0
LINE
8
CUT
10
116.5
20
22.3686
11
108.5
21
8.5122
0
POLYLINE
8
CUT
66
1
70
0
0
VERTEX
8
CUT
10
101.7321
20
22.2346
0
VERTEX
8
CUT
10
115.2679
20
22.2346
0
VERTEX
8
CUT
10
108
20
9.6462
0
VERTEX
8
CUT
10
101.2321
20
21.3686
0
SEQEND
0
POLYLINE
8
CUT
66
1
70
0
0
VERTEX
8
CUT
10
113.0359
20
20.3686
0
VERTEX
8
CUT
10
108
20
11.6462
0
VERTEX
8
CUT
10
102.4641
20
21.2346
0
VERTEX
8
CUT
10
112.5359
20
21.2346
0
SEQEND
0
POLYLINE
8
CUT
66
1
70
0
0
VERTEX
8
CUT
10
107.5
20
14.5122
0
VERTEX
8
CUT
10
104.1962
20
20.2346
0
VERTEX
8
CUT
10
111.8038
20
20.2346
0
VERTEX
8
CUT
10
108.5
20
14.5122
0
SEQEND
0
POLYLINE
8
CUT
66
1
70
0
0
VERTEX
8
CUT
10
106.9282
20
19.2346
0
VERTEX
8
CUT
10
110.0718
20
19.2346
0
VERTEX
8
CUT
10
108
20
15.6462
0
VERTEX
8
CUT
10
106.4282
20
18.3686
0
SEQEND
0
LINE
8
CUT
10
110.7321
20
8.6462
11
120
21
8.6462
0
POLYLINE
8
CUT
66
1
70
0
0
VERTEX
8
CUT
10
120
20
16.0385
0
VERTEX
8
CUT
10
117
20
21.2346
0
VERTEX
8
CUT
10
110.2321
20
9.5122
0
SEQEND
0
POLYLINE
8
CUT
66
1
70
0
0
VERTEX
8
CUT
10
120
20
14.0385
0
VERTEX
8
CUT
10
117
20
19.2346
0
VERTEX
8
CUT
10
111.4641
20
9.6462
0
VERTEX
8
CUT
10
120
20
9.6462
0
SEQEND
0
POLYLINE
8
CUT
66
1
70
0
0
VERTEX
8
CUT
10
116.5
20
16.3686
0
VERTEX
8
CUT
10
113.1962
20
10.6462
0
VERTEX
8
CUT
10
120
20
10.6462
0
SEQEND
0
LINE
8
CUT
10
120
20
12.0385
11
117.5
21
16.3686
0
POLYLINE
8
CUT
66
1
70
0
0
VERTEX
8
CUT
10
115.9282
20
11.6462
0
VERTEX
8
CUT
10
119.0718
20
11.6462
0
VERTEX
8
CUT
10
117
20
15.2346
0
VERTEX
8
CUT
10
115.4282
20
12.5122
0
SEQEND
0
LINE
8
CUT
10
118
20
23.2346
11
120
21
23.2346
0
LINE
8
CUT
10
117.5
20
22.3686
11
120
21
18.0385
0
LINE
8
CUT
10
120
20
20.0385
11
119.2321
21
21.3686
0
POLYLINE
8
CUT
66
1
70
0
0
VERTEX
8
CUT
10
3.2598
20
0
0
VERTEX
8
CUT
10
0
20
5.6462
0
VERTEX
8
CUT
10
0
20
5.6462
0
SEQEND
0
POLYLINE
8
CUT
66
1
70
0
0
VERTEX
8
CUT
10
2.1051
20
0
0
VERTEX
8
CUT
10
0
20
3.6462
0
VERTEX
8
CUT
10
0
20
3.6462
0
SEQEND
0
LINE
8
CUT
10
0.9504
20
0
11
0.5
21
0.7801
0
LINE
8
CUT
10
1
20
7.6462
11
17
21
7.6462
0
LINE
8
CUT
10
0.5
20
6.7801
11
4.4145
21
0
0
LINE
8
CUT
10
17.5
20
6.7801
11
13.5855
21
0
0
POLYLINE
8
CUT
66
1
70
0
0
VERTEX
8
CUT
10
2.7321
20
6.6462
0
VERTEX
8
CUT
10
16.2679
20
6.6462
0
VERTEX
8
CUT
10
12.4308
20
0
0
SEQEND
0
LINE
8
CUT
10
5.5692
20
0
11
2.2321
21
5.7801
0
LINE
8
CUT
10
14.0359
20
4.7801
11
11.2761
21
0
0
POLYLINE
8
CUT
66
1
70
0
0
VERTEX
8
CUT
10
6.7239
20
0
0
VERTEX
8
CUT
10
3.4641
20
5.6462
0
VERTEX
8
CUT
10
13.5359
20
5.6462
0
SEQEND
0
POLYLINE
8
CUT
66
1
70
0
0
VERTEX
8
CUT
10
7.8786
20
0
0
VERTEX
8
CUT
10
5.1962
20
4.6462
0
VERTEX
8
CUT
10
12.8038
20
4.6462
0
VERTEX
8
CUT
10
10.1214
20
0
0
SEQEND
0
POLYLINE
8
CUT
66
1
70
0
0
VERTEX
8
CUT
10
7.9282
20
3.6462
0
VERTEX
8
CUT
10
11.0718
20
3.6462
0
VERTEX
8
CUT
10
9
20
0.0577
0
VERTEX
8
CUT
10
7.4282
20
2.7801
0
SEQEND
0
POLYLINE
8
CUT
66
1
70
0
0
VERTEX
8
CUT
10
21.2598
20
0
0
VERTEX
8
CUT
10
18
20
5.6462
0
VERTEX
8
CUT
10
14.7402
20
0
0
SEQEND
0
POLYLINE
8
CUT
66
1
70
0
0
VERTEX
8
CUT
10
20.1051
20
0
0
VERTEX
8
CUT
10
18
20
3.6462
0
VERTEX
8
CUT
10
15.8949
20
0
0
SEQEND
0
LINE
8
CUT
10
17.5
20
0.7801
11
17.0496
21
0
0
LINE
8
CUT
10
18.9504
20
0
11
18.5
21
0.7801
0
LINE
8
CUT
10
19
20
7.6462
11
35
21
7.6462
0
LINE
8
CUT
10
18.5
20
6.7801
11
22.4145
21
0
0
LINE
8
CUT
10
35.5
20
6.7801
11
31.5855
21
0
0
POLYLINE
8
CUT
66
1
70
0
0
VERTEX
8
CUT
10
20.7321
20
6.6462
0
VERTEX
8
CUT
10
34.2679
20
6.6462
0
VERTEX
8
CUT
10
30.4308
20
0
0
SEQEND
0
LINE
8
CUT
10
23.5692
20
0
11
20.2321
21
5.7801
0
LINE
8
CUT
10
32.0359
20
4.7801
11
29.2761
21
0
0
POLYLINE
8
CUT
66
1
70
0
0
VERTEX
8
CUT
10
24.7239
20
0
0
VERTEX
8
CUT
10
21.4641
20
5.6462
0
VERTEX
8
CUT
10
31.5359
20
5.6462
0
SEQEND
0
POLYLINE
8
CUT
66
1
70
0
0
VERTEX
8
CUT
10
25.8786
20
0
0
VERTEX
8
CUT
10
23.1962
20
4.6462
0
VERTEX
8
CUT
10
30.8038
20
4.6462
0
VERTEX
8
CUT
10
28.1214
20
0
0
SEQEND
0
POLYLINE
8
CUT
66
1
70
0
0
VERTEX
8
CUT
10
25.9282
20
3.6462
0
VERTEX
8
CUT
10
29.0718
20
3.6462
0
VERTEX
8
CUT
10
27
20
0.0577
0
VERTEX
8
CUT
10
25.4282
20
2.7801
0
SEQEND
0
POLYLINE
8
CUT
66
1
70
0
0
VERTEX
8
CUT
10
39.2598
20
0
0
VERTEX
8
CUT
10
36
20
5.6462
0
VERTEX
8
CUT
10
32.7402
20
0
0
SEQEND
0
POLYLINE
8
CUT
66
1
70
0
0
VERTEX
8
CUT
10
38.1051
20
0
0
VERTEX
8
CUT
10
36
20
3.6462
0
VERTEX
8
CUT
10
33.8949
20
0
0
SEQEND
0
LINE
8
CUT
10
35.5
20
0.7801
11
35.0496
21
0
0
LINE
8
CUT
10
36.9504
20
0
11
36.5
21
0.7801
0
LINE
8
CUT
10
37
20
7.6462
11
53
21
7.6462
0
LINE
8
CUT
10
36.5
20
6.7801
11
40.4145
21
0
0
LINE
8
CUT
10
53.5
20
6.7801
11
49.5855
21
0
0
POLYLINE
8
CUT
66
1
70
0
0
VERTEX
8
CUT
10
38.7321
20
6.6462
0
VERTEX
8
CUT
10
52.2679
20
6.6462
0
VERTEX
8
CUT
10
48.4308
20
0
0
SEQEND
0
LINE
8
CUT
10
41.5692
20
0
11
38.2321
21
5.7801
0
LINE
8
CUT
10
50.0359
20
4.7801
11
47.2761
21
0
0
POLYLINE
8
CUT
66
1
70
0
0
VERTEX
8
CUT
10
42.7239
20
0
0
VERTEX
8
CUT
10
39.4641
20
5.6462
0
VERTEX
8
CUT
10
49.5359
20
5.6462
0
SEQEND
0
POLYLINE
8
CUT
66
1
70
0
0
VERTEX
8
CUT
10
43.8786
20
0
0
VERTEX
8
CUT
10
41.1962
20
4.6462
0
VERTEX
8
CUT
10
48.8038
20
4.6462
0
VERTEX
8
CUT
10
46.1214
20
0
0
SEQEND
0
POLYLINE
8
CUT
66
1
70
0
0
VERTEX
8
CUT
10
43.9282
20
3.6462
0
VERTEX
8
CUT
10
47.0718
20
3.6462
0
VERTEX
8
CUT
10
45
20
0.0577
0
VERTEX
8
CUT
10
43.4282
20
2.7801
0
SEQEND
0
POLYLINE
8
CUT
66
1
70
0
0
VERTEX
8
CUT
10
57.2598
20
0
0
VERTEX
8
CUT
10
54
20
5.6462
0
VERTEX
8
CUT
10
50.7402
20
0
0
SEQEND
0
POLYLINE
8
CUT
66
1
70
0
0
VERTEX
8
CUT
10
56.1051
20
0
0
VERTEX
8
CUT
10
54
20
3.6462
0
VERTEX
8
CUT
10
51.8949
20
0
0
SEQEND
0
LINE
8
CUT
10
53.5
20
0.7801
11
53.0496
21
0
0
LINE
8
CUT
10
54.9504
20
0
11
54.5
21
0.7801
0
LINE
8
CUT
10
55
20
7.6462
11
71
21
7.6462
0
LINE
8
CUT
10
54.5
20
6.7801
11
58.4145
21
0
0
LINE
8
CUT
10
71.5
20
6.7801
11
67.5855
21
0
0
POLYLINE
8
CUT
66
1
70
0
0
VERTEX
8
CUT
10
56.7321
20
6.6462
0
VERTEX
8
CUT
10
70.2679
20
6.6462
0
VERTEX
8
CUT
10
66.4308
20
0
0
SEQEND
0
LINE
8
CUT
10
59.5692
20
0
11
56.2321
21
5.7801
0
LINE
8
CUT
10
68.0359
20
4.7801
11
65.2761
21
0
0
POLYLINE
8
CUT
66
1
70
0
0
VERTEX
8
CUT
10
60.7239
20
0
0
VERTEX
8
CUT
10
57.4641
20
5.6462
0
VERTEX
8
CUT
10
67.5359
20
5.6462
0
SEQEND
0
POLYLINE
8
CUT
66
1
70
0
0
VERTEX
8
CUT
10
61.8786
20
0
0
VERTEX
8
CUT
10
59.1962
20
4.6462
0
VERTEX
8
CUT
10
66.8038
20
4.6462
0
VERTEX
8
CUT
10
64.1214
20
0
0
SEQEND
0
POLYLINE
8
CUT
66
1
70
0
0
VERTEX
8
CUT
10
61.9282
20
3.6462
0
VERTEX
8
CUT
10
65.0718
20
3.6462
0
VERTEX
8
CUT
10
63
20
0.0577
0
VERTEX
8
CUT
10
61.4282
20
2.7801
0
SEQEND
0
POLYLINE
8
CUT
66
1
70
0
0
VERTEX
8
CUT
10
75.2598
20
0
0
VERTEX
8
CUT
10
72
20
5.6462
0
VERTEX
8
CUT
10
68.7402
20
0
0
SEQEND
0
POLYLINE
8
CUT
66
1
70
0
0
VERTEX
8
CUT
10
74.1051
20
0
0
VERTEX
8
CUT
10
72
20
3.6462
0
VERTEX
8
CUT
10
69.8949
20
0
0
SEQEND
0
LINE
8
CUT
10
71.5
20
0.7801
11
71.0496
21
0
0
LINE
8
CUT
10
72.9504
20
0
11
72.5
21
0.7801
0
LINE
8
CUT
10
73
20
7.6462
11
89
21
7.6462
0
LINE
8
CUT
10
72.5
20
6.7801
11
76.4145
21
0
0
LINE
8
CUT
10
89.5
20
6.7801
11
85.5855
21
0
0
POLYLINE
8
CUT
66
1
70
0
0
VERTEX
8
CUT
10
74.7321
20
6.6462
0
VERTEX
8
CUT
10
88.2679
20
6.6462
0
VERTEX
8
CUT
10
84.4308
20
0
0
SEQEND
0
LINE
8
CUT
10
77.5692
20
0
11
74.2321
21
5.7801
0
LINE
8
CUT
10
86.0359
20
4.7801
11
83.2761
21
0
0
POLYLINE
8
CUT
66
1
70
0
0
VERTEX
8
CUT
10
78.7239
20
0
0
VERTEX
8
CUT
10
75.4641
20
5.6462
0
VERTEX
8
CUT
10
85.5359
20
5.6462
0
SEQEND
0
POLYLINE
8
CUT
66
1
70
0
0
VERTEX
8
CUT
10
79.8786
20
0
0
VERTEX
8
CUT
10
77.1962
20
4.6462
0
VERTEX
8
CUT
10
84.8038
20
4.6462
0
VERTEX
8
CUT
10
82.1214
20
0
0
SEQEND
0
POLYLINE
8
CUT
66
1
70
0
0
VERTEX
8
CUT
10
79.9282
20
3.6462
0
VERTEX
8
CUT
10
83.0718
20
3.6462
0
VERTEX
8
CUT
10
81
20
0.0577
0
VERTEX
8
CUT
10
79.4282
20
2.7801
0
SEQEND
0
POLYLINE
8
CUT
66
1
70
0
0
VERTEX
8
CUT
10
93.2598
20
0
0
VERTEX
8
CUT
10
90
20
5.6462
0
VERTEX
8
CUT
10
86.7402
20
0
0
SEQEND
0
POLYLINE
8
CUT
66
1
70
0
0
VERTEX
8
CUT
10
92.1051
20
0
0
VERTEX
8
CUT
10
90
20
3.6462
0
VERTEX
8
CUT
10
87.8949
20
0
0
SEQEND
0
LINE
8
CUT
10
89.5
20
0.7801
11
89.0496
21
0
0
LINE
8
CUT
10
90.9504
20
0
11
90.5
21
0.7801
0
LINE
8
CUT
10
91
20
7.6462
11
107
21
7.6462
0
LINE
8
CUT
10
90.5
20
6.7801
11
94.4145
21
0
0
LINE
8
CUT
10
107.5
20
6.7801
11
103.5855
21
0
0
POLYLINE
8
CUT
66
1
70
0
0
VERTEX
8
CUT
10
92.7321
20
6.6462
0
VERTEX
8
CUT
10
106.2679
20
6.6462
0
VERTEX
8
CUT
10
102.4308
20
0
0
SEQEND
0
LINE
8
CUT
10
95.5692
20
0
11
92.2321
21
5.7801
0
LINE
8
CUT
10
104.0359
20
4.7801
11
101.2761
21
0
0
POLYLINE
8
CUT
66
1
70
0
0
VERTEX
8
CUT
10
96.7239
20
0
0
VERTEX
8
CUT
10
93.4641
20
5.6462
0
VERTEX
8
CUT
10
103.5359
20
5.6462
0
SEQEND
0
POLYLINE
8
CUT
66
1
70
0
0
VERTEX
8
CUT
10
97.8786
20
0
0
VERTEX
8
CUT
10
95.1962
20
4.6462
0
VERTEX
8
CUT
10
102.8038
20
4.6462
0
VERTEX
8
CUT
10
100.1214
20
0
0
SEQEND
0
POLYLINE
8
CUT
66
1
70
0
0
VERTEX
8
CUT
10
97.9282
20
3.6462
0
VERTEX
8
CUT
10
101.0718
20
3.6462
0
VERTEX
8
CUT
10
99
20
0.0577
0
VERTEX
8
CUT
10
97.4282
20
2.7801
0
SEQEND
0
POLYLINE
8
CUT
66
1
70
0
0
VERTEX
8
CUT
10
111.2598
20
0
0
VERTEX
8
CUT
10
108
20
5.6462
0
VERTEX
8
CUT
10
104.7402
20
0
0
SEQEND
0
POLYLINE
8
CUT
66
1
70
0
0
VERTEX
8
CUT
10
110.1051
20
0
0
VERTEX
8
CUT
10
108
20
3.6462
0
VERTEX
8
CUT
10
105.8949
20
0
0
SEQEND
0
LINE
8
CUT
10
107.5
20
0.7801
11
107.0496
21
0
0
LINE
8
CUT
10
108.9504
20
0
11
108.5
21
0.7801
0
LINE
8
CUT
10
109
20
7.6462
11
120
21
7.6462
0
LINE
8
CUT
10
108.5
20
6.7801
11
112.4145
21
0
0
LINE
8
CUT
10
110.7321
20
6.6462
11
120
21
6.6462
0
LINE
8
CUT
10
113.5692
20
0
11
110.2321
21
5.7801
0
LINE
8
CUT
10
120
20
1.2539
11
119.2761
21
0
0
POLYLINE
8
CUT
66
1
70
0
0
VERTEX
8
CUT
10
114.7239
20
0
0
VERTEX
8
CUT
10
111.4641
20
5.6462
0
VERTEX
8
CUT
10
120
20
5.6462
0
SEQEND
0
POLYLINE
8
CUT
66
1
70
0
0
VERTEX
8
CUT
10
115.8786
20
0
0
VERTEX
8
CUT
10
113.1962
20
4.6462
0
VERTEX
8
CUT
10
120
20
4.6462
0
SEQEND
0
LINE
8
CUT
10
120
20
3.2539
11
118.1214
21
0
0
POLYLINE
8
CUT
66
1
70
0
0
VERTEX
8
CUT
10
115.9282
20
3.6462
0
VERTEX
8
CUT
10
119.0718
20
3.6462
0
VERTEX
8
CUT
10
117
20
0.0577
0
VERTEX
8
CUT
10
115.4282
20
2.7801
0
SEQEND
0
POLYLINE
8
CUT
66
1
70
0
0
VERTEX
8
CUT
10
0
20
70
0
VERTEX
8
CUT
10
120
20
70
0
VERTEX
8
CUT
10
120
20
0
0
VERTEX
8
CUT
10
0
20
0
0
VERTEX
8
CUT
10
0
20
70
0
SEQEND
0
ENDSEC
0
EOF
