0
SECTION
2
HEADER
9
$ACADVER
1
AC1009
9
$INSUNITS
70
4
0
ENDSEC
0
SECTION
2
TABLES
0
TABLE
2
LAYER
70
1
0
LAYER
2
CUT
70
0
62
1
6
CONTINUOUS
0
ENDTAB
0
ENDSEC
0
SECTION
2
ENTITIES
0
LINE
8
CUT
10
6
20
70
11
6
21
63
0
LINE
8
CUT
10
6
20
60
11
6
21
46
0
LINE
8
CUT
10
6
20
43
11
6
21
29
0
LINE
8
CUT
10
6
20
26
11
6
21
12
0
LINE
8
CUT
10
6
20
9
11
6
21
0
0
LINE
8
CUT
10
15
20
68.5
11
15
21
54.5
0
LINE
8
CUT
10
15
20
51.5
11
15
21
37.5
0
LINE
8
CUT
10
15
20
34.5
11
15
21
20.5
0
LINE
8
CUT
10
15
20
17.5
11
15
21
3.5
0
LINE
8
CUT
10
15
20
0.5
11
15
21
0
0
LINE
8
CUT
10
24
20
70
11
24
21
63
0
LINE
8
CUT
10
24
20
60
11
24
21
46
0
LINE
8
CUT
10
24
20
43
11
24
21
29
0
LINE
8
CUT
10
24
20
26
11
24
21
12
0
LINE
8
CUT
10
24
20
9
11
24
21
0
0
LINE
8
CUT
10
33
20
68.5
11
33
21
54.5
0
LINE
8
CUT
10
33
20
51.5
11
33
21
37.5
0
LINE
8
CUT
10
33
20
34.5
11
33
21
20.5
0
LINE
8
CUT
10
33
20
17.5
11
33
21
3.5
0
LINE
8
CUT
10
33
20
0.5
11
33
21
0
0
LINE
8
CUT
10
42
20
70
11
42
21
63
0
LINE
8
CUT
10
42
20
60
11
42
21
46
0
LINE
8
CUT
10
42
20
43
11
42
21
29
0
LINE
8
CUT
10
42
20
26
11
42
21
12
0
LINE
8
CUT
10
42
20
9
11
42
21
0
0
LINE
8
CUT
10
51
20
68.5
11
51
21
54.5
0
LINE
8
CUT
10
51
20
51.5
11
51
21
37.5
0
LINE
8
CUT
10
51
20
34.5
11
51
21
20.5
0
LINE
8
CUT
10
51
20
17.5
11
51
21
3.5
0
LINE
8
CUT
10
51
20
0.5
11
51
21
0
0
LINE
8
CUT
10
60
20
70
11
60
21
63
0
LINE
8
CUT
10
60
20
60
11
60
21
46
0
LINE
8
CUT
10
60
20
43
11
60
21
29
0
LINE
8
CUT
10
60
20
26
11
60
21
12
0
LINE
8
CUT
10
60
20
9
11
60
21
0
0
LINE
8
CUT
10
69
20
68.5
11
69
21
54.5
0
LINE
8
CUT
10
69
20
51.5
11
69
21
37.5
0
LINE
8
CUT
10
69
20
34.5
11
69
21
20.5
0
LINE
8
CUT
10
69
20
17.5
11
69
21
3.5
0
LINE
8
CUT
10
69
20
0.5
11
69
21
0
0
LINE
8
CUT
10
78
20
70
11
78
21
63
0
LINE
8
CUT
10
78
20
60
11
78
21
46
0
LINE
8
CUT
10
78
20
43
11
78
21
29
0
LINE
8
CUT
10
78
20
26
11
78
21
12
0
LINE
8
CUT
10
78
20
9
11
78
21
0
0
LINE
8
CUT
10
87
20
68.5
11
87
21
54.5
0
LINE
8
CUT
10
87
20
51.5
11
87
21
37.5
0
LINE
8
CUT
10
87
20
34.5
11
87
21
20.5
0
LINE
8
CUT
10
87
20
17.5
11
87
21
3.5
0
LINE
8
CUT
10
87
20
0.5
11
87
21
0
0
LINE
8
CUT
10
96
20
70
11
96
21
63
0
LINE
8
CUT
10
96
20
60
11
96
21
46
0
LINE
8
CUT
10
96
20
43
11
96
21
29
0
LINE
8
CUT
10
96
20
26
11
96
21
12
0
LINE
8
CUT
10
96
20
9
11
96
21
0
0
LINE
8
CUT
10
105
20
68.5
11
105
21
54.5
0
LINE
8
CUT
10
105
20
51.5
11
105
21
37.5
0
LINE
8
CUT
10
105
20
34.5
11
105
21
20.5
0
LINE
8
CUT
10
105
20
17.5
11
105
21
3.5
0
LINE
8
CUT
10
105
20
0.5
11
105
21
0
0
LINE
8
CUT
10
114
20
70
11
114
21
63
0
LINE
8
CUT
10
114
20
60
11
114
21
46
0
LINE
8
CUT
10
114
20
43
11
114
21
29
0
LINE
8
CUT
10
114
20
26
11
114
21
12
0
LINE
8
CUT
10
114
20
9
11
114
21
0
0
POLYLINE
8
CUT
66
1
70
0
0
VERTEX
8
CUT
10
0
20
70
0
VERTEX
8
CUT
10
120
20
70
0
VERTEX
8
CUT
10
120
20
0
0
VERTEX
8
CUT
10
0
20
0
0
VERTEX
8
CUT
10
0
20
70
0
SEQEND
0
ENDSEC
0
EOF
