0
SECTION
2
HEADER
9
$ACADVER
1
AC1009
9
$INSUNITS
70
4
0
ENDSEC
0
SECTION
2
TABLES
0
TABLE
2
LAYER
70
1
0
LAYER
2
CUT
70
0
62
1
6
CONTINUOUS
0
ENDTAB
0
ENDSEC
0
SECTION
2
ENTITIES
0
POLYLINE
8
CUT
66
1
70
0
0
VERTEX
8
CUT
10
0
20
70
0
VERTEX
8
CUT
10
4.2857
20
70
0
VERTEX
8
CUT
10
4.2857
20
65.7143
0
VERTEX
8
CUT
10
1.4286
20
65.7143
0
VERTEX
8
CUT
10
1.4286
20
68.5714
0
VERTEX
8
CUT
10
2.8571
20
68.5714
0
VERTEX
8
CUT
10
2.8571
20
67.1429
0
SEQEND
0
POLYLINE
8
CUT
66
1
70
0
0
VERTEX
8
CUT
10
5
20
65
0
VERTEX
8
CUT
10
0.7143
20
65
0
VERTEX
8
CUT
10
0.7143
20
69.2857
0
VERTEX
8
CUT
10
3.5714
20
69.2857
0
VERTEX
8
CUT
10
3.5714
20
66.4286
0
VERTEX
8
CUT
10
2.1429
20
66.4286
0
VERTEX
8
CUT
10
2.1429
20
67.8571
0
SEQEND
0
POLYLINE
8
CUT
66
1
70
0
0
VERTEX
8
CUT
10
10
20
70
0
VERTEX
8
CUT
10
10
20
65.7143
0
VERTEX
8
CUT
10
5.7143
20
65.7143
0
VERTEX
8
CUT
10
5.7143
20
68.5714
0
VERTEX
8
CUT
10
8.5714
20
68.5714
0
VERTEX
8
CUT
10
8.5714
20
67.1429
0
VERTEX
8
CUT
10
7.1429
20
67.1429
0
SEQEND
0
POLYLINE
8
CUT
66
1
70
0
0
VERTEX
8
CUT
10
5
20
65
0
VERTEX
8
CUT
10
5
20
69.2857
0
VERTEX
8
CUT
10
9.2857
20
69.2857
0
VERTEX
8
CUT
10
9.2857
20
66.4286
0
VERTEX
8
CUT
10
6.4286
20
66.4286
0
VERTEX
8
CUT
10
6.4286
20
67.8571
0
VERTEX
8
CUT
10
7.8571
20
67.8571
0
SEQEND
0
POLYLINE
8
CUT
66
1
70
0
0
VERTEX
8
CUT
10
10
20
70
0
VERTEX
8
CUT
10
14.2857
20
70
0
VERTEX
8
CUT
10
14.2857
20
65.7143
0
VERTEX
8
CUT
10
11.4286
20
65.7143
0
VERTEX
8
CUT
10
11.4286
20
68.5714
0
VERTEX
8
CUT
10
12.8571
20
68.5714
0
VERTEX
8
CUT
10
12.8571
20
67.1429
0
SEQEND
0
POLYLINE
8
CUT
66
1
70
0
0
VERTEX
8
CUT
10
15
20
65
0
VERTEX
8
CUT
10
10.7143
20
65
0
VERTEX
8
CUT
10
10.7143
20
69.2857
0
VERTEX
8
CUT
10
13.5714
20
69.2857
0
VERTEX
8
CUT
10
13.5714
20
66.4286
0
VERTEX
8
CUT
10
12.1429
20
66.4286
0
VERTEX
8
CUT
10
12.1429
20
67.8571
0
SEQEND
0
POLYLINE
8
CUT
66
1
70
0
0
VERTEX
8
CUT
10
20
20
70
0
VERTEX
8
CUT
10
20
20
65.7143
0
VERTEX
8
CUT
10
15.7143
20
65.7143
0
VERTEX
8
CUT
10
15.7143
20
68.5714
0
VERTEX
8
CUT
10
18.5714
20
68.5714
0
VERTEX
8
CUT
10
18.5714
20
67.1429
0
VERTEX
8
CUT
10
17.1429
20
67.1429
0
SEQEND
0
POLYLINE
8
CUT
66
1
70
0
0
VERTEX
8
CUT
10
15
20
65
0
VERTEX
8
CUT
10
15
20
69.2857
0
VERTEX
8
CUT
10
19.2857
20
69.2857
0
VERTEX
8
CUT
10
19.2857
20
66.4286
0
VERTEX
8
CUT
10
16.4286
20
66.4286
0
VERTEX
8
CUT
10
16.4286
20
67.8571
0
VERTEX
8
CUT
10
17.8571
20
67.8571
0
SEQEND
0
POLYLINE
8
CUT
66
1
70
0
0
VERTEX
8
CUT
10
20
20
70
0
VERTEX
8
CUT
10
24.2857
20
70
0
VERTEX
8
CUT
10
24.2857
20
65.7143
0
VERTEX
8
CUT
10
21.4286
20
65.7143
0
VERTEX
8
CUT
10
21.4286
20
68.5714
0
VERTEX
8
CUT
10
22.8571
20
68.5714
0
VERTEX
8
CUT
10
22.8571
20
67.1429
0
SEQEND
0
POLYLINE
8
CUT
66
1
70
0
0
VERTEX
8
CUT
10
25
20
65
0
VERTEX
8
CUT
10
20.7143
20
65
0
VERTEX
8
CUT
10
20.7143
20
69.2857
0
VERTEX
8
CUT
10
23.5714
20
69.2857
0
VERTEX
8
CUT
10
23.5714
20
66.4286
0
VERTEX
8
CUT
10
22.1429
20
66.4286
0
VERTEX
8
CUT
10
22.1429
20
67.8571
0
SEQEND
0
POLYLINE
8
CUT
66
1
70
0
0
VERTEX
8
CUT
10
30
20
70
0
VERTEX
8
CUT
10
30
20
65.7143
0
VERTEX
8
CUT
10
25.7143
20
65.7143
0
VERTEX
8
CUT
10
25.7143
20
68.5714
0
VERTEX
8
CUT
10
28.5714
20
68.5714
0
VERTEX
8
CUT
10
28.5714
20
67.1429
0
VERTEX
8
CUT
10
27.1429
20
67.1429
0
SEQEND
0
POLYLINE
8
CUT
66
1
70
0
0
VERTEX
8
CUT
10
25
20
65
0
VERTEX
8
CUT
10
25
20
69.2857
0
VERTEX
8
CUT
10
29.2857
20
69.2857
0
VERTEX
8
CUT
10
29.2857
20
66.4286
0
VERTEX
8
CUT
10
26.4286
20
66.4286
0
VERTEX
8
CUT
10
26.4286
20
67.8571
0
VERTEX
8
CUT
10
27.8571
20
67.8571
0
SEQEND
0
POLYLINE
8
CUT
66
1
70
0
0
VERTEX
8
CUT
10
30
20
70
0
VERTEX
8
CUT
10
34.2857
20
70
0
VERTEX
8
CUT
10
34.2857
20
65.7143
0
VERTEX
8
CUT
10
31.4286
20
65.7143
0
VERTEX
8
CUT
10
31.4286
20
68.5714
0
VERTEX
8
CUT
10
32.8571
20
68.5714
0
VERTEX
8
CUT
10
32.8571
20
67.1429
0
SEQEND
0
POLYLINE
8
CUT
66
1
70
0
0
VERTEX
8
CUT
10
35
20
65
0
VERTEX
8
CUT
10
30.7143
20
65
0
VERTEX
8
CUT
10
30.7143
20
69.2857
0
VERTEX
8
CUT
10
33.5714
20
69.2857
0
VERTEX
8
CUT
10
33.5714
20
66.4286
0
VERTEX
8
CUT
10
32.1429
20
66.4286
0
VERTEX
8
CUT
10
32.1429
20
67.8571
0
SEQEND
0
POLYLINE
8
CUT
66
1
70
0
0
VERTEX
8
CUT
10
40
20
70
0
VERTEX
8
CUT
10
40
20
65.7143
0
VERTEX
8
CUT
10
35.7143
20
65.7143
0
VERTEX
8
CUT
10
35.7143
20
68.5714
0
VERTEX
8
CUT
10
38.5714
20
68.5714
0
VERTEX
8
CUT
10
38.5714
20
67.1429
0
VERTEX
8
CUT
10
37.1429
20
67.1429
0
SEQEND
0
POLYLINE
8
CUT
66
1
70
0
0
VERTEX
8
CUT
10
35
20
65
0
VERTEX
8
CUT
10
35
20
69.2857
0
VERTEX
8
CUT
10
39.2857
20
69.2857
0
VERTEX
8
CUT
10
39.2857
20
66.4286
0
VERTEX
8
CUT
10
36.4286
20
66.4286
0
VERTEX
8
CUT
10
36.4286
20
67.8571
0
VERTEX
8
CUT
10
37.8571
20
67.8571
0
SEQEND
0
POLYLINE
8
CUT
66
1
70
0
0
VERTEX
8
CUT
10
40
20
70
0
VERTEX
8
CUT
10
44.2857
20
70
0
VERTEX
8
CUT
10
44.2857
20
65.7143
0
VERTEX
8
CUT
10
41.4286
20
65.7143
0
VERTEX
8
CUT
10
41.4286
20
68.5714
0
VERTEX
8
CUT
10
42.8571
20
68.5714
0
VERTEX
8
CUT
10
42.8571
20
67.1429
0
SEQEND
0
POLYLINE
8
CUT
66
1
70
0
0
VERTEX
8
CUT
10
45
20
65
0
VERTEX
8
CUT
10
40.7143
20
65
0
VERTEX
8
CUT
10
40.7143
20
69.2857
0
VERTEX
8
CUT
10
43.5714
20
69.2857
0
VERTEX
8
CUT
10
43.5714
20
66.4286
0
VERTEX
8
CUT
10
42.1429
20
66.4286
0
VERTEX
8
CUT
10
42.1429
20
67.8571
0
SEQEND
0
POLYLINE
8
CUT
66
1
70
0
0
VERTEX
8
CUT
10
50
20
70
0
VERTEX
8
CUT
10
50
20
65.7143
0
VERTEX
8
CUT
10
45.7143
20
65.7143
0
VERTEX
8
CUT
10
45.7143
20
68.5714
0
VERTEX
8
CUT
10
48.5714
20
68.5714
0
VERTEX
8
CUT
10
48.5714
20
67.1429
0
VERTEX
8
CUT
10
47.1429
20
67.1429
0
SEQEND
0
POLYLINE
8
CUT
66
1
70
0
0
VERTEX
8
CUT
10
45
20
65
0
VERTEX
8
CUT
10
45
20
69.2857
0
VERTEX
8
CUT
10
49.2857
20
69.2857
0
VERTEX
8
CUT
10
49.2857
20
66.4286
0
VERTEX
8
CUT
10
46.4286
20
66.4286
0
VERTEX
8
CUT
10
46.4286
20
67.8571
0
VERTEX
8
CUT
10
47.8571
20
67.8571
0
SEQEND
0
POLYLINE
8
CUT
66
1
70
0
0
VERTEX
8
CUT
10
50
20
70
0
VERTEX
8
CUT
10
54.2857
20
70
0
VERTEX
8
CUT
10
54.2857
20
65.7143
0
VERTEX
8
CUT
10
51.4286
20
65.7143
0
VERTEX
8
CUT
10
51.4286
20
68.5714
0
VERTEX
8
CUT
10
52.8571
20
68.5714
0
VERTEX
8
CUT
10
52.8571
20
67.1429
0
SEQEND
0
POLYLINE
8
CUT
66
1
70
0
0
VERTEX
8
CUT
10
55
20
65
0
VERTEX
8
CUT
10
50.7143
20
65
0
VERTEX
8
CUT
10
50.7143
20
69.2857
0
VERTEX
8
CUT
10
53.5714
20
69.2857
0
VERTEX
8
CUT
10
53.5714
20
66.4286
0
VERTEX
8
CUT
10
52.1429
20
66.4286
0
VERTEX
8
CUT
10
52.1429
20
67.8571
0
SEQEND
0
POLYLINE
8
CUT
66
1
70
0
0
VERTEX
8
CUT
10
60
20
70
0
VERTEX
8
CUT
10
60
20
65.7143
0
VERTEX
8
CUT
10
55.7143
20
65.7143
0
VERTEX
8
CUT
10
55.7143
20
68.5714
0
VERTEX
8
CUT
10
58.5714
20
68.5714
0
VERTEX
8
CUT
10
58.5714
20
67.1429
0
VERTEX
8
CUT
10
57.1429
20
67.1429
0
SEQEND
0
POLYLINE
8
CUT
66
1
70
0
0
VERTEX
8
CUT
10
55
20
65
0
VERTEX
8
CUT
10
55
20
69.2857
0
VERTEX
8
CUT
10
59.2857
20
69.2857
0
VERTEX
8
CUT
10
59.2857
20
66.4286
0
VERTEX
8
CUT
10
56.4286
20
66.4286
0
VERTEX
8
CUT
10
56.4286
20
67.8571
0
VERTEX
8
CUT
10
57.8571
20
67.8571
0
SEQEND
0
POLYLINE
8
CUT
66
1
70
0
0
VERTEX
8
CUT
10
60
20
70
0
VERTEX
8
CUT
10
64.2857
20
70
0
VERTEX
8
CUT
10
64.2857
20
65.7143
0
VERTEX
8
CUT
10
61.4286
20
65.7143
0
VERTEX
8
CUT
10
61.4286
20
68.5714
0
VERTEX
8
CUT
10
62.8571
20
68.5714
0
VERTEX
8
CUT
10
62.8571
20
67.1429
0
SEQEND
0
POLYLINE
8
CUT
66
1
70
0
0
VERTEX
8
CUT
10
65
20
65
0
VERTEX
8
CUT
10
60.7143
20
65
0
VERTEX
8
CUT
10
60.7143
20
69.2857
0
VERTEX
8
CUT
10
63.5714
20
69.2857
0
VERTEX
8
CUT
10
63.5714
20
66.4286
0
VERTEX
8
CUT
10
62.1429
20
66.4286
0
VERTEX
8
CUT
10
62.1429
20
67.8571
0
SEQEND
0
POLYLINE
8
CUT
66
1
70
0
0
VERTEX
8
CUT
10
70
20
70
0
VERTEX
8
CUT
10
70
20
65.7143
0
VERTEX
8
CUT
10
65.7143
20
65.7143
0
VERTEX
8
CUT
10
65.7143
20
68.5714
0
VERTEX
8
CUT
10
68.5714
20
68.5714
0
VERTEX
8
CUT
10
68.5714
20
67.1429
0
VERTEX
8
CUT
10
67.1429
20
67.1429
0
SEQEND
0
POLYLINE
8
CUT
66
1
70
0
0
VERTEX
8
CUT
10
65
20
65
0
VERTEX
8
CUT
10
65
20
69.2857
0
VERTEX
8
CUT
10
69.2857
20
69.2857
0
VERTEX
8
CUT
10
69.2857
20
66.4286
0
VERTEX
8
CUT
10
66.4286
20
66.4286
0
VERTEX
8
CUT
10
66.4286
20
67.8571
0
VERTEX
8
CUT
10
67.8571
20
67.8571
0
SEQEND
0
POLYLINE
8
CUT
66
1
70
0
0
VERTEX
8
CUT
10
70
20
70
0
VERTEX
8
CUT
10
74.2857
20
70
0
VERTEX
8
CUT
10
74.2857
20
65.7143
0
VERTEX
8
CUT
10
71.4286
20
65.7143
0
VERTEX
8
CUT
10
71.4286
20
68.5714
0
VERTEX
8
CUT
10
72.8571
20
68.5714
0
VERTEX
8
CUT
10
72.8571
20
67.1429
0
SEQEND
0
POLYLINE
8
CUT
66
1
70
0
0
VERTEX
8
CUT
10
75
20
65
0
VERTEX
8
CUT
10
70.7143
20
65
0
VERTEX
8
CUT
10
70.7143
20
69.2857
0
VERTEX
8
CUT
10
73.5714
20
69.2857
0
VERTEX
8
CUT
10
73.5714
20
66.4286
0
VERTEX
8
CUT
10
72.1429
20
66.4286
0
VERTEX
8
CUT
10
72.1429
20
67.8571
0
SEQEND
0
POLYLINE
8
CUT
66
1
70
0
0
VERTEX
8
CUT
10
80
20
70
0
VERTEX
8
CUT
10
80
20
65.7143
0
VERTEX
8
CUT
10
75.7143
20
65.7143
0
VERTEX
8
CUT
10
75.7143
20
68.5714
0
VERTEX
8
CUT
10
78.5714
20
68.5714
0
VERTEX
8
CUT
10
78.5714
20
67.1429
0
VERTEX
8
CUT
10
77.1429
20
67.1429
0
SEQEND
0
POLYLINE
8
CUT
66
1
70
0
0
VERTEX
8
CUT
10
75
20
65
0
VERTEX
8
CUT
10
75
20
69.2857
0
VERTEX
8
CUT
10
79.2857
20
69.2857
0
VERTEX
8
CUT
10
79.2857
20
66.4286
0
VERTEX
8
CUT
10
76.4286
20
66.4286
0
VERTEX
8
CUT
10
76.4286
20
67.8571
0
VERTEX
8
CUT
10
77.8571
20
67.8571
0
SEQEND
0
POLYLINE
8
CUT
66
1
70
0
0
VERTEX
8
CUT
10
80
20
70
0
VERTEX
8
CUT
10
84.2857
20
70
0
VERTEX
8
CUT
10
84.2857
20
65.7143
0
VERTEX
8
CUT
10
81.4286
20
65.7143
0
VERTEX
8
CUT
10
81.4286
20
68.5714
0
VERTEX
8
CUT
10
82.8571
20
68.5714
0
VERTEX
8
CUT
10
82.8571
20
67.1429
0
SEQEND
0
POLYLINE
8
CUT
66
1
70
0
0
VERTEX
8
CUT
10
85
20
65
0
VERTEX
8
CUT
10
80.7143
20
65
0
VERTEX
8
CUT
10
80.7143
20
69.2857
0
VERTEX
8
CUT
10
83.5714
20
69.2857
0
VERTEX
8
CUT
10
83.5714
20
66.4286
0
VERTEX
8
CUT
10
82.1429
20
66.4286
0
VERTEX
8
CUT
10
82.1429
20
67.8571
0
SEQEND
0
POLYLINE
8
CUT
66
1
70
0
0
VERTEX
8
CUT
10
90
20
70
0
VERTEX
8
CUT
10
90
20
65.7143
0
VERTEX
8
CUT
10
85.7143
20
65.7143
0
VERTEX
8
CUT
10
85.7143
20
68.5714
0
VERTEX
8
CUT
10
88.5714
20
68.5714
0
VERTEX
8
CUT
10
88.5714
20
67.1429
0
VERTEX
8
CUT
10
87.1429
20
67.1429
0
SEQEND
0
POLYLINE
8
CUT
66
1
70
0
0
VERTEX
8
CUT
10
85
20
65
0
VERTEX
8
CUT
10
85
20
69.2857
0
VERTEX
8
CUT
10
89.2857
20
69.2857
0
VERTEX
8
CUT
10
89.2857
20
66.4286
0
VERTEX
8
CUT
10
86.4286
20
66.4286
0
VERTEX
8
CUT
10
86.4286
20
67.8571
0
VERTEX
8
CUT
10
87.8571
20
67.8571
0
SEQEND
0
POLYLINE
8
CUT
66
1
70
0
0
VERTEX
8
CUT
10
90
20
70
0
VERTEX
8
CUT
10
94.2857
20
70
0
VERTEX
8
CUT
10
94.2857
20
65.7143
0
VERTEX
8
CUT
10
91.4286
20
65.7143
0
VERTEX
8
CUT
10
91.4286
20
68.5714
0
VERTEX
8
CUT
10
92.8571
20
68.5714
0
VERTEX
8
CUT
10
92.8571
20
67.1429
0
SEQEND
0
POLYLINE
8
CUT
66
1
70
0
0
VERTEX
8
CUT
10
95
20
65
0
VERTEX
8
CUT
10
90.7143
20
65
0
VERTEX
8
CUT
10
90.7143
20
69.2857
0
VERTEX
8
CUT
10
93.5714
20
69.2857
0
VERTEX
8
CUT
10
93.5714
20
66.4286
0
VERTEX
8
CUT
10
92.1429
20
66.4286
0
VERTEX
8
CUT
10
92.1429
20
67.8571
0
SEQEND
0
POLYLINE
8
CUT
66
1
70
0
0
VERTEX
8
CUT
10
100
20
70
0
VERTEX
8
CUT
10
100
20
65.7143
0
VERTEX
8
CUT
10
95.7143
20
65.7143
0
VERTEX
8
CUT
10
95.7143
20
68.5714
0
VERTEX
8
CUT
10
98.5714
20
68.5714
0
VERTEX
8
CUT
10
98.5714
20
67.1429
0
VERTEX
8
CUT
10
97.1429
20
67.1429
0
SEQEND
0
POLYLINE
8
CUT
66
1
70
0
0
VERTEX
8
CUT
10
95
20
65
0
VERTEX
8
CUT
10
95
20
69.2857
0
VERTEX
8
CUT
10
99.2857
20
69.2857
0
VERTEX
8
CUT
10
99.2857
20
66.4286
0
VERTEX
8
CUT
10
96.4286
20
66.4286
0
VERTEX
8
CUT
10
96.4286
20
67.8571
0
VERTEX
8
CUT
10
97.8571
20
67.8571
0
SEQEND
0
POLYLINE
8
CUT
66
1
70
0
0
VERTEX
8
CUT
10
100
20
70
0
VERTEX
8
CUT
10
104.2857
20
70
0
VERTEX
8
CUT
10
104.2857
20
65.7143
0
VERTEX
8
CUT
10
101.4286
20
65.7143
0
VERTEX
8
CUT
10
101.4286
20
68.5714
0
VERTEX
8
CUT
10
102.8571
20
68.5714
0
VERTEX
8
CUT
10
102.8571
20
67.1429
0
SEQEND
0
POLYLINE
8
CUT
66
1
70
0
0
VERTEX
8
CUT
10
105
20
65
0
VERTEX
8
CUT
10
100.7143
20
65
0
VERTEX
8
CUT
10
100.7143
20
69.2857
0
VERTEX
8
CUT
10
103.5714
20
69.2857
0
VERTEX
8
CUT
10
103.5714
20
66.4286
0
VERTEX
8
CUT
10
102.1429
20
66.4286
0
VERTEX
8
CUT
10
102.1429
20
67.8571
0
SEQEND
0
POLYLINE
8
CUT
66
1
70
0
0
VERTEX
8
CUT
10
110
20
70
0
VERTEX
8
CUT
10
110
20
65.7143
0
VERTEX
8
CUT
10
105.7143
20
65.7143
0
VERTEX
8
CUT
10
105.7143
20
68.5714
0
VERTEX
8
CUT
10
108.5714
20
68.5714
0
VERTEX
8
CUT
10
108.5714
20
67.1429
0
VERTEX
8
CUT
10
107.1429
20
67.1429
0
SEQEND
0
POLYLINE
8
CUT
66
1
70
0
0
VERTEX
8
CUT
10
105
20
65
0
VERTEX
8
CUT
10
105
20
69.2857
0
VERTEX
8
CUT
10
109.2857
20
69.2857
0
VERTEX
8
CUT
10
109.2857
20
66.4286
0
VERTEX
8
CUT
10
106.4286
20
66.4286
0
VERTEX
8
CUT
10
106.4286
20
67.8571
0
VERTEX
8
CUT
10
107.8571
20
67.8571
0
SEQEND
0
POLYLINE
8
CUT
66
1
70
0
0
VERTEX
8
CUT
10
110
20
70
0
VERTEX
8
CUT
10
114.2857
20
70
0
VERTEX
8
CUT
10
114.2857
20
65.7143
0
VERTEX
8
CUT
10
111.4286
20
65.7143
0
VERTEX
8
CUT
10
111.4286
20
68.5714
0
VERTEX
8
CUT
10
112.8571
20
68.5714
0
VERTEX
8
CUT
10
112.8571
20
67.1429
0
SEQEND
0
POLYLINE
8
CUT
66
1
70
0
0
VERTEX
8
CUT
10
115
20
65
0
VERTEX
8
CUT
10
110.7143
20
65
0
VERTEX
8
CUT
10
110.7143
20
69.2857
0
VERTEX
8
CUT
10
113.5714
20
69.2857
0
VERTEX
8
CUT
10
113.5714
20
66.4286
0
VERTEX
8
CUT
10
112.1429
20
66.4286
0
VERTEX
8
CUT
10
112.1429
20
67.8571
0
SEQEND
0
POLYLINE
8
CUT
66
1
70
0
0
VERTEX
8
CUT
10
120
20
70
0
VERTEX
8
CUT
10
120
20
65.7143
0
VERTEX
8
CUT
10
115.7143
20
65.7143
0
VERTEX
8
CUT
10
115.7143
20
68.5714
0
VERTEX
8
CUT
10
118.5714
20
68.5714
0
VERTEX
8
CUT
10
118.5714
20
67.1429
0
VERTEX
8
CUT
10
117.1429
20
67.1429
0
SEQEND
0
POLYLINE
8
CUT
66
1
70
0
0
VERTEX
8
CUT
10
115
20
65
0
VERTEX
8
CUT
10
115
20
69.2857
0
VERTEX
8
CUT
10
119.2857
20
69.2857
0
VERTEX
8
CUT
10
119.2857
20
66.4286
0
VERTEX
8
CUT
10
116.4286
20
66.4286
0
VERTEX
8
CUT
10
116.4286
20
67.8571
0
VERTEX
8
CUT
10
117.8571
20
67.8571
0
SEQEND
0
POLYLINE
8
CUT
66
1
70
0
0
VERTEX
8
CUT
10
5
20
65
0
VERTEX
8
CUT
10
5
20
60.7143
0
VERTEX
8
CUT
10
0.7143
20
60.7143
0
VERTEX
8
CUT
10
0.7143
20
63.5714
0
VERTEX
8
CUT
10
3.5714
20
63.5714
0
VERTEX
8
CUT
10
3.5714
20
62.1429
0
VERTEX
8
CUT
10
2.1429
20
62.1429
0
SEQEND
0
POLYLINE
8
CUT
66
1
70
0
0
VERTEX
8
CUT
10
0
20
60
0
VERTEX
8
CUT
10
0
20
64.2857
0
VERTEX
8
CUT
10
4.2857
20
64.2857
0
VERTEX
8
CUT
10
4.2857
20
61.4286
0
VERTEX
8
CUT
10
1.4286
20
61.4286
0
VERTEX
8
CUT
10
1.4286
20
62.8571
0
VERTEX
8
CUT
10
2.8571
20
62.8571
0
SEQEND
0
POLYLINE
8
CUT
66
1
70
0
0
VERTEX
8
CUT
10
5
20
65
0
VERTEX
8
CUT
10
9.2857
20
65
0
VERTEX
8
CUT
10
9.2857
20
60.7143
0
VERTEX
8
CUT
10
6.4286
20
60.7143
0
VERTEX
8
CUT
10
6.4286
20
63.5714
0
VERTEX
8
CUT
10
7.8571
20
63.5714
0
VERTEX
8
CUT
10
7.8571
20
62.1429
0
SEQEND
0
POLYLINE
8
CUT
66
1
70
0
0
VERTEX
8
CUT
10
10
20
60
0
VERTEX
8
CUT
10
5.7143
20
60
0
VERTEX
8
CUT
10
5.7143
20
64.2857
0
VERTEX
8
CUT
10
8.5714
20
64.2857
0
VERTEX
8
CUT
10
8.5714
20
61.4286
0
VERTEX
8
CUT
10
7.1429
20
61.4286
0
VERTEX
8
CUT
10
7.1429
20
62.8571
0
SEQEND
0
POLYLINE
8
CUT
66
1
70
0
0
VERTEX
8
CUT
10
15
20
65
0
VERTEX
8
CUT
10
15
20
60.7143
0
VERTEX
8
CUT
10
10.7143
20
60.7143
0
VERTEX
8
CUT
10
10.7143
20
63.5714
0
VERTEX
8
CUT
10
13.5714
20
63.5714
0
VERTEX
8
CUT
10
13.5714
20
62.1429
0
VERTEX
8
CUT
10
12.1429
20
62.1429
0
SEQEND
0
POLYLINE
8
CUT
66
1
70
0
0
VERTEX
8
CUT
10
10
20
60
0
VERTEX
8
CUT
10
10
20
64.2857
0
VERTEX
8
CUT
10
14.2857
20
64.2857
0
VERTEX
8
CUT
10
14.2857
20
61.4286
0
VERTEX
8
CUT
10
11.4286
20
61.4286
0
VERTEX
8
CUT
10
11.4286
20
62.8571
0
VERTEX
8
CUT
10
12.8571
20
62.8571
0
SEQEND
0
POLYLINE
8
CUT
66
1
70
0
0
VERTEX
8
CUT
10
15
20
65
0
VERTEX
8
CUT
10
19.2857
20
65
0
VERTEX
8
CUT
10
19.2857
20
60.7143
0
VERTEX
8
CUT
10
16.4286
20
60.7143
0
VERTEX
8
CUT
10
16.4286
20
63.5714
0
VERTEX
8
CUT
10
17.8571
20
63.5714
0
VERTEX
8
CUT
10
17.8571
20
62.1429
0
SEQEND
0
POLYLINE
8
CUT
66
1
70
0
0
VERTEX
8
CUT
10
20
20
60
0
VERTEX
8
CUT
10
15.7143
20
60
0
VERTEX
8
CUT
10
15.7143
20
64.2857
0
VERTEX
8
CUT
10
18.5714
20
64.2857
0
VERTEX
8
CUT
10
18.5714
20
61.4286
0
VERTEX
8
CUT
10
17.1429
20
61.4286
0
VERTEX
8
CUT
10
17.1429
20
62.8571
0
SEQEND
0
POLYLINE
8
CUT
66
1
70
0
0
VERTEX
8
CUT
10
25
20
65
0
VERTEX
8
CUT
10
25
20
60.7143
0
VERTEX
8
CUT
10
20.7143
20
60.7143
0
VERTEX
8
CUT
10
20.7143
20
63.5714
0
VERTEX
8
CUT
10
23.5714
20
63.5714
0
VERTEX
8
CUT
10
23.5714
20
62.1429
0
VERTEX
8
CUT
10
22.1429
20
62.1429
0
SEQEND
0
POLYLINE
8
CUT
66
1
70
0
0
VERTEX
8
CUT
10
20
20
60
0
VERTEX
8
CUT
10
20
20
64.2857
0
VERTEX
8
CUT
10
24.2857
20
64.2857
0
VERTEX
8
CUT
10
24.2857
20
61.4286
0
VERTEX
8
CUT
10
21.4286
20
61.4286
0
VERTEX
8
CUT
10
21.4286
20
62.8571
0
VERTEX
8
CUT
10
22.8571
20
62.8571
0
SEQEND
0
POLYLINE
8
CUT
66
1
70
0
0
VERTEX
8
CUT
10
25
20
65
0
VERTEX
8
CUT
10
29.2857
20
65
0
VERTEX
8
CUT
10
29.2857
20
60.7143
0
VERTEX
8
CUT
10
26.4286
20
60.7143
0
VERTEX
8
CUT
10
26.4286
20
63.5714
0
VERTEX
8
CUT
10
27.8571
20
63.5714
0
VERTEX
8
CUT
10
27.8571
20
62.1429
0
SEQEND
0
POLYLINE
8
CUT
66
1
70
0
0
VERTEX
8
CUT
10
30
20
60
0
VERTEX
8
CUT
10
25.7143
20
60
0
VERTEX
8
CUT
10
25.7143
20
64.2857
0
VERTEX
8
CUT
10
28.5714
20
64.2857
0
VERTEX
8
CUT
10
28.5714
20
61.4286
0
VERTEX
8
CUT
10
27.1429
20
61.4286
0
VERTEX
8
CUT
10
27.1429
20
62.8571
0
SEQEND
0
POLYLINE
8
CUT
66
1
70
0
0
VERTEX
8
CUT
10
35
20
65
0
VERTEX
8
CUT
10
35
20
60.7143
0
VERTEX
8
CUT
10
30.7143
20
60.7143
0
VERTEX
8
CUT
10
30.7143
20
63.5714
0
VERTEX
8
CUT
10
33.5714
20
63.5714
0
VERTEX
8
CUT
10
33.5714
20
62.1429
0
VERTEX
8
CUT
10
32.1429
20
62.1429
0
SEQEND
0
POLYLINE
8
CUT
66
1
70
0
0
VERTEX
8
CUT
10
30
20
60
0
VERTEX
8
CUT
10
30
20
64.2857
0
VERTEX
8
CUT
10
34.2857
20
64.2857
0
VERTEX
8
CUT
10
34.2857
20
61.4286
0
VERTEX
8
CUT
10
31.4286
20
61.4286
0
VERTEX
8
CUT
10
31.4286
20
62.8571
0
VERTEX
8
CUT
10
32.8571
20
62.8571
0
SEQEND
0
POLYLINE
8
CUT
66
1
70
0
0
VERTEX
8
CUT
10
35
20
65
0
VERTEX
8
CUT
10
39.2857
20
65
0
VERTEX
8
CUT
10
39.2857
20
60.7143
0
VERTEX
8
CUT
10
36.4286
20
60.7143
0
VERTEX
8
CUT
10
36.4286
20
63.5714
0
VERTEX
8
CUT
10
37.8571
20
63.5714
0
VERTEX
8
CUT
10
37.8571
20
62.1429
0
SEQEND
0
POLYLINE
8
CUT
66
1
70
0
0
VERTEX
8
CUT
10
40
20
60
0
VERTEX
8
CUT
10
35.7143
20
60
0
VERTEX
8
CUT
10
35.7143
20
64.2857
0
VERTEX
8
CUT
10
38.5714
20
64.2857
0
VERTEX
8
CUT
10
38.5714
20
61.4286
0
VERTEX
8
CUT
10
37.1429
20
61.4286
0
VERTEX
8
CUT
10
37.1429
20
62.8571
0
SEQEND
0
POLYLINE
8
CUT
66
1
70
0
0
VERTEX
8
CUT
10
45
20
65
0
VERTEX
8
CUT
10
45
20
60.7143
0
VERTEX
8
CUT
10
40.7143
20
60.7143
0
VERTEX
8
CUT
10
40.7143
20
63.5714
0
VERTEX
8
CUT
10
43.5714
20
63.5714
0
VERTEX
8
CUT
10
43.5714
20
62.1429
0
VERTEX
8
CUT
10
42.1429
20
62.1429
0
SEQEND
0
POLYLINE
8
CUT
66
1
70
0
0
VERTEX
8
CUT
10
40
20
60
0
VERTEX
8
CUT
10
40
20
64.2857
0
VERTEX
8
CUT
10
44.2857
20
64.2857
0
VERTEX
8
CUT
10
44.2857
20
61.4286
0
VERTEX
8
CUT
10
41.4286
20
61.4286
0
VERTEX
8
CUT
10
41.4286
20
62.8571
0
VERTEX
8
CUT
10
42.8571
20
62.8571
0
SEQEND
0
POLYLINE
8
CUT
66
1
70
0
0
VERTEX
8
CUT
10
45
20
65
0
VERTEX
8
CUT
10
49.2857
20
65
0
VERTEX
8
CUT
10
49.2857
20
60.7143
0
VERTEX
8
CUT
10
46.4286
20
60.7143
0
VERTEX
8
CUT
10
46.4286
20
63.5714
0
VERTEX
8
CUT
10
47.8571
20
63.5714
0
VERTEX
8
CUT
10
47.8571
20
62.1429
0
SEQEND
0
POLYLINE
8
CUT
66
1
70
0
0
VERTEX
8
CUT
10
50
20
60
0
VERTEX
8
CUT
10
45.7143
20
60
0
VERTEX
8
CUT
10
45.7143
20
64.2857
0
VERTEX
8
CUT
10
48.5714
20
64.2857
0
VERTEX
8
CUT
10
48.5714
20
61.4286
0
VERTEX
8
CUT
10
47.1429
20
61.4286
0
VERTEX
8
CUT
10
47.1429
20
62.8571
0
SEQEND
0
POLYLINE
8
CUT
66
1
70
0
0
VERTEX
8
CUT
10
55
20
65
0
VERTEX
8
CUT
10
55
20
60.7143
0
VERTEX
8
CUT
10
50.7143
20
60.7143
0
VERTEX
8
CUT
10
50.7143
20
63.5714
0
VERTEX
8
CUT
10
53.5714
20
63.5714
0
VERTEX
8
CUT
10
53.5714
20
62.1429
0
VERTEX
8
CUT
10
52.1429
20
62.1429
0
SEQEND
0
POLYLINE
8
CUT
66
1
70
0
0
VERTEX
8
CUT
10
50
20
60
0
VERTEX
8
CUT
10
50
20
64.2857
0
VERTEX
8
CUT
10
54.2857
20
64.2857
0
VERTEX
8
CUT
10
54.2857
20
61.4286
0
VERTEX
8
CUT
10
51.4286
20
61.4286
0
VERTEX
8
CUT
10
51.4286
20
62.8571
0
VERTEX
8
CUT
10
52.8571
20
62.8571
0
SEQEND
0
POLYLINE
8
CUT
66
1
70
0
0
VERTEX
8
CUT
10
55
20
65
0
VERTEX
8
CUT
10
59.2857
20
65
0
VERTEX
8
CUT
10
59.2857
20
60.7143
0
VERTEX
8
CUT
10
56.4286
20
60.7143
0
VERTEX
8
CUT
10
56.4286
20
63.5714
0
VERTEX
8
CUT
10
57.8571
20
63.5714
0
VERTEX
8
CUT
10
57.8571
20
62.1429
0
SEQEND
0
POLYLINE
8
CUT
66
1
70
0
0
VERTEX
8
CUT
10
60
20
60
0
VERTEX
8
CUT
10
55.7143
20
60
0
VERTEX
8
CUT
10
55.7143
20
64.2857
0
VERTEX
8
CUT
10
58.5714
20
64.2857
0
VERTEX
8
CUT
10
58.5714
20
61.4286
0
VERTEX
8
CUT
10
57.1429
20
61.4286
0
VERTEX
8
CUT
10
57.1429
20
62.8571
0
SEQEND
0
POLYLINE
8
CUT
66
1
70
0
0
VERTEX
8
CUT
10
65
20
65
0
VERTEX
8
CUT
10
65
20
60.7143
0
VERTEX
8
CUT
10
60.7143
20
60.7143
0
VERTEX
8
CUT
10
60.7143
20
63.5714
0
VERTEX
8
CUT
10
63.5714
20
63.5714
0
VERTEX
8
CUT
10
63.5714
20
62.1429
0
VERTEX
8
CUT
10
62.1429
20
62.1429
0
SEQEND
0
POLYLINE
8
CUT
66
1
70
0
0
VERTEX
8
CUT
10
60
20
60
0
VERTEX
8
CUT
10
60
20
64.2857
0
VERTEX
8
CUT
10
64.2857
20
64.2857
0
VERTEX
8
CUT
10
64.2857
20
61.4286
0
VERTEX
8
CUT
10
61.4286
20
61.4286
0
VERTEX
8
CUT
10
61.4286
20
62.8571
0
VERTEX
8
CUT
10
62.8571
20
62.8571
0
SEQEND
0
POLYLINE
8
CUT
66
1
70
0
0
VERTEX
8
CUT
10
65
20
65
0
VERTEX
8
CUT
10
69.2857
20
65
0
VERTEX
8
CUT
10
69.2857
20
60.7143
0
VERTEX
8
CUT
10
66.4286
20
60.7143
0
VERTEX
8
CUT
10
66.4286
20
63.5714
0
VERTEX
8
CUT
10
67.8571
20
63.5714
0
VERTEX
8
CUT
10
67.8571
20
62.1429
0
SEQEND
0
POLYLINE
8
CUT
66
1
70
0
0
VERTEX
8
CUT
10
70
20
60
0
VERTEX
8
CUT
10
65.7143
20
60
0
VERTEX
8
CUT
10
65.7143
20
64.2857
0
VERTEX
8
CUT
10
68.5714
20
64.2857
0
VERTEX
8
CUT
10
68.5714
20
61.4286
0
VERTEX
8
CUT
10
67.1429
20
61.4286
0
VERTEX
8
CUT
10
67.1429
20
62.8571
0
SEQEND
0
POLYLINE
8
CUT
66
1
70
0
0
VERTEX
8
CUT
10
75
20
65
0
VERTEX
8
CUT
10
75
20
60.7143
0
VERTEX
8
CUT
10
70.7143
20
60.7143
0
VERTEX
8
CUT
10
70.7143
20
63.5714
0
VERTEX
8
CUT
10
73.5714
20
63.5714
0
VERTEX
8
CUT
10
73.5714
20
62.1429
0
VERTEX
8
CUT
10
72.1429
20
62.1429
0
SEQEND
0
POLYLINE
8
CUT
66
1
70
0
0
VERTEX
8
CUT
10
70
20
60
0
VERTEX
8
CUT
10
70
20
64.2857
0
VERTEX
8
CUT
10
74.2857
20
64.2857
0
VERTEX
8
CUT
10
74.2857
20
61.4286
0
VERTEX
8
CUT
10
71.4286
20
61.4286
0
VERTEX
8
CUT
10
71.4286
20
62.8571
0
VERTEX
8
CUT
10
72.8571
20
62.8571
0
SEQEND
0
POLYLINE
8
CUT
66
1
70
0
0
VERTEX
8
CUT
10
75
20
65
0
VERTEX
8
CUT
10
79.2857
20
65
0
VERTEX
8
CUT
10
79.2857
20
60.7143
0
VERTEX
8
CUT
10
76.4286
20
60.7143
0
VERTEX
8
CUT
10
76.4286
20
63.5714
0
VERTEX
8
CUT
10
77.8571
20
63.5714
0
VERTEX
8
CUT
10
77.8571
20
62.1429
0
SEQEND
0
POLYLINE
8
CUT
66
1
70
0
0
VERTEX
8
CUT
10
80
20
60
0
VERTEX
8
CUT
10
75.7143
20
60
0
VERTEX
8
CUT
10
75.7143
20
64.2857
0
VERTEX
8
CUT
10
78.5714
20
64.2857
0
VERTEX
8
CUT
10
78.5714
20
61.4286
0
VERTEX
8
CUT
10
77.1429
20
61.4286
0
VERTEX
8
CUT
10
77.1429
20
62.8571
0
SEQEND
0
POLYLINE
8
CUT
66
1
70
0
0
VERTEX
8
CUT
10
85
20
65
0
VERTEX
8
CUT
10
85
20
60.7143
0
VERTEX
8
CUT
10
80.7143
20
60.7143
0
VERTEX
8
CUT
10
80.7143
20
63.5714
0
VERTEX
8
CUT
10
83.5714
20
63.5714
0
VERTEX
8
CUT
10
83.5714
20
62.1429
0
VERTEX
8
CUT
10
82.1429
20
62.1429
0
SEQEND
0
POLYLINE
8
CUT
66
1
70
0
0
VERTEX
8
CUT
10
80
20
60
0
VERTEX
8
CUT
10
80
20
64.2857
0
VERTEX
8
CUT
10
84.2857
20
64.2857
0
VERTEX
8
CUT
10
84.2857
20
61.4286
0
VERTEX
8
CUT
10
81.4286
20
61.4286
0
VERTEX
8
CUT
10
81.4286
20
62.8571
0
VERTEX
8
CUT
10
82.8571
20
62.8571
0
SEQEND
0
POLYLINE
8
CUT
66
1
70
0
0
VERTEX
8
CUT
10
85
20
65
0
VERTEX
8
CUT
10
89.2857
20
65
0
VERTEX
8
CUT
10
89.2857
20
60.7143
0
VERTEX
8
CUT
10
86.4286
20
60.7143
0
VERTEX
8
CUT
10
86.4286
20
63.5714
0
VERTEX
8
CUT
10
87.8571
20
63.5714
0
VERTEX
8
CUT
10
87.8571
20
62.1429
0
SEQEND
0
POLYLINE
8
CUT
66
1
70
0
0
VERTEX
8
CUT
10
90
20
60
0
VERTEX
8
CUT
10
85.7143
20
60
0
VERTEX
8
CUT
10
85.7143
20
64.2857
0
VERTEX
8
CUT
10
88.5714
20
64.2857
0
VERTEX
8
CUT
10
88.5714
20
61.4286
0
VERTEX
8
CUT
10
87.1429
20
61.4286
0
VERTEX
8
CUT
10
87.1429
20
62.8571
0
SEQEND
0
POLYLINE
8
CUT
66
1
70
0
0
VERTEX
8
CUT
10
95
20
65
0
VERTEX
8
CUT
10
95
20
60.7143
0
VERTEX
8
CUT
10
90.7143
20
60.7143
0
VERTEX
8
CUT
10
90.7143
20
63.5714
0
VERTEX
8
CUT
10
93.5714
20
63.5714
0
VERTEX
8
CUT
10
93.5714
20
62.1429
0
VERTEX
8
CUT
10
92.1429
20
62.1429
0
SEQEND
0
POLYLINE
8
CUT
66
1
70
0
0
VERTEX
8
CUT
10
90
20
60
0
VERTEX
8
CUT
10
90
20
64.2857
0
VERTEX
8
CUT
10
94.2857
20
64.2857
0
VERTEX
8
CUT
10
94.2857
20
61.4286
0
VERTEX
8
CUT
10
91.4286
20
61.4286
0
VERTEX
8
CUT
10
91.4286
20
62.8571
0
VERTEX
8
CUT
10
92.8571
20
62.8571
0
SEQEND
0
POLYLINE
8
CUT
66
1
70
0
0
VERTEX
8
CUT
10
95
20
65
0
VERTEX
8
CUT
10
99.2857
20
65
0
VERTEX
8
CUT
10
99.2857
20
60.7143
0
VERTEX
8
CUT
10
96.4286
20
60.7143
0
VERTEX
8
CUT
10
96.4286
20
63.5714
0
VERTEX
8
CUT
10
97.8571
20
63.5714
0
VERTEX
8
CUT
10
97.8571
20
62.1429
0
SEQEND
0
POLYLINE
8
CUT
66
1
70
0
0
VERTEX
8
CUT
10
100
20
60
0
VERTEX
8
CUT
10
95.7143
20
60
0
VERTEX
8
CUT
10
95.7143
20
64.2857
0
VERTEX
8
CUT
10
98.5714
20
64.2857
0
VERTEX
8
CUT
10
98.5714
20
61.4286
0
VERTEX
8
CUT
10
97.1429
20
61.4286
0
VERTEX
8
CUT
10
97.1429
20
62.8571
0
SEQEND
0
POLYLINE
8
CUT
66
1
70
0
0
VERTEX
8
CUT
10
105
20
65
0
VERTEX
8
CUT
10
105
20
60.7143
0
VERTEX
8
CUT
10
100.7143
20
60.7143
0
VERTEX
8
CUT
10
100.7143
20
63.5714
0
VERTEX
8
CUT
10
103.5714
20
63.5714
0
VERTEX
8
CUT
10
103.5714
20
62.1429
0
VERTEX
8
CUT
10
102.1429
20
62.1429
0
SEQEND
0
POLYLINE
8
CUT
66
1
70
0
0
VERTEX
8
CUT
10
100
20
60
0
VERTEX
8
CUT
10
100
20
64.2857
0
VERTEX
8
CUT
10
104.2857
20
64.2857
0
VERTEX
8
CUT
10
104.2857
20
61.4286
0
VERTEX
8
CUT
10
101.4286
20
61.4286
0
VERTEX
8
CUT
10
101.4286
20
62.8571
0
VERTEX
8
CUT
10
102.8571
20
62.8571
0
SEQEND
0
POLYLINE
8
CUT
66
1
70
0
0
VERTEX
8
CUT
10
105
20
65
0
VERTEX
8
CUT
10
109.2857
20
65
0
VERTEX
8
CUT
10
109.2857
20
60.7143
0
VERTEX
8
CUT
10
106.4286
20
60.7143
0
VERTEX
8
CUT
10
106.4286
20
63.5714
0
VERTEX
8
CUT
10
107.8571
20
63.5714
0
VERTEX
8
CUT
10
107.8571
20
62.1429
0
SEQEND
0
POLYLINE
8
CUT
66
1
70
0
0
VERTEX
8
CUT
10
110
20
60
0
VERTEX
8
CUT
10
105.7143
20
60
0
VERTEX
8
CUT
10
105.7143
20
64.2857
0
VERTEX
8
CUT
10
108.5714
20
64.2857
0
VERTEX
8
CUT
10
108.5714
20
61.4286
0
VERTEX
8
CUT
10
107.1429
20
61.4286
0
VERTEX
8
CUT
10
107.1429
20
62.8571
0
SEQEND
0
POLYLINE
8
CUT
66
1
70
0
0
VERTEX
8
CUT
10
115
20
65
0
VERTEX
8
CUT
10
115
20
60.7143
0
VERTEX
8
CUT
10
110.7143
20
60.7143
0
VERTEX
8
CUT
10
110.7143
20
63.5714
0
VERTEX
8
CUT
10
113.5714
20
63.5714
0
VERTEX
8
CUT
10
113.5714
20
62.1429
0
VERTEX
8
CUT
10
112.1429
20
62.1429
0
SEQEND
0
POLYLINE
8
CUT
66
1
70
0
0
VERTEX
8
CUT
10
110
20
60
0
VERTEX
8
CUT
10
110
20
64.2857
0
VERTEX
8
CUT
10
114.2857
20
64.2857
0
VERTEX
8
CUT
10
114.2857
20
61.4286
0
VERTEX
8
CUT
10
111.4286
20
61.4286
0
VERTEX
8
CUT
10
111.4286
20
62.8571
0
VERTEX
8
CUT
10
112.8571
20
62.8571
0
SEQEND
0
POLYLINE
8
CUT
66
1
70
0
0
VERTEX
8
CUT
10
115
20
65
0
VERTEX
8
CUT
10
119.2857
20
65
0
VERTEX
8
CUT
10
119.2857
20
60.7143
0
VERTEX
8
CUT
10
116.4286
20
60.7143
0
VERTEX
8
CUT
10
116.4286
20
63.5714
0
VERTEX
8
CUT
10
117.8571
20
63.5714
0
VERTEX
8
CUT
10
117.8571
20
62.1429
0
SEQEND
0
POLYLINE
8
CUT
66
1
70
0
0
VERTEX
8
CUT
10
120
20
60
0
VERTEX
8
CUT
10
115.7143
20
60
0
VERTEX
8
CUT
10
115.7143
20
64.2857
0
VERTEX
8
CUT
10
118.5714
20
64.2857
0
VERTEX
8
CUT
10
118.5714
20
61.4286
0
VERTEX
8
CUT
10
117.1429
20
61.4286
0
VERTEX
8
CUT
10
117.1429
20
62.8571
0
SEQEND
0
POLYLINE
8
CUT
66
1
70
0
0
VERTEX
8
CUT
10
0
20
60
0
VERTEX
8
CUT
10
4.2857
20
60
0
VERTEX
8
CUT
10
4.2857
20
55.7143
0
VERTEX
8
CUT
10
1.4286
20
55.7143
0
VERTEX
8
CUT
10
1.4286
20
58.5714
0
VERTEX
8
CUT
10
2.8571
20
58.5714
0
VERTEX
8
CUT
10
2.8571
20
57.1429
0
SEQEND
0
POLYLINE
8
CUT
66
1
70
0
0
VERTEX
8
CUT
10
5
20
55
0
VERTEX
8
CUT
10
0.7143
20
55
0
VERTEX
8
CUT
10
0.7143
20
59.2857
0
VERTEX
8
CUT
10
3.5714
20
59.2857
0
VERTEX
8
CUT
10
3.5714
20
56.4286
0
VERTEX
8
CUT
10
2.1429
20
56.4286
0
VERTEX
8
CUT
10
2.1429
20
57.8571
0
SEQEND
0
POLYLINE
8
CUT
66
1
70
0
0
VERTEX
8
CUT
10
10
20
60
0
VERTEX
8
CUT
10
10
20
55.7143
0
VERTEX
8
CUT
10
5.7143
20
55.7143
0
VERTEX
8
CUT
10
5.7143
20
58.5714
0
VERTEX
8
CUT
10
8.5714
20
58.5714
0
VERTEX
8
CUT
10
8.5714
20
57.1429
0
VERTEX
8
CUT
10
7.1429
20
57.1429
0
SEQEND
0
POLYLINE
8
CUT
66
1
70
0
0
VERTEX
8
CUT
10
5
20
55
0
VERTEX
8
CUT
10
5
20
59.2857
0
VERTEX
8
CUT
10
9.2857
20
59.2857
0
VERTEX
8
CUT
10
9.2857
20
56.4286
0
VERTEX
8
CUT
10
6.4286
20
56.4286
0
VERTEX
8
CUT
10
6.4286
20
57.8571
0
VERTEX
8
CUT
10
7.8571
20
57.8571
0
SEQEND
0
POLYLINE
8
CUT
66
1
70
0
0
VERTEX
8
CUT
10
10
20
60
0
VERTEX
8
CUT
10
14.2857
20
60
0
VERTEX
8
CUT
10
14.2857
20
55.7143
0
VERTEX
8
CUT
10
11.4286
20
55.7143
0
VERTEX
8
CUT
10
11.4286
20
58.5714
0
VERTEX
8
CUT
10
12.8571
20
58.5714
0
VERTEX
8
CUT
10
12.8571
20
57.1429
0
SEQEND
0
POLYLINE
8
CUT
66
1
70
0
0
VERTEX
8
CUT
10
15
20
55
0
VERTEX
8
CUT
10
10.7143
20
55
0
VERTEX
8
CUT
10
10.7143
20
59.2857
0
VERTEX
8
CUT
10
13.5714
20
59.2857
0
VERTEX
8
CUT
10
13.5714
20
56.4286
0
VERTEX
8
CUT
10
12.1429
20
56.4286
0
VERTEX
8
CUT
10
12.1429
20
57.8571
0
SEQEND
0
POLYLINE
8
CUT
66
1
70
0
0
VERTEX
8
CUT
10
20
20
60
0
VERTEX
8
CUT
10
20
20
55.7143
0
VERTEX
8
CUT
10
15.7143
20
55.7143
0
VERTEX
8
CUT
10
15.7143
20
58.5714
0
VERTEX
8
CUT
10
18.5714
20
58.5714
0
VERTEX
8
CUT
10
18.5714
20
57.1429
0
VERTEX
8
CUT
10
17.1429
20
57.1429
0
SEQEND
0
POLYLINE
8
CUT
66
1
70
0
0
VERTEX
8
CUT
10
15
20
55
0
VERTEX
8
CUT
10
15
20
59.2857
0
VERTEX
8
CUT
10
19.2857
20
59.2857
0
VERTEX
8
CUT
10
19.2857
20
56.4286
0
VERTEX
8
CUT
10
16.4286
20
56.4286
0
VERTEX
8
CUT
10
16.4286
20
57.8571
0
VERTEX
8
CUT
10
17.8571
20
57.8571
0
SEQEND
0
POLYLINE
8
CUT
66
1
70
0
0
VERTEX
8
CUT
10
20
20
60
0
VERTEX
8
CUT
10
24.2857
20
60
0
VERTEX
8
CUT
10
24.2857
20
55.7143
0
VERTEX
8
CUT
10
21.4286
20
55.7143
0
VERTEX
8
CUT
10
21.4286
20
58.5714
0
VERTEX
8
CUT
10
22.8571
20
58.5714
0
VERTEX
8
CUT
10
22.8571
20
57.1429
0
SEQEND
0
POLYLINE
8
CUT
66
1
70
0
0
VERTEX
8
CUT
10
25
20
55
0
VERTEX
8
CUT
10
20.7143
20
55
0
VERTEX
8
CUT
10
20.7143
20
59.2857
0
VERTEX
8
CUT
10
23.5714
20
59.2857
0
VERTEX
8
CUT
10
23.5714
20
56.4286
0
VERTEX
8
CUT
10
22.1429
20
56.4286
0
VERTEX
8
CUT
10
22.1429
20
57.8571
0
SEQEND
0
POLYLINE
8
CUT
66
1
70
0
0
VERTEX
8
CUT
10
30
20
60
0
VERTEX
8
CUT
10
30
20
55.7143
0
VERTEX
8
CUT
10
25.7143
20
55.7143
0
VERTEX
8
CUT
10
25.7143
20
58.5714
0
VERTEX
8
CUT
10
28.5714
20
58.5714
0
VERTEX
8
CUT
10
28.5714
20
57.1429
0
VERTEX
8
CUT
10
27.1429
20
57.1429
0
SEQEND
0
POLYLINE
8
CUT
66
1
70
0
0
VERTEX
8
CUT
10
25
20
55
0
VERTEX
8
CUT
10
25
20
59.2857
0
VERTEX
8
CUT
10
29.2857
20
59.2857
0
VERTEX
8
CUT
10
29.2857
20
56.4286
0
VERTEX
8
CUT
10
26.4286
20
56.4286
0
VERTEX
8
CUT
10
26.4286
20
57.8571
0
VERTEX
8
CUT
10
27.8571
20
57.8571
0
SEQEND
0
POLYLINE
8
CUT
66
1
70
0
0
VERTEX
8
CUT
10
30
20
60
0
VERTEX
8
CUT
10
34.2857
20
60
0
VERTEX
8
CUT
10
34.2857
20
55.7143
0
VERTEX
8
CUT
10
31.4286
20
55.7143
0
VERTEX
8
CUT
10
31.4286
20
58.5714
0
VERTEX
8
CUT
10
32.8571
20
58.5714
0
VERTEX
8
CUT
10
32.8571
20
57.1429
0
SEQEND
0
POLYLINE
8
CUT
66
1
70
0
0
VERTEX
8
CUT
10
35
20
55
0
VERTEX
8
CUT
10
30.7143
20
55
0
VERTEX
8
CUT
10
30.7143
20
59.2857
0
VERTEX
8
CUT
10
33.5714
20
59.2857
0
VERTEX
8
CUT
10
33.5714
20
56.4286
0
VERTEX
8
CUT
10
32.1429
20
56.4286
0
VERTEX
8
CUT
10
32.1429
20
57.8571
0
SEQEND
0
POLYLINE
8
CUT
66
1
70
0
0
VERTEX
8
CUT
10
40
20
60
0
VERTEX
8
CUT
10
40
20
55.7143
0
VERTEX
8
CUT
10
35.7143
20
55.7143
0
VERTEX
8
CUT
10
35.7143
20
58.5714
0
VERTEX
8
CUT
10
38.5714
20
58.5714
0
VERTEX
8
CUT
10
38.5714
20
57.1429
0
VERTEX
8
CUT
10
37.1429
20
57.1429
0
SEQEND
0
POLYLINE
8
CUT
66
1
70
0
0
VERTEX
8
CUT
10
35
20
55
0
VERTEX
8
CUT
10
35
20
59.2857
0
VERTEX
8
CUT
10
39.2857
20
59.2857
0
VERTEX
8
CUT
10
39.2857
20
56.4286
0
VERTEX
8
CUT
10
36.4286
20
56.4286
0
VERTEX
8
CUT
10
36.4286
20
57.8571
0
VERTEX
8
CUT
10
37.8571
20
57.8571
0
SEQEND
0
POLYLINE
8
CUT
66
1
70
0
0
VERTEX
8
CUT
10
40
20
60
0
VERTEX
8
CUT
10
44.2857
20
60
0
VERTEX
8
CUT
10
44.2857
20
55.7143
0
VERTEX
8
CUT
10
41.4286
20
55.7143
0
VERTEX
8
CUT
10
41.4286
20
58.5714
0
VERTEX
8
CUT
10
42.8571
20
58.5714
0
VERTEX
8
CUT
10
42.8571
20
57.1429
0
SEQEND
0
POLYLINE
8
CUT
66
1
70
0
0
VERTEX
8
CUT
10
45
20
55
0
VERTEX
8
CUT
10
40.7143
20
55
0
VERTEX
8
CUT
10
40.7143
20
59.2857
0
VERTEX
8
CUT
10
43.5714
20
59.2857
0
VERTEX
8
CUT
10
43.5714
20
56.4286
0
VERTEX
8
CUT
10
42.1429
20
56.4286
0
VERTEX
8
CUT
10
42.1429
20
57.8571
0
SEQEND
0
POLYLINE
8
CUT
66
1
70
0
0
VERTEX
8
CUT
10
50
20
60
0
VERTEX
8
CUT
10
50
20
55.7143
0
VERTEX
8
CUT
10
45.7143
20
55.7143
0
VERTEX
8
CUT
10
45.7143
20
58.5714
0
VERTEX
8
CUT
10
48.5714
20
58.5714
0
VERTEX
8
CUT
10
48.5714
20
57.1429
0
VERTEX
8
CUT
10
47.1429
20
57.1429
0
SEQEND
0
POLYLINE
8
CUT
66
1
70
0
0
VERTEX
8
CUT
10
45
20
55
0
VERTEX
8
CUT
10
45
20
59.2857
0
VERTEX
8
CUT
10
49.2857
20
59.2857
0
VERTEX
8
CUT
10
49.2857
20
56.4286
0
VERTEX
8
CUT
10
46.4286
20
56.4286
0
VERTEX
8
CUT
10
46.4286
20
57.8571
0
VERTEX
8
CUT
10
47.8571
20
57.8571
0
SEQEND
0
POLYLINE
8
CUT
66
1
70
0
0
VERTEX
8
CUT
10
50
20
60
0
VERTEX
8
CUT
10
54.2857
20
60
0
VERTEX
8
CUT
10
54.2857
20
55.7143
0
VERTEX
8
CUT
10
51.4286
20
55.7143
0
VERTEX
8
CUT
10
51.4286
20
58.5714
0
VERTEX
8
CUT
10
52.8571
20
58.5714
0
VERTEX
8
CUT
10
52.8571
20
57.1429
0
SEQEND
0
POLYLINE
8
CUT
66
1
70
0
0
VERTEX
8
CUT
10
55
20
55
0
VERTEX
8
CUT
10
50.7143
20
55
0
VERTEX
8
CUT
10
50.7143
20
59.2857
0
VERTEX
8
CUT
10
53.5714
20
59.2857
0
VERTEX
8
CUT
10
53.5714
20
56.4286
0
VERTEX
8
CUT
10
52.1429
20
56.4286
0
VERTEX
8
CUT
10
52.1429
20
57.8571
0
SEQEND
0
POLYLINE
8
CUT
66
1
70
0
0
VERTEX
8
CUT
10
60
20
60
0
VERTEX
8
CUT
10
60
20
55.7143
0
VERTEX
8
CUT
10
55.7143
20
55.7143
0
VERTEX
8
CUT
10
55.7143
20
58.5714
0
VERTEX
8
CUT
10
58.5714
20
58.5714
0
VERTEX
8
CUT
10
58.5714
20
57.1429
0
VERTEX
8
CUT
10
57.1429
20
57.1429
0
SEQEND
0
POLYLINE
8
CUT
66
1
70
0
0
VERTEX
8
CUT
10
55
20
55
0
VERTEX
8
CUT
10
55
20
59.2857
0
VERTEX
8
CUT
10
59.2857
20
59.2857
0
VERTEX
8
CUT
10
59.2857
20
56.4286
0
VERTEX
8
CUT
10
56.4286
20
56.4286
0
VERTEX
8
CUT
10
56.4286
20
57.8571
0
VERTEX
8
CUT
10
57.8571
20
57.8571
0
SEQEND
0
POLYLINE
8
CUT
66
1
70
0
0
VERTEX
8
CUT
10
60
20
60
0
VERTEX
8
CUT
10
64.2857
20
60
0
VERTEX
8
CUT
10
64.2857
20
55.7143
0
VERTEX
8
CUT
10
61.4286
20
55.7143
0
VERTEX
8
CUT
10
61.4286
20
58.5714
0
VERTEX
8
CUT
10
62.8571
20
58.5714
0
VERTEX
8
CUT
10
62.8571
20
57.1429
0
SEQEND
0
POLYLINE
8
CUT
66
1
70
0
0
VERTEX
8
CUT
10
65
20
55
0
VERTEX
8
CUT
10
60.7143
20
55
0
VERTEX
8
CUT
10
60.7143
20
59.2857
0
VERTEX
8
CUT
10
63.5714
20
59.2857
0
VERTEX
8
CUT
10
63.5714
20
56.4286
0
VERTEX
8
CUT
10
62.1429
20
56.4286
0
VERTEX
8
CUT
10
62.1429
20
57.8571
0
SEQEND
0
POLYLINE
8
CUT
66
1
70
0
0
VERTEX
8
CUT
10
70
20
60
0
VERTEX
8
CUT
10
70
20
55.7143
0
VERTEX
8
CUT
10
65.7143
20
55.7143
0
VERTEX
8
CUT
10
65.7143
20
58.5714
0
VERTEX
8
CUT
10
68.5714
20
58.5714
0
VERTEX
8
CUT
10
68.5714
20
57.1429
0
VERTEX
8
CUT
10
67.1429
20
57.1429
0
SEQEND
0
POLYLINE
8
CUT
66
1
70
0
0
VERTEX
8
CUT
10
65
20
55
0
VERTEX
8
CUT
10
65
20
59.2857
0
VERTEX
8
CUT
10
69.2857
20
59.2857
0
VERTEX
8
CUT
10
69.2857
20
56.4286
0
VERTEX
8
CUT
10
66.4286
20
56.4286
0
VERTEX
8
CUT
10
66.4286
20
57.8571
0
VERTEX
8
CUT
10
67.8571
20
57.8571
0
SEQEND
0
POLYLINE
8
CUT
66
1
70
0
0
VERTEX
8
CUT
10
70
20
60
0
VERTEX
8
CUT
10
74.2857
20
60
0
VERTEX
8
CUT
10
74.2857
20
55.7143
0
VERTEX
8
CUT
10
71.4286
20
55.7143
0
VERTEX
8
CUT
10
71.4286
20
58.5714
0
VERTEX
8
CUT
10
72.8571
20
58.5714
0
VERTEX
8
CUT
10
72.8571
20
57.1429
0
SEQEND
0
POLYLINE
8
CUT
66
1
70
0
0
VERTEX
8
CUT
10
75
20
55
0
VERTEX
8
CUT
10
70.7143
20
55
0
VERTEX
8
CUT
10
70.7143
20
59.2857
0
VERTEX
8
CUT
10
73.5714
20
59.2857
0
VERTEX
8
CUT
10
73.5714
20
56.4286
0
VERTEX
8
CUT
10
72.1429
20
56.4286
0
VERTEX
8
CUT
10
72.1429
20
57.8571
0
SEQEND
0
POLYLINE
8
CUT
66
1
70
0
0
VERTEX
8
CUT
10
80
20
60
0
VERTEX
8
CUT
10
80
20
55.7143
0
VERTEX
8
CUT
10
75.7143
20
55.7143
0
VERTEX
8
CUT
10
75.7143
20
58.5714
0
VERTEX
8
CUT
10
78.5714
20
58.5714
0
VERTEX
8
CUT
10
78.5714
20
57.1429
0
VERTEX
8
CUT
10
77.1429
20
57.1429
0
SEQEND
0
POLYLINE
8
CUT
66
1
70
0
0
VERTEX
8
CUT
10
75
20
55
0
VERTEX
8
CUT
10
75
20
59.2857
0
VERTEX
8
CUT
10
79.2857
20
59.2857
0
VERTEX
8
CUT
10
79.2857
20
56.4286
0
VERTEX
8
CUT
10
76.4286
20
56.4286
0
VERTEX
8
CUT
10
76.4286
20
57.8571
0
VERTEX
8
CUT
10
77.8571
20
57.8571
0
SEQEND
0
POLYLINE
8
CUT
66
1
70
0
0
VERTEX
8
CUT
10
80
20
60
0
VERTEX
8
CUT
10
84.2857
20
60
0
VERTEX
8
CUT
10
84.2857
20
55.7143
0
VERTEX
8
CUT
10
81.4286
20
55.7143
0
VERTEX
8
CUT
10
81.4286
20
58.5714
0
VERTEX
8
CUT
10
82.8571
20
58.5714
0
VERTEX
8
CUT
10
82.8571
20
57.1429
0
SEQEND
0
POLYLINE
8
CUT
66
1
70
0
0
VERTEX
8
CUT
10
85
20
55
0
VERTEX
8
CUT
10
80.7143
20
55
0
VERTEX
8
CUT
10
80.7143
20
59.2857
0
VERTEX
8
CUT
10
83.5714
20
59.2857
0
VERTEX
8
CUT
10
83.5714
20
56.4286
0
VERTEX
8
CUT
10
82.1429
20
56.4286
0
VERTEX
8
CUT
10
82.1429
20
57.8571
0
SEQEND
0
POLYLINE
8
CUT
66
1
70
0
0
VERTEX
8
CUT
10
90
20
60
0
VERTEX
8
CUT
10
90
20
55.7143
0
VERTEX
8
CUT
10
85.7143
20
55.7143
0
VERTEX
8
CUT
10
85.7143
20
58.5714
0
VERTEX
8
CUT
10
88.5714
20
58.5714
0
VERTEX
8
CUT
10
88.5714
20
57.1429
0
VERTEX
8
CUT
10
87.1429
20
57.1429
0
SEQEND
0
POLYLINE
8
CUT
66
1
70
0
0
VERTEX
8
CUT
10
85
20
55
0
VERTEX
8
CUT
10
85
20
59.2857
0
VERTEX
8
CUT
10
89.2857
20
59.2857
0
VERTEX
8
CUT
10
89.2857
20
56.4286
0
VERTEX
8
CUT
10
86.4286
20
56.4286
0
VERTEX
8
CUT
10
86.4286
20
57.8571
0
VERTEX
8
CUT
10
87.8571
20
57.8571
0
SEQEND
0
POLYLINE
8
CUT
66
1
70
0
0
VERTEX
8
CUT
10
90
20
60
0
VERTEX
8
CUT
10
94.2857
20
60
0
VERTEX
8
CUT
10
94.2857
20
55.7143
0
VERTEX
8
CUT
10
91.4286
20
55.7143
0
VERTEX
8
CUT
10
91.4286
20
58.5714
0
VERTEX
8
CUT
10
92.8571
20
58.5714
0
VERTEX
8
CUT
10
92.8571
20
57.1429
0
SEQEND
0
POLYLINE
8
CUT
66
1
70
0
0
VERTEX
8
CUT
10
95
20
55
0
VERTEX
8
CUT
10
90.7143
20
55
0
VERTEX
8
CUT
10
90.7143
20
59.2857
0
VERTEX
8
CUT
10
93.5714
20
59.2857
0
VERTEX
8
CUT
10
93.5714
20
56.4286
0
VERTEX
8
CUT
10
92.1429
20
56.4286
0
VERTEX
8
CUT
10
92.1429
20
57.8571
0
SEQEND
0
POLYLINE
8
CUT
66
1
70
0
0
VERTEX
8
CUT
10
100
20
60
0
VERTEX
8
CUT
10
100
20
55.7143
0
VERTEX
8
CUT
10
95.7143
20
55.7143
0
VERTEX
8
CUT
10
95.7143
20
58.5714
0
VERTEX
8
CUT
10
98.5714
20
58.5714
0
VERTEX
8
CUT
10
98.5714
20
57.1429
0
VERTEX
8
CUT
10
97.1429
20
57.1429
0
SEQEND
0
POLYLINE
8
CUT
66
1
70
0
0
VERTEX
8
CUT
10
95
20
55
0
VERTEX
8
CUT
10
95
20
59.2857
0
VERTEX
8
CUT
10
99.2857
20
59.2857
0
VERTEX
8
CUT
10
99.2857
20
56.4286
0
VERTEX
8
CUT
10
96.4286
20
56.4286
0
VERTEX
8
CUT
10
96.4286
20
57.8571
0
VERTEX
8
CUT
10
97.8571
20
57.8571
0
SEQEND
0
POLYLINE
8
CUT
66
1
70
0
0
VERTEX
8
CUT
10
100
20
60
0
VERTEX
8
CUT
10
104.2857
20
60
0
VERTEX
8
CUT
10
104.2857
20
55.7143
0
VERTEX
8
CUT
10
101.4286
20
55.7143
0
VERTEX
8
CUT
10
101.4286
20
58.5714
0
VERTEX
8
CUT
10
102.8571
20
58.5714
0
VERTEX
8
CUT
10
102.8571
20
57.1429
0
SEQEND
0
POLYLINE
8
CUT
66
1
70
0
0
VERTEX
8
CUT
10
105
20
55
0
VERTEX
8
CUT
10
100.7143
20
55
0
VERTEX
8
CUT
10
100.7143
20
59.2857
0
VERTEX
8
CUT
10
103.5714
20
59.2857
0
VERTEX
8
CUT
10
103.5714
20
56.4286
0
VERTEX
8
CUT
10
102.1429
20
56.4286
0
VERTEX
8
CUT
10
102.1429
20
57.8571
0
SEQEND
0
POLYLINE
8
CUT
66
1
70
0
0
VERTEX
8
CUT
10
110
20
60
0
VERTEX
8
CUT
10
110
20
55.7143
0
VERTEX
8
CUT
10
105.7143
20
55.7143
0
VERTEX
8
CUT
10
105.7143
20
58.5714
0
VERTEX
8
CUT
10
108.5714
20
58.5714
0
VERTEX
8
CUT
10
108.5714
20
57.1429
0
VERTEX
8
CUT
10
107.1429
20
57.1429
0
SEQEND
0
POLYLINE
8
CUT
66
1
70
0
0
VERTEX
8
CUT
10
105
20
55
0
VERTEX
8
CUT
10
105
20
59.2857
0
VERTEX
8
CUT
10
109.2857
20
59.2857
0
VERTEX
8
CUT
10
109.2857
20
56.4286
0
VERTEX
8
CUT
10
106.4286
20
56.4286
0
VERTEX
8
CUT
10
106.4286
20
57.8571
0
VERTEX
8
CUT
10
107.8571
20
57.8571
0
SEQEND
0
POLYLINE
8
CUT
66
1
70
0
0
VERTEX
8
CUT
10
110
20
60
0
VERTEX
8
CUT
10
114.2857
20
60
0
VERTEX
8
CUT
10
114.2857
20
55.7143
0
VERTEX
8
CUT
10
111.4286
20
55.7143
0
VERTEX
8
CUT
10
111.4286
20
58.5714
0
VERTEX
8
CUT
10
112.8571
20
58.5714
0
VERTEX
8
CUT
10
112.8571
20
57.1429
0
SEQEND
0
POLYLINE
8
CUT
66
1
70
0
0
VERTEX
8
CUT
10
115
20
55
0
VERTEX
8
CUT
10
110.7143
20
55
0
VERTEX
8
CUT
10
110.7143
20
59.2857
0
VERTEX
8
CUT
10
113.5714
20
59.2857
0
VERTEX
8
CUT
10
113.5714
20
56.4286
0
VERTEX
8
CUT
10
112.1429
20
56.4286
0
VERTEX
8
CUT
10
112.1429
20
57.8571
0
SEQEND
0
POLYLINE
8
CUT
66
1
70
0
0
VERTEX
8
CUT
10
120
20
60
0
VERTEX
8
CUT
10
120
20
55.7143
0
VERTEX
8
CUT
10
115.7143
20
55.7143
0
VERTEX
8
CUT
10
115.7143
20
58.5714
0
VERTEX
8
CUT
10
118.5714
20
58.5714
0
VERTEX
8
CUT
10
118.5714
20
57.1429
0
VERTEX
8
CUT
10
117.1429
20
57.1429
0
SEQEND
0
POLYLINE
8
CUT
66
1
70
0
0
VERTEX
8
CUT
10
115
20
55
0
VERTEX
8
CUT
10
115
20
59.2857
0
VERTEX
8
CUT
10
119.2857
20
59.2857
0
VERTEX
8
CUT
10
119.2857
20
56.4286
0
VERTEX
8
CUT
10
116.4286
20
56.4286
0
VERTEX
8
CUT
10
116.4286
20
57.8571
0
VERTEX
8
CUT
10
117.8571
20
57.8571
0
SEQEND
0
POLYLINE
8
CUT
66
1
70
0
0
VERTEX
8
CUT
10
5
20
55
0
VERTEX
8
CUT
10
5
20
50.7143
0
VERTEX
8
CUT
10
0.7143
20
50.7143
0
VERTEX
8
CUT
10
0.7143
20
53.5714
0
VERTEX
8
CUT
10
3.5714
20
53.5714
0
VERTEX
8
CUT
10
3.5714
20
52.1429
0
VERTEX
8
CUT
10
2.1429
20
52.1429
0
SEQEND
0
POLYLINE
8
CUT
66
1
70
0
0
VERTEX
8
CUT
10
0
20
50
0
VERTEX
8
CUT
10
0
20
54.2857
0
VERTEX
8
CUT
10
4.2857
20
54.2857
0
VERTEX
8
CUT
10
4.2857
20
51.4286
0
VERTEX
8
CUT
10
1.4286
20
51.4286
0
VERTEX
8
CUT
10
1.4286
20
52.8571
0
VERTEX
8
CUT
10
2.8571
20
52.8571
0
SEQEND
0
POLYLINE
8
CUT
66
1
70
0
0
VERTEX
8
CUT
10
5
20
55
0
VERTEX
8
CUT
10
9.2857
20
55
0
VERTEX
8
CUT
10
9.2857
20
50.7143
0
VERTEX
8
CUT
10
6.4286
20
50.7143
0
VERTEX
8
CUT
10
6.4286
20
53.5714
0
VERTEX
8
CUT
10
7.8571
20
53.5714
0
VERTEX
8
CUT
10
7.8571
20
52.1429
0
SEQEND
0
POLYLINE
8
CUT
66
1
70
0
0
VERTEX
8
CUT
10
10
20
50
0
VERTEX
8
CUT
10
5.7143
20
50
0
VERTEX
8
CUT
10
5.7143
20
54.2857
0
VERTEX
8
CUT
10
8.5714
20
54.2857
0
VERTEX
8
CUT
10
8.5714
20
51.4286
0
VERTEX
8
CUT
10
7.1429
20
51.4286
0
VERTEX
8
CUT
10
7.1429
20
52.8571
0
SEQEND
0
POLYLINE
8
CUT
66
1
70
0
0
VERTEX
8
CUT
10
15
20
55
0
VERTEX
8
CUT
10
15
20
50.7143
0
VERTEX
8
CUT
10
10.7143
20
50.7143
0
VERTEX
8
CUT
10
10.7143
20
53.5714
0
VERTEX
8
CUT
10
13.5714
20
53.5714
0
VERTEX
8
CUT
10
13.5714
20
52.1429
0
VERTEX
8
CUT
10
12.1429
20
52.1429
0
SEQEND
0
POLYLINE
8
CUT
66
1
70
0
0
VERTEX
8
CUT
10
10
20
50
0
VERTEX
8
CUT
10
10
20
54.2857
0
VERTEX
8
CUT
10
14.2857
20
54.2857
0
VERTEX
8
CUT
10
14.2857
20
51.4286
0
VERTEX
8
CUT
10
11.4286
20
51.4286
0
VERTEX
8
CUT
10
11.4286
20
52.8571
0
VERTEX
8
CUT
10
12.8571
20
52.8571
0
SEQEND
0
POLYLINE
8
CUT
66
1
70
0
0
VERTEX
8
CUT
10
15
20
55
0
VERTEX
8
CUT
10
19.2857
20
55
0
VERTEX
8
CUT
10
19.2857
20
50.7143
0
VERTEX
8
CUT
10
16.4286
20
50.7143
0
VERTEX
8
CUT
10
16.4286
20
53.5714
0
VERTEX
8
CUT
10
17.8571
20
53.5714
0
VERTEX
8
CUT
10
17.8571
20
52.1429
0
SEQEND
0
POLYLINE
8
CUT
66
1
70
0
0
VERTEX
8
CUT
10
20
20
50
0
VERTEX
8
CUT
10
15.7143
20
50
0
VERTEX
8
CUT
10
15.7143
20
54.2857
0
VERTEX
8
CUT
10
18.5714
20
54.2857
0
VERTEX
8
CUT
10
18.5714
20
51.4286
0
VERTEX
8
CUT
10
17.1429
20
51.4286
0
VERTEX
8
CUT
10
17.1429
20
52.8571
0
SEQEND
0
POLYLINE
8
CUT
66
1
70
0
0
VERTEX
8
CUT
10
25
20
55
0
VERTEX
8
CUT
10
25
20
50.7143
0
VERTEX
8
CUT
10
20.7143
20
50.7143
0
VERTEX
8
CUT
10
20.7143
20
53.5714
0
VERTEX
8
CUT
10
23.5714
20
53.5714
0
VERTEX
8
CUT
10
23.5714
20
52.1429
0
VERTEX
8
CUT
10
22.1429
20
52.1429
0
SEQEND
0
POLYLINE
8
CUT
66
1
70
0
0
VERTEX
8
CUT
10
20
20
50
0
VERTEX
8
CUT
10
20
20
54.2857
0
VERTEX
8
CUT
10
24.2857
20
54.2857
0
VERTEX
8
CUT
10
24.2857
20
51.4286
0
VERTEX
8
CUT
10
21.4286
20
51.4286
0
VERTEX
8
CUT
10
21.4286
20
52.8571
0
VERTEX
8
CUT
10
22.8571
20
52.8571
0
SEQEND
0
POLYLINE
8
CUT
66
1
70
0
0
VERTEX
8
CUT
10
25
20
55
0
VERTEX
8
CUT
10
29.2857
20
55
0
VERTEX
8
CUT
10
29.2857
20
50.7143
0
VERTEX
8
CUT
10
26.4286
20
50.7143
0
VERTEX
8
CUT
10
26.4286
20
53.5714
0
VERTEX
8
CUT
10
27.8571
20
53.5714
0
VERTEX
8
CUT
10
27.8571
20
52.1429
0
SEQEND
0
POLYLINE
8
CUT
66
1
70
0
0
VERTEX
8
CUT
10
30
20
50
0
VERTEX
8
CUT
10
25.7143
20
50
0
VERTEX
8
CUT
10
25.7143
20
54.2857
0
VERTEX
8
CUT
10
28.5714
20
54.2857
0
VERTEX
8
CUT
10
28.5714
20
51.4286
0
VERTEX
8
CUT
10
27.1429
20
51.4286
0
VERTEX
8
CUT
10
27.1429
20
52.8571
0
SEQEND
0
POLYLINE
8
CUT
66
1
70
0
0
VERTEX
8
CUT
10
35
20
55
0
VERTEX
8
CUT
10
35
20
50.7143
0
VERTEX
8
CUT
10
30.7143
20
50.7143
0
VERTEX
8
CUT
10
30.7143
20
53.5714
0
VERTEX
8
CUT
10
33.5714
20
53.5714
0
VERTEX
8
CUT
10
33.5714
20
52.1429
0
VERTEX
8
CUT
10
32.1429
20
52.1429
0
SEQEND
0
POLYLINE
8
CUT
66
1
70
0
0
VERTEX
8
CUT
10
30
20
50
0
VERTEX
8
CUT
10
30
20
54.2857
0
VERTEX
8
CUT
10
34.2857
20
54.2857
0
VERTEX
8
CUT
10
34.2857
20
51.4286
0
VERTEX
8
CUT
10
31.4286
20
51.4286
0
VERTEX
8
CUT
10
31.4286
20
52.8571
0
VERTEX
8
CUT
10
32.8571
20
52.8571
0
SEQEND
0
POLYLINE
8
CUT
66
1
70
0
0
VERTEX
8
CUT
10
35
20
55
0
VERTEX
8
CUT
10
39.2857
20
55
0
VERTEX
8
CUT
10
39.2857
20
50.7143
0
VERTEX
8
CUT
10
36.4286
20
50.7143
0
VERTEX
8
CUT
10
36.4286
20
53.5714
0
VERTEX
8
CUT
10
37.8571
20
53.5714
0
VERTEX
8
CUT
10
37.8571
20
52.1429
0
SEQEND
0
POLYLINE
8
CUT
66
1
70
0
0
VERTEX
8
CUT
10
40
20
50
0
VERTEX
8
CUT
10
35.7143
20
50
0
VERTEX
8
CUT
10
35.7143
20
54.2857
0
VERTEX
8
CUT
10
38.5714
20
54.2857
0
VERTEX
8
CUT
10
38.5714
20
51.4286
0
VERTEX
8
CUT
10
37.1429
20
51.4286
0
VERTEX
8
CUT
10
37.1429
20
52.8571
0
SEQEND
0
POLYLINE
8
CUT
66
1
70
0
0
VERTEX
8
CUT
10
45
20
55
0
VERTEX
8
CUT
10
45
20
50.7143
0
VERTEX
8
CUT
10
40.7143
20
50.7143
0
VERTEX
8
CUT
10
40.7143
20
53.5714
0
VERTEX
8
CUT
10
43.5714
20
53.5714
0
VERTEX
8
CUT
10
43.5714
20
52.1429
0
VERTEX
8
CUT
10
42.1429
20
52.1429
0
SEQEND
0
POLYLINE
8
CUT
66
1
70
0
0
VERTEX
8
CUT
10
40
20
50
0
VERTEX
8
CUT
10
40
20
54.2857
0
VERTEX
8
CUT
10
44.2857
20
54.2857
0
VERTEX
8
CUT
10
44.2857
20
51.4286
0
VERTEX
8
CUT
10
41.4286
20
51.4286
0
VERTEX
8
CUT
10
41.4286
20
52.8571
0
VERTEX
8
CUT
10
42.8571
20
52.8571
0
SEQEND
0
POLYLINE
8
CUT
66
1
70
0
0
VERTEX
8
CUT
10
45
20
55
0
VERTEX
8
CUT
10
49.2857
20
55
0
VERTEX
8
CUT
10
49.2857
20
50.7143
0
VERTEX
8
CUT
10
46.4286
20
50.7143
0
VERTEX
8
CUT
10
46.4286
20
53.5714
0
VERTEX
8
CUT
10
47.8571
20
53.5714
0
VERTEX
8
CUT
10
47.8571
20
52.1429
0
SEQEND
0
POLYLINE
8
CUT
66
1
70
0
0
VERTEX
8
CUT
10
50
20
50
0
VERTEX
8
CUT
10
45.7143
20
50
0
VERTEX
8
CUT
10
45.7143
20
54.2857
0
VERTEX
8
CUT
10
48.5714
20
54.2857
0
VERTEX
8
CUT
10
48.5714
20
51.4286
0
VERTEX
8
CUT
10
47.1429
20
51.4286
0
VERTEX
8
CUT
10
47.1429
20
52.8571
0
SEQEND
0
POLYLINE
8
CUT
66
1
70
0
0
VERTEX
8
CUT
10
55
20
55
0
VERTEX
8
CUT
10
55
20
50.7143
0
VERTEX
8
CUT
10
50.7143
20
50.7143
0
VERTEX
8
CUT
10
50.7143
20
53.5714
0
VERTEX
8
CUT
10
53.5714
20
53.5714
0
VERTEX
8
CUT
10
53.5714
20
52.1429
0
VERTEX
8
CUT
10
52.1429
20
52.1429
0
SEQEND
0
POLYLINE
8
CUT
66
1
70
0
0
VERTEX
8
CUT
10
50
20
50
0
VERTEX
8
CUT
10
50
20
54.2857
0
VERTEX
8
CUT
10
54.2857
20
54.2857
0
VERTEX
8
CUT
10
54.2857
20
51.4286
0
VERTEX
8
CUT
10
51.4286
20
51.4286
0
VERTEX
8
CUT
10
51.4286
20
52.8571
0
VERTEX
8
CUT
10
52.8571
20
52.8571
0
SEQEND
0
POLYLINE
8
CUT
66
1
70
0
0
VERTEX
8
CUT
10
55
20
55
0
VERTEX
8
CUT
10
59.2857
20
55
0
VERTEX
8
CUT
10
59.2857
20
50.7143
0
VERTEX
8
CUT
10
56.4286
20
50.7143
0
VERTEX
8
CUT
10
56.4286
20
53.5714
0
VERTEX
8
CUT
10
57.8571
20
53.5714
0
VERTEX
8
CUT
10
57.8571
20
52.1429
0
SEQEND
0
POLYLINE
8
CUT
66
1
70
0
0
VERTEX
8
CUT
10
60
20
50
0
VERTEX
8
CUT
10
55.7143
20
50
0
VERTEX
8
CUT
10
55.7143
20
54.2857
0
VERTEX
8
CUT
10
58.5714
20
54.2857
0
VERTEX
8
CUT
10
58.5714
20
51.4286
0
VERTEX
8
CUT
10
57.1429
20
51.4286
0
VERTEX
8
CUT
10
57.1429
20
52.8571
0
SEQEND
0
POLYLINE
8
CUT
66
1
70
0
0
VERTEX
8
CUT
10
65
20
55
0
VERTEX
8
CUT
10
65
20
50.7143
0
VERTEX
8
CUT
10
60.7143
20
50.7143
0
VERTEX
8
CUT
10
60.7143
20
53.5714
0
VERTEX
8
CUT
10
63.5714
20
53.5714
0
VERTEX
8
CUT
10
63.5714
20
52.1429
0
VERTEX
8
CUT
10
62.1429
20
52.1429
0
SEQEND
0
POLYLINE
8
CUT
66
1
70
0
0
VERTEX
8
CUT
10
60
20
50
0
VERTEX
8
CUT
10
60
20
54.2857
0
VERTEX
8
CUT
10
64.2857
20
54.2857
0
VERTEX
8
CUT
10
64.2857
20
51.4286
0
VERTEX
8
CUT
10
61.4286
20
51.4286
0
VERTEX
8
CUT
10
61.4286
20
52.8571
0
VERTEX
8
CUT
10
62.8571
20
52.8571
0
SEQEND
0
POLYLINE
8
CUT
66
1
70
0
0
VERTEX
8
CUT
10
65
20
55
0
VERTEX
8
CUT
10
69.2857
20
55
0
VERTEX
8
CUT
10
69.2857
20
50.7143
0
VERTEX
8
CUT
10
66.4286
20
50.7143
0
VERTEX
8
CUT
10
66.4286
20
53.5714
0
VERTEX
8
CUT
10
67.8571
20
53.5714
0
VERTEX
8
CUT
10
67.8571
20
52.1429
0
SEQEND
0
POLYLINE
8
CUT
66
1
70
0
0
VERTEX
8
CUT
10
70
20
50
0
VERTEX
8
CUT
10
65.7143
20
50
0
VERTEX
8
CUT
10
65.7143
20
54.2857
0
VERTEX
8
CUT
10
68.5714
20
54.2857
0
VERTEX
8
CUT
10
68.5714
20
51.4286
0
VERTEX
8
CUT
10
67.1429
20
51.4286
0
VERTEX
8
CUT
10
67.1429
20
52.8571
0
SEQEND
0
POLYLINE
8
CUT
66
1
70
0
0
VERTEX
8
CUT
10
75
20
55
0
VERTEX
8
CUT
10
75
20
50.7143
0
VERTEX
8
CUT
10
70.7143
20
50.7143
0
VERTEX
8
CUT
10
70.7143
20
53.5714
0
VERTEX
8
CUT
10
73.5714
20
53.5714
0
VERTEX
8
CUT
10
73.5714
20
52.1429
0
VERTEX
8
CUT
10
72.1429
20
52.1429
0
SEQEND
0
POLYLINE
8
CUT
66
1
70
0
0
VERTEX
8
CUT
10
70
20
50
0
VERTEX
8
CUT
10
70
20
54.2857
0
VERTEX
8
CUT
10
74.2857
20
54.2857
0
VERTEX
8
CUT
10
74.2857
20
51.4286
0
VERTEX
8
CUT
10
71.4286
20
51.4286
0
VERTEX
8
CUT
10
71.4286
20
52.8571
0
VERTEX
8
CUT
10
72.8571
20
52.8571
0
SEQEND
0
POLYLINE
8
CUT
66
1
70
0
0
VERTEX
8
CUT
10
75
20
55
0
VERTEX
8
CUT
10
79.2857
20
55
0
VERTEX
8
CUT
10
79.2857
20
50.7143
0
VERTEX
8
CUT
10
76.4286
20
50.7143
0
VERTEX
8
CUT
10
76.4286
20
53.5714
0
VERTEX
8
CUT
10
77.8571
20
53.5714
0
VERTEX
8
CUT
10
77.8571
20
52.1429
0
SEQEND
0
POLYLINE
8
CUT
66
1
70
0
0
VERTEX
8
CUT
10
80
20
50
0
VERTEX
8
CUT
10
75.7143
20
50
0
VERTEX
8
CUT
10
75.7143
20
54.2857
0
VERTEX
8
CUT
10
78.5714
20
54.2857
0
VERTEX
8
CUT
10
78.5714
20
51.4286
0
VERTEX
8
CUT
10
77.1429
20
51.4286
0
VERTEX
8
CUT
10
77.1429
20
52.8571
0
SEQEND
0
POLYLINE
8
CUT
66
1
70
0
0
VERTEX
8
CUT
10
85
20
55
0
VERTEX
8
CUT
10
85
20
50.7143
0
VERTEX
8
CUT
10
80.7143
20
50.7143
0
VERTEX
8
CUT
10
80.7143
20
53.5714
0
VERTEX
8
CUT
10
83.5714
20
53.5714
0
VERTEX
8
CUT
10
83.5714
20
52.1429
0
VERTEX
8
CUT
10
82.1429
20
52.1429
0
SEQEND
0
POLYLINE
8
CUT
66
1
70
0
0
VERTEX
8
CUT
10
80
20
50
0
VERTEX
8
CUT
10
80
20
54.2857
0
VERTEX
8
CUT
10
84.2857
20
54.2857
0
VERTEX
8
CUT
10
84.2857
20
51.4286
0
VERTEX
8
CUT
10
81.4286
20
51.4286
0
VERTEX
8
CUT
10
81.4286
20
52.8571
0
VERTEX
8
CUT
10
82.8571
20
52.8571
0
SEQEND
0
POLYLINE
8
CUT
66
1
70
0
0
VERTEX
8
CUT
10
85
20
55
0
VERTEX
8
CUT
10
89.2857
20
55
0
VERTEX
8
CUT
10
89.2857
20
50.7143
0
VERTEX
8
CUT
10
86.4286
20
50.7143
0
VERTEX
8
CUT
10
86.4286
20
53.5714
0
VERTEX
8
CUT
10
87.8571
20
53.5714
0
VERTEX
8
CUT
10
87.8571
20
52.1429
0
SEQEND
0
POLYLINE
8
CUT
66
1
70
0
0
VERTEX
8
CUT
10
90
20
50
0
VERTEX
8
CUT
10
85.7143
20
50
0
VERTEX
8
CUT
10
85.7143
20
54.2857
0
VERTEX
8
CUT
10
88.5714
20
54.2857
0
VERTEX
8
CUT
10
88.5714
20
51.4286
0
VERTEX
8
CUT
10
87.1429
20
51.4286
0
VERTEX
8
CUT
10
87.1429
20
52.8571
0
SEQEND
0
POLYLINE
8
CUT
66
1
70
0
0
VERTEX
8
CUT
10
95
20
55
0
VERTEX
8
CUT
10
95
20
50.7143
0
VERTEX
8
CUT
10
90.7143
20
50.7143
0
VERTEX
8
CUT
10
90.7143
20
53.5714
0
VERTEX
8
CUT
10
93.5714
20
53.5714
0
VERTEX
8
CUT
10
93.5714
20
52.1429
0
VERTEX
8
CUT
10
92.1429
20
52.1429
0
SEQEND
0
POLYLINE
8
CUT
66
1
70
0
0
VERTEX
8
CUT
10
90
20
50
0
VERTEX
8
CUT
10
90
20
54.2857
0
VERTEX
8
CUT
10
94.2857
20
54.2857
0
VERTEX
8
CUT
10
94.2857
20
51.4286
0
VERTEX
8
CUT
10
91.4286
20
51.4286
0
VERTEX
8
CUT
10
91.4286
20
52.8571
0
VERTEX
8
CUT
10
92.8571
20
52.8571
0
SEQEND
0
POLYLINE
8
CUT
66
1
70
0
0
VERTEX
8
CUT
10
95
20
55
0
VERTEX
8
CUT
10
99.2857
20
55
0
VERTEX
8
CUT
10
99.2857
20
50.7143
0
VERTEX
8
CUT
10
96.4286
20
50.7143
0
VERTEX
8
CUT
10
96.4286
20
53.5714
0
VERTEX
8
CUT
10
97.8571
20
53.5714
0
VERTEX
8
CUT
10
97.8571
20
52.1429
0
SEQEND
0
POLYLINE
8
CUT
66
1
70
0
0
VERTEX
8
CUT
10
100
20
50
0
VERTEX
8
CUT
10
95.7143
20
50
0
VERTEX
8
CUT
10
95.7143
20
54.2857
0
VERTEX
8
CUT
10
98.5714
20
54.2857
0
VERTEX
8
CUT
10
98.5714
20
51.4286
0
VERTEX
8
CUT
10
97.1429
20
51.4286
0
VERTEX
8
CUT
10
97.1429
20
52.8571
0
SEQEND
0
POLYLINE
8
CUT
66
1
70
0
0
VERTEX
8
CUT
10
105
20
55
0
VERTEX
8
CUT
10
105
20
50.7143
0
VERTEX
8
CUT
10
100.7143
20
50.7143
0
VERTEX
8
CUT
10
100.7143
20
53.5714
0
VERTEX
8
CUT
10
103.5714
20
53.5714
0
VERTEX
8
CUT
10
103.5714
20
52.1429
0
VERTEX
8
CUT
10
102.1429
20
52.1429
0
SEQEND
0
POLYLINE
8
CUT
66
1
70
0
0
VERTEX
8
CUT
10
100
20
50
0
VERTEX
8
CUT
10
100
20
54.2857
0
VERTEX
8
CUT
10
104.2857
20
54.2857
0
VERTEX
8
CUT
10
104.2857
20
51.4286
0
VERTEX
8
CUT
10
101.4286
20
51.4286
0
VERTEX
8
CUT
10
101.4286
20
52.8571
0
VERTEX
8
CUT
10
102.8571
20
52.8571
0
SEQEND
0
POLYLINE
8
CUT
66
1
70
0
0
VERTEX
8
CUT
10
105
20
55
0
VERTEX
8
CUT
10
109.2857
20
55
0
VERTEX
8
CUT
10
109.2857
20
50.7143
0
VERTEX
8
CUT
10
106.4286
20
50.7143
0
VERTEX
8
CUT
10
106.4286
20
53.5714
0
VERTEX
8
CUT
10
107.8571
20
53.5714
0
VERTEX
8
CUT
10
107.8571
20
52.1429
0
SEQEND
0
POLYLINE
8
CUT
66
1
70
0
0
VERTEX
8
CUT
10
110
20
50
0
VERTEX
8
CUT
10
105.7143
20
50
0
VERTEX
8
CUT
10
105.7143
20
54.2857
0
VERTEX
8
CUT
10
108.5714
20
54.2857
0
VERTEX
8
CUT
10
108.5714
20
51.4286
0
VERTEX
8
CUT
10
107.1429
20
51.4286
0
VERTEX
8
CUT
10
107.1429
20
52.8571
0
SEQEND
0
POLYLINE
8
CUT
66
1
70
0
0
VERTEX
8
CUT
10
115
20
55
0
VERTEX
8
CUT
10
115
20
50.7143
0
VERTEX
8
CUT
10
110.7143
20
50.7143
0
VERTEX
8
CUT
10
110.7143
20
53.5714
0
VERTEX
8
CUT
10
113.5714
20
53.5714
0
VERTEX
8
CUT
10
113.5714
20
52.1429
0
VERTEX
8
CUT
10
112.1429
20
52.1429
0
SEQEND
0
POLYLINE
8
CUT
66
1
70
0
0
VERTEX
8
CUT
10
110
20
50
0
VERTEX
8
CUT
10
110
20
54.2857
0
VERTEX
8
CUT
10
114.2857
20
54.2857
0
VERTEX
8
CUT
10
114.2857
20
51.4286
0
VERTEX
8
CUT
10
111.4286
20
51.4286
0
VERTEX
8
CUT
10
111.4286
20
52.8571
0
VERTEX
8
CUT
10
112.8571
20
52.8571
0
SEQEND
0
POLYLINE
8
CUT
66
1
70
0
0
VERTEX
8
CUT
10
115
20
55
0
VERTEX
8
CUT
10
119.2857
20
55
0
VERTEX
8
CUT
10
119.2857
20
50.7143
0
VERTEX
8
CUT
10
116.4286
20
50.7143
0
VERTEX
8
CUT
10
116.4286
20
53.5714
0
VERTEX
8
CUT
10
117.8571
20
53.5714
0
VERTEX
8
CUT
10
117.8571
20
52.1429
0
SEQEND
0
POLYLINE
8
CUT
66
1
70
0
0
VERTEX
8
CUT
10
120
20
50
0
VERTEX
8
CUT
10
115.7143
20
50
0
VERTEX
8
CUT
10
115.7143
20
54.2857
0
VERTEX
8
CUT
10
118.5714
20
54.2857
0
VERTEX
8
CUT
10
118.5714
20
51.4286
0
VERTEX
8
CUT
10
117.1429
20
51.4286
0
VERTEX
8
CUT
10
117.1429
20
52.8571
0
SEQEND
0
POLYLINE
8
CUT
66
1
70
0
0
VERTEX
8
CUT
10
0
20
50
0
VERTEX
8
CUT
10
4.2857
20
50
0
VERTEX
8
CUT
10
4.2857
20
45.7143
0
VERTEX
8
CUT
10
1.4286
20
45.7143
0
VERTEX
8
CUT
10
1.4286
20
48.5714
0
VERTEX
8
CUT
10
2.8571
20
48.5714
0
VERTEX
8
CUT
10
2.8571
20
47.1429
0
SEQEND
0
POLYLINE
8
CUT
66
1
70
0
0
VERTEX
8
CUT
10
5
20
45
0
VERTEX
8
CUT
10
0.7143
20
45
0
VERTEX
8
CUT
10
0.7143
20
49.2857
0
VERTEX
8
CUT
10
3.5714
20
49.2857
0
VERTEX
8
CUT
10
3.5714
20
46.4286
0
VERTEX
8
CUT
10
2.1429
20
46.4286
0
VERTEX
8
CUT
10
2.1429
20
47.8571
0
SEQEND
0
POLYLINE
8
CUT
66
1
70
0
0
VERTEX
8
CUT
10
10
20
50
0
VERTEX
8
CUT
10
10
20
45.7143
0
VERTEX
8
CUT
10
5.7143
20
45.7143
0
VERTEX
8
CUT
10
5.7143
20
48.5714
0
VERTEX
8
CUT
10
8.5714
20
48.5714
0
VERTEX
8
CUT
10
8.5714
20
47.1429
0
VERTEX
8
CUT
10
7.1429
20
47.1429
0
SEQEND
0
POLYLINE
8
CUT
66
1
70
0
0
VERTEX
8
CUT
10
5
20
45
0
VERTEX
8
CUT
10
5
20
49.2857
0
VERTEX
8
CUT
10
9.2857
20
49.2857
0
VERTEX
8
CUT
10
9.2857
20
46.4286
0
VERTEX
8
CUT
10
6.4286
20
46.4286
0
VERTEX
8
CUT
10
6.4286
20
47.8571
0
VERTEX
8
CUT
10
7.8571
20
47.8571
0
SEQEND
0
POLYLINE
8
CUT
66
1
70
0
0
VERTEX
8
CUT
10
10
20
50
0
VERTEX
8
CUT
10
14.2857
20
50
0
VERTEX
8
CUT
10
14.2857
20
45.7143
0
VERTEX
8
CUT
10
11.4286
20
45.7143
0
VERTEX
8
CUT
10
11.4286
20
48.5714
0
VERTEX
8
CUT
10
12.8571
20
48.5714
0
VERTEX
8
CUT
10
12.8571
20
47.1429
0
SEQEND
0
POLYLINE
8
CUT
66
1
70
0
0
VERTEX
8
CUT
10
15
20
45
0
VERTEX
8
CUT
10
10.7143
20
45
0
VERTEX
8
CUT
10
10.7143
20
49.2857
0
VERTEX
8
CUT
10
13.5714
20
49.2857
0
VERTEX
8
CUT
10
13.5714
20
46.4286
0
VERTEX
8
CUT
10
12.1429
20
46.4286
0
VERTEX
8
CUT
10
12.1429
20
47.8571
0
SEQEND
0
POLYLINE
8
CUT
66
1
70
0
0
VERTEX
8
CUT
10
20
20
50
0
VERTEX
8
CUT
10
20
20
45.7143
0
VERTEX
8
CUT
10
15.7143
20
45.7143
0
VERTEX
8
CUT
10
15.7143
20
48.5714
0
VERTEX
8
CUT
10
18.5714
20
48.5714
0
VERTEX
8
CUT
10
18.5714
20
47.1429
0
VERTEX
8
CUT
10
17.1429
20
47.1429
0
SEQEND
0
POLYLINE
8
CUT
66
1
70
0
0
VERTEX
8
CUT
10
15
20
45
0
VERTEX
8
CUT
10
15
20
49.2857
0
VERTEX
8
CUT
10
19.2857
20
49.2857
0
VERTEX
8
CUT
10
19.2857
20
46.4286
0
VERTEX
8
CUT
10
16.4286
20
46.4286
0
VERTEX
8
CUT
10
16.4286
20
47.8571
0
VERTEX
8
CUT
10
17.8571
20
47.8571
0
SEQEND
0
POLYLINE
8
CUT
66
1
70
0
0
VERTEX
8
CUT
10
20
20
50
0
VERTEX
8
CUT
10
24.2857
20
50
0
VERTEX
8
CUT
10
24.2857
20
45.7143
0
VERTEX
8
CUT
10
21.4286
20
45.7143
0
VERTEX
8
CUT
10
21.4286
20
48.5714
0
VERTEX
8
CUT
10
22.8571
20
48.5714
0
VERTEX
8
CUT
10
22.8571
20
47.1429
0
SEQEND
0
POLYLINE
8
CUT
66
1
70
0
0
VERTEX
8
CUT
10
25
20
45
0
VERTEX
8
CUT
10
20.7143
20
45
0
VERTEX
8
CUT
10
20.7143
20
49.2857
0
VERTEX
8
CUT
10
23.5714
20
49.2857
0
VERTEX
8
CUT
10
23.5714
20
46.4286
0
VERTEX
8
CUT
10
22.1429
20
46.4286
0
VERTEX
8
CUT
10
22.1429
20
47.8571
0
SEQEND
0
POLYLINE
8
CUT
66
1
70
0
0
VERTEX
8
CUT
10
30
20
50
0
VERTEX
8
CUT
10
30
20
45.7143
0
VERTEX
8
CUT
10
25.7143
20
45.7143
0
VERTEX
8
CUT
10
25.7143
20
48.5714
0
VERTEX
8
CUT
10
28.5714
20
48.5714
0
VERTEX
8
CUT
10
28.5714
20
47.1429
0
VERTEX
8
CUT
10
27.1429
20
47.1429
0
SEQEND
0
POLYLINE
8
CUT
66
1
70
0
0
VERTEX
8
CUT
10
25
20
45
0
VERTEX
8
CUT
10
25
20
49.2857
0
VERTEX
8
CUT
10
29.2857
20
49.2857
0
VERTEX
8
CUT
10
29.2857
20
46.4286
0
VERTEX
8
CUT
10
26.4286
20
46.4286
0
VERTEX
8
CUT
10
26.4286
20
47.8571
0
VERTEX
8
CUT
10
27.8571
20
47.8571
0
SEQEND
0
POLYLINE
8
CUT
66
1
70
0
0
VERTEX
8
CUT
10
30
20
50
0
VERTEX
8
CUT
10
34.2857
20
50
0
VERTEX
8
CUT
10
34.2857
20
45.7143
0
VERTEX
8
CUT
10
31.4286
20
45.7143
0
VERTEX
8
CUT
10
31.4286
20
48.5714
0
VERTEX
8
CUT
10
32.8571
20
48.5714
0
VERTEX
8
CUT
10
32.8571
20
47.1429
0
SEQEND
0
POLYLINE
8
CUT
66
1
70
0
0
VERTEX
8
CUT
10
35
20
45
0
VERTEX
8
CUT
10
30.7143
20
45
0
VERTEX
8
CUT
10
30.7143
20
49.2857
0
VERTEX
8
CUT
10
33.5714
20
49.2857
0
VERTEX
8
CUT
10
33.5714
20
46.4286
0
VERTEX
8
CUT
10
32.1429
20
46.4286
0
VERTEX
8
CUT
10
32.1429
20
47.8571
0
SEQEND
0
POLYLINE
8
CUT
66
1
70
0
0
VERTEX
8
CUT
10
40
20
50
0
VERTEX
8
CUT
10
40
20
45.7143
0
VERTEX
8
CUT
10
35.7143
20
45.7143
0
VERTEX
8
CUT
10
35.7143
20
48.5714
0
VERTEX
8
CUT
10
38.5714
20
48.5714
0
VERTEX
8
CUT
10
38.5714
20
47.1429
0
VERTEX
8
CUT
10
37.1429
20
47.1429
0
SEQEND
0
POLYLINE
8
CUT
66
1
70
0
0
VERTEX
8
CUT
10
35
20
45
0
VERTEX
8
CUT
10
35
20
49.2857
0
VERTEX
8
CUT
10
39.2857
20
49.2857
0
VERTEX
8
CUT
10
39.2857
20
46.4286
0
VERTEX
8
CUT
10
36.4286
20
46.4286
0
VERTEX
8
CUT
10
36.4286
20
47.8571
0
VERTEX
8
CUT
10
37.8571
20
47.8571
0
SEQEND
0
POLYLINE
8
CUT
66
1
70
0
0
VERTEX
8
CUT
10
40
20
50
0
VERTEX
8
CUT
10
44.2857
20
50
0
VERTEX
8
CUT
10
44.2857
20
45.7143
0
VERTEX
8
CUT
10
41.4286
20
45.7143
0
VERTEX
8
CUT
10
41.4286
20
48.5714
0
VERTEX
8
CUT
10
42.8571
20
48.5714
0
VERTEX
8
CUT
10
42.8571
20
47.1429
0
SEQEND
0
POLYLINE
8
CUT
66
1
70
0
0
VERTEX
8
CUT
10
45
20
45
0
VERTEX
8
CUT
10
40.7143
20
45
0
VERTEX
8
CUT
10
40.7143
20
49.2857
0
VERTEX
8
CUT
10
43.5714
20
49.2857
0
VERTEX
8
CUT
10
43.5714
20
46.4286
0
VERTEX
8
CUT
10
42.1429
20
46.4286
0
VERTEX
8
CUT
10
42.1429
20
47.8571
0
SEQEND
0
POLYLINE
8
CUT
66
1
70
0
0
VERTEX
8
CUT
10
50
20
50
0
VERTEX
8
CUT
10
50
20
45.7143
0
VERTEX
8
CUT
10
45.7143
20
45.7143
0
VERTEX
8
CUT
10
45.7143
20
48.5714
0
VERTEX
8
CUT
10
48.5714
20
48.5714
0
VERTEX
8
CUT
10
48.5714
20
47.1429
0
VERTEX
8
CUT
10
47.1429
20
47.1429
0
SEQEND
0
POLYLINE
8
CUT
66
1
70
0
0
VERTEX
8
CUT
10
45
20
45
0
VERTEX
8
CUT
10
45
20
49.2857
0
VERTEX
8
CUT
10
49.2857
20
49.2857
0
VERTEX
8
CUT
10
49.2857
20
46.4286
0
VERTEX
8
CUT
10
46.4286
20
46.4286
0
VERTEX
8
CUT
10
46.4286
20
47.8571
0
VERTEX
8
CUT
10
47.8571
20
47.8571
0
SEQEND
0
POLYLINE
8
CUT
66
1
70
0
0
VERTEX
8
CUT
10
50
20
50
0
VERTEX
8
CUT
10
54.2857
20
50
0
VERTEX
8
CUT
10
54.2857
20
45.7143
0
VERTEX
8
CUT
10
51.4286
20
45.7143
0
VERTEX
8
CUT
10
51.4286
20
48.5714
0
VERTEX
8
CUT
10
52.8571
20
48.5714
0
VERTEX
8
CUT
10
52.8571
20
47.1429
0
SEQEND
0
POLYLINE
8
CUT
66
1
70
0
0
VERTEX
8
CUT
10
55
20
45
0
VERTEX
8
CUT
10
50.7143
20
45
0
VERTEX
8
CUT
10
50.7143
20
49.2857
0
VERTEX
8
CUT
10
53.5714
20
49.2857
0
VERTEX
8
CUT
10
53.5714
20
46.4286
0
VERTEX
8
CUT
10
52.1429
20
46.4286
0
VERTEX
8
CUT
10
52.1429
20
47.8571
0
SEQEND
0
POLYLINE
8
CUT
66
1
70
0
0
VERTEX
8
CUT
10
60
20
50
0
VERTEX
8
CUT
10
60
20
45.7143
0
VERTEX
8
CUT
10
55.7143
20
45.7143
0
VERTEX
8
CUT
10
55.7143
20
48.5714
0
VERTEX
8
CUT
10
58.5714
20
48.5714
0
VERTEX
8
CUT
10
58.5714
20
47.1429
0
VERTEX
8
CUT
10
57.1429
20
47.1429
0
SEQEND
0
POLYLINE
8
CUT
66
1
70
0
0
VERTEX
8
CUT
10
55
20
45
0
VERTEX
8
CUT
10
55
20
49.2857
0
VERTEX
8
CUT
10
59.2857
20
49.2857
0
VERTEX
8
CUT
10
59.2857
20
46.4286
0
VERTEX
8
CUT
10
56.4286
20
46.4286
0
VERTEX
8
CUT
10
56.4286
20
47.8571
0
VERTEX
8
CUT
10
57.8571
20
47.8571
0
SEQEND
0
POLYLINE
8
CUT
66
1
70
0
0
VERTEX
8
CUT
10
60
20
50
0
VERTEX
8
CUT
10
64.2857
20
50
0
VERTEX
8
CUT
10
64.2857
20
45.7143
0
VERTEX
8
CUT
10
61.4286
20
45.7143
0
VERTEX
8
CUT
10
61.4286
20
48.5714
0
VERTEX
8
CUT
10
62.8571
20
48.5714
0
VERTEX
8
CUT
10
62.8571
20
47.1429
0
SEQEND
0
POLYLINE
8
CUT
66
1
70
0
0
VERTEX
8
CUT
10
65
20
45
0
VERTEX
8
CUT
10
60.7143
20
45
0
VERTEX
8
CUT
10
60.7143
20
49.2857
0
VERTEX
8
CUT
10
63.5714
20
49.2857
0
VERTEX
8
CUT
10
63.5714
20
46.4286
0
VERTEX
8
CUT
10
62.1429
20
46.4286
0
VERTEX
8
CUT
10
62.1429
20
47.8571
0
SEQEND
0
POLYLINE
8
CUT
66
1
70
0
0
VERTEX
8
CUT
10
70
20
50
0
VERTEX
8
CUT
10
70
20
45.7143
0
VERTEX
8
CUT
10
65.7143
20
45.7143
0
VERTEX
8
CUT
10
65.7143
20
48.5714
0
VERTEX
8
CUT
10
68.5714
20
48.5714
0
VERTEX
8
CUT
10
68.5714
20
47.1429
0
VERTEX
8
CUT
10
67.1429
20
47.1429
0
SEQEND
0
POLYLINE
8
CUT
66
1
70
0
0
VERTEX
8
CUT
10
65
20
45
0
VERTEX
8
CUT
10
65
20
49.2857
0
VERTEX
8
CUT
10
69.2857
20
49.2857
0
VERTEX
8
CUT
10
69.2857
20
46.4286
0
VERTEX
8
CUT
10
66.4286
20
46.4286
0
VERTEX
8
CUT
10
66.4286
20
47.8571
0
VERTEX
8
CUT
10
67.8571
20
47.8571
0
SEQEND
0
POLYLINE
8
CUT
66
1
70
0
0
VERTEX
8
CUT
10
70
20
50
0
VERTEX
8
CUT
10
74.2857
20
50
0
VERTEX
8
CUT
10
74.2857
20
45.7143
0
VERTEX
8
CUT
10
71.4286
20
45.7143
0
VERTEX
8
CUT
10
71.4286
20
48.5714
0
VERTEX
8
CUT
10
72.8571
20
48.5714
0
VERTEX
8
CUT
10
72.8571
20
47.1429
0
SEQEND
0
POLYLINE
8
CUT
66
1
70
0
0
VERTEX
8
CUT
10
75
20
45
0
VERTEX
8
CUT
10
70.7143
20
45
0
VERTEX
8
CUT
10
70.7143
20
49.2857
0
VERTEX
8
CUT
10
73.5714
20
49.2857
0
VERTEX
8
CUT
10
73.5714
20
46.4286
0
VERTEX
8
CUT
10
72.1429
20
46.4286
0
VERTEX
8
CUT
10
72.1429
20
47.8571
0
SEQEND
0
POLYLINE
8
CUT
66
1
70
0
0
VERTEX
8
CUT
10
80
20
50
0
VERTEX
8
CUT
10
80
20
45.7143
0
VERTEX
8
CUT
10
75.7143
20
45.7143
0
VERTEX
8
CUT
10
75.7143
20
48.5714
0
VERTEX
8
CUT
10
78.5714
20
48.5714
0
VERTEX
8
CUT
10
78.5714
20
47.1429
0
VERTEX
8
CUT
10
77.1429
20
47.1429
0
SEQEND
0
POLYLINE
8
CUT
66
1
70
0
0
VERTEX
8
CUT
10
75
20
45
0
VERTEX
8
CUT
10
75
20
49.2857
0
VERTEX
8
CUT
10
79.2857
20
49.2857
0
VERTEX
8
CUT
10
79.2857
20
46.4286
0
VERTEX
8
CUT
10
76.4286
20
46.4286
0
VERTEX
8
CUT
10
76.4286
20
47.8571
0
VERTEX
8
CUT
10
77.8571
20
47.8571
0
SEQEND
0
POLYLINE
8
CUT
66
1
70
0
0
VERTEX
8
CUT
10
80
20
50
0
VERTEX
8
CUT
10
84.2857
20
50
0
VERTEX
8
CUT
10
84.2857
20
45.7143
0
VERTEX
8
CUT
10
81.4286
20
45.7143
0
VERTEX
8
CUT
10
81.4286
20
48.5714
0
VERTEX
8
CUT
10
82.8571
20
48.5714
0
VERTEX
8
CUT
10
82.8571
20
47.1429
0
SEQEND
0
POLYLINE
8
CUT
66
1
70
0
0
VERTEX
8
CUT
10
85
20
45
0
VERTEX
8
CUT
10
80.7143
20
45
0
VERTEX
8
CUT
10
80.7143
20
49.2857
0
VERTEX
8
CUT
10
83.5714
20
49.2857
0
VERTEX
8
CUT
10
83.5714
20
46.4286
0
VERTEX
8
CUT
10
82.1429
20
46.4286
0
VERTEX
8
CUT
10
82.1429
20
47.8571
0
SEQEND
0
POLYLINE
8
CUT
66
1
70
0
0
VERTEX
8
CUT
10
90
20
50
0
VERTEX
8
CUT
10
90
20
45.7143
0
VERTEX
8
CUT
10
85.7143
20
45.7143
0
VERTEX
8
CUT
10
85.7143
20
48.5714
0
VERTEX
8
CUT
10
88.5714
20
48.5714
0
VERTEX
8
CUT
10
88.5714
20
47.1429
0
VERTEX
8
CUT
10
87.1429
20
47.1429
0
SEQEND
0
POLYLINE
8
CUT
66
1
70
0
0
VERTEX
8
CUT
10
85
20
45
0
VERTEX
8
CUT
10
85
20
49.2857
0
VERTEX
8
CUT
10
89.2857
20
49.2857
0
VERTEX
8
CUT
10
89.2857
20
46.4286
0
VERTEX
8
CUT
10
86.4286
20
46.4286
0
VERTEX
8
CUT
10
86.4286
20
47.8571
0
VERTEX
8
CUT
10
87.8571
20
47.8571
0
SEQEND
0
POLYLINE
8
CUT
66
1
70
0
0
VERTEX
8
CUT
10
90
20
50
0
VERTEX
8
CUT
10
94.2857
20
50
0
VERTEX
8
CUT
10
94.2857
20
45.7143
0
VERTEX
8
CUT
10
91.4286
20
45.7143
0
VERTEX
8
CUT
10
91.4286
20
48.5714
0
VERTEX
8
CUT
10
92.8571
20
48.5714
0
VERTEX
8
CUT
10
92.8571
20
47.1429
0
SEQEND
0
POLYLINE
8
CUT
66
1
70
0
0
VERTEX
8
CUT
10
95
20
45
0
VERTEX
8
CUT
10
90.7143
20
45
0
VERTEX
8
CUT
10
90.7143
20
49.2857
0
VERTEX
8
CUT
10
93.5714
20
49.2857
0
VERTEX
8
CUT
10
93.5714
20
46.4286
0
VERTEX
8
CUT
10
92.1429
20
46.4286
0
VERTEX
8
CUT
10
92.1429
20
47.8571
0
SEQEND
0
POLYLINE
8
CUT
66
1
70
0
0
VERTEX
8
CUT
10
100
20
50
0
VERTEX
8
CUT
10
100
20
45.7143
0
VERTEX
8
CUT
10
95.7143
20
45.7143
0
VERTEX
8
CUT
10
95.7143
20
48.5714
0
VERTEX
8
CUT
10
98.5714
20
48.5714
0
VERTEX
8
CUT
10
98.5714
20
47.1429
0
VERTEX
8
CUT
10
97.1429
20
47.1429
0
SEQEND
0
POLYLINE
8
CUT
66
1
70
0
0
VERTEX
8
CUT
10
95
20
45
0
VERTEX
8
CUT
10
95
20
49.2857
0
VERTEX
8
CUT
10
99.2857
20
49.2857
0
VERTEX
8
CUT
10
99.2857
20
46.4286
0
VERTEX
8
CUT
10
96.4286
20
46.4286
0
VERTEX
8
CUT
10
96.4286
20
47.8571
0
VERTEX
8
CUT
10
97.8571
20
47.8571
0
SEQEND
0
POLYLINE
8
CUT
66
1
70
0
0
VERTEX
8
CUT
10
100
20
50
0
VERTEX
8
CUT
10
104.2857
20
50
0
VERTEX
8
CUT
10
104.2857
20
45.7143
0
VERTEX
8
CUT
10
101.4286
20
45.7143
0
VERTEX
8
CUT
10
101.4286
20
48.5714
0
VERTEX
8
CUT
10
102.8571
20
48.5714
0
VERTEX
8
CUT
10
102.8571
20
47.1429
0
SEQEND
0
POLYLINE
8
CUT
66
1
70
0
0
VERTEX
8
CUT
10
105
20
45
0
VERTEX
8
CUT
10
100.7143
20
45
0
VERTEX
8
CUT
10
100.7143
20
49.2857
0
VERTEX
8
CUT
10
103.5714
20
49.2857
0
VERTEX
8
CUT
10
103.5714
20
46.4286
0
VERTEX
8
CUT
10
102.1429
20
46.4286
0
VERTEX
8
CUT
10
102.1429
20
47.8571
0
SEQEND
0
POLYLINE
8
CUT
66
1
70
0
0
VERTEX
8
CUT
10
110
20
50
0
VERTEX
8
CUT
10
110
20
45.7143
0
VERTEX
8
CUT
10
105.7143
20
45.7143
0
VERTEX
8
CUT
10
105.7143
20
48.5714
0
VERTEX
8
CUT
10
108.5714
20
48.5714
0
VERTEX
8
CUT
10
108.5714
20
47.1429
0
VERTEX
8
CUT
10
107.1429
20
47.1429
0
SEQEND
0
POLYLINE
8
CUT
66
1
70
0
0
VERTEX
8
CUT
10
105
20
45
0
VERTEX
8
CUT
10
105
20
49.2857
0
VERTEX
8
CUT
10
109.2857
20
49.2857
0
VERTEX
8
CUT
10
109.2857
20
46.4286
0
VERTEX
8
CUT
10
106.4286
20
46.4286
0
VERTEX
8
CUT
10
106.4286
20
47.8571
0
VERTEX
8
CUT
10
107.8571
20
47.8571
0
SEQEND
0
POLYLINE
8
CUT
66
1
70
0
0
VERTEX
8
CUT
10
110
20
50
0
VERTEX
8
CUT
10
114.2857
20
50
0
VERTEX
8
CUT
10
114.2857
20
45.7143
0
VERTEX
8
CUT
10
111.4286
20
45.7143
0
VERTEX
8
CUT
10
111.4286
20
48.5714
0
VERTEX
8
CUT
10
112.8571
20
48.5714
0
VERTEX
8
CUT
10
112.8571
20
47.1429
0
SEQEND
0
POLYLINE
8
CUT
66
1
70
0
0
VERTEX
8
CUT
10
115
20
45
0
VERTEX
8
CUT
10
110.7143
20
45
0
VERTEX
8
CUT
10
110.7143
20
49.2857
0
VERTEX
8
CUT
10
113.5714
20
49.2857
0
VERTEX
8
CUT
10
113.5714
20
46.4286
0
VERTEX
8
CUT
10
112.1429
20
46.4286
0
VERTEX
8
CUT
10
112.1429
20
47.8571
0
SEQEND
0
POLYLINE
8
CUT
66
1
70
0
0
VERTEX
8
CUT
10
120
20
50
0
VERTEX
8
CUT
10
120
20
45.7143
0
VERTEX
8
CUT
10
115.7143
20
45.7143
0
VERTEX
8
CUT
10
115.7143
20
48.5714
0
VERTEX
8
CUT
10
118.5714
20
48.5714
0
VERTEX
8
CUT
10
118.5714
20
47.1429
0
VERTEX
8
CUT
10
117.1429
20
47.1429
0
SEQEND
0
POLYLINE
8
CUT
66
1
70
0
0
VERTEX
8
CUT
10
115
20
45
0
VERTEX
8
CUT
10
115
20
49.2857
0
VERTEX
8
CUT
10
119.2857
20
49.2857
0
VERTEX
8
CUT
10
119.2857
20
46.4286
0
VERTEX
8
CUT
10
116.4286
20
46.4286
0
VERTEX
8
CUT
10
116.4286
20
47.8571
0
VERTEX
8
CUT
10
117.8571
20
47.8571
0
SEQEND
0
POLYLINE
8
CUT
66
1
70
0
0
VERTEX
8
CUT
10
5
20
45
0
VERTEX
8
CUT
10
5
20
40.7143
0
VERTEX
8
CUT
10
0.7143
20
40.7143
0
VERTEX
8
CUT
10
0.7143
20
43.5714
0
VERTEX
8
CUT
10
3.5714
20
43.5714
0
VERTEX
8
CUT
10
3.5714
20
42.1429
0
VERTEX
8
CUT
10
2.1429
20
42.1429
0
SEQEND
0
POLYLINE
8
CUT
66
1
70
0
0
VERTEX
8
CUT
10
0
20
40
0
VERTEX
8
CUT
10
0
20
44.2857
0
VERTEX
8
CUT
10
4.2857
20
44.2857
0
VERTEX
8
CUT
10
4.2857
20
41.4286
0
VERTEX
8
CUT
10
1.4286
20
41.4286
0
VERTEX
8
CUT
10
1.4286
20
42.8571
0
VERTEX
8
CUT
10
2.8571
20
42.8571
0
SEQEND
0
POLYLINE
8
CUT
66
1
70
0
0
VERTEX
8
CUT
10
5
20
45
0
VERTEX
8
CUT
10
9.2857
20
45
0
VERTEX
8
CUT
10
9.2857
20
40.7143
0
VERTEX
8
CUT
10
6.4286
20
40.7143
0
VERTEX
8
CUT
10
6.4286
20
43.5714
0
VERTEX
8
CUT
10
7.8571
20
43.5714
0
VERTEX
8
CUT
10
7.8571
20
42.1429
0
SEQEND
0
POLYLINE
8
CUT
66
1
70
0
0
VERTEX
8
CUT
10
10
20
40
0
VERTEX
8
CUT
10
5.7143
20
40
0
VERTEX
8
CUT
10
5.7143
20
44.2857
0
VERTEX
8
CUT
10
8.5714
20
44.2857
0
VERTEX
8
CUT
10
8.5714
20
41.4286
0
VERTEX
8
CUT
10
7.1429
20
41.4286
0
VERTEX
8
CUT
10
7.1429
20
42.8571
0
SEQEND
0
POLYLINE
8
CUT
66
1
70
0
0
VERTEX
8
CUT
10
15
20
45
0
VERTEX
8
CUT
10
15
20
40.7143
0
VERTEX
8
CUT
10
10.7143
20
40.7143
0
VERTEX
8
CUT
10
10.7143
20
43.5714
0
VERTEX
8
CUT
10
13.5714
20
43.5714
0
VERTEX
8
CUT
10
13.5714
20
42.1429
0
VERTEX
8
CUT
10
12.1429
20
42.1429
0
SEQEND
0
POLYLINE
8
CUT
66
1
70
0
0
VERTEX
8
CUT
10
10
20
40
0
VERTEX
8
CUT
10
10
20
44.2857
0
VERTEX
8
CUT
10
14.2857
20
44.2857
0
VERTEX
8
CUT
10
14.2857
20
41.4286
0
VERTEX
8
CUT
10
11.4286
20
41.4286
0
VERTEX
8
CUT
10
11.4286
20
42.8571
0
VERTEX
8
CUT
10
12.8571
20
42.8571
0
SEQEND
0
POLYLINE
8
CUT
66
1
70
0
0
VERTEX
8
CUT
10
15
20
45
0
VERTEX
8
CUT
10
19.2857
20
45
0
VERTEX
8
CUT
10
19.2857
20
40.7143
0
VERTEX
8
CUT
10
16.4286
20
40.7143
0
VERTEX
8
CUT
10
16.4286
20
43.5714
0
VERTEX
8
CUT
10
17.8571
20
43.5714
0
VERTEX
8
CUT
10
17.8571
20
42.1429
0
SEQEND
0
POLYLINE
8
CUT
66
1
70
0
0
VERTEX
8
CUT
10
20
20
40
0
VERTEX
8
CUT
10
15.7143
20
40
0
VERTEX
8
CUT
10
15.7143
20
44.2857
0
VERTEX
8
CUT
10
18.5714
20
44.2857
0
VERTEX
8
CUT
10
18.5714
20
41.4286
0
VERTEX
8
CUT
10
17.1429
20
41.4286
0
VERTEX
8
CUT
10
17.1429
20
42.8571
0
SEQEND
0
POLYLINE
8
CUT
66
1
70
0
0
VERTEX
8
CUT
10
25
20
45
0
VERTEX
8
CUT
10
25
20
40.7143
0
VERTEX
8
CUT
10
20.7143
20
40.7143
0
VERTEX
8
CUT
10
20.7143
20
43.5714
0
VERTEX
8
CUT
10
23.5714
20
43.5714
0
VERTEX
8
CUT
10
23.5714
20
42.1429
0
VERTEX
8
CUT
10
22.1429
20
42.1429
0
SEQEND
0
POLYLINE
8
CUT
66
1
70
0
0
VERTEX
8
CUT
10
20
20
40
0
VERTEX
8
CUT
10
20
20
44.2857
0
VERTEX
8
CUT
10
24.2857
20
44.2857
0
VERTEX
8
CUT
10
24.2857
20
41.4286
0
VERTEX
8
CUT
10
21.4286
20
41.4286
0
VERTEX
8
CUT
10
21.4286
20
42.8571
0
VERTEX
8
CUT
10
22.8571
20
42.8571
0
SEQEND
0
POLYLINE
8
CUT
66
1
70
0
0
VERTEX
8
CUT
10
25
20
45
0
VERTEX
8
CUT
10
29.2857
20
45
0
VERTEX
8
CUT
10
29.2857
20
40.7143
0
VERTEX
8
CUT
10
26.4286
20
40.7143
0
VERTEX
8
CUT
10
26.4286
20
43.5714
0
VERTEX
8
CUT
10
27.8571
20
43.5714
0
VERTEX
8
CUT
10
27.8571
20
42.1429
0
SEQEND
0
POLYLINE
8
CUT
66
1
70
0
0
VERTEX
8
CUT
10
30
20
40
0
VERTEX
8
CUT
10
25.7143
20
40
0
VERTEX
8
CUT
10
25.7143
20
44.2857
0
VERTEX
8
CUT
10
28.5714
20
44.2857
0
VERTEX
8
CUT
10
28.5714
20
41.4286
0
VERTEX
8
CUT
10
27.1429
20
41.4286
0
VERTEX
8
CUT
10
27.1429
20
42.8571
0
SEQEND
0
POLYLINE
8
CUT
66
1
70
0
0
VERTEX
8
CUT
10
35
20
45
0
VERTEX
8
CUT
10
35
20
40.7143
0
VERTEX
8
CUT
10
30.7143
20
40.7143
0
VERTEX
8
CUT
10
30.7143
20
43.5714
0
VERTEX
8
CUT
10
33.5714
20
43.5714
0
VERTEX
8
CUT
10
33.5714
20
42.1429
0
VERTEX
8
CUT
10
32.1429
20
42.1429
0
SEQEND
0
POLYLINE
8
CUT
66
1
70
0
0
VERTEX
8
CUT
10
30
20
40
0
VERTEX
8
CUT
10
30
20
44.2857
0
VERTEX
8
CUT
10
34.2857
20
44.2857
0
VERTEX
8
CUT
10
34.2857
20
41.4286
0
VERTEX
8
CUT
10
31.4286
20
41.4286
0
VERTEX
8
CUT
10
31.4286
20
42.8571
0
VERTEX
8
CUT
10
32.8571
20
42.8571
0
SEQEND
0
POLYLINE
8
CUT
66
1
70
0
0
VERTEX
8
CUT
10
35
20
45
0
VERTEX
8
CUT
10
39.2857
20
45
0
VERTEX
8
CUT
10
39.2857
20
40.7143
0
VERTEX
8
CUT
10
36.4286
20
40.7143
0
VERTEX
8
CUT
10
36.4286
20
43.5714
0
VERTEX
8
CUT
10
37.8571
20
43.5714
0
VERTEX
8
CUT
10
37.8571
20
42.1429
0
SEQEND
0
POLYLINE
8
CUT
66
1
70
0
0
VERTEX
8
CUT
10
40
20
40
0
VERTEX
8
CUT
10
35.7143
20
40
0
VERTEX
8
CUT
10
35.7143
20
44.2857
0
VERTEX
8
CUT
10
38.5714
20
44.2857
0
VERTEX
8
CUT
10
38.5714
20
41.4286
0
VERTEX
8
CUT
10
37.1429
20
41.4286
0
VERTEX
8
CUT
10
37.1429
20
42.8571
0
SEQEND
0
POLYLINE
8
CUT
66
1
70
0
0
VERTEX
8
CUT
10
45
20
45
0
VERTEX
8
CUT
10
45
20
40.7143
0
VERTEX
8
CUT
10
40.7143
20
40.7143
0
VERTEX
8
CUT
10
40.7143
20
43.5714
0
VERTEX
8
CUT
10
43.5714
20
43.5714
0
VERTEX
8
CUT
10
43.5714
20
42.1429
0
VERTEX
8
CUT
10
42.1429
20
42.1429
0
SEQEND
0
POLYLINE
8
CUT
66
1
70
0
0
VERTEX
8
CUT
10
40
20
40
0
VERTEX
8
CUT
10
40
20
44.2857
0
VERTEX
8
CUT
10
44.2857
20
44.2857
0
VERTEX
8
CUT
10
44.2857
20
41.4286
0
VERTEX
8
CUT
10
41.4286
20
41.4286
0
VERTEX
8
CUT
10
41.4286
20
42.8571
0
VERTEX
8
CUT
10
42.8571
20
42.8571
0
SEQEND
0
POLYLINE
8
CUT
66
1
70
0
0
VERTEX
8
CUT
10
45
20
45
0
VERTEX
8
CUT
10
49.2857
20
45
0
VERTEX
8
CUT
10
49.2857
20
40.7143
0
VERTEX
8
CUT
10
46.4286
20
40.7143
0
VERTEX
8
CUT
10
46.4286
20
43.5714
0
VERTEX
8
CUT
10
47.8571
20
43.5714
0
VERTEX
8
CUT
10
47.8571
20
42.1429
0
SEQEND
0
POLYLINE
8
CUT
66
1
70
0
0
VERTEX
8
CUT
10
50
20
40
0
VERTEX
8
CUT
10
45.7143
20
40
0
VERTEX
8
CUT
10
45.7143
20
44.2857
0
VERTEX
8
CUT
10
48.5714
20
44.2857
0
VERTEX
8
CUT
10
48.5714
20
41.4286
0
VERTEX
8
CUT
10
47.1429
20
41.4286
0
VERTEX
8
CUT
10
47.1429
20
42.8571
0
SEQEND
0
POLYLINE
8
CUT
66
1
70
0
0
VERTEX
8
CUT
10
55
20
45
0
VERTEX
8
CUT
10
55
20
40.7143
0
VERTEX
8
CUT
10
50.7143
20
40.7143
0
VERTEX
8
CUT
10
50.7143
20
43.5714
0
VERTEX
8
CUT
10
53.5714
20
43.5714
0
VERTEX
8
CUT
10
53.5714
20
42.1429
0
VERTEX
8
CUT
10
52.1429
20
42.1429
0
SEQEND
0
POLYLINE
8
CUT
66
1
70
0
0
VERTEX
8
CUT
10
50
20
40
0
VERTEX
8
CUT
10
50
20
44.2857
0
VERTEX
8
CUT
10
54.2857
20
44.2857
0
VERTEX
8
CUT
10
54.2857
20
41.4286
0
VERTEX
8
CUT
10
51.4286
20
41.4286
0
VERTEX
8
CUT
10
51.4286
20
42.8571
0
VERTEX
8
CUT
10
52.8571
20
42.8571
0
SEQEND
0
POLYLINE
8
CUT
66
1
70
0
0
VERTEX
8
CUT
10
55
20
45
0
VERTEX
8
CUT
10
59.2857
20
45
0
VERTEX
8
CUT
10
59.2857
20
40.7143
0
VERTEX
8
CUT
10
56.4286
20
40.7143
0
VERTEX
8
CUT
10
56.4286
20
43.5714
0
VERTEX
8
CUT
10
57.8571
20
43.5714
0
VERTEX
8
CUT
10
57.8571
20
42.1429
0
SEQEND
0
POLYLINE
8
CUT
66
1
70
0
0
VERTEX
8
CUT
10
60
20
40
0
VERTEX
8
CUT
10
55.7143
20
40
0
VERTEX
8
CUT
10
55.7143
20
44.2857
0
VERTEX
8
CUT
10
58.5714
20
44.2857
0
VERTEX
8
CUT
10
58.5714
20
41.4286
0
VERTEX
8
CUT
10
57.1429
20
41.4286
0
VERTEX
8
CUT
10
57.1429
20
42.8571
0
SEQEND
0
POLYLINE
8
CUT
66
1
70
0
0
VERTEX
8
CUT
10
65
20
45
0
VERTEX
8
CUT
10
65
20
40.7143
0
VERTEX
8
CUT
10
60.7143
20
40.7143
0
VERTEX
8
CUT
10
60.7143
20
43.5714
0
VERTEX
8
CUT
10
63.5714
20
43.5714
0
VERTEX
8
CUT
10
63.5714
20
42.1429
0
VERTEX
8
CUT
10
62.1429
20
42.1429
0
SEQEND
0
POLYLINE
8
CUT
66
1
70
0
0
VERTEX
8
CUT
10
60
20
40
0
VERTEX
8
CUT
10
60
20
44.2857
0
VERTEX
8
CUT
10
64.2857
20
44.2857
0
VERTEX
8
CUT
10
64.2857
20
41.4286
0
VERTEX
8
CUT
10
61.4286
20
41.4286
0
VERTEX
8
CUT
10
61.4286
20
42.8571
0
VERTEX
8
CUT
10
62.8571
20
42.8571
0
SEQEND
0
POLYLINE
8
CUT
66
1
70
0
0
VERTEX
8
CUT
10
65
20
45
0
VERTEX
8
CUT
10
69.2857
20
45
0
VERTEX
8
CUT
10
69.2857
20
40.7143
0
VERTEX
8
CUT
10
66.4286
20
40.7143
0
VERTEX
8
CUT
10
66.4286
20
43.5714
0
VERTEX
8
CUT
10
67.8571
20
43.5714
0
VERTEX
8
CUT
10
67.8571
20
42.1429
0
SEQEND
0
POLYLINE
8
CUT
66
1
70
0
0
VERTEX
8
CUT
10
70
20
40
0
VERTEX
8
CUT
10
65.7143
20
40
0
VERTEX
8
CUT
10
65.7143
20
44.2857
0
VERTEX
8
CUT
10
68.5714
20
44.2857
0
VERTEX
8
CUT
10
68.5714
20
41.4286
0
VERTEX
8
CUT
10
67.1429
20
41.4286
0
VERTEX
8
CUT
10
67.1429
20
42.8571
0
SEQEND
0
POLYLINE
8
CUT
66
1
70
0
0
VERTEX
8
CUT
10
75
20
45
0
VERTEX
8
CUT
10
75
20
40.7143
0
VERTEX
8
CUT
10
70.7143
20
40.7143
0
VERTEX
8
CUT
10
70.7143
20
43.5714
0
VERTEX
8
CUT
10
73.5714
20
43.5714
0
VERTEX
8
CUT
10
73.5714
20
42.1429
0
VERTEX
8
CUT
10
72.1429
20
42.1429
0
SEQEND
0
POLYLINE
8
CUT
66
1
70
0
0
VERTEX
8
CUT
10
70
20
40
0
VERTEX
8
CUT
10
70
20
44.2857
0
VERTEX
8
CUT
10
74.2857
20
44.2857
0
VERTEX
8
CUT
10
74.2857
20
41.4286
0
VERTEX
8
CUT
10
71.4286
20
41.4286
0
VERTEX
8
CUT
10
71.4286
20
42.8571
0
VERTEX
8
CUT
10
72.8571
20
42.8571
0
SEQEND
0
POLYLINE
8
CUT
66
1
70
0
0
VERTEX
8
CUT
10
75
20
45
0
VERTEX
8
CUT
10
79.2857
20
45
0
VERTEX
8
CUT
10
79.2857
20
40.7143
0
VERTEX
8
CUT
10
76.4286
20
40.7143
0
VERTEX
8
CUT
10
76.4286
20
43.5714
0
VERTEX
8
CUT
10
77.8571
20
43.5714
0
VERTEX
8
CUT
10
77.8571
20
42.1429
0
SEQEND
0
POLYLINE
8
CUT
66
1
70
0
0
VERTEX
8
CUT
10
80
20
40
0
VERTEX
8
CUT
10
75.7143
20
40
0
VERTEX
8
CUT
10
75.7143
20
44.2857
0
VERTEX
8
CUT
10
78.5714
20
44.2857
0
VERTEX
8
CUT
10
78.5714
20
41.4286
0
VERTEX
8
CUT
10
77.1429
20
41.4286
0
VERTEX
8
CUT
10
77.1429
20
42.8571
0
SEQEND
0
POLYLINE
8
CUT
66
1
70
0
0
VERTEX
8
CUT
10
85
20
45
0
VERTEX
8
CUT
10
85
20
40.7143
0
VERTEX
8
CUT
10
80.7143
20
40.7143
0
VERTEX
8
CUT
10
80.7143
20
43.5714
0
VERTEX
8
CUT
10
83.5714
20
43.5714
0
VERTEX
8
CUT
10
83.5714
20
42.1429
0
VERTEX
8
CUT
10
82.1429
20
42.1429
0
SEQEND
0
POLYLINE
8
CUT
66
1
70
0
0
VERTEX
8
CUT
10
80
20
40
0
VERTEX
8
CUT
10
80
20
44.2857
0
VERTEX
8
CUT
10
84.2857
20
44.2857
0
VERTEX
8
CUT
10
84.2857
20
41.4286
0
VERTEX
8
CUT
10
81.4286
20
41.4286
0
VERTEX
8
CUT
10
81.4286
20
42.8571
0
VERTEX
8
CUT
10
82.8571
20
42.8571
0
SEQEND
0
POLYLINE
8
CUT
66
1
70
0
0
VERTEX
8
CUT
10
85
20
45
0
VERTEX
8
CUT
10
89.2857
20
45
0
VERTEX
8
CUT
10
89.2857
20
40.7143
0
VERTEX
8
CUT
10
86.4286
20
40.7143
0
VERTEX
8
CUT
10
86.4286
20
43.5714
0
VERTEX
8
CUT
10
87.8571
20
43.5714
0
VERTEX
8
CUT
10
87.8571
20
42.1429
0
SEQEND
0
POLYLINE
8
CUT
66
1
70
0
0
VERTEX
8
CUT
10
90
20
40
0
VERTEX
8
CUT
10
85.7143
20
40
0
VERTEX
8
CUT
10
85.7143
20
44.2857
0
VERTEX
8
CUT
10
88.5714
20
44.2857
0
VERTEX
8
CUT
10
88.5714
20
41.4286
0
VERTEX
8
CUT
10
87.1429
20
41.4286
0
VERTEX
8
CUT
10
87.1429
20
42.8571
0
SEQEND
0
POLYLINE
8
CUT
66
1
70
0
0
VERTEX
8
CUT
10
95
20
45
0
VERTEX
8
CUT
10
95
20
40.7143
0
VERTEX
8
CUT
10
90.7143
20
40.7143
0
VERTEX
8
CUT
10
90.7143
20
43.5714
0
VERTEX
8
CUT
10
93.5714
20
43.5714
0
VERTEX
8
CUT
10
93.5714
20
42.1429
0
VERTEX
8
CUT
10
92.1429
20
42.1429
0
SEQEND
0
POLYLINE
8
CUT
66
1
70
0
0
VERTEX
8
CUT
10
90
20
40
0
VERTEX
8
CUT
10
90
20
44.2857
0
VERTEX
8
CUT
10
94.2857
20
44.2857
0
VERTEX
8
CUT
10
94.2857
20
41.4286
0
VERTEX
8
CUT
10
91.4286
20
41.4286
0
VERTEX
8
CUT
10
91.4286
20
42.8571
0
VERTEX
8
CUT
10
92.8571
20
42.8571
0
SEQEND
0
POLYLINE
8
CUT
66
1
70
0
0
VERTEX
8
CUT
10
95
20
45
0
VERTEX
8
CUT
10
99.2857
20
45
0
VERTEX
8
CUT
10
99.2857
20
40.7143
0
VERTEX
8
CUT
10
96.4286
20
40.7143
0
VERTEX
8
CUT
10
96.4286
20
43.5714
0
VERTEX
8
CUT
10
97.8571
20
43.5714
0
VERTEX
8
CUT
10
97.8571
20
42.1429
0
SEQEND
0
POLYLINE
8
CUT
66
1
70
0
0
VERTEX
8
CUT
10
100
20
40
0
VERTEX
8
CUT
10
95.7143
20
40
0
VERTEX
8
CUT
10
95.7143
20
44.2857
0
VERTEX
8
CUT
10
98.5714
20
44.2857
0
VERTEX
8
CUT
10
98.5714
20
41.4286
0
VERTEX
8
CUT
10
97.1429
20
41.4286
0
VERTEX
8
CUT
10
97.1429
20
42.8571
0
SEQEND
0
POLYLINE
8
CUT
66
1
70
0
0
VERTEX
8
CUT
10
105
20
45
0
VERTEX
8
CUT
10
105
20
40.7143
0
VERTEX
8
CUT
10
100.7143
20
40.7143
0
VERTEX
8
CUT
10
100.7143
20
43.5714
0
VERTEX
8
CUT
10
103.5714
20
43.5714
0
VERTEX
8
CUT
10
103.5714
20
42.1429
0
VERTEX
8
CUT
10
102.1429
20
42.1429
0
SEQEND
0
POLYLINE
8
CUT
66
1
70
0
0
VERTEX
8
CUT
10
100
20
40
0
VERTEX
8
CUT
10
100
20
44.2857
0
VERTEX
8
CUT
10
104.2857
20
44.2857
0
VERTEX
8
CUT
10
104.2857
20
41.4286
0
VERTEX
8
CUT
10
101.4286
20
41.4286
0
VERTEX
8
CUT
10
101.4286
20
42.8571
0
VERTEX
8
CUT
10
102.8571
20
42.8571
0
SEQEND
0
POLYLINE
8
CUT
66
1
70
0
0
VERTEX
8
CUT
10
105
20
45
0
VERTEX
8
CUT
10
109.2857
20
45
0
VERTEX
8
CUT
10
109.2857
20
40.7143
0
VERTEX
8
CUT
10
106.4286
20
40.7143
0
VERTEX
8
CUT
10
106.4286
20
43.5714
0
VERTEX
8
CUT
10
107.8571
20
43.5714
0
VERTEX
8
CUT
10
107.8571
20
42.1429
0
SEQEND
0
POLYLINE
8
CUT
66
1
70
0
0
VERTEX
8
CUT
10
110
20
40
0
VERTEX
8
CUT
10
105.7143
20
40
0
VERTEX
8
CUT
10
105.7143
20
44.2857
0
VERTEX
8
CUT
10
108.5714
20
44.2857
0
VERTEX
8
CUT
10
108.5714
20
41.4286
0
VERTEX
8
CUT
10
107.1429
20
41.4286
0
VERTEX
8
CUT
10
107.1429
20
42.8571
0
SEQEND
0
POLYLINE
8
CUT
66
1
70
0
0
VERTEX
8
CUT
10
115
20
45
0
VERTEX
8
CUT
10
115
20
40.7143
0
VERTEX
8
CUT
10
110.7143
20
40.7143
0
VERTEX
8
CUT
10
110.7143
20
43.5714
0
VERTEX
8
CUT
10
113.5714
20
43.5714
0
VERTEX
8
CUT
10
113.5714
20
42.1429
0
VERTEX
8
CUT
10
112.1429
20
42.1429
0
SEQEND
0
POLYLINE
8
CUT
66
1
70
0
0
VERTEX
8
CUT
10
110
20
40
0
VERTEX
8
CUT
10
110
20
44.2857
0
VERTEX
8
CUT
10
114.2857
20
44.2857
0
VERTEX
8
CUT
10
114.2857
20
41.4286
0
VERTEX
8
CUT
10
111.4286
20
41.4286
0
VERTEX
8
CUT
10
111.4286
20
42.8571
0
VERTEX
8
CUT
10
112.8571
20
42.8571
0
SEQEND
0
POLYLINE
8
CUT
66
1
70
0
0
VERTEX
8
CUT
10
115
20
45
0
VERTEX
8
CUT
10
119.2857
20
45
0
VERTEX
8
CUT
10
119.2857
20
40.7143
0
VERTEX
8
CUT
10
116.4286
20
40.7143
0
VERTEX
8
CUT
10
116.4286
20
43.5714
0
VERTEX
8
CUT
10
117.8571
20
43.5714
0
VERTEX
8
CUT
10
117.8571
20
42.1429
0
SEQEND
0
POLYLINE
8
CUT
66
1
70
0
0
VERTEX
8
CUT
10
120
20
40
0
VERTEX
8
CUT
10
115.7143
20
40
0
VERTEX
8
CUT
10
115.7143
20
44.2857
0
VERTEX
8
CUT
10
118.5714
20
44.2857
0
VERTEX
8
CUT
10
118.5714
20
41.4286
0
VERTEX
8
CUT
10
117.1429
20
41.4286
0
VERTEX
8
CUT
10
117.1429
20
42.8571
0
SEQEND
0
POLYLINE
8
CUT
66
1
70
0
0
VERTEX
8
CUT
10
0
20
40
0
VERTEX
8
CUT
10
4.2857
20
40
0
VERTEX
8
CUT
10
4.2857
20
35.7143
0
VERTEX
8
CUT
10
1.4286
20
35.7143
0
VERTEX
8
CUT
10
1.4286
20
38.5714
0
VERTEX
8
CUT
10
2.8571
20
38.5714
0
VERTEX
8
CUT
10
2.8571
20
37.1429
0
SEQEND
0
POLYLINE
8
CUT
66
1
70
0
0
VERTEX
8
CUT
10
5
20
35
0
VERTEX
8
CUT
10
0.7143
20
35
0
VERTEX
8
CUT
10
0.7143
20
39.2857
0
VERTEX
8
CUT
10
3.5714
20
39.2857
0
VERTEX
8
CUT
10
3.5714
20
36.4286
0
VERTEX
8
CUT
10
2.1429
20
36.4286
0
VERTEX
8
CUT
10
2.1429
20
37.8571
0
SEQEND
0
POLYLINE
8
CUT
66
1
70
0
0
VERTEX
8
CUT
10
10
20
40
0
VERTEX
8
CUT
10
10
20
35.7143
0
VERTEX
8
CUT
10
5.7143
20
35.7143
0
VERTEX
8
CUT
10
5.7143
20
38.5714
0
VERTEX
8
CUT
10
8.5714
20
38.5714
0
VERTEX
8
CUT
10
8.5714
20
37.1429
0
VERTEX
8
CUT
10
7.1429
20
37.1429
0
SEQEND
0
POLYLINE
8
CUT
66
1
70
0
0
VERTEX
8
CUT
10
5
20
35
0
VERTEX
8
CUT
10
5
20
39.2857
0
VERTEX
8
CUT
10
9.2857
20
39.2857
0
VERTEX
8
CUT
10
9.2857
20
36.4286
0
VERTEX
8
CUT
10
6.4286
20
36.4286
0
VERTEX
8
CUT
10
6.4286
20
37.8571
0
VERTEX
8
CUT
10
7.8571
20
37.8571
0
SEQEND
0
POLYLINE
8
CUT
66
1
70
0
0
VERTEX
8
CUT
10
10
20
40
0
VERTEX
8
CUT
10
14.2857
20
40
0
VERTEX
8
CUT
10
14.2857
20
35.7143
0
VERTEX
8
CUT
10
11.4286
20
35.7143
0
VERTEX
8
CUT
10
11.4286
20
38.5714
0
VERTEX
8
CUT
10
12.8571
20
38.5714
0
VERTEX
8
CUT
10
12.8571
20
37.1429
0
SEQEND
0
POLYLINE
8
CUT
66
1
70
0
0
VERTEX
8
CUT
10
15
20
35
0
VERTEX
8
CUT
10
10.7143
20
35
0
VERTEX
8
CUT
10
10.7143
20
39.2857
0
VERTEX
8
CUT
10
13.5714
20
39.2857
0
VERTEX
8
CUT
10
13.5714
20
36.4286
0
VERTEX
8
CUT
10
12.1429
20
36.4286
0
VERTEX
8
CUT
10
12.1429
20
37.8571
0
SEQEND
0
POLYLINE
8
CUT
66
1
70
0
0
VERTEX
8
CUT
10
20
20
40
0
VERTEX
8
CUT
10
20
20
35.7143
0
VERTEX
8
CUT
10
15.7143
20
35.7143
0
VERTEX
8
CUT
10
15.7143
20
38.5714
0
VERTEX
8
CUT
10
18.5714
20
38.5714
0
VERTEX
8
CUT
10
18.5714
20
37.1429
0
VERTEX
8
CUT
10
17.1429
20
37.1429
0
SEQEND
0
POLYLINE
8
CUT
66
1
70
0
0
VERTEX
8
CUT
10
15
20
35
0
VERTEX
8
CUT
10
15
20
39.2857
0
VERTEX
8
CUT
10
19.2857
20
39.2857
0
VERTEX
8
CUT
10
19.2857
20
36.4286
0
VERTEX
8
CUT
10
16.4286
20
36.4286
0
VERTEX
8
CUT
10
16.4286
20
37.8571
0
VERTEX
8
CUT
10
17.8571
20
37.8571
0
SEQEND
0
POLYLINE
8
CUT
66
1
70
0
0
VERTEX
8
CUT
10
20
20
40
0
VERTEX
8
CUT
10
24.2857
20
40
0
VERTEX
8
CUT
10
24.2857
20
35.7143
0
VERTEX
8
CUT
10
21.4286
20
35.7143
0
VERTEX
8
CUT
10
21.4286
20
38.5714
0
VERTEX
8
CUT
10
22.8571
20
38.5714
0
VERTEX
8
CUT
10
22.8571
20
37.1429
0
SEQEND
0
POLYLINE
8
CUT
66
1
70
0
0
VERTEX
8
CUT
10
25
20
35
0
VERTEX
8
CUT
10
20.7143
20
35
0
VERTEX
8
CUT
10
20.7143
20
39.2857
0
VERTEX
8
CUT
10
23.5714
20
39.2857
0
VERTEX
8
CUT
10
23.5714
20
36.4286
0
VERTEX
8
CUT
10
22.1429
20
36.4286
0
VERTEX
8
CUT
10
22.1429
20
37.8571
0
SEQEND
0
POLYLINE
8
CUT
66
1
70
0
0
VERTEX
8
CUT
10
30
20
40
0
VERTEX
8
CUT
10
30
20
35.7143
0
VERTEX
8
CUT
10
25.7143
20
35.7143
0
VERTEX
8
CUT
10
25.7143
20
38.5714
0
VERTEX
8
CUT
10
28.5714
20
38.5714
0
VERTEX
8
CUT
10
28.5714
20
37.1429
0
VERTEX
8
CUT
10
27.1429
20
37.1429
0
SEQEND
0
POLYLINE
8
CUT
66
1
70
0
0
VERTEX
8
CUT
10
25
20
35
0
VERTEX
8
CUT
10
25
20
39.2857
0
VERTEX
8
CUT
10
29.2857
20
39.2857
0
VERTEX
8
CUT
10
29.2857
20
36.4286
0
VERTEX
8
CUT
10
26.4286
20
36.4286
0
VERTEX
8
CUT
10
26.4286
20
37.8571
0
VERTEX
8
CUT
10
27.8571
20
37.8571
0
SEQEND
0
POLYLINE
8
CUT
66
1
70
0
0
VERTEX
8
CUT
10
30
20
40
0
VERTEX
8
CUT
10
34.2857
20
40
0
VERTEX
8
CUT
10
34.2857
20
35.7143
0
VERTEX
8
CUT
10
31.4286
20
35.7143
0
VERTEX
8
CUT
10
31.4286
20
38.5714
0
VERTEX
8
CUT
10
32.8571
20
38.5714
0
VERTEX
8
CUT
10
32.8571
20
37.1429
0
SEQEND
0
POLYLINE
8
CUT
66
1
70
0
0
VERTEX
8
CUT
10
35
20
35
0
VERTEX
8
CUT
10
30.7143
20
35
0
VERTEX
8
CUT
10
30.7143
20
39.2857
0
VERTEX
8
CUT
10
33.5714
20
39.2857
0
VERTEX
8
CUT
10
33.5714
20
36.4286
0
VERTEX
8
CUT
10
32.1429
20
36.4286
0
VERTEX
8
CUT
10
32.1429
20
37.8571
0
SEQEND
0
POLYLINE
8
CUT
66
1
70
0
0
VERTEX
8
CUT
10
40
20
40
0
VERTEX
8
CUT
10
40
20
35.7143
0
VERTEX
8
CUT
10
35.7143
20
35.7143
0
VERTEX
8
CUT
10
35.7143
20
38.5714
0
VERTEX
8
CUT
10
38.5714
20
38.5714
0
VERTEX
8
CUT
10
38.5714
20
37.1429
0
VERTEX
8
CUT
10
37.1429
20
37.1429
0
SEQEND
0
POLYLINE
8
CUT
66
1
70
0
0
VERTEX
8
CUT
10
35
20
35
0
VERTEX
8
CUT
10
35
20
39.2857
0
VERTEX
8
CUT
10
39.2857
20
39.2857
0
VERTEX
8
CUT
10
39.2857
20
36.4286
0
VERTEX
8
CUT
10
36.4286
20
36.4286
0
VERTEX
8
CUT
10
36.4286
20
37.8571
0
VERTEX
8
CUT
10
37.8571
20
37.8571
0
SEQEND
0
POLYLINE
8
CUT
66
1
70
0
0
VERTEX
8
CUT
10
40
20
40
0
VERTEX
8
CUT
10
44.2857
20
40
0
VERTEX
8
CUT
10
44.2857
20
35.7143
0
VERTEX
8
CUT
10
41.4286
20
35.7143
0
VERTEX
8
CUT
10
41.4286
20
38.5714
0
VERTEX
8
CUT
10
42.8571
20
38.5714
0
VERTEX
8
CUT
10
42.8571
20
37.1429
0
SEQEND
0
POLYLINE
8
CUT
66
1
70
0
0
VERTEX
8
CUT
10
45
20
35
0
VERTEX
8
CUT
10
40.7143
20
35
0
VERTEX
8
CUT
10
40.7143
20
39.2857
0
VERTEX
8
CUT
10
43.5714
20
39.2857
0
VERTEX
8
CUT
10
43.5714
20
36.4286
0
VERTEX
8
CUT
10
42.1429
20
36.4286
0
VERTEX
8
CUT
10
42.1429
20
37.8571
0
SEQEND
0
POLYLINE
8
CUT
66
1
70
0
0
VERTEX
8
CUT
10
50
20
40
0
VERTEX
8
CUT
10
50
20
35.7143
0
VERTEX
8
CUT
10
45.7143
20
35.7143
0
VERTEX
8
CUT
10
45.7143
20
38.5714
0
VERTEX
8
CUT
10
48.5714
20
38.5714
0
VERTEX
8
CUT
10
48.5714
20
37.1429
0
VERTEX
8
CUT
10
47.1429
20
37.1429
0
SEQEND
0
POLYLINE
8
CUT
66
1
70
0
0
VERTEX
8
CUT
10
45
20
35
0
VERTEX
8
CUT
10
45
20
39.2857
0
VERTEX
8
CUT
10
49.2857
20
39.2857
0
VERTEX
8
CUT
10
49.2857
20
36.4286
0
VERTEX
8
CUT
10
46.4286
20
36.4286
0
VERTEX
8
CUT
10
46.4286
20
37.8571
0
VERTEX
8
CUT
10
47.8571
20
37.8571
0
SEQEND
0
POLYLINE
8
CUT
66
1
70
0
0
VERTEX
8
CUT
10
50
20
40
0
VERTEX
8
CUT
10
54.2857
20
40
0
VERTEX
8
CUT
10
54.2857
20
35.7143
0
VERTEX
8
CUT
10
51.4286
20
35.7143
0
VERTEX
8
CUT
10
51.4286
20
38.5714
0
VERTEX
8
CUT
10
52.8571
20
38.5714
0
VERTEX
8
CUT
10
52.8571
20
37.1429
0
SEQEND
0
POLYLINE
8
CUT
66
1
70
0
0
VERTEX
8
CUT
10
55
20
35
0
VERTEX
8
CUT
10
50.7143
20
35
0
VERTEX
8
CUT
10
50.7143
20
39.2857
0
VERTEX
8
CUT
10
53.5714
20
39.2857
0
VERTEX
8
CUT
10
53.5714
20
36.4286
0
VERTEX
8
CUT
10
52.1429
20
36.4286
0
VERTEX
8
CUT
10
52.1429
20
37.8571
0
SEQEND
0
POLYLINE
8
CUT
66
1
70
0
0
VERTEX
8
CUT
10
60
20
40
0
VERTEX
8
CUT
10
60
20
35.7143
0
VERTEX
8
CUT
10
55.7143
20
35.7143
0
VERTEX
8
CUT
10
55.7143
20
38.5714
0
VERTEX
8
CUT
10
58.5714
20
38.5714
0
VERTEX
8
CUT
10
58.5714
20
37.1429
0
VERTEX
8
CUT
10
57.1429
20
37.1429
0
SEQEND
0
POLYLINE
8
CUT
66
1
70
0
0
VERTEX
8
CUT
10
55
20
35
0
VERTEX
8
CUT
10
55
20
39.2857
0
VERTEX
8
CUT
10
59.2857
20
39.2857
0
VERTEX
8
CUT
10
59.2857
20
36.4286
0
VERTEX
8
CUT
10
56.4286
20
36.4286
0
VERTEX
8
CUT
10
56.4286
20
37.8571
0
VERTEX
8
CUT
10
57.8571
20
37.8571
0
SEQEND
0
POLYLINE
8
CUT
66
1
70
0
0
VERTEX
8
CUT
10
60
20
40
0
VERTEX
8
CUT
10
64.2857
20
40
0
VERTEX
8
CUT
10
64.2857
20
35.7143
0
VERTEX
8
CUT
10
61.4286
20
35.7143
0
VERTEX
8
CUT
10
61.4286
20
38.5714
0
VERTEX
8
CUT
10
62.8571
20
38.5714
0
VERTEX
8
CUT
10
62.8571
20
37.1429
0
SEQEND
0
POLYLINE
8
CUT
66
1
70
0
0
VERTEX
8
CUT
10
65
20
35
0
VERTEX
8
CUT
10
60.7143
20
35
0
VERTEX
8
CUT
10
60.7143
20
39.2857
0
VERTEX
8
CUT
10
63.5714
20
39.2857
0
VERTEX
8
CUT
10
63.5714
20
36.4286
0
VERTEX
8
CUT
10
62.1429
20
36.4286
0
VERTEX
8
CUT
10
62.1429
20
37.8571
0
SEQEND
0
POLYLINE
8
CUT
66
1
70
0
0
VERTEX
8
CUT
10
70
20
40
0
VERTEX
8
CUT
10
70
20
35.7143
0
VERTEX
8
CUT
10
65.7143
20
35.7143
0
VERTEX
8
CUT
10
65.7143
20
38.5714
0
VERTEX
8
CUT
10
68.5714
20
38.5714
0
VERTEX
8
CUT
10
68.5714
20
37.1429
0
VERTEX
8
CUT
10
67.1429
20
37.1429
0
SEQEND
0
POLYLINE
8
CUT
66
1
70
0
0
VERTEX
8
CUT
10
65
20
35
0
VERTEX
8
CUT
10
65
20
39.2857
0
VERTEX
8
CUT
10
69.2857
20
39.2857
0
VERTEX
8
CUT
10
69.2857
20
36.4286
0
VERTEX
8
CUT
10
66.4286
20
36.4286
0
VERTEX
8
CUT
10
66.4286
20
37.8571
0
VERTEX
8
CUT
10
67.8571
20
37.8571
0
SEQEND
0
POLYLINE
8
CUT
66
1
70
0
0
VERTEX
8
CUT
10
70
20
40
0
VERTEX
8
CUT
10
74.2857
20
40
0
VERTEX
8
CUT
10
74.2857
20
35.7143
0
VERTEX
8
CUT
10
71.4286
20
35.7143
0
VERTEX
8
CUT
10
71.4286
20
38.5714
0
VERTEX
8
CUT
10
72.8571
20
38.5714
0
VERTEX
8
CUT
10
72.8571
20
37.1429
0
SEQEND
0
POLYLINE
8
CUT
66
1
70
0
0
VERTEX
8
CUT
10
75
20
35
0
VERTEX
8
CUT
10
70.7143
20
35
0
VERTEX
8
CUT
10
70.7143
20
39.2857
0
VERTEX
8
CUT
10
73.5714
20
39.2857
0
VERTEX
8
CUT
10
73.5714
20
36.4286
0
VERTEX
8
CUT
10
72.1429
20
36.4286
0
VERTEX
8
CUT
10
72.1429
20
37.8571
0
SEQEND
0
POLYLINE
8
CUT
66
1
70
0
0
VERTEX
8
CUT
10
80
20
40
0
VERTEX
8
CUT
10
80
20
35.7143
0
VERTEX
8
CUT
10
75.7143
20
35.7143
0
VERTEX
8
CUT
10
75.7143
20
38.5714
0
VERTEX
8
CUT
10
78.5714
20
38.5714
0
VERTEX
8
CUT
10
78.5714
20
37.1429
0
VERTEX
8
CUT
10
77.1429
20
37.1429
0
SEQEND
0
POLYLINE
8
CUT
66
1
70
0
0
VERTEX
8
CUT
10
75
20
35
0
VERTEX
8
CUT
10
75
20
39.2857
0
VERTEX
8
CUT
10
79.2857
20
39.2857
0
VERTEX
8
CUT
10
79.2857
20
36.4286
0
VERTEX
8
CUT
10
76.4286
20
36.4286
0
VERTEX
8
CUT
10
76.4286
20
37.8571
0
VERTEX
8
CUT
10
77.8571
20
37.8571
0
SEQEND
0
POLYLINE
8
CUT
66
1
70
0
0
VERTEX
8
CUT
10
80
20
40
0
VERTEX
8
CUT
10
84.2857
20
40
0
VERTEX
8
CUT
10
84.2857
20
35.7143
0
VERTEX
8
CUT
10
81.4286
20
35.7143
0
VERTEX
8
CUT
10
81.4286
20
38.5714
0
VERTEX
8
CUT
10
82.8571
20
38.5714
0
VERTEX
8
CUT
10
82.8571
20
37.1429
0
SEQEND
0
POLYLINE
8
CUT
66
1
70
0
0
VERTEX
8
CUT
10
85
20
35
0
VERTEX
8
CUT
10
80.7143
20
35
0
VERTEX
8
CUT
10
80.7143
20
39.2857
0
VERTEX
8
CUT
10
83.5714
20
39.2857
0
VERTEX
8
CUT
10
83.5714
20
36.4286
0
VERTEX
8
CUT
10
82.1429
20
36.4286
0
VERTEX
8
CUT
10
82.1429
20
37.8571
0
SEQEND
0
POLYLINE
8
CUT
66
1
70
0
0
VERTEX
8
CUT
10
90
20
40
0
VERTEX
8
CUT
10
90
20
35.7143
0
VERTEX
8
CUT
10
85.7143
20
35.7143
0
VERTEX
8
CUT
10
85.7143
20
38.5714
0
VERTEX
8
CUT
10
88.5714
20
38.5714
0
VERTEX
8
CUT
10
88.5714
20
37.1429
0
VERTEX
8
CUT
10
87.1429
20
37.1429
0
SEQEND
0
POLYLINE
8
CUT
66
1
70
0
0
VERTEX
8
CUT
10
85
20
35
0
VERTEX
8
CUT
10
85
20
39.2857
0
VERTEX
8
CUT
10
89.2857
20
39.2857
0
VERTEX
8
CUT
10
89.2857
20
36.4286
0
VERTEX
8
CUT
10
86.4286
20
36.4286
0
VERTEX
8
CUT
10
86.4286
20
37.8571
0
VERTEX
8
CUT
10
87.8571
20
37.8571
0
SEQEND
0
POLYLINE
8
CUT
66
1
70
0
0
VERTEX
8
CUT
10
90
20
40
0
VERTEX
8
CUT
10
94.2857
20
40
0
VERTEX
8
CUT
10
94.2857
20
35.7143
0
VERTEX
8
CUT
10
91.4286
20
35.7143
0
VERTEX
8
CUT
10
91.4286
20
38.5714
0
VERTEX
8
CUT
10
92.8571
20
38.5714
0
VERTEX
8
CUT
10
92.8571
20
37.1429
0
SEQEND
0
POLYLINE
8
CUT
66
1
70
0
0
VERTEX
8
CUT
10
95
20
35
0
VERTEX
8
CUT
10
90.7143
20
35
0
VERTEX
8
CUT
10
90.7143
20
39.2857
0
VERTEX
8
CUT
10
93.5714
20
39.2857
0
VERTEX
8
CUT
10
93.5714
20
36.4286
0
VERTEX
8
CUT
10
92.1429
20
36.4286
0
VERTEX
8
CUT
10
92.1429
20
37.8571
0
SEQEND
0
POLYLINE
8
CUT
66
1
70
0
0
VERTEX
8
CUT
10
100
20
40
0
VERTEX
8
CUT
10
100
20
35.7143
0
VERTEX
8
CUT
10
95.7143
20
35.7143
0
VERTEX
8
CUT
10
95.7143
20
38.5714
0
VERTEX
8
CUT
10
98.5714
20
38.5714
0
VERTEX
8
CUT
10
98.5714
20
37.1429
0
VERTEX
8
CUT
10
97.1429
20
37.1429
0
SEQEND
0
POLYLINE
8
CUT
66
1
70
0
0
VERTEX
8
CUT
10
95
20
35
0
VERTEX
8
CUT
10
95
20
39.2857
0
VERTEX
8
CUT
10
99.2857
20
39.2857
0
VERTEX
8
CUT
10
99.2857
20
36.4286
0
VERTEX
8
CUT
10
96.4286
20
36.4286
0
VERTEX
8
CUT
10
96.4286
20
37.8571
0
VERTEX
8
CUT
10
97.8571
20
37.8571
0
SEQEND
0
POLYLINE
8
CUT
66
1
70
0
0
VERTEX
8
CUT
10
100
20
40
0
VERTEX
8
CUT
10
104.2857
20
40
0
VERTEX
8
CUT
10
104.2857
20
35.7143
0
VERTEX
8
CUT
10
101.4286
20
35.7143
0
VERTEX
8
CUT
10
101.4286
20
38.5714
0
VERTEX
8
CUT
10
102.8571
20
38.5714
0
VERTEX
8
CUT
10
102.8571
20
37.1429
0
SEQEND
0
POLYLINE
8
CUT
66
1
70
0
0
VERTEX
8
CUT
10
105
20
35
0
VERTEX
8
CUT
10
100.7143
20
35
0
VERTEX
8
CUT
10
100.7143
20
39.2857
0
VERTEX
8
CUT
10
103.5714
20
39.2857
0
VERTEX
8
CUT
10
103.5714
20
36.4286
0
VERTEX
8
CUT
10
102.1429
20
36.4286
0
VERTEX
8
CUT
10
102.1429
20
37.8571
0
SEQEND
0
POLYLINE
8
CUT
66
1
70
0
0
VERTEX
8
CUT
10
110
20
40
0
VERTEX
8
CUT
10
110
20
35.7143
0
VERTEX
8
CUT
10
105.7143
20
35.7143
0
VERTEX
8
CUT
10
105.7143
20
38.5714
0
VERTEX
8
CUT
10
108.5714
20
38.5714
0
VERTEX
8
CUT
10
108.5714
20
37.1429
0
VERTEX
8
CUT
10
107.1429
20
37.1429
0
SEQEND
0
POLYLINE
8
CUT
66
1
70
0
0
VERTEX
8
CUT
10
105
20
35
0
VERTEX
8
CUT
10
105
20
39.2857
0
VERTEX
8
CUT
10
109.2857
20
39.2857
0
VERTEX
8
CUT
10
109.2857
20
36.4286
0
VERTEX
8
CUT
10
106.4286
20
36.4286
0
VERTEX
8
CUT
10
106.4286
20
37.8571
0
VERTEX
8
CUT
10
107.8571
20
37.8571
0
SEQEND
0
POLYLINE
8
CUT
66
1
70
0
0
VERTEX
8
CUT
10
110
20
40
0
VERTEX
8
CUT
10
114.2857
20
40
0
VERTEX
8
CUT
10
114.2857
20
35.7143
0
VERTEX
8
CUT
10
111.4286
20
35.7143
0
VERTEX
8
CUT
10
111.4286
20
38.5714
0
VERTEX
8
CUT
10
112.8571
20
38.5714
0
VERTEX
8
CUT
10
112.8571
20
37.1429
0
SEQEND
0
POLYLINE
8
CUT
66
1
70
0
0
VERTEX
8
CUT
10
115
20
35
0
VERTEX
8
CUT
10
110.7143
20
35
0
VERTEX
8
CUT
10
110.7143
20
39.2857
0
VERTEX
8
CUT
10
113.5714
20
39.2857
0
VERTEX
8
CUT
10
113.5714
20
36.4286
0
VERTEX
8
CUT
10
112.1429
20
36.4286
0
VERTEX
8
CUT
10
112.1429
20
37.8571
0
SEQEND
0
POLYLINE
8
CUT
66
1
70
0
0
VERTEX
8
CUT
10
120
20
40
0
VERTEX
8
CUT
10
120
20
35.7143
0
VERTEX
8
CUT
10
115.7143
20
35.7143
0
VERTEX
8
CUT
10
115.7143
20
38.5714
0
VERTEX
8
CUT
10
118.5714
20
38.5714
0
VERTEX
8
CUT
10
118.5714
20
37.1429
0
VERTEX
8
CUT
10
117.1429
20
37.1429
0
SEQEND
0
POLYLINE
8
CUT
66
1
70
0
0
VERTEX
8
CUT
10
115
20
35
0
VERTEX
8
CUT
10
115
20
39.2857
0
VERTEX
8
CUT
10
119.2857
20
39.2857
0
VERTEX
8
CUT
10
119.2857
20
36.4286
0
VERTEX
8
CUT
10
116.4286
20
36.4286
0
VERTEX
8
CUT
10
116.4286
20
37.8571
0
VERTEX
8
CUT
10
117.8571
20
37.8571
0
SEQEND
0
POLYLINE
8
CUT
66
1
70
0
0
VERTEX
8
CUT
10
5
20
35
0
VERTEX
8
CUT
10
5
20
30.7143
0
VERTEX
8
CUT
10
0.7143
20
30.7143
0
VERTEX
8
CUT
10
0.7143
20
33.5714
0
VERTEX
8
CUT
10
3.5714
20
33.5714
0
VERTEX
8
CUT
10
3.5714
20
32.1429
0
VERTEX
8
CUT
10
2.1429
20
32.1429
0
SEQEND
0
POLYLINE
8
CUT
66
1
70
0
0
VERTEX
8
CUT
10
0
20
30
0
VERTEX
8
CUT
10
0
20
34.2857
0
VERTEX
8
CUT
10
4.2857
20
34.2857
0
VERTEX
8
CUT
10
4.2857
20
31.4286
0
VERTEX
8
CUT
10
1.4286
20
31.4286
0
VERTEX
8
CUT
10
1.4286
20
32.8571
0
VERTEX
8
CUT
10
2.8571
20
32.8571
0
SEQEND
0
POLYLINE
8
CUT
66
1
70
0
0
VERTEX
8
CUT
10
5
20
35
0
VERTEX
8
CUT
10
9.2857
20
35
0
VERTEX
8
CUT
10
9.2857
20
30.7143
0
VERTEX
8
CUT
10
6.4286
20
30.7143
0
VERTEX
8
CUT
10
6.4286
20
33.5714
0
VERTEX
8
CUT
10
7.8571
20
33.5714
0
VERTEX
8
CUT
10
7.8571
20
32.1429
0
SEQEND
0
POLYLINE
8
CUT
66
1
70
0
0
VERTEX
8
CUT
10
10
20
30
0
VERTEX
8
CUT
10
5.7143
20
30
0
VERTEX
8
CUT
10
5.7143
20
34.2857
0
VERTEX
8
CUT
10
8.5714
20
34.2857
0
VERTEX
8
CUT
10
8.5714
20
31.4286
0
VERTEX
8
CUT
10
7.1429
20
31.4286
0
VERTEX
8
CUT
10
7.1429
20
32.8571
0
SEQEND
0
POLYLINE
8
CUT
66
1
70
0
0
VERTEX
8
CUT
10
15
20
35
0
VERTEX
8
CUT
10
15
20
30.7143
0
VERTEX
8
CUT
10
10.7143
20
30.7143
0
VERTEX
8
CUT
10
10.7143
20
33.5714
0
VERTEX
8
CUT
10
13.5714
20
33.5714
0
VERTEX
8
CUT
10
13.5714
20
32.1429
0
VERTEX
8
CUT
10
12.1429
20
32.1429
0
SEQEND
0
POLYLINE
8
CUT
66
1
70
0
0
VERTEX
8
CUT
10
10
20
30
0
VERTEX
8
CUT
10
10
20
34.2857
0
VERTEX
8
CUT
10
14.2857
20
34.2857
0
VERTEX
8
CUT
10
14.2857
20
31.4286
0
VERTEX
8
CUT
10
11.4286
20
31.4286
0
VERTEX
8
CUT
10
11.4286
20
32.8571
0
VERTEX
8
CUT
10
12.8571
20
32.8571
0
SEQEND
0
POLYLINE
8
CUT
66
1
70
0
0
VERTEX
8
CUT
10
15
20
35
0
VERTEX
8
CUT
10
19.2857
20
35
0
VERTEX
8
CUT
10
19.2857
20
30.7143
0
VERTEX
8
CUT
10
16.4286
20
30.7143
0
VERTEX
8
CUT
10
16.4286
20
33.5714
0
VERTEX
8
CUT
10
17.8571
20
33.5714
0
VERTEX
8
CUT
10
17.8571
20
32.1429
0
SEQEND
0
POLYLINE
8
CUT
66
1
70
0
0
VERTEX
8
CUT
10
20
20
30
0
VERTEX
8
CUT
10
15.7143
20
30
0
VERTEX
8
CUT
10
15.7143
20
34.2857
0
VERTEX
8
CUT
10
18.5714
20
34.2857
0
VERTEX
8
CUT
10
18.5714
20
31.4286
0
VERTEX
8
CUT
10
17.1429
20
31.4286
0
VERTEX
8
CUT
10
17.1429
20
32.8571
0
SEQEND
0
POLYLINE
8
CUT
66
1
70
0
0
VERTEX
8
CUT
10
25
20
35
0
VERTEX
8
CUT
10
25
20
30.7143
0
VERTEX
8
CUT
10
20.7143
20
30.7143
0
VERTEX
8
CUT
10
20.7143
20
33.5714
0
VERTEX
8
CUT
10
23.5714
20
33.5714
0
VERTEX
8
CUT
10
23.5714
20
32.1429
0
VERTEX
8
CUT
10
22.1429
20
32.1429
0
SEQEND
0
POLYLINE
8
CUT
66
1
70
0
0
VERTEX
8
CUT
10
20
20
30
0
VERTEX
8
CUT
10
20
20
34.2857
0
VERTEX
8
CUT
10
24.2857
20
34.2857
0
VERTEX
8
CUT
10
24.2857
20
31.4286
0
VERTEX
8
CUT
10
21.4286
20
31.4286
0
VERTEX
8
CUT
10
21.4286
20
32.8571
0
VERTEX
8
CUT
10
22.8571
20
32.8571
0
SEQEND
0
POLYLINE
8
CUT
66
1
70
0
0
VERTEX
8
CUT
10
25
20
35
0
VERTEX
8
CUT
10
29.2857
20
35
0
VERTEX
8
CUT
10
29.2857
20
30.7143
0
VERTEX
8
CUT
10
26.4286
20
30.7143
0
VERTEX
8
CUT
10
26.4286
20
33.5714
0
VERTEX
8
CUT
10
27.8571
20
33.5714
0
VERTEX
8
CUT
10
27.8571
20
32.1429
0
SEQEND
0
POLYLINE
8
CUT
66
1
70
0
0
VERTEX
8
CUT
10
30
20
30
0
VERTEX
8
CUT
10
25.7143
20
30
0
VERTEX
8
CUT
10
25.7143
20
34.2857
0
VERTEX
8
CUT
10
28.5714
20
34.2857
0
VERTEX
8
CUT
10
28.5714
20
31.4286
0
VERTEX
8
CUT
10
27.1429
20
31.4286
0
VERTEX
8
CUT
10
27.1429
20
32.8571
0
SEQEND
0
POLYLINE
8
CUT
66
1
70
0
0
VERTEX
8
CUT
10
35
20
35
0
VERTEX
8
CUT
10
35
20
30.7143
0
VERTEX
8
CUT
10
30.7143
20
30.7143
0
VERTEX
8
CUT
10
30.7143
20
33.5714
0
VERTEX
8
CUT
10
33.5714
20
33.5714
0
VERTEX
8
CUT
10
33.5714
20
32.1429
0
VERTEX
8
CUT
10
32.1429
20
32.1429
0
SEQEND
0
POLYLINE
8
CUT
66
1
70
0
0
VERTEX
8
CUT
10
30
20
30
0
VERTEX
8
CUT
10
30
20
34.2857
0
VERTEX
8
CUT
10
34.2857
20
34.2857
0
VERTEX
8
CUT
10
34.2857
20
31.4286
0
VERTEX
8
CUT
10
31.4286
20
31.4286
0
VERTEX
8
CUT
10
31.4286
20
32.8571
0
VERTEX
8
CUT
10
32.8571
20
32.8571
0
SEQEND
0
POLYLINE
8
CUT
66
1
70
0
0
VERTEX
8
CUT
10
35
20
35
0
VERTEX
8
CUT
10
39.2857
20
35
0
VERTEX
8
CUT
10
39.2857
20
30.7143
0
VERTEX
8
CUT
10
36.4286
20
30.7143
0
VERTEX
8
CUT
10
36.4286
20
33.5714
0
VERTEX
8
CUT
10
37.8571
20
33.5714
0
VERTEX
8
CUT
10
37.8571
20
32.1429
0
SEQEND
0
POLYLINE
8
CUT
66
1
70
0
0
VERTEX
8
CUT
10
40
20
30
0
VERTEX
8
CUT
10
35.7143
20
30
0
VERTEX
8
CUT
10
35.7143
20
34.2857
0
VERTEX
8
CUT
10
38.5714
20
34.2857
0
VERTEX
8
CUT
10
38.5714
20
31.4286
0
VERTEX
8
CUT
10
37.1429
20
31.4286
0
VERTEX
8
CUT
10
37.1429
20
32.8571
0
SEQEND
0
POLYLINE
8
CUT
66
1
70
0
0
VERTEX
8
CUT
10
45
20
35
0
VERTEX
8
CUT
10
45
20
30.7143
0
VERTEX
8
CUT
10
40.7143
20
30.7143
0
VERTEX
8
CUT
10
40.7143
20
33.5714
0
VERTEX
8
CUT
10
43.5714
20
33.5714
0
VERTEX
8
CUT
10
43.5714
20
32.1429
0
VERTEX
8
CUT
10
42.1429
20
32.1429
0
SEQEND
0
POLYLINE
8
CUT
66
1
70
0
0
VERTEX
8
CUT
10
40
20
30
0
VERTEX
8
CUT
10
40
20
34.2857
0
VERTEX
8
CUT
10
44.2857
20
34.2857
0
VERTEX
8
CUT
10
44.2857
20
31.4286
0
VERTEX
8
CUT
10
41.4286
20
31.4286
0
VERTEX
8
CUT
10
41.4286
20
32.8571
0
VERTEX
8
CUT
10
42.8571
20
32.8571
0
SEQEND
0
POLYLINE
8
CUT
66
1
70
0
0
VERTEX
8
CUT
10
45
20
35
0
VERTEX
8
CUT
10
49.2857
20
35
0
VERTEX
8
CUT
10
49.2857
20
30.7143
0
VERTEX
8
CUT
10
46.4286
20
30.7143
0
VERTEX
8
CUT
10
46.4286
20
33.5714
0
VERTEX
8
CUT
10
47.8571
20
33.5714
0
VERTEX
8
CUT
10
47.8571
20
32.1429
0
SEQEND
0
POLYLINE
8
CUT
66
1
70
0
0
VERTEX
8
CUT
10
50
20
30
0
VERTEX
8
CUT
10
45.7143
20
30
0
VERTEX
8
CUT
10
45.7143
20
34.2857
0
VERTEX
8
CUT
10
48.5714
20
34.2857
0
VERTEX
8
CUT
10
48.5714
20
31.4286
0
VERTEX
8
CUT
10
47.1429
20
31.4286
0
VERTEX
8
CUT
10
47.1429
20
32.8571
0
SEQEND
0
POLYLINE
8
CUT
66
1
70
0
0
VERTEX
8
CUT
10
55
20
35
0
VERTEX
8
CUT
10
55
20
30.7143
0
VERTEX
8
CUT
10
50.7143
20
30.7143
0
VERTEX
8
CUT
10
50.7143
20
33.5714
0
VERTEX
8
CUT
10
53.5714
20
33.5714
0
VERTEX
8
CUT
10
53.5714
20
32.1429
0
VERTEX
8
CUT
10
52.1429
20
32.1429
0
SEQEND
0
POLYLINE
8
CUT
66
1
70
0
0
VERTEX
8
CUT
10
50
20
30
0
VERTEX
8
CUT
10
50
20
34.2857
0
VERTEX
8
CUT
10
54.2857
20
34.2857
0
VERTEX
8
CUT
10
54.2857
20
31.4286
0
VERTEX
8
CUT
10
51.4286
20
31.4286
0
VERTEX
8
CUT
10
51.4286
20
32.8571
0
VERTEX
8
CUT
10
52.8571
20
32.8571
0
SEQEND
0
POLYLINE
8
CUT
66
1
70
0
0
VERTEX
8
CUT
10
55
20
35
0
VERTEX
8
CUT
10
59.2857
20
35
0
VERTEX
8
CUT
10
59.2857
20
30.7143
0
VERTEX
8
CUT
10
56.4286
20
30.7143
0
VERTEX
8
CUT
10
56.4286
20
33.5714
0
VERTEX
8
CUT
10
57.8571
20
33.5714
0
VERTEX
8
CUT
10
57.8571
20
32.1429
0
SEQEND
0
POLYLINE
8
CUT
66
1
70
0
0
VERTEX
8
CUT
10
60
20
30
0
VERTEX
8
CUT
10
55.7143
20
30
0
VERTEX
8
CUT
10
55.7143
20
34.2857
0
VERTEX
8
CUT
10
58.5714
20
34.2857
0
VERTEX
8
CUT
10
58.5714
20
31.4286
0
VERTEX
8
CUT
10
57.1429
20
31.4286
0
VERTEX
8
CUT
10
57.1429
20
32.8571
0
SEQEND
0
POLYLINE
8
CUT
66
1
70
0
0
VERTEX
8
CUT
10
65
20
35
0
VERTEX
8
CUT
10
65
20
30.7143
0
VERTEX
8
CUT
10
60.7143
20
30.7143
0
VERTEX
8
CUT
10
60.7143
20
33.5714
0
VERTEX
8
CUT
10
63.5714
20
33.5714
0
VERTEX
8
CUT
10
63.5714
20
32.1429
0
VERTEX
8
CUT
10
62.1429
20
32.1429
0
SEQEND
0
POLYLINE
8
CUT
66
1
70
0
0
VERTEX
8
CUT
10
60
20
30
0
VERTEX
8
CUT
10
60
20
34.2857
0
VERTEX
8
CUT
10
64.2857
20
34.2857
0
VERTEX
8
CUT
10
64.2857
20
31.4286
0
VERTEX
8
CUT
10
61.4286
20
31.4286
0
VERTEX
8
CUT
10
61.4286
20
32.8571
0
VERTEX
8
CUT
10
62.8571
20
32.8571
0
SEQEND
0
POLYLINE
8
CUT
66
1
70
0
0
VERTEX
8
CUT
10
65
20
35
0
VERTEX
8
CUT
10
69.2857
20
35
0
VERTEX
8
CUT
10
69.2857
20
30.7143
0
VERTEX
8
CUT
10
66.4286
20
30.7143
0
VERTEX
8
CUT
10
66.4286
20
33.5714
0
VERTEX
8
CUT
10
67.8571
20
33.5714
0
VERTEX
8
CUT
10
67.8571
20
32.1429
0
SEQEND
0
POLYLINE
8
CUT
66
1
70
0
0
VERTEX
8
CUT
10
70
20
30
0
VERTEX
8
CUT
10
65.7143
20
30
0
VERTEX
8
CUT
10
65.7143
20
34.2857
0
VERTEX
8
CUT
10
68.5714
20
34.2857
0
VERTEX
8
CUT
10
68.5714
20
31.4286
0
VERTEX
8
CUT
10
67.1429
20
31.4286
0
VERTEX
8
CUT
10
67.1429
20
32.8571
0
SEQEND
0
POLYLINE
8
CUT
66
1
70
0
0
VERTEX
8
CUT
10
75
20
35
0
VERTEX
8
CUT
10
75
20
30.7143
0
VERTEX
8
CUT
10
70.7143
20
30.7143
0
VERTEX
8
CUT
10
70.7143
20
33.5714
0
VERTEX
8
CUT
10
73.5714
20
33.5714
0
VERTEX
8
CUT
10
73.5714
20
32.1429
0
VERTEX
8
CUT
10
72.1429
20
32.1429
0
SEQEND
0
POLYLINE
8
CUT
66
1
70
0
0
VERTEX
8
CUT
10
70
20
30
0
VERTEX
8
CUT
10
70
20
34.2857
0
VERTEX
8
CUT
10
74.2857
20
34.2857
0
VERTEX
8
CUT
10
74.2857
20
31.4286
0
VERTEX
8
CUT
10
71.4286
20
31.4286
0
VERTEX
8
CUT
10
71.4286
20
32.8571
0
VERTEX
8
CUT
10
72.8571
20
32.8571
0
SEQEND
0
POLYLINE
8
CUT
66
1
70
0
0
VERTEX
8
CUT
10
75
20
35
0
VERTEX
8
CUT
10
79.2857
20
35
0
VERTEX
8
CUT
10
79.2857
20
30.7143
0
VERTEX
8
CUT
10
76.4286
20
30.7143
0
VERTEX
8
CUT
10
76.4286
20
33.5714
0
VERTEX
8
CUT
10
77.8571
20
33.5714
0
VERTEX
8
CUT
10
77.8571
20
32.1429
0
SEQEND
0
POLYLINE
8
CUT
66
1
70
0
0
VERTEX
8
CUT
10
80
20
30
0
VERTEX
8
CUT
10
75.7143
20
30
0
VERTEX
8
CUT
10
75.7143
20
34.2857
0
VERTEX
8
CUT
10
78.5714
20
34.2857
0
VERTEX
8
CUT
10
78.5714
20
31.4286
0
VERTEX
8
CUT
10
77.1429
20
31.4286
0
VERTEX
8
CUT
10
77.1429
20
32.8571
0
SEQEND
0
POLYLINE
8
CUT
66
1
70
0
0
VERTEX
8
CUT
10
85
20
35
0
VERTEX
8
CUT
10
85
20
30.7143
0
VERTEX
8
CUT
10
80.7143
20
30.7143
0
VERTEX
8
CUT
10
80.7143
20
33.5714
0
VERTEX
8
CUT
10
83.5714
20
33.5714
0
VERTEX
8
CUT
10
83.5714
20
32.1429
0
VERTEX
8
CUT
10
82.1429
20
32.1429
0
SEQEND
0
POLYLINE
8
CUT
66
1
70
0
0
VERTEX
8
CUT
10
80
20
30
0
VERTEX
8
CUT
10
80
20
34.2857
0
VERTEX
8
CUT
10
84.2857
20
34.2857
0
VERTEX
8
CUT
10
84.2857
20
31.4286
0
VERTEX
8
CUT
10
81.4286
20
31.4286
0
VERTEX
8
CUT
10
81.4286
20
32.8571
0
VERTEX
8
CUT
10
82.8571
20
32.8571
0
SEQEND
0
POLYLINE
8
CUT
66
1
70
0
0
VERTEX
8
CUT
10
85
20
35
0
VERTEX
8
CUT
10
89.2857
20
35
0
VERTEX
8
CUT
10
89.2857
20
30.7143
0
VERTEX
8
CUT
10
86.4286
20
30.7143
0
VERTEX
8
CUT
10
86.4286
20
33.5714
0
VERTEX
8
CUT
10
87.8571
20
33.5714
0
VERTEX
8
CUT
10
87.8571
20
32.1429
0
SEQEND
0
POLYLINE
8
CUT
66
1
70
0
0
VERTEX
8
CUT
10
90
20
30
0
VERTEX
8
CUT
10
85.7143
20
30
0
VERTEX
8
CUT
10
85.7143
20
34.2857
0
VERTEX
8
CUT
10
88.5714
20
34.2857
0
VERTEX
8
CUT
10
88.5714
20
31.4286
0
VERTEX
8
CUT
10
87.1429
20
31.4286
0
VERTEX
8
CUT
10
87.1429
20
32.8571
0
SEQEND
0
POLYLINE
8
CUT
66
1
70
0
0
VERTEX
8
CUT
10
95
20
35
0
VERTEX
8
CUT
10
95
20
30.7143
0
VERTEX
8
CUT
10
90.7143
20
30.7143
0
VERTEX
8
CUT
10
90.7143
20
33.5714
0
VERTEX
8
CUT
10
93.5714
20
33.5714
0
VERTEX
8
CUT
10
93.5714
20
32.1429
0
VERTEX
8
CUT
10
92.1429
20
32.1429
0
SEQEND
0
POLYLINE
8
CUT
66
1
70
0
0
VERTEX
8
CUT
10
90
20
30
0
VERTEX
8
CUT
10
90
20
34.2857
0
VERTEX
8
CUT
10
94.2857
20
34.2857
0
VERTEX
8
CUT
10
94.2857
20
31.4286
0
VERTEX
8
CUT
10
91.4286
20
31.4286
0
VERTEX
8
CUT
10
91.4286
20
32.8571
0
VERTEX
8
CUT
10
92.8571
20
32.8571
0
SEQEND
0
POLYLINE
8
CUT
66
1
70
0
0
VERTEX
8
CUT
10
95
20
35
0
VERTEX
8
CUT
10
99.2857
20
35
0
VERTEX
8
CUT
10
99.2857
20
30.7143
0
VERTEX
8
CUT
10
96.4286
20
30.7143
0
VERTEX
8
CUT
10
96.4286
20
33.5714
0
VERTEX
8
CUT
10
97.8571
20
33.5714
0
VERTEX
8
CUT
10
97.8571
20
32.1429
0
SEQEND
0
POLYLINE
8
CUT
66
1
70
0
0
VERTEX
8
CUT
10
100
20
30
0
VERTEX
8
CUT
10
95.7143
20
30
0
VERTEX
8
CUT
10
95.7143
20
34.2857
0
VERTEX
8
CUT
10
98.5714
20
34.2857
0
VERTEX
8
CUT
10
98.5714
20
31.4286
0
VERTEX
8
CUT
10
97.1429
20
31.4286
0
VERTEX
8
CUT
10
97.1429
20
32.8571
0
SEQEND
0
POLYLINE
8
CUT
66
1
70
0
0
VERTEX
8
CUT
10
105
20
35
0
VERTEX
8
CUT
10
105
20
30.7143
0
VERTEX
8
CUT
10
100.7143
20
30.7143
0
VERTEX
8
CUT
10
100.7143
20
33.5714
0
VERTEX
8
CUT
10
103.5714
20
33.5714
0
VERTEX
8
CUT
10
103.5714
20
32.1429
0
VERTEX
8
CUT
10
102.1429
20
32.1429
0
SEQEND
0
POLYLINE
8
CUT
66
1
70
0
0
VERTEX
8
CUT
10
100
20
30
0
VERTEX
8
CUT
10
100
20
34.2857
0
VERTEX
8
CUT
10
104.2857
20
34.2857
0
VERTEX
8
CUT
10
104.2857
20
31.4286
0
VERTEX
8
CUT
10
101.4286
20
31.4286
0
VERTEX
8
CUT
10
101.4286
20
32.8571
0
VERTEX
8
CUT
10
102.8571
20
32.8571
0
SEQEND
0
POLYLINE
8
CUT
66
1
70
0
0
VERTEX
8
CUT
10
105
20
35
0
VERTEX
8
CUT
10
109.2857
20
35
0
VERTEX
8
CUT
10
109.2857
20
30.7143
0
VERTEX
8
CUT
10
106.4286
20
30.7143
0
VERTEX
8
CUT
10
106.4286
20
33.5714
0
VERTEX
8
CUT
10
107.8571
20
33.5714
0
VERTEX
8
CUT
10
107.8571
20
32.1429
0
SEQEND
0
POLYLINE
8
CUT
66
1
70
0
0
VERTEX
8
CUT
10
110
20
30
0
VERTEX
8
CUT
10
105.7143
20
30
0
VERTEX
8
CUT
10
105.7143
20
34.2857
0
VERTEX
8
CUT
10
108.5714
20
34.2857
0
VERTEX
8
CUT
10
108.5714
20
31.4286
0
VERTEX
8
CUT
10
107.1429
20
31.4286
0
VERTEX
8
CUT
10
107.1429
20
32.8571
0
SEQEND
0
POLYLINE
8
CUT
66
1
70
0
0
VERTEX
8
CUT
10
115
20
35
0
VERTEX
8
CUT
10
115
20
30.7143
0
VERTEX
8
CUT
10
110.7143
20
30.7143
0
VERTEX
8
CUT
10
110.7143
20
33.5714
0
VERTEX
8
CUT
10
113.5714
20
33.5714
0
VERTEX
8
CUT
10
113.5714
20
32.1429
0
VERTEX
8
CUT
10
112.1429
20
32.1429
0
SEQEND
0
POLYLINE
8
CUT
66
1
70
0
0
VERTEX
8
CUT
10
110
20
30
0
VERTEX
8
CUT
10
110
20
34.2857
0
VERTEX
8
CUT
10
114.2857
20
34.2857
0
VERTEX
8
CUT
10
114.2857
20
31.4286
0
VERTEX
8
CUT
10
111.4286
20
31.4286
0
VERTEX
8
CUT
10
111.4286
20
32.8571
0
VERTEX
8
CUT
10
112.8571
20
32.8571
0
SEQEND
0
POLYLINE
8
CUT
66
1
70
0
0
VERTEX
8
CUT
10
115
20
35
0
VERTEX
8
CUT
10
119.2857
20
35
0
VERTEX
8
CUT
10
119.2857
20
30.7143
0
VERTEX
8
CUT
10
116.4286
20
30.7143
0
VERTEX
8
CUT
10
116.4286
20
33.5714
0
VERTEX
8
CUT
10
117.8571
20
33.5714
0
VERTEX
8
CUT
10
117.8571
20
32.1429
0
SEQEND
0
POLYLINE
8
CUT
66
1
70
0
0
VERTEX
8
CUT
10
120
20
30
0
VERTEX
8
CUT
10
115.7143
20
30
0
VERTEX
8
CUT
10
115.7143
20
34.2857
0
VERTEX
8
CUT
10
118.5714
20
34.2857
0
VERTEX
8
CUT
10
118.5714
20
31.4286
0
VERTEX
8
CUT
10
117.1429
20
31.4286
0
VERTEX
8
CUT
10
117.1429
20
32.8571
0
SEQEND
0
POLYLINE
8
CUT
66
1
70
0
0
VERTEX
8
CUT
10
0
20
30
0
VERTEX
8
CUT
10
4.2857
20
30
0
VERTEX
8
CUT
10
4.2857
20
25.7143
0
VERTEX
8
CUT
10
1.4286
20
25.7143
0
VERTEX
8
CUT
10
1.4286
20
28.5714
0
VERTEX
8
CUT
10
2.8571
20
28.5714
0
VERTEX
8
CUT
10
2.8571
20
27.1429
0
SEQEND
0
POLYLINE
8
CUT
66
1
70
0
0
VERTEX
8
CUT
10
5
20
25
0
VERTEX
8
CUT
10
0.7143
20
25
0
VERTEX
8
CUT
10
0.7143
20
29.2857
0
VERTEX
8
CUT
10
3.5714
20
29.2857
0
VERTEX
8
CUT
10
3.5714
20
26.4286
0
VERTEX
8
CUT
10
2.1429
20
26.4286
0
VERTEX
8
CUT
10
2.1429
20
27.8571
0
SEQEND
0
POLYLINE
8
CUT
66
1
70
0
0
VERTEX
8
CUT
10
10
20
30
0
VERTEX
8
CUT
10
10
20
25.7143
0
VERTEX
8
CUT
10
5.7143
20
25.7143
0
VERTEX
8
CUT
10
5.7143
20
28.5714
0
VERTEX
8
CUT
10
8.5714
20
28.5714
0
VERTEX
8
CUT
10
8.5714
20
27.1429
0
VERTEX
8
CUT
10
7.1429
20
27.1429
0
SEQEND
0
POLYLINE
8
CUT
66
1
70
0
0
VERTEX
8
CUT
10
5
20
25
0
VERTEX
8
CUT
10
5
20
29.2857
0
VERTEX
8
CUT
10
9.2857
20
29.2857
0
VERTEX
8
CUT
10
9.2857
20
26.4286
0
VERTEX
8
CUT
10
6.4286
20
26.4286
0
VERTEX
8
CUT
10
6.4286
20
27.8571
0
VERTEX
8
CUT
10
7.8571
20
27.8571
0
SEQEND
0
POLYLINE
8
CUT
66
1
70
0
0
VERTEX
8
CUT
10
10
20
30
0
VERTEX
8
CUT
10
14.2857
20
30
0
VERTEX
8
CUT
10
14.2857
20
25.7143
0
VERTEX
8
CUT
10
11.4286
20
25.7143
0
VERTEX
8
CUT
10
11.4286
20
28.5714
0
VERTEX
8
CUT
10
12.8571
20
28.5714
0
VERTEX
8
CUT
10
12.8571
20
27.1429
0
SEQEND
0
POLYLINE
8
CUT
66
1
70
0
0
VERTEX
8
CUT
10
15
20
25
0
VERTEX
8
CUT
10
10.7143
20
25
0
VERTEX
8
CUT
10
10.7143
20
29.2857
0
VERTEX
8
CUT
10
13.5714
20
29.2857
0
VERTEX
8
CUT
10
13.5714
20
26.4286
0
VERTEX
8
CUT
10
12.1429
20
26.4286
0
VERTEX
8
CUT
10
12.1429
20
27.8571
0
SEQEND
0
POLYLINE
8
CUT
66
1
70
0
0
VERTEX
8
CUT
10
20
20
30
0
VERTEX
8
CUT
10
20
20
25.7143
0
VERTEX
8
CUT
10
15.7143
20
25.7143
0
VERTEX
8
CUT
10
15.7143
20
28.5714
0
VERTEX
8
CUT
10
18.5714
20
28.5714
0
VERTEX
8
CUT
10
18.5714
20
27.1429
0
VERTEX
8
CUT
10
17.1429
20
27.1429
0
SEQEND
0
POLYLINE
8
CUT
66
1
70
0
0
VERTEX
8
CUT
10
15
20
25
0
VERTEX
8
CUT
10
15
20
29.2857
0
VERTEX
8
CUT
10
19.2857
20
29.2857
0
VERTEX
8
CUT
10
19.2857
20
26.4286
0
VERTEX
8
CUT
10
16.4286
20
26.4286
0
VERTEX
8
CUT
10
16.4286
20
27.8571
0
VERTEX
8
CUT
10
17.8571
20
27.8571
0
SEQEND
0
POLYLINE
8
CUT
66
1
70
0
0
VERTEX
8
CUT
10
20
20
30
0
VERTEX
8
CUT
10
24.2857
20
30
0
VERTEX
8
CUT
10
24.2857
20
25.7143
0
VERTEX
8
CUT
10
21.4286
20
25.7143
0
VERTEX
8
CUT
10
21.4286
20
28.5714
0
VERTEX
8
CUT
10
22.8571
20
28.5714
0
VERTEX
8
CUT
10
22.8571
20
27.1429
0
SEQEND
0
POLYLINE
8
CUT
66
1
70
0
0
VERTEX
8
CUT
10
25
20
25
0
VERTEX
8
CUT
10
20.7143
20
25
0
VERTEX
8
CUT
10
20.7143
20
29.2857
0
VERTEX
8
CUT
10
23.5714
20
29.2857
0
VERTEX
8
CUT
10
23.5714
20
26.4286
0
VERTEX
8
CUT
10
22.1429
20
26.4286
0
VERTEX
8
CUT
10
22.1429
20
27.8571
0
SEQEND
0
POLYLINE
8
CUT
66
1
70
0
0
VERTEX
8
CUT
10
30
20
30
0
VERTEX
8
CUT
10
30
20
25.7143
0
VERTEX
8
CUT
10
25.7143
20
25.7143
0
VERTEX
8
CUT
10
25.7143
20
28.5714
0
VERTEX
8
CUT
10
28.5714
20
28.5714
0
VERTEX
8
CUT
10
28.5714
20
27.1429
0
VERTEX
8
CUT
10
27.1429
20
27.1429
0
SEQEND
0
POLYLINE
8
CUT
66
1
70
0
0
VERTEX
8
CUT
10
25
20
25
0
VERTEX
8
CUT
10
25
20
29.2857
0
VERTEX
8
CUT
10
29.2857
20
29.2857
0
VERTEX
8
CUT
10
29.2857
20
26.4286
0
VERTEX
8
CUT
10
26.4286
20
26.4286
0
VERTEX
8
CUT
10
26.4286
20
27.8571
0
VERTEX
8
CUT
10
27.8571
20
27.8571
0
SEQEND
0
POLYLINE
8
CUT
66
1
70
0
0
VERTEX
8
CUT
10
30
20
30
0
VERTEX
8
CUT
10
34.2857
20
30
0
VERTEX
8
CUT
10
34.2857
20
25.7143
0
VERTEX
8
CUT
10
31.4286
20
25.7143
0
VERTEX
8
CUT
10
31.4286
20
28.5714
0
VERTEX
8
CUT
10
32.8571
20
28.5714
0
VERTEX
8
CUT
10
32.8571
20
27.1429
0
SEQEND
0
POLYLINE
8
CUT
66
1
70
0
0
VERTEX
8
CUT
10
35
20
25
0
VERTEX
8
CUT
10
30.7143
20
25
0
VERTEX
8
CUT
10
30.7143
20
29.2857
0
VERTEX
8
CUT
10
33.5714
20
29.2857
0
VERTEX
8
CUT
10
33.5714
20
26.4286
0
VERTEX
8
CUT
10
32.1429
20
26.4286
0
VERTEX
8
CUT
10
32.1429
20
27.8571
0
SEQEND
0
POLYLINE
8
CUT
66
1
70
0
0
VERTEX
8
CUT
10
40
20
30
0
VERTEX
8
CUT
10
40
20
25.7143
0
VERTEX
8
CUT
10
35.7143
20
25.7143
0
VERTEX
8
CUT
10
35.7143
20
28.5714
0
VERTEX
8
CUT
10
38.5714
20
28.5714
0
VERTEX
8
CUT
10
38.5714
20
27.1429
0
VERTEX
8
CUT
10
37.1429
20
27.1429
0
SEQEND
0
POLYLINE
8
CUT
66
1
70
0
0
VERTEX
8
CUT
10
35
20
25
0
VERTEX
8
CUT
10
35
20
29.2857
0
VERTEX
8
CUT
10
39.2857
20
29.2857
0
VERTEX
8
CUT
10
39.2857
20
26.4286
0
VERTEX
8
CUT
10
36.4286
20
26.4286
0
VERTEX
8
CUT
10
36.4286
20
27.8571
0
VERTEX
8
CUT
10
37.8571
20
27.8571
0
SEQEND
0
POLYLINE
8
CUT
66
1
70
0
0
VERTEX
8
CUT
10
40
20
30
0
VERTEX
8
CUT
10
44.2857
20
30
0
VERTEX
8
CUT
10
44.2857
20
25.7143
0
VERTEX
8
CUT
10
41.4286
20
25.7143
0
VERTEX
8
CUT
10
41.4286
20
28.5714
0
VERTEX
8
CUT
10
42.8571
20
28.5714
0
VERTEX
8
CUT
10
42.8571
20
27.1429
0
SEQEND
0
POLYLINE
8
CUT
66
1
70
0
0
VERTEX
8
CUT
10
45
20
25
0
VERTEX
8
CUT
10
40.7143
20
25
0
VERTEX
8
CUT
10
40.7143
20
29.2857
0
VERTEX
8
CUT
10
43.5714
20
29.2857
0
VERTEX
8
CUT
10
43.5714
20
26.4286
0
VERTEX
8
CUT
10
42.1429
20
26.4286
0
VERTEX
8
CUT
10
42.1429
20
27.8571
0
SEQEND
0
POLYLINE
8
CUT
66
1
70
0
0
VERTEX
8
CUT
10
50
20
30
0
VERTEX
8
CUT
10
50
20
25.7143
0
VERTEX
8
CUT
10
45.7143
20
25.7143
0
VERTEX
8
CUT
10
45.7143
20
28.5714
0
VERTEX
8
CUT
10
48.5714
20
28.5714
0
VERTEX
8
CUT
10
48.5714
20
27.1429
0
VERTEX
8
CUT
10
47.1429
20
27.1429
0
SEQEND
0
POLYLINE
8
CUT
66
1
70
0
0
VERTEX
8
CUT
10
45
20
25
0
VERTEX
8
CUT
10
45
20
29.2857
0
VERTEX
8
CUT
10
49.2857
20
29.2857
0
VERTEX
8
CUT
10
49.2857
20
26.4286
0
VERTEX
8
CUT
10
46.4286
20
26.4286
0
VERTEX
8
CUT
10
46.4286
20
27.8571
0
VERTEX
8
CUT
10
47.8571
20
27.8571
0
SEQEND
0
POLYLINE
8
CUT
66
1
70
0
0
VERTEX
8
CUT
10
50
20
30
0
VERTEX
8
CUT
10
54.2857
20
30
0
VERTEX
8
CUT
10
54.2857
20
25.7143
0
VERTEX
8
CUT
10
51.4286
20
25.7143
0
VERTEX
8
CUT
10
51.4286
20
28.5714
0
VERTEX
8
CUT
10
52.8571
20
28.5714
0
VERTEX
8
CUT
10
52.8571
20
27.1429
0
SEQEND
0
POLYLINE
8
CUT
66
1
70
0
0
VERTEX
8
CUT
10
55
20
25
0
VERTEX
8
CUT
10
50.7143
20
25
0
VERTEX
8
CUT
10
50.7143
20
29.2857
0
VERTEX
8
CUT
10
53.5714
20
29.2857
0
VERTEX
8
CUT
10
53.5714
20
26.4286
0
VERTEX
8
CUT
10
52.1429
20
26.4286
0
VERTEX
8
CUT
10
52.1429
20
27.8571
0
SEQEND
0
POLYLINE
8
CUT
66
1
70
0
0
VERTEX
8
CUT
10
60
20
30
0
VERTEX
8
CUT
10
60
20
25.7143
0
VERTEX
8
CUT
10
55.7143
20
25.7143
0
VERTEX
8
CUT
10
55.7143
20
28.5714
0
VERTEX
8
CUT
10
58.5714
20
28.5714
0
VERTEX
8
CUT
10
58.5714
20
27.1429
0
VERTEX
8
CUT
10
57.1429
20
27.1429
0
SEQEND
0
POLYLINE
8
CUT
66
1
70
0
0
VERTEX
8
CUT
10
55
20
25
0
VERTEX
8
CUT
10
55
20
29.2857
0
VERTEX
8
CUT
10
59.2857
20
29.2857
0
VERTEX
8
CUT
10
59.2857
20
26.4286
0
VERTEX
8
CUT
10
56.4286
20
26.4286
0
VERTEX
8
CUT
10
56.4286
20
27.8571
0
VERTEX
8
CUT
10
57.8571
20
27.8571
0
SEQEND
0
POLYLINE
8
CUT
66
1
70
0
0
VERTEX
8
CUT
10
60
20
30
0
VERTEX
8
CUT
10
64.2857
20
30
0
VERTEX
8
CUT
10
64.2857
20
25.7143
0
VERTEX
8
CUT
10
61.4286
20
25.7143
0
VERTEX
8
CUT
10
61.4286
20
28.5714
0
VERTEX
8
CUT
10
62.8571
20
28.5714
0
VERTEX
8
CUT
10
62.8571
20
27.1429
0
SEQEND
0
POLYLINE
8
CUT
66
1
70
0
0
VERTEX
8
CUT
10
65
20
25
0
VERTEX
8
CUT
10
60.7143
20
25
0
VERTEX
8
CUT
10
60.7143
20
29.2857
0
VERTEX
8
CUT
10
63.5714
20
29.2857
0
VERTEX
8
CUT
10
63.5714
20
26.4286
0
VERTEX
8
CUT
10
62.1429
20
26.4286
0
VERTEX
8
CUT
10
62.1429
20
27.8571
0
SEQEND
0
POLYLINE
8
CUT
66
1
70
0
0
VERTEX
8
CUT
10
70
20
30
0
VERTEX
8
CUT
10
70
20
25.7143
0
VERTEX
8
CUT
10
65.7143
20
25.7143
0
VERTEX
8
CUT
10
65.7143
20
28.5714
0
VERTEX
8
CUT
10
68.5714
20
28.5714
0
VERTEX
8
CUT
10
68.5714
20
27.1429
0
VERTEX
8
CUT
10
67.1429
20
27.1429
0
SEQEND
0
POLYLINE
8
CUT
66
1
70
0
0
VERTEX
8
CUT
10
65
20
25
0
VERTEX
8
CUT
10
65
20
29.2857
0
VERTEX
8
CUT
10
69.2857
20
29.2857
0
VERTEX
8
CUT
10
69.2857
20
26.4286
0
VERTEX
8
CUT
10
66.4286
20
26.4286
0
VERTEX
8
CUT
10
66.4286
20
27.8571
0
VERTEX
8
CUT
10
67.8571
20
27.8571
0
SEQEND
0
POLYLINE
8
CUT
66
1
70
0
0
VERTEX
8
CUT
10
70
20
30
0
VERTEX
8
CUT
10
74.2857
20
30
0
VERTEX
8
CUT
10
74.2857
20
25.7143
0
VERTEX
8
CUT
10
71.4286
20
25.7143
0
VERTEX
8
CUT
10
71.4286
20
28.5714
0
VERTEX
8
CUT
10
72.8571
20
28.5714
0
VERTEX
8
CUT
10
72.8571
20
27.1429
0
SEQEND
0
POLYLINE
8
CUT
66
1
70
0
0
VERTEX
8
CUT
10
75
20
25
0
VERTEX
8
CUT
10
70.7143
20
25
0
VERTEX
8
CUT
10
70.7143
20
29.2857
0
VERTEX
8
CUT
10
73.5714
20
29.2857
0
VERTEX
8
CUT
10
73.5714
20
26.4286
0
VERTEX
8
CUT
10
72.1429
20
26.4286
0
VERTEX
8
CUT
10
72.1429
20
27.8571
0
SEQEND
0
POLYLINE
8
CUT
66
1
70
0
0
VERTEX
8
CUT
10
80
20
30
0
VERTEX
8
CUT
10
80
20
25.7143
0
VERTEX
8
CUT
10
75.7143
20
25.7143
0
VERTEX
8
CUT
10
75.7143
20
28.5714
0
VERTEX
8
CUT
10
78.5714
20
28.5714
0
VERTEX
8
CUT
10
78.5714
20
27.1429
0
VERTEX
8
CUT
10
77.1429
20
27.1429
0
SEQEND
0
POLYLINE
8
CUT
66
1
70
0
0
VERTEX
8
CUT
10
75
20
25
0
VERTEX
8
CUT
10
75
20
29.2857
0
VERTEX
8
CUT
10
79.2857
20
29.2857
0
VERTEX
8
CUT
10
79.2857
20
26.4286
0
VERTEX
8
CUT
10
76.4286
20
26.4286
0
VERTEX
8
CUT
10
76.4286
20
27.8571
0
VERTEX
8
CUT
10
77.8571
20
27.8571
0
SEQEND
0
POLYLINE
8
CUT
66
1
70
0
0
VERTEX
8
CUT
10
80
20
30
0
VERTEX
8
CUT
10
84.2857
20
30
0
VERTEX
8
CUT
10
84.2857
20
25.7143
0
VERTEX
8
CUT
10
81.4286
20
25.7143
0
VERTEX
8
CUT
10
81.4286
20
28.5714
0
VERTEX
8
CUT
10
82.8571
20
28.5714
0
VERTEX
8
CUT
10
82.8571
20
27.1429
0
SEQEND
0
POLYLINE
8
CUT
66
1
70
0
0
VERTEX
8
CUT
10
85
20
25
0
VERTEX
8
CUT
10
80.7143
20
25
0
VERTEX
8
CUT
10
80.7143
20
29.2857
0
VERTEX
8
CUT
10
83.5714
20
29.2857
0
VERTEX
8
CUT
10
83.5714
20
26.4286
0
VERTEX
8
CUT
10
82.1429
20
26.4286
0
VERTEX
8
CUT
10
82.1429
20
27.8571
0
SEQEND
0
POLYLINE
8
CUT
66
1
70
0
0
VERTEX
8
CUT
10
90
20
30
0
VERTEX
8
CUT
10
90
20
25.7143
0
VERTEX
8
CUT
10
85.7143
20
25.7143
0
VERTEX
8
CUT
10
85.7143
20
28.5714
0
VERTEX
8
CUT
10
88.5714
20
28.5714
0
VERTEX
8
CUT
10
88.5714
20
27.1429
0
VERTEX
8
CUT
10
87.1429
20
27.1429
0
SEQEND
0
POLYLINE
8
CUT
66
1
70
0
0
VERTEX
8
CUT
10
85
20
25
0
VERTEX
8
CUT
10
85
20
29.2857
0
VERTEX
8
CUT
10
89.2857
20
29.2857
0
VERTEX
8
CUT
10
89.2857
20
26.4286
0
VERTEX
8
CUT
10
86.4286
20
26.4286
0
VERTEX
8
CUT
10
86.4286
20
27.8571
0
VERTEX
8
CUT
10
87.8571
20
27.8571
0
SEQEND
0
POLYLINE
8
CUT
66
1
70
0
0
VERTEX
8
CUT
10
90
20
30
0
VERTEX
8
CUT
10
94.2857
20
30
0
VERTEX
8
CUT
10
94.2857
20
25.7143
0
VERTEX
8
CUT
10
91.4286
20
25.7143
0
VERTEX
8
CUT
10
91.4286
20
28.5714
0
VERTEX
8
CUT
10
92.8571
20
28.5714
0
VERTEX
8
CUT
10
92.8571
20
27.1429
0
SEQEND
0
POLYLINE
8
CUT
66
1
70
0
0
VERTEX
8
CUT
10
95
20
25
0
VERTEX
8
CUT
10
90.7143
20
25
0
VERTEX
8
CUT
10
90.7143
20
29.2857
0
VERTEX
8
CUT
10
93.5714
20
29.2857
0
VERTEX
8
CUT
10
93.5714
20
26.4286
0
VERTEX
8
CUT
10
92.1429
20
26.4286
0
VERTEX
8
CUT
10
92.1429
20
27.8571
0
SEQEND
0
POLYLINE
8
CUT
66
1
70
0
0
VERTEX
8
CUT
10
100
20
30
0
VERTEX
8
CUT
10
100
20
25.7143
0
VERTEX
8
CUT
10
95.7143
20
25.7143
0
VERTEX
8
CUT
10
95.7143
20
28.5714
0
VERTEX
8
CUT
10
98.5714
20
28.5714
0
VERTEX
8
CUT
10
98.5714
20
27.1429
0
VERTEX
8
CUT
10
97.1429
20
27.1429
0
SEQEND
0
POLYLINE
8
CUT
66
1
70
0
0
VERTEX
8
CUT
10
95
20
25
0
VERTEX
8
CUT
10
95
20
29.2857
0
VERTEX
8
CUT
10
99.2857
20
29.2857
0
VERTEX
8
CUT
10
99.2857
20
26.4286
0
VERTEX
8
CUT
10
96.4286
20
26.4286
0
VERTEX
8
CUT
10
96.4286
20
27.8571
0
VERTEX
8
CUT
10
97.8571
20
27.8571
0
SEQEND
0
POLYLINE
8
CUT
66
1
70
0
0
VERTEX
8
CUT
10
100
20
30
0
VERTEX
8
CUT
10
104.2857
20
30
0
VERTEX
8
CUT
10
104.2857
20
25.7143
0
VERTEX
8
CUT
10
101.4286
20
25.7143
0
VERTEX
8
CUT
10
101.4286
20
28.5714
0
VERTEX
8
CUT
10
102.8571
20
28.5714
0
VERTEX
8
CUT
10
102.8571
20
27.1429
0
SEQEND
0
POLYLINE
8
CUT
66
1
70
0
0
VERTEX
8
CUT
10
105
20
25
0
VERTEX
8
CUT
10
100.7143
20
25
0
VERTEX
8
CUT
10
100.7143
20
29.2857
0
VERTEX
8
CUT
10
103.5714
20
29.2857
0
VERTEX
8
CUT
10
103.5714
20
26.4286
0
VERTEX
8
CUT
10
102.1429
20
26.4286
0
VERTEX
8
CUT
10
102.1429
20
27.8571
0
SEQEND
0
POLYLINE
8
CUT
66
1
70
0
0
VERTEX
8
CUT
10
110
20
30
0
VERTEX
8
CUT
10
110
20
25.7143
0
VERTEX
8
CUT
10
105.7143
20
25.7143
0
VERTEX
8
CUT
10
105.7143
20
28.5714
0
VERTEX
8
CUT
10
108.5714
20
28.5714
0
VERTEX
8
CUT
10
108.5714
20
27.1429
0
VERTEX
8
CUT
10
107.1429
20
27.1429
0
SEQEND
0
POLYLINE
8
CUT
66
1
70
0
0
VERTEX
8
CUT
10
105
20
25
0
VERTEX
8
CUT
10
105
20
29.2857
0
VERTEX
8
CUT
10
109.2857
20
29.2857
0
VERTEX
8
CUT
10
109.2857
20
26.4286
0
VERTEX
8
CUT
10
106.4286
20
26.4286
0
VERTEX
8
CUT
10
106.4286
20
27.8571
0
VERTEX
8
CUT
10
107.8571
20
27.8571
0
SEQEND
0
POLYLINE
8
CUT
66
1
70
0
0
VERTEX
8
CUT
10
110
20
30
0
VERTEX
8
CUT
10
114.2857
20
30
0
VERTEX
8
CUT
10
114.2857
20
25.7143
0
VERTEX
8
CUT
10
111.4286
20
25.7143
0
VERTEX
8
CUT
10
111.4286
20
28.5714
0
VERTEX
8
CUT
10
112.8571
20
28.5714
0
VERTEX
8
CUT
10
112.8571
20
27.1429
0
SEQEND
0
POLYLINE
8
CUT
66
1
70
0
0
VERTEX
8
CUT
10
115
20
25
0
VERTEX
8
CUT
10
110.7143
20
25
0
VERTEX
8
CUT
10
110.7143
20
29.2857
0
VERTEX
8
CUT
10
113.5714
20
29.2857
0
VERTEX
8
CUT
10
113.5714
20
26.4286
0
VERTEX
8
CUT
10
112.1429
20
26.4286
0
VERTEX
8
CUT
10
112.1429
20
27.8571
0
SEQEND
0
POLYLINE
8
CUT
66
1
70
0
0
VERTEX
8
CUT
10
120
20
30
0
VERTEX
8
CUT
10
120
20
25.7143
0
VERTEX
8
CUT
10
115.7143
20
25.7143
0
VERTEX
8
CUT
10
115.7143
20
28.5714
0
VERTEX
8
CUT
10
118.5714
20
28.5714
0
VERTEX
8
CUT
10
118.5714
20
27.1429
0
VERTEX
8
CUT
10
117.1429
20
27.1429
0
SEQEND
0
POLYLINE
8
CUT
66
1
70
0
0
VERTEX
8
CUT
10
115
20
25
0
VERTEX
8
CUT
10
115
20
29.2857
0
VERTEX
8
CUT
10
119.2857
20
29.2857
0
VERTEX
8
CUT
10
119.2857
20
26.4286
0
VERTEX
8
CUT
10
116.4286
20
26.4286
0
VERTEX
8
CUT
10
116.4286
20
27.8571
0
VERTEX
8
CUT
10
117.8571
20
27.8571
0
SEQEND
0
POLYLINE
8
CUT
66
1
70
0
0
VERTEX
8
CUT
10
5
20
25
0
VERTEX
8
CUT
10
5
20
20.7143
0
VERTEX
8
CUT
10
0.7143
20
20.7143
0
VERTEX
8
CUT
10
0.7143
20
23.5714
0
VERTEX
8
CUT
10
3.5714
20
23.5714
0
VERTEX
8
CUT
10
3.5714
20
22.1429
0
VERTEX
8
CUT
10
2.1429
20
22.1429
0
SEQEND
0
POLYLINE
8
CUT
66
1
70
0
0
VERTEX
8
CUT
10
0
20
20
0
VERTEX
8
CUT
10
0
20
24.2857
0
VERTEX
8
CUT
10
4.2857
20
24.2857
0
VERTEX
8
CUT
10
4.2857
20
21.4286
0
VERTEX
8
CUT
10
1.4286
20
21.4286
0
VERTEX
8
CUT
10
1.4286
20
22.8571
0
VERTEX
8
CUT
10
2.8571
20
22.8571
0
SEQEND
0
POLYLINE
8
CUT
66
1
70
0
0
VERTEX
8
CUT
10
5
20
25
0
VERTEX
8
CUT
10
9.2857
20
25
0
VERTEX
8
CUT
10
9.2857
20
20.7143
0
VERTEX
8
CUT
10
6.4286
20
20.7143
0
VERTEX
8
CUT
10
6.4286
20
23.5714
0
VERTEX
8
CUT
10
7.8571
20
23.5714
0
VERTEX
8
CUT
10
7.8571
20
22.1429
0
SEQEND
0
POLYLINE
8
CUT
66
1
70
0
0
VERTEX
8
CUT
10
10
20
20
0
VERTEX
8
CUT
10
5.7143
20
20
0
VERTEX
8
CUT
10
5.7143
20
24.2857
0
VERTEX
8
CUT
10
8.5714
20
24.2857
0
VERTEX
8
CUT
10
8.5714
20
21.4286
0
VERTEX
8
CUT
10
7.1429
20
21.4286
0
VERTEX
8
CUT
10
7.1429
20
22.8571
0
SEQEND
0
POLYLINE
8
CUT
66
1
70
0
0
VERTEX
8
CUT
10
15
20
25
0
VERTEX
8
CUT
10
15
20
20.7143
0
VERTEX
8
CUT
10
10.7143
20
20.7143
0
VERTEX
8
CUT
10
10.7143
20
23.5714
0
VERTEX
8
CUT
10
13.5714
20
23.5714
0
VERTEX
8
CUT
10
13.5714
20
22.1429
0
VERTEX
8
CUT
10
12.1429
20
22.1429
0
SEQEND
0
POLYLINE
8
CUT
66
1
70
0
0
VERTEX
8
CUT
10
10
20
20
0
VERTEX
8
CUT
10
10
20
24.2857
0
VERTEX
8
CUT
10
14.2857
20
24.2857
0
VERTEX
8
CUT
10
14.2857
20
21.4286
0
VERTEX
8
CUT
10
11.4286
20
21.4286
0
VERTEX
8
CUT
10
11.4286
20
22.8571
0
VERTEX
8
CUT
10
12.8571
20
22.8571
0
SEQEND
0
POLYLINE
8
CUT
66
1
70
0
0
VERTEX
8
CUT
10
15
20
25
0
VERTEX
8
CUT
10
19.2857
20
25
0
VERTEX
8
CUT
10
19.2857
20
20.7143
0
VERTEX
8
CUT
10
16.4286
20
20.7143
0
VERTEX
8
CUT
10
16.4286
20
23.5714
0
VERTEX
8
CUT
10
17.8571
20
23.5714
0
VERTEX
8
CUT
10
17.8571
20
22.1429
0
SEQEND
0
POLYLINE
8
CUT
66
1
70
0
0
VERTEX
8
CUT
10
20
20
20
0
VERTEX
8
CUT
10
15.7143
20
20
0
VERTEX
8
CUT
10
15.7143
20
24.2857
0
VERTEX
8
CUT
10
18.5714
20
24.2857
0
VERTEX
8
CUT
10
18.5714
20
21.4286
0
VERTEX
8
CUT
10
17.1429
20
21.4286
0
VERTEX
8
CUT
10
17.1429
20
22.8571
0
SEQEND
0
POLYLINE
8
CUT
66
1
70
0
0
VERTEX
8
CUT
10
25
20
25
0
VERTEX
8
CUT
10
25
20
20.7143
0
VERTEX
8
CUT
10
20.7143
20
20.7143
0
VERTEX
8
CUT
10
20.7143
20
23.5714
0
VERTEX
8
CUT
10
23.5714
20
23.5714
0
VERTEX
8
CUT
10
23.5714
20
22.1429
0
VERTEX
8
CUT
10
22.1429
20
22.1429
0
SEQEND
0
POLYLINE
8
CUT
66
1
70
0
0
VERTEX
8
CUT
10
20
20
20
0
VERTEX
8
CUT
10
20
20
24.2857
0
VERTEX
8
CUT
10
24.2857
20
24.2857
0
VERTEX
8
CUT
10
24.2857
20
21.4286
0
VERTEX
8
CUT
10
21.4286
20
21.4286
0
VERTEX
8
CUT
10
21.4286
20
22.8571
0
VERTEX
8
CUT
10
22.8571
20
22.8571
0
SEQEND
0
POLYLINE
8
CUT
66
1
70
0
0
VERTEX
8
CUT
10
25
20
25
0
VERTEX
8
CUT
10
29.2857
20
25
0
VERTEX
8
CUT
10
29.2857
20
20.7143
0
VERTEX
8
CUT
10
26.4286
20
20.7143
0
VERTEX
8
CUT
10
26.4286
20
23.5714
0
VERTEX
8
CUT
10
27.8571
20
23.5714
0
VERTEX
8
CUT
10
27.8571
20
22.1429
0
SEQEND
0
POLYLINE
8
CUT
66
1
70
0
0
VERTEX
8
CUT
10
30
20
20
0
VERTEX
8
CUT
10
25.7143
20
20
0
VERTEX
8
CUT
10
25.7143
20
24.2857
0
VERTEX
8
CUT
10
28.5714
20
24.2857
0
VERTEX
8
CUT
10
28.5714
20
21.4286
0
VERTEX
8
CUT
10
27.1429
20
21.4286
0
VERTEX
8
CUT
10
27.1429
20
22.8571
0
SEQEND
0
POLYLINE
8
CUT
66
1
70
0
0
VERTEX
8
CUT
10
35
20
25
0
VERTEX
8
CUT
10
35
20
20.7143
0
VERTEX
8
CUT
10
30.7143
20
20.7143
0
VERTEX
8
CUT
10
30.7143
20
23.5714
0
VERTEX
8
CUT
10
33.5714
20
23.5714
0
VERTEX
8
CUT
10
33.5714
20
22.1429
0
VERTEX
8
CUT
10
32.1429
20
22.1429
0
SEQEND
0
POLYLINE
8
CUT
66
1
70
0
0
VERTEX
8
CUT
10
30
20
20
0
VERTEX
8
CUT
10
30
20
24.2857
0
VERTEX
8
CUT
10
34.2857
20
24.2857
0
VERTEX
8
CUT
10
34.2857
20
21.4286
0
VERTEX
8
CUT
10
31.4286
20
21.4286
0
VERTEX
8
CUT
10
31.4286
20
22.8571
0
VERTEX
8
CUT
10
32.8571
20
22.8571
0
SEQEND
0
POLYLINE
8
CUT
66
1
70
0
0
VERTEX
8
CUT
10
35
20
25
0
VERTEX
8
CUT
10
39.2857
20
25
0
VERTEX
8
CUT
10
39.2857
20
20.7143
0
VERTEX
8
CUT
10
36.4286
20
20.7143
0
VERTEX
8
CUT
10
36.4286
20
23.5714
0
VERTEX
8
CUT
10
37.8571
20
23.5714
0
VERTEX
8
CUT
10
37.8571
20
22.1429
0
SEQEND
0
POLYLINE
8
CUT
66
1
70
0
0
VERTEX
8
CUT
10
40
20
20
0
VERTEX
8
CUT
10
35.7143
20
20
0
VERTEX
8
CUT
10
35.7143
20
24.2857
0
VERTEX
8
CUT
10
38.5714
20
24.2857
0
VERTEX
8
CUT
10
38.5714
20
21.4286
0
VERTEX
8
CUT
10
37.1429
20
21.4286
0
VERTEX
8
CUT
10
37.1429
20
22.8571
0
SEQEND
0
POLYLINE
8
CUT
66
1
70
0
0
VERTEX
8
CUT
10
45
20
25
0
VERTEX
8
CUT
10
45
20
20.7143
0
VERTEX
8
CUT
10
40.7143
20
20.7143
0
VERTEX
8
CUT
10
40.7143
20
23.5714
0
VERTEX
8
CUT
10
43.5714
20
23.5714
0
VERTEX
8
CUT
10
43.5714
20
22.1429
0
VERTEX
8
CUT
10
42.1429
20
22.1429
0
SEQEND
0
POLYLINE
8
CUT
66
1
70
0
0
VERTEX
8
CUT
10
40
20
20
0
VERTEX
8
CUT
10
40
20
24.2857
0
VERTEX
8
CUT
10
44.2857
20
24.2857
0
VERTEX
8
CUT
10
44.2857
20
21.4286
0
VERTEX
8
CUT
10
41.4286
20
21.4286
0
VERTEX
8
CUT
10
41.4286
20
22.8571
0
VERTEX
8
CUT
10
42.8571
20
22.8571
0
SEQEND
0
POLYLINE
8
CUT
66
1
70
0
0
VERTEX
8
CUT
10
45
20
25
0
VERTEX
8
CUT
10
49.2857
20
25
0
VERTEX
8
CUT
10
49.2857
20
20.7143
0
VERTEX
8
CUT
10
46.4286
20
20.7143
0
VERTEX
8
CUT
10
46.4286
20
23.5714
0
VERTEX
8
CUT
10
47.8571
20
23.5714
0
VERTEX
8
CUT
10
47.8571
20
22.1429
0
SEQEND
0
POLYLINE
8
CUT
66
1
70
0
0
VERTEX
8
CUT
10
50
20
20
0
VERTEX
8
CUT
10
45.7143
20
20
0
VERTEX
8
CUT
10
45.7143
20
24.2857
0
VERTEX
8
CUT
10
48.5714
20
24.2857
0
VERTEX
8
CUT
10
48.5714
20
21.4286
0
VERTEX
8
CUT
10
47.1429
20
21.4286
0
VERTEX
8
CUT
10
47.1429
20
22.8571
0
SEQEND
0
POLYLINE
8
CUT
66
1
70
0
0
VERTEX
8
CUT
10
55
20
25
0
VERTEX
8
CUT
10
55
20
20.7143
0
VERTEX
8
CUT
10
50.7143
20
20.7143
0
VERTEX
8
CUT
10
50.7143
20
23.5714
0
VERTEX
8
CUT
10
53.5714
20
23.5714
0
VERTEX
8
CUT
10
53.5714
20
22.1429
0
VERTEX
8
CUT
10
52.1429
20
22.1429
0
SEQEND
0
POLYLINE
8
CUT
66
1
70
0
0
VERTEX
8
CUT
10
50
20
20
0
VERTEX
8
CUT
10
50
20
24.2857
0
VERTEX
8
CUT
10
54.2857
20
24.2857
0
VERTEX
8
CUT
10
54.2857
20
21.4286
0
VERTEX
8
CUT
10
51.4286
20
21.4286
0
VERTEX
8
CUT
10
51.4286
20
22.8571
0
VERTEX
8
CUT
10
52.8571
20
22.8571
0
SEQEND
0
POLYLINE
8
CUT
66
1
70
0
0
VERTEX
8
CUT
10
55
20
25
0
VERTEX
8
CUT
10
59.2857
20
25
0
VERTEX
8
CUT
10
59.2857
20
20.7143
0
VERTEX
8
CUT
10
56.4286
20
20.7143
0
VERTEX
8
CUT
10
56.4286
20
23.5714
0
VERTEX
8
CUT
10
57.8571
20
23.5714
0
VERTEX
8
CUT
10
57.8571
20
22.1429
0
SEQEND
0
POLYLINE
8
CUT
66
1
70
0
0
VERTEX
8
CUT
10
60
20
20
0
VERTEX
8
CUT
10
55.7143
20
20
0
VERTEX
8
CUT
10
55.7143
20
24.2857
0
VERTEX
8
CUT
10
58.5714
20
24.2857
0
VERTEX
8
CUT
10
58.5714
20
21.4286
0
VERTEX
8
CUT
10
57.1429
20
21.4286
0
VERTEX
8
CUT
10
57.1429
20
22.8571
0
SEQEND
0
POLYLINE
8
CUT
66
1
70
0
0
VERTEX
8
CUT
10
65
20
25
0
VERTEX
8
CUT
10
65
20
20.7143
0
VERTEX
8
CUT
10
60.7143
20
20.7143
0
VERTEX
8
CUT
10
60.7143
20
23.5714
0
VERTEX
8
CUT
10
63.5714
20
23.5714
0
VERTEX
8
CUT
10
63.5714
20
22.1429
0
VERTEX
8
CUT
10
62.1429
20
22.1429
0
SEQEND
0
POLYLINE
8
CUT
66
1
70
0
0
VERTEX
8
CUT
10
60
20
20
0
VERTEX
8
CUT
10
60
20
24.2857
0
VERTEX
8
CUT
10
64.2857
20
24.2857
0
VERTEX
8
CUT
10
64.2857
20
21.4286
0
VERTEX
8
CUT
10
61.4286
20
21.4286
0
VERTEX
8
CUT
10
61.4286
20
22.8571
0
VERTEX
8
CUT
10
62.8571
20
22.8571
0
SEQEND
0
POLYLINE
8
CUT
66
1
70
0
0
VERTEX
8
CUT
10
65
20
25
0
VERTEX
8
CUT
10
69.2857
20
25
0
VERTEX
8
CUT
10
69.2857
20
20.7143
0
VERTEX
8
CUT
10
66.4286
20
20.7143
0
VERTEX
8
CUT
10
66.4286
20
23.5714
0
VERTEX
8
CUT
10
67.8571
20
23.5714
0
VERTEX
8
CUT
10
67.8571
20
22.1429
0
SEQEND
0
POLYLINE
8
CUT
66
1
70
0
0
VERTEX
8
CUT
10
70
20
20
0
VERTEX
8
CUT
10
65.7143
20
20
0
VERTEX
8
CUT
10
65.7143
20
24.2857
0
VERTEX
8
CUT
10
68.5714
20
24.2857
0
VERTEX
8
CUT
10
68.5714
20
21.4286
0
VERTEX
8
CUT
10
67.1429
20
21.4286
0
VERTEX
8
CUT
10
67.1429
20
22.8571
0
SEQEND
0
POLYLINE
8
CUT
66
1
70
0
0
VERTEX
8
CUT
10
75
20
25
0
VERTEX
8
CUT
10
75
20
20.7143
0
VERTEX
8
CUT
10
70.7143
20
20.7143
0
VERTEX
8
CUT
10
70.7143
20
23.5714
0
VERTEX
8
CUT
10
73.5714
20
23.5714
0
VERTEX
8
CUT
10
73.5714
20
22.1429
0
VERTEX
8
CUT
10
72.1429
20
22.1429
0
SEQEND
0
POLYLINE
8
CUT
66
1
70
0
0
VERTEX
8
CUT
10
70
20
20
0
VERTEX
8
CUT
10
70
20
24.2857
0
VERTEX
8
CUT
10
74.2857
20
24.2857
0
VERTEX
8
CUT
10
74.2857
20
21.4286
0
VERTEX
8
CUT
10
71.4286
20
21.4286
0
VERTEX
8
CUT
10
71.4286
20
22.8571
0
VERTEX
8
CUT
10
72.8571
20
22.8571
0
SEQEND
0
POLYLINE
8
CUT
66
1
70
0
0
VERTEX
8
CUT
10
75
20
25
0
VERTEX
8
CUT
10
79.2857
20
25
0
VERTEX
8
CUT
10
79.2857
20
20.7143
0
VERTEX
8
CUT
10
76.4286
20
20.7143
0
VERTEX
8
CUT
10
76.4286
20
23.5714
0
VERTEX
8
CUT
10
77.8571
20
23.5714
0
VERTEX
8
CUT
10
77.8571
20
22.1429
0
SEQEND
0
POLYLINE
8
CUT
66
1
70
0
0
VERTEX
8
CUT
10
80
20
20
0
VERTEX
8
CUT
10
75.7143
20
20
0
VERTEX
8
CUT
10
75.7143
20
24.2857
0
VERTEX
8
CUT
10
78.5714
20
24.2857
0
VERTEX
8
CUT
10
78.5714
20
21.4286
0
VERTEX
8
CUT
10
77.1429
20
21.4286
0
VERTEX
8
CUT
10
77.1429
20
22.8571
0
SEQEND
0
POLYLINE
8
CUT
66
1
70
0
0
VERTEX
8
CUT
10
85
20
25
0
VERTEX
8
CUT
10
85
20
20.7143
0
VERTEX
8
CUT
10
80.7143
20
20.7143
0
VERTEX
8
CUT
10
80.7143
20
23.5714
0
VERTEX
8
CUT
10
83.5714
20
23.5714
0
VERTEX
8
CUT
10
83.5714
20
22.1429
0
VERTEX
8
CUT
10
82.1429
20
22.1429
0
SEQEND
0
POLYLINE
8
CUT
66
1
70
0
0
VERTEX
8
CUT
10
80
20
20
0
VERTEX
8
CUT
10
80
20
24.2857
0
VERTEX
8
CUT
10
84.2857
20
24.2857
0
VERTEX
8
CUT
10
84.2857
20
21.4286
0
VERTEX
8
CUT
10
81.4286
20
21.4286
0
VERTEX
8
CUT
10
81.4286
20
22.8571
0
VERTEX
8
CUT
10
82.8571
20
22.8571
0
SEQEND
0
POLYLINE
8
CUT
66
1
70
0
0
VERTEX
8
CUT
10
85
20
25
0
VERTEX
8
CUT
10
89.2857
20
25
0
VERTEX
8
CUT
10
89.2857
20
20.7143
0
VERTEX
8
CUT
10
86.4286
20
20.7143
0
VERTEX
8
CUT
10
86.4286
20
23.5714
0
VERTEX
8
CUT
10
87.8571
20
23.5714
0
VERTEX
8
CUT
10
87.8571
20
22.1429
0
SEQEND
0
POLYLINE
8
CUT
66
1
70
0
0
VERTEX
8
CUT
10
90
20
20
0
VERTEX
8
CUT
10
85.7143
20
20
0
VERTEX
8
CUT
10
85.7143
20
24.2857
0
VERTEX
8
CUT
10
88.5714
20
24.2857
0
VERTEX
8
CUT
10
88.5714
20
21.4286
0
VERTEX
8
CUT
10
87.1429
20
21.4286
0
VERTEX
8
CUT
10
87.1429
20
22.8571
0
SEQEND
0
POLYLINE
8
CUT
66
1
70
0
0
VERTEX
8
CUT
10
95
20
25
0
VERTEX
8
CUT
10
95
20
20.7143
0
VERTEX
8
CUT
10
90.7143
20
20.7143
0
VERTEX
8
CUT
10
90.7143
20
23.5714
0
VERTEX
8
CUT
10
93.5714
20
23.5714
0
VERTEX
8
CUT
10
93.5714
20
22.1429
0
VERTEX
8
CUT
10
92.1429
20
22.1429
0
SEQEND
0
POLYLINE
8
CUT
66
1
70
0
0
VERTEX
8
CUT
10
90
20
20
0
VERTEX
8
CUT
10
90
20
24.2857
0
VERTEX
8
CUT
10
94.2857
20
24.2857
0
VERTEX
8
CUT
10
94.2857
20
21.4286
0
VERTEX
8
CUT
10
91.4286
20
21.4286
0
VERTEX
8
CUT
10
91.4286
20
22.8571
0
VERTEX
8
CUT
10
92.8571
20
22.8571
0
SEQEND
0
POLYLINE
8
CUT
66
1
70
0
0
VERTEX
8
CUT
10
95
20
25
0
VERTEX
8
CUT
10
99.2857
20
25
0
VERTEX
8
CUT
10
99.2857
20
20.7143
0
VERTEX
8
CUT
10
96.4286
20
20.7143
0
VERTEX
8
CUT
10
96.4286
20
23.5714
0
VERTEX
8
CUT
10
97.8571
20
23.5714
0
VERTEX
8
CUT
10
97.8571
20
22.1429
0
SEQEND
0
POLYLINE
8
CUT
66
1
70
0
0
VERTEX
8
CUT
10
100
20
20
0
VERTEX
8
CUT
10
95.7143
20
20
0
VERTEX
8
CUT
10
95.7143
20
24.2857
0
VERTEX
8
CUT
10
98.5714
20
24.2857
0
VERTEX
8
CUT
10
98.5714
20
21.4286
0
VERTEX
8
CUT
10
97.1429
20
21.4286
0
VERTEX
8
CUT
10
97.1429
20
22.8571
0
SEQEND
0
POLYLINE
8
CUT
66
1
70
0
0
VERTEX
8
CUT
10
105
20
25
0
VERTEX
8
CUT
10
105
20
20.7143
0
VERTEX
8
CUT
10
100.7143
20
20.7143
0
VERTEX
8
CUT
10
100.7143
20
23.5714
0
VERTEX
8
CUT
10
103.5714
20
23.5714
0
VERTEX
8
CUT
10
103.5714
20
22.1429
0
VERTEX
8
CUT
10
102.1429
20
22.1429
0
SEQEND
0
POLYLINE
8
CUT
66
1
70
0
0
VERTEX
8
CUT
10
100
20
20
0
VERTEX
8
CUT
10
100
20
24.2857
0
VERTEX
8
CUT
10
104.2857
20
24.2857
0
VERTEX
8
CUT
10
104.2857
20
21.4286
0
VERTEX
8
CUT
10
101.4286
20
21.4286
0
VERTEX
8
CUT
10
101.4286
20
22.8571
0
VERTEX
8
CUT
10
102.8571
20
22.8571
0
SEQEND
0
POLYLINE
8
CUT
66
1
70
0
0
VERTEX
8
CUT
10
105
20
25
0
VERTEX
8
CUT
10
109.2857
20
25
0
VERTEX
8
CUT
10
109.2857
20
20.7143
0
VERTEX
8
CUT
10
106.4286
20
20.7143
0
VERTEX
8
CUT
10
106.4286
20
23.5714
0
VERTEX
8
CUT
10
107.8571
20
23.5714
0
VERTEX
8
CUT
10
107.8571
20
22.1429
0
SEQEND
0
POLYLINE
8
CUT
66
1
70
0
0
VERTEX
8
CUT
10
110
20
20
0
VERTEX
8
CUT
10
105.7143
20
20
0
VERTEX
8
CUT
10
105.7143
20
24.2857
0
VERTEX
8
CUT
10
108.5714
20
24.2857
0
VERTEX
8
CUT
10
108.5714
20
21.4286
0
VERTEX
8
CUT
10
107.1429
20
21.4286
0
VERTEX
8
CUT
10
107.1429
20
22.8571
0
SEQEND
0
POLYLINE
8
CUT
66
1
70
0
0
VERTEX
8
CUT
10
115
20
25
0
VERTEX
8
CUT
10
115
20
20.7143
0
VERTEX
8
CUT
10
110.7143
20
20.7143
0
VERTEX
8
CUT
10
110.7143
20
23.5714
0
VERTEX
8
CUT
10
113.5714
20
23.5714
0
VERTEX
8
CUT
10
113.5714
20
22.1429
0
VERTEX
8
CUT
10
112.1429
20
22.1429
0
SEQEND
0
POLYLINE
8
CUT
66
1
70
0
0
VERTEX
8
CUT
10
110
20
20
0
VERTEX
8
CUT
10
110
20
24.2857
0
VERTEX
8
CUT
10
114.2857
20
24.2857
0
VERTEX
8
CUT
10
114.2857
20
21.4286
0
VERTEX
8
CUT
10
111.4286
20
21.4286
0
VERTEX
8
CUT
10
111.4286
20
22.8571
0
VERTEX
8
CUT
10
112.8571
20
22.8571
0
SEQEND
0
POLYLINE
8
CUT
66
1
70
0
0
VERTEX
8
CUT
10
115
20
25
0
VERTEX
8
CUT
10
119.2857
20
25
0
VERTEX
8
CUT
10
119.2857
20
20.7143
0
VERTEX
8
CUT
10
116.4286
20
20.7143
0
VERTEX
8
CUT
10
116.4286
20
23.5714
0
VERTEX
8
CUT
10
117.8571
20
23.5714
0
VERTEX
8
CUT
10
117.8571
20
22.1429
0
SEQEND
0
POLYLINE
8
CUT
66
1
70
0
0
VERTEX
8
CUT
10
120
20
20
0
VERTEX
8
CUT
10
115.7143
20
20
0
VERTEX
8
CUT
10
115.7143
20
24.2857
0
VERTEX
8
CUT
10
118.5714
20
24.2857
0
VERTEX
8
CUT
10
118.5714
20
21.4286
0
VERTEX
8
CUT
10
117.1429
20
21.4286
0
VERTEX
8
CUT
10
117.1429
20
22.8571
0
SEQEND
0
POLYLINE
8
CUT
66
1
70
0
0
VERTEX
8
CUT
10
0
20
20
0
VERTEX
8
CUT
10
4.2857
20
20
0
VERTEX
8
CUT
10
4.2857
20
15.7143
0
VERTEX
8
CUT
10
1.4286
20
15.7143
0
VERTEX
8
CUT
10
1.4286
20
18.5714
0
VERTEX
8
CUT
10
2.8571
20
18.5714
0
VERTEX
8
CUT
10
2.8571
20
17.1429
0
SEQEND
0
POLYLINE
8
CUT
66
1
70
0
0
VERTEX
8
CUT
10
5
20
15
0
VERTEX
8
CUT
10
0.7143
20
15
0
VERTEX
8
CUT
10
0.7143
20
19.2857
0
VERTEX
8
CUT
10
3.5714
20
19.2857
0
VERTEX
8
CUT
10
3.5714
20
16.4286
0
VERTEX
8
CUT
10
2.1429
20
16.4286
0
VERTEX
8
CUT
10
2.1429
20
17.8571
0
SEQEND
0
POLYLINE
8
CUT
66
1
70
0
0
VERTEX
8
CUT
10
10
20
20
0
VERTEX
8
CUT
10
10
20
15.7143
0
VERTEX
8
CUT
10
5.7143
20
15.7143
0
VERTEX
8
CUT
10
5.7143
20
18.5714
0
VERTEX
8
CUT
10
8.5714
20
18.5714
0
VERTEX
8
CUT
10
8.5714
20
17.1429
0
VERTEX
8
CUT
10
7.1429
20
17.1429
0
SEQEND
0
POLYLINE
8
CUT
66
1
70
0
0
VERTEX
8
CUT
10
5
20
15
0
VERTEX
8
CUT
10
5
20
19.2857
0
VERTEX
8
CUT
10
9.2857
20
19.2857
0
VERTEX
8
CUT
10
9.2857
20
16.4286
0
VERTEX
8
CUT
10
6.4286
20
16.4286
0
VERTEX
8
CUT
10
6.4286
20
17.8571
0
VERTEX
8
CUT
10
7.8571
20
17.8571
0
SEQEND
0
POLYLINE
8
CUT
66
1
70
0
0
VERTEX
8
CUT
10
10
20
20
0
VERTEX
8
CUT
10
14.2857
20
20
0
VERTEX
8
CUT
10
14.2857
20
15.7143
0
VERTEX
8
CUT
10
11.4286
20
15.7143
0
VERTEX
8
CUT
10
11.4286
20
18.5714
0
VERTEX
8
CUT
10
12.8571
20
18.5714
0
VERTEX
8
CUT
10
12.8571
20
17.1429
0
SEQEND
0
POLYLINE
8
CUT
66
1
70
0
0
VERTEX
8
CUT
10
15
20
15
0
VERTEX
8
CUT
10
10.7143
20
15
0
VERTEX
8
CUT
10
10.7143
20
19.2857
0
VERTEX
8
CUT
10
13.5714
20
19.2857
0
VERTEX
8
CUT
10
13.5714
20
16.4286
0
VERTEX
8
CUT
10
12.1429
20
16.4286
0
VERTEX
8
CUT
10
12.1429
20
17.8571
0
SEQEND
0
POLYLINE
8
CUT
66
1
70
0
0
VERTEX
8
CUT
10
20
20
20
0
VERTEX
8
CUT
10
20
20
15.7143
0
VERTEX
8
CUT
10
15.7143
20
15.7143
0
VERTEX
8
CUT
10
15.7143
20
18.5714
0
VERTEX
8
CUT
10
18.5714
20
18.5714
0
VERTEX
8
CUT
10
18.5714
20
17.1429
0
VERTEX
8
CUT
10
17.1429
20
17.1429
0
SEQEND
0
POLYLINE
8
CUT
66
1
70
0
0
VERTEX
8
CUT
10
15
20
15
0
VERTEX
8
CUT
10
15
20
19.2857
0
VERTEX
8
CUT
10
19.2857
20
19.2857
0
VERTEX
8
CUT
10
19.2857
20
16.4286
0
VERTEX
8
CUT
10
16.4286
20
16.4286
0
VERTEX
8
CUT
10
16.4286
20
17.8571
0
VERTEX
8
CUT
10
17.8571
20
17.8571
0
SEQEND
0
POLYLINE
8
CUT
66
1
70
0
0
VERTEX
8
CUT
10
20
20
20
0
VERTEX
8
CUT
10
24.2857
20
20
0
VERTEX
8
CUT
10
24.2857
20
15.7143
0
VERTEX
8
CUT
10
21.4286
20
15.7143
0
VERTEX
8
CUT
10
21.4286
20
18.5714
0
VERTEX
8
CUT
10
22.8571
20
18.5714
0
VERTEX
8
CUT
10
22.8571
20
17.1429
0
SEQEND
0
POLYLINE
8
CUT
66
1
70
0
0
VERTEX
8
CUT
10
25
20
15
0
VERTEX
8
CUT
10
20.7143
20
15
0
VERTEX
8
CUT
10
20.7143
20
19.2857
0
VERTEX
8
CUT
10
23.5714
20
19.2857
0
VERTEX
8
CUT
10
23.5714
20
16.4286
0
VERTEX
8
CUT
10
22.1429
20
16.4286
0
VERTEX
8
CUT
10
22.1429
20
17.8571
0
SEQEND
0
POLYLINE
8
CUT
66
1
70
0
0
VERTEX
8
CUT
10
30
20
20
0
VERTEX
8
CUT
10
30
20
15.7143
0
VERTEX
8
CUT
10
25.7143
20
15.7143
0
VERTEX
8
CUT
10
25.7143
20
18.5714
0
VERTEX
8
CUT
10
28.5714
20
18.5714
0
VERTEX
8
CUT
10
28.5714
20
17.1429
0
VERTEX
8
CUT
10
27.1429
20
17.1429
0
SEQEND
0
POLYLINE
8
CUT
66
1
70
0
0
VERTEX
8
CUT
10
25
20
15
0
VERTEX
8
CUT
10
25
20
19.2857
0
VERTEX
8
CUT
10
29.2857
20
19.2857
0
VERTEX
8
CUT
10
29.2857
20
16.4286
0
VERTEX
8
CUT
10
26.4286
20
16.4286
0
VERTEX
8
CUT
10
26.4286
20
17.8571
0
VERTEX
8
CUT
10
27.8571
20
17.8571
0
SEQEND
0
POLYLINE
8
CUT
66
1
70
0
0
VERTEX
8
CUT
10
30
20
20
0
VERTEX
8
CUT
10
34.2857
20
20
0
VERTEX
8
CUT
10
34.2857
20
15.7143
0
VERTEX
8
CUT
10
31.4286
20
15.7143
0
VERTEX
8
CUT
10
31.4286
20
18.5714
0
VERTEX
8
CUT
10
32.8571
20
18.5714
0
VERTEX
8
CUT
10
32.8571
20
17.1429
0
SEQEND
0
POLYLINE
8
CUT
66
1
70
0
0
VERTEX
8
CUT
10
35
20
15
0
VERTEX
8
CUT
10
30.7143
20
15
0
VERTEX
8
CUT
10
30.7143
20
19.2857
0
VERTEX
8
CUT
10
33.5714
20
19.2857
0
VERTEX
8
CUT
10
33.5714
20
16.4286
0
VERTEX
8
CUT
10
32.1429
20
16.4286
0
VERTEX
8
CUT
10
32.1429
20
17.8571
0
SEQEND
0
POLYLINE
8
CUT
66
1
70
0
0
VERTEX
8
CUT
10
40
20
20
0
VERTEX
8
CUT
10
40
20
15.7143
0
VERTEX
8
CUT
10
35.7143
20
15.7143
0
VERTEX
8
CUT
10
35.7143
20
18.5714
0
VERTEX
8
CUT
10
38.5714
20
18.5714
0
VERTEX
8
CUT
10
38.5714
20
17.1429
0
VERTEX
8
CUT
10
37.1429
20
17.1429
0
SEQEND
0
POLYLINE
8
CUT
66
1
70
0
0
VERTEX
8
CUT
10
35
20
15
0
VERTEX
8
CUT
10
35
20
19.2857
0
VERTEX
8
CUT
10
39.2857
20
19.2857
0
VERTEX
8
CUT
10
39.2857
20
16.4286
0
VERTEX
8
CUT
10
36.4286
20
16.4286
0
VERTEX
8
CUT
10
36.4286
20
17.8571
0
VERTEX
8
CUT
10
37.8571
20
17.8571
0
SEQEND
0
POLYLINE
8
CUT
66
1
70
0
0
VERTEX
8
CUT
10
40
20
20
0
VERTEX
8
CUT
10
44.2857
20
20
0
VERTEX
8
CUT
10
44.2857
20
15.7143
0
VERTEX
8
CUT
10
41.4286
20
15.7143
0
VERTEX
8
CUT
10
41.4286
20
18.5714
0
VERTEX
8
CUT
10
42.8571
20
18.5714
0
VERTEX
8
CUT
10
42.8571
20
17.1429
0
SEQEND
0
POLYLINE
8
CUT
66
1
70
0
0
VERTEX
8
CUT
10
45
20
15
0
VERTEX
8
CUT
10
40.7143
20
15
0
VERTEX
8
CUT
10
40.7143
20
19.2857
0
VERTEX
8
CUT
10
43.5714
20
19.2857
0
VERTEX
8
CUT
10
43.5714
20
16.4286
0
VERTEX
8
CUT
10
42.1429
20
16.4286
0
VERTEX
8
CUT
10
42.1429
20
17.8571
0
SEQEND
0
POLYLINE
8
CUT
66
1
70
0
0
VERTEX
8
CUT
10
50
20
20
0
VERTEX
8
CUT
10
50
20
15.7143
0
VERTEX
8
CUT
10
45.7143
20
15.7143
0
VERTEX
8
CUT
10
45.7143
20
18.5714
0
VERTEX
8
CUT
10
48.5714
20
18.5714
0
VERTEX
8
CUT
10
48.5714
20
17.1429
0
VERTEX
8
CUT
10
47.1429
20
17.1429
0
SEQEND
0
POLYLINE
8
CUT
66
1
70
0
0
VERTEX
8
CUT
10
45
20
15
0
VERTEX
8
CUT
10
45
20
19.2857
0
VERTEX
8
CUT
10
49.2857
20
19.2857
0
VERTEX
8
CUT
10
49.2857
20
16.4286
0
VERTEX
8
CUT
10
46.4286
20
16.4286
0
VERTEX
8
CUT
10
46.4286
20
17.8571
0
VERTEX
8
CUT
10
47.8571
20
17.8571
0
SEQEND
0
POLYLINE
8
CUT
66
1
70
0
0
VERTEX
8
CUT
10
50
20
20
0
VERTEX
8
CUT
10
54.2857
20
20
0
VERTEX
8
CUT
10
54.2857
20
15.7143
0
VERTEX
8
CUT
10
51.4286
20
15.7143
0
VERTEX
8
CUT
10
51.4286
20
18.5714
0
VERTEX
8
CUT
10
52.8571
20
18.5714
0
VERTEX
8
CUT
10
52.8571
20
17.1429
0
SEQEND
0
POLYLINE
8
CUT
66
1
70
0
0
VERTEX
8
CUT
10
55
20
15
0
VERTEX
8
CUT
10
50.7143
20
15
0
VERTEX
8
CUT
10
50.7143
20
19.2857
0
VERTEX
8
CUT
10
53.5714
20
19.2857
0
VERTEX
8
CUT
10
53.5714
20
16.4286
0
VERTEX
8
CUT
10
52.1429
20
16.4286
0
VERTEX
8
CUT
10
52.1429
20
17.8571
0
SEQEND
0
POLYLINE
8
CUT
66
1
70
0
0
VERTEX
8
CUT
10
60
20
20
0
VERTEX
8
CUT
10
60
20
15.7143
0
VERTEX
8
CUT
10
55.7143
20
15.7143
0
VERTEX
8
CUT
10
55.7143
20
18.5714
0
VERTEX
8
CUT
10
58.5714
20
18.5714
0
VERTEX
8
CUT
10
58.5714
20
17.1429
0
VERTEX
8
CUT
10
57.1429
20
17.1429
0
SEQEND
0
POLYLINE
8
CUT
66
1
70
0
0
VERTEX
8
CUT
10
55
20
15
0
VERTEX
8
CUT
10
55
20
19.2857
0
VERTEX
8
CUT
10
59.2857
20
19.2857
0
VERTEX
8
CUT
10
59.2857
20
16.4286
0
VERTEX
8
CUT
10
56.4286
20
16.4286
0
VERTEX
8
CUT
10
56.4286
20
17.8571
0
VERTEX
8
CUT
10
57.8571
20
17.8571
0
SEQEND
0
POLYLINE
8
CUT
66
1
70
0
0
VERTEX
8
CUT
10
60
20
20
0
VERTEX
8
CUT
10
64.2857
20
20
0
VERTEX
8
CUT
10
64.2857
20
15.7143
0
VERTEX
8
CUT
10
61.4286
20
15.7143
0
VERTEX
8
CUT
10
61.4286
20
18.5714
0
VERTEX
8
CUT
10
62.8571
20
18.5714
0
VERTEX
8
CUT
10
62.8571
20
17.1429
0
SEQEND
0
POLYLINE
8
CUT
66
1
70
0
0
VERTEX
8
CUT
10
65
20
15
0
VERTEX
8
CUT
10
60.7143
20
15
0
VERTEX
8
CUT
10
60.7143
20
19.2857
0
VERTEX
8
CUT
10
63.5714
20
19.2857
0
VERTEX
8
CUT
10
63.5714
20
16.4286
0
VERTEX
8
CUT
10
62.1429
20
16.4286
0
VERTEX
8
CUT
10
62.1429
20
17.8571
0
SEQEND
0
POLYLINE
8
CUT
66
1
70
0
0
VERTEX
8
CUT
10
70
20
20
0
VERTEX
8
CUT
10
70
20
15.7143
0
VERTEX
8
CUT
10
65.7143
20
15.7143
0
VERTEX
8
CUT
10
65.7143
20
18.5714
0
VERTEX
8
CUT
10
68.5714
20
18.5714
0
VERTEX
8
CUT
10
68.5714
20
17.1429
0
VERTEX
8
CUT
10
67.1429
20
17.1429
0
SEQEND
0
POLYLINE
8
CUT
66
1
70
0
0
VERTEX
8
CUT
10
65
20
15
0
VERTEX
8
CUT
10
65
20
19.2857
0
VERTEX
8
CUT
10
69.2857
20
19.2857
0
VERTEX
8
CUT
10
69.2857
20
16.4286
0
VERTEX
8
CUT
10
66.4286
20
16.4286
0
VERTEX
8
CUT
10
66.4286
20
17.8571
0
VERTEX
8
CUT
10
67.8571
20
17.8571
0
SEQEND
0
POLYLINE
8
CUT
66
1
70
0
0
VERTEX
8
CUT
10
70
20
20
0
VERTEX
8
CUT
10
74.2857
20
20
0
VERTEX
8
CUT
10
74.2857
20
15.7143
0
VERTEX
8
CUT
10
71.4286
20
15.7143
0
VERTEX
8
CUT
10
71.4286
20
18.5714
0
VERTEX
8
CUT
10
72.8571
20
18.5714
0
VERTEX
8
CUT
10
72.8571
20
17.1429
0
SEQEND
0
POLYLINE
8
CUT
66
1
70
0
0
VERTEX
8
CUT
10
75
20
15
0
VERTEX
8
CUT
10
70.7143
20
15
0
VERTEX
8
CUT
10
70.7143
20
19.2857
0
VERTEX
8
CUT
10
73.5714
20
19.2857
0
VERTEX
8
CUT
10
73.5714
20
16.4286
0
VERTEX
8
CUT
10
72.1429
20
16.4286
0
VERTEX
8
CUT
10
72.1429
20
17.8571
0
SEQEND
0
POLYLINE
8
CUT
66
1
70
0
0
VERTEX
8
CUT
10
80
20
20
0
VERTEX
8
CUT
10
80
20
15.7143
0
VERTEX
8
CUT
10
75.7143
20
15.7143
0
VERTEX
8
CUT
10
75.7143
20
18.5714
0
VERTEX
8
CUT
10
78.5714
20
18.5714
0
VERTEX
8
CUT
10
78.5714
20
17.1429
0
VERTEX
8
CUT
10
77.1429
20
17.1429
0
SEQEND
0
POLYLINE
8
CUT
66
1
70
0
0
VERTEX
8
CUT
10
75
20
15
0
VERTEX
8
CUT
10
75
20
19.2857
0
VERTEX
8
CUT
10
79.2857
20
19.2857
0
VERTEX
8
CUT
10
79.2857
20
16.4286
0
VERTEX
8
CUT
10
76.4286
20
16.4286
0
VERTEX
8
CUT
10
76.4286
20
17.8571
0
VERTEX
8
CUT
10
77.8571
20
17.8571
0
SEQEND
0
POLYLINE
8
CUT
66
1
70
0
0
VERTEX
8
CUT
10
80
20
20
0
VERTEX
8
CUT
10
84.2857
20
20
0
VERTEX
8
CUT
10
84.2857
20
15.7143
0
VERTEX
8
CUT
10
81.4286
20
15.7143
0
VERTEX
8
CUT
10
81.4286
20
18.5714
0
VERTEX
8
CUT
10
82.8571
20
18.5714
0
VERTEX
8
CUT
10
82.8571
20
17.1429
0
SEQEND
0
POLYLINE
8
CUT
66
1
70
0
0
VERTEX
8
CUT
10
85
20
15
0
VERTEX
8
CUT
10
80.7143
20
15
0
VERTEX
8
CUT
10
80.7143
20
19.2857
0
VERTEX
8
CUT
10
83.5714
20
19.2857
0
VERTEX
8
CUT
10
83.5714
20
16.4286
0
VERTEX
8
CUT
10
82.1429
20
16.4286
0
VERTEX
8
CUT
10
82.1429
20
17.8571
0
SEQEND
0
POLYLINE
8
CUT
66
1
70
0
0
VERTEX
8
CUT
10
90
20
20
0
VERTEX
8
CUT
10
90
20
15.7143
0
VERTEX
8
CUT
10
85.7143
20
15.7143
0
VERTEX
8
CUT
10
85.7143
20
18.5714
0
VERTEX
8
CUT
10
88.5714
20
18.5714
0
VERTEX
8
CUT
10
88.5714
20
17.1429
0
VERTEX
8
CUT
10
87.1429
20
17.1429
0
SEQEND
0
POLYLINE
8
CUT
66
1
70
0
0
VERTEX
8
CUT
10
85
20
15
0
VERTEX
8
CUT
10
85
20
19.2857
0
VERTEX
8
CUT
10
89.2857
20
19.2857
0
VERTEX
8
CUT
10
89.2857
20
16.4286
0
VERTEX
8
CUT
10
86.4286
20
16.4286
0
VERTEX
8
CUT
10
86.4286
20
17.8571
0
VERTEX
8
CUT
10
87.8571
20
17.8571
0
SEQEND
0
POLYLINE
8
CUT
66
1
70
0
0
VERTEX
8
CUT
10
90
20
20
0
VERTEX
8
CUT
10
94.2857
20
20
0
VERTEX
8
CUT
10
94.2857
20
15.7143
0
VERTEX
8
CUT
10
91.4286
20
15.7143
0
VERTEX
8
CUT
10
91.4286
20
18.5714
0
VERTEX
8
CUT
10
92.8571
20
18.5714
0
VERTEX
8
CUT
10
92.8571
20
17.1429
0
SEQEND
0
POLYLINE
8
CUT
66
1
70
0
0
VERTEX
8
CUT
10
95
20
15
0
VERTEX
8
CUT
10
90.7143
20
15
0
VERTEX
8
CUT
10
90.7143
20
19.2857
0
VERTEX
8
CUT
10
93.5714
20
19.2857
0
VERTEX
8
CUT
10
93.5714
20
16.4286
0
VERTEX
8
CUT
10
92.1429
20
16.4286
0
VERTEX
8
CUT
10
92.1429
20
17.8571
0
SEQEND
0
POLYLINE
8
CUT
66
1
70
0
0
VERTEX
8
CUT
10
100
20
20
0
VERTEX
8
CUT
10
100
20
15.7143
0
VERTEX
8
CUT
10
95.7143
20
15.7143
0
VERTEX
8
CUT
10
95.7143
20
18.5714
0
VERTEX
8
CUT
10
98.5714
20
18.5714
0
VERTEX
8
CUT
10
98.5714
20
17.1429
0
VERTEX
8
CUT
10
97.1429
20
17.1429
0
SEQEND
0
POLYLINE
8
CUT
66
1
70
0
0
VERTEX
8
CUT
10
95
20
15
0
VERTEX
8
CUT
10
95
20
19.2857
0
VERTEX
8
CUT
10
99.2857
20
19.2857
0
VERTEX
8
CUT
10
99.2857
20
16.4286
0
VERTEX
8
CUT
10
96.4286
20
16.4286
0
VERTEX
8
CUT
10
96.4286
20
17.8571
0
VERTEX
8
CUT
10
97.8571
20
17.8571
0
SEQEND
0
POLYLINE
8
CUT
66
1
70
0
0
VERTEX
8
CUT
10
100
20
20
0
VERTEX
8
CUT
10
104.2857
20
20
0
VERTEX
8
CUT
10
104.2857
20
15.7143
0
VERTEX
8
CUT
10
101.4286
20
15.7143
0
VERTEX
8
CUT
10
101.4286
20
18.5714
0
VERTEX
8
CUT
10
102.8571
20
18.5714
0
VERTEX
8
CUT
10
102.8571
20
17.1429
0
SEQEND
0
POLYLINE
8
CUT
66
1
70
0
0
VERTEX
8
CUT
10
105
20
15
0
VERTEX
8
CUT
10
100.7143
20
15
0
VERTEX
8
CUT
10
100.7143
20
19.2857
0
VERTEX
8
CUT
10
103.5714
20
19.2857
0
VERTEX
8
CUT
10
103.5714
20
16.4286
0
VERTEX
8
CUT
10
102.1429
20
16.4286
0
VERTEX
8
CUT
10
102.1429
20
17.8571
0
SEQEND
0
POLYLINE
8
CUT
66
1
70
0
0
VERTEX
8
CUT
10
110
20
20
0
VERTEX
8
CUT
10
110
20
15.7143
0
VERTEX
8
CUT
10
105.7143
20
15.7143
0
VERTEX
8
CUT
10
105.7143
20
18.5714
0
VERTEX
8
CUT
10
108.5714
20
18.5714
0
VERTEX
8
CUT
10
108.5714
20
17.1429
0
VERTEX
8
CUT
10
107.1429
20
17.1429
0
SEQEND
0
POLYLINE
8
CUT
66
1
70
0
0
VERTEX
8
CUT
10
105
20
15
0
VERTEX
8
CUT
10
105
20
19.2857
0
VERTEX
8
CUT
10
109.2857
20
19.2857
0
VERTEX
8
CUT
10
109.2857
20
16.4286
0
VERTEX
8
CUT
10
106.4286
20
16.4286
0
VERTEX
8
CUT
10
106.4286
20
17.8571
0
VERTEX
8
CUT
10
107.8571
20
17.8571
0
SEQEND
0
POLYLINE
8
CUT
66
1
70
0
0
VERTEX
8
CUT
10
110
20
20
0
VERTEX
8
CUT
10
114.2857
20
20
0
VERTEX
8
CUT
10
114.2857
20
15.7143
0
VERTEX
8
CUT
10
111.4286
20
15.7143
0
VERTEX
8
CUT
10
111.4286
20
18.5714
0
VERTEX
8
CUT
10
112.8571
20
18.5714
0
VERTEX
8
CUT
10
112.8571
20
17.1429
0
SEQEND
0
POLYLINE
8
CUT
66
1
70
0
0
VERTEX
8
CUT
10
115
20
15
0
VERTEX
8
CUT
10
110.7143
20
15
0
VERTEX
8
CUT
10
110.7143
20
19.2857
0
VERTEX
8
CUT
10
113.5714
20
19.2857
0
VERTEX
8
CUT
10
113.5714
20
16.4286
0
VERTEX
8
CUT
10
112.1429
20
16.4286
0
VERTEX
8
CUT
10
112.1429
20
17.8571
0
SEQEND
0
POLYLINE
8
CUT
66
1
70
0
0
VERTEX
8
CUT
10
120
20
20
0
VERTEX
8
CUT
10
120
20
15.7143
0
VERTEX
8
CUT
10
115.7143
20
15.7143
0
VERTEX
8
CUT
10
115.7143
20
18.5714
0
VERTEX
8
CUT
10
118.5714
20
18.5714
0
VERTEX
8
CUT
10
118.5714
20
17.1429
0
VERTEX
8
CUT
10
117.1429
20
17.1429
0
SEQEND
0
POLYLINE
8
CUT
66
1
70
0
0
VERTEX
8
CUT
10
115
20
15
0
VERTEX
8
CUT
10
115
20
19.2857
0
VERTEX
8
CUT
10
119.2857
20
19.2857
0
VERTEX
8
CUT
10
119.2857
20
16.4286
0
VERTEX
8
CUT
10
116.4286
20
16.4286
0
VERTEX
8
CUT
10
116.4286
20
17.8571
0
VERTEX
8
CUT
10
117.8571
20
17.8571
0
SEQEND
0
POLYLINE
8
CUT
66
1
70
0
0
VERTEX
8
CUT
10
5
20
15
0
VERTEX
8
CUT
10
5
20
10.7143
0
VERTEX
8
CUT
10
0.7143
20
10.7143
0
VERTEX
8
CUT
10
0.7143
20
13.5714
0
VERTEX
8
CUT
10
3.5714
20
13.5714
0
VERTEX
8
CUT
10
3.5714
20
12.1429
0
VERTEX
8
CUT
10
2.1429
20
12.1429
0
SEQEND
0
POLYLINE
8
CUT
66
1
70
0
0
VERTEX
8
CUT
10
0
20
10
0
VERTEX
8
CUT
10
0
20
14.2857
0
VERTEX
8
CUT
10
4.2857
20
14.2857
0
VERTEX
8
CUT
10
4.2857
20
11.4286
0
VERTEX
8
CUT
10
1.4286
20
11.4286
0
VERTEX
8
CUT
10
1.4286
20
12.8571
0
VERTEX
8
CUT
10
2.8571
20
12.8571
0
SEQEND
0
POLYLINE
8
CUT
66
1
70
0
0
VERTEX
8
CUT
10
5
20
15
0
VERTEX
8
CUT
10
9.2857
20
15
0
VERTEX
8
CUT
10
9.2857
20
10.7143
0
VERTEX
8
CUT
10
6.4286
20
10.7143
0
VERTEX
8
CUT
10
6.4286
20
13.5714
0
VERTEX
8
CUT
10
7.8571
20
13.5714
0
VERTEX
8
CUT
10
7.8571
20
12.1429
0
SEQEND
0
POLYLINE
8
CUT
66
1
70
0
0
VERTEX
8
CUT
10
10
20
10
0
VERTEX
8
CUT
10
5.7143
20
10
0
VERTEX
8
CUT
10
5.7143
20
14.2857
0
VERTEX
8
CUT
10
8.5714
20
14.2857
0
VERTEX
8
CUT
10
8.5714
20
11.4286
0
VERTEX
8
CUT
10
7.1429
20
11.4286
0
VERTEX
8
CUT
10
7.1429
20
12.8571
0
SEQEND
0
POLYLINE
8
CUT
66
1
70
0
0
VERTEX
8
CUT
10
15
20
15
0
VERTEX
8
CUT
10
15
20
10.7143
0
VERTEX
8
CUT
10
10.7143
20
10.7143
0
VERTEX
8
CUT
10
10.7143
20
13.5714
0
VERTEX
8
CUT
10
13.5714
20
13.5714
0
VERTEX
8
CUT
10
13.5714
20
12.1429
0
VERTEX
8
CUT
10
12.1429
20
12.1429
0
SEQEND
0
POLYLINE
8
CUT
66
1
70
0
0
VERTEX
8
CUT
10
10
20
10
0
VERTEX
8
CUT
10
10
20
14.2857
0
VERTEX
8
CUT
10
14.2857
20
14.2857
0
VERTEX
8
CUT
10
14.2857
20
11.4286
0
VERTEX
8
CUT
10
11.4286
20
11.4286
0
VERTEX
8
CUT
10
11.4286
20
12.8571
0
VERTEX
8
CUT
10
12.8571
20
12.8571
0
SEQEND
0
POLYLINE
8
CUT
66
1
70
0
0
VERTEX
8
CUT
10
15
20
15
0
VERTEX
8
CUT
10
19.2857
20
15
0
VERTEX
8
CUT
10
19.2857
20
10.7143
0
VERTEX
8
CUT
10
16.4286
20
10.7143
0
VERTEX
8
CUT
10
16.4286
20
13.5714
0
VERTEX
8
CUT
10
17.8571
20
13.5714
0
VERTEX
8
CUT
10
17.8571
20
12.1429
0
SEQEND
0
POLYLINE
8
CUT
66
1
70
0
0
VERTEX
8
CUT
10
20
20
10
0
VERTEX
8
CUT
10
15.7143
20
10
0
VERTEX
8
CUT
10
15.7143
20
14.2857
0
VERTEX
8
CUT
10
18.5714
20
14.2857
0
VERTEX
8
CUT
10
18.5714
20
11.4286
0
VERTEX
8
CUT
10
17.1429
20
11.4286
0
VERTEX
8
CUT
10
17.1429
20
12.8571
0
SEQEND
0
POLYLINE
8
CUT
66
1
70
0
0
VERTEX
8
CUT
10
25
20
15
0
VERTEX
8
CUT
10
25
20
10.7143
0
VERTEX
8
CUT
10
20.7143
20
10.7143
0
VERTEX
8
CUT
10
20.7143
20
13.5714
0
VERTEX
8
CUT
10
23.5714
20
13.5714
0
VERTEX
8
CUT
10
23.5714
20
12.1429
0
VERTEX
8
CUT
10
22.1429
20
12.1429
0
SEQEND
0
POLYLINE
8
CUT
66
1
70
0
0
VERTEX
8
CUT
10
20
20
10
0
VERTEX
8
CUT
10
20
20
14.2857
0
VERTEX
8
CUT
10
24.2857
20
14.2857
0
VERTEX
8
CUT
10
24.2857
20
11.4286
0
VERTEX
8
CUT
10
21.4286
20
11.4286
0
VERTEX
8
CUT
10
21.4286
20
12.8571
0
VERTEX
8
CUT
10
22.8571
20
12.8571
0
SEQEND
0
POLYLINE
8
CUT
66
1
70
0
0
VERTEX
8
CUT
10
25
20
15
0
VERTEX
8
CUT
10
29.2857
20
15
0
VERTEX
8
CUT
10
29.2857
20
10.7143
0
VERTEX
8
CUT
10
26.4286
20
10.7143
0
VERTEX
8
CUT
10
26.4286
20
13.5714
0
VERTEX
8
CUT
10
27.8571
20
13.5714
0
VERTEX
8
CUT
10
27.8571
20
12.1429
0
SEQEND
0
POLYLINE
8
CUT
66
1
70
0
0
VERTEX
8
CUT
10
30
20
10
0
VERTEX
8
CUT
10
25.7143
20
10
0
VERTEX
8
CUT
10
25.7143
20
14.2857
0
VERTEX
8
CUT
10
28.5714
20
14.2857
0
VERTEX
8
CUT
10
28.5714
20
11.4286
0
VERTEX
8
CUT
10
27.1429
20
11.4286
0
VERTEX
8
CUT
10
27.1429
20
12.8571
0
SEQEND
0
POLYLINE
8
CUT
66
1
70
0
0
VERTEX
8
CUT
10
35
20
15
0
VERTEX
8
CUT
10
35
20
10.7143
0
VERTEX
8
CUT
10
30.7143
20
10.7143
0
VERTEX
8
CUT
10
30.7143
20
13.5714
0
VERTEX
8
CUT
10
33.5714
20
13.5714
0
VERTEX
8
CUT
10
33.5714
20
12.1429
0
VERTEX
8
CUT
10
32.1429
20
12.1429
0
SEQEND
0
POLYLINE
8
CUT
66
1
70
0
0
VERTEX
8
CUT
10
30
20
10
0
VERTEX
8
CUT
10
30
20
14.2857
0
VERTEX
8
CUT
10
34.2857
20
14.2857
0
VERTEX
8
CUT
10
34.2857
20
11.4286
0
VERTEX
8
CUT
10
31.4286
20
11.4286
0
VERTEX
8
CUT
10
31.4286
20
12.8571
0
VERTEX
8
CUT
10
32.8571
20
12.8571
0
SEQEND
0
POLYLINE
8
CUT
66
1
70
0
0
VERTEX
8
CUT
10
35
20
15
0
VERTEX
8
CUT
10
39.2857
20
15
0
VERTEX
8
CUT
10
39.2857
20
10.7143
0
VERTEX
8
CUT
10
36.4286
20
10.7143
0
VERTEX
8
CUT
10
36.4286
20
13.5714
0
VERTEX
8
CUT
10
37.8571
20
13.5714
0
VERTEX
8
CUT
10
37.8571
20
12.1429
0
SEQEND
0
POLYLINE
8
CUT
66
1
70
0
0
VERTEX
8
CUT
10
40
20
10
0
VERTEX
8
CUT
10
35.7143
20
10
0
VERTEX
8
CUT
10
35.7143
20
14.2857
0
VERTEX
8
CUT
10
38.5714
20
14.2857
0
VERTEX
8
CUT
10
38.5714
20
11.4286
0
VERTEX
8
CUT
10
37.1429
20
11.4286
0
VERTEX
8
CUT
10
37.1429
20
12.8571
0
SEQEND
0
POLYLINE
8
CUT
66
1
70
0
0
VERTEX
8
CUT
10
45
20
15
0
VERTEX
8
CUT
10
45
20
10.7143
0
VERTEX
8
CUT
10
40.7143
20
10.7143
0
VERTEX
8
CUT
10
40.7143
20
13.5714
0
VERTEX
8
CUT
10
43.5714
20
13.5714
0
VERTEX
8
CUT
10
43.5714
20
12.1429
0
VERTEX
8
CUT
10
42.1429
20
12.1429
0
SEQEND
0
POLYLINE
8
CUT
66
1
70
0
0
VERTEX
8
CUT
10
40
20
10
0
VERTEX
8
CUT
10
40
20
14.2857
0
VERTEX
8
CUT
10
44.2857
20
14.2857
0
VERTEX
8
CUT
10
44.2857
20
11.4286
0
VERTEX
8
CUT
10
41.4286
20
11.4286
0
VERTEX
8
CUT
10
41.4286
20
12.8571
0
VERTEX
8
CUT
10
42.8571
20
12.8571
0
SEQEND
0
POLYLINE
8
CUT
66
1
70
0
0
VERTEX
8
CUT
10
45
20
15
0
VERTEX
8
CUT
10
49.2857
20
15
0
VERTEX
8
CUT
10
49.2857
20
10.7143
0
VERTEX
8
CUT
10
46.4286
20
10.7143
0
VERTEX
8
CUT
10
46.4286
20
13.5714
0
VERTEX
8
CUT
10
47.8571
20
13.5714
0
VERTEX
8
CUT
10
47.8571
20
12.1429
0
SEQEND
0
POLYLINE
8
CUT
66
1
70
0
0
VERTEX
8
CUT
10
50
20
10
0
VERTEX
8
CUT
10
45.7143
20
10
0
VERTEX
8
CUT
10
45.7143
20
14.2857
0
VERTEX
8
CUT
10
48.5714
20
14.2857
0
VERTEX
8
CUT
10
48.5714
20
11.4286
0
VERTEX
8
CUT
10
47.1429
20
11.4286
0
VERTEX
8
CUT
10
47.1429
20
12.8571
0
SEQEND
0
POLYLINE
8
CUT
66
1
70
0
0
VERTEX
8
CUT
10
55
20
15
0
VERTEX
8
CUT
10
55
20
10.7143
0
VERTEX
8
CUT
10
50.7143
20
10.7143
0
VERTEX
8
CUT
10
50.7143
20
13.5714
0
VERTEX
8
CUT
10
53.5714
20
13.5714
0
VERTEX
8
CUT
10
53.5714
20
12.1429
0
VERTEX
8
CUT
10
52.1429
20
12.1429
0
SEQEND
0
POLYLINE
8
CUT
66
1
70
0
0
VERTEX
8
CUT
10
50
20
10
0
VERTEX
8
CUT
10
50
20
14.2857
0
VERTEX
8
CUT
10
54.2857
20
14.2857
0
VERTEX
8
CUT
10
54.2857
20
11.4286
0
VERTEX
8
CUT
10
51.4286
20
11.4286
0
VERTEX
8
CUT
10
51.4286
20
12.8571
0
VERTEX
8
CUT
10
52.8571
20
12.8571
0
SEQEND
0
POLYLINE
8
CUT
66
1
70
0
0
VERTEX
8
CUT
10
55
20
15
0
VERTEX
8
CUT
10
59.2857
20
15
0
VERTEX
8
CUT
10
59.2857
20
10.7143
0
VERTEX
8
CUT
10
56.4286
20
10.7143
0
VERTEX
8
CUT
10
56.4286
20
13.5714
0
VERTEX
8
CUT
10
57.8571
20
13.5714
0
VERTEX
8
CUT
10
57.8571
20
12.1429
0
SEQEND
0
POLYLINE
8
CUT
66
1
70
0
0
VERTEX
8
CUT
10
60
20
10
0
VERTEX
8
CUT
10
55.7143
20
10
0
VERTEX
8
CUT
10
55.7143
20
14.2857
0
VERTEX
8
CUT
10
58.5714
20
14.2857
0
VERTEX
8
CUT
10
58.5714
20
11.4286
0
VERTEX
8
CUT
10
57.1429
20
11.4286
0
VERTEX
8
CUT
10
57.1429
20
12.8571
0
SEQEND
0
POLYLINE
8
CUT
66
1
70
0
0
VERTEX
8
CUT
10
65
20
15
0
VERTEX
8
CUT
10
65
20
10.7143
0
VERTEX
8
CUT
10
60.7143
20
10.7143
0
VERTEX
8
CUT
10
60.7143
20
13.5714
0
VERTEX
8
CUT
10
63.5714
20
13.5714
0
VERTEX
8
CUT
10
63.5714
20
12.1429
0
VERTEX
8
CUT
10
62.1429
20
12.1429
0
SEQEND
0
POLYLINE
8
CUT
66
1
70
0
0
VERTEX
8
CUT
10
60
20
10
0
VERTEX
8
CUT
10
60
20
14.2857
0
VERTEX
8
CUT
10
64.2857
20
14.2857
0
VERTEX
8
CUT
10
64.2857
20
11.4286
0
VERTEX
8
CUT
10
61.4286
20
11.4286
0
VERTEX
8
CUT
10
61.4286
20
12.8571
0
VERTEX
8
CUT
10
62.8571
20
12.8571
0
SEQEND
0
POLYLINE
8
CUT
66
1
70
0
0
VERTEX
8
CUT
10
65
20
15
0
VERTEX
8
CUT
10
69.2857
20
15
0
VERTEX
8
CUT
10
69.2857
20
10.7143
0
VERTEX
8
CUT
10
66.4286
20
10.7143
0
VERTEX
8
CUT
10
66.4286
20
13.5714
0
VERTEX
8
CUT
10
67.8571
20
13.5714
0
VERTEX
8
CUT
10
67.8571
20
12.1429
0
SEQEND
0
POLYLINE
8
CUT
66
1
70
0
0
VERTEX
8
CUT
10
70
20
10
0
VERTEX
8
CUT
10
65.7143
20
10
0
VERTEX
8
CUT
10
65.7143
20
14.2857
0
VERTEX
8
CUT
10
68.5714
20
14.2857
0
VERTEX
8
CUT
10
68.5714
20
11.4286
0
VERTEX
8
CUT
10
67.1429
20
11.4286
0
VERTEX
8
CUT
10
67.1429
20
12.8571
0
SEQEND
0
POLYLINE
8
CUT
66
1
70
0
0
VERTEX
8
CUT
10
75
20
15
0
VERTEX
8
CUT
10
75
20
10.7143
0
VERTEX
8
CUT
10
70.7143
20
10.7143
0
VERTEX
8
CUT
10
70.7143
20
13.5714
0
VERTEX
8
CUT
10
73.5714
20
13.5714
0
VERTEX
8
CUT
10
73.5714
20
12.1429
0
VERTEX
8
CUT
10
72.1429
20
12.1429
0
SEQEND
0
POLYLINE
8
CUT
66
1
70
0
0
VERTEX
8
CUT
10
70
20
10
0
VERTEX
8
CUT
10
70
20
14.2857
0
VERTEX
8
CUT
10
74.2857
20
14.2857
0
VERTEX
8
CUT
10
74.2857
20
11.4286
0
VERTEX
8
CUT
10
71.4286
20
11.4286
0
VERTEX
8
CUT
10
71.4286
20
12.8571
0
VERTEX
8
CUT
10
72.8571
20
12.8571
0
SEQEND
0
POLYLINE
8
CUT
66
1
70
0
0
VERTEX
8
CUT
10
75
20
15
0
VERTEX
8
CUT
10
79.2857
20
15
0
VERTEX
8
CUT
10
79.2857
20
10.7143
0
VERTEX
8
CUT
10
76.4286
20
10.7143
0
VERTEX
8
CUT
10
76.4286
20
13.5714
0
VERTEX
8
CUT
10
77.8571
20
13.5714
0
VERTEX
8
CUT
10
77.8571
20
12.1429
0
SEQEND
0
POLYLINE
8
CUT
66
1
70
0
0
VERTEX
8
CUT
10
80
20
10
0
VERTEX
8
CUT
10
75.7143
20
10
0
VERTEX
8
CUT
10
75.7143
20
14.2857
0
VERTEX
8
CUT
10
78.5714
20
14.2857
0
VERTEX
8
CUT
10
78.5714
20
11.4286
0
VERTEX
8
CUT
10
77.1429
20
11.4286
0
VERTEX
8
CUT
10
77.1429
20
12.8571
0
SEQEND
0
POLYLINE
8
CUT
66
1
70
0
0
VERTEX
8
CUT
10
85
20
15
0
VERTEX
8
CUT
10
85
20
10.7143
0
VERTEX
8
CUT
10
80.7143
20
10.7143
0
VERTEX
8
CUT
10
80.7143
20
13.5714
0
VERTEX
8
CUT
10
83.5714
20
13.5714
0
VERTEX
8
CUT
10
83.5714
20
12.1429
0
VERTEX
8
CUT
10
82.1429
20
12.1429
0
SEQEND
0
POLYLINE
8
CUT
66
1
70
0
0
VERTEX
8
CUT
10
80
20
10
0
VERTEX
8
CUT
10
80
20
14.2857
0
VERTEX
8
CUT
10
84.2857
20
14.2857
0
VERTEX
8
CUT
10
84.2857
20
11.4286
0
VERTEX
8
CUT
10
81.4286
20
11.4286
0
VERTEX
8
CUT
10
81.4286
20
12.8571
0
VERTEX
8
CUT
10
82.8571
20
12.8571
0
SEQEND
0
POLYLINE
8
CUT
66
1
70
0
0
VERTEX
8
CUT
10
85
20
15
0
VERTEX
8
CUT
10
89.2857
20
15
0
VERTEX
8
CUT
10
89.2857
20
10.7143
0
VERTEX
8
CUT
10
86.4286
20
10.7143
0
VERTEX
8
CUT
10
86.4286
20
13.5714
0
VERTEX
8
CUT
10
87.8571
20
13.5714
0
VERTEX
8
CUT
10
87.8571
20
12.1429
0
SEQEND
0
POLYLINE
8
CUT
66
1
70
0
0
VERTEX
8
CUT
10
90
20
10
0
VERTEX
8
CUT
10
85.7143
20
10
0
VERTEX
8
CUT
10
85.7143
20
14.2857
0
VERTEX
8
CUT
10
88.5714
20
14.2857
0
VERTEX
8
CUT
10
88.5714
20
11.4286
0
VERTEX
8
CUT
10
87.1429
20
11.4286
0
VERTEX
8
CUT
10
87.1429
20
12.8571
0
SEQEND
0
POLYLINE
8
CUT
66
1
70
0
0
VERTEX
8
CUT
10
95
20
15
0
VERTEX
8
CUT
10
95
20
10.7143
0
VERTEX
8
CUT
10
90.7143
20
10.7143
0
VERTEX
8
CUT
10
90.7143
20
13.5714
0
VERTEX
8
CUT
10
93.5714
20
13.5714
0
VERTEX
8
CUT
10
93.5714
20
12.1429
0
VERTEX
8
CUT
10
92.1429
20
12.1429
0
SEQEND
0
POLYLINE
8
CUT
66
1
70
0
0
VERTEX
8
CUT
10
90
20
10
0
VERTEX
8
CUT
10
90
20
14.2857
0
VERTEX
8
CUT
10
94.2857
20
14.2857
0
VERTEX
8
CUT
10
94.2857
20
11.4286
0
VERTEX
8
CUT
10
91.4286
20
11.4286
0
VERTEX
8
CUT
10
91.4286
20
12.8571
0
VERTEX
8
CUT
10
92.8571
20
12.8571
0
SEQEND
0
POLYLINE
8
CUT
66
1
70
0
0
VERTEX
8
CUT
10
95
20
15
0
VERTEX
8
CUT
10
99.2857
20
15
0
VERTEX
8
CUT
10
99.2857
20
10.7143
0
VERTEX
8
CUT
10
96.4286
20
10.7143
0
VERTEX
8
CUT
10
96.4286
20
13.5714
0
VERTEX
8
CUT
10
97.8571
20
13.5714
0
VERTEX
8
CUT
10
97.8571
20
12.1429
0
SEQEND
0
POLYLINE
8
CUT
66
1
70
0
0
VERTEX
8
CUT
10
100
20
10
0
VERTEX
8
CUT
10
95.7143
20
10
0
VERTEX
8
CUT
10
95.7143
20
14.2857
0
VERTEX
8
CUT
10
98.5714
20
14.2857
0
VERTEX
8
CUT
10
98.5714
20
11.4286
0
VERTEX
8
CUT
10
97.1429
20
11.4286
0
VERTEX
8
CUT
10
97.1429
20
12.8571
0
SEQEND
0
POLYLINE
8
CUT
66
1
70
0
0
VERTEX
8
CUT
10
105
20
15
0
VERTEX
8
CUT
10
105
20
10.7143
0
VERTEX
8
CUT
10
100.7143
20
10.7143
0
VERTEX
8
CUT
10
100.7143
20
13.5714
0
VERTEX
8
CUT
10
103.5714
20
13.5714
0
VERTEX
8
CUT
10
103.5714
20
12.1429
0
VERTEX
8
CUT
10
102.1429
20
12.1429
0
SEQEND
0
POLYLINE
8
CUT
66
1
70
0
0
VERTEX
8
CUT
10
100
20
10
0
VERTEX
8
CUT
10
100
20
14.2857
0
VERTEX
8
CUT
10
104.2857
20
14.2857
0
VERTEX
8
CUT
10
104.2857
20
11.4286
0
VERTEX
8
CUT
10
101.4286
20
11.4286
0
VERTEX
8
CUT
10
101.4286
20
12.8571
0
VERTEX
8
CUT
10
102.8571
20
12.8571
0
SEQEND
0
POLYLINE
8
CUT
66
1
70
0
0
VERTEX
8
CUT
10
105
20
15
0
VERTEX
8
CUT
10
109.2857
20
15
0
VERTEX
8
CUT
10
109.2857
20
10.7143
0
VERTEX
8
CUT
10
106.4286
20
10.7143
0
VERTEX
8
CUT
10
106.4286
20
13.5714
0
VERTEX
8
CUT
10
107.8571
20
13.5714
0
VERTEX
8
CUT
10
107.8571
20
12.1429
0
SEQEND
0
POLYLINE
8
CUT
66
1
70
0
0
VERTEX
8
CUT
10
110
20
10
0
VERTEX
8
CUT
10
105.7143
20
10
0
VERTEX
8
CUT
10
105.7143
20
14.2857
0
VERTEX
8
CUT
10
108.5714
20
14.2857
0
VERTEX
8
CUT
10
108.5714
20
11.4286
0
VERTEX
8
CUT
10
107.1429
20
11.4286
0
VERTEX
8
CUT
10
107.1429
20
12.8571
0
SEQEND
0
POLYLINE
8
CUT
66
1
70
0
0
VERTEX
8
CUT
10
115
20
15
0
VERTEX
8
CUT
10
115
20
10.7143
0
VERTEX
8
CUT
10
110.7143
20
10.7143
0
VERTEX
8
CUT
10
110.7143
20
13.5714
0
VERTEX
8
CUT
10
113.5714
20
13.5714
0
VERTEX
8
CUT
10
113.5714
20
12.1429
0
VERTEX
8
CUT
10
112.1429
20
12.1429
0
SEQEND
0
POLYLINE
8
CUT
66
1
70
0
0
VERTEX
8
CUT
10
110
20
10
0
VERTEX
8
CUT
10
110
20
14.2857
0
VERTEX
8
CUT
10
114.2857
20
14.2857
0
VERTEX
8
CUT
10
114.2857
20
11.4286
0
VERTEX
8
CUT
10
111.4286
20
11.4286
0
VERTEX
8
CUT
10
111.4286
20
12.8571
0
VERTEX
8
CUT
10
112.8571
20
12.8571
0
SEQEND
0
POLYLINE
8
CUT
66
1
70
0
0
VERTEX
8
CUT
10
115
20
15
0
VERTEX
8
CUT
10
119.2857
20
15
0
VERTEX
8
CUT
10
119.2857
20
10.7143
0
VERTEX
8
CUT
10
116.4286
20
10.7143
0
VERTEX
8
CUT
10
116.4286
20
13.5714
0
VERTEX
8
CUT
10
117.8571
20
13.5714
0
VERTEX
8
CUT
10
117.8571
20
12.1429
0
SEQEND
0
POLYLINE
8
CUT
66
1
70
0
0
VERTEX
8
CUT
10
120
20
10
0
VERTEX
8
CUT
10
115.7143
20
10
0
VERTEX
8
CUT
10
115.7143
20
14.2857
0
VERTEX
8
CUT
10
118.5714
20
14.2857
0
VERTEX
8
CUT
10
118.5714
20
11.4286
0
VERTEX
8
CUT
10
117.1429
20
11.4286
0
VERTEX
8
CUT
10
117.1429
20
12.8571
0
SEQEND
0
POLYLINE
8
CUT
66
1
70
0
0
VERTEX
8
CUT
10
0
20
10
0
VERTEX
8
CUT
10
4.2857
20
10
0
VERTEX
8
CUT
10
4.2857
20
5.7143
0
VERTEX
8
CUT
10
1.4286
20
5.7143
0
VERTEX
8
CUT
10
1.4286
20
8.5714
0
VERTEX
8
CUT
10
2.8571
20
8.5714
0
VERTEX
8
CUT
10
2.8571
20
7.1429
0
SEQEND
0
POLYLINE
8
CUT
66
1
70
0
0
VERTEX
8
CUT
10
5
20
5
0
VERTEX
8
CUT
10
0.7143
20
5
0
VERTEX
8
CUT
10
0.7143
20
9.2857
0
VERTEX
8
CUT
10
3.5714
20
9.2857
0
VERTEX
8
CUT
10
3.5714
20
6.4286
0
VERTEX
8
CUT
10
2.1429
20
6.4286
0
VERTEX
8
CUT
10
2.1429
20
7.8571
0
SEQEND
0
POLYLINE
8
CUT
66
1
70
0
0
VERTEX
8
CUT
10
10
20
10
0
VERTEX
8
CUT
10
10
20
5.7143
0
VERTEX
8
CUT
10
5.7143
20
5.7143
0
VERTEX
8
CUT
10
5.7143
20
8.5714
0
VERTEX
8
CUT
10
8.5714
20
8.5714
0
VERTEX
8
CUT
10
8.5714
20
7.1429
0
VERTEX
8
CUT
10
7.1429
20
7.1429
0
SEQEND
0
POLYLINE
8
CUT
66
1
70
0
0
VERTEX
8
CUT
10
5
20
5
0
VERTEX
8
CUT
10
5
20
9.2857
0
VERTEX
8
CUT
10
9.2857
20
9.2857
0
VERTEX
8
CUT
10
9.2857
20
6.4286
0
VERTEX
8
CUT
10
6.4286
20
6.4286
0
VERTEX
8
CUT
10
6.4286
20
7.8571
0
VERTEX
8
CUT
10
7.8571
20
7.8571
0
SEQEND
0
POLYLINE
8
CUT
66
1
70
0
0
VERTEX
8
CUT
10
10
20
10
0
VERTEX
8
CUT
10
14.2857
20
10
0
VERTEX
8
CUT
10
14.2857
20
5.7143
0
VERTEX
8
CUT
10
11.4286
20
5.7143
0
VERTEX
8
CUT
10
11.4286
20
8.5714
0
VERTEX
8
CUT
10
12.8571
20
8.5714
0
VERTEX
8
CUT
10
12.8571
20
7.1429
0
SEQEND
0
POLYLINE
8
CUT
66
1
70
0
0
VERTEX
8
CUT
10
15
20
5
0
VERTEX
8
CUT
10
10.7143
20
5
0
VERTEX
8
CUT
10
10.7143
20
9.2857
0
VERTEX
8
CUT
10
13.5714
20
9.2857
0
VERTEX
8
CUT
10
13.5714
20
6.4286
0
VERTEX
8
CUT
10
12.1429
20
6.4286
0
VERTEX
8
CUT
10
12.1429
20
7.8571
0
SEQEND
0
POLYLINE
8
CUT
66
1
70
0
0
VERTEX
8
CUT
10
20
20
10
0
VERTEX
8
CUT
10
20
20
5.7143
0
VERTEX
8
CUT
10
15.7143
20
5.7143
0
VERTEX
8
CUT
10
15.7143
20
8.5714
0
VERTEX
8
CUT
10
18.5714
20
8.5714
0
VERTEX
8
CUT
10
18.5714
20
7.1429
0
VERTEX
8
CUT
10
17.1429
20
7.1429
0
SEQEND
0
POLYLINE
8
CUT
66
1
70
0
0
VERTEX
8
CUT
10
15
20
5
0
VERTEX
8
CUT
10
15
20
9.2857
0
VERTEX
8
CUT
10
19.2857
20
9.2857
0
VERTEX
8
CUT
10
19.2857
20
6.4286
0
VERTEX
8
CUT
10
16.4286
20
6.4286
0
VERTEX
8
CUT
10
16.4286
20
7.8571
0
VERTEX
8
CUT
10
17.8571
20
7.8571
0
SEQEND
0
POLYLINE
8
CUT
66
1
70
0
0
VERTEX
8
CUT
10
20
20
10
0
VERTEX
8
CUT
10
24.2857
20
10
0
VERTEX
8
CUT
10
24.2857
20
5.7143
0
VERTEX
8
CUT
10
21.4286
20
5.7143
0
VERTEX
8
CUT
10
21.4286
20
8.5714
0
VERTEX
8
CUT
10
22.8571
20
8.5714
0
VERTEX
8
CUT
10
22.8571
20
7.1429
0
SEQEND
0
POLYLINE
8
CUT
66
1
70
0
0
VERTEX
8
CUT
10
25
20
5
0
VERTEX
8
CUT
10
20.7143
20
5
0
VERTEX
8
CUT
10
20.7143
20
9.2857
0
VERTEX
8
CUT
10
23.5714
20
9.2857
0
VERTEX
8
CUT
10
23.5714
20
6.4286
0
VERTEX
8
CUT
10
22.1429
20
6.4286
0
VERTEX
8
CUT
10
22.1429
20
7.8571
0
SEQEND
0
POLYLINE
8
CUT
66
1
70
0
0
VERTEX
8
CUT
10
30
20
10
0
VERTEX
8
CUT
10
30
20
5.7143
0
VERTEX
8
CUT
10
25.7143
20
5.7143
0
VERTEX
8
CUT
10
25.7143
20
8.5714
0
VERTEX
8
CUT
10
28.5714
20
8.5714
0
VERTEX
8
CUT
10
28.5714
20
7.1429
0
VERTEX
8
CUT
10
27.1429
20
7.1429
0
SEQEND
0
POLYLINE
8
CUT
66
1
70
0
0
VERTEX
8
CUT
10
25
20
5
0
VERTEX
8
CUT
10
25
20
9.2857
0
VERTEX
8
CUT
10
29.2857
20
9.2857
0
VERTEX
8
CUT
10
29.2857
20
6.4286
0
VERTEX
8
CUT
10
26.4286
20
6.4286
0
VERTEX
8
CUT
10
26.4286
20
7.8571
0
VERTEX
8
CUT
10
27.8571
20
7.8571
0
SEQEND
0
POLYLINE
8
CUT
66
1
70
0
0
VERTEX
8
CUT
10
30
20
10
0
VERTEX
8
CUT
10
34.2857
20
10
0
VERTEX
8
CUT
10
34.2857
20
5.7143
0
VERTEX
8
CUT
10
31.4286
20
5.7143
0
VERTEX
8
CUT
10
31.4286
20
8.5714
0
VERTEX
8
CUT
10
32.8571
20
8.5714
0
VERTEX
8
CUT
10
32.8571
20
7.1429
0
SEQEND
0
POLYLINE
8
CUT
66
1
70
0
0
VERTEX
8
CUT
10
35
20
5
0
VERTEX
8
CUT
10
30.7143
20
5
0
VERTEX
8
CUT
10
30.7143
20
9.2857
0
VERTEX
8
CUT
10
33.5714
20
9.2857
0
VERTEX
8
CUT
10
33.5714
20
6.4286
0
VERTEX
8
CUT
10
32.1429
20
6.4286
0
VERTEX
8
CUT
10
32.1429
20
7.8571
0
SEQEND
0
POLYLINE
8
CUT
66
1
70
0
0
VERTEX
8
CUT
10
40
20
10
0
VERTEX
8
CUT
10
40
20
5.7143
0
VERTEX
8
CUT
10
35.7143
20
5.7143
0
VERTEX
8
CUT
10
35.7143
20
8.5714
0
VERTEX
8
CUT
10
38.5714
20
8.5714
0
VERTEX
8
CUT
10
38.5714
20
7.1429
0
VERTEX
8
CUT
10
37.1429
20
7.1429
0
SEQEND
0
POLYLINE
8
CUT
66
1
70
0
0
VERTEX
8
CUT
10
35
20
5
0
VERTEX
8
CUT
10
35
20
9.2857
0
VERTEX
8
CUT
10
39.2857
20
9.2857
0
VERTEX
8
CUT
10
39.2857
20
6.4286
0
VERTEX
8
CUT
10
36.4286
20
6.4286
0
VERTEX
8
CUT
10
36.4286
20
7.8571
0
VERTEX
8
CUT
10
37.8571
20
7.8571
0
SEQEND
0
POLYLINE
8
CUT
66
1
70
0
0
VERTEX
8
CUT
10
40
20
10
0
VERTEX
8
CUT
10
44.2857
20
10
0
VERTEX
8
CUT
10
44.2857
20
5.7143
0
VERTEX
8
CUT
10
41.4286
20
5.7143
0
VERTEX
8
CUT
10
41.4286
20
8.5714
0
VERTEX
8
CUT
10
42.8571
20
8.5714
0
VERTEX
8
CUT
10
42.8571
20
7.1429
0
SEQEND
0
POLYLINE
8
CUT
66
1
70
0
0
VERTEX
8
CUT
10
45
20
5
0
VERTEX
8
CUT
10
40.7143
20
5
0
VERTEX
8
CUT
10
40.7143
20
9.2857
0
VERTEX
8
CUT
10
43.5714
20
9.2857
0
VERTEX
8
CUT
10
43.5714
20
6.4286
0
VERTEX
8
CUT
10
42.1429
20
6.4286
0
VERTEX
8
CUT
10
42.1429
20
7.8571
0
SEQEND
0
POLYLINE
8
CUT
66
1
70
0
0
VERTEX
8
CUT
10
50
20
10
0
VERTEX
8
CUT
10
50
20
5.7143
0
VERTEX
8
CUT
10
45.7143
20
5.7143
0
VERTEX
8
CUT
10
45.7143
20
8.5714
0
VERTEX
8
CUT
10
48.5714
20
8.5714
0
VERTEX
8
CUT
10
48.5714
20
7.1429
0
VERTEX
8
CUT
10
47.1429
20
7.1429
0
SEQEND
0
POLYLINE
8
CUT
66
1
70
0
0
VERTEX
8
CUT
10
45
20
5
0
VERTEX
8
CUT
10
45
20
9.2857
0
VERTEX
8
CUT
10
49.2857
20
9.2857
0
VERTEX
8
CUT
10
49.2857
20
6.4286
0
VERTEX
8
CUT
10
46.4286
20
6.4286
0
VERTEX
8
CUT
10
46.4286
20
7.8571
0
VERTEX
8
CUT
10
47.8571
20
7.8571
0
SEQEND
0
POLYLINE
8
CUT
66
1
70
0
0
VERTEX
8
CUT
10
50
20
10
0
VERTEX
8
CUT
10
54.2857
20
10
0
VERTEX
8
CUT
10
54.2857
20
5.7143
0
VERTEX
8
CUT
10
51.4286
20
5.7143
0
VERTEX
8
CUT
10
51.4286
20
8.5714
0
VERTEX
8
CUT
10
52.8571
20
8.5714
0
VERTEX
8
CUT
10
52.8571
20
7.1429
0
SEQEND
0
POLYLINE
8
CUT
66
1
70
0
0
VERTEX
8
CUT
10
55
20
5
0
VERTEX
8
CUT
10
50.7143
20
5
0
VERTEX
8
CUT
10
50.7143
20
9.2857
0
VERTEX
8
CUT
10
53.5714
20
9.2857
0
VERTEX
8
CUT
10
53.5714
20
6.4286
0
VERTEX
8
CUT
10
52.1429
20
6.4286
0
VERTEX
8
CUT
10
52.1429
20
7.8571
0
SEQEND
0
POLYLINE
8
CUT
66
1
70
0
0
VERTEX
8
CUT
10
60
20
10
0
VERTEX
8
CUT
10
60
20
5.7143
0
VERTEX
8
CUT
10
55.7143
20
5.7143
0
VERTEX
8
CUT
10
55.7143
20
8.5714
0
VERTEX
8
CUT
10
58.5714
20
8.5714
0
VERTEX
8
CUT
10
58.5714
20
7.1429
0
VERTEX
8
CUT
10
57.1429
20
7.1429
0
SEQEND
0
POLYLINE
8
CUT
66
1
70
0
0
VERTEX
8
CUT
10
55
20
5
0
VERTEX
8
CUT
10
55
20
9.2857
0
VERTEX
8
CUT
10
59.2857
20
9.2857
0
VERTEX
8
CUT
10
59.2857
20
6.4286
0
VERTEX
8
CUT
10
56.4286
20
6.4286
0
VERTEX
8
CUT
10
56.4286
20
7.8571
0
VERTEX
8
CUT
10
57.8571
20
7.8571
0
SEQEND
0
POLYLINE
8
CUT
66
1
70
0
0
VERTEX
8
CUT
10
60
20
10
0
VERTEX
8
CUT
10
64.2857
20
10
0
VERTEX
8
CUT
10
64.2857
20
5.7143
0
VERTEX
8
CUT
10
61.4286
20
5.7143
0
VERTEX
8
CUT
10
61.4286
20
8.5714
0
VERTEX
8
CUT
10
62.8571
20
8.5714
0
VERTEX
8
CUT
10
62.8571
20
7.1429
0
SEQEND
0
POLYLINE
8
CUT
66
1
70
0
0
VERTEX
8
CUT
10
65
20
5
0
VERTEX
8
CUT
10
60.7143
20
5
0
VERTEX
8
CUT
10
60.7143
20
9.2857
0
VERTEX
8
CUT
10
63.5714
20
9.2857
0
VERTEX
8
CUT
10
63.5714
20
6.4286
0
VERTEX
8
CUT
10
62.1429
20
6.4286
0
VERTEX
8
CUT
10
62.1429
20
7.8571
0
SEQEND
0
POLYLINE
8
CUT
66
1
70
0
0
VERTEX
8
CUT
10
70
20
10
0
VERTEX
8
CUT
10
70
20
5.7143
0
VERTEX
8
CUT
10
65.7143
20
5.7143
0
VERTEX
8
CUT
10
65.7143
20
8.5714
0
VERTEX
8
CUT
10
68.5714
20
8.5714
0
VERTEX
8
CUT
10
68.5714
20
7.1429
0
VERTEX
8
CUT
10
67.1429
20
7.1429
0
SEQEND
0
POLYLINE
8
CUT
66
1
70
0
0
VERTEX
8
CUT
10
65
20
5
0
VERTEX
8
CUT
10
65
20
9.2857
0
VERTEX
8
CUT
10
69.2857
20
9.2857
0
VERTEX
8
CUT
10
69.2857
20
6.4286
0
VERTEX
8
CUT
10
66.4286
20
6.4286
0
VERTEX
8
CUT
10
66.4286
20
7.8571
0
VERTEX
8
CUT
10
67.8571
20
7.8571
0
SEQEND
0
POLYLINE
8
CUT
66
1
70
0
0
VERTEX
8
CUT
10
70
20
10
0
VERTEX
8
CUT
10
74.2857
20
10
0
VERTEX
8
CUT
10
74.2857
20
5.7143
0
VERTEX
8
CUT
10
71.4286
20
5.7143
0
VERTEX
8
CUT
10
71.4286
20
8.5714
0
VERTEX
8
CUT
10
72.8571
20
8.5714
0
VERTEX
8
CUT
10
72.8571
20
7.1429
0
SEQEND
0
POLYLINE
8
CUT
66
1
70
0
0
VERTEX
8
CUT
10
75
20
5
0
VERTEX
8
CUT
10
70.7143
20
5
0
VERTEX
8
CUT
10
70.7143
20
9.2857
0
VERTEX
8
CUT
10
73.5714
20
9.2857
0
VERTEX
8
CUT
10
73.5714
20
6.4286
0
VERTEX
8
CUT
10
72.1429
20
6.4286
0
VERTEX
8
CUT
10
72.1429
20
7.8571
0
SEQEND
0
POLYLINE
8
CUT
66
1
70
0
0
VERTEX
8
CUT
10
80
20
10
0
VERTEX
8
CUT
10
80
20
5.7143
0
VERTEX
8
CUT
10
75.7143
20
5.7143
0
VERTEX
8
CUT
10
75.7143
20
8.5714
0
VERTEX
8
CUT
10
78.5714
20
8.5714
0
VERTEX
8
CUT
10
78.5714
20
7.1429
0
VERTEX
8
CUT
10
77.1429
20
7.1429
0
SEQEND
0
POLYLINE
8
CUT
66
1
70
0
0
VERTEX
8
CUT
10
75
20
5
0
VERTEX
8
CUT
10
75
20
9.2857
0
VERTEX
8
CUT
10
79.2857
20
9.2857
0
VERTEX
8
CUT
10
79.2857
20
6.4286
0
VERTEX
8
CUT
10
76.4286
20
6.4286
0
VERTEX
8
CUT
10
76.4286
20
7.8571
0
VERTEX
8
CUT
10
77.8571
20
7.8571
0
SEQEND
0
POLYLINE
8
CUT
66
1
70
0
0
VERTEX
8
CUT
10
80
20
10
0
VERTEX
8
CUT
10
84.2857
20
10
0
VERTEX
8
CUT
10
84.2857
20
5.7143
0
VERTEX
8
CUT
10
81.4286
20
5.7143
0
VERTEX
8
CUT
10
81.4286
20
8.5714
0
VERTEX
8
CUT
10
82.8571
20
8.5714
0
VERTEX
8
CUT
10
82.8571
20
7.1429
0
SEQEND
0
POLYLINE
8
CUT
66
1
70
0
0
VERTEX
8
CUT
10
85
20
5
0
VERTEX
8
CUT
10
80.7143
20
5
0
VERTEX
8
CUT
10
80.7143
20
9.2857
0
VERTEX
8
CUT
10
83.5714
20
9.2857
0
VERTEX
8
CUT
10
83.5714
20
6.4286
0
VERTEX
8
CUT
10
82.1429
20
6.4286
0
VERTEX
8
CUT
10
82.1429
20
7.8571
0
SEQEND
0
POLYLINE
8
CUT
66
1
70
0
0
VERTEX
8
CUT
10
90
20
10
0
VERTEX
8
CUT
10
90
20
5.7143
0
VERTEX
8
CUT
10
85.7143
20
5.7143
0
VERTEX
8
CUT
10
85.7143
20
8.5714
0
VERTEX
8
CUT
10
88.5714
20
8.5714
0
VERTEX
8
CUT
10
88.5714
20
7.1429
0
VERTEX
8
CUT
10
87.1429
20
7.1429
0
SEQEND
0
POLYLINE
8
CUT
66
1
70
0
0
VERTEX
8
CUT
10
85
20
5
0
VERTEX
8
CUT
10
85
20
9.2857
0
VERTEX
8
CUT
10
89.2857
20
9.2857
0
VERTEX
8
CUT
10
89.2857
20
6.4286
0
VERTEX
8
CUT
10
86.4286
20
6.4286
0
VERTEX
8
CUT
10
86.4286
20
7.8571
0
VERTEX
8
CUT
10
87.8571
20
7.8571
0
SEQEND
0
POLYLINE
8
CUT
66
1
70
0
0
VERTEX
8
CUT
10
90
20
10
0
VERTEX
8
CUT
10
94.2857
20
10
0
VERTEX
8
CUT
10
94.2857
20
5.7143
0
VERTEX
8
CUT
10
91.4286
20
5.7143
0
VERTEX
8
CUT
10
91.4286
20
8.5714
0
VERTEX
8
CUT
10
92.8571
20
8.5714
0
VERTEX
8
CUT
10
92.8571
20
7.1429
0
SEQEND
0
POLYLINE
8
CUT
66
1
70
0
0
VERTEX
8
CUT
10
95
20
5
0
VERTEX
8
CUT
10
90.7143
20
5
0
VERTEX
8
CUT
10
90.7143
20
9.2857
0
VERTEX
8
CUT
10
93.5714
20
9.2857
0
VERTEX
8
CUT
10
93.5714
20
6.4286
0
VERTEX
8
CUT
10
92.1429
20
6.4286
0
VERTEX
8
CUT
10
92.1429
20
7.8571
0
SEQEND
0
POLYLINE
8
CUT
66
1
70
0
0
VERTEX
8
CUT
10
100
20
10
0
VERTEX
8
CUT
10
100
20
5.7143
0
VERTEX
8
CUT
10
95.7143
20
5.7143
0
VERTEX
8
CUT
10
95.7143
20
8.5714
0
VERTEX
8
CUT
10
98.5714
20
8.5714
0
VERTEX
8
CUT
10
98.5714
20
7.1429
0
VERTEX
8
CUT
10
97.1429
20
7.1429
0
SEQEND
0
POLYLINE
8
CUT
66
1
70
0
0
VERTEX
8
CUT
10
95
20
5
0
VERTEX
8
CUT
10
95
20
9.2857
0
VERTEX
8
CUT
10
99.2857
20
9.2857
0
VERTEX
8
CUT
10
99.2857
20
6.4286
0
VERTEX
8
CUT
10
96.4286
20
6.4286
0
VERTEX
8
CUT
10
96.4286
20
7.8571
0
VERTEX
8
CUT
10
97.8571
20
7.8571
0
SEQEND
0
POLYLINE
8
CUT
66
1
70
0
0
VERTEX
8
CUT
10
100
20
10
0
VERTEX
8
CUT
10
104.2857
20
10
0
VERTEX
8
CUT
10
104.2857
20
5.7143
0
VERTEX
8
CUT
10
101.4286
20
5.7143
0
VERTEX
8
CUT
10
101.4286
20
8.5714
0
VERTEX
8
CUT
10
102.8571
20
8.5714
0
VERTEX
8
CUT
10
102.8571
20
7.1429
0
SEQEND
0
POLYLINE
8
CUT
66
1
70
0
0
VERTEX
8
CUT
10
105
20
5
0
VERTEX
8
CUT
10
100.7143
20
5
0
VERTEX
8
CUT
10
100.7143
20
9.2857
0
VERTEX
8
CUT
10
103.5714
20
9.2857
0
VERTEX
8
CUT
10
103.5714
20
6.4286
0
VERTEX
8
CUT
10
102.1429
20
6.4286
0
VERTEX
8
CUT
10
102.1429
20
7.8571
0
SEQEND
0
POLYLINE
8
CUT
66
1
70
0
0
VERTEX
8
CUT
10
110
20
10
0
VERTEX
8
CUT
10
110
20
5.7143
0
VERTEX
8
CUT
10
105.7143
20
5.7143
0
VERTEX
8
CUT
10
105.7143
20
8.5714
0
VERTEX
8
CUT
10
108.5714
20
8.5714
0
VERTEX
8
CUT
10
108.5714
20
7.1429
0
VERTEX
8
CUT
10
107.1429
20
7.1429
0
SEQEND
0
POLYLINE
8
CUT
66
1
70
0
0
VERTEX
8
CUT
10
105
20
5
0
VERTEX
8
CUT
10
105
20
9.2857
0
VERTEX
8
CUT
10
109.2857
20
9.2857
0
VERTEX
8
CUT
10
109.2857
20
6.4286
0
VERTEX
8
CUT
10
106.4286
20
6.4286
0
VERTEX
8
CUT
10
106.4286
20
7.8571
0
VERTEX
8
CUT
10
107.8571
20
7.8571
0
SEQEND
0
POLYLINE
8
CUT
66
1
70
0
0
VERTEX
8
CUT
10
110
20
10
0
VERTEX
8
CUT
10
114.2857
20
10
0
VERTEX
8
CUT
10
114.2857
20
5.7143
0
VERTEX
8
CUT
10
111.4286
20
5.7143
0
VERTEX
8
CUT
10
111.4286
20
8.5714
0
VERTEX
8
CUT
10
112.8571
20
8.5714
0
VERTEX
8
CUT
10
112.8571
20
7.1429
0
SEQEND
0
POLYLINE
8
CUT
66
1
70
0
0
VERTEX
8
CUT
10
115
20
5
0
VERTEX
8
CUT
10
110.7143
20
5
0
VERTEX
8
CUT
10
110.7143
20
9.2857
0
VERTEX
8
CUT
10
113.5714
20
9.2857
0
VERTEX
8
CUT
10
113.5714
20
6.4286
0
VERTEX
8
CUT
10
112.1429
20
6.4286
0
VERTEX
8
CUT
10
112.1429
20
7.8571
0
SEQEND
0
POLYLINE
8
CUT
66
1
70
0
0
VERTEX
8
CUT
10
120
20
10
0
VERTEX
8
CUT
10
120
20
5.7143
0
VERTEX
8
CUT
10
115.7143
20
5.7143
0
VERTEX
8
CUT
10
115.7143
20
8.5714
0
VERTEX
8
CUT
10
118.5714
20
8.5714
0
VERTEX
8
CUT
10
118.5714
20
7.1429
0
VERTEX
8
CUT
10
117.1429
20
7.1429
0
SEQEND
0
POLYLINE
8
CUT
66
1
70
0
0
VERTEX
8
CUT
10
115
20
5
0
VERTEX
8
CUT
10
115
20
9.2857
0
VERTEX
8
CUT
10
119.2857
20
9.2857
0
VERTEX
8
CUT
10
119.2857
20
6.4286
0
VERTEX
8
CUT
10
116.4286
20
6.4286
0
VERTEX
8
CUT
10
116.4286
20
7.8571
0
VERTEX
8
CUT
10
117.8571
20
7.8571
0
SEQEND
0
POLYLINE
8
CUT
66
1
70
0
0
VERTEX
8
CUT
10
5
20
5
0
VERTEX
8
CUT
10
5
20
0.7143
0
VERTEX
8
CUT
10
0.7143
20
0.7143
0
VERTEX
8
CUT
10
0.7143
20
3.5714
0
VERTEX
8
CUT
10
3.5714
20
3.5714
0
VERTEX
8
CUT
10
3.5714
20
2.1429
0
VERTEX
8
CUT
10
2.1429
20
2.1429
0
SEQEND
0
POLYLINE
8
CUT
66
1
70
0
0
VERTEX
8
CUT
10
0
20
0
0
VERTEX
8
CUT
10
0
20
4.2857
0
VERTEX
8
CUT
10
4.2857
20
4.2857
0
VERTEX
8
CUT
10
4.2857
20
1.4286
0
VERTEX
8
CUT
10
1.4286
20
1.4286
0
VERTEX
8
CUT
10
1.4286
20
2.8571
0
VERTEX
8
CUT
10
2.8571
20
2.8571
0
SEQEND
0
POLYLINE
8
CUT
66
1
70
0
0
VERTEX
8
CUT
10
5
20
5
0
VERTEX
8
CUT
10
9.2857
20
5
0
VERTEX
8
CUT
10
9.2857
20
0.7143
0
VERTEX
8
CUT
10
6.4286
20
0.7143
0
VERTEX
8
CUT
10
6.4286
20
3.5714
0
VERTEX
8
CUT
10
7.8571
20
3.5714
0
VERTEX
8
CUT
10
7.8571
20
2.1429
0
SEQEND
0
POLYLINE
8
CUT
66
1
70
0
0
VERTEX
8
CUT
10
10
20
0
0
VERTEX
8
CUT
10
5.7143
20
0
0
VERTEX
8
CUT
10
5.7143
20
4.2857
0
VERTEX
8
CUT
10
8.5714
20
4.2857
0
VERTEX
8
CUT
10
8.5714
20
1.4286
0
VERTEX
8
CUT
10
7.1429
20
1.4286
0
VERTEX
8
CUT
10
7.1429
20
2.8571
0
SEQEND
0
POLYLINE
8
CUT
66
1
70
0
0
VERTEX
8
CUT
10
15
20
5
0
VERTEX
8
CUT
10
15
20
0.7143
0
VERTEX
8
CUT
10
10.7143
20
0.7143
0
VERTEX
8
CUT
10
10.7143
20
3.5714
0
VERTEX
8
CUT
10
13.5714
20
3.5714
0
VERTEX
8
CUT
10
13.5714
20
2.1429
0
VERTEX
8
CUT
10
12.1429
20
2.1429
0
SEQEND
0
POLYLINE
8
CUT
66
1
70
0
0
VERTEX
8
CUT
10
10
20
0
0
VERTEX
8
CUT
10
10
20
4.2857
0
VERTEX
8
CUT
10
14.2857
20
4.2857
0
VERTEX
8
CUT
10
14.2857
20
1.4286
0
VERTEX
8
CUT
10
11.4286
20
1.4286
0
VERTEX
8
CUT
10
11.4286
20
2.8571
0
VERTEX
8
CUT
10
12.8571
20
2.8571
0
SEQEND
0
POLYLINE
8
CUT
66
1
70
0
0
VERTEX
8
CUT
10
15
20
5
0
VERTEX
8
CUT
10
19.2857
20
5
0
VERTEX
8
CUT
10
19.2857
20
0.7143
0
VERTEX
8
CUT
10
16.4286
20
0.7143
0
VERTEX
8
CUT
10
16.4286
20
3.5714
0
VERTEX
8
CUT
10
17.8571
20
3.5714
0
VERTEX
8
CUT
10
17.8571
20
2.1429
0
SEQEND
0
POLYLINE
8
CUT
66
1
70
0
0
VERTEX
8
CUT
10
20
20
0
0
VERTEX
8
CUT
10
15.7143
20
0
0
VERTEX
8
CUT
10
15.7143
20
4.2857
0
VERTEX
8
CUT
10
18.5714
20
4.2857
0
VERTEX
8
CUT
10
18.5714
20
1.4286
0
VERTEX
8
CUT
10
17.1429
20
1.4286
0
VERTEX
8
CUT
10
17.1429
20
2.8571
0
SEQEND
0
POLYLINE
8
CUT
66
1
70
0
0
VERTEX
8
CUT
10
25
20
5
0
VERTEX
8
CUT
10
25
20
0.7143
0
VERTEX
8
CUT
10
20.7143
20
0.7143
0
VERTEX
8
CUT
10
20.7143
20
3.5714
0
VERTEX
8
CUT
10
23.5714
20
3.5714
0
VERTEX
8
CUT
10
23.5714
20
2.1429
0
VERTEX
8
CUT
10
22.1429
20
2.1429
0
SEQEND
0
POLYLINE
8
CUT
66
1
70
0
0
VERTEX
8
CUT
10
20
20
0
0
VERTEX
8
CUT
10
20
20
4.2857
0
VERTEX
8
CUT
10
24.2857
20
4.2857
0
VERTEX
8
CUT
10
24.2857
20
1.4286
0
VERTEX
8
CUT
10
21.4286
20
1.4286
0
VERTEX
8
CUT
10
21.4286
20
2.8571
0
VERTEX
8
CUT
10
22.8571
20
2.8571
0
SEQEND
0
POLYLINE
8
CUT
66
1
70
0
0
VERTEX
8
CUT
10
25
20
5
0
VERTEX
8
CUT
10
29.2857
20
5
0
VERTEX
8
CUT
10
29.2857
20
0.7143
0
VERTEX
8
CUT
10
26.4286
20
0.7143
0
VERTEX
8
CUT
10
26.4286
20
3.5714
0
VERTEX
8
CUT
10
27.8571
20
3.5714
0
VERTEX
8
CUT
10
27.8571
20
2.1429
0
SEQEND
0
POLYLINE
8
CUT
66
1
70
0
0
VERTEX
8
CUT
10
30
20
0
0
VERTEX
8
CUT
10
25.7143
20
0
0
VERTEX
8
CUT
10
25.7143
20
4.2857
0
VERTEX
8
CUT
10
28.5714
20
4.2857
0
VERTEX
8
CUT
10
28.5714
20
1.4286
0
VERTEX
8
CUT
10
27.1429
20
1.4286
0
VERTEX
8
CUT
10
27.1429
20
2.8571
0
SEQEND
0
POLYLINE
8
CUT
66
1
70
0
0
VERTEX
8
CUT
10
35
20
5
0
VERTEX
8
CUT
10
35
20
0.7143
0
VERTEX
8
CUT
10
30.7143
20
0.7143
0
VERTEX
8
CUT
10
30.7143
20
3.5714
0
VERTEX
8
CUT
10
33.5714
20
3.5714
0
VERTEX
8
CUT
10
33.5714
20
2.1429
0
VERTEX
8
CUT
10
32.1429
20
2.1429
0
SEQEND
0
POLYLINE
8
CUT
66
1
70
0
0
VERTEX
8
CUT
10
30
20
0
0
VERTEX
8
CUT
10
30
20
4.2857
0
VERTEX
8
CUT
10
34.2857
20
4.2857
0
VERTEX
8
CUT
10
34.2857
20
1.4286
0
VERTEX
8
CUT
10
31.4286
20
1.4286
0
VERTEX
8
CUT
10
31.4286
20
2.8571
0
VERTEX
8
CUT
10
32.8571
20
2.8571
0
SEQEND
0
POLYLINE
8
CUT
66
1
70
0
0
VERTEX
8
CUT
10
35
20
5
0
VERTEX
8
CUT
10
39.2857
20
5
0
VERTEX
8
CUT
10
39.2857
20
0.7143
0
VERTEX
8
CUT
10
36.4286
20
0.7143
0
VERTEX
8
CUT
10
36.4286
20
3.5714
0
VERTEX
8
CUT
10
37.8571
20
3.5714
0
VERTEX
8
CUT
10
37.8571
20
2.1429
0
SEQEND
0
POLYLINE
8
CUT
66
1
70
0
0
VERTEX
8
CUT
10
40
20
0
0
VERTEX
8
CUT
10
35.7143
20
0
0
VERTEX
8
CUT
10
35.7143
20
4.2857
0
VERTEX
8
CUT
10
38.5714
20
4.2857
0
VERTEX
8
CUT
10
38.5714
20
1.4286
0
VERTEX
8
CUT
10
37.1429
20
1.4286
0
VERTEX
8
CUT
10
37.1429
20
2.8571
0
SEQEND
0
POLYLINE
8
CUT
66
1
70
0
0
VERTEX
8
CUT
10
45
20
5
0
VERTEX
8
CUT
10
45
20
0.7143
0
VERTEX
8
CUT
10
40.7143
20
0.7143
0
VERTEX
8
CUT
10
40.7143
20
3.5714
0
VERTEX
8
CUT
10
43.5714
20
3.5714
0
VERTEX
8
CUT
10
43.5714
20
2.1429
0
VERTEX
8
CUT
10
42.1429
20
2.1429
0
SEQEND
0
POLYLINE
8
CUT
66
1
70
0
0
VERTEX
8
CUT
10
40
20
0
0
VERTEX
8
CUT
10
40
20
4.2857
0
VERTEX
8
CUT
10
44.2857
20
4.2857
0
VERTEX
8
CUT
10
44.2857
20
1.4286
0
VERTEX
8
CUT
10
41.4286
20
1.4286
0
VERTEX
8
CUT
10
41.4286
20
2.8571
0
VERTEX
8
CUT
10
42.8571
20
2.8571
0
SEQEND
0
POLYLINE
8
CUT
66
1
70
0
0
VERTEX
8
CUT
10
45
20
5
0
VERTEX
8
CUT
10
49.2857
20
5
0
VERTEX
8
CUT
10
49.2857
20
0.7143
0
VERTEX
8
CUT
10
46.4286
20
0.7143
0
VERTEX
8
CUT
10
46.4286
20
3.5714
0
VERTEX
8
CUT
10
47.8571
20
3.5714
0
VERTEX
8
CUT
10
47.8571
20
2.1429
0
SEQEND
0
POLYLINE
8
CUT
66
1
70
0
0
VERTEX
8
CUT
10
50
20
0
0
VERTEX
8
CUT
10
45.7143
20
0
0
VERTEX
8
CUT
10
45.7143
20
4.2857
0
VERTEX
8
CUT
10
48.5714
20
4.2857
0
VERTEX
8
CUT
10
48.5714
20
1.4286
0
VERTEX
8
CUT
10
47.1429
20
1.4286
0
VERTEX
8
CUT
10
47.1429
20
2.8571
0
SEQEND
0
POLYLINE
8
CUT
66
1
70
0
0
VERTEX
8
CUT
10
55
20
5
0
VERTEX
8
CUT
10
55
20
0.7143
0
VERTEX
8
CUT
10
50.7143
20
0.7143
0
VERTEX
8
CUT
10
50.7143
20
3.5714
0
VERTEX
8
CUT
10
53.5714
20
3.5714
0
VERTEX
8
CUT
10
53.5714
20
2.1429
0
VERTEX
8
CUT
10
52.1429
20
2.1429
0
SEQEND
0
POLYLINE
8
CUT
66
1
70
0
0
VERTEX
8
CUT
10
50
20
0
0
VERTEX
8
CUT
10
50
20
4.2857
0
VERTEX
8
CUT
10
54.2857
20
4.2857
0
VERTEX
8
CUT
10
54.2857
20
1.4286
0
VERTEX
8
CUT
10
51.4286
20
1.4286
0
VERTEX
8
CUT
10
51.4286
20
2.8571
0
VERTEX
8
CUT
10
52.8571
20
2.8571
0
SEQEND
0
POLYLINE
8
CUT
66
1
70
0
0
VERTEX
8
CUT
10
55
20
5
0
VERTEX
8
CUT
10
59.2857
20
5
0
VERTEX
8
CUT
10
59.2857
20
0.7143
0
VERTEX
8
CUT
10
56.4286
20
0.7143
0
VERTEX
8
CUT
10
56.4286
20
3.5714
0
VERTEX
8
CUT
10
57.8571
20
3.5714
0
VERTEX
8
CUT
10
57.8571
20
2.1429
0
SEQEND
0
POLYLINE
8
CUT
66
1
70
0
0
VERTEX
8
CUT
10
60
20
0
0
VERTEX
8
CUT
10
55.7143
20
0
0
VERTEX
8
CUT
10
55.7143
20
4.2857
0
VERTEX
8
CUT
10
58.5714
20
4.2857
0
VERTEX
8
CUT
10
58.5714
20
1.4286
0
VERTEX
8
CUT
10
57.1429
20
1.4286
0
VERTEX
8
CUT
10
57.1429
20
2.8571
0
SEQEND
0
POLYLINE
8
CUT
66
1
70
0
0
VERTEX
8
CUT
10
65
20
5
0
VERTEX
8
CUT
10
65
20
0.7143
0
VERTEX
8
CUT
10
60.7143
20
0.7143
0
VERTEX
8
CUT
10
60.7143
20
3.5714
0
VERTEX
8
CUT
10
63.5714
20
3.5714
0
VERTEX
8
CUT
10
63.5714
20
2.1429
0
VERTEX
8
CUT
10
62.1429
20
2.1429
0
SEQEND
0
POLYLINE
8
CUT
66
1
70
0
0
VERTEX
8
CUT
10
60
20
0
0
VERTEX
8
CUT
10
60
20
4.2857
0
VERTEX
8
CUT
10
64.2857
20
4.2857
0
VERTEX
8
CUT
10
64.2857
20
1.4286
0
VERTEX
8
CUT
10
61.4286
20
1.4286
0
VERTEX
8
CUT
10
61.4286
20
2.8571
0
VERTEX
8
CUT
10
62.8571
20
2.8571
0
SEQEND
0
POLYLINE
8
CUT
66
1
70
0
0
VERTEX
8
CUT
10
65
20
5
0
VERTEX
8
CUT
10
69.2857
20
5
0
VERTEX
8
CUT
10
69.2857
20
0.7143
0
VERTEX
8
CUT
10
66.4286
20
0.7143
0
VERTEX
8
CUT
10
66.4286
20
3.5714
0
VERTEX
8
CUT
10
67.8571
20
3.5714
0
VERTEX
8
CUT
10
67.8571
20
2.1429
0
SEQEND
0
POLYLINE
8
CUT
66
1
70
0
0
VERTEX
8
CUT
10
70
20
0
0
VERTEX
8
CUT
10
65.7143
20
0
0
VERTEX
8
CUT
10
65.7143
20
4.2857
0
VERTEX
8
CUT
10
68.5714
20
4.2857
0
VERTEX
8
CUT
10
68.5714
20
1.4286
0
VERTEX
8
CUT
10
67.1429
20
1.4286
0
VERTEX
8
CUT
10
67.1429
20
2.8571
0
SEQEND
0
POLYLINE
8
CUT
66
1
70
0
0
VERTEX
8
CUT
10
75
20
5
0
VERTEX
8
CUT
10
75
20
0.7143
0
VERTEX
8
CUT
10
70.7143
20
0.7143
0
VERTEX
8
CUT
10
70.7143
20
3.5714
0
VERTEX
8
CUT
10
73.5714
20
3.5714
0
VERTEX
8
CUT
10
73.5714
20
2.1429
0
VERTEX
8
CUT
10
72.1429
20
2.1429
0
SEQEND
0
POLYLINE
8
CUT
66
1
70
0
0
VERTEX
8
CUT
10
70
20
0
0
VERTEX
8
CUT
10
70
20
4.2857
0
VERTEX
8
CUT
10
74.2857
20
4.2857
0
VERTEX
8
CUT
10
74.2857
20
1.4286
0
VERTEX
8
CUT
10
71.4286
20
1.4286
0
VERTEX
8
CUT
10
71.4286
20
2.8571
0
VERTEX
8
CUT
10
72.8571
20
2.8571
0
SEQEND
0
POLYLINE
8
CUT
66
1
70
0
0
VERTEX
8
CUT
10
75
20
5
0
VERTEX
8
CUT
10
79.2857
20
5
0
VERTEX
8
CUT
10
79.2857
20
0.7143
0
VERTEX
8
CUT
10
76.4286
20
0.7143
0
VERTEX
8
CUT
10
76.4286
20
3.5714
0
VERTEX
8
CUT
10
77.8571
20
3.5714
0
VERTEX
8
CUT
10
77.8571
20
2.1429
0
SEQEND
0
POLYLINE
8
CUT
66
1
70
0
0
VERTEX
8
CUT
10
80
20
0
0
VERTEX
8
CUT
10
75.7143
20
0
0
VERTEX
8
CUT
10
75.7143
20
4.2857
0
VERTEX
8
CUT
10
78.5714
20
4.2857
0
VERTEX
8
CUT
10
78.5714
20
1.4286
0
VERTEX
8
CUT
10
77.1429
20
1.4286
0
VERTEX
8
CUT
10
77.1429
20
2.8571
0
SEQEND
0
POLYLINE
8
CUT
66
1
70
0
0
VERTEX
8
CUT
10
85
20
5
0
VERTEX
8
CUT
10
85
20
0.7143
0
VERTEX
8
CUT
10
80.7143
20
0.7143
0
VERTEX
8
CUT
10
80.7143
20
3.5714
0
VERTEX
8
CUT
10
83.5714
20
3.5714
0
VERTEX
8
CUT
10
83.5714
20
2.1429
0
VERTEX
8
CUT
10
82.1429
20
2.1429
0
SEQEND
0
POLYLINE
8
CUT
66
1
70
0
0
VERTEX
8
CUT
10
80
20
0
0
VERTEX
8
CUT
10
80
20
4.2857
0
VERTEX
8
CUT
10
84.2857
20
4.2857
0
VERTEX
8
CUT
10
84.2857
20
1.4286
0
VERTEX
8
CUT
10
81.4286
20
1.4286
0
VERTEX
8
CUT
10
81.4286
20
2.8571
0
VERTEX
8
CUT
10
82.8571
20
2.8571
0
SEQEND
0
POLYLINE
8
CUT
66
1
70
0
0
VERTEX
8
CUT
10
85
20
5
0
VERTEX
8
CUT
10
89.2857
20
5
0
VERTEX
8
CUT
10
89.2857
20
0.7143
0
VERTEX
8
CUT
10
86.4286
20
0.7143
0
VERTEX
8
CUT
10
86.4286
20
3.5714
0
VERTEX
8
CUT
10
87.8571
20
3.5714
0
VERTEX
8
CUT
10
87.8571
20
2.1429
0
SEQEND
0
POLYLINE
8
CUT
66
1
70
0
0
VERTEX
8
CUT
10
90
20
0
0
VERTEX
8
CUT
10
85.7143
20
0
0
VERTEX
8
CUT
10
85.7143
20
4.2857
0
VERTEX
8
CUT
10
88.5714
20
4.2857
0
VERTEX
8
CUT
10
88.5714
20
1.4286
0
VERTEX
8
CUT
10
87.1429
20
1.4286
0
VERTEX
8
CUT
10
87.1429
20
2.8571
0
SEQEND
0
POLYLINE
8
CUT
66
1
70
0
0
VERTEX
8
CUT
10
95
20
5
0
VERTEX
8
CUT
10
95
20
0.7143
0
VERTEX
8
CUT
10
90.7143
20
0.7143
0
VERTEX
8
CUT
10
90.7143
20
3.5714
0
VERTEX
8
CUT
10
93.5714
20
3.5714
0
VERTEX
8
CUT
10
93.5714
20
2.1429
0
VERTEX
8
CUT
10
92.1429
20
2.1429
0
SEQEND
0
POLYLINE
8
CUT
66
1
70
0
0
VERTEX
8
CUT
10
90
20
0
0
VERTEX
8
CUT
10
90
20
4.2857
0
VERTEX
8
CUT
10
94.2857
20
4.2857
0
VERTEX
8
CUT
10
94.2857
20
1.4286
0
VERTEX
8
CUT
10
91.4286
20
1.4286
0
VERTEX
8
CUT
10
91.4286
20
2.8571
0
VERTEX
8
CUT
10
92.8571
20
2.8571
0
SEQEND
0
POLYLINE
8
CUT
66
1
70
0
0
VERTEX
8
CUT
10
95
20
5
0
VERTEX
8
CUT
10
99.2857
20
5
0
VERTEX
8
CUT
10
99.2857
20
0.7143
0
VERTEX
8
CUT
10
96.4286
20
0.7143
0
VERTEX
8
CUT
10
96.4286
20
3.5714
0
VERTEX
8
CUT
10
97.8571
20
3.5714
0
VERTEX
8
CUT
10
97.8571
20
2.1429
0
SEQEND
0
POLYLINE
8
CUT
66
1
70
0
0
VERTEX
8
CUT
10
100
20
0
0
VERTEX
8
CUT
10
95.7143
20
0
0
VERTEX
8
CUT
10
95.7143
20
4.2857
0
VERTEX
8
CUT
10
98.5714
20
4.2857
0
VERTEX
8
CUT
10
98.5714
20
1.4286
0
VERTEX
8
CUT
10
97.1429
20
1.4286
0
VERTEX
8
CUT
10
97.1429
20
2.8571
0
SEQEND
0
POLYLINE
8
CUT
66
1
70
0
0
VERTEX
8
CUT
10
105
20
5
0
VERTEX
8
CUT
10
105
20
0.7143
0
VERTEX
8
CUT
10
100.7143
20
0.7143
0
VERTEX
8
CUT
10
100.7143
20
3.5714
0
VERTEX
8
CUT
10
103.5714
20
3.5714
0
VERTEX
8
CUT
10
103.5714
20
2.1429
0
VERTEX
8
CUT
10
102.1429
20
2.1429
0
SEQEND
0
POLYLINE
8
CUT
66
1
70
0
0
VERTEX
8
CUT
10
100
20
0
0
VERTEX
8
CUT
10
100
20
4.2857
0
VERTEX
8
CUT
10
104.2857
20
4.2857
0
VERTEX
8
CUT
10
104.2857
20
1.4286
0
VERTEX
8
CUT
10
101.4286
20
1.4286
0
VERTEX
8
CUT
10
101.4286
20
2.8571
0
VERTEX
8
CUT
10
102.8571
20
2.8571
0
SEQEND
0
POLYLINE
8
CUT
66
1
70
0
0
VERTEX
8
CUT
10
105
20
5
0
VERTEX
8
CUT
10
109.2857
20
5
0
VERTEX
8
CUT
10
109.2857
20
0.7143
0
VERTEX
8
CUT
10
106.4286
20
0.7143
0
VERTEX
8
CUT
10
106.4286
20
3.5714
0
VERTEX
8
CUT
10
107.8571
20
3.5714
0
VERTEX
8
CUT
10
107.8571
20
2.1429
0
SEQEND
0
POLYLINE
8
CUT
66
1
70
0
0
VERTEX
8
CUT
10
110
20
0
0
VERTEX
8
CUT
10
105.7143
20
0
0
VERTEX
8
CUT
10
105.7143
20
4.2857
0
VERTEX
8
CUT
10
108.5714
20
4.2857
0
VERTEX
8
CUT
10
108.5714
20
1.4286
0
VERTEX
8
CUT
10
107.1429
20
1.4286
0
VERTEX
8
CUT
10
107.1429
20
2.8571
0
SEQEND
0
POLYLINE
8
CUT
66
1
70
0
0
VERTEX
8
CUT
10
115
20
5
0
VERTEX
8
CUT
10
115
20
0.7143
0
VERTEX
8
CUT
10
110.7143
20
0.7143
0
VERTEX
8
CUT
10
110.7143
20
3.5714
0
VERTEX
8
CUT
10
113.5714
20
3.5714
0
VERTEX
8
CUT
10
113.5714
20
2.1429
0
VERTEX
8
CUT
10
112.1429
20
2.1429
0
SEQEND
0
POLYLINE
8
CUT
66
1
70
0
0
VERTEX
8
CUT
10
110
20
0
0
VERTEX
8
CUT
10
110
20
4.2857
0
VERTEX
8
CUT
10
114.2857
20
4.2857
0
VERTEX
8
CUT
10
114.2857
20
1.4286
0
VERTEX
8
CUT
10
111.4286
20
1.4286
0
VERTEX
8
CUT
10
111.4286
20
2.8571
0
VERTEX
8
CUT
10
112.8571
20
2.8571
0
SEQEND
0
POLYLINE
8
CUT
66
1
70
0
0
VERTEX
8
CUT
10
115
20
5
0
VERTEX
8
CUT
10
119.2857
20
5
0
VERTEX
8
CUT
10
119.2857
20
0.7143
0
VERTEX
8
CUT
10
116.4286
20
0.7143
0
VERTEX
8
CUT
10
116.4286
20
3.5714
0
VERTEX
8
CUT
10
117.8571
20
3.5714
0
VERTEX
8
CUT
10
117.8571
20
2.1429
0
SEQEND
0
POLYLINE
8
CUT
66
1
70
0
0
VERTEX
8
CUT
10
120
20
0
0
VERTEX
8
CUT
10
115.7143
20
0
0
VERTEX
8
CUT
10
115.7143
20
4.2857
0
VERTEX
8
CUT
10
118.5714
20
4.2857
0
VERTEX
8
CUT
10
118.5714
20
1.4286
0
VERTEX
8
CUT
10
117.1429
20
1.4286
0
VERTEX
8
CUT
10
117.1429
20
2.8571
0
SEQEND
0
POLYLINE
8
CUT
66
1
70
0
0
VERTEX
8
CUT
10
0
20
70
0
VERTEX
8
CUT
10
120
20
70
0
VERTEX
8
CUT
10
120
20
0
0
VERTEX
8
CUT
10
0
20
0
0
VERTEX
8
CUT
10
0
20
70
0
SEQEND
0
ENDSEC
0
EOF
