0
SECTION
2
HEADER
9
$ACADVER
1
AC1009
9
$INSUNITS
70
4
0
ENDSEC
0
SECTION
2
TABLES
0
TABLE
2
LAYER
70
1
0
LAYER
2
CUT
70
0
62
1
6
CONTINUOUS
0
ENDTAB
0
ENDSEC
0
SECTION
2
ENTITIES
0
POLYLINE
8
CUT
66
1
70
0
0
VERTEX
8
CUT
10
1.5
20
67.5
0
VERTEX
8
CUT
10
13.0556
20
67.5
0
VERTEX
8
CUT
10
13.0556
20
55.9444
0
VERTEX
8
CUT
10
4.3889
20
55.9444
0
VERTEX
8
CUT
10
4.3889
20
64.6111
0
VERTEX
8
CUT
10
10.1667
20
64.6111
0
VERTEX
8
CUT
10
10.1667
20
58.8333
0
VERTEX
8
CUT
10
7.2778
20
58.8333
0
VERTEX
8
CUT
10
7.2778
20
61.7222
0
SEQEND
0
POLYLINE
8
CUT
66
1
70
0
0
VERTEX
8
CUT
10
14.5
20
54.5
0
VERTEX
8
CUT
10
2.9444
20
54.5
0
VERTEX
8
CUT
10
2.9444
20
66.0556
0
VERTEX
8
CUT
10
11.6111
20
66.0556
0
VERTEX
8
CUT
10
11.6111
20
57.3889
0
VERTEX
8
CUT
10
5.8333
20
57.3889
0
VERTEX
8
CUT
10
5.8333
20
63.1667
0
VERTEX
8
CUT
10
8.7222
20
63.1667
0
VERTEX
8
CUT
10
8.7222
20
60.2778
0
SEQEND
0
POLYLINE
8
CUT
66
1
70
0
0
VERTEX
8
CUT
10
27.5
20
67.5
0
VERTEX
8
CUT
10
27.5
20
55.9444
0
VERTEX
8
CUT
10
15.9444
20
55.9444
0
VERTEX
8
CUT
10
15.9444
20
64.6111
0
VERTEX
8
CUT
10
24.6111
20
64.6111
0
VERTEX
8
CUT
10
24.6111
20
58.8333
0
VERTEX
8
CUT
10
18.8333
20
58.8333
0
VERTEX
8
CUT
10
18.8333
20
61.7222
0
VERTEX
8
CUT
10
21.7222
20
61.7222
0
SEQEND
0
POLYLINE
8
CUT
66
1
70
0
0
VERTEX
8
CUT
10
14.5
20
54.5
0
VERTEX
8
CUT
10
14.5
20
66.0556
0
VERTEX
8
CUT
10
26.0556
20
66.0556
0
VERTEX
8
CUT
10
26.0556
20
57.3889
0
VERTEX
8
CUT
10
17.3889
20
57.3889
0
VERTEX
8
CUT
10
17.3889
20
63.1667
0
VERTEX
8
CUT
10
23.1667
20
63.1667
0
VERTEX
8
CUT
10
23.1667
20
60.2778
0
VERTEX
8
CUT
10
20.2778
20
60.2778
0
SEQEND
0
POLYLINE
8
CUT
66
1
70
0
0
VERTEX
8
CUT
10
27.5
20
67.5
0
VERTEX
8
CUT
10
39.0556
20
67.5
0
VERTEX
8
CUT
10
39.0556
20
55.9444
0
VERTEX
8
CUT
10
30.3889
20
55.9444
0
VERTEX
8
CUT
10
30.3889
20
64.6111
0
VERTEX
8
CUT
10
36.1667
20
64.6111
0
VERTEX
8
CUT
10
36.1667
20
58.8333
0
VERTEX
8
CUT
10
33.2778
20
58.8333
0
VERTEX
8
CUT
10
33.2778
20
61.7222
0
SEQEND
0
POLYLINE
8
CUT
66
1
70
0
0
VERTEX
8
CUT
10
40.5
20
54.5
0
VERTEX
8
CUT
10
28.9444
20
54.5
0
VERTEX
8
CUT
10
28.9444
20
66.0556
0
VERTEX
8
CUT
10
37.6111
20
66.0556
0
VERTEX
8
CUT
10
37.6111
20
57.3889
0
VERTEX
8
CUT
10
31.8333
20
57.3889
0
VERTEX
8
CUT
10
31.8333
20
63.1667
0
VERTEX
8
CUT
10
34.7222
20
63.1667
0
VERTEX
8
CUT
10
34.7222
20
60.2778
0
SEQEND
0
POLYLINE
8
CUT
66
1
70
0
0
VERTEX
8
CUT
10
53.5
20
67.5
0
VERTEX
8
CUT
10
53.5
20
55.9444
0
VERTEX
8
CUT
10
41.9444
20
55.9444
0
VERTEX
8
CUT
10
41.9444
20
64.6111
0
VERTEX
8
CUT
10
50.6111
20
64.6111
0
VERTEX
8
CUT
10
50.6111
20
58.8333
0
VERTEX
8
CUT
10
44.8333
20
58.8333
0
VERTEX
8
CUT
10
44.8333
20
61.7222
0
VERTEX
8
CUT
10
47.7222
20
61.7222
0
SEQEND
0
POLYLINE
8
CUT
66
1
70
0
0
VERTEX
8
CUT
10
40.5
20
54.5
0
VERTEX
8
CUT
10
40.5
20
66.0556
0
VERTEX
8
CUT
10
52.0556
20
66.0556
0
VERTEX
8
CUT
10
52.0556
20
57.3889
0
VERTEX
8
CUT
10
43.3889
20
57.3889
0
VERTEX
8
CUT
10
43.3889
20
63.1667
0
VERTEX
8
CUT
10
49.1667
20
63.1667
0
VERTEX
8
CUT
10
49.1667
20
60.2778
0
VERTEX
8
CUT
10
46.2778
20
60.2778
0
SEQEND
0
POLYLINE
8
CUT
66
1
70
0
0
VERTEX
8
CUT
10
53.5
20
67.5
0
VERTEX
8
CUT
10
65.0556
20
67.5
0
VERTEX
8
CUT
10
65.0556
20
55.9444
0
VERTEX
8
CUT
10
56.3889
20
55.9444
0
VERTEX
8
CUT
10
56.3889
20
64.6111
0
VERTEX
8
CUT
10
62.1667
20
64.6111
0
VERTEX
8
CUT
10
62.1667
20
58.8333
0
VERTEX
8
CUT
10
59.2778
20
58.8333
0
VERTEX
8
CUT
10
59.2778
20
61.7222
0
SEQEND
0
POLYLINE
8
CUT
66
1
70
0
0
VERTEX
8
CUT
10
66.5
20
54.5
0
VERTEX
8
CUT
10
54.9444
20
54.5
0
VERTEX
8
CUT
10
54.9444
20
66.0556
0
VERTEX
8
CUT
10
63.6111
20
66.0556
0
VERTEX
8
CUT
10
63.6111
20
57.3889
0
VERTEX
8
CUT
10
57.8333
20
57.3889
0
VERTEX
8
CUT
10
57.8333
20
63.1667
0
VERTEX
8
CUT
10
60.7222
20
63.1667
0
VERTEX
8
CUT
10
60.7222
20
60.2778
0
SEQEND
0
POLYLINE
8
CUT
66
1
70
0
0
VERTEX
8
CUT
10
79.5
20
67.5
0
VERTEX
8
CUT
10
79.5
20
55.9444
0
VERTEX
8
CUT
10
67.9444
20
55.9444
0
VERTEX
8
CUT
10
67.9444
20
64.6111
0
VERTEX
8
CUT
10
76.6111
20
64.6111
0
VERTEX
8
CUT
10
76.6111
20
58.8333
0
VERTEX
8
CUT
10
70.8333
20
58.8333
0
VERTEX
8
CUT
10
70.8333
20
61.7222
0
VERTEX
8
CUT
10
73.7222
20
61.7222
0
SEQEND
0
POLYLINE
8
CUT
66
1
70
0
0
VERTEX
8
CUT
10
66.5
20
54.5
0
VERTEX
8
CUT
10
66.5
20
66.0556
0
VERTEX
8
CUT
10
78.0556
20
66.0556
0
VERTEX
8
CUT
10
78.0556
20
57.3889
0
VERTEX
8
CUT
10
69.3889
20
57.3889
0
VERTEX
8
CUT
10
69.3889
20
63.1667
0
VERTEX
8
CUT
10
75.1667
20
63.1667
0
VERTEX
8
CUT
10
75.1667
20
60.2778
0
VERTEX
8
CUT
10
72.2778
20
60.2778
0
SEQEND
0
POLYLINE
8
CUT
66
1
70
0
0
VERTEX
8
CUT
10
79.5
20
67.5
0
VERTEX
8
CUT
10
91.0556
20
67.5
0
VERTEX
8
CUT
10
91.0556
20
55.9444
0
VERTEX
8
CUT
10
82.3889
20
55.9444
0
VERTEX
8
CUT
10
82.3889
20
64.6111
0
VERTEX
8
CUT
10
88.1667
20
64.6111
0
VERTEX
8
CUT
10
88.1667
20
58.8333
0
VERTEX
8
CUT
10
85.2778
20
58.8333
0
VERTEX
8
CUT
10
85.2778
20
61.7222
0
SEQEND
0
POLYLINE
8
CUT
66
1
70
0
0
VERTEX
8
CUT
10
92.5
20
54.5
0
VERTEX
8
CUT
10
80.9444
20
54.5
0
VERTEX
8
CUT
10
80.9444
20
66.0556
0
VERTEX
8
CUT
10
89.6111
20
66.0556
0
VERTEX
8
CUT
10
89.6111
20
57.3889
0
VERTEX
8
CUT
10
83.8333
20
57.3889
0
VERTEX
8
CUT
10
83.8333
20
63.1667
0
VERTEX
8
CUT
10
86.7222
20
63.1667
0
VERTEX
8
CUT
10
86.7222
20
60.2778
0
SEQEND
0
POLYLINE
8
CUT
66
1
70
0
0
VERTEX
8
CUT
10
105.5
20
67.5
0
VERTEX
8
CUT
10
105.5
20
55.9444
0
VERTEX
8
CUT
10
93.9444
20
55.9444
0
VERTEX
8
CUT
10
93.9444
20
64.6111
0
VERTEX
8
CUT
10
102.6111
20
64.6111
0
VERTEX
8
CUT
10
102.6111
20
58.8333
0
VERTEX
8
CUT
10
96.8333
20
58.8333
0
VERTEX
8
CUT
10
96.8333
20
61.7222
0
VERTEX
8
CUT
10
99.7222
20
61.7222
0
SEQEND
0
POLYLINE
8
CUT
66
1
70
0
0
VERTEX
8
CUT
10
92.5
20
54.5
0
VERTEX
8
CUT
10
92.5
20
66.0556
0
VERTEX
8
CUT
10
104.0556
20
66.0556
0
VERTEX
8
CUT
10
104.0556
20
57.3889
0
VERTEX
8
CUT
10
95.3889
20
57.3889
0
VERTEX
8
CUT
10
95.3889
20
63.1667
0
VERTEX
8
CUT
10
101.1667
20
63.1667
0
VERTEX
8
CUT
10
101.1667
20
60.2778
0
VERTEX
8
CUT
10
98.2778
20
60.2778
0
SEQEND
0
POLYLINE
8
CUT
66
1
70
0
0
VERTEX
8
CUT
10
105.5
20
67.5
0
VERTEX
8
CUT
10
117.0556
20
67.5
0
VERTEX
8
CUT
10
117.0556
20
55.9444
0
VERTEX
8
CUT
10
108.3889
20
55.9444
0
VERTEX
8
CUT
10
108.3889
20
64.6111
0
VERTEX
8
CUT
10
114.1667
20
64.6111
0
VERTEX
8
CUT
10
114.1667
20
58.8333
0
VERTEX
8
CUT
10
111.2778
20
58.8333
0
VERTEX
8
CUT
10
111.2778
20
61.7222
0
SEQEND
0
POLYLINE
8
CUT
66
1
70
0
0
VERTEX
8
CUT
10
118.5
20
54.5
0
VERTEX
8
CUT
10
106.9444
20
54.5
0
VERTEX
8
CUT
10
106.9444
20
66.0556
0
VERTEX
8
CUT
10
115.6111
20
66.0556
0
VERTEX
8
CUT
10
115.6111
20
57.3889
0
VERTEX
8
CUT
10
109.8333
20
57.3889
0
VERTEX
8
CUT
10
109.8333
20
63.1667
0
VERTEX
8
CUT
10
112.7222
20
63.1667
0
VERTEX
8
CUT
10
112.7222
20
60.2778
0
SEQEND
0
POLYLINE
8
CUT
66
1
70
0
0
VERTEX
8
CUT
10
14.5
20
54.5
0
VERTEX
8
CUT
10
14.5
20
42.9444
0
VERTEX
8
CUT
10
2.9444
20
42.9444
0
VERTEX
8
CUT
10
2.9444
20
51.6111
0
VERTEX
8
CUT
10
11.6111
20
51.6111
0
VERTEX
8
CUT
10
11.6111
20
45.8333
0
VERTEX
8
CUT
10
5.8333
20
45.8333
0
VERTEX
8
CUT
10
5.8333
20
48.7222
0
VERTEX
8
CUT
10
8.7222
20
48.7222
0
SEQEND
0
POLYLINE
8
CUT
66
1
70
0
0
VERTEX
8
CUT
10
1.5
20
41.5
0
VERTEX
8
CUT
10
1.5
20
53.0556
0
VERTEX
8
CUT
10
13.0556
20
53.0556
0
VERTEX
8
CUT
10
13.0556
20
44.3889
0
VERTEX
8
CUT
10
4.3889
20
44.3889
0
VERTEX
8
CUT
10
4.3889
20
50.1667
0
VERTEX
8
CUT
10
10.1667
20
50.1667
0
VERTEX
8
CUT
10
10.1667
20
47.2778
0
VERTEX
8
CUT
10
7.2778
20
47.2778
0
SEQEND
0
POLYLINE
8
CUT
66
1
70
0
0
VERTEX
8
CUT
10
14.5
20
54.5
0
VERTEX
8
CUT
10
26.0556
20
54.5
0
VERTEX
8
CUT
10
26.0556
20
42.9444
0
VERTEX
8
CUT
10
17.3889
20
42.9444
0
VERTEX
8
CUT
10
17.3889
20
51.6111
0
VERTEX
8
CUT
10
23.1667
20
51.6111
0
VERTEX
8
CUT
10
23.1667
20
45.8333
0
VERTEX
8
CUT
10
20.2778
20
45.8333
0
VERTEX
8
CUT
10
20.2778
20
48.7222
0
SEQEND
0
POLYLINE
8
CUT
66
1
70
0
0
VERTEX
8
CUT
10
27.5
20
41.5
0
VERTEX
8
CUT
10
15.9444
20
41.5
0
VERTEX
8
CUT
10
15.9444
20
53.0556
0
VERTEX
8
CUT
10
24.6111
20
53.0556
0
VERTEX
8
CUT
10
24.6111
20
44.3889
0
VERTEX
8
CUT
10
18.8333
20
44.3889
0
VERTEX
8
CUT
10
18.8333
20
50.1667
0
VERTEX
8
CUT
10
21.7222
20
50.1667
0
VERTEX
8
CUT
10
21.7222
20
47.2778
0
SEQEND
0
POLYLINE
8
CUT
66
1
70
0
0
VERTEX
8
CUT
10
40.5
20
54.5
0
VERTEX
8
CUT
10
40.5
20
42.9444
0
VERTEX
8
CUT
10
28.9444
20
42.9444
0
VERTEX
8
CUT
10
28.9444
20
51.6111
0
VERTEX
8
CUT
10
37.6111
20
51.6111
0
VERTEX
8
CUT
10
37.6111
20
45.8333
0
VERTEX
8
CUT
10
31.8333
20
45.8333
0
VERTEX
8
CUT
10
31.8333
20
48.7222
0
VERTEX
8
CUT
10
34.7222
20
48.7222
0
SEQEND
0
POLYLINE
8
CUT
66
1
70
0
0
VERTEX
8
CUT
10
27.5
20
41.5
0
VERTEX
8
CUT
10
27.5
20
53.0556
0
VERTEX
8
CUT
10
39.0556
20
53.0556
0
VERTEX
8
CUT
10
39.0556
20
44.3889
0
VERTEX
8
CUT
10
30.3889
20
44.3889
0
VERTEX
8
CUT
10
30.3889
20
50.1667
0
VERTEX
8
CUT
10
36.1667
20
50.1667
0
VERTEX
8
CUT
10
36.1667
20
47.2778
0
VERTEX
8
CUT
10
33.2778
20
47.2778
0
SEQEND
0
POLYLINE
8
CUT
66
1
70
0
0
VERTEX
8
CUT
10
40.5
20
54.5
0
VERTEX
8
CUT
10
52.0556
20
54.5
0
VERTEX
8
CUT
10
52.0556
20
42.9444
0
VERTEX
8
CUT
10
43.3889
20
42.9444
0
VERTEX
8
CUT
10
43.3889
20
51.6111
0
VERTEX
8
CUT
10
49.1667
20
51.6111
0
VERTEX
8
CUT
10
49.1667
20
45.8333
0
VERTEX
8
CUT
10
46.2778
20
45.8333
0
VERTEX
8
CUT
10
46.2778
20
48.7222
0
SEQEND
0
POLYLINE
8
CUT
66
1
70
0
0
VERTEX
8
CUT
10
53.5
20
41.5
0
VERTEX
8
CUT
10
41.9444
20
41.5
0
VERTEX
8
CUT
10
41.9444
20
53.0556
0
VERTEX
8
CUT
10
50.6111
20
53.0556
0
VERTEX
8
CUT
10
50.6111
20
44.3889
0
VERTEX
8
CUT
10
44.8333
20
44.3889
0
VERTEX
8
CUT
10
44.8333
20
50.1667
0
VERTEX
8
CUT
10
47.7222
20
50.1667
0
VERTEX
8
CUT
10
47.7222
20
47.2778
0
SEQEND
0
POLYLINE
8
CUT
66
1
70
0
0
VERTEX
8
CUT
10
66.5
20
54.5
0
VERTEX
8
CUT
10
66.5
20
42.9444
0
VERTEX
8
CUT
10
54.9444
20
42.9444
0
VERTEX
8
CUT
10
54.9444
20
51.6111
0
VERTEX
8
CUT
10
63.6111
20
51.6111
0
VERTEX
8
CUT
10
63.6111
20
45.8333
0
VERTEX
8
CUT
10
57.8333
20
45.8333
0
VERTEX
8
CUT
10
57.8333
20
48.7222
0
VERTEX
8
CUT
10
60.7222
20
48.7222
0
SEQEND
0
POLYLINE
8
CUT
66
1
70
0
0
VERTEX
8
CUT
10
53.5
20
41.5
0
VERTEX
8
CUT
10
53.5
20
53.0556
0
VERTEX
8
CUT
10
65.0556
20
53.0556
0
VERTEX
8
CUT
10
65.0556
20
44.3889
0
VERTEX
8
CUT
10
56.3889
20
44.3889
0
VERTEX
8
CUT
10
56.3889
20
50.1667
0
VERTEX
8
CUT
10
62.1667
20
50.1667
0
VERTEX
8
CUT
10
62.1667
20
47.2778
0
VERTEX
8
CUT
10
59.2778
20
47.2778
0
SEQEND
0
POLYLINE
8
CUT
66
1
70
0
0
VERTEX
8
CUT
10
66.5
20
54.5
0
VERTEX
8
CUT
10
78.0556
20
54.5
0
VERTEX
8
CUT
10
78.0556
20
42.9444
0
VERTEX
8
CUT
10
69.3889
20
42.9444
0
VERTEX
8
CUT
10
69.3889
20
51.6111
0
VERTEX
8
CUT
10
75.1667
20
51.6111
0
VERTEX
8
CUT
10
75.1667
20
45.8333
0
VERTEX
8
CUT
10
72.2778
20
45.8333
0
VERTEX
8
CUT
10
72.2778
20
48.7222
0
SEQEND
0
POLYLINE
8
CUT
66
1
70
0
0
VERTEX
8
CUT
10
79.5
20
41.5
0
VERTEX
8
CUT
10
67.9444
20
41.5
0
VERTEX
8
CUT
10
67.9444
20
53.0556
0
VERTEX
8
CUT
10
76.6111
20
53.0556
0
VERTEX
8
CUT
10
76.6111
20
44.3889
0
VERTEX
8
CUT
10
70.8333
20
44.3889
0
VERTEX
8
CUT
10
70.8333
20
50.1667
0
VERTEX
8
CUT
10
73.7222
20
50.1667
0
VERTEX
8
CUT
10
73.7222
20
47.2778
0
SEQEND
0
POLYLINE
8
CUT
66
1
70
0
0
VERTEX
8
CUT
10
92.5
20
54.5
0
VERTEX
8
CUT
10
92.5
20
42.9444
0
VERTEX
8
CUT
10
80.9444
20
42.9444
0
VERTEX
8
CUT
10
80.9444
20
51.6111
0
VERTEX
8
CUT
10
89.6111
20
51.6111
0
VERTEX
8
CUT
10
89.6111
20
45.8333
0
VERTEX
8
CUT
10
83.8333
20
45.8333
0
VERTEX
8
CUT
10
83.8333
20
48.7222
0
VERTEX
8
CUT
10
86.7222
20
48.7222
0
SEQEND
0
POLYLINE
8
CUT
66
1
70
0
0
VERTEX
8
CUT
10
79.5
20
41.5
0
VERTEX
8
CUT
10
79.5
20
53.0556
0
VERTEX
8
CUT
10
91.0556
20
53.0556
0
VERTEX
8
CUT
10
91.0556
20
44.3889
0
VERTEX
8
CUT
10
82.3889
20
44.3889
0
VERTEX
8
CUT
10
82.3889
20
50.1667
0
VERTEX
8
CUT
10
88.1667
20
50.1667
0
VERTEX
8
CUT
10
88.1667
20
47.2778
0
VERTEX
8
CUT
10
85.2778
20
47.2778
0
SEQEND
0
POLYLINE
8
CUT
66
1
70
0
0
VERTEX
8
CUT
10
92.5
20
54.5
0
VERTEX
8
CUT
10
104.0556
20
54.5
0
VERTEX
8
CUT
10
104.0556
20
42.9444
0
VERTEX
8
CUT
10
95.3889
20
42.9444
0
VERTEX
8
CUT
10
95.3889
20
51.6111
0
VERTEX
8
CUT
10
101.1667
20
51.6111
0
VERTEX
8
CUT
10
101.1667
20
45.8333
0
VERTEX
8
CUT
10
98.2778
20
45.8333
0
VERTEX
8
CUT
10
98.2778
20
48.7222
0
SEQEND
0
POLYLINE
8
CUT
66
1
70
0
0
VERTEX
8
CUT
10
105.5
20
41.5
0
VERTEX
8
CUT
10
93.9444
20
41.5
0
VERTEX
8
CUT
10
93.9444
20
53.0556
0
VERTEX
8
CUT
10
102.6111
20
53.0556
0
VERTEX
8
CUT
10
102.6111
20
44.3889
0
VERTEX
8
CUT
10
96.8333
20
44.3889
0
VERTEX
8
CUT
10
96.8333
20
50.1667
0
VERTEX
8
CUT
10
99.7222
20
50.1667
0
VERTEX
8
CUT
10
99.7222
20
47.2778
0
SEQEND
0
POLYLINE
8
CUT
66
1
70
0
0
VERTEX
8
CUT
10
118.5
20
54.5
0
VERTEX
8
CUT
10
118.5
20
42.9444
0
VERTEX
8
CUT
10
106.9444
20
42.9444
0
VERTEX
8
CUT
10
106.9444
20
51.6111
0
VERTEX
8
CUT
10
115.6111
20
51.6111
0
VERTEX
8
CUT
10
115.6111
20
45.8333
0
VERTEX
8
CUT
10
109.8333
20
45.8333
0
VERTEX
8
CUT
10
109.8333
20
48.7222
0
VERTEX
8
CUT
10
112.7222
20
48.7222
0
SEQEND
0
POLYLINE
8
CUT
66
1
70
0
0
VERTEX
8
CUT
10
105.5
20
41.5
0
VERTEX
8
CUT
10
105.5
20
53.0556
0
VERTEX
8
CUT
10
117.0556
20
53.0556
0
VERTEX
8
CUT
10
117.0556
20
44.3889
0
VERTEX
8
CUT
10
108.3889
20
44.3889
0
VERTEX
8
CUT
10
108.3889
20
50.1667
0
VERTEX
8
CUT
10
114.1667
20
50.1667
0
VERTEX
8
CUT
10
114.1667
20
47.2778
0
VERTEX
8
CUT
10
111.2778
20
47.2778
0
SEQEND
0
POLYLINE
8
CUT
66
1
70
0
0
VERTEX
8
CUT
10
1.5
20
41.5
0
VERTEX
8
CUT
10
13.0556
20
41.5
0
VERTEX
8
CUT
10
13.0556
20
29.9444
0
VERTEX
8
CUT
10
4.3889
20
29.9444
0
VERTEX
8
CUT
10
4.3889
20
38.6111
0
VERTEX
8
CUT
10
10.1667
20
38.6111
0
VERTEX
8
CUT
10
10.1667
20
32.8333
0
VERTEX
8
CUT
10
7.2778
20
32.8333
0
VERTEX
8
CUT
10
7.2778
20
35.7222
0
SEQEND
0
POLYLINE
8
CUT
66
1
70
0
0
VERTEX
8
CUT
10
14.5
20
28.5
0
VERTEX
8
CUT
10
2.9444
20
28.5
0
VERTEX
8
CUT
10
2.9444
20
40.0556
0
VERTEX
8
CUT
10
11.6111
20
40.0556
0
VERTEX
8
CUT
10
11.6111
20
31.3889
0
VERTEX
8
CUT
10
5.8333
20
31.3889
0
VERTEX
8
CUT
10
5.8333
20
37.1667
0
VERTEX
8
CUT
10
8.7222
20
37.1667
0
VERTEX
8
CUT
10
8.7222
20
34.2778
0
SEQEND
0
POLYLINE
8
CUT
66
1
70
0
0
VERTEX
8
CUT
10
27.5
20
41.5
0
VERTEX
8
CUT
10
27.5
20
29.9444
0
VERTEX
8
CUT
10
15.9444
20
29.9444
0
VERTEX
8
CUT
10
15.9444
20
38.6111
0
VERTEX
8
CUT
10
24.6111
20
38.6111
0
VERTEX
8
CUT
10
24.6111
20
32.8333
0
VERTEX
8
CUT
10
18.8333
20
32.8333
0
VERTEX
8
CUT
10
18.8333
20
35.7222
0
VERTEX
8
CUT
10
21.7222
20
35.7222
0
SEQEND
0
POLYLINE
8
CUT
66
1
70
0
0
VERTEX
8
CUT
10
14.5
20
28.5
0
VERTEX
8
CUT
10
14.5
20
40.0556
0
VERTEX
8
CUT
10
26.0556
20
40.0556
0
VERTEX
8
CUT
10
26.0556
20
31.3889
0
VERTEX
8
CUT
10
17.3889
20
31.3889
0
VERTEX
8
CUT
10
17.3889
20
37.1667
0
VERTEX
8
CUT
10
23.1667
20
37.1667
0
VERTEX
8
CUT
10
23.1667
20
34.2778
0
VERTEX
8
CUT
10
20.2778
20
34.2778
0
SEQEND
0
POLYLINE
8
CUT
66
1
70
0
0
VERTEX
8
CUT
10
27.5
20
41.5
0
VERTEX
8
CUT
10
39.0556
20
41.5
0
VERTEX
8
CUT
10
39.0556
20
29.9444
0
VERTEX
8
CUT
10
30.3889
20
29.9444
0
VERTEX
8
CUT
10
30.3889
20
38.6111
0
VERTEX
8
CUT
10
36.1667
20
38.6111
0
VERTEX
8
CUT
10
36.1667
20
32.8333
0
VERTEX
8
CUT
10
33.2778
20
32.8333
0
VERTEX
8
CUT
10
33.2778
20
35.7222
0
SEQEND
0
POLYLINE
8
CUT
66
1
70
0
0
VERTEX
8
CUT
10
40.5
20
28.5
0
VERTEX
8
CUT
10
28.9444
20
28.5
0
VERTEX
8
CUT
10
28.9444
20
40.0556
0
VERTEX
8
CUT
10
37.6111
20
40.0556
0
VERTEX
8
CUT
10
37.6111
20
31.3889
0
VERTEX
8
CUT
10
31.8333
20
31.3889
0
VERTEX
8
CUT
10
31.8333
20
37.1667
0
VERTEX
8
CUT
10
34.7222
20
37.1667
0
VERTEX
8
CUT
10
34.7222
20
34.2778
0
SEQEND
0
POLYLINE
8
CUT
66
1
70
0
0
VERTEX
8
CUT
10
53.5
20
41.5
0
VERTEX
8
CUT
10
53.5
20
29.9444
0
VERTEX
8
CUT
10
41.9444
20
29.9444
0
VERTEX
8
CUT
10
41.9444
20
38.6111
0
VERTEX
8
CUT
10
50.6111
20
38.6111
0
VERTEX
8
CUT
10
50.6111
20
32.8333
0
VERTEX
8
CUT
10
44.8333
20
32.8333
0
VERTEX
8
CUT
10
44.8333
20
35.7222
0
VERTEX
8
CUT
10
47.7222
20
35.7222
0
SEQEND
0
POLYLINE
8
CUT
66
1
70
0
0
VERTEX
8
CUT
10
40.5
20
28.5
0
VERTEX
8
CUT
10
40.5
20
40.0556
0
VERTEX
8
CUT
10
52.0556
20
40.0556
0
VERTEX
8
CUT
10
52.0556
20
31.3889
0
VERTEX
8
CUT
10
43.3889
20
31.3889
0
VERTEX
8
CUT
10
43.3889
20
37.1667
0
VERTEX
8
CUT
10
49.1667
20
37.1667
0
VERTEX
8
CUT
10
49.1667
20
34.2778
0
VERTEX
8
CUT
10
46.2778
20
34.2778
0
SEQEND
0
POLYLINE
8
CUT
66
1
70
0
0
VERTEX
8
CUT
10
53.5
20
41.5
0
VERTEX
8
CUT
10
65.0556
20
41.5
0
VERTEX
8
CUT
10
65.0556
20
29.9444
0
VERTEX
8
CUT
10
56.3889
20
29.9444
0
VERTEX
8
CUT
10
56.3889
20
38.6111
0
VERTEX
8
CUT
10
62.1667
20
38.6111
0
VERTEX
8
CUT
10
62.1667
20
32.8333
0
VERTEX
8
CUT
10
59.2778
20
32.8333
0
VERTEX
8
CUT
10
59.2778
20
35.7222
0
SEQEND
0
POLYLINE
8
CUT
66
1
70
0
0
VERTEX
8
CUT
10
66.5
20
28.5
0
VERTEX
8
CUT
10
54.9444
20
28.5
0
VERTEX
8
CUT
10
54.9444
20
40.0556
0
VERTEX
8
CUT
10
63.6111
20
40.0556
0
VERTEX
8
CUT
10
63.6111
20
31.3889
0
VERTEX
8
CUT
10
57.8333
20
31.3889
0
VERTEX
8
CUT
10
57.8333
20
37.1667
0
VERTEX
8
CUT
10
60.7222
20
37.1667
0
VERTEX
8
CUT
10
60.7222
20
34.2778
0
SEQEND
0
POLYLINE
8
CUT
66
1
70
0
0
VERTEX
8
CUT
10
79.5
20
41.5
0
VERTEX
8
CUT
10
79.5
20
29.9444
0
VERTEX
8
CUT
10
67.9444
20
29.9444
0
VERTEX
8
CUT
10
67.9444
20
38.6111
0
VERTEX
8
CUT
10
76.6111
20
38.6111
0
VERTEX
8
CUT
10
76.6111
20
32.8333
0
VERTEX
8
CUT
10
70.8333
20
32.8333
0
VERTEX
8
CUT
10
70.8333
20
35.7222
0
VERTEX
8
CUT
10
73.7222
20
35.7222
0
SEQEND
0
POLYLINE
8
CUT
66
1
70
0
0
VERTEX
8
CUT
10
66.5
20
28.5
0
VERTEX
8
CUT
10
66.5
20
40.0556
0
VERTEX
8
CUT
10
78.0556
20
40.0556
0
VERTEX
8
CUT
10
78.0556
20
31.3889
0
VERTEX
8
CUT
10
69.3889
20
31.3889
0
VERTEX
8
CUT
10
69.3889
20
37.1667
0
VERTEX
8
CUT
10
75.1667
20
37.1667
0
VERTEX
8
CUT
10
75.1667
20
34.2778
0
VERTEX
8
CUT
10
72.2778
20
34.2778
0
SEQEND
0
POLYLINE
8
CUT
66
1
70
0
0
VERTEX
8
CUT
10
79.5
20
41.5
0
VERTEX
8
CUT
10
91.0556
20
41.5
0
VERTEX
8
CUT
10
91.0556
20
29.9444
0
VERTEX
8
CUT
10
82.3889
20
29.9444
0
VERTEX
8
CUT
10
82.3889
20
38.6111
0
VERTEX
8
CUT
10
88.1667
20
38.6111
0
VERTEX
8
CUT
10
88.1667
20
32.8333
0
VERTEX
8
CUT
10
85.2778
20
32.8333
0
VERTEX
8
CUT
10
85.2778
20
35.7222
0
SEQEND
0
POLYLINE
8
CUT
66
1
70
0
0
VERTEX
8
CUT
10
92.5
20
28.5
0
VERTEX
8
CUT
10
80.9444
20
28.5
0
VERTEX
8
CUT
10
80.9444
20
40.0556
0
VERTEX
8
CUT
10
89.6111
20
40.0556
0
VERTEX
8
CUT
10
89.6111
20
31.3889
0
VERTEX
8
CUT
10
83.8333
20
31.3889
0
VERTEX
8
CUT
10
83.8333
20
37.1667
0
VERTEX
8
CUT
10
86.7222
20
37.1667
0
VERTEX
8
CUT
10
86.7222
20
34.2778
0
SEQEND
0
POLYLINE
8
CUT
66
1
70
0
0
VERTEX
8
CUT
10
105.5
20
41.5
0
VERTEX
8
CUT
10
105.5
20
29.9444
0
VERTEX
8
CUT
10
93.9444
20
29.9444
0
VERTEX
8
CUT
10
93.9444
20
38.6111
0
VERTEX
8
CUT
10
102.6111
20
38.6111
0
VERTEX
8
CUT
10
102.6111
20
32.8333
0
VERTEX
8
CUT
10
96.8333
20
32.8333
0
VERTEX
8
CUT
10
96.8333
20
35.7222
0
VERTEX
8
CUT
10
99.7222
20
35.7222
0
SEQEND
0
POLYLINE
8
CUT
66
1
70
0
0
VERTEX
8
CUT
10
92.5
20
28.5
0
VERTEX
8
CUT
10
92.5
20
40.0556
0
VERTEX
8
CUT
10
104.0556
20
40.0556
0
VERTEX
8
CUT
10
104.0556
20
31.3889
0
VERTEX
8
CUT
10
95.3889
20
31.3889
0
VERTEX
8
CUT
10
95.3889
20
37.1667
0
VERTEX
8
CUT
10
101.1667
20
37.1667
0
VERTEX
8
CUT
10
101.1667
20
34.2778
0
VERTEX
8
CUT
10
98.2778
20
34.2778
0
SEQEND
0
POLYLINE
8
CUT
66
1
70
0
0
VERTEX
8
CUT
10
105.5
20
41.5
0
VERTEX
8
CUT
10
117.0556
20
41.5
0
VERTEX
8
CUT
10
117.0556
20
29.9444
0
VERTEX
8
CUT
10
108.3889
20
29.9444
0
VERTEX
8
CUT
10
108.3889
20
38.6111
0
VERTEX
8
CUT
10
114.1667
20
38.6111
0
VERTEX
8
CUT
10
114.1667
20
32.8333
0
VERTEX
8
CUT
10
111.2778
20
32.8333
0
VERTEX
8
CUT
10
111.2778
20
35.7222
0
SEQEND
0
POLYLINE
8
CUT
66
1
70
0
0
VERTEX
8
CUT
10
118.5
20
28.5
0
VERTEX
8
CUT
10
106.9444
20
28.5
0
VERTEX
8
CUT
10
106.9444
20
40.0556
0
VERTEX
8
CUT
10
115.6111
20
40.0556
0
VERTEX
8
CUT
10
115.6111
20
31.3889
0
VERTEX
8
CUT
10
109.8333
20
31.3889
0
VERTEX
8
CUT
10
109.8333
20
37.1667
0
VERTEX
8
CUT
10
112.7222
20
37.1667
0
VERTEX
8
CUT
10
112.7222
20
34.2778
0
SEQEND
0
POLYLINE
8
CUT
66
1
70
0
0
VERTEX
8
CUT
10
14.5
20
28.5
0
VERTEX
8
CUT
10
14.5
20
16.9444
0
VERTEX
8
CUT
10
2.9444
20
16.9444
0
VERTEX
8
CUT
10
2.9444
20
25.6111
0
VERTEX
8
CUT
10
11.6111
20
25.6111
0
VERTEX
8
CUT
10
11.6111
20
19.8333
0
VERTEX
8
CUT
10
5.8333
20
19.8333
0
VERTEX
8
CUT
10
5.8333
20
22.7222
0
VERTEX
8
CUT
10
8.7222
20
22.7222
0
SEQEND
0
POLYLINE
8
CUT
66
1
70
0
0
VERTEX
8
CUT
10
1.5
20
15.5
0
VERTEX
8
CUT
10
1.5
20
27.0556
0
VERTEX
8
CUT
10
13.0556
20
27.0556
0
VERTEX
8
CUT
10
13.0556
20
18.3889
0
VERTEX
8
CUT
10
4.3889
20
18.3889
0
VERTEX
8
CUT
10
4.3889
20
24.1667
0
VERTEX
8
CUT
10
10.1667
20
24.1667
0
VERTEX
8
CUT
10
10.1667
20
21.2778
0
VERTEX
8
CUT
10
7.2778
20
21.2778
0
SEQEND
0
POLYLINE
8
CUT
66
1
70
0
0
VERTEX
8
CUT
10
14.5
20
28.5
0
VERTEX
8
CUT
10
26.0556
20
28.5
0
VERTEX
8
CUT
10
26.0556
20
16.9444
0
VERTEX
8
CUT
10
17.3889
20
16.9444
0
VERTEX
8
CUT
10
17.3889
20
25.6111
0
VERTEX
8
CUT
10
23.1667
20
25.6111
0
VERTEX
8
CUT
10
23.1667
20
19.8333
0
VERTEX
8
CUT
10
20.2778
20
19.8333
0
VERTEX
8
CUT
10
20.2778
20
22.7222
0
SEQEND
0
POLYLINE
8
CUT
66
1
70
0
0
VERTEX
8
CUT
10
27.5
20
15.5
0
VERTEX
8
CUT
10
15.9444
20
15.5
0
VERTEX
8
CUT
10
15.9444
20
27.0556
0
VERTEX
8
CUT
10
24.6111
20
27.0556
0
VERTEX
8
CUT
10
24.6111
20
18.3889
0
VERTEX
8
CUT
10
18.8333
20
18.3889
0
VERTEX
8
CUT
10
18.8333
20
24.1667
0
VERTEX
8
CUT
10
21.7222
20
24.1667
0
VERTEX
8
CUT
10
21.7222
20
21.2778
0
SEQEND
0
POLYLINE
8
CUT
66
1
70
0
0
VERTEX
8
CUT
10
40.5
20
28.5
0
VERTEX
8
CUT
10
40.5
20
16.9444
0
VERTEX
8
CUT
10
28.9444
20
16.9444
0
VERTEX
8
CUT
10
28.9444
20
25.6111
0
VERTEX
8
CUT
10
37.6111
20
25.6111
0
VERTEX
8
CUT
10
37.6111
20
19.8333
0
VERTEX
8
CUT
10
31.8333
20
19.8333
0
VERTEX
8
CUT
10
31.8333
20
22.7222
0
VERTEX
8
CUT
10
34.7222
20
22.7222
0
SEQEND
0
POLYLINE
8
CUT
66
1
70
0
0
VERTEX
8
CUT
10
27.5
20
15.5
0
VERTEX
8
CUT
10
27.5
20
27.0556
0
VERTEX
8
CUT
10
39.0556
20
27.0556
0
VERTEX
8
CUT
10
39.0556
20
18.3889
0
VERTEX
8
CUT
10
30.3889
20
18.3889
0
VERTEX
8
CUT
10
30.3889
20
24.1667
0
VERTEX
8
CUT
10
36.1667
20
24.1667
0
VERTEX
8
CUT
10
36.1667
20
21.2778
0
VERTEX
8
CUT
10
33.2778
20
21.2778
0
SEQEND
0
POLYLINE
8
CUT
66
1
70
0
0
VERTEX
8
CUT
10
40.5
20
28.5
0
VERTEX
8
CUT
10
52.0556
20
28.5
0
VERTEX
8
CUT
10
52.0556
20
16.9444
0
VERTEX
8
CUT
10
43.3889
20
16.9444
0
VERTEX
8
CUT
10
43.3889
20
25.6111
0
VERTEX
8
CUT
10
49.1667
20
25.6111
0
VERTEX
8
CUT
10
49.1667
20
19.8333
0
VERTEX
8
CUT
10
46.2778
20
19.8333
0
VERTEX
8
CUT
10
46.2778
20
22.7222
0
SEQEND
0
POLYLINE
8
CUT
66
1
70
0
0
VERTEX
8
CUT
10
53.5
20
15.5
0
VERTEX
8
CUT
10
41.9444
20
15.5
0
VERTEX
8
CUT
10
41.9444
20
27.0556
0
VERTEX
8
CUT
10
50.6111
20
27.0556
0
VERTEX
8
CUT
10
50.6111
20
18.3889
0
VERTEX
8
CUT
10
44.8333
20
18.3889
0
VERTEX
8
CUT
10
44.8333
20
24.1667
0
VERTEX
8
CUT
10
47.7222
20
24.1667
0
VERTEX
8
CUT
10
47.7222
20
21.2778
0
SEQEND
0
POLYLINE
8
CUT
66
1
70
0
0
VERTEX
8
CUT
10
66.5
20
28.5
0
VERTEX
8
CUT
10
66.5
20
16.9444
0
VERTEX
8
CUT
10
54.9444
20
16.9444
0
VERTEX
8
CUT
10
54.9444
20
25.6111
0
VERTEX
8
CUT
10
63.6111
20
25.6111
0
VERTEX
8
CUT
10
63.6111
20
19.8333
0
VERTEX
8
CUT
10
57.8333
20
19.8333
0
VERTEX
8
CUT
10
57.8333
20
22.7222
0
VERTEX
8
CUT
10
60.7222
20
22.7222
0
SEQEND
0
POLYLINE
8
CUT
66
1
70
0
0
VERTEX
8
CUT
10
53.5
20
15.5
0
VERTEX
8
CUT
10
53.5
20
27.0556
0
VERTEX
8
CUT
10
65.0556
20
27.0556
0
VERTEX
8
CUT
10
65.0556
20
18.3889
0
VERTEX
8
CUT
10
56.3889
20
18.3889
0
VERTEX
8
CUT
10
56.3889
20
24.1667
0
VERTEX
8
CUT
10
62.1667
20
24.1667
0
VERTEX
8
CUT
10
62.1667
20
21.2778
0
VERTEX
8
CUT
10
59.2778
20
21.2778
0
SEQEND
0
POLYLINE
8
CUT
66
1
70
0
0
VERTEX
8
CUT
10
66.5
20
28.5
0
VERTEX
8
CUT
10
78.0556
20
28.5
0
VERTEX
8
CUT
10
78.0556
20
16.9444
0
VERTEX
8
CUT
10
69.3889
20
16.9444
0
VERTEX
8
CUT
10
69.3889
20
25.6111
0
VERTEX
8
CUT
10
75.1667
20
25.6111
0
VERTEX
8
CUT
10
75.1667
20
19.8333
0
VERTEX
8
CUT
10
72.2778
20
19.8333
0
VERTEX
8
CUT
10
72.2778
20
22.7222
0
SEQEND
0
POLYLINE
8
CUT
66
1
70
0
0
VERTEX
8
CUT
10
79.5
20
15.5
0
VERTEX
8
CUT
10
67.9444
20
15.5
0
VERTEX
8
CUT
10
67.9444
20
27.0556
0
VERTEX
8
CUT
10
76.6111
20
27.0556
0
VERTEX
8
CUT
10
76.6111
20
18.3889
0
VERTEX
8
CUT
10
70.8333
20
18.3889
0
VERTEX
8
CUT
10
70.8333
20
24.1667
0
VERTEX
8
CUT
10
73.7222
20
24.1667
0
VERTEX
8
CUT
10
73.7222
20
21.2778
0
SEQEND
0
POLYLINE
8
CUT
66
1
70
0
0
VERTEX
8
CUT
10
92.5
20
28.5
0
VERTEX
8
CUT
10
92.5
20
16.9444
0
VERTEX
8
CUT
10
80.9444
20
16.9444
0
VERTEX
8
CUT
10
80.9444
20
25.6111
0
VERTEX
8
CUT
10
89.6111
20
25.6111
0
VERTEX
8
CUT
10
89.6111
20
19.8333
0
VERTEX
8
CUT
10
83.8333
20
19.8333
0
VERTEX
8
CUT
10
83.8333
20
22.7222
0
VERTEX
8
CUT
10
86.7222
20
22.7222
0
SEQEND
0
POLYLINE
8
CUT
66
1
70
0
0
VERTEX
8
CUT
10
79.5
20
15.5
0
VERTEX
8
CUT
10
79.5
20
27.0556
0
VERTEX
8
CUT
10
91.0556
20
27.0556
0
VERTEX
8
CUT
10
91.0556
20
18.3889
0
VERTEX
8
CUT
10
82.3889
20
18.3889
0
VERTEX
8
CUT
10
82.3889
20
24.1667
0
VERTEX
8
CUT
10
88.1667
20
24.1667
0
VERTEX
8
CUT
10
88.1667
20
21.2778
0
VERTEX
8
CUT
10
85.2778
20
21.2778
0
SEQEND
0
POLYLINE
8
CUT
66
1
70
0
0
VERTEX
8
CUT
10
92.5
20
28.5
0
VERTEX
8
CUT
10
104.0556
20
28.5
0
VERTEX
8
CUT
10
104.0556
20
16.9444
0
VERTEX
8
CUT
10
95.3889
20
16.9444
0
VERTEX
8
CUT
10
95.3889
20
25.6111
0
VERTEX
8
CUT
10
101.1667
20
25.6111
0
VERTEX
8
CUT
10
101.1667
20
19.8333
0
VERTEX
8
CUT
10
98.2778
20
19.8333
0
VERTEX
8
CUT
10
98.2778
20
22.7222
0
SEQEND
0
POLYLINE
8
CUT
66
1
70
0
0
VERTEX
8
CUT
10
105.5
20
15.5
0
VERTEX
8
CUT
10
93.9444
20
15.5
0
VERTEX
8
CUT
10
93.9444
20
27.0556
0
VERTEX
8
CUT
10
102.6111
20
27.0556
0
VERTEX
8
CUT
10
102.6111
20
18.3889
0
VERTEX
8
CUT
10
96.8333
20
18.3889
0
VERTEX
8
CUT
10
96.8333
20
24.1667
0
VERTEX
8
CUT
10
99.7222
20
24.1667
0
VERTEX
8
CUT
10
99.7222
20
21.2778
0
SEQEND
0
POLYLINE
8
CUT
66
1
70
0
0
VERTEX
8
CUT
10
118.5
20
28.5
0
VERTEX
8
CUT
10
118.5
20
16.9444
0
VERTEX
8
CUT
10
106.9444
20
16.9444
0
VERTEX
8
CUT
10
106.9444
20
25.6111
0
VERTEX
8
CUT
10
115.6111
20
25.6111
0
VERTEX
8
CUT
10
115.6111
20
19.8333
0
VERTEX
8
CUT
10
109.8333
20
19.8333
0
VERTEX
8
CUT
10
109.8333
20
22.7222
0
VERTEX
8
CUT
10
112.7222
20
22.7222
0
SEQEND
0
POLYLINE
8
CUT
66
1
70
0
0
VERTEX
8
CUT
10
105.5
20
15.5
0
VERTEX
8
CUT
10
105.5
20
27.0556
0
VERTEX
8
CUT
10
117.0556
20
27.0556
0
VERTEX
8
CUT
10
117.0556
20
18.3889
0
VERTEX
8
CUT
10
108.3889
20
18.3889
0
VERTEX
8
CUT
10
108.3889
20
24.1667
0
VERTEX
8
CUT
10
114.1667
20
24.1667
0
VERTEX
8
CUT
10
114.1667
20
21.2778
0
VERTEX
8
CUT
10
111.2778
20
21.2778
0
SEQEND
0
POLYLINE
8
CUT
66
1
70
0
0
VERTEX
8
CUT
10
1.5
20
15.5
0
VERTEX
8
CUT
10
13.0556
20
15.5
0
VERTEX
8
CUT
10
13.0556
20
3.9444
0
VERTEX
8
CUT
10
4.3889
20
3.9444
0
VERTEX
8
CUT
10
4.3889
20
12.6111
0
VERTEX
8
CUT
10
10.1667
20
12.6111
0
VERTEX
8
CUT
10
10.1667
20
6.8333
0
VERTEX
8
CUT
10
7.2778
20
6.8333
0
VERTEX
8
CUT
10
7.2778
20
9.7222
0
SEQEND
0
POLYLINE
8
CUT
66
1
70
0
0
VERTEX
8
CUT
10
14.5
20
2.5
0
VERTEX
8
CUT
10
2.9444
20
2.5
0
VERTEX
8
CUT
10
2.9444
20
14.0556
0
VERTEX
8
CUT
10
11.6111
20
14.0556
0
VERTEX
8
CUT
10
11.6111
20
5.3889
0
VERTEX
8
CUT
10
5.8333
20
5.3889
0
VERTEX
8
CUT
10
5.8333
20
11.1667
0
VERTEX
8
CUT
10
8.7222
20
11.1667
0
VERTEX
8
CUT
10
8.7222
20
8.2778
0
SEQEND
0
POLYLINE
8
CUT
66
1
70
0
0
VERTEX
8
CUT
10
27.5
20
15.5
0
VERTEX
8
CUT
10
27.5
20
3.9444
0
VERTEX
8
CUT
10
15.9444
20
3.9444
0
VERTEX
8
CUT
10
15.9444
20
12.6111
0
VERTEX
8
CUT
10
24.6111
20
12.6111
0
VERTEX
8
CUT
10
24.6111
20
6.8333
0
VERTEX
8
CUT
10
18.8333
20
6.8333
0
VERTEX
8
CUT
10
18.8333
20
9.7222
0
VERTEX
8
CUT
10
21.7222
20
9.7222
0
SEQEND
0
POLYLINE
8
CUT
66
1
70
0
0
VERTEX
8
CUT
10
14.5
20
2.5
0
VERTEX
8
CUT
10
14.5
20
14.0556
0
VERTEX
8
CUT
10
26.0556
20
14.0556
0
VERTEX
8
CUT
10
26.0556
20
5.3889
0
VERTEX
8
CUT
10
17.3889
20
5.3889
0
VERTEX
8
CUT
10
17.3889
20
11.1667
0
VERTEX
8
CUT
10
23.1667
20
11.1667
0
VERTEX
8
CUT
10
23.1667
20
8.2778
0
VERTEX
8
CUT
10
20.2778
20
8.2778
0
SEQEND
0
POLYLINE
8
CUT
66
1
70
0
0
VERTEX
8
CUT
10
27.5
20
15.5
0
VERTEX
8
CUT
10
39.0556
20
15.5
0
VERTEX
8
CUT
10
39.0556
20
3.9444
0
VERTEX
8
CUT
10
30.3889
20
3.9444
0
VERTEX
8
CUT
10
30.3889
20
12.6111
0
VERTEX
8
CUT
10
36.1667
20
12.6111
0
VERTEX
8
CUT
10
36.1667
20
6.8333
0
VERTEX
8
CUT
10
33.2778
20
6.8333
0
VERTEX
8
CUT
10
33.2778
20
9.7222
0
SEQEND
0
POLYLINE
8
CUT
66
1
70
0
0
VERTEX
8
CUT
10
40.5
20
2.5
0
VERTEX
8
CUT
10
28.9444
20
2.5
0
VERTEX
8
CUT
10
28.9444
20
14.0556
0
VERTEX
8
CUT
10
37.6111
20
14.0556
0
VERTEX
8
CUT
10
37.6111
20
5.3889
0
VERTEX
8
CUT
10
31.8333
20
5.3889
0
VERTEX
8
CUT
10
31.8333
20
11.1667
0
VERTEX
8
CUT
10
34.7222
20
11.1667
0
VERTEX
8
CUT
10
34.7222
20
8.2778
0
SEQEND
0
POLYLINE
8
CUT
66
1
70
0
0
VERTEX
8
CUT
10
53.5
20
15.5
0
VERTEX
8
CUT
10
53.5
20
3.9444
0
VERTEX
8
CUT
10
41.9444
20
3.9444
0
VERTEX
8
CUT
10
41.9444
20
12.6111
0
VERTEX
8
CUT
10
50.6111
20
12.6111
0
VERTEX
8
CUT
10
50.6111
20
6.8333
0
VERTEX
8
CUT
10
44.8333
20
6.8333
0
VERTEX
8
CUT
10
44.8333
20
9.7222
0
VERTEX
8
CUT
10
47.7222
20
9.7222
0
SEQEND
0
POLYLINE
8
CUT
66
1
70
0
0
VERTEX
8
CUT
10
40.5
20
2.5
0
VERTEX
8
CUT
10
40.5
20
14.0556
0
VERTEX
8
CUT
10
52.0556
20
14.0556
0
VERTEX
8
CUT
10
52.0556
20
5.3889
0
VERTEX
8
CUT
10
43.3889
20
5.3889
0
VERTEX
8
CUT
10
43.3889
20
11.1667
0
VERTEX
8
CUT
10
49.1667
20
11.1667
0
VERTEX
8
CUT
10
49.1667
20
8.2778
0
VERTEX
8
CUT
10
46.2778
20
8.2778
0
SEQEND
0
POLYLINE
8
CUT
66
1
70
0
0
VERTEX
8
CUT
10
53.5
20
15.5
0
VERTEX
8
CUT
10
65.0556
20
15.5
0
VERTEX
8
CUT
10
65.0556
20
3.9444
0
VERTEX
8
CUT
10
56.3889
20
3.9444
0
VERTEX
8
CUT
10
56.3889
20
12.6111
0
VERTEX
8
CUT
10
62.1667
20
12.6111
0
VERTEX
8
CUT
10
62.1667
20
6.8333
0
VERTEX
8
CUT
10
59.2778
20
6.8333
0
VERTEX
8
CUT
10
59.2778
20
9.7222
0
SEQEND
0
POLYLINE
8
CUT
66
1
70
0
0
VERTEX
8
CUT
10
66.5
20
2.5
0
VERTEX
8
CUT
10
54.9444
20
2.5
0
VERTEX
8
CUT
10
54.9444
20
14.0556
0
VERTEX
8
CUT
10
63.6111
20
14.0556
0
VERTEX
8
CUT
10
63.6111
20
5.3889
0
VERTEX
8
CUT
10
57.8333
20
5.3889
0
VERTEX
8
CUT
10
57.8333
20
11.1667
0
VERTEX
8
CUT
10
60.7222
20
11.1667
0
VERTEX
8
CUT
10
60.7222
20
8.2778
0
SEQEND
0
POLYLINE
8
CUT
66
1
70
0
0
VERTEX
8
CUT
10
79.5
20
15.5
0
VERTEX
8
CUT
10
79.5
20
3.9444
0
VERTEX
8
CUT
10
67.9444
20
3.9444
0
VERTEX
8
CUT
10
67.9444
20
12.6111
0
VERTEX
8
CUT
10
76.6111
20
12.6111
0
VERTEX
8
CUT
10
76.6111
20
6.8333
0
VERTEX
8
CUT
10
70.8333
20
6.8333
0
VERTEX
8
CUT
10
70.8333
20
9.7222
0
VERTEX
8
CUT
10
73.7222
20
9.7222
0
SEQEND
0
POLYLINE
8
CUT
66
1
70
0
0
VERTEX
8
CUT
10
66.5
20
2.5
0
VERTEX
8
CUT
10
66.5
20
14.0556
0
VERTEX
8
CUT
10
78.0556
20
14.0556
0
VERTEX
8
CUT
10
78.0556
20
5.3889
0
VERTEX
8
CUT
10
69.3889
20
5.3889
0
VERTEX
8
CUT
10
69.3889
20
11.1667
0
VERTEX
8
CUT
10
75.1667
20
11.1667
0
VERTEX
8
CUT
10
75.1667
20
8.2778
0
VERTEX
8
CUT
10
72.2778
20
8.2778
0
SEQEND
0
POLYLINE
8
CUT
66
1
70
0
0
VERTEX
8
CUT
10
79.5
20
15.5
0
VERTEX
8
CUT
10
91.0556
20
15.5
0
VERTEX
8
CUT
10
91.0556
20
3.9444
0
VERTEX
8
CUT
10
82.3889
20
3.9444
0
VERTEX
8
CUT
10
82.3889
20
12.6111
0
VERTEX
8
CUT
10
88.1667
20
12.6111
0
VERTEX
8
CUT
10
88.1667
20
6.8333
0
VERTEX
8
CUT
10
85.2778
20
6.8333
0
VERTEX
8
CUT
10
85.2778
20
9.7222
0
SEQEND
0
POLYLINE
8
CUT
66
1
70
0
0
VERTEX
8
CUT
10
92.5
20
2.5
0
VERTEX
8
CUT
10
80.9444
20
2.5
0
VERTEX
8
CUT
10
80.9444
20
14.0556
0
VERTEX
8
CUT
10
89.6111
20
14.0556
0
VERTEX
8
CUT
10
89.6111
20
5.3889
0
VERTEX
8
CUT
10
83.8333
20
5.3889
0
VERTEX
8
CUT
10
83.8333
20
11.1667
0
VERTEX
8
CUT
10
86.7222
20
11.1667
0
VERTEX
8
CUT
10
86.7222
20
8.2778
0
SEQEND
0
POLYLINE
8
CUT
66
1
70
0
0
VERTEX
8
CUT
10
105.5
20
15.5
0
VERTEX
8
CUT
10
105.5
20
3.9444
0
VERTEX
8
CUT
10
93.9444
20
3.9444
0
VERTEX
8
CUT
10
93.9444
20
12.6111
0
VERTEX
8
CUT
10
102.6111
20
12.6111
0
VERTEX
8
CUT
10
102.6111
20
6.8333
0
VERTEX
8
CUT
10
96.8333
20
6.8333
0
VERTEX
8
CUT
10
96.8333
20
9.7222
0
VERTEX
8
CUT
10
99.7222
20
9.7222
0
SEQEND
0
POLYLINE
8
CUT
66
1
70
0
0
VERTEX
8
CUT
10
92.5
20
2.5
0
VERTEX
8
CUT
10
92.5
20
14.0556
0
VERTEX
8
CUT
10
104.0556
20
14.0556
0
VERTEX
8
CUT
10
104.0556
20
5.3889
0
VERTEX
8
CUT
10
95.3889
20
5.3889
0
VERTEX
8
CUT
10
95.3889
20
11.1667
0
VERTEX
8
CUT
10
101.1667
20
11.1667
0
VERTEX
8
CUT
10
101.1667
20
8.2778
0
VERTEX
8
CUT
10
98.2778
20
8.2778
0
SEQEND
0
POLYLINE
8
CUT
66
1
70
0
0
VERTEX
8
CUT
10
105.5
20
15.5
0
VERTEX
8
CUT
10
117.0556
20
15.5
0
VERTEX
8
CUT
10
117.0556
20
3.9444
0
VERTEX
8
CUT
10
108.3889
20
3.9444
0
VERTEX
8
CUT
10
108.3889
20
12.6111
0
VERTEX
8
CUT
10
114.1667
20
12.6111
0
VERTEX
8
CUT
10
114.1667
20
6.8333
0
VERTEX
8
CUT
10
111.2778
20
6.8333
0
VERTEX
8
CUT
10
111.2778
20
9.7222
0
SEQEND
0
POLYLINE
8
CUT
66
1
70
0
0
VERTEX
8
CUT
10
118.5
20
2.5
0
VERTEX
8
CUT
10
106.9444
20
2.5
0
VERTEX
8
CUT
10
106.9444
20
14.0556
0
VERTEX
8
CUT
10
115.6111
20
14.0556
0
VERTEX
8
CUT
10
115.6111
20
5.3889
0
VERTEX
8
CUT
10
109.8333
20
5.3889
0
VERTEX
8
CUT
10
109.8333
20
11.1667
0
VERTEX
8
CUT
10
112.7222
20
11.1667
0
VERTEX
8
CUT
10
112.7222
20
8.2778
0
SEQEND
0
POLYLINE
8
CUT
66
1
70
0
0
VERTEX
8
CUT
10
0
20
70
0
VERTEX
8
CUT
10
120
20
70
0
VERTEX
8
CUT
10
120
20
0
0
VERTEX
8
CUT
10
0
20
0
0
VERTEX
8
CUT
10
0
20
70
0
SEQEND
0
ENDSEC
0
EOF
