0
SECTION
2
HEADER
9
$ACADVER
1
AC1009
9
$INSUNITS
70
4
0
ENDSEC
0
SECTION
2
TABLES
0
TABLE
2
LAYER
70
1
0
LAYER
2
CUT
70
0
62
1
6
CONTINUOUS
0
ENDTAB
0
ENDSEC
0
SECTION
2
ENTITIES
0
POLYLINE
8
CUT
66
1
70
0
0
VERTEX
8
CUT
10
0
20
55
0
VERTEX
8
CUT
10
35.5556
20
55
0
VERTEX
8
CUT
10
35.5556
20
19.4444
0
VERTEX
8
CUT
10
8.8889
20
19.4444
0
VERTEX
8
CUT
10
8.8889
20
46.1111
0
VERTEX
8
CUT
10
26.6667
20
46.1111
0
VERTEX
8
CUT
10
26.6667
20
28.3333
0
VERTEX
8
CUT
10
17.7778
20
28.3333
0
VERTEX
8
CUT
10
17.7778
20
37.2222
0
SEQEND
0
POLYLINE
8
CUT
66
1
70
0
0
VERTEX
8
CUT
10
40
20
15
0
VERTEX
8
CUT
10
4.4444
20
15
0
VERTEX
8
CUT
10
4.4444
20
50.5556
0
VERTEX
8
CUT
10
31.1111
20
50.5556
0
VERTEX
8
CUT
10
31.1111
20
23.8889
0
VERTEX
8
CUT
10
13.3333
20
23.8889
0
VERTEX
8
CUT
10
13.3333
20
41.6667
0
VERTEX
8
CUT
10
22.2222
20
41.6667
0
VERTEX
8
CUT
10
22.2222
20
32.7778
0
SEQEND
0
POLYLINE
8
CUT
66
1
70
0
0
VERTEX
8
CUT
10
80
20
55
0
VERTEX
8
CUT
10
80
20
19.4444
0
VERTEX
8
CUT
10
44.4444
20
19.4444
0
VERTEX
8
CUT
10
44.4444
20
46.1111
0
VERTEX
8
CUT
10
71.1111
20
46.1111
0
VERTEX
8
CUT
10
71.1111
20
28.3333
0
VERTEX
8
CUT
10
53.3333
20
28.3333
0
VERTEX
8
CUT
10
53.3333
20
37.2222
0
VERTEX
8
CUT
10
62.2222
20
37.2222
0
SEQEND
0
POLYLINE
8
CUT
66
1
70
0
0
VERTEX
8
CUT
10
40
20
15
0
VERTEX
8
CUT
10
40
20
50.5556
0
VERTEX
8
CUT
10
75.5556
20
50.5556
0
VERTEX
8
CUT
10
75.5556
20
23.8889
0
VERTEX
8
CUT
10
48.8889
20
23.8889
0
VERTEX
8
CUT
10
48.8889
20
41.6667
0
VERTEX
8
CUT
10
66.6667
20
41.6667
0
VERTEX
8
CUT
10
66.6667
20
32.7778
0
VERTEX
8
CUT
10
57.7778
20
32.7778
0
SEQEND
0
POLYLINE
8
CUT
66
1
70
0
0
VERTEX
8
CUT
10
80
20
55
0
VERTEX
8
CUT
10
115.5556
20
55
0
VERTEX
8
CUT
10
115.5556
20
19.4444
0
VERTEX
8
CUT
10
88.8889
20
19.4444
0
VERTEX
8
CUT
10
88.8889
20
46.1111
0
VERTEX
8
CUT
10
106.6667
20
46.1111
0
VERTEX
8
CUT
10
106.6667
20
28.3333
0
VERTEX
8
CUT
10
97.7778
20
28.3333
0
VERTEX
8
CUT
10
97.7778
20
37.2222
0
SEQEND
0
POLYLINE
8
CUT
66
1
70
0
0
VERTEX
8
CUT
10
120
20
15
0
VERTEX
8
CUT
10
84.4444
20
15
0
VERTEX
8
CUT
10
84.4444
20
50.5556
0
VERTEX
8
CUT
10
111.1111
20
50.5556
0
VERTEX
8
CUT
10
111.1111
20
23.8889
0
VERTEX
8
CUT
10
93.3333
20
23.8889
0
VERTEX
8
CUT
10
93.3333
20
41.6667
0
VERTEX
8
CUT
10
102.2222
20
41.6667
0
VERTEX
8
CUT
10
102.2222
20
32.7778
0
SEQEND
0
POLYLINE
8
CUT
66
1
70
0
0
VERTEX
8
CUT
10
0
20
70
0
VERTEX
8
CUT
10
120
20
70
0
VERTEX
8
CUT
10
120
20
0
0
VERTEX
8
CUT
10
0
20
0
0
VERTEX
8
CUT
10
0
20
70
0
SEQEND
0
ENDSEC
0
EOF
