<?xml version="1.0" encoding="UTF-8"?>
<svg xmlns="http://www.w3.org/2000/svg" width="120mm" height="70mm" viewBox="0 0 120 70">
<g fill="none" stroke="#FF0000" stroke-width="0.1">
<polyline points="0,15 35.5556,15 35.5556,50.5556 8.8889,50.5556 8.8889,23.8889 26.6667,23.8889 26.6667,41.6667 17.7778,41.6667 17.7778,32.7778"/>
<polyline points="40,55 4.4444,55 4.4444,19.4444 31.1111,19.4444 31.1111,46.1111 13.3333,46.1111 13.3333,28.3333 22.2222,28.3333 22.2222,37.2222"/>
<polyline points="80,15 80,50.5556 44.4444,50.5556 44.4444,23.8889 71.1111,23.8889 71.1111,41.6667 53.3333,41.6667 53.3333,32.7778 62.2222,32.7778"/>
<polyline points="40,55 40,19.4444 75.5556,19.4444 75.5556,46.1111 48.8889,46.1111 48.8889,28.3333 66.6667,28.3333 66.6667,37.2222 57.7778,37.2222"/>
<polyline points="80,15 115.5556,15 115.5556,50.5556 88.8889,50.5556 88.8889,23.8889 106.6667,23.8889 106.6667,41.6667 97.7778,41.6667 97.7778,32.7778"/>
<polyline points="120,55 84.4444,55 84.4444,19.4444 111.1111,19.4444 111.1111,46.1111 93.3333,46.1111 93.3333,28.3333 102.2222,28.3333 102.2222,37.2222"/>
<polyline points="0,0 120,0 120,70 0,70 0,0"/>
</g>
</svg>