0
SECTION
2
HEADER
9
$ACADVER
1
AC1009
9
$INSUNITS
70
4
0
ENDSEC
0
SECTION
2
TABLES
0
TABLE
2
LAYER
70
1
0
LAYER
2
CUT
70
0
62
1
6
CONTINUOUS
0
ENDTAB
0
ENDSEC
0
SECTION
2
ENTITIES
0
POLYLINE
8
CUT
66
1
70
0
0
VERTEX
8
CUT
10
6
20
68
0
VERTEX
8
CUT
10
7
20
58
0
VERTEX
8
CUT
10
6
20
48
0
VERTEX
8
CUT
10
5
20
58
0
VERTEX
8
CUT
10
6
20
68
0
SEQEND
0
POLYLINE
8
CUT
66
1
70
0
0
VERTEX
8
CUT
10
6
20
46
0
VERTEX
8
CUT
10
7
20
36
0
VERTEX
8
CUT
10
6
20
26
0
VERTEX
8
CUT
10
5
20
36
0
VERTEX
8
CUT
10
6
20
46
0
SEQEND
0
POLYLINE
8
CUT
66
1
70
0
0
VERTEX
8
CUT
10
6
20
24
0
VERTEX
8
CUT
10
7
20
14
0
VERTEX
8
CUT
10
6
20
4
0
VERTEX
8
CUT
10
5
20
14
0
VERTEX
8
CUT
10
6
20
24
0
SEQEND
0
POLYLINE
8
CUT
66
1
70
0
0
VERTEX
8
CUT
10
12.9
20
68
0
VERTEX
8
CUT
10
12
20
59
0
VERTEX
8
CUT
10
11.1
20
68
0
SEQEND
0
POLYLINE
8
CUT
66
1
70
0
0
VERTEX
8
CUT
10
12
20
57
0
VERTEX
8
CUT
10
13
20
47
0
VERTEX
8
CUT
10
12
20
37
0
VERTEX
8
CUT
10
11
20
47
0
VERTEX
8
CUT
10
12
20
57
0
SEQEND
0
POLYLINE
8
CUT
66
1
70
0
0
VERTEX
8
CUT
10
12
20
35
0
VERTEX
8
CUT
10
13
20
25
0
VERTEX
8
CUT
10
12
20
15
0
VERTEX
8
CUT
10
11
20
25
0
VERTEX
8
CUT
10
12
20
35
0
SEQEND
0
POLYLINE
8
CUT
66
1
70
0
0
VERTEX
8
CUT
10
12
20
13
0
VERTEX
8
CUT
10
13
20
3
0
VERTEX
8
CUT
10
12.9
20
2
0
SEQEND
0
POLYLINE
8
CUT
66
1
70
0
0
VERTEX
8
CUT
10
11.1
20
2
0
VERTEX
8
CUT
10
11
20
3
0
VERTEX
8
CUT
10
12
20
13
0
SEQEND
0
POLYLINE
8
CUT
66
1
70
0
0
VERTEX
8
CUT
10
18
20
68
0
VERTEX
8
CUT
10
19
20
58
0
VERTEX
8
CUT
10
18
20
48
0
VERTEX
8
CUT
10
17
20
58
0
VERTEX
8
CUT
10
18
20
68
0
SEQEND
0
POLYLINE
8
CUT
66
1
70
0
0
VERTEX
8
CUT
10
18
20
46
0
VERTEX
8
CUT
10
19
20
36
0
VERTEX
8
CUT
10
18
20
26
0
VERTEX
8
CUT
10
17
20
36
0
VERTEX
8
CUT
10
18
20
46
0
SEQEND
0
POLYLINE
8
CUT
66
1
70
0
0
VERTEX
8
CUT
10
18
20
24
0
VERTEX
8
CUT
10
19
20
14
0
VERTEX
8
CUT
10
18
20
4
0
VERTEX
8
CUT
10
17
20
14
0
VERTEX
8
CUT
10
18
20
24
0
SEQEND
0
POLYLINE
8
CUT
66
1
70
0
0
VERTEX
8
CUT
10
24.9
20
68
0
VERTEX
8
CUT
10
24
20
59
0
VERTEX
8
CUT
10
23.1
20
68
0
SEQEND
0
POLYLINE
8
CUT
66
1
70
0
0
VERTEX
8
CUT
10
24
20
57
0
VERTEX
8
CUT
10
25
20
47
0
VERTEX
8
CUT
10
24
20
37
0
VERTEX
8
CUT
10
23
20
47
0
VERTEX
8
CUT
10
24
20
57
0
SEQEND
0
POLYLINE
8
CUT
66
1
70
0
0
VERTEX
8
CUT
10
24
20
35
0
VERTEX
8
CUT
10
25
20
25
0
VERTEX
8
CUT
10
24
20
15
0
VERTEX
8
CUT
10
23
20
25
0
VERTEX
8
CUT
10
24
20
35
0
SEQEND
0
POLYLINE
8
CUT
66
1
70
0
0
VERTEX
8
CUT
10
24
20
13
0
VERTEX
8
CUT
10
25
20
3
0
VERTEX
8
CUT
10
24.9
20
2
0
SEQEND
0
POLYLINE
8
CUT
66
1
70
0
0
VERTEX
8
CUT
10
23.1
20
2
0
VERTEX
8
CUT
10
23
20
3
0
VERTEX
8
CUT
10
24
20
13
0
SEQEND
0
POLYLINE
8
CUT
66
1
70
0
0
VERTEX
8
CUT
10
30
20
68
0
VERTEX
8
CUT
10
31
20
58
0
VERTEX
8
CUT
10
30
20
48
0
VERTEX
8
CUT
10
29
20
58
0
VERTEX
8
CUT
10
30
20
68
0
SEQEND
0
POLYLINE
8
CUT
66
1
70
0
0
VERTEX
8
CUT
10
30
20
46
0
VERTEX
8
CUT
10
31
20
36
0
VERTEX
8
CUT
10
30
20
26
0
VERTEX
8
CUT
10
29
20
36
0
VERTEX
8
CUT
10
30
20
46
0
SEQEND
0
POLYLINE
8
CUT
66
1
70
0
0
VERTEX
8
CUT
10
30
20
24
0
VERTEX
8
CUT
10
31
20
14
0
VERTEX
8
CUT
10
30
20
4
0
VERTEX
8
CUT
10
29
20
14
0
VERTEX
8
CUT
10
30
20
24
0
SEQEND
0
POLYLINE
8
CUT
66
1
70
0
0
VERTEX
8
CUT
10
36.9
20
68
0
VERTEX
8
CUT
10
36
20
59
0
VERTEX
8
CUT
10
35.1
20
68
0
SEQEND
0
POLYLINE
8
CUT
66
1
70
0
0
VERTEX
8
CUT
10
36
20
57
0
VERTEX
8
CUT
10
37
20
47
0
VERTEX
8
CUT
10
36
20
37
0
VERTEX
8
CUT
10
35
20
47
0
VERTEX
8
CUT
10
36
20
57
0
SEQEND
0
POLYLINE
8
CUT
66
1
70
0
0
VERTEX
8
CUT
10
36
20
35
0
VERTEX
8
CUT
10
37
20
25
0
VERTEX
8
CUT
10
36
20
15
0
VERTEX
8
CUT
10
35
20
25
0
VERTEX
8
CUT
10
36
20
35
0
SEQEND
0
POLYLINE
8
CUT
66
1
70
0
0
VERTEX
8
CUT
10
36
20
13
0
VERTEX
8
CUT
10
37
20
3
0
VERTEX
8
CUT
10
36.9
20
2
0
SEQEND
0
POLYLINE
8
CUT
66
1
70
0
0
VERTEX
8
CUT
10
35.1
20
2
0
VERTEX
8
CUT
10
35
20
3
0
VERTEX
8
CUT
10
36
20
13
0
SEQEND
0
POLYLINE
8
CUT
66
1
70
0
0
VERTEX
8
CUT
10
42
20
68
0
VERTEX
8
CUT
10
43
20
58
0
VERTEX
8
CUT
10
42
20
48
0
VERTEX
8
CUT
10
41
20
58
0
VERTEX
8
CUT
10
42
20
68
0
SEQEND
0
POLYLINE
8
CUT
66
1
70
0
0
VERTEX
8
CUT
10
42
20
46
0
VERTEX
8
CUT
10
43
20
36
0
VERTEX
8
CUT
10
42
20
26
0
VERTEX
8
CUT
10
41
20
36
0
VERTEX
8
CUT
10
42
20
46
0
SEQEND
0
POLYLINE
8
CUT
66
1
70
0
0
VERTEX
8
CUT
10
42
20
24
0
VERTEX
8
CUT
10
43
20
14
0
VERTEX
8
CUT
10
42
20
4
0
VERTEX
8
CUT
10
41
20
14
0
VERTEX
8
CUT
10
42
20
24
0
SEQEND
0
POLYLINE
8
CUT
66
1
70
0
0
VERTEX
8
CUT
10
48.9
20
68
0
VERTEX
8
CUT
10
48
20
59
0
VERTEX
8
CUT
10
47.1
20
68
0
SEQEND
0
POLYLINE
8
CUT
66
1
70
0
0
VERTEX
8
CUT
10
48
20
57
0
VERTEX
8
CUT
10
49
20
47
0
VERTEX
8
CUT
10
48
20
37
0
VERTEX
8
CUT
10
47
20
47
0
VERTEX
8
CUT
10
48
20
57
0
SEQEND
0
POLYLINE
8
CUT
66
1
70
0
0
VERTEX
8
CUT
10
48
20
35
0
VERTEX
8
CUT
10
49
20
25
0
VERTEX
8
CUT
10
48
20
15
0
VERTEX
8
CUT
10
47
20
25
0
VERTEX
8
CUT
10
48
20
35
0
SEQEND
0
POLYLINE
8
CUT
66
1
70
0
0
VERTEX
8
CUT
10
48
20
13
0
VERTEX
8
CUT
10
49
20
3
0
VERTEX
8
CUT
10
48.9
20
2
0
SEQEND
0
POLYLINE
8
CUT
66
1
70
0
0
VERTEX
8
CUT
10
47.1
20
2
0
VERTEX
8
CUT
10
47
20
3
0
VERTEX
8
CUT
10
48
20
13
0
SEQEND
0
POLYLINE
8
CUT
66
1
70
0
0
VERTEX
8
CUT
10
54
20
68
0
VERTEX
8
CUT
10
55
20
58
0
VERTEX
8
CUT
10
54
20
48
0
VERTEX
8
CUT
10
53
20
58
0
VERTEX
8
CUT
10
54
20
68
0
SEQEND
0
POLYLINE
8
CUT
66
1
70
0
0
VERTEX
8
CUT
10
54
20
46
0
VERTEX
8
CUT
10
55
20
36
0
VERTEX
8
CUT
10
54
20
26
0
VERTEX
8
CUT
10
53
20
36
0
VERTEX
8
CUT
10
54
20
46
0
SEQEND
0
POLYLINE
8
CUT
66
1
70
0
0
VERTEX
8
CUT
10
54
20
24
0
VERTEX
8
CUT
10
55
20
14
0
VERTEX
8
CUT
10
54
20
4
0
VERTEX
8
CUT
10
53
20
14
0
VERTEX
8
CUT
10
54
20
24
0
SEQEND
0
POLYLINE
8
CUT
66
1
70
0
0
VERTEX
8
CUT
10
60.9
20
68
0
VERTEX
8
CUT
10
60
20
59
0
VERTEX
8
CUT
10
59.1
20
68
0
SEQEND
0
POLYLINE
8
CUT
66
1
70
0
0
VERTEX
8
CUT
10
60
20
57
0
VERTEX
8
CUT
10
61
20
47
0
VERTEX
8
CUT
10
60
20
37
0
VERTEX
8
CUT
10
59
20
47
0
VERTEX
8
CUT
10
60
20
57
0
SEQEND
0
POLYLINE
8
CUT
66
1
70
0
0
VERTEX
8
CUT
10
60
20
35
0
VERTEX
8
CUT
10
61
20
25
0
VERTEX
8
CUT
10
60
20
15
0
VERTEX
8
CUT
10
59
20
25
0
VERTEX
8
CUT
10
60
20
35
0
SEQEND
0
POLYLINE
8
CUT
66
1
70
0
0
VERTEX
8
CUT
10
60
20
13
0
VERTEX
8
CUT
10
61
20
3
0
VERTEX
8
CUT
10
60.9
20
2
0
SEQEND
0
POLYLINE
8
CUT
66
1
70
0
0
VERTEX
8
CUT
10
59.1
20
2
0
VERTEX
8
CUT
10
59
20
3
0
VERTEX
8
CUT
10
60
20
13
0
SEQEND
0
POLYLINE
8
CUT
66
1
70
0
0
VERTEX
8
CUT
10
66
20
68
0
VERTEX
8
CUT
10
67
20
58
0
VERTEX
8
CUT
10
66
20
48
0
VERTEX
8
CUT
10
65
20
58
0
VERTEX
8
CUT
10
66
20
68
0
SEQEND
0
POLYLINE
8
CUT
66
1
70
0
0
VERTEX
8
CUT
10
66
20
46
0
VERTEX
8
CUT
10
67
20
36
0
VERTEX
8
CUT
10
66
20
26
0
VERTEX
8
CUT
10
65
20
36
0
VERTEX
8
CUT
10
66
20
46
0
SEQEND
0
POLYLINE
8
CUT
66
1
70
0
0
VERTEX
8
CUT
10
66
20
24
0
VERTEX
8
CUT
10
67
20
14
0
VERTEX
8
CUT
10
66
20
4
0
VERTEX
8
CUT
10
65
20
14
0
VERTEX
8
CUT
10
66
20
24
0
SEQEND
0
POLYLINE
8
CUT
66
1
70
0
0
VERTEX
8
CUT
10
72.9
20
68
0
VERTEX
8
CUT
10
72
20
59
0
VERTEX
8
CUT
10
71.1
20
68
0
SEQEND
0
POLYLINE
8
CUT
66
1
70
0
0
VERTEX
8
CUT
10
72
20
57
0
VERTEX
8
CUT
10
73
20
47
0
VERTEX
8
CUT
10
72
20
37
0
VERTEX
8
CUT
10
71
20
47
0
VERTEX
8
CUT
10
72
20
57
0
SEQEND
0
POLYLINE
8
CUT
66
1
70
0
0
VERTEX
8
CUT
10
72
20
35
0
VERTEX
8
CUT
10
73
20
25
0
VERTEX
8
CUT
10
72
20
15
0
VERTEX
8
CUT
10
71
20
25
0
VERTEX
8
CUT
10
72
20
35
0
SEQEND
0
POLYLINE
8
CUT
66
1
70
0
0
VERTEX
8
CUT
10
72
20
13
0
VERTEX
8
CUT
10
73
20
3
0
VERTEX
8
CUT
10
72.9
20
2
0
SEQEND
0
POLYLINE
8
CUT
66
1
70
0
0
VERTEX
8
CUT
10
71.1
20
2
0
VERTEX
8
CUT
10
71
20
3
0
VERTEX
8
CUT
10
72
20
13
0
SEQEND
0
POLYLINE
8
CUT
66
1
70
0
0
VERTEX
8
CUT
10
78
20
68
0
VERTEX
8
CUT
10
79
20
58
0
VERTEX
8
CUT
10
78
20
48
0
VERTEX
8
CUT
10
77
20
58
0
VERTEX
8
CUT
10
78
20
68
0
SEQEND
0
POLYLINE
8
CUT
66
1
70
0
0
VERTEX
8
CUT
10
78
20
46
0
VERTEX
8
CUT
10
79
20
36
0
VERTEX
8
CUT
10
78
20
26
0
VERTEX
8
CUT
10
77
20
36
0
VERTEX
8
CUT
10
78
20
46
0
SEQEND
0
POLYLINE
8
CUT
66
1
70
0
0
VERTEX
8
CUT
10
78
20
24
0
VERTEX
8
CUT
10
79
20
14
0
VERTEX
8
CUT
10
78
20
4
0
VERTEX
8
CUT
10
77
20
14
0
VERTEX
8
CUT
10
78
20
24
0
SEQEND
0
POLYLINE
8
CUT
66
1
70
0
0
VERTEX
8
CUT
10
84.9
20
68
0
VERTEX
8
CUT
10
84
20
59
0
VERTEX
8
CUT
10
83.1
20
68
0
SEQEND
0
POLYLINE
8
CUT
66
1
70
0
0
VERTEX
8
CUT
10
84
20
57
0
VERTEX
8
CUT
10
85
20
47
0
VERTEX
8
CUT
10
84
20
37
0
VERTEX
8
CUT
10
83
20
47
0
VERTEX
8
CUT
10
84
20
57
0
SEQEND
0
POLYLINE
8
CUT
66
1
70
0
0
VERTEX
8
CUT
10
84
20
35
0
VERTEX
8
CUT
10
85
20
25
0
VERTEX
8
CUT
10
84
20
15
0
VERTEX
8
CUT
10
83
20
25
0
VERTEX
8
CUT
10
84
20
35
0
SEQEND
0
POLYLINE
8
CUT
66
1
70
0
0
VERTEX
8
CUT
10
84
20
13
0
VERTEX
8
CUT
10
85
20
3
0
VERTEX
8
CUT
10
84.9
20
2
0
SEQEND
0
POLYLINE
8
CUT
66
1
70
0
0
VERTEX
8
CUT
10
83.1
20
2
0
VERTEX
8
CUT
10
83
20
3
0
VERTEX
8
CUT
10
84
20
13
0
SEQEND
0
POLYLINE
8
CUT
66
1
70
0
0
VERTEX
8
CUT
10
90
20
68
0
VERTEX
8
CUT
10
91
20
58
0
VERTEX
8
CUT
10
90
20
48
0
VERTEX
8
CUT
10
89
20
58
0
VERTEX
8
CUT
10
90
20
68
0
SEQEND
0
POLYLINE
8
CUT
66
1
70
0
0
VERTEX
8
CUT
10
90
20
46
0
VERTEX
8
CUT
10
91
20
36
0
VERTEX
8
CUT
10
90
20
26
0
VERTEX
8
CUT
10
89
20
36
0
VERTEX
8
CUT
10
90
20
46
0
SEQEND
0
POLYLINE
8
CUT
66
1
70
0
0
VERTEX
8
CUT
10
90
20
24
0
VERTEX
8
CUT
10
91
20
14
0
VERTEX
8
CUT
10
90
20
4
0
VERTEX
8
CUT
10
89
20
14
0
VERTEX
8
CUT
10
90
20
24
0
SEQEND
0
POLYLINE
8
CUT
66
1
70
0
0
VERTEX
8
CUT
10
96.9
20
68
0
VERTEX
8
CUT
10
96
20
59
0
VERTEX
8
CUT
10
95.1
20
68
0
SEQEND
0
POLYLINE
8
CUT
66
1
70
0
0
VERTEX
8
CUT
10
96
20
57
0
VERTEX
8
CUT
10
97
20
47
0
VERTEX
8
CUT
10
96
20
37
0
VERTEX
8
CUT
10
95
20
47
0
VERTEX
8
CUT
10
96
20
57
0
SEQEND
0
POLYLINE
8
CUT
66
1
70
0
0
VERTEX
8
CUT
10
96
20
35
0
VERTEX
8
CUT
10
97
20
25
0
VERTEX
8
CUT
10
96
20
15
0
VERTEX
8
CUT
10
95
20
25
0
VERTEX
8
CUT
10
96
20
35
0
SEQEND
0
POLYLINE
8
CUT
66
1
70
0
0
VERTEX
8
CUT
10
96
20
13
0
VERTEX
8
CUT
10
97
20
3
0
VERTEX
8
CUT
10
96.9
20
2
0
SEQEND
0
POLYLINE
8
CUT
66
1
70
0
0
VERTEX
8
CUT
10
95.1
20
2
0
VERTEX
8
CUT
10
95
20
3
0
VERTEX
8
CUT
10
96
20
13
0
SEQEND
0
POLYLINE
8
CUT
66
1
70
0
0
VERTEX
8
CUT
10
102
20
68
0
VERTEX
8
CUT
10
103
20
58
0
VERTEX
8
CUT
10
102
20
48
0
VERTEX
8
CUT
10
101
20
58
0
VERTEX
8
CUT
10
102
20
68
0
SEQEND
0
POLYLINE
8
CUT
66
1
70
0
0
VERTEX
8
CUT
10
102
20
46
0
VERTEX
8
CUT
10
103
20
36
0
VERTEX
8
CUT
10
102
20
26
0
VERTEX
8
CUT
10
101
20
36
0
VERTEX
8
CUT
10
102
20
46
0
SEQEND
0
POLYLINE
8
CUT
66
1
70
0
0
VERTEX
8
CUT
10
102
20
24
0
VERTEX
8
CUT
10
103
20
14
0
VERTEX
8
CUT
10
102
20
4
0
VERTEX
8
CUT
10
101
20
14
0
VERTEX
8
CUT
10
102
20
24
0
SEQEND
0
POLYLINE
8
CUT
66
1
70
0
0
VERTEX
8
CUT
10
108.9
20
68
0
VERTEX
8
CUT
10
108
20
59
0
VERTEX
8
CUT
10
107.1
20
68
0
SEQEND
0
POLYLINE
8
CUT
66
1
70
0
0
VERTEX
8
CUT
10
108
20
57
0
VERTEX
8
CUT
10
109
20
47
0
VERTEX
8
CUT
10
108
20
37
0
VERTEX
8
CUT
10
107
20
47
0
VERTEX
8
CUT
10
108
20
57
0
SEQEND
0
POLYLINE
8
CUT
66
1
70
0
0
VERTEX
8
CUT
10
108
20
35
0
VERTEX
8
CUT
10
109
20
25
0
VERTEX
8
CUT
10
108
20
15
0
VERTEX
8
CUT
10
107
20
25
0
VERTEX
8
CUT
10
108
20
35
0
SEQEND
0
POLYLINE
8
CUT
66
1
70
0
0
VERTEX
8
CUT
10
108
20
13
0
VERTEX
8
CUT
10
109
20
3
0
VERTEX
8
CUT
10
108.9
20
2
0
SEQEND
0
POLYLINE
8
CUT
66
1
70
0
0
VERTEX
8
CUT
10
107.1
20
2
0
VERTEX
8
CUT
10
107
20
3
0
VERTEX
8
CUT
10
108
20
13
0
SEQEND
0
POLYLINE
8
CUT
66
1
70
0
0
VERTEX
8
CUT
10
114
20
68
0
VERTEX
8
CUT
10
115
20
58
0
VERTEX
8
CUT
10
114
20
48
0
VERTEX
8
CUT
10
113
20
58
0
VERTEX
8
CUT
10
114
20
68
0
SEQEND
0
POLYLINE
8
CUT
66
1
70
0
0
VERTEX
8
CUT
10
114
20
46
0
VERTEX
8
CUT
10
115
20
36
0
VERTEX
8
CUT
10
114
20
26
0
VERTEX
8
CUT
10
113
20
36
0
VERTEX
8
CUT
10
114
20
46
0
SEQEND
0
POLYLINE
8
CUT
66
1
70
0
0
VERTEX
8
CUT
10
114
20
24
0
VERTEX
8
CUT
10
115
20
14
0
VERTEX
8
CUT
10
114
20
4
0
VERTEX
8
CUT
10
113
20
14
0
VERTEX
8
CUT
10
114
20
24
0
SEQEND
0
POLYLINE
8
CUT
66
1
70
0
0
VERTEX
8
CUT
10
0
20
70
0
VERTEX
8
CUT
10
120
20
70
0
VERTEX
8
CUT
10
120
20
0
0
VERTEX
8
CUT
10
0
20
0
0
VERTEX
8
CUT
10
0
20
70
0
SEQEND
0
ENDSEC
0
EOF
