0
SECTION
2
HEADER
9
$ACADVER
1
AC1009
9
$INSUNITS
70
4
0
ENDSEC
0
SECTION
2
TABLES
0
TABLE
2
LAYER
70
1
0
LAYER
2
CUT
70
0
62
1
6
CONTINUOUS
0
ENDTAB
0
ENDSEC
0
SECTION
2
ENTITIES
0
LINE
8
CUT
10
3.1636
20
68
11
2
21
66.3877
0
POLYLINE
8
CUT
66
1
70
0
0
VERTEX
8
CUT
10
2
20
61.6123
0
VERTEX
8
CUT
10
3.282
20
59.8359
0
VERTEX
8
CUT
10
2
20
58.0595
0
SEQEND
0
POLYLINE
8
CUT
66
1
70
0
0
VERTEX
8
CUT
10
2
20
53.2841
0
VERTEX
8
CUT
10
3.282
20
51.5077
0
VERTEX
8
CUT
10
2
20
49.7313
0
SEQEND
0
POLYLINE
8
CUT
66
1
70
0
0
VERTEX
8
CUT
10
2
20
44.9559
0
VERTEX
8
CUT
10
3.282
20
43.1795
0
VERTEX
8
CUT
10
2
20
41.4031
0
SEQEND
0
POLYLINE
8
CUT
66
1
70
0
0
VERTEX
8
CUT
10
2
20
36.6277
0
VERTEX
8
CUT
10
3.282
20
34.8513
0
VERTEX
8
CUT
10
2
20
33.0749
0
SEQEND
0
POLYLINE
8
CUT
66
1
70
0
0
VERTEX
8
CUT
10
2
20
28.2995
0
VERTEX
8
CUT
10
3.282
20
26.5231
0
VERTEX
8
CUT
10
2
20
24.7467
0
SEQEND
0
POLYLINE
8
CUT
66
1
70
0
0
VERTEX
8
CUT
10
2
20
19.9713
0
VERTEX
8
CUT
10
3.282
20
18.1949
0
VERTEX
8
CUT
10
2
20
16.4185
0
SEQEND
0
POLYLINE
8
CUT
66
1
70
0
0
VERTEX
8
CUT
10
2
20
11.6431
0
VERTEX
8
CUT
10
3.282
20
9.8667
0
VERTEX
8
CUT
10
2
20
8.0903
0
SEQEND
0
LINE
8
CUT
10
2
20
3.3149
11
2.9489
21
2
0
POLYLINE
8
CUT
66
1
70
0
0
VERTEX
8
CUT
10
10.8
20
64
0
VERTEX
8
CUT
10
8.9
20
61.3673
0
VERTEX
8
CUT
10
5.1
20
61.3673
0
VERTEX
8
CUT
10
3.2
20
64
0
VERTEX
8
CUT
10
5.1
20
66.6327
0
VERTEX
8
CUT
10
8.9
20
66.6327
0
VERTEX
8
CUT
10
10.8
20
64
0
SEQEND
0
POLYLINE
8
CUT
66
1
70
0
0
VERTEX
8
CUT
10
6
20
60.5359
0
VERTEX
8
CUT
10
4.5
20
60.5359
0
VERTEX
8
CUT
10
2
20
64
0
VERTEX
8
CUT
10
4.5
20
67.4641
0
VERTEX
8
CUT
10
6
20
67.4641
0
SEQEND
0
POLYLINE
8
CUT
66
1
70
0
0
VERTEX
8
CUT
10
8
20
67.4641
0
VERTEX
8
CUT
10
9.5
20
67.4641
0
VERTEX
8
CUT
10
12
20
64
0
VERTEX
8
CUT
10
9.5
20
60.5359
0
VERTEX
8
CUT
10
8
20
60.5359
0
SEQEND
0
POLYLINE
8
CUT
66
1
70
0
0
VERTEX
8
CUT
10
10.8
20
55.6718
0
VERTEX
8
CUT
10
8.9
20
53.0391
0
VERTEX
8
CUT
10
5.1
20
53.0391
0
VERTEX
8
CUT
10
3.2
20
55.6718
0
VERTEX
8
CUT
10
5.1
20
58.3045
0
VERTEX
8
CUT
10
8.9
20
58.3045
0
VERTEX
8
CUT
10
10.8
20
55.6718
0
SEQEND
0
POLYLINE
8
CUT
66
1
70
0
0
VERTEX
8
CUT
10
6
20
52.2077
0
VERTEX
8
CUT
10
4.5
20
52.2077
0
VERTEX
8
CUT
10
2
20
55.6718
0
VERTEX
8
CUT
10
4.5
20
59.1359
0
VERTEX
8
CUT
10
6
20
59.1359
0
SEQEND
0
POLYLINE
8
CUT
66
1
70
0
0
VERTEX
8
CUT
10
8
20
59.1359
0
VERTEX
8
CUT
10
9.5
20
59.1359
0
VERTEX
8
CUT
10
12
20
55.6718
0
VERTEX
8
CUT
10
9.5
20
52.2077
0
VERTEX
8
CUT
10
8
20
52.2077
0
SEQEND
0
POLYLINE
8
CUT
66
1
70
0
0
VERTEX
8
CUT
10
10.8
20
47.3436
0
VERTEX
8
CUT
10
8.9
20
44.7109
0
VERTEX
8
CUT
10
5.1
20
44.7109
0
VERTEX
8
CUT
10
3.2
20
47.3436
0
VERTEX
8
CUT
10
5.1
20
49.9763
0
VERTEX
8
CUT
10
8.9
20
49.9763
0
VERTEX
8
CUT
10
10.8
20
47.3436
0
SEQEND
0
POLYLINE
8
CUT
66
1
70
0
0
VERTEX
8
CUT
10
6
20
43.8795
0
VERTEX
8
CUT
10
4.5
20
43.8795
0
VERTEX
8
CUT
10
2
20
47.3436
0
VERTEX
8
CUT
10
4.5
20
50.8077
0
VERTEX
8
CUT
10
6
20
50.8077
0
SEQEND
0
POLYLINE
8
CUT
66
1
70
0
0
VERTEX
8
CUT
10
8
20
50.8077
0
VERTEX
8
CUT
10
9.5
20
50.8077
0
VERTEX
8
CUT
10
12
20
47.3436
0
VERTEX
8
CUT
10
9.5
20
43.8795
0
VERTEX
8
CUT
10
8
20
43.8795
0
SEQEND
0
POLYLINE
8
CUT
66
1
70
0
0
VERTEX
8
CUT
10
10.8
20
39.0154
0
VERTEX
8
CUT
10
8.9
20
36.3827
0
VERTEX
8
CUT
10
5.1
20
36.3827
0
VERTEX
8
CUT
10
3.2
20
39.0154
0
VERTEX
8
CUT
10
5.1
20
41.6481
0
VERTEX
8
CUT
10
8.9
20
41.6481
0
VERTEX
8
CUT
10
10.8
20
39.0154
0
SEQEND
0
POLYLINE
8
CUT
66
1
70
0
0
VERTEX
8
CUT
10
6
20
35.5513
0
VERTEX
8
CUT
10
4.5
20
35.5513
0
VERTEX
8
CUT
10
2
20
39.0154
0
VERTEX
8
CUT
10
4.5
20
42.4795
0
VERTEX
8
CUT
10
6
20
42.4795
0
SEQEND
0
POLYLINE
8
CUT
66
1
70
0
0
VERTEX
8
CUT
10
8
20
42.4795
0
VERTEX
8
CUT
10
9.5
20
42.4795
0
VERTEX
8
CUT
10
12
20
39.0154
0
VERTEX
8
CUT
10
9.5
20
35.5513
0
VERTEX
8
CUT
10
8
20
35.5513
0
SEQEND
0
POLYLINE
8
CUT
66
1
70
0
0
VERTEX
8
CUT
10
10.8
20
30.6872
0
VERTEX
8
CUT
10
8.9
20
28.0545
0
VERTEX
8
CUT
10
5.1
20
28.0545
0
VERTEX
8
CUT
10
3.2
20
30.6872
0
VERTEX
8
CUT
10
5.1
20
33.3199
0
VERTEX
8
CUT
10
8.9
20
33.3199
0
VERTEX
8
CUT
10
10.8
20
30.6872
0
SEQEND
0
POLYLINE
8
CUT
66
1
70
0
0
VERTEX
8
CUT
10
6
20
27.2231
0
VERTEX
8
CUT
10
4.5
20
27.2231
0
VERTEX
8
CUT
10
2
20
30.6872
0
VERTEX
8
CUT
10
4.5
20
34.1513
0
VERTEX
8
CUT
10
6
20
34.1513
0
SEQEND
0
POLYLINE
8
CUT
66
1
70
0
0
VERTEX
8
CUT
10
8
20
34.1513
0
VERTEX
8
CUT
10
9.5
20
34.1513
0
VERTEX
8
CUT
10
12
20
30.6872
0
VERTEX
8
CUT
10
9.5
20
27.2231
0
VERTEX
8
CUT
10
8
20
27.2231
0
SEQEND
0
POLYLINE
8
CUT
66
1
70
0
0
VERTEX
8
CUT
10
10.8
20
22.359
0
VERTEX
8
CUT
10
8.9
20
19.7263
0
VERTEX
8
CUT
10
5.1
20
19.7263
0
VERTEX
8
CUT
10
3.2
20
22.359
0
VERTEX
8
CUT
10
5.1
20
24.9917
0
VERTEX
8
CUT
10
8.9
20
24.9917
0
VERTEX
8
CUT
10
10.8
20
22.359
0
SEQEND
0
POLYLINE
8
CUT
66
1
70
0
0
VERTEX
8
CUT
10
6
20
18.8949
0
VERTEX
8
CUT
10
4.5
20
18.8949
0
VERTEX
8
CUT
10
2
20
22.359
0
VERTEX
8
CUT
10
4.5
20
25.8231
0
VERTEX
8
CUT
10
6
20
25.8231
0
SEQEND
0
POLYLINE
8
CUT
66
1
70
0
0
VERTEX
8
CUT
10
8
20
25.8231
0
VERTEX
8
CUT
10
9.5
20
25.8231
0
VERTEX
8
CUT
10
12
20
22.359
0
VERTEX
8
CUT
10
9.5
20
18.8949
0
VERTEX
8
CUT
10
8
20
18.8949
0
SEQEND
0
POLYLINE
8
CUT
66
1
70
0
0
VERTEX
8
CUT
10
10.8
20
14.0308
0
VERTEX
8
CUT
10
8.9
20
11.3981
0
VERTEX
8
CUT
10
5.1
20
11.3981
0
VERTEX
8
CUT
10
3.2
20
14.0308
0
VERTEX
8
CUT
10
5.1
20
16.6635
0
VERTEX
8
CUT
10
8.9
20
16.6635
0
VERTEX
8
CUT
10
10.8
20
14.0308
0
SEQEND
0
POLYLINE
8
CUT
66
1
70
0
0
VERTEX
8
CUT
10
6
20
10.5667
0
VERTEX
8
CUT
10
4.5
20
10.5667
0
VERTEX
8
CUT
10
2
20
14.0308
0
VERTEX
8
CUT
10
4.5
20
17.4949
0
VERTEX
8
CUT
10
6
20
17.4949
0
SEQEND
0
POLYLINE
8
CUT
66
1
70
0
0
VERTEX
8
CUT
10
8
20
17.4949
0
VERTEX
8
CUT
10
9.5
20
17.4949
0
VERTEX
8
CUT
10
12
20
14.0308
0
VERTEX
8
CUT
10
9.5
20
10.5667
0
VERTEX
8
CUT
10
8
20
10.5667
0
SEQEND
0
POLYLINE
8
CUT
66
1
70
0
0
VERTEX
8
CUT
10
10.8
20
5.7026
0
VERTEX
8
CUT
10
8.9
20
3.0699
0
VERTEX
8
CUT
10
5.1
20
3.0699
0
VERTEX
8
CUT
10
3.2
20
5.7026
0
VERTEX
8
CUT
10
5.1
20
8.3353
0
VERTEX
8
CUT
10
8.9
20
8.3353
0
VERTEX
8
CUT
10
10.8
20
5.7026
0
SEQEND
0
POLYLINE
8
CUT
66
1
70
0
0
VERTEX
8
CUT
10
6
20
2.2385
0
VERTEX
8
CUT
10
4.5
20
2.2385
0
VERTEX
8
CUT
10
2
20
5.7026
0
VERTEX
8
CUT
10
4.5
20
9.1667
0
VERTEX
8
CUT
10
6
20
9.1667
0
SEQEND
0
POLYLINE
8
CUT
66
1
70
0
0
VERTEX
8
CUT
10
8
20
9.1667
0
VERTEX
8
CUT
10
9.5
20
9.1667
0
VERTEX
8
CUT
10
12
20
5.7026
0
VERTEX
8
CUT
10
9.5
20
2.2385
0
VERTEX
8
CUT
10
8
20
2.2385
0
SEQEND
0
POLYLINE
8
CUT
66
1
70
0
0
VERTEX
8
CUT
10
19.3996
20
68
0
VERTEX
8
CUT
10
17.618
20
65.5314
0
VERTEX
8
CUT
10
13.818
20
65.5314
0
VERTEX
8
CUT
10
12.0364
20
68
0
SEQEND
0
POLYLINE
8
CUT
66
1
70
0
0
VERTEX
8
CUT
10
14.718
20
64.7
0
VERTEX
8
CUT
10
13.218
20
64.7
0
VERTEX
8
CUT
10
10.8364
20
68
0
SEQEND
0
POLYLINE
8
CUT
66
1
70
0
0
VERTEX
8
CUT
10
20.5996
20
68
0
VERTEX
8
CUT
10
18.218
20
64.7
0
VERTEX
8
CUT
10
16.718
20
64.7
0
SEQEND
0
POLYLINE
8
CUT
66
1
70
0
0
VERTEX
8
CUT
10
19.518
20
59.8359
0
VERTEX
8
CUT
10
17.618
20
57.2032
0
VERTEX
8
CUT
10
13.818
20
57.2032
0
VERTEX
8
CUT
10
11.918
20
59.8359
0
VERTEX
8
CUT
10
13.818
20
62.4686
0
VERTEX
8
CUT
10
17.618
20
62.4686
0
VERTEX
8
CUT
10
19.518
20
59.8359
0
SEQEND
0
POLYLINE
8
CUT
66
1
70
0
0
VERTEX
8
CUT
10
14.718
20
56.3718
0
VERTEX
8
CUT
10
13.218
20
56.3718
0
VERTEX
8
CUT
10
10.718
20
59.8359
0
VERTEX
8
CUT
10
13.218
20
63.3
0
VERTEX
8
CUT
10
14.718
20
63.3
0
SEQEND
0
POLYLINE
8
CUT
66
1
70
0
0
VERTEX
8
CUT
10
16.718
20
63.3
0
VERTEX
8
CUT
10
18.218
20
63.3
0
VERTEX
8
CUT
10
20.718
20
59.8359
0
VERTEX
8
CUT
10
18.218
20
56.3718
0
VERTEX
8
CUT
10
16.718
20
56.3718
0
SEQEND
0
POLYLINE
8
CUT
66
1
70
0
0
VERTEX
8
CUT
10
19.518
20
51.5077
0
VERTEX
8
CUT
10
17.618
20
48.875
0
VERTEX
8
CUT
10
13.818
20
48.875
0
VERTEX
8
CUT
10
11.918
20
51.5077
0
VERTEX
8
CUT
10
13.818
20
54.1404
0
VERTEX
8
CUT
10
17.618
20
54.1404
0
VERTEX
8
CUT
10
19.518
20
51.5077
0
SEQEND
0
POLYLINE
8
CUT
66
1
70
0
0
VERTEX
8
CUT
10
14.718
20
48.0436
0
VERTEX
8
CUT
10
13.218
20
48.0436
0
VERTEX
8
CUT
10
10.718
20
51.5077
0
VERTEX
8
CUT
10
13.218
20
54.9718
0
VERTEX
8
CUT
10
14.718
20
54.9718
0
SEQEND
0
POLYLINE
8
CUT
66
1
70
0
0
VERTEX
8
CUT
10
16.718
20
54.9718
0
VERTEX
8
CUT
10
18.218
20
54.9718
0
VERTEX
8
CUT
10
20.718
20
51.5077
0
VERTEX
8
CUT
10
18.218
20
48.0436
0
VERTEX
8
CUT
10
16.718
20
48.0436
0
SEQEND
0
POLYLINE
8
CUT
66
1
70
0
0
VERTEX
8
CUT
10
19.518
20
43.1795
0
VERTEX
8
CUT
10
17.618
20
40.5468
0
VERTEX
8
CUT
10
13.818
20
40.5468
0
VERTEX
8
CUT
10
11.918
20
43.1795
0
VERTEX
8
CUT
10
13.818
20
45.8122
0
VERTEX
8
CUT
10
17.618
20
45.8122
0
VERTEX
8
CUT
10
19.518
20
43.1795
0
SEQEND
0
POLYLINE
8
CUT
66
1
70
0
0
VERTEX
8
CUT
10
14.718
20
39.7154
0
VERTEX
8
CUT
10
13.218
20
39.7154
0
VERTEX
8
CUT
10
10.718
20
43.1795
0
VERTEX
8
CUT
10
13.218
20
46.6436
0
VERTEX
8
CUT
10
14.718
20
46.6436
0
SEQEND
0
POLYLINE
8
CUT
66
1
70
0
0
VERTEX
8
CUT
10
16.718
20
46.6436
0
VERTEX
8
CUT
10
18.218
20
46.6436
0
VERTEX
8
CUT
10
20.718
20
43.1795
0
VERTEX
8
CUT
10
18.218
20
39.7154
0
VERTEX
8
CUT
10
16.718
20
39.7154
0
SEQEND
0
POLYLINE
8
CUT
66
1
70
0
0
VERTEX
8
CUT
10
19.518
20
34.8513
0
VERTEX
8
CUT
10
17.618
20
32.2186
0
VERTEX
8
CUT
10
13.818
20
32.2186
0
VERTEX
8
CUT
10
11.918
20
34.8513
0
VERTEX
8
CUT
10
13.818
20
37.484
0
VERTEX
8
CUT
10
17.618
20
37.484
0
VERTEX
8
CUT
10
19.518
20
34.8513
0
SEQEND
0
POLYLINE
8
CUT
66
1
70
0
0
VERTEX
8
CUT
10
14.718
20
31.3872
0
VERTEX
8
CUT
10
13.218
20
31.3872
0
VERTEX
8
CUT
10
10.718
20
34.8513
0
VERTEX
8
CUT
10
13.218
20
38.3154
0
VERTEX
8
CUT
10
14.718
20
38.3154
0
SEQEND
0
POLYLINE
8
CUT
66
1
70
0
0
VERTEX
8
CUT
10
16.718
20
38.3154
0
VERTEX
8
CUT
10
18.218
20
38.3154
0
VERTEX
8
CUT
10
20.718
20
34.8513
0
VERTEX
8
CUT
10
18.218
20
31.3872
0
VERTEX
8
CUT
10
16.718
20
31.3872
0
SEQEND
0
POLYLINE
8
CUT
66
1
70
0
0
VERTEX
8
CUT
10
19.518
20
26.5231
0
VERTEX
8
CUT
10
17.618
20
23.8904
0
VERTEX
8
CUT
10
13.818
20
23.8904
0
VERTEX
8
CUT
10
11.918
20
26.5231
0
VERTEX
8
CUT
10
13.818
20
29.1558
0
VERTEX
8
CUT
10
17.618
20
29.1558
0
VERTEX
8
CUT
10
19.518
20
26.5231
0
SEQEND
0
POLYLINE
8
CUT
66
1
70
0
0
VERTEX
8
CUT
10
14.718
20
23.059
0
VERTEX
8
CUT
10
13.218
20
23.059
0
VERTEX
8
CUT
10
10.718
20
26.5231
0
VERTEX
8
CUT
10
13.218
20
29.9872
0
VERTEX
8
CUT
10
14.718
20
29.9872
0
SEQEND
0
POLYLINE
8
CUT
66
1
70
0
0
VERTEX
8
CUT
10
16.718
20
29.9872
0
VERTEX
8
CUT
10
18.218
20
29.9872
0
VERTEX
8
CUT
10
20.718
20
26.5231
0
VERTEX
8
CUT
10
18.218
20
23.059
0
VERTEX
8
CUT
10
16.718
20
23.059
0
SEQEND
0
POLYLINE
8
CUT
66
1
70
0
0
VERTEX
8
CUT
10
19.518
20
18.1949
0
VERTEX
8
CUT
10
17.618
20
15.5622
0
VERTEX
8
CUT
10
13.818
20
15.5622
0
VERTEX
8
CUT
10
11.918
20
18.1949
0
VERTEX
8
CUT
10
13.818
20
20.8276
0
VERTEX
8
CUT
10
17.618
20
20.8276
0
VERTEX
8
CUT
10
19.518
20
18.1949
0
SEQEND
0
POLYLINE
8
CUT
66
1
70
0
0
VERTEX
8
CUT
10
14.718
20
14.7308
0
VERTEX
8
CUT
10
13.218
20
14.7308
0
VERTEX
8
CUT
10
10.718
20
18.1949
0
VERTEX
8
CUT
10
13.218
20
21.659
0
VERTEX
8
CUT
10
14.718
20
21.659
0
SEQEND
0
POLYLINE
8
CUT
66
1
70
0
0
VERTEX
8
CUT
10
16.718
20
21.659
0
VERTEX
8
CUT
10
18.218
20
21.659
0
VERTEX
8
CUT
10
20.718
20
18.1949
0
VERTEX
8
CUT
10
18.218
20
14.7308
0
VERTEX
8
CUT
10
16.718
20
14.7308
0
SEQEND
0
POLYLINE
8
CUT
66
1
70
0
0
VERTEX
8
CUT
10
19.518
20
9.8667
0
VERTEX
8
CUT
10
17.618
20
7.234
0
VERTEX
8
CUT
10
13.818
20
7.234
0
VERTEX
8
CUT
10
11.918
20
9.8667
0
VERTEX
8
CUT
10
13.818
20
12.4994
0
VERTEX
8
CUT
10
17.618
20
12.4994
0
VERTEX
8
CUT
10
19.518
20
9.8667
0
SEQEND
0
POLYLINE
8
CUT
66
1
70
0
0
VERTEX
8
CUT
10
14.718
20
6.4026
0
VERTEX
8
CUT
10
13.218
20
6.4026
0
VERTEX
8
CUT
10
10.718
20
9.8667
0
VERTEX
8
CUT
10
13.218
20
13.3308
0
VERTEX
8
CUT
10
14.718
20
13.3308
0
SEQEND
0
POLYLINE
8
CUT
66
1
70
0
0
VERTEX
8
CUT
10
16.718
20
13.3308
0
VERTEX
8
CUT
10
18.218
20
13.3308
0
VERTEX
8
CUT
10
20.718
20
9.8667
0
VERTEX
8
CUT
10
18.218
20
6.4026
0
VERTEX
8
CUT
10
16.718
20
6.4026
0
SEQEND
0
POLYLINE
8
CUT
66
1
70
0
0
VERTEX
8
CUT
10
12.2511
20
2
0
VERTEX
8
CUT
10
13.818
20
4.1712
0
VERTEX
8
CUT
10
17.618
20
4.1712
0
VERTEX
8
CUT
10
19.1849
20
2
0
SEQEND
0
POLYLINE
8
CUT
66
1
70
0
0
VERTEX
8
CUT
10
11.0511
20
2
0
VERTEX
8
CUT
10
13.218
20
5.0026
0
VERTEX
8
CUT
10
14.718
20
5.0026
0
SEQEND
0
POLYLINE
8
CUT
66
1
70
0
0
VERTEX
8
CUT
10
16.718
20
5.0026
0
VERTEX
8
CUT
10
18.218
20
5.0026
0
VERTEX
8
CUT
10
20.3849
20
2
0
SEQEND
0
POLYLINE
8
CUT
66
1
70
0
0
VERTEX
8
CUT
10
28.236
20
64
0
VERTEX
8
CUT
10
26.336
20
61.3673
0
VERTEX
8
CUT
10
22.536
20
61.3673
0
VERTEX
8
CUT
10
20.636
20
64
0
VERTEX
8
CUT
10
22.536
20
66.6327
0
VERTEX
8
CUT
10
26.336
20
66.6327
0
VERTEX
8
CUT
10
28.236
20
64
0
SEQEND
0
POLYLINE
8
CUT
66
1
70
0
0
VERTEX
8
CUT
10
23.436
20
60.5359
0
VERTEX
8
CUT
10
21.936
20
60.5359
0
VERTEX
8
CUT
10
19.436
20
64
0
VERTEX
8
CUT
10
21.936
20
67.4641
0
VERTEX
8
CUT
10
23.436
20
67.4641
0
SEQEND
0
POLYLINE
8
CUT
66
1
70
0
0
VERTEX
8
CUT
10
25.436
20
67.4641
0
VERTEX
8
CUT
10
26.936
20
67.4641
0
VERTEX
8
CUT
10
29.436
20
64
0
VERTEX
8
CUT
10
26.936
20
60.5359
0
VERTEX
8
CUT
10
25.436
20
60.5359
0
SEQEND
0
POLYLINE
8
CUT
66
1
70
0
0
VERTEX
8
CUT
10
28.236
20
55.6718
0
VERTEX
8
CUT
10
26.336
20
53.0391
0
VERTEX
8
CUT
10
22.536
20
53.0391
0
VERTEX
8
CUT
10
20.636
20
55.6718
0
VERTEX
8
CUT
10
22.536
20
58.3045
0
VERTEX
8
CUT
10
26.336
20
58.3045
0
VERTEX
8
CUT
10
28.236
20
55.6718
0
SEQEND
0
POLYLINE
8
CUT
66
1
70
0
0
VERTEX
8
CUT
10
23.436
20
52.2077
0
VERTEX
8
CUT
10
21.936
20
52.2077
0
VERTEX
8
CUT
10
19.436
20
55.6718
0
VERTEX
8
CUT
10
21.936
20
59.1359
0
VERTEX
8
CUT
10
23.436
20
59.1359
0
SEQEND
0
POLYLINE
8
CUT
66
1
70
0
0
VERTEX
8
CUT
10
25.436
20
59.1359
0
VERTEX
8
CUT
10
26.936
20
59.1359
0
VERTEX
8
CUT
10
29.436
20
55.6718
0
VERTEX
8
CUT
10
26.936
20
52.2077
0
VERTEX
8
CUT
10
25.436
20
52.2077
0
SEQEND
0
POLYLINE
8
CUT
66
1
70
0
0
VERTEX
8
CUT
10
28.236
20
47.3436
0
VERTEX
8
CUT
10
26.336
20
44.7109
0
VERTEX
8
CUT
10
22.536
20
44.7109
0
VERTEX
8
CUT
10
20.636
20
47.3436
0
VERTEX
8
CUT
10
22.536
20
49.9763
0
VERTEX
8
CUT
10
26.336
20
49.9763
0
VERTEX
8
CUT
10
28.236
20
47.3436
0
SEQEND
0
POLYLINE
8
CUT
66
1
70
0
0
VERTEX
8
CUT
10
23.436
20
43.8795
0
VERTEX
8
CUT
10
21.936
20
43.8795
0
VERTEX
8
CUT
10
19.436
20
47.3436
0
VERTEX
8
CUT
10
21.936
20
50.8077
0
VERTEX
8
CUT
10
23.436
20
50.8077
0
SEQEND
0
POLYLINE
8
CUT
66
1
70
0
0
VERTEX
8
CUT
10
25.436
20
50.8077
0
VERTEX
8
CUT
10
26.936
20
50.8077
0
VERTEX
8
CUT
10
29.436
20
47.3436
0
VERTEX
8
CUT
10
26.936
20
43.8795
0
VERTEX
8
CUT
10
25.436
20
43.8795
0
SEQEND
0
POLYLINE
8
CUT
66
1
70
0
0
VERTEX
8
CUT
10
28.236
20
39.0154
0
VERTEX
8
CUT
10
26.336
20
36.3827
0
VERTEX
8
CUT
10
22.536
20
36.3827
0
VERTEX
8
CUT
10
20.636
20
39.0154
0
VERTEX
8
CUT
10
22.536
20
41.6481
0
VERTEX
8
CUT
10
26.336
20
41.6481
0
VERTEX
8
CUT
10
28.236
20
39.0154
0
SEQEND
0
POLYLINE
8
CUT
66
1
70
0
0
VERTEX
8
CUT
10
23.436
20
35.5513
0
VERTEX
8
CUT
10
21.936
20
35.5513
0
VERTEX
8
CUT
10
19.436
20
39.0154
0
VERTEX
8
CUT
10
21.936
20
42.4795
0
VERTEX
8
CUT
10
23.436
20
42.4795
0
SEQEND
0
POLYLINE
8
CUT
66
1
70
0
0
VERTEX
8
CUT
10
25.436
20
42.4795
0
VERTEX
8
CUT
10
26.936
20
42.4795
0
VERTEX
8
CUT
10
29.436
20
39.0154
0
VERTEX
8
CUT
10
26.936
20
35.5513
0
VERTEX
8
CUT
10
25.436
20
35.5513
0
SEQEND
0
POLYLINE
8
CUT
66
1
70
0
0
VERTEX
8
CUT
10
28.236
20
30.6872
0
VERTEX
8
CUT
10
26.336
20
28.0545
0
VERTEX
8
CUT
10
22.536
20
28.0545
0
VERTEX
8
CUT
10
20.636
20
30.6872
0
VERTEX
8
CUT
10
22.536
20
33.3199
0
VERTEX
8
CUT
10
26.336
20
33.3199
0
VERTEX
8
CUT
10
28.236
20
30.6872
0
SEQEND
0
POLYLINE
8
CUT
66
1
70
0
0
VERTEX
8
CUT
10
23.436
20
27.2231
0
VERTEX
8
CUT
10
21.936
20
27.2231
0
VERTEX
8
CUT
10
19.436
20
30.6872
0
VERTEX
8
CUT
10
21.936
20
34.1513
0
VERTEX
8
CUT
10
23.436
20
34.1513
0
SEQEND
0
POLYLINE
8
CUT
66
1
70
0
0
VERTEX
8
CUT
10
25.436
20
34.1513
0
VERTEX
8
CUT
10
26.936
20
34.1513
0
VERTEX
8
CUT
10
29.436
20
30.6872
0
VERTEX
8
CUT
10
26.936
20
27.2231
0
VERTEX
8
CUT
10
25.436
20
27.2231
0
SEQEND
0
POLYLINE
8
CUT
66
1
70
0
0
VERTEX
8
CUT
10
28.236
20
22.359
0
VERTEX
8
CUT
10
26.336
20
19.7263
0
VERTEX
8
CUT
10
22.536
20
19.7263
0
VERTEX
8
CUT
10
20.636
20
22.359
0
VERTEX
8
CUT
10
22.536
20
24.9917
0
VERTEX
8
CUT
10
26.336
20
24.9917
0
VERTEX
8
CUT
10
28.236
20
22.359
0
SEQEND
0
POLYLINE
8
CUT
66
1
70
0
0
VERTEX
8
CUT
10
23.436
20
18.8949
0
VERTEX
8
CUT
10
21.936
20
18.8949
0
VERTEX
8
CUT
10
19.436
20
22.359
0
VERTEX
8
CUT
10
21.936
20
25.8231
0
VERTEX
8
CUT
10
23.436
20
25.8231
0
SEQEND
0
POLYLINE
8
CUT
66
1
70
0
0
VERTEX
8
CUT
10
25.436
20
25.8231
0
VERTEX
8
CUT
10
26.936
20
25.8231
0
VERTEX
8
CUT
10
29.436
20
22.359
0
VERTEX
8
CUT
10
26.936
20
18.8949
0
VERTEX
8
CUT
10
25.436
20
18.8949
0
SEQEND
0
POLYLINE
8
CUT
66
1
70
0
0
VERTEX
8
CUT
10
28.236
20
14.0308
0
VERTEX
8
CUT
10
26.336
20
11.3981
0
VERTEX
8
CUT
10
22.536
20
11.3981
0
VERTEX
8
CUT
10
20.636
20
14.0308
0
VERTEX
8
CUT
10
22.536
20
16.6635
0
VERTEX
8
CUT
10
26.336
20
16.6635
0
VERTEX
8
CUT
10
28.236
20
14.0308
0
SEQEND
0
POLYLINE
8
CUT
66
1
70
0
0
VERTEX
8
CUT
10
23.436
20
10.5667
0
VERTEX
8
CUT
10
21.936
20
10.5667
0
VERTEX
8
CUT
10
19.436
20
14.0308
0
VERTEX
8
CUT
10
21.936
20
17.4949
0
VERTEX
8
CUT
10
23.436
20
17.4949
0
SEQEND
0
POLYLINE
8
CUT
66
1
70
0
0
VERTEX
8
CUT
10
25.436
20
17.4949
0
VERTEX
8
CUT
10
26.936
20
17.4949
0
VERTEX
8
CUT
10
29.436
20
14.0308
0
VERTEX
8
CUT
10
26.936
20
10.5667
0
VERTEX
8
CUT
10
25.436
20
10.5667
0
SEQEND
0
POLYLINE
8
CUT
66
1
70
0
0
VERTEX
8
CUT
10
28.236
20
5.7026
0
VERTEX
8
CUT
10
26.336
20
3.0699
0
VERTEX
8
CUT
10
22.536
20
3.0699
0
VERTEX
8
CUT
10
20.636
20
5.7026
0
VERTEX
8
CUT
10
22.536
20
8.3353
0
VERTEX
8
CUT
10
26.336
20
8.3353
0
VERTEX
8
CUT
10
28.236
20
5.7026
0
SEQEND
0
POLYLINE
8
CUT
66
1
70
0
0
VERTEX
8
CUT
10
23.436
20
2.2385
0
VERTEX
8
CUT
10
21.936
20
2.2385
0
VERTEX
8
CUT
10
19.436
20
5.7026
0
VERTEX
8
CUT
10
21.936
20
9.1667
0
VERTEX
8
CUT
10
23.436
20
9.1667
0
SEQEND
0
POLYLINE
8
CUT
66
1
70
0
0
VERTEX
8
CUT
10
25.436
20
9.1667
0
VERTEX
8
CUT
10
26.936
20
9.1667
0
VERTEX
8
CUT
10
29.436
20
5.7026
0
VERTEX
8
CUT
10
26.936
20
2.2385
0
VERTEX
8
CUT
10
25.436
20
2.2385
0
SEQEND
0
POLYLINE
8
CUT
66
1
70
0
0
VERTEX
8
CUT
10
36.8356
20
68
0
VERTEX
8
CUT
10
35.054
20
65.5314
0
VERTEX
8
CUT
10
31.254
20
65.5314
0
VERTEX
8
CUT
10
29.4724
20
68
0
SEQEND
0
POLYLINE
8
CUT
66
1
70
0
0
VERTEX
8
CUT
10
32.154
20
64.7
0
VERTEX
8
CUT
10
30.654
20
64.7
0
VERTEX
8
CUT
10
28.2724
20
68
0
SEQEND
0
POLYLINE
8
CUT
66
1
70
0
0
VERTEX
8
CUT
10
38.0356
20
68
0
VERTEX
8
CUT
10
35.654
20
64.7
0
VERTEX
8
CUT
10
34.154
20
64.7
0
SEQEND
0
POLYLINE
8
CUT
66
1
70
0
0
VERTEX
8
CUT
10
36.954
20
59.8359
0
VERTEX
8
CUT
10
35.054
20
57.2032
0
VERTEX
8
CUT
10
31.254
20
57.2032
0
VERTEX
8
CUT
10
29.354
20
59.8359
0
VERTEX
8
CUT
10
31.254
20
62.4686
0
VERTEX
8
CUT
10
35.054
20
62.4686
0
VERTEX
8
CUT
10
36.954
20
59.8359
0
SEQEND
0
POLYLINE
8
CUT
66
1
70
0
0
VERTEX
8
CUT
10
32.154
20
56.3718
0
VERTEX
8
CUT
10
30.654
20
56.3718
0
VERTEX
8
CUT
10
28.154
20
59.8359
0
VERTEX
8
CUT
10
30.654
20
63.3
0
VERTEX
8
CUT
10
32.154
20
63.3
0
SEQEND
0
POLYLINE
8
CUT
66
1
70
0
0
VERTEX
8
CUT
10
34.154
20
63.3
0
VERTEX
8
CUT
10
35.654
20
63.3
0
VERTEX
8
CUT
10
38.154
20
59.8359
0
VERTEX
8
CUT
10
35.654
20
56.3718
0
VERTEX
8
CUT
10
34.154
20
56.3718
0
SEQEND
0
POLYLINE
8
CUT
66
1
70
0
0
VERTEX
8
CUT
10
36.954
20
51.5077
0
VERTEX
8
CUT
10
35.054
20
48.875
0
VERTEX
8
CUT
10
31.254
20
48.875
0
VERTEX
8
CUT
10
29.354
20
51.5077
0
VERTEX
8
CUT
10
31.254
20
54.1404
0
VERTEX
8
CUT
10
35.054
20
54.1404
0
VERTEX
8
CUT
10
36.954
20
51.5077
0
SEQEND
0
POLYLINE
8
CUT
66
1
70
0
0
VERTEX
8
CUT
10
32.154
20
48.0436
0
VERTEX
8
CUT
10
30.654
20
48.0436
0
VERTEX
8
CUT
10
28.154
20
51.5077
0
VERTEX
8
CUT
10
30.654
20
54.9718
0
VERTEX
8
CUT
10
32.154
20
54.9718
0
SEQEND
0
POLYLINE
8
CUT
66
1
70
0
0
VERTEX
8
CUT
10
34.154
20
54.9718
0
VERTEX
8
CUT
10
35.654
20
54.9718
0
VERTEX
8
CUT
10
38.154
20
51.5077
0
VERTEX
8
CUT
10
35.654
20
48.0436
0
VERTEX
8
CUT
10
34.154
20
48.0436
0
SEQEND
0
POLYLINE
8
CUT
66
1
70
0
0
VERTEX
8
CUT
10
36.954
20
43.1795
0
VERTEX
8
CUT
10
35.054
20
40.5468
0
VERTEX
8
CUT
10
31.254
20
40.5468
0
VERTEX
8
CUT
10
29.354
20
43.1795
0
VERTEX
8
CUT
10
31.254
20
45.8122
0
VERTEX
8
CUT
10
35.054
20
45.8122
0
VERTEX
8
CUT
10
36.954
20
43.1795
0
SEQEND
0
POLYLINE
8
CUT
66
1
70
0
0
VERTEX
8
CUT
10
32.154
20
39.7154
0
VERTEX
8
CUT
10
30.654
20
39.7154
0
VERTEX
8
CUT
10
28.154
20
43.1795
0
VERTEX
8
CUT
10
30.654
20
46.6436
0
VERTEX
8
CUT
10
32.154
20
46.6436
0
SEQEND
0
POLYLINE
8
CUT
66
1
70
0
0
VERTEX
8
CUT
10
34.154
20
46.6436
0
VERTEX
8
CUT
10
35.654
20
46.6436
0
VERTEX
8
CUT
10
38.154
20
43.1795
0
VERTEX
8
CUT
10
35.654
20
39.7154
0
VERTEX
8
CUT
10
34.154
20
39.7154
0
SEQEND
0
POLYLINE
8
CUT
66
1
70
0
0
VERTEX
8
CUT
10
36.954
20
34.8513
0
VERTEX
8
CUT
10
35.054
20
32.2186
0
VERTEX
8
CUT
10
31.254
20
32.2186
0
VERTEX
8
CUT
10
29.354
20
34.8513
0
VERTEX
8
CUT
10
31.254
20
37.484
0
VERTEX
8
CUT
10
35.054
20
37.484
0
VERTEX
8
CUT
10
36.954
20
34.8513
0
SEQEND
0
POLYLINE
8
CUT
66
1
70
0
0
VERTEX
8
CUT
10
32.154
20
31.3872
0
VERTEX
8
CUT
10
30.654
20
31.3872
0
VERTEX
8
CUT
10
28.154
20
34.8513
0
VERTEX
8
CUT
10
30.654
20
38.3154
0
VERTEX
8
CUT
10
32.154
20
38.3154
0
SEQEND
0
POLYLINE
8
CUT
66
1
70
0
0
VERTEX
8
CUT
10
34.154
20
38.3154
0
VERTEX
8
CUT
10
35.654
20
38.3154
0
VERTEX
8
CUT
10
38.154
20
34.8513
0
VERTEX
8
CUT
10
35.654
20
31.3872
0
VERTEX
8
CUT
10
34.154
20
31.3872
0
SEQEND
0
POLYLINE
8
CUT
66
1
70
0
0
VERTEX
8
CUT
10
36.954
20
26.5231
0
VERTEX
8
CUT
10
35.054
20
23.8904
0
VERTEX
8
CUT
10
31.254
20
23.8904
0
VERTEX
8
CUT
10
29.354
20
26.5231
0
VERTEX
8
CUT
10
31.254
20
29.1558
0
VERTEX
8
CUT
10
35.054
20
29.1558
0
VERTEX
8
CUT
10
36.954
20
26.5231
0
SEQEND
0
POLYLINE
8
CUT
66
1
70
0
0
VERTEX
8
CUT
10
32.154
20
23.059
0
VERTEX
8
CUT
10
30.654
20
23.059
0
VERTEX
8
CUT
10
28.154
20
26.5231
0
VERTEX
8
CUT
10
30.654
20
29.9872
0
VERTEX
8
CUT
10
32.154
20
29.9872
0
SEQEND
0
POLYLINE
8
CUT
66
1
70
0
0
VERTEX
8
CUT
10
34.154
20
29.9872
0
VERTEX
8
CUT
10
35.654
20
29.9872
0
VERTEX
8
CUT
10
38.154
20
26.5231
0
VERTEX
8
CUT
10
35.654
20
23.059
0
VERTEX
8
CUT
10
34.154
20
23.059
0
SEQEND
0
POLYLINE
8
CUT
66
1
70
0
0
VERTEX
8
CUT
10
36.954
20
18.1949
0
VERTEX
8
CUT
10
35.054
20
15.5622
0
VERTEX
8
CUT
10
31.254
20
15.5622
0
VERTEX
8
CUT
10
29.354
20
18.1949
0
VERTEX
8
CUT
10
31.254
20
20.8276
0
VERTEX
8
CUT
10
35.054
20
20.8276
0
VERTEX
8
CUT
10
36.954
20
18.1949
0
SEQEND
0
POLYLINE
8
CUT
66
1
70
0
0
VERTEX
8
CUT
10
32.154
20
14.7308
0
VERTEX
8
CUT
10
30.654
20
14.7308
0
VERTEX
8
CUT
10
28.154
20
18.1949
0
VERTEX
8
CUT
10
30.654
20
21.659
0
VERTEX
8
CUT
10
32.154
20
21.659
0
SEQEND
0
POLYLINE
8
CUT
66
1
70
0
0
VERTEX
8
CUT
10
34.154
20
21.659
0
VERTEX
8
CUT
10
35.654
20
21.659
0
VERTEX
8
CUT
10
38.154
20
18.1949
0
VERTEX
8
CUT
10
35.654
20
14.7308
0
VERTEX
8
CUT
10
34.154
20
14.7308
0
SEQEND
0
POLYLINE
8
CUT
66
1
70
0
0
VERTEX
8
CUT
10
36.954
20
9.8667
0
VERTEX
8
CUT
10
35.054
20
7.234
0
VERTEX
8
CUT
10
31.254
20
7.234
0
VERTEX
8
CUT
10
29.354
20
9.8667
0
VERTEX
8
CUT
10
31.254
20
12.4994
0
VERTEX
8
CUT
10
35.054
20
12.4994
0
VERTEX
8
CUT
10
36.954
20
9.8667
0
SEQEND
0
POLYLINE
8
CUT
66
1
70
0
0
VERTEX
8
CUT
10
32.154
20
6.4026
0
VERTEX
8
CUT
10
30.654
20
6.4026
0
VERTEX
8
CUT
10
28.154
20
9.8667
0
VERTEX
8
CUT
10
30.654
20
13.3308
0
VERTEX
8
CUT
10
32.154
20
13.3308
0
SEQEND
0
POLYLINE
8
CUT
66
1
70
0
0
VERTEX
8
CUT
10
34.154
20
13.3308
0
VERTEX
8
CUT
10
35.654
20
13.3308
0
VERTEX
8
CUT
10
38.154
20
9.8667
0
VERTEX
8
CUT
10
35.654
20
6.4026
0
VERTEX
8
CUT
10
34.154
20
6.4026
0
SEQEND
0
POLYLINE
8
CUT
66
1
70
0
0
VERTEX
8
CUT
10
29.6871
20
2
0
VERTEX
8
CUT
10
31.254
20
4.1712
0
VERTEX
8
CUT
10
35.054
20
4.1712
0
VERTEX
8
CUT
10
36.6209
20
2
0
SEQEND
0
POLYLINE
8
CUT
66
1
70
0
0
VERTEX
8
CUT
10
28.4871
20
2
0
VERTEX
8
CUT
10
30.654
20
5.0026
0
VERTEX
8
CUT
10
32.154
20
5.0026
0
SEQEND
0
POLYLINE
8
CUT
66
1
70
0
0
VERTEX
8
CUT
10
34.154
20
5.0026
0
VERTEX
8
CUT
10
35.654
20
5.0026
0
VERTEX
8
CUT
10
37.8209
20
2
0
SEQEND
0
POLYLINE
8
CUT
66
1
70
0
0
VERTEX
8
CUT
10
45.672
20
64
0
VERTEX
8
CUT
10
43.772
20
61.3673
0
VERTEX
8
CUT
10
39.972
20
61.3673
0
VERTEX
8
CUT
10
38.072
20
64
0
VERTEX
8
CUT
10
39.972
20
66.6327
0
VERTEX
8
CUT
10
43.772
20
66.6327
0
VERTEX
8
CUT
10
45.672
20
64
0
SEQEND
0
POLYLINE
8
CUT
66
1
70
0
0
VERTEX
8
CUT
10
40.872
20
60.5359
0
VERTEX
8
CUT
10
39.372
20
60.5359
0
VERTEX
8
CUT
10
36.872
20
64
0
VERTEX
8
CUT
10
39.372
20
67.4641
0
VERTEX
8
CUT
10
40.872
20
67.4641
0
SEQEND
0
POLYLINE
8
CUT
66
1
70
0
0
VERTEX
8
CUT
10
42.872
20
67.4641
0
VERTEX
8
CUT
10
44.372
20
67.4641
0
VERTEX
8
CUT
10
46.872
20
64
0
VERTEX
8
CUT
10
44.372
20
60.5359
0
VERTEX
8
CUT
10
42.872
20
60.5359
0
SEQEND
0
POLYLINE
8
CUT
66
1
70
0
0
VERTEX
8
CUT
10
45.672
20
55.6718
0
VERTEX
8
CUT
10
43.772
20
53.0391
0
VERTEX
8
CUT
10
39.972
20
53.0391
0
VERTEX
8
CUT
10
38.072
20
55.6718
0
VERTEX
8
CUT
10
39.972
20
58.3045
0
VERTEX
8
CUT
10
43.772
20
58.3045
0
VERTEX
8
CUT
10
45.672
20
55.6718
0
SEQEND
0
POLYLINE
8
CUT
66
1
70
0
0
VERTEX
8
CUT
10
40.872
20
52.2077
0
VERTEX
8
CUT
10
39.372
20
52.2077
0
VERTEX
8
CUT
10
36.872
20
55.6718
0
VERTEX
8
CUT
10
39.372
20
59.1359
0
VERTEX
8
CUT
10
40.872
20
59.1359
0
SEQEND
0
POLYLINE
8
CUT
66
1
70
0
0
VERTEX
8
CUT
10
42.872
20
59.1359
0
VERTEX
8
CUT
10
44.372
20
59.1359
0
VERTEX
8
CUT
10
46.872
20
55.6718
0
VERTEX
8
CUT
10
44.372
20
52.2077
0
VERTEX
8
CUT
10
42.872
20
52.2077
0
SEQEND
0
POLYLINE
8
CUT
66
1
70
0
0
VERTEX
8
CUT
10
45.672
20
47.3436
0
VERTEX
8
CUT
10
43.772
20
44.7109
0
VERTEX
8
CUT
10
39.972
20
44.7109
0
VERTEX
8
CUT
10
38.072
20
47.3436
0
VERTEX
8
CUT
10
39.972
20
49.9763
0
VERTEX
8
CUT
10
43.772
20
49.9763
0
VERTEX
8
CUT
10
45.672
20
47.3436
0
SEQEND
0
POLYLINE
8
CUT
66
1
70
0
0
VERTEX
8
CUT
10
40.872
20
43.8795
0
VERTEX
8
CUT
10
39.372
20
43.8795
0
VERTEX
8
CUT
10
36.872
20
47.3436
0
VERTEX
8
CUT
10
39.372
20
50.8077
0
VERTEX
8
CUT
10
40.872
20
50.8077
0
SEQEND
0
POLYLINE
8
CUT
66
1
70
0
0
VERTEX
8
CUT
10
42.872
20
50.8077
0
VERTEX
8
CUT
10
44.372
20
50.8077
0
VERTEX
8
CUT
10
46.872
20
47.3436
0
VERTEX
8
CUT
10
44.372
20
43.8795
0
VERTEX
8
CUT
10
42.872
20
43.8795
0
SEQEND
0
POLYLINE
8
CUT
66
1
70
0
0
VERTEX
8
CUT
10
45.672
20
39.0154
0
VERTEX
8
CUT
10
43.772
20
36.3827
0
VERTEX
8
CUT
10
39.972
20
36.3827
0
VERTEX
8
CUT
10
38.072
20
39.0154
0
VERTEX
8
CUT
10
39.972
20
41.6481
0
VERTEX
8
CUT
10
43.772
20
41.6481
0
VERTEX
8
CUT
10
45.672
20
39.0154
0
SEQEND
0
POLYLINE
8
CUT
66
1
70
0
0
VERTEX
8
CUT
10
40.872
20
35.5513
0
VERTEX
8
CUT
10
39.372
20
35.5513
0
VERTEX
8
CUT
10
36.872
20
39.0154
0
VERTEX
8
CUT
10
39.372
20
42.4795
0
VERTEX
8
CUT
10
40.872
20
42.4795
0
SEQEND
0
POLYLINE
8
CUT
66
1
70
0
0
VERTEX
8
CUT
10
42.872
20
42.4795
0
VERTEX
8
CUT
10
44.372
20
42.4795
0
VERTEX
8
CUT
10
46.872
20
39.0154
0
VERTEX
8
CUT
10
44.372
20
35.5513
0
VERTEX
8
CUT
10
42.872
20
35.5513
0
SEQEND
0
POLYLINE
8
CUT
66
1
70
0
0
VERTEX
8
CUT
10
45.672
20
30.6872
0
VERTEX
8
CUT
10
43.772
20
28.0545
0
VERTEX
8
CUT
10
39.972
20
28.0545
0
VERTEX
8
CUT
10
38.072
20
30.6872
0
VERTEX
8
CUT
10
39.972
20
33.3199
0
VERTEX
8
CUT
10
43.772
20
33.3199
0
VERTEX
8
CUT
10
45.672
20
30.6872
0
SEQEND
0
POLYLINE
8
CUT
66
1
70
0
0
VERTEX
8
CUT
10
40.872
20
27.2231
0
VERTEX
8
CUT
10
39.372
20
27.2231
0
VERTEX
8
CUT
10
36.872
20
30.6872
0
VERTEX
8
CUT
10
39.372
20
34.1513
0
VERTEX
8
CUT
10
40.872
20
34.1513
0
SEQEND
0
POLYLINE
8
CUT
66
1
70
0
0
VERTEX
8
CUT
10
42.872
20
34.1513
0
VERTEX
8
CUT
10
44.372
20
34.1513
0
VERTEX
8
CUT
10
46.872
20
30.6872
0
VERTEX
8
CUT
10
44.372
20
27.2231
0
VERTEX
8
CUT
10
42.872
20
27.2231
0
SEQEND
0
POLYLINE
8
CUT
66
1
70
0
0
VERTEX
8
CUT
10
45.672
20
22.359
0
VERTEX
8
CUT
10
43.772
20
19.7263
0
VERTEX
8
CUT
10
39.972
20
19.7263
0
VERTEX
8
CUT
10
38.072
20
22.359
0
VERTEX
8
CUT
10
39.972
20
24.9917
0
VERTEX
8
CUT
10
43.772
20
24.9917
0
VERTEX
8
CUT
10
45.672
20
22.359
0
SEQEND
0
POLYLINE
8
CUT
66
1
70
0
0
VERTEX
8
CUT
10
40.872
20
18.8949
0
VERTEX
8
CUT
10
39.372
20
18.8949
0
VERTEX
8
CUT
10
36.872
20
22.359
0
VERTEX
8
CUT
10
39.372
20
25.8231
0
VERTEX
8
CUT
10
40.872
20
25.8231
0
SEQEND
0
POLYLINE
8
CUT
66
1
70
0
0
VERTEX
8
CUT
10
42.872
20
25.8231
0
VERTEX
8
CUT
10
44.372
20
25.8231
0
VERTEX
8
CUT
10
46.872
20
22.359
0
VERTEX
8
CUT
10
44.372
20
18.8949
0
VERTEX
8
CUT
10
42.872
20
18.8949
0
SEQEND
0
POLYLINE
8
CUT
66
1
70
0
0
VERTEX
8
CUT
10
45.672
20
14.0308
0
VERTEX
8
CUT
10
43.772
20
11.3981
0
VERTEX
8
CUT
10
39.972
20
11.3981
0
VERTEX
8
CUT
10
38.072
20
14.0308
0
VERTEX
8
CUT
10
39.972
20
16.6635
0
VERTEX
8
CUT
10
43.772
20
16.6635
0
VERTEX
8
CUT
10
45.672
20
14.0308
0
SEQEND
0
POLYLINE
8
CUT
66
1
70
0
0
VERTEX
8
CUT
10
40.872
20
10.5667
0
VERTEX
8
CUT
10
39.372
20
10.5667
0
VERTEX
8
CUT
10
36.872
20
14.0308
0
VERTEX
8
CUT
10
39.372
20
17.4949
0
VERTEX
8
CUT
10
40.872
20
17.4949
0
SEQEND
0
POLYLINE
8
CUT
66
1
70
0
0
VERTEX
8
CUT
10
42.872
20
17.4949
0
VERTEX
8
CUT
10
44.372
20
17.4949
0
VERTEX
8
CUT
10
46.872
20
14.0308
0
VERTEX
8
CUT
10
44.372
20
10.5667
0
VERTEX
8
CUT
10
42.872
20
10.5667
0
SEQEND
0
POLYLINE
8
CUT
66
1
70
0
0
VERTEX
8
CUT
10
45.672
20
5.7026
0
VERTEX
8
CUT
10
43.772
20
3.0699
0
VERTEX
8
CUT
10
39.972
20
3.0699
0
VERTEX
8
CUT
10
38.072
20
5.7026
0
VERTEX
8
CUT
10
39.972
20
8.3353
0
VERTEX
8
CUT
10
43.772
20
8.3353
0
VERTEX
8
CUT
10
45.672
20
5.7026
0
SEQEND
0
POLYLINE
8
CUT
66
1
70
0
0
VERTEX
8
CUT
10
40.872
20
2.2385
0
VERTEX
8
CUT
10
39.372
20
2.2385
0
VERTEX
8
CUT
10
36.872
20
5.7026
0
VERTEX
8
CUT
10
39.372
20
9.1667
0
VERTEX
8
CUT
10
40.872
20
9.1667
0
SEQEND
0
POLYLINE
8
CUT
66
1
70
0
0
VERTEX
8
CUT
10
42.872
20
9.1667
0
VERTEX
8
CUT
10
44.372
20
9.1667
0
VERTEX
8
CUT
10
46.872
20
5.7026
0
VERTEX
8
CUT
10
44.372
20
2.2385
0
VERTEX
8
CUT
10
42.872
20
2.2385
0
SEQEND
0
POLYLINE
8
CUT
66
1
70
0
0
VERTEX
8
CUT
10
54.2716
20
68
0
VERTEX
8
CUT
10
52.49
20
65.5314
0
VERTEX
8
CUT
10
48.69
20
65.5314
0
VERTEX
8
CUT
10
46.9084
20
68
0
SEQEND
0
POLYLINE
8
CUT
66
1
70
0
0
VERTEX
8
CUT
10
49.59
20
64.7
0
VERTEX
8
CUT
10
48.09
20
64.7
0
VERTEX
8
CUT
10
45.7084
20
68
0
SEQEND
0
POLYLINE
8
CUT
66
1
70
0
0
VERTEX
8
CUT
10
55.4716
20
68
0
VERTEX
8
CUT
10
53.09
20
64.7
0
VERTEX
8
CUT
10
51.59
20
64.7
0
SEQEND
0
POLYLINE
8
CUT
66
1
70
0
0
VERTEX
8
CUT
10
54.39
20
59.8359
0
VERTEX
8
CUT
10
52.49
20
57.2032
0
VERTEX
8
CUT
10
48.69
20
57.2032
0
VERTEX
8
CUT
10
46.79
20
59.8359
0
VERTEX
8
CUT
10
48.69
20
62.4686
0
VERTEX
8
CUT
10
52.49
20
62.4686
0
VERTEX
8
CUT
10
54.39
20
59.8359
0
SEQEND
0
POLYLINE
8
CUT
66
1
70
0
0
VERTEX
8
CUT
10
49.59
20
56.3718
0
VERTEX
8
CUT
10
48.09
20
56.3718
0
VERTEX
8
CUT
10
45.59
20
59.8359
0
VERTEX
8
CUT
10
48.09
20
63.3
0
VERTEX
8
CUT
10
49.59
20
63.3
0
SEQEND
0
POLYLINE
8
CUT
66
1
70
0
0
VERTEX
8
CUT
10
51.59
20
63.3
0
VERTEX
8
CUT
10
53.09
20
63.3
0
VERTEX
8
CUT
10
55.59
20
59.8359
0
VERTEX
8
CUT
10
53.09
20
56.3718
0
VERTEX
8
CUT
10
51.59
20
56.3718
0
SEQEND
0
POLYLINE
8
CUT
66
1
70
0
0
VERTEX
8
CUT
10
54.39
20
51.5077
0
VERTEX
8
CUT
10
52.49
20
48.875
0
VERTEX
8
CUT
10
48.69
20
48.875
0
VERTEX
8
CUT
10
46.79
20
51.5077
0
VERTEX
8
CUT
10
48.69
20
54.1404
0
VERTEX
8
CUT
10
52.49
20
54.1404
0
VERTEX
8
CUT
10
54.39
20
51.5077
0
SEQEND
0
POLYLINE
8
CUT
66
1
70
0
0
VERTEX
8
CUT
10
49.59
20
48.0436
0
VERTEX
8
CUT
10
48.09
20
48.0436
0
VERTEX
8
CUT
10
45.59
20
51.5077
0
VERTEX
8
CUT
10
48.09
20
54.9718
0
VERTEX
8
CUT
10
49.59
20
54.9718
0
SEQEND
0
POLYLINE
8
CUT
66
1
70
0
0
VERTEX
8
CUT
10
51.59
20
54.9718
0
VERTEX
8
CUT
10
53.09
20
54.9718
0
VERTEX
8
CUT
10
55.59
20
51.5077
0
VERTEX
8
CUT
10
53.09
20
48.0436
0
VERTEX
8
CUT
10
51.59
20
48.0436
0
SEQEND
0
POLYLINE
8
CUT
66
1
70
0
0
VERTEX
8
CUT
10
54.39
20
43.1795
0
VERTEX
8
CUT
10
52.49
20
40.5468
0
VERTEX
8
CUT
10
48.69
20
40.5468
0
VERTEX
8
CUT
10
46.79
20
43.1795
0
VERTEX
8
CUT
10
48.69
20
45.8122
0
VERTEX
8
CUT
10
52.49
20
45.8122
0
VERTEX
8
CUT
10
54.39
20
43.1795
0
SEQEND
0
POLYLINE
8
CUT
66
1
70
0
0
VERTEX
8
CUT
10
49.59
20
39.7154
0
VERTEX
8
CUT
10
48.09
20
39.7154
0
VERTEX
8
CUT
10
45.59
20
43.1795
0
VERTEX
8
CUT
10
48.09
20
46.6436
0
VERTEX
8
CUT
10
49.59
20
46.6436
0
SEQEND
0
POLYLINE
8
CUT
66
1
70
0
0
VERTEX
8
CUT
10
51.59
20
46.6436
0
VERTEX
8
CUT
10
53.09
20
46.6436
0
VERTEX
8
CUT
10
55.59
20
43.1795
0
VERTEX
8
CUT
10
53.09
20
39.7154
0
VERTEX
8
CUT
10
51.59
20
39.7154
0
SEQEND
0
POLYLINE
8
CUT
66
1
70
0
0
VERTEX
8
CUT
10
54.39
20
34.8513
0
VERTEX
8
CUT
10
52.49
20
32.2186
0
VERTEX
8
CUT
10
48.69
20
32.2186
0
VERTEX
8
CUT
10
46.79
20
34.8513
0
VERTEX
8
CUT
10
48.69
20
37.484
0
VERTEX
8
CUT
10
52.49
20
37.484
0
VERTEX
8
CUT
10
54.39
20
34.8513
0
SEQEND
0
POLYLINE
8
CUT
66
1
70
0
0
VERTEX
8
CUT
10
49.59
20
31.3872
0
VERTEX
8
CUT
10
48.09
20
31.3872
0
VERTEX
8
CUT
10
45.59
20
34.8513
0
VERTEX
8
CUT
10
48.09
20
38.3154
0
VERTEX
8
CUT
10
49.59
20
38.3154
0
SEQEND
0
POLYLINE
8
CUT
66
1
70
0
0
VERTEX
8
CUT
10
51.59
20
38.3154
0
VERTEX
8
CUT
10
53.09
20
38.3154
0
VERTEX
8
CUT
10
55.59
20
34.8513
0
VERTEX
8
CUT
10
53.09
20
31.3872
0
VERTEX
8
CUT
10
51.59
20
31.3872
0
SEQEND
0
POLYLINE
8
CUT
66
1
70
0
0
VERTEX
8
CUT
10
54.39
20
26.5231
0
VERTEX
8
CUT
10
52.49
20
23.8904
0
VERTEX
8
CUT
10
48.69
20
23.8904
0
VERTEX
8
CUT
10
46.79
20
26.5231
0
VERTEX
8
CUT
10
48.69
20
29.1558
0
VERTEX
8
CUT
10
52.49
20
29.1558
0
VERTEX
8
CUT
10
54.39
20
26.5231
0
SEQEND
0
POLYLINE
8
CUT
66
1
70
0
0
VERTEX
8
CUT
10
49.59
20
23.059
0
VERTEX
8
CUT
10
48.09
20
23.059
0
VERTEX
8
CUT
10
45.59
20
26.5231
0
VERTEX
8
CUT
10
48.09
20
29.9872
0
VERTEX
8
CUT
10
49.59
20
29.9872
0
SEQEND
0
POLYLINE
8
CUT
66
1
70
0
0
VERTEX
8
CUT
10
51.59
20
29.9872
0
VERTEX
8
CUT
10
53.09
20
29.9872
0
VERTEX
8
CUT
10
55.59
20
26.5231
0
VERTEX
8
CUT
10
53.09
20
23.059
0
VERTEX
8
CUT
10
51.59
20
23.059
0
SEQEND
0
POLYLINE
8
CUT
66
1
70
0
0
VERTEX
8
CUT
10
54.39
20
18.1949
0
VERTEX
8
CUT
10
52.49
20
15.5622
0
VERTEX
8
CUT
10
48.69
20
15.5622
0
VERTEX
8
CUT
10
46.79
20
18.1949
0
VERTEX
8
CUT
10
48.69
20
20.8276
0
VERTEX
8
CUT
10
52.49
20
20.8276
0
VERTEX
8
CUT
10
54.39
20
18.1949
0
SEQEND
0
POLYLINE
8
CUT
66
1
70
0
0
VERTEX
8
CUT
10
49.59
20
14.7308
0
VERTEX
8
CUT
10
48.09
20
14.7308
0
VERTEX
8
CUT
10
45.59
20
18.1949
0
VERTEX
8
CUT
10
48.09
20
21.659
0
VERTEX
8
CUT
10
49.59
20
21.659
0
SEQEND
0
POLYLINE
8
CUT
66
1
70
0
0
VERTEX
8
CUT
10
51.59
20
21.659
0
VERTEX
8
CUT
10
53.09
20
21.659
0
VERTEX
8
CUT
10
55.59
20
18.1949
0
VERTEX
8
CUT
10
53.09
20
14.7308
0
VERTEX
8
CUT
10
51.59
20
14.7308
0
SEQEND
0
POLYLINE
8
CUT
66
1
70
0
0
VERTEX
8
CUT
10
54.39
20
9.8667
0
VERTEX
8
CUT
10
52.49
20
7.234
0
VERTEX
8
CUT
10
48.69
20
7.234
0
VERTEX
8
CUT
10
46.79
20
9.8667
0
VERTEX
8
CUT
10
48.69
20
12.4994
0
VERTEX
8
CUT
10
52.49
20
12.4994
0
VERTEX
8
CUT
10
54.39
20
9.8667
0
SEQEND
0
POLYLINE
8
CUT
66
1
70
0
0
VERTEX
8
CUT
10
49.59
20
6.4026
0
VERTEX
8
CUT
10
48.09
20
6.4026
0
VERTEX
8
CUT
10
45.59
20
9.8667
0
VERTEX
8
CUT
10
48.09
20
13.3308
0
VERTEX
8
CUT
10
49.59
20
13.3308
0
SEQEND
0
POLYLINE
8
CUT
66
1
70
0
0
VERTEX
8
CUT
10
51.59
20
13.3308
0
VERTEX
8
CUT
10
53.09
20
13.3308
0
VERTEX
8
CUT
10
55.59
20
9.8667
0
VERTEX
8
CUT
10
53.09
20
6.4026
0
VERTEX
8
CUT
10
51.59
20
6.4026
0
SEQEND
0
POLYLINE
8
CUT
66
1
70
0
0
VERTEX
8
CUT
10
47.1231
20
2
0
VERTEX
8
CUT
10
48.69
20
4.1712
0
VERTEX
8
CUT
10
52.49
20
4.1712
0
VERTEX
8
CUT
10
54.0569
20
2
0
SEQEND
0
POLYLINE
8
CUT
66
1
70
0
0
VERTEX
8
CUT
10
45.9231
20
2
0
VERTEX
8
CUT
10
48.09
20
5.0026
0
VERTEX
8
CUT
10
49.59
20
5.0026
0
SEQEND
0
POLYLINE
8
CUT
66
1
70
0
0
VERTEX
8
CUT
10
51.59
20
5.0026
0
VERTEX
8
CUT
10
53.09
20
5.0026
0
VERTEX
8
CUT
10
55.2569
20
2
0
SEQEND
0
POLYLINE
8
CUT
66
1
70
0
0
VERTEX
8
CUT
10
63.108
20
64
0
VERTEX
8
CUT
10
61.208
20
61.3673
0
VERTEX
8
CUT
10
57.408
20
61.3673
0
VERTEX
8
CUT
10
55.508
20
64
0
VERTEX
8
CUT
10
57.408
20
66.6327
0
VERTEX
8
CUT
10
61.208
20
66.6327
0
VERTEX
8
CUT
10
63.108
20
64
0
SEQEND
0
POLYLINE
8
CUT
66
1
70
0
0
VERTEX
8
CUT
10
58.308
20
60.5359
0
VERTEX
8
CUT
10
56.808
20
60.5359
0
VERTEX
8
CUT
10
54.308
20
64
0
VERTEX
8
CUT
10
56.808
20
67.4641
0
VERTEX
8
CUT
10
58.308
20
67.4641
0
SEQEND
0
POLYLINE
8
CUT
66
1
70
0
0
VERTEX
8
CUT
10
60.308
20
67.4641
0
VERTEX
8
CUT
10
61.808
20
67.4641
0
VERTEX
8
CUT
10
64.308
20
64
0
VERTEX
8
CUT
10
61.808
20
60.5359
0
VERTEX
8
CUT
10
60.308
20
60.5359
0
SEQEND
0
POLYLINE
8
CUT
66
1
70
0
0
VERTEX
8
CUT
10
63.108
20
55.6718
0
VERTEX
8
CUT
10
61.208
20
53.0391
0
VERTEX
8
CUT
10
57.408
20
53.0391
0
VERTEX
8
CUT
10
55.508
20
55.6718
0
VERTEX
8
CUT
10
57.408
20
58.3045
0
VERTEX
8
CUT
10
61.208
20
58.3045
0
VERTEX
8
CUT
10
63.108
20
55.6718
0
SEQEND
0
POLYLINE
8
CUT
66
1
70
0
0
VERTEX
8
CUT
10
58.308
20
52.2077
0
VERTEX
8
CUT
10
56.808
20
52.2077
0
VERTEX
8
CUT
10
54.308
20
55.6718
0
VERTEX
8
CUT
10
56.808
20
59.1359
0
VERTEX
8
CUT
10
58.308
20
59.1359
0
SEQEND
0
POLYLINE
8
CUT
66
1
70
0
0
VERTEX
8
CUT
10
60.308
20
59.1359
0
VERTEX
8
CUT
10
61.808
20
59.1359
0
VERTEX
8
CUT
10
64.308
20
55.6718
0
VERTEX
8
CUT
10
61.808
20
52.2077
0
VERTEX
8
CUT
10
60.308
20
52.2077
0
SEQEND
0
POLYLINE
8
CUT
66
1
70
0
0
VERTEX
8
CUT
10
63.108
20
47.3436
0
VERTEX
8
CUT
10
61.208
20
44.7109
0
VERTEX
8
CUT
10
57.408
20
44.7109
0
VERTEX
8
CUT
10
55.508
20
47.3436
0
VERTEX
8
CUT
10
57.408
20
49.9763
0
VERTEX
8
CUT
10
61.208
20
49.9763
0
VERTEX
8
CUT
10
63.108
20
47.3436
0
SEQEND
0
POLYLINE
8
CUT
66
1
70
0
0
VERTEX
8
CUT
10
58.308
20
43.8795
0
VERTEX
8
CUT
10
56.808
20
43.8795
0
VERTEX
8
CUT
10
54.308
20
47.3436
0
VERTEX
8
CUT
10
56.808
20
50.8077
0
VERTEX
8
CUT
10
58.308
20
50.8077
0
SEQEND
0
POLYLINE
8
CUT
66
1
70
0
0
VERTEX
8
CUT
10
60.308
20
50.8077
0
VERTEX
8
CUT
10
61.808
20
50.8077
0
VERTEX
8
CUT
10
64.308
20
47.3436
0
VERTEX
8
CUT
10
61.808
20
43.8795
0
VERTEX
8
CUT
10
60.308
20
43.8795
0
SEQEND
0
POLYLINE
8
CUT
66
1
70
0
0
VERTEX
8
CUT
10
63.108
20
39.0154
0
VERTEX
8
CUT
10
61.208
20
36.3827
0
VERTEX
8
CUT
10
57.408
20
36.3827
0
VERTEX
8
CUT
10
55.508
20
39.0154
0
VERTEX
8
CUT
10
57.408
20
41.6481
0
VERTEX
8
CUT
10
61.208
20
41.6481
0
VERTEX
8
CUT
10
63.108
20
39.0154
0
SEQEND
0
POLYLINE
8
CUT
66
1
70
0
0
VERTEX
8
CUT
10
58.308
20
35.5513
0
VERTEX
8
CUT
10
56.808
20
35.5513
0
VERTEX
8
CUT
10
54.308
20
39.0154
0
VERTEX
8
CUT
10
56.808
20
42.4795
0
VERTEX
8
CUT
10
58.308
20
42.4795
0
SEQEND
0
POLYLINE
8
CUT
66
1
70
0
0
VERTEX
8
CUT
10
60.308
20
42.4795
0
VERTEX
8
CUT
10
61.808
20
42.4795
0
VERTEX
8
CUT
10
64.308
20
39.0154
0
VERTEX
8
CUT
10
61.808
20
35.5513
0
VERTEX
8
CUT
10
60.308
20
35.5513
0
SEQEND
0
POLYLINE
8
CUT
66
1
70
0
0
VERTEX
8
CUT
10
63.108
20
30.6872
0
VERTEX
8
CUT
10
61.208
20
28.0545
0
VERTEX
8
CUT
10
57.408
20
28.0545
0
VERTEX
8
CUT
10
55.508
20
30.6872
0
VERTEX
8
CUT
10
57.408
20
33.3199
0
VERTEX
8
CUT
10
61.208
20
33.3199
0
VERTEX
8
CUT
10
63.108
20
30.6872
0
SEQEND
0
POLYLINE
8
CUT
66
1
70
0
0
VERTEX
8
CUT
10
58.308
20
27.2231
0
VERTEX
8
CUT
10
56.808
20
27.2231
0
VERTEX
8
CUT
10
54.308
20
30.6872
0
VERTEX
8
CUT
10
56.808
20
34.1513
0
VERTEX
8
CUT
10
58.308
20
34.1513
0
SEQEND
0
POLYLINE
8
CUT
66
1
70
0
0
VERTEX
8
CUT
10
60.308
20
34.1513
0
VERTEX
8
CUT
10
61.808
20
34.1513
0
VERTEX
8
CUT
10
64.308
20
30.6872
0
VERTEX
8
CUT
10
61.808
20
27.2231
0
VERTEX
8
CUT
10
60.308
20
27.2231
0
SEQEND
0
POLYLINE
8
CUT
66
1
70
0
0
VERTEX
8
CUT
10
63.108
20
22.359
0
VERTEX
8
CUT
10
61.208
20
19.7263
0
VERTEX
8
CUT
10
57.408
20
19.7263
0
VERTEX
8
CUT
10
55.508
20
22.359
0
VERTEX
8
CUT
10
57.408
20
24.9917
0
VERTEX
8
CUT
10
61.208
20
24.9917
0
VERTEX
8
CUT
10
63.108
20
22.359
0
SEQEND
0
POLYLINE
8
CUT
66
1
70
0
0
VERTEX
8
CUT
10
58.308
20
18.8949
0
VERTEX
8
CUT
10
56.808
20
18.8949
0
VERTEX
8
CUT
10
54.308
20
22.359
0
VERTEX
8
CUT
10
56.808
20
25.8231
0
VERTEX
8
CUT
10
58.308
20
25.8231
0
SEQEND
0
POLYLINE
8
CUT
66
1
70
0
0
VERTEX
8
CUT
10
60.308
20
25.8231
0
VERTEX
8
CUT
10
61.808
20
25.8231
0
VERTEX
8
CUT
10
64.308
20
22.359
0
VERTEX
8
CUT
10
61.808
20
18.8949
0
VERTEX
8
CUT
10
60.308
20
18.8949
0
SEQEND
0
POLYLINE
8
CUT
66
1
70
0
0
VERTEX
8
CUT
10
63.108
20
14.0308
0
VERTEX
8
CUT
10
61.208
20
11.3981
0
VERTEX
8
CUT
10
57.408
20
11.3981
0
VERTEX
8
CUT
10
55.508
20
14.0308
0
VERTEX
8
CUT
10
57.408
20
16.6635
0
VERTEX
8
CUT
10
61.208
20
16.6635
0
VERTEX
8
CUT
10
63.108
20
14.0308
0
SEQEND
0
POLYLINE
8
CUT
66
1
70
0
0
VERTEX
8
CUT
10
58.308
20
10.5667
0
VERTEX
8
CUT
10
56.808
20
10.5667
0
VERTEX
8
CUT
10
54.308
20
14.0308
0
VERTEX
8
CUT
10
56.808
20
17.4949
0
VERTEX
8
CUT
10
58.308
20
17.4949
0
SEQEND
0
POLYLINE
8
CUT
66
1
70
0
0
VERTEX
8
CUT
10
60.308
20
17.4949
0
VERTEX
8
CUT
10
61.808
20
17.4949
0
VERTEX
8
CUT
10
64.308
20
14.0308
0
VERTEX
8
CUT
10
61.808
20
10.5667
0
VERTEX
8
CUT
10
60.308
20
10.5667
0
SEQEND
0
POLYLINE
8
CUT
66
1
70
0
0
VERTEX
8
CUT
10
63.108
20
5.7026
0
VERTEX
8
CUT
10
61.208
20
3.0699
0
VERTEX
8
CUT
10
57.408
20
3.0699
0
VERTEX
8
CUT
10
55.508
20
5.7026
0
VERTEX
8
CUT
10
57.408
20
8.3353
0
VERTEX
8
CUT
10
61.208
20
8.3353
0
VERTEX
8
CUT
10
63.108
20
5.7026
0
SEQEND
0
POLYLINE
8
CUT
66
1
70
0
0
VERTEX
8
CUT
10
58.308
20
2.2385
0
VERTEX
8
CUT
10
56.808
20
2.2385
0
VERTEX
8
CUT
10
54.308
20
5.7026
0
VERTEX
8
CUT
10
56.808
20
9.1667
0
VERTEX
8
CUT
10
58.308
20
9.1667
0
SEQEND
0
POLYLINE
8
CUT
66
1
70
0
0
VERTEX
8
CUT
10
60.308
20
9.1667
0
VERTEX
8
CUT
10
61.808
20
9.1667
0
VERTEX
8
CUT
10
64.308
20
5.7026
0
VERTEX
8
CUT
10
61.808
20
2.2385
0
VERTEX
8
CUT
10
60.308
20
2.2385
0
SEQEND
0
POLYLINE
8
CUT
66
1
70
0
0
VERTEX
8
CUT
10
71.7076
20
68
0
VERTEX
8
CUT
10
69.926
20
65.5314
0
VERTEX
8
CUT
10
66.126
20
65.5314
0
VERTEX
8
CUT
10
64.3444
20
68
0
SEQEND
0
POLYLINE
8
CUT
66
1
70
0
0
VERTEX
8
CUT
10
67.026
20
64.7
0
VERTEX
8
CUT
10
65.526
20
64.7
0
VERTEX
8
CUT
10
63.1444
20
68
0
SEQEND
0
POLYLINE
8
CUT
66
1
70
0
0
VERTEX
8
CUT
10
72.9076
20
68
0
VERTEX
8
CUT
10
70.526
20
64.7
0
VERTEX
8
CUT
10
69.026
20
64.7
0
SEQEND
0
POLYLINE
8
CUT
66
1
70
0
0
VERTEX
8
CUT
10
71.826
20
59.8359
0
VERTEX
8
CUT
10
69.926
20
57.2032
0
VERTEX
8
CUT
10
66.126
20
57.2032
0
VERTEX
8
CUT
10
64.226
20
59.8359
0
VERTEX
8
CUT
10
66.126
20
62.4686
0
VERTEX
8
CUT
10
69.926
20
62.4686
0
VERTEX
8
CUT
10
71.826
20
59.8359
0
SEQEND
0
POLYLINE
8
CUT
66
1
70
0
0
VERTEX
8
CUT
10
67.026
20
56.3718
0
VERTEX
8
CUT
10
65.526
20
56.3718
0
VERTEX
8
CUT
10
63.026
20
59.8359
0
VERTEX
8
CUT
10
65.526
20
63.3
0
VERTEX
8
CUT
10
67.026
20
63.3
0
SEQEND
0
POLYLINE
8
CUT
66
1
70
0
0
VERTEX
8
CUT
10
69.026
20
63.3
0
VERTEX
8
CUT
10
70.526
20
63.3
0
VERTEX
8
CUT
10
73.026
20
59.8359
0
VERTEX
8
CUT
10
70.526
20
56.3718
0
VERTEX
8
CUT
10
69.026
20
56.3718
0
SEQEND
0
POLYLINE
8
CUT
66
1
70
0
0
VERTEX
8
CUT
10
71.826
20
51.5077
0
VERTEX
8
CUT
10
69.926
20
48.875
0
VERTEX
8
CUT
10
66.126
20
48.875
0
VERTEX
8
CUT
10
64.226
20
51.5077
0
VERTEX
8
CUT
10
66.126
20
54.1404
0
VERTEX
8
CUT
10
69.926
20
54.1404
0
VERTEX
8
CUT
10
71.826
20
51.5077
0
SEQEND
0
POLYLINE
8
CUT
66
1
70
0
0
VERTEX
8
CUT
10
67.026
20
48.0436
0
VERTEX
8
CUT
10
65.526
20
48.0436
0
VERTEX
8
CUT
10
63.026
20
51.5077
0
VERTEX
8
CUT
10
65.526
20
54.9718
0
VERTEX
8
CUT
10
67.026
20
54.9718
0
SEQEND
0
POLYLINE
8
CUT
66
1
70
0
0
VERTEX
8
CUT
10
69.026
20
54.9718
0
VERTEX
8
CUT
10
70.526
20
54.9718
0
VERTEX
8
CUT
10
73.026
20
51.5077
0
VERTEX
8
CUT
10
70.526
20
48.0436
0
VERTEX
8
CUT
10
69.026
20
48.0436
0
SEQEND
0
POLYLINE
8
CUT
66
1
70
0
0
VERTEX
8
CUT
10
71.826
20
43.1795
0
VERTEX
8
CUT
10
69.926
20
40.5468
0
VERTEX
8
CUT
10
66.126
20
40.5468
0
VERTEX
8
CUT
10
64.226
20
43.1795
0
VERTEX
8
CUT
10
66.126
20
45.8122
0
VERTEX
8
CUT
10
69.926
20
45.8122
0
VERTEX
8
CUT
10
71.826
20
43.1795
0
SEQEND
0
POLYLINE
8
CUT
66
1
70
0
0
VERTEX
8
CUT
10
67.026
20
39.7154
0
VERTEX
8
CUT
10
65.526
20
39.7154
0
VERTEX
8
CUT
10
63.026
20
43.1795
0
VERTEX
8
CUT
10
65.526
20
46.6436
0
VERTEX
8
CUT
10
67.026
20
46.6436
0
SEQEND
0
POLYLINE
8
CUT
66
1
70
0
0
VERTEX
8
CUT
10
69.026
20
46.6436
0
VERTEX
8
CUT
10
70.526
20
46.6436
0
VERTEX
8
CUT
10
73.026
20
43.1795
0
VERTEX
8
CUT
10
70.526
20
39.7154
0
VERTEX
8
CUT
10
69.026
20
39.7154
0
SEQEND
0
POLYLINE
8
CUT
66
1
70
0
0
VERTEX
8
CUT
10
71.826
20
34.8513
0
VERTEX
8
CUT
10
69.926
20
32.2186
0
VERTEX
8
CUT
10
66.126
20
32.2186
0
VERTEX
8
CUT
10
64.226
20
34.8513
0
VERTEX
8
CUT
10
66.126
20
37.484
0
VERTEX
8
CUT
10
69.926
20
37.484
0
VERTEX
8
CUT
10
71.826
20
34.8513
0
SEQEND
0
POLYLINE
8
CUT
66
1
70
0
0
VERTEX
8
CUT
10
67.026
20
31.3872
0
VERTEX
8
CUT
10
65.526
20
31.3872
0
VERTEX
8
CUT
10
63.026
20
34.8513
0
VERTEX
8
CUT
10
65.526
20
38.3154
0
VERTEX
8
CUT
10
67.026
20
38.3154
0
SEQEND
0
POLYLINE
8
CUT
66
1
70
0
0
VERTEX
8
CUT
10
69.026
20
38.3154
0
VERTEX
8
CUT
10
70.526
20
38.3154
0
VERTEX
8
CUT
10
73.026
20
34.8513
0
VERTEX
8
CUT
10
70.526
20
31.3872
0
VERTEX
8
CUT
10
69.026
20
31.3872
0
SEQEND
0
POLYLINE
8
CUT
66
1
70
0
0
VERTEX
8
CUT
10
71.826
20
26.5231
0
VERTEX
8
CUT
10
69.926
20
23.8904
0
VERTEX
8
CUT
10
66.126
20
23.8904
0
VERTEX
8
CUT
10
64.226
20
26.5231
0
VERTEX
8
CUT
10
66.126
20
29.1558
0
VERTEX
8
CUT
10
69.926
20
29.1558
0
VERTEX
8
CUT
10
71.826
20
26.5231
0
SEQEND
0
POLYLINE
8
CUT
66
1
70
0
0
VERTEX
8
CUT
10
67.026
20
23.059
0
VERTEX
8
CUT
10
65.526
20
23.059
0
VERTEX
8
CUT
10
63.026
20
26.5231
0
VERTEX
8
CUT
10
65.526
20
29.9872
0
VERTEX
8
CUT
10
67.026
20
29.9872
0
SEQEND
0
POLYLINE
8
CUT
66
1
70
0
0
VERTEX
8
CUT
10
69.026
20
29.9872
0
VERTEX
8
CUT
10
70.526
20
29.9872
0
VERTEX
8
CUT
10
73.026
20
26.5231
0
VERTEX
8
CUT
10
70.526
20
23.059
0
VERTEX
8
CUT
10
69.026
20
23.059
0
SEQEND
0
POLYLINE
8
CUT
66
1
70
0
0
VERTEX
8
CUT
10
71.826
20
18.1949
0
VERTEX
8
CUT
10
69.926
20
15.5622
0
VERTEX
8
CUT
10
66.126
20
15.5622
0
VERTEX
8
CUT
10
64.226
20
18.1949
0
VERTEX
8
CUT
10
66.126
20
20.8276
0
VERTEX
8
CUT
10
69.926
20
20.8276
0
VERTEX
8
CUT
10
71.826
20
18.1949
0
SEQEND
0
POLYLINE
8
CUT
66
1
70
0
0
VERTEX
8
CUT
10
67.026
20
14.7308
0
VERTEX
8
CUT
10
65.526
20
14.7308
0
VERTEX
8
CUT
10
63.026
20
18.1949
0
VERTEX
8
CUT
10
65.526
20
21.659
0
VERTEX
8
CUT
10
67.026
20
21.659
0
SEQEND
0
POLYLINE
8
CUT
66
1
70
0
0
VERTEX
8
CUT
10
69.026
20
21.659
0
VERTEX
8
CUT
10
70.526
20
21.659
0
VERTEX
8
CUT
10
73.026
20
18.1949
0
VERTEX
8
CUT
10
70.526
20
14.7308
0
VERTEX
8
CUT
10
69.026
20
14.7308
0
SEQEND
0
POLYLINE
8
CUT
66
1
70
0
0
VERTEX
8
CUT
10
71.826
20
9.8667
0
VERTEX
8
CUT
10
69.926
20
7.234
0
VERTEX
8
CUT
10
66.126
20
7.234
0
VERTEX
8
CUT
10
64.226
20
9.8667
0
VERTEX
8
CUT
10
66.126
20
12.4994
0
VERTEX
8
CUT
10
69.926
20
12.4994
0
VERTEX
8
CUT
10
71.826
20
9.8667
0
SEQEND
0
POLYLINE
8
CUT
66
1
70
0
0
VERTEX
8
CUT
10
67.026
20
6.4026
0
VERTEX
8
CUT
10
65.526
20
6.4026
0
VERTEX
8
CUT
10
63.026
20
9.8667
0
VERTEX
8
CUT
10
65.526
20
13.3308
0
VERTEX
8
CUT
10
67.026
20
13.3308
0
SEQEND
0
POLYLINE
8
CUT
66
1
70
0
0
VERTEX
8
CUT
10
69.026
20
13.3308
0
VERTEX
8
CUT
10
70.526
20
13.3308
0
VERTEX
8
CUT
10
73.026
20
9.8667
0
VERTEX
8
CUT
10
70.526
20
6.4026
0
VERTEX
8
CUT
10
69.026
20
6.4026
0
SEQEND
0
POLYLINE
8
CUT
66
1
70
0
0
VERTEX
8
CUT
10
64.5591
20
2
0
VERTEX
8
CUT
10
66.126
20
4.1712
0
VERTEX
8
CUT
10
69.926
20
4.1712
0
VERTEX
8
CUT
10
71.4929
20
2
0
SEQEND
0
POLYLINE
8
CUT
66
1
70
0
0
VERTEX
8
CUT
10
63.3591
20
2
0
VERTEX
8
CUT
10
65.526
20
5.0026
0
VERTEX
8
CUT
10
67.026
20
5.0026
0
SEQEND
0
POLYLINE
8
CUT
66
1
70
0
0
VERTEX
8
CUT
10
69.026
20
5.0026
0
VERTEX
8
CUT
10
70.526
20
5.0026
0
VERTEX
8
CUT
10
72.6929
20
2
0
SEQEND
0
POLYLINE
8
CUT
66
1
70
0
0
VERTEX
8
CUT
10
80.544
20
64
0
VERTEX
8
CUT
10
78.644
20
61.3673
0
VERTEX
8
CUT
10
74.844
20
61.3673
0
VERTEX
8
CUT
10
72.944
20
64
0
VERTEX
8
CUT
10
74.844
20
66.6327
0
VERTEX
8
CUT
10
78.644
20
66.6327
0
VERTEX
8
CUT
10
80.544
20
64
0
SEQEND
0
POLYLINE
8
CUT
66
1
70
0
0
VERTEX
8
CUT
10
75.744
20
60.5359
0
VERTEX
8
CUT
10
74.244
20
60.5359
0
VERTEX
8
CUT
10
71.744
20
64
0
VERTEX
8
CUT
10
74.244
20
67.4641
0
VERTEX
8
CUT
10
75.744
20
67.4641
0
SEQEND
0
POLYLINE
8
CUT
66
1
70
0
0
VERTEX
8
CUT
10
77.744
20
67.4641
0
VERTEX
8
CUT
10
79.244
20
67.4641
0
VERTEX
8
CUT
10
81.744
20
64
0
VERTEX
8
CUT
10
79.244
20
60.5359
0
VERTEX
8
CUT
10
77.744
20
60.5359
0
SEQEND
0
POLYLINE
8
CUT
66
1
70
0
0
VERTEX
8
CUT
10
80.544
20
55.6718
0
VERTEX
8
CUT
10
78.644
20
53.0391
0
VERTEX
8
CUT
10
74.844
20
53.0391
0
VERTEX
8
CUT
10
72.944
20
55.6718
0
VERTEX
8
CUT
10
74.844
20
58.3045
0
VERTEX
8
CUT
10
78.644
20
58.3045
0
VERTEX
8
CUT
10
80.544
20
55.6718
0
SEQEND
0
POLYLINE
8
CUT
66
1
70
0
0
VERTEX
8
CUT
10
75.744
20
52.2077
0
VERTEX
8
CUT
10
74.244
20
52.2077
0
VERTEX
8
CUT
10
71.744
20
55.6718
0
VERTEX
8
CUT
10
74.244
20
59.1359
0
VERTEX
8
CUT
10
75.744
20
59.1359
0
SEQEND
0
POLYLINE
8
CUT
66
1
70
0
0
VERTEX
8
CUT
10
77.744
20
59.1359
0
VERTEX
8
CUT
10
79.244
20
59.1359
0
VERTEX
8
CUT
10
81.744
20
55.6718
0
VERTEX
8
CUT
10
79.244
20
52.2077
0
VERTEX
8
CUT
10
77.744
20
52.2077
0
SEQEND
0
POLYLINE
8
CUT
66
1
70
0
0
VERTEX
8
CUT
10
80.544
20
47.3436
0
VERTEX
8
CUT
10
78.644
20
44.7109
0
VERTEX
8
CUT
10
74.844
20
44.7109
0
VERTEX
8
CUT
10
72.944
20
47.3436
0
VERTEX
8
CUT
10
74.844
20
49.9763
0
VERTEX
8
CUT
10
78.644
20
49.9763
0
VERTEX
8
CUT
10
80.544
20
47.3436
0
SEQEND
0
POLYLINE
8
CUT
66
1
70
0
0
VERTEX
8
CUT
10
75.744
20
43.8795
0
VERTEX
8
CUT
10
74.244
20
43.8795
0
VERTEX
8
CUT
10
71.744
20
47.3436
0
VERTEX
8
CUT
10
74.244
20
50.8077
0
VERTEX
8
CUT
10
75.744
20
50.8077
0
SEQEND
0
POLYLINE
8
CUT
66
1
70
0
0
VERTEX
8
CUT
10
77.744
20
50.8077
0
VERTEX
8
CUT
10
79.244
20
50.8077
0
VERTEX
8
CUT
10
81.744
20
47.3436
0
VERTEX
8
CUT
10
79.244
20
43.8795
0
VERTEX
8
CUT
10
77.744
20
43.8795
0
SEQEND
0
POLYLINE
8
CUT
66
1
70
0
0
VERTEX
8
CUT
10
80.544
20
39.0154
0
VERTEX
8
CUT
10
78.644
20
36.3827
0
VERTEX
8
CUT
10
74.844
20
36.3827
0
VERTEX
8
CUT
10
72.944
20
39.0154
0
VERTEX
8
CUT
10
74.844
20
41.6481
0
VERTEX
8
CUT
10
78.644
20
41.6481
0
VERTEX
8
CUT
10
80.544
20
39.0154
0
SEQEND
0
POLYLINE
8
CUT
66
1
70
0
0
VERTEX
8
CUT
10
75.744
20
35.5513
0
VERTEX
8
CUT
10
74.244
20
35.5513
0
VERTEX
8
CUT
10
71.744
20
39.0154
0
VERTEX
8
CUT
10
74.244
20
42.4795
0
VERTEX
8
CUT
10
75.744
20
42.4795
0
SEQEND
0
POLYLINE
8
CUT
66
1
70
0
0
VERTEX
8
CUT
10
77.744
20
42.4795
0
VERTEX
8
CUT
10
79.244
20
42.4795
0
VERTEX
8
CUT
10
81.744
20
39.0154
0
VERTEX
8
CUT
10
79.244
20
35.5513
0
VERTEX
8
CUT
10
77.744
20
35.5513
0
SEQEND
0
POLYLINE
8
CUT
66
1
70
0
0
VERTEX
8
CUT
10
80.544
20
30.6872
0
VERTEX
8
CUT
10
78.644
20
28.0545
0
VERTEX
8
CUT
10
74.844
20
28.0545
0
VERTEX
8
CUT
10
72.944
20
30.6872
0
VERTEX
8
CUT
10
74.844
20
33.3199
0
VERTEX
8
CUT
10
78.644
20
33.3199
0
VERTEX
8
CUT
10
80.544
20
30.6872
0
SEQEND
0
POLYLINE
8
CUT
66
1
70
0
0
VERTEX
8
CUT
10
75.744
20
27.2231
0
VERTEX
8
CUT
10
74.244
20
27.2231
0
VERTEX
8
CUT
10
71.744
20
30.6872
0
VERTEX
8
CUT
10
74.244
20
34.1513
0
VERTEX
8
CUT
10
75.744
20
34.1513
0
SEQEND
0
POLYLINE
8
CUT
66
1
70
0
0
VERTEX
8
CUT
10
77.744
20
34.1513
0
VERTEX
8
CUT
10
79.244
20
34.1513
0
VERTEX
8
CUT
10
81.744
20
30.6872
0
VERTEX
8
CUT
10
79.244
20
27.2231
0
VERTEX
8
CUT
10
77.744
20
27.2231
0
SEQEND
0
POLYLINE
8
CUT
66
1
70
0
0
VERTEX
8
CUT
10
80.544
20
22.359
0
VERTEX
8
CUT
10
78.644
20
19.7263
0
VERTEX
8
CUT
10
74.844
20
19.7263
0
VERTEX
8
CUT
10
72.944
20
22.359
0
VERTEX
8
CUT
10
74.844
20
24.9917
0
VERTEX
8
CUT
10
78.644
20
24.9917
0
VERTEX
8
CUT
10
80.544
20
22.359
0
SEQEND
0
POLYLINE
8
CUT
66
1
70
0
0
VERTEX
8
CUT
10
75.744
20
18.8949
0
VERTEX
8
CUT
10
74.244
20
18.8949
0
VERTEX
8
CUT
10
71.744
20
22.359
0
VERTEX
8
CUT
10
74.244
20
25.8231
0
VERTEX
8
CUT
10
75.744
20
25.8231
0
SEQEND
0
POLYLINE
8
CUT
66
1
70
0
0
VERTEX
8
CUT
10
77.744
20
25.8231
0
VERTEX
8
CUT
10
79.244
20
25.8231
0
VERTEX
8
CUT
10
81.744
20
22.359
0
VERTEX
8
CUT
10
79.244
20
18.8949
0
VERTEX
8
CUT
10
77.744
20
18.8949
0
SEQEND
0
POLYLINE
8
CUT
66
1
70
0
0
VERTEX
8
CUT
10
80.544
20
14.0308
0
VERTEX
8
CUT
10
78.644
20
11.3981
0
VERTEX
8
CUT
10
74.844
20
11.3981
0
VERTEX
8
CUT
10
72.944
20
14.0308
0
VERTEX
8
CUT
10
74.844
20
16.6635
0
VERTEX
8
CUT
10
78.644
20
16.6635
0
VERTEX
8
CUT
10
80.544
20
14.0308
0
SEQEND
0
POLYLINE
8
CUT
66
1
70
0
0
VERTEX
8
CUT
10
75.744
20
10.5667
0
VERTEX
8
CUT
10
74.244
20
10.5667
0
VERTEX
8
CUT
10
71.744
20
14.0308
0
VERTEX
8
CUT
10
74.244
20
17.4949
0
VERTEX
8
CUT
10
75.744
20
17.4949
0
SEQEND
0
POLYLINE
8
CUT
66
1
70
0
0
VERTEX
8
CUT
10
77.744
20
17.4949
0
VERTEX
8
CUT
10
79.244
20
17.4949
0
VERTEX
8
CUT
10
81.744
20
14.0308
0
VERTEX
8
CUT
10
79.244
20
10.5667
0
VERTEX
8
CUT
10
77.744
20
10.5667
0
SEQEND
0
POLYLINE
8
CUT
66
1
70
0
0
VERTEX
8
CUT
10
80.544
20
5.7026
0
VERTEX
8
CUT
10
78.644
20
3.0699
0
VERTEX
8
CUT
10
74.844
20
3.0699
0
VERTEX
8
CUT
10
72.944
20
5.7026
0
VERTEX
8
CUT
10
74.844
20
8.3353
0
VERTEX
8
CUT
10
78.644
20
8.3353
0
VERTEX
8
CUT
10
80.544
20
5.7026
0
SEQEND
0
POLYLINE
8
CUT
66
1
70
0
0
VERTEX
8
CUT
10
75.744
20
2.2385
0
VERTEX
8
CUT
10
74.244
20
2.2385
0
VERTEX
8
CUT
10
71.744
20
5.7026
0
VERTEX
8
CUT
10
74.244
20
9.1667
0
VERTEX
8
CUT
10
75.744
20
9.1667
0
SEQEND
0
POLYLINE
8
CUT
66
1
70
0
0
VERTEX
8
CUT
10
77.744
20
9.1667
0
VERTEX
8
CUT
10
79.244
20
9.1667
0
VERTEX
8
CUT
10
81.744
20
5.7026
0
VERTEX
8
CUT
10
79.244
20
2.2385
0
VERTEX
8
CUT
10
77.744
20
2.2385
0
SEQEND
0
POLYLINE
8
CUT
66
1
70
0
0
VERTEX
8
CUT
10
89.1436
20
68
0
VERTEX
8
CUT
10
87.362
20
65.5314
0
VERTEX
8
CUT
10
83.562
20
65.5314
0
VERTEX
8
CUT
10
81.7804
20
68
0
SEQEND
0
POLYLINE
8
CUT
66
1
70
0
0
VERTEX
8
CUT
10
84.462
20
64.7
0
VERTEX
8
CUT
10
82.962
20
64.7
0
VERTEX
8
CUT
10
80.5804
20
68
0
SEQEND
0
POLYLINE
8
CUT
66
1
70
0
0
VERTEX
8
CUT
10
90.3436
20
68
0
VERTEX
8
CUT
10
87.962
20
64.7
0
VERTEX
8
CUT
10
86.462
20
64.7
0
SEQEND
0
POLYLINE
8
CUT
66
1
70
0
0
VERTEX
8
CUT
10
89.262
20
59.8359
0
VERTEX
8
CUT
10
87.362
20
57.2032
0
VERTEX
8
CUT
10
83.562
20
57.2032
0
VERTEX
8
CUT
10
81.662
20
59.8359
0
VERTEX
8
CUT
10
83.562
20
62.4686
0
VERTEX
8
CUT
10
87.362
20
62.4686
0
VERTEX
8
CUT
10
89.262
20
59.8359
0
SEQEND
0
POLYLINE
8
CUT
66
1
70
0
0
VERTEX
8
CUT
10
84.462
20
56.3718
0
VERTEX
8
CUT
10
82.962
20
56.3718
0
VERTEX
8
CUT
10
80.462
20
59.8359
0
VERTEX
8
CUT
10
82.962
20
63.3
0
VERTEX
8
CUT
10
84.462
20
63.3
0
SEQEND
0
POLYLINE
8
CUT
66
1
70
0
0
VERTEX
8
CUT
10
86.462
20
63.3
0
VERTEX
8
CUT
10
87.962
20
63.3
0
VERTEX
8
CUT
10
90.462
20
59.8359
0
VERTEX
8
CUT
10
87.962
20
56.3718
0
VERTEX
8
CUT
10
86.462
20
56.3718
0
SEQEND
0
POLYLINE
8
CUT
66
1
70
0
0
VERTEX
8
CUT
10
89.262
20
51.5077
0
VERTEX
8
CUT
10
87.362
20
48.875
0
VERTEX
8
CUT
10
83.562
20
48.875
0
VERTEX
8
CUT
10
81.662
20
51.5077
0
VERTEX
8
CUT
10
83.562
20
54.1404
0
VERTEX
8
CUT
10
87.362
20
54.1404
0
VERTEX
8
CUT
10
89.262
20
51.5077
0
SEQEND
0
POLYLINE
8
CUT
66
1
70
0
0
VERTEX
8
CUT
10
84.462
20
48.0436
0
VERTEX
8
CUT
10
82.962
20
48.0436
0
VERTEX
8
CUT
10
80.462
20
51.5077
0
VERTEX
8
CUT
10
82.962
20
54.9718
0
VERTEX
8
CUT
10
84.462
20
54.9718
0
SEQEND
0
POLYLINE
8
CUT
66
1
70
0
0
VERTEX
8
CUT
10
86.462
20
54.9718
0
VERTEX
8
CUT
10
87.962
20
54.9718
0
VERTEX
8
CUT
10
90.462
20
51.5077
0
VERTEX
8
CUT
10
87.962
20
48.0436
0
VERTEX
8
CUT
10
86.462
20
48.0436
0
SEQEND
0
POLYLINE
8
CUT
66
1
70
0
0
VERTEX
8
CUT
10
89.262
20
43.1795
0
VERTEX
8
CUT
10
87.362
20
40.5468
0
VERTEX
8
CUT
10
83.562
20
40.5468
0
VERTEX
8
CUT
10
81.662
20
43.1795
0
VERTEX
8
CUT
10
83.562
20
45.8122
0
VERTEX
8
CUT
10
87.362
20
45.8122
0
VERTEX
8
CUT
10
89.262
20
43.1795
0
SEQEND
0
POLYLINE
8
CUT
66
1
70
0
0
VERTEX
8
CUT
10
84.462
20
39.7154
0
VERTEX
8
CUT
10
82.962
20
39.7154
0
VERTEX
8
CUT
10
80.462
20
43.1795
0
VERTEX
8
CUT
10
82.962
20
46.6436
0
VERTEX
8
CUT
10
84.462
20
46.6436
0
SEQEND
0
POLYLINE
8
CUT
66
1
70
0
0
VERTEX
8
CUT
10
86.462
20
46.6436
0
VERTEX
8
CUT
10
87.962
20
46.6436
0
VERTEX
8
CUT
10
90.462
20
43.1795
0
VERTEX
8
CUT
10
87.962
20
39.7154
0
VERTEX
8
CUT
10
86.462
20
39.7154
0
SEQEND
0
POLYLINE
8
CUT
66
1
70
0
0
VERTEX
8
CUT
10
89.262
20
34.8513
0
VERTEX
8
CUT
10
87.362
20
32.2186
0
VERTEX
8
CUT
10
83.562
20
32.2186
0
VERTEX
8
CUT
10
81.662
20
34.8513
0
VERTEX
8
CUT
10
83.562
20
37.484
0
VERTEX
8
CUT
10
87.362
20
37.484
0
VERTEX
8
CUT
10
89.262
20
34.8513
0
SEQEND
0
POLYLINE
8
CUT
66
1
70
0
0
VERTEX
8
CUT
10
84.462
20
31.3872
0
VERTEX
8
CUT
10
82.962
20
31.3872
0
VERTEX
8
CUT
10
80.462
20
34.8513
0
VERTEX
8
CUT
10
82.962
20
38.3154
0
VERTEX
8
CUT
10
84.462
20
38.3154
0
SEQEND
0
POLYLINE
8
CUT
66
1
70
0
0
VERTEX
8
CUT
10
86.462
20
38.3154
0
VERTEX
8
CUT
10
87.962
20
38.3154
0
VERTEX
8
CUT
10
90.462
20
34.8513
0
VERTEX
8
CUT
10
87.962
20
31.3872
0
VERTEX
8
CUT
10
86.462
20
31.3872
0
SEQEND
0
POLYLINE
8
CUT
66
1
70
0
0
VERTEX
8
CUT
10
89.262
20
26.5231
0
VERTEX
8
CUT
10
87.362
20
23.8904
0
VERTEX
8
CUT
10
83.562
20
23.8904
0
VERTEX
8
CUT
10
81.662
20
26.5231
0
VERTEX
8
CUT
10
83.562
20
29.1558
0
VERTEX
8
CUT
10
87.362
20
29.1558
0
VERTEX
8
CUT
10
89.262
20
26.5231
0
SEQEND
0
POLYLINE
8
CUT
66
1
70
0
0
VERTEX
8
CUT
10
84.462
20
23.059
0
VERTEX
8
CUT
10
82.962
20
23.059
0
VERTEX
8
CUT
10
80.462
20
26.5231
0
VERTEX
8
CUT
10
82.962
20
29.9872
0
VERTEX
8
CUT
10
84.462
20
29.9872
0
SEQEND
0
POLYLINE
8
CUT
66
1
70
0
0
VERTEX
8
CUT
10
86.462
20
29.9872
0
VERTEX
8
CUT
10
87.962
20
29.9872
0
VERTEX
8
CUT
10
90.462
20
26.5231
0
VERTEX
8
CUT
10
87.962
20
23.059
0
VERTEX
8
CUT
10
86.462
20
23.059
0
SEQEND
0
POLYLINE
8
CUT
66
1
70
0
0
VERTEX
8
CUT
10
89.262
20
18.1949
0
VERTEX
8
CUT
10
87.362
20
15.5622
0
VERTEX
8
CUT
10
83.562
20
15.5622
0
VERTEX
8
CUT
10
81.662
20
18.1949
0
VERTEX
8
CUT
10
83.562
20
20.8276
0
VERTEX
8
CUT
10
87.362
20
20.8276
0
VERTEX
8
CUT
10
89.262
20
18.1949
0
SEQEND
0
POLYLINE
8
CUT
66
1
70
0
0
VERTEX
8
CUT
10
84.462
20
14.7308
0
VERTEX
8
CUT
10
82.962
20
14.7308
0
VERTEX
8
CUT
10
80.462
20
18.1949
0
VERTEX
8
CUT
10
82.962
20
21.659
0
VERTEX
8
CUT
10
84.462
20
21.659
0
SEQEND
0
POLYLINE
8
CUT
66
1
70
0
0
VERTEX
8
CUT
10
86.462
20
21.659
0
VERTEX
8
CUT
10
87.962
20
21.659
0
VERTEX
8
CUT
10
90.462
20
18.1949
0
VERTEX
8
CUT
10
87.962
20
14.7308
0
VERTEX
8
CUT
10
86.462
20
14.7308
0
SEQEND
0
POLYLINE
8
CUT
66
1
70
0
0
VERTEX
8
CUT
10
89.262
20
9.8667
0
VERTEX
8
CUT
10
87.362
20
7.234
0
VERTEX
8
CUT
10
83.562
20
7.234
0
VERTEX
8
CUT
10
81.662
20
9.8667
0
VERTEX
8
CUT
10
83.562
20
12.4994
0
VERTEX
8
CUT
10
87.362
20
12.4994
0
VERTEX
8
CUT
10
89.262
20
9.8667
0
SEQEND
0
POLYLINE
8
CUT
66
1
70
0
0
VERTEX
8
CUT
10
84.462
20
6.4026
0
VERTEX
8
CUT
10
82.962
20
6.4026
0
VERTEX
8
CUT
10
80.462
20
9.8667
0
VERTEX
8
CUT
10
82.962
20
13.3308
0
VERTEX
8
CUT
10
84.462
20
13.3308
0
SEQEND
0
POLYLINE
8
CUT
66
1
70
0
0
VERTEX
8
CUT
10
86.462
20
13.3308
0
VERTEX
8
CUT
10
87.962
20
13.3308
0
VERTEX
8
CUT
10
90.462
20
9.8667
0
VERTEX
8
CUT
10
87.962
20
6.4026
0
VERTEX
8
CUT
10
86.462
20
6.4026
0
SEQEND
0
POLYLINE
8
CUT
66
1
70
0
0
VERTEX
8
CUT
10
81.9951
20
2
0
VERTEX
8
CUT
10
83.562
20
4.1712
0
VERTEX
8
CUT
10
87.362
20
4.1712
0
VERTEX
8
CUT
10
88.9289
20
2
0
SEQEND
0
POLYLINE
8
CUT
66
1
70
0
0
VERTEX
8
CUT
10
80.7951
20
2
0
VERTEX
8
CUT
10
82.962
20
5.0026
0
VERTEX
8
CUT
10
84.462
20
5.0026
0
SEQEND
0
POLYLINE
8
CUT
66
1
70
0
0
VERTEX
8
CUT
10
86.462
20
5.0026
0
VERTEX
8
CUT
10
87.962
20
5.0026
0
VERTEX
8
CUT
10
90.1289
20
2
0
SEQEND
0
POLYLINE
8
CUT
66
1
70
0
0
VERTEX
8
CUT
10
97.98
20
64
0
VERTEX
8
CUT
10
96.08
20
61.3673
0
VERTEX
8
CUT
10
92.28
20
61.3673
0
VERTEX
8
CUT
10
90.38
20
64
0
VERTEX
8
CUT
10
92.28
20
66.6327
0
VERTEX
8
CUT
10
96.08
20
66.6327
0
VERTEX
8
CUT
10
97.98
20
64
0
SEQEND
0
POLYLINE
8
CUT
66
1
70
0
0
VERTEX
8
CUT
10
93.18
20
60.5359
0
VERTEX
8
CUT
10
91.68
20
60.5359
0
VERTEX
8
CUT
10
89.18
20
64
0
VERTEX
8
CUT
10
91.68
20
67.4641
0
VERTEX
8
CUT
10
93.18
20
67.4641
0
SEQEND
0
POLYLINE
8
CUT
66
1
70
0
0
VERTEX
8
CUT
10
95.18
20
67.4641
0
VERTEX
8
CUT
10
96.68
20
67.4641
0
VERTEX
8
CUT
10
99.18
20
64
0
VERTEX
8
CUT
10
96.68
20
60.5359
0
VERTEX
8
CUT
10
95.18
20
60.5359
0
SEQEND
0
POLYLINE
8
CUT
66
1
70
0
0
VERTEX
8
CUT
10
97.98
20
55.6718
0
VERTEX
8
CUT
10
96.08
20
53.0391
0
VERTEX
8
CUT
10
92.28
20
53.0391
0
VERTEX
8
CUT
10
90.38
20
55.6718
0
VERTEX
8
CUT
10
92.28
20
58.3045
0
VERTEX
8
CUT
10
96.08
20
58.3045
0
VERTEX
8
CUT
10
97.98
20
55.6718
0
SEQEND
0
POLYLINE
8
CUT
66
1
70
0
0
VERTEX
8
CUT
10
93.18
20
52.2077
0
VERTEX
8
CUT
10
91.68
20
52.2077
0
VERTEX
8
CUT
10
89.18
20
55.6718
0
VERTEX
8
CUT
10
91.68
20
59.1359
0
VERTEX
8
CUT
10
93.18
20
59.1359
0
SEQEND
0
POLYLINE
8
CUT
66
1
70
0
0
VERTEX
8
CUT
10
95.18
20
59.1359
0
VERTEX
8
CUT
10
96.68
20
59.1359
0
VERTEX
8
CUT
10
99.18
20
55.6718
0
VERTEX
8
CUT
10
96.68
20
52.2077
0
VERTEX
8
CUT
10
95.18
20
52.2077
0
SEQEND
0
POLYLINE
8
CUT
66
1
70
0
0
VERTEX
8
CUT
10
97.98
20
47.3436
0
VERTEX
8
CUT
10
96.08
20
44.7109
0
VERTEX
8
CUT
10
92.28
20
44.7109
0
VERTEX
8
CUT
10
90.38
20
47.3436
0
VERTEX
8
CUT
10
92.28
20
49.9763
0
VERTEX
8
CUT
10
96.08
20
49.9763
0
VERTEX
8
CUT
10
97.98
20
47.3436
0
SEQEND
0
POLYLINE
8
CUT
66
1
70
0
0
VERTEX
8
CUT
10
93.18
20
43.8795
0
VERTEX
8
CUT
10
91.68
20
43.8795
0
VERTEX
8
CUT
10
89.18
20
47.3436
0
VERTEX
8
CUT
10
91.68
20
50.8077
0
VERTEX
8
CUT
10
93.18
20
50.8077
0
SEQEND
0
POLYLINE
8
CUT
66
1
70
0
0
VERTEX
8
CUT
10
95.18
20
50.8077
0
VERTEX
8
CUT
10
96.68
20
50.8077
0
VERTEX
8
CUT
10
99.18
20
47.3436
0
VERTEX
8
CUT
10
96.68
20
43.8795
0
VERTEX
8
CUT
10
95.18
20
43.8795
0
SEQEND
0
POLYLINE
8
CUT
66
1
70
0
0
VERTEX
8
CUT
10
97.98
20
39.0154
0
VERTEX
8
CUT
10
96.08
20
36.3827
0
VERTEX
8
CUT
10
92.28
20
36.3827
0
VERTEX
8
CUT
10
90.38
20
39.0154
0
VERTEX
8
CUT
10
92.28
20
41.6481
0
VERTEX
8
CUT
10
96.08
20
41.6481
0
VERTEX
8
CUT
10
97.98
20
39.0154
0
SEQEND
0
POLYLINE
8
CUT
66
1
70
0
0
VERTEX
8
CUT
10
93.18
20
35.5513
0
VERTEX
8
CUT
10
91.68
20
35.5513
0
VERTEX
8
CUT
10
89.18
20
39.0154
0
VERTEX
8
CUT
10
91.68
20
42.4795
0
VERTEX
8
CUT
10
93.18
20
42.4795
0
SEQEND
0
POLYLINE
8
CUT
66
1
70
0
0
VERTEX
8
CUT
10
95.18
20
42.4795
0
VERTEX
8
CUT
10
96.68
20
42.4795
0
VERTEX
8
CUT
10
99.18
20
39.0154
0
VERTEX
8
CUT
10
96.68
20
35.5513
0
VERTEX
8
CUT
10
95.18
20
35.5513
0
SEQEND
0
POLYLINE
8
CUT
66
1
70
0
0
VERTEX
8
CUT
10
97.98
20
30.6872
0
VERTEX
8
CUT
10
96.08
20
28.0545
0
VERTEX
8
CUT
10
92.28
20
28.0545
0
VERTEX
8
CUT
10
90.38
20
30.6872
0
VERTEX
8
CUT
10
92.28
20
33.3199
0
VERTEX
8
CUT
10
96.08
20
33.3199
0
VERTEX
8
CUT
10
97.98
20
30.6872
0
SEQEND
0
POLYLINE
8
CUT
66
1
70
0
0
VERTEX
8
CUT
10
93.18
20
27.2231
0
VERTEX
8
CUT
10
91.68
20
27.2231
0
VERTEX
8
CUT
10
89.18
20
30.6872
0
VERTEX
8
CUT
10
91.68
20
34.1513
0
VERTEX
8
CUT
10
93.18
20
34.1513
0
SEQEND
0
POLYLINE
8
CUT
66
1
70
0
0
VERTEX
8
CUT
10
95.18
20
34.1513
0
VERTEX
8
CUT
10
96.68
20
34.1513
0
VERTEX
8
CUT
10
99.18
20
30.6872
0
VERTEX
8
CUT
10
96.68
20
27.2231
0
VERTEX
8
CUT
10
95.18
20
27.2231
0
SEQEND
0
POLYLINE
8
CUT
66
1
70
0
0
VERTEX
8
CUT
10
97.98
20
22.359
0
VERTEX
8
CUT
10
96.08
20
19.7263
0
VERTEX
8
CUT
10
92.28
20
19.7263
0
VERTEX
8
CUT
10
90.38
20
22.359
0
VERTEX
8
CUT
10
92.28
20
24.9917
0
VERTEX
8
CUT
10
96.08
20
24.9917
0
VERTEX
8
CUT
10
97.98
20
22.359
0
SEQEND
0
POLYLINE
8
CUT
66
1
70
0
0
VERTEX
8
CUT
10
93.18
20
18.8949
0
VERTEX
8
CUT
10
91.68
20
18.8949
0
VERTEX
8
CUT
10
89.18
20
22.359
0
VERTEX
8
CUT
10
91.68
20
25.8231
0
VERTEX
8
CUT
10
93.18
20
25.8231
0
SEQEND
0
POLYLINE
8
CUT
66
1
70
0
0
VERTEX
8
CUT
10
95.18
20
25.8231
0
VERTEX
8
CUT
10
96.68
20
25.8231
0
VERTEX
8
CUT
10
99.18
20
22.359
0
VERTEX
8
CUT
10
96.68
20
18.8949
0
VERTEX
8
CUT
10
95.18
20
18.8949
0
SEQEND
0
POLYLINE
8
CUT
66
1
70
0
0
VERTEX
8
CUT
10
97.98
20
14.0308
0
VERTEX
8
CUT
10
96.08
20
11.3981
0
VERTEX
8
CUT
10
92.28
20
11.3981
0
VERTEX
8
CUT
10
90.38
20
14.0308
0
VERTEX
8
CUT
10
92.28
20
16.6635
0
VERTEX
8
CUT
10
96.08
20
16.6635
0
VERTEX
8
CUT
10
97.98
20
14.0308
0
SEQEND
0
POLYLINE
8
CUT
66
1
70
0
0
VERTEX
8
CUT
10
93.18
20
10.5667
0
VERTEX
8
CUT
10
91.68
20
10.5667
0
VERTEX
8
CUT
10
89.18
20
14.0308
0
VERTEX
8
CUT
10
91.68
20
17.4949
0
VERTEX
8
CUT
10
93.18
20
17.4949
0
SEQEND
0
POLYLINE
8
CUT
66
1
70
0
0
VERTEX
8
CUT
10
95.18
20
17.4949
0
VERTEX
8
CUT
10
96.68
20
17.4949
0
VERTEX
8
CUT
10
99.18
20
14.0308
0
VERTEX
8
CUT
10
96.68
20
10.5667
0
VERTEX
8
CUT
10
95.18
20
10.5667
0
SEQEND
0
POLYLINE
8
CUT
66
1
70
0
0
VERTEX
8
CUT
10
97.98
20
5.7026
0
VERTEX
8
CUT
10
96.08
20
3.0699
0
VERTEX
8
CUT
10
92.28
20
3.0699
0
VERTEX
8
CUT
10
90.38
20
5.7026
0
VERTEX
8
CUT
10
92.28
20
8.3353
0
VERTEX
8
CUT
10
96.08
20
8.3353
0
VERTEX
8
CUT
10
97.98
20
5.7026
0
SEQEND
0
POLYLINE
8
CUT
66
1
70
0
0
VERTEX
8
CUT
10
93.18
20
2.2385
0
VERTEX
8
CUT
10
91.68
20
2.2385
0
VERTEX
8
CUT
10
89.18
20
5.7026
0
VERTEX
8
CUT
10
91.68
20
9.1667
0
VERTEX
8
CUT
10
93.18
20
9.1667
0
SEQEND
0
POLYLINE
8
CUT
66
1
70
0
0
VERTEX
8
CUT
10
95.18
20
9.1667
0
VERTEX
8
CUT
10
96.68
20
9.1667
0
VERTEX
8
CUT
10
99.18
20
5.7026
0
VERTEX
8
CUT
10
96.68
20
2.2385
0
VERTEX
8
CUT
10
95.18
20
2.2385
0
SEQEND
0
POLYLINE
8
CUT
66
1
70
0
0
VERTEX
8
CUT
10
106.5796
20
68
0
VERTEX
8
CUT
10
104.798
20
65.5314
0
VERTEX
8
CUT
10
100.998
20
65.5314
0
VERTEX
8
CUT
10
99.2164
20
68
0
SEQEND
0
POLYLINE
8
CUT
66
1
70
0
0
VERTEX
8
CUT
10
101.898
20
64.7
0
VERTEX
8
CUT
10
100.398
20
64.7
0
VERTEX
8
CUT
10
98.0164
20
68
0
SEQEND
0
POLYLINE
8
CUT
66
1
70
0
0
VERTEX
8
CUT
10
107.7796
20
68
0
VERTEX
8
CUT
10
105.398
20
64.7
0
VERTEX
8
CUT
10
103.898
20
64.7
0
SEQEND
0
POLYLINE
8
CUT
66
1
70
0
0
VERTEX
8
CUT
10
106.698
20
59.8359
0
VERTEX
8
CUT
10
104.798
20
57.2032
0
VERTEX
8
CUT
10
100.998
20
57.2032
0
VERTEX
8
CUT
10
99.098
20
59.8359
0
VERTEX
8
CUT
10
100.998
20
62.4686
0
VERTEX
8
CUT
10
104.798
20
62.4686
0
VERTEX
8
CUT
10
106.698
20
59.8359
0
SEQEND
0
POLYLINE
8
CUT
66
1
70
0
0
VERTEX
8
CUT
10
101.898
20
56.3718
0
VERTEX
8
CUT
10
100.398
20
56.3718
0
VERTEX
8
CUT
10
97.898
20
59.8359
0
VERTEX
8
CUT
10
100.398
20
63.3
0
VERTEX
8
CUT
10
101.898
20
63.3
0
SEQEND
0
POLYLINE
8
CUT
66
1
70
0
0
VERTEX
8
CUT
10
103.898
20
63.3
0
VERTEX
8
CUT
10
105.398
20
63.3
0
VERTEX
8
CUT
10
107.898
20
59.8359
0
VERTEX
8
CUT
10
105.398
20
56.3718
0
VERTEX
8
CUT
10
103.898
20
56.3718
0
SEQEND
0
POLYLINE
8
CUT
66
1
70
0
0
VERTEX
8
CUT
10
106.698
20
51.5077
0
VERTEX
8
CUT
10
104.798
20
48.875
0
VERTEX
8
CUT
10
100.998
20
48.875
0
VERTEX
8
CUT
10
99.098
20
51.5077
0
VERTEX
8
CUT
10
100.998
20
54.1404
0
VERTEX
8
CUT
10
104.798
20
54.1404
0
VERTEX
8
CUT
10
106.698
20
51.5077
0
SEQEND
0
POLYLINE
8
CUT
66
1
70
0
0
VERTEX
8
CUT
10
101.898
20
48.0436
0
VERTEX
8
CUT
10
100.398
20
48.0436
0
VERTEX
8
CUT
10
97.898
20
51.5077
0
VERTEX
8
CUT
10
100.398
20
54.9718
0
VERTEX
8
CUT
10
101.898
20
54.9718
0
SEQEND
0
POLYLINE
8
CUT
66
1
70
0
0
VERTEX
8
CUT
10
103.898
20
54.9718
0
VERTEX
8
CUT
10
105.398
20
54.9718
0
VERTEX
8
CUT
10
107.898
20
51.5077
0
VERTEX
8
CUT
10
105.398
20
48.0436
0
VERTEX
8
CUT
10
103.898
20
48.0436
0
SEQEND
0
POLYLINE
8
CUT
66
1
70
0
0
VERTEX
8
CUT
10
106.698
20
43.1795
0
VERTEX
8
CUT
10
104.798
20
40.5468
0
VERTEX
8
CUT
10
100.998
20
40.5468
0
VERTEX
8
CUT
10
99.098
20
43.1795
0
VERTEX
8
CUT
10
100.998
20
45.8122
0
VERTEX
8
CUT
10
104.798
20
45.8122
0
VERTEX
8
CUT
10
106.698
20
43.1795
0
SEQEND
0
POLYLINE
8
CUT
66
1
70
0
0
VERTEX
8
CUT
10
101.898
20
39.7154
0
VERTEX
8
CUT
10
100.398
20
39.7154
0
VERTEX
8
CUT
10
97.898
20
43.1795
0
VERTEX
8
CUT
10
100.398
20
46.6436
0
VERTEX
8
CUT
10
101.898
20
46.6436
0
SEQEND
0
POLYLINE
8
CUT
66
1
70
0
0
VERTEX
8
CUT
10
103.898
20
46.6436
0
VERTEX
8
CUT
10
105.398
20
46.6436
0
VERTEX
8
CUT
10
107.898
20
43.1795
0
VERTEX
8
CUT
10
105.398
20
39.7154
0
VERTEX
8
CUT
10
103.898
20
39.7154
0
SEQEND
0
POLYLINE
8
CUT
66
1
70
0
0
VERTEX
8
CUT
10
106.698
20
34.8513
0
VERTEX
8
CUT
10
104.798
20
32.2186
0
VERTEX
8
CUT
10
100.998
20
32.2186
0
VERTEX
8
CUT
10
99.098
20
34.8513
0
VERTEX
8
CUT
10
100.998
20
37.484
0
VERTEX
8
CUT
10
104.798
20
37.484
0
VERTEX
8
CUT
10
106.698
20
34.8513
0
SEQEND
0
POLYLINE
8
CUT
66
1
70
0
0
VERTEX
8
CUT
10
101.898
20
31.3872
0
VERTEX
8
CUT
10
100.398
20
31.3872
0
VERTEX
8
CUT
10
97.898
20
34.8513
0
VERTEX
8
CUT
10
100.398
20
38.3154
0
VERTEX
8
CUT
10
101.898
20
38.3154
0
SEQEND
0
POLYLINE
8
CUT
66
1
70
0
0
VERTEX
8
CUT
10
103.898
20
38.3154
0
VERTEX
8
CUT
10
105.398
20
38.3154
0
VERTEX
8
CUT
10
107.898
20
34.8513
0
VERTEX
8
CUT
10
105.398
20
31.3872
0
VERTEX
8
CUT
10
103.898
20
31.3872
0
SEQEND
0
POLYLINE
8
CUT
66
1
70
0
0
VERTEX
8
CUT
10
106.698
20
26.5231
0
VERTEX
8
CUT
10
104.798
20
23.8904
0
VERTEX
8
CUT
10
100.998
20
23.8904
0
VERTEX
8
CUT
10
99.098
20
26.5231
0
VERTEX
8
CUT
10
100.998
20
29.1558
0
VERTEX
8
CUT
10
104.798
20
29.1558
0
VERTEX
8
CUT
10
106.698
20
26.5231
0
SEQEND
0
POLYLINE
8
CUT
66
1
70
0
0
VERTEX
8
CUT
10
101.898
20
23.059
0
VERTEX
8
CUT
10
100.398
20
23.059
0
VERTEX
8
CUT
10
97.898
20
26.5231
0
VERTEX
8
CUT
10
100.398
20
29.9872
0
VERTEX
8
CUT
10
101.898
20
29.9872
0
SEQEND
0
POLYLINE
8
CUT
66
1
70
0
0
VERTEX
8
CUT
10
103.898
20
29.9872
0
VERTEX
8
CUT
10
105.398
20
29.9872
0
VERTEX
8
CUT
10
107.898
20
26.5231
0
VERTEX
8
CUT
10
105.398
20
23.059
0
VERTEX
8
CUT
10
103.898
20
23.059
0
SEQEND
0
POLYLINE
8
CUT
66
1
70
0
0
VERTEX
8
CUT
10
106.698
20
18.1949
0
VERTEX
8
CUT
10
104.798
20
15.5622
0
VERTEX
8
CUT
10
100.998
20
15.5622
0
VERTEX
8
CUT
10
99.098
20
18.1949
0
VERTEX
8
CUT
10
100.998
20
20.8276
0
VERTEX
8
CUT
10
104.798
20
20.8276
0
VERTEX
8
CUT
10
106.698
20
18.1949
0
SEQEND
0
POLYLINE
8
CUT
66
1
70
0
0
VERTEX
8
CUT
10
101.898
20
14.7308
0
VERTEX
8
CUT
10
100.398
20
14.7308
0
VERTEX
8
CUT
10
97.898
20
18.1949
0
VERTEX
8
CUT
10
100.398
20
21.659
0
VERTEX
8
CUT
10
101.898
20
21.659
0
SEQEND
0
POLYLINE
8
CUT
66
1
70
0
0
VERTEX
8
CUT
10
103.898
20
21.659
0
VERTEX
8
CUT
10
105.398
20
21.659
0
VERTEX
8
CUT
10
107.898
20
18.1949
0
VERTEX
8
CUT
10
105.398
20
14.7308
0
VERTEX
8
CUT
10
103.898
20
14.7308
0
SEQEND
0
POLYLINE
8
CUT
66
1
70
0
0
VERTEX
8
CUT
10
106.698
20
9.8667
0
VERTEX
8
CUT
10
104.798
20
7.234
0
VERTEX
8
CUT
10
100.998
20
7.234
0
VERTEX
8
CUT
10
99.098
20
9.8667
0
VERTEX
8
CUT
10
100.998
20
12.4994
0
VERTEX
8
CUT
10
104.798
20
12.4994
0
VERTEX
8
CUT
10
106.698
20
9.8667
0
SEQEND
0
POLYLINE
8
CUT
66
1
70
0
0
VERTEX
8
CUT
10
101.898
20
6.4026
0
VERTEX
8
CUT
10
100.398
20
6.4026
0
VERTEX
8
CUT
10
97.898
20
9.8667
0
VERTEX
8
CUT
10
100.398
20
13.3308
0
VERTEX
8
CUT
10
101.898
20
13.3308
0
SEQEND
0
POLYLINE
8
CUT
66
1
70
0
0
VERTEX
8
CUT
10
103.898
20
13.3308
0
VERTEX
8
CUT
10
105.398
20
13.3308
0
VERTEX
8
CUT
10
107.898
20
9.8667
0
VERTEX
8
CUT
10
105.398
20
6.4026
0
VERTEX
8
CUT
10
103.898
20
6.4026
0
SEQEND
0
POLYLINE
8
CUT
66
1
70
0
0
VERTEX
8
CUT
10
99.4311
20
2
0
VERTEX
8
CUT
10
100.998
20
4.1712
0
VERTEX
8
CUT
10
104.798
20
4.1712
0
VERTEX
8
CUT
10
106.3649
20
2
0
SEQEND
0
POLYLINE
8
CUT
66
1
70
0
0
VERTEX
8
CUT
10
98.2311
20
2
0
VERTEX
8
CUT
10
100.398
20
5.0026
0
VERTEX
8
CUT
10
101.898
20
5.0026
0
SEQEND
0
POLYLINE
8
CUT
66
1
70
0
0
VERTEX
8
CUT
10
103.898
20
5.0026
0
VERTEX
8
CUT
10
105.398
20
5.0026
0
VERTEX
8
CUT
10
107.5649
20
2
0
SEQEND
0
POLYLINE
8
CUT
66
1
70
0
0
VERTEX
8
CUT
10
115.416
20
64
0
VERTEX
8
CUT
10
113.516
20
61.3673
0
VERTEX
8
CUT
10
109.716
20
61.3673
0
VERTEX
8
CUT
10
107.816
20
64
0
VERTEX
8
CUT
10
109.716
20
66.6327
0
VERTEX
8
CUT
10
113.516
20
66.6327
0
VERTEX
8
CUT
10
115.416
20
64
0
SEQEND
0
POLYLINE
8
CUT
66
1
70
0
0
VERTEX
8
CUT
10
110.616
20
60.5359
0
VERTEX
8
CUT
10
109.116
20
60.5359
0
VERTEX
8
CUT
10
106.616
20
64
0
VERTEX
8
CUT
10
109.116
20
67.4641
0
VERTEX
8
CUT
10
110.616
20
67.4641
0
SEQEND
0
POLYLINE
8
CUT
66
1
70
0
0
VERTEX
8
CUT
10
112.616
20
67.4641
0
VERTEX
8
CUT
10
114.116
20
67.4641
0
VERTEX
8
CUT
10
116.616
20
64
0
VERTEX
8
CUT
10
114.116
20
60.5359
0
VERTEX
8
CUT
10
112.616
20
60.5359
0
SEQEND
0
POLYLINE
8
CUT
66
1
70
0
0
VERTEX
8
CUT
10
115.416
20
55.6718
0
VERTEX
8
CUT
10
113.516
20
53.0391
0
VERTEX
8
CUT
10
109.716
20
53.0391
0
VERTEX
8
CUT
10
107.816
20
55.6718
0
VERTEX
8
CUT
10
109.716
20
58.3045
0
VERTEX
8
CUT
10
113.516
20
58.3045
0
VERTEX
8
CUT
10
115.416
20
55.6718
0
SEQEND
0
POLYLINE
8
CUT
66
1
70
0
0
VERTEX
8
CUT
10
110.616
20
52.2077
0
VERTEX
8
CUT
10
109.116
20
52.2077
0
VERTEX
8
CUT
10
106.616
20
55.6718
0
VERTEX
8
CUT
10
109.116
20
59.1359
0
VERTEX
8
CUT
10
110.616
20
59.1359
0
SEQEND
0
POLYLINE
8
CUT
66
1
70
0
0
VERTEX
8
CUT
10
112.616
20
59.1359
0
VERTEX
8
CUT
10
114.116
20
59.1359
0
VERTEX
8
CUT
10
116.616
20
55.6718
0
VERTEX
8
CUT
10
114.116
20
52.2077
0
VERTEX
8
CUT
10
112.616
20
52.2077
0
SEQEND
0
POLYLINE
8
CUT
66
1
70
0
0
VERTEX
8
CUT
10
115.416
20
47.3436
0
VERTEX
8
CUT
10
113.516
20
44.7109
0
VERTEX
8
CUT
10
109.716
20
44.7109
0
VERTEX
8
CUT
10
107.816
20
47.3436
0
VERTEX
8
CUT
10
109.716
20
49.9763
0
VERTEX
8
CUT
10
113.516
20
49.9763
0
VERTEX
8
CUT
10
115.416
20
47.3436
0
SEQEND
0
POLYLINE
8
CUT
66
1
70
0
0
VERTEX
8
CUT
10
110.616
20
43.8795
0
VERTEX
8
CUT
10
109.116
20
43.8795
0
VERTEX
8
CUT
10
106.616
20
47.3436
0
VERTEX
8
CUT
10
109.116
20
50.8077
0
VERTEX
8
CUT
10
110.616
20
50.8077
0
SEQEND
0
POLYLINE
8
CUT
66
1
70
0
0
VERTEX
8
CUT
10
112.616
20
50.8077
0
VERTEX
8
CUT
10
114.116
20
50.8077
0
VERTEX
8
CUT
10
116.616
20
47.3436
0
VERTEX
8
CUT
10
114.116
20
43.8795
0
VERTEX
8
CUT
10
112.616
20
43.8795
0
SEQEND
0
POLYLINE
8
CUT
66
1
70
0
0
VERTEX
8
CUT
10
115.416
20
39.0154
0
VERTEX
8
CUT
10
113.516
20
36.3827
0
VERTEX
8
CUT
10
109.716
20
36.3827
0
VERTEX
8
CUT
10
107.816
20
39.0154
0
VERTEX
8
CUT
10
109.716
20
41.6481
0
VERTEX
8
CUT
10
113.516
20
41.6481
0
VERTEX
8
CUT
10
115.416
20
39.0154
0
SEQEND
0
POLYLINE
8
CUT
66
1
70
0
0
VERTEX
8
CUT
10
110.616
20
35.5513
0
VERTEX
8
CUT
10
109.116
20
35.5513
0
VERTEX
8
CUT
10
106.616
20
39.0154
0
VERTEX
8
CUT
10
109.116
20
42.4795
0
VERTEX
8
CUT
10
110.616
20
42.4795
0
SEQEND
0
POLYLINE
8
CUT
66
1
70
0
0
VERTEX
8
CUT
10
112.616
20
42.4795
0
VERTEX
8
CUT
10
114.116
20
42.4795
0
VERTEX
8
CUT
10
116.616
20
39.0154
0
VERTEX
8
CUT
10
114.116
20
35.5513
0
VERTEX
8
CUT
10
112.616
20
35.5513
0
SEQEND
0
POLYLINE
8
CUT
66
1
70
0
0
VERTEX
8
CUT
10
115.416
20
30.6872
0
VERTEX
8
CUT
10
113.516
20
28.0545
0
VERTEX
8
CUT
10
109.716
20
28.0545
0
VERTEX
8
CUT
10
107.816
20
30.6872
0
VERTEX
8
CUT
10
109.716
20
33.3199
0
VERTEX
8
CUT
10
113.516
20
33.3199
0
VERTEX
8
CUT
10
115.416
20
30.6872
0
SEQEND
0
POLYLINE
8
CUT
66
1
70
0
0
VERTEX
8
CUT
10
110.616
20
27.2231
0
VERTEX
8
CUT
10
109.116
20
27.2231
0
VERTEX
8
CUT
10
106.616
20
30.6872
0
VERTEX
8
CUT
10
109.116
20
34.1513
0
VERTEX
8
CUT
10
110.616
20
34.1513
0
SEQEND
0
POLYLINE
8
CUT
66
1
70
0
0
VERTEX
8
CUT
10
112.616
20
34.1513
0
VERTEX
8
CUT
10
114.116
20
34.1513
0
VERTEX
8
CUT
10
116.616
20
30.6872
0
VERTEX
8
CUT
10
114.116
20
27.2231
0
VERTEX
8
CUT
10
112.616
20
27.2231
0
SEQEND
0
POLYLINE
8
CUT
66
1
70
0
0
VERTEX
8
CUT
10
115.416
20
22.359
0
VERTEX
8
CUT
10
113.516
20
19.7263
0
VERTEX
8
CUT
10
109.716
20
19.7263
0
VERTEX
8
CUT
10
107.816
20
22.359
0
VERTEX
8
CUT
10
109.716
20
24.9917
0
VERTEX
8
CUT
10
113.516
20
24.9917
0
VERTEX
8
CUT
10
115.416
20
22.359
0
SEQEND
0
POLYLINE
8
CUT
66
1
70
0
0
VERTEX
8
CUT
10
110.616
20
18.8949
0
VERTEX
8
CUT
10
109.116
20
18.8949
0
VERTEX
8
CUT
10
106.616
20
22.359
0
VERTEX
8
CUT
10
109.116
20
25.8231
0
VERTEX
8
CUT
10
110.616
20
25.8231
0
SEQEND
0
POLYLINE
8
CUT
66
1
70
0
0
VERTEX
8
CUT
10
112.616
20
25.8231
0
VERTEX
8
CUT
10
114.116
20
25.8231
0
VERTEX
8
CUT
10
116.616
20
22.359
0
VERTEX
8
CUT
10
114.116
20
18.8949
0
VERTEX
8
CUT
10
112.616
20
18.8949
0
SEQEND
0
POLYLINE
8
CUT
66
1
70
0
0
VERTEX
8
CUT
10
115.416
20
14.0308
0
VERTEX
8
CUT
10
113.516
20
11.3981
0
VERTEX
8
CUT
10
109.716
20
11.3981
0
VERTEX
8
CUT
10
107.816
20
14.0308
0
VERTEX
8
CUT
10
109.716
20
16.6635
0
VERTEX
8
CUT
10
113.516
20
16.6635
0
VERTEX
8
CUT
10
115.416
20
14.0308
0
SEQEND
0
POLYLINE
8
CUT
66
1
70
0
0
VERTEX
8
CUT
10
110.616
20
10.5667
0
VERTEX
8
CUT
10
109.116
20
10.5667
0
VERTEX
8
CUT
10
106.616
20
14.0308
0
VERTEX
8
CUT
10
109.116
20
17.4949
0
VERTEX
8
CUT
10
110.616
20
17.4949
0
SEQEND
0
POLYLINE
8
CUT
66
1
70
0
0
VERTEX
8
CUT
10
112.616
20
17.4949
0
VERTEX
8
CUT
10
114.116
20
17.4949
0
VERTEX
8
CUT
10
116.616
20
14.0308
0
VERTEX
8
CUT
10
114.116
20
10.5667
0
VERTEX
8
CUT
10
112.616
20
10.5667
0
SEQEND
0
POLYLINE
8
CUT
66
1
70
0
0
VERTEX
8
CUT
10
115.416
20
5.7026
0
VERTEX
8
CUT
10
113.516
20
3.0699
0
VERTEX
8
CUT
10
109.716
20
3.0699
0
VERTEX
8
CUT
10
107.816
20
5.7026
0
VERTEX
8
CUT
10
109.716
20
8.3353
0
VERTEX
8
CUT
10
113.516
20
8.3353
0
VERTEX
8
CUT
10
115.416
20
5.7026
0
SEQEND
0
POLYLINE
8
CUT
66
1
70
0
0
VERTEX
8
CUT
10
110.616
20
2.2385
0
VERTEX
8
CUT
10
109.116
20
2.2385
0
VERTEX
8
CUT
10
106.616
20
5.7026
0
VERTEX
8
CUT
10
109.116
20
9.1667
0
VERTEX
8
CUT
10
110.616
20
9.1667
0
SEQEND
0
POLYLINE
8
CUT
66
1
70
0
0
VERTEX
8
CUT
10
112.616
20
9.1667
0
VERTEX
8
CUT
10
114.116
20
9.1667
0
VERTEX
8
CUT
10
116.616
20
5.7026
0
VERTEX
8
CUT
10
114.116
20
2.2385
0
VERTEX
8
CUT
10
112.616
20
2.2385
0
SEQEND
0
LINE
8
CUT
10
118
20
66.1328
11
116.6524
21
68
0
POLYLINE
8
CUT
66
1
70
0
0
VERTEX
8
CUT
10
118
20
64.7
0
VERTEX
8
CUT
10
117.834
20
64.7
0
VERTEX
8
CUT
10
115.4524
20
68
0
SEQEND
0
POLYLINE
8
CUT
66
1
70
0
0
VERTEX
8
CUT
10
118
20
57.8045
0
VERTEX
8
CUT
10
116.534
20
59.8359
0
VERTEX
8
CUT
10
118
20
61.8672
0
SEQEND
0
POLYLINE
8
CUT
66
1
70
0
0
VERTEX
8
CUT
10
118
20
56.3718
0
VERTEX
8
CUT
10
117.834
20
56.3718
0
VERTEX
8
CUT
10
115.334
20
59.8359
0
VERTEX
8
CUT
10
117.834
20
63.3
0
VERTEX
8
CUT
10
118
20
63.3
0
SEQEND
0
POLYLINE
8
CUT
66
1
70
0
0
VERTEX
8
CUT
10
118
20
49.4763
0
VERTEX
8
CUT
10
116.534
20
51.5077
0
VERTEX
8
CUT
10
118
20
53.539
0
SEQEND
0
POLYLINE
8
CUT
66
1
70
0
0
VERTEX
8
CUT
10
118
20
48.0436
0
VERTEX
8
CUT
10
117.834
20
48.0436
0
VERTEX
8
CUT
10
115.334
20
51.5077
0
VERTEX
8
CUT
10
117.834
20
54.9718
0
VERTEX
8
CUT
10
118
20
54.9718
0
SEQEND
0
POLYLINE
8
CUT
66
1
70
0
0
VERTEX
8
CUT
10
118
20
41.1481
0
VERTEX
8
CUT
10
116.534
20
43.1795
0
VERTEX
8
CUT
10
118
20
45.2108
0
SEQEND
0
POLYLINE
8
CUT
66
1
70
0
0
VERTEX
8
CUT
10
118
20
39.7154
0
VERTEX
8
CUT
10
117.834
20
39.7154
0
VERTEX
8
CUT
10
115.334
20
43.1795
0
VERTEX
8
CUT
10
117.834
20
46.6436
0
VERTEX
8
CUT
10
118
20
46.6436
0
SEQEND
0
POLYLINE
8
CUT
66
1
70
0
0
VERTEX
8
CUT
10
118
20
32.8199
0
VERTEX
8
CUT
10
116.534
20
34.8513
0
VERTEX
8
CUT
10
118
20
36.8826
0
SEQEND
0
POLYLINE
8
CUT
66
1
70
0
0
VERTEX
8
CUT
10
118
20
31.3872
0
VERTEX
8
CUT
10
117.834
20
31.3872
0
VERTEX
8
CUT
10
115.334
20
34.8513
0
VERTEX
8
CUT
10
117.834
20
38.3154
0
VERTEX
8
CUT
10
118
20
38.3154
0
SEQEND
0
POLYLINE
8
CUT
66
1
70
0
0
VERTEX
8
CUT
10
118
20
24.4917
0
VERTEX
8
CUT
10
116.534
20
26.5231
0
VERTEX
8
CUT
10
118
20
28.5544
0
SEQEND
0
POLYLINE
8
CUT
66
1
70
0
0
VERTEX
8
CUT
10
118
20
23.059
0
VERTEX
8
CUT
10
117.834
20
23.059
0
VERTEX
8
CUT
10
115.334
20
26.5231
0
VERTEX
8
CUT
10
117.834
20
29.9872
0
VERTEX
8
CUT
10
118
20
29.9872
0
SEQEND
0
POLYLINE
8
CUT
66
1
70
0
0
VERTEX
8
CUT
10
118
20
16.1635
0
VERTEX
8
CUT
10
116.534
20
18.1949
0
VERTEX
8
CUT
10
118
20
20.2262
0
SEQEND
0
POLYLINE
8
CUT
66
1
70
0
0
VERTEX
8
CUT
10
118
20
14.7308
0
VERTEX
8
CUT
10
117.834
20
14.7308
0
VERTEX
8
CUT
10
115.334
20
18.1949
0
VERTEX
8
CUT
10
117.834
20
21.659
0
VERTEX
8
CUT
10
118
20
21.659
0
SEQEND
0
POLYLINE
8
CUT
66
1
70
0
0
VERTEX
8
CUT
10
118
20
7.8353
0
VERTEX
8
CUT
10
116.534
20
9.8667
0
VERTEX
8
CUT
10
118
20
11.898
0
SEQEND
0
POLYLINE
8
CUT
66
1
70
0
0
VERTEX
8
CUT
10
118
20
6.4026
0
VERTEX
8
CUT
10
117.834
20
6.4026
0
VERTEX
8
CUT
10
115.334
20
9.8667
0
VERTEX
8
CUT
10
117.834
20
13.3308
0
VERTEX
8
CUT
10
118
20
13.3308
0
SEQEND
0
LINE
8
CUT
10
116.8671
20
2
11
118
21
3.5698
0
POLYLINE
8
CUT
66
1
70
0
0
VERTEX
8
CUT
10
115.6671
20
2
0
VERTEX
8
CUT
10
117.834
20
5.0026
0
VERTEX
8
CUT
10
118
20
5.0026
0
SEQEND
0
POLYLINE
8
CUT
66
1
70
0
0
VERTEX
8
CUT
10
0
20
70
0
VERTEX
8
CUT
10
120
20
70
0
VERTEX
8
CUT
10
120
20
0
0
VERTEX
8
CUT
10
0
20
0
0
VERTEX
8
CUT
10
0
20
70
0
SEQEND
0
ENDSEC
0
EOF
