0
SECTION
2
HEADER
9
$ACADVER
1
AC1009
9
$INSUNITS
70
4
0
ENDSEC
0
SECTION
2
TABLES
0
TABLE
2
LAYER
70
1
0
LAYER
2
CUT
70
0
62
1
6
CONTINUOUS
0
ENDTAB
0
ENDSEC
0
SECTION
2
ENTITIES
0
POLYLINE
8
CUT
66
1
70
0
0
VERTEX
8
CUT
10
6
20
68
0
VERTEX
8
CUT
10
6.3262
20
67.4118
0
VERTEX
8
CUT
10
6.9244
20
66.2353
0
VERTEX
8
CUT
10
7.3689
20
65.0588
0
VERTEX
8
CUT
10
7.5858
20
63.8824
0
VERTEX
8
CUT
10
7.5389
20
62.7059
0
VERTEX
8
CUT
10
7.2362
20
61.5294
0
VERTEX
8
CUT
10
6.7278
20
60.3529
0
VERTEX
8
CUT
10
6.0985
20
59.1765
0
VERTEX
8
CUT
10
5.4528
20
58
0
SEQEND
0
POLYLINE
8
CUT
66
1
70
0
0
VERTEX
8
CUT
10
4.6144
20
56
0
VERTEX
8
CUT
10
4.4102
20
54.8235
0
VERTEX
8
CUT
10
4.4704
20
53.6471
0
VERTEX
8
CUT
10
4.785
20
52.4706
0
VERTEX
8
CUT
10
5.3016
20
51.2941
0
VERTEX
8
CUT
10
5.9343
20
50.1176
0
VERTEX
8
CUT
10
6.578
20
48.9412
0
VERTEX
8
CUT
10
7.1255
20
47.7647
0
VERTEX
8
CUT
10
7.4859
20
46.5882
0
VERTEX
8
CUT
10
7.5992
20
45.4118
0
VERTEX
8
CUT
10
7.4466
20
44.2353
0
VERTEX
8
CUT
10
7.0534
20
43.0588
0
VERTEX
8
CUT
10
6.485
20
41.8824
0
VERTEX
8
CUT
10
5.836
20
40.7059
0
VERTEX
8
CUT
10
5.2143
20
39.5294
0
VERTEX
8
CUT
10
4.7232
20
38.3529
0
VERTEX
8
CUT
10
4.4444
20
37.1765
0
VERTEX
8
CUT
10
4.4243
20
36
0
SEQEND
0
POLYLINE
8
CUT
66
1
70
0
0
VERTEX
8
CUT
10
4.9715
20
34
0
VERTEX
8
CUT
10
5.5464
20
32.8235
0
VERTEX
8
CUT
10
6.1966
20
31.6471
0
VERTEX
8
CUT
10
6.8142
20
30.4706
0
VERTEX
8
CUT
10
7.2964
20
29.2941
0
VERTEX
8
CUT
10
7.563
20
28.1176
0
VERTEX
8
CUT
10
7.5697
20
26.9412
0
VERTEX
8
CUT
10
7.3153
20
25.7647
0
VERTEX
8
CUT
10
6.8423
20
24.5882
0
VERTEX
8
CUT
10
6.2292
20
23.4118
0
VERTEX
8
CUT
10
5.578
20
22.2353
0
VERTEX
8
CUT
10
4.9969
20
21.0588
0
VERTEX
8
CUT
10
4.5827
20
19.8824
0
VERTEX
8
CUT
10
4.4041
20
18.7059
0
VERTEX
8
CUT
10
4.491
20
17.5294
0
VERTEX
8
CUT
10
4.8287
20
16.3529
0
VERTEX
8
CUT
10
5.3612
20
15.1765
0
VERTEX
8
CUT
10
6
20
14
0
SEQEND
0
POLYLINE
8
CUT
66
1
70
0
0
VERTEX
8
CUT
10
7.0285
20
12
0
VERTEX
8
CUT
10
7.4323
20
10.8235
0
VERTEX
8
CUT
10
7.5979
20
9.6471
0
VERTEX
8
CUT
10
7.4978
20
8.4706
0
VERTEX
8
CUT
10
7.1487
20
7.2941
0
VERTEX
8
CUT
10
6.6085
20
6.1176
0
VERTEX
8
CUT
10
5.9671
20
4.9412
0
VERTEX
8
CUT
10
5.3313
20
3.7647
0
VERTEX
8
CUT
10
4.8066
20
2.5882
0
VERTEX
8
CUT
10
4.6435
20
2
0
SEQEND
0
POLYLINE
8
CUT
66
1
70
0
0
VERTEX
8
CUT
10
12.5472
20
67
0
VERTEX
8
CUT
10
13.102
20
65.8235
0
VERTEX
8
CUT
10
13.4734
20
64.6471
0
VERTEX
8
CUT
10
13.5999
20
63.4706
0
VERTEX
8
CUT
10
13.4603
20
62.2941
0
VERTEX
8
CUT
10
13.0779
20
61.1176
0
VERTEX
8
CUT
10
12.5162
20
59.9412
0
VERTEX
8
CUT
10
11.8687
20
58.7647
0
VERTEX
8
CUT
10
11.2431
20
57.5882
0
VERTEX
8
CUT
10
10.7432
20
56.4118
0
VERTEX
8
CUT
10
10.4524
20
55.2353
0
VERTEX
8
CUT
10
10.4189
20
54.0588
0
VERTEX
8
CUT
10
10.6484
20
52.8824
0
VERTEX
8
CUT
10
11.1026
20
51.7059
0
VERTEX
8
CUT
10
11.706
20
50.5294
0
VERTEX
8
CUT
10
12.3583
20
49.3529
0
VERTEX
8
CUT
10
12.9511
20
48.1765
0
VERTEX
8
CUT
10
13.3856
20
47
0
SEQEND
0
POLYLINE
8
CUT
66
1
70
0
0
VERTEX
8
CUT
10
13.5757
20
45
0
VERTEX
8
CUT
10
13.3338
20
43.8235
0
VERTEX
8
CUT
10
12.87
20
42.6471
0
VERTEX
8
CUT
10
12.2616
20
41.4706
0
VERTEX
8
CUT
10
11.6097
20
40.2941
0
VERTEX
8
CUT
10
11.0227
20
39.1176
0
VERTEX
8
CUT
10
10.5982
20
37.9412
0
VERTEX
8
CUT
10
10.4068
20
36.7647
0
VERTEX
8
CUT
10
10.4804
20
35.5882
0
VERTEX
8
CUT
10
10.8066
20
34.4118
0
VERTEX
8
CUT
10
11.3313
20
33.2353
0
VERTEX
8
CUT
10
11.9671
20
32.0588
0
VERTEX
8
CUT
10
12.6085
20
30.8824
0
VERTEX
8
CUT
10
13.1487
20
29.7059
0
VERTEX
8
CUT
10
13.4978
20
28.5294
0
VERTEX
8
CUT
10
13.5979
20
27.3529
0
VERTEX
8
CUT
10
13.4323
20
26.1765
0
VERTEX
8
CUT
10
13.0285
20
25
0
SEQEND
0
POLYLINE
8
CUT
66
1
70
0
0
VERTEX
8
CUT
10
12
20
23
0
VERTEX
8
CUT
10
11.3612
20
21.8235
0
VERTEX
8
CUT
10
10.8287
20
20.6471
0
VERTEX
8
CUT
10
10.491
20
19.4706
0
VERTEX
8
CUT
10
10.4041
20
18.2941
0
VERTEX
8
CUT
10
10.5827
20
17.1176
0
VERTEX
8
CUT
10
10.9969
20
15.9412
0
VERTEX
8
CUT
10
11.578
20
14.7647
0
VERTEX
8
CUT
10
12.2292
20
13.5882
0
VERTEX
8
CUT
10
12.8423
20
12.4118
0
VERTEX
8
CUT
10
13.3153
20
11.2353
0
VERTEX
8
CUT
10
13.5697
20
10.0588
0
VERTEX
8
CUT
10
13.563
20
8.8824
0
VERTEX
8
CUT
10
13.2964
20
7.7059
0
VERTEX
8
CUT
10
12.8142
20
6.5294
0
VERTEX
8
CUT
10
12.1966
20
5.3529
0
VERTEX
8
CUT
10
11.5464
20
4.1765
0
VERTEX
8
CUT
10
10.9715
20
3
0
SEQEND
0
POLYLINE
8
CUT
66
1
70
0
0
VERTEX
8
CUT
10
18
20
68
0
VERTEX
8
CUT
10
18.3262
20
67.4118
0
VERTEX
8
CUT
10
18.9244
20
66.2353
0
VERTEX
8
CUT
10
19.3689
20
65.0588
0
VERTEX
8
CUT
10
19.5858
20
63.8824
0
VERTEX
8
CUT
10
19.5389
20
62.7059
0
VERTEX
8
CUT
10
19.2362
20
61.5294
0
VERTEX
8
CUT
10
18.7278
20
60.3529
0
VERTEX
8
CUT
10
18.0985
20
59.1765
0
VERTEX
8
CUT
10
17.4528
20
58
0
SEQEND
0
POLYLINE
8
CUT
66
1
70
0
0
VERTEX
8
CUT
10
16.6144
20
56
0
VERTEX
8
CUT
10
16.4102
20
54.8235
0
VERTEX
8
CUT
10
16.4704
20
53.6471
0
VERTEX
8
CUT
10
16.785
20
52.4706
0
VERTEX
8
CUT
10
17.3016
20
51.2941
0
VERTEX
8
CUT
10
17.9343
20
50.1176
0
VERTEX
8
CUT
10
18.578
20
48.9412
0
VERTEX
8
CUT
10
19.1255
20
47.7647
0
VERTEX
8
CUT
10
19.4859
20
46.5882
0
VERTEX
8
CUT
10
19.5992
20
45.4118
0
VERTEX
8
CUT
10
19.4466
20
44.2353
0
VERTEX
8
CUT
10
19.0534
20
43.0588
0
VERTEX
8
CUT
10
18.485
20
41.8824
0
VERTEX
8
CUT
10
17.836
20
40.7059
0
VERTEX
8
CUT
10
17.2143
20
39.5294
0
VERTEX
8
CUT
10
16.7232
20
38.3529
0
VERTEX
8
CUT
10
16.4444
20
37.1765
0
VERTEX
8
CUT
10
16.4243
20
36
0
SEQEND
0
POLYLINE
8
CUT
66
1
70
0
0
VERTEX
8
CUT
10
16.9715
20
34
0
VERTEX
8
CUT
10
17.5464
20
32.8235
0
VERTEX
8
CUT
10
18.1966
20
31.6471
0
VERTEX
8
CUT
10
18.8142
20
30.4706
0
VERTEX
8
CUT
10
19.2964
20
29.2941
0
VERTEX
8
CUT
10
19.563
20
28.1176
0
VERTEX
8
CUT
10
19.5697
20
26.9412
0
VERTEX
8
CUT
10
19.3153
20
25.7647
0
VERTEX
8
CUT
10
18.8423
20
24.5882
0
VERTEX
8
CUT
10
18.2292
20
23.4118
0
VERTEX
8
CUT
10
17.578
20
22.2353
0
VERTEX
8
CUT
10
16.9969
20
21.0588
0
VERTEX
8
CUT
10
16.5827
20
19.8824
0
VERTEX
8
CUT
10
16.4041
20
18.7059
0
VERTEX
8
CUT
10
16.491
20
17.5294
0
VERTEX
8
CUT
10
16.8287
20
16.3529
0
VERTEX
8
CUT
10
17.3612
20
15.1765
0
VERTEX
8
CUT
10
18
20
14
0
SEQEND
0
POLYLINE
8
CUT
66
1
70
0
0
VERTEX
8
CUT
10
19.0285
20
12
0
VERTEX
8
CUT
10
19.4323
20
10.8235
0
VERTEX
8
CUT
10
19.5979
20
9.6471
0
VERTEX
8
CUT
10
19.4978
20
8.4706
0
VERTEX
8
CUT
10
19.1487
20
7.2941
0
VERTEX
8
CUT
10
18.6085
20
6.1176
0
VERTEX
8
CUT
10
17.9671
20
4.9412
0
VERTEX
8
CUT
10
17.3313
20
3.7647
0
VERTEX
8
CUT
10
16.8066
20
2.5882
0
VERTEX
8
CUT
10
16.6435
20
2
0
SEQEND
0
POLYLINE
8
CUT
66
1
70
0
0
VERTEX
8
CUT
10
24.5472
20
67
0
VERTEX
8
CUT
10
25.102
20
65.8235
0
VERTEX
8
CUT
10
25.4734
20
64.6471
0
VERTEX
8
CUT
10
25.5999
20
63.4706
0
VERTEX
8
CUT
10
25.4603
20
62.2941
0
VERTEX
8
CUT
10
25.0779
20
61.1176
0
VERTEX
8
CUT
10
24.5162
20
59.9412
0
VERTEX
8
CUT
10
23.8687
20
58.7647
0
VERTEX
8
CUT
10
23.2431
20
57.5882
0
VERTEX
8
CUT
10
22.7432
20
56.4118
0
VERTEX
8
CUT
10
22.4524
20
55.2353
0
VERTEX
8
CUT
10
22.4189
20
54.0588
0
VERTEX
8
CUT
10
22.6484
20
52.8824
0
VERTEX
8
CUT
10
23.1026
20
51.7059
0
VERTEX
8
CUT
10
23.706
20
50.5294
0
VERTEX
8
CUT
10
24.3583
20
49.3529
0
VERTEX
8
CUT
10
24.9511
20
48.1765
0
VERTEX
8
CUT
10
25.3856
20
47
0
SEQEND
0
POLYLINE
8
CUT
66
1
70
0
0
VERTEX
8
CUT
10
25.5757
20
45
0
VERTEX
8
CUT
10
25.3338
20
43.8235
0
VERTEX
8
CUT
10
24.87
20
42.6471
0
VERTEX
8
CUT
10
24.2616
20
41.4706
0
VERTEX
8
CUT
10
23.6097
20
40.2941
0
VERTEX
8
CUT
10
23.0227
20
39.1176
0
VERTEX
8
CUT
10
22.5982
20
37.9412
0
VERTEX
8
CUT
10
22.4068
20
36.7647
0
VERTEX
8
CUT
10
22.4804
20
35.5882
0
VERTEX
8
CUT
10
22.8066
20
34.4118
0
VERTEX
8
CUT
10
23.3313
20
33.2353
0
VERTEX
8
CUT
10
23.9671
20
32.0588
0
VERTEX
8
CUT
10
24.6085
20
30.8824
0
VERTEX
8
CUT
10
25.1487
20
29.7059
0
VERTEX
8
CUT
10
25.4978
20
28.5294
0
VERTEX
8
CUT
10
25.5979
20
27.3529
0
VERTEX
8
CUT
10
25.4323
20
26.1765
0
VERTEX
8
CUT
10
25.0285
20
25
0
SEQEND
0
POLYLINE
8
CUT
66
1
70
0
0
VERTEX
8
CUT
10
24
20
23
0
VERTEX
8
CUT
10
23.3612
20
21.8235
0
VERTEX
8
CUT
10
22.8287
20
20.6471
0
VERTEX
8
CUT
10
22.491
20
19.4706
0
VERTEX
8
CUT
10
22.4041
20
18.2941
0
VERTEX
8
CUT
10
22.5827
20
17.1176
0
VERTEX
8
CUT
10
22.9969
20
15.9412
0
VERTEX
8
CUT
10
23.578
20
14.7647
0
VERTEX
8
CUT
10
24.2292
20
13.5882
0
VERTEX
8
CUT
10
24.8423
20
12.4118
0
VERTEX
8
CUT
10
25.3153
20
11.2353
0
VERTEX
8
CUT
10
25.5697
20
10.0588
0
VERTEX
8
CUT
10
25.563
20
8.8824
0
VERTEX
8
CUT
10
25.2964
20
7.7059
0
VERTEX
8
CUT
10
24.8142
20
6.5294
0
VERTEX
8
CUT
10
24.1966
20
5.3529
0
VERTEX
8
CUT
10
23.5464
20
4.1765
0
VERTEX
8
CUT
10
22.9715
20
3
0
SEQEND
0
POLYLINE
8
CUT
66
1
70
0
0
VERTEX
8
CUT
10
30
20
68
0
VERTEX
8
CUT
10
30.3262
20
67.4118
0
VERTEX
8
CUT
10
30.9244
20
66.2353
0
VERTEX
8
CUT
10
31.3689
20
65.0588
0
VERTEX
8
CUT
10
31.5858
20
63.8824
0
VERTEX
8
CUT
10
31.5389
20
62.7059
0
VERTEX
8
CUT
10
31.2362
20
61.5294
0
VERTEX
8
CUT
10
30.7278
20
60.3529
0
VERTEX
8
CUT
10
30.0985
20
59.1765
0
VERTEX
8
CUT
10
29.4528
20
58
0
SEQEND
0
POLYLINE
8
CUT
66
1
70
0
0
VERTEX
8
CUT
10
28.6144
20
56
0
VERTEX
8
CUT
10
28.4102
20
54.8235
0
VERTEX
8
CUT
10
28.4704
20
53.6471
0
VERTEX
8
CUT
10
28.785
20
52.4706
0
VERTEX
8
CUT
10
29.3016
20
51.2941
0
VERTEX
8
CUT
10
29.9343
20
50.1176
0
VERTEX
8
CUT
10
30.578
20
48.9412
0
VERTEX
8
CUT
10
31.1255
20
47.7647
0
VERTEX
8
CUT
10
31.4859
20
46.5882
0
VERTEX
8
CUT
10
31.5992
20
45.4118
0
VERTEX
8
CUT
10
31.4466
20
44.2353
0
VERTEX
8
CUT
10
31.0534
20
43.0588
0
VERTEX
8
CUT
10
30.485
20
41.8824
0
VERTEX
8
CUT
10
29.836
20
40.7059
0
VERTEX
8
CUT
10
29.2143
20
39.5294
0
VERTEX
8
CUT
10
28.7232
20
38.3529
0
VERTEX
8
CUT
10
28.4444
20
37.1765
0
VERTEX
8
CUT
10
28.4243
20
36
0
SEQEND
0
POLYLINE
8
CUT
66
1
70
0
0
VERTEX
8
CUT
10
28.9715
20
34
0
VERTEX
8
CUT
10
29.5464
20
32.8235
0
VERTEX
8
CUT
10
30.1966
20
31.6471
0
VERTEX
8
CUT
10
30.8142
20
30.4706
0
VERTEX
8
CUT
10
31.2964
20
29.2941
0
VERTEX
8
CUT
10
31.563
20
28.1176
0
VERTEX
8
CUT
10
31.5697
20
26.9412
0
VERTEX
8
CUT
10
31.3153
20
25.7647
0
VERTEX
8
CUT
10
30.8423
20
24.5882
0
VERTEX
8
CUT
10
30.2292
20
23.4118
0
VERTEX
8
CUT
10
29.578
20
22.2353
0
VERTEX
8
CUT
10
28.9969
20
21.0588
0
VERTEX
8
CUT
10
28.5827
20
19.8824
0
VERTEX
8
CUT
10
28.4041
20
18.7059
0
VERTEX
8
CUT
10
28.491
20
17.5294
0
VERTEX
8
CUT
10
28.8287
20
16.3529
0
VERTEX
8
CUT
10
29.3612
20
15.1765
0
VERTEX
8
CUT
10
30
20
14
0
SEQEND
0
POLYLINE
8
CUT
66
1
70
0
0
VERTEX
8
CUT
10
31.0285
20
12
0
VERTEX
8
CUT
10
31.4323
20
10.8235
0
VERTEX
8
CUT
10
31.5979
20
9.6471
0
VERTEX
8
CUT
10
31.4978
20
8.4706
0
VERTEX
8
CUT
10
31.1487
20
7.2941
0
VERTEX
8
CUT
10
30.6085
20
6.1176
0
VERTEX
8
CUT
10
29.9671
20
4.9412
0
VERTEX
8
CUT
10
29.3313
20
3.7647
0
VERTEX
8
CUT
10
28.8066
20
2.5882
0
VERTEX
8
CUT
10
28.6435
20
2
0
SEQEND
0
POLYLINE
8
CUT
66
1
70
0
0
VERTEX
8
CUT
10
36.5472
20
67
0
VERTEX
8
CUT
10
37.102
20
65.8235
0
VERTEX
8
CUT
10
37.4734
20
64.6471
0
VERTEX
8
CUT
10
37.5999
20
63.4706
0
VERTEX
8
CUT
10
37.4603
20
62.2941
0
VERTEX
8
CUT
10
37.0779
20
61.1176
0
VERTEX
8
CUT
10
36.5162
20
59.9412
0
VERTEX
8
CUT
10
35.8687
20
58.7647
0
VERTEX
8
CUT
10
35.2431
20
57.5882
0
VERTEX
8
CUT
10
34.7432
20
56.4118
0
VERTEX
8
CUT
10
34.4524
20
55.2353
0
VERTEX
8
CUT
10
34.4189
20
54.0588
0
VERTEX
8
CUT
10
34.6484
20
52.8824
0
VERTEX
8
CUT
10
35.1026
20
51.7059
0
VERTEX
8
CUT
10
35.706
20
50.5294
0
VERTEX
8
CUT
10
36.3583
20
49.3529
0
VERTEX
8
CUT
10
36.9511
20
48.1765
0
VERTEX
8
CUT
10
37.3856
20
47
0
SEQEND
0
POLYLINE
8
CUT
66
1
70
0
0
VERTEX
8
CUT
10
37.5757
20
45
0
VERTEX
8
CUT
10
37.3338
20
43.8235
0
VERTEX
8
CUT
10
36.87
20
42.6471
0
VERTEX
8
CUT
10
36.2616
20
41.4706
0
VERTEX
8
CUT
10
35.6097
20
40.2941
0
VERTEX
8
CUT
10
35.0227
20
39.1176
0
VERTEX
8
CUT
10
34.5982
20
37.9412
0
VERTEX
8
CUT
10
34.4068
20
36.7647
0
VERTEX
8
CUT
10
34.4804
20
35.5882
0
VERTEX
8
CUT
10
34.8066
20
34.4118
0
VERTEX
8
CUT
10
35.3313
20
33.2353
0
VERTEX
8
CUT
10
35.9671
20
32.0588
0
VERTEX
8
CUT
10
36.6085
20
30.8824
0
VERTEX
8
CUT
10
37.1487
20
29.7059
0
VERTEX
8
CUT
10
37.4978
20
28.5294
0
VERTEX
8
CUT
10
37.5979
20
27.3529
0
VERTEX
8
CUT
10
37.4323
20
26.1765
0
VERTEX
8
CUT
10
37.0285
20
25
0
SEQEND
0
POLYLINE
8
CUT
66
1
70
0
0
VERTEX
8
CUT
10
36
20
23
0
VERTEX
8
CUT
10
35.3612
20
21.8235
0
VERTEX
8
CUT
10
34.8287
20
20.6471
0
VERTEX
8
CUT
10
34.491
20
19.4706
0
VERTEX
8
CUT
10
34.4041
20
18.2941
0
VERTEX
8
CUT
10
34.5827
20
17.1176
0
VERTEX
8
CUT
10
34.9969
20
15.9412
0
VERTEX
8
CUT
10
35.578
20
14.7647
0
VERTEX
8
CUT
10
36.2292
20
13.5882
0
VERTEX
8
CUT
10
36.8423
20
12.4118
0
VERTEX
8
CUT
10
37.3153
20
11.2353
0
VERTEX
8
CUT
10
37.5697
20
10.0588
0
VERTEX
8
CUT
10
37.563
20
8.8824
0
VERTEX
8
CUT
10
37.2964
20
7.7059
0
VERTEX
8
CUT
10
36.8142
20
6.5294
0
VERTEX
8
CUT
10
36.1966
20
5.3529
0
VERTEX
8
CUT
10
35.5464
20
4.1765
0
VERTEX
8
CUT
10
34.9715
20
3
0
SEQEND
0
POLYLINE
8
CUT
66
1
70
0
0
VERTEX
8
CUT
10
42
20
68
0
VERTEX
8
CUT
10
42.3262
20
67.4118
0
VERTEX
8
CUT
10
42.9244
20
66.2353
0
VERTEX
8
CUT
10
43.3689
20
65.0588
0
VERTEX
8
CUT
10
43.5858
20
63.8824
0
VERTEX
8
CUT
10
43.5389
20
62.7059
0
VERTEX
8
CUT
10
43.2362
20
61.5294
0
VERTEX
8
CUT
10
42.7278
20
60.3529
0
VERTEX
8
CUT
10
42.0985
20
59.1765
0
VERTEX
8
CUT
10
41.4528
20
58
0
SEQEND
0
POLYLINE
8
CUT
66
1
70
0
0
VERTEX
8
CUT
10
40.6144
20
56
0
VERTEX
8
CUT
10
40.4102
20
54.8235
0
VERTEX
8
CUT
10
40.4704
20
53.6471
0
VERTEX
8
CUT
10
40.785
20
52.4706
0
VERTEX
8
CUT
10
41.3016
20
51.2941
0
VERTEX
8
CUT
10
41.9343
20
50.1176
0
VERTEX
8
CUT
10
42.578
20
48.9412
0
VERTEX
8
CUT
10
43.1255
20
47.7647
0
VERTEX
8
CUT
10
43.4859
20
46.5882
0
VERTEX
8
CUT
10
43.5992
20
45.4118
0
VERTEX
8
CUT
10
43.4466
20
44.2353
0
VERTEX
8
CUT
10
43.0534
20
43.0588
0
VERTEX
8
CUT
10
42.485
20
41.8824
0
VERTEX
8
CUT
10
41.836
20
40.7059
0
VERTEX
8
CUT
10
41.2143
20
39.5294
0
VERTEX
8
CUT
10
40.7232
20
38.3529
0
VERTEX
8
CUT
10
40.4444
20
37.1765
0
VERTEX
8
CUT
10
40.4243
20
36
0
SEQEND
0
POLYLINE
8
CUT
66
1
70
0
0
VERTEX
8
CUT
10
40.9715
20
34
0
VERTEX
8
CUT
10
41.5464
20
32.8235
0
VERTEX
8
CUT
10
42.1966
20
31.6471
0
VERTEX
8
CUT
10
42.8142
20
30.4706
0
VERTEX
8
CUT
10
43.2964
20
29.2941
0
VERTEX
8
CUT
10
43.563
20
28.1176
0
VERTEX
8
CUT
10
43.5697
20
26.9412
0
VERTEX
8
CUT
10
43.3153
20
25.7647
0
VERTEX
8
CUT
10
42.8423
20
24.5882
0
VERTEX
8
CUT
10
42.2292
20
23.4118
0
VERTEX
8
CUT
10
41.578
20
22.2353
0
VERTEX
8
CUT
10
40.9969
20
21.0588
0
VERTEX
8
CUT
10
40.5827
20
19.8824
0
VERTEX
8
CUT
10
40.4041
20
18.7059
0
VERTEX
8
CUT
10
40.491
20
17.5294
0
VERTEX
8
CUT
10
40.8287
20
16.3529
0
VERTEX
8
CUT
10
41.3612
20
15.1765
0
VERTEX
8
CUT
10
42
20
14
0
SEQEND
0
POLYLINE
8
CUT
66
1
70
0
0
VERTEX
8
CUT
10
43.0285
20
12
0
VERTEX
8
CUT
10
43.4323
20
10.8235
0
VERTEX
8
CUT
10
43.5979
20
9.6471
0
VERTEX
8
CUT
10
43.4978
20
8.4706
0
VERTEX
8
CUT
10
43.1487
20
7.2941
0
VERTEX
8
CUT
10
42.6085
20
6.1176
0
VERTEX
8
CUT
10
41.9671
20
4.9412
0
VERTEX
8
CUT
10
41.3313
20
3.7647
0
VERTEX
8
CUT
10
40.8066
20
2.5882
0
VERTEX
8
CUT
10
40.6435
20
2
0
SEQEND
0
POLYLINE
8
CUT
66
1
70
0
0
VERTEX
8
CUT
10
48.5472
20
67
0
VERTEX
8
CUT
10
49.102
20
65.8235
0
VERTEX
8
CUT
10
49.4734
20
64.6471
0
VERTEX
8
CUT
10
49.5999
20
63.4706
0
VERTEX
8
CUT
10
49.4603
20
62.2941
0
VERTEX
8
CUT
10
49.0779
20
61.1176
0
VERTEX
8
CUT
10
48.5162
20
59.9412
0
VERTEX
8
CUT
10
47.8687
20
58.7647
0
VERTEX
8
CUT
10
47.2431
20
57.5882
0
VERTEX
8
CUT
10
46.7432
20
56.4118
0
VERTEX
8
CUT
10
46.4524
20
55.2353
0
VERTEX
8
CUT
10
46.4189
20
54.0588
0
VERTEX
8
CUT
10
46.6484
20
52.8824
0
VERTEX
8
CUT
10
47.1026
20
51.7059
0
VERTEX
8
CUT
10
47.706
20
50.5294
0
VERTEX
8
CUT
10
48.3583
20
49.3529
0
VERTEX
8
CUT
10
48.9511
20
48.1765
0
VERTEX
8
CUT
10
49.3856
20
47
0
SEQEND
0
POLYLINE
8
CUT
66
1
70
0
0
VERTEX
8
CUT
10
49.5757
20
45
0
VERTEX
8
CUT
10
49.3338
20
43.8235
0
VERTEX
8
CUT
10
48.87
20
42.6471
0
VERTEX
8
CUT
10
48.2616
20
41.4706
0
VERTEX
8
CUT
10
47.6097
20
40.2941
0
VERTEX
8
CUT
10
47.0227
20
39.1176
0
VERTEX
8
CUT
10
46.5982
20
37.9412
0
VERTEX
8
CUT
10
46.4068
20
36.7647
0
VERTEX
8
CUT
10
46.4804
20
35.5882
0
VERTEX
8
CUT
10
46.8066
20
34.4118
0
VERTEX
8
CUT
10
47.3313
20
33.2353
0
VERTEX
8
CUT
10
47.9671
20
32.0588
0
VERTEX
8
CUT
10
48.6085
20
30.8824
0
VERTEX
8
CUT
10
49.1487
20
29.7059
0
VERTEX
8
CUT
10
49.4978
20
28.5294
0
VERTEX
8
CUT
10
49.5979
20
27.3529
0
VERTEX
8
CUT
10
49.4323
20
26.1765
0
VERTEX
8
CUT
10
49.0285
20
25
0
SEQEND
0
POLYLINE
8
CUT
66
1
70
0
0
VERTEX
8
CUT
10
48
20
23
0
VERTEX
8
CUT
10
47.3612
20
21.8235
0
VERTEX
8
CUT
10
46.8287
20
20.6471
0
VERTEX
8
CUT
10
46.491
20
19.4706
0
VERTEX
8
CUT
10
46.4041
20
18.2941
0
VERTEX
8
CUT
10
46.5827
20
17.1176
0
VERTEX
8
CUT
10
46.9969
20
15.9412
0
VERTEX
8
CUT
10
47.578
20
14.7647
0
VERTEX
8
CUT
10
48.2292
20
13.5882
0
VERTEX
8
CUT
10
48.8423
20
12.4118
0
VERTEX
8
CUT
10
49.3153
20
11.2353
0
VERTEX
8
CUT
10
49.5697
20
10.0588
0
VERTEX
8
CUT
10
49.563
20
8.8824
0
VERTEX
8
CUT
10
49.2964
20
7.7059
0
VERTEX
8
CUT
10
48.8142
20
6.5294
0
VERTEX
8
CUT
10
48.1966
20
5.3529
0
VERTEX
8
CUT
10
47.5464
20
4.1765
0
VERTEX
8
CUT
10
46.9715
20
3
0
SEQEND
0
POLYLINE
8
CUT
66
1
70
0
0
VERTEX
8
CUT
10
54
20
68
0
VERTEX
8
CUT
10
54.3262
20
67.4118
0
VERTEX
8
CUT
10
54.9244
20
66.2353
0
VERTEX
8
CUT
10
55.3689
20
65.0588
0
VERTEX
8
CUT
10
55.5858
20
63.8824
0
VERTEX
8
CUT
10
55.5389
20
62.7059
0
VERTEX
8
CUT
10
55.2362
20
61.5294
0
VERTEX
8
CUT
10
54.7278
20
60.3529
0
VERTEX
8
CUT
10
54.0985
20
59.1765
0
VERTEX
8
CUT
10
53.4528
20
58
0
SEQEND
0
POLYLINE
8
CUT
66
1
70
0
0
VERTEX
8
CUT
10
52.6144
20
56
0
VERTEX
8
CUT
10
52.4102
20
54.8235
0
VERTEX
8
CUT
10
52.4704
20
53.6471
0
VERTEX
8
CUT
10
52.785
20
52.4706
0
VERTEX
8
CUT
10
53.3016
20
51.2941
0
VERTEX
8
CUT
10
53.9343
20
50.1176
0
VERTEX
8
CUT
10
54.578
20
48.9412
0
VERTEX
8
CUT
10
55.1255
20
47.7647
0
VERTEX
8
CUT
10
55.4859
20
46.5882
0
VERTEX
8
CUT
10
55.5992
20
45.4118
0
VERTEX
8
CUT
10
55.4466
20
44.2353
0
VERTEX
8
CUT
10
55.0534
20
43.0588
0
VERTEX
8
CUT
10
54.485
20
41.8824
0
VERTEX
8
CUT
10
53.836
20
40.7059
0
VERTEX
8
CUT
10
53.2143
20
39.5294
0
VERTEX
8
CUT
10
52.7232
20
38.3529
0
VERTEX
8
CUT
10
52.4444
20
37.1765
0
VERTEX
8
CUT
10
52.4243
20
36
0
SEQEND
0
POLYLINE
8
CUT
66
1
70
0
0
VERTEX
8
CUT
10
52.9715
20
34
0
VERTEX
8
CUT
10
53.5464
20
32.8235
0
VERTEX
8
CUT
10
54.1966
20
31.6471
0
VERTEX
8
CUT
10
54.8142
20
30.4706
0
VERTEX
8
CUT
10
55.2964
20
29.2941
0
VERTEX
8
CUT
10
55.563
20
28.1176
0
VERTEX
8
CUT
10
55.5697
20
26.9412
0
VERTEX
8
CUT
10
55.3153
20
25.7647
0
VERTEX
8
CUT
10
54.8423
20
24.5882
0
VERTEX
8
CUT
10
54.2292
20
23.4118
0
VERTEX
8
CUT
10
53.578
20
22.2353
0
VERTEX
8
CUT
10
52.9969
20
21.0588
0
VERTEX
8
CUT
10
52.5827
20
19.8824
0
VERTEX
8
CUT
10
52.4041
20
18.7059
0
VERTEX
8
CUT
10
52.491
20
17.5294
0
VERTEX
8
CUT
10
52.8287
20
16.3529
0
VERTEX
8
CUT
10
53.3612
20
15.1765
0
VERTEX
8
CUT
10
54
20
14
0
SEQEND
0
POLYLINE
8
CUT
66
1
70
0
0
VERTEX
8
CUT
10
55.0285
20
12
0
VERTEX
8
CUT
10
55.4323
20
10.8235
0
VERTEX
8
CUT
10
55.5979
20
9.6471
0
VERTEX
8
CUT
10
55.4978
20
8.4706
0
VERTEX
8
CUT
10
55.1487
20
7.2941
0
VERTEX
8
CUT
10
54.6085
20
6.1176
0
VERTEX
8
CUT
10
53.9671
20
4.9412
0
VERTEX
8
CUT
10
53.3313
20
3.7647
0
VERTEX
8
CUT
10
52.8066
20
2.5882
0
VERTEX
8
CUT
10
52.6435
20
2
0
SEQEND
0
POLYLINE
8
CUT
66
1
70
0
0
VERTEX
8
CUT
10
60.5472
20
67
0
VERTEX
8
CUT
10
61.102
20
65.8235
0
VERTEX
8
CUT
10
61.4734
20
64.6471
0
VERTEX
8
CUT
10
61.5999
20
63.4706
0
VERTEX
8
CUT
10
61.4603
20
62.2941
0
VERTEX
8
CUT
10
61.0779
20
61.1176
0
VERTEX
8
CUT
10
60.5162
20
59.9412
0
VERTEX
8
CUT
10
59.8687
20
58.7647
0
VERTEX
8
CUT
10
59.2431
20
57.5882
0
VERTEX
8
CUT
10
58.7432
20
56.4118
0
VERTEX
8
CUT
10
58.4524
20
55.2353
0
VERTEX
8
CUT
10
58.4189
20
54.0588
0
VERTEX
8
CUT
10
58.6484
20
52.8824
0
VERTEX
8
CUT
10
59.1026
20
51.7059
0
VERTEX
8
CUT
10
59.706
20
50.5294
0
VERTEX
8
CUT
10
60.3583
20
49.3529
0
VERTEX
8
CUT
10
60.9511
20
48.1765
0
VERTEX
8
CUT
10
61.3856
20
47
0
SEQEND
0
POLYLINE
8
CUT
66
1
70
0
0
VERTEX
8
CUT
10
61.5757
20
45
0
VERTEX
8
CUT
10
61.3338
20
43.8235
0
VERTEX
8
CUT
10
60.87
20
42.6471
0
VERTEX
8
CUT
10
60.2616
20
41.4706
0
VERTEX
8
CUT
10
59.6097
20
40.2941
0
VERTEX
8
CUT
10
59.0227
20
39.1176
0
VERTEX
8
CUT
10
58.5982
20
37.9412
0
VERTEX
8
CUT
10
58.4068
20
36.7647
0
VERTEX
8
CUT
10
58.4804
20
35.5882
0
VERTEX
8
CUT
10
58.8066
20
34.4118
0
VERTEX
8
CUT
10
59.3313
20
33.2353
0
VERTEX
8
CUT
10
59.9671
20
32.0588
0
VERTEX
8
CUT
10
60.6085
20
30.8824
0
VERTEX
8
CUT
10
61.1487
20
29.7059
0
VERTEX
8
CUT
10
61.4978
20
28.5294
0
VERTEX
8
CUT
10
61.5979
20
27.3529
0
VERTEX
8
CUT
10
61.4323
20
26.1765
0
VERTEX
8
CUT
10
61.0285
20
25
0
SEQEND
0
POLYLINE
8
CUT
66
1
70
0
0
VERTEX
8
CUT
10
60
20
23
0
VERTEX
8
CUT
10
59.3612
20
21.8235
0
VERTEX
8
CUT
10
58.8287
20
20.6471
0
VERTEX
8
CUT
10
58.491
20
19.4706
0
VERTEX
8
CUT
10
58.4041
20
18.2941
0
VERTEX
8
CUT
10
58.5827
20
17.1176
0
VERTEX
8
CUT
10
58.9969
20
15.9412
0
VERTEX
8
CUT
10
59.578
20
14.7647
0
VERTEX
8
CUT
10
60.2292
20
13.5882
0
VERTEX
8
CUT
10
60.8423
20
12.4118
0
VERTEX
8
CUT
10
61.3153
20
11.2353
0
VERTEX
8
CUT
10
61.5697
20
10.0588
0
VERTEX
8
CUT
10
61.563
20
8.8824
0
VERTEX
8
CUT
10
61.2964
20
7.7059
0
VERTEX
8
CUT
10
60.8142
20
6.5294
0
VERTEX
8
CUT
10
60.1966
20
5.3529
0
VERTEX
8
CUT
10
59.5464
20
4.1765
0
VERTEX
8
CUT
10
58.9715
20
3
0
SEQEND
0
POLYLINE
8
CUT
66
1
70
0
0
VERTEX
8
CUT
10
66
20
68
0
VERTEX
8
CUT
10
66.3262
20
67.4118
0
VERTEX
8
CUT
10
66.9244
20
66.2353
0
VERTEX
8
CUT
10
67.3689
20
65.0588
0
VERTEX
8
CUT
10
67.5858
20
63.8824
0
VERTEX
8
CUT
10
67.5389
20
62.7059
0
VERTEX
8
CUT
10
67.2362
20
61.5294
0
VERTEX
8
CUT
10
66.7278
20
60.3529
0
VERTEX
8
CUT
10
66.0985
20
59.1765
0
VERTEX
8
CUT
10
65.4528
20
58
0
SEQEND
0
POLYLINE
8
CUT
66
1
70
0
0
VERTEX
8
CUT
10
64.6144
20
56
0
VERTEX
8
CUT
10
64.4102
20
54.8235
0
VERTEX
8
CUT
10
64.4704
20
53.6471
0
VERTEX
8
CUT
10
64.785
20
52.4706
0
VERTEX
8
CUT
10
65.3016
20
51.2941
0
VERTEX
8
CUT
10
65.9343
20
50.1176
0
VERTEX
8
CUT
10
66.578
20
48.9412
0
VERTEX
8
CUT
10
67.1255
20
47.7647
0
VERTEX
8
CUT
10
67.4859
20
46.5882
0
VERTEX
8
CUT
10
67.5992
20
45.4118
0
VERTEX
8
CUT
10
67.4466
20
44.2353
0
VERTEX
8
CUT
10
67.0534
20
43.0588
0
VERTEX
8
CUT
10
66.485
20
41.8824
0
VERTEX
8
CUT
10
65.836
20
40.7059
0
VERTEX
8
CUT
10
65.2143
20
39.5294
0
VERTEX
8
CUT
10
64.7232
20
38.3529
0
VERTEX
8
CUT
10
64.4444
20
37.1765
0
VERTEX
8
CUT
10
64.4243
20
36
0
SEQEND
0
POLYLINE
8
CUT
66
1
70
0
0
VERTEX
8
CUT
10
64.9715
20
34
0
VERTEX
8
CUT
10
65.5464
20
32.8235
0
VERTEX
8
CUT
10
66.1966
20
31.6471
0
VERTEX
8
CUT
10
66.8142
20
30.4706
0
VERTEX
8
CUT
10
67.2964
20
29.2941
0
VERTEX
8
CUT
10
67.563
20
28.1176
0
VERTEX
8
CUT
10
67.5697
20
26.9412
0
VERTEX
8
CUT
10
67.3153
20
25.7647
0
VERTEX
8
CUT
10
66.8423
20
24.5882
0
VERTEX
8
CUT
10
66.2292
20
23.4118
0
VERTEX
8
CUT
10
65.578
20
22.2353
0
VERTEX
8
CUT
10
64.9969
20
21.0588
0
VERTEX
8
CUT
10
64.5827
20
19.8824
0
VERTEX
8
CUT
10
64.4041
20
18.7059
0
VERTEX
8
CUT
10
64.491
20
17.5294
0
VERTEX
8
CUT
10
64.8287
20
16.3529
0
VERTEX
8
CUT
10
65.3612
20
15.1765
0
VERTEX
8
CUT
10
66
20
14
0
SEQEND
0
POLYLINE
8
CUT
66
1
70
0
0
VERTEX
8
CUT
10
67.0285
20
12
0
VERTEX
8
CUT
10
67.4323
20
10.8235
0
VERTEX
8
CUT
10
67.5979
20
9.6471
0
VERTEX
8
CUT
10
67.4978
20
8.4706
0
VERTEX
8
CUT
10
67.1487
20
7.2941
0
VERTEX
8
CUT
10
66.6085
20
6.1176
0
VERTEX
8
CUT
10
65.9671
20
4.9412
0
VERTEX
8
CUT
10
65.3313
20
3.7647
0
VERTEX
8
CUT
10
64.8066
20
2.5882
0
VERTEX
8
CUT
10
64.6435
20
2
0
SEQEND
0
POLYLINE
8
CUT
66
1
70
0
0
VERTEX
8
CUT
10
72.5472
20
67
0
VERTEX
8
CUT
10
73.102
20
65.8235
0
VERTEX
8
CUT
10
73.4734
20
64.6471
0
VERTEX
8
CUT
10
73.5999
20
63.4706
0
VERTEX
8
CUT
10
73.4603
20
62.2941
0
VERTEX
8
CUT
10
73.0779
20
61.1176
0
VERTEX
8
CUT
10
72.5162
20
59.9412
0
VERTEX
8
CUT
10
71.8687
20
58.7647
0
VERTEX
8
CUT
10
71.2431
20
57.5882
0
VERTEX
8
CUT
10
70.7432
20
56.4118
0
VERTEX
8
CUT
10
70.4524
20
55.2353
0
VERTEX
8
CUT
10
70.4189
20
54.0588
0
VERTEX
8
CUT
10
70.6484
20
52.8824
0
VERTEX
8
CUT
10
71.1026
20
51.7059
0
VERTEX
8
CUT
10
71.706
20
50.5294
0
VERTEX
8
CUT
10
72.3583
20
49.3529
0
VERTEX
8
CUT
10
72.9511
20
48.1765
0
VERTEX
8
CUT
10
73.3856
20
47
0
SEQEND
0
POLYLINE
8
CUT
66
1
70
0
0
VERTEX
8
CUT
10
73.5757
20
45
0
VERTEX
8
CUT
10
73.3338
20
43.8235
0
VERTEX
8
CUT
10
72.87
20
42.6471
0
VERTEX
8
CUT
10
72.2616
20
41.4706
0
VERTEX
8
CUT
10
71.6097
20
40.2941
0
VERTEX
8
CUT
10
71.0227
20
39.1176
0
VERTEX
8
CUT
10
70.5982
20
37.9412
0
VERTEX
8
CUT
10
70.4068
20
36.7647
0
VERTEX
8
CUT
10
70.4804
20
35.5882
0
VERTEX
8
CUT
10
70.8066
20
34.4118
0
VERTEX
8
CUT
10
71.3313
20
33.2353
0
VERTEX
8
CUT
10
71.9671
20
32.0588
0
VERTEX
8
CUT
10
72.6085
20
30.8824
0
VERTEX
8
CUT
10
73.1487
20
29.7059
0
VERTEX
8
CUT
10
73.4978
20
28.5294
0
VERTEX
8
CUT
10
73.5979
20
27.3529
0
VERTEX
8
CUT
10
73.4323
20
26.1765
0
VERTEX
8
CUT
10
73.0285
20
25
0
SEQEND
0
POLYLINE
8
CUT
66
1
70
0
0
VERTEX
8
CUT
10
72
20
23
0
VERTEX
8
CUT
10
71.3612
20
21.8235
0
VERTEX
8
CUT
10
70.8287
20
20.6471
0
VERTEX
8
CUT
10
70.491
20
19.4706
0
VERTEX
8
CUT
10
70.4041
20
18.2941
0
VERTEX
8
CUT
10
70.5827
20
17.1176
0
VERTEX
8
CUT
10
70.9969
20
15.9412
0
VERTEX
8
CUT
10
71.578
20
14.7647
0
VERTEX
8
CUT
10
72.2292
20
13.5882
0
VERTEX
8
CUT
10
72.8423
20
12.4118
0
VERTEX
8
CUT
10
73.3153
20
11.2353
0
VERTEX
8
CUT
10
73.5697
20
10.0588
0
VERTEX
8
CUT
10
73.563
20
8.8824
0
VERTEX
8
CUT
10
73.2964
20
7.7059
0
VERTEX
8
CUT
10
72.8142
20
6.5294
0
VERTEX
8
CUT
10
72.1966
20
5.3529
0
VERTEX
8
CUT
10
71.5464
20
4.1765
0
VERTEX
8
CUT
10
70.9715
20
3
0
SEQEND
0
POLYLINE
8
CUT
66
1
70
0
0
VERTEX
8
CUT
10
78
20
68
0
VERTEX
8
CUT
10
78.3262
20
67.4118
0
VERTEX
8
CUT
10
78.9244
20
66.2353
0
VERTEX
8
CUT
10
79.3689
20
65.0588
0
VERTEX
8
CUT
10
79.5858
20
63.8824
0
VERTEX
8
CUT
10
79.5389
20
62.7059
0
VERTEX
8
CUT
10
79.2362
20
61.5294
0
VERTEX
8
CUT
10
78.7278
20
60.3529
0
VERTEX
8
CUT
10
78.0985
20
59.1765
0
VERTEX
8
CUT
10
77.4528
20
58
0
SEQEND
0
POLYLINE
8
CUT
66
1
70
0
0
VERTEX
8
CUT
10
76.6144
20
56
0
VERTEX
8
CUT
10
76.4102
20
54.8235
0
VERTEX
8
CUT
10
76.4704
20
53.6471
0
VERTEX
8
CUT
10
76.785
20
52.4706
0
VERTEX
8
CUT
10
77.3016
20
51.2941
0
VERTEX
8
CUT
10
77.9343
20
50.1176
0
VERTEX
8
CUT
10
78.578
20
48.9412
0
VERTEX
8
CUT
10
79.1255
20
47.7647
0
VERTEX
8
CUT
10
79.4859
20
46.5882
0
VERTEX
8
CUT
10
79.5992
20
45.4118
0
VERTEX
8
CUT
10
79.4466
20
44.2353
0
VERTEX
8
CUT
10
79.0534
20
43.0588
0
VERTEX
8
CUT
10
78.485
20
41.8824
0
VERTEX
8
CUT
10
77.836
20
40.7059
0
VERTEX
8
CUT
10
77.2143
20
39.5294
0
VERTEX
8
CUT
10
76.7232
20
38.3529
0
VERTEX
8
CUT
10
76.4444
20
37.1765
0
VERTEX
8
CUT
10
76.4243
20
36
0
SEQEND
0
POLYLINE
8
CUT
66
1
70
0
0
VERTEX
8
CUT
10
76.9715
20
34
0
VERTEX
8
CUT
10
77.5464
20
32.8235
0
VERTEX
8
CUT
10
78.1966
20
31.6471
0
VERTEX
8
CUT
10
78.8142
20
30.4706
0
VERTEX
8
CUT
10
79.2964
20
29.2941
0
VERTEX
8
CUT
10
79.563
20
28.1176
0
VERTEX
8
CUT
10
79.5697
20
26.9412
0
VERTEX
8
CUT
10
79.3153
20
25.7647
0
VERTEX
8
CUT
10
78.8423
20
24.5882
0
VERTEX
8
CUT
10
78.2292
20
23.4118
0
VERTEX
8
CUT
10
77.578
20
22.2353
0
VERTEX
8
CUT
10
76.9969
20
21.0588
0
VERTEX
8
CUT
10
76.5827
20
19.8824
0
VERTEX
8
CUT
10
76.4041
20
18.7059
0
VERTEX
8
CUT
10
76.491
20
17.5294
0
VERTEX
8
CUT
10
76.8287
20
16.3529
0
VERTEX
8
CUT
10
77.3612
20
15.1765
0
VERTEX
8
CUT
10
78
20
14
0
SEQEND
0
POLYLINE
8
CUT
66
1
70
0
0
VERTEX
8
CUT
10
79.0285
20
12
0
VERTEX
8
CUT
10
79.4323
20
10.8235
0
VERTEX
8
CUT
10
79.5979
20
9.6471
0
VERTEX
8
CUT
10
79.4978
20
8.4706
0
VERTEX
8
CUT
10
79.1487
20
7.2941
0
VERTEX
8
CUT
10
78.6085
20
6.1176
0
VERTEX
8
CUT
10
77.9671
20
4.9412
0
VERTEX
8
CUT
10
77.3313
20
3.7647
0
VERTEX
8
CUT
10
76.8066
20
2.5882
0
VERTEX
8
CUT
10
76.6435
20
2
0
SEQEND
0
POLYLINE
8
CUT
66
1
70
0
0
VERTEX
8
CUT
10
84.5472
20
67
0
VERTEX
8
CUT
10
85.102
20
65.8235
0
VERTEX
8
CUT
10
85.4734
20
64.6471
0
VERTEX
8
CUT
10
85.5999
20
63.4706
0
VERTEX
8
CUT
10
85.4603
20
62.2941
0
VERTEX
8
CUT
10
85.0779
20
61.1176
0
VERTEX
8
CUT
10
84.5162
20
59.9412
0
VERTEX
8
CUT
10
83.8687
20
58.7647
0
VERTEX
8
CUT
10
83.2431
20
57.5882
0
VERTEX
8
CUT
10
82.7432
20
56.4118
0
VERTEX
8
CUT
10
82.4524
20
55.2353
0
VERTEX
8
CUT
10
82.4189
20
54.0588
0
VERTEX
8
CUT
10
82.6484
20
52.8824
0
VERTEX
8
CUT
10
83.1026
20
51.7059
0
VERTEX
8
CUT
10
83.706
20
50.5294
0
VERTEX
8
CUT
10
84.3583
20
49.3529
0
VERTEX
8
CUT
10
84.9511
20
48.1765
0
VERTEX
8
CUT
10
85.3856
20
47
0
SEQEND
0
POLYLINE
8
CUT
66
1
70
0
0
VERTEX
8
CUT
10
85.5757
20
45
0
VERTEX
8
CUT
10
85.3338
20
43.8235
0
VERTEX
8
CUT
10
84.87
20
42.6471
0
VERTEX
8
CUT
10
84.2616
20
41.4706
0
VERTEX
8
CUT
10
83.6097
20
40.2941
0
VERTEX
8
CUT
10
83.0227
20
39.1176
0
VERTEX
8
CUT
10
82.5982
20
37.9412
0
VERTEX
8
CUT
10
82.4068
20
36.7647
0
VERTEX
8
CUT
10
82.4804
20
35.5882
0
VERTEX
8
CUT
10
82.8066
20
34.4118
0
VERTEX
8
CUT
10
83.3313
20
33.2353
0
VERTEX
8
CUT
10
83.9671
20
32.0588
0
VERTEX
8
CUT
10
84.6085
20
30.8824
0
VERTEX
8
CUT
10
85.1487
20
29.7059
0
VERTEX
8
CUT
10
85.4978
20
28.5294
0
VERTEX
8
CUT
10
85.5979
20
27.3529
0
VERTEX
8
CUT
10
85.4323
20
26.1765
0
VERTEX
8
CUT
10
85.0285
20
25
0
SEQEND
0
POLYLINE
8
CUT
66
1
70
0
0
VERTEX
8
CUT
10
84
20
23
0
VERTEX
8
CUT
10
83.3612
20
21.8235
0
VERTEX
8
CUT
10
82.8287
20
20.6471
0
VERTEX
8
CUT
10
82.491
20
19.4706
0
VERTEX
8
CUT
10
82.4041
20
18.2941
0
VERTEX
8
CUT
10
82.5827
20
17.1176
0
VERTEX
8
CUT
10
82.9969
20
15.9412
0
VERTEX
8
CUT
10
83.578
20
14.7647
0
VERTEX
8
CUT
10
84.2292
20
13.5882
0
VERTEX
8
CUT
10
84.8423
20
12.4118
0
VERTEX
8
CUT
10
85.3153
20
11.2353
0
VERTEX
8
CUT
10
85.5697
20
10.0588
0
VERTEX
8
CUT
10
85.563
20
8.8824
0
VERTEX
8
CUT
10
85.2964
20
7.7059
0
VERTEX
8
CUT
10
84.8142
20
6.5294
0
VERTEX
8
CUT
10
84.1966
20
5.3529
0
VERTEX
8
CUT
10
83.5464
20
4.1765
0
VERTEX
8
CUT
10
82.9715
20
3
0
SEQEND
0
POLYLINE
8
CUT
66
1
70
0
0
VERTEX
8
CUT
10
90
20
68
0
VERTEX
8
CUT
10
90.3262
20
67.4118
0
VERTEX
8
CUT
10
90.9244
20
66.2353
0
VERTEX
8
CUT
10
91.3689
20
65.0588
0
VERTEX
8
CUT
10
91.5858
20
63.8824
0
VERTEX
8
CUT
10
91.5389
20
62.7059
0
VERTEX
8
CUT
10
91.2362
20
61.5294
0
VERTEX
8
CUT
10
90.7278
20
60.3529
0
VERTEX
8
CUT
10
90.0985
20
59.1765
0
VERTEX
8
CUT
10
89.4528
20
58
0
SEQEND
0
POLYLINE
8
CUT
66
1
70
0
0
VERTEX
8
CUT
10
88.6144
20
56
0
VERTEX
8
CUT
10
88.4102
20
54.8235
0
VERTEX
8
CUT
10
88.4704
20
53.6471
0
VERTEX
8
CUT
10
88.785
20
52.4706
0
VERTEX
8
CUT
10
89.3016
20
51.2941
0
VERTEX
8
CUT
10
89.9343
20
50.1176
0
VERTEX
8
CUT
10
90.578
20
48.9412
0
VERTEX
8
CUT
10
91.1255
20
47.7647
0
VERTEX
8
CUT
10
91.4859
20
46.5882
0
VERTEX
8
CUT
10
91.5992
20
45.4118
0
VERTEX
8
CUT
10
91.4466
20
44.2353
0
VERTEX
8
CUT
10
91.0534
20
43.0588
0
VERTEX
8
CUT
10
90.485
20
41.8824
0
VERTEX
8
CUT
10
89.836
20
40.7059
0
VERTEX
8
CUT
10
89.2143
20
39.5294
0
VERTEX
8
CUT
10
88.7232
20
38.3529
0
VERTEX
8
CUT
10
88.4444
20
37.1765
0
VERTEX
8
CUT
10
88.4243
20
36
0
SEQEND
0
POLYLINE
8
CUT
66
1
70
0
0
VERTEX
8
CUT
10
88.9715
20
34
0
VERTEX
8
CUT
10
89.5464
20
32.8235
0
VERTEX
8
CUT
10
90.1966
20
31.6471
0
VERTEX
8
CUT
10
90.8142
20
30.4706
0
VERTEX
8
CUT
10
91.2964
20
29.2941
0
VERTEX
8
CUT
10
91.563
20
28.1176
0
VERTEX
8
CUT
10
91.5697
20
26.9412
0
VERTEX
8
CUT
10
91.3153
20
25.7647
0
VERTEX
8
CUT
10
90.8423
20
24.5882
0
VERTEX
8
CUT
10
90.2292
20
23.4118
0
VERTEX
8
CUT
10
89.578
20
22.2353
0
VERTEX
8
CUT
10
88.9969
20
21.0588
0
VERTEX
8
CUT
10
88.5827
20
19.8824
0
VERTEX
8
CUT
10
88.4041
20
18.7059
0
VERTEX
8
CUT
10
88.491
20
17.5294
0
VERTEX
8
CUT
10
88.8287
20
16.3529
0
VERTEX
8
CUT
10
89.3612
20
15.1765
0
VERTEX
8
CUT
10
90
20
14
0
SEQEND
0
POLYLINE
8
CUT
66
1
70
0
0
VERTEX
8
CUT
10
91.0285
20
12
0
VERTEX
8
CUT
10
91.4323
20
10.8235
0
VERTEX
8
CUT
10
91.5979
20
9.6471
0
VERTEX
8
CUT
10
91.4978
20
8.4706
0
VERTEX
8
CUT
10
91.1487
20
7.2941
0
VERTEX
8
CUT
10
90.6085
20
6.1176
0
VERTEX
8
CUT
10
89.9671
20
4.9412
0
VERTEX
8
CUT
10
89.3313
20
3.7647
0
VERTEX
8
CUT
10
88.8066
20
2.5882
0
VERTEX
8
CUT
10
88.6435
20
2
0
SEQEND
0
POLYLINE
8
CUT
66
1
70
0
0
VERTEX
8
CUT
10
96.5472
20
67
0
VERTEX
8
CUT
10
97.102
20
65.8235
0
VERTEX
8
CUT
10
97.4734
20
64.6471
0
VERTEX
8
CUT
10
97.5999
20
63.4706
0
VERTEX
8
CUT
10
97.4603
20
62.2941
0
VERTEX
8
CUT
10
97.0779
20
61.1176
0
VERTEX
8
CUT
10
96.5162
20
59.9412
0
VERTEX
8
CUT
10
95.8687
20
58.7647
0
VERTEX
8
CUT
10
95.2431
20
57.5882
0
VERTEX
8
CUT
10
94.7432
20
56.4118
0
VERTEX
8
CUT
10
94.4524
20
55.2353
0
VERTEX
8
CUT
10
94.4189
20
54.0588
0
VERTEX
8
CUT
10
94.6484
20
52.8824
0
VERTEX
8
CUT
10
95.1026
20
51.7059
0
VERTEX
8
CUT
10
95.706
20
50.5294
0
VERTEX
8
CUT
10
96.3583
20
49.3529
0
VERTEX
8
CUT
10
96.9511
20
48.1765
0
VERTEX
8
CUT
10
97.3856
20
47
0
SEQEND
0
POLYLINE
8
CUT
66
1
70
0
0
VERTEX
8
CUT
10
97.5757
20
45
0
VERTEX
8
CUT
10
97.3338
20
43.8235
0
VERTEX
8
CUT
10
96.87
20
42.6471
0
VERTEX
8
CUT
10
96.2616
20
41.4706
0
VERTEX
8
CUT
10
95.6097
20
40.2941
0
VERTEX
8
CUT
10
95.0227
20
39.1176
0
VERTEX
8
CUT
10
94.5982
20
37.9412
0
VERTEX
8
CUT
10
94.4068
20
36.7647
0
VERTEX
8
CUT
10
94.4804
20
35.5882
0
VERTEX
8
CUT
10
94.8066
20
34.4118
0
VERTEX
8
CUT
10
95.3313
20
33.2353
0
VERTEX
8
CUT
10
95.9671
20
32.0588
0
VERTEX
8
CUT
10
96.6085
20
30.8824
0
VERTEX
8
CUT
10
97.1487
20
29.7059
0
VERTEX
8
CUT
10
97.4978
20
28.5294
0
VERTEX
8
CUT
10
97.5979
20
27.3529
0
VERTEX
8
CUT
10
97.4323
20
26.1765
0
VERTEX
8
CUT
10
97.0285
20
25
0
SEQEND
0
POLYLINE
8
CUT
66
1
70
0
0
VERTEX
8
CUT
10
96
20
23
0
VERTEX
8
CUT
10
95.3612
20
21.8235
0
VERTEX
8
CUT
10
94.8287
20
20.6471
0
VERTEX
8
CUT
10
94.491
20
19.4706
0
VERTEX
8
CUT
10
94.4041
20
18.2941
0
VERTEX
8
CUT
10
94.5827
20
17.1176
0
VERTEX
8
CUT
10
94.9969
20
15.9412
0
VERTEX
8
CUT
10
95.578
20
14.7647
0
VERTEX
8
CUT
10
96.2292
20
13.5882
0
VERTEX
8
CUT
10
96.8423
20
12.4118
0
VERTEX
8
CUT
10
97.3153
20
11.2353
0
VERTEX
8
CUT
10
97.5697
20
10.0588
0
VERTEX
8
CUT
10
97.563
20
8.8824
0
VERTEX
8
CUT
10
97.2964
20
7.7059
0
VERTEX
8
CUT
10
96.8142
20
6.5294
0
VERTEX
8
CUT
10
96.1966
20
5.3529
0
VERTEX
8
CUT
10
95.5464
20
4.1765
0
VERTEX
8
CUT
10
94.9715
20
3
0
SEQEND
0
POLYLINE
8
CUT
66
1
70
0
0
VERTEX
8
CUT
10
102
20
68
0
VERTEX
8
CUT
10
102.3262
20
67.4118
0
VERTEX
8
CUT
10
102.9244
20
66.2353
0
VERTEX
8
CUT
10
103.3689
20
65.0588
0
VERTEX
8
CUT
10
103.5858
20
63.8824
0
VERTEX
8
CUT
10
103.5389
20
62.7059
0
VERTEX
8
CUT
10
103.2362
20
61.5294
0
VERTEX
8
CUT
10
102.7278
20
60.3529
0
VERTEX
8
CUT
10
102.0985
20
59.1765
0
VERTEX
8
CUT
10
101.4528
20
58
0
SEQEND
0
POLYLINE
8
CUT
66
1
70
0
0
VERTEX
8
CUT
10
100.6144
20
56
0
VERTEX
8
CUT
10
100.4102
20
54.8235
0
VERTEX
8
CUT
10
100.4704
20
53.6471
0
VERTEX
8
CUT
10
100.785
20
52.4706
0
VERTEX
8
CUT
10
101.3016
20
51.2941
0
VERTEX
8
CUT
10
101.9343
20
50.1176
0
VERTEX
8
CUT
10
102.578
20
48.9412
0
VERTEX
8
CUT
10
103.1255
20
47.7647
0
VERTEX
8
CUT
10
103.4859
20
46.5882
0
VERTEX
8
CUT
10
103.5992
20
45.4118
0
VERTEX
8
CUT
10
103.4466
20
44.2353
0
VERTEX
8
CUT
10
103.0534
20
43.0588
0
VERTEX
8
CUT
10
102.485
20
41.8824
0
VERTEX
8
CUT
10
101.836
20
40.7059
0
VERTEX
8
CUT
10
101.2143
20
39.5294
0
VERTEX
8
CUT
10
100.7232
20
38.3529
0
VERTEX
8
CUT
10
100.4444
20
37.1765
0
VERTEX
8
CUT
10
100.4243
20
36
0
SEQEND
0
POLYLINE
8
CUT
66
1
70
0
0
VERTEX
8
CUT
10
100.9715
20
34
0
VERTEX
8
CUT
10
101.5464
20
32.8235
0
VERTEX
8
CUT
10
102.1966
20
31.6471
0
VERTEX
8
CUT
10
102.8142
20
30.4706
0
VERTEX
8
CUT
10
103.2964
20
29.2941
0
VERTEX
8
CUT
10
103.563
20
28.1176
0
VERTEX
8
CUT
10
103.5697
20
26.9412
0
VERTEX
8
CUT
10
103.3153
20
25.7647
0
VERTEX
8
CUT
10
102.8423
20
24.5882
0
VERTEX
8
CUT
10
102.2292
20
23.4118
0
VERTEX
8
CUT
10
101.578
20
22.2353
0
VERTEX
8
CUT
10
100.9969
20
21.0588
0
VERTEX
8
CUT
10
100.5827
20
19.8824
0
VERTEX
8
CUT
10
100.4041
20
18.7059
0
VERTEX
8
CUT
10
100.491
20
17.5294
0
VERTEX
8
CUT
10
100.8287
20
16.3529
0
VERTEX
8
CUT
10
101.3612
20
15.1765
0
VERTEX
8
CUT
10
102
20
14
0
SEQEND
0
POLYLINE
8
CUT
66
1
70
0
0
VERTEX
8
CUT
10
103.0285
20
12
0
VERTEX
8
CUT
10
103.4323
20
10.8235
0
VERTEX
8
CUT
10
103.5979
20
9.6471
0
VERTEX
8
CUT
10
103.4978
20
8.4706
0
VERTEX
8
CUT
10
103.1487
20
7.2941
0
VERTEX
8
CUT
10
102.6085
20
6.1176
0
VERTEX
8
CUT
10
101.9671
20
4.9412
0
VERTEX
8
CUT
10
101.3313
20
3.7647
0
VERTEX
8
CUT
10
100.8066
20
2.5882
0
VERTEX
8
CUT
10
100.6435
20
2
0
SEQEND
0
POLYLINE
8
CUT
66
1
70
0
0
VERTEX
8
CUT
10
108.5472
20
67
0
VERTEX
8
CUT
10
109.102
20
65.8235
0
VERTEX
8
CUT
10
109.4734
20
64.6471
0
VERTEX
8
CUT
10
109.5999
20
63.4706
0
VERTEX
8
CUT
10
109.4603
20
62.2941
0
VERTEX
8
CUT
10
109.0779
20
61.1176
0
VERTEX
8
CUT
10
108.5162
20
59.9412
0
VERTEX
8
CUT
10
107.8687
20
58.7647
0
VERTEX
8
CUT
10
107.2431
20
57.5882
0
VERTEX
8
CUT
10
106.7432
20
56.4118
0
VERTEX
8
CUT
10
106.4524
20
55.2353
0
VERTEX
8
CUT
10
106.4189
20
54.0588
0
VERTEX
8
CUT
10
106.6484
20
52.8824
0
VERTEX
8
CUT
10
107.1026
20
51.7059
0
VERTEX
8
CUT
10
107.706
20
50.5294
0
VERTEX
8
CUT
10
108.3583
20
49.3529
0
VERTEX
8
CUT
10
108.9511
20
48.1765
0
VERTEX
8
CUT
10
109.3856
20
47
0
SEQEND
0
POLYLINE
8
CUT
66
1
70
0
0
VERTEX
8
CUT
10
109.5757
20
45
0
VERTEX
8
CUT
10
109.3338
20
43.8235
0
VERTEX
8
CUT
10
108.87
20
42.6471
0
VERTEX
8
CUT
10
108.2616
20
41.4706
0
VERTEX
8
CUT
10
107.6097
20
40.2941
0
VERTEX
8
CUT
10
107.0227
20
39.1176
0
VERTEX
8
CUT
10
106.5982
20
37.9412
0
VERTEX
8
CUT
10
106.4068
20
36.7647
0
VERTEX
8
CUT
10
106.4804
20
35.5882
0
VERTEX
8
CUT
10
106.8066
20
34.4118
0
VERTEX
8
CUT
10
107.3313
20
33.2353
0
VERTEX
8
CUT
10
107.9671
20
32.0588
0
VERTEX
8
CUT
10
108.6085
20
30.8824
0
VERTEX
8
CUT
10
109.1487
20
29.7059
0
VERTEX
8
CUT
10
109.4978
20
28.5294
0
VERTEX
8
CUT
10
109.5979
20
27.3529
0
VERTEX
8
CUT
10
109.4323
20
26.1765
0
VERTEX
8
CUT
10
109.0285
20
25
0
SEQEND
0
POLYLINE
8
CUT
66
1
70
0
0
VERTEX
8
CUT
10
108
20
23
0
VERTEX
8
CUT
10
107.3612
20
21.8235
0
VERTEX
8
CUT
10
106.8287
20
20.6471
0
VERTEX
8
CUT
10
106.491
20
19.4706
0
VERTEX
8
CUT
10
106.4041
20
18.2941
0
VERTEX
8
CUT
10
106.5827
20
17.1176
0
VERTEX
8
CUT
10
106.9969
20
15.9412
0
VERTEX
8
CUT
10
107.578
20
14.7647
0
VERTEX
8
CUT
10
108.2292
20
13.5882
0
VERTEX
8
CUT
10
108.8423
20
12.4118
0
VERTEX
8
CUT
10
109.3153
20
11.2353
0
VERTEX
8
CUT
10
109.5697
20
10.0588
0
VERTEX
8
CUT
10
109.563
20
8.8824
0
VERTEX
8
CUT
10
109.2964
20
7.7059
0
VERTEX
8
CUT
10
108.8142
20
6.5294
0
VERTEX
8
CUT
10
108.1966
20
5.3529
0
VERTEX
8
CUT
10
107.5464
20
4.1765
0
VERTEX
8
CUT
10
106.9715
20
3
0
SEQEND
0
POLYLINE
8
CUT
66
1
70
0
0
VERTEX
8
CUT
10
114
20
68
0
VERTEX
8
CUT
10
114.3262
20
67.4118
0
VERTEX
8
CUT
10
114.9244
20
66.2353
0
VERTEX
8
CUT
10
115.3689
20
65.0588
0
VERTEX
8
CUT
10
115.5858
20
63.8824
0
VERTEX
8
CUT
10
115.5389
20
62.7059
0
VERTEX
8
CUT
10
115.2362
20
61.5294
0
VERTEX
8
CUT
10
114.7278
20
60.3529
0
VERTEX
8
CUT
10
114.0985
20
59.1765
0
VERTEX
8
CUT
10
113.4528
20
58
0
SEQEND
0
POLYLINE
8
CUT
66
1
70
0
0
VERTEX
8
CUT
10
112.6144
20
56
0
VERTEX
8
CUT
10
112.4102
20
54.8235
0
VERTEX
8
CUT
10
112.4704
20
53.6471
0
VERTEX
8
CUT
10
112.785
20
52.4706
0
VERTEX
8
CUT
10
113.3016
20
51.2941
0
VERTEX
8
CUT
10
113.9343
20
50.1176
0
VERTEX
8
CUT
10
114.578
20
48.9412
0
VERTEX
8
CUT
10
115.1255
20
47.7647
0
VERTEX
8
CUT
10
115.4859
20
46.5882
0
VERTEX
8
CUT
10
115.5992
20
45.4118
0
VERTEX
8
CUT
10
115.4466
20
44.2353
0
VERTEX
8
CUT
10
115.0534
20
43.0588
0
VERTEX
8
CUT
10
114.485
20
41.8824
0
VERTEX
8
CUT
10
113.836
20
40.7059
0
VERTEX
8
CUT
10
113.2143
20
39.5294
0
VERTEX
8
CUT
10
112.7232
20
38.3529
0
VERTEX
8
CUT
10
112.4444
20
37.1765
0
VERTEX
8
CUT
10
112.4243
20
36
0
SEQEND
0
POLYLINE
8
CUT
66
1
70
0
0
VERTEX
8
CUT
10
112.9715
20
34
0
VERTEX
8
CUT
10
113.5464
20
32.8235
0
VERTEX
8
CUT
10
114.1966
20
31.6471
0
VERTEX
8
CUT
10
114.8142
20
30.4706
0
VERTEX
8
CUT
10
115.2964
20
29.2941
0
VERTEX
8
CUT
10
115.563
20
28.1176
0
VERTEX
8
CUT
10
115.5697
20
26.9412
0
VERTEX
8
CUT
10
115.3153
20
25.7647
0
VERTEX
8
CUT
10
114.8423
20
24.5882
0
VERTEX
8
CUT
10
114.2292
20
23.4118
0
VERTEX
8
CUT
10
113.578
20
22.2353
0
VERTEX
8
CUT
10
112.9969
20
21.0588
0
VERTEX
8
CUT
10
112.5827
20
19.8824
0
VERTEX
8
CUT
10
112.4041
20
18.7059
0
VERTEX
8
CUT
10
112.491
20
17.5294
0
VERTEX
8
CUT
10
112.8287
20
16.3529
0
VERTEX
8
CUT
10
113.3612
20
15.1765
0
VERTEX
8
CUT
10
114
20
14
0
SEQEND
0
POLYLINE
8
CUT
66
1
70
0
0
VERTEX
8
CUT
10
115.0285
20
12
0
VERTEX
8
CUT
10
115.4323
20
10.8235
0
VERTEX
8
CUT
10
115.5979
20
9.6471
0
VERTEX
8
CUT
10
115.4978
20
8.4706
0
VERTEX
8
CUT
10
115.1487
20
7.2941
0
VERTEX
8
CUT
10
114.6085
20
6.1176
0
VERTEX
8
CUT
10
113.9671
20
4.9412
0
VERTEX
8
CUT
10
113.3313
20
3.7647
0
VERTEX
8
CUT
10
112.8066
20
2.5882
0
VERTEX
8
CUT
10
112.6435
20
2
0
SEQEND
0
POLYLINE
8
CUT
66
1
70
0
0
VERTEX
8
CUT
10
0
20
70
0
VERTEX
8
CUT
10
120
20
70
0
VERTEX
8
CUT
10
120
20
0
0
VERTEX
8
CUT
10
0
20
0
0
VERTEX
8
CUT
10
0
20
70
0
SEQEND
0
ENDSEC
0
EOF
