0
SECTION
2
HEADER
9
$ACADVER
1
AC1009
9
$INSUNITS
70
4
0
ENDSEC
0
SECTION
2
TABLES
0
TABLE
2
LAYER
70
1
0
LAYER
2
CUT
70
0
62
1
6
CONTINUOUS
0
ENDTAB
0
ENDSEC
0
SECTION
2
ENTITIES
0
POLYLINE
8
CUT
66
1
70
0
0
VERTEX
8
CUT
10
5
20
65
0
VERTEX
8
CUT
10
13.5714
20
65
0
VERTEX
8
CUT
10
13.5714
20
56.4286
0
VERTEX
8
CUT
10
7.8571
20
56.4286
0
VERTEX
8
CUT
10
7.8571
20
62.1429
0
VERTEX
8
CUT
10
10.7143
20
62.1429
0
VERTEX
8
CUT
10
10.7143
20
59.2857
0
SEQEND
0
POLYLINE
8
CUT
66
1
70
0
0
VERTEX
8
CUT
10
15
20
55
0
VERTEX
8
CUT
10
6.4286
20
55
0
VERTEX
8
CUT
10
6.4286
20
63.5714
0
VERTEX
8
CUT
10
12.1429
20
63.5714
0
VERTEX
8
CUT
10
12.1429
20
57.8571
0
VERTEX
8
CUT
10
9.2857
20
57.8571
0
VERTEX
8
CUT
10
9.2857
20
60.7143
0
SEQEND
0
POLYLINE
8
CUT
66
1
70
0
0
VERTEX
8
CUT
10
25
20
65
0
VERTEX
8
CUT
10
25
20
56.4286
0
VERTEX
8
CUT
10
16.4286
20
56.4286
0
VERTEX
8
CUT
10
16.4286
20
62.1429
0
VERTEX
8
CUT
10
22.1429
20
62.1429
0
VERTEX
8
CUT
10
22.1429
20
59.2857
0
VERTEX
8
CUT
10
19.2857
20
59.2857
0
SEQEND
0
POLYLINE
8
CUT
66
1
70
0
0
VERTEX
8
CUT
10
15
20
55
0
VERTEX
8
CUT
10
15
20
63.5714
0
VERTEX
8
CUT
10
23.5714
20
63.5714
0
VERTEX
8
CUT
10
23.5714
20
57.8571
0
VERTEX
8
CUT
10
17.8571
20
57.8571
0
VERTEX
8
CUT
10
17.8571
20
60.7143
0
VERTEX
8
CUT
10
20.7143
20
60.7143
0
SEQEND
0
POLYLINE
8
CUT
66
1
70
0
0
VERTEX
8
CUT
10
25
20
65
0
VERTEX
8
CUT
10
33.5714
20
65
0
VERTEX
8
CUT
10
33.5714
20
56.4286
0
VERTEX
8
CUT
10
27.8571
20
56.4286
0
VERTEX
8
CUT
10
27.8571
20
62.1429
0
VERTEX
8
CUT
10
30.7143
20
62.1429
0
VERTEX
8
CUT
10
30.7143
20
59.2857
0
SEQEND
0
POLYLINE
8
CUT
66
1
70
0
0
VERTEX
8
CUT
10
35
20
55
0
VERTEX
8
CUT
10
26.4286
20
55
0
VERTEX
8
CUT
10
26.4286
20
63.5714
0
VERTEX
8
CUT
10
32.1429
20
63.5714
0
VERTEX
8
CUT
10
32.1429
20
57.8571
0
VERTEX
8
CUT
10
29.2857
20
57.8571
0
VERTEX
8
CUT
10
29.2857
20
60.7143
0
SEQEND
0
POLYLINE
8
CUT
66
1
70
0
0
VERTEX
8
CUT
10
45
20
65
0
VERTEX
8
CUT
10
45
20
56.4286
0
VERTEX
8
CUT
10
36.4286
20
56.4286
0
VERTEX
8
CUT
10
36.4286
20
62.1429
0
VERTEX
8
CUT
10
42.1429
20
62.1429
0
VERTEX
8
CUT
10
42.1429
20
59.2857
0
VERTEX
8
CUT
10
39.2857
20
59.2857
0
SEQEND
0
POLYLINE
8
CUT
66
1
70
0
0
VERTEX
8
CUT
10
35
20
55
0
VERTEX
8
CUT
10
35
20
63.5714
0
VERTEX
8
CUT
10
43.5714
20
63.5714
0
VERTEX
8
CUT
10
43.5714
20
57.8571
0
VERTEX
8
CUT
10
37.8571
20
57.8571
0
VERTEX
8
CUT
10
37.8571
20
60.7143
0
VERTEX
8
CUT
10
40.7143
20
60.7143
0
SEQEND
0
POLYLINE
8
CUT
66
1
70
0
0
VERTEX
8
CUT
10
45
20
65
0
VERTEX
8
CUT
10
53.5714
20
65
0
VERTEX
8
CUT
10
53.5714
20
56.4286
0
VERTEX
8
CUT
10
47.8571
20
56.4286
0
VERTEX
8
CUT
10
47.8571
20
62.1429
0
VERTEX
8
CUT
10
50.7143
20
62.1429
0
VERTEX
8
CUT
10
50.7143
20
59.2857
0
SEQEND
0
POLYLINE
8
CUT
66
1
70
0
0
VERTEX
8
CUT
10
55
20
55
0
VERTEX
8
CUT
10
46.4286
20
55
0
VERTEX
8
CUT
10
46.4286
20
63.5714
0
VERTEX
8
CUT
10
52.1429
20
63.5714
0
VERTEX
8
CUT
10
52.1429
20
57.8571
0
VERTEX
8
CUT
10
49.2857
20
57.8571
0
VERTEX
8
CUT
10
49.2857
20
60.7143
0
SEQEND
0
POLYLINE
8
CUT
66
1
70
0
0
VERTEX
8
CUT
10
65
20
65
0
VERTEX
8
CUT
10
65
20
56.4286
0
VERTEX
8
CUT
10
56.4286
20
56.4286
0
VERTEX
8
CUT
10
56.4286
20
62.1429
0
VERTEX
8
CUT
10
62.1429
20
62.1429
0
VERTEX
8
CUT
10
62.1429
20
59.2857
0
VERTEX
8
CUT
10
59.2857
20
59.2857
0
SEQEND
0
POLYLINE
8
CUT
66
1
70
0
0
VERTEX
8
CUT
10
55
20
55
0
VERTEX
8
CUT
10
55
20
63.5714
0
VERTEX
8
CUT
10
63.5714
20
63.5714
0
VERTEX
8
CUT
10
63.5714
20
57.8571
0
VERTEX
8
CUT
10
57.8571
20
57.8571
0
VERTEX
8
CUT
10
57.8571
20
60.7143
0
VERTEX
8
CUT
10
60.7143
20
60.7143
0
SEQEND
0
POLYLINE
8
CUT
66
1
70
0
0
VERTEX
8
CUT
10
65
20
65
0
VERTEX
8
CUT
10
73.5714
20
65
0
VERTEX
8
CUT
10
73.5714
20
56.4286
0
VERTEX
8
CUT
10
67.8571
20
56.4286
0
VERTEX
8
CUT
10
67.8571
20
62.1429
0
VERTEX
8
CUT
10
70.7143
20
62.1429
0
VERTEX
8
CUT
10
70.7143
20
59.2857
0
SEQEND
0
POLYLINE
8
CUT
66
1
70
0
0
VERTEX
8
CUT
10
75
20
55
0
VERTEX
8
CUT
10
66.4286
20
55
0
VERTEX
8
CUT
10
66.4286
20
63.5714
0
VERTEX
8
CUT
10
72.1429
20
63.5714
0
VERTEX
8
CUT
10
72.1429
20
57.8571
0
VERTEX
8
CUT
10
69.2857
20
57.8571
0
VERTEX
8
CUT
10
69.2857
20
60.7143
0
SEQEND
0
POLYLINE
8
CUT
66
1
70
0
0
VERTEX
8
CUT
10
85
20
65
0
VERTEX
8
CUT
10
85
20
56.4286
0
VERTEX
8
CUT
10
76.4286
20
56.4286
0
VERTEX
8
CUT
10
76.4286
20
62.1429
0
VERTEX
8
CUT
10
82.1429
20
62.1429
0
VERTEX
8
CUT
10
82.1429
20
59.2857
0
VERTEX
8
CUT
10
79.2857
20
59.2857
0
SEQEND
0
POLYLINE
8
CUT
66
1
70
0
0
VERTEX
8
CUT
10
75
20
55
0
VERTEX
8
CUT
10
75
20
63.5714
0
VERTEX
8
CUT
10
83.5714
20
63.5714
0
VERTEX
8
CUT
10
83.5714
20
57.8571
0
VERTEX
8
CUT
10
77.8571
20
57.8571
0
VERTEX
8
CUT
10
77.8571
20
60.7143
0
VERTEX
8
CUT
10
80.7143
20
60.7143
0
SEQEND
0
POLYLINE
8
CUT
66
1
70
0
0
VERTEX
8
CUT
10
85
20
65
0
VERTEX
8
CUT
10
93.5714
20
65
0
VERTEX
8
CUT
10
93.5714
20
56.4286
0
VERTEX
8
CUT
10
87.8571
20
56.4286
0
VERTEX
8
CUT
10
87.8571
20
62.1429
0
VERTEX
8
CUT
10
90.7143
20
62.1429
0
VERTEX
8
CUT
10
90.7143
20
59.2857
0
SEQEND
0
POLYLINE
8
CUT
66
1
70
0
0
VERTEX
8
CUT
10
95
20
55
0
VERTEX
8
CUT
10
86.4286
20
55
0
VERTEX
8
CUT
10
86.4286
20
63.5714
0
VERTEX
8
CUT
10
92.1429
20
63.5714
0
VERTEX
8
CUT
10
92.1429
20
57.8571
0
VERTEX
8
CUT
10
89.2857
20
57.8571
0
VERTEX
8
CUT
10
89.2857
20
60.7143
0
SEQEND
0
POLYLINE
8
CUT
66
1
70
0
0
VERTEX
8
CUT
10
105
20
65
0
VERTEX
8
CUT
10
105
20
56.4286
0
VERTEX
8
CUT
10
96.4286
20
56.4286
0
VERTEX
8
CUT
10
96.4286
20
62.1429
0
VERTEX
8
CUT
10
102.1429
20
62.1429
0
VERTEX
8
CUT
10
102.1429
20
59.2857
0
VERTEX
8
CUT
10
99.2857
20
59.2857
0
SEQEND
0
POLYLINE
8
CUT
66
1
70
0
0
VERTEX
8
CUT
10
95
20
55
0
VERTEX
8
CUT
10
95
20
63.5714
0
VERTEX
8
CUT
10
103.5714
20
63.5714
0
VERTEX
8
CUT
10
103.5714
20
57.8571
0
VERTEX
8
CUT
10
97.8571
20
57.8571
0
VERTEX
8
CUT
10
97.8571
20
60.7143
0
VERTEX
8
CUT
10
100.7143
20
60.7143
0
SEQEND
0
POLYLINE
8
CUT
66
1
70
0
0
VERTEX
8
CUT
10
105
20
65
0
VERTEX
8
CUT
10
113.5714
20
65
0
VERTEX
8
CUT
10
113.5714
20
56.4286
0
VERTEX
8
CUT
10
107.8571
20
56.4286
0
VERTEX
8
CUT
10
107.8571
20
62.1429
0
VERTEX
8
CUT
10
110.7143
20
62.1429
0
VERTEX
8
CUT
10
110.7143
20
59.2857
0
SEQEND
0
POLYLINE
8
CUT
66
1
70
0
0
VERTEX
8
CUT
10
115
20
55
0
VERTEX
8
CUT
10
106.4286
20
55
0
VERTEX
8
CUT
10
106.4286
20
63.5714
0
VERTEX
8
CUT
10
112.1429
20
63.5714
0
VERTEX
8
CUT
10
112.1429
20
57.8571
0
VERTEX
8
CUT
10
109.2857
20
57.8571
0
VERTEX
8
CUT
10
109.2857
20
60.7143
0
SEQEND
0
POLYLINE
8
CUT
66
1
70
0
0
VERTEX
8
CUT
10
15
20
55
0
VERTEX
8
CUT
10
15
20
46.4286
0
VERTEX
8
CUT
10
6.4286
20
46.4286
0
VERTEX
8
CUT
10
6.4286
20
52.1429
0
VERTEX
8
CUT
10
12.1429
20
52.1429
0
VERTEX
8
CUT
10
12.1429
20
49.2857
0
VERTEX
8
CUT
10
9.2857
20
49.2857
0
SEQEND
0
POLYLINE
8
CUT
66
1
70
0
0
VERTEX
8
CUT
10
5
20
45
0
VERTEX
8
CUT
10
5
20
53.5714
0
VERTEX
8
CUT
10
13.5714
20
53.5714
0
VERTEX
8
CUT
10
13.5714
20
47.8571
0
VERTEX
8
CUT
10
7.8571
20
47.8571
0
VERTEX
8
CUT
10
7.8571
20
50.7143
0
VERTEX
8
CUT
10
10.7143
20
50.7143
0
SEQEND
0
POLYLINE
8
CUT
66
1
70
0
0
VERTEX
8
CUT
10
15
20
55
0
VERTEX
8
CUT
10
23.5714
20
55
0
VERTEX
8
CUT
10
23.5714
20
46.4286
0
VERTEX
8
CUT
10
17.8571
20
46.4286
0
VERTEX
8
CUT
10
17.8571
20
52.1429
0
VERTEX
8
CUT
10
20.7143
20
52.1429
0
VERTEX
8
CUT
10
20.7143
20
49.2857
0
SEQEND
0
POLYLINE
8
CUT
66
1
70
0
0
VERTEX
8
CUT
10
25
20
45
0
VERTEX
8
CUT
10
16.4286
20
45
0
VERTEX
8
CUT
10
16.4286
20
53.5714
0
VERTEX
8
CUT
10
22.1429
20
53.5714
0
VERTEX
8
CUT
10
22.1429
20
47.8571
0
VERTEX
8
CUT
10
19.2857
20
47.8571
0
VERTEX
8
CUT
10
19.2857
20
50.7143
0
SEQEND
0
POLYLINE
8
CUT
66
1
70
0
0
VERTEX
8
CUT
10
35
20
55
0
VERTEX
8
CUT
10
35
20
46.4286
0
VERTEX
8
CUT
10
26.4286
20
46.4286
0
VERTEX
8
CUT
10
26.4286
20
52.1429
0
VERTEX
8
CUT
10
32.1429
20
52.1429
0
VERTEX
8
CUT
10
32.1429
20
49.2857
0
VERTEX
8
CUT
10
29.2857
20
49.2857
0
SEQEND
0
POLYLINE
8
CUT
66
1
70
0
0
VERTEX
8
CUT
10
25
20
45
0
VERTEX
8
CUT
10
25
20
53.5714
0
VERTEX
8
CUT
10
33.5714
20
53.5714
0
VERTEX
8
CUT
10
33.5714
20
47.8571
0
VERTEX
8
CUT
10
27.8571
20
47.8571
0
VERTEX
8
CUT
10
27.8571
20
50.7143
0
VERTEX
8
CUT
10
30.7143
20
50.7143
0
SEQEND
0
POLYLINE
8
CUT
66
1
70
0
0
VERTEX
8
CUT
10
35
20
55
0
VERTEX
8
CUT
10
43.5714
20
55
0
VERTEX
8
CUT
10
43.5714
20
46.4286
0
VERTEX
8
CUT
10
37.8571
20
46.4286
0
VERTEX
8
CUT
10
37.8571
20
52.1429
0
VERTEX
8
CUT
10
40.7143
20
52.1429
0
VERTEX
8
CUT
10
40.7143
20
49.2857
0
SEQEND
0
POLYLINE
8
CUT
66
1
70
0
0
VERTEX
8
CUT
10
45
20
45
0
VERTEX
8
CUT
10
36.4286
20
45
0
VERTEX
8
CUT
10
36.4286
20
53.5714
0
VERTEX
8
CUT
10
42.1429
20
53.5714
0
VERTEX
8
CUT
10
42.1429
20
47.8571
0
VERTEX
8
CUT
10
39.2857
20
47.8571
0
VERTEX
8
CUT
10
39.2857
20
50.7143
0
SEQEND
0
POLYLINE
8
CUT
66
1
70
0
0
VERTEX
8
CUT
10
55
20
55
0
VERTEX
8
CUT
10
55
20
46.4286
0
VERTEX
8
CUT
10
46.4286
20
46.4286
0
VERTEX
8
CUT
10
46.4286
20
52.1429
0
VERTEX
8
CUT
10
52.1429
20
52.1429
0
VERTEX
8
CUT
10
52.1429
20
49.2857
0
VERTEX
8
CUT
10
49.2857
20
49.2857
0
SEQEND
0
POLYLINE
8
CUT
66
1
70
0
0
VERTEX
8
CUT
10
45
20
45
0
VERTEX
8
CUT
10
45
20
53.5714
0
VERTEX
8
CUT
10
53.5714
20
53.5714
0
VERTEX
8
CUT
10
53.5714
20
47.8571
0
VERTEX
8
CUT
10
47.8571
20
47.8571
0
VERTEX
8
CUT
10
47.8571
20
50.7143
0
VERTEX
8
CUT
10
50.7143
20
50.7143
0
SEQEND
0
POLYLINE
8
CUT
66
1
70
0
0
VERTEX
8
CUT
10
55
20
55
0
VERTEX
8
CUT
10
63.5714
20
55
0
VERTEX
8
CUT
10
63.5714
20
46.4286
0
VERTEX
8
CUT
10
57.8571
20
46.4286
0
VERTEX
8
CUT
10
57.8571
20
52.1429
0
VERTEX
8
CUT
10
60.7143
20
52.1429
0
VERTEX
8
CUT
10
60.7143
20
49.2857
0
SEQEND
0
POLYLINE
8
CUT
66
1
70
0
0
VERTEX
8
CUT
10
65
20
45
0
VERTEX
8
CUT
10
56.4286
20
45
0
VERTEX
8
CUT
10
56.4286
20
53.5714
0
VERTEX
8
CUT
10
62.1429
20
53.5714
0
VERTEX
8
CUT
10
62.1429
20
47.8571
0
VERTEX
8
CUT
10
59.2857
20
47.8571
0
VERTEX
8
CUT
10
59.2857
20
50.7143
0
SEQEND
0
POLYLINE
8
CUT
66
1
70
0
0
VERTEX
8
CUT
10
75
20
55
0
VERTEX
8
CUT
10
75
20
46.4286
0
VERTEX
8
CUT
10
66.4286
20
46.4286
0
VERTEX
8
CUT
10
66.4286
20
52.1429
0
VERTEX
8
CUT
10
72.1429
20
52.1429
0
VERTEX
8
CUT
10
72.1429
20
49.2857
0
VERTEX
8
CUT
10
69.2857
20
49.2857
0
SEQEND
0
POLYLINE
8
CUT
66
1
70
0
0
VERTEX
8
CUT
10
65
20
45
0
VERTEX
8
CUT
10
65
20
53.5714
0
VERTEX
8
CUT
10
73.5714
20
53.5714
0
VERTEX
8
CUT
10
73.5714
20
47.8571
0
VERTEX
8
CUT
10
67.8571
20
47.8571
0
VERTEX
8
CUT
10
67.8571
20
50.7143
0
VERTEX
8
CUT
10
70.7143
20
50.7143
0
SEQEND
0
POLYLINE
8
CUT
66
1
70
0
0
VERTEX
8
CUT
10
75
20
55
0
VERTEX
8
CUT
10
83.5714
20
55
0
VERTEX
8
CUT
10
83.5714
20
46.4286
0
VERTEX
8
CUT
10
77.8571
20
46.4286
0
VERTEX
8
CUT
10
77.8571
20
52.1429
0
VERTEX
8
CUT
10
80.7143
20
52.1429
0
VERTEX
8
CUT
10
80.7143
20
49.2857
0
SEQEND
0
POLYLINE
8
CUT
66
1
70
0
0
VERTEX
8
CUT
10
85
20
45
0
VERTEX
8
CUT
10
76.4286
20
45
0
VERTEX
8
CUT
10
76.4286
20
53.5714
0
VERTEX
8
CUT
10
82.1429
20
53.5714
0
VERTEX
8
CUT
10
82.1429
20
47.8571
0
VERTEX
8
CUT
10
79.2857
20
47.8571
0
VERTEX
8
CUT
10
79.2857
20
50.7143
0
SEQEND
0
POLYLINE
8
CUT
66
1
70
0
0
VERTEX
8
CUT
10
95
20
55
0
VERTEX
8
CUT
10
95
20
46.4286
0
VERTEX
8
CUT
10
86.4286
20
46.4286
0
VERTEX
8
CUT
10
86.4286
20
52.1429
0
VERTEX
8
CUT
10
92.1429
20
52.1429
0
VERTEX
8
CUT
10
92.1429
20
49.2857
0
VERTEX
8
CUT
10
89.2857
20
49.2857
0
SEQEND
0
POLYLINE
8
CUT
66
1
70
0
0
VERTEX
8
CUT
10
85
20
45
0
VERTEX
8
CUT
10
85
20
53.5714
0
VERTEX
8
CUT
10
93.5714
20
53.5714
0
VERTEX
8
CUT
10
93.5714
20
47.8571
0
VERTEX
8
CUT
10
87.8571
20
47.8571
0
VERTEX
8
CUT
10
87.8571
20
50.7143
0
VERTEX
8
CUT
10
90.7143
20
50.7143
0
SEQEND
0
POLYLINE
8
CUT
66
1
70
0
0
VERTEX
8
CUT
10
95
20
55
0
VERTEX
8
CUT
10
103.5714
20
55
0
VERTEX
8
CUT
10
103.5714
20
46.4286
0
VERTEX
8
CUT
10
97.8571
20
46.4286
0
VERTEX
8
CUT
10
97.8571
20
52.1429
0
VERTEX
8
CUT
10
100.7143
20
52.1429
0
VERTEX
8
CUT
10
100.7143
20
49.2857
0
SEQEND
0
POLYLINE
8
CUT
66
1
70
0
0
VERTEX
8
CUT
10
105
20
45
0
VERTEX
8
CUT
10
96.4286
20
45
0
VERTEX
8
CUT
10
96.4286
20
53.5714
0
VERTEX
8
CUT
10
102.1429
20
53.5714
0
VERTEX
8
CUT
10
102.1429
20
47.8571
0
VERTEX
8
CUT
10
99.2857
20
47.8571
0
VERTEX
8
CUT
10
99.2857
20
50.7143
0
SEQEND
0
POLYLINE
8
CUT
66
1
70
0
0
VERTEX
8
CUT
10
115
20
55
0
VERTEX
8
CUT
10
115
20
46.4286
0
VERTEX
8
CUT
10
106.4286
20
46.4286
0
VERTEX
8
CUT
10
106.4286
20
52.1429
0
VERTEX
8
CUT
10
112.1429
20
52.1429
0
VERTEX
8
CUT
10
112.1429
20
49.2857
0
VERTEX
8
CUT
10
109.2857
20
49.2857
0
SEQEND
0
POLYLINE
8
CUT
66
1
70
0
0
VERTEX
8
CUT
10
105
20
45
0
VERTEX
8
CUT
10
105
20
53.5714
0
VERTEX
8
CUT
10
113.5714
20
53.5714
0
VERTEX
8
CUT
10
113.5714
20
47.8571
0
VERTEX
8
CUT
10
107.8571
20
47.8571
0
VERTEX
8
CUT
10
107.8571
20
50.7143
0
VERTEX
8
CUT
10
110.7143
20
50.7143
0
SEQEND
0
POLYLINE
8
CUT
66
1
70
0
0
VERTEX
8
CUT
10
5
20
45
0
VERTEX
8
CUT
10
13.5714
20
45
0
VERTEX
8
CUT
10
13.5714
20
36.4286
0
VERTEX
8
CUT
10
7.8571
20
36.4286
0
VERTEX
8
CUT
10
7.8571
20
42.1429
0
VERTEX
8
CUT
10
10.7143
20
42.1429
0
VERTEX
8
CUT
10
10.7143
20
39.2857
0
SEQEND
0
POLYLINE
8
CUT
66
1
70
0
0
VERTEX
8
CUT
10
15
20
35
0
VERTEX
8
CUT
10
6.4286
20
35
0
VERTEX
8
CUT
10
6.4286
20
43.5714
0
VERTEX
8
CUT
10
12.1429
20
43.5714
0
VERTEX
8
CUT
10
12.1429
20
37.8571
0
VERTEX
8
CUT
10
9.2857
20
37.8571
0
VERTEX
8
CUT
10
9.2857
20
40.7143
0
SEQEND
0
POLYLINE
8
CUT
66
1
70
0
0
VERTEX
8
CUT
10
25
20
45
0
VERTEX
8
CUT
10
25
20
36.4286
0
VERTEX
8
CUT
10
16.4286
20
36.4286
0
VERTEX
8
CUT
10
16.4286
20
42.1429
0
VERTEX
8
CUT
10
22.1429
20
42.1429
0
VERTEX
8
CUT
10
22.1429
20
39.2857
0
VERTEX
8
CUT
10
19.2857
20
39.2857
0
SEQEND
0
POLYLINE
8
CUT
66
1
70
0
0
VERTEX
8
CUT
10
15
20
35
0
VERTEX
8
CUT
10
15
20
43.5714
0
VERTEX
8
CUT
10
23.5714
20
43.5714
0
VERTEX
8
CUT
10
23.5714
20
37.8571
0
VERTEX
8
CUT
10
17.8571
20
37.8571
0
VERTEX
8
CUT
10
17.8571
20
40.7143
0
VERTEX
8
CUT
10
20.7143
20
40.7143
0
SEQEND
0
POLYLINE
8
CUT
66
1
70
0
0
VERTEX
8
CUT
10
25
20
45
0
VERTEX
8
CUT
10
33.5714
20
45
0
VERTEX
8
CUT
10
33.5714
20
36.4286
0
VERTEX
8
CUT
10
27.8571
20
36.4286
0
VERTEX
8
CUT
10
27.8571
20
42.1429
0
VERTEX
8
CUT
10
30.7143
20
42.1429
0
VERTEX
8
CUT
10
30.7143
20
39.2857
0
SEQEND
0
POLYLINE
8
CUT
66
1
70
0
0
VERTEX
8
CUT
10
35
20
35
0
VERTEX
8
CUT
10
26.4286
20
35
0
VERTEX
8
CUT
10
26.4286
20
43.5714
0
VERTEX
8
CUT
10
32.1429
20
43.5714
0
VERTEX
8
CUT
10
32.1429
20
37.8571
0
VERTEX
8
CUT
10
29.2857
20
37.8571
0
VERTEX
8
CUT
10
29.2857
20
40.7143
0
SEQEND
0
POLYLINE
8
CUT
66
1
70
0
0
VERTEX
8
CUT
10
45
20
45
0
VERTEX
8
CUT
10
45
20
36.4286
0
VERTEX
8
CUT
10
36.4286
20
36.4286
0
VERTEX
8
CUT
10
36.4286
20
42.1429
0
VERTEX
8
CUT
10
42.1429
20
42.1429
0
VERTEX
8
CUT
10
42.1429
20
39.2857
0
VERTEX
8
CUT
10
39.2857
20
39.2857
0
SEQEND
0
POLYLINE
8
CUT
66
1
70
0
0
VERTEX
8
CUT
10
35
20
35
0
VERTEX
8
CUT
10
35
20
43.5714
0
VERTEX
8
CUT
10
43.5714
20
43.5714
0
VERTEX
8
CUT
10
43.5714
20
37.8571
0
VERTEX
8
CUT
10
37.8571
20
37.8571
0
VERTEX
8
CUT
10
37.8571
20
40.7143
0
VERTEX
8
CUT
10
40.7143
20
40.7143
0
SEQEND
0
POLYLINE
8
CUT
66
1
70
0
0
VERTEX
8
CUT
10
45
20
45
0
VERTEX
8
CUT
10
53.5714
20
45
0
VERTEX
8
CUT
10
53.5714
20
36.4286
0
VERTEX
8
CUT
10
47.8571
20
36.4286
0
VERTEX
8
CUT
10
47.8571
20
42.1429
0
VERTEX
8
CUT
10
50.7143
20
42.1429
0
VERTEX
8
CUT
10
50.7143
20
39.2857
0
SEQEND
0
POLYLINE
8
CUT
66
1
70
0
0
VERTEX
8
CUT
10
55
20
35
0
VERTEX
8
CUT
10
46.4286
20
35
0
VERTEX
8
CUT
10
46.4286
20
43.5714
0
VERTEX
8
CUT
10
52.1429
20
43.5714
0
VERTEX
8
CUT
10
52.1429
20
37.8571
0
VERTEX
8
CUT
10
49.2857
20
37.8571
0
VERTEX
8
CUT
10
49.2857
20
40.7143
0
SEQEND
0
POLYLINE
8
CUT
66
1
70
0
0
VERTEX
8
CUT
10
65
20
45
0
VERTEX
8
CUT
10
65
20
36.4286
0
VERTEX
8
CUT
10
56.4286
20
36.4286
0
VERTEX
8
CUT
10
56.4286
20
42.1429
0
VERTEX
8
CUT
10
62.1429
20
42.1429
0
VERTEX
8
CUT
10
62.1429
20
39.2857
0
VERTEX
8
CUT
10
59.2857
20
39.2857
0
SEQEND
0
POLYLINE
8
CUT
66
1
70
0
0
VERTEX
8
CUT
10
55
20
35
0
VERTEX
8
CUT
10
55
20
43.5714
0
VERTEX
8
CUT
10
63.5714
20
43.5714
0
VERTEX
8
CUT
10
63.5714
20
37.8571
0
VERTEX
8
CUT
10
57.8571
20
37.8571
0
VERTEX
8
CUT
10
57.8571
20
40.7143
0
VERTEX
8
CUT
10
60.7143
20
40.7143
0
SEQEND
0
POLYLINE
8
CUT
66
1
70
0
0
VERTEX
8
CUT
10
65
20
45
0
VERTEX
8
CUT
10
73.5714
20
45
0
VERTEX
8
CUT
10
73.5714
20
36.4286
0
VERTEX
8
CUT
10
67.8571
20
36.4286
0
VERTEX
8
CUT
10
67.8571
20
42.1429
0
VERTEX
8
CUT
10
70.7143
20
42.1429
0
VERTEX
8
CUT
10
70.7143
20
39.2857
0
SEQEND
0
POLYLINE
8
CUT
66
1
70
0
0
VERTEX
8
CUT
10
75
20
35
0
VERTEX
8
CUT
10
66.4286
20
35
0
VERTEX
8
CUT
10
66.4286
20
43.5714
0
VERTEX
8
CUT
10
72.1429
20
43.5714
0
VERTEX
8
CUT
10
72.1429
20
37.8571
0
VERTEX
8
CUT
10
69.2857
20
37.8571
0
VERTEX
8
CUT
10
69.2857
20
40.7143
0
SEQEND
0
POLYLINE
8
CUT
66
1
70
0
0
VERTEX
8
CUT
10
85
20
45
0
VERTEX
8
CUT
10
85
20
36.4286
0
VERTEX
8
CUT
10
76.4286
20
36.4286
0
VERTEX
8
CUT
10
76.4286
20
42.1429
0
VERTEX
8
CUT
10
82.1429
20
42.1429
0
VERTEX
8
CUT
10
82.1429
20
39.2857
0
VERTEX
8
CUT
10
79.2857
20
39.2857
0
SEQEND
0
POLYLINE
8
CUT
66
1
70
0
0
VERTEX
8
CUT
10
75
20
35
0
VERTEX
8
CUT
10
75
20
43.5714
0
VERTEX
8
CUT
10
83.5714
20
43.5714
0
VERTEX
8
CUT
10
83.5714
20
37.8571
0
VERTEX
8
CUT
10
77.8571
20
37.8571
0
VERTEX
8
CUT
10
77.8571
20
40.7143
0
VERTEX
8
CUT
10
80.7143
20
40.7143
0
SEQEND
0
POLYLINE
8
CUT
66
1
70
0
0
VERTEX
8
CUT
10
85
20
45
0
VERTEX
8
CUT
10
93.5714
20
45
0
VERTEX
8
CUT
10
93.5714
20
36.4286
0
VERTEX
8
CUT
10
87.8571
20
36.4286
0
VERTEX
8
CUT
10
87.8571
20
42.1429
0
VERTEX
8
CUT
10
90.7143
20
42.1429
0
VERTEX
8
CUT
10
90.7143
20
39.2857
0
SEQEND
0
POLYLINE
8
CUT
66
1
70
0
0
VERTEX
8
CUT
10
95
20
35
0
VERTEX
8
CUT
10
86.4286
20
35
0
VERTEX
8
CUT
10
86.4286
20
43.5714
0
VERTEX
8
CUT
10
92.1429
20
43.5714
0
VERTEX
8
CUT
10
92.1429
20
37.8571
0
VERTEX
8
CUT
10
89.2857
20
37.8571
0
VERTEX
8
CUT
10
89.2857
20
40.7143
0
SEQEND
0
POLYLINE
8
CUT
66
1
70
0
0
VERTEX
8
CUT
10
105
20
45
0
VERTEX
8
CUT
10
105
20
36.4286
0
VERTEX
8
CUT
10
96.4286
20
36.4286
0
VERTEX
8
CUT
10
96.4286
20
42.1429
0
VERTEX
8
CUT
10
102.1429
20
42.1429
0
VERTEX
8
CUT
10
102.1429
20
39.2857
0
VERTEX
8
CUT
10
99.2857
20
39.2857
0
SEQEND
0
POLYLINE
8
CUT
66
1
70
0
0
VERTEX
8
CUT
10
95
20
35
0
VERTEX
8
CUT
10
95
20
43.5714
0
VERTEX
8
CUT
10
103.5714
20
43.5714
0
VERTEX
8
CUT
10
103.5714
20
37.8571
0
VERTEX
8
CUT
10
97.8571
20
37.8571
0
VERTEX
8
CUT
10
97.8571
20
40.7143
0
VERTEX
8
CUT
10
100.7143
20
40.7143
0
SEQEND
0
POLYLINE
8
CUT
66
1
70
0
0
VERTEX
8
CUT
10
105
20
45
0
VERTEX
8
CUT
10
113.5714
20
45
0
VERTEX
8
CUT
10
113.5714
20
36.4286
0
VERTEX
8
CUT
10
107.8571
20
36.4286
0
VERTEX
8
CUT
10
107.8571
20
42.1429
0
VERTEX
8
CUT
10
110.7143
20
42.1429
0
VERTEX
8
CUT
10
110.7143
20
39.2857
0
SEQEND
0
POLYLINE
8
CUT
66
1
70
0
0
VERTEX
8
CUT
10
115
20
35
0
VERTEX
8
CUT
10
106.4286
20
35
0
VERTEX
8
CUT
10
106.4286
20
43.5714
0
VERTEX
8
CUT
10
112.1429
20
43.5714
0
VERTEX
8
CUT
10
112.1429
20
37.8571
0
VERTEX
8
CUT
10
109.2857
20
37.8571
0
VERTEX
8
CUT
10
109.2857
20
40.7143
0
SEQEND
0
POLYLINE
8
CUT
66
1
70
0
0
VERTEX
8
CUT
10
15
20
35
0
VERTEX
8
CUT
10
15
20
26.4286
0
VERTEX
8
CUT
10
6.4286
20
26.4286
0
VERTEX
8
CUT
10
6.4286
20
32.1429
0
VERTEX
8
CUT
10
12.1429
20
32.1429
0
VERTEX
8
CUT
10
12.1429
20
29.2857
0
VERTEX
8
CUT
10
9.2857
20
29.2857
0
SEQEND
0
POLYLINE
8
CUT
66
1
70
0
0
VERTEX
8
CUT
10
5
20
25
0
VERTEX
8
CUT
10
5
20
33.5714
0
VERTEX
8
CUT
10
13.5714
20
33.5714
0
VERTEX
8
CUT
10
13.5714
20
27.8571
0
VERTEX
8
CUT
10
7.8571
20
27.8571
0
VERTEX
8
CUT
10
7.8571
20
30.7143
0
VERTEX
8
CUT
10
10.7143
20
30.7143
0
SEQEND
0
POLYLINE
8
CUT
66
1
70
0
0
VERTEX
8
CUT
10
15
20
35
0
VERTEX
8
CUT
10
23.5714
20
35
0
VERTEX
8
CUT
10
23.5714
20
26.4286
0
VERTEX
8
CUT
10
17.8571
20
26.4286
0
VERTEX
8
CUT
10
17.8571
20
32.1429
0
VERTEX
8
CUT
10
20.7143
20
32.1429
0
VERTEX
8
CUT
10
20.7143
20
29.2857
0
SEQEND
0
POLYLINE
8
CUT
66
1
70
0
0
VERTEX
8
CUT
10
25
20
25
0
VERTEX
8
CUT
10
16.4286
20
25
0
VERTEX
8
CUT
10
16.4286
20
33.5714
0
VERTEX
8
CUT
10
22.1429
20
33.5714
0
VERTEX
8
CUT
10
22.1429
20
27.8571
0
VERTEX
8
CUT
10
19.2857
20
27.8571
0
VERTEX
8
CUT
10
19.2857
20
30.7143
0
SEQEND
0
POLYLINE
8
CUT
66
1
70
0
0
VERTEX
8
CUT
10
35
20
35
0
VERTEX
8
CUT
10
35
20
26.4286
0
VERTEX
8
CUT
10
26.4286
20
26.4286
0
VERTEX
8
CUT
10
26.4286
20
32.1429
0
VERTEX
8
CUT
10
32.1429
20
32.1429
0
VERTEX
8
CUT
10
32.1429
20
29.2857
0
VERTEX
8
CUT
10
29.2857
20
29.2857
0
SEQEND
0
POLYLINE
8
CUT
66
1
70
0
0
VERTEX
8
CUT
10
25
20
25
0
VERTEX
8
CUT
10
25
20
33.5714
0
VERTEX
8
CUT
10
33.5714
20
33.5714
0
VERTEX
8
CUT
10
33.5714
20
27.8571
0
VERTEX
8
CUT
10
27.8571
20
27.8571
0
VERTEX
8
CUT
10
27.8571
20
30.7143
0
VERTEX
8
CUT
10
30.7143
20
30.7143
0
SEQEND
0
POLYLINE
8
CUT
66
1
70
0
0
VERTEX
8
CUT
10
35
20
35
0
VERTEX
8
CUT
10
43.5714
20
35
0
VERTEX
8
CUT
10
43.5714
20
26.4286
0
VERTEX
8
CUT
10
37.8571
20
26.4286
0
VERTEX
8
CUT
10
37.8571
20
32.1429
0
VERTEX
8
CUT
10
40.7143
20
32.1429
0
VERTEX
8
CUT
10
40.7143
20
29.2857
0
SEQEND
0
POLYLINE
8
CUT
66
1
70
0
0
VERTEX
8
CUT
10
45
20
25
0
VERTEX
8
CUT
10
36.4286
20
25
0
VERTEX
8
CUT
10
36.4286
20
33.5714
0
VERTEX
8
CUT
10
42.1429
20
33.5714
0
VERTEX
8
CUT
10
42.1429
20
27.8571
0
VERTEX
8
CUT
10
39.2857
20
27.8571
0
VERTEX
8
CUT
10
39.2857
20
30.7143
0
SEQEND
0
POLYLINE
8
CUT
66
1
70
0
0
VERTEX
8
CUT
10
55
20
35
0
VERTEX
8
CUT
10
55
20
26.4286
0
VERTEX
8
CUT
10
46.4286
20
26.4286
0
VERTEX
8
CUT
10
46.4286
20
32.1429
0
VERTEX
8
CUT
10
52.1429
20
32.1429
0
VERTEX
8
CUT
10
52.1429
20
29.2857
0
VERTEX
8
CUT
10
49.2857
20
29.2857
0
SEQEND
0
POLYLINE
8
CUT
66
1
70
0
0
VERTEX
8
CUT
10
45
20
25
0
VERTEX
8
CUT
10
45
20
33.5714
0
VERTEX
8
CUT
10
53.5714
20
33.5714
0
VERTEX
8
CUT
10
53.5714
20
27.8571
0
VERTEX
8
CUT
10
47.8571
20
27.8571
0
VERTEX
8
CUT
10
47.8571
20
30.7143
0
VERTEX
8
CUT
10
50.7143
20
30.7143
0
SEQEND
0
POLYLINE
8
CUT
66
1
70
0
0
VERTEX
8
CUT
10
55
20
35
0
VERTEX
8
CUT
10
63.5714
20
35
0
VERTEX
8
CUT
10
63.5714
20
26.4286
0
VERTEX
8
CUT
10
57.8571
20
26.4286
0
VERTEX
8
CUT
10
57.8571
20
32.1429
0
VERTEX
8
CUT
10
60.7143
20
32.1429
0
VERTEX
8
CUT
10
60.7143
20
29.2857
0
SEQEND
0
POLYLINE
8
CUT
66
1
70
0
0
VERTEX
8
CUT
10
65
20
25
0
VERTEX
8
CUT
10
56.4286
20
25
0
VERTEX
8
CUT
10
56.4286
20
33.5714
0
VERTEX
8
CUT
10
62.1429
20
33.5714
0
VERTEX
8
CUT
10
62.1429
20
27.8571
0
VERTEX
8
CUT
10
59.2857
20
27.8571
0
VERTEX
8
CUT
10
59.2857
20
30.7143
0
SEQEND
0
POLYLINE
8
CUT
66
1
70
0
0
VERTEX
8
CUT
10
75
20
35
0
VERTEX
8
CUT
10
75
20
26.4286
0
VERTEX
8
CUT
10
66.4286
20
26.4286
0
VERTEX
8
CUT
10
66.4286
20
32.1429
0
VERTEX
8
CUT
10
72.1429
20
32.1429
0
VERTEX
8
CUT
10
72.1429
20
29.2857
0
VERTEX
8
CUT
10
69.2857
20
29.2857
0
SEQEND
0
POLYLINE
8
CUT
66
1
70
0
0
VERTEX
8
CUT
10
65
20
25
0
VERTEX
8
CUT
10
65
20
33.5714
0
VERTEX
8
CUT
10
73.5714
20
33.5714
0
VERTEX
8
CUT
10
73.5714
20
27.8571
0
VERTEX
8
CUT
10
67.8571
20
27.8571
0
VERTEX
8
CUT
10
67.8571
20
30.7143
0
VERTEX
8
CUT
10
70.7143
20
30.7143
0
SEQEND
0
POLYLINE
8
CUT
66
1
70
0
0
VERTEX
8
CUT
10
75
20
35
0
VERTEX
8
CUT
10
83.5714
20
35
0
VERTEX
8
CUT
10
83.5714
20
26.4286
0
VERTEX
8
CUT
10
77.8571
20
26.4286
0
VERTEX
8
CUT
10
77.8571
20
32.1429
0
VERTEX
8
CUT
10
80.7143
20
32.1429
0
VERTEX
8
CUT
10
80.7143
20
29.2857
0
SEQEND
0
POLYLINE
8
CUT
66
1
70
0
0
VERTEX
8
CUT
10
85
20
25
0
VERTEX
8
CUT
10
76.4286
20
25
0
VERTEX
8
CUT
10
76.4286
20
33.5714
0
VERTEX
8
CUT
10
82.1429
20
33.5714
0
VERTEX
8
CUT
10
82.1429
20
27.8571
0
VERTEX
8
CUT
10
79.2857
20
27.8571
0
VERTEX
8
CUT
10
79.2857
20
30.7143
0
SEQEND
0
POLYLINE
8
CUT
66
1
70
0
0
VERTEX
8
CUT
10
95
20
35
0
VERTEX
8
CUT
10
95
20
26.4286
0
VERTEX
8
CUT
10
86.4286
20
26.4286
0
VERTEX
8
CUT
10
86.4286
20
32.1429
0
VERTEX
8
CUT
10
92.1429
20
32.1429
0
VERTEX
8
CUT
10
92.1429
20
29.2857
0
VERTEX
8
CUT
10
89.2857
20
29.2857
0
SEQEND
0
POLYLINE
8
CUT
66
1
70
0
0
VERTEX
8
CUT
10
85
20
25
0
VERTEX
8
CUT
10
85
20
33.5714
0
VERTEX
8
CUT
10
93.5714
20
33.5714
0
VERTEX
8
CUT
10
93.5714
20
27.8571
0
VERTEX
8
CUT
10
87.8571
20
27.8571
0
VERTEX
8
CUT
10
87.8571
20
30.7143
0
VERTEX
8
CUT
10
90.7143
20
30.7143
0
SEQEND
0
POLYLINE
8
CUT
66
1
70
0
0
VERTEX
8
CUT
10
95
20
35
0
VERTEX
8
CUT
10
103.5714
20
35
0
VERTEX
8
CUT
10
103.5714
20
26.4286
0
VERTEX
8
CUT
10
97.8571
20
26.4286
0
VERTEX
8
CUT
10
97.8571
20
32.1429
0
VERTEX
8
CUT
10
100.7143
20
32.1429
0
VERTEX
8
CUT
10
100.7143
20
29.2857
0
SEQEND
0
POLYLINE
8
CUT
66
1
70
0
0
VERTEX
8
CUT
10
105
20
25
0
VERTEX
8
CUT
10
96.4286
20
25
0
VERTEX
8
CUT
10
96.4286
20
33.5714
0
VERTEX
8
CUT
10
102.1429
20
33.5714
0
VERTEX
8
CUT
10
102.1429
20
27.8571
0
VERTEX
8
CUT
10
99.2857
20
27.8571
0
VERTEX
8
CUT
10
99.2857
20
30.7143
0
SEQEND
0
POLYLINE
8
CUT
66
1
70
0
0
VERTEX
8
CUT
10
115
20
35
0
VERTEX
8
CUT
10
115
20
26.4286
0
VERTEX
8
CUT
10
106.4286
20
26.4286
0
VERTEX
8
CUT
10
106.4286
20
32.1429
0
VERTEX
8
CUT
10
112.1429
20
32.1429
0
VERTEX
8
CUT
10
112.1429
20
29.2857
0
VERTEX
8
CUT
10
109.2857
20
29.2857
0
SEQEND
0
POLYLINE
8
CUT
66
1
70
0
0
VERTEX
8
CUT
10
105
20
25
0
VERTEX
8
CUT
10
105
20
33.5714
0
VERTEX
8
CUT
10
113.5714
20
33.5714
0
VERTEX
8
CUT
10
113.5714
20
27.8571
0
VERTEX
8
CUT
10
107.8571
20
27.8571
0
VERTEX
8
CUT
10
107.8571
20
30.7143
0
VERTEX
8
CUT
10
110.7143
20
30.7143
0
SEQEND
0
POLYLINE
8
CUT
66
1
70
0
0
VERTEX
8
CUT
10
5
20
25
0
VERTEX
8
CUT
10
13.5714
20
25
0
VERTEX
8
CUT
10
13.5714
20
16.4286
0
VERTEX
8
CUT
10
7.8571
20
16.4286
0
VERTEX
8
CUT
10
7.8571
20
22.1429
0
VERTEX
8
CUT
10
10.7143
20
22.1429
0
VERTEX
8
CUT
10
10.7143
20
19.2857
0
SEQEND
0
POLYLINE
8
CUT
66
1
70
0
0
VERTEX
8
CUT
10
15
20
15
0
VERTEX
8
CUT
10
6.4286
20
15
0
VERTEX
8
CUT
10
6.4286
20
23.5714
0
VERTEX
8
CUT
10
12.1429
20
23.5714
0
VERTEX
8
CUT
10
12.1429
20
17.8571
0
VERTEX
8
CUT
10
9.2857
20
17.8571
0
VERTEX
8
CUT
10
9.2857
20
20.7143
0
SEQEND
0
POLYLINE
8
CUT
66
1
70
0
0
VERTEX
8
CUT
10
25
20
25
0
VERTEX
8
CUT
10
25
20
16.4286
0
VERTEX
8
CUT
10
16.4286
20
16.4286
0
VERTEX
8
CUT
10
16.4286
20
22.1429
0
VERTEX
8
CUT
10
22.1429
20
22.1429
0
VERTEX
8
CUT
10
22.1429
20
19.2857
0
VERTEX
8
CUT
10
19.2857
20
19.2857
0
SEQEND
0
POLYLINE
8
CUT
66
1
70
0
0
VERTEX
8
CUT
10
15
20
15
0
VERTEX
8
CUT
10
15
20
23.5714
0
VERTEX
8
CUT
10
23.5714
20
23.5714
0
VERTEX
8
CUT
10
23.5714
20
17.8571
0
VERTEX
8
CUT
10
17.8571
20
17.8571
0
VERTEX
8
CUT
10
17.8571
20
20.7143
0
VERTEX
8
CUT
10
20.7143
20
20.7143
0
SEQEND
0
POLYLINE
8
CUT
66
1
70
0
0
VERTEX
8
CUT
10
25
20
25
0
VERTEX
8
CUT
10
33.5714
20
25
0
VERTEX
8
CUT
10
33.5714
20
16.4286
0
VERTEX
8
CUT
10
27.8571
20
16.4286
0
VERTEX
8
CUT
10
27.8571
20
22.1429
0
VERTEX
8
CUT
10
30.7143
20
22.1429
0
VERTEX
8
CUT
10
30.7143
20
19.2857
0
SEQEND
0
POLYLINE
8
CUT
66
1
70
0
0
VERTEX
8
CUT
10
35
20
15
0
VERTEX
8
CUT
10
26.4286
20
15
0
VERTEX
8
CUT
10
26.4286
20
23.5714
0
VERTEX
8
CUT
10
32.1429
20
23.5714
0
VERTEX
8
CUT
10
32.1429
20
17.8571
0
VERTEX
8
CUT
10
29.2857
20
17.8571
0
VERTEX
8
CUT
10
29.2857
20
20.7143
0
SEQEND
0
POLYLINE
8
CUT
66
1
70
0
0
VERTEX
8
CUT
10
45
20
25
0
VERTEX
8
CUT
10
45
20
16.4286
0
VERTEX
8
CUT
10
36.4286
20
16.4286
0
VERTEX
8
CUT
10
36.4286
20
22.1429
0
VERTEX
8
CUT
10
42.1429
20
22.1429
0
VERTEX
8
CUT
10
42.1429
20
19.2857
0
VERTEX
8
CUT
10
39.2857
20
19.2857
0
SEQEND
0
POLYLINE
8
CUT
66
1
70
0
0
VERTEX
8
CUT
10
35
20
15
0
VERTEX
8
CUT
10
35
20
23.5714
0
VERTEX
8
CUT
10
43.5714
20
23.5714
0
VERTEX
8
CUT
10
43.5714
20
17.8571
0
VERTEX
8
CUT
10
37.8571
20
17.8571
0
VERTEX
8
CUT
10
37.8571
20
20.7143
0
VERTEX
8
CUT
10
40.7143
20
20.7143
0
SEQEND
0
POLYLINE
8
CUT
66
1
70
0
0
VERTEX
8
CUT
10
45
20
25
0
VERTEX
8
CUT
10
53.5714
20
25
0
VERTEX
8
CUT
10
53.5714
20
16.4286
0
VERTEX
8
CUT
10
47.8571
20
16.4286
0
VERTEX
8
CUT
10
47.8571
20
22.1429
0
VERTEX
8
CUT
10
50.7143
20
22.1429
0
VERTEX
8
CUT
10
50.7143
20
19.2857
0
SEQEND
0
POLYLINE
8
CUT
66
1
70
0
0
VERTEX
8
CUT
10
55
20
15
0
VERTEX
8
CUT
10
46.4286
20
15
0
VERTEX
8
CUT
10
46.4286
20
23.5714
0
VERTEX
8
CUT
10
52.1429
20
23.5714
0
VERTEX
8
CUT
10
52.1429
20
17.8571
0
VERTEX
8
CUT
10
49.2857
20
17.8571
0
VERTEX
8
CUT
10
49.2857
20
20.7143
0
SEQEND
0
POLYLINE
8
CUT
66
1
70
0
0
VERTEX
8
CUT
10
65
20
25
0
VERTEX
8
CUT
10
65
20
16.4286
0
VERTEX
8
CUT
10
56.4286
20
16.4286
0
VERTEX
8
CUT
10
56.4286
20
22.1429
0
VERTEX
8
CUT
10
62.1429
20
22.1429
0
VERTEX
8
CUT
10
62.1429
20
19.2857
0
VERTEX
8
CUT
10
59.2857
20
19.2857
0
SEQEND
0
POLYLINE
8
CUT
66
1
70
0
0
VERTEX
8
CUT
10
55
20
15
0
VERTEX
8
CUT
10
55
20
23.5714
0
VERTEX
8
CUT
10
63.5714
20
23.5714
0
VERTEX
8
CUT
10
63.5714
20
17.8571
0
VERTEX
8
CUT
10
57.8571
20
17.8571
0
VERTEX
8
CUT
10
57.8571
20
20.7143
0
VERTEX
8
CUT
10
60.7143
20
20.7143
0
SEQEND
0
POLYLINE
8
CUT
66
1
70
0
0
VERTEX
8
CUT
10
65
20
25
0
VERTEX
8
CUT
10
73.5714
20
25
0
VERTEX
8
CUT
10
73.5714
20
16.4286
0
VERTEX
8
CUT
10
67.8571
20
16.4286
0
VERTEX
8
CUT
10
67.8571
20
22.1429
0
VERTEX
8
CUT
10
70.7143
20
22.1429
0
VERTEX
8
CUT
10
70.7143
20
19.2857
0
SEQEND
0
POLYLINE
8
CUT
66
1
70
0
0
VERTEX
8
CUT
10
75
20
15
0
VERTEX
8
CUT
10
66.4286
20
15
0
VERTEX
8
CUT
10
66.4286
20
23.5714
0
VERTEX
8
CUT
10
72.1429
20
23.5714
0
VERTEX
8
CUT
10
72.1429
20
17.8571
0
VERTEX
8
CUT
10
69.2857
20
17.8571
0
VERTEX
8
CUT
10
69.2857
20
20.7143
0
SEQEND
0
POLYLINE
8
CUT
66
1
70
0
0
VERTEX
8
CUT
10
85
20
25
0
VERTEX
8
CUT
10
85
20
16.4286
0
VERTEX
8
CUT
10
76.4286
20
16.4286
0
VERTEX
8
CUT
10
76.4286
20
22.1429
0
VERTEX
8
CUT
10
82.1429
20
22.1429
0
VERTEX
8
CUT
10
82.1429
20
19.2857
0
VERTEX
8
CUT
10
79.2857
20
19.2857
0
SEQEND
0
POLYLINE
8
CUT
66
1
70
0
0
VERTEX
8
CUT
10
75
20
15
0
VERTEX
8
CUT
10
75
20
23.5714
0
VERTEX
8
CUT
10
83.5714
20
23.5714
0
VERTEX
8
CUT
10
83.5714
20
17.8571
0
VERTEX
8
CUT
10
77.8571
20
17.8571
0
VERTEX
8
CUT
10
77.8571
20
20.7143
0
VERTEX
8
CUT
10
80.7143
20
20.7143
0
SEQEND
0
POLYLINE
8
CUT
66
1
70
0
0
VERTEX
8
CUT
10
85
20
25
0
VERTEX
8
CUT
10
93.5714
20
25
0
VERTEX
8
CUT
10
93.5714
20
16.4286
0
VERTEX
8
CUT
10
87.8571
20
16.4286
0
VERTEX
8
CUT
10
87.8571
20
22.1429
0
VERTEX
8
CUT
10
90.7143
20
22.1429
0
VERTEX
8
CUT
10
90.7143
20
19.2857
0
SEQEND
0
POLYLINE
8
CUT
66
1
70
0
0
VERTEX
8
CUT
10
95
20
15
0
VERTEX
8
CUT
10
86.4286
20
15
0
VERTEX
8
CUT
10
86.4286
20
23.5714
0
VERTEX
8
CUT
10
92.1429
20
23.5714
0
VERTEX
8
CUT
10
92.1429
20
17.8571
0
VERTEX
8
CUT
10
89.2857
20
17.8571
0
VERTEX
8
CUT
10
89.2857
20
20.7143
0
SEQEND
0
POLYLINE
8
CUT
66
1
70
0
0
VERTEX
8
CUT
10
105
20
25
0
VERTEX
8
CUT
10
105
20
16.4286
0
VERTEX
8
CUT
10
96.4286
20
16.4286
0
VERTEX
8
CUT
10
96.4286
20
22.1429
0
VERTEX
8
CUT
10
102.1429
20
22.1429
0
VERTEX
8
CUT
10
102.1429
20
19.2857
0
VERTEX
8
CUT
10
99.2857
20
19.2857
0
SEQEND
0
POLYLINE
8
CUT
66
1
70
0
0
VERTEX
8
CUT
10
95
20
15
0
VERTEX
8
CUT
10
95
20
23.5714
0
VERTEX
8
CUT
10
103.5714
20
23.5714
0
VERTEX
8
CUT
10
103.5714
20
17.8571
0
VERTEX
8
CUT
10
97.8571
20
17.8571
0
VERTEX
8
CUT
10
97.8571
20
20.7143
0
VERTEX
8
CUT
10
100.7143
20
20.7143
0
SEQEND
0
POLYLINE
8
CUT
66
1
70
0
0
VERTEX
8
CUT
10
105
20
25
0
VERTEX
8
CUT
10
113.5714
20
25
0
VERTEX
8
CUT
10
113.5714
20
16.4286
0
VERTEX
8
CUT
10
107.8571
20
16.4286
0
VERTEX
8
CUT
10
107.8571
20
22.1429
0
VERTEX
8
CUT
10
110.7143
20
22.1429
0
VERTEX
8
CUT
10
110.7143
20
19.2857
0
SEQEND
0
POLYLINE
8
CUT
66
1
70
0
0
VERTEX
8
CUT
10
115
20
15
0
VERTEX
8
CUT
10
106.4286
20
15
0
VERTEX
8
CUT
10
106.4286
20
23.5714
0
VERTEX
8
CUT
10
112.1429
20
23.5714
0
VERTEX
8
CUT
10
112.1429
20
17.8571
0
VERTEX
8
CUT
10
109.2857
20
17.8571
0
VERTEX
8
CUT
10
109.2857
20
20.7143
0
SEQEND
0
POLYLINE
8
CUT
66
1
70
0
0
VERTEX
8
CUT
10
15
20
15
0
VERTEX
8
CUT
10
15
20
6.4286
0
VERTEX
8
CUT
10
6.4286
20
6.4286
0
VERTEX
8
CUT
10
6.4286
20
12.1429
0
VERTEX
8
CUT
10
12.1429
20
12.1429
0
VERTEX
8
CUT
10
12.1429
20
9.2857
0
VERTEX
8
CUT
10
9.2857
20
9.2857
0
SEQEND
0
POLYLINE
8
CUT
66
1
70
0
0
VERTEX
8
CUT
10
5
20
5
0
VERTEX
8
CUT
10
5
20
13.5714
0
VERTEX
8
CUT
10
13.5714
20
13.5714
0
VERTEX
8
CUT
10
13.5714
20
7.8571
0
VERTEX
8
CUT
10
7.8571
20
7.8571
0
VERTEX
8
CUT
10
7.8571
20
10.7143
0
VERTEX
8
CUT
10
10.7143
20
10.7143
0
SEQEND
0
POLYLINE
8
CUT
66
1
70
0
0
VERTEX
8
CUT
10
15
20
15
0
VERTEX
8
CUT
10
23.5714
20
15
0
VERTEX
8
CUT
10
23.5714
20
6.4286
0
VERTEX
8
CUT
10
17.8571
20
6.4286
0
VERTEX
8
CUT
10
17.8571
20
12.1429
0
VERTEX
8
CUT
10
20.7143
20
12.1429
0
VERTEX
8
CUT
10
20.7143
20
9.2857
0
SEQEND
0
POLYLINE
8
CUT
66
1
70
0
0
VERTEX
8
CUT
10
25
20
5
0
VERTEX
8
CUT
10
16.4286
20
5
0
VERTEX
8
CUT
10
16.4286
20
13.5714
0
VERTEX
8
CUT
10
22.1429
20
13.5714
0
VERTEX
8
CUT
10
22.1429
20
7.8571
0
VERTEX
8
CUT
10
19.2857
20
7.8571
0
VERTEX
8
CUT
10
19.2857
20
10.7143
0
SEQEND
0
POLYLINE
8
CUT
66
1
70
0
0
VERTEX
8
CUT
10
35
20
15
0
VERTEX
8
CUT
10
35
20
6.4286
0
VERTEX
8
CUT
10
26.4286
20
6.4286
0
VERTEX
8
CUT
10
26.4286
20
12.1429
0
VERTEX
8
CUT
10
32.1429
20
12.1429
0
VERTEX
8
CUT
10
32.1429
20
9.2857
0
VERTEX
8
CUT
10
29.2857
20
9.2857
0
SEQEND
0
POLYLINE
8
CUT
66
1
70
0
0
VERTEX
8
CUT
10
25
20
5
0
VERTEX
8
CUT
10
25
20
13.5714
0
VERTEX
8
CUT
10
33.5714
20
13.5714
0
VERTEX
8
CUT
10
33.5714
20
7.8571
0
VERTEX
8
CUT
10
27.8571
20
7.8571
0
VERTEX
8
CUT
10
27.8571
20
10.7143
0
VERTEX
8
CUT
10
30.7143
20
10.7143
0
SEQEND
0
POLYLINE
8
CUT
66
1
70
0
0
VERTEX
8
CUT
10
35
20
15
0
VERTEX
8
CUT
10
43.5714
20
15
0
VERTEX
8
CUT
10
43.5714
20
6.4286
0
VERTEX
8
CUT
10
37.8571
20
6.4286
0
VERTEX
8
CUT
10
37.8571
20
12.1429
0
VERTEX
8
CUT
10
40.7143
20
12.1429
0
VERTEX
8
CUT
10
40.7143
20
9.2857
0
SEQEND
0
POLYLINE
8
CUT
66
1
70
0
0
VERTEX
8
CUT
10
45
20
5
0
VERTEX
8
CUT
10
36.4286
20
5
0
VERTEX
8
CUT
10
36.4286
20
13.5714
0
VERTEX
8
CUT
10
42.1429
20
13.5714
0
VERTEX
8
CUT
10
42.1429
20
7.8571
0
VERTEX
8
CUT
10
39.2857
20
7.8571
0
VERTEX
8
CUT
10
39.2857
20
10.7143
0
SEQEND
0
POLYLINE
8
CUT
66
1
70
0
0
VERTEX
8
CUT
10
55
20
15
0
VERTEX
8
CUT
10
55
20
6.4286
0
VERTEX
8
CUT
10
46.4286
20
6.4286
0
VERTEX
8
CUT
10
46.4286
20
12.1429
0
VERTEX
8
CUT
10
52.1429
20
12.1429
0
VERTEX
8
CUT
10
52.1429
20
9.2857
0
VERTEX
8
CUT
10
49.2857
20
9.2857
0
SEQEND
0
POLYLINE
8
CUT
66
1
70
0
0
VERTEX
8
CUT
10
45
20
5
0
VERTEX
8
CUT
10
45
20
13.5714
0
VERTEX
8
CUT
10
53.5714
20
13.5714
0
VERTEX
8
CUT
10
53.5714
20
7.8571
0
VERTEX
8
CUT
10
47.8571
20
7.8571
0
VERTEX
8
CUT
10
47.8571
20
10.7143
0
VERTEX
8
CUT
10
50.7143
20
10.7143
0
SEQEND
0
POLYLINE
8
CUT
66
1
70
0
0
VERTEX
8
CUT
10
55
20
15
0
VERTEX
8
CUT
10
63.5714
20
15
0
VERTEX
8
CUT
10
63.5714
20
6.4286
0
VERTEX
8
CUT
10
57.8571
20
6.4286
0
VERTEX
8
CUT
10
57.8571
20
12.1429
0
VERTEX
8
CUT
10
60.7143
20
12.1429
0
VERTEX
8
CUT
10
60.7143
20
9.2857
0
SEQEND
0
POLYLINE
8
CUT
66
1
70
0
0
VERTEX
8
CUT
10
65
20
5
0
VERTEX
8
CUT
10
56.4286
20
5
0
VERTEX
8
CUT
10
56.4286
20
13.5714
0
VERTEX
8
CUT
10
62.1429
20
13.5714
0
VERTEX
8
CUT
10
62.1429
20
7.8571
0
VERTEX
8
CUT
10
59.2857
20
7.8571
0
VERTEX
8
CUT
10
59.2857
20
10.7143
0
SEQEND
0
POLYLINE
8
CUT
66
1
70
0
0
VERTEX
8
CUT
10
75
20
15
0
VERTEX
8
CUT
10
75
20
6.4286
0
VERTEX
8
CUT
10
66.4286
20
6.4286
0
VERTEX
8
CUT
10
66.4286
20
12.1429
0
VERTEX
8
CUT
10
72.1429
20
12.1429
0
VERTEX
8
CUT
10
72.1429
20
9.2857
0
VERTEX
8
CUT
10
69.2857
20
9.2857
0
SEQEND
0
POLYLINE
8
CUT
66
1
70
0
0
VERTEX
8
CUT
10
65
20
5
0
VERTEX
8
CUT
10
65
20
13.5714
0
VERTEX
8
CUT
10
73.5714
20
13.5714
0
VERTEX
8
CUT
10
73.5714
20
7.8571
0
VERTEX
8
CUT
10
67.8571
20
7.8571
0
VERTEX
8
CUT
10
67.8571
20
10.7143
0
VERTEX
8
CUT
10
70.7143
20
10.7143
0
SEQEND
0
POLYLINE
8
CUT
66
1
70
0
0
VERTEX
8
CUT
10
75
20
15
0
VERTEX
8
CUT
10
83.5714
20
15
0
VERTEX
8
CUT
10
83.5714
20
6.4286
0
VERTEX
8
CUT
10
77.8571
20
6.4286
0
VERTEX
8
CUT
10
77.8571
20
12.1429
0
VERTEX
8
CUT
10
80.7143
20
12.1429
0
VERTEX
8
CUT
10
80.7143
20
9.2857
0
SEQEND
0
POLYLINE
8
CUT
66
1
70
0
0
VERTEX
8
CUT
10
85
20
5
0
VERTEX
8
CUT
10
76.4286
20
5
0
VERTEX
8
CUT
10
76.4286
20
13.5714
0
VERTEX
8
CUT
10
82.1429
20
13.5714
0
VERTEX
8
CUT
10
82.1429
20
7.8571
0
VERTEX
8
CUT
10
79.2857
20
7.8571
0
VERTEX
8
CUT
10
79.2857
20
10.7143
0
SEQEND
0
POLYLINE
8
CUT
66
1
70
0
0
VERTEX
8
CUT
10
95
20
15
0
VERTEX
8
CUT
10
95
20
6.4286
0
VERTEX
8
CUT
10
86.4286
20
6.4286
0
VERTEX
8
CUT
10
86.4286
20
12.1429
0
VERTEX
8
CUT
10
92.1429
20
12.1429
0
VERTEX
8
CUT
10
92.1429
20
9.2857
0
VERTEX
8
CUT
10
89.2857
20
9.2857
0
SEQEND
0
POLYLINE
8
CUT
66
1
70
0
0
VERTEX
8
CUT
10
85
20
5
0
VERTEX
8
CUT
10
85
20
13.5714
0
VERTEX
8
CUT
10
93.5714
20
13.5714
0
VERTEX
8
CUT
10
93.5714
20
7.8571
0
VERTEX
8
CUT
10
87.8571
20
7.8571
0
VERTEX
8
CUT
10
87.8571
20
10.7143
0
VERTEX
8
CUT
10
90.7143
20
10.7143
0
SEQEND
0
POLYLINE
8
CUT
66
1
70
0
0
VERTEX
8
CUT
10
95
20
15
0
VERTEX
8
CUT
10
103.5714
20
15
0
VERTEX
8
CUT
10
103.5714
20
6.4286
0
VERTEX
8
CUT
10
97.8571
20
6.4286
0
VERTEX
8
CUT
10
97.8571
20
12.1429
0
VERTEX
8
CUT
10
100.7143
20
12.1429
0
VERTEX
8
CUT
10
100.7143
20
9.2857
0
SEQEND
0
POLYLINE
8
CUT
66
1
70
0
0
VERTEX
8
CUT
10
105
20
5
0
VERTEX
8
CUT
10
96.4286
20
5
0
VERTEX
8
CUT
10
96.4286
20
13.5714
0
VERTEX
8
CUT
10
102.1429
20
13.5714
0
VERTEX
8
CUT
10
102.1429
20
7.8571
0
VERTEX
8
CUT
10
99.2857
20
7.8571
0
VERTEX
8
CUT
10
99.2857
20
10.7143
0
SEQEND
0
POLYLINE
8
CUT
66
1
70
0
0
VERTEX
8
CUT
10
115
20
15
0
VERTEX
8
CUT
10
115
20
6.4286
0
VERTEX
8
CUT
10
106.4286
20
6.4286
0
VERTEX
8
CUT
10
106.4286
20
12.1429
0
VERTEX
8
CUT
10
112.1429
20
12.1429
0
VERTEX
8
CUT
10
112.1429
20
9.2857
0
VERTEX
8
CUT
10
109.2857
20
9.2857
0
SEQEND
0
POLYLINE
8
CUT
66
1
70
0
0
VERTEX
8
CUT
10
105
20
5
0
VERTEX
8
CUT
10
105
20
13.5714
0
VERTEX
8
CUT
10
113.5714
20
13.5714
0
VERTEX
8
CUT
10
113.5714
20
7.8571
0
VERTEX
8
CUT
10
107.8571
20
7.8571
0
VERTEX
8
CUT
10
107.8571
20
10.7143
0
VERTEX
8
CUT
10
110.7143
20
10.7143
0
SEQEND
0
POLYLINE
8
CUT
66
1
70
0
0
VERTEX
8
CUT
10
0
20
70
0
VERTEX
8
CUT
10
120
20
70
0
VERTEX
8
CUT
10
120
20
0
0
VERTEX
8
CUT
10
0
20
0
0
VERTEX
8
CUT
10
0
20
70
0
SEQEND
0
ENDSEC
0
EOF
