0
SECTION
2
HEADER
9
$ACADVER
1
AC1009
9
$INSUNITS
70
4
0
ENDSEC
0
SECTION
2
TABLES
0
TABLE
2
LAYER
70
1
0
LAYER
2
CUT
70
0
62
1
6
CONTINUOUS
0
ENDTAB
0
ENDSEC
0
SECTION
2
ENTITIES
0
LINE
8
CUT
10
2
20
53.4115
11
8.2679
21
53.4115
0
LINE
8
CUT
10
8.7679
20
54.2776
11
2.5
21
65.134
0
POLYLINE
8
CUT
66
1
70
0
0
VERTEX
8
CUT
10
3
20
54.4115
0
VERTEX
8
CUT
10
7.5359
20
54.4115
0
VERTEX
8
CUT
10
5.2679
20
58.3397
0
SEQEND
0
POLYLINE
8
CUT
66
1
70
0
0
VERTEX
8
CUT
10
4.2679
20
60.0718
0
VERTEX
8
CUT
10
2
20
64
0
VERTEX
8
CUT
10
2
20
64
0
SEQEND
0
LINE
8
CUT
10
2
20
55.4115
11
4.8038
21
55.4115
0
LINE
8
CUT
10
5.3038
20
56.2776
11
2.5
21
61.134
0
POLYLINE
8
CUT
66
1
70
0
0
VERTEX
8
CUT
10
3
20
56.4115
0
VERTEX
8
CUT
10
4.0718
20
56.4115
0
VERTEX
8
CUT
10
3.5359
20
57.3397
0
SEQEND
0
POLYLINE
8
CUT
66
1
70
0
0
VERTEX
8
CUT
10
2.5359
20
59.0718
0
VERTEX
8
CUT
10
2
20
60
0
VERTEX
8
CUT
10
2
20
60
0
SEQEND
0
LINE
8
CUT
10
4.7321
20
67
11
17.2679
21
67
0
LINE
8
CUT
10
17.7679
20
66.134
11
11.5
21
55.2776
0
LINE
8
CUT
10
10.5
20
55.2776
11
4.2321
21
66.134
0
POLYLINE
8
CUT
66
1
70
0
0
VERTEX
8
CUT
10
7.7321
20
62.0718
0
VERTEX
8
CUT
10
5.4641
20
66
0
VERTEX
8
CUT
10
10
20
66
0
SEQEND
0
POLYLINE
8
CUT
66
1
70
0
0
VERTEX
8
CUT
10
12
20
66
0
VERTEX
8
CUT
10
16.5359
20
66
0
VERTEX
8
CUT
10
14.2679
20
62.0718
0
SEQEND
0
POLYLINE
8
CUT
66
1
70
0
0
VERTEX
8
CUT
10
13.2679
20
60.3397
0
VERTEX
8
CUT
10
11
20
56.4115
0
VERTEX
8
CUT
10
8.7321
20
60.3397
0
SEQEND
0
LINE
8
CUT
10
8.1962
20
65
11
13.8038
21
65
0
LINE
8
CUT
10
14.3038
20
64.134
11
11.5
21
59.2776
0
LINE
8
CUT
10
10.5
20
59.2776
11
7.6962
21
64.134
0
POLYLINE
8
CUT
66
1
70
0
0
VERTEX
8
CUT
10
9.4641
20
63.0718
0
VERTEX
8
CUT
10
8.9282
20
64
0
VERTEX
8
CUT
10
10
20
64
0
SEQEND
0
POLYLINE
8
CUT
66
1
70
0
0
VERTEX
8
CUT
10
12
20
64
0
VERTEX
8
CUT
10
13.0718
20
64
0
VERTEX
8
CUT
10
12.5359
20
63.0718
0
SEQEND
0
POLYLINE
8
CUT
66
1
70
0
0
VERTEX
8
CUT
10
11.5359
20
61.3397
0
VERTEX
8
CUT
10
11
20
60.4115
0
VERTEX
8
CUT
10
10.4641
20
61.3397
0
SEQEND
0
LINE
8
CUT
10
13.7321
20
53.4115
11
26.2679
21
53.4115
0
LINE
8
CUT
10
26.7679
20
54.2776
11
20.5
21
65.134
0
LINE
8
CUT
10
19.5
20
65.134
11
13.2321
21
54.2776
0
POLYLINE
8
CUT
66
1
70
0
0
VERTEX
8
CUT
10
16.7321
20
58.3397
0
VERTEX
8
CUT
10
14.4641
20
54.4115
0
VERTEX
8
CUT
10
19
20
54.4115
0
SEQEND
0
POLYLINE
8
CUT
66
1
70
0
0
VERTEX
8
CUT
10
21
20
54.4115
0
VERTEX
8
CUT
10
25.5359
20
54.4115
0
VERTEX
8
CUT
10
23.2679
20
58.3397
0
SEQEND
0
POLYLINE
8
CUT
66
1
70
0
0
VERTEX
8
CUT
10
22.2679
20
60.0718
0
VERTEX
8
CUT
10
20
20
64
0
VERTEX
8
CUT
10
17.7321
20
60.0718
0
SEQEND
0
LINE
8
CUT
10
17.1962
20
55.4115
11
22.8038
21
55.4115
0
LINE
8
CUT
10
23.3038
20
56.2776
11
20.5
21
61.134
0
LINE
8
CUT
10
19.5
20
61.134
11
16.6962
21
56.2776
0
POLYLINE
8
CUT
66
1
70
0
0
VERTEX
8
CUT
10
18.4641
20
57.3397
0
VERTEX
8
CUT
10
17.9282
20
56.4115
0
VERTEX
8
CUT
10
19
20
56.4115
0
SEQEND
0
POLYLINE
8
CUT
66
1
70
0
0
VERTEX
8
CUT
10
21
20
56.4115
0
VERTEX
8
CUT
10
22.0718
20
56.4115
0
VERTEX
8
CUT
10
21.5359
20
57.3397
0
SEQEND
0
POLYLINE
8
CUT
66
1
70
0
0
VERTEX
8
CUT
10
20.5359
20
59.0718
0
VERTEX
8
CUT
10
20
20
60
0
VERTEX
8
CUT
10
19.4641
20
59.0718
0
SEQEND
0
LINE
8
CUT
10
22.7321
20
67
11
35.2679
21
67
0
LINE
8
CUT
10
35.7679
20
66.134
11
29.5
21
55.2776
0
LINE
8
CUT
10
28.5
20
55.2776
11
22.2321
21
66.134
0
POLYLINE
8
CUT
66
1
70
0
0
VERTEX
8
CUT
10
25.7321
20
62.0718
0
VERTEX
8
CUT
10
23.4641
20
66
0
VERTEX
8
CUT
10
28
20
66
0
SEQEND
0
POLYLINE
8
CUT
66
1
70
0
0
VERTEX
8
CUT
10
30
20
66
0
VERTEX
8
CUT
10
34.5359
20
66
0
VERTEX
8
CUT
10
32.2679
20
62.0718
0
SEQEND
0
POLYLINE
8
CUT
66
1
70
0
0
VERTEX
8
CUT
10
31.2679
20
60.3397
0
VERTEX
8
CUT
10
29
20
56.4115
0
VERTEX
8
CUT
10
26.7321
20
60.3397
0
SEQEND
0
LINE
8
CUT
10
26.1962
20
65
11
31.8038
21
65
0
LINE
8
CUT
10
32.3038
20
64.134
11
29.5
21
59.2776
0
LINE
8
CUT
10
28.5
20
59.2776
11
25.6962
21
64.134
0
POLYLINE
8
CUT
66
1
70
0
0
VERTEX
8
CUT
10
27.4641
20
63.0718
0
VERTEX
8
CUT
10
26.9282
20
64
0
VERTEX
8
CUT
10
28
20
64
0
SEQEND
0
POLYLINE
8
CUT
66
1
70
0
0
VERTEX
8
CUT
10
30
20
64
0
VERTEX
8
CUT
10
31.0718
20
64
0
VERTEX
8
CUT
10
30.5359
20
63.0718
0
SEQEND
0
POLYLINE
8
CUT
66
1
70
0
0
VERTEX
8
CUT
10
29.5359
20
61.3397
0
VERTEX
8
CUT
10
29
20
60.4115
0
VERTEX
8
CUT
10
28.4641
20
61.3397
0
SEQEND
0
LINE
8
CUT
10
31.7321
20
53.4115
11
44.2679
21
53.4115
0
LINE
8
CUT
10
44.7679
20
54.2776
11
38.5
21
65.134
0
LINE
8
CUT
10
37.5
20
65.134
11
31.2321
21
54.2776
0
POLYLINE
8
CUT
66
1
70
0
0
VERTEX
8
CUT
10
34.7321
20
58.3397
0
VERTEX
8
CUT
10
32.4641
20
54.4115
0
VERTEX
8
CUT
10
37
20
54.4115
0
SEQEND
0
POLYLINE
8
CUT
66
1
70
0
0
VERTEX
8
CUT
10
39
20
54.4115
0
VERTEX
8
CUT
10
43.5359
20
54.4115
0
VERTEX
8
CUT
10
41.2679
20
58.3397
0
SEQEND
0
POLYLINE
8
CUT
66
1
70
0
0
VERTEX
8
CUT
10
40.2679
20
60.0718
0
VERTEX
8
CUT
10
38
20
64
0
VERTEX
8
CUT
10
35.7321
20
60.0718
0
SEQEND
0
LINE
8
CUT
10
35.1962
20
55.4115
11
40.8038
21
55.4115
0
LINE
8
CUT
10
41.3038
20
56.2776
11
38.5
21
61.134
0
LINE
8
CUT
10
37.5
20
61.134
11
34.6962
21
56.2776
0
POLYLINE
8
CUT
66
1
70
0
0
VERTEX
8
CUT
10
36.4641
20
57.3397
0
VERTEX
8
CUT
10
35.9282
20
56.4115
0
VERTEX
8
CUT
10
37
20
56.4115
0
SEQEND
0
POLYLINE
8
CUT
66
1
70
0
0
VERTEX
8
CUT
10
39
20
56.4115
0
VERTEX
8
CUT
10
40.0718
20
56.4115
0
VERTEX
8
CUT
10
39.5359
20
57.3397
0
SEQEND
0
POLYLINE
8
CUT
66
1
70
0
0
VERTEX
8
CUT
10
38.5359
20
59.0718
0
VERTEX
8
CUT
10
38
20
60
0
VERTEX
8
CUT
10
37.4641
20
59.0718
0
SEQEND
0
LINE
8
CUT
10
40.7321
20
67
11
53.2679
21
67
0
LINE
8
CUT
10
53.7679
20
66.134
11
47.5
21
55.2776
0
LINE
8
CUT
10
46.5
20
55.2776
11
40.2321
21
66.134
0
POLYLINE
8
CUT
66
1
70
0
0
VERTEX
8
CUT
10
43.7321
20
62.0718
0
VERTEX
8
CUT
10
41.4641
20
66
0
VERTEX
8
CUT
10
46
20
66
0
SEQEND
0
POLYLINE
8
CUT
66
1
70
0
0
VERTEX
8
CUT
10
48
20
66
0
VERTEX
8
CUT
10
52.5359
20
66
0
VERTEX
8
CUT
10
50.2679
20
62.0718
0
SEQEND
0
POLYLINE
8
CUT
66
1
70
0
0
VERTEX
8
CUT
10
49.2679
20
60.3397
0
VERTEX
8
CUT
10
47
20
56.4115
0
VERTEX
8
CUT
10
44.7321
20
60.3397
0
SEQEND
0
LINE
8
CUT
10
44.1962
20
65
11
49.8038
21
65
0
LINE
8
CUT
10
50.3038
20
64.134
11
47.5
21
59.2776
0
LINE
8
CUT
10
46.5
20
59.2776
11
43.6962
21
64.134
0
POLYLINE
8
CUT
66
1
70
0
0
VERTEX
8
CUT
10
45.4641
20
63.0718
0
VERTEX
8
CUT
10
44.9282
20
64
0
VERTEX
8
CUT
10
46
20
64
0
SEQEND
0
POLYLINE
8
CUT
66
1
70
0
0
VERTEX
8
CUT
10
48
20
64
0
VERTEX
8
CUT
10
49.0718
20
64
0
VERTEX
8
CUT
10
48.5359
20
63.0718
0
SEQEND
0
POLYLINE
8
CUT
66
1
70
0
0
VERTEX
8
CUT
10
47.5359
20
61.3397
0
VERTEX
8
CUT
10
47
20
60.4115
0
VERTEX
8
CUT
10
46.4641
20
61.3397
0
SEQEND
0
LINE
8
CUT
10
49.7321
20
53.4115
11
62.2679
21
53.4115
0
LINE
8
CUT
10
62.7679
20
54.2776
11
56.5
21
65.134
0
LINE
8
CUT
10
55.5
20
65.134
11
49.2321
21
54.2776
0
POLYLINE
8
CUT
66
1
70
0
0
VERTEX
8
CUT
10
52.7321
20
58.3397
0
VERTEX
8
CUT
10
50.4641
20
54.4115
0
VERTEX
8
CUT
10
55
20
54.4115
0
SEQEND
0
POLYLINE
8
CUT
66
1
70
0
0
VERTEX
8
CUT
10
57
20
54.4115
0
VERTEX
8
CUT
10
61.5359
20
54.4115
0
VERTEX
8
CUT
10
59.2679
20
58.3397
0
SEQEND
0
POLYLINE
8
CUT
66
1
70
0
0
VERTEX
8
CUT
10
58.2679
20
60.0718
0
VERTEX
8
CUT
10
56
20
64
0
VERTEX
8
CUT
10
53.7321
20
60.0718
0
SEQEND
0
LINE
8
CUT
10
53.1962
20
55.4115
11
58.8038
21
55.4115
0
LINE
8
CUT
10
59.3038
20
56.2776
11
56.5
21
61.134
0
LINE
8
CUT
10
55.5
20
61.134
11
52.6962
21
56.2776
0
POLYLINE
8
CUT
66
1
70
0
0
VERTEX
8
CUT
10
54.4641
20
57.3397
0
VERTEX
8
CUT
10
53.9282
20
56.4115
0
VERTEX
8
CUT
10
55
20
56.4115
0
SEQEND
0
POLYLINE
8
CUT
66
1
70
0
0
VERTEX
8
CUT
10
57
20
56.4115
0
VERTEX
8
CUT
10
58.0718
20
56.4115
0
VERTEX
8
CUT
10
57.5359
20
57.3397
0
SEQEND
0
POLYLINE
8
CUT
66
1
70
0
0
VERTEX
8
CUT
10
56.5359
20
59.0718
0
VERTEX
8
CUT
10
56
20
60
0
VERTEX
8
CUT
10
55.4641
20
59.0718
0
SEQEND
0
LINE
8
CUT
10
58.7321
20
67
11
71.2679
21
67
0
LINE
8
CUT
10
71.7679
20
66.134
11
65.5
21
55.2776
0
LINE
8
CUT
10
64.5
20
55.2776
11
58.2321
21
66.134
0
POLYLINE
8
CUT
66
1
70
0
0
VERTEX
8
CUT
10
61.7321
20
62.0718
0
VERTEX
8
CUT
10
59.4641
20
66
0
VERTEX
8
CUT
10
64
20
66
0
SEQEND
0
POLYLINE
8
CUT
66
1
70
0
0
VERTEX
8
CUT
10
66
20
66
0
VERTEX
8
CUT
10
70.5359
20
66
0
VERTEX
8
CUT
10
68.2679
20
62.0718
0
SEQEND
0
POLYLINE
8
CUT
66
1
70
0
0
VERTEX
8
CUT
10
67.2679
20
60.3397
0
VERTEX
8
CUT
10
65
20
56.4115
0
VERTEX
8
CUT
10
62.7321
20
60.3397
0
SEQEND
0
LINE
8
CUT
10
62.1962
20
65
11
67.8038
21
65
0
LINE
8
CUT
10
68.3038
20
64.134
11
65.5
21
59.2776
0
LINE
8
CUT
10
64.5
20
59.2776
11
61.6962
21
64.134
0
POLYLINE
8
CUT
66
1
70
0
0
VERTEX
8
CUT
10
63.4641
20
63.0718
0
VERTEX
8
CUT
10
62.9282
20
64
0
VERTEX
8
CUT
10
64
20
64
0
SEQEND
0
POLYLINE
8
CUT
66
1
70
0
0
VERTEX
8
CUT
10
66
20
64
0
VERTEX
8
CUT
10
67.0718
20
64
0
VERTEX
8
CUT
10
66.5359
20
63.0718
0
SEQEND
0
POLYLINE
8
CUT
66
1
70
0
0
VERTEX
8
CUT
10
65.5359
20
61.3397
0
VERTEX
8
CUT
10
65
20
60.4115
0
VERTEX
8
CUT
10
64.4641
20
61.3397
0
SEQEND
0
LINE
8
CUT
10
67.7321
20
53.4115
11
80.2679
21
53.4115
0
LINE
8
CUT
10
80.7679
20
54.2776
11
74.5
21
65.134
0
LINE
8
CUT
10
73.5
20
65.134
11
67.2321
21
54.2776
0
POLYLINE
8
CUT
66
1
70
0
0
VERTEX
8
CUT
10
70.7321
20
58.3397
0
VERTEX
8
CUT
10
68.4641
20
54.4115
0
VERTEX
8
CUT
10
73
20
54.4115
0
SEQEND
0
POLYLINE
8
CUT
66
1
70
0
0
VERTEX
8
CUT
10
75
20
54.4115
0
VERTEX
8
CUT
10
79.5359
20
54.4115
0
VERTEX
8
CUT
10
77.2679
20
58.3397
0
SEQEND
0
POLYLINE
8
CUT
66
1
70
0
0
VERTEX
8
CUT
10
76.2679
20
60.0718
0
VERTEX
8
CUT
10
74
20
64
0
VERTEX
8
CUT
10
71.7321
20
60.0718
0
SEQEND
0
LINE
8
CUT
10
71.1962
20
55.4115
11
76.8038
21
55.4115
0
LINE
8
CUT
10
77.3038
20
56.2776
11
74.5
21
61.134
0
LINE
8
CUT
10
73.5
20
61.134
11
70.6962
21
56.2776
0
POLYLINE
8
CUT
66
1
70
0
0
VERTEX
8
CUT
10
72.4641
20
57.3397
0
VERTEX
8
CUT
10
71.9282
20
56.4115
0
VERTEX
8
CUT
10
73
20
56.4115
0
SEQEND
0
POLYLINE
8
CUT
66
1
70
0
0
VERTEX
8
CUT
10
75
20
56.4115
0
VERTEX
8
CUT
10
76.0718
20
56.4115
0
VERTEX
8
CUT
10
75.5359
20
57.3397
0
SEQEND
0
POLYLINE
8
CUT
66
1
70
0
0
VERTEX
8
CUT
10
74.5359
20
59.0718
0
VERTEX
8
CUT
10
74
20
60
0
VERTEX
8
CUT
10
73.4641
20
59.0718
0
SEQEND
0
LINE
8
CUT
10
76.7321
20
67
11
89.2679
21
67
0
LINE
8
CUT
10
89.7679
20
66.134
11
83.5
21
55.2776
0
LINE
8
CUT
10
82.5
20
55.2776
11
76.2321
21
66.134
0
POLYLINE
8
CUT
66
1
70
0
0
VERTEX
8
CUT
10
79.7321
20
62.0718
0
VERTEX
8
CUT
10
77.4641
20
66
0
VERTEX
8
CUT
10
82
20
66
0
SEQEND
0
POLYLINE
8
CUT
66
1
70
0
0
VERTEX
8
CUT
10
84
20
66
0
VERTEX
8
CUT
10
88.5359
20
66
0
VERTEX
8
CUT
10
86.2679
20
62.0718
0
SEQEND
0
POLYLINE
8
CUT
66
1
70
0
0
VERTEX
8
CUT
10
85.2679
20
60.3397
0
VERTEX
8
CUT
10
83
20
56.4115
0
VERTEX
8
CUT
10
80.7321
20
60.3397
0
SEQEND
0
LINE
8
CUT
10
80.1962
20
65
11
85.8038
21
65
0
LINE
8
CUT
10
86.3038
20
64.134
11
83.5
21
59.2776
0
LINE
8
CUT
10
82.5
20
59.2776
11
79.6962
21
64.134
0
POLYLINE
8
CUT
66
1
70
0
0
VERTEX
8
CUT
10
81.4641
20
63.0718
0
VERTEX
8
CUT
10
80.9282
20
64
0
VERTEX
8
CUT
10
82
20
64
0
SEQEND
0
POLYLINE
8
CUT
66
1
70
0
0
VERTEX
8
CUT
10
84
20
64
0
VERTEX
8
CUT
10
85.0718
20
64
0
VERTEX
8
CUT
10
84.5359
20
63.0718
0
SEQEND
0
POLYLINE
8
CUT
66
1
70
0
0
VERTEX
8
CUT
10
83.5359
20
61.3397
0
VERTEX
8
CUT
10
83
20
60.4115
0
VERTEX
8
CUT
10
82.4641
20
61.3397
0
SEQEND
0
LINE
8
CUT
10
85.7321
20
53.4115
11
98.2679
21
53.4115
0
LINE
8
CUT
10
98.7679
20
54.2776
11
92.5
21
65.134
0
LINE
8
CUT
10
91.5
20
65.134
11
85.2321
21
54.2776
0
POLYLINE
8
CUT
66
1
70
0
0
VERTEX
8
CUT
10
88.7321
20
58.3397
0
VERTEX
8
CUT
10
86.4641
20
54.4115
0
VERTEX
8
CUT
10
91
20
54.4115
0
SEQEND
0
POLYLINE
8
CUT
66
1
70
0
0
VERTEX
8
CUT
10
93
20
54.4115
0
VERTEX
8
CUT
10
97.5359
20
54.4115
0
VERTEX
8
CUT
10
95.2679
20
58.3397
0
SEQEND
0
POLYLINE
8
CUT
66
1
70
0
0
VERTEX
8
CUT
10
94.2679
20
60.0718
0
VERTEX
8
CUT
10
92
20
64
0
VERTEX
8
CUT
10
89.7321
20
60.0718
0
SEQEND
0
LINE
8
CUT
10
89.1962
20
55.4115
11
94.8038
21
55.4115
0
LINE
8
CUT
10
95.3038
20
56.2776
11
92.5
21
61.134
0
LINE
8
CUT
10
91.5
20
61.134
11
88.6962
21
56.2776
0
POLYLINE
8
CUT
66
1
70
0
0
VERTEX
8
CUT
10
90.4641
20
57.3397
0
VERTEX
8
CUT
10
89.9282
20
56.4115
0
VERTEX
8
CUT
10
91
20
56.4115
0
SEQEND
0
POLYLINE
8
CUT
66
1
70
0
0
VERTEX
8
CUT
10
93
20
56.4115
0
VERTEX
8
CUT
10
94.0718
20
56.4115
0
VERTEX
8
CUT
10
93.5359
20
57.3397
0
SEQEND
0
POLYLINE
8
CUT
66
1
70
0
0
VERTEX
8
CUT
10
92.5359
20
59.0718
0
VERTEX
8
CUT
10
92
20
60
0
VERTEX
8
CUT
10
91.4641
20
59.0718
0
SEQEND
0
LINE
8
CUT
10
94.7321
20
67
11
107.2679
21
67
0
LINE
8
CUT
10
107.7679
20
66.134
11
101.5
21
55.2776
0
LINE
8
CUT
10
100.5
20
55.2776
11
94.2321
21
66.134
0
POLYLINE
8
CUT
66
1
70
0
0
VERTEX
8
CUT
10
97.7321
20
62.0718
0
VERTEX
8
CUT
10
95.4641
20
66
0
VERTEX
8
CUT
10
100
20
66
0
SEQEND
0
POLYLINE
8
CUT
66
1
70
0
0
VERTEX
8
CUT
10
102
20
66
0
VERTEX
8
CUT
10
106.5359
20
66
0
VERTEX
8
CUT
10
104.2679
20
62.0718
0
SEQEND
0
POLYLINE
8
CUT
66
1
70
0
0
VERTEX
8
CUT
10
103.2679
20
60.3397
0
VERTEX
8
CUT
10
101
20
56.4115
0
VERTEX
8
CUT
10
98.7321
20
60.3397
0
SEQEND
0
LINE
8
CUT
10
98.1962
20
65
11
103.8038
21
65
0
LINE
8
CUT
10
104.3038
20
64.134
11
101.5
21
59.2776
0
LINE
8
CUT
10
100.5
20
59.2776
11
97.6962
21
64.134
0
POLYLINE
8
CUT
66
1
70
0
0
VERTEX
8
CUT
10
99.4641
20
63.0718
0
VERTEX
8
CUT
10
98.9282
20
64
0
VERTEX
8
CUT
10
100
20
64
0
SEQEND
0
POLYLINE
8
CUT
66
1
70
0
0
VERTEX
8
CUT
10
102
20
64
0
VERTEX
8
CUT
10
103.0718
20
64
0
VERTEX
8
CUT
10
102.5359
20
63.0718
0
SEQEND
0
POLYLINE
8
CUT
66
1
70
0
0
VERTEX
8
CUT
10
101.5359
20
61.3397
0
VERTEX
8
CUT
10
101
20
60.4115
0
VERTEX
8
CUT
10
100.4641
20
61.3397
0
SEQEND
0
LINE
8
CUT
10
103.7321
20
53.4115
11
116.2679
21
53.4115
0
LINE
8
CUT
10
116.7679
20
54.2776
11
110.5
21
65.134
0
LINE
8
CUT
10
109.5
20
65.134
11
103.2321
21
54.2776
0
POLYLINE
8
CUT
66
1
70
0
0
VERTEX
8
CUT
10
106.7321
20
58.3397
0
VERTEX
8
CUT
10
104.4641
20
54.4115
0
VERTEX
8
CUT
10
109
20
54.4115
0
SEQEND
0
POLYLINE
8
CUT
66
1
70
0
0
VERTEX
8
CUT
10
111
20
54.4115
0
VERTEX
8
CUT
10
115.5359
20
54.4115
0
VERTEX
8
CUT
10
113.2679
20
58.3397
0
SEQEND
0
POLYLINE
8
CUT
66
1
70
0
0
VERTEX
8
CUT
10
112.2679
20
60.0718
0
VERTEX
8
CUT
10
110
20
64
0
VERTEX
8
CUT
10
107.7321
20
60.0718
0
SEQEND
0
LINE
8
CUT
10
107.1962
20
55.4115
11
112.8038
21
55.4115
0
LINE
8
CUT
10
113.3038
20
56.2776
11
110.5
21
61.134
0
LINE
8
CUT
10
109.5
20
61.134
11
106.6962
21
56.2776
0
POLYLINE
8
CUT
66
1
70
0
0
VERTEX
8
CUT
10
108.4641
20
57.3397
0
VERTEX
8
CUT
10
107.9282
20
56.4115
0
VERTEX
8
CUT
10
109
20
56.4115
0
SEQEND
0
POLYLINE
8
CUT
66
1
70
0
0
VERTEX
8
CUT
10
111
20
56.4115
0
VERTEX
8
CUT
10
112.0718
20
56.4115
0
VERTEX
8
CUT
10
111.5359
20
57.3397
0
SEQEND
0
POLYLINE
8
CUT
66
1
70
0
0
VERTEX
8
CUT
10
110.5359
20
59.0718
0
VERTEX
8
CUT
10
110
20
60
0
VERTEX
8
CUT
10
109.4641
20
59.0718
0
SEQEND
0
LINE
8
CUT
10
112.7321
20
67
11
118
21
67
0
LINE
8
CUT
10
118
20
56.1436
11
112.2321
21
66.134
0
POLYLINE
8
CUT
66
1
70
0
0
VERTEX
8
CUT
10
115.7321
20
62.0718
0
VERTEX
8
CUT
10
113.4641
20
66
0
VERTEX
8
CUT
10
118
20
66
0
SEQEND
0
LINE
8
CUT
10
118
20
58.1436
11
116.7321
21
60.3397
0
LINE
8
CUT
10
116.1962
20
65
11
118
21
65
0
LINE
8
CUT
10
118
20
60.1436
11
115.6962
21
64.134
0
POLYLINE
8
CUT
66
1
70
0
0
VERTEX
8
CUT
10
117.4641
20
63.0718
0
VERTEX
8
CUT
10
116.9282
20
64
0
VERTEX
8
CUT
10
118
20
64
0
SEQEND
0
LINE
8
CUT
10
2
20
51.4115
11
8.2679
21
51.4115
0
LINE
8
CUT
10
8.7679
20
50.5455
11
2.5
21
39.6891
0
POLYLINE
8
CUT
66
1
70
0
0
VERTEX
8
CUT
10
3
20
50.4115
0
VERTEX
8
CUT
10
7.5359
20
50.4115
0
VERTEX
8
CUT
10
5.2679
20
46.4833
0
SEQEND
0
POLYLINE
8
CUT
66
1
70
0
0
VERTEX
8
CUT
10
4.2679
20
44.7513
0
VERTEX
8
CUT
10
2
20
40.8231
0
VERTEX
8
CUT
10
2
20
40.8231
0
SEQEND
0
LINE
8
CUT
10
2
20
49.4115
11
4.8038
21
49.4115
0
LINE
8
CUT
10
5.3038
20
48.5455
11
2.5
21
43.6891
0
POLYLINE
8
CUT
66
1
70
0
0
VERTEX
8
CUT
10
3
20
48.4115
0
VERTEX
8
CUT
10
4.0718
20
48.4115
0
VERTEX
8
CUT
10
3.5359
20
47.4833
0
SEQEND
0
POLYLINE
8
CUT
66
1
70
0
0
VERTEX
8
CUT
10
2.5359
20
45.7513
0
VERTEX
8
CUT
10
2
20
44.8231
0
VERTEX
8
CUT
10
2
20
44.8231
0
SEQEND
0
LINE
8
CUT
10
4.7321
20
37.8231
11
17.2679
21
37.8231
0
LINE
8
CUT
10
17.7679
20
38.6891
11
11.5
21
49.5455
0
LINE
8
CUT
10
10.5
20
49.5455
11
4.2321
21
38.6891
0
POLYLINE
8
CUT
66
1
70
0
0
VERTEX
8
CUT
10
7.7321
20
42.7513
0
VERTEX
8
CUT
10
5.4641
20
38.8231
0
VERTEX
8
CUT
10
10
20
38.8231
0
SEQEND
0
POLYLINE
8
CUT
66
1
70
0
0
VERTEX
8
CUT
10
12
20
38.8231
0
VERTEX
8
CUT
10
16.5359
20
38.8231
0
VERTEX
8
CUT
10
14.2679
20
42.7513
0
SEQEND
0
POLYLINE
8
CUT
66
1
70
0
0
VERTEX
8
CUT
10
13.2679
20
44.4833
0
VERTEX
8
CUT
10
11
20
48.4115
0
VERTEX
8
CUT
10
8.7321
20
44.4833
0
SEQEND
0
LINE
8
CUT
10
8.1962
20
39.8231
11
13.8038
21
39.8231
0
LINE
8
CUT
10
14.3038
20
40.6891
11
11.5
21
45.5455
0
LINE
8
CUT
10
10.5
20
45.5455
11
7.6962
21
40.6891
0
POLYLINE
8
CUT
66
1
70
0
0
VERTEX
8
CUT
10
9.4641
20
41.7513
0
VERTEX
8
CUT
10
8.9282
20
40.8231
0
VERTEX
8
CUT
10
10
20
40.8231
0
SEQEND
0
POLYLINE
8
CUT
66
1
70
0
0
VERTEX
8
CUT
10
12
20
40.8231
0
VERTEX
8
CUT
10
13.0718
20
40.8231
0
VERTEX
8
CUT
10
12.5359
20
41.7513
0
SEQEND
0
POLYLINE
8
CUT
66
1
70
0
0
VERTEX
8
CUT
10
11.5359
20
43.4833
0
VERTEX
8
CUT
10
11
20
44.4115
0
VERTEX
8
CUT
10
10.4641
20
43.4833
0
SEQEND
0
LINE
8
CUT
10
13.7321
20
51.4115
11
26.2679
21
51.4115
0
LINE
8
CUT
10
26.7679
20
50.5455
11
20.5
21
39.6891
0
LINE
8
CUT
10
19.5
20
39.6891
11
13.2321
21
50.5455
0
POLYLINE
8
CUT
66
1
70
0
0
VERTEX
8
CUT
10
16.7321
20
46.4833
0
VERTEX
8
CUT
10
14.4641
20
50.4115
0
VERTEX
8
CUT
10
19
20
50.4115
0
SEQEND
0
POLYLINE
8
CUT
66
1
70
0
0
VERTEX
8
CUT
10
21
20
50.4115
0
VERTEX
8
CUT
10
25.5359
20
50.4115
0
VERTEX
8
CUT
10
23.2679
20
46.4833
0
SEQEND
0
POLYLINE
8
CUT
66
1
70
0
0
VERTEX
8
CUT
10
22.2679
20
44.7513
0
VERTEX
8
CUT
10
20
20
40.8231
0
VERTEX
8
CUT
10
17.7321
20
44.7513
0
SEQEND
0
LINE
8
CUT
10
17.1962
20
49.4115
11
22.8038
21
49.4115
0
LINE
8
CUT
10
23.3038
20
48.5455
11
20.5
21
43.6891
0
LINE
8
CUT
10
19.5
20
43.6891
11
16.6962
21
48.5455
0
POLYLINE
8
CUT
66
1
70
0
0
VERTEX
8
CUT
10
18.4641
20
47.4833
0
VERTEX
8
CUT
10
17.9282
20
48.4115
0
VERTEX
8
CUT
10
19
20
48.4115
0
SEQEND
0
POLYLINE
8
CUT
66
1
70
0
0
VERTEX
8
CUT
10
21
20
48.4115
0
VERTEX
8
CUT
10
22.0718
20
48.4115
0
VERTEX
8
CUT
10
21.5359
20
47.4833
0
SEQEND
0
POLYLINE
8
CUT
66
1
70
0
0
VERTEX
8
CUT
10
20.5359
20
45.7513
0
VERTEX
8
CUT
10
20
20
44.8231
0
VERTEX
8
CUT
10
19.4641
20
45.7513
0
SEQEND
0
LINE
8
CUT
10
22.7321
20
37.8231
11
35.2679
21
37.8231
0
LINE
8
CUT
10
35.7679
20
38.6891
11
29.5
21
49.5455
0
LINE
8
CUT
10
28.5
20
49.5455
11
22.2321
21
38.6891
0
POLYLINE
8
CUT
66
1
70
0
0
VERTEX
8
CUT
10
25.7321
20
42.7513
0
VERTEX
8
CUT
10
23.4641
20
38.8231
0
VERTEX
8
CUT
10
28
20
38.8231
0
SEQEND
0
POLYLINE
8
CUT
66
1
70
0
0
VERTEX
8
CUT
10
30
20
38.8231
0
VERTEX
8
CUT
10
34.5359
20
38.8231
0
VERTEX
8
CUT
10
32.2679
20
42.7513
0
SEQEND
0
POLYLINE
8
CUT
66
1
70
0
0
VERTEX
8
CUT
10
31.2679
20
44.4833
0
VERTEX
8
CUT
10
29
20
48.4115
0
VERTEX
8
CUT
10
26.7321
20
44.4833
0
SEQEND
0
LINE
8
CUT
10
26.1962
20
39.8231
11
31.8038
21
39.8231
0
LINE
8
CUT
10
32.3038
20
40.6891
11
29.5
21
45.5455
0
LINE
8
CUT
10
28.5
20
45.5455
11
25.6962
21
40.6891
0
POLYLINE
8
CUT
66
1
70
0
0
VERTEX
8
CUT
10
27.4641
20
41.7513
0
VERTEX
8
CUT
10
26.9282
20
40.8231
0
VERTEX
8
CUT
10
28
20
40.8231
0
SEQEND
0
POLYLINE
8
CUT
66
1
70
0
0
VERTEX
8
CUT
10
30
20
40.8231
0
VERTEX
8
CUT
10
31.0718
20
40.8231
0
VERTEX
8
CUT
10
30.5359
20
41.7513
0
SEQEND
0
POLYLINE
8
CUT
66
1
70
0
0
VERTEX
8
CUT
10
29.5359
20
43.4833
0
VERTEX
8
CUT
10
29
20
44.4115
0
VERTEX
8
CUT
10
28.4641
20
43.4833
0
SEQEND
0
LINE
8
CUT
10
31.7321
20
51.4115
11
44.2679
21
51.4115
0
LINE
8
CUT
10
44.7679
20
50.5455
11
38.5
21
39.6891
0
LINE
8
CUT
10
37.5
20
39.6891
11
31.2321
21
50.5455
0
POLYLINE
8
CUT
66
1
70
0
0
VERTEX
8
CUT
10
34.7321
20
46.4833
0
VERTEX
8
CUT
10
32.4641
20
50.4115
0
VERTEX
8
CUT
10
37
20
50.4115
0
SEQEND
0
POLYLINE
8
CUT
66
1
70
0
0
VERTEX
8
CUT
10
39
20
50.4115
0
VERTEX
8
CUT
10
43.5359
20
50.4115
0
VERTEX
8
CUT
10
41.2679
20
46.4833
0
SEQEND
0
POLYLINE
8
CUT
66
1
70
0
0
VERTEX
8
CUT
10
40.2679
20
44.7513
0
VERTEX
8
CUT
10
38
20
40.8231
0
VERTEX
8
CUT
10
35.7321
20
44.7513
0
SEQEND
0
LINE
8
CUT
10
35.1962
20
49.4115
11
40.8038
21
49.4115
0
LINE
8
CUT
10
41.3038
20
48.5455
11
38.5
21
43.6891
0
LINE
8
CUT
10
37.5
20
43.6891
11
34.6962
21
48.5455
0
POLYLINE
8
CUT
66
1
70
0
0
VERTEX
8
CUT
10
36.4641
20
47.4833
0
VERTEX
8
CUT
10
35.9282
20
48.4115
0
VERTEX
8
CUT
10
37
20
48.4115
0
SEQEND
0
POLYLINE
8
CUT
66
1
70
0
0
VERTEX
8
CUT
10
39
20
48.4115
0
VERTEX
8
CUT
10
40.0718
20
48.4115
0
VERTEX
8
CUT
10
39.5359
20
47.4833
0
SEQEND
0
POLYLINE
8
CUT
66
1
70
0
0
VERTEX
8
CUT
10
38.5359
20
45.7513
0
VERTEX
8
CUT
10
38
20
44.8231
0
VERTEX
8
CUT
10
37.4641
20
45.7513
0
SEQEND
0
LINE
8
CUT
10
40.7321
20
37.8231
11
53.2679
21
37.8231
0
LINE
8
CUT
10
53.7679
20
38.6891
11
47.5
21
49.5455
0
LINE
8
CUT
10
46.5
20
49.5455
11
40.2321
21
38.6891
0
POLYLINE
8
CUT
66
1
70
0
0
VERTEX
8
CUT
10
43.7321
20
42.7513
0
VERTEX
8
CUT
10
41.4641
20
38.8231
0
VERTEX
8
CUT
10
46
20
38.8231
0
SEQEND
0
POLYLINE
8
CUT
66
1
70
0
0
VERTEX
8
CUT
10
48
20
38.8231
0
VERTEX
8
CUT
10
52.5359
20
38.8231
0
VERTEX
8
CUT
10
50.2679
20
42.7513
0
SEQEND
0
POLYLINE
8
CUT
66
1
70
0
0
VERTEX
8
CUT
10
49.2679
20
44.4833
0
VERTEX
8
CUT
10
47
20
48.4115
0
VERTEX
8
CUT
10
44.7321
20
44.4833
0
SEQEND
0
LINE
8
CUT
10
44.1962
20
39.8231
11
49.8038
21
39.8231
0
LINE
8
CUT
10
50.3038
20
40.6891
11
47.5
21
45.5455
0
LINE
8
CUT
10
46.5
20
45.5455
11
43.6962
21
40.6891
0
POLYLINE
8
CUT
66
1
70
0
0
VERTEX
8
CUT
10
45.4641
20
41.7513
0
VERTEX
8
CUT
10
44.9282
20
40.8231
0
VERTEX
8
CUT
10
46
20
40.8231
0
SEQEND
0
POLYLINE
8
CUT
66
1
70
0
0
VERTEX
8
CUT
10
48
20
40.8231
0
VERTEX
8
CUT
10
49.0718
20
40.8231
0
VERTEX
8
CUT
10
48.5359
20
41.7513
0
SEQEND
0
POLYLINE
8
CUT
66
1
70
0
0
VERTEX
8
CUT
10
47.5359
20
43.4833
0
VERTEX
8
CUT
10
47
20
44.4115
0
VERTEX
8
CUT
10
46.4641
20
43.4833
0
SEQEND
0
LINE
8
CUT
10
49.7321
20
51.4115
11
62.2679
21
51.4115
0
LINE
8
CUT
10
62.7679
20
50.5455
11
56.5
21
39.6891
0
LINE
8
CUT
10
55.5
20
39.6891
11
49.2321
21
50.5455
0
POLYLINE
8
CUT
66
1
70
0
0
VERTEX
8
CUT
10
52.7321
20
46.4833
0
VERTEX
8
CUT
10
50.4641
20
50.4115
0
VERTEX
8
CUT
10
55
20
50.4115
0
SEQEND
0
POLYLINE
8
CUT
66
1
70
0
0
VERTEX
8
CUT
10
57
20
50.4115
0
VERTEX
8
CUT
10
61.5359
20
50.4115
0
VERTEX
8
CUT
10
59.2679
20
46.4833
0
SEQEND
0
POLYLINE
8
CUT
66
1
70
0
0
VERTEX
8
CUT
10
58.2679
20
44.7513
0
VERTEX
8
CUT
10
56
20
40.8231
0
VERTEX
8
CUT
10
53.7321
20
44.7513
0
SEQEND
0
LINE
8
CUT
10
53.1962
20
49.4115
11
58.8038
21
49.4115
0
LINE
8
CUT
10
59.3038
20
48.5455
11
56.5
21
43.6891
0
LINE
8
CUT
10
55.5
20
43.6891
11
52.6962
21
48.5455
0
POLYLINE
8
CUT
66
1
70
0
0
VERTEX
8
CUT
10
54.4641
20
47.4833
0
VERTEX
8
CUT
10
53.9282
20
48.4115
0
VERTEX
8
CUT
10
55
20
48.4115
0
SEQEND
0
POLYLINE
8
CUT
66
1
70
0
0
VERTEX
8
CUT
10
57
20
48.4115
0
VERTEX
8
CUT
10
58.0718
20
48.4115
0
VERTEX
8
CUT
10
57.5359
20
47.4833
0
SEQEND
0
POLYLINE
8
CUT
66
1
70
0
0
VERTEX
8
CUT
10
56.5359
20
45.7513
0
VERTEX
8
CUT
10
56
20
44.8231
0
VERTEX
8
CUT
10
55.4641
20
45.7513
0
SEQEND
0
LINE
8
CUT
10
58.7321
20
37.8231
11
71.2679
21
37.8231
0
LINE
8
CUT
10
71.7679
20
38.6891
11
65.5
21
49.5455
0
LINE
8
CUT
10
64.5
20
49.5455
11
58.2321
21
38.6891
0
POLYLINE
8
CUT
66
1
70
0
0
VERTEX
8
CUT
10
61.7321
20
42.7513
0
VERTEX
8
CUT
10
59.4641
20
38.8231
0
VERTEX
8
CUT
10
64
20
38.8231
0
SEQEND
0
POLYLINE
8
CUT
66
1
70
0
0
VERTEX
8
CUT
10
66
20
38.8231
0
VERTEX
8
CUT
10
70.5359
20
38.8231
0
VERTEX
8
CUT
10
68.2679
20
42.7513
0
SEQEND
0
POLYLINE
8
CUT
66
1
70
0
0
VERTEX
8
CUT
10
67.2679
20
44.4833
0
VERTEX
8
CUT
10
65
20
48.4115
0
VERTEX
8
CUT
10
62.7321
20
44.4833
0
SEQEND
0
LINE
8
CUT
10
62.1962
20
39.8231
11
67.8038
21
39.8231
0
LINE
8
CUT
10
68.3038
20
40.6891
11
65.5
21
45.5455
0
LINE
8
CUT
10
64.5
20
45.5455
11
61.6962
21
40.6891
0
POLYLINE
8
CUT
66
1
70
0
0
VERTEX
8
CUT
10
63.4641
20
41.7513
0
VERTEX
8
CUT
10
62.9282
20
40.8231
0
VERTEX
8
CUT
10
64
20
40.8231
0
SEQEND
0
POLYLINE
8
CUT
66
1
70
0
0
VERTEX
8
CUT
10
66
20
40.8231
0
VERTEX
8
CUT
10
67.0718
20
40.8231
0
VERTEX
8
CUT
10
66.5359
20
41.7513
0
SEQEND
0
POLYLINE
8
CUT
66
1
70
0
0
VERTEX
8
CUT
10
65.5359
20
43.4833
0
VERTEX
8
CUT
10
65
20
44.4115
0
VERTEX
8
CUT
10
64.4641
20
43.4833
0
SEQEND
0
LINE
8
CUT
10
67.7321
20
51.4115
11
80.2679
21
51.4115
0
LINE
8
CUT
10
80.7679
20
50.5455
11
74.5
21
39.6891
0
LINE
8
CUT
10
73.5
20
39.6891
11
67.2321
21
50.5455
0
POLYLINE
8
CUT
66
1
70
0
0
VERTEX
8
CUT
10
70.7321
20
46.4833
0
VERTEX
8
CUT
10
68.4641
20
50.4115
0
VERTEX
8
CUT
10
73
20
50.4115
0
SEQEND
0
POLYLINE
8
CUT
66
1
70
0
0
VERTEX
8
CUT
10
75
20
50.4115
0
VERTEX
8
CUT
10
79.5359
20
50.4115
0
VERTEX
8
CUT
10
77.2679
20
46.4833
0
SEQEND
0
POLYLINE
8
CUT
66
1
70
0
0
VERTEX
8
CUT
10
76.2679
20
44.7513
0
VERTEX
8
CUT
10
74
20
40.8231
0
VERTEX
8
CUT
10
71.7321
20
44.7513
0
SEQEND
0
LINE
8
CUT
10
71.1962
20
49.4115
11
76.8038
21
49.4115
0
LINE
8
CUT
10
77.3038
20
48.5455
11
74.5
21
43.6891
0
LINE
8
CUT
10
73.5
20
43.6891
11
70.6962
21
48.5455
0
POLYLINE
8
CUT
66
1
70
0
0
VERTEX
8
CUT
10
72.4641
20
47.4833
0
VERTEX
8
CUT
10
71.9282
20
48.4115
0
VERTEX
8
CUT
10
73
20
48.4115
0
SEQEND
0
POLYLINE
8
CUT
66
1
70
0
0
VERTEX
8
CUT
10
75
20
48.4115
0
VERTEX
8
CUT
10
76.0718
20
48.4115
0
VERTEX
8
CUT
10
75.5359
20
47.4833
0
SEQEND
0
POLYLINE
8
CUT
66
1
70
0
0
VERTEX
8
CUT
10
74.5359
20
45.7513
0
VERTEX
8
CUT
10
74
20
44.8231
0
VERTEX
8
CUT
10
73.4641
20
45.7513
0
SEQEND
0
LINE
8
CUT
10
76.7321
20
37.8231
11
89.2679
21
37.8231
0
LINE
8
CUT
10
89.7679
20
38.6891
11
83.5
21
49.5455
0
LINE
8
CUT
10
82.5
20
49.5455
11
76.2321
21
38.6891
0
POLYLINE
8
CUT
66
1
70
0
0
VERTEX
8
CUT
10
79.7321
20
42.7513
0
VERTEX
8
CUT
10
77.4641
20
38.8231
0
VERTEX
8
CUT
10
82
20
38.8231
0
SEQEND
0
POLYLINE
8
CUT
66
1
70
0
0
VERTEX
8
CUT
10
84
20
38.8231
0
VERTEX
8
CUT
10
88.5359
20
38.8231
0
VERTEX
8
CUT
10
86.2679
20
42.7513
0
SEQEND
0
POLYLINE
8
CUT
66
1
70
0
0
VERTEX
8
CUT
10
85.2679
20
44.4833
0
VERTEX
8
CUT
10
83
20
48.4115
0
VERTEX
8
CUT
10
80.7321
20
44.4833
0
SEQEND
0
LINE
8
CUT
10
80.1962
20
39.8231
11
85.8038
21
39.8231
0
LINE
8
CUT
10
86.3038
20
40.6891
11
83.5
21
45.5455
0
LINE
8
CUT
10
82.5
20
45.5455
11
79.6962
21
40.6891
0
POLYLINE
8
CUT
66
1
70
0
0
VERTEX
8
CUT
10
81.4641
20
41.7513
0
VERTEX
8
CUT
10
80.9282
20
40.8231
0
VERTEX
8
CUT
10
82
20
40.8231
0
SEQEND
0
POLYLINE
8
CUT
66
1
70
0
0
VERTEX
8
CUT
10
84
20
40.8231
0
VERTEX
8
CUT
10
85.0718
20
40.8231
0
VERTEX
8
CUT
10
84.5359
20
41.7513
0
SEQEND
0
POLYLINE
8
CUT
66
1
70
0
0
VERTEX
8
CUT
10
83.5359
20
43.4833
0
VERTEX
8
CUT
10
83
20
44.4115
0
VERTEX
8
CUT
10
82.4641
20
43.4833
0
SEQEND
0
LINE
8
CUT
10
85.7321
20
51.4115
11
98.2679
21
51.4115
0
LINE
8
CUT
10
98.7679
20
50.5455
11
92.5
21
39.6891
0
LINE
8
CUT
10
91.5
20
39.6891
11
85.2321
21
50.5455
0
POLYLINE
8
CUT
66
1
70
0
0
VERTEX
8
CUT
10
88.7321
20
46.4833
0
VERTEX
8
CUT
10
86.4641
20
50.4115
0
VERTEX
8
CUT
10
91
20
50.4115
0
SEQEND
0
POLYLINE
8
CUT
66
1
70
0
0
VERTEX
8
CUT
10
93
20
50.4115
0
VERTEX
8
CUT
10
97.5359
20
50.4115
0
VERTEX
8
CUT
10
95.2679
20
46.4833
0
SEQEND
0
POLYLINE
8
CUT
66
1
70
0
0
VERTEX
8
CUT
10
94.2679
20
44.7513
0
VERTEX
8
CUT
10
92
20
40.8231
0
VERTEX
8
CUT
10
89.7321
20
44.7513
0
SEQEND
0
LINE
8
CUT
10
89.1962
20
49.4115
11
94.8038
21
49.4115
0
LINE
8
CUT
10
95.3038
20
48.5455
11
92.5
21
43.6891
0
LINE
8
CUT
10
91.5
20
43.6891
11
88.6962
21
48.5455
0
POLYLINE
8
CUT
66
1
70
0
0
VERTEX
8
CUT
10
90.4641
20
47.4833
0
VERTEX
8
CUT
10
89.9282
20
48.4115
0
VERTEX
8
CUT
10
91
20
48.4115
0
SEQEND
0
POLYLINE
8
CUT
66
1
70
0
0
VERTEX
8
CUT
10
93
20
48.4115
0
VERTEX
8
CUT
10
94.0718
20
48.4115
0
VERTEX
8
CUT
10
93.5359
20
47.4833
0
SEQEND
0
POLYLINE
8
CUT
66
1
70
0
0
VERTEX
8
CUT
10
92.5359
20
45.7513
0
VERTEX
8
CUT
10
92
20
44.8231
0
VERTEX
8
CUT
10
91.4641
20
45.7513
0
SEQEND
0
LINE
8
CUT
10
94.7321
20
37.8231
11
107.2679
21
37.8231
0
LINE
8
CUT
10
107.7679
20
38.6891
11
101.5
21
49.5455
0
LINE
8
CUT
10
100.5
20
49.5455
11
94.2321
21
38.6891
0
POLYLINE
8
CUT
66
1
70
0
0
VERTEX
8
CUT
10
97.7321
20
42.7513
0
VERTEX
8
CUT
10
95.4641
20
38.8231
0
VERTEX
8
CUT
10
100
20
38.8231
0
SEQEND
0
POLYLINE
8
CUT
66
1
70
0
0
VERTEX
8
CUT
10
102
20
38.8231
0
VERTEX
8
CUT
10
106.5359
20
38.8231
0
VERTEX
8
CUT
10
104.2679
20
42.7513
0
SEQEND
0
POLYLINE
8
CUT
66
1
70
0
0
VERTEX
8
CUT
10
103.2679
20
44.4833
0
VERTEX
8
CUT
10
101
20
48.4115
0
VERTEX
8
CUT
10
98.7321
20
44.4833
0
SEQEND
0
LINE
8
CUT
10
98.1962
20
39.8231
11
103.8038
21
39.8231
0
LINE
8
CUT
10
104.3038
20
40.6891
11
101.5
21
45.5455
0
LINE
8
CUT
10
100.5
20
45.5455
11
97.6962
21
40.6891
0
POLYLINE
8
CUT
66
1
70
0
0
VERTEX
8
CUT
10
99.4641
20
41.7513
0
VERTEX
8
CUT
10
98.9282
20
40.8231
0
VERTEX
8
CUT
10
100
20
40.8231
0
SEQEND
0
POLYLINE
8
CUT
66
1
70
0
0
VERTEX
8
CUT
10
102
20
40.8231
0
VERTEX
8
CUT
10
103.0718
20
40.8231
0
VERTEX
8
CUT
10
102.5359
20
41.7513
0
SEQEND
0
POLYLINE
8
CUT
66
1
70
0
0
VERTEX
8
CUT
10
101.5359
20
43.4833
0
VERTEX
8
CUT
10
101
20
44.4115
0
VERTEX
8
CUT
10
100.4641
20
43.4833
0
SEQEND
0
LINE
8
CUT
10
103.7321
20
51.4115
11
116.2679
21
51.4115
0
LINE
8
CUT
10
116.7679
20
50.5455
11
110.5
21
39.6891
0
LINE
8
CUT
10
109.5
20
39.6891
11
103.2321
21
50.5455
0
POLYLINE
8
CUT
66
1
70
0
0
VERTEX
8
CUT
10
106.7321
20
46.4833
0
VERTEX
8
CUT
10
104.4641
20
50.4115
0
VERTEX
8
CUT
10
109
20
50.4115
0
SEQEND
0
POLYLINE
8
CUT
66
1
70
0
0
VERTEX
8
CUT
10
111
20
50.4115
0
VERTEX
8
CUT
10
115.5359
20
50.4115
0
VERTEX
8
CUT
10
113.2679
20
46.4833
0
SEQEND
0
POLYLINE
8
CUT
66
1
70
0
0
VERTEX
8
CUT
10
112.2679
20
44.7513
0
VERTEX
8
CUT
10
110
20
40.8231
0
VERTEX
8
CUT
10
107.7321
20
44.7513
0
SEQEND
0
LINE
8
CUT
10
107.1962
20
49.4115
11
112.8038
21
49.4115
0
LINE
8
CUT
10
113.3038
20
48.5455
11
110.5
21
43.6891
0
LINE
8
CUT
10
109.5
20
43.6891
11
106.6962
21
48.5455
0
POLYLINE
8
CUT
66
1
70
0
0
VERTEX
8
CUT
10
108.4641
20
47.4833
0
VERTEX
8
CUT
10
107.9282
20
48.4115
0
VERTEX
8
CUT
10
109
20
48.4115
0
SEQEND
0
POLYLINE
8
CUT
66
1
70
0
0
VERTEX
8
CUT
10
111
20
48.4115
0
VERTEX
8
CUT
10
112.0718
20
48.4115
0
VERTEX
8
CUT
10
111.5359
20
47.4833
0
SEQEND
0
POLYLINE
8
CUT
66
1
70
0
0
VERTEX
8
CUT
10
110.5359
20
45.7513
0
VERTEX
8
CUT
10
110
20
44.8231
0
VERTEX
8
CUT
10
109.4641
20
45.7513
0
SEQEND
0
LINE
8
CUT
10
112.7321
20
37.8231
11
118
21
37.8231
0
LINE
8
CUT
10
118
20
48.6795
11
112.2321
21
38.6891
0
POLYLINE
8
CUT
66
1
70
0
0
VERTEX
8
CUT
10
115.7321
20
42.7513
0
VERTEX
8
CUT
10
113.4641
20
38.8231
0
VERTEX
8
CUT
10
118
20
38.8231
0
SEQEND
0
LINE
8
CUT
10
118
20
46.6795
11
116.7321
21
44.4833
0
LINE
8
CUT
10
116.1962
20
39.8231
11
118
21
39.8231
0
LINE
8
CUT
10
118
20
44.6795
11
115.6962
21
40.6891
0
POLYLINE
8
CUT
66
1
70
0
0
VERTEX
8
CUT
10
117.4641
20
41.7513
0
VERTEX
8
CUT
10
116.9282
20
40.8231
0
VERTEX
8
CUT
10
118
20
40.8231
0
SEQEND
0
LINE
8
CUT
10
2
20
22.2346
11
8.2679
21
22.2346
0
LINE
8
CUT
10
8.7679
20
23.1007
11
2.5
21
33.9571
0
POLYLINE
8
CUT
66
1
70
0
0
VERTEX
8
CUT
10
3
20
23.2346
0
VERTEX
8
CUT
10
7.5359
20
23.2346
0
VERTEX
8
CUT
10
5.2679
20
27.1628
0
SEQEND
0
POLYLINE
8
CUT
66
1
70
0
0
VERTEX
8
CUT
10
4.2679
20
28.8949
0
VERTEX
8
CUT
10
2
20
32.8231
0
VERTEX
8
CUT
10
2
20
32.8231
0
SEQEND
0
LINE
8
CUT
10
2
20
24.2346
11
4.8038
21
24.2346
0
LINE
8
CUT
10
5.3038
20
25.1007
11
2.5
21
29.9571
0
POLYLINE
8
CUT
66
1
70
0
0
VERTEX
8
CUT
10
3
20
25.2346
0
VERTEX
8
CUT
10
4.0718
20
25.2346
0
VERTEX
8
CUT
10
3.5359
20
26.1628
0
SEQEND
0
POLYLINE
8
CUT
66
1
70
0
0
VERTEX
8
CUT
10
2.5359
20
27.8949
0
VERTEX
8
CUT
10
2
20
28.8231
0
VERTEX
8
CUT
10
2
20
28.8231
0
SEQEND
0
LINE
8
CUT
10
4.7321
20
35.8231
11
17.2679
21
35.8231
0
LINE
8
CUT
10
17.7679
20
34.9571
11
11.5
21
24.1007
0
LINE
8
CUT
10
10.5
20
24.1007
11
4.2321
21
34.9571
0
POLYLINE
8
CUT
66
1
70
0
0
VERTEX
8
CUT
10
7.7321
20
30.8949
0
VERTEX
8
CUT
10
5.4641
20
34.8231
0
VERTEX
8
CUT
10
10
20
34.8231
0
SEQEND
0
POLYLINE
8
CUT
66
1
70
0
0
VERTEX
8
CUT
10
12
20
34.8231
0
VERTEX
8
CUT
10
16.5359
20
34.8231
0
VERTEX
8
CUT
10
14.2679
20
30.8949
0
SEQEND
0
POLYLINE
8
CUT
66
1
70
0
0
VERTEX
8
CUT
10
13.2679
20
29.1628
0
VERTEX
8
CUT
10
11
20
25.2346
0
VERTEX
8
CUT
10
8.7321
20
29.1628
0
SEQEND
0
LINE
8
CUT
10
8.1962
20
33.8231
11
13.8038
21
33.8231
0
LINE
8
CUT
10
14.3038
20
32.9571
11
11.5
21
28.1007
0
LINE
8
CUT
10
10.5
20
28.1007
11
7.6962
21
32.9571
0
POLYLINE
8
CUT
66
1
70
0
0
VERTEX
8
CUT
10
9.4641
20
31.8949
0
VERTEX
8
CUT
10
8.9282
20
32.8231
0
VERTEX
8
CUT
10
10
20
32.8231
0
SEQEND
0
POLYLINE
8
CUT
66
1
70
0
0
VERTEX
8
CUT
10
12
20
32.8231
0
VERTEX
8
CUT
10
13.0718
20
32.8231
0
VERTEX
8
CUT
10
12.5359
20
31.8949
0
SEQEND
0
POLYLINE
8
CUT
66
1
70
0
0
VERTEX
8
CUT
10
11.5359
20
30.1628
0
VERTEX
8
CUT
10
11
20
29.2346
0
VERTEX
8
CUT
10
10.4641
20
30.1628
0
SEQEND
0
LINE
8
CUT
10
13.7321
20
22.2346
11
26.2679
21
22.2346
0
LINE
8
CUT
10
26.7679
20
23.1007
11
20.5
21
33.9571
0
LINE
8
CUT
10
19.5
20
33.9571
11
13.2321
21
23.1007
0
POLYLINE
8
CUT
66
1
70
0
0
VERTEX
8
CUT
10
16.7321
20
27.1628
0
VERTEX
8
CUT
10
14.4641
20
23.2346
0
VERTEX
8
CUT
10
19
20
23.2346
0
SEQEND
0
POLYLINE
8
CUT
66
1
70
0
0
VERTEX
8
CUT
10
21
20
23.2346
0
VERTEX
8
CUT
10
25.5359
20
23.2346
0
VERTEX
8
CUT
10
23.2679
20
27.1628
0
SEQEND
0
POLYLINE
8
CUT
66
1
70
0
0
VERTEX
8
CUT
10
22.2679
20
28.8949
0
VERTEX
8
CUT
10
20
20
32.8231
0
VERTEX
8
CUT
10
17.7321
20
28.8949
0
SEQEND
0
LINE
8
CUT
10
17.1962
20
24.2346
11
22.8038
21
24.2346
0
LINE
8
CUT
10
23.3038
20
25.1007
11
20.5
21
29.9571
0
LINE
8
CUT
10
19.5
20
29.9571
11
16.6962
21
25.1007
0
POLYLINE
8
CUT
66
1
70
0
0
VERTEX
8
CUT
10
18.4641
20
26.1628
0
VERTEX
8
CUT
10
17.9282
20
25.2346
0
VERTEX
8
CUT
10
19
20
25.2346
0
SEQEND
0
POLYLINE
8
CUT
66
1
70
0
0
VERTEX
8
CUT
10
21
20
25.2346
0
VERTEX
8
CUT
10
22.0718
20
25.2346
0
VERTEX
8
CUT
10
21.5359
20
26.1628
0
SEQEND
0
POLYLINE
8
CUT
66
1
70
0
0
VERTEX
8
CUT
10
20.5359
20
27.8949
0
VERTEX
8
CUT
10
20
20
28.8231
0
VERTEX
8
CUT
10
19.4641
20
27.8949
0
SEQEND
0
LINE
8
CUT
10
22.7321
20
35.8231
11
35.2679
21
35.8231
0
LINE
8
CUT
10
35.7679
20
34.9571
11
29.5
21
24.1007
0
LINE
8
CUT
10
28.5
20
24.1007
11
22.2321
21
34.9571
0
POLYLINE
8
CUT
66
1
70
0
0
VERTEX
8
CUT
10
25.7321
20
30.8949
0
VERTEX
8
CUT
10
23.4641
20
34.8231
0
VERTEX
8
CUT
10
28
20
34.8231
0
SEQEND
0
POLYLINE
8
CUT
66
1
70
0
0
VERTEX
8
CUT
10
30
20
34.8231
0
VERTEX
8
CUT
10
34.5359
20
34.8231
0
VERTEX
8
CUT
10
32.2679
20
30.8949
0
SEQEND
0
POLYLINE
8
CUT
66
1
70
0
0
VERTEX
8
CUT
10
31.2679
20
29.1628
0
VERTEX
8
CUT
10
29
20
25.2346
0
VERTEX
8
CUT
10
26.7321
20
29.1628
0
SEQEND
0
LINE
8
CUT
10
26.1962
20
33.8231
11
31.8038
21
33.8231
0
LINE
8
CUT
10
32.3038
20
32.9571
11
29.5
21
28.1007
0
LINE
8
CUT
10
28.5
20
28.1007
11
25.6962
21
32.9571
0
POLYLINE
8
CUT
66
1
70
0
0
VERTEX
8
CUT
10
27.4641
20
31.8949
0
VERTEX
8
CUT
10
26.9282
20
32.8231
0
VERTEX
8
CUT
10
28
20
32.8231
0
SEQEND
0
POLYLINE
8
CUT
66
1
70
0
0
VERTEX
8
CUT
10
30
20
32.8231
0
VERTEX
8
CUT
10
31.0718
20
32.8231
0
VERTEX
8
CUT
10
30.5359
20
31.8949
0
SEQEND
0
POLYLINE
8
CUT
66
1
70
0
0
VERTEX
8
CUT
10
29.5359
20
30.1628
0
VERTEX
8
CUT
10
29
20
29.2346
0
VERTEX
8
CUT
10
28.4641
20
30.1628
0
SEQEND
0
LINE
8
CUT
10
31.7321
20
22.2346
11
44.2679
21
22.2346
0
LINE
8
CUT
10
44.7679
20
23.1007
11
38.5
21
33.9571
0
LINE
8
CUT
10
37.5
20
33.9571
11
31.2321
21
23.1007
0
POLYLINE
8
CUT
66
1
70
0
0
VERTEX
8
CUT
10
34.7321
20
27.1628
0
VERTEX
8
CUT
10
32.4641
20
23.2346
0
VERTEX
8
CUT
10
37
20
23.2346
0
SEQEND
0
POLYLINE
8
CUT
66
1
70
0
0
VERTEX
8
CUT
10
39
20
23.2346
0
VERTEX
8
CUT
10
43.5359
20
23.2346
0
VERTEX
8
CUT
10
41.2679
20
27.1628
0
SEQEND
0
POLYLINE
8
CUT
66
1
70
0
0
VERTEX
8
CUT
10
40.2679
20
28.8949
0
VERTEX
8
CUT
10
38
20
32.8231
0
VERTEX
8
CUT
10
35.7321
20
28.8949
0
SEQEND
0
LINE
8
CUT
10
35.1962
20
24.2346
11
40.8038
21
24.2346
0
LINE
8
CUT
10
41.3038
20
25.1007
11
38.5
21
29.9571
0
LINE
8
CUT
10
37.5
20
29.9571
11
34.6962
21
25.1007
0
POLYLINE
8
CUT
66
1
70
0
0
VERTEX
8
CUT
10
36.4641
20
26.1628
0
VERTEX
8
CUT
10
35.9282
20
25.2346
0
VERTEX
8
CUT
10
37
20
25.2346
0
SEQEND
0
POLYLINE
8
CUT
66
1
70
0
0
VERTEX
8
CUT
10
39
20
25.2346
0
VERTEX
8
CUT
10
40.0718
20
25.2346
0
VERTEX
8
CUT
10
39.5359
20
26.1628
0
SEQEND
0
POLYLINE
8
CUT
66
1
70
0
0
VERTEX
8
CUT
10
38.5359
20
27.8949
0
VERTEX
8
CUT
10
38
20
28.8231
0
VERTEX
8
CUT
10
37.4641
20
27.8949
0
SEQEND
0
LINE
8
CUT
10
40.7321
20
35.8231
11
53.2679
21
35.8231
0
LINE
8
CUT
10
53.7679
20
34.9571
11
47.5
21
24.1007
0
LINE
8
CUT
10
46.5
20
24.1007
11
40.2321
21
34.9571
0
POLYLINE
8
CUT
66
1
70
0
0
VERTEX
8
CUT
10
43.7321
20
30.8949
0
VERTEX
8
CUT
10
41.4641
20
34.8231
0
VERTEX
8
CUT
10
46
20
34.8231
0
SEQEND
0
POLYLINE
8
CUT
66
1
70
0
0
VERTEX
8
CUT
10
48
20
34.8231
0
VERTEX
8
CUT
10
52.5359
20
34.8231
0
VERTEX
8
CUT
10
50.2679
20
30.8949
0
SEQEND
0
POLYLINE
8
CUT
66
1
70
0
0
VERTEX
8
CUT
10
49.2679
20
29.1628
0
VERTEX
8
CUT
10
47
20
25.2346
0
VERTEX
8
CUT
10
44.7321
20
29.1628
0
SEQEND
0
LINE
8
CUT
10
44.1962
20
33.8231
11
49.8038
21
33.8231
0
LINE
8
CUT
10
50.3038
20
32.9571
11
47.5
21
28.1007
0
LINE
8
CUT
10
46.5
20
28.1007
11
43.6962
21
32.9571
0
POLYLINE
8
CUT
66
1
70
0
0
VERTEX
8
CUT
10
45.4641
20
31.8949
0
VERTEX
8
CUT
10
44.9282
20
32.8231
0
VERTEX
8
CUT
10
46
20
32.8231
0
SEQEND
0
POLYLINE
8
CUT
66
1
70
0
0
VERTEX
8
CUT
10
48
20
32.8231
0
VERTEX
8
CUT
10
49.0718
20
32.8231
0
VERTEX
8
CUT
10
48.5359
20
31.8949
0
SEQEND
0
POLYLINE
8
CUT
66
1
70
0
0
VERTEX
8
CUT
10
47.5359
20
30.1628
0
VERTEX
8
CUT
10
47
20
29.2346
0
VERTEX
8
CUT
10
46.4641
20
30.1628
0
SEQEND
0
LINE
8
CUT
10
49.7321
20
22.2346
11
62.2679
21
22.2346
0
LINE
8
CUT
10
62.7679
20
23.1007
11
56.5
21
33.9571
0
LINE
8
CUT
10
55.5
20
33.9571
11
49.2321
21
23.1007
0
POLYLINE
8
CUT
66
1
70
0
0
VERTEX
8
CUT
10
52.7321
20
27.1628
0
VERTEX
8
CUT
10
50.4641
20
23.2346
0
VERTEX
8
CUT
10
55
20
23.2346
0
SEQEND
0
POLYLINE
8
CUT
66
1
70
0
0
VERTEX
8
CUT
10
57
20
23.2346
0
VERTEX
8
CUT
10
61.5359
20
23.2346
0
VERTEX
8
CUT
10
59.2679
20
27.1628
0
SEQEND
0
POLYLINE
8
CUT
66
1
70
0
0
VERTEX
8
CUT
10
58.2679
20
28.8949
0
VERTEX
8
CUT
10
56
20
32.8231
0
VERTEX
8
CUT
10
53.7321
20
28.8949
0
SEQEND
0
LINE
8
CUT
10
53.1962
20
24.2346
11
58.8038
21
24.2346
0
LINE
8
CUT
10
59.3038
20
25.1007
11
56.5
21
29.9571
0
LINE
8
CUT
10
55.5
20
29.9571
11
52.6962
21
25.1007
0
POLYLINE
8
CUT
66
1
70
0
0
VERTEX
8
CUT
10
54.4641
20
26.1628
0
VERTEX
8
CUT
10
53.9282
20
25.2346
0
VERTEX
8
CUT
10
55
20
25.2346
0
SEQEND
0
POLYLINE
8
CUT
66
1
70
0
0
VERTEX
8
CUT
10
57
20
25.2346
0
VERTEX
8
CUT
10
58.0718
20
25.2346
0
VERTEX
8
CUT
10
57.5359
20
26.1628
0
SEQEND
0
POLYLINE
8
CUT
66
1
70
0
0
VERTEX
8
CUT
10
56.5359
20
27.8949
0
VERTEX
8
CUT
10
56
20
28.8231
0
VERTEX
8
CUT
10
55.4641
20
27.8949
0
SEQEND
0
LINE
8
CUT
10
58.7321
20
35.8231
11
71.2679
21
35.8231
0
LINE
8
CUT
10
71.7679
20
34.9571
11
65.5
21
24.1007
0
LINE
8
CUT
10
64.5
20
24.1007
11
58.2321
21
34.9571
0
POLYLINE
8
CUT
66
1
70
0
0
VERTEX
8
CUT
10
61.7321
20
30.8949
0
VERTEX
8
CUT
10
59.4641
20
34.8231
0
VERTEX
8
CUT
10
64
20
34.8231
0
SEQEND
0
POLYLINE
8
CUT
66
1
70
0
0
VERTEX
8
CUT
10
66
20
34.8231
0
VERTEX
8
CUT
10
70.5359
20
34.8231
0
VERTEX
8
CUT
10
68.2679
20
30.8949
0
SEQEND
0
POLYLINE
8
CUT
66
1
70
0
0
VERTEX
8
CUT
10
67.2679
20
29.1628
0
VERTEX
8
CUT
10
65
20
25.2346
0
VERTEX
8
CUT
10
62.7321
20
29.1628
0
SEQEND
0
LINE
8
CUT
10
62.1962
20
33.8231
11
67.8038
21
33.8231
0
LINE
8
CUT
10
68.3038
20
32.9571
11
65.5
21
28.1007
0
LINE
8
CUT
10
64.5
20
28.1007
11
61.6962
21
32.9571
0
POLYLINE
8
CUT
66
1
70
0
0
VERTEX
8
CUT
10
63.4641
20
31.8949
0
VERTEX
8
CUT
10
62.9282
20
32.8231
0
VERTEX
8
CUT
10
64
20
32.8231
0
SEQEND
0
POLYLINE
8
CUT
66
1
70
0
0
VERTEX
8
CUT
10
66
20
32.8231
0
VERTEX
8
CUT
10
67.0718
20
32.8231
0
VERTEX
8
CUT
10
66.5359
20
31.8949
0
SEQEND
0
POLYLINE
8
CUT
66
1
70
0
0
VERTEX
8
CUT
10
65.5359
20
30.1628
0
VERTEX
8
CUT
10
65
20
29.2346
0
VERTEX
8
CUT
10
64.4641
20
30.1628
0
SEQEND
0
LINE
8
CUT
10
67.7321
20
22.2346
11
80.2679
21
22.2346
0
LINE
8
CUT
10
80.7679
20
23.1007
11
74.5
21
33.9571
0
LINE
8
CUT
10
73.5
20
33.9571
11
67.2321
21
23.1007
0
POLYLINE
8
CUT
66
1
70
0
0
VERTEX
8
CUT
10
70.7321
20
27.1628
0
VERTEX
8
CUT
10
68.4641
20
23.2346
0
VERTEX
8
CUT
10
73
20
23.2346
0
SEQEND
0
POLYLINE
8
CUT
66
1
70
0
0
VERTEX
8
CUT
10
75
20
23.2346
0
VERTEX
8
CUT
10
79.5359
20
23.2346
0
VERTEX
8
CUT
10
77.2679
20
27.1628
0
SEQEND
0
POLYLINE
8
CUT
66
1
70
0
0
VERTEX
8
CUT
10
76.2679
20
28.8949
0
VERTEX
8
CUT
10
74
20
32.8231
0
VERTEX
8
CUT
10
71.7321
20
28.8949
0
SEQEND
0
LINE
8
CUT
10
71.1962
20
24.2346
11
76.8038
21
24.2346
0
LINE
8
CUT
10
77.3038
20
25.1007
11
74.5
21
29.9571
0
LINE
8
CUT
10
73.5
20
29.9571
11
70.6962
21
25.1007
0
POLYLINE
8
CUT
66
1
70
0
0
VERTEX
8
CUT
10
72.4641
20
26.1628
0
VERTEX
8
CUT
10
71.9282
20
25.2346
0
VERTEX
8
CUT
10
73
20
25.2346
0
SEQEND
0
POLYLINE
8
CUT
66
1
70
0
0
VERTEX
8
CUT
10
75
20
25.2346
0
VERTEX
8
CUT
10
76.0718
20
25.2346
0
VERTEX
8
CUT
10
75.5359
20
26.1628
0
SEQEND
0
POLYLINE
8
CUT
66
1
70
0
0
VERTEX
8
CUT
10
74.5359
20
27.8949
0
VERTEX
8
CUT
10
74
20
28.8231
0
VERTEX
8
CUT
10
73.4641
20
27.8949
0
SEQEND
0
LINE
8
CUT
10
76.7321
20
35.8231
11
89.2679
21
35.8231
0
LINE
8
CUT
10
89.7679
20
34.9571
11
83.5
21
24.1007
0
LINE
8
CUT
10
82.5
20
24.1007
11
76.2321
21
34.9571
0
POLYLINE
8
CUT
66
1
70
0
0
VERTEX
8
CUT
10
79.7321
20
30.8949
0
VERTEX
8
CUT
10
77.4641
20
34.8231
0
VERTEX
8
CUT
10
82
20
34.8231
0
SEQEND
0
POLYLINE
8
CUT
66
1
70
0
0
VERTEX
8
CUT
10
84
20
34.8231
0
VERTEX
8
CUT
10
88.5359
20
34.8231
0
VERTEX
8
CUT
10
86.2679
20
30.8949
0
SEQEND
0
POLYLINE
8
CUT
66
1
70
0
0
VERTEX
8
CUT
10
85.2679
20
29.1628
0
VERTEX
8
CUT
10
83
20
25.2346
0
VERTEX
8
CUT
10
80.7321
20
29.1628
0
SEQEND
0
LINE
8
CUT
10
80.1962
20
33.8231
11
85.8038
21
33.8231
0
LINE
8
CUT
10
86.3038
20
32.9571
11
83.5
21
28.1007
0
LINE
8
CUT
10
82.5
20
28.1007
11
79.6962
21
32.9571
0
POLYLINE
8
CUT
66
1
70
0
0
VERTEX
8
CUT
10
81.4641
20
31.8949
0
VERTEX
8
CUT
10
80.9282
20
32.8231
0
VERTEX
8
CUT
10
82
20
32.8231
0
SEQEND
0
POLYLINE
8
CUT
66
1
70
0
0
VERTEX
8
CUT
10
84
20
32.8231
0
VERTEX
8
CUT
10
85.0718
20
32.8231
0
VERTEX
8
CUT
10
84.5359
20
31.8949
0
SEQEND
0
POLYLINE
8
CUT
66
1
70
0
0
VERTEX
8
CUT
10
83.5359
20
30.1628
0
VERTEX
8
CUT
10
83
20
29.2346
0
VERTEX
8
CUT
10
82.4641
20
30.1628
0
SEQEND
0
LINE
8
CUT
10
85.7321
20
22.2346
11
98.2679
21
22.2346
0
LINE
8
CUT
10
98.7679
20
23.1007
11
92.5
21
33.9571
0
LINE
8
CUT
10
91.5
20
33.9571
11
85.2321
21
23.1007
0
POLYLINE
8
CUT
66
1
70
0
0
VERTEX
8
CUT
10
88.7321
20
27.1628
0
VERTEX
8
CUT
10
86.4641
20
23.2346
0
VERTEX
8
CUT
10
91
20
23.2346
0
SEQEND
0
POLYLINE
8
CUT
66
1
70
0
0
VERTEX
8
CUT
10
93
20
23.2346
0
VERTEX
8
CUT
10
97.5359
20
23.2346
0
VERTEX
8
CUT
10
95.2679
20
27.1628
0
SEQEND
0
POLYLINE
8
CUT
66
1
70
0
0
VERTEX
8
CUT
10
94.2679
20
28.8949
0
VERTEX
8
CUT
10
92
20
32.8231
0
VERTEX
8
CUT
10
89.7321
20
28.8949
0
SEQEND
0
LINE
8
CUT
10
89.1962
20
24.2346
11
94.8038
21
24.2346
0
LINE
8
CUT
10
95.3038
20
25.1007
11
92.5
21
29.9571
0
LINE
8
CUT
10
91.5
20
29.9571
11
88.6962
21
25.1007
0
POLYLINE
8
CUT
66
1
70
0
0
VERTEX
8
CUT
10
90.4641
20
26.1628
0
VERTEX
8
CUT
10
89.9282
20
25.2346
0
VERTEX
8
CUT
10
91
20
25.2346
0
SEQEND
0
POLYLINE
8
CUT
66
1
70
0
0
VERTEX
8
CUT
10
93
20
25.2346
0
VERTEX
8
CUT
10
94.0718
20
25.2346
0
VERTEX
8
CUT
10
93.5359
20
26.1628
0
SEQEND
0
POLYLINE
8
CUT
66
1
70
0
0
VERTEX
8
CUT
10
92.5359
20
27.8949
0
VERTEX
8
CUT
10
92
20
28.8231
0
VERTEX
8
CUT
10
91.4641
20
27.8949
0
SEQEND
0
LINE
8
CUT
10
94.7321
20
35.8231
11
107.2679
21
35.8231
0
LINE
8
CUT
10
107.7679
20
34.9571
11
101.5
21
24.1007
0
LINE
8
CUT
10
100.5
20
24.1007
11
94.2321
21
34.9571
0
POLYLINE
8
CUT
66
1
70
0
0
VERTEX
8
CUT
10
97.7321
20
30.8949
0
VERTEX
8
CUT
10
95.4641
20
34.8231
0
VERTEX
8
CUT
10
100
20
34.8231
0
SEQEND
0
POLYLINE
8
CUT
66
1
70
0
0
VERTEX
8
CUT
10
102
20
34.8231
0
VERTEX
8
CUT
10
106.5359
20
34.8231
0
VERTEX
8
CUT
10
104.2679
20
30.8949
0
SEQEND
0
POLYLINE
8
CUT
66
1
70
0
0
VERTEX
8
CUT
10
103.2679
20
29.1628
0
VERTEX
8
CUT
10
101
20
25.2346
0
VERTEX
8
CUT
10
98.7321
20
29.1628
0
SEQEND
0
LINE
8
CUT
10
98.1962
20
33.8231
11
103.8038
21
33.8231
0
LINE
8
CUT
10
104.3038
20
32.9571
11
101.5
21
28.1007
0
LINE
8
CUT
10
100.5
20
28.1007
11
97.6962
21
32.9571
0
POLYLINE
8
CUT
66
1
70
0
0
VERTEX
8
CUT
10
99.4641
20
31.8949
0
VERTEX
8
CUT
10
98.9282
20
32.8231
0
VERTEX
8
CUT
10
100
20
32.8231
0
SEQEND
0
POLYLINE
8
CUT
66
1
70
0
0
VERTEX
8
CUT
10
102
20
32.8231
0
VERTEX
8
CUT
10
103.0718
20
32.8231
0
VERTEX
8
CUT
10
102.5359
20
31.8949
0
SEQEND
0
POLYLINE
8
CUT
66
1
70
0
0
VERTEX
8
CUT
10
101.5359
20
30.1628
0
VERTEX
8
CUT
10
101
20
29.2346
0
VERTEX
8
CUT
10
100.4641
20
30.1628
0
SEQEND
0
LINE
8
CUT
10
103.7321
20
22.2346
11
116.2679
21
22.2346
0
LINE
8
CUT
10
116.7679
20
23.1007
11
110.5
21
33.9571
0
LINE
8
CUT
10
109.5
20
33.9571
11
103.2321
21
23.1007
0
POLYLINE
8
CUT
66
1
70
0
0
VERTEX
8
CUT
10
106.7321
20
27.1628
0
VERTEX
8
CUT
10
104.4641
20
23.2346
0
VERTEX
8
CUT
10
109
20
23.2346
0
SEQEND
0
POLYLINE
8
CUT
66
1
70
0
0
VERTEX
8
CUT
10
111
20
23.2346
0
VERTEX
8
CUT
10
115.5359
20
23.2346
0
VERTEX
8
CUT
10
113.2679
20
27.1628
0
SEQEND
0
POLYLINE
8
CUT
66
1
70
0
0
VERTEX
8
CUT
10
112.2679
20
28.8949
0
VERTEX
8
CUT
10
110
20
32.8231
0
VERTEX
8
CUT
10
107.7321
20
28.8949
0
SEQEND
0
LINE
8
CUT
10
107.1962
20
24.2346
11
112.8038
21
24.2346
0
LINE
8
CUT
10
113.3038
20
25.1007
11
110.5
21
29.9571
0
LINE
8
CUT
10
109.5
20
29.9571
11
106.6962
21
25.1007
0
POLYLINE
8
CUT
66
1
70
0
0
VERTEX
8
CUT
10
108.4641
20
26.1628
0
VERTEX
8
CUT
10
107.9282
20
25.2346
0
VERTEX
8
CUT
10
109
20
25.2346
0
SEQEND
0
POLYLINE
8
CUT
66
1
70
0
0
VERTEX
8
CUT
10
111
20
25.2346
0
VERTEX
8
CUT
10
112.0718
20
25.2346
0
VERTEX
8
CUT
10
111.5359
20
26.1628
0
SEQEND
0
POLYLINE
8
CUT
66
1
70
0
0
VERTEX
8
CUT
10
110.5359
20
27.8949
0
VERTEX
8
CUT
10
110
20
28.8231
0
VERTEX
8
CUT
10
109.4641
20
27.8949
0
SEQEND
0
LINE
8
CUT
10
112.7321
20
35.8231
11
118
21
35.8231
0
LINE
8
CUT
10
118
20
24.9667
11
112.2321
21
34.9571
0
POLYLINE
8
CUT
66
1
70
0
0
VERTEX
8
CUT
10
115.7321
20
30.8949
0
VERTEX
8
CUT
10
113.4641
20
34.8231
0
VERTEX
8
CUT
10
118
20
34.8231
0
SEQEND
0
LINE
8
CUT
10
118
20
26.9667
11
116.7321
21
29.1628
0
LINE
8
CUT
10
116.1962
20
33.8231
11
118
21
33.8231
0
LINE
8
CUT
10
118
20
28.9667
11
115.6962
21
32.9571
0
POLYLINE
8
CUT
66
1
70
0
0
VERTEX
8
CUT
10
117.4641
20
31.8949
0
VERTEX
8
CUT
10
116.9282
20
32.8231
0
VERTEX
8
CUT
10
118
20
32.8231
0
SEQEND
0
LINE
8
CUT
10
2
20
20.2346
11
8.2679
21
20.2346
0
LINE
8
CUT
10
8.7679
20
19.3686
11
2.5
21
8.5122
0
POLYLINE
8
CUT
66
1
70
0
0
VERTEX
8
CUT
10
3
20
19.2346
0
VERTEX
8
CUT
10
7.5359
20
19.2346
0
VERTEX
8
CUT
10
5.2679
20
15.3064
0
SEQEND
0
POLYLINE
8
CUT
66
1
70
0
0
VERTEX
8
CUT
10
4.2679
20
13.5744
0
VERTEX
8
CUT
10
2
20
9.6462
0
VERTEX
8
CUT
10
2
20
9.6462
0
SEQEND
0
LINE
8
CUT
10
2
20
18.2346
11
4.8038
21
18.2346
0
LINE
8
CUT
10
5.3038
20
17.3686
11
2.5
21
12.5122
0
POLYLINE
8
CUT
66
1
70
0
0
VERTEX
8
CUT
10
3
20
17.2346
0
VERTEX
8
CUT
10
4.0718
20
17.2346
0
VERTEX
8
CUT
10
3.5359
20
16.3064
0
SEQEND
0
POLYLINE
8
CUT
66
1
70
0
0
VERTEX
8
CUT
10
2.5359
20
14.5744
0
VERTEX
8
CUT
10
2
20
13.6462
0
VERTEX
8
CUT
10
2
20
13.6462
0
SEQEND
0
LINE
8
CUT
10
4.7321
20
6.6462
11
17.2679
21
6.6462
0
LINE
8
CUT
10
17.7679
20
7.5122
11
11.5
21
18.3686
0
LINE
8
CUT
10
10.5
20
18.3686
11
4.2321
21
7.5122
0
POLYLINE
8
CUT
66
1
70
0
0
VERTEX
8
CUT
10
7.7321
20
11.5744
0
VERTEX
8
CUT
10
5.4641
20
7.6462
0
VERTEX
8
CUT
10
10
20
7.6462
0
SEQEND
0
POLYLINE
8
CUT
66
1
70
0
0
VERTEX
8
CUT
10
12
20
7.6462
0
VERTEX
8
CUT
10
16.5359
20
7.6462
0
VERTEX
8
CUT
10
14.2679
20
11.5744
0
SEQEND
0
POLYLINE
8
CUT
66
1
70
0
0
VERTEX
8
CUT
10
13.2679
20
13.3064
0
VERTEX
8
CUT
10
11
20
17.2346
0
VERTEX
8
CUT
10
8.7321
20
13.3064
0
SEQEND
0
LINE
8
CUT
10
8.1962
20
8.6462
11
13.8038
21
8.6462
0
LINE
8
CUT
10
14.3038
20
9.5122
11
11.5
21
14.3686
0
LINE
8
CUT
10
10.5
20
14.3686
11
7.6962
21
9.5122
0
POLYLINE
8
CUT
66
1
70
0
0
VERTEX
8
CUT
10
9.4641
20
10.5744
0
VERTEX
8
CUT
10
8.9282
20
9.6462
0
VERTEX
8
CUT
10
10
20
9.6462
0
SEQEND
0
POLYLINE
8
CUT
66
1
70
0
0
VERTEX
8
CUT
10
12
20
9.6462
0
VERTEX
8
CUT
10
13.0718
20
9.6462
0
VERTEX
8
CUT
10
12.5359
20
10.5744
0
SEQEND
0
POLYLINE
8
CUT
66
1
70
0
0
VERTEX
8
CUT
10
11.5359
20
12.3064
0
VERTEX
8
CUT
10
11
20
13.2346
0
VERTEX
8
CUT
10
10.4641
20
12.3064
0
SEQEND
0
LINE
8
CUT
10
13.7321
20
20.2346
11
26.2679
21
20.2346
0
LINE
8
CUT
10
26.7679
20
19.3686
11
20.5
21
8.5122
0
LINE
8
CUT
10
19.5
20
8.5122
11
13.2321
21
19.3686
0
POLYLINE
8
CUT
66
1
70
0
0
VERTEX
8
CUT
10
16.7321
20
15.3064
0
VERTEX
8
CUT
10
14.4641
20
19.2346
0
VERTEX
8
CUT
10
19
20
19.2346
0
SEQEND
0
POLYLINE
8
CUT
66
1
70
0
0
VERTEX
8
CUT
10
21
20
19.2346
0
VERTEX
8
CUT
10
25.5359
20
19.2346
0
VERTEX
8
CUT
10
23.2679
20
15.3064
0
SEQEND
0
POLYLINE
8
CUT
66
1
70
0
0
VERTEX
8
CUT
10
22.2679
20
13.5744
0
VERTEX
8
CUT
10
20
20
9.6462
0
VERTEX
8
CUT
10
17.7321
20
13.5744
0
SEQEND
0
LINE
8
CUT
10
17.1962
20
18.2346
11
22.8038
21
18.2346
0
LINE
8
CUT
10
23.3038
20
17.3686
11
20.5
21
12.5122
0
LINE
8
CUT
10
19.5
20
12.5122
11
16.6962
21
17.3686
0
POLYLINE
8
CUT
66
1
70
0
0
VERTEX
8
CUT
10
18.4641
20
16.3064
0
VERTEX
8
CUT
10
17.9282
20
17.2346
0
VERTEX
8
CUT
10
19
20
17.2346
0
SEQEND
0
POLYLINE
8
CUT
66
1
70
0
0
VERTEX
8
CUT
10
21
20
17.2346
0
VERTEX
8
CUT
10
22.0718
20
17.2346
0
VERTEX
8
CUT
10
21.5359
20
16.3064
0
SEQEND
0
POLYLINE
8
CUT
66
1
70
0
0
VERTEX
8
CUT
10
20.5359
20
14.5744
0
VERTEX
8
CUT
10
20
20
13.6462
0
VERTEX
8
CUT
10
19.4641
20
14.5744
0
SEQEND
0
LINE
8
CUT
10
22.7321
20
6.6462
11
35.2679
21
6.6462
0
LINE
8
CUT
10
35.7679
20
7.5122
11
29.5
21
18.3686
0
LINE
8
CUT
10
28.5
20
18.3686
11
22.2321
21
7.5122
0
POLYLINE
8
CUT
66
1
70
0
0
VERTEX
8
CUT
10
25.7321
20
11.5744
0
VERTEX
8
CUT
10
23.4641
20
7.6462
0
VERTEX
8
CUT
10
28
20
7.6462
0
SEQEND
0
POLYLINE
8
CUT
66
1
70
0
0
VERTEX
8
CUT
10
30
20
7.6462
0
VERTEX
8
CUT
10
34.5359
20
7.6462
0
VERTEX
8
CUT
10
32.2679
20
11.5744
0
SEQEND
0
POLYLINE
8
CUT
66
1
70
0
0
VERTEX
8
CUT
10
31.2679
20
13.3064
0
VERTEX
8
CUT
10
29
20
17.2346
0
VERTEX
8
CUT
10
26.7321
20
13.3064
0
SEQEND
0
LINE
8
CUT
10
26.1962
20
8.6462
11
31.8038
21
8.6462
0
LINE
8
CUT
10
32.3038
20
9.5122
11
29.5
21
14.3686
0
LINE
8
CUT
10
28.5
20
14.3686
11
25.6962
21
9.5122
0
POLYLINE
8
CUT
66
1
70
0
0
VERTEX
8
CUT
10
27.4641
20
10.5744
0
VERTEX
8
CUT
10
26.9282
20
9.6462
0
VERTEX
8
CUT
10
28
20
9.6462
0
SEQEND
0
POLYLINE
8
CUT
66
1
70
0
0
VERTEX
8
CUT
10
30
20
9.6462
0
VERTEX
8
CUT
10
31.0718
20
9.6462
0
VERTEX
8
CUT
10
30.5359
20
10.5744
0
SEQEND
0
POLYLINE
8
CUT
66
1
70
0
0
VERTEX
8
CUT
10
29.5359
20
12.3064
0
VERTEX
8
CUT
10
29
20
13.2346
0
VERTEX
8
CUT
10
28.4641
20
12.3064
0
SEQEND
0
LINE
8
CUT
10
31.7321
20
20.2346
11
44.2679
21
20.2346
0
LINE
8
CUT
10
44.7679
20
19.3686
11
38.5
21
8.5122
0
LINE
8
CUT
10
37.5
20
8.5122
11
31.2321
21
19.3686
0
POLYLINE
8
CUT
66
1
70
0
0
VERTEX
8
CUT
10
34.7321
20
15.3064
0
VERTEX
8
CUT
10
32.4641
20
19.2346
0
VERTEX
8
CUT
10
37
20
19.2346
0
SEQEND
0
POLYLINE
8
CUT
66
1
70
0
0
VERTEX
8
CUT
10
39
20
19.2346
0
VERTEX
8
CUT
10
43.5359
20
19.2346
0
VERTEX
8
CUT
10
41.2679
20
15.3064
0
SEQEND
0
POLYLINE
8
CUT
66
1
70
0
0
VERTEX
8
CUT
10
40.2679
20
13.5744
0
VERTEX
8
CUT
10
38
20
9.6462
0
VERTEX
8
CUT
10
35.7321
20
13.5744
0
SEQEND
0
LINE
8
CUT
10
35.1962
20
18.2346
11
40.8038
21
18.2346
0
LINE
8
CUT
10
41.3038
20
17.3686
11
38.5
21
12.5122
0
LINE
8
CUT
10
37.5
20
12.5122
11
34.6962
21
17.3686
0
POLYLINE
8
CUT
66
1
70
0
0
VERTEX
8
CUT
10
36.4641
20
16.3064
0
VERTEX
8
CUT
10
35.9282
20
17.2346
0
VERTEX
8
CUT
10
37
20
17.2346
0
SEQEND
0
POLYLINE
8
CUT
66
1
70
0
0
VERTEX
8
CUT
10
39
20
17.2346
0
VERTEX
8
CUT
10
40.0718
20
17.2346
0
VERTEX
8
CUT
10
39.5359
20
16.3064
0
SEQEND
0
POLYLINE
8
CUT
66
1
70
0
0
VERTEX
8
CUT
10
38.5359
20
14.5744
0
VERTEX
8
CUT
10
38
20
13.6462
0
VERTEX
8
CUT
10
37.4641
20
14.5744
0
SEQEND
0
LINE
8
CUT
10
40.7321
20
6.6462
11
53.2679
21
6.6462
0
LINE
8
CUT
10
53.7679
20
7.5122
11
47.5
21
18.3686
0
LINE
8
CUT
10
46.5
20
18.3686
11
40.2321
21
7.5122
0
POLYLINE
8
CUT
66
1
70
0
0
VERTEX
8
CUT
10
43.7321
20
11.5744
0
VERTEX
8
CUT
10
41.4641
20
7.6462
0
VERTEX
8
CUT
10
46
20
7.6462
0
SEQEND
0
POLYLINE
8
CUT
66
1
70
0
0
VERTEX
8
CUT
10
48
20
7.6462
0
VERTEX
8
CUT
10
52.5359
20
7.6462
0
VERTEX
8
CUT
10
50.2679
20
11.5744
0
SEQEND
0
POLYLINE
8
CUT
66
1
70
0
0
VERTEX
8
CUT
10
49.2679
20
13.3064
0
VERTEX
8
CUT
10
47
20
17.2346
0
VERTEX
8
CUT
10
44.7321
20
13.3064
0
SEQEND
0
LINE
8
CUT
10
44.1962
20
8.6462
11
49.8038
21
8.6462
0
LINE
8
CUT
10
50.3038
20
9.5122
11
47.5
21
14.3686
0
LINE
8
CUT
10
46.5
20
14.3686
11
43.6962
21
9.5122
0
POLYLINE
8
CUT
66
1
70
0
0
VERTEX
8
CUT
10
45.4641
20
10.5744
0
VERTEX
8
CUT
10
44.9282
20
9.6462
0
VERTEX
8
CUT
10
46
20
9.6462
0
SEQEND
0
POLYLINE
8
CUT
66
1
70
0
0
VERTEX
8
CUT
10
48
20
9.6462
0
VERTEX
8
CUT
10
49.0718
20
9.6462
0
VERTEX
8
CUT
10
48.5359
20
10.5744
0
SEQEND
0
POLYLINE
8
CUT
66
1
70
0
0
VERTEX
8
CUT
10
47.5359
20
12.3064
0
VERTEX
8
CUT
10
47
20
13.2346
0
VERTEX
8
CUT
10
46.4641
20
12.3064
0
SEQEND
0
LINE
8
CUT
10
49.7321
20
20.2346
11
62.2679
21
20.2346
0
LINE
8
CUT
10
62.7679
20
19.3686
11
56.5
21
8.5122
0
LINE
8
CUT
10
55.5
20
8.5122
11
49.2321
21
19.3686
0
POLYLINE
8
CUT
66
1
70
0
0
VERTEX
8
CUT
10
52.7321
20
15.3064
0
VERTEX
8
CUT
10
50.4641
20
19.2346
0
VERTEX
8
CUT
10
55
20
19.2346
0
SEQEND
0
POLYLINE
8
CUT
66
1
70
0
0
VERTEX
8
CUT
10
57
20
19.2346
0
VERTEX
8
CUT
10
61.5359
20
19.2346
0
VERTEX
8
CUT
10
59.2679
20
15.3064
0
SEQEND
0
POLYLINE
8
CUT
66
1
70
0
0
VERTEX
8
CUT
10
58.2679
20
13.5744
0
VERTEX
8
CUT
10
56
20
9.6462
0
VERTEX
8
CUT
10
53.7321
20
13.5744
0
SEQEND
0
LINE
8
CUT
10
53.1962
20
18.2346
11
58.8038
21
18.2346
0
LINE
8
CUT
10
59.3038
20
17.3686
11
56.5
21
12.5122
0
LINE
8
CUT
10
55.5
20
12.5122
11
52.6962
21
17.3686
0
POLYLINE
8
CUT
66
1
70
0
0
VERTEX
8
CUT
10
54.4641
20
16.3064
0
VERTEX
8
CUT
10
53.9282
20
17.2346
0
VERTEX
8
CUT
10
55
20
17.2346
0
SEQEND
0
POLYLINE
8
CUT
66
1
70
0
0
VERTEX
8
CUT
10
57
20
17.2346
0
VERTEX
8
CUT
10
58.0718
20
17.2346
0
VERTEX
8
CUT
10
57.5359
20
16.3064
0
SEQEND
0
POLYLINE
8
CUT
66
1
70
0
0
VERTEX
8
CUT
10
56.5359
20
14.5744
0
VERTEX
8
CUT
10
56
20
13.6462
0
VERTEX
8
CUT
10
55.4641
20
14.5744
0
SEQEND
0
LINE
8
CUT
10
58.7321
20
6.6462
11
71.2679
21
6.6462
0
LINE
8
CUT
10
71.7679
20
7.5122
11
65.5
21
18.3686
0
LINE
8
CUT
10
64.5
20
18.3686
11
58.2321
21
7.5122
0
POLYLINE
8
CUT
66
1
70
0
0
VERTEX
8
CUT
10
61.7321
20
11.5744
0
VERTEX
8
CUT
10
59.4641
20
7.6462
0
VERTEX
8
CUT
10
64
20
7.6462
0
SEQEND
0
POLYLINE
8
CUT
66
1
70
0
0
VERTEX
8
CUT
10
66
20
7.6462
0
VERTEX
8
CUT
10
70.5359
20
7.6462
0
VERTEX
8
CUT
10
68.2679
20
11.5744
0
SEQEND
0
POLYLINE
8
CUT
66
1
70
0
0
VERTEX
8
CUT
10
67.2679
20
13.3064
0
VERTEX
8
CUT
10
65
20
17.2346
0
VERTEX
8
CUT
10
62.7321
20
13.3064
0
SEQEND
0
LINE
8
CUT
10
62.1962
20
8.6462
11
67.8038
21
8.6462
0
LINE
8
CUT
10
68.3038
20
9.5122
11
65.5
21
14.3686
0
LINE
8
CUT
10
64.5
20
14.3686
11
61.6962
21
9.5122
0
POLYLINE
8
CUT
66
1
70
0
0
VERTEX
8
CUT
10
63.4641
20
10.5744
0
VERTEX
8
CUT
10
62.9282
20
9.6462
0
VERTEX
8
CUT
10
64
20
9.6462
0
SEQEND
0
POLYLINE
8
CUT
66
1
70
0
0
VERTEX
8
CUT
10
66
20
9.6462
0
VERTEX
8
CUT
10
67.0718
20
9.6462
0
VERTEX
8
CUT
10
66.5359
20
10.5744
0
SEQEND
0
POLYLINE
8
CUT
66
1
70
0
0
VERTEX
8
CUT
10
65.5359
20
12.3064
0
VERTEX
8
CUT
10
65
20
13.2346
0
VERTEX
8
CUT
10
64.4641
20
12.3064
0
SEQEND
0
LINE
8
CUT
10
67.7321
20
20.2346
11
80.2679
21
20.2346
0
LINE
8
CUT
10
80.7679
20
19.3686
11
74.5
21
8.5122
0
LINE
8
CUT
10
73.5
20
8.5122
11
67.2321
21
19.3686
0
POLYLINE
8
CUT
66
1
70
0
0
VERTEX
8
CUT
10
70.7321
20
15.3064
0
VERTEX
8
CUT
10
68.4641
20
19.2346
0
VERTEX
8
CUT
10
73
20
19.2346
0
SEQEND
0
POLYLINE
8
CUT
66
1
70
0
0
VERTEX
8
CUT
10
75
20
19.2346
0
VERTEX
8
CUT
10
79.5359
20
19.2346
0
VERTEX
8
CUT
10
77.2679
20
15.3064
0
SEQEND
0
POLYLINE
8
CUT
66
1
70
0
0
VERTEX
8
CUT
10
76.2679
20
13.5744
0
VERTEX
8
CUT
10
74
20
9.6462
0
VERTEX
8
CUT
10
71.7321
20
13.5744
0
SEQEND
0
LINE
8
CUT
10
71.1962
20
18.2346
11
76.8038
21
18.2346
0
LINE
8
CUT
10
77.3038
20
17.3686
11
74.5
21
12.5122
0
LINE
8
CUT
10
73.5
20
12.5122
11
70.6962
21
17.3686
0
POLYLINE
8
CUT
66
1
70
0
0
VERTEX
8
CUT
10
72.4641
20
16.3064
0
VERTEX
8
CUT
10
71.9282
20
17.2346
0
VERTEX
8
CUT
10
73
20
17.2346
0
SEQEND
0
POLYLINE
8
CUT
66
1
70
0
0
VERTEX
8
CUT
10
75
20
17.2346
0
VERTEX
8
CUT
10
76.0718
20
17.2346
0
VERTEX
8
CUT
10
75.5359
20
16.3064
0
SEQEND
0
POLYLINE
8
CUT
66
1
70
0
0
VERTEX
8
CUT
10
74.5359
20
14.5744
0
VERTEX
8
CUT
10
74
20
13.6462
0
VERTEX
8
CUT
10
73.4641
20
14.5744
0
SEQEND
0
LINE
8
CUT
10
76.7321
20
6.6462
11
89.2679
21
6.6462
0
LINE
8
CUT
10
89.7679
20
7.5122
11
83.5
21
18.3686
0
LINE
8
CUT
10
82.5
20
18.3686
11
76.2321
21
7.5122
0
POLYLINE
8
CUT
66
1
70
0
0
VERTEX
8
CUT
10
79.7321
20
11.5744
0
VERTEX
8
CUT
10
77.4641
20
7.6462
0
VERTEX
8
CUT
10
82
20
7.6462
0
SEQEND
0
POLYLINE
8
CUT
66
1
70
0
0
VERTEX
8
CUT
10
84
20
7.6462
0
VERTEX
8
CUT
10
88.5359
20
7.6462
0
VERTEX
8
CUT
10
86.2679
20
11.5744
0
SEQEND
0
POLYLINE
8
CUT
66
1
70
0
0
VERTEX
8
CUT
10
85.2679
20
13.3064
0
VERTEX
8
CUT
10
83
20
17.2346
0
VERTEX
8
CUT
10
80.7321
20
13.3064
0
SEQEND
0
LINE
8
CUT
10
80.1962
20
8.6462
11
85.8038
21
8.6462
0
LINE
8
CUT
10
86.3038
20
9.5122
11
83.5
21
14.3686
0
LINE
8
CUT
10
82.5
20
14.3686
11
79.6962
21
9.5122
0
POLYLINE
8
CUT
66
1
70
0
0
VERTEX
8
CUT
10
81.4641
20
10.5744
0
VERTEX
8
CUT
10
80.9282
20
9.6462
0
VERTEX
8
CUT
10
82
20
9.6462
0
SEQEND
0
POLYLINE
8
CUT
66
1
70
0
0
VERTEX
8
CUT
10
84
20
9.6462
0
VERTEX
8
CUT
10
85.0718
20
9.6462
0
VERTEX
8
CUT
10
84.5359
20
10.5744
0
SEQEND
0
POLYLINE
8
CUT
66
1
70
0
0
VERTEX
8
CUT
10
83.5359
20
12.3064
0
VERTEX
8
CUT
10
83
20
13.2346
0
VERTEX
8
CUT
10
82.4641
20
12.3064
0
SEQEND
0
LINE
8
CUT
10
85.7321
20
20.2346
11
98.2679
21
20.2346
0
LINE
8
CUT
10
98.7679
20
19.3686
11
92.5
21
8.5122
0
LINE
8
CUT
10
91.5
20
8.5122
11
85.2321
21
19.3686
0
POLYLINE
8
CUT
66
1
70
0
0
VERTEX
8
CUT
10
88.7321
20
15.3064
0
VERTEX
8
CUT
10
86.4641
20
19.2346
0
VERTEX
8
CUT
10
91
20
19.2346
0
SEQEND
0
POLYLINE
8
CUT
66
1
70
0
0
VERTEX
8
CUT
10
93
20
19.2346
0
VERTEX
8
CUT
10
97.5359
20
19.2346
0
VERTEX
8
CUT
10
95.2679
20
15.3064
0
SEQEND
0
POLYLINE
8
CUT
66
1
70
0
0
VERTEX
8
CUT
10
94.2679
20
13.5744
0
VERTEX
8
CUT
10
92
20
9.6462
0
VERTEX
8
CUT
10
89.7321
20
13.5744
0
SEQEND
0
LINE
8
CUT
10
89.1962
20
18.2346
11
94.8038
21
18.2346
0
LINE
8
CUT
10
95.3038
20
17.3686
11
92.5
21
12.5122
0
LINE
8
CUT
10
91.5
20
12.5122
11
88.6962
21
17.3686
0
POLYLINE
8
CUT
66
1
70
0
0
VERTEX
8
CUT
10
90.4641
20
16.3064
0
VERTEX
8
CUT
10
89.9282
20
17.2346
0
VERTEX
8
CUT
10
91
20
17.2346
0
SEQEND
0
POLYLINE
8
CUT
66
1
70
0
0
VERTEX
8
CUT
10
93
20
17.2346
0
VERTEX
8
CUT
10
94.0718
20
17.2346
0
VERTEX
8
CUT
10
93.5359
20
16.3064
0
SEQEND
0
POLYLINE
8
CUT
66
1
70
0
0
VERTEX
8
CUT
10
92.5359
20
14.5744
0
VERTEX
8
CUT
10
92
20
13.6462
0
VERTEX
8
CUT
10
91.4641
20
14.5744
0
SEQEND
0
LINE
8
CUT
10
94.7321
20
6.6462
11
107.2679
21
6.6462
0
LINE
8
CUT
10
107.7679
20
7.5122
11
101.5
21
18.3686
0
LINE
8
CUT
10
100.5
20
18.3686
11
94.2321
21
7.5122
0
POLYLINE
8
CUT
66
1
70
0
0
VERTEX
8
CUT
10
97.7321
20
11.5744
0
VERTEX
8
CUT
10
95.4641
20
7.6462
0
VERTEX
8
CUT
10
100
20
7.6462
0
SEQEND
0
POLYLINE
8
CUT
66
1
70
0
0
VERTEX
8
CUT
10
102
20
7.6462
0
VERTEX
8
CUT
10
106.5359
20
7.6462
0
VERTEX
8
CUT
10
104.2679
20
11.5744
0
SEQEND
0
POLYLINE
8
CUT
66
1
70
0
0
VERTEX
8
CUT
10
103.2679
20
13.3064
0
VERTEX
8
CUT
10
101
20
17.2346
0
VERTEX
8
CUT
10
98.7321
20
13.3064
0
SEQEND
0
LINE
8
CUT
10
98.1962
20
8.6462
11
103.8038
21
8.6462
0
LINE
8
CUT
10
104.3038
20
9.5122
11
101.5
21
14.3686
0
LINE
8
CUT
10
100.5
20
14.3686
11
97.6962
21
9.5122
0
POLYLINE
8
CUT
66
1
70
0
0
VERTEX
8
CUT
10
99.4641
20
10.5744
0
VERTEX
8
CUT
10
98.9282
20
9.6462
0
VERTEX
8
CUT
10
100
20
9.6462
0
SEQEND
0
POLYLINE
8
CUT
66
1
70
0
0
VERTEX
8
CUT
10
102
20
9.6462
0
VERTEX
8
CUT
10
103.0718
20
9.6462
0
VERTEX
8
CUT
10
102.5359
20
10.5744
0
SEQEND
0
POLYLINE
8
CUT
66
1
70
0
0
VERTEX
8
CUT
10
101.5359
20
12.3064
0
VERTEX
8
CUT
10
101
20
13.2346
0
VERTEX
8
CUT
10
100.4641
20
12.3064
0
SEQEND
0
LINE
8
CUT
10
103.7321
20
20.2346
11
116.2679
21
20.2346
0
LINE
8
CUT
10
116.7679
20
19.3686
11
110.5
21
8.5122
0
LINE
8
CUT
10
109.5
20
8.5122
11
103.2321
21
19.3686
0
POLYLINE
8
CUT
66
1
70
0
0
VERTEX
8
CUT
10
106.7321
20
15.3064
0
VERTEX
8
CUT
10
104.4641
20
19.2346
0
VERTEX
8
CUT
10
109
20
19.2346
0
SEQEND
0
POLYLINE
8
CUT
66
1
70
0
0
VERTEX
8
CUT
10
111
20
19.2346
0
VERTEX
8
CUT
10
115.5359
20
19.2346
0
VERTEX
8
CUT
10
113.2679
20
15.3064
0
SEQEND
0
POLYLINE
8
CUT
66
1
70
0
0
VERTEX
8
CUT
10
112.2679
20
13.5744
0
VERTEX
8
CUT
10
110
20
9.6462
0
VERTEX
8
CUT
10
107.7321
20
13.5744
0
SEQEND
0
LINE
8
CUT
10
107.1962
20
18.2346
11
112.8038
21
18.2346
0
LINE
8
CUT
10
113.3038
20
17.3686
11
110.5
21
12.5122
0
LINE
8
CUT
10
109.5
20
12.5122
11
106.6962
21
17.3686
0
POLYLINE
8
CUT
66
1
70
0
0
VERTEX
8
CUT
10
108.4641
20
16.3064
0
VERTEX
8
CUT
10
107.9282
20
17.2346
0
VERTEX
8
CUT
10
109
20
17.2346
0
SEQEND
0
POLYLINE
8
CUT
66
1
70
0
0
VERTEX
8
CUT
10
111
20
17.2346
0
VERTEX
8
CUT
10
112.0718
20
17.2346
0
VERTEX
8
CUT
10
111.5359
20
16.3064
0
SEQEND
0
POLYLINE
8
CUT
66
1
70
0
0
VERTEX
8
CUT
10
110.5359
20
14.5744
0
VERTEX
8
CUT
10
110
20
13.6462
0
VERTEX
8
CUT
10
109.4641
20
14.5744
0
SEQEND
0
LINE
8
CUT
10
112.7321
20
6.6462
11
118
21
6.6462
0
LINE
8
CUT
10
118
20
17.5026
11
112.2321
21
7.5122
0
POLYLINE
8
CUT
66
1
70
0
0
VERTEX
8
CUT
10
115.7321
20
11.5744
0
VERTEX
8
CUT
10
113.4641
20
7.6462
0
VERTEX
8
CUT
10
118
20
7.6462
0
SEQEND
0
LINE
8
CUT
10
118
20
15.5026
11
116.7321
21
13.3064
0
LINE
8
CUT
10
116.1962
20
8.6462
11
118
21
8.6462
0
LINE
8
CUT
10
118
20
13.5026
11
115.6962
21
9.5122
0
POLYLINE
8
CUT
66
1
70
0
0
VERTEX
8
CUT
10
117.4641
20
10.5744
0
VERTEX
8
CUT
10
116.9282
20
9.6462
0
VERTEX
8
CUT
10
118
20
9.6462
0
SEQEND
0
LINE
8
CUT
10
2.9504
20
2
11
2.5
21
2.7801
0
LINE
8
CUT
10
4.7321
20
4.6462
11
17.2679
21
4.6462
0
LINE
8
CUT
10
17.7679
20
3.7801
11
16.7402
21
2
0
LINE
8
CUT
10
5.2598
20
2
11
4.2321
21
3.7801
0
POLYLINE
8
CUT
66
1
70
0
0
VERTEX
8
CUT
10
6.4145
20
2
0
VERTEX
8
CUT
10
5.4641
20
3.6462
0
VERTEX
8
CUT
10
10
20
3.6462
0
SEQEND
0
POLYLINE
8
CUT
66
1
70
0
0
VERTEX
8
CUT
10
12
20
3.6462
0
VERTEX
8
CUT
10
16.5359
20
3.6462
0
VERTEX
8
CUT
10
15.5855
20
2
0
SEQEND
0
LINE
8
CUT
10
8.1962
20
2.6462
11
13.8038
21
2.6462
0
LINE
8
CUT
10
20.9504
20
2
11
20.5
21
2.7801
0
LINE
8
CUT
10
19.5
20
2.7801
11
19.0496
21
2
0
LINE
8
CUT
10
22.7321
20
4.6462
11
35.2679
21
4.6462
0
LINE
8
CUT
10
35.7679
20
3.7801
11
34.7402
21
2
0
LINE
8
CUT
10
23.2598
20
2
11
22.2321
21
3.7801
0
POLYLINE
8
CUT
66
1
70
0
0
VERTEX
8
CUT
10
24.4145
20
2
0
VERTEX
8
CUT
10
23.4641
20
3.6462
0
VERTEX
8
CUT
10
28
20
3.6462
0
SEQEND
0
POLYLINE
8
CUT
66
1
70
0
0
VERTEX
8
CUT
10
30
20
3.6462
0
VERTEX
8
CUT
10
34.5359
20
3.6462
0
VERTEX
8
CUT
10
33.5855
20
2
0
SEQEND
0
LINE
8
CUT
10
26.1962
20
2.6462
11
31.8038
21
2.6462
0
LINE
8
CUT
10
38.9504
20
2
11
38.5
21
2.7801
0
LINE
8
CUT
10
37.5
20
2.7801
11
37.0496
21
2
0
LINE
8
CUT
10
40.7321
20
4.6462
11
53.2679
21
4.6462
0
LINE
8
CUT
10
53.7679
20
3.7801
11
52.7402
21
2
0
LINE
8
CUT
10
41.2598
20
2
11
40.2321
21
3.7801
0
POLYLINE
8
CUT
66
1
70
0
0
VERTEX
8
CUT
10
42.4145
20
2
0
VERTEX
8
CUT
10
41.4641
20
3.6462
0
VERTEX
8
CUT
10
46
20
3.6462
0
SEQEND
0
POLYLINE
8
CUT
66
1
70
0
0
VERTEX
8
CUT
10
48
20
3.6462
0
VERTEX
8
CUT
10
52.5359
20
3.6462
0
VERTEX
8
CUT
10
51.5855
20
2
0
SEQEND
0
LINE
8
CUT
10
44.1962
20
2.6462
11
49.8038
21
2.6462
0
LINE
8
CUT
10
56.9504
20
2
11
56.5
21
2.7801
0
LINE
8
CUT
10
55.5
20
2.7801
11
55.0496
21
2
0
LINE
8
CUT
10
58.7321
20
4.6462
11
71.2679
21
4.6462
0
LINE
8
CUT
10
71.7679
20
3.7801
11
70.7402
21
2
0
LINE
8
CUT
10
59.2598
20
2
11
58.2321
21
3.7801
0
POLYLINE
8
CUT
66
1
70
0
0
VERTEX
8
CUT
10
60.4145
20
2
0
VERTEX
8
CUT
10
59.4641
20
3.6462
0
VERTEX
8
CUT
10
64
20
3.6462
0
SEQEND
0
POLYLINE
8
CUT
66
1
70
0
0
VERTEX
8
CUT
10
66
20
3.6462
0
VERTEX
8
CUT
10
70.5359
20
3.6462
0
VERTEX
8
CUT
10
69.5855
20
2
0
SEQEND
0
LINE
8
CUT
10
62.1962
20
2.6462
11
67.8038
21
2.6462
0
LINE
8
CUT
10
74.9504
20
2
11
74.5
21
2.7801
0
LINE
8
CUT
10
73.5
20
2.7801
11
73.0496
21
2
0
LINE
8
CUT
10
76.7321
20
4.6462
11
89.2679
21
4.6462
0
LINE
8
CUT
10
89.7679
20
3.7801
11
88.7402
21
2
0
LINE
8
CUT
10
77.2598
20
2
11
76.2321
21
3.7801
0
POLYLINE
8
CUT
66
1
70
0
0
VERTEX
8
CUT
10
78.4145
20
2
0
VERTEX
8
CUT
10
77.4641
20
3.6462
0
VERTEX
8
CUT
10
82
20
3.6462
0
SEQEND
0
POLYLINE
8
CUT
66
1
70
0
0
VERTEX
8
CUT
10
84
20
3.6462
0
VERTEX
8
CUT
10
88.5359
20
3.6462
0
VERTEX
8
CUT
10
87.5855
20
2
0
SEQEND
0
LINE
8
CUT
10
80.1962
20
2.6462
11
85.8038
21
2.6462
0
LINE
8
CUT
10
92.9504
20
2
11
92.5
21
2.7801
0
LINE
8
CUT
10
91.5
20
2.7801
11
91.0496
21
2
0
LINE
8
CUT
10
94.7321
20
4.6462
11
107.2679
21
4.6462
0
LINE
8
CUT
10
107.7679
20
3.7801
11
106.7402
21
2
0
LINE
8
CUT
10
95.2598
20
2
11
94.2321
21
3.7801
0
POLYLINE
8
CUT
66
1
70
0
0
VERTEX
8
CUT
10
96.4145
20
2
0
VERTEX
8
CUT
10
95.4641
20
3.6462
0
VERTEX
8
CUT
10
100
20
3.6462
0
SEQEND
0
POLYLINE
8
CUT
66
1
70
0
0
VERTEX
8
CUT
10
102
20
3.6462
0
VERTEX
8
CUT
10
106.5359
20
3.6462
0
VERTEX
8
CUT
10
105.5855
20
2
0
SEQEND
0
LINE
8
CUT
10
98.1962
20
2.6462
11
103.8038
21
2.6462
0
LINE
8
CUT
10
110.9504
20
2
11
110.5
21
2.7801
0
LINE
8
CUT
10
109.5
20
2.7801
11
109.0496
21
2
0
LINE
8
CUT
10
112.7321
20
4.6462
11
118
21
4.6462
0
LINE
8
CUT
10
113.2598
20
2
11
112.2321
21
3.7801
0
POLYLINE
8
CUT
66
1
70
0
0
VERTEX
8
CUT
10
114.4145
20
2
0
VERTEX
8
CUT
10
113.4641
20
3.6462
0
VERTEX
8
CUT
10
118
20
3.6462
0
SEQEND
0
LINE
8
CUT
10
116.1962
20
2.6462
11
118
21
2.6462
0
POLYLINE
8
CUT
66
1
70
0
0
VERTEX
8
CUT
10
0
20
70
0
VERTEX
8
CUT
10
120
20
70
0
VERTEX
8
CUT
10
120
20
0
0
VERTEX
8
CUT
10
0
20
0
0
VERTEX
8
CUT
10
0
20
70
0
SEQEND
0
ENDSEC
0
EOF
