0
SECTION
2
HEADER
9
$ACADVER
1
AC1009
9
$INSUNITS
70
4
0
ENDSEC
0
SECTION
2
TABLES
0
TABLE
2
LAYER
70
1
0
LAYER
2
CUT
70
0
62
1
6
CONTINUOUS
0
ENDTAB
0
ENDSEC
0
SECTION
2
ENTITIES
0
LINE
8
CUT
10
6
20
68
11
6
21
48
0
LINE
8
CUT
10
4.25
20
58
11
7.75
21
58
0
LINE
8
CUT
10
6
20
46
11
6
21
26
0
LINE
8
CUT
10
4.25
20
36
11
7.75
21
36
0
LINE
8
CUT
10
6
20
24
11
6
21
4
0
LINE
8
CUT
10
4.25
20
14
11
7.75
21
14
0
LINE
8
CUT
10
12
20
68
11
12
21
59
0
LINE
8
CUT
10
12
20
57
11
12
21
37
0
LINE
8
CUT
10
10.25
20
47
11
13.75
21
47
0
LINE
8
CUT
10
12
20
35
11
12
21
15
0
LINE
8
CUT
10
10.25
20
25
11
13.75
21
25
0
LINE
8
CUT
10
12
20
13
11
12
21
2
0
LINE
8
CUT
10
10.25
20
3
11
13.75
21
3
0
LINE
8
CUT
10
18
20
68
11
18
21
48
0
LINE
8
CUT
10
16.25
20
58
11
19.75
21
58
0
LINE
8
CUT
10
18
20
46
11
18
21
26
0
LINE
8
CUT
10
16.25
20
36
11
19.75
21
36
0
LINE
8
CUT
10
18
20
24
11
18
21
4
0
LINE
8
CUT
10
16.25
20
14
11
19.75
21
14
0
LINE
8
CUT
10
24
20
68
11
24
21
59
0
LINE
8
CUT
10
24
20
57
11
24
21
37
0
LINE
8
CUT
10
22.25
20
47
11
25.75
21
47
0
LINE
8
CUT
10
24
20
35
11
24
21
15
0
LINE
8
CUT
10
22.25
20
25
11
25.75
21
25
0
LINE
8
CUT
10
24
20
13
11
24
21
2
0
LINE
8
CUT
10
22.25
20
3
11
25.75
21
3
0
LINE
8
CUT
10
30
20
68
11
30
21
48
0
LINE
8
CUT
10
28.25
20
58
11
31.75
21
58
0
LINE
8
CUT
10
30
20
46
11
30
21
26
0
LINE
8
CUT
10
28.25
20
36
11
31.75
21
36
0
LINE
8
CUT
10
30
20
24
11
30
21
4
0
LINE
8
CUT
10
28.25
20
14
11
31.75
21
14
0
LINE
8
CUT
10
36
20
68
11
36
21
59
0
LINE
8
CUT
10
36
20
57
11
36
21
37
0
LINE
8
CUT
10
34.25
20
47
11
37.75
21
47
0
LINE
8
CUT
10
36
20
35
11
36
21
15
0
LINE
8
CUT
10
34.25
20
25
11
37.75
21
25
0
LINE
8
CUT
10
36
20
13
11
36
21
2
0
LINE
8
CUT
10
34.25
20
3
11
37.75
21
3
0
LINE
8
CUT
10
42
20
68
11
42
21
48
0
LINE
8
CUT
10
40.25
20
58
11
43.75
21
58
0
LINE
8
CUT
10
42
20
46
11
42
21
26
0
LINE
8
CUT
10
40.25
20
36
11
43.75
21
36
0
LINE
8
CUT
10
42
20
24
11
42
21
4
0
LINE
8
CUT
10
40.25
20
14
11
43.75
21
14
0
LINE
8
CUT
10
48
20
68
11
48
21
59
0
LINE
8
CUT
10
48
20
57
11
48
21
37
0
LINE
8
CUT
10
46.25
20
47
11
49.75
21
47
0
LINE
8
CUT
10
48
20
35
11
48
21
15
0
LINE
8
CUT
10
46.25
20
25
11
49.75
21
25
0
LINE
8
CUT
10
48
20
13
11
48
21
2
0
LINE
8
CUT
10
46.25
20
3
11
49.75
21
3
0
LINE
8
CUT
10
54
20
68
11
54
21
48
0
LINE
8
CUT
10
52.25
20
58
11
55.75
21
58
0
LINE
8
CUT
10
54
20
46
11
54
21
26
0
LINE
8
CUT
10
52.25
20
36
11
55.75
21
36
0
LINE
8
CUT
10
54
20
24
11
54
21
4
0
LINE
8
CUT
10
52.25
20
14
11
55.75
21
14
0
LINE
8
CUT
10
60
20
68
11
60
21
59
0
LINE
8
CUT
10
60
20
57
11
60
21
37
0
LINE
8
CUT
10
58.25
20
47
11
61.75
21
47
0
LINE
8
CUT
10
60
20
35
11
60
21
15
0
LINE
8
CUT
10
58.25
20
25
11
61.75
21
25
0
LINE
8
CUT
10
60
20
13
11
60
21
2
0
LINE
8
CUT
10
58.25
20
3
11
61.75
21
3
0
LINE
8
CUT
10
66
20
68
11
66
21
48
0
LINE
8
CUT
10
64.25
20
58
11
67.75
21
58
0
LINE
8
CUT
10
66
20
46
11
66
21
26
0
LINE
8
CUT
10
64.25
20
36
11
67.75
21
36
0
LINE
8
CUT
10
66
20
24
11
66
21
4
0
LINE
8
CUT
10
64.25
20
14
11
67.75
21
14
0
LINE
8
CUT
10
72
20
68
11
72
21
59
0
LINE
8
CUT
10
72
20
57
11
72
21
37
0
LINE
8
CUT
10
70.25
20
47
11
73.75
21
47
0
LINE
8
CUT
10
72
20
35
11
72
21
15
0
LINE
8
CUT
10
70.25
20
25
11
73.75
21
25
0
LINE
8
CUT
10
72
20
13
11
72
21
2
0
LINE
8
CUT
10
70.25
20
3
11
73.75
21
3
0
LINE
8
CUT
10
78
20
68
11
78
21
48
0
LINE
8
CUT
10
76.25
20
58
11
79.75
21
58
0
LINE
8
CUT
10
78
20
46
11
78
21
26
0
LINE
8
CUT
10
76.25
20
36
11
79.75
21
36
0
LINE
8
CUT
10
78
20
24
11
78
21
4
0
LINE
8
CUT
10
76.25
20
14
11
79.75
21
14
0
LINE
8
CUT
10
84
20
68
11
84
21
59
0
LINE
8
CUT
10
84
20
57
11
84
21
37
0
LINE
8
CUT
10
82.25
20
47
11
85.75
21
47
0
LINE
8
CUT
10
84
20
35
11
84
21
15
0
LINE
8
CUT
10
82.25
20
25
11
85.75
21
25
0
LINE
8
CUT
10
84
20
13
11
84
21
2
0
LINE
8
CUT
10
82.25
20
3
11
85.75
21
3
0
LINE
8
CUT
10
90
20
68
11
90
21
48
0
LINE
8
CUT
10
88.25
20
58
11
91.75
21
58
0
LINE
8
CUT
10
90
20
46
11
90
21
26
0
LINE
8
CUT
10
88.25
20
36
11
91.75
21
36
0
LINE
8
CUT
10
90
20
24
11
90
21
4
0
LINE
8
CUT
10
88.25
20
14
11
91.75
21
14
0
LINE
8
CUT
10
96
20
68
11
96
21
59
0
LINE
8
CUT
10
96
20
57
11
96
21
37
0
LINE
8
CUT
10
94.25
20
47
11
97.75
21
47
0
LINE
8
CUT
10
96
20
35
11
96
21
15
0
LINE
8
CUT
10
94.25
20
25
11
97.75
21
25
0
LINE
8
CUT
10
96
20
13
11
96
21
2
0
LINE
8
CUT
10
94.25
20
3
11
97.75
21
3
0
LINE
8
CUT
10
102
20
68
11
102
21
48
0
LINE
8
CUT
10
100.25
20
58
11
103.75
21
58
0
LINE
8
CUT
10
102
20
46
11
102
21
26
0
LINE
8
CUT
10
100.25
20
36
11
103.75
21
36
0
LINE
8
CUT
10
102
20
24
11
102
21
4
0
LINE
8
CUT
10
100.25
20
14
11
103.75
21
14
0
LINE
8
CUT
10
108
20
68
11
108
21
59
0
LINE
8
CUT
10
108
20
57
11
108
21
37
0
LINE
8
CUT
10
106.25
20
47
11
109.75
21
47
0
LINE
8
CUT
10
108
20
35
11
108
21
15
0
LINE
8
CUT
10
106.25
20
25
11
109.75
21
25
0
LINE
8
CUT
10
108
20
13
11
108
21
2
0
LINE
8
CUT
10
106.25
20
3
11
109.75
21
3
0
LINE
8
CUT
10
114
20
68
11
114
21
48
0
LINE
8
CUT
10
112.25
20
58
11
115.75
21
58
0
LINE
8
CUT
10
114
20
46
11
114
21
26
0
LINE
8
CUT
10
112.25
20
36
11
115.75
21
36
0
LINE
8
CUT
10
114
20
24
11
114
21
4
0
LINE
8
CUT
10
112.25
20
14
11
115.75
21
14
0
POLYLINE
8
CUT
66
1
70
0
0
VERTEX
8
CUT
10
0
20
70
0
VERTEX
8
CUT
10
120
20
70
0
VERTEX
8
CUT
10
120
20
0
0
VERTEX
8
CUT
10
0
20
0
0
VERTEX
8
CUT
10
0
20
70
0
SEQEND
0
ENDSEC
0
EOF
