0
SECTION
2
HEADER
9
$ACADVER
1
AC1009
9
$INSUNITS
70
4
0
ENDSEC
0
SECTION
2
TABLES
0
TABLE
2
LAYER
70
1
0
LAYER
2
CUT
70
0
62
1
6
CONTINUOUS
0
ENDTAB
0
ENDSEC
0
SECTION
2
ENTITIES
0
POLYLINE
8
CUT
66
1
70
0
0
VERTEX
8
CUT
10
2.8682
20
66.8961
0
VERTEX
8
CUT
10
4.8
20
68
0
VERTEX
8
CUT
10
13.2
20
68
0
VERTEX
8
CUT
10
15.1318
20
66.8961
0
SEQEND
0
POLYLINE
8
CUT
66
1
70
0
0
VERTEX
8
CUT
10
2.8682
20
65.9039
0
VERTEX
8
CUT
10
4.8
20
64.8
0
VERTEX
8
CUT
10
13.2
20
64.8
0
VERTEX
8
CUT
10
15.1318
20
65.9039
0
SEQEND
0
POLYLINE
8
CUT
66
1
70
0
0
VERTEX
8
CUT
10
16.8682
20
66.8961
0
VERTEX
8
CUT
10
18.8
20
68
0
VERTEX
8
CUT
10
27.2
20
68
0
VERTEX
8
CUT
10
29.1318
20
66.8961
0
SEQEND
0
POLYLINE
8
CUT
66
1
70
0
0
VERTEX
8
CUT
10
16.8682
20
65.9039
0
VERTEX
8
CUT
10
18.8
20
64.8
0
VERTEX
8
CUT
10
27.2
20
64.8
0
VERTEX
8
CUT
10
29.1318
20
65.9039
0
SEQEND
0
POLYLINE
8
CUT
66
1
70
0
0
VERTEX
8
CUT
10
30.8682
20
66.8961
0
VERTEX
8
CUT
10
32.8
20
68
0
VERTEX
8
CUT
10
41.2
20
68
0
VERTEX
8
CUT
10
43.1318
20
66.8961
0
SEQEND
0
POLYLINE
8
CUT
66
1
70
0
0
VERTEX
8
CUT
10
30.8682
20
65.9039
0
VERTEX
8
CUT
10
32.8
20
64.8
0
VERTEX
8
CUT
10
41.2
20
64.8
0
VERTEX
8
CUT
10
43.1318
20
65.9039
0
SEQEND
0
POLYLINE
8
CUT
66
1
70
0
0
VERTEX
8
CUT
10
44.8682
20
66.8961
0
VERTEX
8
CUT
10
46.8
20
68
0
VERTEX
8
CUT
10
55.2
20
68
0
VERTEX
8
CUT
10
57.1318
20
66.8961
0
SEQEND
0
POLYLINE
8
CUT
66
1
70
0
0
VERTEX
8
CUT
10
44.8682
20
65.9039
0
VERTEX
8
CUT
10
46.8
20
64.8
0
VERTEX
8
CUT
10
55.2
20
64.8
0
VERTEX
8
CUT
10
57.1318
20
65.9039
0
SEQEND
0
POLYLINE
8
CUT
66
1
70
0
0
VERTEX
8
CUT
10
58.8682
20
66.8961
0
VERTEX
8
CUT
10
60.8
20
68
0
VERTEX
8
CUT
10
69.2
20
68
0
VERTEX
8
CUT
10
71.1318
20
66.8961
0
SEQEND
0
POLYLINE
8
CUT
66
1
70
0
0
VERTEX
8
CUT
10
58.8682
20
65.9039
0
VERTEX
8
CUT
10
60.8
20
64.8
0
VERTEX
8
CUT
10
69.2
20
64.8
0
VERTEX
8
CUT
10
71.1318
20
65.9039
0
SEQEND
0
POLYLINE
8
CUT
66
1
70
0
0
VERTEX
8
CUT
10
72.8682
20
66.8961
0
VERTEX
8
CUT
10
74.8
20
68
0
VERTEX
8
CUT
10
83.2
20
68
0
VERTEX
8
CUT
10
85.1318
20
66.8961
0
SEQEND
0
POLYLINE
8
CUT
66
1
70
0
0
VERTEX
8
CUT
10
72.8682
20
65.9039
0
VERTEX
8
CUT
10
74.8
20
64.8
0
VERTEX
8
CUT
10
83.2
20
64.8
0
VERTEX
8
CUT
10
85.1318
20
65.9039
0
SEQEND
0
POLYLINE
8
CUT
66
1
70
0
0
VERTEX
8
CUT
10
86.8682
20
66.8961
0
VERTEX
8
CUT
10
88.8
20
68
0
VERTEX
8
CUT
10
97.2
20
68
0
VERTEX
8
CUT
10
99.1318
20
66.8961
0
SEQEND
0
POLYLINE
8
CUT
66
1
70
0
0
VERTEX
8
CUT
10
86.8682
20
65.9039
0
VERTEX
8
CUT
10
88.8
20
64.8
0
VERTEX
8
CUT
10
97.2
20
64.8
0
VERTEX
8
CUT
10
99.1318
20
65.9039
0
SEQEND
0
POLYLINE
8
CUT
66
1
70
0
0
VERTEX
8
CUT
10
100.8682
20
66.8961
0
VERTEX
8
CUT
10
102.8
20
68
0
VERTEX
8
CUT
10
111.2
20
68
0
VERTEX
8
CUT
10
113.1318
20
66.8961
0
SEQEND
0
POLYLINE
8
CUT
66
1
70
0
0
VERTEX
8
CUT
10
100.8682
20
65.9039
0
VERTEX
8
CUT
10
102.8
20
64.8
0
VERTEX
8
CUT
10
111.2
20
64.8
0
VERTEX
8
CUT
10
113.1318
20
65.9039
0
SEQEND
0
POLYLINE
8
CUT
66
1
70
0
0
VERTEX
8
CUT
10
114.8682
20
66.8961
0
VERTEX
8
CUT
10
116.8
20
68
0
VERTEX
8
CUT
10
118
20
68
0
SEQEND
0
POLYLINE
8
CUT
66
1
70
0
0
VERTEX
8
CUT
10
114.8682
20
65.9039
0
VERTEX
8
CUT
10
116.8
20
64.8
0
VERTEX
8
CUT
10
118
20
64.8
0
SEQEND
0
POLYLINE
8
CUT
66
1
70
0
0
VERTEX
8
CUT
10
2
20
63.5
0
VERTEX
8
CUT
10
6.2
20
63.5
0
VERTEX
8
CUT
10
8.1318
20
62.3961
0
SEQEND
0
POLYLINE
8
CUT
66
1
70
0
0
VERTEX
8
CUT
10
2
20
60.3
0
VERTEX
8
CUT
10
6.2
20
60.3
0
VERTEX
8
CUT
10
8.1318
20
61.4039
0
SEQEND
0
POLYLINE
8
CUT
66
1
70
0
0
VERTEX
8
CUT
10
9.8682
20
62.3961
0
VERTEX
8
CUT
10
11.8
20
63.5
0
VERTEX
8
CUT
10
20.2
20
63.5
0
VERTEX
8
CUT
10
22.1318
20
62.3961
0
SEQEND
0
POLYLINE
8
CUT
66
1
70
0
0
VERTEX
8
CUT
10
9.8682
20
61.4039
0
VERTEX
8
CUT
10
11.8
20
60.3
0
VERTEX
8
CUT
10
20.2
20
60.3
0
VERTEX
8
CUT
10
22.1318
20
61.4039
0
SEQEND
0
POLYLINE
8
CUT
66
1
70
0
0
VERTEX
8
CUT
10
23.8682
20
62.3961
0
VERTEX
8
CUT
10
25.8
20
63.5
0
VERTEX
8
CUT
10
34.2
20
63.5
0
VERTEX
8
CUT
10
36.1318
20
62.3961
0
SEQEND
0
POLYLINE
8
CUT
66
1
70
0
0
VERTEX
8
CUT
10
23.8682
20
61.4039
0
VERTEX
8
CUT
10
25.8
20
60.3
0
VERTEX
8
CUT
10
34.2
20
60.3
0
VERTEX
8
CUT
10
36.1318
20
61.4039
0
SEQEND
0
POLYLINE
8
CUT
66
1
70
0
0
VERTEX
8
CUT
10
37.8682
20
62.3961
0
VERTEX
8
CUT
10
39.8
20
63.5
0
VERTEX
8
CUT
10
48.2
20
63.5
0
VERTEX
8
CUT
10
50.1318
20
62.3961
0
SEQEND
0
POLYLINE
8
CUT
66
1
70
0
0
VERTEX
8
CUT
10
37.8682
20
61.4039
0
VERTEX
8
CUT
10
39.8
20
60.3
0
VERTEX
8
CUT
10
48.2
20
60.3
0
VERTEX
8
CUT
10
50.1318
20
61.4039
0
SEQEND
0
POLYLINE
8
CUT
66
1
70
0
0
VERTEX
8
CUT
10
51.8682
20
62.3961
0
VERTEX
8
CUT
10
53.8
20
63.5
0
VERTEX
8
CUT
10
62.2
20
63.5
0
VERTEX
8
CUT
10
64.1318
20
62.3961
0
SEQEND
0
POLYLINE
8
CUT
66
1
70
0
0
VERTEX
8
CUT
10
51.8682
20
61.4039
0
VERTEX
8
CUT
10
53.8
20
60.3
0
VERTEX
8
CUT
10
62.2
20
60.3
0
VERTEX
8
CUT
10
64.1318
20
61.4039
0
SEQEND
0
POLYLINE
8
CUT
66
1
70
0
0
VERTEX
8
CUT
10
65.8682
20
62.3961
0
VERTEX
8
CUT
10
67.8
20
63.5
0
VERTEX
8
CUT
10
76.2
20
63.5
0
VERTEX
8
CUT
10
78.1318
20
62.3961
0
SEQEND
0
POLYLINE
8
CUT
66
1
70
0
0
VERTEX
8
CUT
10
65.8682
20
61.4039
0
VERTEX
8
CUT
10
67.8
20
60.3
0
VERTEX
8
CUT
10
76.2
20
60.3
0
VERTEX
8
CUT
10
78.1318
20
61.4039
0
SEQEND
0
POLYLINE
8
CUT
66
1
70
0
0
VERTEX
8
CUT
10
79.8682
20
62.3961
0
VERTEX
8
CUT
10
81.8
20
63.5
0
VERTEX
8
CUT
10
90.2
20
63.5
0
VERTEX
8
CUT
10
92.1318
20
62.3961
0
SEQEND
0
POLYLINE
8
CUT
66
1
70
0
0
VERTEX
8
CUT
10
79.8682
20
61.4039
0
VERTEX
8
CUT
10
81.8
20
60.3
0
VERTEX
8
CUT
10
90.2
20
60.3
0
VERTEX
8
CUT
10
92.1318
20
61.4039
0
SEQEND
0
POLYLINE
8
CUT
66
1
70
0
0
VERTEX
8
CUT
10
93.8682
20
62.3961
0
VERTEX
8
CUT
10
95.8
20
63.5
0
VERTEX
8
CUT
10
104.2
20
63.5
0
VERTEX
8
CUT
10
106.1318
20
62.3961
0
SEQEND
0
POLYLINE
8
CUT
66
1
70
0
0
VERTEX
8
CUT
10
93.8682
20
61.4039
0
VERTEX
8
CUT
10
95.8
20
60.3
0
VERTEX
8
CUT
10
104.2
20
60.3
0
VERTEX
8
CUT
10
106.1318
20
61.4039
0
SEQEND
0
POLYLINE
8
CUT
66
1
70
0
0
VERTEX
8
CUT
10
107.8682
20
62.3961
0
VERTEX
8
CUT
10
109.8
20
63.5
0
VERTEX
8
CUT
10
118
20
63.5
0
SEQEND
0
POLYLINE
8
CUT
66
1
70
0
0
VERTEX
8
CUT
10
107.8682
20
61.4039
0
VERTEX
8
CUT
10
109.8
20
60.3
0
VERTEX
8
CUT
10
118
20
60.3
0
SEQEND
0
POLYLINE
8
CUT
66
1
70
0
0
VERTEX
8
CUT
10
2.8682
20
57.8961
0
VERTEX
8
CUT
10
4.8
20
59
0
VERTEX
8
CUT
10
13.2
20
59
0
VERTEX
8
CUT
10
15.1318
20
57.8961
0
SEQEND
0
POLYLINE
8
CUT
66
1
70
0
0
VERTEX
8
CUT
10
2.8682
20
56.9039
0
VERTEX
8
CUT
10
4.8
20
55.8
0
VERTEX
8
CUT
10
13.2
20
55.8
0
VERTEX
8
CUT
10
15.1318
20
56.9039
0
SEQEND
0
POLYLINE
8
CUT
66
1
70
0
0
VERTEX
8
CUT
10
16.8682
20
57.8961
0
VERTEX
8
CUT
10
18.8
20
59
0
VERTEX
8
CUT
10
27.2
20
59
0
VERTEX
8
CUT
10
29.1318
20
57.8961
0
SEQEND
0
POLYLINE
8
CUT
66
1
70
0
0
VERTEX
8
CUT
10
16.8682
20
56.9039
0
VERTEX
8
CUT
10
18.8
20
55.8
0
VERTEX
8
CUT
10
27.2
20
55.8
0
VERTEX
8
CUT
10
29.1318
20
56.9039
0
SEQEND
0
POLYLINE
8
CUT
66
1
70
0
0
VERTEX
8
CUT
10
30.8682
20
57.8961
0
VERTEX
8
CUT
10
32.8
20
59
0
VERTEX
8
CUT
10
41.2
20
59
0
VERTEX
8
CUT
10
43.1318
20
57.8961
0
SEQEND
0
POLYLINE
8
CUT
66
1
70
0
0
VERTEX
8
CUT
10
30.8682
20
56.9039
0
VERTEX
8
CUT
10
32.8
20
55.8
0
VERTEX
8
CUT
10
41.2
20
55.8
0
VERTEX
8
CUT
10
43.1318
20
56.9039
0
SEQEND
0
POLYLINE
8
CUT
66
1
70
0
0
VERTEX
8
CUT
10
44.8682
20
57.8961
0
VERTEX
8
CUT
10
46.8
20
59
0
VERTEX
8
CUT
10
55.2
20
59
0
VERTEX
8
CUT
10
57.1318
20
57.8961
0
SEQEND
0
POLYLINE
8
CUT
66
1
70
0
0
VERTEX
8
CUT
10
44.8682
20
56.9039
0
VERTEX
8
CUT
10
46.8
20
55.8
0
VERTEX
8
CUT
10
55.2
20
55.8
0
VERTEX
8
CUT
10
57.1318
20
56.9039
0
SEQEND
0
POLYLINE
8
CUT
66
1
70
0
0
VERTEX
8
CUT
10
58.8682
20
57.8961
0
VERTEX
8
CUT
10
60.8
20
59
0
VERTEX
8
CUT
10
69.2
20
59
0
VERTEX
8
CUT
10
71.1318
20
57.8961
0
SEQEND
0
POLYLINE
8
CUT
66
1
70
0
0
VERTEX
8
CUT
10
58.8682
20
56.9039
0
VERTEX
8
CUT
10
60.8
20
55.8
0
VERTEX
8
CUT
10
69.2
20
55.8
0
VERTEX
8
CUT
10
71.1318
20
56.9039
0
SEQEND
0
POLYLINE
8
CUT
66
1
70
0
0
VERTEX
8
CUT
10
72.8682
20
57.8961
0
VERTEX
8
CUT
10
74.8
20
59
0
VERTEX
8
CUT
10
83.2
20
59
0
VERTEX
8
CUT
10
85.1318
20
57.8961
0
SEQEND
0
POLYLINE
8
CUT
66
1
70
0
0
VERTEX
8
CUT
10
72.8682
20
56.9039
0
VERTEX
8
CUT
10
74.8
20
55.8
0
VERTEX
8
CUT
10
83.2
20
55.8
0
VERTEX
8
CUT
10
85.1318
20
56.9039
0
SEQEND
0
POLYLINE
8
CUT
66
1
70
0
0
VERTEX
8
CUT
10
86.8682
20
57.8961
0
VERTEX
8
CUT
10
88.8
20
59
0
VERTEX
8
CUT
10
97.2
20
59
0
VERTEX
8
CUT
10
99.1318
20
57.8961
0
SEQEND
0
POLYLINE
8
CUT
66
1
70
0
0
VERTEX
8
CUT
10
86.8682
20
56.9039
0
VERTEX
8
CUT
10
88.8
20
55.8
0
VERTEX
8
CUT
10
97.2
20
55.8
0
VERTEX
8
CUT
10
99.1318
20
56.9039
0
SEQEND
0
POLYLINE
8
CUT
66
1
70
0
0
VERTEX
8
CUT
10
100.8682
20
57.8961
0
VERTEX
8
CUT
10
102.8
20
59
0
VERTEX
8
CUT
10
111.2
20
59
0
VERTEX
8
CUT
10
113.1318
20
57.8961
0
SEQEND
0
POLYLINE
8
CUT
66
1
70
0
0
VERTEX
8
CUT
10
100.8682
20
56.9039
0
VERTEX
8
CUT
10
102.8
20
55.8
0
VERTEX
8
CUT
10
111.2
20
55.8
0
VERTEX
8
CUT
10
113.1318
20
56.9039
0
SEQEND
0
POLYLINE
8
CUT
66
1
70
0
0
VERTEX
8
CUT
10
114.8682
20
57.8961
0
VERTEX
8
CUT
10
116.8
20
59
0
VERTEX
8
CUT
10
118
20
59
0
SEQEND
0
POLYLINE
8
CUT
66
1
70
0
0
VERTEX
8
CUT
10
114.8682
20
56.9039
0
VERTEX
8
CUT
10
116.8
20
55.8
0
VERTEX
8
CUT
10
118
20
55.8
0
SEQEND
0
POLYLINE
8
CUT
66
1
70
0
0
VERTEX
8
CUT
10
2
20
54.5
0
VERTEX
8
CUT
10
6.2
20
54.5
0
VERTEX
8
CUT
10
8.1318
20
53.3961
0
SEQEND
0
POLYLINE
8
CUT
66
1
70
0
0
VERTEX
8
CUT
10
2
20
51.3
0
VERTEX
8
CUT
10
6.2
20
51.3
0
VERTEX
8
CUT
10
8.1318
20
52.4039
0
SEQEND
0
POLYLINE
8
CUT
66
1
70
0
0
VERTEX
8
CUT
10
9.8682
20
53.3961
0
VERTEX
8
CUT
10
11.8
20
54.5
0
VERTEX
8
CUT
10
20.2
20
54.5
0
VERTEX
8
CUT
10
22.1318
20
53.3961
0
SEQEND
0
POLYLINE
8
CUT
66
1
70
0
0
VERTEX
8
CUT
10
9.8682
20
52.4039
0
VERTEX
8
CUT
10
11.8
20
51.3
0
VERTEX
8
CUT
10
20.2
20
51.3
0
VERTEX
8
CUT
10
22.1318
20
52.4039
0
SEQEND
0
POLYLINE
8
CUT
66
1
70
0
0
VERTEX
8
CUT
10
23.8682
20
53.3961
0
VERTEX
8
CUT
10
25.8
20
54.5
0
VERTEX
8
CUT
10
34.2
20
54.5
0
VERTEX
8
CUT
10
36.1318
20
53.3961
0
SEQEND
0
POLYLINE
8
CUT
66
1
70
0
0
VERTEX
8
CUT
10
23.8682
20
52.4039
0
VERTEX
8
CUT
10
25.8
20
51.3
0
VERTEX
8
CUT
10
34.2
20
51.3
0
VERTEX
8
CUT
10
36.1318
20
52.4039
0
SEQEND
0
POLYLINE
8
CUT
66
1
70
0
0
VERTEX
8
CUT
10
37.8682
20
53.3961
0
VERTEX
8
CUT
10
39.8
20
54.5
0
VERTEX
8
CUT
10
48.2
20
54.5
0
VERTEX
8
CUT
10
50.1318
20
53.3961
0
SEQEND
0
POLYLINE
8
CUT
66
1
70
0
0
VERTEX
8
CUT
10
37.8682
20
52.4039
0
VERTEX
8
CUT
10
39.8
20
51.3
0
VERTEX
8
CUT
10
48.2
20
51.3
0
VERTEX
8
CUT
10
50.1318
20
52.4039
0
SEQEND
0
POLYLINE
8
CUT
66
1
70
0
0
VERTEX
8
CUT
10
51.8682
20
53.3961
0
VERTEX
8
CUT
10
53.8
20
54.5
0
VERTEX
8
CUT
10
62.2
20
54.5
0
VERTEX
8
CUT
10
64.1318
20
53.3961
0
SEQEND
0
POLYLINE
8
CUT
66
1
70
0
0
VERTEX
8
CUT
10
51.8682
20
52.4039
0
VERTEX
8
CUT
10
53.8
20
51.3
0
VERTEX
8
CUT
10
62.2
20
51.3
0
VERTEX
8
CUT
10
64.1318
20
52.4039
0
SEQEND
0
POLYLINE
8
CUT
66
1
70
0
0
VERTEX
8
CUT
10
65.8682
20
53.3961
0
VERTEX
8
CUT
10
67.8
20
54.5
0
VERTEX
8
CUT
10
76.2
20
54.5
0
VERTEX
8
CUT
10
78.1318
20
53.3961
0
SEQEND
0
POLYLINE
8
CUT
66
1
70
0
0
VERTEX
8
CUT
10
65.8682
20
52.4039
0
VERTEX
8
CUT
10
67.8
20
51.3
0
VERTEX
8
CUT
10
76.2
20
51.3
0
VERTEX
8
CUT
10
78.1318
20
52.4039
0
SEQEND
0
POLYLINE
8
CUT
66
1
70
0
0
VERTEX
8
CUT
10
79.8682
20
53.3961
0
VERTEX
8
CUT
10
81.8
20
54.5
0
VERTEX
8
CUT
10
90.2
20
54.5
0
VERTEX
8
CUT
10
92.1318
20
53.3961
0
SEQEND
0
POLYLINE
8
CUT
66
1
70
0
0
VERTEX
8
CUT
10
79.8682
20
52.4039
0
VERTEX
8
CUT
10
81.8
20
51.3
0
VERTEX
8
CUT
10
90.2
20
51.3
0
VERTEX
8
CUT
10
92.1318
20
52.4039
0
SEQEND
0
POLYLINE
8
CUT
66
1
70
0
0
VERTEX
8
CUT
10
93.8682
20
53.3961
0
VERTEX
8
CUT
10
95.8
20
54.5
0
VERTEX
8
CUT
10
104.2
20
54.5
0
VERTEX
8
CUT
10
106.1318
20
53.3961
0
SEQEND
0
POLYLINE
8
CUT
66
1
70
0
0
VERTEX
8
CUT
10
93.8682
20
52.4039
0
VERTEX
8
CUT
10
95.8
20
51.3
0
VERTEX
8
CUT
10
104.2
20
51.3
0
VERTEX
8
CUT
10
106.1318
20
52.4039
0
SEQEND
0
POLYLINE
8
CUT
66
1
70
0
0
VERTEX
8
CUT
10
107.8682
20
53.3961
0
VERTEX
8
CUT
10
109.8
20
54.5
0
VERTEX
8
CUT
10
118
20
54.5
0
SEQEND
0
POLYLINE
8
CUT
66
1
70
0
0
VERTEX
8
CUT
10
107.8682
20
52.4039
0
VERTEX
8
CUT
10
109.8
20
51.3
0
VERTEX
8
CUT
10
118
20
51.3
0
SEQEND
0
POLYLINE
8
CUT
66
1
70
0
0
VERTEX
8
CUT
10
2.8682
20
48.8961
0
VERTEX
8
CUT
10
4.8
20
50
0
VERTEX
8
CUT
10
13.2
20
50
0
VERTEX
8
CUT
10
15.1318
20
48.8961
0
SEQEND
0
POLYLINE
8
CUT
66
1
70
0
0
VERTEX
8
CUT
10
2.8682
20
47.9039
0
VERTEX
8
CUT
10
4.8
20
46.8
0
VERTEX
8
CUT
10
13.2
20
46.8
0
VERTEX
8
CUT
10
15.1318
20
47.9039
0
SEQEND
0
POLYLINE
8
CUT
66
1
70
0
0
VERTEX
8
CUT
10
16.8682
20
48.8961
0
VERTEX
8
CUT
10
18.8
20
50
0
VERTEX
8
CUT
10
27.2
20
50
0
VERTEX
8
CUT
10
29.1318
20
48.8961
0
SEQEND
0
POLYLINE
8
CUT
66
1
70
0
0
VERTEX
8
CUT
10
16.8682
20
47.9039
0
VERTEX
8
CUT
10
18.8
20
46.8
0
VERTEX
8
CUT
10
27.2
20
46.8
0
VERTEX
8
CUT
10
29.1318
20
47.9039
0
SEQEND
0
POLYLINE
8
CUT
66
1
70
0
0
VERTEX
8
CUT
10
30.8682
20
48.8961
0
VERTEX
8
CUT
10
32.8
20
50
0
VERTEX
8
CUT
10
41.2
20
50
0
VERTEX
8
CUT
10
43.1318
20
48.8961
0
SEQEND
0
POLYLINE
8
CUT
66
1
70
0
0
VERTEX
8
CUT
10
30.8682
20
47.9039
0
VERTEX
8
CUT
10
32.8
20
46.8
0
VERTEX
8
CUT
10
41.2
20
46.8
0
VERTEX
8
CUT
10
43.1318
20
47.9039
0
SEQEND
0
POLYLINE
8
CUT
66
1
70
0
0
VERTEX
8
CUT
10
44.8682
20
48.8961
0
VERTEX
8
CUT
10
46.8
20
50
0
VERTEX
8
CUT
10
55.2
20
50
0
VERTEX
8
CUT
10
57.1318
20
48.8961
0
SEQEND
0
POLYLINE
8
CUT
66
1
70
0
0
VERTEX
8
CUT
10
44.8682
20
47.9039
0
VERTEX
8
CUT
10
46.8
20
46.8
0
VERTEX
8
CUT
10
55.2
20
46.8
0
VERTEX
8
CUT
10
57.1318
20
47.9039
0
SEQEND
0
POLYLINE
8
CUT
66
1
70
0
0
VERTEX
8
CUT
10
58.8682
20
48.8961
0
VERTEX
8
CUT
10
60.8
20
50
0
VERTEX
8
CUT
10
69.2
20
50
0
VERTEX
8
CUT
10
71.1318
20
48.8961
0
SEQEND
0
POLYLINE
8
CUT
66
1
70
0
0
VERTEX
8
CUT
10
58.8682
20
47.9039
0
VERTEX
8
CUT
10
60.8
20
46.8
0
VERTEX
8
CUT
10
69.2
20
46.8
0
VERTEX
8
CUT
10
71.1318
20
47.9039
0
SEQEND
0
POLYLINE
8
CUT
66
1
70
0
0
VERTEX
8
CUT
10
72.8682
20
48.8961
0
VERTEX
8
CUT
10
74.8
20
50
0
VERTEX
8
CUT
10
83.2
20
50
0
VERTEX
8
CUT
10
85.1318
20
48.8961
0
SEQEND
0
POLYLINE
8
CUT
66
1
70
0
0
VERTEX
8
CUT
10
72.8682
20
47.9039
0
VERTEX
8
CUT
10
74.8
20
46.8
0
VERTEX
8
CUT
10
83.2
20
46.8
0
VERTEX
8
CUT
10
85.1318
20
47.9039
0
SEQEND
0
POLYLINE
8
CUT
66
1
70
0
0
VERTEX
8
CUT
10
86.8682
20
48.8961
0
VERTEX
8
CUT
10
88.8
20
50
0
VERTEX
8
CUT
10
97.2
20
50
0
VERTEX
8
CUT
10
99.1318
20
48.8961
0
SEQEND
0
POLYLINE
8
CUT
66
1
70
0
0
VERTEX
8
CUT
10
86.8682
20
47.9039
0
VERTEX
8
CUT
10
88.8
20
46.8
0
VERTEX
8
CUT
10
97.2
20
46.8
0
VERTEX
8
CUT
10
99.1318
20
47.9039
0
SEQEND
0
POLYLINE
8
CUT
66
1
70
0
0
VERTEX
8
CUT
10
100.8682
20
48.8961
0
VERTEX
8
CUT
10
102.8
20
50
0
VERTEX
8
CUT
10
111.2
20
50
0
VERTEX
8
CUT
10
113.1318
20
48.8961
0
SEQEND
0
POLYLINE
8
CUT
66
1
70
0
0
VERTEX
8
CUT
10
100.8682
20
47.9039
0
VERTEX
8
CUT
10
102.8
20
46.8
0
VERTEX
8
CUT
10
111.2
20
46.8
0
VERTEX
8
CUT
10
113.1318
20
47.9039
0
SEQEND
0
POLYLINE
8
CUT
66
1
70
0
0
VERTEX
8
CUT
10
114.8682
20
48.8961
0
VERTEX
8
CUT
10
116.8
20
50
0
VERTEX
8
CUT
10
118
20
50
0
SEQEND
0
POLYLINE
8
CUT
66
1
70
0
0
VERTEX
8
CUT
10
114.8682
20
47.9039
0
VERTEX
8
CUT
10
116.8
20
46.8
0
VERTEX
8
CUT
10
118
20
46.8
0
SEQEND
0
POLYLINE
8
CUT
66
1
70
0
0
VERTEX
8
CUT
10
2
20
45.5
0
VERTEX
8
CUT
10
6.2
20
45.5
0
VERTEX
8
CUT
10
8.1318
20
44.3961
0
SEQEND
0
POLYLINE
8
CUT
66
1
70
0
0
VERTEX
8
CUT
10
2
20
42.3
0
VERTEX
8
CUT
10
6.2
20
42.3
0
VERTEX
8
CUT
10
8.1318
20
43.4039
0
SEQEND
0
POLYLINE
8
CUT
66
1
70
0
0
VERTEX
8
CUT
10
9.8682
20
44.3961
0
VERTEX
8
CUT
10
11.8
20
45.5
0
VERTEX
8
CUT
10
20.2
20
45.5
0
VERTEX
8
CUT
10
22.1318
20
44.3961
0
SEQEND
0
POLYLINE
8
CUT
66
1
70
0
0
VERTEX
8
CUT
10
9.8682
20
43.4039
0
VERTEX
8
CUT
10
11.8
20
42.3
0
VERTEX
8
CUT
10
20.2
20
42.3
0
VERTEX
8
CUT
10
22.1318
20
43.4039
0
SEQEND
0
POLYLINE
8
CUT
66
1
70
0
0
VERTEX
8
CUT
10
23.8682
20
44.3961
0
VERTEX
8
CUT
10
25.8
20
45.5
0
VERTEX
8
CUT
10
34.2
20
45.5
0
VERTEX
8
CUT
10
36.1318
20
44.3961
0
SEQEND
0
POLYLINE
8
CUT
66
1
70
0
0
VERTEX
8
CUT
10
23.8682
20
43.4039
0
VERTEX
8
CUT
10
25.8
20
42.3
0
VERTEX
8
CUT
10
34.2
20
42.3
0
VERTEX
8
CUT
10
36.1318
20
43.4039
0
SEQEND
0
POLYLINE
8
CUT
66
1
70
0
0
VERTEX
8
CUT
10
37.8682
20
44.3961
0
VERTEX
8
CUT
10
39.8
20
45.5
0
VERTEX
8
CUT
10
48.2
20
45.5
0
VERTEX
8
CUT
10
50.1318
20
44.3961
0
SEQEND
0
POLYLINE
8
CUT
66
1
70
0
0
VERTEX
8
CUT
10
37.8682
20
43.4039
0
VERTEX
8
CUT
10
39.8
20
42.3
0
VERTEX
8
CUT
10
48.2
20
42.3
0
VERTEX
8
CUT
10
50.1318
20
43.4039
0
SEQEND
0
POLYLINE
8
CUT
66
1
70
0
0
VERTEX
8
CUT
10
51.8682
20
44.3961
0
VERTEX
8
CUT
10
53.8
20
45.5
0
VERTEX
8
CUT
10
62.2
20
45.5
0
VERTEX
8
CUT
10
64.1318
20
44.3961
0
SEQEND
0
POLYLINE
8
CUT
66
1
70
0
0
VERTEX
8
CUT
10
51.8682
20
43.4039
0
VERTEX
8
CUT
10
53.8
20
42.3
0
VERTEX
8
CUT
10
62.2
20
42.3
0
VERTEX
8
CUT
10
64.1318
20
43.4039
0
SEQEND
0
POLYLINE
8
CUT
66
1
70
0
0
VERTEX
8
CUT
10
65.8682
20
44.3961
0
VERTEX
8
CUT
10
67.8
20
45.5
0
VERTEX
8
CUT
10
76.2
20
45.5
0
VERTEX
8
CUT
10
78.1318
20
44.3961
0
SEQEND
0
POLYLINE
8
CUT
66
1
70
0
0
VERTEX
8
CUT
10
65.8682
20
43.4039
0
VERTEX
8
CUT
10
67.8
20
42.3
0
VERTEX
8
CUT
10
76.2
20
42.3
0
VERTEX
8
CUT
10
78.1318
20
43.4039
0
SEQEND
0
POLYLINE
8
CUT
66
1
70
0
0
VERTEX
8
CUT
10
79.8682
20
44.3961
0
VERTEX
8
CUT
10
81.8
20
45.5
0
VERTEX
8
CUT
10
90.2
20
45.5
0
VERTEX
8
CUT
10
92.1318
20
44.3961
0
SEQEND
0
POLYLINE
8
CUT
66
1
70
0
0
VERTEX
8
CUT
10
79.8682
20
43.4039
0
VERTEX
8
CUT
10
81.8
20
42.3
0
VERTEX
8
CUT
10
90.2
20
42.3
0
VERTEX
8
CUT
10
92.1318
20
43.4039
0
SEQEND
0
POLYLINE
8
CUT
66
1
70
0
0
VERTEX
8
CUT
10
93.8682
20
44.3961
0
VERTEX
8
CUT
10
95.8
20
45.5
0
VERTEX
8
CUT
10
104.2
20
45.5
0
VERTEX
8
CUT
10
106.1318
20
44.3961
0
SEQEND
0
POLYLINE
8
CUT
66
1
70
0
0
VERTEX
8
CUT
10
93.8682
20
43.4039
0
VERTEX
8
CUT
10
95.8
20
42.3
0
VERTEX
8
CUT
10
104.2
20
42.3
0
VERTEX
8
CUT
10
106.1318
20
43.4039
0
SEQEND
0
POLYLINE
8
CUT
66
1
70
0
0
VERTEX
8
CUT
10
107.8682
20
44.3961
0
VERTEX
8
CUT
10
109.8
20
45.5
0
VERTEX
8
CUT
10
118
20
45.5
0
SEQEND
0
POLYLINE
8
CUT
66
1
70
0
0
VERTEX
8
CUT
10
107.8682
20
43.4039
0
VERTEX
8
CUT
10
109.8
20
42.3
0
VERTEX
8
CUT
10
118
20
42.3
0
SEQEND
0
POLYLINE
8
CUT
66
1
70
0
0
VERTEX
8
CUT
10
2.8682
20
39.8961
0
VERTEX
8
CUT
10
4.8
20
41
0
VERTEX
8
CUT
10
13.2
20
41
0
VERTEX
8
CUT
10
15.1318
20
39.8961
0
SEQEND
0
POLYLINE
8
CUT
66
1
70
0
0
VERTEX
8
CUT
10
2.8682
20
38.9039
0
VERTEX
8
CUT
10
4.8
20
37.8
0
VERTEX
8
CUT
10
13.2
20
37.8
0
VERTEX
8
CUT
10
15.1318
20
38.9039
0
SEQEND
0
POLYLINE
8
CUT
66
1
70
0
0
VERTEX
8
CUT
10
16.8682
20
39.8961
0
VERTEX
8
CUT
10
18.8
20
41
0
VERTEX
8
CUT
10
27.2
20
41
0
VERTEX
8
CUT
10
29.1318
20
39.8961
0
SEQEND
0
POLYLINE
8
CUT
66
1
70
0
0
VERTEX
8
CUT
10
16.8682
20
38.9039
0
VERTEX
8
CUT
10
18.8
20
37.8
0
VERTEX
8
CUT
10
27.2
20
37.8
0
VERTEX
8
CUT
10
29.1318
20
38.9039
0
SEQEND
0
POLYLINE
8
CUT
66
1
70
0
0
VERTEX
8
CUT
10
30.8682
20
39.8961
0
VERTEX
8
CUT
10
32.8
20
41
0
VERTEX
8
CUT
10
41.2
20
41
0
VERTEX
8
CUT
10
43.1318
20
39.8961
0
SEQEND
0
POLYLINE
8
CUT
66
1
70
0
0
VERTEX
8
CUT
10
30.8682
20
38.9039
0
VERTEX
8
CUT
10
32.8
20
37.8
0
VERTEX
8
CUT
10
41.2
20
37.8
0
VERTEX
8
CUT
10
43.1318
20
38.9039
0
SEQEND
0
POLYLINE
8
CUT
66
1
70
0
0
VERTEX
8
CUT
10
44.8682
20
39.8961
0
VERTEX
8
CUT
10
46.8
20
41
0
VERTEX
8
CUT
10
55.2
20
41
0
VERTEX
8
CUT
10
57.1318
20
39.8961
0
SEQEND
0
POLYLINE
8
CUT
66
1
70
0
0
VERTEX
8
CUT
10
44.8682
20
38.9039
0
VERTEX
8
CUT
10
46.8
20
37.8
0
VERTEX
8
CUT
10
55.2
20
37.8
0
VERTEX
8
CUT
10
57.1318
20
38.9039
0
SEQEND
0
POLYLINE
8
CUT
66
1
70
0
0
VERTEX
8
CUT
10
58.8682
20
39.8961
0
VERTEX
8
CUT
10
60.8
20
41
0
VERTEX
8
CUT
10
69.2
20
41
0
VERTEX
8
CUT
10
71.1318
20
39.8961
0
SEQEND
0
POLYLINE
8
CUT
66
1
70
0
0
VERTEX
8
CUT
10
58.8682
20
38.9039
0
VERTEX
8
CUT
10
60.8
20
37.8
0
VERTEX
8
CUT
10
69.2
20
37.8
0
VERTEX
8
CUT
10
71.1318
20
38.9039
0
SEQEND
0
POLYLINE
8
CUT
66
1
70
0
0
VERTEX
8
CUT
10
72.8682
20
39.8961
0
VERTEX
8
CUT
10
74.8
20
41
0
VERTEX
8
CUT
10
83.2
20
41
0
VERTEX
8
CUT
10
85.1318
20
39.8961
0
SEQEND
0
POLYLINE
8
CUT
66
1
70
0
0
VERTEX
8
CUT
10
72.8682
20
38.9039
0
VERTEX
8
CUT
10
74.8
20
37.8
0
VERTEX
8
CUT
10
83.2
20
37.8
0
VERTEX
8
CUT
10
85.1318
20
38.9039
0
SEQEND
0
POLYLINE
8
CUT
66
1
70
0
0
VERTEX
8
CUT
10
86.8682
20
39.8961
0
VERTEX
8
CUT
10
88.8
20
41
0
VERTEX
8
CUT
10
97.2
20
41
0
VERTEX
8
CUT
10
99.1318
20
39.8961
0
SEQEND
0
POLYLINE
8
CUT
66
1
70
0
0
VERTEX
8
CUT
10
86.8682
20
38.9039
0
VERTEX
8
CUT
10
88.8
20
37.8
0
VERTEX
8
CUT
10
97.2
20
37.8
0
VERTEX
8
CUT
10
99.1318
20
38.9039
0
SEQEND
0
POLYLINE
8
CUT
66
1
70
0
0
VERTEX
8
CUT
10
100.8682
20
39.8961
0
VERTEX
8
CUT
10
102.8
20
41
0
VERTEX
8
CUT
10
111.2
20
41
0
VERTEX
8
CUT
10
113.1318
20
39.8961
0
SEQEND
0
POLYLINE
8
CUT
66
1
70
0
0
VERTEX
8
CUT
10
100.8682
20
38.9039
0
VERTEX
8
CUT
10
102.8
20
37.8
0
VERTEX
8
CUT
10
111.2
20
37.8
0
VERTEX
8
CUT
10
113.1318
20
38.9039
0
SEQEND
0
POLYLINE
8
CUT
66
1
70
0
0
VERTEX
8
CUT
10
114.8682
20
39.8961
0
VERTEX
8
CUT
10
116.8
20
41
0
VERTEX
8
CUT
10
118
20
41
0
SEQEND
0
POLYLINE
8
CUT
66
1
70
0
0
VERTEX
8
CUT
10
114.8682
20
38.9039
0
VERTEX
8
CUT
10
116.8
20
37.8
0
VERTEX
8
CUT
10
118
20
37.8
0
SEQEND
0
POLYLINE
8
CUT
66
1
70
0
0
VERTEX
8
CUT
10
2
20
36.5
0
VERTEX
8
CUT
10
6.2
20
36.5
0
VERTEX
8
CUT
10
8.1318
20
35.3961
0
SEQEND
0
POLYLINE
8
CUT
66
1
70
0
0
VERTEX
8
CUT
10
2
20
33.3
0
VERTEX
8
CUT
10
6.2
20
33.3
0
VERTEX
8
CUT
10
8.1318
20
34.4039
0
SEQEND
0
POLYLINE
8
CUT
66
1
70
0
0
VERTEX
8
CUT
10
9.8682
20
35.3961
0
VERTEX
8
CUT
10
11.8
20
36.5
0
VERTEX
8
CUT
10
20.2
20
36.5
0
VERTEX
8
CUT
10
22.1318
20
35.3961
0
SEQEND
0
POLYLINE
8
CUT
66
1
70
0
0
VERTEX
8
CUT
10
9.8682
20
34.4039
0
VERTEX
8
CUT
10
11.8
20
33.3
0
VERTEX
8
CUT
10
20.2
20
33.3
0
VERTEX
8
CUT
10
22.1318
20
34.4039
0
SEQEND
0
POLYLINE
8
CUT
66
1
70
0
0
VERTEX
8
CUT
10
23.8682
20
35.3961
0
VERTEX
8
CUT
10
25.8
20
36.5
0
VERTEX
8
CUT
10
34.2
20
36.5
0
VERTEX
8
CUT
10
36.1318
20
35.3961
0
SEQEND
0
POLYLINE
8
CUT
66
1
70
0
0
VERTEX
8
CUT
10
23.8682
20
34.4039
0
VERTEX
8
CUT
10
25.8
20
33.3
0
VERTEX
8
CUT
10
34.2
20
33.3
0
VERTEX
8
CUT
10
36.1318
20
34.4039
0
SEQEND
0
POLYLINE
8
CUT
66
1
70
0
0
VERTEX
8
CUT
10
37.8682
20
35.3961
0
VERTEX
8
CUT
10
39.8
20
36.5
0
VERTEX
8
CUT
10
48.2
20
36.5
0
VERTEX
8
CUT
10
50.1318
20
35.3961
0
SEQEND
0
POLYLINE
8
CUT
66
1
70
0
0
VERTEX
8
CUT
10
37.8682
20
34.4039
0
VERTEX
8
CUT
10
39.8
20
33.3
0
VERTEX
8
CUT
10
48.2
20
33.3
0
VERTEX
8
CUT
10
50.1318
20
34.4039
0
SEQEND
0
POLYLINE
8
CUT
66
1
70
0
0
VERTEX
8
CUT
10
51.8682
20
35.3961
0
VERTEX
8
CUT
10
53.8
20
36.5
0
VERTEX
8
CUT
10
62.2
20
36.5
0
VERTEX
8
CUT
10
64.1318
20
35.3961
0
SEQEND
0
POLYLINE
8
CUT
66
1
70
0
0
VERTEX
8
CUT
10
51.8682
20
34.4039
0
VERTEX
8
CUT
10
53.8
20
33.3
0
VERTEX
8
CUT
10
62.2
20
33.3
0
VERTEX
8
CUT
10
64.1318
20
34.4039
0
SEQEND
0
POLYLINE
8
CUT
66
1
70
0
0
VERTEX
8
CUT
10
65.8682
20
35.3961
0
VERTEX
8
CUT
10
67.8
20
36.5
0
VERTEX
8
CUT
10
76.2
20
36.5
0
VERTEX
8
CUT
10
78.1318
20
35.3961
0
SEQEND
0
POLYLINE
8
CUT
66
1
70
0
0
VERTEX
8
CUT
10
65.8682
20
34.4039
0
VERTEX
8
CUT
10
67.8
20
33.3
0
VERTEX
8
CUT
10
76.2
20
33.3
0
VERTEX
8
CUT
10
78.1318
20
34.4039
0
SEQEND
0
POLYLINE
8
CUT
66
1
70
0
0
VERTEX
8
CUT
10
79.8682
20
35.3961
0
VERTEX
8
CUT
10
81.8
20
36.5
0
VERTEX
8
CUT
10
90.2
20
36.5
0
VERTEX
8
CUT
10
92.1318
20
35.3961
0
SEQEND
0
POLYLINE
8
CUT
66
1
70
0
0
VERTEX
8
CUT
10
79.8682
20
34.4039
0
VERTEX
8
CUT
10
81.8
20
33.3
0
VERTEX
8
CUT
10
90.2
20
33.3
0
VERTEX
8
CUT
10
92.1318
20
34.4039
0
SEQEND
0
POLYLINE
8
CUT
66
1
70
0
0
VERTEX
8
CUT
10
93.8682
20
35.3961
0
VERTEX
8
CUT
10
95.8
20
36.5
0
VERTEX
8
CUT
10
104.2
20
36.5
0
VERTEX
8
CUT
10
106.1318
20
35.3961
0
SEQEND
0
POLYLINE
8
CUT
66
1
70
0
0
VERTEX
8
CUT
10
93.8682
20
34.4039
0
VERTEX
8
CUT
10
95.8
20
33.3
0
VERTEX
8
CUT
10
104.2
20
33.3
0
VERTEX
8
CUT
10
106.1318
20
34.4039
0
SEQEND
0
POLYLINE
8
CUT
66
1
70
0
0
VERTEX
8
CUT
10
107.8682
20
35.3961
0
VERTEX
8
CUT
10
109.8
20
36.5
0
VERTEX
8
CUT
10
118
20
36.5
0
SEQEND
0
POLYLINE
8
CUT
66
1
70
0
0
VERTEX
8
CUT
10
107.8682
20
34.4039
0
VERTEX
8
CUT
10
109.8
20
33.3
0
VERTEX
8
CUT
10
118
20
33.3
0
SEQEND
0
POLYLINE
8
CUT
66
1
70
0
0
VERTEX
8
CUT
10
2.8682
20
30.8961
0
VERTEX
8
CUT
10
4.8
20
32
0
VERTEX
8
CUT
10
13.2
20
32
0
VERTEX
8
CUT
10
15.1318
20
30.8961
0
SEQEND
0
POLYLINE
8
CUT
66
1
70
0
0
VERTEX
8
CUT
10
2.8682
20
29.9039
0
VERTEX
8
CUT
10
4.8
20
28.8
0
VERTEX
8
CUT
10
13.2
20
28.8
0
VERTEX
8
CUT
10
15.1318
20
29.9039
0
SEQEND
0
POLYLINE
8
CUT
66
1
70
0
0
VERTEX
8
CUT
10
16.8682
20
30.8961
0
VERTEX
8
CUT
10
18.8
20
32
0
VERTEX
8
CUT
10
27.2
20
32
0
VERTEX
8
CUT
10
29.1318
20
30.8961
0
SEQEND
0
POLYLINE
8
CUT
66
1
70
0
0
VERTEX
8
CUT
10
16.8682
20
29.9039
0
VERTEX
8
CUT
10
18.8
20
28.8
0
VERTEX
8
CUT
10
27.2
20
28.8
0
VERTEX
8
CUT
10
29.1318
20
29.9039
0
SEQEND
0
POLYLINE
8
CUT
66
1
70
0
0
VERTEX
8
CUT
10
30.8682
20
30.8961
0
VERTEX
8
CUT
10
32.8
20
32
0
VERTEX
8
CUT
10
41.2
20
32
0
VERTEX
8
CUT
10
43.1318
20
30.8961
0
SEQEND
0
POLYLINE
8
CUT
66
1
70
0
0
VERTEX
8
CUT
10
30.8682
20
29.9039
0
VERTEX
8
CUT
10
32.8
20
28.8
0
VERTEX
8
CUT
10
41.2
20
28.8
0
VERTEX
8
CUT
10
43.1318
20
29.9039
0
SEQEND
0
POLYLINE
8
CUT
66
1
70
0
0
VERTEX
8
CUT
10
44.8682
20
30.8961
0
VERTEX
8
CUT
10
46.8
20
32
0
VERTEX
8
CUT
10
55.2
20
32
0
VERTEX
8
CUT
10
57.1318
20
30.8961
0
SEQEND
0
POLYLINE
8
CUT
66
1
70
0
0
VERTEX
8
CUT
10
44.8682
20
29.9039
0
VERTEX
8
CUT
10
46.8
20
28.8
0
VERTEX
8
CUT
10
55.2
20
28.8
0
VERTEX
8
CUT
10
57.1318
20
29.9039
0
SEQEND
0
POLYLINE
8
CUT
66
1
70
0
0
VERTEX
8
CUT
10
58.8682
20
30.8961
0
VERTEX
8
CUT
10
60.8
20
32
0
VERTEX
8
CUT
10
69.2
20
32
0
VERTEX
8
CUT
10
71.1318
20
30.8961
0
SEQEND
0
POLYLINE
8
CUT
66
1
70
0
0
VERTEX
8
CUT
10
58.8682
20
29.9039
0
VERTEX
8
CUT
10
60.8
20
28.8
0
VERTEX
8
CUT
10
69.2
20
28.8
0
VERTEX
8
CUT
10
71.1318
20
29.9039
0
SEQEND
0
POLYLINE
8
CUT
66
1
70
0
0
VERTEX
8
CUT
10
72.8682
20
30.8961
0
VERTEX
8
CUT
10
74.8
20
32
0
VERTEX
8
CUT
10
83.2
20
32
0
VERTEX
8
CUT
10
85.1318
20
30.8961
0
SEQEND
0
POLYLINE
8
CUT
66
1
70
0
0
VERTEX
8
CUT
10
72.8682
20
29.9039
0
VERTEX
8
CUT
10
74.8
20
28.8
0
VERTEX
8
CUT
10
83.2
20
28.8
0
VERTEX
8
CUT
10
85.1318
20
29.9039
0
SEQEND
0
POLYLINE
8
CUT
66
1
70
0
0
VERTEX
8
CUT
10
86.8682
20
30.8961
0
VERTEX
8
CUT
10
88.8
20
32
0
VERTEX
8
CUT
10
97.2
20
32
0
VERTEX
8
CUT
10
99.1318
20
30.8961
0
SEQEND
0
POLYLINE
8
CUT
66
1
70
0
0
VERTEX
8
CUT
10
86.8682
20
29.9039
0
VERTEX
8
CUT
10
88.8
20
28.8
0
VERTEX
8
CUT
10
97.2
20
28.8
0
VERTEX
8
CUT
10
99.1318
20
29.9039
0
SEQEND
0
POLYLINE
8
CUT
66
1
70
0
0
VERTEX
8
CUT
10
100.8682
20
30.8961
0
VERTEX
8
CUT
10
102.8
20
32
0
VERTEX
8
CUT
10
111.2
20
32
0
VERTEX
8
CUT
10
113.1318
20
30.8961
0
SEQEND
0
POLYLINE
8
CUT
66
1
70
0
0
VERTEX
8
CUT
10
100.8682
20
29.9039
0
VERTEX
8
CUT
10
102.8
20
28.8
0
VERTEX
8
CUT
10
111.2
20
28.8
0
VERTEX
8
CUT
10
113.1318
20
29.9039
0
SEQEND
0
POLYLINE
8
CUT
66
1
70
0
0
VERTEX
8
CUT
10
114.8682
20
30.8961
0
VERTEX
8
CUT
10
116.8
20
32
0
VERTEX
8
CUT
10
118
20
32
0
SEQEND
0
POLYLINE
8
CUT
66
1
70
0
0
VERTEX
8
CUT
10
114.8682
20
29.9039
0
VERTEX
8
CUT
10
116.8
20
28.8
0
VERTEX
8
CUT
10
118
20
28.8
0
SEQEND
0
POLYLINE
8
CUT
66
1
70
0
0
VERTEX
8
CUT
10
2
20
27.5
0
VERTEX
8
CUT
10
6.2
20
27.5
0
VERTEX
8
CUT
10
8.1318
20
26.3961
0
SEQEND
0
POLYLINE
8
CUT
66
1
70
0
0
VERTEX
8
CUT
10
2
20
24.3
0
VERTEX
8
CUT
10
6.2
20
24.3
0
VERTEX
8
CUT
10
8.1318
20
25.4039
0
SEQEND
0
POLYLINE
8
CUT
66
1
70
0
0
VERTEX
8
CUT
10
9.8682
20
26.3961
0
VERTEX
8
CUT
10
11.8
20
27.5
0
VERTEX
8
CUT
10
20.2
20
27.5
0
VERTEX
8
CUT
10
22.1318
20
26.3961
0
SEQEND
0
POLYLINE
8
CUT
66
1
70
0
0
VERTEX
8
CUT
10
9.8682
20
25.4039
0
VERTEX
8
CUT
10
11.8
20
24.3
0
VERTEX
8
CUT
10
20.2
20
24.3
0
VERTEX
8
CUT
10
22.1318
20
25.4039
0
SEQEND
0
POLYLINE
8
CUT
66
1
70
0
0
VERTEX
8
CUT
10
23.8682
20
26.3961
0
VERTEX
8
CUT
10
25.8
20
27.5
0
VERTEX
8
CUT
10
34.2
20
27.5
0
VERTEX
8
CUT
10
36.1318
20
26.3961
0
SEQEND
0
POLYLINE
8
CUT
66
1
70
0
0
VERTEX
8
CUT
10
23.8682
20
25.4039
0
VERTEX
8
CUT
10
25.8
20
24.3
0
VERTEX
8
CUT
10
34.2
20
24.3
0
VERTEX
8
CUT
10
36.1318
20
25.4039
0
SEQEND
0
POLYLINE
8
CUT
66
1
70
0
0
VERTEX
8
CUT
10
37.8682
20
26.3961
0
VERTEX
8
CUT
10
39.8
20
27.5
0
VERTEX
8
CUT
10
48.2
20
27.5
0
VERTEX
8
CUT
10
50.1318
20
26.3961
0
SEQEND
0
POLYLINE
8
CUT
66
1
70
0
0
VERTEX
8
CUT
10
37.8682
20
25.4039
0
VERTEX
8
CUT
10
39.8
20
24.3
0
VERTEX
8
CUT
10
48.2
20
24.3
0
VERTEX
8
CUT
10
50.1318
20
25.4039
0
SEQEND
0
POLYLINE
8
CUT
66
1
70
0
0
VERTEX
8
CUT
10
51.8682
20
26.3961
0
VERTEX
8
CUT
10
53.8
20
27.5
0
VERTEX
8
CUT
10
62.2
20
27.5
0
VERTEX
8
CUT
10
64.1318
20
26.3961
0
SEQEND
0
POLYLINE
8
CUT
66
1
70
0
0
VERTEX
8
CUT
10
51.8682
20
25.4039
0
VERTEX
8
CUT
10
53.8
20
24.3
0
VERTEX
8
CUT
10
62.2
20
24.3
0
VERTEX
8
CUT
10
64.1318
20
25.4039
0
SEQEND
0
POLYLINE
8
CUT
66
1
70
0
0
VERTEX
8
CUT
10
65.8682
20
26.3961
0
VERTEX
8
CUT
10
67.8
20
27.5
0
VERTEX
8
CUT
10
76.2
20
27.5
0
VERTEX
8
CUT
10
78.1318
20
26.3961
0
SEQEND
0
POLYLINE
8
CUT
66
1
70
0
0
VERTEX
8
CUT
10
65.8682
20
25.4039
0
VERTEX
8
CUT
10
67.8
20
24.3
0
VERTEX
8
CUT
10
76.2
20
24.3
0
VERTEX
8
CUT
10
78.1318
20
25.4039
0
SEQEND
0
POLYLINE
8
CUT
66
1
70
0
0
VERTEX
8
CUT
10
79.8682
20
26.3961
0
VERTEX
8
CUT
10
81.8
20
27.5
0
VERTEX
8
CUT
10
90.2
20
27.5
0
VERTEX
8
CUT
10
92.1318
20
26.3961
0
SEQEND
0
POLYLINE
8
CUT
66
1
70
0
0
VERTEX
8
CUT
10
79.8682
20
25.4039
0
VERTEX
8
CUT
10
81.8
20
24.3
0
VERTEX
8
CUT
10
90.2
20
24.3
0
VERTEX
8
CUT
10
92.1318
20
25.4039
0
SEQEND
0
POLYLINE
8
CUT
66
1
70
0
0
VERTEX
8
CUT
10
93.8682
20
26.3961
0
VERTEX
8
CUT
10
95.8
20
27.5
0
VERTEX
8
CUT
10
104.2
20
27.5
0
VERTEX
8
CUT
10
106.1318
20
26.3961
0
SEQEND
0
POLYLINE
8
CUT
66
1
70
0
0
VERTEX
8
CUT
10
93.8682
20
25.4039
0
VERTEX
8
CUT
10
95.8
20
24.3
0
VERTEX
8
CUT
10
104.2
20
24.3
0
VERTEX
8
CUT
10
106.1318
20
25.4039
0
SEQEND
0
POLYLINE
8
CUT
66
1
70
0
0
VERTEX
8
CUT
10
107.8682
20
26.3961
0
VERTEX
8
CUT
10
109.8
20
27.5
0
VERTEX
8
CUT
10
118
20
27.5
0
SEQEND
0
POLYLINE
8
CUT
66
1
70
0
0
VERTEX
8
CUT
10
107.8682
20
25.4039
0
VERTEX
8
CUT
10
109.8
20
24.3
0
VERTEX
8
CUT
10
118
20
24.3
0
SEQEND
0
POLYLINE
8
CUT
66
1
70
0
0
VERTEX
8
CUT
10
2.8682
20
21.8961
0
VERTEX
8
CUT
10
4.8
20
23
0
VERTEX
8
CUT
10
13.2
20
23
0
VERTEX
8
CUT
10
15.1318
20
21.8961
0
SEQEND
0
POLYLINE
8
CUT
66
1
70
0
0
VERTEX
8
CUT
10
2.8682
20
20.9039
0
VERTEX
8
CUT
10
4.8
20
19.8
0
VERTEX
8
CUT
10
13.2
20
19.8
0
VERTEX
8
CUT
10
15.1318
20
20.9039
0
SEQEND
0
POLYLINE
8
CUT
66
1
70
0
0
VERTEX
8
CUT
10
16.8682
20
21.8961
0
VERTEX
8
CUT
10
18.8
20
23
0
VERTEX
8
CUT
10
27.2
20
23
0
VERTEX
8
CUT
10
29.1318
20
21.8961
0
SEQEND
0
POLYLINE
8
CUT
66
1
70
0
0
VERTEX
8
CUT
10
16.8682
20
20.9039
0
VERTEX
8
CUT
10
18.8
20
19.8
0
VERTEX
8
CUT
10
27.2
20
19.8
0
VERTEX
8
CUT
10
29.1318
20
20.9039
0
SEQEND
0
POLYLINE
8
CUT
66
1
70
0
0
VERTEX
8
CUT
10
30.8682
20
21.8961
0
VERTEX
8
CUT
10
32.8
20
23
0
VERTEX
8
CUT
10
41.2
20
23
0
VERTEX
8
CUT
10
43.1318
20
21.8961
0
SEQEND
0
POLYLINE
8
CUT
66
1
70
0
0
VERTEX
8
CUT
10
30.8682
20
20.9039
0
VERTEX
8
CUT
10
32.8
20
19.8
0
VERTEX
8
CUT
10
41.2
20
19.8
0
VERTEX
8
CUT
10
43.1318
20
20.9039
0
SEQEND
0
POLYLINE
8
CUT
66
1
70
0
0
VERTEX
8
CUT
10
44.8682
20
21.8961
0
VERTEX
8
CUT
10
46.8
20
23
0
VERTEX
8
CUT
10
55.2
20
23
0
VERTEX
8
CUT
10
57.1318
20
21.8961
0
SEQEND
0
POLYLINE
8
CUT
66
1
70
0
0
VERTEX
8
CUT
10
44.8682
20
20.9039
0
VERTEX
8
CUT
10
46.8
20
19.8
0
VERTEX
8
CUT
10
55.2
20
19.8
0
VERTEX
8
CUT
10
57.1318
20
20.9039
0
SEQEND
0
POLYLINE
8
CUT
66
1
70
0
0
VERTEX
8
CUT
10
58.8682
20
21.8961
0
VERTEX
8
CUT
10
60.8
20
23
0
VERTEX
8
CUT
10
69.2
20
23
0
VERTEX
8
CUT
10
71.1318
20
21.8961
0
SEQEND
0
POLYLINE
8
CUT
66
1
70
0
0
VERTEX
8
CUT
10
58.8682
20
20.9039
0
VERTEX
8
CUT
10
60.8
20
19.8
0
VERTEX
8
CUT
10
69.2
20
19.8
0
VERTEX
8
CUT
10
71.1318
20
20.9039
0
SEQEND
0
POLYLINE
8
CUT
66
1
70
0
0
VERTEX
8
CUT
10
72.8682
20
21.8961
0
VERTEX
8
CUT
10
74.8
20
23
0
VERTEX
8
CUT
10
83.2
20
23
0
VERTEX
8
CUT
10
85.1318
20
21.8961
0
SEQEND
0
POLYLINE
8
CUT
66
1
70
0
0
VERTEX
8
CUT
10
72.8682
20
20.9039
0
VERTEX
8
CUT
10
74.8
20
19.8
0
VERTEX
8
CUT
10
83.2
20
19.8
0
VERTEX
8
CUT
10
85.1318
20
20.9039
0
SEQEND
0
POLYLINE
8
CUT
66
1
70
0
0
VERTEX
8
CUT
10
86.8682
20
21.8961
0
VERTEX
8
CUT
10
88.8
20
23
0
VERTEX
8
CUT
10
97.2
20
23
0
VERTEX
8
CUT
10
99.1318
20
21.8961
0
SEQEND
0
POLYLINE
8
CUT
66
1
70
0
0
VERTEX
8
CUT
10
86.8682
20
20.9039
0
VERTEX
8
CUT
10
88.8
20
19.8
0
VERTEX
8
CUT
10
97.2
20
19.8
0
VERTEX
8
CUT
10
99.1318
20
20.9039
0
SEQEND
0
POLYLINE
8
CUT
66
1
70
0
0
VERTEX
8
CUT
10
100.8682
20
21.8961
0
VERTEX
8
CUT
10
102.8
20
23
0
VERTEX
8
CUT
10
111.2
20
23
0
VERTEX
8
CUT
10
113.1318
20
21.8961
0
SEQEND
0
POLYLINE
8
CUT
66
1
70
0
0
VERTEX
8
CUT
10
100.8682
20
20.9039
0
VERTEX
8
CUT
10
102.8
20
19.8
0
VERTEX
8
CUT
10
111.2
20
19.8
0
VERTEX
8
CUT
10
113.1318
20
20.9039
0
SEQEND
0
POLYLINE
8
CUT
66
1
70
0
0
VERTEX
8
CUT
10
114.8682
20
21.8961
0
VERTEX
8
CUT
10
116.8
20
23
0
VERTEX
8
CUT
10
118
20
23
0
SEQEND
0
POLYLINE
8
CUT
66
1
70
0
0
VERTEX
8
CUT
10
114.8682
20
20.9039
0
VERTEX
8
CUT
10
116.8
20
19.8
0
VERTEX
8
CUT
10
118
20
19.8
0
SEQEND
0
POLYLINE
8
CUT
66
1
70
0
0
VERTEX
8
CUT
10
2
20
18.5
0
VERTEX
8
CUT
10
6.2
20
18.5
0
VERTEX
8
CUT
10
8.1318
20
17.3961
0
SEQEND
0
POLYLINE
8
CUT
66
1
70
0
0
VERTEX
8
CUT
10
2
20
15.3
0
VERTEX
8
CUT
10
6.2
20
15.3
0
VERTEX
8
CUT
10
8.1318
20
16.4039
0
SEQEND
0
POLYLINE
8
CUT
66
1
70
0
0
VERTEX
8
CUT
10
9.8682
20
17.3961
0
VERTEX
8
CUT
10
11.8
20
18.5
0
VERTEX
8
CUT
10
20.2
20
18.5
0
VERTEX
8
CUT
10
22.1318
20
17.3961
0
SEQEND
0
POLYLINE
8
CUT
66
1
70
0
0
VERTEX
8
CUT
10
9.8682
20
16.4039
0
VERTEX
8
CUT
10
11.8
20
15.3
0
VERTEX
8
CUT
10
20.2
20
15.3
0
VERTEX
8
CUT
10
22.1318
20
16.4039
0
SEQEND
0
POLYLINE
8
CUT
66
1
70
0
0
VERTEX
8
CUT
10
23.8682
20
17.3961
0
VERTEX
8
CUT
10
25.8
20
18.5
0
VERTEX
8
CUT
10
34.2
20
18.5
0
VERTEX
8
CUT
10
36.1318
20
17.3961
0
SEQEND
0
POLYLINE
8
CUT
66
1
70
0
0
VERTEX
8
CUT
10
23.8682
20
16.4039
0
VERTEX
8
CUT
10
25.8
20
15.3
0
VERTEX
8
CUT
10
34.2
20
15.3
0
VERTEX
8
CUT
10
36.1318
20
16.4039
0
SEQEND
0
POLYLINE
8
CUT
66
1
70
0
0
VERTEX
8
CUT
10
37.8682
20
17.3961
0
VERTEX
8
CUT
10
39.8
20
18.5
0
VERTEX
8
CUT
10
48.2
20
18.5
0
VERTEX
8
CUT
10
50.1318
20
17.3961
0
SEQEND
0
POLYLINE
8
CUT
66
1
70
0
0
VERTEX
8
CUT
10
37.8682
20
16.4039
0
VERTEX
8
CUT
10
39.8
20
15.3
0
VERTEX
8
CUT
10
48.2
20
15.3
0
VERTEX
8
CUT
10
50.1318
20
16.4039
0
SEQEND
0
POLYLINE
8
CUT
66
1
70
0
0
VERTEX
8
CUT
10
51.8682
20
17.3961
0
VERTEX
8
CUT
10
53.8
20
18.5
0
VERTEX
8
CUT
10
62.2
20
18.5
0
VERTEX
8
CUT
10
64.1318
20
17.3961
0
SEQEND
0
POLYLINE
8
CUT
66
1
70
0
0
VERTEX
8
CUT
10
51.8682
20
16.4039
0
VERTEX
8
CUT
10
53.8
20
15.3
0
VERTEX
8
CUT
10
62.2
20
15.3
0
VERTEX
8
CUT
10
64.1318
20
16.4039
0
SEQEND
0
POLYLINE
8
CUT
66
1
70
0
0
VERTEX
8
CUT
10
65.8682
20
17.3961
0
VERTEX
8
CUT
10
67.8
20
18.5
0
VERTEX
8
CUT
10
76.2
20
18.5
0
VERTEX
8
CUT
10
78.1318
20
17.3961
0
SEQEND
0
POLYLINE
8
CUT
66
1
70
0
0
VERTEX
8
CUT
10
65.8682
20
16.4039
0
VERTEX
8
CUT
10
67.8
20
15.3
0
VERTEX
8
CUT
10
76.2
20
15.3
0
VERTEX
8
CUT
10
78.1318
20
16.4039
0
SEQEND
0
POLYLINE
8
CUT
66
1
70
0
0
VERTEX
8
CUT
10
79.8682
20
17.3961
0
VERTEX
8
CUT
10
81.8
20
18.5
0
VERTEX
8
CUT
10
90.2
20
18.5
0
VERTEX
8
CUT
10
92.1318
20
17.3961
0
SEQEND
0
POLYLINE
8
CUT
66
1
70
0
0
VERTEX
8
CUT
10
79.8682
20
16.4039
0
VERTEX
8
CUT
10
81.8
20
15.3
0
VERTEX
8
CUT
10
90.2
20
15.3
0
VERTEX
8
CUT
10
92.1318
20
16.4039
0
SEQEND
0
POLYLINE
8
CUT
66
1
70
0
0
VERTEX
8
CUT
10
93.8682
20
17.3961
0
VERTEX
8
CUT
10
95.8
20
18.5
0
VERTEX
8
CUT
10
104.2
20
18.5
0
VERTEX
8
CUT
10
106.1318
20
17.3961
0
SEQEND
0
POLYLINE
8
CUT
66
1
70
0
0
VERTEX
8
CUT
10
93.8682
20
16.4039
0
VERTEX
8
CUT
10
95.8
20
15.3
0
VERTEX
8
CUT
10
104.2
20
15.3
0
VERTEX
8
CUT
10
106.1318
20
16.4039
0
SEQEND
0
POLYLINE
8
CUT
66
1
70
0
0
VERTEX
8
CUT
10
107.8682
20
17.3961
0
VERTEX
8
CUT
10
109.8
20
18.5
0
VERTEX
8
CUT
10
118
20
18.5
0
SEQEND
0
POLYLINE
8
CUT
66
1
70
0
0
VERTEX
8
CUT
10
107.8682
20
16.4039
0
VERTEX
8
CUT
10
109.8
20
15.3
0
VERTEX
8
CUT
10
118
20
15.3
0
SEQEND
0
POLYLINE
8
CUT
66
1
70
0
0
VERTEX
8
CUT
10
2.8682
20
12.8961
0
VERTEX
8
CUT
10
4.8
20
14
0
VERTEX
8
CUT
10
13.2
20
14
0
VERTEX
8
CUT
10
15.1318
20
12.8961
0
SEQEND
0
POLYLINE
8
CUT
66
1
70
0
0
VERTEX
8
CUT
10
2.8682
20
11.9039
0
VERTEX
8
CUT
10
4.8
20
10.8
0
VERTEX
8
CUT
10
13.2
20
10.8
0
VERTEX
8
CUT
10
15.1318
20
11.9039
0
SEQEND
0
POLYLINE
8
CUT
66
1
70
0
0
VERTEX
8
CUT
10
16.8682
20
12.8961
0
VERTEX
8
CUT
10
18.8
20
14
0
VERTEX
8
CUT
10
27.2
20
14
0
VERTEX
8
CUT
10
29.1318
20
12.8961
0
SEQEND
0
POLYLINE
8
CUT
66
1
70
0
0
VERTEX
8
CUT
10
16.8682
20
11.9039
0
VERTEX
8
CUT
10
18.8
20
10.8
0
VERTEX
8
CUT
10
27.2
20
10.8
0
VERTEX
8
CUT
10
29.1318
20
11.9039
0
SEQEND
0
POLYLINE
8
CUT
66
1
70
0
0
VERTEX
8
CUT
10
30.8682
20
12.8961
0
VERTEX
8
CUT
10
32.8
20
14
0
VERTEX
8
CUT
10
41.2
20
14
0
VERTEX
8
CUT
10
43.1318
20
12.8961
0
SEQEND
0
POLYLINE
8
CUT
66
1
70
0
0
VERTEX
8
CUT
10
30.8682
20
11.9039
0
VERTEX
8
CUT
10
32.8
20
10.8
0
VERTEX
8
CUT
10
41.2
20
10.8
0
VERTEX
8
CUT
10
43.1318
20
11.9039
0
SEQEND
0
POLYLINE
8
CUT
66
1
70
0
0
VERTEX
8
CUT
10
44.8682
20
12.8961
0
VERTEX
8
CUT
10
46.8
20
14
0
VERTEX
8
CUT
10
55.2
20
14
0
VERTEX
8
CUT
10
57.1318
20
12.8961
0
SEQEND
0
POLYLINE
8
CUT
66
1
70
0
0
VERTEX
8
CUT
10
44.8682
20
11.9039
0
VERTEX
8
CUT
10
46.8
20
10.8
0
VERTEX
8
CUT
10
55.2
20
10.8
0
VERTEX
8
CUT
10
57.1318
20
11.9039
0
SEQEND
0
POLYLINE
8
CUT
66
1
70
0
0
VERTEX
8
CUT
10
58.8682
20
12.8961
0
VERTEX
8
CUT
10
60.8
20
14
0
VERTEX
8
CUT
10
69.2
20
14
0
VERTEX
8
CUT
10
71.1318
20
12.8961
0
SEQEND
0
POLYLINE
8
CUT
66
1
70
0
0
VERTEX
8
CUT
10
58.8682
20
11.9039
0
VERTEX
8
CUT
10
60.8
20
10.8
0
VERTEX
8
CUT
10
69.2
20
10.8
0
VERTEX
8
CUT
10
71.1318
20
11.9039
0
SEQEND
0
POLYLINE
8
CUT
66
1
70
0
0
VERTEX
8
CUT
10
72.8682
20
12.8961
0
VERTEX
8
CUT
10
74.8
20
14
0
VERTEX
8
CUT
10
83.2
20
14
0
VERTEX
8
CUT
10
85.1318
20
12.8961
0
SEQEND
0
POLYLINE
8
CUT
66
1
70
0
0
VERTEX
8
CUT
10
72.8682
20
11.9039
0
VERTEX
8
CUT
10
74.8
20
10.8
0
VERTEX
8
CUT
10
83.2
20
10.8
0
VERTEX
8
CUT
10
85.1318
20
11.9039
0
SEQEND
0
POLYLINE
8
CUT
66
1
70
0
0
VERTEX
8
CUT
10
86.8682
20
12.8961
0
VERTEX
8
CUT
10
88.8
20
14
0
VERTEX
8
CUT
10
97.2
20
14
0
VERTEX
8
CUT
10
99.1318
20
12.8961
0
SEQEND
0
POLYLINE
8
CUT
66
1
70
0
0
VERTEX
8
CUT
10
86.8682
20
11.9039
0
VERTEX
8
CUT
10
88.8
20
10.8
0
VERTEX
8
CUT
10
97.2
20
10.8
0
VERTEX
8
CUT
10
99.1318
20
11.9039
0
SEQEND
0
POLYLINE
8
CUT
66
1
70
0
0
VERTEX
8
CUT
10
100.8682
20
12.8961
0
VERTEX
8
CUT
10
102.8
20
14
0
VERTEX
8
CUT
10
111.2
20
14
0
VERTEX
8
CUT
10
113.1318
20
12.8961
0
SEQEND
0
POLYLINE
8
CUT
66
1
70
0
0
VERTEX
8
CUT
10
100.8682
20
11.9039
0
VERTEX
8
CUT
10
102.8
20
10.8
0
VERTEX
8
CUT
10
111.2
20
10.8
0
VERTEX
8
CUT
10
113.1318
20
11.9039
0
SEQEND
0
POLYLINE
8
CUT
66
1
70
0
0
VERTEX
8
CUT
10
114.8682
20
12.8961
0
VERTEX
8
CUT
10
116.8
20
14
0
VERTEX
8
CUT
10
118
20
14
0
SEQEND
0
POLYLINE
8
CUT
66
1
70
0
0
VERTEX
8
CUT
10
114.8682
20
11.9039
0
VERTEX
8
CUT
10
116.8
20
10.8
0
VERTEX
8
CUT
10
118
20
10.8
0
SEQEND
0
POLYLINE
8
CUT
66
1
70
0
0
VERTEX
8
CUT
10
2
20
9.5
0
VERTEX
8
CUT
10
6.2
20
9.5
0
VERTEX
8
CUT
10
8.1318
20
8.3961
0
SEQEND
0
POLYLINE
8
CUT
66
1
70
0
0
VERTEX
8
CUT
10
2
20
6.3
0
VERTEX
8
CUT
10
6.2
20
6.3
0
VERTEX
8
CUT
10
8.1318
20
7.4039
0
SEQEND
0
POLYLINE
8
CUT
66
1
70
0
0
VERTEX
8
CUT
10
9.8682
20
8.3961
0
VERTEX
8
CUT
10
11.8
20
9.5
0
VERTEX
8
CUT
10
20.2
20
9.5
0
VERTEX
8
CUT
10
22.1318
20
8.3961
0
SEQEND
0
POLYLINE
8
CUT
66
1
70
0
0
VERTEX
8
CUT
10
9.8682
20
7.4039
0
VERTEX
8
CUT
10
11.8
20
6.3
0
VERTEX
8
CUT
10
20.2
20
6.3
0
VERTEX
8
CUT
10
22.1318
20
7.4039
0
SEQEND
0
POLYLINE
8
CUT
66
1
70
0
0
VERTEX
8
CUT
10
23.8682
20
8.3961
0
VERTEX
8
CUT
10
25.8
20
9.5
0
VERTEX
8
CUT
10
34.2
20
9.5
0
VERTEX
8
CUT
10
36.1318
20
8.3961
0
SEQEND
0
POLYLINE
8
CUT
66
1
70
0
0
VERTEX
8
CUT
10
23.8682
20
7.4039
0
VERTEX
8
CUT
10
25.8
20
6.3
0
VERTEX
8
CUT
10
34.2
20
6.3
0
VERTEX
8
CUT
10
36.1318
20
7.4039
0
SEQEND
0
POLYLINE
8
CUT
66
1
70
0
0
VERTEX
8
CUT
10
37.8682
20
8.3961
0
VERTEX
8
CUT
10
39.8
20
9.5
0
VERTEX
8
CUT
10
48.2
20
9.5
0
VERTEX
8
CUT
10
50.1318
20
8.3961
0
SEQEND
0
POLYLINE
8
CUT
66
1
70
0
0
VERTEX
8
CUT
10
37.8682
20
7.4039
0
VERTEX
8
CUT
10
39.8
20
6.3
0
VERTEX
8
CUT
10
48.2
20
6.3
0
VERTEX
8
CUT
10
50.1318
20
7.4039
0
SEQEND
0
POLYLINE
8
CUT
66
1
70
0
0
VERTEX
8
CUT
10
51.8682
20
8.3961
0
VERTEX
8
CUT
10
53.8
20
9.5
0
VERTEX
8
CUT
10
62.2
20
9.5
0
VERTEX
8
CUT
10
64.1318
20
8.3961
0
SEQEND
0
POLYLINE
8
CUT
66
1
70
0
0
VERTEX
8
CUT
10
51.8682
20
7.4039
0
VERTEX
8
CUT
10
53.8
20
6.3
0
VERTEX
8
CUT
10
62.2
20
6.3
0
VERTEX
8
CUT
10
64.1318
20
7.4039
0
SEQEND
0
POLYLINE
8
CUT
66
1
70
0
0
VERTEX
8
CUT
10
65.8682
20
8.3961
0
VERTEX
8
CUT
10
67.8
20
9.5
0
VERTEX
8
CUT
10
76.2
20
9.5
0
VERTEX
8
CUT
10
78.1318
20
8.3961
0
SEQEND
0
POLYLINE
8
CUT
66
1
70
0
0
VERTEX
8
CUT
10
65.8682
20
7.4039
0
VERTEX
8
CUT
10
67.8
20
6.3
0
VERTEX
8
CUT
10
76.2
20
6.3
0
VERTEX
8
CUT
10
78.1318
20
7.4039
0
SEQEND
0
POLYLINE
8
CUT
66
1
70
0
0
VERTEX
8
CUT
10
79.8682
20
8.3961
0
VERTEX
8
CUT
10
81.8
20
9.5
0
VERTEX
8
CUT
10
90.2
20
9.5
0
VERTEX
8
CUT
10
92.1318
20
8.3961
0
SEQEND
0
POLYLINE
8
CUT
66
1
70
0
0
VERTEX
8
CUT
10
79.8682
20
7.4039
0
VERTEX
8
CUT
10
81.8
20
6.3
0
VERTEX
8
CUT
10
90.2
20
6.3
0
VERTEX
8
CUT
10
92.1318
20
7.4039
0
SEQEND
0
POLYLINE
8
CUT
66
1
70
0
0
VERTEX
8
CUT
10
93.8682
20
8.3961
0
VERTEX
8
CUT
10
95.8
20
9.5
0
VERTEX
8
CUT
10
104.2
20
9.5
0
VERTEX
8
CUT
10
106.1318
20
8.3961
0
SEQEND
0
POLYLINE
8
CUT
66
1
70
0
0
VERTEX
8
CUT
10
93.8682
20
7.4039
0
VERTEX
8
CUT
10
95.8
20
6.3
0
VERTEX
8
CUT
10
104.2
20
6.3
0
VERTEX
8
CUT
10
106.1318
20
7.4039
0
SEQEND
0
POLYLINE
8
CUT
66
1
70
0
0
VERTEX
8
CUT
10
107.8682
20
8.3961
0
VERTEX
8
CUT
10
109.8
20
9.5
0
VERTEX
8
CUT
10
118
20
9.5
0
SEQEND
0
POLYLINE
8
CUT
66
1
70
0
0
VERTEX
8
CUT
10
107.8682
20
7.4039
0
VERTEX
8
CUT
10
109.8
20
6.3
0
VERTEX
8
CUT
10
118
20
6.3
0
SEQEND
0
POLYLINE
8
CUT
66
1
70
0
0
VERTEX
8
CUT
10
2.8682
20
3.8961
0
VERTEX
8
CUT
10
4.8
20
5
0
VERTEX
8
CUT
10
13.2
20
5
0
VERTEX
8
CUT
10
15.1318
20
3.8961
0
SEQEND
0
LINE
8
CUT
10
2.8682
20
2.9039
11
4.45
21
2
0
LINE
8
CUT
10
13.55
20
2
11
15.1318
21
2.9039
0
POLYLINE
8
CUT
66
1
70
0
0
VERTEX
8
CUT
10
16.8682
20
3.8961
0
VERTEX
8
CUT
10
18.8
20
5
0
VERTEX
8
CUT
10
27.2
20
5
0
VERTEX
8
CUT
10
29.1318
20
3.8961
0
SEQEND
0
LINE
8
CUT
10
16.8682
20
2.9039
11
18.45
21
2
0
LINE
8
CUT
10
27.55
20
2
11
29.1318
21
2.9039
0
POLYLINE
8
CUT
66
1
70
0
0
VERTEX
8
CUT
10
30.8682
20
3.8961
0
VERTEX
8
CUT
10
32.8
20
5
0
VERTEX
8
CUT
10
41.2
20
5
0
VERTEX
8
CUT
10
43.1318
20
3.8961
0
SEQEND
0
LINE
8
CUT
10
30.8682
20
2.9039
11
32.45
21
2
0
LINE
8
CUT
10
41.55
20
2
11
43.1318
21
2.9039
0
POLYLINE
8
CUT
66
1
70
0
0
VERTEX
8
CUT
10
44.8682
20
3.8961
0
VERTEX
8
CUT
10
46.8
20
5
0
VERTEX
8
CUT
10
55.2
20
5
0
VERTEX
8
CUT
10
57.1318
20
3.8961
0
SEQEND
0
LINE
8
CUT
10
44.8682
20
2.9039
11
46.45
21
2
0
LINE
8
CUT
10
55.55
20
2
11
57.1318
21
2.9039
0
POLYLINE
8
CUT
66
1
70
0
0
VERTEX
8
CUT
10
58.8682
20
3.8961
0
VERTEX
8
CUT
10
60.8
20
5
0
VERTEX
8
CUT
10
69.2
20
5
0
VERTEX
8
CUT
10
71.1318
20
3.8961
0
SEQEND
0
LINE
8
CUT
10
58.8682
20
2.9039
11
60.45
21
2
0
LINE
8
CUT
10
69.55
20
2
11
71.1318
21
2.9039
0
POLYLINE
8
CUT
66
1
70
0
0
VERTEX
8
CUT
10
72.8682
20
3.8961
0
VERTEX
8
CUT
10
74.8
20
5
0
VERTEX
8
CUT
10
83.2
20
5
0
VERTEX
8
CUT
10
85.1318
20
3.8961
0
SEQEND
0
LINE
8
CUT
10
72.8682
20
2.9039
11
74.45
21
2
0
LINE
8
CUT
10
83.55
20
2
11
85.1318
21
2.9039
0
POLYLINE
8
CUT
66
1
70
0
0
VERTEX
8
CUT
10
86.8682
20
3.8961
0
VERTEX
8
CUT
10
88.8
20
5
0
VERTEX
8
CUT
10
97.2
20
5
0
VERTEX
8
CUT
10
99.1318
20
3.8961
0
SEQEND
0
LINE
8
CUT
10
86.8682
20
2.9039
11
88.45
21
2
0
LINE
8
CUT
10
97.55
20
2
11
99.1318
21
2.9039
0
POLYLINE
8
CUT
66
1
70
0
0
VERTEX
8
CUT
10
100.8682
20
3.8961
0
VERTEX
8
CUT
10
102.8
20
5
0
VERTEX
8
CUT
10
111.2
20
5
0
VERTEX
8
CUT
10
113.1318
20
3.8961
0
SEQEND
0
LINE
8
CUT
10
100.8682
20
2.9039
11
102.45
21
2
0
LINE
8
CUT
10
111.55
20
2
11
113.1318
21
2.9039
0
POLYLINE
8
CUT
66
1
70
0
0
VERTEX
8
CUT
10
114.8682
20
3.8961
0
VERTEX
8
CUT
10
116.8
20
5
0
VERTEX
8
CUT
10
118
20
5
0
SEQEND
0
LINE
8
CUT
10
114.8682
20
2.9039
11
116.45
21
2
0
POLYLINE
8
CUT
66
1
70
0
0
VERTEX
8
CUT
10
0
20
70
0
VERTEX
8
CUT
10
120
20
70
0
VERTEX
8
CUT
10
120
20
0
0
VERTEX
8
CUT
10
0
20
0
0
VERTEX
8
CUT
10
0
20
70
0
SEQEND
0
ENDSEC
0
EOF
