0
SECTION
2
HEADER
9
$ACADVER
1
AC1009
9
$INSUNITS
70
4
0
ENDSEC
0
SECTION
2
TABLES
0
TABLE
2
LAYER
70
1
0
LAYER
2
CUT
70
0
62
1
6
CONTINUOUS
0
ENDTAB
0
ENDSEC
0
SECTION
2
ENTITIES
0
POLYLINE
8
CUT
66
1
70
0
0
VERTEX
8
CUT
10
8
20
68
0
VERTEX
8
CUT
10
8
20
68
0
VERTEX
8
CUT
10
7.9592
20
66.5714
0
VERTEX
8
CUT
10
7.8367
20
65.1429
0
VERTEX
8
CUT
10
7.6327
20
63.7143
0
VERTEX
8
CUT
10
7.3469
20
62.2857
0
VERTEX
8
CUT
10
6.9796
20
60.8571
0
VERTEX
8
CUT
10
6.5306
20
59.4286
0
VERTEX
8
CUT
10
6
20
58
0
SEQEND
0
POLYLINE
8
CUT
66
1
70
0
0
VERTEX
8
CUT
10
6
20
56
0
VERTEX
8
CUT
10
6.5306
20
54.5714
0
VERTEX
8
CUT
10
6.9796
20
53.1429
0
VERTEX
8
CUT
10
7.3469
20
51.7143
0
VERTEX
8
CUT
10
7.6327
20
50.2857
0
VERTEX
8
CUT
10
7.8367
20
48.8571
0
VERTEX
8
CUT
10
7.9592
20
47.4286
0
VERTEX
8
CUT
10
8
20
46
0
VERTEX
8
CUT
10
7.9592
20
44.5714
0
VERTEX
8
CUT
10
7.8367
20
43.1429
0
VERTEX
8
CUT
10
7.6327
20
41.7143
0
VERTEX
8
CUT
10
7.3469
20
40.2857
0
VERTEX
8
CUT
10
6.9796
20
38.8571
0
VERTEX
8
CUT
10
6.5306
20
37.4286
0
VERTEX
8
CUT
10
6
20
36
0
SEQEND
0
POLYLINE
8
CUT
66
1
70
0
0
VERTEX
8
CUT
10
6
20
34
0
VERTEX
8
CUT
10
6.5306
20
32.5714
0
VERTEX
8
CUT
10
6.9796
20
31.1429
0
VERTEX
8
CUT
10
7.3469
20
29.7143
0
VERTEX
8
CUT
10
7.6327
20
28.2857
0
VERTEX
8
CUT
10
7.8367
20
26.8571
0
VERTEX
8
CUT
10
7.9592
20
25.4286
0
VERTEX
8
CUT
10
8
20
24
0
VERTEX
8
CUT
10
7.9592
20
22.5714
0
VERTEX
8
CUT
10
7.8367
20
21.1429
0
VERTEX
8
CUT
10
7.6327
20
19.7143
0
VERTEX
8
CUT
10
7.3469
20
18.2857
0
VERTEX
8
CUT
10
6.9796
20
16.8571
0
VERTEX
8
CUT
10
6.5306
20
15.4286
0
VERTEX
8
CUT
10
6
20
14
0
SEQEND
0
POLYLINE
8
CUT
66
1
70
0
0
VERTEX
8
CUT
10
6
20
12
0
VERTEX
8
CUT
10
6.5306
20
10.5714
0
VERTEX
8
CUT
10
6.9796
20
9.1429
0
VERTEX
8
CUT
10
7.3469
20
7.7143
0
VERTEX
8
CUT
10
7.6327
20
6.2857
0
VERTEX
8
CUT
10
7.8367
20
4.8571
0
VERTEX
8
CUT
10
7.9592
20
3.4286
0
VERTEX
8
CUT
10
8
20
2
0
VERTEX
8
CUT
10
8
20
2
0
SEQEND
0
POLYLINE
8
CUT
66
1
70
0
0
VERTEX
8
CUT
10
12
20
67
0
VERTEX
8
CUT
10
11.4694
20
65.5714
0
VERTEX
8
CUT
10
11.0204
20
64.1429
0
VERTEX
8
CUT
10
10.6531
20
62.7143
0
VERTEX
8
CUT
10
10.3673
20
61.2857
0
VERTEX
8
CUT
10
10.1633
20
59.8571
0
VERTEX
8
CUT
10
10.0408
20
58.4286
0
VERTEX
8
CUT
10
10
20
57
0
VERTEX
8
CUT
10
10.0408
20
55.5714
0
VERTEX
8
CUT
10
10.1633
20
54.1429
0
VERTEX
8
CUT
10
10.3673
20
52.7143
0
VERTEX
8
CUT
10
10.6531
20
51.2857
0
VERTEX
8
CUT
10
11.0204
20
49.8571
0
VERTEX
8
CUT
10
11.4694
20
48.4286
0
VERTEX
8
CUT
10
12
20
47
0
SEQEND
0
POLYLINE
8
CUT
66
1
70
0
0
VERTEX
8
CUT
10
12
20
45
0
VERTEX
8
CUT
10
11.4694
20
43.5714
0
VERTEX
8
CUT
10
11.0204
20
42.1429
0
VERTEX
8
CUT
10
10.6531
20
40.7143
0
VERTEX
8
CUT
10
10.3673
20
39.2857
0
VERTEX
8
CUT
10
10.1633
20
37.8571
0
VERTEX
8
CUT
10
10.0408
20
36.4286
0
VERTEX
8
CUT
10
10
20
35
0
VERTEX
8
CUT
10
10.0408
20
33.5714
0
VERTEX
8
CUT
10
10.1633
20
32.1429
0
VERTEX
8
CUT
10
10.3673
20
30.7143
0
VERTEX
8
CUT
10
10.6531
20
29.2857
0
VERTEX
8
CUT
10
11.0204
20
27.8571
0
VERTEX
8
CUT
10
11.4694
20
26.4286
0
VERTEX
8
CUT
10
12
20
25
0
SEQEND
0
POLYLINE
8
CUT
66
1
70
0
0
VERTEX
8
CUT
10
12
20
23
0
VERTEX
8
CUT
10
11.4694
20
21.5714
0
VERTEX
8
CUT
10
11.0204
20
20.1429
0
VERTEX
8
CUT
10
10.6531
20
18.7143
0
VERTEX
8
CUT
10
10.3673
20
17.2857
0
VERTEX
8
CUT
10
10.1633
20
15.8571
0
VERTEX
8
CUT
10
10.0408
20
14.4286
0
VERTEX
8
CUT
10
10
20
13
0
VERTEX
8
CUT
10
10.0408
20
11.5714
0
VERTEX
8
CUT
10
10.1633
20
10.1429
0
VERTEX
8
CUT
10
10.3673
20
8.7143
0
VERTEX
8
CUT
10
10.6531
20
7.2857
0
VERTEX
8
CUT
10
11.0204
20
5.8571
0
VERTEX
8
CUT
10
11.4694
20
4.4286
0
VERTEX
8
CUT
10
12
20
3
0
SEQEND
0
POLYLINE
8
CUT
66
1
70
0
0
VERTEX
8
CUT
10
20
20
68
0
VERTEX
8
CUT
10
20
20
68
0
VERTEX
8
CUT
10
19.9592
20
66.5714
0
VERTEX
8
CUT
10
19.8367
20
65.1429
0
VERTEX
8
CUT
10
19.6327
20
63.7143
0
VERTEX
8
CUT
10
19.3469
20
62.2857
0
VERTEX
8
CUT
10
18.9796
20
60.8571
0
VERTEX
8
CUT
10
18.5306
20
59.4286
0
VERTEX
8
CUT
10
18
20
58
0
SEQEND
0
POLYLINE
8
CUT
66
1
70
0
0
VERTEX
8
CUT
10
18
20
56
0
VERTEX
8
CUT
10
18.5306
20
54.5714
0
VERTEX
8
CUT
10
18.9796
20
53.1429
0
VERTEX
8
CUT
10
19.3469
20
51.7143
0
VERTEX
8
CUT
10
19.6327
20
50.2857
0
VERTEX
8
CUT
10
19.8367
20
48.8571
0
VERTEX
8
CUT
10
19.9592
20
47.4286
0
VERTEX
8
CUT
10
20
20
46
0
VERTEX
8
CUT
10
19.9592
20
44.5714
0
VERTEX
8
CUT
10
19.8367
20
43.1429
0
VERTEX
8
CUT
10
19.6327
20
41.7143
0
VERTEX
8
CUT
10
19.3469
20
40.2857
0
VERTEX
8
CUT
10
18.9796
20
38.8571
0
VERTEX
8
CUT
10
18.5306
20
37.4286
0
VERTEX
8
CUT
10
18
20
36
0
SEQEND
0
POLYLINE
8
CUT
66
1
70
0
0
VERTEX
8
CUT
10
18
20
34
0
VERTEX
8
CUT
10
18.5306
20
32.5714
0
VERTEX
8
CUT
10
18.9796
20
31.1429
0
VERTEX
8
CUT
10
19.3469
20
29.7143
0
VERTEX
8
CUT
10
19.6327
20
28.2857
0
VERTEX
8
CUT
10
19.8367
20
26.8571
0
VERTEX
8
CUT
10
19.9592
20
25.4286
0
VERTEX
8
CUT
10
20
20
24
0
VERTEX
8
CUT
10
19.9592
20
22.5714
0
VERTEX
8
CUT
10
19.8367
20
21.1429
0
VERTEX
8
CUT
10
19.6327
20
19.7143
0
VERTEX
8
CUT
10
19.3469
20
18.2857
0
VERTEX
8
CUT
10
18.9796
20
16.8571
0
VERTEX
8
CUT
10
18.5306
20
15.4286
0
VERTEX
8
CUT
10
18
20
14
0
SEQEND
0
POLYLINE
8
CUT
66
1
70
0
0
VERTEX
8
CUT
10
18
20
12
0
VERTEX
8
CUT
10
18.5306
20
10.5714
0
VERTEX
8
CUT
10
18.9796
20
9.1429
0
VERTEX
8
CUT
10
19.3469
20
7.7143
0
VERTEX
8
CUT
10
19.6327
20
6.2857
0
VERTEX
8
CUT
10
19.8367
20
4.8571
0
VERTEX
8
CUT
10
19.9592
20
3.4286
0
VERTEX
8
CUT
10
20
20
2
0
VERTEX
8
CUT
10
20
20
2
0
SEQEND
0
POLYLINE
8
CUT
66
1
70
0
0
VERTEX
8
CUT
10
24
20
67
0
VERTEX
8
CUT
10
23.4694
20
65.5714
0
VERTEX
8
CUT
10
23.0204
20
64.1429
0
VERTEX
8
CUT
10
22.6531
20
62.7143
0
VERTEX
8
CUT
10
22.3673
20
61.2857
0
VERTEX
8
CUT
10
22.1633
20
59.8571
0
VERTEX
8
CUT
10
22.0408
20
58.4286
0
VERTEX
8
CUT
10
22
20
57
0
VERTEX
8
CUT
10
22.0408
20
55.5714
0
VERTEX
8
CUT
10
22.1633
20
54.1429
0
VERTEX
8
CUT
10
22.3673
20
52.7143
0
VERTEX
8
CUT
10
22.6531
20
51.2857
0
VERTEX
8
CUT
10
23.0204
20
49.8571
0
VERTEX
8
CUT
10
23.4694
20
48.4286
0
VERTEX
8
CUT
10
24
20
47
0
SEQEND
0
POLYLINE
8
CUT
66
1
70
0
0
VERTEX
8
CUT
10
24
20
45
0
VERTEX
8
CUT
10
23.4694
20
43.5714
0
VERTEX
8
CUT
10
23.0204
20
42.1429
0
VERTEX
8
CUT
10
22.6531
20
40.7143
0
VERTEX
8
CUT
10
22.3673
20
39.2857
0
VERTEX
8
CUT
10
22.1633
20
37.8571
0
VERTEX
8
CUT
10
22.0408
20
36.4286
0
VERTEX
8
CUT
10
22
20
35
0
VERTEX
8
CUT
10
22.0408
20
33.5714
0
VERTEX
8
CUT
10
22.1633
20
32.1429
0
VERTEX
8
CUT
10
22.3673
20
30.7143
0
VERTEX
8
CUT
10
22.6531
20
29.2857
0
VERTEX
8
CUT
10
23.0204
20
27.8571
0
VERTEX
8
CUT
10
23.4694
20
26.4286
0
VERTEX
8
CUT
10
24
20
25
0
SEQEND
0
POLYLINE
8
CUT
66
1
70
0
0
VERTEX
8
CUT
10
24
20
23
0
VERTEX
8
CUT
10
23.4694
20
21.5714
0
VERTEX
8
CUT
10
23.0204
20
20.1429
0
VERTEX
8
CUT
10
22.6531
20
18.7143
0
VERTEX
8
CUT
10
22.3673
20
17.2857
0
VERTEX
8
CUT
10
22.1633
20
15.8571
0
VERTEX
8
CUT
10
22.0408
20
14.4286
0
VERTEX
8
CUT
10
22
20
13
0
VERTEX
8
CUT
10
22.0408
20
11.5714
0
VERTEX
8
CUT
10
22.1633
20
10.1429
0
VERTEX
8
CUT
10
22.3673
20
8.7143
0
VERTEX
8
CUT
10
22.6531
20
7.2857
0
VERTEX
8
CUT
10
23.0204
20
5.8571
0
VERTEX
8
CUT
10
23.4694
20
4.4286
0
VERTEX
8
CUT
10
24
20
3
0
SEQEND
0
POLYLINE
8
CUT
66
1
70
0
0
VERTEX
8
CUT
10
32
20
68
0
VERTEX
8
CUT
10
32
20
68
0
VERTEX
8
CUT
10
31.9592
20
66.5714
0
VERTEX
8
CUT
10
31.8367
20
65.1429
0
VERTEX
8
CUT
10
31.6327
20
63.7143
0
VERTEX
8
CUT
10
31.3469
20
62.2857
0
VERTEX
8
CUT
10
30.9796
20
60.8571
0
VERTEX
8
CUT
10
30.5306
20
59.4286
0
VERTEX
8
CUT
10
30
20
58
0
SEQEND
0
POLYLINE
8
CUT
66
1
70
0
0
VERTEX
8
CUT
10
30
20
56
0
VERTEX
8
CUT
10
30.5306
20
54.5714
0
VERTEX
8
CUT
10
30.9796
20
53.1429
0
VERTEX
8
CUT
10
31.3469
20
51.7143
0
VERTEX
8
CUT
10
31.6327
20
50.2857
0
VERTEX
8
CUT
10
31.8367
20
48.8571
0
VERTEX
8
CUT
10
31.9592
20
47.4286
0
VERTEX
8
CUT
10
32
20
46
0
VERTEX
8
CUT
10
31.9592
20
44.5714
0
VERTEX
8
CUT
10
31.8367
20
43.1429
0
VERTEX
8
CUT
10
31.6327
20
41.7143
0
VERTEX
8
CUT
10
31.3469
20
40.2857
0
VERTEX
8
CUT
10
30.9796
20
38.8571
0
VERTEX
8
CUT
10
30.5306
20
37.4286
0
VERTEX
8
CUT
10
30
20
36
0
SEQEND
0
POLYLINE
8
CUT
66
1
70
0
0
VERTEX
8
CUT
10
30
20
34
0
VERTEX
8
CUT
10
30.5306
20
32.5714
0
VERTEX
8
CUT
10
30.9796
20
31.1429
0
VERTEX
8
CUT
10
31.3469
20
29.7143
0
VERTEX
8
CUT
10
31.6327
20
28.2857
0
VERTEX
8
CUT
10
31.8367
20
26.8571
0
VERTEX
8
CUT
10
31.9592
20
25.4286
0
VERTEX
8
CUT
10
32
20
24
0
VERTEX
8
CUT
10
31.9592
20
22.5714
0
VERTEX
8
CUT
10
31.8367
20
21.1429
0
VERTEX
8
CUT
10
31.6327
20
19.7143
0
VERTEX
8
CUT
10
31.3469
20
18.2857
0
VERTEX
8
CUT
10
30.9796
20
16.8571
0
VERTEX
8
CUT
10
30.5306
20
15.4286
0
VERTEX
8
CUT
10
30
20
14
0
SEQEND
0
POLYLINE
8
CUT
66
1
70
0
0
VERTEX
8
CUT
10
30
20
12
0
VERTEX
8
CUT
10
30.5306
20
10.5714
0
VERTEX
8
CUT
10
30.9796
20
9.1429
0
VERTEX
8
CUT
10
31.3469
20
7.7143
0
VERTEX
8
CUT
10
31.6327
20
6.2857
0
VERTEX
8
CUT
10
31.8367
20
4.8571
0
VERTEX
8
CUT
10
31.9592
20
3.4286
0
VERTEX
8
CUT
10
32
20
2
0
VERTEX
8
CUT
10
32
20
2
0
SEQEND
0
POLYLINE
8
CUT
66
1
70
0
0
VERTEX
8
CUT
10
36
20
67
0
VERTEX
8
CUT
10
35.4694
20
65.5714
0
VERTEX
8
CUT
10
35.0204
20
64.1429
0
VERTEX
8
CUT
10
34.6531
20
62.7143
0
VERTEX
8
CUT
10
34.3673
20
61.2857
0
VERTEX
8
CUT
10
34.1633
20
59.8571
0
VERTEX
8
CUT
10
34.0408
20
58.4286
0
VERTEX
8
CUT
10
34
20
57
0
VERTEX
8
CUT
10
34.0408
20
55.5714
0
VERTEX
8
CUT
10
34.1633
20
54.1429
0
VERTEX
8
CUT
10
34.3673
20
52.7143
0
VERTEX
8
CUT
10
34.6531
20
51.2857
0
VERTEX
8
CUT
10
35.0204
20
49.8571
0
VERTEX
8
CUT
10
35.4694
20
48.4286
0
VERTEX
8
CUT
10
36
20
47
0
SEQEND
0
POLYLINE
8
CUT
66
1
70
0
0
VERTEX
8
CUT
10
36
20
45
0
VERTEX
8
CUT
10
35.4694
20
43.5714
0
VERTEX
8
CUT
10
35.0204
20
42.1429
0
VERTEX
8
CUT
10
34.6531
20
40.7143
0
VERTEX
8
CUT
10
34.3673
20
39.2857
0
VERTEX
8
CUT
10
34.1633
20
37.8571
0
VERTEX
8
CUT
10
34.0408
20
36.4286
0
VERTEX
8
CUT
10
34
20
35
0
VERTEX
8
CUT
10
34.0408
20
33.5714
0
VERTEX
8
CUT
10
34.1633
20
32.1429
0
VERTEX
8
CUT
10
34.3673
20
30.7143
0
VERTEX
8
CUT
10
34.6531
20
29.2857
0
VERTEX
8
CUT
10
35.0204
20
27.8571
0
VERTEX
8
CUT
10
35.4694
20
26.4286
0
VERTEX
8
CUT
10
36
20
25
0
SEQEND
0
POLYLINE
8
CUT
66
1
70
0
0
VERTEX
8
CUT
10
36
20
23
0
VERTEX
8
CUT
10
35.4694
20
21.5714
0
VERTEX
8
CUT
10
35.0204
20
20.1429
0
VERTEX
8
CUT
10
34.6531
20
18.7143
0
VERTEX
8
CUT
10
34.3673
20
17.2857
0
VERTEX
8
CUT
10
34.1633
20
15.8571
0
VERTEX
8
CUT
10
34.0408
20
14.4286
0
VERTEX
8
CUT
10
34
20
13
0
VERTEX
8
CUT
10
34.0408
20
11.5714
0
VERTEX
8
CUT
10
34.1633
20
10.1429
0
VERTEX
8
CUT
10
34.3673
20
8.7143
0
VERTEX
8
CUT
10
34.6531
20
7.2857
0
VERTEX
8
CUT
10
35.0204
20
5.8571
0
VERTEX
8
CUT
10
35.4694
20
4.4286
0
VERTEX
8
CUT
10
36
20
3
0
SEQEND
0
POLYLINE
8
CUT
66
1
70
0
0
VERTEX
8
CUT
10
44
20
68
0
VERTEX
8
CUT
10
44
20
68
0
VERTEX
8
CUT
10
43.9592
20
66.5714
0
VERTEX
8
CUT
10
43.8367
20
65.1429
0
VERTEX
8
CUT
10
43.6327
20
63.7143
0
VERTEX
8
CUT
10
43.3469
20
62.2857
0
VERTEX
8
CUT
10
42.9796
20
60.8571
0
VERTEX
8
CUT
10
42.5306
20
59.4286
0
VERTEX
8
CUT
10
42
20
58
0
SEQEND
0
POLYLINE
8
CUT
66
1
70
0
0
VERTEX
8
CUT
10
42
20
56
0
VERTEX
8
CUT
10
42.5306
20
54.5714
0
VERTEX
8
CUT
10
42.9796
20
53.1429
0
VERTEX
8
CUT
10
43.3469
20
51.7143
0
VERTEX
8
CUT
10
43.6327
20
50.2857
0
VERTEX
8
CUT
10
43.8367
20
48.8571
0
VERTEX
8
CUT
10
43.9592
20
47.4286
0
VERTEX
8
CUT
10
44
20
46
0
VERTEX
8
CUT
10
43.9592
20
44.5714
0
VERTEX
8
CUT
10
43.8367
20
43.1429
0
VERTEX
8
CUT
10
43.6327
20
41.7143
0
VERTEX
8
CUT
10
43.3469
20
40.2857
0
VERTEX
8
CUT
10
42.9796
20
38.8571
0
VERTEX
8
CUT
10
42.5306
20
37.4286
0
VERTEX
8
CUT
10
42
20
36
0
SEQEND
0
POLYLINE
8
CUT
66
1
70
0
0
VERTEX
8
CUT
10
42
20
34
0
VERTEX
8
CUT
10
42.5306
20
32.5714
0
VERTEX
8
CUT
10
42.9796
20
31.1429
0
VERTEX
8
CUT
10
43.3469
20
29.7143
0
VERTEX
8
CUT
10
43.6327
20
28.2857
0
VERTEX
8
CUT
10
43.8367
20
26.8571
0
VERTEX
8
CUT
10
43.9592
20
25.4286
0
VERTEX
8
CUT
10
44
20
24
0
VERTEX
8
CUT
10
43.9592
20
22.5714
0
VERTEX
8
CUT
10
43.8367
20
21.1429
0
VERTEX
8
CUT
10
43.6327
20
19.7143
0
VERTEX
8
CUT
10
43.3469
20
18.2857
0
VERTEX
8
CUT
10
42.9796
20
16.8571
0
VERTEX
8
CUT
10
42.5306
20
15.4286
0
VERTEX
8
CUT
10
42
20
14
0
SEQEND
0
POLYLINE
8
CUT
66
1
70
0
0
VERTEX
8
CUT
10
42
20
12
0
VERTEX
8
CUT
10
42.5306
20
10.5714
0
VERTEX
8
CUT
10
42.9796
20
9.1429
0
VERTEX
8
CUT
10
43.3469
20
7.7143
0
VERTEX
8
CUT
10
43.6327
20
6.2857
0
VERTEX
8
CUT
10
43.8367
20
4.8571
0
VERTEX
8
CUT
10
43.9592
20
3.4286
0
VERTEX
8
CUT
10
44
20
2
0
VERTEX
8
CUT
10
44
20
2
0
SEQEND
0
POLYLINE
8
CUT
66
1
70
0
0
VERTEX
8
CUT
10
48
20
67
0
VERTEX
8
CUT
10
47.4694
20
65.5714
0
VERTEX
8
CUT
10
47.0204
20
64.1429
0
VERTEX
8
CUT
10
46.6531
20
62.7143
0
VERTEX
8
CUT
10
46.3673
20
61.2857
0
VERTEX
8
CUT
10
46.1633
20
59.8571
0
VERTEX
8
CUT
10
46.0408
20
58.4286
0
VERTEX
8
CUT
10
46
20
57
0
VERTEX
8
CUT
10
46.0408
20
55.5714
0
VERTEX
8
CUT
10
46.1633
20
54.1429
0
VERTEX
8
CUT
10
46.3673
20
52.7143
0
VERTEX
8
CUT
10
46.6531
20
51.2857
0
VERTEX
8
CUT
10
47.0204
20
49.8571
0
VERTEX
8
CUT
10
47.4694
20
48.4286
0
VERTEX
8
CUT
10
48
20
47
0
SEQEND
0
POLYLINE
8
CUT
66
1
70
0
0
VERTEX
8
CUT
10
48
20
45
0
VERTEX
8
CUT
10
47.4694
20
43.5714
0
VERTEX
8
CUT
10
47.0204
20
42.1429
0
VERTEX
8
CUT
10
46.6531
20
40.7143
0
VERTEX
8
CUT
10
46.3673
20
39.2857
0
VERTEX
8
CUT
10
46.1633
20
37.8571
0
VERTEX
8
CUT
10
46.0408
20
36.4286
0
VERTEX
8
CUT
10
46
20
35
0
VERTEX
8
CUT
10
46.0408
20
33.5714
0
VERTEX
8
CUT
10
46.1633
20
32.1429
0
VERTEX
8
CUT
10
46.3673
20
30.7143
0
VERTEX
8
CUT
10
46.6531
20
29.2857
0
VERTEX
8
CUT
10
47.0204
20
27.8571
0
VERTEX
8
CUT
10
47.4694
20
26.4286
0
VERTEX
8
CUT
10
48
20
25
0
SEQEND
0
POLYLINE
8
CUT
66
1
70
0
0
VERTEX
8
CUT
10
48
20
23
0
VERTEX
8
CUT
10
47.4694
20
21.5714
0
VERTEX
8
CUT
10
47.0204
20
20.1429
0
VERTEX
8
CUT
10
46.6531
20
18.7143
0
VERTEX
8
CUT
10
46.3673
20
17.2857
0
VERTEX
8
CUT
10
46.1633
20
15.8571
0
VERTEX
8
CUT
10
46.0408
20
14.4286
0
VERTEX
8
CUT
10
46
20
13
0
VERTEX
8
CUT
10
46.0408
20
11.5714
0
VERTEX
8
CUT
10
46.1633
20
10.1429
0
VERTEX
8
CUT
10
46.3673
20
8.7143
0
VERTEX
8
CUT
10
46.6531
20
7.2857
0
VERTEX
8
CUT
10
47.0204
20
5.8571
0
VERTEX
8
CUT
10
47.4694
20
4.4286
0
VERTEX
8
CUT
10
48
20
3
0
SEQEND
0
POLYLINE
8
CUT
66
1
70
0
0
VERTEX
8
CUT
10
56
20
68
0
VERTEX
8
CUT
10
56
20
68
0
VERTEX
8
CUT
10
55.9592
20
66.5714
0
VERTEX
8
CUT
10
55.8367
20
65.1429
0
VERTEX
8
CUT
10
55.6327
20
63.7143
0
VERTEX
8
CUT
10
55.3469
20
62.2857
0
VERTEX
8
CUT
10
54.9796
20
60.8571
0
VERTEX
8
CUT
10
54.5306
20
59.4286
0
VERTEX
8
CUT
10
54
20
58
0
SEQEND
0
POLYLINE
8
CUT
66
1
70
0
0
VERTEX
8
CUT
10
54
20
56
0
VERTEX
8
CUT
10
54.5306
20
54.5714
0
VERTEX
8
CUT
10
54.9796
20
53.1429
0
VERTEX
8
CUT
10
55.3469
20
51.7143
0
VERTEX
8
CUT
10
55.6327
20
50.2857
0
VERTEX
8
CUT
10
55.8367
20
48.8571
0
VERTEX
8
CUT
10
55.9592
20
47.4286
0
VERTEX
8
CUT
10
56
20
46
0
VERTEX
8
CUT
10
55.9592
20
44.5714
0
VERTEX
8
CUT
10
55.8367
20
43.1429
0
VERTEX
8
CUT
10
55.6327
20
41.7143
0
VERTEX
8
CUT
10
55.3469
20
40.2857
0
VERTEX
8
CUT
10
54.9796
20
38.8571
0
VERTEX
8
CUT
10
54.5306
20
37.4286
0
VERTEX
8
CUT
10
54
20
36
0
SEQEND
0
POLYLINE
8
CUT
66
1
70
0
0
VERTEX
8
CUT
10
54
20
34
0
VERTEX
8
CUT
10
54.5306
20
32.5714
0
VERTEX
8
CUT
10
54.9796
20
31.1429
0
VERTEX
8
CUT
10
55.3469
20
29.7143
0
VERTEX
8
CUT
10
55.6327
20
28.2857
0
VERTEX
8
CUT
10
55.8367
20
26.8571
0
VERTEX
8
CUT
10
55.9592
20
25.4286
0
VERTEX
8
CUT
10
56
20
24
0
VERTEX
8
CUT
10
55.9592
20
22.5714
0
VERTEX
8
CUT
10
55.8367
20
21.1429
0
VERTEX
8
CUT
10
55.6327
20
19.7143
0
VERTEX
8
CUT
10
55.3469
20
18.2857
0
VERTEX
8
CUT
10
54.9796
20
16.8571
0
VERTEX
8
CUT
10
54.5306
20
15.4286
0
VERTEX
8
CUT
10
54
20
14
0
SEQEND
0
POLYLINE
8
CUT
66
1
70
0
0
VERTEX
8
CUT
10
54
20
12
0
VERTEX
8
CUT
10
54.5306
20
10.5714
0
VERTEX
8
CUT
10
54.9796
20
9.1429
0
VERTEX
8
CUT
10
55.3469
20
7.7143
0
VERTEX
8
CUT
10
55.6327
20
6.2857
0
VERTEX
8
CUT
10
55.8367
20
4.8571
0
VERTEX
8
CUT
10
55.9592
20
3.4286
0
VERTEX
8
CUT
10
56
20
2
0
VERTEX
8
CUT
10
56
20
2
0
SEQEND
0
POLYLINE
8
CUT
66
1
70
0
0
VERTEX
8
CUT
10
60
20
67
0
VERTEX
8
CUT
10
59.4694
20
65.5714
0
VERTEX
8
CUT
10
59.0204
20
64.1429
0
VERTEX
8
CUT
10
58.6531
20
62.7143
0
VERTEX
8
CUT
10
58.3673
20
61.2857
0
VERTEX
8
CUT
10
58.1633
20
59.8571
0
VERTEX
8
CUT
10
58.0408
20
58.4286
0
VERTEX
8
CUT
10
58
20
57
0
VERTEX
8
CUT
10
58.0408
20
55.5714
0
VERTEX
8
CUT
10
58.1633
20
54.1429
0
VERTEX
8
CUT
10
58.3673
20
52.7143
0
VERTEX
8
CUT
10
58.6531
20
51.2857
0
VERTEX
8
CUT
10
59.0204
20
49.8571
0
VERTEX
8
CUT
10
59.4694
20
48.4286
0
VERTEX
8
CUT
10
60
20
47
0
SEQEND
0
POLYLINE
8
CUT
66
1
70
0
0
VERTEX
8
CUT
10
60
20
45
0
VERTEX
8
CUT
10
59.4694
20
43.5714
0
VERTEX
8
CUT
10
59.0204
20
42.1429
0
VERTEX
8
CUT
10
58.6531
20
40.7143
0
VERTEX
8
CUT
10
58.3673
20
39.2857
0
VERTEX
8
CUT
10
58.1633
20
37.8571
0
VERTEX
8
CUT
10
58.0408
20
36.4286
0
VERTEX
8
CUT
10
58
20
35
0
VERTEX
8
CUT
10
58.0408
20
33.5714
0
VERTEX
8
CUT
10
58.1633
20
32.1429
0
VERTEX
8
CUT
10
58.3673
20
30.7143
0
VERTEX
8
CUT
10
58.6531
20
29.2857
0
VERTEX
8
CUT
10
59.0204
20
27.8571
0
VERTEX
8
CUT
10
59.4694
20
26.4286
0
VERTEX
8
CUT
10
60
20
25
0
SEQEND
0
POLYLINE
8
CUT
66
1
70
0
0
VERTEX
8
CUT
10
60
20
23
0
VERTEX
8
CUT
10
59.4694
20
21.5714
0
VERTEX
8
CUT
10
59.0204
20
20.1429
0
VERTEX
8
CUT
10
58.6531
20
18.7143
0
VERTEX
8
CUT
10
58.3673
20
17.2857
0
VERTEX
8
CUT
10
58.1633
20
15.8571
0
VERTEX
8
CUT
10
58.0408
20
14.4286
0
VERTEX
8
CUT
10
58
20
13
0
VERTEX
8
CUT
10
58.0408
20
11.5714
0
VERTEX
8
CUT
10
58.1633
20
10.1429
0
VERTEX
8
CUT
10
58.3673
20
8.7143
0
VERTEX
8
CUT
10
58.6531
20
7.2857
0
VERTEX
8
CUT
10
59.0204
20
5.8571
0
VERTEX
8
CUT
10
59.4694
20
4.4286
0
VERTEX
8
CUT
10
60
20
3
0
SEQEND
0
POLYLINE
8
CUT
66
1
70
0
0
VERTEX
8
CUT
10
68
20
68
0
VERTEX
8
CUT
10
68
20
68
0
VERTEX
8
CUT
10
67.9592
20
66.5714
0
VERTEX
8
CUT
10
67.8367
20
65.1429
0
VERTEX
8
CUT
10
67.6327
20
63.7143
0
VERTEX
8
CUT
10
67.3469
20
62.2857
0
VERTEX
8
CUT
10
66.9796
20
60.8571
0
VERTEX
8
CUT
10
66.5306
20
59.4286
0
VERTEX
8
CUT
10
66
20
58
0
SEQEND
0
POLYLINE
8
CUT
66
1
70
0
0
VERTEX
8
CUT
10
66
20
56
0
VERTEX
8
CUT
10
66.5306
20
54.5714
0
VERTEX
8
CUT
10
66.9796
20
53.1429
0
VERTEX
8
CUT
10
67.3469
20
51.7143
0
VERTEX
8
CUT
10
67.6327
20
50.2857
0
VERTEX
8
CUT
10
67.8367
20
48.8571
0
VERTEX
8
CUT
10
67.9592
20
47.4286
0
VERTEX
8
CUT
10
68
20
46
0
VERTEX
8
CUT
10
67.9592
20
44.5714
0
VERTEX
8
CUT
10
67.8367
20
43.1429
0
VERTEX
8
CUT
10
67.6327
20
41.7143
0
VERTEX
8
CUT
10
67.3469
20
40.2857
0
VERTEX
8
CUT
10
66.9796
20
38.8571
0
VERTEX
8
CUT
10
66.5306
20
37.4286
0
VERTEX
8
CUT
10
66
20
36
0
SEQEND
0
POLYLINE
8
CUT
66
1
70
0
0
VERTEX
8
CUT
10
66
20
34
0
VERTEX
8
CUT
10
66.5306
20
32.5714
0
VERTEX
8
CUT
10
66.9796
20
31.1429
0
VERTEX
8
CUT
10
67.3469
20
29.7143
0
VERTEX
8
CUT
10
67.6327
20
28.2857
0
VERTEX
8
CUT
10
67.8367
20
26.8571
0
VERTEX
8
CUT
10
67.9592
20
25.4286
0
VERTEX
8
CUT
10
68
20
24
0
VERTEX
8
CUT
10
67.9592
20
22.5714
0
VERTEX
8
CUT
10
67.8367
20
21.1429
0
VERTEX
8
CUT
10
67.6327
20
19.7143
0
VERTEX
8
CUT
10
67.3469
20
18.2857
0
VERTEX
8
CUT
10
66.9796
20
16.8571
0
VERTEX
8
CUT
10
66.5306
20
15.4286
0
VERTEX
8
CUT
10
66
20
14
0
SEQEND
0
POLYLINE
8
CUT
66
1
70
0
0
VERTEX
8
CUT
10
66
20
12
0
VERTEX
8
CUT
10
66.5306
20
10.5714
0
VERTEX
8
CUT
10
66.9796
20
9.1429
0
VERTEX
8
CUT
10
67.3469
20
7.7143
0
VERTEX
8
CUT
10
67.6327
20
6.2857
0
VERTEX
8
CUT
10
67.8367
20
4.8571
0
VERTEX
8
CUT
10
67.9592
20
3.4286
0
VERTEX
8
CUT
10
68
20
2
0
VERTEX
8
CUT
10
68
20
2
0
SEQEND
0
POLYLINE
8
CUT
66
1
70
0
0
VERTEX
8
CUT
10
72
20
67
0
VERTEX
8
CUT
10
71.4694
20
65.5714
0
VERTEX
8
CUT
10
71.0204
20
64.1429
0
VERTEX
8
CUT
10
70.6531
20
62.7143
0
VERTEX
8
CUT
10
70.3673
20
61.2857
0
VERTEX
8
CUT
10
70.1633
20
59.8571
0
VERTEX
8
CUT
10
70.0408
20
58.4286
0
VERTEX
8
CUT
10
70
20
57
0
VERTEX
8
CUT
10
70.0408
20
55.5714
0
VERTEX
8
CUT
10
70.1633
20
54.1429
0
VERTEX
8
CUT
10
70.3673
20
52.7143
0
VERTEX
8
CUT
10
70.6531
20
51.2857
0
VERTEX
8
CUT
10
71.0204
20
49.8571
0
VERTEX
8
CUT
10
71.4694
20
48.4286
0
VERTEX
8
CUT
10
72
20
47
0
SEQEND
0
POLYLINE
8
CUT
66
1
70
0
0
VERTEX
8
CUT
10
72
20
45
0
VERTEX
8
CUT
10
71.4694
20
43.5714
0
VERTEX
8
CUT
10
71.0204
20
42.1429
0
VERTEX
8
CUT
10
70.6531
20
40.7143
0
VERTEX
8
CUT
10
70.3673
20
39.2857
0
VERTEX
8
CUT
10
70.1633
20
37.8571
0
VERTEX
8
CUT
10
70.0408
20
36.4286
0
VERTEX
8
CUT
10
70
20
35
0
VERTEX
8
CUT
10
70.0408
20
33.5714
0
VERTEX
8
CUT
10
70.1633
20
32.1429
0
VERTEX
8
CUT
10
70.3673
20
30.7143
0
VERTEX
8
CUT
10
70.6531
20
29.2857
0
VERTEX
8
CUT
10
71.0204
20
27.8571
0
VERTEX
8
CUT
10
71.4694
20
26.4286
0
VERTEX
8
CUT
10
72
20
25
0
SEQEND
0
POLYLINE
8
CUT
66
1
70
0
0
VERTEX
8
CUT
10
72
20
23
0
VERTEX
8
CUT
10
71.4694
20
21.5714
0
VERTEX
8
CUT
10
71.0204
20
20.1429
0
VERTEX
8
CUT
10
70.6531
20
18.7143
0
VERTEX
8
CUT
10
70.3673
20
17.2857
0
VERTEX
8
CUT
10
70.1633
20
15.8571
0
VERTEX
8
CUT
10
70.0408
20
14.4286
0
VERTEX
8
CUT
10
70
20
13
0
VERTEX
8
CUT
10
70.0408
20
11.5714
0
VERTEX
8
CUT
10
70.1633
20
10.1429
0
VERTEX
8
CUT
10
70.3673
20
8.7143
0
VERTEX
8
CUT
10
70.6531
20
7.2857
0
VERTEX
8
CUT
10
71.0204
20
5.8571
0
VERTEX
8
CUT
10
71.4694
20
4.4286
0
VERTEX
8
CUT
10
72
20
3
0
SEQEND
0
POLYLINE
8
CUT
66
1
70
0
0
VERTEX
8
CUT
10
80
20
68
0
VERTEX
8
CUT
10
80
20
68
0
VERTEX
8
CUT
10
79.9592
20
66.5714
0
VERTEX
8
CUT
10
79.8367
20
65.1429
0
VERTEX
8
CUT
10
79.6327
20
63.7143
0
VERTEX
8
CUT
10
79.3469
20
62.2857
0
VERTEX
8
CUT
10
78.9796
20
60.8571
0
VERTEX
8
CUT
10
78.5306
20
59.4286
0
VERTEX
8
CUT
10
78
20
58
0
SEQEND
0
POLYLINE
8
CUT
66
1
70
0
0
VERTEX
8
CUT
10
78
20
56
0
VERTEX
8
CUT
10
78.5306
20
54.5714
0
VERTEX
8
CUT
10
78.9796
20
53.1429
0
VERTEX
8
CUT
10
79.3469
20
51.7143
0
VERTEX
8
CUT
10
79.6327
20
50.2857
0
VERTEX
8
CUT
10
79.8367
20
48.8571
0
VERTEX
8
CUT
10
79.9592
20
47.4286
0
VERTEX
8
CUT
10
80
20
46
0
VERTEX
8
CUT
10
79.9592
20
44.5714
0
VERTEX
8
CUT
10
79.8367
20
43.1429
0
VERTEX
8
CUT
10
79.6327
20
41.7143
0
VERTEX
8
CUT
10
79.3469
20
40.2857
0
VERTEX
8
CUT
10
78.9796
20
38.8571
0
VERTEX
8
CUT
10
78.5306
20
37.4286
0
VERTEX
8
CUT
10
78
20
36
0
SEQEND
0
POLYLINE
8
CUT
66
1
70
0
0
VERTEX
8
CUT
10
78
20
34
0
VERTEX
8
CUT
10
78.5306
20
32.5714
0
VERTEX
8
CUT
10
78.9796
20
31.1429
0
VERTEX
8
CUT
10
79.3469
20
29.7143
0
VERTEX
8
CUT
10
79.6327
20
28.2857
0
VERTEX
8
CUT
10
79.8367
20
26.8571
0
VERTEX
8
CUT
10
79.9592
20
25.4286
0
VERTEX
8
CUT
10
80
20
24
0
VERTEX
8
CUT
10
79.9592
20
22.5714
0
VERTEX
8
CUT
10
79.8367
20
21.1429
0
VERTEX
8
CUT
10
79.6327
20
19.7143
0
VERTEX
8
CUT
10
79.3469
20
18.2857
0
VERTEX
8
CUT
10
78.9796
20
16.8571
0
VERTEX
8
CUT
10
78.5306
20
15.4286
0
VERTEX
8
CUT
10
78
20
14
0
SEQEND
0
POLYLINE
8
CUT
66
1
70
0
0
VERTEX
8
CUT
10
78
20
12
0
VERTEX
8
CUT
10
78.5306
20
10.5714
0
VERTEX
8
CUT
10
78.9796
20
9.1429
0
VERTEX
8
CUT
10
79.3469
20
7.7143
0
VERTEX
8
CUT
10
79.6327
20
6.2857
0
VERTEX
8
CUT
10
79.8367
20
4.8571
0
VERTEX
8
CUT
10
79.9592
20
3.4286
0
VERTEX
8
CUT
10
80
20
2
0
VERTEX
8
CUT
10
80
20
2
0
SEQEND
0
POLYLINE
8
CUT
66
1
70
0
0
VERTEX
8
CUT
10
84
20
67
0
VERTEX
8
CUT
10
83.4694
20
65.5714
0
VERTEX
8
CUT
10
83.0204
20
64.1429
0
VERTEX
8
CUT
10
82.6531
20
62.7143
0
VERTEX
8
CUT
10
82.3673
20
61.2857
0
VERTEX
8
CUT
10
82.1633
20
59.8571
0
VERTEX
8
CUT
10
82.0408
20
58.4286
0
VERTEX
8
CUT
10
82
20
57
0
VERTEX
8
CUT
10
82.0408
20
55.5714
0
VERTEX
8
CUT
10
82.1633
20
54.1429
0
VERTEX
8
CUT
10
82.3673
20
52.7143
0
VERTEX
8
CUT
10
82.6531
20
51.2857
0
VERTEX
8
CUT
10
83.0204
20
49.8571
0
VERTEX
8
CUT
10
83.4694
20
48.4286
0
VERTEX
8
CUT
10
84
20
47
0
SEQEND
0
POLYLINE
8
CUT
66
1
70
0
0
VERTEX
8
CUT
10
84
20
45
0
VERTEX
8
CUT
10
83.4694
20
43.5714
0
VERTEX
8
CUT
10
83.0204
20
42.1429
0
VERTEX
8
CUT
10
82.6531
20
40.7143
0
VERTEX
8
CUT
10
82.3673
20
39.2857
0
VERTEX
8
CUT
10
82.1633
20
37.8571
0
VERTEX
8
CUT
10
82.0408
20
36.4286
0
VERTEX
8
CUT
10
82
20
35
0
VERTEX
8
CUT
10
82.0408
20
33.5714
0
VERTEX
8
CUT
10
82.1633
20
32.1429
0
VERTEX
8
CUT
10
82.3673
20
30.7143
0
VERTEX
8
CUT
10
82.6531
20
29.2857
0
VERTEX
8
CUT
10
83.0204
20
27.8571
0
VERTEX
8
CUT
10
83.4694
20
26.4286
0
VERTEX
8
CUT
10
84
20
25
0
SEQEND
0
POLYLINE
8
CUT
66
1
70
0
0
VERTEX
8
CUT
10
84
20
23
0
VERTEX
8
CUT
10
83.4694
20
21.5714
0
VERTEX
8
CUT
10
83.0204
20
20.1429
0
VERTEX
8
CUT
10
82.6531
20
18.7143
0
VERTEX
8
CUT
10
82.3673
20
17.2857
0
VERTEX
8
CUT
10
82.1633
20
15.8571
0
VERTEX
8
CUT
10
82.0408
20
14.4286
0
VERTEX
8
CUT
10
82
20
13
0
VERTEX
8
CUT
10
82.0408
20
11.5714
0
VERTEX
8
CUT
10
82.1633
20
10.1429
0
VERTEX
8
CUT
10
82.3673
20
8.7143
0
VERTEX
8
CUT
10
82.6531
20
7.2857
0
VERTEX
8
CUT
10
83.0204
20
5.8571
0
VERTEX
8
CUT
10
83.4694
20
4.4286
0
VERTEX
8
CUT
10
84
20
3
0
SEQEND
0
POLYLINE
8
CUT
66
1
70
0
0
VERTEX
8
CUT
10
92
20
68
0
VERTEX
8
CUT
10
92
20
68
0
VERTEX
8
CUT
10
91.9592
20
66.5714
0
VERTEX
8
CUT
10
91.8367
20
65.1429
0
VERTEX
8
CUT
10
91.6327
20
63.7143
0
VERTEX
8
CUT
10
91.3469
20
62.2857
0
VERTEX
8
CUT
10
90.9796
20
60.8571
0
VERTEX
8
CUT
10
90.5306
20
59.4286
0
VERTEX
8
CUT
10
90
20
58
0
SEQEND
0
POLYLINE
8
CUT
66
1
70
0
0
VERTEX
8
CUT
10
90
20
56
0
VERTEX
8
CUT
10
90.5306
20
54.5714
0
VERTEX
8
CUT
10
90.9796
20
53.1429
0
VERTEX
8
CUT
10
91.3469
20
51.7143
0
VERTEX
8
CUT
10
91.6327
20
50.2857
0
VERTEX
8
CUT
10
91.8367
20
48.8571
0
VERTEX
8
CUT
10
91.9592
20
47.4286
0
VERTEX
8
CUT
10
92
20
46
0
VERTEX
8
CUT
10
91.9592
20
44.5714
0
VERTEX
8
CUT
10
91.8367
20
43.1429
0
VERTEX
8
CUT
10
91.6327
20
41.7143
0
VERTEX
8
CUT
10
91.3469
20
40.2857
0
VERTEX
8
CUT
10
90.9796
20
38.8571
0
VERTEX
8
CUT
10
90.5306
20
37.4286
0
VERTEX
8
CUT
10
90
20
36
0
SEQEND
0
POLYLINE
8
CUT
66
1
70
0
0
VERTEX
8
CUT
10
90
20
34
0
VERTEX
8
CUT
10
90.5306
20
32.5714
0
VERTEX
8
CUT
10
90.9796
20
31.1429
0
VERTEX
8
CUT
10
91.3469
20
29.7143
0
VERTEX
8
CUT
10
91.6327
20
28.2857
0
VERTEX
8
CUT
10
91.8367
20
26.8571
0
VERTEX
8
CUT
10
91.9592
20
25.4286
0
VERTEX
8
CUT
10
92
20
24
0
VERTEX
8
CUT
10
91.9592
20
22.5714
0
VERTEX
8
CUT
10
91.8367
20
21.1429
0
VERTEX
8
CUT
10
91.6327
20
19.7143
0
VERTEX
8
CUT
10
91.3469
20
18.2857
0
VERTEX
8
CUT
10
90.9796
20
16.8571
0
VERTEX
8
CUT
10
90.5306
20
15.4286
0
VERTEX
8
CUT
10
90
20
14
0
SEQEND
0
POLYLINE
8
CUT
66
1
70
0
0
VERTEX
8
CUT
10
90
20
12
0
VERTEX
8
CUT
10
90.5306
20
10.5714
0
VERTEX
8
CUT
10
90.9796
20
9.1429
0
VERTEX
8
CUT
10
91.3469
20
7.7143
0
VERTEX
8
CUT
10
91.6327
20
6.2857
0
VERTEX
8
CUT
10
91.8367
20
4.8571
0
VERTEX
8
CUT
10
91.9592
20
3.4286
0
VERTEX
8
CUT
10
92
20
2
0
VERTEX
8
CUT
10
92
20
2
0
SEQEND
0
POLYLINE
8
CUT
66
1
70
0
0
VERTEX
8
CUT
10
96
20
67
0
VERTEX
8
CUT
10
95.4694
20
65.5714
0
VERTEX
8
CUT
10
95.0204
20
64.1429
0
VERTEX
8
CUT
10
94.6531
20
62.7143
0
VERTEX
8
CUT
10
94.3673
20
61.2857
0
VERTEX
8
CUT
10
94.1633
20
59.8571
0
VERTEX
8
CUT
10
94.0408
20
58.4286
0
VERTEX
8
CUT
10
94
20
57
0
VERTEX
8
CUT
10
94.0408
20
55.5714
0
VERTEX
8
CUT
10
94.1633
20
54.1429
0
VERTEX
8
CUT
10
94.3673
20
52.7143
0
VERTEX
8
CUT
10
94.6531
20
51.2857
0
VERTEX
8
CUT
10
95.0204
20
49.8571
0
VERTEX
8
CUT
10
95.4694
20
48.4286
0
VERTEX
8
CUT
10
96
20
47
0
SEQEND
0
POLYLINE
8
CUT
66
1
70
0
0
VERTEX
8
CUT
10
96
20
45
0
VERTEX
8
CUT
10
95.4694
20
43.5714
0
VERTEX
8
CUT
10
95.0204
20
42.1429
0
VERTEX
8
CUT
10
94.6531
20
40.7143
0
VERTEX
8
CUT
10
94.3673
20
39.2857
0
VERTEX
8
CUT
10
94.1633
20
37.8571
0
VERTEX
8
CUT
10
94.0408
20
36.4286
0
VERTEX
8
CUT
10
94
20
35
0
VERTEX
8
CUT
10
94.0408
20
33.5714
0
VERTEX
8
CUT
10
94.1633
20
32.1429
0
VERTEX
8
CUT
10
94.3673
20
30.7143
0
VERTEX
8
CUT
10
94.6531
20
29.2857
0
VERTEX
8
CUT
10
95.0204
20
27.8571
0
VERTEX
8
CUT
10
95.4694
20
26.4286
0
VERTEX
8
CUT
10
96
20
25
0
SEQEND
0
POLYLINE
8
CUT
66
1
70
0
0
VERTEX
8
CUT
10
96
20
23
0
VERTEX
8
CUT
10
95.4694
20
21.5714
0
VERTEX
8
CUT
10
95.0204
20
20.1429
0
VERTEX
8
CUT
10
94.6531
20
18.7143
0
VERTEX
8
CUT
10
94.3673
20
17.2857
0
VERTEX
8
CUT
10
94.1633
20
15.8571
0
VERTEX
8
CUT
10
94.0408
20
14.4286
0
VERTEX
8
CUT
10
94
20
13
0
VERTEX
8
CUT
10
94.0408
20
11.5714
0
VERTEX
8
CUT
10
94.1633
20
10.1429
0
VERTEX
8
CUT
10
94.3673
20
8.7143
0
VERTEX
8
CUT
10
94.6531
20
7.2857
0
VERTEX
8
CUT
10
95.0204
20
5.8571
0
VERTEX
8
CUT
10
95.4694
20
4.4286
0
VERTEX
8
CUT
10
96
20
3
0
SEQEND
0
POLYLINE
8
CUT
66
1
70
0
0
VERTEX
8
CUT
10
104
20
68
0
VERTEX
8
CUT
10
104
20
68
0
VERTEX
8
CUT
10
103.9592
20
66.5714
0
VERTEX
8
CUT
10
103.8367
20
65.1429
0
VERTEX
8
CUT
10
103.6327
20
63.7143
0
VERTEX
8
CUT
10
103.3469
20
62.2857
0
VERTEX
8
CUT
10
102.9796
20
60.8571
0
VERTEX
8
CUT
10
102.5306
20
59.4286
0
VERTEX
8
CUT
10
102
20
58
0
SEQEND
0
POLYLINE
8
CUT
66
1
70
0
0
VERTEX
8
CUT
10
102
20
56
0
VERTEX
8
CUT
10
102.5306
20
54.5714
0
VERTEX
8
CUT
10
102.9796
20
53.1429
0
VERTEX
8
CUT
10
103.3469
20
51.7143
0
VERTEX
8
CUT
10
103.6327
20
50.2857
0
VERTEX
8
CUT
10
103.8367
20
48.8571
0
VERTEX
8
CUT
10
103.9592
20
47.4286
0
VERTEX
8
CUT
10
104
20
46
0
VERTEX
8
CUT
10
103.9592
20
44.5714
0
VERTEX
8
CUT
10
103.8367
20
43.1429
0
VERTEX
8
CUT
10
103.6327
20
41.7143
0
VERTEX
8
CUT
10
103.3469
20
40.2857
0
VERTEX
8
CUT
10
102.9796
20
38.8571
0
VERTEX
8
CUT
10
102.5306
20
37.4286
0
VERTEX
8
CUT
10
102
20
36
0
SEQEND
0
POLYLINE
8
CUT
66
1
70
0
0
VERTEX
8
CUT
10
102
20
34
0
VERTEX
8
CUT
10
102.5306
20
32.5714
0
VERTEX
8
CUT
10
102.9796
20
31.1429
0
VERTEX
8
CUT
10
103.3469
20
29.7143
0
VERTEX
8
CUT
10
103.6327
20
28.2857
0
VERTEX
8
CUT
10
103.8367
20
26.8571
0
VERTEX
8
CUT
10
103.9592
20
25.4286
0
VERTEX
8
CUT
10
104
20
24
0
VERTEX
8
CUT
10
103.9592
20
22.5714
0
VERTEX
8
CUT
10
103.8367
20
21.1429
0
VERTEX
8
CUT
10
103.6327
20
19.7143
0
VERTEX
8
CUT
10
103.3469
20
18.2857
0
VERTEX
8
CUT
10
102.9796
20
16.8571
0
VERTEX
8
CUT
10
102.5306
20
15.4286
0
VERTEX
8
CUT
10
102
20
14
0
SEQEND
0
POLYLINE
8
CUT
66
1
70
0
0
VERTEX
8
CUT
10
102
20
12
0
VERTEX
8
CUT
10
102.5306
20
10.5714
0
VERTEX
8
CUT
10
102.9796
20
9.1429
0
VERTEX
8
CUT
10
103.3469
20
7.7143
0
VERTEX
8
CUT
10
103.6327
20
6.2857
0
VERTEX
8
CUT
10
103.8367
20
4.8571
0
VERTEX
8
CUT
10
103.9592
20
3.4286
0
VERTEX
8
CUT
10
104
20
2
0
VERTEX
8
CUT
10
104
20
2
0
SEQEND
0
POLYLINE
8
CUT
66
1
70
0
0
VERTEX
8
CUT
10
108
20
67
0
VERTEX
8
CUT
10
107.4694
20
65.5714
0
VERTEX
8
CUT
10
107.0204
20
64.1429
0
VERTEX
8
CUT
10
106.6531
20
62.7143
0
VERTEX
8
CUT
10
106.3673
20
61.2857
0
VERTEX
8
CUT
10
106.1633
20
59.8571
0
VERTEX
8
CUT
10
106.0408
20
58.4286
0
VERTEX
8
CUT
10
106
20
57
0
VERTEX
8
CUT
10
106.0408
20
55.5714
0
VERTEX
8
CUT
10
106.1633
20
54.1429
0
VERTEX
8
CUT
10
106.3673
20
52.7143
0
VERTEX
8
CUT
10
106.6531
20
51.2857
0
VERTEX
8
CUT
10
107.0204
20
49.8571
0
VERTEX
8
CUT
10
107.4694
20
48.4286
0
VERTEX
8
CUT
10
108
20
47
0
SEQEND
0
POLYLINE
8
CUT
66
1
70
0
0
VERTEX
8
CUT
10
108
20
45
0
VERTEX
8
CUT
10
107.4694
20
43.5714
0
VERTEX
8
CUT
10
107.0204
20
42.1429
0
VERTEX
8
CUT
10
106.6531
20
40.7143
0
VERTEX
8
CUT
10
106.3673
20
39.2857
0
VERTEX
8
CUT
10
106.1633
20
37.8571
0
VERTEX
8
CUT
10
106.0408
20
36.4286
0
VERTEX
8
CUT
10
106
20
35
0
VERTEX
8
CUT
10
106.0408
20
33.5714
0
VERTEX
8
CUT
10
106.1633
20
32.1429
0
VERTEX
8
CUT
10
106.3673
20
30.7143
0
VERTEX
8
CUT
10
106.6531
20
29.2857
0
VERTEX
8
CUT
10
107.0204
20
27.8571
0
VERTEX
8
CUT
10
107.4694
20
26.4286
0
VERTEX
8
CUT
10
108
20
25
0
SEQEND
0
POLYLINE
8
CUT
66
1
70
0
0
VERTEX
8
CUT
10
108
20
23
0
VERTEX
8
CUT
10
107.4694
20
21.5714
0
VERTEX
8
CUT
10
107.0204
20
20.1429
0
VERTEX
8
CUT
10
106.6531
20
18.7143
0
VERTEX
8
CUT
10
106.3673
20
17.2857
0
VERTEX
8
CUT
10
106.1633
20
15.8571
0
VERTEX
8
CUT
10
106.0408
20
14.4286
0
VERTEX
8
CUT
10
106
20
13
0
VERTEX
8
CUT
10
106.0408
20
11.5714
0
VERTEX
8
CUT
10
106.1633
20
10.1429
0
VERTEX
8
CUT
10
106.3673
20
8.7143
0
VERTEX
8
CUT
10
106.6531
20
7.2857
0
VERTEX
8
CUT
10
107.0204
20
5.8571
0
VERTEX
8
CUT
10
107.4694
20
4.4286
0
VERTEX
8
CUT
10
108
20
3
0
SEQEND
0
POLYLINE
8
CUT
66
1
70
0
0
VERTEX
8
CUT
10
116
20
68
0
VERTEX
8
CUT
10
116
20
68
0
VERTEX
8
CUT
10
115.9592
20
66.5714
0
VERTEX
8
CUT
10
115.8367
20
65.1429
0
VERTEX
8
CUT
10
115.6327
20
63.7143
0
VERTEX
8
CUT
10
115.3469
20
62.2857
0
VERTEX
8
CUT
10
114.9796
20
60.8571
0
VERTEX
8
CUT
10
114.5306
20
59.4286
0
VERTEX
8
CUT
10
114
20
58
0
SEQEND
0
POLYLINE
8
CUT
66
1
70
0
0
VERTEX
8
CUT
10
114
20
56
0
VERTEX
8
CUT
10
114.5306
20
54.5714
0
VERTEX
8
CUT
10
114.9796
20
53.1429
0
VERTEX
8
CUT
10
115.3469
20
51.7143
0
VERTEX
8
CUT
10
115.6327
20
50.2857
0
VERTEX
8
CUT
10
115.8367
20
48.8571
0
VERTEX
8
CUT
10
115.9592
20
47.4286
0
VERTEX
8
CUT
10
116
20
46
0
VERTEX
8
CUT
10
115.9592
20
44.5714
0
VERTEX
8
CUT
10
115.8367
20
43.1429
0
VERTEX
8
CUT
10
115.6327
20
41.7143
0
VERTEX
8
CUT
10
115.3469
20
40.2857
0
VERTEX
8
CUT
10
114.9796
20
38.8571
0
VERTEX
8
CUT
10
114.5306
20
37.4286
0
VERTEX
8
CUT
10
114
20
36
0
SEQEND
0
POLYLINE
8
CUT
66
1
70
0
0
VERTEX
8
CUT
10
114
20
34
0
VERTEX
8
CUT
10
114.5306
20
32.5714
0
VERTEX
8
CUT
10
114.9796
20
31.1429
0
VERTEX
8
CUT
10
115.3469
20
29.7143
0
VERTEX
8
CUT
10
115.6327
20
28.2857
0
VERTEX
8
CUT
10
115.8367
20
26.8571
0
VERTEX
8
CUT
10
115.9592
20
25.4286
0
VERTEX
8
CUT
10
116
20
24
0
VERTEX
8
CUT
10
115.9592
20
22.5714
0
VERTEX
8
CUT
10
115.8367
20
21.1429
0
VERTEX
8
CUT
10
115.6327
20
19.7143
0
VERTEX
8
CUT
10
115.3469
20
18.2857
0
VERTEX
8
CUT
10
114.9796
20
16.8571
0
VERTEX
8
CUT
10
114.5306
20
15.4286
0
VERTEX
8
CUT
10
114
20
14
0
SEQEND
0
POLYLINE
8
CUT
66
1
70
0
0
VERTEX
8
CUT
10
114
20
12
0
VERTEX
8
CUT
10
114.5306
20
10.5714
0
VERTEX
8
CUT
10
114.9796
20
9.1429
0
VERTEX
8
CUT
10
115.3469
20
7.7143
0
VERTEX
8
CUT
10
115.6327
20
6.2857
0
VERTEX
8
CUT
10
115.8367
20
4.8571
0
VERTEX
8
CUT
10
115.9592
20
3.4286
0
VERTEX
8
CUT
10
116
20
2
0
VERTEX
8
CUT
10
116
20
2
0
SEQEND
0
POLYLINE
8
CUT
66
1
70
0
0
VERTEX
8
CUT
10
0
20
70
0
VERTEX
8
CUT
10
120
20
70
0
VERTEX
8
CUT
10
120
20
0
0
VERTEX
8
CUT
10
0
20
0
0
VERTEX
8
CUT
10
0
20
70
0
SEQEND
0
ENDSEC
0
EOF
