0
SECTION
2
HEADER
9
$ACADVER
1
AC1009
9
$INSUNITS
70
4
0
ENDSEC
0
SECTION
2
TABLES
0
TABLE
2
LAYER
70
1
0
LAYER
2
CUT
70
0
62
1
6
CONTINUOUS
0
ENDTAB
0
ENDSEC
0
SECTION
2
ENTITIES
0
LINE
8
CUT
10
6
20
68
11
6
21
58
0
LINE
8
CUT
10
6
20
56
11
6
21
36
0
LINE
8
CUT
10
6
20
34
11
6
21
14
0
LINE
8
CUT
10
6
20
12
11
6
21
2
0
LINE
8
CUT
10
12
20
67
11
12
21
47
0
LINE
8
CUT
10
12
20
45
11
12
21
25
0
LINE
8
CUT
10
12
20
23
11
12
21
3
0
LINE
8
CUT
10
18
20
68
11
18
21
58
0
LINE
8
CUT
10
18
20
56
11
18
21
36
0
LINE
8
CUT
10
18
20
34
11
18
21
14
0
LINE
8
CUT
10
18
20
12
11
18
21
2
0
LINE
8
CUT
10
24
20
67
11
24
21
47
0
LINE
8
CUT
10
24
20
45
11
24
21
25
0
LINE
8
CUT
10
24
20
23
11
24
21
3
0
LINE
8
CUT
10
30
20
68
11
30
21
58
0
LINE
8
CUT
10
30
20
56
11
30
21
36
0
LINE
8
CUT
10
30
20
34
11
30
21
14
0
LINE
8
CUT
10
30
20
12
11
30
21
2
0
LINE
8
CUT
10
36
20
67
11
36
21
47
0
LINE
8
CUT
10
36
20
45
11
36
21
25
0
LINE
8
CUT
10
36
20
23
11
36
21
3
0
LINE
8
CUT
10
42
20
68
11
42
21
58
0
LINE
8
CUT
10
42
20
56
11
42
21
36
0
LINE
8
CUT
10
42
20
34
11
42
21
14
0
LINE
8
CUT
10
42
20
12
11
42
21
2
0
LINE
8
CUT
10
48
20
67
11
48
21
47
0
LINE
8
CUT
10
48
20
45
11
48
21
25
0
LINE
8
CUT
10
48
20
23
11
48
21
3
0
LINE
8
CUT
10
54
20
68
11
54
21
58
0
LINE
8
CUT
10
54
20
56
11
54
21
36
0
LINE
8
CUT
10
54
20
34
11
54
21
14
0
LINE
8
CUT
10
54
20
12
11
54
21
2
0
LINE
8
CUT
10
60
20
67
11
60
21
47
0
LINE
8
CUT
10
60
20
45
11
60
21
25
0
LINE
8
CUT
10
60
20
23
11
60
21
3
0
LINE
8
CUT
10
66
20
68
11
66
21
58
0
LINE
8
CUT
10
66
20
56
11
66
21
36
0
LINE
8
CUT
10
66
20
34
11
66
21
14
0
LINE
8
CUT
10
66
20
12
11
66
21
2
0
LINE
8
CUT
10
72
20
67
11
72
21
47
0
LINE
8
CUT
10
72
20
45
11
72
21
25
0
LINE
8
CUT
10
72
20
23
11
72
21
3
0
LINE
8
CUT
10
78
20
68
11
78
21
58
0
LINE
8
CUT
10
78
20
56
11
78
21
36
0
LINE
8
CUT
10
78
20
34
11
78
21
14
0
LINE
8
CUT
10
78
20
12
11
78
21
2
0
LINE
8
CUT
10
84
20
67
11
84
21
47
0
LINE
8
CUT
10
84
20
45
11
84
21
25
0
LINE
8
CUT
10
84
20
23
11
84
21
3
0
LINE
8
CUT
10
90
20
68
11
90
21
58
0
LINE
8
CUT
10
90
20
56
11
90
21
36
0
LINE
8
CUT
10
90
20
34
11
90
21
14
0
LINE
8
CUT
10
90
20
12
11
90
21
2
0
LINE
8
CUT
10
96
20
67
11
96
21
47
0
LINE
8
CUT
10
96
20
45
11
96
21
25
0
LINE
8
CUT
10
96
20
23
11
96
21
3
0
LINE
8
CUT
10
102
20
68
11
102
21
58
0
LINE
8
CUT
10
102
20
56
11
102
21
36
0
LINE
8
CUT
10
102
20
34
11
102
21
14
0
LINE
8
CUT
10
102
20
12
11
102
21
2
0
LINE
8
CUT
10
108
20
67
11
108
21
47
0
LINE
8
CUT
10
108
20
45
11
108
21
25
0
LINE
8
CUT
10
108
20
23
11
108
21
3
0
LINE
8
CUT
10
114
20
68
11
114
21
58
0
LINE
8
CUT
10
114
20
56
11
114
21
36
0
LINE
8
CUT
10
114
20
34
11
114
21
14
0
LINE
8
CUT
10
114
20
12
11
114
21
2
0
POLYLINE
8
CUT
66
1
70
0
0
VERTEX
8
CUT
10
0
20
70
0
VERTEX
8
CUT
10
120
20
70
0
VERTEX
8
CUT
10
120
20
0
0
VERTEX
8
CUT
10
0
20
0
0
VERTEX
8
CUT
10
0
20
70
0
SEQEND
0
ENDSEC
0
EOF
