<?xml version="1.0" encoding="UTF-8"?>
<svg xmlns="http://www.w3.org/2000/svg" width="120mm" height="70mm" viewBox="0 0 120 70">
<g fill="none" stroke="#FF0000" stroke-width="0.1">
<line x1="3" y1="0" x2="3" y2="10"/>
<line x1="3" y1="12" x2="3" y2="32"/>
<line x1="3" y1="34" x2="3" y2="54"/>
<line x1="3" y1="56" x2="3" y2="70"/>
<line x1="9" y1="1" x2="9" y2="21"/>
<line x1="9" y1="23" x2="9" y2="43"/>
<line x1="9" y1="45" x2="9" y2="65"/>
<line x1="9" y1="67" x2="9" y2="70"/>
<line x1="15" y1="0" x2="15" y2="10"/>
<line x1="15" y1="12" x2="15" y2="32"/>
<line x1="15" y1="34" x2="15" y2="54"/>
<line x1="15" y1="56" x2="15" y2="70"/>
<line x1="21" y1="1" x2="21" y2="21"/>
<line x1="21" y1="23" x2="21" y2="43"/>
<line x1="21" y1="45" x2="21" y2="65"/>
<line x1="21" y1="67" x2="21" y2="70"/>
<line x1="27" y1="0" x2="27" y2="10"/>
<line x1="27" y1="12" x2="27" y2="32"/>
<line x1="27" y1="34" x2="27" y2="54"/>
<line x1="27" y1="56" x2="27" y2="70"/>
<line x1="33" y1="1" x2="33" y2="21"/>
<line x1="33" y1="23" x2="33" y2="43"/>
<line x1="33" y1="45" x2="33" y2="65"/>
<line x1="33" y1="67" x2="33" y2="70"/>
<line x1="39" y1="0" x2="39" y2="10"/>
<line x1="39" y1="12" x2="39" y2="32"/>
<line x1="39" y1="34" x2="39" y2="54"/>
<line x1="39" y1="56" x2="39" y2="70"/>
<line x1="45" y1="1" x2="45" y2="21"/>
<line x1="45" y1="23" x2="45" y2="43"/>
<line x1="45" y1="45" x2="45" y2="65"/>
<line x1="45" y1="67" x2="45" y2="70"/>
<line x1="51" y1="0" x2="51" y2="10"/>
<line x1="51" y1="12" x2="51" y2="32"/>
<line x1="51" y1="34" x2="51" y2="54"/>
<line x1="51" y1="56" x2="51" y2="70"/>
<line x1="57" y1="1" x2="57" y2="21"/>
<line x1="57" y1="23" x2="57" y2="43"/>
<line x1="57" y1="45" x2="57" y2="65"/>
<line x1="57" y1="67" x2="57" y2="70"/>
<line x1="63" y1="0" x2="63" y2="10"/>
<line x1="63" y1="12" x2="63" y2="32"/>
<line x1="63" y1="34" x2="63" y2="54"/>
<line x1="63" y1="56" x2="63" y2="70"/>
<line x1="69" y1="1" x2="69" y2="21"/>
<line x1="69" y1="23" x2="69" y2="43"/>
<line x1="69" y1="45" x2="69" y2="65"/>
<line x1="69" y1="67" x2="69" y2="70"/>
<line x1="75" y1="0" x2="75" y2="10"/>
<line x1="75" y1="12" x2="75" y2="32"/>
<line x1="75" y1="34" x2="75" y2="54"/>
<line x1="75" y1="56" x2="75" y2="70"/>
<line x1="81" y1="1" x2="81" y2="21"/>
<line x1="81" y1="23" x2="81" y2="43"/>
<line x1="81" y1="45" x2="81" y2="65"/>
<line x1="81" y1="67" x2="81" y2="70"/>
<line x1="87" y1="0" x2="87" y2="10"/>
<line x1="87" y1="12" x2="87" y2="32"/>
<line x1="87" y1="34" x2="87" y2="54"/>
<line x1="87" y1="56" x2="87" y2="70"/>
<line x1="93" y1="1" x2="93" y2="21"/>
<line x1="93" y1="23" x2="93" y2="43"/>
<line x1="93" y1="45" x2="93" y2="65"/>
<line x1="93" y1="67" x2="93" y2="70"/>
<line x1="99" y1="0" x2="99" y2="10"/>
<line x1="99" y1="12" x2="99" y2="32"/>
<line x1="99" y1="34" x2="99" y2="54"/>
<line x1="99" y1="56" x2="99" y2="70"/>
<line x1="105" y1="1" x2="105" y2="21"/>
<line x1="105" y1="23" x2="105" y2="43"/>
<line x1="105" y1="45" x2="105" y2="65"/>
<line x1="105" y1="67" x2="105" y2="70"/>
<line x1="111" y1="0" x2="111" y2="10"/>
<line x1="111" y1="12" x2="111" y2="32"/>
<line x1="111" y1="34" x2="111" y2="54"/>
<line x1="111" y1="56" x2="111" y2="70"/>
<line x1="117" y1="1" x2="117" y2="21"/>
<line x1="117" y1="23" x2="117" y2="43"/>
<line x1="117" y1="45" x2="117" y2="65"/>
<line x1="117" y1="67" x2="117" y2="70"/>
</g>
</svg>