0
SECTION
2
HEADER
9
$ACADVER
1
AC1009
9
$INSUNITS
70
4
0
ENDSEC
0
SECTION
2
TABLES
0
TABLE
2
LAYER
70
1
0
LAYER
2
CUT
70
0
62
1
6
CONTINUOUS
0
ENDTAB
0
ENDSEC
0
SECTION
2
ENTITIES
0
POLYLINE
8
CUT
66
1
70
0
0
VERTEX
8
CUT
10
0
20
174
0
VERTEX
8
CUT
10
70
20
174
0
VERTEX
8
CUT
10
70
20
144
0
VERTEX
8
CUT
10
0
20
144
0
VERTEX
8
CUT
10
0
20
174
0
SEQEND
0
POLYLINE
8
CUT
66
1
70
0
0
VERTEX
8
CUT
10
8.8682
20
172.8961
0
VERTEX
8
CUT
10
10.8
20
174
0
VERTEX
8
CUT
10
19.2
20
174
0
VERTEX
8
CUT
10
21.1318
20
172.8961
0
SEQEND
0
POLYLINE
8
CUT
66
1
70
0
0
VERTEX
8
CUT
10
8.8682
20
171.9039
0
VERTEX
8
CUT
10
10.8
20
170.8
0
VERTEX
8
CUT
10
19.2
20
170.8
0
VERTEX
8
CUT
10
21.1318
20
171.9039
0
SEQEND
0
POLYLINE
8
CUT
66
1
70
0
0
VERTEX
8
CUT
10
22.8682
20
172.8961
0
VERTEX
8
CUT
10
24.8
20
174
0
VERTEX
8
CUT
10
33.2
20
174
0
VERTEX
8
CUT
10
35.1318
20
172.8961
0
SEQEND
0
POLYLINE
8
CUT
66
1
70
0
0
VERTEX
8
CUT
10
22.8682
20
171.9039
0
VERTEX
8
CUT
10
24.8
20
170.8
0
VERTEX
8
CUT
10
33.2
20
170.8
0
VERTEX
8
CUT
10
35.1318
20
171.9039
0
SEQEND
0
POLYLINE
8
CUT
66
1
70
0
0
VERTEX
8
CUT
10
36.8682
20
172.8961
0
VERTEX
8
CUT
10
38.8
20
174
0
VERTEX
8
CUT
10
47.2
20
174
0
VERTEX
8
CUT
10
49.1318
20
172.8961
0
SEQEND
0
POLYLINE
8
CUT
66
1
70
0
0
VERTEX
8
CUT
10
36.8682
20
171.9039
0
VERTEX
8
CUT
10
38.8
20
170.8
0
VERTEX
8
CUT
10
47.2
20
170.8
0
VERTEX
8
CUT
10
49.1318
20
171.9039
0
SEQEND
0
POLYLINE
8
CUT
66
1
70
0
0
VERTEX
8
CUT
10
50.8682
20
172.8961
0
VERTEX
8
CUT
10
52.8
20
174
0
VERTEX
8
CUT
10
61.2
20
174
0
VERTEX
8
CUT
10
62
20
173.5429
0
SEQEND
0
POLYLINE
8
CUT
66
1
70
0
0
VERTEX
8
CUT
10
50.8682
20
171.9039
0
VERTEX
8
CUT
10
52.8
20
170.8
0
VERTEX
8
CUT
10
61.2
20
170.8
0
VERTEX
8
CUT
10
62
20
171.2571
0
SEQEND
0
POLYLINE
8
CUT
66
1
70
0
0
VERTEX
8
CUT
10
8
20
170
0
VERTEX
8
CUT
10
12.2
20
170
0
VERTEX
8
CUT
10
14.1318
20
168.8961
0
SEQEND
0
POLYLINE
8
CUT
66
1
70
0
0
VERTEX
8
CUT
10
8
20
166.8
0
VERTEX
8
CUT
10
12.2
20
166.8
0
VERTEX
8
CUT
10
14.1318
20
167.9039
0
SEQEND
0
POLYLINE
8
CUT
66
1
70
0
0
VERTEX
8
CUT
10
15.8682
20
168.8961
0
VERTEX
8
CUT
10
17.8
20
170
0
VERTEX
8
CUT
10
26.2
20
170
0
VERTEX
8
CUT
10
28.1318
20
168.8961
0
SEQEND
0
POLYLINE
8
CUT
66
1
70
0
0
VERTEX
8
CUT
10
15.8682
20
167.9039
0
VERTEX
8
CUT
10
17.8
20
166.8
0
VERTEX
8
CUT
10
26.2
20
166.8
0
VERTEX
8
CUT
10
28.1318
20
167.9039
0
SEQEND
0
POLYLINE
8
CUT
66
1
70
0
0
VERTEX
8
CUT
10
29.8682
20
168.8961
0
VERTEX
8
CUT
10
31.8
20
170
0
VERTEX
8
CUT
10
40.2
20
170
0
VERTEX
8
CUT
10
42.1318
20
168.8961
0
SEQEND
0
POLYLINE
8
CUT
66
1
70
0
0
VERTEX
8
CUT
10
29.8682
20
167.9039
0
VERTEX
8
CUT
10
31.8
20
166.8
0
VERTEX
8
CUT
10
40.2
20
166.8
0
VERTEX
8
CUT
10
42.1318
20
167.9039
0
SEQEND
0
POLYLINE
8
CUT
66
1
70
0
0
VERTEX
8
CUT
10
43.8682
20
168.8961
0
VERTEX
8
CUT
10
45.8
20
170
0
VERTEX
8
CUT
10
54.2
20
170
0
VERTEX
8
CUT
10
56.1318
20
168.8961
0
SEQEND
0
POLYLINE
8
CUT
66
1
70
0
0
VERTEX
8
CUT
10
43.8682
20
167.9039
0
VERTEX
8
CUT
10
45.8
20
166.8
0
VERTEX
8
CUT
10
54.2
20
166.8
0
VERTEX
8
CUT
10
56.1318
20
167.9039
0
SEQEND
0
POLYLINE
8
CUT
66
1
70
0
0
VERTEX
8
CUT
10
57.8682
20
168.8961
0
VERTEX
8
CUT
10
59.8
20
170
0
VERTEX
8
CUT
10
62
20
170
0
SEQEND
0
POLYLINE
8
CUT
66
1
70
0
0
VERTEX
8
CUT
10
57.8682
20
167.9039
0
VERTEX
8
CUT
10
59.8
20
166.8
0
VERTEX
8
CUT
10
62
20
166.8
0
SEQEND
0
POLYLINE
8
CUT
66
1
70
0
0
VERTEX
8
CUT
10
8.8682
20
164.8961
0
VERTEX
8
CUT
10
10.8
20
166
0
VERTEX
8
CUT
10
19.2
20
166
0
VERTEX
8
CUT
10
21.1318
20
164.8961
0
SEQEND
0
POLYLINE
8
CUT
66
1
70
0
0
VERTEX
8
CUT
10
8.8682
20
163.9039
0
VERTEX
8
CUT
10
10.8
20
162.8
0
VERTEX
8
CUT
10
19.2
20
162.8
0
VERTEX
8
CUT
10
21.1318
20
163.9039
0
SEQEND
0
POLYLINE
8
CUT
66
1
70
0
0
VERTEX
8
CUT
10
22.8682
20
164.8961
0
VERTEX
8
CUT
10
24.8
20
166
0
VERTEX
8
CUT
10
33.2
20
166
0
VERTEX
8
CUT
10
35.1318
20
164.8961
0
SEQEND
0
POLYLINE
8
CUT
66
1
70
0
0
VERTEX
8
CUT
10
22.8682
20
163.9039
0
VERTEX
8
CUT
10
24.8
20
162.8
0
VERTEX
8
CUT
10
33.2
20
162.8
0
VERTEX
8
CUT
10
35.1318
20
163.9039
0
SEQEND
0
POLYLINE
8
CUT
66
1
70
0
0
VERTEX
8
CUT
10
36.8682
20
164.8961
0
VERTEX
8
CUT
10
38.8
20
166
0
VERTEX
8
CUT
10
47.2
20
166
0
VERTEX
8
CUT
10
49.1318
20
164.8961
0
SEQEND
0
POLYLINE
8
CUT
66
1
70
0
0
VERTEX
8
CUT
10
36.8682
20
163.9039
0
VERTEX
8
CUT
10
38.8
20
162.8
0
VERTEX
8
CUT
10
47.2
20
162.8
0
VERTEX
8
CUT
10
49.1318
20
163.9039
0
SEQEND
0
POLYLINE
8
CUT
66
1
70
0
0
VERTEX
8
CUT
10
50.8682
20
164.8961
0
VERTEX
8
CUT
10
52.8
20
166
0
VERTEX
8
CUT
10
61.2
20
166
0
VERTEX
8
CUT
10
62
20
165.5429
0
SEQEND
0
POLYLINE
8
CUT
66
1
70
0
0
VERTEX
8
CUT
10
50.8682
20
163.9039
0
VERTEX
8
CUT
10
52.8
20
162.8
0
VERTEX
8
CUT
10
61.2
20
162.8
0
VERTEX
8
CUT
10
62
20
163.2571
0
SEQEND
0
POLYLINE
8
CUT
66
1
70
0
0
VERTEX
8
CUT
10
8
20
162
0
VERTEX
8
CUT
10
12.2
20
162
0
VERTEX
8
CUT
10
14.1318
20
160.8961
0
SEQEND
0
POLYLINE
8
CUT
66
1
70
0
0
VERTEX
8
CUT
10
8
20
158.8
0
VERTEX
8
CUT
10
12.2
20
158.8
0
VERTEX
8
CUT
10
14.1318
20
159.9039
0
SEQEND
0
POLYLINE
8
CUT
66
1
70
0
0
VERTEX
8
CUT
10
15.8682
20
160.8961
0
VERTEX
8
CUT
10
17.8
20
162
0
VERTEX
8
CUT
10
26.2
20
162
0
VERTEX
8
CUT
10
28.1318
20
160.8961
0
SEQEND
0
POLYLINE
8
CUT
66
1
70
0
0
VERTEX
8
CUT
10
15.8682
20
159.9039
0
VERTEX
8
CUT
10
17.8
20
158.8
0
VERTEX
8
CUT
10
26.2
20
158.8
0
VERTEX
8
CUT
10
28.1318
20
159.9039
0
SEQEND
0
POLYLINE
8
CUT
66
1
70
0
0
VERTEX
8
CUT
10
29.8682
20
160.8961
0
VERTEX
8
CUT
10
31.8
20
162
0
VERTEX
8
CUT
10
40.2
20
162
0
VERTEX
8
CUT
10
42.1318
20
160.8961
0
SEQEND
0
POLYLINE
8
CUT
66
1
70
0
0
VERTEX
8
CUT
10
29.8682
20
159.9039
0
VERTEX
8
CUT
10
31.8
20
158.8
0
VERTEX
8
CUT
10
40.2
20
158.8
0
VERTEX
8
CUT
10
42.1318
20
159.9039
0
SEQEND
0
POLYLINE
8
CUT
66
1
70
0
0
VERTEX
8
CUT
10
43.8682
20
160.8961
0
VERTEX
8
CUT
10
45.8
20
162
0
VERTEX
8
CUT
10
54.2
20
162
0
VERTEX
8
CUT
10
56.1318
20
160.8961
0
SEQEND
0
POLYLINE
8
CUT
66
1
70
0
0
VERTEX
8
CUT
10
43.8682
20
159.9039
0
VERTEX
8
CUT
10
45.8
20
158.8
0
VERTEX
8
CUT
10
54.2
20
158.8
0
VERTEX
8
CUT
10
56.1318
20
159.9039
0
SEQEND
0
POLYLINE
8
CUT
66
1
70
0
0
VERTEX
8
CUT
10
57.8682
20
160.8961
0
VERTEX
8
CUT
10
59.8
20
162
0
VERTEX
8
CUT
10
62
20
162
0
SEQEND
0
POLYLINE
8
CUT
66
1
70
0
0
VERTEX
8
CUT
10
57.8682
20
159.9039
0
VERTEX
8
CUT
10
59.8
20
158.8
0
VERTEX
8
CUT
10
62
20
158.8
0
SEQEND
0
POLYLINE
8
CUT
66
1
70
0
0
VERTEX
8
CUT
10
8.8682
20
156.8961
0
VERTEX
8
CUT
10
10.8
20
158
0
VERTEX
8
CUT
10
19.2
20
158
0
VERTEX
8
CUT
10
21.1318
20
156.8961
0
SEQEND
0
POLYLINE
8
CUT
66
1
70
0
0
VERTEX
8
CUT
10
8.8682
20
155.9039
0
VERTEX
8
CUT
10
10.8
20
154.8
0
VERTEX
8
CUT
10
19.2
20
154.8
0
VERTEX
8
CUT
10
21.1318
20
155.9039
0
SEQEND
0
POLYLINE
8
CUT
66
1
70
0
0
VERTEX
8
CUT
10
22.8682
20
156.8961
0
VERTEX
8
CUT
10
24.8
20
158
0
VERTEX
8
CUT
10
33.2
20
158
0
VERTEX
8
CUT
10
35.1318
20
156.8961
0
SEQEND
0
POLYLINE
8
CUT
66
1
70
0
0
VERTEX
8
CUT
10
22.8682
20
155.9039
0
VERTEX
8
CUT
10
24.8
20
154.8
0
VERTEX
8
CUT
10
33.2
20
154.8
0
VERTEX
8
CUT
10
35.1318
20
155.9039
0
SEQEND
0
POLYLINE
8
CUT
66
1
70
0
0
VERTEX
8
CUT
10
36.8682
20
156.8961
0
VERTEX
8
CUT
10
38.8
20
158
0
VERTEX
8
CUT
10
47.2
20
158
0
VERTEX
8
CUT
10
49.1318
20
156.8961
0
SEQEND
0
POLYLINE
8
CUT
66
1
70
0
0
VERTEX
8
CUT
10
36.8682
20
155.9039
0
VERTEX
8
CUT
10
38.8
20
154.8
0
VERTEX
8
CUT
10
47.2
20
154.8
0
VERTEX
8
CUT
10
49.1318
20
155.9039
0
SEQEND
0
POLYLINE
8
CUT
66
1
70
0
0
VERTEX
8
CUT
10
50.8682
20
156.8961
0
VERTEX
8
CUT
10
52.8
20
158
0
VERTEX
8
CUT
10
61.2
20
158
0
VERTEX
8
CUT
10
62
20
157.5429
0
SEQEND
0
POLYLINE
8
CUT
66
1
70
0
0
VERTEX
8
CUT
10
50.8682
20
155.9039
0
VERTEX
8
CUT
10
52.8
20
154.8
0
VERTEX
8
CUT
10
61.2
20
154.8
0
VERTEX
8
CUT
10
62
20
155.2571
0
SEQEND
0
POLYLINE
8
CUT
66
1
70
0
0
VERTEX
8
CUT
10
8
20
154
0
VERTEX
8
CUT
10
12.2
20
154
0
VERTEX
8
CUT
10
14.1318
20
152.8961
0
SEQEND
0
POLYLINE
8
CUT
66
1
70
0
0
VERTEX
8
CUT
10
8
20
150.8
0
VERTEX
8
CUT
10
12.2
20
150.8
0
VERTEX
8
CUT
10
14.1318
20
151.9039
0
SEQEND
0
POLYLINE
8
CUT
66
1
70
0
0
VERTEX
8
CUT
10
15.8682
20
152.8961
0
VERTEX
8
CUT
10
17.8
20
154
0
VERTEX
8
CUT
10
26.2
20
154
0
VERTEX
8
CUT
10
28.1318
20
152.8961
0
SEQEND
0
POLYLINE
8
CUT
66
1
70
0
0
VERTEX
8
CUT
10
15.8682
20
151.9039
0
VERTEX
8
CUT
10
17.8
20
150.8
0
VERTEX
8
CUT
10
26.2
20
150.8
0
VERTEX
8
CUT
10
28.1318
20
151.9039
0
SEQEND
0
POLYLINE
8
CUT
66
1
70
0
0
VERTEX
8
CUT
10
29.8682
20
152.8961
0
VERTEX
8
CUT
10
31.8
20
154
0
VERTEX
8
CUT
10
40.2
20
154
0
VERTEX
8
CUT
10
42.1318
20
152.8961
0
SEQEND
0
POLYLINE
8
CUT
66
1
70
0
0
VERTEX
8
CUT
10
29.8682
20
151.9039
0
VERTEX
8
CUT
10
31.8
20
150.8
0
VERTEX
8
CUT
10
40.2
20
150.8
0
VERTEX
8
CUT
10
42.1318
20
151.9039
0
SEQEND
0
POLYLINE
8
CUT
66
1
70
0
0
VERTEX
8
CUT
10
43.8682
20
152.8961
0
VERTEX
8
CUT
10
45.8
20
154
0
VERTEX
8
CUT
10
54.2
20
154
0
VERTEX
8
CUT
10
56.1318
20
152.8961
0
SEQEND
0
POLYLINE
8
CUT
66
1
70
0
0
VERTEX
8
CUT
10
43.8682
20
151.9039
0
VERTEX
8
CUT
10
45.8
20
150.8
0
VERTEX
8
CUT
10
54.2
20
150.8
0
VERTEX
8
CUT
10
56.1318
20
151.9039
0
SEQEND
0
POLYLINE
8
CUT
66
1
70
0
0
VERTEX
8
CUT
10
57.8682
20
152.8961
0
VERTEX
8
CUT
10
59.8
20
154
0
VERTEX
8
CUT
10
62
20
154
0
SEQEND
0
POLYLINE
8
CUT
66
1
70
0
0
VERTEX
8
CUT
10
57.8682
20
151.9039
0
VERTEX
8
CUT
10
59.8
20
150.8
0
VERTEX
8
CUT
10
62
20
150.8
0
SEQEND
0
POLYLINE
8
CUT
66
1
70
0
0
VERTEX
8
CUT
10
8.8682
20
148.8961
0
VERTEX
8
CUT
10
10.8
20
150
0
VERTEX
8
CUT
10
19.2
20
150
0
VERTEX
8
CUT
10
21.1318
20
148.8961
0
SEQEND
0
POLYLINE
8
CUT
66
1
70
0
0
VERTEX
8
CUT
10
8.8682
20
147.9039
0
VERTEX
8
CUT
10
10.8
20
146.8
0
VERTEX
8
CUT
10
19.2
20
146.8
0
VERTEX
8
CUT
10
21.1318
20
147.9039
0
SEQEND
0
POLYLINE
8
CUT
66
1
70
0
0
VERTEX
8
CUT
10
22.8682
20
148.8961
0
VERTEX
8
CUT
10
24.8
20
150
0
VERTEX
8
CUT
10
33.2
20
150
0
VERTEX
8
CUT
10
35.1318
20
148.8961
0
SEQEND
0
POLYLINE
8
CUT
66
1
70
0
0
VERTEX
8
CUT
10
22.8682
20
147.9039
0
VERTEX
8
CUT
10
24.8
20
146.8
0
VERTEX
8
CUT
10
33.2
20
146.8
0
VERTEX
8
CUT
10
35.1318
20
147.9039
0
SEQEND
0
POLYLINE
8
CUT
66
1
70
0
0
VERTEX
8
CUT
10
36.8682
20
148.8961
0
VERTEX
8
CUT
10
38.8
20
150
0
VERTEX
8
CUT
10
47.2
20
150
0
VERTEX
8
CUT
10
49.1318
20
148.8961
0
SEQEND
0
POLYLINE
8
CUT
66
1
70
0
0
VERTEX
8
CUT
10
36.8682
20
147.9039
0
VERTEX
8
CUT
10
38.8
20
146.8
0
VERTEX
8
CUT
10
47.2
20
146.8
0
VERTEX
8
CUT
10
49.1318
20
147.9039
0
SEQEND
0
POLYLINE
8
CUT
66
1
70
0
0
VERTEX
8
CUT
10
50.8682
20
148.8961
0
VERTEX
8
CUT
10
52.8
20
150
0
VERTEX
8
CUT
10
61.2
20
150
0
VERTEX
8
CUT
10
62
20
149.5429
0
SEQEND
0
POLYLINE
8
CUT
66
1
70
0
0
VERTEX
8
CUT
10
50.8682
20
147.9039
0
VERTEX
8
CUT
10
52.8
20
146.8
0
VERTEX
8
CUT
10
61.2
20
146.8
0
VERTEX
8
CUT
10
62
20
147.2571
0
SEQEND
0
POLYLINE
8
CUT
66
1
70
0
0
VERTEX
8
CUT
10
8
20
146
0
VERTEX
8
CUT
10
12.2
20
146
0
VERTEX
8
CUT
10
14.1318
20
144.8961
0
SEQEND
0
POLYLINE
8
CUT
66
1
70
0
0
VERTEX
8
CUT
10
15.8682
20
144.8961
0
VERTEX
8
CUT
10
17.8
20
146
0
VERTEX
8
CUT
10
26.2
20
146
0
VERTEX
8
CUT
10
28.1318
20
144.8961
0
SEQEND
0
POLYLINE
8
CUT
66
1
70
0
0
VERTEX
8
CUT
10
29.8682
20
144.8961
0
VERTEX
8
CUT
10
31.8
20
146
0
VERTEX
8
CUT
10
40.2
20
146
0
VERTEX
8
CUT
10
42.1318
20
144.8961
0
SEQEND
0
POLYLINE
8
CUT
66
1
70
0
0
VERTEX
8
CUT
10
43.8682
20
144.8961
0
VERTEX
8
CUT
10
45.8
20
146
0
VERTEX
8
CUT
10
54.2
20
146
0
VERTEX
8
CUT
10
56.1318
20
144.8961
0
SEQEND
0
POLYLINE
8
CUT
66
1
70
0
0
VERTEX
8
CUT
10
57.8682
20
144.8961
0
VERTEX
8
CUT
10
59.8
20
146
0
VERTEX
8
CUT
10
62
20
146
0
SEQEND
0
LINE
8
CUT
10
2.5
20
144
11
2.5
21
147
0
POLYLINE
8
CUT
66
1
70
0
0
VERTEX
8
CUT
10
0
20
138
0
VERTEX
8
CUT
10
70
20
138
0
VERTEX
8
CUT
10
70
20
108
0
VERTEX
8
CUT
10
0
20
108
0
VERTEX
8
CUT
10
0
20
138
0
SEQEND
0
POLYLINE
8
CUT
66
1
70
0
0
VERTEX
8
CUT
10
8.8682
20
136.8961
0
VERTEX
8
CUT
10
10.8
20
138
0
VERTEX
8
CUT
10
19.2
20
138
0
VERTEX
8
CUT
10
21.1318
20
136.8961
0
SEQEND
0
POLYLINE
8
CUT
66
1
70
0
0
VERTEX
8
CUT
10
8.8682
20
135.9039
0
VERTEX
8
CUT
10
10.8
20
134.8
0
VERTEX
8
CUT
10
19.2
20
134.8
0
VERTEX
8
CUT
10
21.1318
20
135.9039
0
SEQEND
0
POLYLINE
8
CUT
66
1
70
0
0
VERTEX
8
CUT
10
22.8682
20
136.8961
0
VERTEX
8
CUT
10
24.8
20
138
0
VERTEX
8
CUT
10
33.2
20
138
0
VERTEX
8
CUT
10
35.1318
20
136.8961
0
SEQEND
0
POLYLINE
8
CUT
66
1
70
0
0
VERTEX
8
CUT
10
22.8682
20
135.9039
0
VERTEX
8
CUT
10
24.8
20
134.8
0
VERTEX
8
CUT
10
33.2
20
134.8
0
VERTEX
8
CUT
10
35.1318
20
135.9039
0
SEQEND
0
POLYLINE
8
CUT
66
1
70
0
0
VERTEX
8
CUT
10
36.8682
20
136.8961
0
VERTEX
8
CUT
10
38.8
20
138
0
VERTEX
8
CUT
10
47.2
20
138
0
VERTEX
8
CUT
10
49.1318
20
136.8961
0
SEQEND
0
POLYLINE
8
CUT
66
1
70
0
0
VERTEX
8
CUT
10
36.8682
20
135.9039
0
VERTEX
8
CUT
10
38.8
20
134.8
0
VERTEX
8
CUT
10
47.2
20
134.8
0
VERTEX
8
CUT
10
49.1318
20
135.9039
0
SEQEND
0
POLYLINE
8
CUT
66
1
70
0
0
VERTEX
8
CUT
10
50.8682
20
136.8961
0
VERTEX
8
CUT
10
52.8
20
138
0
VERTEX
8
CUT
10
61.2
20
138
0
VERTEX
8
CUT
10
62
20
137.5429
0
SEQEND
0
POLYLINE
8
CUT
66
1
70
0
0
VERTEX
8
CUT
10
50.8682
20
135.9039
0
VERTEX
8
CUT
10
52.8
20
134.8
0
VERTEX
8
CUT
10
61.2
20
134.8
0
VERTEX
8
CUT
10
62
20
135.2571
0
SEQEND
0
POLYLINE
8
CUT
66
1
70
0
0
VERTEX
8
CUT
10
8
20
133.8
0
VERTEX
8
CUT
10
12.2
20
133.8
0
VERTEX
8
CUT
10
14.1318
20
132.6961
0
SEQEND
0
POLYLINE
8
CUT
66
1
70
0
0
VERTEX
8
CUT
10
8
20
130.6
0
VERTEX
8
CUT
10
12.2
20
130.6
0
VERTEX
8
CUT
10
14.1318
20
131.7039
0
SEQEND
0
POLYLINE
8
CUT
66
1
70
0
0
VERTEX
8
CUT
10
15.8682
20
132.6961
0
VERTEX
8
CUT
10
17.8
20
133.8
0
VERTEX
8
CUT
10
26.2
20
133.8
0
VERTEX
8
CUT
10
28.1318
20
132.6961
0
SEQEND
0
POLYLINE
8
CUT
66
1
70
0
0
VERTEX
8
CUT
10
15.8682
20
131.7039
0
VERTEX
8
CUT
10
17.8
20
130.6
0
VERTEX
8
CUT
10
26.2
20
130.6
0
VERTEX
8
CUT
10
28.1318
20
131.7039
0
SEQEND
0
POLYLINE
8
CUT
66
1
70
0
0
VERTEX
8
CUT
10
29.8682
20
132.6961
0
VERTEX
8
CUT
10
31.8
20
133.8
0
VERTEX
8
CUT
10
40.2
20
133.8
0
VERTEX
8
CUT
10
42.1318
20
132.6961
0
SEQEND
0
POLYLINE
8
CUT
66
1
70
0
0
VERTEX
8
CUT
10
29.8682
20
131.7039
0
VERTEX
8
CUT
10
31.8
20
130.6
0
VERTEX
8
CUT
10
40.2
20
130.6
0
VERTEX
8
CUT
10
42.1318
20
131.7039
0
SEQEND
0
POLYLINE
8
CUT
66
1
70
0
0
VERTEX
8
CUT
10
43.8682
20
132.6961
0
VERTEX
8
CUT
10
45.8
20
133.8
0
VERTEX
8
CUT
10
54.2
20
133.8
0
VERTEX
8
CUT
10
56.1318
20
132.6961
0
SEQEND
0
POLYLINE
8
CUT
66
1
70
0
0
VERTEX
8
CUT
10
43.8682
20
131.7039
0
VERTEX
8
CUT
10
45.8
20
130.6
0
VERTEX
8
CUT
10
54.2
20
130.6
0
VERTEX
8
CUT
10
56.1318
20
131.7039
0
SEQEND
0
POLYLINE
8
CUT
66
1
70
0
0
VERTEX
8
CUT
10
57.8682
20
132.6961
0
VERTEX
8
CUT
10
59.8
20
133.8
0
VERTEX
8
CUT
10
62
20
133.8
0
SEQEND
0
POLYLINE
8
CUT
66
1
70
0
0
VERTEX
8
CUT
10
57.8682
20
131.7039
0
VERTEX
8
CUT
10
59.8
20
130.6
0
VERTEX
8
CUT
10
62
20
130.6
0
SEQEND
0
POLYLINE
8
CUT
66
1
70
0
0
VERTEX
8
CUT
10
8.8682
20
128.4961
0
VERTEX
8
CUT
10
10.8
20
129.6
0
VERTEX
8
CUT
10
19.2
20
129.6
0
VERTEX
8
CUT
10
21.1318
20
128.4961
0
SEQEND
0
POLYLINE
8
CUT
66
1
70
0
0
VERTEX
8
CUT
10
8.8682
20
127.5039
0
VERTEX
8
CUT
10
10.8
20
126.4
0
VERTEX
8
CUT
10
19.2
20
126.4
0
VERTEX
8
CUT
10
21.1318
20
127.5039
0
SEQEND
0
POLYLINE
8
CUT
66
1
70
0
0
VERTEX
8
CUT
10
22.8682
20
128.4961
0
VERTEX
8
CUT
10
24.8
20
129.6
0
VERTEX
8
CUT
10
33.2
20
129.6
0
VERTEX
8
CUT
10
35.1318
20
128.4961
0
SEQEND
0
POLYLINE
8
CUT
66
1
70
0
0
VERTEX
8
CUT
10
22.8682
20
127.5039
0
VERTEX
8
CUT
10
24.8
20
126.4
0
VERTEX
8
CUT
10
33.2
20
126.4
0
VERTEX
8
CUT
10
35.1318
20
127.5039
0
SEQEND
0
POLYLINE
8
CUT
66
1
70
0
0
VERTEX
8
CUT
10
36.8682
20
128.4961
0
VERTEX
8
CUT
10
38.8
20
129.6
0
VERTEX
8
CUT
10
47.2
20
129.6
0
VERTEX
8
CUT
10
49.1318
20
128.4961
0
SEQEND
0
POLYLINE
8
CUT
66
1
70
0
0
VERTEX
8
CUT
10
36.8682
20
127.5039
0
VERTEX
8
CUT
10
38.8
20
126.4
0
VERTEX
8
CUT
10
47.2
20
126.4
0
VERTEX
8
CUT
10
49.1318
20
127.5039
0
SEQEND
0
POLYLINE
8
CUT
66
1
70
0
0
VERTEX
8
CUT
10
50.8682
20
128.4961
0
VERTEX
8
CUT
10
52.8
20
129.6
0
VERTEX
8
CUT
10
61.2
20
129.6
0
VERTEX
8
CUT
10
62
20
129.1429
0
SEQEND
0
POLYLINE
8
CUT
66
1
70
0
0
VERTEX
8
CUT
10
50.8682
20
127.5039
0
VERTEX
8
CUT
10
52.8
20
126.4
0
VERTEX
8
CUT
10
61.2
20
126.4
0
VERTEX
8
CUT
10
62
20
126.8571
0
SEQEND
0
POLYLINE
8
CUT
66
1
70
0
0
VERTEX
8
CUT
10
8
20
125.4
0
VERTEX
8
CUT
10
12.2
20
125.4
0
VERTEX
8
CUT
10
14.1318
20
124.2961
0
SEQEND
0
POLYLINE
8
CUT
66
1
70
0
0
VERTEX
8
CUT
10
8
20
122.2
0
VERTEX
8
CUT
10
12.2
20
122.2
0
VERTEX
8
CUT
10
14.1318
20
123.3039
0
SEQEND
0
POLYLINE
8
CUT
66
1
70
0
0
VERTEX
8
CUT
10
15.8682
20
124.2961
0
VERTEX
8
CUT
10
17.8
20
125.4
0
VERTEX
8
CUT
10
26.2
20
125.4
0
VERTEX
8
CUT
10
28.1318
20
124.2961
0
SEQEND
0
POLYLINE
8
CUT
66
1
70
0
0
VERTEX
8
CUT
10
15.8682
20
123.3039
0
VERTEX
8
CUT
10
17.8
20
122.2
0
VERTEX
8
CUT
10
26.2
20
122.2
0
VERTEX
8
CUT
10
28.1318
20
123.3039
0
SEQEND
0
POLYLINE
8
CUT
66
1
70
0
0
VERTEX
8
CUT
10
29.8682
20
124.2961
0
VERTEX
8
CUT
10
31.8
20
125.4
0
VERTEX
8
CUT
10
40.2
20
125.4
0
VERTEX
8
CUT
10
42.1318
20
124.2961
0
SEQEND
0
POLYLINE
8
CUT
66
1
70
0
0
VERTEX
8
CUT
10
29.8682
20
123.3039
0
VERTEX
8
CUT
10
31.8
20
122.2
0
VERTEX
8
CUT
10
40.2
20
122.2
0
VERTEX
8
CUT
10
42.1318
20
123.3039
0
SEQEND
0
POLYLINE
8
CUT
66
1
70
0
0
VERTEX
8
CUT
10
43.8682
20
124.2961
0
VERTEX
8
CUT
10
45.8
20
125.4
0
VERTEX
8
CUT
10
54.2
20
125.4
0
VERTEX
8
CUT
10
56.1318
20
124.2961
0
SEQEND
0
POLYLINE
8
CUT
66
1
70
0
0
VERTEX
8
CUT
10
43.8682
20
123.3039
0
VERTEX
8
CUT
10
45.8
20
122.2
0
VERTEX
8
CUT
10
54.2
20
122.2
0
VERTEX
8
CUT
10
56.1318
20
123.3039
0
SEQEND
0
POLYLINE
8
CUT
66
1
70
0
0
VERTEX
8
CUT
10
57.8682
20
124.2961
0
VERTEX
8
CUT
10
59.8
20
125.4
0
VERTEX
8
CUT
10
62
20
125.4
0
SEQEND
0
POLYLINE
8
CUT
66
1
70
0
0
VERTEX
8
CUT
10
57.8682
20
123.3039
0
VERTEX
8
CUT
10
59.8
20
122.2
0
VERTEX
8
CUT
10
62
20
122.2
0
SEQEND
0
POLYLINE
8
CUT
66
1
70
0
0
VERTEX
8
CUT
10
8.8682
20
120.0961
0
VERTEX
8
CUT
10
10.8
20
121.2
0
VERTEX
8
CUT
10
19.2
20
121.2
0
VERTEX
8
CUT
10
21.1318
20
120.0961
0
SEQEND
0
POLYLINE
8
CUT
66
1
70
0
0
VERTEX
8
CUT
10
8.8682
20
119.1039
0
VERTEX
8
CUT
10
10.8
20
118
0
VERTEX
8
CUT
10
19.2
20
118
0
VERTEX
8
CUT
10
21.1318
20
119.1039
0
SEQEND
0
POLYLINE
8
CUT
66
1
70
0
0
VERTEX
8
CUT
10
22.8682
20
120.0961
0
VERTEX
8
CUT
10
24.8
20
121.2
0
VERTEX
8
CUT
10
33.2
20
121.2
0
VERTEX
8
CUT
10
35.1318
20
120.0961
0
SEQEND
0
POLYLINE
8
CUT
66
1
70
0
0
VERTEX
8
CUT
10
22.8682
20
119.1039
0
VERTEX
8
CUT
10
24.8
20
118
0
VERTEX
8
CUT
10
33.2
20
118
0
VERTEX
8
CUT
10
35.1318
20
119.1039
0
SEQEND
0
POLYLINE
8
CUT
66
1
70
0
0
VERTEX
8
CUT
10
36.8682
20
120.0961
0
VERTEX
8
CUT
10
38.8
20
121.2
0
VERTEX
8
CUT
10
47.2
20
121.2
0
VERTEX
8
CUT
10
49.1318
20
120.0961
0
SEQEND
0
POLYLINE
8
CUT
66
1
70
0
0
VERTEX
8
CUT
10
36.8682
20
119.1039
0
VERTEX
8
CUT
10
38.8
20
118
0
VERTEX
8
CUT
10
47.2
20
118
0
VERTEX
8
CUT
10
49.1318
20
119.1039
0
SEQEND
0
POLYLINE
8
CUT
66
1
70
0
0
VERTEX
8
CUT
10
50.8682
20
120.0961
0
VERTEX
8
CUT
10
52.8
20
121.2
0
VERTEX
8
CUT
10
61.2
20
121.2
0
VERTEX
8
CUT
10
62
20
120.7429
0
SEQEND
0
POLYLINE
8
CUT
66
1
70
0
0
VERTEX
8
CUT
10
50.8682
20
119.1039
0
VERTEX
8
CUT
10
52.8
20
118
0
VERTEX
8
CUT
10
61.2
20
118
0
VERTEX
8
CUT
10
62
20
118.4571
0
SEQEND
0
POLYLINE
8
CUT
66
1
70
0
0
VERTEX
8
CUT
10
8
20
117
0
VERTEX
8
CUT
10
12.2
20
117
0
VERTEX
8
CUT
10
14.1318
20
115.8961
0
SEQEND
0
POLYLINE
8
CUT
66
1
70
0
0
VERTEX
8
CUT
10
8
20
113.8
0
VERTEX
8
CUT
10
12.2
20
113.8
0
VERTEX
8
CUT
10
14.1318
20
114.9039
0
SEQEND
0
POLYLINE
8
CUT
66
1
70
0
0
VERTEX
8
CUT
10
15.8682
20
115.8961
0
VERTEX
8
CUT
10
17.8
20
117
0
VERTEX
8
CUT
10
26.2
20
117
0
VERTEX
8
CUT
10
28.1318
20
115.8961
0
SEQEND
0
POLYLINE
8
CUT
66
1
70
0
0
VERTEX
8
CUT
10
15.8682
20
114.9039
0
VERTEX
8
CUT
10
17.8
20
113.8
0
VERTEX
8
CUT
10
26.2
20
113.8
0
VERTEX
8
CUT
10
28.1318
20
114.9039
0
SEQEND
0
POLYLINE
8
CUT
66
1
70
0
0
VERTEX
8
CUT
10
29.8682
20
115.8961
0
VERTEX
8
CUT
10
31.8
20
117
0
VERTEX
8
CUT
10
40.2
20
117
0
VERTEX
8
CUT
10
42.1318
20
115.8961
0
SEQEND
0
POLYLINE
8
CUT
66
1
70
0
0
VERTEX
8
CUT
10
29.8682
20
114.9039
0
VERTEX
8
CUT
10
31.8
20
113.8
0
VERTEX
8
CUT
10
40.2
20
113.8
0
VERTEX
8
CUT
10
42.1318
20
114.9039
0
SEQEND
0
POLYLINE
8
CUT
66
1
70
0
0
VERTEX
8
CUT
10
43.8682
20
115.8961
0
VERTEX
8
CUT
10
45.8
20
117
0
VERTEX
8
CUT
10
54.2
20
117
0
VERTEX
8
CUT
10
56.1318
20
115.8961
0
SEQEND
0
POLYLINE
8
CUT
66
1
70
0
0
VERTEX
8
CUT
10
43.8682
20
114.9039
0
VERTEX
8
CUT
10
45.8
20
113.8
0
VERTEX
8
CUT
10
54.2
20
113.8
0
VERTEX
8
CUT
10
56.1318
20
114.9039
0
SEQEND
0
POLYLINE
8
CUT
66
1
70
0
0
VERTEX
8
CUT
10
57.8682
20
115.8961
0
VERTEX
8
CUT
10
59.8
20
117
0
VERTEX
8
CUT
10
62
20
117
0
SEQEND
0
POLYLINE
8
CUT
66
1
70
0
0
VERTEX
8
CUT
10
57.8682
20
114.9039
0
VERTEX
8
CUT
10
59.8
20
113.8
0
VERTEX
8
CUT
10
62
20
113.8
0
SEQEND
0
POLYLINE
8
CUT
66
1
70
0
0
VERTEX
8
CUT
10
8.8682
20
111.6961
0
VERTEX
8
CUT
10
10.8
20
112.8
0
VERTEX
8
CUT
10
19.2
20
112.8
0
VERTEX
8
CUT
10
21.1318
20
111.6961
0
SEQEND
0
POLYLINE
8
CUT
66
1
70
0
0
VERTEX
8
CUT
10
8.8682
20
110.7039
0
VERTEX
8
CUT
10
10.8
20
109.6
0
VERTEX
8
CUT
10
19.2
20
109.6
0
VERTEX
8
CUT
10
21.1318
20
110.7039
0
SEQEND
0
POLYLINE
8
CUT
66
1
70
0
0
VERTEX
8
CUT
10
22.8682
20
111.6961
0
VERTEX
8
CUT
10
24.8
20
112.8
0
VERTEX
8
CUT
10
33.2
20
112.8
0
VERTEX
8
CUT
10
35.1318
20
111.6961
0
SEQEND
0
POLYLINE
8
CUT
66
1
70
0
0
VERTEX
8
CUT
10
22.8682
20
110.7039
0
VERTEX
8
CUT
10
24.8
20
109.6
0
VERTEX
8
CUT
10
33.2
20
109.6
0
VERTEX
8
CUT
10
35.1318
20
110.7039
0
SEQEND
0
POLYLINE
8
CUT
66
1
70
0
0
VERTEX
8
CUT
10
36.8682
20
111.6961
0
VERTEX
8
CUT
10
38.8
20
112.8
0
VERTEX
8
CUT
10
47.2
20
112.8
0
VERTEX
8
CUT
10
49.1318
20
111.6961
0
SEQEND
0
POLYLINE
8
CUT
66
1
70
0
0
VERTEX
8
CUT
10
36.8682
20
110.7039
0
VERTEX
8
CUT
10
38.8
20
109.6
0
VERTEX
8
CUT
10
47.2
20
109.6
0
VERTEX
8
CUT
10
49.1318
20
110.7039
0
SEQEND
0
POLYLINE
8
CUT
66
1
70
0
0
VERTEX
8
CUT
10
50.8682
20
111.6961
0
VERTEX
8
CUT
10
52.8
20
112.8
0
VERTEX
8
CUT
10
61.2
20
112.8
0
VERTEX
8
CUT
10
62
20
112.3429
0
SEQEND
0
POLYLINE
8
CUT
66
1
70
0
0
VERTEX
8
CUT
10
50.8682
20
110.7039
0
VERTEX
8
CUT
10
52.8
20
109.6
0
VERTEX
8
CUT
10
61.2
20
109.6
0
VERTEX
8
CUT
10
62
20
110.0571
0
SEQEND
0
POLYLINE
8
CUT
66
1
70
0
0
VERTEX
8
CUT
10
8
20
108.6
0
VERTEX
8
CUT
10
12.2
20
108.6
0
VERTEX
8
CUT
10
13.25
20
108
0
SEQEND
0
POLYLINE
8
CUT
66
1
70
0
0
VERTEX
8
CUT
10
16.75
20
108
0
VERTEX
8
CUT
10
17.8
20
108.6
0
VERTEX
8
CUT
10
26.2
20
108.6
0
VERTEX
8
CUT
10
27.25
20
108
0
SEQEND
0
POLYLINE
8
CUT
66
1
70
0
0
VERTEX
8
CUT
10
30.75
20
108
0
VERTEX
8
CUT
10
31.8
20
108.6
0
VERTEX
8
CUT
10
40.2
20
108.6
0
VERTEX
8
CUT
10
41.25
20
108
0
SEQEND
0
POLYLINE
8
CUT
66
1
70
0
0
VERTEX
8
CUT
10
44.75
20
108
0
VERTEX
8
CUT
10
45.8
20
108.6
0
VERTEX
8
CUT
10
54.2
20
108.6
0
VERTEX
8
CUT
10
55.25
20
108
0
SEQEND
0
POLYLINE
8
CUT
66
1
70
0
0
VERTEX
8
CUT
10
58.75
20
108
0
VERTEX
8
CUT
10
59.8
20
108.6
0
VERTEX
8
CUT
10
62
20
108.6
0
SEQEND
0
LINE
8
CUT
10
2.5
20
108
11
2.5
21
111
0
LINE
8
CUT
10
5
20
108
11
5
21
111
0
POLYLINE
8
CUT
66
1
70
0
0
VERTEX
8
CUT
10
0
20
102
0
VERTEX
8
CUT
10
70
20
102
0
VERTEX
8
CUT
10
70
20
72
0
VERTEX
8
CUT
10
0
20
72
0
VERTEX
8
CUT
10
0
20
102
0
SEQEND
0
POLYLINE
8
CUT
66
1
70
0
0
VERTEX
8
CUT
10
8.8682
20
100.8961
0
VERTEX
8
CUT
10
10.8
20
102
0
VERTEX
8
CUT
10
19.2
20
102
0
VERTEX
8
CUT
10
21.1318
20
100.8961
0
SEQEND
0
POLYLINE
8
CUT
66
1
70
0
0
VERTEX
8
CUT
10
8.8682
20
99.9039
0
VERTEX
8
CUT
10
10.8
20
98.8
0
VERTEX
8
CUT
10
19.2
20
98.8
0
VERTEX
8
CUT
10
21.1318
20
99.9039
0
SEQEND
0
POLYLINE
8
CUT
66
1
70
0
0
VERTEX
8
CUT
10
22.8682
20
100.8961
0
VERTEX
8
CUT
10
24.8
20
102
0
VERTEX
8
CUT
10
33.2
20
102
0
VERTEX
8
CUT
10
35.1318
20
100.8961
0
SEQEND
0
POLYLINE
8
CUT
66
1
70
0
0
VERTEX
8
CUT
10
22.8682
20
99.9039
0
VERTEX
8
CUT
10
24.8
20
98.8
0
VERTEX
8
CUT
10
33.2
20
98.8
0
VERTEX
8
CUT
10
35.1318
20
99.9039
0
SEQEND
0
POLYLINE
8
CUT
66
1
70
0
0
VERTEX
8
CUT
10
36.8682
20
100.8961
0
VERTEX
8
CUT
10
38.8
20
102
0
VERTEX
8
CUT
10
47.2
20
102
0
VERTEX
8
CUT
10
49.1318
20
100.8961
0
SEQEND
0
POLYLINE
8
CUT
66
1
70
0
0
VERTEX
8
CUT
10
36.8682
20
99.9039
0
VERTEX
8
CUT
10
38.8
20
98.8
0
VERTEX
8
CUT
10
47.2
20
98.8
0
VERTEX
8
CUT
10
49.1318
20
99.9039
0
SEQEND
0
POLYLINE
8
CUT
66
1
70
0
0
VERTEX
8
CUT
10
50.8682
20
100.8961
0
VERTEX
8
CUT
10
52.8
20
102
0
VERTEX
8
CUT
10
61.2
20
102
0
VERTEX
8
CUT
10
62
20
101.5429
0
SEQEND
0
POLYLINE
8
CUT
66
1
70
0
0
VERTEX
8
CUT
10
50.8682
20
99.9039
0
VERTEX
8
CUT
10
52.8
20
98.8
0
VERTEX
8
CUT
10
61.2
20
98.8
0
VERTEX
8
CUT
10
62
20
99.2571
0
SEQEND
0
POLYLINE
8
CUT
66
1
70
0
0
VERTEX
8
CUT
10
8
20
97.5
0
VERTEX
8
CUT
10
12.2
20
97.5
0
VERTEX
8
CUT
10
14.1318
20
96.3961
0
SEQEND
0
POLYLINE
8
CUT
66
1
70
0
0
VERTEX
8
CUT
10
8
20
94.3
0
VERTEX
8
CUT
10
12.2
20
94.3
0
VERTEX
8
CUT
10
14.1318
20
95.4039
0
SEQEND
0
POLYLINE
8
CUT
66
1
70
0
0
VERTEX
8
CUT
10
15.8682
20
96.3961
0
VERTEX
8
CUT
10
17.8
20
97.5
0
VERTEX
8
CUT
10
26.2
20
97.5
0
VERTEX
8
CUT
10
28.1318
20
96.3961
0
SEQEND
0
POLYLINE
8
CUT
66
1
70
0
0
VERTEX
8
CUT
10
15.8682
20
95.4039
0
VERTEX
8
CUT
10
17.8
20
94.3
0
VERTEX
8
CUT
10
26.2
20
94.3
0
VERTEX
8
CUT
10
28.1318
20
95.4039
0
SEQEND
0
POLYLINE
8
CUT
66
1
70
0
0
VERTEX
8
CUT
10
29.8682
20
96.3961
0
VERTEX
8
CUT
10
31.8
20
97.5
0
VERTEX
8
CUT
10
40.2
20
97.5
0
VERTEX
8
CUT
10
42.1318
20
96.3961
0
SEQEND
0
POLYLINE
8
CUT
66
1
70
0
0
VERTEX
8
CUT
10
29.8682
20
95.4039
0
VERTEX
8
CUT
10
31.8
20
94.3
0
VERTEX
8
CUT
10
40.2
20
94.3
0
VERTEX
8
CUT
10
42.1318
20
95.4039
0
SEQEND
0
POLYLINE
8
CUT
66
1
70
0
0
VERTEX
8
CUT
10
43.8682
20
96.3961
0
VERTEX
8
CUT
10
45.8
20
97.5
0
VERTEX
8
CUT
10
54.2
20
97.5
0
VERTEX
8
CUT
10
56.1318
20
96.3961
0
SEQEND
0
POLYLINE
8
CUT
66
1
70
0
0
VERTEX
8
CUT
10
43.8682
20
95.4039
0
VERTEX
8
CUT
10
45.8
20
94.3
0
VERTEX
8
CUT
10
54.2
20
94.3
0
VERTEX
8
CUT
10
56.1318
20
95.4039
0
SEQEND
0
POLYLINE
8
CUT
66
1
70
0
0
VERTEX
8
CUT
10
57.8682
20
96.3961
0
VERTEX
8
CUT
10
59.8
20
97.5
0
VERTEX
8
CUT
10
62
20
97.5
0
SEQEND
0
POLYLINE
8
CUT
66
1
70
0
0
VERTEX
8
CUT
10
57.8682
20
95.4039
0
VERTEX
8
CUT
10
59.8
20
94.3
0
VERTEX
8
CUT
10
62
20
94.3
0
SEQEND
0
POLYLINE
8
CUT
66
1
70
0
0
VERTEX
8
CUT
10
8.8682
20
91.8961
0
VERTEX
8
CUT
10
10.8
20
93
0
VERTEX
8
CUT
10
19.2
20
93
0
VERTEX
8
CUT
10
21.1318
20
91.8961
0
SEQEND
0
POLYLINE
8
CUT
66
1
70
0
0
VERTEX
8
CUT
10
8.8682
20
90.9039
0
VERTEX
8
CUT
10
10.8
20
89.8
0
VERTEX
8
CUT
10
19.2
20
89.8
0
VERTEX
8
CUT
10
21.1318
20
90.9039
0
SEQEND
0
POLYLINE
8
CUT
66
1
70
0
0
VERTEX
8
CUT
10
22.8682
20
91.8961
0
VERTEX
8
CUT
10
24.8
20
93
0
VERTEX
8
CUT
10
33.2
20
93
0
VERTEX
8
CUT
10
35.1318
20
91.8961
0
SEQEND
0
POLYLINE
8
CUT
66
1
70
0
0
VERTEX
8
CUT
10
22.8682
20
90.9039
0
VERTEX
8
CUT
10
24.8
20
89.8
0
VERTEX
8
CUT
10
33.2
20
89.8
0
VERTEX
8
CUT
10
35.1318
20
90.9039
0
SEQEND
0
POLYLINE
8
CUT
66
1
70
0
0
VERTEX
8
CUT
10
36.8682
20
91.8961
0
VERTEX
8
CUT
10
38.8
20
93
0
VERTEX
8
CUT
10
47.2
20
93
0
VERTEX
8
CUT
10
49.1318
20
91.8961
0
SEQEND
0
POLYLINE
8
CUT
66
1
70
0
0
VERTEX
8
CUT
10
36.8682
20
90.9039
0
VERTEX
8
CUT
10
38.8
20
89.8
0
VERTEX
8
CUT
10
47.2
20
89.8
0
VERTEX
8
CUT
10
49.1318
20
90.9039
0
SEQEND
0
POLYLINE
8
CUT
66
1
70
0
0
VERTEX
8
CUT
10
50.8682
20
91.8961
0
VERTEX
8
CUT
10
52.8
20
93
0
VERTEX
8
CUT
10
61.2
20
93
0
VERTEX
8
CUT
10
62
20
92.5429
0
SEQEND
0
POLYLINE
8
CUT
66
1
70
0
0
VERTEX
8
CUT
10
50.8682
20
90.9039
0
VERTEX
8
CUT
10
52.8
20
89.8
0
VERTEX
8
CUT
10
61.2
20
89.8
0
VERTEX
8
CUT
10
62
20
90.2571
0
SEQEND
0
POLYLINE
8
CUT
66
1
70
0
0
VERTEX
8
CUT
10
8
20
88.5
0
VERTEX
8
CUT
10
12.2
20
88.5
0
VERTEX
8
CUT
10
14.1318
20
87.3961
0
SEQEND
0
POLYLINE
8
CUT
66
1
70
0
0
VERTEX
8
CUT
10
8
20
85.3
0
VERTEX
8
CUT
10
12.2
20
85.3
0
VERTEX
8
CUT
10
14.1318
20
86.4039
0
SEQEND
0
POLYLINE
8
CUT
66
1
70
0
0
VERTEX
8
CUT
10
15.8682
20
87.3961
0
VERTEX
8
CUT
10
17.8
20
88.5
0
VERTEX
8
CUT
10
26.2
20
88.5
0
VERTEX
8
CUT
10
28.1318
20
87.3961
0
SEQEND
0
POLYLINE
8
CUT
66
1
70
0
0
VERTEX
8
CUT
10
15.8682
20
86.4039
0
VERTEX
8
CUT
10
17.8
20
85.3
0
VERTEX
8
CUT
10
26.2
20
85.3
0
VERTEX
8
CUT
10
28.1318
20
86.4039
0
SEQEND
0
POLYLINE
8
CUT
66
1
70
0
0
VERTEX
8
CUT
10
29.8682
20
87.3961
0
VERTEX
8
CUT
10
31.8
20
88.5
0
VERTEX
8
CUT
10
40.2
20
88.5
0
VERTEX
8
CUT
10
42.1318
20
87.3961
0
SEQEND
0
POLYLINE
8
CUT
66
1
70
0
0
VERTEX
8
CUT
10
29.8682
20
86.4039
0
VERTEX
8
CUT
10
31.8
20
85.3
0
VERTEX
8
CUT
10
40.2
20
85.3
0
VERTEX
8
CUT
10
42.1318
20
86.4039
0
SEQEND
0
POLYLINE
8
CUT
66
1
70
0
0
VERTEX
8
CUT
10
43.8682
20
87.3961
0
VERTEX
8
CUT
10
45.8
20
88.5
0
VERTEX
8
CUT
10
54.2
20
88.5
0
VERTEX
8
CUT
10
56.1318
20
87.3961
0
SEQEND
0
POLYLINE
8
CUT
66
1
70
0
0
VERTEX
8
CUT
10
43.8682
20
86.4039
0
VERTEX
8
CUT
10
45.8
20
85.3
0
VERTEX
8
CUT
10
54.2
20
85.3
0
VERTEX
8
CUT
10
56.1318
20
86.4039
0
SEQEND
0
POLYLINE
8
CUT
66
1
70
0
0
VERTEX
8
CUT
10
57.8682
20
87.3961
0
VERTEX
8
CUT
10
59.8
20
88.5
0
VERTEX
8
CUT
10
62
20
88.5
0
SEQEND
0
POLYLINE
8
CUT
66
1
70
0
0
VERTEX
8
CUT
10
57.8682
20
86.4039
0
VERTEX
8
CUT
10
59.8
20
85.3
0
VERTEX
8
CUT
10
62
20
85.3
0
SEQEND
0
POLYLINE
8
CUT
66
1
70
0
0
VERTEX
8
CUT
10
8.8682
20
82.8961
0
VERTEX
8
CUT
10
10.8
20
84
0
VERTEX
8
CUT
10
19.2
20
84
0
VERTEX
8
CUT
10
21.1318
20
82.8961
0
SEQEND
0
POLYLINE
8
CUT
66
1
70
0
0
VERTEX
8
CUT
10
8.8682
20
81.9039
0
VERTEX
8
CUT
10
10.8
20
80.8
0
VERTEX
8
CUT
10
19.2
20
80.8
0
VERTEX
8
CUT
10
21.1318
20
81.9039
0
SEQEND
0
POLYLINE
8
CUT
66
1
70
0
0
VERTEX
8
CUT
10
22.8682
20
82.8961
0
VERTEX
8
CUT
10
24.8
20
84
0
VERTEX
8
CUT
10
33.2
20
84
0
VERTEX
8
CUT
10
35.1318
20
82.8961
0
SEQEND
0
POLYLINE
8
CUT
66
1
70
0
0
VERTEX
8
CUT
10
22.8682
20
81.9039
0
VERTEX
8
CUT
10
24.8
20
80.8
0
VERTEX
8
CUT
10
33.2
20
80.8
0
VERTEX
8
CUT
10
35.1318
20
81.9039
0
SEQEND
0
POLYLINE
8
CUT
66
1
70
0
0
VERTEX
8
CUT
10
36.8682
20
82.8961
0
VERTEX
8
CUT
10
38.8
20
84
0
VERTEX
8
CUT
10
47.2
20
84
0
VERTEX
8
CUT
10
49.1318
20
82.8961
0
SEQEND
0
POLYLINE
8
CUT
66
1
70
0
0
VERTEX
8
CUT
10
36.8682
20
81.9039
0
VERTEX
8
CUT
10
38.8
20
80.8
0
VERTEX
8
CUT
10
47.2
20
80.8
0
VERTEX
8
CUT
10
49.1318
20
81.9039
0
SEQEND
0
POLYLINE
8
CUT
66
1
70
0
0
VERTEX
8
CUT
10
50.8682
20
82.8961
0
VERTEX
8
CUT
10
52.8
20
84
0
VERTEX
8
CUT
10
61.2
20
84
0
VERTEX
8
CUT
10
62
20
83.5429
0
SEQEND
0
POLYLINE
8
CUT
66
1
70
0
0
VERTEX
8
CUT
10
50.8682
20
81.9039
0
VERTEX
8
CUT
10
52.8
20
80.8
0
VERTEX
8
CUT
10
61.2
20
80.8
0
VERTEX
8
CUT
10
62
20
81.2571
0
SEQEND
0
POLYLINE
8
CUT
66
1
70
0
0
VERTEX
8
CUT
10
8
20
79.5
0
VERTEX
8
CUT
10
12.2
20
79.5
0
VERTEX
8
CUT
10
14.1318
20
78.3961
0
SEQEND
0
POLYLINE
8
CUT
66
1
70
0
0
VERTEX
8
CUT
10
8
20
76.3
0
VERTEX
8
CUT
10
12.2
20
76.3
0
VERTEX
8
CUT
10
14.1318
20
77.4039
0
SEQEND
0
POLYLINE
8
CUT
66
1
70
0
0
VERTEX
8
CUT
10
15.8682
20
78.3961
0
VERTEX
8
CUT
10
17.8
20
79.5
0
VERTEX
8
CUT
10
26.2
20
79.5
0
VERTEX
8
CUT
10
28.1318
20
78.3961
0
SEQEND
0
POLYLINE
8
CUT
66
1
70
0
0
VERTEX
8
CUT
10
15.8682
20
77.4039
0
VERTEX
8
CUT
10
17.8
20
76.3
0
VERTEX
8
CUT
10
26.2
20
76.3
0
VERTEX
8
CUT
10
28.1318
20
77.4039
0
SEQEND
0
POLYLINE
8
CUT
66
1
70
0
0
VERTEX
8
CUT
10
29.8682
20
78.3961
0
VERTEX
8
CUT
10
31.8
20
79.5
0
VERTEX
8
CUT
10
40.2
20
79.5
0
VERTEX
8
CUT
10
42.1318
20
78.3961
0
SEQEND
0
POLYLINE
8
CUT
66
1
70
0
0
VERTEX
8
CUT
10
29.8682
20
77.4039
0
VERTEX
8
CUT
10
31.8
20
76.3
0
VERTEX
8
CUT
10
40.2
20
76.3
0
VERTEX
8
CUT
10
42.1318
20
77.4039
0
SEQEND
0
POLYLINE
8
CUT
66
1
70
0
0
VERTEX
8
CUT
10
43.8682
20
78.3961
0
VERTEX
8
CUT
10
45.8
20
79.5
0
VERTEX
8
CUT
10
54.2
20
79.5
0
VERTEX
8
CUT
10
56.1318
20
78.3961
0
SEQEND
0
POLYLINE
8
CUT
66
1
70
0
0
VERTEX
8
CUT
10
43.8682
20
77.4039
0
VERTEX
8
CUT
10
45.8
20
76.3
0
VERTEX
8
CUT
10
54.2
20
76.3
0
VERTEX
8
CUT
10
56.1318
20
77.4039
0
SEQEND
0
POLYLINE
8
CUT
66
1
70
0
0
VERTEX
8
CUT
10
57.8682
20
78.3961
0
VERTEX
8
CUT
10
59.8
20
79.5
0
VERTEX
8
CUT
10
62
20
79.5
0
SEQEND
0
POLYLINE
8
CUT
66
1
70
0
0
VERTEX
8
CUT
10
57.8682
20
77.4039
0
VERTEX
8
CUT
10
59.8
20
76.3
0
VERTEX
8
CUT
10
62
20
76.3
0
SEQEND
0
POLYLINE
8
CUT
66
1
70
0
0
VERTEX
8
CUT
10
8.8682
20
73.8961
0
VERTEX
8
CUT
10
10.8
20
75
0
VERTEX
8
CUT
10
19.2
20
75
0
VERTEX
8
CUT
10
21.1318
20
73.8961
0
SEQEND
0
LINE
8
CUT
10
8.8682
20
72.9039
11
10.45
21
72
0
LINE
8
CUT
10
19.55
20
72
11
21.1318
21
72.9039
0
POLYLINE
8
CUT
66
1
70
0
0
VERTEX
8
CUT
10
22.8682
20
73.8961
0
VERTEX
8
CUT
10
24.8
20
75
0
VERTEX
8
CUT
10
33.2
20
75
0
VERTEX
8
CUT
10
35.1318
20
73.8961
0
SEQEND
0
LINE
8
CUT
10
22.8682
20
72.9039
11
24.45
21
72
0
LINE
8
CUT
10
33.55
20
72
11
35.1318
21
72.9039
0
POLYLINE
8
CUT
66
1
70
0
0
VERTEX
8
CUT
10
36.8682
20
73.8961
0
VERTEX
8
CUT
10
38.8
20
75
0
VERTEX
8
CUT
10
47.2
20
75
0
VERTEX
8
CUT
10
49.1318
20
73.8961
0
SEQEND
0
LINE
8
CUT
10
36.8682
20
72.9039
11
38.45
21
72
0
LINE
8
CUT
10
47.55
20
72
11
49.1318
21
72.9039
0
POLYLINE
8
CUT
66
1
70
0
0
VERTEX
8
CUT
10
50.8682
20
73.8961
0
VERTEX
8
CUT
10
52.8
20
75
0
VERTEX
8
CUT
10
61.2
20
75
0
VERTEX
8
CUT
10
62
20
74.5429
0
SEQEND
0
LINE
8
CUT
10
50.8682
20
72.9039
11
52.45
21
72
0
LINE
8
CUT
10
61.55
20
72
11
62
21
72.2571
0
LINE
8
CUT
10
2.5
20
72
11
2.5
21
75
0
LINE
8
CUT
10
5
20
72
11
5
21
75
0
LINE
8
CUT
10
7.5
20
72
11
7.5
21
75
0
POLYLINE
8
CUT
66
1
70
0
0
VERTEX
8
CUT
10
0
20
66
0
VERTEX
8
CUT
10
70
20
66
0
VERTEX
8
CUT
10
70
20
36
0
VERTEX
8
CUT
10
0
20
36
0
VERTEX
8
CUT
10
0
20
66
0
SEQEND
0
POLYLINE
8
CUT
66
1
70
0
0
VERTEX
8
CUT
10
8.8682
20
64.8961
0
VERTEX
8
CUT
10
10.8
20
66
0
VERTEX
8
CUT
10
19.2
20
66
0
VERTEX
8
CUT
10
21.1318
20
64.8961
0
SEQEND
0
POLYLINE
8
CUT
66
1
70
0
0
VERTEX
8
CUT
10
8.8682
20
63.9039
0
VERTEX
8
CUT
10
10.8
20
62.8
0
VERTEX
8
CUT
10
19.2
20
62.8
0
VERTEX
8
CUT
10
21.1318
20
63.9039
0
SEQEND
0
POLYLINE
8
CUT
66
1
70
0
0
VERTEX
8
CUT
10
22.8682
20
64.8961
0
VERTEX
8
CUT
10
24.8
20
66
0
VERTEX
8
CUT
10
33.2
20
66
0
VERTEX
8
CUT
10
35.1318
20
64.8961
0
SEQEND
0
POLYLINE
8
CUT
66
1
70
0
0
VERTEX
8
CUT
10
22.8682
20
63.9039
0
VERTEX
8
CUT
10
24.8
20
62.8
0
VERTEX
8
CUT
10
33.2
20
62.8
0
VERTEX
8
CUT
10
35.1318
20
63.9039
0
SEQEND
0
POLYLINE
8
CUT
66
1
70
0
0
VERTEX
8
CUT
10
36.8682
20
64.8961
0
VERTEX
8
CUT
10
38.8
20
66
0
VERTEX
8
CUT
10
47.2
20
66
0
VERTEX
8
CUT
10
49.1318
20
64.8961
0
SEQEND
0
POLYLINE
8
CUT
66
1
70
0
0
VERTEX
8
CUT
10
36.8682
20
63.9039
0
VERTEX
8
CUT
10
38.8
20
62.8
0
VERTEX
8
CUT
10
47.2
20
62.8
0
VERTEX
8
CUT
10
49.1318
20
63.9039
0
SEQEND
0
POLYLINE
8
CUT
66
1
70
0
0
VERTEX
8
CUT
10
50.8682
20
64.8961
0
VERTEX
8
CUT
10
52.8
20
66
0
VERTEX
8
CUT
10
61.2
20
66
0
VERTEX
8
CUT
10
62
20
65.5429
0
SEQEND
0
POLYLINE
8
CUT
66
1
70
0
0
VERTEX
8
CUT
10
50.8682
20
63.9039
0
VERTEX
8
CUT
10
52.8
20
62.8
0
VERTEX
8
CUT
10
61.2
20
62.8
0
VERTEX
8
CUT
10
62
20
63.2571
0
SEQEND
0
POLYLINE
8
CUT
66
1
70
0
0
VERTEX
8
CUT
10
8
20
61.2
0
VERTEX
8
CUT
10
12.2
20
61.2
0
VERTEX
8
CUT
10
14.1318
20
60.0961
0
SEQEND
0
POLYLINE
8
CUT
66
1
70
0
0
VERTEX
8
CUT
10
8
20
58
0
VERTEX
8
CUT
10
12.2
20
58
0
VERTEX
8
CUT
10
14.1318
20
59.1039
0
SEQEND
0
POLYLINE
8
CUT
66
1
70
0
0
VERTEX
8
CUT
10
15.8682
20
60.0961
0
VERTEX
8
CUT
10
17.8
20
61.2
0
VERTEX
8
CUT
10
26.2
20
61.2
0
VERTEX
8
CUT
10
28.1318
20
60.0961
0
SEQEND
0
POLYLINE
8
CUT
66
1
70
0
0
VERTEX
8
CUT
10
15.8682
20
59.1039
0
VERTEX
8
CUT
10
17.8
20
58
0
VERTEX
8
CUT
10
26.2
20
58
0
VERTEX
8
CUT
10
28.1318
20
59.1039
0
SEQEND
0
POLYLINE
8
CUT
66
1
70
0
0
VERTEX
8
CUT
10
29.8682
20
60.0961
0
VERTEX
8
CUT
10
31.8
20
61.2
0
VERTEX
8
CUT
10
40.2
20
61.2
0
VERTEX
8
CUT
10
42.1318
20
60.0961
0
SEQEND
0
POLYLINE
8
CUT
66
1
70
0
0
VERTEX
8
CUT
10
29.8682
20
59.1039
0
VERTEX
8
CUT
10
31.8
20
58
0
VERTEX
8
CUT
10
40.2
20
58
0
VERTEX
8
CUT
10
42.1318
20
59.1039
0
SEQEND
0
POLYLINE
8
CUT
66
1
70
0
0
VERTEX
8
CUT
10
43.8682
20
60.0961
0
VERTEX
8
CUT
10
45.8
20
61.2
0
VERTEX
8
CUT
10
54.2
20
61.2
0
VERTEX
8
CUT
10
56.1318
20
60.0961
0
SEQEND
0
POLYLINE
8
CUT
66
1
70
0
0
VERTEX
8
CUT
10
43.8682
20
59.1039
0
VERTEX
8
CUT
10
45.8
20
58
0
VERTEX
8
CUT
10
54.2
20
58
0
VERTEX
8
CUT
10
56.1318
20
59.1039
0
SEQEND
0
POLYLINE
8
CUT
66
1
70
0
0
VERTEX
8
CUT
10
57.8682
20
60.0961
0
VERTEX
8
CUT
10
59.8
20
61.2
0
VERTEX
8
CUT
10
62
20
61.2
0
SEQEND
0
POLYLINE
8
CUT
66
1
70
0
0
VERTEX
8
CUT
10
57.8682
20
59.1039
0
VERTEX
8
CUT
10
59.8
20
58
0
VERTEX
8
CUT
10
62
20
58
0
SEQEND
0
POLYLINE
8
CUT
66
1
70
0
0
VERTEX
8
CUT
10
8.8682
20
55.2961
0
VERTEX
8
CUT
10
10.8
20
56.4
0
VERTEX
8
CUT
10
19.2
20
56.4
0
VERTEX
8
CUT
10
21.1318
20
55.2961
0
SEQEND
0
POLYLINE
8
CUT
66
1
70
0
0
VERTEX
8
CUT
10
8.8682
20
54.3039
0
VERTEX
8
CUT
10
10.8
20
53.2
0
VERTEX
8
CUT
10
19.2
20
53.2
0
VERTEX
8
CUT
10
21.1318
20
54.3039
0
SEQEND
0
POLYLINE
8
CUT
66
1
70
0
0
VERTEX
8
CUT
10
22.8682
20
55.2961
0
VERTEX
8
CUT
10
24.8
20
56.4
0
VERTEX
8
CUT
10
33.2
20
56.4
0
VERTEX
8
CUT
10
35.1318
20
55.2961
0
SEQEND
0
POLYLINE
8
CUT
66
1
70
0
0
VERTEX
8
CUT
10
22.8682
20
54.3039
0
VERTEX
8
CUT
10
24.8
20
53.2
0
VERTEX
8
CUT
10
33.2
20
53.2
0
VERTEX
8
CUT
10
35.1318
20
54.3039
0
SEQEND
0
POLYLINE
8
CUT
66
1
70
0
0
VERTEX
8
CUT
10
36.8682
20
55.2961
0
VERTEX
8
CUT
10
38.8
20
56.4
0
VERTEX
8
CUT
10
47.2
20
56.4
0
VERTEX
8
CUT
10
49.1318
20
55.2961
0
SEQEND
0
POLYLINE
8
CUT
66
1
70
0
0
VERTEX
8
CUT
10
36.8682
20
54.3039
0
VERTEX
8
CUT
10
38.8
20
53.2
0
VERTEX
8
CUT
10
47.2
20
53.2
0
VERTEX
8
CUT
10
49.1318
20
54.3039
0
SEQEND
0
POLYLINE
8
CUT
66
1
70
0
0
VERTEX
8
CUT
10
50.8682
20
55.2961
0
VERTEX
8
CUT
10
52.8
20
56.4
0
VERTEX
8
CUT
10
61.2
20
56.4
0
VERTEX
8
CUT
10
62
20
55.9429
0
SEQEND
0
POLYLINE
8
CUT
66
1
70
0
0
VERTEX
8
CUT
10
50.8682
20
54.3039
0
VERTEX
8
CUT
10
52.8
20
53.2
0
VERTEX
8
CUT
10
61.2
20
53.2
0
VERTEX
8
CUT
10
62
20
53.6571
0
SEQEND
0
POLYLINE
8
CUT
66
1
70
0
0
VERTEX
8
CUT
10
8
20
51.6
0
VERTEX
8
CUT
10
12.2
20
51.6
0
VERTEX
8
CUT
10
14.1318
20
50.4961
0
SEQEND
0
POLYLINE
8
CUT
66
1
70
0
0
VERTEX
8
CUT
10
8
20
48.4
0
VERTEX
8
CUT
10
12.2
20
48.4
0
VERTEX
8
CUT
10
14.1318
20
49.5039
0
SEQEND
0
POLYLINE
8
CUT
66
1
70
0
0
VERTEX
8
CUT
10
15.8682
20
50.4961
0
VERTEX
8
CUT
10
17.8
20
51.6
0
VERTEX
8
CUT
10
26.2
20
51.6
0
VERTEX
8
CUT
10
28.1318
20
50.4961
0
SEQEND
0
POLYLINE
8
CUT
66
1
70
0
0
VERTEX
8
CUT
10
15.8682
20
49.5039
0
VERTEX
8
CUT
10
17.8
20
48.4
0
VERTEX
8
CUT
10
26.2
20
48.4
0
VERTEX
8
CUT
10
28.1318
20
49.5039
0
SEQEND
0
POLYLINE
8
CUT
66
1
70
0
0
VERTEX
8
CUT
10
29.8682
20
50.4961
0
VERTEX
8
CUT
10
31.8
20
51.6
0
VERTEX
8
CUT
10
40.2
20
51.6
0
VERTEX
8
CUT
10
42.1318
20
50.4961
0
SEQEND
0
POLYLINE
8
CUT
66
1
70
0
0
VERTEX
8
CUT
10
29.8682
20
49.5039
0
VERTEX
8
CUT
10
31.8
20
48.4
0
VERTEX
8
CUT
10
40.2
20
48.4
0
VERTEX
8
CUT
10
42.1318
20
49.5039
0
SEQEND
0
POLYLINE
8
CUT
66
1
70
0
0
VERTEX
8
CUT
10
43.8682
20
50.4961
0
VERTEX
8
CUT
10
45.8
20
51.6
0
VERTEX
8
CUT
10
54.2
20
51.6
0
VERTEX
8
CUT
10
56.1318
20
50.4961
0
SEQEND
0
POLYLINE
8
CUT
66
1
70
0
0
VERTEX
8
CUT
10
43.8682
20
49.5039
0
VERTEX
8
CUT
10
45.8
20
48.4
0
VERTEX
8
CUT
10
54.2
20
48.4
0
VERTEX
8
CUT
10
56.1318
20
49.5039
0
SEQEND
0
POLYLINE
8
CUT
66
1
70
0
0
VERTEX
8
CUT
10
57.8682
20
50.4961
0
VERTEX
8
CUT
10
59.8
20
51.6
0
VERTEX
8
CUT
10
62
20
51.6
0
SEQEND
0
POLYLINE
8
CUT
66
1
70
0
0
VERTEX
8
CUT
10
57.8682
20
49.5039
0
VERTEX
8
CUT
10
59.8
20
48.4
0
VERTEX
8
CUT
10
62
20
48.4
0
SEQEND
0
POLYLINE
8
CUT
66
1
70
0
0
VERTEX
8
CUT
10
8.8682
20
45.6961
0
VERTEX
8
CUT
10
10.8
20
46.8
0
VERTEX
8
CUT
10
19.2
20
46.8
0
VERTEX
8
CUT
10
21.1318
20
45.6961
0
SEQEND
0
POLYLINE
8
CUT
66
1
70
0
0
VERTEX
8
CUT
10
8.8682
20
44.7039
0
VERTEX
8
CUT
10
10.8
20
43.6
0
VERTEX
8
CUT
10
19.2
20
43.6
0
VERTEX
8
CUT
10
21.1318
20
44.7039
0
SEQEND
0
POLYLINE
8
CUT
66
1
70
0
0
VERTEX
8
CUT
10
22.8682
20
45.6961
0
VERTEX
8
CUT
10
24.8
20
46.8
0
VERTEX
8
CUT
10
33.2
20
46.8
0
VERTEX
8
CUT
10
35.1318
20
45.6961
0
SEQEND
0
POLYLINE
8
CUT
66
1
70
0
0
VERTEX
8
CUT
10
22.8682
20
44.7039
0
VERTEX
8
CUT
10
24.8
20
43.6
0
VERTEX
8
CUT
10
33.2
20
43.6
0
VERTEX
8
CUT
10
35.1318
20
44.7039
0
SEQEND
0
POLYLINE
8
CUT
66
1
70
0
0
VERTEX
8
CUT
10
36.8682
20
45.6961
0
VERTEX
8
CUT
10
38.8
20
46.8
0
VERTEX
8
CUT
10
47.2
20
46.8
0
VERTEX
8
CUT
10
49.1318
20
45.6961
0
SEQEND
0
POLYLINE
8
CUT
66
1
70
0
0
VERTEX
8
CUT
10
36.8682
20
44.7039
0
VERTEX
8
CUT
10
38.8
20
43.6
0
VERTEX
8
CUT
10
47.2
20
43.6
0
VERTEX
8
CUT
10
49.1318
20
44.7039
0
SEQEND
0
POLYLINE
8
CUT
66
1
70
0
0
VERTEX
8
CUT
10
50.8682
20
45.6961
0
VERTEX
8
CUT
10
52.8
20
46.8
0
VERTEX
8
CUT
10
61.2
20
46.8
0
VERTEX
8
CUT
10
62
20
46.3429
0
SEQEND
0
POLYLINE
8
CUT
66
1
70
0
0
VERTEX
8
CUT
10
50.8682
20
44.7039
0
VERTEX
8
CUT
10
52.8
20
43.6
0
VERTEX
8
CUT
10
61.2
20
43.6
0
VERTEX
8
CUT
10
62
20
44.0571
0
SEQEND
0
POLYLINE
8
CUT
66
1
70
0
0
VERTEX
8
CUT
10
8
20
42
0
VERTEX
8
CUT
10
12.2
20
42
0
VERTEX
8
CUT
10
14.1318
20
40.8961
0
SEQEND
0
POLYLINE
8
CUT
66
1
70
0
0
VERTEX
8
CUT
10
8
20
38.8
0
VERTEX
8
CUT
10
12.2
20
38.8
0
VERTEX
8
CUT
10
14.1318
20
39.9039
0
SEQEND
0
POLYLINE
8
CUT
66
1
70
0
0
VERTEX
8
CUT
10
15.8682
20
40.8961
0
VERTEX
8
CUT
10
17.8
20
42
0
VERTEX
8
CUT
10
26.2
20
42
0
VERTEX
8
CUT
10
28.1318
20
40.8961
0
SEQEND
0
POLYLINE
8
CUT
66
1
70
0
0
VERTEX
8
CUT
10
15.8682
20
39.9039
0
VERTEX
8
CUT
10
17.8
20
38.8
0
VERTEX
8
CUT
10
26.2
20
38.8
0
VERTEX
8
CUT
10
28.1318
20
39.9039
0
SEQEND
0
POLYLINE
8
CUT
66
1
70
0
0
VERTEX
8
CUT
10
29.8682
20
40.8961
0
VERTEX
8
CUT
10
31.8
20
42
0
VERTEX
8
CUT
10
40.2
20
42
0
VERTEX
8
CUT
10
42.1318
20
40.8961
0
SEQEND
0
POLYLINE
8
CUT
66
1
70
0
0
VERTEX
8
CUT
10
29.8682
20
39.9039
0
VERTEX
8
CUT
10
31.8
20
38.8
0
VERTEX
8
CUT
10
40.2
20
38.8
0
VERTEX
8
CUT
10
42.1318
20
39.9039
0
SEQEND
0
POLYLINE
8
CUT
66
1
70
0
0
VERTEX
8
CUT
10
43.8682
20
40.8961
0
VERTEX
8
CUT
10
45.8
20
42
0
VERTEX
8
CUT
10
54.2
20
42
0
VERTEX
8
CUT
10
56.1318
20
40.8961
0
SEQEND
0
POLYLINE
8
CUT
66
1
70
0
0
VERTEX
8
CUT
10
43.8682
20
39.9039
0
VERTEX
8
CUT
10
45.8
20
38.8
0
VERTEX
8
CUT
10
54.2
20
38.8
0
VERTEX
8
CUT
10
56.1318
20
39.9039
0
SEQEND
0
POLYLINE
8
CUT
66
1
70
0
0
VERTEX
8
CUT
10
57.8682
20
40.8961
0
VERTEX
8
CUT
10
59.8
20
42
0
VERTEX
8
CUT
10
62
20
42
0
SEQEND
0
POLYLINE
8
CUT
66
1
70
0
0
VERTEX
8
CUT
10
57.8682
20
39.9039
0
VERTEX
8
CUT
10
59.8
20
38.8
0
VERTEX
8
CUT
10
62
20
38.8
0
SEQEND
0
POLYLINE
8
CUT
66
1
70
0
0
VERTEX
8
CUT
10
8.8682
20
36.0961
0
VERTEX
8
CUT
10
10.8
20
37.2
0
VERTEX
8
CUT
10
19.2
20
37.2
0
VERTEX
8
CUT
10
21.1318
20
36.0961
0
SEQEND
0
POLYLINE
8
CUT
66
1
70
0
0
VERTEX
8
CUT
10
22.8682
20
36.0961
0
VERTEX
8
CUT
10
24.8
20
37.2
0
VERTEX
8
CUT
10
33.2
20
37.2
0
VERTEX
8
CUT
10
35.1318
20
36.0961
0
SEQEND
0
POLYLINE
8
CUT
66
1
70
0
0
VERTEX
8
CUT
10
36.8682
20
36.0961
0
VERTEX
8
CUT
10
38.8
20
37.2
0
VERTEX
8
CUT
10
47.2
20
37.2
0
VERTEX
8
CUT
10
49.1318
20
36.0961
0
SEQEND
0
POLYLINE
8
CUT
66
1
70
0
0
VERTEX
8
CUT
10
50.8682
20
36.0961
0
VERTEX
8
CUT
10
52.8
20
37.2
0
VERTEX
8
CUT
10
61.2
20
37.2
0
VERTEX
8
CUT
10
62
20
36.7429
0
SEQEND
0
LINE
8
CUT
10
2.5
20
36
11
2.5
21
39
0
LINE
8
CUT
10
5
20
36
11
5
21
39
0
LINE
8
CUT
10
7.5
20
36
11
7.5
21
39
0
LINE
8
CUT
10
10
20
36
11
10
21
39
0
POLYLINE
8
CUT
66
1
70
0
0
VERTEX
8
CUT
10
0
20
30
0
VERTEX
8
CUT
10
70
20
30
0
VERTEX
8
CUT
10
70
20
0
0
VERTEX
8
CUT
10
0
20
0
0
VERTEX
8
CUT
10
0
20
30
0
SEQEND
0
POLYLINE
8
CUT
66
1
70
0
0
VERTEX
8
CUT
10
8.8682
20
28.8961
0
VERTEX
8
CUT
10
10.8
20
30
0
VERTEX
8
CUT
10
19.2
20
30
0
VERTEX
8
CUT
10
21.1318
20
28.8961
0
SEQEND
0
POLYLINE
8
CUT
66
1
70
0
0
VERTEX
8
CUT
10
8.8682
20
27.9039
0
VERTEX
8
CUT
10
10.8
20
26.8
0
VERTEX
8
CUT
10
19.2
20
26.8
0
VERTEX
8
CUT
10
21.1318
20
27.9039
0
SEQEND
0
POLYLINE
8
CUT
66
1
70
0
0
VERTEX
8
CUT
10
22.8682
20
28.8961
0
VERTEX
8
CUT
10
24.8
20
30
0
VERTEX
8
CUT
10
33.2
20
30
0
VERTEX
8
CUT
10
35.1318
20
28.8961
0
SEQEND
0
POLYLINE
8
CUT
66
1
70
0
0
VERTEX
8
CUT
10
22.8682
20
27.9039
0
VERTEX
8
CUT
10
24.8
20
26.8
0
VERTEX
8
CUT
10
33.2
20
26.8
0
VERTEX
8
CUT
10
35.1318
20
27.9039
0
SEQEND
0
POLYLINE
8
CUT
66
1
70
0
0
VERTEX
8
CUT
10
36.8682
20
28.8961
0
VERTEX
8
CUT
10
38.8
20
30
0
VERTEX
8
CUT
10
47.2
20
30
0
VERTEX
8
CUT
10
49.1318
20
28.8961
0
SEQEND
0
POLYLINE
8
CUT
66
1
70
0
0
VERTEX
8
CUT
10
36.8682
20
27.9039
0
VERTEX
8
CUT
10
38.8
20
26.8
0
VERTEX
8
CUT
10
47.2
20
26.8
0
VERTEX
8
CUT
10
49.1318
20
27.9039
0
SEQEND
0
POLYLINE
8
CUT
66
1
70
0
0
VERTEX
8
CUT
10
50.8682
20
28.8961
0
VERTEX
8
CUT
10
52.8
20
30
0
VERTEX
8
CUT
10
61.2
20
30
0
VERTEX
8
CUT
10
62
20
29.5429
0
SEQEND
0
POLYLINE
8
CUT
66
1
70
0
0
VERTEX
8
CUT
10
50.8682
20
27.9039
0
VERTEX
8
CUT
10
52.8
20
26.8
0
VERTEX
8
CUT
10
61.2
20
26.8
0
VERTEX
8
CUT
10
62
20
27.2571
0
SEQEND
0
POLYLINE
8
CUT
66
1
70
0
0
VERTEX
8
CUT
10
8
20
25
0
VERTEX
8
CUT
10
12.2
20
25
0
VERTEX
8
CUT
10
14.1318
20
23.8961
0
SEQEND
0
POLYLINE
8
CUT
66
1
70
0
0
VERTEX
8
CUT
10
8
20
21.8
0
VERTEX
8
CUT
10
12.2
20
21.8
0
VERTEX
8
CUT
10
14.1318
20
22.9039
0
SEQEND
0
POLYLINE
8
CUT
66
1
70
0
0
VERTEX
8
CUT
10
15.8682
20
23.8961
0
VERTEX
8
CUT
10
17.8
20
25
0
VERTEX
8
CUT
10
26.2
20
25
0
VERTEX
8
CUT
10
28.1318
20
23.8961
0
SEQEND
0
POLYLINE
8
CUT
66
1
70
0
0
VERTEX
8
CUT
10
15.8682
20
22.9039
0
VERTEX
8
CUT
10
17.8
20
21.8
0
VERTEX
8
CUT
10
26.2
20
21.8
0
VERTEX
8
CUT
10
28.1318
20
22.9039
0
SEQEND
0
POLYLINE
8
CUT
66
1
70
0
0
VERTEX
8
CUT
10
29.8682
20
23.8961
0
VERTEX
8
CUT
10
31.8
20
25
0
VERTEX
8
CUT
10
40.2
20
25
0
VERTEX
8
CUT
10
42.1318
20
23.8961
0
SEQEND
0
POLYLINE
8
CUT
66
1
70
0
0
VERTEX
8
CUT
10
29.8682
20
22.9039
0
VERTEX
8
CUT
10
31.8
20
21.8
0
VERTEX
8
CUT
10
40.2
20
21.8
0
VERTEX
8
CUT
10
42.1318
20
22.9039
0
SEQEND
0
POLYLINE
8
CUT
66
1
70
0
0
VERTEX
8
CUT
10
43.8682
20
23.8961
0
VERTEX
8
CUT
10
45.8
20
25
0
VERTEX
8
CUT
10
54.2
20
25
0
VERTEX
8
CUT
10
56.1318
20
23.8961
0
SEQEND
0
POLYLINE
8
CUT
66
1
70
0
0
VERTEX
8
CUT
10
43.8682
20
22.9039
0
VERTEX
8
CUT
10
45.8
20
21.8
0
VERTEX
8
CUT
10
54.2
20
21.8
0
VERTEX
8
CUT
10
56.1318
20
22.9039
0
SEQEND
0
POLYLINE
8
CUT
66
1
70
0
0
VERTEX
8
CUT
10
57.8682
20
23.8961
0
VERTEX
8
CUT
10
59.8
20
25
0
VERTEX
8
CUT
10
62
20
25
0
SEQEND
0
POLYLINE
8
CUT
66
1
70
0
0
VERTEX
8
CUT
10
57.8682
20
22.9039
0
VERTEX
8
CUT
10
59.8
20
21.8
0
VERTEX
8
CUT
10
62
20
21.8
0
SEQEND
0
POLYLINE
8
CUT
66
1
70
0
0
VERTEX
8
CUT
10
8.8682
20
18.8961
0
VERTEX
8
CUT
10
10.8
20
20
0
VERTEX
8
CUT
10
19.2
20
20
0
VERTEX
8
CUT
10
21.1318
20
18.8961
0
SEQEND
0
POLYLINE
8
CUT
66
1
70
0
0
VERTEX
8
CUT
10
8.8682
20
17.9039
0
VERTEX
8
CUT
10
10.8
20
16.8
0
VERTEX
8
CUT
10
19.2
20
16.8
0
VERTEX
8
CUT
10
21.1318
20
17.9039
0
SEQEND
0
POLYLINE
8
CUT
66
1
70
0
0
VERTEX
8
CUT
10
22.8682
20
18.8961
0
VERTEX
8
CUT
10
24.8
20
20
0
VERTEX
8
CUT
10
33.2
20
20
0
VERTEX
8
CUT
10
35.1318
20
18.8961
0
SEQEND
0
POLYLINE
8
CUT
66
1
70
0
0
VERTEX
8
CUT
10
22.8682
20
17.9039
0
VERTEX
8
CUT
10
24.8
20
16.8
0
VERTEX
8
CUT
10
33.2
20
16.8
0
VERTEX
8
CUT
10
35.1318
20
17.9039
0
SEQEND
0
POLYLINE
8
CUT
66
1
70
0
0
VERTEX
8
CUT
10
36.8682
20
18.8961
0
VERTEX
8
CUT
10
38.8
20
20
0
VERTEX
8
CUT
10
47.2
20
20
0
VERTEX
8
CUT
10
49.1318
20
18.8961
0
SEQEND
0
POLYLINE
8
CUT
66
1
70
0
0
VERTEX
8
CUT
10
36.8682
20
17.9039
0
VERTEX
8
CUT
10
38.8
20
16.8
0
VERTEX
8
CUT
10
47.2
20
16.8
0
VERTEX
8
CUT
10
49.1318
20
17.9039
0
SEQEND
0
POLYLINE
8
CUT
66
1
70
0
0
VERTEX
8
CUT
10
50.8682
20
18.8961
0
VERTEX
8
CUT
10
52.8
20
20
0
VERTEX
8
CUT
10
61.2
20
20
0
VERTEX
8
CUT
10
62
20
19.5429
0
SEQEND
0
POLYLINE
8
CUT
66
1
70
0
0
VERTEX
8
CUT
10
50.8682
20
17.9039
0
VERTEX
8
CUT
10
52.8
20
16.8
0
VERTEX
8
CUT
10
61.2
20
16.8
0
VERTEX
8
CUT
10
62
20
17.2571
0
SEQEND
0
POLYLINE
8
CUT
66
1
70
0
0
VERTEX
8
CUT
10
8
20
15
0
VERTEX
8
CUT
10
12.2
20
15
0
VERTEX
8
CUT
10
14.1318
20
13.8961
0
SEQEND
0
POLYLINE
8
CUT
66
1
70
0
0
VERTEX
8
CUT
10
8
20
11.8
0
VERTEX
8
CUT
10
12.2
20
11.8
0
VERTEX
8
CUT
10
14.1318
20
12.9039
0
SEQEND
0
POLYLINE
8
CUT
66
1
70
0
0
VERTEX
8
CUT
10
15.8682
20
13.8961
0
VERTEX
8
CUT
10
17.8
20
15
0
VERTEX
8
CUT
10
26.2
20
15
0
VERTEX
8
CUT
10
28.1318
20
13.8961
0
SEQEND
0
POLYLINE
8
CUT
66
1
70
0
0
VERTEX
8
CUT
10
15.8682
20
12.9039
0
VERTEX
8
CUT
10
17.8
20
11.8
0
VERTEX
8
CUT
10
26.2
20
11.8
0
VERTEX
8
CUT
10
28.1318
20
12.9039
0
SEQEND
0
POLYLINE
8
CUT
66
1
70
0
0
VERTEX
8
CUT
10
29.8682
20
13.8961
0
VERTEX
8
CUT
10
31.8
20
15
0
VERTEX
8
CUT
10
40.2
20
15
0
VERTEX
8
CUT
10
42.1318
20
13.8961
0
SEQEND
0
POLYLINE
8
CUT
66
1
70
0
0
VERTEX
8
CUT
10
29.8682
20
12.9039
0
VERTEX
8
CUT
10
31.8
20
11.8
0
VERTEX
8
CUT
10
40.2
20
11.8
0
VERTEX
8
CUT
10
42.1318
20
12.9039
0
SEQEND
0
POLYLINE
8
CUT
66
1
70
0
0
VERTEX
8
CUT
10
43.8682
20
13.8961
0
VERTEX
8
CUT
10
45.8
20
15
0
VERTEX
8
CUT
10
54.2
20
15
0
VERTEX
8
CUT
10
56.1318
20
13.8961
0
SEQEND
0
POLYLINE
8
CUT
66
1
70
0
0
VERTEX
8
CUT
10
43.8682
20
12.9039
0
VERTEX
8
CUT
10
45.8
20
11.8
0
VERTEX
8
CUT
10
54.2
20
11.8
0
VERTEX
8
CUT
10
56.1318
20
12.9039
0
SEQEND
0
POLYLINE
8
CUT
66
1
70
0
0
VERTEX
8
CUT
10
57.8682
20
13.8961
0
VERTEX
8
CUT
10
59.8
20
15
0
VERTEX
8
CUT
10
62
20
15
0
SEQEND
0
POLYLINE
8
CUT
66
1
70
0
0
VERTEX
8
CUT
10
57.8682
20
12.9039
0
VERTEX
8
CUT
10
59.8
20
11.8
0
VERTEX
8
CUT
10
62
20
11.8
0
SEQEND
0
POLYLINE
8
CUT
66
1
70
0
0
VERTEX
8
CUT
10
8.8682
20
8.8961
0
VERTEX
8
CUT
10
10.8
20
10
0
VERTEX
8
CUT
10
19.2
20
10
0
VERTEX
8
CUT
10
21.1318
20
8.8961
0
SEQEND
0
POLYLINE
8
CUT
66
1
70
0
0
VERTEX
8
CUT
10
8.8682
20
7.9039
0
VERTEX
8
CUT
10
10.8
20
6.8
0
VERTEX
8
CUT
10
19.2
20
6.8
0
VERTEX
8
CUT
10
21.1318
20
7.9039
0
SEQEND
0
POLYLINE
8
CUT
66
1
70
0
0
VERTEX
8
CUT
10
22.8682
20
8.8961
0
VERTEX
8
CUT
10
24.8
20
10
0
VERTEX
8
CUT
10
33.2
20
10
0
VERTEX
8
CUT
10
35.1318
20
8.8961
0
SEQEND
0
POLYLINE
8
CUT
66
1
70
0
0
VERTEX
8
CUT
10
22.8682
20
7.9039
0
VERTEX
8
CUT
10
24.8
20
6.8
0
VERTEX
8
CUT
10
33.2
20
6.8
0
VERTEX
8
CUT
10
35.1318
20
7.9039
0
SEQEND
0
POLYLINE
8
CUT
66
1
70
0
0
VERTEX
8
CUT
10
36.8682
20
8.8961
0
VERTEX
8
CUT
10
38.8
20
10
0
VERTEX
8
CUT
10
47.2
20
10
0
VERTEX
8
CUT
10
49.1318
20
8.8961
0
SEQEND
0
POLYLINE
8
CUT
66
1
70
0
0
VERTEX
8
CUT
10
36.8682
20
7.9039
0
VERTEX
8
CUT
10
38.8
20
6.8
0
VERTEX
8
CUT
10
47.2
20
6.8
0
VERTEX
8
CUT
10
49.1318
20
7.9039
0
SEQEND
0
POLYLINE
8
CUT
66
1
70
0
0
VERTEX
8
CUT
10
50.8682
20
8.8961
0
VERTEX
8
CUT
10
52.8
20
10
0
VERTEX
8
CUT
10
61.2
20
10
0
VERTEX
8
CUT
10
62
20
9.5429
0
SEQEND
0
POLYLINE
8
CUT
66
1
70
0
0
VERTEX
8
CUT
10
50.8682
20
7.9039
0
VERTEX
8
CUT
10
52.8
20
6.8
0
VERTEX
8
CUT
10
61.2
20
6.8
0
VERTEX
8
CUT
10
62
20
7.2571
0
SEQEND
0
POLYLINE
8
CUT
66
1
70
0
0
VERTEX
8
CUT
10
8
20
5
0
VERTEX
8
CUT
10
12.2
20
5
0
VERTEX
8
CUT
10
14.1318
20
3.8961
0
SEQEND
0
POLYLINE
8
CUT
66
1
70
0
0
VERTEX
8
CUT
10
8
20
1.8
0
VERTEX
8
CUT
10
12.2
20
1.8
0
VERTEX
8
CUT
10
14.1318
20
2.9039
0
SEQEND
0
POLYLINE
8
CUT
66
1
70
0
0
VERTEX
8
CUT
10
15.8682
20
3.8961
0
VERTEX
8
CUT
10
17.8
20
5
0
VERTEX
8
CUT
10
26.2
20
5
0
VERTEX
8
CUT
10
28.1318
20
3.8961
0
SEQEND
0
POLYLINE
8
CUT
66
1
70
0
0
VERTEX
8
CUT
10
15.8682
20
2.9039
0
VERTEX
8
CUT
10
17.8
20
1.8
0
VERTEX
8
CUT
10
26.2
20
1.8
0
VERTEX
8
CUT
10
28.1318
20
2.9039
0
SEQEND
0
POLYLINE
8
CUT
66
1
70
0
0
VERTEX
8
CUT
10
29.8682
20
3.8961
0
VERTEX
8
CUT
10
31.8
20
5
0
VERTEX
8
CUT
10
40.2
20
5
0
VERTEX
8
CUT
10
42.1318
20
3.8961
0
SEQEND
0
POLYLINE
8
CUT
66
1
70
0
0
VERTEX
8
CUT
10
29.8682
20
2.9039
0
VERTEX
8
CUT
10
31.8
20
1.8
0
VERTEX
8
CUT
10
40.2
20
1.8
0
VERTEX
8
CUT
10
42.1318
20
2.9039
0
SEQEND
0
POLYLINE
8
CUT
66
1
70
0
0
VERTEX
8
CUT
10
43.8682
20
3.8961
0
VERTEX
8
CUT
10
45.8
20
5
0
VERTEX
8
CUT
10
54.2
20
5
0
VERTEX
8
CUT
10
56.1318
20
3.8961
0
SEQEND
0
POLYLINE
8
CUT
66
1
70
0
0
VERTEX
8
CUT
10
43.8682
20
2.9039
0
VERTEX
8
CUT
10
45.8
20
1.8
0
VERTEX
8
CUT
10
54.2
20
1.8
0
VERTEX
8
CUT
10
56.1318
20
2.9039
0
SEQEND
0
POLYLINE
8
CUT
66
1
70
0
0
VERTEX
8
CUT
10
57.8682
20
3.8961
0
VERTEX
8
CUT
10
59.8
20
5
0
VERTEX
8
CUT
10
62
20
5
0
SEQEND
0
POLYLINE
8
CUT
66
1
70
0
0
VERTEX
8
CUT
10
57.8682
20
2.9039
0
VERTEX
8
CUT
10
59.8
20
1.8
0
VERTEX
8
CUT
10
62
20
1.8
0
SEQEND
0
POLYLINE
8
CUT
66
1
70
0
0
VERTEX
8
CUT
10
10.8
20
0
0
VERTEX
8
CUT
10
10.8
20
0
0
VERTEX
8
CUT
10
19.2
20
0
0
VERTEX
8
CUT
10
19.2
20
0
0
SEQEND
0
POLYLINE
8
CUT
66
1
70
0
0
VERTEX
8
CUT
10
24.8
20
0
0
VERTEX
8
CUT
10
24.8
20
0
0
VERTEX
8
CUT
10
33.2
20
0
0
VERTEX
8
CUT
10
33.2
20
0
0
SEQEND
0
POLYLINE
8
CUT
66
1
70
0
0
VERTEX
8
CUT
10
38.8
20
0
0
VERTEX
8
CUT
10
38.8
20
0
0
VERTEX
8
CUT
10
47.2
20
0
0
VERTEX
8
CUT
10
47.2
20
0
0
SEQEND
0
POLYLINE
8
CUT
66
1
70
0
0
VERTEX
8
CUT
10
52.8
20
0
0
VERTEX
8
CUT
10
52.8
20
0
0
VERTEX
8
CUT
10
61.2
20
0
0
VERTEX
8
CUT
10
61.2
20
0
0
SEQEND
0
LINE
8
CUT
10
2.5
20
0
11
2.5
21
3
0
LINE
8
CUT
10
5
20
0
11
5
21
3
0
LINE
8
CUT
10
7.5
20
0
11
7.5
21
3
0
LINE
8
CUT
10
10
20
0
11
10
21
3
0
LINE
8
CUT
10
12.5
20
0
11
12.5
21
3
0
ENDSEC
0
EOF
