0
SECTION
2
HEADER
9
$ACADVER
1
AC1009
9
$INSUNITS
70
4
0
ENDSEC
0
SECTION
2
TABLES
0
TABLE
2
LAYER
70
1
0
LAYER
2
CUT
70
0
62
1
6
CONTINUOUS
0
ENDTAB
0
ENDSEC
0
SECTION
2
ENTITIES
0
POLYLINE
8
CUT
66
1
70
0
0
VERTEX
8
CUT
10
0
20
174
0
VERTEX
8
CUT
10
70
20
174
0
VERTEX
8
CUT
10
70
20
144
0
VERTEX
8
CUT
10
0
20
144
0
VERTEX
8
CUT
10
0
20
174
0
SEQEND
0
LINE
8
CUT
10
11
20
174
11
11
21
164
0
LINE
8
CUT
10
11
20
162.8
11
11
21
144
0
LINE
8
CUT
10
17
20
173.4
11
17
21
153.4
0
LINE
8
CUT
10
17
20
152.2
11
17
21
144
0
LINE
8
CUT
10
23
20
174
11
23
21
164
0
LINE
8
CUT
10
23
20
162.8
11
23
21
144
0
LINE
8
CUT
10
29
20
173.4
11
29
21
153.4
0
LINE
8
CUT
10
29
20
152.2
11
29
21
144
0
LINE
8
CUT
10
35
20
174
11
35
21
164
0
LINE
8
CUT
10
35
20
162.8
11
35
21
144
0
LINE
8
CUT
10
41
20
173.4
11
41
21
153.4
0
LINE
8
CUT
10
41
20
152.2
11
41
21
144
0
LINE
8
CUT
10
47
20
174
11
47
21
164
0
LINE
8
CUT
10
47
20
162.8
11
47
21
144
0
LINE
8
CUT
10
53
20
173.4
11
53
21
153.4
0
LINE
8
CUT
10
53
20
152.2
11
53
21
144
0
LINE
8
CUT
10
59
20
174
11
59
21
164
0
LINE
8
CUT
10
59
20
162.8
11
59
21
144
0
LINE
8
CUT
10
2.5
20
144
11
2.5
21
147
0
POLYLINE
8
CUT
66
1
70
0
0
VERTEX
8
CUT
10
0
20
138
0
VERTEX
8
CUT
10
70
20
138
0
VERTEX
8
CUT
10
70
20
108
0
VERTEX
8
CUT
10
0
20
108
0
VERTEX
8
CUT
10
0
20
138
0
SEQEND
0
LINE
8
CUT
10
11
20
138
11
11
21
128
0
LINE
8
CUT
10
11
20
126.4
11
11
21
108
0
LINE
8
CUT
10
17
20
137.2
11
17
21
117.2
0
LINE
8
CUT
10
17
20
115.6
11
17
21
108
0
LINE
8
CUT
10
23
20
138
11
23
21
128
0
LINE
8
CUT
10
23
20
126.4
11
23
21
108
0
LINE
8
CUT
10
29
20
137.2
11
29
21
117.2
0
LINE
8
CUT
10
29
20
115.6
11
29
21
108
0
LINE
8
CUT
10
35
20
138
11
35
21
128
0
LINE
8
CUT
10
35
20
126.4
11
35
21
108
0
LINE
8
CUT
10
41
20
137.2
11
41
21
117.2
0
LINE
8
CUT
10
41
20
115.6
11
41
21
108
0
LINE
8
CUT
10
47
20
138
11
47
21
128
0
LINE
8
CUT
10
47
20
126.4
11
47
21
108
0
LINE
8
CUT
10
53
20
137.2
11
53
21
117.2
0
LINE
8
CUT
10
53
20
115.6
11
53
21
108
0
LINE
8
CUT
10
59
20
138
11
59
21
128
0
LINE
8
CUT
10
59
20
126.4
11
59
21
108
0
LINE
8
CUT
10
2.5
20
108
11
2.5
21
111
0
LINE
8
CUT
10
5
20
108
11
5
21
111
0
POLYLINE
8
CUT
66
1
70
0
0
VERTEX
8
CUT
10
0
20
102
0
VERTEX
8
CUT
10
70
20
102
0
VERTEX
8
CUT
10
70
20
72
0
VERTEX
8
CUT
10
0
20
72
0
VERTEX
8
CUT
10
0
20
102
0
SEQEND
0
LINE
8
CUT
10
11
20
102
11
11
21
92
0
LINE
8
CUT
10
11
20
90
11
11
21
72
0
LINE
8
CUT
10
17
20
101
11
17
21
81
0
LINE
8
CUT
10
17
20
79
11
17
21
72
0
LINE
8
CUT
10
23
20
102
11
23
21
92
0
LINE
8
CUT
10
23
20
90
11
23
21
72
0
LINE
8
CUT
10
29
20
101
11
29
21
81
0
LINE
8
CUT
10
29
20
79
11
29
21
72
0
LINE
8
CUT
10
35
20
102
11
35
21
92
0
LINE
8
CUT
10
35
20
90
11
35
21
72
0
LINE
8
CUT
10
41
20
101
11
41
21
81
0
LINE
8
CUT
10
41
20
79
11
41
21
72
0
LINE
8
CUT
10
47
20
102
11
47
21
92
0
LINE
8
CUT
10
47
20
90
11
47
21
72
0
LINE
8
CUT
10
53
20
101
11
53
21
81
0
LINE
8
CUT
10
53
20
79
11
53
21
72
0
LINE
8
CUT
10
59
20
102
11
59
21
92
0
LINE
8
CUT
10
59
20
90
11
59
21
72
0
LINE
8
CUT
10
2.5
20
72
11
2.5
21
75
0
LINE
8
CUT
10
5
20
72
11
5
21
75
0
LINE
8
CUT
10
7.5
20
72
11
7.5
21
75
0
POLYLINE
8
CUT
66
1
70
0
0
VERTEX
8
CUT
10
0
20
66
0
VERTEX
8
CUT
10
70
20
66
0
VERTEX
8
CUT
10
70
20
36
0
VERTEX
8
CUT
10
0
20
36
0
VERTEX
8
CUT
10
0
20
66
0
SEQEND
0
LINE
8
CUT
10
11
20
66
11
11
21
56
0
LINE
8
CUT
10
11
20
53.6
11
11
21
36
0
LINE
8
CUT
10
17
20
64.8
11
17
21
44.8
0
LINE
8
CUT
10
17
20
42.4
11
17
21
36
0
LINE
8
CUT
10
23
20
66
11
23
21
56
0
LINE
8
CUT
10
23
20
53.6
11
23
21
36
0
LINE
8
CUT
10
29
20
64.8
11
29
21
44.8
0
LINE
8
CUT
10
29
20
42.4
11
29
21
36
0
LINE
8
CUT
10
35
20
66
11
35
21
56
0
LINE
8
CUT
10
35
20
53.6
11
35
21
36
0
LINE
8
CUT
10
41
20
64.8
11
41
21
44.8
0
LINE
8
CUT
10
41
20
42.4
11
41
21
36
0
LINE
8
CUT
10
47
20
66
11
47
21
56
0
LINE
8
CUT
10
47
20
53.6
11
47
21
36
0
LINE
8
CUT
10
53
20
64.8
11
53
21
44.8
0
LINE
8
CUT
10
53
20
42.4
11
53
21
36
0
LINE
8
CUT
10
59
20
66
11
59
21
56
0
LINE
8
CUT
10
59
20
53.6
11
59
21
36
0
LINE
8
CUT
10
2.5
20
36
11
2.5
21
39
0
LINE
8
CUT
10
5
20
36
11
5
21
39
0
LINE
8
CUT
10
7.5
20
36
11
7.5
21
39
0
LINE
8
CUT
10
10
20
36
11
10
21
39
0
POLYLINE
8
CUT
66
1
70
0
0
VERTEX
8
CUT
10
0
20
30
0
VERTEX
8
CUT
10
70
20
30
0
VERTEX
8
CUT
10
70
20
0
0
VERTEX
8
CUT
10
0
20
0
0
VERTEX
8
CUT
10
0
20
30
0
SEQEND
0
LINE
8
CUT
10
11
20
30
11
11
21
20
0
LINE
8
CUT
10
11
20
17.2
11
11
21
0
0
LINE
8
CUT
10
17
20
28.6
11
17
21
8.6
0
LINE
8
CUT
10
17
20
5.8
11
17
21
0
0
LINE
8
CUT
10
23
20
30
11
23
21
20
0
LINE
8
CUT
10
23
20
17.2
11
23
21
0
0
LINE
8
CUT
10
29
20
28.6
11
29
21
8.6
0
LINE
8
CUT
10
29
20
5.8
11
29
21
0
0
LINE
8
CUT
10
35
20
30
11
35
21
20
0
LINE
8
CUT
10
35
20
17.2
11
35
21
0
0
LINE
8
CUT
10
41
20
28.6
11
41
21
8.6
0
LINE
8
CUT
10
41
20
5.8
11
41
21
0
0
LINE
8
CUT
10
47
20
30
11
47
21
20
0
LINE
8
CUT
10
47
20
17.2
11
47
21
0
0
LINE
8
CUT
10
53
20
28.6
11
53
21
8.6
0
LINE
8
CUT
10
53
20
5.8
11
53
21
0
0
LINE
8
CUT
10
59
20
30
11
59
21
20
0
LINE
8
CUT
10
59
20
17.2
11
59
21
0
0
LINE
8
CUT
10
2.5
20
0
11
2.5
21
3
0
LINE
8
CUT
10
5
20
0
11
5
21
3
0
LINE
8
CUT
10
7.5
20
0
11
7.5
21
3
0
LINE
8
CUT
10
10
20
0
11
10
21
3
0
LINE
8
CUT
10
12.5
20
0
11
12.5
21
3
0
ENDSEC
0
EOF
