0
SECTION
2
HEADER
9
$ACADVER
1
AC1009
9
$INSUNITS
70
4
0
ENDSEC
0
SECTION
2
TABLES
0
TABLE
2
LAYER
70
1
0
LAYER
2
CUT
70
0
62
1
6
CONTINUOUS
0
ENDTAB
0
ENDSEC
0
SECTION
2
ENTITIES
0
POLYLINE
8
CUT
66
1
70
0
0
VERTEX
8
CUT
10
0
20
174
0
VERTEX
8
CUT
10
70
20
174
0
VERTEX
8
CUT
10
70
20
144
0
VERTEX
8
CUT
10
0
20
144
0
VERTEX
8
CUT
10
0
20
174
0
SEQEND
0
POLYLINE
8
CUT
66
1
70
0
0
VERTEX
8
CUT
10
13
20
174
0
VERTEX
8
CUT
10
13
20
174
0
VERTEX
8
CUT
10
12.9592
20
172.5714
0
VERTEX
8
CUT
10
12.8367
20
171.1429
0
VERTEX
8
CUT
10
12.6327
20
169.7143
0
VERTEX
8
CUT
10
12.3469
20
168.2857
0
VERTEX
8
CUT
10
11.9796
20
166.8571
0
VERTEX
8
CUT
10
11.5306
20
165.4286
0
VERTEX
8
CUT
10
11
20
164
0
SEQEND
0
POLYLINE
8
CUT
66
1
70
0
0
VERTEX
8
CUT
10
11
20
162.8
0
VERTEX
8
CUT
10
11.5306
20
161.3714
0
VERTEX
8
CUT
10
11.9796
20
159.9429
0
VERTEX
8
CUT
10
12.3469
20
158.5143
0
VERTEX
8
CUT
10
12.6327
20
157.0857
0
VERTEX
8
CUT
10
12.8367
20
155.6571
0
VERTEX
8
CUT
10
12.9592
20
154.2286
0
VERTEX
8
CUT
10
13
20
152.8
0
VERTEX
8
CUT
10
12.9592
20
151.3714
0
VERTEX
8
CUT
10
12.8367
20
149.9429
0
VERTEX
8
CUT
10
12.6327
20
148.5143
0
VERTEX
8
CUT
10
12.3469
20
147.0857
0
VERTEX
8
CUT
10
11.9796
20
145.6571
0
VERTEX
8
CUT
10
11.5306
20
144.2286
0
VERTEX
8
CUT
10
11.4457
20
144
0
SEQEND
0
POLYLINE
8
CUT
66
1
70
0
0
VERTEX
8
CUT
10
17
20
173.4
0
VERTEX
8
CUT
10
16.4694
20
171.9714
0
VERTEX
8
CUT
10
16.0204
20
170.5429
0
VERTEX
8
CUT
10
15.6531
20
169.1143
0
VERTEX
8
CUT
10
15.3673
20
167.6857
0
VERTEX
8
CUT
10
15.1633
20
166.2571
0
VERTEX
8
CUT
10
15.0408
20
164.8286
0
VERTEX
8
CUT
10
15
20
163.4
0
VERTEX
8
CUT
10
15.0408
20
161.9714
0
VERTEX
8
CUT
10
15.1633
20
160.5429
0
VERTEX
8
CUT
10
15.3673
20
159.1143
0
VERTEX
8
CUT
10
15.6531
20
157.6857
0
VERTEX
8
CUT
10
16.0204
20
156.2571
0
VERTEX
8
CUT
10
16.4694
20
154.8286
0
VERTEX
8
CUT
10
17
20
153.4
0
SEQEND
0
POLYLINE
8
CUT
66
1
70
0
0
VERTEX
8
CUT
10
17
20
152.2
0
VERTEX
8
CUT
10
16.4694
20
150.7714
0
VERTEX
8
CUT
10
16.0204
20
149.3429
0
VERTEX
8
CUT
10
15.6531
20
147.9143
0
VERTEX
8
CUT
10
15.3673
20
146.4857
0
VERTEX
8
CUT
10
15.1633
20
145.0571
0
VERTEX
8
CUT
10
15.0727
20
144
0
SEQEND
0
POLYLINE
8
CUT
66
1
70
0
0
VERTEX
8
CUT
10
25
20
174
0
VERTEX
8
CUT
10
25
20
174
0
VERTEX
8
CUT
10
24.9592
20
172.5714
0
VERTEX
8
CUT
10
24.8367
20
171.1429
0
VERTEX
8
CUT
10
24.6327
20
169.7143
0
VERTEX
8
CUT
10
24.3469
20
168.2857
0
VERTEX
8
CUT
10
23.9796
20
166.8571
0
VERTEX
8
CUT
10
23.5306
20
165.4286
0
VERTEX
8
CUT
10
23
20
164
0
SEQEND
0
POLYLINE
8
CUT
66
1
70
0
0
VERTEX
8
CUT
10
23
20
162.8
0
VERTEX
8
CUT
10
23.5306
20
161.3714
0
VERTEX
8
CUT
10
23.9796
20
159.9429
0
VERTEX
8
CUT
10
24.3469
20
158.5143
0
VERTEX
8
CUT
10
24.6327
20
157.0857
0
VERTEX
8
CUT
10
24.8367
20
155.6571
0
VERTEX
8
CUT
10
24.9592
20
154.2286
0
VERTEX
8
CUT
10
25
20
152.8
0
VERTEX
8
CUT
10
24.9592
20
151.3714
0
VERTEX
8
CUT
10
24.8367
20
149.9429
0
VERTEX
8
CUT
10
24.6327
20
148.5143
0
VERTEX
8
CUT
10
24.3469
20
147.0857
0
VERTEX
8
CUT
10
23.9796
20
145.6571
0
VERTEX
8
CUT
10
23.5306
20
144.2286
0
VERTEX
8
CUT
10
23.4457
20
144
0
SEQEND
0
POLYLINE
8
CUT
66
1
70
0
0
VERTEX
8
CUT
10
29
20
173.4
0
VERTEX
8
CUT
10
28.4694
20
171.9714
0
VERTEX
8
CUT
10
28.0204
20
170.5429
0
VERTEX
8
CUT
10
27.6531
20
169.1143
0
VERTEX
8
CUT
10
27.3673
20
167.6857
0
VERTEX
8
CUT
10
27.1633
20
166.2571
0
VERTEX
8
CUT
10
27.0408
20
164.8286
0
VERTEX
8
CUT
10
27
20
163.4
0
VERTEX
8
CUT
10
27.0408
20
161.9714
0
VERTEX
8
CUT
10
27.1633
20
160.5429
0
VERTEX
8
CUT
10
27.3673
20
159.1143
0
VERTEX
8
CUT
10
27.6531
20
157.6857
0
VERTEX
8
CUT
10
28.0204
20
156.2571
0
VERTEX
8
CUT
10
28.4694
20
154.8286
0
VERTEX
8
CUT
10
29
20
153.4
0
SEQEND
0
POLYLINE
8
CUT
66
1
70
0
0
VERTEX
8
CUT
10
29
20
152.2
0
VERTEX
8
CUT
10
28.4694
20
150.7714
0
VERTEX
8
CUT
10
28.0204
20
149.3429
0
VERTEX
8
CUT
10
27.6531
20
147.9143
0
VERTEX
8
CUT
10
27.3673
20
146.4857
0
VERTEX
8
CUT
10
27.1633
20
145.0571
0
VERTEX
8
CUT
10
27.0727
20
144
0
SEQEND
0
POLYLINE
8
CUT
66
1
70
0
0
VERTEX
8
CUT
10
37
20
174
0
VERTEX
8
CUT
10
37
20
174
0
VERTEX
8
CUT
10
36.9592
20
172.5714
0
VERTEX
8
CUT
10
36.8367
20
171.1429
0
VERTEX
8
CUT
10
36.6327
20
169.7143
0
VERTEX
8
CUT
10
36.3469
20
168.2857
0
VERTEX
8
CUT
10
35.9796
20
166.8571
0
VERTEX
8
CUT
10
35.5306
20
165.4286
0
VERTEX
8
CUT
10
35
20
164
0
SEQEND
0
POLYLINE
8
CUT
66
1
70
0
0
VERTEX
8
CUT
10
35
20
162.8
0
VERTEX
8
CUT
10
35.5306
20
161.3714
0
VERTEX
8
CUT
10
35.9796
20
159.9429
0
VERTEX
8
CUT
10
36.3469
20
158.5143
0
VERTEX
8
CUT
10
36.6327
20
157.0857
0
VERTEX
8
CUT
10
36.8367
20
155.6571
0
VERTEX
8
CUT
10
36.9592
20
154.2286
0
VERTEX
8
CUT
10
37
20
152.8
0
VERTEX
8
CUT
10
36.9592
20
151.3714
0
VERTEX
8
CUT
10
36.8367
20
149.9429
0
VERTEX
8
CUT
10
36.6327
20
148.5143
0
VERTEX
8
CUT
10
36.3469
20
147.0857
0
VERTEX
8
CUT
10
35.9796
20
145.6571
0
VERTEX
8
CUT
10
35.5306
20
144.2286
0
VERTEX
8
CUT
10
35.4457
20
144
0
SEQEND
0
POLYLINE
8
CUT
66
1
70
0
0
VERTEX
8
CUT
10
41
20
173.4
0
VERTEX
8
CUT
10
40.4694
20
171.9714
0
VERTEX
8
CUT
10
40.0204
20
170.5429
0
VERTEX
8
CUT
10
39.6531
20
169.1143
0
VERTEX
8
CUT
10
39.3673
20
167.6857
0
VERTEX
8
CUT
10
39.1633
20
166.2571
0
VERTEX
8
CUT
10
39.0408
20
164.8286
0
VERTEX
8
CUT
10
39
20
163.4
0
VERTEX
8
CUT
10
39.0408
20
161.9714
0
VERTEX
8
CUT
10
39.1633
20
160.5429
0
VERTEX
8
CUT
10
39.3673
20
159.1143
0
VERTEX
8
CUT
10
39.6531
20
157.6857
0
VERTEX
8
CUT
10
40.0204
20
156.2571
0
VERTEX
8
CUT
10
40.4694
20
154.8286
0
VERTEX
8
CUT
10
41
20
153.4
0
SEQEND
0
POLYLINE
8
CUT
66
1
70
0
0
VERTEX
8
CUT
10
41
20
152.2
0
VERTEX
8
CUT
10
40.4694
20
150.7714
0
VERTEX
8
CUT
10
40.0204
20
149.3429
0
VERTEX
8
CUT
10
39.6531
20
147.9143
0
VERTEX
8
CUT
10
39.3673
20
146.4857
0
VERTEX
8
CUT
10
39.1633
20
145.0571
0
VERTEX
8
CUT
10
39.0727
20
144
0
SEQEND
0
POLYLINE
8
CUT
66
1
70
0
0
VERTEX
8
CUT
10
49
20
174
0
VERTEX
8
CUT
10
49
20
174
0
VERTEX
8
CUT
10
48.9592
20
172.5714
0
VERTEX
8
CUT
10
48.8367
20
171.1429
0
VERTEX
8
CUT
10
48.6327
20
169.7143
0
VERTEX
8
CUT
10
48.3469
20
168.2857
0
VERTEX
8
CUT
10
47.9796
20
166.8571
0
VERTEX
8
CUT
10
47.5306
20
165.4286
0
VERTEX
8
CUT
10
47
20
164
0
SEQEND
0
POLYLINE
8
CUT
66
1
70
0
0
VERTEX
8
CUT
10
47
20
162.8
0
VERTEX
8
CUT
10
47.5306
20
161.3714
0
VERTEX
8
CUT
10
47.9796
20
159.9429
0
VERTEX
8
CUT
10
48.3469
20
158.5143
0
VERTEX
8
CUT
10
48.6327
20
157.0857
0
VERTEX
8
CUT
10
48.8367
20
155.6571
0
VERTEX
8
CUT
10
48.9592
20
154.2286
0
VERTEX
8
CUT
10
49
20
152.8
0
VERTEX
8
CUT
10
48.9592
20
151.3714
0
VERTEX
8
CUT
10
48.8367
20
149.9429
0
VERTEX
8
CUT
10
48.6327
20
148.5143
0
VERTEX
8
CUT
10
48.3469
20
147.0857
0
VERTEX
8
CUT
10
47.9796
20
145.6571
0
VERTEX
8
CUT
10
47.5306
20
144.2286
0
VERTEX
8
CUT
10
47.4457
20
144
0
SEQEND
0
POLYLINE
8
CUT
66
1
70
0
0
VERTEX
8
CUT
10
53
20
173.4
0
VERTEX
8
CUT
10
52.4694
20
171.9714
0
VERTEX
8
CUT
10
52.0204
20
170.5429
0
VERTEX
8
CUT
10
51.6531
20
169.1143
0
VERTEX
8
CUT
10
51.3673
20
167.6857
0
VERTEX
8
CUT
10
51.1633
20
166.2571
0
VERTEX
8
CUT
10
51.0408
20
164.8286
0
VERTEX
8
CUT
10
51
20
163.4
0
VERTEX
8
CUT
10
51.0408
20
161.9714
0
VERTEX
8
CUT
10
51.1633
20
160.5429
0
VERTEX
8
CUT
10
51.3673
20
159.1143
0
VERTEX
8
CUT
10
51.6531
20
157.6857
0
VERTEX
8
CUT
10
52.0204
20
156.2571
0
VERTEX
8
CUT
10
52.4694
20
154.8286
0
VERTEX
8
CUT
10
53
20
153.4
0
SEQEND
0
POLYLINE
8
CUT
66
1
70
0
0
VERTEX
8
CUT
10
53
20
152.2
0
VERTEX
8
CUT
10
52.4694
20
150.7714
0
VERTEX
8
CUT
10
52.0204
20
149.3429
0
VERTEX
8
CUT
10
51.6531
20
147.9143
0
VERTEX
8
CUT
10
51.3673
20
146.4857
0
VERTEX
8
CUT
10
51.1633
20
145.0571
0
VERTEX
8
CUT
10
51.0727
20
144
0
SEQEND
0
POLYLINE
8
CUT
66
1
70
0
0
VERTEX
8
CUT
10
61
20
174
0
VERTEX
8
CUT
10
61
20
174
0
VERTEX
8
CUT
10
60.9592
20
172.5714
0
VERTEX
8
CUT
10
60.8367
20
171.1429
0
VERTEX
8
CUT
10
60.6327
20
169.7143
0
VERTEX
8
CUT
10
60.3469
20
168.2857
0
VERTEX
8
CUT
10
59.9796
20
166.8571
0
VERTEX
8
CUT
10
59.5306
20
165.4286
0
VERTEX
8
CUT
10
59
20
164
0
SEQEND
0
POLYLINE
8
CUT
66
1
70
0
0
VERTEX
8
CUT
10
59
20
162.8
0
VERTEX
8
CUT
10
59.5306
20
161.3714
0
VERTEX
8
CUT
10
59.9796
20
159.9429
0
VERTEX
8
CUT
10
60.3469
20
158.5143
0
VERTEX
8
CUT
10
60.6327
20
157.0857
0
VERTEX
8
CUT
10
60.8367
20
155.6571
0
VERTEX
8
CUT
10
60.9592
20
154.2286
0
VERTEX
8
CUT
10
61
20
152.8
0
VERTEX
8
CUT
10
60.9592
20
151.3714
0
VERTEX
8
CUT
10
60.8367
20
149.9429
0
VERTEX
8
CUT
10
60.6327
20
148.5143
0
VERTEX
8
CUT
10
60.3469
20
147.0857
0
VERTEX
8
CUT
10
59.9796
20
145.6571
0
VERTEX
8
CUT
10
59.5306
20
144.2286
0
VERTEX
8
CUT
10
59.4457
20
144
0
SEQEND
0
LINE
8
CUT
10
2.5
20
144
11
2.5
21
147
0
POLYLINE
8
CUT
66
1
70
0
0
VERTEX
8
CUT
10
0
20
138
0
VERTEX
8
CUT
10
70
20
138
0
VERTEX
8
CUT
10
70
20
108
0
VERTEX
8
CUT
10
0
20
108
0
VERTEX
8
CUT
10
0
20
138
0
SEQEND
0
POLYLINE
8
CUT
66
1
70
0
0
VERTEX
8
CUT
10
13
20
138
0
VERTEX
8
CUT
10
13
20
138
0
VERTEX
8
CUT
10
12.9592
20
136.5714
0
VERTEX
8
CUT
10
12.8367
20
135.1429
0
VERTEX
8
CUT
10
12.6327
20
133.7143
0
VERTEX
8
CUT
10
12.3469
20
132.2857
0
VERTEX
8
CUT
10
11.9796
20
130.8571
0
VERTEX
8
CUT
10
11.5306
20
129.4286
0
VERTEX
8
CUT
10
11
20
128
0
SEQEND
0
POLYLINE
8
CUT
66
1
70
0
0
VERTEX
8
CUT
10
11
20
126.4
0
VERTEX
8
CUT
10
11.5306
20
124.9714
0
VERTEX
8
CUT
10
11.9796
20
123.5429
0
VERTEX
8
CUT
10
12.3469
20
122.1143
0
VERTEX
8
CUT
10
12.6327
20
120.6857
0
VERTEX
8
CUT
10
12.8367
20
119.2571
0
VERTEX
8
CUT
10
12.9592
20
117.8286
0
VERTEX
8
CUT
10
13
20
116.4
0
VERTEX
8
CUT
10
12.9592
20
114.9714
0
VERTEX
8
CUT
10
12.8367
20
113.5429
0
VERTEX
8
CUT
10
12.6327
20
112.1143
0
VERTEX
8
CUT
10
12.3469
20
110.6857
0
VERTEX
8
CUT
10
11.9796
20
109.2571
0
VERTEX
8
CUT
10
11.5845
20
108
0
SEQEND
0
POLYLINE
8
CUT
66
1
70
0
0
VERTEX
8
CUT
10
17
20
137.2
0
VERTEX
8
CUT
10
16.4694
20
135.7714
0
VERTEX
8
CUT
10
16.0204
20
134.3429
0
VERTEX
8
CUT
10
15.6531
20
132.9143
0
VERTEX
8
CUT
10
15.3673
20
131.4857
0
VERTEX
8
CUT
10
15.1633
20
130.0571
0
VERTEX
8
CUT
10
15.0408
20
128.6286
0
VERTEX
8
CUT
10
15
20
127.2
0
VERTEX
8
CUT
10
15.0408
20
125.7714
0
VERTEX
8
CUT
10
15.1633
20
124.3429
0
VERTEX
8
CUT
10
15.3673
20
122.9143
0
VERTEX
8
CUT
10
15.6531
20
121.4857
0
VERTEX
8
CUT
10
16.0204
20
120.0571
0
VERTEX
8
CUT
10
16.4694
20
118.6286
0
VERTEX
8
CUT
10
17
20
117.2
0
SEQEND
0
POLYLINE
8
CUT
66
1
70
0
0
VERTEX
8
CUT
10
17
20
115.6
0
VERTEX
8
CUT
10
16.4694
20
114.1714
0
VERTEX
8
CUT
10
16.0204
20
112.7429
0
VERTEX
8
CUT
10
15.6531
20
111.3143
0
VERTEX
8
CUT
10
15.3673
20
109.8857
0
VERTEX
8
CUT
10
15.1633
20
108.4571
0
VERTEX
8
CUT
10
15.1241
20
108
0
SEQEND
0
POLYLINE
8
CUT
66
1
70
0
0
VERTEX
8
CUT
10
25
20
138
0
VERTEX
8
CUT
10
25
20
138
0
VERTEX
8
CUT
10
24.9592
20
136.5714
0
VERTEX
8
CUT
10
24.8367
20
135.1429
0
VERTEX
8
CUT
10
24.6327
20
133.7143
0
VERTEX
8
CUT
10
24.3469
20
132.2857
0
VERTEX
8
CUT
10
23.9796
20
130.8571
0
VERTEX
8
CUT
10
23.5306
20
129.4286
0
VERTEX
8
CUT
10
23
20
128
0
SEQEND
0
POLYLINE
8
CUT
66
1
70
0
0
VERTEX
8
CUT
10
23
20
126.4
0
VERTEX
8
CUT
10
23.5306
20
124.9714
0
VERTEX
8
CUT
10
23.9796
20
123.5429
0
VERTEX
8
CUT
10
24.3469
20
122.1143
0
VERTEX
8
CUT
10
24.6327
20
120.6857
0
VERTEX
8
CUT
10
24.8367
20
119.2571
0
VERTEX
8
CUT
10
24.9592
20
117.8286
0
VERTEX
8
CUT
10
25
20
116.4
0
VERTEX
8
CUT
10
24.9592
20
114.9714
0
VERTEX
8
CUT
10
24.8367
20
113.5429
0
VERTEX
8
CUT
10
24.6327
20
112.1143
0
VERTEX
8
CUT
10
24.3469
20
110.6857
0
VERTEX
8
CUT
10
23.9796
20
109.2571
0
VERTEX
8
CUT
10
23.5845
20
108
0
SEQEND
0
POLYLINE
8
CUT
66
1
70
0
0
VERTEX
8
CUT
10
29
20
137.2
0
VERTEX
8
CUT
10
28.4694
20
135.7714
0
VERTEX
8
CUT
10
28.0204
20
134.3429
0
VERTEX
8
CUT
10
27.6531
20
132.9143
0
VERTEX
8
CUT
10
27.3673
20
131.4857
0
VERTEX
8
CUT
10
27.1633
20
130.0571
0
VERTEX
8
CUT
10
27.0408
20
128.6286
0
VERTEX
8
CUT
10
27
20
127.2
0
VERTEX
8
CUT
10
27.0408
20
125.7714
0
VERTEX
8
CUT
10
27.1633
20
124.3429
0
VERTEX
8
CUT
10
27.3673
20
122.9143
0
VERTEX
8
CUT
10
27.6531
20
121.4857
0
VERTEX
8
CUT
10
28.0204
20
120.0571
0
VERTEX
8
CUT
10
28.4694
20
118.6286
0
VERTEX
8
CUT
10
29
20
117.2
0
SEQEND
0
POLYLINE
8
CUT
66
1
70
0
0
VERTEX
8
CUT
10
29
20
115.6
0
VERTEX
8
CUT
10
28.4694
20
114.1714
0
VERTEX
8
CUT
10
28.0204
20
112.7429
0
VERTEX
8
CUT
10
27.6531
20
111.3143
0
VERTEX
8
CUT
10
27.3673
20
109.8857
0
VERTEX
8
CUT
10
27.1633
20
108.4571
0
VERTEX
8
CUT
10
27.1241
20
108
0
SEQEND
0
POLYLINE
8
CUT
66
1
70
0
0
VERTEX
8
CUT
10
37
20
138
0
VERTEX
8
CUT
10
37
20
138
0
VERTEX
8
CUT
10
36.9592
20
136.5714
0
VERTEX
8
CUT
10
36.8367
20
135.1429
0
VERTEX
8
CUT
10
36.6327
20
133.7143
0
VERTEX
8
CUT
10
36.3469
20
132.2857
0
VERTEX
8
CUT
10
35.9796
20
130.8571
0
VERTEX
8
CUT
10
35.5306
20
129.4286
0
VERTEX
8
CUT
10
35
20
128
0
SEQEND
0
POLYLINE
8
CUT
66
1
70
0
0
VERTEX
8
CUT
10
35
20
126.4
0
VERTEX
8
CUT
10
35.5306
20
124.9714
0
VERTEX
8
CUT
10
35.9796
20
123.5429
0
VERTEX
8
CUT
10
36.3469
20
122.1143
0
VERTEX
8
CUT
10
36.6327
20
120.6857
0
VERTEX
8
CUT
10
36.8367
20
119.2571
0
VERTEX
8
CUT
10
36.9592
20
117.8286
0
VERTEX
8
CUT
10
37
20
116.4
0
VERTEX
8
CUT
10
36.9592
20
114.9714
0
VERTEX
8
CUT
10
36.8367
20
113.5429
0
VERTEX
8
CUT
10
36.6327
20
112.1143
0
VERTEX
8
CUT
10
36.3469
20
110.6857
0
VERTEX
8
CUT
10
35.9796
20
109.2571
0
VERTEX
8
CUT
10
35.5845
20
108
0
SEQEND
0
POLYLINE
8
CUT
66
1
70
0
0
VERTEX
8
CUT
10
41
20
137.2
0
VERTEX
8
CUT
10
40.4694
20
135.7714
0
VERTEX
8
CUT
10
40.0204
20
134.3429
0
VERTEX
8
CUT
10
39.6531
20
132.9143
0
VERTEX
8
CUT
10
39.3673
20
131.4857
0
VERTEX
8
CUT
10
39.1633
20
130.0571
0
VERTEX
8
CUT
10
39.0408
20
128.6286
0
VERTEX
8
CUT
10
39
20
127.2
0
VERTEX
8
CUT
10
39.0408
20
125.7714
0
VERTEX
8
CUT
10
39.1633
20
124.3429
0
VERTEX
8
CUT
10
39.3673
20
122.9143
0
VERTEX
8
CUT
10
39.6531
20
121.4857
0
VERTEX
8
CUT
10
40.0204
20
120.0571
0
VERTEX
8
CUT
10
40.4694
20
118.6286
0
VERTEX
8
CUT
10
41
20
117.2
0
SEQEND
0
POLYLINE
8
CUT
66
1
70
0
0
VERTEX
8
CUT
10
41
20
115.6
0
VERTEX
8
CUT
10
40.4694
20
114.1714
0
VERTEX
8
CUT
10
40.0204
20
112.7429
0
VERTEX
8
CUT
10
39.6531
20
111.3143
0
VERTEX
8
CUT
10
39.3673
20
109.8857
0
VERTEX
8
CUT
10
39.1633
20
108.4571
0
VERTEX
8
CUT
10
39.1241
20
108
0
SEQEND
0
POLYLINE
8
CUT
66
1
70
0
0
VERTEX
8
CUT
10
49
20
138
0
VERTEX
8
CUT
10
49
20
138
0
VERTEX
8
CUT
10
48.9592
20
136.5714
0
VERTEX
8
CUT
10
48.8367
20
135.1429
0
VERTEX
8
CUT
10
48.6327
20
133.7143
0
VERTEX
8
CUT
10
48.3469
20
132.2857
0
VERTEX
8
CUT
10
47.9796
20
130.8571
0
VERTEX
8
CUT
10
47.5306
20
129.4286
0
VERTEX
8
CUT
10
47
20
128
0
SEQEND
0
POLYLINE
8
CUT
66
1
70
0
0
VERTEX
8
CUT
10
47
20
126.4
0
VERTEX
8
CUT
10
47.5306
20
124.9714
0
VERTEX
8
CUT
10
47.9796
20
123.5429
0
VERTEX
8
CUT
10
48.3469
20
122.1143
0
VERTEX
8
CUT
10
48.6327
20
120.6857
0
VERTEX
8
CUT
10
48.8367
20
119.2571
0
VERTEX
8
CUT
10
48.9592
20
117.8286
0
VERTEX
8
CUT
10
49
20
116.4
0
VERTEX
8
CUT
10
48.9592
20
114.9714
0
VERTEX
8
CUT
10
48.8367
20
113.5429
0
VERTEX
8
CUT
10
48.6327
20
112.1143
0
VERTEX
8
CUT
10
48.3469
20
110.6857
0
VERTEX
8
CUT
10
47.9796
20
109.2571
0
VERTEX
8
CUT
10
47.5845
20
108
0
SEQEND
0
POLYLINE
8
CUT
66
1
70
0
0
VERTEX
8
CUT
10
53
20
137.2
0
VERTEX
8
CUT
10
52.4694
20
135.7714
0
VERTEX
8
CUT
10
52.0204
20
134.3429
0
VERTEX
8
CUT
10
51.6531
20
132.9143
0
VERTEX
8
CUT
10
51.3673
20
131.4857
0
VERTEX
8
CUT
10
51.1633
20
130.0571
0
VERTEX
8
CUT
10
51.0408
20
128.6286
0
VERTEX
8
CUT
10
51
20
127.2
0
VERTEX
8
CUT
10
51.0408
20
125.7714
0
VERTEX
8
CUT
10
51.1633
20
124.3429
0
VERTEX
8
CUT
10
51.3673
20
122.9143
0
VERTEX
8
CUT
10
51.6531
20
121.4857
0
VERTEX
8
CUT
10
52.0204
20
120.0571
0
VERTEX
8
CUT
10
52.4694
20
118.6286
0
VERTEX
8
CUT
10
53
20
117.2
0
SEQEND
0
POLYLINE
8
CUT
66
1
70
0
0
VERTEX
8
CUT
10
53
20
115.6
0
VERTEX
8
CUT
10
52.4694
20
114.1714
0
VERTEX
8
CUT
10
52.0204
20
112.7429
0
VERTEX
8
CUT
10
51.6531
20
111.3143
0
VERTEX
8
CUT
10
51.3673
20
109.8857
0
VERTEX
8
CUT
10
51.1633
20
108.4571
0
VERTEX
8
CUT
10
51.1241
20
108
0
SEQEND
0
POLYLINE
8
CUT
66
1
70
0
0
VERTEX
8
CUT
10
61
20
138
0
VERTEX
8
CUT
10
61
20
138
0
VERTEX
8
CUT
10
60.9592
20
136.5714
0
VERTEX
8
CUT
10
60.8367
20
135.1429
0
VERTEX
8
CUT
10
60.6327
20
133.7143
0
VERTEX
8
CUT
10
60.3469
20
132.2857
0
VERTEX
8
CUT
10
59.9796
20
130.8571
0
VERTEX
8
CUT
10
59.5306
20
129.4286
0
VERTEX
8
CUT
10
59
20
128
0
SEQEND
0
POLYLINE
8
CUT
66
1
70
0
0
VERTEX
8
CUT
10
59
20
126.4
0
VERTEX
8
CUT
10
59.5306
20
124.9714
0
VERTEX
8
CUT
10
59.9796
20
123.5429
0
VERTEX
8
CUT
10
60.3469
20
122.1143
0
VERTEX
8
CUT
10
60.6327
20
120.6857
0
VERTEX
8
CUT
10
60.8367
20
119.2571
0
VERTEX
8
CUT
10
60.9592
20
117.8286
0
VERTEX
8
CUT
10
61
20
116.4
0
VERTEX
8
CUT
10
60.9592
20
114.9714
0
VERTEX
8
CUT
10
60.8367
20
113.5429
0
VERTEX
8
CUT
10
60.6327
20
112.1143
0
VERTEX
8
CUT
10
60.3469
20
110.6857
0
VERTEX
8
CUT
10
59.9796
20
109.2571
0
VERTEX
8
CUT
10
59.5845
20
108
0
SEQEND
0
LINE
8
CUT
10
2.5
20
108
11
2.5
21
111
0
LINE
8
CUT
10
5
20
108
11
5
21
111
0
POLYLINE
8
CUT
66
1
70
0
0
VERTEX
8
CUT
10
0
20
102
0
VERTEX
8
CUT
10
70
20
102
0
VERTEX
8
CUT
10
70
20
72
0
VERTEX
8
CUT
10
0
20
72
0
VERTEX
8
CUT
10
0
20
102
0
SEQEND
0
POLYLINE
8
CUT
66
1
70
0
0
VERTEX
8
CUT
10
13
20
102
0
VERTEX
8
CUT
10
13
20
102
0
VERTEX
8
CUT
10
12.9592
20
100.5714
0
VERTEX
8
CUT
10
12.8367
20
99.1429
0
VERTEX
8
CUT
10
12.6327
20
97.7143
0
VERTEX
8
CUT
10
12.3469
20
96.2857
0
VERTEX
8
CUT
10
11.9796
20
94.8571
0
VERTEX
8
CUT
10
11.5306
20
93.4286
0
VERTEX
8
CUT
10
11
20
92
0
SEQEND
0
POLYLINE
8
CUT
66
1
70
0
0
VERTEX
8
CUT
10
11
20
90
0
VERTEX
8
CUT
10
11.5306
20
88.5714
0
VERTEX
8
CUT
10
11.9796
20
87.1429
0
VERTEX
8
CUT
10
12.3469
20
85.7143
0
VERTEX
8
CUT
10
12.6327
20
84.2857
0
VERTEX
8
CUT
10
12.8367
20
82.8571
0
VERTEX
8
CUT
10
12.9592
20
81.4286
0
VERTEX
8
CUT
10
13
20
80
0
VERTEX
8
CUT
10
12.9592
20
78.5714
0
VERTEX
8
CUT
10
12.8367
20
77.1429
0
VERTEX
8
CUT
10
12.6327
20
75.7143
0
VERTEX
8
CUT
10
12.3469
20
74.2857
0
VERTEX
8
CUT
10
11.9796
20
72.8571
0
VERTEX
8
CUT
10
11.7102
20
72
0
SEQEND
0
POLYLINE
8
CUT
66
1
70
0
0
VERTEX
8
CUT
10
17
20
101
0
VERTEX
8
CUT
10
16.4694
20
99.5714
0
VERTEX
8
CUT
10
16.0204
20
98.1429
0
VERTEX
8
CUT
10
15.6531
20
96.7143
0
VERTEX
8
CUT
10
15.3673
20
95.2857
0
VERTEX
8
CUT
10
15.1633
20
93.8571
0
VERTEX
8
CUT
10
15.0408
20
92.4286
0
VERTEX
8
CUT
10
15
20
91
0
VERTEX
8
CUT
10
15.0408
20
89.5714
0
VERTEX
8
CUT
10
15.1633
20
88.1429
0
VERTEX
8
CUT
10
15.3673
20
86.7143
0
VERTEX
8
CUT
10
15.6531
20
85.2857
0
VERTEX
8
CUT
10
16.0204
20
83.8571
0
VERTEX
8
CUT
10
16.4694
20
82.4286
0
VERTEX
8
CUT
10
17
20
81
0
SEQEND
0
POLYLINE
8
CUT
66
1
70
0
0
VERTEX
8
CUT
10
17
20
79
0
VERTEX
8
CUT
10
16.4694
20
77.5714
0
VERTEX
8
CUT
10
16.0204
20
76.1429
0
VERTEX
8
CUT
10
15.6531
20
74.7143
0
VERTEX
8
CUT
10
15.3673
20
73.2857
0
VERTEX
8
CUT
10
15.1837
20
72
0
SEQEND
0
POLYLINE
8
CUT
66
1
70
0
0
VERTEX
8
CUT
10
25
20
102
0
VERTEX
8
CUT
10
25
20
102
0
VERTEX
8
CUT
10
24.9592
20
100.5714
0
VERTEX
8
CUT
10
24.8367
20
99.1429
0
VERTEX
8
CUT
10
24.6327
20
97.7143
0
VERTEX
8
CUT
10
24.3469
20
96.2857
0
VERTEX
8
CUT
10
23.9796
20
94.8571
0
VERTEX
8
CUT
10
23.5306
20
93.4286
0
VERTEX
8
CUT
10
23
20
92
0
SEQEND
0
POLYLINE
8
CUT
66
1
70
0
0
VERTEX
8
CUT
10
23
20
90
0
VERTEX
8
CUT
10
23.5306
20
88.5714
0
VERTEX
8
CUT
10
23.9796
20
87.1429
0
VERTEX
8
CUT
10
24.3469
20
85.7143
0
VERTEX
8
CUT
10
24.6327
20
84.2857
0
VERTEX
8
CUT
10
24.8367
20
82.8571
0
VERTEX
8
CUT
10
24.9592
20
81.4286
0
VERTEX
8
CUT
10
25
20
80
0
VERTEX
8
CUT
10
24.9592
20
78.5714
0
VERTEX
8
CUT
10
24.8367
20
77.1429
0
VERTEX
8
CUT
10
24.6327
20
75.7143
0
VERTEX
8
CUT
10
24.3469
20
74.2857
0
VERTEX
8
CUT
10
23.9796
20
72.8571
0
VERTEX
8
CUT
10
23.7102
20
72
0
SEQEND
0
POLYLINE
8
CUT
66
1
70
0
0
VERTEX
8
CUT
10
29
20
101
0
VERTEX
8
CUT
10
28.4694
20
99.5714
0
VERTEX
8
CUT
10
28.0204
20
98.1429
0
VERTEX
8
CUT
10
27.6531
20
96.7143
0
VERTEX
8
CUT
10
27.3673
20
95.2857
0
VERTEX
8
CUT
10
27.1633
20
93.8571
0
VERTEX
8
CUT
10
27.0408
20
92.4286
0
VERTEX
8
CUT
10
27
20
91
0
VERTEX
8
CUT
10
27.0408
20
89.5714
0
VERTEX
8
CUT
10
27.1633
20
88.1429
0
VERTEX
8
CUT
10
27.3673
20
86.7143
0
VERTEX
8
CUT
10
27.6531
20
85.2857
0
VERTEX
8
CUT
10
28.0204
20
83.8571
0
VERTEX
8
CUT
10
28.4694
20
82.4286
0
VERTEX
8
CUT
10
29
20
81
0
SEQEND
0
POLYLINE
8
CUT
66
1
70
0
0
VERTEX
8
CUT
10
29
20
79
0
VERTEX
8
CUT
10
28.4694
20
77.5714
0
VERTEX
8
CUT
10
28.0204
20
76.1429
0
VERTEX
8
CUT
10
27.6531
20
74.7143
0
VERTEX
8
CUT
10
27.3673
20
73.2857
0
VERTEX
8
CUT
10
27.1837
20
72
0
SEQEND
0
POLYLINE
8
CUT
66
1
70
0
0
VERTEX
8
CUT
10
37
20
102
0
VERTEX
8
CUT
10
37
20
102
0
VERTEX
8
CUT
10
36.9592
20
100.5714
0
VERTEX
8
CUT
10
36.8367
20
99.1429
0
VERTEX
8
CUT
10
36.6327
20
97.7143
0
VERTEX
8
CUT
10
36.3469
20
96.2857
0
VERTEX
8
CUT
10
35.9796
20
94.8571
0
VERTEX
8
CUT
10
35.5306
20
93.4286
0
VERTEX
8
CUT
10
35
20
92
0
SEQEND
0
POLYLINE
8
CUT
66
1
70
0
0
VERTEX
8
CUT
10
35
20
90
0
VERTEX
8
CUT
10
35.5306
20
88.5714
0
VERTEX
8
CUT
10
35.9796
20
87.1429
0
VERTEX
8
CUT
10
36.3469
20
85.7143
0
VERTEX
8
CUT
10
36.6327
20
84.2857
0
VERTEX
8
CUT
10
36.8367
20
82.8571
0
VERTEX
8
CUT
10
36.9592
20
81.4286
0
VERTEX
8
CUT
10
37
20
80
0
VERTEX
8
CUT
10
36.9592
20
78.5714
0
VERTEX
8
CUT
10
36.8367
20
77.1429
0
VERTEX
8
CUT
10
36.6327
20
75.7143
0
VERTEX
8
CUT
10
36.3469
20
74.2857
0
VERTEX
8
CUT
10
35.9796
20
72.8571
0
VERTEX
8
CUT
10
35.7102
20
72
0
SEQEND
0
POLYLINE
8
CUT
66
1
70
0
0
VERTEX
8
CUT
10
41
20
101
0
VERTEX
8
CUT
10
40.4694
20
99.5714
0
VERTEX
8
CUT
10
40.0204
20
98.1429
0
VERTEX
8
CUT
10
39.6531
20
96.7143
0
VERTEX
8
CUT
10
39.3673
20
95.2857
0
VERTEX
8
CUT
10
39.1633
20
93.8571
0
VERTEX
8
CUT
10
39.0408
20
92.4286
0
VERTEX
8
CUT
10
39
20
91
0
VERTEX
8
CUT
10
39.0408
20
89.5714
0
VERTEX
8
CUT
10
39.1633
20
88.1429
0
VERTEX
8
CUT
10
39.3673
20
86.7143
0
VERTEX
8
CUT
10
39.6531
20
85.2857
0
VERTEX
8
CUT
10
40.0204
20
83.8571
0
VERTEX
8
CUT
10
40.4694
20
82.4286
0
VERTEX
8
CUT
10
41
20
81
0
SEQEND
0
POLYLINE
8
CUT
66
1
70
0
0
VERTEX
8
CUT
10
41
20
79
0
VERTEX
8
CUT
10
40.4694
20
77.5714
0
VERTEX
8
CUT
10
40.0204
20
76.1429
0
VERTEX
8
CUT
10
39.6531
20
74.7143
0
VERTEX
8
CUT
10
39.3673
20
73.2857
0
VERTEX
8
CUT
10
39.1837
20
72
0
SEQEND
0
POLYLINE
8
CUT
66
1
70
0
0
VERTEX
8
CUT
10
49
20
102
0
VERTEX
8
CUT
10
49
20
102
0
VERTEX
8
CUT
10
48.9592
20
100.5714
0
VERTEX
8
CUT
10
48.8367
20
99.1429
0
VERTEX
8
CUT
10
48.6327
20
97.7143
0
VERTEX
8
CUT
10
48.3469
20
96.2857
0
VERTEX
8
CUT
10
47.9796
20
94.8571
0
VERTEX
8
CUT
10
47.5306
20
93.4286
0
VERTEX
8
CUT
10
47
20
92
0
SEQEND
0
POLYLINE
8
CUT
66
1
70
0
0
VERTEX
8
CUT
10
47
20
90
0
VERTEX
8
CUT
10
47.5306
20
88.5714
0
VERTEX
8
CUT
10
47.9796
20
87.1429
0
VERTEX
8
CUT
10
48.3469
20
85.7143
0
VERTEX
8
CUT
10
48.6327
20
84.2857
0
VERTEX
8
CUT
10
48.8367
20
82.8571
0
VERTEX
8
CUT
10
48.9592
20
81.4286
0
VERTEX
8
CUT
10
49
20
80
0
VERTEX
8
CUT
10
48.9592
20
78.5714
0
VERTEX
8
CUT
10
48.8367
20
77.1429
0
VERTEX
8
CUT
10
48.6327
20
75.7143
0
VERTEX
8
CUT
10
48.3469
20
74.2857
0
VERTEX
8
CUT
10
47.9796
20
72.8571
0
VERTEX
8
CUT
10
47.7102
20
72
0
SEQEND
0
POLYLINE
8
CUT
66
1
70
0
0
VERTEX
8
CUT
10
53
20
101
0
VERTEX
8
CUT
10
52.4694
20
99.5714
0
VERTEX
8
CUT
10
52.0204
20
98.1429
0
VERTEX
8
CUT
10
51.6531
20
96.7143
0
VERTEX
8
CUT
10
51.3673
20
95.2857
0
VERTEX
8
CUT
10
51.1633
20
93.8571
0
VERTEX
8
CUT
10
51.0408
20
92.4286
0
VERTEX
8
CUT
10
51
20
91
0
VERTEX
8
CUT
10
51.0408
20
89.5714
0
VERTEX
8
CUT
10
51.1633
20
88.1429
0
VERTEX
8
CUT
10
51.3673
20
86.7143
0
VERTEX
8
CUT
10
51.6531
20
85.2857
0
VERTEX
8
CUT
10
52.0204
20
83.8571
0
VERTEX
8
CUT
10
52.4694
20
82.4286
0
VERTEX
8
CUT
10
53
20
81
0
SEQEND
0
POLYLINE
8
CUT
66
1
70
0
0
VERTEX
8
CUT
10
53
20
79
0
VERTEX
8
CUT
10
52.4694
20
77.5714
0
VERTEX
8
CUT
10
52.0204
20
76.1429
0
VERTEX
8
CUT
10
51.6531
20
74.7143
0
VERTEX
8
CUT
10
51.3673
20
73.2857
0
VERTEX
8
CUT
10
51.1837
20
72
0
SEQEND
0
POLYLINE
8
CUT
66
1
70
0
0
VERTEX
8
CUT
10
61
20
102
0
VERTEX
8
CUT
10
61
20
102
0
VERTEX
8
CUT
10
60.9592
20
100.5714
0
VERTEX
8
CUT
10
60.8367
20
99.1429
0
VERTEX
8
CUT
10
60.6327
20
97.7143
0
VERTEX
8
CUT
10
60.3469
20
96.2857
0
VERTEX
8
CUT
10
59.9796
20
94.8571
0
VERTEX
8
CUT
10
59.5306
20
93.4286
0
VERTEX
8
CUT
10
59
20
92
0
SEQEND
0
POLYLINE
8
CUT
66
1
70
0
0
VERTEX
8
CUT
10
59
20
90
0
VERTEX
8
CUT
10
59.5306
20
88.5714
0
VERTEX
8
CUT
10
59.9796
20
87.1429
0
VERTEX
8
CUT
10
60.3469
20
85.7143
0
VERTEX
8
CUT
10
60.6327
20
84.2857
0
VERTEX
8
CUT
10
60.8367
20
82.8571
0
VERTEX
8
CUT
10
60.9592
20
81.4286
0
VERTEX
8
CUT
10
61
20
80
0
VERTEX
8
CUT
10
60.9592
20
78.5714
0
VERTEX
8
CUT
10
60.8367
20
77.1429
0
VERTEX
8
CUT
10
60.6327
20
75.7143
0
VERTEX
8
CUT
10
60.3469
20
74.2857
0
VERTEX
8
CUT
10
59.9796
20
72.8571
0
VERTEX
8
CUT
10
59.7102
20
72
0
SEQEND
0
LINE
8
CUT
10
2.5
20
72
11
2.5
21
75
0
LINE
8
CUT
10
5
20
72
11
5
21
75
0
LINE
8
CUT
10
7.5
20
72
11
7.5
21
75
0
POLYLINE
8
CUT
66
1
70
0
0
VERTEX
8
CUT
10
0
20
66
0
VERTEX
8
CUT
10
70
20
66
0
VERTEX
8
CUT
10
70
20
36
0
VERTEX
8
CUT
10
0
20
36
0
VERTEX
8
CUT
10
0
20
66
0
SEQEND
0
POLYLINE
8
CUT
66
1
70
0
0
VERTEX
8
CUT
10
13
20
66
0
VERTEX
8
CUT
10
13
20
66
0
VERTEX
8
CUT
10
12.9592
20
64.5714
0
VERTEX
8
CUT
10
12.8367
20
63.1429
0
VERTEX
8
CUT
10
12.6327
20
61.7143
0
VERTEX
8
CUT
10
12.3469
20
60.2857
0
VERTEX
8
CUT
10
11.9796
20
58.8571
0
VERTEX
8
CUT
10
11.5306
20
57.4286
0
VERTEX
8
CUT
10
11
20
56
0
SEQEND
0
POLYLINE
8
CUT
66
1
70
0
0
VERTEX
8
CUT
10
11
20
53.6
0
VERTEX
8
CUT
10
11.5306
20
52.1714
0
VERTEX
8
CUT
10
11.9796
20
50.7429
0
VERTEX
8
CUT
10
12.3469
20
49.3143
0
VERTEX
8
CUT
10
12.6327
20
47.8857
0
VERTEX
8
CUT
10
12.8367
20
46.4571
0
VERTEX
8
CUT
10
12.9592
20
45.0286
0
VERTEX
8
CUT
10
13
20
43.6
0
VERTEX
8
CUT
10
12.9592
20
42.1714
0
VERTEX
8
CUT
10
12.8367
20
40.7429
0
VERTEX
8
CUT
10
12.6327
20
39.3143
0
VERTEX
8
CUT
10
12.3469
20
37.8857
0
VERTEX
8
CUT
10
11.9796
20
36.4571
0
VERTEX
8
CUT
10
11.8359
20
36
0
SEQEND
0
POLYLINE
8
CUT
66
1
70
0
0
VERTEX
8
CUT
10
17
20
64.8
0
VERTEX
8
CUT
10
16.4694
20
63.3714
0
VERTEX
8
CUT
10
16.0204
20
61.9429
0
VERTEX
8
CUT
10
15.6531
20
60.5143
0
VERTEX
8
CUT
10
15.3673
20
59.0857
0
VERTEX
8
CUT
10
15.1633
20
57.6571
0
VERTEX
8
CUT
10
15.0408
20
56.2286
0
VERTEX
8
CUT
10
15
20
54.8
0
VERTEX
8
CUT
10
15.0408
20
53.3714
0
VERTEX
8
CUT
10
15.1633
20
51.9429
0
VERTEX
8
CUT
10
15.3673
20
50.5143
0
VERTEX
8
CUT
10
15.6531
20
49.0857
0
VERTEX
8
CUT
10
16.0204
20
47.6571
0
VERTEX
8
CUT
10
16.4694
20
46.2286
0
VERTEX
8
CUT
10
17
20
44.8
0
SEQEND
0
POLYLINE
8
CUT
66
1
70
0
0
VERTEX
8
CUT
10
17
20
42.4
0
VERTEX
8
CUT
10
16.4694
20
40.9714
0
VERTEX
8
CUT
10
16.0204
20
39.5429
0
VERTEX
8
CUT
10
15.6531
20
38.1143
0
VERTEX
8
CUT
10
15.3673
20
36.6857
0
VERTEX
8
CUT
10
15.2694
20
36
0
SEQEND
0
POLYLINE
8
CUT
66
1
70
0
0
VERTEX
8
CUT
10
25
20
66
0
VERTEX
8
CUT
10
25
20
66
0
VERTEX
8
CUT
10
24.9592
20
64.5714
0
VERTEX
8
CUT
10
24.8367
20
63.1429
0
VERTEX
8
CUT
10
24.6327
20
61.7143
0
VERTEX
8
CUT
10
24.3469
20
60.2857
0
VERTEX
8
CUT
10
23.9796
20
58.8571
0
VERTEX
8
CUT
10
23.5306
20
57.4286
0
VERTEX
8
CUT
10
23
20
56
0
SEQEND
0
POLYLINE
8
CUT
66
1
70
0
0
VERTEX
8
CUT
10
23
20
53.6
0
VERTEX
8
CUT
10
23.5306
20
52.1714
0
VERTEX
8
CUT
10
23.9796
20
50.7429
0
VERTEX
8
CUT
10
24.3469
20
49.3143
0
VERTEX
8
CUT
10
24.6327
20
47.8857
0
VERTEX
8
CUT
10
24.8367
20
46.4571
0
VERTEX
8
CUT
10
24.9592
20
45.0286
0
VERTEX
8
CUT
10
25
20
43.6
0
VERTEX
8
CUT
10
24.9592
20
42.1714
0
VERTEX
8
CUT
10
24.8367
20
40.7429
0
VERTEX
8
CUT
10
24.6327
20
39.3143
0
VERTEX
8
CUT
10
24.3469
20
37.8857
0
VERTEX
8
CUT
10
23.9796
20
36.4571
0
VERTEX
8
CUT
10
23.8359
20
36
0
SEQEND
0
POLYLINE
8
CUT
66
1
70
0
0
VERTEX
8
CUT
10
29
20
64.8
0
VERTEX
8
CUT
10
28.4694
20
63.3714
0
VERTEX
8
CUT
10
28.0204
20
61.9429
0
VERTEX
8
CUT
10
27.6531
20
60.5143
0
VERTEX
8
CUT
10
27.3673
20
59.0857
0
VERTEX
8
CUT
10
27.1633
20
57.6571
0
VERTEX
8
CUT
10
27.0408
20
56.2286
0
VERTEX
8
CUT
10
27
20
54.8
0
VERTEX
8
CUT
10
27.0408
20
53.3714
0
VERTEX
8
CUT
10
27.1633
20
51.9429
0
VERTEX
8
CUT
10
27.3673
20
50.5143
0
VERTEX
8
CUT
10
27.6531
20
49.0857
0
VERTEX
8
CUT
10
28.0204
20
47.6571
0
VERTEX
8
CUT
10
28.4694
20
46.2286
0
VERTEX
8
CUT
10
29
20
44.8
0
SEQEND
0
POLYLINE
8
CUT
66
1
70
0
0
VERTEX
8
CUT
10
29
20
42.4
0
VERTEX
8
CUT
10
28.4694
20
40.9714
0
VERTEX
8
CUT
10
28.0204
20
39.5429
0
VERTEX
8
CUT
10
27.6531
20
38.1143
0
VERTEX
8
CUT
10
27.3673
20
36.6857
0
VERTEX
8
CUT
10
27.2694
20
36
0
SEQEND
0
POLYLINE
8
CUT
66
1
70
0
0
VERTEX
8
CUT
10
37
20
66
0
VERTEX
8
CUT
10
37
20
66
0
VERTEX
8
CUT
10
36.9592
20
64.5714
0
VERTEX
8
CUT
10
36.8367
20
63.1429
0
VERTEX
8
CUT
10
36.6327
20
61.7143
0
VERTEX
8
CUT
10
36.3469
20
60.2857
0
VERTEX
8
CUT
10
35.9796
20
58.8571
0
VERTEX
8
CUT
10
35.5306
20
57.4286
0
VERTEX
8
CUT
10
35
20
56
0
SEQEND
0
POLYLINE
8
CUT
66
1
70
0
0
VERTEX
8
CUT
10
35
20
53.6
0
VERTEX
8
CUT
10
35.5306
20
52.1714
0
VERTEX
8
CUT
10
35.9796
20
50.7429
0
VERTEX
8
CUT
10
36.3469
20
49.3143
0
VERTEX
8
CUT
10
36.6327
20
47.8857
0
VERTEX
8
CUT
10
36.8367
20
46.4571
0
VERTEX
8
CUT
10
36.9592
20
45.0286
0
VERTEX
8
CUT
10
37
20
43.6
0
VERTEX
8
CUT
10
36.9592
20
42.1714
0
VERTEX
8
CUT
10
36.8367
20
40.7429
0
VERTEX
8
CUT
10
36.6327
20
39.3143
0
VERTEX
8
CUT
10
36.3469
20
37.8857
0
VERTEX
8
CUT
10
35.9796
20
36.4571
0
VERTEX
8
CUT
10
35.8359
20
36
0
SEQEND
0
POLYLINE
8
CUT
66
1
70
0
0
VERTEX
8
CUT
10
41
20
64.8
0
VERTEX
8
CUT
10
40.4694
20
63.3714
0
VERTEX
8
CUT
10
40.0204
20
61.9429
0
VERTEX
8
CUT
10
39.6531
20
60.5143
0
VERTEX
8
CUT
10
39.3673
20
59.0857
0
VERTEX
8
CUT
10
39.1633
20
57.6571
0
VERTEX
8
CUT
10
39.0408
20
56.2286
0
VERTEX
8
CUT
10
39
20
54.8
0
VERTEX
8
CUT
10
39.0408
20
53.3714
0
VERTEX
8
CUT
10
39.1633
20
51.9429
0
VERTEX
8
CUT
10
39.3673
20
50.5143
0
VERTEX
8
CUT
10
39.6531
20
49.0857
0
VERTEX
8
CUT
10
40.0204
20
47.6571
0
VERTEX
8
CUT
10
40.4694
20
46.2286
0
VERTEX
8
CUT
10
41
20
44.8
0
SEQEND
0
POLYLINE
8
CUT
66
1
70
0
0
VERTEX
8
CUT
10
41
20
42.4
0
VERTEX
8
CUT
10
40.4694
20
40.9714
0
VERTEX
8
CUT
10
40.0204
20
39.5429
0
VERTEX
8
CUT
10
39.6531
20
38.1143
0
VERTEX
8
CUT
10
39.3673
20
36.6857
0
VERTEX
8
CUT
10
39.2694
20
36
0
SEQEND
0
POLYLINE
8
CUT
66
1
70
0
0
VERTEX
8
CUT
10
49
20
66
0
VERTEX
8
CUT
10
49
20
66
0
VERTEX
8
CUT
10
48.9592
20
64.5714
0
VERTEX
8
CUT
10
48.8367
20
63.1429
0
VERTEX
8
CUT
10
48.6327
20
61.7143
0
VERTEX
8
CUT
10
48.3469
20
60.2857
0
VERTEX
8
CUT
10
47.9796
20
58.8571
0
VERTEX
8
CUT
10
47.5306
20
57.4286
0
VERTEX
8
CUT
10
47
20
56
0
SEQEND
0
POLYLINE
8
CUT
66
1
70
0
0
VERTEX
8
CUT
10
47
20
53.6
0
VERTEX
8
CUT
10
47.5306
20
52.1714
0
VERTEX
8
CUT
10
47.9796
20
50.7429
0
VERTEX
8
CUT
10
48.3469
20
49.3143
0
VERTEX
8
CUT
10
48.6327
20
47.8857
0
VERTEX
8
CUT
10
48.8367
20
46.4571
0
VERTEX
8
CUT
10
48.9592
20
45.0286
0
VERTEX
8
CUT
10
49
20
43.6
0
VERTEX
8
CUT
10
48.9592
20
42.1714
0
VERTEX
8
CUT
10
48.8367
20
40.7429
0
VERTEX
8
CUT
10
48.6327
20
39.3143
0
VERTEX
8
CUT
10
48.3469
20
37.8857
0
VERTEX
8
CUT
10
47.9796
20
36.4571
0
VERTEX
8
CUT
10
47.8359
20
36
0
SEQEND
0
POLYLINE
8
CUT
66
1
70
0
0
VERTEX
8
CUT
10
53
20
64.8
0
VERTEX
8
CUT
10
52.4694
20
63.3714
0
VERTEX
8
CUT
10
52.0204
20
61.9429
0
VERTEX
8
CUT
10
51.6531
20
60.5143
0
VERTEX
8
CUT
10
51.3673
20
59.0857
0
VERTEX
8
CUT
10
51.1633
20
57.6571
0
VERTEX
8
CUT
10
51.0408
20
56.2286
0
VERTEX
8
CUT
10
51
20
54.8
0
VERTEX
8
CUT
10
51.0408
20
53.3714
0
VERTEX
8
CUT
10
51.1633
20
51.9429
0
VERTEX
8
CUT
10
51.3673
20
50.5143
0
VERTEX
8
CUT
10
51.6531
20
49.0857
0
VERTEX
8
CUT
10
52.0204
20
47.6571
0
VERTEX
8
CUT
10
52.4694
20
46.2286
0
VERTEX
8
CUT
10
53
20
44.8
0
SEQEND
0
POLYLINE
8
CUT
66
1
70
0
0
VERTEX
8
CUT
10
53
20
42.4
0
VERTEX
8
CUT
10
52.4694
20
40.9714
0
VERTEX
8
CUT
10
52.0204
20
39.5429
0
VERTEX
8
CUT
10
51.6531
20
38.1143
0
VERTEX
8
CUT
10
51.3673
20
36.6857
0
VERTEX
8
CUT
10
51.2694
20
36
0
SEQEND
0
POLYLINE
8
CUT
66
1
70
0
0
VERTEX
8
CUT
10
61
20
66
0
VERTEX
8
CUT
10
61
20
66
0
VERTEX
8
CUT
10
60.9592
20
64.5714
0
VERTEX
8
CUT
10
60.8367
20
63.1429
0
VERTEX
8
CUT
10
60.6327
20
61.7143
0
VERTEX
8
CUT
10
60.3469
20
60.2857
0
VERTEX
8
CUT
10
59.9796
20
58.8571
0
VERTEX
8
CUT
10
59.5306
20
57.4286
0
VERTEX
8
CUT
10
59
20
56
0
SEQEND
0
POLYLINE
8
CUT
66
1
70
0
0
VERTEX
8
CUT
10
59
20
53.6
0
VERTEX
8
CUT
10
59.5306
20
52.1714
0
VERTEX
8
CUT
10
59.9796
20
50.7429
0
VERTEX
8
CUT
10
60.3469
20
49.3143
0
VERTEX
8
CUT
10
60.6327
20
47.8857
0
VERTEX
8
CUT
10
60.8367
20
46.4571
0
VERTEX
8
CUT
10
60.9592
20
45.0286
0
VERTEX
8
CUT
10
61
20
43.6
0
VERTEX
8
CUT
10
60.9592
20
42.1714
0
VERTEX
8
CUT
10
60.8367
20
40.7429
0
VERTEX
8
CUT
10
60.6327
20
39.3143
0
VERTEX
8
CUT
10
60.3469
20
37.8857
0
VERTEX
8
CUT
10
59.9796
20
36.4571
0
VERTEX
8
CUT
10
59.8359
20
36
0
SEQEND
0
LINE
8
CUT
10
2.5
20
36
11
2.5
21
39
0
LINE
8
CUT
10
5
20
36
11
5
21
39
0
LINE
8
CUT
10
7.5
20
36
11
7.5
21
39
0
LINE
8
CUT
10
10
20
36
11
10
21
39
0
POLYLINE
8
CUT
66
1
70
0
0
VERTEX
8
CUT
10
0
20
30
0
VERTEX
8
CUT
10
70
20
30
0
VERTEX
8
CUT
10
70
20
0
0
VERTEX
8
CUT
10
0
20
0
0
VERTEX
8
CUT
10
0
20
30
0
SEQEND
0
POLYLINE
8
CUT
66
1
70
0
0
VERTEX
8
CUT
10
13
20
30
0
VERTEX
8
CUT
10
13
20
30
0
VERTEX
8
CUT
10
12.9592
20
28.5714
0
VERTEX
8
CUT
10
12.8367
20
27.1429
0
VERTEX
8
CUT
10
12.6327
20
25.7143
0
VERTEX
8
CUT
10
12.3469
20
24.2857
0
VERTEX
8
CUT
10
11.9796
20
22.8571
0
VERTEX
8
CUT
10
11.5306
20
21.4286
0
VERTEX
8
CUT
10
11
20
20
0
SEQEND
0
POLYLINE
8
CUT
66
1
70
0
0
VERTEX
8
CUT
10
11
20
17.2
0
VERTEX
8
CUT
10
11.5306
20
15.7714
0
VERTEX
8
CUT
10
11.9796
20
14.3429
0
VERTEX
8
CUT
10
12.3469
20
12.9143
0
VERTEX
8
CUT
10
12.6327
20
11.4857
0
VERTEX
8
CUT
10
12.8367
20
10.0571
0
VERTEX
8
CUT
10
12.9592
20
8.6286
0
VERTEX
8
CUT
10
13
20
7.2
0
VERTEX
8
CUT
10
12.9592
20
5.7714
0
VERTEX
8
CUT
10
12.8367
20
4.3429
0
VERTEX
8
CUT
10
12.6327
20
2.9143
0
VERTEX
8
CUT
10
12.3469
20
1.4857
0
VERTEX
8
CUT
10
11.9796
20
0.0571
0
VERTEX
8
CUT
10
11.9616
20
0
0
SEQEND
0
POLYLINE
8
CUT
66
1
70
0
0
VERTEX
8
CUT
10
17
20
28.6
0
VERTEX
8
CUT
10
16.4694
20
27.1714
0
VERTEX
8
CUT
10
16.0204
20
25.7429
0
VERTEX
8
CUT
10
15.6531
20
24.3143
0
VERTEX
8
CUT
10
15.3673
20
22.8857
0
VERTEX
8
CUT
10
15.1633
20
21.4571
0
VERTEX
8
CUT
10
15.0408
20
20.0286
0
VERTEX
8
CUT
10
15
20
18.6
0
VERTEX
8
CUT
10
15.0408
20
17.1714
0
VERTEX
8
CUT
10
15.1633
20
15.7429
0
VERTEX
8
CUT
10
15.3673
20
14.3143
0
VERTEX
8
CUT
10
15.6531
20
12.8857
0
VERTEX
8
CUT
10
16.0204
20
11.4571
0
VERTEX
8
CUT
10
16.4694
20
10.0286
0
VERTEX
8
CUT
10
17
20
8.6
0
SEQEND
0
POLYLINE
8
CUT
66
1
70
0
0
VERTEX
8
CUT
10
17
20
5.8
0
VERTEX
8
CUT
10
16.4694
20
4.3714
0
VERTEX
8
CUT
10
16.0204
20
2.9429
0
VERTEX
8
CUT
10
15.6531
20
1.5143
0
VERTEX
8
CUT
10
15.3673
20
0.0857
0
VERTEX
8
CUT
10
15.3551
20
0
0
SEQEND
0
POLYLINE
8
CUT
66
1
70
0
0
VERTEX
8
CUT
10
25
20
30
0
VERTEX
8
CUT
10
25
20
30
0
VERTEX
8
CUT
10
24.9592
20
28.5714
0
VERTEX
8
CUT
10
24.8367
20
27.1429
0
VERTEX
8
CUT
10
24.6327
20
25.7143
0
VERTEX
8
CUT
10
24.3469
20
24.2857
0
VERTEX
8
CUT
10
23.9796
20
22.8571
0
VERTEX
8
CUT
10
23.5306
20
21.4286
0
VERTEX
8
CUT
10
23
20
20
0
SEQEND
0
POLYLINE
8
CUT
66
1
70
0
0
VERTEX
8
CUT
10
23
20
17.2
0
VERTEX
8
CUT
10
23.5306
20
15.7714
0
VERTEX
8
CUT
10
23.9796
20
14.3429
0
VERTEX
8
CUT
10
24.3469
20
12.9143
0
VERTEX
8
CUT
10
24.6327
20
11.4857
0
VERTEX
8
CUT
10
24.8367
20
10.0571
0
VERTEX
8
CUT
10
24.9592
20
8.6286
0
VERTEX
8
CUT
10
25
20
7.2
0
VERTEX
8
CUT
10
24.9592
20
5.7714
0
VERTEX
8
CUT
10
24.8367
20
4.3429
0
VERTEX
8
CUT
10
24.6327
20
2.9143
0
VERTEX
8
CUT
10
24.3469
20
1.4857
0
VERTEX
8
CUT
10
23.9796
20
0.0571
0
VERTEX
8
CUT
10
23.9616
20
0
0
SEQEND
0
POLYLINE
8
CUT
66
1
70
0
0
VERTEX
8
CUT
10
29
20
28.6
0
VERTEX
8
CUT
10
28.4694
20
27.1714
0
VERTEX
8
CUT
10
28.0204
20
25.7429
0
VERTEX
8
CUT
10
27.6531
20
24.3143
0
VERTEX
8
CUT
10
27.3673
20
22.8857
0
VERTEX
8
CUT
10
27.1633
20
21.4571
0
VERTEX
8
CUT
10
27.0408
20
20.0286
0
VERTEX
8
CUT
10
27
20
18.6
0
VERTEX
8
CUT
10
27.0408
20
17.1714
0
VERTEX
8
CUT
10
27.1633
20
15.7429
0
VERTEX
8
CUT
10
27.3673
20
14.3143
0
VERTEX
8
CUT
10
27.6531
20
12.8857
0
VERTEX
8
CUT
10
28.0204
20
11.4571
0
VERTEX
8
CUT
10
28.4694
20
10.0286
0
VERTEX
8
CUT
10
29
20
8.6
0
SEQEND
0
POLYLINE
8
CUT
66
1
70
0
0
VERTEX
8
CUT
10
29
20
5.8
0
VERTEX
8
CUT
10
28.4694
20
4.3714
0
VERTEX
8
CUT
10
28.0204
20
2.9429
0
VERTEX
8
CUT
10
27.6531
20
1.5143
0
VERTEX
8
CUT
10
27.3673
20
0.0857
0
VERTEX
8
CUT
10
27.3551
20
0
0
SEQEND
0
POLYLINE
8
CUT
66
1
70
0
0
VERTEX
8
CUT
10
37
20
30
0
VERTEX
8
CUT
10
37
20
30
0
VERTEX
8
CUT
10
36.9592
20
28.5714
0
VERTEX
8
CUT
10
36.8367
20
27.1429
0
VERTEX
8
CUT
10
36.6327
20
25.7143
0
VERTEX
8
CUT
10
36.3469
20
24.2857
0
VERTEX
8
CUT
10
35.9796
20
22.8571
0
VERTEX
8
CUT
10
35.5306
20
21.4286
0
VERTEX
8
CUT
10
35
20
20
0
SEQEND
0
POLYLINE
8
CUT
66
1
70
0
0
VERTEX
8
CUT
10
35
20
17.2
0
VERTEX
8
CUT
10
35.5306
20
15.7714
0
VERTEX
8
CUT
10
35.9796
20
14.3429
0
VERTEX
8
CUT
10
36.3469
20
12.9143
0
VERTEX
8
CUT
10
36.6327
20
11.4857
0
VERTEX
8
CUT
10
36.8367
20
10.0571
0
VERTEX
8
CUT
10
36.9592
20
8.6286
0
VERTEX
8
CUT
10
37
20
7.2
0
VERTEX
8
CUT
10
36.9592
20
5.7714
0
VERTEX
8
CUT
10
36.8367
20
4.3429
0
VERTEX
8
CUT
10
36.6327
20
2.9143
0
VERTEX
8
CUT
10
36.3469
20
1.4857
0
VERTEX
8
CUT
10
35.9796
20
0.0571
0
VERTEX
8
CUT
10
35.9616
20
0
0
SEQEND
0
POLYLINE
8
CUT
66
1
70
0
0
VERTEX
8
CUT
10
41
20
28.6
0
VERTEX
8
CUT
10
40.4694
20
27.1714
0
VERTEX
8
CUT
10
40.0204
20
25.7429
0
VERTEX
8
CUT
10
39.6531
20
24.3143
0
VERTEX
8
CUT
10
39.3673
20
22.8857
0
VERTEX
8
CUT
10
39.1633
20
21.4571
0
VERTEX
8
CUT
10
39.0408
20
20.0286
0
VERTEX
8
CUT
10
39
20
18.6
0
VERTEX
8
CUT
10
39.0408
20
17.1714
0
VERTEX
8
CUT
10
39.1633
20
15.7429
0
VERTEX
8
CUT
10
39.3673
20
14.3143
0
VERTEX
8
CUT
10
39.6531
20
12.8857
0
VERTEX
8
CUT
10
40.0204
20
11.4571
0
VERTEX
8
CUT
10
40.4694
20
10.0286
0
VERTEX
8
CUT
10
41
20
8.6
0
SEQEND
0
POLYLINE
8
CUT
66
1
70
0
0
VERTEX
8
CUT
10
41
20
5.8
0
VERTEX
8
CUT
10
40.4694
20
4.3714
0
VERTEX
8
CUT
10
40.0204
20
2.9429
0
VERTEX
8
CUT
10
39.6531
20
1.5143
0
VERTEX
8
CUT
10
39.3673
20
0.0857
0
VERTEX
8
CUT
10
39.3551
20
0
0
SEQEND
0
POLYLINE
8
CUT
66
1
70
0
0
VERTEX
8
CUT
10
49
20
30
0
VERTEX
8
CUT
10
49
20
30
0
VERTEX
8
CUT
10
48.9592
20
28.5714
0
VERTEX
8
CUT
10
48.8367
20
27.1429
0
VERTEX
8
CUT
10
48.6327
20
25.7143
0
VERTEX
8
CUT
10
48.3469
20
24.2857
0
VERTEX
8
CUT
10
47.9796
20
22.8571
0
VERTEX
8
CUT
10
47.5306
20
21.4286
0
VERTEX
8
CUT
10
47
20
20
0
SEQEND
0
POLYLINE
8
CUT
66
1
70
0
0
VERTEX
8
CUT
10
47
20
17.2
0
VERTEX
8
CUT
10
47.5306
20
15.7714
0
VERTEX
8
CUT
10
47.9796
20
14.3429
0
VERTEX
8
CUT
10
48.3469
20
12.9143
0
VERTEX
8
CUT
10
48.6327
20
11.4857
0
VERTEX
8
CUT
10
48.8367
20
10.0571
0
VERTEX
8
CUT
10
48.9592
20
8.6286
0
VERTEX
8
CUT
10
49
20
7.2
0
VERTEX
8
CUT
10
48.9592
20
5.7714
0
VERTEX
8
CUT
10
48.8367
20
4.3429
0
VERTEX
8
CUT
10
48.6327
20
2.9143
0
VERTEX
8
CUT
10
48.3469
20
1.4857
0
VERTEX
8
CUT
10
47.9796
20
0.0571
0
VERTEX
8
CUT
10
47.9616
20
0
0
SEQEND
0
POLYLINE
8
CUT
66
1
70
0
0
VERTEX
8
CUT
10
53
20
28.6
0
VERTEX
8
CUT
10
52.4694
20
27.1714
0
VERTEX
8
CUT
10
52.0204
20
25.7429
0
VERTEX
8
CUT
10
51.6531
20
24.3143
0
VERTEX
8
CUT
10
51.3673
20
22.8857
0
VERTEX
8
CUT
10
51.1633
20
21.4571
0
VERTEX
8
CUT
10
51.0408
20
20.0286
0
VERTEX
8
CUT
10
51
20
18.6
0
VERTEX
8
CUT
10
51.0408
20
17.1714
0
VERTEX
8
CUT
10
51.1633
20
15.7429
0
VERTEX
8
CUT
10
51.3673
20
14.3143
0
VERTEX
8
CUT
10
51.6531
20
12.8857
0
VERTEX
8
CUT
10
52.0204
20
11.4571
0
VERTEX
8
CUT
10
52.4694
20
10.0286
0
VERTEX
8
CUT
10
53
20
8.6
0
SEQEND
0
POLYLINE
8
CUT
66
1
70
0
0
VERTEX
8
CUT
10
53
20
5.8
0
VERTEX
8
CUT
10
52.4694
20
4.3714
0
VERTEX
8
CUT
10
52.0204
20
2.9429
0
VERTEX
8
CUT
10
51.6531
20
1.5143
0
VERTEX
8
CUT
10
51.3673
20
0.0857
0
VERTEX
8
CUT
10
51.3551
20
0
0
SEQEND
0
POLYLINE
8
CUT
66
1
70
0
0
VERTEX
8
CUT
10
61
20
30
0
VERTEX
8
CUT
10
61
20
30
0
VERTEX
8
CUT
10
60.9592
20
28.5714
0
VERTEX
8
CUT
10
60.8367
20
27.1429
0
VERTEX
8
CUT
10
60.6327
20
25.7143
0
VERTEX
8
CUT
10
60.3469
20
24.2857
0
VERTEX
8
CUT
10
59.9796
20
22.8571
0
VERTEX
8
CUT
10
59.5306
20
21.4286
0
VERTEX
8
CUT
10
59
20
20
0
SEQEND
0
POLYLINE
8
CUT
66
1
70
0
0
VERTEX
8
CUT
10
59
20
17.2
0
VERTEX
8
CUT
10
59.5306
20
15.7714
0
VERTEX
8
CUT
10
59.9796
20
14.3429
0
VERTEX
8
CUT
10
60.3469
20
12.9143
0
VERTEX
8
CUT
10
60.6327
20
11.4857
0
VERTEX
8
CUT
10
60.8367
20
10.0571
0
VERTEX
8
CUT
10
60.9592
20
8.6286
0
VERTEX
8
CUT
10
61
20
7.2
0
VERTEX
8
CUT
10
60.9592
20
5.7714
0
VERTEX
8
CUT
10
60.8367
20
4.3429
0
VERTEX
8
CUT
10
60.6327
20
2.9143
0
VERTEX
8
CUT
10
60.3469
20
1.4857
0
VERTEX
8
CUT
10
59.9796
20
0.0571
0
VERTEX
8
CUT
10
59.9616
20
0
0
SEQEND
0
LINE
8
CUT
10
2.5
20
0
11
2.5
21
3
0
LINE
8
CUT
10
5
20
0
11
5
21
3
0
LINE
8
CUT
10
7.5
20
0
11
7.5
21
3
0
LINE
8
CUT
10
10
20
0
11
10
21
3
0
LINE
8
CUT
10
12.5
20
0
11
12.5
21
3
0
ENDSEC
0
EOF
