0
SECTION
2
HEADER
9
$ACADVER
1
AC1009
9
$INSUNITS
70
4
0
ENDSEC
0
SECTION
2
TABLES
0
TABLE
2
LAYER
70
1
0
LAYER
2
CUT
70
0
62
1
6
CONTINUOUS
0
ENDTAB
0
ENDSEC
0
SECTION
2
ENTITIES
0
POLYLINE
8
CUT
66
1
70
0
0
VERTEX
8
CUT
10
0
20
174
0
VERTEX
8
CUT
10
70
20
174
0
VERTEX
8
CUT
10
70
20
144
0
VERTEX
8
CUT
10
0
20
144
0
VERTEX
8
CUT
10
0
20
174
0
SEQEND
0
LINE
8
CUT
10
11
20
174
11
11
21
154
0
LINE
8
CUT
10
9.25
20
164
11
12.75
21
164
0
LINE
8
CUT
10
11
20
152.8
11
11
21
144
0
LINE
8
CUT
10
17
20
174
11
17
21
164.6
0
LINE
8
CUT
10
17
20
163.4
11
17
21
144
0
LINE
8
CUT
10
15.25
20
153.4
11
18.75
21
153.4
0
LINE
8
CUT
10
23
20
174
11
23
21
154
0
LINE
8
CUT
10
21.25
20
164
11
24.75
21
164
0
LINE
8
CUT
10
23
20
152.8
11
23
21
144
0
LINE
8
CUT
10
29
20
174
11
29
21
164.6
0
LINE
8
CUT
10
29
20
163.4
11
29
21
144
0
LINE
8
CUT
10
27.25
20
153.4
11
30.75
21
153.4
0
LINE
8
CUT
10
35
20
174
11
35
21
154
0
LINE
8
CUT
10
33.25
20
164
11
36.75
21
164
0
LINE
8
CUT
10
35
20
152.8
11
35
21
144
0
LINE
8
CUT
10
41
20
174
11
41
21
164.6
0
LINE
8
CUT
10
41
20
163.4
11
41
21
144
0
LINE
8
CUT
10
39.25
20
153.4
11
42.75
21
153.4
0
LINE
8
CUT
10
47
20
174
11
47
21
154
0
LINE
8
CUT
10
45.25
20
164
11
48.75
21
164
0
LINE
8
CUT
10
47
20
152.8
11
47
21
144
0
LINE
8
CUT
10
53
20
174
11
53
21
164.6
0
LINE
8
CUT
10
53
20
163.4
11
53
21
144
0
LINE
8
CUT
10
51.25
20
153.4
11
54.75
21
153.4
0
LINE
8
CUT
10
59
20
174
11
59
21
154
0
LINE
8
CUT
10
57.25
20
164
11
60.75
21
164
0
LINE
8
CUT
10
59
20
152.8
11
59
21
144
0
LINE
8
CUT
10
2.5
20
144
11
2.5
21
147
0
POLYLINE
8
CUT
66
1
70
0
0
VERTEX
8
CUT
10
0
20
138
0
VERTEX
8
CUT
10
70
20
138
0
VERTEX
8
CUT
10
70
20
108
0
VERTEX
8
CUT
10
0
20
108
0
VERTEX
8
CUT
10
0
20
138
0
SEQEND
0
LINE
8
CUT
10
11
20
138
11
11
21
118
0
LINE
8
CUT
10
9.25
20
128
11
12.75
21
128
0
LINE
8
CUT
10
11
20
116.4
11
11
21
108
0
LINE
8
CUT
10
17
20
138
11
17
21
128.8
0
LINE
8
CUT
10
17
20
127.2
11
17
21
108
0
LINE
8
CUT
10
15.25
20
117.2
11
18.75
21
117.2
0
LINE
8
CUT
10
23
20
138
11
23
21
118
0
LINE
8
CUT
10
21.25
20
128
11
24.75
21
128
0
LINE
8
CUT
10
23
20
116.4
11
23
21
108
0
LINE
8
CUT
10
29
20
138
11
29
21
128.8
0
LINE
8
CUT
10
29
20
127.2
11
29
21
108
0
LINE
8
CUT
10
27.25
20
117.2
11
30.75
21
117.2
0
LINE
8
CUT
10
35
20
138
11
35
21
118
0
LINE
8
CUT
10
33.25
20
128
11
36.75
21
128
0
LINE
8
CUT
10
35
20
116.4
11
35
21
108
0
LINE
8
CUT
10
41
20
138
11
41
21
128.8
0
LINE
8
CUT
10
41
20
127.2
11
41
21
108
0
LINE
8
CUT
10
39.25
20
117.2
11
42.75
21
117.2
0
LINE
8
CUT
10
47
20
138
11
47
21
118
0
LINE
8
CUT
10
45.25
20
128
11
48.75
21
128
0
LINE
8
CUT
10
47
20
116.4
11
47
21
108
0
LINE
8
CUT
10
53
20
138
11
53
21
128.8
0
LINE
8
CUT
10
53
20
127.2
11
53
21
108
0
LINE
8
CUT
10
51.25
20
117.2
11
54.75
21
117.2
0
LINE
8
CUT
10
59
20
138
11
59
21
118
0
LINE
8
CUT
10
57.25
20
128
11
60.75
21
128
0
LINE
8
CUT
10
59
20
116.4
11
59
21
108
0
LINE
8
CUT
10
2.5
20
108
11
2.5
21
111
0
LINE
8
CUT
10
5
20
108
11
5
21
111
0
POLYLINE
8
CUT
66
1
70
0
0
VERTEX
8
CUT
10
0
20
102
0
VERTEX
8
CUT
10
70
20
102
0
VERTEX
8
CUT
10
70
20
72
0
VERTEX
8
CUT
10
0
20
72
0
VERTEX
8
CUT
10
0
20
102
0
SEQEND
0
LINE
8
CUT
10
11
20
102
11
11
21
82
0
LINE
8
CUT
10
9.25
20
92
11
12.75
21
92
0
LINE
8
CUT
10
11
20
80
11
11
21
72
0
LINE
8
CUT
10
17
20
102
11
17
21
93
0
LINE
8
CUT
10
17
20
91
11
17
21
72
0
LINE
8
CUT
10
15.25
20
81
11
18.75
21
81
0
LINE
8
CUT
10
23
20
102
11
23
21
82
0
LINE
8
CUT
10
21.25
20
92
11
24.75
21
92
0
LINE
8
CUT
10
23
20
80
11
23
21
72
0
LINE
8
CUT
10
29
20
102
11
29
21
93
0
LINE
8
CUT
10
29
20
91
11
29
21
72
0
LINE
8
CUT
10
27.25
20
81
11
30.75
21
81
0
LINE
8
CUT
10
35
20
102
11
35
21
82
0
LINE
8
CUT
10
33.25
20
92
11
36.75
21
92
0
LINE
8
CUT
10
35
20
80
11
35
21
72
0
LINE
8
CUT
10
41
20
102
11
41
21
93
0
LINE
8
CUT
10
41
20
91
11
41
21
72
0
LINE
8
CUT
10
39.25
20
81
11
42.75
21
81
0
LINE
8
CUT
10
47
20
102
11
47
21
82
0
LINE
8
CUT
10
45.25
20
92
11
48.75
21
92
0
LINE
8
CUT
10
47
20
80
11
47
21
72
0
LINE
8
CUT
10
53
20
102
11
53
21
93
0
LINE
8
CUT
10
53
20
91
11
53
21
72
0
LINE
8
CUT
10
51.25
20
81
11
54.75
21
81
0
LINE
8
CUT
10
59
20
102
11
59
21
82
0
LINE
8
CUT
10
57.25
20
92
11
60.75
21
92
0
LINE
8
CUT
10
59
20
80
11
59
21
72
0
LINE
8
CUT
10
2.5
20
72
11
2.5
21
75
0
LINE
8
CUT
10
5
20
72
11
5
21
75
0
LINE
8
CUT
10
7.5
20
72
11
7.5
21
75
0
POLYLINE
8
CUT
66
1
70
0
0
VERTEX
8
CUT
10
0
20
66
0
VERTEX
8
CUT
10
70
20
66
0
VERTEX
8
CUT
10
70
20
36
0
VERTEX
8
CUT
10
0
20
36
0
VERTEX
8
CUT
10
0
20
66
0
SEQEND
0
LINE
8
CUT
10
11
20
66
11
11
21
46
0
LINE
8
CUT
10
9.25
20
56
11
12.75
21
56
0
LINE
8
CUT
10
11
20
43.6
11
11
21
36
0
LINE
8
CUT
10
17
20
66
11
17
21
57.2
0
LINE
8
CUT
10
17
20
54.8
11
17
21
36
0
LINE
8
CUT
10
15.25
20
44.8
11
18.75
21
44.8
0
LINE
8
CUT
10
23
20
66
11
23
21
46
0
LINE
8
CUT
10
21.25
20
56
11
24.75
21
56
0
LINE
8
CUT
10
23
20
43.6
11
23
21
36
0
LINE
8
CUT
10
29
20
66
11
29
21
57.2
0
LINE
8
CUT
10
29
20
54.8
11
29
21
36
0
LINE
8
CUT
10
27.25
20
44.8
11
30.75
21
44.8
0
LINE
8
CUT
10
35
20
66
11
35
21
46
0
LINE
8
CUT
10
33.25
20
56
11
36.75
21
56
0
LINE
8
CUT
10
35
20
43.6
11
35
21
36
0
LINE
8
CUT
10
41
20
66
11
41
21
57.2
0
LINE
8
CUT
10
41
20
54.8
11
41
21
36
0
LINE
8
CUT
10
39.25
20
44.8
11
42.75
21
44.8
0
LINE
8
CUT
10
47
20
66
11
47
21
46
0
LINE
8
CUT
10
45.25
20
56
11
48.75
21
56
0
LINE
8
CUT
10
47
20
43.6
11
47
21
36
0
LINE
8
CUT
10
53
20
66
11
53
21
57.2
0
LINE
8
CUT
10
53
20
54.8
11
53
21
36
0
LINE
8
CUT
10
51.25
20
44.8
11
54.75
21
44.8
0
LINE
8
CUT
10
59
20
66
11
59
21
46
0
LINE
8
CUT
10
57.25
20
56
11
60.75
21
56
0
LINE
8
CUT
10
59
20
43.6
11
59
21
36
0
LINE
8
CUT
10
2.5
20
36
11
2.5
21
39
0
LINE
8
CUT
10
5
20
36
11
5
21
39
0
LINE
8
CUT
10
7.5
20
36
11
7.5
21
39
0
LINE
8
CUT
10
10
20
36
11
10
21
39
0
POLYLINE
8
CUT
66
1
70
0
0
VERTEX
8
CUT
10
0
20
30
0
VERTEX
8
CUT
10
70
20
30
0
VERTEX
8
CUT
10
70
20
0
0
VERTEX
8
CUT
10
0
20
0
0
VERTEX
8
CUT
10
0
20
30
0
SEQEND
0
LINE
8
CUT
10
11
20
30
11
11
21
10
0
LINE
8
CUT
10
9.25
20
20
11
12.75
21
20
0
LINE
8
CUT
10
11
20
7.2
11
11
21
0
0
LINE
8
CUT
10
17
20
30
11
17
21
21.4
0
LINE
8
CUT
10
17
20
18.6
11
17
21
0
0
LINE
8
CUT
10
15.25
20
8.6
11
18.75
21
8.6
0
LINE
8
CUT
10
23
20
30
11
23
21
10
0
LINE
8
CUT
10
21.25
20
20
11
24.75
21
20
0
LINE
8
CUT
10
23
20
7.2
11
23
21
0
0
LINE
8
CUT
10
29
20
30
11
29
21
21.4
0
LINE
8
CUT
10
29
20
18.6
11
29
21
0
0
LINE
8
CUT
10
27.25
20
8.6
11
30.75
21
8.6
0
LINE
8
CUT
10
35
20
30
11
35
21
10
0
LINE
8
CUT
10
33.25
20
20
11
36.75
21
20
0
LINE
8
CUT
10
35
20
7.2
11
35
21
0
0
LINE
8
CUT
10
41
20
30
11
41
21
21.4
0
LINE
8
CUT
10
41
20
18.6
11
41
21
0
0
LINE
8
CUT
10
39.25
20
8.6
11
42.75
21
8.6
0
LINE
8
CUT
10
47
20
30
11
47
21
10
0
LINE
8
CUT
10
45.25
20
20
11
48.75
21
20
0
LINE
8
CUT
10
47
20
7.2
11
47
21
0
0
LINE
8
CUT
10
53
20
30
11
53
21
21.4
0
LINE
8
CUT
10
53
20
18.6
11
53
21
0
0
LINE
8
CUT
10
51.25
20
8.6
11
54.75
21
8.6
0
LINE
8
CUT
10
59
20
30
11
59
21
10
0
LINE
8
CUT
10
57.25
20
20
11
60.75
21
20
0
LINE
8
CUT
10
59
20
7.2
11
59
21
0
0
LINE
8
CUT
10
2.5
20
0
11
2.5
21
3
0
LINE
8
CUT
10
5
20
0
11
5
21
3
0
LINE
8
CUT
10
7.5
20
0
11
7.5
21
3
0
LINE
8
CUT
10
10
20
0
11
10
21
3
0
LINE
8
CUT
10
12.5
20
0
11
12.5
21
3
0
ENDSEC
0
EOF
