0
SECTION
2
HEADER
9
$ACADVER
1
AC1009
9
$INSUNITS
70
4
0
ENDSEC
0
SECTION
2
TABLES
0
TABLE
2
LAYER
70
1
0
LAYER
2
CUT
70
0
62
1
6
CONTINUOUS
0
ENDTAB
0
ENDSEC
0
SECTION
2
ENTITIES
0
POLYLINE
8
CUT
66
1
70
0
0
VERTEX
8
CUT
10
0
20
174
0
VERTEX
8
CUT
10
70
20
174
0
VERTEX
8
CUT
10
70
20
144
0
VERTEX
8
CUT
10
0
20
144
0
VERTEX
8
CUT
10
0
20
174
0
SEQEND
0
POLYLINE
8
CUT
66
1
70
0
0
VERTEX
8
CUT
10
10
20
174
0
VERTEX
8
CUT
10
19.2308
20
174
0
VERTEX
8
CUT
10
19.2308
20
164.7692
0
VERTEX
8
CUT
10
11.5385
20
164.7692
0
VERTEX
8
CUT
10
11.5385
20
172.4615
0
VERTEX
8
CUT
10
17.6923
20
172.4615
0
VERTEX
8
CUT
10
17.6923
20
166.3077
0
VERTEX
8
CUT
10
13.0769
20
166.3077
0
VERTEX
8
CUT
10
13.0769
20
170.9231
0
VERTEX
8
CUT
10
16.1538
20
170.9231
0
VERTEX
8
CUT
10
16.1538
20
167.8462
0
VERTEX
8
CUT
10
14.6154
20
167.8462
0
VERTEX
8
CUT
10
14.6154
20
169.3846
0
SEQEND
0
POLYLINE
8
CUT
66
1
70
0
0
VERTEX
8
CUT
10
20
20
164
0
VERTEX
8
CUT
10
10.7692
20
164
0
VERTEX
8
CUT
10
10.7692
20
173.2308
0
VERTEX
8
CUT
10
18.4615
20
173.2308
0
VERTEX
8
CUT
10
18.4615
20
165.5385
0
VERTEX
8
CUT
10
12.3077
20
165.5385
0
VERTEX
8
CUT
10
12.3077
20
171.6923
0
VERTEX
8
CUT
10
16.9231
20
171.6923
0
VERTEX
8
CUT
10
16.9231
20
167.0769
0
VERTEX
8
CUT
10
13.8462
20
167.0769
0
VERTEX
8
CUT
10
13.8462
20
170.1538
0
VERTEX
8
CUT
10
15.3846
20
170.1538
0
VERTEX
8
CUT
10
15.3846
20
168.6154
0
SEQEND
0
POLYLINE
8
CUT
66
1
70
0
0
VERTEX
8
CUT
10
30
20
174
0
VERTEX
8
CUT
10
30
20
164.7692
0
VERTEX
8
CUT
10
20.7692
20
164.7692
0
VERTEX
8
CUT
10
20.7692
20
172.4615
0
VERTEX
8
CUT
10
28.4615
20
172.4615
0
VERTEX
8
CUT
10
28.4615
20
166.3077
0
VERTEX
8
CUT
10
22.3077
20
166.3077
0
VERTEX
8
CUT
10
22.3077
20
170.9231
0
VERTEX
8
CUT
10
26.9231
20
170.9231
0
VERTEX
8
CUT
10
26.9231
20
167.8462
0
VERTEX
8
CUT
10
23.8462
20
167.8462
0
VERTEX
8
CUT
10
23.8462
20
169.3846
0
VERTEX
8
CUT
10
25.3846
20
169.3846
0
SEQEND
0
POLYLINE
8
CUT
66
1
70
0
0
VERTEX
8
CUT
10
20
20
164
0
VERTEX
8
CUT
10
20
20
173.2308
0
VERTEX
8
CUT
10
29.2308
20
173.2308
0
VERTEX
8
CUT
10
29.2308
20
165.5385
0
VERTEX
8
CUT
10
21.5385
20
165.5385
0
VERTEX
8
CUT
10
21.5385
20
171.6923
0
VERTEX
8
CUT
10
27.6923
20
171.6923
0
VERTEX
8
CUT
10
27.6923
20
167.0769
0
VERTEX
8
CUT
10
23.0769
20
167.0769
0
VERTEX
8
CUT
10
23.0769
20
170.1538
0
VERTEX
8
CUT
10
26.1538
20
170.1538
0
VERTEX
8
CUT
10
26.1538
20
168.6154
0
VERTEX
8
CUT
10
24.6154
20
168.6154
0
SEQEND
0
POLYLINE
8
CUT
66
1
70
0
0
VERTEX
8
CUT
10
30
20
174
0
VERTEX
8
CUT
10
39.2308
20
174
0
VERTEX
8
CUT
10
39.2308
20
164.7692
0
VERTEX
8
CUT
10
31.5385
20
164.7692
0
VERTEX
8
CUT
10
31.5385
20
172.4615
0
VERTEX
8
CUT
10
37.6923
20
172.4615
0
VERTEX
8
CUT
10
37.6923
20
166.3077
0
VERTEX
8
CUT
10
33.0769
20
166.3077
0
VERTEX
8
CUT
10
33.0769
20
170.9231
0
VERTEX
8
CUT
10
36.1538
20
170.9231
0
VERTEX
8
CUT
10
36.1538
20
167.8462
0
VERTEX
8
CUT
10
34.6154
20
167.8462
0
VERTEX
8
CUT
10
34.6154
20
169.3846
0
SEQEND
0
POLYLINE
8
CUT
66
1
70
0
0
VERTEX
8
CUT
10
40
20
164
0
VERTEX
8
CUT
10
30.7692
20
164
0
VERTEX
8
CUT
10
30.7692
20
173.2308
0
VERTEX
8
CUT
10
38.4615
20
173.2308
0
VERTEX
8
CUT
10
38.4615
20
165.5385
0
VERTEX
8
CUT
10
32.3077
20
165.5385
0
VERTEX
8
CUT
10
32.3077
20
171.6923
0
VERTEX
8
CUT
10
36.9231
20
171.6923
0
VERTEX
8
CUT
10
36.9231
20
167.0769
0
VERTEX
8
CUT
10
33.8462
20
167.0769
0
VERTEX
8
CUT
10
33.8462
20
170.1538
0
VERTEX
8
CUT
10
35.3846
20
170.1538
0
VERTEX
8
CUT
10
35.3846
20
168.6154
0
SEQEND
0
POLYLINE
8
CUT
66
1
70
0
0
VERTEX
8
CUT
10
50
20
174
0
VERTEX
8
CUT
10
50
20
164.7692
0
VERTEX
8
CUT
10
40.7692
20
164.7692
0
VERTEX
8
CUT
10
40.7692
20
172.4615
0
VERTEX
8
CUT
10
48.4615
20
172.4615
0
VERTEX
8
CUT
10
48.4615
20
166.3077
0
VERTEX
8
CUT
10
42.3077
20
166.3077
0
VERTEX
8
CUT
10
42.3077
20
170.9231
0
VERTEX
8
CUT
10
46.9231
20
170.9231
0
VERTEX
8
CUT
10
46.9231
20
167.8462
0
VERTEX
8
CUT
10
43.8462
20
167.8462
0
VERTEX
8
CUT
10
43.8462
20
169.3846
0
VERTEX
8
CUT
10
45.3846
20
169.3846
0
SEQEND
0
POLYLINE
8
CUT
66
1
70
0
0
VERTEX
8
CUT
10
40
20
164
0
VERTEX
8
CUT
10
40
20
173.2308
0
VERTEX
8
CUT
10
49.2308
20
173.2308
0
VERTEX
8
CUT
10
49.2308
20
165.5385
0
VERTEX
8
CUT
10
41.5385
20
165.5385
0
VERTEX
8
CUT
10
41.5385
20
171.6923
0
VERTEX
8
CUT
10
47.6923
20
171.6923
0
VERTEX
8
CUT
10
47.6923
20
167.0769
0
VERTEX
8
CUT
10
43.0769
20
167.0769
0
VERTEX
8
CUT
10
43.0769
20
170.1538
0
VERTEX
8
CUT
10
46.1538
20
170.1538
0
VERTEX
8
CUT
10
46.1538
20
168.6154
0
VERTEX
8
CUT
10
44.6154
20
168.6154
0
SEQEND
0
POLYLINE
8
CUT
66
1
70
0
0
VERTEX
8
CUT
10
50
20
174
0
VERTEX
8
CUT
10
59.2308
20
174
0
VERTEX
8
CUT
10
59.2308
20
164.7692
0
VERTEX
8
CUT
10
51.5385
20
164.7692
0
VERTEX
8
CUT
10
51.5385
20
172.4615
0
VERTEX
8
CUT
10
57.6923
20
172.4615
0
VERTEX
8
CUT
10
57.6923
20
166.3077
0
VERTEX
8
CUT
10
53.0769
20
166.3077
0
VERTEX
8
CUT
10
53.0769
20
170.9231
0
VERTEX
8
CUT
10
56.1538
20
170.9231
0
VERTEX
8
CUT
10
56.1538
20
167.8462
0
VERTEX
8
CUT
10
54.6154
20
167.8462
0
VERTEX
8
CUT
10
54.6154
20
169.3846
0
SEQEND
0
POLYLINE
8
CUT
66
1
70
0
0
VERTEX
8
CUT
10
60
20
164
0
VERTEX
8
CUT
10
50.7692
20
164
0
VERTEX
8
CUT
10
50.7692
20
173.2308
0
VERTEX
8
CUT
10
58.4615
20
173.2308
0
VERTEX
8
CUT
10
58.4615
20
165.5385
0
VERTEX
8
CUT
10
52.3077
20
165.5385
0
VERTEX
8
CUT
10
52.3077
20
171.6923
0
VERTEX
8
CUT
10
56.9231
20
171.6923
0
VERTEX
8
CUT
10
56.9231
20
167.0769
0
VERTEX
8
CUT
10
53.8462
20
167.0769
0
VERTEX
8
CUT
10
53.8462
20
170.1538
0
VERTEX
8
CUT
10
55.3846
20
170.1538
0
VERTEX
8
CUT
10
55.3846
20
168.6154
0
SEQEND
0
POLYLINE
8
CUT
66
1
70
0
0
VERTEX
8
CUT
10
20
20
164
0
VERTEX
8
CUT
10
20
20
154.7692
0
VERTEX
8
CUT
10
10.7692
20
154.7692
0
VERTEX
8
CUT
10
10.7692
20
162.4615
0
VERTEX
8
CUT
10
18.4615
20
162.4615
0
VERTEX
8
CUT
10
18.4615
20
156.3077
0
VERTEX
8
CUT
10
12.3077
20
156.3077
0
VERTEX
8
CUT
10
12.3077
20
160.9231
0
VERTEX
8
CUT
10
16.9231
20
160.9231
0
VERTEX
8
CUT
10
16.9231
20
157.8462
0
VERTEX
8
CUT
10
13.8462
20
157.8462
0
VERTEX
8
CUT
10
13.8462
20
159.3846
0
VERTEX
8
CUT
10
15.3846
20
159.3846
0
SEQEND
0
POLYLINE
8
CUT
66
1
70
0
0
VERTEX
8
CUT
10
10
20
154
0
VERTEX
8
CUT
10
10
20
163.2308
0
VERTEX
8
CUT
10
19.2308
20
163.2308
0
VERTEX
8
CUT
10
19.2308
20
155.5385
0
VERTEX
8
CUT
10
11.5385
20
155.5385
0
VERTEX
8
CUT
10
11.5385
20
161.6923
0
VERTEX
8
CUT
10
17.6923
20
161.6923
0
VERTEX
8
CUT
10
17.6923
20
157.0769
0
VERTEX
8
CUT
10
13.0769
20
157.0769
0
VERTEX
8
CUT
10
13.0769
20
160.1538
0
VERTEX
8
CUT
10
16.1538
20
160.1538
0
VERTEX
8
CUT
10
16.1538
20
158.6154
0
VERTEX
8
CUT
10
14.6154
20
158.6154
0
SEQEND
0
POLYLINE
8
CUT
66
1
70
0
0
VERTEX
8
CUT
10
20
20
164
0
VERTEX
8
CUT
10
29.2308
20
164
0
VERTEX
8
CUT
10
29.2308
20
154.7692
0
VERTEX
8
CUT
10
21.5385
20
154.7692
0
VERTEX
8
CUT
10
21.5385
20
162.4615
0
VERTEX
8
CUT
10
27.6923
20
162.4615
0
VERTEX
8
CUT
10
27.6923
20
156.3077
0
VERTEX
8
CUT
10
23.0769
20
156.3077
0
VERTEX
8
CUT
10
23.0769
20
160.9231
0
VERTEX
8
CUT
10
26.1538
20
160.9231
0
VERTEX
8
CUT
10
26.1538
20
157.8462
0
VERTEX
8
CUT
10
24.6154
20
157.8462
0
VERTEX
8
CUT
10
24.6154
20
159.3846
0
SEQEND
0
POLYLINE
8
CUT
66
1
70
0
0
VERTEX
8
CUT
10
30
20
154
0
VERTEX
8
CUT
10
20.7692
20
154
0
VERTEX
8
CUT
10
20.7692
20
163.2308
0
VERTEX
8
CUT
10
28.4615
20
163.2308
0
VERTEX
8
CUT
10
28.4615
20
155.5385
0
VERTEX
8
CUT
10
22.3077
20
155.5385
0
VERTEX
8
CUT
10
22.3077
20
161.6923
0
VERTEX
8
CUT
10
26.9231
20
161.6923
0
VERTEX
8
CUT
10
26.9231
20
157.0769
0
VERTEX
8
CUT
10
23.8462
20
157.0769
0
VERTEX
8
CUT
10
23.8462
20
160.1538
0
VERTEX
8
CUT
10
25.3846
20
160.1538
0
VERTEX
8
CUT
10
25.3846
20
158.6154
0
SEQEND
0
POLYLINE
8
CUT
66
1
70
0
0
VERTEX
8
CUT
10
40
20
164
0
VERTEX
8
CUT
10
40
20
154.7692
0
VERTEX
8
CUT
10
30.7692
20
154.7692
0
VERTEX
8
CUT
10
30.7692
20
162.4615
0
VERTEX
8
CUT
10
38.4615
20
162.4615
0
VERTEX
8
CUT
10
38.4615
20
156.3077
0
VERTEX
8
CUT
10
32.3077
20
156.3077
0
VERTEX
8
CUT
10
32.3077
20
160.9231
0
VERTEX
8
CUT
10
36.9231
20
160.9231
0
VERTEX
8
CUT
10
36.9231
20
157.8462
0
VERTEX
8
CUT
10
33.8462
20
157.8462
0
VERTEX
8
CUT
10
33.8462
20
159.3846
0
VERTEX
8
CUT
10
35.3846
20
159.3846
0
SEQEND
0
POLYLINE
8
CUT
66
1
70
0
0
VERTEX
8
CUT
10
30
20
154
0
VERTEX
8
CUT
10
30
20
163.2308
0
VERTEX
8
CUT
10
39.2308
20
163.2308
0
VERTEX
8
CUT
10
39.2308
20
155.5385
0
VERTEX
8
CUT
10
31.5385
20
155.5385
0
VERTEX
8
CUT
10
31.5385
20
161.6923
0
VERTEX
8
CUT
10
37.6923
20
161.6923
0
VERTEX
8
CUT
10
37.6923
20
157.0769
0
VERTEX
8
CUT
10
33.0769
20
157.0769
0
VERTEX
8
CUT
10
33.0769
20
160.1538
0
VERTEX
8
CUT
10
36.1538
20
160.1538
0
VERTEX
8
CUT
10
36.1538
20
158.6154
0
VERTEX
8
CUT
10
34.6154
20
158.6154
0
SEQEND
0
POLYLINE
8
CUT
66
1
70
0
0
VERTEX
8
CUT
10
40
20
164
0
VERTEX
8
CUT
10
49.2308
20
164
0
VERTEX
8
CUT
10
49.2308
20
154.7692
0
VERTEX
8
CUT
10
41.5385
20
154.7692
0
VERTEX
8
CUT
10
41.5385
20
162.4615
0
VERTEX
8
CUT
10
47.6923
20
162.4615
0
VERTEX
8
CUT
10
47.6923
20
156.3077
0
VERTEX
8
CUT
10
43.0769
20
156.3077
0
VERTEX
8
CUT
10
43.0769
20
160.9231
0
VERTEX
8
CUT
10
46.1538
20
160.9231
0
VERTEX
8
CUT
10
46.1538
20
157.8462
0
VERTEX
8
CUT
10
44.6154
20
157.8462
0
VERTEX
8
CUT
10
44.6154
20
159.3846
0
SEQEND
0
POLYLINE
8
CUT
66
1
70
0
0
VERTEX
8
CUT
10
50
20
154
0
VERTEX
8
CUT
10
40.7692
20
154
0
VERTEX
8
CUT
10
40.7692
20
163.2308
0
VERTEX
8
CUT
10
48.4615
20
163.2308
0
VERTEX
8
CUT
10
48.4615
20
155.5385
0
VERTEX
8
CUT
10
42.3077
20
155.5385
0
VERTEX
8
CUT
10
42.3077
20
161.6923
0
VERTEX
8
CUT
10
46.9231
20
161.6923
0
VERTEX
8
CUT
10
46.9231
20
157.0769
0
VERTEX
8
CUT
10
43.8462
20
157.0769
0
VERTEX
8
CUT
10
43.8462
20
160.1538
0
VERTEX
8
CUT
10
45.3846
20
160.1538
0
VERTEX
8
CUT
10
45.3846
20
158.6154
0
SEQEND
0
POLYLINE
8
CUT
66
1
70
0
0
VERTEX
8
CUT
10
60
20
164
0
VERTEX
8
CUT
10
60
20
154.7692
0
VERTEX
8
CUT
10
50.7692
20
154.7692
0
VERTEX
8
CUT
10
50.7692
20
162.4615
0
VERTEX
8
CUT
10
58.4615
20
162.4615
0
VERTEX
8
CUT
10
58.4615
20
156.3077
0
VERTEX
8
CUT
10
52.3077
20
156.3077
0
VERTEX
8
CUT
10
52.3077
20
160.9231
0
VERTEX
8
CUT
10
56.9231
20
160.9231
0
VERTEX
8
CUT
10
56.9231
20
157.8462
0
VERTEX
8
CUT
10
53.8462
20
157.8462
0
VERTEX
8
CUT
10
53.8462
20
159.3846
0
VERTEX
8
CUT
10
55.3846
20
159.3846
0
SEQEND
0
POLYLINE
8
CUT
66
1
70
0
0
VERTEX
8
CUT
10
50
20
154
0
VERTEX
8
CUT
10
50
20
163.2308
0
VERTEX
8
CUT
10
59.2308
20
163.2308
0
VERTEX
8
CUT
10
59.2308
20
155.5385
0
VERTEX
8
CUT
10
51.5385
20
155.5385
0
VERTEX
8
CUT
10
51.5385
20
161.6923
0
VERTEX
8
CUT
10
57.6923
20
161.6923
0
VERTEX
8
CUT
10
57.6923
20
157.0769
0
VERTEX
8
CUT
10
53.0769
20
157.0769
0
VERTEX
8
CUT
10
53.0769
20
160.1538
0
VERTEX
8
CUT
10
56.1538
20
160.1538
0
VERTEX
8
CUT
10
56.1538
20
158.6154
0
VERTEX
8
CUT
10
54.6154
20
158.6154
0
SEQEND
0
POLYLINE
8
CUT
66
1
70
0
0
VERTEX
8
CUT
10
10
20
154
0
VERTEX
8
CUT
10
19.2308
20
154
0
VERTEX
8
CUT
10
19.2308
20
144.7692
0
VERTEX
8
CUT
10
11.5385
20
144.7692
0
VERTEX
8
CUT
10
11.5385
20
152.4615
0
VERTEX
8
CUT
10
17.6923
20
152.4615
0
VERTEX
8
CUT
10
17.6923
20
146.3077
0
VERTEX
8
CUT
10
13.0769
20
146.3077
0
VERTEX
8
CUT
10
13.0769
20
150.9231
0
VERTEX
8
CUT
10
16.1538
20
150.9231
0
VERTEX
8
CUT
10
16.1538
20
147.8462
0
VERTEX
8
CUT
10
14.6154
20
147.8462
0
VERTEX
8
CUT
10
14.6154
20
149.3846
0
SEQEND
0
POLYLINE
8
CUT
66
1
70
0
0
VERTEX
8
CUT
10
20
20
144
0
VERTEX
8
CUT
10
10.7692
20
144
0
VERTEX
8
CUT
10
10.7692
20
153.2308
0
VERTEX
8
CUT
10
18.4615
20
153.2308
0
VERTEX
8
CUT
10
18.4615
20
145.5385
0
VERTEX
8
CUT
10
12.3077
20
145.5385
0
VERTEX
8
CUT
10
12.3077
20
151.6923
0
VERTEX
8
CUT
10
16.9231
20
151.6923
0
VERTEX
8
CUT
10
16.9231
20
147.0769
0
VERTEX
8
CUT
10
13.8462
20
147.0769
0
VERTEX
8
CUT
10
13.8462
20
150.1538
0
VERTEX
8
CUT
10
15.3846
20
150.1538
0
VERTEX
8
CUT
10
15.3846
20
148.6154
0
SEQEND
0
POLYLINE
8
CUT
66
1
70
0
0
VERTEX
8
CUT
10
30
20
154
0
VERTEX
8
CUT
10
30
20
144.7692
0
VERTEX
8
CUT
10
20.7692
20
144.7692
0
VERTEX
8
CUT
10
20.7692
20
152.4615
0
VERTEX
8
CUT
10
28.4615
20
152.4615
0
VERTEX
8
CUT
10
28.4615
20
146.3077
0
VERTEX
8
CUT
10
22.3077
20
146.3077
0
VERTEX
8
CUT
10
22.3077
20
150.9231
0
VERTEX
8
CUT
10
26.9231
20
150.9231
0
VERTEX
8
CUT
10
26.9231
20
147.8462
0
VERTEX
8
CUT
10
23.8462
20
147.8462
0
VERTEX
8
CUT
10
23.8462
20
149.3846
0
VERTEX
8
CUT
10
25.3846
20
149.3846
0
SEQEND
0
POLYLINE
8
CUT
66
1
70
0
0
VERTEX
8
CUT
10
20
20
144
0
VERTEX
8
CUT
10
20
20
153.2308
0
VERTEX
8
CUT
10
29.2308
20
153.2308
0
VERTEX
8
CUT
10
29.2308
20
145.5385
0
VERTEX
8
CUT
10
21.5385
20
145.5385
0
VERTEX
8
CUT
10
21.5385
20
151.6923
0
VERTEX
8
CUT
10
27.6923
20
151.6923
0
VERTEX
8
CUT
10
27.6923
20
147.0769
0
VERTEX
8
CUT
10
23.0769
20
147.0769
0
VERTEX
8
CUT
10
23.0769
20
150.1538
0
VERTEX
8
CUT
10
26.1538
20
150.1538
0
VERTEX
8
CUT
10
26.1538
20
148.6154
0
VERTEX
8
CUT
10
24.6154
20
148.6154
0
SEQEND
0
POLYLINE
8
CUT
66
1
70
0
0
VERTEX
8
CUT
10
30
20
154
0
VERTEX
8
CUT
10
39.2308
20
154
0
VERTEX
8
CUT
10
39.2308
20
144.7692
0
VERTEX
8
CUT
10
31.5385
20
144.7692
0
VERTEX
8
CUT
10
31.5385
20
152.4615
0
VERTEX
8
CUT
10
37.6923
20
152.4615
0
VERTEX
8
CUT
10
37.6923
20
146.3077
0
VERTEX
8
CUT
10
33.0769
20
146.3077
0
VERTEX
8
CUT
10
33.0769
20
150.9231
0
VERTEX
8
CUT
10
36.1538
20
150.9231
0
VERTEX
8
CUT
10
36.1538
20
147.8462
0
VERTEX
8
CUT
10
34.6154
20
147.8462
0
VERTEX
8
CUT
10
34.6154
20
149.3846
0
SEQEND
0
POLYLINE
8
CUT
66
1
70
0
0
VERTEX
8
CUT
10
40
20
144
0
VERTEX
8
CUT
10
30.7692
20
144
0
VERTEX
8
CUT
10
30.7692
20
153.2308
0
VERTEX
8
CUT
10
38.4615
20
153.2308
0
VERTEX
8
CUT
10
38.4615
20
145.5385
0
VERTEX
8
CUT
10
32.3077
20
145.5385
0
VERTEX
8
CUT
10
32.3077
20
151.6923
0
VERTEX
8
CUT
10
36.9231
20
151.6923
0
VERTEX
8
CUT
10
36.9231
20
147.0769
0
VERTEX
8
CUT
10
33.8462
20
147.0769
0
VERTEX
8
CUT
10
33.8462
20
150.1538
0
VERTEX
8
CUT
10
35.3846
20
150.1538
0
VERTEX
8
CUT
10
35.3846
20
148.6154
0
SEQEND
0
POLYLINE
8
CUT
66
1
70
0
0
VERTEX
8
CUT
10
50
20
154
0
VERTEX
8
CUT
10
50
20
144.7692
0
VERTEX
8
CUT
10
40.7692
20
144.7692
0
VERTEX
8
CUT
10
40.7692
20
152.4615
0
VERTEX
8
CUT
10
48.4615
20
152.4615
0
VERTEX
8
CUT
10
48.4615
20
146.3077
0
VERTEX
8
CUT
10
42.3077
20
146.3077
0
VERTEX
8
CUT
10
42.3077
20
150.9231
0
VERTEX
8
CUT
10
46.9231
20
150.9231
0
VERTEX
8
CUT
10
46.9231
20
147.8462
0
VERTEX
8
CUT
10
43.8462
20
147.8462
0
VERTEX
8
CUT
10
43.8462
20
149.3846
0
VERTEX
8
CUT
10
45.3846
20
149.3846
0
SEQEND
0
POLYLINE
8
CUT
66
1
70
0
0
VERTEX
8
CUT
10
40
20
144
0
VERTEX
8
CUT
10
40
20
153.2308
0
VERTEX
8
CUT
10
49.2308
20
153.2308
0
VERTEX
8
CUT
10
49.2308
20
145.5385
0
VERTEX
8
CUT
10
41.5385
20
145.5385
0
VERTEX
8
CUT
10
41.5385
20
151.6923
0
VERTEX
8
CUT
10
47.6923
20
151.6923
0
VERTEX
8
CUT
10
47.6923
20
147.0769
0
VERTEX
8
CUT
10
43.0769
20
147.0769
0
VERTEX
8
CUT
10
43.0769
20
150.1538
0
VERTEX
8
CUT
10
46.1538
20
150.1538
0
VERTEX
8
CUT
10
46.1538
20
148.6154
0
VERTEX
8
CUT
10
44.6154
20
148.6154
0
SEQEND
0
POLYLINE
8
CUT
66
1
70
0
0
VERTEX
8
CUT
10
50
20
154
0
VERTEX
8
CUT
10
59.2308
20
154
0
VERTEX
8
CUT
10
59.2308
20
144.7692
0
VERTEX
8
CUT
10
51.5385
20
144.7692
0
VERTEX
8
CUT
10
51.5385
20
152.4615
0
VERTEX
8
CUT
10
57.6923
20
152.4615
0
VERTEX
8
CUT
10
57.6923
20
146.3077
0
VERTEX
8
CUT
10
53.0769
20
146.3077
0
VERTEX
8
CUT
10
53.0769
20
150.9231
0
VERTEX
8
CUT
10
56.1538
20
150.9231
0
VERTEX
8
CUT
10
56.1538
20
147.8462
0
VERTEX
8
CUT
10
54.6154
20
147.8462
0
VERTEX
8
CUT
10
54.6154
20
149.3846
0
SEQEND
0
POLYLINE
8
CUT
66
1
70
0
0
VERTEX
8
CUT
10
60
20
144
0
VERTEX
8
CUT
10
50.7692
20
144
0
VERTEX
8
CUT
10
50.7692
20
153.2308
0
VERTEX
8
CUT
10
58.4615
20
153.2308
0
VERTEX
8
CUT
10
58.4615
20
145.5385
0
VERTEX
8
CUT
10
52.3077
20
145.5385
0
VERTEX
8
CUT
10
52.3077
20
151.6923
0
VERTEX
8
CUT
10
56.9231
20
151.6923
0
VERTEX
8
CUT
10
56.9231
20
147.0769
0
VERTEX
8
CUT
10
53.8462
20
147.0769
0
VERTEX
8
CUT
10
53.8462
20
150.1538
0
VERTEX
8
CUT
10
55.3846
20
150.1538
0
VERTEX
8
CUT
10
55.3846
20
148.6154
0
SEQEND
0
LINE
8
CUT
10
2.5
20
144
11
2.5
21
147
0
POLYLINE
8
CUT
66
1
70
0
0
VERTEX
8
CUT
10
0
20
138
0
VERTEX
8
CUT
10
70
20
138
0
VERTEX
8
CUT
10
70
20
108
0
VERTEX
8
CUT
10
0
20
108
0
VERTEX
8
CUT
10
0
20
138
0
SEQEND
0
POLYLINE
8
CUT
66
1
70
0
0
VERTEX
8
CUT
10
10
20
138
0
VERTEX
8
CUT
10
18.8889
20
138
0
VERTEX
8
CUT
10
18.8889
20
129.1111
0
VERTEX
8
CUT
10
12.2222
20
129.1111
0
VERTEX
8
CUT
10
12.2222
20
135.7778
0
VERTEX
8
CUT
10
16.6667
20
135.7778
0
VERTEX
8
CUT
10
16.6667
20
131.3333
0
VERTEX
8
CUT
10
14.4444
20
131.3333
0
VERTEX
8
CUT
10
14.4444
20
133.5556
0
SEQEND
0
POLYLINE
8
CUT
66
1
70
0
0
VERTEX
8
CUT
10
20
20
128
0
VERTEX
8
CUT
10
11.1111
20
128
0
VERTEX
8
CUT
10
11.1111
20
136.8889
0
VERTEX
8
CUT
10
17.7778
20
136.8889
0
VERTEX
8
CUT
10
17.7778
20
130.2222
0
VERTEX
8
CUT
10
13.3333
20
130.2222
0
VERTEX
8
CUT
10
13.3333
20
134.6667
0
VERTEX
8
CUT
10
15.5556
20
134.6667
0
VERTEX
8
CUT
10
15.5556
20
132.4444
0
SEQEND
0
POLYLINE
8
CUT
66
1
70
0
0
VERTEX
8
CUT
10
30
20
138
0
VERTEX
8
CUT
10
30
20
129.1111
0
VERTEX
8
CUT
10
21.1111
20
129.1111
0
VERTEX
8
CUT
10
21.1111
20
135.7778
0
VERTEX
8
CUT
10
27.7778
20
135.7778
0
VERTEX
8
CUT
10
27.7778
20
131.3333
0
VERTEX
8
CUT
10
23.3333
20
131.3333
0
VERTEX
8
CUT
10
23.3333
20
133.5556
0
VERTEX
8
CUT
10
25.5556
20
133.5556
0
SEQEND
0
POLYLINE
8
CUT
66
1
70
0
0
VERTEX
8
CUT
10
20
20
128
0
VERTEX
8
CUT
10
20
20
136.8889
0
VERTEX
8
CUT
10
28.8889
20
136.8889
0
VERTEX
8
CUT
10
28.8889
20
130.2222
0
VERTEX
8
CUT
10
22.2222
20
130.2222
0
VERTEX
8
CUT
10
22.2222
20
134.6667
0
VERTEX
8
CUT
10
26.6667
20
134.6667
0
VERTEX
8
CUT
10
26.6667
20
132.4444
0
VERTEX
8
CUT
10
24.4444
20
132.4444
0
SEQEND
0
POLYLINE
8
CUT
66
1
70
0
0
VERTEX
8
CUT
10
30
20
138
0
VERTEX
8
CUT
10
38.8889
20
138
0
VERTEX
8
CUT
10
38.8889
20
129.1111
0
VERTEX
8
CUT
10
32.2222
20
129.1111
0
VERTEX
8
CUT
10
32.2222
20
135.7778
0
VERTEX
8
CUT
10
36.6667
20
135.7778
0
VERTEX
8
CUT
10
36.6667
20
131.3333
0
VERTEX
8
CUT
10
34.4444
20
131.3333
0
VERTEX
8
CUT
10
34.4444
20
133.5556
0
SEQEND
0
POLYLINE
8
CUT
66
1
70
0
0
VERTEX
8
CUT
10
40
20
128
0
VERTEX
8
CUT
10
31.1111
20
128
0
VERTEX
8
CUT
10
31.1111
20
136.8889
0
VERTEX
8
CUT
10
37.7778
20
136.8889
0
VERTEX
8
CUT
10
37.7778
20
130.2222
0
VERTEX
8
CUT
10
33.3333
20
130.2222
0
VERTEX
8
CUT
10
33.3333
20
134.6667
0
VERTEX
8
CUT
10
35.5556
20
134.6667
0
VERTEX
8
CUT
10
35.5556
20
132.4444
0
SEQEND
0
POLYLINE
8
CUT
66
1
70
0
0
VERTEX
8
CUT
10
50
20
138
0
VERTEX
8
CUT
10
50
20
129.1111
0
VERTEX
8
CUT
10
41.1111
20
129.1111
0
VERTEX
8
CUT
10
41.1111
20
135.7778
0
VERTEX
8
CUT
10
47.7778
20
135.7778
0
VERTEX
8
CUT
10
47.7778
20
131.3333
0
VERTEX
8
CUT
10
43.3333
20
131.3333
0
VERTEX
8
CUT
10
43.3333
20
133.5556
0
VERTEX
8
CUT
10
45.5556
20
133.5556
0
SEQEND
0
POLYLINE
8
CUT
66
1
70
0
0
VERTEX
8
CUT
10
40
20
128
0
VERTEX
8
CUT
10
40
20
136.8889
0
VERTEX
8
CUT
10
48.8889
20
136.8889
0
VERTEX
8
CUT
10
48.8889
20
130.2222
0
VERTEX
8
CUT
10
42.2222
20
130.2222
0
VERTEX
8
CUT
10
42.2222
20
134.6667
0
VERTEX
8
CUT
10
46.6667
20
134.6667
0
VERTEX
8
CUT
10
46.6667
20
132.4444
0
VERTEX
8
CUT
10
44.4444
20
132.4444
0
SEQEND
0
POLYLINE
8
CUT
66
1
70
0
0
VERTEX
8
CUT
10
50
20
138
0
VERTEX
8
CUT
10
58.8889
20
138
0
VERTEX
8
CUT
10
58.8889
20
129.1111
0
VERTEX
8
CUT
10
52.2222
20
129.1111
0
VERTEX
8
CUT
10
52.2222
20
135.7778
0
VERTEX
8
CUT
10
56.6667
20
135.7778
0
VERTEX
8
CUT
10
56.6667
20
131.3333
0
VERTEX
8
CUT
10
54.4444
20
131.3333
0
VERTEX
8
CUT
10
54.4444
20
133.5556
0
SEQEND
0
POLYLINE
8
CUT
66
1
70
0
0
VERTEX
8
CUT
10
60
20
128
0
VERTEX
8
CUT
10
51.1111
20
128
0
VERTEX
8
CUT
10
51.1111
20
136.8889
0
VERTEX
8
CUT
10
57.7778
20
136.8889
0
VERTEX
8
CUT
10
57.7778
20
130.2222
0
VERTEX
8
CUT
10
53.3333
20
130.2222
0
VERTEX
8
CUT
10
53.3333
20
134.6667
0
VERTEX
8
CUT
10
55.5556
20
134.6667
0
VERTEX
8
CUT
10
55.5556
20
132.4444
0
SEQEND
0
POLYLINE
8
CUT
66
1
70
0
0
VERTEX
8
CUT
10
20
20
128
0
VERTEX
8
CUT
10
20
20
119.1111
0
VERTEX
8
CUT
10
11.1111
20
119.1111
0
VERTEX
8
CUT
10
11.1111
20
125.7778
0
VERTEX
8
CUT
10
17.7778
20
125.7778
0
VERTEX
8
CUT
10
17.7778
20
121.3333
0
VERTEX
8
CUT
10
13.3333
20
121.3333
0
VERTEX
8
CUT
10
13.3333
20
123.5556
0
VERTEX
8
CUT
10
15.5556
20
123.5556
0
SEQEND
0
POLYLINE
8
CUT
66
1
70
0
0
VERTEX
8
CUT
10
10
20
118
0
VERTEX
8
CUT
10
10
20
126.8889
0
VERTEX
8
CUT
10
18.8889
20
126.8889
0
VERTEX
8
CUT
10
18.8889
20
120.2222
0
VERTEX
8
CUT
10
12.2222
20
120.2222
0
VERTEX
8
CUT
10
12.2222
20
124.6667
0
VERTEX
8
CUT
10
16.6667
20
124.6667
0
VERTEX
8
CUT
10
16.6667
20
122.4444
0
VERTEX
8
CUT
10
14.4444
20
122.4444
0
SEQEND
0
POLYLINE
8
CUT
66
1
70
0
0
VERTEX
8
CUT
10
20
20
128
0
VERTEX
8
CUT
10
28.8889
20
128
0
VERTEX
8
CUT
10
28.8889
20
119.1111
0
VERTEX
8
CUT
10
22.2222
20
119.1111
0
VERTEX
8
CUT
10
22.2222
20
125.7778
0
VERTEX
8
CUT
10
26.6667
20
125.7778
0
VERTEX
8
CUT
10
26.6667
20
121.3333
0
VERTEX
8
CUT
10
24.4444
20
121.3333
0
VERTEX
8
CUT
10
24.4444
20
123.5556
0
SEQEND
0
POLYLINE
8
CUT
66
1
70
0
0
VERTEX
8
CUT
10
30
20
118
0
VERTEX
8
CUT
10
21.1111
20
118
0
VERTEX
8
CUT
10
21.1111
20
126.8889
0
VERTEX
8
CUT
10
27.7778
20
126.8889
0
VERTEX
8
CUT
10
27.7778
20
120.2222
0
VERTEX
8
CUT
10
23.3333
20
120.2222
0
VERTEX
8
CUT
10
23.3333
20
124.6667
0
VERTEX
8
CUT
10
25.5556
20
124.6667
0
VERTEX
8
CUT
10
25.5556
20
122.4444
0
SEQEND
0
POLYLINE
8
CUT
66
1
70
0
0
VERTEX
8
CUT
10
40
20
128
0
VERTEX
8
CUT
10
40
20
119.1111
0
VERTEX
8
CUT
10
31.1111
20
119.1111
0
VERTEX
8
CUT
10
31.1111
20
125.7778
0
VERTEX
8
CUT
10
37.7778
20
125.7778
0
VERTEX
8
CUT
10
37.7778
20
121.3333
0
VERTEX
8
CUT
10
33.3333
20
121.3333
0
VERTEX
8
CUT
10
33.3333
20
123.5556
0
VERTEX
8
CUT
10
35.5556
20
123.5556
0
SEQEND
0
POLYLINE
8
CUT
66
1
70
0
0
VERTEX
8
CUT
10
30
20
118
0
VERTEX
8
CUT
10
30
20
126.8889
0
VERTEX
8
CUT
10
38.8889
20
126.8889
0
VERTEX
8
CUT
10
38.8889
20
120.2222
0
VERTEX
8
CUT
10
32.2222
20
120.2222
0
VERTEX
8
CUT
10
32.2222
20
124.6667
0
VERTEX
8
CUT
10
36.6667
20
124.6667
0
VERTEX
8
CUT
10
36.6667
20
122.4444
0
VERTEX
8
CUT
10
34.4444
20
122.4444
0
SEQEND
0
POLYLINE
8
CUT
66
1
70
0
0
VERTEX
8
CUT
10
40
20
128
0
VERTEX
8
CUT
10
48.8889
20
128
0
VERTEX
8
CUT
10
48.8889
20
119.1111
0
VERTEX
8
CUT
10
42.2222
20
119.1111
0
VERTEX
8
CUT
10
42.2222
20
125.7778
0
VERTEX
8
CUT
10
46.6667
20
125.7778
0
VERTEX
8
CUT
10
46.6667
20
121.3333
0
VERTEX
8
CUT
10
44.4444
20
121.3333
0
VERTEX
8
CUT
10
44.4444
20
123.5556
0
SEQEND
0
POLYLINE
8
CUT
66
1
70
0
0
VERTEX
8
CUT
10
50
20
118
0
VERTEX
8
CUT
10
41.1111
20
118
0
VERTEX
8
CUT
10
41.1111
20
126.8889
0
VERTEX
8
CUT
10
47.7778
20
126.8889
0
VERTEX
8
CUT
10
47.7778
20
120.2222
0
VERTEX
8
CUT
10
43.3333
20
120.2222
0
VERTEX
8
CUT
10
43.3333
20
124.6667
0
VERTEX
8
CUT
10
45.5556
20
124.6667
0
VERTEX
8
CUT
10
45.5556
20
122.4444
0
SEQEND
0
POLYLINE
8
CUT
66
1
70
0
0
VERTEX
8
CUT
10
60
20
128
0
VERTEX
8
CUT
10
60
20
119.1111
0
VERTEX
8
CUT
10
51.1111
20
119.1111
0
VERTEX
8
CUT
10
51.1111
20
125.7778
0
VERTEX
8
CUT
10
57.7778
20
125.7778
0
VERTEX
8
CUT
10
57.7778
20
121.3333
0
VERTEX
8
CUT
10
53.3333
20
121.3333
0
VERTEX
8
CUT
10
53.3333
20
123.5556
0
VERTEX
8
CUT
10
55.5556
20
123.5556
0
SEQEND
0
POLYLINE
8
CUT
66
1
70
0
0
VERTEX
8
CUT
10
50
20
118
0
VERTEX
8
CUT
10
50
20
126.8889
0
VERTEX
8
CUT
10
58.8889
20
126.8889
0
VERTEX
8
CUT
10
58.8889
20
120.2222
0
VERTEX
8
CUT
10
52.2222
20
120.2222
0
VERTEX
8
CUT
10
52.2222
20
124.6667
0
VERTEX
8
CUT
10
56.6667
20
124.6667
0
VERTEX
8
CUT
10
56.6667
20
122.4444
0
VERTEX
8
CUT
10
54.4444
20
122.4444
0
SEQEND
0
POLYLINE
8
CUT
66
1
70
0
0
VERTEX
8
CUT
10
10
20
118
0
VERTEX
8
CUT
10
18.8889
20
118
0
VERTEX
8
CUT
10
18.8889
20
109.1111
0
VERTEX
8
CUT
10
12.2222
20
109.1111
0
VERTEX
8
CUT
10
12.2222
20
115.7778
0
VERTEX
8
CUT
10
16.6667
20
115.7778
0
VERTEX
8
CUT
10
16.6667
20
111.3333
0
VERTEX
8
CUT
10
14.4444
20
111.3333
0
VERTEX
8
CUT
10
14.4444
20
113.5556
0
SEQEND
0
POLYLINE
8
CUT
66
1
70
0
0
VERTEX
8
CUT
10
20
20
108
0
VERTEX
8
CUT
10
11.1111
20
108
0
VERTEX
8
CUT
10
11.1111
20
116.8889
0
VERTEX
8
CUT
10
17.7778
20
116.8889
0
VERTEX
8
CUT
10
17.7778
20
110.2222
0
VERTEX
8
CUT
10
13.3333
20
110.2222
0
VERTEX
8
CUT
10
13.3333
20
114.6667
0
VERTEX
8
CUT
10
15.5556
20
114.6667
0
VERTEX
8
CUT
10
15.5556
20
112.4444
0
SEQEND
0
POLYLINE
8
CUT
66
1
70
0
0
VERTEX
8
CUT
10
30
20
118
0
VERTEX
8
CUT
10
30
20
109.1111
0
VERTEX
8
CUT
10
21.1111
20
109.1111
0
VERTEX
8
CUT
10
21.1111
20
115.7778
0
VERTEX
8
CUT
10
27.7778
20
115.7778
0
VERTEX
8
CUT
10
27.7778
20
111.3333
0
VERTEX
8
CUT
10
23.3333
20
111.3333
0
VERTEX
8
CUT
10
23.3333
20
113.5556
0
VERTEX
8
CUT
10
25.5556
20
113.5556
0
SEQEND
0
POLYLINE
8
CUT
66
1
70
0
0
VERTEX
8
CUT
10
20
20
108
0
VERTEX
8
CUT
10
20
20
116.8889
0
VERTEX
8
CUT
10
28.8889
20
116.8889
0
VERTEX
8
CUT
10
28.8889
20
110.2222
0
VERTEX
8
CUT
10
22.2222
20
110.2222
0
VERTEX
8
CUT
10
22.2222
20
114.6667
0
VERTEX
8
CUT
10
26.6667
20
114.6667
0
VERTEX
8
CUT
10
26.6667
20
112.4444
0
VERTEX
8
CUT
10
24.4444
20
112.4444
0
SEQEND
0
POLYLINE
8
CUT
66
1
70
0
0
VERTEX
8
CUT
10
30
20
118
0
VERTEX
8
CUT
10
38.8889
20
118
0
VERTEX
8
CUT
10
38.8889
20
109.1111
0
VERTEX
8
CUT
10
32.2222
20
109.1111
0
VERTEX
8
CUT
10
32.2222
20
115.7778
0
VERTEX
8
CUT
10
36.6667
20
115.7778
0
VERTEX
8
CUT
10
36.6667
20
111.3333
0
VERTEX
8
CUT
10
34.4444
20
111.3333
0
VERTEX
8
CUT
10
34.4444
20
113.5556
0
SEQEND
0
POLYLINE
8
CUT
66
1
70
0
0
VERTEX
8
CUT
10
40
20
108
0
VERTEX
8
CUT
10
31.1111
20
108
0
VERTEX
8
CUT
10
31.1111
20
116.8889
0
VERTEX
8
CUT
10
37.7778
20
116.8889
0
VERTEX
8
CUT
10
37.7778
20
110.2222
0
VERTEX
8
CUT
10
33.3333
20
110.2222
0
VERTEX
8
CUT
10
33.3333
20
114.6667
0
VERTEX
8
CUT
10
35.5556
20
114.6667
0
VERTEX
8
CUT
10
35.5556
20
112.4444
0
SEQEND
0
POLYLINE
8
CUT
66
1
70
0
0
VERTEX
8
CUT
10
50
20
118
0
VERTEX
8
CUT
10
50
20
109.1111
0
VERTEX
8
CUT
10
41.1111
20
109.1111
0
VERTEX
8
CUT
10
41.1111
20
115.7778
0
VERTEX
8
CUT
10
47.7778
20
115.7778
0
VERTEX
8
CUT
10
47.7778
20
111.3333
0
VERTEX
8
CUT
10
43.3333
20
111.3333
0
VERTEX
8
CUT
10
43.3333
20
113.5556
0
VERTEX
8
CUT
10
45.5556
20
113.5556
0
SEQEND
0
POLYLINE
8
CUT
66
1
70
0
0
VERTEX
8
CUT
10
40
20
108
0
VERTEX
8
CUT
10
40
20
116.8889
0
VERTEX
8
CUT
10
48.8889
20
116.8889
0
VERTEX
8
CUT
10
48.8889
20
110.2222
0
VERTEX
8
CUT
10
42.2222
20
110.2222
0
VERTEX
8
CUT
10
42.2222
20
114.6667
0
VERTEX
8
CUT
10
46.6667
20
114.6667
0
VERTEX
8
CUT
10
46.6667
20
112.4444
0
VERTEX
8
CUT
10
44.4444
20
112.4444
0
SEQEND
0
POLYLINE
8
CUT
66
1
70
0
0
VERTEX
8
CUT
10
50
20
118
0
VERTEX
8
CUT
10
58.8889
20
118
0
VERTEX
8
CUT
10
58.8889
20
109.1111
0
VERTEX
8
CUT
10
52.2222
20
109.1111
0
VERTEX
8
CUT
10
52.2222
20
115.7778
0
VERTEX
8
CUT
10
56.6667
20
115.7778
0
VERTEX
8
CUT
10
56.6667
20
111.3333
0
VERTEX
8
CUT
10
54.4444
20
111.3333
0
VERTEX
8
CUT
10
54.4444
20
113.5556
0
SEQEND
0
POLYLINE
8
CUT
66
1
70
0
0
VERTEX
8
CUT
10
60
20
108
0
VERTEX
8
CUT
10
51.1111
20
108
0
VERTEX
8
CUT
10
51.1111
20
116.8889
0
VERTEX
8
CUT
10
57.7778
20
116.8889
0
VERTEX
8
CUT
10
57.7778
20
110.2222
0
VERTEX
8
CUT
10
53.3333
20
110.2222
0
VERTEX
8
CUT
10
53.3333
20
114.6667
0
VERTEX
8
CUT
10
55.5556
20
114.6667
0
VERTEX
8
CUT
10
55.5556
20
112.4444
0
SEQEND
0
LINE
8
CUT
10
2.5
20
108
11
2.5
21
111
0
LINE
8
CUT
10
5
20
108
11
5
21
111
0
POLYLINE
8
CUT
66
1
70
0
0
VERTEX
8
CUT
10
0
20
102
0
VERTEX
8
CUT
10
70
20
102
0
VERTEX
8
CUT
10
70
20
72
0
VERTEX
8
CUT
10
0
20
72
0
VERTEX
8
CUT
10
0
20
102
0
SEQEND
0
POLYLINE
8
CUT
66
1
70
0
0
VERTEX
8
CUT
10
10
20
102
0
VERTEX
8
CUT
10
18.5714
20
102
0
VERTEX
8
CUT
10
18.5714
20
93.4286
0
VERTEX
8
CUT
10
12.8571
20
93.4286
0
VERTEX
8
CUT
10
12.8571
20
99.1429
0
VERTEX
8
CUT
10
15.7143
20
99.1429
0
VERTEX
8
CUT
10
15.7143
20
96.2857
0
SEQEND
0
POLYLINE
8
CUT
66
1
70
0
0
VERTEX
8
CUT
10
20
20
92
0
VERTEX
8
CUT
10
11.4286
20
92
0
VERTEX
8
CUT
10
11.4286
20
100.5714
0
VERTEX
8
CUT
10
17.1429
20
100.5714
0
VERTEX
8
CUT
10
17.1429
20
94.8571
0
VERTEX
8
CUT
10
14.2857
20
94.8571
0
VERTEX
8
CUT
10
14.2857
20
97.7143
0
SEQEND
0
POLYLINE
8
CUT
66
1
70
0
0
VERTEX
8
CUT
10
30
20
102
0
VERTEX
8
CUT
10
30
20
93.4286
0
VERTEX
8
CUT
10
21.4286
20
93.4286
0
VERTEX
8
CUT
10
21.4286
20
99.1429
0
VERTEX
8
CUT
10
27.1429
20
99.1429
0
VERTEX
8
CUT
10
27.1429
20
96.2857
0
VERTEX
8
CUT
10
24.2857
20
96.2857
0
SEQEND
0
POLYLINE
8
CUT
66
1
70
0
0
VERTEX
8
CUT
10
20
20
92
0
VERTEX
8
CUT
10
20
20
100.5714
0
VERTEX
8
CUT
10
28.5714
20
100.5714
0
VERTEX
8
CUT
10
28.5714
20
94.8571
0
VERTEX
8
CUT
10
22.8571
20
94.8571
0
VERTEX
8
CUT
10
22.8571
20
97.7143
0
VERTEX
8
CUT
10
25.7143
20
97.7143
0
SEQEND
0
POLYLINE
8
CUT
66
1
70
0
0
VERTEX
8
CUT
10
30
20
102
0
VERTEX
8
CUT
10
38.5714
20
102
0
VERTEX
8
CUT
10
38.5714
20
93.4286
0
VERTEX
8
CUT
10
32.8571
20
93.4286
0
VERTEX
8
CUT
10
32.8571
20
99.1429
0
VERTEX
8
CUT
10
35.7143
20
99.1429
0
VERTEX
8
CUT
10
35.7143
20
96.2857
0
SEQEND
0
POLYLINE
8
CUT
66
1
70
0
0
VERTEX
8
CUT
10
40
20
92
0
VERTEX
8
CUT
10
31.4286
20
92
0
VERTEX
8
CUT
10
31.4286
20
100.5714
0
VERTEX
8
CUT
10
37.1429
20
100.5714
0
VERTEX
8
CUT
10
37.1429
20
94.8571
0
VERTEX
8
CUT
10
34.2857
20
94.8571
0
VERTEX
8
CUT
10
34.2857
20
97.7143
0
SEQEND
0
POLYLINE
8
CUT
66
1
70
0
0
VERTEX
8
CUT
10
50
20
102
0
VERTEX
8
CUT
10
50
20
93.4286
0
VERTEX
8
CUT
10
41.4286
20
93.4286
0
VERTEX
8
CUT
10
41.4286
20
99.1429
0
VERTEX
8
CUT
10
47.1429
20
99.1429
0
VERTEX
8
CUT
10
47.1429
20
96.2857
0
VERTEX
8
CUT
10
44.2857
20
96.2857
0
SEQEND
0
POLYLINE
8
CUT
66
1
70
0
0
VERTEX
8
CUT
10
40
20
92
0
VERTEX
8
CUT
10
40
20
100.5714
0
VERTEX
8
CUT
10
48.5714
20
100.5714
0
VERTEX
8
CUT
10
48.5714
20
94.8571
0
VERTEX
8
CUT
10
42.8571
20
94.8571
0
VERTEX
8
CUT
10
42.8571
20
97.7143
0
VERTEX
8
CUT
10
45.7143
20
97.7143
0
SEQEND
0
POLYLINE
8
CUT
66
1
70
0
0
VERTEX
8
CUT
10
50
20
102
0
VERTEX
8
CUT
10
58.5714
20
102
0
VERTEX
8
CUT
10
58.5714
20
93.4286
0
VERTEX
8
CUT
10
52.8571
20
93.4286
0
VERTEX
8
CUT
10
52.8571
20
99.1429
0
VERTEX
8
CUT
10
55.7143
20
99.1429
0
VERTEX
8
CUT
10
55.7143
20
96.2857
0
SEQEND
0
POLYLINE
8
CUT
66
1
70
0
0
VERTEX
8
CUT
10
60
20
92
0
VERTEX
8
CUT
10
51.4286
20
92
0
VERTEX
8
CUT
10
51.4286
20
100.5714
0
VERTEX
8
CUT
10
57.1429
20
100.5714
0
VERTEX
8
CUT
10
57.1429
20
94.8571
0
VERTEX
8
CUT
10
54.2857
20
94.8571
0
VERTEX
8
CUT
10
54.2857
20
97.7143
0
SEQEND
0
POLYLINE
8
CUT
66
1
70
0
0
VERTEX
8
CUT
10
20
20
92
0
VERTEX
8
CUT
10
20
20
83.4286
0
VERTEX
8
CUT
10
11.4286
20
83.4286
0
VERTEX
8
CUT
10
11.4286
20
89.1429
0
VERTEX
8
CUT
10
17.1429
20
89.1429
0
VERTEX
8
CUT
10
17.1429
20
86.2857
0
VERTEX
8
CUT
10
14.2857
20
86.2857
0
SEQEND
0
POLYLINE
8
CUT
66
1
70
0
0
VERTEX
8
CUT
10
10
20
82
0
VERTEX
8
CUT
10
10
20
90.5714
0
VERTEX
8
CUT
10
18.5714
20
90.5714
0
VERTEX
8
CUT
10
18.5714
20
84.8571
0
VERTEX
8
CUT
10
12.8571
20
84.8571
0
VERTEX
8
CUT
10
12.8571
20
87.7143
0
VERTEX
8
CUT
10
15.7143
20
87.7143
0
SEQEND
0
POLYLINE
8
CUT
66
1
70
0
0
VERTEX
8
CUT
10
20
20
92
0
VERTEX
8
CUT
10
28.5714
20
92
0
VERTEX
8
CUT
10
28.5714
20
83.4286
0
VERTEX
8
CUT
10
22.8571
20
83.4286
0
VERTEX
8
CUT
10
22.8571
20
89.1429
0
VERTEX
8
CUT
10
25.7143
20
89.1429
0
VERTEX
8
CUT
10
25.7143
20
86.2857
0
SEQEND
0
POLYLINE
8
CUT
66
1
70
0
0
VERTEX
8
CUT
10
30
20
82
0
VERTEX
8
CUT
10
21.4286
20
82
0
VERTEX
8
CUT
10
21.4286
20
90.5714
0
VERTEX
8
CUT
10
27.1429
20
90.5714
0
VERTEX
8
CUT
10
27.1429
20
84.8571
0
VERTEX
8
CUT
10
24.2857
20
84.8571
0
VERTEX
8
CUT
10
24.2857
20
87.7143
0
SEQEND
0
POLYLINE
8
CUT
66
1
70
0
0
VERTEX
8
CUT
10
40
20
92
0
VERTEX
8
CUT
10
40
20
83.4286
0
VERTEX
8
CUT
10
31.4286
20
83.4286
0
VERTEX
8
CUT
10
31.4286
20
89.1429
0
VERTEX
8
CUT
10
37.1429
20
89.1429
0
VERTEX
8
CUT
10
37.1429
20
86.2857
0
VERTEX
8
CUT
10
34.2857
20
86.2857
0
SEQEND
0
POLYLINE
8
CUT
66
1
70
0
0
VERTEX
8
CUT
10
30
20
82
0
VERTEX
8
CUT
10
30
20
90.5714
0
VERTEX
8
CUT
10
38.5714
20
90.5714
0
VERTEX
8
CUT
10
38.5714
20
84.8571
0
VERTEX
8
CUT
10
32.8571
20
84.8571
0
VERTEX
8
CUT
10
32.8571
20
87.7143
0
VERTEX
8
CUT
10
35.7143
20
87.7143
0
SEQEND
0
POLYLINE
8
CUT
66
1
70
0
0
VERTEX
8
CUT
10
40
20
92
0
VERTEX
8
CUT
10
48.5714
20
92
0
VERTEX
8
CUT
10
48.5714
20
83.4286
0
VERTEX
8
CUT
10
42.8571
20
83.4286
0
VERTEX
8
CUT
10
42.8571
20
89.1429
0
VERTEX
8
CUT
10
45.7143
20
89.1429
0
VERTEX
8
CUT
10
45.7143
20
86.2857
0
SEQEND
0
POLYLINE
8
CUT
66
1
70
0
0
VERTEX
8
CUT
10
50
20
82
0
VERTEX
8
CUT
10
41.4286
20
82
0
VERTEX
8
CUT
10
41.4286
20
90.5714
0
VERTEX
8
CUT
10
47.1429
20
90.5714
0
VERTEX
8
CUT
10
47.1429
20
84.8571
0
VERTEX
8
CUT
10
44.2857
20
84.8571
0
VERTEX
8
CUT
10
44.2857
20
87.7143
0
SEQEND
0
POLYLINE
8
CUT
66
1
70
0
0
VERTEX
8
CUT
10
60
20
92
0
VERTEX
8
CUT
10
60
20
83.4286
0
VERTEX
8
CUT
10
51.4286
20
83.4286
0
VERTEX
8
CUT
10
51.4286
20
89.1429
0
VERTEX
8
CUT
10
57.1429
20
89.1429
0
VERTEX
8
CUT
10
57.1429
20
86.2857
0
VERTEX
8
CUT
10
54.2857
20
86.2857
0
SEQEND
0
POLYLINE
8
CUT
66
1
70
0
0
VERTEX
8
CUT
10
50
20
82
0
VERTEX
8
CUT
10
50
20
90.5714
0
VERTEX
8
CUT
10
58.5714
20
90.5714
0
VERTEX
8
CUT
10
58.5714
20
84.8571
0
VERTEX
8
CUT
10
52.8571
20
84.8571
0
VERTEX
8
CUT
10
52.8571
20
87.7143
0
VERTEX
8
CUT
10
55.7143
20
87.7143
0
SEQEND
0
POLYLINE
8
CUT
66
1
70
0
0
VERTEX
8
CUT
10
10
20
82
0
VERTEX
8
CUT
10
18.5714
20
82
0
VERTEX
8
CUT
10
18.5714
20
73.4286
0
VERTEX
8
CUT
10
12.8571
20
73.4286
0
VERTEX
8
CUT
10
12.8571
20
79.1429
0
VERTEX
8
CUT
10
15.7143
20
79.1429
0
VERTEX
8
CUT
10
15.7143
20
76.2857
0
SEQEND
0
POLYLINE
8
CUT
66
1
70
0
0
VERTEX
8
CUT
10
20
20
72
0
VERTEX
8
CUT
10
11.4286
20
72
0
VERTEX
8
CUT
10
11.4286
20
80.5714
0
VERTEX
8
CUT
10
17.1429
20
80.5714
0
VERTEX
8
CUT
10
17.1429
20
74.8571
0
VERTEX
8
CUT
10
14.2857
20
74.8571
0
VERTEX
8
CUT
10
14.2857
20
77.7143
0
SEQEND
0
POLYLINE
8
CUT
66
1
70
0
0
VERTEX
8
CUT
10
30
20
82
0
VERTEX
8
CUT
10
30
20
73.4286
0
VERTEX
8
CUT
10
21.4286
20
73.4286
0
VERTEX
8
CUT
10
21.4286
20
79.1429
0
VERTEX
8
CUT
10
27.1429
20
79.1429
0
VERTEX
8
CUT
10
27.1429
20
76.2857
0
VERTEX
8
CUT
10
24.2857
20
76.2857
0
SEQEND
0
POLYLINE
8
CUT
66
1
70
0
0
VERTEX
8
CUT
10
20
20
72
0
VERTEX
8
CUT
10
20
20
80.5714
0
VERTEX
8
CUT
10
28.5714
20
80.5714
0
VERTEX
8
CUT
10
28.5714
20
74.8571
0
VERTEX
8
CUT
10
22.8571
20
74.8571
0
VERTEX
8
CUT
10
22.8571
20
77.7143
0
VERTEX
8
CUT
10
25.7143
20
77.7143
0
SEQEND
0
POLYLINE
8
CUT
66
1
70
0
0
VERTEX
8
CUT
10
30
20
82
0
VERTEX
8
CUT
10
38.5714
20
82
0
VERTEX
8
CUT
10
38.5714
20
73.4286
0
VERTEX
8
CUT
10
32.8571
20
73.4286
0
VERTEX
8
CUT
10
32.8571
20
79.1429
0
VERTEX
8
CUT
10
35.7143
20
79.1429
0
VERTEX
8
CUT
10
35.7143
20
76.2857
0
SEQEND
0
POLYLINE
8
CUT
66
1
70
0
0
VERTEX
8
CUT
10
40
20
72
0
VERTEX
8
CUT
10
31.4286
20
72
0
VERTEX
8
CUT
10
31.4286
20
80.5714
0
VERTEX
8
CUT
10
37.1429
20
80.5714
0
VERTEX
8
CUT
10
37.1429
20
74.8571
0
VERTEX
8
CUT
10
34.2857
20
74.8571
0
VERTEX
8
CUT
10
34.2857
20
77.7143
0
SEQEND
0
POLYLINE
8
CUT
66
1
70
0
0
VERTEX
8
CUT
10
50
20
82
0
VERTEX
8
CUT
10
50
20
73.4286
0
VERTEX
8
CUT
10
41.4286
20
73.4286
0
VERTEX
8
CUT
10
41.4286
20
79.1429
0
VERTEX
8
CUT
10
47.1429
20
79.1429
0
VERTEX
8
CUT
10
47.1429
20
76.2857
0
VERTEX
8
CUT
10
44.2857
20
76.2857
0
SEQEND
0
POLYLINE
8
CUT
66
1
70
0
0
VERTEX
8
CUT
10
40
20
72
0
VERTEX
8
CUT
10
40
20
80.5714
0
VERTEX
8
CUT
10
48.5714
20
80.5714
0
VERTEX
8
CUT
10
48.5714
20
74.8571
0
VERTEX
8
CUT
10
42.8571
20
74.8571
0
VERTEX
8
CUT
10
42.8571
20
77.7143
0
VERTEX
8
CUT
10
45.7143
20
77.7143
0
SEQEND
0
POLYLINE
8
CUT
66
1
70
0
0
VERTEX
8
CUT
10
50
20
82
0
VERTEX
8
CUT
10
58.5714
20
82
0
VERTEX
8
CUT
10
58.5714
20
73.4286
0
VERTEX
8
CUT
10
52.8571
20
73.4286
0
VERTEX
8
CUT
10
52.8571
20
79.1429
0
VERTEX
8
CUT
10
55.7143
20
79.1429
0
VERTEX
8
CUT
10
55.7143
20
76.2857
0
SEQEND
0
POLYLINE
8
CUT
66
1
70
0
0
VERTEX
8
CUT
10
60
20
72
0
VERTEX
8
CUT
10
51.4286
20
72
0
VERTEX
8
CUT
10
51.4286
20
80.5714
0
VERTEX
8
CUT
10
57.1429
20
80.5714
0
VERTEX
8
CUT
10
57.1429
20
74.8571
0
VERTEX
8
CUT
10
54.2857
20
74.8571
0
VERTEX
8
CUT
10
54.2857
20
77.7143
0
SEQEND
0
LINE
8
CUT
10
2.5
20
72
11
2.5
21
75
0
LINE
8
CUT
10
5
20
72
11
5
21
75
0
LINE
8
CUT
10
7.5
20
72
11
7.5
21
75
0
POLYLINE
8
CUT
66
1
70
0
0
VERTEX
8
CUT
10
0
20
66
0
VERTEX
8
CUT
10
70
20
66
0
VERTEX
8
CUT
10
70
20
36
0
VERTEX
8
CUT
10
0
20
36
0
VERTEX
8
CUT
10
0
20
66
0
SEQEND
0
POLYLINE
8
CUT
66
1
70
0
0
VERTEX
8
CUT
10
10
20
66
0
VERTEX
8
CUT
10
18.5714
20
66
0
VERTEX
8
CUT
10
18.5714
20
57.4286
0
VERTEX
8
CUT
10
12.8571
20
57.4286
0
VERTEX
8
CUT
10
12.8571
20
63.1429
0
VERTEX
8
CUT
10
15.7143
20
63.1429
0
VERTEX
8
CUT
10
15.7143
20
60.2857
0
SEQEND
0
POLYLINE
8
CUT
66
1
70
0
0
VERTEX
8
CUT
10
20
20
56
0
VERTEX
8
CUT
10
11.4286
20
56
0
VERTEX
8
CUT
10
11.4286
20
64.5714
0
VERTEX
8
CUT
10
17.1429
20
64.5714
0
VERTEX
8
CUT
10
17.1429
20
58.8571
0
VERTEX
8
CUT
10
14.2857
20
58.8571
0
VERTEX
8
CUT
10
14.2857
20
61.7143
0
SEQEND
0
POLYLINE
8
CUT
66
1
70
0
0
VERTEX
8
CUT
10
30
20
66
0
VERTEX
8
CUT
10
30
20
57.4286
0
VERTEX
8
CUT
10
21.4286
20
57.4286
0
VERTEX
8
CUT
10
21.4286
20
63.1429
0
VERTEX
8
CUT
10
27.1429
20
63.1429
0
VERTEX
8
CUT
10
27.1429
20
60.2857
0
VERTEX
8
CUT
10
24.2857
20
60.2857
0
SEQEND
0
POLYLINE
8
CUT
66
1
70
0
0
VERTEX
8
CUT
10
20
20
56
0
VERTEX
8
CUT
10
20
20
64.5714
0
VERTEX
8
CUT
10
28.5714
20
64.5714
0
VERTEX
8
CUT
10
28.5714
20
58.8571
0
VERTEX
8
CUT
10
22.8571
20
58.8571
0
VERTEX
8
CUT
10
22.8571
20
61.7143
0
VERTEX
8
CUT
10
25.7143
20
61.7143
0
SEQEND
0
POLYLINE
8
CUT
66
1
70
0
0
VERTEX
8
CUT
10
30
20
66
0
VERTEX
8
CUT
10
38.5714
20
66
0
VERTEX
8
CUT
10
38.5714
20
57.4286
0
VERTEX
8
CUT
10
32.8571
20
57.4286
0
VERTEX
8
CUT
10
32.8571
20
63.1429
0
VERTEX
8
CUT
10
35.7143
20
63.1429
0
VERTEX
8
CUT
10
35.7143
20
60.2857
0
SEQEND
0
POLYLINE
8
CUT
66
1
70
0
0
VERTEX
8
CUT
10
40
20
56
0
VERTEX
8
CUT
10
31.4286
20
56
0
VERTEX
8
CUT
10
31.4286
20
64.5714
0
VERTEX
8
CUT
10
37.1429
20
64.5714
0
VERTEX
8
CUT
10
37.1429
20
58.8571
0
VERTEX
8
CUT
10
34.2857
20
58.8571
0
VERTEX
8
CUT
10
34.2857
20
61.7143
0
SEQEND
0
POLYLINE
8
CUT
66
1
70
0
0
VERTEX
8
CUT
10
50
20
66
0
VERTEX
8
CUT
10
50
20
57.4286
0
VERTEX
8
CUT
10
41.4286
20
57.4286
0
VERTEX
8
CUT
10
41.4286
20
63.1429
0
VERTEX
8
CUT
10
47.1429
20
63.1429
0
VERTEX
8
CUT
10
47.1429
20
60.2857
0
VERTEX
8
CUT
10
44.2857
20
60.2857
0
SEQEND
0
POLYLINE
8
CUT
66
1
70
0
0
VERTEX
8
CUT
10
40
20
56
0
VERTEX
8
CUT
10
40
20
64.5714
0
VERTEX
8
CUT
10
48.5714
20
64.5714
0
VERTEX
8
CUT
10
48.5714
20
58.8571
0
VERTEX
8
CUT
10
42.8571
20
58.8571
0
VERTEX
8
CUT
10
42.8571
20
61.7143
0
VERTEX
8
CUT
10
45.7143
20
61.7143
0
SEQEND
0
POLYLINE
8
CUT
66
1
70
0
0
VERTEX
8
CUT
10
50
20
66
0
VERTEX
8
CUT
10
58.5714
20
66
0
VERTEX
8
CUT
10
58.5714
20
57.4286
0
VERTEX
8
CUT
10
52.8571
20
57.4286
0
VERTEX
8
CUT
10
52.8571
20
63.1429
0
VERTEX
8
CUT
10
55.7143
20
63.1429
0
VERTEX
8
CUT
10
55.7143
20
60.2857
0
SEQEND
0
POLYLINE
8
CUT
66
1
70
0
0
VERTEX
8
CUT
10
60
20
56
0
VERTEX
8
CUT
10
51.4286
20
56
0
VERTEX
8
CUT
10
51.4286
20
64.5714
0
VERTEX
8
CUT
10
57.1429
20
64.5714
0
VERTEX
8
CUT
10
57.1429
20
58.8571
0
VERTEX
8
CUT
10
54.2857
20
58.8571
0
VERTEX
8
CUT
10
54.2857
20
61.7143
0
SEQEND
0
POLYLINE
8
CUT
66
1
70
0
0
VERTEX
8
CUT
10
20
20
56
0
VERTEX
8
CUT
10
20
20
47.4286
0
VERTEX
8
CUT
10
11.4286
20
47.4286
0
VERTEX
8
CUT
10
11.4286
20
53.1429
0
VERTEX
8
CUT
10
17.1429
20
53.1429
0
VERTEX
8
CUT
10
17.1429
20
50.2857
0
VERTEX
8
CUT
10
14.2857
20
50.2857
0
SEQEND
0
POLYLINE
8
CUT
66
1
70
0
0
VERTEX
8
CUT
10
10
20
46
0
VERTEX
8
CUT
10
10
20
54.5714
0
VERTEX
8
CUT
10
18.5714
20
54.5714
0
VERTEX
8
CUT
10
18.5714
20
48.8571
0
VERTEX
8
CUT
10
12.8571
20
48.8571
0
VERTEX
8
CUT
10
12.8571
20
51.7143
0
VERTEX
8
CUT
10
15.7143
20
51.7143
0
SEQEND
0
POLYLINE
8
CUT
66
1
70
0
0
VERTEX
8
CUT
10
20
20
56
0
VERTEX
8
CUT
10
28.5714
20
56
0
VERTEX
8
CUT
10
28.5714
20
47.4286
0
VERTEX
8
CUT
10
22.8571
20
47.4286
0
VERTEX
8
CUT
10
22.8571
20
53.1429
0
VERTEX
8
CUT
10
25.7143
20
53.1429
0
VERTEX
8
CUT
10
25.7143
20
50.2857
0
SEQEND
0
POLYLINE
8
CUT
66
1
70
0
0
VERTEX
8
CUT
10
30
20
46
0
VERTEX
8
CUT
10
21.4286
20
46
0
VERTEX
8
CUT
10
21.4286
20
54.5714
0
VERTEX
8
CUT
10
27.1429
20
54.5714
0
VERTEX
8
CUT
10
27.1429
20
48.8571
0
VERTEX
8
CUT
10
24.2857
20
48.8571
0
VERTEX
8
CUT
10
24.2857
20
51.7143
0
SEQEND
0
POLYLINE
8
CUT
66
1
70
0
0
VERTEX
8
CUT
10
40
20
56
0
VERTEX
8
CUT
10
40
20
47.4286
0
VERTEX
8
CUT
10
31.4286
20
47.4286
0
VERTEX
8
CUT
10
31.4286
20
53.1429
0
VERTEX
8
CUT
10
37.1429
20
53.1429
0
VERTEX
8
CUT
10
37.1429
20
50.2857
0
VERTEX
8
CUT
10
34.2857
20
50.2857
0
SEQEND
0
POLYLINE
8
CUT
66
1
70
0
0
VERTEX
8
CUT
10
30
20
46
0
VERTEX
8
CUT
10
30
20
54.5714
0
VERTEX
8
CUT
10
38.5714
20
54.5714
0
VERTEX
8
CUT
10
38.5714
20
48.8571
0
VERTEX
8
CUT
10
32.8571
20
48.8571
0
VERTEX
8
CUT
10
32.8571
20
51.7143
0
VERTEX
8
CUT
10
35.7143
20
51.7143
0
SEQEND
0
POLYLINE
8
CUT
66
1
70
0
0
VERTEX
8
CUT
10
40
20
56
0
VERTEX
8
CUT
10
48.5714
20
56
0
VERTEX
8
CUT
10
48.5714
20
47.4286
0
VERTEX
8
CUT
10
42.8571
20
47.4286
0
VERTEX
8
CUT
10
42.8571
20
53.1429
0
VERTEX
8
CUT
10
45.7143
20
53.1429
0
VERTEX
8
CUT
10
45.7143
20
50.2857
0
SEQEND
0
POLYLINE
8
CUT
66
1
70
0
0
VERTEX
8
CUT
10
50
20
46
0
VERTEX
8
CUT
10
41.4286
20
46
0
VERTEX
8
CUT
10
41.4286
20
54.5714
0
VERTEX
8
CUT
10
47.1429
20
54.5714
0
VERTEX
8
CUT
10
47.1429
20
48.8571
0
VERTEX
8
CUT
10
44.2857
20
48.8571
0
VERTEX
8
CUT
10
44.2857
20
51.7143
0
SEQEND
0
POLYLINE
8
CUT
66
1
70
0
0
VERTEX
8
CUT
10
60
20
56
0
VERTEX
8
CUT
10
60
20
47.4286
0
VERTEX
8
CUT
10
51.4286
20
47.4286
0
VERTEX
8
CUT
10
51.4286
20
53.1429
0
VERTEX
8
CUT
10
57.1429
20
53.1429
0
VERTEX
8
CUT
10
57.1429
20
50.2857
0
VERTEX
8
CUT
10
54.2857
20
50.2857
0
SEQEND
0
POLYLINE
8
CUT
66
1
70
0
0
VERTEX
8
CUT
10
50
20
46
0
VERTEX
8
CUT
10
50
20
54.5714
0
VERTEX
8
CUT
10
58.5714
20
54.5714
0
VERTEX
8
CUT
10
58.5714
20
48.8571
0
VERTEX
8
CUT
10
52.8571
20
48.8571
0
VERTEX
8
CUT
10
52.8571
20
51.7143
0
VERTEX
8
CUT
10
55.7143
20
51.7143
0
SEQEND
0
POLYLINE
8
CUT
66
1
70
0
0
VERTEX
8
CUT
10
10
20
46
0
VERTEX
8
CUT
10
18.5714
20
46
0
VERTEX
8
CUT
10
18.5714
20
37.4286
0
VERTEX
8
CUT
10
12.8571
20
37.4286
0
VERTEX
8
CUT
10
12.8571
20
43.1429
0
VERTEX
8
CUT
10
15.7143
20
43.1429
0
VERTEX
8
CUT
10
15.7143
20
40.2857
0
SEQEND
0
POLYLINE
8
CUT
66
1
70
0
0
VERTEX
8
CUT
10
20
20
36
0
VERTEX
8
CUT
10
11.4286
20
36
0
VERTEX
8
CUT
10
11.4286
20
44.5714
0
VERTEX
8
CUT
10
17.1429
20
44.5714
0
VERTEX
8
CUT
10
17.1429
20
38.8571
0
VERTEX
8
CUT
10
14.2857
20
38.8571
0
VERTEX
8
CUT
10
14.2857
20
41.7143
0
SEQEND
0
POLYLINE
8
CUT
66
1
70
0
0
VERTEX
8
CUT
10
30
20
46
0
VERTEX
8
CUT
10
30
20
37.4286
0
VERTEX
8
CUT
10
21.4286
20
37.4286
0
VERTEX
8
CUT
10
21.4286
20
43.1429
0
VERTEX
8
CUT
10
27.1429
20
43.1429
0
VERTEX
8
CUT
10
27.1429
20
40.2857
0
VERTEX
8
CUT
10
24.2857
20
40.2857
0
SEQEND
0
POLYLINE
8
CUT
66
1
70
0
0
VERTEX
8
CUT
10
20
20
36
0
VERTEX
8
CUT
10
20
20
44.5714
0
VERTEX
8
CUT
10
28.5714
20
44.5714
0
VERTEX
8
CUT
10
28.5714
20
38.8571
0
VERTEX
8
CUT
10
22.8571
20
38.8571
0
VERTEX
8
CUT
10
22.8571
20
41.7143
0
VERTEX
8
CUT
10
25.7143
20
41.7143
0
SEQEND
0
POLYLINE
8
CUT
66
1
70
0
0
VERTEX
8
CUT
10
30
20
46
0
VERTEX
8
CUT
10
38.5714
20
46
0
VERTEX
8
CUT
10
38.5714
20
37.4286
0
VERTEX
8
CUT
10
32.8571
20
37.4286
0
VERTEX
8
CUT
10
32.8571
20
43.1429
0
VERTEX
8
CUT
10
35.7143
20
43.1429
0
VERTEX
8
CUT
10
35.7143
20
40.2857
0
SEQEND
0
POLYLINE
8
CUT
66
1
70
0
0
VERTEX
8
CUT
10
40
20
36
0
VERTEX
8
CUT
10
31.4286
20
36
0
VERTEX
8
CUT
10
31.4286
20
44.5714
0
VERTEX
8
CUT
10
37.1429
20
44.5714
0
VERTEX
8
CUT
10
37.1429
20
38.8571
0
VERTEX
8
CUT
10
34.2857
20
38.8571
0
VERTEX
8
CUT
10
34.2857
20
41.7143
0
SEQEND
0
POLYLINE
8
CUT
66
1
70
0
0
VERTEX
8
CUT
10
50
20
46
0
VERTEX
8
CUT
10
50
20
37.4286
0
VERTEX
8
CUT
10
41.4286
20
37.4286
0
VERTEX
8
CUT
10
41.4286
20
43.1429
0
VERTEX
8
CUT
10
47.1429
20
43.1429
0
VERTEX
8
CUT
10
47.1429
20
40.2857
0
VERTEX
8
CUT
10
44.2857
20
40.2857
0
SEQEND
0
POLYLINE
8
CUT
66
1
70
0
0
VERTEX
8
CUT
10
40
20
36
0
VERTEX
8
CUT
10
40
20
44.5714
0
VERTEX
8
CUT
10
48.5714
20
44.5714
0
VERTEX
8
CUT
10
48.5714
20
38.8571
0
VERTEX
8
CUT
10
42.8571
20
38.8571
0
VERTEX
8
CUT
10
42.8571
20
41.7143
0
VERTEX
8
CUT
10
45.7143
20
41.7143
0
SEQEND
0
POLYLINE
8
CUT
66
1
70
0
0
VERTEX
8
CUT
10
50
20
46
0
VERTEX
8
CUT
10
58.5714
20
46
0
VERTEX
8
CUT
10
58.5714
20
37.4286
0
VERTEX
8
CUT
10
52.8571
20
37.4286
0
VERTEX
8
CUT
10
52.8571
20
43.1429
0
VERTEX
8
CUT
10
55.7143
20
43.1429
0
VERTEX
8
CUT
10
55.7143
20
40.2857
0
SEQEND
0
POLYLINE
8
CUT
66
1
70
0
0
VERTEX
8
CUT
10
60
20
36
0
VERTEX
8
CUT
10
51.4286
20
36
0
VERTEX
8
CUT
10
51.4286
20
44.5714
0
VERTEX
8
CUT
10
57.1429
20
44.5714
0
VERTEX
8
CUT
10
57.1429
20
38.8571
0
VERTEX
8
CUT
10
54.2857
20
38.8571
0
VERTEX
8
CUT
10
54.2857
20
41.7143
0
SEQEND
0
LINE
8
CUT
10
2.5
20
36
11
2.5
21
39
0
LINE
8
CUT
10
5
20
36
11
5
21
39
0
LINE
8
CUT
10
7.5
20
36
11
7.5
21
39
0
LINE
8
CUT
10
10
20
36
11
10
21
39
0
POLYLINE
8
CUT
66
1
70
0
0
VERTEX
8
CUT
10
0
20
30
0
VERTEX
8
CUT
10
70
20
30
0
VERTEX
8
CUT
10
70
20
0
0
VERTEX
8
CUT
10
0
20
0
0
VERTEX
8
CUT
10
0
20
30
0
SEQEND
0
POLYLINE
8
CUT
66
1
70
0
0
VERTEX
8
CUT
10
10
20
30
0
VERTEX
8
CUT
10
18
20
30
0
VERTEX
8
CUT
10
18
20
22
0
VERTEX
8
CUT
10
14
20
22
0
VERTEX
8
CUT
10
14
20
26
0
SEQEND
0
POLYLINE
8
CUT
66
1
70
0
0
VERTEX
8
CUT
10
20
20
20
0
VERTEX
8
CUT
10
12
20
20
0
VERTEX
8
CUT
10
12
20
28
0
VERTEX
8
CUT
10
16
20
28
0
VERTEX
8
CUT
10
16
20
24
0
SEQEND
0
POLYLINE
8
CUT
66
1
70
0
0
VERTEX
8
CUT
10
30
20
30
0
VERTEX
8
CUT
10
30
20
22
0
VERTEX
8
CUT
10
22
20
22
0
VERTEX
8
CUT
10
22
20
26
0
VERTEX
8
CUT
10
26
20
26
0
SEQEND
0
POLYLINE
8
CUT
66
1
70
0
0
VERTEX
8
CUT
10
20
20
20
0
VERTEX
8
CUT
10
20
20
28
0
VERTEX
8
CUT
10
28
20
28
0
VERTEX
8
CUT
10
28
20
24
0
VERTEX
8
CUT
10
24
20
24
0
SEQEND
0
POLYLINE
8
CUT
66
1
70
0
0
VERTEX
8
CUT
10
30
20
30
0
VERTEX
8
CUT
10
38
20
30
0
VERTEX
8
CUT
10
38
20
22
0
VERTEX
8
CUT
10
34
20
22
0
VERTEX
8
CUT
10
34
20
26
0
SEQEND
0
POLYLINE
8
CUT
66
1
70
0
0
VERTEX
8
CUT
10
40
20
20
0
VERTEX
8
CUT
10
32
20
20
0
VERTEX
8
CUT
10
32
20
28
0
VERTEX
8
CUT
10
36
20
28
0
VERTEX
8
CUT
10
36
20
24
0
SEQEND
0
POLYLINE
8
CUT
66
1
70
0
0
VERTEX
8
CUT
10
50
20
30
0
VERTEX
8
CUT
10
50
20
22
0
VERTEX
8
CUT
10
42
20
22
0
VERTEX
8
CUT
10
42
20
26
0
VERTEX
8
CUT
10
46
20
26
0
SEQEND
0
POLYLINE
8
CUT
66
1
70
0
0
VERTEX
8
CUT
10
40
20
20
0
VERTEX
8
CUT
10
40
20
28
0
VERTEX
8
CUT
10
48
20
28
0
VERTEX
8
CUT
10
48
20
24
0
VERTEX
8
CUT
10
44
20
24
0
SEQEND
0
POLYLINE
8
CUT
66
1
70
0
0
VERTEX
8
CUT
10
50
20
30
0
VERTEX
8
CUT
10
58
20
30
0
VERTEX
8
CUT
10
58
20
22
0
VERTEX
8
CUT
10
54
20
22
0
VERTEX
8
CUT
10
54
20
26
0
SEQEND
0
POLYLINE
8
CUT
66
1
70
0
0
VERTEX
8
CUT
10
60
20
20
0
VERTEX
8
CUT
10
52
20
20
0
VERTEX
8
CUT
10
52
20
28
0
VERTEX
8
CUT
10
56
20
28
0
VERTEX
8
CUT
10
56
20
24
0
SEQEND
0
POLYLINE
8
CUT
66
1
70
0
0
VERTEX
8
CUT
10
20
20
20
0
VERTEX
8
CUT
10
20
20
12
0
VERTEX
8
CUT
10
12
20
12
0
VERTEX
8
CUT
10
12
20
16
0
VERTEX
8
CUT
10
16
20
16
0
SEQEND
0
POLYLINE
8
CUT
66
1
70
0
0
VERTEX
8
CUT
10
10
20
10
0
VERTEX
8
CUT
10
10
20
18
0
VERTEX
8
CUT
10
18
20
18
0
VERTEX
8
CUT
10
18
20
14
0
VERTEX
8
CUT
10
14
20
14
0
SEQEND
0
POLYLINE
8
CUT
66
1
70
0
0
VERTEX
8
CUT
10
20
20
20
0
VERTEX
8
CUT
10
28
20
20
0
VERTEX
8
CUT
10
28
20
12
0
VERTEX
8
CUT
10
24
20
12
0
VERTEX
8
CUT
10
24
20
16
0
SEQEND
0
POLYLINE
8
CUT
66
1
70
0
0
VERTEX
8
CUT
10
30
20
10
0
VERTEX
8
CUT
10
22
20
10
0
VERTEX
8
CUT
10
22
20
18
0
VERTEX
8
CUT
10
26
20
18
0
VERTEX
8
CUT
10
26
20
14
0
SEQEND
0
POLYLINE
8
CUT
66
1
70
0
0
VERTEX
8
CUT
10
40
20
20
0
VERTEX
8
CUT
10
40
20
12
0
VERTEX
8
CUT
10
32
20
12
0
VERTEX
8
CUT
10
32
20
16
0
VERTEX
8
CUT
10
36
20
16
0
SEQEND
0
POLYLINE
8
CUT
66
1
70
0
0
VERTEX
8
CUT
10
30
20
10
0
VERTEX
8
CUT
10
30
20
18
0
VERTEX
8
CUT
10
38
20
18
0
VERTEX
8
CUT
10
38
20
14
0
VERTEX
8
CUT
10
34
20
14
0
SEQEND
0
POLYLINE
8
CUT
66
1
70
0
0
VERTEX
8
CUT
10
40
20
20
0
VERTEX
8
CUT
10
48
20
20
0
VERTEX
8
CUT
10
48
20
12
0
VERTEX
8
CUT
10
44
20
12
0
VERTEX
8
CUT
10
44
20
16
0
SEQEND
0
POLYLINE
8
CUT
66
1
70
0
0
VERTEX
8
CUT
10
50
20
10
0
VERTEX
8
CUT
10
42
20
10
0
VERTEX
8
CUT
10
42
20
18
0
VERTEX
8
CUT
10
46
20
18
0
VERTEX
8
CUT
10
46
20
14
0
SEQEND
0
POLYLINE
8
CUT
66
1
70
0
0
VERTEX
8
CUT
10
60
20
20
0
VERTEX
8
CUT
10
60
20
12
0
VERTEX
8
CUT
10
52
20
12
0
VERTEX
8
CUT
10
52
20
16
0
VERTEX
8
CUT
10
56
20
16
0
SEQEND
0
POLYLINE
8
CUT
66
1
70
0
0
VERTEX
8
CUT
10
50
20
10
0
VERTEX
8
CUT
10
50
20
18
0
VERTEX
8
CUT
10
58
20
18
0
VERTEX
8
CUT
10
58
20
14
0
VERTEX
8
CUT
10
54
20
14
0
SEQEND
0
POLYLINE
8
CUT
66
1
70
0
0
VERTEX
8
CUT
10
10
20
10
0
VERTEX
8
CUT
10
18
20
10
0
VERTEX
8
CUT
10
18
20
2
0
VERTEX
8
CUT
10
14
20
2
0
VERTEX
8
CUT
10
14
20
6
0
SEQEND
0
POLYLINE
8
CUT
66
1
70
0
0
VERTEX
8
CUT
10
20
20
0
0
VERTEX
8
CUT
10
12
20
0
0
VERTEX
8
CUT
10
12
20
8
0
VERTEX
8
CUT
10
16
20
8
0
VERTEX
8
CUT
10
16
20
4
0
SEQEND
0
POLYLINE
8
CUT
66
1
70
0
0
VERTEX
8
CUT
10
30
20
10
0
VERTEX
8
CUT
10
30
20
2
0
VERTEX
8
CUT
10
22
20
2
0
VERTEX
8
CUT
10
22
20
6
0
VERTEX
8
CUT
10
26
20
6
0
SEQEND
0
POLYLINE
8
CUT
66
1
70
0
0
VERTEX
8
CUT
10
20
20
0
0
VERTEX
8
CUT
10
20
20
8
0
VERTEX
8
CUT
10
28
20
8
0
VERTEX
8
CUT
10
28
20
4
0
VERTEX
8
CUT
10
24
20
4
0
SEQEND
0
POLYLINE
8
CUT
66
1
70
0
0
VERTEX
8
CUT
10
30
20
10
0
VERTEX
8
CUT
10
38
20
10
0
VERTEX
8
CUT
10
38
20
2
0
VERTEX
8
CUT
10
34
20
2
0
VERTEX
8
CUT
10
34
20
6
0
SEQEND
0
POLYLINE
8
CUT
66
1
70
0
0
VERTEX
8
CUT
10
40
20
0
0
VERTEX
8
CUT
10
32
20
0
0
VERTEX
8
CUT
10
32
20
8
0
VERTEX
8
CUT
10
36
20
8
0
VERTEX
8
CUT
10
36
20
4
0
SEQEND
0
POLYLINE
8
CUT
66
1
70
0
0
VERTEX
8
CUT
10
50
20
10
0
VERTEX
8
CUT
10
50
20
2
0
VERTEX
8
CUT
10
42
20
2
0
VERTEX
8
CUT
10
42
20
6
0
VERTEX
8
CUT
10
46
20
6
0
SEQEND
0
POLYLINE
8
CUT
66
1
70
0
0
VERTEX
8
CUT
10
40
20
0
0
VERTEX
8
CUT
10
40
20
8
0
VERTEX
8
CUT
10
48
20
8
0
VERTEX
8
CUT
10
48
20
4
0
VERTEX
8
CUT
10
44
20
4
0
SEQEND
0
POLYLINE
8
CUT
66
1
70
0
0
VERTEX
8
CUT
10
50
20
10
0
VERTEX
8
CUT
10
58
20
10
0
VERTEX
8
CUT
10
58
20
2
0
VERTEX
8
CUT
10
54
20
2
0
VERTEX
8
CUT
10
54
20
6
0
SEQEND
0
POLYLINE
8
CUT
66
1
70
0
0
VERTEX
8
CUT
10
60
20
0
0
VERTEX
8
CUT
10
52
20
0
0
VERTEX
8
CUT
10
52
20
8
0
VERTEX
8
CUT
10
56
20
8
0
VERTEX
8
CUT
10
56
20
4
0
SEQEND
0
LINE
8
CUT
10
2.5
20
0
11
2.5
21
3
0
LINE
8
CUT
10
5
20
0
11
5
21
3
0
LINE
8
CUT
10
7.5
20
0
11
7.5
21
3
0
LINE
8
CUT
10
10
20
0
11
10
21
3
0
LINE
8
CUT
10
12.5
20
0
11
12.5
21
3
0
ENDSEC
0
EOF
