0
SECTION
2
HEADER
9
$ACADVER
1
AC1009
9
$INSUNITS
70
4
0
ENDSEC
0
SECTION
2
TABLES
0
TABLE
2
LAYER
70
1
0
LAYER
2
CUT
70
0
62
1
6
CONTINUOUS
0
ENDTAB
0
ENDSEC
0
SECTION
2
ENTITIES
0
POLYLINE
8
CUT
66
1
70
0
0
VERTEX
8
CUT
10
0
20
174
0
VERTEX
8
CUT
10
70
20
174
0
VERTEX
8
CUT
10
70
20
144
0
VERTEX
8
CUT
10
0
20
144
0
VERTEX
8
CUT
10
0
20
174
0
SEQEND
0
LINE
8
CUT
10
8.604
20
173.8641
11
8
21
173.0272
0
LINE
8
CUT
10
9.2188
20
173.0532
11
8
21
171.3644
0
LINE
8
CUT
10
8.604
20
166.1359
11
8
21
165.299
0
LINE
8
CUT
10
8
20
166.9728
11
8.604
21
166.1359
0
LINE
8
CUT
10
9.2188
20
165.325
11
8
21
163.6362
0
LINE
8
CUT
10
8
20
168.6356
11
9.304
21
166.8287
0
LINE
8
CUT
10
8.604
20
158.4077
11
8
21
157.5708
0
LINE
8
CUT
10
8
20
159.2446
11
8.604
21
158.4077
0
LINE
8
CUT
10
9.2188
20
157.5968
11
8
21
155.908
0
LINE
8
CUT
10
8
20
160.9074
11
9.304
21
159.1005
0
LINE
8
CUT
10
8.604
20
150.6795
11
8
21
149.8426
0
LINE
8
CUT
10
8
20
151.5164
11
8.604
21
150.6795
0
LINE
8
CUT
10
9.2188
20
149.8686
11
8
21
148.1798
0
LINE
8
CUT
10
8
20
153.1792
11
9.304
21
151.3723
0
LINE
8
CUT
10
8
20
145.451
11
9.0472
21
144
0
POLYLINE
8
CUT
66
1
70
0
0
VERTEX
8
CUT
10
16.8
20
170
0
VERTEX
8
CUT
10
14.9
20
167.3673
0
VERTEX
8
CUT
10
11.1
20
167.3673
0
VERTEX
8
CUT
10
9.2
20
170
0
VERTEX
8
CUT
10
11.1
20
172.6327
0
VERTEX
8
CUT
10
14.9
20
172.6327
0
VERTEX
8
CUT
10
16.8
20
170
0
SEQEND
0
POLYLINE
8
CUT
66
1
70
0
0
VERTEX
8
CUT
10
17.4148
20
169.1891
0
VERTEX
8
CUT
10
15.5
20
166.5359
0
VERTEX
8
CUT
10
11.6704
20
166.5359
0
SEQEND
0
POLYLINE
8
CUT
66
1
70
0
0
VERTEX
8
CUT
10
9.9148
20
167.3468
0
VERTEX
8
CUT
10
8
20
170
0
VERTEX
8
CUT
10
9.9148
20
172.6532
0
SEQEND
0
POLYLINE
8
CUT
66
1
70
0
0
VERTEX
8
CUT
10
11.5
20
173.4641
0
VERTEX
8
CUT
10
15.5
20
173.4641
0
VERTEX
8
CUT
10
17.5
20
170.6928
0
SEQEND
0
POLYLINE
8
CUT
66
1
70
0
0
VERTEX
8
CUT
10
16.8
20
162.2718
0
VERTEX
8
CUT
10
14.9
20
159.6391
0
VERTEX
8
CUT
10
11.1
20
159.6391
0
VERTEX
8
CUT
10
9.2
20
162.2718
0
VERTEX
8
CUT
10
11.1
20
164.9045
0
VERTEX
8
CUT
10
14.9
20
164.9045
0
VERTEX
8
CUT
10
16.8
20
162.2718
0
SEQEND
0
POLYLINE
8
CUT
66
1
70
0
0
VERTEX
8
CUT
10
17.4148
20
161.4609
0
VERTEX
8
CUT
10
15.5
20
158.8077
0
VERTEX
8
CUT
10
11.6704
20
158.8077
0
SEQEND
0
POLYLINE
8
CUT
66
1
70
0
0
VERTEX
8
CUT
10
9.9148
20
159.6186
0
VERTEX
8
CUT
10
8
20
162.2718
0
VERTEX
8
CUT
10
9.9148
20
164.925
0
SEQEND
0
POLYLINE
8
CUT
66
1
70
0
0
VERTEX
8
CUT
10
11.5
20
165.7359
0
VERTEX
8
CUT
10
15.5
20
165.7359
0
VERTEX
8
CUT
10
17.5
20
162.9646
0
SEQEND
0
POLYLINE
8
CUT
66
1
70
0
0
VERTEX
8
CUT
10
16.8
20
154.5436
0
VERTEX
8
CUT
10
14.9
20
151.9109
0
VERTEX
8
CUT
10
11.1
20
151.9109
0
VERTEX
8
CUT
10
9.2
20
154.5436
0
VERTEX
8
CUT
10
11.1
20
157.1763
0
VERTEX
8
CUT
10
14.9
20
157.1763
0
VERTEX
8
CUT
10
16.8
20
154.5436
0
SEQEND
0
POLYLINE
8
CUT
66
1
70
0
0
VERTEX
8
CUT
10
17.4148
20
153.7327
0
VERTEX
8
CUT
10
15.5
20
151.0795
0
VERTEX
8
CUT
10
11.6704
20
151.0795
0
SEQEND
0
POLYLINE
8
CUT
66
1
70
0
0
VERTEX
8
CUT
10
9.9148
20
151.8904
0
VERTEX
8
CUT
10
8
20
154.5436
0
VERTEX
8
CUT
10
9.9148
20
157.1968
0
SEQEND
0
POLYLINE
8
CUT
66
1
70
0
0
VERTEX
8
CUT
10
11.5
20
158.0077
0
VERTEX
8
CUT
10
15.5
20
158.0077
0
VERTEX
8
CUT
10
17.5
20
155.2364
0
SEQEND
0
POLYLINE
8
CUT
66
1
70
0
0
VERTEX
8
CUT
10
16.8
20
146.8154
0
VERTEX
8
CUT
10
14.9
20
144.1827
0
VERTEX
8
CUT
10
11.1
20
144.1827
0
VERTEX
8
CUT
10
9.2
20
146.8154
0
VERTEX
8
CUT
10
11.1
20
149.4481
0
VERTEX
8
CUT
10
14.9
20
149.4481
0
VERTEX
8
CUT
10
16.8
20
146.8154
0
SEQEND
0
LINE
8
CUT
10
17.4148
20
146.0045
11
15.9682
21
144
0
POLYLINE
8
CUT
66
1
70
0
0
VERTEX
8
CUT
10
9.9148
20
144.1622
0
VERTEX
8
CUT
10
8
20
146.8154
0
VERTEX
8
CUT
10
9.9148
20
149.4686
0
SEQEND
0
POLYLINE
8
CUT
66
1
70
0
0
VERTEX
8
CUT
10
11.5
20
150.2795
0
VERTEX
8
CUT
10
15.5
20
150.2795
0
VERTEX
8
CUT
10
17.5
20
147.5082
0
SEQEND
0
POLYLINE
8
CUT
66
1
70
0
0
VERTEX
8
CUT
10
24.996
20
173.8641
0
VERTEX
8
CUT
10
23.096
20
171.2314
0
VERTEX
8
CUT
10
19.296
20
171.2314
0
VERTEX
8
CUT
10
17.396
20
173.8641
0
VERTEX
8
CUT
10
17.4941
20
174
0
SEQEND
0
POLYLINE
8
CUT
66
1
70
0
0
VERTEX
8
CUT
10
25.6108
20
173.0532
0
VERTEX
8
CUT
10
23.696
20
170.4
0
VERTEX
8
CUT
10
19.8664
20
170.4
0
SEQEND
0
POLYLINE
8
CUT
66
1
70
0
0
VERTEX
8
CUT
10
18.1108
20
171.2109
0
VERTEX
8
CUT
10
16.196
20
173.8641
0
VERTEX
8
CUT
10
16.2941
20
174
0
SEQEND
0
POLYLINE
8
CUT
66
1
70
0
0
VERTEX
8
CUT
10
24.996
20
166.1359
0
VERTEX
8
CUT
10
23.096
20
163.5032
0
VERTEX
8
CUT
10
19.296
20
163.5032
0
VERTEX
8
CUT
10
17.396
20
166.1359
0
VERTEX
8
CUT
10
19.296
20
168.7686
0
VERTEX
8
CUT
10
23.096
20
168.7686
0
VERTEX
8
CUT
10
24.996
20
166.1359
0
SEQEND
0
POLYLINE
8
CUT
66
1
70
0
0
VERTEX
8
CUT
10
25.6108
20
165.325
0
VERTEX
8
CUT
10
23.696
20
162.6718
0
VERTEX
8
CUT
10
19.8664
20
162.6718
0
SEQEND
0
POLYLINE
8
CUT
66
1
70
0
0
VERTEX
8
CUT
10
18.1108
20
163.4827
0
VERTEX
8
CUT
10
16.196
20
166.1359
0
VERTEX
8
CUT
10
18.1108
20
168.7891
0
SEQEND
0
POLYLINE
8
CUT
66
1
70
0
0
VERTEX
8
CUT
10
19.696
20
169.6
0
VERTEX
8
CUT
10
23.696
20
169.6
0
VERTEX
8
CUT
10
25.696
20
166.8287
0
SEQEND
0
POLYLINE
8
CUT
66
1
70
0
0
VERTEX
8
CUT
10
24.996
20
158.4077
0
VERTEX
8
CUT
10
23.096
20
155.775
0
VERTEX
8
CUT
10
19.296
20
155.775
0
VERTEX
8
CUT
10
17.396
20
158.4077
0
VERTEX
8
CUT
10
19.296
20
161.0404
0
VERTEX
8
CUT
10
23.096
20
161.0404
0
VERTEX
8
CUT
10
24.996
20
158.4077
0
SEQEND
0
POLYLINE
8
CUT
66
1
70
0
0
VERTEX
8
CUT
10
25.6108
20
157.5968
0
VERTEX
8
CUT
10
23.696
20
154.9436
0
VERTEX
8
CUT
10
19.8664
20
154.9436
0
SEQEND
0
POLYLINE
8
CUT
66
1
70
0
0
VERTEX
8
CUT
10
18.1108
20
155.7545
0
VERTEX
8
CUT
10
16.196
20
158.4077
0
VERTEX
8
CUT
10
18.1108
20
161.0609
0
SEQEND
0
POLYLINE
8
CUT
66
1
70
0
0
VERTEX
8
CUT
10
19.696
20
161.8718
0
VERTEX
8
CUT
10
23.696
20
161.8718
0
VERTEX
8
CUT
10
25.696
20
159.1005
0
SEQEND
0
POLYLINE
8
CUT
66
1
70
0
0
VERTEX
8
CUT
10
24.996
20
150.6795
0
VERTEX
8
CUT
10
23.096
20
148.0468
0
VERTEX
8
CUT
10
19.296
20
148.0468
0
VERTEX
8
CUT
10
17.396
20
150.6795
0
VERTEX
8
CUT
10
19.296
20
153.3122
0
VERTEX
8
CUT
10
23.096
20
153.3122
0
VERTEX
8
CUT
10
24.996
20
150.6795
0
SEQEND
0
POLYLINE
8
CUT
66
1
70
0
0
VERTEX
8
CUT
10
25.6108
20
149.8686
0
VERTEX
8
CUT
10
23.696
20
147.2154
0
VERTEX
8
CUT
10
19.8664
20
147.2154
0
SEQEND
0
POLYLINE
8
CUT
66
1
70
0
0
VERTEX
8
CUT
10
18.1108
20
148.0263
0
VERTEX
8
CUT
10
16.196
20
150.6795
0
VERTEX
8
CUT
10
18.1108
20
153.3327
0
SEQEND
0
POLYLINE
8
CUT
66
1
70
0
0
VERTEX
8
CUT
10
19.696
20
154.1436
0
VERTEX
8
CUT
10
23.696
20
154.1436
0
VERTEX
8
CUT
10
25.696
20
151.3723
0
SEQEND
0
POLYLINE
8
CUT
66
1
70
0
0
VERTEX
8
CUT
10
18.1528
20
144
0
VERTEX
8
CUT
10
19.296
20
145.584
0
VERTEX
8
CUT
10
23.096
20
145.584
0
VERTEX
8
CUT
10
24.2392
20
144
0
SEQEND
0
LINE
8
CUT
10
16.9528
20
144
11
18.1108
21
145.6045
0
POLYLINE
8
CUT
66
1
70
0
0
VERTEX
8
CUT
10
19.696
20
146.4154
0
VERTEX
8
CUT
10
23.696
20
146.4154
0
VERTEX
8
CUT
10
25.4392
20
144
0
SEQEND
0
POLYLINE
8
CUT
66
1
70
0
0
VERTEX
8
CUT
10
33.192
20
170
0
VERTEX
8
CUT
10
31.292
20
167.3673
0
VERTEX
8
CUT
10
27.492
20
167.3673
0
VERTEX
8
CUT
10
25.592
20
170
0
VERTEX
8
CUT
10
27.492
20
172.6327
0
VERTEX
8
CUT
10
31.292
20
172.6327
0
VERTEX
8
CUT
10
33.192
20
170
0
SEQEND
0
POLYLINE
8
CUT
66
1
70
0
0
VERTEX
8
CUT
10
33.8068
20
169.1891
0
VERTEX
8
CUT
10
31.892
20
166.5359
0
VERTEX
8
CUT
10
28.0624
20
166.5359
0
SEQEND
0
POLYLINE
8
CUT
66
1
70
0
0
VERTEX
8
CUT
10
26.3068
20
167.3468
0
VERTEX
8
CUT
10
24.392
20
170
0
VERTEX
8
CUT
10
26.3068
20
172.6532
0
SEQEND
0
POLYLINE
8
CUT
66
1
70
0
0
VERTEX
8
CUT
10
27.892
20
173.4641
0
VERTEX
8
CUT
10
31.892
20
173.4641
0
VERTEX
8
CUT
10
33.892
20
170.6928
0
SEQEND
0
POLYLINE
8
CUT
66
1
70
0
0
VERTEX
8
CUT
10
33.192
20
162.2718
0
VERTEX
8
CUT
10
31.292
20
159.6391
0
VERTEX
8
CUT
10
27.492
20
159.6391
0
VERTEX
8
CUT
10
25.592
20
162.2718
0
VERTEX
8
CUT
10
27.492
20
164.9045
0
VERTEX
8
CUT
10
31.292
20
164.9045
0
VERTEX
8
CUT
10
33.192
20
162.2718
0
SEQEND
0
POLYLINE
8
CUT
66
1
70
0
0
VERTEX
8
CUT
10
33.8068
20
161.4609
0
VERTEX
8
CUT
10
31.892
20
158.8077
0
VERTEX
8
CUT
10
28.0624
20
158.8077
0
SEQEND
0
POLYLINE
8
CUT
66
1
70
0
0
VERTEX
8
CUT
10
26.3068
20
159.6186
0
VERTEX
8
CUT
10
24.392
20
162.2718
0
VERTEX
8
CUT
10
26.3068
20
164.925
0
SEQEND
0
POLYLINE
8
CUT
66
1
70
0
0
VERTEX
8
CUT
10
27.892
20
165.7359
0
VERTEX
8
CUT
10
31.892
20
165.7359
0
VERTEX
8
CUT
10
33.892
20
162.9646
0
SEQEND
0
POLYLINE
8
CUT
66
1
70
0
0
VERTEX
8
CUT
10
33.192
20
154.5436
0
VERTEX
8
CUT
10
31.292
20
151.9109
0
VERTEX
8
CUT
10
27.492
20
151.9109
0
VERTEX
8
CUT
10
25.592
20
154.5436
0
VERTEX
8
CUT
10
27.492
20
157.1763
0
VERTEX
8
CUT
10
31.292
20
157.1763
0
VERTEX
8
CUT
10
33.192
20
154.5436
0
SEQEND
0
POLYLINE
8
CUT
66
1
70
0
0
VERTEX
8
CUT
10
33.8068
20
153.7327
0
VERTEX
8
CUT
10
31.892
20
151.0795
0
VERTEX
8
CUT
10
28.0624
20
151.0795
0
SEQEND
0
POLYLINE
8
CUT
66
1
70
0
0
VERTEX
8
CUT
10
26.3068
20
151.8904
0
VERTEX
8
CUT
10
24.392
20
154.5436
0
VERTEX
8
CUT
10
26.3068
20
157.1968
0
SEQEND
0
POLYLINE
8
CUT
66
1
70
0
0
VERTEX
8
CUT
10
27.892
20
158.0077
0
VERTEX
8
CUT
10
31.892
20
158.0077
0
VERTEX
8
CUT
10
33.892
20
155.2364
0
SEQEND
0
POLYLINE
8
CUT
66
1
70
0
0
VERTEX
8
CUT
10
33.192
20
146.8154
0
VERTEX
8
CUT
10
31.292
20
144.1827
0
VERTEX
8
CUT
10
27.492
20
144.1827
0
VERTEX
8
CUT
10
25.592
20
146.8154
0
VERTEX
8
CUT
10
27.492
20
149.4481
0
VERTEX
8
CUT
10
31.292
20
149.4481
0
VERTEX
8
CUT
10
33.192
20
146.8154
0
SEQEND
0
LINE
8
CUT
10
33.8068
20
146.0045
11
32.3602
21
144
0
POLYLINE
8
CUT
66
1
70
0
0
VERTEX
8
CUT
10
26.3068
20
144.1622
0
VERTEX
8
CUT
10
24.392
20
146.8154
0
VERTEX
8
CUT
10
26.3068
20
149.4686
0
SEQEND
0
POLYLINE
8
CUT
66
1
70
0
0
VERTEX
8
CUT
10
27.892
20
150.2795
0
VERTEX
8
CUT
10
31.892
20
150.2795
0
VERTEX
8
CUT
10
33.892
20
147.5082
0
SEQEND
0
POLYLINE
8
CUT
66
1
70
0
0
VERTEX
8
CUT
10
41.388
20
173.8641
0
VERTEX
8
CUT
10
39.488
20
171.2314
0
VERTEX
8
CUT
10
35.688
20
171.2314
0
VERTEX
8
CUT
10
33.788
20
173.8641
0
VERTEX
8
CUT
10
33.8861
20
174
0
SEQEND
0
POLYLINE
8
CUT
66
1
70
0
0
VERTEX
8
CUT
10
42.0028
20
173.0532
0
VERTEX
8
CUT
10
40.088
20
170.4
0
VERTEX
8
CUT
10
36.2584
20
170.4
0
SEQEND
0
POLYLINE
8
CUT
66
1
70
0
0
VERTEX
8
CUT
10
34.5028
20
171.2109
0
VERTEX
8
CUT
10
32.588
20
173.8641
0
VERTEX
8
CUT
10
32.6861
20
174
0
SEQEND
0
POLYLINE
8
CUT
66
1
70
0
0
VERTEX
8
CUT
10
41.388
20
166.1359
0
VERTEX
8
CUT
10
39.488
20
163.5032
0
VERTEX
8
CUT
10
35.688
20
163.5032
0
VERTEX
8
CUT
10
33.788
20
166.1359
0
VERTEX
8
CUT
10
35.688
20
168.7686
0
VERTEX
8
CUT
10
39.488
20
168.7686
0
VERTEX
8
CUT
10
41.388
20
166.1359
0
SEQEND
0
POLYLINE
8
CUT
66
1
70
0
0
VERTEX
8
CUT
10
42.0028
20
165.325
0
VERTEX
8
CUT
10
40.088
20
162.6718
0
VERTEX
8
CUT
10
36.2584
20
162.6718
0
SEQEND
0
POLYLINE
8
CUT
66
1
70
0
0
VERTEX
8
CUT
10
34.5028
20
163.4827
0
VERTEX
8
CUT
10
32.588
20
166.1359
0
VERTEX
8
CUT
10
34.5028
20
168.7891
0
SEQEND
0
POLYLINE
8
CUT
66
1
70
0
0
VERTEX
8
CUT
10
36.088
20
169.6
0
VERTEX
8
CUT
10
40.088
20
169.6
0
VERTEX
8
CUT
10
42.088
20
166.8287
0
SEQEND
0
POLYLINE
8
CUT
66
1
70
0
0
VERTEX
8
CUT
10
41.388
20
158.4077
0
VERTEX
8
CUT
10
39.488
20
155.775
0
VERTEX
8
CUT
10
35.688
20
155.775
0
VERTEX
8
CUT
10
33.788
20
158.4077
0
VERTEX
8
CUT
10
35.688
20
161.0404
0
VERTEX
8
CUT
10
39.488
20
161.0404
0
VERTEX
8
CUT
10
41.388
20
158.4077
0
SEQEND
0
POLYLINE
8
CUT
66
1
70
0
0
VERTEX
8
CUT
10
42.0028
20
157.5968
0
VERTEX
8
CUT
10
40.088
20
154.9436
0
VERTEX
8
CUT
10
36.2584
20
154.9436
0
SEQEND
0
POLYLINE
8
CUT
66
1
70
0
0
VERTEX
8
CUT
10
34.5028
20
155.7545
0
VERTEX
8
CUT
10
32.588
20
158.4077
0
VERTEX
8
CUT
10
34.5028
20
161.0609
0
SEQEND
0
POLYLINE
8
CUT
66
1
70
0
0
VERTEX
8
CUT
10
36.088
20
161.8718
0
VERTEX
8
CUT
10
40.088
20
161.8718
0
VERTEX
8
CUT
10
42.088
20
159.1005
0
SEQEND
0
POLYLINE
8
CUT
66
1
70
0
0
VERTEX
8
CUT
10
41.388
20
150.6795
0
VERTEX
8
CUT
10
39.488
20
148.0468
0
VERTEX
8
CUT
10
35.688
20
148.0468
0
VERTEX
8
CUT
10
33.788
20
150.6795
0
VERTEX
8
CUT
10
35.688
20
153.3122
0
VERTEX
8
CUT
10
39.488
20
153.3122
0
VERTEX
8
CUT
10
41.388
20
150.6795
0
SEQEND
0
POLYLINE
8
CUT
66
1
70
0
0
VERTEX
8
CUT
10
42.0028
20
149.8686
0
VERTEX
8
CUT
10
40.088
20
147.2154
0
VERTEX
8
CUT
10
36.2584
20
147.2154
0
SEQEND
0
POLYLINE
8
CUT
66
1
70
0
0
VERTEX
8
CUT
10
34.5028
20
148.0263
0
VERTEX
8
CUT
10
32.588
20
150.6795
0
VERTEX
8
CUT
10
34.5028
20
153.3327
0
SEQEND
0
POLYLINE
8
CUT
66
1
70
0
0
VERTEX
8
CUT
10
36.088
20
154.1436
0
VERTEX
8
CUT
10
40.088
20
154.1436
0
VERTEX
8
CUT
10
42.088
20
151.3723
0
SEQEND
0
POLYLINE
8
CUT
66
1
70
0
0
VERTEX
8
CUT
10
34.5448
20
144
0
VERTEX
8
CUT
10
35.688
20
145.584
0
VERTEX
8
CUT
10
39.488
20
145.584
0
VERTEX
8
CUT
10
40.6312
20
144
0
SEQEND
0
LINE
8
CUT
10
33.3448
20
144
11
34.5028
21
145.6045
0
POLYLINE
8
CUT
66
1
70
0
0
VERTEX
8
CUT
10
36.088
20
146.4154
0
VERTEX
8
CUT
10
40.088
20
146.4154
0
VERTEX
8
CUT
10
41.8312
20
144
0
SEQEND
0
POLYLINE
8
CUT
66
1
70
0
0
VERTEX
8
CUT
10
49.584
20
170
0
VERTEX
8
CUT
10
47.684
20
167.3673
0
VERTEX
8
CUT
10
43.884
20
167.3673
0
VERTEX
8
CUT
10
41.984
20
170
0
VERTEX
8
CUT
10
43.884
20
172.6327
0
VERTEX
8
CUT
10
47.684
20
172.6327
0
VERTEX
8
CUT
10
49.584
20
170
0
SEQEND
0
POLYLINE
8
CUT
66
1
70
0
0
VERTEX
8
CUT
10
50.1988
20
169.1891
0
VERTEX
8
CUT
10
48.284
20
166.5359
0
VERTEX
8
CUT
10
44.4544
20
166.5359
0
SEQEND
0
POLYLINE
8
CUT
66
1
70
0
0
VERTEX
8
CUT
10
42.6988
20
167.3468
0
VERTEX
8
CUT
10
40.784
20
170
0
VERTEX
8
CUT
10
42.6988
20
172.6532
0
SEQEND
0
POLYLINE
8
CUT
66
1
70
0
0
VERTEX
8
CUT
10
44.284
20
173.4641
0
VERTEX
8
CUT
10
48.284
20
173.4641
0
VERTEX
8
CUT
10
50.284
20
170.6928
0
SEQEND
0
POLYLINE
8
CUT
66
1
70
0
0
VERTEX
8
CUT
10
49.584
20
162.2718
0
VERTEX
8
CUT
10
47.684
20
159.6391
0
VERTEX
8
CUT
10
43.884
20
159.6391
0
VERTEX
8
CUT
10
41.984
20
162.2718
0
VERTEX
8
CUT
10
43.884
20
164.9045
0
VERTEX
8
CUT
10
47.684
20
164.9045
0
VERTEX
8
CUT
10
49.584
20
162.2718
0
SEQEND
0
POLYLINE
8
CUT
66
1
70
0
0
VERTEX
8
CUT
10
50.1988
20
161.4609
0
VERTEX
8
CUT
10
48.284
20
158.8077
0
VERTEX
8
CUT
10
44.4544
20
158.8077
0
SEQEND
0
POLYLINE
8
CUT
66
1
70
0
0
VERTEX
8
CUT
10
42.6988
20
159.6186
0
VERTEX
8
CUT
10
40.784
20
162.2718
0
VERTEX
8
CUT
10
42.6988
20
164.925
0
SEQEND
0
POLYLINE
8
CUT
66
1
70
0
0
VERTEX
8
CUT
10
44.284
20
165.7359
0
VERTEX
8
CUT
10
48.284
20
165.7359
0
VERTEX
8
CUT
10
50.284
20
162.9646
0
SEQEND
0
POLYLINE
8
CUT
66
1
70
0
0
VERTEX
8
CUT
10
49.584
20
154.5436
0
VERTEX
8
CUT
10
47.684
20
151.9109
0
VERTEX
8
CUT
10
43.884
20
151.9109
0
VERTEX
8
CUT
10
41.984
20
154.5436
0
VERTEX
8
CUT
10
43.884
20
157.1763
0
VERTEX
8
CUT
10
47.684
20
157.1763
0
VERTEX
8
CUT
10
49.584
20
154.5436
0
SEQEND
0
POLYLINE
8
CUT
66
1
70
0
0
VERTEX
8
CUT
10
50.1988
20
153.7327
0
VERTEX
8
CUT
10
48.284
20
151.0795
0
VERTEX
8
CUT
10
44.4544
20
151.0795
0
SEQEND
0
POLYLINE
8
CUT
66
1
70
0
0
VERTEX
8
CUT
10
42.6988
20
151.8904
0
VERTEX
8
CUT
10
40.784
20
154.5436
0
VERTEX
8
CUT
10
42.6988
20
157.1968
0
SEQEND
0
POLYLINE
8
CUT
66
1
70
0
0
VERTEX
8
CUT
10
44.284
20
158.0077
0
VERTEX
8
CUT
10
48.284
20
158.0077
0
VERTEX
8
CUT
10
50.284
20
155.2364
0
SEQEND
0
POLYLINE
8
CUT
66
1
70
0
0
VERTEX
8
CUT
10
49.584
20
146.8154
0
VERTEX
8
CUT
10
47.684
20
144.1827
0
VERTEX
8
CUT
10
43.884
20
144.1827
0
VERTEX
8
CUT
10
41.984
20
146.8154
0
VERTEX
8
CUT
10
43.884
20
149.4481
0
VERTEX
8
CUT
10
47.684
20
149.4481
0
VERTEX
8
CUT
10
49.584
20
146.8154
0
SEQEND
0
LINE
8
CUT
10
50.1988
20
146.0045
11
48.7522
21
144
0
POLYLINE
8
CUT
66
1
70
0
0
VERTEX
8
CUT
10
42.6988
20
144.1622
0
VERTEX
8
CUT
10
40.784
20
146.8154
0
VERTEX
8
CUT
10
42.6988
20
149.4686
0
SEQEND
0
POLYLINE
8
CUT
66
1
70
0
0
VERTEX
8
CUT
10
44.284
20
150.2795
0
VERTEX
8
CUT
10
48.284
20
150.2795
0
VERTEX
8
CUT
10
50.284
20
147.5082
0
SEQEND
0
POLYLINE
8
CUT
66
1
70
0
0
VERTEX
8
CUT
10
57.78
20
173.8641
0
VERTEX
8
CUT
10
55.88
20
171.2314
0
VERTEX
8
CUT
10
52.08
20
171.2314
0
VERTEX
8
CUT
10
50.18
20
173.8641
0
VERTEX
8
CUT
10
50.2781
20
174
0
SEQEND
0
POLYLINE
8
CUT
66
1
70
0
0
VERTEX
8
CUT
10
58.3948
20
173.0532
0
VERTEX
8
CUT
10
56.48
20
170.4
0
VERTEX
8
CUT
10
52.6504
20
170.4
0
SEQEND
0
POLYLINE
8
CUT
66
1
70
0
0
VERTEX
8
CUT
10
50.8948
20
171.2109
0
VERTEX
8
CUT
10
48.98
20
173.8641
0
VERTEX
8
CUT
10
49.0781
20
174
0
SEQEND
0
POLYLINE
8
CUT
66
1
70
0
0
VERTEX
8
CUT
10
57.78
20
166.1359
0
VERTEX
8
CUT
10
55.88
20
163.5032
0
VERTEX
8
CUT
10
52.08
20
163.5032
0
VERTEX
8
CUT
10
50.18
20
166.1359
0
VERTEX
8
CUT
10
52.08
20
168.7686
0
VERTEX
8
CUT
10
55.88
20
168.7686
0
VERTEX
8
CUT
10
57.78
20
166.1359
0
SEQEND
0
POLYLINE
8
CUT
66
1
70
0
0
VERTEX
8
CUT
10
58.3948
20
165.325
0
VERTEX
8
CUT
10
56.48
20
162.6718
0
VERTEX
8
CUT
10
52.6504
20
162.6718
0
SEQEND
0
POLYLINE
8
CUT
66
1
70
0
0
VERTEX
8
CUT
10
50.8948
20
163.4827
0
VERTEX
8
CUT
10
48.98
20
166.1359
0
VERTEX
8
CUT
10
50.8948
20
168.7891
0
SEQEND
0
POLYLINE
8
CUT
66
1
70
0
0
VERTEX
8
CUT
10
52.48
20
169.6
0
VERTEX
8
CUT
10
56.48
20
169.6
0
VERTEX
8
CUT
10
58.48
20
166.8287
0
SEQEND
0
POLYLINE
8
CUT
66
1
70
0
0
VERTEX
8
CUT
10
57.78
20
158.4077
0
VERTEX
8
CUT
10
55.88
20
155.775
0
VERTEX
8
CUT
10
52.08
20
155.775
0
VERTEX
8
CUT
10
50.18
20
158.4077
0
VERTEX
8
CUT
10
52.08
20
161.0404
0
VERTEX
8
CUT
10
55.88
20
161.0404
0
VERTEX
8
CUT
10
57.78
20
158.4077
0
SEQEND
0
POLYLINE
8
CUT
66
1
70
0
0
VERTEX
8
CUT
10
58.3948
20
157.5968
0
VERTEX
8
CUT
10
56.48
20
154.9436
0
VERTEX
8
CUT
10
52.6504
20
154.9436
0
SEQEND
0
POLYLINE
8
CUT
66
1
70
0
0
VERTEX
8
CUT
10
50.8948
20
155.7545
0
VERTEX
8
CUT
10
48.98
20
158.4077
0
VERTEX
8
CUT
10
50.8948
20
161.0609
0
SEQEND
0
POLYLINE
8
CUT
66
1
70
0
0
VERTEX
8
CUT
10
52.48
20
161.8718
0
VERTEX
8
CUT
10
56.48
20
161.8718
0
VERTEX
8
CUT
10
58.48
20
159.1005
0
SEQEND
0
POLYLINE
8
CUT
66
1
70
0
0
VERTEX
8
CUT
10
57.78
20
150.6795
0
VERTEX
8
CUT
10
55.88
20
148.0468
0
VERTEX
8
CUT
10
52.08
20
148.0468
0
VERTEX
8
CUT
10
50.18
20
150.6795
0
VERTEX
8
CUT
10
52.08
20
153.3122
0
VERTEX
8
CUT
10
55.88
20
153.3122
0
VERTEX
8
CUT
10
57.78
20
150.6795
0
SEQEND
0
POLYLINE
8
CUT
66
1
70
0
0
VERTEX
8
CUT
10
58.3948
20
149.8686
0
VERTEX
8
CUT
10
56.48
20
147.2154
0
VERTEX
8
CUT
10
52.6504
20
147.2154
0
SEQEND
0
POLYLINE
8
CUT
66
1
70
0
0
VERTEX
8
CUT
10
50.8948
20
148.0263
0
VERTEX
8
CUT
10
48.98
20
150.6795
0
VERTEX
8
CUT
10
50.8948
20
153.3327
0
SEQEND
0
POLYLINE
8
CUT
66
1
70
0
0
VERTEX
8
CUT
10
52.48
20
154.1436
0
VERTEX
8
CUT
10
56.48
20
154.1436
0
VERTEX
8
CUT
10
58.48
20
151.3723
0
SEQEND
0
POLYLINE
8
CUT
66
1
70
0
0
VERTEX
8
CUT
10
50.9368
20
144
0
VERTEX
8
CUT
10
52.08
20
145.584
0
VERTEX
8
CUT
10
55.88
20
145.584
0
VERTEX
8
CUT
10
57.0232
20
144
0
SEQEND
0
LINE
8
CUT
10
49.7368
20
144
11
50.8948
21
145.6045
0
POLYLINE
8
CUT
66
1
70
0
0
VERTEX
8
CUT
10
52.48
20
146.4154
0
VERTEX
8
CUT
10
56.48
20
146.4154
0
VERTEX
8
CUT
10
58.2232
20
144
0
SEQEND
0
POLYLINE
8
CUT
66
1
70
0
0
VERTEX
8
CUT
10
62
20
167.3673
0
VERTEX
8
CUT
10
60.276
20
167.3673
0
VERTEX
8
CUT
10
58.376
20
170
0
VERTEX
8
CUT
10
60.276
20
172.6327
0
VERTEX
8
CUT
10
62
20
172.6327
0
SEQEND
0
LINE
8
CUT
10
62
20
166.5359
11
60.8464
21
166.5359
0
POLYLINE
8
CUT
66
1
70
0
0
VERTEX
8
CUT
10
59.0908
20
167.3468
0
VERTEX
8
CUT
10
57.176
20
170
0
VERTEX
8
CUT
10
59.0908
20
172.6532
0
SEQEND
0
LINE
8
CUT
10
60.676
20
173.4641
11
62
21
173.4641
0
POLYLINE
8
CUT
66
1
70
0
0
VERTEX
8
CUT
10
62
20
159.6391
0
VERTEX
8
CUT
10
60.276
20
159.6391
0
VERTEX
8
CUT
10
58.376
20
162.2718
0
VERTEX
8
CUT
10
60.276
20
164.9045
0
VERTEX
8
CUT
10
62
20
164.9045
0
SEQEND
0
LINE
8
CUT
10
62
20
158.8077
11
60.8464
21
158.8077
0
POLYLINE
8
CUT
66
1
70
0
0
VERTEX
8
CUT
10
59.0908
20
159.6186
0
VERTEX
8
CUT
10
57.176
20
162.2718
0
VERTEX
8
CUT
10
59.0908
20
164.925
0
SEQEND
0
LINE
8
CUT
10
60.676
20
165.7359
11
62
21
165.7359
0
POLYLINE
8
CUT
66
1
70
0
0
VERTEX
8
CUT
10
62
20
151.9109
0
VERTEX
8
CUT
10
60.276
20
151.9109
0
VERTEX
8
CUT
10
58.376
20
154.5436
0
VERTEX
8
CUT
10
60.276
20
157.1763
0
VERTEX
8
CUT
10
62
20
157.1763
0
SEQEND
0
LINE
8
CUT
10
62
20
151.0795
11
60.8464
21
151.0795
0
POLYLINE
8
CUT
66
1
70
0
0
VERTEX
8
CUT
10
59.0908
20
151.8904
0
VERTEX
8
CUT
10
57.176
20
154.5436
0
VERTEX
8
CUT
10
59.0908
20
157.1968
0
SEQEND
0
LINE
8
CUT
10
60.676
20
158.0077
11
62
21
158.0077
0
POLYLINE
8
CUT
66
1
70
0
0
VERTEX
8
CUT
10
62
20
144.1827
0
VERTEX
8
CUT
10
60.276
20
144.1827
0
VERTEX
8
CUT
10
58.376
20
146.8154
0
VERTEX
8
CUT
10
60.276
20
149.4481
0
VERTEX
8
CUT
10
62
20
149.4481
0
SEQEND
0
POLYLINE
8
CUT
66
1
70
0
0
VERTEX
8
CUT
10
59.0908
20
144.1622
0
VERTEX
8
CUT
10
57.176
20
146.8154
0
VERTEX
8
CUT
10
59.0908
20
149.4686
0
SEQEND
0
LINE
8
CUT
10
60.676
20
150.2795
11
62
21
150.2795
0
LINE
8
CUT
10
2.5
20
144
11
2.5
21
147
0
POLYLINE
8
CUT
66
1
70
0
0
VERTEX
8
CUT
10
0
20
138
0
VERTEX
8
CUT
10
70
20
138
0
VERTEX
8
CUT
10
70
20
108
0
VERTEX
8
CUT
10
0
20
108
0
VERTEX
8
CUT
10
0
20
138
0
SEQEND
0
LINE
8
CUT
10
8.3328
20
138
11
8
21
137.5388
0
LINE
8
CUT
10
8.9578
20
137.2032
11
8
21
135.8761
0
LINE
8
CUT
10
8.343
20
129.9859
11
8
21
129.5106
0
LINE
8
CUT
10
8
20
130.4612
11
8.343
21
129.9859
0
LINE
8
CUT
10
8.9578
20
129.175
11
8
21
127.8479
0
LINE
8
CUT
10
8
20
132.1239
11
9.043
21
130.6787
0
LINE
8
CUT
10
8.343
20
121.9577
11
8
21
121.4824
0
LINE
8
CUT
10
8
20
122.433
11
8.343
21
121.9577
0
LINE
8
CUT
10
8.9578
20
121.1468
11
8
21
119.8197
0
LINE
8
CUT
10
8
20
124.0957
11
9.043
21
122.6505
0
LINE
8
CUT
10
8.343
20
113.9295
11
8
21
113.4542
0
LINE
8
CUT
10
8
20
114.4048
11
8.343
21
113.9295
0
LINE
8
CUT
10
8.9578
20
113.1186
11
8
21
111.7914
0
LINE
8
CUT
10
8
20
116.0675
11
9.043
21
114.6223
0
POLYLINE
8
CUT
66
1
70
0
0
VERTEX
8
CUT
10
16.8
20
134
0
VERTEX
8
CUT
10
14.9
20
131.3673
0
VERTEX
8
CUT
10
11.1
20
131.3673
0
VERTEX
8
CUT
10
9.2
20
134
0
VERTEX
8
CUT
10
11.1
20
136.6327
0
VERTEX
8
CUT
10
14.9
20
136.6327
0
VERTEX
8
CUT
10
16.8
20
134
0
SEQEND
0
POLYLINE
8
CUT
66
1
70
0
0
VERTEX
8
CUT
10
17.4148
20
133.1891
0
VERTEX
8
CUT
10
15.5
20
130.5359
0
VERTEX
8
CUT
10
11.6704
20
130.5359
0
SEQEND
0
POLYLINE
8
CUT
66
1
70
0
0
VERTEX
8
CUT
10
9.9148
20
131.3468
0
VERTEX
8
CUT
10
8
20
134
0
VERTEX
8
CUT
10
9.9148
20
136.6532
0
SEQEND
0
POLYLINE
8
CUT
66
1
70
0
0
VERTEX
8
CUT
10
11.5
20
137.4641
0
VERTEX
8
CUT
10
15.5
20
137.4641
0
VERTEX
8
CUT
10
17.5
20
134.6928
0
SEQEND
0
POLYLINE
8
CUT
66
1
70
0
0
VERTEX
8
CUT
10
16.8
20
125.9718
0
VERTEX
8
CUT
10
14.9
20
123.3391
0
VERTEX
8
CUT
10
11.1
20
123.3391
0
VERTEX
8
CUT
10
9.2
20
125.9718
0
VERTEX
8
CUT
10
11.1
20
128.6045
0
VERTEX
8
CUT
10
14.9
20
128.6045
0
VERTEX
8
CUT
10
16.8
20
125.9718
0
SEQEND
0
POLYLINE
8
CUT
66
1
70
0
0
VERTEX
8
CUT
10
17.4148
20
125.1609
0
VERTEX
8
CUT
10
15.5
20
122.5077
0
VERTEX
8
CUT
10
11.6704
20
122.5077
0
SEQEND
0
POLYLINE
8
CUT
66
1
70
0
0
VERTEX
8
CUT
10
9.9148
20
123.3186
0
VERTEX
8
CUT
10
8
20
125.9718
0
VERTEX
8
CUT
10
9.9148
20
128.625
0
SEQEND
0
POLYLINE
8
CUT
66
1
70
0
0
VERTEX
8
CUT
10
11.5
20
129.4359
0
VERTEX
8
CUT
10
15.5
20
129.4359
0
VERTEX
8
CUT
10
17.5
20
126.6646
0
SEQEND
0
POLYLINE
8
CUT
66
1
70
0
0
VERTEX
8
CUT
10
16.8
20
117.9436
0
VERTEX
8
CUT
10
14.9
20
115.3109
0
VERTEX
8
CUT
10
11.1
20
115.3109
0
VERTEX
8
CUT
10
9.2
20
117.9436
0
VERTEX
8
CUT
10
11.1
20
120.5763
0
VERTEX
8
CUT
10
14.9
20
120.5763
0
VERTEX
8
CUT
10
16.8
20
117.9436
0
SEQEND
0
POLYLINE
8
CUT
66
1
70
0
0
VERTEX
8
CUT
10
17.4148
20
117.1327
0
VERTEX
8
CUT
10
15.5
20
114.4795
0
VERTEX
8
CUT
10
11.6704
20
114.4795
0
SEQEND
0
POLYLINE
8
CUT
66
1
70
0
0
VERTEX
8
CUT
10
9.9148
20
115.2904
0
VERTEX
8
CUT
10
8
20
117.9436
0
VERTEX
8
CUT
10
9.9148
20
120.5968
0
SEQEND
0
POLYLINE
8
CUT
66
1
70
0
0
VERTEX
8
CUT
10
11.5
20
121.4077
0
VERTEX
8
CUT
10
15.5
20
121.4077
0
VERTEX
8
CUT
10
17.5
20
118.6364
0
SEQEND
0
LINE
8
CUT
10
16.8
20
109.9154
11
15.4177
21
108
0
POLYLINE
8
CUT
66
1
70
0
0
VERTEX
8
CUT
10
10.5823
20
108
0
VERTEX
8
CUT
10
9.2
20
109.9154
0
VERTEX
8
CUT
10
11.1
20
112.5481
0
VERTEX
8
CUT
10
14.9
20
112.5481
0
VERTEX
8
CUT
10
16.8
20
109.9154
0
SEQEND
0
LINE
8
CUT
10
17.4148
20
109.1045
11
16.6177
21
108
0
POLYLINE
8
CUT
66
1
70
0
0
VERTEX
8
CUT
10
9.3823
20
108
0
VERTEX
8
CUT
10
8
20
109.9154
0
VERTEX
8
CUT
10
9.9148
20
112.5686
0
SEQEND
0
POLYLINE
8
CUT
66
1
70
0
0
VERTEX
8
CUT
10
11.5
20
113.3795
0
VERTEX
8
CUT
10
15.5
20
113.3795
0
VERTEX
8
CUT
10
17.5
20
110.6082
0
SEQEND
0
POLYLINE
8
CUT
66
1
70
0
0
VERTEX
8
CUT
10
25.2468
20
138
0
VERTEX
8
CUT
10
23.357
20
135.3814
0
VERTEX
8
CUT
10
19.557
20
135.3814
0
VERTEX
8
CUT
10
17.6672
20
138
0
SEQEND
0
POLYLINE
8
CUT
66
1
70
0
0
VERTEX
8
CUT
10
25.8718
20
137.2032
0
VERTEX
8
CUT
10
23.957
20
134.55
0
VERTEX
8
CUT
10
20.1274
20
134.55
0
SEQEND
0
LINE
8
CUT
10
18.3718
20
135.3609
11
16.4672
21
138
0
POLYLINE
8
CUT
66
1
70
0
0
VERTEX
8
CUT
10
25.257
20
129.9859
0
VERTEX
8
CUT
10
23.357
20
127.3532
0
VERTEX
8
CUT
10
19.557
20
127.3532
0
VERTEX
8
CUT
10
17.657
20
129.9859
0
VERTEX
8
CUT
10
19.557
20
132.6186
0
VERTEX
8
CUT
10
23.357
20
132.6186
0
VERTEX
8
CUT
10
25.257
20
129.9859
0
SEQEND
0
POLYLINE
8
CUT
66
1
70
0
0
VERTEX
8
CUT
10
25.8718
20
129.175
0
VERTEX
8
CUT
10
23.957
20
126.5218
0
VERTEX
8
CUT
10
20.1274
20
126.5218
0
SEQEND
0
POLYLINE
8
CUT
66
1
70
0
0
VERTEX
8
CUT
10
18.3718
20
127.3327
0
VERTEX
8
CUT
10
16.457
20
129.9859
0
VERTEX
8
CUT
10
18.3718
20
132.6391
0
SEQEND
0
POLYLINE
8
CUT
66
1
70
0
0
VERTEX
8
CUT
10
19.957
20
133.45
0
VERTEX
8
CUT
10
23.957
20
133.45
0
VERTEX
8
CUT
10
25.957
20
130.6787
0
SEQEND
0
POLYLINE
8
CUT
66
1
70
0
0
VERTEX
8
CUT
10
25.257
20
121.9577
0
VERTEX
8
CUT
10
23.357
20
119.325
0
VERTEX
8
CUT
10
19.557
20
119.325
0
VERTEX
8
CUT
10
17.657
20
121.9577
0
VERTEX
8
CUT
10
19.557
20
124.5904
0
VERTEX
8
CUT
10
23.357
20
124.5904
0
VERTEX
8
CUT
10
25.257
20
121.9577
0
SEQEND
0
POLYLINE
8
CUT
66
1
70
0
0
VERTEX
8
CUT
10
25.8718
20
121.1468
0
VERTEX
8
CUT
10
23.957
20
118.4936
0
VERTEX
8
CUT
10
20.1274
20
118.4936
0
SEQEND
0
POLYLINE
8
CUT
66
1
70
0
0
VERTEX
8
CUT
10
18.3718
20
119.3045
0
VERTEX
8
CUT
10
16.457
20
121.9577
0
VERTEX
8
CUT
10
18.3718
20
124.6109
0
SEQEND
0
POLYLINE
8
CUT
66
1
70
0
0
VERTEX
8
CUT
10
19.957
20
125.4218
0
VERTEX
8
CUT
10
23.957
20
125.4218
0
VERTEX
8
CUT
10
25.957
20
122.6505
0
SEQEND
0
POLYLINE
8
CUT
66
1
70
0
0
VERTEX
8
CUT
10
25.257
20
113.9295
0
VERTEX
8
CUT
10
23.357
20
111.2968
0
VERTEX
8
CUT
10
19.557
20
111.2968
0
VERTEX
8
CUT
10
17.657
20
113.9295
0
VERTEX
8
CUT
10
19.557
20
116.5622
0
VERTEX
8
CUT
10
23.357
20
116.5622
0
VERTEX
8
CUT
10
25.257
20
113.9295
0
SEQEND
0
POLYLINE
8
CUT
66
1
70
0
0
VERTEX
8
CUT
10
25.8718
20
113.1186
0
VERTEX
8
CUT
10
23.957
20
110.4654
0
VERTEX
8
CUT
10
20.1274
20
110.4654
0
SEQEND
0
POLYLINE
8
CUT
66
1
70
0
0
VERTEX
8
CUT
10
18.3718
20
111.2763
0
VERTEX
8
CUT
10
16.457
20
113.9295
0
VERTEX
8
CUT
10
18.3718
20
116.5827
0
SEQEND
0
POLYLINE
8
CUT
66
1
70
0
0
VERTEX
8
CUT
10
19.957
20
117.3936
0
VERTEX
8
CUT
10
23.957
20
117.3936
0
VERTEX
8
CUT
10
25.957
20
114.6223
0
SEQEND
0
POLYLINE
8
CUT
66
1
70
0
0
VERTEX
8
CUT
10
19.1716
20
108
0
VERTEX
8
CUT
10
19.557
20
108.534
0
VERTEX
8
CUT
10
23.357
20
108.534
0
VERTEX
8
CUT
10
23.7424
20
108
0
SEQEND
0
LINE
8
CUT
10
17.9716
20
108
11
18.3718
21
108.5545
0
POLYLINE
8
CUT
66
1
70
0
0
VERTEX
8
CUT
10
19.957
20
109.3654
0
VERTEX
8
CUT
10
23.957
20
109.3654
0
VERTEX
8
CUT
10
24.9424
20
108
0
SEQEND
0
POLYLINE
8
CUT
66
1
70
0
0
VERTEX
8
CUT
10
33.714
20
134
0
VERTEX
8
CUT
10
31.814
20
131.3673
0
VERTEX
8
CUT
10
28.014
20
131.3673
0
VERTEX
8
CUT
10
26.114
20
134
0
VERTEX
8
CUT
10
28.014
20
136.6327
0
VERTEX
8
CUT
10
31.814
20
136.6327
0
VERTEX
8
CUT
10
33.714
20
134
0
SEQEND
0
POLYLINE
8
CUT
66
1
70
0
0
VERTEX
8
CUT
10
34.3288
20
133.1891
0
VERTEX
8
CUT
10
32.414
20
130.5359
0
VERTEX
8
CUT
10
28.5844
20
130.5359
0
SEQEND
0
POLYLINE
8
CUT
66
1
70
0
0
VERTEX
8
CUT
10
26.8288
20
131.3468
0
VERTEX
8
CUT
10
24.914
20
134
0
VERTEX
8
CUT
10
26.8288
20
136.6532
0
SEQEND
0
POLYLINE
8
CUT
66
1
70
0
0
VERTEX
8
CUT
10
28.414
20
137.4641
0
VERTEX
8
CUT
10
32.414
20
137.4641
0
VERTEX
8
CUT
10
34.414
20
134.6928
0
SEQEND
0
POLYLINE
8
CUT
66
1
70
0
0
VERTEX
8
CUT
10
33.714
20
125.9718
0
VERTEX
8
CUT
10
31.814
20
123.3391
0
VERTEX
8
CUT
10
28.014
20
123.3391
0
VERTEX
8
CUT
10
26.114
20
125.9718
0
VERTEX
8
CUT
10
28.014
20
128.6045
0
VERTEX
8
CUT
10
31.814
20
128.6045
0
VERTEX
8
CUT
10
33.714
20
125.9718
0
SEQEND
0
POLYLINE
8
CUT
66
1
70
0
0
VERTEX
8
CUT
10
34.3288
20
125.1609
0
VERTEX
8
CUT
10
32.414
20
122.5077
0
VERTEX
8
CUT
10
28.5844
20
122.5077
0
SEQEND
0
POLYLINE
8
CUT
66
1
70
0
0
VERTEX
8
CUT
10
26.8288
20
123.3186
0
VERTEX
8
CUT
10
24.914
20
125.9718
0
VERTEX
8
CUT
10
26.8288
20
128.625
0
SEQEND
0
POLYLINE
8
CUT
66
1
70
0
0
VERTEX
8
CUT
10
28.414
20
129.4359
0
VERTEX
8
CUT
10
32.414
20
129.4359
0
VERTEX
8
CUT
10
34.414
20
126.6646
0
SEQEND
0
POLYLINE
8
CUT
66
1
70
0
0
VERTEX
8
CUT
10
33.714
20
117.9436
0
VERTEX
8
CUT
10
31.814
20
115.3109
0
VERTEX
8
CUT
10
28.014
20
115.3109
0
VERTEX
8
CUT
10
26.114
20
117.9436
0
VERTEX
8
CUT
10
28.014
20
120.5763
0
VERTEX
8
CUT
10
31.814
20
120.5763
0
VERTEX
8
CUT
10
33.714
20
117.9436
0
SEQEND
0
POLYLINE
8
CUT
66
1
70
0
0
VERTEX
8
CUT
10
34.3288
20
117.1327
0
VERTEX
8
CUT
10
32.414
20
114.4795
0
VERTEX
8
CUT
10
28.5844
20
114.4795
0
SEQEND
0
POLYLINE
8
CUT
66
1
70
0
0
VERTEX
8
CUT
10
26.8288
20
115.2904
0
VERTEX
8
CUT
10
24.914
20
117.9436
0
VERTEX
8
CUT
10
26.8288
20
120.5968
0
SEQEND
0
POLYLINE
8
CUT
66
1
70
0
0
VERTEX
8
CUT
10
28.414
20
121.4077
0
VERTEX
8
CUT
10
32.414
20
121.4077
0
VERTEX
8
CUT
10
34.414
20
118.6364
0
SEQEND
0
LINE
8
CUT
10
33.714
20
109.9154
11
32.3317
21
108
0
POLYLINE
8
CUT
66
1
70
0
0
VERTEX
8
CUT
10
27.4963
20
108
0
VERTEX
8
CUT
10
26.114
20
109.9154
0
VERTEX
8
CUT
10
28.014
20
112.5481
0
VERTEX
8
CUT
10
31.814
20
112.5481
0
VERTEX
8
CUT
10
33.714
20
109.9154
0
SEQEND
0
LINE
8
CUT
10
34.3288
20
109.1045
11
33.5317
21
108
0
POLYLINE
8
CUT
66
1
70
0
0
VERTEX
8
CUT
10
26.2963
20
108
0
VERTEX
8
CUT
10
24.914
20
109.9154
0
VERTEX
8
CUT
10
26.8288
20
112.5686
0
SEQEND
0
POLYLINE
8
CUT
66
1
70
0
0
VERTEX
8
CUT
10
28.414
20
113.3795
0
VERTEX
8
CUT
10
32.414
20
113.3795
0
VERTEX
8
CUT
10
34.414
20
110.6082
0
SEQEND
0
POLYLINE
8
CUT
66
1
70
0
0
VERTEX
8
CUT
10
42.1608
20
138
0
VERTEX
8
CUT
10
40.271
20
135.3814
0
VERTEX
8
CUT
10
36.471
20
135.3814
0
VERTEX
8
CUT
10
34.5812
20
138
0
SEQEND
0
POLYLINE
8
CUT
66
1
70
0
0
VERTEX
8
CUT
10
42.7858
20
137.2032
0
VERTEX
8
CUT
10
40.871
20
134.55
0
VERTEX
8
CUT
10
37.0414
20
134.55
0
SEQEND
0
LINE
8
CUT
10
35.2858
20
135.3609
11
33.3812
21
138
0
POLYLINE
8
CUT
66
1
70
0
0
VERTEX
8
CUT
10
42.171
20
129.9859
0
VERTEX
8
CUT
10
40.271
20
127.3532
0
VERTEX
8
CUT
10
36.471
20
127.3532
0
VERTEX
8
CUT
10
34.571
20
129.9859
0
VERTEX
8
CUT
10
36.471
20
132.6186
0
VERTEX
8
CUT
10
40.271
20
132.6186
0
VERTEX
8
CUT
10
42.171
20
129.9859
0
SEQEND
0
POLYLINE
8
CUT
66
1
70
0
0
VERTEX
8
CUT
10
42.7858
20
129.175
0
VERTEX
8
CUT
10
40.871
20
126.5218
0
VERTEX
8
CUT
10
37.0414
20
126.5218
0
SEQEND
0
POLYLINE
8
CUT
66
1
70
0
0
VERTEX
8
CUT
10
35.2858
20
127.3327
0
VERTEX
8
CUT
10
33.371
20
129.9859
0
VERTEX
8
CUT
10
35.2858
20
132.6391
0
SEQEND
0
POLYLINE
8
CUT
66
1
70
0
0
VERTEX
8
CUT
10
36.871
20
133.45
0
VERTEX
8
CUT
10
40.871
20
133.45
0
VERTEX
8
CUT
10
42.871
20
130.6787
0
SEQEND
0
POLYLINE
8
CUT
66
1
70
0
0
VERTEX
8
CUT
10
42.171
20
121.9577
0
VERTEX
8
CUT
10
40.271
20
119.325
0
VERTEX
8
CUT
10
36.471
20
119.325
0
VERTEX
8
CUT
10
34.571
20
121.9577
0
VERTEX
8
CUT
10
36.471
20
124.5904
0
VERTEX
8
CUT
10
40.271
20
124.5904
0
VERTEX
8
CUT
10
42.171
20
121.9577
0
SEQEND
0
POLYLINE
8
CUT
66
1
70
0
0
VERTEX
8
CUT
10
42.7858
20
121.1468
0
VERTEX
8
CUT
10
40.871
20
118.4936
0
VERTEX
8
CUT
10
37.0414
20
118.4936
0
SEQEND
0
POLYLINE
8
CUT
66
1
70
0
0
VERTEX
8
CUT
10
35.2858
20
119.3045
0
VERTEX
8
CUT
10
33.371
20
121.9577
0
VERTEX
8
CUT
10
35.2858
20
124.6109
0
SEQEND
0
POLYLINE
8
CUT
66
1
70
0
0
VERTEX
8
CUT
10
36.871
20
125.4218
0
VERTEX
8
CUT
10
40.871
20
125.4218
0
VERTEX
8
CUT
10
42.871
20
122.6505
0
SEQEND
0
POLYLINE
8
CUT
66
1
70
0
0
VERTEX
8
CUT
10
42.171
20
113.9295
0
VERTEX
8
CUT
10
40.271
20
111.2968
0
VERTEX
8
CUT
10
36.471
20
111.2968
0
VERTEX
8
CUT
10
34.571
20
113.9295
0
VERTEX
8
CUT
10
36.471
20
116.5622
0
VERTEX
8
CUT
10
40.271
20
116.5622
0
VERTEX
8
CUT
10
42.171
20
113.9295
0
SEQEND
0
POLYLINE
8
CUT
66
1
70
0
0
VERTEX
8
CUT
10
42.7858
20
113.1186
0
VERTEX
8
CUT
10
40.871
20
110.4654
0
VERTEX
8
CUT
10
37.0414
20
110.4654
0
SEQEND
0
POLYLINE
8
CUT
66
1
70
0
0
VERTEX
8
CUT
10
35.2858
20
111.2763
0
VERTEX
8
CUT
10
33.371
20
113.9295
0
VERTEX
8
CUT
10
35.2858
20
116.5827
0
SEQEND
0
POLYLINE
8
CUT
66
1
70
0
0
VERTEX
8
CUT
10
36.871
20
117.3936
0
VERTEX
8
CUT
10
40.871
20
117.3936
0
VERTEX
8
CUT
10
42.871
20
114.6223
0
SEQEND
0
POLYLINE
8
CUT
66
1
70
0
0
VERTEX
8
CUT
10
36.0856
20
108
0
VERTEX
8
CUT
10
36.471
20
108.534
0
VERTEX
8
CUT
10
40.271
20
108.534
0
VERTEX
8
CUT
10
40.6564
20
108
0
SEQEND
0
LINE
8
CUT
10
34.8856
20
108
11
35.2858
21
108.5545
0
POLYLINE
8
CUT
66
1
70
0
0
VERTEX
8
CUT
10
36.871
20
109.3654
0
VERTEX
8
CUT
10
40.871
20
109.3654
0
VERTEX
8
CUT
10
41.8564
20
108
0
SEQEND
0
POLYLINE
8
CUT
66
1
70
0
0
VERTEX
8
CUT
10
50.628
20
134
0
VERTEX
8
CUT
10
48.728
20
131.3673
0
VERTEX
8
CUT
10
44.928
20
131.3673
0
VERTEX
8
CUT
10
43.028
20
134
0
VERTEX
8
CUT
10
44.928
20
136.6327
0
VERTEX
8
CUT
10
48.728
20
136.6327
0
VERTEX
8
CUT
10
50.628
20
134
0
SEQEND
0
POLYLINE
8
CUT
66
1
70
0
0
VERTEX
8
CUT
10
51.2428
20
133.1891
0
VERTEX
8
CUT
10
49.328
20
130.5359
0
VERTEX
8
CUT
10
45.4984
20
130.5359
0
SEQEND
0
POLYLINE
8
CUT
66
1
70
0
0
VERTEX
8
CUT
10
43.7428
20
131.3468
0
VERTEX
8
CUT
10
41.828
20
134
0
VERTEX
8
CUT
10
43.7428
20
136.6532
0
SEQEND
0
POLYLINE
8
CUT
66
1
70
0
0
VERTEX
8
CUT
10
45.328
20
137.4641
0
VERTEX
8
CUT
10
49.328
20
137.4641
0
VERTEX
8
CUT
10
51.328
20
134.6928
0
SEQEND
0
POLYLINE
8
CUT
66
1
70
0
0
VERTEX
8
CUT
10
50.628
20
125.9718
0
VERTEX
8
CUT
10
48.728
20
123.3391
0
VERTEX
8
CUT
10
44.928
20
123.3391
0
VERTEX
8
CUT
10
43.028
20
125.9718
0
VERTEX
8
CUT
10
44.928
20
128.6045
0
VERTEX
8
CUT
10
48.728
20
128.6045
0
VERTEX
8
CUT
10
50.628
20
125.9718
0
SEQEND
0
POLYLINE
8
CUT
66
1
70
0
0
VERTEX
8
CUT
10
51.2428
20
125.1609
0
VERTEX
8
CUT
10
49.328
20
122.5077
0
VERTEX
8
CUT
10
45.4984
20
122.5077
0
SEQEND
0
POLYLINE
8
CUT
66
1
70
0
0
VERTEX
8
CUT
10
43.7428
20
123.3186
0
VERTEX
8
CUT
10
41.828
20
125.9718
0
VERTEX
8
CUT
10
43.7428
20
128.625
0
SEQEND
0
POLYLINE
8
CUT
66
1
70
0
0
VERTEX
8
CUT
10
45.328
20
129.4359
0
VERTEX
8
CUT
10
49.328
20
129.4359
0
VERTEX
8
CUT
10
51.328
20
126.6646
0
SEQEND
0
POLYLINE
8
CUT
66
1
70
0
0
VERTEX
8
CUT
10
50.628
20
117.9436
0
VERTEX
8
CUT
10
48.728
20
115.3109
0
VERTEX
8
CUT
10
44.928
20
115.3109
0
VERTEX
8
CUT
10
43.028
20
117.9436
0
VERTEX
8
CUT
10
44.928
20
120.5763
0
VERTEX
8
CUT
10
48.728
20
120.5763
0
VERTEX
8
CUT
10
50.628
20
117.9436
0
SEQEND
0
POLYLINE
8
CUT
66
1
70
0
0
VERTEX
8
CUT
10
51.2428
20
117.1327
0
VERTEX
8
CUT
10
49.328
20
114.4795
0
VERTEX
8
CUT
10
45.4984
20
114.4795
0
SEQEND
0
POLYLINE
8
CUT
66
1
70
0
0
VERTEX
8
CUT
10
43.7428
20
115.2904
0
VERTEX
8
CUT
10
41.828
20
117.9436
0
VERTEX
8
CUT
10
43.7428
20
120.5968
0
SEQEND
0
POLYLINE
8
CUT
66
1
70
0
0
VERTEX
8
CUT
10
45.328
20
121.4077
0
VERTEX
8
CUT
10
49.328
20
121.4077
0
VERTEX
8
CUT
10
51.328
20
118.6364
0
SEQEND
0
LINE
8
CUT
10
50.628
20
109.9154
11
49.2457
21
108
0
POLYLINE
8
CUT
66
1
70
0
0
VERTEX
8
CUT
10
44.4103
20
108
0
VERTEX
8
CUT
10
43.028
20
109.9154
0
VERTEX
8
CUT
10
44.928
20
112.5481
0
VERTEX
8
CUT
10
48.728
20
112.5481
0
VERTEX
8
CUT
10
50.628
20
109.9154
0
SEQEND
0
LINE
8
CUT
10
51.2428
20
109.1045
11
50.4457
21
108
0
POLYLINE
8
CUT
66
1
70
0
0
VERTEX
8
CUT
10
43.2103
20
108
0
VERTEX
8
CUT
10
41.828
20
109.9154
0
VERTEX
8
CUT
10
43.7428
20
112.5686
0
SEQEND
0
POLYLINE
8
CUT
66
1
70
0
0
VERTEX
8
CUT
10
45.328
20
113.3795
0
VERTEX
8
CUT
10
49.328
20
113.3795
0
VERTEX
8
CUT
10
51.328
20
110.6082
0
SEQEND
0
POLYLINE
8
CUT
66
1
70
0
0
VERTEX
8
CUT
10
59.0748
20
138
0
VERTEX
8
CUT
10
57.185
20
135.3814
0
VERTEX
8
CUT
10
53.385
20
135.3814
0
VERTEX
8
CUT
10
51.4952
20
138
0
SEQEND
0
POLYLINE
8
CUT
66
1
70
0
0
VERTEX
8
CUT
10
59.6998
20
137.2032
0
VERTEX
8
CUT
10
57.785
20
134.55
0
VERTEX
8
CUT
10
53.9554
20
134.55
0
SEQEND
0
LINE
8
CUT
10
52.1998
20
135.3609
11
50.2952
21
138
0
POLYLINE
8
CUT
66
1
70
0
0
VERTEX
8
CUT
10
59.085
20
129.9859
0
VERTEX
8
CUT
10
57.185
20
127.3532
0
VERTEX
8
CUT
10
53.385
20
127.3532
0
VERTEX
8
CUT
10
51.485
20
129.9859
0
VERTEX
8
CUT
10
53.385
20
132.6186
0
VERTEX
8
CUT
10
57.185
20
132.6186
0
VERTEX
8
CUT
10
59.085
20
129.9859
0
SEQEND
0
POLYLINE
8
CUT
66
1
70
0
0
VERTEX
8
CUT
10
59.6998
20
129.175
0
VERTEX
8
CUT
10
57.785
20
126.5218
0
VERTEX
8
CUT
10
53.9554
20
126.5218
0
SEQEND
0
POLYLINE
8
CUT
66
1
70
0
0
VERTEX
8
CUT
10
52.1998
20
127.3327
0
VERTEX
8
CUT
10
50.285
20
129.9859
0
VERTEX
8
CUT
10
52.1998
20
132.6391
0
SEQEND
0
POLYLINE
8
CUT
66
1
70
0
0
VERTEX
8
CUT
10
53.785
20
133.45
0
VERTEX
8
CUT
10
57.785
20
133.45
0
VERTEX
8
CUT
10
59.785
20
130.6787
0
SEQEND
0
POLYLINE
8
CUT
66
1
70
0
0
VERTEX
8
CUT
10
59.085
20
121.9577
0
VERTEX
8
CUT
10
57.185
20
119.325
0
VERTEX
8
CUT
10
53.385
20
119.325
0
VERTEX
8
CUT
10
51.485
20
121.9577
0
VERTEX
8
CUT
10
53.385
20
124.5904
0
VERTEX
8
CUT
10
57.185
20
124.5904
0
VERTEX
8
CUT
10
59.085
20
121.9577
0
SEQEND
0
POLYLINE
8
CUT
66
1
70
0
0
VERTEX
8
CUT
10
59.6998
20
121.1468
0
VERTEX
8
CUT
10
57.785
20
118.4936
0
VERTEX
8
CUT
10
53.9554
20
118.4936
0
SEQEND
0
POLYLINE
8
CUT
66
1
70
0
0
VERTEX
8
CUT
10
52.1998
20
119.3045
0
VERTEX
8
CUT
10
50.285
20
121.9577
0
VERTEX
8
CUT
10
52.1998
20
124.6109
0
SEQEND
0
POLYLINE
8
CUT
66
1
70
0
0
VERTEX
8
CUT
10
53.785
20
125.4218
0
VERTEX
8
CUT
10
57.785
20
125.4218
0
VERTEX
8
CUT
10
59.785
20
122.6505
0
SEQEND
0
POLYLINE
8
CUT
66
1
70
0
0
VERTEX
8
CUT
10
59.085
20
113.9295
0
VERTEX
8
CUT
10
57.185
20
111.2968
0
VERTEX
8
CUT
10
53.385
20
111.2968
0
VERTEX
8
CUT
10
51.485
20
113.9295
0
VERTEX
8
CUT
10
53.385
20
116.5622
0
VERTEX
8
CUT
10
57.185
20
116.5622
0
VERTEX
8
CUT
10
59.085
20
113.9295
0
SEQEND
0
POLYLINE
8
CUT
66
1
70
0
0
VERTEX
8
CUT
10
59.6998
20
113.1186
0
VERTEX
8
CUT
10
57.785
20
110.4654
0
VERTEX
8
CUT
10
53.9554
20
110.4654
0
SEQEND
0
POLYLINE
8
CUT
66
1
70
0
0
VERTEX
8
CUT
10
52.1998
20
111.2763
0
VERTEX
8
CUT
10
50.285
20
113.9295
0
VERTEX
8
CUT
10
52.1998
20
116.5827
0
SEQEND
0
POLYLINE
8
CUT
66
1
70
0
0
VERTEX
8
CUT
10
53.785
20
117.3936
0
VERTEX
8
CUT
10
57.785
20
117.3936
0
VERTEX
8
CUT
10
59.785
20
114.6223
0
SEQEND
0
POLYLINE
8
CUT
66
1
70
0
0
VERTEX
8
CUT
10
52.9996
20
108
0
VERTEX
8
CUT
10
53.385
20
108.534
0
VERTEX
8
CUT
10
57.185
20
108.534
0
VERTEX
8
CUT
10
57.5704
20
108
0
SEQEND
0
LINE
8
CUT
10
51.7996
20
108
11
52.1998
21
108.5545
0
POLYLINE
8
CUT
66
1
70
0
0
VERTEX
8
CUT
10
53.785
20
109.3654
0
VERTEX
8
CUT
10
57.785
20
109.3654
0
VERTEX
8
CUT
10
58.7704
20
108
0
SEQEND
0
POLYLINE
8
CUT
66
1
70
0
0
VERTEX
8
CUT
10
62
20
131.3673
0
VERTEX
8
CUT
10
61.842
20
131.3673
0
VERTEX
8
CUT
10
59.942
20
134
0
VERTEX
8
CUT
10
61.842
20
136.6327
0
VERTEX
8
CUT
10
62
20
136.6327
0
SEQEND
0
POLYLINE
8
CUT
66
1
70
0
0
VERTEX
8
CUT
10
60.6568
20
131.3468
0
VERTEX
8
CUT
10
58.742
20
134
0
VERTEX
8
CUT
10
60.6568
20
136.6532
0
SEQEND
0
POLYLINE
8
CUT
66
1
70
0
0
VERTEX
8
CUT
10
62
20
123.3391
0
VERTEX
8
CUT
10
61.842
20
123.3391
0
VERTEX
8
CUT
10
59.942
20
125.9718
0
VERTEX
8
CUT
10
61.842
20
128.6045
0
VERTEX
8
CUT
10
62
20
128.6045
0
SEQEND
0
POLYLINE
8
CUT
66
1
70
0
0
VERTEX
8
CUT
10
60.6568
20
123.3186
0
VERTEX
8
CUT
10
58.742
20
125.9718
0
VERTEX
8
CUT
10
60.6568
20
128.625
0
SEQEND
0
POLYLINE
8
CUT
66
1
70
0
0
VERTEX
8
CUT
10
62
20
115.3109
0
VERTEX
8
CUT
10
61.842
20
115.3109
0
VERTEX
8
CUT
10
59.942
20
117.9436
0
VERTEX
8
CUT
10
61.842
20
120.5763
0
VERTEX
8
CUT
10
62
20
120.5763
0
SEQEND
0
POLYLINE
8
CUT
66
1
70
0
0
VERTEX
8
CUT
10
60.6568
20
115.2904
0
VERTEX
8
CUT
10
58.742
20
117.9436
0
VERTEX
8
CUT
10
60.6568
20
120.5968
0
SEQEND
0
POLYLINE
8
CUT
66
1
70
0
0
VERTEX
8
CUT
10
61.3243
20
108
0
VERTEX
8
CUT
10
59.942
20
109.9154
0
VERTEX
8
CUT
10
61.842
20
112.5481
0
VERTEX
8
CUT
10
62
20
112.5481
0
SEQEND
0
POLYLINE
8
CUT
66
1
70
0
0
VERTEX
8
CUT
10
60.1243
20
108
0
VERTEX
8
CUT
10
58.742
20
109.9154
0
VERTEX
8
CUT
10
60.6568
20
112.5686
0
SEQEND
0
LINE
8
CUT
10
2.5
20
108
11
2.5
21
111
0
LINE
8
CUT
10
5
20
108
11
5
21
111
0
POLYLINE
8
CUT
66
1
70
0
0
VERTEX
8
CUT
10
0
20
102
0
VERTEX
8
CUT
10
70
20
102
0
VERTEX
8
CUT
10
70
20
72
0
VERTEX
8
CUT
10
0
20
72
0
VERTEX
8
CUT
10
0
20
102
0
SEQEND
0
LINE
8
CUT
10
8.6968
20
101.3532
11
8
21
100.3877
0
LINE
8
CUT
10
8.6968
20
93.025
11
8
21
92.0595
0
LINE
8
CUT
10
8
20
95.6123
11
8.782
21
94.5287
0
LINE
8
CUT
10
8.6968
20
84.6968
11
8
21
83.7313
0
LINE
8
CUT
10
8
20
87.2841
11
8.782
21
86.2005
0
LINE
8
CUT
10
8.6968
20
76.3686
11
8
21
75.4031
0
LINE
8
CUT
10
8
20
78.9559
11
8.782
21
77.8723
0
POLYLINE
8
CUT
66
1
70
0
0
VERTEX
8
CUT
10
16.8
20
98
0
VERTEX
8
CUT
10
14.9
20
95.3673
0
VERTEX
8
CUT
10
11.1
20
95.3673
0
VERTEX
8
CUT
10
9.2
20
98
0
VERTEX
8
CUT
10
11.1
20
100.6327
0
VERTEX
8
CUT
10
14.9
20
100.6327
0
VERTEX
8
CUT
10
16.8
20
98
0
SEQEND
0
POLYLINE
8
CUT
66
1
70
0
0
VERTEX
8
CUT
10
17.4148
20
97.1891
0
VERTEX
8
CUT
10
15.5
20
94.5359
0
VERTEX
8
CUT
10
11.6704
20
94.5359
0
SEQEND
0
POLYLINE
8
CUT
66
1
70
0
0
VERTEX
8
CUT
10
9.9148
20
95.3468
0
VERTEX
8
CUT
10
8
20
98
0
VERTEX
8
CUT
10
9.9148
20
100.6532
0
SEQEND
0
POLYLINE
8
CUT
66
1
70
0
0
VERTEX
8
CUT
10
11.5
20
101.4641
0
VERTEX
8
CUT
10
15.5
20
101.4641
0
VERTEX
8
CUT
10
17.5
20
98.6928
0
SEQEND
0
POLYLINE
8
CUT
66
1
70
0
0
VERTEX
8
CUT
10
16.8
20
89.6718
0
VERTEX
8
CUT
10
14.9
20
87.0391
0
VERTEX
8
CUT
10
11.1
20
87.0391
0
VERTEX
8
CUT
10
9.2
20
89.6718
0
VERTEX
8
CUT
10
11.1
20
92.3045
0
VERTEX
8
CUT
10
14.9
20
92.3045
0
VERTEX
8
CUT
10
16.8
20
89.6718
0
SEQEND
0
POLYLINE
8
CUT
66
1
70
0
0
VERTEX
8
CUT
10
17.4148
20
88.8609
0
VERTEX
8
CUT
10
15.5
20
86.2077
0
VERTEX
8
CUT
10
11.6704
20
86.2077
0
SEQEND
0
POLYLINE
8
CUT
66
1
70
0
0
VERTEX
8
CUT
10
9.9148
20
87.0186
0
VERTEX
8
CUT
10
8
20
89.6718
0
VERTEX
8
CUT
10
9.9148
20
92.325
0
SEQEND
0
POLYLINE
8
CUT
66
1
70
0
0
VERTEX
8
CUT
10
11.5
20
93.1359
0
VERTEX
8
CUT
10
15.5
20
93.1359
0
VERTEX
8
CUT
10
17.5
20
90.3646
0
SEQEND
0
POLYLINE
8
CUT
66
1
70
0
0
VERTEX
8
CUT
10
16.8
20
81.3436
0
VERTEX
8
CUT
10
14.9
20
78.7109
0
VERTEX
8
CUT
10
11.1
20
78.7109
0
VERTEX
8
CUT
10
9.2
20
81.3436
0
VERTEX
8
CUT
10
11.1
20
83.9763
0
VERTEX
8
CUT
10
14.9
20
83.9763
0
VERTEX
8
CUT
10
16.8
20
81.3436
0
SEQEND
0
POLYLINE
8
CUT
66
1
70
0
0
VERTEX
8
CUT
10
17.4148
20
80.5327
0
VERTEX
8
CUT
10
15.5
20
77.8795
0
VERTEX
8
CUT
10
11.6704
20
77.8795
0
SEQEND
0
POLYLINE
8
CUT
66
1
70
0
0
VERTEX
8
CUT
10
9.9148
20
78.6904
0
VERTEX
8
CUT
10
8
20
81.3436
0
VERTEX
8
CUT
10
9.9148
20
83.9968
0
SEQEND
0
POLYLINE
8
CUT
66
1
70
0
0
VERTEX
8
CUT
10
11.5
20
84.8077
0
VERTEX
8
CUT
10
15.5
20
84.8077
0
VERTEX
8
CUT
10
17.5
20
82.0364
0
SEQEND
0
LINE
8
CUT
10
16.8
20
73.0154
11
16.0672
21
72
0
POLYLINE
8
CUT
66
1
70
0
0
VERTEX
8
CUT
10
9.9328
20
72
0
VERTEX
8
CUT
10
9.2
20
73.0154
0
VERTEX
8
CUT
10
11.1
20
75.6481
0
VERTEX
8
CUT
10
14.9
20
75.6481
0
VERTEX
8
CUT
10
16.8
20
73.0154
0
SEQEND
0
POLYLINE
8
CUT
66
1
70
0
0
VERTEX
8
CUT
10
8.7328
20
72
0
VERTEX
8
CUT
10
8
20
73.0154
0
VERTEX
8
CUT
10
9.9148
20
75.6686
0
SEQEND
0
POLYLINE
8
CUT
66
1
70
0
0
VERTEX
8
CUT
10
11.5
20
76.4795
0
VERTEX
8
CUT
10
15.5
20
76.4795
0
VERTEX
8
CUT
10
17.5
20
73.7082
0
SEQEND
0
POLYLINE
8
CUT
66
1
70
0
0
VERTEX
8
CUT
10
25.3996
20
102
0
VERTEX
8
CUT
10
23.618
20
99.5314
0
VERTEX
8
CUT
10
19.818
20
99.5314
0
VERTEX
8
CUT
10
18.0364
20
102
0
SEQEND
0
POLYLINE
8
CUT
66
1
70
0
0
VERTEX
8
CUT
10
26.1328
20
101.3532
0
VERTEX
8
CUT
10
24.218
20
98.7
0
VERTEX
8
CUT
10
20.3884
20
98.7
0
SEQEND
0
LINE
8
CUT
10
18.6328
20
99.5109
11
16.8364
21
102
0
POLYLINE
8
CUT
66
1
70
0
0
VERTEX
8
CUT
10
25.518
20
93.8359
0
VERTEX
8
CUT
10
23.618
20
91.2032
0
VERTEX
8
CUT
10
19.818
20
91.2032
0
VERTEX
8
CUT
10
17.918
20
93.8359
0
VERTEX
8
CUT
10
19.818
20
96.4686
0
VERTEX
8
CUT
10
23.618
20
96.4686
0
VERTEX
8
CUT
10
25.518
20
93.8359
0
SEQEND
0
POLYLINE
8
CUT
66
1
70
0
0
VERTEX
8
CUT
10
26.1328
20
93.025
0
VERTEX
8
CUT
10
24.218
20
90.3718
0
VERTEX
8
CUT
10
20.3884
20
90.3718
0
SEQEND
0
POLYLINE
8
CUT
66
1
70
0
0
VERTEX
8
CUT
10
18.6328
20
91.1827
0
VERTEX
8
CUT
10
16.718
20
93.8359
0
VERTEX
8
CUT
10
18.6328
20
96.4891
0
SEQEND
0
POLYLINE
8
CUT
66
1
70
0
0
VERTEX
8
CUT
10
20.218
20
97.3
0
VERTEX
8
CUT
10
24.218
20
97.3
0
VERTEX
8
CUT
10
26.218
20
94.5287
0
SEQEND
0
POLYLINE
8
CUT
66
1
70
0
0
VERTEX
8
CUT
10
25.518
20
85.5077
0
VERTEX
8
CUT
10
23.618
20
82.875
0
VERTEX
8
CUT
10
19.818
20
82.875
0
VERTEX
8
CUT
10
17.918
20
85.5077
0
VERTEX
8
CUT
10
19.818
20
88.1404
0
VERTEX
8
CUT
10
23.618
20
88.1404
0
VERTEX
8
CUT
10
25.518
20
85.5077
0
SEQEND
0
POLYLINE
8
CUT
66
1
70
0
0
VERTEX
8
CUT
10
26.1328
20
84.6968
0
VERTEX
8
CUT
10
24.218
20
82.0436
0
VERTEX
8
CUT
10
20.3884
20
82.0436
0
SEQEND
0
POLYLINE
8
CUT
66
1
70
0
0
VERTEX
8
CUT
10
18.6328
20
82.8545
0
VERTEX
8
CUT
10
16.718
20
85.5077
0
VERTEX
8
CUT
10
18.6328
20
88.1609
0
SEQEND
0
POLYLINE
8
CUT
66
1
70
0
0
VERTEX
8
CUT
10
20.218
20
88.9718
0
VERTEX
8
CUT
10
24.218
20
88.9718
0
VERTEX
8
CUT
10
26.218
20
86.2005
0
SEQEND
0
POLYLINE
8
CUT
66
1
70
0
0
VERTEX
8
CUT
10
25.518
20
77.1795
0
VERTEX
8
CUT
10
23.618
20
74.5468
0
VERTEX
8
CUT
10
19.818
20
74.5468
0
VERTEX
8
CUT
10
17.918
20
77.1795
0
VERTEX
8
CUT
10
19.818
20
79.8122
0
VERTEX
8
CUT
10
23.618
20
79.8122
0
VERTEX
8
CUT
10
25.518
20
77.1795
0
SEQEND
0
POLYLINE
8
CUT
66
1
70
0
0
VERTEX
8
CUT
10
26.1328
20
76.3686
0
VERTEX
8
CUT
10
24.218
20
73.7154
0
VERTEX
8
CUT
10
20.3884
20
73.7154
0
SEQEND
0
POLYLINE
8
CUT
66
1
70
0
0
VERTEX
8
CUT
10
18.6328
20
74.5263
0
VERTEX
8
CUT
10
16.718
20
77.1795
0
VERTEX
8
CUT
10
18.6328
20
79.8327
0
SEQEND
0
POLYLINE
8
CUT
66
1
70
0
0
VERTEX
8
CUT
10
20.218
20
80.6436
0
VERTEX
8
CUT
10
24.218
20
80.6436
0
VERTEX
8
CUT
10
26.218
20
77.8723
0
SEQEND
0
POLYLINE
8
CUT
66
1
70
0
0
VERTEX
8
CUT
10
20.218
20
72.3154
0
VERTEX
8
CUT
10
24.218
20
72.3154
0
VERTEX
8
CUT
10
24.4456
20
72
0
SEQEND
0
POLYLINE
8
CUT
66
1
70
0
0
VERTEX
8
CUT
10
34.236
20
98
0
VERTEX
8
CUT
10
32.336
20
95.3673
0
VERTEX
8
CUT
10
28.536
20
95.3673
0
VERTEX
8
CUT
10
26.636
20
98
0
VERTEX
8
CUT
10
28.536
20
100.6327
0
VERTEX
8
CUT
10
32.336
20
100.6327
0
VERTEX
8
CUT
10
34.236
20
98
0
SEQEND
0
POLYLINE
8
CUT
66
1
70
0
0
VERTEX
8
CUT
10
34.8508
20
97.1891
0
VERTEX
8
CUT
10
32.936
20
94.5359
0
VERTEX
8
CUT
10
29.1064
20
94.5359
0
SEQEND
0
POLYLINE
8
CUT
66
1
70
0
0
VERTEX
8
CUT
10
27.3508
20
95.3468
0
VERTEX
8
CUT
10
25.436
20
98
0
VERTEX
8
CUT
10
27.3508
20
100.6532
0
SEQEND
0
POLYLINE
8
CUT
66
1
70
0
0
VERTEX
8
CUT
10
28.936
20
101.4641
0
VERTEX
8
CUT
10
32.936
20
101.4641
0
VERTEX
8
CUT
10
34.936
20
98.6928
0
SEQEND
0
POLYLINE
8
CUT
66
1
70
0
0
VERTEX
8
CUT
10
34.236
20
89.6718
0
VERTEX
8
CUT
10
32.336
20
87.0391
0
VERTEX
8
CUT
10
28.536
20
87.0391
0
VERTEX
8
CUT
10
26.636
20
89.6718
0
VERTEX
8
CUT
10
28.536
20
92.3045
0
VERTEX
8
CUT
10
32.336
20
92.3045
0
VERTEX
8
CUT
10
34.236
20
89.6718
0
SEQEND
0
POLYLINE
8
CUT
66
1
70
0
0
VERTEX
8
CUT
10
34.8508
20
88.8609
0
VERTEX
8
CUT
10
32.936
20
86.2077
0
VERTEX
8
CUT
10
29.1064
20
86.2077
0
SEQEND
0
POLYLINE
8
CUT
66
1
70
0
0
VERTEX
8
CUT
10
27.3508
20
87.0186
0
VERTEX
8
CUT
10
25.436
20
89.6718
0
VERTEX
8
CUT
10
27.3508
20
92.325
0
SEQEND
0
POLYLINE
8
CUT
66
1
70
0
0
VERTEX
8
CUT
10
28.936
20
93.1359
0
VERTEX
8
CUT
10
32.936
20
93.1359
0
VERTEX
8
CUT
10
34.936
20
90.3646
0
SEQEND
0
POLYLINE
8
CUT
66
1
70
0
0
VERTEX
8
CUT
10
34.236
20
81.3436
0
VERTEX
8
CUT
10
32.336
20
78.7109
0
VERTEX
8
CUT
10
28.536
20
78.7109
0
VERTEX
8
CUT
10
26.636
20
81.3436
0
VERTEX
8
CUT
10
28.536
20
83.9763
0
VERTEX
8
CUT
10
32.336
20
83.9763
0
VERTEX
8
CUT
10
34.236
20
81.3436
0
SEQEND
0
POLYLINE
8
CUT
66
1
70
0
0
VERTEX
8
CUT
10
34.8508
20
80.5327
0
VERTEX
8
CUT
10
32.936
20
77.8795
0
VERTEX
8
CUT
10
29.1064
20
77.8795
0
SEQEND
0
POLYLINE
8
CUT
66
1
70
0
0
VERTEX
8
CUT
10
27.3508
20
78.6904
0
VERTEX
8
CUT
10
25.436
20
81.3436
0
VERTEX
8
CUT
10
27.3508
20
83.9968
0
SEQEND
0
POLYLINE
8
CUT
66
1
70
0
0
VERTEX
8
CUT
10
28.936
20
84.8077
0
VERTEX
8
CUT
10
32.936
20
84.8077
0
VERTEX
8
CUT
10
34.936
20
82.0364
0
SEQEND
0
LINE
8
CUT
10
34.236
20
73.0154
11
33.5032
21
72
0
POLYLINE
8
CUT
66
1
70
0
0
VERTEX
8
CUT
10
27.3688
20
72
0
VERTEX
8
CUT
10
26.636
20
73.0154
0
VERTEX
8
CUT
10
28.536
20
75.6481
0
VERTEX
8
CUT
10
32.336
20
75.6481
0
VERTEX
8
CUT
10
34.236
20
73.0154
0
SEQEND
0
POLYLINE
8
CUT
66
1
70
0
0
VERTEX
8
CUT
10
26.1688
20
72
0
VERTEX
8
CUT
10
25.436
20
73.0154
0
VERTEX
8
CUT
10
27.3508
20
75.6686
0
SEQEND
0
POLYLINE
8
CUT
66
1
70
0
0
VERTEX
8
CUT
10
28.936
20
76.4795
0
VERTEX
8
CUT
10
32.936
20
76.4795
0
VERTEX
8
CUT
10
34.936
20
73.7082
0
SEQEND
0
POLYLINE
8
CUT
66
1
70
0
0
VERTEX
8
CUT
10
42.8356
20
102
0
VERTEX
8
CUT
10
41.054
20
99.5314
0
VERTEX
8
CUT
10
37.254
20
99.5314
0
VERTEX
8
CUT
10
35.4724
20
102
0
SEQEND
0
POLYLINE
8
CUT
66
1
70
0
0
VERTEX
8
CUT
10
43.5688
20
101.3532
0
VERTEX
8
CUT
10
41.654
20
98.7
0
VERTEX
8
CUT
10
37.8244
20
98.7
0
SEQEND
0
LINE
8
CUT
10
36.0688
20
99.5109
11
34.2724
21
102
0
POLYLINE
8
CUT
66
1
70
0
0
VERTEX
8
CUT
10
42.954
20
93.8359
0
VERTEX
8
CUT
10
41.054
20
91.2032
0
VERTEX
8
CUT
10
37.254
20
91.2032
0
VERTEX
8
CUT
10
35.354
20
93.8359
0
VERTEX
8
CUT
10
37.254
20
96.4686
0
VERTEX
8
CUT
10
41.054
20
96.4686
0
VERTEX
8
CUT
10
42.954
20
93.8359
0
SEQEND
0
POLYLINE
8
CUT
66
1
70
0
0
VERTEX
8
CUT
10
43.5688
20
93.025
0
VERTEX
8
CUT
10
41.654
20
90.3718
0
VERTEX
8
CUT
10
37.8244
20
90.3718
0
SEQEND
0
POLYLINE
8
CUT
66
1
70
0
0
VERTEX
8
CUT
10
36.0688
20
91.1827
0
VERTEX
8
CUT
10
34.154
20
93.8359
0
VERTEX
8
CUT
10
36.0688
20
96.4891
0
SEQEND
0
POLYLINE
8
CUT
66
1
70
0
0
VERTEX
8
CUT
10
37.654
20
97.3
0
VERTEX
8
CUT
10
41.654
20
97.3
0
VERTEX
8
CUT
10
43.654
20
94.5287
0
SEQEND
0
POLYLINE
8
CUT
66
1
70
0
0
VERTEX
8
CUT
10
42.954
20
85.5077
0
VERTEX
8
CUT
10
41.054
20
82.875
0
VERTEX
8
CUT
10
37.254
20
82.875
0
VERTEX
8
CUT
10
35.354
20
85.5077
0
VERTEX
8
CUT
10
37.254
20
88.1404
0
VERTEX
8
CUT
10
41.054
20
88.1404
0
VERTEX
8
CUT
10
42.954
20
85.5077
0
SEQEND
0
POLYLINE
8
CUT
66
1
70
0
0
VERTEX
8
CUT
10
43.5688
20
84.6968
0
VERTEX
8
CUT
10
41.654
20
82.0436
0
VERTEX
8
CUT
10
37.8244
20
82.0436
0
SEQEND
0
POLYLINE
8
CUT
66
1
70
0
0
VERTEX
8
CUT
10
36.0688
20
82.8545
0
VERTEX
8
CUT
10
34.154
20
85.5077
0
VERTEX
8
CUT
10
36.0688
20
88.1609
0
SEQEND
0
POLYLINE
8
CUT
66
1
70
0
0
VERTEX
8
CUT
10
37.654
20
88.9718
0
VERTEX
8
CUT
10
41.654
20
88.9718
0
VERTEX
8
CUT
10
43.654
20
86.2005
0
SEQEND
0
POLYLINE
8
CUT
66
1
70
0
0
VERTEX
8
CUT
10
42.954
20
77.1795
0
VERTEX
8
CUT
10
41.054
20
74.5468
0
VERTEX
8
CUT
10
37.254
20
74.5468
0
VERTEX
8
CUT
10
35.354
20
77.1795
0
VERTEX
8
CUT
10
37.254
20
79.8122
0
VERTEX
8
CUT
10
41.054
20
79.8122
0
VERTEX
8
CUT
10
42.954
20
77.1795
0
SEQEND
0
POLYLINE
8
CUT
66
1
70
0
0
VERTEX
8
CUT
10
43.5688
20
76.3686
0
VERTEX
8
CUT
10
41.654
20
73.7154
0
VERTEX
8
CUT
10
37.8244
20
73.7154
0
SEQEND
0
POLYLINE
8
CUT
66
1
70
0
0
VERTEX
8
CUT
10
36.0688
20
74.5263
0
VERTEX
8
CUT
10
34.154
20
77.1795
0
VERTEX
8
CUT
10
36.0688
20
79.8327
0
SEQEND
0
POLYLINE
8
CUT
66
1
70
0
0
VERTEX
8
CUT
10
37.654
20
80.6436
0
VERTEX
8
CUT
10
41.654
20
80.6436
0
VERTEX
8
CUT
10
43.654
20
77.8723
0
SEQEND
0
POLYLINE
8
CUT
66
1
70
0
0
VERTEX
8
CUT
10
37.654
20
72.3154
0
VERTEX
8
CUT
10
41.654
20
72.3154
0
VERTEX
8
CUT
10
41.8816
20
72
0
SEQEND
0
POLYLINE
8
CUT
66
1
70
0
0
VERTEX
8
CUT
10
51.672
20
98
0
VERTEX
8
CUT
10
49.772
20
95.3673
0
VERTEX
8
CUT
10
45.972
20
95.3673
0
VERTEX
8
CUT
10
44.072
20
98
0
VERTEX
8
CUT
10
45.972
20
100.6327
0
VERTEX
8
CUT
10
49.772
20
100.6327
0
VERTEX
8
CUT
10
51.672
20
98
0
SEQEND
0
POLYLINE
8
CUT
66
1
70
0
0
VERTEX
8
CUT
10
52.2868
20
97.1891
0
VERTEX
8
CUT
10
50.372
20
94.5359
0
VERTEX
8
CUT
10
46.5424
20
94.5359
0
SEQEND
0
POLYLINE
8
CUT
66
1
70
0
0
VERTEX
8
CUT
10
44.7868
20
95.3468
0
VERTEX
8
CUT
10
42.872
20
98
0
VERTEX
8
CUT
10
44.7868
20
100.6532
0
SEQEND
0
POLYLINE
8
CUT
66
1
70
0
0
VERTEX
8
CUT
10
46.372
20
101.4641
0
VERTEX
8
CUT
10
50.372
20
101.4641
0
VERTEX
8
CUT
10
52.372
20
98.6928
0
SEQEND
0
POLYLINE
8
CUT
66
1
70
0
0
VERTEX
8
CUT
10
51.672
20
89.6718
0
VERTEX
8
CUT
10
49.772
20
87.0391
0
VERTEX
8
CUT
10
45.972
20
87.0391
0
VERTEX
8
CUT
10
44.072
20
89.6718
0
VERTEX
8
CUT
10
45.972
20
92.3045
0
VERTEX
8
CUT
10
49.772
20
92.3045
0
VERTEX
8
CUT
10
51.672
20
89.6718
0
SEQEND
0
POLYLINE
8
CUT
66
1
70
0
0
VERTEX
8
CUT
10
52.2868
20
88.8609
0
VERTEX
8
CUT
10
50.372
20
86.2077
0
VERTEX
8
CUT
10
46.5424
20
86.2077
0
SEQEND
0
POLYLINE
8
CUT
66
1
70
0
0
VERTEX
8
CUT
10
44.7868
20
87.0186
0
VERTEX
8
CUT
10
42.872
20
89.6718
0
VERTEX
8
CUT
10
44.7868
20
92.325
0
SEQEND
0
POLYLINE
8
CUT
66
1
70
0
0
VERTEX
8
CUT
10
46.372
20
93.1359
0
VERTEX
8
CUT
10
50.372
20
93.1359
0
VERTEX
8
CUT
10
52.372
20
90.3646
0
SEQEND
0
POLYLINE
8
CUT
66
1
70
0
0
VERTEX
8
CUT
10
51.672
20
81.3436
0
VERTEX
8
CUT
10
49.772
20
78.7109
0
VERTEX
8
CUT
10
45.972
20
78.7109
0
VERTEX
8
CUT
10
44.072
20
81.3436
0
VERTEX
8
CUT
10
45.972
20
83.9763
0
VERTEX
8
CUT
10
49.772
20
83.9763
0
VERTEX
8
CUT
10
51.672
20
81.3436
0
SEQEND
0
POLYLINE
8
CUT
66
1
70
0
0
VERTEX
8
CUT
10
52.2868
20
80.5327
0
VERTEX
8
CUT
10
50.372
20
77.8795
0
VERTEX
8
CUT
10
46.5424
20
77.8795
0
SEQEND
0
POLYLINE
8
CUT
66
1
70
0
0
VERTEX
8
CUT
10
44.7868
20
78.6904
0
VERTEX
8
CUT
10
42.872
20
81.3436
0
VERTEX
8
CUT
10
44.7868
20
83.9968
0
SEQEND
0
POLYLINE
8
CUT
66
1
70
0
0
VERTEX
8
CUT
10
46.372
20
84.8077
0
VERTEX
8
CUT
10
50.372
20
84.8077
0
VERTEX
8
CUT
10
52.372
20
82.0364
0
SEQEND
0
LINE
8
CUT
10
51.672
20
73.0154
11
50.9392
21
72
0
POLYLINE
8
CUT
66
1
70
0
0
VERTEX
8
CUT
10
44.8048
20
72
0
VERTEX
8
CUT
10
44.072
20
73.0154
0
VERTEX
8
CUT
10
45.972
20
75.6481
0
VERTEX
8
CUT
10
49.772
20
75.6481
0
VERTEX
8
CUT
10
51.672
20
73.0154
0
SEQEND
0
POLYLINE
8
CUT
66
1
70
0
0
VERTEX
8
CUT
10
43.6048
20
72
0
VERTEX
8
CUT
10
42.872
20
73.0154
0
VERTEX
8
CUT
10
44.7868
20
75.6686
0
SEQEND
0
POLYLINE
8
CUT
66
1
70
0
0
VERTEX
8
CUT
10
46.372
20
76.4795
0
VERTEX
8
CUT
10
50.372
20
76.4795
0
VERTEX
8
CUT
10
52.372
20
73.7082
0
SEQEND
0
POLYLINE
8
CUT
66
1
70
0
0
VERTEX
8
CUT
10
60.2716
20
102
0
VERTEX
8
CUT
10
58.49
20
99.5314
0
VERTEX
8
CUT
10
54.69
20
99.5314
0
VERTEX
8
CUT
10
52.9084
20
102
0
SEQEND
0
POLYLINE
8
CUT
66
1
70
0
0
VERTEX
8
CUT
10
61.0048
20
101.3532
0
VERTEX
8
CUT
10
59.09
20
98.7
0
VERTEX
8
CUT
10
55.2604
20
98.7
0
SEQEND
0
LINE
8
CUT
10
53.5048
20
99.5109
11
51.7084
21
102
0
POLYLINE
8
CUT
66
1
70
0
0
VERTEX
8
CUT
10
60.39
20
93.8359
0
VERTEX
8
CUT
10
58.49
20
91.2032
0
VERTEX
8
CUT
10
54.69
20
91.2032
0
VERTEX
8
CUT
10
52.79
20
93.8359
0
VERTEX
8
CUT
10
54.69
20
96.4686
0
VERTEX
8
CUT
10
58.49
20
96.4686
0
VERTEX
8
CUT
10
60.39
20
93.8359
0
SEQEND
0
POLYLINE
8
CUT
66
1
70
0
0
VERTEX
8
CUT
10
61.0048
20
93.025
0
VERTEX
8
CUT
10
59.09
20
90.3718
0
VERTEX
8
CUT
10
55.2604
20
90.3718
0
SEQEND
0
POLYLINE
8
CUT
66
1
70
0
0
VERTEX
8
CUT
10
53.5048
20
91.1827
0
VERTEX
8
CUT
10
51.59
20
93.8359
0
VERTEX
8
CUT
10
53.5048
20
96.4891
0
SEQEND
0
POLYLINE
8
CUT
66
1
70
0
0
VERTEX
8
CUT
10
55.09
20
97.3
0
VERTEX
8
CUT
10
59.09
20
97.3
0
VERTEX
8
CUT
10
61.09
20
94.5287
0
SEQEND
0
POLYLINE
8
CUT
66
1
70
0
0
VERTEX
8
CUT
10
60.39
20
85.5077
0
VERTEX
8
CUT
10
58.49
20
82.875
0
VERTEX
8
CUT
10
54.69
20
82.875
0
VERTEX
8
CUT
10
52.79
20
85.5077
0
VERTEX
8
CUT
10
54.69
20
88.1404
0
VERTEX
8
CUT
10
58.49
20
88.1404
0
VERTEX
8
CUT
10
60.39
20
85.5077
0
SEQEND
0
POLYLINE
8
CUT
66
1
70
0
0
VERTEX
8
CUT
10
61.0048
20
84.6968
0
VERTEX
8
CUT
10
59.09
20
82.0436
0
VERTEX
8
CUT
10
55.2604
20
82.0436
0
SEQEND
0
POLYLINE
8
CUT
66
1
70
0
0
VERTEX
8
CUT
10
53.5048
20
82.8545
0
VERTEX
8
CUT
10
51.59
20
85.5077
0
VERTEX
8
CUT
10
53.5048
20
88.1609
0
SEQEND
0
POLYLINE
8
CUT
66
1
70
0
0
VERTEX
8
CUT
10
55.09
20
88.9718
0
VERTEX
8
CUT
10
59.09
20
88.9718
0
VERTEX
8
CUT
10
61.09
20
86.2005
0
SEQEND
0
POLYLINE
8
CUT
66
1
70
0
0
VERTEX
8
CUT
10
60.39
20
77.1795
0
VERTEX
8
CUT
10
58.49
20
74.5468
0
VERTEX
8
CUT
10
54.69
20
74.5468
0
VERTEX
8
CUT
10
52.79
20
77.1795
0
VERTEX
8
CUT
10
54.69
20
79.8122
0
VERTEX
8
CUT
10
58.49
20
79.8122
0
VERTEX
8
CUT
10
60.39
20
77.1795
0
SEQEND
0
POLYLINE
8
CUT
66
1
70
0
0
VERTEX
8
CUT
10
61.0048
20
76.3686
0
VERTEX
8
CUT
10
59.09
20
73.7154
0
VERTEX
8
CUT
10
55.2604
20
73.7154
0
SEQEND
0
POLYLINE
8
CUT
66
1
70
0
0
VERTEX
8
CUT
10
53.5048
20
74.5263
0
VERTEX
8
CUT
10
51.59
20
77.1795
0
VERTEX
8
CUT
10
53.5048
20
79.8327
0
SEQEND
0
POLYLINE
8
CUT
66
1
70
0
0
VERTEX
8
CUT
10
55.09
20
80.6436
0
VERTEX
8
CUT
10
59.09
20
80.6436
0
VERTEX
8
CUT
10
61.09
20
77.8723
0
SEQEND
0
POLYLINE
8
CUT
66
1
70
0
0
VERTEX
8
CUT
10
55.09
20
72.3154
0
VERTEX
8
CUT
10
59.09
20
72.3154
0
VERTEX
8
CUT
10
59.3176
20
72
0
SEQEND
0
POLYLINE
8
CUT
66
1
70
0
0
VERTEX
8
CUT
10
62
20
97.3183
0
VERTEX
8
CUT
10
61.508
20
98
0
VERTEX
8
CUT
10
62
20
98.6817
0
SEQEND
0
POLYLINE
8
CUT
66
1
70
0
0
VERTEX
8
CUT
10
62
20
95.6555
0
VERTEX
8
CUT
10
60.308
20
98
0
VERTEX
8
CUT
10
62
20
100.3445
0
SEQEND
0
POLYLINE
8
CUT
66
1
70
0
0
VERTEX
8
CUT
10
62
20
88.9901
0
VERTEX
8
CUT
10
61.508
20
89.6718
0
VERTEX
8
CUT
10
62
20
90.3535
0
SEQEND
0
POLYLINE
8
CUT
66
1
70
0
0
VERTEX
8
CUT
10
62
20
87.3273
0
VERTEX
8
CUT
10
60.308
20
89.6718
0
VERTEX
8
CUT
10
62
20
92.0163
0
SEQEND
0
POLYLINE
8
CUT
66
1
70
0
0
VERTEX
8
CUT
10
62
20
80.6619
0
VERTEX
8
CUT
10
61.508
20
81.3436
0
VERTEX
8
CUT
10
62
20
82.0253
0
SEQEND
0
POLYLINE
8
CUT
66
1
70
0
0
VERTEX
8
CUT
10
62
20
78.9991
0
VERTEX
8
CUT
10
60.308
20
81.3436
0
VERTEX
8
CUT
10
62
20
83.6881
0
SEQEND
0
POLYLINE
8
CUT
66
1
70
0
0
VERTEX
8
CUT
10
62
20
72.3337
0
VERTEX
8
CUT
10
61.508
20
73.0154
0
VERTEX
8
CUT
10
62
20
73.6971
0
SEQEND
0
POLYLINE
8
CUT
66
1
70
0
0
VERTEX
8
CUT
10
61.0408
20
72
0
VERTEX
8
CUT
10
60.308
20
73.0154
0
VERTEX
8
CUT
10
62
20
75.3599
0
SEQEND
0
LINE
8
CUT
10
2.5
20
72
11
2.5
21
75
0
LINE
8
CUT
10
5
20
72
11
5
21
75
0
LINE
8
CUT
10
7.5
20
72
11
7.5
21
75
0
POLYLINE
8
CUT
66
1
70
0
0
VERTEX
8
CUT
10
0
20
66
0
VERTEX
8
CUT
10
70
20
66
0
VERTEX
8
CUT
10
70
20
36
0
VERTEX
8
CUT
10
0
20
36
0
VERTEX
8
CUT
10
0
20
66
0
SEQEND
0
LINE
8
CUT
10
8.4358
20
65.5032
11
8
21
64.8994
0
LINE
8
CUT
10
8.4358
20
56.875
11
8
21
56.2712
0
LINE
8
CUT
10
8
20
59.1006
11
8.521
21
58.3787
0
LINE
8
CUT
10
8.4358
20
48.2468
11
8
21
47.643
0
LINE
8
CUT
10
8
20
50.4724
11
8.521
21
49.7505
0
LINE
8
CUT
10
8.4358
20
39.6186
11
8
21
39.0148
0
LINE
8
CUT
10
8
20
41.8442
11
8.521
21
41.1223
0
POLYLINE
8
CUT
66
1
70
0
0
VERTEX
8
CUT
10
16.8
20
62
0
VERTEX
8
CUT
10
14.9
20
59.3673
0
VERTEX
8
CUT
10
11.1
20
59.3673
0
VERTEX
8
CUT
10
9.2
20
62
0
VERTEX
8
CUT
10
11.1
20
64.6327
0
VERTEX
8
CUT
10
14.9
20
64.6327
0
VERTEX
8
CUT
10
16.8
20
62
0
SEQEND
0
POLYLINE
8
CUT
66
1
70
0
0
VERTEX
8
CUT
10
17.4148
20
61.1891
0
VERTEX
8
CUT
10
15.5
20
58.5359
0
VERTEX
8
CUT
10
11.6704
20
58.5359
0
SEQEND
0
POLYLINE
8
CUT
66
1
70
0
0
VERTEX
8
CUT
10
9.9148
20
59.3468
0
VERTEX
8
CUT
10
8
20
62
0
VERTEX
8
CUT
10
9.9148
20
64.6532
0
SEQEND
0
POLYLINE
8
CUT
66
1
70
0
0
VERTEX
8
CUT
10
11.5
20
65.4641
0
VERTEX
8
CUT
10
15.5
20
65.4641
0
VERTEX
8
CUT
10
17.5
20
62.6928
0
SEQEND
0
POLYLINE
8
CUT
66
1
70
0
0
VERTEX
8
CUT
10
16.8
20
53.3718
0
VERTEX
8
CUT
10
14.9
20
50.7391
0
VERTEX
8
CUT
10
11.1
20
50.7391
0
VERTEX
8
CUT
10
9.2
20
53.3718
0
VERTEX
8
CUT
10
11.1
20
56.0045
0
VERTEX
8
CUT
10
14.9
20
56.0045
0
VERTEX
8
CUT
10
16.8
20
53.3718
0
SEQEND
0
POLYLINE
8
CUT
66
1
70
0
0
VERTEX
8
CUT
10
17.4148
20
52.5609
0
VERTEX
8
CUT
10
15.5
20
49.9077
0
VERTEX
8
CUT
10
11.6704
20
49.9077
0
SEQEND
0
POLYLINE
8
CUT
66
1
70
0
0
VERTEX
8
CUT
10
9.9148
20
50.7186
0
VERTEX
8
CUT
10
8
20
53.3718
0
VERTEX
8
CUT
10
9.9148
20
56.025
0
SEQEND
0
POLYLINE
8
CUT
66
1
70
0
0
VERTEX
8
CUT
10
11.5
20
56.8359
0
VERTEX
8
CUT
10
15.5
20
56.8359
0
VERTEX
8
CUT
10
17.5
20
54.0646
0
SEQEND
0
POLYLINE
8
CUT
66
1
70
0
0
VERTEX
8
CUT
10
16.8
20
44.7436
0
VERTEX
8
CUT
10
14.9
20
42.1109
0
VERTEX
8
CUT
10
11.1
20
42.1109
0
VERTEX
8
CUT
10
9.2
20
44.7436
0
VERTEX
8
CUT
10
11.1
20
47.3763
0
VERTEX
8
CUT
10
14.9
20
47.3763
0
VERTEX
8
CUT
10
16.8
20
44.7436
0
SEQEND
0
POLYLINE
8
CUT
66
1
70
0
0
VERTEX
8
CUT
10
17.4148
20
43.9327
0
VERTEX
8
CUT
10
15.5
20
41.2795
0
VERTEX
8
CUT
10
11.6704
20
41.2795
0
SEQEND
0
POLYLINE
8
CUT
66
1
70
0
0
VERTEX
8
CUT
10
9.9148
20
42.0904
0
VERTEX
8
CUT
10
8
20
44.7436
0
VERTEX
8
CUT
10
9.9148
20
47.3968
0
SEQEND
0
POLYLINE
8
CUT
66
1
70
0
0
VERTEX
8
CUT
10
11.5
20
48.2077
0
VERTEX
8
CUT
10
15.5
20
48.2077
0
VERTEX
8
CUT
10
17.5
20
45.4364
0
SEQEND
0
POLYLINE
8
CUT
66
1
70
0
0
VERTEX
8
CUT
10
9.2833
20
36
0
VERTEX
8
CUT
10
9.2
20
36.1154
0
VERTEX
8
CUT
10
11.1
20
38.7481
0
VERTEX
8
CUT
10
14.9
20
38.7481
0
VERTEX
8
CUT
10
16.8
20
36.1154
0
SEQEND
0
POLYLINE
8
CUT
66
1
70
0
0
VERTEX
8
CUT
10
8.0833
20
36
0
VERTEX
8
CUT
10
8
20
36.1154
0
VERTEX
8
CUT
10
9.9148
20
38.7686
0
SEQEND
0
POLYLINE
8
CUT
66
1
70
0
0
VERTEX
8
CUT
10
11.5
20
39.5795
0
VERTEX
8
CUT
10
15.5
20
39.5795
0
VERTEX
8
CUT
10
17.5
20
36.8082
0
SEQEND
0
POLYLINE
8
CUT
66
1
70
0
0
VERTEX
8
CUT
10
25.5523
20
66
0
VERTEX
8
CUT
10
23.879
20
63.6814
0
VERTEX
8
CUT
10
20.079
20
63.6814
0
VERTEX
8
CUT
10
18.4057
20
66
0
SEQEND
0
POLYLINE
8
CUT
66
1
70
0
0
VERTEX
8
CUT
10
26.3938
20
65.5032
0
VERTEX
8
CUT
10
24.479
20
62.85
0
VERTEX
8
CUT
10
20.6494
20
62.85
0
SEQEND
0
LINE
8
CUT
10
18.8938
20
63.6609
11
17.2057
21
66
0
POLYLINE
8
CUT
66
1
70
0
0
VERTEX
8
CUT
10
25.779
20
57.6859
0
VERTEX
8
CUT
10
23.879
20
55.0532
0
VERTEX
8
CUT
10
20.079
20
55.0532
0
VERTEX
8
CUT
10
18.179
20
57.6859
0
VERTEX
8
CUT
10
20.079
20
60.3186
0
VERTEX
8
CUT
10
23.879
20
60.3186
0
VERTEX
8
CUT
10
25.779
20
57.6859
0
SEQEND
0
POLYLINE
8
CUT
66
1
70
0
0
VERTEX
8
CUT
10
26.3938
20
56.875
0
VERTEX
8
CUT
10
24.479
20
54.2218
0
VERTEX
8
CUT
10
20.6494
20
54.2218
0
SEQEND
0
POLYLINE
8
CUT
66
1
70
0
0
VERTEX
8
CUT
10
18.8938
20
55.0327
0
VERTEX
8
CUT
10
16.979
20
57.6859
0
VERTEX
8
CUT
10
18.8938
20
60.3391
0
SEQEND
0
POLYLINE
8
CUT
66
1
70
0
0
VERTEX
8
CUT
10
20.479
20
61.15
0
VERTEX
8
CUT
10
24.479
20
61.15
0
VERTEX
8
CUT
10
26.479
20
58.3787
0
SEQEND
0
POLYLINE
8
CUT
66
1
70
0
0
VERTEX
8
CUT
10
25.779
20
49.0577
0
VERTEX
8
CUT
10
23.879
20
46.425
0
VERTEX
8
CUT
10
20.079
20
46.425
0
VERTEX
8
CUT
10
18.179
20
49.0577
0
VERTEX
8
CUT
10
20.079
20
51.6904
0
VERTEX
8
CUT
10
23.879
20
51.6904
0
VERTEX
8
CUT
10
25.779
20
49.0577
0
SEQEND
0
POLYLINE
8
CUT
66
1
70
0
0
VERTEX
8
CUT
10
26.3938
20
48.2468
0
VERTEX
8
CUT
10
24.479
20
45.5936
0
VERTEX
8
CUT
10
20.6494
20
45.5936
0
SEQEND
0
POLYLINE
8
CUT
66
1
70
0
0
VERTEX
8
CUT
10
18.8938
20
46.4045
0
VERTEX
8
CUT
10
16.979
20
49.0577
0
VERTEX
8
CUT
10
18.8938
20
51.7109
0
SEQEND
0
POLYLINE
8
CUT
66
1
70
0
0
VERTEX
8
CUT
10
20.479
20
52.5218
0
VERTEX
8
CUT
10
24.479
20
52.5218
0
VERTEX
8
CUT
10
26.479
20
49.7505
0
SEQEND
0
POLYLINE
8
CUT
66
1
70
0
0
VERTEX
8
CUT
10
25.779
20
40.4295
0
VERTEX
8
CUT
10
23.879
20
37.7968
0
VERTEX
8
CUT
10
20.079
20
37.7968
0
VERTEX
8
CUT
10
18.179
20
40.4295
0
VERTEX
8
CUT
10
20.079
20
43.0622
0
VERTEX
8
CUT
10
23.879
20
43.0622
0
VERTEX
8
CUT
10
25.779
20
40.4295
0
SEQEND
0
POLYLINE
8
CUT
66
1
70
0
0
VERTEX
8
CUT
10
26.3938
20
39.6186
0
VERTEX
8
CUT
10
24.479
20
36.9654
0
VERTEX
8
CUT
10
20.6494
20
36.9654
0
SEQEND
0
POLYLINE
8
CUT
66
1
70
0
0
VERTEX
8
CUT
10
18.8938
20
37.7763
0
VERTEX
8
CUT
10
16.979
20
40.4295
0
VERTEX
8
CUT
10
18.8938
20
43.0827
0
SEQEND
0
POLYLINE
8
CUT
66
1
70
0
0
VERTEX
8
CUT
10
20.479
20
43.8936
0
VERTEX
8
CUT
10
24.479
20
43.8936
0
VERTEX
8
CUT
10
26.479
20
41.1223
0
SEQEND
0
POLYLINE
8
CUT
66
1
70
0
0
VERTEX
8
CUT
10
34.758
20
62
0
VERTEX
8
CUT
10
32.858
20
59.3673
0
VERTEX
8
CUT
10
29.058
20
59.3673
0
VERTEX
8
CUT
10
27.158
20
62
0
VERTEX
8
CUT
10
29.058
20
64.6327
0
VERTEX
8
CUT
10
32.858
20
64.6327
0
VERTEX
8
CUT
10
34.758
20
62
0
SEQEND
0
POLYLINE
8
CUT
66
1
70
0
0
VERTEX
8
CUT
10
35.3728
20
61.1891
0
VERTEX
8
CUT
10
33.458
20
58.5359
0
VERTEX
8
CUT
10
29.6284
20
58.5359
0
SEQEND
0
POLYLINE
8
CUT
66
1
70
0
0
VERTEX
8
CUT
10
27.8728
20
59.3468
0
VERTEX
8
CUT
10
25.958
20
62
0
VERTEX
8
CUT
10
27.8728
20
64.6532
0
SEQEND
0
POLYLINE
8
CUT
66
1
70
0
0
VERTEX
8
CUT
10
29.458
20
65.4641
0
VERTEX
8
CUT
10
33.458
20
65.4641
0
VERTEX
8
CUT
10
35.458
20
62.6928
0
SEQEND
0
POLYLINE
8
CUT
66
1
70
0
0
VERTEX
8
CUT
10
34.758
20
53.3718
0
VERTEX
8
CUT
10
32.858
20
50.7391
0
VERTEX
8
CUT
10
29.058
20
50.7391
0
VERTEX
8
CUT
10
27.158
20
53.3718
0
VERTEX
8
CUT
10
29.058
20
56.0045
0
VERTEX
8
CUT
10
32.858
20
56.0045
0
VERTEX
8
CUT
10
34.758
20
53.3718
0
SEQEND
0
POLYLINE
8
CUT
66
1
70
0
0
VERTEX
8
CUT
10
35.3728
20
52.5609
0
VERTEX
8
CUT
10
33.458
20
49.9077
0
VERTEX
8
CUT
10
29.6284
20
49.9077
0
SEQEND
0
POLYLINE
8
CUT
66
1
70
0
0
VERTEX
8
CUT
10
27.8728
20
50.7186
0
VERTEX
8
CUT
10
25.958
20
53.3718
0
VERTEX
8
CUT
10
27.8728
20
56.025
0
SEQEND
0
POLYLINE
8
CUT
66
1
70
0
0
VERTEX
8
CUT
10
29.458
20
56.8359
0
VERTEX
8
CUT
10
33.458
20
56.8359
0
VERTEX
8
CUT
10
35.458
20
54.0646
0
SEQEND
0
POLYLINE
8
CUT
66
1
70
0
0
VERTEX
8
CUT
10
34.758
20
44.7436
0
VERTEX
8
CUT
10
32.858
20
42.1109
0
VERTEX
8
CUT
10
29.058
20
42.1109
0
VERTEX
8
CUT
10
27.158
20
44.7436
0
VERTEX
8
CUT
10
29.058
20
47.3763
0
VERTEX
8
CUT
10
32.858
20
47.3763
0
VERTEX
8
CUT
10
34.758
20
44.7436
0
SEQEND
0
POLYLINE
8
CUT
66
1
70
0
0
VERTEX
8
CUT
10
35.3728
20
43.9327
0
VERTEX
8
CUT
10
33.458
20
41.2795
0
VERTEX
8
CUT
10
29.6284
20
41.2795
0
SEQEND
0
POLYLINE
8
CUT
66
1
70
0
0
VERTEX
8
CUT
10
27.8728
20
42.0904
0
VERTEX
8
CUT
10
25.958
20
44.7436
0
VERTEX
8
CUT
10
27.8728
20
47.3968
0
SEQEND
0
POLYLINE
8
CUT
66
1
70
0
0
VERTEX
8
CUT
10
29.458
20
48.2077
0
VERTEX
8
CUT
10
33.458
20
48.2077
0
VERTEX
8
CUT
10
35.458
20
45.4364
0
SEQEND
0
POLYLINE
8
CUT
66
1
70
0
0
VERTEX
8
CUT
10
27.2413
20
36
0
VERTEX
8
CUT
10
27.158
20
36.1154
0
VERTEX
8
CUT
10
29.058
20
38.7481
0
VERTEX
8
CUT
10
32.858
20
38.7481
0
VERTEX
8
CUT
10
34.758
20
36.1154
0
SEQEND
0
POLYLINE
8
CUT
66
1
70
0
0
VERTEX
8
CUT
10
26.0413
20
36
0
VERTEX
8
CUT
10
25.958
20
36.1154
0
VERTEX
8
CUT
10
27.8728
20
38.7686
0
SEQEND
0
POLYLINE
8
CUT
66
1
70
0
0
VERTEX
8
CUT
10
29.458
20
39.5795
0
VERTEX
8
CUT
10
33.458
20
39.5795
0
VERTEX
8
CUT
10
35.458
20
36.8082
0
SEQEND
0
POLYLINE
8
CUT
66
1
70
0
0
VERTEX
8
CUT
10
43.5103
20
66
0
VERTEX
8
CUT
10
41.837
20
63.6814
0
VERTEX
8
CUT
10
38.037
20
63.6814
0
VERTEX
8
CUT
10
36.3637
20
66
0
SEQEND
0
POLYLINE
8
CUT
66
1
70
0
0
VERTEX
8
CUT
10
44.3518
20
65.5032
0
VERTEX
8
CUT
10
42.437
20
62.85
0
VERTEX
8
CUT
10
38.6074
20
62.85
0
SEQEND
0
LINE
8
CUT
10
36.8518
20
63.6609
11
35.1637
21
66
0
POLYLINE
8
CUT
66
1
70
0
0
VERTEX
8
CUT
10
43.737
20
57.6859
0
VERTEX
8
CUT
10
41.837
20
55.0532
0
VERTEX
8
CUT
10
38.037
20
55.0532
0
VERTEX
8
CUT
10
36.137
20
57.6859
0
VERTEX
8
CUT
10
38.037
20
60.3186
0
VERTEX
8
CUT
10
41.837
20
60.3186
0
VERTEX
8
CUT
10
43.737
20
57.6859
0
SEQEND
0
POLYLINE
8
CUT
66
1
70
0
0
VERTEX
8
CUT
10
44.3518
20
56.875
0
VERTEX
8
CUT
10
42.437
20
54.2218
0
VERTEX
8
CUT
10
38.6074
20
54.2218
0
SEQEND
0
POLYLINE
8
CUT
66
1
70
0
0
VERTEX
8
CUT
10
36.8518
20
55.0327
0
VERTEX
8
CUT
10
34.937
20
57.6859
0
VERTEX
8
CUT
10
36.8518
20
60.3391
0
SEQEND
0
POLYLINE
8
CUT
66
1
70
0
0
VERTEX
8
CUT
10
38.437
20
61.15
0
VERTEX
8
CUT
10
42.437
20
61.15
0
VERTEX
8
CUT
10
44.437
20
58.3787
0
SEQEND
0
POLYLINE
8
CUT
66
1
70
0
0
VERTEX
8
CUT
10
43.737
20
49.0577
0
VERTEX
8
CUT
10
41.837
20
46.425
0
VERTEX
8
CUT
10
38.037
20
46.425
0
VERTEX
8
CUT
10
36.137
20
49.0577
0
VERTEX
8
CUT
10
38.037
20
51.6904
0
VERTEX
8
CUT
10
41.837
20
51.6904
0
VERTEX
8
CUT
10
43.737
20
49.0577
0
SEQEND
0
POLYLINE
8
CUT
66
1
70
0
0
VERTEX
8
CUT
10
44.3518
20
48.2468
0
VERTEX
8
CUT
10
42.437
20
45.5936
0
VERTEX
8
CUT
10
38.6074
20
45.5936
0
SEQEND
0
POLYLINE
8
CUT
66
1
70
0
0
VERTEX
8
CUT
10
36.8518
20
46.4045
0
VERTEX
8
CUT
10
34.937
20
49.0577
0
VERTEX
8
CUT
10
36.8518
20
51.7109
0
SEQEND
0
POLYLINE
8
CUT
66
1
70
0
0
VERTEX
8
CUT
10
38.437
20
52.5218
0
VERTEX
8
CUT
10
42.437
20
52.5218
0
VERTEX
8
CUT
10
44.437
20
49.7505
0
SEQEND
0
POLYLINE
8
CUT
66
1
70
0
0
VERTEX
8
CUT
10
43.737
20
40.4295
0
VERTEX
8
CUT
10
41.837
20
37.7968
0
VERTEX
8
CUT
10
38.037
20
37.7968
0
VERTEX
8
CUT
10
36.137
20
40.4295
0
VERTEX
8
CUT
10
38.037
20
43.0622
0
VERTEX
8
CUT
10
41.837
20
43.0622
0
VERTEX
8
CUT
10
43.737
20
40.4295
0
SEQEND
0
POLYLINE
8
CUT
66
1
70
0
0
VERTEX
8
CUT
10
44.3518
20
39.6186
0
VERTEX
8
CUT
10
42.437
20
36.9654
0
VERTEX
8
CUT
10
38.6074
20
36.9654
0
SEQEND
0
POLYLINE
8
CUT
66
1
70
0
0
VERTEX
8
CUT
10
36.8518
20
37.7763
0
VERTEX
8
CUT
10
34.937
20
40.4295
0
VERTEX
8
CUT
10
36.8518
20
43.0827
0
SEQEND
0
POLYLINE
8
CUT
66
1
70
0
0
VERTEX
8
CUT
10
38.437
20
43.8936
0
VERTEX
8
CUT
10
42.437
20
43.8936
0
VERTEX
8
CUT
10
44.437
20
41.1223
0
SEQEND
0
POLYLINE
8
CUT
66
1
70
0
0
VERTEX
8
CUT
10
52.716
20
62
0
VERTEX
8
CUT
10
50.816
20
59.3673
0
VERTEX
8
CUT
10
47.016
20
59.3673
0
VERTEX
8
CUT
10
45.116
20
62
0
VERTEX
8
CUT
10
47.016
20
64.6327
0
VERTEX
8
CUT
10
50.816
20
64.6327
0
VERTEX
8
CUT
10
52.716
20
62
0
SEQEND
0
POLYLINE
8
CUT
66
1
70
0
0
VERTEX
8
CUT
10
53.3308
20
61.1891
0
VERTEX
8
CUT
10
51.416
20
58.5359
0
VERTEX
8
CUT
10
47.5864
20
58.5359
0
SEQEND
0
POLYLINE
8
CUT
66
1
70
0
0
VERTEX
8
CUT
10
45.8308
20
59.3468
0
VERTEX
8
CUT
10
43.916
20
62
0
VERTEX
8
CUT
10
45.8308
20
64.6532
0
SEQEND
0
POLYLINE
8
CUT
66
1
70
0
0
VERTEX
8
CUT
10
47.416
20
65.4641
0
VERTEX
8
CUT
10
51.416
20
65.4641
0
VERTEX
8
CUT
10
53.416
20
62.6928
0
SEQEND
0
POLYLINE
8
CUT
66
1
70
0
0
VERTEX
8
CUT
10
52.716
20
53.3718
0
VERTEX
8
CUT
10
50.816
20
50.7391
0
VERTEX
8
CUT
10
47.016
20
50.7391
0
VERTEX
8
CUT
10
45.116
20
53.3718
0
VERTEX
8
CUT
10
47.016
20
56.0045
0
VERTEX
8
CUT
10
50.816
20
56.0045
0
VERTEX
8
CUT
10
52.716
20
53.3718
0
SEQEND
0
POLYLINE
8
CUT
66
1
70
0
0
VERTEX
8
CUT
10
53.3308
20
52.5609
0
VERTEX
8
CUT
10
51.416
20
49.9077
0
VERTEX
8
CUT
10
47.5864
20
49.9077
0
SEQEND
0
POLYLINE
8
CUT
66
1
70
0
0
VERTEX
8
CUT
10
45.8308
20
50.7186
0
VERTEX
8
CUT
10
43.916
20
53.3718
0
VERTEX
8
CUT
10
45.8308
20
56.025
0
SEQEND
0
POLYLINE
8
CUT
66
1
70
0
0
VERTEX
8
CUT
10
47.416
20
56.8359
0
VERTEX
8
CUT
10
51.416
20
56.8359
0
VERTEX
8
CUT
10
53.416
20
54.0646
0
SEQEND
0
POLYLINE
8
CUT
66
1
70
0
0
VERTEX
8
CUT
10
52.716
20
44.7436
0
VERTEX
8
CUT
10
50.816
20
42.1109
0
VERTEX
8
CUT
10
47.016
20
42.1109
0
VERTEX
8
CUT
10
45.116
20
44.7436
0
VERTEX
8
CUT
10
47.016
20
47.3763
0
VERTEX
8
CUT
10
50.816
20
47.3763
0
VERTEX
8
CUT
10
52.716
20
44.7436
0
SEQEND
0
POLYLINE
8
CUT
66
1
70
0
0
VERTEX
8
CUT
10
53.3308
20
43.9327
0
VERTEX
8
CUT
10
51.416
20
41.2795
0
VERTEX
8
CUT
10
47.5864
20
41.2795
0
SEQEND
0
POLYLINE
8
CUT
66
1
70
0
0
VERTEX
8
CUT
10
45.8308
20
42.0904
0
VERTEX
8
CUT
10
43.916
20
44.7436
0
VERTEX
8
CUT
10
45.8308
20
47.3968
0
SEQEND
0
POLYLINE
8
CUT
66
1
70
0
0
VERTEX
8
CUT
10
47.416
20
48.2077
0
VERTEX
8
CUT
10
51.416
20
48.2077
0
VERTEX
8
CUT
10
53.416
20
45.4364
0
SEQEND
0
POLYLINE
8
CUT
66
1
70
0
0
VERTEX
8
CUT
10
45.1993
20
36
0
VERTEX
8
CUT
10
45.116
20
36.1154
0
VERTEX
8
CUT
10
47.016
20
38.7481
0
VERTEX
8
CUT
10
50.816
20
38.7481
0
VERTEX
8
CUT
10
52.716
20
36.1154
0
SEQEND
0
POLYLINE
8
CUT
66
1
70
0
0
VERTEX
8
CUT
10
43.9993
20
36
0
VERTEX
8
CUT
10
43.916
20
36.1154
0
VERTEX
8
CUT
10
45.8308
20
38.7686
0
SEQEND
0
POLYLINE
8
CUT
66
1
70
0
0
VERTEX
8
CUT
10
47.416
20
39.5795
0
VERTEX
8
CUT
10
51.416
20
39.5795
0
VERTEX
8
CUT
10
53.416
20
36.8082
0
SEQEND
0
POLYLINE
8
CUT
66
1
70
0
0
VERTEX
8
CUT
10
61.4683
20
66
0
VERTEX
8
CUT
10
59.795
20
63.6814
0
VERTEX
8
CUT
10
55.995
20
63.6814
0
VERTEX
8
CUT
10
54.3217
20
66
0
SEQEND
0
POLYLINE
8
CUT
66
1
70
0
0
VERTEX
8
CUT
10
62
20
65.074
0
VERTEX
8
CUT
10
60.395
20
62.85
0
VERTEX
8
CUT
10
56.5654
20
62.85
0
SEQEND
0
LINE
8
CUT
10
54.8098
20
63.6609
11
53.1217
21
66
0
POLYLINE
8
CUT
66
1
70
0
0
VERTEX
8
CUT
10
61.695
20
57.6859
0
VERTEX
8
CUT
10
59.795
20
55.0532
0
VERTEX
8
CUT
10
55.995
20
55.0532
0
VERTEX
8
CUT
10
54.095
20
57.6859
0
VERTEX
8
CUT
10
55.995
20
60.3186
0
VERTEX
8
CUT
10
59.795
20
60.3186
0
VERTEX
8
CUT
10
61.695
20
57.6859
0
SEQEND
0
POLYLINE
8
CUT
66
1
70
0
0
VERTEX
8
CUT
10
62
20
56.4458
0
VERTEX
8
CUT
10
60.395
20
54.2218
0
VERTEX
8
CUT
10
56.5654
20
54.2218
0
SEQEND
0
POLYLINE
8
CUT
66
1
70
0
0
VERTEX
8
CUT
10
54.8098
20
55.0327
0
VERTEX
8
CUT
10
52.895
20
57.6859
0
VERTEX
8
CUT
10
54.8098
20
60.3391
0
SEQEND
0
POLYLINE
8
CUT
66
1
70
0
0
VERTEX
8
CUT
10
56.395
20
61.15
0
VERTEX
8
CUT
10
60.395
20
61.15
0
VERTEX
8
CUT
10
62
20
58.926
0
SEQEND
0
POLYLINE
8
CUT
66
1
70
0
0
VERTEX
8
CUT
10
61.695
20
49.0577
0
VERTEX
8
CUT
10
59.795
20
46.425
0
VERTEX
8
CUT
10
55.995
20
46.425
0
VERTEX
8
CUT
10
54.095
20
49.0577
0
VERTEX
8
CUT
10
55.995
20
51.6904
0
VERTEX
8
CUT
10
59.795
20
51.6904
0
VERTEX
8
CUT
10
61.695
20
49.0577
0
SEQEND
0
POLYLINE
8
CUT
66
1
70
0
0
VERTEX
8
CUT
10
62
20
47.8175
0
VERTEX
8
CUT
10
60.395
20
45.5936
0
VERTEX
8
CUT
10
56.5654
20
45.5936
0
SEQEND
0
POLYLINE
8
CUT
66
1
70
0
0
VERTEX
8
CUT
10
54.8098
20
46.4045
0
VERTEX
8
CUT
10
52.895
20
49.0577
0
VERTEX
8
CUT
10
54.8098
20
51.7109
0
SEQEND
0
POLYLINE
8
CUT
66
1
70
0
0
VERTEX
8
CUT
10
56.395
20
52.5218
0
VERTEX
8
CUT
10
60.395
20
52.5218
0
VERTEX
8
CUT
10
62
20
50.2978
0
SEQEND
0
POLYLINE
8
CUT
66
1
70
0
0
VERTEX
8
CUT
10
61.695
20
40.4295
0
VERTEX
8
CUT
10
59.795
20
37.7968
0
VERTEX
8
CUT
10
55.995
20
37.7968
0
VERTEX
8
CUT
10
54.095
20
40.4295
0
VERTEX
8
CUT
10
55.995
20
43.0622
0
VERTEX
8
CUT
10
59.795
20
43.0622
0
VERTEX
8
CUT
10
61.695
20
40.4295
0
SEQEND
0
POLYLINE
8
CUT
66
1
70
0
0
VERTEX
8
CUT
10
62
20
39.1893
0
VERTEX
8
CUT
10
60.395
20
36.9654
0
VERTEX
8
CUT
10
56.5654
20
36.9654
0
SEQEND
0
POLYLINE
8
CUT
66
1
70
0
0
VERTEX
8
CUT
10
54.8098
20
37.7763
0
VERTEX
8
CUT
10
52.895
20
40.4295
0
VERTEX
8
CUT
10
54.8098
20
43.0827
0
SEQEND
0
POLYLINE
8
CUT
66
1
70
0
0
VERTEX
8
CUT
10
56.395
20
43.8936
0
VERTEX
8
CUT
10
60.395
20
43.8936
0
VERTEX
8
CUT
10
62
20
41.6696
0
SEQEND
0
POLYLINE
8
CUT
66
1
70
0
0
VERTEX
8
CUT
10
62
20
61.8254
0
VERTEX
8
CUT
10
61.874
20
62
0
VERTEX
8
CUT
10
62
20
62.1746
0
SEQEND
0
POLYLINE
8
CUT
66
1
70
0
0
VERTEX
8
CUT
10
62
20
53.1972
0
VERTEX
8
CUT
10
61.874
20
53.3718
0
VERTEX
8
CUT
10
62
20
53.5464
0
SEQEND
0
POLYLINE
8
CUT
66
1
70
0
0
VERTEX
8
CUT
10
62
20
44.569
0
VERTEX
8
CUT
10
61.874
20
44.7436
0
VERTEX
8
CUT
10
62
20
44.9182
0
SEQEND
0
POLYLINE
8
CUT
66
1
70
0
0
VERTEX
8
CUT
10
61.9573
20
36
0
VERTEX
8
CUT
10
61.874
20
36.1154
0
VERTEX
8
CUT
10
62
20
36.29
0
SEQEND
0
LINE
8
CUT
10
2.5
20
36
11
2.5
21
39
0
LINE
8
CUT
10
5
20
36
11
5
21
39
0
LINE
8
CUT
10
7.5
20
36
11
7.5
21
39
0
LINE
8
CUT
10
10
20
36
11
10
21
39
0
POLYLINE
8
CUT
66
1
70
0
0
VERTEX
8
CUT
10
0
20
30
0
VERTEX
8
CUT
10
70
20
30
0
VERTEX
8
CUT
10
70
20
0
0
VERTEX
8
CUT
10
0
20
0
0
VERTEX
8
CUT
10
0
20
30
0
SEQEND
0
LINE
8
CUT
10
8
20
22.589
11
8.26
21
22.2287
0
LINE
8
CUT
10
8
20
13.6608
11
8.26
21
13.3005
0
LINE
8
CUT
10
8
20
4.7326
11
8.26
21
4.3723
0
POLYLINE
8
CUT
66
1
70
0
0
VERTEX
8
CUT
10
16.8
20
26
0
VERTEX
8
CUT
10
14.9
20
23.3673
0
VERTEX
8
CUT
10
11.1
20
23.3673
0
VERTEX
8
CUT
10
9.2
20
26
0
VERTEX
8
CUT
10
11.1
20
28.6327
0
VERTEX
8
CUT
10
14.9
20
28.6327
0
VERTEX
8
CUT
10
16.8
20
26
0
SEQEND
0
POLYLINE
8
CUT
66
1
70
0
0
VERTEX
8
CUT
10
17.4148
20
25.1891
0
VERTEX
8
CUT
10
15.5
20
22.5359
0
VERTEX
8
CUT
10
11.6704
20
22.5359
0
SEQEND
0
POLYLINE
8
CUT
66
1
70
0
0
VERTEX
8
CUT
10
9.9148
20
23.3468
0
VERTEX
8
CUT
10
8
20
26
0
VERTEX
8
CUT
10
9.9148
20
28.6532
0
SEQEND
0
POLYLINE
8
CUT
66
1
70
0
0
VERTEX
8
CUT
10
11.5
20
29.4641
0
VERTEX
8
CUT
10
15.5
20
29.4641
0
VERTEX
8
CUT
10
17.5
20
26.6928
0
SEQEND
0
POLYLINE
8
CUT
66
1
70
0
0
VERTEX
8
CUT
10
16.8
20
17.0718
0
VERTEX
8
CUT
10
14.9
20
14.4391
0
VERTEX
8
CUT
10
11.1
20
14.4391
0
VERTEX
8
CUT
10
9.2
20
17.0718
0
VERTEX
8
CUT
10
11.1
20
19.7045
0
VERTEX
8
CUT
10
14.9
20
19.7045
0
VERTEX
8
CUT
10
16.8
20
17.0718
0
SEQEND
0
POLYLINE
8
CUT
66
1
70
0
0
VERTEX
8
CUT
10
17.4148
20
16.2609
0
VERTEX
8
CUT
10
15.5
20
13.6077
0
VERTEX
8
CUT
10
11.6704
20
13.6077
0
SEQEND
0
POLYLINE
8
CUT
66
1
70
0
0
VERTEX
8
CUT
10
9.9148
20
14.4186
0
VERTEX
8
CUT
10
8
20
17.0718
0
VERTEX
8
CUT
10
9.9148
20
19.725
0
SEQEND
0
POLYLINE
8
CUT
66
1
70
0
0
VERTEX
8
CUT
10
11.5
20
20.5359
0
VERTEX
8
CUT
10
15.5
20
20.5359
0
VERTEX
8
CUT
10
17.5
20
17.7646
0
SEQEND
0
POLYLINE
8
CUT
66
1
70
0
0
VERTEX
8
CUT
10
16.8
20
8.1436
0
VERTEX
8
CUT
10
14.9
20
5.5109
0
VERTEX
8
CUT
10
11.1
20
5.5109
0
VERTEX
8
CUT
10
9.2
20
8.1436
0
VERTEX
8
CUT
10
11.1
20
10.7763
0
VERTEX
8
CUT
10
14.9
20
10.7763
0
VERTEX
8
CUT
10
16.8
20
8.1436
0
SEQEND
0
POLYLINE
8
CUT
66
1
70
0
0
VERTEX
8
CUT
10
17.4148
20
7.3327
0
VERTEX
8
CUT
10
15.5
20
4.6795
0
VERTEX
8
CUT
10
11.6704
20
4.6795
0
SEQEND
0
POLYLINE
8
CUT
66
1
70
0
0
VERTEX
8
CUT
10
9.9148
20
5.4904
0
VERTEX
8
CUT
10
8
20
8.1436
0
VERTEX
8
CUT
10
9.9148
20
10.7968
0
SEQEND
0
POLYLINE
8
CUT
66
1
70
0
0
VERTEX
8
CUT
10
11.5
20
11.6077
0
VERTEX
8
CUT
10
15.5
20
11.6077
0
VERTEX
8
CUT
10
17.5
20
8.8364
0
SEQEND
0
POLYLINE
8
CUT
66
1
70
0
0
VERTEX
8
CUT
10
9.7662
20
0
0
VERTEX
8
CUT
10
11.1
20
1.8481
0
VERTEX
8
CUT
10
14.9
20
1.8481
0
VERTEX
8
CUT
10
16.2338
20
0
0
SEQEND
0
LINE
8
CUT
10
8.5662
20
0
11
9.9148
21
1.8686
0
POLYLINE
8
CUT
66
1
70
0
0
VERTEX
8
CUT
10
11.5
20
2.6795
0
VERTEX
8
CUT
10
15.5
20
2.6795
0
VERTEX
8
CUT
10
17.4338
20
0
0
SEQEND
0
POLYLINE
8
CUT
66
1
70
0
0
VERTEX
8
CUT
10
25.7051
20
30
0
VERTEX
8
CUT
10
24.14
20
27.8314
0
VERTEX
8
CUT
10
20.34
20
27.8314
0
VERTEX
8
CUT
10
18.7749
20
30
0
SEQEND
0
POLYLINE
8
CUT
66
1
70
0
0
VERTEX
8
CUT
10
26.6548
20
29.6532
0
VERTEX
8
CUT
10
24.74
20
27
0
VERTEX
8
CUT
10
20.9104
20
27
0
SEQEND
0
LINE
8
CUT
10
19.1548
20
27.8109
11
17.5749
21
30
0
POLYLINE
8
CUT
66
1
70
0
0
VERTEX
8
CUT
10
26.04
20
21.5359
0
VERTEX
8
CUT
10
24.14
20
18.9032
0
VERTEX
8
CUT
10
20.34
20
18.9032
0
VERTEX
8
CUT
10
18.44
20
21.5359
0
VERTEX
8
CUT
10
20.34
20
24.1686
0
VERTEX
8
CUT
10
24.14
20
24.1686
0
VERTEX
8
CUT
10
26.04
20
21.5359
0
SEQEND
0
POLYLINE
8
CUT
66
1
70
0
0
VERTEX
8
CUT
10
26.6548
20
20.725
0
VERTEX
8
CUT
10
24.74
20
18.0718
0
VERTEX
8
CUT
10
20.9104
20
18.0718
0
SEQEND
0
POLYLINE
8
CUT
66
1
70
0
0
VERTEX
8
CUT
10
19.1548
20
18.8827
0
VERTEX
8
CUT
10
17.24
20
21.5359
0
VERTEX
8
CUT
10
19.1548
20
24.1891
0
SEQEND
0
POLYLINE
8
CUT
66
1
70
0
0
VERTEX
8
CUT
10
20.74
20
25
0
VERTEX
8
CUT
10
24.74
20
25
0
VERTEX
8
CUT
10
26.74
20
22.2287
0
SEQEND
0
POLYLINE
8
CUT
66
1
70
0
0
VERTEX
8
CUT
10
26.04
20
12.6077
0
VERTEX
8
CUT
10
24.14
20
9.975
0
VERTEX
8
CUT
10
20.34
20
9.975
0
VERTEX
8
CUT
10
18.44
20
12.6077
0
VERTEX
8
CUT
10
20.34
20
15.2404
0
VERTEX
8
CUT
10
24.14
20
15.2404
0
VERTEX
8
CUT
10
26.04
20
12.6077
0
SEQEND
0
POLYLINE
8
CUT
66
1
70
0
0
VERTEX
8
CUT
10
26.6548
20
11.7968
0
VERTEX
8
CUT
10
24.74
20
9.1436
0
VERTEX
8
CUT
10
20.9104
20
9.1436
0
SEQEND
0
POLYLINE
8
CUT
66
1
70
0
0
VERTEX
8
CUT
10
19.1548
20
9.9545
0
VERTEX
8
CUT
10
17.24
20
12.6077
0
VERTEX
8
CUT
10
19.1548
20
15.2609
0
SEQEND
0
POLYLINE
8
CUT
66
1
70
0
0
VERTEX
8
CUT
10
20.74
20
16.0718
0
VERTEX
8
CUT
10
24.74
20
16.0718
0
VERTEX
8
CUT
10
26.74
20
13.3005
0
SEQEND
0
POLYLINE
8
CUT
66
1
70
0
0
VERTEX
8
CUT
10
26.04
20
3.6795
0
VERTEX
8
CUT
10
24.14
20
1.0468
0
VERTEX
8
CUT
10
20.34
20
1.0468
0
VERTEX
8
CUT
10
18.44
20
3.6795
0
VERTEX
8
CUT
10
20.34
20
6.3122
0
VERTEX
8
CUT
10
24.14
20
6.3122
0
VERTEX
8
CUT
10
26.04
20
3.6795
0
SEQEND
0
POLYLINE
8
CUT
66
1
70
0
0
VERTEX
8
CUT
10
26.6548
20
2.8686
0
VERTEX
8
CUT
10
24.74
20
0.2154
0
VERTEX
8
CUT
10
20.9104
20
0.2154
0
SEQEND
0
POLYLINE
8
CUT
66
1
70
0
0
VERTEX
8
CUT
10
19.1548
20
1.0263
0
VERTEX
8
CUT
10
17.24
20
3.6795
0
VERTEX
8
CUT
10
19.1548
20
6.3327
0
SEQEND
0
POLYLINE
8
CUT
66
1
70
0
0
VERTEX
8
CUT
10
20.74
20
7.1436
0
VERTEX
8
CUT
10
24.74
20
7.1436
0
VERTEX
8
CUT
10
26.74
20
4.3723
0
SEQEND
0
POLYLINE
8
CUT
66
1
70
0
0
VERTEX
8
CUT
10
35.28
20
26
0
VERTEX
8
CUT
10
33.38
20
23.3673
0
VERTEX
8
CUT
10
29.58
20
23.3673
0
VERTEX
8
CUT
10
27.68
20
26
0
VERTEX
8
CUT
10
29.58
20
28.6327
0
VERTEX
8
CUT
10
33.38
20
28.6327
0
VERTEX
8
CUT
10
35.28
20
26
0
SEQEND
0
POLYLINE
8
CUT
66
1
70
0
0
VERTEX
8
CUT
10
35.8948
20
25.1891
0
VERTEX
8
CUT
10
33.98
20
22.5359
0
VERTEX
8
CUT
10
30.1504
20
22.5359
0
SEQEND
0
POLYLINE
8
CUT
66
1
70
0
0
VERTEX
8
CUT
10
28.3948
20
23.3468
0
VERTEX
8
CUT
10
26.48
20
26
0
VERTEX
8
CUT
10
28.3948
20
28.6532
0
SEQEND
0
POLYLINE
8
CUT
66
1
70
0
0
VERTEX
8
CUT
10
29.98
20
29.4641
0
VERTEX
8
CUT
10
33.98
20
29.4641
0
VERTEX
8
CUT
10
35.98
20
26.6928
0
SEQEND
0
POLYLINE
8
CUT
66
1
70
0
0
VERTEX
8
CUT
10
35.28
20
17.0718
0
VERTEX
8
CUT
10
33.38
20
14.4391
0
VERTEX
8
CUT
10
29.58
20
14.4391
0
VERTEX
8
CUT
10
27.68
20
17.0718
0
VERTEX
8
CUT
10
29.58
20
19.7045
0
VERTEX
8
CUT
10
33.38
20
19.7045
0
VERTEX
8
CUT
10
35.28
20
17.0718
0
SEQEND
0
POLYLINE
8
CUT
66
1
70
0
0
VERTEX
8
CUT
10
35.8948
20
16.2609
0
VERTEX
8
CUT
10
33.98
20
13.6077
0
VERTEX
8
CUT
10
30.1504
20
13.6077
0
SEQEND
0
POLYLINE
8
CUT
66
1
70
0
0
VERTEX
8
CUT
10
28.3948
20
14.4186
0
VERTEX
8
CUT
10
26.48
20
17.0718
0
VERTEX
8
CUT
10
28.3948
20
19.725
0
SEQEND
0
POLYLINE
8
CUT
66
1
70
0
0
VERTEX
8
CUT
10
29.98
20
20.5359
0
VERTEX
8
CUT
10
33.98
20
20.5359
0
VERTEX
8
CUT
10
35.98
20
17.7646
0
SEQEND
0
POLYLINE
8
CUT
66
1
70
0
0
VERTEX
8
CUT
10
35.28
20
8.1436
0
VERTEX
8
CUT
10
33.38
20
5.5109
0
VERTEX
8
CUT
10
29.58
20
5.5109
0
VERTEX
8
CUT
10
27.68
20
8.1436
0
VERTEX
8
CUT
10
29.58
20
10.7763
0
VERTEX
8
CUT
10
33.38
20
10.7763
0
VERTEX
8
CUT
10
35.28
20
8.1436
0
SEQEND
0
POLYLINE
8
CUT
66
1
70
0
0
VERTEX
8
CUT
10
35.8948
20
7.3327
0
VERTEX
8
CUT
10
33.98
20
4.6795
0
VERTEX
8
CUT
10
30.1504
20
4.6795
0
SEQEND
0
POLYLINE
8
CUT
66
1
70
0
0
VERTEX
8
CUT
10
28.3948
20
5.4904
0
VERTEX
8
CUT
10
26.48
20
8.1436
0
VERTEX
8
CUT
10
28.3948
20
10.7968
0
SEQEND
0
POLYLINE
8
CUT
66
1
70
0
0
VERTEX
8
CUT
10
29.98
20
11.6077
0
VERTEX
8
CUT
10
33.98
20
11.6077
0
VERTEX
8
CUT
10
35.98
20
8.8364
0
SEQEND
0
POLYLINE
8
CUT
66
1
70
0
0
VERTEX
8
CUT
10
28.2462
20
0
0
VERTEX
8
CUT
10
29.58
20
1.8481
0
VERTEX
8
CUT
10
33.38
20
1.8481
0
VERTEX
8
CUT
10
34.7138
20
0
0
SEQEND
0
LINE
8
CUT
10
27.0462
20
0
11
28.3948
21
1.8686
0
POLYLINE
8
CUT
66
1
70
0
0
VERTEX
8
CUT
10
29.98
20
2.6795
0
VERTEX
8
CUT
10
33.98
20
2.6795
0
VERTEX
8
CUT
10
35.9138
20
0
0
SEQEND
0
POLYLINE
8
CUT
66
1
70
0
0
VERTEX
8
CUT
10
44.1851
20
30
0
VERTEX
8
CUT
10
42.62
20
27.8314
0
VERTEX
8
CUT
10
38.82
20
27.8314
0
VERTEX
8
CUT
10
37.2549
20
30
0
SEQEND
0
POLYLINE
8
CUT
66
1
70
0
0
VERTEX
8
CUT
10
45.1348
20
29.6532
0
VERTEX
8
CUT
10
43.22
20
27
0
VERTEX
8
CUT
10
39.3904
20
27
0
SEQEND
0
LINE
8
CUT
10
37.6348
20
27.8109
11
36.0549
21
30
0
POLYLINE
8
CUT
66
1
70
0
0
VERTEX
8
CUT
10
44.52
20
21.5359
0
VERTEX
8
CUT
10
42.62
20
18.9032
0
VERTEX
8
CUT
10
38.82
20
18.9032
0
VERTEX
8
CUT
10
36.92
20
21.5359
0
VERTEX
8
CUT
10
38.82
20
24.1686
0
VERTEX
8
CUT
10
42.62
20
24.1686
0
VERTEX
8
CUT
10
44.52
20
21.5359
0
SEQEND
0
POLYLINE
8
CUT
66
1
70
0
0
VERTEX
8
CUT
10
45.1348
20
20.725
0
VERTEX
8
CUT
10
43.22
20
18.0718
0
VERTEX
8
CUT
10
39.3904
20
18.0718
0
SEQEND
0
POLYLINE
8
CUT
66
1
70
0
0
VERTEX
8
CUT
10
37.6348
20
18.8827
0
VERTEX
8
CUT
10
35.72
20
21.5359
0
VERTEX
8
CUT
10
37.6348
20
24.1891
0
SEQEND
0
POLYLINE
8
CUT
66
1
70
0
0
VERTEX
8
CUT
10
39.22
20
25
0
VERTEX
8
CUT
10
43.22
20
25
0
VERTEX
8
CUT
10
45.22
20
22.2287
0
SEQEND
0
POLYLINE
8
CUT
66
1
70
0
0
VERTEX
8
CUT
10
44.52
20
12.6077
0
VERTEX
8
CUT
10
42.62
20
9.975
0
VERTEX
8
CUT
10
38.82
20
9.975
0
VERTEX
8
CUT
10
36.92
20
12.6077
0
VERTEX
8
CUT
10
38.82
20
15.2404
0
VERTEX
8
CUT
10
42.62
20
15.2404
0
VERTEX
8
CUT
10
44.52
20
12.6077
0
SEQEND
0
POLYLINE
8
CUT
66
1
70
0
0
VERTEX
8
CUT
10
45.1348
20
11.7968
0
VERTEX
8
CUT
10
43.22
20
9.1436
0
VERTEX
8
CUT
10
39.3904
20
9.1436
0
SEQEND
0
POLYLINE
8
CUT
66
1
70
0
0
VERTEX
8
CUT
10
37.6348
20
9.9545
0
VERTEX
8
CUT
10
35.72
20
12.6077
0
VERTEX
8
CUT
10
37.6348
20
15.2609
0
SEQEND
0
POLYLINE
8
CUT
66
1
70
0
0
VERTEX
8
CUT
10
39.22
20
16.0718
0
VERTEX
8
CUT
10
43.22
20
16.0718
0
VERTEX
8
CUT
10
45.22
20
13.3005
0
SEQEND
0
POLYLINE
8
CUT
66
1
70
0
0
VERTEX
8
CUT
10
44.52
20
3.6795
0
VERTEX
8
CUT
10
42.62
20
1.0468
0
VERTEX
8
CUT
10
38.82
20
1.0468
0
VERTEX
8
CUT
10
36.92
20
3.6795
0
VERTEX
8
CUT
10
38.82
20
6.3122
0
VERTEX
8
CUT
10
42.62
20
6.3122
0
VERTEX
8
CUT
10
44.52
20
3.6795
0
SEQEND
0
POLYLINE
8
CUT
66
1
70
0
0
VERTEX
8
CUT
10
45.1348
20
2.8686
0
VERTEX
8
CUT
10
43.22
20
0.2154
0
VERTEX
8
CUT
10
39.3904
20
0.2154
0
SEQEND
0
POLYLINE
8
CUT
66
1
70
0
0
VERTEX
8
CUT
10
37.6348
20
1.0263
0
VERTEX
8
CUT
10
35.72
20
3.6795
0
VERTEX
8
CUT
10
37.6348
20
6.3327
0
SEQEND
0
POLYLINE
8
CUT
66
1
70
0
0
VERTEX
8
CUT
10
39.22
20
7.1436
0
VERTEX
8
CUT
10
43.22
20
7.1436
0
VERTEX
8
CUT
10
45.22
20
4.3723
0
SEQEND
0
POLYLINE
8
CUT
66
1
70
0
0
VERTEX
8
CUT
10
53.76
20
26
0
VERTEX
8
CUT
10
51.86
20
23.3673
0
VERTEX
8
CUT
10
48.06
20
23.3673
0
VERTEX
8
CUT
10
46.16
20
26
0
VERTEX
8
CUT
10
48.06
20
28.6327
0
VERTEX
8
CUT
10
51.86
20
28.6327
0
VERTEX
8
CUT
10
53.76
20
26
0
SEQEND
0
POLYLINE
8
CUT
66
1
70
0
0
VERTEX
8
CUT
10
54.3748
20
25.1891
0
VERTEX
8
CUT
10
52.46
20
22.5359
0
VERTEX
8
CUT
10
48.6304
20
22.5359
0
SEQEND
0
POLYLINE
8
CUT
66
1
70
0
0
VERTEX
8
CUT
10
46.8748
20
23.3468
0
VERTEX
8
CUT
10
44.96
20
26
0
VERTEX
8
CUT
10
46.8748
20
28.6532
0
SEQEND
0
POLYLINE
8
CUT
66
1
70
0
0
VERTEX
8
CUT
10
48.46
20
29.4641
0
VERTEX
8
CUT
10
52.46
20
29.4641
0
VERTEX
8
CUT
10
54.46
20
26.6928
0
SEQEND
0
POLYLINE
8
CUT
66
1
70
0
0
VERTEX
8
CUT
10
53.76
20
17.0718
0
VERTEX
8
CUT
10
51.86
20
14.4391
0
VERTEX
8
CUT
10
48.06
20
14.4391
0
VERTEX
8
CUT
10
46.16
20
17.0718
0
VERTEX
8
CUT
10
48.06
20
19.7045
0
VERTEX
8
CUT
10
51.86
20
19.7045
0
VERTEX
8
CUT
10
53.76
20
17.0718
0
SEQEND
0
POLYLINE
8
CUT
66
1
70
0
0
VERTEX
8
CUT
10
54.3748
20
16.2609
0
VERTEX
8
CUT
10
52.46
20
13.6077
0
VERTEX
8
CUT
10
48.6304
20
13.6077
0
SEQEND
0
POLYLINE
8
CUT
66
1
70
0
0
VERTEX
8
CUT
10
46.8748
20
14.4186
0
VERTEX
8
CUT
10
44.96
20
17.0718
0
VERTEX
8
CUT
10
46.8748
20
19.725
0
SEQEND
0
POLYLINE
8
CUT
66
1
70
0
0
VERTEX
8
CUT
10
48.46
20
20.5359
0
VERTEX
8
CUT
10
52.46
20
20.5359
0
VERTEX
8
CUT
10
54.46
20
17.7646
0
SEQEND
0
POLYLINE
8
CUT
66
1
70
0
0
VERTEX
8
CUT
10
53.76
20
8.1436
0
VERTEX
8
CUT
10
51.86
20
5.5109
0
VERTEX
8
CUT
10
48.06
20
5.5109
0
VERTEX
8
CUT
10
46.16
20
8.1436
0
VERTEX
8
CUT
10
48.06
20
10.7763
0
VERTEX
8
CUT
10
51.86
20
10.7763
0
VERTEX
8
CUT
10
53.76
20
8.1436
0
SEQEND
0
POLYLINE
8
CUT
66
1
70
0
0
VERTEX
8
CUT
10
54.3748
20
7.3327
0
VERTEX
8
CUT
10
52.46
20
4.6795
0
VERTEX
8
CUT
10
48.6304
20
4.6795
0
SEQEND
0
POLYLINE
8
CUT
66
1
70
0
0
VERTEX
8
CUT
10
46.8748
20
5.4904
0
VERTEX
8
CUT
10
44.96
20
8.1436
0
VERTEX
8
CUT
10
46.8748
20
10.7968
0
SEQEND
0
POLYLINE
8
CUT
66
1
70
0
0
VERTEX
8
CUT
10
48.46
20
11.6077
0
VERTEX
8
CUT
10
52.46
20
11.6077
0
VERTEX
8
CUT
10
54.46
20
8.8364
0
SEQEND
0
POLYLINE
8
CUT
66
1
70
0
0
VERTEX
8
CUT
10
46.7262
20
0
0
VERTEX
8
CUT
10
48.06
20
1.8481
0
VERTEX
8
CUT
10
51.86
20
1.8481
0
VERTEX
8
CUT
10
53.1938
20
0
0
SEQEND
0
LINE
8
CUT
10
45.5262
20
0
11
46.8748
21
1.8686
0
POLYLINE
8
CUT
66
1
70
0
0
VERTEX
8
CUT
10
48.46
20
2.6795
0
VERTEX
8
CUT
10
52.46
20
2.6795
0
VERTEX
8
CUT
10
54.3938
20
0
0
SEQEND
0
POLYLINE
8
CUT
66
1
70
0
0
VERTEX
8
CUT
10
62
20
29.0785
0
VERTEX
8
CUT
10
61.1
20
27.8314
0
VERTEX
8
CUT
10
57.3
20
27.8314
0
VERTEX
8
CUT
10
55.7349
20
30
0
SEQEND
0
POLYLINE
8
CUT
66
1
70
0
0
VERTEX
8
CUT
10
62
20
27.4157
0
VERTEX
8
CUT
10
61.7
20
27
0
VERTEX
8
CUT
10
57.8704
20
27
0
SEQEND
0
LINE
8
CUT
10
56.1148
20
27.8109
11
54.5349
21
30
0
POLYLINE
8
CUT
66
1
70
0
0
VERTEX
8
CUT
10
62
20
20.1503
0
VERTEX
8
CUT
10
61.1
20
18.9032
0
VERTEX
8
CUT
10
57.3
20
18.9032
0
VERTEX
8
CUT
10
55.4
20
21.5359
0
VERTEX
8
CUT
10
57.3
20
24.1686
0
VERTEX
8
CUT
10
61.1
20
24.1686
0
VERTEX
8
CUT
10
62
20
22.9215
0
SEQEND
0
POLYLINE
8
CUT
66
1
70
0
0
VERTEX
8
CUT
10
62
20
18.4875
0
VERTEX
8
CUT
10
61.7
20
18.0718
0
VERTEX
8
CUT
10
57.8704
20
18.0718
0
SEQEND
0
POLYLINE
8
CUT
66
1
70
0
0
VERTEX
8
CUT
10
56.1148
20
18.8827
0
VERTEX
8
CUT
10
54.2
20
21.5359
0
VERTEX
8
CUT
10
56.1148
20
24.1891
0
SEQEND
0
POLYLINE
8
CUT
66
1
70
0
0
VERTEX
8
CUT
10
57.7
20
25
0
VERTEX
8
CUT
10
61.7
20
25
0
VERTEX
8
CUT
10
62
20
24.5843
0
SEQEND
0
POLYLINE
8
CUT
66
1
70
0
0
VERTEX
8
CUT
10
62
20
11.2221
0
VERTEX
8
CUT
10
61.1
20
9.975
0
VERTEX
8
CUT
10
57.3
20
9.975
0
VERTEX
8
CUT
10
55.4
20
12.6077
0
VERTEX
8
CUT
10
57.3
20
15.2404
0
VERTEX
8
CUT
10
61.1
20
15.2404
0
VERTEX
8
CUT
10
62
20
13.9933
0
SEQEND
0
POLYLINE
8
CUT
66
1
70
0
0
VERTEX
8
CUT
10
62
20
9.5593
0
VERTEX
8
CUT
10
61.7
20
9.1436
0
VERTEX
8
CUT
10
57.8704
20
9.1436
0
SEQEND
0
POLYLINE
8
CUT
66
1
70
0
0
VERTEX
8
CUT
10
56.1148
20
9.9545
0
VERTEX
8
CUT
10
54.2
20
12.6077
0
VERTEX
8
CUT
10
56.1148
20
15.2609
0
SEQEND
0
POLYLINE
8
CUT
66
1
70
0
0
VERTEX
8
CUT
10
57.7
20
16.0718
0
VERTEX
8
CUT
10
61.7
20
16.0718
0
VERTEX
8
CUT
10
62
20
15.6561
0
SEQEND
0
POLYLINE
8
CUT
66
1
70
0
0
VERTEX
8
CUT
10
62
20
2.2939
0
VERTEX
8
CUT
10
61.1
20
1.0468
0
VERTEX
8
CUT
10
57.3
20
1.0468
0
VERTEX
8
CUT
10
55.4
20
3.6795
0
VERTEX
8
CUT
10
57.3
20
6.3122
0
VERTEX
8
CUT
10
61.1
20
6.3122
0
VERTEX
8
CUT
10
62
20
5.0651
0
SEQEND
0
POLYLINE
8
CUT
66
1
70
0
0
VERTEX
8
CUT
10
62
20
0.6311
0
VERTEX
8
CUT
10
61.7
20
0.2154
0
VERTEX
8
CUT
10
57.8704
20
0.2154
0
SEQEND
0
POLYLINE
8
CUT
66
1
70
0
0
VERTEX
8
CUT
10
56.1148
20
1.0263
0
VERTEX
8
CUT
10
54.2
20
3.6795
0
VERTEX
8
CUT
10
56.1148
20
6.3327
0
SEQEND
0
POLYLINE
8
CUT
66
1
70
0
0
VERTEX
8
CUT
10
57.7
20
7.1436
0
VERTEX
8
CUT
10
61.7
20
7.1436
0
VERTEX
8
CUT
10
62
20
6.7279
0
SEQEND
0
LINE
8
CUT
10
2.5
20
0
11
2.5
21
3
0
LINE
8
CUT
10
5
20
0
11
5
21
3
0
LINE
8
CUT
10
7.5
20
0
11
7.5
21
3
0
LINE
8
CUT
10
10
20
0
11
10
21
3
0
LINE
8
CUT
10
12.5
20
0
11
12.5
21
3
0
ENDSEC
0
EOF
