0
SECTION
2
HEADER
9
$ACADVER
1
AC1009
9
$INSUNITS
70
4
0
ENDSEC
0
SECTION
2
TABLES
0
TABLE
2
LAYER
70
1
0
LAYER
2
CUT
70
0
62
1
6
CONTINUOUS
0
ENDTAB
0
ENDSEC
0
SECTION
2
ENTITIES
0
POLYLINE
8
CUT
66
1
70
0
0
VERTEX
8
CUT
10
0
20
174
0
VERTEX
8
CUT
10
70
20
174
0
VERTEX
8
CUT
10
70
20
144
0
VERTEX
8
CUT
10
0
20
144
0
VERTEX
8
CUT
10
0
20
174
0
SEQEND
0
POLYLINE
8
CUT
66
1
70
0
0
VERTEX
8
CUT
10
11
20
174
0
VERTEX
8
CUT
10
11.3262
20
173.4118
0
VERTEX
8
CUT
10
11.9244
20
172.2353
0
VERTEX
8
CUT
10
12.3689
20
171.0588
0
VERTEX
8
CUT
10
12.5858
20
169.8824
0
VERTEX
8
CUT
10
12.5389
20
168.7059
0
VERTEX
8
CUT
10
12.2362
20
167.5294
0
VERTEX
8
CUT
10
11.7278
20
166.3529
0
VERTEX
8
CUT
10
11.0985
20
165.1765
0
VERTEX
8
CUT
10
10.4528
20
164
0
SEQEND
0
POLYLINE
8
CUT
66
1
70
0
0
VERTEX
8
CUT
10
9.8885
20
162.8
0
VERTEX
8
CUT
10
9.5215
20
161.6235
0
VERTEX
8
CUT
10
9.4003
20
160.4471
0
VERTEX
8
CUT
10
9.5451
20
159.2706
0
VERTEX
8
CUT
10
9.9318
20
158.0941
0
VERTEX
8
CUT
10
10.4962
20
156.9176
0
VERTEX
8
CUT
10
11.1444
20
155.7412
0
VERTEX
8
CUT
10
11.7685
20
154.5647
0
VERTEX
8
CUT
10
12.2649
20
153.3882
0
VERTEX
8
CUT
10
12.5509
20
152.2118
0
VERTEX
8
CUT
10
12.579
20
151.0353
0
VERTEX
8
CUT
10
12.3446
20
149.8588
0
VERTEX
8
CUT
10
11.8865
20
148.6824
0
VERTEX
8
CUT
10
11.2811
20
147.5059
0
VERTEX
8
CUT
10
10.6289
20
146.3294
0
VERTEX
8
CUT
10
10.0384
20
145.1529
0
VERTEX
8
CUT
10
9.6164
20
144
0
SEQEND
0
POLYLINE
8
CUT
66
1
70
0
0
VERTEX
8
CUT
10
17.3327
20
173.4
0
VERTEX
8
CUT
10
17.9298
20
172.2235
0
VERTEX
8
CUT
10
18.3723
20
171.0471
0
VERTEX
8
CUT
10
18.5866
20
169.8706
0
VERTEX
8
CUT
10
18.5371
20
168.6941
0
VERTEX
8
CUT
10
18.232
20
167.5176
0
VERTEX
8
CUT
10
17.722
20
166.3412
0
VERTEX
8
CUT
10
17.0919
20
165.1647
0
VERTEX
8
CUT
10
16.4466
20
163.9882
0
VERTEX
8
CUT
10
15.8933
20
162.8118
0
VERTEX
8
CUT
10
15.524
20
161.6353
0
VERTEX
8
CUT
10
15.4002
20
160.4588
0
VERTEX
8
CUT
10
15.5424
20
159.2824
0
VERTEX
8
CUT
10
15.927
20
158.1059
0
VERTEX
8
CUT
10
16.49
20
156.9294
0
VERTEX
8
CUT
10
17.1378
20
155.7529
0
VERTEX
8
CUT
10
17.7627
20
154.5765
0
VERTEX
8
CUT
10
18.2608
20
153.4
0
SEQEND
0
POLYLINE
8
CUT
66
1
70
0
0
VERTEX
8
CUT
10
18.5525
20
152.2
0
VERTEX
8
CUT
10
18.5779
20
151.0235
0
VERTEX
8
CUT
10
18.341
20
149.8471
0
VERTEX
8
CUT
10
17.881
20
148.6706
0
VERTEX
8
CUT
10
17.2746
20
147.4941
0
VERTEX
8
CUT
10
16.6225
20
146.3176
0
VERTEX
8
CUT
10
16.0332
20
145.1412
0
VERTEX
8
CUT
10
15.6175
20
144
0
SEQEND
0
POLYLINE
8
CUT
66
1
70
0
0
VERTEX
8
CUT
10
23
20
174
0
VERTEX
8
CUT
10
23.3262
20
173.4118
0
VERTEX
8
CUT
10
23.9244
20
172.2353
0
VERTEX
8
CUT
10
24.3689
20
171.0588
0
VERTEX
8
CUT
10
24.5858
20
169.8824
0
VERTEX
8
CUT
10
24.5389
20
168.7059
0
VERTEX
8
CUT
10
24.2362
20
167.5294
0
VERTEX
8
CUT
10
23.7278
20
166.3529
0
VERTEX
8
CUT
10
23.0985
20
165.1765
0
VERTEX
8
CUT
10
22.4528
20
164
0
SEQEND
0
POLYLINE
8
CUT
66
1
70
0
0
VERTEX
8
CUT
10
21.8885
20
162.8
0
VERTEX
8
CUT
10
21.5215
20
161.6235
0
VERTEX
8
CUT
10
21.4003
20
160.4471
0
VERTEX
8
CUT
10
21.5451
20
159.2706
0
VERTEX
8
CUT
10
21.9318
20
158.0941
0
VERTEX
8
CUT
10
22.4962
20
156.9176
0
VERTEX
8
CUT
10
23.1444
20
155.7412
0
VERTEX
8
CUT
10
23.7685
20
154.5647
0
VERTEX
8
CUT
10
24.2649
20
153.3882
0
VERTEX
8
CUT
10
24.5509
20
152.2118
0
VERTEX
8
CUT
10
24.579
20
151.0353
0
VERTEX
8
CUT
10
24.3446
20
149.8588
0
VERTEX
8
CUT
10
23.8865
20
148.6824
0
VERTEX
8
CUT
10
23.2811
20
147.5059
0
VERTEX
8
CUT
10
22.6289
20
146.3294
0
VERTEX
8
CUT
10
22.0384
20
145.1529
0
VERTEX
8
CUT
10
21.6164
20
144
0
SEQEND
0
POLYLINE
8
CUT
66
1
70
0
0
VERTEX
8
CUT
10
29.3327
20
173.4
0
VERTEX
8
CUT
10
29.9298
20
172.2235
0
VERTEX
8
CUT
10
30.3723
20
171.0471
0
VERTEX
8
CUT
10
30.5866
20
169.8706
0
VERTEX
8
CUT
10
30.5371
20
168.6941
0
VERTEX
8
CUT
10
30.232
20
167.5176
0
VERTEX
8
CUT
10
29.722
20
166.3412
0
VERTEX
8
CUT
10
29.0919
20
165.1647
0
VERTEX
8
CUT
10
28.4466
20
163.9882
0
VERTEX
8
CUT
10
27.8933
20
162.8118
0
VERTEX
8
CUT
10
27.524
20
161.6353
0
VERTEX
8
CUT
10
27.4002
20
160.4588
0
VERTEX
8
CUT
10
27.5424
20
159.2824
0
VERTEX
8
CUT
10
27.927
20
158.1059
0
VERTEX
8
CUT
10
28.49
20
156.9294
0
VERTEX
8
CUT
10
29.1378
20
155.7529
0
VERTEX
8
CUT
10
29.7627
20
154.5765
0
VERTEX
8
CUT
10
30.2608
20
153.4
0
SEQEND
0
POLYLINE
8
CUT
66
1
70
0
0
VERTEX
8
CUT
10
30.5525
20
152.2
0
VERTEX
8
CUT
10
30.5779
20
151.0235
0
VERTEX
8
CUT
10
30.341
20
149.8471
0
VERTEX
8
CUT
10
29.881
20
148.6706
0
VERTEX
8
CUT
10
29.2746
20
147.4941
0
VERTEX
8
CUT
10
28.6225
20
146.3176
0
VERTEX
8
CUT
10
28.0332
20
145.1412
0
VERTEX
8
CUT
10
27.6175
20
144
0
SEQEND
0
POLYLINE
8
CUT
66
1
70
0
0
VERTEX
8
CUT
10
35
20
174
0
VERTEX
8
CUT
10
35.3262
20
173.4118
0
VERTEX
8
CUT
10
35.9244
20
172.2353
0
VERTEX
8
CUT
10
36.3689
20
171.0588
0
VERTEX
8
CUT
10
36.5858
20
169.8824
0
VERTEX
8
CUT
10
36.5389
20
168.7059
0
VERTEX
8
CUT
10
36.2362
20
167.5294
0
VERTEX
8
CUT
10
35.7278
20
166.3529
0
VERTEX
8
CUT
10
35.0985
20
165.1765
0
VERTEX
8
CUT
10
34.4528
20
164
0
SEQEND
0
POLYLINE
8
CUT
66
1
70
0
0
VERTEX
8
CUT
10
33.8885
20
162.8
0
VERTEX
8
CUT
10
33.5215
20
161.6235
0
VERTEX
8
CUT
10
33.4003
20
160.4471
0
VERTEX
8
CUT
10
33.5451
20
159.2706
0
VERTEX
8
CUT
10
33.9318
20
158.0941
0
VERTEX
8
CUT
10
34.4962
20
156.9176
0
VERTEX
8
CUT
10
35.1444
20
155.7412
0
VERTEX
8
CUT
10
35.7685
20
154.5647
0
VERTEX
8
CUT
10
36.2649
20
153.3882
0
VERTEX
8
CUT
10
36.5509
20
152.2118
0
VERTEX
8
CUT
10
36.579
20
151.0353
0
VERTEX
8
CUT
10
36.3446
20
149.8588
0
VERTEX
8
CUT
10
35.8865
20
148.6824
0
VERTEX
8
CUT
10
35.2811
20
147.5059
0
VERTEX
8
CUT
10
34.6289
20
146.3294
0
VERTEX
8
CUT
10
34.0384
20
145.1529
0
VERTEX
8
CUT
10
33.6164
20
144
0
SEQEND
0
POLYLINE
8
CUT
66
1
70
0
0
VERTEX
8
CUT
10
41.3327
20
173.4
0
VERTEX
8
CUT
10
41.9298
20
172.2235
0
VERTEX
8
CUT
10
42.3723
20
171.0471
0
VERTEX
8
CUT
10
42.5866
20
169.8706
0
VERTEX
8
CUT
10
42.5371
20
168.6941
0
VERTEX
8
CUT
10
42.232
20
167.5176
0
VERTEX
8
CUT
10
41.722
20
166.3412
0
VERTEX
8
CUT
10
41.0919
20
165.1647
0
VERTEX
8
CUT
10
40.4466
20
163.9882
0
VERTEX
8
CUT
10
39.8933
20
162.8118
0
VERTEX
8
CUT
10
39.524
20
161.6353
0
VERTEX
8
CUT
10
39.4002
20
160.4588
0
VERTEX
8
CUT
10
39.5424
20
159.2824
0
VERTEX
8
CUT
10
39.927
20
158.1059
0
VERTEX
8
CUT
10
40.49
20
156.9294
0
VERTEX
8
CUT
10
41.1378
20
155.7529
0
VERTEX
8
CUT
10
41.7627
20
154.5765
0
VERTEX
8
CUT
10
42.2608
20
153.4
0
SEQEND
0
POLYLINE
8
CUT
66
1
70
0
0
VERTEX
8
CUT
10
42.5525
20
152.2
0
VERTEX
8
CUT
10
42.5779
20
151.0235
0
VERTEX
8
CUT
10
42.341
20
149.8471
0
VERTEX
8
CUT
10
41.881
20
148.6706
0
VERTEX
8
CUT
10
41.2746
20
147.4941
0
VERTEX
8
CUT
10
40.6225
20
146.3176
0
VERTEX
8
CUT
10
40.0332
20
145.1412
0
VERTEX
8
CUT
10
39.6175
20
144
0
SEQEND
0
POLYLINE
8
CUT
66
1
70
0
0
VERTEX
8
CUT
10
47
20
174
0
VERTEX
8
CUT
10
47.3262
20
173.4118
0
VERTEX
8
CUT
10
47.9244
20
172.2353
0
VERTEX
8
CUT
10
48.3689
20
171.0588
0
VERTEX
8
CUT
10
48.5858
20
169.8824
0
VERTEX
8
CUT
10
48.5389
20
168.7059
0
VERTEX
8
CUT
10
48.2362
20
167.5294
0
VERTEX
8
CUT
10
47.7278
20
166.3529
0
VERTEX
8
CUT
10
47.0985
20
165.1765
0
VERTEX
8
CUT
10
46.4528
20
164
0
SEQEND
0
POLYLINE
8
CUT
66
1
70
0
0
VERTEX
8
CUT
10
45.8885
20
162.8
0
VERTEX
8
CUT
10
45.5215
20
161.6235
0
VERTEX
8
CUT
10
45.4003
20
160.4471
0
VERTEX
8
CUT
10
45.5451
20
159.2706
0
VERTEX
8
CUT
10
45.9318
20
158.0941
0
VERTEX
8
CUT
10
46.4962
20
156.9176
0
VERTEX
8
CUT
10
47.1444
20
155.7412
0
VERTEX
8
CUT
10
47.7685
20
154.5647
0
VERTEX
8
CUT
10
48.2649
20
153.3882
0
VERTEX
8
CUT
10
48.5509
20
152.2118
0
VERTEX
8
CUT
10
48.579
20
151.0353
0
VERTEX
8
CUT
10
48.3446
20
149.8588
0
VERTEX
8
CUT
10
47.8865
20
148.6824
0
VERTEX
8
CUT
10
47.2811
20
147.5059
0
VERTEX
8
CUT
10
46.6289
20
146.3294
0
VERTEX
8
CUT
10
46.0384
20
145.1529
0
VERTEX
8
CUT
10
45.6164
20
144
0
SEQEND
0
POLYLINE
8
CUT
66
1
70
0
0
VERTEX
8
CUT
10
53.3327
20
173.4
0
VERTEX
8
CUT
10
53.9298
20
172.2235
0
VERTEX
8
CUT
10
54.3723
20
171.0471
0
VERTEX
8
CUT
10
54.5866
20
169.8706
0
VERTEX
8
CUT
10
54.5371
20
168.6941
0
VERTEX
8
CUT
10
54.232
20
167.5176
0
VERTEX
8
CUT
10
53.722
20
166.3412
0
VERTEX
8
CUT
10
53.0919
20
165.1647
0
VERTEX
8
CUT
10
52.4466
20
163.9882
0
VERTEX
8
CUT
10
51.8933
20
162.8118
0
VERTEX
8
CUT
10
51.524
20
161.6353
0
VERTEX
8
CUT
10
51.4002
20
160.4588
0
VERTEX
8
CUT
10
51.5424
20
159.2824
0
VERTEX
8
CUT
10
51.927
20
158.1059
0
VERTEX
8
CUT
10
52.49
20
156.9294
0
VERTEX
8
CUT
10
53.1378
20
155.7529
0
VERTEX
8
CUT
10
53.7627
20
154.5765
0
VERTEX
8
CUT
10
54.2608
20
153.4
0
SEQEND
0
POLYLINE
8
CUT
66
1
70
0
0
VERTEX
8
CUT
10
54.5525
20
152.2
0
VERTEX
8
CUT
10
54.5779
20
151.0235
0
VERTEX
8
CUT
10
54.341
20
149.8471
0
VERTEX
8
CUT
10
53.881
20
148.6706
0
VERTEX
8
CUT
10
53.2746
20
147.4941
0
VERTEX
8
CUT
10
52.6225
20
146.3176
0
VERTEX
8
CUT
10
52.0332
20
145.1412
0
VERTEX
8
CUT
10
51.6175
20
144
0
SEQEND
0
POLYLINE
8
CUT
66
1
70
0
0
VERTEX
8
CUT
10
59
20
174
0
VERTEX
8
CUT
10
59.3262
20
173.4118
0
VERTEX
8
CUT
10
59.9244
20
172.2353
0
VERTEX
8
CUT
10
60.3689
20
171.0588
0
VERTEX
8
CUT
10
60.5858
20
169.8824
0
VERTEX
8
CUT
10
60.5389
20
168.7059
0
VERTEX
8
CUT
10
60.2362
20
167.5294
0
VERTEX
8
CUT
10
59.7278
20
166.3529
0
VERTEX
8
CUT
10
59.0985
20
165.1765
0
VERTEX
8
CUT
10
58.4528
20
164
0
SEQEND
0
POLYLINE
8
CUT
66
1
70
0
0
VERTEX
8
CUT
10
57.8885
20
162.8
0
VERTEX
8
CUT
10
57.5215
20
161.6235
0
VERTEX
8
CUT
10
57.4003
20
160.4471
0
VERTEX
8
CUT
10
57.5451
20
159.2706
0
VERTEX
8
CUT
10
57.9318
20
158.0941
0
VERTEX
8
CUT
10
58.4962
20
156.9176
0
VERTEX
8
CUT
10
59.1444
20
155.7412
0
VERTEX
8
CUT
10
59.7685
20
154.5647
0
VERTEX
8
CUT
10
60.2649
20
153.3882
0
VERTEX
8
CUT
10
60.5509
20
152.2118
0
VERTEX
8
CUT
10
60.579
20
151.0353
0
VERTEX
8
CUT
10
60.3446
20
149.8588
0
VERTEX
8
CUT
10
59.8865
20
148.6824
0
VERTEX
8
CUT
10
59.2811
20
147.5059
0
VERTEX
8
CUT
10
58.6289
20
146.3294
0
VERTEX
8
CUT
10
58.0384
20
145.1529
0
VERTEX
8
CUT
10
57.6164
20
144
0
SEQEND
0
LINE
8
CUT
10
2.5
20
144
11
2.5
21
147
0
POLYLINE
8
CUT
66
1
70
0
0
VERTEX
8
CUT
10
0
20
138
0
VERTEX
8
CUT
10
70
20
138
0
VERTEX
8
CUT
10
70
20
108
0
VERTEX
8
CUT
10
0
20
108
0
VERTEX
8
CUT
10
0
20
138
0
SEQEND
0
POLYLINE
8
CUT
66
1
70
0
0
VERTEX
8
CUT
10
11
20
138
0
VERTEX
8
CUT
10
11.3262
20
137.4118
0
VERTEX
8
CUT
10
11.9244
20
136.2353
0
VERTEX
8
CUT
10
12.3689
20
135.0588
0
VERTEX
8
CUT
10
12.5858
20
133.8824
0
VERTEX
8
CUT
10
12.5389
20
132.7059
0
VERTEX
8
CUT
10
12.2362
20
131.5294
0
VERTEX
8
CUT
10
11.7278
20
130.3529
0
VERTEX
8
CUT
10
11.0985
20
129.1765
0
VERTEX
8
CUT
10
10.4528
20
128
0
SEQEND
0
POLYLINE
8
CUT
66
1
70
0
0
VERTEX
8
CUT
10
9.7392
20
126.4
0
VERTEX
8
CUT
10
9.4508
20
125.2235
0
VERTEX
8
CUT
10
9.42
20
124.0471
0
VERTEX
8
CUT
10
9.6519
20
122.8706
0
VERTEX
8
CUT
10
10.108
20
121.6941
0
VERTEX
8
CUT
10
10.7125
20
120.5176
0
VERTEX
8
CUT
10
11.3647
20
119.3412
0
VERTEX
8
CUT
10
11.9563
20
118.1647
0
VERTEX
8
CUT
10
12.3889
20
116.9882
0
VERTEX
8
CUT
10
12.5905
20
115.8118
0
VERTEX
8
CUT
10
12.5277
20
114.6353
0
VERTEX
8
CUT
10
12.2108
20
113.4588
0
VERTEX
8
CUT
10
11.6925
20
112.2824
0
VERTEX
8
CUT
10
11.0591
20
111.1059
0
VERTEX
8
CUT
10
10.4159
20
109.9294
0
VERTEX
8
CUT
10
9.8698
20
108.7529
0
VERTEX
8
CUT
10
9.6406
20
108
0
SEQEND
0
POLYLINE
8
CUT
66
1
70
0
0
VERTEX
8
CUT
10
17.441
20
137.2
0
VERTEX
8
CUT
10
18.0184
20
136.0235
0
VERTEX
8
CUT
10
18.4264
20
134.8471
0
VERTEX
8
CUT
10
18.5972
20
133.6706
0
VERTEX
8
CUT
10
18.5024
20
132.4941
0
VERTEX
8
CUT
10
18.1578
20
131.3176
0
VERTEX
8
CUT
10
17.6206
20
130.1412
0
VERTEX
8
CUT
10
16.9803
20
128.9647
0
VERTEX
8
CUT
10
16.3432
20
127.7882
0
VERTEX
8
CUT
10
15.8154
20
126.6118
0
VERTEX
8
CUT
10
15.4845
20
125.4353
0
VERTEX
8
CUT
10
15.4057
20
124.2588
0
VERTEX
8
CUT
10
15.5919
20
123.0824
0
VERTEX
8
CUT
10
16.0124
20
121.9059
0
VERTEX
8
CUT
10
16.597
20
120.7294
0
VERTEX
8
CUT
10
17.2487
20
119.5529
0
VERTEX
8
CUT
10
17.859
20
118.3765
0
VERTEX
8
CUT
10
18.3265
20
117.2
0
SEQEND
0
POLYLINE
8
CUT
66
1
70
0
0
VERTEX
8
CUT
10
18.599
20
115.6
0
VERTEX
8
CUT
10
18.4884
20
114.4235
0
VERTEX
8
CUT
10
18.1302
20
113.2471
0
VERTEX
8
CUT
10
17.5841
20
112.0706
0
VERTEX
8
CUT
10
16.9409
20
110.8941
0
VERTEX
8
CUT
10
16.3075
20
109.7176
0
VERTEX
8
CUT
10
15.7892
20
108.5412
0
VERTEX
8
CUT
10
15.6435
20
108
0
SEQEND
0
POLYLINE
8
CUT
66
1
70
0
0
VERTEX
8
CUT
10
23
20
138
0
VERTEX
8
CUT
10
23.3262
20
137.4118
0
VERTEX
8
CUT
10
23.9244
20
136.2353
0
VERTEX
8
CUT
10
24.3689
20
135.0588
0
VERTEX
8
CUT
10
24.5858
20
133.8824
0
VERTEX
8
CUT
10
24.5389
20
132.7059
0
VERTEX
8
CUT
10
24.2362
20
131.5294
0
VERTEX
8
CUT
10
23.7278
20
130.3529
0
VERTEX
8
CUT
10
23.0985
20
129.1765
0
VERTEX
8
CUT
10
22.4528
20
128
0
SEQEND
0
POLYLINE
8
CUT
66
1
70
0
0
VERTEX
8
CUT
10
21.7392
20
126.4
0
VERTEX
8
CUT
10
21.4508
20
125.2235
0
VERTEX
8
CUT
10
21.42
20
124.0471
0
VERTEX
8
CUT
10
21.6519
20
122.8706
0
VERTEX
8
CUT
10
22.108
20
121.6941
0
VERTEX
8
CUT
10
22.7125
20
120.5176
0
VERTEX
8
CUT
10
23.3647
20
119.3412
0
VERTEX
8
CUT
10
23.9563
20
118.1647
0
VERTEX
8
CUT
10
24.3889
20
116.9882
0
VERTEX
8
CUT
10
24.5905
20
115.8118
0
VERTEX
8
CUT
10
24.5277
20
114.6353
0
VERTEX
8
CUT
10
24.2108
20
113.4588
0
VERTEX
8
CUT
10
23.6925
20
112.2824
0
VERTEX
8
CUT
10
23.0591
20
111.1059
0
VERTEX
8
CUT
10
22.4159
20
109.9294
0
VERTEX
8
CUT
10
21.8698
20
108.7529
0
VERTEX
8
CUT
10
21.6406
20
108
0
SEQEND
0
POLYLINE
8
CUT
66
1
70
0
0
VERTEX
8
CUT
10
29.441
20
137.2
0
VERTEX
8
CUT
10
30.0184
20
136.0235
0
VERTEX
8
CUT
10
30.4264
20
134.8471
0
VERTEX
8
CUT
10
30.5972
20
133.6706
0
VERTEX
8
CUT
10
30.5024
20
132.4941
0
VERTEX
8
CUT
10
30.1578
20
131.3176
0
VERTEX
8
CUT
10
29.6206
20
130.1412
0
VERTEX
8
CUT
10
28.9803
20
128.9647
0
VERTEX
8
CUT
10
28.3432
20
127.7882
0
VERTEX
8
CUT
10
27.8154
20
126.6118
0
VERTEX
8
CUT
10
27.4845
20
125.4353
0
VERTEX
8
CUT
10
27.4057
20
124.2588
0
VERTEX
8
CUT
10
27.5919
20
123.0824
0
VERTEX
8
CUT
10
28.0124
20
121.9059
0
VERTEX
8
CUT
10
28.597
20
120.7294
0
VERTEX
8
CUT
10
29.2487
20
119.5529
0
VERTEX
8
CUT
10
29.859
20
118.3765
0
VERTEX
8
CUT
10
30.3265
20
117.2
0
SEQEND
0
POLYLINE
8
CUT
66
1
70
0
0
VERTEX
8
CUT
10
30.599
20
115.6
0
VERTEX
8
CUT
10
30.4884
20
114.4235
0
VERTEX
8
CUT
10
30.1302
20
113.2471
0
VERTEX
8
CUT
10
29.5841
20
112.0706
0
VERTEX
8
CUT
10
28.9409
20
110.8941
0
VERTEX
8
CUT
10
28.3075
20
109.7176
0
VERTEX
8
CUT
10
27.7892
20
108.5412
0
VERTEX
8
CUT
10
27.6435
20
108
0
SEQEND
0
POLYLINE
8
CUT
66
1
70
0
0
VERTEX
8
CUT
10
35
20
138
0
VERTEX
8
CUT
10
35.3262
20
137.4118
0
VERTEX
8
CUT
10
35.9244
20
136.2353
0
VERTEX
8
CUT
10
36.3689
20
135.0588
0
VERTEX
8
CUT
10
36.5858
20
133.8824
0
VERTEX
8
CUT
10
36.5389
20
132.7059
0
VERTEX
8
CUT
10
36.2362
20
131.5294
0
VERTEX
8
CUT
10
35.7278
20
130.3529
0
VERTEX
8
CUT
10
35.0985
20
129.1765
0
VERTEX
8
CUT
10
34.4528
20
128
0
SEQEND
0
POLYLINE
8
CUT
66
1
70
0
0
VERTEX
8
CUT
10
33.7392
20
126.4
0
VERTEX
8
CUT
10
33.4508
20
125.2235
0
VERTEX
8
CUT
10
33.42
20
124.0471
0
VERTEX
8
CUT
10
33.6519
20
122.8706
0
VERTEX
8
CUT
10
34.108
20
121.6941
0
VERTEX
8
CUT
10
34.7125
20
120.5176
0
VERTEX
8
CUT
10
35.3647
20
119.3412
0
VERTEX
8
CUT
10
35.9563
20
118.1647
0
VERTEX
8
CUT
10
36.3889
20
116.9882
0
VERTEX
8
CUT
10
36.5905
20
115.8118
0
VERTEX
8
CUT
10
36.5277
20
114.6353
0
VERTEX
8
CUT
10
36.2108
20
113.4588
0
VERTEX
8
CUT
10
35.6925
20
112.2824
0
VERTEX
8
CUT
10
35.0591
20
111.1059
0
VERTEX
8
CUT
10
34.4159
20
109.9294
0
VERTEX
8
CUT
10
33.8698
20
108.7529
0
VERTEX
8
CUT
10
33.6406
20
108
0
SEQEND
0
POLYLINE
8
CUT
66
1
70
0
0
VERTEX
8
CUT
10
41.441
20
137.2
0
VERTEX
8
CUT
10
42.0184
20
136.0235
0
VERTEX
8
CUT
10
42.4264
20
134.8471
0
VERTEX
8
CUT
10
42.5972
20
133.6706
0
VERTEX
8
CUT
10
42.5024
20
132.4941
0
VERTEX
8
CUT
10
42.1578
20
131.3176
0
VERTEX
8
CUT
10
41.6206
20
130.1412
0
VERTEX
8
CUT
10
40.9803
20
128.9647
0
VERTEX
8
CUT
10
40.3432
20
127.7882
0
VERTEX
8
CUT
10
39.8154
20
126.6118
0
VERTEX
8
CUT
10
39.4845
20
125.4353
0
VERTEX
8
CUT
10
39.4057
20
124.2588
0
VERTEX
8
CUT
10
39.5919
20
123.0824
0
VERTEX
8
CUT
10
40.0124
20
121.9059
0
VERTEX
8
CUT
10
40.597
20
120.7294
0
VERTEX
8
CUT
10
41.2487
20
119.5529
0
VERTEX
8
CUT
10
41.859
20
118.3765
0
VERTEX
8
CUT
10
42.3265
20
117.2
0
SEQEND
0
POLYLINE
8
CUT
66
1
70
0
0
VERTEX
8
CUT
10
42.599
20
115.6
0
VERTEX
8
CUT
10
42.4884
20
114.4235
0
VERTEX
8
CUT
10
42.1302
20
113.2471
0
VERTEX
8
CUT
10
41.5841
20
112.0706
0
VERTEX
8
CUT
10
40.9409
20
110.8941
0
VERTEX
8
CUT
10
40.3075
20
109.7176
0
VERTEX
8
CUT
10
39.7892
20
108.5412
0
VERTEX
8
CUT
10
39.6435
20
108
0
SEQEND
0
POLYLINE
8
CUT
66
1
70
0
0
VERTEX
8
CUT
10
47
20
138
0
VERTEX
8
CUT
10
47.3262
20
137.4118
0
VERTEX
8
CUT
10
47.9244
20
136.2353
0
VERTEX
8
CUT
10
48.3689
20
135.0588
0
VERTEX
8
CUT
10
48.5858
20
133.8824
0
VERTEX
8
CUT
10
48.5389
20
132.7059
0
VERTEX
8
CUT
10
48.2362
20
131.5294
0
VERTEX
8
CUT
10
47.7278
20
130.3529
0
VERTEX
8
CUT
10
47.0985
20
129.1765
0
VERTEX
8
CUT
10
46.4528
20
128
0
SEQEND
0
POLYLINE
8
CUT
66
1
70
0
0
VERTEX
8
CUT
10
45.7392
20
126.4
0
VERTEX
8
CUT
10
45.4508
20
125.2235
0
VERTEX
8
CUT
10
45.42
20
124.0471
0
VERTEX
8
CUT
10
45.6519
20
122.8706
0
VERTEX
8
CUT
10
46.108
20
121.6941
0
VERTEX
8
CUT
10
46.7125
20
120.5176
0
VERTEX
8
CUT
10
47.3647
20
119.3412
0
VERTEX
8
CUT
10
47.9563
20
118.1647
0
VERTEX
8
CUT
10
48.3889
20
116.9882
0
VERTEX
8
CUT
10
48.5905
20
115.8118
0
VERTEX
8
CUT
10
48.5277
20
114.6353
0
VERTEX
8
CUT
10
48.2108
20
113.4588
0
VERTEX
8
CUT
10
47.6925
20
112.2824
0
VERTEX
8
CUT
10
47.0591
20
111.1059
0
VERTEX
8
CUT
10
46.4159
20
109.9294
0
VERTEX
8
CUT
10
45.8698
20
108.7529
0
VERTEX
8
CUT
10
45.6406
20
108
0
SEQEND
0
POLYLINE
8
CUT
66
1
70
0
0
VERTEX
8
CUT
10
53.441
20
137.2
0
VERTEX
8
CUT
10
54.0184
20
136.0235
0
VERTEX
8
CUT
10
54.4264
20
134.8471
0
VERTEX
8
CUT
10
54.5972
20
133.6706
0
VERTEX
8
CUT
10
54.5024
20
132.4941
0
VERTEX
8
CUT
10
54.1578
20
131.3176
0
VERTEX
8
CUT
10
53.6206
20
130.1412
0
VERTEX
8
CUT
10
52.9803
20
128.9647
0
VERTEX
8
CUT
10
52.3432
20
127.7882
0
VERTEX
8
CUT
10
51.8154
20
126.6118
0
VERTEX
8
CUT
10
51.4845
20
125.4353
0
VERTEX
8
CUT
10
51.4057
20
124.2588
0
VERTEX
8
CUT
10
51.5919
20
123.0824
0
VERTEX
8
CUT
10
52.0124
20
121.9059
0
VERTEX
8
CUT
10
52.597
20
120.7294
0
VERTEX
8
CUT
10
53.2487
20
119.5529
0
VERTEX
8
CUT
10
53.859
20
118.3765
0
VERTEX
8
CUT
10
54.3265
20
117.2
0
SEQEND
0
POLYLINE
8
CUT
66
1
70
0
0
VERTEX
8
CUT
10
54.599
20
115.6
0
VERTEX
8
CUT
10
54.4884
20
114.4235
0
VERTEX
8
CUT
10
54.1302
20
113.2471
0
VERTEX
8
CUT
10
53.5841
20
112.0706
0
VERTEX
8
CUT
10
52.9409
20
110.8941
0
VERTEX
8
CUT
10
52.3075
20
109.7176
0
VERTEX
8
CUT
10
51.7892
20
108.5412
0
VERTEX
8
CUT
10
51.6435
20
108
0
SEQEND
0
POLYLINE
8
CUT
66
1
70
0
0
VERTEX
8
CUT
10
59
20
138
0
VERTEX
8
CUT
10
59.3262
20
137.4118
0
VERTEX
8
CUT
10
59.9244
20
136.2353
0
VERTEX
8
CUT
10
60.3689
20
135.0588
0
VERTEX
8
CUT
10
60.5858
20
133.8824
0
VERTEX
8
CUT
10
60.5389
20
132.7059
0
VERTEX
8
CUT
10
60.2362
20
131.5294
0
VERTEX
8
CUT
10
59.7278
20
130.3529
0
VERTEX
8
CUT
10
59.0985
20
129.1765
0
VERTEX
8
CUT
10
58.4528
20
128
0
SEQEND
0
POLYLINE
8
CUT
66
1
70
0
0
VERTEX
8
CUT
10
57.7392
20
126.4
0
VERTEX
8
CUT
10
57.4508
20
125.2235
0
VERTEX
8
CUT
10
57.42
20
124.0471
0
VERTEX
8
CUT
10
57.6519
20
122.8706
0
VERTEX
8
CUT
10
58.108
20
121.6941
0
VERTEX
8
CUT
10
58.7125
20
120.5176
0
VERTEX
8
CUT
10
59.3647
20
119.3412
0
VERTEX
8
CUT
10
59.9563
20
118.1647
0
VERTEX
8
CUT
10
60.3889
20
116.9882
0
VERTEX
8
CUT
10
60.5905
20
115.8118
0
VERTEX
8
CUT
10
60.5277
20
114.6353
0
VERTEX
8
CUT
10
60.2108
20
113.4588
0
VERTEX
8
CUT
10
59.6925
20
112.2824
0
VERTEX
8
CUT
10
59.0591
20
111.1059
0
VERTEX
8
CUT
10
58.4159
20
109.9294
0
VERTEX
8
CUT
10
57.8698
20
108.7529
0
VERTEX
8
CUT
10
57.6406
20
108
0
SEQEND
0
LINE
8
CUT
10
2.5
20
108
11
2.5
21
111
0
LINE
8
CUT
10
5
20
108
11
5
21
111
0
POLYLINE
8
CUT
66
1
70
0
0
VERTEX
8
CUT
10
0
20
102
0
VERTEX
8
CUT
10
70
20
102
0
VERTEX
8
CUT
10
70
20
72
0
VERTEX
8
CUT
10
0
20
72
0
VERTEX
8
CUT
10
0
20
102
0
SEQEND
0
POLYLINE
8
CUT
66
1
70
0
0
VERTEX
8
CUT
10
11
20
102
0
VERTEX
8
CUT
10
11.3262
20
101.4118
0
VERTEX
8
CUT
10
11.9244
20
100.2353
0
VERTEX
8
CUT
10
12.3689
20
99.0588
0
VERTEX
8
CUT
10
12.5858
20
97.8824
0
VERTEX
8
CUT
10
12.5389
20
96.7059
0
VERTEX
8
CUT
10
12.2362
20
95.5294
0
VERTEX
8
CUT
10
11.7278
20
94.3529
0
VERTEX
8
CUT
10
11.0985
20
93.1765
0
VERTEX
8
CUT
10
10.4528
20
92
0
SEQEND
0
POLYLINE
8
CUT
66
1
70
0
0
VERTEX
8
CUT
10
9.6144
20
90
0
VERTEX
8
CUT
10
9.4102
20
88.8235
0
VERTEX
8
CUT
10
9.4704
20
87.6471
0
VERTEX
8
CUT
10
9.785
20
86.4706
0
VERTEX
8
CUT
10
10.3016
20
85.2941
0
VERTEX
8
CUT
10
10.9343
20
84.1176
0
VERTEX
8
CUT
10
11.578
20
82.9412
0
VERTEX
8
CUT
10
12.1255
20
81.7647
0
VERTEX
8
CUT
10
12.4859
20
80.5882
0
VERTEX
8
CUT
10
12.5992
20
79.4118
0
VERTEX
8
CUT
10
12.4466
20
78.2353
0
VERTEX
8
CUT
10
12.0534
20
77.0588
0
VERTEX
8
CUT
10
11.485
20
75.8824
0
VERTEX
8
CUT
10
10.836
20
74.7059
0
VERTEX
8
CUT
10
10.2143
20
73.5294
0
VERTEX
8
CUT
10
9.7232
20
72.3529
0
VERTEX
8
CUT
10
9.6395
20
72
0
SEQEND
0
POLYLINE
8
CUT
66
1
70
0
0
VERTEX
8
CUT
10
17.5472
20
101
0
VERTEX
8
CUT
10
18.102
20
99.8235
0
VERTEX
8
CUT
10
18.4734
20
98.6471
0
VERTEX
8
CUT
10
18.5999
20
97.4706
0
VERTEX
8
CUT
10
18.4603
20
96.2941
0
VERTEX
8
CUT
10
18.0779
20
95.1176
0
VERTEX
8
CUT
10
17.5162
20
93.9412
0
VERTEX
8
CUT
10
16.8687
20
92.7647
0
VERTEX
8
CUT
10
16.2431
20
91.5882
0
VERTEX
8
CUT
10
15.7432
20
90.4118
0
VERTEX
8
CUT
10
15.4524
20
89.2353
0
VERTEX
8
CUT
10
15.4189
20
88.0588
0
VERTEX
8
CUT
10
15.6484
20
86.8824
0
VERTEX
8
CUT
10
16.1026
20
85.7059
0
VERTEX
8
CUT
10
16.706
20
84.5294
0
VERTEX
8
CUT
10
17.3583
20
83.3529
0
VERTEX
8
CUT
10
17.9511
20
82.1765
0
VERTEX
8
CUT
10
18.3856
20
81
0
SEQEND
0
POLYLINE
8
CUT
66
1
70
0
0
VERTEX
8
CUT
10
18.5757
20
79
0
VERTEX
8
CUT
10
18.3338
20
77.8235
0
VERTEX
8
CUT
10
17.87
20
76.6471
0
VERTEX
8
CUT
10
17.2616
20
75.4706
0
VERTEX
8
CUT
10
16.6097
20
74.2941
0
VERTEX
8
CUT
10
16.0227
20
73.1176
0
VERTEX
8
CUT
10
15.6195
20
72
0
SEQEND
0
POLYLINE
8
CUT
66
1
70
0
0
VERTEX
8
CUT
10
23
20
102
0
VERTEX
8
CUT
10
23.3262
20
101.4118
0
VERTEX
8
CUT
10
23.9244
20
100.2353
0
VERTEX
8
CUT
10
24.3689
20
99.0588
0
VERTEX
8
CUT
10
24.5858
20
97.8824
0
VERTEX
8
CUT
10
24.5389
20
96.7059
0
VERTEX
8
CUT
10
24.2362
20
95.5294
0
VERTEX
8
CUT
10
23.7278
20
94.3529
0
VERTEX
8
CUT
10
23.0985
20
93.1765
0
VERTEX
8
CUT
10
22.4528
20
92
0
SEQEND
0
POLYLINE
8
CUT
66
1
70
0
0
VERTEX
8
CUT
10
21.6144
20
90
0
VERTEX
8
CUT
10
21.4102
20
88.8235
0
VERTEX
8
CUT
10
21.4704
20
87.6471
0
VERTEX
8
CUT
10
21.785
20
86.4706
0
VERTEX
8
CUT
10
22.3016
20
85.2941
0
VERTEX
8
CUT
10
22.9343
20
84.1176
0
VERTEX
8
CUT
10
23.578
20
82.9412
0
VERTEX
8
CUT
10
24.1255
20
81.7647
0
VERTEX
8
CUT
10
24.4859
20
80.5882
0
VERTEX
8
CUT
10
24.5992
20
79.4118
0
VERTEX
8
CUT
10
24.4466
20
78.2353
0
VERTEX
8
CUT
10
24.0534
20
77.0588
0
VERTEX
8
CUT
10
23.485
20
75.8824
0
VERTEX
8
CUT
10
22.836
20
74.7059
0
VERTEX
8
CUT
10
22.2143
20
73.5294
0
VERTEX
8
CUT
10
21.7232
20
72.3529
0
VERTEX
8
CUT
10
21.6395
20
72
0
SEQEND
0
POLYLINE
8
CUT
66
1
70
0
0
VERTEX
8
CUT
10
29.5472
20
101
0
VERTEX
8
CUT
10
30.102
20
99.8235
0
VERTEX
8
CUT
10
30.4734
20
98.6471
0
VERTEX
8
CUT
10
30.5999
20
97.4706
0
VERTEX
8
CUT
10
30.4603
20
96.2941
0
VERTEX
8
CUT
10
30.0779
20
95.1176
0
VERTEX
8
CUT
10
29.5162
20
93.9412
0
VERTEX
8
CUT
10
28.8687
20
92.7647
0
VERTEX
8
CUT
10
28.2431
20
91.5882
0
VERTEX
8
CUT
10
27.7432
20
90.4118
0
VERTEX
8
CUT
10
27.4524
20
89.2353
0
VERTEX
8
CUT
10
27.4189
20
88.0588
0
VERTEX
8
CUT
10
27.6484
20
86.8824
0
VERTEX
8
CUT
10
28.1026
20
85.7059
0
VERTEX
8
CUT
10
28.706
20
84.5294
0
VERTEX
8
CUT
10
29.3583
20
83.3529
0
VERTEX
8
CUT
10
29.9511
20
82.1765
0
VERTEX
8
CUT
10
30.3856
20
81
0
SEQEND
0
POLYLINE
8
CUT
66
1
70
0
0
VERTEX
8
CUT
10
30.5757
20
79
0
VERTEX
8
CUT
10
30.3338
20
77.8235
0
VERTEX
8
CUT
10
29.87
20
76.6471
0
VERTEX
8
CUT
10
29.2616
20
75.4706
0
VERTEX
8
CUT
10
28.6097
20
74.2941
0
VERTEX
8
CUT
10
28.0227
20
73.1176
0
VERTEX
8
CUT
10
27.6195
20
72
0
SEQEND
0
POLYLINE
8
CUT
66
1
70
0
0
VERTEX
8
CUT
10
35
20
102
0
VERTEX
8
CUT
10
35.3262
20
101.4118
0
VERTEX
8
CUT
10
35.9244
20
100.2353
0
VERTEX
8
CUT
10
36.3689
20
99.0588
0
VERTEX
8
CUT
10
36.5858
20
97.8824
0
VERTEX
8
CUT
10
36.5389
20
96.7059
0
VERTEX
8
CUT
10
36.2362
20
95.5294
0
VERTEX
8
CUT
10
35.7278
20
94.3529
0
VERTEX
8
CUT
10
35.0985
20
93.1765
0
VERTEX
8
CUT
10
34.4528
20
92
0
SEQEND
0
POLYLINE
8
CUT
66
1
70
0
0
VERTEX
8
CUT
10
33.6144
20
90
0
VERTEX
8
CUT
10
33.4102
20
88.8235
0
VERTEX
8
CUT
10
33.4704
20
87.6471
0
VERTEX
8
CUT
10
33.785
20
86.4706
0
VERTEX
8
CUT
10
34.3016
20
85.2941
0
VERTEX
8
CUT
10
34.9343
20
84.1176
0
VERTEX
8
CUT
10
35.578
20
82.9412
0
VERTEX
8
CUT
10
36.1255
20
81.7647
0
VERTEX
8
CUT
10
36.4859
20
80.5882
0
VERTEX
8
CUT
10
36.5992
20
79.4118
0
VERTEX
8
CUT
10
36.4466
20
78.2353
0
VERTEX
8
CUT
10
36.0534
20
77.0588
0
VERTEX
8
CUT
10
35.485
20
75.8824
0
VERTEX
8
CUT
10
34.836
20
74.7059
0
VERTEX
8
CUT
10
34.2143
20
73.5294
0
VERTEX
8
CUT
10
33.7232
20
72.3529
0
VERTEX
8
CUT
10
33.6395
20
72
0
SEQEND
0
POLYLINE
8
CUT
66
1
70
0
0
VERTEX
8
CUT
10
41.5472
20
101
0
VERTEX
8
CUT
10
42.102
20
99.8235
0
VERTEX
8
CUT
10
42.4734
20
98.6471
0
VERTEX
8
CUT
10
42.5999
20
97.4706
0
VERTEX
8
CUT
10
42.4603
20
96.2941
0
VERTEX
8
CUT
10
42.0779
20
95.1176
0
VERTEX
8
CUT
10
41.5162
20
93.9412
0
VERTEX
8
CUT
10
40.8687
20
92.7647
0
VERTEX
8
CUT
10
40.2431
20
91.5882
0
VERTEX
8
CUT
10
39.7432
20
90.4118
0
VERTEX
8
CUT
10
39.4524
20
89.2353
0
VERTEX
8
CUT
10
39.4189
20
88.0588
0
VERTEX
8
CUT
10
39.6484
20
86.8824
0
VERTEX
8
CUT
10
40.1026
20
85.7059
0
VERTEX
8
CUT
10
40.706
20
84.5294
0
VERTEX
8
CUT
10
41.3583
20
83.3529
0
VERTEX
8
CUT
10
41.9511
20
82.1765
0
VERTEX
8
CUT
10
42.3856
20
81
0
SEQEND
0
POLYLINE
8
CUT
66
1
70
0
0
VERTEX
8
CUT
10
42.5757
20
79
0
VERTEX
8
CUT
10
42.3338
20
77.8235
0
VERTEX
8
CUT
10
41.87
20
76.6471
0
VERTEX
8
CUT
10
41.2616
20
75.4706
0
VERTEX
8
CUT
10
40.6097
20
74.2941
0
VERTEX
8
CUT
10
40.0227
20
73.1176
0
VERTEX
8
CUT
10
39.6195
20
72
0
SEQEND
0
POLYLINE
8
CUT
66
1
70
0
0
VERTEX
8
CUT
10
47
20
102
0
VERTEX
8
CUT
10
47.3262
20
101.4118
0
VERTEX
8
CUT
10
47.9244
20
100.2353
0
VERTEX
8
CUT
10
48.3689
20
99.0588
0
VERTEX
8
CUT
10
48.5858
20
97.8824
0
VERTEX
8
CUT
10
48.5389
20
96.7059
0
VERTEX
8
CUT
10
48.2362
20
95.5294
0
VERTEX
8
CUT
10
47.7278
20
94.3529
0
VERTEX
8
CUT
10
47.0985
20
93.1765
0
VERTEX
8
CUT
10
46.4528
20
92
0
SEQEND
0
POLYLINE
8
CUT
66
1
70
0
0
VERTEX
8
CUT
10
45.6144
20
90
0
VERTEX
8
CUT
10
45.4102
20
88.8235
0
VERTEX
8
CUT
10
45.4704
20
87.6471
0
VERTEX
8
CUT
10
45.785
20
86.4706
0
VERTEX
8
CUT
10
46.3016
20
85.2941
0
VERTEX
8
CUT
10
46.9343
20
84.1176
0
VERTEX
8
CUT
10
47.578
20
82.9412
0
VERTEX
8
CUT
10
48.1255
20
81.7647
0
VERTEX
8
CUT
10
48.4859
20
80.5882
0
VERTEX
8
CUT
10
48.5992
20
79.4118
0
VERTEX
8
CUT
10
48.4466
20
78.2353
0
VERTEX
8
CUT
10
48.0534
20
77.0588
0
VERTEX
8
CUT
10
47.485
20
75.8824
0
VERTEX
8
CUT
10
46.836
20
74.7059
0
VERTEX
8
CUT
10
46.2143
20
73.5294
0
VERTEX
8
CUT
10
45.7232
20
72.3529
0
VERTEX
8
CUT
10
45.6395
20
72
0
SEQEND
0
POLYLINE
8
CUT
66
1
70
0
0
VERTEX
8
CUT
10
53.5472
20
101
0
VERTEX
8
CUT
10
54.102
20
99.8235
0
VERTEX
8
CUT
10
54.4734
20
98.6471
0
VERTEX
8
CUT
10
54.5999
20
97.4706
0
VERTEX
8
CUT
10
54.4603
20
96.2941
0
VERTEX
8
CUT
10
54.0779
20
95.1176
0
VERTEX
8
CUT
10
53.5162
20
93.9412
0
VERTEX
8
CUT
10
52.8687
20
92.7647
0
VERTEX
8
CUT
10
52.2431
20
91.5882
0
VERTEX
8
CUT
10
51.7432
20
90.4118
0
VERTEX
8
CUT
10
51.4524
20
89.2353
0
VERTEX
8
CUT
10
51.4189
20
88.0588
0
VERTEX
8
CUT
10
51.6484
20
86.8824
0
VERTEX
8
CUT
10
52.1026
20
85.7059
0
VERTEX
8
CUT
10
52.706
20
84.5294
0
VERTEX
8
CUT
10
53.3583
20
83.3529
0
VERTEX
8
CUT
10
53.9511
20
82.1765
0
VERTEX
8
CUT
10
54.3856
20
81
0
SEQEND
0
POLYLINE
8
CUT
66
1
70
0
0
VERTEX
8
CUT
10
54.5757
20
79
0
VERTEX
8
CUT
10
54.3338
20
77.8235
0
VERTEX
8
CUT
10
53.87
20
76.6471
0
VERTEX
8
CUT
10
53.2616
20
75.4706
0
VERTEX
8
CUT
10
52.6097
20
74.2941
0
VERTEX
8
CUT
10
52.0227
20
73.1176
0
VERTEX
8
CUT
10
51.6195
20
72
0
SEQEND
0
POLYLINE
8
CUT
66
1
70
0
0
VERTEX
8
CUT
10
59
20
102
0
VERTEX
8
CUT
10
59.3262
20
101.4118
0
VERTEX
8
CUT
10
59.9244
20
100.2353
0
VERTEX
8
CUT
10
60.3689
20
99.0588
0
VERTEX
8
CUT
10
60.5858
20
97.8824
0
VERTEX
8
CUT
10
60.5389
20
96.7059
0
VERTEX
8
CUT
10
60.2362
20
95.5294
0
VERTEX
8
CUT
10
59.7278
20
94.3529
0
VERTEX
8
CUT
10
59.0985
20
93.1765
0
VERTEX
8
CUT
10
58.4528
20
92
0
SEQEND
0
POLYLINE
8
CUT
66
1
70
0
0
VERTEX
8
CUT
10
57.6144
20
90
0
VERTEX
8
CUT
10
57.4102
20
88.8235
0
VERTEX
8
CUT
10
57.4704
20
87.6471
0
VERTEX
8
CUT
10
57.785
20
86.4706
0
VERTEX
8
CUT
10
58.3016
20
85.2941
0
VERTEX
8
CUT
10
58.9343
20
84.1176
0
VERTEX
8
CUT
10
59.578
20
82.9412
0
VERTEX
8
CUT
10
60.1255
20
81.7647
0
VERTEX
8
CUT
10
60.4859
20
80.5882
0
VERTEX
8
CUT
10
60.5992
20
79.4118
0
VERTEX
8
CUT
10
60.4466
20
78.2353
0
VERTEX
8
CUT
10
60.0534
20
77.0588
0
VERTEX
8
CUT
10
59.485
20
75.8824
0
VERTEX
8
CUT
10
58.836
20
74.7059
0
VERTEX
8
CUT
10
58.2143
20
73.5294
0
VERTEX
8
CUT
10
57.7232
20
72.3529
0
VERTEX
8
CUT
10
57.6395
20
72
0
SEQEND
0
LINE
8
CUT
10
2.5
20
72
11
2.5
21
75
0
LINE
8
CUT
10
5
20
72
11
5
21
75
0
LINE
8
CUT
10
7.5
20
72
11
7.5
21
75
0
POLYLINE
8
CUT
66
1
70
0
0
VERTEX
8
CUT
10
0
20
66
0
VERTEX
8
CUT
10
70
20
66
0
VERTEX
8
CUT
10
70
20
36
0
VERTEX
8
CUT
10
0
20
36
0
VERTEX
8
CUT
10
0
20
66
0
SEQEND
0
POLYLINE
8
CUT
66
1
70
0
0
VERTEX
8
CUT
10
11
20
66
0
VERTEX
8
CUT
10
11.3262
20
65.4118
0
VERTEX
8
CUT
10
11.9244
20
64.2353
0
VERTEX
8
CUT
10
12.3689
20
63.0588
0
VERTEX
8
CUT
10
12.5858
20
61.8824
0
VERTEX
8
CUT
10
12.5389
20
60.7059
0
VERTEX
8
CUT
10
12.2362
20
59.5294
0
VERTEX
8
CUT
10
11.7278
20
58.3529
0
VERTEX
8
CUT
10
11.0985
20
57.1765
0
VERTEX
8
CUT
10
10.4528
20
56
0
SEQEND
0
POLYLINE
8
CUT
66
1
70
0
0
VERTEX
8
CUT
10
9.5165
20
53.6
0
VERTEX
8
CUT
10
9.4006
20
52.4235
0
VERTEX
8
CUT
10
9.5506
20
51.2471
0
VERTEX
8
CUT
10
9.9417
20
50.0706
0
VERTEX
8
CUT
10
10.5087
20
48.8941
0
VERTEX
8
CUT
10
11.1574
20
47.7176
0
VERTEX
8
CUT
10
11.78
20
46.5412
0
VERTEX
8
CUT
10
12.2729
20
45.3647
0
VERTEX
8
CUT
10
12.554
20
44.1882
0
VERTEX
8
CUT
10
12.5768
20
43.0118
0
VERTEX
8
CUT
10
12.3374
20
41.8353
0
VERTEX
8
CUT
10
11.8756
20
40.6588
0
VERTEX
8
CUT
10
11.2681
20
39.4824
0
VERTEX
8
CUT
10
10.6161
20
38.3059
0
VERTEX
8
CUT
10
10.0279
20
37.1294
0
VERTEX
8
CUT
10
9.6185
20
36
0
SEQEND
0
POLYLINE
8
CUT
66
1
70
0
0
VERTEX
8
CUT
10
17.6508
20
64.8
0
VERTEX
8
CUT
10
18.1802
20
63.6235
0
VERTEX
8
CUT
10
18.5134
20
62.4471
0
VERTEX
8
CUT
10
18.5949
20
61.2706
0
VERTEX
8
CUT
10
18.4112
20
60.0941
0
VERTEX
8
CUT
10
17.9928
20
58.9176
0
VERTEX
8
CUT
10
17.4093
20
57.7412
0
VERTEX
8
CUT
10
16.7578
20
56.5647
0
VERTEX
8
CUT
10
16.1466
20
55.3882
0
VERTEX
8
CUT
10
15.6772
20
54.2118
0
VERTEX
8
CUT
10
15.4279
20
53.0353
0
VERTEX
8
CUT
10
15.4399
20
51.8588
0
VERTEX
8
CUT
10
15.7114
20
50.6824
0
VERTEX
8
CUT
10
16.1972
20
49.5059
0
VERTEX
8
CUT
10
16.8164
20
48.3294
0
VERTEX
8
CUT
10
17.4662
20
47.1529
0
VERTEX
8
CUT
10
18.0385
20
45.9765
0
VERTEX
8
CUT
10
18.4381
20
44.8
0
SEQEND
0
POLYLINE
8
CUT
66
1
70
0
0
VERTEX
8
CUT
10
18.4835
20
42.4
0
VERTEX
8
CUT
10
18.1209
20
41.2235
0
VERTEX
8
CUT
10
17.5719
20
40.0471
0
VERTEX
8
CUT
10
16.9277
20
38.8706
0
VERTEX
8
CUT
10
16.2957
20
37.6941
0
VERTEX
8
CUT
10
15.7807
20
36.5176
0
VERTEX
8
CUT
10
15.6433
20
36
0
SEQEND
0
POLYLINE
8
CUT
66
1
70
0
0
VERTEX
8
CUT
10
23
20
66
0
VERTEX
8
CUT
10
23.3262
20
65.4118
0
VERTEX
8
CUT
10
23.9244
20
64.2353
0
VERTEX
8
CUT
10
24.3689
20
63.0588
0
VERTEX
8
CUT
10
24.5858
20
61.8824
0
VERTEX
8
CUT
10
24.5389
20
60.7059
0
VERTEX
8
CUT
10
24.2362
20
59.5294
0
VERTEX
8
CUT
10
23.7278
20
58.3529
0
VERTEX
8
CUT
10
23.0985
20
57.1765
0
VERTEX
8
CUT
10
22.4528
20
56
0
SEQEND
0
POLYLINE
8
CUT
66
1
70
0
0
VERTEX
8
CUT
10
21.5165
20
53.6
0
VERTEX
8
CUT
10
21.4006
20
52.4235
0
VERTEX
8
CUT
10
21.5506
20
51.2471
0
VERTEX
8
CUT
10
21.9417
20
50.0706
0
VERTEX
8
CUT
10
22.5087
20
48.8941
0
VERTEX
8
CUT
10
23.1574
20
47.7176
0
VERTEX
8
CUT
10
23.78
20
46.5412
0
VERTEX
8
CUT
10
24.2729
20
45.3647
0
VERTEX
8
CUT
10
24.554
20
44.1882
0
VERTEX
8
CUT
10
24.5768
20
43.0118
0
VERTEX
8
CUT
10
24.3374
20
41.8353
0
VERTEX
8
CUT
10
23.8756
20
40.6588
0
VERTEX
8
CUT
10
23.2681
20
39.4824
0
VERTEX
8
CUT
10
22.6161
20
38.3059
0
VERTEX
8
CUT
10
22.0279
20
37.1294
0
VERTEX
8
CUT
10
21.6185
20
36
0
SEQEND
0
POLYLINE
8
CUT
66
1
70
0
0
VERTEX
8
CUT
10
29.6508
20
64.8
0
VERTEX
8
CUT
10
30.1802
20
63.6235
0
VERTEX
8
CUT
10
30.5134
20
62.4471
0
VERTEX
8
CUT
10
30.5949
20
61.2706
0
VERTEX
8
CUT
10
30.4112
20
60.0941
0
VERTEX
8
CUT
10
29.9928
20
58.9176
0
VERTEX
8
CUT
10
29.4093
20
57.7412
0
VERTEX
8
CUT
10
28.7578
20
56.5647
0
VERTEX
8
CUT
10
28.1466
20
55.3882
0
VERTEX
8
CUT
10
27.6772
20
54.2118
0
VERTEX
8
CUT
10
27.4279
20
53.0353
0
VERTEX
8
CUT
10
27.4399
20
51.8588
0
VERTEX
8
CUT
10
27.7114
20
50.6824
0
VERTEX
8
CUT
10
28.1972
20
49.5059
0
VERTEX
8
CUT
10
28.8164
20
48.3294
0
VERTEX
8
CUT
10
29.4662
20
47.1529
0
VERTEX
8
CUT
10
30.0385
20
45.9765
0
VERTEX
8
CUT
10
30.4381
20
44.8
0
SEQEND
0
POLYLINE
8
CUT
66
1
70
0
0
VERTEX
8
CUT
10
30.4835
20
42.4
0
VERTEX
8
CUT
10
30.1209
20
41.2235
0
VERTEX
8
CUT
10
29.5719
20
40.0471
0
VERTEX
8
CUT
10
28.9277
20
38.8706
0
VERTEX
8
CUT
10
28.2957
20
37.6941
0
VERTEX
8
CUT
10
27.7807
20
36.5176
0
VERTEX
8
CUT
10
27.6433
20
36
0
SEQEND
0
POLYLINE
8
CUT
66
1
70
0
0
VERTEX
8
CUT
10
35
20
66
0
VERTEX
8
CUT
10
35.3262
20
65.4118
0
VERTEX
8
CUT
10
35.9244
20
64.2353
0
VERTEX
8
CUT
10
36.3689
20
63.0588
0
VERTEX
8
CUT
10
36.5858
20
61.8824
0
VERTEX
8
CUT
10
36.5389
20
60.7059
0
VERTEX
8
CUT
10
36.2362
20
59.5294
0
VERTEX
8
CUT
10
35.7278
20
58.3529
0
VERTEX
8
CUT
10
35.0985
20
57.1765
0
VERTEX
8
CUT
10
34.4528
20
56
0
SEQEND
0
POLYLINE
8
CUT
66
1
70
0
0
VERTEX
8
CUT
10
33.5165
20
53.6
0
VERTEX
8
CUT
10
33.4006
20
52.4235
0
VERTEX
8
CUT
10
33.5506
20
51.2471
0
VERTEX
8
CUT
10
33.9417
20
50.0706
0
VERTEX
8
CUT
10
34.5087
20
48.8941
0
VERTEX
8
CUT
10
35.1574
20
47.7176
0
VERTEX
8
CUT
10
35.78
20
46.5412
0
VERTEX
8
CUT
10
36.2729
20
45.3647
0
VERTEX
8
CUT
10
36.554
20
44.1882
0
VERTEX
8
CUT
10
36.5768
20
43.0118
0
VERTEX
8
CUT
10
36.3374
20
41.8353
0
VERTEX
8
CUT
10
35.8756
20
40.6588
0
VERTEX
8
CUT
10
35.2681
20
39.4824
0
VERTEX
8
CUT
10
34.6161
20
38.3059
0
VERTEX
8
CUT
10
34.0279
20
37.1294
0
VERTEX
8
CUT
10
33.6185
20
36
0
SEQEND
0
POLYLINE
8
CUT
66
1
70
0
0
VERTEX
8
CUT
10
41.6508
20
64.8
0
VERTEX
8
CUT
10
42.1802
20
63.6235
0
VERTEX
8
CUT
10
42.5134
20
62.4471
0
VERTEX
8
CUT
10
42.5949
20
61.2706
0
VERTEX
8
CUT
10
42.4112
20
60.0941
0
VERTEX
8
CUT
10
41.9928
20
58.9176
0
VERTEX
8
CUT
10
41.4093
20
57.7412
0
VERTEX
8
CUT
10
40.7578
20
56.5647
0
VERTEX
8
CUT
10
40.1466
20
55.3882
0
VERTEX
8
CUT
10
39.6772
20
54.2118
0
VERTEX
8
CUT
10
39.4279
20
53.0353
0
VERTEX
8
CUT
10
39.4399
20
51.8588
0
VERTEX
8
CUT
10
39.7114
20
50.6824
0
VERTEX
8
CUT
10
40.1972
20
49.5059
0
VERTEX
8
CUT
10
40.8164
20
48.3294
0
VERTEX
8
CUT
10
41.4662
20
47.1529
0
VERTEX
8
CUT
10
42.0385
20
45.9765
0
VERTEX
8
CUT
10
42.4381
20
44.8
0
SEQEND
0
POLYLINE
8
CUT
66
1
70
0
0
VERTEX
8
CUT
10
42.4835
20
42.4
0
VERTEX
8
CUT
10
42.1209
20
41.2235
0
VERTEX
8
CUT
10
41.5719
20
40.0471
0
VERTEX
8
CUT
10
40.9277
20
38.8706
0
VERTEX
8
CUT
10
40.2957
20
37.6941
0
VERTEX
8
CUT
10
39.7807
20
36.5176
0
VERTEX
8
CUT
10
39.6433
20
36
0
SEQEND
0
POLYLINE
8
CUT
66
1
70
0
0
VERTEX
8
CUT
10
47
20
66
0
VERTEX
8
CUT
10
47.3262
20
65.4118
0
VERTEX
8
CUT
10
47.9244
20
64.2353
0
VERTEX
8
CUT
10
48.3689
20
63.0588
0
VERTEX
8
CUT
10
48.5858
20
61.8824
0
VERTEX
8
CUT
10
48.5389
20
60.7059
0
VERTEX
8
CUT
10
48.2362
20
59.5294
0
VERTEX
8
CUT
10
47.7278
20
58.3529
0
VERTEX
8
CUT
10
47.0985
20
57.1765
0
VERTEX
8
CUT
10
46.4528
20
56
0
SEQEND
0
POLYLINE
8
CUT
66
1
70
0
0
VERTEX
8
CUT
10
45.5165
20
53.6
0
VERTEX
8
CUT
10
45.4006
20
52.4235
0
VERTEX
8
CUT
10
45.5506
20
51.2471
0
VERTEX
8
CUT
10
45.9417
20
50.0706
0
VERTEX
8
CUT
10
46.5087
20
48.8941
0
VERTEX
8
CUT
10
47.1574
20
47.7176
0
VERTEX
8
CUT
10
47.78
20
46.5412
0
VERTEX
8
CUT
10
48.2729
20
45.3647
0
VERTEX
8
CUT
10
48.554
20
44.1882
0
VERTEX
8
CUT
10
48.5768
20
43.0118
0
VERTEX
8
CUT
10
48.3374
20
41.8353
0
VERTEX
8
CUT
10
47.8756
20
40.6588
0
VERTEX
8
CUT
10
47.2681
20
39.4824
0
VERTEX
8
CUT
10
46.6161
20
38.3059
0
VERTEX
8
CUT
10
46.0279
20
37.1294
0
VERTEX
8
CUT
10
45.6185
20
36
0
SEQEND
0
POLYLINE
8
CUT
66
1
70
0
0
VERTEX
8
CUT
10
53.6508
20
64.8
0
VERTEX
8
CUT
10
54.1802
20
63.6235
0
VERTEX
8
CUT
10
54.5134
20
62.4471
0
VERTEX
8
CUT
10
54.5949
20
61.2706
0
VERTEX
8
CUT
10
54.4112
20
60.0941
0
VERTEX
8
CUT
10
53.9928
20
58.9176
0
VERTEX
8
CUT
10
53.4093
20
57.7412
0
VERTEX
8
CUT
10
52.7578
20
56.5647
0
VERTEX
8
CUT
10
52.1466
20
55.3882
0
VERTEX
8
CUT
10
51.6772
20
54.2118
0
VERTEX
8
CUT
10
51.4279
20
53.0353
0
VERTEX
8
CUT
10
51.4399
20
51.8588
0
VERTEX
8
CUT
10
51.7114
20
50.6824
0
VERTEX
8
CUT
10
52.1972
20
49.5059
0
VERTEX
8
CUT
10
52.8164
20
48.3294
0
VERTEX
8
CUT
10
53.4662
20
47.1529
0
VERTEX
8
CUT
10
54.0385
20
45.9765
0
VERTEX
8
CUT
10
54.4381
20
44.8
0
SEQEND
0
POLYLINE
8
CUT
66
1
70
0
0
VERTEX
8
CUT
10
54.4835
20
42.4
0
VERTEX
8
CUT
10
54.1209
20
41.2235
0
VERTEX
8
CUT
10
53.5719
20
40.0471
0
VERTEX
8
CUT
10
52.9277
20
38.8706
0
VERTEX
8
CUT
10
52.2957
20
37.6941
0
VERTEX
8
CUT
10
51.7807
20
36.5176
0
VERTEX
8
CUT
10
51.6433
20
36
0
SEQEND
0
POLYLINE
8
CUT
66
1
70
0
0
VERTEX
8
CUT
10
59
20
66
0
VERTEX
8
CUT
10
59.3262
20
65.4118
0
VERTEX
8
CUT
10
59.9244
20
64.2353
0
VERTEX
8
CUT
10
60.3689
20
63.0588
0
VERTEX
8
CUT
10
60.5858
20
61.8824
0
VERTEX
8
CUT
10
60.5389
20
60.7059
0
VERTEX
8
CUT
10
60.2362
20
59.5294
0
VERTEX
8
CUT
10
59.7278
20
58.3529
0
VERTEX
8
CUT
10
59.0985
20
57.1765
0
VERTEX
8
CUT
10
58.4528
20
56
0
SEQEND
0
POLYLINE
8
CUT
66
1
70
0
0
VERTEX
8
CUT
10
57.5165
20
53.6
0
VERTEX
8
CUT
10
57.4006
20
52.4235
0
VERTEX
8
CUT
10
57.5506
20
51.2471
0
VERTEX
8
CUT
10
57.9417
20
50.0706
0
VERTEX
8
CUT
10
58.5087
20
48.8941
0
VERTEX
8
CUT
10
59.1574
20
47.7176
0
VERTEX
8
CUT
10
59.78
20
46.5412
0
VERTEX
8
CUT
10
60.2729
20
45.3647
0
VERTEX
8
CUT
10
60.554
20
44.1882
0
VERTEX
8
CUT
10
60.5768
20
43.0118
0
VERTEX
8
CUT
10
60.3374
20
41.8353
0
VERTEX
8
CUT
10
59.8756
20
40.6588
0
VERTEX
8
CUT
10
59.2681
20
39.4824
0
VERTEX
8
CUT
10
58.6161
20
38.3059
0
VERTEX
8
CUT
10
58.0279
20
37.1294
0
VERTEX
8
CUT
10
57.6185
20
36
0
SEQEND
0
LINE
8
CUT
10
2.5
20
36
11
2.5
21
39
0
LINE
8
CUT
10
5
20
36
11
5
21
39
0
LINE
8
CUT
10
7.5
20
36
11
7.5
21
39
0
LINE
8
CUT
10
10
20
36
11
10
21
39
0
POLYLINE
8
CUT
66
1
70
0
0
VERTEX
8
CUT
10
0
20
30
0
VERTEX
8
CUT
10
70
20
30
0
VERTEX
8
CUT
10
70
20
0
0
VERTEX
8
CUT
10
0
20
0
0
VERTEX
8
CUT
10
0
20
30
0
SEQEND
0
POLYLINE
8
CUT
66
1
70
0
0
VERTEX
8
CUT
10
11
20
30
0
VERTEX
8
CUT
10
11.3262
20
29.4118
0
VERTEX
8
CUT
10
11.9244
20
28.2353
0
VERTEX
8
CUT
10
12.3689
20
27.0588
0
VERTEX
8
CUT
10
12.5858
20
25.8824
0
VERTEX
8
CUT
10
12.5389
20
24.7059
0
VERTEX
8
CUT
10
12.2362
20
23.5294
0
VERTEX
8
CUT
10
11.7278
20
22.3529
0
VERTEX
8
CUT
10
11.0985
20
21.1765
0
VERTEX
8
CUT
10
10.4528
20
20
0
SEQEND
0
POLYLINE
8
CUT
66
1
70
0
0
VERTEX
8
CUT
10
9.4475
20
17.2
0
VERTEX
8
CUT
10
9.4221
20
16.0235
0
VERTEX
8
CUT
10
9.659
20
14.8471
0
VERTEX
8
CUT
10
10.119
20
13.6706
0
VERTEX
8
CUT
10
10.7254
20
12.4941
0
VERTEX
8
CUT
10
11.3775
20
11.3176
0
VERTEX
8
CUT
10
11.9668
20
10.1412
0
VERTEX
8
CUT
10
12.3954
20
8.9647
0
VERTEX
8
CUT
10
12.5919
20
7.7882
0
VERTEX
8
CUT
10
12.5237
20
6.6118
0
VERTEX
8
CUT
10
12.2021
20
5.4353
0
VERTEX
8
CUT
10
11.6807
20
4.2588
0
VERTEX
8
CUT
10
11.046
20
3.0824
0
VERTEX
8
CUT
10
10.4037
20
1.9059
0
VERTEX
8
CUT
10
9.8605
20
0.7294
0
VERTEX
8
CUT
10
9.6413
20
0
0
SEQEND
0
POLYLINE
8
CUT
66
1
70
0
0
VERTEX
8
CUT
10
17.7512
20
28.6
0
VERTEX
8
CUT
10
18.2527
20
27.4235
0
VERTEX
8
CUT
10
18.5459
20
26.2471
0
VERTEX
8
CUT
10
18.5821
20
25.0706
0
VERTEX
8
CUT
10
18.3551
20
23.8941
0
VERTEX
8
CUT
10
17.9029
20
22.7176
0
VERTEX
8
CUT
10
17.3005
20
21.5412
0
VERTEX
8
CUT
10
16.6481
20
20.3647
0
VERTEX
8
CUT
10
16.0542
20
19.1882
0
VERTEX
8
CUT
10
15.6177
20
18.0118
0
VERTEX
8
CUT
10
15.4109
20
16.8353
0
VERTEX
8
CUT
10
15.4685
20
15.6588
0
VERTEX
8
CUT
10
15.7807
20
14.4824
0
VERTEX
8
CUT
10
16.2957
20
13.3059
0
VERTEX
8
CUT
10
16.9277
20
12.1294
0
VERTEX
8
CUT
10
17.5719
20
10.9529
0
VERTEX
8
CUT
10
18.1209
20
9.7765
0
VERTEX
8
CUT
10
18.4835
20
8.6
0
SEQEND
0
POLYLINE
8
CUT
66
1
70
0
0
VERTEX
8
CUT
10
18.3265
20
5.8
0
VERTEX
8
CUT
10
17.859
20
4.6235
0
VERTEX
8
CUT
10
17.2487
20
3.4471
0
VERTEX
8
CUT
10
16.597
20
2.2706
0
VERTEX
8
CUT
10
16.0124
20
1.0941
0
VERTEX
8
CUT
10
15.6214
20
0
0
SEQEND
0
POLYLINE
8
CUT
66
1
70
0
0
VERTEX
8
CUT
10
23
20
30
0
VERTEX
8
CUT
10
23.3262
20
29.4118
0
VERTEX
8
CUT
10
23.9244
20
28.2353
0
VERTEX
8
CUT
10
24.3689
20
27.0588
0
VERTEX
8
CUT
10
24.5858
20
25.8824
0
VERTEX
8
CUT
10
24.5389
20
24.7059
0
VERTEX
8
CUT
10
24.2362
20
23.5294
0
VERTEX
8
CUT
10
23.7278
20
22.3529
0
VERTEX
8
CUT
10
23.0985
20
21.1765
0
VERTEX
8
CUT
10
22.4528
20
20
0
SEQEND
0
POLYLINE
8
CUT
66
1
70
0
0
VERTEX
8
CUT
10
21.4475
20
17.2
0
VERTEX
8
CUT
10
21.4221
20
16.0235
0
VERTEX
8
CUT
10
21.659
20
14.8471
0
VERTEX
8
CUT
10
22.119
20
13.6706
0
VERTEX
8
CUT
10
22.7254
20
12.4941
0
VERTEX
8
CUT
10
23.3775
20
11.3176
0
VERTEX
8
CUT
10
23.9668
20
10.1412
0
VERTEX
8
CUT
10
24.3954
20
8.9647
0
VERTEX
8
CUT
10
24.5919
20
7.7882
0
VERTEX
8
CUT
10
24.5237
20
6.6118
0
VERTEX
8
CUT
10
24.2021
20
5.4353
0
VERTEX
8
CUT
10
23.6807
20
4.2588
0
VERTEX
8
CUT
10
23.046
20
3.0824
0
VERTEX
8
CUT
10
22.4037
20
1.9059
0
VERTEX
8
CUT
10
21.8605
20
0.7294
0
VERTEX
8
CUT
10
21.6413
20
0
0
SEQEND
0
POLYLINE
8
CUT
66
1
70
0
0
VERTEX
8
CUT
10
29.7512
20
28.6
0
VERTEX
8
CUT
10
30.2527
20
27.4235
0
VERTEX
8
CUT
10
30.5459
20
26.2471
0
VERTEX
8
CUT
10
30.5821
20
25.0706
0
VERTEX
8
CUT
10
30.3551
20
23.8941
0
VERTEX
8
CUT
10
29.9029
20
22.7176
0
VERTEX
8
CUT
10
29.3005
20
21.5412
0
VERTEX
8
CUT
10
28.6481
20
20.3647
0
VERTEX
8
CUT
10
28.0542
20
19.1882
0
VERTEX
8
CUT
10
27.6177
20
18.0118
0
VERTEX
8
CUT
10
27.4109
20
16.8353
0
VERTEX
8
CUT
10
27.4685
20
15.6588
0
VERTEX
8
CUT
10
27.7807
20
14.4824
0
VERTEX
8
CUT
10
28.2957
20
13.3059
0
VERTEX
8
CUT
10
28.9277
20
12.1294
0
VERTEX
8
CUT
10
29.5719
20
10.9529
0
VERTEX
8
CUT
10
30.1209
20
9.7765
0
VERTEX
8
CUT
10
30.4835
20
8.6
0
SEQEND
0
POLYLINE
8
CUT
66
1
70
0
0
VERTEX
8
CUT
10
30.3265
20
5.8
0
VERTEX
8
CUT
10
29.859
20
4.6235
0
VERTEX
8
CUT
10
29.2487
20
3.4471
0
VERTEX
8
CUT
10
28.597
20
2.2706
0
VERTEX
8
CUT
10
28.0124
20
1.0941
0
VERTEX
8
CUT
10
27.6214
20
0
0
SEQEND
0
POLYLINE
8
CUT
66
1
70
0
0
VERTEX
8
CUT
10
35
20
30
0
VERTEX
8
CUT
10
35.3262
20
29.4118
0
VERTEX
8
CUT
10
35.9244
20
28.2353
0
VERTEX
8
CUT
10
36.3689
20
27.0588
0
VERTEX
8
CUT
10
36.5858
20
25.8824
0
VERTEX
8
CUT
10
36.5389
20
24.7059
0
VERTEX
8
CUT
10
36.2362
20
23.5294
0
VERTEX
8
CUT
10
35.7278
20
22.3529
0
VERTEX
8
CUT
10
35.0985
20
21.1765
0
VERTEX
8
CUT
10
34.4528
20
20
0
SEQEND
0
POLYLINE
8
CUT
66
1
70
0
0
VERTEX
8
CUT
10
33.4475
20
17.2
0
VERTEX
8
CUT
10
33.4221
20
16.0235
0
VERTEX
8
CUT
10
33.659
20
14.8471
0
VERTEX
8
CUT
10
34.119
20
13.6706
0
VERTEX
8
CUT
10
34.7254
20
12.4941
0
VERTEX
8
CUT
10
35.3775
20
11.3176
0
VERTEX
8
CUT
10
35.9668
20
10.1412
0
VERTEX
8
CUT
10
36.3954
20
8.9647
0
VERTEX
8
CUT
10
36.5919
20
7.7882
0
VERTEX
8
CUT
10
36.5237
20
6.6118
0
VERTEX
8
CUT
10
36.2021
20
5.4353
0
VERTEX
8
CUT
10
35.6807
20
4.2588
0
VERTEX
8
CUT
10
35.046
20
3.0824
0
VERTEX
8
CUT
10
34.4037
20
1.9059
0
VERTEX
8
CUT
10
33.8605
20
0.7294
0
VERTEX
8
CUT
10
33.6413
20
0
0
SEQEND
0
POLYLINE
8
CUT
66
1
70
0
0
VERTEX
8
CUT
10
41.7512
20
28.6
0
VERTEX
8
CUT
10
42.2527
20
27.4235
0
VERTEX
8
CUT
10
42.5459
20
26.2471
0
VERTEX
8
CUT
10
42.5821
20
25.0706
0
VERTEX
8
CUT
10
42.3551
20
23.8941
0
VERTEX
8
CUT
10
41.9029
20
22.7176
0
VERTEX
8
CUT
10
41.3005
20
21.5412
0
VERTEX
8
CUT
10
40.6481
20
20.3647
0
VERTEX
8
CUT
10
40.0542
20
19.1882
0
VERTEX
8
CUT
10
39.6177
20
18.0118
0
VERTEX
8
CUT
10
39.4109
20
16.8353
0
VERTEX
8
CUT
10
39.4685
20
15.6588
0
VERTEX
8
CUT
10
39.7807
20
14.4824
0
VERTEX
8
CUT
10
40.2957
20
13.3059
0
VERTEX
8
CUT
10
40.9277
20
12.1294
0
VERTEX
8
CUT
10
41.5719
20
10.9529
0
VERTEX
8
CUT
10
42.1209
20
9.7765
0
VERTEX
8
CUT
10
42.4835
20
8.6
0
SEQEND
0
POLYLINE
8
CUT
66
1
70
0
0
VERTEX
8
CUT
10
42.3265
20
5.8
0
VERTEX
8
CUT
10
41.859
20
4.6235
0
VERTEX
8
CUT
10
41.2487
20
3.4471
0
VERTEX
8
CUT
10
40.597
20
2.2706
0
VERTEX
8
CUT
10
40.0124
20
1.0941
0
VERTEX
8
CUT
10
39.6214
20
0
0
SEQEND
0
POLYLINE
8
CUT
66
1
70
0
0
VERTEX
8
CUT
10
47
20
30
0
VERTEX
8
CUT
10
47.3262
20
29.4118
0
VERTEX
8
CUT
10
47.9244
20
28.2353
0
VERTEX
8
CUT
10
48.3689
20
27.0588
0
VERTEX
8
CUT
10
48.5858
20
25.8824
0
VERTEX
8
CUT
10
48.5389
20
24.7059
0
VERTEX
8
CUT
10
48.2362
20
23.5294
0
VERTEX
8
CUT
10
47.7278
20
22.3529
0
VERTEX
8
CUT
10
47.0985
20
21.1765
0
VERTEX
8
CUT
10
46.4528
20
20
0
SEQEND
0
POLYLINE
8
CUT
66
1
70
0
0
VERTEX
8
CUT
10
45.4475
20
17.2
0
VERTEX
8
CUT
10
45.4221
20
16.0235
0
VERTEX
8
CUT
10
45.659
20
14.8471
0
VERTEX
8
CUT
10
46.119
20
13.6706
0
VERTEX
8
CUT
10
46.7254
20
12.4941
0
VERTEX
8
CUT
10
47.3775
20
11.3176
0
VERTEX
8
CUT
10
47.9668
20
10.1412
0
VERTEX
8
CUT
10
48.3954
20
8.9647
0
VERTEX
8
CUT
10
48.5919
20
7.7882
0
VERTEX
8
CUT
10
48.5237
20
6.6118
0
VERTEX
8
CUT
10
48.2021
20
5.4353
0
VERTEX
8
CUT
10
47.6807
20
4.2588
0
VERTEX
8
CUT
10
47.046
20
3.0824
0
VERTEX
8
CUT
10
46.4037
20
1.9059
0
VERTEX
8
CUT
10
45.8605
20
0.7294
0
VERTEX
8
CUT
10
45.6413
20
0
0
SEQEND
0
POLYLINE
8
CUT
66
1
70
0
0
VERTEX
8
CUT
10
53.7512
20
28.6
0
VERTEX
8
CUT
10
54.2527
20
27.4235
0
VERTEX
8
CUT
10
54.5459
20
26.2471
0
VERTEX
8
CUT
10
54.5821
20
25.0706
0
VERTEX
8
CUT
10
54.3551
20
23.8941
0
VERTEX
8
CUT
10
53.9029
20
22.7176
0
VERTEX
8
CUT
10
53.3005
20
21.5412
0
VERTEX
8
CUT
10
52.6481
20
20.3647
0
VERTEX
8
CUT
10
52.0542
20
19.1882
0
VERTEX
8
CUT
10
51.6177
20
18.0118
0
VERTEX
8
CUT
10
51.4109
20
16.8353
0
VERTEX
8
CUT
10
51.4685
20
15.6588
0
VERTEX
8
CUT
10
51.7807
20
14.4824
0
VERTEX
8
CUT
10
52.2957
20
13.3059
0
VERTEX
8
CUT
10
52.9277
20
12.1294
0
VERTEX
8
CUT
10
53.5719
20
10.9529
0
VERTEX
8
CUT
10
54.1209
20
9.7765
0
VERTEX
8
CUT
10
54.4835
20
8.6
0
SEQEND
0
POLYLINE
8
CUT
66
1
70
0
0
VERTEX
8
CUT
10
54.3265
20
5.8
0
VERTEX
8
CUT
10
53.859
20
4.6235
0
VERTEX
8
CUT
10
53.2487
20
3.4471
0
VERTEX
8
CUT
10
52.597
20
2.2706
0
VERTEX
8
CUT
10
52.0124
20
1.0941
0
VERTEX
8
CUT
10
51.6214
20
0
0
SEQEND
0
POLYLINE
8
CUT
66
1
70
0
0
VERTEX
8
CUT
10
59
20
30
0
VERTEX
8
CUT
10
59.3262
20
29.4118
0
VERTEX
8
CUT
10
59.9244
20
28.2353
0
VERTEX
8
CUT
10
60.3689
20
27.0588
0
VERTEX
8
CUT
10
60.5858
20
25.8824
0
VERTEX
8
CUT
10
60.5389
20
24.7059
0
VERTEX
8
CUT
10
60.2362
20
23.5294
0
VERTEX
8
CUT
10
59.7278
20
22.3529
0
VERTEX
8
CUT
10
59.0985
20
21.1765
0
VERTEX
8
CUT
10
58.4528
20
20
0
SEQEND
0
POLYLINE
8
CUT
66
1
70
0
0
VERTEX
8
CUT
10
57.4475
20
17.2
0
VERTEX
8
CUT
10
57.4221
20
16.0235
0
VERTEX
8
CUT
10
57.659
20
14.8471
0
VERTEX
8
CUT
10
58.119
20
13.6706
0
VERTEX
8
CUT
10
58.7254
20
12.4941
0
VERTEX
8
CUT
10
59.3775
20
11.3176
0
VERTEX
8
CUT
10
59.9668
20
10.1412
0
VERTEX
8
CUT
10
60.3954
20
8.9647
0
VERTEX
8
CUT
10
60.5919
20
7.7882
0
VERTEX
8
CUT
10
60.5237
20
6.6118
0
VERTEX
8
CUT
10
60.2021
20
5.4353
0
VERTEX
8
CUT
10
59.6807
20
4.2588
0
VERTEX
8
CUT
10
59.046
20
3.0824
0
VERTEX
8
CUT
10
58.4037
20
1.9059
0
VERTEX
8
CUT
10
57.8605
20
0.7294
0
VERTEX
8
CUT
10
57.6413
20
0
0
SEQEND
0
LINE
8
CUT
10
2.5
20
0
11
2.5
21
3
0
LINE
8
CUT
10
5
20
0
11
5
21
3
0
LINE
8
CUT
10
7.5
20
0
11
7.5
21
3
0
LINE
8
CUT
10
10
20
0
11
10
21
3
0
LINE
8
CUT
10
12.5
20
0
11
12.5
21
3
0
ENDSEC
0
EOF
