0
SECTION
2
HEADER
9
$ACADVER
1
AC1009
9
$INSUNITS
70
4
0
ENDSEC
0
SECTION
2
TABLES
0
TABLE
2
LAYER
70
1
0
LAYER
2
CUT
70
0
62
1
6
CONTINUOUS
0
ENDTAB
0
ENDSEC
0
SECTION
2
ENTITIES
0
POLYLINE
8
CUT
66
1
70
0
0
VERTEX
8
CUT
10
0
20
174
0
VERTEX
8
CUT
10
70
20
174
0
VERTEX
8
CUT
10
70
20
144
0
VERTEX
8
CUT
10
0
20
144
0
VERTEX
8
CUT
10
0
20
174
0
SEQEND
0
LINE
8
CUT
10
11.1246
20
174
11
8.866
21
172.696
0
LINE
8
CUT
10
20.5849
20
174
11
18.3263
21
172.696
0
LINE
8
CUT
10
14.3356
20
174
11
16.5942
21
172.696
0
LINE
8
CUT
10
30.0451
20
174
11
27.7865
21
172.696
0
LINE
8
CUT
10
23.7959
20
174
11
26.0545
21
172.696
0
LINE
8
CUT
10
39.5054
20
174
11
37.2468
21
172.696
0
LINE
8
CUT
10
33.2561
20
174
11
35.5147
21
172.696
0
LINE
8
CUT
10
48.9656
20
174
11
46.707
21
172.696
0
LINE
8
CUT
10
42.7164
20
174
11
44.975
21
172.696
0
LINE
8
CUT
10
58.4259
20
174
11
56.1673
21
172.696
0
LINE
8
CUT
10
52.1767
20
174
11
54.4352
21
172.696
0
LINE
8
CUT
10
61.6369
20
174
11
62
21
173.7904
0
POLYLINE
8
CUT
66
1
70
0
0
VERTEX
8
CUT
10
13.5962
20
173.5
0
VERTEX
8
CUT
10
17.0603
20
171.5
0
VERTEX
8
CUT
10
17.0603
20
166.5
0
VERTEX
8
CUT
10
13.5962
20
164.5
0
SEQEND
0
POLYLINE
8
CUT
66
1
70
0
0
VERTEX
8
CUT
10
11.8641
20
173.5
0
VERTEX
8
CUT
10
8.4
20
171.5
0
VERTEX
8
CUT
10
8.4
20
166.5
0
VERTEX
8
CUT
10
11.8641
20
164.5
0
SEQEND
0
POLYLINE
8
CUT
66
1
70
0
0
VERTEX
8
CUT
10
23.0564
20
173.5
0
VERTEX
8
CUT
10
26.5205
20
171.5
0
VERTEX
8
CUT
10
26.5205
20
166.5
0
VERTEX
8
CUT
10
23.0564
20
164.5
0
SEQEND
0
POLYLINE
8
CUT
66
1
70
0
0
VERTEX
8
CUT
10
21.3244
20
173.5
0
VERTEX
8
CUT
10
17.8603
20
171.5
0
VERTEX
8
CUT
10
17.8603
20
166.5
0
VERTEX
8
CUT
10
21.3244
20
164.5
0
SEQEND
0
POLYLINE
8
CUT
66
1
70
0
0
VERTEX
8
CUT
10
32.5167
20
173.5
0
VERTEX
8
CUT
10
35.9808
20
171.5
0
VERTEX
8
CUT
10
35.9808
20
166.5
0
VERTEX
8
CUT
10
32.5167
20
164.5
0
SEQEND
0
POLYLINE
8
CUT
66
1
70
0
0
VERTEX
8
CUT
10
30.7846
20
173.5
0
VERTEX
8
CUT
10
27.3205
20
171.5
0
VERTEX
8
CUT
10
27.3205
20
166.5
0
VERTEX
8
CUT
10
30.7846
20
164.5
0
SEQEND
0
POLYLINE
8
CUT
66
1
70
0
0
VERTEX
8
CUT
10
41.9769
20
173.5
0
VERTEX
8
CUT
10
45.441
20
171.5
0
VERTEX
8
CUT
10
45.441
20
166.5
0
VERTEX
8
CUT
10
41.9769
20
164.5
0
SEQEND
0
POLYLINE
8
CUT
66
1
70
0
0
VERTEX
8
CUT
10
40.2449
20
173.5
0
VERTEX
8
CUT
10
36.7808
20
171.5
0
VERTEX
8
CUT
10
36.7808
20
166.5
0
VERTEX
8
CUT
10
40.2449
20
164.5
0
SEQEND
0
POLYLINE
8
CUT
66
1
70
0
0
VERTEX
8
CUT
10
51.4372
20
173.5
0
VERTEX
8
CUT
10
54.9013
20
171.5
0
VERTEX
8
CUT
10
54.9013
20
166.5
0
VERTEX
8
CUT
10
51.4372
20
164.5
0
SEQEND
0
POLYLINE
8
CUT
66
1
70
0
0
VERTEX
8
CUT
10
49.7051
20
173.5
0
VERTEX
8
CUT
10
46.241
20
171.5
0
VERTEX
8
CUT
10
46.241
20
166.5
0
VERTEX
8
CUT
10
49.7051
20
164.5
0
SEQEND
0
LINE
8
CUT
10
60.8974
20
173.5
11
62
21
172.8634
0
LINE
8
CUT
10
62
20
165.1366
11
60.8974
21
164.5
0
POLYLINE
8
CUT
66
1
70
0
0
VERTEX
8
CUT
10
59.1654
20
173.5
0
VERTEX
8
CUT
10
55.7013
20
171.5
0
VERTEX
8
CUT
10
55.7013
20
166.5
0
VERTEX
8
CUT
10
59.1654
20
164.5
0
SEQEND
0
POLYLINE
8
CUT
66
1
70
0
0
VERTEX
8
CUT
10
8.866
20
165.304
0
VERTEX
8
CUT
10
12.3301
20
163.304
0
VERTEX
8
CUT
10
12.3301
20
158.304
0
VERTEX
8
CUT
10
8.866
20
156.304
0
SEQEND
0
POLYLINE
8
CUT
66
1
70
0
0
VERTEX
8
CUT
10
18.3263
20
165.304
0
VERTEX
8
CUT
10
21.7904
20
163.304
0
VERTEX
8
CUT
10
21.7904
20
158.304
0
VERTEX
8
CUT
10
18.3263
20
156.304
0
SEQEND
0
POLYLINE
8
CUT
66
1
70
0
0
VERTEX
8
CUT
10
16.5942
20
165.304
0
VERTEX
8
CUT
10
13.1301
20
163.304
0
VERTEX
8
CUT
10
13.1301
20
158.304
0
VERTEX
8
CUT
10
16.5942
20
156.304
0
SEQEND
0
POLYLINE
8
CUT
66
1
70
0
0
VERTEX
8
CUT
10
27.7865
20
165.304
0
VERTEX
8
CUT
10
31.2506
20
163.304
0
VERTEX
8
CUT
10
31.2506
20
158.304
0
VERTEX
8
CUT
10
27.7865
20
156.304
0
SEQEND
0
POLYLINE
8
CUT
66
1
70
0
0
VERTEX
8
CUT
10
26.0545
20
165.304
0
VERTEX
8
CUT
10
22.5904
20
163.304
0
VERTEX
8
CUT
10
22.5904
20
158.304
0
VERTEX
8
CUT
10
26.0545
20
156.304
0
SEQEND
0
POLYLINE
8
CUT
66
1
70
0
0
VERTEX
8
CUT
10
37.2468
20
165.304
0
VERTEX
8
CUT
10
40.7109
20
163.304
0
VERTEX
8
CUT
10
40.7109
20
158.304
0
VERTEX
8
CUT
10
37.2468
20
156.304
0
SEQEND
0
POLYLINE
8
CUT
66
1
70
0
0
VERTEX
8
CUT
10
35.5147
20
165.304
0
VERTEX
8
CUT
10
32.0506
20
163.304
0
VERTEX
8
CUT
10
32.0506
20
158.304
0
VERTEX
8
CUT
10
35.5147
20
156.304
0
SEQEND
0
POLYLINE
8
CUT
66
1
70
0
0
VERTEX
8
CUT
10
46.707
20
165.304
0
VERTEX
8
CUT
10
50.1711
20
163.304
0
VERTEX
8
CUT
10
50.1711
20
158.304
0
VERTEX
8
CUT
10
46.707
20
156.304
0
SEQEND
0
POLYLINE
8
CUT
66
1
70
0
0
VERTEX
8
CUT
10
44.975
20
165.304
0
VERTEX
8
CUT
10
41.5109
20
163.304
0
VERTEX
8
CUT
10
41.5109
20
158.304
0
VERTEX
8
CUT
10
44.975
20
156.304
0
SEQEND
0
POLYLINE
8
CUT
66
1
70
0
0
VERTEX
8
CUT
10
56.1673
20
165.304
0
VERTEX
8
CUT
10
59.6314
20
163.304
0
VERTEX
8
CUT
10
59.6314
20
158.304
0
VERTEX
8
CUT
10
56.1673
20
156.304
0
SEQEND
0
POLYLINE
8
CUT
66
1
70
0
0
VERTEX
8
CUT
10
54.4352
20
165.304
0
VERTEX
8
CUT
10
50.9711
20
163.304
0
VERTEX
8
CUT
10
50.9711
20
158.304
0
VERTEX
8
CUT
10
54.4352
20
156.304
0
SEQEND
0
POLYLINE
8
CUT
66
1
70
0
0
VERTEX
8
CUT
10
62
20
164.2096
0
VERTEX
8
CUT
10
60.4314
20
163.304
0
VERTEX
8
CUT
10
60.4314
20
158.304
0
VERTEX
8
CUT
10
62
20
157.3984
0
SEQEND
0
POLYLINE
8
CUT
66
1
70
0
0
VERTEX
8
CUT
10
13.5962
20
157.108
0
VERTEX
8
CUT
10
17.0603
20
155.108
0
VERTEX
8
CUT
10
17.0603
20
150.108
0
VERTEX
8
CUT
10
13.5962
20
148.108
0
SEQEND
0
POLYLINE
8
CUT
66
1
70
0
0
VERTEX
8
CUT
10
11.8641
20
157.108
0
VERTEX
8
CUT
10
8.4
20
155.108
0
VERTEX
8
CUT
10
8.4
20
150.108
0
VERTEX
8
CUT
10
11.8641
20
148.108
0
SEQEND
0
POLYLINE
8
CUT
66
1
70
0
0
VERTEX
8
CUT
10
23.0564
20
157.108
0
VERTEX
8
CUT
10
26.5205
20
155.108
0
VERTEX
8
CUT
10
26.5205
20
150.108
0
VERTEX
8
CUT
10
23.0564
20
148.108
0
SEQEND
0
POLYLINE
8
CUT
66
1
70
0
0
VERTEX
8
CUT
10
21.3244
20
157.108
0
VERTEX
8
CUT
10
17.8603
20
155.108
0
VERTEX
8
CUT
10
17.8603
20
150.108
0
VERTEX
8
CUT
10
21.3244
20
148.108
0
SEQEND
0
POLYLINE
8
CUT
66
1
70
0
0
VERTEX
8
CUT
10
32.5167
20
157.108
0
VERTEX
8
CUT
10
35.9808
20
155.108
0
VERTEX
8
CUT
10
35.9808
20
150.108
0
VERTEX
8
CUT
10
32.5167
20
148.108
0
SEQEND
0
POLYLINE
8
CUT
66
1
70
0
0
VERTEX
8
CUT
10
30.7846
20
157.108
0
VERTEX
8
CUT
10
27.3205
20
155.108
0
VERTEX
8
CUT
10
27.3205
20
150.108
0
VERTEX
8
CUT
10
30.7846
20
148.108
0
SEQEND
0
POLYLINE
8
CUT
66
1
70
0
0
VERTEX
8
CUT
10
41.9769
20
157.108
0
VERTEX
8
CUT
10
45.441
20
155.108
0
VERTEX
8
CUT
10
45.441
20
150.108
0
VERTEX
8
CUT
10
41.9769
20
148.108
0
SEQEND
0
POLYLINE
8
CUT
66
1
70
0
0
VERTEX
8
CUT
10
40.2449
20
157.108
0
VERTEX
8
CUT
10
36.7808
20
155.108
0
VERTEX
8
CUT
10
36.7808
20
150.108
0
VERTEX
8
CUT
10
40.2449
20
148.108
0
SEQEND
0
POLYLINE
8
CUT
66
1
70
0
0
VERTEX
8
CUT
10
51.4372
20
157.108
0
VERTEX
8
CUT
10
54.9013
20
155.108
0
VERTEX
8
CUT
10
54.9013
20
150.108
0
VERTEX
8
CUT
10
51.4372
20
148.108
0
SEQEND
0
POLYLINE
8
CUT
66
1
70
0
0
VERTEX
8
CUT
10
49.7051
20
157.108
0
VERTEX
8
CUT
10
46.241
20
155.108
0
VERTEX
8
CUT
10
46.241
20
150.108
0
VERTEX
8
CUT
10
49.7051
20
148.108
0
SEQEND
0
LINE
8
CUT
10
60.8974
20
157.108
11
62
21
156.4714
0
LINE
8
CUT
10
62
20
148.7446
11
60.8974
21
148.108
0
POLYLINE
8
CUT
66
1
70
0
0
VERTEX
8
CUT
10
59.1654
20
157.108
0
VERTEX
8
CUT
10
55.7013
20
155.108
0
VERTEX
8
CUT
10
55.7013
20
150.108
0
VERTEX
8
CUT
10
59.1654
20
148.108
0
SEQEND
0
POLYLINE
8
CUT
66
1
70
0
0
VERTEX
8
CUT
10
8.866
20
148.912
0
VERTEX
8
CUT
10
12.3301
20
146.912
0
VERTEX
8
CUT
10
12.3301
20
144
0
SEQEND
0
POLYLINE
8
CUT
66
1
70
0
0
VERTEX
8
CUT
10
18.3263
20
148.912
0
VERTEX
8
CUT
10
21.7904
20
146.912
0
VERTEX
8
CUT
10
21.7904
20
144
0
SEQEND
0
POLYLINE
8
CUT
66
1
70
0
0
VERTEX
8
CUT
10
16.5942
20
148.912
0
VERTEX
8
CUT
10
13.1301
20
146.912
0
VERTEX
8
CUT
10
13.1301
20
144
0
SEQEND
0
POLYLINE
8
CUT
66
1
70
0
0
VERTEX
8
CUT
10
27.7865
20
148.912
0
VERTEX
8
CUT
10
31.2506
20
146.912
0
VERTEX
8
CUT
10
31.2506
20
144
0
SEQEND
0
POLYLINE
8
CUT
66
1
70
0
0
VERTEX
8
CUT
10
26.0545
20
148.912
0
VERTEX
8
CUT
10
22.5904
20
146.912
0
VERTEX
8
CUT
10
22.5904
20
144
0
SEQEND
0
POLYLINE
8
CUT
66
1
70
0
0
VERTEX
8
CUT
10
37.2468
20
148.912
0
VERTEX
8
CUT
10
40.7109
20
146.912
0
VERTEX
8
CUT
10
40.7109
20
144
0
SEQEND
0
POLYLINE
8
CUT
66
1
70
0
0
VERTEX
8
CUT
10
35.5147
20
148.912
0
VERTEX
8
CUT
10
32.0506
20
146.912
0
VERTEX
8
CUT
10
32.0506
20
144
0
SEQEND
0
POLYLINE
8
CUT
66
1
70
0
0
VERTEX
8
CUT
10
46.707
20
148.912
0
VERTEX
8
CUT
10
50.1711
20
146.912
0
VERTEX
8
CUT
10
50.1711
20
144
0
SEQEND
0
POLYLINE
8
CUT
66
1
70
0
0
VERTEX
8
CUT
10
44.975
20
148.912
0
VERTEX
8
CUT
10
41.5109
20
146.912
0
VERTEX
8
CUT
10
41.5109
20
144
0
SEQEND
0
POLYLINE
8
CUT
66
1
70
0
0
VERTEX
8
CUT
10
56.1673
20
148.912
0
VERTEX
8
CUT
10
59.6314
20
146.912
0
VERTEX
8
CUT
10
59.6314
20
144
0
SEQEND
0
POLYLINE
8
CUT
66
1
70
0
0
VERTEX
8
CUT
10
54.4352
20
148.912
0
VERTEX
8
CUT
10
50.9711
20
146.912
0
VERTEX
8
CUT
10
50.9711
20
144
0
SEQEND
0
POLYLINE
8
CUT
66
1
70
0
0
VERTEX
8
CUT
10
62
20
147.8176
0
VERTEX
8
CUT
10
60.4314
20
146.912
0
VERTEX
8
CUT
10
60.4314
20
144
0
SEQEND
0
LINE
8
CUT
10
2.5
20
144
11
2.5
21
147
0
POLYLINE
8
CUT
66
1
70
0
0
VERTEX
8
CUT
10
0
20
138
0
VERTEX
8
CUT
10
70
20
138
0
VERTEX
8
CUT
10
70
20
108
0
VERTEX
8
CUT
10
0
20
108
0
VERTEX
8
CUT
10
0
20
138
0
SEQEND
0
LINE
8
CUT
10
10.6726
20
138
11
8.866
21
136.957
0
LINE
8
CUT
10
20.4328
20
138
11
18.6263
21
136.957
0
LINE
8
CUT
10
15.0877
20
138
11
16.8942
21
136.957
0
LINE
8
CUT
10
30.1931
20
138
11
28.3865
21
136.957
0
LINE
8
CUT
10
24.848
20
138
11
26.6545
21
136.957
0
LINE
8
CUT
10
39.9533
20
138
11
38.1468
21
136.957
0
LINE
8
CUT
10
34.6082
20
138
11
36.4147
21
136.957
0
LINE
8
CUT
10
49.7136
20
138
11
47.907
21
136.957
0
LINE
8
CUT
10
44.3685
20
138
11
46.175
21
136.957
0
LINE
8
CUT
10
59.4738
20
138
11
57.6673
21
136.957
0
LINE
8
CUT
10
54.1287
20
138
11
55.9352
21
136.957
0
POLYLINE
8
CUT
66
1
70
0
0
VERTEX
8
CUT
10
13.7462
20
137.5
0
VERTEX
8
CUT
10
17.2103
20
135.5
0
VERTEX
8
CUT
10
17.2103
20
130.5
0
VERTEX
8
CUT
10
13.7462
20
128.5
0
SEQEND
0
POLYLINE
8
CUT
66
1
70
0
0
VERTEX
8
CUT
10
12.0141
20
137.5
0
VERTEX
8
CUT
10
8.55
20
135.5
0
VERTEX
8
CUT
10
8.55
20
130.5
0
VERTEX
8
CUT
10
12.0141
20
128.5
0
SEQEND
0
POLYLINE
8
CUT
66
1
70
0
0
VERTEX
8
CUT
10
23.5064
20
137.5
0
VERTEX
8
CUT
10
26.9705
20
135.5
0
VERTEX
8
CUT
10
26.9705
20
130.5
0
VERTEX
8
CUT
10
23.5064
20
128.5
0
SEQEND
0
POLYLINE
8
CUT
66
1
70
0
0
VERTEX
8
CUT
10
21.7744
20
137.5
0
VERTEX
8
CUT
10
18.3103
20
135.5
0
VERTEX
8
CUT
10
18.3103
20
130.5
0
VERTEX
8
CUT
10
21.7744
20
128.5
0
SEQEND
0
POLYLINE
8
CUT
66
1
70
0
0
VERTEX
8
CUT
10
33.2667
20
137.5
0
VERTEX
8
CUT
10
36.7308
20
135.5
0
VERTEX
8
CUT
10
36.7308
20
130.5
0
VERTEX
8
CUT
10
33.2667
20
128.5
0
SEQEND
0
POLYLINE
8
CUT
66
1
70
0
0
VERTEX
8
CUT
10
31.5346
20
137.5
0
VERTEX
8
CUT
10
28.0705
20
135.5
0
VERTEX
8
CUT
10
28.0705
20
130.5
0
VERTEX
8
CUT
10
31.5346
20
128.5
0
SEQEND
0
POLYLINE
8
CUT
66
1
70
0
0
VERTEX
8
CUT
10
43.0269
20
137.5
0
VERTEX
8
CUT
10
46.491
20
135.5
0
VERTEX
8
CUT
10
46.491
20
130.5
0
VERTEX
8
CUT
10
43.0269
20
128.5
0
SEQEND
0
POLYLINE
8
CUT
66
1
70
0
0
VERTEX
8
CUT
10
41.2949
20
137.5
0
VERTEX
8
CUT
10
37.8308
20
135.5
0
VERTEX
8
CUT
10
37.8308
20
130.5
0
VERTEX
8
CUT
10
41.2949
20
128.5
0
SEQEND
0
POLYLINE
8
CUT
66
1
70
0
0
VERTEX
8
CUT
10
52.7872
20
137.5
0
VERTEX
8
CUT
10
56.2513
20
135.5
0
VERTEX
8
CUT
10
56.2513
20
130.5
0
VERTEX
8
CUT
10
52.7872
20
128.5
0
SEQEND
0
POLYLINE
8
CUT
66
1
70
0
0
VERTEX
8
CUT
10
51.0551
20
137.5
0
VERTEX
8
CUT
10
47.591
20
135.5
0
VERTEX
8
CUT
10
47.591
20
130.5
0
VERTEX
8
CUT
10
51.0551
20
128.5
0
SEQEND
0
POLYLINE
8
CUT
66
1
70
0
0
VERTEX
8
CUT
10
60.8154
20
137.5
0
VERTEX
8
CUT
10
57.3513
20
135.5
0
VERTEX
8
CUT
10
57.3513
20
130.5
0
VERTEX
8
CUT
10
60.8154
20
128.5
0
SEQEND
0
POLYLINE
8
CUT
66
1
70
0
0
VERTEX
8
CUT
10
8.866
20
129.043
0
VERTEX
8
CUT
10
12.3301
20
127.043
0
VERTEX
8
CUT
10
12.3301
20
122.043
0
VERTEX
8
CUT
10
8.866
20
120.043
0
SEQEND
0
POLYLINE
8
CUT
66
1
70
0
0
VERTEX
8
CUT
10
18.6263
20
129.043
0
VERTEX
8
CUT
10
22.0904
20
127.043
0
VERTEX
8
CUT
10
22.0904
20
122.043
0
VERTEX
8
CUT
10
18.6263
20
120.043
0
SEQEND
0
POLYLINE
8
CUT
66
1
70
0
0
VERTEX
8
CUT
10
16.8942
20
129.043
0
VERTEX
8
CUT
10
13.4301
20
127.043
0
VERTEX
8
CUT
10
13.4301
20
122.043
0
VERTEX
8
CUT
10
16.8942
20
120.043
0
SEQEND
0
POLYLINE
8
CUT
66
1
70
0
0
VERTEX
8
CUT
10
28.3865
20
129.043
0
VERTEX
8
CUT
10
31.8506
20
127.043
0
VERTEX
8
CUT
10
31.8506
20
122.043
0
VERTEX
8
CUT
10
28.3865
20
120.043
0
SEQEND
0
POLYLINE
8
CUT
66
1
70
0
0
VERTEX
8
CUT
10
26.6545
20
129.043
0
VERTEX
8
CUT
10
23.1904
20
127.043
0
VERTEX
8
CUT
10
23.1904
20
122.043
0
VERTEX
8
CUT
10
26.6545
20
120.043
0
SEQEND
0
POLYLINE
8
CUT
66
1
70
0
0
VERTEX
8
CUT
10
38.1468
20
129.043
0
VERTEX
8
CUT
10
41.6109
20
127.043
0
VERTEX
8
CUT
10
41.6109
20
122.043
0
VERTEX
8
CUT
10
38.1468
20
120.043
0
SEQEND
0
POLYLINE
8
CUT
66
1
70
0
0
VERTEX
8
CUT
10
36.4147
20
129.043
0
VERTEX
8
CUT
10
32.9506
20
127.043
0
VERTEX
8
CUT
10
32.9506
20
122.043
0
VERTEX
8
CUT
10
36.4147
20
120.043
0
SEQEND
0
POLYLINE
8
CUT
66
1
70
0
0
VERTEX
8
CUT
10
47.907
20
129.043
0
VERTEX
8
CUT
10
51.3711
20
127.043
0
VERTEX
8
CUT
10
51.3711
20
122.043
0
VERTEX
8
CUT
10
47.907
20
120.043
0
SEQEND
0
POLYLINE
8
CUT
66
1
70
0
0
VERTEX
8
CUT
10
46.175
20
129.043
0
VERTEX
8
CUT
10
42.7109
20
127.043
0
VERTEX
8
CUT
10
42.7109
20
122.043
0
VERTEX
8
CUT
10
46.175
20
120.043
0
SEQEND
0
POLYLINE
8
CUT
66
1
70
0
0
VERTEX
8
CUT
10
57.6673
20
129.043
0
VERTEX
8
CUT
10
61.1314
20
127.043
0
VERTEX
8
CUT
10
61.1314
20
122.043
0
VERTEX
8
CUT
10
57.6673
20
120.043
0
SEQEND
0
POLYLINE
8
CUT
66
1
70
0
0
VERTEX
8
CUT
10
55.9352
20
129.043
0
VERTEX
8
CUT
10
52.4711
20
127.043
0
VERTEX
8
CUT
10
52.4711
20
122.043
0
VERTEX
8
CUT
10
55.9352
20
120.043
0
SEQEND
0
POLYLINE
8
CUT
66
1
70
0
0
VERTEX
8
CUT
10
13.7462
20
120.586
0
VERTEX
8
CUT
10
17.2103
20
118.586
0
VERTEX
8
CUT
10
17.2103
20
113.586
0
VERTEX
8
CUT
10
13.7462
20
111.586
0
SEQEND
0
POLYLINE
8
CUT
66
1
70
0
0
VERTEX
8
CUT
10
12.0141
20
120.586
0
VERTEX
8
CUT
10
8.55
20
118.586
0
VERTEX
8
CUT
10
8.55
20
113.586
0
VERTEX
8
CUT
10
12.0141
20
111.586
0
SEQEND
0
POLYLINE
8
CUT
66
1
70
0
0
VERTEX
8
CUT
10
23.5064
20
120.586
0
VERTEX
8
CUT
10
26.9705
20
118.586
0
VERTEX
8
CUT
10
26.9705
20
113.586
0
VERTEX
8
CUT
10
23.5064
20
111.586
0
SEQEND
0
POLYLINE
8
CUT
66
1
70
0
0
VERTEX
8
CUT
10
21.7744
20
120.586
0
VERTEX
8
CUT
10
18.3103
20
118.586
0
VERTEX
8
CUT
10
18.3103
20
113.586
0
VERTEX
8
CUT
10
21.7744
20
111.586
0
SEQEND
0
POLYLINE
8
CUT
66
1
70
0
0
VERTEX
8
CUT
10
33.2667
20
120.586
0
VERTEX
8
CUT
10
36.7308
20
118.586
0
VERTEX
8
CUT
10
36.7308
20
113.586
0
VERTEX
8
CUT
10
33.2667
20
111.586
0
SEQEND
0
POLYLINE
8
CUT
66
1
70
0
0
VERTEX
8
CUT
10
31.5346
20
120.586
0
VERTEX
8
CUT
10
28.0705
20
118.586
0
VERTEX
8
CUT
10
28.0705
20
113.586
0
VERTEX
8
CUT
10
31.5346
20
111.586
0
SEQEND
0
POLYLINE
8
CUT
66
1
70
0
0
VERTEX
8
CUT
10
43.0269
20
120.586
0
VERTEX
8
CUT
10
46.491
20
118.586
0
VERTEX
8
CUT
10
46.491
20
113.586
0
VERTEX
8
CUT
10
43.0269
20
111.586
0
SEQEND
0
POLYLINE
8
CUT
66
1
70
0
0
VERTEX
8
CUT
10
41.2949
20
120.586
0
VERTEX
8
CUT
10
37.8308
20
118.586
0
VERTEX
8
CUT
10
37.8308
20
113.586
0
VERTEX
8
CUT
10
41.2949
20
111.586
0
SEQEND
0
POLYLINE
8
CUT
66
1
70
0
0
VERTEX
8
CUT
10
52.7872
20
120.586
0
VERTEX
8
CUT
10
56.2513
20
118.586
0
VERTEX
8
CUT
10
56.2513
20
113.586
0
VERTEX
8
CUT
10
52.7872
20
111.586
0
SEQEND
0
POLYLINE
8
CUT
66
1
70
0
0
VERTEX
8
CUT
10
51.0551
20
120.586
0
VERTEX
8
CUT
10
47.591
20
118.586
0
VERTEX
8
CUT
10
47.591
20
113.586
0
VERTEX
8
CUT
10
51.0551
20
111.586
0
SEQEND
0
POLYLINE
8
CUT
66
1
70
0
0
VERTEX
8
CUT
10
60.8154
20
120.586
0
VERTEX
8
CUT
10
57.3513
20
118.586
0
VERTEX
8
CUT
10
57.3513
20
113.586
0
VERTEX
8
CUT
10
60.8154
20
111.586
0
SEQEND
0
POLYLINE
8
CUT
66
1
70
0
0
VERTEX
8
CUT
10
8.866
20
112.129
0
VERTEX
8
CUT
10
12.3301
20
110.129
0
VERTEX
8
CUT
10
12.3301
20
108
0
SEQEND
0
POLYLINE
8
CUT
66
1
70
0
0
VERTEX
8
CUT
10
18.6263
20
112.129
0
VERTEX
8
CUT
10
22.0904
20
110.129
0
VERTEX
8
CUT
10
22.0904
20
108
0
SEQEND
0
POLYLINE
8
CUT
66
1
70
0
0
VERTEX
8
CUT
10
16.8942
20
112.129
0
VERTEX
8
CUT
10
13.4301
20
110.129
0
VERTEX
8
CUT
10
13.4301
20
108
0
SEQEND
0
POLYLINE
8
CUT
66
1
70
0
0
VERTEX
8
CUT
10
28.3865
20
112.129
0
VERTEX
8
CUT
10
31.8506
20
110.129
0
VERTEX
8
CUT
10
31.8506
20
108
0
SEQEND
0
POLYLINE
8
CUT
66
1
70
0
0
VERTEX
8
CUT
10
26.6545
20
112.129
0
VERTEX
8
CUT
10
23.1904
20
110.129
0
VERTEX
8
CUT
10
23.1904
20
108
0
SEQEND
0
POLYLINE
8
CUT
66
1
70
0
0
VERTEX
8
CUT
10
38.1468
20
112.129
0
VERTEX
8
CUT
10
41.6109
20
110.129
0
VERTEX
8
CUT
10
41.6109
20
108
0
SEQEND
0
POLYLINE
8
CUT
66
1
70
0
0
VERTEX
8
CUT
10
36.4147
20
112.129
0
VERTEX
8
CUT
10
32.9506
20
110.129
0
VERTEX
8
CUT
10
32.9506
20
108
0
SEQEND
0
POLYLINE
8
CUT
66
1
70
0
0
VERTEX
8
CUT
10
47.907
20
112.129
0
VERTEX
8
CUT
10
51.3711
20
110.129
0
VERTEX
8
CUT
10
51.3711
20
108
0
SEQEND
0
POLYLINE
8
CUT
66
1
70
0
0
VERTEX
8
CUT
10
46.175
20
112.129
0
VERTEX
8
CUT
10
42.7109
20
110.129
0
VERTEX
8
CUT
10
42.7109
20
108
0
SEQEND
0
POLYLINE
8
CUT
66
1
70
0
0
VERTEX
8
CUT
10
57.6673
20
112.129
0
VERTEX
8
CUT
10
61.1314
20
110.129
0
VERTEX
8
CUT
10
61.1314
20
108
0
SEQEND
0
POLYLINE
8
CUT
66
1
70
0
0
VERTEX
8
CUT
10
55.9352
20
112.129
0
VERTEX
8
CUT
10
52.4711
20
110.129
0
VERTEX
8
CUT
10
52.4711
20
108
0
SEQEND
0
LINE
8
CUT
10
2.5
20
108
11
2.5
21
111
0
LINE
8
CUT
10
5
20
108
11
5
21
111
0
POLYLINE
8
CUT
66
1
70
0
0
VERTEX
8
CUT
10
0
20
102
0
VERTEX
8
CUT
10
70
20
102
0
VERTEX
8
CUT
10
70
20
72
0
VERTEX
8
CUT
10
0
20
72
0
VERTEX
8
CUT
10
0
20
102
0
SEQEND
0
LINE
8
CUT
10
10.2205
20
102
11
8.866
21
101.218
0
LINE
8
CUT
10
20.2807
20
102
11
18.9263
21
101.218
0
LINE
8
CUT
10
15.8398
20
102
11
17.1942
21
101.218
0
LINE
8
CUT
10
30.341
20
102
11
28.9865
21
101.218
0
LINE
8
CUT
10
25.9
20
102
11
27.2545
21
101.218
0
LINE
8
CUT
10
40.4013
20
102
11
39.0468
21
101.218
0
LINE
8
CUT
10
35.9603
20
102
11
37.3147
21
101.218
0
LINE
8
CUT
10
50.4615
20
102
11
49.107
21
101.218
0
LINE
8
CUT
10
46.0205
20
102
11
47.375
21
101.218
0
LINE
8
CUT
10
60.5218
20
102
11
59.1673
21
101.218
0
LINE
8
CUT
10
56.0808
20
102
11
57.4352
21
101.218
0
POLYLINE
8
CUT
66
1
70
0
0
VERTEX
8
CUT
10
13.8962
20
101.5
0
VERTEX
8
CUT
10
17.3603
20
99.5
0
VERTEX
8
CUT
10
17.3603
20
94.5
0
VERTEX
8
CUT
10
13.8962
20
92.5
0
SEQEND
0
POLYLINE
8
CUT
66
1
70
0
0
VERTEX
8
CUT
10
12.1641
20
101.5
0
VERTEX
8
CUT
10
8.7
20
99.5
0
VERTEX
8
CUT
10
8.7
20
94.5
0
VERTEX
8
CUT
10
12.1641
20
92.5
0
SEQEND
0
POLYLINE
8
CUT
66
1
70
0
0
VERTEX
8
CUT
10
23.9564
20
101.5
0
VERTEX
8
CUT
10
27.4205
20
99.5
0
VERTEX
8
CUT
10
27.4205
20
94.5
0
VERTEX
8
CUT
10
23.9564
20
92.5
0
SEQEND
0
POLYLINE
8
CUT
66
1
70
0
0
VERTEX
8
CUT
10
22.2244
20
101.5
0
VERTEX
8
CUT
10
18.7603
20
99.5
0
VERTEX
8
CUT
10
18.7603
20
94.5
0
VERTEX
8
CUT
10
22.2244
20
92.5
0
SEQEND
0
POLYLINE
8
CUT
66
1
70
0
0
VERTEX
8
CUT
10
34.0167
20
101.5
0
VERTEX
8
CUT
10
37.4808
20
99.5
0
VERTEX
8
CUT
10
37.4808
20
94.5
0
VERTEX
8
CUT
10
34.0167
20
92.5
0
SEQEND
0
POLYLINE
8
CUT
66
1
70
0
0
VERTEX
8
CUT
10
32.2846
20
101.5
0
VERTEX
8
CUT
10
28.8205
20
99.5
0
VERTEX
8
CUT
10
28.8205
20
94.5
0
VERTEX
8
CUT
10
32.2846
20
92.5
0
SEQEND
0
POLYLINE
8
CUT
66
1
70
0
0
VERTEX
8
CUT
10
44.0769
20
101.5
0
VERTEX
8
CUT
10
47.541
20
99.5
0
VERTEX
8
CUT
10
47.541
20
94.5
0
VERTEX
8
CUT
10
44.0769
20
92.5
0
SEQEND
0
POLYLINE
8
CUT
66
1
70
0
0
VERTEX
8
CUT
10
42.3449
20
101.5
0
VERTEX
8
CUT
10
38.8808
20
99.5
0
VERTEX
8
CUT
10
38.8808
20
94.5
0
VERTEX
8
CUT
10
42.3449
20
92.5
0
SEQEND
0
POLYLINE
8
CUT
66
1
70
0
0
VERTEX
8
CUT
10
54.1372
20
101.5
0
VERTEX
8
CUT
10
57.6013
20
99.5
0
VERTEX
8
CUT
10
57.6013
20
94.5
0
VERTEX
8
CUT
10
54.1372
20
92.5
0
SEQEND
0
POLYLINE
8
CUT
66
1
70
0
0
VERTEX
8
CUT
10
52.4051
20
101.5
0
VERTEX
8
CUT
10
48.941
20
99.5
0
VERTEX
8
CUT
10
48.941
20
94.5
0
VERTEX
8
CUT
10
52.4051
20
92.5
0
SEQEND
0
POLYLINE
8
CUT
66
1
70
0
0
VERTEX
8
CUT
10
62
20
101.2313
0
VERTEX
8
CUT
10
59.0013
20
99.5
0
VERTEX
8
CUT
10
59.0013
20
94.5
0
VERTEX
8
CUT
10
62
20
92.7687
0
SEQEND
0
POLYLINE
8
CUT
66
1
70
0
0
VERTEX
8
CUT
10
8.866
20
92.782
0
VERTEX
8
CUT
10
12.3301
20
90.782
0
VERTEX
8
CUT
10
12.3301
20
85.782
0
VERTEX
8
CUT
10
8.866
20
83.782
0
SEQEND
0
POLYLINE
8
CUT
66
1
70
0
0
VERTEX
8
CUT
10
18.9263
20
92.782
0
VERTEX
8
CUT
10
22.3904
20
90.782
0
VERTEX
8
CUT
10
22.3904
20
85.782
0
VERTEX
8
CUT
10
18.9263
20
83.782
0
SEQEND
0
POLYLINE
8
CUT
66
1
70
0
0
VERTEX
8
CUT
10
17.1942
20
92.782
0
VERTEX
8
CUT
10
13.7301
20
90.782
0
VERTEX
8
CUT
10
13.7301
20
85.782
0
VERTEX
8
CUT
10
17.1942
20
83.782
0
SEQEND
0
POLYLINE
8
CUT
66
1
70
0
0
VERTEX
8
CUT
10
28.9865
20
92.782
0
VERTEX
8
CUT
10
32.4506
20
90.782
0
VERTEX
8
CUT
10
32.4506
20
85.782
0
VERTEX
8
CUT
10
28.9865
20
83.782
0
SEQEND
0
POLYLINE
8
CUT
66
1
70
0
0
VERTEX
8
CUT
10
27.2545
20
92.782
0
VERTEX
8
CUT
10
23.7904
20
90.782
0
VERTEX
8
CUT
10
23.7904
20
85.782
0
VERTEX
8
CUT
10
27.2545
20
83.782
0
SEQEND
0
POLYLINE
8
CUT
66
1
70
0
0
VERTEX
8
CUT
10
39.0468
20
92.782
0
VERTEX
8
CUT
10
42.5109
20
90.782
0
VERTEX
8
CUT
10
42.5109
20
85.782
0
VERTEX
8
CUT
10
39.0468
20
83.782
0
SEQEND
0
POLYLINE
8
CUT
66
1
70
0
0
VERTEX
8
CUT
10
37.3147
20
92.782
0
VERTEX
8
CUT
10
33.8506
20
90.782
0
VERTEX
8
CUT
10
33.8506
20
85.782
0
VERTEX
8
CUT
10
37.3147
20
83.782
0
SEQEND
0
POLYLINE
8
CUT
66
1
70
0
0
VERTEX
8
CUT
10
49.107
20
92.782
0
VERTEX
8
CUT
10
52.5711
20
90.782
0
VERTEX
8
CUT
10
52.5711
20
85.782
0
VERTEX
8
CUT
10
49.107
20
83.782
0
SEQEND
0
POLYLINE
8
CUT
66
1
70
0
0
VERTEX
8
CUT
10
47.375
20
92.782
0
VERTEX
8
CUT
10
43.9109
20
90.782
0
VERTEX
8
CUT
10
43.9109
20
85.782
0
VERTEX
8
CUT
10
47.375
20
83.782
0
SEQEND
0
LINE
8
CUT
10
59.1673
20
92.782
11
62
21
91.1465
0
LINE
8
CUT
10
62
20
85.4175
11
59.1673
21
83.782
0
POLYLINE
8
CUT
66
1
70
0
0
VERTEX
8
CUT
10
57.4352
20
92.782
0
VERTEX
8
CUT
10
53.9711
20
90.782
0
VERTEX
8
CUT
10
53.9711
20
85.782
0
VERTEX
8
CUT
10
57.4352
20
83.782
0
SEQEND
0
POLYLINE
8
CUT
66
1
70
0
0
VERTEX
8
CUT
10
13.8962
20
84.064
0
VERTEX
8
CUT
10
17.3603
20
82.064
0
VERTEX
8
CUT
10
17.3603
20
77.064
0
VERTEX
8
CUT
10
13.8962
20
75.064
0
SEQEND
0
POLYLINE
8
CUT
66
1
70
0
0
VERTEX
8
CUT
10
12.1641
20
84.064
0
VERTEX
8
CUT
10
8.7
20
82.064
0
VERTEX
8
CUT
10
8.7
20
77.064
0
VERTEX
8
CUT
10
12.1641
20
75.064
0
SEQEND
0
POLYLINE
8
CUT
66
1
70
0
0
VERTEX
8
CUT
10
23.9564
20
84.064
0
VERTEX
8
CUT
10
27.4205
20
82.064
0
VERTEX
8
CUT
10
27.4205
20
77.064
0
VERTEX
8
CUT
10
23.9564
20
75.064
0
SEQEND
0
POLYLINE
8
CUT
66
1
70
0
0
VERTEX
8
CUT
10
22.2244
20
84.064
0
VERTEX
8
CUT
10
18.7603
20
82.064
0
VERTEX
8
CUT
10
18.7603
20
77.064
0
VERTEX
8
CUT
10
22.2244
20
75.064
0
SEQEND
0
POLYLINE
8
CUT
66
1
70
0
0
VERTEX
8
CUT
10
34.0167
20
84.064
0
VERTEX
8
CUT
10
37.4808
20
82.064
0
VERTEX
8
CUT
10
37.4808
20
77.064
0
VERTEX
8
CUT
10
34.0167
20
75.064
0
SEQEND
0
POLYLINE
8
CUT
66
1
70
0
0
VERTEX
8
CUT
10
32.2846
20
84.064
0
VERTEX
8
CUT
10
28.8205
20
82.064
0
VERTEX
8
CUT
10
28.8205
20
77.064
0
VERTEX
8
CUT
10
32.2846
20
75.064
0
SEQEND
0
POLYLINE
8
CUT
66
1
70
0
0
VERTEX
8
CUT
10
44.0769
20
84.064
0
VERTEX
8
CUT
10
47.541
20
82.064
0
VERTEX
8
CUT
10
47.541
20
77.064
0
VERTEX
8
CUT
10
44.0769
20
75.064
0
SEQEND
0
POLYLINE
8
CUT
66
1
70
0
0
VERTEX
8
CUT
10
42.3449
20
84.064
0
VERTEX
8
CUT
10
38.8808
20
82.064
0
VERTEX
8
CUT
10
38.8808
20
77.064
0
VERTEX
8
CUT
10
42.3449
20
75.064
0
SEQEND
0
POLYLINE
8
CUT
66
1
70
0
0
VERTEX
8
CUT
10
54.1372
20
84.064
0
VERTEX
8
CUT
10
57.6013
20
82.064
0
VERTEX
8
CUT
10
57.6013
20
77.064
0
VERTEX
8
CUT
10
54.1372
20
75.064
0
SEQEND
0
POLYLINE
8
CUT
66
1
70
0
0
VERTEX
8
CUT
10
52.4051
20
84.064
0
VERTEX
8
CUT
10
48.941
20
82.064
0
VERTEX
8
CUT
10
48.941
20
77.064
0
VERTEX
8
CUT
10
52.4051
20
75.064
0
SEQEND
0
POLYLINE
8
CUT
66
1
70
0
0
VERTEX
8
CUT
10
62
20
83.7953
0
VERTEX
8
CUT
10
59.0013
20
82.064
0
VERTEX
8
CUT
10
59.0013
20
77.064
0
VERTEX
8
CUT
10
62
20
75.3327
0
SEQEND
0
POLYLINE
8
CUT
66
1
70
0
0
VERTEX
8
CUT
10
8.866
20
75.346
0
VERTEX
8
CUT
10
12.3301
20
73.346
0
VERTEX
8
CUT
10
12.3301
20
72
0
SEQEND
0
POLYLINE
8
CUT
66
1
70
0
0
VERTEX
8
CUT
10
18.9263
20
75.346
0
VERTEX
8
CUT
10
22.3904
20
73.346
0
VERTEX
8
CUT
10
22.3904
20
72
0
SEQEND
0
POLYLINE
8
CUT
66
1
70
0
0
VERTEX
8
CUT
10
17.1942
20
75.346
0
VERTEX
8
CUT
10
13.7301
20
73.346
0
VERTEX
8
CUT
10
13.7301
20
72
0
SEQEND
0
POLYLINE
8
CUT
66
1
70
0
0
VERTEX
8
CUT
10
28.9865
20
75.346
0
VERTEX
8
CUT
10
32.4506
20
73.346
0
VERTEX
8
CUT
10
32.4506
20
72
0
SEQEND
0
POLYLINE
8
CUT
66
1
70
0
0
VERTEX
8
CUT
10
27.2545
20
75.346
0
VERTEX
8
CUT
10
23.7904
20
73.346
0
VERTEX
8
CUT
10
23.7904
20
72
0
SEQEND
0
POLYLINE
8
CUT
66
1
70
0
0
VERTEX
8
CUT
10
39.0468
20
75.346
0
VERTEX
8
CUT
10
42.5109
20
73.346
0
VERTEX
8
CUT
10
42.5109
20
72
0
SEQEND
0
POLYLINE
8
CUT
66
1
70
0
0
VERTEX
8
CUT
10
37.3147
20
75.346
0
VERTEX
8
CUT
10
33.8506
20
73.346
0
VERTEX
8
CUT
10
33.8506
20
72
0
SEQEND
0
POLYLINE
8
CUT
66
1
70
0
0
VERTEX
8
CUT
10
49.107
20
75.346
0
VERTEX
8
CUT
10
52.5711
20
73.346
0
VERTEX
8
CUT
10
52.5711
20
72
0
SEQEND
0
POLYLINE
8
CUT
66
1
70
0
0
VERTEX
8
CUT
10
47.375
20
75.346
0
VERTEX
8
CUT
10
43.9109
20
73.346
0
VERTEX
8
CUT
10
43.9109
20
72
0
SEQEND
0
LINE
8
CUT
10
59.1673
20
75.346
11
62
21
73.7105
0
POLYLINE
8
CUT
66
1
70
0
0
VERTEX
8
CUT
10
57.4352
20
75.346
0
VERTEX
8
CUT
10
53.9711
20
73.346
0
VERTEX
8
CUT
10
53.9711
20
72
0
SEQEND
0
LINE
8
CUT
10
2.5
20
72
11
2.5
21
75
0
LINE
8
CUT
10
5
20
72
11
5
21
75
0
LINE
8
CUT
10
7.5
20
72
11
7.5
21
75
0
POLYLINE
8
CUT
66
1
70
0
0
VERTEX
8
CUT
10
0
20
66
0
VERTEX
8
CUT
10
70
20
66
0
VERTEX
8
CUT
10
70
20
36
0
VERTEX
8
CUT
10
0
20
36
0
VERTEX
8
CUT
10
0
20
66
0
SEQEND
0
LINE
8
CUT
10
9.7684
20
66
11
8.866
21
65.479
0
LINE
8
CUT
10
20.1287
20
66
11
19.2263
21
65.479
0
LINE
8
CUT
10
16.5918
20
66
11
17.4942
21
65.479
0
LINE
8
CUT
10
30.4889
20
66
11
29.5865
21
65.479
0
LINE
8
CUT
10
26.9521
20
66
11
27.8545
21
65.479
0
LINE
8
CUT
10
40.8492
20
66
11
39.9468
21
65.479
0
LINE
8
CUT
10
37.3123
20
66
11
38.2147
21
65.479
0
LINE
8
CUT
10
51.2094
20
66
11
50.307
21
65.479
0
LINE
8
CUT
10
47.6726
20
66
11
48.575
21
65.479
0
LINE
8
CUT
10
61.5697
20
66
11
60.6673
21
65.479
0
LINE
8
CUT
10
58.0328
20
66
11
58.9352
21
65.479
0
POLYLINE
8
CUT
66
1
70
0
0
VERTEX
8
CUT
10
14.0462
20
65.5
0
VERTEX
8
CUT
10
17.5103
20
63.5
0
VERTEX
8
CUT
10
17.5103
20
58.5
0
VERTEX
8
CUT
10
14.0462
20
56.5
0
SEQEND
0
POLYLINE
8
CUT
66
1
70
0
0
VERTEX
8
CUT
10
12.3141
20
65.5
0
VERTEX
8
CUT
10
8.85
20
63.5
0
VERTEX
8
CUT
10
8.85
20
58.5
0
VERTEX
8
CUT
10
12.3141
20
56.5
0
SEQEND
0
POLYLINE
8
CUT
66
1
70
0
0
VERTEX
8
CUT
10
24.4064
20
65.5
0
VERTEX
8
CUT
10
27.8705
20
63.5
0
VERTEX
8
CUT
10
27.8705
20
58.5
0
VERTEX
8
CUT
10
24.4064
20
56.5
0
SEQEND
0
POLYLINE
8
CUT
66
1
70
0
0
VERTEX
8
CUT
10
22.6744
20
65.5
0
VERTEX
8
CUT
10
19.2103
20
63.5
0
VERTEX
8
CUT
10
19.2103
20
58.5
0
VERTEX
8
CUT
10
22.6744
20
56.5
0
SEQEND
0
POLYLINE
8
CUT
66
1
70
0
0
VERTEX
8
CUT
10
34.7667
20
65.5
0
VERTEX
8
CUT
10
38.2308
20
63.5
0
VERTEX
8
CUT
10
38.2308
20
58.5
0
VERTEX
8
CUT
10
34.7667
20
56.5
0
SEQEND
0
POLYLINE
8
CUT
66
1
70
0
0
VERTEX
8
CUT
10
33.0346
20
65.5
0
VERTEX
8
CUT
10
29.5705
20
63.5
0
VERTEX
8
CUT
10
29.5705
20
58.5
0
VERTEX
8
CUT
10
33.0346
20
56.5
0
SEQEND
0
POLYLINE
8
CUT
66
1
70
0
0
VERTEX
8
CUT
10
45.1269
20
65.5
0
VERTEX
8
CUT
10
48.591
20
63.5
0
VERTEX
8
CUT
10
48.591
20
58.5
0
VERTEX
8
CUT
10
45.1269
20
56.5
0
SEQEND
0
POLYLINE
8
CUT
66
1
70
0
0
VERTEX
8
CUT
10
43.3949
20
65.5
0
VERTEX
8
CUT
10
39.9308
20
63.5
0
VERTEX
8
CUT
10
39.9308
20
58.5
0
VERTEX
8
CUT
10
43.3949
20
56.5
0
SEQEND
0
POLYLINE
8
CUT
66
1
70
0
0
VERTEX
8
CUT
10
55.4872
20
65.5
0
VERTEX
8
CUT
10
58.9513
20
63.5
0
VERTEX
8
CUT
10
58.9513
20
58.5
0
VERTEX
8
CUT
10
55.4872
20
56.5
0
SEQEND
0
POLYLINE
8
CUT
66
1
70
0
0
VERTEX
8
CUT
10
53.7551
20
65.5
0
VERTEX
8
CUT
10
50.291
20
63.5
0
VERTEX
8
CUT
10
50.291
20
58.5
0
VERTEX
8
CUT
10
53.7551
20
56.5
0
SEQEND
0
POLYLINE
8
CUT
66
1
70
0
0
VERTEX
8
CUT
10
62
20
64.2787
0
VERTEX
8
CUT
10
60.6513
20
63.5
0
VERTEX
8
CUT
10
60.6513
20
58.5
0
VERTEX
8
CUT
10
62
20
57.7213
0
SEQEND
0
POLYLINE
8
CUT
66
1
70
0
0
VERTEX
8
CUT
10
8.866
20
56.521
0
VERTEX
8
CUT
10
12.3301
20
54.521
0
VERTEX
8
CUT
10
12.3301
20
49.521
0
VERTEX
8
CUT
10
8.866
20
47.521
0
SEQEND
0
POLYLINE
8
CUT
66
1
70
0
0
VERTEX
8
CUT
10
19.2263
20
56.521
0
VERTEX
8
CUT
10
22.6904
20
54.521
0
VERTEX
8
CUT
10
22.6904
20
49.521
0
VERTEX
8
CUT
10
19.2263
20
47.521
0
SEQEND
0
POLYLINE
8
CUT
66
1
70
0
0
VERTEX
8
CUT
10
17.4942
20
56.521
0
VERTEX
8
CUT
10
14.0301
20
54.521
0
VERTEX
8
CUT
10
14.0301
20
49.521
0
VERTEX
8
CUT
10
17.4942
20
47.521
0
SEQEND
0
POLYLINE
8
CUT
66
1
70
0
0
VERTEX
8
CUT
10
29.5865
20
56.521
0
VERTEX
8
CUT
10
33.0506
20
54.521
0
VERTEX
8
CUT
10
33.0506
20
49.521
0
VERTEX
8
CUT
10
29.5865
20
47.521
0
SEQEND
0
POLYLINE
8
CUT
66
1
70
0
0
VERTEX
8
CUT
10
27.8545
20
56.521
0
VERTEX
8
CUT
10
24.3904
20
54.521
0
VERTEX
8
CUT
10
24.3904
20
49.521
0
VERTEX
8
CUT
10
27.8545
20
47.521
0
SEQEND
0
POLYLINE
8
CUT
66
1
70
0
0
VERTEX
8
CUT
10
39.9468
20
56.521
0
VERTEX
8
CUT
10
43.4109
20
54.521
0
VERTEX
8
CUT
10
43.4109
20
49.521
0
VERTEX
8
CUT
10
39.9468
20
47.521
0
SEQEND
0
POLYLINE
8
CUT
66
1
70
0
0
VERTEX
8
CUT
10
38.2147
20
56.521
0
VERTEX
8
CUT
10
34.7506
20
54.521
0
VERTEX
8
CUT
10
34.7506
20
49.521
0
VERTEX
8
CUT
10
38.2147
20
47.521
0
SEQEND
0
POLYLINE
8
CUT
66
1
70
0
0
VERTEX
8
CUT
10
50.307
20
56.521
0
VERTEX
8
CUT
10
53.7711
20
54.521
0
VERTEX
8
CUT
10
53.7711
20
49.521
0
VERTEX
8
CUT
10
50.307
20
47.521
0
SEQEND
0
POLYLINE
8
CUT
66
1
70
0
0
VERTEX
8
CUT
10
48.575
20
56.521
0
VERTEX
8
CUT
10
45.1109
20
54.521
0
VERTEX
8
CUT
10
45.1109
20
49.521
0
VERTEX
8
CUT
10
48.575
20
47.521
0
SEQEND
0
LINE
8
CUT
10
60.6673
20
56.521
11
62
21
55.7516
0
LINE
8
CUT
10
62
20
48.2904
11
60.6673
21
47.521
0
POLYLINE
8
CUT
66
1
70
0
0
VERTEX
8
CUT
10
58.9352
20
56.521
0
VERTEX
8
CUT
10
55.4711
20
54.521
0
VERTEX
8
CUT
10
55.4711
20
49.521
0
VERTEX
8
CUT
10
58.9352
20
47.521
0
SEQEND
0
POLYLINE
8
CUT
66
1
70
0
0
VERTEX
8
CUT
10
14.0462
20
47.542
0
VERTEX
8
CUT
10
17.5103
20
45.542
0
VERTEX
8
CUT
10
17.5103
20
40.542
0
VERTEX
8
CUT
10
14.0462
20
38.542
0
SEQEND
0
POLYLINE
8
CUT
66
1
70
0
0
VERTEX
8
CUT
10
12.3141
20
47.542
0
VERTEX
8
CUT
10
8.85
20
45.542
0
VERTEX
8
CUT
10
8.85
20
40.542
0
VERTEX
8
CUT
10
12.3141
20
38.542
0
SEQEND
0
POLYLINE
8
CUT
66
1
70
0
0
VERTEX
8
CUT
10
24.4064
20
47.542
0
VERTEX
8
CUT
10
27.8705
20
45.542
0
VERTEX
8
CUT
10
27.8705
20
40.542
0
VERTEX
8
CUT
10
24.4064
20
38.542
0
SEQEND
0
POLYLINE
8
CUT
66
1
70
0
0
VERTEX
8
CUT
10
22.6744
20
47.542
0
VERTEX
8
CUT
10
19.2103
20
45.542
0
VERTEX
8
CUT
10
19.2103
20
40.542
0
VERTEX
8
CUT
10
22.6744
20
38.542
0
SEQEND
0
POLYLINE
8
CUT
66
1
70
0
0
VERTEX
8
CUT
10
34.7667
20
47.542
0
VERTEX
8
CUT
10
38.2308
20
45.542
0
VERTEX
8
CUT
10
38.2308
20
40.542
0
VERTEX
8
CUT
10
34.7667
20
38.542
0
SEQEND
0
POLYLINE
8
CUT
66
1
70
0
0
VERTEX
8
CUT
10
33.0346
20
47.542
0
VERTEX
8
CUT
10
29.5705
20
45.542
0
VERTEX
8
CUT
10
29.5705
20
40.542
0
VERTEX
8
CUT
10
33.0346
20
38.542
0
SEQEND
0
POLYLINE
8
CUT
66
1
70
0
0
VERTEX
8
CUT
10
45.1269
20
47.542
0
VERTEX
8
CUT
10
48.591
20
45.542
0
VERTEX
8
CUT
10
48.591
20
40.542
0
VERTEX
8
CUT
10
45.1269
20
38.542
0
SEQEND
0
POLYLINE
8
CUT
66
1
70
0
0
VERTEX
8
CUT
10
43.3949
20
47.542
0
VERTEX
8
CUT
10
39.9308
20
45.542
0
VERTEX
8
CUT
10
39.9308
20
40.542
0
VERTEX
8
CUT
10
43.3949
20
38.542
0
SEQEND
0
POLYLINE
8
CUT
66
1
70
0
0
VERTEX
8
CUT
10
55.4872
20
47.542
0
VERTEX
8
CUT
10
58.9513
20
45.542
0
VERTEX
8
CUT
10
58.9513
20
40.542
0
VERTEX
8
CUT
10
55.4872
20
38.542
0
SEQEND
0
POLYLINE
8
CUT
66
1
70
0
0
VERTEX
8
CUT
10
53.7551
20
47.542
0
VERTEX
8
CUT
10
50.291
20
45.542
0
VERTEX
8
CUT
10
50.291
20
40.542
0
VERTEX
8
CUT
10
53.7551
20
38.542
0
SEQEND
0
POLYLINE
8
CUT
66
1
70
0
0
VERTEX
8
CUT
10
62
20
46.3207
0
VERTEX
8
CUT
10
60.6513
20
45.542
0
VERTEX
8
CUT
10
60.6513
20
40.542
0
VERTEX
8
CUT
10
62
20
39.7633
0
SEQEND
0
POLYLINE
8
CUT
66
1
70
0
0
VERTEX
8
CUT
10
8.866
20
38.563
0
VERTEX
8
CUT
10
12.3301
20
36.563
0
VERTEX
8
CUT
10
12.3301
20
36
0
SEQEND
0
POLYLINE
8
CUT
66
1
70
0
0
VERTEX
8
CUT
10
19.2263
20
38.563
0
VERTEX
8
CUT
10
22.6904
20
36.563
0
VERTEX
8
CUT
10
22.6904
20
36
0
SEQEND
0
POLYLINE
8
CUT
66
1
70
0
0
VERTEX
8
CUT
10
17.4942
20
38.563
0
VERTEX
8
CUT
10
14.0301
20
36.563
0
VERTEX
8
CUT
10
14.0301
20
36
0
SEQEND
0
POLYLINE
8
CUT
66
1
70
0
0
VERTEX
8
CUT
10
29.5865
20
38.563
0
VERTEX
8
CUT
10
33.0506
20
36.563
0
VERTEX
8
CUT
10
33.0506
20
36
0
SEQEND
0
POLYLINE
8
CUT
66
1
70
0
0
VERTEX
8
CUT
10
27.8545
20
38.563
0
VERTEX
8
CUT
10
24.3904
20
36.563
0
VERTEX
8
CUT
10
24.3904
20
36
0
SEQEND
0
POLYLINE
8
CUT
66
1
70
0
0
VERTEX
8
CUT
10
39.9468
20
38.563
0
VERTEX
8
CUT
10
43.4109
20
36.563
0
VERTEX
8
CUT
10
43.4109
20
36
0
SEQEND
0
POLYLINE
8
CUT
66
1
70
0
0
VERTEX
8
CUT
10
38.2147
20
38.563
0
VERTEX
8
CUT
10
34.7506
20
36.563
0
VERTEX
8
CUT
10
34.7506
20
36
0
SEQEND
0
POLYLINE
8
CUT
66
1
70
0
0
VERTEX
8
CUT
10
50.307
20
38.563
0
VERTEX
8
CUT
10
53.7711
20
36.563
0
VERTEX
8
CUT
10
53.7711
20
36
0
SEQEND
0
POLYLINE
8
CUT
66
1
70
0
0
VERTEX
8
CUT
10
48.575
20
38.563
0
VERTEX
8
CUT
10
45.1109
20
36.563
0
VERTEX
8
CUT
10
45.1109
20
36
0
SEQEND
0
LINE
8
CUT
10
60.6673
20
38.563
11
62
21
37.7936
0
POLYLINE
8
CUT
66
1
70
0
0
VERTEX
8
CUT
10
58.9352
20
38.563
0
VERTEX
8
CUT
10
55.4711
20
36.563
0
VERTEX
8
CUT
10
55.4711
20
36
0
SEQEND
0
LINE
8
CUT
10
2.5
20
36
11
2.5
21
39
0
LINE
8
CUT
10
5
20
36
11
5
21
39
0
LINE
8
CUT
10
7.5
20
36
11
7.5
21
39
0
LINE
8
CUT
10
10
20
36
11
10
21
39
0
POLYLINE
8
CUT
66
1
70
0
0
VERTEX
8
CUT
10
0
20
30
0
VERTEX
8
CUT
10
70
20
30
0
VERTEX
8
CUT
10
70
20
0
0
VERTEX
8
CUT
10
0
20
0
0
VERTEX
8
CUT
10
0
20
30
0
SEQEND
0
LINE
8
CUT
10
9.3164
20
30
11
8.866
21
29.74
0
LINE
8
CUT
10
19.9766
20
30
11
19.5263
21
29.74
0
LINE
8
CUT
10
17.3439
20
30
11
17.7942
21
29.74
0
LINE
8
CUT
10
30.6369
20
30
11
30.1865
21
29.74
0
LINE
8
CUT
10
28.0041
20
30
11
28.4545
21
29.74
0
LINE
8
CUT
10
41.2971
20
30
11
40.8468
21
29.74
0
LINE
8
CUT
10
38.6644
20
30
11
39.1147
21
29.74
0
LINE
8
CUT
10
51.9574
20
30
11
51.507
21
29.74
0
LINE
8
CUT
10
49.3247
20
30
11
49.775
21
29.74
0
LINE
8
CUT
10
59.9849
20
30
11
60.4352
21
29.74
0
POLYLINE
8
CUT
66
1
70
0
0
VERTEX
8
CUT
10
14.1962
20
29.5
0
VERTEX
8
CUT
10
17.6603
20
27.5
0
VERTEX
8
CUT
10
17.6603
20
22.5
0
VERTEX
8
CUT
10
14.1962
20
20.5
0
SEQEND
0
POLYLINE
8
CUT
66
1
70
0
0
VERTEX
8
CUT
10
12.4641
20
29.5
0
VERTEX
8
CUT
10
9
20
27.5
0
VERTEX
8
CUT
10
9
20
22.5
0
VERTEX
8
CUT
10
12.4641
20
20.5
0
SEQEND
0
POLYLINE
8
CUT
66
1
70
0
0
VERTEX
8
CUT
10
24.8564
20
29.5
0
VERTEX
8
CUT
10
28.3205
20
27.5
0
VERTEX
8
CUT
10
28.3205
20
22.5
0
VERTEX
8
CUT
10
24.8564
20
20.5
0
SEQEND
0
POLYLINE
8
CUT
66
1
70
0
0
VERTEX
8
CUT
10
23.1244
20
29.5
0
VERTEX
8
CUT
10
19.6603
20
27.5
0
VERTEX
8
CUT
10
19.6603
20
22.5
0
VERTEX
8
CUT
10
23.1244
20
20.5
0
SEQEND
0
POLYLINE
8
CUT
66
1
70
0
0
VERTEX
8
CUT
10
35.5167
20
29.5
0
VERTEX
8
CUT
10
38.9808
20
27.5
0
VERTEX
8
CUT
10
38.9808
20
22.5
0
VERTEX
8
CUT
10
35.5167
20
20.5
0
SEQEND
0
POLYLINE
8
CUT
66
1
70
0
0
VERTEX
8
CUT
10
33.7846
20
29.5
0
VERTEX
8
CUT
10
30.3205
20
27.5
0
VERTEX
8
CUT
10
30.3205
20
22.5
0
VERTEX
8
CUT
10
33.7846
20
20.5
0
SEQEND
0
POLYLINE
8
CUT
66
1
70
0
0
VERTEX
8
CUT
10
46.1769
20
29.5
0
VERTEX
8
CUT
10
49.641
20
27.5
0
VERTEX
8
CUT
10
49.641
20
22.5
0
VERTEX
8
CUT
10
46.1769
20
20.5
0
SEQEND
0
POLYLINE
8
CUT
66
1
70
0
0
VERTEX
8
CUT
10
44.4449
20
29.5
0
VERTEX
8
CUT
10
40.9808
20
27.5
0
VERTEX
8
CUT
10
40.9808
20
22.5
0
VERTEX
8
CUT
10
44.4449
20
20.5
0
SEQEND
0
POLYLINE
8
CUT
66
1
70
0
0
VERTEX
8
CUT
10
56.8372
20
29.5
0
VERTEX
8
CUT
10
60.3013
20
27.5
0
VERTEX
8
CUT
10
60.3013
20
22.5
0
VERTEX
8
CUT
10
56.8372
20
20.5
0
SEQEND
0
POLYLINE
8
CUT
66
1
70
0
0
VERTEX
8
CUT
10
55.1051
20
29.5
0
VERTEX
8
CUT
10
51.641
20
27.5
0
VERTEX
8
CUT
10
51.641
20
22.5
0
VERTEX
8
CUT
10
55.1051
20
20.5
0
SEQEND
0
POLYLINE
8
CUT
66
1
70
0
0
VERTEX
8
CUT
10
8.866
20
20.26
0
VERTEX
8
CUT
10
12.3301
20
18.26
0
VERTEX
8
CUT
10
12.3301
20
13.26
0
VERTEX
8
CUT
10
8.866
20
11.26
0
SEQEND
0
POLYLINE
8
CUT
66
1
70
0
0
VERTEX
8
CUT
10
19.5263
20
20.26
0
VERTEX
8
CUT
10
22.9904
20
18.26
0
VERTEX
8
CUT
10
22.9904
20
13.26
0
VERTEX
8
CUT
10
19.5263
20
11.26
0
SEQEND
0
POLYLINE
8
CUT
66
1
70
0
0
VERTEX
8
CUT
10
17.7942
20
20.26
0
VERTEX
8
CUT
10
14.3301
20
18.26
0
VERTEX
8
CUT
10
14.3301
20
13.26
0
VERTEX
8
CUT
10
17.7942
20
11.26
0
SEQEND
0
POLYLINE
8
CUT
66
1
70
0
0
VERTEX
8
CUT
10
30.1865
20
20.26
0
VERTEX
8
CUT
10
33.6506
20
18.26
0
VERTEX
8
CUT
10
33.6506
20
13.26
0
VERTEX
8
CUT
10
30.1865
20
11.26
0
SEQEND
0
POLYLINE
8
CUT
66
1
70
0
0
VERTEX
8
CUT
10
28.4545
20
20.26
0
VERTEX
8
CUT
10
24.9904
20
18.26
0
VERTEX
8
CUT
10
24.9904
20
13.26
0
VERTEX
8
CUT
10
28.4545
20
11.26
0
SEQEND
0
POLYLINE
8
CUT
66
1
70
0
0
VERTEX
8
CUT
10
40.8468
20
20.26
0
VERTEX
8
CUT
10
44.3109
20
18.26
0
VERTEX
8
CUT
10
44.3109
20
13.26
0
VERTEX
8
CUT
10
40.8468
20
11.26
0
SEQEND
0
POLYLINE
8
CUT
66
1
70
0
0
VERTEX
8
CUT
10
39.1147
20
20.26
0
VERTEX
8
CUT
10
35.6506
20
18.26
0
VERTEX
8
CUT
10
35.6506
20
13.26
0
VERTEX
8
CUT
10
39.1147
20
11.26
0
SEQEND
0
POLYLINE
8
CUT
66
1
70
0
0
VERTEX
8
CUT
10
51.507
20
20.26
0
VERTEX
8
CUT
10
54.9711
20
18.26
0
VERTEX
8
CUT
10
54.9711
20
13.26
0
VERTEX
8
CUT
10
51.507
20
11.26
0
SEQEND
0
POLYLINE
8
CUT
66
1
70
0
0
VERTEX
8
CUT
10
49.775
20
20.26
0
VERTEX
8
CUT
10
46.3109
20
18.26
0
VERTEX
8
CUT
10
46.3109
20
13.26
0
VERTEX
8
CUT
10
49.775
20
11.26
0
SEQEND
0
POLYLINE
8
CUT
66
1
70
0
0
VERTEX
8
CUT
10
60.4352
20
20.26
0
VERTEX
8
CUT
10
56.9711
20
18.26
0
VERTEX
8
CUT
10
56.9711
20
13.26
0
VERTEX
8
CUT
10
60.4352
20
11.26
0
SEQEND
0
POLYLINE
8
CUT
66
1
70
0
0
VERTEX
8
CUT
10
14.1962
20
11.02
0
VERTEX
8
CUT
10
17.6603
20
9.02
0
VERTEX
8
CUT
10
17.6603
20
4.02
0
VERTEX
8
CUT
10
14.1962
20
2.02
0
SEQEND
0
POLYLINE
8
CUT
66
1
70
0
0
VERTEX
8
CUT
10
12.4641
20
11.02
0
VERTEX
8
CUT
10
9
20
9.02
0
VERTEX
8
CUT
10
9
20
4.02
0
VERTEX
8
CUT
10
12.4641
20
2.02
0
SEQEND
0
POLYLINE
8
CUT
66
1
70
0
0
VERTEX
8
CUT
10
24.8564
20
11.02
0
VERTEX
8
CUT
10
28.3205
20
9.02
0
VERTEX
8
CUT
10
28.3205
20
4.02
0
VERTEX
8
CUT
10
24.8564
20
2.02
0
SEQEND
0
POLYLINE
8
CUT
66
1
70
0
0
VERTEX
8
CUT
10
23.1244
20
11.02
0
VERTEX
8
CUT
10
19.6603
20
9.02
0
VERTEX
8
CUT
10
19.6603
20
4.02
0
VERTEX
8
CUT
10
23.1244
20
2.02
0
SEQEND
0
POLYLINE
8
CUT
66
1
70
0
0
VERTEX
8
CUT
10
35.5167
20
11.02
0
VERTEX
8
CUT
10
38.9808
20
9.02
0
VERTEX
8
CUT
10
38.9808
20
4.02
0
VERTEX
8
CUT
10
35.5167
20
2.02
0
SEQEND
0
POLYLINE
8
CUT
66
1
70
0
0
VERTEX
8
CUT
10
33.7846
20
11.02
0
VERTEX
8
CUT
10
30.3205
20
9.02
0
VERTEX
8
CUT
10
30.3205
20
4.02
0
VERTEX
8
CUT
10
33.7846
20
2.02
0
SEQEND
0
POLYLINE
8
CUT
66
1
70
0
0
VERTEX
8
CUT
10
46.1769
20
11.02
0
VERTEX
8
CUT
10
49.641
20
9.02
0
VERTEX
8
CUT
10
49.641
20
4.02
0
VERTEX
8
CUT
10
46.1769
20
2.02
0
SEQEND
0
POLYLINE
8
CUT
66
1
70
0
0
VERTEX
8
CUT
10
44.4449
20
11.02
0
VERTEX
8
CUT
10
40.9808
20
9.02
0
VERTEX
8
CUT
10
40.9808
20
4.02
0
VERTEX
8
CUT
10
44.4449
20
2.02
0
SEQEND
0
POLYLINE
8
CUT
66
1
70
0
0
VERTEX
8
CUT
10
56.8372
20
11.02
0
VERTEX
8
CUT
10
60.3013
20
9.02
0
VERTEX
8
CUT
10
60.3013
20
4.02
0
VERTEX
8
CUT
10
56.8372
20
2.02
0
SEQEND
0
POLYLINE
8
CUT
66
1
70
0
0
VERTEX
8
CUT
10
55.1051
20
11.02
0
VERTEX
8
CUT
10
51.641
20
9.02
0
VERTEX
8
CUT
10
51.641
20
4.02
0
VERTEX
8
CUT
10
55.1051
20
2.02
0
SEQEND
0
LINE
8
CUT
10
8.866
20
1.78
11
11.9491
21
0
0
LINE
8
CUT
10
19.5263
20
1.78
11
22.6093
21
0
0
LINE
8
CUT
10
17.7942
20
1.78
11
14.7112
21
0
0
LINE
8
CUT
10
30.1865
20
1.78
11
33.2696
21
0
0
LINE
8
CUT
10
28.4545
20
1.78
11
25.3714
21
0
0
LINE
8
CUT
10
40.8468
20
1.78
11
43.9298
21
0
0
LINE
8
CUT
10
39.1147
20
1.78
11
36.0317
21
0
0
LINE
8
CUT
10
51.507
20
1.78
11
54.5901
21
0
0
LINE
8
CUT
10
49.775
20
1.78
11
46.6919
21
0
0
LINE
8
CUT
10
60.4352
20
1.78
11
57.3522
21
0
0
LINE
8
CUT
10
2.5
20
0
11
2.5
21
3
0
LINE
8
CUT
10
5
20
0
11
5
21
3
0
LINE
8
CUT
10
7.5
20
0
11
7.5
21
3
0
LINE
8
CUT
10
10
20
0
11
10
21
3
0
LINE
8
CUT
10
12.5
20
0
11
12.5
21
3
0
ENDSEC
0
EOF
