0
SECTION
2
HEADER
9
$ACADVER
1
AC1009
9
$INSUNITS
70
4
0
ENDSEC
0
SECTION
2
TABLES
0
TABLE
2
LAYER
70
1
0
LAYER
2
CUT
70
0
62
1
6
CONTINUOUS
0
ENDTAB
0
ENDSEC
0
SECTION
2
ENTITIES
0
POLYLINE
8
CUT
66
1
70
0
0
VERTEX
8
CUT
10
0
20
174
0
VERTEX
8
CUT
10
70
20
174
0
VERTEX
8
CUT
10
70
20
144
0
VERTEX
8
CUT
10
0
20
144
0
VERTEX
8
CUT
10
0
20
174
0
SEQEND
0
LINE
8
CUT
10
8
20
159.0115
11
14.9608
21
159.0115
0
LINE
8
CUT
10
15.4608
20
159.8776
11
8.5
21
171.934
0
POLYLINE
8
CUT
66
1
70
0
0
VERTEX
8
CUT
10
9
20
159.6115
0
VERTEX
8
CUT
10
14.9215
20
159.6115
0
VERTEX
8
CUT
10
11.9608
20
164.7397
0
SEQEND
0
POLYLINE
8
CUT
66
1
70
0
0
VERTEX
8
CUT
10
10.9608
20
166.4718
0
VERTEX
8
CUT
10
8
20
171.6
0
VERTEX
8
CUT
10
8
20
171.6
0
SEQEND
0
LINE
8
CUT
10
8
20
160.2115
11
12.8823
21
160.2115
0
LINE
8
CUT
10
13.3823
20
161.0776
11
8.5
21
169.534
0
POLYLINE
8
CUT
66
1
70
0
0
VERTEX
8
CUT
10
9
20
160.8115
0
VERTEX
8
CUT
10
12.8431
20
160.8115
0
VERTEX
8
CUT
10
10.9215
20
164.1397
0
SEQEND
0
POLYLINE
8
CUT
66
1
70
0
0
VERTEX
8
CUT
10
9.9215
20
165.8718
0
VERTEX
8
CUT
10
8
20
169.2
0
VERTEX
8
CUT
10
8
20
169.2
0
SEQEND
0
LINE
8
CUT
10
8
20
161.4115
11
10.8038
21
161.4115
0
LINE
8
CUT
10
11.3038
20
162.2776
11
8.5
21
167.134
0
POLYLINE
8
CUT
66
1
70
0
0
VERTEX
8
CUT
10
9
20
162.0115
0
VERTEX
8
CUT
10
10.7646
20
162.0115
0
VERTEX
8
CUT
10
9.8823
20
163.5397
0
SEQEND
0
POLYLINE
8
CUT
66
1
70
0
0
VERTEX
8
CUT
10
8.8823
20
165.2718
0
VERTEX
8
CUT
10
8
20
166.8
0
VERTEX
8
CUT
10
8
20
166.8
0
SEQEND
0
LINE
8
CUT
10
10.0392
20
173.4
11
23.9608
21
173.4
0
LINE
8
CUT
10
24.4608
20
172.534
11
17.5
21
160.4776
0
LINE
8
CUT
10
16.5
20
160.4776
11
9.5392
21
172.534
0
POLYLINE
8
CUT
66
1
70
0
0
VERTEX
8
CUT
10
13.0392
20
167.6718
0
VERTEX
8
CUT
10
10.0785
20
172.8
0
VERTEX
8
CUT
10
16
20
172.8
0
SEQEND
0
POLYLINE
8
CUT
66
1
70
0
0
VERTEX
8
CUT
10
18
20
172.8
0
VERTEX
8
CUT
10
23.9215
20
172.8
0
VERTEX
8
CUT
10
20.9608
20
167.6718
0
SEQEND
0
POLYLINE
8
CUT
66
1
70
0
0
VERTEX
8
CUT
10
19.9608
20
165.9397
0
VERTEX
8
CUT
10
17
20
160.8115
0
VERTEX
8
CUT
10
14.0392
20
165.9397
0
SEQEND
0
LINE
8
CUT
10
12.1177
20
172.2
11
21.8823
21
172.2
0
LINE
8
CUT
10
22.3823
20
171.334
11
17.5
21
162.8776
0
LINE
8
CUT
10
16.5
20
162.8776
11
11.6177
21
171.334
0
POLYLINE
8
CUT
66
1
70
0
0
VERTEX
8
CUT
10
14.0785
20
168.2718
0
VERTEX
8
CUT
10
12.1569
20
171.6
0
VERTEX
8
CUT
10
16
20
171.6
0
SEQEND
0
POLYLINE
8
CUT
66
1
70
0
0
VERTEX
8
CUT
10
18
20
171.6
0
VERTEX
8
CUT
10
21.8431
20
171.6
0
VERTEX
8
CUT
10
19.9215
20
168.2718
0
SEQEND
0
POLYLINE
8
CUT
66
1
70
0
0
VERTEX
8
CUT
10
18.9215
20
166.5397
0
VERTEX
8
CUT
10
17
20
163.2115
0
VERTEX
8
CUT
10
15.0785
20
166.5397
0
SEQEND
0
LINE
8
CUT
10
14.1962
20
171
11
19.8038
21
171
0
LINE
8
CUT
10
20.3038
20
170.134
11
17.5
21
165.2776
0
LINE
8
CUT
10
16.5
20
165.2776
11
13.6962
21
170.134
0
POLYLINE
8
CUT
66
1
70
0
0
VERTEX
8
CUT
10
15.1177
20
168.8718
0
VERTEX
8
CUT
10
14.2354
20
170.4
0
VERTEX
8
CUT
10
16
20
170.4
0
SEQEND
0
POLYLINE
8
CUT
66
1
70
0
0
VERTEX
8
CUT
10
18
20
170.4
0
VERTEX
8
CUT
10
19.7646
20
170.4
0
VERTEX
8
CUT
10
18.8823
20
168.8718
0
SEQEND
0
POLYLINE
8
CUT
66
1
70
0
0
VERTEX
8
CUT
10
17.8823
20
167.1397
0
VERTEX
8
CUT
10
17
20
165.6115
0
VERTEX
8
CUT
10
16.1177
20
167.1397
0
SEQEND
0
LINE
8
CUT
10
19.0392
20
159.0115
11
32.9608
21
159.0115
0
LINE
8
CUT
10
33.4608
20
159.8776
11
26.5
21
171.934
0
LINE
8
CUT
10
25.5
20
171.934
11
18.5392
21
159.8776
0
POLYLINE
8
CUT
66
1
70
0
0
VERTEX
8
CUT
10
22.0392
20
164.7397
0
VERTEX
8
CUT
10
19.0785
20
159.6115
0
VERTEX
8
CUT
10
25
20
159.6115
0
SEQEND
0
POLYLINE
8
CUT
66
1
70
0
0
VERTEX
8
CUT
10
27
20
159.6115
0
VERTEX
8
CUT
10
32.9215
20
159.6115
0
VERTEX
8
CUT
10
29.9608
20
164.7397
0
SEQEND
0
POLYLINE
8
CUT
66
1
70
0
0
VERTEX
8
CUT
10
28.9608
20
166.4718
0
VERTEX
8
CUT
10
26
20
171.6
0
VERTEX
8
CUT
10
23.0392
20
166.4718
0
SEQEND
0
LINE
8
CUT
10
21.1177
20
160.2115
11
30.8823
21
160.2115
0
LINE
8
CUT
10
31.3823
20
161.0776
11
26.5
21
169.534
0
LINE
8
CUT
10
25.5
20
169.534
11
20.6177
21
161.0776
0
POLYLINE
8
CUT
66
1
70
0
0
VERTEX
8
CUT
10
23.0785
20
164.1397
0
VERTEX
8
CUT
10
21.1569
20
160.8115
0
VERTEX
8
CUT
10
25
20
160.8115
0
SEQEND
0
POLYLINE
8
CUT
66
1
70
0
0
VERTEX
8
CUT
10
27
20
160.8115
0
VERTEX
8
CUT
10
30.8431
20
160.8115
0
VERTEX
8
CUT
10
28.9215
20
164.1397
0
SEQEND
0
POLYLINE
8
CUT
66
1
70
0
0
VERTEX
8
CUT
10
27.9215
20
165.8718
0
VERTEX
8
CUT
10
26
20
169.2
0
VERTEX
8
CUT
10
24.0785
20
165.8718
0
SEQEND
0
LINE
8
CUT
10
23.1962
20
161.4115
11
28.8038
21
161.4115
0
LINE
8
CUT
10
29.3038
20
162.2776
11
26.5
21
167.134
0
LINE
8
CUT
10
25.5
20
167.134
11
22.6962
21
162.2776
0
POLYLINE
8
CUT
66
1
70
0
0
VERTEX
8
CUT
10
24.1177
20
163.5397
0
VERTEX
8
CUT
10
23.2354
20
162.0115
0
VERTEX
8
CUT
10
25
20
162.0115
0
SEQEND
0
POLYLINE
8
CUT
66
1
70
0
0
VERTEX
8
CUT
10
27
20
162.0115
0
VERTEX
8
CUT
10
28.7646
20
162.0115
0
VERTEX
8
CUT
10
27.8823
20
163.5397
0
SEQEND
0
POLYLINE
8
CUT
66
1
70
0
0
VERTEX
8
CUT
10
26.8823
20
165.2718
0
VERTEX
8
CUT
10
26
20
166.8
0
VERTEX
8
CUT
10
25.1177
20
165.2718
0
SEQEND
0
LINE
8
CUT
10
28.0392
20
173.4
11
41.9608
21
173.4
0
LINE
8
CUT
10
42.4608
20
172.534
11
35.5
21
160.4776
0
LINE
8
CUT
10
34.5
20
160.4776
11
27.5392
21
172.534
0
POLYLINE
8
CUT
66
1
70
0
0
VERTEX
8
CUT
10
31.0392
20
167.6718
0
VERTEX
8
CUT
10
28.0785
20
172.8
0
VERTEX
8
CUT
10
34
20
172.8
0
SEQEND
0
POLYLINE
8
CUT
66
1
70
0
0
VERTEX
8
CUT
10
36
20
172.8
0
VERTEX
8
CUT
10
41.9215
20
172.8
0
VERTEX
8
CUT
10
38.9608
20
167.6718
0
SEQEND
0
POLYLINE
8
CUT
66
1
70
0
0
VERTEX
8
CUT
10
37.9608
20
165.9397
0
VERTEX
8
CUT
10
35
20
160.8115
0
VERTEX
8
CUT
10
32.0392
20
165.9397
0
SEQEND
0
LINE
8
CUT
10
30.1177
20
172.2
11
39.8823
21
172.2
0
LINE
8
CUT
10
40.3823
20
171.334
11
35.5
21
162.8776
0
LINE
8
CUT
10
34.5
20
162.8776
11
29.6177
21
171.334
0
POLYLINE
8
CUT
66
1
70
0
0
VERTEX
8
CUT
10
32.0785
20
168.2718
0
VERTEX
8
CUT
10
30.1569
20
171.6
0
VERTEX
8
CUT
10
34
20
171.6
0
SEQEND
0
POLYLINE
8
CUT
66
1
70
0
0
VERTEX
8
CUT
10
36
20
171.6
0
VERTEX
8
CUT
10
39.8431
20
171.6
0
VERTEX
8
CUT
10
37.9215
20
168.2718
0
SEQEND
0
POLYLINE
8
CUT
66
1
70
0
0
VERTEX
8
CUT
10
36.9215
20
166.5397
0
VERTEX
8
CUT
10
35
20
163.2115
0
VERTEX
8
CUT
10
33.0785
20
166.5397
0
SEQEND
0
LINE
8
CUT
10
32.1962
20
171
11
37.8038
21
171
0
LINE
8
CUT
10
38.3038
20
170.134
11
35.5
21
165.2776
0
LINE
8
CUT
10
34.5
20
165.2776
11
31.6962
21
170.134
0
POLYLINE
8
CUT
66
1
70
0
0
VERTEX
8
CUT
10
33.1177
20
168.8718
0
VERTEX
8
CUT
10
32.2354
20
170.4
0
VERTEX
8
CUT
10
34
20
170.4
0
SEQEND
0
POLYLINE
8
CUT
66
1
70
0
0
VERTEX
8
CUT
10
36
20
170.4
0
VERTEX
8
CUT
10
37.7646
20
170.4
0
VERTEX
8
CUT
10
36.8823
20
168.8718
0
SEQEND
0
POLYLINE
8
CUT
66
1
70
0
0
VERTEX
8
CUT
10
35.8823
20
167.1397
0
VERTEX
8
CUT
10
35
20
165.6115
0
VERTEX
8
CUT
10
34.1177
20
167.1397
0
SEQEND
0
LINE
8
CUT
10
37.0392
20
159.0115
11
50.9608
21
159.0115
0
LINE
8
CUT
10
51.4608
20
159.8776
11
44.5
21
171.934
0
LINE
8
CUT
10
43.5
20
171.934
11
36.5392
21
159.8776
0
POLYLINE
8
CUT
66
1
70
0
0
VERTEX
8
CUT
10
40.0392
20
164.7397
0
VERTEX
8
CUT
10
37.0785
20
159.6115
0
VERTEX
8
CUT
10
43
20
159.6115
0
SEQEND
0
POLYLINE
8
CUT
66
1
70
0
0
VERTEX
8
CUT
10
45
20
159.6115
0
VERTEX
8
CUT
10
50.9215
20
159.6115
0
VERTEX
8
CUT
10
47.9608
20
164.7397
0
SEQEND
0
POLYLINE
8
CUT
66
1
70
0
0
VERTEX
8
CUT
10
46.9608
20
166.4718
0
VERTEX
8
CUT
10
44
20
171.6
0
VERTEX
8
CUT
10
41.0392
20
166.4718
0
SEQEND
0
LINE
8
CUT
10
39.1177
20
160.2115
11
48.8823
21
160.2115
0
LINE
8
CUT
10
49.3823
20
161.0776
11
44.5
21
169.534
0
LINE
8
CUT
10
43.5
20
169.534
11
38.6177
21
161.0776
0
POLYLINE
8
CUT
66
1
70
0
0
VERTEX
8
CUT
10
41.0785
20
164.1397
0
VERTEX
8
CUT
10
39.1569
20
160.8115
0
VERTEX
8
CUT
10
43
20
160.8115
0
SEQEND
0
POLYLINE
8
CUT
66
1
70
0
0
VERTEX
8
CUT
10
45
20
160.8115
0
VERTEX
8
CUT
10
48.8431
20
160.8115
0
VERTEX
8
CUT
10
46.9215
20
164.1397
0
SEQEND
0
POLYLINE
8
CUT
66
1
70
0
0
VERTEX
8
CUT
10
45.9215
20
165.8718
0
VERTEX
8
CUT
10
44
20
169.2
0
VERTEX
8
CUT
10
42.0785
20
165.8718
0
SEQEND
0
LINE
8
CUT
10
41.1962
20
161.4115
11
46.8038
21
161.4115
0
LINE
8
CUT
10
47.3038
20
162.2776
11
44.5
21
167.134
0
LINE
8
CUT
10
43.5
20
167.134
11
40.6962
21
162.2776
0
POLYLINE
8
CUT
66
1
70
0
0
VERTEX
8
CUT
10
42.1177
20
163.5397
0
VERTEX
8
CUT
10
41.2354
20
162.0115
0
VERTEX
8
CUT
10
43
20
162.0115
0
SEQEND
0
POLYLINE
8
CUT
66
1
70
0
0
VERTEX
8
CUT
10
45
20
162.0115
0
VERTEX
8
CUT
10
46.7646
20
162.0115
0
VERTEX
8
CUT
10
45.8823
20
163.5397
0
SEQEND
0
POLYLINE
8
CUT
66
1
70
0
0
VERTEX
8
CUT
10
44.8823
20
165.2718
0
VERTEX
8
CUT
10
44
20
166.8
0
VERTEX
8
CUT
10
43.1177
20
165.2718
0
SEQEND
0
LINE
8
CUT
10
46.0392
20
173.4
11
59.9608
21
173.4
0
LINE
8
CUT
10
60.4608
20
172.534
11
53.5
21
160.4776
0
LINE
8
CUT
10
52.5
20
160.4776
11
45.5392
21
172.534
0
POLYLINE
8
CUT
66
1
70
0
0
VERTEX
8
CUT
10
49.0392
20
167.6718
0
VERTEX
8
CUT
10
46.0785
20
172.8
0
VERTEX
8
CUT
10
52
20
172.8
0
SEQEND
0
POLYLINE
8
CUT
66
1
70
0
0
VERTEX
8
CUT
10
54
20
172.8
0
VERTEX
8
CUT
10
59.9215
20
172.8
0
VERTEX
8
CUT
10
56.9608
20
167.6718
0
SEQEND
0
POLYLINE
8
CUT
66
1
70
0
0
VERTEX
8
CUT
10
55.9608
20
165.9397
0
VERTEX
8
CUT
10
53
20
160.8115
0
VERTEX
8
CUT
10
50.0392
20
165.9397
0
SEQEND
0
LINE
8
CUT
10
48.1177
20
172.2
11
57.8823
21
172.2
0
LINE
8
CUT
10
58.3823
20
171.334
11
53.5
21
162.8776
0
LINE
8
CUT
10
52.5
20
162.8776
11
47.6177
21
171.334
0
POLYLINE
8
CUT
66
1
70
0
0
VERTEX
8
CUT
10
50.0785
20
168.2718
0
VERTEX
8
CUT
10
48.1569
20
171.6
0
VERTEX
8
CUT
10
52
20
171.6
0
SEQEND
0
POLYLINE
8
CUT
66
1
70
0
0
VERTEX
8
CUT
10
54
20
171.6
0
VERTEX
8
CUT
10
57.8431
20
171.6
0
VERTEX
8
CUT
10
55.9215
20
168.2718
0
SEQEND
0
POLYLINE
8
CUT
66
1
70
0
0
VERTEX
8
CUT
10
54.9215
20
166.5397
0
VERTEX
8
CUT
10
53
20
163.2115
0
VERTEX
8
CUT
10
51.0785
20
166.5397
0
SEQEND
0
LINE
8
CUT
10
50.1962
20
171
11
55.8038
21
171
0
LINE
8
CUT
10
56.3038
20
170.134
11
53.5
21
165.2776
0
LINE
8
CUT
10
52.5
20
165.2776
11
49.6962
21
170.134
0
POLYLINE
8
CUT
66
1
70
0
0
VERTEX
8
CUT
10
51.1177
20
168.8718
0
VERTEX
8
CUT
10
50.2354
20
170.4
0
VERTEX
8
CUT
10
52
20
170.4
0
SEQEND
0
POLYLINE
8
CUT
66
1
70
0
0
VERTEX
8
CUT
10
54
20
170.4
0
VERTEX
8
CUT
10
55.7646
20
170.4
0
VERTEX
8
CUT
10
54.8823
20
168.8718
0
SEQEND
0
POLYLINE
8
CUT
66
1
70
0
0
VERTEX
8
CUT
10
53.8823
20
167.1397
0
VERTEX
8
CUT
10
53
20
165.6115
0
VERTEX
8
CUT
10
52.1177
20
167.1397
0
SEQEND
0
LINE
8
CUT
10
55.0392
20
159.0115
11
62
21
159.0115
0
LINE
8
CUT
10
61.5
20
171.934
11
54.5392
21
159.8776
0
POLYLINE
8
CUT
66
1
70
0
0
VERTEX
8
CUT
10
58.0392
20
164.7397
0
VERTEX
8
CUT
10
55.0785
20
159.6115
0
VERTEX
8
CUT
10
61
20
159.6115
0
SEQEND
0
POLYLINE
8
CUT
66
1
70
0
0
VERTEX
8
CUT
10
62
20
171.6
0
VERTEX
8
CUT
10
62
20
171.6
0
VERTEX
8
CUT
10
59.0392
20
166.4718
0
SEQEND
0
LINE
8
CUT
10
57.1177
20
160.2115
11
62
21
160.2115
0
LINE
8
CUT
10
61.5
20
169.534
11
56.6177
21
161.0776
0
POLYLINE
8
CUT
66
1
70
0
0
VERTEX
8
CUT
10
59.0785
20
164.1397
0
VERTEX
8
CUT
10
57.1569
20
160.8115
0
VERTEX
8
CUT
10
61
20
160.8115
0
SEQEND
0
POLYLINE
8
CUT
66
1
70
0
0
VERTEX
8
CUT
10
62
20
169.2
0
VERTEX
8
CUT
10
62
20
169.2
0
VERTEX
8
CUT
10
60.0785
20
165.8718
0
SEQEND
0
LINE
8
CUT
10
59.1962
20
161.4115
11
62
21
161.4115
0
LINE
8
CUT
10
61.5
20
167.134
11
58.6962
21
162.2776
0
POLYLINE
8
CUT
66
1
70
0
0
VERTEX
8
CUT
10
60.1177
20
163.5397
0
VERTEX
8
CUT
10
59.2354
20
162.0115
0
VERTEX
8
CUT
10
61
20
162.0115
0
SEQEND
0
POLYLINE
8
CUT
66
1
70
0
0
VERTEX
8
CUT
10
62
20
166.8
0
VERTEX
8
CUT
10
62
20
166.8
0
VERTEX
8
CUT
10
61.1177
20
165.2718
0
SEQEND
0
LINE
8
CUT
10
8
20
157.8115
11
14.9608
21
157.8115
0
LINE
8
CUT
10
15.4608
20
156.9455
11
8.5
21
144.8891
0
POLYLINE
8
CUT
66
1
70
0
0
VERTEX
8
CUT
10
9
20
157.2115
0
VERTEX
8
CUT
10
14.9215
20
157.2115
0
VERTEX
8
CUT
10
11.9608
20
152.0833
0
SEQEND
0
POLYLINE
8
CUT
66
1
70
0
0
VERTEX
8
CUT
10
10.9608
20
150.3513
0
VERTEX
8
CUT
10
8
20
145.2231
0
VERTEX
8
CUT
10
8
20
145.2231
0
SEQEND
0
LINE
8
CUT
10
8
20
156.6115
11
12.8823
21
156.6115
0
LINE
8
CUT
10
13.3823
20
155.7455
11
8.5
21
147.2891
0
POLYLINE
8
CUT
66
1
70
0
0
VERTEX
8
CUT
10
9
20
156.0115
0
VERTEX
8
CUT
10
12.8431
20
156.0115
0
VERTEX
8
CUT
10
10.9215
20
152.6833
0
SEQEND
0
POLYLINE
8
CUT
66
1
70
0
0
VERTEX
8
CUT
10
9.9215
20
150.9513
0
VERTEX
8
CUT
10
8
20
147.6231
0
VERTEX
8
CUT
10
8
20
147.6231
0
SEQEND
0
LINE
8
CUT
10
8
20
155.4115
11
10.8038
21
155.4115
0
LINE
8
CUT
10
11.3038
20
154.5455
11
8.5
21
149.6891
0
POLYLINE
8
CUT
66
1
70
0
0
VERTEX
8
CUT
10
9
20
154.8115
0
VERTEX
8
CUT
10
10.7646
20
154.8115
0
VERTEX
8
CUT
10
9.8823
20
153.2833
0
SEQEND
0
POLYLINE
8
CUT
66
1
70
0
0
VERTEX
8
CUT
10
8.8823
20
151.5513
0
VERTEX
8
CUT
10
8
20
150.0231
0
VERTEX
8
CUT
10
8
20
150.0231
0
SEQEND
0
LINE
8
CUT
10
24.4608
20
144.2891
11
17.5
21
156.3455
0
LINE
8
CUT
10
16.5
20
156.3455
11
9.5392
21
144.2891
0
POLYLINE
8
CUT
66
1
70
0
0
VERTEX
8
CUT
10
13.0392
20
149.1513
0
VERTEX
8
CUT
10
10.0785
20
144.0231
0
VERTEX
8
CUT
10
16
20
144.0231
0
SEQEND
0
POLYLINE
8
CUT
66
1
70
0
0
VERTEX
8
CUT
10
18
20
144.0231
0
VERTEX
8
CUT
10
23.9215
20
144.0231
0
VERTEX
8
CUT
10
20.9608
20
149.1513
0
SEQEND
0
POLYLINE
8
CUT
66
1
70
0
0
VERTEX
8
CUT
10
19.9608
20
150.8833
0
VERTEX
8
CUT
10
17
20
156.0115
0
VERTEX
8
CUT
10
14.0392
20
150.8833
0
SEQEND
0
LINE
8
CUT
10
12.1177
20
144.6231
11
21.8823
21
144.6231
0
LINE
8
CUT
10
22.3823
20
145.4891
11
17.5
21
153.9455
0
LINE
8
CUT
10
16.5
20
153.9455
11
11.6177
21
145.4891
0
POLYLINE
8
CUT
66
1
70
0
0
VERTEX
8
CUT
10
14.0785
20
148.5513
0
VERTEX
8
CUT
10
12.1569
20
145.2231
0
VERTEX
8
CUT
10
16
20
145.2231
0
SEQEND
0
POLYLINE
8
CUT
66
1
70
0
0
VERTEX
8
CUT
10
18
20
145.2231
0
VERTEX
8
CUT
10
21.8431
20
145.2231
0
VERTEX
8
CUT
10
19.9215
20
148.5513
0
SEQEND
0
POLYLINE
8
CUT
66
1
70
0
0
VERTEX
8
CUT
10
18.9215
20
150.2833
0
VERTEX
8
CUT
10
17
20
153.6115
0
VERTEX
8
CUT
10
15.0785
20
150.2833
0
SEQEND
0
LINE
8
CUT
10
14.1962
20
145.8231
11
19.8038
21
145.8231
0
LINE
8
CUT
10
20.3038
20
146.6891
11
17.5
21
151.5455
0
LINE
8
CUT
10
16.5
20
151.5455
11
13.6962
21
146.6891
0
POLYLINE
8
CUT
66
1
70
0
0
VERTEX
8
CUT
10
15.1177
20
147.9513
0
VERTEX
8
CUT
10
14.2354
20
146.4231
0
VERTEX
8
CUT
10
16
20
146.4231
0
SEQEND
0
POLYLINE
8
CUT
66
1
70
0
0
VERTEX
8
CUT
10
18
20
146.4231
0
VERTEX
8
CUT
10
19.7646
20
146.4231
0
VERTEX
8
CUT
10
18.8823
20
147.9513
0
SEQEND
0
POLYLINE
8
CUT
66
1
70
0
0
VERTEX
8
CUT
10
17.8823
20
149.6833
0
VERTEX
8
CUT
10
17
20
151.2115
0
VERTEX
8
CUT
10
16.1177
20
149.6833
0
SEQEND
0
LINE
8
CUT
10
19.0392
20
157.8115
11
32.9608
21
157.8115
0
LINE
8
CUT
10
33.4608
20
156.9455
11
26.5
21
144.8891
0
LINE
8
CUT
10
25.5
20
144.8891
11
18.5392
21
156.9455
0
POLYLINE
8
CUT
66
1
70
0
0
VERTEX
8
CUT
10
22.0392
20
152.0833
0
VERTEX
8
CUT
10
19.0785
20
157.2115
0
VERTEX
8
CUT
10
25
20
157.2115
0
SEQEND
0
POLYLINE
8
CUT
66
1
70
0
0
VERTEX
8
CUT
10
27
20
157.2115
0
VERTEX
8
CUT
10
32.9215
20
157.2115
0
VERTEX
8
CUT
10
29.9608
20
152.0833
0
SEQEND
0
POLYLINE
8
CUT
66
1
70
0
0
VERTEX
8
CUT
10
28.9608
20
150.3513
0
VERTEX
8
CUT
10
26
20
145.2231
0
VERTEX
8
CUT
10
23.0392
20
150.3513
0
SEQEND
0
LINE
8
CUT
10
21.1177
20
156.6115
11
30.8823
21
156.6115
0
LINE
8
CUT
10
31.3823
20
155.7455
11
26.5
21
147.2891
0
LINE
8
CUT
10
25.5
20
147.2891
11
20.6177
21
155.7455
0
POLYLINE
8
CUT
66
1
70
0
0
VERTEX
8
CUT
10
23.0785
20
152.6833
0
VERTEX
8
CUT
10
21.1569
20
156.0115
0
VERTEX
8
CUT
10
25
20
156.0115
0
SEQEND
0
POLYLINE
8
CUT
66
1
70
0
0
VERTEX
8
CUT
10
27
20
156.0115
0
VERTEX
8
CUT
10
30.8431
20
156.0115
0
VERTEX
8
CUT
10
28.9215
20
152.6833
0
SEQEND
0
POLYLINE
8
CUT
66
1
70
0
0
VERTEX
8
CUT
10
27.9215
20
150.9513
0
VERTEX
8
CUT
10
26
20
147.6231
0
VERTEX
8
CUT
10
24.0785
20
150.9513
0
SEQEND
0
LINE
8
CUT
10
23.1962
20
155.4115
11
28.8038
21
155.4115
0
LINE
8
CUT
10
29.3038
20
154.5455
11
26.5
21
149.6891
0
LINE
8
CUT
10
25.5
20
149.6891
11
22.6962
21
154.5455
0
POLYLINE
8
CUT
66
1
70
0
0
VERTEX
8
CUT
10
24.1177
20
153.2833
0
VERTEX
8
CUT
10
23.2354
20
154.8115
0
VERTEX
8
CUT
10
25
20
154.8115
0
SEQEND
0
POLYLINE
8
CUT
66
1
70
0
0
VERTEX
8
CUT
10
27
20
154.8115
0
VERTEX
8
CUT
10
28.7646
20
154.8115
0
VERTEX
8
CUT
10
27.8823
20
153.2833
0
SEQEND
0
POLYLINE
8
CUT
66
1
70
0
0
VERTEX
8
CUT
10
26.8823
20
151.5513
0
VERTEX
8
CUT
10
26
20
150.0231
0
VERTEX
8
CUT
10
25.1177
20
151.5513
0
SEQEND
0
LINE
8
CUT
10
42.4608
20
144.2891
11
35.5
21
156.3455
0
LINE
8
CUT
10
34.5
20
156.3455
11
27.5392
21
144.2891
0
POLYLINE
8
CUT
66
1
70
0
0
VERTEX
8
CUT
10
31.0392
20
149.1513
0
VERTEX
8
CUT
10
28.0785
20
144.0231
0
VERTEX
8
CUT
10
34
20
144.0231
0
SEQEND
0
POLYLINE
8
CUT
66
1
70
0
0
VERTEX
8
CUT
10
36
20
144.0231
0
VERTEX
8
CUT
10
41.9215
20
144.0231
0
VERTEX
8
CUT
10
38.9608
20
149.1513
0
SEQEND
0
POLYLINE
8
CUT
66
1
70
0
0
VERTEX
8
CUT
10
37.9608
20
150.8833
0
VERTEX
8
CUT
10
35
20
156.0115
0
VERTEX
8
CUT
10
32.0392
20
150.8833
0
SEQEND
0
LINE
8
CUT
10
30.1177
20
144.6231
11
39.8823
21
144.6231
0
LINE
8
CUT
10
40.3823
20
145.4891
11
35.5
21
153.9455
0
LINE
8
CUT
10
34.5
20
153.9455
11
29.6177
21
145.4891
0
POLYLINE
8
CUT
66
1
70
0
0
VERTEX
8
CUT
10
32.0785
20
148.5513
0
VERTEX
8
CUT
10
30.1569
20
145.2231
0
VERTEX
8
CUT
10
34
20
145.2231
0
SEQEND
0
POLYLINE
8
CUT
66
1
70
0
0
VERTEX
8
CUT
10
36
20
145.2231
0
VERTEX
8
CUT
10
39.8431
20
145.2231
0
VERTEX
8
CUT
10
37.9215
20
148.5513
0
SEQEND
0
POLYLINE
8
CUT
66
1
70
0
0
VERTEX
8
CUT
10
36.9215
20
150.2833
0
VERTEX
8
CUT
10
35
20
153.6115
0
VERTEX
8
CUT
10
33.0785
20
150.2833
0
SEQEND
0
LINE
8
CUT
10
32.1962
20
145.8231
11
37.8038
21
145.8231
0
LINE
8
CUT
10
38.3038
20
146.6891
11
35.5
21
151.5455
0
LINE
8
CUT
10
34.5
20
151.5455
11
31.6962
21
146.6891
0
POLYLINE
8
CUT
66
1
70
0
0
VERTEX
8
CUT
10
33.1177
20
147.9513
0
VERTEX
8
CUT
10
32.2354
20
146.4231
0
VERTEX
8
CUT
10
34
20
146.4231
0
SEQEND
0
POLYLINE
8
CUT
66
1
70
0
0
VERTEX
8
CUT
10
36
20
146.4231
0
VERTEX
8
CUT
10
37.7646
20
146.4231
0
VERTEX
8
CUT
10
36.8823
20
147.9513
0
SEQEND
0
POLYLINE
8
CUT
66
1
70
0
0
VERTEX
8
CUT
10
35.8823
20
149.6833
0
VERTEX
8
CUT
10
35
20
151.2115
0
VERTEX
8
CUT
10
34.1177
20
149.6833
0
SEQEND
0
LINE
8
CUT
10
37.0392
20
157.8115
11
50.9608
21
157.8115
0
LINE
8
CUT
10
51.4608
20
156.9455
11
44.5
21
144.8891
0
LINE
8
CUT
10
43.5
20
144.8891
11
36.5392
21
156.9455
0
POLYLINE
8
CUT
66
1
70
0
0
VERTEX
8
CUT
10
40.0392
20
152.0833
0
VERTEX
8
CUT
10
37.0785
20
157.2115
0
VERTEX
8
CUT
10
43
20
157.2115
0
SEQEND
0
POLYLINE
8
CUT
66
1
70
0
0
VERTEX
8
CUT
10
45
20
157.2115
0
VERTEX
8
CUT
10
50.9215
20
157.2115
0
VERTEX
8
CUT
10
47.9608
20
152.0833
0
SEQEND
0
POLYLINE
8
CUT
66
1
70
0
0
VERTEX
8
CUT
10
46.9608
20
150.3513
0
VERTEX
8
CUT
10
44
20
145.2231
0
VERTEX
8
CUT
10
41.0392
20
150.3513
0
SEQEND
0
LINE
8
CUT
10
39.1177
20
156.6115
11
48.8823
21
156.6115
0
LINE
8
CUT
10
49.3823
20
155.7455
11
44.5
21
147.2891
0
LINE
8
CUT
10
43.5
20
147.2891
11
38.6177
21
155.7455
0
POLYLINE
8
CUT
66
1
70
0
0
VERTEX
8
CUT
10
41.0785
20
152.6833
0
VERTEX
8
CUT
10
39.1569
20
156.0115
0
VERTEX
8
CUT
10
43
20
156.0115
0
SEQEND
0
POLYLINE
8
CUT
66
1
70
0
0
VERTEX
8
CUT
10
45
20
156.0115
0
VERTEX
8
CUT
10
48.8431
20
156.0115
0
VERTEX
8
CUT
10
46.9215
20
152.6833
0
SEQEND
0
POLYLINE
8
CUT
66
1
70
0
0
VERTEX
8
CUT
10
45.9215
20
150.9513
0
VERTEX
8
CUT
10
44
20
147.6231
0
VERTEX
8
CUT
10
42.0785
20
150.9513
0
SEQEND
0
LINE
8
CUT
10
41.1962
20
155.4115
11
46.8038
21
155.4115
0
LINE
8
CUT
10
47.3038
20
154.5455
11
44.5
21
149.6891
0
LINE
8
CUT
10
43.5
20
149.6891
11
40.6962
21
154.5455
0
POLYLINE
8
CUT
66
1
70
0
0
VERTEX
8
CUT
10
42.1177
20
153.2833
0
VERTEX
8
CUT
10
41.2354
20
154.8115
0
VERTEX
8
CUT
10
43
20
154.8115
0
SEQEND
0
POLYLINE
8
CUT
66
1
70
0
0
VERTEX
8
CUT
10
45
20
154.8115
0
VERTEX
8
CUT
10
46.7646
20
154.8115
0
VERTEX
8
CUT
10
45.8823
20
153.2833
0
SEQEND
0
POLYLINE
8
CUT
66
1
70
0
0
VERTEX
8
CUT
10
44.8823
20
151.5513
0
VERTEX
8
CUT
10
44
20
150.0231
0
VERTEX
8
CUT
10
43.1177
20
151.5513
0
SEQEND
0
LINE
8
CUT
10
60.4608
20
144.2891
11
53.5
21
156.3455
0
LINE
8
CUT
10
52.5
20
156.3455
11
45.5392
21
144.2891
0
POLYLINE
8
CUT
66
1
70
0
0
VERTEX
8
CUT
10
49.0392
20
149.1513
0
VERTEX
8
CUT
10
46.0785
20
144.0231
0
VERTEX
8
CUT
10
52
20
144.0231
0
SEQEND
0
POLYLINE
8
CUT
66
1
70
0
0
VERTEX
8
CUT
10
54
20
144.0231
0
VERTEX
8
CUT
10
59.9215
20
144.0231
0
VERTEX
8
CUT
10
56.9608
20
149.1513
0
SEQEND
0
POLYLINE
8
CUT
66
1
70
0
0
VERTEX
8
CUT
10
55.9608
20
150.8833
0
VERTEX
8
CUT
10
53
20
156.0115
0
VERTEX
8
CUT
10
50.0392
20
150.8833
0
SEQEND
0
LINE
8
CUT
10
48.1177
20
144.6231
11
57.8823
21
144.6231
0
LINE
8
CUT
10
58.3823
20
145.4891
11
53.5
21
153.9455
0
LINE
8
CUT
10
52.5
20
153.9455
11
47.6177
21
145.4891
0
POLYLINE
8
CUT
66
1
70
0
0
VERTEX
8
CUT
10
50.0785
20
148.5513
0
VERTEX
8
CUT
10
48.1569
20
145.2231
0
VERTEX
8
CUT
10
52
20
145.2231
0
SEQEND
0
POLYLINE
8
CUT
66
1
70
0
0
VERTEX
8
CUT
10
54
20
145.2231
0
VERTEX
8
CUT
10
57.8431
20
145.2231
0
VERTEX
8
CUT
10
55.9215
20
148.5513
0
SEQEND
0
POLYLINE
8
CUT
66
1
70
0
0
VERTEX
8
CUT
10
54.9215
20
150.2833
0
VERTEX
8
CUT
10
53
20
153.6115
0
VERTEX
8
CUT
10
51.0785
20
150.2833
0
SEQEND
0
LINE
8
CUT
10
50.1962
20
145.8231
11
55.8038
21
145.8231
0
LINE
8
CUT
10
56.3038
20
146.6891
11
53.5
21
151.5455
0
LINE
8
CUT
10
52.5
20
151.5455
11
49.6962
21
146.6891
0
POLYLINE
8
CUT
66
1
70
0
0
VERTEX
8
CUT
10
51.1177
20
147.9513
0
VERTEX
8
CUT
10
50.2354
20
146.4231
0
VERTEX
8
CUT
10
52
20
146.4231
0
SEQEND
0
POLYLINE
8
CUT
66
1
70
0
0
VERTEX
8
CUT
10
54
20
146.4231
0
VERTEX
8
CUT
10
55.7646
20
146.4231
0
VERTEX
8
CUT
10
54.8823
20
147.9513
0
SEQEND
0
POLYLINE
8
CUT
66
1
70
0
0
VERTEX
8
CUT
10
53.8823
20
149.6833
0
VERTEX
8
CUT
10
53
20
151.2115
0
VERTEX
8
CUT
10
52.1177
20
149.6833
0
SEQEND
0
LINE
8
CUT
10
55.0392
20
157.8115
11
62
21
157.8115
0
LINE
8
CUT
10
61.5
20
144.8891
11
54.5392
21
156.9455
0
POLYLINE
8
CUT
66
1
70
0
0
VERTEX
8
CUT
10
58.0392
20
152.0833
0
VERTEX
8
CUT
10
55.0785
20
157.2115
0
VERTEX
8
CUT
10
61
20
157.2115
0
SEQEND
0
POLYLINE
8
CUT
66
1
70
0
0
VERTEX
8
CUT
10
62
20
145.2231
0
VERTEX
8
CUT
10
62
20
145.2231
0
VERTEX
8
CUT
10
59.0392
20
150.3513
0
SEQEND
0
LINE
8
CUT
10
57.1177
20
156.6115
11
62
21
156.6115
0
LINE
8
CUT
10
61.5
20
147.2891
11
56.6177
21
155.7455
0
POLYLINE
8
CUT
66
1
70
0
0
VERTEX
8
CUT
10
59.0785
20
152.6833
0
VERTEX
8
CUT
10
57.1569
20
156.0115
0
VERTEX
8
CUT
10
61
20
156.0115
0
SEQEND
0
POLYLINE
8
CUT
66
1
70
0
0
VERTEX
8
CUT
10
62
20
147.6231
0
VERTEX
8
CUT
10
62
20
147.6231
0
VERTEX
8
CUT
10
60.0785
20
150.9513
0
SEQEND
0
LINE
8
CUT
10
59.1962
20
155.4115
11
62
21
155.4115
0
LINE
8
CUT
10
61.5
20
149.6891
11
58.6962
21
154.5455
0
POLYLINE
8
CUT
66
1
70
0
0
VERTEX
8
CUT
10
60.1177
20
153.2833
0
VERTEX
8
CUT
10
59.2354
20
154.8115
0
VERTEX
8
CUT
10
61
20
154.8115
0
SEQEND
0
POLYLINE
8
CUT
66
1
70
0
0
VERTEX
8
CUT
10
62
20
150.0231
0
VERTEX
8
CUT
10
62
20
150.0231
0
VERTEX
8
CUT
10
61.1177
20
151.5513
0
SEQEND
0
LINE
8
CUT
10
2.5
20
144
11
2.5
21
147
0
POLYLINE
8
CUT
66
1
70
0
0
VERTEX
8
CUT
10
0
20
138
0
VERTEX
8
CUT
10
70
20
138
0
VERTEX
8
CUT
10
70
20
108
0
VERTEX
8
CUT
10
0
20
108
0
VERTEX
8
CUT
10
0
20
138
0
SEQEND
0
LINE
8
CUT
10
8
20
123.2115
11
14.6144
21
123.2115
0
LINE
8
CUT
10
15.1144
20
124.0776
11
8.5
21
135.534
0
POLYLINE
8
CUT
66
1
70
0
0
VERTEX
8
CUT
10
9
20
124.0115
0
VERTEX
8
CUT
10
14.2287
20
124.0115
0
VERTEX
8
CUT
10
11.6144
20
128.5397
0
SEQEND
0
POLYLINE
8
CUT
66
1
70
0
0
VERTEX
8
CUT
10
10.6144
20
130.2718
0
VERTEX
8
CUT
10
8
20
134.8
0
VERTEX
8
CUT
10
8
20
134.8
0
SEQEND
0
LINE
8
CUT
10
8
20
124.8115
11
11.8431
21
124.8115
0
LINE
8
CUT
10
12.3431
20
125.6776
11
8.5
21
132.334
0
POLYLINE
8
CUT
66
1
70
0
0
VERTEX
8
CUT
10
9
20
125.6115
0
VERTEX
8
CUT
10
11.4574
20
125.6115
0
VERTEX
8
CUT
10
10.2287
20
127.7397
0
SEQEND
0
POLYLINE
8
CUT
66
1
70
0
0
VERTEX
8
CUT
10
9.2287
20
129.4718
0
VERTEX
8
CUT
10
8
20
131.6
0
VERTEX
8
CUT
10
8
20
131.6
0
SEQEND
0
LINE
8
CUT
10
8
20
126.4115
11
9.0718
21
126.4115
0
LINE
8
CUT
10
9.5718
20
127.2776
11
8.5
21
129.134
0
LINE
8
CUT
10
10.3856
20
137.2
11
23.6144
21
137.2
0
LINE
8
CUT
10
24.1144
20
136.334
11
17.5
21
124.8776
0
LINE
8
CUT
10
16.5
20
124.8776
11
9.8856
21
136.334
0
POLYLINE
8
CUT
66
1
70
0
0
VERTEX
8
CUT
10
13.3856
20
131.8718
0
VERTEX
8
CUT
10
10.7713
20
136.4
0
VERTEX
8
CUT
10
16
20
136.4
0
SEQEND
0
POLYLINE
8
CUT
66
1
70
0
0
VERTEX
8
CUT
10
18
20
136.4
0
VERTEX
8
CUT
10
23.2287
20
136.4
0
VERTEX
8
CUT
10
20.6144
20
131.8718
0
SEQEND
0
POLYLINE
8
CUT
66
1
70
0
0
VERTEX
8
CUT
10
19.6144
20
130.1397
0
VERTEX
8
CUT
10
17
20
125.6115
0
VERTEX
8
CUT
10
14.3856
20
130.1397
0
SEQEND
0
LINE
8
CUT
10
13.1569
20
135.6
11
20.8431
21
135.6
0
LINE
8
CUT
10
21.3431
20
134.734
11
17.5
21
128.0776
0
LINE
8
CUT
10
16.5
20
128.0776
11
12.6569
21
134.734
0
POLYLINE
8
CUT
66
1
70
0
0
VERTEX
8
CUT
10
14.7713
20
132.6718
0
VERTEX
8
CUT
10
13.5426
20
134.8
0
VERTEX
8
CUT
10
16
20
134.8
0
SEQEND
0
POLYLINE
8
CUT
66
1
70
0
0
VERTEX
8
CUT
10
18
20
134.8
0
VERTEX
8
CUT
10
20.4574
20
134.8
0
VERTEX
8
CUT
10
19.2287
20
132.6718
0
SEQEND
0
POLYLINE
8
CUT
66
1
70
0
0
VERTEX
8
CUT
10
18.2287
20
130.9397
0
VERTEX
8
CUT
10
17
20
128.8115
0
VERTEX
8
CUT
10
15.7713
20
130.9397
0
SEQEND
0
LINE
8
CUT
10
15.9282
20
134
11
18.0718
21
134
0
LINE
8
CUT
10
18.5718
20
133.134
11
17.5
21
131.2776
0
LINE
8
CUT
10
16.5
20
131.2776
11
15.4282
21
133.134
0
LINE
8
CUT
10
19.3856
20
123.2115
11
32.6144
21
123.2115
0
LINE
8
CUT
10
33.1144
20
124.0776
11
26.5
21
135.534
0
LINE
8
CUT
10
25.5
20
135.534
11
18.8856
21
124.0776
0
POLYLINE
8
CUT
66
1
70
0
0
VERTEX
8
CUT
10
22.3856
20
128.5397
0
VERTEX
8
CUT
10
19.7713
20
124.0115
0
VERTEX
8
CUT
10
25
20
124.0115
0
SEQEND
0
POLYLINE
8
CUT
66
1
70
0
0
VERTEX
8
CUT
10
27
20
124.0115
0
VERTEX
8
CUT
10
32.2287
20
124.0115
0
VERTEX
8
CUT
10
29.6144
20
128.5397
0
SEQEND
0
POLYLINE
8
CUT
66
1
70
0
0
VERTEX
8
CUT
10
28.6144
20
130.2718
0
VERTEX
8
CUT
10
26
20
134.8
0
VERTEX
8
CUT
10
23.3856
20
130.2718
0
SEQEND
0
LINE
8
CUT
10
22.1569
20
124.8115
11
29.8431
21
124.8115
0
LINE
8
CUT
10
30.3431
20
125.6776
11
26.5
21
132.334
0
LINE
8
CUT
10
25.5
20
132.334
11
21.6569
21
125.6776
0
POLYLINE
8
CUT
66
1
70
0
0
VERTEX
8
CUT
10
23.7713
20
127.7397
0
VERTEX
8
CUT
10
22.5426
20
125.6115
0
VERTEX
8
CUT
10
25
20
125.6115
0
SEQEND
0
POLYLINE
8
CUT
66
1
70
0
0
VERTEX
8
CUT
10
27
20
125.6115
0
VERTEX
8
CUT
10
29.4574
20
125.6115
0
VERTEX
8
CUT
10
28.2287
20
127.7397
0
SEQEND
0
POLYLINE
8
CUT
66
1
70
0
0
VERTEX
8
CUT
10
27.2287
20
129.4718
0
VERTEX
8
CUT
10
26
20
131.6
0
VERTEX
8
CUT
10
24.7713
20
129.4718
0
SEQEND
0
LINE
8
CUT
10
24.9282
20
126.4115
11
27.0718
21
126.4115
0
LINE
8
CUT
10
27.5718
20
127.2776
11
26.5
21
129.134
0
LINE
8
CUT
10
25.5
20
129.134
11
24.4282
21
127.2776
0
LINE
8
CUT
10
28.3856
20
137.2
11
41.6144
21
137.2
0
LINE
8
CUT
10
42.1144
20
136.334
11
35.5
21
124.8776
0
LINE
8
CUT
10
34.5
20
124.8776
11
27.8856
21
136.334
0
POLYLINE
8
CUT
66
1
70
0
0
VERTEX
8
CUT
10
31.3856
20
131.8718
0
VERTEX
8
CUT
10
28.7713
20
136.4
0
VERTEX
8
CUT
10
34
20
136.4
0
SEQEND
0
POLYLINE
8
CUT
66
1
70
0
0
VERTEX
8
CUT
10
36
20
136.4
0
VERTEX
8
CUT
10
41.2287
20
136.4
0
VERTEX
8
CUT
10
38.6144
20
131.8718
0
SEQEND
0
POLYLINE
8
CUT
66
1
70
0
0
VERTEX
8
CUT
10
37.6144
20
130.1397
0
VERTEX
8
CUT
10
35
20
125.6115
0
VERTEX
8
CUT
10
32.3856
20
130.1397
0
SEQEND
0
LINE
8
CUT
10
31.1569
20
135.6
11
38.8431
21
135.6
0
LINE
8
CUT
10
39.3431
20
134.734
11
35.5
21
128.0776
0
LINE
8
CUT
10
34.5
20
128.0776
11
30.6569
21
134.734
0
POLYLINE
8
CUT
66
1
70
0
0
VERTEX
8
CUT
10
32.7713
20
132.6718
0
VERTEX
8
CUT
10
31.5426
20
134.8
0
VERTEX
8
CUT
10
34
20
134.8
0
SEQEND
0
POLYLINE
8
CUT
66
1
70
0
0
VERTEX
8
CUT
10
36
20
134.8
0
VERTEX
8
CUT
10
38.4574
20
134.8
0
VERTEX
8
CUT
10
37.2287
20
132.6718
0
SEQEND
0
POLYLINE
8
CUT
66
1
70
0
0
VERTEX
8
CUT
10
36.2287
20
130.9397
0
VERTEX
8
CUT
10
35
20
128.8115
0
VERTEX
8
CUT
10
33.7713
20
130.9397
0
SEQEND
0
LINE
8
CUT
10
33.9282
20
134
11
36.0718
21
134
0
LINE
8
CUT
10
36.5718
20
133.134
11
35.5
21
131.2776
0
LINE
8
CUT
10
34.5
20
131.2776
11
33.4282
21
133.134
0
LINE
8
CUT
10
37.3856
20
123.2115
11
50.6144
21
123.2115
0
LINE
8
CUT
10
51.1144
20
124.0776
11
44.5
21
135.534
0
LINE
8
CUT
10
43.5
20
135.534
11
36.8856
21
124.0776
0
POLYLINE
8
CUT
66
1
70
0
0
VERTEX
8
CUT
10
40.3856
20
128.5397
0
VERTEX
8
CUT
10
37.7713
20
124.0115
0
VERTEX
8
CUT
10
43
20
124.0115
0
SEQEND
0
POLYLINE
8
CUT
66
1
70
0
0
VERTEX
8
CUT
10
45
20
124.0115
0
VERTEX
8
CUT
10
50.2287
20
124.0115
0
VERTEX
8
CUT
10
47.6144
20
128.5397
0
SEQEND
0
POLYLINE
8
CUT
66
1
70
0
0
VERTEX
8
CUT
10
46.6144
20
130.2718
0
VERTEX
8
CUT
10
44
20
134.8
0
VERTEX
8
CUT
10
41.3856
20
130.2718
0
SEQEND
0
LINE
8
CUT
10
40.1569
20
124.8115
11
47.8431
21
124.8115
0
LINE
8
CUT
10
48.3431
20
125.6776
11
44.5
21
132.334
0
LINE
8
CUT
10
43.5
20
132.334
11
39.6569
21
125.6776
0
POLYLINE
8
CUT
66
1
70
0
0
VERTEX
8
CUT
10
41.7713
20
127.7397
0
VERTEX
8
CUT
10
40.5426
20
125.6115
0
VERTEX
8
CUT
10
43
20
125.6115
0
SEQEND
0
POLYLINE
8
CUT
66
1
70
0
0
VERTEX
8
CUT
10
45
20
125.6115
0
VERTEX
8
CUT
10
47.4574
20
125.6115
0
VERTEX
8
CUT
10
46.2287
20
127.7397
0
SEQEND
0
POLYLINE
8
CUT
66
1
70
0
0
VERTEX
8
CUT
10
45.2287
20
129.4718
0
VERTEX
8
CUT
10
44
20
131.6
0
VERTEX
8
CUT
10
42.7713
20
129.4718
0
SEQEND
0
LINE
8
CUT
10
42.9282
20
126.4115
11
45.0718
21
126.4115
0
LINE
8
CUT
10
45.5718
20
127.2776
11
44.5
21
129.134
0
LINE
8
CUT
10
43.5
20
129.134
11
42.4282
21
127.2776
0
LINE
8
CUT
10
46.3856
20
137.2
11
59.6144
21
137.2
0
LINE
8
CUT
10
60.1144
20
136.334
11
53.5
21
124.8776
0
LINE
8
CUT
10
52.5
20
124.8776
11
45.8856
21
136.334
0
POLYLINE
8
CUT
66
1
70
0
0
VERTEX
8
CUT
10
49.3856
20
131.8718
0
VERTEX
8
CUT
10
46.7713
20
136.4
0
VERTEX
8
CUT
10
52
20
136.4
0
SEQEND
0
POLYLINE
8
CUT
66
1
70
0
0
VERTEX
8
CUT
10
54
20
136.4
0
VERTEX
8
CUT
10
59.2287
20
136.4
0
VERTEX
8
CUT
10
56.6144
20
131.8718
0
SEQEND
0
POLYLINE
8
CUT
66
1
70
0
0
VERTEX
8
CUT
10
55.6144
20
130.1397
0
VERTEX
8
CUT
10
53
20
125.6115
0
VERTEX
8
CUT
10
50.3856
20
130.1397
0
SEQEND
0
LINE
8
CUT
10
49.1569
20
135.6
11
56.8431
21
135.6
0
LINE
8
CUT
10
57.3431
20
134.734
11
53.5
21
128.0776
0
LINE
8
CUT
10
52.5
20
128.0776
11
48.6569
21
134.734
0
POLYLINE
8
CUT
66
1
70
0
0
VERTEX
8
CUT
10
50.7713
20
132.6718
0
VERTEX
8
CUT
10
49.5426
20
134.8
0
VERTEX
8
CUT
10
52
20
134.8
0
SEQEND
0
POLYLINE
8
CUT
66
1
70
0
0
VERTEX
8
CUT
10
54
20
134.8
0
VERTEX
8
CUT
10
56.4574
20
134.8
0
VERTEX
8
CUT
10
55.2287
20
132.6718
0
SEQEND
0
POLYLINE
8
CUT
66
1
70
0
0
VERTEX
8
CUT
10
54.2287
20
130.9397
0
VERTEX
8
CUT
10
53
20
128.8115
0
VERTEX
8
CUT
10
51.7713
20
130.9397
0
SEQEND
0
LINE
8
CUT
10
51.9282
20
134
11
54.0718
21
134
0
LINE
8
CUT
10
54.5718
20
133.134
11
53.5
21
131.2776
0
LINE
8
CUT
10
52.5
20
131.2776
11
51.4282
21
133.134
0
LINE
8
CUT
10
55.3856
20
123.2115
11
62
21
123.2115
0
LINE
8
CUT
10
61.5
20
135.534
11
54.8856
21
124.0776
0
POLYLINE
8
CUT
66
1
70
0
0
VERTEX
8
CUT
10
58.3856
20
128.5397
0
VERTEX
8
CUT
10
55.7713
20
124.0115
0
VERTEX
8
CUT
10
61
20
124.0115
0
SEQEND
0
POLYLINE
8
CUT
66
1
70
0
0
VERTEX
8
CUT
10
62
20
134.8
0
VERTEX
8
CUT
10
62
20
134.8
0
VERTEX
8
CUT
10
59.3856
20
130.2718
0
SEQEND
0
LINE
8
CUT
10
58.1569
20
124.8115
11
62
21
124.8115
0
LINE
8
CUT
10
61.5
20
132.334
11
57.6569
21
125.6776
0
POLYLINE
8
CUT
66
1
70
0
0
VERTEX
8
CUT
10
59.7713
20
127.7397
0
VERTEX
8
CUT
10
58.5426
20
125.6115
0
VERTEX
8
CUT
10
61
20
125.6115
0
SEQEND
0
POLYLINE
8
CUT
66
1
70
0
0
VERTEX
8
CUT
10
62
20
131.6
0
VERTEX
8
CUT
10
62
20
131.6
0
VERTEX
8
CUT
10
60.7713
20
129.4718
0
SEQEND
0
LINE
8
CUT
10
60.9282
20
126.4115
11
62
21
126.4115
0
LINE
8
CUT
10
61.5
20
129.134
11
60.4282
21
127.2776
0
LINE
8
CUT
10
8
20
121.6115
11
14.6144
21
121.6115
0
LINE
8
CUT
10
15.1144
20
120.7455
11
8.5
21
109.2891
0
POLYLINE
8
CUT
66
1
70
0
0
VERTEX
8
CUT
10
9
20
120.8115
0
VERTEX
8
CUT
10
14.2287
20
120.8115
0
VERTEX
8
CUT
10
11.6144
20
116.2833
0
SEQEND
0
POLYLINE
8
CUT
66
1
70
0
0
VERTEX
8
CUT
10
10.6144
20
114.5513
0
VERTEX
8
CUT
10
8
20
110.0231
0
VERTEX
8
CUT
10
8
20
110.0231
0
SEQEND
0
LINE
8
CUT
10
8
20
120.0115
11
11.8431
21
120.0115
0
LINE
8
CUT
10
12.3431
20
119.1455
11
8.5
21
112.4891
0
POLYLINE
8
CUT
66
1
70
0
0
VERTEX
8
CUT
10
9
20
119.2115
0
VERTEX
8
CUT
10
11.4574
20
119.2115
0
VERTEX
8
CUT
10
10.2287
20
117.0833
0
SEQEND
0
POLYLINE
8
CUT
66
1
70
0
0
VERTEX
8
CUT
10
9.2287
20
115.3513
0
VERTEX
8
CUT
10
8
20
113.2231
0
VERTEX
8
CUT
10
8
20
113.2231
0
SEQEND
0
LINE
8
CUT
10
8
20
118.4115
11
9.0718
21
118.4115
0
LINE
8
CUT
10
9.5718
20
117.5455
11
8.5
21
115.6891
0
LINE
8
CUT
10
24.1144
20
108.4891
11
17.5
21
119.9455
0
LINE
8
CUT
10
16.5
20
119.9455
11
9.8856
21
108.4891
0
POLYLINE
8
CUT
66
1
70
0
0
VERTEX
8
CUT
10
13.3856
20
112.9513
0
VERTEX
8
CUT
10
10.7713
20
108.4231
0
VERTEX
8
CUT
10
16
20
108.4231
0
SEQEND
0
POLYLINE
8
CUT
66
1
70
0
0
VERTEX
8
CUT
10
18
20
108.4231
0
VERTEX
8
CUT
10
23.2287
20
108.4231
0
VERTEX
8
CUT
10
20.6144
20
112.9513
0
SEQEND
0
POLYLINE
8
CUT
66
1
70
0
0
VERTEX
8
CUT
10
19.6144
20
114.6833
0
VERTEX
8
CUT
10
17
20
119.2115
0
VERTEX
8
CUT
10
14.3856
20
114.6833
0
SEQEND
0
LINE
8
CUT
10
13.1569
20
109.2231
11
20.8431
21
109.2231
0
LINE
8
CUT
10
21.3431
20
110.0891
11
17.5
21
116.7455
0
LINE
8
CUT
10
16.5
20
116.7455
11
12.6569
21
110.0891
0
POLYLINE
8
CUT
66
1
70
0
0
VERTEX
8
CUT
10
14.7713
20
112.1513
0
VERTEX
8
CUT
10
13.5426
20
110.0231
0
VERTEX
8
CUT
10
16
20
110.0231
0
SEQEND
0
POLYLINE
8
CUT
66
1
70
0
0
VERTEX
8
CUT
10
18
20
110.0231
0
VERTEX
8
CUT
10
20.4574
20
110.0231
0
VERTEX
8
CUT
10
19.2287
20
112.1513
0
SEQEND
0
POLYLINE
8
CUT
66
1
70
0
0
VERTEX
8
CUT
10
18.2287
20
113.8833
0
VERTEX
8
CUT
10
17
20
116.0115
0
VERTEX
8
CUT
10
15.7713
20
113.8833
0
SEQEND
0
LINE
8
CUT
10
15.9282
20
110.8231
11
18.0718
21
110.8231
0
LINE
8
CUT
10
18.5718
20
111.6891
11
17.5
21
113.5455
0
LINE
8
CUT
10
16.5
20
113.5455
11
15.4282
21
111.6891
0
LINE
8
CUT
10
19.3856
20
121.6115
11
32.6144
21
121.6115
0
LINE
8
CUT
10
33.1144
20
120.7455
11
26.5
21
109.2891
0
LINE
8
CUT
10
25.5
20
109.2891
11
18.8856
21
120.7455
0
POLYLINE
8
CUT
66
1
70
0
0
VERTEX
8
CUT
10
22.3856
20
116.2833
0
VERTEX
8
CUT
10
19.7713
20
120.8115
0
VERTEX
8
CUT
10
25
20
120.8115
0
SEQEND
0
POLYLINE
8
CUT
66
1
70
0
0
VERTEX
8
CUT
10
27
20
120.8115
0
VERTEX
8
CUT
10
32.2287
20
120.8115
0
VERTEX
8
CUT
10
29.6144
20
116.2833
0
SEQEND
0
POLYLINE
8
CUT
66
1
70
0
0
VERTEX
8
CUT
10
28.6144
20
114.5513
0
VERTEX
8
CUT
10
26
20
110.0231
0
VERTEX
8
CUT
10
23.3856
20
114.5513
0
SEQEND
0
LINE
8
CUT
10
22.1569
20
120.0115
11
29.8431
21
120.0115
0
LINE
8
CUT
10
30.3431
20
119.1455
11
26.5
21
112.4891
0
LINE
8
CUT
10
25.5
20
112.4891
11
21.6569
21
119.1455
0
POLYLINE
8
CUT
66
1
70
0
0
VERTEX
8
CUT
10
23.7713
20
117.0833
0
VERTEX
8
CUT
10
22.5426
20
119.2115
0
VERTEX
8
CUT
10
25
20
119.2115
0
SEQEND
0
POLYLINE
8
CUT
66
1
70
0
0
VERTEX
8
CUT
10
27
20
119.2115
0
VERTEX
8
CUT
10
29.4574
20
119.2115
0
VERTEX
8
CUT
10
28.2287
20
117.0833
0
SEQEND
0
POLYLINE
8
CUT
66
1
70
0
0
VERTEX
8
CUT
10
27.2287
20
115.3513
0
VERTEX
8
CUT
10
26
20
113.2231
0
VERTEX
8
CUT
10
24.7713
20
115.3513
0
SEQEND
0
LINE
8
CUT
10
24.9282
20
118.4115
11
27.0718
21
118.4115
0
LINE
8
CUT
10
27.5718
20
117.5455
11
26.5
21
115.6891
0
LINE
8
CUT
10
25.5
20
115.6891
11
24.4282
21
117.5455
0
LINE
8
CUT
10
42.1144
20
108.4891
11
35.5
21
119.9455
0
LINE
8
CUT
10
34.5
20
119.9455
11
27.8856
21
108.4891
0
POLYLINE
8
CUT
66
1
70
0
0
VERTEX
8
CUT
10
31.3856
20
112.9513
0
VERTEX
8
CUT
10
28.7713
20
108.4231
0
VERTEX
8
CUT
10
34
20
108.4231
0
SEQEND
0
POLYLINE
8
CUT
66
1
70
0
0
VERTEX
8
CUT
10
36
20
108.4231
0
VERTEX
8
CUT
10
41.2287
20
108.4231
0
VERTEX
8
CUT
10
38.6144
20
112.9513
0
SEQEND
0
POLYLINE
8
CUT
66
1
70
0
0
VERTEX
8
CUT
10
37.6144
20
114.6833
0
VERTEX
8
CUT
10
35
20
119.2115
0
VERTEX
8
CUT
10
32.3856
20
114.6833
0
SEQEND
0
LINE
8
CUT
10
31.1569
20
109.2231
11
38.8431
21
109.2231
0
LINE
8
CUT
10
39.3431
20
110.0891
11
35.5
21
116.7455
0
LINE
8
CUT
10
34.5
20
116.7455
11
30.6569
21
110.0891
0
POLYLINE
8
CUT
66
1
70
0
0
VERTEX
8
CUT
10
32.7713
20
112.1513
0
VERTEX
8
CUT
10
31.5426
20
110.0231
0
VERTEX
8
CUT
10
34
20
110.0231
0
SEQEND
0
POLYLINE
8
CUT
66
1
70
0
0
VERTEX
8
CUT
10
36
20
110.0231
0
VERTEX
8
CUT
10
38.4574
20
110.0231
0
VERTEX
8
CUT
10
37.2287
20
112.1513
0
SEQEND
0
POLYLINE
8
CUT
66
1
70
0
0
VERTEX
8
CUT
10
36.2287
20
113.8833
0
VERTEX
8
CUT
10
35
20
116.0115
0
VERTEX
8
CUT
10
33.7713
20
113.8833
0
SEQEND
0
LINE
8
CUT
10
33.9282
20
110.8231
11
36.0718
21
110.8231
0
LINE
8
CUT
10
36.5718
20
111.6891
11
35.5
21
113.5455
0
LINE
8
CUT
10
34.5
20
113.5455
11
33.4282
21
111.6891
0
LINE
8
CUT
10
37.3856
20
121.6115
11
50.6144
21
121.6115
0
LINE
8
CUT
10
51.1144
20
120.7455
11
44.5
21
109.2891
0
LINE
8
CUT
10
43.5
20
109.2891
11
36.8856
21
120.7455
0
POLYLINE
8
CUT
66
1
70
0
0
VERTEX
8
CUT
10
40.3856
20
116.2833
0
VERTEX
8
CUT
10
37.7713
20
120.8115
0
VERTEX
8
CUT
10
43
20
120.8115
0
SEQEND
0
POLYLINE
8
CUT
66
1
70
0
0
VERTEX
8
CUT
10
45
20
120.8115
0
VERTEX
8
CUT
10
50.2287
20
120.8115
0
VERTEX
8
CUT
10
47.6144
20
116.2833
0
SEQEND
0
POLYLINE
8
CUT
66
1
70
0
0
VERTEX
8
CUT
10
46.6144
20
114.5513
0
VERTEX
8
CUT
10
44
20
110.0231
0
VERTEX
8
CUT
10
41.3856
20
114.5513
0
SEQEND
0
LINE
8
CUT
10
40.1569
20
120.0115
11
47.8431
21
120.0115
0
LINE
8
CUT
10
48.3431
20
119.1455
11
44.5
21
112.4891
0
LINE
8
CUT
10
43.5
20
112.4891
11
39.6569
21
119.1455
0
POLYLINE
8
CUT
66
1
70
0
0
VERTEX
8
CUT
10
41.7713
20
117.0833
0
VERTEX
8
CUT
10
40.5426
20
119.2115
0
VERTEX
8
CUT
10
43
20
119.2115
0
SEQEND
0
POLYLINE
8
CUT
66
1
70
0
0
VERTEX
8
CUT
10
45
20
119.2115
0
VERTEX
8
CUT
10
47.4574
20
119.2115
0
VERTEX
8
CUT
10
46.2287
20
117.0833
0
SEQEND
0
POLYLINE
8
CUT
66
1
70
0
0
VERTEX
8
CUT
10
45.2287
20
115.3513
0
VERTEX
8
CUT
10
44
20
113.2231
0
VERTEX
8
CUT
10
42.7713
20
115.3513
0
SEQEND
0
LINE
8
CUT
10
42.9282
20
118.4115
11
45.0718
21
118.4115
0
LINE
8
CUT
10
45.5718
20
117.5455
11
44.5
21
115.6891
0
LINE
8
CUT
10
43.5
20
115.6891
11
42.4282
21
117.5455
0
LINE
8
CUT
10
60.1144
20
108.4891
11
53.5
21
119.9455
0
LINE
8
CUT
10
52.5
20
119.9455
11
45.8856
21
108.4891
0
POLYLINE
8
CUT
66
1
70
0
0
VERTEX
8
CUT
10
49.3856
20
112.9513
0
VERTEX
8
CUT
10
46.7713
20
108.4231
0
VERTEX
8
CUT
10
52
20
108.4231
0
SEQEND
0
POLYLINE
8
CUT
66
1
70
0
0
VERTEX
8
CUT
10
54
20
108.4231
0
VERTEX
8
CUT
10
59.2287
20
108.4231
0
VERTEX
8
CUT
10
56.6144
20
112.9513
0
SEQEND
0
POLYLINE
8
CUT
66
1
70
0
0
VERTEX
8
CUT
10
55.6144
20
114.6833
0
VERTEX
8
CUT
10
53
20
119.2115
0
VERTEX
8
CUT
10
50.3856
20
114.6833
0
SEQEND
0
LINE
8
CUT
10
49.1569
20
109.2231
11
56.8431
21
109.2231
0
LINE
8
CUT
10
57.3431
20
110.0891
11
53.5
21
116.7455
0
LINE
8
CUT
10
52.5
20
116.7455
11
48.6569
21
110.0891
0
POLYLINE
8
CUT
66
1
70
0
0
VERTEX
8
CUT
10
50.7713
20
112.1513
0
VERTEX
8
CUT
10
49.5426
20
110.0231
0
VERTEX
8
CUT
10
52
20
110.0231
0
SEQEND
0
POLYLINE
8
CUT
66
1
70
0
0
VERTEX
8
CUT
10
54
20
110.0231
0
VERTEX
8
CUT
10
56.4574
20
110.0231
0
VERTEX
8
CUT
10
55.2287
20
112.1513
0
SEQEND
0
POLYLINE
8
CUT
66
1
70
0
0
VERTEX
8
CUT
10
54.2287
20
113.8833
0
VERTEX
8
CUT
10
53
20
116.0115
0
VERTEX
8
CUT
10
51.7713
20
113.8833
0
SEQEND
0
LINE
8
CUT
10
51.9282
20
110.8231
11
54.0718
21
110.8231
0
LINE
8
CUT
10
54.5718
20
111.6891
11
53.5
21
113.5455
0
LINE
8
CUT
10
52.5
20
113.5455
11
51.4282
21
111.6891
0
LINE
8
CUT
10
55.3856
20
121.6115
11
62
21
121.6115
0
LINE
8
CUT
10
61.5
20
109.2891
11
54.8856
21
120.7455
0
POLYLINE
8
CUT
66
1
70
0
0
VERTEX
8
CUT
10
58.3856
20
116.2833
0
VERTEX
8
CUT
10
55.7713
20
120.8115
0
VERTEX
8
CUT
10
61
20
120.8115
0
SEQEND
0
POLYLINE
8
CUT
66
1
70
0
0
VERTEX
8
CUT
10
62
20
110.0231
0
VERTEX
8
CUT
10
62
20
110.0231
0
VERTEX
8
CUT
10
59.3856
20
114.5513
0
SEQEND
0
LINE
8
CUT
10
58.1569
20
120.0115
11
62
21
120.0115
0
LINE
8
CUT
10
61.5
20
112.4891
11
57.6569
21
119.1455
0
POLYLINE
8
CUT
66
1
70
0
0
VERTEX
8
CUT
10
59.7713
20
117.0833
0
VERTEX
8
CUT
10
58.5426
20
119.2115
0
VERTEX
8
CUT
10
61
20
119.2115
0
SEQEND
0
POLYLINE
8
CUT
66
1
70
0
0
VERTEX
8
CUT
10
62
20
113.2231
0
VERTEX
8
CUT
10
62
20
113.2231
0
VERTEX
8
CUT
10
60.7713
20
115.3513
0
SEQEND
0
LINE
8
CUT
10
60.9282
20
118.4115
11
62
21
118.4115
0
LINE
8
CUT
10
61.5
20
115.6891
11
60.4282
21
117.5455
0
LINE
8
CUT
10
2.5
20
108
11
2.5
21
111
0
LINE
8
CUT
10
5
20
108
11
5
21
111
0
POLYLINE
8
CUT
66
1
70
0
0
VERTEX
8
CUT
10
0
20
102
0
VERTEX
8
CUT
10
70
20
102
0
VERTEX
8
CUT
10
70
20
72
0
VERTEX
8
CUT
10
0
20
72
0
VERTEX
8
CUT
10
0
20
102
0
SEQEND
0
LINE
8
CUT
10
8
20
87.4115
11
14.2679
21
87.4115
0
LINE
8
CUT
10
14.7679
20
88.2776
11
8.5
21
99.134
0
POLYLINE
8
CUT
66
1
70
0
0
VERTEX
8
CUT
10
9
20
88.4115
0
VERTEX
8
CUT
10
13.5359
20
88.4115
0
VERTEX
8
CUT
10
11.2679
20
92.3397
0
SEQEND
0
POLYLINE
8
CUT
66
1
70
0
0
VERTEX
8
CUT
10
10.2679
20
94.0718
0
VERTEX
8
CUT
10
8
20
98
0
VERTEX
8
CUT
10
8
20
98
0
SEQEND
0
LINE
8
CUT
10
8
20
89.4115
11
10.8038
21
89.4115
0
LINE
8
CUT
10
11.3038
20
90.2776
11
8.5
21
95.134
0
POLYLINE
8
CUT
66
1
70
0
0
VERTEX
8
CUT
10
9
20
90.4115
0
VERTEX
8
CUT
10
10.0718
20
90.4115
0
VERTEX
8
CUT
10
9.5359
20
91.3397
0
SEQEND
0
POLYLINE
8
CUT
66
1
70
0
0
VERTEX
8
CUT
10
8.5359
20
93.0718
0
VERTEX
8
CUT
10
8
20
94
0
VERTEX
8
CUT
10
8
20
94
0
SEQEND
0
LINE
8
CUT
10
10.7321
20
101
11
23.2679
21
101
0
LINE
8
CUT
10
23.7679
20
100.134
11
17.5
21
89.2776
0
LINE
8
CUT
10
16.5
20
89.2776
11
10.2321
21
100.134
0
POLYLINE
8
CUT
66
1
70
0
0
VERTEX
8
CUT
10
13.7321
20
96.0718
0
VERTEX
8
CUT
10
11.4641
20
100
0
VERTEX
8
CUT
10
16
20
100
0
SEQEND
0
POLYLINE
8
CUT
66
1
70
0
0
VERTEX
8
CUT
10
18
20
100
0
VERTEX
8
CUT
10
22.5359
20
100
0
VERTEX
8
CUT
10
20.2679
20
96.0718
0
SEQEND
0
POLYLINE
8
CUT
66
1
70
0
0
VERTEX
8
CUT
10
19.2679
20
94.3397
0
VERTEX
8
CUT
10
17
20
90.4115
0
VERTEX
8
CUT
10
14.7321
20
94.3397
0
SEQEND
0
LINE
8
CUT
10
14.1962
20
99
11
19.8038
21
99
0
LINE
8
CUT
10
20.3038
20
98.134
11
17.5
21
93.2776
0
LINE
8
CUT
10
16.5
20
93.2776
11
13.6962
21
98.134
0
POLYLINE
8
CUT
66
1
70
0
0
VERTEX
8
CUT
10
15.4641
20
97.0718
0
VERTEX
8
CUT
10
14.9282
20
98
0
VERTEX
8
CUT
10
16
20
98
0
SEQEND
0
POLYLINE
8
CUT
66
1
70
0
0
VERTEX
8
CUT
10
18
20
98
0
VERTEX
8
CUT
10
19.0718
20
98
0
VERTEX
8
CUT
10
18.5359
20
97.0718
0
SEQEND
0
POLYLINE
8
CUT
66
1
70
0
0
VERTEX
8
CUT
10
17.5359
20
95.3397
0
VERTEX
8
CUT
10
17
20
94.4115
0
VERTEX
8
CUT
10
16.4641
20
95.3397
0
SEQEND
0
LINE
8
CUT
10
19.7321
20
87.4115
11
32.2679
21
87.4115
0
LINE
8
CUT
10
32.7679
20
88.2776
11
26.5
21
99.134
0
LINE
8
CUT
10
25.5
20
99.134
11
19.2321
21
88.2776
0
POLYLINE
8
CUT
66
1
70
0
0
VERTEX
8
CUT
10
22.7321
20
92.3397
0
VERTEX
8
CUT
10
20.4641
20
88.4115
0
VERTEX
8
CUT
10
25
20
88.4115
0
SEQEND
0
POLYLINE
8
CUT
66
1
70
0
0
VERTEX
8
CUT
10
27
20
88.4115
0
VERTEX
8
CUT
10
31.5359
20
88.4115
0
VERTEX
8
CUT
10
29.2679
20
92.3397
0
SEQEND
0
POLYLINE
8
CUT
66
1
70
0
0
VERTEX
8
CUT
10
28.2679
20
94.0718
0
VERTEX
8
CUT
10
26
20
98
0
VERTEX
8
CUT
10
23.7321
20
94.0718
0
SEQEND
0
LINE
8
CUT
10
23.1962
20
89.4115
11
28.8038
21
89.4115
0
LINE
8
CUT
10
29.3038
20
90.2776
11
26.5
21
95.134
0
LINE
8
CUT
10
25.5
20
95.134
11
22.6962
21
90.2776
0
POLYLINE
8
CUT
66
1
70
0
0
VERTEX
8
CUT
10
24.4641
20
91.3397
0
VERTEX
8
CUT
10
23.9282
20
90.4115
0
VERTEX
8
CUT
10
25
20
90.4115
0
SEQEND
0
POLYLINE
8
CUT
66
1
70
0
0
VERTEX
8
CUT
10
27
20
90.4115
0
VERTEX
8
CUT
10
28.0718
20
90.4115
0
VERTEX
8
CUT
10
27.5359
20
91.3397
0
SEQEND
0
POLYLINE
8
CUT
66
1
70
0
0
VERTEX
8
CUT
10
26.5359
20
93.0718
0
VERTEX
8
CUT
10
26
20
94
0
VERTEX
8
CUT
10
25.4641
20
93.0718
0
SEQEND
0
LINE
8
CUT
10
28.7321
20
101
11
41.2679
21
101
0
LINE
8
CUT
10
41.7679
20
100.134
11
35.5
21
89.2776
0
LINE
8
CUT
10
34.5
20
89.2776
11
28.2321
21
100.134
0
POLYLINE
8
CUT
66
1
70
0
0
VERTEX
8
CUT
10
31.7321
20
96.0718
0
VERTEX
8
CUT
10
29.4641
20
100
0
VERTEX
8
CUT
10
34
20
100
0
SEQEND
0
POLYLINE
8
CUT
66
1
70
0
0
VERTEX
8
CUT
10
36
20
100
0
VERTEX
8
CUT
10
40.5359
20
100
0
VERTEX
8
CUT
10
38.2679
20
96.0718
0
SEQEND
0
POLYLINE
8
CUT
66
1
70
0
0
VERTEX
8
CUT
10
37.2679
20
94.3397
0
VERTEX
8
CUT
10
35
20
90.4115
0
VERTEX
8
CUT
10
32.7321
20
94.3397
0
SEQEND
0
LINE
8
CUT
10
32.1962
20
99
11
37.8038
21
99
0
LINE
8
CUT
10
38.3038
20
98.134
11
35.5
21
93.2776
0
LINE
8
CUT
10
34.5
20
93.2776
11
31.6962
21
98.134
0
POLYLINE
8
CUT
66
1
70
0
0
VERTEX
8
CUT
10
33.4641
20
97.0718
0
VERTEX
8
CUT
10
32.9282
20
98
0
VERTEX
8
CUT
10
34
20
98
0
SEQEND
0
POLYLINE
8
CUT
66
1
70
0
0
VERTEX
8
CUT
10
36
20
98
0
VERTEX
8
CUT
10
37.0718
20
98
0
VERTEX
8
CUT
10
36.5359
20
97.0718
0
SEQEND
0
POLYLINE
8
CUT
66
1
70
0
0
VERTEX
8
CUT
10
35.5359
20
95.3397
0
VERTEX
8
CUT
10
35
20
94.4115
0
VERTEX
8
CUT
10
34.4641
20
95.3397
0
SEQEND
0
LINE
8
CUT
10
37.7321
20
87.4115
11
50.2679
21
87.4115
0
LINE
8
CUT
10
50.7679
20
88.2776
11
44.5
21
99.134
0
LINE
8
CUT
10
43.5
20
99.134
11
37.2321
21
88.2776
0
POLYLINE
8
CUT
66
1
70
0
0
VERTEX
8
CUT
10
40.7321
20
92.3397
0
VERTEX
8
CUT
10
38.4641
20
88.4115
0
VERTEX
8
CUT
10
43
20
88.4115
0
SEQEND
0
POLYLINE
8
CUT
66
1
70
0
0
VERTEX
8
CUT
10
45
20
88.4115
0
VERTEX
8
CUT
10
49.5359
20
88.4115
0
VERTEX
8
CUT
10
47.2679
20
92.3397
0
SEQEND
0
POLYLINE
8
CUT
66
1
70
0
0
VERTEX
8
CUT
10
46.2679
20
94.0718
0
VERTEX
8
CUT
10
44
20
98
0
VERTEX
8
CUT
10
41.7321
20
94.0718
0
SEQEND
0
LINE
8
CUT
10
41.1962
20
89.4115
11
46.8038
21
89.4115
0
LINE
8
CUT
10
47.3038
20
90.2776
11
44.5
21
95.134
0
LINE
8
CUT
10
43.5
20
95.134
11
40.6962
21
90.2776
0
POLYLINE
8
CUT
66
1
70
0
0
VERTEX
8
CUT
10
42.4641
20
91.3397
0
VERTEX
8
CUT
10
41.9282
20
90.4115
0
VERTEX
8
CUT
10
43
20
90.4115
0
SEQEND
0
POLYLINE
8
CUT
66
1
70
0
0
VERTEX
8
CUT
10
45
20
90.4115
0
VERTEX
8
CUT
10
46.0718
20
90.4115
0
VERTEX
8
CUT
10
45.5359
20
91.3397
0
SEQEND
0
POLYLINE
8
CUT
66
1
70
0
0
VERTEX
8
CUT
10
44.5359
20
93.0718
0
VERTEX
8
CUT
10
44
20
94
0
VERTEX
8
CUT
10
43.4641
20
93.0718
0
SEQEND
0
LINE
8
CUT
10
46.7321
20
101
11
59.2679
21
101
0
LINE
8
CUT
10
59.7679
20
100.134
11
53.5
21
89.2776
0
LINE
8
CUT
10
52.5
20
89.2776
11
46.2321
21
100.134
0
POLYLINE
8
CUT
66
1
70
0
0
VERTEX
8
CUT
10
49.7321
20
96.0718
0
VERTEX
8
CUT
10
47.4641
20
100
0
VERTEX
8
CUT
10
52
20
100
0
SEQEND
0
POLYLINE
8
CUT
66
1
70
0
0
VERTEX
8
CUT
10
54
20
100
0
VERTEX
8
CUT
10
58.5359
20
100
0
VERTEX
8
CUT
10
56.2679
20
96.0718
0
SEQEND
0
POLYLINE
8
CUT
66
1
70
0
0
VERTEX
8
CUT
10
55.2679
20
94.3397
0
VERTEX
8
CUT
10
53
20
90.4115
0
VERTEX
8
CUT
10
50.7321
20
94.3397
0
SEQEND
0
LINE
8
CUT
10
50.1962
20
99
11
55.8038
21
99
0
LINE
8
CUT
10
56.3038
20
98.134
11
53.5
21
93.2776
0
LINE
8
CUT
10
52.5
20
93.2776
11
49.6962
21
98.134
0
POLYLINE
8
CUT
66
1
70
0
0
VERTEX
8
CUT
10
51.4641
20
97.0718
0
VERTEX
8
CUT
10
50.9282
20
98
0
VERTEX
8
CUT
10
52
20
98
0
SEQEND
0
POLYLINE
8
CUT
66
1
70
0
0
VERTEX
8
CUT
10
54
20
98
0
VERTEX
8
CUT
10
55.0718
20
98
0
VERTEX
8
CUT
10
54.5359
20
97.0718
0
SEQEND
0
POLYLINE
8
CUT
66
1
70
0
0
VERTEX
8
CUT
10
53.5359
20
95.3397
0
VERTEX
8
CUT
10
53
20
94.4115
0
VERTEX
8
CUT
10
52.4641
20
95.3397
0
SEQEND
0
LINE
8
CUT
10
55.7321
20
87.4115
11
62
21
87.4115
0
LINE
8
CUT
10
61.5
20
99.134
11
55.2321
21
88.2776
0
POLYLINE
8
CUT
66
1
70
0
0
VERTEX
8
CUT
10
58.7321
20
92.3397
0
VERTEX
8
CUT
10
56.4641
20
88.4115
0
VERTEX
8
CUT
10
61
20
88.4115
0
SEQEND
0
POLYLINE
8
CUT
66
1
70
0
0
VERTEX
8
CUT
10
62
20
98
0
VERTEX
8
CUT
10
62
20
98
0
VERTEX
8
CUT
10
59.7321
20
94.0718
0
SEQEND
0
LINE
8
CUT
10
59.1962
20
89.4115
11
62
21
89.4115
0
LINE
8
CUT
10
61.5
20
95.134
11
58.6962
21
90.2776
0
POLYLINE
8
CUT
66
1
70
0
0
VERTEX
8
CUT
10
60.4641
20
91.3397
0
VERTEX
8
CUT
10
59.9282
20
90.4115
0
VERTEX
8
CUT
10
61
20
90.4115
0
SEQEND
0
POLYLINE
8
CUT
66
1
70
0
0
VERTEX
8
CUT
10
62
20
94
0
VERTEX
8
CUT
10
62
20
94
0
VERTEX
8
CUT
10
61.4641
20
93.0718
0
SEQEND
0
LINE
8
CUT
10
8
20
85.4115
11
14.2679
21
85.4115
0
LINE
8
CUT
10
14.7679
20
84.5455
11
8.5
21
73.6891
0
POLYLINE
8
CUT
66
1
70
0
0
VERTEX
8
CUT
10
9
20
84.4115
0
VERTEX
8
CUT
10
13.5359
20
84.4115
0
VERTEX
8
CUT
10
11.2679
20
80.4833
0
SEQEND
0
POLYLINE
8
CUT
66
1
70
0
0
VERTEX
8
CUT
10
10.2679
20
78.7513
0
VERTEX
8
CUT
10
8
20
74.8231
0
VERTEX
8
CUT
10
8
20
74.8231
0
SEQEND
0
LINE
8
CUT
10
8
20
83.4115
11
10.8038
21
83.4115
0
LINE
8
CUT
10
11.3038
20
82.5455
11
8.5
21
77.6891
0
POLYLINE
8
CUT
66
1
70
0
0
VERTEX
8
CUT
10
9
20
82.4115
0
VERTEX
8
CUT
10
10.0718
20
82.4115
0
VERTEX
8
CUT
10
9.5359
20
81.4833
0
SEQEND
0
POLYLINE
8
CUT
66
1
70
0
0
VERTEX
8
CUT
10
8.5359
20
79.7513
0
VERTEX
8
CUT
10
8
20
78.8231
0
VERTEX
8
CUT
10
8
20
78.8231
0
SEQEND
0
LINE
8
CUT
10
23.7679
20
72.6891
11
17.5
21
83.5455
0
LINE
8
CUT
10
16.5
20
83.5455
11
10.2321
21
72.6891
0
POLYLINE
8
CUT
66
1
70
0
0
VERTEX
8
CUT
10
13.7321
20
76.7513
0
VERTEX
8
CUT
10
11.4641
20
72.8231
0
VERTEX
8
CUT
10
16
20
72.8231
0
SEQEND
0
POLYLINE
8
CUT
66
1
70
0
0
VERTEX
8
CUT
10
18
20
72.8231
0
VERTEX
8
CUT
10
22.5359
20
72.8231
0
VERTEX
8
CUT
10
20.2679
20
76.7513
0
SEQEND
0
POLYLINE
8
CUT
66
1
70
0
0
VERTEX
8
CUT
10
19.2679
20
78.4833
0
VERTEX
8
CUT
10
17
20
82.4115
0
VERTEX
8
CUT
10
14.7321
20
78.4833
0
SEQEND
0
LINE
8
CUT
10
14.1962
20
73.8231
11
19.8038
21
73.8231
0
LINE
8
CUT
10
20.3038
20
74.6891
11
17.5
21
79.5455
0
LINE
8
CUT
10
16.5
20
79.5455
11
13.6962
21
74.6891
0
POLYLINE
8
CUT
66
1
70
0
0
VERTEX
8
CUT
10
15.4641
20
75.7513
0
VERTEX
8
CUT
10
14.9282
20
74.8231
0
VERTEX
8
CUT
10
16
20
74.8231
0
SEQEND
0
POLYLINE
8
CUT
66
1
70
0
0
VERTEX
8
CUT
10
18
20
74.8231
0
VERTEX
8
CUT
10
19.0718
20
74.8231
0
VERTEX
8
CUT
10
18.5359
20
75.7513
0
SEQEND
0
POLYLINE
8
CUT
66
1
70
0
0
VERTEX
8
CUT
10
17.5359
20
77.4833
0
VERTEX
8
CUT
10
17
20
78.4115
0
VERTEX
8
CUT
10
16.4641
20
77.4833
0
SEQEND
0
LINE
8
CUT
10
19.7321
20
85.4115
11
32.2679
21
85.4115
0
LINE
8
CUT
10
32.7679
20
84.5455
11
26.5
21
73.6891
0
LINE
8
CUT
10
25.5
20
73.6891
11
19.2321
21
84.5455
0
POLYLINE
8
CUT
66
1
70
0
0
VERTEX
8
CUT
10
22.7321
20
80.4833
0
VERTEX
8
CUT
10
20.4641
20
84.4115
0
VERTEX
8
CUT
10
25
20
84.4115
0
SEQEND
0
POLYLINE
8
CUT
66
1
70
0
0
VERTEX
8
CUT
10
27
20
84.4115
0
VERTEX
8
CUT
10
31.5359
20
84.4115
0
VERTEX
8
CUT
10
29.2679
20
80.4833
0
SEQEND
0
POLYLINE
8
CUT
66
1
70
0
0
VERTEX
8
CUT
10
28.2679
20
78.7513
0
VERTEX
8
CUT
10
26
20
74.8231
0
VERTEX
8
CUT
10
23.7321
20
78.7513
0
SEQEND
0
LINE
8
CUT
10
23.1962
20
83.4115
11
28.8038
21
83.4115
0
LINE
8
CUT
10
29.3038
20
82.5455
11
26.5
21
77.6891
0
LINE
8
CUT
10
25.5
20
77.6891
11
22.6962
21
82.5455
0
POLYLINE
8
CUT
66
1
70
0
0
VERTEX
8
CUT
10
24.4641
20
81.4833
0
VERTEX
8
CUT
10
23.9282
20
82.4115
0
VERTEX
8
CUT
10
25
20
82.4115
0
SEQEND
0
POLYLINE
8
CUT
66
1
70
0
0
VERTEX
8
CUT
10
27
20
82.4115
0
VERTEX
8
CUT
10
28.0718
20
82.4115
0
VERTEX
8
CUT
10
27.5359
20
81.4833
0
SEQEND
0
POLYLINE
8
CUT
66
1
70
0
0
VERTEX
8
CUT
10
26.5359
20
79.7513
0
VERTEX
8
CUT
10
26
20
78.8231
0
VERTEX
8
CUT
10
25.4641
20
79.7513
0
SEQEND
0
LINE
8
CUT
10
41.7679
20
72.6891
11
35.5
21
83.5455
0
LINE
8
CUT
10
34.5
20
83.5455
11
28.2321
21
72.6891
0
POLYLINE
8
CUT
66
1
70
0
0
VERTEX
8
CUT
10
31.7321
20
76.7513
0
VERTEX
8
CUT
10
29.4641
20
72.8231
0
VERTEX
8
CUT
10
34
20
72.8231
0
SEQEND
0
POLYLINE
8
CUT
66
1
70
0
0
VERTEX
8
CUT
10
36
20
72.8231
0
VERTEX
8
CUT
10
40.5359
20
72.8231
0
VERTEX
8
CUT
10
38.2679
20
76.7513
0
SEQEND
0
POLYLINE
8
CUT
66
1
70
0
0
VERTEX
8
CUT
10
37.2679
20
78.4833
0
VERTEX
8
CUT
10
35
20
82.4115
0
VERTEX
8
CUT
10
32.7321
20
78.4833
0
SEQEND
0
LINE
8
CUT
10
32.1962
20
73.8231
11
37.8038
21
73.8231
0
LINE
8
CUT
10
38.3038
20
74.6891
11
35.5
21
79.5455
0
LINE
8
CUT
10
34.5
20
79.5455
11
31.6962
21
74.6891
0
POLYLINE
8
CUT
66
1
70
0
0
VERTEX
8
CUT
10
33.4641
20
75.7513
0
VERTEX
8
CUT
10
32.9282
20
74.8231
0
VERTEX
8
CUT
10
34
20
74.8231
0
SEQEND
0
POLYLINE
8
CUT
66
1
70
0
0
VERTEX
8
CUT
10
36
20
74.8231
0
VERTEX
8
CUT
10
37.0718
20
74.8231
0
VERTEX
8
CUT
10
36.5359
20
75.7513
0
SEQEND
0
POLYLINE
8
CUT
66
1
70
0
0
VERTEX
8
CUT
10
35.5359
20
77.4833
0
VERTEX
8
CUT
10
35
20
78.4115
0
VERTEX
8
CUT
10
34.4641
20
77.4833
0
SEQEND
0
LINE
8
CUT
10
37.7321
20
85.4115
11
50.2679
21
85.4115
0
LINE
8
CUT
10
50.7679
20
84.5455
11
44.5
21
73.6891
0
LINE
8
CUT
10
43.5
20
73.6891
11
37.2321
21
84.5455
0
POLYLINE
8
CUT
66
1
70
0
0
VERTEX
8
CUT
10
40.7321
20
80.4833
0
VERTEX
8
CUT
10
38.4641
20
84.4115
0
VERTEX
8
CUT
10
43
20
84.4115
0
SEQEND
0
POLYLINE
8
CUT
66
1
70
0
0
VERTEX
8
CUT
10
45
20
84.4115
0
VERTEX
8
CUT
10
49.5359
20
84.4115
0
VERTEX
8
CUT
10
47.2679
20
80.4833
0
SEQEND
0
POLYLINE
8
CUT
66
1
70
0
0
VERTEX
8
CUT
10
46.2679
20
78.7513
0
VERTEX
8
CUT
10
44
20
74.8231
0
VERTEX
8
CUT
10
41.7321
20
78.7513
0
SEQEND
0
LINE
8
CUT
10
41.1962
20
83.4115
11
46.8038
21
83.4115
0
LINE
8
CUT
10
47.3038
20
82.5455
11
44.5
21
77.6891
0
LINE
8
CUT
10
43.5
20
77.6891
11
40.6962
21
82.5455
0
POLYLINE
8
CUT
66
1
70
0
0
VERTEX
8
CUT
10
42.4641
20
81.4833
0
VERTEX
8
CUT
10
41.9282
20
82.4115
0
VERTEX
8
CUT
10
43
20
82.4115
0
SEQEND
0
POLYLINE
8
CUT
66
1
70
0
0
VERTEX
8
CUT
10
45
20
82.4115
0
VERTEX
8
CUT
10
46.0718
20
82.4115
0
VERTEX
8
CUT
10
45.5359
20
81.4833
0
SEQEND
0
POLYLINE
8
CUT
66
1
70
0
0
VERTEX
8
CUT
10
44.5359
20
79.7513
0
VERTEX
8
CUT
10
44
20
78.8231
0
VERTEX
8
CUT
10
43.4641
20
79.7513
0
SEQEND
0
LINE
8
CUT
10
59.7679
20
72.6891
11
53.5
21
83.5455
0
LINE
8
CUT
10
52.5
20
83.5455
11
46.2321
21
72.6891
0
POLYLINE
8
CUT
66
1
70
0
0
VERTEX
8
CUT
10
49.7321
20
76.7513
0
VERTEX
8
CUT
10
47.4641
20
72.8231
0
VERTEX
8
CUT
10
52
20
72.8231
0
SEQEND
0
POLYLINE
8
CUT
66
1
70
0
0
VERTEX
8
CUT
10
54
20
72.8231
0
VERTEX
8
CUT
10
58.5359
20
72.8231
0
VERTEX
8
CUT
10
56.2679
20
76.7513
0
SEQEND
0
POLYLINE
8
CUT
66
1
70
0
0
VERTEX
8
CUT
10
55.2679
20
78.4833
0
VERTEX
8
CUT
10
53
20
82.4115
0
VERTEX
8
CUT
10
50.7321
20
78.4833
0
SEQEND
0
LINE
8
CUT
10
50.1962
20
73.8231
11
55.8038
21
73.8231
0
LINE
8
CUT
10
56.3038
20
74.6891
11
53.5
21
79.5455
0
LINE
8
CUT
10
52.5
20
79.5455
11
49.6962
21
74.6891
0
POLYLINE
8
CUT
66
1
70
0
0
VERTEX
8
CUT
10
51.4641
20
75.7513
0
VERTEX
8
CUT
10
50.9282
20
74.8231
0
VERTEX
8
CUT
10
52
20
74.8231
0
SEQEND
0
POLYLINE
8
CUT
66
1
70
0
0
VERTEX
8
CUT
10
54
20
74.8231
0
VERTEX
8
CUT
10
55.0718
20
74.8231
0
VERTEX
8
CUT
10
54.5359
20
75.7513
0
SEQEND
0
POLYLINE
8
CUT
66
1
70
0
0
VERTEX
8
CUT
10
53.5359
20
77.4833
0
VERTEX
8
CUT
10
53
20
78.4115
0
VERTEX
8
CUT
10
52.4641
20
77.4833
0
SEQEND
0
LINE
8
CUT
10
55.7321
20
85.4115
11
62
21
85.4115
0
LINE
8
CUT
10
61.5
20
73.6891
11
55.2321
21
84.5455
0
POLYLINE
8
CUT
66
1
70
0
0
VERTEX
8
CUT
10
58.7321
20
80.4833
0
VERTEX
8
CUT
10
56.4641
20
84.4115
0
VERTEX
8
CUT
10
61
20
84.4115
0
SEQEND
0
POLYLINE
8
CUT
66
1
70
0
0
VERTEX
8
CUT
10
62
20
74.8231
0
VERTEX
8
CUT
10
62
20
74.8231
0
VERTEX
8
CUT
10
59.7321
20
78.7513
0
SEQEND
0
LINE
8
CUT
10
59.1962
20
83.4115
11
62
21
83.4115
0
LINE
8
CUT
10
61.5
20
77.6891
11
58.6962
21
82.5455
0
POLYLINE
8
CUT
66
1
70
0
0
VERTEX
8
CUT
10
60.4641
20
81.4833
0
VERTEX
8
CUT
10
59.9282
20
82.4115
0
VERTEX
8
CUT
10
61
20
82.4115
0
SEQEND
0
POLYLINE
8
CUT
66
1
70
0
0
VERTEX
8
CUT
10
62
20
78.8231
0
VERTEX
8
CUT
10
62
20
78.8231
0
VERTEX
8
CUT
10
61.4641
20
79.7513
0
SEQEND
0
LINE
8
CUT
10
2.5
20
72
11
2.5
21
75
0
LINE
8
CUT
10
5
20
72
11
5
21
75
0
LINE
8
CUT
10
7.5
20
72
11
7.5
21
75
0
POLYLINE
8
CUT
66
1
70
0
0
VERTEX
8
CUT
10
0
20
66
0
VERTEX
8
CUT
10
70
20
66
0
VERTEX
8
CUT
10
70
20
36
0
VERTEX
8
CUT
10
0
20
36
0
VERTEX
8
CUT
10
0
20
66
0
SEQEND
0
LINE
8
CUT
10
8
20
51.6115
11
13.9215
21
51.6115
0
LINE
8
CUT
10
14.4215
20
52.4776
11
8.5
21
62.734
0
POLYLINE
8
CUT
66
1
70
0
0
VERTEX
8
CUT
10
9
20
52.8115
0
VERTEX
8
CUT
10
12.8431
20
52.8115
0
VERTEX
8
CUT
10
10.9215
20
56.1397
0
SEQEND
0
POLYLINE
8
CUT
66
1
70
0
0
VERTEX
8
CUT
10
9.9215
20
57.8718
0
VERTEX
8
CUT
10
8
20
61.2
0
VERTEX
8
CUT
10
8
20
61.2
0
SEQEND
0
LINE
8
CUT
10
8
20
54.0115
11
9.7646
21
54.0115
0
LINE
8
CUT
10
10.2646
20
54.8776
11
8.5
21
57.934
0
LINE
8
CUT
10
11.0785
20
64.8
11
22.9215
21
64.8
0
LINE
8
CUT
10
23.4215
20
63.934
11
17.5
21
53.6776
0
LINE
8
CUT
10
16.5
20
53.6776
11
10.5785
21
63.934
0
POLYLINE
8
CUT
66
1
70
0
0
VERTEX
8
CUT
10
14.0785
20
60.2718
0
VERTEX
8
CUT
10
12.1569
20
63.6
0
VERTEX
8
CUT
10
16
20
63.6
0
SEQEND
0
POLYLINE
8
CUT
66
1
70
0
0
VERTEX
8
CUT
10
18
20
63.6
0
VERTEX
8
CUT
10
21.8431
20
63.6
0
VERTEX
8
CUT
10
19.9215
20
60.2718
0
SEQEND
0
POLYLINE
8
CUT
66
1
70
0
0
VERTEX
8
CUT
10
18.9215
20
58.5397
0
VERTEX
8
CUT
10
17
20
55.2115
0
VERTEX
8
CUT
10
15.0785
20
58.5397
0
SEQEND
0
LINE
8
CUT
10
15.2354
20
62.4
11
18.7646
21
62.4
0
LINE
8
CUT
10
19.2646
20
61.534
11
17.5
21
58.4776
0
LINE
8
CUT
10
16.5
20
58.4776
11
14.7354
21
61.534
0
LINE
8
CUT
10
20.0785
20
51.6115
11
31.9215
21
51.6115
0
LINE
8
CUT
10
32.4215
20
52.4776
11
26.5
21
62.734
0
LINE
8
CUT
10
25.5
20
62.734
11
19.5785
21
52.4776
0
POLYLINE
8
CUT
66
1
70
0
0
VERTEX
8
CUT
10
23.0785
20
56.1397
0
VERTEX
8
CUT
10
21.1569
20
52.8115
0
VERTEX
8
CUT
10
25
20
52.8115
0
SEQEND
0
POLYLINE
8
CUT
66
1
70
0
0
VERTEX
8
CUT
10
27
20
52.8115
0
VERTEX
8
CUT
10
30.8431
20
52.8115
0
VERTEX
8
CUT
10
28.9215
20
56.1397
0
SEQEND
0
POLYLINE
8
CUT
66
1
70
0
0
VERTEX
8
CUT
10
27.9215
20
57.8718
0
VERTEX
8
CUT
10
26
20
61.2
0
VERTEX
8
CUT
10
24.0785
20
57.8718
0
SEQEND
0
LINE
8
CUT
10
24.2354
20
54.0115
11
27.7646
21
54.0115
0
LINE
8
CUT
10
28.2646
20
54.8776
11
26.5
21
57.934
0
LINE
8
CUT
10
25.5
20
57.934
11
23.7354
21
54.8776
0
LINE
8
CUT
10
29.0785
20
64.8
11
40.9215
21
64.8
0
LINE
8
CUT
10
41.4215
20
63.934
11
35.5
21
53.6776
0
LINE
8
CUT
10
34.5
20
53.6776
11
28.5785
21
63.934
0
POLYLINE
8
CUT
66
1
70
0
0
VERTEX
8
CUT
10
32.0785
20
60.2718
0
VERTEX
8
CUT
10
30.1569
20
63.6
0
VERTEX
8
CUT
10
34
20
63.6
0
SEQEND
0
POLYLINE
8
CUT
66
1
70
0
0
VERTEX
8
CUT
10
36
20
63.6
0
VERTEX
8
CUT
10
39.8431
20
63.6
0
VERTEX
8
CUT
10
37.9215
20
60.2718
0
SEQEND
0
POLYLINE
8
CUT
66
1
70
0
0
VERTEX
8
CUT
10
36.9215
20
58.5397
0
VERTEX
8
CUT
10
35
20
55.2115
0
VERTEX
8
CUT
10
33.0785
20
58.5397
0
SEQEND
0
LINE
8
CUT
10
33.2354
20
62.4
11
36.7646
21
62.4
0
LINE
8
CUT
10
37.2646
20
61.534
11
35.5
21
58.4776
0
LINE
8
CUT
10
34.5
20
58.4776
11
32.7354
21
61.534
0
LINE
8
CUT
10
38.0785
20
51.6115
11
49.9215
21
51.6115
0
LINE
8
CUT
10
50.4215
20
52.4776
11
44.5
21
62.734
0
LINE
8
CUT
10
43.5
20
62.734
11
37.5785
21
52.4776
0
POLYLINE
8
CUT
66
1
70
0
0
VERTEX
8
CUT
10
41.0785
20
56.1397
0
VERTEX
8
CUT
10
39.1569
20
52.8115
0
VERTEX
8
CUT
10
43
20
52.8115
0
SEQEND
0
POLYLINE
8
CUT
66
1
70
0
0
VERTEX
8
CUT
10
45
20
52.8115
0
VERTEX
8
CUT
10
48.8431
20
52.8115
0
VERTEX
8
CUT
10
46.9215
20
56.1397
0
SEQEND
0
POLYLINE
8
CUT
66
1
70
0
0
VERTEX
8
CUT
10
45.9215
20
57.8718
0
VERTEX
8
CUT
10
44
20
61.2
0
VERTEX
8
CUT
10
42.0785
20
57.8718
0
SEQEND
0
LINE
8
CUT
10
42.2354
20
54.0115
11
45.7646
21
54.0115
0
LINE
8
CUT
10
46.2646
20
54.8776
11
44.5
21
57.934
0
LINE
8
CUT
10
43.5
20
57.934
11
41.7354
21
54.8776
0
LINE
8
CUT
10
47.0785
20
64.8
11
58.9215
21
64.8
0
LINE
8
CUT
10
59.4215
20
63.934
11
53.5
21
53.6776
0
LINE
8
CUT
10
52.5
20
53.6776
11
46.5785
21
63.934
0
POLYLINE
8
CUT
66
1
70
0
0
VERTEX
8
CUT
10
50.0785
20
60.2718
0
VERTEX
8
CUT
10
48.1569
20
63.6
0
VERTEX
8
CUT
10
52
20
63.6
0
SEQEND
0
POLYLINE
8
CUT
66
1
70
0
0
VERTEX
8
CUT
10
54
20
63.6
0
VERTEX
8
CUT
10
57.8431
20
63.6
0
VERTEX
8
CUT
10
55.9215
20
60.2718
0
SEQEND
0
POLYLINE
8
CUT
66
1
70
0
0
VERTEX
8
CUT
10
54.9215
20
58.5397
0
VERTEX
8
CUT
10
53
20
55.2115
0
VERTEX
8
CUT
10
51.0785
20
58.5397
0
SEQEND
0
LINE
8
CUT
10
51.2354
20
62.4
11
54.7646
21
62.4
0
LINE
8
CUT
10
55.2646
20
61.534
11
53.5
21
58.4776
0
LINE
8
CUT
10
52.5
20
58.4776
11
50.7354
21
61.534
0
LINE
8
CUT
10
56.0785
20
51.6115
11
62
21
51.6115
0
LINE
8
CUT
10
61.5
20
62.734
11
55.5785
21
52.4776
0
POLYLINE
8
CUT
66
1
70
0
0
VERTEX
8
CUT
10
59.0785
20
56.1397
0
VERTEX
8
CUT
10
57.1569
20
52.8115
0
VERTEX
8
CUT
10
61
20
52.8115
0
SEQEND
0
POLYLINE
8
CUT
66
1
70
0
0
VERTEX
8
CUT
10
62
20
61.2
0
VERTEX
8
CUT
10
62
20
61.2
0
VERTEX
8
CUT
10
60.0785
20
57.8718
0
SEQEND
0
LINE
8
CUT
10
60.2354
20
54.0115
11
62
21
54.0115
0
LINE
8
CUT
10
61.5
20
57.934
11
59.7354
21
54.8776
0
LINE
8
CUT
10
8
20
49.2115
11
13.9215
21
49.2115
0
LINE
8
CUT
10
14.4215
20
48.3455
11
8.5
21
38.0891
0
POLYLINE
8
CUT
66
1
70
0
0
VERTEX
8
CUT
10
9
20
48.0115
0
VERTEX
8
CUT
10
12.8431
20
48.0115
0
VERTEX
8
CUT
10
10.9215
20
44.6833
0
SEQEND
0
POLYLINE
8
CUT
66
1
70
0
0
VERTEX
8
CUT
10
9.9215
20
42.9513
0
VERTEX
8
CUT
10
8
20
39.6231
0
VERTEX
8
CUT
10
8
20
39.6231
0
SEQEND
0
LINE
8
CUT
10
8
20
46.8115
11
9.7646
21
46.8115
0
LINE
8
CUT
10
10.2646
20
45.9455
11
8.5
21
42.8891
0
LINE
8
CUT
10
11.0785
20
36.0231
11
22.9215
21
36.0231
0
LINE
8
CUT
10
23.4215
20
36.8891
11
17.5
21
47.1455
0
LINE
8
CUT
10
16.5
20
47.1455
11
10.5785
21
36.8891
0
POLYLINE
8
CUT
66
1
70
0
0
VERTEX
8
CUT
10
14.0785
20
40.5513
0
VERTEX
8
CUT
10
12.1569
20
37.2231
0
VERTEX
8
CUT
10
16
20
37.2231
0
SEQEND
0
POLYLINE
8
CUT
66
1
70
0
0
VERTEX
8
CUT
10
18
20
37.2231
0
VERTEX
8
CUT
10
21.8431
20
37.2231
0
VERTEX
8
CUT
10
19.9215
20
40.5513
0
SEQEND
0
POLYLINE
8
CUT
66
1
70
0
0
VERTEX
8
CUT
10
18.9215
20
42.2833
0
VERTEX
8
CUT
10
17
20
45.6115
0
VERTEX
8
CUT
10
15.0785
20
42.2833
0
SEQEND
0
LINE
8
CUT
10
15.2354
20
38.4231
11
18.7646
21
38.4231
0
LINE
8
CUT
10
19.2646
20
39.2891
11
17.5
21
42.3455
0
LINE
8
CUT
10
16.5
20
42.3455
11
14.7354
21
39.2891
0
LINE
8
CUT
10
20.0785
20
49.2115
11
31.9215
21
49.2115
0
LINE
8
CUT
10
32.4215
20
48.3455
11
26.5
21
38.0891
0
LINE
8
CUT
10
25.5
20
38.0891
11
19.5785
21
48.3455
0
POLYLINE
8
CUT
66
1
70
0
0
VERTEX
8
CUT
10
23.0785
20
44.6833
0
VERTEX
8
CUT
10
21.1569
20
48.0115
0
VERTEX
8
CUT
10
25
20
48.0115
0
SEQEND
0
POLYLINE
8
CUT
66
1
70
0
0
VERTEX
8
CUT
10
27
20
48.0115
0
VERTEX
8
CUT
10
30.8431
20
48.0115
0
VERTEX
8
CUT
10
28.9215
20
44.6833
0
SEQEND
0
POLYLINE
8
CUT
66
1
70
0
0
VERTEX
8
CUT
10
27.9215
20
42.9513
0
VERTEX
8
CUT
10
26
20
39.6231
0
VERTEX
8
CUT
10
24.0785
20
42.9513
0
SEQEND
0
LINE
8
CUT
10
24.2354
20
46.8115
11
27.7646
21
46.8115
0
LINE
8
CUT
10
28.2646
20
45.9455
11
26.5
21
42.8891
0
LINE
8
CUT
10
25.5
20
42.8891
11
23.7354
21
45.9455
0
LINE
8
CUT
10
29.0785
20
36.0231
11
40.9215
21
36.0231
0
LINE
8
CUT
10
41.4215
20
36.8891
11
35.5
21
47.1455
0
LINE
8
CUT
10
34.5
20
47.1455
11
28.5785
21
36.8891
0
POLYLINE
8
CUT
66
1
70
0
0
VERTEX
8
CUT
10
32.0785
20
40.5513
0
VERTEX
8
CUT
10
30.1569
20
37.2231
0
VERTEX
8
CUT
10
34
20
37.2231
0
SEQEND
0
POLYLINE
8
CUT
66
1
70
0
0
VERTEX
8
CUT
10
36
20
37.2231
0
VERTEX
8
CUT
10
39.8431
20
37.2231
0
VERTEX
8
CUT
10
37.9215
20
40.5513
0
SEQEND
0
POLYLINE
8
CUT
66
1
70
0
0
VERTEX
8
CUT
10
36.9215
20
42.2833
0
VERTEX
8
CUT
10
35
20
45.6115
0
VERTEX
8
CUT
10
33.0785
20
42.2833
0
SEQEND
0
LINE
8
CUT
10
33.2354
20
38.4231
11
36.7646
21
38.4231
0
LINE
8
CUT
10
37.2646
20
39.2891
11
35.5
21
42.3455
0
LINE
8
CUT
10
34.5
20
42.3455
11
32.7354
21
39.2891
0
LINE
8
CUT
10
38.0785
20
49.2115
11
49.9215
21
49.2115
0
LINE
8
CUT
10
50.4215
20
48.3455
11
44.5
21
38.0891
0
LINE
8
CUT
10
43.5
20
38.0891
11
37.5785
21
48.3455
0
POLYLINE
8
CUT
66
1
70
0
0
VERTEX
8
CUT
10
41.0785
20
44.6833
0
VERTEX
8
CUT
10
39.1569
20
48.0115
0
VERTEX
8
CUT
10
43
20
48.0115
0
SEQEND
0
POLYLINE
8
CUT
66
1
70
0
0
VERTEX
8
CUT
10
45
20
48.0115
0
VERTEX
8
CUT
10
48.8431
20
48.0115
0
VERTEX
8
CUT
10
46.9215
20
44.6833
0
SEQEND
0
POLYLINE
8
CUT
66
1
70
0
0
VERTEX
8
CUT
10
45.9215
20
42.9513
0
VERTEX
8
CUT
10
44
20
39.6231
0
VERTEX
8
CUT
10
42.0785
20
42.9513
0
SEQEND
0
LINE
8
CUT
10
42.2354
20
46.8115
11
45.7646
21
46.8115
0
LINE
8
CUT
10
46.2646
20
45.9455
11
44.5
21
42.8891
0
LINE
8
CUT
10
43.5
20
42.8891
11
41.7354
21
45.9455
0
LINE
8
CUT
10
47.0785
20
36.0231
11
58.9215
21
36.0231
0
LINE
8
CUT
10
59.4215
20
36.8891
11
53.5
21
47.1455
0
LINE
8
CUT
10
52.5
20
47.1455
11
46.5785
21
36.8891
0
POLYLINE
8
CUT
66
1
70
0
0
VERTEX
8
CUT
10
50.0785
20
40.5513
0
VERTEX
8
CUT
10
48.1569
20
37.2231
0
VERTEX
8
CUT
10
52
20
37.2231
0
SEQEND
0
POLYLINE
8
CUT
66
1
70
0
0
VERTEX
8
CUT
10
54
20
37.2231
0
VERTEX
8
CUT
10
57.8431
20
37.2231
0
VERTEX
8
CUT
10
55.9215
20
40.5513
0
SEQEND
0
POLYLINE
8
CUT
66
1
70
0
0
VERTEX
8
CUT
10
54.9215
20
42.2833
0
VERTEX
8
CUT
10
53
20
45.6115
0
VERTEX
8
CUT
10
51.0785
20
42.2833
0
SEQEND
0
LINE
8
CUT
10
51.2354
20
38.4231
11
54.7646
21
38.4231
0
LINE
8
CUT
10
55.2646
20
39.2891
11
53.5
21
42.3455
0
LINE
8
CUT
10
52.5
20
42.3455
11
50.7354
21
39.2891
0
LINE
8
CUT
10
56.0785
20
49.2115
11
62
21
49.2115
0
LINE
8
CUT
10
61.5
20
38.0891
11
55.5785
21
48.3455
0
POLYLINE
8
CUT
66
1
70
0
0
VERTEX
8
CUT
10
59.0785
20
44.6833
0
VERTEX
8
CUT
10
57.1569
20
48.0115
0
VERTEX
8
CUT
10
61
20
48.0115
0
SEQEND
0
POLYLINE
8
CUT
66
1
70
0
0
VERTEX
8
CUT
10
62
20
39.6231
0
VERTEX
8
CUT
10
62
20
39.6231
0
VERTEX
8
CUT
10
60.0785
20
42.9513
0
SEQEND
0
LINE
8
CUT
10
60.2354
20
46.8115
11
62
21
46.8115
0
LINE
8
CUT
10
61.5
20
42.8891
11
59.7354
21
45.9455
0
LINE
8
CUT
10
2.5
20
36
11
2.5
21
39
0
LINE
8
CUT
10
5
20
36
11
5
21
39
0
LINE
8
CUT
10
7.5
20
36
11
7.5
21
39
0
LINE
8
CUT
10
10
20
36
11
10
21
39
0
POLYLINE
8
CUT
66
1
70
0
0
VERTEX
8
CUT
10
0
20
30
0
VERTEX
8
CUT
10
70
20
30
0
VERTEX
8
CUT
10
70
20
0
0
VERTEX
8
CUT
10
0
20
0
0
VERTEX
8
CUT
10
0
20
30
0
SEQEND
0
LINE
8
CUT
10
8
20
15.8115
11
13.5751
21
15.8115
0
LINE
8
CUT
10
14.0751
20
16.6776
11
8.5
21
26.334
0
POLYLINE
8
CUT
66
1
70
0
0
VERTEX
8
CUT
10
9
20
17.2115
0
VERTEX
8
CUT
10
12.1503
20
17.2115
0
VERTEX
8
CUT
10
10.5751
20
19.9397
0
SEQEND
0
POLYLINE
8
CUT
66
1
70
0
0
VERTEX
8
CUT
10
9.5751
20
21.6718
0
VERTEX
8
CUT
10
8
20
24.4
0
VERTEX
8
CUT
10
8
20
24.4
0
SEQEND
0
LINE
8
CUT
10
11.4249
20
28.6
11
22.5751
21
28.6
0
LINE
8
CUT
10
23.0751
20
27.734
11
17.5
21
18.0776
0
LINE
8
CUT
10
16.5
20
18.0776
11
10.9249
21
27.734
0
POLYLINE
8
CUT
66
1
70
0
0
VERTEX
8
CUT
10
14.4249
20
24.4718
0
VERTEX
8
CUT
10
12.8497
20
27.2
0
VERTEX
8
CUT
10
16
20
27.2
0
SEQEND
0
POLYLINE
8
CUT
66
1
70
0
0
VERTEX
8
CUT
10
18
20
27.2
0
VERTEX
8
CUT
10
21.1503
20
27.2
0
VERTEX
8
CUT
10
19.5751
20
24.4718
0
SEQEND
0
POLYLINE
8
CUT
66
1
70
0
0
VERTEX
8
CUT
10
18.5751
20
22.7397
0
VERTEX
8
CUT
10
17
20
20.0115
0
VERTEX
8
CUT
10
15.4249
20
22.7397
0
SEQEND
0
LINE
8
CUT
10
20.4249
20
15.8115
11
31.5751
21
15.8115
0
LINE
8
CUT
10
32.0751
20
16.6776
11
26.5
21
26.334
0
LINE
8
CUT
10
25.5
20
26.334
11
19.9249
21
16.6776
0
POLYLINE
8
CUT
66
1
70
0
0
VERTEX
8
CUT
10
23.4249
20
19.9397
0
VERTEX
8
CUT
10
21.8497
20
17.2115
0
VERTEX
8
CUT
10
25
20
17.2115
0
SEQEND
0
POLYLINE
8
CUT
66
1
70
0
0
VERTEX
8
CUT
10
27
20
17.2115
0
VERTEX
8
CUT
10
30.1503
20
17.2115
0
VERTEX
8
CUT
10
28.5751
20
19.9397
0
SEQEND
0
POLYLINE
8
CUT
66
1
70
0
0
VERTEX
8
CUT
10
27.5751
20
21.6718
0
VERTEX
8
CUT
10
26
20
24.4
0
VERTEX
8
CUT
10
24.4249
20
21.6718
0
SEQEND
0
LINE
8
CUT
10
29.4249
20
28.6
11
40.5751
21
28.6
0
LINE
8
CUT
10
41.0751
20
27.734
11
35.5
21
18.0776
0
LINE
8
CUT
10
34.5
20
18.0776
11
28.9249
21
27.734
0
POLYLINE
8
CUT
66
1
70
0
0
VERTEX
8
CUT
10
32.4249
20
24.4718
0
VERTEX
8
CUT
10
30.8497
20
27.2
0
VERTEX
8
CUT
10
34
20
27.2
0
SEQEND
0
POLYLINE
8
CUT
66
1
70
0
0
VERTEX
8
CUT
10
36
20
27.2
0
VERTEX
8
CUT
10
39.1503
20
27.2
0
VERTEX
8
CUT
10
37.5751
20
24.4718
0
SEQEND
0
POLYLINE
8
CUT
66
1
70
0
0
VERTEX
8
CUT
10
36.5751
20
22.7397
0
VERTEX
8
CUT
10
35
20
20.0115
0
VERTEX
8
CUT
10
33.4249
20
22.7397
0
SEQEND
0
LINE
8
CUT
10
38.4249
20
15.8115
11
49.5751
21
15.8115
0
LINE
8
CUT
10
50.0751
20
16.6776
11
44.5
21
26.334
0
LINE
8
CUT
10
43.5
20
26.334
11
37.9249
21
16.6776
0
POLYLINE
8
CUT
66
1
70
0
0
VERTEX
8
CUT
10
41.4249
20
19.9397
0
VERTEX
8
CUT
10
39.8497
20
17.2115
0
VERTEX
8
CUT
10
43
20
17.2115
0
SEQEND
0
POLYLINE
8
CUT
66
1
70
0
0
VERTEX
8
CUT
10
45
20
17.2115
0
VERTEX
8
CUT
10
48.1503
20
17.2115
0
VERTEX
8
CUT
10
46.5751
20
19.9397
0
SEQEND
0
POLYLINE
8
CUT
66
1
70
0
0
VERTEX
8
CUT
10
45.5751
20
21.6718
0
VERTEX
8
CUT
10
44
20
24.4
0
VERTEX
8
CUT
10
42.4249
20
21.6718
0
SEQEND
0
LINE
8
CUT
10
47.4249
20
28.6
11
58.5751
21
28.6
0
LINE
8
CUT
10
59.0751
20
27.734
11
53.5
21
18.0776
0
LINE
8
CUT
10
52.5
20
18.0776
11
46.9249
21
27.734
0
POLYLINE
8
CUT
66
1
70
0
0
VERTEX
8
CUT
10
50.4249
20
24.4718
0
VERTEX
8
CUT
10
48.8497
20
27.2
0
VERTEX
8
CUT
10
52
20
27.2
0
SEQEND
0
POLYLINE
8
CUT
66
1
70
0
0
VERTEX
8
CUT
10
54
20
27.2
0
VERTEX
8
CUT
10
57.1503
20
27.2
0
VERTEX
8
CUT
10
55.5751
20
24.4718
0
SEQEND
0
POLYLINE
8
CUT
66
1
70
0
0
VERTEX
8
CUT
10
54.5751
20
22.7397
0
VERTEX
8
CUT
10
53
20
20.0115
0
VERTEX
8
CUT
10
51.4249
20
22.7397
0
SEQEND
0
LINE
8
CUT
10
56.4249
20
15.8115
11
62
21
15.8115
0
LINE
8
CUT
10
61.5
20
26.334
11
55.9249
21
16.6776
0
POLYLINE
8
CUT
66
1
70
0
0
VERTEX
8
CUT
10
59.4249
20
19.9397
0
VERTEX
8
CUT
10
57.8497
20
17.2115
0
VERTEX
8
CUT
10
61
20
17.2115
0
SEQEND
0
POLYLINE
8
CUT
66
1
70
0
0
VERTEX
8
CUT
10
62
20
24.4
0
VERTEX
8
CUT
10
62
20
24.4
0
VERTEX
8
CUT
10
60.4249
20
21.6718
0
SEQEND
0
LINE
8
CUT
10
8
20
13.0115
11
13.5751
21
13.0115
0
LINE
8
CUT
10
14.0751
20
12.1455
11
8.5
21
2.4891
0
POLYLINE
8
CUT
66
1
70
0
0
VERTEX
8
CUT
10
9
20
11.6115
0
VERTEX
8
CUT
10
12.1503
20
11.6115
0
VERTEX
8
CUT
10
10.5751
20
8.8833
0
SEQEND
0
POLYLINE
8
CUT
66
1
70
0
0
VERTEX
8
CUT
10
9.5751
20
7.1513
0
VERTEX
8
CUT
10
8
20
4.4231
0
VERTEX
8
CUT
10
8
20
4.4231
0
SEQEND
0
LINE
8
CUT
10
11.4249
20
0.2231
11
22.5751
21
0.2231
0
LINE
8
CUT
10
23.0751
20
1.0891
11
17.5
21
10.7455
0
LINE
8
CUT
10
16.5
20
10.7455
11
10.9249
21
1.0891
0
POLYLINE
8
CUT
66
1
70
0
0
VERTEX
8
CUT
10
14.4249
20
4.3513
0
VERTEX
8
CUT
10
12.8497
20
1.6231
0
VERTEX
8
CUT
10
16
20
1.6231
0
SEQEND
0
POLYLINE
8
CUT
66
1
70
0
0
VERTEX
8
CUT
10
18
20
1.6231
0
VERTEX
8
CUT
10
21.1503
20
1.6231
0
VERTEX
8
CUT
10
19.5751
20
4.3513
0
SEQEND
0
POLYLINE
8
CUT
66
1
70
0
0
VERTEX
8
CUT
10
18.5751
20
6.0833
0
VERTEX
8
CUT
10
17
20
8.8115
0
VERTEX
8
CUT
10
15.4249
20
6.0833
0
SEQEND
0
LINE
8
CUT
10
20.4249
20
13.0115
11
31.5751
21
13.0115
0
LINE
8
CUT
10
32.0751
20
12.1455
11
26.5
21
2.4891
0
LINE
8
CUT
10
25.5
20
2.4891
11
19.9249
21
12.1455
0
POLYLINE
8
CUT
66
1
70
0
0
VERTEX
8
CUT
10
23.4249
20
8.8833
0
VERTEX
8
CUT
10
21.8497
20
11.6115
0
VERTEX
8
CUT
10
25
20
11.6115
0
SEQEND
0
POLYLINE
8
CUT
66
1
70
0
0
VERTEX
8
CUT
10
27
20
11.6115
0
VERTEX
8
CUT
10
30.1503
20
11.6115
0
VERTEX
8
CUT
10
28.5751
20
8.8833
0
SEQEND
0
POLYLINE
8
CUT
66
1
70
0
0
VERTEX
8
CUT
10
27.5751
20
7.1513
0
VERTEX
8
CUT
10
26
20
4.4231
0
VERTEX
8
CUT
10
24.4249
20
7.1513
0
SEQEND
0
LINE
8
CUT
10
29.4249
20
0.2231
11
40.5751
21
0.2231
0
LINE
8
CUT
10
41.0751
20
1.0891
11
35.5
21
10.7455
0
LINE
8
CUT
10
34.5
20
10.7455
11
28.9249
21
1.0891
0
POLYLINE
8
CUT
66
1
70
0
0
VERTEX
8
CUT
10
32.4249
20
4.3513
0
VERTEX
8
CUT
10
30.8497
20
1.6231
0
VERTEX
8
CUT
10
34
20
1.6231
0
SEQEND
0
POLYLINE
8
CUT
66
1
70
0
0
VERTEX
8
CUT
10
36
20
1.6231
0
VERTEX
8
CUT
10
39.1503
20
1.6231
0
VERTEX
8
CUT
10
37.5751
20
4.3513
0
SEQEND
0
POLYLINE
8
CUT
66
1
70
0
0
VERTEX
8
CUT
10
36.5751
20
6.0833
0
VERTEX
8
CUT
10
35
20
8.8115
0
VERTEX
8
CUT
10
33.4249
20
6.0833
0
SEQEND
0
LINE
8
CUT
10
38.4249
20
13.0115
11
49.5751
21
13.0115
0
LINE
8
CUT
10
50.0751
20
12.1455
11
44.5
21
2.4891
0
LINE
8
CUT
10
43.5
20
2.4891
11
37.9249
21
12.1455
0
POLYLINE
8
CUT
66
1
70
0
0
VERTEX
8
CUT
10
41.4249
20
8.8833
0
VERTEX
8
CUT
10
39.8497
20
11.6115
0
VERTEX
8
CUT
10
43
20
11.6115
0
SEQEND
0
POLYLINE
8
CUT
66
1
70
0
0
VERTEX
8
CUT
10
45
20
11.6115
0
VERTEX
8
CUT
10
48.1503
20
11.6115
0
VERTEX
8
CUT
10
46.5751
20
8.8833
0
SEQEND
0
POLYLINE
8
CUT
66
1
70
0
0
VERTEX
8
CUT
10
45.5751
20
7.1513
0
VERTEX
8
CUT
10
44
20
4.4231
0
VERTEX
8
CUT
10
42.4249
20
7.1513
0
SEQEND
0
LINE
8
CUT
10
47.4249
20
0.2231
11
58.5751
21
0.2231
0
LINE
8
CUT
10
59.0751
20
1.0891
11
53.5
21
10.7455
0
LINE
8
CUT
10
52.5
20
10.7455
11
46.9249
21
1.0891
0
POLYLINE
8
CUT
66
1
70
0
0
VERTEX
8
CUT
10
50.4249
20
4.3513
0
VERTEX
8
CUT
10
48.8497
20
1.6231
0
VERTEX
8
CUT
10
52
20
1.6231
0
SEQEND
0
POLYLINE
8
CUT
66
1
70
0
0
VERTEX
8
CUT
10
54
20
1.6231
0
VERTEX
8
CUT
10
57.1503
20
1.6231
0
VERTEX
8
CUT
10
55.5751
20
4.3513
0
SEQEND
0
POLYLINE
8
CUT
66
1
70
0
0
VERTEX
8
CUT
10
54.5751
20
6.0833
0
VERTEX
8
CUT
10
53
20
8.8115
0
VERTEX
8
CUT
10
51.4249
20
6.0833
0
SEQEND
0
LINE
8
CUT
10
56.4249
20
13.0115
11
62
21
13.0115
0
LINE
8
CUT
10
61.5
20
2.4891
11
55.9249
21
12.1455
0
POLYLINE
8
CUT
66
1
70
0
0
VERTEX
8
CUT
10
59.4249
20
8.8833
0
VERTEX
8
CUT
10
57.8497
20
11.6115
0
VERTEX
8
CUT
10
61
20
11.6115
0
SEQEND
0
POLYLINE
8
CUT
66
1
70
0
0
VERTEX
8
CUT
10
62
20
4.4231
0
VERTEX
8
CUT
10
62
20
4.4231
0
VERTEX
8
CUT
10
60.4249
20
7.1513
0
SEQEND
0
LINE
8
CUT
10
2.5
20
0
11
2.5
21
3
0
LINE
8
CUT
10
5
20
0
11
5
21
3
0
LINE
8
CUT
10
7.5
20
0
11
7.5
21
3
0
LINE
8
CUT
10
10
20
0
11
10
21
3
0
LINE
8
CUT
10
12.5
20
0
11
12.5
21
3
0
ENDSEC
0
EOF
