0
SECTION
2
HEADER
9
$ACADVER
1
AC1009
9
$INSUNITS
70
4
0
ENDSEC
0
SECTION
2
TABLES
0
TABLE
2
LAYER
70
1
0
LAYER
2
CUT
70
0
62
1
6
CONTINUOUS
0
ENDTAB
0
ENDSEC
0
SECTION
2
ENTITIES
0
POLYLINE
8
CUT
66
1
70
0
0
VERTEX
8
CUT
10
0
20
174
0
VERTEX
8
CUT
10
70
20
174
0
VERTEX
8
CUT
10
70
20
144
0
VERTEX
8
CUT
10
0
20
144
0
VERTEX
8
CUT
10
0
20
174
0
SEQEND
0
LINE
8
CUT
10
8
20
173.1262
11
9.03
21
173.77
0
LINE
8
CUT
10
8
20
171.8738
11
9.03
21
171.23
0
LINE
8
CUT
10
8
20
169.5263
11
9.03
21
170.17
0
LINE
8
CUT
10
8
20
168.2738
11
9.03
21
167.63
0
LINE
8
CUT
10
8
20
165.9263
11
9.03
21
166.57
0
LINE
8
CUT
10
8
20
164.6737
11
9.03
21
164.03
0
LINE
8
CUT
10
8
20
162.3263
11
9.03
21
162.97
0
LINE
8
CUT
10
8
20
161.0737
11
9.03
21
160.43
0
LINE
8
CUT
10
8
20
158.7262
11
9.03
21
159.37
0
LINE
8
CUT
10
8
20
157.4737
11
9.03
21
156.83
0
LINE
8
CUT
10
8
20
155.1262
11
9.03
21
155.77
0
LINE
8
CUT
10
8
20
153.8738
11
9.03
21
153.23
0
LINE
8
CUT
10
8
20
151.5263
11
9.03
21
152.17
0
LINE
8
CUT
10
8
20
150.2738
11
9.03
21
149.63
0
LINE
8
CUT
10
8
20
147.9263
11
9.03
21
148.57
0
LINE
8
CUT
10
8
20
146.6737
11
9.03
21
146.03
0
LINE
8
CUT
10
8
20
144.3263
11
9.03
21
144.97
0
POLYLINE
8
CUT
66
1
70
0
0
VERTEX
8
CUT
10
8.848
20
173.03
0
VERTEX
8
CUT
10
10.4
20
174
0
VERTEX
8
CUT
10
17.6
20
174
0
VERTEX
8
CUT
10
19.152
20
173.03
0
SEQEND
0
POLYLINE
8
CUT
66
1
70
0
0
VERTEX
8
CUT
10
8.848
20
171.97
0
VERTEX
8
CUT
10
10.4
20
171
0
VERTEX
8
CUT
10
17.6
20
171
0
VERTEX
8
CUT
10
19.152
20
171.97
0
SEQEND
0
POLYLINE
8
CUT
66
1
70
0
0
VERTEX
8
CUT
10
8.848
20
169.43
0
VERTEX
8
CUT
10
10.4
20
170.4
0
VERTEX
8
CUT
10
17.6
20
170.4
0
VERTEX
8
CUT
10
19.152
20
169.43
0
SEQEND
0
POLYLINE
8
CUT
66
1
70
0
0
VERTEX
8
CUT
10
8.848
20
168.37
0
VERTEX
8
CUT
10
10.4
20
167.4
0
VERTEX
8
CUT
10
17.6
20
167.4
0
VERTEX
8
CUT
10
19.152
20
168.37
0
SEQEND
0
POLYLINE
8
CUT
66
1
70
0
0
VERTEX
8
CUT
10
8.848
20
165.83
0
VERTEX
8
CUT
10
10.4
20
166.8
0
VERTEX
8
CUT
10
17.6
20
166.8
0
VERTEX
8
CUT
10
19.152
20
165.83
0
SEQEND
0
POLYLINE
8
CUT
66
1
70
0
0
VERTEX
8
CUT
10
8.848
20
164.77
0
VERTEX
8
CUT
10
10.4
20
163.8
0
VERTEX
8
CUT
10
17.6
20
163.8
0
VERTEX
8
CUT
10
19.152
20
164.77
0
SEQEND
0
POLYLINE
8
CUT
66
1
70
0
0
VERTEX
8
CUT
10
8.848
20
162.23
0
VERTEX
8
CUT
10
10.4
20
163.2
0
VERTEX
8
CUT
10
17.6
20
163.2
0
VERTEX
8
CUT
10
19.152
20
162.23
0
SEQEND
0
POLYLINE
8
CUT
66
1
70
0
0
VERTEX
8
CUT
10
8.848
20
161.17
0
VERTEX
8
CUT
10
10.4
20
160.2
0
VERTEX
8
CUT
10
17.6
20
160.2
0
VERTEX
8
CUT
10
19.152
20
161.17
0
SEQEND
0
POLYLINE
8
CUT
66
1
70
0
0
VERTEX
8
CUT
10
8.848
20
158.63
0
VERTEX
8
CUT
10
10.4
20
159.6
0
VERTEX
8
CUT
10
17.6
20
159.6
0
VERTEX
8
CUT
10
19.152
20
158.63
0
SEQEND
0
POLYLINE
8
CUT
66
1
70
0
0
VERTEX
8
CUT
10
8.848
20
157.57
0
VERTEX
8
CUT
10
10.4
20
156.6
0
VERTEX
8
CUT
10
17.6
20
156.6
0
VERTEX
8
CUT
10
19.152
20
157.57
0
SEQEND
0
POLYLINE
8
CUT
66
1
70
0
0
VERTEX
8
CUT
10
8.848
20
155.03
0
VERTEX
8
CUT
10
10.4
20
156
0
VERTEX
8
CUT
10
17.6
20
156
0
VERTEX
8
CUT
10
19.152
20
155.03
0
SEQEND
0
POLYLINE
8
CUT
66
1
70
0
0
VERTEX
8
CUT
10
8.848
20
153.97
0
VERTEX
8
CUT
10
10.4
20
153
0
VERTEX
8
CUT
10
17.6
20
153
0
VERTEX
8
CUT
10
19.152
20
153.97
0
SEQEND
0
POLYLINE
8
CUT
66
1
70
0
0
VERTEX
8
CUT
10
8.848
20
151.43
0
VERTEX
8
CUT
10
10.4
20
152.4
0
VERTEX
8
CUT
10
17.6
20
152.4
0
VERTEX
8
CUT
10
19.152
20
151.43
0
SEQEND
0
POLYLINE
8
CUT
66
1
70
0
0
VERTEX
8
CUT
10
8.848
20
150.37
0
VERTEX
8
CUT
10
10.4
20
149.4
0
VERTEX
8
CUT
10
17.6
20
149.4
0
VERTEX
8
CUT
10
19.152
20
150.37
0
SEQEND
0
POLYLINE
8
CUT
66
1
70
0
0
VERTEX
8
CUT
10
8.848
20
147.83
0
VERTEX
8
CUT
10
10.4
20
148.8
0
VERTEX
8
CUT
10
17.6
20
148.8
0
VERTEX
8
CUT
10
19.152
20
147.83
0
SEQEND
0
POLYLINE
8
CUT
66
1
70
0
0
VERTEX
8
CUT
10
8.848
20
146.77
0
VERTEX
8
CUT
10
10.4
20
145.8
0
VERTEX
8
CUT
10
17.6
20
145.8
0
VERTEX
8
CUT
10
19.152
20
146.77
0
SEQEND
0
POLYLINE
8
CUT
66
1
70
0
0
VERTEX
8
CUT
10
8.848
20
144.23
0
VERTEX
8
CUT
10
10.4
20
145.2
0
VERTEX
8
CUT
10
17.6
20
145.2
0
VERTEX
8
CUT
10
19.152
20
144.23
0
SEQEND
0
POLYLINE
8
CUT
66
1
70
0
0
VERTEX
8
CUT
10
18.97
20
173.77
0
VERTEX
8
CUT
10
20.522
20
172.8
0
VERTEX
8
CUT
10
27.722
20
172.8
0
VERTEX
8
CUT
10
29.274
20
173.77
0
SEQEND
0
POLYLINE
8
CUT
66
1
70
0
0
VERTEX
8
CUT
10
18.97
20
171.23
0
VERTEX
8
CUT
10
20.522
20
172.2
0
VERTEX
8
CUT
10
27.722
20
172.2
0
VERTEX
8
CUT
10
29.274
20
171.23
0
SEQEND
0
POLYLINE
8
CUT
66
1
70
0
0
VERTEX
8
CUT
10
18.97
20
170.17
0
VERTEX
8
CUT
10
20.522
20
169.2
0
VERTEX
8
CUT
10
27.722
20
169.2
0
VERTEX
8
CUT
10
29.274
20
170.17
0
SEQEND
0
POLYLINE
8
CUT
66
1
70
0
0
VERTEX
8
CUT
10
18.97
20
167.63
0
VERTEX
8
CUT
10
20.522
20
168.6
0
VERTEX
8
CUT
10
27.722
20
168.6
0
VERTEX
8
CUT
10
29.274
20
167.63
0
SEQEND
0
POLYLINE
8
CUT
66
1
70
0
0
VERTEX
8
CUT
10
18.97
20
166.57
0
VERTEX
8
CUT
10
20.522
20
165.6
0
VERTEX
8
CUT
10
27.722
20
165.6
0
VERTEX
8
CUT
10
29.274
20
166.57
0
SEQEND
0
POLYLINE
8
CUT
66
1
70
0
0
VERTEX
8
CUT
10
18.97
20
164.03
0
VERTEX
8
CUT
10
20.522
20
165
0
VERTEX
8
CUT
10
27.722
20
165
0
VERTEX
8
CUT
10
29.274
20
164.03
0
SEQEND
0
POLYLINE
8
CUT
66
1
70
0
0
VERTEX
8
CUT
10
18.97
20
162.97
0
VERTEX
8
CUT
10
20.522
20
162
0
VERTEX
8
CUT
10
27.722
20
162
0
VERTEX
8
CUT
10
29.274
20
162.97
0
SEQEND
0
POLYLINE
8
CUT
66
1
70
0
0
VERTEX
8
CUT
10
18.97
20
160.43
0
VERTEX
8
CUT
10
20.522
20
161.4
0
VERTEX
8
CUT
10
27.722
20
161.4
0
VERTEX
8
CUT
10
29.274
20
160.43
0
SEQEND
0
POLYLINE
8
CUT
66
1
70
0
0
VERTEX
8
CUT
10
18.97
20
159.37
0
VERTEX
8
CUT
10
20.522
20
158.4
0
VERTEX
8
CUT
10
27.722
20
158.4
0
VERTEX
8
CUT
10
29.274
20
159.37
0
SEQEND
0
POLYLINE
8
CUT
66
1
70
0
0
VERTEX
8
CUT
10
18.97
20
156.83
0
VERTEX
8
CUT
10
20.522
20
157.8
0
VERTEX
8
CUT
10
27.722
20
157.8
0
VERTEX
8
CUT
10
29.274
20
156.83
0
SEQEND
0
POLYLINE
8
CUT
66
1
70
0
0
VERTEX
8
CUT
10
18.97
20
155.77
0
VERTEX
8
CUT
10
20.522
20
154.8
0
VERTEX
8
CUT
10
27.722
20
154.8
0
VERTEX
8
CUT
10
29.274
20
155.77
0
SEQEND
0
POLYLINE
8
CUT
66
1
70
0
0
VERTEX
8
CUT
10
18.97
20
153.23
0
VERTEX
8
CUT
10
20.522
20
154.2
0
VERTEX
8
CUT
10
27.722
20
154.2
0
VERTEX
8
CUT
10
29.274
20
153.23
0
SEQEND
0
POLYLINE
8
CUT
66
1
70
0
0
VERTEX
8
CUT
10
18.97
20
152.17
0
VERTEX
8
CUT
10
20.522
20
151.2
0
VERTEX
8
CUT
10
27.722
20
151.2
0
VERTEX
8
CUT
10
29.274
20
152.17
0
SEQEND
0
POLYLINE
8
CUT
66
1
70
0
0
VERTEX
8
CUT
10
18.97
20
149.63
0
VERTEX
8
CUT
10
20.522
20
150.6
0
VERTEX
8
CUT
10
27.722
20
150.6
0
VERTEX
8
CUT
10
29.274
20
149.63
0
SEQEND
0
POLYLINE
8
CUT
66
1
70
0
0
VERTEX
8
CUT
10
18.97
20
148.57
0
VERTEX
8
CUT
10
20.522
20
147.6
0
VERTEX
8
CUT
10
27.722
20
147.6
0
VERTEX
8
CUT
10
29.274
20
148.57
0
SEQEND
0
POLYLINE
8
CUT
66
1
70
0
0
VERTEX
8
CUT
10
18.97
20
146.03
0
VERTEX
8
CUT
10
20.522
20
147
0
VERTEX
8
CUT
10
27.722
20
147
0
VERTEX
8
CUT
10
29.274
20
146.03
0
SEQEND
0
POLYLINE
8
CUT
66
1
70
0
0
VERTEX
8
CUT
10
18.97
20
144.97
0
VERTEX
8
CUT
10
20.522
20
144
0
VERTEX
8
CUT
10
27.722
20
144
0
VERTEX
8
CUT
10
29.274
20
144.97
0
SEQEND
0
POLYLINE
8
CUT
66
1
70
0
0
VERTEX
8
CUT
10
29.092
20
173.03
0
VERTEX
8
CUT
10
30.644
20
174
0
VERTEX
8
CUT
10
37.844
20
174
0
VERTEX
8
CUT
10
39.396
20
173.03
0
SEQEND
0
POLYLINE
8
CUT
66
1
70
0
0
VERTEX
8
CUT
10
29.092
20
171.97
0
VERTEX
8
CUT
10
30.644
20
171
0
VERTEX
8
CUT
10
37.844
20
171
0
VERTEX
8
CUT
10
39.396
20
171.97
0
SEQEND
0
POLYLINE
8
CUT
66
1
70
0
0
VERTEX
8
CUT
10
29.092
20
169.43
0
VERTEX
8
CUT
10
30.644
20
170.4
0
VERTEX
8
CUT
10
37.844
20
170.4
0
VERTEX
8
CUT
10
39.396
20
169.43
0
SEQEND
0
POLYLINE
8
CUT
66
1
70
0
0
VERTEX
8
CUT
10
29.092
20
168.37
0
VERTEX
8
CUT
10
30.644
20
167.4
0
VERTEX
8
CUT
10
37.844
20
167.4
0
VERTEX
8
CUT
10
39.396
20
168.37
0
SEQEND
0
POLYLINE
8
CUT
66
1
70
0
0
VERTEX
8
CUT
10
29.092
20
165.83
0
VERTEX
8
CUT
10
30.644
20
166.8
0
VERTEX
8
CUT
10
37.844
20
166.8
0
VERTEX
8
CUT
10
39.396
20
165.83
0
SEQEND
0
POLYLINE
8
CUT
66
1
70
0
0
VERTEX
8
CUT
10
29.092
20
164.77
0
VERTEX
8
CUT
10
30.644
20
163.8
0
VERTEX
8
CUT
10
37.844
20
163.8
0
VERTEX
8
CUT
10
39.396
20
164.77
0
SEQEND
0
POLYLINE
8
CUT
66
1
70
0
0
VERTEX
8
CUT
10
29.092
20
162.23
0
VERTEX
8
CUT
10
30.644
20
163.2
0
VERTEX
8
CUT
10
37.844
20
163.2
0
VERTEX
8
CUT
10
39.396
20
162.23
0
SEQEND
0
POLYLINE
8
CUT
66
1
70
0
0
VERTEX
8
CUT
10
29.092
20
161.17
0
VERTEX
8
CUT
10
30.644
20
160.2
0
VERTEX
8
CUT
10
37.844
20
160.2
0
VERTEX
8
CUT
10
39.396
20
161.17
0
SEQEND
0
POLYLINE
8
CUT
66
1
70
0
0
VERTEX
8
CUT
10
29.092
20
158.63
0
VERTEX
8
CUT
10
30.644
20
159.6
0
VERTEX
8
CUT
10
37.844
20
159.6
0
VERTEX
8
CUT
10
39.396
20
158.63
0
SEQEND
0
POLYLINE
8
CUT
66
1
70
0
0
VERTEX
8
CUT
10
29.092
20
157.57
0
VERTEX
8
CUT
10
30.644
20
156.6
0
VERTEX
8
CUT
10
37.844
20
156.6
0
VERTEX
8
CUT
10
39.396
20
157.57
0
SEQEND
0
POLYLINE
8
CUT
66
1
70
0
0
VERTEX
8
CUT
10
29.092
20
155.03
0
VERTEX
8
CUT
10
30.644
20
156
0
VERTEX
8
CUT
10
37.844
20
156
0
VERTEX
8
CUT
10
39.396
20
155.03
0
SEQEND
0
POLYLINE
8
CUT
66
1
70
0
0
VERTEX
8
CUT
10
29.092
20
153.97
0
VERTEX
8
CUT
10
30.644
20
153
0
VERTEX
8
CUT
10
37.844
20
153
0
VERTEX
8
CUT
10
39.396
20
153.97
0
SEQEND
0
POLYLINE
8
CUT
66
1
70
0
0
VERTEX
8
CUT
10
29.092
20
151.43
0
VERTEX
8
CUT
10
30.644
20
152.4
0
VERTEX
8
CUT
10
37.844
20
152.4
0
VERTEX
8
CUT
10
39.396
20
151.43
0
SEQEND
0
POLYLINE
8
CUT
66
1
70
0
0
VERTEX
8
CUT
10
29.092
20
150.37
0
VERTEX
8
CUT
10
30.644
20
149.4
0
VERTEX
8
CUT
10
37.844
20
149.4
0
VERTEX
8
CUT
10
39.396
20
150.37
0
SEQEND
0
POLYLINE
8
CUT
66
1
70
0
0
VERTEX
8
CUT
10
29.092
20
147.83
0
VERTEX
8
CUT
10
30.644
20
148.8
0
VERTEX
8
CUT
10
37.844
20
148.8
0
VERTEX
8
CUT
10
39.396
20
147.83
0
SEQEND
0
POLYLINE
8
CUT
66
1
70
0
0
VERTEX
8
CUT
10
29.092
20
146.77
0
VERTEX
8
CUT
10
30.644
20
145.8
0
VERTEX
8
CUT
10
37.844
20
145.8
0
VERTEX
8
CUT
10
39.396
20
146.77
0
SEQEND
0
POLYLINE
8
CUT
66
1
70
0
0
VERTEX
8
CUT
10
29.092
20
144.23
0
VERTEX
8
CUT
10
30.644
20
145.2
0
VERTEX
8
CUT
10
37.844
20
145.2
0
VERTEX
8
CUT
10
39.396
20
144.23
0
SEQEND
0
POLYLINE
8
CUT
66
1
70
0
0
VERTEX
8
CUT
10
39.214
20
173.77
0
VERTEX
8
CUT
10
40.766
20
172.8
0
VERTEX
8
CUT
10
47.966
20
172.8
0
VERTEX
8
CUT
10
49.518
20
173.77
0
SEQEND
0
POLYLINE
8
CUT
66
1
70
0
0
VERTEX
8
CUT
10
39.214
20
171.23
0
VERTEX
8
CUT
10
40.766
20
172.2
0
VERTEX
8
CUT
10
47.966
20
172.2
0
VERTEX
8
CUT
10
49.518
20
171.23
0
SEQEND
0
POLYLINE
8
CUT
66
1
70
0
0
VERTEX
8
CUT
10
39.214
20
170.17
0
VERTEX
8
CUT
10
40.766
20
169.2
0
VERTEX
8
CUT
10
47.966
20
169.2
0
VERTEX
8
CUT
10
49.518
20
170.17
0
SEQEND
0
POLYLINE
8
CUT
66
1
70
0
0
VERTEX
8
CUT
10
39.214
20
167.63
0
VERTEX
8
CUT
10
40.766
20
168.6
0
VERTEX
8
CUT
10
47.966
20
168.6
0
VERTEX
8
CUT
10
49.518
20
167.63
0
SEQEND
0
POLYLINE
8
CUT
66
1
70
0
0
VERTEX
8
CUT
10
39.214
20
166.57
0
VERTEX
8
CUT
10
40.766
20
165.6
0
VERTEX
8
CUT
10
47.966
20
165.6
0
VERTEX
8
CUT
10
49.518
20
166.57
0
SEQEND
0
POLYLINE
8
CUT
66
1
70
0
0
VERTEX
8
CUT
10
39.214
20
164.03
0
VERTEX
8
CUT
10
40.766
20
165
0
VERTEX
8
CUT
10
47.966
20
165
0
VERTEX
8
CUT
10
49.518
20
164.03
0
SEQEND
0
POLYLINE
8
CUT
66
1
70
0
0
VERTEX
8
CUT
10
39.214
20
162.97
0
VERTEX
8
CUT
10
40.766
20
162
0
VERTEX
8
CUT
10
47.966
20
162
0
VERTEX
8
CUT
10
49.518
20
162.97
0
SEQEND
0
POLYLINE
8
CUT
66
1
70
0
0
VERTEX
8
CUT
10
39.214
20
160.43
0
VERTEX
8
CUT
10
40.766
20
161.4
0
VERTEX
8
CUT
10
47.966
20
161.4
0
VERTEX
8
CUT
10
49.518
20
160.43
0
SEQEND
0
POLYLINE
8
CUT
66
1
70
0
0
VERTEX
8
CUT
10
39.214
20
159.37
0
VERTEX
8
CUT
10
40.766
20
158.4
0
VERTEX
8
CUT
10
47.966
20
158.4
0
VERTEX
8
CUT
10
49.518
20
159.37
0
SEQEND
0
POLYLINE
8
CUT
66
1
70
0
0
VERTEX
8
CUT
10
39.214
20
156.83
0
VERTEX
8
CUT
10
40.766
20
157.8
0
VERTEX
8
CUT
10
47.966
20
157.8
0
VERTEX
8
CUT
10
49.518
20
156.83
0
SEQEND
0
POLYLINE
8
CUT
66
1
70
0
0
VERTEX
8
CUT
10
39.214
20
155.77
0
VERTEX
8
CUT
10
40.766
20
154.8
0
VERTEX
8
CUT
10
47.966
20
154.8
0
VERTEX
8
CUT
10
49.518
20
155.77
0
SEQEND
0
POLYLINE
8
CUT
66
1
70
0
0
VERTEX
8
CUT
10
39.214
20
153.23
0
VERTEX
8
CUT
10
40.766
20
154.2
0
VERTEX
8
CUT
10
47.966
20
154.2
0
VERTEX
8
CUT
10
49.518
20
153.23
0
SEQEND
0
POLYLINE
8
CUT
66
1
70
0
0
VERTEX
8
CUT
10
39.214
20
152.17
0
VERTEX
8
CUT
10
40.766
20
151.2
0
VERTEX
8
CUT
10
47.966
20
151.2
0
VERTEX
8
CUT
10
49.518
20
152.17
0
SEQEND
0
POLYLINE
8
CUT
66
1
70
0
0
VERTEX
8
CUT
10
39.214
20
149.63
0
VERTEX
8
CUT
10
40.766
20
150.6
0
VERTEX
8
CUT
10
47.966
20
150.6
0
VERTEX
8
CUT
10
49.518
20
149.63
0
SEQEND
0
POLYLINE
8
CUT
66
1
70
0
0
VERTEX
8
CUT
10
39.214
20
148.57
0
VERTEX
8
CUT
10
40.766
20
147.6
0
VERTEX
8
CUT
10
47.966
20
147.6
0
VERTEX
8
CUT
10
49.518
20
148.57
0
SEQEND
0
POLYLINE
8
CUT
66
1
70
0
0
VERTEX
8
CUT
10
39.214
20
146.03
0
VERTEX
8
CUT
10
40.766
20
147
0
VERTEX
8
CUT
10
47.966
20
147
0
VERTEX
8
CUT
10
49.518
20
146.03
0
SEQEND
0
POLYLINE
8
CUT
66
1
70
0
0
VERTEX
8
CUT
10
39.214
20
144.97
0
VERTEX
8
CUT
10
40.766
20
144
0
VERTEX
8
CUT
10
47.966
20
144
0
VERTEX
8
CUT
10
49.518
20
144.97
0
SEQEND
0
POLYLINE
8
CUT
66
1
70
0
0
VERTEX
8
CUT
10
49.336
20
173.03
0
VERTEX
8
CUT
10
50.888
20
174
0
VERTEX
8
CUT
10
58.088
20
174
0
VERTEX
8
CUT
10
59.64
20
173.03
0
SEQEND
0
POLYLINE
8
CUT
66
1
70
0
0
VERTEX
8
CUT
10
49.336
20
171.97
0
VERTEX
8
CUT
10
50.888
20
171
0
VERTEX
8
CUT
10
58.088
20
171
0
VERTEX
8
CUT
10
59.64
20
171.97
0
SEQEND
0
POLYLINE
8
CUT
66
1
70
0
0
VERTEX
8
CUT
10
49.336
20
169.43
0
VERTEX
8
CUT
10
50.888
20
170.4
0
VERTEX
8
CUT
10
58.088
20
170.4
0
VERTEX
8
CUT
10
59.64
20
169.43
0
SEQEND
0
POLYLINE
8
CUT
66
1
70
0
0
VERTEX
8
CUT
10
49.336
20
168.37
0
VERTEX
8
CUT
10
50.888
20
167.4
0
VERTEX
8
CUT
10
58.088
20
167.4
0
VERTEX
8
CUT
10
59.64
20
168.37
0
SEQEND
0
POLYLINE
8
CUT
66
1
70
0
0
VERTEX
8
CUT
10
49.336
20
165.83
0
VERTEX
8
CUT
10
50.888
20
166.8
0
VERTEX
8
CUT
10
58.088
20
166.8
0
VERTEX
8
CUT
10
59.64
20
165.83
0
SEQEND
0
POLYLINE
8
CUT
66
1
70
0
0
VERTEX
8
CUT
10
49.336
20
164.77
0
VERTEX
8
CUT
10
50.888
20
163.8
0
VERTEX
8
CUT
10
58.088
20
163.8
0
VERTEX
8
CUT
10
59.64
20
164.77
0
SEQEND
0
POLYLINE
8
CUT
66
1
70
0
0
VERTEX
8
CUT
10
49.336
20
162.23
0
VERTEX
8
CUT
10
50.888
20
163.2
0
VERTEX
8
CUT
10
58.088
20
163.2
0
VERTEX
8
CUT
10
59.64
20
162.23
0
SEQEND
0
POLYLINE
8
CUT
66
1
70
0
0
VERTEX
8
CUT
10
49.336
20
161.17
0
VERTEX
8
CUT
10
50.888
20
160.2
0
VERTEX
8
CUT
10
58.088
20
160.2
0
VERTEX
8
CUT
10
59.64
20
161.17
0
SEQEND
0
POLYLINE
8
CUT
66
1
70
0
0
VERTEX
8
CUT
10
49.336
20
158.63
0
VERTEX
8
CUT
10
50.888
20
159.6
0
VERTEX
8
CUT
10
58.088
20
159.6
0
VERTEX
8
CUT
10
59.64
20
158.63
0
SEQEND
0
POLYLINE
8
CUT
66
1
70
0
0
VERTEX
8
CUT
10
49.336
20
157.57
0
VERTEX
8
CUT
10
50.888
20
156.6
0
VERTEX
8
CUT
10
58.088
20
156.6
0
VERTEX
8
CUT
10
59.64
20
157.57
0
SEQEND
0
POLYLINE
8
CUT
66
1
70
0
0
VERTEX
8
CUT
10
49.336
20
155.03
0
VERTEX
8
CUT
10
50.888
20
156
0
VERTEX
8
CUT
10
58.088
20
156
0
VERTEX
8
CUT
10
59.64
20
155.03
0
SEQEND
0
POLYLINE
8
CUT
66
1
70
0
0
VERTEX
8
CUT
10
49.336
20
153.97
0
VERTEX
8
CUT
10
50.888
20
153
0
VERTEX
8
CUT
10
58.088
20
153
0
VERTEX
8
CUT
10
59.64
20
153.97
0
SEQEND
0
POLYLINE
8
CUT
66
1
70
0
0
VERTEX
8
CUT
10
49.336
20
151.43
0
VERTEX
8
CUT
10
50.888
20
152.4
0
VERTEX
8
CUT
10
58.088
20
152.4
0
VERTEX
8
CUT
10
59.64
20
151.43
0
SEQEND
0
POLYLINE
8
CUT
66
1
70
0
0
VERTEX
8
CUT
10
49.336
20
150.37
0
VERTEX
8
CUT
10
50.888
20
149.4
0
VERTEX
8
CUT
10
58.088
20
149.4
0
VERTEX
8
CUT
10
59.64
20
150.37
0
SEQEND
0
POLYLINE
8
CUT
66
1
70
0
0
VERTEX
8
CUT
10
49.336
20
147.83
0
VERTEX
8
CUT
10
50.888
20
148.8
0
VERTEX
8
CUT
10
58.088
20
148.8
0
VERTEX
8
CUT
10
59.64
20
147.83
0
SEQEND
0
POLYLINE
8
CUT
66
1
70
0
0
VERTEX
8
CUT
10
49.336
20
146.77
0
VERTEX
8
CUT
10
50.888
20
145.8
0
VERTEX
8
CUT
10
58.088
20
145.8
0
VERTEX
8
CUT
10
59.64
20
146.77
0
SEQEND
0
POLYLINE
8
CUT
66
1
70
0
0
VERTEX
8
CUT
10
49.336
20
144.23
0
VERTEX
8
CUT
10
50.888
20
145.2
0
VERTEX
8
CUT
10
58.088
20
145.2
0
VERTEX
8
CUT
10
59.64
20
144.23
0
SEQEND
0
POLYLINE
8
CUT
66
1
70
0
0
VERTEX
8
CUT
10
59.458
20
173.77
0
VERTEX
8
CUT
10
61.01
20
172.8
0
VERTEX
8
CUT
10
62
20
172.8
0
SEQEND
0
POLYLINE
8
CUT
66
1
70
0
0
VERTEX
8
CUT
10
59.458
20
171.23
0
VERTEX
8
CUT
10
61.01
20
172.2
0
VERTEX
8
CUT
10
62
20
172.2
0
SEQEND
0
POLYLINE
8
CUT
66
1
70
0
0
VERTEX
8
CUT
10
59.458
20
170.17
0
VERTEX
8
CUT
10
61.01
20
169.2
0
VERTEX
8
CUT
10
62
20
169.2
0
SEQEND
0
POLYLINE
8
CUT
66
1
70
0
0
VERTEX
8
CUT
10
59.458
20
167.63
0
VERTEX
8
CUT
10
61.01
20
168.6
0
VERTEX
8
CUT
10
62
20
168.6
0
SEQEND
0
POLYLINE
8
CUT
66
1
70
0
0
VERTEX
8
CUT
10
59.458
20
166.57
0
VERTEX
8
CUT
10
61.01
20
165.6
0
VERTEX
8
CUT
10
62
20
165.6
0
SEQEND
0
POLYLINE
8
CUT
66
1
70
0
0
VERTEX
8
CUT
10
59.458
20
164.03
0
VERTEX
8
CUT
10
61.01
20
165
0
VERTEX
8
CUT
10
62
20
165
0
SEQEND
0
POLYLINE
8
CUT
66
1
70
0
0
VERTEX
8
CUT
10
59.458
20
162.97
0
VERTEX
8
CUT
10
61.01
20
162
0
VERTEX
8
CUT
10
62
20
162
0
SEQEND
0
POLYLINE
8
CUT
66
1
70
0
0
VERTEX
8
CUT
10
59.458
20
160.43
0
VERTEX
8
CUT
10
61.01
20
161.4
0
VERTEX
8
CUT
10
62
20
161.4
0
SEQEND
0
POLYLINE
8
CUT
66
1
70
0
0
VERTEX
8
CUT
10
59.458
20
159.37
0
VERTEX
8
CUT
10
61.01
20
158.4
0
VERTEX
8
CUT
10
62
20
158.4
0
SEQEND
0
POLYLINE
8
CUT
66
1
70
0
0
VERTEX
8
CUT
10
59.458
20
156.83
0
VERTEX
8
CUT
10
61.01
20
157.8
0
VERTEX
8
CUT
10
62
20
157.8
0
SEQEND
0
POLYLINE
8
CUT
66
1
70
0
0
VERTEX
8
CUT
10
59.458
20
155.77
0
VERTEX
8
CUT
10
61.01
20
154.8
0
VERTEX
8
CUT
10
62
20
154.8
0
SEQEND
0
POLYLINE
8
CUT
66
1
70
0
0
VERTEX
8
CUT
10
59.458
20
153.23
0
VERTEX
8
CUT
10
61.01
20
154.2
0
VERTEX
8
CUT
10
62
20
154.2
0
SEQEND
0
POLYLINE
8
CUT
66
1
70
0
0
VERTEX
8
CUT
10
59.458
20
152.17
0
VERTEX
8
CUT
10
61.01
20
151.2
0
VERTEX
8
CUT
10
62
20
151.2
0
SEQEND
0
POLYLINE
8
CUT
66
1
70
0
0
VERTEX
8
CUT
10
59.458
20
149.63
0
VERTEX
8
CUT
10
61.01
20
150.6
0
VERTEX
8
CUT
10
62
20
150.6
0
SEQEND
0
POLYLINE
8
CUT
66
1
70
0
0
VERTEX
8
CUT
10
59.458
20
148.57
0
VERTEX
8
CUT
10
61.01
20
147.6
0
VERTEX
8
CUT
10
62
20
147.6
0
SEQEND
0
POLYLINE
8
CUT
66
1
70
0
0
VERTEX
8
CUT
10
59.458
20
146.03
0
VERTEX
8
CUT
10
61.01
20
147
0
VERTEX
8
CUT
10
62
20
147
0
SEQEND
0
POLYLINE
8
CUT
66
1
70
0
0
VERTEX
8
CUT
10
59.458
20
144.97
0
VERTEX
8
CUT
10
61.01
20
144
0
VERTEX
8
CUT
10
62
20
144
0
SEQEND
0
LINE
8
CUT
10
2.5
20
144
11
2.5
21
147
0
POLYLINE
8
CUT
66
1
70
0
0
VERTEX
8
CUT
10
0
20
138
0
VERTEX
8
CUT
10
70
20
138
0
VERTEX
8
CUT
10
70
20
108
0
VERTEX
8
CUT
10
0
20
108
0
VERTEX
8
CUT
10
0
20
138
0
SEQEND
0
LINE
8
CUT
10
8
20
137.335
11
8.856
21
137.87
0
LINE
8
CUT
10
8
20
135.665
11
8.856
21
135.13
0
LINE
8
CUT
10
8
20
133.535
11
8.856
21
134.07
0
LINE
8
CUT
10
8
20
131.865
11
8.856
21
131.33
0
LINE
8
CUT
10
8
20
129.735
11
8.856
21
130.27
0
LINE
8
CUT
10
8
20
128.065
11
8.856
21
127.53
0
LINE
8
CUT
10
8
20
125.935
11
8.856
21
126.47
0
LINE
8
CUT
10
8
20
124.265
11
8.856
21
123.73
0
LINE
8
CUT
10
8
20
122.135
11
8.856
21
122.67
0
LINE
8
CUT
10
8
20
120.465
11
8.856
21
119.93
0
LINE
8
CUT
10
8
20
118.335
11
8.856
21
118.87
0
LINE
8
CUT
10
8
20
116.665
11
8.856
21
116.13
0
LINE
8
CUT
10
8
20
114.535
11
8.856
21
115.07
0
LINE
8
CUT
10
8
20
112.865
11
8.856
21
112.33
0
LINE
8
CUT
10
8
20
110.735
11
8.856
21
111.27
0
LINE
8
CUT
10
8
20
109.065
11
8.856
21
108.53
0
POLYLINE
8
CUT
66
1
70
0
0
VERTEX
8
CUT
10
8.848
20
137.03
0
VERTEX
8
CUT
10
10.4
20
138
0
VERTEX
8
CUT
10
17.6
20
138
0
VERTEX
8
CUT
10
19.152
20
137.03
0
SEQEND
0
POLYLINE
8
CUT
66
1
70
0
0
VERTEX
8
CUT
10
8.848
20
135.97
0
VERTEX
8
CUT
10
10.4
20
135
0
VERTEX
8
CUT
10
17.6
20
135
0
VERTEX
8
CUT
10
19.152
20
135.97
0
SEQEND
0
POLYLINE
8
CUT
66
1
70
0
0
VERTEX
8
CUT
10
8.848
20
133.23
0
VERTEX
8
CUT
10
10.4
20
134.2
0
VERTEX
8
CUT
10
17.6
20
134.2
0
VERTEX
8
CUT
10
19.152
20
133.23
0
SEQEND
0
POLYLINE
8
CUT
66
1
70
0
0
VERTEX
8
CUT
10
8.848
20
132.17
0
VERTEX
8
CUT
10
10.4
20
131.2
0
VERTEX
8
CUT
10
17.6
20
131.2
0
VERTEX
8
CUT
10
19.152
20
132.17
0
SEQEND
0
POLYLINE
8
CUT
66
1
70
0
0
VERTEX
8
CUT
10
8.848
20
129.43
0
VERTEX
8
CUT
10
10.4
20
130.4
0
VERTEX
8
CUT
10
17.6
20
130.4
0
VERTEX
8
CUT
10
19.152
20
129.43
0
SEQEND
0
POLYLINE
8
CUT
66
1
70
0
0
VERTEX
8
CUT
10
8.848
20
128.37
0
VERTEX
8
CUT
10
10.4
20
127.4
0
VERTEX
8
CUT
10
17.6
20
127.4
0
VERTEX
8
CUT
10
19.152
20
128.37
0
SEQEND
0
POLYLINE
8
CUT
66
1
70
0
0
VERTEX
8
CUT
10
8.848
20
125.63
0
VERTEX
8
CUT
10
10.4
20
126.6
0
VERTEX
8
CUT
10
17.6
20
126.6
0
VERTEX
8
CUT
10
19.152
20
125.63
0
SEQEND
0
POLYLINE
8
CUT
66
1
70
0
0
VERTEX
8
CUT
10
8.848
20
124.57
0
VERTEX
8
CUT
10
10.4
20
123.6
0
VERTEX
8
CUT
10
17.6
20
123.6
0
VERTEX
8
CUT
10
19.152
20
124.57
0
SEQEND
0
POLYLINE
8
CUT
66
1
70
0
0
VERTEX
8
CUT
10
8.848
20
121.83
0
VERTEX
8
CUT
10
10.4
20
122.8
0
VERTEX
8
CUT
10
17.6
20
122.8
0
VERTEX
8
CUT
10
19.152
20
121.83
0
SEQEND
0
POLYLINE
8
CUT
66
1
70
0
0
VERTEX
8
CUT
10
8.848
20
120.77
0
VERTEX
8
CUT
10
10.4
20
119.8
0
VERTEX
8
CUT
10
17.6
20
119.8
0
VERTEX
8
CUT
10
19.152
20
120.77
0
SEQEND
0
POLYLINE
8
CUT
66
1
70
0
0
VERTEX
8
CUT
10
8.848
20
118.03
0
VERTEX
8
CUT
10
10.4
20
119
0
VERTEX
8
CUT
10
17.6
20
119
0
VERTEX
8
CUT
10
19.152
20
118.03
0
SEQEND
0
POLYLINE
8
CUT
66
1
70
0
0
VERTEX
8
CUT
10
8.848
20
116.97
0
VERTEX
8
CUT
10
10.4
20
116
0
VERTEX
8
CUT
10
17.6
20
116
0
VERTEX
8
CUT
10
19.152
20
116.97
0
SEQEND
0
POLYLINE
8
CUT
66
1
70
0
0
VERTEX
8
CUT
10
8.848
20
114.23
0
VERTEX
8
CUT
10
10.4
20
115.2
0
VERTEX
8
CUT
10
17.6
20
115.2
0
VERTEX
8
CUT
10
19.152
20
114.23
0
SEQEND
0
POLYLINE
8
CUT
66
1
70
0
0
VERTEX
8
CUT
10
8.848
20
113.17
0
VERTEX
8
CUT
10
10.4
20
112.2
0
VERTEX
8
CUT
10
17.6
20
112.2
0
VERTEX
8
CUT
10
19.152
20
113.17
0
SEQEND
0
POLYLINE
8
CUT
66
1
70
0
0
VERTEX
8
CUT
10
8.848
20
110.43
0
VERTEX
8
CUT
10
10.4
20
111.4
0
VERTEX
8
CUT
10
17.6
20
111.4
0
VERTEX
8
CUT
10
19.152
20
110.43
0
SEQEND
0
POLYLINE
8
CUT
66
1
70
0
0
VERTEX
8
CUT
10
8.848
20
109.37
0
VERTEX
8
CUT
10
10.4
20
108.4
0
VERTEX
8
CUT
10
17.6
20
108.4
0
VERTEX
8
CUT
10
19.152
20
109.37
0
SEQEND
0
POLYLINE
8
CUT
66
1
70
0
0
VERTEX
8
CUT
10
19.144
20
137.87
0
VERTEX
8
CUT
10
20.696
20
136.9
0
VERTEX
8
CUT
10
27.896
20
136.9
0
VERTEX
8
CUT
10
29.448
20
137.87
0
SEQEND
0
POLYLINE
8
CUT
66
1
70
0
0
VERTEX
8
CUT
10
19.144
20
135.13
0
VERTEX
8
CUT
10
20.696
20
136.1
0
VERTEX
8
CUT
10
27.896
20
136.1
0
VERTEX
8
CUT
10
29.448
20
135.13
0
SEQEND
0
POLYLINE
8
CUT
66
1
70
0
0
VERTEX
8
CUT
10
19.144
20
134.07
0
VERTEX
8
CUT
10
20.696
20
133.1
0
VERTEX
8
CUT
10
27.896
20
133.1
0
VERTEX
8
CUT
10
29.448
20
134.07
0
SEQEND
0
POLYLINE
8
CUT
66
1
70
0
0
VERTEX
8
CUT
10
19.144
20
131.33
0
VERTEX
8
CUT
10
20.696
20
132.3
0
VERTEX
8
CUT
10
27.896
20
132.3
0
VERTEX
8
CUT
10
29.448
20
131.33
0
SEQEND
0
POLYLINE
8
CUT
66
1
70
0
0
VERTEX
8
CUT
10
19.144
20
130.27
0
VERTEX
8
CUT
10
20.696
20
129.3
0
VERTEX
8
CUT
10
27.896
20
129.3
0
VERTEX
8
CUT
10
29.448
20
130.27
0
SEQEND
0
POLYLINE
8
CUT
66
1
70
0
0
VERTEX
8
CUT
10
19.144
20
127.53
0
VERTEX
8
CUT
10
20.696
20
128.5
0
VERTEX
8
CUT
10
27.896
20
128.5
0
VERTEX
8
CUT
10
29.448
20
127.53
0
SEQEND
0
POLYLINE
8
CUT
66
1
70
0
0
VERTEX
8
CUT
10
19.144
20
126.47
0
VERTEX
8
CUT
10
20.696
20
125.5
0
VERTEX
8
CUT
10
27.896
20
125.5
0
VERTEX
8
CUT
10
29.448
20
126.47
0
SEQEND
0
POLYLINE
8
CUT
66
1
70
0
0
VERTEX
8
CUT
10
19.144
20
123.73
0
VERTEX
8
CUT
10
20.696
20
124.7
0
VERTEX
8
CUT
10
27.896
20
124.7
0
VERTEX
8
CUT
10
29.448
20
123.73
0
SEQEND
0
POLYLINE
8
CUT
66
1
70
0
0
VERTEX
8
CUT
10
19.144
20
122.67
0
VERTEX
8
CUT
10
20.696
20
121.7
0
VERTEX
8
CUT
10
27.896
20
121.7
0
VERTEX
8
CUT
10
29.448
20
122.67
0
SEQEND
0
POLYLINE
8
CUT
66
1
70
0
0
VERTEX
8
CUT
10
19.144
20
119.93
0
VERTEX
8
CUT
10
20.696
20
120.9
0
VERTEX
8
CUT
10
27.896
20
120.9
0
VERTEX
8
CUT
10
29.448
20
119.93
0
SEQEND
0
POLYLINE
8
CUT
66
1
70
0
0
VERTEX
8
CUT
10
19.144
20
118.87
0
VERTEX
8
CUT
10
20.696
20
117.9
0
VERTEX
8
CUT
10
27.896
20
117.9
0
VERTEX
8
CUT
10
29.448
20
118.87
0
SEQEND
0
POLYLINE
8
CUT
66
1
70
0
0
VERTEX
8
CUT
10
19.144
20
116.13
0
VERTEX
8
CUT
10
20.696
20
117.1
0
VERTEX
8
CUT
10
27.896
20
117.1
0
VERTEX
8
CUT
10
29.448
20
116.13
0
SEQEND
0
POLYLINE
8
CUT
66
1
70
0
0
VERTEX
8
CUT
10
19.144
20
115.07
0
VERTEX
8
CUT
10
20.696
20
114.1
0
VERTEX
8
CUT
10
27.896
20
114.1
0
VERTEX
8
CUT
10
29.448
20
115.07
0
SEQEND
0
POLYLINE
8
CUT
66
1
70
0
0
VERTEX
8
CUT
10
19.144
20
112.33
0
VERTEX
8
CUT
10
20.696
20
113.3
0
VERTEX
8
CUT
10
27.896
20
113.3
0
VERTEX
8
CUT
10
29.448
20
112.33
0
SEQEND
0
POLYLINE
8
CUT
66
1
70
0
0
VERTEX
8
CUT
10
19.144
20
111.27
0
VERTEX
8
CUT
10
20.696
20
110.3
0
VERTEX
8
CUT
10
27.896
20
110.3
0
VERTEX
8
CUT
10
29.448
20
111.27
0
SEQEND
0
POLYLINE
8
CUT
66
1
70
0
0
VERTEX
8
CUT
10
19.144
20
108.53
0
VERTEX
8
CUT
10
20.696
20
109.5
0
VERTEX
8
CUT
10
27.896
20
109.5
0
VERTEX
8
CUT
10
29.448
20
108.53
0
SEQEND
0
POLYLINE
8
CUT
66
1
70
0
0
VERTEX
8
CUT
10
29.44
20
137.03
0
VERTEX
8
CUT
10
30.992
20
138
0
VERTEX
8
CUT
10
38.192
20
138
0
VERTEX
8
CUT
10
39.744
20
137.03
0
SEQEND
0
POLYLINE
8
CUT
66
1
70
0
0
VERTEX
8
CUT
10
29.44
20
135.97
0
VERTEX
8
CUT
10
30.992
20
135
0
VERTEX
8
CUT
10
38.192
20
135
0
VERTEX
8
CUT
10
39.744
20
135.97
0
SEQEND
0
POLYLINE
8
CUT
66
1
70
0
0
VERTEX
8
CUT
10
29.44
20
133.23
0
VERTEX
8
CUT
10
30.992
20
134.2
0
VERTEX
8
CUT
10
38.192
20
134.2
0
VERTEX
8
CUT
10
39.744
20
133.23
0
SEQEND
0
POLYLINE
8
CUT
66
1
70
0
0
VERTEX
8
CUT
10
29.44
20
132.17
0
VERTEX
8
CUT
10
30.992
20
131.2
0
VERTEX
8
CUT
10
38.192
20
131.2
0
VERTEX
8
CUT
10
39.744
20
132.17
0
SEQEND
0
POLYLINE
8
CUT
66
1
70
0
0
VERTEX
8
CUT
10
29.44
20
129.43
0
VERTEX
8
CUT
10
30.992
20
130.4
0
VERTEX
8
CUT
10
38.192
20
130.4
0
VERTEX
8
CUT
10
39.744
20
129.43
0
SEQEND
0
POLYLINE
8
CUT
66
1
70
0
0
VERTEX
8
CUT
10
29.44
20
128.37
0
VERTEX
8
CUT
10
30.992
20
127.4
0
VERTEX
8
CUT
10
38.192
20
127.4
0
VERTEX
8
CUT
10
39.744
20
128.37
0
SEQEND
0
POLYLINE
8
CUT
66
1
70
0
0
VERTEX
8
CUT
10
29.44
20
125.63
0
VERTEX
8
CUT
10
30.992
20
126.6
0
VERTEX
8
CUT
10
38.192
20
126.6
0
VERTEX
8
CUT
10
39.744
20
125.63
0
SEQEND
0
POLYLINE
8
CUT
66
1
70
0
0
VERTEX
8
CUT
10
29.44
20
124.57
0
VERTEX
8
CUT
10
30.992
20
123.6
0
VERTEX
8
CUT
10
38.192
20
123.6
0
VERTEX
8
CUT
10
39.744
20
124.57
0
SEQEND
0
POLYLINE
8
CUT
66
1
70
0
0
VERTEX
8
CUT
10
29.44
20
121.83
0
VERTEX
8
CUT
10
30.992
20
122.8
0
VERTEX
8
CUT
10
38.192
20
122.8
0
VERTEX
8
CUT
10
39.744
20
121.83
0
SEQEND
0
POLYLINE
8
CUT
66
1
70
0
0
VERTEX
8
CUT
10
29.44
20
120.77
0
VERTEX
8
CUT
10
30.992
20
119.8
0
VERTEX
8
CUT
10
38.192
20
119.8
0
VERTEX
8
CUT
10
39.744
20
120.77
0
SEQEND
0
POLYLINE
8
CUT
66
1
70
0
0
VERTEX
8
CUT
10
29.44
20
118.03
0
VERTEX
8
CUT
10
30.992
20
119
0
VERTEX
8
CUT
10
38.192
20
119
0
VERTEX
8
CUT
10
39.744
20
118.03
0
SEQEND
0
POLYLINE
8
CUT
66
1
70
0
0
VERTEX
8
CUT
10
29.44
20
116.97
0
VERTEX
8
CUT
10
30.992
20
116
0
VERTEX
8
CUT
10
38.192
20
116
0
VERTEX
8
CUT
10
39.744
20
116.97
0
SEQEND
0
POLYLINE
8
CUT
66
1
70
0
0
VERTEX
8
CUT
10
29.44
20
114.23
0
VERTEX
8
CUT
10
30.992
20
115.2
0
VERTEX
8
CUT
10
38.192
20
115.2
0
VERTEX
8
CUT
10
39.744
20
114.23
0
SEQEND
0
POLYLINE
8
CUT
66
1
70
0
0
VERTEX
8
CUT
10
29.44
20
113.17
0
VERTEX
8
CUT
10
30.992
20
112.2
0
VERTEX
8
CUT
10
38.192
20
112.2
0
VERTEX
8
CUT
10
39.744
20
113.17
0
SEQEND
0
POLYLINE
8
CUT
66
1
70
0
0
VERTEX
8
CUT
10
29.44
20
110.43
0
VERTEX
8
CUT
10
30.992
20
111.4
0
VERTEX
8
CUT
10
38.192
20
111.4
0
VERTEX
8
CUT
10
39.744
20
110.43
0
SEQEND
0
POLYLINE
8
CUT
66
1
70
0
0
VERTEX
8
CUT
10
29.44
20
109.37
0
VERTEX
8
CUT
10
30.992
20
108.4
0
VERTEX
8
CUT
10
38.192
20
108.4
0
VERTEX
8
CUT
10
39.744
20
109.37
0
SEQEND
0
POLYLINE
8
CUT
66
1
70
0
0
VERTEX
8
CUT
10
39.736
20
137.87
0
VERTEX
8
CUT
10
41.288
20
136.9
0
VERTEX
8
CUT
10
48.488
20
136.9
0
VERTEX
8
CUT
10
50.04
20
137.87
0
SEQEND
0
POLYLINE
8
CUT
66
1
70
0
0
VERTEX
8
CUT
10
39.736
20
135.13
0
VERTEX
8
CUT
10
41.288
20
136.1
0
VERTEX
8
CUT
10
48.488
20
136.1
0
VERTEX
8
CUT
10
50.04
20
135.13
0
SEQEND
0
POLYLINE
8
CUT
66
1
70
0
0
VERTEX
8
CUT
10
39.736
20
134.07
0
VERTEX
8
CUT
10
41.288
20
133.1
0
VERTEX
8
CUT
10
48.488
20
133.1
0
VERTEX
8
CUT
10
50.04
20
134.07
0
SEQEND
0
POLYLINE
8
CUT
66
1
70
0
0
VERTEX
8
CUT
10
39.736
20
131.33
0
VERTEX
8
CUT
10
41.288
20
132.3
0
VERTEX
8
CUT
10
48.488
20
132.3
0
VERTEX
8
CUT
10
50.04
20
131.33
0
SEQEND
0
POLYLINE
8
CUT
66
1
70
0
0
VERTEX
8
CUT
10
39.736
20
130.27
0
VERTEX
8
CUT
10
41.288
20
129.3
0
VERTEX
8
CUT
10
48.488
20
129.3
0
VERTEX
8
CUT
10
50.04
20
130.27
0
SEQEND
0
POLYLINE
8
CUT
66
1
70
0
0
VERTEX
8
CUT
10
39.736
20
127.53
0
VERTEX
8
CUT
10
41.288
20
128.5
0
VERTEX
8
CUT
10
48.488
20
128.5
0
VERTEX
8
CUT
10
50.04
20
127.53
0
SEQEND
0
POLYLINE
8
CUT
66
1
70
0
0
VERTEX
8
CUT
10
39.736
20
126.47
0
VERTEX
8
CUT
10
41.288
20
125.5
0
VERTEX
8
CUT
10
48.488
20
125.5
0
VERTEX
8
CUT
10
50.04
20
126.47
0
SEQEND
0
POLYLINE
8
CUT
66
1
70
0
0
VERTEX
8
CUT
10
39.736
20
123.73
0
VERTEX
8
CUT
10
41.288
20
124.7
0
VERTEX
8
CUT
10
48.488
20
124.7
0
VERTEX
8
CUT
10
50.04
20
123.73
0
SEQEND
0
POLYLINE
8
CUT
66
1
70
0
0
VERTEX
8
CUT
10
39.736
20
122.67
0
VERTEX
8
CUT
10
41.288
20
121.7
0
VERTEX
8
CUT
10
48.488
20
121.7
0
VERTEX
8
CUT
10
50.04
20
122.67
0
SEQEND
0
POLYLINE
8
CUT
66
1
70
0
0
VERTEX
8
CUT
10
39.736
20
119.93
0
VERTEX
8
CUT
10
41.288
20
120.9
0
VERTEX
8
CUT
10
48.488
20
120.9
0
VERTEX
8
CUT
10
50.04
20
119.93
0
SEQEND
0
POLYLINE
8
CUT
66
1
70
0
0
VERTEX
8
CUT
10
39.736
20
118.87
0
VERTEX
8
CUT
10
41.288
20
117.9
0
VERTEX
8
CUT
10
48.488
20
117.9
0
VERTEX
8
CUT
10
50.04
20
118.87
0
SEQEND
0
POLYLINE
8
CUT
66
1
70
0
0
VERTEX
8
CUT
10
39.736
20
116.13
0
VERTEX
8
CUT
10
41.288
20
117.1
0
VERTEX
8
CUT
10
48.488
20
117.1
0
VERTEX
8
CUT
10
50.04
20
116.13
0
SEQEND
0
POLYLINE
8
CUT
66
1
70
0
0
VERTEX
8
CUT
10
39.736
20
115.07
0
VERTEX
8
CUT
10
41.288
20
114.1
0
VERTEX
8
CUT
10
48.488
20
114.1
0
VERTEX
8
CUT
10
50.04
20
115.07
0
SEQEND
0
POLYLINE
8
CUT
66
1
70
0
0
VERTEX
8
CUT
10
39.736
20
112.33
0
VERTEX
8
CUT
10
41.288
20
113.3
0
VERTEX
8
CUT
10
48.488
20
113.3
0
VERTEX
8
CUT
10
50.04
20
112.33
0
SEQEND
0
POLYLINE
8
CUT
66
1
70
0
0
VERTEX
8
CUT
10
39.736
20
111.27
0
VERTEX
8
CUT
10
41.288
20
110.3
0
VERTEX
8
CUT
10
48.488
20
110.3
0
VERTEX
8
CUT
10
50.04
20
111.27
0
SEQEND
0
POLYLINE
8
CUT
66
1
70
0
0
VERTEX
8
CUT
10
39.736
20
108.53
0
VERTEX
8
CUT
10
41.288
20
109.5
0
VERTEX
8
CUT
10
48.488
20
109.5
0
VERTEX
8
CUT
10
50.04
20
108.53
0
SEQEND
0
POLYLINE
8
CUT
66
1
70
0
0
VERTEX
8
CUT
10
50.032
20
137.03
0
VERTEX
8
CUT
10
51.584
20
138
0
VERTEX
8
CUT
10
58.784
20
138
0
VERTEX
8
CUT
10
60.336
20
137.03
0
SEQEND
0
POLYLINE
8
CUT
66
1
70
0
0
VERTEX
8
CUT
10
50.032
20
135.97
0
VERTEX
8
CUT
10
51.584
20
135
0
VERTEX
8
CUT
10
58.784
20
135
0
VERTEX
8
CUT
10
60.336
20
135.97
0
SEQEND
0
POLYLINE
8
CUT
66
1
70
0
0
VERTEX
8
CUT
10
50.032
20
133.23
0
VERTEX
8
CUT
10
51.584
20
134.2
0
VERTEX
8
CUT
10
58.784
20
134.2
0
VERTEX
8
CUT
10
60.336
20
133.23
0
SEQEND
0
POLYLINE
8
CUT
66
1
70
0
0
VERTEX
8
CUT
10
50.032
20
132.17
0
VERTEX
8
CUT
10
51.584
20
131.2
0
VERTEX
8
CUT
10
58.784
20
131.2
0
VERTEX
8
CUT
10
60.336
20
132.17
0
SEQEND
0
POLYLINE
8
CUT
66
1
70
0
0
VERTEX
8
CUT
10
50.032
20
129.43
0
VERTEX
8
CUT
10
51.584
20
130.4
0
VERTEX
8
CUT
10
58.784
20
130.4
0
VERTEX
8
CUT
10
60.336
20
129.43
0
SEQEND
0
POLYLINE
8
CUT
66
1
70
0
0
VERTEX
8
CUT
10
50.032
20
128.37
0
VERTEX
8
CUT
10
51.584
20
127.4
0
VERTEX
8
CUT
10
58.784
20
127.4
0
VERTEX
8
CUT
10
60.336
20
128.37
0
SEQEND
0
POLYLINE
8
CUT
66
1
70
0
0
VERTEX
8
CUT
10
50.032
20
125.63
0
VERTEX
8
CUT
10
51.584
20
126.6
0
VERTEX
8
CUT
10
58.784
20
126.6
0
VERTEX
8
CUT
10
60.336
20
125.63
0
SEQEND
0
POLYLINE
8
CUT
66
1
70
0
0
VERTEX
8
CUT
10
50.032
20
124.57
0
VERTEX
8
CUT
10
51.584
20
123.6
0
VERTEX
8
CUT
10
58.784
20
123.6
0
VERTEX
8
CUT
10
60.336
20
124.57
0
SEQEND
0
POLYLINE
8
CUT
66
1
70
0
0
VERTEX
8
CUT
10
50.032
20
121.83
0
VERTEX
8
CUT
10
51.584
20
122.8
0
VERTEX
8
CUT
10
58.784
20
122.8
0
VERTEX
8
CUT
10
60.336
20
121.83
0
SEQEND
0
POLYLINE
8
CUT
66
1
70
0
0
VERTEX
8
CUT
10
50.032
20
120.77
0
VERTEX
8
CUT
10
51.584
20
119.8
0
VERTEX
8
CUT
10
58.784
20
119.8
0
VERTEX
8
CUT
10
60.336
20
120.77
0
SEQEND
0
POLYLINE
8
CUT
66
1
70
0
0
VERTEX
8
CUT
10
50.032
20
118.03
0
VERTEX
8
CUT
10
51.584
20
119
0
VERTEX
8
CUT
10
58.784
20
119
0
VERTEX
8
CUT
10
60.336
20
118.03
0
SEQEND
0
POLYLINE
8
CUT
66
1
70
0
0
VERTEX
8
CUT
10
50.032
20
116.97
0
VERTEX
8
CUT
10
51.584
20
116
0
VERTEX
8
CUT
10
58.784
20
116
0
VERTEX
8
CUT
10
60.336
20
116.97
0
SEQEND
0
POLYLINE
8
CUT
66
1
70
0
0
VERTEX
8
CUT
10
50.032
20
114.23
0
VERTEX
8
CUT
10
51.584
20
115.2
0
VERTEX
8
CUT
10
58.784
20
115.2
0
VERTEX
8
CUT
10
60.336
20
114.23
0
SEQEND
0
POLYLINE
8
CUT
66
1
70
0
0
VERTEX
8
CUT
10
50.032
20
113.17
0
VERTEX
8
CUT
10
51.584
20
112.2
0
VERTEX
8
CUT
10
58.784
20
112.2
0
VERTEX
8
CUT
10
60.336
20
113.17
0
SEQEND
0
POLYLINE
8
CUT
66
1
70
0
0
VERTEX
8
CUT
10
50.032
20
110.43
0
VERTEX
8
CUT
10
51.584
20
111.4
0
VERTEX
8
CUT
10
58.784
20
111.4
0
VERTEX
8
CUT
10
60.336
20
110.43
0
SEQEND
0
POLYLINE
8
CUT
66
1
70
0
0
VERTEX
8
CUT
10
50.032
20
109.37
0
VERTEX
8
CUT
10
51.584
20
108.4
0
VERTEX
8
CUT
10
58.784
20
108.4
0
VERTEX
8
CUT
10
60.336
20
109.37
0
SEQEND
0
POLYLINE
8
CUT
66
1
70
0
0
VERTEX
8
CUT
10
60.328
20
137.87
0
VERTEX
8
CUT
10
61.88
20
136.9
0
VERTEX
8
CUT
10
62
20
136.9
0
SEQEND
0
POLYLINE
8
CUT
66
1
70
0
0
VERTEX
8
CUT
10
60.328
20
135.13
0
VERTEX
8
CUT
10
61.88
20
136.1
0
VERTEX
8
CUT
10
62
20
136.1
0
SEQEND
0
POLYLINE
8
CUT
66
1
70
0
0
VERTEX
8
CUT
10
60.328
20
134.07
0
VERTEX
8
CUT
10
61.88
20
133.1
0
VERTEX
8
CUT
10
62
20
133.1
0
SEQEND
0
POLYLINE
8
CUT
66
1
70
0
0
VERTEX
8
CUT
10
60.328
20
131.33
0
VERTEX
8
CUT
10
61.88
20
132.3
0
VERTEX
8
CUT
10
62
20
132.3
0
SEQEND
0
POLYLINE
8
CUT
66
1
70
0
0
VERTEX
8
CUT
10
60.328
20
130.27
0
VERTEX
8
CUT
10
61.88
20
129.3
0
VERTEX
8
CUT
10
62
20
129.3
0
SEQEND
0
POLYLINE
8
CUT
66
1
70
0
0
VERTEX
8
CUT
10
60.328
20
127.53
0
VERTEX
8
CUT
10
61.88
20
128.5
0
VERTEX
8
CUT
10
62
20
128.5
0
SEQEND
0
POLYLINE
8
CUT
66
1
70
0
0
VERTEX
8
CUT
10
60.328
20
126.47
0
VERTEX
8
CUT
10
61.88
20
125.5
0
VERTEX
8
CUT
10
62
20
125.5
0
SEQEND
0
POLYLINE
8
CUT
66
1
70
0
0
VERTEX
8
CUT
10
60.328
20
123.73
0
VERTEX
8
CUT
10
61.88
20
124.7
0
VERTEX
8
CUT
10
62
20
124.7
0
SEQEND
0
POLYLINE
8
CUT
66
1
70
0
0
VERTEX
8
CUT
10
60.328
20
122.67
0
VERTEX
8
CUT
10
61.88
20
121.7
0
VERTEX
8
CUT
10
62
20
121.7
0
SEQEND
0
POLYLINE
8
CUT
66
1
70
0
0
VERTEX
8
CUT
10
60.328
20
119.93
0
VERTEX
8
CUT
10
61.88
20
120.9
0
VERTEX
8
CUT
10
62
20
120.9
0
SEQEND
0
POLYLINE
8
CUT
66
1
70
0
0
VERTEX
8
CUT
10
60.328
20
118.87
0
VERTEX
8
CUT
10
61.88
20
117.9
0
VERTEX
8
CUT
10
62
20
117.9
0
SEQEND
0
POLYLINE
8
CUT
66
1
70
0
0
VERTEX
8
CUT
10
60.328
20
116.13
0
VERTEX
8
CUT
10
61.88
20
117.1
0
VERTEX
8
CUT
10
62
20
117.1
0
SEQEND
0
POLYLINE
8
CUT
66
1
70
0
0
VERTEX
8
CUT
10
60.328
20
115.07
0
VERTEX
8
CUT
10
61.88
20
114.1
0
VERTEX
8
CUT
10
62
20
114.1
0
SEQEND
0
POLYLINE
8
CUT
66
1
70
0
0
VERTEX
8
CUT
10
60.328
20
112.33
0
VERTEX
8
CUT
10
61.88
20
113.3
0
VERTEX
8
CUT
10
62
20
113.3
0
SEQEND
0
POLYLINE
8
CUT
66
1
70
0
0
VERTEX
8
CUT
10
60.328
20
111.27
0
VERTEX
8
CUT
10
61.88
20
110.3
0
VERTEX
8
CUT
10
62
20
110.3
0
SEQEND
0
POLYLINE
8
CUT
66
1
70
0
0
VERTEX
8
CUT
10
60.328
20
108.53
0
VERTEX
8
CUT
10
61.88
20
109.5
0
VERTEX
8
CUT
10
62
20
109.5
0
SEQEND
0
LINE
8
CUT
10
2.5
20
108
11
2.5
21
111
0
LINE
8
CUT
10
5
20
108
11
5
21
111
0
POLYLINE
8
CUT
66
1
70
0
0
VERTEX
8
CUT
10
0
20
102
0
VERTEX
8
CUT
10
70
20
102
0
VERTEX
8
CUT
10
70
20
72
0
VERTEX
8
CUT
10
0
20
72
0
VERTEX
8
CUT
10
0
20
102
0
SEQEND
0
LINE
8
CUT
10
8
20
101.5438
11
8.682
21
101.97
0
LINE
8
CUT
10
8
20
99.4562
11
8.682
21
99.03
0
LINE
8
CUT
10
8
20
97.5438
11
8.682
21
97.97
0
LINE
8
CUT
10
8
20
95.4562
11
8.682
21
95.03
0
LINE
8
CUT
10
8
20
93.5438
11
8.682
21
93.97
0
LINE
8
CUT
10
8
20
91.4562
11
8.682
21
91.03
0
LINE
8
CUT
10
8
20
89.5438
11
8.682
21
89.97
0
LINE
8
CUT
10
8
20
87.4562
11
8.682
21
87.03
0
LINE
8
CUT
10
8
20
85.5438
11
8.682
21
85.97
0
LINE
8
CUT
10
8
20
83.4562
11
8.682
21
83.03
0
LINE
8
CUT
10
8
20
81.5438
11
8.682
21
81.97
0
LINE
8
CUT
10
8
20
79.4562
11
8.682
21
79.03
0
LINE
8
CUT
10
8
20
77.5438
11
8.682
21
77.97
0
LINE
8
CUT
10
8
20
75.4562
11
8.682
21
75.03
0
LINE
8
CUT
10
8
20
73.5438
11
8.682
21
73.97
0
POLYLINE
8
CUT
66
1
70
0
0
VERTEX
8
CUT
10
8.848
20
101.03
0
VERTEX
8
CUT
10
10.4
20
102
0
VERTEX
8
CUT
10
17.6
20
102
0
VERTEX
8
CUT
10
19.152
20
101.03
0
SEQEND
0
POLYLINE
8
CUT
66
1
70
0
0
VERTEX
8
CUT
10
8.848
20
99.97
0
VERTEX
8
CUT
10
10.4
20
99
0
VERTEX
8
CUT
10
17.6
20
99
0
VERTEX
8
CUT
10
19.152
20
99.97
0
SEQEND
0
POLYLINE
8
CUT
66
1
70
0
0
VERTEX
8
CUT
10
8.848
20
97.03
0
VERTEX
8
CUT
10
10.4
20
98
0
VERTEX
8
CUT
10
17.6
20
98
0
VERTEX
8
CUT
10
19.152
20
97.03
0
SEQEND
0
POLYLINE
8
CUT
66
1
70
0
0
VERTEX
8
CUT
10
8.848
20
95.97
0
VERTEX
8
CUT
10
10.4
20
95
0
VERTEX
8
CUT
10
17.6
20
95
0
VERTEX
8
CUT
10
19.152
20
95.97
0
SEQEND
0
POLYLINE
8
CUT
66
1
70
0
0
VERTEX
8
CUT
10
8.848
20
93.03
0
VERTEX
8
CUT
10
10.4
20
94
0
VERTEX
8
CUT
10
17.6
20
94
0
VERTEX
8
CUT
10
19.152
20
93.03
0
SEQEND
0
POLYLINE
8
CUT
66
1
70
0
0
VERTEX
8
CUT
10
8.848
20
91.97
0
VERTEX
8
CUT
10
10.4
20
91
0
VERTEX
8
CUT
10
17.6
20
91
0
VERTEX
8
CUT
10
19.152
20
91.97
0
SEQEND
0
POLYLINE
8
CUT
66
1
70
0
0
VERTEX
8
CUT
10
8.848
20
89.03
0
VERTEX
8
CUT
10
10.4
20
90
0
VERTEX
8
CUT
10
17.6
20
90
0
VERTEX
8
CUT
10
19.152
20
89.03
0
SEQEND
0
POLYLINE
8
CUT
66
1
70
0
0
VERTEX
8
CUT
10
8.848
20
87.97
0
VERTEX
8
CUT
10
10.4
20
87
0
VERTEX
8
CUT
10
17.6
20
87
0
VERTEX
8
CUT
10
19.152
20
87.97
0
SEQEND
0
POLYLINE
8
CUT
66
1
70
0
0
VERTEX
8
CUT
10
8.848
20
85.03
0
VERTEX
8
CUT
10
10.4
20
86
0
VERTEX
8
CUT
10
17.6
20
86
0
VERTEX
8
CUT
10
19.152
20
85.03
0
SEQEND
0
POLYLINE
8
CUT
66
1
70
0
0
VERTEX
8
CUT
10
8.848
20
83.97
0
VERTEX
8
CUT
10
10.4
20
83
0
VERTEX
8
CUT
10
17.6
20
83
0
VERTEX
8
CUT
10
19.152
20
83.97
0
SEQEND
0
POLYLINE
8
CUT
66
1
70
0
0
VERTEX
8
CUT
10
8.848
20
81.03
0
VERTEX
8
CUT
10
10.4
20
82
0
VERTEX
8
CUT
10
17.6
20
82
0
VERTEX
8
CUT
10
19.152
20
81.03
0
SEQEND
0
POLYLINE
8
CUT
66
1
70
0
0
VERTEX
8
CUT
10
8.848
20
79.97
0
VERTEX
8
CUT
10
10.4
20
79
0
VERTEX
8
CUT
10
17.6
20
79
0
VERTEX
8
CUT
10
19.152
20
79.97
0
SEQEND
0
POLYLINE
8
CUT
66
1
70
0
0
VERTEX
8
CUT
10
8.848
20
77.03
0
VERTEX
8
CUT
10
10.4
20
78
0
VERTEX
8
CUT
10
17.6
20
78
0
VERTEX
8
CUT
10
19.152
20
77.03
0
SEQEND
0
POLYLINE
8
CUT
66
1
70
0
0
VERTEX
8
CUT
10
8.848
20
75.97
0
VERTEX
8
CUT
10
10.4
20
75
0
VERTEX
8
CUT
10
17.6
20
75
0
VERTEX
8
CUT
10
19.152
20
75.97
0
SEQEND
0
POLYLINE
8
CUT
66
1
70
0
0
VERTEX
8
CUT
10
8.848
20
73.03
0
VERTEX
8
CUT
10
10.4
20
74
0
VERTEX
8
CUT
10
17.6
20
74
0
VERTEX
8
CUT
10
19.152
20
73.03
0
SEQEND
0
POLYLINE
8
CUT
66
1
70
0
0
VERTEX
8
CUT
10
19.318
20
101.97
0
VERTEX
8
CUT
10
20.87
20
101
0
VERTEX
8
CUT
10
28.07
20
101
0
VERTEX
8
CUT
10
29.622
20
101.97
0
SEQEND
0
POLYLINE
8
CUT
66
1
70
0
0
VERTEX
8
CUT
10
19.318
20
99.03
0
VERTEX
8
CUT
10
20.87
20
100
0
VERTEX
8
CUT
10
28.07
20
100
0
VERTEX
8
CUT
10
29.622
20
99.03
0
SEQEND
0
POLYLINE
8
CUT
66
1
70
0
0
VERTEX
8
CUT
10
19.318
20
97.97
0
VERTEX
8
CUT
10
20.87
20
97
0
VERTEX
8
CUT
10
28.07
20
97
0
VERTEX
8
CUT
10
29.622
20
97.97
0
SEQEND
0
POLYLINE
8
CUT
66
1
70
0
0
VERTEX
8
CUT
10
19.318
20
95.03
0
VERTEX
8
CUT
10
20.87
20
96
0
VERTEX
8
CUT
10
28.07
20
96
0
VERTEX
8
CUT
10
29.622
20
95.03
0
SEQEND
0
POLYLINE
8
CUT
66
1
70
0
0
VERTEX
8
CUT
10
19.318
20
93.97
0
VERTEX
8
CUT
10
20.87
20
93
0
VERTEX
8
CUT
10
28.07
20
93
0
VERTEX
8
CUT
10
29.622
20
93.97
0
SEQEND
0
POLYLINE
8
CUT
66
1
70
0
0
VERTEX
8
CUT
10
19.318
20
91.03
0
VERTEX
8
CUT
10
20.87
20
92
0
VERTEX
8
CUT
10
28.07
20
92
0
VERTEX
8
CUT
10
29.622
20
91.03
0
SEQEND
0
POLYLINE
8
CUT
66
1
70
0
0
VERTEX
8
CUT
10
19.318
20
89.97
0
VERTEX
8
CUT
10
20.87
20
89
0
VERTEX
8
CUT
10
28.07
20
89
0
VERTEX
8
CUT
10
29.622
20
89.97
0
SEQEND
0
POLYLINE
8
CUT
66
1
70
0
0
VERTEX
8
CUT
10
19.318
20
87.03
0
VERTEX
8
CUT
10
20.87
20
88
0
VERTEX
8
CUT
10
28.07
20
88
0
VERTEX
8
CUT
10
29.622
20
87.03
0
SEQEND
0
POLYLINE
8
CUT
66
1
70
0
0
VERTEX
8
CUT
10
19.318
20
85.97
0
VERTEX
8
CUT
10
20.87
20
85
0
VERTEX
8
CUT
10
28.07
20
85
0
VERTEX
8
CUT
10
29.622
20
85.97
0
SEQEND
0
POLYLINE
8
CUT
66
1
70
0
0
VERTEX
8
CUT
10
19.318
20
83.03
0
VERTEX
8
CUT
10
20.87
20
84
0
VERTEX
8
CUT
10
28.07
20
84
0
VERTEX
8
CUT
10
29.622
20
83.03
0
SEQEND
0
POLYLINE
8
CUT
66
1
70
0
0
VERTEX
8
CUT
10
19.318
20
81.97
0
VERTEX
8
CUT
10
20.87
20
81
0
VERTEX
8
CUT
10
28.07
20
81
0
VERTEX
8
CUT
10
29.622
20
81.97
0
SEQEND
0
POLYLINE
8
CUT
66
1
70
0
0
VERTEX
8
CUT
10
19.318
20
79.03
0
VERTEX
8
CUT
10
20.87
20
80
0
VERTEX
8
CUT
10
28.07
20
80
0
VERTEX
8
CUT
10
29.622
20
79.03
0
SEQEND
0
POLYLINE
8
CUT
66
1
70
0
0
VERTEX
8
CUT
10
19.318
20
77.97
0
VERTEX
8
CUT
10
20.87
20
77
0
VERTEX
8
CUT
10
28.07
20
77
0
VERTEX
8
CUT
10
29.622
20
77.97
0
SEQEND
0
POLYLINE
8
CUT
66
1
70
0
0
VERTEX
8
CUT
10
19.318
20
75.03
0
VERTEX
8
CUT
10
20.87
20
76
0
VERTEX
8
CUT
10
28.07
20
76
0
VERTEX
8
CUT
10
29.622
20
75.03
0
SEQEND
0
POLYLINE
8
CUT
66
1
70
0
0
VERTEX
8
CUT
10
19.318
20
73.97
0
VERTEX
8
CUT
10
20.87
20
73
0
VERTEX
8
CUT
10
28.07
20
73
0
VERTEX
8
CUT
10
29.622
20
73.97
0
SEQEND
0
POLYLINE
8
CUT
66
1
70
0
0
VERTEX
8
CUT
10
20.87
20
72
0
VERTEX
8
CUT
10
20.87
20
72
0
VERTEX
8
CUT
10
28.07
20
72
0
VERTEX
8
CUT
10
28.07
20
72
0
SEQEND
0
POLYLINE
8
CUT
66
1
70
0
0
VERTEX
8
CUT
10
29.788
20
101.03
0
VERTEX
8
CUT
10
31.34
20
102
0
VERTEX
8
CUT
10
38.54
20
102
0
VERTEX
8
CUT
10
40.092
20
101.03
0
SEQEND
0
POLYLINE
8
CUT
66
1
70
0
0
VERTEX
8
CUT
10
29.788
20
99.97
0
VERTEX
8
CUT
10
31.34
20
99
0
VERTEX
8
CUT
10
38.54
20
99
0
VERTEX
8
CUT
10
40.092
20
99.97
0
SEQEND
0
POLYLINE
8
CUT
66
1
70
0
0
VERTEX
8
CUT
10
29.788
20
97.03
0
VERTEX
8
CUT
10
31.34
20
98
0
VERTEX
8
CUT
10
38.54
20
98
0
VERTEX
8
CUT
10
40.092
20
97.03
0
SEQEND
0
POLYLINE
8
CUT
66
1
70
0
0
VERTEX
8
CUT
10
29.788
20
95.97
0
VERTEX
8
CUT
10
31.34
20
95
0
VERTEX
8
CUT
10
38.54
20
95
0
VERTEX
8
CUT
10
40.092
20
95.97
0
SEQEND
0
POLYLINE
8
CUT
66
1
70
0
0
VERTEX
8
CUT
10
29.788
20
93.03
0
VERTEX
8
CUT
10
31.34
20
94
0
VERTEX
8
CUT
10
38.54
20
94
0
VERTEX
8
CUT
10
40.092
20
93.03
0
SEQEND
0
POLYLINE
8
CUT
66
1
70
0
0
VERTEX
8
CUT
10
29.788
20
91.97
0
VERTEX
8
CUT
10
31.34
20
91
0
VERTEX
8
CUT
10
38.54
20
91
0
VERTEX
8
CUT
10
40.092
20
91.97
0
SEQEND
0
POLYLINE
8
CUT
66
1
70
0
0
VERTEX
8
CUT
10
29.788
20
89.03
0
VERTEX
8
CUT
10
31.34
20
90
0
VERTEX
8
CUT
10
38.54
20
90
0
VERTEX
8
CUT
10
40.092
20
89.03
0
SEQEND
0
POLYLINE
8
CUT
66
1
70
0
0
VERTEX
8
CUT
10
29.788
20
87.97
0
VERTEX
8
CUT
10
31.34
20
87
0
VERTEX
8
CUT
10
38.54
20
87
0
VERTEX
8
CUT
10
40.092
20
87.97
0
SEQEND
0
POLYLINE
8
CUT
66
1
70
0
0
VERTEX
8
CUT
10
29.788
20
85.03
0
VERTEX
8
CUT
10
31.34
20
86
0
VERTEX
8
CUT
10
38.54
20
86
0
VERTEX
8
CUT
10
40.092
20
85.03
0
SEQEND
0
POLYLINE
8
CUT
66
1
70
0
0
VERTEX
8
CUT
10
29.788
20
83.97
0
VERTEX
8
CUT
10
31.34
20
83
0
VERTEX
8
CUT
10
38.54
20
83
0
VERTEX
8
CUT
10
40.092
20
83.97
0
SEQEND
0
POLYLINE
8
CUT
66
1
70
0
0
VERTEX
8
CUT
10
29.788
20
81.03
0
VERTEX
8
CUT
10
31.34
20
82
0
VERTEX
8
CUT
10
38.54
20
82
0
VERTEX
8
CUT
10
40.092
20
81.03
0
SEQEND
0
POLYLINE
8
CUT
66
1
70
0
0
VERTEX
8
CUT
10
29.788
20
79.97
0
VERTEX
8
CUT
10
31.34
20
79
0
VERTEX
8
CUT
10
38.54
20
79
0
VERTEX
8
CUT
10
40.092
20
79.97
0
SEQEND
0
POLYLINE
8
CUT
66
1
70
0
0
VERTEX
8
CUT
10
29.788
20
77.03
0
VERTEX
8
CUT
10
31.34
20
78
0
VERTEX
8
CUT
10
38.54
20
78
0
VERTEX
8
CUT
10
40.092
20
77.03
0
SEQEND
0
POLYLINE
8
CUT
66
1
70
0
0
VERTEX
8
CUT
10
29.788
20
75.97
0
VERTEX
8
CUT
10
31.34
20
75
0
VERTEX
8
CUT
10
38.54
20
75
0
VERTEX
8
CUT
10
40.092
20
75.97
0
SEQEND
0
POLYLINE
8
CUT
66
1
70
0
0
VERTEX
8
CUT
10
29.788
20
73.03
0
VERTEX
8
CUT
10
31.34
20
74
0
VERTEX
8
CUT
10
38.54
20
74
0
VERTEX
8
CUT
10
40.092
20
73.03
0
SEQEND
0
POLYLINE
8
CUT
66
1
70
0
0
VERTEX
8
CUT
10
40.258
20
101.97
0
VERTEX
8
CUT
10
41.81
20
101
0
VERTEX
8
CUT
10
49.01
20
101
0
VERTEX
8
CUT
10
50.562
20
101.97
0
SEQEND
0
POLYLINE
8
CUT
66
1
70
0
0
VERTEX
8
CUT
10
40.258
20
99.03
0
VERTEX
8
CUT
10
41.81
20
100
0
VERTEX
8
CUT
10
49.01
20
100
0
VERTEX
8
CUT
10
50.562
20
99.03
0
SEQEND
0
POLYLINE
8
CUT
66
1
70
0
0
VERTEX
8
CUT
10
40.258
20
97.97
0
VERTEX
8
CUT
10
41.81
20
97
0
VERTEX
8
CUT
10
49.01
20
97
0
VERTEX
8
CUT
10
50.562
20
97.97
0
SEQEND
0
POLYLINE
8
CUT
66
1
70
0
0
VERTEX
8
CUT
10
40.258
20
95.03
0
VERTEX
8
CUT
10
41.81
20
96
0
VERTEX
8
CUT
10
49.01
20
96
0
VERTEX
8
CUT
10
50.562
20
95.03
0
SEQEND
0
POLYLINE
8
CUT
66
1
70
0
0
VERTEX
8
CUT
10
40.258
20
93.97
0
VERTEX
8
CUT
10
41.81
20
93
0
VERTEX
8
CUT
10
49.01
20
93
0
VERTEX
8
CUT
10
50.562
20
93.97
0
SEQEND
0
POLYLINE
8
CUT
66
1
70
0
0
VERTEX
8
CUT
10
40.258
20
91.03
0
VERTEX
8
CUT
10
41.81
20
92
0
VERTEX
8
CUT
10
49.01
20
92
0
VERTEX
8
CUT
10
50.562
20
91.03
0
SEQEND
0
POLYLINE
8
CUT
66
1
70
0
0
VERTEX
8
CUT
10
40.258
20
89.97
0
VERTEX
8
CUT
10
41.81
20
89
0
VERTEX
8
CUT
10
49.01
20
89
0
VERTEX
8
CUT
10
50.562
20
89.97
0
SEQEND
0
POLYLINE
8
CUT
66
1
70
0
0
VERTEX
8
CUT
10
40.258
20
87.03
0
VERTEX
8
CUT
10
41.81
20
88
0
VERTEX
8
CUT
10
49.01
20
88
0
VERTEX
8
CUT
10
50.562
20
87.03
0
SEQEND
0
POLYLINE
8
CUT
66
1
70
0
0
VERTEX
8
CUT
10
40.258
20
85.97
0
VERTEX
8
CUT
10
41.81
20
85
0
VERTEX
8
CUT
10
49.01
20
85
0
VERTEX
8
CUT
10
50.562
20
85.97
0
SEQEND
0
POLYLINE
8
CUT
66
1
70
0
0
VERTEX
8
CUT
10
40.258
20
83.03
0
VERTEX
8
CUT
10
41.81
20
84
0
VERTEX
8
CUT
10
49.01
20
84
0
VERTEX
8
CUT
10
50.562
20
83.03
0
SEQEND
0
POLYLINE
8
CUT
66
1
70
0
0
VERTEX
8
CUT
10
40.258
20
81.97
0
VERTEX
8
CUT
10
41.81
20
81
0
VERTEX
8
CUT
10
49.01
20
81
0
VERTEX
8
CUT
10
50.562
20
81.97
0
SEQEND
0
POLYLINE
8
CUT
66
1
70
0
0
VERTEX
8
CUT
10
40.258
20
79.03
0
VERTEX
8
CUT
10
41.81
20
80
0
VERTEX
8
CUT
10
49.01
20
80
0
VERTEX
8
CUT
10
50.562
20
79.03
0
SEQEND
0
POLYLINE
8
CUT
66
1
70
0
0
VERTEX
8
CUT
10
40.258
20
77.97
0
VERTEX
8
CUT
10
41.81
20
77
0
VERTEX
8
CUT
10
49.01
20
77
0
VERTEX
8
CUT
10
50.562
20
77.97
0
SEQEND
0
POLYLINE
8
CUT
66
1
70
0
0
VERTEX
8
CUT
10
40.258
20
75.03
0
VERTEX
8
CUT
10
41.81
20
76
0
VERTEX
8
CUT
10
49.01
20
76
0
VERTEX
8
CUT
10
50.562
20
75.03
0
SEQEND
0
POLYLINE
8
CUT
66
1
70
0
0
VERTEX
8
CUT
10
40.258
20
73.97
0
VERTEX
8
CUT
10
41.81
20
73
0
VERTEX
8
CUT
10
49.01
20
73
0
VERTEX
8
CUT
10
50.562
20
73.97
0
SEQEND
0
POLYLINE
8
CUT
66
1
70
0
0
VERTEX
8
CUT
10
41.81
20
72
0
VERTEX
8
CUT
10
41.81
20
72
0
VERTEX
8
CUT
10
49.01
20
72
0
VERTEX
8
CUT
10
49.01
20
72
0
SEQEND
0
POLYLINE
8
CUT
66
1
70
0
0
VERTEX
8
CUT
10
50.728
20
101.03
0
VERTEX
8
CUT
10
52.28
20
102
0
VERTEX
8
CUT
10
59.48
20
102
0
VERTEX
8
CUT
10
61.032
20
101.03
0
SEQEND
0
POLYLINE
8
CUT
66
1
70
0
0
VERTEX
8
CUT
10
50.728
20
99.97
0
VERTEX
8
CUT
10
52.28
20
99
0
VERTEX
8
CUT
10
59.48
20
99
0
VERTEX
8
CUT
10
61.032
20
99.97
0
SEQEND
0
POLYLINE
8
CUT
66
1
70
0
0
VERTEX
8
CUT
10
50.728
20
97.03
0
VERTEX
8
CUT
10
52.28
20
98
0
VERTEX
8
CUT
10
59.48
20
98
0
VERTEX
8
CUT
10
61.032
20
97.03
0
SEQEND
0
POLYLINE
8
CUT
66
1
70
0
0
VERTEX
8
CUT
10
50.728
20
95.97
0
VERTEX
8
CUT
10
52.28
20
95
0
VERTEX
8
CUT
10
59.48
20
95
0
VERTEX
8
CUT
10
61.032
20
95.97
0
SEQEND
0
POLYLINE
8
CUT
66
1
70
0
0
VERTEX
8
CUT
10
50.728
20
93.03
0
VERTEX
8
CUT
10
52.28
20
94
0
VERTEX
8
CUT
10
59.48
20
94
0
VERTEX
8
CUT
10
61.032
20
93.03
0
SEQEND
0
POLYLINE
8
CUT
66
1
70
0
0
VERTEX
8
CUT
10
50.728
20
91.97
0
VERTEX
8
CUT
10
52.28
20
91
0
VERTEX
8
CUT
10
59.48
20
91
0
VERTEX
8
CUT
10
61.032
20
91.97
0
SEQEND
0
POLYLINE
8
CUT
66
1
70
0
0
VERTEX
8
CUT
10
50.728
20
89.03
0
VERTEX
8
CUT
10
52.28
20
90
0
VERTEX
8
CUT
10
59.48
20
90
0
VERTEX
8
CUT
10
61.032
20
89.03
0
SEQEND
0
POLYLINE
8
CUT
66
1
70
0
0
VERTEX
8
CUT
10
50.728
20
87.97
0
VERTEX
8
CUT
10
52.28
20
87
0
VERTEX
8
CUT
10
59.48
20
87
0
VERTEX
8
CUT
10
61.032
20
87.97
0
SEQEND
0
POLYLINE
8
CUT
66
1
70
0
0
VERTEX
8
CUT
10
50.728
20
85.03
0
VERTEX
8
CUT
10
52.28
20
86
0
VERTEX
8
CUT
10
59.48
20
86
0
VERTEX
8
CUT
10
61.032
20
85.03
0
SEQEND
0
POLYLINE
8
CUT
66
1
70
0
0
VERTEX
8
CUT
10
50.728
20
83.97
0
VERTEX
8
CUT
10
52.28
20
83
0
VERTEX
8
CUT
10
59.48
20
83
0
VERTEX
8
CUT
10
61.032
20
83.97
0
SEQEND
0
POLYLINE
8
CUT
66
1
70
0
0
VERTEX
8
CUT
10
50.728
20
81.03
0
VERTEX
8
CUT
10
52.28
20
82
0
VERTEX
8
CUT
10
59.48
20
82
0
VERTEX
8
CUT
10
61.032
20
81.03
0
SEQEND
0
POLYLINE
8
CUT
66
1
70
0
0
VERTEX
8
CUT
10
50.728
20
79.97
0
VERTEX
8
CUT
10
52.28
20
79
0
VERTEX
8
CUT
10
59.48
20
79
0
VERTEX
8
CUT
10
61.032
20
79.97
0
SEQEND
0
POLYLINE
8
CUT
66
1
70
0
0
VERTEX
8
CUT
10
50.728
20
77.03
0
VERTEX
8
CUT
10
52.28
20
78
0
VERTEX
8
CUT
10
59.48
20
78
0
VERTEX
8
CUT
10
61.032
20
77.03
0
SEQEND
0
POLYLINE
8
CUT
66
1
70
0
0
VERTEX
8
CUT
10
50.728
20
75.97
0
VERTEX
8
CUT
10
52.28
20
75
0
VERTEX
8
CUT
10
59.48
20
75
0
VERTEX
8
CUT
10
61.032
20
75.97
0
SEQEND
0
POLYLINE
8
CUT
66
1
70
0
0
VERTEX
8
CUT
10
50.728
20
73.03
0
VERTEX
8
CUT
10
52.28
20
74
0
VERTEX
8
CUT
10
59.48
20
74
0
VERTEX
8
CUT
10
61.032
20
73.03
0
SEQEND
0
LINE
8
CUT
10
61.198
20
101.97
11
62
21
101.4688
0
LINE
8
CUT
10
61.198
20
99.03
11
62
21
99.5313
0
LINE
8
CUT
10
61.198
20
97.97
11
62
21
97.4688
0
LINE
8
CUT
10
61.198
20
95.03
11
62
21
95.5313
0
LINE
8
CUT
10
61.198
20
93.97
11
62
21
93.4688
0
LINE
8
CUT
10
61.198
20
91.03
11
62
21
91.5313
0
LINE
8
CUT
10
61.198
20
89.97
11
62
21
89.4688
0
LINE
8
CUT
10
61.198
20
87.03
11
62
21
87.5313
0
LINE
8
CUT
10
61.198
20
85.97
11
62
21
85.4688
0
LINE
8
CUT
10
61.198
20
83.03
11
62
21
83.5313
0
LINE
8
CUT
10
61.198
20
81.97
11
62
21
81.4688
0
LINE
8
CUT
10
61.198
20
79.03
11
62
21
79.5313
0
LINE
8
CUT
10
61.198
20
77.97
11
62
21
77.4688
0
LINE
8
CUT
10
61.198
20
75.03
11
62
21
75.5313
0
LINE
8
CUT
10
61.198
20
73.97
11
62
21
73.4688
0
LINE
8
CUT
10
2.5
20
72
11
2.5
21
75
0
LINE
8
CUT
10
5
20
72
11
5
21
75
0
LINE
8
CUT
10
7.5
20
72
11
7.5
21
75
0
POLYLINE
8
CUT
66
1
70
0
0
VERTEX
8
CUT
10
0
20
66
0
VERTEX
8
CUT
10
70
20
66
0
VERTEX
8
CUT
10
70
20
36
0
VERTEX
8
CUT
10
0
20
36
0
VERTEX
8
CUT
10
0
20
66
0
SEQEND
0
LINE
8
CUT
10
8
20
65.7525
11
8.396
21
66
0
LINE
8
CUT
10
8
20
63.2475
11
8.508
21
62.93
0
LINE
8
CUT
10
8
20
61.5525
11
8.508
21
61.87
0
LINE
8
CUT
10
8
20
59.0475
11
8.508
21
58.73
0
LINE
8
CUT
10
8
20
57.3525
11
8.508
21
57.67
0
LINE
8
CUT
10
8
20
54.8475
11
8.508
21
54.53
0
LINE
8
CUT
10
8
20
53.1525
11
8.508
21
53.47
0
LINE
8
CUT
10
8
20
50.6475
11
8.508
21
50.33
0
LINE
8
CUT
10
8
20
48.9525
11
8.508
21
49.27
0
LINE
8
CUT
10
8
20
46.4475
11
8.508
21
46.13
0
LINE
8
CUT
10
8
20
44.7525
11
8.508
21
45.07
0
LINE
8
CUT
10
8
20
42.2475
11
8.508
21
41.93
0
LINE
8
CUT
10
8
20
40.5525
11
8.508
21
40.87
0
LINE
8
CUT
10
8
20
38.0475
11
8.508
21
37.73
0
LINE
8
CUT
10
8
20
36.3525
11
8.508
21
36.67
0
POLYLINE
8
CUT
66
1
70
0
0
VERTEX
8
CUT
10
8.848
20
65.03
0
VERTEX
8
CUT
10
10.4
20
66
0
VERTEX
8
CUT
10
17.6
20
66
0
VERTEX
8
CUT
10
19.152
20
65.03
0
SEQEND
0
POLYLINE
8
CUT
66
1
70
0
0
VERTEX
8
CUT
10
8.848
20
63.97
0
VERTEX
8
CUT
10
10.4
20
63
0
VERTEX
8
CUT
10
17.6
20
63
0
VERTEX
8
CUT
10
19.152
20
63.97
0
SEQEND
0
POLYLINE
8
CUT
66
1
70
0
0
VERTEX
8
CUT
10
8.848
20
60.83
0
VERTEX
8
CUT
10
10.4
20
61.8
0
VERTEX
8
CUT
10
17.6
20
61.8
0
VERTEX
8
CUT
10
19.152
20
60.83
0
SEQEND
0
POLYLINE
8
CUT
66
1
70
0
0
VERTEX
8
CUT
10
8.848
20
59.77
0
VERTEX
8
CUT
10
10.4
20
58.8
0
VERTEX
8
CUT
10
17.6
20
58.8
0
VERTEX
8
CUT
10
19.152
20
59.77
0
SEQEND
0
POLYLINE
8
CUT
66
1
70
0
0
VERTEX
8
CUT
10
8.848
20
56.63
0
VERTEX
8
CUT
10
10.4
20
57.6
0
VERTEX
8
CUT
10
17.6
20
57.6
0
VERTEX
8
CUT
10
19.152
20
56.63
0
SEQEND
0
POLYLINE
8
CUT
66
1
70
0
0
VERTEX
8
CUT
10
8.848
20
55.57
0
VERTEX
8
CUT
10
10.4
20
54.6
0
VERTEX
8
CUT
10
17.6
20
54.6
0
VERTEX
8
CUT
10
19.152
20
55.57
0
SEQEND
0
POLYLINE
8
CUT
66
1
70
0
0
VERTEX
8
CUT
10
8.848
20
52.43
0
VERTEX
8
CUT
10
10.4
20
53.4
0
VERTEX
8
CUT
10
17.6
20
53.4
0
VERTEX
8
CUT
10
19.152
20
52.43
0
SEQEND
0
POLYLINE
8
CUT
66
1
70
0
0
VERTEX
8
CUT
10
8.848
20
51.37
0
VERTEX
8
CUT
10
10.4
20
50.4
0
VERTEX
8
CUT
10
17.6
20
50.4
0
VERTEX
8
CUT
10
19.152
20
51.37
0
SEQEND
0
POLYLINE
8
CUT
66
1
70
0
0
VERTEX
8
CUT
10
8.848
20
48.23
0
VERTEX
8
CUT
10
10.4
20
49.2
0
VERTEX
8
CUT
10
17.6
20
49.2
0
VERTEX
8
CUT
10
19.152
20
48.23
0
SEQEND
0
POLYLINE
8
CUT
66
1
70
0
0
VERTEX
8
CUT
10
8.848
20
47.17
0
VERTEX
8
CUT
10
10.4
20
46.2
0
VERTEX
8
CUT
10
17.6
20
46.2
0
VERTEX
8
CUT
10
19.152
20
47.17
0
SEQEND
0
POLYLINE
8
CUT
66
1
70
0
0
VERTEX
8
CUT
10
8.848
20
44.03
0
VERTEX
8
CUT
10
10.4
20
45
0
VERTEX
8
CUT
10
17.6
20
45
0
VERTEX
8
CUT
10
19.152
20
44.03
0
SEQEND
0
POLYLINE
8
CUT
66
1
70
0
0
VERTEX
8
CUT
10
8.848
20
42.97
0
VERTEX
8
CUT
10
10.4
20
42
0
VERTEX
8
CUT
10
17.6
20
42
0
VERTEX
8
CUT
10
19.152
20
42.97
0
SEQEND
0
POLYLINE
8
CUT
66
1
70
0
0
VERTEX
8
CUT
10
8.848
20
39.83
0
VERTEX
8
CUT
10
10.4
20
40.8
0
VERTEX
8
CUT
10
17.6
20
40.8
0
VERTEX
8
CUT
10
19.152
20
39.83
0
SEQEND
0
POLYLINE
8
CUT
66
1
70
0
0
VERTEX
8
CUT
10
8.848
20
38.77
0
VERTEX
8
CUT
10
10.4
20
37.8
0
VERTEX
8
CUT
10
17.6
20
37.8
0
VERTEX
8
CUT
10
19.152
20
38.77
0
SEQEND
0
POLYLINE
8
CUT
66
1
70
0
0
VERTEX
8
CUT
10
9.44
20
36
0
VERTEX
8
CUT
10
10.4
20
36.6
0
VERTEX
8
CUT
10
17.6
20
36.6
0
VERTEX
8
CUT
10
18.56
20
36
0
SEQEND
0
POLYLINE
8
CUT
66
1
70
0
0
VERTEX
8
CUT
10
19.604
20
66
0
VERTEX
8
CUT
10
21.044
20
65.1
0
VERTEX
8
CUT
10
28.244
20
65.1
0
VERTEX
8
CUT
10
29.684
20
66
0
SEQEND
0
POLYLINE
8
CUT
66
1
70
0
0
VERTEX
8
CUT
10
19.492
20
62.93
0
VERTEX
8
CUT
10
21.044
20
63.9
0
VERTEX
8
CUT
10
28.244
20
63.9
0
VERTEX
8
CUT
10
29.796
20
62.93
0
SEQEND
0
POLYLINE
8
CUT
66
1
70
0
0
VERTEX
8
CUT
10
19.492
20
61.87
0
VERTEX
8
CUT
10
21.044
20
60.9
0
VERTEX
8
CUT
10
28.244
20
60.9
0
VERTEX
8
CUT
10
29.796
20
61.87
0
SEQEND
0
POLYLINE
8
CUT
66
1
70
0
0
VERTEX
8
CUT
10
19.492
20
58.73
0
VERTEX
8
CUT
10
21.044
20
59.7
0
VERTEX
8
CUT
10
28.244
20
59.7
0
VERTEX
8
CUT
10
29.796
20
58.73
0
SEQEND
0
POLYLINE
8
CUT
66
1
70
0
0
VERTEX
8
CUT
10
19.492
20
57.67
0
VERTEX
8
CUT
10
21.044
20
56.7
0
VERTEX
8
CUT
10
28.244
20
56.7
0
VERTEX
8
CUT
10
29.796
20
57.67
0
SEQEND
0
POLYLINE
8
CUT
66
1
70
0
0
VERTEX
8
CUT
10
19.492
20
54.53
0
VERTEX
8
CUT
10
21.044
20
55.5
0
VERTEX
8
CUT
10
28.244
20
55.5
0
VERTEX
8
CUT
10
29.796
20
54.53
0
SEQEND
0
POLYLINE
8
CUT
66
1
70
0
0
VERTEX
8
CUT
10
19.492
20
53.47
0
VERTEX
8
CUT
10
21.044
20
52.5
0
VERTEX
8
CUT
10
28.244
20
52.5
0
VERTEX
8
CUT
10
29.796
20
53.47
0
SEQEND
0
POLYLINE
8
CUT
66
1
70
0
0
VERTEX
8
CUT
10
19.492
20
50.33
0
VERTEX
8
CUT
10
21.044
20
51.3
0
VERTEX
8
CUT
10
28.244
20
51.3
0
VERTEX
8
CUT
10
29.796
20
50.33
0
SEQEND
0
POLYLINE
8
CUT
66
1
70
0
0
VERTEX
8
CUT
10
19.492
20
49.27
0
VERTEX
8
CUT
10
21.044
20
48.3
0
VERTEX
8
CUT
10
28.244
20
48.3
0
VERTEX
8
CUT
10
29.796
20
49.27
0
SEQEND
0
POLYLINE
8
CUT
66
1
70
0
0
VERTEX
8
CUT
10
19.492
20
46.13
0
VERTEX
8
CUT
10
21.044
20
47.1
0
VERTEX
8
CUT
10
28.244
20
47.1
0
VERTEX
8
CUT
10
29.796
20
46.13
0
SEQEND
0
POLYLINE
8
CUT
66
1
70
0
0
VERTEX
8
CUT
10
19.492
20
45.07
0
VERTEX
8
CUT
10
21.044
20
44.1
0
VERTEX
8
CUT
10
28.244
20
44.1
0
VERTEX
8
CUT
10
29.796
20
45.07
0
SEQEND
0
POLYLINE
8
CUT
66
1
70
0
0
VERTEX
8
CUT
10
19.492
20
41.93
0
VERTEX
8
CUT
10
21.044
20
42.9
0
VERTEX
8
CUT
10
28.244
20
42.9
0
VERTEX
8
CUT
10
29.796
20
41.93
0
SEQEND
0
POLYLINE
8
CUT
66
1
70
0
0
VERTEX
8
CUT
10
19.492
20
40.87
0
VERTEX
8
CUT
10
21.044
20
39.9
0
VERTEX
8
CUT
10
28.244
20
39.9
0
VERTEX
8
CUT
10
29.796
20
40.87
0
SEQEND
0
POLYLINE
8
CUT
66
1
70
0
0
VERTEX
8
CUT
10
19.492
20
37.73
0
VERTEX
8
CUT
10
21.044
20
38.7
0
VERTEX
8
CUT
10
28.244
20
38.7
0
VERTEX
8
CUT
10
29.796
20
37.73
0
SEQEND
0
LINE
8
CUT
10
19.492
20
36.67
11
20.564
21
36
0
LINE
8
CUT
10
28.724
20
36
11
29.796
21
36.67
0
POLYLINE
8
CUT
66
1
70
0
0
VERTEX
8
CUT
10
30.136
20
65.03
0
VERTEX
8
CUT
10
31.688
20
66
0
VERTEX
8
CUT
10
38.888
20
66
0
VERTEX
8
CUT
10
40.44
20
65.03
0
SEQEND
0
POLYLINE
8
CUT
66
1
70
0
0
VERTEX
8
CUT
10
30.136
20
63.97
0
VERTEX
8
CUT
10
31.688
20
63
0
VERTEX
8
CUT
10
38.888
20
63
0
VERTEX
8
CUT
10
40.44
20
63.97
0
SEQEND
0
POLYLINE
8
CUT
66
1
70
0
0
VERTEX
8
CUT
10
30.136
20
60.83
0
VERTEX
8
CUT
10
31.688
20
61.8
0
VERTEX
8
CUT
10
38.888
20
61.8
0
VERTEX
8
CUT
10
40.44
20
60.83
0
SEQEND
0
POLYLINE
8
CUT
66
1
70
0
0
VERTEX
8
CUT
10
30.136
20
59.77
0
VERTEX
8
CUT
10
31.688
20
58.8
0
VERTEX
8
CUT
10
38.888
20
58.8
0
VERTEX
8
CUT
10
40.44
20
59.77
0
SEQEND
0
POLYLINE
8
CUT
66
1
70
0
0
VERTEX
8
CUT
10
30.136
20
56.63
0
VERTEX
8
CUT
10
31.688
20
57.6
0
VERTEX
8
CUT
10
38.888
20
57.6
0
VERTEX
8
CUT
10
40.44
20
56.63
0
SEQEND
0
POLYLINE
8
CUT
66
1
70
0
0
VERTEX
8
CUT
10
30.136
20
55.57
0
VERTEX
8
CUT
10
31.688
20
54.6
0
VERTEX
8
CUT
10
38.888
20
54.6
0
VERTEX
8
CUT
10
40.44
20
55.57
0
SEQEND
0
POLYLINE
8
CUT
66
1
70
0
0
VERTEX
8
CUT
10
30.136
20
52.43
0
VERTEX
8
CUT
10
31.688
20
53.4
0
VERTEX
8
CUT
10
38.888
20
53.4
0
VERTEX
8
CUT
10
40.44
20
52.43
0
SEQEND
0
POLYLINE
8
CUT
66
1
70
0
0
VERTEX
8
CUT
10
30.136
20
51.37
0
VERTEX
8
CUT
10
31.688
20
50.4
0
VERTEX
8
CUT
10
38.888
20
50.4
0
VERTEX
8
CUT
10
40.44
20
51.37
0
SEQEND
0
POLYLINE
8
CUT
66
1
70
0
0
VERTEX
8
CUT
10
30.136
20
48.23
0
VERTEX
8
CUT
10
31.688
20
49.2
0
VERTEX
8
CUT
10
38.888
20
49.2
0
VERTEX
8
CUT
10
40.44
20
48.23
0
SEQEND
0
POLYLINE
8
CUT
66
1
70
0
0
VERTEX
8
CUT
10
30.136
20
47.17
0
VERTEX
8
CUT
10
31.688
20
46.2
0
VERTEX
8
CUT
10
38.888
20
46.2
0
VERTEX
8
CUT
10
40.44
20
47.17
0
SEQEND
0
POLYLINE
8
CUT
66
1
70
0
0
VERTEX
8
CUT
10
30.136
20
44.03
0
VERTEX
8
CUT
10
31.688
20
45
0
VERTEX
8
CUT
10
38.888
20
45
0
VERTEX
8
CUT
10
40.44
20
44.03
0
SEQEND
0
POLYLINE
8
CUT
66
1
70
0
0
VERTEX
8
CUT
10
30.136
20
42.97
0
VERTEX
8
CUT
10
31.688
20
42
0
VERTEX
8
CUT
10
38.888
20
42
0
VERTEX
8
CUT
10
40.44
20
42.97
0
SEQEND
0
POLYLINE
8
CUT
66
1
70
0
0
VERTEX
8
CUT
10
30.136
20
39.83
0
VERTEX
8
CUT
10
31.688
20
40.8
0
VERTEX
8
CUT
10
38.888
20
40.8
0
VERTEX
8
CUT
10
40.44
20
39.83
0
SEQEND
0
POLYLINE
8
CUT
66
1
70
0
0
VERTEX
8
CUT
10
30.136
20
38.77
0
VERTEX
8
CUT
10
31.688
20
37.8
0
VERTEX
8
CUT
10
38.888
20
37.8
0
VERTEX
8
CUT
10
40.44
20
38.77
0
SEQEND
0
POLYLINE
8
CUT
66
1
70
0
0
VERTEX
8
CUT
10
30.728
20
36
0
VERTEX
8
CUT
10
31.688
20
36.6
0
VERTEX
8
CUT
10
38.888
20
36.6
0
VERTEX
8
CUT
10
39.848
20
36
0
SEQEND
0
POLYLINE
8
CUT
66
1
70
0
0
VERTEX
8
CUT
10
40.892
20
66
0
VERTEX
8
CUT
10
42.332
20
65.1
0
VERTEX
8
CUT
10
49.532
20
65.1
0
VERTEX
8
CUT
10
50.972
20
66
0
SEQEND
0
POLYLINE
8
CUT
66
1
70
0
0
VERTEX
8
CUT
10
40.78
20
62.93
0
VERTEX
8
CUT
10
42.332
20
63.9
0
VERTEX
8
CUT
10
49.532
20
63.9
0
VERTEX
8
CUT
10
51.084
20
62.93
0
SEQEND
0
POLYLINE
8
CUT
66
1
70
0
0
VERTEX
8
CUT
10
40.78
20
61.87
0
VERTEX
8
CUT
10
42.332
20
60.9
0
VERTEX
8
CUT
10
49.532
20
60.9
0
VERTEX
8
CUT
10
51.084
20
61.87
0
SEQEND
0
POLYLINE
8
CUT
66
1
70
0
0
VERTEX
8
CUT
10
40.78
20
58.73
0
VERTEX
8
CUT
10
42.332
20
59.7
0
VERTEX
8
CUT
10
49.532
20
59.7
0
VERTEX
8
CUT
10
51.084
20
58.73
0
SEQEND
0
POLYLINE
8
CUT
66
1
70
0
0
VERTEX
8
CUT
10
40.78
20
57.67
0
VERTEX
8
CUT
10
42.332
20
56.7
0
VERTEX
8
CUT
10
49.532
20
56.7
0
VERTEX
8
CUT
10
51.084
20
57.67
0
SEQEND
0
POLYLINE
8
CUT
66
1
70
0
0
VERTEX
8
CUT
10
40.78
20
54.53
0
VERTEX
8
CUT
10
42.332
20
55.5
0
VERTEX
8
CUT
10
49.532
20
55.5
0
VERTEX
8
CUT
10
51.084
20
54.53
0
SEQEND
0
POLYLINE
8
CUT
66
1
70
0
0
VERTEX
8
CUT
10
40.78
20
53.47
0
VERTEX
8
CUT
10
42.332
20
52.5
0
VERTEX
8
CUT
10
49.532
20
52.5
0
VERTEX
8
CUT
10
51.084
20
53.47
0
SEQEND
0
POLYLINE
8
CUT
66
1
70
0
0
VERTEX
8
CUT
10
40.78
20
50.33
0
VERTEX
8
CUT
10
42.332
20
51.3
0
VERTEX
8
CUT
10
49.532
20
51.3
0
VERTEX
8
CUT
10
51.084
20
50.33
0
SEQEND
0
POLYLINE
8
CUT
66
1
70
0
0
VERTEX
8
CUT
10
40.78
20
49.27
0
VERTEX
8
CUT
10
42.332
20
48.3
0
VERTEX
8
CUT
10
49.532
20
48.3
0
VERTEX
8
CUT
10
51.084
20
49.27
0
SEQEND
0
POLYLINE
8
CUT
66
1
70
0
0
VERTEX
8
CUT
10
40.78
20
46.13
0
VERTEX
8
CUT
10
42.332
20
47.1
0
VERTEX
8
CUT
10
49.532
20
47.1
0
VERTEX
8
CUT
10
51.084
20
46.13
0
SEQEND
0
POLYLINE
8
CUT
66
1
70
0
0
VERTEX
8
CUT
10
40.78
20
45.07
0
VERTEX
8
CUT
10
42.332
20
44.1
0
VERTEX
8
CUT
10
49.532
20
44.1
0
VERTEX
8
CUT
10
51.084
20
45.07
0
SEQEND
0
POLYLINE
8
CUT
66
1
70
0
0
VERTEX
8
CUT
10
40.78
20
41.93
0
VERTEX
8
CUT
10
42.332
20
42.9
0
VERTEX
8
CUT
10
49.532
20
42.9
0
VERTEX
8
CUT
10
51.084
20
41.93
0
SEQEND
0
POLYLINE
8
CUT
66
1
70
0
0
VERTEX
8
CUT
10
40.78
20
40.87
0
VERTEX
8
CUT
10
42.332
20
39.9
0
VERTEX
8
CUT
10
49.532
20
39.9
0
VERTEX
8
CUT
10
51.084
20
40.87
0
SEQEND
0
POLYLINE
8
CUT
66
1
70
0
0
VERTEX
8
CUT
10
40.78
20
37.73
0
VERTEX
8
CUT
10
42.332
20
38.7
0
VERTEX
8
CUT
10
49.532
20
38.7
0
VERTEX
8
CUT
10
51.084
20
37.73
0
SEQEND
0
LINE
8
CUT
10
40.78
20
36.67
11
41.852
21
36
0
LINE
8
CUT
10
50.012
20
36
11
51.084
21
36.67
0
POLYLINE
8
CUT
66
1
70
0
0
VERTEX
8
CUT
10
51.424
20
65.03
0
VERTEX
8
CUT
10
52.976
20
66
0
VERTEX
8
CUT
10
60.176
20
66
0
VERTEX
8
CUT
10
61.728
20
65.03
0
SEQEND
0
POLYLINE
8
CUT
66
1
70
0
0
VERTEX
8
CUT
10
51.424
20
63.97
0
VERTEX
8
CUT
10
52.976
20
63
0
VERTEX
8
CUT
10
60.176
20
63
0
VERTEX
8
CUT
10
61.728
20
63.97
0
SEQEND
0
POLYLINE
8
CUT
66
1
70
0
0
VERTEX
8
CUT
10
51.424
20
60.83
0
VERTEX
8
CUT
10
52.976
20
61.8
0
VERTEX
8
CUT
10
60.176
20
61.8
0
VERTEX
8
CUT
10
61.728
20
60.83
0
SEQEND
0
POLYLINE
8
CUT
66
1
70
0
0
VERTEX
8
CUT
10
51.424
20
59.77
0
VERTEX
8
CUT
10
52.976
20
58.8
0
VERTEX
8
CUT
10
60.176
20
58.8
0
VERTEX
8
CUT
10
61.728
20
59.77
0
SEQEND
0
POLYLINE
8
CUT
66
1
70
0
0
VERTEX
8
CUT
10
51.424
20
56.63
0
VERTEX
8
CUT
10
52.976
20
57.6
0
VERTEX
8
CUT
10
60.176
20
57.6
0
VERTEX
8
CUT
10
61.728
20
56.63
0
SEQEND
0
POLYLINE
8
CUT
66
1
70
0
0
VERTEX
8
CUT
10
51.424
20
55.57
0
VERTEX
8
CUT
10
52.976
20
54.6
0
VERTEX
8
CUT
10
60.176
20
54.6
0
VERTEX
8
CUT
10
61.728
20
55.57
0
SEQEND
0
POLYLINE
8
CUT
66
1
70
0
0
VERTEX
8
CUT
10
51.424
20
52.43
0
VERTEX
8
CUT
10
52.976
20
53.4
0
VERTEX
8
CUT
10
60.176
20
53.4
0
VERTEX
8
CUT
10
61.728
20
52.43
0
SEQEND
0
POLYLINE
8
CUT
66
1
70
0
0
VERTEX
8
CUT
10
51.424
20
51.37
0
VERTEX
8
CUT
10
52.976
20
50.4
0
VERTEX
8
CUT
10
60.176
20
50.4
0
VERTEX
8
CUT
10
61.728
20
51.37
0
SEQEND
0
POLYLINE
8
CUT
66
1
70
0
0
VERTEX
8
CUT
10
51.424
20
48.23
0
VERTEX
8
CUT
10
52.976
20
49.2
0
VERTEX
8
CUT
10
60.176
20
49.2
0
VERTEX
8
CUT
10
61.728
20
48.23
0
SEQEND
0
POLYLINE
8
CUT
66
1
70
0
0
VERTEX
8
CUT
10
51.424
20
47.17
0
VERTEX
8
CUT
10
52.976
20
46.2
0
VERTEX
8
CUT
10
60.176
20
46.2
0
VERTEX
8
CUT
10
61.728
20
47.17
0
SEQEND
0
POLYLINE
8
CUT
66
1
70
0
0
VERTEX
8
CUT
10
51.424
20
44.03
0
VERTEX
8
CUT
10
52.976
20
45
0
VERTEX
8
CUT
10
60.176
20
45
0
VERTEX
8
CUT
10
61.728
20
44.03
0
SEQEND
0
POLYLINE
8
CUT
66
1
70
0
0
VERTEX
8
CUT
10
51.424
20
42.97
0
VERTEX
8
CUT
10
52.976
20
42
0
VERTEX
8
CUT
10
60.176
20
42
0
VERTEX
8
CUT
10
61.728
20
42.97
0
SEQEND
0
POLYLINE
8
CUT
66
1
70
0
0
VERTEX
8
CUT
10
51.424
20
39.83
0
VERTEX
8
CUT
10
52.976
20
40.8
0
VERTEX
8
CUT
10
60.176
20
40.8
0
VERTEX
8
CUT
10
61.728
20
39.83
0
SEQEND
0
POLYLINE
8
CUT
66
1
70
0
0
VERTEX
8
CUT
10
51.424
20
38.77
0
VERTEX
8
CUT
10
52.976
20
37.8
0
VERTEX
8
CUT
10
60.176
20
37.8
0
VERTEX
8
CUT
10
61.728
20
38.77
0
SEQEND
0
POLYLINE
8
CUT
66
1
70
0
0
VERTEX
8
CUT
10
52.016
20
36
0
VERTEX
8
CUT
10
52.976
20
36.6
0
VERTEX
8
CUT
10
60.176
20
36.6
0
VERTEX
8
CUT
10
61.136
20
36
0
SEQEND
0
LINE
8
CUT
10
2.5
20
36
11
2.5
21
39
0
LINE
8
CUT
10
5
20
36
11
5
21
39
0
LINE
8
CUT
10
7.5
20
36
11
7.5
21
39
0
LINE
8
CUT
10
10
20
36
11
10
21
39
0
POLYLINE
8
CUT
66
1
70
0
0
VERTEX
8
CUT
10
0
20
30
0
VERTEX
8
CUT
10
70
20
30
0
VERTEX
8
CUT
10
70
20
0
0
VERTEX
8
CUT
10
0
20
0
0
VERTEX
8
CUT
10
0
20
30
0
SEQEND
0
LINE
8
CUT
10
8
20
27.0387
11
8.334
21
26.83
0
LINE
8
CUT
10
8
20
25.5613
11
8.334
21
25.77
0
LINE
8
CUT
10
8
20
22.6387
11
8.334
21
22.43
0
LINE
8
CUT
10
8
20
21.1612
11
8.334
21
21.37
0
LINE
8
CUT
10
8
20
18.2388
11
8.334
21
18.03
0
LINE
8
CUT
10
8
20
16.7612
11
8.334
21
16.97
0
LINE
8
CUT
10
8
20
13.8388
11
8.334
21
13.63
0
LINE
8
CUT
10
8
20
12.3613
11
8.334
21
12.57
0
LINE
8
CUT
10
8
20
9.4387
11
8.334
21
9.23
0
LINE
8
CUT
10
8
20
7.9613
11
8.334
21
8.17
0
LINE
8
CUT
10
8
20
5.0387
11
8.334
21
4.83
0
LINE
8
CUT
10
8
20
3.5613
11
8.334
21
3.77
0
LINE
8
CUT
10
8
20
0.6387
11
8.334
21
0.43
0
POLYLINE
8
CUT
66
1
70
0
0
VERTEX
8
CUT
10
8.848
20
29.03
0
VERTEX
8
CUT
10
10.4
20
30
0
VERTEX
8
CUT
10
17.6
20
30
0
VERTEX
8
CUT
10
19.152
20
29.03
0
SEQEND
0
POLYLINE
8
CUT
66
1
70
0
0
VERTEX
8
CUT
10
8.848
20
27.97
0
VERTEX
8
CUT
10
10.4
20
27
0
VERTEX
8
CUT
10
17.6
20
27
0
VERTEX
8
CUT
10
19.152
20
27.97
0
SEQEND
0
POLYLINE
8
CUT
66
1
70
0
0
VERTEX
8
CUT
10
8.848
20
24.63
0
VERTEX
8
CUT
10
10.4
20
25.6
0
VERTEX
8
CUT
10
17.6
20
25.6
0
VERTEX
8
CUT
10
19.152
20
24.63
0
SEQEND
0
POLYLINE
8
CUT
66
1
70
0
0
VERTEX
8
CUT
10
8.848
20
23.57
0
VERTEX
8
CUT
10
10.4
20
22.6
0
VERTEX
8
CUT
10
17.6
20
22.6
0
VERTEX
8
CUT
10
19.152
20
23.57
0
SEQEND
0
POLYLINE
8
CUT
66
1
70
0
0
VERTEX
8
CUT
10
8.848
20
20.23
0
VERTEX
8
CUT
10
10.4
20
21.2
0
VERTEX
8
CUT
10
17.6
20
21.2
0
VERTEX
8
CUT
10
19.152
20
20.23
0
SEQEND
0
POLYLINE
8
CUT
66
1
70
0
0
VERTEX
8
CUT
10
8.848
20
19.17
0
VERTEX
8
CUT
10
10.4
20
18.2
0
VERTEX
8
CUT
10
17.6
20
18.2
0
VERTEX
8
CUT
10
19.152
20
19.17
0
SEQEND
0
POLYLINE
8
CUT
66
1
70
0
0
VERTEX
8
CUT
10
8.848
20
15.83
0
VERTEX
8
CUT
10
10.4
20
16.8
0
VERTEX
8
CUT
10
17.6
20
16.8
0
VERTEX
8
CUT
10
19.152
20
15.83
0
SEQEND
0
POLYLINE
8
CUT
66
1
70
0
0
VERTEX
8
CUT
10
8.848
20
14.77
0
VERTEX
8
CUT
10
10.4
20
13.8
0
VERTEX
8
CUT
10
17.6
20
13.8
0
VERTEX
8
CUT
10
19.152
20
14.77
0
SEQEND
0
POLYLINE
8
CUT
66
1
70
0
0
VERTEX
8
CUT
10
8.848
20
11.43
0
VERTEX
8
CUT
10
10.4
20
12.4
0
VERTEX
8
CUT
10
17.6
20
12.4
0
VERTEX
8
CUT
10
19.152
20
11.43
0
SEQEND
0
POLYLINE
8
CUT
66
1
70
0
0
VERTEX
8
CUT
10
8.848
20
10.37
0
VERTEX
8
CUT
10
10.4
20
9.4
0
VERTEX
8
CUT
10
17.6
20
9.4
0
VERTEX
8
CUT
10
19.152
20
10.37
0
SEQEND
0
POLYLINE
8
CUT
66
1
70
0
0
VERTEX
8
CUT
10
8.848
20
7.03
0
VERTEX
8
CUT
10
10.4
20
8
0
VERTEX
8
CUT
10
17.6
20
8
0
VERTEX
8
CUT
10
19.152
20
7.03
0
SEQEND
0
POLYLINE
8
CUT
66
1
70
0
0
VERTEX
8
CUT
10
8.848
20
5.97
0
VERTEX
8
CUT
10
10.4
20
5
0
VERTEX
8
CUT
10
17.6
20
5
0
VERTEX
8
CUT
10
19.152
20
5.97
0
SEQEND
0
POLYLINE
8
CUT
66
1
70
0
0
VERTEX
8
CUT
10
8.848
20
2.63
0
VERTEX
8
CUT
10
10.4
20
3.6
0
VERTEX
8
CUT
10
17.6
20
3.6
0
VERTEX
8
CUT
10
19.152
20
2.63
0
SEQEND
0
POLYLINE
8
CUT
66
1
70
0
0
VERTEX
8
CUT
10
8.848
20
1.57
0
VERTEX
8
CUT
10
10.4
20
0.6
0
VERTEX
8
CUT
10
17.6
20
0.6
0
VERTEX
8
CUT
10
19.152
20
1.57
0
SEQEND
0
POLYLINE
8
CUT
66
1
70
0
0
VERTEX
8
CUT
10
19.938
20
30
0
VERTEX
8
CUT
10
21.218
20
29.2
0
VERTEX
8
CUT
10
28.418
20
29.2
0
VERTEX
8
CUT
10
29.698
20
30
0
SEQEND
0
POLYLINE
8
CUT
66
1
70
0
0
VERTEX
8
CUT
10
19.666
20
26.83
0
VERTEX
8
CUT
10
21.218
20
27.8
0
VERTEX
8
CUT
10
28.418
20
27.8
0
VERTEX
8
CUT
10
29.97
20
26.83
0
SEQEND
0
POLYLINE
8
CUT
66
1
70
0
0
VERTEX
8
CUT
10
19.666
20
25.77
0
VERTEX
8
CUT
10
21.218
20
24.8
0
VERTEX
8
CUT
10
28.418
20
24.8
0
VERTEX
8
CUT
10
29.97
20
25.77
0
SEQEND
0
POLYLINE
8
CUT
66
1
70
0
0
VERTEX
8
CUT
10
19.666
20
22.43
0
VERTEX
8
CUT
10
21.218
20
23.4
0
VERTEX
8
CUT
10
28.418
20
23.4
0
VERTEX
8
CUT
10
29.97
20
22.43
0
SEQEND
0
POLYLINE
8
CUT
66
1
70
0
0
VERTEX
8
CUT
10
19.666
20
21.37
0
VERTEX
8
CUT
10
21.218
20
20.4
0
VERTEX
8
CUT
10
28.418
20
20.4
0
VERTEX
8
CUT
10
29.97
20
21.37
0
SEQEND
0
POLYLINE
8
CUT
66
1
70
0
0
VERTEX
8
CUT
10
19.666
20
18.03
0
VERTEX
8
CUT
10
21.218
20
19
0
VERTEX
8
CUT
10
28.418
20
19
0
VERTEX
8
CUT
10
29.97
20
18.03
0
SEQEND
0
POLYLINE
8
CUT
66
1
70
0
0
VERTEX
8
CUT
10
19.666
20
16.97
0
VERTEX
8
CUT
10
21.218
20
16
0
VERTEX
8
CUT
10
28.418
20
16
0
VERTEX
8
CUT
10
29.97
20
16.97
0
SEQEND
0
POLYLINE
8
CUT
66
1
70
0
0
VERTEX
8
CUT
10
19.666
20
13.63
0
VERTEX
8
CUT
10
21.218
20
14.6
0
VERTEX
8
CUT
10
28.418
20
14.6
0
VERTEX
8
CUT
10
29.97
20
13.63
0
SEQEND
0
POLYLINE
8
CUT
66
1
70
0
0
VERTEX
8
CUT
10
19.666
20
12.57
0
VERTEX
8
CUT
10
21.218
20
11.6
0
VERTEX
8
CUT
10
28.418
20
11.6
0
VERTEX
8
CUT
10
29.97
20
12.57
0
SEQEND
0
POLYLINE
8
CUT
66
1
70
0
0
VERTEX
8
CUT
10
19.666
20
9.23
0
VERTEX
8
CUT
10
21.218
20
10.2
0
VERTEX
8
CUT
10
28.418
20
10.2
0
VERTEX
8
CUT
10
29.97
20
9.23
0
SEQEND
0
POLYLINE
8
CUT
66
1
70
0
0
VERTEX
8
CUT
10
19.666
20
8.17
0
VERTEX
8
CUT
10
21.218
20
7.2
0
VERTEX
8
CUT
10
28.418
20
7.2
0
VERTEX
8
CUT
10
29.97
20
8.17
0
SEQEND
0
POLYLINE
8
CUT
66
1
70
0
0
VERTEX
8
CUT
10
19.666
20
4.83
0
VERTEX
8
CUT
10
21.218
20
5.8
0
VERTEX
8
CUT
10
28.418
20
5.8
0
VERTEX
8
CUT
10
29.97
20
4.83
0
SEQEND
0
POLYLINE
8
CUT
66
1
70
0
0
VERTEX
8
CUT
10
19.666
20
3.77
0
VERTEX
8
CUT
10
21.218
20
2.8
0
VERTEX
8
CUT
10
28.418
20
2.8
0
VERTEX
8
CUT
10
29.97
20
3.77
0
SEQEND
0
POLYLINE
8
CUT
66
1
70
0
0
VERTEX
8
CUT
10
19.666
20
0.43
0
VERTEX
8
CUT
10
21.218
20
1.4
0
VERTEX
8
CUT
10
28.418
20
1.4
0
VERTEX
8
CUT
10
29.97
20
0.43
0
SEQEND
0
POLYLINE
8
CUT
66
1
70
0
0
VERTEX
8
CUT
10
30.484
20
29.03
0
VERTEX
8
CUT
10
32.036
20
30
0
VERTEX
8
CUT
10
39.236
20
30
0
VERTEX
8
CUT
10
40.788
20
29.03
0
SEQEND
0
POLYLINE
8
CUT
66
1
70
0
0
VERTEX
8
CUT
10
30.484
20
27.97
0
VERTEX
8
CUT
10
32.036
20
27
0
VERTEX
8
CUT
10
39.236
20
27
0
VERTEX
8
CUT
10
40.788
20
27.97
0
SEQEND
0
POLYLINE
8
CUT
66
1
70
0
0
VERTEX
8
CUT
10
30.484
20
24.63
0
VERTEX
8
CUT
10
32.036
20
25.6
0
VERTEX
8
CUT
10
39.236
20
25.6
0
VERTEX
8
CUT
10
40.788
20
24.63
0
SEQEND
0
POLYLINE
8
CUT
66
1
70
0
0
VERTEX
8
CUT
10
30.484
20
23.57
0
VERTEX
8
CUT
10
32.036
20
22.6
0
VERTEX
8
CUT
10
39.236
20
22.6
0
VERTEX
8
CUT
10
40.788
20
23.57
0
SEQEND
0
POLYLINE
8
CUT
66
1
70
0
0
VERTEX
8
CUT
10
30.484
20
20.23
0
VERTEX
8
CUT
10
32.036
20
21.2
0
VERTEX
8
CUT
10
39.236
20
21.2
0
VERTEX
8
CUT
10
40.788
20
20.23
0
SEQEND
0
POLYLINE
8
CUT
66
1
70
0
0
VERTEX
8
CUT
10
30.484
20
19.17
0
VERTEX
8
CUT
10
32.036
20
18.2
0
VERTEX
8
CUT
10
39.236
20
18.2
0
VERTEX
8
CUT
10
40.788
20
19.17
0
SEQEND
0
POLYLINE
8
CUT
66
1
70
0
0
VERTEX
8
CUT
10
30.484
20
15.83
0
VERTEX
8
CUT
10
32.036
20
16.8
0
VERTEX
8
CUT
10
39.236
20
16.8
0
VERTEX
8
CUT
10
40.788
20
15.83
0
SEQEND
0
POLYLINE
8
CUT
66
1
70
0
0
VERTEX
8
CUT
10
30.484
20
14.77
0
VERTEX
8
CUT
10
32.036
20
13.8
0
VERTEX
8
CUT
10
39.236
20
13.8
0
VERTEX
8
CUT
10
40.788
20
14.77
0
SEQEND
0
POLYLINE
8
CUT
66
1
70
0
0
VERTEX
8
CUT
10
30.484
20
11.43
0
VERTEX
8
CUT
10
32.036
20
12.4
0
VERTEX
8
CUT
10
39.236
20
12.4
0
VERTEX
8
CUT
10
40.788
20
11.43
0
SEQEND
0
POLYLINE
8
CUT
66
1
70
0
0
VERTEX
8
CUT
10
30.484
20
10.37
0
VERTEX
8
CUT
10
32.036
20
9.4
0
VERTEX
8
CUT
10
39.236
20
9.4
0
VERTEX
8
CUT
10
40.788
20
10.37
0
SEQEND
0
POLYLINE
8
CUT
66
1
70
0
0
VERTEX
8
CUT
10
30.484
20
7.03
0
VERTEX
8
CUT
10
32.036
20
8
0
VERTEX
8
CUT
10
39.236
20
8
0
VERTEX
8
CUT
10
40.788
20
7.03
0
SEQEND
0
POLYLINE
8
CUT
66
1
70
0
0
VERTEX
8
CUT
10
30.484
20
5.97
0
VERTEX
8
CUT
10
32.036
20
5
0
VERTEX
8
CUT
10
39.236
20
5
0
VERTEX
8
CUT
10
40.788
20
5.97
0
SEQEND
0
POLYLINE
8
CUT
66
1
70
0
0
VERTEX
8
CUT
10
30.484
20
2.63
0
VERTEX
8
CUT
10
32.036
20
3.6
0
VERTEX
8
CUT
10
39.236
20
3.6
0
VERTEX
8
CUT
10
40.788
20
2.63
0
SEQEND
0
POLYLINE
8
CUT
66
1
70
0
0
VERTEX
8
CUT
10
30.484
20
1.57
0
VERTEX
8
CUT
10
32.036
20
0.6
0
VERTEX
8
CUT
10
39.236
20
0.6
0
VERTEX
8
CUT
10
40.788
20
1.57
0
SEQEND
0
POLYLINE
8
CUT
66
1
70
0
0
VERTEX
8
CUT
10
41.574
20
30
0
VERTEX
8
CUT
10
42.854
20
29.2
0
VERTEX
8
CUT
10
50.054
20
29.2
0
VERTEX
8
CUT
10
51.334
20
30
0
SEQEND
0
POLYLINE
8
CUT
66
1
70
0
0
VERTEX
8
CUT
10
41.302
20
26.83
0
VERTEX
8
CUT
10
42.854
20
27.8
0
VERTEX
8
CUT
10
50.054
20
27.8
0
VERTEX
8
CUT
10
51.606
20
26.83
0
SEQEND
0
POLYLINE
8
CUT
66
1
70
0
0
VERTEX
8
CUT
10
41.302
20
25.77
0
VERTEX
8
CUT
10
42.854
20
24.8
0
VERTEX
8
CUT
10
50.054
20
24.8
0
VERTEX
8
CUT
10
51.606
20
25.77
0
SEQEND
0
POLYLINE
8
CUT
66
1
70
0
0
VERTEX
8
CUT
10
41.302
20
22.43
0
VERTEX
8
CUT
10
42.854
20
23.4
0
VERTEX
8
CUT
10
50.054
20
23.4
0
VERTEX
8
CUT
10
51.606
20
22.43
0
SEQEND
0
POLYLINE
8
CUT
66
1
70
0
0
VERTEX
8
CUT
10
41.302
20
21.37
0
VERTEX
8
CUT
10
42.854
20
20.4
0
VERTEX
8
CUT
10
50.054
20
20.4
0
VERTEX
8
CUT
10
51.606
20
21.37
0
SEQEND
0
POLYLINE
8
CUT
66
1
70
0
0
VERTEX
8
CUT
10
41.302
20
18.03
0
VERTEX
8
CUT
10
42.854
20
19
0
VERTEX
8
CUT
10
50.054
20
19
0
VERTEX
8
CUT
10
51.606
20
18.03
0
SEQEND
0
POLYLINE
8
CUT
66
1
70
0
0
VERTEX
8
CUT
10
41.302
20
16.97
0
VERTEX
8
CUT
10
42.854
20
16
0
VERTEX
8
CUT
10
50.054
20
16
0
VERTEX
8
CUT
10
51.606
20
16.97
0
SEQEND
0
POLYLINE
8
CUT
66
1
70
0
0
VERTEX
8
CUT
10
41.302
20
13.63
0
VERTEX
8
CUT
10
42.854
20
14.6
0
VERTEX
8
CUT
10
50.054
20
14.6
0
VERTEX
8
CUT
10
51.606
20
13.63
0
SEQEND
0
POLYLINE
8
CUT
66
1
70
0
0
VERTEX
8
CUT
10
41.302
20
12.57
0
VERTEX
8
CUT
10
42.854
20
11.6
0
VERTEX
8
CUT
10
50.054
20
11.6
0
VERTEX
8
CUT
10
51.606
20
12.57
0
SEQEND
0
POLYLINE
8
CUT
66
1
70
0
0
VERTEX
8
CUT
10
41.302
20
9.23
0
VERTEX
8
CUT
10
42.854
20
10.2
0
VERTEX
8
CUT
10
50.054
20
10.2
0
VERTEX
8
CUT
10
51.606
20
9.23
0
SEQEND
0
POLYLINE
8
CUT
66
1
70
0
0
VERTEX
8
CUT
10
41.302
20
8.17
0
VERTEX
8
CUT
10
42.854
20
7.2
0
VERTEX
8
CUT
10
50.054
20
7.2
0
VERTEX
8
CUT
10
51.606
20
8.17
0
SEQEND
0
POLYLINE
8
CUT
66
1
70
0
0
VERTEX
8
CUT
10
41.302
20
4.83
0
VERTEX
8
CUT
10
42.854
20
5.8
0
VERTEX
8
CUT
10
50.054
20
5.8
0
VERTEX
8
CUT
10
51.606
20
4.83
0
SEQEND
0
POLYLINE
8
CUT
66
1
70
0
0
VERTEX
8
CUT
10
41.302
20
3.77
0
VERTEX
8
CUT
10
42.854
20
2.8
0
VERTEX
8
CUT
10
50.054
20
2.8
0
VERTEX
8
CUT
10
51.606
20
3.77
0
SEQEND
0
POLYLINE
8
CUT
66
1
70
0
0
VERTEX
8
CUT
10
41.302
20
0.43
0
VERTEX
8
CUT
10
42.854
20
1.4
0
VERTEX
8
CUT
10
50.054
20
1.4
0
VERTEX
8
CUT
10
51.606
20
0.43
0
SEQEND
0
POLYLINE
8
CUT
66
1
70
0
0
VERTEX
8
CUT
10
52.12
20
29.03
0
VERTEX
8
CUT
10
53.672
20
30
0
VERTEX
8
CUT
10
60.872
20
30
0
VERTEX
8
CUT
10
62
20
29.295
0
SEQEND
0
POLYLINE
8
CUT
66
1
70
0
0
VERTEX
8
CUT
10
52.12
20
27.97
0
VERTEX
8
CUT
10
53.672
20
27
0
VERTEX
8
CUT
10
60.872
20
27
0
VERTEX
8
CUT
10
62
20
27.705
0
SEQEND
0
POLYLINE
8
CUT
66
1
70
0
0
VERTEX
8
CUT
10
52.12
20
24.63
0
VERTEX
8
CUT
10
53.672
20
25.6
0
VERTEX
8
CUT
10
60.872
20
25.6
0
VERTEX
8
CUT
10
62
20
24.895
0
SEQEND
0
POLYLINE
8
CUT
66
1
70
0
0
VERTEX
8
CUT
10
52.12
20
23.57
0
VERTEX
8
CUT
10
53.672
20
22.6
0
VERTEX
8
CUT
10
60.872
20
22.6
0
VERTEX
8
CUT
10
62
20
23.305
0
SEQEND
0
POLYLINE
8
CUT
66
1
70
0
0
VERTEX
8
CUT
10
52.12
20
20.23
0
VERTEX
8
CUT
10
53.672
20
21.2
0
VERTEX
8
CUT
10
60.872
20
21.2
0
VERTEX
8
CUT
10
62
20
20.495
0
SEQEND
0
POLYLINE
8
CUT
66
1
70
0
0
VERTEX
8
CUT
10
52.12
20
19.17
0
VERTEX
8
CUT
10
53.672
20
18.2
0
VERTEX
8
CUT
10
60.872
20
18.2
0
VERTEX
8
CUT
10
62
20
18.905
0
SEQEND
0
POLYLINE
8
CUT
66
1
70
0
0
VERTEX
8
CUT
10
52.12
20
15.83
0
VERTEX
8
CUT
10
53.672
20
16.8
0
VERTEX
8
CUT
10
60.872
20
16.8
0
VERTEX
8
CUT
10
62
20
16.095
0
SEQEND
0
POLYLINE
8
CUT
66
1
70
0
0
VERTEX
8
CUT
10
52.12
20
14.77
0
VERTEX
8
CUT
10
53.672
20
13.8
0
VERTEX
8
CUT
10
60.872
20
13.8
0
VERTEX
8
CUT
10
62
20
14.505
0
SEQEND
0
POLYLINE
8
CUT
66
1
70
0
0
VERTEX
8
CUT
10
52.12
20
11.43
0
VERTEX
8
CUT
10
53.672
20
12.4
0
VERTEX
8
CUT
10
60.872
20
12.4
0
VERTEX
8
CUT
10
62
20
11.695
0
SEQEND
0
POLYLINE
8
CUT
66
1
70
0
0
VERTEX
8
CUT
10
52.12
20
10.37
0
VERTEX
8
CUT
10
53.672
20
9.4
0
VERTEX
8
CUT
10
60.872
20
9.4
0
VERTEX
8
CUT
10
62
20
10.105
0
SEQEND
0
POLYLINE
8
CUT
66
1
70
0
0
VERTEX
8
CUT
10
52.12
20
7.03
0
VERTEX
8
CUT
10
53.672
20
8
0
VERTEX
8
CUT
10
60.872
20
8
0
VERTEX
8
CUT
10
62
20
7.295
0
SEQEND
0
POLYLINE
8
CUT
66
1
70
0
0
VERTEX
8
CUT
10
52.12
20
5.97
0
VERTEX
8
CUT
10
53.672
20
5
0
VERTEX
8
CUT
10
60.872
20
5
0
VERTEX
8
CUT
10
62
20
5.705
0
SEQEND
0
POLYLINE
8
CUT
66
1
70
0
0
VERTEX
8
CUT
10
52.12
20
2.63
0
VERTEX
8
CUT
10
53.672
20
3.6
0
VERTEX
8
CUT
10
60.872
20
3.6
0
VERTEX
8
CUT
10
62
20
2.895
0
SEQEND
0
POLYLINE
8
CUT
66
1
70
0
0
VERTEX
8
CUT
10
52.12
20
1.57
0
VERTEX
8
CUT
10
53.672
20
0.6
0
VERTEX
8
CUT
10
60.872
20
0.6
0
VERTEX
8
CUT
10
62
20
1.305
0
SEQEND
0
LINE
8
CUT
10
2.5
20
0
11
2.5
21
3
0
LINE
8
CUT
10
5
20
0
11
5
21
3
0
LINE
8
CUT
10
7.5
20
0
11
7.5
21
3
0
LINE
8
CUT
10
10
20
0
11
10
21
3
0
LINE
8
CUT
10
12.5
20
0
11
12.5
21
3
0
ENDSEC
0
EOF
