0
SECTION
2
HEADER
9
$ACADVER
1
AC1009
9
$INSUNITS
70
4
0
ENDSEC
0
SECTION
2
TABLES
0
TABLE
2
LAYER
70
1
0
LAYER
2
CUT
70
0
62
1
6
CONTINUOUS
0
ENDTAB
0
ENDSEC
0
SECTION
2
ENTITIES
0
POLYLINE
8
CUT
66
1
70
0
0
VERTEX
8
CUT
10
0
20
174
0
VERTEX
8
CUT
10
70
20
174
0
VERTEX
8
CUT
10
70
20
144
0
VERTEX
8
CUT
10
0
20
144
0
VERTEX
8
CUT
10
0
20
174
0
SEQEND
0
POLYLINE
8
CUT
66
1
70
0
0
VERTEX
8
CUT
10
8
20
159.0115
0
VERTEX
8
CUT
10
15.9608
20
159.0115
0
VERTEX
8
CUT
10
8
20
172.8
0
VERTEX
8
CUT
10
8
20
172.8
0
SEQEND
0
POLYLINE
8
CUT
66
1
70
0
0
VERTEX
8
CUT
10
14.4215
20
160.4776
0
VERTEX
8
CUT
10
8
20
171.6
0
VERTEX
8
CUT
10
8
20
171.6
0
SEQEND
0
LINE
8
CUT
10
8
20
159.6115
11
13.9215
21
159.6115
0
POLYLINE
8
CUT
66
1
70
0
0
VERTEX
8
CUT
10
8
20
160.2115
0
VERTEX
8
CUT
10
13.8823
20
160.2115
0
VERTEX
8
CUT
10
8.5
20
169.534
0
SEQEND
0
POLYLINE
8
CUT
66
1
70
0
0
VERTEX
8
CUT
10
8
20
160.8115
0
VERTEX
8
CUT
10
12.8431
20
160.8115
0
VERTEX
8
CUT
10
8
20
169.2
0
VERTEX
8
CUT
10
8
20
169.2
0
SEQEND
0
POLYLINE
8
CUT
66
1
70
0
0
VERTEX
8
CUT
10
11.3038
20
162.2776
0
VERTEX
8
CUT
10
8
20
168
0
VERTEX
8
CUT
10
8
20
168
0
SEQEND
0
LINE
8
CUT
10
8
20
161.4115
11
10.8038
21
161.4115
0
POLYLINE
8
CUT
66
1
70
0
0
VERTEX
8
CUT
10
8
20
162.0115
0
VERTEX
8
CUT
10
10.7646
20
162.0115
0
VERTEX
8
CUT
10
8.5
20
165.934
0
SEQEND
0
POLYLINE
8
CUT
66
1
70
0
0
VERTEX
8
CUT
10
8
20
162.6115
0
VERTEX
8
CUT
10
9.7254
20
162.6115
0
VERTEX
8
CUT
10
8
20
165.6
0
VERTEX
8
CUT
10
8
20
165.6
0
SEQEND
0
LINE
8
CUT
10
9
20
174
11
25
21
174
0
LINE
8
CUT
10
8.5
20
173.134
11
16.5
21
159.2776
0
LINE
8
CUT
10
25.5
20
173.134
11
17.5
21
159.2776
0
POLYLINE
8
CUT
66
1
70
0
0
VERTEX
8
CUT
10
10.0392
20
173.4
0
VERTEX
8
CUT
10
24.9608
20
173.4
0
VERTEX
8
CUT
10
17
20
159.6115
0
VERTEX
8
CUT
10
9.5392
20
172.534
0
SEQEND
0
POLYLINE
8
CUT
66
1
70
0
0
VERTEX
8
CUT
10
23.4215
20
171.934
0
VERTEX
8
CUT
10
17
20
160.8115
0
VERTEX
8
CUT
10
10.0785
20
172.8
0
VERTEX
8
CUT
10
22.9215
20
172.8
0
SEQEND
0
POLYLINE
8
CUT
66
1
70
0
0
VERTEX
8
CUT
10
16.5
20
162.8776
0
VERTEX
8
CUT
10
11.1177
20
172.2
0
VERTEX
8
CUT
10
22.8823
20
172.2
0
VERTEX
8
CUT
10
17.5
20
162.8776
0
SEQEND
0
POLYLINE
8
CUT
66
1
70
0
0
VERTEX
8
CUT
10
13.1569
20
171.6
0
VERTEX
8
CUT
10
21.8431
20
171.6
0
VERTEX
8
CUT
10
17
20
163.2115
0
VERTEX
8
CUT
10
12.6569
20
170.734
0
SEQEND
0
POLYLINE
8
CUT
66
1
70
0
0
VERTEX
8
CUT
10
20.3038
20
170.134
0
VERTEX
8
CUT
10
17
20
164.4115
0
VERTEX
8
CUT
10
13.1962
20
171
0
VERTEX
8
CUT
10
19.8038
20
171
0
SEQEND
0
POLYLINE
8
CUT
66
1
70
0
0
VERTEX
8
CUT
10
16.5
20
166.4776
0
VERTEX
8
CUT
10
14.2354
20
170.4
0
VERTEX
8
CUT
10
19.7646
20
170.4
0
VERTEX
8
CUT
10
17.5
20
166.4776
0
SEQEND
0
POLYLINE
8
CUT
66
1
70
0
0
VERTEX
8
CUT
10
16.2746
20
169.8
0
VERTEX
8
CUT
10
18.7254
20
169.8
0
VERTEX
8
CUT
10
17
20
166.8115
0
VERTEX
8
CUT
10
15.7746
20
168.934
0
SEQEND
0
POLYLINE
8
CUT
66
1
70
0
0
VERTEX
8
CUT
10
19.0392
20
159.0115
0
VERTEX
8
CUT
10
33.9608
20
159.0115
0
VERTEX
8
CUT
10
26
20
172.8
0
VERTEX
8
CUT
10
18.5392
20
159.8776
0
SEQEND
0
POLYLINE
8
CUT
66
1
70
0
0
VERTEX
8
CUT
10
32.4215
20
160.4776
0
VERTEX
8
CUT
10
26
20
171.6
0
VERTEX
8
CUT
10
19.0785
20
159.6115
0
VERTEX
8
CUT
10
31.9215
20
159.6115
0
SEQEND
0
POLYLINE
8
CUT
66
1
70
0
0
VERTEX
8
CUT
10
25.5
20
169.534
0
VERTEX
8
CUT
10
20.1177
20
160.2115
0
VERTEX
8
CUT
10
31.8823
20
160.2115
0
VERTEX
8
CUT
10
26.5
20
169.534
0
SEQEND
0
POLYLINE
8
CUT
66
1
70
0
0
VERTEX
8
CUT
10
22.1569
20
160.8115
0
VERTEX
8
CUT
10
30.8431
20
160.8115
0
VERTEX
8
CUT
10
26
20
169.2
0
VERTEX
8
CUT
10
21.6569
20
161.6776
0
SEQEND
0
POLYLINE
8
CUT
66
1
70
0
0
VERTEX
8
CUT
10
29.3038
20
162.2776
0
VERTEX
8
CUT
10
26
20
168
0
VERTEX
8
CUT
10
22.1962
20
161.4115
0
VERTEX
8
CUT
10
28.8038
20
161.4115
0
SEQEND
0
POLYLINE
8
CUT
66
1
70
0
0
VERTEX
8
CUT
10
25.5
20
165.934
0
VERTEX
8
CUT
10
23.2354
20
162.0115
0
VERTEX
8
CUT
10
28.7646
20
162.0115
0
VERTEX
8
CUT
10
26.5
20
165.934
0
SEQEND
0
POLYLINE
8
CUT
66
1
70
0
0
VERTEX
8
CUT
10
25.2746
20
162.6115
0
VERTEX
8
CUT
10
27.7254
20
162.6115
0
VERTEX
8
CUT
10
26
20
165.6
0
VERTEX
8
CUT
10
24.7746
20
163.4776
0
SEQEND
0
LINE
8
CUT
10
27
20
174
11
43
21
174
0
LINE
8
CUT
10
26.5
20
173.134
11
34.5
21
159.2776
0
LINE
8
CUT
10
43.5
20
173.134
11
35.5
21
159.2776
0
POLYLINE
8
CUT
66
1
70
0
0
VERTEX
8
CUT
10
28.0392
20
173.4
0
VERTEX
8
CUT
10
42.9608
20
173.4
0
VERTEX
8
CUT
10
35
20
159.6115
0
VERTEX
8
CUT
10
27.5392
20
172.534
0
SEQEND
0
POLYLINE
8
CUT
66
1
70
0
0
VERTEX
8
CUT
10
41.4215
20
171.934
0
VERTEX
8
CUT
10
35
20
160.8115
0
VERTEX
8
CUT
10
28.0785
20
172.8
0
VERTEX
8
CUT
10
40.9215
20
172.8
0
SEQEND
0
POLYLINE
8
CUT
66
1
70
0
0
VERTEX
8
CUT
10
34.5
20
162.8776
0
VERTEX
8
CUT
10
29.1177
20
172.2
0
VERTEX
8
CUT
10
40.8823
20
172.2
0
VERTEX
8
CUT
10
35.5
20
162.8776
0
SEQEND
0
POLYLINE
8
CUT
66
1
70
0
0
VERTEX
8
CUT
10
31.1569
20
171.6
0
VERTEX
8
CUT
10
39.8431
20
171.6
0
VERTEX
8
CUT
10
35
20
163.2115
0
VERTEX
8
CUT
10
30.6569
20
170.734
0
SEQEND
0
POLYLINE
8
CUT
66
1
70
0
0
VERTEX
8
CUT
10
38.3038
20
170.134
0
VERTEX
8
CUT
10
35
20
164.4115
0
VERTEX
8
CUT
10
31.1962
20
171
0
VERTEX
8
CUT
10
37.8038
20
171
0
SEQEND
0
POLYLINE
8
CUT
66
1
70
0
0
VERTEX
8
CUT
10
34.5
20
166.4776
0
VERTEX
8
CUT
10
32.2354
20
170.4
0
VERTEX
8
CUT
10
37.7646
20
170.4
0
VERTEX
8
CUT
10
35.5
20
166.4776
0
SEQEND
0
POLYLINE
8
CUT
66
1
70
0
0
VERTEX
8
CUT
10
34.2746
20
169.8
0
VERTEX
8
CUT
10
36.7254
20
169.8
0
VERTEX
8
CUT
10
35
20
166.8115
0
VERTEX
8
CUT
10
33.7746
20
168.934
0
SEQEND
0
POLYLINE
8
CUT
66
1
70
0
0
VERTEX
8
CUT
10
37.0392
20
159.0115
0
VERTEX
8
CUT
10
51.9608
20
159.0115
0
VERTEX
8
CUT
10
44
20
172.8
0
VERTEX
8
CUT
10
36.5392
20
159.8776
0
SEQEND
0
POLYLINE
8
CUT
66
1
70
0
0
VERTEX
8
CUT
10
50.4215
20
160.4776
0
VERTEX
8
CUT
10
44
20
171.6
0
VERTEX
8
CUT
10
37.0785
20
159.6115
0
VERTEX
8
CUT
10
49.9215
20
159.6115
0
SEQEND
0
POLYLINE
8
CUT
66
1
70
0
0
VERTEX
8
CUT
10
43.5
20
169.534
0
VERTEX
8
CUT
10
38.1177
20
160.2115
0
VERTEX
8
CUT
10
49.8823
20
160.2115
0
VERTEX
8
CUT
10
44.5
20
169.534
0
SEQEND
0
POLYLINE
8
CUT
66
1
70
0
0
VERTEX
8
CUT
10
40.1569
20
160.8115
0
VERTEX
8
CUT
10
48.8431
20
160.8115
0
VERTEX
8
CUT
10
44
20
169.2
0
VERTEX
8
CUT
10
39.6569
20
161.6776
0
SEQEND
0
POLYLINE
8
CUT
66
1
70
0
0
VERTEX
8
CUT
10
47.3038
20
162.2776
0
VERTEX
8
CUT
10
44
20
168
0
VERTEX
8
CUT
10
40.1962
20
161.4115
0
VERTEX
8
CUT
10
46.8038
20
161.4115
0
SEQEND
0
POLYLINE
8
CUT
66
1
70
0
0
VERTEX
8
CUT
10
43.5
20
165.934
0
VERTEX
8
CUT
10
41.2354
20
162.0115
0
VERTEX
8
CUT
10
46.7646
20
162.0115
0
VERTEX
8
CUT
10
44.5
20
165.934
0
SEQEND
0
POLYLINE
8
CUT
66
1
70
0
0
VERTEX
8
CUT
10
43.2746
20
162.6115
0
VERTEX
8
CUT
10
45.7254
20
162.6115
0
VERTEX
8
CUT
10
44
20
165.6
0
VERTEX
8
CUT
10
42.7746
20
163.4776
0
SEQEND
0
LINE
8
CUT
10
45
20
174
11
61
21
174
0
LINE
8
CUT
10
44.5
20
173.134
11
52.5
21
159.2776
0
LINE
8
CUT
10
61.5
20
173.134
11
53.5
21
159.2776
0
POLYLINE
8
CUT
66
1
70
0
0
VERTEX
8
CUT
10
46.0392
20
173.4
0
VERTEX
8
CUT
10
60.9608
20
173.4
0
VERTEX
8
CUT
10
53
20
159.6115
0
VERTEX
8
CUT
10
45.5392
20
172.534
0
SEQEND
0
POLYLINE
8
CUT
66
1
70
0
0
VERTEX
8
CUT
10
59.4215
20
171.934
0
VERTEX
8
CUT
10
53
20
160.8115
0
VERTEX
8
CUT
10
46.0785
20
172.8
0
VERTEX
8
CUT
10
58.9215
20
172.8
0
SEQEND
0
POLYLINE
8
CUT
66
1
70
0
0
VERTEX
8
CUT
10
52.5
20
162.8776
0
VERTEX
8
CUT
10
47.1177
20
172.2
0
VERTEX
8
CUT
10
58.8823
20
172.2
0
VERTEX
8
CUT
10
53.5
20
162.8776
0
SEQEND
0
POLYLINE
8
CUT
66
1
70
0
0
VERTEX
8
CUT
10
49.1569
20
171.6
0
VERTEX
8
CUT
10
57.8431
20
171.6
0
VERTEX
8
CUT
10
53
20
163.2115
0
VERTEX
8
CUT
10
48.6569
20
170.734
0
SEQEND
0
POLYLINE
8
CUT
66
1
70
0
0
VERTEX
8
CUT
10
56.3038
20
170.134
0
VERTEX
8
CUT
10
53
20
164.4115
0
VERTEX
8
CUT
10
49.1962
20
171
0
VERTEX
8
CUT
10
55.8038
20
171
0
SEQEND
0
POLYLINE
8
CUT
66
1
70
0
0
VERTEX
8
CUT
10
52.5
20
166.4776
0
VERTEX
8
CUT
10
50.2354
20
170.4
0
VERTEX
8
CUT
10
55.7646
20
170.4
0
VERTEX
8
CUT
10
53.5
20
166.4776
0
SEQEND
0
POLYLINE
8
CUT
66
1
70
0
0
VERTEX
8
CUT
10
52.2746
20
169.8
0
VERTEX
8
CUT
10
54.7254
20
169.8
0
VERTEX
8
CUT
10
53
20
166.8115
0
VERTEX
8
CUT
10
51.7746
20
168.934
0
SEQEND
0
LINE
8
CUT
10
55.0392
20
159.0115
11
62
21
159.0115
0
POLYLINE
8
CUT
66
1
70
0
0
VERTEX
8
CUT
10
62
20
172.8
0
VERTEX
8
CUT
10
62
20
172.8
0
VERTEX
8
CUT
10
54.5392
20
159.8776
0
SEQEND
0
POLYLINE
8
CUT
66
1
70
0
0
VERTEX
8
CUT
10
62
20
171.6
0
VERTEX
8
CUT
10
62
20
171.6
0
VERTEX
8
CUT
10
55.0785
20
159.6115
0
VERTEX
8
CUT
10
62
20
159.6115
0
SEQEND
0
POLYLINE
8
CUT
66
1
70
0
0
VERTEX
8
CUT
10
61.5
20
169.534
0
VERTEX
8
CUT
10
56.1177
20
160.2115
0
VERTEX
8
CUT
10
62
20
160.2115
0
SEQEND
0
LINE
8
CUT
10
58.1569
20
160.8115
11
62
21
160.8115
0
POLYLINE
8
CUT
66
1
70
0
0
VERTEX
8
CUT
10
62
20
169.2
0
VERTEX
8
CUT
10
62
20
169.2
0
VERTEX
8
CUT
10
57.6569
20
161.6776
0
SEQEND
0
POLYLINE
8
CUT
66
1
70
0
0
VERTEX
8
CUT
10
62
20
168
0
VERTEX
8
CUT
10
62
20
168
0
VERTEX
8
CUT
10
58.1962
20
161.4115
0
VERTEX
8
CUT
10
62
20
161.4115
0
SEQEND
0
POLYLINE
8
CUT
66
1
70
0
0
VERTEX
8
CUT
10
61.5
20
165.934
0
VERTEX
8
CUT
10
59.2354
20
162.0115
0
VERTEX
8
CUT
10
62
20
162.0115
0
SEQEND
0
LINE
8
CUT
10
61.2746
20
162.6115
11
62
21
162.6115
0
POLYLINE
8
CUT
66
1
70
0
0
VERTEX
8
CUT
10
62
20
165.6
0
VERTEX
8
CUT
10
62
20
165.6
0
VERTEX
8
CUT
10
60.7746
20
163.4776
0
SEQEND
0
LINE
8
CUT
10
8
20
158.4115
11
16
21
158.4115
0
LINE
8
CUT
10
16.5
20
157.5455
11
8.6795
21
144
0
POLYLINE
8
CUT
66
1
70
0
0
VERTEX
8
CUT
10
8
20
157.8115
0
VERTEX
8
CUT
10
15.9608
20
157.8115
0
VERTEX
8
CUT
10
8
20
144.0231
0
VERTEX
8
CUT
10
8
20
144.0231
0
SEQEND
0
POLYLINE
8
CUT
66
1
70
0
0
VERTEX
8
CUT
10
14.4215
20
156.3455
0
VERTEX
8
CUT
10
8
20
145.2231
0
VERTEX
8
CUT
10
8
20
145.2231
0
SEQEND
0
LINE
8
CUT
10
8
20
157.2115
11
13.9215
21
157.2115
0
POLYLINE
8
CUT
66
1
70
0
0
VERTEX
8
CUT
10
8
20
156.6115
0
VERTEX
8
CUT
10
13.8823
20
156.6115
0
VERTEX
8
CUT
10
8.5
20
147.2891
0
SEQEND
0
POLYLINE
8
CUT
66
1
70
0
0
VERTEX
8
CUT
10
8
20
156.0115
0
VERTEX
8
CUT
10
12.8431
20
156.0115
0
VERTEX
8
CUT
10
8
20
147.6231
0
VERTEX
8
CUT
10
8
20
147.6231
0
SEQEND
0
POLYLINE
8
CUT
66
1
70
0
0
VERTEX
8
CUT
10
11.3038
20
154.5455
0
VERTEX
8
CUT
10
8
20
148.8231
0
VERTEX
8
CUT
10
8
20
148.8231
0
SEQEND
0
LINE
8
CUT
10
8
20
155.4115
11
10.8038
21
155.4115
0
POLYLINE
8
CUT
66
1
70
0
0
VERTEX
8
CUT
10
8
20
154.8115
0
VERTEX
8
CUT
10
10.7646
20
154.8115
0
VERTEX
8
CUT
10
8.5
20
150.8891
0
SEQEND
0
POLYLINE
8
CUT
66
1
70
0
0
VERTEX
8
CUT
10
8
20
154.2115
0
VERTEX
8
CUT
10
9.7254
20
154.2115
0
VERTEX
8
CUT
10
8
20
151.2231
0
VERTEX
8
CUT
10
8
20
151.2231
0
SEQEND
0
POLYLINE
8
CUT
66
1
70
0
0
VERTEX
8
CUT
10
24.6277
20
144
0
VERTEX
8
CUT
10
17
20
157.2115
0
VERTEX
8
CUT
10
9.5392
20
144.2891
0
SEQEND
0
POLYLINE
8
CUT
66
1
70
0
0
VERTEX
8
CUT
10
23.4215
20
144.8891
0
VERTEX
8
CUT
10
17
20
156.0115
0
VERTEX
8
CUT
10
10.0785
20
144.0231
0
VERTEX
8
CUT
10
22.9215
20
144.0231
0
SEQEND
0
POLYLINE
8
CUT
66
1
70
0
0
VERTEX
8
CUT
10
16.5
20
153.9455
0
VERTEX
8
CUT
10
11.1177
20
144.6231
0
VERTEX
8
CUT
10
22.8823
20
144.6231
0
VERTEX
8
CUT
10
17.5
20
153.9455
0
SEQEND
0
POLYLINE
8
CUT
66
1
70
0
0
VERTEX
8
CUT
10
13.1569
20
145.2231
0
VERTEX
8
CUT
10
21.8431
20
145.2231
0
VERTEX
8
CUT
10
17
20
153.6115
0
VERTEX
8
CUT
10
12.6569
20
146.0891
0
SEQEND
0
POLYLINE
8
CUT
66
1
70
0
0
VERTEX
8
CUT
10
20.3038
20
146.6891
0
VERTEX
8
CUT
10
17
20
152.4115
0
VERTEX
8
CUT
10
13.1962
20
145.8231
0
VERTEX
8
CUT
10
19.8038
20
145.8231
0
SEQEND
0
POLYLINE
8
CUT
66
1
70
0
0
VERTEX
8
CUT
10
16.5
20
150.3455
0
VERTEX
8
CUT
10
14.2354
20
146.4231
0
VERTEX
8
CUT
10
19.7646
20
146.4231
0
VERTEX
8
CUT
10
17.5
20
150.3455
0
SEQEND
0
POLYLINE
8
CUT
66
1
70
0
0
VERTEX
8
CUT
10
16.2746
20
147.0231
0
VERTEX
8
CUT
10
18.7254
20
147.0231
0
VERTEX
8
CUT
10
17
20
150.0115
0
VERTEX
8
CUT
10
15.7746
20
147.8891
0
SEQEND
0
LINE
8
CUT
10
18
20
158.4115
11
34
21
158.4115
0
LINE
8
CUT
10
17.5
20
157.5455
11
25.3205
21
144
0
LINE
8
CUT
10
34.5
20
157.5455
11
26.6795
21
144
0
POLYLINE
8
CUT
66
1
70
0
0
VERTEX
8
CUT
10
19.0392
20
157.8115
0
VERTEX
8
CUT
10
33.9608
20
157.8115
0
VERTEX
8
CUT
10
26
20
144.0231
0
VERTEX
8
CUT
10
18.5392
20
156.9455
0
SEQEND
0
POLYLINE
8
CUT
66
1
70
0
0
VERTEX
8
CUT
10
32.4215
20
156.3455
0
VERTEX
8
CUT
10
26
20
145.2231
0
VERTEX
8
CUT
10
19.0785
20
157.2115
0
VERTEX
8
CUT
10
31.9215
20
157.2115
0
SEQEND
0
POLYLINE
8
CUT
66
1
70
0
0
VERTEX
8
CUT
10
25.5
20
147.2891
0
VERTEX
8
CUT
10
20.1177
20
156.6115
0
VERTEX
8
CUT
10
31.8823
20
156.6115
0
VERTEX
8
CUT
10
26.5
20
147.2891
0
SEQEND
0
POLYLINE
8
CUT
66
1
70
0
0
VERTEX
8
CUT
10
22.1569
20
156.0115
0
VERTEX
8
CUT
10
30.8431
20
156.0115
0
VERTEX
8
CUT
10
26
20
147.6231
0
VERTEX
8
CUT
10
21.6569
20
155.1455
0
SEQEND
0
POLYLINE
8
CUT
66
1
70
0
0
VERTEX
8
CUT
10
29.3038
20
154.5455
0
VERTEX
8
CUT
10
26
20
148.8231
0
VERTEX
8
CUT
10
22.1962
20
155.4115
0
VERTEX
8
CUT
10
28.8038
20
155.4115
0
SEQEND
0
POLYLINE
8
CUT
66
1
70
0
0
VERTEX
8
CUT
10
25.5
20
150.8891
0
VERTEX
8
CUT
10
23.2354
20
154.8115
0
VERTEX
8
CUT
10
28.7646
20
154.8115
0
VERTEX
8
CUT
10
26.5
20
150.8891
0
SEQEND
0
POLYLINE
8
CUT
66
1
70
0
0
VERTEX
8
CUT
10
25.2746
20
154.2115
0
VERTEX
8
CUT
10
27.7254
20
154.2115
0
VERTEX
8
CUT
10
26
20
151.2231
0
VERTEX
8
CUT
10
24.7746
20
153.3455
0
SEQEND
0
POLYLINE
8
CUT
66
1
70
0
0
VERTEX
8
CUT
10
42.6277
20
144
0
VERTEX
8
CUT
10
35
20
157.2115
0
VERTEX
8
CUT
10
27.5392
20
144.2891
0
SEQEND
0
POLYLINE
8
CUT
66
1
70
0
0
VERTEX
8
CUT
10
41.4215
20
144.8891
0
VERTEX
8
CUT
10
35
20
156.0115
0
VERTEX
8
CUT
10
28.0785
20
144.0231
0
VERTEX
8
CUT
10
40.9215
20
144.0231
0
SEQEND
0
POLYLINE
8
CUT
66
1
70
0
0
VERTEX
8
CUT
10
34.5
20
153.9455
0
VERTEX
8
CUT
10
29.1177
20
144.6231
0
VERTEX
8
CUT
10
40.8823
20
144.6231
0
VERTEX
8
CUT
10
35.5
20
153.9455
0
SEQEND
0
POLYLINE
8
CUT
66
1
70
0
0
VERTEX
8
CUT
10
31.1569
20
145.2231
0
VERTEX
8
CUT
10
39.8431
20
145.2231
0
VERTEX
8
CUT
10
35
20
153.6115
0
VERTEX
8
CUT
10
30.6569
20
146.0891
0
SEQEND
0
POLYLINE
8
CUT
66
1
70
0
0
VERTEX
8
CUT
10
38.3038
20
146.6891
0
VERTEX
8
CUT
10
35
20
152.4115
0
VERTEX
8
CUT
10
31.1962
20
145.8231
0
VERTEX
8
CUT
10
37.8038
20
145.8231
0
SEQEND
0
POLYLINE
8
CUT
66
1
70
0
0
VERTEX
8
CUT
10
34.5
20
150.3455
0
VERTEX
8
CUT
10
32.2354
20
146.4231
0
VERTEX
8
CUT
10
37.7646
20
146.4231
0
VERTEX
8
CUT
10
35.5
20
150.3455
0
SEQEND
0
POLYLINE
8
CUT
66
1
70
0
0
VERTEX
8
CUT
10
34.2746
20
147.0231
0
VERTEX
8
CUT
10
36.7254
20
147.0231
0
VERTEX
8
CUT
10
35
20
150.0115
0
VERTEX
8
CUT
10
33.7746
20
147.8891
0
SEQEND
0
LINE
8
CUT
10
36
20
158.4115
11
52
21
158.4115
0
LINE
8
CUT
10
35.5
20
157.5455
11
43.3205
21
144
0
LINE
8
CUT
10
52.5
20
157.5455
11
44.6795
21
144
0
POLYLINE
8
CUT
66
1
70
0
0
VERTEX
8
CUT
10
37.0392
20
157.8115
0
VERTEX
8
CUT
10
51.9608
20
157.8115
0
VERTEX
8
CUT
10
44
20
144.0231
0
VERTEX
8
CUT
10
36.5392
20
156.9455
0
SEQEND
0
POLYLINE
8
CUT
66
1
70
0
0
VERTEX
8
CUT
10
50.4215
20
156.3455
0
VERTEX
8
CUT
10
44
20
145.2231
0
VERTEX
8
CUT
10
37.0785
20
157.2115
0
VERTEX
8
CUT
10
49.9215
20
157.2115
0
SEQEND
0
POLYLINE
8
CUT
66
1
70
0
0
VERTEX
8
CUT
10
43.5
20
147.2891
0
VERTEX
8
CUT
10
38.1177
20
156.6115
0
VERTEX
8
CUT
10
49.8823
20
156.6115
0
VERTEX
8
CUT
10
44.5
20
147.2891
0
SEQEND
0
POLYLINE
8
CUT
66
1
70
0
0
VERTEX
8
CUT
10
40.1569
20
156.0115
0
VERTEX
8
CUT
10
48.8431
20
156.0115
0
VERTEX
8
CUT
10
44
20
147.6231
0
VERTEX
8
CUT
10
39.6569
20
155.1455
0
SEQEND
0
POLYLINE
8
CUT
66
1
70
0
0
VERTEX
8
CUT
10
47.3038
20
154.5455
0
VERTEX
8
CUT
10
44
20
148.8231
0
VERTEX
8
CUT
10
40.1962
20
155.4115
0
VERTEX
8
CUT
10
46.8038
20
155.4115
0
SEQEND
0
POLYLINE
8
CUT
66
1
70
0
0
VERTEX
8
CUT
10
43.5
20
150.8891
0
VERTEX
8
CUT
10
41.2354
20
154.8115
0
VERTEX
8
CUT
10
46.7646
20
154.8115
0
VERTEX
8
CUT
10
44.5
20
150.8891
0
SEQEND
0
POLYLINE
8
CUT
66
1
70
0
0
VERTEX
8
CUT
10
43.2746
20
154.2115
0
VERTEX
8
CUT
10
45.7254
20
154.2115
0
VERTEX
8
CUT
10
44
20
151.2231
0
VERTEX
8
CUT
10
42.7746
20
153.3455
0
SEQEND
0
POLYLINE
8
CUT
66
1
70
0
0
VERTEX
8
CUT
10
60.6277
20
144
0
VERTEX
8
CUT
10
53
20
157.2115
0
VERTEX
8
CUT
10
45.5392
20
144.2891
0
SEQEND
0
POLYLINE
8
CUT
66
1
70
0
0
VERTEX
8
CUT
10
59.4215
20
144.8891
0
VERTEX
8
CUT
10
53
20
156.0115
0
VERTEX
8
CUT
10
46.0785
20
144.0231
0
VERTEX
8
CUT
10
58.9215
20
144.0231
0
SEQEND
0
POLYLINE
8
CUT
66
1
70
0
0
VERTEX
8
CUT
10
52.5
20
153.9455
0
VERTEX
8
CUT
10
47.1177
20
144.6231
0
VERTEX
8
CUT
10
58.8823
20
144.6231
0
VERTEX
8
CUT
10
53.5
20
153.9455
0
SEQEND
0
POLYLINE
8
CUT
66
1
70
0
0
VERTEX
8
CUT
10
49.1569
20
145.2231
0
VERTEX
8
CUT
10
57.8431
20
145.2231
0
VERTEX
8
CUT
10
53
20
153.6115
0
VERTEX
8
CUT
10
48.6569
20
146.0891
0
SEQEND
0
POLYLINE
8
CUT
66
1
70
0
0
VERTEX
8
CUT
10
56.3038
20
146.6891
0
VERTEX
8
CUT
10
53
20
152.4115
0
VERTEX
8
CUT
10
49.1962
20
145.8231
0
VERTEX
8
CUT
10
55.8038
20
145.8231
0
SEQEND
0
POLYLINE
8
CUT
66
1
70
0
0
VERTEX
8
CUT
10
52.5
20
150.3455
0
VERTEX
8
CUT
10
50.2354
20
146.4231
0
VERTEX
8
CUT
10
55.7646
20
146.4231
0
VERTEX
8
CUT
10
53.5
20
150.3455
0
SEQEND
0
POLYLINE
8
CUT
66
1
70
0
0
VERTEX
8
CUT
10
52.2746
20
147.0231
0
VERTEX
8
CUT
10
54.7254
20
147.0231
0
VERTEX
8
CUT
10
53
20
150.0115
0
VERTEX
8
CUT
10
51.7746
20
147.8891
0
SEQEND
0
LINE
8
CUT
10
54
20
158.4115
11
62
21
158.4115
0
LINE
8
CUT
10
53.5
20
157.5455
11
61.3205
21
144
0
LINE
8
CUT
10
55.0392
20
157.8115
11
62
21
157.8115
0
POLYLINE
8
CUT
66
1
70
0
0
VERTEX
8
CUT
10
62
20
144.0231
0
VERTEX
8
CUT
10
62
20
144.0231
0
VERTEX
8
CUT
10
54.5392
20
156.9455
0
SEQEND
0
POLYLINE
8
CUT
66
1
70
0
0
VERTEX
8
CUT
10
62
20
145.2231
0
VERTEX
8
CUT
10
62
20
145.2231
0
VERTEX
8
CUT
10
55.0785
20
157.2115
0
VERTEX
8
CUT
10
62
20
157.2115
0
SEQEND
0
POLYLINE
8
CUT
66
1
70
0
0
VERTEX
8
CUT
10
61.5
20
147.2891
0
VERTEX
8
CUT
10
56.1177
20
156.6115
0
VERTEX
8
CUT
10
62
20
156.6115
0
SEQEND
0
LINE
8
CUT
10
58.1569
20
156.0115
11
62
21
156.0115
0
POLYLINE
8
CUT
66
1
70
0
0
VERTEX
8
CUT
10
62
20
147.6231
0
VERTEX
8
CUT
10
62
20
147.6231
0
VERTEX
8
CUT
10
57.6569
20
155.1455
0
SEQEND
0
POLYLINE
8
CUT
66
1
70
0
0
VERTEX
8
CUT
10
62
20
148.8231
0
VERTEX
8
CUT
10
62
20
148.8231
0
VERTEX
8
CUT
10
58.1962
20
155.4115
0
VERTEX
8
CUT
10
62
20
155.4115
0
SEQEND
0
POLYLINE
8
CUT
66
1
70
0
0
VERTEX
8
CUT
10
61.5
20
150.8891
0
VERTEX
8
CUT
10
59.2354
20
154.8115
0
VERTEX
8
CUT
10
62
20
154.8115
0
SEQEND
0
LINE
8
CUT
10
61.2746
20
154.2115
11
62
21
154.2115
0
POLYLINE
8
CUT
66
1
70
0
0
VERTEX
8
CUT
10
62
20
151.2231
0
VERTEX
8
CUT
10
62
20
151.2231
0
VERTEX
8
CUT
10
60.7746
20
153.3455
0
SEQEND
0
LINE
8
CUT
10
2.5
20
144
11
2.5
21
147
0
POLYLINE
8
CUT
66
1
70
0
0
VERTEX
8
CUT
10
0
20
138
0
VERTEX
8
CUT
10
70
20
138
0
VERTEX
8
CUT
10
70
20
108
0
VERTEX
8
CUT
10
0
20
108
0
VERTEX
8
CUT
10
0
20
138
0
SEQEND
0
POLYLINE
8
CUT
66
1
70
0
0
VERTEX
8
CUT
10
8
20
123.2115
0
VERTEX
8
CUT
10
15.6144
20
123.2115
0
VERTEX
8
CUT
10
8
20
136.4
0
VERTEX
8
CUT
10
8
20
136.4
0
SEQEND
0
POLYLINE
8
CUT
66
1
70
0
0
VERTEX
8
CUT
10
13.7287
20
124.8776
0
VERTEX
8
CUT
10
8
20
134.8
0
VERTEX
8
CUT
10
8
20
134.8
0
SEQEND
0
LINE
8
CUT
10
8
20
124.0115
11
13.2287
21
124.0115
0
POLYLINE
8
CUT
66
1
70
0
0
VERTEX
8
CUT
10
8
20
124.8115
0
VERTEX
8
CUT
10
12.8431
20
124.8115
0
VERTEX
8
CUT
10
8.5
20
132.334
0
SEQEND
0
POLYLINE
8
CUT
66
1
70
0
0
VERTEX
8
CUT
10
8
20
125.6115
0
VERTEX
8
CUT
10
11.4574
20
125.6115
0
VERTEX
8
CUT
10
8
20
131.6
0
VERTEX
8
CUT
10
8
20
131.6
0
SEQEND
0
POLYLINE
8
CUT
66
1
70
0
0
VERTEX
8
CUT
10
9.5718
20
127.2776
0
VERTEX
8
CUT
10
8
20
130
0
VERTEX
8
CUT
10
8
20
130
0
SEQEND
0
LINE
8
CUT
10
8
20
126.4115
11
9.0718
21
126.4115
0
LINE
8
CUT
10
9
20
138
11
25
21
138
0
LINE
8
CUT
10
8.5
20
137.134
11
16.5
21
123.2776
0
LINE
8
CUT
10
25.5
20
137.134
11
17.5
21
123.2776
0
POLYLINE
8
CUT
66
1
70
0
0
VERTEX
8
CUT
10
10.3856
20
137.2
0
VERTEX
8
CUT
10
24.6144
20
137.2
0
VERTEX
8
CUT
10
17
20
124.0115
0
VERTEX
8
CUT
10
9.8856
20
136.334
0
SEQEND
0
POLYLINE
8
CUT
66
1
70
0
0
VERTEX
8
CUT
10
22.7287
20
135.534
0
VERTEX
8
CUT
10
17
20
125.6115
0
VERTEX
8
CUT
10
10.7713
20
136.4
0
VERTEX
8
CUT
10
22.2287
20
136.4
0
SEQEND
0
POLYLINE
8
CUT
66
1
70
0
0
VERTEX
8
CUT
10
16.5
20
128.0776
0
VERTEX
8
CUT
10
12.1569
20
135.6
0
VERTEX
8
CUT
10
21.8431
20
135.6
0
VERTEX
8
CUT
10
17.5
20
128.0776
0
SEQEND
0
POLYLINE
8
CUT
66
1
70
0
0
VERTEX
8
CUT
10
14.5426
20
134.8
0
VERTEX
8
CUT
10
20.4574
20
134.8
0
VERTEX
8
CUT
10
17
20
128.8115
0
VERTEX
8
CUT
10
14.0426
20
133.934
0
SEQEND
0
POLYLINE
8
CUT
66
1
70
0
0
VERTEX
8
CUT
10
18.5718
20
133.134
0
VERTEX
8
CUT
10
17
20
130.4115
0
VERTEX
8
CUT
10
14.9282
20
134
0
VERTEX
8
CUT
10
18.0718
20
134
0
SEQEND
0
POLYLINE
8
CUT
66
1
70
0
0
VERTEX
8
CUT
10
19.3856
20
123.2115
0
VERTEX
8
CUT
10
33.6144
20
123.2115
0
VERTEX
8
CUT
10
26
20
136.4
0
VERTEX
8
CUT
10
18.8856
20
124.0776
0
SEQEND
0
POLYLINE
8
CUT
66
1
70
0
0
VERTEX
8
CUT
10
31.7287
20
124.8776
0
VERTEX
8
CUT
10
26
20
134.8
0
VERTEX
8
CUT
10
19.7713
20
124.0115
0
VERTEX
8
CUT
10
31.2287
20
124.0115
0
SEQEND
0
POLYLINE
8
CUT
66
1
70
0
0
VERTEX
8
CUT
10
25.5
20
132.334
0
VERTEX
8
CUT
10
21.1569
20
124.8115
0
VERTEX
8
CUT
10
30.8431
20
124.8115
0
VERTEX
8
CUT
10
26.5
20
132.334
0
SEQEND
0
POLYLINE
8
CUT
66
1
70
0
0
VERTEX
8
CUT
10
23.5426
20
125.6115
0
VERTEX
8
CUT
10
29.4574
20
125.6115
0
VERTEX
8
CUT
10
26
20
131.6
0
VERTEX
8
CUT
10
23.0426
20
126.4776
0
SEQEND
0
POLYLINE
8
CUT
66
1
70
0
0
VERTEX
8
CUT
10
27.5718
20
127.2776
0
VERTEX
8
CUT
10
26
20
130
0
VERTEX
8
CUT
10
23.9282
20
126.4115
0
VERTEX
8
CUT
10
27.0718
20
126.4115
0
SEQEND
0
LINE
8
CUT
10
27
20
138
11
43
21
138
0
LINE
8
CUT
10
26.5
20
137.134
11
34.5
21
123.2776
0
LINE
8
CUT
10
43.5
20
137.134
11
35.5
21
123.2776
0
POLYLINE
8
CUT
66
1
70
0
0
VERTEX
8
CUT
10
28.3856
20
137.2
0
VERTEX
8
CUT
10
42.6144
20
137.2
0
VERTEX
8
CUT
10
35
20
124.0115
0
VERTEX
8
CUT
10
27.8856
20
136.334
0
SEQEND
0
POLYLINE
8
CUT
66
1
70
0
0
VERTEX
8
CUT
10
40.7287
20
135.534
0
VERTEX
8
CUT
10
35
20
125.6115
0
VERTEX
8
CUT
10
28.7713
20
136.4
0
VERTEX
8
CUT
10
40.2287
20
136.4
0
SEQEND
0
POLYLINE
8
CUT
66
1
70
0
0
VERTEX
8
CUT
10
34.5
20
128.0776
0
VERTEX
8
CUT
10
30.1569
20
135.6
0
VERTEX
8
CUT
10
39.8431
20
135.6
0
VERTEX
8
CUT
10
35.5
20
128.0776
0
SEQEND
0
POLYLINE
8
CUT
66
1
70
0
0
VERTEX
8
CUT
10
32.5426
20
134.8
0
VERTEX
8
CUT
10
38.4574
20
134.8
0
VERTEX
8
CUT
10
35
20
128.8115
0
VERTEX
8
CUT
10
32.0426
20
133.934
0
SEQEND
0
POLYLINE
8
CUT
66
1
70
0
0
VERTEX
8
CUT
10
36.5718
20
133.134
0
VERTEX
8
CUT
10
35
20
130.4115
0
VERTEX
8
CUT
10
32.9282
20
134
0
VERTEX
8
CUT
10
36.0718
20
134
0
SEQEND
0
POLYLINE
8
CUT
66
1
70
0
0
VERTEX
8
CUT
10
37.3856
20
123.2115
0
VERTEX
8
CUT
10
51.6144
20
123.2115
0
VERTEX
8
CUT
10
44
20
136.4
0
VERTEX
8
CUT
10
36.8856
20
124.0776
0
SEQEND
0
POLYLINE
8
CUT
66
1
70
0
0
VERTEX
8
CUT
10
49.7287
20
124.8776
0
VERTEX
8
CUT
10
44
20
134.8
0
VERTEX
8
CUT
10
37.7713
20
124.0115
0
VERTEX
8
CUT
10
49.2287
20
124.0115
0
SEQEND
0
POLYLINE
8
CUT
66
1
70
0
0
VERTEX
8
CUT
10
43.5
20
132.334
0
VERTEX
8
CUT
10
39.1569
20
124.8115
0
VERTEX
8
CUT
10
48.8431
20
124.8115
0
VERTEX
8
CUT
10
44.5
20
132.334
0
SEQEND
0
POLYLINE
8
CUT
66
1
70
0
0
VERTEX
8
CUT
10
41.5426
20
125.6115
0
VERTEX
8
CUT
10
47.4574
20
125.6115
0
VERTEX
8
CUT
10
44
20
131.6
0
VERTEX
8
CUT
10
41.0426
20
126.4776
0
SEQEND
0
POLYLINE
8
CUT
66
1
70
0
0
VERTEX
8
CUT
10
45.5718
20
127.2776
0
VERTEX
8
CUT
10
44
20
130
0
VERTEX
8
CUT
10
41.9282
20
126.4115
0
VERTEX
8
CUT
10
45.0718
20
126.4115
0
SEQEND
0
LINE
8
CUT
10
45
20
138
11
61
21
138
0
LINE
8
CUT
10
44.5
20
137.134
11
52.5
21
123.2776
0
LINE
8
CUT
10
61.5
20
137.134
11
53.5
21
123.2776
0
POLYLINE
8
CUT
66
1
70
0
0
VERTEX
8
CUT
10
46.3856
20
137.2
0
VERTEX
8
CUT
10
60.6144
20
137.2
0
VERTEX
8
CUT
10
53
20
124.0115
0
VERTEX
8
CUT
10
45.8856
20
136.334
0
SEQEND
0
POLYLINE
8
CUT
66
1
70
0
0
VERTEX
8
CUT
10
58.7287
20
135.534
0
VERTEX
8
CUT
10
53
20
125.6115
0
VERTEX
8
CUT
10
46.7713
20
136.4
0
VERTEX
8
CUT
10
58.2287
20
136.4
0
SEQEND
0
POLYLINE
8
CUT
66
1
70
0
0
VERTEX
8
CUT
10
52.5
20
128.0776
0
VERTEX
8
CUT
10
48.1569
20
135.6
0
VERTEX
8
CUT
10
57.8431
20
135.6
0
VERTEX
8
CUT
10
53.5
20
128.0776
0
SEQEND
0
POLYLINE
8
CUT
66
1
70
0
0
VERTEX
8
CUT
10
50.5426
20
134.8
0
VERTEX
8
CUT
10
56.4574
20
134.8
0
VERTEX
8
CUT
10
53
20
128.8115
0
VERTEX
8
CUT
10
50.0426
20
133.934
0
SEQEND
0
POLYLINE
8
CUT
66
1
70
0
0
VERTEX
8
CUT
10
54.5718
20
133.134
0
VERTEX
8
CUT
10
53
20
130.4115
0
VERTEX
8
CUT
10
50.9282
20
134
0
VERTEX
8
CUT
10
54.0718
20
134
0
SEQEND
0
LINE
8
CUT
10
55.3856
20
123.2115
11
62
21
123.2115
0
POLYLINE
8
CUT
66
1
70
0
0
VERTEX
8
CUT
10
62
20
136.4
0
VERTEX
8
CUT
10
62
20
136.4
0
VERTEX
8
CUT
10
54.8856
20
124.0776
0
SEQEND
0
POLYLINE
8
CUT
66
1
70
0
0
VERTEX
8
CUT
10
62
20
134.8
0
VERTEX
8
CUT
10
62
20
134.8
0
VERTEX
8
CUT
10
55.7713
20
124.0115
0
VERTEX
8
CUT
10
62
20
124.0115
0
SEQEND
0
POLYLINE
8
CUT
66
1
70
0
0
VERTEX
8
CUT
10
61.5
20
132.334
0
VERTEX
8
CUT
10
57.1569
20
124.8115
0
VERTEX
8
CUT
10
62
20
124.8115
0
SEQEND
0
LINE
8
CUT
10
59.5426
20
125.6115
11
62
21
125.6115
0
POLYLINE
8
CUT
66
1
70
0
0
VERTEX
8
CUT
10
62
20
131.6
0
VERTEX
8
CUT
10
62
20
131.6
0
VERTEX
8
CUT
10
59.0426
20
126.4776
0
SEQEND
0
POLYLINE
8
CUT
66
1
70
0
0
VERTEX
8
CUT
10
62
20
130
0
VERTEX
8
CUT
10
62
20
130
0
VERTEX
8
CUT
10
59.9282
20
126.4115
0
VERTEX
8
CUT
10
62
20
126.4115
0
SEQEND
0
LINE
8
CUT
10
8
20
122.4115
11
16
21
122.4115
0
LINE
8
CUT
10
16.5
20
121.5455
11
8.6795
21
108
0
POLYLINE
8
CUT
66
1
70
0
0
VERTEX
8
CUT
10
8
20
121.6115
0
VERTEX
8
CUT
10
15.6144
20
121.6115
0
VERTEX
8
CUT
10
8
20
108.4231
0
VERTEX
8
CUT
10
8
20
108.4231
0
SEQEND
0
POLYLINE
8
CUT
66
1
70
0
0
VERTEX
8
CUT
10
13.7287
20
119.9455
0
VERTEX
8
CUT
10
8
20
110.0231
0
VERTEX
8
CUT
10
8
20
110.0231
0
SEQEND
0
LINE
8
CUT
10
8
20
120.8115
11
13.2287
21
120.8115
0
POLYLINE
8
CUT
66
1
70
0
0
VERTEX
8
CUT
10
8
20
120.0115
0
VERTEX
8
CUT
10
12.8431
20
120.0115
0
VERTEX
8
CUT
10
8.5
20
112.4891
0
SEQEND
0
POLYLINE
8
CUT
66
1
70
0
0
VERTEX
8
CUT
10
8
20
119.2115
0
VERTEX
8
CUT
10
11.4574
20
119.2115
0
VERTEX
8
CUT
10
8
20
113.2231
0
VERTEX
8
CUT
10
8
20
113.2231
0
SEQEND
0
POLYLINE
8
CUT
66
1
70
0
0
VERTEX
8
CUT
10
9.5718
20
117.5455
0
VERTEX
8
CUT
10
8
20
114.8231
0
VERTEX
8
CUT
10
8
20
114.8231
0
SEQEND
0
LINE
8
CUT
10
8
20
118.4115
11
9.0718
21
118.4115
0
POLYLINE
8
CUT
66
1
70
0
0
VERTEX
8
CUT
10
24.3967
20
108
0
VERTEX
8
CUT
10
17
20
120.8115
0
VERTEX
8
CUT
10
9.8856
20
108.4891
0
SEQEND
0
POLYLINE
8
CUT
66
1
70
0
0
VERTEX
8
CUT
10
22.7287
20
109.2891
0
VERTEX
8
CUT
10
17
20
119.2115
0
VERTEX
8
CUT
10
10.7713
20
108.4231
0
VERTEX
8
CUT
10
22.2287
20
108.4231
0
SEQEND
0
POLYLINE
8
CUT
66
1
70
0
0
VERTEX
8
CUT
10
16.5
20
116.7455
0
VERTEX
8
CUT
10
12.1569
20
109.2231
0
VERTEX
8
CUT
10
21.8431
20
109.2231
0
VERTEX
8
CUT
10
17.5
20
116.7455
0
SEQEND
0
POLYLINE
8
CUT
66
1
70
0
0
VERTEX
8
CUT
10
14.5426
20
110.0231
0
VERTEX
8
CUT
10
20.4574
20
110.0231
0
VERTEX
8
CUT
10
17
20
116.0115
0
VERTEX
8
CUT
10
14.0426
20
110.8891
0
SEQEND
0
POLYLINE
8
CUT
66
1
70
0
0
VERTEX
8
CUT
10
18.5718
20
111.6891
0
VERTEX
8
CUT
10
17
20
114.4115
0
VERTEX
8
CUT
10
14.9282
20
110.8231
0
VERTEX
8
CUT
10
18.0718
20
110.8231
0
SEQEND
0
LINE
8
CUT
10
18
20
122.4115
11
34
21
122.4115
0
LINE
8
CUT
10
17.5
20
121.5455
11
25.3205
21
108
0
LINE
8
CUT
10
34.5
20
121.5455
11
26.6795
21
108
0
POLYLINE
8
CUT
66
1
70
0
0
VERTEX
8
CUT
10
19.3856
20
121.6115
0
VERTEX
8
CUT
10
33.6144
20
121.6115
0
VERTEX
8
CUT
10
26
20
108.4231
0
VERTEX
8
CUT
10
18.8856
20
120.7455
0
SEQEND
0
POLYLINE
8
CUT
66
1
70
0
0
VERTEX
8
CUT
10
31.7287
20
119.9455
0
VERTEX
8
CUT
10
26
20
110.0231
0
VERTEX
8
CUT
10
19.7713
20
120.8115
0
VERTEX
8
CUT
10
31.2287
20
120.8115
0
SEQEND
0
POLYLINE
8
CUT
66
1
70
0
0
VERTEX
8
CUT
10
25.5
20
112.4891
0
VERTEX
8
CUT
10
21.1569
20
120.0115
0
VERTEX
8
CUT
10
30.8431
20
120.0115
0
VERTEX
8
CUT
10
26.5
20
112.4891
0
SEQEND
0
POLYLINE
8
CUT
66
1
70
0
0
VERTEX
8
CUT
10
23.5426
20
119.2115
0
VERTEX
8
CUT
10
29.4574
20
119.2115
0
VERTEX
8
CUT
10
26
20
113.2231
0
VERTEX
8
CUT
10
23.0426
20
118.3455
0
SEQEND
0
POLYLINE
8
CUT
66
1
70
0
0
VERTEX
8
CUT
10
27.5718
20
117.5455
0
VERTEX
8
CUT
10
26
20
114.8231
0
VERTEX
8
CUT
10
23.9282
20
118.4115
0
VERTEX
8
CUT
10
27.0718
20
118.4115
0
SEQEND
0
POLYLINE
8
CUT
66
1
70
0
0
VERTEX
8
CUT
10
42.3967
20
108
0
VERTEX
8
CUT
10
35
20
120.8115
0
VERTEX
8
CUT
10
27.8856
20
108.4891
0
SEQEND
0
POLYLINE
8
CUT
66
1
70
0
0
VERTEX
8
CUT
10
40.7287
20
109.2891
0
VERTEX
8
CUT
10
35
20
119.2115
0
VERTEX
8
CUT
10
28.7713
20
108.4231
0
VERTEX
8
CUT
10
40.2287
20
108.4231
0
SEQEND
0
POLYLINE
8
CUT
66
1
70
0
0
VERTEX
8
CUT
10
34.5
20
116.7455
0
VERTEX
8
CUT
10
30.1569
20
109.2231
0
VERTEX
8
CUT
10
39.8431
20
109.2231
0
VERTEX
8
CUT
10
35.5
20
116.7455
0
SEQEND
0
POLYLINE
8
CUT
66
1
70
0
0
VERTEX
8
CUT
10
32.5426
20
110.0231
0
VERTEX
8
CUT
10
38.4574
20
110.0231
0
VERTEX
8
CUT
10
35
20
116.0115
0
VERTEX
8
CUT
10
32.0426
20
110.8891
0
SEQEND
0
POLYLINE
8
CUT
66
1
70
0
0
VERTEX
8
CUT
10
36.5718
20
111.6891
0
VERTEX
8
CUT
10
35
20
114.4115
0
VERTEX
8
CUT
10
32.9282
20
110.8231
0
VERTEX
8
CUT
10
36.0718
20
110.8231
0
SEQEND
0
LINE
8
CUT
10
36
20
122.4115
11
52
21
122.4115
0
LINE
8
CUT
10
35.5
20
121.5455
11
43.3205
21
108
0
LINE
8
CUT
10
52.5
20
121.5455
11
44.6795
21
108
0
POLYLINE
8
CUT
66
1
70
0
0
VERTEX
8
CUT
10
37.3856
20
121.6115
0
VERTEX
8
CUT
10
51.6144
20
121.6115
0
VERTEX
8
CUT
10
44
20
108.4231
0
VERTEX
8
CUT
10
36.8856
20
120.7455
0
SEQEND
0
POLYLINE
8
CUT
66
1
70
0
0
VERTEX
8
CUT
10
49.7287
20
119.9455
0
VERTEX
8
CUT
10
44
20
110.0231
0
VERTEX
8
CUT
10
37.7713
20
120.8115
0
VERTEX
8
CUT
10
49.2287
20
120.8115
0
SEQEND
0
POLYLINE
8
CUT
66
1
70
0
0
VERTEX
8
CUT
10
43.5
20
112.4891
0
VERTEX
8
CUT
10
39.1569
20
120.0115
0
VERTEX
8
CUT
10
48.8431
20
120.0115
0
VERTEX
8
CUT
10
44.5
20
112.4891
0
SEQEND
0
POLYLINE
8
CUT
66
1
70
0
0
VERTEX
8
CUT
10
41.5426
20
119.2115
0
VERTEX
8
CUT
10
47.4574
20
119.2115
0
VERTEX
8
CUT
10
44
20
113.2231
0
VERTEX
8
CUT
10
41.0426
20
118.3455
0
SEQEND
0
POLYLINE
8
CUT
66
1
70
0
0
VERTEX
8
CUT
10
45.5718
20
117.5455
0
VERTEX
8
CUT
10
44
20
114.8231
0
VERTEX
8
CUT
10
41.9282
20
118.4115
0
VERTEX
8
CUT
10
45.0718
20
118.4115
0
SEQEND
0
POLYLINE
8
CUT
66
1
70
0
0
VERTEX
8
CUT
10
60.3967
20
108
0
VERTEX
8
CUT
10
53
20
120.8115
0
VERTEX
8
CUT
10
45.8856
20
108.4891
0
SEQEND
0
POLYLINE
8
CUT
66
1
70
0
0
VERTEX
8
CUT
10
58.7287
20
109.2891
0
VERTEX
8
CUT
10
53
20
119.2115
0
VERTEX
8
CUT
10
46.7713
20
108.4231
0
VERTEX
8
CUT
10
58.2287
20
108.4231
0
SEQEND
0
POLYLINE
8
CUT
66
1
70
0
0
VERTEX
8
CUT
10
52.5
20
116.7455
0
VERTEX
8
CUT
10
48.1569
20
109.2231
0
VERTEX
8
CUT
10
57.8431
20
109.2231
0
VERTEX
8
CUT
10
53.5
20
116.7455
0
SEQEND
0
POLYLINE
8
CUT
66
1
70
0
0
VERTEX
8
CUT
10
50.5426
20
110.0231
0
VERTEX
8
CUT
10
56.4574
20
110.0231
0
VERTEX
8
CUT
10
53
20
116.0115
0
VERTEX
8
CUT
10
50.0426
20
110.8891
0
SEQEND
0
POLYLINE
8
CUT
66
1
70
0
0
VERTEX
8
CUT
10
54.5718
20
111.6891
0
VERTEX
8
CUT
10
53
20
114.4115
0
VERTEX
8
CUT
10
50.9282
20
110.8231
0
VERTEX
8
CUT
10
54.0718
20
110.8231
0
SEQEND
0
LINE
8
CUT
10
54
20
122.4115
11
62
21
122.4115
0
LINE
8
CUT
10
53.5
20
121.5455
11
61.3205
21
108
0
LINE
8
CUT
10
55.3856
20
121.6115
11
62
21
121.6115
0
POLYLINE
8
CUT
66
1
70
0
0
VERTEX
8
CUT
10
62
20
108.4231
0
VERTEX
8
CUT
10
62
20
108.4231
0
VERTEX
8
CUT
10
54.8856
20
120.7455
0
SEQEND
0
POLYLINE
8
CUT
66
1
70
0
0
VERTEX
8
CUT
10
62
20
110.0231
0
VERTEX
8
CUT
10
62
20
110.0231
0
VERTEX
8
CUT
10
55.7713
20
120.8115
0
VERTEX
8
CUT
10
62
20
120.8115
0
SEQEND
0
POLYLINE
8
CUT
66
1
70
0
0
VERTEX
8
CUT
10
61.5
20
112.4891
0
VERTEX
8
CUT
10
57.1569
20
120.0115
0
VERTEX
8
CUT
10
62
20
120.0115
0
SEQEND
0
LINE
8
CUT
10
59.5426
20
119.2115
11
62
21
119.2115
0
POLYLINE
8
CUT
66
1
70
0
0
VERTEX
8
CUT
10
62
20
113.2231
0
VERTEX
8
CUT
10
62
20
113.2231
0
VERTEX
8
CUT
10
59.0426
20
118.3455
0
SEQEND
0
POLYLINE
8
CUT
66
1
70
0
0
VERTEX
8
CUT
10
62
20
114.8231
0
VERTEX
8
CUT
10
62
20
114.8231
0
VERTEX
8
CUT
10
59.9282
20
118.4115
0
VERTEX
8
CUT
10
62
20
118.4115
0
SEQEND
0
LINE
8
CUT
10
2.5
20
108
11
2.5
21
111
0
LINE
8
CUT
10
5
20
108
11
5
21
111
0
POLYLINE
8
CUT
66
1
70
0
0
VERTEX
8
CUT
10
0
20
102
0
VERTEX
8
CUT
10
70
20
102
0
VERTEX
8
CUT
10
70
20
72
0
VERTEX
8
CUT
10
0
20
72
0
VERTEX
8
CUT
10
0
20
102
0
SEQEND
0
POLYLINE
8
CUT
66
1
70
0
0
VERTEX
8
CUT
10
8
20
87.4115
0
VERTEX
8
CUT
10
15.2679
20
87.4115
0
VERTEX
8
CUT
10
8
20
100
0
VERTEX
8
CUT
10
8
20
100
0
SEQEND
0
POLYLINE
8
CUT
66
1
70
0
0
VERTEX
8
CUT
10
13.0359
20
89.2776
0
VERTEX
8
CUT
10
8
20
98
0
VERTEX
8
CUT
10
8
20
98
0
SEQEND
0
LINE
8
CUT
10
8
20
88.4115
11
12.5359
21
88.4115
0
POLYLINE
8
CUT
66
1
70
0
0
VERTEX
8
CUT
10
8
20
89.4115
0
VERTEX
8
CUT
10
11.8038
20
89.4115
0
VERTEX
8
CUT
10
8.5
20
95.134
0
SEQEND
0
POLYLINE
8
CUT
66
1
70
0
0
VERTEX
8
CUT
10
8
20
90.4115
0
VERTEX
8
CUT
10
10.0718
20
90.4115
0
VERTEX
8
CUT
10
8
20
94
0
VERTEX
8
CUT
10
8
20
94
0
SEQEND
0
LINE
8
CUT
10
9
20
102
11
25
21
102
0
LINE
8
CUT
10
8.5
20
101.134
11
16.5
21
87.2776
0
LINE
8
CUT
10
25.5
20
101.134
11
17.5
21
87.2776
0
POLYLINE
8
CUT
66
1
70
0
0
VERTEX
8
CUT
10
10.7321
20
101
0
VERTEX
8
CUT
10
24.2679
20
101
0
VERTEX
8
CUT
10
17
20
88.4115
0
VERTEX
8
CUT
10
10.2321
20
100.134
0
SEQEND
0
POLYLINE
8
CUT
66
1
70
0
0
VERTEX
8
CUT
10
22.0359
20
99.134
0
VERTEX
8
CUT
10
17
20
90.4115
0
VERTEX
8
CUT
10
11.4641
20
100
0
VERTEX
8
CUT
10
21.5359
20
100
0
SEQEND
0
POLYLINE
8
CUT
66
1
70
0
0
VERTEX
8
CUT
10
16.5
20
93.2776
0
VERTEX
8
CUT
10
13.1962
20
99
0
VERTEX
8
CUT
10
20.8038
20
99
0
VERTEX
8
CUT
10
17.5
20
93.2776
0
SEQEND
0
POLYLINE
8
CUT
66
1
70
0
0
VERTEX
8
CUT
10
15.9282
20
98
0
VERTEX
8
CUT
10
19.0718
20
98
0
VERTEX
8
CUT
10
17
20
94.4115
0
VERTEX
8
CUT
10
15.4282
20
97.134
0
SEQEND
0
POLYLINE
8
CUT
66
1
70
0
0
VERTEX
8
CUT
10
19.7321
20
87.4115
0
VERTEX
8
CUT
10
33.2679
20
87.4115
0
VERTEX
8
CUT
10
26
20
100
0
VERTEX
8
CUT
10
19.2321
20
88.2776
0
SEQEND
0
POLYLINE
8
CUT
66
1
70
0
0
VERTEX
8
CUT
10
31.0359
20
89.2776
0
VERTEX
8
CUT
10
26
20
98
0
VERTEX
8
CUT
10
20.4641
20
88.4115
0
VERTEX
8
CUT
10
30.5359
20
88.4115
0
SEQEND
0
POLYLINE
8
CUT
66
1
70
0
0
VERTEX
8
CUT
10
25.5
20
95.134
0
VERTEX
8
CUT
10
22.1962
20
89.4115
0
VERTEX
8
CUT
10
29.8038
20
89.4115
0
VERTEX
8
CUT
10
26.5
20
95.134
0
SEQEND
0
POLYLINE
8
CUT
66
1
70
0
0
VERTEX
8
CUT
10
24.9282
20
90.4115
0
VERTEX
8
CUT
10
28.0718
20
90.4115
0
VERTEX
8
CUT
10
26
20
94
0
VERTEX
8
CUT
10
24.4282
20
91.2776
0
SEQEND
0
LINE
8
CUT
10
27
20
102
11
43
21
102
0
LINE
8
CUT
10
26.5
20
101.134
11
34.5
21
87.2776
0
LINE
8
CUT
10
43.5
20
101.134
11
35.5
21
87.2776
0
POLYLINE
8
CUT
66
1
70
0
0
VERTEX
8
CUT
10
28.7321
20
101
0
VERTEX
8
CUT
10
42.2679
20
101
0
VERTEX
8
CUT
10
35
20
88.4115
0
VERTEX
8
CUT
10
28.2321
20
100.134
0
SEQEND
0
POLYLINE
8
CUT
66
1
70
0
0
VERTEX
8
CUT
10
40.0359
20
99.134
0
VERTEX
8
CUT
10
35
20
90.4115
0
VERTEX
8
CUT
10
29.4641
20
100
0
VERTEX
8
CUT
10
39.5359
20
100
0
SEQEND
0
POLYLINE
8
CUT
66
1
70
0
0
VERTEX
8
CUT
10
34.5
20
93.2776
0
VERTEX
8
CUT
10
31.1962
20
99
0
VERTEX
8
CUT
10
38.8038
20
99
0
VERTEX
8
CUT
10
35.5
20
93.2776
0
SEQEND
0
POLYLINE
8
CUT
66
1
70
0
0
VERTEX
8
CUT
10
33.9282
20
98
0
VERTEX
8
CUT
10
37.0718
20
98
0
VERTEX
8
CUT
10
35
20
94.4115
0
VERTEX
8
CUT
10
33.4282
20
97.134
0
SEQEND
0
POLYLINE
8
CUT
66
1
70
0
0
VERTEX
8
CUT
10
37.7321
20
87.4115
0
VERTEX
8
CUT
10
51.2679
20
87.4115
0
VERTEX
8
CUT
10
44
20
100
0
VERTEX
8
CUT
10
37.2321
20
88.2776
0
SEQEND
0
POLYLINE
8
CUT
66
1
70
0
0
VERTEX
8
CUT
10
49.0359
20
89.2776
0
VERTEX
8
CUT
10
44
20
98
0
VERTEX
8
CUT
10
38.4641
20
88.4115
0
VERTEX
8
CUT
10
48.5359
20
88.4115
0
SEQEND
0
POLYLINE
8
CUT
66
1
70
0
0
VERTEX
8
CUT
10
43.5
20
95.134
0
VERTEX
8
CUT
10
40.1962
20
89.4115
0
VERTEX
8
CUT
10
47.8038
20
89.4115
0
VERTEX
8
CUT
10
44.5
20
95.134
0
SEQEND
0
POLYLINE
8
CUT
66
1
70
0
0
VERTEX
8
CUT
10
42.9282
20
90.4115
0
VERTEX
8
CUT
10
46.0718
20
90.4115
0
VERTEX
8
CUT
10
44
20
94
0
VERTEX
8
CUT
10
42.4282
20
91.2776
0
SEQEND
0
LINE
8
CUT
10
45
20
102
11
61
21
102
0
LINE
8
CUT
10
44.5
20
101.134
11
52.5
21
87.2776
0
LINE
8
CUT
10
61.5
20
101.134
11
53.5
21
87.2776
0
POLYLINE
8
CUT
66
1
70
0
0
VERTEX
8
CUT
10
46.7321
20
101
0
VERTEX
8
CUT
10
60.2679
20
101
0
VERTEX
8
CUT
10
53
20
88.4115
0
VERTEX
8
CUT
10
46.2321
20
100.134
0
SEQEND
0
POLYLINE
8
CUT
66
1
70
0
0
VERTEX
8
CUT
10
58.0359
20
99.134
0
VERTEX
8
CUT
10
53
20
90.4115
0
VERTEX
8
CUT
10
47.4641
20
100
0
VERTEX
8
CUT
10
57.5359
20
100
0
SEQEND
0
POLYLINE
8
CUT
66
1
70
0
0
VERTEX
8
CUT
10
52.5
20
93.2776
0
VERTEX
8
CUT
10
49.1962
20
99
0
VERTEX
8
CUT
10
56.8038
20
99
0
VERTEX
8
CUT
10
53.5
20
93.2776
0
SEQEND
0
POLYLINE
8
CUT
66
1
70
0
0
VERTEX
8
CUT
10
51.9282
20
98
0
VERTEX
8
CUT
10
55.0718
20
98
0
VERTEX
8
CUT
10
53
20
94.4115
0
VERTEX
8
CUT
10
51.4282
20
97.134
0
SEQEND
0
LINE
8
CUT
10
55.7321
20
87.4115
11
62
21
87.4115
0
POLYLINE
8
CUT
66
1
70
0
0
VERTEX
8
CUT
10
62
20
100
0
VERTEX
8
CUT
10
62
20
100
0
VERTEX
8
CUT
10
55.2321
20
88.2776
0
SEQEND
0
POLYLINE
8
CUT
66
1
70
0
0
VERTEX
8
CUT
10
62
20
98
0
VERTEX
8
CUT
10
62
20
98
0
VERTEX
8
CUT
10
56.4641
20
88.4115
0
VERTEX
8
CUT
10
62
20
88.4115
0
SEQEND
0
POLYLINE
8
CUT
66
1
70
0
0
VERTEX
8
CUT
10
61.5
20
95.134
0
VERTEX
8
CUT
10
58.1962
20
89.4115
0
VERTEX
8
CUT
10
62
20
89.4115
0
SEQEND
0
LINE
8
CUT
10
60.9282
20
90.4115
11
62
21
90.4115
0
POLYLINE
8
CUT
66
1
70
0
0
VERTEX
8
CUT
10
62
20
94
0
VERTEX
8
CUT
10
62
20
94
0
VERTEX
8
CUT
10
60.4282
20
91.2776
0
SEQEND
0
LINE
8
CUT
10
8
20
86.4115
11
16
21
86.4115
0
LINE
8
CUT
10
16.5
20
85.5455
11
8.6795
21
72
0
POLYLINE
8
CUT
66
1
70
0
0
VERTEX
8
CUT
10
8
20
85.4115
0
VERTEX
8
CUT
10
15.2679
20
85.4115
0
VERTEX
8
CUT
10
8
20
72.8231
0
VERTEX
8
CUT
10
8
20
72.8231
0
SEQEND
0
POLYLINE
8
CUT
66
1
70
0
0
VERTEX
8
CUT
10
13.0359
20
83.5455
0
VERTEX
8
CUT
10
8
20
74.8231
0
VERTEX
8
CUT
10
8
20
74.8231
0
SEQEND
0
LINE
8
CUT
10
8
20
84.4115
11
12.5359
21
84.4115
0
POLYLINE
8
CUT
66
1
70
0
0
VERTEX
8
CUT
10
8
20
83.4115
0
VERTEX
8
CUT
10
11.8038
20
83.4115
0
VERTEX
8
CUT
10
8.5
20
77.6891
0
SEQEND
0
POLYLINE
8
CUT
66
1
70
0
0
VERTEX
8
CUT
10
8
20
82.4115
0
VERTEX
8
CUT
10
10.0718
20
82.4115
0
VERTEX
8
CUT
10
8
20
78.8231
0
VERTEX
8
CUT
10
8
20
78.8231
0
SEQEND
0
POLYLINE
8
CUT
66
1
70
0
0
VERTEX
8
CUT
10
24.1658
20
72
0
VERTEX
8
CUT
10
17
20
84.4115
0
VERTEX
8
CUT
10
10.2321
20
72.6891
0
SEQEND
0
POLYLINE
8
CUT
66
1
70
0
0
VERTEX
8
CUT
10
22.0359
20
73.6891
0
VERTEX
8
CUT
10
17
20
82.4115
0
VERTEX
8
CUT
10
11.4641
20
72.8231
0
VERTEX
8
CUT
10
21.5359
20
72.8231
0
SEQEND
0
POLYLINE
8
CUT
66
1
70
0
0
VERTEX
8
CUT
10
16.5
20
79.5455
0
VERTEX
8
CUT
10
13.1962
20
73.8231
0
VERTEX
8
CUT
10
20.8038
20
73.8231
0
VERTEX
8
CUT
10
17.5
20
79.5455
0
SEQEND
0
POLYLINE
8
CUT
66
1
70
0
0
VERTEX
8
CUT
10
15.9282
20
74.8231
0
VERTEX
8
CUT
10
19.0718
20
74.8231
0
VERTEX
8
CUT
10
17
20
78.4115
0
VERTEX
8
CUT
10
15.4282
20
75.6891
0
SEQEND
0
LINE
8
CUT
10
18
20
86.4115
11
34
21
86.4115
0
LINE
8
CUT
10
17.5
20
85.5455
11
25.3205
21
72
0
LINE
8
CUT
10
34.5
20
85.5455
11
26.6795
21
72
0
POLYLINE
8
CUT
66
1
70
0
0
VERTEX
8
CUT
10
19.7321
20
85.4115
0
VERTEX
8
CUT
10
33.2679
20
85.4115
0
VERTEX
8
CUT
10
26
20
72.8231
0
VERTEX
8
CUT
10
19.2321
20
84.5455
0
SEQEND
0
POLYLINE
8
CUT
66
1
70
0
0
VERTEX
8
CUT
10
31.0359
20
83.5455
0
VERTEX
8
CUT
10
26
20
74.8231
0
VERTEX
8
CUT
10
20.4641
20
84.4115
0
VERTEX
8
CUT
10
30.5359
20
84.4115
0
SEQEND
0
POLYLINE
8
CUT
66
1
70
0
0
VERTEX
8
CUT
10
25.5
20
77.6891
0
VERTEX
8
CUT
10
22.1962
20
83.4115
0
VERTEX
8
CUT
10
29.8038
20
83.4115
0
VERTEX
8
CUT
10
26.5
20
77.6891
0
SEQEND
0
POLYLINE
8
CUT
66
1
70
0
0
VERTEX
8
CUT
10
24.9282
20
82.4115
0
VERTEX
8
CUT
10
28.0718
20
82.4115
0
VERTEX
8
CUT
10
26
20
78.8231
0
VERTEX
8
CUT
10
24.4282
20
81.5455
0
SEQEND
0
POLYLINE
8
CUT
66
1
70
0
0
VERTEX
8
CUT
10
42.1658
20
72
0
VERTEX
8
CUT
10
35
20
84.4115
0
VERTEX
8
CUT
10
28.2321
20
72.6891
0
SEQEND
0
POLYLINE
8
CUT
66
1
70
0
0
VERTEX
8
CUT
10
40.0359
20
73.6891
0
VERTEX
8
CUT
10
35
20
82.4115
0
VERTEX
8
CUT
10
29.4641
20
72.8231
0
VERTEX
8
CUT
10
39.5359
20
72.8231
0
SEQEND
0
POLYLINE
8
CUT
66
1
70
0
0
VERTEX
8
CUT
10
34.5
20
79.5455
0
VERTEX
8
CUT
10
31.1962
20
73.8231
0
VERTEX
8
CUT
10
38.8038
20
73.8231
0
VERTEX
8
CUT
10
35.5
20
79.5455
0
SEQEND
0
POLYLINE
8
CUT
66
1
70
0
0
VERTEX
8
CUT
10
33.9282
20
74.8231
0
VERTEX
8
CUT
10
37.0718
20
74.8231
0
VERTEX
8
CUT
10
35
20
78.4115
0
VERTEX
8
CUT
10
33.4282
20
75.6891
0
SEQEND
0
LINE
8
CUT
10
36
20
86.4115
11
52
21
86.4115
0
LINE
8
CUT
10
35.5
20
85.5455
11
43.3205
21
72
0
LINE
8
CUT
10
52.5
20
85.5455
11
44.6795
21
72
0
POLYLINE
8
CUT
66
1
70
0
0
VERTEX
8
CUT
10
37.7321
20
85.4115
0
VERTEX
8
CUT
10
51.2679
20
85.4115
0
VERTEX
8
CUT
10
44
20
72.8231
0
VERTEX
8
CUT
10
37.2321
20
84.5455
0
SEQEND
0
POLYLINE
8
CUT
66
1
70
0
0
VERTEX
8
CUT
10
49.0359
20
83.5455
0
VERTEX
8
CUT
10
44
20
74.8231
0
VERTEX
8
CUT
10
38.4641
20
84.4115
0
VERTEX
8
CUT
10
48.5359
20
84.4115
0
SEQEND
0
POLYLINE
8
CUT
66
1
70
0
0
VERTEX
8
CUT
10
43.5
20
77.6891
0
VERTEX
8
CUT
10
40.1962
20
83.4115
0
VERTEX
8
CUT
10
47.8038
20
83.4115
0
VERTEX
8
CUT
10
44.5
20
77.6891
0
SEQEND
0
POLYLINE
8
CUT
66
1
70
0
0
VERTEX
8
CUT
10
42.9282
20
82.4115
0
VERTEX
8
CUT
10
46.0718
20
82.4115
0
VERTEX
8
CUT
10
44
20
78.8231
0
VERTEX
8
CUT
10
42.4282
20
81.5455
0
SEQEND
0
POLYLINE
8
CUT
66
1
70
0
0
VERTEX
8
CUT
10
60.1658
20
72
0
VERTEX
8
CUT
10
53
20
84.4115
0
VERTEX
8
CUT
10
46.2321
20
72.6891
0
SEQEND
0
POLYLINE
8
CUT
66
1
70
0
0
VERTEX
8
CUT
10
58.0359
20
73.6891
0
VERTEX
8
CUT
10
53
20
82.4115
0
VERTEX
8
CUT
10
47.4641
20
72.8231
0
VERTEX
8
CUT
10
57.5359
20
72.8231
0
SEQEND
0
POLYLINE
8
CUT
66
1
70
0
0
VERTEX
8
CUT
10
52.5
20
79.5455
0
VERTEX
8
CUT
10
49.1962
20
73.8231
0
VERTEX
8
CUT
10
56.8038
20
73.8231
0
VERTEX
8
CUT
10
53.5
20
79.5455
0
SEQEND
0
POLYLINE
8
CUT
66
1
70
0
0
VERTEX
8
CUT
10
51.9282
20
74.8231
0
VERTEX
8
CUT
10
55.0718
20
74.8231
0
VERTEX
8
CUT
10
53
20
78.4115
0
VERTEX
8
CUT
10
51.4282
20
75.6891
0
SEQEND
0
LINE
8
CUT
10
54
20
86.4115
11
62
21
86.4115
0
LINE
8
CUT
10
53.5
20
85.5455
11
61.3205
21
72
0
LINE
8
CUT
10
55.7321
20
85.4115
11
62
21
85.4115
0
POLYLINE
8
CUT
66
1
70
0
0
VERTEX
8
CUT
10
62
20
72.8231
0
VERTEX
8
CUT
10
62
20
72.8231
0
VERTEX
8
CUT
10
55.2321
20
84.5455
0
SEQEND
0
POLYLINE
8
CUT
66
1
70
0
0
VERTEX
8
CUT
10
62
20
74.8231
0
VERTEX
8
CUT
10
62
20
74.8231
0
VERTEX
8
CUT
10
56.4641
20
84.4115
0
VERTEX
8
CUT
10
62
20
84.4115
0
SEQEND
0
POLYLINE
8
CUT
66
1
70
0
0
VERTEX
8
CUT
10
61.5
20
77.6891
0
VERTEX
8
CUT
10
58.1962
20
83.4115
0
VERTEX
8
CUT
10
62
20
83.4115
0
SEQEND
0
LINE
8
CUT
10
60.9282
20
82.4115
11
62
21
82.4115
0
POLYLINE
8
CUT
66
1
70
0
0
VERTEX
8
CUT
10
62
20
78.8231
0
VERTEX
8
CUT
10
62
20
78.8231
0
VERTEX
8
CUT
10
60.4282
20
81.5455
0
SEQEND
0
LINE
8
CUT
10
2.5
20
72
11
2.5
21
75
0
LINE
8
CUT
10
5
20
72
11
5
21
75
0
LINE
8
CUT
10
7.5
20
72
11
7.5
21
75
0
POLYLINE
8
CUT
66
1
70
0
0
VERTEX
8
CUT
10
0
20
66
0
VERTEX
8
CUT
10
70
20
66
0
VERTEX
8
CUT
10
70
20
36
0
VERTEX
8
CUT
10
0
20
36
0
VERTEX
8
CUT
10
0
20
66
0
SEQEND
0
POLYLINE
8
CUT
66
1
70
0
0
VERTEX
8
CUT
10
8
20
51.6115
0
VERTEX
8
CUT
10
14.9215
20
51.6115
0
VERTEX
8
CUT
10
8
20
63.6
0
VERTEX
8
CUT
10
8
20
63.6
0
SEQEND
0
POLYLINE
8
CUT
66
1
70
0
0
VERTEX
8
CUT
10
12.3431
20
53.6776
0
VERTEX
8
CUT
10
8
20
61.2
0
VERTEX
8
CUT
10
8
20
61.2
0
SEQEND
0
LINE
8
CUT
10
8
20
52.8115
11
11.8431
21
52.8115
0
POLYLINE
8
CUT
66
1
70
0
0
VERTEX
8
CUT
10
8
20
54.0115
0
VERTEX
8
CUT
10
10.7646
20
54.0115
0
VERTEX
8
CUT
10
8.5
20
57.934
0
SEQEND
0
LINE
8
CUT
10
9
20
66
11
25
21
66
0
LINE
8
CUT
10
8.5
20
65.134
11
16.5
21
51.2776
0
LINE
8
CUT
10
25.5
20
65.134
11
17.5
21
51.2776
0
POLYLINE
8
CUT
66
1
70
0
0
VERTEX
8
CUT
10
11.0785
20
64.8
0
VERTEX
8
CUT
10
23.9215
20
64.8
0
VERTEX
8
CUT
10
17
20
52.8115
0
VERTEX
8
CUT
10
10.5785
20
63.934
0
SEQEND
0
POLYLINE
8
CUT
66
1
70
0
0
VERTEX
8
CUT
10
21.3431
20
62.734
0
VERTEX
8
CUT
10
17
20
55.2115
0
VERTEX
8
CUT
10
12.1569
20
63.6
0
VERTEX
8
CUT
10
20.8431
20
63.6
0
SEQEND
0
POLYLINE
8
CUT
66
1
70
0
0
VERTEX
8
CUT
10
16.5
20
58.4776
0
VERTEX
8
CUT
10
14.2354
20
62.4
0
VERTEX
8
CUT
10
19.7646
20
62.4
0
VERTEX
8
CUT
10
17.5
20
58.4776
0
SEQEND
0
POLYLINE
8
CUT
66
1
70
0
0
VERTEX
8
CUT
10
20.0785
20
51.6115
0
VERTEX
8
CUT
10
32.9215
20
51.6115
0
VERTEX
8
CUT
10
26
20
63.6
0
VERTEX
8
CUT
10
19.5785
20
52.4776
0
SEQEND
0
POLYLINE
8
CUT
66
1
70
0
0
VERTEX
8
CUT
10
30.3431
20
53.6776
0
VERTEX
8
CUT
10
26
20
61.2
0
VERTEX
8
CUT
10
21.1569
20
52.8115
0
VERTEX
8
CUT
10
29.8431
20
52.8115
0
SEQEND
0
POLYLINE
8
CUT
66
1
70
0
0
VERTEX
8
CUT
10
25.5
20
57.934
0
VERTEX
8
CUT
10
23.2354
20
54.0115
0
VERTEX
8
CUT
10
28.7646
20
54.0115
0
VERTEX
8
CUT
10
26.5
20
57.934
0
SEQEND
0
LINE
8
CUT
10
27
20
66
11
43
21
66
0
LINE
8
CUT
10
26.5
20
65.134
11
34.5
21
51.2776
0
LINE
8
CUT
10
43.5
20
65.134
11
35.5
21
51.2776
0
POLYLINE
8
CUT
66
1
70
0
0
VERTEX
8
CUT
10
29.0785
20
64.8
0
VERTEX
8
CUT
10
41.9215
20
64.8
0
VERTEX
8
CUT
10
35
20
52.8115
0
VERTEX
8
CUT
10
28.5785
20
63.934
0
SEQEND
0
POLYLINE
8
CUT
66
1
70
0
0
VERTEX
8
CUT
10
39.3431
20
62.734
0
VERTEX
8
CUT
10
35
20
55.2115
0
VERTEX
8
CUT
10
30.1569
20
63.6
0
VERTEX
8
CUT
10
38.8431
20
63.6
0
SEQEND
0
POLYLINE
8
CUT
66
1
70
0
0
VERTEX
8
CUT
10
34.5
20
58.4776
0
VERTEX
8
CUT
10
32.2354
20
62.4
0
VERTEX
8
CUT
10
37.7646
20
62.4
0
VERTEX
8
CUT
10
35.5
20
58.4776
0
SEQEND
0
POLYLINE
8
CUT
66
1
70
0
0
VERTEX
8
CUT
10
38.0785
20
51.6115
0
VERTEX
8
CUT
10
50.9215
20
51.6115
0
VERTEX
8
CUT
10
44
20
63.6
0
VERTEX
8
CUT
10
37.5785
20
52.4776
0
SEQEND
0
POLYLINE
8
CUT
66
1
70
0
0
VERTEX
8
CUT
10
48.3431
20
53.6776
0
VERTEX
8
CUT
10
44
20
61.2
0
VERTEX
8
CUT
10
39.1569
20
52.8115
0
VERTEX
8
CUT
10
47.8431
20
52.8115
0
SEQEND
0
POLYLINE
8
CUT
66
1
70
0
0
VERTEX
8
CUT
10
43.5
20
57.934
0
VERTEX
8
CUT
10
41.2354
20
54.0115
0
VERTEX
8
CUT
10
46.7646
20
54.0115
0
VERTEX
8
CUT
10
44.5
20
57.934
0
SEQEND
0
LINE
8
CUT
10
45
20
66
11
61
21
66
0
LINE
8
CUT
10
44.5
20
65.134
11
52.5
21
51.2776
0
LINE
8
CUT
10
61.5
20
65.134
11
53.5
21
51.2776
0
POLYLINE
8
CUT
66
1
70
0
0
VERTEX
8
CUT
10
47.0785
20
64.8
0
VERTEX
8
CUT
10
59.9215
20
64.8
0
VERTEX
8
CUT
10
53
20
52.8115
0
VERTEX
8
CUT
10
46.5785
20
63.934
0
SEQEND
0
POLYLINE
8
CUT
66
1
70
0
0
VERTEX
8
CUT
10
57.3431
20
62.734
0
VERTEX
8
CUT
10
53
20
55.2115
0
VERTEX
8
CUT
10
48.1569
20
63.6
0
VERTEX
8
CUT
10
56.8431
20
63.6
0
SEQEND
0
POLYLINE
8
CUT
66
1
70
0
0
VERTEX
8
CUT
10
52.5
20
58.4776
0
VERTEX
8
CUT
10
50.2354
20
62.4
0
VERTEX
8
CUT
10
55.7646
20
62.4
0
VERTEX
8
CUT
10
53.5
20
58.4776
0
SEQEND
0
LINE
8
CUT
10
56.0785
20
51.6115
11
62
21
51.6115
0
POLYLINE
8
CUT
66
1
70
0
0
VERTEX
8
CUT
10
62
20
63.6
0
VERTEX
8
CUT
10
62
20
63.6
0
VERTEX
8
CUT
10
55.5785
20
52.4776
0
SEQEND
0
POLYLINE
8
CUT
66
1
70
0
0
VERTEX
8
CUT
10
62
20
61.2
0
VERTEX
8
CUT
10
62
20
61.2
0
VERTEX
8
CUT
10
57.1569
20
52.8115
0
VERTEX
8
CUT
10
62
20
52.8115
0
SEQEND
0
POLYLINE
8
CUT
66
1
70
0
0
VERTEX
8
CUT
10
61.5
20
57.934
0
VERTEX
8
CUT
10
59.2354
20
54.0115
0
VERTEX
8
CUT
10
62
20
54.0115
0
SEQEND
0
LINE
8
CUT
10
8
20
50.4115
11
16
21
50.4115
0
LINE
8
CUT
10
16.5
20
49.5455
11
8.6795
21
36
0
POLYLINE
8
CUT
66
1
70
0
0
VERTEX
8
CUT
10
8
20
49.2115
0
VERTEX
8
CUT
10
14.9215
20
49.2115
0
VERTEX
8
CUT
10
8
20
37.2231
0
VERTEX
8
CUT
10
8
20
37.2231
0
SEQEND
0
POLYLINE
8
CUT
66
1
70
0
0
VERTEX
8
CUT
10
12.3431
20
47.1455
0
VERTEX
8
CUT
10
8
20
39.6231
0
VERTEX
8
CUT
10
8
20
39.6231
0
SEQEND
0
LINE
8
CUT
10
8
20
48.0115
11
11.8431
21
48.0115
0
POLYLINE
8
CUT
66
1
70
0
0
VERTEX
8
CUT
10
8
20
46.8115
0
VERTEX
8
CUT
10
10.7646
20
46.8115
0
VERTEX
8
CUT
10
8.5
20
42.8891
0
SEQEND
0
POLYLINE
8
CUT
66
1
70
0
0
VERTEX
8
CUT
10
11.0785
20
36.0231
0
VERTEX
8
CUT
10
23.9215
20
36.0231
0
VERTEX
8
CUT
10
17
20
48.0115
0
VERTEX
8
CUT
10
10.5785
20
36.8891
0
SEQEND
0
POLYLINE
8
CUT
66
1
70
0
0
VERTEX
8
CUT
10
21.3431
20
38.0891
0
VERTEX
8
CUT
10
17
20
45.6115
0
VERTEX
8
CUT
10
12.1569
20
37.2231
0
VERTEX
8
CUT
10
20.8431
20
37.2231
0
SEQEND
0
POLYLINE
8
CUT
66
1
70
0
0
VERTEX
8
CUT
10
16.5
20
42.3455
0
VERTEX
8
CUT
10
14.2354
20
38.4231
0
VERTEX
8
CUT
10
19.7646
20
38.4231
0
VERTEX
8
CUT
10
17.5
20
42.3455
0
SEQEND
0
LINE
8
CUT
10
18
20
50.4115
11
34
21
50.4115
0
LINE
8
CUT
10
17.5
20
49.5455
11
25.3205
21
36
0
LINE
8
CUT
10
34.5
20
49.5455
11
26.6795
21
36
0
POLYLINE
8
CUT
66
1
70
0
0
VERTEX
8
CUT
10
20.0785
20
49.2115
0
VERTEX
8
CUT
10
32.9215
20
49.2115
0
VERTEX
8
CUT
10
26
20
37.2231
0
VERTEX
8
CUT
10
19.5785
20
48.3455
0
SEQEND
0
POLYLINE
8
CUT
66
1
70
0
0
VERTEX
8
CUT
10
30.3431
20
47.1455
0
VERTEX
8
CUT
10
26
20
39.6231
0
VERTEX
8
CUT
10
21.1569
20
48.0115
0
VERTEX
8
CUT
10
29.8431
20
48.0115
0
SEQEND
0
POLYLINE
8
CUT
66
1
70
0
0
VERTEX
8
CUT
10
25.5
20
42.8891
0
VERTEX
8
CUT
10
23.2354
20
46.8115
0
VERTEX
8
CUT
10
28.7646
20
46.8115
0
VERTEX
8
CUT
10
26.5
20
42.8891
0
SEQEND
0
POLYLINE
8
CUT
66
1
70
0
0
VERTEX
8
CUT
10
29.0785
20
36.0231
0
VERTEX
8
CUT
10
41.9215
20
36.0231
0
VERTEX
8
CUT
10
35
20
48.0115
0
VERTEX
8
CUT
10
28.5785
20
36.8891
0
SEQEND
0
POLYLINE
8
CUT
66
1
70
0
0
VERTEX
8
CUT
10
39.3431
20
38.0891
0
VERTEX
8
CUT
10
35
20
45.6115
0
VERTEX
8
CUT
10
30.1569
20
37.2231
0
VERTEX
8
CUT
10
38.8431
20
37.2231
0
SEQEND
0
POLYLINE
8
CUT
66
1
70
0
0
VERTEX
8
CUT
10
34.5
20
42.3455
0
VERTEX
8
CUT
10
32.2354
20
38.4231
0
VERTEX
8
CUT
10
37.7646
20
38.4231
0
VERTEX
8
CUT
10
35.5
20
42.3455
0
SEQEND
0
LINE
8
CUT
10
36
20
50.4115
11
52
21
50.4115
0
LINE
8
CUT
10
35.5
20
49.5455
11
43.3205
21
36
0
LINE
8
CUT
10
52.5
20
49.5455
11
44.6795
21
36
0
POLYLINE
8
CUT
66
1
70
0
0
VERTEX
8
CUT
10
38.0785
20
49.2115
0
VERTEX
8
CUT
10
50.9215
20
49.2115
0
VERTEX
8
CUT
10
44
20
37.2231
0
VERTEX
8
CUT
10
37.5785
20
48.3455
0
SEQEND
0
POLYLINE
8
CUT
66
1
70
0
0
VERTEX
8
CUT
10
48.3431
20
47.1455
0
VERTEX
8
CUT
10
44
20
39.6231
0
VERTEX
8
CUT
10
39.1569
20
48.0115
0
VERTEX
8
CUT
10
47.8431
20
48.0115
0
SEQEND
0
POLYLINE
8
CUT
66
1
70
0
0
VERTEX
8
CUT
10
43.5
20
42.8891
0
VERTEX
8
CUT
10
41.2354
20
46.8115
0
VERTEX
8
CUT
10
46.7646
20
46.8115
0
VERTEX
8
CUT
10
44.5
20
42.8891
0
SEQEND
0
POLYLINE
8
CUT
66
1
70
0
0
VERTEX
8
CUT
10
47.0785
20
36.0231
0
VERTEX
8
CUT
10
59.9215
20
36.0231
0
VERTEX
8
CUT
10
53
20
48.0115
0
VERTEX
8
CUT
10
46.5785
20
36.8891
0
SEQEND
0
POLYLINE
8
CUT
66
1
70
0
0
VERTEX
8
CUT
10
57.3431
20
38.0891
0
VERTEX
8
CUT
10
53
20
45.6115
0
VERTEX
8
CUT
10
48.1569
20
37.2231
0
VERTEX
8
CUT
10
56.8431
20
37.2231
0
SEQEND
0
POLYLINE
8
CUT
66
1
70
0
0
VERTEX
8
CUT
10
52.5
20
42.3455
0
VERTEX
8
CUT
10
50.2354
20
38.4231
0
VERTEX
8
CUT
10
55.7646
20
38.4231
0
VERTEX
8
CUT
10
53.5
20
42.3455
0
SEQEND
0
LINE
8
CUT
10
54
20
50.4115
11
62
21
50.4115
0
LINE
8
CUT
10
53.5
20
49.5455
11
61.3205
21
36
0
LINE
8
CUT
10
56.0785
20
49.2115
11
62
21
49.2115
0
POLYLINE
8
CUT
66
1
70
0
0
VERTEX
8
CUT
10
62
20
37.2231
0
VERTEX
8
CUT
10
62
20
37.2231
0
VERTEX
8
CUT
10
55.5785
20
48.3455
0
SEQEND
0
POLYLINE
8
CUT
66
1
70
0
0
VERTEX
8
CUT
10
62
20
39.6231
0
VERTEX
8
CUT
10
62
20
39.6231
0
VERTEX
8
CUT
10
57.1569
20
48.0115
0
VERTEX
8
CUT
10
62
20
48.0115
0
SEQEND
0
POLYLINE
8
CUT
66
1
70
0
0
VERTEX
8
CUT
10
61.5
20
42.8891
0
VERTEX
8
CUT
10
59.2354
20
46.8115
0
VERTEX
8
CUT
10
62
20
46.8115
0
SEQEND
0
LINE
8
CUT
10
2.5
20
36
11
2.5
21
39
0
LINE
8
CUT
10
5
20
36
11
5
21
39
0
LINE
8
CUT
10
7.5
20
36
11
7.5
21
39
0
LINE
8
CUT
10
10
20
36
11
10
21
39
0
POLYLINE
8
CUT
66
1
70
0
0
VERTEX
8
CUT
10
0
20
30
0
VERTEX
8
CUT
10
70
20
30
0
VERTEX
8
CUT
10
70
20
0
0
VERTEX
8
CUT
10
0
20
0
0
VERTEX
8
CUT
10
0
20
30
0
SEQEND
0
POLYLINE
8
CUT
66
1
70
0
0
VERTEX
8
CUT
10
8
20
15.8115
0
VERTEX
8
CUT
10
14.5751
20
15.8115
0
VERTEX
8
CUT
10
8
20
27.2
0
VERTEX
8
CUT
10
8
20
27.2
0
SEQEND
0
POLYLINE
8
CUT
66
1
70
0
0
VERTEX
8
CUT
10
11.6503
20
18.0776
0
VERTEX
8
CUT
10
8
20
24.4
0
VERTEX
8
CUT
10
8
20
24.4
0
SEQEND
0
LINE
8
CUT
10
8
20
17.2115
11
11.1503
21
17.2115
0
POLYLINE
8
CUT
66
1
70
0
0
VERTEX
8
CUT
10
8
20
18.6115
0
VERTEX
8
CUT
10
9.7254
20
18.6115
0
VERTEX
8
CUT
10
8.5
20
20.734
0
SEQEND
0
LINE
8
CUT
10
9
20
30
11
25
21
30
0
LINE
8
CUT
10
8.5
20
29.134
11
16.5
21
15.2776
0
LINE
8
CUT
10
25.5
20
29.134
11
17.5
21
15.2776
0
POLYLINE
8
CUT
66
1
70
0
0
VERTEX
8
CUT
10
11.4249
20
28.6
0
VERTEX
8
CUT
10
23.5751
20
28.6
0
VERTEX
8
CUT
10
17
20
17.2115
0
VERTEX
8
CUT
10
10.9249
20
27.734
0
SEQEND
0
POLYLINE
8
CUT
66
1
70
0
0
VERTEX
8
CUT
10
20.6503
20
26.334
0
VERTEX
8
CUT
10
17
20
20.0115
0
VERTEX
8
CUT
10
12.8497
20
27.2
0
VERTEX
8
CUT
10
20.1503
20
27.2
0
SEQEND
0
POLYLINE
8
CUT
66
1
70
0
0
VERTEX
8
CUT
10
16.5
20
23.6776
0
VERTEX
8
CUT
10
15.2746
20
25.8
0
VERTEX
8
CUT
10
18.7254
20
25.8
0
VERTEX
8
CUT
10
17.5
20
23.6776
0
SEQEND
0
POLYLINE
8
CUT
66
1
70
0
0
VERTEX
8
CUT
10
20.4249
20
15.8115
0
VERTEX
8
CUT
10
32.5751
20
15.8115
0
VERTEX
8
CUT
10
26
20
27.2
0
VERTEX
8
CUT
10
19.9249
20
16.6776
0
SEQEND
0
POLYLINE
8
CUT
66
1
70
0
0
VERTEX
8
CUT
10
29.6503
20
18.0776
0
VERTEX
8
CUT
10
26
20
24.4
0
VERTEX
8
CUT
10
21.8497
20
17.2115
0
VERTEX
8
CUT
10
29.1503
20
17.2115
0
SEQEND
0
POLYLINE
8
CUT
66
1
70
0
0
VERTEX
8
CUT
10
25.5
20
20.734
0
VERTEX
8
CUT
10
24.2746
20
18.6115
0
VERTEX
8
CUT
10
27.7254
20
18.6115
0
VERTEX
8
CUT
10
26.5
20
20.734
0
SEQEND
0
LINE
8
CUT
10
27
20
30
11
43
21
30
0
LINE
8
CUT
10
26.5
20
29.134
11
34.5
21
15.2776
0
LINE
8
CUT
10
43.5
20
29.134
11
35.5
21
15.2776
0
POLYLINE
8
CUT
66
1
70
0
0
VERTEX
8
CUT
10
29.4249
20
28.6
0
VERTEX
8
CUT
10
41.5751
20
28.6
0
VERTEX
8
CUT
10
35
20
17.2115
0
VERTEX
8
CUT
10
28.9249
20
27.734
0
SEQEND
0
POLYLINE
8
CUT
66
1
70
0
0
VERTEX
8
CUT
10
38.6503
20
26.334
0
VERTEX
8
CUT
10
35
20
20.0115
0
VERTEX
8
CUT
10
30.8497
20
27.2
0
VERTEX
8
CUT
10
38.1503
20
27.2
0
SEQEND
0
POLYLINE
8
CUT
66
1
70
0
0
VERTEX
8
CUT
10
34.5
20
23.6776
0
VERTEX
8
CUT
10
33.2746
20
25.8
0
VERTEX
8
CUT
10
36.7254
20
25.8
0
VERTEX
8
CUT
10
35.5
20
23.6776
0
SEQEND
0
POLYLINE
8
CUT
66
1
70
0
0
VERTEX
8
CUT
10
38.4249
20
15.8115
0
VERTEX
8
CUT
10
50.5751
20
15.8115
0
VERTEX
8
CUT
10
44
20
27.2
0
VERTEX
8
CUT
10
37.9249
20
16.6776
0
SEQEND
0
POLYLINE
8
CUT
66
1
70
0
0
VERTEX
8
CUT
10
47.6503
20
18.0776
0
VERTEX
8
CUT
10
44
20
24.4
0
VERTEX
8
CUT
10
39.8497
20
17.2115
0
VERTEX
8
CUT
10
47.1503
20
17.2115
0
SEQEND
0
POLYLINE
8
CUT
66
1
70
0
0
VERTEX
8
CUT
10
43.5
20
20.734
0
VERTEX
8
CUT
10
42.2746
20
18.6115
0
VERTEX
8
CUT
10
45.7254
20
18.6115
0
VERTEX
8
CUT
10
44.5
20
20.734
0
SEQEND
0
LINE
8
CUT
10
45
20
30
11
61
21
30
0
LINE
8
CUT
10
44.5
20
29.134
11
52.5
21
15.2776
0
LINE
8
CUT
10
61.5
20
29.134
11
53.5
21
15.2776
0
POLYLINE
8
CUT
66
1
70
0
0
VERTEX
8
CUT
10
47.4249
20
28.6
0
VERTEX
8
CUT
10
59.5751
20
28.6
0
VERTEX
8
CUT
10
53
20
17.2115
0
VERTEX
8
CUT
10
46.9249
20
27.734
0
SEQEND
0
POLYLINE
8
CUT
66
1
70
0
0
VERTEX
8
CUT
10
56.6503
20
26.334
0
VERTEX
8
CUT
10
53
20
20.0115
0
VERTEX
8
CUT
10
48.8497
20
27.2
0
VERTEX
8
CUT
10
56.1503
20
27.2
0
SEQEND
0
POLYLINE
8
CUT
66
1
70
0
0
VERTEX
8
CUT
10
52.5
20
23.6776
0
VERTEX
8
CUT
10
51.2746
20
25.8
0
VERTEX
8
CUT
10
54.7254
20
25.8
0
VERTEX
8
CUT
10
53.5
20
23.6776
0
SEQEND
0
LINE
8
CUT
10
56.4249
20
15.8115
11
62
21
15.8115
0
POLYLINE
8
CUT
66
1
70
0
0
VERTEX
8
CUT
10
62
20
27.2
0
VERTEX
8
CUT
10
62
20
27.2
0
VERTEX
8
CUT
10
55.9249
20
16.6776
0
SEQEND
0
POLYLINE
8
CUT
66
1
70
0
0
VERTEX
8
CUT
10
62
20
24.4
0
VERTEX
8
CUT
10
62
20
24.4
0
VERTEX
8
CUT
10
57.8497
20
17.2115
0
VERTEX
8
CUT
10
62
20
17.2115
0
SEQEND
0
POLYLINE
8
CUT
66
1
70
0
0
VERTEX
8
CUT
10
61.5
20
20.734
0
VERTEX
8
CUT
10
60.2746
20
18.6115
0
VERTEX
8
CUT
10
62
20
18.6115
0
SEQEND
0
LINE
8
CUT
10
8
20
14.4115
11
16
21
14.4115
0
LINE
8
CUT
10
16.5
20
13.5455
11
8.6795
21
0
0
POLYLINE
8
CUT
66
1
70
0
0
VERTEX
8
CUT
10
8
20
13.0115
0
VERTEX
8
CUT
10
14.5751
20
13.0115
0
VERTEX
8
CUT
10
8
20
1.6231
0
VERTEX
8
CUT
10
8
20
1.6231
0
SEQEND
0
POLYLINE
8
CUT
66
1
70
0
0
VERTEX
8
CUT
10
11.6503
20
10.7455
0
VERTEX
8
CUT
10
8
20
4.4231
0
VERTEX
8
CUT
10
8
20
4.4231
0
SEQEND
0
LINE
8
CUT
10
8
20
11.6115
11
11.1503
21
11.6115
0
POLYLINE
8
CUT
66
1
70
0
0
VERTEX
8
CUT
10
8
20
10.2115
0
VERTEX
8
CUT
10
9.7254
20
10.2115
0
VERTEX
8
CUT
10
8.5
20
8.0891
0
SEQEND
0
POLYLINE
8
CUT
66
1
70
0
0
VERTEX
8
CUT
10
11.4249
20
0.2231
0
VERTEX
8
CUT
10
23.5751
20
0.2231
0
VERTEX
8
CUT
10
17
20
11.6115
0
VERTEX
8
CUT
10
10.9249
20
1.0891
0
SEQEND
0
POLYLINE
8
CUT
66
1
70
0
0
VERTEX
8
CUT
10
20.6503
20
2.4891
0
VERTEX
8
CUT
10
17
20
8.8115
0
VERTEX
8
CUT
10
12.8497
20
1.6231
0
VERTEX
8
CUT
10
20.1503
20
1.6231
0
SEQEND
0
POLYLINE
8
CUT
66
1
70
0
0
VERTEX
8
CUT
10
16.5
20
5.1455
0
VERTEX
8
CUT
10
15.2746
20
3.0231
0
VERTEX
8
CUT
10
18.7254
20
3.0231
0
VERTEX
8
CUT
10
17.5
20
5.1455
0
SEQEND
0
LINE
8
CUT
10
18
20
14.4115
11
34
21
14.4115
0
LINE
8
CUT
10
17.5
20
13.5455
11
25.3205
21
0
0
LINE
8
CUT
10
34.5
20
13.5455
11
26.6795
21
0
0
POLYLINE
8
CUT
66
1
70
0
0
VERTEX
8
CUT
10
20.4249
20
13.0115
0
VERTEX
8
CUT
10
32.5751
20
13.0115
0
VERTEX
8
CUT
10
26
20
1.6231
0
VERTEX
8
CUT
10
19.9249
20
12.1455
0
SEQEND
0
POLYLINE
8
CUT
66
1
70
0
0
VERTEX
8
CUT
10
29.6503
20
10.7455
0
VERTEX
8
CUT
10
26
20
4.4231
0
VERTEX
8
CUT
10
21.8497
20
11.6115
0
VERTEX
8
CUT
10
29.1503
20
11.6115
0
SEQEND
0
POLYLINE
8
CUT
66
1
70
0
0
VERTEX
8
CUT
10
25.5
20
8.0891
0
VERTEX
8
CUT
10
24.2746
20
10.2115
0
VERTEX
8
CUT
10
27.7254
20
10.2115
0
VERTEX
8
CUT
10
26.5
20
8.0891
0
SEQEND
0
POLYLINE
8
CUT
66
1
70
0
0
VERTEX
8
CUT
10
29.4249
20
0.2231
0
VERTEX
8
CUT
10
41.5751
20
0.2231
0
VERTEX
8
CUT
10
35
20
11.6115
0
VERTEX
8
CUT
10
28.9249
20
1.0891
0
SEQEND
0
POLYLINE
8
CUT
66
1
70
0
0
VERTEX
8
CUT
10
38.6503
20
2.4891
0
VERTEX
8
CUT
10
35
20
8.8115
0
VERTEX
8
CUT
10
30.8497
20
1.6231
0
VERTEX
8
CUT
10
38.1503
20
1.6231
0
SEQEND
0
POLYLINE
8
CUT
66
1
70
0
0
VERTEX
8
CUT
10
34.5
20
5.1455
0
VERTEX
8
CUT
10
33.2746
20
3.0231
0
VERTEX
8
CUT
10
36.7254
20
3.0231
0
VERTEX
8
CUT
10
35.5
20
5.1455
0
SEQEND
0
LINE
8
CUT
10
36
20
14.4115
11
52
21
14.4115
0
LINE
8
CUT
10
35.5
20
13.5455
11
43.3205
21
0
0
LINE
8
CUT
10
52.5
20
13.5455
11
44.6795
21
0
0
POLYLINE
8
CUT
66
1
70
0
0
VERTEX
8
CUT
10
38.4249
20
13.0115
0
VERTEX
8
CUT
10
50.5751
20
13.0115
0
VERTEX
8
CUT
10
44
20
1.6231
0
VERTEX
8
CUT
10
37.9249
20
12.1455
0
SEQEND
0
POLYLINE
8
CUT
66
1
70
0
0
VERTEX
8
CUT
10
47.6503
20
10.7455
0
VERTEX
8
CUT
10
44
20
4.4231
0
VERTEX
8
CUT
10
39.8497
20
11.6115
0
VERTEX
8
CUT
10
47.1503
20
11.6115
0
SEQEND
0
POLYLINE
8
CUT
66
1
70
0
0
VERTEX
8
CUT
10
43.5
20
8.0891
0
VERTEX
8
CUT
10
42.2746
20
10.2115
0
VERTEX
8
CUT
10
45.7254
20
10.2115
0
VERTEX
8
CUT
10
44.5
20
8.0891
0
SEQEND
0
POLYLINE
8
CUT
66
1
70
0
0
VERTEX
8
CUT
10
47.4249
20
0.2231
0
VERTEX
8
CUT
10
59.5751
20
0.2231
0
VERTEX
8
CUT
10
53
20
11.6115
0
VERTEX
8
CUT
10
46.9249
20
1.0891
0
SEQEND
0
POLYLINE
8
CUT
66
1
70
0
0
VERTEX
8
CUT
10
56.6503
20
2.4891
0
VERTEX
8
CUT
10
53
20
8.8115
0
VERTEX
8
CUT
10
48.8497
20
1.6231
0
VERTEX
8
CUT
10
56.1503
20
1.6231
0
SEQEND
0
POLYLINE
8
CUT
66
1
70
0
0
VERTEX
8
CUT
10
52.5
20
5.1455
0
VERTEX
8
CUT
10
51.2746
20
3.0231
0
VERTEX
8
CUT
10
54.7254
20
3.0231
0
VERTEX
8
CUT
10
53.5
20
5.1455
0
SEQEND
0
LINE
8
CUT
10
54
20
14.4115
11
62
21
14.4115
0
LINE
8
CUT
10
53.5
20
13.5455
11
61.3205
21
0
0
LINE
8
CUT
10
56.4249
20
13.0115
11
62
21
13.0115
0
POLYLINE
8
CUT
66
1
70
0
0
VERTEX
8
CUT
10
62
20
1.6231
0
VERTEX
8
CUT
10
62
20
1.6231
0
VERTEX
8
CUT
10
55.9249
20
12.1455
0
SEQEND
0
POLYLINE
8
CUT
66
1
70
0
0
VERTEX
8
CUT
10
62
20
4.4231
0
VERTEX
8
CUT
10
62
20
4.4231
0
VERTEX
8
CUT
10
57.8497
20
11.6115
0
VERTEX
8
CUT
10
62
20
11.6115
0
SEQEND
0
POLYLINE
8
CUT
66
1
70
0
0
VERTEX
8
CUT
10
61.5
20
8.0891
0
VERTEX
8
CUT
10
60.2746
20
10.2115
0
VERTEX
8
CUT
10
62
20
10.2115
0
SEQEND
0
LINE
8
CUT
10
2.5
20
0
11
2.5
21
3
0
LINE
8
CUT
10
5
20
0
11
5
21
3
0
LINE
8
CUT
10
7.5
20
0
11
7.5
21
3
0
LINE
8
CUT
10
10
20
0
11
10
21
3
0
LINE
8
CUT
10
12.5
20
0
11
12.5
21
3
0
ENDSEC
0
EOF
